<svg width="20" height="20" viewBox="0 0 20 20" fill="none" xmlns="http://www.w3.org/2000/svg">
<path d="M3.33329 4.16659C3.33329 3.70635 2.9602 3.33325 2.49996 3.33325C2.03972 3.33325 1.66663 3.70635 1.66663 4.16659V15.8333C1.66663 16.2935 2.03972 16.6666 2.49996 16.6666C2.9602 16.6666 3.33329 16.2935 3.33329 15.8333V10.8333L9.99996 10.8333V15.8333C9.99996 16.2935 10.3731 16.6666 10.8333 16.6666C11.2935 16.6666 11.6666 16.2935 11.6666 15.8333V4.16659C11.6666 3.70635 11.2935 3.33325 10.8333 3.33325C10.3731 3.33325 9.99996 3.70635 9.99996 4.16659V9.16658H3.33329V4.16659Z" fill="#26282C"/>
<path d="M15 10.8333C15 10.576 15.335 9.99992 16.25 9.99992C17.0989 9.99992 17.5 10.5172 17.5 11.0416C17.5 11.241 17.4712 11.4676 17.3103 11.7715C17.1403 12.0926 16.8043 12.5337 16.1286 13.1135L13.6331 15.1931C13.3636 15.4177 13.2636 15.787 13.3831 16.1169C13.5025 16.4468 13.8158 16.6666 14.1666 16.6666H18.3333C18.7935 16.6666 19.1666 16.2935 19.1666 15.8333C19.1666 15.373 18.7935 14.9999 18.3333 14.9999H16.4683L17.2002 14.3902L17.2089 14.3826C17.9887 13.7143 18.4849 13.1149 18.7833 12.5513C19.0912 11.9698 19.1666 11.4672 19.1666 11.0416C19.1666 9.4826 17.901 8.33325 16.25 8.33325C14.6649 8.33325 13.3333 9.42379 13.3333 10.8333C13.3333 11.2935 13.7064 11.6666 14.1666 11.6666C14.6269 11.6666 15 11.2935 15 10.8333Z" fill="#26282C"/>
</svg>
