<svg width="20" height="20" viewBox="0 0 20 20" fill="none" xmlns="http://www.w3.org/2000/svg">
<path fill-rule="evenodd" clip-rule="evenodd" d="M17.0711 2.92919C15.1185 0.976566 11.9526 0.976566 10 2.92919L8.23226 4.69695C7.90682 5.02239 7.90682 5.55003 8.23226 5.87547C8.5577 6.2009 9.08533 6.2009 9.41077 5.87547L11.1785 4.1077C12.4803 2.80595 14.5908 2.80595 15.8926 4.1077C17.1943 5.40945 17.1943 7.52 15.8926 8.82174L14.1248 10.5895C13.7994 10.9149 13.7994 11.4426 14.1248 11.768C14.4503 12.0935 14.9779 12.0935 15.3033 11.768L17.0711 10.0003C19.0237 8.04763 19.0237 4.88181 17.0711 2.92919ZM2.92894 17.0706C0.976322 15.118 0.976322 11.9522 2.92894 9.99956L4.69671 8.23179C5.02215 7.90635 5.54978 7.90635 5.87522 8.23179C6.20066 8.55723 6.20066 9.08487 5.87522 9.4103L4.10745 11.1781C2.80571 12.4798 2.80571 14.5904 4.10745 15.8921C5.4092 17.1939 7.51975 17.1939 8.8215 15.8921L10.5893 14.1243C10.9147 13.7989 11.4423 13.7989 11.7678 14.1243C12.0932 14.4498 12.0932 14.9774 11.7678 15.3029L10 17.0706C8.04739 19.0232 4.88156 19.0232 2.92894 17.0706ZM5.87523 12.9458C5.54979 13.2713 5.54979 13.7989 5.87523 14.1243C6.20066 14.4498 6.7283 14.4498 7.05374 14.1243L14.1248 7.05328C14.4502 6.72784 14.4502 6.20021 14.1248 5.87477C13.7994 5.54933 13.2717 5.54933 12.9463 5.87477L5.87523 12.9458Z" fill="#26282C"/>
</svg>
