<svg width="17" height="16" viewBox="0 0 17 16" fill="none" xmlns="http://www.w3.org/2000/svg">
<path fill-rule="evenodd" clip-rule="evenodd" d="M8.4974 15.3307C12.5475 15.3307 15.8307 12.0475 15.8307 7.9974C15.8307 3.94731 12.5475 0.664062 8.4974 0.664062C4.44731 0.664062 1.16406 3.94731 1.16406 7.9974C1.16406 12.0475 4.44731 15.3307 8.4974 15.3307ZM9.16406 4.66406C9.16406 4.29587 8.86559 3.9974 8.4974 3.9974C8.12921 3.9974 7.83073 4.29587 7.83073 4.66406V7.33073H5.16406C4.79587 7.33073 4.4974 7.62921 4.4974 7.9974C4.4974 8.36559 4.79587 8.66406 5.16406 8.66406H7.83073V11.3307C7.83073 11.6989 8.12921 11.9974 8.4974 11.9974C8.86559 11.9974 9.16406 11.6989 9.16406 11.3307V8.66406H11.8307C12.1989 8.66406 12.4974 8.36559 12.4974 7.9974C12.4974 7.62921 12.1989 7.33073 11.8307 7.33073H9.16406V4.66406Z" fill="#C3C7CC"/>
</svg>
