<svg width="12" height="12" viewBox="0 0 12 12" fill="none" xmlns="http://www.w3.org/2000/svg">
<path fill-rule="evenodd" clip-rule="evenodd" d="M8.45796 10.5C8.27234 11.2678 7.49923 11.7856 6.68571 11.6113L2.68571 10.7542C1.9941 10.606 1.5 9.99476 1.5 9.28745V2C1.5 1.17157 2.17157 0.5 3 0.5H9C9.82843 0.5 10.5 1.17157 10.5 2V9C10.5 9.82843 9.82843 10.5 9 10.5H8.45796ZM9 1.25C9.41421 1.25 9.75 1.58579 9.75 2V9C9.75 9.41421 9.41421 9.75 9 9.75H8.5V3.2127C8.5 2.50539 8.0059 1.89419 7.31429 1.74599L4.99966 1.25H9ZM7.15715 2.47934L3.15715 1.6222C2.69026 1.52216 2.25 1.87807 2.25 2.35555V9.28745C2.25 9.6411 2.49705 9.9467 2.84285 10.0208L6.84285 10.8779C7.30974 10.978 7.75 10.6221 7.75 10.1446V3.2127C7.75 2.85904 7.50295 2.55344 7.15715 2.47934ZM6.5 7.5C6.77614 7.5 7 7.16421 7 6.75C7 6.33579 6.77614 6 6.5 6C6.22386 6 6 6.33579 6 6.75C6 7.16421 6.22386 7.5 6.5 7.5Z" fill="#10239E"/>
</svg>
