<svg width="24" height="24" viewBox="0 0 24 24" fill="none" xmlns="http://www.w3.org/2000/svg">
<g clip-path="url(#clip0_118_2657)">
<path fill-rule="evenodd" clip-rule="evenodd" d="M23 3.00008C22.4477 3.00008 22 3.44779 22 4.00008V9.00008H17C16.4477 9.00008 16 9.44779 16 10.0001C16 10.5524 16.4477 11.0001 17 11.0001H23C23.5523 11.0001 24 10.5524 24 10.0001V4.00008C24 3.44779 23.5523 3.00008 23 3.00008Z" fill="#26282C"/>
<path fill-rule="evenodd" clip-rule="evenodd" d="M8 14.0001C8 13.4478 7.55228 13.0001 7 13.0001H0.999999C0.447715 13.0001 -7.92281e-07 13.4478 -7.92281e-07 14.0001V20.0001C-7.92281e-07 20.5524 0.447715 21.0001 0.999999 21.0001C1.55228 21.0001 2 20.5524 2 20.0001V15.0001H7C7.55228 15.0001 8 14.5524 8 14.0001Z" fill="#26282C"/>
<path fill-rule="evenodd" clip-rule="evenodd" d="M14.7731 2.39623C13.1503 1.92686 11.4352 1.8762 9.7876 2.24899C8.14002 2.62177 6.61373 3.40585 5.35113 4.52806C4.08854 5.65026 3.1308 7.07402 2.56728 8.66648C2.38304 9.18713 2.65576 9.75855 3.1764 9.94279C3.69705 10.127 4.26848 9.85432 4.45272 9.33367C4.90353 8.0597 5.66972 6.9207 6.6798 6.02293C7.68987 5.12517 8.91091 4.49791 10.229 4.19968C11.547 3.90145 12.9192 3.94198 14.2173 4.31747C15.5155 4.69297 16.6974 5.3912 17.6527 6.34701C17.6601 6.3544 17.6676 6.36167 17.6752 6.36883L22.3152 10.7288C22.7177 11.107 23.3506 11.0873 23.7288 10.6849C24.1069 10.2824 24.0873 9.64951 23.6848 9.27132L19.0559 4.92178C17.8637 3.73285 16.3906 2.86411 14.7731 2.39623ZM0.271247 13.3153C-0.106946 13.7178 -0.0872563 14.3506 0.315223 14.7288L4.94412 19.0784C6.13628 20.2673 7.6094 21.136 9.22695 21.6039C10.8497 22.0733 12.5648 22.1239 14.2124 21.7512C15.86 21.3784 17.3863 20.5943 18.6489 19.4721C19.9115 18.3499 20.8692 16.9261 21.4327 15.3337C21.617 14.813 21.3442 14.2416 20.8236 14.0574C20.3029 13.8731 19.7315 14.1458 19.5473 14.6665C19.0965 15.9404 18.3303 17.0795 17.3202 17.9772C16.3101 18.875 15.0891 19.5022 13.771 19.8005C12.453 20.0987 11.0808 20.0582 9.78267 19.6827C8.4845 19.3072 7.30261 18.609 6.34728 17.6531C6.34284 17.6487 6.33836 17.6443 6.33383 17.6399C6.33083 17.637 6.32781 17.6342 6.32477 17.6313L1.68478 13.2713C1.2823 12.8931 0.649438 12.9128 0.271247 13.3153Z" fill="#26282C"/>
</g>
<defs>
<clipPath id="clip0_118_2657">
<rect width="24" height="24" fill="white" transform="matrix(-1 0 0 1 24 0)"/>
</clipPath>
</defs>
</svg>
