<svg width="20" height="20" viewBox="0 0 20 20" fill="none" xmlns="http://www.w3.org/2000/svg">
<path fill-rule="evenodd" clip-rule="evenodd" d="M15.8008 18.3347H4.19929C1.63127 18.3347 0.0277664 15.553 1.3148 13.3307L7.11554 3.31508C8.39955 1.0981 11.6005 1.0981 12.8845 3.31508L18.6852 13.3307C19.9723 15.553 18.3688 18.3347 15.8008 18.3347ZM10.8333 6.66801C10.8333 6.20777 10.4602 5.83468 10 5.83468C9.53977 5.83468 9.16668 6.20777 9.16668 6.66801V10.8347C9.16668 11.2949 9.53977 11.668 10 11.668C10.4602 11.668 10.8333 11.2949 10.8333 10.8347V6.66801ZM10 13.3347C9.53977 13.3347 9.16668 13.7078 9.16668 14.168C9.16668 14.6282 9.53977 15.0013 10 15.0013H10.0083C10.4686 15.0013 10.8417 14.6282 10.8417 14.168C10.8417 13.7078 10.4686 13.3347 10.0083 13.3347H10Z" fill="#E94040"/>
</svg>
