<svg width="24" height="24" viewBox="0 0 24 24" fill="none" xmlns="http://www.w3.org/2000/svg">
<path fill-rule="evenodd" clip-rule="evenodd" d="M21.414 4.75757L19.242 2.58557C18.8669 2.21063 18.3583 2 17.828 2C17.2977 2 16.7891 2.21063 16.414 2.58557L3 15.9996L2.30352 20.5564C2.20156 21.2235 2.77605 21.798 3.44313 21.6961L8 20.9996L21.414 7.58557C21.7889 7.21052 21.9996 6.7019 21.9996 6.17157C21.9996 5.64124 21.7889 5.13263 21.414 4.75757ZM18.9695 7.9088L20.3532 6.52507C20.4468 6.43132 20.4996 6.30408 20.4996 6.17157C20.4996 6.03907 19.5936 5.09375 19.5 5L18.1813 3.64623C18.0876 3.5526 17.9605 3.5 17.828 3.5C17.6955 3.5 17.5682 3.55276 17.4745 3.64639L16.0908 5.03011L18.9695 7.9088ZM17.9088 8.96946L15.0301 6.09078L4.40846 16.7124L3.8891 20.1105L7.28714 19.5911L17.9088 8.96946Z" fill="#26282C"/>
</svg>
