<svg width="64" height="64" viewBox="0 0 64 64" fill="none" xmlns="http://www.w3.org/2000/svg">
<path d="M37.3051 5.0795C37.3051 5.0795 40.3655 6.25 45.9905 11.875C51.5949 17.4794 52.7701 20.5451 52.7786 20.5675C52.9152 23.2381 53 26.3612 53 30C53 40.8569 52.2456 47.1236 51.6105 50.4759C51.2025 52.6294 49.5221 54.1054 47.3429 54.3405C44.4014 54.6579 39.2106 55 30.5 55C21.7894 55 16.5986 54.6579 13.6571 54.3405C11.4779 54.1054 9.79754 52.6294 9.38951 50.4759C8.75437 47.1236 8 40.8569 8 30C8 19.1431 8.75437 12.8764 9.38951 9.52417C9.79754 7.37066 11.4779 5.89462 13.6571 5.65947C16.5986 5.34206 21.7894 5 30.5 5C33.0621 5 35.3197 5.02964 37.3051 5.0795Z" fill="#56CA76"/>
<path d="M18 41.25C18 42.6308 19.1193 43.75 20.5 43.75H38C39.3808 43.75 40.5 42.6308 40.5 41.25C40.5 39.8693 39.3808 38.75 38 38.75H20.5C19.1193 38.75 18 39.8693 18 41.25Z" fill="white"/>
<path d="M18 30C18 31.3808 19.1193 32.5 20.5 32.5H30.5C31.8807 32.5 33 31.3808 33 30C33 28.6193 31.8807 27.5 30.5 27.5H20.5C19.1193 27.5 18 28.6193 18 30Z" fill="#E0FBE5"/>
<path d="M52.7786 20.5671C49.1792 21.4725 44.9295 21.5326 41.2588 20.4113C39.707 19.9371 38.497 18.7283 37.9732 17.1925C36.6685 13.3666 36.3461 8.68368 37.3051 5.0791C37.3051 5.0791 40.3653 6.2496 45.9903 11.8746C51.6153 17.4996 52.7786 20.5671 52.7786 20.5671Z" fill="#E0FBE5"/>
<path d="M48.3333 61.6667C55.6971 61.6667 61.6667 55.6971 61.6667 48.3333C61.6667 40.9695 55.6971 35 48.3333 35C40.9695 35 35 40.9695 35 48.3333C35 55.6971 40.9695 61.6667 48.3333 61.6667Z" fill="white"/>
<path d="M60.574 47.4278L48.9529 58.5924C48.8184 58.7216 48.6588 58.8241 48.4831 58.8941C48.3074 58.964 48.1191 59 47.9289 59C47.7387 59 47.5504 58.964 47.3747 58.8941C47.199 58.8241 47.0394 58.7216 46.9049 58.5924L40.4233 52.3319C40.1523 52.071 40 51.7175 40 51.3489C40 50.9803 40.1523 50.6267 40.4233 50.3659L42.5953 48.2791C42.8659 48.019 43.2327 47.8724 43.6155 47.8715C43.9982 47.8705 44.3658 48.0152 44.6379 48.2738L47.9538 51.3406L47.9637 51.3502L56.3558 43.4054C56.6271 43.1458 56.9945 43 57.3775 43C57.7605 43 58.1279 43.1458 58.3993 43.4054L60.5712 45.454C60.7069 45.5831 60.8146 45.7368 60.8882 45.906C60.9617 46.0753 60.9997 46.2569 61 46.4404C61.0003 46.6238 60.9627 46.8055 60.8896 46.975C60.8165 47.1444 60.7092 47.2983 60.574 47.4278Z" fill="#56CA76"/>
</svg>
