<svg width="64" height="64" viewBox="0 0 64 64" fill="none" xmlns="http://www.w3.org/2000/svg">
<path d="M6.02387 15.8411C6.25561 13.8938 7.60459 12.4149 9.53219 12.0547C12.8244 11.4394 19.2342 10.667 30.6667 10.667C42.0992 10.667 48.509 11.4394 51.8012 12.0547C53.7288 12.4149 55.0778 13.8938 55.3095 15.8411C55.6372 18.5945 56 23.5509 56 32.0003C56 40.4498 55.6372 45.4062 55.3095 48.1595C55.0778 50.1069 53.7288 51.5858 51.8012 51.9461C48.509 52.5613 42.0992 53.3337 30.6667 53.3337C19.2342 53.3337 12.8244 52.5613 9.53219 51.9461C7.60459 51.5858 6.25561 50.1069 6.02387 48.1595C5.69619 45.4062 5.33337 40.4498 5.33337 32.0003C5.33337 23.5509 5.69619 18.5945 6.02387 15.8411Z" fill="#DDF3FF"/>
<rect x="36" y="36" width="28" height="28" rx="14" fill="#3AB67B"/>
<path fill-rule="evenodd" clip-rule="evenodd" d="M57.4831 44.4409C57.8682 44.815 57.8771 45.4305 57.503 45.8157L48.0585 55.5379C47.8722 55.7297 47.615 55.8363 47.3476 55.8326C47.0801 55.8288 46.826 55.7151 46.6451 55.5181L42.4784 50.981C42.1153 50.5856 42.1414 49.9705 42.5369 49.6074C42.9324 49.2442 43.5474 49.2703 43.9106 49.6658L47.381 53.4447L56.1083 44.4608C56.4824 44.0757 57.0979 44.0667 57.4831 44.4409Z" fill="white"/>
<path d="M46.4401 5.41635C47.2736 5.48507 47.8464 6.09561 47.9029 6.93003C47.9549 7.69662 48 8.87747 48 10.6663C48 10.9563 47.9988 11.2303 47.9967 11.4891C49.5721 11.675 50.8235 11.8714 51.8004 12.054C53.728 12.4142 55.0769 13.8931 55.3087 15.8405C55.4631 17.1374 55.6252 18.9234 55.7536 21.333H5.57812C5.70648 18.9234 5.86865 17.1374 6.02301 15.8405C6.25475 13.8931 7.60372 12.4142 9.53132 12.054C10.5085 11.8714 11.7604 11.6749 13.3367 11.4889C13.3345 11.2301 13.3333 10.9562 13.3333 10.6663C13.3333 8.87747 13.3784 7.69662 13.4304 6.93003C13.4869 6.09561 14.0597 5.48507 14.8932 5.41635C15.4604 5.36959 16.2501 5.33301 17.3333 5.33301C18.4165 5.33301 19.2063 5.36959 19.7735 5.41635C20.6069 5.48507 21.1797 6.09561 21.2363 6.93003C21.2883 7.69662 21.3333 8.87747 21.3333 10.6663C21.3333 10.7336 21.3333 10.8 21.3332 10.8656C23.9892 10.7423 27.0805 10.6663 30.6659 10.6663C34.2519 10.6663 37.3437 10.7423 40.0001 10.8656L40 10.6663C40 8.87747 40.0451 7.69662 40.0971 6.93003C40.1536 6.09561 40.7264 5.48507 41.5599 5.41635C42.1271 5.36959 42.9168 5.33301 44 5.33301C45.0832 5.33301 45.8729 5.36959 46.4401 5.41635Z" fill="#1A99F4"/>
<path d="M13.3932 29.5988C13.4398 28.8329 13.938 28.2397 14.6988 28.1405C15.2862 28.0639 16.1351 28 17.3334 28C18.5316 28 19.3806 28.0639 19.9679 28.1405C20.7287 28.2397 21.227 28.8329 21.2735 29.5988C21.3068 30.1465 21.3334 30.9215 21.3334 32C21.3334 33.0785 21.3068 33.8535 21.2735 34.4012C21.227 35.1671 20.7287 35.7603 19.9679 35.8595C19.3806 35.9361 18.5316 36 17.3334 36C16.1351 36 15.2862 35.9361 14.6988 35.8595C13.938 35.7603 13.4398 35.1671 13.3932 34.4012C13.3599 33.8535 13.3334 33.0785 13.3334 32C13.3334 30.9215 13.3599 30.1465 13.3932 29.5988Z" fill="#1A99F4"/>
</svg>
