<svg width="128" height="95" viewBox="0 0 128 95" fill="none" xmlns="http://www.w3.org/2000/svg">
<rect x="58.7537" width="52.9473" height="62.7682" rx="3" transform="rotate(6.83461 58.7537 0)" fill="#FAF9F8"/>
<rect x="61.7386" y="3.79883" width="46.1154" height="46.1154" transform="rotate(6.83461 61.7386 3.79883)" fill="#CDEAFF"/>
<rect y="47.5094" width="34.2143" height="40.5605" rx="3" transform="rotate(-26.9557 0 47.5094)" fill="#FAF9F8"/>
<rect x="4.78027" y="49.066" width="27.1047" height="27.1047" transform="rotate(-26.9557 4.78027 49.066)" fill="#C2F2E7"/>
<rect x="77.4678" y="17.0001" width="52.9473" height="62.7682" rx="3" transform="rotate(20 77.4678 17.0001)" fill="#FAF9F8"/>
<rect x="79.5092" y="21.3784" width="46.1154" height="46.1154" transform="rotate(20 79.5092 21.3784)" fill="#E8C3FF"/>
<g opacity="0.7" clip-path="url(#clip0_901_75)">
<path d="M105.328 59.8642C105.323 60.0006 105.344 60.1329 105.362 60.2765C105.455 60.8583 105.779 61.4249 105.705 62.017C105.575 63.0685 104.33 63.5553 103.286 63.641C100.399 63.8751 97.2489 62.6324 94.5851 61.9195C92.0734 61.2419 89.7063 59.0278 87.1481 58.7373C86.2258 58.6354 85.2978 58.8706 84.369 58.8294C82.8185 58.7683 81.3268 57.9221 80.4792 56.6256C79.9969 55.8837 79.6823 54.9685 78.9394 54.4961C78.2272 54.0459 77.281 54.0996 76.5838 53.6416C75.6797 53.0431 75.5023 51.7317 75.883 50.7214C76.2638 49.7112 77.0764 48.9248 77.8596 48.1919C79.6723 46.5024 81.6081 44.7009 82.2154 42.2929C82.4783 41.2581 82.5265 40.0678 83.3253 39.365C83.9302 38.8397 84.8078 38.7644 85.5409 38.4301C86.5372 37.9777 87.2415 37.0568 88.0626 36.3233C89.4879 35.0266 91.3724 34.226 93.3026 34.1179C98.7975 33.7756 102.589 36.2121 104.575 41.1942C105.31 43.0456 105.895 44.8995 105.981 46.8981C106.076 48.9496 104.933 51.4651 105.629 53.4043C105.839 53.9728 106.222 54.4702 106.388 55.0621C106.801 56.6613 105.327 58.2315 105.328 59.8642Z" fill="#491606"/>
<path d="M70.9956 66.461C70.7648 67.7446 70.5976 68.8263 70.5367 69.177C70.4722 69.5389 70.4078 69.9008 70.3546 70.2663C70.1697 71.4041 70.0222 72.5413 69.9084 73.6891C69.8735 74.0357 69.8386 74.3822 69.8038 74.7288C69.7952 74.8741 69.7718 75.027 69.7632 75.1722C69.707 75.7833 69.6768 76.3903 69.6318 77.005C69.6245 77.2246 69.6314 77.3994 69.6221 77.5074C69.5452 79.6779 69.4719 81.8371 69.395 84.0076C69.3941 84.1676 69.3785 84.3353 69.3776 84.4953C69.3263 85.7984 69.2454 87.1169 68.876 88.3691C68.4147 89.9131 67.561 91.2102 66.6059 92.4754C66.2786 93.1615 65.895 93.8299 65.4699 94.4728C65.1393 94.9729 64.7896 95.4547 64.4696 95.9211C67.8121 99.4144 82.2304 103.965 87.1821 102.7C87.1789 102.317 87.1835 101.949 87.1994 101.584C87.3734 98.7904 87.8627 95.899 89.4749 93.6076C89.621 93.2221 89.7784 92.8401 89.9695 92.4687C91.9226 88.5832 95.3779 85.861 96.8863 81.7369L96.9539 81.7582C97.5454 80.1936 98.1137 78.5847 98.7305 76.9787C98.8802 76.582 99.0298 76.1852 99.1794 75.7884C99.6142 74.643 100.012 73.4982 100.345 72.3209C100.784 70.7698 100.453 69.7778 99.7363 68.9482C99.6104 68.7976 99.4698 68.6547 99.3179 68.5083C98.9003 68.1056 98.4086 67.7412 97.8903 67.3438C97.6216 67.1359 97.3417 66.9245 97.0576 66.6872C96.8874 66.5596 96.7432 66.4279 96.5913 66.2815C95.4346 65.2392 94.3526 63.9986 93.986 62.49C93.595 60.8627 94.2209 59.3459 94.7272 57.8161C94.9009 57.3037 95.0633 56.7876 95.1659 56.2651C95.492 54.6786 95.0076 52.837 94.0574 51.4529C93.8465 51.1399 93.6026 50.8536 93.3481 50.6008C92.8467 50.1101 92.246 49.6991 91.5712 49.5237C90.8851 49.3447 90.1326 49.4161 89.5388 49.8087C89.2071 50.0372 88.9513 50.3389 88.7447 50.6807C88.5092 51.0751 88.3306 51.5244 88.1591 51.9513C87.9559 52.4791 87.7526 53.0069 87.5416 53.52C87.3701 53.9469 87.1951 54.385 87.0124 54.8083C86.9729 54.8945 86.9298 54.9919 86.8903 55.0781C86.213 56.6404 85.9518 58.7282 84.2806 59.5954C81.26 61.1722 78.651 60.3016 75.6665 60.3486C75.3047 60.358 74.9394 60.3786 74.5705 60.4105C73.5871 60.5078 72.9075 60.898 72.4212 61.4601C71.3803 62.7229 71.2866 64.7895 70.9956 66.461Z" fill="#FFBEB8"/>
<path d="M100.318 54.0276C99.2921 53.7047 98.7213 52.6142 99.043 51.5919C99.3648 50.5697 100.457 50.0027 101.483 50.3257C102.509 50.6486 103.08 51.7391 102.758 52.7614C102.437 53.7837 101.344 54.3506 100.318 54.0276Z" fill="#F4897D"/>
<path d="M84.9841 49.0039C83.9582 48.681 83.3874 47.5905 83.7092 46.5683C84.0309 45.546 85.1235 44.9791 86.1494 45.302C87.1753 45.6249 87.7461 46.7154 87.4243 47.7377C87.1026 48.7599 86.0101 49.3268 84.9841 49.0039Z" fill="#F4897D"/>
<path d="M95.2444 56.5159C94.9081 57.5843 92.782 58.5213 90.4049 57.773C88.0279 57.0248 87.0559 54.295 87.3922 53.2266C87.7285 52.1582 89.2457 53.1558 91.6228 53.904C93.9998 54.6522 95.5807 55.4475 95.2444 56.5159Z" fill="#F4897D"/>
<path d="M97.7613 54.7474C98.7998 53.8543 99.7122 52.7201 100.475 51.501C102.673 48.0046 102.55 44.3056 99.9973 40.9864C99.3813 40.1762 98.705 39.3973 97.8684 38.807C94.8145 36.6382 91.1678 37.7167 88.9856 40.4385C87.7979 41.9262 87.1915 43.5717 86.8953 45.3149C86.4439 46.4683 86.1936 48.226 86.193 49.471C86.2052 52.2797 87.5847 54.9151 90.2245 56.0731C93.1594 57.3365 95.7216 56.4953 97.7613 54.7474Z" fill="#FFBEB8"/>
<path d="M103.65 48.5035C103.466 49.0028 103.061 49.4743 102.639 49.9127C102.315 50.2564 101.966 50.5923 101.715 50.9173C101.562 51.1057 101.363 51.3078 101.113 51.285C100.803 51.2429 100.677 50.8691 100.675 50.5759C100.66 48.6071 102.393 46.4919 100.826 44.6475C100.459 44.2256 99.9423 43.9793 99.5349 43.6004C98.6912 42.8055 98.4677 41.37 99.0111 40.2874C97.4603 40.5375 95.215 40.2911 93.8733 41.1642C93.4667 41.4263 93.1016 41.771 92.6827 42.0292C92.101 42.3755 91.4035 42.532 90.7409 42.4488C90.1561 42.3762 89.5699 42.136 88.978 42.2143C87.6066 42.4095 87.287 45.4843 86.9599 46.5235C86.8761 46.7897 86.7638 47.0608 86.5239 47.2221C86.4711 47.2612 86.41 47.2837 86.3446 47.2771C86.2669 47.2666 86.2011 47.218 86.1516 47.1606C86.0693 47.079 85.9993 47.0012 85.9292 46.9235C84.7994 45.5788 85.291 44.1456 85.7983 42.6197C86.3295 41.0179 86.7139 39.4534 87.737 38.0481C88.562 36.9287 89.7572 36.1348 91.1058 35.626C93.4772 34.7426 96.3577 34.73 98.6263 35.3744C99.4698 35.612 100.243 36.2454 100.966 36.8214C101.205 37.0079 101.443 37.1943 101.673 37.3643C103.354 38.5479 104.645 41.3086 104.579 43.2796C104.562 43.7619 104.471 44.2209 104.377 44.6927C104.157 45.9051 104.078 47.315 103.65 48.5035Z" fill="#491606"/>
<path d="M88.1801 63.8211C82.7452 62.1104 85.1466 58.8653 85.1466 58.8653L82.3776 58.3756C82.3776 58.3756 73.4758 84.7835 72.6384 87.4441C71.8009 90.1047 66.5017 97.809 66.5017 97.809C66.5017 97.809 70.0584 99.9283 74.3336 101.274C78.6087 102.62 87.2954 105.354 87.2954 105.354C87.2954 105.354 95.1806 69.8215 95.9655 68.519C96.7504 67.2165 98.6423 64.1911 98.6423 64.1911L94.0619 61.4967C93.3232 62.5169 94.138 65.6964 88.1801 63.8211Z" fill="white"/>
<path d="M82.8303 58.1612C82.8303 58.1612 77.725 71.1252 76.9209 74.871C76.094 78.6096 74.7642 88.3131 72.9717 92.0227C71.9148 94.1894 71.4576 96.5947 70.6509 98.8401C70.1759 100.19 69.5157 101.732 67.9138 101.977C65.8083 102.314 63.5175 101.493 61.5248 100.916C60.0779 100.511 57.592 99.7533 57.7254 97.8208C57.8647 95.7902 60.2346 92.7872 59.7583 92.7123C59.282 92.6373 54.7643 90.3156 54.1978 88.4627C53.5366 86.3551 55.8345 84.4542 56.4998 83.214C58.9138 78.8003 61.1648 74.1103 64.2947 70.1219C66.8043 66.913 66.5848 62.8463 70.0364 60.0588C73.4881 57.2714 74.6615 58.2028 76.6201 58.0945C78.5786 57.9862 82.8303 58.1612 82.8303 58.1612Z" fill="#231F20"/>
<path d="M95.7315 62.5005C95.7315 62.5005 89.2088 75.918 88.2228 80.9562C87.2141 85.9872 81.2039 99.8409 80.0279 102.545C78.8291 105.242 78.8986 106.688 81.3546 107.461C83.8105 108.234 86.4677 109.321 88.396 110.103C90.3243 110.884 91.1049 108.881 91.6935 107.566C92.2822 106.252 93.7189 103.355 95.8851 103.937C98.0213 104.535 99.5036 103.002 100.067 100.18C100.63 97.3581 102.486 81.6967 103.435 78.5215C104.914 73.6635 103.35 68.4467 101.295 66.0006C99.7873 64.2013 95.7315 62.5005 95.7315 62.5005Z" fill="#231F20"/>
<path d="M61.6274 90.4264C63.1513 88.6817 63.6346 86.0346 64.7083 83.9733C66.1033 81.2882 67.5282 78.5876 68.7257 75.8154C69.8062 73.2563 70.652 70.6484 71.164 67.9103C71.7058 65.1567 72.0742 62.3984 72.896 59.708C72.9891 59.4123 73.4439 59.5555 73.3508 59.8511C72.486 62.678 72.1202 65.587 71.5354 68.4771C70.9578 71.3444 70.0163 74.0972 68.8247 76.7713C67.6546 79.3772 66.3396 81.8874 65.0175 84.4204C63.9509 86.4591 63.5034 88.9925 61.9723 90.7599C61.7428 91.0126 61.4278 90.6635 61.6274 90.4264Z" fill="#4E4446"/>
<path d="M98.1741 76.1122C98.6204 74.8531 99.1122 73.6083 99.7489 72.4591C100.495 71.1195 101.417 69.8599 101.768 68.3461C101.839 68.0433 102.293 68.1864 102.223 68.4892C101.935 69.7231 101.297 70.7969 100.652 71.8935C99.8597 73.2188 99.2196 74.6168 98.6862 76.0735C97.6491 78.9711 96.9688 82.0061 96.2273 84.9968C95.4371 88.2221 94.7378 91.476 94.2048 94.7573C93.7884 97.3505 93.1388 99.9702 93.3566 102.613C93.3844 102.922 92.9166 102.899 92.8888 102.591C92.6709 99.9479 93.3206 97.3282 93.7369 94.735C94.2569 91.5746 94.9204 88.4343 95.682 85.3C96.4293 82.2112 97.1383 79.0853 98.1741 76.1122Z" fill="#4E4446"/>
</g>
<defs>
<clipPath id="clip0_901_75">
<rect width="46.1154" height="46.1154" fill="white" transform="translate(79.5092 21.3784) rotate(20)"/>
</clipPath>
</defs>
</svg>
