<svg width="64" height="64" viewBox="0 0 64 64" fill="none" xmlns="http://www.w3.org/2000/svg">
<path d="M37.3051 5.0795C37.3051 5.0795 40.3655 6.25 45.9905 11.875C51.5949 17.4794 52.7701 20.5451 52.7786 20.5675C52.9152 23.2381 53 26.3612 53 30C53 40.8569 52.2456 47.1236 51.6105 50.4759C51.2025 52.6294 49.5221 54.1054 47.3429 54.3405C44.4014 54.6579 39.2106 55 30.5 55C21.7894 55 16.5986 54.6579 13.6571 54.3405C11.4779 54.1054 9.79754 52.6294 9.38951 50.4759C8.75437 47.1236 8 40.8569 8 30C8 19.1431 8.75437 12.8764 9.38951 9.52417C9.79754 7.37066 11.4779 5.89462 13.6571 5.65947C16.5986 5.34206 21.7894 5 30.5 5C33.0621 5 35.3197 5.02964 37.3051 5.0795Z" fill="#FFEECF"/>
<path d="M18.0005 41.25C18.0005 42.6308 19.1197 43.75 20.5005 43.75H38.0005C39.3812 43.75 40.5005 42.6308 40.5005 41.25C40.5005 39.8693 39.3812 38.75 38.0005 38.75H20.5005C19.1197 38.75 18.0005 39.8693 18.0005 41.25Z" fill="#D46B08"/>
<path d="M18.0005 30C18.0005 31.3808 19.1197 32.5 20.5005 32.5H30.5005C31.8812 32.5 33.0005 31.3808 33.0005 30C33.0005 28.6193 31.8812 27.5 30.5005 27.5H20.5005C19.1197 27.5 18.0005 28.6193 18.0005 30Z" fill="#D46B08"/>
<path d="M52.7791 20.5676C49.1797 21.473 44.93 21.5331 41.2593 20.4117C39.7075 19.9376 38.4975 18.7287 37.9737 17.193C36.669 13.3671 36.3466 8.68417 37.3056 5.07959C37.3056 5.07959 40.3658 6.25009 45.9908 11.8751C51.6158 17.5001 52.7791 20.5676 52.7791 20.5676Z" fill="#D46B08"/>
<path d="M48.3328 61.6667C55.6966 61.6667 61.6662 55.6971 61.6662 48.3333C61.6662 40.9695 55.6966 35 48.3328 35C40.969 35 34.9995 40.9695 34.9995 48.3333C34.9995 55.6971 40.969 61.6667 48.3328 61.6667Z" fill="white"/>
<path d="M54.4294 43.3967C55.03 42.8439 55.9488 42.874 56.5231 43.4547L57.3861 44.3272C57.9604 44.9078 57.9902 45.8368 57.4434 46.4441C56.6295 47.3481 55.3423 48.7536 53.7459 50.4146C55.4183 52.15 56.766 53.6211 57.6076 54.5559C58.1544 55.1632 58.1247 56.0922 57.5503 56.6728L56.6874 57.5453C56.113 58.126 55.1943 58.1561 54.5937 57.6033C53.6694 56.7527 52.2153 55.3909 50.5 53.7011C48.7847 55.3909 47.3306 56.7527 46.4063 57.6033C45.8057 58.1561 44.887 58.126 44.3126 57.5453L43.4497 56.6728C42.8753 56.0922 42.8456 55.1632 43.3924 54.5559C44.234 53.6211 45.5817 52.15 47.2541 50.4146C45.6577 48.7536 44.3705 47.3481 43.5566 46.4441C43.0098 45.8368 43.0396 44.9078 43.6139 44.3272L44.4769 43.4547C45.0512 42.874 45.97 42.8439 46.5706 43.3967C47.4652 44.22 48.8561 45.5222 50.5 47.1374C52.1439 45.5222 53.5348 44.22 54.4294 43.3967Z" fill="#F5222D"/>
</svg>
