<svg width="101" height="63" viewBox="0 0 101 63" fill="none" xmlns="http://www.w3.org/2000/svg">
<path d="M100 52.0733C100 52.6618 99.7294 53.282 99.1192 53.9337C98.5067 54.5878 97.5789 55.2429 96.3412 55.8823C93.8672 57.1606 90.2546 58.3266 85.7486 59.3113C76.7448 61.2789 64.2823 62.5001 50.5 62.5001C36.7177 62.5001 24.2552 61.2789 15.2514 59.3113C10.7454 58.3266 7.13277 57.1606 4.65876 55.8823C3.42112 55.2429 2.49329 54.5878 1.8808 53.9337C1.2706 53.282 1 52.6618 1 52.0733C1 51.4849 1.2706 50.8646 1.8808 50.2129C2.49329 49.5588 3.42112 48.9038 4.65876 48.2643C7.13277 46.986 10.7454 45.8201 15.2514 44.8354C24.2552 42.8677 36.7177 41.6465 50.5 41.6465C64.2823 41.6465 76.7448 42.8677 85.7486 44.8354C90.2546 45.8201 93.8672 46.986 96.3412 48.2643C97.5789 48.9038 98.5067 49.5588 99.1192 50.2129C99.7294 50.8646 100 51.4849 100 52.0733Z" fill="#E9EAEC" stroke="#DADDE1"/>
<path d="M70.1598 2.78827L70.1819 2.82382L70.2096 2.85519L85.9375 20.6677V34.402H15.0625V20.6693L30.7905 2.8536L30.8181 2.82235L30.8401 2.78695C31.5396 1.66331 32.5101 1.06055 33.4578 1.06055H67.5422C68.4898 1.06055 69.4602 1.6632 70.1598 2.78827Z" stroke="#DADDE1"/>
<path d="M66.0203 25.4287C66.0203 24.2758 66.3784 23.2406 66.9362 22.5041C67.4939 21.768 68.2279 21.3542 69.0002 21.3535H85.9375V49.1649C85.9375 50.7216 85.4525 52.1204 84.6904 53.1194C83.9285 54.1182 82.912 54.695 81.8281 54.695H19.1719C18.0881 54.695 17.0716 54.1179 16.3097 53.1189C15.5475 52.1196 15.0625 50.7208 15.0625 49.1649V21.3535H32C32.7724 21.3535 33.5064 21.7664 34.0639 22.5014C34.6217 23.2368 34.9797 24.2711 34.9797 25.4241V25.4584C34.9797 28.1127 36.6619 30.4868 38.975 30.4868H62.025C63.1757 30.4868 64.1851 29.8755 64.8909 28.9575C65.5966 28.0396 66.0203 26.7936 66.0203 25.4397V25.4287Z" fill="white" stroke="#DADDE1"/>
</svg>
