<svg width="34" height="40" viewBox="0 0 34 40" fill="none" xmlns="http://www.w3.org/2000/svg">
<path d="M26.1667 9.99999H32.6667C32.7492 10.0001 32.8299 9.97578 32.8985 9.93001C32.9672 9.88423 33.0207 9.8191 33.0523 9.74288C33.0839 9.66665 33.0922 9.58276 33.076 9.50183C33.0599 9.42091 33.0201 9.3466 32.9617 9.28832L24.3783 0.711656C24.3205 0.653622 24.2468 0.613943 24.1665 0.597586C24.0861 0.581229 24.0028 0.588919 23.9268 0.619694C23.8509 0.65047 23.7857 0.702964 23.7394 0.770607C23.6931 0.838251 23.6678 0.91804 23.6667 0.99999V7.49999C23.6667 8.16303 23.9301 8.79892 24.3989 9.26776C24.8677 9.7366 25.5036 9.99999 26.1667 9.99999Z" fill="#FF4D82"/>
<path d="M33.5446 11.7887C33.6227 11.8668 33.6666 11.9728 33.6666 12.0833V36.6667C33.6666 37.5507 33.3154 38.3986 32.6903 39.0237C32.0652 39.6488 31.2173 40 30.3333 40H3.6666C2.78255 40 1.9347 39.6488 1.30958 39.0237C0.684457 38.3986 0.333267 37.5507 0.333267 36.6667V3.33333C0.333267 2.44928 0.684457 1.60143 1.30958 0.976311C1.9347 0.351189 2.78255 0 3.6666 0H21.5833C21.6938 0 21.7998 0.0438987 21.8779 0.122039C21.956 0.200179 21.9999 0.30616 21.9999 0.416667V7.5C21.9999 8.60507 22.4389 9.66488 23.2203 10.4463C24.0017 11.2277 25.0615 11.6667 26.1666 11.6667H33.2499C33.3604 11.6667 33.4664 11.7106 33.5446 11.7887Z" fill="#FF4D82"/>
<path fill-rule="evenodd" clip-rule="evenodd" d="M22.8848 20.8739C24.3717 21.8991 24.3717 24.1009 22.8848 25.1261L15.0302 30.5416C13.3232 31.7185 11 30.4929 11 28.4155L11 17.5845C11 15.5071 13.3232 14.2815 15.0302 15.4584L22.8848 20.8739Z" fill="white"/>
</svg>
