<svg width="96" height="96" viewBox="0 0 96 96" fill="none" xmlns="http://www.w3.org/2000/svg">
<path d="M75.2964 24.438L64.2866 13.317C63.8733 12.8984 63.3821 12.5665 62.8412 12.3405C62.3004 12.1145 61.7207 11.9988 61.1354 12H21.6552C20.4737 12 19.3405 12.4741 18.505 13.318C17.6696 14.1619 17.2002 15.3065 17.2002 16.5V79.5C17.2002 80.6935 17.6696 81.8381 18.505 82.682C19.3405 83.5259 20.4737 84 21.6552 84H72.1452C73.3267 84 74.4599 83.5259 75.2953 82.682C76.1308 81.8381 76.6002 80.6935 76.6002 79.5V27.621C76.6014 27.0298 76.4869 26.4442 76.2631 25.8979C76.0393 25.3517 75.7108 24.8555 75.2964 24.438V24.438ZM39.4752 78C38.8878 78 38.3136 77.8241 37.8251 77.4944C37.3367 77.1648 36.9561 76.6962 36.7313 76.148C36.5065 75.5999 36.4477 74.9967 36.5623 74.4147C36.6769 73.8328 36.9597 73.2982 37.3751 72.8787C37.7904 72.4591 38.3196 72.1734 38.8958 72.0576C39.4719 71.9419 40.0691 72.0013 40.6118 72.2284C41.1545 72.4554 41.6183 72.8399 41.9447 73.3333C42.271 73.8266 42.4452 74.4067 42.4452 75C42.4452 75.7957 42.1323 76.5587 41.5753 77.1213C41.0183 77.6839 40.2629 78 39.4752 78ZM39.4752 67.5C38.8878 67.5 38.3136 67.3241 37.8251 66.9944C37.3367 66.6648 36.9561 66.1962 36.7313 65.6481C36.5065 65.0999 36.4477 64.4967 36.5623 63.9147C36.6769 63.3328 36.9597 62.7982 37.3751 62.3787C37.7904 61.9591 38.3196 61.6734 38.8958 61.5576C39.4719 61.4419 40.0691 61.5013 40.6118 61.7284C41.1545 61.9554 41.6183 62.3399 41.9447 62.8333C42.271 63.3266 42.4452 63.9067 42.4452 64.5C42.4452 65.2957 42.1323 66.0587 41.5753 66.6213C41.0183 67.1839 40.2629 67.5 39.4752 67.5ZM39.49 57C38.9026 57 38.3284 56.8241 37.84 56.4944C37.3516 56.1648 36.9709 55.6962 36.7461 55.1481C36.5213 54.5999 36.4625 53.9967 36.5771 53.4147C36.6917 52.8328 36.9746 52.2982 37.3899 51.8787C37.8053 51.4591 38.3345 51.1734 38.9106 51.0576C39.4867 50.9419 40.0839 51.0013 40.6266 51.2284C41.1693 51.4554 41.6332 51.8399 41.9595 52.3333C42.2859 52.8266 42.46 53.4067 42.46 54C42.46 54.7957 42.1471 55.5587 41.5901 56.1213C41.0332 56.6839 40.2777 57 39.49 57ZM39.49 46.5C38.9026 46.5 38.3284 46.3241 37.84 45.9944C37.3516 45.6648 36.9709 45.1962 36.7461 44.6481C36.5213 44.0999 36.4625 43.4967 36.5771 42.9147C36.6917 42.3328 36.9746 41.7982 37.3899 41.3787C37.8053 40.9591 38.3345 40.6734 38.9106 40.5577C39.4867 40.4419 40.0839 40.5013 40.6266 40.7284C41.1693 40.9554 41.6332 41.3399 41.9595 41.8333C42.2859 42.3266 42.46 42.9067 42.46 43.5C42.46 44.2957 42.1471 45.0587 41.5901 45.6213C41.0332 46.1839 40.2777 46.5 39.49 46.5ZM43.945 31.8C43.397 32.4312 42.722 32.9369 41.965 33.2836C41.208 33.6302 40.3865 33.8097 39.5554 33.81C38.7106 33.8322 37.8711 33.6699 37.0942 33.334C36.3174 32.9981 35.6215 32.4966 35.0544 31.8638C34.4872 31.2311 34.062 30.482 33.808 29.6679C33.554 28.8538 33.4772 27.9939 33.5827 27.147L35.038 17.766C35.0932 17.4131 35.2713 17.0916 35.5403 16.8595C35.8093 16.6274 36.1514 16.4999 36.5052 16.5H42.4452C42.8024 16.4957 43.1492 16.6217 43.422 16.8547C43.6948 17.0878 43.8752 17.4124 43.9302 17.769L45.3736 27.102V27.15C45.4742 27.9824 45.3998 28.8268 45.1552 29.6281C44.9105 30.4294 44.5012 31.1695 43.954 31.8H43.945Z" fill="#722ED1"/>
<rect x="56" y="30" width="36" height="36" rx="14" fill="#E94040"/>
<path fill-rule="evenodd" clip-rule="evenodd" d="M67.506 40.3261C67.1806 40.0007 66.6529 40.0007 66.3275 40.3261C66.0021 40.6515 66.0021 41.1792 66.3275 41.5046L68.4111 43.5883C66.8821 44.8264 65.7319 46.2867 65.1021 47.1774C64.7511 47.6736 64.7511 48.3238 65.1021 48.82C66.3623 50.6023 69.7063 54.6654 74.0001 54.6654C75.5431 54.6654 76.9634 54.1407 78.2085 53.3856L80.4942 55.6713C80.8196 55.9967 81.3472 55.9967 81.6727 55.6713C81.9981 55.3458 81.9981 54.8182 81.6727 54.4928L79.589 52.4091L79.5897 52.4085L76.8724 49.6912L76.8719 49.692L75.6103 48.4304L75.6106 48.4294L73.5694 46.3882L73.5684 46.3885L72.3068 45.1269L72.3076 45.1264L69.7924 42.6113L69.7916 42.6117L67.506 40.3261ZM71.1283 46.3054C70.835 46.8017 70.6667 47.3805 70.6667 47.9987C70.6667 49.8396 72.1591 51.332 74.0001 51.332C74.6183 51.332 75.1971 51.1638 75.6934 50.8705L74.4318 49.6089C74.2941 49.6457 74.1494 49.6654 74.0001 49.6654C73.0796 49.6654 72.3334 48.9192 72.3334 47.9987C72.3334 47.8494 72.353 47.7047 72.3899 47.567L71.1283 46.3054Z" fill="white"/>
<path d="M74.2101 44.6719C75.8838 44.7759 77.2229 46.115 77.3269 47.7887L80.8268 51.2886C81.7448 50.3675 82.452 49.4509 82.8981 48.82C83.249 48.3238 83.249 47.6736 82.8981 47.1774C81.6378 45.3951 78.2938 41.332 74.0001 41.332C73.0761 41.332 72.1961 41.5202 71.3715 41.8332L74.2101 44.6719Z" fill="white"/>
<rect x="56" y="30" width="36" height="36" rx="14" stroke="#131416" stroke-width="4"/>
</svg>
