<svg width="34" height="40" viewBox="0 0 34 40" fill="none" xmlns="http://www.w3.org/2000/svg">
<path d="M26.1667 9.9999H32.6667C32.7492 10 32.8299 9.97569 32.8986 9.92992C32.9672 9.88414 33.0207 9.81901 33.0523 9.74278C33.0839 9.66656 33.0922 9.58266 33.076 9.50174C33.0599 9.42082 33.0201 9.34651 32.9617 9.28823L24.3784 0.711565C24.3205 0.65353 24.2468 0.613852 24.1665 0.597494C24.0862 0.581137 24.0028 0.588827 23.9269 0.619603C23.8509 0.650378 23.7857 0.702872 23.7394 0.770516C23.6931 0.838159 23.6678 0.917948 23.6667 0.999898V7.4999C23.6667 8.16294 23.9301 8.79882 24.3989 9.26767C24.8678 9.73651 25.5036 9.9999 26.1667 9.9999Z" fill="#2F54EB"/>
<path d="M23.2203 10.4463C24.0017 11.2277 25.0615 11.6667 26.1666 11.6667H33.2499C33.3604 11.6667 33.4664 11.7106 33.5445 11.7887C33.6227 11.8668 33.6666 11.9728 33.6666 12.0833V36.6667C33.6666 37.5507 33.3154 38.3986 32.6903 39.0237C32.0652 39.6488 31.2173 40 30.3333 40H3.66659C2.78253 40 1.93468 39.6488 1.30956 39.0237C0.684441 38.3986 0.333252 37.5507 0.333252 36.6667V3.33333C0.333252 2.44928 0.684441 1.60143 1.30956 0.976311C1.93468 0.351189 2.78253 0 3.66659 0H21.5833C21.6938 0 21.7997 0.0438987 21.8779 0.122039C21.956 0.200179 21.9999 0.30616 21.9999 0.416667V7.5C21.9999 8.60507 22.4389 9.66488 23.2203 10.4463Z" fill="#2F54EB"/>
<path d="M6.20508 30H8.26953V26.1172H12.2822V24.4834H8.26953V21.8379H12.665V20.1357H6.20508V30Z" fill="white"/>
<path d="M14.7568 21.7285C15.3584 21.7285 15.8232 21.2568 15.8232 20.6895C15.8232 20.1221 15.3584 19.6504 14.7568 19.6504C14.1553 19.6504 13.6904 20.1221 13.6904 20.6895C13.6904 21.2568 14.1553 21.7285 14.7568 21.7285ZM13.7588 30H15.7549V22.6719H13.7588V30Z" fill="white"/>
<path d="M17.1426 30H19.1387V20.1357H17.1426V30Z" fill="white"/>
<path d="M23.8213 30.1504C25.9131 30.1504 26.9248 28.9131 27.1504 27.833L27.1709 27.7578H25.3389L25.3252 27.7988C25.1816 28.209 24.6826 28.6602 23.8623 28.6602C22.8438 28.6602 22.208 27.9766 22.1875 26.8076H27.2324V26.1924C27.2324 23.9775 25.8857 22.5215 23.7393 22.5215C21.5928 22.5215 20.2188 24.0117 20.2188 26.3428V26.3496C20.2188 28.6943 21.5791 30.1504 23.8213 30.1504ZM23.7734 24.0117C24.6006 24.0117 25.1953 24.5381 25.3184 25.5498H22.208C22.3379 24.5586 22.9531 24.0117 23.7734 24.0117Z" fill="white"/>
</svg>
