<svg width="34" height="40" viewBox="0 0 34 40" fill="none" xmlns="http://www.w3.org/2000/svg">
<path d="M26.1667 10H32.6667C32.7493 10.0002 32.83 9.97581 32.8986 9.93004C32.9673 9.88426 33.0208 9.81913 33.0524 9.74291C33.084 9.66668 33.0922 9.58279 33.0761 9.50186C33.06 9.42094 33.0202 9.34663 32.9617 9.28835L24.3784 0.711687C24.3205 0.653652 24.2468 0.613974 24.1665 0.597616C24.0862 0.581259 24.0029 0.588949 23.9269 0.619725C23.851 0.6505 23.7858 0.702994 23.7395 0.770638C23.6932 0.838281 23.6679 0.91807 23.6667 1.00002V7.50002C23.6667 8.16306 23.9301 8.79895 24.399 9.26779C24.8678 9.73663 25.5037 10 26.1667 10Z" fill="#30A960"/>
<path d="M33.5445 11.7887C33.6227 11.8668 33.6666 11.9728 33.6666 12.0833V36.6667C33.6666 37.5507 33.3154 38.3986 32.6903 39.0237C32.0652 39.6488 31.2173 40 30.3333 40H3.66659C2.78253 40 1.93468 39.6488 1.30956 39.0237C0.684441 38.3986 0.333252 37.5507 0.333252 36.6667V3.33333C0.333252 2.44928 0.684441 1.60143 1.30956 0.976311C1.93468 0.351189 2.78253 0 3.66659 0H21.5833C21.6938 0 21.7997 0.0438987 21.8779 0.122039C21.956 0.200179 21.9999 0.30616 21.9999 0.416667V7.5C21.9999 8.60507 22.4389 9.66488 23.2203 10.4463C24.0017 11.2277 25.0615 11.6667 26.1666 11.6667H33.2499C33.3604 11.6667 33.4664 11.7106 33.5445 11.7887Z" fill="#30A960"/>
<path d="M10.6328 31H13.6797L15.8594 27.3438H15.9297L18.125 31H21.3438L17.7891 25.3594V25.3203L21.375 19.7266H18.1953L16.1406 23.5469H16.0547L13.9844 19.7266H10.6406L14.0781 25.2891V25.3359L10.6328 31Z" fill="white"/>
</svg>
