<svg width="24" height="24" viewBox="0 0 24 24" fill="none" xmlns="http://www.w3.org/2000/svg">
<defs>
<linearGradient id="paint0_linear_22882_418470" x1="9.6" y1="4" x2="9.6" y2="20" gradientUnits="userSpaceOnUse">
<stop stop-color="#00EB61"/>
<stop offset="1" stop-color="#00AC47"/>
</linearGradient>
<linearGradient id="paint1_linear_22882_418470" x1="14.1998" y1="11.9999" x2="24.8123" y2="5.40551" gradientUnits="userSpaceOnUse">
<stop offset="0.276042" stop-color="#3F93F4"/>
<stop offset="0.71163" stop-color="#3EDCFF"/>
</linearGradient>
</defs>
<path d="M0 7.2C0 5.43269 1.43269 4 3.2 4H16C17.7673 4 19.2 5.43269 19.2 7.2V16.8C19.2 18.5673 17.7673 20 16 20H3.2C1.43269 20 0 18.5673 0 16.8V7.2Z" fill="url(#paint0_linear_22882_418470)"/>
<g style="mix-blend-mode:multiply">
<path d="M14.0154 12.6945C13.4779 12.3874 13.4779 11.6124 14.0154 11.3053L22.8029 6.28383C23.3363 5.97908 23.9999 6.36417 23.9999 6.97843V17.0213C23.9999 17.6356 23.3363 18.0207 22.8029 17.7159L14.0154 12.6945Z" fill="url(#paint1_linear_22882_418470)"/>
</g>
<path d="M5.88577 12.6784C5.38443 12.365 5.38443 11.6349 5.88577 11.3216L9.97633 8.76497C10.5092 8.43195 11.2003 8.81502 11.2003 9.44337V14.5566C11.2003 15.1849 10.5092 15.568 9.97633 15.235L5.88577 12.6784Z" fill="white"/>
</svg>
