<svg width="24" height="24" viewBox="0 0 24 24" fill="none" xmlns="http://www.w3.org/2000/svg">
<path fill-rule="evenodd" clip-rule="evenodd" d="M17 3.5H6C4.067 3.5 2.5 5.067 2.5 7V16C2.5 17.933 4.067 19.5 6 19.5H10.75C11.1642 19.5 11.5 19.8358 11.5 20.25C11.5 20.6642 11.1642 21 10.75 21H6C3.23858 21 1 18.7614 1 16V7C1 4.23858 3.23858 2 6 2H17C19.7614 2 22 4.23858 22 7V9.75C22 10.1642 21.6642 10.5 21.25 10.5C20.8358 10.5 20.5 10.1642 20.5 9.75V7C20.5 5.067 18.933 3.5 17 3.5ZM16 13.5H20C20.8284 13.5 21.5 14.1716 21.5 15V19C21.5 19.8284 20.8284 20.5 20 20.5H16C15.1716 20.5 14.5 19.8284 14.5 19V15C14.5 14.1716 15.1716 13.5 16 13.5ZM13 15C13 13.3431 14.3431 12 16 12H20C21.6569 12 23 13.3431 23 15V19C23 20.6569 21.6569 22 20 22H16C14.3431 22 13 20.6569 13 19V15Z" fill="#26282C"/>
</svg>
