<svg width="24" height="24" viewBox="0 0 24 24" fill="none" xmlns="http://www.w3.org/2000/svg">
<path fill-rule="evenodd" clip-rule="evenodd" d="M2.52044 11.6909V11.6396L2.51693 11.5884C2.19451 6.883 6.64589 2.5 12.0102 2.5C17.3464 2.5 21.5 6.12042 21.5 11.6909C21.5 12.1191 21.469 12.5434 21.4083 12.9607C21.9046 13.1588 22.3708 13.4164 22.7981 13.7245C22.9314 13.0627 23 12.382 23 11.6909C23 5.2 18.0797 1 12.0102 1C5.94073 1 0.627994 5.96364 1.02044 11.6909C1.02044 15.1132 2.38821 17.7925 4.57103 19.561L4.78114 22.0822C4.83879 22.774 5.56646 23.198 6.19674 22.9071L8.92265 21.649C9.90214 21.8809 10.9383 22 12.0102 22C12.4174 22 12.8157 21.982 13.2049 21.947C12.9708 21.4876 12.7897 20.9966 12.6697 20.4821C12.4532 20.494 12.2333 20.5 12.0102 20.5C11.0491 20.5 10.1292 20.3932 9.26821 20.1894L8.76427 20.0701L6.21664 21.2459L6.01269 18.7984L5.51528 18.3954C3.6988 16.9238 2.52044 14.6802 2.52044 11.6909ZM9 11.5C9 12.3284 8.32843 13 7.5 13C6.67157 13 6 12.3284 6 11.5C6 10.6716 6.67157 10 7.5 10C8.32843 10 9 10.6716 9 11.5ZM12 13C12.8284 13 13.5 12.3284 13.5 11.5C13.5 10.6716 12.8284 10 12 10C11.1716 10 10.5 10.6716 10.5 11.5C10.5 12.3284 11.1716 13 12 13ZM16.5 13C17.3284 13 18 12.3284 18 11.5C18 10.6716 17.3284 10 16.5 10C15.6716 10 15 10.6716 15 11.5C15 12.3284 15.6716 13 16.5 13ZM24 19C24 21.7614 21.7614 24 19 24C16.2386 24 14 21.7614 14 19C14 16.2386 16.2386 14 19 14C21.7614 14 24 16.2386 24 19ZM19 16C19.4142 16 19.75 16.3358 19.75 16.75V18.25H21.25C21.6642 18.25 22 18.5858 22 19C22 19.4142 21.6642 19.75 21.25 19.75H19.75V21.25C19.75 21.6642 19.4142 22 19 22C18.5858 22 18.25 21.6642 18.25 21.25V19.75H16.75C16.3358 19.75 16 19.4142 16 19C16 18.5858 16.3358 18.25 16.75 18.25H18.25V16.75C18.25 16.3358 18.5858 16 19 16Z" fill="#26282C"/>
</svg>
