<svg width="24" height="24" viewBox="0 0 24 24" fill="none" xmlns="http://www.w3.org/2000/svg">
<path fill-rule="evenodd" clip-rule="evenodd" d="M1.77671 0.361236C1.33427 -0.0812074 0.658731 -0.123014 0.267858 0.267858C-0.123014 0.658731 -0.0812074 1.33427 0.361236 1.77671L1.55335 2.96882C1.20175 3.56416 1 4.25852 1 5V14C1 16.2091 2.79086 18 5 18H5.54545L4.96564 20.773C4.7875 21.625 5.70741 22.2821 6.45554 21.8372L12.9091 18H16.5845L19.2233 20.6388C19.6657 21.0812 20.3413 21.123 20.7321 20.7321C21.123 20.3413 21.0812 19.6657 20.6388 19.2233L1.77671 0.361236ZM11.5845 13L9.58453 11H7C6.44772 11 6 11.4477 6 12C6 12.5523 6.44772 13 7 13H11.5845ZM23 14C23 15.2988 22.381 16.453 21.4219 17.1838L12.2381 8H17C17.5523 8 18 7.55228 18 7C18 6.44772 17.5523 6 17 6H10.2381L5.2381 1H19C21.2091 1 23 2.79086 23 5V14Z" fill="#26282C"/>
</svg>
