<svg width="12" height="12" viewBox="0 0 12 12" fill="none" xmlns="http://www.w3.org/2000/svg">
<path fill-rule="evenodd" clip-rule="evenodd" d="M6.00002 6C7.00002 6 7.50002 5 7.50002 3.75C7.50002 2.75 7.00002 2 6.00002 2C5.00002 2 4.50002 2.75 4.50002 3.75C4.50002 5 5.00002 6 6.00002 6ZM6.48627 4.95068C6.63962 4.70148 6.75002 4.29027 6.75002 3.75C6.75002 3.36439 6.65264 3.11011 6.53936 2.96852C6.44411 2.84946 6.29283 2.75 6.00002 2.75C5.7072 2.75 5.55592 2.84946 5.46067 2.96852C5.34739 3.11011 5.25002 3.36439 5.25002 3.75C5.25002 4.29027 5.36041 4.70148 5.51376 4.95068C5.64823 5.16919 5.79812 5.25 6.00002 5.25C6.20191 5.25 6.3518 5.16919 6.48627 4.95068Z" fill="#18202A"/>
<path fill-rule="evenodd" clip-rule="evenodd" d="M7.33452 10.9017C7.96715 10.8077 8.51325 10.4049 8.77923 9.82328C8.87308 9.61804 8.95851 9.40813 9.03507 9.19402C9.29687 8.46185 9.07776 7.6265 8.42289 7.20729C7.72349 6.75956 6.89206 6.5 6.00001 6.5C5.10796 6.5 4.27653 6.75956 3.57713 7.20729C2.92226 7.6265 2.70315 8.46185 2.96495 9.19401C3.04151 9.40813 3.12694 9.61804 3.2208 9.82328C3.48678 10.4049 4.03287 10.8077 4.6655 10.9017C5.10094 10.9665 5.54656 11 6.00001 11C6.45346 11 6.89908 10.9665 7.33452 10.9017ZM6.00001 10.25C6.41643 10.25 6.8252 10.2192 7.22425 10.1599C7.61152 10.1023 7.93912 9.85698 8.09716 9.51138C8.18217 9.32548 8.25953 9.13539 8.32886 8.9415C8.49178 8.48586 8.33454 8.04124 8.01853 7.83895C7.43624 7.46619 6.74451 7.25 6.00001 7.25C5.25551 7.25 4.56379 7.46619 3.98149 7.83895C3.66548 8.04124 3.50824 8.48586 3.67116 8.94149C3.74049 9.13539 3.81786 9.32548 3.90287 9.51138C4.0609 9.85698 4.3885 10.1023 4.77577 10.1599C5.17483 10.2192 5.58359 10.25 6.00001 10.25Z" fill="#18202A"/>
<path fill-rule="evenodd" clip-rule="evenodd" d="M4.00002 4.8125C4.00002 5.75 3.58335 6.5 2.75002 6.5C1.91668 6.5 1.50002 5.75 1.50002 4.8125C1.50002 4.0625 1.91668 3.5 2.75002 3.5C3.58335 3.5 4.00002 4.0625 4.00002 4.8125ZM3.25002 4.8125C3.25002 5.18395 3.16547 5.44253 3.06841 5.58449C2.99178 5.69656 2.90506 5.75 2.75002 5.75C2.59497 5.75 2.50825 5.69656 2.43163 5.58449C2.33456 5.44253 2.25002 5.18395 2.25002 4.8125C2.25002 4.56988 2.31703 4.43632 2.37307 4.37327C2.41739 4.32341 2.51261 4.25 2.75002 4.25C2.98742 4.25 3.08264 4.32341 3.12696 4.37327C3.183 4.43632 3.25002 4.56988 3.25002 4.8125Z" fill="#18202A"/>
<path fill-rule="evenodd" clip-rule="evenodd" d="M9.25002 6.5C10.0833 6.5 10.5 5.75 10.5 4.8125C10.5 4.0625 10.0833 3.5 9.25002 3.5C8.41668 3.5 8.00002 4.0625 8.00002 4.8125C8.00002 5.75 8.41668 6.5 9.25002 6.5ZM9.56841 5.58449C9.66547 5.44253 9.75002 5.18395 9.75002 4.8125C9.75002 4.56988 9.683 4.43632 9.62696 4.37327C9.58264 4.32341 9.48742 4.25 9.25002 4.25C9.01261 4.25 8.91739 4.32341 8.87307 4.37327C8.81703 4.43632 8.75002 4.56988 8.75002 4.8125C8.75002 5.18395 8.83456 5.44253 8.93163 5.58449C9.00825 5.69656 9.09497 5.75 9.25002 5.75C9.40506 5.75 9.49178 5.69656 9.56841 5.58449Z" fill="#18202A"/>
<path d="M10.4868 9.90898C10.1709 9.95412 9.84975 9.98286 9.5242 9.99431C9.60248 9.81478 9.67493 9.63209 9.74129 9.4465C9.76696 9.37469 9.78939 9.30178 9.80854 9.22805C10.0012 9.21407 10.192 9.19348 10.3807 9.16652C10.6343 9.13028 10.8325 8.96126 10.9063 8.73315C10.9993 8.44553 10.8754 8.20716 10.7143 8.12231C10.4231 7.9689 10.1057 7.85835 9.76993 7.79928C9.67589 7.51063 9.52695 7.23859 9.32147 7.00172C9.94932 7.02011 10.5409 7.1832 11.0639 7.45877C11.5993 7.74085 11.8061 8.38812 11.6199 8.96394C11.4554 9.47241 11.0158 9.83337 10.4868 9.90898Z" fill="#18202A"/>
<path d="M1.00387 7.37429C1.51328 7.13619 2.08114 7.00228 2.68005 7C2.47787 7.23259 2.33029 7.49919 2.23574 7.78216C1.91278 7.82781 1.60578 7.92083 1.32144 8.05373C1.13786 8.13954 0.993795 8.40181 1.09594 8.71977C1.17623 8.96971 1.39531 9.15301 1.67352 9.18735C1.84512 9.20854 2.01843 9.22446 2.19329 9.23495C2.21204 9.30632 2.23386 9.37693 2.25874 9.4465C2.32548 9.63315 2.39837 9.81685 2.47716 9.99737C2.17472 9.99016 1.87597 9.96804 1.58163 9.9317C1.02231 9.86266 0.554241 9.48571 0.381876 8.94915C0.184873 8.33589 0.420335 7.64703 1.00387 7.37429Z" fill="#18202A"/>
</svg>
