<svg width="12" height="12" viewBox="0 0 12 12" fill="none" xmlns="http://www.w3.org/2000/svg">
<path d="M3.5 1.37501C3.5 1.22692 3.41285 1.09269 3.27757 1.03244C3.14229 0.972195 2.98422 0.997204 2.87414 1.09627L1.62414 2.22127C1.4702 2.35982 1.45772 2.59693 1.59627 2.75087C1.73482 2.90481 1.97192 2.91729 2.12586 2.77874L2.75 2.21702V4.62506C2.75 4.83217 2.9179 5.00006 3.125 5.00006C3.33211 5.00006 3.5 4.83217 3.5 4.62506V1.37501Z" fill="#18202A"/>
<path d="M2.25001 7.25C2.25001 7.11215 2.42574 6.75 3.00001 6.75C3.57429 6.75 3.75001 7.11215 3.75001 7.25C3.75001 7.69536 3.50635 7.96333 2.98485 8.48484L1.60985 9.85983C1.5026 9.96708 1.47051 10.1284 1.52856 10.2685C1.5866 10.4086 1.72334 10.5 1.87501 10.5H4.12501C4.33212 10.5 4.50001 10.3321 4.50001 10.125C4.50001 9.91789 4.33212 9.75 4.12501 9.75H2.78034L3.55611 8.97428C4.0221 8.50896 4.50001 8.03173 4.50001 7.25C4.50001 6.63785 3.92574 6 3.00001 6C2.07429 6 1.50001 6.63785 1.50001 7.25C1.50001 7.45711 1.6679 7.625 1.87501 7.625C2.08212 7.625 2.25001 7.45711 2.25001 7.25Z" fill="#18202A"/>
<path d="M5.5 2.375C5.5 2.16789 5.66789 2 5.875 2H10.625C10.8321 2 11 2.16789 11 2.375C11 2.58211 10.8321 2.75 10.625 2.75H5.875C5.66789 2.75 5.5 2.58211 5.5 2.375Z" fill="#18202A"/>
<path d="M5.875 3.75C5.66789 3.75 5.5 3.91789 5.5 4.125C5.5 4.33211 5.66789 4.5 5.875 4.5H10.625C10.8321 4.5 11 4.33211 11 4.125C11 3.91789 10.8321 3.75 10.625 3.75H5.875Z" fill="#18202A"/>
<path d="M5.5 7.875C5.5 7.66789 5.66789 7.5 5.875 7.5H10.625C10.8321 7.5 11 7.66789 11 7.875C11 8.08211 10.8321 8.25 10.625 8.25H5.875C5.66789 8.25 5.5 8.08211 5.5 7.875Z" fill="#18202A"/>
<path d="M5.875 9.25C5.66789 9.25 5.5 9.41789 5.5 9.625C5.5 9.83211 5.66789 10 5.875 10H10.625C10.8321 10 11 9.83211 11 9.625C11 9.41789 10.8321 9.25 10.625 9.25H5.875Z" fill="#18202A"/>
</svg>
