<svg width="12" height="12" viewBox="0 0 12 12" fill="none" xmlns="http://www.w3.org/2000/svg">
<g clip-path="url(#clip0_3283_8693)">
<path d="M7.04545 1.5C7.24706 1.5 7.48747 1.6804 7.49953 2H8.49981C8.48696 1.16928 7.84074 0.5 7.04545 0.5H1.45455C0.651222 0.5 0 1.18287 0 2.02522V5.45698C0 6.04349 0.315702 6.55267 0.778634 6.80788C0.980582 6.91921 1.21055 6.98221 1.45455 6.98221H1.65289L1.44205 8.03959C1.37727 8.36445 1.71178 8.61499 1.98383 8.44537L3 7.81181V6.63336L2.70553 6.81696L2.87198 5.98221H1.45455C1.24769 5.98221 1 5.7923 1 5.45698V2.02522C1 1.68991 1.24769 1.5 1.45455 1.5H7.04545Z" fill="#18202A"/>
<path d="M12 4.62055C12 3.72555 11.3488 3 10.5455 3H5.45455C4.65122 3 4 3.72555 4 4.62055V8.26679C4 9.1618 4.65122 9.88734 5.45455 9.88734H7.66942L10.0162 11.442C10.2882 11.6222 10.6227 11.356 10.558 11.0108L10.3471 9.88734H10.5455C11.3488 9.88734 12 9.1618 12 8.26679V4.62055Z" fill="#18202A"/>
</g>
<defs>
<clipPath id="clip0_3283_8693">
<rect width="12" height="12" fill="white"/>
</clipPath>
</defs>
</svg>
