<svg width="12" height="12" viewBox="0 0 12 12" fill="none" xmlns="http://www.w3.org/2000/svg">
<g clip-path="url(#clip0_2266_39546)">
<path fill-rule="evenodd" clip-rule="evenodd" d="M5.18802 2.31171L4.77457 2.45458C4.31706 2.61268 3.89904 2.85725 3.54027 3.16933L3.20968 3.45689L2.1893 3.09417L1.57633 4.15585L2.40011 4.85771L2.31759 5.28683C2.2733 5.51715 2.25 5.7555 2.25 6C2.25 6.24451 2.2733 6.48286 2.31759 6.71318L2.40011 7.1423L1.57633 7.84417L2.18929 8.90585L3.20969 8.54313L3.54028 8.83068C3.89905 9.14275 4.31706 9.38732 4.77457 9.54542L5.18802 9.6883L5.38347 10.75H6.6094L6.80453 9.69003L7.21909 9.54761C7.67835 9.38983 8.09796 9.14498 8.458 8.83219L8.78853 8.54503L9.80357 8.90585L10.4165 7.84417L9.59843 7.14714L9.68157 6.71753C9.72641 6.48586 9.75 6.24605 9.75 6C9.75 5.75396 9.72641 5.51415 9.68157 5.28248L9.59843 4.85287L10.4165 4.15585L9.80357 3.09417L8.78854 3.45498L8.45801 3.16782C8.09797 2.85502 7.67835 2.61017 7.21909 2.45239L6.80453 2.30997L6.6094 1.25H5.38347L5.18802 2.31171ZM4.68355 0.909476C4.72723 0.672234 4.93406 0.5 5.17529 0.5H6.81758C7.0588 0.5 7.26564 0.672234 7.30931 0.909476L7.46277 1.74308C8.01486 1.93275 8.51842 2.2268 8.94989 2.60165L9.74851 2.31776C9.97581 2.23696 10.2284 2.32997 10.349 2.53888L11.1701 3.96114C11.2908 4.17005 11.245 4.43529 11.0614 4.59174L10.4179 5.13998C10.4718 5.41836 10.5 5.70588 10.5 6C10.5 6.29412 10.4718 6.58165 10.4179 6.86003L11.0614 7.40828C11.245 7.56473 11.2908 7.82997 11.1701 8.03888L10.349 9.46114C10.2284 9.67005 9.97581 9.76306 9.74852 9.68226L8.94988 9.39836C8.51841 9.77321 8.01485 10.0673 7.46277 10.2569L7.30931 11.0905C7.26564 11.3278 7.0588 11.5 6.81758 11.5H5.17529C4.93406 11.5 4.72723 11.3278 4.68355 11.0905L4.52961 10.2543C3.97963 10.0642 3.478 9.77054 3.04806 9.39656L2.24435 9.68226C2.01705 9.76306 1.76448 9.67005 1.64386 9.46114L0.822718 8.03888C0.702104 7.82997 0.747845 7.56473 0.931466 7.40828L1.58109 6.85481C1.52787 6.57806 1.5 6.29228 1.5 6C1.5 5.70772 1.52787 5.42195 1.58109 5.1452L0.931471 4.59174C0.74785 4.43529 0.702109 4.17005 0.822723 3.96114L1.64387 2.53888C1.76448 2.32997 2.01706 2.23696 2.24435 2.31776L3.04804 2.60345C3.47799 2.22946 3.97963 1.93577 4.52961 1.74571L4.68355 0.909476Z" fill="#18202A"/>
<path fill-rule="evenodd" clip-rule="evenodd" d="M6 7.25C6.69036 7.25 7.25 6.69036 7.25 6C7.25 5.30964 6.69036 4.75 6 4.75C5.30964 4.75 4.75 5.30964 4.75 6C4.75 6.69036 5.30964 7.25 6 7.25ZM6 8C7.10457 8 8 7.10457 8 6C8 4.89543 7.10457 4 6 4C4.89543 4 4 4.89543 4 6C4 7.10457 4.89543 8 6 8Z" fill="#18202A"/>
</g>
<defs>
<clipPath id="clip0_2266_39546">
<rect width="12" height="12" fill="white"/>
</clipPath>
</defs>
</svg>
