<svg width="12" height="12" viewBox="0 0 12 12" fill="none" xmlns="http://www.w3.org/2000/svg">
<path d="M4.625 1.25C4.83211 1.25 5 1.41789 5 1.625V3.625C5 4.38439 4.38439 5 3.625 5H1.625C1.41789 5 1.25 4.83211 1.25 4.625C1.25 4.41789 1.41789 4.25 1.625 4.25H3.625C3.97018 4.25 4.25 3.97018 4.25 3.625V1.625C4.25 1.41789 4.41789 1.25 4.625 1.25Z" fill="#18202A"/>
<path d="M1.25 7.375C1.25 7.16789 1.41789 7 1.625 7H3.625C4.38439 7 5 7.61561 5 8.375V10.375C5 10.5821 4.83211 10.75 4.625 10.75C4.41789 10.75 4.25 10.5821 4.25 10.375V8.375C4.25 8.02982 3.97018 7.75 3.625 7.75H1.625C1.41789 7.75 1.25 7.58211 1.25 7.375Z" fill="#18202A"/>
<path d="M10.75 4.625C10.75 4.83211 10.5821 5 10.375 5H8.375C7.61561 5 7 4.38439 7 3.625V1.625C7 1.41789 7.16789 1.25 7.375 1.25C7.58211 1.25 7.75 1.41789 7.75 1.625V3.625C7.75 3.97018 8.02982 4.25 8.375 4.25H10.375C10.5821 4.25 10.75 4.41789 10.75 4.625Z" fill="#18202A"/>
<path d="M7.375 10.75C7.1679 10.75 7 10.5821 7 10.375L7 8.29808C7 7.58117 7.58117 7 8.29808 7H10.375C10.5821 7 10.75 7.16789 10.75 7.375C10.75 7.58211 10.5821 7.75 10.375 7.75H8.29808C7.99538 7.75 7.75 7.99538 7.75 8.29808L7.75 10.375C7.75 10.5821 7.58211 10.75 7.375 10.75Z" fill="#18202A"/>
</svg>
