<svg width="12" height="12" viewBox="0 0 12 12" fill="none" xmlns="http://www.w3.org/2000/svg">
<path d="M4.25 1C4.52614 1 4.75 1.22386 4.75 1.5C4.75 1.77614 4.52614 2 4.25 2H2.5C2.22386 2 2 2.22386 2 2.5V4.25C2 4.52614 1.77614 4.75 1.5 4.75C1.22386 4.75 1 4.52614 1 4.25V2.5C1 1.67157 1.67157 1 2.5 1H4.25Z" fill="#18202A"/>
<path d="M7.25 1.5C7.25 1.77614 7.47386 2 7.75 2H9.5C9.77614 2 10 2.22386 10 2.5V4.25C10 4.52614 10.2239 4.75 10.5 4.75C10.7761 4.75 11 4.52614 11 4.25V2.5C11 1.67157 10.3284 1 9.5 1H7.75C7.47386 1 7.25 1.22386 7.25 1.5Z" fill="#18202A"/>
<path d="M7.25 10.5C7.25 10.2239 7.47386 10 7.75 10H9.5C9.77614 10 10 9.77614 10 9.5V7.75C10 7.47386 10.2239 7.25 10.5 7.25C10.7761 7.25 11 7.47386 11 7.75V9.5C11 10.3284 10.3284 11 9.5 11H7.75C7.47386 11 7.25 10.7761 7.25 10.5Z" fill="#18202A"/>
<path d="M2 7.75C2 7.47386 1.77614 7.25 1.5 7.25C1.22386 7.25 1 7.47386 1 7.75V9.5C1 10.3284 1.67157 11 2.5 11H4.25C4.52614 11 4.75 10.7761 4.75 10.5C4.75 10.2239 4.52614 10 4.25 10H2.5C2.22386 10 2 9.77614 2 9.5V7.75Z" fill="#18202A"/>
</svg>
