<svg width="12" height="12" viewBox="0 0 12 12" fill="none" xmlns="http://www.w3.org/2000/svg">
<g clip-path="url(#clip0_2266_37649)">
<path fill-rule="evenodd" clip-rule="evenodd" d="M0.5 2.5C0.5 1.39543 1.39543 0.5 2.5 0.5H9.5C10.6046 0.5 11.5 1.39543 11.5 2.5V6.62734C10.9331 6.23191 10.2436 6 9.5 6C9.28633 6 9.07712 6.01915 8.87402 6.05582C8.67446 6.01289 8.46689 5.99023 8.2538 5.99023C8.10411 5.99023 7.95715 6.00141 7.81378 6.02294C7.85778 6.05062 7.90112 6.07927 7.94376 6.10886C8.01602 6.159 8.08192 6.21413 8.14154 6.2734C7.97441 6.34385 7.8139 6.42691 7.66119 6.52138L7.6587 6.51964C7.18613 6.19171 6.61509 6 6.00006 6C5.38504 6 4.814 6.19171 4.34144 6.51963C3.96341 6.78195 3.83639 7.27241 3.98131 7.70912C4.04538 7.90219 4.12001 8.09031 4.20448 8.27277C4.36648 8.62265 4.69322 8.86731 5.0739 8.92844C5.37563 8.9769 5.68496 9.00206 6.00006 9.00206L6.03517 9.00196C6.01199 9.16464 6 9.33092 6 9.5C6 10.2436 6.23191 10.9331 6.62734 11.5H2.5C1.39543 11.5 0.5 10.6046 0.5 9.5V2.5ZM6 5.5C6.66667 5.5 7 4.875 7 4.09375C7 3.46875 6.66667 3 6 3C5.33333 3 5 3.46875 5 4.09375C5 4.875 5.33333 5.5 6 5.5ZM3.25 5.5C3.75 5.5 4 5 4 4.375C4 3.875 3.75 3.5 3.25 3.5C2.75 3.5 2.5 3.875 2.5 4.375C2.5 5 2.75 5.5 3.25 5.5ZM9.5 4.375C9.5 5 9.25 5.5 8.75 5.5C8.25 5.5 8 5 8 4.375C8 3.875 8.25 3.5 8.75 3.5C9.25 3.5 9.5 3.875 9.5 4.375ZM4.0564 6.10884C4.09433 6.08252 4.13281 6.05695 4.17181 6.03214C4.01037 6.0046 3.84416 5.99023 3.67444 5.99023C3.20457 5.99023 2.76158 6.10038 2.37214 6.29516C2.04156 6.4605 1.90254 6.84797 2.01289 7.20074C2.03432 7.26924 2.05714 7.33717 2.08131 7.4045C2.18657 7.6977 2.44811 7.90454 2.75667 7.9474C3.01835 7.98374 3.28522 8.00477 3.55625 8.00952C3.53917 7.96216 3.52267 7.91452 3.50677 7.8666C3.30267 7.25154 3.46978 6.51591 4.0564 6.10884ZM12 9.5C12 10.8807 10.8807 12 9.5 12C8.11929 12 7 10.8807 7 9.5C7 8.11929 8.11929 7 9.5 7C10.8807 7 12 8.11929 12 9.5ZM9.5 8C9.22386 8 9 8.22386 9 8.5V9H8.5C8.22386 9 8 9.22386 8 9.5C8 9.77614 8.22386 10 8.5 10H9V10.5C9 10.7761 9.22386 11 9.5 11C9.77614 11 10 10.7761 10 10.5V10H10.5C10.7761 10 11 9.77614 11 9.5C11 9.22386 10.7761 9 10.5 9H10V8.5C10 8.22386 9.77614 8 9.5 8Z" fill="#18202A"/>
</g>
<defs>
<clipPath id="clip0_2266_37649">
<rect width="12" height="12" fill="white"/>
</clipPath>
</defs>
</svg>
