<svg width="12" height="12" viewBox="0 0 12 12" fill="none" xmlns="http://www.w3.org/2000/svg">
<path fill-rule="evenodd" clip-rule="evenodd" d="M2 1C1.44772 1 1 1.44772 1 2V3C1 3.55228 1.44772 4 2 4H2.625V9C2.625 9.75939 3.24061 10.375 4 10.375H7.57269C7.72104 10.7415 8.08033 11 8.5 11H10C10.5523 11 11 10.5523 11 10V9.5C11 8.94772 10.5523 8.5 10 8.5H8.5C7.94772 8.5 7.5 8.94772 7.5 9.5V9.625H4C3.65482 9.625 3.375 9.34518 3.375 9V6.875H7.57269C7.72104 7.24148 8.08033 7.5 8.5 7.5H10C10.5523 7.5 11 7.05228 11 6.5V6C11 5.44772 10.5523 5 10 5H8.5C7.94772 5 7.5 5.44772 7.5 6V6.125H3.375V4H4.5C5.05228 4 5.5 3.55228 5.5 3V2C5.5 1.44772 5.05228 1 4.5 1H2ZM1.75 2C1.75 1.86193 1.86193 1.75 2 1.75H4.5C4.63807 1.75 4.75 1.86193 4.75 2V3C4.75 3.13807 4.63807 3.25 4.5 3.25H2C1.86193 3.25 1.75 3.13807 1.75 3V2ZM10.25 6C10.25 5.86193 10.1381 5.75 10 5.75H8.5C8.36193 5.75 8.25 5.86193 8.25 6V6.5C8.25 6.63807 8.36193 6.75 8.5 6.75H10C10.1381 6.75 10.25 6.63807 10.25 6.5V6ZM8.25 9.5C8.25 9.36193 8.36193 9.25 8.5 9.25H10C10.1381 9.25 10.25 9.36193 10.25 9.5V10C10.25 10.1381 10.1381 10.25 10 10.25H8.5C8.36193 10.25 8.25 10.1381 8.25 10V9.5Z" fill="#18202A"/>
</svg>
