<svg width="12" height="12" viewBox="0 0 12 12" fill="none" xmlns="http://www.w3.org/2000/svg">
<path fill-rule="evenodd" clip-rule="evenodd" d="M2.5 1C1.67157 1 1 1.67157 1 2.5V4C1 4.82843 1.67157 5.5 2.5 5.5H4C4.82843 5.5 5.5 4.82843 5.5 4V2.5C5.5 1.67157 4.82843 1 4 1H2.5ZM2.5 6.5C1.67157 6.5 1 7.17157 1 8V9.5C1 10.3284 1.67157 11 2.5 11H4C4.82843 11 5.5 10.3284 5.5 9.5V8C5.5 7.17157 4.82843 6.5 4 6.5H2.5ZM6.5 2.5C6.5 1.67157 7.17157 1 8 1H9.5C10.3284 1 11 1.67157 11 2.5V4C11 4.82843 10.3284 5.5 9.5 5.5H8C7.17157 5.5 6.5 4.82843 6.5 4V2.5ZM8 6.5C7.17157 6.5 6.5 7.17157 6.5 8V9.5C6.5 10.3284 7.17157 11 8 11H9.5C10.3284 11 11 10.3284 11 9.5V8C11 7.17157 10.3284 6.5 9.5 6.5H8Z" fill="#18202A"/>
</svg>
