<svg width="12" height="12" viewBox="0 0 12 12" fill="none" xmlns="http://www.w3.org/2000/svg">
<path d="M1.60203 2.14102C2.73616 1.90986 3.90992 1.96354 5.01822 2.29725C6.12652 2.63097 7.13477 3.23429 7.95272 4.05323C8.77067 4.87216 9.37279 5.88114 9.70517 6.98984C10.0375 8.09854 10.0898 9.27236 9.8573 10.4062C9.80183 10.6767 9.97615 10.941 10.2467 10.9965C10.5172 11.0519 10.7814 10.8776 10.8369 10.6071C11.1026 9.31126 11.0429 7.96976 10.663 6.70267C10.2832 5.43559 9.59505 4.28247 8.66025 3.34654C7.72545 2.41062 6.57316 1.7211 5.30653 1.33972C4.03991 0.958334 2.69847 0.896984 1.40232 1.16116C1.13174 1.21631 0.957097 1.48036 1.01225 1.75094C1.06739 2.02152 1.33145 2.19616 1.60203 2.14102Z" fill="#18202A"/>
<path d="M3.89075 5.10044C3.15379 4.9321 2.38422 4.97604 1.67121 5.22717C1.41075 5.3189 1.12524 5.18212 1.03351 4.92166C0.941772 4.6612 1.07855 4.37569 1.33901 4.28396C2.23027 3.97005 3.19223 3.91513 4.11343 4.12555C5.03463 4.33597 5.87734 4.80311 6.54392 5.47286C7.21049 6.1426 7.67364 6.98752 7.87969 7.9097C8.08574 8.83188 8.02625 9.79358 7.70813 10.6833C7.61516 10.9434 7.32901 11.0788 7.06898 10.9858C6.80896 10.8928 6.67354 10.6067 6.76651 10.3467C7.02101 9.63486 7.06859 8.86551 6.90375 8.12776C6.73891 7.39001 6.3684 6.71408 5.83513 6.17829C5.30187 5.64249 4.6277 5.26877 3.89075 5.10044Z" fill="#18202A"/>
<path fill-rule="evenodd" clip-rule="evenodd" d="M5 9C5 10.1046 4.10457 11 3 11C1.89543 11 1 10.1046 1 9C1 7.89543 1.89543 7 3 7C4.10457 7 5 7.89543 5 9ZM4 9C4 9.55228 3.55228 10 3 10C2.44772 10 2 9.55228 2 9C2 8.44772 2.44772 8 3 8C3.55228 8 4 8.44772 4 9Z" fill="#18202A"/>
</svg>
