<svg width="12" height="12" viewBox="0 0 12 12" fill="none" xmlns="http://www.w3.org/2000/svg">
<path fill-rule="evenodd" clip-rule="evenodd" d="M2.85355 1.85355L1.35355 3.35355C1.15829 3.54882 0.841709 3.54882 0.646447 3.35355C0.451184 3.15829 0.451184 2.84171 0.646447 2.64645L2.14645 1.14645C2.34171 0.951184 2.65829 0.951184 2.85355 1.14645C3.04882 1.34171 3.04882 1.65829 2.85355 1.85355ZM6 11.5C8.76142 11.5 11 9.26142 11 6.5C11 3.73858 8.76142 1.5 6 1.5C3.23858 1.5 1 3.73858 1 6.5C1 9.26142 3.23858 11.5 6 11.5ZM6.5 3.5C6.5 3.22386 6.27614 3 6 3C5.72386 3 5.5 3.22386 5.5 3.5V6.5C5.5 6.70001 5.6192 6.88078 5.80304 6.95957L7.55304 7.70957C7.80686 7.81835 8.10079 7.70077 8.20957 7.44696C8.31835 7.19314 8.20077 6.89921 7.94696 6.79043L6.5 6.1703V3.5ZM9.14645 1.85355C8.95118 1.65829 8.95118 1.34171 9.14645 1.14645C9.34171 0.951184 9.65829 0.951184 9.85355 1.14645L11.3536 2.64645C11.5488 2.84171 11.5488 3.15829 11.3536 3.35355C11.1583 3.54882 10.8417 3.54882 10.6464 3.35355L9.14645 1.85355Z" fill="#18202A"/>
</svg>
