<svg width="12" height="12" viewBox="0 0 12 12" fill="none" xmlns="http://www.w3.org/2000/svg">
<path fill-rule="evenodd" clip-rule="evenodd" d="M6.12497 1C5.77979 1 5.49997 1.27982 5.49997 1.625V5.375C5.49997 5.43844 5.4527 5.49085 5.39146 5.49892H5.35848C5.29724 5.49085 5.24997 5.43844 5.24997 5.375V2.625C5.24997 2.27982 4.97015 2 4.62497 2C4.27979 2 3.99997 2.27982 3.99997 2.625V5.49892V6.25V6.5L3.26497 5.765C3.11774 5.61794 2.92559 5.52429 2.71905 5.49892C2.51251 5.47356 2.30341 5.51793 2.12497 5.625C1.95744 5.72544 1.83571 5.88727 1.78566 6.07607C1.73561 6.26488 1.76119 6.46576 1.85697 6.636C2.79647 8.306 3.34397 9.2605 3.49997 9.5C3.53251 9.55008 3.56517 9.60008 3.59797 9.65C3.87123 10.0649 4.24326 10.4055 4.68066 10.6411C5.11777 10.8766 5.60647 10.9999 6.10296 11H6.10397H7.24997C8.24273 11 8.73545 10.5072 9.11305 10.1296L9.12129 10.1213C9.6839 9.55871 9.74997 8.79565 9.74997 8V6.25V5.49892V3.625C9.74997 3.27982 9.47015 3 9.12497 3C8.77979 3 8.49997 3.27982 8.49997 3.625V5.375C8.49997 5.43844 8.4527 5.49085 8.39146 5.49892H8.35848C8.29724 5.49085 8.24997 5.43844 8.24997 5.375V2.625C8.24997 2.27982 7.97015 2 7.62497 2C7.27979 2 6.99997 2.27982 6.99997 2.625V5.375C6.99997 5.43844 6.9527 5.49085 6.89146 5.49892H6.85848C6.79724 5.49085 6.74997 5.43844 6.74997 5.375V1.625C6.74997 1.27982 6.47015 1 6.12497 1Z" fill="#18202A"/>
</svg>
