<svg width="12" height="12" viewBox="0 0 12 12" fill="none" xmlns="http://www.w3.org/2000/svg">
<path fill-rule="evenodd" clip-rule="evenodd" d="M8.0113 3.23102C8.15985 3.37533 8.16329 3.61274 8.01898 3.76129L3.16184 8.7613C3.0894 8.83587 2.98926 8.87702 2.88531 8.87492C2.78137 8.87283 2.68297 8.82768 2.61358 8.75026L0.970728 6.91693C0.832513 6.76269 0.845504 6.52561 0.999743 6.38739C1.15398 6.24918 1.39106 6.26217 1.52928 6.41641L2.90392 7.95043L7.48102 3.23871C7.62533 3.09015 7.86274 3.08671 8.0113 3.23102Z" fill="#18202A"/>
<path fill-rule="evenodd" clip-rule="evenodd" d="M11.0113 3.23102C11.1599 3.37533 11.1633 3.61274 11.019 3.76129L6.16184 8.7613C6.08756 8.83776 5.98425 8.879 5.87773 8.8747C5.77121 8.87039 5.67156 8.82096 5.60369 8.73875L5.07 8.09237C4.93814 7.93266 4.96072 7.6963 5.12042 7.56444C5.28013 7.43258 5.51649 7.45515 5.64835 7.61486L5.91554 7.93847L10.481 3.23871C10.6253 3.09015 10.8627 3.08671 11.0113 3.23102Z" fill="#18202A"/>
</svg>
