<svg width="12" height="12" viewBox="0 0 12 12" fill="none" xmlns="http://www.w3.org/2000/svg">
<path fill-rule="evenodd" clip-rule="evenodd" d="M8.5 2H3C2.17157 2 1.5 2.67157 1.5 3.5V8C1.5 8.82843 2.17157 9.5 3 9.5H5C5.27614 9.5 5.5 9.72386 5.5 10C5.5 10.2761 5.27614 10.5 5 10.5H3C1.61929 10.5 0.5 9.38071 0.5 8V3.5C0.5 2.11929 1.61929 1 3 1H8.5C9.88071 1 11 2.11929 11 3.5V4.5C11 4.77614 10.7761 5 10.5 5C10.2239 5 10 4.77614 10 4.5V3.5C10 2.67157 9.32843 2 8.5 2ZM6.5 7.5C6.5 6.67157 7.17157 6 8 6H10C10.8284 6 11.5 6.67157 11.5 7.5V9.5C11.5 10.3284 10.8284 11 10 11H8C7.17157 11 6.5 10.3284 6.5 9.5V7.5Z" fill="#18202A"/>
</svg>
