<svg width="12" height="12" viewBox="0 0 12 12" fill="none" xmlns="http://www.w3.org/2000/svg">
<g clip-path="url(#clip0_2266_35943)">
<path fill-rule="evenodd" clip-rule="evenodd" d="M2.85355 4.14645C3.04882 4.34171 3.04882 4.65829 2.85355 4.85355L1.70711 6L2.85355 7.14645C3.04882 7.34171 3.04882 7.65829 2.85355 7.85355C2.65829 8.04882 2.34171 8.04882 2.14645 7.85355L0.646447 6.35355C0.451184 6.15829 0.451184 5.84171 0.646447 5.64645L2.14645 4.14645C2.34171 3.95118 2.65829 3.95118 2.85355 4.14645Z" fill="#18202A"/>
<path fill-rule="evenodd" clip-rule="evenodd" d="M5.64645 0.646447C5.84171 0.451184 6.15829 0.451184 6.35355 0.646447L7.85355 2.14645C8.04882 2.34171 8.04882 2.65829 7.85355 2.85355C7.65829 3.04882 7.34171 3.04882 7.14645 2.85355L6 1.70711L4.85355 2.85355C4.65829 3.04882 4.34171 3.04882 4.14645 2.85355C3.95118 2.65829 3.95118 2.34171 4.14645 2.14645L5.64645 0.646447Z" fill="#18202A"/>
<path fill-rule="evenodd" clip-rule="evenodd" d="M4.14645 9.14645C4.34171 8.95118 4.65829 8.95118 4.85355 9.14645L6 10.2929L7.14645 9.14645C7.34171 8.95118 7.65829 8.95118 7.85355 9.14645C8.04882 9.34171 8.04882 9.65829 7.85355 9.85355L6.35355 11.3536C6.15829 11.5488 5.84171 11.5488 5.64645 11.3536L4.14645 9.85355C3.95118 9.65829 3.95118 9.34171 4.14645 9.14645Z" fill="#18202A"/>
<path fill-rule="evenodd" clip-rule="evenodd" d="M9.14645 4.14645C9.34171 3.95118 9.65829 3.95118 9.85355 4.14645L11.3536 5.64645C11.5488 5.84171 11.5488 6.15829 11.3536 6.35355L9.85355 7.85355C9.65829 8.04882 9.34171 8.04882 9.14645 7.85355C8.95118 7.65829 8.95118 7.34171 9.14645 7.14645L10.2929 6L9.14645 4.85355C8.95118 4.65829 8.95118 4.34171 9.14645 4.14645Z" fill="#18202A"/>
<path fill-rule="evenodd" clip-rule="evenodd" d="M0.5 6C0.5 5.72386 0.723858 5.5 1 5.5H11C11.2761 5.5 11.5 5.72386 11.5 6C11.5 6.27614 11.2761 6.5 11 6.5H1C0.723858 6.5 0.5 6.27614 0.5 6Z" fill="#18202A"/>
<path fill-rule="evenodd" clip-rule="evenodd" d="M6 0.5C6.27614 0.5 6.5 0.723858 6.5 1V11C6.5 11.2761 6.27614 11.5 6 11.5C5.72386 11.5 5.5 11.2761 5.5 11V1C5.5 0.723858 5.72386 0.5 6 0.5Z" fill="#18202A"/>
</g>
<defs>
<clipPath id="clip0_2266_35943">
<rect width="12" height="12" fill="white"/>
</clipPath>
</defs>
</svg>
