<svg width="12" height="12" viewBox="0 0 12 12" fill="none" xmlns="http://www.w3.org/2000/svg">
<path fill-rule="evenodd" clip-rule="evenodd" d="M7.85355 3.35355C7.65829 3.54882 7.34171 3.54882 7.14645 3.35355L6 2.20711L4.85355 3.35355C4.65829 3.54882 4.34171 3.54881 4.14645 3.35355C3.95118 3.15829 3.95118 2.84171 4.14645 2.64645L5.64645 1.14645C5.84171 0.951184 6.15829 0.951185 6.35355 1.14645L7.85355 2.64645C8.04882 2.84171 8.04882 3.15829 7.85355 3.35355ZM1 4.5C0.723858 4.5 0.5 4.72386 0.5 5C0.5 5.27614 0.723858 5.5 1 5.5H11C11.2761 5.5 11.5 5.27614 11.5 5C11.5 4.72386 11.2761 4.5 11 4.5H1ZM1 6.5C0.723858 6.5 0.5 6.72386 0.5 7C0.5 7.27614 0.723858 7.5 1 7.5H11C11.2761 7.5 11.5 7.27614 11.5 7C11.5 6.72386 11.2761 6.5 11 6.5H1ZM7.85355 9.35355C8.04882 9.15829 8.04882 8.84171 7.85355 8.64645C7.65829 8.45118 7.34171 8.45118 7.14645 8.64645L6 9.79289L4.85355 8.64645C4.65829 8.45118 4.34171 8.45118 4.14645 8.64645C3.95118 8.84171 3.95118 9.15829 4.14645 9.35355L5.64645 10.8536C5.84171 11.0488 6.15829 11.0488 6.35355 10.8536L7.85355 9.35355Z" fill="#18202A"/>
</svg>
