<svg width="12" height="12" viewBox="0 0 12 12" fill="none" xmlns="http://www.w3.org/2000/svg">
<g clip-path="url(#clip0_2266_37185)">
<path fill-rule="evenodd" clip-rule="evenodd" d="M0.5 6C0.5 9.03757 2.96243 11.5 6 11.5C9.03757 11.5 11.5 9.03757 11.5 6C11.5 2.96243 9.03757 0.5 6 0.5C2.96243 0.5 0.5 2.96243 0.5 6ZM8.35355 6.85355C8.54882 6.65829 8.54882 6.34171 8.35355 6.14645C8.15829 5.95118 7.84171 5.95118 7.64645 6.14645L6.5 7.29289V3.5C6.5 3.22386 6.27614 3 6 3C5.72386 3 5.5 3.22386 5.5 3.5V7.29289L4.35355 6.14645C4.15829 5.95118 3.84171 5.95118 3.64645 6.14645C3.45118 6.34171 3.45118 6.65829 3.64645 6.85355L5.64645 8.85355C5.84171 9.04882 6.15829 9.04882 6.35355 8.85355L8.35355 6.85355Z" fill="#18202A"/>
</g>
<defs>
<clipPath id="clip0_2266_37185">
<rect width="12" height="12" fill="white"/>
</clipPath>
</defs>
</svg>
