<svg width="12" height="12" viewBox="0 0 12 12" fill="none" xmlns="http://www.w3.org/2000/svg">
<path fill-rule="evenodd" clip-rule="evenodd" d="M6 3.25C6.41421 3.25 6.75 2.91421 6.75 2.5C6.75 2.08579 6.41421 1.75 6 1.75C5.58579 1.75 5.25 2.08579 5.25 2.5C5.25 2.91421 5.58579 3.25 6 3.25ZM7.5 2.5C7.5 3.19894 7.02196 3.78623 6.375 3.95274V5.625H9.625C10.0392 5.625 10.375 5.96079 10.375 6.375V8.04726C11.022 8.21377 11.5 8.80106 11.5 9.5C11.5 10.3284 10.8284 11 10 11C9.17157 11 8.5 10.3284 8.5 9.5C8.5 8.80106 8.97804 8.21377 9.625 8.04726V6.375H6.375V8.04726C7.02196 8.21377 7.5 8.80106 7.5 9.5C7.5 10.3284 6.82843 11 6 11C5.17157 11 4.5 10.3284 4.5 9.5C4.5 8.80106 4.97804 8.21377 5.625 8.04726V6.375H2.375V8.04726C3.02196 8.21377 3.5 8.80106 3.5 9.5C3.5 10.3284 2.82843 11 2 11C1.17157 11 0.5 10.3284 0.5 9.5C0.5 8.80106 0.97804 8.21377 1.625 8.04726V6.375C1.625 5.96079 1.96079 5.625 2.375 5.625H5.625V3.95274C4.97804 3.78623 4.5 3.19894 4.5 2.5C4.5 1.67157 5.17157 1 6 1C6.82843 1 7.5 1.67157 7.5 2.5ZM2.75 9.5C2.75 9.91421 2.41421 10.25 2 10.25C1.58579 10.25 1.25 9.91421 1.25 9.5C1.25 9.08579 1.58579 8.75 2 8.75C2.41421 8.75 2.75 9.08579 2.75 9.5ZM6.75 9.5C6.75 9.91421 6.41421 10.25 6 10.25C5.58579 10.25 5.25 9.91421 5.25 9.5C5.25 9.08579 5.58579 8.75 6 8.75C6.41421 8.75 6.75 9.08579 6.75 9.5ZM10.75 9.5C10.75 9.91421 10.4142 10.25 10 10.25C9.58579 10.25 9.25 9.91421 9.25 9.5C9.25 9.08579 9.58579 8.75 10 8.75C10.4142 8.75 10.75 9.08579 10.75 9.5Z" fill="#18202A"/>
</svg>
