<svg width="12" height="12" viewBox="0 0 12 12" fill="none" xmlns="http://www.w3.org/2000/svg">
<path fill-rule="evenodd" clip-rule="evenodd" d="M3.5 0.5C2.39543 0.5 1.5 1.39543 1.5 2.5V9.5C1.5 10.6046 2.39543 11.5 3.5 11.5L3.5 0.5ZM4 0.5V11.5H8.5C9.60457 11.5 10.5 10.6046 10.5 9.5V2.5C10.5 1.39543 9.60457 0.5 8.5 0.5H4ZM6 2.5C5.72386 2.5 5.5 2.72386 5.5 3C5.5 3.27614 5.72386 3.5 6 3.5H8.5C8.77614 3.5 9 3.27614 9 3C9 2.72386 8.77614 2.5 8.5 2.5H6ZM6 4.5C6 4.22386 6.22386 4 6.5 4H8C8.27614 4 8.5 4.22386 8.5 4.5C8.5 4.77614 8.27614 5 8 5H6.5C6.22386 5 6 4.77614 6 4.5Z" fill="#18202A"/>
</svg>
