<svg width="12" height="12" viewBox="0 0 12 12" fill="none" xmlns="http://www.w3.org/2000/svg">
<path fill-rule="evenodd" clip-rule="evenodd" d="M6.89028 7.08007L6.37583 5.99979C6.36962 5.99993 6.36339 6 6.35714 6H3.14286C3.13661 6 3.13037 5.99993 3.12417 5.99979L2.09303 8.16504C1.95054 8.46425 1.60401 8.58552 1.31903 8.43592C1.03405 8.28632 0.918543 7.92248 1.06103 7.62328L3.976 1.50224C4.29491 0.832587 5.20509 0.832586 5.524 1.50224L7.76413 6.20622L8.66858 5.30177L10.6982 7.33142L6.31715 11.7125L4.46739 11.9952C4.1966 12.0366 3.9634 11.8034 4.00479 11.5326L4.28751 9.68284L6.89028 7.08007ZM4.75 2.58577L5.89971 5H3.60029L4.75 2.58577Z" fill="#18202A"/>
<path d="M9.24265 4.7277L9.73265 4.2377C9.88489 4.0855 10.0914 4 10.3066 4C10.5219 4 10.7284 4.0855 10.8806 4.2377L11.7623 5.11938C11.9145 5.27163 12 5.47809 12 5.69337C12 5.90864 11.9145 6.1151 11.7623 6.26735L11.2723 6.75735L9.24265 4.7277Z" fill="#18202A"/>
</svg>
