<svg width="12" height="12" viewBox="0 0 12 12" fill="none" xmlns="http://www.w3.org/2000/svg">
<path fill-rule="evenodd" clip-rule="evenodd" d="M6 1.5C5.72386 1.5 5.5 1.72386 5.5 2C5.5 2.27614 5.72386 2.5 6 2.5H8.79289L6.39645 4.89645C6.20118 5.09171 6.20118 5.40829 6.39645 5.60355C6.59171 5.79882 6.90829 5.79882 7.10355 5.60355L9.5 3.20711V6C9.5 6.27614 9.72386 6.5 10 6.5C10.2761 6.5 10.5 6.27614 10.5 6V2C10.5 1.72386 10.2761 1.5 10 1.5L6 1.5ZM6 10.5C6.27614 10.5 6.5 10.2761 6.5 10C6.5 9.72386 6.27614 9.5 6 9.5H3.20711L5.60355 7.10355C5.79881 6.90829 5.79881 6.59171 5.60355 6.39645C5.40829 6.20118 5.09171 6.20118 4.89645 6.39645L2.5 8.79289L2.5 6C2.5 5.72386 2.27614 5.5 2 5.5C1.72386 5.5 1.5 5.72386 1.5 6V10C1.5 10.2761 1.72386 10.5 2 10.5H6Z" fill="#18202A"/>
</svg>
