<svg width="12" height="12" viewBox="0 0 12 12" fill="none" xmlns="http://www.w3.org/2000/svg">
<g clip-path="url(#clip0_2266_40464)">
<path fill-rule="evenodd" clip-rule="evenodd" d="M2.5 8.50006L5.40668 11.1568C6.20886 11.89 7.5 11.3209 7.5 10.2341V1.76614C7.5 0.679381 6.20889 0.110282 5.4067 0.84345L2.5 3.50006H1.5C0.671573 3.50006 0 4.17163 0 5.00006V7.00006C0 7.82849 0.671573 8.50006 1.5 8.50006H2.5ZM2.79111 7.75006L5.91267 10.6032C6.23354 10.8965 6.75 10.6688 6.75 10.2341V1.76614C6.75 1.33143 6.23355 1.1038 5.91268 1.39706L2.7911 4.25006H2.75V7.75006H2.79111ZM2 7.75006V4.25006H1.5C1.08579 4.25006 0.75 4.58585 0.75 5.00006V7.00006C0.75 7.41428 1.08579 7.75006 1.5 7.75006H2Z" fill="#18202A"/>
<path d="M10.8125 3.81426C10.7153 3.63139 10.4883 3.56197 10.3054 3.6592C10.1225 3.75644 10.0531 3.9835 10.1503 4.16636C10.4584 4.7458 10.6245 5.42392 10.6245 6.12024C10.6245 6.81656 10.4584 7.49468 10.1503 8.07411C10.0531 8.25697 10.1225 8.48404 10.3054 8.58127C10.4883 8.6785 10.7153 8.60908 10.8125 8.42622C11.181 7.73318 11.3745 6.93333 11.3745 6.12024C11.3745 5.30714 11.181 4.50729 10.8125 3.81426Z" fill="#18202A"/>
<path d="M9.34153 4.6117C9.22542 4.4402 8.99227 4.3953 8.82077 4.51141C8.64927 4.62752 8.60437 4.86067 8.72048 5.03217C8.9285 5.33943 9.04696 5.73178 9.04696 6.14339C9.04696 6.55501 8.9285 6.94735 8.72048 7.25461C8.60437 7.42611 8.64927 7.65926 8.82077 7.77537C8.99227 7.89148 9.22542 7.84658 9.34153 7.67508C9.63931 7.23524 9.79696 6.69435 9.79696 6.14339C9.79696 5.59243 9.63931 5.05154 9.34153 4.6117Z" fill="#18202A"/>
</g>
<defs>
<clipPath id="clip0_2266_40464">
<rect width="12" height="12" fill="white"/>
</clipPath>
</defs>
</svg>
