<svg width="12" height="12" viewBox="0 0 12 12" fill="none" xmlns="http://www.w3.org/2000/svg">
<g clip-path="url(#clip0_2266_40119)">
<path fill-rule="evenodd" clip-rule="evenodd" d="M10 3.24976H2C1.58579 3.24976 1.25 3.58554 1.25 3.99976V5.74976H10.75V3.99976C10.75 3.58554 10.4142 3.24976 10 3.24976ZM2 2.49976C1.17157 2.49976 0.5 3.17133 0.5 3.99976V6.49976H11.5V3.99976C11.5 3.17133 10.8284 2.49976 10 2.49976H2Z" fill="#18202A"/>
<path d="M6 1.72642C5.91996 1.54263 5.82684 1.36262 5.71929 1.19957C5.53693 0.923097 5.28639 0.65422 4.94787 0.527506C4.58851 0.392991 4.19841 0.443426 3.80708 0.6782C3.37265 0.938831 3.13176 1.32949 3.08636 1.7564C3.05925 2.01131 3.103 2.26569 3.20129 2.49976H4.08097C4.06455 2.48189 4.04895 2.4637 4.03416 2.44526C3.87699 2.24918 3.81179 2.02715 3.83215 1.83572C3.85136 1.65512 3.94943 1.46742 4.19293 1.32134C4.4266 1.18115 4.57816 1.18994 4.68495 1.22991C4.81257 1.27768 4.95266 1.39943 5.09322 1.61252C5.26096 1.86685 5.3913 2.19255 5.48639 2.49976H6.51362C6.6087 2.19255 6.73904 1.86685 6.90679 1.61252C7.04735 1.39943 7.18743 1.27768 7.31506 1.22991C7.42184 1.18994 7.57341 1.18115 7.80708 1.32134C8.05058 1.46742 8.14865 1.65512 8.16785 1.83572C8.18821 2.02715 8.12302 2.24918 7.96584 2.44526C7.95106 2.4637 7.93545 2.48189 7.91903 2.49976H8.79872C8.897 2.26569 8.94076 2.01131 8.91365 1.7564C8.86824 1.32949 8.62735 0.938831 8.19292 0.6782C7.80159 0.443426 7.41149 0.392991 7.05213 0.527506C6.71361 0.65422 6.46307 0.923097 6.28071 1.19957C6.17317 1.36262 6.08005 1.54263 6 1.72642Z" fill="#18202A"/>
<path fill-rule="evenodd" clip-rule="evenodd" d="M10.25 6.49976H1.75V9.99976C1.75 10.414 2.08579 10.7498 2.5 10.7498H9.5C9.91421 10.7498 10.25 10.414 10.25 9.99976V6.49976ZM1 5.74976V9.99976C1 10.8282 1.67157 11.4998 2.5 11.4998H9.5C10.3284 11.4998 11 10.8282 11 9.99976V5.74976H1Z" fill="#18202A"/>
<path d="M5.625 5.99976H6.375V10.9998H5.625V5.99976Z" fill="#18202A"/>
</g>
<defs>
<clipPath id="clip0_2266_40119">
<rect width="12" height="12" fill="white"/>
</clipPath>
</defs>
</svg>
