<svg width="12" height="12" viewBox="0 0 12 12" fill="none" xmlns="http://www.w3.org/2000/svg">
<g clip-path="url(#clip0_2266_39018)">
<path d="M6.62829 3.125C7.31683 3.125 7.875 3.68317 7.875 4.37171C7.875 4.87852 7.56871 5.33162 7.10581 5.52336L7.02253 5.55444L6.86859 5.60576C6.59649 5.69645 6.40616 5.93847 6.37848 6.21955L6.375 6.29057V6.5C6.375 6.70711 6.20711 6.875 6 6.875C5.81015 6.875 5.65325 6.73392 5.62842 6.55089L5.625 6.5V6.29057C5.625 5.68871 5.99087 5.15101 6.54276 4.92697L6.63142 4.89424L6.78536 4.84293C6.98819 4.77532 7.125 4.58551 7.125 4.37171C7.125 4.11698 6.93325 3.90703 6.68622 3.87834L6.62829 3.875H5.20711C5.02369 3.875 4.875 4.02369 4.875 4.20711C4.875 4.27757 4.89739 4.34573 4.93824 4.40206L4.97227 4.44194L5.01516 4.48483C5.16161 4.63128 5.16161 4.86872 5.01516 5.01517C4.88203 5.1483 4.6737 5.1604 4.52689 5.05147L4.48483 5.01517L4.44194 4.97227C4.23901 4.76934 4.125 4.4941 4.125 4.20711C4.125 3.63546 4.56827 3.16734 5.12983 3.12772L5.20711 3.125H6.62829Z" fill="#18202A"/>
<path d="M6.5 8C6.5 7.72386 6.27614 7.5 6 7.5C5.72386 7.5 5.5 7.72386 5.5 8C5.5 8.27614 5.72386 8.5 6 8.5C6.27614 8.5 6.5 8.27614 6.5 8Z" fill="#18202A"/>
<path fill-rule="evenodd" clip-rule="evenodd" d="M6 11.5C9.03757 11.5 11.5 9.03757 11.5 6C11.5 2.96243 9.03757 0.5 6 0.5C2.96243 0.5 0.5 2.96243 0.5 6C0.5 9.03757 2.96243 11.5 6 11.5ZM10.75 6C10.75 8.62335 8.62335 10.75 6 10.75C3.37665 10.75 1.25 8.62335 1.25 6C1.25 3.37665 3.37665 1.25 6 1.25C8.62335 1.25 10.75 3.37665 10.75 6Z" fill="#18202A"/>
</g>
<defs>
<clipPath id="clip0_2266_39018">
<rect width="12" height="12" fill="white"/>
</clipPath>
</defs>
</svg>
