<svg width="12" height="12" viewBox="0 0 12 12" fill="none" xmlns="http://www.w3.org/2000/svg">
<path fill-rule="evenodd" clip-rule="evenodd" d="M1.5 3C1.5 1.89543 2.39543 1 3.5 1H8.5C9.60457 1 10.5 1.89543 10.5 3V9C10.5 10.1046 9.60457 11 8.5 11H3.5C2.39543 11 1.5 10.1046 1.5 9V3ZM4.5 10V8.00024C4.5 7.44796 4.94772 7.00024 5.5 7.00024H6.5C7.05228 7.00024 7.5 7.44796 7.5 8.00024V10H4.5ZM3.5 3.5C3.5 3.22386 3.72386 3 4 3C4.27614 3 4.5 3.22386 4.5 3.5C4.5 3.77614 4.27614 4 4 4C3.72386 4 3.5 3.77614 3.5 3.5ZM4 4.5C3.72386 4.5 3.5 4.72386 3.5 5C3.5 5.27614 3.72386 5.5 4 5.5C4.27614 5.5 4.5 5.27614 4.5 5C4.5 4.72386 4.27614 4.5 4 4.5ZM5.5 3.5C5.5 3.22386 5.72386 3 6 3C6.27614 3 6.5 3.22386 6.5 3.5C6.5 3.77614 6.27614 4 6 4C5.72386 4 5.5 3.77614 5.5 3.5ZM6 4.5C5.72386 4.5 5.5 4.72386 5.5 5C5.5 5.27614 5.72386 5.5 6 5.5C6.27614 5.5 6.5 5.27614 6.5 5C6.5 4.72386 6.27614 4.5 6 4.5ZM7.5 3.5C7.5 3.22386 7.72386 3 8 3C8.27614 3 8.5 3.22386 8.5 3.5C8.5 3.77614 8.27614 4 8 4C7.72386 4 7.5 3.77614 7.5 3.5ZM8 4.5C7.72386 4.5 7.5 4.72386 7.5 5C7.5 5.27614 7.72386 5.5 8 5.5C8.27614 5.5 8.5 5.27614 8.5 5C8.5 4.72386 8.27614 4.5 8 4.5Z" fill="#18202A"/>
</svg>
