<svg width="12" height="12" viewBox="0 0 12 12" fill="none" xmlns="http://www.w3.org/2000/svg">
<g clip-path="url(#clip0_2266_40251)">
<path fill-rule="evenodd" clip-rule="evenodd" d="M10.75 6C10.75 3.37665 8.62335 1.25 6 1.25C3.37665 1.25 1.25 3.37665 1.25 6C1.25 8.62335 3.37665 10.75 6 10.75C8.62335 10.75 10.75 8.62335 10.75 6ZM11.5 6C11.5 2.96243 9.03757 0.5 6 0.5C2.96243 0.5 0.5 2.96243 0.5 6C0.5 9.03757 2.96243 11.5 6 11.5C9.03757 11.5 11.5 9.03757 11.5 6Z" fill="#18202A"/>
<path fill-rule="evenodd" clip-rule="evenodd" d="M3.73483 6.76517C3.58839 6.61872 3.58839 6.38128 3.73483 6.23484L5.73483 4.23484C5.88128 4.08839 6.11872 4.08839 6.26516 4.23484L8.26516 6.23484C8.41161 6.38128 8.41161 6.61872 8.26516 6.76516C8.11872 6.91161 7.88128 6.91161 7.73483 6.76517L6 5.03033L4.26517 6.76517C4.11872 6.91161 3.88128 6.91161 3.73483 6.76517Z" fill="#18202A"/>
</g>
<defs>
<clipPath id="clip0_2266_40251">
<rect width="12" height="12" fill="white"/>
</clipPath>
</defs>
</svg>
