<svg width="12" height="12" viewBox="0 0 12 12" fill="none" xmlns="http://www.w3.org/2000/svg">
<g clip-path="url(#clip0_3289_16935)">
<path d="M3.125 1C3.33211 1 3.5 1.16789 3.5 1.375V2.75H4.875C5.08211 2.75 5.25 2.91789 5.25 3.125C5.25 3.33211 5.08211 3.5 4.875 3.5H3.5V4.875C3.5 5.08211 3.33211 5.25 3.125 5.25C2.91789 5.25 2.75 5.08211 2.75 4.875V3.5H1.375C1.16789 3.5 1 3.33211 1 3.125C1 2.91789 1.16789 2.75 1.375 2.75H2.75V1.375C2.75 1.16789 2.91789 1 3.125 1ZM7.125 2.75C6.91789 2.75 6.75 2.91789 6.75 3.125C6.75 3.33211 6.91789 3.5 7.125 3.5H10.625C10.8321 3.5 11 3.33211 11 3.125C11 2.91789 10.8321 2.75 10.625 2.75H7.125ZM6.75 8.875C6.75 8.66789 6.91789 8.5 7.125 8.5H10.625C10.8321 8.5 11 8.66789 11 8.875C11 9.08211 10.8321 9.25 10.625 9.25H7.125C6.91789 9.25 6.75 9.08211 6.75 8.875ZM8.875 8C9.15114 8 9.375 7.77614 9.375 7.5C9.375 7.22386 9.15114 7 8.875 7C8.59886 7 8.375 7.22386 8.375 7.5C8.375 7.77614 8.59886 8 8.875 8ZM9.375 10.5C9.375 10.7761 9.15114 11 8.875 11C8.59886 11 8.375 10.7761 8.375 10.5C8.375 10.2239 8.59886 10 8.875 10C9.15114 10 9.375 10.2239 9.375 10.5ZM1.10983 7.14016C0.963388 6.99372 0.963388 6.75628 1.10983 6.60984C1.25628 6.46339 1.49372 6.46339 1.64017 6.60984L3.125 8.09467L4.60983 6.60984C4.75628 6.46339 4.99372 6.46339 5.14016 6.60984C5.28661 6.75628 5.28661 6.99372 5.14016 7.14016L3.65533 8.625L5.14017 10.1098C5.28661 10.2563 5.28661 10.4937 5.14017 10.6402C4.99372 10.7866 4.75628 10.7866 4.60983 10.6402L3.125 9.15533L1.64017 10.6402C1.49372 10.7866 1.25628 10.7866 1.10983 10.6402C0.963388 10.4937 0.963388 10.2563 1.10983 10.1098L2.59467 8.625L1.10983 7.14016Z" fill="#18202A"/>
</g>
<defs>
<clipPath id="clip0_3289_16935">
<rect width="12" height="12" fill="white"/>
</clipPath>
</defs>
</svg>
