<svg width="12" height="12" viewBox="0 0 12 12" fill="none" xmlns="http://www.w3.org/2000/svg">
<path d="M1.5 1.5C0.947715 1.5 0.5 1.94772 0.5 2.5V4.5C0.5 5.05228 0.947715 5.5 1.5 5.5H7.5C8.05228 5.5 8.5 5.05228 8.5 4.5V2.5C8.5 1.94772 8.05228 1.5 7.5 1.5H1.5Z" fill="#18202A"/>
<path fill-rule="evenodd" clip-rule="evenodd" d="M0.5 7.5C0.5 6.94772 0.947715 6.5 1.5 6.5H7.5C8.05228 6.5 8.5 6.94772 8.5 7.5V9.5C8.5 10.0523 8.05228 10.5 7.5 10.5H1.5C0.947715 10.5 0.5 10.0523 0.5 9.5V7.5ZM1.25 7.5C1.25 7.36193 1.36193 7.25 1.5 7.25H7.5C7.63807 7.25 7.75 7.36193 7.75 7.5V9.5C7.75 9.63807 7.63807 9.75 7.5 9.75H1.5C1.36193 9.75 1.25 9.63807 1.25 9.5V7.5Z" fill="#18202A"/>
<path d="M9.6677 2.91467C9.48245 2.82205 9.2572 2.89714 9.16458 3.08238C9.07196 3.26762 9.14704 3.49287 9.33229 3.58549C9.98614 3.91242 10.5276 4.56741 10.6617 5.34505C10.7749 6.00173 10.605 6.79507 9.875 7.6007V7C9.875 6.79289 9.70711 6.625 9.5 6.625C9.29289 6.625 9.125 6.79289 9.125 7V8.5C9.125 8.70711 9.29289 8.875 9.5 8.875H11C11.2071 8.875 11.375 8.70711 11.375 8.5C11.375 8.29289 11.2071 8.125 11 8.125H10.4116C11.2893 7.166 11.5601 6.14163 11.4008 5.21762C11.2224 4.18275 10.5138 3.33774 9.6677 2.91467Z" fill="#18202A"/>
</svg>
