<svg width="12" height="12" viewBox="0 0 12 12" fill="none" xmlns="http://www.w3.org/2000/svg">
<g clip-path="url(#clip0_3293_9021)">
<g clip-path="url(#clip1_3293_9021)">
<path fill-rule="evenodd" clip-rule="evenodd" d="M6.875 2.125C7.08211 2.125 7.25 2.29289 7.25 2.5V3H7.625C7.83211 3 8 3.16789 8 3.375C8 3.58211 7.83211 3.75 7.625 3.75H7.25V7.625C7.25 7.83211 7.08211 8 6.875 8C6.66794 8 6.50007 7.83218 6.5 7.62513C6.18663 7.86052 5.7971 8 5.375 8C4.33947 8 3.5 7.16053 3.5 6.125C3.5 5.08947 4.33947 4.25 5.375 4.25C5.7971 4.25 6.18663 4.38948 6.5 4.62486V3.75H6.125C5.91789 3.75 5.75 3.58211 5.75 3.375C5.75 3.16789 5.91789 3 6.125 3H6.5V2.5C6.5 2.29289 6.66789 2.125 6.875 2.125ZM5.375 5C5.99632 5 6.5 5.50368 6.5 6.125C6.5 6.74632 5.99632 7.25 5.375 7.25C4.75368 7.25 4.25 6.74632 4.25 6.125C4.25 5.50368 4.75368 5 5.375 5Z" fill="#18202A"/>
<path d="M3.875 8.5C3.66789 8.5 3.5 8.66789 3.5 8.875C3.5 9.08211 3.66789 9.25 3.875 9.25H6.875C7.08211 9.25 7.25 9.08211 7.25 8.875C7.25 8.66789 7.08211 8.5 6.875 8.5H3.875Z" fill="#18202A"/>
<path fill-rule="evenodd" clip-rule="evenodd" d="M11.5 6C11.5 9.03757 9.03757 11.5 6 11.5C2.96243 11.5 0.5 9.03757 0.5 6C0.5 2.96243 2.96243 0.5 6 0.5C9.03757 0.5 11.5 2.96243 11.5 6ZM10.75 6C10.75 8.62335 8.62335 10.75 6 10.75C3.37665 10.75 1.25 8.62335 1.25 6C1.25 3.37665 3.37665 1.25 6 1.25C8.62335 1.25 10.75 3.37665 10.75 6Z" fill="#18202A"/>
</g>
</g>
<defs>
<clipPath id="clip0_3293_9021">
<rect width="12" height="12" fill="white"/>
</clipPath>
<clipPath id="clip1_3293_9021">
<rect width="12" height="12" fill="white"/>
</clipPath>
</defs>
</svg>
