<svg width="12" height="12" viewBox="0 0 12 12" fill="none" xmlns="http://www.w3.org/2000/svg">
<path d="M4 5.875C4 5.66789 4.16789 5.5 4.375 5.5H7.625C7.83211 5.5 8 5.66789 8 5.875C8 6.08211 7.83211 6.25 7.625 6.25H4.375C4.16789 6.25 4 6.08211 4 5.875Z" fill="#18202A"/>
<path fill-rule="evenodd" clip-rule="evenodd" d="M1.5 4.36622C1.2011 4.19331 1 3.87014 1 3.5V2C1 1.44772 1.44772 1 2 1H10C10.5523 1 11 1.44772 11 2V3.5C11 3.87014 10.7989 4.19331 10.5 4.36622V9.5C10.5 10.6046 9.60457 11.5 8.5 11.5H3.5C2.39543 11.5 1.5 10.6046 1.5 9.5V4.36622ZM1.75 2C1.75 1.86193 1.86193 1.75 2 1.75H10C10.1381 1.75 10.25 1.86193 10.25 2V3.5C10.25 3.63807 10.1381 3.75 10 3.75H2C1.86193 3.75 1.75 3.63807 1.75 3.5V2ZM8.5 10.75C9.19036 10.75 9.75 10.1904 9.75 9.5V4.5H2.25V9.5C2.25 10.1904 2.80964 10.75 3.5 10.75H8.5Z" fill="#18202A"/>
</svg>
