<svg width="12" height="12" viewBox="0 0 12 12" fill="none" xmlns="http://www.w3.org/2000/svg">
<path d="M5.99995 6C6.99995 6 7.49995 5 7.49995 3.75C7.49995 2.75 6.99995 2 5.99995 2C4.99995 2 4.49995 2.75 4.49995 3.75C4.49995 5 4.99995 6 5.99995 6Z" fill="#18202A"/>
<path d="M6.60574 10.9799C6.37831 10.5361 6.25 10.033 6.25 9.5C6.25 8.38628 6.81021 7.40339 7.6642 6.81777C7.14941 6.61274 6.58784 6.5 5.99995 6.5C5.1079 6.5 4.27647 6.75956 3.57707 7.20729C2.9222 7.6265 2.70309 8.46185 2.96489 9.19401C3.04145 9.40813 3.12688 9.61804 3.22074 9.82328C3.48671 10.4049 4.03281 10.8077 4.66544 10.9017C5.10088 10.9665 5.5465 11 5.99995 11C6.20353 11 6.40553 10.9932 6.60574 10.9799Z" fill="#18202A"/>
<path d="M2.49995 6C3.16662 6 3.49995 5.375 3.49995 4.59375C3.49995 3.96875 3.16662 3.5 2.49995 3.5C1.83329 3.5 1.49995 3.96875 1.49995 4.59375C1.49995 5.375 1.83329 6 2.49995 6Z" fill="#18202A"/>
<path d="M9.49995 6C10.1666 6 10.5 5.375 10.5 4.59375C10.5 3.96875 10.1666 3.5 9.49995 3.5C8.83329 3.5 8.49995 3.96875 8.49995 4.59375C8.49995 5.375 8.83329 6 9.49995 6Z" fill="#18202A"/>
<path d="M2.02328 9.53081C1.72953 8.70929 1.82295 7.74553 2.34917 7.01489C1.87184 7.05584 1.41846 7.18061 1.0038 7.37442C0.420274 7.64717 0.184812 8.33603 0.381815 8.94929C0.55418 9.48585 1.02225 9.86279 1.58157 9.93184C1.78584 9.95705 1.99223 9.97542 2.2005 9.98672C2.13745 9.83678 2.07833 9.68477 2.02328 9.53081Z" fill="#18202A"/>
<path fill-rule="evenodd" clip-rule="evenodd" d="M9.5 12C10.8807 12 12 10.8807 12 9.5C12 8.11929 10.8807 7 9.5 7C8.11929 7 7 8.11929 7 9.5C7 10.8807 8.11929 12 9.5 12ZM9.875 8.375C9.875 8.16789 9.70711 8 9.5 8C9.29289 8 9.125 8.16789 9.125 8.375V9.125H8.375C8.16789 9.125 8 9.29289 8 9.5C8 9.70711 8.16789 9.875 8.375 9.875H9.125V10.625C9.125 10.8321 9.29289 11 9.5 11C9.70711 11 9.875 10.8321 9.875 10.625V9.875H10.625C10.8321 9.875 11 9.70711 11 9.5C11 9.29289 10.8321 9.125 10.625 9.125H9.875V8.375Z" fill="#18202A"/>
</svg>
