<svg width="12" height="12" viewBox="0 0 12 12" fill="none" xmlns="http://www.w3.org/2000/svg">
<path d="M6 1.86524C6 1.65813 5.8316 1.48915 5.62481 1.50054C2.76223 1.65832 0.5 3.60813 0.5 5.99024C0.5 8.47552 2.96243 10.4902 6 10.4902C6.58813 10.4902 7.15471 10.4147 7.68602 10.2749L9.24115 10.9228C9.58713 11.067 9.96286 10.7933 9.93173 10.4198L9.83163 9.21855C10.8606 8.40082 11.5 7.25662 11.5 5.99024C11.5 5.93008 11.4986 5.87019 11.4957 5.8106C11.4869 5.62651 11.3289 5.49024 11.1446 5.49024C10.9158 5.49024 10.7441 5.69742 10.7493 5.92618C10.7498 5.94752 10.75 5.96887 10.75 5.99024C10.75 6.98948 10.2474 7.93016 9.36502 8.63138L9.0509 8.881L9.15018 10.0724L7.74037 9.48501L7.49511 9.54956C7.02636 9.67295 6.52396 9.74024 6 9.74024C3.22891 9.74024 1.25 7.92761 1.25 5.99024C1.25 4.14153 3.05194 2.4064 5.62466 2.25147C5.83139 2.23902 6 2.07235 6 1.86524Z" fill="#18202A"/>
<path d="M8.125 1C8.33211 1 8.5 1.16789 8.5 1.375V1.76106C9.37183 1.94657 10.3779 2.87548 10.3779 3.5C10.3779 3.7396 10.0673 3.62968 9.65992 3.48555C9.29959 3.35806 8.8636 3.2038 8.5 3.24098V6C8.5 6.82843 7.82843 7.5 7 7.5C6.17157 7.5 5.5 6.82843 5.5 6C5.5 5.17157 6.17157 4.5 7 4.5C7.27322 4.5 7.52937 4.57305 7.75 4.70067V1.375C7.75 1.16789 7.91789 1 8.125 1Z" fill="#18202A"/>
</svg>
