<svg width="12" height="12" viewBox="0 0 12 12" fill="none" xmlns="http://www.w3.org/2000/svg">
<path fill-rule="evenodd" clip-rule="evenodd" d="M6 8.25C6.9665 8.25 7.75 7.4665 7.75 6.5C7.75 5.5335 6.9665 4.75 6 4.75C5.0335 4.75 4.25 5.5335 4.25 6.5C4.25 7.4665 5.0335 8.25 6 8.25ZM6 9C7.38071 9 8.5 7.88071 8.5 6.5C8.5 5.11929 7.38071 4 6 4C4.61929 4 3.5 5.11929 3.5 6.5C3.5 7.88071 4.61929 9 6 9Z" fill="#18202A"/>
<path d="M6.96495 0.5C7.21185 0.5 7.455 0.560998 7.6727 0.677528C7.8904 0.794058 8.07595 0.962533 8.21295 1.168L8.61895 1.7775C8.6646 1.84596 8.7265 1.90208 8.79905 1.94089C8.87155 1.97969 8.95255 1.99999 9.0348 2H9C10.3807 2 11.5 3.11929 11.5 4.5V8.5C11.5 9.8807 10.3807 11 9 11H3C1.61929 11 0.5 9.8807 0.5 8.5V4.5C0.5 3.15562 1.56116 2.05909 2.89156 2.00231L2.96509 2C3.04734 1.99999 3.1283 1.97969 3.20083 1.94089C3.2734 1.90208 3.33526 1.84596 3.38094 1.7775L3.78694 1.168C3.92391 0.962533 4.10948 0.794058 4.32718 0.677528C4.54489 0.560998 4.788 0.5 5.03494 0.5H6.96495ZM6.96495 1.25H5.03494C4.91153 1.25 4.78999 1.28049 4.68112 1.33876C4.59404 1.38537 4.51723 1.44861 4.45501 1.52453L4.41114 1.58379L4.00483 2.19375C3.89064 2.3649 3.73596 2.50523 3.55459 2.60222C3.40348 2.68305 3.23771 2.73177 3.06765 2.74578L3 2.748C2.06572 2.75 1.30244 3.48214 1.25259 4.40398L1.25 4.5V8.5C1.25 9.43427 1.98214 10.1976 2.90398 10.2474L3 10.25H9C9.93427 10.25 10.6976 9.51785 10.7474 8.59602L10.75 8.5V4.5C10.75 3.56572 10.0179 2.80244 9.09602 2.75259L9 2.75L8.93223 2.74578C8.79615 2.73457 8.66282 2.70114 8.5376 2.64684L8.44528 2.60222C8.29409 2.52134 8.16145 2.41039 8.05524 2.2764L7.99475 2.19329L7.58894 1.58407C7.5204 1.48127 7.4276 1.39702 7.31876 1.33876C7.23168 1.29215 7.13646 1.26331 7.03868 1.25364L6.96495 1.25Z" fill="#18202A"/>
</svg>
