<svg width="12" height="12" viewBox="0 0 12 12" fill="none" xmlns="http://www.w3.org/2000/svg">
<g clip-path="url(#clip0_2266_35991)">
<path fill-rule="evenodd" clip-rule="evenodd" d="M10 4V7.88095L6.11905 4H10ZM10 3H5.11905L2.92941 0.810365C3.23896 0.613823 3.60619 0.5 4 0.5H8C9.10457 0.5 10 1.39543 10 2.5V3ZM3.29226 4L0.680618 1.38835C0.459396 1.16713 0.438493 0.829365 0.633929 0.633929C0.829365 0.438493 1.16713 0.459396 1.38835 0.680618L11.3194 10.6116C11.5406 10.8329 11.5615 11.1706 11.3661 11.3661C11.1706 11.5615 10.8329 11.5406 10.6116 11.3194L10 10.7077V11C10 11.412 9.52962 11.6472 9.2 11.4L6.6 9.45C6.24444 9.18333 5.75556 9.18333 5.4 9.45L2.8 11.4C2.47038 11.6472 2 11.412 2 11V4H3.29226Z" fill="#18202A"/>
</g>
<defs>
<clipPath id="clip0_2266_35991">
<rect width="12" height="12" fill="white"/>
</clipPath>
</defs>
</svg>
