<svg width="12" height="12" viewBox="0 0 12 12" fill="none" xmlns="http://www.w3.org/2000/svg">
<path fill-rule="evenodd" clip-rule="evenodd" d="M10.707 2.37879L9.62101 1.29279C9.43348 1.10532 9.17917 1 8.91401 1C8.64884 1 8.39453 1.10532 8.20701 1.29279L1.50001 7.99979L1.15177 10.2782C1.10079 10.6118 1.38803 10.899 1.72157 10.848L4.00001 10.4998L10.707 3.79279C10.8945 3.60526 10.9998 3.35095 10.9998 3.08579C10.9998 2.82062 10.8945 2.56631 10.707 2.37879ZM9.48474 3.9544L10.1766 3.26254C10.2234 3.21566 10.2498 3.15204 10.2498 3.08579C10.2498 3.01953 9.79683 2.54687 9.75001 2.5L9.09068 1.82312C9.0438 1.7763 8.98026 1.75 8.91401 1.75C8.84775 1.75 8.78413 1.77638 8.73726 1.8232L8.0454 2.51506L9.48474 3.9544ZM8.95441 4.48473L7.51507 3.04539L2.20424 8.35621L1.94456 10.0552L3.64358 9.79555L8.95441 4.48473Z" fill="#18202A"/>
</svg>
