<svg width="12" height="12" viewBox="0 0 12 12" fill="none" xmlns="http://www.w3.org/2000/svg">
<path fill-rule="evenodd" clip-rule="evenodd" d="M6.2197 8.73483C6.07325 8.88128 6.07325 9.11872 6.2197 9.26516C6.36614 9.41161 6.60358 9.41161 6.75003 9.26516L9.75003 6.26517C9.89648 6.11872 9.89648 5.88128 9.75003 5.73483L6.75003 2.73483C6.60358 2.58839 6.36615 2.58839 6.2197 2.73483C6.07325 2.88128 6.07325 3.11872 6.2197 3.26516L8.95453 6L6.2197 8.73483ZM2.23486 8.73483C2.08842 8.88128 2.08842 9.11872 2.23486 9.26516C2.38131 9.41161 2.61875 9.41161 2.76519 9.26516L5.76519 6.26516C5.91164 6.11872 5.91164 5.88128 5.76519 5.73483L2.76519 2.73483C2.61875 2.58839 2.38131 2.58839 2.23486 2.73483C2.08842 2.88128 2.08842 3.11872 2.23486 3.26516L4.9697 6L2.23486 8.73483Z" fill="#18202A"/>
</svg>
