<svg width="12" height="12" viewBox="0 0 12 12" fill="none" xmlns="http://www.w3.org/2000/svg">
<g clip-path="url(#clip0_2266_35523)">
<path fill-rule="evenodd" clip-rule="evenodd" d="M0.987436 6.01256L5.98744 1.01256C6.31562 0.684375 6.76074 0.5 7.22487 0.5H10.25C10.9404 0.5 11.5 1.05964 11.5 1.75V4.77513C11.5 5.23926 11.3156 5.68437 10.9874 6.01256L5.98744 11.0126C5.30402 11.696 4.19598 11.696 3.51256 11.0126L0.987435 8.48744C0.304018 7.80402 0.304019 6.69598 0.987436 6.01256ZM8.75 4C9.16421 4 9.5 3.66421 9.5 3.25C9.5 2.83579 9.16421 2.5 8.75 2.5C8.33578 2.5 8 2.83579 8 3.25C8 3.66421 8.33578 4 8.75 4Z" fill="#18202A"/>
</g>
<defs>
<clipPath id="clip0_2266_35523">
<rect width="12" height="12" fill="white"/>
</clipPath>
</defs>
</svg>
