<svg width="12" height="12" viewBox="0 0 12 12" fill="none" xmlns="http://www.w3.org/2000/svg">
<path fill-rule="evenodd" clip-rule="evenodd" d="M1.375 0.5C1.16789 0.5 1 0.667893 1 0.875C1 1.08211 1.16789 1.25 1.375 1.25H2V10C2 10.8284 2.67157 11.5 3.5 11.5H8.5C9.32843 11.5 10 10.8284 10 10V1.25H10.625C10.8321 1.25 11 1.08211 11 0.875C11 0.667893 10.8321 0.5 10.625 0.5H10H2H1.375ZM9.25 1.25H2.75V9.5315C2.8299 9.51094 2.91367 9.5 3 9.5C3.55228 9.5 4 9.94771 4 10.5C4 10.5863 3.98906 10.6701 3.9685 10.75H8.03151C8.01094 10.6701 8 10.5863 8 10.5C8 9.94771 8.44771 9.5 9 9.5C9.08632 9.5 9.1701 9.51094 9.25 9.5315V1.25ZM7.76517 6.10983C7.91161 6.25628 7.91161 6.49372 7.76517 6.64016L6.26517 8.14017C6.11872 8.28661 5.88128 8.28661 5.73483 8.14017L4.23484 6.64016C4.08839 6.49372 4.08839 6.25628 4.23484 6.10983C4.38128 5.96339 4.61872 5.96339 4.76517 6.10983L5.625 6.96967V3.875C5.625 3.66789 5.79289 3.5 6 3.5C6.20711 3.5 6.375 3.66789 6.375 3.875V6.96967L7.23483 6.10983C7.38128 5.96339 7.61872 5.96339 7.76517 6.10983Z" fill="#18202A"/>
</svg>
