<svg width="20" height="20" viewBox="0 0 20 20" fill="none" xmlns="http://www.w3.org/2000/svg">
<rect width="20" height="20" rx="4" fill="#FA8C16"/>
<path fill-rule="evenodd" clip-rule="evenodd" d="M10.9239 15.3169C11.1909 15.1169 11.3859 14.8358 11.4798 14.5158L10.5202 14.2342C10.4871 14.3471 10.4184 14.4461 10.3244 14.5165C10.2304 14.587 10.1161 14.625 9.99877 14.625C9.88141 14.625 9.76717 14.587 9.67316 14.5165C9.57915 14.4461 9.51041 14.3471 9.4773 14.2342L8.51775 14.5158C8.61165 14.8358 8.80666 15.1169 9.07364 15.3169C9.34062 15.5169 9.66519 15.625 9.99877 15.625C10.3324 15.625 10.6569 15.5169 10.9239 15.3169Z" fill="white"/>
<path fill-rule="evenodd" clip-rule="evenodd" d="M10 4.5C9.72388 4.5 9.50002 4.72386 9.50002 5V5.5C9.50002 5.77614 9.72388 6 10 6C10.2762 6 10.5 5.77614 10.5 5.5V5C10.5 4.72386 10.2762 4.5 10 4.5Z" fill="white"/>
<path d="M12.7584 6.61578C12.0268 5.90136 11.0346 5.5 10 5.5C8.96543 5.5 7.97322 5.90136 7.24165 6.61578C6.51008 7.33021 6.09909 8.29918 6.09909 9.30952C6.09909 11.1995 5.63351 12.3151 5.24938 12.9139C5.11837 13.1181 5.28128 13.5 5.52389 13.5H14.4762C14.7188 13.5 14.8817 13.1181 14.7507 12.9139C14.3665 12.3151 13.901 11.1995 13.901 9.30952C13.901 8.29918 13.49 7.33021 12.7584 6.61578Z" fill="white"/>
</svg>
