<svg width="12" height="12" viewBox="0 0 12 12" fill="none" xmlns="http://www.w3.org/2000/svg">
<path fill-rule="evenodd" clip-rule="evenodd" d="M9.65065 10.5708C9.92014 10.2763 10.1339 9.92657 10.2796 9.54173C10.4253 9.1569 10.5002 8.74446 10.5 8.328V5H10.475C10.3592 4.42944 9.85474 4 9.25 4C9.09369 4 8.94408 4.02869 8.80615 4.08109C8.58448 3.73181 8.19431 3.5 7.75 3.5C7.59369 3.5 7.44408 3.52869 7.30615 3.58109C7.12719 3.29912 6.83842 3.0937 6.5 3.025C6.41922 3.00861 6.33562 3 6.25 3C6.16438 3 6.08078 3.00861 6 3.025V1.25C6 0.559644 5.44036 0 4.75 0C4.05964 0 3.5 0.559644 3.5 1.25V5.01289C3.12279 5.0617 2.76923 5.24756 2.49792 5.54394C2.17911 5.89223 2 6.3646 2 6.85714C1.99987 7.76309 2.25903 8.6464 2.7412 9.38348L3.36453 10.3337C3.60027 10.6942 3.91129 10.988 4.2718 11.1908C4.6323 11.3937 5.03189 11.4997 5.4374 11.5H7.5981C7.97933 11.5 8.35682 11.4179 8.709 11.2585C9.06119 11.0991 9.38116 10.8654 9.65065 10.5708ZM5 5.5C5 5.77614 5.22386 6 5.5 6C5.77614 6 6 5.77614 6 5.5V4.0454L6.19893 4.00502C6.2146 4.00184 6.23157 4 6.25 4C6.33778 4 6.41587 4.04451 6.46184 4.11695L6.5 4.17707V5.5C6.5 5.77614 6.72386 6 7 6C7.27614 6 7.5 5.77614 7.5 5.5V4.57718L7.66131 4.5159C7.68755 4.50593 7.71692 4.5 7.75 4.5C7.83779 4.5 7.91587 4.54451 7.96184 4.61695L8 4.67707V5.5C8 5.77614 8.22386 6 8.5 6C8.77614 6 9 5.77614 9 5.5V5.07718L9.16131 5.0159C9.18755 5.00593 9.21692 5 9.25 5C9.36978 5 9.4719 5.08524 9.49498 5.19893L9.5 5.22365V8.32854C9.50016 8.62532 9.4467 8.91746 9.3444 9.18758C9.24214 9.45764 9.09416 9.69763 8.91283 9.89583C8.73166 10.0939 8.52139 10.2457 8.2966 10.3475C8.07211 10.4491 7.83504 10.5 7.5981 10.5H5.43825C5.20779 10.4998 4.97634 10.4398 4.76216 10.3193C4.54734 10.1984 4.35308 10.0182 4.20144 9.78637L3.57804 8.83603L3.57776 8.83559C3.20542 8.26624 2.9999 7.57442 3 6.85729C3 6.60283 3.09335 6.3745 3.23554 6.21915C3.35457 6.08912 3.49543 6.02182 3.62832 6.00462L4.5 5.89183V1.25C4.5 1.11193 4.61193 1 4.75 1C4.88807 1 5 1.11193 5 1.25V5.5Z" fill="#18202A"/>
</svg>
