<svg width="12" height="12" viewBox="0 0 12 12" fill="none" xmlns="http://www.w3.org/2000/svg">
<g clip-path="url(#clip0_2266_39735)">
<path fill-rule="evenodd" clip-rule="evenodd" d="M1.26023 5.81979V5.84545C1.26023 7.34009 1.84941 8.4619 2.75765 9.19772L3.00635 9.39921L3.10833 10.6229L4.38214 10.035L4.63411 10.0947C5.06461 10.1966 5.52454 10.25 6.00512 10.25C8.9351 10.25 10.75 8.16463 10.75 5.84545C10.75 3.06021 8.67318 1.25 6.00511 1.25C3.32295 1.25 1.09726 3.4415 1.25847 5.79418L1.26023 5.81979ZM11.5 5.84545C11.5 8.58679 9.34132 11 6.00512 11C5.46914 11 4.95108 10.9404 4.46133 10.8245L3.09838 11.4536C2.78324 11.599 2.4194 11.387 2.39058 11.0411L2.28552 9.78047C1.19411 8.89625 0.510226 7.5566 0.510226 5.84545C0.314005 2.98182 2.97037 0.5 6.00511 0.5C9.03986 0.5 11.5 2.6 11.5 5.84545Z" fill="#18202A"/>
</g>
<defs>
<clipPath id="clip0_2266_39735">
<rect width="12" height="12" fill="white"/>
</clipPath>
</defs>
</svg>
