<svg width="20" height="20" viewBox="0 0 20 20" fill="none" xmlns="http://www.w3.org/2000/svg">
<rect width="20" height="20" rx="4" fill="#1A99F4"/>
<g clip-path="url(#clip0_18156_89229)">
<path fill-rule="evenodd" clip-rule="evenodd" d="M15.5 10C15.5 13.0376 13.0376 15.5 10 15.5C6.96243 15.5 4.5 13.0376 4.5 10C4.5 6.96243 6.96243 4.5 10 4.5C13.0376 4.5 15.5 6.96243 15.5 10ZM10 6.5C9.72386 6.5 9.5 6.72386 9.5 7V10C9.5 10.2761 9.72386 10.5 10 10.5H12.5C12.7761 10.5 13 10.2761 13 10C13 9.72386 12.7761 9.5 12.5 9.5H10.5V7C10.5 6.72386 10.2761 6.5 10 6.5Z" fill="white"/>
</g>
<defs>
<clipPath id="clip0_18156_89229">
<rect width="12" height="12" fill="white" transform="translate(4 4)"/>
</clipPath>
</defs>
</svg>
