<svg width="12" height="12" viewBox="0 0 12 12" fill="none" xmlns="http://www.w3.org/2000/svg">
<g clip-path="url(#clip0_2266_40227)">
<path fill-rule="evenodd" clip-rule="evenodd" d="M6 10.75C3.37665 10.75 1.25 8.62335 1.25 6C1.25 3.37665 3.37665 1.25 6 1.25C8.62335 1.25 10.75 3.37665 10.75 6C10.75 8.62335 8.62335 10.75 6 10.75ZM6 11.5C2.96243 11.5 0.5 9.03757 0.5 6C0.5 2.96243 2.96243 0.5 6 0.5C9.03757 0.5 11.5 2.96243 11.5 6C11.5 9.03757 9.03757 11.5 6 11.5Z" fill="#18202A"/>
<path fill-rule="evenodd" clip-rule="evenodd" d="M6.76516 3.73483C6.61872 3.58839 6.38128 3.58839 6.23484 3.73483L4.23483 5.73483C4.08839 5.88128 4.08839 6.11872 4.23483 6.26517L6.23484 8.26516C6.38128 8.41161 6.61872 8.41161 6.76516 8.26516C6.91161 8.11872 6.91161 7.88128 6.76516 7.73483L5.03033 6L6.76516 4.26517C6.91161 4.11872 6.91161 3.88128 6.76516 3.73483Z" fill="#18202A"/>
</g>
<defs>
<clipPath id="clip0_2266_40227">
<rect width="12" height="12" fill="white"/>
</clipPath>
</defs>
</svg>
