<svg width="12" height="12" viewBox="0 0 12 12" fill="none" xmlns="http://www.w3.org/2000/svg">
<path fill-rule="evenodd" clip-rule="evenodd" d="M2.5 2C1.67157 2 1 2.67157 1 3.5V8C1 8.82843 1.67157 9.5 2.5 9.5H5.5V10H4.5C4.22386 10 4 10.2239 4 10.5C4 10.7761 4.22386 11 4.5 11H7.5C7.77614 11 8 10.7761 8 10.5C8 10.2239 7.77614 10 7.5 10H6.5V9.5H9.5C10.3284 9.5 11 8.82843 11 8V3.5C11 2.67157 10.3284 2 9.5 2H2.5ZM10 3.5C10 3.22386 9.77614 3 9.5 3H2.5C2.22386 3 2 3.22386 2 3.5V6.5H10V3.5ZM9.5 8.5C9.77614 8.5 10 8.27614 10 8V7.5H2V8C2 8.27614 2.22386 8.5 2.5 8.5H9.5Z" fill="#18202A"/>
</svg>
