<svg width="12" height="12" viewBox="0 0 12 12" fill="none" xmlns="http://www.w3.org/2000/svg">
<path fill-rule="evenodd" clip-rule="evenodd" d="M10.3465 3.35646C10.3282 3.31223 10.3011 3.27079 10.2652 3.23483C10.1919 3.16161 10.096 3.125 10 3.125H6.5C6.29289 3.125 6.125 3.29289 6.125 3.5C6.125 3.70711 6.29289 3.875 6.5 3.875H9.09467L5.5 7.46967L3.76517 5.73483C3.61872 5.58839 3.38128 5.58839 3.23483 5.73483L1.23483 7.73484C1.08839 7.88128 1.08839 8.11872 1.23483 8.26516C1.38128 8.41161 1.61872 8.41161 1.76517 8.26516L3.5 6.53033L5.23483 8.26516C5.38128 8.41161 5.61872 8.41161 5.76516 8.26516L9.625 4.40533V7C9.625 7.20711 9.79289 7.375 10 7.375C10.2071 7.375 10.375 7.20711 10.375 7V3.5C10.375 3.44915 10.3649 3.40067 10.3465 3.35646Z" fill="#18202A"/>
</svg>
