<svg width="12" height="12" viewBox="0 0 12 12" fill="none" xmlns="http://www.w3.org/2000/svg">
<path d="M3.64645 3.64645C3.84171 3.45118 4.15829 3.45118 4.35355 3.64645L6 5.29289L7.64645 3.64645C7.84171 3.45118 8.15829 3.45118 8.35355 3.64645C8.54882 3.84171 8.54882 4.15829 8.35355 4.35355L6.70711 6L8.35355 7.64645C8.54882 7.84171 8.54882 8.15829 8.35355 8.35355C8.15829 8.54882 7.84171 8.54882 7.64645 8.35355L6 6.70711L4.35355 8.35355C4.15829 8.54882 3.84171 8.54882 3.64645 8.35355C3.45118 8.15829 3.45118 7.84171 3.64645 7.64645L5.29289 6L3.64645 4.35355C3.45118 4.15829 3.45118 3.84171 3.64645 3.64645Z" fill="#18202A"/>
<path fill-rule="evenodd" clip-rule="evenodd" d="M3 1C1.89543 1 1 1.89543 1 3V9C1 10.1046 1.89543 11 3 11H9C10.1046 11 11 10.1046 11 9V3C11 1.89543 10.1046 1 9 1H3ZM10 3C10 2.44772 9.55229 2 9 2H3C2.44772 2 2 2.44772 2 3V9C2 9.55229 2.44772 10 3 10H9C9.55229 10 10 9.55229 10 9V3Z" fill="#18202A"/>
</svg>
