<svg width="12" height="12" viewBox="0 0 12 12" fill="none" xmlns="http://www.w3.org/2000/svg">
<g clip-path="url(#clip0_2266_36296)">
<path fill-rule="evenodd" clip-rule="evenodd" d="M0.888354 0.180618C0.667133 -0.0406037 0.329365 -0.0615069 0.133929 0.133929C-0.0615069 0.329365 -0.0406037 0.667133 0.180618 0.888354L0.776676 1.48441C0.600875 1.78208 0.5 2.12926 0.5 2.5V7C0.5 8.10457 1.39543 9 2.5 9H2.77273L2.48282 10.3865C2.39375 10.8125 2.8537 11.141 3.22777 10.9186L6.45455 9H8.29226L9.61164 10.3194C9.83287 10.5406 10.1706 10.5615 10.3661 10.3661C10.5615 10.1706 10.5406 9.83287 10.3194 9.61164L0.888354 0.180618ZM11.5 7C11.5 7.64941 11.1905 8.22652 10.7109 8.59188L2.61905 0.5H9.5C10.6046 0.5 11.5 1.39543 11.5 2.5V7Z" fill="#18202A"/>
</g>
<defs>
<clipPath id="clip0_2266_36296">
<rect width="12" height="12" fill="white"/>
</clipPath>
</defs>
</svg>
