<svg width="12" height="12" viewBox="0 0 12 12" fill="none" xmlns="http://www.w3.org/2000/svg">
<g clip-path="url(#clip0_2266_39642)">
<path d="M0.610504 0.610504C0.757843 0.463165 0.996727 0.463165 1.14407 0.610504L10.3895 9.85594C10.5368 10.0033 10.5368 10.2422 10.3895 10.3895C10.2422 10.5368 10.0033 10.5368 9.85594 10.3895L0.610504 1.14407C0.463165 0.996727 0.463165 0.757843 0.610504 0.610504Z" fill="#18202A"/>
<path d="M2.15917 1.62632L0.942082 1.99241L0.878181 2.01532C0.650659 2.11067 0.5 2.32797 0.5 2.57133C0.5 8.75663 3.59346 10.4539 5.46599 11.3205L5.7308 11.4418C5.81605 11.4806 5.9081 11.5 6.00015 11.5C6.09215 11.5 6.18395 11.4806 6.26895 11.4418C7.19462 11.0203 8.52373 10.4147 9.61055 9.0777L9.07707 8.54422C9.04923 8.57935 9.02107 8.6141 8.9926 8.64846L8.88981 8.76998C8.24203 9.5197 7.58246 9.97629 6.51691 10.4966L6.14615 10.6729L5.9995 10.74L5.8531 10.6726C4.50222 10.0452 3.76119 9.55826 3.00738 8.64837L2.90648 8.5233C1.87789 7.21394 1.28763 5.37739 1.25174 2.82098L1.2505 2.6825L2.76106 2.22822L2.15917 1.62632Z" fill="#18202A"/>
<path d="M3.35985 2.827L2 3.236L2.0016 3.28214C2.09519 5.42718 2.62024 6.95906 3.47823 8.05422L3.57143 8.1699C4.17741 8.90135 4.7815 9.32838 5.83307 9.83937L5.9865 9.913L6.13892 9.83981C7.13843 9.3543 7.73396 8.94443 8.3106 8.27748L8.40155 8.16999C8.44693 8.11521 8.49144 8.0593 8.53506 8.00221L7.99924 7.46639C7.94313 7.54314 7.88549 7.61717 7.8264 7.68861L7.74072 7.78988C7.28442 8.31692 6.81714 8.6614 5.98646 9.07867C5.11247 8.6396 4.63696 8.27951 4.15215 7.69525L4.06559 7.58781C3.39959 6.73587 2.93059 5.52964 2.78459 3.78321L3.96195 3.4291L3.35985 2.827Z" fill="#18202A"/>
<path d="M4.77736 3.18385L4.17526 2.58176L5.9865 2.037L9.9725 3.236L9.95972 3.50869C9.86407 5.12676 9.51494 6.38483 8.95725 7.36375L8.40432 6.81082C8.80467 6.03991 9.08197 5.05481 9.18833 3.78331L5.98649 2.82019L4.77736 3.18385Z" fill="#18202A"/>
<path d="M9.51314 7.91964C10.2817 6.66596 10.7176 5.00643 10.7483 2.82034L10.749 2.6825L6.0005 1.254L3.57649 1.98299L2.97457 1.38106L5.81255 0.527432C5.91031 0.498171 6.01354 0.492319 6.11349 0.509876L6.1877 0.527432L11.0582 1.99241C11.321 2.07162 11.5002 2.3061 11.5 2.57133C11.5 5.30841 10.8942 7.1667 10.0566 8.46306L9.51314 7.91964Z" fill="#18202A"/>
</g>
<defs>
<clipPath id="clip0_2266_39642">
<rect width="12" height="12" fill="white"/>
</clipPath>
</defs>
</svg>
