<svg width="12" height="12" viewBox="0 0 12 12" fill="none" xmlns="http://www.w3.org/2000/svg">
<g clip-path="url(#clip0_2266_40308)">
<path fill-rule="evenodd" clip-rule="evenodd" d="M6 10.75C8.62335 10.75 10.75 8.62335 10.75 6C10.75 3.37665 8.62335 1.25 6 1.25C3.37665 1.25 1.25 3.37665 1.25 6C1.25 8.62335 3.37665 10.75 6 10.75ZM6 11.5C9.03757 11.5 11.5 9.03757 11.5 6C11.5 2.96243 9.03757 0.5 6 0.5C2.96243 0.5 0.5 2.96243 0.5 6C0.5 9.03757 2.96243 11.5 6 11.5Z" fill="#18202A"/>
<path fill-rule="evenodd" clip-rule="evenodd" d="M8.25862 4.22845C8.40859 4.37128 8.41438 4.60865 8.27155 4.75862L5.41441 7.75862C5.34127 7.83541 5.23904 7.87765 5.13304 7.87487C5.02703 7.87209 4.92715 7.82456 4.85814 7.74405L3.71528 6.41071C3.5805 6.25347 3.59871 6.01673 3.75595 5.88195C3.9132 5.74716 4.14994 5.76537 4.28472 5.92262L5.15751 6.94087L7.72845 4.24138C7.87128 4.09141 8.10865 4.08562 8.25862 4.22845Z" fill="#18202A"/>
</g>
<defs>
<clipPath id="clip0_2266_40308">
<rect width="12" height="12" fill="white"/>
</clipPath>
</defs>
</svg>
