<svg width="12" height="12" viewBox="0 0 12 12" fill="none" xmlns="http://www.w3.org/2000/svg">
<path fill-rule="evenodd" clip-rule="evenodd" d="M8.84102 4.06844C8.96917 4.02409 9.10677 4 9.25 4C9.94036 4 10.5 4.55964 10.5 5.25V8.328C10.5002 8.74446 10.4253 9.1569 10.2796 9.54173C10.1339 9.92657 9.92014 10.2763 9.65065 10.5708C9.38116 10.8654 9.06119 11.0991 8.709 11.2585C8.35682 11.4179 7.97933 11.5 7.5981 11.5H5.4374C5.03189 11.4997 4.6323 11.3937 4.2718 11.1908C3.91129 10.988 3.60027 10.6942 3.36453 10.3337L2.7412 9.38348C2.25903 8.6464 1.99987 7.76309 2 6.85714C2 6.3646 2.17911 5.89223 2.49792 5.54394C2.76923 5.24756 3.12279 5.0617 3.5 5.01289V1.25C3.5 0.559644 4.05964 0 4.75 0C5.44036 0 6 0.559644 6 1.25V3.025C6.08078 3.00861 6.16438 3 6.25 3C6.33562 3 6.41922 3.00861 6.5 3.025C6.81756 3.08947 7.0914 3.27431 7.27182 3.52983C7.29634 3.54027 7.31951 3.55325 7.34102 3.56844C7.46917 3.52409 7.60677 3.5 7.75 3.5C8.1722 3.5 8.54551 3.70931 8.77182 4.02983C8.79634 4.04027 8.81951 4.05325 8.84102 4.06844ZM5.25 5.625C5.25 5.83211 5.41789 6 5.625 6C5.83211 6 6 5.83211 6 5.625V3.7903L6.1492 3.76001C6.18115 3.75353 6.21477 3.75 6.25 3.75C6.42692 3.75 6.58302 3.84134 6.67292 3.98299L6.75 4.10443V5.625C6.75 5.83211 6.91789 6 7.125 6C7.33211 6 7.5 5.83211 7.5 5.625V4.30975L7.57252 4.2822C7.62668 4.26162 7.68611 4.25 7.75 4.25C7.92692 4.25 8.08302 4.34134 8.17292 4.48298L8.25 4.60443V5.625C8.25 5.83211 8.41789 6 8.625 6C8.83211 6 9 5.83211 9 5.625V4.80975L9.07252 4.7822C9.12668 4.76162 9.18611 4.75 9.25 4.75C9.52614 4.75 9.75 4.97386 9.75 5.25V8.328C9.75017 8.6547 9.69135 8.97732 9.5782 9.27612C9.46507 9.57487 9.30066 9.84228 9.09729 10.0646C8.89404 10.2868 8.65634 10.4591 8.3997 10.5753C8.14328 10.6913 7.87111 10.75 7.5981 10.75H5.43804C5.16381 10.7498 4.89033 10.6783 4.63957 10.5372C4.38833 10.3958 4.16488 10.1872 3.99221 9.92321L3.36883 8.9729L3.36852 8.97242C2.96879 8.36116 2.74989 7.62152 2.75 6.85725C2.75 6.54327 2.86479 6.25393 3.05114 6.05035C3.20824 5.87873 3.40227 5.78179 3.59624 5.75669L4.25 5.6721V1.25C4.25 0.973858 4.47386 0.75 4.75 0.75C5.02614 0.75 5.25 0.973858 5.25 1.25V5.625Z" fill="#18202A"/>
</svg>
