<svg width="12" height="12" viewBox="0 0 12 12" fill="none" xmlns="http://www.w3.org/2000/svg">
<g clip-path="url(#clip0_3294_8810)">
<path d="M1.5 1.75C1.08579 1.75 0.75 2.08579 0.75 2.5C0.75 2.91421 1.08579 3.25 1.5 3.25C1.91421 3.25 2.25 2.91421 2.25 2.5C2.25 2.08579 1.91421 1.75 1.5 1.75Z" fill="#18202A"/>
<path d="M1.5 5.25C1.08579 5.25 0.75 5.58579 0.75 6C0.75 6.41421 1.08579 6.75 1.5 6.75C1.91421 6.75 2.25 6.41421 2.25 6C2.25 5.58579 1.91421 5.25 1.5 5.25Z" fill="#18202A"/>
<path d="M0.75 9.5C0.75 9.08579 1.08579 8.75 1.5 8.75C1.91421 8.75 2.25 9.08579 2.25 9.5C2.25 9.91421 1.91421 10.25 1.5 10.25C1.08579 10.25 0.75 9.91421 0.75 9.5Z" fill="#18202A"/>
<path d="M4.5 2C4.22386 2 4 2.22386 4 2.5C4 2.77614 4.22386 3 4.5 3H10.5C10.7761 3 11 2.77614 11 2.5C11 2.22386 10.7761 2 10.5 2H4.5Z" fill="#18202A"/>
<path d="M4 6C4 5.72386 4.22386 5.5 4.5 5.5H10.5C10.7761 5.5 11 5.72386 11 6C11 6.27614 10.7761 6.5 10.5 6.5H4.5C4.22386 6.5 4 6.27614 4 6Z" fill="#18202A"/>
<path d="M4.5 9C4.22386 9 4 9.22386 4 9.5C4 9.77614 4.22386 10 4.5 10H10.5C10.7761 10 11 9.77614 11 9.5C11 9.22386 10.7761 9 10.5 9H4.5Z" fill="#18202A"/>
</g>
<defs>
<clipPath id="clip0_3294_8810">
<rect width="12" height="12" fill="white"/>
</clipPath>
</defs>
</svg>
