<svg width="12" height="12" viewBox="0 0 12 12" fill="none" xmlns="http://www.w3.org/2000/svg">
<path fill-rule="evenodd" clip-rule="evenodd" d="M3.5 0.5H5.5V5.5H7.87126C7.82749 5.53895 7.7846 5.57941 7.74264 5.62137L5.62132 7.74269C4.60051 8.76351 4.46915 10.337 5.22724 11.5H3.5C2.39543 11.5 1.5 10.6046 1.5 9.5V2.5C1.5 1.39543 2.39543 0.5 3.5 0.5ZM10.2071 4.20711C10.2926 4.29262 10.361 4.39201 10.4102 4.5H6.5V0.58982C6.60799 0.638962 6.70738 0.707385 6.79289 0.792893L10.2071 4.20711ZM11.2782 6.32848C10.4971 5.54743 9.2308 5.54743 8.44975 6.32848L8.09619 6.68203C7.90093 6.87729 7.90093 7.19388 8.09619 7.38914C8.29146 7.5844 8.60804 7.5844 8.8033 7.38914L9.15685 7.03559C9.54738 6.64506 10.1805 6.64506 10.5711 7.03559C10.9616 7.42611 10.9616 8.05928 10.5711 8.4498L10.2175 8.80335C10.0223 8.99862 10.0223 9.3152 10.2175 9.51046C10.4128 9.70572 10.7294 9.70572 10.9246 9.51046L11.2782 9.15691C12.0592 8.37586 12.0592 7.10953 11.2782 6.32848ZM6.32843 11.2782C5.54738 10.4972 5.54738 9.23085 6.32843 8.4498L6.68198 8.09625C6.87724 7.90098 7.19382 7.90098 7.38909 8.09625C7.58435 8.29151 7.58435 8.60809 7.38909 8.80335L7.03553 9.15691C6.64501 9.54743 6.64501 10.1806 7.03553 10.5711C7.42606 10.9616 8.05922 10.9616 8.44975 10.5711L8.8033 10.2176C8.99856 10.0223 9.31515 10.0223 9.51041 10.2176C9.70567 10.4128 9.70567 10.7294 9.51041 10.9247L9.15685 11.2782C8.37581 12.0593 7.10948 12.0593 6.32843 11.2782ZM7.74264 9.86401C7.54738 9.66875 7.54738 9.35217 7.74264 9.15691L9.15685 7.74269C9.35212 7.54743 9.6687 7.54743 9.86396 7.74269C10.0592 7.93795 10.0592 8.25454 9.86396 8.4498L8.44975 9.86401C8.25449 10.0593 7.9379 10.0593 7.74264 9.86401Z" fill="#18202A"/>
</svg>
