<svg width="12" height="12" viewBox="0 0 12 12" fill="none" xmlns="http://www.w3.org/2000/svg">
<path fill-rule="evenodd" clip-rule="evenodd" d="M2 1.5C0.895431 1.5 0 2.39543 0 3.5V8.5C0 9.60457 0.895431 10.5 2 10.5H7C8.10457 10.5 9 9.60457 9 8.5V3.5C9 2.39543 8.10457 1.5 7 1.5H2ZM3.98459 4.36924L5.72125 5.59069C6.00448 5.7899 6.00437 6.20973 5.72104 6.40879L3.98438 7.62891C3.65307 7.86168 3.19695 7.62469 3.19695 7.21979L3.19695 4.77822C3.19695 4.3732 3.65331 4.13624 3.98459 4.36924Z" fill="#18202A"/>
<path d="M9.70785 4.15035C9.57734 4.24431 9.5 4.39531 9.5 4.55612V7.44388C9.5 7.60469 9.57734 7.75569 9.70785 7.84965L11.2078 8.92965C11.5386 9.16778 12 8.93143 12 8.52388V3.47612C12 3.06857 11.5386 2.83222 11.2078 3.07035L9.70785 4.15035Z" fill="#18202A"/>
</svg>
