<svg width="12" height="12" viewBox="0 0 12 12" fill="none" xmlns="http://www.w3.org/2000/svg">
<path fill-rule="evenodd" clip-rule="evenodd" d="M4.25 0.5C3.83579 0.5 3.5 0.835786 3.5 1.25C3.5 1.66421 3.83579 2 4.25 2H7.75C8.16421 2 8.5 1.66421 8.5 1.25C8.5 0.835786 8.16421 0.5 7.75 0.5H4.25ZM2.5 1.06302C1.63739 1.28504 1 2.06809 1 3.00001V9.50001C1 10.6046 1.89543 11.5 3 11.5H9C10.1046 11.5 11 10.6046 11 9.50001V3.00001C11 2.06809 10.3626 1.28504 9.5 1.06302V1.50001C9.5 2.32844 8.82843 3.00001 8 3.00001H4C3.17157 3.00001 2.5 2.32844 2.5 1.50001V1.06302ZM8.85355 4.64646C9.04882 4.84172 9.04882 5.1583 8.85355 5.35356L5.35355 8.85356C5.15829 9.04882 4.84171 9.04882 4.64645 8.85356L3.14645 7.35356C2.95118 7.1583 2.95118 6.84172 3.14645 6.64646C3.34171 6.45119 3.65829 6.45119 3.85355 6.64646L5 7.7929L8.14645 4.64646C8.34171 4.45119 8.65829 4.45119 8.85355 4.64646Z" fill="#18202A"/>
</svg>
