<svg width="12" height="12" viewBox="0 0 12 12" fill="none" xmlns="http://www.w3.org/2000/svg">
<g clip-path="url(#clip0_2266_36172)">
<path fill-rule="evenodd" clip-rule="evenodd" d="M5.5 0.5H3.5C2.39543 0.5 1.5 1.39543 1.5 2.5V9.5C1.5 10.6046 2.39543 11.5 3.5 11.5H5.63104C5.22306 10.9157 5 10.2162 5 9.49382C5 8.62799 5.3205 7.79339 5.91664 7.13104L6.0263 7.01591L7.54221 5.5H6.5H5.5V4.5V0.5ZM10.4102 4.5H9.71787L9.71671 4.5L9.71555 4.5H6.5V0.58982C6.60799 0.638962 6.70739 0.707385 6.79289 0.792893L10.2071 4.20711C10.2926 4.29262 10.361 4.39201 10.4102 4.5ZM10.4495 5.63987C10.2267 5.54753 9.98789 5.5 9.74671 5.5C9.50553 5.5 9.26672 5.54753 9.04392 5.63987C8.82114 5.73221 8.61872 5.86756 8.44825 6.03817L6.76341 7.72302L6.67224 7.81915C6.25979 8.27777 6.03 8.87395 6.03 9.49382C6.03 10.158 6.29379 10.7949 6.76337 11.2646C7.2331 11.7342 7.87006 11.9981 8.53421 11.9981C9.19836 11.9981 9.83531 11.7342 10.305 11.2646L11.855 9.71463L11.8966 9.66752C12.0491 9.47138 12.0352 9.18776 11.855 9.00752C11.6597 8.81226 11.3432 8.81225 11.1479 9.00752L9.59791 10.5575L9.52533 10.6254C9.2519 10.8649 8.89992 10.9981 8.53421 10.9981C8.13525 10.9981 7.75263 10.8396 7.47049 10.5575C7.18846 10.2754 7.03 9.89278 7.03 9.49382C7.03 9.09485 7.18847 8.71223 7.47055 8.43009L9.15551 6.74512L9.21644 6.68985C9.27991 6.63773 9.35075 6.59519 9.4268 6.56367C9.52822 6.52163 9.63692 6.5 9.74671 6.5C9.85649 6.5 9.96519 6.52163 10.0666 6.56367C10.168 6.6057 10.2602 6.66731 10.3378 6.74497C10.4945 6.90186 10.5826 7.11454 10.5826 7.33632C10.5826 7.55809 10.4945 7.77078 10.3378 7.92763L8.78791 9.47752L8.76235 9.49854L8.73335 9.51406C8.71302 9.52249 8.69122 9.52683 8.66921 9.52683C8.6472 9.52683 8.6254 9.52249 8.60506 9.51406C8.58473 9.50563 8.56626 9.49328 8.55071 9.47772C8.53475 9.46177 8.52239 9.44329 8.51396 9.42297C8.50553 9.40263 8.50119 9.38083 8.50119 9.35882C8.50119 9.33681 8.50553 9.31501 8.51396 9.29468C8.52239 9.27435 8.53474 9.25588 8.55031 9.24032L9.69759 8.09255L9.73917 8.04543C9.89164 7.84926 9.87772 7.56564 9.69744 7.38544C9.50213 7.19022 9.18555 7.19029 8.99033 7.38559L7.84333 8.53309L7.78106 8.6004C7.7017 8.69327 7.63718 8.79836 7.59018 8.91175C7.53143 9.05347 7.50119 9.20539 7.50119 9.35882C7.50119 9.51224 7.53144 9.66417 7.59019 9.80589C7.64893 9.94762 7.73504 10.0764 7.84359 10.1848C7.95163 10.293 8.0804 10.3791 8.22213 10.4378C8.36387 10.4966 8.51579 10.5268 8.66921 10.5268C8.82263 10.5268 8.97455 10.4966 9.11628 10.4378C9.25801 10.3791 9.38677 10.293 9.4952 10.1844L11.045 8.63462L11.1218 8.553C11.4179 8.21818 11.5826 7.78574 11.5826 7.33632C11.5826 6.84944 11.3893 6.3825 11.0451 6.03813C10.8747 5.86755 10.6723 5.73221 10.4495 5.63987Z" fill="#18202A"/>
</g>
<defs>
<clipPath id="clip0_2266_36172">
<rect width="12" height="12" fill="white"/>
</clipPath>
</defs>
</svg>
