<svg width="12" height="12" viewBox="0 0 12 12" fill="none" xmlns="http://www.w3.org/2000/svg">
<g clip-path="url(#clip0_2266_35854)">
<path fill-rule="evenodd" clip-rule="evenodd" d="M6 10.5C8.48528 10.5 10.5 8.48528 10.5 6C10.5 3.51472 8.48528 1.5 6 1.5C3.51472 1.5 1.5 3.51472 1.5 6C1.5 8.48528 3.51472 10.5 6 10.5ZM11.5 6C11.5 9.03757 9.03757 11.5 6 11.5C2.96243 11.5 0.5 9.03757 0.5 6C0.5 2.96243 2.96243 0.5 6 0.5C9.03757 0.5 11.5 2.96243 11.5 6Z" fill="#18202A"/>
<path fill-rule="evenodd" clip-rule="evenodd" d="M9.85355 2.14645C9.65829 1.95118 9.34171 1.95118 9.14645 2.14645L2.14645 9.14645C1.95118 9.34171 1.95118 9.65829 2.14645 9.85355C2.34171 10.0488 2.65829 10.0488 2.85355 9.85355L9.85355 2.85355C10.0488 2.65829 10.0488 2.34171 9.85355 2.14645Z" fill="#18202A"/>
</g>
<defs>
<clipPath id="clip0_2266_35854">
<rect width="12" height="12" fill="white"/>
</clipPath>
</defs>
</svg>
