<svg width="12" height="12" viewBox="0 0 12 12" fill="none" xmlns="http://www.w3.org/2000/svg">
<path d="M9.53643 3.56676L7.98032 6.41962L8.53312 6.97241L10.0892 4.11955L10.2348 4.26517C10.3813 4.41161 10.6187 4.41161 10.7652 4.26517C10.9116 4.11872 10.9116 3.88128 10.7652 3.73483L10.2713 3.24098C10.2674 3.23688 10.2634 3.23286 10.2593 3.22892L8.77108 1.74075C8.76714 1.73663 8.76312 1.73261 8.75902 1.72869L8.26516 1.23483C8.11872 1.08839 7.88128 1.08839 7.73483 1.23483C7.58839 1.38128 7.58839 1.61872 7.73483 1.76517L7.88045 1.91078L5.02759 3.46688L5.58038 4.01968L8.43324 2.46357L9.53643 3.56676Z" fill="#18202A"/>
<path fill-rule="evenodd" clip-rule="evenodd" d="M2.13034 2.16067C2.27679 2.01423 2.51423 2.01423 2.66067 2.16067L9.8246 9.3246C9.97105 9.47105 9.97105 9.70849 9.8246 9.85494C9.67816 10.0014 9.44072 10.0014 9.29427 9.85494L7.7844 8.34506L7.32921 9.17957C7.3152 9.20526 7.29861 9.22866 7.27995 9.24963L7.76516 9.73483C7.91161 9.88128 7.91161 10.1187 7.76516 10.2652C7.61872 10.4116 7.38128 10.4116 7.23483 10.2652L4.75 7.78033L2.26517 10.2652C2.11872 10.4116 1.88128 10.4116 1.73484 10.2652C1.58839 10.1187 1.58839 9.88128 1.73484 9.73483L4.21967 7.25L1.73483 4.76517C1.58839 4.61872 1.58839 4.38128 1.73483 4.23483C1.88128 4.08839 2.11872 4.08839 2.26517 4.23483L2.75037 4.72004C2.77134 4.70139 2.79474 4.6848 2.82043 4.67079L3.65494 4.2156L2.13034 2.691C1.9839 2.54456 1.9839 2.30712 2.13034 2.16067ZM3.29602 5.26569L4.20773 4.76839L7.23161 7.79227L6.73431 8.70398L3.29602 5.26569Z" fill="#18202A"/>
</svg>
