<svg width="12" height="12" viewBox="0 0 12 12" fill="none" xmlns="http://www.w3.org/2000/svg">
<g clip-path="url(#clip0_2266_39195)">
<path fill-rule="evenodd" clip-rule="evenodd" d="M1.02011 3.49979L5.8781 6.20831C5.95377 6.2505 6.0459 6.2505 6.12158 6.20831L10.9798 3.49979L6.12157 0.791406C6.0459 0.749218 5.95377 0.749219 5.8781 0.791408L1.02011 3.49979ZM5.51287 6.86337C5.81558 7.03214 6.18408 7.03215 6.48679 6.86338L9.25 5.32286V7.17098C9.25 7.64374 8.9802 8.14533 8.3954 8.55888C7.81246 8.9711 6.96793 9.24969 6 9.24969C5.03207 9.24969 4.18754 8.9711 3.6046 8.55888C3.0198 8.14533 2.75 7.64374 2.75 7.17098V5.32297L5.51287 6.86337ZM11.7367 3.9365L10 4.90472V7.17098C10 8.73337 8.20914 9.9997 6 9.9997C3.79086 9.9997 2 8.73337 2 7.17098V4.90481L1.25 4.48666L1.25 9.83396C1.54562 9.97439 1.75 10.2757 1.75 10.6248C1.75 11.108 1.35825 11.4998 0.875 11.4998C0.391751 11.4998 0 11.108 0 10.6248C0 10.2757 0.204381 9.97439 0.5 9.83396L0.5 4.0685L0.263239 3.9365C-0.0787878 3.74581 -0.0787835 3.25376 0.263247 3.06307L5.51289 0.136335C5.81558 -0.0324208 6.18407 -0.0324243 6.48677 0.136326L11.7367 3.06307C12.0787 3.25375 12.0787 3.74581 11.7367 3.9365ZM6 4.24976C6.62132 4.24976 7.125 3.91397 7.125 3.49976C7.125 3.08554 6.62132 2.74976 6 2.74976C5.37868 2.74976 4.875 3.08554 4.875 3.49976C4.875 3.91397 5.37868 4.24976 6 4.24976Z" fill="#18202A"/>
</g>
<defs>
<clipPath id="clip0_2266_39195">
<rect width="12" height="12" fill="white"/>
</clipPath>
</defs>
</svg>
