<svg width="12" height="12" viewBox="0 0 12 12" fill="none" xmlns="http://www.w3.org/2000/svg">
<path fill-rule="evenodd" clip-rule="evenodd" d="M4.55985 4.25H7.44015L6 2.83059L4.55985 4.25ZM4.55985 7.75L6 9.16941L7.44015 7.75H4.55985ZM4.04602 5C3.56054 5 3.31741 4.42149 3.6607 4.08315L5.61468 2.15731C5.82749 1.94756 6.17251 1.94756 6.38532 2.15731L8.3393 4.08315C8.68259 4.42149 8.43946 5 7.95398 5H4.04602ZM4.04602 7C3.56054 7 3.31741 7.57851 3.6607 7.91685L5.61468 9.84269C5.82749 10.0524 6.17251 10.0524 6.38532 9.84269L8.3393 7.91685C8.68259 7.57851 8.43946 7 7.95398 7H4.04602Z" fill="#18202A"/>
</svg>
