<svg width="12" height="12" viewBox="0 0 12 12" fill="none" xmlns="http://www.w3.org/2000/svg">
<g clip-path="url(#clip0_2266_37431)">
<path d="M0 5.00006C0 4.17163 0.671573 3.50006 1.5 3.50006H2V8.50006H1.5C0.671573 8.50006 0 7.82849 0 7.00006V5.00006Z" fill="#18202A"/>
<path d="M3 8.95706V3.04308L5.4067 0.843449C6.20889 0.110282 7.5 0.679381 7.5 1.76614V10.2341C7.5 11.3209 6.20886 11.89 5.40668 11.1568L3 8.95706Z" fill="#18202A"/>
<path d="M11.8842 4.88305C12.0617 4.67151 12.0341 4.35614 11.8225 4.17863C11.611 4.00113 11.2956 4.02873 11.1181 4.24026L10.2156 5.31588L9.31303 4.24026C9.13553 4.02873 8.82015 4.00113 8.60861 4.17863C8.39708 4.35614 8.36948 4.67151 8.54699 4.88305L9.56288 6.09374L8.54698 7.30444C8.36948 7.51598 8.39707 7.83136 8.60861 8.00886C8.82015 8.18636 9.13553 8.15877 9.31303 7.94723L10.2156 6.87161L11.1181 7.94723C11.2956 8.15877 11.611 8.18636 11.8226 8.00886C12.0341 7.83136 12.0617 7.51598 11.8842 7.30444L10.8683 6.09374L11.8842 4.88305Z" fill="#18202A"/>
</g>
<defs>
<clipPath id="clip0_2266_37431">
<rect width="12" height="12" fill="white"/>
</clipPath>
</defs>
</svg>
