<svg width="12" height="12" viewBox="0 0 12 12" fill="none" xmlns="http://www.w3.org/2000/svg">
<path d="M7.5 6.5C7.5 7.32843 6.82843 8 6 8C5.17157 8 4.5 7.32843 4.5 6.5C4.5 5.67157 5.17157 5 6 5C6.82843 5 7.5 5.67157 7.5 6.5Z" fill="#18202A"/>
<path fill-rule="evenodd" clip-rule="evenodd" d="M9.03479 2C8.95254 1.99999 8.87157 1.97969 8.79905 1.9409C8.72648 1.90208 8.66461 1.84596 8.61894 1.7775L8.21294 1.168C8.07597 0.962533 7.8904 0.794058 7.67269 0.677528C7.45498 0.560998 7.21187 0.500018 6.96494 0.5H5.03494C4.788 0.500018 4.5449 0.560998 4.32719 0.677528C4.10948 0.794058 3.9239 0.962533 3.78694 1.168L3.38094 1.7775C3.33526 1.84596 3.2734 1.90208 3.20083 1.9409C3.12831 1.97969 3.04733 1.99999 2.96509 2H3C1.61929 2 0.5 3.11929 0.5 4.5V8.5C0.5 9.88071 1.61929 11 3 11H9C10.3807 11 11.5 9.88071 11.5 8.5V4.5C11.5 3.11929 10.3807 2 9 2H9.03479ZM8.5 6.5C8.5 7.88071 7.38071 9 6 9C4.61929 9 3.5 7.88071 3.5 6.5C3.5 5.11929 4.61929 4 6 4C7.38071 4 8.5 5.11929 8.5 6.5Z" fill="#18202A"/>
</svg>
