<svg width="12" height="12" viewBox="0 0 12 12" fill="none" xmlns="http://www.w3.org/2000/svg">
<path fill-rule="evenodd" clip-rule="evenodd" d="M5.5 2.25C5.5 2.52614 5.72386 2.75 6 2.75C6.27614 2.75 6.5 2.52614 6.5 2.25C6.5 1.97386 6.27614 1.75 6 1.75C5.72386 1.75 5.5 1.97386 5.5 2.25ZM4.75 2.25C4.75 2.94036 5.30964 3.5 6 3.5C6.69036 3.5 7.25 2.94036 7.25 2.25C7.25 1.55964 6.69036 1 6 1C5.30964 1 4.75 1.55964 4.75 2.25Z" fill="#18202A"/>
<path fill-rule="evenodd" clip-rule="evenodd" d="M5.5 6C5.5 6.27614 5.72386 6.5 6 6.5C6.27614 6.5 6.5 6.27614 6.5 6C6.5 5.72386 6.27614 5.5 6 5.5C5.72386 5.5 5.5 5.72386 5.5 6ZM4.75 6C4.75 6.69036 5.30964 7.25 6 7.25C6.69036 7.25 7.25 6.69036 7.25 6C7.25 5.30964 6.69036 4.75 6 4.75C5.30964 4.75 4.75 5.30964 4.75 6Z" fill="#18202A"/>
<path fill-rule="evenodd" clip-rule="evenodd" d="M5.5 9.75C5.5 10.0261 5.72386 10.25 6 10.25C6.27614 10.25 6.5 10.0261 6.5 9.75C6.5 9.47386 6.27614 9.25 6 9.25C5.72386 9.25 5.5 9.47386 5.5 9.75ZM4.75 9.75C4.75 10.4404 5.30964 11 6 11C6.69036 11 7.25 10.4404 7.25 9.75C7.25 9.05964 6.69036 8.5 6 8.5C5.30964 8.5 4.75 9.05964 4.75 9.75Z" fill="#18202A"/>
</svg>
