<svg width="12" height="12" viewBox="0 0 12 12" fill="none" xmlns="http://www.w3.org/2000/svg">
<path fill-rule="evenodd" clip-rule="evenodd" d="M2.5 2C1.67157 2 1 2.67157 1 3.5V8C1 8.82843 1.67157 9.5 2.5 9.5H5.625V10.25H4.5C4.29289 10.25 4.125 10.4179 4.125 10.625C4.125 10.8321 4.29289 11 4.5 11H7.5C7.70711 11 7.875 10.8321 7.875 10.625C7.875 10.4179 7.70711 10.25 7.5 10.25H6.375V9.5H9.5C10.3284 9.5 11 8.82843 11 8V3.5C11 2.67157 10.3284 2 9.5 2H2.5ZM10.25 3.5C10.25 3.08579 9.91421 2.75 9.5 2.75H2.5C2.08579 2.75 1.75 3.08579 1.75 3.5V7H10.25V3.5ZM2.5 8.75C2.08579 8.75 1.75 8.41421 1.75 8V7.75H10.25V8C10.25 8.41421 9.91421 8.75 9.5 8.75H2.5Z" fill="#18202A"/>
</svg>
