<svg width="12" height="12" viewBox="0 0 12 12" fill="none" xmlns="http://www.w3.org/2000/svg">
<path fill-rule="evenodd" clip-rule="evenodd" d="M6.0799 1.55425C6.03359 1.51577 5.96643 1.51577 5.92012 1.55425L2.25001 4.60402V10.1252C2.25001 10.1943 2.30597 10.2502 2.37501 10.2502H4.37501V7.37524C4.37501 6.89199 4.76676 6.50024 5.25001 6.50024H6.75001C7.23326 6.50024 7.62501 6.89199 7.62501 7.37524V10.2502H9.62501C9.69404 10.2502 9.75001 10.1943 9.75001 10.1252V4.60401L6.0799 1.55425ZM10.5 5.22724L11.2603 5.85906C11.4196 5.99143 11.6561 5.9696 11.7884 5.81031C11.9208 5.65102 11.899 5.41459 11.7397 5.28223L6.55923 0.977417C6.23507 0.708049 5.76495 0.708049 5.44079 0.977416L0.260343 5.28223C0.101054 5.41459 0.0792277 5.65102 0.211592 5.81031C0.343957 5.9696 0.580388 5.99143 0.739677 5.85906L1.50001 5.22725V10.1252C1.50001 10.6085 1.89176 11.0002 2.37501 11.0002H9.62501C10.1083 11.0002 10.5 10.6085 10.5 10.1252V5.22724ZM6.87501 10.2502V7.37524C6.87501 7.30621 6.81904 7.25024 6.75001 7.25024H5.25001C5.18097 7.25024 5.12501 7.30621 5.12501 7.37524V10.2502H6.87501Z" fill="#18202A"/>
</svg>
