<svg width="12" height="12" viewBox="0 0 12 12" fill="none" xmlns="http://www.w3.org/2000/svg">
<g clip-path="url(#clip0_2266_37903)">
<path fill-rule="evenodd" clip-rule="evenodd" d="M8 2.6875C8 4.25 7.33333 5.5 6 5.5C4.66667 5.5 4 4.25 4 2.6875C4 1.4375 4.66667 0.5 6 0.5C7.33333 0.5 8 1.4375 8 2.6875ZM6.7676 6.55855C6.51738 6.52 6.26103 6.5 6.00002 6.5C4.75252 6.5 3.61173 6.95686 2.73583 7.7124C2.06847 8.28806 1.93547 9.25568 2.32658 10.0455L2.34993 10.0922C2.63285 10.6543 3.14945 11.0626 3.75897 11.2188C4.3843 11.379 5.03589 11.4738 5.70597 11.4953C5.57347 11.1903 5.5 10.8537 5.5 10.5C5.5 9.86168 5.73922 9.27924 6.13291 8.83744C6.34214 8.60264 6.5 8.3145 6.5 8C6.5 7.49181 6.59477 7.00576 6.7676 6.55855ZM7.5 9C6.94771 9 6.5 9.44772 6.5 10V11C6.5 11.5523 6.94771 12 7.5 12H9.5C10.0523 12 10.5 11.5523 10.5 11V10C10.5 9.62341 10.2918 9.29543 9.98428 9.12488C9.99454 9.08496 10 9.04312 10 9V8C10 7.72386 10.2239 7.5 10.5 7.5C10.7761 7.5 11 7.72386 11 8V8.66667C11 8.94281 11.2239 9.16667 11.5 9.16667C11.7761 9.16667 12 8.94281 12 8.66667V8C12 7.17157 11.3284 6.5 10.5 6.5C9.67157 6.5 9 7.17157 9 8V9L7.5 9ZM9 10.25C9 9.97386 8.77614 9.75 8.5 9.75C8.22386 9.75 8 9.97386 8 10.25V10.75C8 11.0261 8.22386 11.25 8.5 11.25C8.77614 11.25 9 11.0261 9 10.75V10.25Z" fill="#18202A"/>
</g>
<defs>
<clipPath id="clip0_2266_37903">
<rect width="12" height="12" fill="white"/>
</clipPath>
</defs>
</svg>
