<svg width="12" height="12" viewBox="0 0 12 12" fill="none" xmlns="http://www.w3.org/2000/svg">
<g clip-path="url(#clip0_3906_9130)">
<path fill-rule="evenodd" clip-rule="evenodd" d="M0.5 3.5C0.5 2.39543 1.39543 1.5 2.5 1.5H4.37868C4.7765 1.5 5.15804 1.65804 5.43934 1.93934L6 2.5H9.5C10.6046 2.5 11.5 3.39543 11.5 4.5V8.5C11.5 9.60457 10.6046 10.5 9.5 10.5H2.5C1.39543 10.5 0.5 9.60457 0.5 8.5V3.5ZM8.24999 6.27273C8.84955 6.27273 9.14932 5.70455 9.14932 4.99432C9.14932 4.42614 8.84955 4 8.24999 4C7.65044 4 7.35067 4.42614 7.35067 4.99432C7.35067 5.70455 7.65044 6.27273 8.24999 6.27273ZM6.78222 7.27836C6.8449 7.22371 6.9106 7.17249 6.97903 7.125C7.34057 6.8741 7.77833 6.72727 8.25 6.72727C8.63196 6.72727 8.99167 6.82355 9.30668 6.99341C9.4543 7.07301 9.5921 7.16877 9.71778 7.27835C9.75303 7.30908 9.78496 7.34228 9.81359 7.37751C10.0287 7.64222 10.057 8.02201 9.90181 8.33885L9.89663 8.34938L9.8913 8.36011C9.76408 8.61558 9.53179 8.80116 9.25771 8.87216C8.93555 8.95562 8.5979 9 8.25 9C7.90209 9 7.56444 8.95562 7.24228 8.87216C6.9682 8.80116 6.73591 8.61558 6.60869 8.36011L6.59819 8.33886C6.50679 8.15228 6.47905 7.94388 6.5156 7.75C6.54938 7.57082 6.63809 7.40404 6.78222 7.27836Z" fill="#18202A"/>
</g>
<defs>
<clipPath id="clip0_3906_9130">
<rect width="12" height="12" fill="white"/>
</clipPath>
</defs>
</svg>
