<svg width="12" height="12" viewBox="0 0 12 12" fill="none" xmlns="http://www.w3.org/2000/svg">
<path d="M4.5 1.5C4.5 1.22386 4.72386 1 5 1H7C7.27614 1 7.5 1.22386 7.5 1.5C7.5 1.77614 7.27614 2 7 2H6.5V10H7C7.27614 10 7.5 10.2239 7.5 10.5C7.5 10.7761 7.27614 11 7 11H5C4.72386 11 4.5 10.7761 4.5 10.5C4.5 10.2239 4.72386 10 5 10H5.5V2H5C4.72386 2 4.5 1.77614 4.5 1.5Z" fill="#18202A"/>
<path d="M1 4C1 3.17157 1.67157 2.5 2.5 2.5H5V9.5H2.5C1.67157 9.5 1 8.82843 1 8V4Z" fill="#18202A"/>
<path d="M11 4C11 3.17157 10.3284 2.5 9.5 2.5H7V9.5H9.5C10.3284 9.5 11 8.82843 11 8V4Z" fill="#18202A"/>
</svg>
