<svg width="12" height="12" viewBox="0 0 12 12" fill="none" xmlns="http://www.w3.org/2000/svg">
<path fill-rule="evenodd" clip-rule="evenodd" d="M6 5.5C7.33333 5.5 8 4.25 8 2.6875C8 1.4375 7.33333 0.5 6 0.5C4.66667 0.5 4 1.4375 4 2.6875C4 4.25 4.66667 5.5 6 5.5ZM6.00002 6.5C6.48638 6.5 6.95651 6.56944 7.40106 6.69895C6.55034 7.33744 6 8.35445 6 9.5C6 10.2347 6.22635 10.9165 6.61312 11.4794C6.41051 11.4931 6.20607 11.5 6.00001 11.5C5.22631 11.5 4.47541 11.4024 3.75897 11.2188C3.14945 11.0626 2.63285 10.6543 2.34993 10.0922L2.32658 10.0455C1.93547 9.25568 2.06847 8.28806 2.73583 7.7124C3.61173 6.95686 4.75252 6.5 6.00002 6.5ZM12 9.5C12 10.8807 10.8807 12 9.5 12C8.11929 12 7 10.8807 7 9.5C7 8.11929 8.11929 7 9.5 7C10.8807 7 12 8.11929 12 9.5ZM10.994 8.46528C11.1513 8.60006 11.1695 8.8368 11.0347 8.99405L9.53471 10.744C9.4061 10.8941 9.1831 10.9186 9.02499 10.8L8.02499 10.05C7.85931 9.92574 7.82573 9.69068 7.94999 9.525C8.07426 9.35931 8.30931 9.32574 8.47499 9.45L9.19392 9.98919L10.4653 8.50595C10.6001 8.34871 10.8368 8.33049 10.994 8.46528Z" fill="#18202A"/>
</svg>
