<svg width="12" height="12" viewBox="0 0 12 12" fill="none" xmlns="http://www.w3.org/2000/svg">
<path fill-rule="evenodd" clip-rule="evenodd" d="M9.99507 3.37756C9.93277 2.6064 9.2872 2 8.5 2H3.5C2.7128 2 2.06722 2.6064 2.00493 3.37756C1.72378 3.62698 1.53701 3.98042 1.50493 4.37756C1.19519 4.65235 1 5.05338 1 5.5V9.5C1 10.3284 1.67157 11 2.5 11H9.5C10.3284 11 11 10.3284 11 9.5V5.5C11 5.05338 10.8048 4.65235 10.4951 4.37756C10.463 3.98042 10.2762 3.62698 9.99507 3.37756ZM9.06008 3.00118C8.92272 2.84706 8.7227 2.75 8.5 2.75H3.5C3.27731 2.75 3.07728 2.84706 2.93992 3.00118C2.95985 3.0004 2.97988 3 3 3H9C9.02012 3 9.04016 3.0004 9.06008 3.00118ZM2.5 4C2.47988 4 2.45985 4.0004 2.43992 4.00118C2.57728 3.84706 2.77731 3.75 3 3.75H9C9.2227 3.75 9.42272 3.84706 9.56008 4.00118C9.54016 4.0004 9.52012 4 9.5 4H2.5ZM8.36208 6.34483C8.55252 6.14486 8.5448 5.82837 8.34484 5.63793C8.14487 5.44749 7.82838 5.45521 7.63794 5.65517L5.1624 8.25449L4.37964 7.34127C4.19993 7.13161 3.88428 7.10733 3.67461 7.28704C3.46495 7.46675 3.44067 7.7824 3.62038 7.99206L4.76324 9.3254C4.85526 9.43275 4.98843 9.49613 5.12977 9.49983C5.27112 9.50353 5.40742 9.44722 5.50494 9.34483L8.36208 6.34483Z" fill="#18202A"/>
</svg>
