<svg width="12" height="12" viewBox="0 0 12 12" fill="none" xmlns="http://www.w3.org/2000/svg">
<g clip-path="url(#clip0_2266_37623)">
<path fill-rule="evenodd" clip-rule="evenodd" d="M0.5 2.5C0.5 1.39543 1.39543 0.5 2.5 0.5H9.5C10.6046 0.5 11.5 1.39543 11.5 2.5V9.5C11.5 10.6046 10.6046 11.5 9.5 11.5H2.5C1.39543 11.5 0.5 10.6046 0.5 9.5V2.5ZM6 5.5C6.66667 5.5 7 4.875 7 4.09375C7 3.46875 6.66667 3 6 3C5.33333 3 5 3.46875 5 4.09375C5 4.875 5.33333 5.5 6 5.5ZM3.25 5.5C3.75 5.5 4 5 4 4.375C4 3.875 3.75 3.5 3.25 3.5C2.75 3.5 2.5 3.875 2.5 4.375C2.5 5 2.75 5.5 3.25 5.5ZM9.5 4.375C9.5 5 9.25 5.5 8.75 5.5C8.25 5.5 8 5 8 4.375C8 3.875 8.25 3.5 8.75 3.5C9.25 3.5 9.5 3.875 9.5 4.375ZM4.0564 6.10884C4.09433 6.08252 4.13281 6.05695 4.17181 6.03214C4.01037 6.0046 3.84416 5.99023 3.67444 5.99023C3.20457 5.99023 2.76158 6.10038 2.37214 6.29516C2.04156 6.4605 1.90254 6.84797 2.01289 7.20074C2.03432 7.26924 2.05714 7.33717 2.08131 7.4045C2.18657 7.6977 2.44811 7.90454 2.75667 7.9474C3.01835 7.98374 3.28522 8.00477 3.55625 8.00952C3.53917 7.96216 3.52267 7.91452 3.50677 7.8666C3.30267 7.25154 3.46978 6.51591 4.0564 6.10884ZM8.44451 8.00785C8.46138 7.96104 8.47768 7.91395 8.4934 7.86658C8.69748 7.25154 8.53037 6.51592 7.94376 6.10886C7.90112 6.07927 7.85778 6.05062 7.81378 6.02294C7.95715 6.00141 8.10411 5.99023 8.2538 5.99023C8.75933 5.99023 9.23374 6.11773 9.64383 6.34096C9.96224 6.51428 10.0902 6.89584 9.97914 7.24095C9.96304 7.29098 9.94619 7.34071 9.92862 7.39011C9.82534 7.68051 9.56868 7.88717 9.26402 7.93389C8.99609 7.97498 8.72255 7.99999 8.44451 8.00785ZM7.79568 8.27274C7.63369 8.62263 7.30695 8.86729 6.92626 8.92844C6.62452 8.9769 6.31518 9.00206 6.00006 9.00206C5.68496 9.00206 5.37563 8.9769 5.0739 8.92844C4.69322 8.86731 4.36648 8.62265 4.20448 8.27277C4.12001 8.09031 4.04538 7.90219 3.98131 7.70912C3.83639 7.27241 3.96341 6.78195 4.34144 6.51963C4.814 6.19171 5.38504 6 6.00006 6C6.61509 6 7.18613 6.19171 7.6587 6.51964C8.03672 6.78196 8.16374 7.27241 8.01883 7.70911C7.95477 7.90218 7.88015 8.09029 7.79568 8.27274Z" fill="#18202A"/>
</g>
<defs>
<clipPath id="clip0_2266_37623">
<rect width="12" height="12" fill="white"/>
</clipPath>
</defs>
</svg>
