<svg width="12" height="12" viewBox="0 0 12 12" fill="none" xmlns="http://www.w3.org/2000/svg">
<path fill-rule="evenodd" clip-rule="evenodd" d="M5.76517 3.26517C5.91161 3.11872 5.91161 2.88128 5.76517 2.73483C5.61872 2.58839 5.38128 2.58839 5.23483 2.73483L2.23483 5.73483C2.08839 5.88128 2.08839 6.11872 2.23483 6.26517L5.23483 9.26516C5.38128 9.41161 5.61872 9.41161 5.76517 9.26516C5.91161 9.11872 5.91161 8.88128 5.76517 8.73484L3.03033 6L5.76517 3.26517ZM9.75 3.26517C9.89645 3.11872 9.89645 2.88128 9.75 2.73483C9.60355 2.58839 9.36612 2.58839 9.21967 2.73483L6.21967 5.73483C6.07322 5.88128 6.07322 6.11872 6.21967 6.26517L9.21967 9.26516C9.36612 9.41161 9.60355 9.41161 9.75 9.26516C9.89645 9.11872 9.89645 8.88128 9.75 8.73484L7.01517 6L9.75 3.26517Z" fill="#18202A"/>
</svg>
