<svg width="12" height="12" viewBox="0 0 12 12" fill="none" xmlns="http://www.w3.org/2000/svg">
<g clip-path="url(#clip0_2266_36810)">
<path fill-rule="evenodd" clip-rule="evenodd" d="M11.5 1.50004C11.2239 1.50004 11 1.7239 11 2.00004V4.50004H8.5C8.22386 4.50004 8 4.7239 8 5.00004C8 5.27618 8.22386 5.50004 8.5 5.50004H11.5C11.7761 5.50004 12 5.27618 12 5.00004V2.00004C12 1.7239 11.7761 1.50004 11.5 1.50004Z" fill="#18202A"/>
<path fill-rule="evenodd" clip-rule="evenodd" d="M4 7.00004C4 6.7239 3.77614 6.50004 3.5 6.50004H0.499999C0.223856 6.50004 -9.53674e-07 6.7239 -9.53674e-07 7.00004V10C-9.53674e-07 10.2762 0.223856 10.5 0.499999 10.5C0.776141 10.5 0.999999 10.2762 0.999999 10V7.50004H3.5C3.77614 7.50004 4 7.27618 4 7.00004Z" fill="#18202A"/>
<path fill-rule="evenodd" clip-rule="evenodd" d="M7.38652 1.19811C6.57517 0.963429 5.71759 0.938101 4.8938 1.12449C4.07001 1.31089 3.30686 1.70293 2.67557 2.26403C2.04427 2.82513 1.5654 3.53701 1.28364 4.33324C1.19152 4.59356 1.32788 4.87928 1.5882 4.9714C1.84853 5.06352 2.13424 4.92716 2.22636 4.66684C2.45177 4.02985 2.83486 3.46035 3.3399 3.01147C3.84493 2.56258 4.45545 2.24895 5.11448 2.09984C5.77352 1.95073 6.45958 1.97099 7.10866 2.15874C7.75775 2.34648 8.34869 2.6956 8.82636 3.1735C8.83005 3.1772 8.8338 3.18084 8.83761 3.18441L11.1576 5.36441C11.3588 5.55351 11.6753 5.54367 11.8644 5.34243C12.0535 5.14119 12.0436 4.82476 11.8424 4.63566L9.52795 2.46089C8.93187 1.86642 8.1953 1.43205 7.38652 1.19811ZM0.135623 6.65765C-0.0534735 6.85889 -0.0436287 7.17532 0.157611 7.36441L2.47206 9.5392C3.06814 10.1337 3.8047 10.568 4.61347 10.802C5.42483 11.0366 6.28241 11.062 7.1062 10.8756C7.92999 10.6892 8.69313 10.2971 9.32443 9.73605C9.95573 9.17494 10.4346 8.46307 10.7164 7.66684C10.8085 7.40651 10.6721 7.1208 10.4118 7.02868C10.1515 6.93656 9.86576 7.07292 9.77364 7.33324C9.54823 7.97022 9.16514 8.53973 8.6601 8.98861C8.15506 9.43749 7.54454 9.75112 6.88551 9.90024C6.22648 10.0494 5.54042 10.0291 4.89133 9.84134C4.24225 9.65359 3.65131 9.30448 3.17364 8.82657C3.17142 8.82435 3.16918 8.82215 3.16691 8.81997C3.16541 8.81852 3.16391 8.81709 3.16239 8.81566L0.842387 6.63566C0.641148 6.44657 0.324718 6.45641 0.135623 6.65765Z" fill="#18202A"/>
</g>
<defs>
<clipPath id="clip0_2266_36810">
<rect width="12" height="12" fill="white"/>
</clipPath>
</defs>
</svg>
