<svg width="12" height="12" viewBox="0 0 12 12" fill="none" xmlns="http://www.w3.org/2000/svg">
<path fill-rule="evenodd" clip-rule="evenodd" d="M2.38835 1.68062C2.16713 1.4594 1.82937 1.43849 1.63393 1.63393C1.43849 1.82937 1.4594 2.16713 1.68062 2.38835L2.83957 3.54731C2.73807 3.51646 2.62486 3.5 2.49995 3.5C1.83329 3.5 1.49995 3.96875 1.49995 4.59375C1.49995 5.375 1.83329 6 2.49995 6C3.16662 6 3.49995 5.375 3.49995 4.59375C3.49995 4.42925 3.47686 4.27557 3.43068 4.13842L5.79677 6.50451C4.98174 6.54072 4.22308 6.79374 3.57707 7.20729C2.9222 7.6265 2.70309 8.46185 2.96489 9.19401C3.04145 9.40813 3.12688 9.61804 3.22074 9.82328C3.48671 10.4049 4.03281 10.8077 4.66544 10.9017C5.10088 10.9665 5.5465 11 5.99995 11C6.4534 11 6.89902 10.9665 7.33446 10.9017C7.96709 10.8077 8.51319 10.4049 8.77917 9.82328C8.81452 9.74596 8.84868 9.66798 8.88163 9.58936L9.61164 10.3194C9.83287 10.5406 10.1706 10.5615 10.3661 10.3661C10.5615 10.1706 10.5406 9.83287 10.3194 9.61164L2.38835 1.68062ZM7.24193 5.12279L4.76979 2.65065C5.01404 2.24871 5.42409 2 5.99995 2C6.99995 2 7.49995 2.75 7.49995 3.75C7.49995 4.26844 7.41395 4.74387 7.24193 5.12279ZM9.6586 7.02587C9.85917 7.30756 9.99585 7.6234 10.0712 7.9521L11.4425 9.32334C11.5175 9.21479 11.5777 9.09427 11.6198 8.96407C11.806 8.38825 11.5993 7.74098 11.0639 7.4589C10.6355 7.23321 10.1612 7.08297 9.6586 7.02587ZM9.49995 6C10.1666 6 10.5 5.375 10.5 4.59375C10.5 3.96875 10.1666 3.5 9.49995 3.5C8.83329 3.5 8.49995 3.96875 8.49995 4.59375C8.49995 5.375 8.83329 6 9.49995 6ZM2.02328 9.53081C1.72953 8.70929 1.82295 7.74553 2.34917 7.01489C1.87184 7.05584 1.41846 7.18061 1.0038 7.37442C0.420274 7.64717 0.184812 8.33603 0.381815 8.94929C0.55418 9.48585 1.02225 9.86279 1.58157 9.93184C1.78584 9.95705 1.99223 9.97542 2.2005 9.98672C2.13745 9.83678 2.07833 9.68477 2.02328 9.53081Z" fill="#18202A"/>
</svg>
