<svg width="12" height="12" viewBox="0 0 12 12" fill="none" xmlns="http://www.w3.org/2000/svg">
<path fill-rule="evenodd" clip-rule="evenodd" d="M4 2C3.72386 2 3.5 2.22386 3.5 2.5V9.5C3.5 9.77614 3.72386 10 4 10H7.25C8.49264 10 9.5 8.99264 9.5 7.75C9.5 6.77875 8.88461 5.95124 8.02247 5.63611C8.32165 5.25407 8.5 4.77286 8.5 4.25C8.5 3.00736 7.49264 2 6.25 2H4ZM6.25 5.5C6.94036 5.5 7.5 4.94036 7.5 4.25C7.5 3.55964 6.94036 3 6.25 3H4.5V5.5H6.25ZM8.5 7.75C8.5 7.05964 7.94036 6.5 7.25 6.5H4.5V9H7.25C7.94036 9 8.5 8.44036 8.5 7.75Z" fill="#18202A"/>
</svg>
