<svg width="12" height="12" viewBox="0 0 12 12" fill="none" xmlns="http://www.w3.org/2000/svg">
<g clip-path="url(#clip0_2266_36573)">
<path d="M5.81255 0.527432C5.91031 0.498171 6.01354 0.492319 6.11349 0.509876L6.1877 0.527432L11.0582 1.99241C11.321 2.07162 11.5002 2.3061 11.5 2.57133C11.5 9.05835 8.0974 10.6091 6.26895 11.4418C6.18395 11.4806 6.09215 11.5 6.00015 11.5C5.9081 11.5 5.81605 11.4806 5.7308 11.4418L5.46599 11.3205C3.59346 10.4539 0.5 8.75663 0.5 2.57133C0.5 2.32797 0.650659 2.11067 0.878181 2.01532L0.942082 1.99241L5.81255 0.527432ZM6.0005 1.515L1.5025 2.868L1.50674 3.056C1.57393 5.43451 2.1415 7.14443 3.10249 8.36812L3.1999 8.48888C3.89169 9.32391 4.57502 9.79012 5.78432 10.3641L6 10.4645L6.0384 10.4472C7.29928 9.86201 8.00895 9.40688 8.70124 8.60581L8.80008 8.48897C9.8201 7.25776 10.4238 5.51383 10.4933 3.05522L10.497 2.868L6.0005 1.515Z" fill="#18202A"/>
<path fill-rule="evenodd" clip-rule="evenodd" d="M2.50755 3.71404L2.5 3.602L5.9665 2.559L9.4315 3.6015L9.42445 3.71294C9.2815 5.58698 8.77551 6.91012 7.99602 7.851L7.90918 7.95351C7.41618 8.52225 6.9018 8.88956 6.05925 9.31149L5.966 9.3575L5.70876 9.22791C4.91479 8.81532 4.42387 8.43984 3.93596 7.85091L3.84724 7.74064C3.1181 6.80745 2.645 5.5149 2.50755 3.71404Z" fill="#18202A"/>
</g>
<defs>
<clipPath id="clip0_2266_36573">
<rect width="12" height="12" fill="white"/>
</clipPath>
</defs>
</svg>
