<svg width="12" height="12" viewBox="0 0 12 12" fill="none" xmlns="http://www.w3.org/2000/svg">
<g clip-path="url(#clip0_2266_35186)">
<path fill-rule="evenodd" clip-rule="evenodd" d="M3 0.875C3 0.667893 3.16789 0.5 3.375 0.5C3.58211 0.5 3.75 0.667893 3.75 0.875V1.5H8.25V0.875C8.25 0.667893 8.41789 0.5 8.625 0.5C8.83211 0.5 9 0.667893 9 0.875V1.5H9.5C10.6046 1.5 11.5 2.39543 11.5 3.5V5.69237C11.2665 5.53325 11.0153 5.39819 10.75 5.29079V3.5C10.75 2.80964 10.1904 2.25 9.5 2.25H9V3.125C9 3.33211 8.83211 3.5 8.625 3.5C8.41789 3.5 8.25 3.33211 8.25 3.125V2.25H3.75V3.125C3.75 3.33211 3.58211 3.5 3.375 3.5C3.16789 3.5 3 3.33211 3 3.125V2.25H2.5C1.80964 2.25 1.25 2.80964 1.25 3.5V9.5C1.25 10.1904 1.80964 10.75 2.5 10.75H5.6521C5.78277 11.0182 5.94254 11.2695 6.12729 11.5H2.5C1.39543 11.5 0.5 10.6046 0.5 9.5V3.5C0.5 2.39543 1.39543 1.5 2.5 1.5H3V0.875ZM5 8.5C5.10021 8.5 5.19353 8.52948 5.27176 8.58023C5.25738 8.7182 5.25 8.85825 5.25 9.00003C5.25 9.14179 5.25737 9.28182 5.27176 9.41977C5.19352 9.47052 5.1002 9.5 5 9.5C4.72386 9.5 4.5 9.27614 4.5 9C4.5 8.72386 4.72386 8.5 5 8.5ZM2.5 4.875C2.5 4.66789 2.66789 4.5 2.875 4.5H9.125C9.33211 4.5 9.5 4.66789 9.5 4.875C9.5 5.08211 9.33211 5.25 9.125 5.25H2.875C2.66789 5.25 2.5 5.08211 2.5 4.875ZM3 6.5C2.72386 6.5 2.5 6.72386 2.5 7C2.5 7.27614 2.72386 7.5 3 7.5C3.27614 7.5 3.5 7.27614 3.5 7C3.5 6.72386 3.27614 6.5 3 6.5ZM2.5 9C2.5 8.72386 2.72386 8.5 3 8.5C3.27614 8.5 3.5 8.72386 3.5 9C3.5 9.27614 3.27614 9.5 3 9.5C2.72386 9.5 2.5 9.27614 2.5 9ZM5 6.5C4.72386 6.5 4.5 6.72386 4.5 7C4.5 7.27614 4.72386 7.5 5 7.5C5.27614 7.5 5.5 7.27614 5.5 7C5.5 6.72386 5.27614 6.5 5 6.5ZM9.20441 6C8.81333 6 8.478 6.27923 8.4072 6.66385L8.40432 6.67948C8.10433 6.78315 7.83071 6.94335 7.5962 7.14734L7.57985 7.14153C7.21136 7.01054 6.80188 7.16132 6.60634 7.50001C6.4108 7.83869 6.48495 8.2687 6.78264 8.52233L6.79604 8.53375C6.76701 8.6847 6.75181 8.84058 6.75181 9C6.75181 9.15943 6.76701 9.31531 6.79604 9.46627L6.78265 9.47768C6.48496 9.73131 6.4108 10.1613 6.60634 10.5C6.80188 10.8387 7.21136 10.9895 7.57985 10.8585L7.59621 10.8527C7.83072 11.0567 8.10434 11.2169 8.40432 11.3205L8.4072 11.3362C8.478 11.7208 8.81333 12 9.20441 12C9.59549 12 9.93081 11.7208 10.0016 11.3362L10.0042 11.322C10.3054 11.2185 10.58 11.0581 10.8154 10.8537L10.829 10.8585C11.1975 10.9895 11.6069 10.8387 11.8025 10.5C11.998 10.1613 11.9239 9.73131 11.6262 9.47768L11.6161 9.46911C11.6455 9.31727 11.6609 9.16043 11.6609 9C11.6609 8.83957 11.6455 8.68274 11.6161 8.5309L11.6262 8.52233C11.9239 8.2687 11.998 7.83869 11.8025 7.50001C11.607 7.16132 11.1975 7.01054 10.829 7.14153L10.8154 7.14636C10.58 6.94189 10.3054 6.7815 10.0042 6.67804L10.0016 6.66385C9.93081 6.27923 9.59549 6 9.20441 6ZM9.20409 10C9.75637 10 10.2041 9.55228 10.2041 9C10.2041 8.44771 9.75637 8 9.20409 8C8.6518 8 8.20409 8.44771 8.20409 9C8.20409 9.55228 8.6518 10 9.20409 10Z" fill="#18202A"/>
</g>
<defs>
<clipPath id="clip0_2266_35186">
<rect width="12" height="12" fill="white"/>
</clipPath>
</defs>
</svg>
