<svg width="12" height="12" viewBox="0 0 12 12" fill="none" xmlns="http://www.w3.org/2000/svg">
<path fill-rule="evenodd" clip-rule="evenodd" d="M7.76516 3.14016C7.61872 3.28661 7.38128 3.28661 7.23483 3.14016L6 1.90533L4.76517 3.14016C4.61872 3.28661 4.38128 3.28661 4.23484 3.14016C4.08839 2.99372 4.08839 2.75628 4.23484 2.60983L5.73484 1.10983C5.88128 0.963388 6.11872 0.963388 6.26517 1.10983L7.76516 2.60983C7.91161 2.75628 7.91161 2.99372 7.76516 3.14016ZM0.875 4.5C0.667893 4.5 0.5 4.66789 0.5 4.875C0.5 5.08211 0.667894 5.25 0.875 5.25H11.125C11.3321 5.25 11.5 5.08211 11.5 4.875C11.5 4.66789 11.3321 4.5 11.125 4.5H0.875ZM0.875 6.75C0.667893 6.75 0.5 6.91789 0.5 7.125C0.5 7.33211 0.667894 7.5 0.875 7.5H11.125C11.3321 7.5 11.5 7.33211 11.5 7.125C11.5 6.91789 11.3321 6.75 11.125 6.75H0.875ZM7.76516 9.39017C7.91161 9.24372 7.91161 9.00628 7.76516 8.85984C7.61872 8.71339 7.38128 8.71339 7.23484 8.85984L6 10.0947L4.76517 8.85983C4.61872 8.71339 4.38128 8.71339 4.23484 8.85983C4.08839 9.00628 4.08839 9.24372 4.23484 9.39017L5.73483 10.8902C5.88128 11.0366 6.11872 11.0366 6.26516 10.8902L7.76516 9.39017Z" fill="#18202A"/>
</svg>
