<svg width="12" height="12" viewBox="0 0 12 12" fill="none" xmlns="http://www.w3.org/2000/svg">
<path d="M6 0.5C5.44772 0.5 5 0.947715 5 1.5V3H7V1.5C7 0.947715 6.55228 0.5 6 0.5Z" fill="#18202A"/>
<path fill-rule="evenodd" clip-rule="evenodd" d="M5 4C4.44772 4 4 3.55228 4 3V2H2.5C1.39543 2 0.5 2.89543 0.5 4V9C0.5 10.1046 1.39543 11 2.5 11H9.5C10.6046 11 11.5 10.1046 11.5 9V4C11.5 2.89543 10.6046 2 9.5 2H8V3C8 3.55228 7.55228 4 7 4H5ZM4 7C4.55228 7 5 6.55228 5 6C5 5.44772 4.55228 5 4 5C3.44772 5 3 5.44772 3 6C3 6.55228 3.44772 7 4 7ZM3.625 7.5C3.00368 7.5 2.5 8.00368 2.5 8.625C2.5 8.83211 2.66789 9 2.875 9H5.125C5.33211 9 5.5 8.83211 5.5 8.625C5.5 8.00368 4.99632 7.5 4.375 7.5H3.625ZM7 6C7 5.72386 7.22386 5.5 7.5 5.5H9.5C9.77614 5.5 10 5.72386 10 6C10 6.27614 9.77614 6.5 9.5 6.5H7.5C7.22386 6.5 7 6.27614 7 6ZM7.5 7.5C7.22386 7.5 7 7.72386 7 8C7 8.27614 7.22386 8.5 7.5 8.5H9.5C9.77614 8.5 10 8.27614 10 8C10 7.72386 9.77614 7.5 9.5 7.5H7.5Z" fill="#18202A"/>
</svg>
