<svg width="12" height="12" viewBox="0 0 12 12" fill="none" xmlns="http://www.w3.org/2000/svg">
<path fill-rule="evenodd" clip-rule="evenodd" d="M1.63393 1.13393C1.82937 0.938493 2.16713 0.959396 2.38835 1.18062L10.3194 9.11164C10.5406 9.33287 10.5615 9.67063 10.3661 9.86607C10.1706 10.0615 9.83287 10.0406 9.61164 9.81938L1.68062 1.88835C1.4594 1.66713 1.43849 1.32937 1.63393 1.13393Z" fill="#18202A"/>
<path d="M8.06326 5.44421C8.46106 5.62466 8.83104 5.85567 9.165 6.12905C9.37867 6.30396 9.69382 6.30617 9.88908 6.11091C10.0843 5.91565 10.0856 5.59728 9.87485 5.41884C8.98594 4.66622 7.87506 4.16766 6.65432 4.03527L8.06326 5.44421Z" fill="#18202A"/>
<path d="M6.20913 5.00429L5.25112 4.04628C4.06758 4.19364 2.99105 4.6857 2.12514 5.41884C1.91439 5.59728 1.91564 5.91565 2.11091 6.11091C2.30617 6.30618 2.62132 6.30396 2.83499 6.12905C3.69702 5.42339 4.79907 5 6 5C6.07005 5 6.13977 5.00144 6.20913 5.00429Z" fill="#18202A"/>
<path d="M5.16501 2.54596C5.43915 2.51559 5.71775 2.5 6 2.5C7.89125 2.5 9.619 3.20003 10.9383 4.35511C11.146 4.53701 11.4616 4.53841 11.6568 4.34314C11.8521 4.14788 11.8531 3.83009 11.6467 3.64657C10.1453 2.31121 8.16739 1.5 6 1.5C5.4146 1.5 4.84302 1.55918 4.29093 1.67188L5.16501 2.54596Z" fill="#18202A"/>
<path d="M3.18281 1.97798L3.98 2.77517C2.88596 3.0804 1.89278 3.62747 1.0617 4.35511C0.853938 4.53701 0.538401 4.53841 0.343139 4.34315C0.147877 4.14789 0.146935 3.83009 0.353273 3.64657C1.17066 2.91958 2.12928 2.34794 3.18281 1.97798Z" fill="#18202A"/>
<path d="M8.09743 7.19782C8.31838 7.36346 8.31658 7.68342 8.12132 7.87868C7.92605 8.07394 7.61151 8.06884 7.38148 7.91605C6.98571 7.65316 6.51074 7.5 6 7.5C5.48925 7.5 5.01428 7.65316 4.61851 7.91605C4.38848 8.06884 4.07394 8.07394 3.87867 7.87868C3.68341 7.68342 3.68161 7.36346 3.90256 7.19782C4.48708 6.7596 5.21322 6.5 6 6.5C6.78677 6.5 7.51291 6.7596 8.09743 7.19782Z" fill="#18202A"/>
<path d="M6.99999 10C6.99999 10.5523 6.55228 11 5.99999 11C5.44771 11 4.99999 10.5523 4.99999 10C4.99999 9.44772 5.44771 9 5.99999 9C6.55228 9 6.99999 9.44772 6.99999 10Z" fill="#18202A"/>
</svg>
