<svg width="12" height="12" viewBox="0 0 12 12" fill="none" xmlns="http://www.w3.org/2000/svg">
<g clip-path="url(#clip0_2266_37365)">
<path d="M3 1C3 0.723858 3.22386 0.5 3.5 0.5H8.5C8.77614 0.5 9 0.723858 9 1C9 1.27614 8.77614 1.5 8.5 1.5H3.5C3.22386 1.5 3 1.27614 3 1Z" fill="#18202A"/>
<path d="M2.5 2C2.22386 2 2 2.22386 2 2.5C2 2.77614 2.22386 3 2.5 3H9.5C9.77614 3 10 2.77614 10 2.5C10 2.22386 9.77614 2 9.5 2H2.5Z" fill="#18202A"/>
<path fill-rule="evenodd" clip-rule="evenodd" d="M2.5 3.5C1.39543 3.5 0.5 4.39543 0.5 5.5V9C0.5 10.3807 1.61929 11.5 3 11.5H9C10.3807 11.5 11.5 10.3807 11.5 9V5.5C11.5 4.39543 10.6046 3.5 9.5 3.5H2.5ZM4.5 6.22221C4.5 5.85961 4.89189 5.63565 5.19992 5.8222L7.30563 7.09749C7.60479 7.27868 7.60479 7.71633 7.30563 7.89752L5.19992 9.17281C4.89189 9.35936 4.5 9.1354 4.5 8.7728V6.22221Z" fill="#18202A"/>
</g>
<defs>
<clipPath id="clip0_2266_37365">
<rect width="12" height="12" fill="white"/>
</clipPath>
</defs>
</svg>
