<svg width="12" height="12" viewBox="0 0 12 12" fill="none" xmlns="http://www.w3.org/2000/svg">
<path fill-rule="evenodd" clip-rule="evenodd" d="M2 2.875C2 2.66789 2.16789 2.5 2.375 2.5H9.625C10.6605 2.5 11.5 3.33947 11.5 4.375V6.5C11.5 6.70711 11.3321 6.875 11.125 6.875C10.9179 6.875 10.75 6.70711 10.75 6.5V4.375C10.75 3.75368 10.2463 3.25 9.625 3.25H2.375C2.16789 3.25 2 3.08211 2 2.875ZM0.875 4.625C1.08211 4.625 1.25 4.79289 1.25 5V9C1.25 9.62132 1.75368 10.125 2.375 10.125H9.625C10.2463 10.125 10.75 9.62132 10.75 9V7.5C10.75 7.29289 10.9179 7.125 11.125 7.125C11.3321 7.125 11.5 7.29289 11.5 7.5V9C11.5 10.0355 10.6605 10.875 9.625 10.875H2.375C1.33947 10.875 0.5 10.0355 0.5 9V5C0.5 4.79289 0.667893 4.625 0.875 4.625Z" fill="#18202A"/>
<path fill-rule="evenodd" clip-rule="evenodd" d="M0.5 2.875C0.5 1.83947 1.33947 1 2.375 1H8.375C9.13439 1 9.75 1.61561 9.75 2.375V2.875C9.75 3.08211 9.58211 3.25 9.375 3.25C9.16789 3.25 9 3.08211 9 2.875V2.375C9 2.02982 8.72018 1.75 8.375 1.75H2.375C1.75368 1.75 1.25 2.25368 1.25 2.875V4.875C1.25 5.08211 1.08211 5.25 0.875 5.25C0.667893 5.25 0.5 5.08211 0.5 4.875V2.875Z" fill="#18202A"/>
<path fill-rule="evenodd" clip-rule="evenodd" d="M5.625 6.375C5.625 5.61561 6.24061 5 7 5H10.625C11.1082 5 11.5 5.39175 11.5 5.875V8.125C11.5 8.60825 11.1082 9 10.625 9H7C6.24061 9 5.625 8.38439 5.625 7.625V6.375ZM7 5.75C6.65482 5.75 6.375 6.02982 6.375 6.375V7.625C6.375 7.97018 6.65482 8.25 7 8.25H10.625C10.694 8.25 10.75 8.19404 10.75 8.125V5.875C10.75 5.80596 10.694 5.75 10.625 5.75H7Z" fill="#18202A"/>
<path d="M8 7C8 7.27614 7.77614 7.5 7.5 7.5C7.22386 7.5 7 7.27614 7 7C7 6.72386 7.22386 6.5 7.5 6.5C7.77614 6.5 8 6.72386 8 7Z" fill="#18202A"/>
</svg>
