<svg width="12" height="12" viewBox="0 0 12 12" fill="none" xmlns="http://www.w3.org/2000/svg">
<g clip-path="url(#clip0_2266_37197)">
<path fill-rule="evenodd" clip-rule="evenodd" d="M11.5 6C11.5 2.96243 9.03757 0.5 6 0.5C2.96243 0.5 0.5 2.96243 0.5 6C0.5 9.03757 2.96243 11.5 6 11.5C9.03757 11.5 11.5 9.03757 11.5 6ZM3.64645 5.14645C3.45118 5.34171 3.45118 5.65829 3.64645 5.85355C3.84171 6.04882 4.15829 6.04882 4.35355 5.85355L5.5 4.70711V8.5C5.5 8.77614 5.72386 9 6 9C6.27614 9 6.5 8.77614 6.5 8.5V4.70711L7.64645 5.85355C7.84171 6.04882 8.15829 6.04882 8.35355 5.85355C8.54882 5.65829 8.54882 5.34171 8.35355 5.14645L6.35355 3.14645C6.15829 2.95118 5.84171 2.95118 5.64645 3.14645L3.64645 5.14645Z" fill="#18202A"/>
</g>
<defs>
<clipPath id="clip0_2266_37197">
<rect width="12" height="12" fill="white"/>
</clipPath>
</defs>
</svg>
