<svg width="12" height="12" viewBox="0 0 12 12" fill="none" xmlns="http://www.w3.org/2000/svg">
<path fill-rule="evenodd" clip-rule="evenodd" d="M1.96967 1.96967C2.26256 1.67678 2.73744 1.67678 3.03033 1.96967L6 4.93934L8.96967 1.96967C9.26256 1.67678 9.73744 1.67678 10.0303 1.96967C10.3232 2.26256 10.3232 2.73744 10.0303 3.03033L7.06066 6L10.0303 8.96967C10.3232 9.26256 10.3232 9.73744 10.0303 10.0303C9.73744 10.3232 9.26256 10.3232 8.96967 10.0303L6 7.06066L3.03033 10.0303C2.73744 10.3232 2.26256 10.3232 1.96967 10.0303C1.67678 9.73744 1.67678 9.26256 1.96967 8.96967L4.93934 6L1.96967 3.03033C1.67678 2.73744 1.67678 2.26256 1.96967 1.96967Z" fill="#18202A"/>
</svg>
