<svg width="12" height="12" viewBox="0 0 12 12" fill="none" xmlns="http://www.w3.org/2000/svg">
<g clip-path="url(#clip0_3379_9211)">
<g clip-path="url(#clip1_3379_9211)">
<path d="M4 0.5C3.44772 0.5 3 0.947715 3 1.5V2.5C3 2.97826 3.22383 3.40424 3.57245 3.67891C4.00626 4.0207 4.5 4.44772 4.5 5V6C4.5 6.55228 4.05228 7 3.5 7H2.64286C1.45939 7 0.5 7.95939 0.5 9.14286C0.5 9.61624 0.883756 10 1.35714 10H10.6429C11.1162 10 11.5 9.61624 11.5 9.14286C11.5 7.95939 10.5406 7 9.35714 7H8.5C7.94772 7 7.5 6.55228 7.5 6V5C7.5 4.44772 7.99374 4.0207 8.42755 3.67891C8.77617 3.40424 9 2.97826 9 2.5V1.5C9 0.947715 8.55228 0.5 8 0.5H4Z" fill="#18202A"/>
<path d="M1 11C1 10.7239 1.22386 10.5 1.5 10.5H10.5C10.7761 10.5 11 10.7239 11 11C11 11.2761 10.7761 11.5 10.5 11.5H1.5C1.22386 11.5 1 11.2761 1 11Z" fill="#18202A"/>
</g>
</g>
<defs>
<clipPath id="clip0_3379_9211">
<rect width="12" height="12" fill="white"/>
</clipPath>
<clipPath id="clip1_3379_9211">
<rect width="12" height="12" fill="white"/>
</clipPath>
</defs>
</svg>
