<svg width="12" height="12" viewBox="0 0 12 12" fill="none" xmlns="http://www.w3.org/2000/svg">
<g clip-path="url(#clip0_2266_36966)">
<path d="M9.5 3C10.8807 3 12 4.11929 12 5.5C12 6.88071 10.8807 8 9.5 8H7V5C7 4.44772 6.55229 4 6 4C5.44772 4 5 4.44772 5 5V8H2.5C1.11929 8 0 6.88071 0 5.5C0 4.11929 1.11929 3 2.5 3C2.54824 3 2.59617 3.00137 2.64373 3.00406C3.07271 1.55623 4.413 0.5 6 0.5C7.587 0.5 8.92729 1.55623 9.35627 3.00406C9.40383 3.00137 9.45176 3 9.5 3Z" fill="#18202A"/>
<path fill-rule="evenodd" clip-rule="evenodd" d="M6 4.5C6.27614 4.5 6.5 4.72386 6.5 5V9.79289L7.14645 9.14645C7.34171 8.95118 7.65829 8.95118 7.85355 9.14645C8.04882 9.34171 8.04882 9.65829 7.85355 9.85355L6.35355 11.3536C6.25979 11.4473 6.13261 11.5 6 11.5C5.86739 11.5 5.74021 11.4473 5.64645 11.3536L4.14645 9.85355C3.95118 9.65829 3.95118 9.34171 4.14645 9.14645C4.34171 8.95118 4.65829 8.95118 4.85355 9.14645L5.5 9.79289V5C5.5 4.72386 5.72386 4.5 6 4.5Z" fill="#18202A"/>
</g>
<defs>
<clipPath id="clip0_2266_36966">
<rect width="12" height="12" fill="white"/>
</clipPath>
</defs>
</svg>
