<svg width="12" height="12" viewBox="0 0 12 12" fill="none" xmlns="http://www.w3.org/2000/svg">
<g clip-path="url(#clip0_3240_8931)">
<path d="M1.12108 8.04665C1.16977 8.22835 1.23727 8.39999 1.32092 8.56003L2.08831 7.79264L2.08701 7.78783L1.05173 3.92413C0.837319 3.12393 1.31219 2.30142 2.11239 2.08701L5.9761 1.05173C6.7646 0.840452 7.57477 1.29846 7.80343 2.07752L8.56595 1.315C8.02934 0.316519 6.85967 -0.220297 5.71728 0.0858059L1.85357 1.12108C0.519908 1.47844 -0.271549 2.84928 0.0858059 4.18294L1.12108 8.04665Z" fill="#18202A"/>
<path fill-rule="evenodd" clip-rule="evenodd" d="M2.78899 9.91874L1.38836 11.3194C1.16713 11.5406 0.829366 11.5615 0.63393 11.3661C0.438494 11.1706 0.459397 10.8329 0.680619 10.6116L10.6116 0.680618C10.8329 0.459396 11.1706 0.438493 11.3661 0.633929C11.5615 0.829365 11.5406 1.16713 11.3194 1.38835L9.68279 3.02495L9.72144 3.02833C11.0969 3.14867 12.1144 4.36125 11.994 5.73671L11.6454 9.72149C11.5251 11.0969 10.3125 12.1144 8.93704 11.9941L4.95226 11.6455C3.91886 11.555 3.08753 10.8481 2.78899 9.91874ZM3.67515 9.03259L5.63475 7.07299L6.75122 7.95833L9.30401 6.11619L10.7999 7.91258L10.6761 9.32676L9.13258 7.47307L6.72279 9.21204L5.53834 8.27279L3.73321 9.58672C3.68071 9.41217 3.65937 9.22509 3.67515 9.03259ZM7.10581 5.60193C6.98544 6.01396 6.66111 6.33159 6.25781 6.44992L7.10581 5.60193Z" fill="#18202A"/>
<path d="M2.84608 7.03487L4.65631 5.22464C4.6569 5.19696 4.65841 5.16911 4.66086 5.14113C4.71707 4.49857 5.25003 4.01226 5.88072 4.00023L7.08342 2.79753L5.73666 2.67971C4.3612 2.55937 3.14862 3.57685 3.02829 4.95231L2.84608 7.03487Z" fill="#18202A"/>
</g>
<defs>
<clipPath id="clip0_3240_8931">
<rect width="12" height="12" fill="white"/>
</clipPath>
</defs>
</svg>
