<svg width="12" height="12" viewBox="0 0 12 12" fill="none" xmlns="http://www.w3.org/2000/svg">
<path d="M0.5 2.375C0.5 2.16789 0.667893 2 0.875 2H11.125C11.3321 2 11.5 2.16789 11.5 2.375C11.5 2.58211 11.3321 2.75 11.125 2.75H0.875C0.667894 2.75 0.5 2.58211 0.5 2.375Z" fill="#18202A"/>
<path d="M0.5 9.625C0.5 9.41789 0.667893 9.25 0.875 9.25H11.125C11.3321 9.25 11.5 9.41789 11.5 9.625C11.5 9.83211 11.3321 10 11.125 10H0.875C0.667894 10 0.5 9.83211 0.5 9.625Z" fill="#18202A"/>
<path d="M0.5 6C0.5 5.79289 0.667893 5.625 0.875 5.625H11.125C11.3321 5.625 11.5 5.79289 11.5 6C11.5 6.20711 11.3321 6.375 11.125 6.375H0.875C0.667894 6.375 0.5 6.20711 0.5 6Z" fill="#18202A"/>
</svg>
