<svg width="12" height="12" viewBox="0 0 12 12" fill="none" xmlns="http://www.w3.org/2000/svg">
<g clip-path="url(#clip0_3243_9001)">
<path d="M2.75 7.65773L2.42688 7.8592L2.67051 6.63734H1.54545C1.13927 6.63734 0.75 6.28152 0.75 5.76679V2.12055C0.75 1.60583 1.13928 1.25 1.54545 1.25H6.95455C7.36072 1.25 7.75 1.60583 7.75 2.12055V2.25H8.5V2.12055C8.5 1.22555 7.80808 0.5 6.95455 0.5H1.54545C0.691924 0.5 0 1.22555 0 2.12055V5.76679C0 6.46491 0.420977 7.05992 1.01126 7.28792C1.17774 7.35223 1.35769 7.38734 1.54545 7.38734H1.7562L1.53218 8.51081C1.46335 8.85597 1.81877 9.12218 2.10782 8.94196L2.75 8.54157V7.65773Z" fill="#18202A"/>
<path fill-rule="evenodd" clip-rule="evenodd" d="M10.9887 9.78792C11.579 9.55992 12 8.96491 12 8.26679V4.62055C12 3.72555 11.3081 3 10.4545 3H5.04545C4.19192 3 3.5 3.72555 3.5 4.62055V8.26679C3.5 9.1618 4.19192 9.88734 5.04545 9.88734H7.39876L9.89218 11.442C10.1812 11.6222 10.5366 11.356 10.4678 11.0108L10.2438 9.88734H10.4545C10.6423 9.88734 10.8223 9.85223 10.9887 9.78792ZM7.61342 9.13734L9.57312 10.3592L9.32948 9.13734H10.4545C10.8607 9.13734 11.25 8.78152 11.25 8.26679V4.62055C11.25 4.10583 10.8607 3.75 10.4545 3.75H5.04545C4.63928 3.75 4.25 4.10583 4.25 4.62055V8.26679C4.25 8.78152 4.63928 9.13734 5.04545 9.13734H7.61342Z" fill="#18202A"/>
</g>
<defs>
<clipPath id="clip0_3243_9001">
<rect width="12" height="12" fill="white"/>
</clipPath>
</defs>
</svg>
