<svg width="12" height="12" viewBox="0 0 12 12" fill="none" xmlns="http://www.w3.org/2000/svg">
<path d="M6.375 5.875C6.375 5.66789 6.20711 5.5 6 5.5C5.79289 5.5 5.625 5.66789 5.625 5.875V7.125H4.375C4.16789 7.125 4 7.29289 4 7.5C4 7.70711 4.16789 7.875 4.375 7.875H5.625V9.125C5.625 9.33211 5.79289 9.5 6 9.5C6.20711 9.5 6.375 9.33211 6.375 9.125V7.875H7.625C7.83211 7.875 8 7.70711 8 7.5C8 7.29289 7.83211 7.125 7.625 7.125H6.375V5.875Z" fill="#18202A"/>
<path fill-rule="evenodd" clip-rule="evenodd" d="M2.00493 3.37756C2.06722 2.6064 2.7128 2 3.5 2H8.5C9.2872 2 9.93277 2.6064 9.99507 3.37756C10.2762 3.62698 10.463 3.98042 10.4951 4.37756C10.8048 4.65234 11 5.05338 11 5.5V9.5C11 10.3284 10.3284 11 9.5 11H2.5C1.67157 11 1 10.3284 1 9.5V5.5C1 5.05338 1.19519 4.65235 1.50493 4.37756C1.53701 3.98042 1.72378 3.62698 2.00493 3.37756ZM2.93992 3.00118C3.07728 2.84706 3.27731 2.75 3.5 2.75H8.5C8.7227 2.75 8.92272 2.84706 9.06008 3.00118C9.04016 3.0004 9.02012 3 9 3H3C2.97988 3 2.95985 3.0004 2.93992 3.00118ZM2.43992 4.00118C2.45985 4.0004 2.47988 4 2.5 4H9.5C9.52012 4 9.54015 4.0004 9.56008 4.00118C9.42271 3.84706 9.2227 3.75 9 3.75H3C2.77731 3.75 2.57728 3.84706 2.43992 4.00118ZM10.25 5.5C10.25 5.08579 9.91421 4.75 9.5 4.75H2.5C2.08579 4.75 1.75 5.08579 1.75 5.5V9.5C1.75 9.91421 2.08579 10.25 2.5 10.25H9.5C9.91421 10.25 10.25 9.91421 10.25 9.5V5.5Z" fill="#18202A"/>
</svg>
