<svg width="12" height="12" viewBox="0 0 12 12" fill="none" xmlns="http://www.w3.org/2000/svg">
<path fill-rule="evenodd" clip-rule="evenodd" d="M4.39644 1.74999C4.71142 1.435 5.24999 1.65809 5.24999 2.10354V3.75289C6.6066 3.78464 8.06083 4.08332 9.20273 4.96457C10.4273 5.90963 11.25 7.49094 11.25 9.99999C11.25 10.1128 11.1744 10.2116 11.0656 10.2412C10.9567 10.2708 10.8415 10.2238 10.7844 10.1265C10.1127 8.98222 9.57941 8.28549 8.78185 7.85781C8.01397 7.44605 6.96888 7.26655 5.24999 7.25109V8.89644C5.24999 9.34189 4.71142 9.56497 4.39644 9.24999L0.999993 5.85354C0.80473 5.65828 0.804731 5.3417 0.999993 5.14644L4.39644 1.74999Z" fill="#18202A"/>
</svg>
