<svg width="12" height="12" viewBox="0 0 12 12" fill="none" xmlns="http://www.w3.org/2000/svg">
<g clip-path="url(#clip0_3906_9345)">
<path d="M6.51516 4.23483C6.44484 4.16451 6.34946 4.125 6.25 4.125C6.15054 4.125 6.05516 4.16451 5.98483 4.23483L4.60984 5.60983C4.46339 5.75628 4.46339 5.99372 4.60984 6.14017C4.75628 6.28661 4.99372 6.28661 5.14016 6.14017L5.875 5.40533V8.5C5.875 8.70711 6.04289 8.875 6.25 8.875C6.45711 8.875 6.625 8.70711 6.625 8.5V5.40533L7.35983 6.14017C7.50628 6.28661 7.74372 6.28661 7.89016 6.14017C8.03661 5.99372 8.03661 5.75628 7.89016 5.60983L6.51516 4.23483Z" fill="#18202A"/>
<path fill-rule="evenodd" clip-rule="evenodd" d="M2.5 1.5C1.39543 1.5 0.5 2.39543 0.5 3.5V8.5C0.5 9.60457 1.39543 10.5 2.5 10.5H9.5C10.6046 10.5 11.5 9.60457 11.5 8.5V4.5C11.5 3.39543 10.6046 2.5 9.5 2.5H6L5.43934 1.93934C5.15804 1.65804 4.7765 1.5 4.37868 1.5H2.5ZM10.75 4.5C10.75 3.80964 10.1904 3.25 9.5 3.25H5.68934L4.90901 2.46967C4.76836 2.32902 4.57759 2.25 4.37868 2.25H2.5C1.80964 2.25 1.25 2.80964 1.25 3.5V8.5C1.25 9.19036 1.80964 9.75 2.5 9.75H9.5C10.1904 9.75 10.75 9.19036 10.75 8.5V4.5Z" fill="#18202A"/>
</g>
<defs>
<clipPath id="clip0_3906_9345">
<rect width="12" height="12" fill="white"/>
</clipPath>
</defs>
</svg>
