<svg width="12" height="12" viewBox="0 0 12 12" fill="none" xmlns="http://www.w3.org/2000/svg">
<g clip-path="url(#clip0_2266_40320)">
<path fill-rule="evenodd" clip-rule="evenodd" d="M8.5 1.25H3.5C2.25736 1.25 1.25 2.25736 1.25 3.5V8.5C1.25 9.74264 2.25736 10.75 3.5 10.75H8.5C9.74264 10.75 10.75 9.74264 10.75 8.5V3.5C10.75 2.25736 9.74264 1.25 8.5 1.25ZM3.5 0.5C1.84315 0.5 0.5 1.84315 0.5 3.5V8.5C0.5 10.1569 1.84315 11.5 3.5 11.5H8.5C10.1569 11.5 11.5 10.1569 11.5 8.5V3.5C11.5 1.84315 10.1569 0.5 8.5 0.5H3.5Z" fill="#18202A"/>
<path fill-rule="evenodd" clip-rule="evenodd" d="M4.5 4.75C4.91421 4.75 5.25 4.41421 5.25 4C5.25 3.58579 4.91421 3.25 4.5 3.25C4.08579 3.25 3.75 3.58579 3.75 4C3.75 4.41421 4.08579 4.75 4.5 4.75ZM6 4C6 4.82843 5.32843 5.5 4.5 5.5C3.67157 5.5 3 4.82843 3 4C3 3.17157 3.67157 2.5 4.5 2.5C5.32843 2.5 6 3.17157 6 4Z" fill="#18202A"/>
<path fill-rule="evenodd" clip-rule="evenodd" d="M8.27201 4.92103L11.2949 8.76832L10.7051 9.23168L8.228 6.07897L5.53473 9.01708L4.03586 7.76803L1.77748 10.2523L1.22252 9.74775L3.96414 6.73197L5.46527 7.98292L8.27201 4.92103Z" fill="#18202A"/>
</g>
<defs>
<clipPath id="clip0_2266_40320">
<rect width="12" height="12" fill="white"/>
</clipPath>
</defs>
</svg>
