<svg width="12" height="12" viewBox="0 0 12 12" fill="none" xmlns="http://www.w3.org/2000/svg">
<path fill-rule="evenodd" clip-rule="evenodd" d="M10.0493 2.75C9.78997 3.19835 9.30521 3.5 8.75 3.5C8.19479 3.5 7.71003 3.19835 7.45067 2.75H1.5C1.08579 2.75 0.75 3.08579 0.75 3.5V8.5C0.75 8.91421 1.08579 9.25 1.5 9.25H7.45067C7.71003 8.80165 8.19479 8.5 8.75 8.5C9.30521 8.5 9.78997 8.80165 10.0493 9.25H10.5C10.9142 9.25 11.25 8.91421 11.25 8.5V3.5C11.25 3.08579 10.9142 2.75 10.5 2.75H10.0493ZM9.5 10C9.5 9.58579 9.16421 9.25 8.75 9.25C8.33579 9.25 8 9.58579 8 10H1.5C0.671573 10 0 9.32843 0 8.5V3.5C0 2.67157 0.671573 2 1.5 2H8C8 2.41421 8.33579 2.75 8.75 2.75C9.16421 2.75 9.5 2.41421 9.5 2H10.5C11.3284 2 12 2.67157 12 3.5V8.5C12 9.32843 11.3284 10 10.5 10H9.5ZM1.5 4.375C1.5 4.16789 1.66789 4 1.875 4H6.375C6.58211 4 6.75 4.16789 6.75 4.375C6.75 4.58211 6.58211 4.75 6.375 4.75H1.875C1.66789 4.75 1.5 4.58211 1.5 4.375ZM1.875 5.5C1.66789 5.5 1.5 5.66789 1.5 5.875C1.5 6.08211 1.66789 6.25 1.875 6.25H6.375C6.58211 6.25 6.75 6.08211 6.75 5.875C6.75 5.66789 6.58211 5.5 6.375 5.5H1.875ZM1.5 7.375C1.5 7.16789 1.66789 7 1.875 7H3.125C3.33211 7 3.5 7.16789 3.5 7.375C3.5 7.58211 3.33211 7.75 3.125 7.75H1.875C1.66789 7.75 1.5 7.58211 1.5 7.375ZM9 7.5V4.5H8.5V7.5H9Z" fill="#18202A"/>
</svg>
