<svg width="12" height="12" viewBox="0 0 12 12" fill="none" xmlns="http://www.w3.org/2000/svg">
<path d="M1.75 2.375C1.75 2.16789 1.58211 2 1.375 2C1.16789 2 1 2.16789 1 2.375V9.625C1 9.83211 1.16789 10 1.375 10C1.58211 10 1.75 9.83211 1.75 9.625V6.25L6.25 6.25V9.625C6.25 9.83211 6.41789 10 6.625 10C6.83211 10 7 9.83211 7 9.625V2.375C7 2.16789 6.83211 2 6.625 2C6.41789 2 6.25 2.16789 6.25 2.375V5.5L1.75 5.5V2.375Z" fill="#18202A"/>
<path d="M10.5 5.87501C10.5 5.72692 10.4128 5.59269 10.2776 5.53244C10.1423 5.4722 9.98422 5.4972 9.87414 5.59627L8.62414 6.72127C8.4702 6.85982 8.45772 7.09693 8.59627 7.25087C8.73481 7.40481 8.97192 7.41729 9.12586 7.27874L9.75 6.71702V9.62501C9.75 9.83211 9.9179 10 10.125 10C10.3321 10 10.5 9.83211 10.5 9.62501V5.87501Z" fill="#18202A"/>
</svg>
