<svg width="12" height="12" viewBox="0 0 12 12" fill="none" xmlns="http://www.w3.org/2000/svg">
<g clip-path="url(#clip0_2266_40416)">
<path fill-rule="evenodd" clip-rule="evenodd" d="M5.25 6.57464V8.42536L6.79226 7.5L5.25 6.57464ZM5.25725 5.70435C4.92399 5.50439 4.5 5.74445 4.5 6.1331V8.8669C4.5 9.25555 4.92399 9.49561 5.25725 9.29565L7.53542 7.92875C7.85909 7.73454 7.85909 7.26545 7.53542 7.07125L5.25725 5.70435Z" fill="#18202A"/>
<path fill-rule="evenodd" clip-rule="evenodd" d="M9.5 4.25H2.5C1.80964 4.25 1.25 4.80964 1.25 5.5V9C1.25 9.9665 2.0335 10.75 3 10.75H9C9.9665 10.75 10.75 9.9665 10.75 9V5.5C10.75 4.80964 10.1904 4.25 9.5 4.25ZM2.5 3.5C1.39543 3.5 0.5 4.39543 0.5 5.5V9C0.5 10.3807 1.61929 11.5 3 11.5H9C10.3807 11.5 11.5 10.3807 11.5 9V5.5C11.5 4.39543 10.6046 3.5 9.5 3.5H2.5Z" fill="#18202A"/>
<path d="M2 2.375C2 2.16789 2.16789 2 2.375 2H9.625C9.83211 2 10 2.16789 10 2.375C10 2.58211 9.83211 2.75 9.625 2.75H2.375C2.16789 2.75 2 2.58211 2 2.375Z" fill="#18202A"/>
<path d="M3 0.875C3 0.667893 3.16789 0.5 3.375 0.5H8.625C8.83211 0.5 9 0.667893 9 0.875C9 1.08211 8.83211 1.25 8.625 1.25H3.375C3.16789 1.25 3 1.08211 3 0.875Z" fill="#18202A"/>
</g>
<defs>
<clipPath id="clip0_2266_40416">
<rect width="12" height="12" fill="white"/>
</clipPath>
</defs>
</svg>
