<svg width="12" height="12" viewBox="0 0 12 12" fill="none" xmlns="http://www.w3.org/2000/svg">
<path d="M2 2.5C2 2.22386 1.77614 2 1.5 2C1.22386 2 1 2.22386 1 2.5V9.5C1 9.77614 1.22386 10 1.5 10C1.77614 10 2 9.77614 2 9.5V6.5L6 6.5V9.5C6 9.77614 6.22386 10 6.5 10C6.77614 10 7 9.77614 7 9.5V2.5C7 2.22386 6.77614 2 6.5 2C6.22386 2 6 2.22386 6 2.5V5.5L2 5.5V2.5Z" fill="#18202A"/>
<path d="M9 6.5C9 6.34568 9.20105 6 9.75 6C10.2594 6 10.5 6.31039 10.5 6.625C10.5 6.74466 10.4828 6.8806 10.3862 7.06293C10.2842 7.25562 10.0826 7.52025 9.67718 7.86816L8.1799 9.11589C8.01818 9.25066 7.9582 9.47228 8.02986 9.67021C8.10152 9.86815 8.28948 10 8.5 10H11C11.2761 10 11.5 9.77614 11.5 9.5C11.5 9.22386 11.2761 9 11 9H9.88102L10.3201 8.63415L10.3254 8.62963C10.7932 8.22863 11.091 7.86897 11.27 7.53082C11.4547 7.1819 11.5 6.88034 11.5 6.625C11.5 5.68961 10.7406 5 9.75 5C8.79894 5 8 5.65432 8 6.5C8 6.77614 8.22385 7 8.5 7C8.77614 7 9 6.77614 9 6.5Z" fill="#18202A"/>
</svg>
