<svg width="12" height="12" viewBox="0 0 12 12" fill="none" xmlns="http://www.w3.org/2000/svg">
<g clip-path="url(#clip0_3906_9157)">
<path fill-rule="evenodd" clip-rule="evenodd" d="M5.68934 3.25L4.90901 2.46967C4.76836 2.32902 4.57759 2.25 4.37868 2.25H2.5C1.80964 2.25 1.25 2.80964 1.25 3.5V8.5C1.25 9.19036 1.80964 9.75 2.5 9.75H9.5C10.1904 9.75 10.75 9.19036 10.75 8.5V4.5C10.75 3.80964 10.1904 3.25 9.5 3.25H5.68934ZM2.5 1.5C1.39543 1.5 0.5 2.39543 0.5 3.5V8.5C0.5 9.60457 1.39543 10.5 2.5 10.5H9.5C10.6046 10.5 11.5 9.60457 11.5 8.5V4.5C11.5 3.39543 10.6046 2.5 9.5 2.5H6L5.43934 1.93934C5.15804 1.65804 4.7765 1.5 4.37868 1.5H2.5Z" fill="#18202A"/>
</g>
<defs>
<clipPath id="clip0_3906_9157">
<rect width="12" height="12" fill="white"/>
</clipPath>
</defs>
</svg>
