<svg width="12" height="12" viewBox="0 0 12 12" fill="none" xmlns="http://www.w3.org/2000/svg">
<path fill-rule="evenodd" clip-rule="evenodd" d="M6 5.5C7.33333 5.5 8 4.25 8 2.6875C8 1.4375 7.33333 0.5 6 0.5C4.66667 0.5 4 1.4375 4 2.6875C4 4.25 4.66667 5.5 6 5.5ZM6.00002 6.5C6.04216 6.5 6.08418 6.50052 6.12607 6.50156C5.57786 7.18612 5.25 8.05477 5.25 9C5.25 9.94555 5.57808 10.8145 6.12662 11.4991C6.08448 11.4997 6.04228 11.5 6.00001 11.5C5.22631 11.5 4.47541 11.4024 3.75897 11.2188C3.14945 11.0626 2.63285 10.6543 2.34993 10.0922L2.32658 10.0455C1.93547 9.25568 2.06847 8.28806 2.73583 7.7124C3.61173 6.95686 4.75252 6.5 6.00002 6.5ZM9.20441 6C8.81333 6 8.478 6.27923 8.4072 6.66385L8.40432 6.67948C8.10433 6.78315 7.83071 6.94335 7.5962 7.14734L7.57985 7.14153C7.21136 7.01054 6.80188 7.16132 6.60634 7.50001C6.4108 7.83869 6.48495 8.2687 6.78264 8.52233L6.79604 8.53375C6.76701 8.6847 6.75181 8.84058 6.75181 9C6.75181 9.15943 6.76701 9.31531 6.79604 9.46627L6.78265 9.47768C6.48496 9.73131 6.4108 10.1613 6.60634 10.5C6.80188 10.8387 7.21136 10.9895 7.57985 10.8585L7.59621 10.8527C7.83072 11.0567 8.10434 11.2169 8.40432 11.3205L8.4072 11.3362C8.478 11.7208 8.81333 12 9.20441 12C9.59549 12 9.93081 11.7208 10.0016 11.3362L10.0042 11.322C10.3054 11.2185 10.58 11.0581 10.8154 10.8537L10.829 10.8585C11.1975 10.9895 11.6069 10.8387 11.8025 10.5C11.998 10.1613 11.9239 9.73131 11.6262 9.47768L11.6161 9.46911C11.6455 9.31727 11.6609 9.16043 11.6609 9C11.6609 8.83957 11.6455 8.68274 11.6161 8.5309L11.6262 8.52233C11.9239 8.2687 11.998 7.83869 11.8025 7.50001C11.607 7.16132 11.1975 7.01054 10.829 7.14153L10.8154 7.14636C10.58 6.94189 10.3054 6.7815 10.0042 6.67804L10.0016 6.66385C9.93081 6.27923 9.59549 6 9.20441 6ZM9.20409 10C9.75637 10 10.2041 9.55228 10.2041 9C10.2041 8.44772 9.75637 8 9.20409 8C8.6518 8 8.20409 8.44772 8.20409 9C8.20409 9.55228 8.6518 10 9.20409 10Z" fill="#18202A"/>
</svg>
