<svg width="12" height="12" viewBox="0 0 12 12" fill="none" xmlns="http://www.w3.org/2000/svg">
<g clip-path="url(#clip0_3046_8586)">
<path d="M11.5 2.5C11.5 3.60457 10.6046 4.5 9.5 4.5C8.39543 4.5 7.5 3.60457 7.5 2.5C7.5 1.39543 8.39543 0.5 9.5 0.5C10.6046 0.5 11.5 1.39543 11.5 2.5Z" fill="#18202A"/>
<path d="M6.08054 1.75C6.13779 1.48781 6.22442 1.2366 6.33682 1H2.5C1.39543 1 0.5 1.89543 0.5 3V7.5C0.5 8.43864 1.14661 9.22626 2.0187 9.44171C2.17286 9.47979 2.33407 9.5 2.5 9.5H2.77273L2.48282 10.8865C2.39375 11.3125 2.8537 11.641 3.22777 11.4186L6.45455 9.5H9.5C10.6046 9.5 11.5 8.60457 11.5 7.5V5.37266C11.2688 5.5339 11.0173 5.66796 10.75 5.77019V7.5C10.75 8.19036 10.1904 8.75 9.5 8.75H6.45455C6.31963 8.75 6.18721 8.78639 6.07124 8.85535L3.33335 10.4833L3.50685 9.6535C3.55307 9.43244 3.49722 9.20232 3.3548 9.02704C3.21239 8.85177 2.99857 8.75 2.77273 8.75H2.5C1.80964 8.75 1.25 8.19036 1.25 7.5V3C1.25 2.30964 1.80964 1.75 2.5 1.75H6.08054Z" fill="#18202A"/>
</g>
<defs>
<clipPath id="clip0_3046_8586">
<rect width="12" height="12" fill="white"/>
</clipPath>
</defs>
</svg>
