<svg width="12" height="12" viewBox="0 0 12 12" fill="none" xmlns="http://www.w3.org/2000/svg">
<g clip-path="url(#clip0_2266_37275)">
<path fill-rule="evenodd" clip-rule="evenodd" d="M6 11.5C2.96243 11.5 0.5 9.03757 0.5 6C0.5 2.96243 2.96243 0.5 6 0.5C9.03757 0.5 11.5 2.96243 11.5 6C11.5 9.03757 9.03757 11.5 6 11.5ZM6.14645 3.64645C6.34171 3.45118 6.65829 3.45118 6.85355 3.64645C7.04882 3.84171 7.04882 4.15829 6.85355 4.35355L5.20711 6L6.85355 7.64645C7.04882 7.84171 7.04882 8.15829 6.85355 8.35355C6.65829 8.54882 6.34171 8.54882 6.14645 8.35355L4.14645 6.35355C3.95118 6.15829 3.95118 5.84171 4.14645 5.64645L6.14645 3.64645Z" fill="#18202A"/>
</g>
<defs>
<clipPath id="clip0_2266_37275">
<rect width="12" height="12" fill="white"/>
</clipPath>
</defs>
</svg>
