<svg width="12" height="12" viewBox="0 0 12 12" fill="none" xmlns="http://www.w3.org/2000/svg">
<path fill-rule="evenodd" clip-rule="evenodd" d="M3.25 4.42753C3.97287 4.21239 4.5 3.54276 4.5 2.75C4.5 1.7835 3.7165 1 2.75 1C1.7835 1 1 1.7835 1 2.75C1 3.54276 1.52713 4.21239 2.25 4.42753V7.25C2.25 8.63071 3.36929 9.75 4.75 9.75H7.57247C7.78761 10.4729 8.45724 11 9.25 11C10.2165 11 11 10.2165 11 9.25C11 8.2835 10.2165 7.5 9.25 7.5C8.45724 7.5 7.78761 8.02713 7.57247 8.75H4.75C3.92157 8.75 3.25 8.07843 3.25 7.25V4.42753ZM2.75 3.5C3.16421 3.5 3.5 3.16421 3.5 2.75C3.5 2.33579 3.16421 2 2.75 2C2.33579 2 2 2.33579 2 2.75C2 3.16421 2.33579 3.5 2.75 3.5ZM9.25 10C9.66421 10 10 9.66421 10 9.25C10 8.83579 9.66421 8.5 9.25 8.5C8.83579 8.5 8.5 8.83579 8.5 9.25C8.5 9.66421 8.83579 10 9.25 10Z" fill="#18202A"/>
</svg>
