<svg width="12" height="12" viewBox="0 0 12 12" fill="none" xmlns="http://www.w3.org/2000/svg">
<g clip-path="url(#clip0_2266_40215)">
<path fill-rule="evenodd" clip-rule="evenodd" d="M6 10.75C8.62335 10.75 10.75 8.62335 10.75 6C10.75 3.37665 8.62335 1.25 6 1.25C3.37665 1.25 1.25 3.37665 1.25 6C1.25 8.62335 3.37665 10.75 6 10.75ZM6 11.5C9.03757 11.5 11.5 9.03757 11.5 6C11.5 2.96243 9.03757 0.5 6 0.5C2.96243 0.5 0.5 2.96243 0.5 6C0.5 9.03757 2.96243 11.5 6 11.5Z" fill="#18202A"/>
<path fill-rule="evenodd" clip-rule="evenodd" d="M5.23484 3.73483C5.38128 3.58839 5.61872 3.58839 5.76516 3.73483L7.76517 5.73483C7.91161 5.88128 7.91161 6.11872 7.76517 6.26517L5.76516 8.26516C5.61872 8.41161 5.38128 8.41161 5.23484 8.26516C5.08839 8.11872 5.08839 7.88128 5.23484 7.73483L6.96967 6L5.23484 4.26517C5.08839 4.11872 5.08839 3.88128 5.23484 3.73483Z" fill="#18202A"/>
</g>
<defs>
<clipPath id="clip0_2266_40215">
<rect width="12" height="12" fill="white"/>
</clipPath>
</defs>
</svg>
