<svg width="12" height="12" viewBox="0 0 12 12" fill="none" xmlns="http://www.w3.org/2000/svg">
<path fill-rule="evenodd" clip-rule="evenodd" d="M4.5 2.75C4.5 3.54276 3.97287 4.21239 3.25 4.42753V7.125C3.25 8.02246 3.97754 8.75 4.875 8.75H7.57247C7.78761 8.02713 8.45724 7.5 9.25 7.5C10.2165 7.5 11 8.2835 11 9.25C11 10.2165 10.2165 11 9.25 11C8.36838 11 7.63903 10.3481 7.51772 9.5H4.875C3.56332 9.5 2.5 8.43668 2.5 7.125V4.48228C1.65193 4.36097 1 3.63162 1 2.75C1 1.7835 1.7835 1 2.75 1C3.7165 1 4.5 1.7835 4.5 2.75ZM3.75 2.75C3.75 3.30228 3.30228 3.75 2.75 3.75C2.19772 3.75 1.75 3.30228 1.75 2.75C1.75 2.19772 2.19772 1.75 2.75 1.75C3.30228 1.75 3.75 2.19772 3.75 2.75ZM10.25 9.25C10.25 9.80228 9.80228 10.25 9.25 10.25C8.69772 10.25 8.25 9.80228 8.25 9.25C8.25 8.69772 8.69772 8.25 9.25 8.25C9.80228 8.25 10.25 8.69772 10.25 9.25Z" fill="#18202A"/>
</svg>
