<svg width="16" height="16" viewBox="0 0 16 16" fill="none" xmlns="http://www.w3.org/2000/svg">
<path fill-rule="evenodd" clip-rule="evenodd" d="M6.18024 6.41509L2.20671 6.96865L5.07948 9.66974L4.39039 13.5363L7.99999 11.7089L11.6096 13.5363L10.9204 9.66929L13.7932 6.97192L9.81946 6.41456L7.99999 2.86105L6.18024 6.41509ZM5.52716 5.49641L0.689566 6.17034C0.412273 6.20897 0.303255 6.55155 0.507226 6.74334L3.99999 10.0274L3.17152 14.676C3.12329 14.9466 3.40497 15.156 3.65025 15.0319L7.99999 12.8297L12.3497 15.0319C12.595 15.156 12.8767 14.9466 12.8284 14.676L12 10.0274L15.4926 6.74808C15.6966 6.55646 15.5879 6.21385 15.3107 6.17497L10.4728 5.49641L8.29669 1.24636C8.17284 1.00447 7.82714 1.00447 7.70328 1.24636L5.52716 5.49641Z" fill="#18202A"/>
</svg>
