<svg width="12" height="12" viewBox="0 0 12 12" fill="none" xmlns="http://www.w3.org/2000/svg">
<path d="M1 1.375C1 1.16789 1.16789 1 1.375 1H10.625C10.8321 1 11 1.16789 11 1.375C11 1.58211 10.8321 1.75 10.625 1.75H1.375C1.16789 1.75 1 1.58211 1 1.375Z" fill="#18202A"/>
<path d="M1 10.625C1 10.4179 1.16789 10.25 1.375 10.25H10.625C10.8321 10.25 11 10.4179 11 10.625C11 10.8321 10.8321 11 10.625 11H1.375C1.16789 11 1 10.8321 1 10.625Z" fill="#18202A"/>
<path fill-rule="evenodd" clip-rule="evenodd" d="M0.5 4C0.5 3.17157 1.17157 2.5 2 2.5H10C10.8284 2.5 11.5 3.17157 11.5 4V8C11.5 8.82843 10.8284 9.5 10 9.5H2C1.17157 9.5 0.5 8.82843 0.5 8V4ZM2 3.25H10C10.4142 3.25 10.75 3.58579 10.75 4V8C10.75 8.41421 10.4142 8.75 10 8.75H2C1.58579 8.75 1.25 8.41421 1.25 8V4C1.25 3.58579 1.58579 3.25 2 3.25Z" fill="#18202A"/>
</svg>
