<svg width="12" height="12" viewBox="0 0 12 12" fill="none" xmlns="http://www.w3.org/2000/svg">
<path fill-rule="evenodd" clip-rule="evenodd" d="M8.00002 2.6875C8.00002 4.25 7.33335 5.5 6.00002 5.5C4.66668 5.5 4.00002 4.25 4.00002 2.6875C4.00002 1.4375 4.66668 0.5 6.00002 0.5C7.33335 0.5 8.00002 1.4375 8.00002 2.6875ZM7.25002 2.6875C7.25002 3.37655 7.10085 3.92104 6.87303 4.26813C6.66539 4.58445 6.39129 4.75 6.00002 4.75C5.60874 4.75 5.33464 4.58445 5.12701 4.26813C4.89918 3.92104 4.75002 3.37655 4.75002 2.6875C4.75002 2.18758 4.88353 1.83098 5.07053 1.61184C5.24307 1.40964 5.52302 1.25 6.00002 1.25C6.47701 1.25 6.75696 1.40964 6.9295 1.61184C7.1165 1.83098 7.25002 2.18758 7.25002 2.6875ZM6.49311 10.7355C6.59934 10.9938 6.73788 11.2354 6.90369 11.4552C6.60649 11.4848 6.30502 11.5 6.00001 11.5C5.22632 11.5 4.47542 11.4024 3.75897 11.2188C3.14945 11.0626 2.63286 10.6543 2.34994 10.0923C2.26608 9.92566 2.18786 9.75572 2.11555 9.58271C1.8083 8.84756 1.93075 7.98746 2.49967 7.42962C3.40158 6.5453 4.63712 6 6.00002 6C6.79444 6 7.54558 6.18527 8.21261 6.51496C7.92778 6.63797 7.66404 6.80055 7.42833 6.99577C6.98202 6.83659 6.50127 6.75 6.00002 6.75C4.8413 6.75 3.79215 7.21272 3.02476 7.96515C2.70284 8.28079 2.60284 8.8037 2.80755 9.2935C2.87303 9.45018 2.94388 9.6041 3.01985 9.75503C3.20301 10.1189 3.54049 10.3885 3.94517 10.4922C4.60129 10.6604 5.28964 10.75 6.00001 10.75C6.16562 10.75 6.33003 10.7451 6.49311 10.7355ZM12 9.5C12 10.8807 10.8807 12 9.50002 12C8.1193 12 7.00002 10.8807 7.00002 9.5C7.00002 8.11929 8.1193 7 9.50002 7C10.8807 7 12 8.11929 12 9.5ZM9.50002 7.65C9.22025 7.65 8.98439 7.66921 8.8043 7.69164C8.38629 7.74369 8.12502 8.10492 8.12502 8.4807V8.58937C8.12502 8.8228 8.21774 9.04667 8.3828 9.21172C8.52925 9.35817 8.76668 9.35817 8.91313 9.21172C9.05958 9.06528 9.05958 8.82784 8.91313 8.68139C8.88873 8.65699 8.87502 8.62389 8.87502 8.58937L8.87502 8.4807C8.87502 8.46055 8.88181 8.44767 8.88663 8.44181C8.88784 8.44035 8.88889 8.43934 8.88974 8.43864C8.89052 8.43799 8.89113 8.43761 8.89152 8.43739C8.89208 8.43707 8.89348 8.43632 8.89697 8.43589C9.04967 8.41688 9.25443 8.4 9.50002 8.4C9.7265 8.4 9.91827 8.41435 10.0665 8.4315C10.0816 8.43325 10.0928 8.43934 10.1028 8.45151C10.1142 8.46521 10.125 8.48878 10.125 8.52077C10.125 8.70801 10.0159 8.87807 9.84567 8.95608L9.57106 9.08193C9.29927 9.20649 9.12502 9.47802 9.12502 9.77699C9.12502 9.9841 9.29291 10.152 9.50002 10.152C9.70712 10.152 9.87502 9.9841 9.87502 9.77699C9.87502 9.77129 9.87834 9.76612 9.88352 9.76374L10.1581 9.63789C10.595 9.43771 10.875 9.00128 10.875 8.52077C10.875 8.12192 10.5975 7.73792 10.1527 7.68647C9.97871 7.66634 9.75805 7.65 9.50002 7.65ZM9.50002 11.5C9.77616 11.5 10 11.2761 10 11C10 10.7239 9.77616 10.5 9.50002 10.5C9.22387 10.5 9.00002 10.7239 9.00002 11C9.00002 11.2761 9.22387 11.5 9.50002 11.5Z" fill="#18202A"/>
</svg>
