<svg width="12" height="12" viewBox="0 0 12 12" fill="none" xmlns="http://www.w3.org/2000/svg">
<g clip-path="url(#clip0_3352_8955)">
<path fill-rule="evenodd" clip-rule="evenodd" d="M1.52992 1.72823C1.58878 1.58984 1.72462 1.5 1.87501 1.5H10.125C10.2754 1.5 10.4112 1.58984 10.4701 1.72823C10.529 1.86662 10.4994 2.02679 10.3951 2.13512L7.25001 5.4012V10.125C7.25001 10.2686 7.16805 10.3995 7.03894 10.4623C6.90982 10.525 6.75621 10.5086 6.64333 10.4199L4.89333 9.04487C4.80284 8.97377 4.75001 8.86507 4.75001 8.75V5.4012L1.60489 2.13512C1.50057 2.02679 1.47107 1.86662 1.52992 1.72823ZM2.75672 2.25L5.39513 4.98988C5.46242 5.05976 5.50001 5.15299 5.50001 5.25V8.56774L6.50001 9.35345V5.25C6.50001 5.15299 6.5376 5.05976 6.60489 4.98988L9.2433 2.25H2.75672Z" fill="#18202A"/>
</g>
<defs>
<clipPath id="clip0_3352_8955">
<rect width="12" height="12" fill="white"/>
</clipPath>
</defs>
</svg>
