<svg width="12" height="12" viewBox="0 0 12 12" fill="none" xmlns="http://www.w3.org/2000/svg">
<path d="M8.01516 6.51516C8.1616 6.36872 8.1616 6.13128 8.01516 5.98484C7.86871 5.83839 7.63127 5.83839 7.48483 5.98484L5.24999 8.21967L4.51516 7.48483C4.36871 7.33839 4.13127 7.33839 3.98483 7.48483C3.83838 7.63128 3.83838 7.86872 3.98483 8.01517L4.98483 9.01517C5.13127 9.16161 5.36871 9.16161 5.51516 9.01517L8.01516 6.51516Z" fill="#18202A"/>
<path fill-rule="evenodd" clip-rule="evenodd" d="M8.50252 3C8.32227 3 8.16933 2.87367 8.10563 2.70506C7.78442 1.85472 6.96288 1.25 6.00009 1.25C4.75745 1.25 3.75009 2.25736 3.75009 3.5V4H9.00009C10.1047 4 11.0001 4.89543 11.0001 6V9.5C11.0001 10.6046 10.1047 11.5 9.00009 11.5H3.00009C1.89552 11.5 1.00009 10.6046 1.00009 9.5V6C1.00009 4.89543 1.89552 4 3.00009 4V3.5C3.00009 1.84315 4.34324 0.5 6.00009 0.5C7.32773 0.5 8.45395 1.36242 8.84908 2.5576C8.924 2.78419 8.74118 3 8.50252 3ZM3.00009 4.75C2.30974 4.75 1.75009 5.30964 1.75009 6V9.5C1.75009 10.1904 2.30974 10.75 3.00009 10.75H9.00009C9.69045 10.75 10.2501 10.1904 10.2501 9.5V6C10.2501 5.30964 9.69045 4.75 9.00009 4.75H3.00009Z" fill="#18202A"/>
</svg>
