<svg width="12" height="12" viewBox="0 0 12 12" fill="none" xmlns="http://www.w3.org/2000/svg">
<g clip-path="url(#clip0_2266_39816)">
<path d="M0.5 0.875C0.5 0.667894 0.667893 0.5 0.875 0.5C1.08211 0.5 1.25 0.667893 1.25 0.875V11.125C1.25 11.3321 1.08211 11.5 0.875 11.5C0.667893 11.5 0.5 11.3321 0.5 11.125V0.875Z" fill="#18202A"/>
<path fill-rule="evenodd" clip-rule="evenodd" d="M6 2.25H1.25V7.25H6.5C6.63807 7.25 6.75 7.13807 6.75 7V3C6.75 2.58579 6.41421 2.25 6 2.25ZM0.5 1.5V8H6.5C7.05228 8 7.5 7.55228 7.5 7V3C7.5 2.17157 6.82843 1.5 6 1.5H0.5Z" fill="#18202A"/>
<path fill-rule="evenodd" clip-rule="evenodd" d="M4 8V9C4 9.55228 4.44772 10 5 10H11.0284C11.4351 10 11.6717 9.54032 11.4353 9.20938L9.70758 6.79062C9.58341 6.61677 9.58341 6.38323 9.70759 6.20938L11.4353 3.79062C11.6717 3.45968 11.4351 3 11.0284 3H7.5V3.75H10.5426L9.09728 5.77345C8.78684 6.20807 8.78684 6.79193 9.09728 7.22655L10.5426 9.25H5C4.86193 9.25 4.75 9.13807 4.75 9V8H4Z" fill="#18202A"/>
<path fill-rule="evenodd" clip-rule="evenodd" d="M6.56927 7.43567C6.72913 7.26128 6.76446 7.13901 6.7529 7.04651L7.4971 6.95349C7.54804 7.36099 7.349 7.69497 7.12214 7.94246C6.89512 8.19011 6.59148 8.40534 6.31656 8.58757C6.22662 8.64718 6.14069 8.70276 6.05912 8.7555C5.87522 8.87443 5.71356 8.97897 5.57841 9.08305C5.48358 9.15607 5.42369 9.21299 5.39008 9.25531C5.37635 9.27259 5.37103 9.28233 5.36965 9.28517C5.37095 9.28194 5.375 9.2699 5.375 9.25H4.625C4.625 9.05562 4.71546 8.89878 4.8028 8.78883C4.89174 8.67686 5.00665 8.57674 5.12081 8.48883C5.28173 8.3649 5.48514 8.23333 5.68145 8.10634C5.75703 8.05746 5.83155 8.00926 5.90219 7.96243C6.17415 7.78216 6.40957 7.60989 6.56927 7.43567ZM5.36926 9.28605C5.36925 9.28605 5.36937 9.28576 5.36965 9.28517L5.36926 9.28605Z" fill="#18202A"/>
</g>
<defs>
<clipPath id="clip0_2266_39816">
<rect width="12" height="12" fill="white"/>
</clipPath>
</defs>
</svg>
