<svg width="12" height="12" viewBox="0 0 12 12" fill="none" xmlns="http://www.w3.org/2000/svg">
<path d="M8 2C8.27614 2 8.5 1.77614 8.5 1.5C8.5 1.22386 8.27614 1 8 1H3C1.89543 1 1 1.89543 1 3V9C1 10.1046 1.89543 11 3 11H9C10.1046 11 11 10.1046 11 9V6.5C11 6.22386 10.7761 6 10.5 6C10.2239 6 10 6.22386 10 6.5V9C10 9.55229 9.55229 10 9 10H3C2.44772 10 2 9.55229 2 9V3C2 2.44772 2.44772 2 3 2H8Z" fill="#18202A"/>
<path d="M6.10355 8.10355L10.8536 3.35355C11.0488 3.15829 11.0488 2.84171 10.8536 2.64645C10.6583 2.45118 10.3417 2.45118 10.1464 2.64645L5.75 7.04289L4.35355 5.64645C4.15829 5.45118 3.84171 5.45118 3.64645 5.64645C3.45118 5.84171 3.45118 6.15829 3.64645 6.35355L5.39645 8.10355C5.59171 8.29882 5.90829 8.29882 6.10355 8.10355Z" fill="#18202A"/>
</svg>
