<svg width="12" height="12" viewBox="0 0 12 12" fill="none" xmlns="http://www.w3.org/2000/svg">
<path fill-rule="evenodd" clip-rule="evenodd" d="M6.85649 1.15356C6.71637 1.2116 6.625 1.34834 6.625 1.50001V3.63152C5.28871 3.67844 3.85736 3.98858 2.72089 4.86564C1.45901 5.83948 0.625 7.46144 0.625 10C0.625 10.1692 0.738341 10.3175 0.901644 10.3619C1.06495 10.4063 1.23774 10.3358 1.32341 10.1898C1.9934 9.04836 2.51213 8.37826 3.27722 7.96799C3.99911 7.58089 4.98655 7.40059 6.625 7.37756V9.50001C6.625 9.65168 6.71637 9.78842 6.85649 9.84647C6.99662 9.90451 7.15792 9.87243 7.26517 9.76518L11.2652 5.76518C11.4116 5.61873 11.4116 5.38129 11.2652 5.23485L7.26517 1.23485C7.15792 1.1276 6.99662 1.09551 6.85649 1.15356ZM10.4697 5.50001L7.375 8.59468V7.00001C7.375 6.7929 7.20711 6.62501 7 6.62501C5.1157 6.62501 3.87241 6.79781 2.92278 7.30703C2.34502 7.61684 1.89536 8.04084 1.48064 8.58195C1.72464 7.06103 2.36902 6.08457 3.17911 5.45938C4.23552 4.64411 5.63884 4.37501 7 4.37501C7.20711 4.37501 7.375 4.20712 7.375 4.00001V2.40534L10.4697 5.50001Z" fill="#18202A"/>
</svg>
