<svg width="12" height="12" viewBox="0 0 12 12" fill="none" xmlns="http://www.w3.org/2000/svg">
<path d="M4.5 1C4.77614 1 5 1.22386 5 1.5V3.5C5 4.32843 4.32843 5 3.5 5H1.5C1.22386 5 1 4.77614 1 4.5C1 4.22386 1.22386 4 1.5 4H3.5C3.77614 4 4 3.77614 4 3.5V1.5C4 1.22386 4.22386 1 4.5 1Z" fill="#18202A"/>
<path d="M1 7.5C1 7.22386 1.22386 7 1.5 7H3.5C4.32843 7 5 7.67157 5 8.5V10.5C5 10.7761 4.77614 11 4.5 11C4.22386 11 4 10.7761 4 10.5V8.5C4 8.22386 3.77614 8 3.5 8H1.5C1.22386 8 1 7.77614 1 7.5Z" fill="#18202A"/>
<path d="M11 4.5C11 4.77614 10.7761 5 10.5 5H8.5C7.67157 5 7 4.32843 7 3.5V1.5C7 1.22386 7.22386 1 7.5 1C7.77614 1 8 1.22386 8 1.5V3.5C8 3.77614 8.22386 4 8.5 4H10.5C10.7761 4 11 4.22386 11 4.5Z" fill="#18202A"/>
<path d="M7.5 11C7.22386 11 7 10.7761 7 10.5V8.42308C7 7.63713 7.63714 7 8.42308 7H10.5C10.7761 7 11 7.22386 11 7.5C11 7.77614 10.7761 8 10.5 8H8.42308C8.18942 8 8 8.18942 8 8.42308V10.5C8 10.7761 7.77615 11 7.5 11Z" fill="#18202A"/>
</svg>
