<svg width="12" height="12" viewBox="0 0 12 12" fill="none" xmlns="http://www.w3.org/2000/svg">
<path fill-rule="evenodd" clip-rule="evenodd" d="M10.1542 1.84597C9.03148 0.723217 7.21113 0.723217 6.08838 1.84597L5.02771 2.90663C4.88127 3.05308 4.88127 3.29052 5.02771 3.43696C5.17416 3.58341 5.4116 3.58341 5.55804 3.43696L6.6187 2.3763C7.44857 1.54644 8.79404 1.54644 9.62391 2.3763C10.4538 3.20617 10.4538 4.55164 9.62391 5.38151L8.56325 6.44217C8.4168 6.58861 8.4168 6.82605 8.56325 6.9725C8.70969 7.11894 8.94713 7.11894 9.09358 6.9725L10.1542 5.91184C11.277 4.78908 11.277 2.96873 10.1542 1.84597ZM1.84573 10.1541C0.722973 9.03132 0.722973 7.21097 1.84573 6.08821L2.90639 5.02755C3.05284 4.88111 3.29027 4.88111 3.43672 5.02755C3.58317 5.174 3.58317 5.41144 3.43672 5.55788L2.37606 6.61854C1.5462 7.44841 1.5462 8.79388 2.37606 9.62375C3.20592 10.4536 4.5514 10.4536 5.38126 9.62375L6.44192 8.56309C6.58837 8.41664 6.82581 8.41664 6.97225 8.56309C7.1187 8.70953 7.1187 8.94697 6.97225 9.09342L5.91159 10.1541C4.78884 11.2768 2.96849 11.2768 1.84573 10.1541ZM3.6135 7.85598C3.46705 8.00243 3.46705 8.23987 3.6135 8.38631C3.75995 8.53276 3.99738 8.53276 4.14383 8.38631L8.38647 4.14367C8.53292 3.99722 8.53292 3.75979 8.38647 3.61334C8.24002 3.46689 8.00259 3.46689 7.85614 3.61334L3.6135 7.85598Z" fill="#18202A"/>
</svg>
