<svg width="12" height="12" viewBox="0 0 12 12" fill="none" xmlns="http://www.w3.org/2000/svg">
<path d="M7.39645 2.10355C7.20118 1.90829 7.20118 1.59171 7.39645 1.39645C7.59171 1.20118 7.90829 1.20118 8.10355 1.39645L10.3536 3.64645C10.5488 3.84171 10.5488 4.15829 10.3536 4.35355L8.10355 6.60355C7.90829 6.79882 7.59171 6.79882 7.39645 6.60355C7.20118 6.40829 7.20118 6.09171 7.39645 5.89645L8.79289 4.5H4.75C3.50736 4.5 2.5 5.50736 2.5 6.75C2.5 7.99264 3.50736 9 4.75 9H8C8.27614 9 8.5 9.22386 8.5 9.5C8.5 9.77614 8.27614 10 8 10H4.75C2.95507 10 1.5 8.54493 1.5 6.75C1.5 4.95508 2.95507 3.5 4.75 3.5H8.79289L7.39645 2.10355Z" fill="#18202A"/>
</svg>
