<svg width="12" height="12" viewBox="0 0 12 12" fill="none" xmlns="http://www.w3.org/2000/svg">
<path fill-rule="evenodd" clip-rule="evenodd" d="M8.25 4V3.5C8.25 2.25736 7.24264 1.25 6 1.25C4.75736 1.25 3.75 2.25736 3.75 3.5V4H8.25ZM9 3.5V4C10.1046 4 11 4.89543 11 6V9.5C11 10.6046 10.1046 11.5 9 11.5H3C1.89543 11.5 1 10.6046 1 9.5V6C1 4.89543 1.89543 4 3 4V3.5C3 1.84315 4.34315 0.5 6 0.5C7.65685 0.5 9 1.84315 9 3.5ZM3 4.75C2.30964 4.75 1.75 5.30964 1.75 6V9.5C1.75 10.1904 2.30964 10.75 3 10.75H9C9.69036 10.75 10.25 10.1904 10.25 9.5V6C10.25 5.30964 9.69036 4.75 9 4.75H3ZM3.75 7.75C3.75 8.09518 3.47018 8.375 3.125 8.375C2.77982 8.375 2.5 8.09518 2.5 7.75C2.5 7.40482 2.77982 7.125 3.125 7.125C3.47018 7.125 3.75 7.40482 3.75 7.75ZM5.66666 7.75C5.66666 8.09518 5.38684 8.375 5.04166 8.375C4.69649 8.375 4.41666 8.09518 4.41666 7.75C4.41666 7.40482 4.69649 7.125 5.04166 7.125C5.38684 7.125 5.66666 7.40482 5.66666 7.75ZM6.95834 8.375C7.30351 8.375 7.58334 8.09518 7.58334 7.75C7.58334 7.40482 7.30351 7.125 6.95834 7.125C6.61316 7.125 6.33334 7.40482 6.33334 7.75C6.33334 8.09518 6.61316 8.375 6.95834 8.375ZM9.5 7.75C9.5 8.09518 9.22018 8.375 8.875 8.375C8.52982 8.375 8.25 8.09518 8.25 7.75C8.25 7.40482 8.52982 7.125 8.875 7.125C9.22018 7.125 9.5 7.40482 9.5 7.75Z" fill="#18202A"/>
</svg>
