<svg width="12" height="12" viewBox="0 0 12 12" fill="none" xmlns="http://www.w3.org/2000/svg">
<path fill-rule="evenodd" clip-rule="evenodd" d="M7 2.25H2C1.30964 2.25 0.75 2.80964 0.75 3.5V8.5C0.75 9.19036 1.30964 9.75 2 9.75H7C7.69036 9.75 8.25 9.19036 8.25 8.5V3.5C8.25 2.80964 7.69036 2.25 7 2.25ZM2 1.5C0.895431 1.5 0 2.39543 0 3.5V8.5C0 9.60457 0.895431 10.5 2 10.5H7C8.10457 10.5 9 9.60457 9 8.5V3.5C9 2.39543 8.10457 1.5 7 1.5H2Z" fill="#18202A"/>
<path fill-rule="evenodd" clip-rule="evenodd" d="M10.25 4.68418V7.31582L11.25 8.03582V3.96418L10.25 4.68418ZM9.70785 4.15035C9.57734 4.24431 9.5 4.39531 9.5 4.55612V7.44388C9.5 7.60469 9.57734 7.75569 9.70785 7.84965L11.2078 8.92965C11.5386 9.16778 12 8.93143 12 8.52388V3.47612C12 3.06857 11.5386 2.83222 11.2078 3.07035L9.70785 4.15035Z" fill="#18202A"/>
<path fill-rule="evenodd" clip-rule="evenodd" d="M3.75 4.98276L3.75 7.01546L5.19584 5.99966L3.75 4.98276ZM3.78765 4.09231L5.91821 5.5908C6.20143 5.79 6.20133 6.20984 5.918 6.40889L3.78744 7.90576C3.45613 8.13853 3 7.90154 3 7.49663L3 4.50128C3 4.09626 3.45636 3.8593 3.78765 4.09231Z" fill="#18202A"/>
</svg>
