<svg width="12" height="12" viewBox="0 0 12 12" fill="none" xmlns="http://www.w3.org/2000/svg">
<g clip-path="url(#clip0_2266_39144)">
<path fill-rule="evenodd" clip-rule="evenodd" d="M8.26517 3.73483C8.41161 3.88128 8.41161 4.11872 8.26517 4.26517L4.26517 8.26517C4.11872 8.41161 3.88128 8.41161 3.73483 8.26517C3.58839 8.11872 3.58839 7.88128 3.73483 7.73483L7.73483 3.73483C7.88128 3.58839 8.11872 3.58839 8.26517 3.73483Z" fill="#18202A"/>
<path fill-rule="evenodd" clip-rule="evenodd" d="M3.73483 3.73483C3.88128 3.58839 4.11872 3.58839 4.26517 3.73483L8.26517 7.73483C8.41161 7.88128 8.41161 8.11872 8.26517 8.26517C8.11872 8.41161 7.88128 8.41161 7.73483 8.26517L3.73483 4.26517C3.58839 4.11872 3.58839 3.88128 3.73483 3.73483Z" fill="#18202A"/>
<path fill-rule="evenodd" clip-rule="evenodd" d="M6 10.75C8.62335 10.75 10.75 8.62335 10.75 6C10.75 3.37665 8.62335 1.25 6 1.25C3.37665 1.25 1.25 3.37665 1.25 6C1.25 8.62335 3.37665 10.75 6 10.75ZM11.5 6C11.5 9.03757 9.03757 11.5 6 11.5C2.96243 11.5 0.5 9.03757 0.5 6C0.5 2.96243 2.96243 0.5 6 0.5C9.03757 0.5 11.5 2.96243 11.5 6Z" fill="#18202A"/>
</g>
<defs>
<clipPath id="clip0_2266_39144">
<rect width="12" height="12" fill="white"/>
</clipPath>
</defs>
</svg>
