<svg width="12" height="12" viewBox="0 0 12 12" fill="none" xmlns="http://www.w3.org/2000/svg">
<g clip-path="url(#clip0_2266_38982)">
<path fill-rule="evenodd" clip-rule="evenodd" d="M6 4.625C6.20711 4.625 6.375 4.79289 6.375 5V10.0947L7.23483 9.23483C7.38128 9.08839 7.61872 9.08839 7.76517 9.23483C7.91161 9.38128 7.91161 9.61872 7.76517 9.76517L6.26516 11.2652C6.19484 11.3355 6.09946 11.375 6 11.375C5.90054 11.375 5.80516 11.3355 5.73483 11.2652L4.23484 9.76517C4.08839 9.61872 4.08839 9.38128 4.23484 9.23483C4.38128 9.08839 4.61872 9.08839 4.76517 9.23483L5.625 10.0947V5C5.625 4.79289 5.79289 4.625 6 4.625Z" fill="#18202A"/>
<path d="M8.63717 3.21712L8.80585 3.78647L9.39871 3.75286C9.43216 3.75097 9.46593 3.75 9.5 3.75C10.4665 3.75 11.25 4.5335 11.25 5.5C11.25 6.4665 10.4665 7.25 9.5 7.25H7.125V8H9.5C10.8807 8 12 6.88071 12 5.5C12 4.11929 10.8807 3 9.5 3C9.45176 3 9.40383 3.00137 9.35627 3.00406C8.92729 1.55623 7.587 0.5 6 0.5C4.413 0.5 3.07271 1.55623 2.64373 3.00406C2.59617 3.00137 2.54824 3 2.5 3C1.11929 3 0 4.11929 0 5.5C0 6.88071 1.11929 8 2.5 8H4.875V7.25H2.5C1.5335 7.25 0.75 6.4665 0.75 5.5C0.75 4.5335 1.5335 3.75 2.5 3.75C2.53407 3.75 2.56784 3.75097 2.60129 3.75286L3.19414 3.78647L3.36283 3.21712C3.70004 2.07902 4.75418 1.25 6 1.25C7.24582 1.25 8.29996 2.07902 8.63717 3.21712Z" fill="#18202A"/>
</g>
<defs>
<clipPath id="clip0_2266_38982">
<rect width="12" height="12" fill="white"/>
</clipPath>
</defs>
</svg>
