<svg width="12" height="12" viewBox="0 0 12 12" fill="none" xmlns="http://www.w3.org/2000/svg">
<g clip-path="url(#clip0_3291_8708)">
<g clip-path="url(#clip1_3291_8708)">
<path d="M4.55177 3.96827C4.35695 4.09815 4.25001 4.27047 4.25001 4.5C4.25001 4.70711 4.08212 4.875 3.87501 4.875C3.6679 4.875 3.50001 4.70711 3.50001 4.5C3.50001 3.97953 3.76807 3.58935 4.13575 3.34423C4.49231 3.10652 4.94438 3 5.37501 3C6.43537 3 7.25001 3.7718 7.25001 4.75C7.25001 5.25859 6.94224 5.76072 6.6642 6.1295C6.43988 6.42703 6.18475 6.69949 6.01923 6.87625C5.97281 6.92582 5.9334 6.96791 5.90374 7.00087C5.70909 7.21713 5.26859 7.68905 4.87994 8.10358L4.74257 8.25H6.87501C7.08212 8.25 7.25001 8.41789 7.25001 8.625C7.25001 8.83211 7.08212 9 6.87501 9H3.87501C3.72533 9 3.58999 8.91099 3.53069 8.77356C3.47139 8.63613 3.4995 8.4766 3.6022 8.36771L3.8215 8.13488C3.95553 7.99245 4.1382 7.79815 4.33281 7.59059C4.7234 7.17401 5.1579 6.70843 5.34628 6.49913C5.38827 6.45248 5.43732 6.40004 5.49131 6.34232C5.65668 6.16554 5.86841 5.93918 6.06534 5.67799C6.33579 5.31927 6.50001 4.99141 6.50001 4.75C6.50001 4.2282 6.06464 3.75 5.37501 3.75C5.05564 3.75 4.75771 3.83098 4.55177 3.96827Z" fill="#18202A"/>
<path d="M2.03407 3.03541C2.16584 3.09713 2.25001 3.2295 2.25001 3.375V8.625C2.25001 8.83211 2.08212 9 1.87501 9C1.6679 9 1.50001 8.83211 1.50001 8.625V4.17565L0.615079 4.91309C0.455975 5.04567 0.219513 5.02418 0.0869264 4.86507C-0.0456601 4.70597 -0.0241636 4.46951 0.13494 4.33692L1.63494 3.08692C1.74672 2.99377 1.9023 2.97369 2.03407 3.03541Z" fill="#18202A"/>
<path d="M9.30176 3.96827C9.10694 4.09815 9 4.27047 9 4.5C9 4.70711 8.83211 4.875 8.625 4.875C8.41789 4.875 8.25 4.70711 8.25 4.5C8.25 3.97953 8.51806 3.58935 8.88574 3.34423C9.2423 3.10652 9.69437 3 10.125 3C10.6315 3 11.0961 3.14478 11.4415 3.42928C11.7928 3.71856 12 4.13685 12 4.625C12 5.25442 11.7152 5.71349 11.2861 5.99953L11.2854 6.00002L11.2861 6.00051C11.7152 6.28654 12 6.7456 12 7.37503C12 7.7609 11.8922 8.07548 11.709 8.32161C11.5289 8.5635 11.2934 8.71616 11.0714 8.81268C10.6403 9.00012 10.2025 9.00004 10.1268 9.00003H10.125C9.7732 9.00003 9.32605 8.93131 8.95273 8.71517C8.55901 8.48722 8.25 8.09187 8.25 7.5C8.25 7.29289 8.41789 7.125 8.625 7.125C8.83211 7.125 9 7.29289 9 7.5C9 7.78313 9.12849 7.95029 9.32852 8.06611C9.54895 8.19373 9.8518 8.25003 10.125 8.25003C10.1795 8.25003 10.4882 8.24843 10.7724 8.12488C10.9097 8.06514 11.0258 7.98343 11.1074 7.87375C11.1859 7.76832 11.25 7.61416 11.25 7.37503C11.25 7.00445 11.0973 6.77602 10.8701 6.62455C10.624 6.46045 10.2675 6.37503 9.875 6.37503C9.66789 6.37503 9.5 6.20713 9.5 6.00003C9.5 5.79292 9.66789 5.62503 9.875 5.62503C10.2675 5.62503 10.624 5.53959 10.8701 5.3755C11.0973 5.22402 11.25 4.99558 11.25 4.625C11.25 4.36315 11.1447 4.15644 10.9647 4.00822C10.7789 3.85522 10.4935 3.75 10.125 3.75C9.80563 3.75 9.5077 3.83098 9.30176 3.96827Z" fill="#18202A"/>
</g>
</g>
<defs>
<clipPath id="clip0_3291_8708">
<rect width="12" height="12" fill="white"/>
</clipPath>
<clipPath id="clip1_3291_8708">
<rect width="12" height="12" fill="white"/>
</clipPath>
</defs>
</svg>
