<svg width="12" height="12" viewBox="0 0 12 12" fill="none" xmlns="http://www.w3.org/2000/svg">
<path d="M5 1.5C3.43379 1.5 2.5 2.7657 2.5 4C2.5 4.16716 2.51713 4.33491 2.55063 4.5H3.58234C3.52818 4.3401 3.5 4.17083 3.5 4C3.5 3.2343 4.06621 2.5 5 2.5H7C7.42583 2.5 7.82307 2.60797 8.09765 2.79103C8.35741 2.9642 8.5 3.19395 8.5 3.5C8.5 3.77614 8.72386 4 9 4C9.27614 4 9.5 3.77614 9.5 3.5C9.5 2.80605 9.14259 2.2858 8.65235 1.95897C8.17693 1.64203 7.57417 1.5 7 1.5H5Z" fill="#18202A"/>
<path d="M1 6C1 5.72386 1.22386 5.5 1.5 5.5H10.5C10.7761 5.5 11 5.72386 11 6C11 6.27614 10.7761 6.5 10.5 6.5H9.4905C9.82031 6.90591 10 7.41735 10 8C10 8.78321 9.65917 9.42823 9.09329 9.86467C8.53962 10.2917 7.79871 10.5 7 10.5H4.5C2.93379 10.5 2 9.2343 2 8C2 7.72386 2.22386 7.5 2.5 7.5C2.77614 7.5 3 7.72386 3 8C3 8.7657 3.56621 9.5 4.5 9.5H7C7.63577 9.5 8.14486 9.33329 8.48256 9.07283C8.80807 8.82177 9 8.46679 9 8C9 7.52246 8.81582 7.16974 8.50359 6.92441C8.17811 6.66867 7.67275 6.5 7 6.5H1.5C1.22386 6.5 1 6.27614 1 6Z" fill="#18202A"/>
</svg>
