<svg width="12" height="12" viewBox="0 0 12 12" fill="none" xmlns="http://www.w3.org/2000/svg">
<path fill-rule="evenodd" clip-rule="evenodd" d="M6.18772 0.527432L11.0582 1.99241C11.321 2.07162 11.5003 2.30609 11.5 2.57133C11.5 9.05837 8.09737 10.6091 6.26895 11.4419C6.18395 11.4806 6.09216 11.5 6.00013 11.5C5.90809 11.5 5.81605 11.4806 5.7308 11.4419C3.90262 10.6089 0.5 9.05837 0.5 2.57133C0.5 2.30585 0.679297 2.07138 0.942082 1.99241L5.81253 0.527432C5.93474 0.490856 6.06551 0.490856 6.18772 0.527432ZM5.69581 3.44514C5.81857 3.18495 6.18143 3.18495 6.3042 3.44514L6.82018 4.53869L7.96197 4.71248C8.11156 4.73525 8.20407 4.84664 8.23575 4.95496C8.26734 5.06301 8.24888 5.19836 8.15065 5.29845L7.32014 6.14465L7.51766 7.34736C7.53892 7.47682 7.48737 7.60017 7.3939 7.67557C7.29847 7.75256 7.15493 7.78025 7.02458 7.70864L6 7.14575L4.97543 7.70864C4.84507 7.78025 4.70154 7.75256 4.60611 7.67557C4.51264 7.60017 4.46109 7.47682 4.48235 7.34736L4.67988 6.14454L3.84919 5.29697C3.75102 5.19681 3.73265 5.06143 3.76433 4.95339C3.7961 4.84508 3.88872 4.73374 4.03836 4.71112L5.1799 4.53855L5.69581 3.44514Z" fill="#18202A"/>
</svg>
