<svg width="12" height="12" viewBox="0 0 12 12" fill="none" xmlns="http://www.w3.org/2000/svg">
<path d="M4.5 1.5C4.5 1.77614 4.27614 2 4 2H3C2.44772 2 2 2.44772 2 3V9C2 9.55229 2.44772 10 3 10H9C9.55229 10 10 9.55229 10 9V8C10 7.72386 10.2239 7.5 10.5 7.5C10.7761 7.5 11 7.72386 11 8V9C11 10.1046 10.1046 11 9 11H3C1.89543 11 1 10.1046 1 9V3C1 1.89543 1.89543 1 3 1H4C4.27614 1 4.5 1.22386 4.5 1.5Z" fill="#18202A"/>
<path fill-rule="evenodd" clip-rule="evenodd" d="M6.375 1.5C6.375 1.22386 6.59886 1 6.875 1H10.5C10.7761 1 11 1.22386 11 1.5V5.125C11 5.40114 10.7761 5.625 10.5 5.625C10.2239 5.625 10 5.40114 10 5.125V2.70711L5.35355 7.35355C5.15829 7.54882 4.84171 7.54882 4.64645 7.35355C4.45118 7.15829 4.45118 6.84171 4.64645 6.64645L9.29289 2H6.875C6.59886 2 6.375 1.77614 6.375 1.5Z" fill="#18202A"/>
</svg>
