<svg width="12" height="12" viewBox="0 0 12 12" fill="none" xmlns="http://www.w3.org/2000/svg">
<g clip-path="url(#clip0_2266_38628)">
<path fill-rule="evenodd" clip-rule="evenodd" d="M6.51778 1.54289L1.51778 6.54289C1.12725 6.93342 1.12725 7.56658 1.51778 7.95711L4.0429 10.4822C4.43343 10.8728 5.06659 10.8728 5.45712 10.4822L10.4571 5.48223C10.6447 5.2947 10.75 5.04034 10.75 4.77513V1.75C10.75 1.47386 10.5262 1.25 10.25 1.25H7.22488C6.95967 1.25 6.70531 1.35536 6.51778 1.54289ZM9.75001 3.5C9.75001 4.19036 9.19036 4.75 8.50001 4.75C7.80965 4.75 7.25001 4.19036 7.25001 3.5C7.25001 2.80964 7.80965 2.25 8.50001 2.25C9.19036 2.25 9.75001 2.80964 9.75001 3.5ZM5.98745 1.01256L0.987448 6.01256C0.30403 6.69598 0.304029 7.80402 0.987447 8.48744L3.51257 11.0126C4.19599 11.696 5.30403 11.696 5.98745 11.0126L10.9874 6.01256C11.3156 5.68437 11.5 5.23926 11.5 4.77513V1.75C11.5 1.05964 10.9404 0.5 10.25 0.5H7.22488C6.76076 0.5 6.31564 0.684375 5.98745 1.01256ZM9.00001 3.5C9.00001 3.77614 8.77615 4 8.50001 4C8.22387 4 8.00001 3.77614 8.00001 3.5C8.00001 3.22386 8.22387 3 8.50001 3C8.77615 3 9.00001 3.22386 9.00001 3.5Z" fill="#18202A"/>
</g>
<defs>
<clipPath id="clip0_2266_38628">
<rect width="12" height="12" fill="white"/>
</clipPath>
</defs>
</svg>
