<svg width="12" height="12" viewBox="0 0 12 12" fill="none" xmlns="http://www.w3.org/2000/svg">
<g clip-path="url(#clip0_3394_8798)">
<g clip-path="url(#clip1_3394_8798)">
<path d="M9.49997 3.25C9.49997 3.66421 9.16418 4 8.74997 4C8.33576 4 7.99997 3.66421 7.99997 3.25C7.99997 2.83579 8.33576 2.5 8.74997 2.5C9.16418 2.5 9.49997 2.83579 9.49997 3.25Z" fill="#18202A"/>
<path fill-rule="evenodd" clip-rule="evenodd" d="M9.57138 1.15465L9.49472 0.779861C9.4614 0.61697 9.31809 0.5 9.15182 0.5H8.34813C8.18187 0.5 8.03855 0.61697 8.00523 0.779861L7.92857 1.15465C7.71711 1.23761 7.52125 1.35166 7.34662 1.49117L6.98314 1.36998C6.82541 1.31738 6.65246 1.38302 6.56932 1.527L6.16748 2.22302C6.08435 2.36701 6.11399 2.54961 6.2384 2.65991L6.52491 2.91393C6.50849 3.02357 6.49998 3.13579 6.49998 3.25C6.49998 3.36422 6.50849 3.47644 6.52491 3.58608L6.2384 3.8401C6.11399 3.9504 6.08435 4.133 6.16748 4.27699L6.56933 4.97301C6.65246 5.117 6.82542 5.18263 6.98314 5.13004L7.34664 5.00884C7.52126 5.14835 7.71711 5.26239 7.92857 5.34535L8.00523 5.72014C8.03855 5.88303 8.18187 6 8.34813 6H9.15182C9.31809 6 9.4614 5.88303 9.49472 5.72014L9.57138 5.34535C9.78284 5.2624 9.97869 5.14835 10.1533 5.00885L10.5168 5.13005C10.6745 5.18264 10.8475 5.11701 10.9306 4.97302L11.3325 4.27701C11.4156 4.13302 11.386 3.95041 11.2615 3.84011L10.975 3.5861C10.9915 3.47645 11 3.36422 11 3.25C11 3.13578 10.9915 3.02355 10.975 2.91391L11.2616 2.6599C11.386 2.5496 11.4156 2.367 11.3325 2.22301L10.9306 1.52699C10.8475 1.383 10.6745 1.31737 10.5168 1.36996L10.1533 1.49116C9.9787 1.35165 9.78284 1.23761 9.57138 1.15465ZM8.45109 1.59418L8.1477 1.7132C7.99304 1.77387 7.84944 1.85743 7.72114 1.95994L7.46629 2.16354L6.98692 2.00371L6.78912 2.34632L7.1665 2.6809L7.11829 3.0028C7.10626 3.08311 7.09998 3.16563 7.09998 3.25C7.09998 3.33437 7.10626 3.41689 7.11829 3.49721L7.1665 3.81911L6.78912 4.1537L6.98692 4.4963L7.4663 4.33647L7.72115 4.54007C7.84945 4.64258 7.99305 4.72613 8.1477 4.7868L8.45109 4.90582L8.55217 5.4H8.94778L9.04886 4.90582L9.35225 4.7868C9.5069 4.72613 9.6505 4.64258 9.7788 4.54008L10.0336 4.33648L10.513 4.49632L10.7108 4.15371L10.3334 3.81912L10.3817 3.49722C10.3937 3.4169 10.4 3.33437 10.4 3.25C10.4 3.16563 10.3937 3.08311 10.3817 3.00279L10.3335 2.68089L10.7108 2.3463L10.513 2.0037L10.0337 2.16353L9.77881 1.95993C9.65051 1.85742 9.50691 1.77387 9.35225 1.7132L9.04886 1.59418L8.94778 1.1H8.55217L8.45109 1.59418Z" fill="#18202A"/>
<path fill-rule="evenodd" clip-rule="evenodd" d="M3.99997 9.5C4.8284 9.5 5.49997 8.82843 5.49997 8C5.49997 7.17157 4.8284 6.5 3.99997 6.5C3.17154 6.5 2.49997 7.17157 2.49997 8C2.49997 8.82843 3.17154 9.5 3.99997 9.5ZM3.99997 8.75C4.41418 8.75 4.74997 8.41421 4.74997 8C4.74997 7.58579 4.41418 7.25 3.99997 7.25C3.58576 7.25 3.24997 7.58579 3.24997 8C3.24997 8.41421 3.58576 8.75 3.99997 8.75Z" fill="#18202A"/>
<path fill-rule="evenodd" clip-rule="evenodd" d="M7.55025 6.6493L6.94485 5.6007C6.86111 5.45567 6.68637 5.39027 6.52799 5.4447L5.88465 5.66579C5.64398 5.47122 5.37261 5.31312 5.07894 5.19988L4.9489 4.53301C4.91684 4.36864 4.77284 4.25 4.60537 4.25H3.39455C3.22708 4.25 3.08308 4.36864 3.05102 4.53301L2.92098 5.19988C2.62729 5.31313 2.35589 5.47125 2.1152 5.66585L1.47188 5.44477C1.3135 5.39034 1.13876 5.45573 1.05502 5.60077L0.449617 6.64936C0.365881 6.7944 0.39662 6.97843 0.522947 7.08837L1.03582 7.53475C1.01221 7.68637 0.999961 7.84175 0.999961 8C0.999961 8.15828 1.01222 8.31369 1.03583 8.46534L0.522986 8.91169C0.396659 9.02164 0.36592 9.20567 0.449656 9.3507L1.05506 10.3993C1.1388 10.5443 1.31354 10.6097 1.47192 10.5553L2.11526 10.3342C2.35594 10.5288 2.62731 10.6869 2.92098 10.8001L3.05102 11.467C3.08308 11.6314 3.22708 11.75 3.39455 11.75H4.60537C4.77284 11.75 4.91684 11.6314 4.9489 11.467L5.07894 10.8001C5.37258 10.6869 5.64393 10.5288 5.88459 10.3343L6.52795 10.5554C6.68633 10.6098 6.86107 10.5444 6.94481 10.3994L7.55021 9.35077C7.63395 9.20573 7.60321 9.0217 7.47688 8.91175L6.96407 8.46544C6.9877 8.31375 6.99996 8.15831 6.99996 8C6.99996 7.84172 6.9877 7.68631 6.96409 7.53465L7.47692 7.08831C7.60325 6.97836 7.63399 6.79433 7.55025 6.6493ZM3.57775 5.75047L3.19081 5.89966C2.97109 5.98438 2.76758 6.10286 2.58673 6.24908L2.26397 6.51003L1.53978 6.26115L1.2639 6.73898L1.84061 7.2409L1.77689 7.65013C1.75921 7.76372 1.74996 7.88053 1.74996 8C1.74996 8.1195 1.75921 8.23633 1.7769 8.34994L1.84063 8.75917L1.26394 9.26109L1.53982 9.73891L2.26402 9.49003L2.58678 9.75096C2.76762 9.89716 2.97111 10.0156 3.19081 10.1003L3.57775 10.2495L3.72409 11H4.27583L4.42217 10.2495L4.80911 10.1003C5.02879 10.0156 5.23226 9.89718 5.41309 9.75101L5.73584 9.4901L6.46005 9.73898L6.73593 9.26115L6.15926 8.75926L6.22301 8.35001C6.24071 8.23638 6.24996 8.11952 6.24996 8C6.24996 7.8805 6.24071 7.76367 6.22302 7.65006L6.15929 7.24082L6.73597 6.73891L6.46009 6.26109L5.7359 6.50996L5.41314 6.24903C5.2323 6.10284 5.02881 5.98437 4.80911 5.89966L4.42217 5.75047L4.27583 5H3.72409L3.57775 5.75047Z" fill="#18202A"/>
</g>
</g>
<defs>
<clipPath id="clip0_3394_8798">
<rect width="12" height="12" fill="white"/>
</clipPath>
<clipPath id="clip1_3394_8798">
<rect width="12" height="12" fill="white"/>
</clipPath>
</defs>
</svg>
