<svg width="12" height="12" viewBox="0 0 12 12" fill="none" xmlns="http://www.w3.org/2000/svg">
<g clip-path="url(#clip0_2266_40404)">
<path fill-rule="evenodd" clip-rule="evenodd" d="M6 10.75C8.62335 10.75 10.75 8.62335 10.75 6C10.75 3.37665 8.62335 1.25 6 1.25C3.37665 1.25 1.25 3.37665 1.25 6C1.25 8.62335 3.37665 10.75 6 10.75ZM11.5 6C11.5 9.03757 9.03757 11.5 6 11.5C2.96243 11.5 0.5 9.03757 0.5 6C0.5 2.96243 2.96243 0.5 6 0.5C9.03757 0.5 11.5 2.96243 11.5 6Z" fill="#18202A"/>
<path d="M5.625 2.875C5.625 2.66789 5.79289 2.5 6 2.5C6.20711 2.5 6.375 2.66789 6.375 2.875V6C6.375 6.20711 6.20711 6.375 6 6.375C5.79289 6.375 5.625 6.20711 5.625 6V2.875Z" fill="#18202A"/>
<path d="M8.625 5.625C8.83211 5.625 9 5.79289 9 6C9 6.20711 8.83211 6.375 8.625 6.375H6C5.79289 6.375 5.625 6.20711 5.625 6C5.625 5.79289 5.79289 5.625 6 5.625H8.625Z" fill="#18202A"/>
</g>
<defs>
<clipPath id="clip0_2266_40404">
<rect width="12" height="12" fill="white"/>
</clipPath>
</defs>
</svg>
