<svg width="12" height="12" viewBox="0 0 12 12" fill="none" xmlns="http://www.w3.org/2000/svg">
<g clip-path="url(#clip0_3240_8965)">
<path d="M2.06222 8.34428L1.52305 8.88344C1.34284 8.63912 1.20441 8.35762 1.12108 8.04665L0.0858058 4.18294C-0.271548 2.84928 0.519908 1.47844 1.85357 1.12108L5.71728 0.0858059C6.99215 -0.255797 8.30101 0.452368 8.72607 1.68043L8.11896 2.28753L8.05469 2.04769C7.80455 1.11412 6.84496 0.560102 5.91139 0.81025L2.04769 1.84553C1.11412 2.09567 0.560102 3.05526 0.81025 3.98883L1.84553 7.85253C1.89345 8.03137 1.9674 8.19628 2.06222 8.34428Z" fill="#18202A"/>
<path fill-rule="evenodd" clip-rule="evenodd" d="M11.3895 1.14407L9.52267 3.0109L9.72144 3.02829C11.0969 3.14862 12.1144 4.36121 11.994 5.73666L11.6454 9.72144C11.5251 11.0969 10.3125 12.1144 8.93704 11.994L4.95226 11.6454C3.86938 11.5507 3.00838 10.779 2.74981 9.78376L1.14407 11.3895C0.996734 11.5368 0.757851 11.5368 0.610512 11.3895C0.463173 11.2422 0.463173 11.0033 0.610512 10.8559L10.8559 0.610504C11.0033 0.463165 11.2422 0.463165 11.3895 0.610504C11.5368 0.757843 11.5368 0.996727 11.3895 1.14407ZM5.40093 7.36504L4.54687 7.9867L5.84631 6.68725C6.44382 6.63989 6.9373 6.16698 6.99127 5.55003L6.99199 5.54158L8.83037 3.70319L9.65607 3.77543C10.6189 3.85967 11.3311 4.70848 11.2469 5.6713L10.9811 8.70887L9.12251 6.47679L6.5876 8.30604L5.40093 7.36504ZM3.49931 9.67685L5.38151 8.30682L6.56628 9.24632L8.99394 7.49446L10.8737 9.75188L10.889 9.73907C10.7648 10.6595 9.93734 11.3287 9.0024 11.2469L5.01763 10.8983C4.28954 10.8346 3.70475 10.3337 3.49931 9.67685Z" fill="#18202A"/>
<path d="M4.56244 5.84406L6.14899 4.25751C6.05581 4.22587 5.95738 4.2048 5.85498 4.19584C5.16725 4.13567 4.56096 4.64441 4.50079 5.33214C4.48514 5.51101 4.50797 5.68438 4.56244 5.84406Z" fill="#18202A"/>
<path d="M3.77543 5.01763L3.62074 6.78575L2.7957 7.6108L3.02828 4.95226C3.14862 3.5768 4.3612 2.55933 5.73666 2.67966L7.56672 2.83977L6.87442 3.53207L5.67129 3.42681C4.70847 3.34257 3.85967 4.05481 3.77543 5.01763Z" fill="#18202A"/>
</g>
<defs>
<clipPath id="clip0_3240_8965">
<rect width="12" height="12" fill="white"/>
</clipPath>
</defs>
</svg>
