<svg width="12" height="12" viewBox="0 0 12 12" fill="none" xmlns="http://www.w3.org/2000/svg">
<path fill-rule="evenodd" clip-rule="evenodd" d="M5 5.125C5.20711 5.125 5.375 5.29289 5.375 5.5V8.5C5.375 8.70711 5.20711 8.875 5 8.875C4.79289 8.875 4.625 8.70711 4.625 8.5V5.5C4.625 5.29289 4.79289 5.125 5 5.125Z" fill="#18202A"/>
<path fill-rule="evenodd" clip-rule="evenodd" d="M7 5.125C7.20711 5.125 7.375 5.29289 7.375 5.5V8.5C7.375 8.70711 7.20711 8.875 7 8.875C6.79289 8.875 6.625 8.70711 6.625 8.5V5.5C6.625 5.29289 6.79289 5.125 7 5.125Z" fill="#18202A"/>
<path fill-rule="evenodd" clip-rule="evenodd" d="M9.25 3.25H2.75V8.5C2.75 9.74264 3.75736 10.75 5 10.75H7C8.24264 10.75 9.25 9.74264 9.25 8.5V3.25ZM2 2.5V8.5C2 10.1569 3.34315 11.5 5 11.5H7C8.65685 11.5 10 10.1569 10 8.5V2.5H2Z" fill="#18202A"/>
<path d="M1 2.875C1 2.66789 1.16789 2.5 1.375 2.5H10.625C10.8321 2.5 11 2.66789 11 2.875C11 3.08211 10.8321 3.25 10.625 3.25H1.375C1.16789 3.25 1 3.08211 1 2.875Z" fill="#18202A"/>
<path fill-rule="evenodd" clip-rule="evenodd" d="M6.5 1.25H5.5C5.08579 1.25 4.75 1.58579 4.75 2V2.5H7.25V2C7.25 1.58579 6.91421 1.25 6.5 1.25ZM5.5 0.5C4.67157 0.5 4 1.17157 4 2V3.25H8V2C8 1.17157 7.32843 0.5 6.5 0.5H5.5Z" fill="#18202A"/>
</svg>
