<svg width="12" height="12" viewBox="0 0 12 12" fill="none" xmlns="http://www.w3.org/2000/svg">
<path d="M5 6C5 6.55228 4.55228 7 4 7C3.44772 7 3 6.55228 3 6C3 5.44772 3.44772 5 4 5C4.55228 5 5 5.44772 5 6Z" fill="#18202A"/>
<path d="M3.625 7.5C3.00368 7.5 2.5 8.00368 2.5 8.625C2.5 8.83211 2.66789 9 2.875 9H5.125C5.33211 9 5.5 8.83211 5.5 8.625C5.5 8.00368 4.99632 7.5 4.375 7.5H3.625Z" fill="#18202A"/>
<path d="M6.875 6C6.66789 6 6.5 6.16789 6.5 6.375C6.5 6.58211 6.66789 6.75 6.875 6.75H9.125C9.33211 6.75 9.5 6.58211 9.5 6.375C9.5 6.16789 9.33211 6 9.125 6H6.875Z" fill="#18202A"/>
<path d="M6.5 7.875C6.5 7.66789 6.66789 7.5 6.875 7.5H9.12499C9.3321 7.5 9.49999 7.66789 9.49999 7.875C9.49999 8.08211 9.3321 8.25 9.12499 8.25H6.875C6.66789 8.25 6.5 8.08211 6.5 7.875Z" fill="#18202A"/>
<path fill-rule="evenodd" clip-rule="evenodd" d="M4.5 2C4.5 1.17157 5.17157 0.5 6 0.5C6.82843 0.5 7.5 1.17157 7.5 2H9.5C10.6046 2 11.5 2.89543 11.5 4V9C11.5 10.1046 10.6046 11 9.5 11H2.5C1.39543 11 0.5 10.1046 0.5 9V4C0.5 2.89543 1.39543 2 2.5 2L4.5 2ZM6 1.25C6.41421 1.25 6.75 1.58579 6.75 2V3.25H5.25V2C5.25 1.58579 5.58579 1.25 6 1.25ZM10.75 4C10.75 3.30964 10.1904 2.75 9.5 2.75H7.5V3.5C7.5 3.77614 7.27614 4 7 4H5C4.72386 4 4.5 3.77614 4.5 3.5V2.75H2.5C1.80964 2.75 1.25 3.30964 1.25 4V9C1.25 9.69036 1.80964 10.25 2.5 10.25H9.5C10.1904 10.25 10.75 9.69036 10.75 9V4Z" fill="#18202A"/>
</svg>
