<svg width="12" height="12" viewBox="0 0 12 12" fill="none" xmlns="http://www.w3.org/2000/svg">
<path fill-rule="evenodd" clip-rule="evenodd" d="M9.99507 3.37756C9.93277 2.6064 9.2872 2 8.5 2H3.5C2.7128 2 2.06722 2.6064 2.00493 3.37756C1.72378 3.62698 1.53701 3.98042 1.50493 4.37756C1.19519 4.65235 1 5.05338 1 5.5V9.5C1 10.3284 1.67157 11 2.5 11H9.5C10.3284 11 11 10.3284 11 9.5V5.5C11 5.05338 10.8048 4.65235 10.4951 4.37756C10.463 3.98042 10.2762 3.62698 9.99507 3.37756ZM9.06008 3.00118C8.92272 2.84706 8.7227 2.75 8.5 2.75H3.5C3.27731 2.75 3.07728 2.84706 2.93992 3.00118C2.95985 3.0004 2.97988 3 3 3H9C9.02012 3 9.04016 3.0004 9.06008 3.00118ZM2.5 4C2.47988 4 2.45985 4.0004 2.43992 4.00118C2.57728 3.84706 2.77731 3.75 3 3.75H9C9.2227 3.75 9.42272 3.84706 9.56008 4.00118C9.54016 4.0004 9.52012 4 9.5 4H2.5ZM6 5C6.27614 5 6.5 5.22386 6.5 5.5V7H8C8.27614 7 8.5 7.22386 8.5 7.5C8.5 7.77614 8.27614 8 8 8H6.5V9.5C6.5 9.77614 6.27614 10 6 10C5.72386 10 5.5 9.77614 5.5 9.5V8H4C3.72386 8 3.5 7.77614 3.5 7.5C3.5 7.22386 3.72386 7 4 7H5.5V5.5C5.5 5.22386 5.72386 5 6 5Z" fill="#18202A"/>
</svg>
