<svg width="12" height="12" viewBox="0 0 12 12" fill="none" xmlns="http://www.w3.org/2000/svg">
<g clip-path="url(#clip0_2266_38692)">
<path fill-rule="evenodd" clip-rule="evenodd" d="M12 6C12 6.42865 11.955 6.8468 11.8696 7.25H11.3573C10.8846 9.28374 9.28375 10.8846 7.25 11.3572V10.5837C8.86861 10.1434 10.1434 8.86859 10.5838 7.25H8.72794C8.42858 7.9022 7.90221 8.42855 7.25 8.72789V7.87102C7.49547 7.70671 7.7068 7.49538 7.87112 7.24991C7.91798 7.17989 7.96108 7.10708 8 7.0318C8.08594 6.86555 8.15177 6.68721 8.19425 6.5C8.23073 6.33919 8.25 6.17185 8.25 6C8.25 5.82815 8.23073 5.66081 8.19425 5.5C8.15177 5.31279 8.08594 5.13445 8 4.9682C7.96107 4.89289 7.918 4.82005 7.87111 4.75H11.8696C11.955 5.1532 12 5.57135 12 6ZM11.2266 6.5H8.95841C8.98576 6.33728 9 6.17021 9 6C9 5.82979 8.98576 5.66272 8.95841 5.5H11.2266C11.2421 5.66443 11.25 5.8312 11.25 6C11.25 6.1688 11.2421 6.33557 11.2266 6.5Z" fill="#18202A"/>
<path fill-rule="evenodd" clip-rule="evenodd" d="M6 0C6.42865 0 6.8468 0.0449502 7.25 0.130394V4.12889C7.17995 4.082 7.10711 4.03893 7.0318 4C6.86555 3.91406 6.68721 3.84823 6.5 3.80575C6.33919 3.76927 6.17185 3.75 6 3.75C5.82815 3.75 5.66081 3.76927 5.5 3.80575C5.31279 3.84823 5.13445 3.91406 4.9682 4C4.89289 4.03893 4.82005 4.082 4.75 4.12889C4.50453 4.2932 4.2932 4.50444 4.12889 4.74991H3.27202C3.57138 4.09767 4.09777 3.57129 4.75 3.27193V1.4161C3.13137 1.85646 1.85655 3.13128 1.41619 4.74991H0.64267C1.11533 2.71613 2.71622 1.11524 4.75 0.642578L4.75 0.130394C5.1532 0.0449502 5.57135 0 6 0ZM6.5 0.773449V3.04159C6.33728 3.01424 6.17021 3 6 3C5.82979 3 5.66272 3.01424 5.5 3.04159V0.773449C5.66443 0.757942 5.8312 0.75 6 0.75C6.1688 0.75 6.33557 0.757942 6.5 0.773449Z" fill="#18202A"/>
<path fill-rule="evenodd" clip-rule="evenodd" d="M0 6C0 5.57135 0.0449502 5.1532 0.130394 4.75L4.12889 4.74991C4.082 4.81996 4.03893 4.89289 4 4.9682C3.91406 5.13445 3.84823 5.31279 3.80575 5.5C3.76927 5.66081 3.75 5.82815 3.75 6C3.75 6.17185 3.76927 6.33919 3.80575 6.5C3.84823 6.68721 3.91406 6.86555 4 7.0318C4.03892 7.10708 4.08196 7.17988 4.12883 7.24991C4.29314 7.49538 4.50453 7.70671 4.75 7.87102C4.82006 7.91792 4.89289 7.96107 4.9682 8C5.13445 8.08594 5.31279 8.15177 5.5 8.19425C5.66081 8.23073 5.82815 8.25 6 8.25C6.17185 8.25 6.33919 8.23073 6.5 8.19425C6.68721 8.15177 6.86555 8.08594 7.0318 8C7.10711 7.96107 7.17995 7.91792 7.25 7.87102L7.25 11.8696C6.8468 11.955 6.42865 12 6 12C5.57135 12 5.1532 11.9551 4.75 11.8696L4.75 11.3572C2.71625 10.8846 1.11537 9.28374 0.64269 7.25H0.130394C0.0449502 6.8468 0 6.42865 0 6ZM1.41622 7.25C1.8566 8.86859 3.1314 10.1434 4.75 10.5837V8.72789C4.0978 8.42855 3.57143 7.9022 3.27206 7.25H1.41622ZM0.773449 5.5H3.04159C3.01424 5.66272 3 5.82979 3 6C3 6.17021 3.01424 6.33728 3.04159 6.5H0.773449C0.757942 6.33557 0.75 6.1688 0.75 6C0.75 5.8312 0.757942 5.66443 0.773449 5.5ZM5.5 11.2266V8.95841C5.66272 8.98576 5.82979 9 6 9C6.17021 9 6.33727 8.98576 6.5 8.95841V11.2266C6.33557 11.2421 6.1688 11.25 6 11.25C5.8312 11.25 5.66443 11.2421 5.5 11.2266Z" fill="#18202A"/>
<path d="M10.5838 4.74991H11.3573C10.8847 2.71613 9.28378 1.11523 7.25 0.642578V1.4161C8.86864 1.85646 10.1435 3.13128 10.5838 4.74991Z" fill="#18202A"/>
<path d="M7.87111 4.75C7.7068 4.50453 7.49547 4.2932 7.25 4.12889L7.25 3.27193C7.90224 3.57129 8.42863 4.09767 8.72798 4.74991L7.87111 4.75Z" fill="#18202A"/>
</g>
<defs>
<clipPath id="clip0_2266_38692">
<rect width="12" height="12" fill="white"/>
</clipPath>
</defs>
</svg>
