<svg width="12" height="12" viewBox="0 0 12 12" fill="none" xmlns="http://www.w3.org/2000/svg">
<path fill-rule="evenodd" clip-rule="evenodd" d="M5.15106 11.2169C4.90571 11.0331 4.72648 10.7747 4.64018 10.4806L5.35984 10.2694C5.40055 10.4082 5.48507 10.53 5.6007 10.6166C5.71634 10.7032 5.85687 10.75 6.00126 10.75C6.14565 10.75 6.28618 10.7032 6.40181 10.6166C6.51745 10.53 6.60197 10.4082 6.64268 10.2694L7.36234 10.4806C7.27603 10.7747 7.09681 11.0331 6.85145 11.2169C6.60609 11.4007 6.30781 11.5 6.00126 11.5C5.69471 11.5 5.39642 11.4007 5.15106 11.2169Z" fill="#18202A"/>
<path fill-rule="evenodd" clip-rule="evenodd" d="M6.00001 0.625C6.20711 0.625 6.37501 0.792893 6.37501 1V1.5C6.37501 1.70711 6.20711 1.875 6.00001 1.875C5.7929 1.875 5.62501 1.70711 5.62501 1.5V1C5.62501 0.792893 5.7929 0.625 6.00001 0.625Z" fill="#18202A"/>
<path fill-rule="evenodd" clip-rule="evenodd" d="M3.24164 2.61578C2.51007 3.33021 2.09908 4.29918 2.09908 5.30952C2.09908 7.19954 1.6335 8.31512 1.24936 8.91389C1.11836 9.11809 1.28127 9.5 1.52388 9.5H10.4761C10.7188 9.5 10.8817 9.11809 10.7507 8.91389C10.3665 8.31512 9.90094 7.19955 9.90094 5.30952C9.90094 4.29918 9.48995 3.33021 8.75838 2.61578C8.02682 1.90136 7.0346 1.5 6.00001 1.5C4.96542 1.5 3.9732 1.90136 3.24164 2.61578ZM6.00001 2.25C5.15867 2.25 4.35526 2.57656 3.76564 3.15236C3.17662 3.72758 2.84908 4.5039 2.84908 5.30952C2.84908 6.87959 2.54716 7.98998 2.19234 8.75H9.80768C9.45286 7.98998 9.15094 6.87959 9.15094 5.30952C9.15094 4.5039 8.82339 3.72758 8.23438 3.15236C7.64475 2.57656 6.84135 2.25 6.00001 2.25Z" fill="#18202A"/>
</svg>
