<svg width="12" height="12" viewBox="0 0 12 12" fill="none" xmlns="http://www.w3.org/2000/svg">
<path fill-rule="evenodd" clip-rule="evenodd" d="M10.6587 6.17659C10.4755 7.09799 10.0231 7.94436 9.35884 8.60867L7.11921 11.0303C6.9723 11.1773 6.79787 11.294 6.60587 11.3735C6.4138 11.4532 6.20792 11.4941 6 11.4941C5.79208 11.4941 5.5862 11.4532 5.39413 11.3735C5.20205 11.2939 5.02755 11.1772 4.88061 11.0301L2.64116 8.60867C1.97688 7.94436 1.52451 7.09799 1.34125 6.17659C1.15799 5.25518 1.25207 4.30013 1.6116 3.4322C1.97112 2.56426 2.57994 1.82243 3.36107 1.3005C4.1422 0.778576 5.06055 0.5 6 0.5C6.93945 0.5 7.8578 0.778576 8.63893 1.3005C9.42006 1.82243 10.0289 2.56426 10.3884 3.4322C10.7479 4.30013 10.842 5.25518 10.6587 6.17659ZM7 5C7 5.55228 6.55228 6 6 6C5.44772 6 5 5.55228 5 5C5 4.44772 5.44772 4 6 4C6.55228 4 7 4.44772 7 5ZM8 5C8 6.10457 7.10457 7 6 7C4.89543 7 4 6.10457 4 5C4 3.89543 4.89543 3 6 3C7.10457 3 8 3.89543 8 5Z" fill="#18202A"/>
</svg>
