<svg width="12" height="12" viewBox="0 0 12 12" fill="none" xmlns="http://www.w3.org/2000/svg">
<path fill-rule="evenodd" clip-rule="evenodd" d="M7.49995 3.75C7.49995 5 6.99995 6 5.99995 6C4.99995 6 4.49995 5 4.49995 3.75C4.49995 2.75 4.99995 2 5.99995 2C6.99995 2 7.49995 2.75 7.49995 3.75ZM6.74995 3.75C6.74995 4.29027 6.63956 4.70148 6.48621 4.95068C6.35174 5.16919 6.20185 5.25 5.99995 5.25C5.79806 5.25 5.64817 5.16919 5.5137 4.95068C5.36034 4.70148 5.24995 4.29027 5.24995 3.75C5.24995 3.36439 5.34733 3.11011 5.46061 2.96852C5.55586 2.84946 5.70714 2.75 5.99995 2.75C6.29277 2.75 6.44405 2.84946 6.5393 2.96852C6.65258 3.11011 6.74995 3.36439 6.74995 3.75Z" fill="#18202A"/>
<path d="M6.60568 10.9799C6.48737 10.749 6.39589 10.5021 6.33533 10.2433C6.22412 10.2478 6.11232 10.25 5.99995 10.25C5.58353 10.25 5.17476 10.2192 4.77571 10.1599C4.38844 10.1023 4.06084 9.85698 3.9028 9.51138C3.81779 9.32548 3.74043 9.13539 3.6711 8.94149C3.50818 8.48586 3.66542 8.04124 3.98143 7.83895C4.56372 7.46619 5.25545 7.25 5.99995 7.25C6.3562 7.25 6.70037 7.2995 7.02625 7.39197C7.21242 7.17372 7.42696 6.98042 7.66417 6.81776C7.14938 6.61273 6.58783 6.5 5.99995 6.5C5.1079 6.5 4.27647 6.75956 3.57707 7.20729C2.9222 7.6265 2.70309 8.46185 2.96489 9.19401C3.04145 9.40813 3.12688 9.61804 3.22074 9.82328C3.48671 10.4049 4.03281 10.8077 4.66544 10.9017C5.10088 10.9665 5.5465 11 5.99995 11C6.20351 11 6.40549 10.9932 6.60568 10.9799Z" fill="#18202A"/>
<path fill-rule="evenodd" clip-rule="evenodd" d="M3.99995 4.8125C3.99995 5.75 3.58329 6.5 2.74995 6.5C1.91662 6.5 1.49995 5.75 1.49995 4.8125C1.49995 4.0625 1.91662 3.5 2.74995 3.5C3.58329 3.5 3.99995 4.0625 3.99995 4.8125ZM3.24995 4.8125C3.24995 5.18395 3.16541 5.44253 3.06834 5.58449C2.99171 5.69656 2.905 5.75 2.74995 5.75C2.59491 5.75 2.50819 5.69656 2.43156 5.58449C2.3345 5.44253 2.24995 5.18395 2.24995 4.8125C2.24995 4.56988 2.31697 4.43632 2.37301 4.37327C2.41733 4.32341 2.51255 4.25 2.74995 4.25C2.98736 4.25 3.08258 4.32341 3.1269 4.37327C3.18294 4.43632 3.24995 4.56988 3.24995 4.8125Z" fill="#18202A"/>
<path fill-rule="evenodd" clip-rule="evenodd" d="M8.67891 6.3546C8.94116 6.28633 9.21631 6.25 9.49994 6.25C9.64719 6.25 9.79215 6.25979 9.93421 6.27876C10.3114 5.98905 10.5 5.44321 10.5 4.8125C10.5 4.0625 10.0833 3.5 9.24995 3.5C8.41662 3.5 7.99995 4.0625 7.99995 4.8125C7.99995 5.50343 8.22627 6.09252 8.67891 6.3546ZM9.74995 4.8125C9.74995 5.18395 9.66541 5.44253 9.56834 5.58449C9.49172 5.69656 9.405 5.75 9.24995 5.75C9.09491 5.75 9.00819 5.69656 8.93156 5.58449C8.8345 5.44253 8.74995 5.18395 8.74995 4.8125C8.74995 4.56988 8.81697 4.43632 8.87301 4.37327C8.91733 4.32341 9.01255 4.25 9.24995 4.25C9.48736 4.25 9.58258 4.32341 9.6269 4.37327C9.68294 4.43632 9.74995 4.56988 9.74995 4.8125Z" fill="#18202A"/>
<path d="M2.67998 7C2.08108 7.00228 1.51321 7.13619 1.0038 7.37429C0.420274 7.64703 0.184812 8.33589 0.381815 8.94915C0.55418 9.48571 1.02225 9.86266 1.58157 9.9317C1.87591 9.96804 2.17466 9.99016 2.4771 9.99737C2.39831 9.81685 2.32542 9.63315 2.25868 9.4465C2.2338 9.37693 2.21198 9.30632 2.19323 9.23495C2.01837 9.22446 1.84506 9.20854 1.67346 9.18735C1.39525 9.15301 1.17617 8.96971 1.09588 8.71977C0.993734 8.40181 1.1378 8.13954 1.32138 8.05373C1.60572 7.92083 1.91272 7.82781 2.23568 7.78216C2.33023 7.49919 2.47781 7.23259 2.67998 7Z" fill="#18202A"/>
<path fill-rule="evenodd" clip-rule="evenodd" d="M9.49994 12C10.8807 12 11.9999 10.8807 11.9999 9.5C11.9999 8.11929 10.8807 7 9.49994 7C8.11923 7 6.99994 8.11929 6.99994 9.5C6.99994 10.8807 8.11923 12 9.49994 12ZM9.87494 8.375C9.87494 8.16789 9.70705 8 9.49994 8C9.29283 8 9.12494 8.16789 9.12494 8.375V9.125H8.37494C8.16783 9.125 7.99994 9.29289 7.99994 9.5C7.99994 9.70711 8.16783 9.875 8.37494 9.875H9.12494V10.625C9.12494 10.8321 9.29283 11 9.49994 11C9.70705 11 9.87494 10.8321 9.87494 10.625V9.875H10.6249C10.832 9.875 10.9999 9.70711 10.9999 9.5C10.9999 9.29289 10.832 9.125 10.6249 9.125H9.87494V8.375Z" fill="#18202A"/>
</svg>
