<svg width="12" height="12" viewBox="0 0 12 12" fill="none" xmlns="http://www.w3.org/2000/svg">
<g clip-path="url(#clip0_3725_8784)">
<g clip-path="url(#clip1_3725_8784)">
<path fill-rule="evenodd" clip-rule="evenodd" d="M4.5 4.82353C4.5 4.64485 4.64485 4.5 4.82353 4.5H7.17647C7.35515 4.5 7.5 4.64485 7.5 4.82353V7.17647C7.5 7.35515 7.35515 7.5 7.17647 7.5H4.82353C4.64485 7.5 4.5 7.35515 4.5 7.17647V4.82353ZM5.14706 5.14706V6.85294H6.85294V5.14706H5.14706Z" fill="#18202A"/>
<path fill-rule="evenodd" clip-rule="evenodd" d="M5.01123 0.875C5.01123 0.667893 4.84334 0.5 4.63623 0.5C4.42912 0.5 4.26123 0.667893 4.26123 0.875V1.98877H3.27286C2.56368 1.98877 1.98877 2.56368 1.98877 3.27286V4.25H0.875C0.667893 4.25 0.5 4.41789 0.5 4.625C0.5 4.83211 0.667893 5 0.875 5H1.98877V6.5H0.875C0.667893 6.5 0.5 6.66789 0.5 6.875C0.5 7.08211 0.667893 7.25 0.875 7.25H1.98877V8.72741C1.98877 9.43659 2.56368 10.0115 3.27286 10.0115H4.26123V11.1452C4.26123 11.3411 4.42912 11.5 4.63623 11.5C4.84334 11.5 5.01123 11.3411 5.01123 11.1452V10.0115H6.98877V11.1452C6.98877 11.3411 7.15666 11.5 7.36377 11.5C7.57088 11.5 7.73877 11.3411 7.73877 11.1452V10.0115H8.72741C9.43659 10.0115 10.0115 9.43659 10.0115 8.72741V7.25H11.1452C11.3411 7.25 11.5 7.08211 11.5 6.875C11.5 6.66789 11.3411 6.5 11.1452 6.5H10.0115V5H11.1452C11.3411 5 11.5 4.83211 11.5 4.625C11.5 4.41789 11.3411 4.25 11.1452 4.25H10.0115V3.27286C10.0115 2.56368 9.43659 1.98877 8.72741 1.98877H7.73877V0.875C7.73877 0.667893 7.57088 0.5 7.36377 0.5C7.15666 0.5 6.98877 0.667893 6.98877 0.875V1.98877H5.01123V0.875ZM3.27286 2.73877C2.97789 2.73877 2.73877 2.97789 2.73877 3.27286V8.72741C2.73877 9.02238 2.97789 9.2615 3.27286 9.2615H8.72741C9.02238 9.2615 9.2615 9.02238 9.2615 8.72741V3.27286C9.2615 2.97789 9.02238 2.73877 8.72741 2.73877H3.27286Z" fill="#18202A"/>
</g>
</g>
<defs>
<clipPath id="clip0_3725_8784">
<rect width="12" height="12" fill="white"/>
</clipPath>
<clipPath id="clip1_3725_8784">
<rect width="12" height="12" fill="white"/>
</clipPath>
</defs>
</svg>
