<svg width="12" height="12" viewBox="0 0 12 12" fill="none" xmlns="http://www.w3.org/2000/svg">
<g clip-path="url(#clip0_2266_38526)">
<path d="M10.75 3.22736C10.3444 2.53249 9.78813 1.92978 9.11524 1.46732C8.03599 0.72557 6.72749 0.393253 5.4251 0.53014C4.12271 0.667027 2.91189 1.26413 2.01045 2.21406C1.109 3.16399 0.57608 4.40439 0.507542 5.71216C0.439004 7.01993 0.839347 8.30925 1.63656 9.3482C2.43377 10.3871 3.57554 11.1075 4.85649 11.3798C6.13744 11.6521 7.47351 11.4584 8.62438 10.8335C9.66525 10.2684 10.4928 9.38408 10.9887 8.31575C11.0758 8.12819 10.9782 7.91096 10.7852 7.83686C10.5922 7.76277 10.3769 7.85998 10.2878 8.0465C9.52322 9.64547 7.8906 10.75 6 10.75C3.37665 10.75 1.25 8.62336 1.25 6.00001C1.25 3.37666 3.37665 1.25001 6 1.25001C8.00535 1.25001 9.72045 2.4927 10.4172 4.25H7.375C7.16789 4.25 7 4.41789 7 4.625C7 4.83211 7.16789 5 7.375 5H11C11.2761 5 11.5 4.77614 11.5 4.5V0.875C11.5 0.667893 11.3321 0.5 11.125 0.5C10.9179 0.5 10.75 0.667893 10.75 0.875V3.22736Z" fill="#18202A"/>
</g>
<defs>
<clipPath id="clip0_2266_38526">
<rect width="12" height="12" fill="white"/>
</clipPath>
</defs>
</svg>
