<svg width="12" height="12" viewBox="0 0 12 12" fill="none" xmlns="http://www.w3.org/2000/svg">
<g clip-path="url(#clip0_3015_8729)">
<path fill-rule="evenodd" clip-rule="evenodd" d="M6 0.5C6.55228 0.5 7 0.947715 7 1.5C7 1.87014 6.7989 2.19331 6.5 2.36622V3H7.5C9.28166 3 10.7524 4.33125 10.9718 6.05331C11.0578 6.01892 11.1517 6 11.25 6C11.6642 6 12 6.33579 12 6.75V8.25C12 8.66421 11.6642 9 11.25 9C11.1623 9 11.0782 8.98496 11 8.95732V9.5C11 10.6046 10.1046 11.5 9 11.5H3C1.89543 11.5 1 10.6046 1 9.5V8.95732C0.921805 8.98496 0.837659 9 0.75 9C0.335786 9 0 8.66421 0 8.25V6.75C0 6.33579 0.335786 6 0.75 6C0.848311 6 0.942203 6.01892 1.02824 6.05331C1.2476 4.33125 2.71834 3 4.5 3H5.5V2.36622C5.2011 2.19331 5 1.87014 5 1.5C5 0.947715 5.44772 0.5 6 0.5ZM10 7C10 7.82843 9.32843 8.5 8.5 8.5C7.67157 8.5 7 7.82843 7 7C7 6.17157 7.67157 5.5 8.5 5.5C9.32843 5.5 10 6.17157 10 7ZM3.5 8.5C4.32843 8.5 5 7.82843 5 7C5 6.17157 4.32843 5.5 3.5 5.5C2.67157 5.5 2 6.17157 2 7C2 7.82843 2.67157 8.5 3.5 8.5ZM5 9.75C5 9.61193 5.11193 9.5 5.25 9.5H6.75C6.88807 9.5 7 9.61193 7 9.75C7 9.88807 6.88807 10 6.75 10H5.25C5.11193 10 5 9.88807 5 9.75Z" fill="#18202A"/>
</g>
<defs>
<clipPath id="clip0_3015_8729">
<rect width="12" height="12" fill="white"/>
</clipPath>
</defs>
</svg>
