<svg width="12" height="12" viewBox="0 0 12 12" fill="none" xmlns="http://www.w3.org/2000/svg">
<g clip-path="url(#clip0_2266_37611)">
<path fill-rule="evenodd" clip-rule="evenodd" d="M6 12C9.31371 12 12 9.31371 12 6C12 2.68629 9.31371 0 6 0C2.68629 0 0 2.68629 0 6C0 9.31371 2.68629 12 6 12ZM6 6C6.66667 6 7 5.375 7 4.59375C7 3.96875 6.66667 3.5 6 3.5C5.33333 3.5 5 3.96875 5 4.59375C5 5.375 5.33333 6 6 6ZM3.25 6C3.75 6 4 5.5 4 4.875C4 4.375 3.75 4 3.25 4C2.75 4 2.5 4.375 2.5 4.875C2.5 5.5 2.75 6 3.25 6ZM8.75 6C9.25 6 9.5 5.5 9.5 4.875C9.5 4.375 9.25 4 8.75 4C8.25 4 8 4.375 8 4.875C8 5.5 8.25 6 8.75 6ZM4.0564 6.60884C4.09433 6.58252 4.13281 6.55695 4.17181 6.53214C4.01037 6.5046 3.84416 6.49023 3.67444 6.49023C3.20457 6.49023 2.76158 6.60038 2.37214 6.79516C2.04156 6.9605 1.90254 7.34797 2.01289 7.70074C2.03432 7.76924 2.05714 7.83717 2.08131 7.9045C2.18657 8.1977 2.44811 8.40454 2.75667 8.4474C3.01835 8.48374 3.28522 8.50477 3.55625 8.50952C3.53917 8.46216 3.52267 8.41452 3.50677 8.3666C3.30267 7.75154 3.46978 7.01591 4.0564 6.60884ZM8.4934 8.36658C8.47768 8.41395 8.46138 8.46104 8.44451 8.50785C8.72255 8.49999 8.99609 8.47498 9.26402 8.43389C9.56868 8.38717 9.82534 8.18051 9.92862 7.89011C9.94619 7.84071 9.96304 7.79098 9.97914 7.74095C10.0902 7.39584 9.96224 7.01428 9.64383 6.84096C9.23374 6.61773 8.75933 6.49023 8.2538 6.49023C8.10411 6.49023 7.95715 6.50141 7.81378 6.52294C7.85778 6.55062 7.90112 6.57927 7.94376 6.60886C8.53037 7.01592 8.69748 7.75154 8.4934 8.36658ZM7.79568 8.77274C7.63369 9.12263 7.30695 9.36729 6.92626 9.42844C6.62452 9.4769 6.31518 9.50206 6.00006 9.50206C5.68496 9.50206 5.37563 9.4769 5.0739 9.42844C4.69322 9.36731 4.36648 9.12265 4.20448 8.77277C4.12001 8.59031 4.04538 8.40219 3.98131 8.20912C3.83639 7.77241 3.96341 7.28195 4.34144 7.01963C4.814 6.69171 5.38504 6.5 6.00006 6.5C6.61509 6.5 7.18613 6.69171 7.6587 7.01964C8.03672 7.28196 8.16374 7.77241 8.01883 8.20911C7.95477 8.40218 7.88015 8.59029 7.79568 8.77274Z" fill="#18202A"/>
</g>
<defs>
<clipPath id="clip0_2266_37611">
<rect width="12" height="12" fill="white"/>
</clipPath>
</defs>
</svg>
