<svg width="12" height="12" viewBox="0 0 12 12" fill="none" xmlns="http://www.w3.org/2000/svg">
<g clip-path="url(#clip0_3289_16959)">
<path d="M3.25 0.75C3.52614 0.75 3.75 0.973858 3.75 1.25V2.5H5.00098C5.27712 2.5 5.50098 2.72386 5.50098 3C5.50098 3.27614 5.27712 3.5 5.00098 3.5H3.75V4.75C3.75 5.02614 3.52614 5.25 3.25 5.25C2.97386 5.25 2.75 5.02614 2.75 4.75V3.5H1.50098C1.22483 3.5 1.00098 3.27614 1.00098 3C1.00098 2.72386 1.22483 2.5 1.50098 2.5H2.75V1.25C2.75 0.973858 2.97386 0.75 3.25 0.75ZM6.99902 2.5C6.72288 2.5 6.49902 2.72386 6.49902 3C6.49902 3.27614 6.72288 3.5 6.99902 3.5H10.499C10.7752 3.5 10.999 3.27614 10.999 3C10.999 2.72386 10.7752 2.5 10.499 2.5H6.99902ZM6.5 8.75C6.5 8.47386 6.72386 8.25 7 8.25H10.5C10.7761 8.25 11 8.47386 11 8.75C11 9.02614 10.7761 9.25 10.5 9.25H7C6.72386 9.25 6.5 9.02614 6.5 8.75ZM8.75 7.75C9.09518 7.75 9.375 7.47018 9.375 7.125C9.375 6.77982 9.09518 6.5 8.75 6.5C8.40482 6.5 8.125 6.77982 8.125 7.125C8.125 7.47018 8.40482 7.75 8.75 7.75ZM9.375 10.375C9.375 10.7202 9.09518 11 8.75 11C8.40482 11 8.125 10.7202 8.125 10.375C8.125 10.0298 8.40482 9.75 8.75 9.75C9.09518 9.75 9.375 10.0298 9.375 10.375ZM1.14645 6.64645C1.34171 6.45118 1.65829 6.45118 1.85355 6.64645L3.25 8.0429L4.64645 6.64645C4.84172 6.45118 5.1583 6.45118 5.35356 6.64645C5.54882 6.84171 5.54882 7.15829 5.35356 7.35355L3.95711 8.75L5.35355 10.1464C5.54882 10.3417 5.54882 10.6583 5.35355 10.8536C5.15829 11.0488 4.84171 11.0488 4.64645 10.8536L3.25 9.45711L1.85356 10.8536C1.6583 11.0488 1.34172 11.0488 1.14645 10.8536C0.951191 10.6583 0.951191 10.3417 1.14645 10.1464L2.5429 8.75L1.14645 7.35355C0.951184 7.15829 0.951184 6.84171 1.14645 6.64645Z" fill="#18202A"/>
</g>
<defs>
<clipPath id="clip0_3289_16959">
<rect width="12" height="12" fill="white"/>
</clipPath>
</defs>
</svg>
