<svg width="12" height="12" viewBox="0 0 12 12" fill="none" xmlns="http://www.w3.org/2000/svg">
<path fill-rule="evenodd" clip-rule="evenodd" d="M7.75 6C8.91667 6 9.5 4.875 9.5 3.46875C9.5 2.34375 8.91667 1.5 7.75 1.5C6.58333 1.5 6 2.34375 6 3.46875C6 4.875 6.58333 6 7.75 6ZM9.77009 10.8198C10.3619 10.7126 10.8795 10.3482 11.1532 9.8126C11.2101 9.70112 11.2643 9.58826 11.3156 9.47411C11.6501 8.72989 11.4446 7.84272 10.7652 7.39084C9.9239 6.83126 8.88034 6.5 7.75 6.5C6.61966 6.5 5.57611 6.83126 4.73481 7.39084C4.05543 7.84271 3.84992 8.72989 4.18441 9.4741C4.23571 9.58826 4.28989 9.70111 4.34685 9.8126C4.62047 10.3482 5.13814 10.7126 5.72992 10.8198C6.38261 10.938 7.05818 11 7.75 11C8.44182 11 9.11739 10.938 9.77009 10.8198ZM4.61969 4.53125C4.61969 5.625 4.11969 6.5 3.11969 6.5C2.11969 6.5 1.61969 5.625 1.61969 4.53125C1.61969 3.65625 2.11969 3 3.11969 3C4.11969 3 4.61969 3.65625 4.61969 4.53125ZM3.2723 9.88405C2.85404 8.95345 2.97039 7.82597 3.64404 7.03399C3.47261 7.01157 3.29776 7 3.12022 7C2.40698 7 1.73735 7.18667 1.15751 7.51382C0.56728 7.84684 0.362211 8.57564 0.592019 9.21318C0.61967 9.28989 0.64846 9.36606 0.678368 9.44166C0.890061 9.97675 1.37828 10.3503 1.94893 10.4245C2.33231 10.4743 2.72326 10.5 3.12022 10.5C3.27504 10.5 3.42895 10.4961 3.58185 10.4884C3.53708 10.4172 3.49517 10.3436 3.45634 10.2676C3.39186 10.1414 3.33048 10.0135 3.2723 9.88405Z" fill="#18202A"/>
</svg>
