<svg width="12" height="12" viewBox="0 0 12 12" fill="none" xmlns="http://www.w3.org/2000/svg">
<g clip-path="url(#clip0_2266_38254)">
<path fill-rule="evenodd" clip-rule="evenodd" d="M5.14645 0.646447C5.34171 0.451184 5.65829 0.451184 5.85355 0.646447L7.35355 2.14645C7.54882 2.34171 7.54882 2.65829 7.35355 2.85355L5.85355 4.35355C5.65829 4.54882 5.34171 4.54882 5.14645 4.35355C4.95118 4.15829 4.95118 3.84171 5.14645 3.64645L5.79289 3H4.5C2.84315 3 1.5 4.34315 1.5 6C1.5 7.18096 2.18238 8.20255 3.17436 8.69197C3.3644 8.78573 3.5 8.97097 3.5 9.18288V9.229C3.5 9.55571 3.19015 9.7948 2.89108 9.66325C1.48312 9.04398 0.5 7.6368 0.5 6C0.5 3.79086 2.29086 2 4.5 2H5.79289L5.14645 1.35355C4.95118 1.15829 4.95118 0.841709 5.14645 0.646447ZM7.5 10C9.70914 10 11.5 8.20914 11.5 6C11.5 4.3632 10.5169 2.95602 9.10892 2.33674C8.80985 2.2052 8.5 2.44429 8.5 2.771V2.81712C8.5 3.02903 8.6356 3.21427 8.82564 3.30803C9.81762 3.79745 10.5 4.81904 10.5 6C10.5 7.65685 9.15685 9 7.5 9H6.20711L6.85355 8.35355C7.04882 8.15829 7.04882 7.84171 6.85355 7.64645C6.65829 7.45118 6.34171 7.45118 6.14645 7.64645L4.64645 9.14645C4.45118 9.34171 4.45118 9.65829 4.64645 9.85355L6.14645 11.3536C6.34171 11.5488 6.65829 11.5488 6.85355 11.3536C7.04882 11.1583 7.04882 10.8417 6.85355 10.6464L6.20711 10H7.5Z" fill="#18202A"/>
</g>
<defs>
<clipPath id="clip0_2266_38254">
<rect width="12" height="12" fill="white"/>
</clipPath>
</defs>
</svg>
