<svg width="12" height="12" viewBox="0 0 12 12" fill="none" xmlns="http://www.w3.org/2000/svg">
<path fill-rule="evenodd" clip-rule="evenodd" d="M10 2.25H2C1.58579 2.25 1.25 2.58579 1.25 3V9C1.25 9.41421 1.58579 9.75 2 9.75H10C10.4142 9.75 10.75 9.41421 10.75 9V3C10.75 2.58579 10.4142 2.25 10 2.25ZM2 1.5C1.17157 1.5 0.5 2.17157 0.5 3V9C0.5 9.82843 1.17157 10.5 2 10.5H10C10.8284 10.5 11.5 9.82843 11.5 9V3C11.5 2.17157 10.8284 1.5 10 1.5H2Z" fill="#18202A"/>
<path fill-rule="evenodd" clip-rule="evenodd" d="M11.3109 3.29026C11.4267 3.46194 11.3814 3.69503 11.2097 3.81086L7.20228 6.51471C6.85283 6.75053 6.43015 6.875 6 6.875C5.56985 6.875 5.14718 6.75053 4.79772 6.51471L0.790261 3.81086C0.618577 3.69503 0.573303 3.46194 0.689139 3.29026C0.804975 3.11858 1.03806 3.0733 1.20974 3.18914L5.21722 5.893C5.43688 6.04123 5.71211 6.125 6 6.125C6.28789 6.125 6.5631 6.04125 6.78276 5.89302L10.7903 3.18914C10.9619 3.0733 11.195 3.11858 11.3109 3.29026Z" fill="#18202A"/>
</svg>
