<svg width="12" height="12" viewBox="0 0 12 12" fill="none" xmlns="http://www.w3.org/2000/svg">
<g clip-path="url(#clip0_2266_37038)">
<path fill-rule="evenodd" clip-rule="evenodd" d="M0 3C0 1.34315 1.34315 0 3 0H9C10.6569 0 12 1.34315 12 3V9C12 10.6569 10.6569 12 9 12H3C1.34315 12 0 10.6569 0 9V3ZM1.5 6C1.5 3.51472 3.51472 1.5 6 1.5C8.48528 1.5 10.5 3.51472 10.5 6C10.5 8.48528 8.48528 10.5 6 10.5C3.51472 10.5 1.5 8.48528 1.5 6ZM8.00998 5.15831V5.15833V5.15836C8.00998 5.19585 8.00998 5.23334 8.00576 5.27083V6.75C8.00498 6.80106 8.00435 6.8445 8.0038 6.88172C8.00141 7.04497 8.00077 7.08845 7.99734 7.12917C7.98891 7.26667 7.97206 7.39583 7.95099 7.50833C7.89622 7.78333 7.78667 8.02917 7.62656 8.23333C7.23894 8.74167 6.67856 9 5.96651 9C5.46091 9 5.01429 8.87083 4.63931 8.61667C4.24746 8.35 3.98202 7.975 3.83877 7.50417H4.65195C4.90053 8.04583 5.33029 8.30833 5.96229 8.30833C6.37099 8.30833 6.67856 8.19167 6.91451 7.95C7.14203 7.7125 7.25579 7.39583 7.25579 6.99167V6.79167C6.87238 7.12083 6.3752 7.31667 5.83168 7.31667C4.62667 7.31667 3.64917 6.35 3.64917 5.15833C3.64917 3.96667 4.62667 3 5.83168 3C6.37099 3 6.86816 3.19583 7.24736 3.52083V3H8.00576V5.04167C8.00998 5.07916 8.00998 5.12081 8.00998 5.15831ZM4.41178 5.15417C4.41178 5.92917 5.048 6.55833 5.83168 6.55833C6.61115 6.55833 7.24736 5.92917 7.25158 5.15417C7.25158 4.37917 6.61536 3.75 5.83168 3.75C5.048 3.75 4.41178 4.37917 4.41178 5.15417Z" fill="#18202A"/>
</g>
<defs>
<clipPath id="clip0_2266_37038">
<rect width="12" height="12" fill="white"/>
</clipPath>
</defs>
</svg>
