<svg width="12" height="12" viewBox="0 0 12 12" fill="none" xmlns="http://www.w3.org/2000/svg">
<path d="M5.01035 2.03889C3.86267 1.70173 2.64857 1.65894 1.47999 1.91447C1.27767 1.95871 1.07778 1.83056 1.03354 1.62823C0.989299 1.42591 1.11745 1.22603 1.31978 1.18178C2.61136 0.899354 3.95326 0.946648 5.22175 1.3193C6.49024 1.69196 7.6445 2.37798 8.57809 3.31412C9.51168 4.25026 10.1946 5.40638 10.5638 6.67588C10.933 7.94538 10.9766 9.28741 10.6907 10.5782C10.6459 10.7804 10.4456 10.908 10.2434 10.8632C10.0412 10.8184 9.91361 10.6182 9.95841 10.416C10.2171 9.24813 10.1776 8.03392 9.8436 6.88532C9.50956 5.73672 8.89172 4.69071 8.04704 3.84373C7.20236 2.99675 6.15803 2.37606 5.01035 2.03889Z" fill="#18202A"/>
<path d="M3.83054 4.8387C3.04786 4.67372 2.23411 4.73985 1.48834 5.02904C1.29525 5.10392 1.07801 5.00809 1.00313 4.81499C0.92825 4.62189 1.02409 4.40465 1.21718 4.32978C2.09854 3.988 3.06025 3.90985 3.98523 4.10483C4.91021 4.2998 5.75855 4.7595 6.42696 5.42795C7.09537 6.0964 7.55503 6.94476 7.74995 7.86975C7.94488 8.79474 7.86667 9.75644 7.52485 10.6378C7.44997 10.8309 7.23272 10.9267 7.03963 10.8518C6.84654 10.7769 6.75071 10.5597 6.8256 10.3666C7.11483 9.62084 7.18101 8.80708 7.01607 8.0244C6.85113 7.24172 6.4622 6.52387 5.89662 5.95826C5.33104 5.39265 4.61321 5.00368 3.83054 4.8387Z" fill="#18202A"/>
<path fill-rule="evenodd" clip-rule="evenodd" d="M5.00204 9C5.00204 10.1046 4.10661 11 3.00204 11C1.89747 11 1.00204 10.1046 1.00204 9C1.00204 7.89543 1.89747 7 3.00204 7C4.10661 7 5.00204 7.89543 5.00204 9ZM4.25204 9C4.25204 9.69036 3.6924 10.25 3.00204 10.25C2.31168 10.25 1.75204 9.69036 1.75204 9C1.75204 8.30964 2.31168 7.75 3.00204 7.75C3.6924 7.75 4.25204 8.30964 4.25204 9Z" fill="#18202A"/>
</svg>
