<svg width="12" height="12" viewBox="0 0 12 12" fill="none" xmlns="http://www.w3.org/2000/svg">
<g clip-path="url(#clip0_2266_35264)">
<path fill-rule="evenodd" clip-rule="evenodd" d="M9.5 2.25H2.5C1.80964 2.25 1.25 2.80964 1.25 3.5V9.5C1.25 10.1904 1.80964 10.75 2.5 10.75H9.5C10.1904 10.75 10.75 10.1904 10.75 9.5V3.5C10.75 2.80964 10.1904 2.25 9.5 2.25ZM2.5 1.5C1.39543 1.5 0.5 2.39543 0.5 3.5V9.5C0.5 10.6046 1.39543 11.5 2.5 11.5H9.5C10.6046 11.5 11.5 10.6046 11.5 9.5V3.5C11.5 2.39543 10.6046 1.5 9.5 1.5H2.5Z" fill="#18202A"/>
<path d="M3 0.875C3 0.667893 3.16789 0.5 3.375 0.5C3.58211 0.5 3.75 0.667893 3.75 0.875V3.125C3.75 3.33211 3.58211 3.5 3.375 3.5C3.16789 3.5 3 3.33211 3 3.125V0.875Z" fill="#18202A"/>
<path d="M8.25 0.875C8.25 0.667893 8.41789 0.5 8.625 0.5C8.83211 0.5 9 0.667893 9 0.875V3.125C9 3.33211 8.83211 3.5 8.625 3.5C8.41789 3.5 8.25 3.33211 8.25 3.125V0.875Z" fill="#18202A"/>
<path d="M2.5 4.875C2.5 4.66789 2.66789 4.5 2.875 4.5H9.125C9.33211 4.5 9.5 4.66789 9.5 4.875C9.5 5.08211 9.33211 5.25 9.125 5.25H2.875C2.66789 5.25 2.5 5.08211 2.5 4.875Z" fill="#18202A"/>
<path d="M2.5 7C2.5 6.72386 2.72386 6.5 3 6.5C3.27614 6.5 3.5 6.72386 3.5 7C3.5 7.27614 3.27614 7.5 3 7.5C2.72386 7.5 2.5 7.27614 2.5 7Z" fill="#18202A"/>
<path d="M2.5 9C2.5 8.72386 2.72386 8.5 3 8.5C3.27614 8.5 3.5 8.72386 3.5 9C3.5 9.27614 3.27614 9.5 3 9.5C2.72386 9.5 2.5 9.27614 2.5 9Z" fill="#18202A"/>
<path d="M4.5 7C4.5 6.72386 4.72386 6.5 5 6.5C5.27614 6.5 5.5 6.72386 5.5 7C5.5 7.27614 5.27614 7.5 5 7.5C4.72386 7.5 4.5 7.27614 4.5 7Z" fill="#18202A"/>
<path d="M4.5 9C4.5 8.72386 4.72386 8.5 5 8.5C5.27614 8.5 5.5 8.72386 5.5 9C5.5 9.27614 5.27614 9.5 5 9.5C4.72386 9.5 4.5 9.27614 4.5 9Z" fill="#18202A"/>
<path d="M6.5 7C6.5 6.72386 6.72386 6.5 7 6.5C7.27614 6.5 7.5 6.72386 7.5 7C7.5 7.27614 7.27614 7.5 7 7.5C6.72386 7.5 6.5 7.27614 6.5 7Z" fill="#18202A"/>
<path d="M6.5 9C6.5 8.72386 6.72386 8.5 7 8.5C7.27614 8.5 7.5 8.72386 7.5 9C7.5 9.27614 7.27614 9.5 7 9.5C6.72386 9.5 6.5 9.27614 6.5 9Z" fill="#18202A"/>
<path d="M8.5 7C8.5 6.72386 8.72386 6.5 9 6.5C9.27614 6.5 9.5 6.72386 9.5 7C9.5 7.27614 9.27614 7.5 9 7.5C8.72386 7.5 8.5 7.27614 8.5 7Z" fill="#18202A"/>
<path d="M8.5 9C8.5 8.72386 8.72386 8.5 9 8.5C9.27614 8.5 9.5 8.72386 9.5 9C9.5 9.27614 9.27614 9.5 9 9.5C8.72386 9.5 8.5 9.27614 8.5 9Z" fill="#18202A"/>
</g>
<defs>
<clipPath id="clip0_2266_35264">
<rect width="12" height="12" fill="white"/>
</clipPath>
</defs>
</svg>
