<svg width="12" height="12" viewBox="0 0 12 12" fill="none" xmlns="http://www.w3.org/2000/svg">
<path fill-rule="evenodd" clip-rule="evenodd" d="M2.5 2.125C2.70711 2.125 2.875 2.29289 2.875 2.5V4C2.875 5.44975 4.05025 6.625 5.5 6.625H9.09467L7.23484 4.76517C7.08839 4.61872 7.08839 4.38128 7.23484 4.23483C7.38128 4.08839 7.61872 4.08839 7.76516 4.23483L10.2652 6.73484C10.4116 6.88128 10.4116 7.11872 10.2652 7.26516L7.76516 9.76516C7.61872 9.91161 7.38128 9.91161 7.23484 9.76516C7.08839 9.61872 7.08839 9.38128 7.23484 9.23484L9.09467 7.375H5.5C3.63604 7.375 2.125 5.86396 2.125 4V2.5C2.125 2.29289 2.29289 2.125 2.5 2.125Z" fill="#18202A"/>
</svg>
