<svg width="12" height="12" viewBox="0 0 12 12" fill="none" xmlns="http://www.w3.org/2000/svg">
<g clip-path="url(#clip0_2266_37459)">
<path fill-rule="evenodd" clip-rule="evenodd" d="M6 11.5C9.03757 11.5 11.5 9.03757 11.5 6C11.5 2.96243 9.03757 0.5 6 0.5C2.96243 0.5 0.5 2.96243 0.5 6C0.5 9.03757 2.96243 11.5 6 11.5ZM8.36206 4.84483C8.55251 4.64486 8.54479 4.32837 8.34482 4.13793C8.14486 3.94749 7.82837 3.95521 7.63793 4.15517L5.16238 6.75449L4.37962 5.84127C4.19991 5.63161 3.88426 5.60733 3.6746 5.78704C3.46494 5.96675 3.44065 6.2824 3.62037 6.49206L4.76322 7.8254C4.85524 7.93275 4.98841 7.99613 5.12976 7.99983C5.2711 8.00353 5.40741 7.94722 5.50492 7.84483L8.36206 4.84483Z" fill="#18202A"/>
</g>
<defs>
<clipPath id="clip0_2266_37459">
<rect width="12" height="12" fill="white"/>
</clipPath>
</defs>
</svg>
