<svg width="12" height="12" viewBox="0 0 12 12" fill="none" xmlns="http://www.w3.org/2000/svg">
<g clip-path="url(#clip0_2266_34735)">
<path d="M3 1C3 0.723858 3.22386 0.5 3.5 0.5C3.77614 0.5 4 0.723858 4 1V3C4 3.27614 3.77614 3.5 3.5 3.5C3.22386 3.5 3 3.27614 3 3V1Z" fill="#18202A"/>
<path d="M8 1C8 0.723858 8.22386 0.5 8.5 0.5C8.77614 0.5 9 0.723858 9 1V3C9 3.27614 8.77614 3.5 8.5 3.5C8.22386 3.5 8 3.27614 8 3V1Z" fill="#18202A"/>
<path fill-rule="evenodd" clip-rule="evenodd" d="M2.5 1.5C1.39543 1.5 0.5 2.39543 0.5 3.5V9.5C0.5 10.6046 1.39543 11.5 2.5 11.5H9.5C10.6046 11.5 11.5 10.6046 11.5 9.5V3.5C11.5 2.39543 10.6046 1.5 9.5 1.5H2.5ZM2.5 5C2.5 4.72386 2.72386 4.5 3 4.5H9C9.27614 4.5 9.5 4.72386 9.5 5C9.5 5.27614 9.27614 5.5 9 5.5H3C2.72386 5.5 2.5 5.27614 2.5 5ZM2.5 7C2.5 6.72386 2.72386 6.5 3 6.5C3.27614 6.5 3.5 6.72386 3.5 7C3.5 7.27614 3.27614 7.5 3 7.5C2.72386 7.5 2.5 7.27614 2.5 7ZM3 8.5C2.72386 8.5 2.5 8.72386 2.5 9C2.5 9.27614 2.72386 9.5 3 9.5C3.27614 9.5 3.5 9.27614 3.5 9C3.5 8.72386 3.27614 8.5 3 8.5ZM4.5 7C4.5 6.72386 4.72386 6.5 5 6.5C5.27614 6.5 5.5 6.72386 5.5 7C5.5 7.27614 5.27614 7.5 5 7.5C4.72386 7.5 4.5 7.27614 4.5 7ZM5 8.5C4.72386 8.5 4.5 8.72386 4.5 9C4.5 9.27614 4.72386 9.5 5 9.5C5.27614 9.5 5.5 9.27614 5.5 9C5.5 8.72386 5.27614 8.5 5 8.5ZM6.5 7C6.5 6.72386 6.72386 6.5 7 6.5C7.27614 6.5 7.5 6.72386 7.5 7C7.5 7.27614 7.27614 7.5 7 7.5C6.72386 7.5 6.5 7.27614 6.5 7ZM7 8.5C6.72386 8.5 6.5 8.72386 6.5 9C6.5 9.27614 6.72386 9.5 7 9.5C7.27614 9.5 7.5 9.27614 7.5 9C7.5 8.72386 7.27614 8.5 7 8.5ZM8.5 7C8.5 6.72386 8.72386 6.5 9 6.5C9.27614 6.5 9.5 6.72386 9.5 7C9.5 7.27614 9.27614 7.5 9 7.5C8.72386 7.5 8.5 7.27614 8.5 7ZM9 8.5C8.72386 8.5 8.5 8.72386 8.5 9C8.5 9.27614 8.72386 9.5 9 9.5C9.27614 9.5 9.5 9.27614 9.5 9C9.5 8.72386 9.27614 8.5 9 8.5Z" fill="#18202A"/>
</g>
<defs>
<clipPath id="clip0_2266_34735">
<rect width="12" height="12" fill="white"/>
</clipPath>
</defs>
</svg>
