<svg width="12" height="12" viewBox="0 0 12 12" fill="none" xmlns="http://www.w3.org/2000/svg">
<path d="M2 1C1.44772 1 1 1.44772 1 2V2.5C1 3.05228 1.44772 3.5 2 3.5H10C10.5523 3.5 11 3.05228 11 2.5V2C11 1.44772 10.5523 1 10 1H2Z" fill="#18202A"/>
<path fill-rule="evenodd" clip-rule="evenodd" d="M1.5 5C1.5 4.72386 1.72386 4.5 2 4.5H10C10.2761 4.5 10.5 4.72386 10.5 5V9.5C10.5 10.6046 9.60457 11.5 8.5 11.5H3.5C2.39543 11.5 1.5 10.6046 1.5 9.5V5ZM4 6C4 5.72386 4.22386 5.5 4.5 5.5H7.5C7.77614 5.5 8 5.72386 8 6C8 6.27614 7.77614 6.5 7.5 6.5H4.5C4.22386 6.5 4 6.27614 4 6Z" fill="#18202A"/>
</svg>
