<svg width="12" height="12" viewBox="0 0 12 12" fill="none" xmlns="http://www.w3.org/2000/svg">
<path fill-rule="evenodd" clip-rule="evenodd" d="M6 10C8.20914 10 10 8.20914 10 6C10 3.79086 8.20914 2 6 2C3.79086 2 2 3.79086 2 6C2 8.20914 3.79086 10 6 10ZM6 11C8.76142 11 11 8.76142 11 6C11 3.23858 8.76142 1 6 1C3.23858 1 1 3.23858 1 6C1 8.76142 3.23858 11 6 11ZM6.75 4.25C6.75 4.66421 6.41421 5 6 5C5.58579 5 5.25 4.66421 5.25 4.25C5.25 3.83579 5.58579 3.5 6 3.5C6.41421 3.5 6.75 3.83579 6.75 4.25ZM6 5.5C5.72386 5.5 5.5 5.72386 5.5 6V8.5C5.5 8.77614 5.72386 9 6 9C6.27614 9 6.5 8.77614 6.5 8.5V6C6.5 5.72386 6.27614 5.5 6 5.5Z" fill="#18202A"/>
</svg>
