<svg width="12" height="12" viewBox="0 0 12 12" fill="none" xmlns="http://www.w3.org/2000/svg">
<path fill-rule="evenodd" clip-rule="evenodd" d="M7.5 1H4.5C4.22386 1 4 1.22386 4 1.5V2V2.5C4 2.77614 4.22386 3 4.5 3H7.5C7.77614 3 8 2.77614 8 2.5V2V1.5C8 1.22386 7.77614 1 7.5 1ZM4.5 0C3.84689 0 3.29127 0.417404 3.08535 1H3C1.89543 1 1 1.89543 1 3V9C1 10.1046 1.89543 11 3 11H9C10.1046 11 11 10.1046 11 9V3C11 1.89543 10.1046 1 9 1H8.91465C8.70873 0.417404 8.15311 0 7.5 0H4.5ZM2 3C2 2.44772 2.44772 2 3 2V2.5C3 3.32843 3.67157 4 4.5 4H7.5C8.32843 4 9 3.32843 9 2.5V2C9.55229 2 10 2.44772 10 3V9C10 9.55229 9.55229 10 9 10H3C2.44772 10 2 9.55229 2 9V3ZM8.85355 5.85355C9.04882 5.65829 9.04882 5.34171 8.85355 5.14645C8.65829 4.95118 8.34171 4.95118 8.14645 5.14645L5.5 7.79289L4.35355 6.64645C4.15829 6.45118 3.84171 6.45118 3.64645 6.64645C3.45118 6.84171 3.45118 7.15829 3.64645 7.35355L5.14645 8.85355C5.34171 9.04882 5.65829 9.04882 5.85355 8.85355L8.85355 5.85355Z" fill="#18202A"/>
</svg>
