<svg width="12" height="12" viewBox="0 0 12 12" fill="none" xmlns="http://www.w3.org/2000/svg">
<path d="M4.00005 1.5C4.00005 1.3156 3.89856 1.14617 3.73598 1.05916C3.5734 0.972154 3.37613 0.98169 3.2227 1.08398L1.7227 2.08398C1.49294 2.23715 1.43085 2.54759 1.58403 2.77735C1.7372 3.00712 2.04764 3.0692 2.2774 2.91603L3.00005 2.43426V4.5C3.00005 4.77614 3.22391 5 3.50005 5C3.7762 5 4.00005 4.77614 4.00005 4.5V1.5Z" fill="#18202A"/>
<path d="M2.50006 7.5C2.50006 7.34568 2.70112 7 3.25006 7C3.75946 7 4.00006 7.31039 4.00006 7.625C4.00006 7.75803 3.96695 7.85349 3.78309 8.02586C3.63365 8.16596 3.43978 8.30722 3.16729 8.50576C3.03224 8.60416 2.87789 8.71663 2.70006 8.85L1.70006 9.6C1.52789 9.72913 1.45766 9.95394 1.52572 10.1581C1.59378 10.3623 1.78485 10.5 2.00006 10.5H4.50006C4.77621 10.5 5.00006 10.2761 5.00006 10C5.00006 9.72386 4.77621 9.5 4.50006 9.5H3.50239C3.56671 9.45276 3.62995 9.40665 3.69177 9.36157C3.99879 9.1377 4.27083 8.93933 4.46703 8.75539C4.78318 8.45901 5.00006 8.11697 5.00006 7.625C5.00006 6.68961 4.24066 6 3.25006 6C2.29901 6 1.50006 6.65432 1.50006 7.5C1.50006 7.77614 1.72392 8 2.00006 8C2.27621 8 2.50006 7.77614 2.50006 7.5Z" fill="#18202A"/>
<path d="M6.00006 2.5C6.00006 2.22386 6.22392 2 6.50006 2H10.5001C10.7762 2 11.0001 2.22386 11.0001 2.5C11.0001 2.77614 10.7762 3 10.5001 3H6.50006C6.22392 3 6.00006 2.77614 6.00006 2.5Z" fill="#18202A"/>
<path d="M6.50006 3.5C6.22392 3.5 6.00006 3.72386 6.00006 4C6.00006 4.27614 6.22392 4.5 6.50006 4.5H10.5001C10.7762 4.5 11.0001 4.27614 11.0001 4C11.0001 3.72386 10.7762 3.5 10.5001 3.5H6.50006Z" fill="#18202A"/>
<path d="M6.00006 8C6.00006 7.72386 6.22392 7.5 6.50006 7.5H10.5001C10.7762 7.5 11.0001 7.72386 11.0001 8C11.0001 8.27614 10.7762 8.5 10.5001 8.5H6.50006C6.22392 8.5 6.00006 8.27614 6.00006 8Z" fill="#18202A"/>
<path d="M6.50006 9C6.22392 9 6.00006 9.22386 6.00006 9.5C6.00006 9.77614 6.22392 10 6.50006 10H10.5001C10.7762 10 11.0001 9.77614 11.0001 9.5C11.0001 9.22386 10.7762 9 10.5001 9H6.50006Z" fill="#18202A"/>
</svg>
