<svg width="12" height="12" viewBox="0 0 12 12" fill="none" xmlns="http://www.w3.org/2000/svg">
<g clip-path="url(#clip0_2266_41095)">
<path fill-rule="evenodd" clip-rule="evenodd" d="M9.5 1.25H2.5C1.80964 1.25 1.25 1.80964 1.25 2.5V9.5C1.25 10.1904 1.80964 10.75 2.5 10.75H6.49908C6.61186 11.0204 6.76013 11.2724 6.93808 11.5H2.5C1.39543 11.5 0.5 10.6046 0.5 9.5V2.5C0.5 1.39543 1.39543 0.5 2.5 0.5H9.5C10.6046 0.5 11.5 1.39543 11.5 2.5V6.93808C11.2724 6.76013 11.0204 6.61186 10.75 6.49908V2.5C10.75 1.80964 10.1904 1.25 9.5 1.25ZM6.289 8.99498C6.44172 8.01615 7.03128 7.18201 7.85202 6.69821C7.79734 6.63133 7.73285 6.5711 7.6587 6.51964C7.18613 6.19171 6.61509 6 6.00006 6C5.38504 6 4.814 6.19171 4.34144 6.51963C3.96341 6.78195 3.83639 7.27241 3.98131 7.70912C4.04538 7.90219 4.12001 8.09031 4.20448 8.27277C4.36648 8.62265 4.69322 8.86731 5.0739 8.92844C5.37563 8.9769 5.68496 9.00206 6.00006 9.00206C6.09694 9.00206 6.19327 8.99968 6.289 8.99498ZM8.31 6.47477C8.66739 6.33407 9.05573 6.25488 9.46198 6.25022C9.09587 6.08352 8.68622 5.99023 8.25379 5.99023C8.1041 5.99023 7.95714 6.00141 7.81378 6.02294C7.85778 6.05062 7.90111 6.07927 7.94376 6.10886C8.09257 6.21213 8.21439 6.33654 8.31 6.47477ZM6 5.5C6.66667 5.5 7 4.875 7 4.09375C7 3.46875 6.66667 3 6 3C5.33333 3 5 3.46875 5 4.09375C5 4.875 5.33333 5.5 6 5.5ZM3.25 5.5C3.75 5.5 4 5 4 4.375C4 3.875 3.75 3.5 3.25 3.5C2.75 3.5 2.5 3.875 2.5 4.375C2.5 5 2.75 5.5 3.25 5.5ZM9.5 4.375C9.5 5 9.25 5.5 8.75 5.5C8.25 5.5 8 5 8 4.375C8 3.875 8.25 3.5 8.75 3.5C9.25 3.5 9.5 3.875 9.5 4.375ZM4.05639 6.10884C4.09432 6.08252 4.1328 6.05695 4.17181 6.03214C4.01036 6.0046 3.84415 5.99023 3.67443 5.99023C3.20456 5.99023 2.76157 6.10038 2.37214 6.29516C2.04155 6.4605 1.90253 6.84797 2.01289 7.20074C2.03432 7.26924 2.05713 7.33717 2.0813 7.4045C2.18656 7.6977 2.4481 7.90454 2.75666 7.9474C3.01835 7.98374 3.28522 8.00477 3.55624 8.00952C3.53916 7.96216 3.52266 7.91452 3.50676 7.8666C3.30266 7.25154 3.46977 6.51591 4.05639 6.10884ZM12 9.5C12 10.8807 10.8807 12 9.5 12C8.11929 12 7 10.8807 7 9.5C7 8.11929 8.11929 7 9.5 7C10.8807 7 12 8.11929 12 9.5ZM9.5 8C9.70711 8 9.875 8.16789 9.875 8.375V9.125H10.625C10.8321 9.125 11 9.29289 11 9.5C11 9.70711 10.8321 9.875 10.625 9.875H9.875V10.625C9.875 10.8321 9.70711 11 9.5 11C9.29289 11 9.125 10.8321 9.125 10.625V9.875H8.375C8.16789 9.875 8 9.70711 8 9.5C8 9.29289 8.16789 9.125 8.375 9.125H9.125V8.375C9.125 8.16789 9.29289 8 9.5 8Z" fill="#18202A"/>
</g>
<defs>
<clipPath id="clip0_2266_41095">
<rect width="12" height="12" fill="white"/>
</clipPath>
</defs>
</svg>
