<svg width="12" height="12" viewBox="0 0 12 12" fill="none" xmlns="http://www.w3.org/2000/svg">
<path fill-rule="evenodd" clip-rule="evenodd" d="M1.5 0.5C1.5 0.223858 1.72386 0 2 0H10C10.2761 0 10.5 0.223858 10.5 0.5V1.79785C10.5 1.95301 10.428 2.09938 10.305 2.19404L9.12873 3.09964C10.2697 4.01603 11 5.42273 11 7C11 9.76142 8.76142 12 6 12C3.23858 12 1 9.76142 1 7C1 5.42273 1.73033 4.01603 2.87127 3.09964L1.69498 2.19404C1.57204 2.09938 1.5 1.95301 1.5 1.79785V0.5ZM8.5 1V2.66891C8.04112 2.40346 7.53613 2.20885 7 2.10002V1H8.5ZM5 1V2.10002C4.46387 2.20885 3.95888 2.40346 3.5 2.66891V1H5ZM6 10C7.65685 10 9 8.65685 9 7C9 5.34315 7.65685 4 6 4C4.34315 4 3 5.34315 3 7C3 8.65685 4.34315 10 6 10ZM6.56274 6.22686L6.14429 5.34519C6.08405 5.21827 5.91595 5.21827 5.85571 5.34519L5.43726 6.22686C5.41322 6.27753 5.36783 6.3124 5.31559 6.32034L4.38967 6.4611C4.25491 6.48158 4.20211 6.66131 4.30133 6.76182L4.96334 7.43243C5.00328 7.4729 5.02158 7.53239 5.01198 7.5906L4.85475 8.54407C4.83132 8.68611 4.96837 8.79595 5.08764 8.73072L5.92671 8.27179C5.97278 8.24659 6.02722 8.24659 6.07329 8.27179L6.91236 8.73072C7.03163 8.79595 7.16868 8.68611 7.14526 8.54407L6.98802 7.5906C6.97842 7.53239 6.99672 7.4729 7.03666 7.43243L7.69867 6.76182C7.79789 6.66131 7.74509 6.48158 7.61033 6.4611L6.68441 6.32034C6.63217 6.3124 6.58678 6.27753 6.56274 6.22686Z" fill="#18202A"/>
</svg>
