<svg width="12" height="12" viewBox="0 0 12 12" fill="none" xmlns="http://www.w3.org/2000/svg">
<path fill-rule="evenodd" clip-rule="evenodd" d="M9.75 9.5V4.91421C9.75 4.84791 9.72366 4.78432 9.67678 4.73744L6.26256 1.32322C6.21568 1.27634 6.15209 1.25 6.08579 1.25H3.5C2.80964 1.25 2.25 1.80964 2.25 2.5V9.5C2.25 10.1904 2.80964 10.75 3.5 10.75H8.5C9.19036 10.75 9.75 10.1904 9.75 9.5ZM3.5 0.5C2.39543 0.5 1.5 1.39543 1.5 2.5V9.5C1.5 10.6046 2.39543 11.5 3.5 11.5H8.5C9.60457 11.5 10.5 10.6046 10.5 9.5V4.91421C10.5 4.649 10.3946 4.39464 10.2071 4.20711L6.79289 0.792893C6.60536 0.605357 6.351 0.5 6.08579 0.5H3.5Z" fill="#18202A"/>
<path d="M5.5 0.5H6.25V5.5H5.5V0.5Z" fill="#18202A"/>
<path d="M5.5 4.75H10.5V5.5H5.5V4.75Z" fill="#18202A"/>
</svg>
