<svg width="12" height="12" viewBox="0 0 12 12" fill="none" xmlns="http://www.w3.org/2000/svg">
<g clip-path="url(#clip0_3626_8957)">
<g clip-path="url(#clip1_3626_8957)">
<path d="M9.5 7.38092L10.5 8.38092V2C10.5 1.17157 9.82843 0.5 9 0.5H3C2.88241 0.5 2.76799 0.51353 2.6582 0.539117L8 5.88092V2.79551C8 2.32986 7.67859 1.92583 7.22486 1.82112L5.83333 1.5H9C9.27614 1.5 9.5 1.72386 9.5 2V7.38092Z" fill="#18202A"/>
<path fill-rule="evenodd" clip-rule="evenodd" d="M0.796707 1.50457L1.5 2.20784V9.30673C1.5 10.0052 1.98211 10.6113 2.66271 10.7683L6.77514 11.7173C7.40176 11.8619 8 11.386 8 10.7429V10.5H9C9.23142 10.5 9.4506 10.4476 9.64632 10.354L10.4956 11.2032C10.7168 11.4245 11.0546 11.4454 11.25 11.2499C11.4454 11.0545 11.4245 10.7167 11.2033 10.4955L1.50444 0.796829C1.28322 0.575607 0.945454 0.554704 0.750018 0.75014C0.554582 0.945576 0.575485 1.28334 0.796707 1.50457ZM8 8.70771L8.79231 9.5H8V8.70771ZM6.71766 7.4254L6.00075 6.7085C6.00025 6.72224 6 6.73608 6 6.75C6 7.16421 6.22386 7.5 6.5 7.5C6.57802 7.5 6.65186 7.4732 6.71766 7.4254Z" fill="#18202A"/>
</g>
</g>
<defs>
<clipPath id="clip0_3626_8957">
<rect width="12" height="12" fill="white"/>
</clipPath>
<clipPath id="clip1_3626_8957">
<rect width="12" height="12" fill="white"/>
</clipPath>
</defs>
</svg>
