<svg width="12" height="12" viewBox="0 0 12 12" fill="none" xmlns="http://www.w3.org/2000/svg">
<g clip-path="url(#clip0_2266_35902)">
<path fill-rule="evenodd" clip-rule="evenodd" d="M11.5 6C11.5 9.03757 9.03757 11.5 6 11.5C2.96243 11.5 0.5 9.03757 0.5 6C0.5 2.96243 2.96243 0.5 6 0.5C9.03757 0.5 11.5 2.96243 11.5 6ZM5.20711 4.5C5.09272 4.5 5 4.59272 5 4.70711C5 4.76203 5.02182 4.81471 5.06066 4.85355L5.10355 4.89645C5.29882 5.09171 5.29882 5.40829 5.10355 5.60355C4.90829 5.79882 4.59171 5.79882 4.39645 5.60355L4.35355 5.56066C4.12718 5.33428 4 5.02725 4 4.70711C4 4.04044 4.54044 3.5 5.20711 3.5H6.62829C7.38587 3.5 8 4.11413 8 4.87171C8 5.46213 7.62219 5.98632 7.06206 6.17303L6.90811 6.22434C6.66439 6.30558 6.5 6.53366 6.5 6.79057V7C6.5 7.27614 6.27614 7.5 6 7.5C5.72386 7.5 5.5 7.27614 5.5 7V6.79057C5.5 6.10323 5.93982 5.49301 6.59189 5.27566L6.74584 5.22434C6.89762 5.17375 7 5.0317 7 4.87171C7 4.66642 6.83358 4.5 6.62829 4.5H5.20711ZM5.5 8.5C5.5 8.22386 5.72386 8 6 8C6.27614 8 6.5 8.22386 6.5 8.5C6.5 8.77614 6.27614 9 6 9C5.72386 9 5.5 8.77614 5.5 8.5Z" fill="#18202A"/>
</g>
<defs>
<clipPath id="clip0_2266_35902">
<rect width="12" height="12" fill="white"/>
</clipPath>
</defs>
</svg>
