<svg width="12" height="12" viewBox="0 0 12 12" fill="none" xmlns="http://www.w3.org/2000/svg">
<path fill-rule="evenodd" clip-rule="evenodd" d="M2.5 2H9.5C9.77614 2 10 2.22386 10 2.5V3.5C10 3.77614 9.77614 4 9.5 4H2.5C2.22386 4 2 3.77614 2 3.5V2.5C2 2.22386 2.22386 2 2.5 2ZM1 2.5C1 1.67157 1.67157 1 2.5 1H9.5C10.3284 1 11 1.67157 11 2.5V3.5C11 4.32843 10.3284 5 9.5 5H2.5C1.67157 5 1 4.32843 1 3.5V2.5ZM2.5 7H9.5C9.77614 7 10 7.22386 10 7.5V8.5C10 8.77614 9.77614 9 9.5 9H2.5C2.22386 9 2 8.77614 2 8.5V7.5C2 7.22386 2.22386 7 2.5 7ZM1 7.5C1 6.67157 1.67157 6 2.5 6H9.5C10.3284 6 11 6.67157 11 7.5V8.5C11 9.32843 10.3284 10 9.5 10H2.5C1.67157 10 1 9.32843 1 8.5V7.5Z" fill="#18202A"/>
</svg>
