<svg width="20" height="20" viewBox="0 0 20 20" fill="none" xmlns="http://www.w3.org/2000/svg">
<rect width="20" height="20" rx="4" fill="#20C950"/>
<g clip-path="url(#clip0_18153_121094)">
<path fill-rule="evenodd" clip-rule="evenodd" d="M15.5 5.49979C15.2239 5.49979 15 5.72365 15 5.99979V8.49979H12.5C12.2239 8.49979 12 8.72365 12 8.99979C12 9.27594 12.2239 9.49979 12.5 9.49979H15.5C15.7761 9.49979 16 9.27594 16 8.99979V5.99979C16 5.72365 15.7761 5.49979 15.5 5.49979Z" fill="white"/>
<path fill-rule="evenodd" clip-rule="evenodd" d="M8 10.9998C8 10.7237 7.77614 10.4998 7.5 10.4998H4.5C4.22386 10.4998 4 10.7237 4 10.9998V13.9998C4 14.2759 4.22386 14.4998 4.5 14.4998C4.77614 14.4998 5 14.2759 5 13.9998V11.4998H7.5C7.77614 11.4998 8 11.2759 8 10.9998Z" fill="white"/>
<path fill-rule="evenodd" clip-rule="evenodd" d="M11.3865 5.19787C10.5752 4.96319 9.71759 4.93786 8.8938 5.12425C8.07001 5.31064 7.30686 5.70268 6.67557 6.26378C6.04427 6.82489 5.5654 7.53677 5.28364 8.333C5.19152 8.59332 5.32788 8.87903 5.5882 8.97115C5.84853 9.06327 6.13424 8.92692 6.22636 8.66659C6.45177 8.02961 6.83486 7.4601 7.3399 7.01122C7.84493 6.56234 8.45545 6.24871 9.11448 6.0996C9.77352 5.95048 10.4596 5.97074 11.1087 6.15849C11.7577 6.34624 12.3487 6.69535 12.8264 7.17326C12.8301 7.17695 12.8338 7.18059 12.8376 7.18417L15.1576 9.36417C15.3588 9.55327 15.6753 9.54342 15.8644 9.34218C16.0535 9.14094 16.0436 8.82451 15.8424 8.63542L13.5279 6.46064C12.9319 5.86618 12.1953 5.43181 11.3865 5.19787ZM4.13562 10.6574C3.94653 10.8586 3.95637 11.1751 4.15761 11.3642L6.47206 13.539C7.06814 14.1334 7.8047 14.5678 8.61347 14.8017C9.42483 15.0364 10.2824 15.0617 11.1062 14.8753C11.93 14.6889 12.6931 14.2969 13.3244 13.7358C13.9557 13.1747 14.4346 12.4628 14.7164 11.6666C14.8085 11.4063 14.6721 11.1206 14.4118 11.0284C14.1515 10.9363 13.8658 11.0727 13.7736 11.333C13.5482 11.97 13.1651 12.5395 12.6601 12.9884C12.1551 13.4372 11.5445 13.7509 10.8855 13.9C10.2265 14.0491 9.54042 14.0288 8.89133 13.8411C8.24225 13.6533 7.65131 13.3042 7.17364 12.8263C7.17142 12.8241 7.16918 12.8219 7.16691 12.8197C7.16541 12.8183 7.16391 12.8168 7.16239 12.8154L4.84239 10.6354C4.64115 10.4463 4.32472 10.4562 4.13562 10.6574Z" fill="white"/>
</g>
<defs>
<clipPath id="clip0_18153_121094">
<rect width="12" height="12" fill="white" transform="translate(4 4)"/>
</clipPath>
</defs>
</svg>
