<svg width="12" height="12" viewBox="0 0 12 12" fill="none" xmlns="http://www.w3.org/2000/svg">
<g clip-path="url(#clip0_2266_38125)">
<path fill-rule="evenodd" clip-rule="evenodd" d="M3 0.5C2.44772 0.5 2 0.947715 2 1.5H10C10 0.947715 9.55228 0.5 9 0.5H3ZM3 3H1.5V4.5C1.5 4.77614 1.72386 5 2 5H2.5C2.77614 5 3 4.77614 3 4.5V3ZM2.5 6C2.88418 6 3.23462 5.85557 3.5 5.61805C3.76538 5.85557 4.11582 6 4.5 6H5C5.38418 6 5.73462 5.85557 6 5.61805C6.26538 5.85557 6.61582 6 7 6H7.5C7.88418 6 8.23462 5.85557 8.5 5.61805C8.76538 5.85557 9.11582 6 9.5 6H10C10.8284 6 11.5 5.32843 11.5 4.5V3C11.5 2.44772 11.0523 2 10.5 2H9H8H6.5H5.5H4H3H1.5C0.947715 2 0.5 2.44772 0.5 3V4.5C0.5 5.32843 1.17157 6 2 6H2.5ZM8 3V4.5C8 4.77614 7.77614 5 7.5 5H7C6.72386 5 6.5 4.77614 6.5 4.5L6.5 3H8ZM9 4.5V3H10.5V4.5C10.5 4.77614 10.2761 5 10 5H9.5C9.22386 5 9 4.77614 9 4.5ZM5.5 3H4L4 4.5C4 4.77614 4.22386 5 4.5 5H5C5.27614 5 5.5 4.77614 5.5 4.5V3ZM1 6.23242V9.49999C1 10.6046 1.89543 11.5 3 11.5H9C10.1046 11.5 11 10.6046 11 9.49999V6.23242C10.7058 6.40259 10.3643 6.49999 10 6.49999H9.5C9.13571 6.49999 8.79417 6.40259 8.5 6.23242C8.20583 6.40259 7.86429 6.49999 7.5 6.49999H7C6.63571 6.49999 6.29417 6.40259 6 6.23242C5.70583 6.40259 5.36429 6.49999 5 6.49999H4.5C4.13571 6.49999 3.79417 6.40259 3.5 6.23242C3.20583 6.40259 2.86429 6.49999 2.5 6.49999H2C1.63571 6.49999 1.29417 6.40259 1 6.23242ZM4.5 9C4.5 8.17157 5.17157 7.5 6 7.5C6.82843 7.5 7.5 8.17157 7.5 9V10.5H4.5V9Z" fill="#18202A"/>
</g>
<defs>
<clipPath id="clip0_2266_38125">
<rect width="12" height="12" fill="white"/>
</clipPath>
</defs>
</svg>
