<svg width="12" height="12" viewBox="0 0 12 12" fill="none" xmlns="http://www.w3.org/2000/svg">
<g clip-path="url(#clip0_2266_38145)">
<path fill-rule="evenodd" clip-rule="evenodd" d="M6 10.5C8.48528 10.5 10.5 8.48528 10.5 6C10.5 3.51472 8.48528 1.5 6 1.5C3.51472 1.5 1.5 3.51472 1.5 6C1.5 8.48528 3.51472 10.5 6 10.5ZM6 11.5C9.03757 11.5 11.5 9.03757 11.5 6C11.5 2.96243 9.03757 0.5 6 0.5C2.96243 0.5 0.5 2.96243 0.5 6C0.5 9.03757 2.96243 11.5 6 11.5Z" fill="#18202A"/>
<path d="M7.75 4.46875C7.75 5.875 7.16667 7 6 7C4.83333 7 4.25 5.875 4.25 4.46875C4.25 3.34375 4.83333 2.5 6 2.5C7.16667 2.5 7.75 3.34375 7.75 4.46875Z" fill="#18202A"/>
<path d="M2.01112 9.78669C2.09166 9.46758 2.25406 9.17044 2.49966 8.92962C3.40157 8.0453 4.63711 7.5 6.00001 7.5C7.3629 7.5 8.59844 8.04529 9.50034 8.92961C9.74594 9.17043 9.90834 9.46757 9.98888 9.78668C8.98674 10.842 7.57021 11.5 6 11.5C4.42979 11.5 3.01327 10.842 2.01112 9.78669Z" fill="#18202A"/>
</g>
<defs>
<clipPath id="clip0_2266_38145">
<rect width="12" height="12" fill="white"/>
</clipPath>
</defs>
</svg>
