<svg width="12" height="12" viewBox="0 0 12 12" fill="none" xmlns="http://www.w3.org/2000/svg">
<path fill-rule="evenodd" clip-rule="evenodd" d="M8.5 11.25C10.0188 11.25 11.25 10.0188 11.25 8.5C11.25 6.98122 10.0188 5.75 8.5 5.75C6.98122 5.75 5.75 6.98122 5.75 8.5C5.75 10.0188 6.98122 11.25 8.5 11.25ZM8.5 12C10.433 12 12 10.433 12 8.5C12 6.567 10.433 5 8.5 5C6.567 5 5 6.567 5 8.5C5 10.433 6.567 12 8.5 12Z" fill="#18202A"/>
<path fill-rule="evenodd" clip-rule="evenodd" d="M0.5 3C0.5 2.69778 0.684092 2.46955 0.87864 2.31623C1.07742 2.15957 1.34181 2.0349 1.63509 1.93714C2.22558 1.74031 3.01748 1.625 3.875 1.625C4.73252 1.625 5.52442 1.74031 6.11491 1.93714C6.40819 2.0349 6.67258 2.15957 6.87136 2.31623C7.06591 2.46955 7.25 2.69778 7.25 3V5.22981C6.98272 5.33204 6.73117 5.4661 6.5 5.62734V5.40929C6.38026 5.46658 6.25068 5.51761 6.11491 5.56286C5.52442 5.75969 4.73252 5.875 3.875 5.875C3.01748 5.875 2.22558 5.75969 1.63509 5.56286C1.49932 5.51761 1.36974 5.46658 1.25 5.40929V5.99429C1.25365 6.00389 1.27127 6.03829 1.34287 6.09472C1.44771 6.17734 1.62266 6.26815 1.87227 6.35135C2.36756 6.51645 3.07566 6.625 3.875 6.625C4.58034 6.625 5.21464 6.54048 5.69438 6.40716C5.49799 6.67001 5.33768 6.96138 5.22076 7.27393C4.80799 7.33938 4.35163 7.375 3.875 7.375C3.01748 7.375 2.22558 7.25969 1.63509 7.06286C1.49932 7.01761 1.36974 6.96658 1.25 6.90929V7.49429C1.25365 7.50389 1.27127 7.53829 1.34287 7.59472C1.44771 7.67734 1.62266 7.76815 1.87227 7.85135C2.36756 8.01645 3.07566 8.125 3.875 8.125C4.29007 8.125 4.68053 8.09573 5.02937 8.04447C5.01 8.19357 5 8.34562 5 8.5C5 8.60237 5.0044 8.70372 5.01301 8.80386C4.65686 8.85016 4.273 8.875 3.875 8.875C3.01748 8.875 2.22558 8.75969 1.63509 8.56286C1.49932 8.51761 1.36974 8.46658 1.25 8.40929V8.99429C1.25365 9.00389 1.27127 9.03829 1.34287 9.09472C1.44771 9.17734 1.62266 9.26815 1.87227 9.35135C2.36756 9.51645 3.07566 9.625 3.875 9.625C4.33963 9.625 4.77344 9.58832 5.15254 9.52518C5.22856 9.77372 5.3315 10.0105 5.45796 10.2321C4.98587 10.3241 4.44493 10.375 3.875 10.375C3.01748 10.375 2.22558 10.2597 1.63509 10.0629C1.34181 9.9651 1.07742 9.84043 0.87864 9.68377C0.684092 9.53045 0.5 9.30222 0.5 9V3ZM1.34287 2.90528C1.28162 2.95356 1.25987 2.98571 1.25258 3C1.25987 3.01429 1.28162 3.04644 1.34287 3.09472C1.44771 3.17734 1.62266 3.26815 1.87227 3.35135C2.36756 3.51645 3.07566 3.625 3.875 3.625C4.67434 3.625 5.38244 3.51645 5.87774 3.35135C6.12734 3.26815 6.30229 3.17734 6.40713 3.09472C6.46838 3.04644 6.49013 3.01429 6.49742 3C6.49013 2.98571 6.46838 2.95356 6.40713 2.90528C6.30229 2.82266 6.12734 2.73185 5.87774 2.64865C5.38244 2.48355 4.67434 2.375 3.875 2.375C3.07566 2.375 2.36756 2.48355 1.87227 2.64865C1.62266 2.73185 1.44771 2.82266 1.34287 2.90528ZM6.5 3.90929C6.38026 3.96658 6.25068 4.01761 6.11491 4.06286C5.52442 4.25969 4.73252 4.375 3.875 4.375C3.01748 4.375 2.22558 4.25969 1.63509 4.06286C1.49932 4.01761 1.36974 3.96658 1.25 3.90929V4.49429C1.25365 4.50389 1.27127 4.53829 1.34287 4.59472C1.44771 4.67734 1.62266 4.76815 1.87227 4.85135C2.36756 5.01645 3.07566 5.125 3.875 5.125C4.67434 5.125 5.38244 5.01645 5.87774 4.85135C6.12734 4.76815 6.30229 4.67734 6.40713 4.59472C6.47873 4.53829 6.49635 4.50389 6.5 4.49429V3.90929Z" fill="#18202A"/>
<path fill-rule="evenodd" clip-rule="evenodd" d="M6.625 8.5C6.625 7.60254 7.35254 6.875 8.25 6.875H9.5C9.70711 6.875 9.875 7.04289 9.875 7.25C9.875 7.45711 9.70711 7.625 9.5 7.625H8.25C7.76675 7.625 7.375 8.01675 7.375 8.5C7.375 8.98325 7.76675 9.375 8.25 9.375H9.25C9.45711 9.375 9.625 9.20711 9.625 9C9.625 8.93096 9.56904 8.875 9.5 8.875H8.75C8.54289 8.875 8.375 8.70711 8.375 8.5C8.375 8.29289 8.54289 8.125 8.75 8.125H9.5C9.98325 8.125 10.375 8.51675 10.375 9C10.375 9.62132 9.87132 10.125 9.25 10.125H8.25C7.35254 10.125 6.625 9.39746 6.625 8.5Z" fill="#18202A"/>
</svg>
