<svg width="12" height="12" viewBox="0 0 12 12" fill="none" xmlns="http://www.w3.org/2000/svg">
<path fill-rule="evenodd" clip-rule="evenodd" d="M3.5 10C3.5 9.72386 3.72386 9.5 4 9.5H10.5C10.7761 9.5 11 9.72386 11 10C11 10.2761 10.7761 10.5 10.5 10.5H4C3.72386 10.5 3.5 10.2761 3.5 10Z" fill="#18202A"/>
<path fill-rule="evenodd" clip-rule="evenodd" d="M3.5 2C3.5 1.72386 3.72386 1.5 4 1.5H10.5C10.7761 1.5 11 1.72386 11 2C11 2.27614 10.7761 2.5 10.5 2.5H4C3.72386 2.5 3.5 2.27614 3.5 2Z" fill="#18202A"/>
<path d="M3.35355 4.85355C3.54882 4.65829 3.54882 4.34171 3.35355 4.14645C3.15829 3.95118 2.84171 3.95118 2.64645 4.14645L1.14645 5.64645C1.06267 5.73022 1.01484 5.83633 1.00295 5.94561C0.994144 6.02656 1.00506 6.10923 1.03569 6.18586C1.05647 6.23784 1.08632 6.28704 1.12525 6.33102C1.1329 6.33968 1.14084 6.34807 1.14907 6.35617L2.64645 7.85355C2.84171 8.04882 3.15829 8.04882 3.35355 7.85355C3.54882 7.65829 3.54882 7.34171 3.35355 7.14645L2.70665 6.49955L10.5002 6.49637C10.7764 6.49625 11.0001 6.2723 11 5.99616C10.9999 5.72002 10.776 5.49625 10.4998 5.49637L2.70756 5.49955L3.35355 4.85355Z" fill="#18202A"/>
</svg>
