<svg width="12" height="12" viewBox="0 0 12 12" fill="none" xmlns="http://www.w3.org/2000/svg">
<g clip-path="url(#clip0_3444_9299)">
<g clip-path="url(#clip1_3444_9299)">
<path d="M4 0.5C3.44772 0.5 3 0.947715 3 1.5V2.5C3 2.97826 3.22383 3.40424 3.57245 3.67891C4.00626 4.0207 4.5 4.44772 4.5 5V6C4.5 6.55228 4.05228 7 3.5 7H2.64286C1.45939 7 0.5 7.95939 0.5 9.14286C0.5 9.61624 0.883756 10 1.35714 10H6.28822C6.26306 9.83702 6.25 9.67003 6.25 9.5C6.25 8.32418 6.87442 7.2942 7.80974 6.72357C7.6189 6.54146 7.5 6.28461 7.5 6V5C7.5 4.44772 7.99374 4.0207 8.42755 3.67891C8.77617 3.40424 9 2.97826 9 2.5V1.5C9 0.947715 8.55228 0.5 8 0.5H4Z" fill="#18202A"/>
<path d="M1 11C1 10.7239 1.22386 10.5 1.5 10.5H6.40675C6.52499 10.866 6.70638 11.2036 6.93808 11.5H1.5C1.22386 11.5 1 11.2761 1 11Z" fill="#18202A"/>
<path d="M9.10357 7.14645C9.29883 7.34171 9.29883 7.65829 9.10357 7.85355L8.95712 8H11C11.2762 8 11.5 8.22386 11.5 8.5C11.5 8.77614 11.2762 9 11 9H7.75001C7.54778 9 7.36547 8.87818 7.28807 8.69134C7.21068 8.5045 7.25346 8.28945 7.39646 8.14645L8.39646 7.14645C8.59172 6.95118 8.90831 6.95118 9.10357 7.14645Z" fill="#18202A"/>
<path d="M9.64643 11.1464L9.79288 11H7.74999C7.47384 11 7.24999 10.7761 7.24999 10.5C7.24999 10.2239 7.47384 10 7.74999 10H11C11.2022 10 11.3845 10.1218 11.4619 10.3087C11.5393 10.4955 11.4965 10.7106 11.3535 10.8536L10.3535 11.8536C10.1583 12.0488 9.84169 12.0488 9.64643 11.8536C9.45117 11.6583 9.45117 11.3417 9.64643 11.1464Z" fill="#18202A"/>
</g>
</g>
<defs>
<clipPath id="clip0_3444_9299">
<rect width="12" height="12" fill="white"/>
</clipPath>
<clipPath id="clip1_3444_9299">
<rect width="12" height="12" fill="white"/>
</clipPath>
</defs>
</svg>
