<svg width="12" height="12" viewBox="0 0 12 12" fill="none" xmlns="http://www.w3.org/2000/svg">
<g clip-path="url(#clip0_2266_36834)">
<path d="M5.5 3C5.5 2.72386 5.72386 2.5 6 2.5C6.27614 2.5 6.5 2.72386 6.5 3V6C6.5 6.27614 6.27614 6.5 6 6.5C5.72386 6.5 5.5 6.27614 5.5 6V3Z" fill="#18202A"/>
<path d="M8.5 5.5C8.77614 5.5 9 5.72386 9 6C9 6.27614 8.77614 6.5 8.5 6.5H6C5.72386 6.5 5.5 6.27614 5.5 6C5.5 5.72386 5.72386 5.5 6 5.5H8.5Z" fill="#18202A"/>
<path fill-rule="evenodd" clip-rule="evenodd" d="M6 1.5C4.3201 1.5 2.8545 2.42028 2.08098 3.7866L1.21076 3.29393C2.15453 1.62688 3.94535 0.5 6 0.5C9.03757 0.5 11.5 2.96243 11.5 6C11.5 9.03757 9.03757 11.5 6 11.5C2.96243 11.5 0.5 9.03757 0.5 6C0.5 5.75709 0.515778 5.51766 0.546404 5.28272C0.5821 5.0089 0.851938 4.83958 1.12138 4.90007C1.39081 4.96055 1.55729 5.22804 1.52714 5.50254C1.50921 5.66576 1.5 5.83173 1.5 6C1.5 8.48528 3.51472 10.5 6 10.5C8.48528 10.5 10.5 8.48528 10.5 6C10.5 3.51472 8.48528 1.5 6 1.5Z" fill="#18202A"/>
<path fill-rule="evenodd" clip-rule="evenodd" d="M1.22528 1.35464C1.49723 1.30669 1.75656 1.48827 1.80451 1.76022L2.02465 3.00873L3.27316 2.78858C3.54511 2.74063 3.80444 2.92222 3.85239 3.19416C3.90034 3.46611 3.71875 3.72544 3.44681 3.77339L1.7059 4.08036C1.43395 4.12831 1.17462 3.94673 1.12667 3.67478L0.819699 1.93387C0.771748 1.66192 0.953332 1.40259 1.22528 1.35464Z" fill="#18202A"/>
</g>
<defs>
<clipPath id="clip0_2266_36834">
<rect width="12" height="12" fill="white"/>
</clipPath>
</defs>
</svg>
