<svg width="12" height="12" viewBox="0 0 12 12" fill="none" xmlns="http://www.w3.org/2000/svg">
<g clip-path="url(#clip0_3725_8813)">
<g clip-path="url(#clip1_3725_8813)">
<path fill-rule="evenodd" clip-rule="evenodd" d="M5 1C5 0.723858 4.77614 0.5 4.5 0.5C4.22386 0.5 4 0.723858 4 1V2H3.4375C2.91973 2 2.5 2.41973 2.5 2.9375V4.5H1C0.723858 4.5 0.5 4.72386 0.5 5C0.5 5.27614 0.723858 5.5 1 5.5H2.5V6.5H1C0.723858 6.5 0.5 6.72386 0.5 7C0.5 7.27614 0.723858 7.5 1 7.5H2.5V8.5625C2.5 9.08027 2.91973 9.5 3.4375 9.5H4V11C4 11.2761 4.22386 11.5 4.5 11.5C4.77614 11.5 5 11.2761 5 11V9.5H7V11C7 11.2761 7.22386 11.5 7.5 11.5C7.77614 11.5 8 11.2761 8 11V9.5H9.0625C9.58027 9.5 10 9.08027 10 8.5625V7.5H11C11.2761 7.5 11.5 7.27614 11.5 7C11.5 6.72386 11.2761 6.5 11 6.5H10V5.5H11C11.2761 5.5 11.5 5.27614 11.5 5C11.5 4.72386 11.2761 4.5 11 4.5H10V2.9375C10 2.41973 9.58027 2 9.0625 2H8V1C8 0.723858 7.77614 0.5 7.5 0.5C7.22386 0.5 7 0.723858 7 1V2H5V1ZM7.5 5C7.5 4.72386 7.27614 4.5 7 4.5H5.5C5.22386 4.5 5 4.72386 5 5V6.5C5 6.77614 5.22386 7 5.5 7H7C7.27614 7 7.5 6.77614 7.5 6.5V5Z" fill="#18202A"/>
</g>
</g>
<defs>
<clipPath id="clip0_3725_8813">
<rect width="12" height="12" fill="white"/>
</clipPath>
<clipPath id="clip1_3725_8813">
<rect width="12" height="12" fill="white"/>
</clipPath>
</defs>
</svg>
