<svg width="12" height="12" viewBox="0 0 12 12" fill="none" xmlns="http://www.w3.org/2000/svg">
<path fill-rule="evenodd" clip-rule="evenodd" d="M5.07611 11.3169C4.80913 11.1169 4.61412 10.8358 4.52022 10.5158L5.47977 10.2342C5.51288 10.3471 5.58162 10.4461 5.67563 10.5165C5.76964 10.587 5.88388 10.625 6.00124 10.625C6.11861 10.625 6.23285 10.587 6.32686 10.5165C6.42087 10.4461 6.48961 10.3471 6.52272 10.2342L7.48227 10.5158C7.38836 10.8358 7.19335 11.1169 6.92638 11.3169C6.6594 11.5169 6.33482 11.625 6.00124 11.625C5.66767 11.625 5.34309 11.5169 5.07611 11.3169Z" fill="#18202A"/>
<path fill-rule="evenodd" clip-rule="evenodd" d="M5.99999 0.5C6.27613 0.5 6.49999 0.723858 6.49999 1V1.5C6.49999 1.77614 6.27613 2 5.99999 2C5.72385 2 5.49999 1.77614 5.49999 1.5V1C5.49999 0.723858 5.72385 0.5 5.99999 0.5Z" fill="#18202A"/>
<path d="M3.24162 2.61578C3.97319 1.90136 4.9654 1.5 5.99999 1.5C7.03458 1.5 8.0268 1.90136 8.75837 2.61578C9.48993 3.33021 9.90092 4.29918 9.90092 5.30952C9.90092 7.19955 10.3665 8.31512 10.7506 8.91389C10.8816 9.11809 10.7187 9.5 10.4761 9.5H1.52386C1.28125 9.5 1.11834 9.11809 1.24935 8.91389C1.63349 8.31512 2.09906 7.19954 2.09906 5.30952C2.09906 4.29918 2.51005 3.33021 3.24162 2.61578Z" fill="#18202A"/>
</svg>
