<svg width="12" height="12" viewBox="0 0 12 12" fill="none" xmlns="http://www.w3.org/2000/svg">
<path d="M4.5 3.125C4.29289 3.125 4.125 3.29289 4.125 3.5C4.125 3.70711 4.29289 3.875 4.5 3.875H7.5C7.70711 3.875 7.875 3.70711 7.875 3.5C7.875 3.29289 7.70711 3.125 7.5 3.125H4.5Z" fill="#18202A"/>
<path d="M4.5 5.125C4.29289 5.125 4.125 5.29289 4.125 5.5C4.125 5.70711 4.29289 5.875 4.5 5.875H7.5C7.70711 5.875 7.875 5.70711 7.875 5.5C7.875 5.29289 7.70711 5.125 7.5 5.125H4.5Z" fill="#18202A"/>
<path d="M4.125 7.5C4.125 7.29289 4.29289 7.125 4.5 7.125H7.5C7.70711 7.125 7.875 7.29289 7.875 7.5C7.875 7.70711 7.70711 7.875 7.5 7.875H4.5C4.29289 7.875 4.125 7.70711 4.125 7.5Z" fill="#18202A"/>
<path fill-rule="evenodd" clip-rule="evenodd" d="M3 0.625C2.76794 0.625 2.54538 0.717187 2.38128 0.881282C2.21719 1.04538 2.125 1.26794 2.125 1.5V11C2.125 11.1405 2.20351 11.2692 2.32841 11.3334C2.45331 11.3977 2.60366 11.3868 2.71796 11.3052L4.25 10.2108L5.78204 11.3052C5.91242 11.3983 6.08758 11.3983 6.21796 11.3052L7.75 10.2108L9.28204 11.3052C9.39634 11.3868 9.54669 11.3977 9.67159 11.3334C9.7965 11.2692 9.875 11.1405 9.875 11V1.5C9.875 1.26794 9.78281 1.04538 9.61872 0.881282C9.45463 0.717187 9.23207 0.625 9 0.625H3ZM2.91161 1.41161C2.93505 1.38817 2.96685 1.375 3 1.375H9C9.03315 1.375 9.06495 1.38817 9.08839 1.41161C9.11183 1.43505 9.125 1.46685 9.125 1.5V10.2713L7.96796 9.44485C7.83758 9.35172 7.66242 9.35172 7.53204 9.44485L6 10.5392L4.46796 9.44485C4.33758 9.35172 4.16242 9.35172 4.03204 9.44485L2.875 10.2713V1.5C2.875 1.46685 2.88817 1.43505 2.91161 1.41161Z" fill="#18202A"/>
</svg>
