<svg width="12" height="12" viewBox="0 0 12 12" fill="none" xmlns="http://www.w3.org/2000/svg">
<path fill-rule="evenodd" clip-rule="evenodd" d="M8.0984 3.14136C8.29647 3.33377 8.30106 3.65032 8.10865 3.84839L3.2515 8.84839C3.15492 8.94782 3.02139 9.00269 2.8828 8.9999C2.74421 8.99711 2.613 8.93691 2.52049 8.83368L0.877637 7.00035C0.693351 6.79469 0.710672 6.47859 0.916325 6.2943C1.12198 6.11001 1.43809 6.12733 1.62237 6.33299L2.90761 7.76724L7.39137 3.15161C7.58378 2.95354 7.90033 2.94895 8.0984 3.14136Z" fill="#18202A"/>
<path fill-rule="evenodd" clip-rule="evenodd" d="M11.0984 3.14136C11.2965 3.33377 11.3011 3.65032 11.1086 3.84839L6.2515 8.84839C6.15246 8.95035 6.01471 9.00533 5.87269 8.99959C5.73067 8.99386 5.5978 8.92795 5.5073 8.81834L4.97362 8.17195C4.7978 7.95901 4.8279 7.64386 5.04084 7.46805C5.25378 7.29224 5.56893 7.32234 5.74475 7.53528L5.9231 7.7513L10.3914 3.15161C10.5838 2.95354 10.9003 2.94895 11.0984 3.14136Z" fill="#18202A"/>
</svg>
