<svg width="12" height="12" viewBox="0 0 12 12" fill="none" xmlns="http://www.w3.org/2000/svg">
<g clip-path="url(#clip0_2266_36465)">
<path fill-rule="evenodd" clip-rule="evenodd" d="M6 11.5C9.03757 11.5 11.5 9.03757 11.5 6C11.5 2.96243 9.03757 0.5 6 0.5C2.96243 0.5 0.5 2.96243 0.5 6C0.5 9.03757 2.96243 11.5 6 11.5ZM6.5 3.5C6.5 3.22386 6.27614 3 6 3C5.72386 3 5.5 3.22386 5.5 3.5V5.5H3.5C3.22386 5.5 3 5.72386 3 6C3 6.27614 3.22386 6.5 3.5 6.5H5.5V8.5C5.5 8.77614 5.72386 9 6 9C6.27614 9 6.5 8.77614 6.5 8.5V6.5H8.5C8.77614 6.5 9 6.27614 9 6C9 5.72386 8.77614 5.5 8.5 5.5H6.5V3.5Z" fill="#18202A"/>
</g>
<defs>
<clipPath id="clip0_2266_36465">
<rect width="12" height="12" fill="white"/>
</clipPath>
</defs>
</svg>
