<svg width="24" height="24" viewBox="0 0 24 24" fill="none" xmlns="http://www.w3.org/2000/svg">
<path fill-rule="evenodd" clip-rule="evenodd" d="M20.0987 5.5C19.5799 6.3967 18.6104 7 17.5 7C16.3896 7 15.4201 6.3967 14.9013 5.5H3C2.17157 5.5 1.5 6.17157 1.5 7V17C1.5 17.8284 2.17157 18.5 3 18.5H14.9013C15.4201 17.6033 16.3896 17 17.5 17C18.6104 17 19.5799 17.6033 20.0987 18.5H21C21.8284 18.5 22.5 17.8284 22.5 17V7C22.5 6.17157 21.8284 5.5 21 5.5H20.0987ZM19 20C19 19.1716 18.3284 18.5 17.5 18.5C16.6716 18.5 16 19.1716 16 20H3C1.34315 20 0 18.6569 0 17V7C0 5.34315 1.34315 4 3 4H16C16 4.82843 16.6716 5.5 17.5 5.5C18.3284 5.5 19 4.82843 19 4H21C22.6569 4 24 5.34315 24 7V17C24 18.6569 22.6569 20 21 20H19ZM3 8.75C3 8.33579 3.33579 8 3.75 8H12.75C13.1642 8 13.5 8.33579 13.5 8.75C13.5 9.16421 13.1642 9.5 12.75 9.5H3.75C3.33579 9.5 3 9.16421 3 8.75ZM3.75 11C3.33579 11 3 11.3358 3 11.75C3 12.1642 3.33579 12.5 3.75 12.5H12.75C13.1642 12.5 13.5 12.1642 13.5 11.75C13.5 11.3358 13.1642 11 12.75 11H3.75ZM3 14.75C3 14.3358 3.33579 14 3.75 14H6.25C6.66421 14 7 14.3358 7 14.75C7 15.1642 6.66421 15.5 6.25 15.5H3.75C3.33579 15.5 3 15.1642 3 14.75ZM18 15V9H17V15H18Z" fill="#26282C"/>
</svg>
