<svg width="16" height="16" viewBox="0 0 16 16" fill="none" xmlns="http://www.w3.org/2000/svg">
<g clip-path="url(#clip0_2266_36073)">
<path fill-rule="evenodd" clip-rule="evenodd" d="M8.64904 9.15183C8.24543 9.37685 7.75409 9.37684 7.35048 9.15182L2 6.16871L2 13.2074C2.3039 13.418 2.50293 13.7693 2.50293 14.167C2.50293 14.8113 1.9806 15.3337 1.33626 15.3337C0.691931 15.3337 0.169596 14.8113 0.169596 14.167C0.169596 13.7718 0.366071 13.4225 0.666666 13.2115L0.666667 5.42533L0.350975 5.24932C-0.105061 4.99506 -0.105055 4.339 0.350986 4.08475L7.35051 0.182431C7.7541 -0.0425767 8.24542 -0.0425814 8.64902 0.182418L15.6489 4.08474C16.1049 4.33899 16.1049 4.99507 15.6489 5.24932L8.64904 9.15183ZM9.5 4.66699C9.5 5.21928 8.82843 5.66699 8 5.66699C7.17157 5.66699 6.5 5.21928 6.5 4.66699C6.5 4.11471 7.17157 3.66699 8 3.66699C8.82843 3.66699 9.5 4.11471 9.5 4.66699ZM7.02584 9.73394L2.66667 7.30353V9.56188C2.66667 11.6451 5.05448 13.3335 8 13.3335C10.9455 13.3335 13.3333 11.6451 13.3333 9.56188V7.30339L8.97367 9.73396C8.36826 10.0715 7.63125 10.0715 7.02584 9.73394Z" fill="#18202A"/>
</g>
<defs>
<clipPath id="clip0_2266_36073">
<rect width="16" height="16" fill="white"/>
</clipPath>
</defs>
</svg>
