<svg width="16" height="16" viewBox="0 0 16 16" fill="none" xmlns="http://www.w3.org/2000/svg">
<path fill-rule="evenodd" clip-rule="evenodd" d="M15.3333 2.1668C15.0572 2.1668 14.8333 2.39066 14.8333 2.6668V6.1668H11.3333C11.0572 6.1668 10.8333 6.39066 10.8333 6.6668C10.8333 6.94294 11.0572 7.1668 11.3333 7.1668H15.3333C15.6095 7.1668 15.8333 6.94294 15.8333 6.6668V2.6668C15.8333 2.39066 15.6095 2.1668 15.3333 2.1668Z" fill="#18202A"/>
<path fill-rule="evenodd" clip-rule="evenodd" d="M5.16665 9.33346C5.16665 9.05732 4.94279 8.83346 4.66665 8.83346H0.666646C0.390504 8.83346 0.166646 9.05732 0.166646 9.33346V13.3335C0.166646 13.6096 0.390504 13.8335 0.666646 13.8335C0.942788 13.8335 1.16665 13.6096 1.16665 13.3335V9.83346H4.66665C4.94279 9.83346 5.16665 9.60961 5.16665 9.33346Z" fill="#18202A"/>
<path fill-rule="evenodd" clip-rule="evenodd" d="M9.80237 1.75767C8.74761 1.45258 7.63275 1.41965 6.56183 1.66196C5.4909 1.90428 4.49881 2.41392 3.67812 3.14336C2.85744 3.87279 2.23491 4.79823 1.86862 5.83333C1.7765 6.09366 1.91286 6.37937 2.17318 6.47149C2.43351 6.56361 2.71922 6.42725 2.81134 6.16693C3.12127 5.29108 3.64803 4.50801 4.34246 3.8908C5.03688 3.27358 5.87634 2.84234 6.78251 2.63731C7.68868 2.43228 8.63202 2.46014 9.52451 2.71829C10.417 2.97644 11.2295 3.45648 11.8863 4.1136C11.89 4.11729 11.8938 4.12093 11.8976 4.12451L14.9909 7.03117C15.1922 7.22027 15.5086 7.21043 15.6977 7.00919C15.8868 6.80795 15.8769 6.49152 15.6757 6.30242L12.588 3.40101C11.8128 2.62732 10.8546 2.06202 9.80237 1.75767ZM0.30227 8.99108C0.113174 9.19232 0.123018 9.50875 0.324258 9.69784L3.412 12.5993C4.18721 13.3729 5.14539 13.9382 6.19759 14.2426C7.25235 14.5477 8.3672 14.5806 9.43813 14.3383C10.5091 14.096 11.5011 13.5863 12.3218 12.8569C13.1425 12.1275 13.765 11.202 14.1313 10.1669C14.2235 9.90661 14.0871 9.62089 13.8268 9.52877C13.5665 9.43665 13.2807 9.57301 13.1886 9.83333C12.8787 10.7092 12.3519 11.4923 11.6575 12.1095C10.9631 12.7267 10.1236 13.1579 9.21745 13.363C8.31128 13.568 7.36794 13.5401 6.47545 13.282C5.58296 13.0238 4.77041 12.5438 4.11362 11.8867C4.10993 11.883 4.10618 11.8793 4.10237 11.8758L1.00903 8.96909C0.807795 8.77999 0.491365 8.78984 0.30227 8.99108Z" fill="#18202A"/>
</svg>
