<svg width="16" height="16" viewBox="0 0 16 16" fill="none" xmlns="http://www.w3.org/2000/svg">
<path d="M8.49996 3.16675C8.22382 3.16675 7.99996 2.94289 7.99996 2.66675C7.99996 2.39061 8.22382 2.16675 8.49996 2.16675H13.3333C13.6094 2.16675 13.8333 2.39061 13.8333 2.66675V7.50008C13.8333 7.77622 13.6094 8.00008 13.3333 8.00008C13.0571 8.00008 12.8333 7.77622 12.8333 7.50008V3.87385L9.68685 7.0203C9.49158 7.21556 9.175 7.21556 8.97974 7.0203C8.78448 6.82504 8.78448 6.50846 8.97974 6.31319L12.1262 3.16675H8.49996Z" fill="#18202A"/>
<path d="M7.99996 13.3334C7.99996 13.6096 7.7761 13.8334 7.49996 13.8334H2.66663C2.39048 13.8334 2.16663 13.6096 2.16663 13.3334V8.50008C2.16663 8.22394 2.39048 8.00008 2.66663 8.00008C2.94277 8.00008 3.16663 8.22394 3.16663 8.50008L3.16663 12.1263L6.31307 8.97986C6.50834 8.7846 6.82492 8.7846 7.02018 8.97986C7.21544 9.17512 7.21544 9.49171 7.02018 9.68697L3.87373 12.8334H7.49996C7.7761 12.8334 7.99996 13.0573 7.99996 13.3334Z" fill="#18202A"/>
</svg>
