<svg width="16" height="16" viewBox="0 0 16 16" fill="none" xmlns="http://www.w3.org/2000/svg">
<g clip-path="url(#clip0_2266_35457)">
<path fill-rule="evenodd" clip-rule="evenodd" d="M0.666667 3.33366C0.666667 1.8609 1.86057 0.666992 3.33333 0.666992H12.6667C14.1394 0.666992 15.3333 1.8609 15.3333 3.33366V10.2069C14.9348 9.39032 14.2124 8.76074 13.3333 8.48544V8.00033C13.3333 7.63214 13.0349 7.33366 12.6667 7.33366H3.33333C2.96514 7.33366 2.66667 7.63214 2.66667 8.00033V12.667C2.66667 13.0352 2.96514 13.3337 3.33333 13.3337H8.78669C8.13974 13.8961 8.2284 14.8357 8.77974 15.3337H3.33333C1.86057 15.3337 0.666667 14.1398 0.666667 12.667V3.33366ZM2.66667 4.00033C2.66667 3.26395 3.26362 2.66699 4 2.66699C4.73638 2.66699 5.33333 3.26395 5.33333 4.00033C5.33333 4.73671 4.73638 5.33366 4 5.33366C3.26362 5.33366 2.66667 4.73671 2.66667 4.00033ZM7.33333 3.33366C6.96514 3.33366 6.66667 3.63214 6.66667 4.00033C6.66667 4.36852 6.96514 4.66699 7.33333 4.66699H12.6667C13.0349 4.66699 13.3333 4.36852 13.3333 4.00033C13.3333 3.63214 13.0349 3.33366 12.6667 3.33366H7.33333Z" fill="#18202A"/>
<path fill-rule="evenodd" clip-rule="evenodd" d="M14.6667 11.6663L14.6667 11.6759V12.6663C14.6667 13.2959 14.9631 13.8886 15.4667 14.2663C15.6375 14.3945 15.5469 14.6663 15.3333 14.6663H9.33333C9.11977 14.6663 9.02915 14.3945 9.2 14.2663C9.70361 13.8886 10 13.2959 10 12.6663V11.6664C10 11.6663 10 11.6663 10 11.6663C10 11.6663 10 11.6663 10 11.6663C10 10.3777 11.0447 9.33301 12.3333 9.33301C13.622 9.33301 14.6667 10.3777 14.6667 11.6663ZM11.6667 15.333C11.4826 15.333 11.3333 15.4822 11.3333 15.6663C11.3333 15.8504 11.4826 15.9997 11.6667 15.9997H13C13.1841 15.9997 13.3333 15.8504 13.3333 15.6663C13.3333 15.4822 13.1841 15.333 13 15.333H11.6667Z" fill="#18202A"/>
</g>
<defs>
<clipPath id="clip0_2266_35457">
<rect width="16" height="16" fill="white"/>
</clipPath>
</defs>
</svg>
