<svg width="16" height="16" viewBox="0 0 16 16" fill="none" xmlns="http://www.w3.org/2000/svg">
<path fill-rule="evenodd" clip-rule="evenodd" d="M11.6667 12.3337C12.219 12.3337 12.6667 12.7814 12.6667 13.3337H14C15.1046 13.3337 16 12.4382 16 11.3337V4.66699C16 3.56242 15.1046 2.66699 14 2.66699H12.6667C12.6667 3.21928 12.219 3.66699 11.6667 3.66699C11.1144 3.66699 10.6667 3.21928 10.6667 2.66699H2C0.895431 2.66699 0 3.56242 0 4.66699V11.3337C0 12.4382 0.89543 13.3337 2 13.3337H10.6667C10.6667 12.7814 11.1144 12.3337 11.6667 12.3337ZM2.5 5.33398C2.22386 5.33398 2 5.55784 2 5.83398C2 6.11013 2.22386 6.33398 2.5 6.33398H8.5C8.77614 6.33398 9 6.11013 9 5.83398C9 5.55784 8.77614 5.33398 8.5 5.33398H2.5ZM2 7.83398C2 7.55784 2.22386 7.33398 2.5 7.33398H8.5C8.77614 7.33398 9 7.55784 9 7.83398C9 8.11013 8.77614 8.33398 8.5 8.33398H2.5C2.22386 8.33398 2 8.11013 2 7.83398ZM2.5 9.33398C2.22386 9.33398 2 9.55784 2 9.83398C2 10.1101 2.22386 10.334 2.5 10.334H4.16667C4.44281 10.334 4.66667 10.1101 4.66667 9.83398C4.66667 9.55784 4.44281 9.33398 4.16667 9.33398H2.5ZM11.3333 6H12V10H11.3333V6Z" fill="#18202A"/>
</svg>
