<svg width="16" height="16" viewBox="0 0 16 16" fill="none" xmlns="http://www.w3.org/2000/svg">
<path d="M1.33337 2.66671C1.33337 1.93033 1.93033 1.33337 2.66671 1.33337H6.00004C6.73642 1.33337 7.33337 1.93033 7.33337 2.66671V4.00004C7.33337 4.73642 6.73642 5.33337 6.00004 5.33337H4.66671V8.00004H10C10 7.26366 10.597 6.66671 11.3334 6.66671H13.3334C14.0698 6.66671 14.6667 7.26366 14.6667 8.00004V8.66671C14.6667 9.40309 14.0698 10 13.3334 10H11.3334C10.8399 10 10.409 9.73191 10.1784 9.33337H4.66671V12C4.66671 12.3682 4.96518 12.6667 5.33337 12.6667H10C10 11.9303 10.597 11.3334 11.3334 11.3334H13.3334C14.0698 11.3334 14.6667 11.9303 14.6667 12.6667V13.3334C14.6667 14.0698 14.0698 14.6667 13.3334 14.6667H11.3334C10.8399 14.6667 10.409 14.3986 10.1784 14H5.33337C4.2288 14 3.33337 13.1046 3.33337 12V5.33337H2.66671C1.93033 5.33337 1.33337 4.73642 1.33337 4.00004V2.66671Z" fill="#18202A"/>
</svg>
