<svg width="16" height="16" viewBox="0 0 16 16" fill="none" xmlns="http://www.w3.org/2000/svg">
<g clip-path="url(#clip0_2266_38954)">
<path fill-rule="evenodd" clip-rule="evenodd" d="M7.99999 14.3334C11.4978 14.3334 14.3333 11.4979 14.3333 8.00008C14.3333 4.50228 11.4978 1.66675 7.99999 1.66675C4.50219 1.66675 1.66666 4.50228 1.66666 8.00008C1.66666 11.4979 4.50219 14.3334 7.99999 14.3334ZM15.3333 8.00008C15.3333 12.0502 12.0501 15.3334 7.99999 15.3334C3.9499 15.3334 0.666656 12.0502 0.666656 8.00008C0.666656 3.94999 3.9499 0.666748 7.99999 0.666748C12.0501 0.666748 15.3333 3.94999 15.3333 8.00008Z" fill="#18202A"/>
<path fill-rule="evenodd" clip-rule="evenodd" d="M13.0202 2.97986C12.8249 2.7846 12.5084 2.7846 12.3131 2.97986L2.97977 12.3132C2.78451 12.5085 2.78451 12.825 2.97977 13.0203C3.17503 13.2156 3.49161 13.2156 3.68688 13.0203L13.0202 3.68697C13.2155 3.49171 13.2155 3.17512 13.0202 2.97986Z" fill="#18202A"/>
</g>
<defs>
<clipPath id="clip0_2266_38954">
<rect width="16" height="16" fill="white"/>
</clipPath>
</defs>
</svg>
