<svg width="16" height="16" viewBox="0 0 16 16" fill="none" xmlns="http://www.w3.org/2000/svg">
<path d="M12 1.83325C12 2.10939 11.7762 2.33325 11.5 2.33325H4.00004C3.07957 2.33325 2.33337 3.07944 2.33337 3.99992V11.9999C2.33337 12.9204 3.07957 13.6666 4.00004 13.6666H12C12.9205 13.6666 13.6667 12.9204 13.6667 11.9999V7.83325C13.6667 7.55711 13.8906 7.33325 14.1667 7.33325C14.4429 7.33325 14.6667 7.55711 14.6667 7.83325V11.9999C14.6667 13.4727 13.4728 14.6666 12 14.6666H4.00004C2.52728 14.6666 1.33337 13.4727 1.33337 11.9999V3.99992C1.33337 2.52716 2.52728 1.33325 4.00004 1.33325H11.5C11.7762 1.33325 12 1.55711 12 1.83325Z" fill="#18202A"/>
<path d="M14.6869 4.02014C14.8822 3.82488 14.8822 3.50829 14.6869 3.31303C14.4917 3.11777 14.1751 3.11777 13.9798 3.31303L7.66671 9.62614L5.35359 7.31303C5.15833 7.11777 4.84175 7.11777 4.64649 7.31303C4.45123 7.50829 4.45123 7.82488 4.64649 8.02014L7.31315 10.6868C7.50842 10.8821 7.825 10.8821 8.02026 10.6868L14.6869 4.02014Z" fill="#18202A"/>
</svg>
