<svg width="16" height="16" viewBox="0 0 16 16" fill="none" xmlns="http://www.w3.org/2000/svg">
<g clip-path="url(#clip0_3626_8907)">
<g clip-path="url(#clip1_3626_8907)">
<path d="M11.3333 9.20899L10.3333 8.20899V4.28392C10.3333 3.81238 10.0039 3.40492 9.54286 3.30612L4.3089 2.18456L3.03766 0.913312C3.32317 0.756305 3.65115 0.666992 4 0.666992H12C13.1046 0.666992 14 1.56242 14 2.66699V11.8757L13 10.8757V2.66699C13 2.11471 12.5523 1.66699 12 1.66699H6.66621L9.75239 2.32832C10.6745 2.52592 11.3333 3.34084 11.3333 4.28392V9.20899Z" fill="#18202A"/>
<path fill-rule="evenodd" clip-rule="evenodd" d="M1 1.71194L2 2.71195V12.3836C2 13.3267 2.6588 14.1416 3.58094 14.3392L8.91428 15.4821C9.99897 15.7145 11.0298 15.024 11.2773 14.0003H12C12.3697 14.0003 12.716 13.9 13.0131 13.7251L14.2883 15.0003C14.4848 15.1968 14.8033 15.1968 14.9997 15.0003C15.1962 14.8039 15.1962 14.4854 14.9997 14.2889L1.71141 1.00053C1.51496 0.804077 1.19645 0.804077 1 1.00053C0.803548 1.19698 0.803548 1.51549 1 1.71194ZM11.3333 12.0453L12.2554 12.9674C12.1739 12.9889 12.0883 13.0003 12 13.0003H11.3333V12.0453ZM9.1238 14.5042C9.74632 14.6376 10.3333 14.1631 10.3333 13.5264V11.0453L9.07679 9.78877C8.96368 9.92133 8.82132 10.0003 8.66667 10.0003C8.29848 10.0003 8 9.55261 8 9.00033C8 8.90868 8.00822 8.81991 8.02361 8.73559L3 3.71195V12.3836C3 12.8551 3.3294 13.2626 3.79047 13.3614L9.1238 14.5042Z" fill="#18202A"/>
</g>
</g>
<defs>
<clipPath id="clip0_3626_8907">
<rect width="16" height="16" fill="white"/>
</clipPath>
<clipPath id="clip1_3626_8907">
<rect width="16" height="16" fill="white"/>
</clipPath>
</defs>
</svg>
