<svg width="16" height="16" viewBox="0 0 16 16" fill="none" xmlns="http://www.w3.org/2000/svg">
<g clip-path="url(#clip0_2266_41157)">
<path fill-rule="evenodd" clip-rule="evenodd" d="M14.3333 8.00008C14.3333 11.4979 11.4978 14.3334 7.99999 14.3334C4.50219 14.3334 1.66666 11.4979 1.66666 8.00008C1.66666 4.50228 4.50219 1.66675 7.99999 1.66675C11.4978 1.66675 14.3333 4.50228 14.3333 8.00008ZM15.3333 8.00008C15.3333 12.0502 12.0501 15.3334 7.99999 15.3334C3.9499 15.3334 0.666656 12.0502 0.666656 8.00008C0.666656 3.94999 3.9499 0.666748 7.99999 0.666748C12.0501 0.666748 15.3333 3.94999 15.3333 8.00008ZM5.33332 7.50008C5.05718 7.50008 4.83332 7.72394 4.83332 8.00008C4.83332 8.27622 5.05718 8.50008 5.33332 8.50008H10.6667C10.9428 8.50008 11.1667 8.27622 11.1667 8.00008C11.1667 7.72394 10.9428 7.50008 10.6667 7.50008H5.33332Z" fill="#18202A"/>
</g>
<defs>
<clipPath id="clip0_2266_41157">
<rect width="16" height="16" fill="white"/>
</clipPath>
</defs>
</svg>
