<svg width="16" height="16" viewBox="0 0 16 16" fill="none" xmlns="http://www.w3.org/2000/svg">
<g clip-path="url(#clip0_2266_37638)">
<path fill-rule="evenodd" clip-rule="evenodd" d="M0.666667 3.33366C0.666667 1.8609 1.86057 0.666992 3.33333 0.666992H12.6667C14.1394 0.666992 15.3333 1.8609 15.3333 3.33366V8.83679C14.5774 8.30954 13.6582 8.00033 12.6667 8.00033C12.3818 8.00033 12.1028 8.02586 11.832 8.07475C11.566 8.01751 11.2892 7.9873 11.0051 7.9873C10.8055 7.9873 10.6095 8.00221 10.4184 8.03092C10.477 8.06782 10.5348 8.10601 10.5917 8.14547C10.688 8.21233 10.7759 8.28583 10.8554 8.36486C10.6325 8.4588 10.4185 8.56954 10.2149 8.6955L10.2116 8.69318C9.58151 8.25594 8.82012 8.00033 8.00008 8.00033C7.18006 8.00033 6.41867 8.25593 5.78859 8.69316C5.28455 9.04293 5.11519 9.69687 5.30842 10.2792C5.39384 10.5366 5.49334 10.7874 5.60598 11.0307C5.82197 11.4972 6.25763 11.8234 6.7652 11.9049C7.1675 11.9695 7.57994 12.0031 8.00008 12.0031L8.04689 12.0029C8.01599 12.2198 8 12.4415 8 12.667C8 13.6585 8.30921 14.5778 8.83646 15.3337H3.33333C1.86057 15.3337 0.666667 14.1398 0.666667 12.667V3.33366ZM8 7.33366C8.88889 7.33366 9.33333 6.50033 9.33333 5.45866C9.33333 4.62533 8.88889 4.00033 8 4.00033C7.11111 4.00033 6.66667 4.62533 6.66667 5.45866C6.66667 6.50033 7.11111 7.33366 8 7.33366ZM4.33333 7.33366C5 7.33366 5.33333 6.66699 5.33333 5.83366C5.33333 5.16699 5 4.66699 4.33333 4.66699C3.66667 4.66699 3.33333 5.16699 3.33333 5.83366C3.33333 6.66699 3.66667 7.33366 4.33333 7.33366ZM12.6667 5.83366C12.6667 6.66699 12.3333 7.33366 11.6667 7.33366C11 7.33366 10.6667 6.66699 10.6667 5.83366C10.6667 5.16699 11 4.66699 11.6667 4.66699C12.3333 4.66699 12.6667 5.16699 12.6667 5.83366ZM5.40853 8.14545C5.4591 8.11035 5.51041 8.07626 5.56242 8.04318C5.34716 8.00646 5.12554 7.9873 4.89925 7.9873C4.27276 7.9873 3.68211 8.13416 3.16286 8.39387C2.72208 8.61432 2.53672 9.13095 2.68386 9.60131C2.71243 9.69265 2.74285 9.78322 2.77508 9.87299C2.91542 10.2639 3.26414 10.5397 3.67556 10.5969C4.02447 10.6453 4.3803 10.6734 4.74167 10.6797C4.71889 10.6165 4.6969 10.553 4.67569 10.4891C4.40356 9.66905 4.62638 8.68821 5.40853 8.14545ZM16 12.667C16 14.5079 14.5076 16.0003 12.6667 16.0003C10.8257 16.0003 9.33333 14.5079 9.33333 12.667C9.33333 10.826 10.8257 9.33366 12.6667 9.33366C14.5076 9.33366 16 10.826 16 12.667ZM12.6667 10.667C12.2985 10.667 12 10.9655 12 11.3337V12.0003H11.3333C10.9651 12.0003 10.6667 12.2988 10.6667 12.667C10.6667 13.0352 10.9651 13.3337 11.3333 13.3337H12V14.0003C12 14.3685 12.2985 14.667 12.6667 14.667C13.0349 14.667 13.3333 14.3685 13.3333 14.0003V13.3337H14C14.3682 13.3337 14.6667 13.0352 14.6667 12.667C14.6667 12.2988 14.3682 12.0003 14 12.0003H13.3333V11.3337C13.3333 10.9655 13.0349 10.667 12.6667 10.667Z" fill="#18202A"/>
</g>
<defs>
<clipPath id="clip0_2266_37638">
<rect width="16" height="16" fill="white"/>
</clipPath>
</defs>
</svg>
