<svg width="16" height="16" viewBox="0 0 16 16" fill="none" xmlns="http://www.w3.org/2000/svg">
<path fill-rule="evenodd" clip-rule="evenodd" d="M12.8675 14.0944C13.2269 13.7017 13.5118 13.2354 13.7061 12.7223C13.9004 12.2092 14.0003 11.6593 14 11.104V6.66667H13.9667C13.8122 5.90592 13.1397 5.33333 12.3333 5.33333C12.1249 5.33333 11.9254 5.37159 11.7415 5.44146C11.446 4.97575 10.9257 4.66667 10.3333 4.66667C10.1249 4.66667 9.92544 4.70492 9.74154 4.77479C9.50292 4.39882 9.11789 4.12493 8.66667 4.03334C8.55896 4.01148 8.44749 4 8.33333 4C8.21918 4 8.1077 4.01148 8 4.03334V1.66667C8 0.746192 7.25381 0 6.33333 0C5.41286 0 4.66667 0.746192 4.66667 1.66667V6.68385C4.16373 6.74893 3.6923 6.99674 3.33056 7.39193C2.90548 7.8563 2.66667 8.48613 2.66667 9.14286C2.66649 10.3508 3.01204 11.5285 3.65493 12.5113L4.48604 13.7783C4.80036 14.2589 5.21506 14.6507 5.69573 14.9211C6.1764 15.1916 6.70919 15.3329 7.24987 15.3333H10.1308C10.6391 15.3333 11.1424 15.2239 11.612 15.0113C12.0816 14.7988 12.5082 14.4872 12.8675 14.0944ZM6.66667 7.33333C6.66667 7.70152 6.96514 8 7.33333 8C7.70152 8 8 7.70152 8 7.33333V5.39386L8.26524 5.34002C8.28614 5.33578 8.30876 5.33333 8.33333 5.33333C8.45038 5.33333 8.55449 5.39268 8.61579 5.48926L8.66667 5.56942V7.33333C8.66667 7.70152 8.96514 8 9.33333 8C9.70152 8 10 7.70152 10 7.33333V6.10291L10.2151 6.0212C10.2501 6.00791 10.2892 6 10.3333 6C10.4504 6 10.5545 6.05935 10.6158 6.15593L10.6667 6.23609V7.33333C10.6667 7.70152 10.9651 8 11.3333 8C11.7015 8 12 7.70152 12 7.33333V6.76958L12.2151 6.68787C12.2501 6.67457 12.2892 6.66667 12.3333 6.66667C12.493 6.66667 12.6292 6.78032 12.66 6.93191L12.6667 6.96486V11.1047C12.6669 11.5004 12.5956 11.8899 12.4592 12.2501C12.3228 12.6102 12.1255 12.9302 11.8838 13.1944C11.6422 13.4585 11.3619 13.661 11.0621 13.7967C10.7628 13.9322 10.4467 14 10.1308 14H7.251C6.94372 13.9997 6.63512 13.9198 6.34954 13.7591C6.06313 13.5979 5.80411 13.3577 5.60192 13.0485L4.77073 11.7814L4.77034 11.7808C4.2739 11.0216 3.99986 10.0992 4 9.14305C4 8.80377 4.12446 8.49933 4.31406 8.29221C4.47277 8.11883 4.66058 8.02909 4.83776 8.00616L6 7.85578V1.66667C6 1.48257 6.14924 1.33333 6.33333 1.33333C6.51743 1.33333 6.66667 1.48257 6.66667 1.66667V7.33333Z" fill="#18202A"/>
</svg>
