<svg width="16" height="16" viewBox="0 0 16 16" fill="none" xmlns="http://www.w3.org/2000/svg">
<g clip-path="url(#clip0_3352_8870)">
<path fill-rule="evenodd" clip-rule="evenodd" d="M14.6667 4.83333C14.6667 4.78913 14.6491 4.74674 14.6179 4.71548C14.5866 4.68423 14.5442 4.66667 14.5 4.66667H11.6667C11.2247 4.66667 10.8008 4.49107 10.4882 4.17851C10.1756 3.86595 10 3.44203 10 3V0.166667C10 0.122464 9.98248 0.0800716 9.95123 0.0488155C9.91997 0.0175595 9.87758 0 9.83338 0H2.66671C2.31309 0 1.97395 0.140476 1.7239 0.390524C1.47385 0.640573 1.33337 0.979711 1.33337 1.33333V14.6667C1.33337 15.0203 1.47385 15.3594 1.7239 15.6095C1.97395 15.8595 2.31309 16 2.66671 16H13.3334C13.687 16 14.0261 15.8595 14.2762 15.6095C14.5262 15.3594 14.6667 15.0203 14.6667 14.6667V4.83333ZM7.33337 9.66667L5.33337 6.66667H6.66671L8.00004 8.66667L9.33337 6.66667H10.6667L8.66671 9.66667L10.6667 12.6667H9.33337L8.00004 10.6667L6.66671 12.6667H5.33337L7.33337 9.66667Z" fill="#18202A"/>
<path d="M10.9596 3.7071C11.1471 3.89463 11.4015 3.99999 11.6667 3.99999H14.2667C14.2997 4.00005 14.332 3.99031 14.3595 3.972C14.3869 3.95369 14.4083 3.92764 14.421 3.89715C14.4336 3.86666 14.4369 3.8331 14.4305 3.80073C14.424 3.76836 14.4081 3.73863 14.3847 3.71533L10.9514 0.284658C10.9282 0.261445 10.8987 0.245573 10.8666 0.23903C10.8345 0.232487 10.8012 0.235563 10.7708 0.247874C10.7404 0.260184 10.7143 0.281181 10.6958 0.308239C10.6773 0.335296 10.6672 0.367212 10.6667 0.399992V2.99999C10.6667 3.26521 10.7721 3.51956 10.9596 3.7071Z" fill="#18202A"/>
</g>
<defs>
<clipPath id="clip0_3352_8870">
<rect width="16" height="16" fill="white"/>
</clipPath>
</defs>
</svg>
