<svg width="16" height="16" viewBox="0 0 16 16" fill="none" xmlns="http://www.w3.org/2000/svg">
<g clip-path="url(#clip0_2266_39408)">
<path fill-rule="evenodd" clip-rule="evenodd" d="M0.858754 0.147339C0.662302 -0.049113 0.343791 -0.049113 0.147339 0.147339C-0.049113 0.343791 -0.0491129 0.662302 0.147339 0.858754L1.12567 1.83709C0.835954 2.26373 0.666667 2.77876 0.666667 3.33333V9.33333C0.666667 10.5849 1.52882 11.635 2.6916 11.9223C2.89715 11.9731 3.11209 12 3.33333 12H3.69697L3.31042 13.8487C3.19166 14.4167 3.80494 14.8547 4.3037 14.5582L8.60606 12H11.2886L13.1412 13.8527C13.3377 14.0491 13.6562 14.0491 13.8527 13.8527C14.0491 13.6562 14.0491 13.3377 13.8527 13.1412L0.858754 0.147339ZM10.2886 11L7.62192 8.33333H5.16667C4.89052 8.33333 4.66667 8.10948 4.66667 7.83333C4.66667 7.55719 4.89052 7.33333 5.16667 7.33333H6.62192L1.85382 2.56524C1.73425 2.79509 1.66667 3.05632 1.66667 3.33333V9.33333C1.66667 10.2538 2.41286 11 3.33333 11H3.69697C3.99809 11 4.28318 11.1357 4.47307 11.3694C4.66296 11.6031 4.73743 11.9099 4.6758 12.2047L4.44447 13.311L8.09499 11.1405C8.24961 11.0485 8.42617 11 8.60606 11H10.2886ZM13.0744 10.9498C13.7978 10.7679 14.3333 10.1131 14.3333 9.33333V3.33333C14.3333 2.41286 13.5871 1.66667 12.6667 1.66667H3.79134L2.83738 0.712702C2.99807 0.682476 3.16386 0.666667 3.33333 0.666667H12.6667C14.1394 0.666667 15.3333 1.86057 15.3333 3.33333V9.33333C15.3333 10.3815 14.7286 11.2885 13.8489 11.7243L13.0744 10.9498ZM6.79134 4.66667L7.79134 5.66667H10.8333C11.1095 5.66667 11.3333 5.44281 11.3333 5.16667C11.3333 4.89052 11.1095 4.66667 10.8333 4.66667H6.79134Z" fill="#18202A"/>
</g>
<defs>
<clipPath id="clip0_2266_39408">
<rect width="16" height="16" fill="white"/>
</clipPath>
</defs>
</svg>
