<svg width="16" height="16" viewBox="0 0 16 16" fill="none" xmlns="http://www.w3.org/2000/svg">
<g clip-path="url(#clip0_2266_40424)">
<path fill-rule="evenodd" clip-rule="evenodd" d="M6.93322 5.76277C6.52251 5.51403 5.99999 5.81266 5.99999 6.29612V9.6969C5.99999 10.1804 6.52251 10.479 6.93322 10.2302L9.74082 8.52986C10.1397 8.28828 10.1397 7.70474 9.74082 7.46316L6.93322 5.76277ZM6.99999 9.02071V6.97231L8.6911 7.99651L6.99999 9.02071Z" fill="#18202A"/>
<path d="M4.66666 2.99984V4.33317H3.33332V2.99984H4.66666Z" fill="#18202A"/>
<path d="M4.66666 12.9998V11.6665H3.33332V12.9998H4.66666Z" fill="#18202A"/>
<path d="M5.99999 2.99984H7.33332V4.33317H5.99999V2.99984Z" fill="#18202A"/>
<path d="M7.33332 11.6665H5.99999V12.9998H7.33332V11.6665Z" fill="#18202A"/>
<path d="M8.66666 2.99984H9.99999V4.33317H8.66666V2.99984Z" fill="#18202A"/>
<path d="M9.99999 11.6665H8.66666V12.9998H9.99999V11.6665Z" fill="#18202A"/>
<path d="M12.6667 2.99984V4.33317H11.3333V2.99984H12.6667Z" fill="#18202A"/>
<path d="M12.6667 12.9998V11.6665H11.3333V12.9998H12.6667Z" fill="#18202A"/>
<path fill-rule="evenodd" clip-rule="evenodd" d="M0.666656 3.99984C0.666656 2.15889 2.15904 0.666504 3.99999 0.666504H12C13.8409 0.666504 15.3333 2.15889 15.3333 3.99984V11.9998C15.3333 13.8408 13.8409 15.3332 12 15.3332H3.99999C2.15904 15.3332 0.666656 13.8408 0.666656 11.9998V3.99984ZM3.99999 1.6665H12C13.2887 1.6665 14.3333 2.71117 14.3333 3.99984V11.9998C14.3333 13.2885 13.2887 14.3332 12 14.3332H3.99999C2.71133 14.3332 1.66666 13.2885 1.66666 11.9998V3.99984C1.66666 2.71117 2.71133 1.6665 3.99999 1.6665Z" fill="#18202A"/>
</g>
<defs>
<clipPath id="clip0_2266_40424">
<rect width="16" height="16" fill="white"/>
</clipPath>
</defs>
</svg>
