<svg width="16" height="16" viewBox="0 0 16 16" fill="none" xmlns="http://www.w3.org/2000/svg">
<g clip-path="url(#clip0_3750_8846)">
<path d="M5.3523 3.1265C5.48482 3.03332 5.66733 3.12811 5.66733 3.2901V11.1111C5.66733 11.1763 5.63565 11.2373 5.5824 11.2747L2.78755 13.2406C2.47574 13.4598 2.05324 13.2628 2.00462 12.9012L2 12.8316V5.74322C2 5.60367 2.05823 5.47161 2.15875 5.37777L2.21245 5.33417L5.3523 3.1265ZM13.9969 3.09821L14.0016 3.16786V10.2562C14.0016 10.3958 13.9433 10.5278 13.8428 10.6217L13.7891 10.6653L10.649 12.8717C10.5165 12.9648 10.334 12.87 10.334 12.708V4.88624C10.334 4.8211 10.3657 4.76004 10.419 4.72259L13.214 2.75882C13.5258 2.53963 13.9483 2.73664 13.9969 3.09821ZM6.66733 3.29073C6.66733 3.12875 6.84984 3.03396 6.98235 3.12712L9.24902 4.72059C9.3023 4.75804 9.334 4.81908 9.334 4.8842V12.7064C9.334 12.8684 9.15144 12.9632 9.01892 12.87L6.75226 11.2754C6.69901 11.2379 6.66733 11.1769 6.66733 11.1118V3.29073Z" fill="#18202A"/>
</g>
<defs>
<clipPath id="clip0_3750_8846">
<rect width="16" height="16" fill="white"/>
</clipPath>
</defs>
</svg>
