<svg width="16" height="16" viewBox="0 0 16 16" fill="none" xmlns="http://www.w3.org/2000/svg">
<g clip-path="url(#clip0_2266_39067)">
<path fill-rule="evenodd" clip-rule="evenodd" d="M8.00001 5.00033C8.92048 5.00033 9.66668 4.25413 9.66668 3.33366C9.66668 2.41318 8.92048 1.66699 8.00001 1.66699C7.07954 1.66699 6.33334 2.41318 6.33334 3.33366C6.33334 4.25413 7.07954 5.00033 8.00001 5.00033ZM10.6667 3.33366C10.6667 4.63552 9.73377 5.71949 8.50001 5.95353V14.3134C9.95246 14.1953 11.3225 13.5655 12.3605 12.5275C13.3985 11.4894 14.0283 10.1194 14.1464 8.66699H12.6667C12.3905 8.66699 12.1667 8.44313 12.1667 8.16699C12.1667 7.89085 12.3905 7.66699 12.6667 7.66699H14.6667C14.9428 7.66699 15.1667 7.89085 15.1667 8.16699C15.1667 10.0677 14.4116 11.8906 13.0676 13.2346C11.7236 14.5786 9.90073 15.3337 8.00001 15.3337C6.09929 15.3337 4.27642 14.5786 2.93241 13.2346C1.5884 11.8906 0.833344 10.0677 0.833344 8.16699C0.833344 8.03438 0.886022 7.90721 0.97979 7.81344C1.07356 7.71967 1.20074 7.66699 1.33334 7.66699H3.33334C3.60949 7.66699 3.83334 7.89085 3.83334 8.16699C3.83334 8.44313 3.60949 8.66699 3.33334 8.66699H1.85363C1.97173 10.1194 2.60148 11.4894 3.63952 12.5275C4.67756 13.5655 6.04756 14.1953 7.50001 14.3134V5.95353C6.26625 5.71949 5.33334 4.63552 5.33334 3.33366C5.33334 1.8609 6.52725 0.666992 8.00001 0.666992C9.47277 0.666992 10.6667 1.8609 10.6667 3.33366Z" fill="#18202A"/>
</g>
<defs>
<clipPath id="clip0_2266_39067">
<rect width="16" height="16" fill="white"/>
</clipPath>
</defs>
</svg>
