<svg width="16" height="16" viewBox="0 0 16 16" fill="none" xmlns="http://www.w3.org/2000/svg">
<path d="M7.98349 4.66652C10.6169 4.66177 13.1767 5.53443 15.2588 7.14672C15.4731 7.30899 15.6498 7.51552 15.7771 7.75224C15.9043 7.98895 15.979 8.2503 15.9962 8.5185C16.0133 8.7867 15.9725 9.05544 15.8765 9.30644C15.7964 9.51561 15.6796 9.70836 15.5319 9.87573L15.4396 9.97304L14.1168 11.2958C13.8063 11.6155 13.3918 11.8138 12.948 11.8551C12.5042 11.8963 12.0603 11.7777 11.6962 11.5207C11.5815 11.4325 11.4625 11.3487 11.3434 11.2738C11.1028 11.1221 10.8524 10.9866 10.5939 10.8681C10.3149 10.738 10.0939 10.5093 9.97346 10.226C9.86804 9.97814 9.84609 9.70383 9.9091 9.44403L9.94131 9.3337L10.003 9.02505C9.33468 8.83447 8.64331 8.73659 7.94833 8.73403C7.34022 8.73627 6.73491 8.81152 6.14531 8.95794L5.89363 9.02504L5.99504 9.32046C6.09482 9.61169 6.08335 9.9295 5.96289 10.2128C5.84239 10.496 5.62144 10.7248 5.34247 10.8549C5.14796 10.9426 4.95843 11.0408 4.77469 11.149L4.41047 11.3735C4.3504 11.4126 4.29308 11.4545 4.24457 11.503C3.88901 11.7505 3.45859 11.8669 3.02679 11.8323C2.64293 11.8015 2.27911 11.6532 1.98411 11.4093L1.87679 11.3135L0.554022 9.99069C0.366041 9.80441 0.219699 9.58038 0.12468 9.33333C0.0297056 9.08633 -0.0118293 8.82195 0.00289748 8.55766C0.026747 8.14452 0.186777 7.75227 0.455921 7.44128L0.54964 7.34071L0.717191 7.17316C2.79341 5.5533 5.3501 4.67132 7.98349 4.66652ZM7.9853 5.66654C5.66693 5.67075 3.41347 6.41752 1.55359 7.79346L1.37467 7.92919L1.28123 8.02246L1.21207 8.09569C1.08655 8.24071 1.01231 8.42341 1.00135 8.6133C0.994495 8.7363 1.01382 8.8594 1.05803 8.97435C1.0912 9.06059 1.1378 9.14082 1.19732 9.21349L1.26113 9.28358L2.54305 10.5677L2.62129 10.6386C2.75886 10.7524 2.92831 10.8212 3.10669 10.8355C3.27408 10.8489 3.44107 10.8135 3.58786 10.7347L3.63733 10.7039L3.69549 10.6563L3.7849 10.5902L3.8857 10.5223L4.26721 10.2873C4.48225 10.1607 4.70399 10.0458 4.91978 9.9486C4.97501 9.92284 5.01878 9.87753 5.04266 9.82139C5.06056 9.7793 5.06631 9.73335 5.05981 9.6889L5.04922 9.64514L4.83173 9.0116C4.7062 8.64593 4.91704 8.25051 5.29061 8.15096L5.9043 7.98742C6.57179 7.82166 7.25678 7.73657 7.95201 7.73404C8.64026 7.73657 9.32531 7.82172 9.99247 7.98743L10.2773 8.06338L10.573 8.14772C10.9071 8.24299 11.1121 8.57889 11.0439 8.91958L10.9219 9.52981L10.9012 9.61392L10.8809 9.67973C10.8684 9.73131 10.8729 9.78564 10.8937 9.83461C10.9176 9.89077 10.9613 9.93608 11.0106 9.95906C11.3093 10.096 11.5986 10.2526 11.8763 10.4275C12.0202 10.5182 12.1647 10.6194 12.2729 10.7037C12.4423 10.8233 12.649 10.8785 12.8555 10.8594C13.0326 10.8429 13.1996 10.7727 13.3412 10.6528L13.4097 10.5887L14.714 9.28489L14.7821 9.21403C14.851 9.13604 14.9053 9.04631 14.9425 8.94907C14.9872 8.83224 15.0062 8.70716 14.9982 8.58234C14.9902 8.4575 14.9555 8.33586 14.8962 8.22568C14.837 8.11551 14.7547 8.01939 14.6466 7.93738C12.8136 6.51796 10.5761 5.72464 8.26318 5.6696L7.9853 5.66654Z" fill="#18202A"/>
</svg>
