<svg width="16" height="16" viewBox="0 0 16 16" fill="none" xmlns="http://www.w3.org/2000/svg">
<g clip-path="url(#clip0_2753_8432)">
<path d="M9.99996 7.99984C9.99996 9.10441 9.10453 9.99984 7.99996 9.99984C6.89539 9.99984 5.99996 9.10441 5.99996 7.99984C5.99996 6.89527 6.89539 5.99984 7.99996 5.99984C9.10453 5.99984 9.99996 6.89527 9.99996 7.99984Z" fill="#18202A"/>
<path fill-rule="evenodd" clip-rule="evenodd" d="M7.99996 15.3332C12.05 15.3332 15.3333 12.0499 15.3333 7.99984C15.3333 3.94975 12.05 0.666504 7.99996 0.666504C3.94987 0.666504 0.666626 3.94975 0.666626 7.99984C0.666626 12.0499 3.94987 15.3332 7.99996 15.3332ZM7.99996 14.3332C11.4978 14.3332 14.3333 11.4976 14.3333 7.99984C14.3333 4.50203 11.4978 1.6665 7.99996 1.6665C4.50216 1.6665 1.66663 4.50203 1.66663 7.99984C1.66663 11.4976 4.50216 14.3332 7.99996 14.3332Z" fill="#18202A"/>
</g>
<defs>
<clipPath id="clip0_2753_8432">
<rect width="16" height="16" fill="white"/>
</clipPath>
</defs>
</svg>
