<svg width="16" height="16" viewBox="0 0 16 16" fill="none" xmlns="http://www.w3.org/2000/svg">
<path fill-rule="evenodd" clip-rule="evenodd" d="M3.18447 2.24082C2.88951 1.94586 2.43915 1.91799 2.17857 2.17857C1.91799 2.43915 1.94586 2.88951 2.24082 3.18447L3.7861 4.72975C3.65076 4.68861 3.49982 4.66667 3.33327 4.66667C2.44438 4.66667 1.99994 5.29167 1.99994 6.125C1.99994 7.16667 2.44438 8 3.33327 8C4.22216 8 4.66661 7.16667 4.66661 6.125C4.66661 5.90566 4.63582 5.70076 4.57424 5.51789L7.72902 8.67267C6.64232 8.72096 5.63078 9.05832 4.76943 9.60971C3.89627 10.1687 3.60412 11.2825 3.95318 12.2587C4.05527 12.5442 4.16917 12.824 4.29431 13.0977C4.64895 13.8732 5.37708 14.4103 6.22058 14.5357C6.80117 14.622 7.39533 14.6667 7.99993 14.6667C8.60453 14.6667 9.19869 14.622 9.77928 14.5357C10.6228 14.4103 11.3509 13.8732 11.7056 13.0977C11.7527 12.9946 11.7982 12.8906 11.8422 12.7858L12.8155 13.7592C13.1105 14.0541 13.5608 14.082 13.8214 13.8214C14.082 13.5608 14.0541 13.1105 13.7592 12.8155L3.18447 2.24082ZM9.6559 6.83038L6.35973 3.53421C6.68539 2.99828 7.23212 2.66667 7.99994 2.66667C9.33327 2.66667 9.99994 3.66667 9.99994 5C9.99994 5.69125 9.88526 6.32516 9.6559 6.83038ZM12.8781 9.36783C13.1456 9.74341 13.3278 10.1645 13.4283 10.6028L15.2566 12.4311C15.3567 12.2864 15.4369 12.1257 15.4931 11.9521C15.7414 11.1843 15.4657 10.3213 14.7518 9.9452C14.1806 9.64428 13.5482 9.44396 12.8781 9.36783ZM12.6666 8C13.5555 8 13.9999 7.16667 13.9999 6.125C13.9999 5.29167 13.5555 4.66667 12.6666 4.66667C11.7777 4.66667 11.3333 5.29167 11.3333 6.125C11.3333 7.16667 11.7777 8 12.6666 8ZM2.6977 12.7077C2.30604 11.6124 2.4306 10.3274 3.13223 9.35319C2.49579 9.40778 1.89128 9.57415 1.33841 9.83256C0.560366 10.1962 0.246415 11.1147 0.509087 11.9324C0.738907 12.6478 1.363 13.1504 2.10875 13.2424C2.38112 13.2761 2.6563 13.3006 2.934 13.3156C2.84993 13.1157 2.7711 12.913 2.6977 12.7077Z" fill="#18202A"/>
</svg>
