<svg width="16" height="16" viewBox="0 0 16 16" fill="none" xmlns="http://www.w3.org/2000/svg">
<path d="M1.99996 2C1.26358 2 0.666626 2.59695 0.666626 3.33333V6C0.666626 6.73638 1.26358 7.33333 1.99996 7.33333H9.99996C10.7363 7.33333 11.3333 6.73638 11.3333 6V3.33333C11.3333 2.59695 10.7363 2 9.99996 2H1.99996Z" fill="#18202A"/>
<path fill-rule="evenodd" clip-rule="evenodd" d="M0.666626 10C0.666626 9.26362 1.26358 8.66667 1.99996 8.66667H9.99996C10.7363 8.66667 11.3333 9.26362 11.3333 10V12.6667C11.3333 13.403 10.7363 14 9.99996 14H1.99996C1.26358 14 0.666626 13.403 0.666626 12.6667V10ZM1.66663 10C1.66663 9.81591 1.81586 9.66667 1.99996 9.66667H9.99996C10.1841 9.66667 10.3333 9.81591 10.3333 10V12.6667C10.3333 12.8508 10.1841 13 9.99996 13H1.99996C1.81586 13 1.66663 12.8508 1.66663 12.6667V10Z" fill="#18202A"/>
<path d="M12.8902 3.88623C12.6432 3.76273 12.3429 3.86285 12.2194 4.10984C12.0959 4.35683 12.196 4.65716 12.443 4.78066C13.3148 5.21656 14.0368 6.08988 14.2156 7.12673C14.3665 8.00231 14.1399 9.06009 13.1666 10.1343V9.33333C13.1666 9.05719 12.9428 8.83333 12.6666 8.83333C12.3905 8.83333 12.1666 9.05719 12.1666 9.33333V11.3333C12.1666 11.6095 12.3905 11.8333 12.6666 11.8333H14.6666C14.9428 11.8333 15.1666 11.6095 15.1666 11.3333C15.1666 11.0572 14.9428 10.8333 14.6666 10.8333H13.8821C15.0524 9.55467 15.4134 8.18884 15.201 6.95682C14.9631 5.577 14.0184 4.45033 12.8902 3.88623Z" fill="#18202A"/>
</svg>
