<svg width="16" height="16" viewBox="0 0 16 16" fill="none" xmlns="http://www.w3.org/2000/svg">
<path fill-rule="evenodd" clip-rule="evenodd" d="M10.6667 4.66699V5.33366H5.33333V4.66699C5.33333 3.19423 6.52724 2.00033 8 2.00033C9.47276 2.00033 10.6667 3.19423 10.6667 4.66699ZM12 5.33366V4.66699C12 2.45785 10.2091 0.666992 8 0.666992C5.79086 0.666992 4 2.45785 4 4.66699V5.33366C2.52724 5.33366 1.33333 6.52757 1.33333 8.00033V12.667C1.33333 14.1398 2.52724 15.3337 4 15.3337H12C13.4728 15.3337 14.6667 14.1398 14.6667 12.667V8.00033C14.6667 6.52757 13.4728 5.33366 12 5.33366ZM4.16667 11.167C4.6269 11.167 5 10.7939 5 10.3337C5 9.87342 4.6269 9.50033 4.16667 9.50033C3.70643 9.50033 3.33333 9.87342 3.33333 10.3337C3.33333 10.7939 3.70643 11.167 4.16667 11.167ZM6.72223 11.167C7.18247 11.167 7.55556 10.7939 7.55556 10.3337C7.55556 9.87342 7.18247 9.50033 6.72223 9.50033C6.26199 9.50033 5.8889 9.87342 5.8889 10.3337C5.8889 10.7939 6.26199 11.167 6.72223 11.167ZM10.1111 10.3337C10.1111 10.7939 9.73801 11.167 9.27777 11.167C8.81753 11.167 8.44444 10.7939 8.44444 10.3337C8.44444 9.87342 8.81753 9.50033 9.27777 9.50033C9.73801 9.50033 10.1111 9.87342 10.1111 10.3337ZM11.8333 11.167C12.2936 11.167 12.6667 10.7939 12.6667 10.3337C12.6667 9.87342 12.2936 9.50033 11.8333 9.50033C11.3731 9.50033 11 9.87342 11 10.3337C11 10.7939 11.3731 11.167 11.8333 11.167Z" fill="#18202A"/>
</svg>
