<svg width="16" height="16" viewBox="0 0 16 16" fill="none" xmlns="http://www.w3.org/2000/svg">
<g clip-path="url(#clip0_2266_36713)">
<path d="M6.67699 14.5714C6.63435 14.123 6.72217 13.6519 6.97108 13.2119L10.0158 7.82971C10.8932 6.27877 13.1068 6.27877 13.9842 7.82971L15.0564 9.72511C15.2384 9.10686 15.3333 8.45753 15.3333 7.79378C15.3333 3.4665 12.0531 0.666504 8.00682 0.666504C3.96049 0.666504 0.418673 3.97559 0.680301 7.79378C0.680301 10.0753 1.59215 11.8615 3.04736 13.0405L3.18743 14.7213C3.22587 15.1825 3.71098 15.4652 4.13117 15.2713L5.94844 14.4325C6.1865 14.4889 6.42957 14.5352 6.67699 14.5714Z" fill="#18202A"/>
<path fill-rule="evenodd" clip-rule="evenodd" d="M15.1982 15.3332H8.80176C8.18694 15.3332 7.80158 14.656 8.1068 14.1119L11.305 8.41081C11.6124 7.86285 12.3876 7.86285 12.695 8.41081L15.8932 14.1119C16.1984 14.656 15.8131 15.3332 15.1982 15.3332ZM12 9.99984C11.6318 9.99984 11.3333 10.2983 11.3333 10.6665V11.9998C11.3333 12.368 11.6318 12.6665 12 12.6665C12.3682 12.6665 12.6667 12.368 12.6667 11.9998V10.6665C12.6667 10.2983 12.3682 9.99984 12 9.99984ZM12 13.3332C11.6318 13.3332 11.3333 13.6316 11.3333 13.9998C11.3333 14.368 11.6318 14.6665 12 14.6665C12.3682 14.6665 12.6667 14.368 12.6667 13.9998C12.6667 13.6316 12.3682 13.3332 12 13.3332Z" fill="#18202A"/>
</g>
<defs>
<clipPath id="clip0_2266_36713">
<rect width="16" height="16" fill="white"/>
</clipPath>
</defs>
</svg>
