<svg width="16" height="16" viewBox="0 0 16 16" fill="none" xmlns="http://www.w3.org/2000/svg">
<path d="M4.66668 2.3335H7.33334C8.62201 2.3335 9.66668 3.37817 9.66668 4.66683V5.3335C9.66668 5.60964 9.89053 5.8335 10.1667 5.8335C10.4428 5.8335 10.6667 5.60964 10.6667 5.3335V4.66683C10.6667 2.82588 9.17429 1.3335 7.33334 1.3335H4.66668C2.82573 1.3335 1.33334 2.82588 1.33334 4.66683V11.3335C1.33334 13.1744 2.82573 14.6668 4.66668 14.6668H7.33334C9.17429 14.6668 10.6667 13.1744 10.6667 11.3335V10.7335C10.6667 10.4574 10.4428 10.2335 10.1667 10.2335C9.89053 10.2335 9.66668 10.4574 9.66668 10.7335V11.3335C9.66668 12.6222 8.62201 13.6668 7.33334 13.6668H4.66668C3.37801 13.6668 2.33334 12.6222 2.33334 11.3335V4.66683C2.33334 3.37817 3.37801 2.3335 4.66668 2.3335Z" fill="#18202A"/>
<path fill-rule="evenodd" clip-rule="evenodd" d="M11.6465 5.64661C11.8417 5.45135 12.1583 5.45135 12.3536 5.64661L14.3536 7.64661C14.5488 7.84187 14.5488 8.15845 14.3536 8.35372L12.3536 10.3537C12.1583 10.549 11.8417 10.549 11.6465 10.3537C11.4512 10.1585 11.4512 9.84187 11.6465 9.64661L12.7929 8.50016H6.00001C5.72387 8.50016 5.50001 8.2763 5.50001 8.00016C5.50001 7.72402 5.72387 7.50016 6.00001 7.50016H12.7929L11.6465 6.35372C11.4512 6.15845 11.4512 5.84187 11.6465 5.64661Z" fill="#18202A"/>
</svg>
