<svg width="16" height="16" viewBox="0 0 16 16" fill="none" xmlns="http://www.w3.org/2000/svg">
<g clip-path="url(#clip0_2266_40115)">
<path fill-rule="evenodd" clip-rule="evenodd" d="M13.3333 4.33301H2.66666C2.11437 4.33301 1.66666 4.78072 1.66666 5.33301V7.66634H14.3333V5.33301C14.3333 4.78072 13.8856 4.33301 13.3333 4.33301ZM2.66666 3.33301C1.56209 3.33301 0.666656 4.22844 0.666656 5.33301V8.66634H15.3333V5.33301C15.3333 4.22844 14.4379 3.33301 13.3333 3.33301H2.66666Z" fill="#18202A"/>
<path d="M7.99999 2.30189C7.89327 2.05685 7.76911 1.81683 7.62571 1.59943C7.38257 1.2308 7.04851 0.872293 6.59715 0.703341C6.11801 0.523988 5.59787 0.591235 5.0761 0.904267C4.49686 1.25177 4.17567 1.77265 4.11513 2.34186C4.07899 2.68175 4.13733 3.02092 4.26838 3.33301H5.44128C5.41939 3.30919 5.39858 3.28494 5.37887 3.26035C5.16931 2.99891 5.08238 2.70287 5.10953 2.44762C5.13514 2.20683 5.2659 1.95656 5.59056 1.76178C5.90212 1.57487 6.10421 1.58658 6.24659 1.63988C6.41676 1.70358 6.60354 1.8659 6.79095 2.15003C7.01461 2.48913 7.18839 2.9234 7.31517 3.33301H8.68482C8.81159 2.9234 8.98538 2.48913 9.20904 2.15003C9.39645 1.8659 9.58323 1.70358 9.7534 1.63988C9.89578 1.58658 10.0979 1.57487 10.4094 1.76178C10.7341 1.95656 10.8649 2.20683 10.8905 2.44762C10.9176 2.70287 10.8307 2.99891 10.6211 3.26035C10.6014 3.28494 10.5806 3.30919 10.5587 3.33301H11.7316C11.8627 3.02092 11.921 2.68175 11.8849 2.34186C11.8243 1.77265 11.5031 1.25177 10.9239 0.904267C10.4021 0.591235 9.88198 0.523988 9.40284 0.703341C8.95148 0.872293 8.61742 1.2308 8.37427 1.59943C8.23088 1.81683 8.10672 2.05685 7.99999 2.30189Z" fill="#18202A"/>
<path fill-rule="evenodd" clip-rule="evenodd" d="M13.6667 8.66634H2.33332V13.333C2.33332 13.8853 2.78104 14.333 3.33332 14.333H12.6667C13.2189 14.333 13.6667 13.8853 13.6667 13.333V8.66634ZM1.33332 7.66634V13.333C1.33332 14.4376 2.22875 15.333 3.33332 15.333H12.6667C13.7712 15.333 14.6667 14.4376 14.6667 13.333V7.66634H1.33332Z" fill="#18202A"/>
<path d="M7.49999 7.99967H8.49999V14.6663H7.49999V7.99967Z" fill="#18202A"/>
</g>
<defs>
<clipPath id="clip0_2266_40115">
<rect width="16" height="16" fill="white"/>
</clipPath>
</defs>
</svg>
