<svg width="16" height="16" viewBox="0 0 16 16" fill="none" xmlns="http://www.w3.org/2000/svg">
<path d="M5.33337 7.83337C5.33337 7.55723 5.55723 7.33337 5.83337 7.33337H10.1667C10.4428 7.33337 10.6667 7.55723 10.6667 7.83337C10.6667 8.10952 10.4428 8.33337 10.1667 8.33337H5.83337C5.55723 8.33337 5.33337 8.10952 5.33337 7.83337Z" fill="#18202A"/>
<path fill-rule="evenodd" clip-rule="evenodd" d="M2.00004 5.82166C1.60151 5.59112 1.33337 5.16023 1.33337 4.66671V2.66671C1.33337 1.93033 1.93033 1.33337 2.66671 1.33337H13.3334C14.0698 1.33337 14.6667 1.93033 14.6667 2.66671V4.66671C14.6667 5.16023 14.3986 5.59113 14 5.82166V12.6667C14 14.1395 12.8061 15.3334 11.3334 15.3334H4.66671C3.19395 15.3334 2.00004 14.1395 2.00004 12.6667V5.82166ZM2.33337 2.66671C2.33337 2.48261 2.48261 2.33337 2.66671 2.33337H13.3334C13.5175 2.33337 13.6667 2.48261 13.6667 2.66671V4.66671C13.6667 4.8508 13.5175 5.00004 13.3334 5.00004H2.66671C2.48261 5.00004 2.33337 4.8508 2.33337 4.66671V2.66671ZM11.3334 14.3334C12.2538 14.3334 13 13.5872 13 12.6667V6.00004H3.00004V12.6667C3.00004 13.5872 3.74623 14.3334 4.66671 14.3334H11.3334Z" fill="#18202A"/>
</svg>
