<svg width="16" height="16" viewBox="0 0 16 16" fill="none" xmlns="http://www.w3.org/2000/svg">
<g clip-path="url(#clip0_2266_36620)">
<path fill-rule="evenodd" clip-rule="evenodd" d="M15.3333 7.99984C15.3333 9.29894 14.9955 10.5191 14.403 11.5774L10.818 7.99247L11.5249 7.27222C11.6649 7.12964 11.6916 6.93645 11.6463 6.78149C11.6008 6.62617 11.469 6.46857 11.2574 6.43636L9.31054 6.14003L8.43163 4.2773C8.25708 3.90735 7.74293 3.90735 7.56838 4.2773L7.41914 4.59358L4.42243 1.59686C5.48069 1.00431 6.7009 0.666504 8 0.666504C12.0501 0.666504 15.3333 3.94975 15.3333 7.99984ZM12.6922 13.6357L14.1489 15.0923C14.4438 15.3873 14.8942 15.4152 15.1548 15.1546C15.4153 14.894 15.3875 14.4437 15.0925 14.1487L1.85114 0.907328C1.55618 0.612366 1.10582 0.584495 0.845239 0.845076C0.584657 1.10566 0.612528 1.55601 0.90749 1.85098L2.3641 3.30759C1.30426 4.57919 0.666667 6.21505 0.666667 7.99984C0.666667 12.0499 3.94991 15.3332 8 15.3332C9.78478 15.3332 11.4206 14.6956 12.6922 13.6357ZM10.2781 11.2216C10.2757 11.2236 10.2733 11.2256 10.2708 11.2276C10.1353 11.337 9.93232 11.3759 9.74775 11.2745L8 10.3143L6.25225 11.2745C6.06769 11.3759 5.86475 11.337 5.72917 11.2276C5.5962 11.1203 5.52234 10.9444 5.55281 10.7589L5.88888 8.71257L4.47483 7.2698C4.33499 7.12711 4.30841 6.93389 4.35385 6.77894C4.3994 6.62363 4.53137 6.46611 4.74306 6.4341L5.39245 6.33593L10.2781 11.2216Z" fill="#18202A"/>
</g>
<defs>
<clipPath id="clip0_2266_36620">
<rect width="16" height="16" fill="white"/>
</clipPath>
</defs>
</svg>
