<svg width="16" height="16" viewBox="0 0 16 16" fill="none" xmlns="http://www.w3.org/2000/svg">
<path fill-rule="evenodd" clip-rule="evenodd" d="M6.76815 15.0893C6.41218 14.8226 6.15216 14.4479 6.02696 14.0211L7.30636 13.6457C7.35051 13.7962 7.44216 13.9282 7.56751 14.0221C7.69285 14.116 7.84517 14.1667 8.00166 14.1667C8.15814 14.1667 8.31046 14.116 8.43581 14.0221C8.56116 13.9282 8.65281 13.7962 8.69695 13.6457L9.97636 14.0211C9.85115 14.4479 9.59114 14.8226 9.23517 15.0893C8.87919 15.3559 8.44643 15.5001 8.00166 15.5001C7.55689 15.5001 7.12412 15.3559 6.76815 15.0893Z" fill="#18202A"/>
<path fill-rule="evenodd" clip-rule="evenodd" d="M7.99999 0.666748C8.36818 0.666748 8.66666 0.965225 8.66666 1.33341V2.00008C8.66666 2.36827 8.36818 2.66675 7.99999 2.66675C7.6318 2.66675 7.33332 2.36827 7.33332 2.00008V1.33341C7.33332 0.965225 7.6318 0.666748 7.99999 0.666748Z" fill="#18202A"/>
<path d="M4.32216 3.48779C5.29758 2.53523 6.62054 2.00008 7.99999 2.00008C9.37944 2.00008 10.7024 2.53523 11.6778 3.48779C12.6532 4.44036 13.2012 5.73232 13.2012 7.07945C13.2012 9.59947 13.822 11.0869 14.3342 11.8853C14.5089 12.1575 14.2916 12.6667 13.9682 12.6667H2.03182C1.70833 12.6667 1.49112 12.1575 1.6658 11.8853C2.17798 11.0869 2.79875 9.59947 2.79875 7.07945C2.79875 5.73232 3.34674 4.44036 4.32216 3.48779Z" fill="#18202A"/>
</svg>
