<svg width="16" height="16" viewBox="0 0 16 16" fill="none" xmlns="http://www.w3.org/2000/svg">
<path d="M7.99996 0.666748C7.26358 0.666748 6.66663 1.2637 6.66663 2.00008V4.00008H9.33329V2.00008C9.33329 1.2637 8.73634 0.666748 7.99996 0.666748Z" fill="#18202A"/>
<path fill-rule="evenodd" clip-rule="evenodd" d="M6.66663 5.33342C5.93025 5.33342 5.33329 4.73646 5.33329 4.00008V2.66675H3.33329C1.86053 2.66675 0.666626 3.86066 0.666626 5.33342V12.0001C0.666626 13.4728 1.86053 14.6667 3.33329 14.6667H12.6666C14.1394 14.6667 15.3333 13.4728 15.3333 12.0001V5.33342C15.3333 3.86066 14.1394 2.66675 12.6666 2.66675H10.6666V4.00008C10.6666 4.73646 10.0697 5.33342 9.33329 5.33342H6.66663ZM5.33329 9.33342C6.06967 9.33342 6.66663 8.73646 6.66663 8.00008C6.66663 7.2637 6.06967 6.66675 5.33329 6.66675C4.59691 6.66675 3.99996 7.2637 3.99996 8.00008C3.99996 8.73646 4.59691 9.33342 5.33329 9.33342ZM4.83329 10.0001C4.00487 10.0001 3.33329 10.6717 3.33329 11.5001C3.33329 11.7762 3.55715 12.0001 3.83329 12.0001H6.83329C7.10944 12.0001 7.33329 11.7762 7.33329 11.5001C7.33329 10.6717 6.66172 10.0001 5.83329 10.0001H4.83329ZM9.33329 8.00008C9.33329 7.63189 9.63177 7.33342 9.99996 7.33342H12.6666C13.0348 7.33342 13.3333 7.63189 13.3333 8.00008C13.3333 8.36827 13.0348 8.66675 12.6666 8.66675H9.99996C9.63177 8.66675 9.33329 8.36827 9.33329 8.00008ZM9.99996 10.0001C9.63177 10.0001 9.33329 10.2986 9.33329 10.6667C9.33329 11.0349 9.63177 11.3334 9.99996 11.3334H12.6666C13.0348 11.3334 13.3333 11.0349 13.3333 10.6667C13.3333 10.2986 13.0348 10.0001 12.6666 10.0001H9.99996Z" fill="#18202A"/>
</svg>
