<svg width="16" height="16" viewBox="0 0 16 16" fill="none" xmlns="http://www.w3.org/2000/svg">
<path fill-rule="evenodd" clip-rule="evenodd" d="M13.7954 4.4756C13.771 4.41663 13.7348 4.36138 13.6869 4.31344C13.6389 4.2655 13.5837 4.22933 13.5247 4.20493C13.4658 4.18048 13.4011 4.16699 13.3333 4.16699H13.3333H8.66667C8.39052 4.16699 8.16667 4.39085 8.16667 4.66699C8.16667 4.94313 8.39052 5.16699 8.66667 5.16699H12.1262L7.33333 9.95989L5.02022 7.64677C4.82496 7.45151 4.50838 7.45151 4.31311 7.64677L1.64645 10.3134C1.45118 10.5087 1.45118 10.8253 1.64645 11.0205C1.84171 11.2158 2.15829 11.2158 2.35355 11.0205L4.66667 8.70743L6.97978 11.0205C7.17504 11.2158 7.49162 11.2158 7.68689 11.0205L12.8333 5.8741V9.33366C12.8333 9.6098 13.0572 9.83366 13.3333 9.83366C13.6095 9.83366 13.8333 9.6098 13.8333 9.33366V4.66699C13.8333 4.5992 13.8198 4.53455 13.7954 4.4756Z" fill="#18202A"/>
</svg>
