<svg width="16" height="16" viewBox="0 0 16 16" fill="none" xmlns="http://www.w3.org/2000/svg">
<g clip-path="url(#clip0_3603_8853)">
<path fill-rule="evenodd" clip-rule="evenodd" d="M7 4.5C7 5.70948 6.14112 6.71836 5 6.94999V8.5C5 9.88071 6.11929 11 7.5 11H9.05001C9.28164 9.85888 10.2905 9 11.5 9C12.8807 9 14 10.1193 14 11.5C14 12.8807 12.8807 14 11.5 14C10.2905 14 9.28164 13.1411 9.05001 12H7.5C5.567 12 4 10.433 4 8.5V6.94999C2.85888 6.71836 2 5.70948 2 4.5C2 3.11929 3.11929 2 4.5 2C5.88071 2 7 3.11929 7 4.5ZM6 4.5C6 5.32843 5.32843 6 4.5 6C3.67157 6 3 5.32843 3 4.5C3 3.67157 3.67157 3 4.5 3C5.32843 3 6 3.67157 6 4.5ZM13 11.5C13 12.3284 12.3284 13 11.5 13C10.6716 13 10 12.3284 10 11.5C10 10.6716 10.6716 10 11.5 10C12.3284 10 13 10.6716 13 11.5Z" fill="#18202A"/>
<path d="M12 2.5C12 2.22386 11.7761 2 11.5 2C11.2239 2 11 2.22386 11 2.5V4L9.5 4C9.22386 4 9 4.22386 9 4.5C9 4.77614 9.22386 5 9.5 5H11V6.5C11 6.77614 11.2239 7 11.5 7C11.7761 7 12 6.77614 12 6.5V5H13.5C13.7761 5 14 4.77614 14 4.5C14 4.22386 13.7761 4 13.5 4L12 4V2.5Z" fill="#18202A"/>
</g>
<defs>
<clipPath id="clip0_3603_8853">
<rect width="16" height="16" fill="white"/>
</clipPath>
</defs>
</svg>
