<svg width="16" height="16" viewBox="0 0 16 16" fill="none" xmlns="http://www.w3.org/2000/svg">
<g clip-path="url(#clip0_3860_8806)">
<path d="M11.6659 2.00064C11.85 2.00066 11.9992 2.14987 11.9992 2.33394L12 9.19501C12 9.492 11.6409 9.64076 11.4309 9.43075L9.56909 7.56891C9.43891 7.43874 9.22615 7.44012 9.09752 7.57182C6.21461 10.5235 5.91781 12.1869 6.47429 14.8075C6.54486 15.1399 6.14946 15.3564 5.93189 15.0954C2.5052 10.9852 4.09122 7.36922 6.43402 4.90514C6.56088 4.77172 6.56119 4.56102 6.43101 4.43084L4.56916 2.56904C4.35916 2.35904 4.5079 1.99997 4.80489 2L11.6659 2.00064Z" fill="#18202A"/>
</g>
<defs>
<clipPath id="clip0_3860_8806">
<rect width="16" height="16" fill="white"/>
</clipPath>
</defs>
</svg>
