<svg width="16" height="16" viewBox="0 0 16 16" fill="none" xmlns="http://www.w3.org/2000/svg">
<path fill-rule="evenodd" clip-rule="evenodd" d="M8.00004 1.3335C6.52728 1.3335 5.33337 2.5274 5.33337 4.00016V7.3335C5.33337 8.80625 6.52728 10.0002 8.00004 10.0002C9.4728 10.0002 10.6667 8.80625 10.6667 7.3335V4.00016C10.6667 2.5274 9.4728 1.3335 8.00004 1.3335ZM8.00004 9.00016C8.92052 9.00016 9.66671 8.25397 9.66671 7.3335V4.00016C9.66671 3.07969 8.92052 2.3335 8.00004 2.3335C7.07957 2.3335 6.33337 3.07969 6.33337 4.00016V7.3335C6.33337 8.25397 7.07957 9.00016 8.00004 9.00016Z" fill="#18202A"/>
<path d="M3.80953 7.3335C3.53338 7.3335 3.30671 7.55812 3.33591 7.83271C3.56841 10.019 5.31062 11.7543 7.50004 11.9762V13.6668H5.50004C5.2239 13.6668 5.00004 13.8907 5.00004 14.1668C5.00004 14.443 5.2239 14.6668 5.50004 14.6668H10.5C10.7762 14.6668 11 14.443 11 14.1668C11 13.8907 10.7762 13.6668 10.5 13.6668H8.50004V11.9711C10.667 11.729 12.3857 10.0031 12.6165 7.83271C12.6457 7.55812 12.419 7.3335 12.1429 7.3335C11.8667 7.3335 11.6464 7.55859 11.6092 7.83222C11.3659 9.62135 9.83208 11.0002 7.97619 11.0002C6.12031 11.0002 4.58646 9.62135 4.34316 7.83222C4.30595 7.55859 4.08567 7.3335 3.80953 7.3335Z" fill="#18202A"/>
</svg>
