<svg width="16" height="16" viewBox="0 0 16 16" fill="none" xmlns="http://www.w3.org/2000/svg">
<path d="M9.86193 2.80482C9.60158 2.54447 9.60158 2.12236 9.86193 1.86201C10.1223 1.60166 10.5444 1.60166 10.8047 1.86201L13.8047 4.86201C14.0651 5.12236 14.0651 5.54447 13.8047 5.80482L10.8047 8.80482C10.5444 9.06517 10.1223 9.06517 9.86193 8.80482C9.60158 8.54447 9.60158 8.12236 9.86193 7.86201L11.7239 6.00008H6.33333C4.67648 6.00008 3.33333 7.34323 3.33333 9.00008C3.33333 10.6569 4.67648 12.0001 6.33333 12.0001H10.6667C11.0349 12.0001 11.3333 12.2986 11.3333 12.6667C11.3333 13.0349 11.0349 13.3334 10.6667 13.3334H6.33333C3.9401 13.3334 2 11.3933 2 9.00008C2 6.60685 3.9401 4.66675 6.33333 4.66675H11.7239L9.86193 2.80482Z" fill="#18202A"/>
</svg>
