<svg width="16" height="16" viewBox="0 0 16 16" fill="none" xmlns="http://www.w3.org/2000/svg">
<g clip-path="url(#clip0_3893_8963)">
<path d="M13 7.16699C13 6.89085 13.2239 6.66699 13.5 6.66699C13.7761 6.66699 14 6.89085 14 7.16699V12.667C14 14.1398 12.8061 15.3337 11.3333 15.3337H4.66667C3.19391 15.3337 2 14.1398 2 12.667V3.33366C2 1.8609 3.19391 0.666992 4.66667 0.666992H8.16663C8.44277 0.666992 8.66663 0.89085 8.66663 1.16699C8.66663 1.44313 8.44277 1.66699 8.16663 1.66699L4.66667 1.66699C3.74619 1.66699 3 2.41318 3 3.33366L3 12.667C3 13.5875 3.74619 14.3337 4.66667 14.3337H11.3333C12.2538 14.3337 13 13.5875 13 12.667V7.16699Z" fill="#18202A"/>
<path d="M5.16663 8.66699C4.89048 8.66699 4.66663 8.89085 4.66663 9.16699C4.66663 9.44313 4.89048 9.66699 5.16663 9.66699H8.16663C8.44277 9.66699 8.66663 9.44313 8.66663 9.16699C8.66663 8.89085 8.44277 8.66699 8.16663 8.66699H5.16663Z" fill="#18202A"/>
<path d="M5.16663 6.00033C4.89048 6.00033 4.66663 6.22418 4.66663 6.50033C4.66663 6.77647 4.89048 7.00033 5.16663 7.00033H6.83329C7.10944 7.00033 7.33329 6.77647 7.33329 6.50033C7.33329 6.22418 7.10944 6.00033 6.83329 6.00033H5.16663Z" fill="#18202A"/>
<path d="M5.16663 11.3337C4.89048 11.3337 4.66663 11.5575 4.66663 11.8337C4.66663 12.1098 4.89048 12.3337 5.16663 12.3337H10.8333C11.1094 12.3337 11.3333 12.1098 11.3333 11.8337C11.3333 11.5575 11.1094 11.3337 10.8333 11.3337H5.16663Z" fill="#18202A"/>
<path d="M8.83329 3.16699C8.55715 3.16699 8.33329 3.39085 8.33329 3.66699C8.33329 3.94313 8.55715 4.16699 8.83329 4.16699H10.6666V5.83366C10.6666 6.1098 10.8905 6.33366 11.1666 6.33366C11.4428 6.33366 11.6666 6.1098 11.6666 5.83366V4.16699H13.5C13.7761 4.16699 14 3.94313 14 3.66699C14 3.39085 13.7761 3.16699 13.5 3.16699H11.6666V1.16699C11.6666 0.89085 11.4428 0.666992 11.1666 0.666992C10.8905 0.666992 10.6666 0.89085 10.6666 1.16699V3.16699H8.83329Z" fill="#18202A"/>
</g>
<defs>
<clipPath id="clip0_3893_8963">
<rect width="16" height="16" fill="white"/>
</clipPath>
</defs>
</svg>
