<svg width="16" height="16" viewBox="0 0 16 16" fill="none" xmlns="http://www.w3.org/2000/svg">
<g clip-path="url(#clip0_3394_8871)">
<g clip-path="url(#clip1_3394_8871)">
<path d="M12.3333 4.33317C12.3333 4.70136 12.0348 4.99984 11.6666 4.99984C11.2984 4.99984 11 4.70136 11 4.33317C11 3.96498 11.2984 3.6665 11.6666 3.6665C12.0348 3.6665 12.3333 3.96498 12.3333 4.33317Z" fill="#18202A"/>
<path fill-rule="evenodd" clip-rule="evenodd" d="M11.1309 0.666504C10.9092 0.666504 10.7181 0.822464 10.6737 1.03965L10.5714 1.53937C10.2895 1.64998 10.0283 1.80205 9.79551 1.98807L9.31086 1.82647C9.10055 1.75635 8.86994 1.84386 8.7591 2.03584L8.22331 2.96386C8.11246 3.15585 8.15199 3.39932 8.31786 3.54638L8.69989 3.88509C8.678 4.03126 8.66665 4.18089 8.66665 4.33317C8.66665 4.48546 8.678 4.63509 8.69989 4.78128L8.31788 5.11997C8.152 5.26704 8.11248 5.51051 8.22332 5.70249L8.75912 6.63051C8.86996 6.8225 9.10057 6.91001 9.31087 6.83989L9.79553 6.67829C10.0284 6.8643 10.2895 7.01636 10.5714 7.12698L10.6737 7.62669C10.7181 7.84388 10.9092 7.99984 11.1309 7.99984H12.2024C12.4241 7.99984 12.6152 7.84388 12.6596 7.62669L12.7619 7.12698C13.0438 7.01637 13.3049 6.86431 13.5378 6.67831L14.0224 6.8399C14.2327 6.91002 14.4633 6.82252 14.5742 6.63053L15.11 5.70251C15.2208 5.51053 15.1813 5.26706 15.0154 5.11999L14.6334 4.78131C14.6553 4.63512 14.6666 4.48547 14.6666 4.33317C14.6666 4.18088 14.6553 4.03124 14.6334 3.88505L15.0154 3.54637C15.1813 3.3993 15.2208 3.15583 15.11 2.96385L14.5742 2.03583C14.4633 1.84384 14.2327 1.75633 14.0224 1.82645L13.5378 1.98805C13.3049 1.80204 13.0438 1.64998 12.7619 1.53937L12.6596 1.03965C12.6152 0.822464 12.4241 0.666504 12.2024 0.666504H11.1309ZM13.3333 4.33317C13.3333 5.25365 12.5871 5.99984 11.6666 5.99984C10.7462 5.99984 9.99996 5.25365 9.99996 4.33317C9.99996 3.4127 10.7462 2.6665 11.6666 2.6665C12.5871 2.6665 13.3333 3.4127 13.3333 4.33317Z" fill="#18202A"/>
<path d="M5.33329 11.6665C5.88558 11.6665 6.33329 11.2188 6.33329 10.6665C6.33329 10.1142 5.88558 9.6665 5.33329 9.6665C4.78101 9.6665 4.33329 10.1142 4.33329 10.6665C4.33329 11.2188 4.78101 11.6665 5.33329 11.6665Z" fill="#18202A"/>
<path fill-rule="evenodd" clip-rule="evenodd" d="M4.06807 6.04385C4.11081 5.82469 4.30282 5.6665 4.52611 5.6665H6.14053C6.36383 5.6665 6.55583 5.82469 6.59857 6.04385L6.77196 6.93301C7.16352 7.08399 7.52535 7.2948 7.84625 7.55422L8.70402 7.25944C8.9152 7.18687 9.14819 7.27406 9.25984 7.46744L10.067 8.86557C10.1787 9.05895 10.1377 9.30432 9.96927 9.45092L9.28549 10.046C9.31698 10.2482 9.33332 10.4555 9.33332 10.6665C9.33332 10.8776 9.31697 11.0848 9.28547 11.2871L9.96922 11.8822C10.1377 12.0288 10.1786 12.2741 10.067 12.4675L9.25978 13.8657C9.14814 14.059 8.91514 14.1462 8.70397 14.0737L7.84616 13.7789C7.52528 14.0382 7.16348 14.249 6.77196 14.4L6.59857 15.2892C6.55583 15.5083 6.36383 15.6665 6.14053 15.6665H4.52611C4.30282 15.6665 4.11081 15.5083 4.06807 15.2892L3.89469 14.4C3.50312 14.249 3.14129 14.0382 2.82039 13.7788L1.96261 14.0736C1.75143 14.1461 1.51844 14.0589 1.40679 13.8656L0.599582 12.4674C0.487934 12.2741 0.52892 12.0287 0.697356 11.8821L1.38115 11.287C1.34966 11.0848 1.33332 10.8775 1.33332 10.6665C1.33332 10.4555 1.34966 10.2483 1.38113 10.0462L0.697303 9.451C0.528867 9.30441 0.487882 9.05903 0.59953 8.86565L1.40674 7.46753C1.51839 7.27415 1.75138 7.18695 1.96255 7.25953L2.8203 7.5543C3.14122 7.29484 3.50309 7.08401 3.89469 6.93301L4.06807 6.04385ZM5.33329 12.9998C6.62196 12.9998 7.66663 11.9552 7.66663 10.6665C7.66663 9.37784 6.62196 8.33317 5.33329 8.33317C4.04463 8.33317 2.99996 9.37784 2.99996 10.6665C2.99996 11.9552 4.04463 12.9998 5.33329 12.9998Z" fill="#18202A"/>
</g>
</g>
<defs>
<clipPath id="clip0_3394_8871">
<rect width="16" height="16" fill="white"/>
</clipPath>
<clipPath id="clip1_3394_8871">
<rect width="16" height="16" fill="white"/>
</clipPath>
</defs>
</svg>
