<svg width="16" height="16" viewBox="0 0 16 16" fill="none" xmlns="http://www.w3.org/2000/svg">
<path fill-rule="evenodd" clip-rule="evenodd" d="M4.66667 0.666992H7.33333V7.33366H10.495C10.4367 7.3856 10.3795 7.43954 10.3235 7.49549L7.49509 10.3239C6.13401 11.685 5.95886 13.7829 6.96966 15.3337H4.66667C3.19391 15.3337 2 14.1398 2 12.667V3.33366C2 1.8609 3.19391 0.666992 4.66667 0.666992ZM13.6095 5.6098C13.7235 5.72381 13.8147 5.85634 13.8802 6.00033H8.66667V0.786752C8.81065 0.852275 8.94318 0.943506 9.05719 1.05752L13.6095 5.6098ZM15.0376 8.4383C13.9962 7.3969 12.3077 7.3969 11.2663 8.4383L10.7949 8.9097C10.5346 9.17005 10.5346 9.59216 10.7949 9.85251C11.0553 10.1129 11.4774 10.1129 11.7377 9.85251L12.2091 9.38111C12.7298 8.86041 13.5741 8.86041 14.0948 9.38111C14.6155 9.90181 14.6155 10.746 14.0948 11.2667L13.6234 11.7381C13.363 11.9985 13.363 12.4206 13.6234 12.6809C13.8837 12.9413 14.3058 12.9413 14.5662 12.6809L15.0376 12.2095C16.079 11.1681 16.079 9.4797 15.0376 8.4383ZM8.4379 15.038C7.3965 13.9966 7.3965 12.3081 8.4379 11.2667L8.90931 10.7953C9.16966 10.535 9.59177 10.535 9.85212 10.7953C10.1125 11.0557 10.1125 11.4778 9.85212 11.7381L9.38071 12.2095C8.86001 12.7302 8.86001 13.5745 9.38071 14.0952C9.90141 14.6159 10.7456 14.6159 11.2663 14.0952L11.7377 13.6237C11.9981 13.3634 12.4202 13.3634 12.6805 13.6237C12.9409 13.8841 12.9409 14.3062 12.6805 14.5666L12.2091 15.038C11.1677 16.0794 9.4793 16.0794 8.4379 15.038ZM10.3235 13.1523C10.0632 12.892 10.0632 12.4699 10.3235 12.2095L12.2091 10.3239C12.4695 10.0636 12.8916 10.0636 13.1519 10.3239C13.4123 10.5843 13.4123 11.0064 13.1519 11.2667L11.2663 13.1523C11.006 13.4127 10.5839 13.4127 10.3235 13.1523Z" fill="#18202A"/>
</svg>
