<svg width="16" height="16" viewBox="0 0 16 16" fill="none" xmlns="http://www.w3.org/2000/svg">
<path d="M13 4C12.4477 4 12 4.44772 12 5C12 5.55228 12.4477 6 13 6C13.5523 6 14 5.55228 14 5C14 4.44772 13.5523 4 13 4Z" fill="#18202A"/>
<path d="M13 10C12.4477 10 12 10.4477 12 11C12 11.5523 12.4477 12 13 12C13.5523 12 14 11.5523 14 11C14 10.4477 13.5523 10 13 10Z" fill="#18202A"/>
<path d="M7 11C7 10.4477 7.44771 10 8 10C8.55228 10 9 10.4477 9 11C9 11.5523 8.55228 12 8 12C7.44771 12 7 11.5523 7 11Z" fill="#18202A"/>
<path d="M8 4C7.44771 4 7 4.44772 7 5C7 5.55228 7.44771 6 8 6C8.55228 6 9 5.55228 9 5C9 4.44772 8.55228 4 8 4Z" fill="#18202A"/>
<path d="M2 11C2 10.4477 2.44772 10 3 10C3.55228 10 4 10.4477 4 11C4 11.5523 3.55228 12 3 12C2.44772 12 2 11.5523 2 11Z" fill="#18202A"/>
<path d="M3 4C2.44772 4 2 4.44772 2 5C2 5.55228 2.44772 6 3 6C3.55229 6 4 5.55228 4 5C4 4.44772 3.55229 4 3 4Z" fill="#18202A"/>
</svg>
