<svg width="16" height="16" viewBox="0 0 16 16" fill="none" xmlns="http://www.w3.org/2000/svg">
<path fill-rule="evenodd" clip-rule="evenodd" d="M4.66671 13.3328C4.66671 12.9647 4.96518 12.6662 5.33337 12.6662H14C14.3682 12.6662 14.6667 12.9647 14.6667 13.3328C14.6667 13.701 14.3682 13.9995 14 13.9995H5.33337C4.96518 13.9995 4.66671 13.701 4.66671 13.3328Z" fill="#18202A"/>
<path fill-rule="evenodd" clip-rule="evenodd" d="M4.66671 2.66618C4.66671 2.29799 4.96518 1.99951 5.33337 1.99951H14C14.3682 1.99951 14.6667 2.29799 14.6667 2.66618C14.6667 3.03437 14.3682 3.33285 14 3.33285H5.33337C4.96518 3.33285 4.66671 3.03437 4.66671 2.66618Z" fill="#18202A"/>
<path d="M4.47145 6.47092C4.73179 6.21057 4.73179 5.78846 4.47145 5.52811C4.2111 5.26776 3.78899 5.26776 3.52864 5.52811L1.52864 7.52811C1.41693 7.63981 1.35316 7.78129 1.33731 7.927C1.32557 8.03492 1.34012 8.14516 1.38096 8.24733C1.40867 8.31664 1.44847 8.38223 1.50037 8.44088C1.51057 8.45242 1.52116 8.4636 1.53213 8.47441L3.52864 10.4709C3.78899 10.7313 4.2111 10.7313 4.47145 10.4709C4.73179 10.2106 4.73179 9.78846 4.47145 9.52811L3.60891 8.66558L14.0003 8.66133C14.3685 8.66118 14.6669 8.36258 14.6667 7.99439C14.6666 7.6262 14.368 7.32785 13.9998 7.328L3.61012 7.33224L4.47145 6.47092Z" fill="#18202A"/>
</svg>
