<svg width="16" height="16" viewBox="0 0 16 16" fill="none" xmlns="http://www.w3.org/2000/svg">
<g clip-path="url(#clip0_2266_35636)">
<path fill-rule="evenodd" clip-rule="evenodd" d="M10 15.7479V10.6744L10.0001 15.0572C12.4422 14.3665 14.3665 12.4422 15.0573 10.0001L11.8432 10H15.7479C15.9125 9.36073 16 8.6906 16 8C16 7.3094 15.9125 6.63924 15.7479 6H10.2362L15.0572 5.99974C14.3664 3.55765 12.4422 1.63346 10.0001 0.942708L10 5.32558V0.252035L9.72417 0.186269C9.16885 0.0642901 8.59194 0 8 0L7.70531 0.00532695C7.11856 0.0265736 6.54792 0.11101 6 0.252035V5.76386L5.99976 0.942748C3.55772 1.63353 1.63356 3.5577 0.942769 5.99974L5.76389 5.99997L0.252035 6L0.186269 6.27582C0.0642901 6.83113 0 7.40806 0 8C0 8.6906 0.087506 9.36073 0.252035 10H4.15683L0.942729 10.0001C1.63348 12.4422 3.55767 14.3664 5.99976 15.0572L5.99999 10.2361L6.00318 10.2389C6.00834 10.2435 6.01351 10.2481 6.01869 10.2527L6.00318 10.2389C5.91902 10.1638 5.83912 10.084 5.76389 9.99997L5.66499 9.8837C5.24906 9.36879 5 8.71345 5 8C5 7.23764 5.28438 6.54165 5.75285 6.01241C5.75457 6.01046 5.75629 6.00852 5.75802 6.00658C5.75998 6.00438 5.76192 6.00216 5.76389 5.99997C5.83817 5.91697 5.91699 5.83815 6 5.76386L6.1163 5.66499C6.63123 5.24906 7.28655 5 8 5L8.16357 5.00438C8.8676 5.04221 9.50718 5.32278 10 5.76389C10.0829 5.83813 10.1617 5.91689 10.2362 6C10.2369 6.00089 10.2377 6.00177 10.2385 6.00266L10.2506 6.01629C10.717 6.54505 11 7.2395 11 8C11 8.76832 10.7111 9.46924 10.2362 9.99997L10.2395 9.9962C10.1641 10.0807 10.0841 10.1609 9.99981 10.2363L9.99913 10.2369L9.8837 10.335C9.36879 10.7509 8.71345 11 8 11C7.23167 11 6.53075 10.7111 5.99999 10.2361L6 15.7479L6.27582 15.8137C6.83113 15.9357 7.40806 16 8 16L8.29469 15.9947C8.88144 15.9734 9.45206 15.889 10 15.7479ZM5.76389 9.99997C5.7638 9.99988 5.76397 10.0001 5.76389 9.99997V9.99997ZM8.9136 11.8949L9 11.8727V14.9273L8.88678 14.9445C8.59461 14.9813 8.29864 15 8 15L7.69325 14.9934C7.48943 14.9846 7.28704 14.9671 7.08644 14.941L7 14.9273V11.8727L7.08641 11.8949C7.38237 11.9641 7.68853 12 8 12C8.31148 12 8.61764 11.9641 8.9136 11.8949ZM11.8727 7H14.9273L14.9445 7.11321C14.9813 7.40538 15 7.70136 15 8L14.9938 8.29771C14.9855 8.49553 14.9691 8.692 14.9445 8.88678L14.9273 9H11.8727L11.8949 8.9136C11.9641 8.61764 12 8.31148 12 8L11.9957 7.81379C11.9843 7.56647 11.9503 7.32318 11.8949 7.08641L11.8727 7ZM1.072 7H4.12667L4.10507 7.08639C4.03587 7.38235 4 7.68852 4 8L4.00421 8.18455C4.0154 8.42969 4.04882 8.67097 4.10327 8.90595L4.12733 9H1.072L1.05553 8.88682C1.01865 8.59465 1 8.29867 1 8L1.00658 7.69323C1.01535 7.4894 1.03285 7.287 1.05896 7.0864L1.072 7ZM7.11316 1.05553C7.40533 1.01865 7.70133 1 8 1L8.30677 1.00658C8.51059 1.01535 8.71299 1.03285 8.91358 1.05896L9 1.072V4.12667L8.91362 4.10507C8.61765 4.03587 8.31149 4 8 4L7.81546 4.00421C7.57031 4.0154 7.32903 4.04882 7.09406 4.10327L7 4.12667V1.072L7.11316 1.05553Z" fill="#18202A"/>
</g>
<defs>
<clipPath id="clip0_2266_35636">
<rect width="16" height="16" fill="white"/>
</clipPath>
</defs>
</svg>
