<svg width="16" height="16" viewBox="0 0 16 16" fill="none" xmlns="http://www.w3.org/2000/svg">
<path d="M6.66667 3.33341C6.66667 2.96522 6.96514 2.66675 7.33333 2.66675H12.6667C13.0349 2.66675 13.3333 2.96522 13.3333 3.33341C13.3333 3.7016 13.0349 4.00008 12.6667 4.00008H10.54L7.08483 12.0001H9.33333C9.70152 12.0001 10 12.2986 10 12.6667C10 13.0349 9.70152 13.3334 9.33333 13.3334H2.66667C2.29848 13.3334 2 13.0349 2 12.6667C2 12.2986 2.29848 12.0001 2.66667 12.0001H5.63245L9.08763 4.00008H7.33333C6.96514 4.00008 6.66667 3.7016 6.66667 3.33341Z" fill="#18202A"/>
</svg>
