<svg width="16" height="16" viewBox="0 0 16 16" fill="none" xmlns="http://www.w3.org/2000/svg">
<g clip-path="url(#clip0_2266_40163)">
<path fill-rule="evenodd" clip-rule="evenodd" d="M7.99999 14.3333C11.4978 14.3333 14.3333 11.4978 14.3333 7.99999C14.3333 4.50219 11.4978 1.66666 7.99999 1.66666C4.50219 1.66666 1.66666 4.50219 1.66666 7.99999C1.66666 11.4978 4.50219 14.3333 7.99999 14.3333ZM7.99999 15.3333C12.0501 15.3333 15.3333 12.0501 15.3333 7.99999C15.3333 3.9499 12.0501 0.666656 7.99999 0.666656C3.9499 0.666656 0.666656 3.9499 0.666656 7.99999C0.666656 12.0501 3.9499 15.3333 7.99999 15.3333Z" fill="#18202A"/>
<path fill-rule="evenodd" clip-rule="evenodd" d="M8.3131 4.97977C8.50837 4.78451 8.82495 4.78451 9.02021 4.97977L11.6869 7.64644C11.8821 7.8417 11.8821 8.15828 11.6869 8.35354L9.02021 11.0202C8.82495 11.2155 8.50837 11.2155 8.3131 11.0202C8.11784 10.8249 8.11784 10.5084 8.3131 10.3131L10.1262 8.49999H4.66666C4.39051 8.49999 4.16666 8.27613 4.16666 7.99999C4.16666 7.72385 4.39051 7.49999 4.66666 7.49999H10.1262L8.3131 5.68688C8.11784 5.49161 8.11784 5.17503 8.3131 4.97977Z" fill="#18202A"/>
</g>
<defs>
<clipPath id="clip0_2266_40163">
<rect width="16" height="16" fill="white"/>
</clipPath>
</defs>
</svg>
