<svg width="16" height="16" viewBox="0 0 16 16" fill="none" xmlns="http://www.w3.org/2000/svg">
<g clip-path="url(#clip0_3737_8827)">
<g clip-path="url(#clip1_3737_8827)">
<path fill-rule="evenodd" clip-rule="evenodd" d="M7.99996 0C8.36815 0 8.66663 0.298477 8.66663 0.666667V1.36323C9.74286 1.46021 10.752 1.78972 11.6436 2.30112L12.4161 1.5286C12.6764 1.26825 13.0985 1.26825 13.3589 1.5286C13.6192 1.78895 13.6192 2.21106 13.3589 2.4714L12.7505 3.07984C14.3308 4.42495 15.3333 6.42874 15.3333 8.66667C15.3333 12.7168 12.05 16 7.99996 16C3.94987 16 0.666626 12.7168 0.666626 8.66667C0.666626 4.8413 3.59563 1.70005 7.33329 1.36323V0.666667C7.33329 0.298477 7.63177 0 7.99996 0ZM7.99996 3.33333C8.36815 3.33333 8.66663 3.63181 8.66663 4V8H12C12.3681 8 12.6666 8.29848 12.6666 8.66667C12.6666 9.03486 12.3681 9.33333 12 9.33333H7.99996C7.63177 9.33333 7.33329 9.03486 7.33329 8.66667V4C7.33329 3.63181 7.63177 3.33333 7.99996 3.33333Z" fill="#18202A"/>
</g>
</g>
<defs>
<clipPath id="clip0_3737_8827">
<rect width="16" height="16" fill="white"/>
</clipPath>
<clipPath id="clip1_3737_8827">
<rect width="16" height="16" fill="white"/>
</clipPath>
</defs>
</svg>
