<svg width="16" height="16" viewBox="0 0 16 16" fill="none" xmlns="http://www.w3.org/2000/svg">
<path fill-rule="evenodd" clip-rule="evenodd" d="M10.7979 4.18848C11.062 4.44503 11.0681 4.8671 10.8115 5.13119L4.33534 11.7979C4.20655 11.9304 4.02852 12.0036 3.84373 11.9999C3.65895 11.9961 3.484 11.9159 3.36066 11.7782L1.17018 9.3338C0.924468 9.05959 0.947562 8.63811 1.22177 8.3924C1.49597 8.14668 1.91745 8.16978 2.16316 8.44398L3.87681 10.3563L9.85515 4.20214C10.1117 3.93805 10.5338 3.93193 10.7979 4.18848Z" fill="#18202A"/>
<path fill-rule="evenodd" clip-rule="evenodd" d="M14.7979 4.18848C15.062 4.44503 15.0681 4.8671 14.8115 5.13119L8.33534 11.7979C8.20328 11.9338 8.01961 12.0071 7.83025 11.9995C7.64089 11.9918 7.46373 11.9039 7.34306 11.7578L6.63149 10.8959C6.39707 10.612 6.4372 10.1918 6.72112 9.9574C7.00504 9.72298 7.42524 9.76311 7.65966 10.047L7.89746 10.3351L13.8552 4.20214C14.1117 3.93805 14.5338 3.93193 14.7979 4.18848Z" fill="#18202A"/>
</svg>
