<svg width="16" height="16" viewBox="0 0 16 16" fill="none" xmlns="http://www.w3.org/2000/svg">
<g clip-path="url(#clip0_2266_41069)">
<path d="M9.33332 5.45866C9.33332 6.50033 8.88888 7.33366 7.99999 7.33366C7.1111 7.33366 6.66666 6.50033 6.66666 5.45866C6.66666 4.62533 7.1111 4.00033 7.99999 4.00033C8.88888 4.00033 9.33332 4.62533 9.33332 5.45866Z" fill="#18202A"/>
<path d="M5.33332 5.83366C5.33332 6.66699 4.99999 7.33366 4.33332 7.33366C3.66666 7.33366 3.33332 6.66699 3.33332 5.83366C3.33332 5.16699 3.66666 4.66699 4.33332 4.66699C4.99999 4.66699 5.33332 5.16699 5.33332 5.83366Z" fill="#18202A"/>
<path d="M12.6667 5.83366C12.6667 6.66699 12.3333 7.33366 11.6667 7.33366C11 7.33366 10.6667 6.66699 10.6667 5.83366C10.6667 5.16699 11 4.66699 11.6667 4.66699C12.3333 4.66699 12.6667 5.16699 12.6667 5.83366Z" fill="#18202A"/>
<path d="M5.5624 8.04318C5.51039 8.07626 5.45908 8.11035 5.40851 8.14545C4.62636 8.68821 4.40354 9.66905 4.67567 10.4891C4.69688 10.553 4.71887 10.6165 4.74165 10.6797C4.38028 10.6734 4.02445 10.6453 3.67554 10.5969C3.26412 10.5397 2.9154 10.2639 2.77506 9.87299C2.74283 9.78322 2.71241 9.69265 2.68384 9.60131C2.5367 9.13095 2.72206 8.61432 3.16284 8.39387C3.68209 8.13416 4.27274 7.9873 4.89923 7.9873C5.12552 7.9873 5.34713 8.00647 5.5624 8.04318Z" fill="#18202A"/>
<path d="M11.3245 10.4891C11.3036 10.5523 11.2818 10.615 11.2593 10.6775C11.63 10.667 11.9948 10.6336 12.352 10.5788C12.7582 10.5165 13.1004 10.241 13.2381 9.8538C13.2616 9.78794 13.284 9.72164 13.3055 9.65492C13.4536 9.19479 13.283 8.68604 12.8584 8.45494C12.3116 8.1573 11.6791 7.9873 11.005 7.9873C10.8055 7.9873 10.6095 8.00221 10.4184 8.03092C10.477 8.06782 10.5348 8.10601 10.5917 8.14547C11.3738 8.68822 11.5966 9.66904 11.3245 10.4891Z" fill="#18202A"/>
<path d="M10.3942 11.0306C10.1782 11.4972 9.74259 11.8234 9.235 11.9049C8.83268 11.9695 8.42022 12.0031 8.00007 12.0031C7.57993 12.0031 7.16749 11.9695 6.76519 11.9049C6.25762 11.8234 5.82196 11.4972 5.60597 11.0307C5.49333 10.7874 5.39383 10.5366 5.30841 10.2792C5.11518 9.69687 5.28454 9.04293 5.78858 8.69316C6.41866 8.25593 7.18004 8.00033 8.00007 8.00033C8.82011 8.00033 9.5815 8.25594 10.2116 8.69318C10.7156 9.04294 10.885 9.69687 10.6918 10.2791C10.6063 10.5366 10.5069 10.7874 10.3942 11.0306Z" fill="#18202A"/>
<path fill-rule="evenodd" clip-rule="evenodd" d="M12.6667 1.66699H3.33332C2.41285 1.66699 1.66666 2.41318 1.66666 3.33366V12.667C1.66666 13.5875 2.41285 14.3337 3.33332 14.3337H12.6667C13.5871 14.3337 14.3333 13.5875 14.3333 12.667V3.33366C14.3333 2.41318 13.5871 1.66699 12.6667 1.66699ZM3.33332 0.666992C1.86056 0.666992 0.666656 1.8609 0.666656 3.33366V12.667C0.666656 14.1398 1.86056 15.3337 3.33332 15.3337H12.6667C14.1394 15.3337 15.3333 14.1398 15.3333 12.667V3.33366C15.3333 1.8609 14.1394 0.666992 12.6667 0.666992H3.33332Z" fill="#18202A"/>
</g>
<defs>
<clipPath id="clip0_2266_41069">
<rect width="16" height="16" fill="white"/>
</clipPath>
</defs>
</svg>
