<svg width="16" height="16" viewBox="0 0 16 16" fill="none" xmlns="http://www.w3.org/2000/svg">
<path d="M6.66667 3.16675C6.66667 2.89061 6.89052 2.66675 7.16667 2.66675H12.8333C13.1095 2.66675 13.3333 2.89061 13.3333 3.16675C13.3333 3.44289 13.1095 3.66675 12.8333 3.66675H10.3209L6.57776 12.3334H9.5C9.77614 12.3334 10 12.5573 10 12.8334C10 13.1096 9.77614 13.3334 9.5 13.3334H2.5C2.22386 13.3334 2 13.1096 2 12.8334C2 12.5573 2.22386 12.3334 2.5 12.3334H5.48848L9.23159 3.66675H7.16667C6.89052 3.66675 6.66667 3.44289 6.66667 3.16675Z" fill="#18202A"/>
</svg>
