<svg width="16" height="16" viewBox="0 0 16 16" fill="none" xmlns="http://www.w3.org/2000/svg">
<g clip-path="url(#clip0_2266_40247)">
<path fill-rule="evenodd" clip-rule="evenodd" d="M14.3333 7.99996C14.3333 4.50216 11.4978 1.66663 7.99999 1.66663C4.50219 1.66663 1.66666 4.50216 1.66666 7.99996C1.66666 11.4978 4.50219 14.3333 7.99999 14.3333C11.4978 14.3333 14.3333 11.4978 14.3333 7.99996ZM15.3333 7.99996C15.3333 3.94987 12.0501 0.666626 7.99999 0.666626C3.9499 0.666626 0.666656 3.94987 0.666656 7.99996C0.666657 12.05 3.9499 15.3333 7.99999 15.3333C12.0501 15.3333 15.3333 12.05 15.3333 7.99996Z" fill="#18202A"/>
<path fill-rule="evenodd" clip-rule="evenodd" d="M4.97977 9.02018C4.78451 8.82492 4.78451 8.50834 4.97977 8.31307L7.64644 5.64641C7.8417 5.45114 8.15828 5.45114 8.35354 5.64641L11.0202 8.31307C11.2155 8.50834 11.2155 8.82492 11.0202 9.02018C10.8249 9.21544 10.5084 9.21544 10.3131 9.02018L7.99999 6.70707L5.68688 9.02018C5.49161 9.21544 5.17503 9.21544 4.97977 9.02018Z" fill="#18202A"/>
</g>
<defs>
<clipPath id="clip0_2266_40247">
<rect width="16" height="16" fill="white"/>
</clipPath>
</defs>
</svg>
