<svg width="16" height="16" viewBox="0 0 16 16" fill="none" xmlns="http://www.w3.org/2000/svg">
<path fill-rule="evenodd" clip-rule="evenodd" d="M8.09497 11.1403C8.2496 11.0484 8.42616 10.9998 8.60605 10.9998H12.6667C13.5871 10.9998 14.3333 10.2536 14.3333 9.33317V3.33317C14.3333 2.4127 13.5871 1.6665 12.6667 1.6665H3.33332C2.41285 1.6665 1.66666 2.4127 1.66666 3.33317V9.33317C1.66666 10.2536 2.41285 10.9998 3.33332 10.9998H3.69696C3.99808 10.9998 4.28317 11.1355 4.47306 11.3692C4.66295 11.6029 4.73742 11.9098 4.67579 12.2045L4.44446 13.3109L8.09497 11.1403ZM8.60605 11.9998H12.6667C14.1394 11.9998 15.3333 10.8059 15.3333 9.33317V3.33317C15.3333 1.86041 14.1394 0.666504 12.6667 0.666504H3.33332C1.86056 0.666504 0.666656 1.86041 0.666656 3.33317V9.33317C0.666656 10.5847 1.52881 11.6348 2.69159 11.9221C2.89714 11.9729 3.11208 11.9998 3.33332 11.9998H3.69696L3.31041 13.8485C3.19165 14.4165 3.80493 14.8546 4.30369 14.558L8.60605 11.9998Z" fill="#18202A"/>
</svg>
