<svg width="16" height="16" viewBox="0 0 16 16" fill="none" xmlns="http://www.w3.org/2000/svg">
<path d="M10 5.00033C10 6.66699 9.33333 8.00033 8 8.00033C6.66667 8.00033 6 6.66699 6 5.00033C6 3.66699 6.66667 2.66699 8 2.66699C9.33333 2.66699 10 3.66699 10 5.00033Z" fill="#18202A"/>
<path d="M11.7056 13.098C11.351 13.8736 10.6228 14.4106 9.77934 14.536C9.19875 14.6223 8.60459 14.667 7.99999 14.667C7.39539 14.667 6.80123 14.6223 6.22065 14.536C5.37714 14.4106 4.64901 13.8736 4.29437 13.098C4.16923 12.8244 4.05533 12.5445 3.95324 12.259C3.60418 11.2828 3.89633 10.169 4.76949 9.61004C5.70202 9.01308 6.81059 8.66699 7.99999 8.66699C9.1894 8.66699 10.298 9.01308 11.2305 9.61004C12.1037 10.169 12.3958 11.2828 12.0467 12.259C11.9447 12.5445 11.8308 12.8244 11.7056 13.098Z" fill="#18202A"/>
<path d="M3.33333 8.00033C4.22222 8.00033 4.66667 7.16699 4.66667 6.12533C4.66667 5.29199 4.22222 4.66699 3.33333 4.66699C2.44444 4.66699 2 5.29199 2 6.12533C2 7.16699 2.44444 8.00033 3.33333 8.00033Z" fill="#18202A"/>
<path d="M14 6.12533C14 7.16699 13.5556 8.00033 12.6667 8.00033C11.7778 8.00033 11.3333 7.16699 11.3333 6.12533C11.3333 5.29199 11.7778 4.66699 12.6667 4.66699C13.5556 4.66699 14 5.29199 14 6.12533Z" fill="#18202A"/>
<path d="M2.69776 12.7081C2.3061 11.6127 2.43066 10.3277 3.13229 9.35352C2.49585 9.40811 1.89134 9.57447 1.33847 9.83289C0.560427 10.1965 0.246477 11.115 0.509148 11.9327C0.738968 12.6481 1.36306 13.1507 2.10882 13.2428C2.38118 13.2764 2.65636 13.3009 2.93406 13.3159C2.84999 13.116 2.77116 12.9133 2.69776 12.7081Z" fill="#18202A"/>
<path d="M13.0695 13.3076C13.1522 13.1104 13.2299 12.9105 13.3022 12.7081C13.6919 11.6182 13.5706 10.3405 12.8782 9.36815C13.5483 9.44429 14.1807 9.64461 14.7519 9.94553C15.4658 10.3216 15.7414 11.1847 15.4931 11.9524C15.2739 12.6304 14.6877 13.1117 13.9823 13.2125C13.6815 13.2555 13.3771 13.2873 13.0695 13.3076Z" fill="#18202A"/>
</svg>
