<svg width="16" height="16" viewBox="0 0 16 16" fill="none" xmlns="http://www.w3.org/2000/svg">
<path fill-rule="evenodd" clip-rule="evenodd" d="M13.3333 3.99967H11.2667C10.9578 2.47818 9.61264 1.33301 8 1.33301C6.38736 1.33301 5.04219 2.47818 4.73335 3.99967H2.66667C1.5621 3.99967 0.666667 4.8951 0.666667 5.99967V7.36401L5.86739 9.03088C7.26236 9.39272 8.737 9.39272 10.132 9.03088L15.3333 7.36402V5.99967C15.3333 4.8951 14.4379 3.99967 13.3333 3.99967ZM8 2.66634C8.87081 2.66634 9.61164 3.22288 9.8862 3.99967H6.1138C6.38836 3.22288 7.12919 2.66634 8 2.66634ZM9 6.99967C9 7.55196 8.55228 7.99967 8 7.99967C7.44772 7.99967 7 7.55196 7 6.99967C7 6.44739 7.44772 5.99967 8 5.99967C8.55228 5.99967 9 6.44739 9 6.99967Z" fill="#18202A"/>
<path d="M15.3333 8.75207L10.4109 10.3295L10.3977 10.333C8.82883 10.7426 7.17051 10.7426 5.60169 10.333L5.58844 10.3295L0.666667 8.75208V12.6663C0.666667 13.7709 1.5621 14.6663 2.66667 14.6663H13.3333C14.4379 14.6663 15.3333 13.7709 15.3333 12.6663V8.75207Z" fill="#18202A"/>
</svg>
