<svg width="16" height="16" viewBox="0 0 16 16" fill="none" xmlns="http://www.w3.org/2000/svg">
<path fill-rule="evenodd" clip-rule="evenodd" d="M7.99999 2.33301C8.92046 2.33301 9.66666 3.0792 9.66666 3.99967H6.33332C6.33332 3.0792 7.07951 2.33301 7.99999 2.33301ZM5.33332 3.99967C5.33332 2.52692 6.52723 1.33301 7.99999 1.33301C9.47275 1.33301 10.6667 2.52692 10.6667 3.99967L13.3333 3.99967C14.4379 3.99967 15.3333 4.8951 15.3333 5.99967V7.5651V8.6152V12.6663C15.3333 13.7709 14.4379 14.6663 13.3333 14.6663H2.66666C1.56209 14.6663 0.666656 13.7709 0.666656 12.6663V8.61521V7.56511V5.99967C0.666656 4.8951 1.56209 3.99967 2.66666 3.99967L5.33332 3.99967ZM1.66666 8.93572V12.6663C1.66666 13.2186 2.11437 13.6663 2.66666 13.6663H13.3333C13.8856 13.6663 14.3333 13.2186 14.3333 12.6663V8.93567L10.4109 10.1927L10.3976 10.1961C8.82882 10.6058 7.1705 10.6058 5.60168 10.1961L5.58843 10.1927L1.66666 8.93572ZM14.3333 7.88557L10.132 9.23197C8.73698 9.59382 7.26234 9.59382 5.86737 9.23198L1.66666 7.88561V5.99967C1.66666 5.44739 2.11437 4.99967 2.66666 4.99967L5.33332 4.99967H10.6667L13.3333 4.99967C13.8856 4.99967 14.3333 5.44739 14.3333 5.99967V7.88557ZM8.99999 7.66634C8.99999 8.21863 8.55227 8.66634 7.99999 8.66634C7.4477 8.66634 6.99999 8.21863 6.99999 7.66634C6.99999 7.11406 7.4477 6.66634 7.99999 6.66634C8.55227 6.66634 8.99999 7.11406 8.99999 7.66634Z" fill="#18202A"/>
</svg>
