<svg width="16" height="16" viewBox="0 0 16 16" fill="none" xmlns="http://www.w3.org/2000/svg">
<g clip-path="url(#clip0_2266_38624)">
<path fill-rule="evenodd" clip-rule="evenodd" d="M8.69037 2.05752L2.0237 8.72418C1.503 9.24488 1.503 10.0891 2.0237 10.6098L5.39054 13.9766C5.91124 14.4973 6.75546 14.4973 7.27616 13.9766L13.9428 7.30997C14.1929 7.05992 14.3333 6.72078 14.3333 6.36716V2.33366C14.3333 1.96547 14.0349 1.66699 13.6667 1.66699H9.63318C9.27956 1.66699 8.94042 1.80747 8.69037 2.05752ZM13 4.66699C13 5.58747 12.2538 6.33366 11.3333 6.33366C10.4129 6.33366 9.66668 5.58747 9.66668 4.66699C9.66668 3.74652 10.4129 3.00033 11.3333 3.00033C12.2538 3.00033 13 3.74652 13 4.66699ZM7.98326 1.35041L1.3166 8.01708C0.405374 8.9283 0.405372 10.4057 1.3166 11.3169L4.68343 14.6837C5.59466 15.595 7.07204 15.595 7.98327 14.6837L14.6499 8.01708C15.0875 7.57949 15.3333 6.986 15.3333 6.36716V2.33366C15.3333 1.41318 14.5872 0.666992 13.6667 0.666992H9.63318C9.01434 0.666992 8.42085 0.912826 7.98326 1.35041ZM12 4.66699C12 5.03518 11.7015 5.33366 11.3333 5.33366C10.9652 5.33366 10.6667 5.03518 10.6667 4.66699C10.6667 4.2988 10.9652 4.00033 11.3333 4.00033C11.7015 4.00033 12 4.2988 12 4.66699Z" fill="#18202A"/>
</g>
<defs>
<clipPath id="clip0_2266_38624">
<rect width="16" height="16" fill="white"/>
</clipPath>
</defs>
</svg>
