<svg width="16" height="16" viewBox="0 0 16 16" fill="none" xmlns="http://www.w3.org/2000/svg">
<path fill-rule="evenodd" clip-rule="evenodd" d="M4.83333 7.45955V3.66666C4.83333 3.26884 4.99137 2.88731 5.27267 2.606C5.55398 2.3247 5.93551 2.16666 6.33333 2.16666C6.50608 2.16666 6.67575 2.19646 6.83547 2.25321C6.84455 2.08361 6.88237 1.91658 6.94751 1.7593C7.0229 1.57731 7.13339 1.41196 7.27267 1.27267C7.41196 1.13338 7.57732 1.02289 7.75931 0.947509C7.9413 0.872127 8.13635 0.833328 8.33333 0.833328C8.53032 0.833328 8.72537 0.872127 8.90736 0.947509C9.08935 1.02289 9.25471 1.13338 9.39399 1.27267C9.53328 1.41196 9.64377 1.57731 9.71915 1.7593C9.7843 1.91658 9.82212 2.08361 9.83119 2.25321C9.99092 2.19646 10.1606 2.16666 10.3333 2.16666C10.7312 2.16666 11.1127 2.3247 11.394 2.606C11.6564 2.86836 11.8115 3.21791 11.8312 3.58655C11.9909 3.52979 12.1606 3.49999 12.3333 3.49999C12.7311 3.49999 13.1127 3.65803 13.394 3.93933C13.6753 4.22064 13.8333 4.60217 13.8333 4.99999V10.6667C13.8333 11.8601 13.3592 13.0047 12.5153 13.8487C11.6714 14.6925 10.5268 15.1667 9.33334 15.1667H8.13712C7.39245 15.1665 6.65942 14.9815 6.00379 14.6284C5.34769 14.2749 4.78934 13.7636 4.37946 13.1412C4.33526 13.0739 4.29124 13.0065 4.24738 12.9391C4.02797 12.6023 3.28741 11.3101 2.04023 9.09315C1.84868 8.75268 1.79752 8.35093 1.89762 7.97331C1.99772 7.5957 2.24118 7.27203 2.57624 7.07116C2.90973 6.87105 3.30037 6.78821 3.68639 6.83562C4.07241 6.88303 4.43172 7.05825 4.70689 7.33311L4.83333 7.45955ZM8.14199 1.87139C8.20265 1.84626 8.26767 1.83333 8.33333 1.83333C8.39899 1.83333 8.46401 1.84626 8.52467 1.87139C8.58534 1.89652 8.64046 1.93335 8.68689 1.97977C8.73332 2.0262 8.77015 2.08132 8.79527 2.14199C8.8204 2.20265 8.83333 2.26767 8.83333 2.33333V7.99999C8.83333 8.27614 9.05719 8.49999 9.33333 8.49999C9.60948 8.49999 9.83333 8.27614 9.83333 7.99999V3.66666C9.83333 3.53405 9.88601 3.40688 9.97978 3.31311C10.0735 3.21934 10.2007 3.16666 10.3333 3.16666C10.4659 3.16666 10.5931 3.21934 10.6869 3.31311C10.7807 3.40688 10.8333 3.53405 10.8333 3.66666V7.99999C10.8333 8.27614 11.0572 8.49999 11.3333 8.49999C11.6095 8.49999 11.8333 8.27614 11.8333 7.99999L11.8333 4.99999C11.8333 4.86739 11.886 4.74021 11.9798 4.64644C12.0735 4.55267 12.2007 4.49999 12.3333 4.49999C12.4659 4.49999 12.5931 4.55267 12.6869 4.64644C12.7807 4.74021 12.8333 4.86739 12.8333 4.99999V10.6667C12.8333 11.5949 12.4646 12.4851 11.8082 13.1415C11.1518 13.7979 10.2616 14.1667 9.33334 14.1667H8.13787C7.55849 14.1666 6.98813 14.0228 6.47806 13.748C5.96776 13.4731 5.53372 13.0757 5.21492 12.5917C5.17166 12.5258 5.12887 12.4603 5.08596 12.3943C4.88937 12.0924 4.16993 10.8393 2.91178 8.60284C2.84793 8.48935 2.83086 8.35541 2.86423 8.22955C2.8976 8.10367 2.97876 7.99579 3.09044 7.92883C3.23278 7.84342 3.39974 7.80793 3.5645 7.82816C3.72926 7.84839 3.88254 7.9231 3.99998 8.04041L4.97875 9.01919C4.982 9.02244 4.98528 9.02566 4.98861 9.02883C5.0338 9.07189 5.08507 9.10485 5.13958 9.12773C5.19916 9.1528 5.26463 9.16666 5.33333 9.16666C5.60948 9.16666 5.83333 8.9428 5.83333 8.66666V3.66666C5.83333 3.53405 5.88601 3.40688 5.97978 3.31311C6.07355 3.21934 6.20073 3.16666 6.33333 3.16666C6.46594 3.16666 6.59312 3.21934 6.68689 3.31311C6.78065 3.40688 6.83333 3.53405 6.83333 3.66666V7.99999C6.83333 8.27614 7.05719 8.49999 7.33333 8.49999C7.60948 8.49999 7.83333 8.27614 7.83333 7.99999V2.33333C7.83333 2.26767 7.84627 2.20265 7.87139 2.14199C7.89652 2.08132 7.93335 2.0262 7.97978 1.97977C8.02621 1.93335 8.08133 1.89652 8.14199 1.87139Z" fill="#18202A"/>
</svg>
