<svg width="16" height="16" viewBox="0 0 16 16" fill="none" xmlns="http://www.w3.org/2000/svg">
<path fill-rule="evenodd" clip-rule="evenodd" d="M11.7723 2.42724C11.9045 2.66966 11.8152 2.97338 11.5728 3.10561L4.23942 7.10561C3.99699 7.23785 3.69327 7.14852 3.56104 6.90609C3.42881 6.66367 3.51814 6.35995 3.76056 6.22772L11.0939 2.22772C11.3363 2.09549 11.64 2.18482 11.7723 2.42724Z" fill="#18202A"/>
<path fill-rule="evenodd" clip-rule="evenodd" d="M13.5727 4.22772C13.8152 4.35995 13.9045 4.66367 13.7723 4.90609L9.77227 12.2394C9.64004 12.4818 9.33632 12.5712 9.0939 12.4389C8.85147 12.3067 8.76214 12.003 8.89438 11.7606L12.8944 4.42724C13.0266 4.18482 13.3303 4.09549 13.5727 4.22772Z" fill="#18202A"/>
<path fill-rule="evenodd" clip-rule="evenodd" d="M10.3131 1.64645C10.5084 1.45118 10.8249 1.45118 11.0202 1.64645L14.3535 4.97978C14.5488 5.17504 14.5488 5.49162 14.3535 5.68689C14.1583 5.88215 13.8417 5.88215 13.6464 5.68689L10.3131 2.35355C10.1178 2.15829 10.1178 1.84171 10.3131 1.64645Z" fill="#18202A"/>
<path fill-rule="evenodd" clip-rule="evenodd" d="M6.35354 9.64645C6.54881 9.84171 6.54881 10.1583 6.35354 10.3536L3.68688 13.0202C3.49161 13.2155 3.17503 13.2155 2.97977 13.0202C2.78451 12.825 2.78451 12.5084 2.97977 12.3131L5.64644 9.64645C5.8417 9.45118 6.15828 9.45118 6.35354 9.64645Z" fill="#18202A"/>
<path fill-rule="evenodd" clip-rule="evenodd" d="M2.3131 5.64645C2.50837 5.45118 2.82495 5.45118 3.02021 5.64645L10.3535 12.9798C10.5488 13.175 10.5488 13.4916 10.3535 13.6869C10.1583 13.8821 9.8417 13.8821 9.64644 13.6869L2.3131 6.35355C2.11784 6.15829 2.11784 5.84171 2.3131 5.64645Z" fill="#18202A"/>
</svg>
