<svg width="16" height="16" viewBox="0 0 16 16" fill="none" xmlns="http://www.w3.org/2000/svg">
<path d="M0.666656 3.1665C0.666656 2.89036 0.890514 2.6665 1.16666 2.6665H14.8333C15.1095 2.6665 15.3333 2.89036 15.3333 3.1665C15.3333 3.44265 15.1095 3.6665 14.8333 3.6665H1.16666C0.890515 3.6665 0.666656 3.44265 0.666656 3.1665Z" fill="#18202A"/>
<path d="M0.666656 12.8332C0.666656 12.557 0.890514 12.3332 1.16666 12.3332H14.8333C15.1095 12.3332 15.3333 12.557 15.3333 12.8332C15.3333 13.1093 15.1095 13.3332 14.8333 13.3332H1.16666C0.890515 13.3332 0.666656 13.1093 0.666656 12.8332Z" fill="#18202A"/>
<path d="M0.666656 7.99984C0.666656 7.72369 0.890514 7.49984 1.16666 7.49984H14.8333C15.1095 7.49984 15.3333 7.72369 15.3333 7.99984C15.3333 8.27598 15.1095 8.49984 14.8333 8.49984H1.16666C0.890515 8.49984 0.666656 8.27598 0.666656 7.99984Z" fill="#18202A"/>
</svg>
