<svg width="16" height="16" viewBox="0 0 16 16" fill="none" xmlns="http://www.w3.org/2000/svg">
<g clip-path="url(#clip0_2267_24889)">
<path fill-rule="evenodd" clip-rule="evenodd" d="M3.33333 11.3333L7.20891 14.8756C8.27848 15.8532 10 15.0944 10 13.6454V2.35477C10 0.905759 8.27852 0.146961 7.20894 1.12452L3.33333 4.66667H2C0.895431 4.66667 0 5.5621 0 6.66667V9.33333C0 10.4379 0.895431 11.3333 2 11.3333H3.33333ZM3.72148 10.3333L7.88356 14.1375C8.31139 14.5285 9 14.225 9 13.6454V2.35477C9 1.77516 8.31141 1.47165 7.88358 1.86267L3.72147 5.66667H3.66667V10.3333H3.72148ZM2 5.66667H2.66667V10.3333H2C1.44772 10.3333 1 9.88562 1 9.33333V6.66667C1 6.11438 1.44772 5.66667 2 5.66667Z" fill="#18202A"/>
<path d="M11.477 6.38317C11.2995 6.17164 11.3271 5.85626 11.5386 5.67876C11.7502 5.50126 12.0655 5.52885 12.243 5.74039L13.6813 7.45438L15.1195 5.74039C15.297 5.52885 15.6124 5.50126 15.8239 5.67876C16.0354 5.85626 16.063 6.17164 15.8855 6.38317L14.334 8.23225L15.8855 10.0813C16.063 10.2928 16.0354 10.6082 15.8239 10.7857C15.6123 10.9632 15.297 10.9356 15.1195 10.7241L13.6813 9.01011L12.2431 10.7241C12.0656 10.9356 11.7502 10.9632 11.5386 10.7857C11.3271 10.6082 11.2995 10.2928 11.477 10.0813L13.0286 8.23225L11.477 6.38317Z" fill="#18202A"/>
</g>
<defs>
<clipPath id="clip0_2267_24889">
<rect width="16" height="16" fill="white"/>
</clipPath>
</defs>
</svg>
