<svg width="16" height="16" viewBox="0 0 16 16" fill="none" xmlns="http://www.w3.org/2000/svg">
<g clip-path="url(#clip0_3444_9429)">
<path d="M11.569 1.76417C10.7025 0.897619 9.2975 0.89762 8.43094 1.76417L8.23561 1.95951L11.3737 5.09758L11.569 4.90225C12.4356 4.03569 12.4356 2.63073 11.569 1.76417Z" fill="#18202A"/>
<path d="M1.7711 8.09087L7.27923 2.88875L10.4175 6.02699L4.89551 11.2422C4.85275 11.2826 4.80005 11.311 4.74278 11.3244L1.41047 12.1062C1.07017 12.1861 0.766113 11.8772 0.851265 11.5382L1.67668 8.25201C1.69216 8.19039 1.72492 8.13449 1.7711 8.09087Z" fill="#18202A"/>
<path d="M8.03802 11.0011C8.29052 11.0155 8.5131 11.1716 8.61272 11.4041L9.35297 13.1313C9.4055 13.2539 9.52601 13.3333 9.65936 13.3333H9.6739C9.80724 13.3333 9.92775 13.2539 9.98028 13.1313L10.7205 11.4041C10.8202 11.1716 11.0427 11.0155 11.2952 11.0011C11.5477 10.9866 11.7866 11.1163 11.9121 11.3359L12.7656 12.8295C12.9436 13.141 13.275 13.3333 13.6338 13.3333H14.6666C15.0348 13.3333 15.3333 13.6318 15.3333 14C15.3333 14.3682 15.0348 14.6667 14.6666 14.6667H13.6338C12.7965 14.6667 12.0234 14.218 11.6079 13.491L11.4187 13.1598L11.2058 13.6565C10.9432 14.2693 10.3406 14.6667 9.6739 14.6667H9.65936C8.99264 14.6667 8.39008 14.2693 8.12745 13.6565L7.91457 13.1598L7.72532 13.491C7.30989 14.218 6.53675 14.6667 5.69942 14.6667H1.33329C0.965103 14.6667 0.666626 14.3682 0.666626 14C0.666626 13.6318 0.965103 13.3333 1.33329 13.3333H5.69942C6.05828 13.3333 6.38962 13.141 6.56767 12.8295L7.42113 11.3359C7.54661 11.1163 7.78553 10.9866 8.03802 11.0011Z" fill="#18202A"/>
</g>
<defs>
<clipPath id="clip0_3444_9429">
<rect width="16" height="16" fill="white"/>
</clipPath>
</defs>
</svg>
