<svg width="16" height="16" viewBox="0 0 16 16" fill="none" xmlns="http://www.w3.org/2000/svg">
<path fill-rule="evenodd" clip-rule="evenodd" d="M13.6095 5.6098C13.8073 5.80764 13.9366 6.06124 13.9819 6.33366H14V7.33366H13.4086C13.2712 7.34971 13.1347 7.37474 13 7.40875V7.33366H7.33333V1.66699H4.66667C3.74619 1.66699 3 2.41318 3 3.33366V12.667C3 13.5875 3.74619 14.3337 4.66667 14.3337H7.36041C7.42184 14.6805 7.54132 15.019 7.71885 15.3337H4.66667C3.19391 15.3337 2 14.1398 2 12.667V3.33366C2 1.8609 3.19391 0.666992 4.66667 0.666992H8.33333V0.685087C8.60575 0.730437 8.85936 0.859682 9.05719 1.05752L13.6095 5.6098ZM8.33333 1.74899V6.33366H12.918C12.913 6.32792 12.9078 6.32233 12.9024 6.31691L8.35008 1.76462C8.34466 1.7592 8.33908 1.75399 8.33333 1.74899ZM15.3102 8.94678C14.4641 8.10064 13.0922 8.10064 12.2461 8.94678L11.3033 9.88959C11.108 10.0848 11.108 10.4014 11.3033 10.5967C11.4986 10.792 11.8151 10.792 12.0104 10.5967L12.9532 9.65388C13.4088 9.19827 14.1475 9.19827 14.6031 9.65388C15.0587 10.1095 15.0587 10.8482 14.6031 11.3038L13.6603 12.2466C13.4651 12.4419 13.4651 12.7585 13.6603 12.9537C13.8556 13.149 14.1722 13.149 14.3674 12.9537L15.3102 12.0109C16.1564 11.1648 16.1564 9.79291 15.3102 8.94678ZM8.94628 15.3107C8.10014 14.4646 8.10014 13.0927 8.94628 12.2466L9.88909 11.3038C10.0843 11.1085 10.4009 11.1085 10.5962 11.3038C10.7915 11.4991 10.7915 11.8156 10.5962 12.0109L9.65338 12.9537C9.19777 13.4093 9.19777 14.148 9.65338 14.6036C10.109 15.0592 10.8477 15.0592 11.3033 14.6036L12.2461 13.6608C12.4414 13.4656 12.758 13.4656 12.9532 13.6608C13.1485 13.8561 13.1485 14.1727 12.9532 14.3679L12.0104 15.3107C11.1643 16.1569 9.79241 16.1569 8.94628 15.3107ZM13.3068 11.6574L11.6569 13.3073C11.4616 13.5025 11.145 13.5025 10.9497 13.3073C10.7545 13.112 10.7545 12.7954 10.9497 12.6002L12.5997 10.9502C12.7949 10.755 13.1115 10.755 13.3068 10.9502C13.502 11.1455 13.502 11.4621 13.3068 11.6574Z" fill="#18202A"/>
</svg>
