<svg width="16" height="16" viewBox="0 0 16 16" fill="none" xmlns="http://www.w3.org/2000/svg">
<path d="M10.6869 8.68721C10.8821 8.49195 10.8821 8.17537 10.6869 7.98011C10.4916 7.78484 10.175 7.78484 9.97978 7.98011L7 10.9599L6.02022 9.98011C5.82496 9.78484 5.50838 9.78484 5.31311 9.98011C5.11785 10.1754 5.11785 10.492 5.31311 10.6872L6.64645 12.0205C6.84171 12.2158 7.15829 12.2158 7.35355 12.0205L10.6869 8.68721Z" fill="#18202A"/>
<path fill-rule="evenodd" clip-rule="evenodd" d="M11.3367 4.00032C11.0964 4.00032 10.8924 3.83189 10.8075 3.60707C10.3792 2.47328 9.28385 1.66699 8.00013 1.66699C6.34328 1.66699 5.00013 3.01014 5.00013 4.66699V5.33366H12.0001C13.4729 5.33366 14.6668 6.52757 14.6668 8.00033V12.667C14.6668 14.1398 13.4729 15.3337 12.0001 15.3337H4.00013C2.52737 15.3337 1.33347 14.1398 1.33347 12.667V8.00033C1.33347 6.52757 2.52737 5.33366 4.00013 5.33366V4.66699C4.00013 2.45785 5.79099 0.666992 8.00013 0.666992C9.77032 0.666992 11.2719 1.81688 11.7988 3.41045C11.8987 3.71258 11.6549 4.00032 11.3367 4.00032ZM4.00013 6.33366C3.07966 6.33366 2.33347 7.07985 2.33347 8.00033V12.667C2.33347 13.5875 3.07966 14.3337 4.00013 14.3337H12.0001C12.9206 14.3337 13.6668 13.5875 13.6668 12.667V8.00033C13.6668 7.07985 12.9206 6.33366 12.0001 6.33366H4.00013Z" fill="#18202A"/>
</svg>
