<svg width="16" height="16" viewBox="0 0 16 16" fill="none" xmlns="http://www.w3.org/2000/svg">
<g clip-path="url(#clip0_3906_9133)">
<path fill-rule="evenodd" clip-rule="evenodd" d="M0.666626 4.66667C0.666626 3.19391 1.86053 2 3.33329 2H5.8382C6.36863 2 6.87734 2.21071 7.25241 2.58579L7.99996 3.33333H12.6666C14.1394 3.33333 15.3333 4.52724 15.3333 6V11.3333C15.3333 12.8061 14.1394 14 12.6666 14H3.33329C1.86053 14 0.666626 12.8061 0.666626 11.3333V4.66667ZM11 8.36364C11.7994 8.36364 12.1991 7.60606 12.1991 6.65909C12.1991 5.90152 11.7994 5.33333 11 5.33333C10.2005 5.33333 9.80085 5.90152 9.80085 6.65909C9.80085 7.60606 10.2005 8.36364 11 8.36364ZM9.04292 9.70449C9.1265 9.63161 9.2141 9.56332 9.30534 9.5C9.78739 9.16546 10.3711 8.9697 11 8.9697C11.5092 8.9697 11.9889 9.09807 12.4089 9.32455C12.6057 9.43069 12.7894 9.55836 12.957 9.70447C13.004 9.74544 13.0466 9.7897 13.0847 9.83668C13.3715 10.1896 13.4093 10.696 13.2024 11.1185L13.1955 11.1325L13.1884 11.1468C13.0187 11.4874 12.709 11.7349 12.3436 11.8296C11.914 11.9408 11.4638 12 11 12C10.5361 12 10.0859 11.9408 9.65633 11.8296C9.2909 11.7349 8.98117 11.4874 8.81154 11.1468L8.79755 11.1185C8.67568 10.8697 8.63869 10.5918 8.68743 10.3333C8.73247 10.0944 8.85074 9.87205 9.04292 9.70449Z" fill="#18202A"/>
</g>
<defs>
<clipPath id="clip0_3906_9133">
<rect width="16" height="16" fill="white"/>
</clipPath>
</defs>
</svg>
