<svg width="16" height="16" viewBox="0 0 16 16" fill="none" xmlns="http://www.w3.org/2000/svg">
<path d="M12.7152 4.75568L10.6404 8.55949L11.3775 9.29655L13.4523 5.49274L13.6464 5.68689C13.8417 5.88215 14.1583 5.88215 14.3535 5.68689C14.5488 5.49162 14.5488 5.17504 14.3535 4.97978L13.6951 4.3213C13.6898 4.31584 13.6845 4.31048 13.679 4.30523L11.6948 2.32101C11.6895 2.31551 11.6841 2.31014 11.6787 2.30491L11.0202 1.64645C10.8249 1.45118 10.5084 1.45118 10.3131 1.64645C10.1178 1.84171 10.1178 2.15829 10.3131 2.35355L10.5073 2.54771L6.70344 4.62251L7.4405 5.35957L11.2443 3.28476L12.7152 4.75568Z" fill="#18202A"/>
<path fill-rule="evenodd" clip-rule="evenodd" d="M2.84045 2.8809C3.03571 2.68563 3.35229 2.68563 3.54755 2.8809L13.0995 12.4328C13.2947 12.6281 13.2947 12.9447 13.0995 13.1399C12.9042 13.3352 12.5876 13.3352 12.3924 13.1399L10.3792 11.1267L9.77227 12.2394C9.75358 12.2737 9.73147 12.3049 9.7066 12.3328L10.3535 12.9798C10.5488 13.175 10.5488 13.4916 10.3535 13.6869C10.1583 13.8821 9.8417 13.8821 9.64644 13.6869L6.33332 10.3738L3.02021 13.6869C2.82495 13.8821 2.50837 13.8821 2.3131 13.6869C2.11784 13.4916 2.11784 13.175 2.3131 12.9798L5.62622 9.66667L2.3131 6.35355C2.11784 6.15829 2.11784 5.84171 2.3131 5.64645C2.50837 5.45118 2.82495 5.45118 3.02021 5.64645L3.66716 6.29339C3.69511 6.26852 3.72631 6.2464 3.76056 6.22772L4.87324 5.6208L2.84045 3.588C2.64519 3.39274 2.64518 3.07616 2.84045 2.8809ZM4.39469 7.02092L5.6103 6.35786L9.64213 10.3897L8.97907 11.6053L4.39469 7.02092Z" fill="#18202A"/>
</svg>
