<svg width="16" height="16" viewBox="0 0 16 16" fill="none" xmlns="http://www.w3.org/2000/svg">
<path fill-rule="evenodd" clip-rule="evenodd" d="M2.66663 2.33331H13.3333C13.8856 2.33331 14.3333 2.78103 14.3333 3.33331V5.33331C14.3333 5.8856 13.8856 6.33331 13.3333 6.33331H2.66663C2.11434 6.33331 1.66663 5.8856 1.66663 5.33331V3.33331C1.66663 2.78103 2.11434 2.33331 2.66663 2.33331ZM0.666626 3.33331C0.666626 2.22874 1.56206 1.33331 2.66663 1.33331H13.3333C14.4379 1.33331 15.3333 2.22874 15.3333 3.33331V5.33331C15.3333 6.43788 14.4379 7.33331 13.3333 7.33331H2.66663C1.56206 7.33331 0.666626 6.43788 0.666626 5.33331V3.33331ZM2.66663 9.66665H13.3333C13.8856 9.66665 14.3333 10.1144 14.3333 10.6666V12.6666C14.3333 13.2189 13.8856 13.6666 13.3333 13.6666H2.66663C2.11434 13.6666 1.66663 13.2189 1.66663 12.6666V10.6666C1.66663 10.1144 2.11434 9.66665 2.66663 9.66665ZM0.666626 10.6666C0.666626 9.56208 1.56206 8.66665 2.66663 8.66665H13.3333C14.4379 8.66665 15.3333 9.56208 15.3333 10.6666V12.6666C15.3333 13.7712 14.4379 14.6666 13.3333 14.6666H2.66663C1.56206 14.6666 0.666626 13.7712 0.666626 12.6666V10.6666Z" fill="#18202A"/>
</svg>
