<svg width="16" height="16" viewBox="0 0 16 16" fill="none" xmlns="http://www.w3.org/2000/svg">
<g clip-path="url(#clip0_3291_8712)">
<g clip-path="url(#clip1_3291_8712)">
<path d="M6.06903 5.29103C5.80927 5.4642 5.66668 5.69395 5.66668 6C5.66668 6.27614 5.44282 6.5 5.16668 6.5C4.89054 6.5 4.66668 6.27614 4.66668 6C4.66668 5.30605 5.02409 4.7858 5.51433 4.45897C5.98975 4.14203 6.59251 4 7.16668 4C8.5805 4 9.66668 5.02907 9.66668 6.33333C9.66668 7.01145 9.25632 7.68096 8.8856 8.17267C8.5865 8.56938 8.24634 8.93265 8.02564 9.16834C7.96375 9.23443 7.9112 9.29055 7.87165 9.33449C7.61213 9.62284 7.02479 10.2521 6.50658 10.8048L6.32343 11H9.16668C9.44282 11 9.66668 11.2239 9.66668 11.5C9.66668 11.7761 9.44282 12 9.16668 12H5.16668C4.96711 12 4.78665 11.8813 4.70759 11.6981C4.62853 11.5148 4.666 11.3021 4.80293 11.1569L5.09533 10.8465C5.27404 10.6566 5.51761 10.3975 5.77708 10.1208C6.29786 9.56535 6.8772 8.94458 7.12837 8.66551C7.18435 8.60331 7.24976 8.53339 7.32175 8.45643C7.54224 8.22072 7.82455 7.91891 8.08711 7.57066C8.44772 7.09237 8.66668 6.65521 8.66668 6.33333C8.66668 5.6376 8.08619 5 7.16668 5C6.74085 5 6.34361 5.10797 6.06903 5.29103Z" fill="#18202A"/>
<path d="M2.71209 4.04721C2.88778 4.1295 3.00001 4.306 3.00001 4.50001V11.5C3.00001 11.7761 2.77615 12 2.50001 12C2.22387 12 2.00001 11.7761 2.00001 11.5V5.56753L0.820105 6.55078C0.607966 6.72757 0.292684 6.6989 0.115902 6.48676C-0.0608801 6.27463 -0.0322181 5.95934 0.17992 5.78256L2.17992 4.1159C2.32896 3.99169 2.5364 3.96492 2.71209 4.04721Z" fill="#18202A"/>
<path d="M12.4024 5.29103C12.1426 5.4642 12 5.69395 12 6C12 6.27614 11.7761 6.5 11.5 6.5C11.2239 6.5 11 6.27614 11 6C11 5.30605 11.3574 4.7858 11.8477 4.45897C12.3231 4.14203 12.9258 4 13.5 4C14.1753 4 14.7947 4.19304 15.2554 4.57237C15.7237 4.95808 16 5.5158 16 6.16667C16 7.00589 15.6202 7.61799 15.0482 7.99937L15.0472 8.00003L15.0482 8.00068C15.6202 8.38205 16 8.99414 16 9.83337C16 10.3479 15.8563 10.7673 15.612 11.0955C15.3719 11.418 15.0578 11.6215 14.7619 11.7502C14.1871 12.0002 13.6034 12.0001 13.5023 12H13.5C13.0309 12 12.4347 11.9084 11.937 11.6202C11.412 11.3163 11 10.7892 11 10C11 9.72386 11.2239 9.5 11.5 9.5C11.7761 9.5 12 9.72386 12 10C12 10.3775 12.1713 10.6004 12.438 10.7548C12.7319 10.925 13.1357 11 13.5 11C13.5727 11 13.9842 10.9979 14.3631 10.8332C14.5463 10.7535 14.701 10.6446 14.8099 10.4983C14.9145 10.3578 15 10.1522 15 9.83337C15 9.33927 14.7964 9.03469 14.4935 8.83273C14.1653 8.61394 13.69 8.50004 13.1667 8.50004C12.8905 8.50004 12.6667 8.27618 12.6667 8.00004C12.6667 7.72389 12.8905 7.50004 13.1667 7.50004C13.69 7.50004 14.1653 7.38613 14.4935 7.16733C14.7964 6.96536 15 6.66077 15 6.16667C15 5.81754 14.8596 5.54192 14.6196 5.3443C14.3719 5.14029 13.9914 5 13.5 5C13.0742 5 12.6769 5.10797 12.4024 5.29103Z" fill="#18202A"/>
</g>
</g>
<defs>
<clipPath id="clip0_3291_8712">
<rect width="16" height="16" fill="white"/>
</clipPath>
<clipPath id="clip1_3291_8712">
<rect width="16" height="16" fill="white"/>
</clipPath>
</defs>
</svg>
