<svg width="16" height="16" viewBox="0 0 16 16" fill="none" xmlns="http://www.w3.org/2000/svg">
<path fill-rule="evenodd" clip-rule="evenodd" d="M0.666667 3.33317C0.666667 1.86041 1.86057 0.666504 3.33333 0.666504H12.6667C14.1394 0.666504 15.3333 1.86041 15.3333 3.33317V9.33317C15.3333 10.8059 14.1394 11.9998 12.6667 11.9998H8.60606L4.3037 14.558C3.80494 14.8546 3.19166 14.4165 3.31042 13.8485L3.69697 11.9998H3.33333C1.86057 11.9998 0.666667 10.8059 0.666667 9.33317V3.33317ZM4 4.6665C4 4.29831 4.29848 3.99984 4.66667 3.99984H11.3333C11.7015 3.99984 12 4.29831 12 4.6665C12 5.03469 11.7015 5.33317 11.3333 5.33317H4.66667C4.29848 5.33317 4 5.03469 4 4.6665ZM4.66667 7.33317C4.29848 7.33317 4 7.63165 4 7.99984C4 8.36803 4.29848 8.6665 4.66667 8.6665H9.33333C9.70152 8.6665 10 8.36803 10 7.99984C10 7.63165 9.70152 7.33317 9.33333 7.33317H4.66667Z" fill="#18202A"/>
</svg>
