<svg width="16" height="16" viewBox="0 0 16 16" fill="none" xmlns="http://www.w3.org/2000/svg">
<g clip-path="url(#clip0_17654_112696)">
<path fill-rule="evenodd" clip-rule="evenodd" d="M0.666829 7.99984C0.666829 12.0499 3.95007 15.3332 8.00016 15.3332C12.0503 15.3332 15.3335 12.0499 15.3335 7.99984C15.3335 3.94975 12.0503 0.666504 8.00016 0.666504C3.95007 0.666504 0.666829 3.94975 0.666829 7.99984ZM8.00016 3.33317C8.36835 3.33317 8.66683 3.63165 8.66683 3.99984V7.99984C8.66683 8.36803 8.36835 8.6665 8.00016 8.6665H4.66683C4.29864 8.6665 4.00016 8.36803 4.00016 7.99984C4.00016 7.63165 4.29864 7.33317 4.66683 7.33317L7.3335 7.33317V3.99984C7.3335 3.63165 7.63197 3.33317 8.00016 3.33317Z" fill="#1A99F4"/>
</g>
<defs>
<clipPath id="clip0_17654_112696">
<rect width="16" height="16" fill="white" transform="matrix(-1 0 0 1 16 0)"/>
</clipPath>
</defs>
</svg>
