<svg width="16" height="16" viewBox="0 0 16 16" fill="none" xmlns="http://www.w3.org/2000/svg">
<path fill-rule="evenodd" clip-rule="evenodd" d="M4.25 1C4.66421 1 5 1.33579 5 1.75V2H11V1.75C11 1.33579 11.3358 1 11.75 1C12.1642 1 12.5 1.33579 12.5 1.75V2C13.8807 2 15 3.11929 15 4.5V12.5C15 13.8807 13.8807 15 12.5 15H3.5C2.11929 15 1 13.8807 1 12.5V4.5C1 3.11929 2.11929 2 3.5 2V1.75C3.5 1.33579 3.83579 1 4.25 1ZM3.75 5.5C3.33579 5.5 3 5.83579 3 6.25C3 6.66421 3.33579 7 3.75 7H12.25C12.6642 7 13 6.66421 13 6.25C13 5.83579 12.6642 5.5 12.25 5.5H3.75ZM5.5 9.25C5.5 9.66421 5.16421 10 4.75 10C4.33579 10 4 9.66421 4 9.25C4 8.83579 4.33579 8.5 4.75 8.5C5.16421 8.5 5.5 8.83579 5.5 9.25ZM11.25 9.99991C11.6642 9.99991 12 9.66412 12 9.24991C12 8.83569 11.6642 8.49991 11.25 8.49991C10.8358 8.49991 10.5 8.83569 10.5 9.24991C10.5 9.66412 10.8358 9.99991 11.25 9.99991ZM5.5 12.25C5.5 12.6642 5.16421 13 4.75 13C4.33579 13 4 12.6642 4 12.25C4 11.8358 4.33579 11.5 4.75 11.5C5.16421 11.5 5.5 11.8358 5.5 12.25ZM8 10C8.41421 10 8.75 9.66421 8.75 9.25C8.75 8.83579 8.41421 8.5 8 8.5C7.58579 8.5 7.25 8.83579 7.25 9.25C7.25 9.66421 7.58579 10 8 10ZM8.75 12.25C8.75 12.6642 8.41421 13 8 13C7.58579 13 7.25 12.6642 7.25 12.25C7.25 11.8358 7.58579 11.5 8 11.5C8.41421 11.5 8.75 11.8358 8.75 12.25ZM11.25 13C11.6642 13 12 12.6642 12 12.25C12 11.8358 11.6642 11.5 11.25 11.5C10.8358 11.5 10.5 11.8358 10.5 12.25C10.5 12.6642 10.8358 13 11.25 13Z" fill="#18202A"/>
</svg>
