<svg width="16" height="16" viewBox="0 0 16 16" fill="none" xmlns="http://www.w3.org/2000/svg">
<g clip-path="url(#clip0_3046_8590)">
<path d="M15.3333 3.33317C15.3333 4.80593 14.1394 5.99984 12.6666 5.99984C11.1939 5.99984 9.99996 4.80593 9.99996 3.33317C9.99996 1.86041 11.1939 0.666504 12.6666 0.666504C14.1394 0.666504 15.3333 1.86041 15.3333 3.33317Z" fill="#18202A"/>
<path d="M8.10735 2.33317C8.18368 1.98358 8.29919 1.64863 8.44905 1.33317H3.33329C1.86053 1.33317 0.666626 2.52708 0.666626 3.99984V9.99984C0.666626 11.2514 1.52878 12.3015 2.69155 12.5888C2.89711 12.6396 3.11205 12.6665 3.33329 12.6665H3.69693L3.31038 14.5152C3.19162 15.0832 3.8049 15.5212 4.30365 15.2247L8.60602 12.6665H12.6666C14.1394 12.6665 15.3333 11.4726 15.3333 9.99984V7.16338C15.0251 7.37837 14.6897 7.55711 14.3333 7.69342V9.99984C14.3333 10.9203 13.5871 11.6665 12.6666 11.6665H8.60602C8.42613 11.6665 8.24957 11.715 8.09494 11.807L4.44443 13.9775L4.67576 12.8712C4.73739 12.5764 4.66292 12.2696 4.47303 12.0359C4.28314 11.8022 3.99805 11.6665 3.69693 11.6665H3.33329C2.41282 11.6665 1.66663 10.9203 1.66663 9.99984V3.99984C1.66663 3.07936 2.41282 2.33317 3.33329 2.33317H8.10735Z" fill="#18202A"/>
</g>
<defs>
<clipPath id="clip0_3046_8590">
<rect width="16" height="16" fill="white"/>
</clipPath>
</defs>
</svg>
