<svg width="16" height="16" viewBox="0 0 16 16" fill="none" xmlns="http://www.w3.org/2000/svg">
<path d="M2.66671 1.33337C1.93033 1.33337 1.33337 1.93033 1.33337 2.66671V3.33337C1.33337 4.06975 1.93033 4.66671 2.66671 4.66671H13.3334C14.0698 4.66671 14.6667 4.06975 14.6667 3.33337V2.66671C14.6667 1.93033 14.0698 1.33337 13.3334 1.33337H2.66671Z" fill="#18202A"/>
<path fill-rule="evenodd" clip-rule="evenodd" d="M2.00004 6.66671C2.00004 6.29852 2.29852 6.00004 2.66671 6.00004H13.3334C13.7016 6.00004 14 6.29852 14 6.66671V12.6667C14 14.1395 12.8061 15.3334 11.3334 15.3334H4.66671C3.19395 15.3334 2.00004 14.1395 2.00004 12.6667V6.66671ZM5.33337 8.00004C5.33337 7.63185 5.63185 7.33337 6.00004 7.33337H10C10.3682 7.33337 10.6667 7.63185 10.6667 8.00004C10.6667 8.36823 10.3682 8.66671 10 8.66671H6.00004C5.63185 8.66671 5.33337 8.36823 5.33337 8.00004Z" fill="#18202A"/>
</svg>
