<svg width="16" height="16" viewBox="0 0 16 16" fill="none" xmlns="http://www.w3.org/2000/svg">
<path fill-rule="evenodd" clip-rule="evenodd" d="M14.276 3.17188L12.828 1.72388C12.578 1.47392 12.2389 1.3335 11.8853 1.3335C11.5318 1.3335 11.1927 1.47392 10.9427 1.72388L2.00001 10.6665L1.53569 13.7045C1.46772 14.1492 1.85071 14.5322 2.29543 14.4642L5.33334 13.9999L14.276 5.05721C14.526 4.80717 14.6664 4.4681 14.6664 4.11454C14.6664 3.76099 14.526 3.42191 14.276 3.17188ZM12.6463 5.27269L13.5688 4.35021C13.6312 4.28771 13.6664 4.20288 13.6664 4.11454C13.6664 4.02621 13.0624 3.396 13 3.3335L12.1209 2.43098C12.0584 2.36856 11.9737 2.3335 11.8853 2.3335C11.797 2.3335 11.7122 2.36867 11.6497 2.43109L10.7272 3.35357L12.6463 5.27269ZM11.9392 5.9798L10.0201 4.06068L2.93899 11.1418L2.59275 13.4071L4.85811 13.0609L11.9392 5.9798Z" fill="#18202A"/>
</svg>
