<svg width="16" height="16" viewBox="0 0 16 16" fill="none" xmlns="http://www.w3.org/2000/svg">
<path fill-rule="evenodd" clip-rule="evenodd" d="M7.68693 4.35355C7.88219 4.15829 7.88219 3.84171 7.68693 3.64645C7.49167 3.45118 7.17508 3.45118 6.97982 3.64645L2.97982 7.64645C2.78456 7.84171 2.78456 8.15829 2.97982 8.35355L6.97982 12.3536C7.17508 12.5488 7.49167 12.5488 7.68693 12.3536C7.88219 12.1583 7.88219 11.8417 7.68693 11.6464L4.04048 8L7.68693 4.35355ZM13 4.35355C13.1953 4.15829 13.1953 3.84171 13 3.64645C12.8048 3.45118 12.4882 3.45118 12.2929 3.64645L8.29293 7.64645C8.09767 7.84171 8.09767 8.15829 8.29293 8.35355L12.2929 12.3536C12.4882 12.5488 12.8048 12.5488 13 12.3536C13.1953 12.1583 13.1953 11.8417 13 11.6464L9.35359 8L13 4.35355Z" fill="#18202A"/>
</svg>
