<svg width="16" height="16" viewBox="0 0 16 16" fill="none" xmlns="http://www.w3.org/2000/svg">
<path fill-rule="evenodd" clip-rule="evenodd" d="M10.6667 1.66699H11C11.5523 1.66699 12 2.11471 12 2.66699V13.3337C12 13.8859 11.5523 14.3337 11 14.3337H5C4.44772 14.3337 4 13.8859 4 13.3337V2.66699C4 2.11471 4.44772 1.66699 5 1.66699H5.33333C5.33333 2.40337 5.93029 3.00033 6.66667 3.00033H9.33333C10.0697 3.00033 10.6667 2.40337 10.6667 1.66699ZM3 2.66699C3 1.56242 3.89543 0.666992 5 0.666992H11C12.1046 0.666992 13 1.56242 13 2.66699V13.3337C13 14.4382 12.1046 15.3337 11 15.3337H5C3.89543 15.3337 3 14.4382 3 13.3337V2.66699Z" fill="#18202A"/>
</svg>
