<svg width="16" height="16" viewBox="0 0 16 16" fill="none" xmlns="http://www.w3.org/2000/svg">
<path fill-rule="evenodd" clip-rule="evenodd" d="M11.3333 2.66634H4C2.89543 2.66634 2 3.56177 2 4.66634V10.6663C2 11.7709 2.89543 12.6663 4 12.6663H6.66667C7.03486 12.6663 7.33333 12.9648 7.33333 13.333C7.33333 13.7012 7.03486 13.9997 6.66667 13.9997H4C2.15905 13.9997 0.666667 12.5073 0.666667 10.6663V4.66634C0.666667 2.82539 2.15905 1.33301 4 1.33301H11.3333C13.1743 1.33301 14.6667 2.82539 14.6667 4.66634V5.99967C14.6667 6.36786 14.3682 6.66634 14 6.66634C13.6318 6.66634 13.3333 6.36786 13.3333 5.99967V4.66634C13.3333 3.56177 12.4379 2.66634 11.3333 2.66634ZM8.66667 9.99967C8.66667 8.8951 9.5621 7.99967 10.6667 7.99967H13.3333C14.4379 7.99967 15.3333 8.8951 15.3333 9.99967V12.6663C15.3333 13.7709 14.4379 14.6663 13.3333 14.6663H10.6667C9.5621 14.6663 8.66667 13.7709 8.66667 12.6663V9.99967Z" fill="#18202A"/>
</svg>
