<svg width="16" height="16" viewBox="0 0 16 16" fill="none" xmlns="http://www.w3.org/2000/svg">
<path fill-rule="evenodd" clip-rule="evenodd" d="M1.76272 1.66699H0V0.666992H1.76272C2.2577 0.666992 2.73036 0.87297 3.06735 1.23553C3.15889 1.33402 3.2323 1.44793 3.28418 1.57199L3.4633 2.00033H13.6758C14.5066 2.00033 15.0712 2.84411 14.7542 3.6121L12.9657 7.94543C12.7855 8.3821 12.3597 8.66699 11.8873 8.66699H5.3375L4.38105 9.7217C4.28392 9.82881 4.35992 10.0003 4.50452 10.0003H12.2864C12.7322 10.0003 13.1485 10.2231 13.3958 10.5941L13.6667 11.0003H4.50452C3.49237 11.0003 2.96037 9.79971 3.64028 9.04994L4.54568 8.05152L2.66345 2.6796L2.3616 1.95779C2.35521 1.94251 2.34616 1.92847 2.33488 1.91633C2.18709 1.75733 1.9798 1.66699 1.76272 1.66699ZM6.66667 13.3337C6.66667 14.0892 6.08889 14.667 5.33333 14.667C4.57778 14.667 4 14.0892 4 13.3337C4 12.5781 4.57778 12.0003 5.33333 12.0003C6.08889 12.0003 6.66667 12.5781 6.66667 13.3337ZM12.6667 13.3337C12.6667 14.0892 12.0889 14.667 11.3333 14.667C10.5778 14.667 10 14.0892 10 13.3337C10 12.5781 10.5778 12.0003 11.3333 12.0003C12.0889 12.0003 12.6667 12.5781 12.6667 13.3337Z" fill="#18202A"/>
</svg>
