<svg width="16" height="16" viewBox="0 0 16 16" fill="none" xmlns="http://www.w3.org/2000/svg">
<g clip-path="url(#clip0_2266_36770)">
<path fill-rule="evenodd" clip-rule="evenodd" d="M8 13.9998C11.3137 13.9998 14 11.3135 14 7.99984C14 4.68613 11.3137 1.99984 8 1.99984C4.68629 1.99984 2 4.68613 2 7.99984C2 11.3135 4.68629 13.9998 8 13.9998ZM8 15.3332C12.0501 15.3332 15.3333 12.0499 15.3333 7.99984C15.3333 3.94975 12.0501 0.666504 8 0.666504C3.94991 0.666504 0.666667 3.94975 0.666667 7.99984C0.666667 12.0499 3.94991 15.3332 8 15.3332Z" fill="#18202A"/>
<path fill-rule="evenodd" clip-rule="evenodd" d="M7.70186 0.736886C7.88954 0.643043 8.11046 0.643043 8.29814 0.736886C10.9233 2.04946 12.1667 4.91397 12.1667 7.74984C12.1667 10.5904 10.9253 13.5785 8.3605 15.2273C8.1409 15.3685 7.8591 15.3685 7.63949 15.2273C5.07474 13.5785 3.83333 10.5904 3.83333 7.74984C3.83333 4.91397 5.07671 2.04946 7.70186 0.736886ZM7.33333 2.56148C5.91514 3.74479 5.16667 5.68026 5.16667 7.74984C5.16667 9.79828 5.90404 11.8597 7.33333 13.2793V2.56148ZM8.66667 13.2793V2.56148C10.0849 3.74479 10.8333 5.68026 10.8333 7.74984C10.8333 9.79828 10.096 11.8597 8.66667 13.2793Z" fill="#18202A"/>
<path fill-rule="evenodd" clip-rule="evenodd" d="M14.6667 8.6665H1.33333V7.33317H14.6667V8.6665Z" fill="#18202A"/>
</g>
<defs>
<clipPath id="clip0_2266_36770">
<rect width="16" height="16" fill="white"/>
</clipPath>
</defs>
</svg>
