<svg width="16" height="16" viewBox="0 0 16 16" fill="none" xmlns="http://www.w3.org/2000/svg">
<path d="M6.00004 2.00004C6.00004 1.63185 6.29852 1.33337 6.66671 1.33337H9.33337C9.70156 1.33337 10 1.63185 10 2.00004C10 2.36823 9.70156 2.66671 9.33337 2.66671H8.66671V13.3334H9.33337C9.70156 13.3334 10 13.6319 10 14C10 14.3682 9.70156 14.6667 9.33337 14.6667H6.66671C6.29852 14.6667 6.00004 14.3682 6.00004 14C6.00004 13.6319 6.29852 13.3334 6.66671 13.3334H7.33337V2.66671H6.66671C6.29852 2.66671 6.00004 2.36823 6.00004 2.00004Z" fill="#18202A"/>
<path d="M1.33337 5.33337C1.33337 4.2288 2.2288 3.33337 3.33337 3.33337H6.66671V12.6667H3.33337C2.2288 12.6667 1.33337 11.7713 1.33337 10.6667V5.33337Z" fill="#18202A"/>
<path d="M14.6667 5.33337C14.6667 4.2288 13.7713 3.33337 12.6667 3.33337H9.33337V12.6667H12.6667C13.7713 12.6667 14.6667 11.7713 14.6667 10.6667V5.33337Z" fill="#18202A"/>
</svg>
