<svg width="16" height="16" viewBox="0 0 16 16" fill="none" xmlns="http://www.w3.org/2000/svg">
<g clip-path="url(#clip0_3015_8725)">
<path fill-rule="evenodd" clip-rule="evenodd" d="M8 0.666504C8.73638 0.666504 9.33333 1.26346 9.33333 1.99984C9.33333 2.49336 9.0652 2.92425 8.66667 3.15479V3.99984H10C12.3756 3.99984 14.3365 5.77484 14.629 8.07091C14.7437 8.02506 14.8689 7.99984 15 7.99984C15.5523 7.99984 16 8.44755 16 8.99984V10.9998C16 11.5521 15.5523 11.9998 15 11.9998C14.8831 11.9998 14.7709 11.9798 14.6667 11.9429V12.6665C14.6667 14.1393 13.4728 15.3332 12 15.3332H4C2.52724 15.3332 1.33333 14.1393 1.33333 12.6665V11.9429C1.22907 11.9798 1.11688 11.9998 1 11.9998C0.447715 11.9998 0 11.5521 0 10.9998V8.99984C0 8.44755 0.447715 7.99984 1 7.99984C1.13108 7.99984 1.25627 8.02506 1.37098 8.07091C1.66347 5.77484 3.62445 3.99984 6 3.99984H7.33333V3.15479C6.9348 2.92425 6.66667 2.49336 6.66667 1.99984C6.66667 1.26346 7.26362 0.666504 8 0.666504ZM13.3333 9.33317C13.3333 10.4377 12.4379 11.3332 11.3333 11.3332C10.2288 11.3332 9.33333 10.4377 9.33333 9.33317C9.33333 8.2286 10.2288 7.33317 11.3333 7.33317C12.4379 7.33317 13.3333 8.2286 13.3333 9.33317ZM4.66667 11.3332C5.77124 11.3332 6.66667 10.4377 6.66667 9.33317C6.66667 8.2286 5.77124 7.33317 4.66667 7.33317C3.5621 7.33317 2.66667 8.2286 2.66667 9.33317C2.66667 10.4377 3.5621 11.3332 4.66667 11.3332ZM6.66667 12.9998C6.66667 12.8157 6.81591 12.6665 7 12.6665H9C9.1841 12.6665 9.33333 12.8157 9.33333 12.9998C9.33333 13.1839 9.1841 13.3332 9 13.3332H7C6.81591 13.3332 6.66667 13.1839 6.66667 12.9998Z" fill="#18202A"/>
</g>
<defs>
<clipPath id="clip0_3015_8725">
<rect width="16" height="16" fill="white"/>
</clipPath>
</defs>
</svg>
