<svg width="16" height="16" viewBox="0 0 16 16" fill="none" xmlns="http://www.w3.org/2000/svg">
<g clip-path="url(#clip0_3916_8842)">
<path fill-rule="evenodd" clip-rule="evenodd" d="M4.38295 2.75561C3.85795 2.23061 4.22982 1.33294 4.97228 1.33301L11.8333 1.33363C12.2935 1.33367 12.6665 1.7067 12.6666 2.16687L12.6673 9.02797C12.6674 9.77044 11.7697 10.1423 11.2447 9.61732L9.50361 7.8762C8.1575 9.26836 7.45755 10.2923 7.13781 11.2343C6.81452 12.1866 6.85986 13.1144 7.1291 14.37C7.21439 14.7678 7.01468 15.1199 6.71485 15.2815C6.40731 15.4471 5.98932 15.412 5.7148 15.0841C3.92622 12.9479 3.40593 10.9144 3.69265 9.06067C3.9673 7.28494 4.97101 5.75062 6.13297 4.50557L4.38295 2.75561ZM11.6666 2.33361L5.37461 2.33304L6.95191 3.9103C7.27945 4.23783 7.2722 4.75893 6.96291 5.08311C5.82711 6.27357 4.92007 7.66722 4.6809 9.21352C4.46978 10.5784 4.76908 12.1276 6.0129 13.8424C5.85229 12.8162 5.86062 11.8857 6.19089 10.9128C6.59269 9.72915 7.45071 8.54324 8.90737 7.05501C9.23018 6.7252 9.76248 6.72086 10.09 7.04837L11.6673 8.62565L11.6666 2.33361Z" fill="#18202A"/>
</g>
<defs>
<clipPath id="clip0_3916_8842">
<rect width="16" height="16" fill="white"/>
</clipPath>
</defs>
</svg>
