<svg width="16" height="16" viewBox="0 0 16 16" fill="none" xmlns="http://www.w3.org/2000/svg">
<g clip-path="url(#clip0_3352_8918)">
<path d="M8.00004 8.66667L6.66671 6.66667H5.33337L7.33337 9.66667L5.33337 12.6667H6.66671L8.00004 10.6667L9.33337 12.6667H10.6667L8.66671 9.66667L10.6667 6.66667H9.33337L8.00004 8.66667Z" fill="#18202A"/>
<path fill-rule="evenodd" clip-rule="evenodd" d="M1.33337 1.33333C1.33337 0.596953 1.93033 0 2.66671 0H10.4478C10.8014 0 11.1405 0.140476 11.3906 0.390524L14.2762 3.27614C14.5262 3.52619 14.6667 3.86533 14.6667 4.21895V14.6667C14.6667 15.403 14.0698 16 13.3334 16H2.66671C1.93033 16 1.33337 15.403 1.33337 14.6667V1.33333ZM2.66671 15C2.48261 15 2.33337 14.8508 2.33337 14.6667V1.33333C2.33337 1.14924 2.48261 1 2.66671 1H10.0033L10 3.60406C10 3.88588 10.1119 4.15616 10.3111 4.35544C10.5102 4.55471 10.7803 4.66667 11.0619 4.66667L13.6667 4.66336V14.6667C13.6667 14.8508 13.5175 15 13.3334 15H2.66671Z" fill="#18202A"/>
</g>
<defs>
<clipPath id="clip0_3352_8918">
<rect width="16" height="16" fill="white"/>
</clipPath>
</defs>
</svg>
