<svg width="16" height="16" viewBox="0 0 16 16" fill="none" xmlns="http://www.w3.org/2000/svg">
<path fill-rule="evenodd" clip-rule="evenodd" d="M3.00001 1H5.00001V3.37819C4.89786 3.42976 4.79721 3.48387 4.69816 3.54045L3.00001 2.23308V1ZM3.82837 4.13285L2.25999 2.92538C2.09606 2.79918 2.00001 2.60402 2.00001 2.39713V0.666667C2.00001 0.298477 2.29849 0 2.66668 0H13.3333C13.7015 0 14 0.298477 14 0.666667V2.39713C14 2.60402 13.904 2.79918 13.74 2.92538L12.1716 4.13285C13.6929 5.35471 14.6667 7.2303 14.6667 9.33333C14.6667 13.0152 11.6819 16 8.00001 16C4.31811 16 1.33334 13.0152 1.33334 9.33333C1.33334 7.2303 2.30712 5.35471 3.82837 4.13285ZM11.3019 3.54045L13 2.23308V1H11V3.37819C11.1022 3.42976 11.2028 3.48387 11.3019 3.54045ZM9.00001 2.74117V1H7.00001V2.74117C7.3262 2.6921 7.66014 2.66667 8.00001 2.66667C8.33988 2.66667 8.67382 2.6921 9.00001 2.74117ZM13.6667 9.33333C13.6667 12.4629 11.1296 15 8.00001 15C4.8704 15 2.33334 12.4629 2.33334 9.33333C2.33334 6.20372 4.8704 3.66667 8.00001 3.66667C11.1296 3.66667 13.6667 6.20372 13.6667 9.33333ZM8.00001 13C10.0251 13 11.6667 11.3584 11.6667 9.33333C11.6667 7.30829 10.0251 5.66667 8.00001 5.66667C5.97497 5.66667 4.33334 7.30829 4.33334 9.33333C4.33334 11.3584 5.97497 13 8.00001 13ZM8.00001 14C10.5773 14 12.6667 11.9107 12.6667 9.33333C12.6667 6.756 10.5773 4.66667 8.00001 4.66667C5.42268 4.66667 3.33334 6.756 3.33334 9.33333C3.33334 11.9107 5.42268 14 8.00001 14ZM8.75032 8.13582L8.19239 6.96025C8.11208 6.79103 7.88794 6.79103 7.80763 6.96025L7.2497 8.13582C7.21764 8.20337 7.15712 8.24987 7.08747 8.26045L5.8529 8.44813C5.67322 8.47544 5.60282 8.71508 5.73512 8.84909L6.61779 9.74325C6.67105 9.7972 6.69545 9.87652 6.68265 9.95413L6.473 11.2254C6.44177 11.4148 6.62451 11.5613 6.78353 11.4743L7.90229 10.8624C7.96371 10.8288 8.03631 10.8288 8.09773 10.8624L9.21649 11.4743C9.37551 11.5613 9.55825 11.4148 9.52702 11.2254L9.31737 9.95413C9.30457 9.87652 9.32897 9.7972 9.38223 9.74325L10.2649 8.84909C10.3972 8.71508 10.3268 8.47544 10.1471 8.44813L8.91255 8.26045C8.8429 8.24987 8.78238 8.20337 8.75032 8.13582Z" fill="#18202A"/>
</svg>
