<svg width="16" height="16" viewBox="0 0 16 16" fill="none" xmlns="http://www.w3.org/2000/svg">
<g clip-path="url(#clip0_2266_41086)">
<path fill-rule="evenodd" clip-rule="evenodd" d="M12.6667 1.66699H3.33332C2.41285 1.66699 1.66666 2.41318 1.66666 3.33366V12.667C1.66666 13.5875 2.41285 14.3337 3.33332 14.3337H8.66543C8.81581 14.6942 9.0135 15.0302 9.25076 15.3337H3.33332C1.86056 15.3337 0.666656 14.1398 0.666656 12.667V3.33366C0.666656 1.8609 1.86056 0.666992 3.33332 0.666992H12.6667C14.1394 0.666992 15.3333 1.8609 15.3333 3.33366V9.2511C15.0298 9.01384 14.6939 8.81614 14.3333 8.66577V3.33366C14.3333 2.41318 13.5871 1.66699 12.6667 1.66699ZM8.38533 11.9936C8.58894 10.6885 9.37502 9.57634 10.4693 8.93128C10.3964 8.8421 10.3105 8.76179 10.2116 8.69318C9.5815 8.25594 8.82011 8.00033 8.00007 8.00033C7.18004 8.00033 6.41866 8.25593 5.78858 8.69316C5.28454 9.04293 5.11518 9.69687 5.30841 10.2792C5.39383 10.5366 5.49333 10.7874 5.60597 11.0307C5.82196 11.4972 6.25762 11.8234 6.76519 11.9049C7.16749 11.9695 7.57993 12.0031 8.00007 12.0031C8.12924 12.0031 8.25768 11.9999 8.38533 11.9936ZM11.08 8.63335C11.5565 8.44575 12.0743 8.34016 12.616 8.33395C12.1278 8.11169 11.5816 7.9873 11.005 7.9873C10.8055 7.9873 10.6095 8.00221 10.4184 8.03092C10.477 8.06782 10.5348 8.10601 10.5917 8.14547C10.7901 8.28316 10.9525 8.44905 11.08 8.63335ZM7.99999 7.33366C8.88888 7.33366 9.33332 6.50033 9.33332 5.45866C9.33332 4.62533 8.88888 4.00033 7.99999 4.00033C7.1111 4.00033 6.66666 4.62533 6.66666 5.45866C6.66666 6.50033 7.1111 7.33366 7.99999 7.33366ZM4.33332 7.33366C4.99999 7.33366 5.33332 6.66699 5.33332 5.83366C5.33332 5.16699 4.99999 4.66699 4.33332 4.66699C3.66666 4.66699 3.33332 5.16699 3.33332 5.83366C3.33332 6.66699 3.66666 7.33366 4.33332 7.33366ZM12.6667 5.83366C12.6667 6.66699 12.3333 7.33366 11.6667 7.33366C11 7.33366 10.6667 6.66699 10.6667 5.83366C10.6667 5.16699 11 4.66699 11.6667 4.66699C12.3333 4.66699 12.6667 5.16699 12.6667 5.83366ZM5.40851 8.14545C5.45908 8.11035 5.51039 8.07626 5.5624 8.04318C5.34713 8.00647 5.12552 7.9873 4.89923 7.9873C4.27274 7.9873 3.68209 8.13416 3.16284 8.39387C2.72206 8.61432 2.5367 9.13095 2.68384 9.60131C2.71241 9.69265 2.74283 9.78322 2.77506 9.87299C2.9154 10.2639 3.26412 10.5397 3.67554 10.5969C4.02445 10.6453 4.38028 10.6734 4.74165 10.6797C4.71887 10.6165 4.69688 10.553 4.67567 10.4891C4.40354 9.66905 4.62636 8.68821 5.40851 8.14545ZM16 12.667C16 14.5079 14.5076 16.0003 12.6667 16.0003C10.8257 16.0003 9.33332 14.5079 9.33332 12.667C9.33332 10.826 10.8257 9.33366 12.6667 9.33366C14.5076 9.33366 16 10.826 16 12.667ZM12.6667 10.667C12.9428 10.667 13.1667 10.8909 13.1667 11.167V12.167H14.1667C14.4428 12.167 14.6667 12.3909 14.6667 12.667C14.6667 12.9431 14.4428 13.167 14.1667 13.167H13.1667V14.167C13.1667 14.4431 12.9428 14.667 12.6667 14.667C12.3905 14.667 12.1667 14.4431 12.1667 14.167V13.167H11.1667C10.8905 13.167 10.6667 12.9431 10.6667 12.667C10.6667 12.3909 10.8905 12.167 11.1667 12.167H12.1667V11.167C12.1667 10.8909 12.3905 10.667 12.6667 10.667Z" fill="#18202A"/>
</g>
<defs>
<clipPath id="clip0_2266_41086">
<rect width="16" height="16" fill="white"/>
</clipPath>
</defs>
</svg>
