<svg width="16" height="16" viewBox="0 0 16 16" fill="none" xmlns="http://www.w3.org/2000/svg">
<path fill-rule="evenodd" clip-rule="evenodd" d="M11.788 5.42458C11.9589 5.36545 12.1424 5.33333 12.3333 5.33333C13.2538 5.33333 14 6.07953 14 7V11.104C14.0003 11.6593 13.9004 12.2092 13.7061 12.7223C13.5118 13.2354 13.2268 13.7017 12.8675 14.0944C12.5082 14.4872 12.0816 14.7988 11.612 15.0113C11.1424 15.2239 10.6391 15.3333 10.1308 15.3333H7.24986C6.70918 15.3329 6.17639 15.1916 5.69572 14.9211C5.21505 14.6507 4.80035 14.2589 4.48603 13.7783L3.65492 12.5113C3.01203 11.5285 2.66648 10.3508 2.66666 9.14286C2.66666 8.48613 2.90547 7.8563 3.33055 7.39193C3.69229 6.99674 4.16372 6.74893 4.66666 6.68385V1.66667C4.66666 0.746192 5.41285 0 6.33332 0C7.2538 0 7.99999 0.746192 7.99999 1.66667V4.03334C8.10769 4.01148 8.21917 4 8.33332 4C8.44748 4 8.55895 4.01148 8.66666 4.03334C9.09007 4.11929 9.45519 4.36575 9.69575 4.70644C9.72844 4.72036 9.75934 4.73767 9.78802 4.75792C9.95888 4.69879 10.1424 4.66667 10.3333 4.66667C10.8963 4.66667 11.394 4.94575 11.6957 5.37311C11.7284 5.38703 11.7593 5.40434 11.788 5.42458ZM6.99999 7.5C6.99999 7.77614 7.22385 8 7.49999 8C7.77613 8 7.99999 7.77614 7.99999 7.5V5.05373L8.19892 5.01335C8.24152 5.00471 8.28636 5 8.33332 5C8.56921 5 8.77735 5.12178 8.89722 5.31065L8.99999 5.47257V7.5C8.99999 7.77614 9.22385 8 9.49999 8C9.77613 8 9.99999 7.77614 9.99999 7.5V5.74633L10.0967 5.7096C10.1689 5.68216 10.2481 5.66667 10.3333 5.66667C10.5692 5.66667 10.7774 5.78845 10.8972 5.97731L11 6.13924V7.5C11 7.77614 11.2238 8 11.5 8C11.7761 8 12 7.77614 12 7.5V6.413L12.0967 6.37626C12.1689 6.34883 12.2481 6.33333 12.3333 6.33333C12.7015 6.33333 13 6.63181 13 7V11.104C13.0002 11.5396 12.9218 11.9698 12.7709 12.3682C12.6201 12.7665 12.4009 13.123 12.1297 13.4194C11.8587 13.7157 11.5418 13.9454 11.1996 14.1003C10.8577 14.2551 10.4948 14.3333 10.1308 14.3333H7.2507C6.88507 14.333 6.52043 14.2377 6.18608 14.0496C5.8511 13.8611 5.55316 13.583 5.32294 13.2309L4.49177 11.9639L4.49135 11.9632C3.95838 11.1482 3.66651 10.162 3.66666 9.143C3.66666 8.72436 3.8197 8.33857 4.06817 8.06714C4.27764 7.83831 4.53635 7.70905 4.79498 7.67559L5.66666 7.5628V1.66667C5.66666 1.29848 5.96513 1 6.33332 1C6.70151 1 6.99999 1.29848 6.99999 1.66667V7.5Z" fill="#18202A"/>
</svg>
