<svg width="16" height="16" viewBox="0 0 16 16" fill="none" xmlns="http://www.w3.org/2000/svg">
<g clip-path="url(#clip0_2414_8637)">
<path fill-rule="evenodd" clip-rule="evenodd" d="M8.3333 14.3248C8.22291 14.3305 8.11177 14.3334 7.99996 14.3334C4.50216 14.3334 1.66663 11.4979 1.66663 8.00008C1.66663 4.50228 4.50216 1.66675 7.99996 1.66675C11.4978 1.66675 14.3333 4.50228 14.3333 8.00008C14.3333 8.32176 14.3093 8.63785 14.263 8.94663C14.5944 9.18181 14.8809 9.47601 15.1073 9.81391C15.2548 9.23382 15.3333 8.62611 15.3333 8.00008C15.3333 3.94999 12.05 0.666748 7.99996 0.666748C3.94987 0.666748 0.666626 3.94999 0.666626 8.00008C0.666626 12.0502 3.94987 15.3334 7.99996 15.3334C8.24992 15.3334 8.49695 15.3209 8.74048 15.2965C8.48103 15.0419 8.33456 14.6858 8.3333 14.3248ZM9.00255 11.7059C8.67736 11.7903 8.33985 11.8334 7.99996 11.8334C7.38767 11.8334 6.78311 11.6935 6.24443 11.4242C5.70563 11.1548 5.24741 10.763 4.91982 10.2812C4.76455 10.0529 4.8238 9.74187 5.05216 9.58661C5.28051 9.43134 5.5915 9.49059 5.74677 9.71894C5.97225 10.0506 6.29588 10.3319 6.69165 10.5298C7.08755 10.7277 7.53848 10.8334 7.99996 10.8334C8.41246 10.8334 8.81654 10.749 9.18041 10.5897C9.06511 10.9275 9.00255 11.2898 9.00255 11.6668V11.7059ZM6.66663 6.66675C6.66663 7.40313 6.21891 8.00008 5.66663 8.00008C5.11434 8.00008 4.66663 7.40313 4.66663 6.66675C4.66663 5.93037 5.11434 5.33342 5.66663 5.33342C6.21891 5.33342 6.66663 5.93037 6.66663 6.66675ZM10.3333 8.00008C10.8856 8.00008 11.3333 7.40313 11.3333 6.66675C11.3333 5.93037 10.8856 5.33342 10.3333 5.33342C9.78101 5.33342 9.33329 5.93037 9.33329 6.66675C9.33329 7.40313 9.78101 8.00008 10.3333 8.00008Z" fill="#18202A"/>
<path fill-rule="evenodd" clip-rule="evenodd" d="M14.6667 11.6666L14.6667 11.6762V12.6666C14.6667 13.2961 14.9631 13.8889 15.4667 14.2666C15.6376 14.3947 15.5469 14.6666 15.3334 14.6666H9.33337C9.11981 14.6666 9.02919 14.3947 9.20004 14.2666C9.70365 13.8889 10 13.2961 10 12.6666V11.6666C10 11.6666 10 11.6666 10 11.6666C10.0001 11.6666 10.0001 11.6666 10.0001 11.6666C10.0001 10.3779 11.0447 9.33325 12.3334 9.33325C13.6221 9.33325 14.6667 10.3779 14.6667 11.6666ZM11.6667 15.3333C11.4826 15.3333 11.3334 15.4825 11.3334 15.6666C11.3334 15.8507 11.4826 15.9999 11.6667 15.9999H13.0001C13.1842 15.9999 13.3334 15.8507 13.3334 15.6666C13.3334 15.4825 13.1842 15.3333 13.0001 15.3333H11.6667Z" fill="#18202A"/>
</g>
<defs>
<clipPath id="clip0_2414_8637">
<rect width="16" height="16" fill="white"/>
</clipPath>
</defs>
</svg>
