<svg width="16" height="16" viewBox="0 0 16 16" fill="none" xmlns="http://www.w3.org/2000/svg">
<path fill-rule="evenodd" clip-rule="evenodd" d="M1.68693 4.35355L3.68693 2.35355C3.88219 2.15829 3.88219 1.84171 3.68693 1.64645C3.49167 1.45118 3.17508 1.45118 2.97982 1.64645L0.979821 3.64645C0.784558 3.84171 0.784558 4.15829 0.979821 4.35355C1.17508 4.54882 1.49167 4.54882 1.68693 4.35355ZM13.6667 8.66667C13.6667 11.7963 11.1297 14.3333 8.00004 14.3333C4.87043 14.3333 2.33337 11.7963 2.33337 8.66667C2.33337 5.53705 4.87043 3 8.00004 3C11.1297 3 13.6667 5.53705 13.6667 8.66667ZM14.6667 8.66667C14.6667 12.3486 11.6819 15.3333 8.00004 15.3333C4.31814 15.3333 1.33337 12.3486 1.33337 8.66667C1.33337 4.98477 4.31814 2 8.00004 2C11.6819 2 14.6667 4.98477 14.6667 8.66667ZM12.3132 2.35355L14.3132 4.35355C14.5084 4.54882 14.825 4.54882 15.0203 4.35355C15.2155 4.15829 15.2155 3.84171 15.0203 3.64645L13.0203 1.64645C12.825 1.45118 12.5084 1.45118 12.3132 1.64645C12.1179 1.84171 12.1179 2.15829 12.3132 2.35355ZM8.50004 4.66667C8.50004 4.39052 8.27618 4.16667 8.00004 4.16667C7.7239 4.16667 7.50004 4.39052 7.50004 4.66667V8.66667C7.50004 8.86668 7.61924 9.04745 7.80308 9.12624L10.1364 10.1262C10.3902 10.235 10.6842 10.1174 10.7929 9.86363C10.9017 9.60981 10.7841 9.31587 10.5303 9.20709L8.50004 8.33697V4.66667Z" fill="#18202A"/>
</svg>
