<svg width="16" height="16" viewBox="0 0 16 16" fill="none" xmlns="http://www.w3.org/2000/svg">
<g clip-path="url(#clip0_2266_37283)">
<path fill-rule="evenodd" clip-rule="evenodd" d="M0.666667 7.99996C0.666666 12.05 3.94991 15.3333 8 15.3333C12.0501 15.3333 15.3333 12.05 15.3333 7.99996C15.3333 3.94987 12.0501 0.666626 8 0.666626C3.94991 0.666626 0.666667 3.94987 0.666667 7.99996ZM11.1381 7.8047C11.3984 7.54435 11.3984 7.12224 11.1381 6.86189C10.8777 6.60154 10.4556 6.60154 10.1953 6.86189L8 9.05715L5.80474 6.86189C5.54439 6.60154 5.12228 6.60154 4.86193 6.86189C4.60158 7.12224 4.60158 7.54435 4.86193 7.8047L7.5286 10.4714C7.78894 10.7317 8.21105 10.7317 8.4714 10.4714L11.1381 7.8047Z" fill="#18202A"/>
</g>
<defs>
<clipPath id="clip0_2266_37283">
<rect width="16" height="16" fill="white"/>
</clipPath>
</defs>
</svg>
