<svg width="16" height="16" viewBox="0 0 16 16" fill="none" xmlns="http://www.w3.org/2000/svg">
<path fill-rule="evenodd" clip-rule="evenodd" d="M6.68689 4.02006C6.88215 3.8248 6.88215 3.50821 6.68689 3.31295C6.49162 3.11769 6.17504 3.11769 5.97978 3.31295L1.64645 7.64628C1.45118 7.84155 1.45118 8.15813 1.64645 8.35339L5.97978 12.6867C6.17504 12.882 6.49162 12.882 6.68689 12.6867C6.88215 12.4915 6.88215 12.1749 6.68689 11.9796L2.70711 7.99984L6.68689 4.02006ZM9.31311 4.02006C9.11785 3.8248 9.11785 3.50821 9.31311 3.31295C9.50838 3.11769 9.82496 3.11769 10.0202 3.31295L14.3536 7.64628C14.5488 7.84155 14.5488 8.15813 14.3536 8.35339L10.0202 12.6867C9.82496 12.882 9.50838 12.882 9.31311 12.6867C9.11785 12.4915 9.11785 12.1749 9.31311 11.9796L13.2929 7.99984L9.31311 4.02006Z" fill="#18202A"/>
</svg>
