<svg width="16" height="16" viewBox="0 0 16 16" fill="none" xmlns="http://www.w3.org/2000/svg">
<g clip-path="url(#clip0_3293_9048)">
<g clip-path="url(#clip1_3293_9048)">
<path fill-rule="evenodd" clip-rule="evenodd" d="M9.33329 2.6665C9.70148 2.6665 9.99996 2.96498 9.99996 3.33317V3.83317H10.3333C10.7015 3.83317 11 4.13165 11 4.49984C11 4.86803 10.7015 5.1665 10.3333 5.1665H9.99996V9.99984C9.99996 10.368 9.70148 10.6665 9.33329 10.6665C9.01789 10.6665 8.75365 10.4475 8.68436 10.1532C8.26353 10.4752 7.73742 10.6665 7.16663 10.6665C5.78591 10.6665 4.66663 9.54722 4.66663 8.1665C4.66663 6.78579 5.78591 5.6665 7.16663 5.6665C7.72943 5.6665 8.2488 5.85248 8.66663 6.16632V5.1665H8.33329C7.9651 5.1665 7.66663 4.86803 7.66663 4.49984C7.66663 4.13165 7.9651 3.83317 8.33329 3.83317H8.66663V3.33317C8.66663 2.96498 8.9651 2.6665 9.33329 2.6665ZM7.16663 9.33317C7.81096 9.33317 8.33329 8.81084 8.33329 8.1665C8.33329 7.52217 7.81096 6.99984 7.16663 6.99984C6.52229 6.99984 5.99996 7.52217 5.99996 8.1665C5.99996 8.81084 6.52229 9.33317 7.16663 9.33317Z" fill="#18202A"/>
<path d="M5.33329 11.3332C4.9651 11.3332 4.66663 11.6316 4.66663 11.9998C4.66663 12.368 4.9651 12.6665 5.33329 12.6665H9.33329C9.70148 12.6665 9.99996 12.368 9.99996 11.9998C9.99996 11.6316 9.70148 11.3332 9.33329 11.3332H5.33329Z" fill="#18202A"/>
<path fill-rule="evenodd" clip-rule="evenodd" d="M15.3333 7.99984C15.3333 12.0499 12.05 15.3332 7.99996 15.3332C3.94987 15.3332 0.666626 12.0499 0.666626 7.99984C0.666626 3.94975 3.94987 0.666504 7.99996 0.666504C12.05 0.666504 15.3333 3.94975 15.3333 7.99984ZM14 7.99984C14 11.3135 11.3137 13.9998 7.99996 13.9998C4.68625 13.9998 1.99996 11.3135 1.99996 7.99984C1.99996 4.68613 4.68625 1.99984 7.99996 1.99984C11.3137 1.99984 14 4.68613 14 7.99984Z" fill="#18202A"/>
</g>
</g>
<defs>
<clipPath id="clip0_3293_9048">
<rect width="16" height="16" fill="white"/>
</clipPath>
<clipPath id="clip1_3293_9048">
<rect width="16" height="16" fill="white"/>
</clipPath>
</defs>
</svg>
