<svg width="16" height="16" viewBox="0 0 16 16" fill="none" xmlns="http://www.w3.org/2000/svg">
<g clip-path="url(#clip0_2266_37846)">
<path fill-rule="evenodd" clip-rule="evenodd" d="M8 7.33366C9.77778 7.33366 10.6667 5.66699 10.6667 3.58366C10.6667 1.91699 9.77778 0.666992 8 0.666992C6.22222 0.666992 5.33333 1.91699 5.33333 3.58366C5.33333 5.66699 6.22222 7.33366 8 7.33366ZM8.00003 8.66699C8.6485 8.66699 9.27535 8.75958 9.86808 8.93226C8.73379 9.78358 8 11.1396 8 12.667C8 13.6465 8.30181 14.5556 8.81749 15.3063C8.54735 15.3244 8.27476 15.3337 8.00001 15.3337C6.96841 15.3337 5.96722 15.2035 5.01196 14.9587C4.19926 14.7504 3.51047 14.206 3.13324 13.4567L3.10211 13.3943C2.58063 12.3412 2.75796 11.0511 3.64778 10.2835C4.81565 9.27614 6.3367 8.66699 8.00003 8.66699ZM16 12.667C16 14.5079 14.5076 16.0003 12.6667 16.0003C10.8257 16.0003 9.33333 14.5079 9.33333 12.667C9.33333 10.826 10.8257 9.33366 12.6667 9.33366C14.5076 9.33366 16 10.826 16 12.667ZM12.6173 13.7164C12.5764 13.7572 12.5288 13.7907 12.4766 13.8153L11.1322 14.4479C10.9671 14.5256 10.7927 14.3598 10.862 14.191L11.4468 12.7659C11.4745 12.6984 11.5166 12.6378 11.5702 12.5883L13.4945 10.812C13.6917 10.63 13.9974 10.6361 14.1872 10.8259L14.4939 11.1326C14.6892 11.3279 14.6892 11.6445 14.4939 11.8397L12.6173 13.7164Z" fill="#18202A"/>
</g>
<defs>
<clipPath id="clip0_2266_37846">
<rect width="16" height="16" fill="white"/>
</clipPath>
</defs>
</svg>
