<svg width="16" height="16" viewBox="0 0 16 16" fill="none" xmlns="http://www.w3.org/2000/svg">
<path d="M2.33337 3.16675C2.33337 2.89061 2.10952 2.66675 1.83337 2.66675C1.55723 2.66675 1.33337 2.89061 1.33337 3.16675V12.8334C1.33337 13.1096 1.55723 13.3334 1.83337 13.3334C2.10952 13.3334 2.33337 13.1096 2.33337 12.8334V8.33342L8.33337 8.33341V12.8334C8.33337 13.1096 8.55723 13.3334 8.83337 13.3334C9.10952 13.3334 9.33337 13.1096 9.33337 12.8334V3.16675C9.33337 2.89061 9.10952 2.66675 8.83337 2.66675C8.55723 2.66675 8.33337 2.89061 8.33337 3.16675V7.33341L2.33337 7.33342V3.16675Z" fill="#18202A"/>
<path d="M11.6667 9.00008C11.6667 8.81629 11.901 8.33342 12.6667 8.33342C13.0503 8.33342 13.2928 8.45824 13.4382 8.60363C13.5883 8.75374 13.6667 8.9571 13.6667 9.16675C13.6667 9.46061 13.5862 9.64715 13.4371 9.84106C13.3148 9.99999 13.1687 10.1403 12.973 10.3281C12.8771 10.4202 12.7693 10.5238 12.6465 10.6465L10.8132 12.4799C10.6702 12.6229 10.6274 12.8379 10.7048 13.0248C10.7822 13.2116 10.9645 13.3334 11.1667 13.3334H14.1667C14.4429 13.3334 14.6667 13.1096 14.6667 12.8334C14.6667 12.5573 14.4429 12.3334 14.1667 12.3334H12.3738L13.3536 11.3536C13.4342 11.273 13.519 11.1916 13.6043 11.1095C13.8298 10.8928 14.0596 10.6719 14.2297 10.4508C14.4972 10.103 14.6667 9.70622 14.6667 9.16675C14.6667 8.70973 14.4952 8.24643 14.1453 7.89653C13.7907 7.54193 13.2832 7.33342 12.6667 7.33342C11.4324 7.33342 10.6667 8.18388 10.6667 9.00008C10.6667 9.27622 10.8906 9.50008 11.1667 9.50008C11.4429 9.50008 11.6667 9.27622 11.6667 9.00008Z" fill="#18202A"/>
</svg>
