<svg width="16" height="16" viewBox="0 0 16 16" fill="none" xmlns="http://www.w3.org/2000/svg">
<path d="M3.87879 0.666504C2.47297 0.666504 1.33333 1.86152 1.33333 3.33565V4.6665H5.33333C5.33333 4.15466 5.52859 3.64281 5.91912 3.25229C6.70017 2.47124 7.9665 2.47124 8.74755 3.25229L10.7475 5.25229C11.5286 6.03334 11.5286 7.29967 10.7475 8.08072L8.74755 10.0807C7.9665 10.8618 6.70017 10.8618 5.91912 10.0807C5.5286 9.69019 5.33333 9.17835 5.33333 8.6665H1.33333V9.34122C1.33333 10.8153 2.47297 12.0104 3.87879 12.0104H4.22589L3.85692 13.8608C3.74356 14.4293 4.32896 14.8677 4.80504 14.5709L8.91184 12.0104H12.7879C14.1937 12.0104 15.3333 10.8153 15.3333 9.34122V3.33565C15.3333 1.86152 14.1937 0.666504 12.7879 0.666504H3.87879Z" fill="#18202A"/>
<path d="M6.86193 4.1951C7.12228 3.93475 7.54439 3.93475 7.80474 4.1951L9.80474 6.1951C10.0651 6.45545 10.0651 6.87756 9.80474 7.13791L7.80474 9.13791C7.54439 9.39826 7.12228 9.39826 6.86193 9.13791C6.60158 8.87756 6.60158 8.45545 6.86193 8.1951L7.72386 7.33317H0.666667C0.298477 7.33317 0 7.03469 0 6.6665C0 6.29831 0.298477 5.99984 0.666667 5.99984H7.72386L6.86193 5.13791C6.60158 4.87756 6.60158 4.45545 6.86193 4.1951Z" fill="#18202A"/>
</svg>
