<svg width="16" height="16" viewBox="0 0 16 16" fill="none" xmlns="http://www.w3.org/2000/svg">
<path d="M10.6667 2.66659C11.0349 2.66659 11.3334 2.36811 11.3334 1.99992C11.3334 1.63173 11.0349 1.33325 10.6667 1.33325H4.00004C2.52728 1.33325 1.33337 2.52716 1.33337 3.99992V11.9999C1.33337 13.4727 2.52728 14.6666 4.00004 14.6666H12C13.4728 14.6666 14.6667 13.4727 14.6667 11.9999V8.66658C14.6667 8.2984 14.3682 7.99992 14 7.99992C13.6319 7.99992 13.3334 8.2984 13.3334 8.66658V11.9999C13.3334 12.7363 12.7364 13.3333 12 13.3333H4.00004C3.26366 13.3333 2.66671 12.7363 2.66671 11.9999V3.99992C2.66671 3.26354 3.26366 2.66659 4.00004 2.66659H10.6667Z" fill="#18202A"/>
<path d="M8.13811 10.8047L14.4714 4.47132C14.7318 4.21097 14.7318 3.78886 14.4714 3.52851C14.2111 3.26816 13.789 3.26816 13.5286 3.52851L7.66671 9.39044L5.80478 7.52851C5.54443 7.26816 5.12232 7.26816 4.86197 7.52851C4.60162 7.78886 4.60162 8.21097 4.86197 8.47132L7.1953 10.8047C7.45565 11.065 7.87776 11.065 8.13811 10.8047Z" fill="#18202A"/>
</svg>
