<svg width="16" height="16" viewBox="0 0 16 16" fill="none" xmlns="http://www.w3.org/2000/svg">
<g clip-path="url(#clip0_2266_35210)">
<path fill-rule="evenodd" clip-rule="evenodd" d="M3.99996 1.16666C3.99996 0.890514 4.22382 0.666656 4.49996 0.666656C4.7761 0.666656 4.99996 0.890514 4.99996 1.16666V1.99999H11V1.16666C11 0.890514 11.2238 0.666656 11.5 0.666656C11.7761 0.666656 12 0.890514 12 1.16666V1.99999H12.6666C14.1394 1.99999 15.3333 3.1939 15.3333 4.66666V8.27315C15.0308 8.00243 14.6952 7.768 14.3333 7.57669V4.66666C14.3333 3.74618 13.5871 2.99999 12.6666 2.99999H12V4.16666C12 4.4428 11.7761 4.66666 11.5 4.66666C11.2238 4.66666 11 4.4428 11 4.16666V2.99999H4.99996V4.16666C4.99996 4.4428 4.7761 4.66666 4.49996 4.66666C4.22382 4.66666 3.99996 4.4428 3.99996 4.16666V2.99999H3.33329C2.41282 2.99999 1.66663 3.74618 1.66663 4.66666V12.6667C1.66663 13.5871 2.41282 14.3333 3.33329 14.3333H7.57666C7.76797 14.6952 8.0024 15.0309 8.27312 15.3333H3.33329C1.86053 15.3333 0.666626 14.1394 0.666626 12.6667V4.66666C0.666626 3.1939 1.86053 1.99999 3.33329 1.99999H3.99996V1.16666ZM12.1666 6.99999H12.0022L12 6.99999L11.9978 6.99999H3.83329C3.55715 6.99999 3.33329 6.77613 3.33329 6.49999C3.33329 6.22385 3.55715 5.99999 3.83329 5.99999H12.1666C12.4428 5.99999 12.6666 6.22385 12.6666 6.49999C12.6666 6.77613 12.4428 6.99999 12.1666 6.99999ZM6.66663 11.3333C6.80101 11.3333 6.92611 11.3731 7.0308 11.4415C7.01042 11.6248 6.99996 11.8112 6.99996 12C6.99996 12.1888 7.01042 12.3751 7.0308 12.5585C6.92611 12.6269 6.80101 12.6667 6.66663 12.6667C6.29844 12.6667 5.99996 12.3682 5.99996 12C5.99996 11.6318 6.29844 11.3333 6.66663 11.3333ZM3.99996 8.66666C3.63177 8.66666 3.33329 8.96513 3.33329 9.33332C3.33329 9.70151 3.63177 9.99999 3.99996 9.99999C4.36815 9.99999 4.66663 9.70151 4.66663 9.33332C4.66663 8.96513 4.36815 8.66666 3.99996 8.66666ZM3.33329 12C3.33329 11.6318 3.63177 11.3333 3.99996 11.3333C4.36815 11.3333 4.66663 11.6318 4.66663 12C4.66663 12.3682 4.36815 12.6667 3.99996 12.6667C3.63177 12.6667 3.33329 12.3682 3.33329 12ZM6.66663 8.66666C6.29844 8.66666 5.99996 8.96513 5.99996 9.33332C5.99996 9.70151 6.29844 9.99999 6.66663 9.99999C7.03482 9.99999 7.33329 9.70151 7.33329 9.33332C7.33329 8.96513 7.03482 8.66666 6.66663 8.66666ZM16 12C16 14.2091 14.2091 16 12 16C9.79082 16 7.99996 14.2091 7.99996 12C7.99996 9.79085 9.79082 7.99999 12 7.99999C14.2091 7.99999 16 9.79085 16 12ZM12 9.83332C12.2761 9.83332 12.5 10.0572 12.5 10.3333V11.7929L13.3535 12.6464C13.5488 12.8417 13.5488 13.1583 13.3535 13.3535C13.1583 13.5488 12.8417 13.5488 12.6464 13.3535L11.6464 12.3535C11.5526 12.2598 11.5 12.1326 11.5 12V10.3333C11.5 10.0572 11.7238 9.83332 12 9.83332Z" fill="#18202A"/>
</g>
<defs>
<clipPath id="clip0_2266_35210">
<rect width="16" height="16" fill="white"/>
</clipPath>
</defs>
</svg>
