<svg width="16" height="16" viewBox="0 0 16 16" fill="none" xmlns="http://www.w3.org/2000/svg">
<path fill-rule="evenodd" clip-rule="evenodd" d="M13.8047 4.19526C14.0651 4.45561 14.0651 4.87772 13.8047 5.13807L7.80474 11.1381C7.54439 11.3984 7.12228 11.3984 6.86193 11.1381L4.66667 8.94281L2.4714 11.1381C2.21106 11.3984 1.78895 11.3984 1.5286 11.1381C1.26825 10.8777 1.26825 10.4556 1.5286 10.1953L4.19526 7.5286C4.45561 7.26825 4.87772 7.26825 5.13807 7.5286L7.33333 9.72386L12.8619 4.19526C13.1223 3.93491 13.5444 3.93491 13.8047 4.19526Z" fill="#18202A"/>
<path fill-rule="evenodd" clip-rule="evenodd" d="M8 4.66667C8 4.29848 8.29848 4 8.66667 4H13.3333C13.7015 4 14 4.29848 14 4.66667V9.33333C14 9.70152 13.7015 10 13.3333 10C12.9651 10 12.6667 9.70152 12.6667 9.33333V5.33333H8.66667C8.29848 5.33333 8 5.03486 8 4.66667Z" fill="#18202A"/>
</svg>
