<svg width="16" height="16" viewBox="0 0 16 16" fill="none" xmlns="http://www.w3.org/2000/svg">
<path d="M4.66667 2.66683H7.33333C8.4379 2.66683 9.33333 3.56226 9.33333 4.66683C9.33333 5.03502 9.63181 5.3335 10 5.3335C10.3682 5.3335 10.6667 5.03502 10.6667 4.66683C10.6667 2.82588 9.17428 1.3335 7.33333 1.3335H4.66667C2.82572 1.3335 1.33333 2.82588 1.33333 4.66683V11.3335C1.33333 13.1744 2.82572 14.6668 4.66667 14.6668H7.33333C9.17428 14.6668 10.6667 13.1744 10.6667 11.3335C10.6667 10.9653 10.3682 10.6668 10 10.6668C9.63181 10.6668 9.33333 10.9653 9.33333 11.3335C9.33333 12.4381 8.4379 13.3335 7.33333 13.3335H4.66667C3.5621 13.3335 2.66667 12.4381 2.66667 11.3335V4.66683C2.66667 3.56226 3.5621 2.66683 4.66667 2.66683Z" fill="#18202A"/>
<path fill-rule="evenodd" clip-rule="evenodd" d="M11.5286 5.52876C11.7889 5.26841 12.2111 5.26841 12.4714 5.52876L14.4714 7.52876C14.7318 7.78911 14.7318 8.21122 14.4714 8.47157L12.4714 10.4716C12.2111 10.7319 11.7889 10.7319 11.5286 10.4716C11.2682 10.2112 11.2682 9.78911 11.5286 9.52876L12.3905 8.66683H6C5.63181 8.66683 5.33333 8.36835 5.33333 8.00016C5.33333 7.63197 5.63181 7.3335 6 7.3335H12.3905L11.5286 6.47157C11.2682 6.21122 11.2682 5.78911 11.5286 5.52876Z" fill="#18202A"/>
</svg>
