<svg width="16" height="16" viewBox="0 0 16 16" fill="none" xmlns="http://www.w3.org/2000/svg">
<path d="M7.99996 2.4869C7.99996 2.21076 7.77543 1.98545 7.49971 2.00064C3.68293 2.21102 0.666626 4.81076 0.666626 7.9869C0.666626 11.3006 3.94987 13.9869 7.99996 13.9869C8.78414 13.9869 9.53957 13.8862 10.248 13.6997L12.3215 14.5637C12.7828 14.7559 13.2838 14.391 13.2423 13.8929L13.1088 12.2913C14.4808 11.201 15.3333 9.67541 15.3333 7.9869C15.3333 7.90669 15.3314 7.82683 15.3276 7.74738C15.3158 7.50194 15.1052 7.32024 14.8595 7.32024C14.5544 7.32024 14.3255 7.59648 14.3323 7.9015C14.333 7.92994 14.3333 7.95841 14.3333 7.9869C14.3333 9.31923 13.6632 10.5735 12.4866 11.5084L12.0678 11.8412L12.2002 13.4298L10.3205 12.6466L9.99344 12.7327C9.36844 12.8972 8.69857 12.9869 7.99996 12.9869C4.30517 12.9869 1.66663 10.5701 1.66663 7.9869C1.66663 5.52196 4.06921 3.20845 7.49951 3.00187C7.77515 2.98527 7.99996 2.76305 7.99996 2.4869Z" fill="#18202A"/>
<path d="M10.8333 1.33325C11.1094 1.33325 11.3333 1.55711 11.3333 1.83325V2.348C12.4957 2.59535 13.8372 3.83389 13.8372 4.66659C13.8372 4.98605 13.423 4.8395 12.8799 4.64732C12.3994 4.47734 11.8181 4.27166 11.3333 4.32122V7.99992C11.3333 9.10449 10.4379 9.99992 9.33329 9.99992C8.22872 9.99992 7.33329 9.10449 7.33329 7.99992C7.33329 6.89535 8.22872 5.99992 9.33329 5.99992C9.69758 5.99992 10.0391 6.09731 10.3333 6.26748V1.83325C10.3333 1.55711 10.5572 1.33325 10.8333 1.33325Z" fill="#18202A"/>
</svg>
