<svg width="16" height="16" viewBox="0 0 16 16" fill="none" xmlns="http://www.w3.org/2000/svg">
<g clip-path="url(#clip0_3875_8969)">
<g clip-path="url(#clip1_3875_8969)">
<path fill-rule="evenodd" clip-rule="evenodd" d="M7.33337 0.666992C6.2288 0.666992 5.33337 1.56242 5.33337 2.66699V3.33366H2.00004C1.63185 3.33366 1.33337 3.63214 1.33337 4.00033C1.33337 4.36852 1.63185 4.66699 2.00004 4.66699H2.66671V11.3337C2.66671 13.5428 4.45757 15.3337 6.66671 15.3337H8.8365C8.30925 14.5778 8.00004 13.6585 8.00004 12.667C8.00004 11.7872 8.24349 10.9643 8.66671 10.2619V7.33366C8.66671 6.96547 8.96518 6.66699 9.33337 6.66699C9.70156 6.66699 10 6.96547 10 7.33366V8.83678C10.7559 8.30954 11.6752 8.00033 12.6667 8.00033C12.8931 8.00033 13.1156 8.01644 13.3334 8.04758V4.66699H14C14.3682 4.66699 14.6667 4.36852 14.6667 4.00033C14.6667 3.63214 14.3682 3.33366 14 3.33366H10.6667V2.66699C10.6667 1.56242 9.77128 0.666992 8.66671 0.666992H7.33337ZM9.33337 2.66699C9.33337 2.2988 9.0349 2.00033 8.66671 2.00033H7.33337C6.96518 2.00033 6.66671 2.2988 6.66671 2.66699V3.33366H9.33337V2.66699ZM7.33337 7.33366C7.33337 6.96547 7.0349 6.66699 6.66671 6.66699C6.29852 6.66699 6.00004 6.96547 6.00004 7.33366V11.3337C6.00004 11.7018 6.29852 12.0003 6.66671 12.0003C7.0349 12.0003 7.33337 11.7018 7.33337 11.3337V7.33366Z" fill="#18202A"/>
<path fill-rule="evenodd" clip-rule="evenodd" d="M12.6667 16.0003C14.5077 16.0003 16 14.5079 16 12.667C16 10.826 14.5077 9.33366 12.6667 9.33366C10.8258 9.33366 9.33337 10.826 9.33337 12.667C9.33337 14.5079 10.8258 16.0003 12.6667 16.0003ZM13.3334 11.0003C13.3334 10.6321 13.0349 10.3337 12.6667 10.3337C12.2985 10.3337 12 10.6321 12 11.0003V12.667C12 12.8438 12.0703 13.0134 12.1953 13.1384L13.1953 14.1384C13.4557 14.3987 13.8778 14.3987 14.1381 14.1384C14.3985 13.878 14.3985 13.4559 14.1381 13.1956L13.3334 12.3908V11.0003Z" fill="#18202A"/>
</g>
</g>
<defs>
<clipPath id="clip0_3875_8969">
<rect width="16" height="16" fill="white"/>
</clipPath>
<clipPath id="clip1_3875_8969">
<rect width="16" height="16" fill="white"/>
</clipPath>
</defs>
</svg>
