<svg width="16" height="16" viewBox="0 0 16 16" fill="none" xmlns="http://www.w3.org/2000/svg">
<g clip-path="url(#clip0_3916_8799)">
<path d="M11.1868 8.87374C11.2806 8.77997 11.3333 8.65279 11.3333 8.52018C11.3333 8.38757 11.2806 8.2604 11.1868 8.16663L9.35351 6.3333C9.15825 6.13803 8.84167 6.13803 8.6464 6.3333C8.45114 6.52856 8.45114 6.84514 8.6464 7.0404L9.60589 7.99989L5.16663 7.99989C4.89048 7.99989 4.66663 8.22374 4.66663 8.49989C4.66663 8.77603 4.89048 8.99989 5.16663 8.99989L9.64648 8.99989L8.6464 9.99996C8.45114 10.1952 8.45114 10.5118 8.6464 10.7071C8.84167 10.9023 9.15825 10.9023 9.35351 10.7071L11.1868 8.87374Z" fill="#18202A"/>
<path fill-rule="evenodd" clip-rule="evenodd" d="M3.33329 2C1.86053 2 0.666626 3.19391 0.666626 4.66667V11.3333C0.666626 12.8061 1.86053 14 3.33329 14H12.6666C14.1394 14 15.3333 12.8061 15.3333 11.3333V6C15.3333 4.52724 14.1394 3.33333 12.6666 3.33333H7.99996L7.25241 2.58579C6.87734 2.21071 6.36863 2 5.8382 2H3.33329ZM7.58575 4.33333L6.54531 3.29289C6.35777 3.10536 6.10342 3 5.8382 3H3.33329C2.41282 3 1.66663 3.74619 1.66663 4.66667V11.3333C1.66663 12.2538 2.41282 13 3.33329 13H12.6666C13.5871 13 14.3333 12.2538 14.3333 11.3333V6C14.3333 5.07953 13.5871 4.33333 12.6666 4.33333H7.58575Z" fill="#18202A"/>
</g>
<defs>
<clipPath id="clip0_3916_8799">
<rect width="16" height="16" fill="white"/>
</clipPath>
</defs>
</svg>
