<svg width="16" height="16" viewBox="0 0 16 16" fill="none" xmlns="http://www.w3.org/2000/svg">
<g clip-path="url(#clip0_2266_39098)">
<path fill-rule="evenodd" clip-rule="evenodd" d="M2.66666 3.37792L0.813995 1.52526C0.617544 1.32881 0.617544 1.01029 0.813995 0.813843C1.01045 0.617391 1.32896 0.617391 1.52541 0.813843L15.186 14.4744C15.3824 14.6709 15.3824 14.9894 15.186 15.1858C14.9895 15.3823 14.671 15.3823 14.4746 15.1858L13.3333 14.0446V14.6665C13.3333 15.2159 12.7061 15.5295 12.2667 15.1998L8.79999 12.5998C8.32592 12.2443 7.67406 12.2443 7.19999 12.5998L3.73332 15.1998C3.29383 15.5295 2.66666 15.2159 2.66666 14.6665V3.37792ZM12.3333 13.0446V13.9998L9.39999 11.7998C8.57036 11.1776 7.42962 11.1776 6.59999 11.7998L3.66666 13.9998V4.99984H4.28858L12.3333 13.0446ZM12.3333 3.99984H6.12466L7.12466 4.99984H12.3333V10.2085L13.3333 11.2085V3.33317C13.3333 1.86041 12.1394 0.666504 10.6667 0.666504H5.33332C4.62866 0.666504 3.98783 0.939826 3.51107 1.38624L4.21879 2.09396C4.51406 1.82822 4.90481 1.6665 5.33332 1.6665H10.6667C11.5871 1.6665 12.3333 2.4127 12.3333 3.33317V3.99984Z" fill="#18202A"/>
</g>
<defs>
<clipPath id="clip0_2266_39098">
<rect width="16" height="16" fill="white"/>
</clipPath>
</defs>
</svg>
