<svg width="16" height="16" viewBox="0 0 16 16" fill="none" xmlns="http://www.w3.org/2000/svg">
<path fill-rule="evenodd" clip-rule="evenodd" d="M10.6817 4.30799C10.8798 4.5004 10.8844 4.81695 10.692 5.01502L4.21578 11.6817C4.11919 11.7811 3.98566 11.836 3.84708 11.8332C3.70849 11.8304 3.57728 11.7702 3.48477 11.667L1.29429 9.22253C1.11001 9.01688 1.12733 8.70077 1.33298 8.51648C1.53863 8.33219 1.85474 8.34952 2.03903 8.55517L3.87189 10.6005L9.97469 4.31823C10.1671 4.12016 10.4836 4.11557 10.6817 4.30799Z" fill="#18202A"/>
<path fill-rule="evenodd" clip-rule="evenodd" d="M14.6817 4.30799C14.8798 4.5004 14.8844 4.81695 14.692 5.01502L8.21578 11.6817C8.11674 11.7836 7.97899 11.8386 7.83696 11.8329C7.69494 11.8272 7.56207 11.7612 7.47157 11.6516L6.76 10.7898C6.58418 10.5768 6.61428 10.2617 6.82722 10.0859C7.04016 9.91007 7.35531 9.94017 7.53113 10.1531L7.88737 10.5846L13.9747 4.31823C14.1671 4.12016 14.4837 4.11557 14.6817 4.30799Z" fill="#18202A"/>
</svg>
