<svg width="16" height="16" viewBox="0 0 16 16" fill="none" xmlns="http://www.w3.org/2000/svg">
<path d="M6.00004 1.3335C6.36823 1.3335 6.66671 1.63197 6.66671 2.00016V4.66683C6.66671 5.7714 5.77128 6.66683 4.66671 6.66683H2.00004C1.63185 6.66683 1.33337 6.36835 1.33337 6.00016C1.33337 5.63197 1.63185 5.3335 2.00004 5.3335H4.66671C5.0349 5.3335 5.33337 5.03502 5.33337 4.66683V2.00016C5.33337 1.63197 5.63185 1.3335 6.00004 1.3335Z" fill="#18202A"/>
<path d="M1.33337 10.0002C1.33337 9.63197 1.63185 9.33349 2.00004 9.33349H4.66671C5.77128 9.33349 6.66671 10.2289 6.66671 11.3335V14.0002C6.66671 14.3684 6.36823 14.6668 6.00004 14.6668C5.63185 14.6668 5.33337 14.3684 5.33337 14.0002V11.3335C5.33337 10.9653 5.0349 10.6668 4.66671 10.6668H2.00004C1.63185 10.6668 1.33337 10.3684 1.33337 10.0002Z" fill="#18202A"/>
<path d="M14.6667 6.00016C14.6667 6.36835 14.3682 6.66683 14 6.66683H11.3334C10.2288 6.66683 9.33337 5.7714 9.33337 4.66683V2.00016C9.33337 1.63197 9.63185 1.3335 10 1.3335C10.3682 1.3335 10.6667 1.63197 10.6667 2.00016V4.66683C10.6667 5.03502 10.9652 5.3335 11.3334 5.3335H14C14.3682 5.3335 14.6667 5.63197 14.6667 6.00016Z" fill="#18202A"/>
<path d="M10 14.6668C9.63185 14.6668 9.33338 14.3684 9.33338 14.0002V11.2309C9.33338 10.183 10.1829 9.3335 11.2308 9.3335H14C14.3682 9.3335 14.6667 9.63197 14.6667 10.0002C14.6667 10.3684 14.3682 10.6668 14 10.6668H11.2308C10.9193 10.6668 10.6667 10.9194 10.6667 11.2309V14.0002C10.6667 14.3684 10.3682 14.6668 10 14.6668Z" fill="#18202A"/>
</svg>
