<svg width="16" height="16" viewBox="0 0 16 16" fill="none" xmlns="http://www.w3.org/2000/svg">
<g clip-path="url(#clip0_3379_9214)">
<g clip-path="url(#clip1_3379_9214)">
<path d="M5.33329 0.666504C4.59691 0.666504 3.99996 1.26346 3.99996 1.99984V3.33317C3.99996 3.97085 4.2984 4.53883 4.76322 4.90505C5.34164 5.36078 5.99996 5.93012 5.99996 6.6665V7.99984C5.99996 8.73622 5.40301 9.33317 4.66663 9.33317H3.52377C1.94581 9.33317 0.666626 10.6124 0.666626 12.1903C0.666626 12.8215 1.1783 13.3332 1.80948 13.3332H14.1904C14.8216 13.3332 15.3333 12.8215 15.3333 12.1903C15.3333 10.6124 14.0541 9.33317 12.4762 9.33317H11.3333C10.5969 9.33317 9.99996 8.73622 9.99996 7.99984V6.6665C9.99996 5.93012 10.6583 5.36078 11.2367 4.90505C11.7015 4.53883 12 3.97085 12 3.33317V1.99984C12 1.26346 11.403 0.666504 10.6666 0.666504H5.33329Z" fill="#18202A"/>
<path d="M1.33329 14.6665C1.33329 14.2983 1.63177 13.9998 1.99996 13.9998H14C14.3681 13.9998 14.6666 14.2983 14.6666 14.6665C14.6666 15.0347 14.3681 15.3332 14 15.3332H1.99996C1.63177 15.3332 1.33329 15.0347 1.33329 14.6665Z" fill="#18202A"/>
</g>
</g>
<defs>
<clipPath id="clip0_3379_9214">
<rect width="16" height="16" fill="white"/>
</clipPath>
<clipPath id="clip1_3379_9214">
<rect width="16" height="16" fill="white"/>
</clipPath>
</defs>
</svg>
