<svg width="16" height="16" viewBox="0 0 16 16" fill="none" xmlns="http://www.w3.org/2000/svg">
<path d="M2.66667 2C1.5621 2 0.666667 2.89543 0.666667 4V4.6571C0.668361 4.53178 0.705365 4.40552 0.780698 4.29386C0.986628 3.98865 1.40099 3.90816 1.70621 4.11409L7.04952 7.71924C7.31355 7.89742 7.64777 8.00007 8.00001 8.00007C8.35224 8.00007 8.68642 7.89744 8.95046 7.71927L14.2938 4.11409C14.599 3.90816 15.0134 3.98865 15.2193 4.29386C15.2945 4.40525 15.3315 4.53117 15.3333 4.6562V4C15.3333 2.89543 14.4379 2 13.3333 2H2.66667Z" fill="#18202A"/>
<path d="M15.3333 4.67606C15.3302 4.88676 15.2275 5.09258 15.0395 5.21938L9.69628 8.8245C9.2015 9.15837 8.60513 9.3334 8.00001 9.3334C7.39488 9.3334 6.79856 9.1584 6.30378 8.82453L0.96047 5.21938C0.772274 5.0924 0.669519 4.88618 0.666667 4.67516V12C0.666667 13.1046 1.5621 14 2.66667 14H13.3333C14.4379 14 15.3333 13.1046 15.3333 12V4.67606Z" fill="#18202A"/>
<path fill-rule="evenodd" clip-rule="evenodd" d="M13.3333 3.33333H2.66667C2.29848 3.33333 2 3.63181 2 4V12C2 12.3682 2.29848 12.6667 2.66667 12.6667H13.3333C13.7015 12.6667 14 12.3682 14 12V4C14 3.63181 13.7015 3.33333 13.3333 3.33333ZM2.66667 2C1.5621 2 0.666667 2.89543 0.666667 4V12C0.666667 13.1046 1.5621 14 2.66667 14H13.3333C14.4379 14 15.3333 13.1046 15.3333 12V4C15.3333 2.89543 14.4379 2 13.3333 2H2.66667Z" fill="#18202A"/>
</svg>
