<svg width="16" height="16" viewBox="0 0 16 16" fill="none" xmlns="http://www.w3.org/2000/svg">
<path fill-rule="evenodd" clip-rule="evenodd" d="M11.0326 13.1676C11.0326 12.8915 10.8087 12.6676 10.5326 12.6676H1.86593C1.58978 12.6676 1.36593 12.8915 1.36593 13.1676C1.36593 13.4438 1.58978 13.6676 1.86593 13.6676H10.5326C10.8087 13.6676 11.0326 13.4438 11.0326 13.1676Z" fill="#18202A"/>
<path fill-rule="evenodd" clip-rule="evenodd" d="M11.0326 2.50098C11.0326 2.22483 10.8087 2.00098 10.5326 2.00098H1.86593C1.58979 2.00098 1.36593 2.22483 1.36593 2.50098C1.36593 2.77712 1.58979 3.00098 1.86593 3.00098H10.5326C10.8087 3.00098 11.0326 2.77712 11.0326 2.50098Z" fill="#18202A"/>
<path d="M11.8131 6.18656C11.6178 5.9913 11.6178 5.67472 11.8131 5.47945C12.0083 5.28419 12.3249 5.28419 12.5202 5.47945L14.5202 7.47945C14.6236 7.58292 14.6723 7.72046 14.6661 7.85595C14.6606 8.01314 14.5832 8.15203 14.4659 8.24086L12.5202 10.1866C12.3249 10.3818 12.0083 10.3818 11.8131 10.1866C11.6178 9.9913 11.6178 9.67472 11.8131 9.47945L12.9501 8.34247L1.83796 8.33793C1.55901 8.33782 1.33297 8.1116 1.33309 7.83265C1.3332 7.5537 1.55943 7.32766 1.83838 7.32777L12.9588 7.33231L11.8131 6.18656Z" fill="#18202A"/>
</svg>
