<svg width="16" height="16" viewBox="0 0 16 16" fill="none" xmlns="http://www.w3.org/2000/svg">
<g clip-path="url(#clip0_2266_35939)">
<path fill-rule="evenodd" clip-rule="evenodd" d="M3.80474 5.52868C4.06509 5.78903 4.06509 6.21114 3.80474 6.47149L2.27614 8.00008L3.80474 9.52868C4.06509 9.78903 4.06509 10.2111 3.80474 10.4715C3.54439 10.7318 3.12228 10.7318 2.86193 10.4715L0.861929 8.47149C0.601579 8.21114 0.601579 7.78903 0.861929 7.52868L2.86193 5.52868C3.12228 5.26833 3.54439 5.26833 3.80474 5.52868Z" fill="#18202A"/>
<path fill-rule="evenodd" clip-rule="evenodd" d="M7.5286 0.86201C7.78895 0.601661 8.21106 0.601661 8.47141 0.86201L10.4714 2.86201C10.7318 3.12236 10.7318 3.54447 10.4714 3.80482C10.2111 4.06517 9.78894 4.06517 9.5286 3.80482L8 2.27622L6.4714 3.80482C6.21105 4.06517 5.78895 4.06517 5.5286 3.80482C5.26825 3.54447 5.26825 3.12236 5.5286 2.86201L7.5286 0.86201Z" fill="#18202A"/>
<path fill-rule="evenodd" clip-rule="evenodd" d="M5.5286 12.1953C5.78895 11.935 6.21105 11.935 6.4714 12.1953L8 13.7239L9.5286 12.1953C9.78894 11.935 10.2111 11.935 10.4714 12.1953C10.7318 12.4557 10.7318 12.8778 10.4714 13.1382L8.47141 15.1382C8.21106 15.3985 7.78895 15.3985 7.5286 15.1382L5.5286 13.1382C5.26825 12.8778 5.26825 12.4557 5.5286 12.1953Z" fill="#18202A"/>
<path fill-rule="evenodd" clip-rule="evenodd" d="M12.1953 5.52868C12.4556 5.26833 12.8777 5.26833 13.1381 5.52868L15.1381 7.52868C15.3984 7.78903 15.3984 8.21114 15.1381 8.47149L13.1381 10.4715C12.8777 10.7318 12.4556 10.7318 12.1953 10.4715C11.9349 10.2111 11.9349 9.78903 12.1953 9.52868L13.7239 8.00008L12.1953 6.47149C11.9349 6.21114 11.9349 5.78903 12.1953 5.52868Z" fill="#18202A"/>
<path fill-rule="evenodd" clip-rule="evenodd" d="M0.666667 8.00008C0.666667 7.63189 0.965143 7.33342 1.33333 7.33342H14.6667C15.0349 7.33342 15.3333 7.63189 15.3333 8.00008C15.3333 8.36827 15.0349 8.66675 14.6667 8.66675H1.33333C0.965143 8.66675 0.666667 8.36827 0.666667 8.00008Z" fill="#18202A"/>
<path fill-rule="evenodd" clip-rule="evenodd" d="M8 0.666748C8.36819 0.666748 8.66667 0.965225 8.66667 1.33341V14.6667C8.66667 15.0349 8.36819 15.3334 8 15.3334C7.63181 15.3334 7.33333 15.0349 7.33333 14.6667V1.33341C7.33333 0.965225 7.63181 0.666748 8 0.666748Z" fill="#18202A"/>
</g>
<defs>
<clipPath id="clip0_2266_35939">
<rect width="16" height="16" fill="white"/>
</clipPath>
</defs>
</svg>
