<svg width="16" height="16" viewBox="0 0 16 16" fill="none" xmlns="http://www.w3.org/2000/svg">
<path fill-rule="evenodd" clip-rule="evenodd" d="M13.3991 3.66699C13.0533 4.26479 12.4069 4.66699 11.6667 4.66699C10.9264 4.66699 10.28 4.26479 9.93423 3.66699H2C1.44772 3.66699 1 4.11471 1 4.66699V11.3337C1 11.8859 1.44772 12.3337 2 12.3337H9.93423C10.28 11.7359 10.9264 11.3337 11.6667 11.3337C12.4069 11.3337 13.0533 11.7359 13.3991 12.3337H14C14.5523 12.3337 15 11.8859 15 11.3337V4.66699C15 4.11471 14.5523 3.66699 14 3.66699H13.3991ZM12.6667 13.3337C12.6667 12.7814 12.219 12.3337 11.6667 12.3337C11.1144 12.3337 10.6667 12.7814 10.6667 13.3337H2C0.89543 13.3337 0 12.4382 0 11.3337V4.66699C0 3.56242 0.895431 2.66699 2 2.66699H10.6667C10.6667 3.21928 11.1144 3.66699 11.6667 3.66699C12.219 3.66699 12.6667 3.21928 12.6667 2.66699H14C15.1046 2.66699 16 3.56242 16 4.66699V11.3337C16 12.4382 15.1046 13.3337 14 13.3337H12.6667ZM2 5.83366C2 5.55752 2.22386 5.33366 2.5 5.33366H8.5C8.77614 5.33366 9 5.55752 9 5.83366C9 6.1098 8.77614 6.33366 8.5 6.33366H2.5C2.22386 6.33366 2 6.1098 2 5.83366ZM2.5 7.33366C2.22386 7.33366 2 7.55752 2 7.83366C2 8.1098 2.22386 8.33366 2.5 8.33366H8.5C8.77614 8.33366 9 8.1098 9 7.83366C9 7.55752 8.77614 7.33366 8.5 7.33366H2.5ZM2 9.83366C2 9.55752 2.22386 9.33366 2.5 9.33366H4.16667C4.44281 9.33366 4.66667 9.55752 4.66667 9.83366C4.66667 10.1098 4.44281 10.3337 4.16667 10.3337H2.5C2.22386 10.3337 2 10.1098 2 9.83366ZM12 6.00033H11.3333V10.0003H12V6.00033Z" fill="#18202A"/>
</svg>
