<svg width="16" height="16" viewBox="0 0 16 16" fill="none" xmlns="http://www.w3.org/2000/svg">
<g clip-path="url(#clip0_2266_39812)">
<path d="M0.666656 1.1665C0.666656 0.890362 0.890514 0.666504 1.16666 0.666504C1.4428 0.666504 1.66666 0.890362 1.66666 1.1665V14.8332C1.66666 15.1093 1.4428 15.3332 1.16666 15.3332C0.890514 15.3332 0.666656 15.1093 0.666656 14.8332V1.1665Z" fill="#18202A"/>
<path fill-rule="evenodd" clip-rule="evenodd" d="M7.99999 2.99984H1.66666V9.6665H8.66666C8.85075 9.6665 8.99999 9.51727 8.99999 9.33317V3.99984C8.99999 3.44755 8.55227 2.99984 7.99999 2.99984ZM0.666656 1.99984V10.6665H8.66666C9.40304 10.6665 9.99999 10.0696 9.99999 9.33317V3.99984C9.99999 2.89527 9.10456 1.99984 7.99999 1.99984H0.666656Z" fill="#18202A"/>
<path fill-rule="evenodd" clip-rule="evenodd" d="M5.33332 10.6665V11.9998C5.33332 12.7362 5.93028 13.3332 6.66666 13.3332H14.7045C15.2468 13.3332 15.5622 12.7203 15.247 12.279L12.9434 9.054C12.7779 8.8222 12.7779 8.51081 12.9434 8.27901L15.247 5.054C15.5622 4.61275 15.2468 3.99984 14.7045 3.99984H9.99999V4.99984H14.0568L12.1297 7.69777C11.7158 8.27727 11.7158 9.05574 12.1297 9.63523L14.0568 12.3332H6.66666C6.48256 12.3332 6.33332 12.1839 6.33332 11.9998V10.6665H5.33332Z" fill="#18202A"/>
<path fill-rule="evenodd" clip-rule="evenodd" d="M8.75902 9.91406C8.97216 9.68154 9.01927 9.51852 9.00385 9.39519L9.99613 9.27115C10.064 9.81449 9.79865 10.2598 9.49617 10.5898C9.19348 10.92 8.78862 11.207 8.42207 11.4499C8.30215 11.5294 8.18757 11.6035 8.07882 11.6738C7.83362 11.8324 7.61807 11.9718 7.43787 12.1106C7.31144 12.2079 7.23158 12.2838 7.18676 12.3403C7.16846 12.3633 7.16137 12.3763 7.15953 12.3801C7.16125 12.3758 7.16666 12.3597 7.16666 12.3332H6.16666C6.16666 12.074 6.28727 11.8649 6.40372 11.7183C6.5223 11.569 6.67552 11.4355 6.82773 11.3183C7.0423 11.153 7.31351 10.9776 7.57526 10.8083C7.67602 10.7431 7.77538 10.6788 7.86957 10.6164C8.23219 10.3761 8.54608 10.1464 8.75902 9.91406ZM7.15901 12.3812C7.15899 12.3812 7.15915 12.3808 7.15953 12.3801L7.15901 12.3812Z" fill="#18202A"/>
</g>
<defs>
<clipPath id="clip0_2266_39812">
<rect width="16" height="16" fill="white"/>
</clipPath>
</defs>
</svg>
