<svg width="16" height="16" viewBox="0 0 16 16" fill="none" xmlns="http://www.w3.org/2000/svg">
<path d="M2.66671 3.33341C2.66671 2.96522 2.36823 2.66675 2.00004 2.66675C1.63185 2.66675 1.33337 2.96522 1.33337 3.33341V12.6667C1.33337 13.0349 1.63185 13.3334 2.00004 13.3334C2.36823 13.3334 2.66671 13.0349 2.66671 12.6667V8.66675L8.00004 8.66675V12.6667C8.00004 13.0349 8.29852 13.3334 8.66671 13.3334C9.0349 13.3334 9.33337 13.0349 9.33337 12.6667V3.33341C9.33337 2.96522 9.0349 2.66675 8.66671 2.66675C8.29852 2.66675 8.00004 2.96522 8.00004 3.33341V7.33341L2.66671 7.33342V3.33341Z" fill="#18202A"/>
<path d="M12 8.66675C12 8.46098 12.2681 8.00008 13 8.00008C13.6792 8.00008 14 8.41394 14 8.83342C14 8.99296 13.977 9.17421 13.8483 9.41732C13.7123 9.67424 13.4435 10.0271 12.9029 10.491L10.9066 12.1546C10.691 12.3343 10.611 12.6298 10.7065 12.8937C10.8021 13.1576 11.0527 13.3334 11.3334 13.3334H14.6667C15.0349 13.3334 15.3334 13.0349 15.3334 12.6667C15.3334 12.2986 15.0349 12.0001 14.6667 12.0001H13.1747L13.7602 11.5123L13.7672 11.5063C14.391 10.9716 14.788 10.492 15.0267 10.0412C15.273 9.57595 15.3334 9.17387 15.3334 8.83342C15.3334 7.58623 14.3208 6.66675 13 6.66675C11.732 6.66675 10.6667 7.53918 10.6667 8.66675C10.6667 9.03494 10.9652 9.33342 11.3334 9.33342C11.7016 9.33342 12 9.03494 12 8.66675Z" fill="#18202A"/>
</svg>
