<svg width="16" height="16" viewBox="0 0 16 16" fill="none" xmlns="http://www.w3.org/2000/svg">
<path fill-rule="evenodd" clip-rule="evenodd" d="M6.07976 5.66675H9.92016L7.99996 3.7742L6.07976 5.66675ZM6.07976 10.3334L7.99996 12.226L9.92016 10.3334H6.07976ZM5.39465 6.66675C4.74735 6.66675 4.42318 5.8954 4.88089 5.44428L7.4862 2.87649C7.76994 2.59683 8.22998 2.59683 8.51372 2.87649L11.119 5.44428C11.5767 5.8954 11.2526 6.66675 10.6053 6.66675H5.39465ZM5.39465 9.33342C4.74735 9.33342 4.42318 10.1048 4.88089 10.5559L7.4862 13.1237C7.76994 13.4033 8.22998 13.4033 8.51372 13.1237L11.119 10.5559C11.5767 10.1048 11.2526 9.33342 10.6053 9.33342H5.39465Z" fill="#18202A"/>
</svg>
