<svg width="16" height="16" viewBox="0 0 16 16" fill="none" xmlns="http://www.w3.org/2000/svg">
<path fill-rule="evenodd" clip-rule="evenodd" d="M10.3535 4.18656C10.1583 4.38182 9.8417 4.38182 9.64644 4.18656L7.99999 2.54011L6.35354 4.18656C6.15828 4.38182 5.8417 4.38182 5.64644 4.18656C5.45117 3.9913 5.45117 3.67472 5.64644 3.47945L7.64644 1.47945C7.8417 1.28419 8.15828 1.28419 8.35354 1.47945L10.3535 3.47945C10.5488 3.67472 10.5488 3.9913 10.3535 4.18656ZM1.16666 5.99967C0.890514 5.99967 0.666656 6.22353 0.666656 6.49967C0.666656 6.77582 0.890515 6.99967 1.16666 6.99967H14.8333C15.1095 6.99967 15.3333 6.77582 15.3333 6.49967C15.3333 6.22353 15.1095 5.99967 14.8333 5.99967H1.16666ZM1.16666 8.99967C0.890514 8.99967 0.666656 9.22353 0.666656 9.49967C0.666656 9.77582 0.890515 9.99967 1.16666 9.99967H14.8333C15.1095 9.99967 15.3333 9.77582 15.3333 9.49967C15.3333 9.22353 15.1095 8.99967 14.8333 8.99967H1.16666ZM10.3535 12.5199C10.5488 12.3246 10.5488 12.0081 10.3535 11.8128C10.1583 11.6175 9.8417 11.6175 9.64644 11.8128L7.99999 13.4592L6.35354 11.8128C6.15828 11.6175 5.8417 11.6175 5.64644 11.8128C5.45117 12.008 5.45117 12.3246 5.64644 12.5199L7.64644 14.5199C7.8417 14.7152 8.15828 14.7152 8.35354 14.5199L10.3535 12.5199Z" fill="#18202A"/>
</svg>
