<svg width="16" height="16" viewBox="0 0 16 16" fill="none" xmlns="http://www.w3.org/2000/svg">
<g clip-path="url(#clip0_2266_37607)">
<path fill-rule="evenodd" clip-rule="evenodd" d="M8 16C12.4183 16 16 12.4183 16 8C16 3.58172 12.4183 0 8 0C3.58172 0 0 3.58172 0 8C0 12.4183 3.58172 16 8 16ZM8 8C8.88889 8 9.33333 7.16667 9.33333 6.125C9.33333 5.29167 8.88889 4.66667 8 4.66667C7.11111 4.66667 6.66667 5.29167 6.66667 6.125C6.66667 7.16667 7.11111 8 8 8ZM4.33333 8C5 8 5.33333 7.33333 5.33333 6.5C5.33333 5.83333 5 5.33333 4.33333 5.33333C3.66667 5.33333 3.33333 5.83333 3.33333 6.5C3.33333 7.33333 3.66667 8 4.33333 8ZM11.6667 8C12.3333 8 12.6667 7.33333 12.6667 6.5C12.6667 5.83333 12.3333 5.33333 11.6667 5.33333C11 5.33333 10.6667 5.83333 10.6667 6.5C10.6667 7.33333 11 8 11.6667 8ZM5.40853 8.81179C5.4591 8.7767 5.51041 8.7426 5.56242 8.70952C5.34715 8.67281 5.12554 8.65365 4.89925 8.65365C4.27276 8.65365 3.68211 8.80051 3.16286 9.06021C2.72208 9.28066 2.53672 9.7973 2.68386 10.2677C2.71243 10.359 2.74285 10.4496 2.77508 10.5393C2.91542 10.9303 3.26414 11.2061 3.67556 11.2632C4.02447 11.3117 4.3803 11.3397 4.74167 11.346C4.71889 11.2829 4.6969 11.2194 4.67569 11.1555C4.40356 10.3354 4.62638 9.35455 5.40853 8.81179ZM11.3245 11.1554C11.3036 11.2186 11.2818 11.2814 11.2593 11.3438C11.6301 11.3333 11.9948 11.3 12.352 11.2452C12.7582 11.1829 13.1004 10.9074 13.2382 10.5201C13.2616 10.4543 13.284 10.388 13.3055 10.3213C13.4536 9.86113 13.283 9.35238 12.8584 9.12128C12.3117 8.82364 11.6791 8.65365 11.0051 8.65365C10.8055 8.65365 10.6095 8.66855 10.4184 8.69726C10.477 8.73416 10.5348 8.77236 10.5917 8.81181C11.3738 9.35456 11.5966 10.3354 11.3245 11.1554ZM10.3942 11.697C10.1783 12.1635 9.7426 12.4897 9.23501 12.5712C8.8327 12.6359 8.42024 12.6694 8.00008 12.6694C7.57994 12.6694 7.1675 12.6359 6.7652 12.5713C6.25763 12.4897 5.82197 12.1635 5.60598 11.697C5.49334 11.4538 5.39384 11.2029 5.30842 10.9455C5.11519 10.3632 5.28455 9.70927 5.78859 9.3595C6.41867 8.92227 7.18006 8.66667 8.00008 8.66667C8.82012 8.66667 9.58151 8.92228 10.2116 9.35952C10.7156 9.70928 10.885 10.3632 10.6918 10.9455C10.6064 11.2029 10.5069 11.4537 10.3942 11.697Z" fill="#18202A"/>
</g>
<defs>
<clipPath id="clip0_2266_37607">
<rect width="16" height="16" fill="white"/>
</clipPath>
</defs>
</svg>
