<svg width="16" height="16" viewBox="0 0 16 16" fill="none" xmlns="http://www.w3.org/2000/svg">
<g clip-path="url(#clip0_3379_9175)">
<g clip-path="url(#clip1_3379_9175)">
<path fill-rule="evenodd" clip-rule="evenodd" d="M3.99996 1.99984C3.99996 1.26346 4.59691 0.666504 5.33329 0.666504H10.6666C11.403 0.666504 12 1.26346 12 1.99984V3.33317C12 3.97085 11.7015 4.53883 11.2367 4.90505C10.6583 5.36078 9.99996 5.93012 9.99996 6.6665V7.99984C9.99996 8.73622 10.5969 9.33317 11.3333 9.33317H12.4762C14.0541 9.33317 15.3333 10.6124 15.3333 12.1903C15.3333 12.8215 14.8216 13.3332 14.1904 13.3332H1.80948C1.1783 13.3332 0.666626 12.8215 0.666626 12.1903C0.666626 10.6124 1.94581 9.33317 3.52377 9.33317H4.66663C5.40301 9.33317 5.99996 8.73622 5.99996 7.99984V6.6665C5.99996 5.93012 5.34164 5.36078 4.76322 4.90505C4.2984 4.53883 3.99996 3.97085 3.99996 3.33317V1.99984ZM5.33329 1.6665C5.1492 1.6665 4.99996 1.81574 4.99996 1.99984V3.33317C4.99996 3.65151 5.14758 3.93479 5.38209 4.11956C5.67353 4.34917 6.06116 4.66441 6.3744 5.04968C6.69204 5.44036 6.99996 5.98403 6.99996 6.6665V7.99984C6.99996 9.2885 5.95529 10.3332 4.66663 10.3332H3.52377C2.4981 10.3332 1.66663 11.1646 1.66663 12.1903C1.66663 12.2692 1.73058 12.3332 1.80948 12.3332H14.1904C14.2693 12.3332 14.3333 12.2692 14.3333 12.1903C14.3333 11.1646 13.5018 10.3332 12.4762 10.3332H11.3333C10.0446 10.3332 8.99996 9.2885 8.99996 7.99984V6.6665C8.99996 5.98403 9.30788 5.44036 9.62551 5.04968C9.93876 4.66441 10.3264 4.34917 10.6178 4.11956C10.8523 3.93479 11 3.65151 11 3.33317V1.99984C11 1.81574 10.8507 1.6665 10.6666 1.6665H5.33329Z" fill="#18202A"/>
<path d="M1.33329 14.6665C1.33329 14.2983 1.63177 13.9998 1.99996 13.9998H14C14.3681 13.9998 14.6666 14.2983 14.6666 14.6665C14.6666 15.0347 14.3681 15.3332 14 15.3332H1.99996C1.63177 15.3332 1.33329 15.0347 1.33329 14.6665Z" fill="#18202A"/>
</g>
</g>
<defs>
<clipPath id="clip0_3379_9175">
<rect width="16" height="16" fill="white"/>
</clipPath>
<clipPath id="clip1_3379_9175">
<rect width="16" height="16" fill="white"/>
</clipPath>
</defs>
</svg>
