<svg width="16" height="16" viewBox="0 0 16 16" fill="none" xmlns="http://www.w3.org/2000/svg">
<path fill-rule="evenodd" clip-rule="evenodd" d="M13.3333 3H2.66666C2.11437 3 1.66666 3.44772 1.66666 4V12C1.66666 12.5523 2.11437 13 2.66666 13H13.3333C13.8856 13 14.3333 12.5523 14.3333 12V4C14.3333 3.44772 13.8856 3 13.3333 3ZM2.66666 2C1.56209 2 0.666656 2.89543 0.666656 4V12C0.666656 13.1046 1.56209 14 2.66666 14H13.3333C14.4379 14 15.3333 13.1046 15.3333 12V4C15.3333 2.89543 14.4379 2 13.3333 2H2.66666Z" fill="#18202A"/>
<path fill-rule="evenodd" clip-rule="evenodd" d="M15.0811 4.38701C15.2356 4.61593 15.1752 4.9267 14.9463 5.08115L9.60303 8.68628C9.13709 9.0007 8.57352 9.16667 7.99999 9.16667C7.42646 9.16667 6.86289 9.0007 6.39695 8.68628L1.05367 5.08115C0.824759 4.9267 0.764394 4.61593 0.918842 4.38701C1.07329 4.1581 1.38406 4.09774 1.61298 4.25219L6.95628 7.85734C7.24916 8.05497 7.61614 8.16667 7.99999 8.16667C8.38384 8.16667 8.75079 8.05499 9.04367 7.85736L14.387 4.25219C14.6159 4.09774 14.9267 4.1581 15.0811 4.38701Z" fill="#18202A"/>
</svg>
