<svg width="16" height="16" viewBox="0 0 16 16" fill="none" xmlns="http://www.w3.org/2000/svg">
<g clip-path="url(#clip0_2266_38321)">
<path fill-rule="evenodd" clip-rule="evenodd" d="M3.33332 1.66699H12.6667C13.5871 1.66699 14.3333 2.41318 14.3333 3.33366V8.99813C14.7554 9.31449 15.0999 9.72863 15.3333 10.2069V3.33366C15.3333 1.8609 14.1394 0.666992 12.6667 0.666992H3.33332C1.86056 0.666992 0.666656 1.8609 0.666656 3.33366V12.667C0.666656 14.1398 1.86056 15.3337 3.33332 15.3337H8.77973C8.49802 15.0792 8.3371 14.7095 8.33339 14.3337H3.33332C2.41285 14.3337 1.66666 13.5875 1.66666 12.667V3.33366C1.66666 2.41318 2.41285 1.66699 3.33332 1.66699ZM13.3333 8.48544V7.66699C13.3333 6.93061 12.7364 6.33366 12 6.33366H3.99999C3.26361 6.33366 2.66666 6.93061 2.66666 7.66699V12.0003C2.66666 12.7367 3.26361 13.3337 3.99999 13.3337H8.78668C8.81298 13.3108 8.84049 13.2886 8.86924 13.267C8.95318 13.204 9.00258 13.1052 9.00258 13.0003V12.3337H3.99999C3.8159 12.3337 3.66666 12.1844 3.66666 12.0003V7.66699C3.66666 7.4829 3.8159 7.33366 3.99999 7.33366H12C12.1841 7.33366 12.3333 7.4829 12.3333 7.66699V8.33366C12.3342 8.33366 12.3351 8.33366 12.3359 8.33366C12.6834 8.33366 13.0184 8.38682 13.3333 8.48544ZM3.99999 2.66699C3.26361 2.66699 2.66666 3.26395 2.66666 4.00033C2.66666 4.73671 3.26361 5.33366 3.99999 5.33366C4.73637 5.33366 5.33332 4.73671 5.33332 4.00033C5.33332 3.26395 4.73637 2.66699 3.99999 2.66699ZM6.66666 4.00033C6.66666 3.72418 6.89051 3.50033 7.16666 3.50033H12.5C12.7761 3.50033 13 3.72418 13 4.00033C13 4.27647 12.7761 4.50033 12.5 4.50033H7.16666C6.89051 4.50033 6.66666 4.27647 6.66666 4.00033Z" fill="#18202A"/>
<path fill-rule="evenodd" clip-rule="evenodd" d="M14.6667 11.6759L14.6667 11.6663C14.6667 10.3777 13.622 9.33301 12.3334 9.33301C11.6459 9.33301 11.0279 9.63027 10.6009 10.1033L14.7658 13.2882C14.7009 13.0898 14.6667 12.8802 14.6667 12.6663V11.6759ZM15.5485 14.385L15.3333 14.6663C15.4927 14.6663 15.5836 14.515 15.5485 14.385ZM14.0987 14.6663H9.33334C9.11978 14.6663 9.02916 14.3945 9.20001 14.2663C9.70362 13.8886 10 13.2959 10 12.6663V11.6664L10 11.6663L10 11.6663C10 11.6222 10.0013 11.5784 10.0037 11.5349L14.0987 14.6663ZM11.3334 15.6663C11.3334 15.4822 11.4826 15.333 11.6667 15.333H13C13.1841 15.333 13.3334 15.4822 13.3334 15.6663C13.3334 15.8504 13.1841 15.9997 13 15.9997H11.6667C11.4826 15.9997 11.3334 15.8504 11.3334 15.6663Z" fill="#18202A"/>
<path d="M9.66666 9.66699L15.3333 14.0003" stroke="#18202A" stroke-width="1.5" stroke-linecap="round"/>
</g>
<defs>
<clipPath id="clip0_2266_38321">
<rect width="16" height="16" fill="white"/>
</clipPath>
</defs>
</svg>
