<svg width="16" height="16" viewBox="0 0 16 16" fill="none" xmlns="http://www.w3.org/2000/svg">
<g clip-path="url(#clip0_2266_37815)">
<path fill-rule="evenodd" clip-rule="evenodd" d="M8 7.33366C9.77778 7.33366 10.6667 5.66699 10.6667 3.58366C10.6667 1.91699 9.77778 0.666992 8 0.666992C6.22222 0.666992 5.33333 1.91699 5.33333 3.58366C5.33333 5.66699 6.22222 7.33366 8 7.33366ZM8.00003 8.66699C8.6485 8.66699 9.27535 8.75958 9.86808 8.93226C8.73379 9.78358 8 11.1396 8 12.667C8 13.6465 8.30181 14.5556 8.81749 15.3063C8.54735 15.3244 8.27476 15.3337 8.00001 15.3337C6.96841 15.3337 5.96722 15.2035 5.01196 14.9587C4.19926 14.7504 3.51047 14.206 3.13324 13.4567L3.10211 13.3943C2.58063 12.3412 2.75796 11.0511 3.64778 10.2835C4.81565 9.27614 6.3367 8.66699 8.00003 8.66699ZM16 12.667C16 14.5079 14.5076 16.0003 12.6667 16.0003C10.8257 16.0003 9.33333 14.5079 9.33333 12.667C9.33333 10.826 10.8257 9.33366 12.6667 9.33366C14.5076 9.33366 16 10.826 16 12.667ZM12.6667 10.2003C12.2936 10.2003 11.9792 10.2259 11.739 10.2558C11.1817 10.3252 10.8333 10.8069 10.8333 11.3079V11.4528C10.8333 11.7641 10.957 12.0625 11.177 12.2826C11.3723 12.4779 11.6889 12.4779 11.8842 12.2826C12.0794 12.0874 12.0794 11.7708 11.8842 11.5755C11.8516 11.543 11.8333 11.4988 11.8333 11.4528L11.8333 11.3079C11.8333 11.2811 11.8424 11.2639 11.8488 11.2561C11.8519 11.2523 11.8543 11.2508 11.8553 11.2502C11.8561 11.2498 11.858 11.2488 11.8626 11.2482C12.0662 11.2228 12.3392 11.2003 12.6667 11.2003C12.9686 11.2003 13.2243 11.2195 13.422 11.2423C13.4421 11.2447 13.457 11.2528 13.4704 11.269C13.4856 11.2873 13.5 11.3187 13.5 11.3614C13.5 11.611 13.3545 11.8378 13.1275 11.9418L12.7614 12.1096C12.399 12.2756 12.1667 12.6377 12.1667 13.0363C12.1667 13.3125 12.3905 13.5363 12.6667 13.5363C12.9428 13.5363 13.1667 13.3125 13.1667 13.0363C13.1667 13.0287 13.1711 13.0218 13.178 13.0187L13.5442 12.8508C14.1266 12.5839 14.5 12.002 14.5 11.3614C14.5 10.8296 14.13 10.3176 13.5369 10.249C13.3049 10.2221 13.0107 10.2003 12.6667 10.2003ZM12.6667 15.3337C13.0349 15.3337 13.3333 15.0352 13.3333 14.667C13.3333 14.2988 13.0349 14.0003 12.6667 14.0003C12.2985 14.0003 12 14.2988 12 14.667C12 15.0352 12.2985 15.3337 12.6667 15.3337Z" fill="#18202A"/>
</g>
<defs>
<clipPath id="clip0_2266_37815">
<rect width="16" height="16" fill="white"/>
</clipPath>
</defs>
</svg>
