<svg width="16" height="16" viewBox="0 0 16 16" fill="none" xmlns="http://www.w3.org/2000/svg">
<g clip-path="url(#clip0_2266_39140)">
<path fill-rule="evenodd" clip-rule="evenodd" d="M11.0202 4.97986C11.2155 5.17512 11.2155 5.49171 11.0202 5.68697L5.68688 11.0203C5.49161 11.2156 5.17503 11.2156 4.97977 11.0203C4.78451 10.825 4.78451 10.5085 4.97977 10.3132L10.3131 4.97986C10.5084 4.7846 10.8249 4.7846 11.0202 4.97986Z" fill="#18202A"/>
<path fill-rule="evenodd" clip-rule="evenodd" d="M4.97977 4.97986C5.17503 4.7846 5.49161 4.7846 5.68688 4.97986L11.0202 10.3132C11.2155 10.5085 11.2155 10.825 11.0202 11.0203C10.8249 11.2156 10.5084 11.2156 10.3131 11.0203L4.97977 5.68697C4.78451 5.49171 4.78451 5.17512 4.97977 4.97986Z" fill="#18202A"/>
<path fill-rule="evenodd" clip-rule="evenodd" d="M7.99999 14.3334C11.4978 14.3334 14.3333 11.4979 14.3333 8.00008C14.3333 4.50228 11.4978 1.66675 7.99999 1.66675C4.50219 1.66675 1.66666 4.50228 1.66666 8.00008C1.66666 11.4979 4.50219 14.3334 7.99999 14.3334ZM15.3333 8.00008C15.3333 12.0502 12.0501 15.3334 7.99999 15.3334C3.9499 15.3334 0.666656 12.0502 0.666656 8.00008C0.666656 3.94999 3.9499 0.666748 7.99999 0.666748C12.0501 0.666748 15.3333 3.94999 15.3333 8.00008Z" fill="#18202A"/>
</g>
<defs>
<clipPath id="clip0_2266_39140">
<rect width="16" height="16" fill="white"/>
</clipPath>
</defs>
</svg>
