<svg width="16" height="16" viewBox="0 0 16 16" fill="none" xmlns="http://www.w3.org/2000/svg">
<path fill-rule="evenodd" clip-rule="evenodd" d="M6.85802 1.53807C7.04486 1.61547 7.16668 1.79778 7.16668 2.00001V4.84202C8.9484 4.90459 10.8569 5.31811 12.3722 6.48752C14.0547 7.78597 15.1667 9.94858 15.1667 13.3333C15.1667 13.559 15.0156 13.7567 14.7978 13.8158C14.5801 13.875 14.3497 13.781 14.2355 13.5864C13.3421 12.0645 12.6505 11.171 11.6304 10.624C10.6679 10.1079 9.35128 9.86745 7.16668 9.83675V12.6667C7.16668 12.8689 7.04486 13.0512 6.85802 13.1286C6.67118 13.206 6.45612 13.1632 6.31312 13.0202L0.97979 7.6869C0.784528 7.49164 0.784528 7.17506 0.97979 6.97979L6.31312 1.64646C6.45612 1.50346 6.67118 1.46068 6.85802 1.53807ZM2.04045 7.33335L6.16668 11.4596V9.33335C6.16668 9.05721 6.39053 8.83335 6.66668 8.83335C9.17908 8.83335 10.8368 9.06374 12.103 9.7427C12.8733 10.1558 13.4729 10.7211 14.0258 11.4426C13.7005 9.41471 12.8413 8.11275 11.7612 7.27918C10.3526 6.19214 8.48155 5.83335 6.66668 5.83335C6.39053 5.83335 6.16668 5.60949 6.16668 5.33335V3.20712L2.04045 7.33335Z" fill="#18202A"/>
</svg>
