<svg width="16" height="16" viewBox="0 0 16 16" fill="none" xmlns="http://www.w3.org/2000/svg">
<path fill-rule="evenodd" clip-rule="evenodd" d="M2.66666 3.8335C2.66666 3.55735 2.89051 3.3335 3.16666 3.3335H12.8333C14.214 3.3335 15.3333 4.45278 15.3333 5.8335V8.66683C15.3333 8.94297 15.1095 9.16683 14.8333 9.16683C14.5572 9.16683 14.3333 8.94297 14.3333 8.66683V5.8335C14.3333 5.00507 13.6618 4.3335 12.8333 4.3335H3.16666C2.89051 4.3335 2.66666 4.10964 2.66666 3.8335ZM1.16666 6.16683C1.4428 6.16683 1.66666 6.39069 1.66666 6.66683V12.0002C1.66666 12.8286 2.33823 13.5002 3.16666 13.5002H12.8333C13.6618 13.5002 14.3333 12.8286 14.3333 12.0002V10.0002C14.3333 9.72402 14.5572 9.50016 14.8333 9.50016C15.1095 9.50016 15.3333 9.72402 15.3333 10.0002V12.0002C15.3333 13.3809 14.214 14.5002 12.8333 14.5002H3.16666C1.78594 14.5002 0.666656 13.3809 0.666656 12.0002V6.66683C0.666656 6.39069 0.890514 6.16683 1.16666 6.16683Z" fill="#18202A"/>
<path fill-rule="evenodd" clip-rule="evenodd" d="M0.666656 3.8335C0.666656 2.45278 1.78594 1.3335 3.16666 1.3335H11.1667C12.1792 1.3335 13 2.15431 13 3.16683V3.8335C13 4.10964 12.7761 4.3335 12.5 4.3335C12.2238 4.3335 12 4.10964 12 3.8335V3.16683C12 2.70659 11.6269 2.3335 11.1667 2.3335H3.16666C2.33823 2.3335 1.66666 3.00507 1.66666 3.8335V6.50016C1.66666 6.77631 1.4428 7.00016 1.16666 7.00016C0.890514 7.00016 0.666656 6.77631 0.666656 6.50016V3.8335Z" fill="#18202A"/>
<path fill-rule="evenodd" clip-rule="evenodd" d="M7.49999 8.50016C7.49999 7.48764 8.3208 6.66683 9.33332 6.66683H14.1667C14.811 6.66683 15.3333 7.18916 15.3333 7.8335V10.8335C15.3333 11.4778 14.811 12.0002 14.1667 12.0002H9.33332C8.3208 12.0002 7.49999 11.1794 7.49999 10.1668V8.50016ZM9.33332 7.66683C8.87309 7.66683 8.49999 8.03993 8.49999 8.50016V10.1668C8.49999 10.6271 8.87309 11.0002 9.33332 11.0002H14.1667C14.2587 11.0002 14.3333 10.9255 14.3333 10.8335V7.8335C14.3333 7.74145 14.2587 7.66683 14.1667 7.66683H9.33332Z" fill="#18202A"/>
<path d="M10.6667 9.3335C10.6667 9.70169 10.3682 10.0002 9.99999 10.0002C9.6318 10.0002 9.33332 9.70169 9.33332 9.3335C9.33332 8.96531 9.6318 8.66683 9.99999 8.66683C10.3682 8.66683 10.6667 8.96531 10.6667 9.3335Z" fill="#18202A"/>
</svg>
