<svg width="16" height="16" viewBox="0 0 16 16" fill="none" xmlns="http://www.w3.org/2000/svg">
<path d="M2.33337 3.16675C2.33337 2.89061 2.10952 2.66675 1.83337 2.66675C1.55723 2.66675 1.33337 2.89061 1.33337 3.16675V12.8334C1.33337 13.1096 1.55723 13.3334 1.83337 13.3334C2.10952 13.3334 2.33337 13.1096 2.33337 12.8334V8.33341L8.33337 8.33341V12.8334C8.33337 13.1096 8.55723 13.3334 8.83337 13.3334C9.10952 13.3334 9.33337 13.1096 9.33337 12.8334V3.16675C9.33337 2.89061 9.10952 2.66675 8.83337 2.66675C8.55723 2.66675 8.33337 2.89061 8.33337 3.16675V7.33341L2.33337 7.33341V3.16675Z" fill="#18202A"/>
<path d="M14 7.83342C14 7.63597 13.8838 7.45701 13.7035 7.37667C13.5231 7.29634 13.3123 7.32969 13.1656 7.46178L11.4989 8.96178C11.2936 9.14651 11.277 9.46265 11.4617 9.66791C11.6465 9.87316 11.9626 9.8898 12.1679 9.70507L13 8.9561V12.8334C13 13.1096 13.2239 13.3334 13.5 13.3334C13.7762 13.3334 14 13.1096 14 12.8334V7.83342Z" fill="#18202A"/>
</svg>
