<svg width="16" height="16" viewBox="0 0 16 16" fill="none" xmlns="http://www.w3.org/2000/svg">
<g clip-path="url(#clip0_2266_38012)">
<path fill-rule="evenodd" clip-rule="evenodd" d="M8 7.33366C9.77778 7.33366 10.6667 5.66699 10.6667 3.58366C10.6667 1.91699 9.77778 0.666992 8 0.666992C6.22222 0.666992 5.33333 1.91699 5.33333 3.58366C5.33333 5.66699 6.22222 7.33366 8 7.33366ZM8.00003 8.66699C8.6485 8.66699 9.27535 8.75958 9.86807 8.93226C8.73379 9.78358 7.99999 11.1396 7.99999 12.667C7.99999 13.6465 8.3018 14.5556 8.81749 15.3063C8.54734 15.3244 8.27475 15.3337 8.00001 15.3337C6.96841 15.3337 5.96722 15.2035 5.01195 14.9587C4.19926 14.7504 3.51047 14.206 3.13324 13.4567L3.10211 13.3943C2.58063 12.3412 2.75796 11.0511 3.64778 10.2835C4.81564 9.27614 6.3367 8.66699 8.00003 8.66699ZM9.33333 12.667C9.33333 14.5079 10.8257 16.0003 12.6667 16.0003C14.5076 16.0003 16 14.5079 16 12.667C16 10.826 14.5076 9.33366 12.6667 9.33366C10.8257 9.33366 9.33333 10.826 9.33333 12.667ZM12.6464 10.6468C12.4512 10.842 12.4512 11.1586 12.6464 11.3539L13.4596 12.167H10.6667C10.3905 12.167 10.1667 12.3909 10.1667 12.667C10.1667 12.9431 10.3905 13.167 10.6667 13.167H13.4596L12.6464 13.9801C12.4512 14.1754 12.4512 14.492 12.6464 14.6872C12.8417 14.8825 13.1583 14.8825 13.3535 14.6872L15.0202 13.0205C15.2155 12.8253 15.2155 12.5087 15.0202 12.3134L13.3535 10.6468C13.1583 10.4515 12.8417 10.4515 12.6464 10.6468Z" fill="#18202A"/>
</g>
<defs>
<clipPath id="clip0_2266_38012">
<rect width="16" height="16" fill="white"/>
</clipPath>
</defs>
</svg>
