<svg width="16" height="16" viewBox="0 0 16 16" fill="none" xmlns="http://www.w3.org/2000/svg">
<g clip-path="url(#clip0_2266_35953)">
<path fill-rule="evenodd" clip-rule="evenodd" d="M8 4.66699C8.73638 4.66699 9.33333 4.07004 9.33333 3.33366C9.33333 2.59728 8.73638 2.00033 8 2.00033C7.26362 2.00033 6.66667 2.59728 6.66667 3.33366C6.66667 4.07004 7.26362 4.66699 8 4.66699ZM10.6667 3.33366C10.6667 4.57622 9.81682 5.62028 8.66667 5.91631V13.9632C10.0127 13.8127 11.2757 13.2099 12.2426 12.243C13.2096 11.276 13.8124 10.013 13.9629 8.66699H12.6667C12.2985 8.66699 12 8.36852 12 8.00033C12 7.63214 12.2985 7.33366 12.6667 7.33366H14.6667C15.0349 7.33366 15.3333 7.63214 15.3333 8.00033C15.3333 9.94525 14.5607 11.8105 13.1855 13.1858C11.8102 14.561 9.94492 15.3337 8 15.3337C6.05508 15.3337 4.18982 14.561 2.81455 13.1858C1.43928 11.8105 0.666667 9.94525 0.666667 8.00033C0.666667 7.82351 0.736904 7.65395 0.861929 7.52892C0.986953 7.4039 1.15652 7.33366 1.33333 7.33366H3.33333C3.70152 7.33366 4 7.63214 4 8.00033C4 8.36852 3.70152 8.66699 3.33333 8.66699H2.03713C2.18758 10.013 2.79041 11.276 3.75736 12.243C4.72431 13.2099 5.98732 13.8127 7.33333 13.9632V5.91631C6.18318 5.62029 5.33333 4.57622 5.33333 3.33366C5.33333 1.8609 6.52724 0.666992 8 0.666992C9.47276 0.666992 10.6667 1.8609 10.6667 3.33366Z" fill="#18202A"/>
</g>
<defs>
<clipPath id="clip0_2266_35953">
<rect width="16" height="16" fill="white"/>
</clipPath>
</defs>
</svg>
