<svg width="16" height="16" viewBox="0 0 16 16" fill="none" xmlns="http://www.w3.org/2000/svg">
<path fill-rule="evenodd" clip-rule="evenodd" d="M11 5.33366V4.66699C11 3.01014 9.65686 1.66699 8.00001 1.66699C6.34316 1.66699 5.00001 3.01014 5.00001 4.66699V5.33366H11ZM12 4.66699V5.33366C13.4728 5.33366 14.6667 6.52757 14.6667 8.00033V12.667C14.6667 14.1398 13.4728 15.3337 12 15.3337H4.00001C2.52725 15.3337 1.33334 14.1398 1.33334 12.667V8.00033C1.33334 6.52757 2.52725 5.33366 4.00001 5.33366V4.66699C4.00001 2.45785 5.79087 0.666992 8.00001 0.666992C10.2091 0.666992 12 2.45785 12 4.66699ZM12 6.33366H4.00001C3.07954 6.33366 2.33334 7.07985 2.33334 8.00033V12.667C2.33334 13.5875 3.07954 14.3337 4.00001 14.3337H12C12.9205 14.3337 13.6667 13.5875 13.6667 12.667V8.00033C13.6667 7.07985 12.9205 6.33366 12 6.33366ZM5.00001 10.3337C5.00001 10.7939 4.62691 11.167 4.16668 11.167C3.70644 11.167 3.33334 10.7939 3.33334 10.3337C3.33334 9.87342 3.70644 9.50033 4.16668 9.50033C4.62691 9.50033 5.00001 9.87342 5.00001 10.3337ZM7.55556 10.3337C7.55556 10.7939 7.18247 11.167 6.72223 11.167C6.26199 11.167 5.8889 10.7939 5.8889 10.3337C5.8889 9.87342 6.26199 9.50033 6.72223 9.50033C7.18247 9.50033 7.55556 9.87342 7.55556 10.3337ZM9.27779 11.167C9.73803 11.167 10.1111 10.7939 10.1111 10.3337C10.1111 9.87342 9.73803 9.50033 9.27779 9.50033C8.81755 9.50033 8.44446 9.87342 8.44446 10.3337C8.44446 10.7939 8.81755 11.167 9.27779 11.167ZM12.6667 10.3337C12.6667 10.7939 12.2936 11.167 11.8333 11.167C11.3731 11.167 11 10.7939 11 10.3337C11 9.87342 11.3731 9.50033 11.8333 9.50033C12.2936 9.50033 12.6667 9.87342 12.6667 10.3337Z" fill="#18202A"/>
</svg>
