<svg width="16" height="16" viewBox="0 0 16 16" fill="none" xmlns="http://www.w3.org/2000/svg">
<path fill-rule="evenodd" clip-rule="evenodd" d="M13.539 2.46126C12.042 0.964249 9.61488 0.964249 8.11787 2.46126L6.70366 3.87547C6.5084 4.07073 6.5084 4.38732 6.70366 4.58258C6.89892 4.77784 7.21551 4.77784 7.41077 4.58258L8.82498 3.16837C9.93147 2.06188 11.7254 2.06188 12.8319 3.16837C13.9384 4.27485 13.9384 6.06882 12.8319 7.1753L11.4177 8.58952C11.2224 8.78478 11.2224 9.10136 11.4177 9.29662C11.613 9.49189 11.9296 9.49189 12.1248 9.29662L13.539 7.88241C15.036 6.3854 15.036 3.95827 13.539 2.46126ZM2.46101 13.5387C0.964004 12.0417 0.964004 9.61459 2.46101 8.11758L3.87523 6.70337C4.07049 6.5081 4.38707 6.5081 4.58233 6.70337C4.7776 6.89863 4.7776 7.21521 4.58233 7.41047L3.16812 8.82469C2.06164 9.93117 2.06164 11.7251 3.16812 12.8316C4.27461 13.9381 6.06857 13.9381 7.17506 12.8316L8.58927 11.4174C8.78453 11.2221 9.10112 11.2221 9.29638 11.4174C9.49164 11.6127 9.49164 11.9293 9.29638 12.1245L7.88217 13.5387C6.38516 15.0357 3.95802 15.0357 2.46101 13.5387ZM4.81804 10.4746C4.62278 10.6699 4.62278 10.9864 4.81804 11.1817C5.0133 11.377 5.32989 11.377 5.52515 11.1817L11.182 5.52485C11.3773 5.32959 11.3773 5.01301 11.182 4.81775C10.9867 4.62249 10.6702 4.62249 10.4749 4.81775L4.81804 10.4746Z" fill="#18202A"/>
</svg>
