<svg width="16" height="16" viewBox="0 0 16 16" fill="none" xmlns="http://www.w3.org/2000/svg">
<g clip-path="url(#clip0_2266_36359)">
<path fill-rule="evenodd" clip-rule="evenodd" d="M7.14784 0.307849C7.6418 -0.102616 8.35818 -0.102616 8.85214 0.307849L15.7594 6.04759C16.0426 6.28291 16.0814 6.70323 15.8461 6.98641C15.6108 7.26959 15.1904 7.30839 14.9072 7.07308L14 6.31918V13.6669C14 14.2191 13.5523 14.6669 13 14.6669L9.33333 14.6669V11.0002C9.33333 10.4479 8.88561 10.0002 8.33333 10.0002H7.66666C7.11438 10.0002 6.66666 10.4479 6.66666 11.0002V14.6669L3 14.6669C2.44771 14.6669 2 14.2191 2 13.6669V6.31917L1.09273 7.07308C0.809554 7.30839 0.389231 7.26959 0.153916 6.98641C-0.0813983 6.70323 -0.0425961 6.28291 0.240584 6.04759L7.14784 0.307849ZM7.99637 1.33634L8 1.33352L8.00348 1.33623L7.99999 1.33333L7.99637 1.33634Z" fill="#18202A"/>
</g>
<defs>
<clipPath id="clip0_2266_36359">
<rect width="16" height="16" fill="white"/>
</clipPath>
</defs>
</svg>
