<svg width="16" height="16" viewBox="0 0 16 16" fill="none" xmlns="http://www.w3.org/2000/svg">
<g clip-path="url(#clip0_2266_41755)">
<path fill-rule="evenodd" clip-rule="evenodd" d="M6.97979 0.979699C7.17505 0.784436 7.49163 0.784436 7.6869 0.979699L9.6869 2.9797C9.88216 3.17496 9.88216 3.49154 9.6869 3.68681L7.6869 5.68681C7.49163 5.88207 7.17505 5.88207 6.97979 5.68681C6.78453 5.49154 6.78453 5.17496 6.97979 4.9797L8.12624 3.83325H6.00001C3.69882 3.83325 1.83334 5.69873 1.83334 7.99992C1.83334 9.92405 3.13758 11.5436 4.91023 12.0226C5.15101 12.0877 5.33334 12.2969 5.33334 12.5464C5.33334 12.8527 5.06308 13.0911 4.76557 13.0182C2.50817 12.4648 0.833344 10.4279 0.833344 7.99992C0.833344 5.14645 3.14654 2.83325 6.00001 2.83325H8.12624L6.97979 1.68681C6.78453 1.49154 6.78453 1.17496 6.97979 0.979699ZM7.87379 13.1666L9.02023 14.313C9.21549 14.5083 9.21549 14.8249 9.02023 15.0201C8.82497 15.2154 8.50839 15.2154 8.31312 15.0201L6.31312 13.0201C6.11786 12.8249 6.11786 12.5083 6.31312 12.313L8.31312 10.313C8.50839 10.1178 8.82497 10.1178 9.02023 10.313C9.21549 10.5083 9.21549 10.8249 9.02023 11.0201L7.87378 12.1666H10C12.3012 12.1666 14.1667 10.3011 14.1667 7.99992C14.1667 6.07579 12.8624 4.45627 11.0898 3.97721C10.849 3.91214 10.6667 3.7029 10.6667 3.45348C10.6667 3.14717 10.9369 2.90871 11.2344 2.98165C13.4918 3.53505 15.1667 5.5719 15.1667 7.99992C15.1667 10.8534 12.8535 13.1666 10 13.1666H7.87379Z" fill="#18202A"/>
</g>
<defs>
<clipPath id="clip0_2266_41755">
<rect width="16" height="16" fill="white"/>
</clipPath>
</defs>
</svg>
