<svg width="16" height="16" viewBox="0 0 16 16" fill="none" xmlns="http://www.w3.org/2000/svg">
<g clip-path="url(#clip0_2266_40199)">
<path fill-rule="evenodd" clip-rule="evenodd" d="M14.3333 8.00002C14.3333 4.50222 11.4978 1.66669 7.99999 1.66669C4.50219 1.66669 1.66666 4.50222 1.66666 8.00002C1.66666 11.4978 4.50219 14.3334 7.99999 14.3334C11.4978 14.3334 14.3333 11.4978 14.3333 8.00002ZM15.3333 8.00002C15.3333 3.94993 12.0501 0.666687 7.99999 0.666687C3.9499 0.666687 0.666656 3.94993 0.666656 8.00002C0.666656 12.0501 3.9499 15.3334 7.99999 15.3334C12.0501 15.3334 15.3333 12.0501 15.3333 8.00002Z" fill="#18202A"/>
<path fill-rule="evenodd" clip-rule="evenodd" d="M4.97977 7.68691C4.78451 7.49165 4.78451 7.17506 4.97977 6.9798L7.64644 4.31313C7.8417 4.11787 8.15828 4.11787 8.35354 4.31313L11.0202 6.9798C11.2155 7.17506 11.2155 7.49165 11.0202 7.68691C10.8249 7.88217 10.5084 7.88217 10.3131 7.68691L8.49999 5.87379V11.3334C8.49999 11.6095 8.27613 11.8334 7.99999 11.8334C7.72385 11.8334 7.49999 11.6095 7.49999 11.3334V5.87379L5.68688 7.68691C5.49161 7.88217 5.17503 7.88217 4.97977 7.68691Z" fill="#18202A"/>
</g>
<defs>
<clipPath id="clip0_2266_40199">
<rect width="16" height="16" fill="white"/>
</clipPath>
</defs>
</svg>
