<svg width="16" height="16" viewBox="0 0 16 16" fill="none" xmlns="http://www.w3.org/2000/svg">
<path d="M12.6667 4.66634C14.5076 4.66634 16 6.15872 16 7.99967C16 9.84062 14.5076 11.333 12.6667 11.333H9.33333V9.15476C9.84324 9.44948 10.5066 9.37873 10.9428 8.94248C11.4635 8.42178 11.4635 7.57756 10.9428 7.05686L8.94281 5.05686C8.69276 4.80682 8.35362 4.66634 8 4.66634C7.64638 4.66634 7.30724 4.80682 7.05719 5.05687L5.05719 7.05687C4.53649 7.57756 4.53649 8.42178 5.05719 8.94248C5.49343 9.37873 6.15676 9.44948 6.66667 9.15476V11.333H3.33333C1.49238 11.333 0 9.84062 0 7.99967C0 6.15872 1.49238 4.66634 3.33333 4.66634C3.39766 4.66634 3.46155 4.66816 3.52498 4.67176C4.09694 2.74132 5.88401 1.33301 8 1.33301C10.116 1.33301 11.9031 2.74132 12.475 4.67176C12.5384 4.66816 12.6023 4.66634 12.6667 4.66634Z" fill="#18202A"/>
<path fill-rule="evenodd" clip-rule="evenodd" d="M8 14.6663C8.36819 14.6663 8.66667 14.3679 8.66667 13.9997V7.60915L9.5286 8.47108C9.78895 8.73143 10.2111 8.73143 10.4714 8.47108C10.7318 8.21073 10.7318 7.78862 10.4714 7.52827L8.47141 5.52827C8.34638 5.40325 8.17681 5.33301 8 5.33301C7.82319 5.33301 7.65362 5.40325 7.52859 5.52827L5.5286 7.52827C5.26825 7.78862 5.26825 8.21073 5.5286 8.47108C5.78895 8.73143 6.21106 8.73143 6.4714 8.47108L7.33333 7.60915V13.9997C7.33333 14.3679 7.63181 14.6663 8 14.6663Z" fill="#18202A"/>
</svg>
