<svg width="16" height="16" viewBox="0 0 16 16" fill="none" xmlns="http://www.w3.org/2000/svg">
<path fill-rule="evenodd" clip-rule="evenodd" d="M2.66663 0.666504C2.39048 0.666504 2.16663 0.890362 2.16663 1.1665C2.16663 1.44265 2.39048 1.6665 2.66663 1.6665H3.33329V2.76174C3.33329 4.84149 4.5729 6.61793 6.3203 7.32439C6.52316 7.40641 6.66663 7.59721 6.66663 7.81602V8.18362C6.66663 8.40243 6.52316 8.59324 6.3203 8.67525C4.5729 9.38172 3.33329 11.1582 3.33329 13.2379V14.3332H2.66663C2.39048 14.3332 2.16663 14.557 2.16663 14.8332C2.16663 15.1093 2.39048 15.3332 2.66663 15.3332H13.3333C13.6094 15.3332 13.8333 15.1093 13.8333 14.8332C13.8333 14.557 13.6094 14.3332 13.3333 14.3332H12.6666L12.6666 13.2379C12.6666 11.1582 11.427 9.38172 9.67962 8.67525C9.47676 8.59324 9.33329 8.40243 9.33329 8.18362V7.81602C9.33329 7.59721 9.47676 7.40641 9.67962 7.32439C11.427 6.61793 12.6666 4.84149 12.6666 2.76174L12.6666 1.6665H13.3333C13.6094 1.6665 13.8333 1.44265 13.8333 1.1665C13.8333 0.890362 13.6094 0.666504 13.3333 0.666504H2.66663ZM6.69512 6.39729C5.33334 5.84673 4.33329 4.44238 4.33329 2.76174V1.6665H11.6666L11.6666 2.76199C11.6665 4.44252 10.6665 5.84676 9.3048 6.39729C8.76859 6.61408 8.33329 7.14369 8.33329 7.81602V8.18362C8.33329 8.85595 8.76859 9.38556 9.3048 9.60235C10.6665 10.1529 11.6665 11.5574 11.6666 13.2379L11.6666 14.3332H4.33329V13.2379C4.33329 11.5573 5.33334 10.1529 6.69512 9.60235C7.23133 9.38556 7.66663 8.85595 7.66663 8.18362V7.81602C7.66663 7.14369 7.23133 6.61408 6.69512 6.39729Z" fill="#18202A"/>
</svg>
