<svg width="16" height="16" viewBox="0 0 16 16" fill="none" xmlns="http://www.w3.org/2000/svg">
<path fill-rule="evenodd" clip-rule="evenodd" d="M14.18 12.0326C14.2784 11.8199 14.3333 11.583 14.3333 11.3333V6.66667H1.66663V11.3333C1.66663 12.2538 2.41282 13 3.33329 13H8.03954C7.83889 13.3069 7.72145 13.6498 7.68229 14H3.33329C1.86053 14 0.666626 12.8061 0.666626 11.3333V4.66667C0.666626 3.19391 1.86053 2 3.33329 2H5.8382C6.36863 2 6.87734 2.21071 7.25241 2.58579L7.99996 3.33333H12.6666C14.1394 3.33333 15.3333 4.52724 15.3333 6V11.3333C15.3333 11.8054 15.2106 12.2488 14.9955 12.6334C14.9387 12.5767 14.8783 12.522 14.814 12.4697C14.6156 12.3083 14.4036 12.162 14.18 12.0326ZM6.54531 3.29289L7.58575 4.33333H12.6666C13.5871 4.33333 14.3333 5.07953 14.3333 6H1.66663V4.66667C1.66663 3.74619 2.41282 3 3.33329 3H5.8382C6.10342 3 6.35777 3.10536 6.54531 3.29289Z" fill="#18202A"/>
<path d="M9.15043 13.2454C9.25789 13.1579 9.37052 13.076 9.48783 13C10.1076 12.5986 10.858 12.3636 11.6666 12.3636C12.3214 12.3636 12.9381 12.5177 13.4781 12.7895C13.7311 12.9168 13.9674 13.07 14.1828 13.2454C14.2432 13.2945 14.298 13.3476 14.3471 13.404C14.7158 13.8276 14.7644 14.4352 14.4983 14.9422L14.4894 14.959L14.4803 14.9762C14.2622 15.3849 13.864 15.6819 13.3941 15.7955C12.8419 15.929 12.263 16 11.6666 16C11.0702 16 10.4914 15.929 9.93911 15.7955C9.46926 15.6819 9.07104 15.3849 8.85295 14.9762L8.83496 14.9422C8.67827 14.6437 8.63071 14.3102 8.69337 14C8.75129 13.7133 8.90335 13.4465 9.15043 13.2454Z" fill="#18202A"/>
<path d="M11.6666 11.6364C12.6944 11.6364 13.2083 10.7273 13.2083 9.59091C13.2083 8.68182 12.6944 8 11.6666 8C10.6388 8 10.1249 8.68182 10.1249 9.59091C10.1249 10.7273 10.6388 11.6364 11.6666 11.6364Z" fill="#18202A"/>
</svg>
