<svg width="16" height="16" viewBox="0 0 16 16" fill="none" xmlns="http://www.w3.org/2000/svg">
<g clip-path="url(#clip0_3517_8968)">
<path d="M3 3.33398C3 3.88627 2.55228 4.33398 2 4.33398C1.44772 4.33398 1 3.88627 1 3.33398C1 2.7817 1.44772 2.33398 2 2.33398C2.55228 2.33398 3 2.7817 3 3.33398Z" fill="#18202A"/>
<path d="M5.33337 2.66634C4.96518 2.66634 4.66671 2.96482 4.66671 3.33301C4.66671 3.7012 4.96518 3.99967 5.33337 3.99967H14C14.3682 3.99967 14.6667 3.7012 14.6667 3.33301C14.6667 2.96482 14.3682 2.66634 14 2.66634H5.33337Z" fill="#18202A"/>
<path d="M8.0275 11.9997C8.00933 12.1639 8 12.3309 8 12.5C8 12.5279 8.00025 12.5558 8.00076 12.5836C8.00028 12.6111 8.00004 12.6387 8.00004 12.6663C8.00004 12.8927 8.01616 13.1153 8.0473 13.333H5.33337C4.96518 13.333 4.66671 13.0345 4.66671 12.6663C4.66671 12.2982 4.96518 11.9997 5.33337 11.9997H8.0275Z" fill="#18202A"/>
<path d="M12.5 8C13.2117 8 13.8849 8.16523 14.4831 8.45942C14.5969 8.33984 14.6667 8.17807 14.6667 8C14.6667 7.63181 14.3682 7.33333 14 7.33333H5.33337C4.96518 7.33333 4.66671 7.63181 4.66671 8C4.66671 8.36819 4.96518 8.66667 5.33337 8.66667H10.1418C10.8275 8.2439 11.6353 8 12.5 8Z" fill="#18202A"/>
<path d="M3 8C3 8.55229 2.55228 9 2 9C1.44772 9 1 8.55229 1 8C1 7.44772 1.44772 7 2 7C2.55228 7 3 7.44772 3 8Z" fill="#18202A"/>
<path d="M2 13.5C2.55228 13.5 3 13.0523 3 12.5C3 11.9477 2.55228 11.5 2 11.5C1.44772 11.5 1 11.9477 1 12.5C1 13.0523 1.44772 13.5 2 13.5Z" fill="#18202A"/>
<path fill-rule="evenodd" clip-rule="evenodd" d="M12.5 16C14.433 16 16 14.433 16 12.5C16 10.567 14.433 9 12.5 9C10.567 9 9 10.567 9 12.5C9 14.433 10.567 16 12.5 16ZM13.25 11C13.25 10.5858 12.9142 10.25 12.5 10.25C12.0858 10.25 11.75 10.5858 11.75 11V11.75H11C10.5858 11.75 10.25 12.0858 10.25 12.5C10.25 12.9142 10.5858 13.25 11 13.25H11.75V14C11.75 14.4142 12.0858 14.75 12.5 14.75C12.9142 14.75 13.25 14.4142 13.25 14V13.25H14C14.4142 13.25 14.75 12.9142 14.75 12.5C14.75 12.0858 14.4142 11.75 14 11.75H13.25V11Z" fill="#18202A"/>
</g>
<defs>
<clipPath id="clip0_3517_8968">
<rect width="16" height="16" fill="white"/>
</clipPath>
</defs>
</svg>
