<svg width="16" height="16" viewBox="0 0 16 16" fill="none" xmlns="http://www.w3.org/2000/svg">
<g clip-path="url(#clip0_2266_37786)">
<path fill-rule="evenodd" clip-rule="evenodd" d="M8 7.33366C9.77778 7.33366 10.6667 5.66699 10.6667 3.58366C10.6667 1.91699 9.77778 0.666992 8 0.666992C6.22222 0.666992 5.33333 1.91699 5.33333 3.58366C5.33333 5.66699 6.22222 7.33366 8 7.33366ZM8.00003 8.66699C8.6485 8.66699 9.27535 8.75958 9.86808 8.93226C8.73379 9.78358 8 11.1396 8 12.667C8 13.6465 8.30181 14.5556 8.81749 15.3063C8.54735 15.3244 8.27476 15.3337 8.00001 15.3337C6.96841 15.3337 5.96722 15.2035 5.01196 14.9587C4.19926 14.7504 3.51047 14.206 3.13324 13.4567L3.10211 13.3943C2.58063 12.3412 2.75796 11.0511 3.64778 10.2835C4.81565 9.27614 6.3367 8.66699 8.00003 8.66699ZM16 12.667C16 14.5079 14.5076 16.0003 12.6667 16.0003C10.8257 16.0003 9.33333 14.5079 9.33333 12.667C9.33333 10.826 10.8257 9.33366 12.6667 9.33366C14.5076 9.33366 16 10.826 16 12.667ZM14.3166 11.0171C14.5118 11.2124 14.5118 11.5289 14.3166 11.7242L13.3738 12.667L14.3166 13.6098C14.5118 13.8051 14.5118 14.1217 14.3166 14.3169C14.1213 14.5122 13.8047 14.5122 13.6095 14.3169L12.6667 13.3741L11.7239 14.3169C11.5286 14.5122 11.212 14.5122 11.0168 14.3169C10.8215 14.1217 10.8215 13.8051 11.0168 13.6098L11.9596 12.667L11.0168 11.7242C10.8215 11.5289 10.8215 11.2124 11.0168 11.0171C11.212 10.8218 11.5286 10.8218 11.7239 11.0171L12.6667 11.9599L13.6095 11.0171C13.8047 10.8218 14.1213 10.8218 14.3166 11.0171Z" fill="#18202A"/>
</g>
<defs>
<clipPath id="clip0_2266_37786">
<rect width="16" height="16" fill="white"/>
</clipPath>
</defs>
</svg>
