<svg width="16" height="16" viewBox="0 0 16 16" fill="none" xmlns="http://www.w3.org/2000/svg">
<path fill-rule="evenodd" clip-rule="evenodd" d="M10 14.6668C11.1046 14.6668 12 13.7714 12 12.6668C12 11.5623 11.1046 10.6668 10 10.6668C8.89543 10.6668 8 11.5623 8 12.6668C8 13.7714 8.89543 14.6668 10 14.6668Z" fill="#18202A"/>
<path fill-rule="evenodd" clip-rule="evenodd" d="M10 5.3335C11.1046 5.3335 12 4.43807 12 3.3335C12 2.22893 11.1046 1.3335 10 1.3335C8.89543 1.3335 8 2.22893 8 3.3335C8 4.43807 8.89543 5.3335 10 5.3335Z" fill="#18202A"/>
<path fill-rule="evenodd" clip-rule="evenodd" d="M6 10.0002C7.10457 10.0002 8 9.10473 8 8.00016C8 6.89559 7.10457 6.00016 6 6.00016C4.89543 6.00016 4 6.89559 4 8.00016C4 9.10473 4.89543 10.0002 6 10.0002Z" fill="#18202A"/>
<path d="M0.666667 12.6668C0.666667 12.2986 0.965143 12.0002 1.33333 12.0002H6.66667C7.03486 12.0002 7.33333 12.2986 7.33333 12.6668C7.33333 13.035 7.03486 13.3335 6.66667 13.3335H1.33333C0.965144 13.3335 0.666667 13.035 0.666667 12.6668Z" fill="#18202A"/>
<path d="M0.666667 3.3335C0.666667 2.96531 0.965143 2.66683 1.33333 2.66683H6.66667C7.03486 2.66683 7.33333 2.96531 7.33333 3.3335C7.33333 3.70169 7.03486 4.00016 6.66667 4.00016H1.33333C0.965144 4.00016 0.666667 3.70169 0.666667 3.3335Z" fill="#18202A"/>
<path d="M8.66667 8.00016C8.66667 7.63197 8.96514 7.3335 9.33333 7.3335H14.6667C15.0349 7.3335 15.3333 7.63197 15.3333 8.00016C15.3333 8.36835 15.0349 8.66683 14.6667 8.66683H9.33333C8.96514 8.66683 8.66667 8.36835 8.66667 8.00016Z" fill="#18202A"/>
<path d="M12.6667 12.6668C12.6667 12.2986 12.9651 12.0002 13.3333 12.0002H14.6667C15.0349 12.0002 15.3333 12.2986 15.3333 12.6668C15.3333 13.035 15.0349 13.3335 14.6667 13.3335H13.3333C12.9651 13.3335 12.6667 13.035 12.6667 12.6668Z" fill="#18202A"/>
<path d="M12.6667 3.3335C12.6667 2.96531 12.9651 2.66683 13.3333 2.66683H14.6667C15.0349 2.66683 15.3333 2.96531 15.3333 3.3335C15.3333 3.70169 15.0349 4.00016 14.6667 4.00016H13.3333C12.9651 4.00016 12.6667 3.70169 12.6667 3.3335Z" fill="#18202A"/>
<path d="M0.666667 8.00016C0.666667 7.63197 0.965143 7.3335 1.33333 7.3335H2.66667C3.03486 7.3335 3.33333 7.63197 3.33333 8.00016C3.33333 8.36835 3.03486 8.66683 2.66667 8.66683H1.33333C0.965143 8.66683 0.666667 8.36835 0.666667 8.00016Z" fill="#18202A"/>
</svg>
