<svg width="16" height="16" viewBox="0 0 16 16" fill="none" xmlns="http://www.w3.org/2000/svg">
<g clip-path="url(#clip0_2266_35313)">
<path fill-rule="evenodd" clip-rule="evenodd" d="M9.62877 1.02128C8.0536 0.653677 6.4004 0.829742 4.93798 1.52084C3.47556 2.21194 2.28993 3.37743 1.57388 4.8278C0.857832 6.27816 0.653473 7.92811 0.994034 9.50934C1.3346 11.0906 2.20005 12.5101 3.44967 13.5371C4.69928 14.5641 6.25957 15.1382 7.87683 15.166C9.49409 15.1938 11.0732 14.6737 12.3574 13.6903C12.5766 13.5224 12.6182 13.2086 12.4503 12.9893C12.2825 12.7701 11.9686 12.7285 11.7494 12.8964C10.6444 13.7426 9.28562 14.1901 7.89402 14.1662C6.50243 14.1422 5.15986 13.6483 4.0846 12.7646C3.00935 11.8809 2.26466 10.6594 1.97162 9.29879C1.67858 7.9382 1.85442 6.51848 2.47056 5.27049C3.08669 4.0225 4.10688 3.01964 5.36525 2.42497C6.62361 1.8303 8.04613 1.6788 9.40151 1.99511C10.7569 2.31141 11.9654 3.07692 12.8306 4.16715C13.6957 5.25738 14.1666 6.60824 14.1667 8.00002V8.66666C14.1667 9.06448 14.0087 9.44602 13.7274 9.72732C13.4461 10.0086 13.0645 10.1667 12.6667 10.1667C12.2689 10.1667 11.8874 10.0086 11.6061 9.72732C11.3247 9.44602 11.1667 9.06448 11.1667 8.66666V5.33333C11.1667 5.05718 10.9429 4.83333 10.6667 4.83333C10.3906 4.83333 10.1667 5.05718 10.1667 5.33333V5.69059C9.60028 5.15895 8.83819 4.83333 8.00004 4.83333C6.25114 4.83333 4.83337 6.2511 4.83337 8C4.83337 9.7489 6.25114 11.1667 8.00004 11.1667C9.02206 11.1667 9.931 10.6825 10.51 9.93102C10.6168 10.1132 10.7471 10.2826 10.8989 10.4344C11.3678 10.9033 12.0037 11.1667 12.6667 11.1667C13.3298 11.1667 13.9656 10.9033 14.4345 10.4344C14.9033 9.96559 15.1667 9.3297 15.1667 8.66666V7.99996C15.1666 6.38247 14.6193 4.81257 13.6139 3.54554C12.6084 2.27851 11.2039 1.38887 9.62877 1.02128ZM5.83337 8C5.83337 6.80338 6.80342 5.83333 8.00004 5.83333C9.19666 5.83333 10.1667 6.80338 10.1667 8C10.1667 9.19662 9.19666 10.1667 8.00004 10.1667C6.80342 10.1667 5.83337 9.19662 5.83337 8Z" fill="#18202A"/>
</g>
<defs>
<clipPath id="clip0_2266_35313">
<rect width="16" height="16" fill="white"/>
</clipPath>
</defs>
</svg>
