<svg width="16" height="16" viewBox="0 0 16 16" fill="none" xmlns="http://www.w3.org/2000/svg">
<g clip-path="url(#clip0_2533_8463)">
<path fill-rule="evenodd" clip-rule="evenodd" d="M10.0001 5.00008C10.0001 6.66675 9.3334 8.00008 8.00006 8.00008C6.66673 8.00008 6.00006 6.66675 6.00006 5.00008C6.00006 3.66675 6.66673 2.66675 8.00006 2.66675C9.3334 2.66675 10.0001 3.66675 10.0001 5.00008ZM9.00006 5.00008C9.00006 5.72043 8.85287 6.26872 8.6484 6.60098C8.46911 6.89234 8.26926 7.00008 8.00006 7.00008C7.73086 7.00008 7.53101 6.89234 7.35172 6.60098C7.14725 6.26872 7.00006 5.72043 7.00006 5.00008C7.00006 4.48594 7.1299 4.1469 7.28093 3.95811C7.40793 3.79936 7.60965 3.66675 8.00006 3.66675C8.39048 3.66675 8.59219 3.79936 8.71919 3.95811C8.87022 4.1469 9.00006 4.48594 9.00006 5.00008Z" fill="#18202A"/>
<path d="M8.80769 14.64C8.64995 14.3321 8.52798 14.0029 8.44724 13.6578C8.29895 13.6638 8.14988 13.6667 8.00005 13.6667C7.44483 13.6667 6.89981 13.6257 6.36773 13.5466C5.85138 13.4698 5.41458 13.1427 5.20386 12.6819C5.09051 12.4341 4.98736 12.1806 4.89492 11.9221C4.67769 11.3146 4.88735 10.7217 5.3087 10.452C6.08509 9.955 7.00738 9.66675 8.00005 9.66675C8.47506 9.66675 8.93396 9.73275 9.36846 9.85604C9.61668 9.56505 9.90274 9.3073 10.219 9.09042C9.53263 8.81706 8.7839 8.66675 8.00005 8.66675C6.81065 8.66675 5.70208 9.01283 4.76955 9.60979C3.89639 10.1688 3.60424 11.2825 3.95331 12.2588C4.05539 12.5443 4.1693 12.8241 4.29444 13.0978C4.64907 13.8733 5.3772 14.4104 6.22071 14.5357C6.8013 14.622 7.39545 14.6667 8.00005 14.6667C8.27147 14.6667 8.54077 14.6577 8.80769 14.64Z" fill="#18202A"/>
<path fill-rule="evenodd" clip-rule="evenodd" d="M5.33339 6.41675C5.33339 7.66675 4.77784 8.66675 3.66673 8.66675C2.55562 8.66675 2.00006 7.66675 2.00006 6.41675C2.00006 5.41675 2.55562 4.66675 3.66673 4.66675C4.77784 4.66675 5.33339 5.41675 5.33339 6.41675ZM4.33339 6.41675C4.33339 6.91201 4.22067 7.25679 4.09125 7.44607C3.98908 7.59549 3.87346 7.66675 3.66673 7.66675C3.46 7.66675 3.34438 7.59549 3.24221 7.44607C3.11279 7.25679 3.00006 6.91201 3.00006 6.41675C3.00006 6.09325 3.08941 5.91518 3.16414 5.83111C3.22323 5.76463 3.35019 5.66675 3.66673 5.66675C3.98326 5.66675 4.11022 5.76463 4.16932 5.83111C4.24404 5.91518 4.33339 6.09325 4.33339 6.41675Z" fill="#18202A"/>
<path fill-rule="evenodd" clip-rule="evenodd" d="M11.572 8.47288C11.9217 8.38186 12.2885 8.33341 12.6667 8.33341C12.863 8.33341 13.0563 8.34647 13.2457 8.37176C13.7486 7.98549 14.0001 7.25769 14.0001 6.41675C14.0001 5.41675 13.4445 4.66675 12.3334 4.66675C11.2223 4.66675 10.6667 5.41675 10.6667 6.41675C10.6667 7.33799 10.9685 8.12345 11.572 8.47288ZM13.0001 6.41675C13.0001 6.91201 12.8873 7.25679 12.7579 7.44607C12.6557 7.59549 12.5401 7.66675 12.3334 7.66675C12.1267 7.66675 12.011 7.59549 11.9089 7.44607C11.7795 7.25679 11.6667 6.91201 11.6667 6.41675C11.6667 6.09325 11.7561 5.91518 11.8308 5.83111C11.8899 5.76463 12.0169 5.66675 12.3334 5.66675C12.6499 5.66675 12.7769 5.76463 12.836 5.83111C12.9107 5.91518 13.0001 6.09325 13.0001 6.41675Z" fill="#18202A"/>
<path d="M3.57343 9.33341C2.7749 9.33646 2.01774 9.515 1.33853 9.83247C0.560488 10.1961 0.246538 11.1146 0.509209 11.9323C0.739029 12.6477 1.36312 13.1503 2.10888 13.2424C2.50134 13.2908 2.89967 13.3203 3.30292 13.3299C3.19786 13.0892 3.10068 12.8443 3.01169 12.5954C2.97852 12.5027 2.94943 12.4085 2.92443 12.3133C2.69128 12.2994 2.4602 12.2781 2.2314 12.2499C1.86046 12.2041 1.56834 11.9597 1.46129 11.6264C1.3251 11.2025 1.51719 10.8528 1.76196 10.7384C2.14108 10.5612 2.55042 10.4372 2.98103 10.3763C3.10709 9.99899 3.30387 9.64354 3.57343 9.33341Z" fill="#18202A"/>
<path fill-rule="evenodd" clip-rule="evenodd" d="M12.6667 16.0001C14.5077 16.0001 16 14.5077 16 12.6667C16 10.8258 14.5077 9.33341 12.6667 9.33341C10.8258 9.33341 9.33337 10.8258 9.33337 12.6667C9.33337 14.5077 10.8258 16.0001 12.6667 16.0001ZM13.1667 11.1667C13.1667 10.8906 12.9429 10.6667 12.6667 10.6667C12.3906 10.6667 12.1667 10.8906 12.1667 11.1667V12.1667H11.1667C10.8906 12.1667 10.6667 12.3906 10.6667 12.6667C10.6667 12.9429 10.8906 13.1667 11.1667 13.1667H12.1667V14.1667C12.1667 14.4429 12.3906 14.6667 12.6667 14.6667C12.9429 14.6667 13.1667 14.4429 13.1667 14.1667V13.1667H14.1667C14.4429 13.1667 14.6667 12.9429 14.6667 12.6667C14.6667 12.3906 14.4429 12.1667 14.1667 12.1667H13.1667V11.1667Z" fill="#18202A"/>
</g>
<defs>
<clipPath id="clip0_2533_8463">
<rect width="16" height="16" fill="white"/>
</clipPath>
</defs>
</svg>
