<svg width="16" height="16" viewBox="0 0 16 16" fill="none" xmlns="http://www.w3.org/2000/svg">
<path fill-rule="evenodd" clip-rule="evenodd" d="M7.33334 3.00016C7.33334 3.36835 7.63182 3.66683 8.00001 3.66683C8.3682 3.66683 8.66668 3.36835 8.66668 3.00016C8.66668 2.63197 8.3682 2.3335 8.00001 2.3335C7.63182 2.3335 7.33334 2.63197 7.33334 3.00016ZM6.33334 3.00016C6.33334 3.92064 7.07954 4.66683 8.00001 4.66683C8.92049 4.66683 9.66668 3.92064 9.66668 3.00016C9.66668 2.07969 8.92049 1.3335 8.00001 1.3335C7.07954 1.3335 6.33334 2.07969 6.33334 3.00016Z" fill="#18202A"/>
<path fill-rule="evenodd" clip-rule="evenodd" d="M7.33334 8.00016C7.33334 8.36835 7.63182 8.66683 8.00001 8.66683C8.3682 8.66683 8.66668 8.36835 8.66668 8.00016C8.66668 7.63197 8.3682 7.3335 8.00001 7.3335C7.63182 7.3335 7.33334 7.63197 7.33334 8.00016ZM6.33334 8.00016C6.33334 8.92064 7.07954 9.66683 8.00001 9.66683C8.92048 9.66683 9.66668 8.92064 9.66668 8.00016C9.66668 7.07969 8.92049 6.3335 8.00001 6.3335C7.07954 6.3335 6.33334 7.07969 6.33334 8.00016Z" fill="#18202A"/>
<path fill-rule="evenodd" clip-rule="evenodd" d="M7.33334 13.0002C7.33334 13.3684 7.63182 13.6668 8.00001 13.6668C8.3682 13.6668 8.66668 13.3684 8.66668 13.0002C8.66668 12.632 8.3682 12.3335 8.00001 12.3335C7.63182 12.3335 7.33334 12.632 7.33334 13.0002ZM6.33334 13.0002C6.33334 13.9206 7.07954 14.6668 8.00001 14.6668C8.92048 14.6668 9.66668 13.9206 9.66668 13.0002C9.66668 12.0797 8.92048 11.3335 8.00001 11.3335C7.07954 11.3335 6.33334 12.0797 6.33334 13.0002Z" fill="#18202A"/>
</svg>
