<svg width="16" height="16" viewBox="0 0 16 16" fill="none" xmlns="http://www.w3.org/2000/svg">
<g clip-path="url(#clip0_3444_9568)">
<path d="M10.6667 1.3335C11.5375 1.3335 12.2783 1.89003 12.5529 2.66683H3.44718C3.72174 1.89003 4.46256 1.3335 5.33337 1.3335H10.6667Z" fill="#18202A"/>
<path fill-rule="evenodd" clip-rule="evenodd" d="M3.33337 3.3335C2.2288 3.3335 1.33337 4.22893 1.33337 5.3335V9.3335C1.33337 10.2043 1.88991 10.9451 2.66671 11.2197V12.6668C2.66671 13.7714 3.56214 14.6668 4.66671 14.6668H11.3334C12.4379 14.6668 13.3334 13.7714 13.3334 12.6668V11.2197C14.1102 10.9451 14.6667 10.2043 14.6667 9.3335V5.3335C14.6667 4.22893 13.7713 3.3335 12.6667 3.3335H3.33337ZM12.6667 6.00016C13.0349 6.00016 13.3334 5.70169 13.3334 5.3335C13.3334 4.96531 13.0349 4.66683 12.6667 4.66683C12.2985 4.66683 12 4.96531 12 5.3335C12 5.70169 12.2985 6.00016 12.6667 6.00016ZM12 8.00016C12 7.63197 11.7016 7.3335 11.3334 7.3335H4.66671C4.29852 7.3335 4.00004 7.63197 4.00004 8.00016V12.6668C4.00004 13.035 4.29852 13.3335 4.66671 13.3335H11.3334C11.7016 13.3335 12 13.035 12 12.6668V8.00016Z" fill="#18202A"/>
</g>
<defs>
<clipPath id="clip0_3444_9568">
<rect width="16" height="16" fill="white"/>
</clipPath>
</defs>
</svg>
