<svg width="16" height="16" viewBox="0 0 16 16" fill="none" xmlns="http://www.w3.org/2000/svg">
<g clip-path="url(#clip0_2266_36533)">
<path d="M11.3861 1.49336L11.3933 1.49713C11.422 1.51211 11.4505 1.52727 11.4789 1.54261C11.5086 1.55862 11.5386 1.57508 11.5684 1.59174C11.5937 1.60588 11.6187 1.61997 11.6435 1.63421C11.6805 1.65548 11.7175 1.6771 11.7542 1.69903C11.7727 1.71007 11.7913 1.72131 11.8099 1.73263C11.8542 1.7596 11.8979 1.78686 11.9413 1.81457C11.9537 1.8225 11.9663 1.83061 11.9789 1.83876C12.0198 1.86523 12.0603 1.89202 12.1006 1.9192C12.1158 1.92951 12.131 1.93988 12.1462 1.95031L12.1557 1.95682C12.2641 2.03155 12.3705 2.10913 12.4746 2.18944C12.4918 2.20271 12.509 2.21605 12.5261 2.22947C12.5584 2.25485 12.5903 2.28039 12.6221 2.3062C12.6466 2.32613 12.671 2.34625 12.6953 2.36652C12.7258 2.39192 12.7562 2.41774 12.7864 2.4438C12.8028 2.45793 12.819 2.47198 12.8351 2.4861C12.9329 2.572 13.0286 2.66055 13.1219 2.75158L13.1368 2.76616C13.1537 2.78281 13.1706 2.79955 13.1874 2.81636C13.2156 2.84461 13.2436 2.87307 13.2714 2.90175C13.2819 2.91263 13.2921 2.92329 13.3024 2.93398C13.3807 3.01598 13.4575 3.10016 13.5324 3.1861C13.5464 3.20221 13.5606 3.21864 13.5747 3.23513L13.6086 3.27506C13.6134 3.28076 13.6182 3.28647 13.623 3.29218C13.6527 3.32765 13.6823 3.36359 13.7115 3.39981C14.7258 4.65726 15.3333 6.25759 15.3333 7.99984C15.3333 9.68532 14.7647 11.238 13.8088 12.4765L13.9248 12.3221C13.8754 12.3898 13.8248 12.4566 13.7731 12.5225C13.7425 12.5614 13.7117 12.5998 13.6806 12.6379C13.6639 12.6583 13.6471 12.6787 13.6301 12.699C13.544 12.8021 13.455 12.9028 13.3634 13.0011C13.3442 13.0216 13.3251 13.0419 13.3058 13.0621C13.282 13.087 13.258 13.1119 13.2338 13.1365C13.2072 13.1636 13.1804 13.1905 13.1534 13.2172C13.1257 13.2445 13.0977 13.2717 13.0695 13.2987C13.0543 13.3133 13.0389 13.3279 13.0235 13.3424C12.9226 13.4373 12.819 13.5293 12.7129 13.6184C12.6937 13.6346 12.674 13.651 12.6542 13.6673C12.6273 13.6893 12.6004 13.7111 12.5734 13.7327C12.5406 13.7589 12.5078 13.7847 12.4747 13.8102C12.3832 13.8808 12.29 13.9492 12.1952 14.0154C12.1839 14.0234 12.1725 14.0313 12.161 14.0392C12.0471 14.1178 11.9307 14.1934 11.8122 14.2657C11.7968 14.275 11.782 14.284 11.7671 14.2929C11.7251 14.3181 11.6824 14.3432 11.6394 14.3678C11.6173 14.3805 11.5951 14.393 11.5728 14.4055C11.4585 14.4694 11.3426 14.5301 11.225 14.5878L11.1996 14.6002C11.1809 14.6093 11.1622 14.6183 11.1434 14.6272C11.105 14.6455 11.0665 14.6633 11.0278 14.6809C10.9981 14.6944 10.9681 14.7077 10.938 14.7209C10.9092 14.7335 10.8806 14.7459 10.8518 14.758C10.8184 14.7721 10.7847 14.7861 10.751 14.7997C10.7192 14.8126 10.687 14.8254 10.6546 14.8379C10.6088 14.8558 10.5627 14.8731 10.5165 14.89C10.4682 14.9076 10.4198 14.9247 10.3712 14.9413C10.3571 14.9462 10.3433 14.9508 10.3296 14.9554C10.2744 14.9739 10.2186 14.9918 10.1625 15.0091C10.1439 15.0149 10.1255 15.0204 10.107 15.026C10.0587 15.0404 10.0099 15.0545 9.96082 15.0681C9.93986 15.0739 9.91897 15.0796 9.89804 15.0852C9.76114 15.1217 9.62263 15.1545 9.48267 15.1832C9.47828 15.1841 9.47448 15.1849 9.47068 15.1857L9.31818 15.215C8.89055 15.2926 8.45001 15.3332 8 15.3332C4.67582 15.3332 1.86823 13.1214 0.968592 10.0892L0.968399 10.0885L0.958008 10.0531C0.939092 9.98817 0.921052 9.92281 0.9039 9.8571L0.968399 10.0885C0.937981 9.98595 0.909742 9.88245 0.883743 9.77806C0.870709 9.72572 0.858307 9.67347 0.846466 9.62099C0.840447 9.59433 0.834534 9.56742 0.828771 9.54047C0.81883 9.49398 0.809324 9.44728 0.800262 9.40042C0.791311 9.35414 0.782791 9.30766 0.774709 9.26104C0.765007 9.20505 0.755967 9.14906 0.747569 9.09286C0.743435 9.0652 0.73946 9.03749 0.735636 9.00972C0.726946 8.94663 0.719052 8.88325 0.711975 8.81963C0.710855 8.80957 0.709738 8.79934 0.708643 8.78911C0.700432 8.71235 0.693429 8.63551 0.687617 8.55833C0.685644 8.53212 0.683829 8.50617 0.682149 8.48018C0.678144 8.41828 0.674889 8.35581 0.672424 8.29313C0.671673 8.27402 0.671003 8.25517 0.670405 8.2363C0.667918 8.15779 0.666667 8.07896 0.666667 7.99984C0.666667 3.94975 3.94991 0.666504 8 0.666504C8.07553 0.666504 8.15079 0.667646 8.22576 0.669913L8 0.666504C8.0812 0.666504 8.16209 0.667824 8.24266 0.670443C8.3088 0.672592 8.37488 0.675626 8.44072 0.679529C8.45809 0.680558 8.4759 0.681677 8.49368 0.682859C8.5432 0.686153 8.59225 0.689909 8.64117 0.694146C8.66484 0.696197 8.6884 0.698352 8.71191 0.700617C8.75656 0.704917 8.80127 0.709639 8.84587 0.71476C8.87696 0.718331 8.90803 0.722101 8.93904 0.726064C9.07297 0.743188 9.20558 0.763888 9.33697 0.788089C9.35695 0.791773 9.37654 0.795465 9.3961 0.799235C9.44545 0.808745 9.49482 0.818792 9.54401 0.829333C9.5662 0.834089 9.58845 0.838965 9.61066 0.843942C9.64995 0.852747 9.68925 0.861897 9.72842 0.871362C9.7653 0.880273 9.80172 0.889375 9.83803 0.898748C9.87055 0.907141 9.90306 0.915772 9.93548 0.92462C9.96097 0.931575 9.98666 0.938738 10.0123 0.946036C10.1451 0.983862 10.276 1.02519 10.4052 1.07004C10.4233 1.07632 10.4416 1.08275 10.4598 1.08924C10.5074 1.10619 10.5547 1.12358 10.6018 1.14144C10.6163 1.14697 10.6308 1.15251 10.6452 1.1581C10.6951 1.17739 10.7447 1.1972 10.794 1.21753C10.8126 1.22521 10.8312 1.23299 10.8499 1.24085C10.8977 1.26103 10.9452 1.28171 10.9925 1.30288C11.0051 1.30852 11.018 1.31431 11.0308 1.32013C11.0844 1.3445 11.1373 1.36932 11.1899 1.39475C11.1991 1.39921 11.2082 1.40362 11.2172 1.40805L11.225 1.41187C11.2791 1.43839 11.3328 1.46556 11.3861 1.49336ZM9 4.99984C10 5.99984 10.3333 8.33317 9 8.33317C7.66667 8.33317 7.66667 9.33317 8 10.3332C8.22886 11.0197 7.31462 11.1928 6.3891 10.3332C5.9666 9.94076 6.01831 8.78493 5.33332 8.33317C3.60632 7.19419 2.71118 8.4561 2.12663 9.23083C2.69441 11.9542 5.10832 13.9998 8 13.9998C8.34947 13.9998 8.69197 13.97 9.02506 13.9126C8.93904 11.9998 10.6717 10.5755 12.9008 11.4602C13.5935 10.483 14 9.28889 14 7.99984C14 6.01679 13.038 4.25843 11.5551 3.16603C9.53108 2.96627 8.33451 4.33435 9 4.99984Z" fill="#18202A"/>
</g>
<defs>
<clipPath id="clip0_2266_36533">
<rect width="16" height="16" fill="white"/>
</clipPath>
</defs>
</svg>
