<svg width="16" height="16" viewBox="0 0 16 16" fill="none" xmlns="http://www.w3.org/2000/svg">
<path fill-rule="evenodd" clip-rule="evenodd" d="M6.91735 3.08236L6.36608 3.27285C5.75606 3.48366 5.19871 3.80975 4.72035 4.22585L4.27956 4.60927L2.91905 4.12564L2.10176 5.54122L3.20014 6.47703L3.09011 7.04919C3.03106 7.35628 2.99999 7.67408 2.99999 8.00008C2.99999 8.32609 3.03106 8.6439 3.09012 8.95099L3.20014 9.52315L2.10176 10.459L2.91905 11.8746L4.27958 11.3909L4.72036 11.7743C5.19872 12.1904 5.75607 12.5165 6.36608 12.7273L6.91735 12.9178L7.17795 14.3334H8.81252L9.0727 12.9201L9.62545 12.7302C10.2378 12.5199 10.7973 12.1934 11.2773 11.7763L11.718 11.3935L13.0714 11.8746L13.8887 10.459L12.7979 9.5296L12.9088 8.95679C12.9685 8.6479 13 8.32814 13 8.00008C13 7.67203 12.9685 7.35228 12.9088 7.04339L12.7979 6.47058L13.8887 5.54122L13.0714 4.12564L11.718 4.60673L11.2773 4.22385C10.7973 3.80678 10.2378 3.48031 9.62545 3.26994L9.0727 3.08004L8.81252 1.66675H7.17795L6.91735 3.08236ZM6.24473 1.21272C6.30296 0.896393 6.57874 0.666748 6.90037 0.666748H9.09009C9.41173 0.666748 9.68751 0.896393 9.74574 1.21272L9.95035 2.32419C10.6865 2.57708 11.3579 2.96914 11.9332 3.46895L12.998 3.09043C13.3011 2.9827 13.6378 3.10671 13.7987 3.38525L14.8935 5.2816C15.0543 5.56015 14.9933 5.9138 14.7485 6.1224L13.8905 6.85339C13.9624 7.22456 14 7.60793 14 8.00008C14 8.39224 13.9624 8.77562 13.8905 9.14679L14.7485 9.87779C14.9933 10.0864 15.0543 10.44 14.8935 10.7186L13.7987 12.6149C13.6378 12.8935 13.3011 13.0175 12.998 12.9098L11.9332 12.5312C11.3579 13.031 10.6865 13.4231 9.95035 13.676L9.74574 14.7874C9.68751 15.1038 9.41173 15.3334 9.09009 15.3334H6.90037C6.57874 15.3334 6.30296 15.1038 6.24473 14.7874L6.03947 13.6725C5.30617 13.4191 4.63732 13.0275 4.06406 12.5288L2.99245 12.9098C2.68939 13.0175 2.35262 12.8935 2.19181 12.6149L1.09695 10.7186C0.936129 10.44 0.997117 10.0864 1.24194 9.87779L2.10811 9.13983C2.03715 8.77082 1.99999 8.38979 1.99999 8.00008C1.99999 7.61038 2.03715 7.22935 2.1081 6.86035L1.24195 6.1224C0.997124 5.9138 0.936135 5.56015 1.09695 5.2816L2.19181 3.38525C2.35263 3.10671 2.6894 2.9827 2.99246 3.09043L4.06404 3.47135C4.63731 2.9727 5.30616 2.5811 6.03947 2.3277L6.24473 1.21272Z" fill="#18202A"/>
<path fill-rule="evenodd" clip-rule="evenodd" d="M7.99999 9.66675C8.92046 9.66675 9.66666 8.92056 9.66666 8.00008C9.66666 7.07961 8.92046 6.33342 7.99999 6.33342C7.07952 6.33342 6.33332 7.07961 6.33332 8.00008C6.33332 8.92056 7.07952 9.66675 7.99999 9.66675ZM7.99999 10.6667C9.47275 10.6667 10.6667 9.47284 10.6667 8.00008C10.6667 6.52732 9.47275 5.33342 7.99999 5.33342C6.52723 5.33342 5.33332 6.52732 5.33332 8.00008C5.33332 9.47284 6.52723 10.6667 7.99999 10.6667Z" fill="#18202A"/>
</svg>
