<svg width="16" height="16" viewBox="0 0 16 16" fill="none" xmlns="http://www.w3.org/2000/svg">
<path d="M2 4.25C2.41421 4.25 2.75 3.91421 2.75 3.5C2.75 3.08579 2.41421 2.75 2 2.75C1.58579 2.75 1.25 3.08579 1.25 3.5C1.25 3.91421 1.58579 4.25 2 4.25Z" fill="#18202A"/>
<path d="M5.16668 3C4.89053 3 4.66668 3.22386 4.66668 3.5C4.66668 3.77614 4.89053 4 5.16668 4H14.1667C14.4428 4 14.6667 3.77614 14.6667 3.5C14.6667 3.22386 14.4428 3 14.1667 3H5.16668Z" fill="#18202A"/>
<path d="M8.2791 12C8.25988 12.164 8.25 12.3308 8.25 12.5C8.25 12.6692 8.25988 12.836 8.2791 13H5.16668C4.89053 13 4.66668 12.7761 4.66668 12.5C4.66668 12.2239 4.89053 12 5.16668 12H8.2791Z" fill="#18202A"/>
<path d="M12.5 8.25C13.0053 8.25 13.49 8.33818 13.9396 8.5H14.1667C14.4428 8.5 14.6667 8.27614 14.6667 8C14.6667 7.72386 14.4428 7.5 14.1667 7.5H5.16668C4.89053 7.5 4.66668 7.72386 4.66668 8C4.66668 8.27614 4.89053 8.5 5.16668 8.5H11.0604C11.51 8.33818 11.9947 8.25 12.5 8.25Z" fill="#18202A"/>
<path d="M2 8.66634C2.41421 8.66634 2.75 8.33055 2.75 7.91634C2.75 7.50213 2.41421 7.16634 2 7.16634C1.58579 7.16634 1.25 7.50213 1.25 7.91634C1.25 8.33055 1.58579 8.66634 2 8.66634Z" fill="#18202A"/>
<path d="M2.75 12.5C2.75 12.9142 2.41421 13.25 2 13.25C1.58579 13.25 1.25 12.9142 1.25 12.5C1.25 12.0858 1.58579 11.75 2 11.75C2.41421 11.75 2.75 12.0858 2.75 12.5Z" fill="#18202A"/>
<path fill-rule="evenodd" clip-rule="evenodd" d="M12.5 16C14.433 16 16 14.433 16 12.5C16 10.567 14.433 9 12.5 9C10.567 9 9 10.567 9 12.5C9 14.433 10.567 16 12.5 16ZM13 11C13 10.7239 12.7761 10.5 12.5 10.5C12.2239 10.5 12 10.7239 12 11V12H11C10.7239 12 10.5 12.2239 10.5 12.5C10.5 12.7761 10.7239 13 11 13H12V14C12 14.2761 12.2239 14.5 12.5 14.5C12.7761 14.5 13 14.2761 13 14V13H14C14.2761 13 14.5 12.7761 14.5 12.5C14.5 12.2239 14.2761 12 14 12H13V11Z" fill="#18202A"/>
</svg>
