<svg width="16" height="16" viewBox="0 0 16 16" fill="none" xmlns="http://www.w3.org/2000/svg">
<g clip-path="url(#clip0_2266_37567)">
<path fill-rule="evenodd" clip-rule="evenodd" d="M7.33333 2.00033C4.38781 2.00033 2 4.38814 2 7.33366C2 10.0784 4.07399 12.3397 6.73992 12.6344C7.10588 12.6749 7.36975 13.0043 7.3293 13.3703C7.28884 13.7362 6.95938 14.0001 6.59342 13.9597C3.25941 13.5911 0.666667 10.7656 0.666667 7.33366C0.666667 3.65176 3.65143 0.666992 7.33333 0.666992C10.7653 0.666992 13.5908 3.25974 13.9593 6.59374C13.9998 6.9597 13.7359 7.28917 13.37 7.32962C13.004 7.37008 12.6745 7.1062 12.6341 6.74024C12.3394 4.07431 10.0781 2.00033 7.33333 2.00033ZM7.33333 4.66699C5.86057 4.66699 4.66667 5.8609 4.66667 7.33366C4.66667 8.42613 5.3237 9.36662 6.26691 9.77873C6.60431 9.92614 6.75831 10.3192 6.6109 10.6565C6.46349 10.9939 6.07048 11.1479 5.73309 11.0005C4.32176 10.3839 3.33333 8.97495 3.33333 7.33366C3.33333 5.12452 5.12419 3.33366 7.33333 3.33366C8.97463 3.33366 10.3836 4.32208 11.0002 5.73341C11.1476 6.0708 10.9936 6.46381 10.6562 6.61123C10.3188 6.75864 9.92582 6.60463 9.7784 6.26724C9.3663 5.32403 8.4258 4.66699 7.33333 4.66699ZM7.36992 7.99841C7.2469 7.61177 7.61134 7.24732 7.99798 7.37035L14.0563 9.298C14.4558 9.42512 14.5309 9.95792 14.1821 10.1905L12.7283 11.1597L15.2155 13.6469C15.4108 13.8421 15.4108 14.1587 15.2155 14.354L14.3536 15.2159C14.1583 15.4112 13.8417 15.4112 13.6465 15.2159L11.1592 12.7287L10.1901 14.1825C9.9575 14.5313 9.42469 14.4563 9.29757 14.0567L7.36992 7.99841Z" fill="#18202A"/>
</g>
<defs>
<clipPath id="clip0_2266_37567">
<rect width="16" height="16" fill="white"/>
</clipPath>
</defs>
</svg>
