<svg width="16" height="16" viewBox="0 0 16 16" fill="none" xmlns="http://www.w3.org/2000/svg">
<g clip-path="url(#clip0_2266_39759)">
<path fill-rule="evenodd" clip-rule="evenodd" d="M1.68029 7.79378V7.75955L1.67795 7.72541C1.46301 4.5885 4.43059 1.6665 8.00681 1.6665C11.5642 1.6665 14.3333 4.08011 14.3333 7.79378C14.3333 8.07926 14.3127 8.36209 14.2722 8.64033C14.6031 8.7724 14.9139 8.94409 15.1988 9.14953C15.2876 8.70827 15.3333 8.2545 15.3333 7.79378C15.3333 3.4665 12.0531 0.666504 8.00681 0.666504C3.96048 0.666504 0.418663 3.97559 0.680291 7.79378C0.680291 10.0753 1.59214 11.8615 3.04736 13.0405L3.18743 14.7213C3.22586 15.1825 3.71097 15.4652 4.13116 15.2713L5.94843 14.4325C6.60143 14.5871 7.29217 14.6665 8.00681 14.6665C8.27824 14.6665 8.54383 14.6545 8.80328 14.6312C8.6472 14.3249 8.52647 13.9975 8.44648 13.6545C8.30212 13.6625 8.15554 13.6665 8.00681 13.6665C7.36605 13.6665 6.7528 13.5953 6.17881 13.4594L5.84285 13.3799L4.14443 14.1638L4.00846 12.5321L3.67685 12.2635C2.46587 11.2824 1.68029 9.78662 1.68029 7.79378ZM6 7.6665C6 8.21879 5.55228 8.6665 5 8.6665C4.44772 8.6665 4 8.21879 4 7.6665C4 7.11422 4.44772 6.6665 5 6.6665C5.55228 6.6665 6 7.11422 6 7.6665ZM8 8.6665C8.55228 8.6665 9 8.21879 9 7.6665C9 7.11422 8.55228 6.6665 8 6.6665C7.44772 6.6665 7 7.11422 7 7.6665C7 8.21879 7.44772 8.6665 8 8.6665ZM11 8.6665C11.5523 8.6665 12 8.21879 12 7.6665C12 7.11422 11.5523 6.6665 11 6.6665C10.4477 6.6665 10 7.11422 10 7.6665C10 8.21879 10.4477 8.6665 11 8.6665ZM16 12.6665C16 14.5075 14.5076 15.9998 12.6667 15.9998C10.8257 15.9998 9.33333 14.5075 9.33333 12.6665C9.33333 10.8256 10.8257 9.33317 12.6667 9.33317C14.5076 9.33317 16 10.8256 16 12.6665ZM12.6667 10.6665C12.9428 10.6665 13.1667 10.8904 13.1667 11.1665V12.1665H14.1667C14.4428 12.1665 14.6667 12.3904 14.6667 12.6665C14.6667 12.9426 14.4428 13.1665 14.1667 13.1665H13.1667V14.1665C13.1667 14.4426 12.9428 14.6665 12.6667 14.6665C12.3905 14.6665 12.1667 14.4426 12.1667 14.1665V13.1665H11.1667C10.8905 13.1665 10.6667 12.9426 10.6667 12.6665C10.6667 12.3904 10.8905 12.1665 11.1667 12.1665H12.1667V11.1665C12.1667 10.8904 12.3905 10.6665 12.6667 10.6665Z" fill="#18202A"/>
</g>
<defs>
<clipPath id="clip0_2266_39759">
<rect width="16" height="16" fill="white"/>
</clipPath>
</defs>
</svg>
