<svg width="16" height="16" viewBox="0 0 16 16" fill="none" xmlns="http://www.w3.org/2000/svg">
<path fill-rule="evenodd" clip-rule="evenodd" d="M13.6568 2.34333C12.0947 0.781229 9.56205 0.781229 7.99995 2.34333L6.58573 3.75754C6.32538 4.01789 6.32539 4.44 6.58573 4.70035C6.84608 4.9607 7.26819 4.9607 7.52854 4.70035L8.94276 3.28613C9.98415 2.24474 11.6726 2.24474 12.714 3.28613C13.7554 4.32753 13.7554 6.01597 12.714 7.05737L11.2998 8.47158C11.0394 8.73193 11.0394 9.15404 11.2998 9.41439C11.5601 9.67474 11.9822 9.67474 12.2426 9.41439L13.6568 8.00018C15.2189 6.43808 15.2189 3.90542 13.6568 2.34333ZM2.34308 13.6565C0.780985 12.0944 0.780984 9.56172 2.34308 7.99962L3.75729 6.58541C4.01764 6.32506 4.43975 6.32506 4.7001 6.58541C4.96045 6.84576 4.96045 7.26787 4.7001 7.52822L3.28589 8.94243C2.24449 9.98383 2.24449 11.6723 3.28589 12.7137C4.32729 13.7551 6.01573 13.7551 7.05713 12.7137L8.47134 11.2995C8.73169 11.0391 9.1538 11.0391 9.41415 11.2995C9.6745 11.5598 9.6745 11.9819 9.41415 12.2423L7.99994 13.6565C6.43784 15.2186 3.90518 15.2186 2.34308 13.6565ZM4.70011 10.3566C4.43976 10.617 4.43976 11.0391 4.70011 11.2995C4.96046 11.5598 5.38257 11.5598 5.64292 11.2995L11.2998 5.6426C11.5601 5.38225 11.5601 4.96014 11.2998 4.69979C11.0394 4.43944 10.6173 4.43944 10.357 4.69979L4.70011 10.3566Z" fill="#18202A"/>
</svg>
