<svg width="16" height="16" viewBox="0 0 16 16" fill="none" xmlns="http://www.w3.org/2000/svg">
<path fill-rule="evenodd" clip-rule="evenodd" d="M4.00001 3H3.33334C2.78106 3 2.33334 3.44772 2.33334 4V4.66667C2.33334 5.21895 2.78106 5.66667 3.33334 5.66667H4.00001C4.55229 5.66667 5.00001 5.21895 5.00001 4.66667V4C5.00001 3.44772 4.55229 3 4.00001 3ZM3.33334 2H4.00001C5.10458 2 6.00001 2.89543 6.00001 4V4.66667C6.00001 5.77124 5.10458 6.66667 4.00001 6.66667H3.33334C2.22877 6.66667 1.33334 5.77124 1.33334 4.66667V4C1.33334 2.89543 2.22877 2 3.33334 2Z" fill="#18202A"/>
<path fill-rule="evenodd" clip-rule="evenodd" d="M4.00001 10.3333H3.33334C2.78106 10.3333 2.33334 10.781 2.33334 11.3333V12C2.33334 12.5523 2.78106 13 3.33334 13H4.00001C4.55229 13 5.00001 12.5523 5.00001 12V11.3333C5.00001 10.781 4.55229 10.3333 4.00001 10.3333ZM3.33334 9.33333H4.00001C5.10458 9.33333 6.00001 10.2288 6.00001 11.3333V12C6.00001 13.1046 5.10458 14 4.00001 14H3.33334C2.22877 14 1.33334 13.1046 1.33334 12V11.3333C1.33334 10.2288 2.22877 9.33333 3.33334 9.33333Z" fill="#18202A"/>
<path d="M7.33334 3.16667C7.33334 2.89052 7.5572 2.66667 7.83334 2.66667H14.1667C14.4428 2.66667 14.6667 2.89052 14.6667 3.16667C14.6667 3.44281 14.4428 3.66667 14.1667 3.66667H7.83334C7.5572 3.66667 7.33334 3.44281 7.33334 3.16667Z" fill="#18202A"/>
<path d="M7.33334 5.5C7.33334 5.22386 7.5572 5 7.83334 5H14.1667C14.4428 5 14.6667 5.22386 14.6667 5.5C14.6667 5.77614 14.4428 6 14.1667 6H7.83334C7.5572 6 7.33334 5.77614 7.33334 5.5Z" fill="#18202A"/>
<path d="M7.33334 10.5C7.33334 10.2239 7.5572 10 7.83334 10H14.1667C14.4428 10 14.6667 10.2239 14.6667 10.5C14.6667 10.7761 14.4428 11 14.1667 11H7.83334C7.5572 11 7.33334 10.7761 7.33334 10.5Z" fill="#18202A"/>
<path d="M7.33334 12.8333C7.33334 12.5572 7.5572 12.3333 7.83334 12.3333H14.1667C14.4428 12.3333 14.6667 12.5572 14.6667 12.8333C14.6667 13.1095 14.4428 13.3333 14.1667 13.3333H7.83334C7.5572 13.3333 7.33334 13.1095 7.33334 12.8333Z" fill="#18202A"/>
</svg>
