<svg width="16" height="16" viewBox="0 0 16 16" fill="none" xmlns="http://www.w3.org/2000/svg">
<g clip-path="url(#clip0_2266_37271)">
<path fill-rule="evenodd" clip-rule="evenodd" d="M8 15.3333C3.94991 15.3333 0.666667 12.05 0.666667 7.99996C0.666667 3.94987 3.94991 0.666626 8 0.666626C12.0501 0.666626 15.3333 3.94987 15.3333 7.99996C15.3333 12.05 12.0501 15.3333 8 15.3333ZM8.19526 4.86189C8.45561 4.60154 8.87772 4.60154 9.13807 4.86189C9.39842 5.12224 9.39842 5.54435 9.13807 5.8047L6.94281 7.99996L9.13807 10.1952C9.39842 10.4556 9.39842 10.8777 9.13807 11.138C8.87772 11.3984 8.45561 11.3984 8.19526 11.138L5.5286 8.47136C5.26825 8.21101 5.26825 7.78891 5.5286 7.52855L8.19526 4.86189Z" fill="#18202A"/>
</g>
<defs>
<clipPath id="clip0_2266_37271">
<rect width="16" height="16" fill="white"/>
</clipPath>
</defs>
</svg>
