<svg width="16" height="16" viewBox="0 0 16 16" fill="none" xmlns="http://www.w3.org/2000/svg">
<g clip-path="url(#clip0_2266_30465)">
<path fill-rule="evenodd" clip-rule="evenodd" d="M9.66657 0.859011C8.05477 0.482864 6.36312 0.663023 4.86669 1.3702C3.37026 2.07737 2.15706 3.26996 1.42436 4.75406C0.691653 6.23815 0.482541 7.92647 0.831023 9.54448C1.1795 11.1625 2.06508 12.615 3.34376 13.6659C4.62244 14.7168 6.21902 15.3042 7.87388 15.3327C9.52875 15.3612 11.1446 14.829 12.4586 13.8227C12.751 13.5988 12.8065 13.1804 12.5826 12.888C12.3587 12.5957 11.9403 12.5402 11.648 12.7641C10.5728 13.5874 9.25079 14.0229 7.89681 13.9996C6.54283 13.9763 5.23654 13.4957 4.19034 12.6358C3.14415 11.776 2.41959 10.5876 2.13447 9.26375C1.84935 7.93992 2.02044 6.55857 2.61992 5.34431C3.2194 4.13005 4.21202 3.15429 5.43638 2.5757C6.66073 1.9971 8.0448 1.8497 9.36355 2.15745C10.6823 2.46521 11.8582 3.21003 12.6999 4.2708C13.5417 5.33155 13.9999 6.64591 14 8.00008V8.6667C14 9.02032 13.8595 9.35946 13.6094 9.60951C13.3594 9.85956 13.0203 10 12.6666 10C12.313 10 11.9739 9.85956 11.7238 9.60951C11.4738 9.35946 11.3333 9.02032 11.3333 8.6667V5.33337C11.3333 4.96518 11.0348 4.6667 10.6666 4.6667C10.2985 4.6667 10.0001 4.96505 9.99997 5.33314C9.44286 4.91468 8.75037 4.66671 7.99996 4.66671C6.15901 4.66671 4.66663 6.15909 4.66663 8.00004C4.66663 9.84099 6.15901 11.3334 7.99996 11.3334C8.99202 11.3334 9.88286 10.9 10.4935 10.2122C10.5791 10.3326 10.6752 10.4465 10.781 10.5523C11.2811 11.0524 11.9594 11.3334 12.6666 11.3334C13.3739 11.3334 14.0522 11.0524 14.5523 10.5523C15.0523 10.0522 15.3333 9.37395 15.3333 8.6667V7.99999C15.3332 6.34488 14.7732 4.73848 13.7444 3.44198C12.7155 2.14549 11.2784 1.23516 9.66657 0.859011ZM5.99996 8.00004C5.99996 6.89547 6.89539 6.00004 7.99996 6.00004C9.10453 6.00004 9.99996 6.89547 9.99996 8.00004C9.99996 9.10461 9.10453 10 7.99996 10C6.89539 10 5.99996 9.10461 5.99996 8.00004Z" fill="#18202A"/>
</g>
<defs>
<clipPath id="clip0_2266_30465">
<rect width="16" height="16" fill="white"/>
</clipPath>
</defs>
</svg>
