<svg width="16" height="16" viewBox="0 0 16 16" fill="none" xmlns="http://www.w3.org/2000/svg">
<g clip-path="url(#clip0_2266_40211)">
<path fill-rule="evenodd" clip-rule="evenodd" d="M7.99999 14.3333C11.4978 14.3333 14.3333 11.4978 14.3333 7.99996C14.3333 4.50216 11.4978 1.66663 7.99999 1.66663C4.50219 1.66663 1.66666 4.50216 1.66666 7.99996C1.66666 11.4978 4.50219 14.3333 7.99999 14.3333ZM7.99999 15.3333C12.0501 15.3333 15.3333 12.05 15.3333 7.99996C15.3333 3.94987 12.0501 0.666626 7.99999 0.666626C3.9499 0.666626 0.666656 3.94987 0.666656 7.99996C0.666656 12.05 3.9499 15.3333 7.99999 15.3333Z" fill="#18202A"/>
<path fill-rule="evenodd" clip-rule="evenodd" d="M6.97977 4.97974C7.17503 4.78448 7.49161 4.78448 7.68688 4.97974L10.3535 7.64641C10.5488 7.84167 10.5488 8.15825 10.3535 8.35351L7.68688 11.0202C7.49161 11.2154 7.17503 11.2154 6.97977 11.0202C6.78451 10.8249 6.78451 10.5083 6.97977 10.3131L9.29288 7.99996L6.97977 5.68685C6.78451 5.49158 6.78451 5.175 6.97977 4.97974Z" fill="#18202A"/>
</g>
<defs>
<clipPath id="clip0_2266_40211">
<rect width="16" height="16" fill="white"/>
</clipPath>
</defs>
</svg>
