<svg width="16" height="16" viewBox="0 0 16 16" fill="none" xmlns="http://www.w3.org/2000/svg">
<g clip-path="url(#clip0_2266_41057)">
<path d="M9.33333 6.125C9.33333 7.16667 8.88889 8 8 8C7.11111 8 6.66667 7.16667 6.66667 6.125C6.66667 5.29167 7.11111 4.66667 8 4.66667C8.88889 4.66667 9.33333 5.29167 9.33333 6.125Z" fill="#18202A"/>
<path d="M5.33333 6.5C5.33333 7.33333 5 8 4.33333 8C3.66667 8 3.33333 7.33333 3.33333 6.5C3.33333 5.83333 3.66667 5.33333 4.33333 5.33333C5 5.33333 5.33333 5.83333 5.33333 6.5Z" fill="#18202A"/>
<path d="M11.6667 8C12.3333 8 12.6667 7.33333 12.6667 6.5C12.6667 5.83333 12.3333 5.33333 11.6667 5.33333C11 5.33333 10.6667 5.83333 10.6667 6.5C10.6667 7.33333 11 8 11.6667 8Z" fill="#18202A"/>
<path d="M5.56241 8.70952C5.5104 8.7426 5.45909 8.7767 5.40852 8.81179C4.62637 9.35455 4.40355 10.3354 4.67568 11.1555C4.69689 11.2194 4.71888 11.2829 4.74166 11.346C4.38029 11.3397 4.02446 11.3117 3.67555 11.2632C3.26413 11.2061 2.91541 10.9303 2.77507 10.5393C2.74284 10.4496 2.71242 10.359 2.68385 10.2677C2.53671 9.7973 2.72207 9.28066 3.16285 9.06021C3.6821 8.80051 4.27275 8.65365 4.89924 8.65365C5.12553 8.65365 5.34715 8.67281 5.56241 8.70952Z" fill="#18202A"/>
<path d="M11.3245 11.1554C11.3036 11.2186 11.2818 11.2814 11.2593 11.3438C11.6301 11.3333 11.9948 11.3 12.352 11.2452C12.7582 11.1829 13.1004 10.9074 13.2382 10.5201C13.2616 10.4543 13.284 10.388 13.3055 10.3213C13.4536 9.86113 13.283 9.35238 12.8584 9.12128C12.3116 8.82364 11.6791 8.65365 11.0051 8.65365C10.8055 8.65365 10.6095 8.66855 10.4184 8.69726C10.477 8.73416 10.5348 8.77236 10.5917 8.81181C11.3738 9.35456 11.5966 10.3354 11.3245 11.1554Z" fill="#18202A"/>
<path d="M9.23501 12.5712C9.7426 12.4897 10.1783 12.1635 10.3942 11.697C10.5069 11.4537 10.6064 11.2029 10.6918 10.9455C10.885 10.3632 10.7156 9.70928 10.2116 9.35952C9.58151 8.92228 8.82012 8.66667 8.00008 8.66667C7.18005 8.66667 6.41867 8.92227 5.78859 9.3595C5.28455 9.70927 5.11519 10.3632 5.30842 10.9455C5.39384 11.2029 5.49334 11.4538 5.60598 11.697C5.82197 12.1635 6.25763 12.4897 6.7652 12.5713C7.1675 12.6359 7.57994 12.6694 8.00008 12.6694C8.42024 12.6694 8.8327 12.6359 9.23501 12.5712Z" fill="#18202A"/>
<path fill-rule="evenodd" clip-rule="evenodd" d="M8 15C11.866 15 15 11.866 15 8C15 4.13401 11.866 1 8 1C4.13401 1 1 4.13401 1 8C1 11.866 4.13401 15 8 15ZM8 16C12.4183 16 16 12.4183 16 8C16 3.58172 12.4183 0 8 0C3.58172 0 0 3.58172 0 8C0 12.4183 3.58172 16 8 16Z" fill="#18202A"/>
</g>
<defs>
<clipPath id="clip0_2266_41057">
<rect width="16" height="16" fill="white"/>
</clipPath>
</defs>
</svg>
