<svg width="16" height="16" viewBox="0 0 16 16" fill="none" xmlns="http://www.w3.org/2000/svg">
<path fill-rule="evenodd" clip-rule="evenodd" d="M8.75289 2.52969C8.75275 2.52983 8.7526 2.52997 8.75246 2.53011L3.41738 7.89135L3.41652 7.89222C1.99007 9.31867 1.99007 11.6701 3.41652 13.0965C4.84296 14.523 7.19436 14.523 8.6208 13.0965L13.7998 7.9175C13.9951 7.72223 14.3117 7.72223 14.5069 7.9175C14.7022 8.11276 14.7022 8.42934 14.5069 8.6246L9.32791 13.8036C7.51094 15.6206 4.52638 15.6206 2.70941 13.8036C0.8926 11.9868 0.892437 9.00262 2.70892 7.1856C2.70908 7.18544 2.70925 7.18527 2.70941 7.18511L8.04449 1.82387L8.04536 1.82301C9.36535 0.503009 11.5129 0.503009 12.8329 1.82301C14.1529 3.143 14.1529 5.29055 12.8329 6.61054L12.832 6.61147L7.83698 11.5803C7.83678 11.5805 7.83657 11.5807 7.83637 11.5809C7.03541 12.3812 5.73089 12.3704 4.91417 11.5877L4.90656 11.5803C4.10565 10.7794 4.11623 9.47442 4.89912 8.65748L4.90753 8.64892L9.72035 3.86226C9.91614 3.66753 10.2327 3.66839 10.4275 3.86419C10.6222 4.05998 10.6213 4.37656 10.4255 4.57129L5.61733 9.35335C5.20216 9.79071 5.21252 10.4679 5.60995 10.8695C6.04867 11.286 6.72877 11.2743 7.12988 10.8732L7.13081 10.8723L12.1258 5.90344C12.126 5.90328 12.1261 5.90312 12.1263 5.90296C13.0553 4.97344 13.0551 3.45942 12.1258 2.53011C11.1965 1.60078 9.68239 1.60064 8.75289 2.52969Z" fill="#18202A"/>
</svg>
