<svg width="16" height="16" viewBox="0 0 16 16" fill="none" xmlns="http://www.w3.org/2000/svg">
<path d="M6.66663 8.00008C6.66663 8.73646 6.06967 9.33342 5.33329 9.33342C4.59691 9.33342 3.99996 8.73646 3.99996 8.00008C3.99996 7.2637 4.59691 6.66675 5.33329 6.66675C6.06967 6.66675 6.66663 7.2637 6.66663 8.00008Z" fill="#18202A"/>
<path d="M4.83329 10.0001C4.00487 10.0001 3.33329 10.6717 3.33329 11.5001C3.33329 11.7762 3.55715 12.0001 3.83329 12.0001H6.83329C7.10944 12.0001 7.33329 11.7762 7.33329 11.5001C7.33329 10.6717 6.66172 10.0001 5.83329 10.0001H4.83329Z" fill="#18202A"/>
<path d="M9.16663 8.00008C8.89048 8.00008 8.66663 8.22394 8.66663 8.50008C8.66663 8.77622 8.89048 9.00008 9.16663 9.00008H12.1666C12.4428 9.00008 12.6666 8.77622 12.6666 8.50008C12.6666 8.22394 12.4428 8.00008 12.1666 8.00008H9.16663Z" fill="#18202A"/>
<path d="M8.66663 10.5001C8.66663 10.2239 8.89048 10.0001 9.16663 10.0001H12.1666C12.4428 10.0001 12.6666 10.2239 12.6666 10.5001C12.6666 10.7762 12.4428 11.0001 12.1666 11.0001H9.16663C8.89048 11.0001 8.66663 10.7762 8.66663 10.5001Z" fill="#18202A"/>
<path fill-rule="evenodd" clip-rule="evenodd" d="M5.99996 2.66675C5.99996 1.56218 6.89539 0.666748 7.99996 0.666748C9.10453 0.666748 9.99996 1.56218 9.99996 2.66675H12.6666C14.1394 2.66675 15.3333 3.86066 15.3333 5.33342V12.0001C15.3333 13.4728 14.1394 14.6667 12.6666 14.6667H3.33329C1.86053 14.6667 0.666626 13.4728 0.666626 12.0001V5.33342C0.666626 3.86066 1.86053 2.66675 3.33329 2.66675L5.99996 2.66675ZM7.99996 1.66675C8.55224 1.66675 8.99996 2.11446 8.99996 2.66675V4.33341H6.99996V2.66675C6.99996 2.11446 7.44767 1.66675 7.99996 1.66675ZM14.3333 5.33342C14.3333 4.41294 13.5871 3.66675 12.6666 3.66675H9.99996V4.66675C9.99996 5.03494 9.70148 5.33342 9.33329 5.33342H6.66663C6.29844 5.33342 5.99996 5.03494 5.99996 4.66675V3.66675H3.33329C2.41282 3.66675 1.66663 4.41294 1.66663 5.33342V12.0001C1.66663 12.9206 2.41282 13.6667 3.33329 13.6667H12.6666C13.5871 13.6667 14.3333 12.9206 14.3333 12.0001V5.33342Z" fill="#18202A"/>
</svg>
