<svg width="16" height="16" viewBox="0 0 16 16" fill="none" xmlns="http://www.w3.org/2000/svg">
<path d="M6.68051 2.71869C5.15026 2.26914 3.53146 2.21208 1.97337 2.55279C1.7036 2.61178 1.43709 2.44091 1.3781 2.17114C1.31911 1.90137 1.48998 1.63486 1.75974 1.57587C3.48185 1.1993 5.27105 1.26236 6.96238 1.75924C8.6537 2.25611 10.1927 3.17081 11.4375 4.41899C12.6823 5.66718 13.5928 7.20867 14.0851 8.90134C14.5773 10.594 14.6355 12.3834 14.2542 14.1044C14.1945 14.3741 13.9275 14.5442 13.6579 14.4845C13.3883 14.4247 13.2182 14.1578 13.2779 13.8882C13.6229 12.331 13.5702 10.7121 13.1248 9.18059C12.6795 7.64913 11.8557 6.25444 10.7294 5.12514C9.60319 3.99583 8.21075 3.16824 6.68051 2.71869Z" fill="#18202A"/>
<path d="M5.10742 6.45176C4.06386 6.23179 2.97885 6.31996 1.9845 6.70555C1.72703 6.80539 1.43738 6.67761 1.33755 6.42015C1.23771 6.16268 1.36549 5.87304 1.62295 5.7732C2.79809 5.3175 4.08038 5.21329 5.31368 5.47326C6.54698 5.73323 7.6781 6.34616 8.56932 7.23743C9.46054 8.12869 10.0734 9.25984 10.3333 10.4932C10.5932 11.7265 10.4889 13.0088 10.0332 14.1839C9.93333 14.4413 9.64367 14.5691 9.38622 14.4692C9.12876 14.3694 9.00099 14.0797 9.10085 13.8223C9.48649 12.8279 9.57472 11.7429 9.3548 10.6994C9.13488 9.65579 8.6163 8.69866 7.8622 7.94451C7.10809 7.19037 6.15099 6.67173 5.10742 6.45176Z" fill="#18202A"/>
<path fill-rule="evenodd" clip-rule="evenodd" d="M6.66943 12.0002C6.66943 13.4729 5.47552 14.6668 4.00276 14.6668C2.53 14.6668 1.33609 13.4729 1.33609 12.0002C1.33609 10.5274 2.53 9.3335 4.00276 9.3335C5.47552 9.3335 6.66943 10.5274 6.66943 12.0002ZM5.66943 12.0002C5.66943 12.9206 4.92324 13.6668 4.00276 13.6668C3.08229 13.6668 2.33609 12.9206 2.33609 12.0002C2.33609 11.0797 3.08229 10.3335 4.00276 10.3335C4.92324 10.3335 5.66943 11.0797 5.66943 12.0002Z" fill="#18202A"/>
</svg>
