<svg width="16" height="16" viewBox="0 0 16 16" fill="none" xmlns="http://www.w3.org/2000/svg">
<g clip-path="url(#clip0_2301_8429)">
<path fill-rule="evenodd" clip-rule="evenodd" d="M8.49996 1.66667V6.50001C8.49996 7.05229 8.94767 7.50001 9.49996 7.50001H14.3333C14.8856 7.50001 15.3333 7.05229 15.3333 6.50001V4.00001C15.3333 2.15906 13.8409 0.666672 12 0.666672H9.49996C8.94767 0.666672 8.49996 1.11439 8.49996 1.66667ZM7.49996 1.66667C7.49996 1.11439 7.05224 0.666672 6.49996 0.666672H3.99996C2.15901 0.666672 0.666626 2.15906 0.666626 4.00001V12C0.666626 13.841 2.15901 15.3333 3.99996 15.3333H6.49996C7.05224 15.3333 7.49996 14.8856 7.49996 14.3333V1.66667ZM8.49996 9.50001V14.3333C8.49996 14.8856 8.94767 15.3333 9.49996 15.3333H12C13.8409 15.3333 15.3333 13.841 15.3333 12V9.50001C15.3333 8.94772 14.8856 8.50001 14.3333 8.50001H9.49996C8.94767 8.50001 8.49996 8.94772 8.49996 9.50001ZM9.49996 14.3333H12C13.2886 14.3333 14.3333 13.2887 14.3333 12V9.50001H9.49996V14.3333ZM9.49996 6.50001H14.3333V4.00001C14.3333 2.71134 13.2886 1.66667 12 1.66667H9.49996V6.50001ZM6.49996 1.66667H3.99996C2.7113 1.66667 1.66663 2.71134 1.66663 4.00001V12C1.66663 13.2887 2.7113 14.3333 3.99996 14.3333H6.49996V1.66667Z" fill="#18202A"/>
</g>
<defs>
<clipPath id="clip0_2301_8429">
<rect width="16" height="16" fill="white"/>
</clipPath>
</defs>
</svg>
