<svg width="16" height="16" viewBox="0 0 16 16" fill="none" xmlns="http://www.w3.org/2000/svg">
<g clip-path="url(#clip0_2266_38689)">
<path fill-rule="evenodd" clip-rule="evenodd" d="M16 8C16 8.57154 15.9401 9.12907 15.8261 9.66667H15.1431C14.5128 12.3783 12.3783 14.5128 9.66667 15.143V14.1116C11.8248 13.5245 13.5245 11.8248 14.1117 9.66667H11.6373C11.2381 10.5363 10.5363 11.2381 9.66667 11.6372V10.4947C9.99396 10.2756 10.2757 9.99384 10.4948 9.66655C10.5573 9.57318 10.6148 9.47611 10.6667 9.37574C10.7813 9.15407 10.869 8.91628 10.9257 8.66667C10.9743 8.45226 11 8.22913 11 8C11 7.77087 10.9743 7.54774 10.9257 7.33333C10.869 7.08372 10.7813 6.84594 10.6667 6.62427C10.6148 6.52385 10.5573 6.42674 10.4948 6.33333H15.8261C15.9401 6.87093 16 7.42847 16 8ZM14.9687 8.66667H11.9445C11.981 8.4497 12 8.22695 12 8C12 7.77305 11.981 7.5503 11.9445 7.33333H14.9687C14.9894 7.55257 15 7.77494 15 8C15 8.22506 14.9894 8.44743 14.9687 8.66667Z" fill="#18202A"/>
<path fill-rule="evenodd" clip-rule="evenodd" d="M8 0C8.57154 0 9.12907 0.0599337 9.66667 0.173859V5.50518C9.57326 5.44266 9.47615 5.38524 9.37573 5.33333C9.15406 5.21874 8.91628 5.13098 8.66667 5.07434C8.45226 5.02569 8.22913 5 8 5C7.77087 5 7.54774 5.02569 7.33333 5.07434C7.08372 5.13098 6.84594 5.21874 6.62427 5.33333C6.52385 5.38524 6.42674 5.44266 6.33333 5.50518C6.00604 5.72426 5.72427 6.00592 5.50519 6.33321H4.3627C4.76184 5.46357 5.46369 4.76172 6.33334 4.36258V1.88813C4.17516 2.47528 2.47541 4.17504 1.88826 6.33321H0.856893C1.4871 3.62151 3.62163 1.48698 6.33334 0.856771L6.33333 0.173859C6.87093 0.0599337 7.42847 0 8 0ZM8.66667 1.03126V4.05545C8.4497 4.01898 8.22695 4 8 4C7.77305 4 7.5503 4.01898 7.33333 4.05545V1.03126C7.55257 1.01059 7.77494 1 8 1C8.22506 1 8.44743 1.01059 8.66667 1.03126Z" fill="#18202A"/>
<path fill-rule="evenodd" clip-rule="evenodd" d="M0 8C0 7.42847 0.0599337 6.87093 0.173859 6.33333L5.50519 6.33321C5.44266 6.42662 5.38524 6.52385 5.33333 6.62427C5.21874 6.84594 5.13098 7.08372 5.07434 7.33333C5.02569 7.54774 5 7.77087 5 8C5 8.22913 5.02569 8.45226 5.07434 8.66667C5.13098 8.91628 5.21874 9.15406 5.33333 9.37573C5.38522 9.47611 5.44261 9.57318 5.5051 9.66655C5.72418 9.99384 6.00605 10.2756 6.33334 10.4947C6.42674 10.5572 6.52385 10.6148 6.62427 10.6667C6.84594 10.7813 7.08372 10.869 7.33333 10.9257C7.54774 10.9743 7.77087 11 8 11C8.22913 11 8.45226 10.9743 8.66667 10.9257C8.91628 10.869 9.15406 10.7813 9.37573 10.6667C9.47615 10.6148 9.57327 10.5572 9.66667 10.4947L9.66667 15.8261C9.12907 15.9401 8.57154 16 8 16C7.42847 16 6.87093 15.9401 6.33333 15.8261L6.33334 15.143C3.62167 14.5128 1.48716 12.3783 0.856921 9.66667H0.173859C0.0599337 9.12907 0 8.57154 0 8ZM1.88829 9.66667C2.47547 11.8248 4.1752 13.5245 6.33334 14.1116V11.6372C5.46373 11.2381 4.7619 10.5363 4.36275 9.66667H1.88829ZM1.03126 7.33333H4.05545C4.01898 7.5503 4 7.77305 4 8C4 8.22695 4.01898 8.4497 4.05545 8.66667H1.03126C1.01059 8.44743 1 8.22506 1 8C1 7.77494 1.01059 7.55257 1.03126 7.33333ZM7.33333 14.9687V11.9445C7.5503 11.981 7.77305 12 8 12C8.22695 12 8.4497 11.981 8.66667 11.9445V14.9687C8.44743 14.9894 8.22506 15 8 15C7.77494 15 7.55257 14.9894 7.33333 14.9687Z" fill="#18202A"/>
<path d="M14.1118 6.33321H15.1431C14.5129 3.62151 12.3784 1.48698 9.66667 0.856771V1.88813C11.8249 2.47528 13.5246 4.17504 14.1118 6.33321Z" fill="#18202A"/>
<path d="M10.4948 6.33333C10.2757 6.00604 9.99396 5.72427 9.66667 5.50518L9.66667 4.36258C10.5363 4.76171 11.2382 5.46357 11.6373 6.33321L10.4948 6.33333Z" fill="#18202A"/>
</g>
<defs>
<clipPath id="clip0_2266_38689">
<rect width="16" height="16" fill="white"/>
</clipPath>
</defs>
</svg>
