<svg width="16" height="16" viewBox="0 0 16 16" fill="none" xmlns="http://www.w3.org/2000/svg">
<g clip-path="url(#clip0_2266_37295)">
<path fill-rule="evenodd" clip-rule="evenodd" d="M15.3333 7.99996C15.3333 3.94987 12.0501 0.666626 8 0.666626C3.94991 0.666626 0.666666 3.94987 0.666667 7.99996C0.666667 12.05 3.94991 15.3333 8 15.3333C12.0501 15.3333 15.3333 12.05 15.3333 7.99996ZM4.86193 8.19522C4.60158 8.45557 4.60158 8.87768 4.86193 9.13803C5.12228 9.39838 5.54439 9.39838 5.80474 9.13803L8 6.94277L10.1953 9.13803C10.4556 9.39838 10.8777 9.39838 11.1381 9.13803C11.3984 8.87768 11.3984 8.45557 11.1381 8.19522L8.4714 5.52855C8.21106 5.26821 7.78895 5.26821 7.5286 5.52855L4.86193 8.19522Z" fill="#18202A"/>
</g>
<defs>
<clipPath id="clip0_2266_37295">
<rect width="16" height="16" fill="white"/>
</clipPath>
</defs>
</svg>
