<svg width="16" height="16" viewBox="0 0 16 16" fill="none" xmlns="http://www.w3.org/2000/svg">
<path fill-rule="evenodd" clip-rule="evenodd" d="M6.35355 12.3536C6.54882 12.1583 6.54882 11.8417 6.35355 11.6464C6.15829 11.4512 5.84171 11.4512 5.64645 11.6464L4.5 12.7929L4.5 3.20711L5.64645 4.35355C5.84171 4.54882 6.15829 4.54882 6.35355 4.35355C6.54882 4.15829 6.54882 3.84171 6.35355 3.64645L4.35355 1.64645C4.15829 1.45118 3.84171 1.45118 3.64645 1.64645L1.64645 3.64645C1.45118 3.84171 1.45118 4.15829 1.64645 4.35355C1.84171 4.54881 2.15829 4.54882 2.35355 4.35355L3.5 3.20711L3.5 12.7929L2.35355 11.6464C2.15829 11.4512 1.84171 11.4512 1.64645 11.6464C1.45118 11.8417 1.45118 12.1583 1.64645 12.3536L3.64645 14.3536C3.84171 14.5488 4.15829 14.5488 4.35355 14.3536L6.35355 12.3536ZM8.5 4C8.22386 4 8 4.22386 8 4.5C8 4.77614 8.22386 5 8.5 5H14.1667C14.4428 5 14.6667 4.77614 14.6667 4.5C14.6667 4.22386 14.4428 4 14.1667 4H8.5ZM8.5 6.33333C8.22386 6.33333 8 6.55719 8 6.83333C8 7.10948 8.22386 7.33333 8.5 7.33333H14.1667C14.4428 7.33333 14.6667 7.10948 14.6667 6.83333C14.6667 6.55719 14.4428 6.33333 14.1667 6.33333H8.5ZM8 9.16667C8 8.89052 8.22386 8.66667 8.5 8.66667H14.1667C14.4428 8.66667 14.6667 8.89052 14.6667 9.16667C14.6667 9.44281 14.4428 9.66667 14.1667 9.66667H8.5C8.22386 9.66667 8 9.44281 8 9.16667ZM8.5 11C8.22386 11 8 11.2239 8 11.5C8 11.7761 8.22386 12 8.5 12H14.1667C14.4428 12 14.6667 11.7761 14.6667 11.5C14.6667 11.2239 14.4428 11 14.1667 11H8.5Z" fill="#18202A"/>
</svg>
