<svg width="16" height="16" viewBox="0 0 16 16" fill="none" xmlns="http://www.w3.org/2000/svg">
<path d="M4.43833 3.81201C2.76024 4.88892 1.50364 6.46317 0.881604 7.34284C0.600867 7.73985 0.600867 8.25999 0.881603 8.65699C1.88981 10.0828 4.56501 13.3333 8.00002 13.3333C9.63677 13.3333 11.101 12.5952 12.2946 11.6683L11.5814 10.9551C10.5102 11.7652 9.29278 12.3333 8.00002 12.3333C6.60197 12.3333 5.29208 11.6689 4.15989 10.7525C3.03454 9.84165 2.17452 8.75339 1.69809 8.07963C1.67794 8.05114 1.67105 8.02383 1.67105 7.99992C1.67105 7.97601 1.67794 7.9487 1.69809 7.92021C2.17452 7.24645 3.03454 6.15818 4.15989 5.24735C4.48103 4.98743 4.81645 4.74778 5.16414 4.53782L4.43833 3.81201Z" fill="#18202A"/>
<path d="M6.45353 5.82722C5.77548 6.31071 5.33334 7.10368 5.33334 7.99992C5.33334 9.47268 6.52725 10.6666 8.00001 10.6666C8.89625 10.6666 9.68922 10.2244 10.1727 9.5464L9.44949 8.82317C9.16278 9.32689 8.62106 9.66659 8.00001 9.66659C7.07954 9.66659 6.33334 8.92039 6.33334 7.99992C6.33334 7.37887 6.67304 6.83715 7.17676 6.55044L6.45353 5.82722Z" fill="#18202A"/>
<path d="M8.4297 6.38917L7.43398 5.39345C7.61641 5.35402 7.80578 5.33325 8.00001 5.33325C9.47277 5.33325 10.6667 6.52716 10.6667 7.99992C10.6667 8.19415 10.6459 8.38352 10.6065 8.56595L9.61076 7.57023C9.45773 6.99509 9.00484 6.5422 8.4297 6.38917Z" fill="#18202A"/>
<path d="M12.3517 10.3112C13.2269 9.5091 13.9006 8.64726 14.302 8.07963C14.3221 8.05114 14.329 8.02383 14.329 7.99992C14.329 7.97601 14.3221 7.9487 14.302 7.92021C13.8255 7.24645 12.9655 6.15818 11.8401 5.24735C10.708 4.33098 9.39806 3.66659 8.00002 3.66659C7.345 3.66659 6.70933 3.81243 6.10223 4.0617L5.34495 3.30442C6.15915 2.91492 7.05056 2.66659 8.00002 2.66659C11.435 2.66659 14.1102 5.91707 15.1184 7.34284C15.3992 7.73985 15.3992 8.25999 15.1184 8.657C14.6989 9.25025 13.9908 10.1594 13.0594 11.0189L12.3517 10.3112Z" fill="#18202A"/>
<path fill-rule="evenodd" clip-rule="evenodd" d="M1.97979 1.9797C2.17505 1.78444 2.49163 1.78444 2.6869 1.9797L14.0202 13.313C14.2155 13.5083 14.2155 13.8249 14.0202 14.0201C13.825 14.2154 13.5084 14.2154 13.3131 14.0201L1.97979 2.68681C1.78453 2.49154 1.78453 2.17496 1.97979 1.9797Z" fill="#18202A"/>
</svg>
