<svg width="16" height="16" viewBox="0 0 16 16" fill="none" xmlns="http://www.w3.org/2000/svg">
<g clip-path="url(#clip0_2266_40686)">
<path fill-rule="evenodd" clip-rule="evenodd" d="M10.6667 3.58366C10.6667 5.66699 9.77777 7.33366 7.99999 7.33366C6.22221 7.33366 5.33332 5.66699 5.33332 3.58366C5.33332 1.91699 6.22221 0.666992 7.99999 0.666992C9.77777 0.666992 10.6667 1.91699 10.6667 3.58366ZM9.66666 3.58366C9.66666 4.5024 9.46777 5.22838 9.164 5.69116C8.88715 6.11292 8.52169 6.33366 7.99999 6.33366C7.47829 6.33366 7.11283 6.11292 6.83598 5.69116C6.53221 5.22838 6.33332 4.5024 6.33332 3.58366C6.33332 2.9171 6.51135 2.44163 6.76068 2.14944C6.99073 1.87985 7.364 1.66699 7.99999 1.66699C8.63598 1.66699 9.00925 1.87985 9.2393 2.14944C9.48863 2.44163 9.66666 2.9171 9.66666 3.58366ZM8.65745 14.3144C8.79909 14.6587 8.98381 14.9808 9.20489 15.2739C8.80862 15.3134 8.40667 15.3337 7.99999 15.3337C6.96839 15.3337 5.9672 15.2035 5.01194 14.9587C4.19924 14.7504 3.51045 14.206 3.13322 13.4567C3.0214 13.2345 2.91712 13.008 2.82071 12.7773C2.41103 11.7971 2.5743 10.6503 3.33287 9.90649C4.53541 8.72739 6.18279 8.00033 7.99999 8.00033C9.05922 8.00033 10.0607 8.24735 10.9501 8.68694C10.5703 8.85095 10.2187 9.06772 9.90441 9.32802C9.30934 9.11578 8.66833 9.00033 7.99999 9.00033C6.45503 9.00033 5.05616 9.61728 4.03298 10.6205C3.60375 11.0414 3.47042 11.7386 3.74336 12.3917C3.83068 12.6006 3.92514 12.8058 4.02644 13.007C4.27065 13.4922 4.72062 13.8517 5.26019 13.99C6.13502 14.2142 7.05283 14.3337 7.99999 14.3337C8.22079 14.3337 8.44 14.3272 8.65745 14.3144ZM16 12.667C16 14.5079 14.5076 16.0003 12.6667 16.0003C10.8257 16.0003 9.33332 14.5079 9.33332 12.667C9.33332 10.826 10.8257 9.33366 12.6667 9.33366C14.5076 9.33366 16 10.826 16 12.667ZM12.6667 10.2003C12.2936 10.2003 11.9792 10.2259 11.739 10.2558C11.1817 10.3252 10.8333 10.8069 10.8333 11.3079V11.4528C10.8333 11.7641 10.957 12.0625 11.177 12.2826C11.3723 12.4779 11.6889 12.4779 11.8841 12.2826C12.0794 12.0874 12.0794 11.7708 11.8841 11.5755C11.8516 11.543 11.8333 11.4988 11.8333 11.4528L11.8333 11.3079C11.8333 11.2811 11.8424 11.2639 11.8488 11.2561C11.8519 11.2523 11.8542 11.2508 11.8553 11.2502C11.8561 11.2498 11.8579 11.2488 11.8626 11.2482C12.0662 11.2228 12.3392 11.2003 12.6667 11.2003C12.9686 11.2003 13.2243 11.2195 13.422 11.2423C13.4421 11.2447 13.457 11.2528 13.4704 11.269C13.4856 11.2873 13.5 11.3187 13.5 11.3614C13.5 11.611 13.3545 11.8378 13.1275 11.9418L12.7614 12.1096C12.399 12.2756 12.1667 12.6377 12.1667 13.0363C12.1667 13.3125 12.3905 13.5363 12.6667 13.5363C12.9428 13.5363 13.1667 13.3125 13.1667 13.0363C13.1667 13.0287 13.1711 13.0218 13.178 13.0187L13.5441 12.8508C14.1266 12.5839 14.5 12.002 14.5 11.3614C14.5 10.8296 14.1299 10.3176 13.5369 10.249C13.3049 10.2221 13.0107 10.2003 12.6667 10.2003ZM12.6667 15.3337C13.0348 15.3337 13.3333 15.0352 13.3333 14.667C13.3333 14.2988 13.0348 14.0003 12.6667 14.0003C12.2985 14.0003 12 14.2988 12 14.667C12 15.0352 12.2985 15.3337 12.6667 15.3337Z" fill="#18202A"/>
</g>
<defs>
<clipPath id="clip0_2266_40686">
<rect width="16" height="16" fill="white"/>
</clipPath>
</defs>
</svg>
