<svg width="16" height="16" viewBox="0 0 16 16" fill="none" xmlns="http://www.w3.org/2000/svg">
<path fill-rule="evenodd" clip-rule="evenodd" d="M11.7321 2.58819C11.8288 2.63991 11.9367 2.66698 12.0464 2.66699H12C13.8409 2.66699 15.3333 4.15938 15.3333 6.00033V11.3337C15.3333 13.1746 13.8409 14.667 12 14.667H4C2.15905 14.667 0.666667 13.1746 0.666667 11.3337V6.00033C0.666667 4.15938 2.15905 2.66699 4 2.66699H3.95345C4.06311 2.66698 4.17107 2.63991 4.26777 2.58819C4.36453 2.53644 4.44702 2.4616 4.50792 2.37033L5.04925 1.55766C5.23187 1.2837 5.4793 1.05907 5.76958 0.903696C6.05986 0.748323 6.38401 0.667016 6.71325 0.666992H9.28659C9.61583 0.667016 9.93998 0.748323 10.2303 0.903696C10.5205 1.05907 10.768 1.2837 10.9506 1.55766L11.4919 2.37033C11.5528 2.4616 11.6353 2.53644 11.7321 2.58819ZM5.97657 6.51701C6.49138 5.99187 7.2073 5.66699 8 5.66699C9.23721 5.66699 10.2892 6.45998 10.6755 7.56542L9.92929 7.67202C9.72909 7.70062 9.56583 7.847 9.51564 8.0429C9.46545 8.23881 9.53822 8.44565 9.7 8.56699L11.0333 9.56699C11.2542 9.73268 11.5677 9.68791 11.7333 9.46699L12.7333 8.13366C12.8547 7.97187 12.8666 7.75293 12.7636 7.57891C12.6605 7.4049 12.4628 7.31008 12.2626 7.33868L11.6796 7.42198C11.2138 5.82987 9.74268 4.66699 8 4.66699C6.92777 4.66699 5.95761 5.10787 5.26247 5.81697C5.06916 6.01416 5.07231 6.33073 5.2695 6.52404C5.46669 6.71735 5.78326 6.71421 5.97657 6.51701ZM4.96667 7.43366C4.74575 7.26797 4.43235 7.31275 4.26667 7.53366L3.26667 8.86699C3.14533 9.02878 3.1334 9.24772 3.23643 9.42174C3.33947 9.59575 3.53718 9.69057 3.73738 9.66197L4.32043 9.57867C4.78625 11.1708 6.25732 12.3337 8 12.3337C9.07223 12.3337 10.0424 11.8928 10.7375 11.1837C10.9308 10.9865 10.9277 10.6699 10.7305 10.4766C10.5333 10.2833 10.2167 10.2864 10.0234 10.4836C9.50862 11.0088 8.7927 11.3337 8 11.3337C6.76279 11.3337 5.71079 10.5407 5.32454 9.43523L6.07071 9.32863C6.27091 9.30003 6.43417 9.15365 6.48436 8.95775C6.53455 8.76185 6.46179 8.555 6.3 8.43366L4.96667 7.43366Z" fill="#18202A"/>
</svg>
