<svg width="16" height="16" viewBox="0 0 16 16" fill="none" xmlns="http://www.w3.org/2000/svg">
<path d="M4 3C4 3.55228 4.44772 4 5 4C5.55228 4 6 3.55228 6 3C6 2.44772 5.55228 2 5 2C4.44772 2 4 2.44772 4 3Z" fill="#18202A"/>
<path d="M10 3C10 3.55228 10.4477 4 11 4C11.5523 4 12 3.55228 12 3C12 2.44772 11.5523 2 11 2C10.4477 2 10 2.44772 10 3Z" fill="#18202A"/>
<path d="M11 9C10.4477 9 10 8.55229 10 8C10 7.44772 10.4477 7 11 7C11.5523 7 12 7.44772 12 8C12 8.55229 11.5523 9 11 9Z" fill="#18202A"/>
<path d="M4 8C4 8.55229 4.44772 9 5 9C5.55228 9 6 8.55229 6 8C6 7.44772 5.55229 7 5 7C4.44772 7 4 7.44772 4 8Z" fill="#18202A"/>
<path d="M11 14C10.4477 14 10 13.5523 10 13C10 12.4477 10.4477 12 11 12C11.5523 12 12 12.4477 12 13C12 13.5523 11.5523 14 11 14Z" fill="#18202A"/>
<path d="M4 13C4 13.5523 4.44772 14 5 14C5.55229 14 6 13.5523 6 13C6 12.4477 5.55229 12 5 12C4.44772 12 4 12.4477 4 13Z" fill="#18202A"/>
</svg>
