<svg width="16" height="16" viewBox="0 0 16 16" fill="none" xmlns="http://www.w3.org/2000/svg">
<g clip-path="url(#clip0_2266_35293)">
<path fill-rule="evenodd" clip-rule="evenodd" d="M6.16667 1C6.16667 0.723858 5.94281 0.5 5.66667 0.5C5.39052 0.5 5.16667 0.723858 5.16667 1V2.33333C5.16667 2.60948 5.39052 2.83333 5.66667 2.83333C5.94281 2.83333 6.16667 2.60948 6.16667 2.33333V1ZM2.68689 1.97978C2.49162 1.78452 2.17504 1.78452 1.97978 1.97978C1.78452 2.17504 1.78452 2.49162 1.97978 2.68689L2.97978 3.68689C3.17504 3.88215 3.49162 3.88215 3.68689 3.68689C3.88215 3.49162 3.88215 3.17504 3.68689 2.97978L2.68689 1.97978ZM1 5.16667C0.723858 5.16667 0.5 5.39052 0.5 5.66667C0.5 5.94281 0.723858 6.16667 1 6.16667H2.33333C2.60948 6.16667 2.83333 5.94281 2.83333 5.66667C2.83333 5.39052 2.60948 5.16667 2.33333 5.16667H1ZM9.83333 15C9.83333 15.2761 10.0572 15.5 10.3333 15.5C10.6095 15.5 10.8333 15.2761 10.8333 15V13.6667C10.8333 13.3905 10.6095 13.1667 10.3333 13.1667C10.0572 13.1667 9.83333 13.3905 9.83333 13.6667V15ZM13.3131 14.0202C13.5084 14.2155 13.825 14.2155 14.0202 14.0202C14.2155 13.825 14.2155 13.5084 14.0202 13.3131L13.0202 12.3131C12.825 12.1179 12.5084 12.1179 12.3131 12.3131C12.1179 12.5084 12.1179 12.825 12.3131 13.0202L13.3131 14.0202ZM15 10.8333C15.2761 10.8333 15.5 10.6095 15.5 10.3333C15.5 10.0572 15.2761 9.83333 15 9.83333H13.6667C13.3905 9.83333 13.1667 10.0572 13.1667 10.3333C13.1667 10.6095 13.3905 10.8333 13.6667 10.8333H15ZM2.46094 13.539C0.963932 12.042 0.963932 9.61489 2.46094 8.11788L3.87516 6.70366C4.07042 6.5084 4.387 6.5084 4.58226 6.70366C4.77752 6.89892 4.77752 7.21551 4.58226 7.41077L3.16805 8.82498C2.06156 9.93147 2.06156 11.7254 3.16805 12.8319C4.27453 13.9384 6.0685 13.9384 7.17499 12.8319L8.5892 11.4177C8.78446 11.2224 9.10104 11.2224 9.29631 11.4177C9.49157 11.613 9.49157 11.9296 9.29631 12.1248L7.88209 13.539C6.38508 15.036 3.95795 15.036 2.46094 13.539ZM8.11783 2.46098C9.61484 0.963973 12.042 0.963973 13.539 2.46098C15.036 3.95799 15.036 6.38512 13.539 7.88213L12.1248 9.29635C11.9295 9.49161 11.6129 9.49161 11.4177 9.29635C11.2224 9.10109 11.2224 8.7845 11.4177 8.58924L12.8319 7.17503C13.9384 6.06854 13.9384 4.27457 12.8319 3.16809C11.7254 2.0616 9.93143 2.0616 8.82494 3.16809L7.41073 4.5823C7.21546 4.77757 6.89888 4.77757 6.70362 4.5823C6.50836 4.38704 6.50836 4.07046 6.70362 3.8752L8.11783 2.46098Z" fill="#18202A"/>
</g>
<defs>
<clipPath id="clip0_2266_35293">
<rect width="16" height="16" fill="white"/>
</clipPath>
</defs>
</svg>
