<svg width="16" height="16" viewBox="0 0 16 16" fill="none" xmlns="http://www.w3.org/2000/svg">
<g clip-path="url(#clip0_3783_8843)">
<g clip-path="url(#clip1_3783_8843)">
<path fill-rule="evenodd" clip-rule="evenodd" d="M12.6666 0.666992C11.9302 0.666992 11.3333 1.26395 11.3333 2.00033V2.16699H9.99996C8.98744 2.16699 8.16663 2.9878 8.16663 4.00033V7.50033H4.66663V7.33366C4.66663 6.59728 4.06967 6.00033 3.33329 6.00033H1.99996C1.26358 6.00033 0.666626 6.59728 0.666626 7.33366V8.66699C0.666626 9.40337 1.26358 10.0003 1.99996 10.0003H3.33329C4.06967 10.0003 4.66663 9.40337 4.66663 8.66699V8.50033H8.16663V12.0003C8.16663 13.0128 8.98744 13.8337 9.99996 13.8337H11.3333V14.0003C11.3333 14.7367 11.9302 15.3337 12.6666 15.3337H14C14.7363 15.3337 15.3333 14.7367 15.3333 14.0003V12.667C15.3333 11.9306 14.7363 11.3337 14 11.3337H12.6666C11.9302 11.3337 11.3333 11.9306 11.3333 12.667V12.8337H9.99996C9.53972 12.8337 9.16663 12.4606 9.16663 12.0003V8.50033H11.3333V8.66699C11.3333 9.40337 11.9302 10.0003 12.6666 10.0003H14C14.7363 10.0003 15.3333 9.40337 15.3333 8.66699V7.33366C15.3333 6.59728 14.7363 6.00033 14 6.00033H12.6666C11.9302 6.00033 11.3333 6.59728 11.3333 7.33366V7.50033H9.16663V4.00033C9.16663 3.54009 9.53972 3.16699 9.99996 3.16699H11.3333V3.33366C11.3333 4.07004 11.9302 4.66699 12.6666 4.66699H14C14.7363 4.66699 15.3333 4.07004 15.3333 3.33366V2.00033C15.3333 1.26395 14.7363 0.666992 14 0.666992H12.6666ZM14.3333 2.00033C14.3333 1.81623 14.1841 1.66699 14 1.66699H12.6666C12.4825 1.66699 12.3333 1.81623 12.3333 2.00033V3.33366C12.3333 3.51775 12.4825 3.66699 12.6666 3.66699H14C14.1841 3.66699 14.3333 3.51775 14.3333 3.33366V2.00033ZM3.66663 7.33366C3.66663 7.14956 3.51739 7.00033 3.33329 7.00033H1.99996C1.81586 7.00033 1.66663 7.14956 1.66663 7.33366V8.66699C1.66663 8.85109 1.81586 9.00033 1.99996 9.00033H3.33329C3.51739 9.00033 3.66663 8.85109 3.66663 8.66699V7.33366ZM12.3333 7.33366C12.3333 7.14956 12.4825 7.00033 12.6666 7.00033H14C14.1841 7.00033 14.3333 7.14956 14.3333 7.33366V8.66699C14.3333 8.85109 14.1841 9.00033 14 9.00033H12.6666C12.4825 9.00033 12.3333 8.85109 12.3333 8.66699V7.33366ZM14.3333 12.667C14.3333 12.4829 14.1841 12.3337 14 12.3337H12.6666C12.4825 12.3337 12.3333 12.4829 12.3333 12.667V14.0003C12.3333 14.1844 12.4825 14.3337 12.6666 14.3337H14C14.1841 14.3337 14.3333 14.1844 14.3333 14.0003V12.667Z" fill="#18202A"/>
</g>
</g>
<defs>
<clipPath id="clip0_3783_8843">
<rect width="16" height="16" fill="white"/>
</clipPath>
<clipPath id="clip1_3783_8843">
<rect width="16" height="16" fill="white"/>
</clipPath>
</defs>
</svg>
