<svg width="16" height="16" viewBox="0 0 16 16" fill="none" xmlns="http://www.w3.org/2000/svg">
<path fill-rule="evenodd" clip-rule="evenodd" d="M11.6116 2C12.0979 2 12.5456 2.26471 12.7799 2.69078L15.1162 6.93855C15.257 7.19463 15.3099 7.48988 15.2665 7.7789L14.5037 12.8645C14.4058 13.5171 13.8451 14 13.1851 14H2.81492C2.15492 14 1.59424 13.5171 1.49634 12.8645L0.733503 7.7789C0.690151 7.48988 0.742957 7.19463 0.883798 6.93855L3.22008 2.69078C3.45441 2.26471 3.90211 2 4.38836 2H11.6116ZM1.86459 7.33333H5.33333C5.70152 7.33333 5.98912 7.64 6.10958 7.98793C6.3807 8.77102 7.12468 9.33333 8 9.33333C8.87532 9.33333 9.6193 8.77102 9.89042 7.98793C10.0109 7.64 10.2985 7.33333 10.6667 7.33333H14.1354L11.9273 3.17695C11.8695 3.06806 11.7563 3 11.633 3H4.36704C4.24374 3 4.13051 3.06806 4.07266 3.17695L1.86459 7.33333ZM8 10.3333C9.22285 10.3333 10.2748 9.60169 10.742 8.55227C10.7995 8.42321 10.9237 8.33333 11.065 8.33333H14.1721L13.5147 12.7161C13.4903 12.8793 13.3501 13 13.1851 13H2.81492C2.64992 13 2.50975 12.8793 2.48527 12.7161L1.82786 8.33333H4.93498C5.07625 8.33333 5.20052 8.42321 5.25798 8.55227C5.72518 9.60169 6.77715 10.3333 8 10.3333Z" fill="#18202A"/>
</svg>
