<svg width="16" height="16" viewBox="0 0 16 16" fill="none" xmlns="http://www.w3.org/2000/svg">
<path fill-rule="evenodd" clip-rule="evenodd" d="M8.91185 11.9998H12.7879C14.1937 11.9998 15.3333 10.8059 15.3333 9.33317V3.33317C15.3333 1.86041 14.1937 0.666504 12.7879 0.666504H3.87879C2.47297 0.666504 1.33333 1.86041 1.33333 3.33317V3.52256C1.33333 3.78615 1.54702 3.99984 1.81061 3.99984C2.0742 3.99984 2.28788 3.78615 2.28788 3.52256V3.33317C2.28788 2.4127 3.00015 1.6665 3.87879 1.6665H12.7879C13.6665 1.6665 14.3788 2.4127 14.3788 3.33317V9.33317C14.3788 10.2536 13.6665 10.9998 12.7879 10.9998H8.91185C8.74013 10.9998 8.5716 11.0484 8.424 11.1403L4.93942 13.3109L5.16023 12.2045C5.21906 11.9098 5.14798 11.6029 4.96672 11.3692C4.78546 11.1355 4.51333 10.9998 4.22589 10.9998H3.87879C3.13364 10.9998 2.50815 10.4632 2.33529 9.73864C2.28285 9.51888 2.10472 9.33317 1.87879 9.33317C1.57754 9.33317 1.3277 9.57966 1.38596 9.87522C1.41714 10.0334 1.46171 10.1866 1.51836 10.3332C1.82132 11.1173 2.46992 11.716 3.26622 11.9221C3.46243 11.9729 3.6676 11.9998 3.87879 11.9998H4.22589L3.85692 13.8485C3.74356 14.4165 4.32896 14.8546 4.80504 14.558L8.91185 11.9998ZM6.85355 3.81295C6.65829 3.61769 6.34171 3.61769 6.14645 3.81295C5.95118 4.00821 5.95118 4.3248 6.14645 4.52006L7.62623 5.99984H0.5C0.223858 5.99984 0 6.22369 0 6.49984C0 6.77598 0.223858 6.99984 0.5 6.99984H7.62623L6.14645 8.47962C5.95118 8.67488 5.95118 8.99146 6.14645 9.18672C6.34171 9.38199 6.65829 9.38199 6.85355 9.18672L9.18689 6.85339C9.38215 6.65813 9.38215 6.34155 9.18689 6.14628L6.85355 3.81295Z" fill="#18202A"/>
</svg>
