<svg width="16" height="16" viewBox="0 0 16 16" fill="none" xmlns="http://www.w3.org/2000/svg">
<g clip-path="url(#clip0_3875_8919)">
<g clip-path="url(#clip1_3875_8919)">
<path fill-rule="evenodd" clip-rule="evenodd" d="M7.33337 0.666992C6.2288 0.666992 5.33337 1.56242 5.33337 2.66699V3.33366H1.83337C1.55723 3.33366 1.33337 3.55752 1.33337 3.83366C1.33337 4.1098 1.55723 4.33366 1.83337 4.33366H2.66671V11.3337C2.66671 13.5428 4.45757 15.3337 6.66671 15.3337H9.25081C9.01355 15.0302 8.81586 14.6942 8.66548 14.3337H6.66671C5.00985 14.3337 3.66671 12.9905 3.66671 11.3337V4.33366H12.3334V8.34629C12.4434 8.33792 12.5546 8.33366 12.6667 8.33366C12.8934 8.33366 13.1161 8.35107 13.3334 8.38462V4.33366H14.1667C14.4429 4.33366 14.6667 4.1098 14.6667 3.83366C14.6667 3.55752 14.4429 3.33366 14.1667 3.33366H10.6667V2.66699C10.6667 1.56242 9.77128 0.666992 8.66671 0.666992H7.33337ZM9.66671 2.66699C9.66671 2.11471 9.21899 1.66699 8.66671 1.66699H7.33337C6.78109 1.66699 6.33337 2.11471 6.33337 2.66699V3.33366H9.66671V2.66699Z" fill="#18202A"/>
<path d="M8.83337 10.6444C9.08661 10.1654 9.42698 9.73967 9.83337 9.38818V7.33366C9.83337 7.05752 9.60952 6.83366 9.33337 6.83366C9.05723 6.83366 8.83337 7.05752 8.83337 7.33366V10.6444Z" fill="#18202A"/>
<path d="M6.66671 6.83366C6.94285 6.83366 7.16671 7.05752 7.16671 7.33366V11.3337C7.16671 11.6098 6.94285 11.8337 6.66671 11.8337C6.39056 11.8337 6.16671 11.6098 6.16671 11.3337V7.33366C6.16671 7.05752 6.39056 6.83366 6.66671 6.83366Z" fill="#18202A"/>
<path fill-rule="evenodd" clip-rule="evenodd" d="M12.6667 16.0003C14.5077 16.0003 16 14.5079 16 12.667C16 10.826 14.5077 9.33366 12.6667 9.33366C10.8258 9.33366 9.33337 10.826 9.33337 12.667C9.33337 14.5079 10.8258 16.0003 12.6667 16.0003ZM13.1667 11.0003C13.1667 10.7242 12.9429 10.5003 12.6667 10.5003C12.3906 10.5003 12.1667 10.7242 12.1667 11.0003V12.667C12.1667 12.7996 12.2194 12.9268 12.3132 13.0205L13.3132 14.0205C13.5084 14.2158 13.825 14.2158 14.0203 14.0205C14.2155 13.8253 14.2155 13.5087 14.0203 13.3134L13.1667 12.4599V11.0003Z" fill="#18202A"/>
</g>
</g>
<defs>
<clipPath id="clip0_3875_8919">
<rect width="16" height="16" fill="white"/>
</clipPath>
<clipPath id="clip1_3875_8919">
<rect width="16" height="16" fill="white"/>
</clipPath>
</defs>
</svg>
