<svg width="16" height="16" viewBox="0 0 16 16" fill="none" xmlns="http://www.w3.org/2000/svg">
<g clip-path="url(#clip0_2266_34700)">
<path fill-rule="evenodd" clip-rule="evenodd" d="M12 15.3333H10.1666C9.3382 15.3333 8.66663 14.6618 8.66663 13.8333V10.1667C8.66663 9.33824 9.3382 8.66667 10.1666 8.66667H13.8333C14.6617 8.66667 15.3333 9.33824 15.3333 10.1667V12C15.3333 13.841 13.8409 15.3333 12 15.3333ZM15.3333 5.83334C15.3333 6.66177 14.6617 7.33334 13.8333 7.33334H10.1666C9.3382 7.33334 8.66663 6.66177 8.66663 5.83334V2.16667C8.66663 1.33824 9.3382 0.666672 10.1666 0.666672H12C13.8409 0.666672 15.3333 2.15906 15.3333 4.00001V5.83334ZM3.99996 0.666672H5.83329C6.66172 0.666672 7.33329 1.33825 7.33329 2.16667V13.8333C7.33329 14.6618 6.66172 15.3333 5.83329 15.3333H3.99996C2.15901 15.3333 0.666626 13.841 0.666626 12V4.00001C0.666626 2.15906 2.15901 0.666672 3.99996 0.666672Z" fill="#18202A"/>
</g>
<defs>
<clipPath id="clip0_2266_34700">
<rect width="16" height="16" fill="white"/>
</clipPath>
</defs>
</svg>
