<svg width="16" height="16" viewBox="0 0 16 16" fill="none" xmlns="http://www.w3.org/2000/svg">
<g clip-path="url(#clip0_2266_37391)">
<path fill-rule="evenodd" clip-rule="evenodd" d="M0.666667 3.33317C0.666667 1.86041 1.86057 0.666504 3.33333 0.666504H4L2 3.33317H0.666667ZM3.66667 3.33317L5.66667 0.666504H8L6 3.33317H3.66667ZM7.66667 3.33317L9.66667 0.666504H12L10 3.33317H7.66667ZM11.6667 3.33317L13.5534 0.817491C14.5903 1.18297 15.3333 2.17129 15.3333 3.33317H11.6667ZM0.666667 4.6665H15.3333V12.6665C15.3333 14.1393 14.1394 15.3332 12.6667 15.3332H3.33333C1.86057 15.3332 0.666667 14.1393 0.666667 12.6665V4.6665ZM6.93323 7.76277C6.52252 7.51403 6 7.81266 6 8.29612V11.6969C6 12.1804 6.52252 12.479 6.93323 12.2302L9.74083 10.5299C10.1397 10.2883 10.1397 9.70474 9.74083 9.46316L6.93323 7.76277Z" fill="#18202A"/>
</g>
<defs>
<clipPath id="clip0_2266_37391">
<rect width="16" height="16" fill="white"/>
</clipPath>
</defs>
</svg>
