<svg width="16" height="16" viewBox="0 0 16 16" fill="none" xmlns="http://www.w3.org/2000/svg">
<path fill-rule="evenodd" clip-rule="evenodd" d="M2.66667 2C1.19391 2 0 3.19391 0 4.66667V11.3333C0 12.8061 1.19391 14 2.66667 14H9.33333C10.8061 14 12 12.8061 12 11.3333V4.66667C12 3.19391 10.8061 2 9.33333 2H2.66667ZM5.31279 5.82566L7.62834 7.45426C8.00598 7.71986 8.00583 8.27964 7.62806 8.54505L5.31251 10.1719C4.87076 10.4822 4.26259 10.1663 4.26259 9.62639L4.2626 6.37096C4.2626 5.83093 4.87107 5.51498 5.31279 5.82566Z" fill="#18202A"/>
<path d="M12.9438 5.5338C12.7698 5.65908 12.6667 5.86041 12.6667 6.07482V9.92518C12.6667 10.1396 12.7698 10.3409 12.9438 10.4662L14.9438 11.9062C15.3848 12.2237 16 11.9086 16 11.3652V4.63482C16 4.09142 15.3848 3.77629 14.9438 4.0938L12.9438 5.5338Z" fill="#18202A"/>
</svg>
