<svg width="16" height="16" viewBox="0 0 16 16" fill="none" xmlns="http://www.w3.org/2000/svg">
<path fill-rule="evenodd" clip-rule="evenodd" d="M1.33334 3.33301C1.33334 2.22844 2.22877 1.33301 3.33334 1.33301H4.66668C4.94282 1.33301 5.16668 1.55687 5.16668 1.83301C5.16668 2.10915 4.94282 2.33301 4.66668 2.33301H3.33334C2.78106 2.33301 2.33334 2.78072 2.33334 3.33301V4.66634C2.33334 4.94248 2.10949 5.16634 1.83334 5.16634C1.5572 5.16634 1.33334 4.94248 1.33334 4.66634V3.33301ZM5.33334 7.33301C5.0572 7.33301 4.83334 7.10915 4.83334 6.83301V5.83301C4.83334 5.55687 5.0572 5.33301 5.33334 5.33301C5.60948 5.33301 5.83334 5.55687 5.83334 5.83301V6.83301C5.83334 7.10915 5.60948 7.33301 5.33334 7.33301ZM7.50001 5.83301V7.99967C7.50001 8.09174 7.42541 8.16634 7.33334 8.16634H7.16668C6.89054 8.16634 6.66668 8.39021 6.66668 8.66634C6.66668 8.94247 6.89054 9.16634 7.16668 9.16634H7.33334C7.97768 9.16634 8.50001 8.64401 8.50001 7.99967V5.83301C8.50001 5.55687 8.27614 5.33301 8.00001 5.33301C7.72388 5.33301 7.50001 5.55687 7.50001 5.83301ZM10.416 10.389C10.2629 10.1593 9.95243 10.0972 9.72266 10.2504C9.61951 10.3191 9.42448 10.4306 9.17194 10.5428C8.76167 10.7252 8.35706 10.8331 8.00001 10.8331C7.64296 10.8331 7.23835 10.7252 6.82808 10.5428C6.57554 10.4306 6.38052 10.3191 6.27736 10.2504C6.0476 10.0972 5.73716 10.1593 5.58399 10.389C5.43081 10.6188 5.4929 10.9292 5.72266 11.0824C5.86951 11.1803 6.11198 11.3189 6.42194 11.4566C6.94917 11.691 7.48206 11.8331 8.00001 11.8331C8.51796 11.8331 9.05085 11.691 9.57808 11.4566C9.79948 11.3582 9.98645 11.2594 10.1287 11.1753L10.2774 11.0824C10.5071 10.9292 10.5692 10.6188 10.416 10.389ZM10.1667 6.83301C10.1667 7.10915 10.3905 7.33301 10.6667 7.33301C10.9428 7.33301 11.1667 7.10915 11.1667 6.83301V5.83301C11.1667 5.55687 10.9428 5.33301 10.6667 5.33301C10.3905 5.33301 10.1667 5.55687 10.1667 5.83301V6.83301ZM3.33334 14.6663C2.22877 14.6663 1.33334 13.7709 1.33334 12.6663V11.333C1.33334 11.0569 1.5572 10.833 1.83334 10.833C2.10949 10.833 2.33334 11.0569 2.33334 11.333V12.6663C2.33334 13.2186 2.78106 13.6663 3.33334 13.6663H4.66668C4.94282 13.6663 5.16668 13.8902 5.16668 14.1663C5.16668 14.4425 4.94282 14.6663 4.66668 14.6663H3.33334ZM14.6667 3.33301C14.6667 2.22844 13.7712 1.33301 12.6667 1.33301H11.3333C11.0572 1.33301 10.8333 1.55687 10.8333 1.83301C10.8333 2.10915 11.0572 2.33301 11.3333 2.33301H12.6667C13.219 2.33301 13.6667 2.78072 13.6667 3.33301V4.66634C13.6667 4.94248 13.8905 5.16634 14.1667 5.16634C14.4428 5.16634 14.6667 4.94248 14.6667 4.66634V3.33301ZM12.6667 14.6663C13.7712 14.6663 14.6667 13.7709 14.6667 12.6663V11.333C14.6667 11.0569 14.4428 10.833 14.1667 10.833C13.8905 10.833 13.6667 11.0569 13.6667 11.333V12.6663C13.6667 13.2186 13.219 13.6663 12.6667 13.6663H11.3333C11.0572 13.6663 10.8333 13.8902 10.8333 14.1663C10.8333 14.4425 11.0572 14.6663 11.3333 14.6663H12.6667Z" fill="#18202A"/>
</svg>
