<svg width="16" height="16" viewBox="0 0 16 16" fill="none" xmlns="http://www.w3.org/2000/svg">
<g clip-path="url(#clip0_3737_8780)">
<g clip-path="url(#clip1_3737_8780)">
<path d="M8.66663 4.5C8.66663 4.22386 8.44277 4 8.16663 4C7.89048 4 7.66663 4.22386 7.66663 4.5V8.83333C7.66663 9.10948 7.89048 9.33333 8.16663 9.33333H12.1666C12.4428 9.33333 12.6666 9.10948 12.6666 8.83333C12.6666 8.55719 12.4428 8.33333 12.1666 8.33333H8.66663V4.5Z" fill="#18202A"/>
<path fill-rule="evenodd" clip-rule="evenodd" d="M8.66663 0.5C8.66663 0.223858 8.44277 0 8.16663 0C7.89048 0 7.66663 0.223858 7.66663 0.5V1.34077C3.77125 1.51504 0.666626 4.72829 0.666626 8.66667C0.666626 12.7168 3.94987 16 7.99996 16C12.05 16 15.3333 12.7168 15.3333 8.66667C15.3333 6.36859 14.2762 4.3174 12.6218 2.97281L13.241 2.35355C13.4363 2.15829 13.4363 1.84171 13.241 1.64645C13.0458 1.45118 12.7292 1.45118 12.5339 1.64645L11.7919 2.38852C10.8646 1.82726 9.80298 1.46563 8.66663 1.36323V0.5ZM7.99996 15C11.4978 15 14.3333 12.1645 14.3333 8.66667C14.3333 5.16886 11.4978 2.33333 7.99996 2.33333C4.50216 2.33333 1.66663 5.16886 1.66663 8.66667C1.66663 12.1645 4.50216 15 7.99996 15Z" fill="#18202A"/>
</g>
</g>
<defs>
<clipPath id="clip0_3737_8780">
<rect width="16" height="16" fill="white"/>
</clipPath>
<clipPath id="clip1_3737_8780">
<rect width="16" height="16" fill="white"/>
</clipPath>
</defs>
</svg>
