<svg width="16" height="16" viewBox="0 0 16 16" fill="none" xmlns="http://www.w3.org/2000/svg">
<path d="M0.666667 5.99984C0.666667 5.26346 1.26362 4.6665 2 4.6665H3.33333C4.06971 4.6665 4.66667 5.26346 4.66667 5.99984V13.3332C4.66667 14.0696 4.06971 14.6665 3.33333 14.6665H2C1.26362 14.6665 0.666667 14.0696 0.666667 13.3332V5.99984Z" fill="#18202A"/>
<path d="M11.3333 2.99989C11.3333 1.75773 10.6513 0.895056 9.27112 0.705708C8.93962 0.66023 8.66667 0.834049 8.66667 1.16865C8.66667 2.53273 8.52824 4.07634 7.62239 5.09622C7.3388 5.4155 7.02141 5.68275 6.68955 5.84189C6.35755 6.00108 6.04761 6.29836 6.04761 6.66655L6.04761 12.6666C6.04761 13.0347 6.34609 13.3332 6.71428 13.3332H12.0973C12.8548 13.3332 13.5473 12.9052 13.8861 12.2276L13.9257 12.1485C14.8514 10.2971 15.3333 8.25558 15.3333 6.18565V5.99989C15.3333 5.26351 14.7364 4.66655 14 4.66655H11.6667C11.2985 4.66655 11.1076 4.38993 11.208 4.03568C11.2755 3.79737 11.3333 3.47045 11.3333 2.99989Z" fill="#18202A"/>
<path fill-rule="evenodd" clip-rule="evenodd" d="M8.6488 0.524815C8.84248 0.384249 9.08503 0.343663 9.31643 0.375409C10.0674 0.478434 10.664 0.770561 11.0714 1.23925C11.4785 1.70754 11.6667 2.31751 11.6667 2.99983C11.6667 3.49912 11.6051 3.85676 11.5287 4.12648C11.4995 4.22962 11.5234 4.27697 11.5327 4.28989C11.5396 4.29954 11.5683 4.33316 11.6667 4.33316H14C14.9205 4.33316 15.6667 5.07935 15.6667 5.99983V6.18559C15.6667 8.30727 15.1727 10.3998 14.2238 12.2975L14.1843 12.3767C13.789 13.1672 12.9811 13.6665 12.0973 13.6665H6.71428C6.16199 13.6665 5.71428 13.2188 5.71428 12.6665L5.71427 6.66649C5.71427 6.10424 6.17223 5.72021 6.54542 5.54126C6.82425 5.40756 7.10752 5.17389 7.37317 4.8748C8.18694 3.9586 8.33333 2.53634 8.33333 1.1686C8.33333 0.902075 8.44678 0.671424 8.6488 0.524815ZM9.01368 1.09567C9.00748 1.10829 9 1.1309 9 1.1686C9 2.52902 8.86954 4.19397 7.87161 5.31752C7.57008 5.657 7.21858 5.95783 6.83367 6.14239C6.54287 6.28183 6.38094 6.49237 6.38094 6.66649L6.38094 12.6665C6.38094 12.8506 6.53018 12.9998 6.71428 12.9998H12.0973C12.7286 12.9998 13.3057 12.6432 13.588 12.0785L13.6276 11.9994C14.5301 10.1942 15 8.20377 15 6.18559V5.99983C15 5.44754 14.5523 4.99983 14 4.99983H11.6667C11.3968 4.99983 11.146 4.89513 10.9906 4.67792C10.8374 4.46396 10.8161 4.19588 10.8872 3.94477C10.9459 3.73787 11 3.44166 11 2.99983C11 2.43998 10.8472 1.99754 10.5682 1.67662C10.2896 1.35609 9.85505 1.12221 9.22582 1.03589C9.12572 1.02216 9.06603 1.04574 9.04037 1.06437C9.02811 1.07326 9.01976 1.08328 9.01368 1.09567Z" fill="#18202A"/>
</svg>
