<svg width="16" height="16" viewBox="0 0 16 16" fill="none" xmlns="http://www.w3.org/2000/svg">
<path d="M5.34001 1.36007C5.81647 1.35315 6.27975 1.51656 6.64642 1.8209C7.01307 2.12523 7.25907 2.55049 7.34 3.02007C7.36 3.17341 7.38667 3.32674 7.42 3.47341C7.48727 3.76994 7.57413 4.06169 7.68 4.34674C7.79253 4.65601 7.78667 4.99597 7.6636 5.3012C7.55592 5.56827 7.36514 5.79224 7.1211 5.94101L7.01333 6.00007L6.73333 6.18674C7.09453 6.83609 7.5432 7.43276 8.06667 7.96009C8.52808 8.41813 9.04258 8.81884 9.599 9.15388L9.84 9.29343L9.98667 8.99343C10.1314 8.69783 10.3803 8.46623 10.6855 8.34316C10.9908 8.22009 11.3307 8.21423 11.64 8.32676C11.8533 8.40751 12.0709 8.47656 12.2916 8.53366L12.7367 8.63926C12.8117 8.65509 12.8867 8.66676 12.96 8.66676C13.4159 8.74849 13.8293 8.98589 14.1295 9.33849C14.3965 9.65192 14.5594 10.0391 14.5981 10.4465L14.6067 10.6001V12.6001C14.608 12.883 14.5493 13.163 14.4343 13.4216C14.3194 13.6802 14.1509 13.9114 13.94 14.1001C13.6096 14.3944 13.1921 14.5699 12.7535 14.6016L12.6067 14.6068H12.3533C9.55913 14.2618 6.95953 12.9957 4.96511 11.0085C2.97069 9.02129 1.69517 6.42633 1.34001 3.63341C1.30073 3.34878 1.32323 3.05903 1.406 2.78388C1.48876 2.50873 1.62984 2.25465 1.81963 2.03893C2.00941 1.8232 2.24345 1.65091 2.50581 1.53376C2.72445 1.43614 2.95847 1.37873 3.19667 1.36387L3.34001 1.36007H5.34001ZM5.34001 2.36007L3.33061 2.35995C3.18696 2.35868 3.0447 2.3883 2.91353 2.44687C2.78234 2.50545 2.66532 2.5916 2.57043 2.69945C2.47553 2.80732 2.40499 2.93436 2.36361 3.07194C2.32223 3.20951 2.31098 3.35438 2.33202 3.50726C2.65914 6.07967 3.83396 8.46978 5.67093 10.3001C7.44229 12.065 9.73194 13.2124 12.2008 13.577L12.4212 13.6065L12.6082 13.6068C12.8188 13.6071 13.0233 13.5409 13.1921 13.4198L13.2733 13.3547C13.3788 13.2604 13.4631 13.1448 13.5205 13.0155C13.5636 12.9185 13.5909 12.8155 13.6016 12.7085L13.6067 12.6001L13.6068 10.6177C13.6028 10.3862 13.5184 10.1632 13.3682 9.98684C13.2396 9.8358 13.0694 9.72702 12.8798 9.67329L12.8279 9.6612L12.8165 9.66101C12.7693 9.65723 12.7225 9.65163 12.675 9.64436L12.5301 9.61769L12.2981 9.56332C11.9538 9.48743 11.6156 9.38674 11.2981 9.26648C11.2208 9.23837 11.1358 9.23983 11.0595 9.2706C11.0023 9.29368 10.953 9.33202 10.9167 9.38069L10.8851 9.43264L10.584 10.0484C10.4162 10.3916 9.99483 10.5239 9.66096 10.3382L9.35382 10.1673C8.62451 9.76152 7.95439 9.25768 7.35696 8.66459C6.84246 8.14629 6.39235 7.56841 6.01612 6.9435L5.85943 6.67284L5.70992 6.40407C5.54104 6.10044 5.63364 5.71802 5.92272 5.5253L6.45863 5.16802L6.57361 5.10194C6.6475 5.06576 6.70539 5.00355 6.73615 4.92726C6.76693 4.85092 6.76839 4.76594 6.74256 4.6949C6.62129 4.36837 6.52181 4.03422 6.44487 3.69503C6.40505 3.51985 6.37276 3.33618 6.35453 3.18992C6.31407 2.95519 6.19108 2.74256 6.00774 2.59038C5.85061 2.45995 5.65798 2.38129 5.44697 2.36372L5.34001 2.36007Z" fill="#18202A"/>
<path fill-rule="evenodd" clip-rule="evenodd" d="M9.89228 2.50016C9.89228 2.22402 10.1161 2.00016 10.3923 2.00016H13.4969C13.773 2.00016 13.9969 2.22402 13.9969 2.50016V5.60473C13.9969 5.88087 13.773 6.10473 13.4969 6.10473C13.2207 6.10473 12.9969 5.88087 12.9969 5.60473V3.70727L10.1936 6.51057C9.99829 6.70583 9.68171 6.70583 9.48644 6.51057C9.29118 6.31531 9.29118 5.99873 9.48644 5.80346L12.2897 3.00016H10.3923C10.1161 3.00016 9.89228 2.77631 9.89228 2.50016Z" fill="#18202A"/>
</svg>
