<svg width="16" height="16" viewBox="0 0 16 16" fill="none" xmlns="http://www.w3.org/2000/svg">
<g clip-path="url(#clip0_2266_40175)">
<path fill-rule="evenodd" clip-rule="evenodd" d="M7.99999 14.3334C4.50219 14.3334 1.66666 11.4978 1.66666 8.00002C1.66666 4.50222 4.50219 1.66669 7.99999 1.66669C11.4978 1.66669 14.3333 4.50222 14.3333 8.00002C14.3333 11.4978 11.4978 14.3334 7.99999 14.3334ZM7.99999 15.3334C3.9499 15.3334 0.666656 12.0501 0.666656 8.00002C0.666656 3.94993 3.9499 0.666687 7.99999 0.666687C12.0501 0.666687 15.3333 3.94993 15.3333 8.00002C15.3333 12.0501 12.0501 15.3334 7.99999 15.3334Z" fill="#18202A"/>
<path fill-rule="evenodd" clip-rule="evenodd" d="M7.68688 4.9798C7.49161 4.78454 7.17503 4.78454 6.97977 4.9798L4.3131 7.64647C4.11784 7.84173 4.11784 8.15831 4.3131 8.35357L6.97977 11.0202C7.17503 11.2155 7.49161 11.2155 7.68688 11.0202C7.88214 10.825 7.88214 10.5084 7.68688 10.3131L5.87376 8.50002H11.3333C11.6095 8.50002 11.8333 8.27616 11.8333 8.00002C11.8333 7.72388 11.6095 7.50002 11.3333 7.50002H5.87376L7.68688 5.68691C7.88214 5.49165 7.88214 5.17506 7.68688 4.9798Z" fill="#18202A"/>
</g>
<defs>
<clipPath id="clip0_2266_40175">
<rect width="16" height="16" fill="white"/>
</clipPath>
</defs>
</svg>
