<svg width="16" height="16" viewBox="0 0 16 16" fill="none" xmlns="http://www.w3.org/2000/svg">
<path fill-rule="evenodd" clip-rule="evenodd" d="M5.16663 2.66675C4.89048 2.66675 4.66663 2.89061 4.66663 3.16675V12.8334C4.66663 13.1096 4.89048 13.3334 5.16663 13.3334H9.66663C11.3235 13.3334 12.6666 11.9903 12.6666 10.3334C12.6666 8.98138 11.7722 7.83824 10.5428 7.46339C11.0323 6.95414 11.3333 6.26225 11.3333 5.50008C11.3333 3.93527 10.0648 2.66675 8.49996 2.66675H5.16663ZM8.49996 7.33342C9.51248 7.33342 10.3333 6.5126 10.3333 5.50008C10.3333 4.48756 9.51248 3.66675 8.49996 3.66675H5.66663V7.33342H8.49996ZM11.6666 10.3334C11.6666 9.22885 10.7712 8.33342 9.66663 8.33342H5.66663V12.3334H9.66663C10.7712 12.3334 11.6666 11.438 11.6666 10.3334Z" fill="#18202A"/>
</svg>
