<svg width="16" height="16" viewBox="0 0 16 16" fill="none" xmlns="http://www.w3.org/2000/svg">
<path fill-rule="evenodd" clip-rule="evenodd" d="M2.66671 1.33337C1.93033 1.33337 1.33337 1.93033 1.33337 2.66671V4.00004C1.33337 4.73642 1.93033 5.33337 2.66671 5.33337H3.50004V12C3.50004 13.0126 4.32085 13.8334 5.33337 13.8334H10.097C10.2948 14.322 10.7738 14.6667 11.3334 14.6667H13.3334C14.0698 14.6667 14.6667 14.0698 14.6667 13.3334V12.6667C14.6667 11.9303 14.0698 11.3334 13.3334 11.3334H11.3334C10.597 11.3334 10 11.9303 10 12.6667V12.8334H5.33337C4.87314 12.8334 4.50004 12.4603 4.50004 12V9.16671H10.097C10.2948 9.65534 10.7738 10 11.3334 10H13.3334C14.0698 10 14.6667 9.40309 14.6667 8.66671V8.00004C14.6667 7.26366 14.0698 6.66671 13.3334 6.66671H11.3334C10.597 6.66671 10 7.26366 10 8.00004V8.16671H4.50004V5.33337H6.00004C6.73642 5.33337 7.33337 4.73642 7.33337 4.00004V2.66671C7.33337 1.93033 6.73642 1.33337 6.00004 1.33337H2.66671ZM2.33337 2.66671C2.33337 2.48261 2.48261 2.33337 2.66671 2.33337H6.00004C6.18413 2.33337 6.33337 2.48261 6.33337 2.66671V4.00004C6.33337 4.18414 6.18414 4.33337 6.00004 4.33337H2.66671C2.48261 4.33337 2.33337 4.18414 2.33337 4.00004V2.66671ZM13.6667 8.00004C13.6667 7.81595 13.5175 7.66671 13.3334 7.66671H11.3334C11.1493 7.66671 11 7.81595 11 8.00004V8.66671C11 8.8508 11.1493 9.00004 11.3334 9.00004H13.3334C13.5175 9.00004 13.6667 8.8508 13.6667 8.66671V8.00004ZM11 12.6667C11 12.4826 11.1493 12.3334 11.3334 12.3334H13.3334C13.5175 12.3334 13.6667 12.4826 13.6667 12.6667V13.3334C13.6667 13.5175 13.5175 13.6667 13.3334 13.6667H11.3334C11.1493 13.6667 11 13.5175 11 13.3334V12.6667Z" fill="#18202A"/>
</svg>
