<svg width="16" height="16" viewBox="0 0 16 16" fill="none" xmlns="http://www.w3.org/2000/svg">
<g clip-path="url(#clip0_2266_34787)">
<path fill-rule="evenodd" clip-rule="evenodd" d="M4.66663 0.666656C4.29844 0.666656 3.99996 0.965133 3.99996 1.33332V1.99999H3.33329C1.86053 1.99999 0.666626 3.1939 0.666626 4.66666V12.6667C0.666626 14.1394 1.86053 15.3333 3.33329 15.3333H7.83638C7.23521 14.5834 6.83246 13.6676 6.70773 12.6654C6.69414 12.6662 6.68043 12.6667 6.66663 12.6667C6.29844 12.6667 5.99996 12.3682 5.99996 12C5.99996 11.6318 6.29844 11.3333 6.66663 11.3333C6.68043 11.3333 6.69414 11.3337 6.70773 11.3346C6.77482 10.7956 6.92232 10.2816 7.13786 9.8049C7.01723 9.92544 6.85063 9.99999 6.66663 9.99999C6.29844 9.99999 5.99996 9.70151 5.99996 9.33332C5.99996 8.96513 6.29844 8.66666 6.66663 8.66666C7.03482 8.66666 7.33329 8.96513 7.33329 9.33332C7.33329 9.36549 7.33102 9.39712 7.32661 9.42806C7.81168 8.54853 8.53782 7.8206 9.41595 7.33332H3.99996C3.63177 7.33332 3.33329 7.03485 3.33329 6.66666C3.33329 6.29847 3.63177 5.99999 3.99996 5.99999H12C12.3681 5.99999 12.6666 6.29847 12.6666 6.66666C12.6666 6.68046 12.6662 6.69417 12.6654 6.70777C13.6675 6.83249 14.5834 7.23524 15.3333 7.83641V4.66666C15.3333 3.1939 14.1394 1.99999 12.6666 1.99999H12V1.33332C12 0.965133 11.7015 0.666656 11.3333 0.666656C10.9651 0.666656 10.6666 0.965133 10.6666 1.33332V1.99999H5.33329V1.33332C5.33329 0.965133 5.03482 0.666656 4.66663 0.666656ZM3.33329 9.33332C3.33329 8.96513 3.63177 8.66666 3.99996 8.66666C4.36815 8.66666 4.66663 8.96513 4.66663 9.33332C4.66663 9.70151 4.36815 9.99999 3.99996 9.99999C3.63177 9.99999 3.33329 9.70151 3.33329 9.33332ZM3.99996 11.3333C3.63177 11.3333 3.33329 11.6318 3.33329 12C3.33329 12.3682 3.63177 12.6667 3.99996 12.6667C4.36815 12.6667 4.66663 12.3682 4.66663 12C4.66663 11.6318 4.36815 11.3333 3.99996 11.3333ZM16 12C16 14.2091 14.2091 16 12 16C9.79082 16 7.99996 14.2091 7.99996 12C7.99996 9.79085 9.79082 7.99999 12 7.99999C14.2091 7.99999 16 9.79085 16 12ZM12 9.83332C12.2761 9.83332 12.5 10.0572 12.5 10.3333V11.7929L13.3535 12.6464C13.5488 12.8417 13.5488 13.1583 13.3535 13.3535C13.1583 13.5488 12.8417 13.5488 12.6464 13.3535L11.6464 12.3535C11.5526 12.2598 11.5 12.1326 11.5 12V10.3333C11.5 10.0572 11.7238 9.83332 12 9.83332Z" fill="#18202A"/>
</g>
<defs>
<clipPath id="clip0_2266_34787">
<rect width="16" height="16" fill="white"/>
</clipPath>
</defs>
</svg>
