<svg width="16" height="16" viewBox="0 0 16 16" fill="none" xmlns="http://www.w3.org/2000/svg">
<g clip-path="url(#clip0_2266_36806)">
<path fill-rule="evenodd" clip-rule="evenodd" d="M15.3333 2.00005C14.9651 2.00005 14.6667 2.29853 14.6667 2.66672V6.00005H11.3333C10.9651 6.00005 10.6667 6.29853 10.6667 6.66672C10.6667 7.03491 10.9651 7.33338 11.3333 7.33338H15.3333C15.7015 7.33338 16 7.03491 16 6.66672V2.66672C16 2.29853 15.7015 2.00005 15.3333 2.00005Z" fill="#18202A"/>
<path fill-rule="evenodd" clip-rule="evenodd" d="M5.33333 9.33338C5.33333 8.96519 5.03486 8.66672 4.66667 8.66672H0.666667C0.298477 8.66672 0 8.96519 0 9.33338V13.3334C0 13.7016 0.298477 14.0001 0.666667 14.0001C1.03486 14.0001 1.33333 13.7016 1.33333 13.3334V10.0001H4.66667C5.03486 10.0001 5.33333 9.70157 5.33333 9.33338Z" fill="#18202A"/>
<path fill-rule="evenodd" clip-rule="evenodd" d="M9.8487 1.59749C8.7669 1.28457 7.62346 1.2508 6.52507 1.49933C5.42668 1.74785 4.40915 2.27057 3.56742 3.0187C2.7257 3.76684 2.0872 4.71601 1.71152 5.77765C1.5887 6.12475 1.7705 6.5057 2.1176 6.62853C2.4647 6.75135 2.84565 6.56955 2.96848 6.22245C3.26902 5.37314 3.77982 4.6138 4.4532 4.01529C5.12658 3.41678 5.94061 2.99861 6.81931 2.79979C7.69802 2.60097 8.61278 2.62798 9.47822 2.87831C10.3437 3.12864 11.1316 3.59413 11.7685 4.23134C11.7734 4.23626 11.7784 4.24112 11.7835 4.24589L14.8768 7.15255C15.1451 7.40468 15.567 7.39155 15.8192 7.12324C16.0713 6.85492 16.0582 6.43301 15.7899 6.18088L12.7039 3.28118C11.9092 2.48856 10.9271 1.9094 9.8487 1.59749ZM0.180832 8.87687C-0.0712967 9.14519 -0.0581703 9.56709 0.21015 9.81922L3.29608 12.7189C4.09085 13.5115 5.07294 14.0907 6.1513 14.4026C7.2331 14.7155 8.37655 14.7493 9.47493 14.5008C10.5733 14.2523 11.5908 13.7295 12.4326 12.9814C13.2743 12.2333 13.9128 11.2841 14.2885 10.2224C14.4113 9.87535 14.2295 9.4944 13.8824 9.37157C13.5353 9.24875 13.1543 9.43055 13.0315 9.77765C12.731 10.627 12.2202 11.3863 11.5468 11.9848C10.8734 12.5833 10.0594 13.0015 9.18069 13.2003C8.30198 13.3991 7.38722 13.3721 6.52178 13.1218C5.65634 12.8715 4.86841 12.406 4.23152 11.7688C4.22856 11.7658 4.22557 11.7629 4.22255 11.76C4.22055 11.758 4.21854 11.7561 4.21652 11.7542L1.12318 8.84755C0.854865 8.59542 0.43296 8.60855 0.180832 8.87687Z" fill="#18202A"/>
</g>
<defs>
<clipPath id="clip0_2266_36806">
<rect width="16" height="16" fill="white"/>
</clipPath>
</defs>
</svg>
