<svg width="16" height="16" viewBox="0 0 16 16" fill="none" xmlns="http://www.w3.org/2000/svg">
<path fill-rule="evenodd" clip-rule="evenodd" d="M6.86808 14.9557C6.54093 14.7107 6.30197 14.3662 6.18689 13.974L7.14644 13.6925C7.20072 13.8775 7.31342 14.0399 7.4676 14.1554C7.62177 14.2709 7.80914 14.3333 8.00167 14.3333C8.19419 14.3333 8.38156 14.2709 8.53574 14.1554C8.68992 14.0399 8.80261 13.8775 8.85689 13.6925L9.81644 13.974C9.70137 14.3662 9.4624 14.7107 9.13526 14.9557C8.80811 15.2008 8.4104 15.3333 8.00167 15.3333C7.59293 15.3333 7.19522 15.2008 6.86808 14.9557Z" fill="#18202A"/>
<path fill-rule="evenodd" clip-rule="evenodd" d="M8 0.833252C8.27614 0.833252 8.5 1.05711 8.5 1.33325V1.99992C8.5 2.27606 8.27614 2.49992 8 2.49992C7.72386 2.49992 7.5 2.27606 7.5 1.99992V1.33325C7.5 1.05711 7.72386 0.833252 8 0.833252Z" fill="#18202A"/>
<path fill-rule="evenodd" clip-rule="evenodd" d="M4.32217 3.48763C3.34675 4.4402 2.79876 5.73215 2.79876 7.07928C2.79876 9.59931 2.17799 11.0867 1.66581 11.8851C1.49113 12.1574 1.70835 12.6666 2.03183 12.6666H13.9682C14.2917 12.6666 14.5089 12.1574 14.3342 11.8851C13.822 11.0867 13.2012 9.59931 13.2012 7.07928C13.2012 5.73215 12.6533 4.4402 11.6778 3.48763C10.7024 2.53506 9.37946 1.99992 8 1.99992C6.62055 1.99992 5.29759 2.53506 4.32217 3.48763ZM8 2.99992C6.87821 2.99992 5.80701 3.43533 5.02084 4.20307C4.23549 4.97002 3.79876 6.00512 3.79876 7.07928C3.79876 9.17271 3.3962 10.6532 2.92311 11.6666H13.0769C12.6038 10.6532 12.2012 9.17271 12.2012 7.07928C12.2012 6.00512 11.7645 4.97002 10.9792 4.20307C10.193 3.43533 9.12179 2.99992 8 2.99992Z" fill="#18202A"/>
</svg>
