<svg width="16" height="16" viewBox="0 0 16 16" fill="none" xmlns="http://www.w3.org/2000/svg">
<path d="M6.66671 1.83325C6.66671 2.10939 6.44285 2.33325 6.16671 2.33325H4.00004C3.07957 2.33325 2.33337 3.07944 2.33337 3.99992V11.9999C2.33337 12.9204 3.07957 13.6666 4.00004 13.6666H12C12.9205 13.6666 13.6667 12.9204 13.6667 11.9999V9.83325C13.6667 9.55711 13.8906 9.33325 14.1667 9.33325C14.4428 9.33325 14.6667 9.55711 14.6667 9.83325V11.9999C14.6667 13.4727 13.4728 14.6666 12 14.6666H4.00004C2.52728 14.6666 1.33337 13.4727 1.33337 11.9999V3.99992C1.33337 2.52716 2.52728 1.33325 4.00004 1.33325H6.16671C6.44285 1.33325 6.66671 1.55711 6.66671 1.83325Z" fill="#18202A"/>
<path fill-rule="evenodd" clip-rule="evenodd" d="M9.33337 2.33325C9.05723 2.33325 8.83337 2.10939 8.83337 1.83325C8.83337 1.55711 9.05723 1.33325 9.33337 1.33325H14.1667C14.4428 1.33325 14.6667 1.55711 14.6667 1.83325V6.66658C14.6667 6.94273 14.4428 7.16658 14.1667 7.16658C13.8906 7.16658 13.6667 6.94273 13.6667 6.66658V3.04036L7.35359 9.35347C7.15833 9.54873 6.84175 9.54873 6.64649 9.35347C6.45122 9.15821 6.45122 8.84163 6.64649 8.64637L12.9596 2.33325H9.33337Z" fill="#18202A"/>
</svg>
