<svg width="16" height="16" viewBox="0 0 16 16" fill="none" xmlns="http://www.w3.org/2000/svg">
<path d="M8 7.33366C9.77778 7.33366 10.6667 5.66699 10.6667 3.58366C10.6667 1.91699 9.77778 0.666992 8 0.666992C6.22222 0.666992 5.33333 1.91699 5.33333 3.58366C5.33333 5.66699 6.22222 7.33366 8 7.33366Z" fill="#18202A"/>
<path d="M10.9881 14.9587C11.8008 14.7504 12.4895 14.206 12.8668 13.4567C12.8721 13.4462 12.8773 13.4357 12.8826 13.4252C12.8877 13.4149 12.8928 13.4046 12.8979 13.3943C13.4194 12.3412 13.2421 11.051 12.3522 10.2835C11.1844 9.27612 9.66333 8.66699 8.00003 8.66699C6.3367 8.66699 4.81565 9.27614 3.64778 10.2835C2.75796 11.0511 2.58063 12.3412 3.10211 13.3943C3.11242 13.4151 3.1228 13.4359 3.13324 13.4567C3.51047 14.206 4.19926 14.7504 5.01196 14.9587C5.96722 15.2035 6.96841 15.3337 8.00001 15.3337C9.0316 15.3337 10.0328 15.2035 10.9881 14.9587Z" fill="#18202A"/>
</svg>
