<svg width="16" height="16" viewBox="0 0 16 16" fill="none" xmlns="http://www.w3.org/2000/svg">
<path fill-rule="evenodd" clip-rule="evenodd" d="M4 2.66699C3.26362 2.66699 2.66667 3.26395 2.66667 4.00033V12.0003C2.66667 12.7367 3.26362 13.3337 4 13.3337H6C6.73638 13.3337 7.33333 12.7367 7.33333 12.0003V4.00033C7.33333 3.26395 6.73638 2.66699 6 2.66699H4ZM10 2.66699C9.26362 2.66699 8.66667 3.26395 8.66667 4.00033V12.0003C8.66667 12.7367 9.26362 13.3337 10 13.3337H12C12.7364 13.3337 13.3333 12.7367 13.3333 12.0003V4.00033C13.3333 3.26395 12.7364 2.66699 12 2.66699H10Z" fill="#18202A"/>
</svg>
