<svg width="20" height="20" viewBox="0 0 20 20" fill="none" xmlns="http://www.w3.org/2000/svg">
<g clip-path="url(#clip0_2266_39715)">
<path fill-rule="evenodd" clip-rule="evenodd" d="M2.10036 9.69981V9.74259C2.10036 12.2336 3.08233 14.1033 4.59606 15.3297L5.01057 15.6655L5.18053 17.7051L7.30355 16.7252L7.7235 16.8246C8.44099 16.9945 9.20755 17.0835 10.0085 17.0835C14.8918 17.0835 17.9166 13.6079 17.9166 9.74259C17.9166 5.10051 14.4553 2.0835 10.0085 2.0835C5.53823 2.0835 1.82875 5.736 2.09743 9.65714L2.10036 9.69981ZM19.1666 9.74259C19.1666 14.3115 15.5689 18.3335 10.0085 18.3335C9.11521 18.3335 8.25178 18.2342 7.43553 18.041L5.16394 19.0894C4.63871 19.3318 4.03231 18.9785 3.98427 18.402L3.80919 16.301C1.99017 14.8273 0.850357 12.5945 0.850357 9.74259C0.523321 4.96986 4.9506 0.833496 10.0085 0.833496C15.0664 0.833496 19.1666 4.3335 19.1666 9.74259Z" fill="#18202A"/>
<path fill-rule="evenodd" clip-rule="evenodd" d="M13.75 10.8335C14.4403 10.8335 15 10.2739 15 9.5835C15 8.89314 14.4403 8.3335 13.75 8.3335C13.0596 8.3335 12.5 8.89314 12.5 9.5835C12.5 10.2739 13.0596 10.8335 13.75 10.8335Z" fill="#18202A"/>
<path fill-rule="evenodd" clip-rule="evenodd" d="M9.99999 10.8335C10.6903 10.8335 11.25 10.2739 11.25 9.5835C11.25 8.89314 10.6903 8.3335 9.99999 8.3335C9.30964 8.3335 8.74999 8.89314 8.74999 9.5835C8.74999 10.2739 9.30964 10.8335 9.99999 10.8335Z" fill="#18202A"/>
<path fill-rule="evenodd" clip-rule="evenodd" d="M6.24999 10.8335C6.94035 10.8335 7.49999 10.2739 7.49999 9.5835C7.49999 8.89314 6.94035 8.3335 6.24999 8.3335C5.55964 8.3335 4.99999 8.89314 4.99999 9.5835C4.99999 10.2739 5.55964 10.8335 6.24999 10.8335Z" fill="#18202A"/>
</g>
<defs>
<clipPath id="clip0_2266_39715">
<rect width="20" height="20" fill="white"/>
</clipPath>
</defs>
</svg>
