<svg width="20" height="20" viewBox="0 0 20 20" fill="none" xmlns="http://www.w3.org/2000/svg">
<path fill-rule="evenodd" clip-rule="evenodd" d="M3.98059 2.80103C3.61189 2.43233 3.04894 2.39749 2.72322 2.72322C2.39749 3.04894 2.43233 3.61189 2.80103 3.98059L4.73262 5.91218C4.56345 5.86076 4.37477 5.83333 4.16659 5.83333C3.05548 5.83333 2.49992 6.61458 2.49992 7.65625C2.49992 8.95833 3.05548 10 4.16659 10C5.2777 10 5.83326 8.95833 5.83326 7.65625C5.83326 7.38208 5.79477 7.12595 5.7178 6.89736L9.66128 10.8408C8.3029 10.9012 7.03847 11.3229 5.96178 12.0121C4.87033 12.7108 4.50515 14.1031 4.94148 15.3234C5.06908 15.6802 5.21147 16.0301 5.36789 16.3721C5.81119 17.3415 6.72135 18.0128 7.77573 18.1696C8.50147 18.2774 9.24416 18.3333 9.99992 18.3333C10.7557 18.3333 11.4984 18.2774 12.2241 18.1696C13.2785 18.0128 14.1886 17.3415 14.6319 16.3721C14.6909 16.2433 14.7478 16.1133 14.8027 15.9823L16.0194 17.199C16.3881 17.5677 16.9511 17.6025 17.2768 17.2768C17.6025 16.9511 17.5677 16.3881 17.199 16.0194L3.98059 2.80103ZM12.0699 8.53798L7.94966 4.41776C8.35673 3.74785 9.04015 3.33333 9.99992 3.33333C11.6666 3.33333 12.4999 4.58333 12.4999 6.25C12.4999 7.11406 12.3566 7.90645 12.0699 8.53798ZM16.0977 11.7098C16.432 12.1793 16.6598 12.7057 16.7854 13.2535L19.0708 15.5389C19.1959 15.358 19.2962 15.1571 19.3663 14.9401C19.6767 13.9804 19.3321 12.9016 18.4398 12.4315C17.7258 12.0554 16.9353 11.805 16.0977 11.7098ZM15.8333 10C16.9444 10 17.4999 8.95833 17.4999 7.65625C17.4999 6.61458 16.9444 5.83333 15.8333 5.83333C14.7221 5.83333 14.1666 6.61458 14.1666 7.65625C14.1666 8.95833 14.7221 10 15.8333 10ZM3.37213 15.8847C2.88255 14.5155 3.03824 12.9092 3.91528 11.6915C3.11974 11.7597 2.3641 11.9677 1.67301 12.2907C0.700457 12.7453 0.308019 13.8934 0.636359 14.9155C0.923633 15.8097 1.70374 16.438 2.63594 16.5531C2.9764 16.5951 3.32038 16.6257 3.6675 16.6445C3.56241 16.3946 3.46388 16.1413 3.37213 15.8847Z" fill="#18202A"/>
</svg>
