<svg width="20" height="20" viewBox="0 0 20 20" fill="none" xmlns="http://www.w3.org/2000/svg">
<path fill-rule="evenodd" clip-rule="evenodd" d="M15.4167 9.16663C15.4167 12.6184 12.6185 15.4166 9.16669 15.4166C5.71491 15.4166 2.91669 12.6184 2.91669 9.16663C2.91669 5.71485 5.71491 2.91663 9.16669 2.91663C12.6185 2.91663 15.4167 5.71485 15.4167 9.16663ZM9.16669 16.6666C13.3088 16.6666 16.6667 13.3088 16.6667 9.16663C16.6667 5.02449 13.3088 1.66663 9.16669 1.66663C5.02455 1.66663 1.66669 5.02449 1.66669 9.16663C1.66669 13.3088 5.02455 16.6666 9.16669 16.6666ZM16.2753 15.3914C16.0312 15.1473 15.6355 15.1473 15.3914 15.3914C15.1473 15.6354 15.1473 16.0312 15.3914 16.2752L17.0581 17.9419C17.3022 18.186 17.6979 18.186 17.942 17.9419C18.186 17.6978 18.186 17.3021 17.942 17.058L16.2753 15.3914ZM9.79169 6.24996C9.79169 5.90478 9.51187 5.62496 9.16669 5.62496C8.82151 5.62496 8.54169 5.90478 8.54169 6.24996V8.54163H6.25002C5.90484 8.54163 5.62502 8.82145 5.62502 9.16663C5.62502 9.5118 5.90484 9.79163 6.25002 9.79163H8.54169V12.0833C8.54169 12.4285 8.82151 12.7083 9.16669 12.7083C9.51187 12.7083 9.79169 12.4285 9.79169 12.0833V9.79163H12.0834C12.4285 9.79163 12.7084 9.5118 12.7084 9.16663C12.7084 8.82145 12.4285 8.54163 12.0834 8.54163H9.79169V6.24996Z" fill="#18202A"/>
</svg>
