<svg width="20" height="20" viewBox="0 0 20 20" fill="none" xmlns="http://www.w3.org/2000/svg">
<g clip-path="url(#clip0_3293_9051)">
<g clip-path="url(#clip1_3293_9051)">
<path fill-rule="evenodd" clip-rule="evenodd" d="M11.6667 3.3335C12.1269 3.3335 12.5 3.70659 12.5 4.16683V4.79183H12.9167C13.3769 4.79183 13.75 5.16493 13.75 5.62516C13.75 6.0854 13.3769 6.4585 12.9167 6.4585H12.5V12.5002C12.5 12.9604 12.1269 13.3335 11.6667 13.3335C11.2725 13.3335 10.9422 13.0597 10.8555 12.6919C10.3295 13.0944 9.67187 13.3335 8.95837 13.3335C7.23248 13.3335 5.83337 11.9344 5.83337 10.2085C5.83337 8.48261 7.23248 7.0835 8.95837 7.0835C9.66188 7.0835 10.3111 7.31596 10.8334 7.70827V6.4585H10.4167C9.95647 6.4585 9.58337 6.0854 9.58337 5.62516C9.58337 5.16493 9.95647 4.79183 10.4167 4.79183H10.8334V4.16683C10.8334 3.70659 11.2065 3.3335 11.6667 3.3335ZM8.95837 11.6668C9.76379 11.6668 10.4167 11.0139 10.4167 10.2085C10.4167 9.40308 9.76379 8.75016 8.95837 8.75016C8.15296 8.75016 7.50004 9.40308 7.50004 10.2085C7.50004 11.0139 8.15296 11.6668 8.95837 11.6668Z" fill="#18202A"/>
<path d="M6.66671 14.1668C6.20647 14.1668 5.83337 14.5399 5.83337 15.0002C5.83337 15.4604 6.20647 15.8335 6.66671 15.8335H11.6667C12.1269 15.8335 12.5 15.4604 12.5 15.0002C12.5 14.5399 12.1269 14.1668 11.6667 14.1668H6.66671Z" fill="#18202A"/>
<path fill-rule="evenodd" clip-rule="evenodd" d="M19.1667 10.0002C19.1667 15.0628 15.0627 19.1668 10 19.1668C4.93743 19.1668 0.833374 15.0628 0.833374 10.0002C0.833374 4.93755 4.93743 0.833496 10 0.833496C15.0627 0.833496 19.1667 4.93755 19.1667 10.0002ZM17.5 10.0002C17.5 14.1423 14.1422 17.5002 10 17.5002C5.85791 17.5002 2.50004 14.1423 2.50004 10.0002C2.50004 5.85803 5.85791 2.50016 10 2.50016C14.1422 2.50016 17.5 5.85803 17.5 10.0002Z" fill="#18202A"/>
</g>
</g>
<defs>
<clipPath id="clip0_3293_9051">
<rect width="20" height="20" fill="white"/>
</clipPath>
<clipPath id="clip1_3293_9051">
<rect width="20" height="20" fill="white"/>
</clipPath>
</defs>
</svg>
