<svg width="20" height="20" viewBox="0 0 20 20" fill="none" xmlns="http://www.w3.org/2000/svg">
<g clip-path="url(#clip0_2266_39646)">
<path fill-rule="evenodd" clip-rule="evenodd" d="M10 6.72794L9.06697 8.70542L6.91473 9.03079L8.47456 10.6223L8.11283 12.8249L10 11.7881L11.8872 12.8249L11.5254 10.622L13.0853 9.03267L10.9329 8.70506L10 6.72794ZM9.27207 5.34142C9.5654 4.71974 10.4346 4.71974 10.728 5.34142L11.7792 7.56948L14.1031 7.92318C14.4619 7.97779 14.6826 8.24491 14.7578 8.50209C14.8328 8.75859 14.7893 9.08107 14.5549 9.3199L12.8617 11.0451L13.2646 13.4986C13.3151 13.8062 13.1926 14.1003 12.9694 14.2803C12.7412 14.4644 12.3968 14.5311 12.0844 14.3595L10 13.2143L7.91564 14.3595C7.6032 14.5311 7.25881 14.4644 7.03066 14.2803C6.80741 14.1003 6.68493 13.8062 6.73544 13.4986L7.13842 11.0448L5.44476 9.31677C5.21052 9.07776 5.1672 8.75523 5.24241 8.49875C5.31782 8.24159 5.53878 7.9746 5.8977 7.92034L8.22096 7.56911L9.27207 5.34142Z" fill="#18202A"/>
<path fill-rule="evenodd" clip-rule="evenodd" d="M10 17.9168C14.3723 17.9168 17.9167 14.3724 17.9167 10.0002C17.9167 5.62791 14.3723 2.0835 10 2.0835C5.62776 2.0835 2.08334 5.62791 2.08334 10.0002C2.08334 14.3724 5.62776 17.9168 10 17.9168ZM19.1667 10.0002C19.1667 15.0628 15.0626 19.1668 10 19.1668C4.9374 19.1668 0.833344 15.0628 0.833344 10.0002C0.833344 4.93755 4.9374 0.833496 10 0.833496C15.0626 0.833496 19.1667 4.93755 19.1667 10.0002Z" fill="#18202A"/>
</g>
<defs>
<clipPath id="clip0_2266_39646">
<rect width="20" height="20" fill="white"/>
</clipPath>
</defs>
</svg>
