<svg width="20" height="20" viewBox="0 0 20 20" fill="none" xmlns="http://www.w3.org/2000/svg">
<g clip-path="url(#clip0_2266_37267)">
<path fill-rule="evenodd" clip-rule="evenodd" d="M10 19.1667C4.93739 19.1667 0.833334 15.0627 0.833334 10C0.833334 4.93743 4.93739 0.833374 10 0.833374C15.0626 0.833374 19.1667 4.93743 19.1667 10C19.1667 15.0627 15.0626 19.1667 10 19.1667ZM10.2441 6.07745C10.5695 5.75202 11.0972 5.75202 11.4226 6.07745C11.748 6.40289 11.748 6.93053 11.4226 7.25596L8.67851 10L11.4226 12.7441C11.748 13.0696 11.748 13.5972 11.4226 13.9226C11.0972 14.2481 10.5695 14.2481 10.2441 13.9226L6.91075 10.5893C6.58531 10.2639 6.58531 9.73622 6.91075 9.41079L10.2441 6.07745Z" fill="#18202A"/>
</g>
<defs>
<clipPath id="clip0_2266_37267">
<rect width="20" height="20" fill="white"/>
</clipPath>
</defs>
</svg>
