<svg width="20" height="20" viewBox="0 0 20 20" fill="none" xmlns="http://www.w3.org/2000/svg">
<path d="M15.1021 3.84333L16.858 7.705C17.2021 7.77417 17.5371 7.85 17.8613 7.9325C17.9419 7.95167 18.0179 7.98667 18.0848 8.03546C18.1517 8.08425 18.2083 8.14585 18.2512 8.2167C18.2941 8.28754 18.3225 8.36621 18.3348 8.44813C18.347 8.53004 18.3429 8.61358 18.3225 8.69387C18.3022 8.77417 18.2661 8.84963 18.2164 8.91586C18.1667 8.98209 18.1042 9.03777 18.0328 9.07967C17.9613 9.12156 17.8823 9.14884 17.8002 9.15992C17.7181 9.17099 17.6346 9.16563 17.5546 9.14417C17.1414 9.0404 16.7251 8.94924 16.3063 8.87083C12.5113 8.15417 7.48964 8.15417 3.69548 8.87083C3.27608 8.949 2.85922 9.04015 2.44548 9.14417C2.36592 9.16436 2.28316 9.16868 2.20193 9.15689C2.1207 9.1451 2.04259 9.11742 1.97206 9.07544C1.82961 8.99066 1.72667 8.85276 1.68589 8.69208C1.64512 8.53141 1.66984 8.36111 1.75462 8.21866C1.8394 8.07621 1.9773 7.97328 2.13798 7.9325C2.46298 7.85 2.79881 7.77417 3.14381 7.70417L4.89881 3.84333C5.08086 3.44283 5.37435 3.1032 5.74422 2.86499C6.11409 2.62679 6.54471 2.50008 6.98464 2.5H13.0155C13.4556 2.49992 13.8864 2.62655 14.2564 2.86477C14.6264 3.10298 14.92 3.4427 15.1021 3.84333ZM2.91631 13.75C2.91631 13.087 3.1797 12.4511 3.64854 11.9822C4.11738 11.5134 4.75327 11.25 5.41631 11.25C6.07935 11.25 6.71524 11.5134 7.18408 11.9822C7.65292 12.4511 7.91631 13.087 7.91631 13.75C7.91631 14.413 7.65292 15.0489 7.18408 15.5178C6.71524 15.9866 6.07935 16.25 5.41631 16.25C4.75327 16.25 4.11738 15.9866 3.64854 15.5178C3.1797 15.0489 2.91631 14.413 2.91631 13.75ZM5.41631 10C4.71043 10.0002 4.01896 10.1997 3.4214 10.5754C2.82384 10.9512 2.34447 11.488 2.03841 12.124C1.73235 12.7601 1.61203 13.4697 1.69129 14.1711C1.77055 14.8725 2.04617 15.5373 2.48646 16.089C2.92675 16.6408 3.51381 17.057 4.18015 17.29C4.84649 17.5229 5.56505 17.563 6.25318 17.4057C6.94131 17.2484 7.57107 16.9001 8.07005 16.4008C8.56902 15.9015 8.91695 15.2716 9.07381 14.5833H10.9263C11.1338 15.4798 11.6636 16.2688 12.4148 16.8001C13.166 17.3315 14.0864 17.5683 15.0008 17.4654C15.9152 17.3625 16.7599 16.9272 17.3743 16.2421C17.9887 15.5571 18.3299 14.6702 18.333 13.75C18.3347 12.7904 17.9684 11.8667 17.3096 11.169C16.6509 10.4713 15.7497 10.0527 14.7916 9.99926C13.8335 9.94588 12.8914 10.2618 12.1592 10.882C11.427 11.5022 10.9604 12.3795 10.8555 13.3333H9.14381C9.04131 12.4165 8.60444 11.5696 7.91676 10.9547C7.22908 10.3397 6.33885 9.99982 5.41631 10ZM12.083 13.75C12.083 13.087 12.3464 12.4511 12.8152 11.9822C13.284 11.5134 13.9199 11.25 14.583 11.25C15.246 11.25 15.8819 11.5134 16.3507 11.9822C16.8196 12.4511 17.083 13.087 17.083 13.75C17.083 14.413 16.8196 15.0489 16.3507 15.5178C15.8819 15.9866 15.246 16.25 14.583 16.25C13.9199 16.25 13.284 15.9866 12.8152 15.5178C12.3464 15.0489 12.083 14.413 12.083 13.75Z" fill="#18202A"/>
</svg>
