<svg width="20" height="20" viewBox="0 0 20 20" fill="none" xmlns="http://www.w3.org/2000/svg">
<path fill-rule="evenodd" clip-rule="evenodd" d="M13.3333 4.47884C13.3333 7.08301 12.2222 9.16634 9.99999 9.16634C7.77777 9.16634 6.66666 7.08301 6.66666 4.47884C6.66666 2.39551 7.77777 0.833008 9.99999 0.833008C12.2222 0.833008 13.3333 2.39551 13.3333 4.47884ZM12.0833 4.47884C12.0833 5.62726 11.8347 6.53475 11.455 7.11322C11.1089 7.64042 10.6521 7.91634 9.99999 7.91634C9.34787 7.91634 8.89104 7.64042 8.54498 7.11322C8.16527 6.53475 7.91666 5.62726 7.91666 4.47884C7.91666 3.64564 8.13919 3.0513 8.45085 2.68607C8.73842 2.34908 9.20501 2.08301 9.99999 2.08301C10.795 2.08301 11.2616 2.34908 11.5491 2.68607C11.8608 3.0513 12.0833 3.64564 12.0833 4.47884Z" fill="#18202A"/>
<path fill-rule="evenodd" clip-rule="evenodd" d="M16.0834 16.8201C15.6119 17.7568 14.7509 18.4373 13.7351 18.6976C12.541 19.0036 11.2895 19.1663 9.99999 19.1663C8.7105 19.1663 7.459 19.0036 6.26493 18.6976C5.24906 18.4373 4.38807 17.7568 3.91654 16.8201C3.77676 16.5424 3.64641 16.2592 3.52589 15.9709C3.0138 14.7456 3.21788 13.3121 4.16609 12.3824C5.66927 10.9085 7.7285 9.99967 10 9.99967C12.2715 9.99967 14.3307 10.9085 15.8339 12.3824C16.7821 13.3121 16.9862 14.7456 16.4741 15.9708C16.3536 16.2592 16.2232 16.5424 16.0834 16.8201ZM13.4247 17.4867C12.3312 17.767 11.1839 17.9163 9.99999 17.9163C8.81604 17.9163 7.66878 17.767 6.57525 17.4867C5.90079 17.3139 5.33833 16.8645 5.03305 16.2581C4.90643 16.0065 4.78836 15.75 4.67921 15.4888C4.33803 14.6725 4.5047 13.801 5.04123 13.2749C6.32021 12.0209 8.0688 11.2497 10 11.2497C11.9312 11.2497 13.6798 12.0209 14.9587 13.2749C15.4953 13.801 15.662 14.6725 15.3208 15.4888C15.2116 15.75 15.0936 16.0065 14.9669 16.2581C14.6617 16.8645 14.0992 17.3139 13.4247 17.4867Z" fill="#18202A"/>
</svg>
