<svg width="20" height="20" viewBox="0 0 20 20" fill="none" xmlns="http://www.w3.org/2000/svg">
<g clip-path="url(#clip0_3049_8510)">
<path d="M19.1667 4.16683C19.1667 6.00778 17.6743 7.50016 15.8334 7.50016C13.9924 7.50016 12.5 6.00778 12.5 4.16683C12.5 2.32588 13.9924 0.833496 15.8334 0.833496C17.6743 0.833496 19.1667 2.32588 19.1667 4.16683Z" fill="#18202A"/>
<path d="M19.1667 8.95459C18.2218 9.61365 17.0727 10.0002 15.8334 10.0002C12.6117 10.0002 10 7.38849 10 4.16683C10 3.27217 10.2015 2.42454 10.5614 1.66683H4.16671C2.32576 1.66683 0.833374 3.15921 0.833374 5.00016V12.5002C0.833374 14.3411 2.32576 15.8335 4.16671 15.8335H4.62125L4.13807 18.1444C3.98962 18.8543 4.75621 19.4019 5.37966 19.0312L10.7576 15.8335H15.8334C17.6743 15.8335 19.1667 14.3411 19.1667 12.5002V8.95459Z" fill="#18202A"/>
</g>
<defs>
<clipPath id="clip0_3049_8510">
<rect width="20" height="20" fill="white"/>
</clipPath>
</defs>
</svg>
