<svg width="20" height="20" viewBox="0 0 20 20" fill="none" xmlns="http://www.w3.org/2000/svg">
<path d="M19.5658 6.2172C19.8204 6.45034 19.8195 6.84718 19.5754 7.09126C19.3313 7.33534 18.9366 7.33411 18.6811 7.10205C16.3877 5.01927 13.3421 3.75 10 3.75C6.65794 3.75 3.61234 5.01927 1.31894 7.10205C1.06341 7.33411 0.668668 7.33534 0.42459 7.09127C0.180513 6.84719 0.179602 6.45035 0.434143 6.2172C2.95454 3.90867 6.31276 2.5 10 2.5C13.6872 2.5 17.0455 3.90867 19.5658 6.2172Z" fill="#18202A"/>
<path d="M16.6157 9.16766C16.8744 9.39611 16.8732 9.79346 16.6291 10.0375C16.385 10.2816 15.9907 10.2797 15.7299 10.0536C14.1948 8.72231 12.1915 7.91667 10 7.91667C7.80851 7.91667 5.8052 8.72231 4.27007 10.0536C4.0093 10.2797 3.61495 10.2816 3.37087 10.0375C3.12679 9.79346 3.12555 9.39611 3.38431 9.16766C5.14728 7.61116 7.46334 6.66667 10 6.66667C12.5367 6.66667 14.8527 7.61116 16.6157 9.16766Z" fill="#18202A"/>
<path d="M13.6602 12.1243C13.9288 12.341 13.9269 12.7397 13.6828 12.9838C13.4388 13.2279 13.0452 13.2239 12.7704 13.0151C12.0009 12.4304 11.041 12.0833 10 12.0833C8.95901 12.0833 7.99908 12.4304 7.2296 13.0151C6.95476 13.2239 6.56123 13.2279 6.31715 12.9838C6.07307 12.7397 6.07118 12.341 6.33983 12.1243C7.34069 11.3168 8.61388 10.8333 10 10.8333C11.3861 10.8333 12.6593 11.3168 13.6602 12.1243Z" fill="#18202A"/>
<path d="M10 18.3333C10.9205 18.3333 11.6667 17.5871 11.6667 16.6667C11.6667 15.7462 10.9205 15 10 15C9.07952 15 8.33333 15.7462 8.33333 16.6667C8.33333 17.5871 9.07952 18.3333 10 18.3333Z" fill="#18202A"/>
</svg>
