<svg width="20" height="20" viewBox="0 0 20 20" fill="none" xmlns="http://www.w3.org/2000/svg">
<path fill-rule="evenodd" clip-rule="evenodd" d="M2.2034 2.08301H0V0.833008H2.2034C2.82213 0.833008 3.41295 1.09048 3.83418 1.54368C3.94861 1.6668 4.04037 1.80918 4.10522 1.96425L4.32913 2.49967H17.0947C18.1333 2.49967 18.839 3.5544 18.4428 4.51439L16.2071 9.93106C15.9818 10.4769 15.4496 10.833 14.8591 10.833H6.67187L5.47632 12.1514C5.3549 12.2853 5.44991 12.4997 5.63065 12.4997H15.358C15.9153 12.4997 16.4357 12.7782 16.7448 13.2418L17.0833 13.7497H5.63065C4.36546 13.7497 3.70046 12.2489 4.55035 11.3117L5.6821 10.0637L3.32931 3.34877L2.952 2.44651C2.94401 2.4274 2.9327 2.40985 2.91859 2.39468C2.73386 2.19592 2.47475 2.08301 2.2034 2.08301ZM8.33333 16.6663C8.33333 17.6108 7.61111 18.333 6.66667 18.333C5.72222 18.333 5 17.6108 5 16.6663C5 15.7219 5.72222 14.9997 6.66667 14.9997C7.61111 14.9997 8.33333 15.7219 8.33333 16.6663ZM15.8333 16.6663C15.8333 17.6108 15.1111 18.333 14.1667 18.333C13.2222 18.333 12.5 17.6108 12.5 16.6663C12.5 15.7219 13.2222 14.9997 14.1667 14.9997C15.1111 14.9997 15.8333 15.7219 15.8333 16.6663Z" fill="#18202A"/>
</svg>
