<svg width="20" height="20" viewBox="0 0 20 20" fill="none" xmlns="http://www.w3.org/2000/svg">
<g clip-path="url(#clip0_3750_8849)">
<path d="M6.76913 3.85201C6.90165 3.75884 7.08417 3.85362 7.08417 4.01562V13.9142C7.08417 13.9793 7.05248 14.0403 6.99923 14.0778L3.48443 16.55C3.09467 16.824 2.56656 16.5778 2.50577 16.1258L2.5 16.0387V7.17829C2.5 7.00386 2.57279 6.83878 2.69843 6.72148L2.76557 6.66699L6.76913 3.85201ZM17.4962 3.87202L17.5019 3.9591V12.8195C17.5019 12.994 17.4292 13.159 17.3035 13.2764L17.2364 13.3308L13.2325 16.1442C13.1 16.2373 12.9175 16.1425 12.9175 15.9805V6.08108C12.9175 6.01594 12.9492 5.95489 13.0025 5.91744L16.5175 3.44779C16.9073 3.1738 17.4354 3.42007 17.4962 3.87202ZM8.33417 4.01642C8.33417 3.85443 8.51667 3.75964 8.64919 3.8528L11.5825 5.91493C11.6358 5.95239 11.6675 6.01343 11.6675 6.07855V15.9786C11.6675 16.1406 11.4849 16.2354 11.3524 16.1422L8.41909 14.0786C8.36585 14.0411 8.33417 13.9801 8.33417 13.915V4.01642Z" fill="#18202A"/>
</g>
<defs>
<clipPath id="clip0_3750_8849">
<rect width="20" height="20" fill="white"/>
</clipPath>
</defs>
</svg>
