<svg width="20" height="20" viewBox="0 0 20 20" fill="none" xmlns="http://www.w3.org/2000/svg">
<g clip-path="url(#clip0_2266_40096)">
<path fill-rule="evenodd" clip-rule="evenodd" d="M4.43387 10.6252L2.16308 16.6739C2.13086 16.7597 2.11448 16.8231 2.1072 16.8679C2.10146 16.9033 2.1026 16.9197 2.1028 16.922C2.23282 17.7618 3.09698 18.2188 3.93855 17.7531L16.8195 10.6252H4.43387ZM16.8194 9.37524L3.93855 2.24732C3.09687 1.78156 2.23279 2.23858 2.1028 3.07847C2.10282 3.07828 2.10283 3.07819 2.10283 3.07819C2.10283 3.07819 2.1028 3.07846 2.10272 3.079C2.10275 3.07882 2.10277 3.07864 2.1028 3.07847C2.10259 3.08073 2.10146 3.09718 2.1072 3.13258C2.11448 3.17736 2.13086 3.24075 2.16307 3.32655L4.43388 9.37524H16.8194ZM0.992826 3.76589L3.33332 10.0002L0.992826 16.2346C0.887353 16.5155 0.821567 16.8156 0.86736 17.1122C1.14039 18.8804 3.00355 19.6992 4.54377 18.8468L18.5541 11.094C19.4138 10.6183 19.4138 9.38229 18.5541 8.90656L4.54378 1.15361C3.00354 0.301287 1.14036 1.11982 0.867353 2.88829C0.821569 3.18486 0.887353 3.48495 0.992826 3.76589Z" fill="#18202A"/>
</g>
<defs>
<clipPath id="clip0_2266_40096">
<rect width="20" height="20" fill="white"/>
</clipPath>
</defs>
</svg>
