<svg width="20" height="20" viewBox="0 0 20 20" fill="none" xmlns="http://www.w3.org/2000/svg">
<g clip-path="url(#clip0_2266_39820)">
<path fill-rule="evenodd" clip-rule="evenodd" d="M10 17.9168C14.3723 17.9168 17.9167 14.3724 17.9167 10.0002C17.9167 5.62791 14.3723 2.0835 10 2.0835C5.62776 2.0835 2.08334 5.62791 2.08334 10.0002C2.08334 14.3724 5.62776 17.9168 10 17.9168ZM10 19.1668C15.0626 19.1668 19.1667 15.0628 19.1667 10.0002C19.1667 4.93755 15.0626 0.833496 10 0.833496C4.9374 0.833496 0.833344 4.93755 0.833344 10.0002C0.833344 15.0628 4.9374 19.1668 10 19.1668Z" fill="#18202A"/>
<path fill-rule="evenodd" clip-rule="evenodd" d="M9.7205 1.10781C9.89646 1.01984 10.1036 1.01984 10.2795 1.10781C13.4698 2.70294 15 6.1957 15 9.68766C15 13.1841 13.4716 16.8448 10.338 18.8592C10.1321 18.9916 9.86792 18.9916 9.66204 18.8592C6.52842 16.8448 5.00001 13.1841 5.00001 9.68766C5.00001 6.1957 6.53026 2.70294 9.7205 1.10781ZM9.37501 2.77559C7.32104 4.26854 6.25001 6.89732 6.25001 9.68766C6.25001 12.4562 7.30873 15.2583 9.37501 17.0799V2.77559ZM10.625 17.0799V2.77559C12.679 4.26854 13.75 6.89732 13.75 9.68766C13.75 12.4562 12.6913 15.2583 10.625 17.0799Z" fill="#18202A"/>
<path fill-rule="evenodd" clip-rule="evenodd" d="M18.3333 10.6252H1.66668V9.37516H18.3333V10.6252Z" fill="#18202A"/>
</g>
<defs>
<clipPath id="clip0_2266_39820">
<rect width="20" height="20" fill="white"/>
</clipPath>
</defs>
</svg>
