<svg width="20" height="20" viewBox="0 0 20 20" fill="none" xmlns="http://www.w3.org/2000/svg">
<path fill-rule="evenodd" clip-rule="evenodd" d="M5 3.33301C4.07953 3.33301 3.33333 4.0792 3.33333 4.99967V14.9997C3.33333 15.9201 4.07953 16.6663 5 16.6663H7.5C8.42048 16.6663 9.16667 15.9201 9.16667 14.9997V4.99967C9.16667 4.0792 8.42048 3.33301 7.5 3.33301H5ZM12.5 3.33301C11.5795 3.33301 10.8333 4.0792 10.8333 4.99967V14.9997C10.8333 15.9201 11.5795 16.6663 12.5 16.6663H15C15.9205 16.6663 16.6667 15.9201 16.6667 14.9997V4.99967C16.6667 4.0792 15.9205 3.33301 15 3.33301H12.5Z" fill="#18202A"/>
</svg>
