<svg width="20" height="20" viewBox="0 0 20 20" fill="none" xmlns="http://www.w3.org/2000/svg">
<path fill-rule="evenodd" clip-rule="evenodd" d="M0.833334 4.1665C0.833334 2.78579 1.95262 1.6665 3.33333 1.6665H14.1667C15.2552 1.6665 16.1812 2.36218 16.5244 3.33317H3.33333V4.1665H15.8333C17.6743 4.1665 19.1667 5.65889 19.1667 7.49984V14.9998C19.1667 16.8408 17.6743 18.3332 15.8333 18.3332H4.16667C2.32572 18.3332 0.833334 16.8408 0.833334 14.9998V4.1665ZM11.6667 9.1665C10.7462 9.1665 10 9.9127 10 10.8332V12.4998C10 13.4203 10.7462 14.1665 11.6667 14.1665H17.5V9.1665H11.6667Z" fill="#18202A"/>
<path d="M13.3333 11.6665C13.3333 12.1267 12.9602 12.4998 12.5 12.4998C12.0398 12.4998 11.6667 12.1267 11.6667 11.6665C11.6667 11.2063 12.0398 10.8332 12.5 10.8332C12.9602 10.8332 13.3333 11.2063 13.3333 11.6665Z" fill="#18202A"/>
</svg>
