<svg width="20" height="20" viewBox="0 0 20 20" fill="none" xmlns="http://www.w3.org/2000/svg">
<g clip-path="url(#clip0_2266_41053)">
<path d="M11.6667 7.65625C11.6667 8.95833 11.1111 10 10 10C8.88889 10 8.33333 8.95833 8.33333 7.65625C8.33333 6.61458 8.88889 5.83333 10 5.83333C11.1111 5.83333 11.6667 6.61458 11.6667 7.65625Z" fill="#18202A"/>
<path d="M6.66667 8.125C6.66667 9.16667 6.25 10 5.41667 10C4.58333 10 4.16667 9.16667 4.16667 8.125C4.16667 7.29167 4.58333 6.66667 5.41667 6.66667C6.25 6.66667 6.66667 7.29167 6.66667 8.125Z" fill="#18202A"/>
<path d="M14.5833 10C15.4167 10 15.8333 9.16667 15.8333 8.125C15.8333 7.29167 15.4167 6.66667 14.5833 6.66667C13.75 6.66667 13.3333 7.29167 13.3333 8.125C13.3333 9.16667 13.75 10 14.5833 10Z" fill="#18202A"/>
<path d="M6.95301 10.8869C6.888 10.9282 6.82387 10.9709 6.76065 11.0147C5.78296 11.6932 5.50444 12.9192 5.8446 13.9443C5.87111 14.0242 5.8986 14.1036 5.92707 14.1825C5.47536 14.1746 5.03058 14.1396 4.59443 14.079C4.08016 14.0076 3.64426 13.6628 3.46883 13.1742C3.42855 13.062 3.39052 12.9487 3.35481 12.8346C3.17089 12.2466 3.40259 11.6008 3.95356 11.3253C4.60262 11.0006 5.34093 10.8171 6.12405 10.8171C6.40691 10.8171 6.68393 10.841 6.95301 10.8869Z" fill="#18202A"/>
<path d="M14.1556 13.9443C14.1295 14.0232 14.1023 14.1017 14.0742 14.1798C14.5376 14.1666 14.9935 14.125 15.44 14.0565C15.9478 13.9786 16.3755 13.6342 16.5477 13.1502C16.577 13.0678 16.605 12.985 16.6319 12.9016C16.817 12.3264 16.6037 11.6905 16.073 11.4016C15.3896 11.0296 14.5989 10.8171 13.7563 10.8171C13.5068 10.8171 13.2619 10.8357 13.023 10.8716C13.0963 10.9177 13.1685 10.9654 13.2396 11.0148C14.2173 11.6932 14.4958 12.9192 14.1556 13.9443Z" fill="#18202A"/>
<path d="M11.5438 15.7141C12.1782 15.6122 12.7228 15.2044 12.9928 14.6212C13.1336 14.3171 13.2579 14.0036 13.3647 13.6819C13.6062 12.954 13.3945 12.1366 12.7645 11.6994C11.9769 11.1529 11.0251 10.8333 10.0001 10.8333C8.97507 10.8333 8.02333 11.1528 7.23574 11.6994C6.60569 12.1366 6.39399 12.954 6.63552 13.6819C6.7423 14.0037 6.86668 14.3172 7.00747 14.6213C7.27746 15.2044 7.82204 15.6122 8.4565 15.7141C8.95938 15.7948 9.47493 15.8368 10.0001 15.8368C10.5253 15.8368 11.0409 15.7948 11.5438 15.7141Z" fill="#18202A"/>
<path fill-rule="evenodd" clip-rule="evenodd" d="M10 18.75C14.8325 18.75 18.75 14.8325 18.75 10C18.75 5.16751 14.8325 1.25 10 1.25C5.16751 1.25 1.25 5.16751 1.25 10C1.25 14.8325 5.16751 18.75 10 18.75ZM10 20C15.5228 20 20 15.5228 20 10C20 4.47715 15.5228 0 10 0C4.47715 0 0 4.47715 0 10C0 15.5228 4.47715 20 10 20Z" fill="#18202A"/>
</g>
<defs>
<clipPath id="clip0_2266_41053">
<rect width="20" height="20" fill="white"/>
</clipPath>
</defs>
</svg>
