<svg width="20" height="20" viewBox="0 0 20 20" fill="none" xmlns="http://www.w3.org/2000/svg">
<path fill-rule="evenodd" clip-rule="evenodd" d="M6.5 1.75C6.5 1.33579 6.16421 1 5.75 1C5.33579 1 5 1.33579 5 1.75V3H4.5C2.567 3 1 4.567 1 6.5V15.5C1 17.433 2.567 19 4.5 19H15.5C17.433 19 19 17.433 19 15.5V6.5C19 4.567 17.433 3 15.5 3H15V1.75C15 1.33579 14.6642 1 14.25 1C13.8358 1 13.5 1.33579 13.5 1.75V3H6.5V1.75ZM4.75 13C5.16421 13 5.5 12.6642 5.5 12.25C5.5 11.8358 5.16421 11.5 4.75 11.5C4.33579 11.5 4 11.8358 4 12.25C4 12.6642 4.33579 13 4.75 13ZM9 12.25C9 12.6642 8.66421 13 8.25 13C7.83579 13 7.5 12.6642 7.5 12.25C7.5 11.8358 7.83579 11.5 8.25 11.5C8.66421 11.5 9 11.8358 9 12.25ZM11.75 13C12.1642 13 12.5 12.6642 12.5 12.25C12.5 11.8358 12.1642 11.5 11.75 11.5C11.3358 11.5 11 11.8358 11 12.25C11 12.6642 11.3358 13 11.75 13ZM16 12.25C16 12.6642 15.6642 13 15.25 13C14.8358 13 14.5 12.6642 14.5 12.25C14.5 11.8358 14.8358 11.5 15.25 11.5C15.6642 11.5 16 11.8358 16 12.25ZM4.75 16C5.16421 16 5.5 15.6642 5.5 15.25C5.5 14.8358 5.16421 14.5 4.75 14.5C4.33579 14.5 4 14.8358 4 15.25C4 15.6642 4.33579 16 4.75 16ZM9 15.25C9 15.6642 8.66421 16 8.25 16C7.83579 16 7.5 15.6642 7.5 15.25C7.5 14.8358 7.83579 14.5 8.25 14.5C8.66421 14.5 9 14.8358 9 15.25ZM11.75 16C12.1642 16 12.5 15.6642 12.5 15.25C12.5 14.8358 12.1642 14.5 11.75 14.5C11.3358 14.5 11 14.8358 11 15.25C11 15.6642 11.3358 16 11.75 16ZM16 15.25C16 15.6642 15.6642 16 15.25 16C14.8358 16 14.5 15.6642 14.5 15.25C14.5 14.8358 14.8358 14.5 15.25 14.5C15.6642 14.5 16 14.8358 16 15.25ZM4.75 8C4.33579 8 4 8.33579 4 8.75C4 9.16421 4.33579 9.5 4.75 9.5H15.25C15.6642 9.5 16 9.16421 16 8.75C16 8.33579 15.6642 8 15.25 8H4.75Z" fill="#18202A"/>
</svg>
