<svg width="20" height="20" viewBox="0 0 20 20" fill="none" xmlns="http://www.w3.org/2000/svg">
<g clip-path="url(#clip0_2266_37024)">
<path fill-rule="evenodd" clip-rule="evenodd" d="M0 5C0 2.23858 2.23858 0 5 0H15C17.7614 0 20 2.23858 20 5V15C20 17.7614 17.7614 20 15 20H5C2.23858 20 0 17.7614 0 15V5ZM2.5 10C2.5 5.85786 5.85786 2.5 10 2.5C14.1421 2.5 17.5 5.85786 17.5 10C17.5 14.1421 14.1421 17.5 10 17.5C5.85786 17.5 2.5 14.1421 2.5 10ZM13.3429 8.40278C13.35 8.46528 13.35 8.53472 13.35 8.59722C13.35 8.65972 13.35 8.72222 13.3429 8.78472V11.25C13.3416 11.3351 13.3406 11.4076 13.3397 11.4697C13.3357 11.7416 13.3346 11.8141 13.3289 11.8819C13.3149 12.1111 13.2868 12.3264 13.2517 12.5139C13.1604 12.9722 12.9778 13.3819 12.7109 13.7222C12.0649 14.5694 11.1309 15 9.94418 15C9.10151 15 8.35715 14.7847 7.73217 14.3611C7.07911 13.9167 6.63671 13.2917 6.39795 12.5069H7.75324C8.16755 13.4097 8.88382 13.8472 9.93716 13.8472C10.6183 13.8472 11.1309 13.6528 11.5242 13.25C11.9034 12.8542 12.093 12.3264 12.093 11.6528V11.3194C11.454 11.8681 10.6253 12.1944 9.71947 12.1944C7.71111 12.1944 6.08195 10.5833 6.08195 8.59722C6.08195 6.61111 7.71111 5 9.71947 5C10.6183 5 11.4469 5.32639 12.0789 5.86806V5H13.3429V8.40278ZM7.35297 8.59028C7.35297 9.88194 8.41333 10.9306 9.71947 10.9306C11.0186 10.9306 12.0789 9.88194 12.086 8.59028C12.086 7.29861 11.0256 6.25 9.71947 6.25C8.41333 6.25 7.35297 7.29861 7.35297 8.59028Z" fill="#18202A"/>
</g>
<defs>
<clipPath id="clip0_2266_37024">
<rect width="20" height="20" fill="white"/>
</clipPath>
</defs>
</svg>
