<svg width="20" height="20" viewBox="0 0 20 20" fill="none" xmlns="http://www.w3.org/2000/svg">
<g clip-path="url(#clip0_2266_40207)">
<path fill-rule="evenodd" clip-rule="evenodd" d="M10 17.9167C14.3723 17.9167 17.9167 14.3723 17.9167 10C17.9167 5.62779 14.3723 2.08337 10 2.08337C5.62776 2.08337 2.08334 5.62779 2.08334 10C2.08334 14.3723 5.62776 17.9167 10 17.9167ZM10 19.1667C15.0626 19.1667 19.1667 15.0627 19.1667 10C19.1667 4.93743 15.0626 0.833374 10 0.833374C4.9374 0.833374 0.833344 4.93743 0.833344 10C0.833344 15.0627 4.9374 19.1667 10 19.1667Z" fill="#18202A"/>
<path fill-rule="evenodd" clip-rule="evenodd" d="M8.72474 6.22477C8.96881 5.98069 9.36454 5.98069 9.60862 6.22477L12.942 9.5581C13.186 9.80218 13.186 10.1979 12.942 10.442L9.60862 13.7753C9.36454 14.0194 8.96881 14.0194 8.72474 13.7753C8.48066 13.5312 8.48066 13.1355 8.72474 12.8914L11.6161 10L8.72474 7.10865C8.48066 6.86457 8.48066 6.46884 8.72474 6.22477Z" fill="#18202A"/>
</g>
<defs>
<clipPath id="clip0_2266_40207">
<rect width="20" height="20" fill="white"/>
</clipPath>
</defs>
</svg>
