<svg width="20" height="20" viewBox="0 0 20 20" fill="none" xmlns="http://www.w3.org/2000/svg">
<g clip-path="url(#clip0_2266_38518)">
<path d="M17.9167 5.37885C17.2406 4.22073 16.3136 3.21622 15.1921 2.44545C13.3933 1.2092 11.2125 0.655341 9.04184 0.883485C6.87119 1.11163 4.85317 2.10681 3.35075 3.69002C1.84834 5.27323 0.960143 7.34057 0.845914 9.52019C0.731684 11.6998 1.39892 13.8487 2.72761 15.5802C4.0563 17.3118 5.95924 18.5125 8.09416 18.9663C10.2291 19.4201 12.4559 19.0972 14.374 18.0558C16.1088 17.1138 17.4881 15.6401 18.3146 13.8595C18.4597 13.5469 18.297 13.1849 17.9753 13.0614C17.6536 12.9379 17.2949 13.0999 17.1463 13.4108C15.872 16.0757 13.151 17.9166 10 17.9166C5.62776 17.9166 2.08335 14.3722 2.08335 9.99994C2.08335 5.62768 5.62776 2.08327 10 2.08327C13.3423 2.08327 16.2008 4.15441 17.3621 7.08325H12.2917C11.9465 7.08325 11.6667 7.36307 11.6667 7.70825C11.6667 8.05343 11.9465 8.33325 12.2917 8.33325H18.3333C18.7936 8.33325 19.1667 7.96016 19.1667 7.49992V1.45825C19.1667 1.11307 18.8869 0.833252 18.5417 0.833252C18.1965 0.833252 17.9167 1.11307 17.9167 1.45825V5.37885Z" fill="#18202A"/>
</g>
<defs>
<clipPath id="clip0_2266_38518">
<rect width="20" height="20" fill="white"/>
</clipPath>
</defs>
</svg>
