<svg width="20" height="20" viewBox="0 0 20 20" fill="none" xmlns="http://www.w3.org/2000/svg">
<g clip-path="url(#clip0_2266_41065)">
<path d="M11.6667 6.82259C11.6667 8.12467 11.1111 9.16634 10 9.16634C8.8889 9.16634 8.33334 8.12467 8.33334 6.82259C8.33334 5.78092 8.8889 4.99967 10 4.99967C11.1111 4.99967 11.6667 5.78092 11.6667 6.82259Z" fill="#18202A"/>
<path d="M6.66668 7.29134C6.66668 8.33301 6.25001 9.16634 5.41668 9.16634C4.58334 9.16634 4.16668 8.33301 4.16668 7.29134C4.16668 6.45801 4.58334 5.83301 5.41668 5.83301C6.25001 5.83301 6.66668 6.45801 6.66668 7.29134Z" fill="#18202A"/>
<path d="M15.8333 7.29134C15.8333 8.33301 15.4167 9.16634 14.5833 9.16634C13.75 9.16634 13.3333 8.33301 13.3333 7.29134C13.3333 6.45801 13.75 5.83301 14.5833 5.83301C15.4167 5.83301 15.8333 6.45801 15.8333 7.29134Z" fill="#18202A"/>
<path d="M6.95302 10.0532C6.88801 10.0946 6.82388 10.1372 6.76066 10.1811C5.78297 10.8595 5.50445 12.0856 5.84461 13.1107C5.87112 13.1905 5.89861 13.2699 5.92708 13.3489C5.47537 13.341 5.03059 13.3059 4.59445 13.2453C4.08018 13.1739 3.64427 12.8292 3.46884 12.3405C3.42856 12.2283 3.39054 12.1151 3.35482 12.0009C3.1709 11.413 3.4026 10.7672 3.95357 10.4916C4.60263 10.167 5.34094 9.9834 6.12406 9.9834C6.40692 9.9834 6.68394 10.0073 6.95302 10.0532Z" fill="#18202A"/>
<path d="M14.1557 13.1106C14.1295 13.1896 14.1023 13.2681 14.0742 13.3461C14.5376 13.333 14.9935 13.2913 15.44 13.2228C15.9478 13.145 16.3756 12.8005 16.5477 12.3165C16.577 12.2342 16.6051 12.1513 16.6319 12.0679C16.817 11.4928 16.6037 10.8568 16.073 10.5679C15.3896 10.1959 14.5989 9.9834 13.7563 9.9834C13.5068 9.9834 13.2619 10.002 13.023 10.0379C13.0963 10.084 13.1685 10.1318 13.2396 10.1811C14.2173 10.8595 14.4958 12.0856 14.1557 13.1106Z" fill="#18202A"/>
<path d="M12.9928 13.7876C12.7228 14.3707 12.1783 14.7785 11.5438 14.8804C11.0409 14.9612 10.5253 15.0031 10.0001 15.0031C9.47494 15.0031 8.95939 14.9612 8.45652 14.8804C7.82205 14.7785 7.27748 14.3708 7.00749 13.7876C6.86669 13.4835 6.74231 13.17 6.63553 12.8482C6.394 12.1204 6.6057 11.3029 7.23575 10.8657C8.02334 10.3192 8.97508 9.99967 10.0001 9.99967C11.0252 9.99967 11.9769 10.3192 12.7645 10.8657C13.3945 11.3029 13.6062 12.1204 13.3647 12.8482C13.258 13.17 13.1336 13.4835 12.9928 13.7876Z" fill="#18202A"/>
<path fill-rule="evenodd" clip-rule="evenodd" d="M15.8333 2.08301H4.16668C3.01608 2.08301 2.08334 3.01575 2.08334 4.16634V15.833C2.08334 16.9836 3.01608 17.9163 4.16668 17.9163H15.8333C16.9839 17.9163 17.9167 16.9836 17.9167 15.833V4.16634C17.9167 3.01575 16.9839 2.08301 15.8333 2.08301ZM4.16668 0.833008C2.32573 0.833008 0.833344 2.32539 0.833344 4.16634V15.833C0.833344 17.674 2.32573 19.1663 4.16668 19.1663H15.8333C17.6743 19.1663 19.1667 17.674 19.1667 15.833V4.16634C19.1667 2.32539 17.6743 0.833008 15.8333 0.833008H4.16668Z" fill="#18202A"/>
</g>
<defs>
<clipPath id="clip0_2266_41065">
<rect width="20" height="20" fill="white"/>
</clipPath>
</defs>
</svg>
