<svg width="20" height="20" viewBox="0 0 20 20" fill="none" xmlns="http://www.w3.org/2000/svg">
<path fill-rule="evenodd" clip-rule="evenodd" d="M17.725 15.0407C17.848 14.7749 17.9166 14.4788 17.9166 14.1667V8.33333H2.08331V14.1667C2.08331 15.3173 3.01605 16.25 4.16665 16.25H10.0495C9.79864 16.6337 9.65184 17.0623 9.60289 17.5H4.16665C2.3257 17.5 0.833313 16.0076 0.833313 14.1667V5.83333C0.833313 3.99238 2.3257 2.5 4.16665 2.5H7.29778C7.96082 2.5 8.59671 2.76339 9.06555 3.23223L9.99998 4.16667H15.8333C17.6743 4.16667 19.1666 5.65905 19.1666 7.5V14.1667C19.1666 14.7567 19.0133 15.311 18.7444 15.7917C18.6734 15.7208 18.5979 15.6525 18.5176 15.5872C18.2695 15.3853 18.0045 15.2025 17.725 15.0407ZM8.18166 4.11612L9.48221 5.41667H15.8333C16.9839 5.41667 17.9166 6.34941 17.9166 7.5H2.08331V5.83333C2.08331 4.68274 3.01605 3.75 4.16665 3.75H7.29778C7.6293 3.75 7.94724 3.8817 8.18166 4.11612Z" fill="#18202A"/>
<path d="M11.4381 16.5567C11.5724 16.4474 11.7132 16.345 11.8598 16.25C12.6345 15.7482 13.5726 15.4545 14.5833 15.4545C15.4018 15.4545 16.1726 15.6471 16.8476 15.9868C17.164 16.146 17.4593 16.3375 17.7286 16.5567C17.8041 16.6182 17.8725 16.6846 17.9339 16.755C18.3948 17.2844 18.4555 18.044 18.1229 18.6777L18.1118 18.6988L18.1004 18.7202C17.8278 19.2312 17.33 19.6023 16.7427 19.7443C16.0524 19.9112 15.3288 20 14.5833 20C13.8378 20 13.1143 19.9112 12.4239 19.7443C11.8366 19.6023 11.3388 19.2312 11.0662 18.7202L11.0437 18.6777C10.8479 18.3046 10.7884 17.8878 10.8667 17.5C10.9391 17.1416 11.1292 16.8081 11.4381 16.5567Z" fill="#18202A"/>
<path d="M14.5833 14.5455C15.8681 14.5455 16.5104 13.4091 16.5104 11.9886C16.5104 10.8523 15.8681 10 14.5833 10C13.2985 10 12.6562 10.8523 12.6562 11.9886C12.6562 13.4091 13.2985 14.5455 14.5833 14.5455Z" fill="#18202A"/>
</svg>
