<svg width="20" height="20" viewBox="0 0 20 20" fill="none" xmlns="http://www.w3.org/2000/svg">
<g clip-path="url(#clip0_2266_37279)">
<path fill-rule="evenodd" clip-rule="evenodd" d="M0.833334 10C0.833334 15.0627 4.93739 19.1667 10 19.1667C15.0626 19.1667 19.1667 15.0627 19.1667 10C19.1667 4.93743 15.0626 0.833374 10 0.833374C4.93739 0.833374 0.833334 4.93743 0.833334 10ZM13.9226 9.75596C14.248 9.43053 14.248 8.90289 13.9226 8.57745C13.5972 8.25201 13.0695 8.25201 12.7441 8.57745L10 11.3215L7.25592 8.57745C6.93049 8.25201 6.40285 8.25201 6.07741 8.57745C5.75197 8.90289 5.75197 9.43053 6.07741 9.75596L9.41075 13.0893C9.73618 13.4147 10.2638 13.4147 10.5893 13.0893L13.9226 9.75596Z" fill="#18202A"/>
</g>
<defs>
<clipPath id="clip0_2266_37279">
<rect width="20" height="20" fill="white"/>
</clipPath>
</defs>
</svg>
