<svg width="20" height="20" viewBox="0 0 20 20" fill="none" xmlns="http://www.w3.org/2000/svg">
<path fill-rule="evenodd" clip-rule="evenodd" d="M2.5 0.833334C2.5 0.373096 2.8731 0 3.33333 0H16.6667C17.1269 0 17.5 0.373096 17.5 0.833333V2.99642C17.5 3.25502 17.3799 3.49897 17.175 3.65673L15.2145 5.16606C17.1161 6.69339 18.3333 9.03788 18.3333 11.6667C18.3333 16.269 14.6024 20 10 20C5.39763 20 1.66667 16.269 1.66667 11.6667C1.66667 9.03788 2.88388 6.69339 4.78545 5.16606L2.82497 3.65673C2.62006 3.49897 2.5 3.25502 2.5 2.99642V0.833334ZM14.1667 1.66667V4.44818C13.4019 4.00577 12.5602 3.68141 11.6667 3.50003V1.66667H14.1667ZM8.33333 1.66667V3.50003C7.43977 3.68141 6.59813 4.00577 5.83333 4.44818V1.66667H8.33333ZM10 16.6667C12.7614 16.6667 15 14.4281 15 11.6667C15 8.90524 12.7614 6.66667 10 6.66667C7.23858 6.66667 5 8.90524 5 11.6667C5 14.4281 7.23858 16.6667 10 16.6667ZM10.2405 8.90864C10.1401 8.69712 9.85991 8.69712 9.75952 8.90864L9.06211 10.3781C9.02203 10.4625 8.94638 10.5207 8.85932 10.5339L7.31611 10.7685C7.09151 10.8026 7.00352 11.1022 7.16888 11.2697L8.27223 12.3874C8.3388 12.4548 8.3693 12.554 8.3533 12.651L8.09124 14.2401C8.0522 14.4769 8.28062 14.6599 8.4794 14.5512L9.87784 13.7863C9.95463 13.7443 10.0454 13.7443 10.1222 13.7863L11.5206 14.5512C11.7194 14.6599 11.9478 14.4769 11.9088 14.2401L11.6467 12.651C11.6307 12.554 11.6612 12.4548 11.7278 12.3874L12.8311 11.2697C12.9965 11.1022 12.9085 10.8026 12.6839 10.7685L11.1407 10.5339C11.0536 10.5207 10.978 10.4625 10.9379 10.3781L10.2405 8.90864Z" fill="#18202A"/>
</svg>
