<svg width="20" height="20" viewBox="0 0 20 20" fill="none" xmlns="http://www.w3.org/2000/svg">
<g clip-path="url(#clip0_3906_9328)">
<path d="M9.58331 13.75C9.58331 14.0952 9.86314 14.375 10.2083 14.375C10.5535 14.375 10.8333 14.0952 10.8333 13.75V11.4583H13.125C13.4702 11.4583 13.75 11.1785 13.75 10.8333C13.75 10.4882 13.4702 10.2083 13.125 10.2083H10.8333V7.91667C10.8333 7.57149 10.5535 7.29167 10.2083 7.29167C9.86314 7.29167 9.58331 7.57149 9.58331 7.91667V10.2083H7.29165C6.94647 10.2083 6.66665 10.4882 6.66665 10.8333C6.66665 11.1785 6.94647 11.4583 7.29165 11.4583H9.58331V13.75Z" fill="#18202A"/>
<path fill-rule="evenodd" clip-rule="evenodd" d="M4.16665 2.5C2.3257 2.5 0.833313 3.99238 0.833313 5.83333V14.1667C0.833313 16.0076 2.3257 17.5 4.16665 17.5H15.8333C17.6743 17.5 19.1666 16.0076 19.1666 14.1667V7.5C19.1666 5.65905 17.6743 4.16667 15.8333 4.16667H9.99998L9.06555 3.23223C8.59671 2.76339 7.96082 2.5 7.29778 2.5H4.16665ZM17.9166 7.5C17.9166 6.34941 16.9839 5.41667 15.8333 5.41667H9.48221L8.18166 4.11612C7.94724 3.8817 7.6293 3.75 7.29778 3.75H4.16665C3.01605 3.75 2.08331 4.68274 2.08331 5.83333V14.1667C2.08331 15.3173 3.01605 16.25 4.16665 16.25H15.8333C16.9839 16.25 17.9166 15.3173 17.9166 14.1667V7.5Z" fill="#18202A"/>
</g>
<defs>
<clipPath id="clip0_3906_9328">
<rect width="20" height="20" fill="white"/>
</clipPath>
</defs>
</svg>
