<svg width="20" height="20" viewBox="0 0 20 20" fill="none" xmlns="http://www.w3.org/2000/svg">
<path d="M0 5.83333C0 3.99238 1.49238 2.5 3.33333 2.5H11.6667C13.5076 2.5 15 3.99238 15 5.83333V14.1667C15 16.0076 13.5076 17.5 11.6667 17.5H3.33333C1.49238 17.5 0 16.0076 0 14.1667V5.83333Z" fill="#18202A"/>
<path d="M15.8333 7.59353C15.8333 7.32551 15.9622 7.07385 16.1797 6.91725L18.6797 5.11725C19.231 4.72036 20 5.11428 20 5.79353V14.2065C20 14.8857 19.231 15.2796 18.6797 14.8828L16.1797 13.0828C15.9622 12.9261 15.8333 12.6745 15.8333 11.5731V7.59353Z" fill="#18202A"/>
</svg>
