<svg width="20" height="20" viewBox="0 0 20 20" fill="none" xmlns="http://www.w3.org/2000/svg">
<path fill-rule="evenodd" clip-rule="evenodd" d="M16.7489 4.58301C16.3166 5.33026 15.5087 5.83301 14.5833 5.83301C13.658 5.83301 12.85 5.33026 12.4178 4.58301H2.5C1.80964 4.58301 1.25 5.14265 1.25 5.83301V14.1663C1.25 14.8567 1.80964 15.4163 2.5 15.4163H12.4178C12.85 14.6691 13.658 14.1663 14.5833 14.1663C15.5087 14.1663 16.3166 14.6691 16.7489 15.4163H17.5C18.1904 15.4163 18.75 14.8567 18.75 14.1663V5.83301C18.75 5.14265 18.1904 4.58301 17.5 4.58301H16.7489ZM15.8333 16.6663C15.8333 15.976 15.2737 15.4163 14.5833 15.4163C13.893 15.4163 13.3333 15.976 13.3333 16.6663H2.5C1.11929 16.6663 0 15.5471 0 14.1663V5.83301C0 4.4523 1.11929 3.33301 2.5 3.33301H13.3333C13.3333 4.02336 13.893 4.58301 14.5833 4.58301C15.2737 4.58301 15.8333 4.02336 15.8333 3.33301H17.5C18.8807 3.33301 20 4.4523 20 5.83301V14.1663C20 15.5471 18.8807 16.6663 17.5 16.6663H15.8333ZM2.5 7.29134C2.5 6.94616 2.77982 6.66634 3.125 6.66634H10.625C10.9702 6.66634 11.25 6.94616 11.25 7.29134C11.25 7.63652 10.9702 7.91634 10.625 7.91634H3.125C2.77982 7.91634 2.5 7.63652 2.5 7.29134ZM3.125 9.16634C2.77982 9.16634 2.5 9.44616 2.5 9.79134C2.5 10.1365 2.77982 10.4163 3.125 10.4163H10.625C10.9702 10.4163 11.25 10.1365 11.25 9.79134C11.25 9.44616 10.9702 9.16634 10.625 9.16634H3.125ZM2.5 12.2913C2.5 11.9462 2.77982 11.6663 3.125 11.6663H5.20833C5.55351 11.6663 5.83333 11.9462 5.83333 12.2913C5.83333 12.6365 5.55351 12.9163 5.20833 12.9163H3.125C2.77982 12.9163 2.5 12.6365 2.5 12.2913ZM15 7.49967H14.1667V12.4997H15V7.49967Z" fill="#18202A"/>
</svg>
