<svg width="20" height="20" viewBox="0 0 20 20" fill="none" xmlns="http://www.w3.org/2000/svg">
<path fill-rule="evenodd" clip-rule="evenodd" d="M6.0417 9.32445V4.58334C6.0417 4.08606 6.23924 3.60914 6.59087 3.25751C6.9425 2.90588 7.41942 2.70834 7.9167 2.70834C8.13263 2.70834 8.34471 2.74558 8.54437 2.81652C8.55571 2.60452 8.60299 2.39573 8.68442 2.19914C8.77865 1.97165 8.91676 1.76496 9.09087 1.59085C9.26498 1.41674 9.47168 1.27863 9.69917 1.1844C9.92665 1.09017 10.1705 1.04167 10.4167 1.04167C10.6629 1.04167 10.9067 1.09017 11.1342 1.1844C11.3617 1.27863 11.5684 1.41674 11.7425 1.59085C11.9166 1.76496 12.0547 1.97165 12.149 2.19914C12.2304 2.39573 12.2777 2.60452 12.289 2.81652C12.4887 2.74559 12.7008 2.70834 12.9167 2.70834C13.414 2.70834 13.8909 2.90588 14.2425 3.25751C14.5705 3.58547 14.7644 4.0224 14.789 4.4832C14.9887 4.41225 15.2008 4.37501 15.4167 4.37501C15.914 4.37501 16.3909 4.57255 16.7425 4.92418C17.0941 5.27581 17.2917 5.75272 17.2917 6.25V13.3333C17.2917 14.8252 16.699 16.2559 15.6442 17.3108C14.5893 18.3657 13.1585 18.9583 11.6667 18.9583H10.1714C9.2406 18.9582 8.32431 18.7269 7.50477 18.2855C6.68464 17.8437 5.98671 17.2045 5.47435 16.4265C5.41911 16.3424 5.36408 16.2582 5.30926 16.1738C5.03499 15.7528 4.10929 14.1376 2.55032 11.3664C2.31088 10.9409 2.24693 10.4387 2.37205 9.96665C2.49718 9.49464 2.80151 9.09005 3.22033 8.83896C3.63719 8.58883 4.12549 8.48528 4.60802 8.54454C5.09054 8.6038 5.53968 8.82283 5.88364 9.1664L6.0417 9.32445ZM10.1775 2.33925C10.2533 2.30784 10.3346 2.29167 10.4167 2.29167C10.4988 2.29167 10.58 2.30784 10.6559 2.33925C10.7317 2.37066 10.8006 2.41669 10.8586 2.47473C10.9167 2.53277 10.9627 2.60167 10.9941 2.67749C11.0255 2.75332 11.0417 2.8346 11.0417 2.91667V10C11.0417 10.3452 11.3215 10.625 11.6667 10.625C12.0119 10.625 12.2917 10.3452 12.2917 10V4.58334C12.2917 4.41758 12.3575 4.25861 12.4748 4.1414C12.592 4.02419 12.7509 3.95834 12.9167 3.95834C13.0825 3.95834 13.2414 4.02419 13.3586 4.1414C13.4758 4.25861 13.5417 4.41758 13.5417 4.58334V10C13.5417 10.3452 13.8215 10.625 14.1667 10.625C14.5119 10.625 14.7917 10.3452 14.7917 10L14.7917 6.25C14.7917 6.08425 14.8575 5.92527 14.9748 5.80806C15.092 5.69086 15.251 5.625 15.4167 5.625C15.5825 5.625 15.7415 5.69086 15.8586 5.80806C15.9759 5.92527 16.0417 6.08425 16.0417 6.25V13.3333C16.0417 14.4937 15.5808 15.6064 14.7603 16.4269C13.9398 17.2474 12.827 17.7083 11.6667 17.7083H10.1724C9.44815 17.7083 8.73519 17.5285 8.0976 17.185C7.45973 16.8413 6.91718 16.3447 6.51868 15.7396C6.4646 15.6573 6.41112 15.5754 6.35748 15.4928C6.11174 15.1155 5.21244 13.5491 3.63975 10.7536C3.55994 10.6117 3.53861 10.4443 3.58032 10.2869C3.62203 10.1296 3.72348 9.99475 3.86308 9.91105C4.04101 9.80429 4.2497 9.75992 4.45565 9.78521C4.66161 9.8105 4.8532 9.90389 5.00001 10.0505L6.22347 11.274C6.22752 11.2781 6.23163 11.2821 6.23579 11.286C6.29228 11.3399 6.35637 11.3811 6.4245 11.4097C6.49899 11.441 6.58082 11.4583 6.6667 11.4583C7.01188 11.4583 7.2917 11.1785 7.2917 10.8333V4.58334C7.2917 4.41758 7.35754 4.25861 7.47476 4.1414C7.59197 4.02419 7.75094 3.95834 7.9167 3.95834C8.08246 3.95834 8.24143 4.02419 8.35864 4.1414C8.47585 4.25861 8.5417 4.41758 8.5417 4.58334V10C8.5417 10.3452 8.82152 10.625 9.1667 10.625C9.51187 10.625 9.7917 10.3452 9.7917 10V2.91667C9.7917 2.8346 9.80786 2.75332 9.83927 2.67749C9.87068 2.60167 9.91672 2.53277 9.97475 2.47473C10.0328 2.41669 10.1017 2.37066 10.1775 2.33925Z" fill="#18202A"/>
</svg>
