<svg width="20" height="20" viewBox="0 0 20 20" fill="none" xmlns="http://www.w3.org/2000/svg">
<path fill-rule="evenodd" clip-rule="evenodd" d="M16.6584 5.62943C16.5546 4.34416 15.4786 3.3335 14.1666 3.3335H5.83329C4.52129 3.3335 3.44533 4.34416 3.3415 5.62943C2.87293 6.04513 2.56164 6.6342 2.50817 7.29609C1.99195 7.75407 1.66663 8.42246 1.66663 9.16683V15.8335C1.66663 17.2142 2.78591 18.3335 4.16663 18.3335H15.8333C17.214 18.3335 18.3333 17.2142 18.3333 15.8335V9.16683C18.3333 8.42246 18.008 7.75407 17.4917 7.29609C17.4383 6.6342 17.127 6.04513 16.6584 5.62943ZM15.1001 5.00213C14.8712 4.74526 14.5378 4.5835 14.1666 4.5835H5.83329C5.46214 4.5835 5.12876 4.74526 4.89982 5.00213C4.93304 5.00082 4.96642 5.00016 4.99996 5.00016H15C15.0335 5.00016 15.0669 5.00083 15.1001 5.00213ZM4.16663 6.66683C4.13309 6.66683 4.09971 6.66749 4.06649 6.6688C4.29543 6.41193 4.6288 6.25016 4.99996 6.25016H15C15.3711 6.25016 15.7045 6.41193 15.9334 6.6688C15.9002 6.66749 15.8668 6.66683 15.8333 6.66683H4.16663ZM13.9368 10.5749C14.2542 10.2416 14.2413 9.71412 13.908 9.39672C13.5747 9.07931 13.0473 9.09218 12.7299 9.42545L8.60396 13.7577L7.29935 12.2356C6.99984 11.8862 6.47375 11.8457 6.12431 12.1452C5.77488 12.4447 5.73441 12.9708 6.03393 13.3203L7.93869 15.5425C8.09205 15.7214 8.314 15.827 8.54958 15.8332C8.78515 15.8394 9.01233 15.7455 9.17485 15.5749L13.9368 10.5749Z" fill="#18202A"/>
</svg>
