<svg width="20" height="20" viewBox="0 0 20 20" fill="none" xmlns="http://www.w3.org/2000/svg">
<g clip-path="url(#clip0_3243_9007)">
<path d="M4.58333 12.7631L4.04479 13.0988L4.45086 11.0624H2.57576C1.89879 11.0624 1.25 10.4694 1.25 9.61148V3.53442C1.25 2.67654 1.89879 2.0835 2.57576 2.0835H11.5909C12.2679 2.0835 12.9167 2.67654 12.9167 3.53442V3.75016H14.1667V3.53442C14.1667 2.04274 13.0135 0.833496 11.5909 0.833496H2.57576C1.15321 0.833496 0 2.04274 0 3.53442V9.61148C0 10.775 0.701628 11.7667 1.68543 12.1467C1.9629 12.2539 2.26281 12.3124 2.57576 12.3124H2.927L2.55363 14.1848C2.43892 14.7601 3.03129 15.2038 3.51304 14.9034L4.58333 14.2361V12.7631Z" fill="#18202A"/>
<path fill-rule="evenodd" clip-rule="evenodd" d="M18.3146 16.3134C19.2984 15.9334 20 14.9417 20 13.7782V7.70108C20 6.20941 18.8468 5.00016 17.4242 5.00016H8.40909C6.98654 5.00016 5.83333 6.20941 5.83333 7.70108V13.7782C5.83333 15.2698 6.98654 16.4791 8.40909 16.4791H12.3313L16.487 19.0701C16.9687 19.3705 17.5611 18.9268 17.4464 18.3515L17.073 16.4791H17.4242C17.7372 16.4791 18.0371 16.4205 18.3146 16.3134ZM12.689 15.2291L15.9552 17.2655L15.5491 15.2291H17.4242C18.1012 15.2291 18.75 14.636 18.75 13.7782V7.70108C18.75 6.84321 18.1012 6.25016 17.4242 6.25016H8.40909C7.73212 6.25016 7.08333 6.84321 7.08333 7.70108V13.7782C7.08333 14.636 7.73212 15.2291 8.40909 15.2291H12.689Z" fill="#18202A"/>
</g>
<defs>
<clipPath id="clip0_3243_9007">
<rect width="20" height="20" fill="white"/>
</clipPath>
</defs>
</svg>
