<svg width="20" height="20" viewBox="0 0 20 20" fill="none" xmlns="http://www.w3.org/2000/svg">
<g clip-path="url(#clip0_2266_40444)">
<path fill-rule="evenodd" clip-rule="evenodd" d="M17.9167 7.0835H2.08334V15.8335C2.08334 16.9841 3.01608 17.9168 4.16668 17.9168H15.8333C16.9839 17.9168 17.9167 16.9841 17.9167 15.8335V7.0835ZM0.833344 5.8335V15.8335C0.833344 17.6744 2.32573 19.1668 4.16668 19.1668H15.8333C17.6743 19.1668 19.1667 17.6744 19.1667 15.8335V5.8335H0.833344Z" fill="#18202A"/>
<path fill-rule="evenodd" clip-rule="evenodd" d="M8.75001 11.2158V13.7762L10.8639 12.496L8.75001 11.2158ZM7.50001 10.3705C7.50001 9.76619 8.15316 9.39291 8.66654 9.70384L12.1761 11.8293C12.6747 12.1313 12.6747 12.8607 12.1761 13.1627L8.66654 15.2882C8.15316 15.5991 7.50001 15.2258 7.50001 14.6215V10.3705Z" fill="#18202A"/>
<path d="M5.83334 1.66683H7.91668L3.75001 6.66683H1.66668L5.83334 1.66683Z" fill="#18202A"/>
<path d="M10.8333 1.66683H12.9167L8.75001 6.66683H6.66668L10.8333 1.66683Z" fill="#18202A"/>
<path d="M15.8333 1.66683H17.9167L13.75 6.66683H11.6667L15.8333 1.66683Z" fill="#18202A"/>
<path fill-rule="evenodd" clip-rule="evenodd" d="M15.8333 2.0835H4.16668C3.01608 2.0835 2.08334 3.01624 2.08334 4.16683V5.8335H17.9167V4.16683C17.9167 3.01624 16.9839 2.0835 15.8333 2.0835ZM4.16668 0.833496C2.32573 0.833496 0.833344 2.32588 0.833344 4.16683V7.0835H19.1667V4.16683C19.1667 2.32588 17.6743 0.833496 15.8333 0.833496H4.16668Z" fill="#18202A"/>
</g>
<defs>
<clipPath id="clip0_2266_40444">
<rect width="20" height="20" fill="white"/>
</clipPath>
</defs>
</svg>
