<svg width="20" height="20" viewBox="0 0 20 20" fill="none" xmlns="http://www.w3.org/2000/svg">
<g clip-path="url(#clip0_3916_8845)">
<path fill-rule="evenodd" clip-rule="evenodd" d="M5.47869 3.44426C4.82243 2.78802 5.28727 1.66593 6.21535 1.66602L14.7916 1.66679C15.3669 1.66684 15.8331 2.13313 15.8332 2.70834L15.8341 11.2847C15.8342 12.2128 14.7122 12.6777 14.0559 12.0214L11.8795 9.84501C10.1969 11.5852 9.32194 12.8652 8.92227 14.0426C8.51815 15.233 8.57482 16.3928 8.91137 17.9623C9.01799 18.4595 8.76835 18.8997 8.39356 19.1016C8.00913 19.3087 7.48665 19.2648 7.1435 18.8549C4.90777 16.1846 4.25741 13.6427 4.61581 11.3256C4.95913 9.10593 6.21376 7.18803 7.66621 5.63172L5.47869 3.44426ZM14.5832 2.91677L6.71827 2.91606L8.68988 4.88763C9.09931 5.29704 9.09025 5.94842 8.70363 6.35364C7.28388 7.84171 6.15008 9.58378 5.85112 11.5167C5.58723 13.2228 5.96135 15.1593 7.51613 17.3027C7.31536 16.02 7.32577 14.8569 7.73861 13.6408C8.24086 12.1612 9.31339 10.6788 11.1342 8.81852C11.5377 8.40626 12.2031 8.40084 12.6125 8.81022L14.5841 10.7818L14.5832 2.91677Z" fill="#18202A"/>
</g>
<defs>
<clipPath id="clip0_3916_8845">
<rect width="20" height="20" fill="white"/>
</clipPath>
</defs>
</svg>
