<svg width="20" height="20" viewBox="0 0 20 20" fill="none" xmlns="http://www.w3.org/2000/svg">
<g clip-path="url(#clip0_2266_35408)">
<path fill-rule="evenodd" clip-rule="evenodd" d="M0.833334 4.16634C0.833334 2.32539 2.32572 0.833008 4.16667 0.833008H15.8333C17.6743 0.833008 19.1667 2.32539 19.1667 4.16634V12.7579C18.6685 11.7372 17.7655 10.9502 16.6667 10.6061V9.99967C16.6667 9.53944 16.2936 9.16634 15.8333 9.16634H4.16667C3.70643 9.16634 3.33333 9.53944 3.33333 9.99967V15.833C3.33333 16.2932 3.70643 16.6663 4.16667 16.6663H10.9834C10.1747 17.3694 10.2855 18.5439 10.9747 19.1663H4.16667C2.32572 19.1663 0.833334 17.674 0.833334 15.833V4.16634ZM3.33333 4.99967C3.33333 4.0792 4.07953 3.33301 5 3.33301C5.92048 3.33301 6.66667 4.0792 6.66667 4.99967C6.66667 5.92015 5.92048 6.66634 5 6.66634C4.07953 6.66634 3.33333 5.92015 3.33333 4.99967ZM9.16667 4.16634C8.70643 4.16634 8.33333 4.53944 8.33333 4.99967C8.33333 5.45991 8.70643 5.83301 9.16667 5.83301H15.8333C16.2936 5.83301 16.6667 5.45991 16.6667 4.99967C16.6667 4.53944 16.2936 4.16634 15.8333 4.16634H9.16667Z" fill="#18202A"/>
<path fill-rule="evenodd" clip-rule="evenodd" d="M18.3333 14.5955L18.3334 14.5837C18.3334 12.9728 17.0275 11.667 15.4167 11.667C14.4899 11.667 13.6641 12.0992 13.1299 12.7731L18.4979 16.8781C18.3907 16.6305 18.3333 16.3606 18.3333 16.0837V14.5955ZM17.932 18.3337H11.9167C11.5696 18.3337 11.4224 17.8919 11.7 17.6837C12.2036 17.3059 12.5 16.7132 12.5 16.0837V14.5837L12.5 14.5837L12.5 14.5836C12.5 14.4533 12.5086 14.3249 12.5252 14.199L17.932 18.3337ZM14.1667 19.5837C14.1667 19.3535 14.3532 19.167 14.5834 19.167H16.25C16.4801 19.167 16.6667 19.3535 16.6667 19.5837C16.6667 19.8138 16.4801 20.0003 16.25 20.0003H14.5834C14.3532 20.0003 14.1667 19.8138 14.1667 19.5837Z" fill="#18202A"/>
<path d="M12.0833 12.083L19.1667 17.4997" stroke="#18202A" stroke-width="1.5" stroke-linecap="round"/>
</g>
<defs>
<clipPath id="clip0_2266_35408">
<rect width="20" height="20" fill="white"/>
</clipPath>
</defs>
</svg>
