<svg width="20" height="20" viewBox="0 0 20 20" fill="none" xmlns="http://www.w3.org/2000/svg">
<g clip-path="url(#clip0_3517_8971)">
<g clip-path="url(#clip1_3517_8971)">
<path d="M3.33329 4.16634C3.33329 4.62658 2.9602 4.99967 2.49996 4.99967C2.03972 4.99967 1.66663 4.62658 1.66663 4.16634C1.66663 3.7061 2.03972 3.33301 2.49996 3.33301C2.9602 3.33301 3.33329 3.7061 3.33329 4.16634Z" fill="#18202A"/>
<path d="M5.83329 4.16634C5.83329 3.7061 6.20639 3.33301 6.66663 3.33301H17.5C17.9602 3.33301 18.3333 3.7061 18.3333 4.16634C18.3333 4.62658 17.9602 4.99967 17.5 4.99967H6.66663C6.20639 4.99967 5.83329 4.62658 5.83329 4.16634Z" fill="#18202A"/>
<path d="M6.66663 9.16634C6.20639 9.16634 5.83329 9.53944 5.83329 9.99967C5.83329 10.4599 6.20639 10.833 6.66663 10.833H12.827C13.7049 10.304 14.7336 9.99967 15.8333 9.99967C16.6661 9.99967 17.4581 10.1742 18.1748 10.4887C18.2745 10.3513 18.3333 10.1824 18.3333 9.99967C18.3333 9.53944 17.9602 9.16634 17.5 9.16634H6.66663Z" fill="#18202A"/>
<path d="M9.99996 15.833C9.99996 15.5501 10.0201 15.2718 10.059 14.9997H6.66663C6.20639 14.9997 5.83329 15.3728 5.83329 15.833C5.83329 16.2932 6.20639 16.6663 6.66663 16.6663H10.059C10.0201 16.3942 9.99996 16.1159 9.99996 15.833Z" fill="#18202A"/>
<path d="M3.33329 9.99967C3.33329 10.4599 2.9602 10.833 2.49996 10.833C2.03972 10.833 1.66663 10.4599 1.66663 9.99967C1.66663 9.53944 2.03972 9.16634 2.49996 9.16634C2.9602 9.16634 3.33329 9.53944 3.33329 9.99967Z" fill="#18202A"/>
<path d="M3.33329 15.833C3.33329 16.2932 2.9602 16.6663 2.49996 16.6663C2.03972 16.6663 1.66663 16.2932 1.66663 15.833C1.66663 15.3728 2.03972 14.9997 2.49996 14.9997C2.9602 14.9997 3.33329 15.3728 3.33329 15.833Z" fill="#18202A"/>
<path fill-rule="evenodd" clip-rule="evenodd" d="M15.8333 19.9997C18.1345 19.9997 20 18.1342 20 15.833C20 13.5318 18.1345 11.6663 15.8333 11.6663C13.5321 11.6663 11.6666 13.5318 11.6666 15.833C11.6666 18.1342 13.5321 19.9997 15.8333 19.9997ZM15 14.1663C15 13.7061 15.3731 13.333 15.8333 13.333C16.2935 13.333 16.6666 13.7061 16.6666 14.1663V14.9997H17.5C17.9602 14.9997 18.3333 15.3728 18.3333 15.833C18.3333 16.2932 17.9602 16.6663 17.5 16.6663H16.6666V17.4997C16.6666 17.9599 16.2935 18.333 15.8333 18.333C15.3731 18.333 15 17.9599 15 17.4997V16.6663H14.1666C13.7064 16.6663 13.3333 16.2932 13.3333 15.833C13.3333 15.3728 13.7064 14.9997 14.1666 14.9997H15V14.1663Z" fill="#18202A"/>
</g>
</g>
<defs>
<clipPath id="clip0_3517_8971">
<rect width="20" height="20" fill="white"/>
</clipPath>
<clipPath id="clip1_3517_8971">
<rect width="20" height="20" fill="white"/>
</clipPath>
</defs>
</svg>
