<svg width="20" height="20" viewBox="0 0 20 20" fill="none" xmlns="http://www.w3.org/2000/svg">
<path fill-rule="evenodd" clip-rule="evenodd" d="M13.3333 4.47884C13.3333 7.08301 12.2222 9.16634 9.99999 9.16634C7.77777 9.16634 6.66666 7.08301 6.66666 4.47884C6.66666 2.39551 7.77777 0.833008 9.99999 0.833008C12.2222 0.833008 13.3333 2.39551 13.3333 4.47884ZM12.0833 4.47884C12.0833 5.62726 11.8347 6.53475 11.455 7.11322C11.1089 7.64042 10.6521 7.91634 9.99999 7.91634C9.34787 7.91634 8.89104 7.64042 8.54498 7.11322C8.16527 6.53475 7.91666 5.62726 7.91666 4.47884C7.91666 3.64564 8.13919 3.0513 8.45085 2.68607C8.73842 2.34908 9.20501 2.08301 9.99999 2.08301C10.795 2.08301 11.2616 2.34908 11.5491 2.68607C11.8608 3.0513 12.0833 3.64564 12.0833 4.47884ZM9.41425 17.9041C9.63285 18.3551 9.90078 18.7777 10.211 19.1649C10.1408 19.1659 10.0705 19.1663 9.99999 19.1663C8.7105 19.1663 7.459 19.0036 6.26493 18.6976C5.24906 18.4373 4.38807 17.7568 3.91654 16.8201C3.77676 16.5424 3.64641 16.2592 3.52589 15.9709C3.0138 14.7456 3.21788 13.3121 4.16609 12.3824C5.66927 10.9085 7.7285 9.99967 10 9.99967C10.3203 9.99967 10.6364 10.0177 10.9473 10.0529C10.5539 10.4086 10.2031 10.8106 9.90346 11.2503C8.01056 11.2756 6.29887 12.0418 5.04123 13.2749C4.5047 13.801 4.33803 14.6725 4.67921 15.4888C4.78836 15.75 4.90643 16.0065 5.03305 16.2581C5.33833 16.8645 5.90079 17.3139 6.57525 17.4867C7.48749 17.7205 8.43712 17.8632 9.41425 17.9041ZM15.0484 9.99967C14.5659 9.99967 14.1523 10.3441 14.0649 10.8186L14.0072 11.1321C13.5072 11.3049 13.0512 11.5719 12.6603 11.9119L12.3577 11.8043C11.9031 11.6427 11.3979 11.8287 11.1567 12.2466L10.8644 12.7528C10.6232 13.1706 10.7147 13.7011 11.0819 14.014L11.3267 14.2226C11.2784 14.4742 11.253 14.734 11.253 14.9997C11.253 15.2654 11.2784 15.5252 11.3267 15.7768L11.0819 15.9854C10.7147 16.2983 10.6232 16.8287 10.8644 17.2466L11.1567 17.7528C11.3979 18.1706 11.9031 18.3566 12.3577 18.195L12.6603 18.0875C13.0512 18.4274 13.5072 18.6944 14.0072 18.8672L14.0649 19.1807C14.1523 19.6552 14.5659 19.9997 15.0484 19.9997H15.633C16.1154 19.9997 16.5291 19.6552 16.6164 19.1807L16.6737 18.8696C17.1756 18.6972 17.6334 18.4299 18.0256 18.0891L18.3237 18.195C18.7783 18.3566 19.2834 18.1706 19.5247 17.7528L19.817 17.2466C20.0582 16.8287 19.9667 16.2983 19.5995 15.9854L19.3602 15.7815C19.4092 15.5285 19.4348 15.2671 19.4348 14.9997C19.4348 14.7323 19.4092 14.4709 19.3602 14.2178L19.5995 14.014C19.9667 13.7011 20.0582 13.1706 19.817 12.7528L19.5247 12.2466C19.2834 11.8287 18.7783 11.6427 18.3237 11.8043L18.0257 11.9103C17.6334 11.5695 17.1756 11.3022 16.6737 11.1297L16.6164 10.8186C16.5291 10.3441 16.1154 9.99967 15.633 9.99967H15.0484ZM15.3401 16.6663C16.2606 16.6663 17.0068 15.9201 17.0068 14.9997C17.0068 14.0792 16.2606 13.333 15.3401 13.333C14.4197 13.333 13.6735 14.0792 13.6735 14.9997C13.6735 15.9201 14.4197 16.6663 15.3401 16.6663Z" fill="#18202A"/>
</svg>
