<svg width="20" height="20" viewBox="0 0 20 20" fill="none" xmlns="http://www.w3.org/2000/svg">
<g clip-path="url(#clip0_2266_30487)">
<path fill-rule="evenodd" clip-rule="evenodd" d="M3.33329 1.66663C2.41282 1.66663 1.66663 2.41282 1.66663 3.33329V4.16663C1.66663 5.0871 2.41282 5.83329 3.33329 5.83329H16.6666C17.5871 5.83329 18.3333 5.0871 18.3333 4.16663V3.33329C18.3333 2.41282 17.5871 1.66663 16.6666 1.66663H3.33329ZM2.49996 8.33329C2.49996 7.87306 2.87306 7.49996 3.33329 7.49996H16.6666C17.1269 7.49996 17.5 7.87306 17.5 8.33329V10.6779C16.9749 10.5083 16.4148 10.4166 15.8333 10.4166C12.8418 10.4166 10.4166 12.8418 10.4166 15.8333C10.4166 17.0904 10.8449 18.2475 11.5634 19.1666H5.83329C3.99234 19.1666 2.49996 17.6742 2.49996 15.8333V8.33329ZM6.66663 9.99996C6.66663 9.53972 7.03972 9.16663 7.49996 9.16663H12.5C12.9602 9.16663 13.3333 9.53972 13.3333 9.99996C13.3333 10.4602 12.9602 10.8333 12.5 10.8333H7.49996C7.03972 10.8333 6.66663 10.4602 6.66663 9.99996ZM20 15.8333C20 18.1345 18.1345 20 15.8333 20C13.5321 20 11.6666 18.1345 11.6666 15.8333C11.6666 13.5321 13.5321 11.6666 15.8333 11.6666C18.1345 11.6666 20 13.5321 20 15.8333ZM17.8957 13.7709C18.1398 14.015 18.1398 14.4107 17.8957 14.6548L16.7172 15.8333L17.8957 17.0118C18.1398 17.2559 18.1398 17.6516 17.8957 17.8957C17.6516 18.1397 17.2559 18.1397 17.0118 17.8957L15.8333 16.7172L14.6548 17.8957C14.4107 18.1397 14.015 18.1397 13.7709 17.8957C13.5268 17.6516 13.5268 17.2559 13.7709 17.0118L14.9494 15.8333L13.7709 14.6548C13.5268 14.4107 13.5268 14.015 13.7709 13.7709C14.015 13.5268 14.4107 13.5268 14.6548 13.7709L15.8333 14.9494L17.0118 13.7709C17.2559 13.5268 17.6516 13.5268 17.8957 13.7709Z" fill="#18202A"/>
</g>
<defs>
<clipPath id="clip0_2266_30487">
<rect width="20" height="20" fill="white"/>
</clipPath>
</defs>
</svg>
