<svg width="20" height="20" viewBox="0 0 20 20" fill="none" xmlns="http://www.w3.org/2000/svg">
<path fill-rule="evenodd" clip-rule="evenodd" d="M10 3.33341C10 2.87318 9.62593 2.49681 9.16694 2.53064C4.49474 2.87503 0.833374 6.08772 0.833374 10.0001C0.833374 14.1422 4.93743 17.5001 10 17.5001C10.9803 17.5001 11.9246 17.3742 12.8101 17.1411L15.402 18.2211C15.9786 18.4613 16.6048 18.0052 16.5529 17.3826L16.3861 15.3806C18.1011 14.0177 19.1667 12.1107 19.1667 10.0001C19.1667 9.95754 19.1663 9.91508 19.1654 9.87271C19.1572 9.46705 18.808 9.16675 18.4023 9.16675H18.2574C17.8227 9.16675 17.5 9.5654 17.5 10.0001C17.5 11.5171 16.7384 12.9718 15.3492 14.0758L14.6511 14.6305L14.7782 16.1556L12.9309 15.3859L12.3858 15.5293C11.6393 15.7258 10.8377 15.8334 10 15.8334C5.5296 15.8334 2.50004 12.9246 2.50004 10.0001C2.50004 7.26096 5.15761 4.53567 9.16749 4.20109C9.62613 4.16282 10 3.79365 10 3.33341Z" fill="#18202A"/>
<path d="M14.1667 1.66675C14.6269 1.66675 15 1.94657 15 2.29175V2.93519C16.4531 3.24437 18.1299 4.79255 18.1299 5.83341C18.1299 6.23274 17.6122 6.04955 16.9332 5.80934C16.3327 5.59686 15.606 5.33975 15 5.40171V10.0001C15 11.3808 13.8808 12.5001 12.5 12.5001C11.1193 12.5001 10 11.3808 10 10.0001C10 8.61937 11.1193 7.50008 12.5 7.50008C12.7922 7.50008 13.0727 7.55021 13.3334 7.64234V2.29175C13.3334 1.94657 13.7065 1.66675 14.1667 1.66675Z" fill="#18202A"/>
</svg>
