<svg width="20" height="20" viewBox="0 0 20 20" fill="none" xmlns="http://www.w3.org/2000/svg">
<g clip-path="url(#clip0_2753_8436)">
<path d="M12.5 10.0002C12.5 11.3809 11.3807 12.5002 9.99998 12.5002C8.61927 12.5002 7.49998 11.3809 7.49998 10.0002C7.49998 8.61945 8.61927 7.50016 9.99998 7.50016C11.3807 7.50016 12.5 8.61945 12.5 10.0002Z" fill="#18202A"/>
<path fill-rule="evenodd" clip-rule="evenodd" d="M9.99998 19.1668C15.0626 19.1668 19.1666 15.0628 19.1666 10.0002C19.1666 4.93755 15.0626 0.833496 9.99998 0.833496C4.93737 0.833496 0.833313 4.93755 0.833313 10.0002C0.833313 15.0628 4.93737 19.1668 9.99998 19.1668ZM9.99998 17.9168C14.3722 17.9168 17.9166 14.3724 17.9166 10.0002C17.9166 5.62791 14.3722 2.0835 9.99998 2.0835C5.62773 2.0835 2.08331 5.62791 2.08331 10.0002C2.08331 14.3724 5.62773 17.9168 9.99998 17.9168Z" fill="#18202A"/>
</g>
<defs>
<clipPath id="clip0_2753_8436">
<rect width="20" height="20" fill="white"/>
</clipPath>
</defs>
</svg>
