<svg width="20" height="20" viewBox="0 0 20 20" fill="none" xmlns="http://www.w3.org/2000/svg">
<path fill-rule="evenodd" clip-rule="evenodd" d="M6.83333 0.833374C6.28105 0.833374 5.83333 1.28109 5.83333 1.83337V2.33337C5.83333 2.88566 6.28105 3.33337 6.83333 3.33337H13.1667C13.719 3.33337 14.1667 2.88566 14.1667 2.33337V1.83337C14.1667 1.28109 13.719 0.833374 13.1667 0.833374H6.83333ZM4.16663 1.77178C2.72894 2.14181 1.66663 3.4469 1.66663 5.0001V15.8334C1.66663 17.6744 3.15901 19.1668 4.99996 19.1668H15C16.8409 19.1668 18.3333 17.6744 18.3333 15.8334V5.0001C18.3333 3.4469 17.271 2.14182 15.8333 1.77178V2.5001C15.8333 3.88081 14.714 5.0001 13.3333 5.0001H6.66663C5.28591 5.0001 4.16663 3.88081 4.16663 2.5001V1.77178ZM14.7559 7.74418C15.0813 8.06961 15.0813 8.59725 14.7559 8.92269L8.92255 14.756C8.59711 15.0815 8.06947 15.0815 7.74404 14.756L5.24404 12.256C4.9186 11.9306 4.9186 11.4029 5.24404 11.0775C5.56947 10.7521 6.09711 10.7521 6.42255 11.0775L8.33329 12.9883L13.5774 7.74418C13.9028 7.41874 14.4304 7.41874 14.7559 7.74418Z" fill="#18202A"/>
</svg>
