<svg width="20" height="20" viewBox="0 0 20 20" fill="none" xmlns="http://www.w3.org/2000/svg">
<g clip-path="url(#clip0_2266_39739)">
<path d="M2.10036 9.74259V9.69981L2.09743 9.65714C1.82875 5.736 5.53823 2.0835 10.0085 2.0835C14.4553 2.0835 17.9166 5.10051 17.9166 9.74259C17.9166 9.99419 17.9038 10.2441 17.8785 10.4916L18.8205 12.1567C19.048 11.3839 19.1666 10.5723 19.1666 9.74259C19.1666 4.3335 15.0664 0.833496 10.0085 0.833496C4.9506 0.833496 0.523321 4.96986 0.850357 9.74259C0.850357 12.5945 1.99016 14.8273 3.80919 16.301L3.98427 18.402C4.03231 18.9785 4.63871 19.3318 5.16394 19.0894L7.43553 18.041C7.73311 18.1115 8.03695 18.1694 8.34623 18.2146C8.30752 17.8075 8.35483 17.3855 8.50283 16.9742C8.23734 16.9347 7.97735 16.8847 7.7235 16.8246L7.30355 16.7252L5.18053 17.7051L5.01057 15.6655L4.59606 15.3297C3.08233 14.1033 2.10036 12.2336 2.10036 9.74259Z" fill="#18202A"/>
<path fill-rule="evenodd" clip-rule="evenodd" d="M18.9978 19.1668H11.0022C10.2337 19.1668 9.75197 18.3203 10.1335 17.6402L14.1313 10.5139C14.5155 9.82893 15.4844 9.82892 15.8687 10.5139L19.8665 17.6402C20.248 18.3203 19.7663 19.1668 18.9978 19.1668ZM15 12.5002C14.6548 12.5002 14.375 12.78 14.375 13.1252V14.7918C14.375 15.137 14.6548 15.4168 15 15.4168C15.3452 15.4168 15.625 15.137 15.625 14.7918V13.1252C15.625 12.78 15.3452 12.5002 15 12.5002ZM15 16.2502C14.6548 16.2502 14.375 16.53 14.375 16.8752C14.375 17.2203 14.6548 17.5002 15 17.5002C15.3452 17.5002 15.625 17.2203 15.625 16.8752C15.625 16.53 15.3452 16.2502 15 16.2502Z" fill="#18202A"/>
</g>
<defs>
<clipPath id="clip0_2266_39739">
<rect width="20" height="20" fill="white"/>
</clipPath>
</defs>
</svg>
