<svg width="20" height="20" viewBox="0 0 20 20" fill="none" xmlns="http://www.w3.org/2000/svg">
<g clip-path="url(#clip0_2266_36565)">
<path d="M9.68758 0.879216C9.85052 0.830448 10.0226 0.820695 10.1892 0.849955L10.3128 0.879216L18.4303 3.32085C18.8683 3.45286 19.1671 3.84365 19.1667 4.28571C19.1667 15.0974 13.4957 17.682 10.4483 19.0699C10.3066 19.1345 10.1536 19.1668 10.0003 19.1668C9.84684 19.1668 9.69342 19.1345 9.55133 19.0699L9.10998 18.8677C5.98911 17.4234 0.833334 14.5945 0.833334 4.28571C0.833334 3.88012 1.08443 3.51795 1.46363 3.35903L1.57014 3.32085L9.68758 0.879216ZM10.0008 2.52516L2.50417 4.78016L2.51123 5.0935C2.62321 9.05768 3.56916 11.9075 5.17082 13.947L5.33316 14.1483C6.48614 15.54 7.62503 16.317 9.64053 17.2737L10 17.441L10.064 17.4122C12.1655 16.4368 13.3483 15.6783 14.5021 14.3432L14.6668 14.1484C16.3668 12.0964 17.3731 9.18987 17.4888 5.0922L17.495 4.78016L10.0008 2.52516Z" fill="#18202A"/>
<path fill-rule="evenodd" clip-rule="evenodd" d="M4.17925 6.19023L4.16667 6.0035L9.94417 4.26516L15.7192 6.00266L15.7074 6.1884C15.4692 9.3118 14.6258 11.517 13.3267 13.0852L13.182 13.256C12.3603 14.2039 11.503 14.8161 10.0987 15.5193L9.94333 15.596L9.51459 15.38C8.19132 14.6924 7.37311 14.0666 6.55993 13.085L6.41207 12.9012C5.19683 11.3459 4.40833 9.19167 4.17925 6.19023Z" fill="#18202A"/>
</g>
<defs>
<clipPath id="clip0_2266_36565">
<rect width="20" height="20" fill="white"/>
</clipPath>
</defs>
</svg>
