<svg width="20" height="20" viewBox="0 0 20 20" fill="none" xmlns="http://www.w3.org/2000/svg">
<path d="M7.29169 1.6665C7.63687 1.6665 7.91669 1.94633 7.91669 2.2915C7.91669 2.63668 7.63687 2.9165 7.29169 2.9165H4.16669C3.47633 2.9165 2.91669 3.47615 2.91669 4.1665V7.2915C2.91669 7.63668 2.63686 7.9165 2.29169 7.9165C1.94651 7.9165 1.66669 7.63668 1.66669 7.2915V4.1665C1.66669 2.78579 2.78598 1.6665 4.16669 1.6665H7.29169Z" fill="#18202A"/>
<path d="M12.0834 2.2915C12.0834 2.63668 12.3632 2.9165 12.7084 2.9165H15.8334C16.5237 2.9165 17.0834 3.47615 17.0834 4.1665V7.2915C17.0834 7.63668 17.3632 7.9165 17.7084 7.9165C18.0535 7.9165 18.3334 7.63668 18.3334 7.2915V4.1665C18.3334 2.78579 17.2141 1.6665 15.8334 1.6665H12.7084C12.3632 1.6665 12.0834 1.94633 12.0834 2.2915Z" fill="#18202A"/>
<path d="M12.0834 17.7082C12.0834 17.363 12.3632 17.0832 12.7084 17.0832H15.8334C16.5237 17.0832 17.0834 16.5235 17.0834 15.8332V12.7082C17.0834 12.363 17.3632 12.0832 17.7084 12.0832C18.0535 12.0832 18.3334 12.363 18.3334 12.7082V15.8332C18.3334 17.2139 17.2141 18.3332 15.8334 18.3332H12.7084C12.3632 18.3332 12.0834 18.0533 12.0834 17.7082Z" fill="#18202A"/>
<path d="M2.91669 12.7082C2.91669 12.363 2.63686 12.0832 2.29169 12.0832C1.94651 12.0832 1.66669 12.363 1.66669 12.7082V15.8332C1.66669 17.2139 2.78597 18.3332 4.16669 18.3332H7.29169C7.63687 18.3332 7.91669 18.0533 7.91669 17.7082C7.91669 17.363 7.63687 17.0832 7.29169 17.0832H4.16669C3.47633 17.0832 2.91669 16.5235 2.91669 15.8332V12.7082Z" fill="#18202A"/>
</svg>
