<svg width="20" height="20" viewBox="0 0 20 20" fill="none" xmlns="http://www.w3.org/2000/svg">
<g clip-path="url(#clip0_2266_38230)">
<path d="M17.4991 4.71559C16.8779 3.83559 16.1017 3.06501 15.1997 2.44544C13.4 1.2092 11.218 0.655341 9.04621 0.883485C6.87439 1.11163 4.8553 2.1068 3.35209 3.69001C1.84887 5.27322 0.960201 7.34056 0.845911 9.52017C0.73162 11.6998 1.39921 13.8486 2.72861 15.5802C4.05801 17.3118 5.96196 18.5125 8.09802 18.9663C10.2341 19.42 12.462 19.0972 14.3812 18.0557C16.0329 17.1594 17.3626 15.7814 18.2 14.1158C18.4254 13.6674 18.1873 13.1392 17.7186 12.9593C17.2502 12.7796 16.7295 13.0168 16.4925 13.4588C15.256 15.7648 12.8218 17.3332 10.021 17.3332C5.96877 17.3332 2.68377 14.05 2.68377 9.99992C2.68377 5.94984 5.96877 2.6666 10.021 2.6666C12.8723 2.6666 15.3438 4.29214 16.5582 6.66658H12.4964C12.036 6.66658 11.6627 7.03967 11.6627 7.49991C11.6627 7.96014 12.036 8.33324 12.4964 8.33324H18.3329C18.7934 8.33324 19.1667 7.96014 19.1667 7.49991V1.66658C19.1667 1.20635 18.7934 0.833252 18.3329 0.833252C17.8724 0.833252 17.4991 1.20635 17.4991 1.66658V4.71559Z" fill="#18202A"/>
</g>
<defs>
<clipPath id="clip0_2266_38230">
<rect width="20" height="20" fill="white"/>
</clipPath>
</defs>
</svg>
