<svg width="20" height="20" viewBox="0 0 20 20" fill="none" xmlns="http://www.w3.org/2000/svg">
<path d="M5 2.5H4.16667C2.78595 2.5 1.66667 3.61929 1.66667 5V5.83333C1.66667 7.21405 2.78595 8.33333 4.16667 8.33333H5C6.38071 8.33333 7.5 7.21405 7.5 5.83333V5C7.5 3.61929 6.38071 2.5 5 2.5Z" fill="#18202A"/>
<path d="M5 11.6667H4.16667C2.78595 11.6667 1.66667 12.786 1.66667 14.1667V15C1.66667 16.3807 2.78595 17.5 4.16667 17.5H5C6.38071 17.5 7.5 16.3807 7.5 15V14.1667C7.5 12.786 6.38071 11.6667 5 11.6667Z" fill="#18202A"/>
<path fill-rule="evenodd" clip-rule="evenodd" d="M9.16667 4.16667C9.16667 3.70643 9.53976 3.33333 10 3.33333H17.5C17.9602 3.33333 18.3333 3.70643 18.3333 4.16667C18.3333 4.6269 17.9602 5 17.5 5H10C9.53976 5 9.16667 4.6269 9.16667 4.16667Z" fill="#18202A"/>
<path fill-rule="evenodd" clip-rule="evenodd" d="M9.16667 6.66667C9.16667 6.20643 9.53976 5.83333 10 5.83333H17.5C17.9602 5.83333 18.3333 6.20643 18.3333 6.66667C18.3333 7.1269 17.9602 7.5 17.5 7.5H10C9.53976 7.5 9.16667 7.1269 9.16667 6.66667Z" fill="#18202A"/>
<path fill-rule="evenodd" clip-rule="evenodd" d="M9.16667 13.3333C9.16667 12.8731 9.53976 12.5 10 12.5H17.5C17.9602 12.5 18.3333 12.8731 18.3333 13.3333C18.3333 13.7936 17.9602 14.1667 17.5 14.1667H10C9.53976 14.1667 9.16667 13.7936 9.16667 13.3333Z" fill="#18202A"/>
<path fill-rule="evenodd" clip-rule="evenodd" d="M9.16667 15.8333C9.16667 15.3731 9.53976 15 10 15H17.5C17.9602 15 18.3333 15.3731 18.3333 15.8333C18.3333 16.2936 17.9602 16.6667 17.5 16.6667H10C9.53976 16.6667 9.16667 16.2936 9.16667 15.8333Z" fill="#18202A"/>
</svg>
