<svg width="20" height="20" viewBox="0 0 20 20" fill="none" xmlns="http://www.w3.org/2000/svg">
<path d="M5.00002 5.83317C4.65484 5.83317 4.37502 6.11299 4.37502 6.45817C4.37502 6.80335 4.65484 7.08317 5.00002 7.08317H15C15.3452 7.08317 15.625 6.80335 15.625 6.45817C15.625 6.11299 15.3452 5.83317 15 5.83317H5.00002Z" fill="#18202A"/>
<path d="M5.00002 9.1665C4.65484 9.1665 4.37502 9.44633 4.37502 9.7915C4.37502 10.1367 4.65484 10.4165 5.00002 10.4165H15C15.3452 10.4165 15.625 10.1367 15.625 9.7915C15.625 9.44633 15.3452 9.1665 15 9.1665H5.00002Z" fill="#18202A"/>
<path d="M4.37502 13.1248C4.37502 12.7797 4.65484 12.4998 5.00002 12.4998H10C10.3452 12.4998 10.625 12.7797 10.625 13.1248C10.625 13.47 10.3452 13.7498 10 13.7498H5.00002C4.65484 13.7498 4.37502 13.47 4.37502 13.1248Z" fill="#18202A"/>
<path fill-rule="evenodd" clip-rule="evenodd" d="M1.66669 4.99984C1.66669 3.15889 3.15907 1.6665 5.00002 1.6665H15C16.841 1.6665 18.3334 3.15889 18.3334 4.99984V14.9998C18.3334 16.8408 16.841 18.3332 15 18.3332H5.00002C3.15907 18.3332 1.66669 16.8408 1.66669 14.9998V4.99984ZM15 2.9165C16.1506 2.9165 17.0834 3.84924 17.0834 4.99984V14.9998C17.0834 16.1504 16.1506 17.0832 15 17.0832H5.00002C3.84943 17.0832 2.91669 16.1504 2.91669 14.9998V4.99984C2.91669 3.84924 3.84943 2.9165 5.00002 2.9165H15Z" fill="#18202A"/>
</svg>
