<svg width="20" height="20" viewBox="0 0 20 20" fill="none" xmlns="http://www.w3.org/2000/svg">
<path fill-rule="evenodd" clip-rule="evenodd" d="M16.6667 5.00033H14.0833C13.6973 3.09846 12.0158 1.66699 10 1.66699C7.9842 1.66699 6.30274 3.09846 5.91668 5.00033H3.33333C1.95262 5.00033 0.833334 6.11961 0.833334 7.50033V9.20575L7.33424 11.2893C9.07796 11.7416 10.9213 11.7416 12.665 11.2893L19.1667 9.20575V7.50033C19.1667 6.11961 18.0474 5.00033 16.6667 5.00033ZM10 3.33366C11.0885 3.33366 12.0145 4.02933 12.3577 5.00033H7.64226C7.98545 4.02933 8.91148 3.33366 10 3.33366ZM11.25 8.75033C11.25 9.44068 10.6904 10.0003 10 10.0003C9.30964 10.0003 8.75 9.44068 8.75 8.75033C8.75 8.05997 9.30964 7.50033 10 7.50033C10.6904 7.50033 11.25 8.05997 11.25 8.75033Z" fill="#18202A"/>
<path d="M19.1667 10.9408L13.0136 12.9127L12.9971 12.917C11.036 13.429 8.96314 13.429 7.00211 12.917L6.98555 12.9127L0.833334 10.9408V15.8337C0.833334 17.2144 1.95262 18.3337 3.33333 18.3337H16.6667C18.0474 18.3337 19.1667 17.2144 19.1667 15.8337V10.9408Z" fill="#18202A"/>
</svg>
