<svg width="20" height="20" viewBox="0 0 20 20" fill="none" xmlns="http://www.w3.org/2000/svg">
<path fill-rule="evenodd" clip-rule="evenodd" d="M3.33333 4.16634C3.33333 2.32539 4.82572 0.833008 6.66667 0.833008H15C16.8409 0.833008 18.3333 2.32539 18.3333 4.16634V15.833C18.3333 17.674 16.8409 19.1663 15 19.1663H6.66667C4.82572 19.1663 3.33333 17.674 3.33333 15.833V4.16634ZM10.8333 9.62089C11.8434 9.62089 12.3485 8.67392 12.3485 7.4902C12.3485 6.54323 11.8434 5.83301 10.8333 5.83301C9.82324 5.83301 9.31819 6.54323 9.31819 7.4902C9.31819 8.67392 9.82324 9.62089 10.8333 9.62089ZM7.9922 11.6291C7.65791 12.4756 7.80984 12.6491 8.11372 12.9962C8.73597 13.7071 9.72261 14.1663 10.8333 14.1663C11.9441 14.1663 12.9307 13.7071 13.553 12.9963C13.8568 12.6491 14.0088 12.4756 13.6745 11.6291C13.3402 10.7826 13.0161 10.7066 12.368 10.5545C11.879 10.4397 11.3644 10.3785 10.8333 10.3785C10.3023 10.3785 9.78773 10.4397 9.29868 10.5545C8.65055 10.7066 8.32648 10.7826 7.9922 11.6291ZM0.833334 4.99967C0.833334 4.53944 1.20643 4.16634 1.66667 4.16634H2.5V7.49967H1.66667C1.20643 7.49967 0.833334 7.12658 0.833334 6.66634V4.99967ZM0.833334 9.16634C0.833334 8.7061 1.20643 8.33301 1.66667 8.33301H2.5V11.6663H1.66667C1.20643 11.6663 0.833334 11.2932 0.833334 10.833V9.16634ZM1.66667 12.4997C1.20643 12.4997 0.833334 12.8728 0.833334 13.333V14.9997C0.833334 15.4599 1.20643 15.833 1.66667 15.833H2.5V12.4997H1.66667Z" fill="#18202A"/>
</svg>
