<svg width="20" height="20" viewBox="0 0 20 20" fill="none" xmlns="http://www.w3.org/2000/svg">
<path d="M14.6968 11.1851L16.8649 7.2102L16.9107 7.256C17.2362 7.58144 17.7638 7.58144 18.0893 7.256C18.2518 7.09349 18.3331 6.88056 18.3333 6.66756V6.66593C18.3331 6.45294 18.2518 6.24 18.0893 6.07749L17.2696 5.25784C17.2609 5.24871 17.2519 5.23976 17.2428 5.23099L14.7691 2.75731C14.7603 2.74814 14.7514 2.73921 14.7423 2.7305L13.9226 1.91083C13.5972 1.58539 13.0695 1.58539 12.7441 1.91083C12.4186 2.23626 12.4186 2.7639 12.7441 3.08934L12.7899 3.13515L8.81501 5.30326L14.6968 11.1851Z" fill="#18202A"/>
<path d="M3.57741 3.57749C3.90284 3.25205 4.43048 3.25205 4.75592 3.57749L16.4232 15.2448C16.7486 15.5702 16.7486 16.0978 16.4232 16.4233C16.0977 16.7487 15.5701 16.7487 15.2447 16.4233L13.0414 14.22L12.4027 15.3909L13.0893 16.0775C13.4147 16.4029 13.4147 16.9306 13.0893 17.256C12.7638 17.5814 12.2362 17.5814 11.9107 17.256L7.91667 13.2619L4.75592 16.4227C4.43049 16.7481 3.90285 16.7481 3.57741 16.4227C3.25197 16.0972 3.25197 15.5696 3.57741 15.2442L6.73816 12.0834L2.74408 8.08934C2.41864 7.7639 2.41864 7.23626 2.74408 6.91083C3.06951 6.58539 3.59715 6.58539 3.92259 6.91083L4.60914 7.59737L5.78008 6.95868L3.57741 4.756C3.25197 4.43057 3.25197 3.90293 3.57741 3.57749Z" fill="#18202A"/>
</svg>
