<svg width="20" height="20" viewBox="0 0 20 20" fill="none" xmlns="http://www.w3.org/2000/svg">
<g clip-path="url(#clip0_2547_8463)">
<path d="M10 9.99992C11.6667 9.99992 12.5 8.33325 12.5 6.24992C12.5 4.58325 11.6667 3.33325 10 3.33325C8.33338 3.33325 7.50005 4.58325 7.50005 6.24992C7.50005 8.33325 8.33338 9.99992 10 9.99992Z" fill="#18202A"/>
<path d="M10.5566 18.3231C10.1996 17.568 10 16.7239 10 15.8333C10 13.9403 10.9017 12.2579 12.299 11.1922C11.5745 10.9591 10.802 10.8333 10 10.8333C8.51328 10.8333 7.12757 11.2659 5.96191 12.0121C4.87046 12.7108 4.50527 14.103 4.9416 15.3233C5.0692 15.6801 5.21159 16.03 5.36801 16.3721C5.81131 17.3415 6.72147 18.0128 7.77585 18.1695C8.50159 18.2774 9.24429 18.3333 10 18.3333C10.1864 18.3333 10.3719 18.3299 10.5566 18.3231Z" fill="#18202A"/>
<path d="M4.16671 9.99992C5.27782 9.99992 5.83338 8.95825 5.83338 7.65617C5.83338 6.6145 5.27782 5.83325 4.16671 5.83325C3.0556 5.83325 2.50005 6.6145 2.50005 7.65617C2.50005 8.95825 3.0556 9.99992 4.16671 9.99992Z" fill="#18202A"/>
<path d="M15.8334 9.99992C16.9445 9.99992 17.5 8.95825 17.5 7.65617C17.5 6.6145 16.9445 5.83325 15.8334 5.83325C14.7223 5.83325 14.1667 6.6145 14.1667 7.65617C14.1667 8.95825 14.7223 9.99992 15.8334 9.99992Z" fill="#18202A"/>
<path d="M3.37225 15.8846C2.88267 14.5154 3.03837 12.9091 3.91541 11.6914C3.11986 11.7596 2.36422 11.9676 1.67313 12.2906C0.700579 12.7452 0.308141 13.8933 0.636481 14.9154C0.923755 15.8097 1.70387 16.4379 2.63607 16.553C2.97652 16.595 3.3205 16.6256 3.66762 16.6444C3.56253 16.3946 3.464 16.1412 3.37225 15.8846Z" fill="#18202A"/>
<path fill-rule="evenodd" clip-rule="evenodd" d="M15.8334 19.9999C13.5322 19.9999 11.6667 18.1344 11.6667 15.8333C11.6667 13.5321 13.5322 11.6666 15.8334 11.6666C18.1345 11.6666 20 13.5321 20 15.8333C20 18.1344 18.1345 19.9999 15.8334 19.9999ZM15.8081 14.1919C15.564 13.9478 15.564 13.5521 15.8081 13.308C16.0522 13.0639 16.4479 13.0639 16.692 13.308L18.7753 15.3913C19.0194 15.6354 19.0194 16.0311 18.7753 16.2752L16.692 18.3585C16.4479 18.6026 16.0522 18.6026 15.8081 18.3585C15.564 18.1144 15.564 17.7187 15.8081 17.4746L16.8245 16.4583H13.3334C12.9882 16.4583 12.7084 16.1784 12.7084 15.8333C12.7084 15.4881 12.9882 15.2083 13.3334 15.2083H16.8245L15.8081 14.1919Z" fill="#18202A"/>
</g>
<defs>
<clipPath id="clip0_2547_8463">
<rect width="20" height="20" fill="white"/>
</clipPath>
</defs>
</svg>
