<svg width="20" height="20" viewBox="0 0 20 20" fill="none" xmlns="http://www.w3.org/2000/svg">
<g clip-path="url(#clip0_2266_40159)">
<path fill-rule="evenodd" clip-rule="evenodd" d="M10 17.9167C14.3723 17.9167 17.9167 14.3723 17.9167 10C17.9167 5.62776 14.3723 2.08334 10 2.08334C5.62776 2.08334 2.08334 5.62776 2.08334 10C2.08334 14.3723 5.62776 17.9167 10 17.9167ZM10 19.1667C15.0626 19.1667 19.1667 15.0626 19.1667 10C19.1667 4.9374 15.0626 0.833344 10 0.833344C4.9374 0.833344 0.833344 4.9374 0.833344 10C0.833344 15.0626 4.9374 19.1667 10 19.1667Z" fill="#18202A"/>
<path fill-rule="evenodd" clip-rule="evenodd" d="M10.3914 6.22474C10.6355 5.98066 11.0312 5.98066 11.2753 6.22474L14.6086 9.55807C14.8527 9.80215 14.8527 10.1979 14.6086 10.442L11.2753 13.7753C11.0312 14.0194 10.6355 14.0194 10.3914 13.7753C10.1473 13.5312 10.1473 13.1355 10.3914 12.8914L12.6578 10.625H5.83334C5.48817 10.625 5.20834 10.3452 5.20834 10C5.20834 9.65483 5.48817 9.37501 5.83334 9.37501H12.6578L10.3914 7.10862C10.1473 6.86454 10.1473 6.46881 10.3914 6.22474Z" fill="#18202A"/>
</g>
<defs>
<clipPath id="clip0_2266_40159">
<rect width="20" height="20" fill="white"/>
</clipPath>
</defs>
</svg>
