<svg width="20" height="20" viewBox="0 0 20 20" fill="none" xmlns="http://www.w3.org/2000/svg">
<path fill-rule="evenodd" clip-rule="evenodd" d="M9.75186 4.66667C9.87691 4.81137 10.1238 4.81137 10.2482 4.66667C11.21 3.54964 12.6243 2.5 14.1276 2.5C16.9064 2.5 19.1667 4.67774 19.1667 7.35375C19.1667 8.87607 18.3594 10.0651 17.6823 10.7945C16.9808 11.5498 15.7053 12.9955 14.3806 14.4968C13.4327 15.5711 12.4595 16.6741 11.6531 17.5734C10.7488 18.5821 9.25126 18.5821 8.34689 17.5734C7.54038 16.674 6.56703 15.5708 5.61902 14.4964C4.2944 12.9951 3.01923 11.5498 2.31769 10.7945C1.64066 10.0651 0.833344 8.87607 0.833344 7.35375C0.833344 4.67774 3.09358 2.5 5.87239 2.5C7.37572 2.5 8.79001 3.54964 9.75186 4.66667ZM16.7662 9.94415C17.344 9.32159 17.9167 8.42435 17.9167 7.35375C17.9167 5.41172 16.2605 3.75 14.1276 3.75C13.1736 3.75 12.0758 4.45985 11.1954 5.4823C10.5708 6.20792 9.4282 6.20382 8.80612 5.48403L8.80463 5.4823C7.92422 4.45985 6.82645 3.75 5.87239 3.75C3.73949 3.75 2.08334 5.41172 2.08334 7.35375C2.08334 8.42418 2.65582 9.3213 3.23357 9.94384C3.94243 10.7071 5.24242 12.1803 6.57994 13.696C7.52535 14.7674 8.48967 15.8602 9.27757 16.739C9.68516 17.1936 10.3149 17.1936 10.7225 16.739C11.5103 15.8603 12.4746 14.7675 13.42 13.6962C14.7573 12.1806 16.0574 10.7073 16.7662 9.94415Z" fill="#18202A"/>
</svg>
