<svg width="20" height="20" viewBox="0 0 20 20" fill="none" xmlns="http://www.w3.org/2000/svg">
<path fill-rule="evenodd" clip-rule="evenodd" d="M3.74999 10.8332C4.21023 10.8332 4.58332 10.4601 4.58332 9.99984C4.58332 9.5396 4.21023 9.1665 3.74999 9.1665C3.28975 9.1665 2.91666 9.5396 2.91666 9.99984C2.91666 10.4601 3.28975 10.8332 3.74999 10.8332ZM3.74999 12.0832C4.90058 12.0832 5.83332 11.1504 5.83332 9.99984C5.83332 8.84924 4.90058 7.9165 3.74999 7.9165C2.5994 7.9165 1.66666 8.84924 1.66666 9.99984C1.66666 11.1504 2.5994 12.0832 3.74999 12.0832Z" fill="#18202A"/>
<path fill-rule="evenodd" clip-rule="evenodd" d="M9.99999 10.8332C10.4602 10.8332 10.8333 10.4601 10.8333 9.99984C10.8333 9.5396 10.4602 9.1665 9.99999 9.1665C9.53975 9.1665 9.16666 9.5396 9.16666 9.99984C9.16666 10.4601 9.53975 10.8332 9.99999 10.8332ZM9.99999 12.0832C11.1506 12.0832 12.0833 11.1504 12.0833 9.99984C12.0833 8.84924 11.1506 7.9165 9.99999 7.9165C8.8494 7.9165 7.91666 8.84924 7.91666 9.99984C7.91666 11.1504 8.8494 12.0832 9.99999 12.0832Z" fill="#18202A"/>
<path fill-rule="evenodd" clip-rule="evenodd" d="M16.25 10.8332C16.7102 10.8332 17.0833 10.4601 17.0833 9.99984C17.0833 9.5396 16.7102 9.1665 16.25 9.1665C15.7898 9.1665 15.4167 9.5396 15.4167 9.99984C15.4167 10.4601 15.7898 10.8332 16.25 10.8332ZM16.25 12.0832C17.4006 12.0832 18.3333 11.1504 18.3333 9.99984C18.3333 8.84924 17.4006 7.9165 16.25 7.9165C15.0994 7.9165 14.1667 8.84924 14.1667 9.99984C14.1667 11.1504 15.0994 12.0832 16.25 12.0832Z" fill="#18202A"/>
</svg>
