<svg width="20" height="20" viewBox="0 0 20 20" fill="none" xmlns="http://www.w3.org/2000/svg">
<g clip-path="url(#clip0_3893_8912)">
<path d="M16.2501 8.95801C16.2501 8.61283 16.5299 8.33301 16.8751 8.33301C17.2202 8.33301 17.5001 8.61283 17.5001 8.95801V15.833C17.5001 17.674 16.0077 19.1663 14.1667 19.1663H5.83339C3.99244 19.1663 2.50006 17.674 2.50006 15.833V4.16634C2.50006 2.32539 3.99245 0.833008 5.83339 0.833008H10.2083C10.5535 0.833008 10.8333 1.11283 10.8333 1.45801C10.8333 1.80319 10.5535 2.08301 10.2083 2.08301L5.83339 2.08301C4.6828 2.08301 3.75006 3.01575 3.75006 4.16634L3.75006 15.833C3.75006 16.9836 4.6828 17.9163 5.83339 17.9163H14.1667C15.3173 17.9163 16.2501 16.9836 16.2501 15.833V8.95801Z" fill="#18202A"/>
<path d="M6.45834 10.833C6.11317 10.833 5.83334 11.1128 5.83334 11.458C5.83334 11.8032 6.11317 12.083 6.45834 12.083H10.2083C10.5535 12.083 10.8333 11.8032 10.8333 11.458C10.8333 11.1128 10.5535 10.833 10.2083 10.833H6.45834Z" fill="#18202A"/>
<path d="M6.45834 7.49967C6.11317 7.49967 5.83334 7.7795 5.83334 8.12467C5.83334 8.46985 6.11317 8.74967 6.45834 8.74967H8.54168C8.88685 8.74967 9.16668 8.46985 9.16668 8.12467C9.16668 7.7795 8.88685 7.49967 8.54168 7.49967H6.45834Z" fill="#18202A"/>
<path d="M6.45834 14.1663C6.11317 14.1663 5.83334 14.4462 5.83334 14.7913C5.83334 15.1365 6.11317 15.4163 6.45834 15.4163H13.5417C13.8869 15.4163 14.1667 15.1365 14.1667 14.7913C14.1667 14.4462 13.8869 14.1663 13.5417 14.1663H6.45834Z" fill="#18202A"/>
<path d="M16.4511 4.62559L14.7917 3.09383V8.54134C14.7917 8.88652 14.5119 9.16634 14.1667 9.16634C13.8215 9.16634 13.5417 8.88652 13.5417 8.54134V3.09383L11.8823 4.62559C11.6286 4.85972 11.2332 4.8439 10.9991 4.59027C10.765 4.33663 10.7808 3.94122 11.0344 3.70709L13.7428 1.20709C13.9822 0.986092 14.3512 0.986092 14.5906 1.20709L17.2989 3.70709C17.5526 3.94122 17.5684 4.33663 17.3343 4.59027C17.1001 4.8439 16.7047 4.85972 16.4511 4.62559Z" fill="#18202A"/>
</g>
<defs>
<clipPath id="clip0_3893_8912">
<rect width="20" height="20" fill="white"/>
</clipPath>
</defs>
</svg>
