<svg width="20" height="20" viewBox="0 0 20 20" fill="none" xmlns="http://www.w3.org/2000/svg">
<g clip-path="url(#clip0_2266_41077)">
<path fill-rule="evenodd" clip-rule="evenodd" d="M15.8333 2.08301H4.16668C3.01608 2.08301 2.08334 3.01575 2.08334 4.16634V15.833C2.08334 16.9836 3.01608 17.9163 4.16668 17.9163H10.8318C11.0198 18.3671 11.2669 18.787 11.5635 19.1663H4.16668C2.32573 19.1663 0.833344 17.674 0.833344 15.833V4.16634C0.833344 2.32539 2.32573 0.833008 4.16668 0.833008H15.8333C17.6743 0.833008 19.1667 2.32539 19.1667 4.16634V11.5631C18.7873 11.2666 18.3674 11.0194 17.9167 10.8315V4.16634C17.9167 3.01575 16.9839 2.08301 15.8333 2.08301ZM10.4817 14.9913C10.7362 13.3599 11.7188 11.9697 13.0867 11.1634C12.9956 11.0519 12.8881 10.9515 12.7645 10.8657C11.9769 10.3192 11.0252 9.99967 10.0001 9.99967C8.97508 9.99967 8.02334 10.3192 7.23575 10.8657C6.6057 11.3029 6.394 12.1204 6.63553 12.8482C6.74231 13.17 6.86669 13.4835 7.00749 13.7876C7.27748 14.3708 7.82205 14.7785 8.45652 14.8804C8.95939 14.9612 9.47494 15.0031 10.0001 15.0031C10.1616 15.0031 10.3221 14.9991 10.4817 14.9913ZM13.85 10.791C14.4457 10.5565 15.0929 10.4245 15.77 10.4167C15.1598 10.1389 14.477 9.9834 13.7563 9.9834C13.5068 9.9834 13.2619 10.002 13.023 10.0379C13.0963 10.084 13.1685 10.1318 13.2396 10.1811C13.4876 10.3532 13.6907 10.5606 13.85 10.791ZM10 9.16634C11.1111 9.16634 11.6667 8.12467 11.6667 6.82259C11.6667 5.78092 11.1111 4.99967 10 4.99967C8.8889 4.99967 8.33334 5.78092 8.33334 6.82259C8.33334 8.12467 8.8889 9.16634 10 9.16634ZM5.41668 9.16634C6.25001 9.16634 6.66668 8.33301 6.66668 7.29134C6.66668 6.45801 6.25001 5.83301 5.41668 5.83301C4.58334 5.83301 4.16668 6.45801 4.16668 7.29134C4.16668 8.33301 4.58334 9.16634 5.41668 9.16634ZM15.8333 7.29134C15.8333 8.33301 15.4167 9.16634 14.5833 9.16634C13.75 9.16634 13.3333 8.33301 13.3333 7.29134C13.3333 6.45801 13.75 5.83301 14.5833 5.83301C15.4167 5.83301 15.8333 6.45801 15.8333 7.29134ZM6.76066 10.1811C6.82388 10.1372 6.88801 10.0946 6.95302 10.0532C6.68394 10.0073 6.40692 9.9834 6.12406 9.9834C5.34094 9.9834 4.60263 10.167 3.95357 10.4916C3.4026 10.7672 3.1709 11.413 3.35482 12.0009C3.39054 12.1151 3.42856 12.2283 3.46884 12.3405C3.64427 12.8292 4.08018 13.1739 4.59445 13.2453C5.03059 13.3059 5.47537 13.341 5.92708 13.3489C5.89861 13.2699 5.87112 13.1905 5.84461 13.1107C5.50445 12.0856 5.78297 10.8595 6.76066 10.1811ZM20 15.833C20 18.1342 18.1345 19.9997 15.8333 19.9997C13.5322 19.9997 11.6667 18.1342 11.6667 15.833C11.6667 13.5318 13.5322 11.6663 15.8333 11.6663C18.1345 11.6663 20 13.5318 20 15.833ZM15.8333 13.333C16.1785 13.333 16.4583 13.6128 16.4583 13.958V15.208H17.7083C18.0535 15.208 18.3333 15.4878 18.3333 15.833C18.3333 16.1782 18.0535 16.458 17.7083 16.458H16.4583V17.708C16.4583 18.0532 16.1785 18.333 15.8333 18.333C15.4882 18.333 15.2083 18.0532 15.2083 17.708V16.458H13.9583C13.6132 16.458 13.3333 16.1782 13.3333 15.833C13.3333 15.4878 13.6132 15.208 13.9583 15.208H15.2083V13.958C15.2083 13.6128 15.4882 13.333 15.8333 13.333Z" fill="#18202A"/>
</g>
<defs>
<clipPath id="clip0_2266_41077">
<rect width="20" height="20" fill="white"/>
</clipPath>
</defs>
</svg>
