<svg width="20" height="20" viewBox="0 0 20 20" fill="none" xmlns="http://www.w3.org/2000/svg">
<path d="M8.33333 3.95825C8.33333 3.61307 8.61316 3.33325 8.95833 3.33325H16.0417C16.3868 3.33325 16.6667 3.61307 16.6667 3.95825C16.6667 4.30343 16.3868 4.58325 16.0417 4.58325H12.9011L8.22221 15.4166H11.875C12.2202 15.4166 12.5 15.6964 12.5 16.0416C12.5 16.3868 12.2202 16.6666 11.875 16.6666H3.125C2.77982 16.6666 2.5 16.3868 2.5 16.0416C2.5 15.6964 2.77982 15.4166 3.125 15.4166H6.8606L11.5395 4.58325H8.95833C8.61316 4.58325 8.33333 4.30343 8.33333 3.95825Z" fill="#18202A"/>
</svg>
