<svg width="20" height="20" viewBox="0 0 20 20" fill="none" xmlns="http://www.w3.org/2000/svg">
<path d="M13.0051 12.9291L12.9957 12.9386C12.9503 12.9839 12.9135 13.0207 12.8796 13.0532C11.2688 14.5934 8.73123 14.5934 7.12045 13.0532C7.08645 13.0207 7.04967 12.9839 7.00416 12.9384L6.96158 12.8959L6.95486 12.8892C6.79385 12.7355 6.53998 12.7351 6.37897 12.8888L6.37176 12.8959L6.06906 13.1985C5.79695 13.4706 5.56845 13.6991 5.38196 13.8725C5.20499 14.037 4.98349 14.2316 4.7305 14.3697C3.7117 14.9257 2.53497 14.806 1.66667 14.2038V17.0828C1.66667 17.7732 2.22631 18.3328 2.91667 18.3328H17.0833C17.7737 18.3328 18.3333 17.7732 18.3333 17.0828V14.2038C17.465 14.806 16.2883 14.9257 15.2695 14.3697C15.0165 14.2316 14.795 14.037 14.6181 13.8725C14.4316 13.6991 14.2031 13.4707 13.931 13.1985L13.6636 12.9312L13.6614 12.929L13.6282 12.8958L13.621 12.8887C13.46 12.7351 13.2067 12.7351 13.0457 12.8887L13.0384 12.8959L13.0051 12.9291Z" fill="#18202A"/>
<path d="M14.1801 6.66643H5.81992C5.05798 6.66643 4.67701 6.66643 4.36004 6.72844C3.02938 6.98875 1.98899 8.02914 1.72868 9.3598C1.66667 9.67678 1.66667 10.0598 1.66667 10.8258C1.66667 11.6414 1.66667 12.0493 1.7343 12.2794C2.034 13.2991 3.19874 13.7815 4.13171 13.2724C4.34225 13.1575 4.6289 12.8709 5.2022 12.2976L5.45454 12.0452C5.48575 12.014 5.50135 11.9984 5.51485 11.9855C6.15916 11.3694 7.17418 11.3694 7.81849 11.9855C7.83198 11.9984 7.84758 12.014 7.87879 12.0452C7.9334 12.0998 7.9607 12.1271 7.98431 12.1497C9.11186 13.2278 10.8881 13.2278 12.0157 12.1497C12.0393 12.1271 12.0666 12.0998 12.1212 12.0452C12.1524 12.014 12.168 11.9984 12.1815 11.9855C12.8258 11.3694 13.8408 11.3694 14.4852 11.9855C14.4986 11.9984 14.5143 12.0141 14.5455 12.0452L14.7978 12.2976C15.3711 12.8709 15.6578 13.1575 15.8683 13.2724C16.8013 13.7815 17.966 13.2991 18.2657 12.2794C18.3333 12.0493 18.3333 11.6414 18.3333 10.8258C18.3333 10.0598 18.3333 9.67678 18.2713 9.3598C18.011 8.02914 16.9706 6.98875 15.64 6.72844C15.323 6.66643 14.942 6.66643 14.1801 6.66643Z" fill="#18202A"/>
<path d="M8.82149 5.33924C8.17061 4.68837 8.17061 3.6331 8.82149 2.98222L10 1.80371L11.1785 2.98222C11.8294 3.6331 11.8294 4.68837 11.1785 5.33924C10.5276 5.99012 9.47236 5.99012 8.82149 5.33924Z" fill="#18202A"/>
</svg>
