<svg width="20" height="20" viewBox="0 0 20 20" fill="none" xmlns="http://www.w3.org/2000/svg">
<path d="M15.8941 5.9446L13.3005 10.6994L14.2219 11.6207L16.8154 6.86592L17.0581 7.10861C17.3021 7.35269 17.6979 7.35269 17.942 7.10861C18.186 6.86453 18.186 6.4688 17.942 6.22473L17.1189 5.40163C17.1123 5.3948 17.1056 5.3881 17.0988 5.38154L14.6185 2.90126C14.6119 2.89438 14.6052 2.88768 14.5984 2.88114L13.7753 2.05806C13.5312 1.81398 13.1355 1.81398 12.8914 2.05806C12.6473 2.30214 12.6473 2.69786 12.8914 2.94194L13.1341 3.18463L8.37933 5.77814L9.30065 6.69946L14.0554 4.10595L15.8941 5.9446Z" fill="#18202A"/>
<path fill-rule="evenodd" clip-rule="evenodd" d="M3.55058 3.60112C3.79466 3.35704 4.19039 3.35704 4.43446 3.60112L16.3744 15.541C16.6184 15.7851 16.6184 16.1808 16.3744 16.4249C16.1303 16.669 15.7345 16.669 15.4905 16.4249L12.974 13.9084L12.2154 15.2993C12.192 15.3421 12.1644 15.3811 12.1333 15.416L12.942 16.2247C13.186 16.4688 13.186 16.8645 12.942 17.1086C12.6979 17.3527 12.3021 17.3527 12.0581 17.1086L7.91668 12.9672L3.77529 17.1086C3.53121 17.3527 3.13548 17.3527 2.8914 17.1086C2.64732 16.8645 2.64732 16.4688 2.8914 16.2247L7.03279 12.0833L2.8914 7.94194C2.64732 7.69786 2.64732 7.30214 2.8914 7.05806C3.13548 6.81398 3.53121 6.81398 3.77529 7.05806L4.58397 7.86674C4.61891 7.83564 4.65791 7.80801 4.70073 7.78465L6.09158 7.026L3.55058 4.48501C3.3065 4.24093 3.3065 3.8452 3.55058 3.60112ZM5.49338 8.77615L7.0129 7.94732L12.0527 12.9871L11.2239 14.5066L5.49338 8.77615Z" fill="#18202A"/>
</svg>
