<svg width="20" height="20" viewBox="0 0 20 20" fill="none" xmlns="http://www.w3.org/2000/svg">
<g clip-path="url(#clip0_2266_36754)">
<path d="M6.66667 5.00016H18.3807C19.0585 5.00016 19.4528 5.7663 19.0588 6.31786L16.1793 10.3491C15.9723 10.6389 15.9723 11.0281 16.1793 11.3179L19.0588 15.3491C19.4528 15.9007 19.0585 16.6668 18.3807 16.6668H8.33333C7.41286 16.6668 6.66667 15.9206 6.66667 15.0002V5.00016Z" fill="#18202A"/>
<path d="M0.833334 2.50016H10C11.3807 2.50016 12.5 3.61945 12.5 5.00016V11.6668C12.5 12.5873 11.7538 13.3335 10.8333 13.3335H0.833334V2.50016Z" fill="#18202A"/>
<path d="M0.833334 1.66683C0.833334 1.20659 1.20643 0.833496 1.66667 0.833496C2.1269 0.833496 2.5 1.20659 2.5 1.66683V18.3335C2.5 18.7937 2.1269 19.1668 1.66667 19.1668C1.20643 19.1668 0.833334 18.7937 0.833334 18.3335V1.66683Z" fill="#18202A"/>
</g>
<defs>
<clipPath id="clip0_2266_36754">
<rect width="20" height="20" fill="white"/>
</clipPath>
</defs>
</svg>
