<svg width="20" height="20" viewBox="0 0 20 20" fill="none" xmlns="http://www.w3.org/2000/svg">
<g clip-path="url(#clip0_2266_40300)">
<path fill-rule="evenodd" clip-rule="evenodd" d="M10 17.9167C14.3723 17.9167 17.9167 14.3723 17.9167 10C17.9167 5.62779 14.3723 2.08337 10 2.08337C5.62776 2.08337 2.08334 5.62779 2.08334 10C2.08334 14.3723 5.62776 17.9167 10 17.9167ZM10 19.1667C15.0626 19.1667 19.1667 15.0627 19.1667 10C19.1667 4.93743 15.0626 0.833374 10 0.833374C4.9374 0.833374 0.833344 4.93743 0.833344 10C0.833344 15.0627 4.9374 19.1667 10 19.1667Z" fill="#18202A"/>
<path fill-rule="evenodd" clip-rule="evenodd" d="M13.7644 7.04745C14.0143 7.28551 14.024 7.68112 13.7859 7.93108L9.02402 12.9311C8.90213 13.0591 8.73175 13.1295 8.55507 13.1248C8.37839 13.1202 8.21193 13.041 8.0969 12.9068L6.19214 10.6846C5.9675 10.4225 5.99785 10.0279 6.25993 9.80328C6.52201 9.57864 6.91657 9.609 7.14121 9.87107L8.59585 11.5682L12.8808 7.06901C13.1188 6.81905 13.5144 6.8094 13.7644 7.04745Z" fill="#18202A"/>
</g>
<defs>
<clipPath id="clip0_2266_40300">
<rect width="20" height="20" fill="white"/>
</clipPath>
</defs>
</svg>
