<svg width="20" height="20" viewBox="0 0 20 20" fill="none" xmlns="http://www.w3.org/2000/svg">
<path fill-rule="evenodd" clip-rule="evenodd" d="M5.83333 0.833008C3.99238 0.833008 2.5 2.32539 2.5 4.16634V15.833C2.5 17.674 3.99238 19.1663 5.83333 19.1663L5.83333 0.833008ZM6.66667 0.833008V19.1663H14.1667C16.0076 19.1663 17.5 17.674 17.5 15.833V4.16634C17.5 2.32539 16.0076 0.833008 14.1667 0.833008H6.66667ZM10 4.16634C9.53976 4.16634 9.16667 4.53944 9.16667 4.99967C9.16667 5.45991 9.53976 5.83301 10 5.83301H14.1667C14.6269 5.83301 15 5.45991 15 4.99967C15 4.53944 14.6269 4.16634 14.1667 4.16634H10ZM10 7.49967C10 7.03944 10.3731 6.66634 10.8333 6.66634H13.3333C13.7936 6.66634 14.1667 7.03944 14.1667 7.49967C14.1667 7.95991 13.7936 8.33301 13.3333 8.33301H10.8333C10.3731 8.33301 10 7.95991 10 7.49967Z" fill="#18202A"/>
</svg>
