<svg width="20" height="20" viewBox="0 0 20 20" fill="none" xmlns="http://www.w3.org/2000/svg">
<path d="M8.12502 1.66663H11.4567C11.615 1.66667 11.7675 1.72683 11.8832 1.83494C11.9989 1.94304 12.0692 2.09104 12.08 2.24903C12.0908 2.40701 12.0413 2.5632 11.9413 2.68604C11.8414 2.80888 11.6986 2.88921 11.5417 2.91079L11.4567 2.91663H10.4167V17.0833H11.4542C11.6052 17.0833 11.7511 17.138 11.865 17.2373C11.9788 17.3365 12.0528 17.4737 12.0734 17.6233L12.0792 17.7083C12.0792 17.8593 12.0245 18.0052 11.9252 18.1191C11.8259 18.2329 11.6888 18.3069 11.5392 18.3275L11.4542 18.3333H8.12502C7.96667 18.3332 7.81424 18.2731 7.69853 18.165C7.58282 18.0569 7.51246 17.9089 7.50167 17.7509C7.49087 17.5929 7.54045 17.4367 7.64038 17.3139C7.74031 17.191 7.88314 17.1107 8.04002 17.0891L8.12502 17.0833H9.16669V2.91663H8.12502C7.97399 2.91662 7.82807 2.86192 7.71424 2.76265C7.60042 2.66338 7.52639 2.52625 7.50585 2.37663L7.50002 2.29163C7.50003 2.14059 7.55472 1.99467 7.65399 1.88085C7.75326 1.76703 7.89039 1.693 8.04002 1.67246L8.12502 1.66663H11.4567H8.12502ZM15.205 4.16413C15.9231 4.16479 16.6116 4.45034 17.1194 4.95811C17.6271 5.46588 17.9127 6.15437 17.9134 6.87246L17.9167 13.1258C17.9172 13.8175 17.6529 14.4832 17.1781 14.9862C16.7033 15.4892 16.0539 15.7914 15.3634 15.8308L15.2084 15.835H11.2542V14.585H15.2567C15.6352 14.5726 15.9941 14.4134 16.2573 14.141C16.5205 13.8687 16.6673 13.5045 16.6667 13.1258L16.6642 6.87163C16.6635 6.48477 16.5094 6.11397 16.2357 5.84057C15.962 5.56718 15.591 5.41351 15.2042 5.41329H11.2542V4.16329H15.2042L15.205 4.16413ZM8.33335 4.16413V5.41413H4.37502C3.98825 5.41413 3.61731 5.56777 3.34382 5.84126C3.07033 6.11475 2.91669 6.48568 2.91669 6.87246V13.1258C2.91669 13.9316 3.57002 14.5841 4.37502 14.5841H8.32919V15.8341H4.37502C3.65673 15.8341 2.96785 15.5488 2.45994 15.0409C1.95203 14.533 1.66669 13.8441 1.66669 13.1258V6.87246C1.66669 6.15416 1.95203 5.46529 2.45994 4.95738C2.96785 4.44947 3.65673 4.16413 4.37502 4.16413H8.33335Z" fill="#18202A"/>
</svg>
