<svg width="31" height="20" viewBox="0 0 31 20" fill="none" xmlns="http://www.w3.org/2000/svg">
<g clip-path="url(#clip0_2266_35489)">
<path fill-rule="evenodd" clip-rule="evenodd" d="M0.833305 5.00016C0.833305 2.69898 2.69879 0.833496 4.99997 0.833496H15C17.3012 0.833496 19.1666 2.69898 19.1666 5.00016V11.0457C18.2218 10.3866 17.0727 10.0001 15.8333 10.0001C12.6117 10.0001 10 12.6118 10 15.8335C10 17.0728 10.3865 18.222 11.0456 19.1668H4.99997C2.69879 19.1668 0.833305 17.3013 0.833305 15.0002V5.00016ZM5.83331 2.50016V4.16683H4.16664V2.50016H5.83331ZM8.66651 7.20383C8.15312 6.89291 7.49997 7.26619 7.49997 7.87052V12.1215C7.49997 12.7258 8.15312 13.0991 8.66651 12.7882L12.176 10.6627C12.6746 10.3607 12.6746 9.6313 12.176 9.32932L8.66651 7.20383ZM4.16664 15.8335V17.5002H5.83331V15.8335H4.16664ZM7.49997 2.50016H9.16664V4.16683H7.49997V2.50016ZM9.16664 15.8335H7.49997V17.5002H9.16664V15.8335ZM10.8333 2.50016H12.5V4.16683H10.8333V2.50016ZM15.8333 2.50016V4.16683H14.1666V2.50016H15.8333Z" fill="#18202A"/>
<path fill-rule="evenodd" clip-rule="evenodd" d="M15.8334 20.0002C18.1346 20.0002 20.0001 18.1347 20.0001 15.8335C20.0001 13.5323 18.1346 11.6668 15.8334 11.6668C13.5322 11.6668 11.6667 13.5323 11.6667 15.8335C11.6667 18.1347 13.5322 20.0002 15.8334 20.0002ZM15.0002 14.1668C15.0002 13.7066 15.3733 13.3335 15.8335 13.3335C16.2937 13.3335 16.6668 13.7066 16.6668 14.1668V15.0001H17.5001C17.9604 15.0001 18.3335 15.3732 18.3335 15.8334C18.3335 16.2937 17.9604 16.6668 17.5001 16.6668H16.6668V17.5001C16.6668 17.9604 16.2937 18.3335 15.8335 18.3335C15.3733 18.3335 15.0002 17.9604 15.0002 17.5001V16.6668H14.1668C13.7065 16.6668 13.3334 16.2937 13.3334 15.8334C13.3334 15.3732 13.7065 15.0001 14.1668 15.0001H15.0002V14.1668Z" fill="#18202A"/>
</g>
<defs>
<clipPath id="clip0_2266_35489">
<rect width="20" height="20" fill="white"/>
</clipPath>
</defs>
</svg>
