<svg width="20" height="20" viewBox="0 0 20 20" fill="none" xmlns="http://www.w3.org/2000/svg">
<path fill-rule="evenodd" clip-rule="evenodd" d="M14.1667 18.7502C16.698 18.7502 18.75 16.6981 18.75 14.1668C18.75 11.6355 16.698 9.5835 14.1667 9.5835C11.6354 9.5835 9.58334 11.6355 9.58334 14.1668C9.58334 16.6981 11.6354 18.7502 14.1667 18.7502ZM14.1667 20.0002C17.3883 20.0002 20 17.3885 20 14.1668C20 10.9452 17.3883 8.3335 14.1667 8.3335C10.945 8.3335 8.33334 10.9452 8.33334 14.1668C8.33334 17.3885 10.945 20.0002 14.1667 20.0002Z" fill="#18202A"/>
<path fill-rule="evenodd" clip-rule="evenodd" d="M0.833344 5.00016C0.833344 4.49646 1.14016 4.11607 1.46441 3.86054C1.7957 3.59945 2.23636 3.39166 2.72517 3.22872C3.70932 2.90067 5.02915 2.7085 6.45834 2.7085C7.88754 2.7085 9.20737 2.90067 10.1915 3.22872C10.6803 3.39166 11.121 3.59945 11.4523 3.86054C11.7765 4.11607 12.0833 4.49646 12.0833 5.00016V8.71652C11.6379 8.8869 11.2186 9.11033 10.8333 9.37907V9.01564C10.6338 9.11113 10.4178 9.19617 10.1915 9.2716C9.20737 9.59965 7.88754 9.79183 6.45834 9.79183C5.02915 9.79183 3.70932 9.59965 2.72517 9.2716C2.49888 9.19617 2.28292 9.11113 2.08334 9.01564V9.99065C2.08943 10.0066 2.11879 10.064 2.23813 10.158C2.41286 10.2957 2.70444 10.4471 3.12045 10.5857C3.94595 10.8609 5.12611 11.0418 6.45834 11.0418C7.63392 11.0418 8.69108 10.901 9.49064 10.6788C9.16333 11.1168 8.89614 11.6025 8.70128 12.1234C8.01333 12.2325 7.25273 12.2918 6.45834 12.2918C5.02915 12.2918 3.70932 12.0997 2.72517 11.7716C2.49888 11.6962 2.28292 11.6111 2.08334 11.5156V12.4907C2.08943 12.5066 2.11879 12.564 2.23813 12.658C2.41286 12.7957 2.70444 12.9471 3.12045 13.0857C3.94595 13.3609 5.12611 13.5418 6.45834 13.5418C7.15012 13.5418 7.80089 13.493 8.3823 13.4076C8.35 13.6561 8.33334 13.9095 8.33334 14.1668C8.33334 14.3375 8.34067 14.5064 8.35502 14.6733C7.76144 14.7504 7.12167 14.7918 6.45834 14.7918C5.02915 14.7918 3.70932 14.5997 2.72517 14.2716C2.49888 14.1962 2.28292 14.1111 2.08334 14.0156V14.9907C2.08943 15.0066 2.11879 15.064 2.23813 15.158C2.41286 15.2957 2.70444 15.4471 3.12045 15.5857C3.94595 15.8609 5.12611 16.0418 6.45834 16.0418C7.23273 16.0418 7.95574 15.9807 8.58757 15.8755C8.71428 16.2897 8.88585 16.6843 9.09661 17.0537C8.3098 17.2069 7.40822 17.2918 6.45834 17.2918C5.02915 17.2918 3.70932 17.0997 2.72517 16.7716C2.23636 16.6087 1.7957 16.4009 1.46441 16.1398C1.14016 15.8843 0.833344 15.5039 0.833344 15.0002V5.00016ZM2.23813 4.8423C2.13604 4.92276 2.0998 4.97634 2.08764 5.00016C2.0998 5.02398 2.13604 5.07757 2.23813 5.15802C2.41286 5.29573 2.70444 5.44708 3.12045 5.58575C3.94595 5.86091 5.12611 6.04183 6.45834 6.04183C7.79057 6.04183 8.97074 5.86091 9.79624 5.58575C10.2122 5.44708 10.5038 5.29573 10.6786 5.15802C10.7806 5.07757 10.8169 5.02398 10.829 5.00016C10.8169 4.97634 10.7806 4.92276 10.6786 4.8423C10.5038 4.7046 10.2122 4.55325 9.79624 4.41458C8.97074 4.13941 7.79057 3.9585 6.45834 3.9585C5.12611 3.9585 3.94595 4.13941 3.12045 4.41458C2.70444 4.55325 2.41286 4.7046 2.23813 4.8423ZM10.8333 6.51564C10.6338 6.61113 10.4178 6.69617 10.1915 6.7716C9.20737 7.09965 7.88754 7.29183 6.45834 7.29183C5.02915 7.29183 3.70932 7.09965 2.72517 6.7716C2.49888 6.69617 2.28292 6.61113 2.08334 6.51564V7.49065C2.08943 7.50664 2.11879 7.56397 2.23813 7.65802C2.41286 7.79573 2.70444 7.94707 3.12045 8.08575C3.94595 8.36091 5.12611 8.54183 6.45834 8.54183C7.79057 8.54183 8.97074 8.36091 9.79624 8.08575C10.2122 7.94707 10.5038 7.79573 10.6786 7.65802C10.7979 7.56397 10.8273 7.50664 10.8333 7.49065V6.51564Z" fill="#18202A"/>
<path fill-rule="evenodd" clip-rule="evenodd" d="M11.0417 14.1668C11.0417 12.6711 12.2542 11.4585 13.75 11.4585H15.8333C16.1785 11.4585 16.4583 11.7383 16.4583 12.0835C16.4583 12.4287 16.1785 12.7085 15.8333 12.7085H13.75C12.9446 12.7085 12.2917 13.3614 12.2917 14.1668C12.2917 14.9722 12.9446 15.6252 13.75 15.6252H15.4167C15.7619 15.6252 16.0417 15.3453 16.0417 15.0002C16.0417 14.8851 15.9484 14.7918 15.8333 14.7918H14.5833C14.2382 14.7918 13.9583 14.512 13.9583 14.1668C13.9583 13.8217 14.2382 13.5418 14.5833 13.5418H15.8333C16.6388 13.5418 17.2917 14.1947 17.2917 15.0002C17.2917 16.0357 16.4522 16.8752 15.4167 16.8752H13.75C12.2542 16.8752 11.0417 15.6626 11.0417 14.1668Z" fill="#18202A"/>
</svg>
