<svg width="20" height="20" viewBox="0 0 20 20" fill="none" xmlns="http://www.w3.org/2000/svg">
<g clip-path="url(#clip0_2266_35201)">
<path fill-rule="evenodd" clip-rule="evenodd" d="M4.99998 1.45834C4.99998 1.11317 5.2798 0.833344 5.62498 0.833344C5.97016 0.833344 6.24998 1.11317 6.24998 1.45834V2.50001H13.75V1.45834C13.75 1.11317 14.0298 0.833344 14.375 0.833344C14.7202 0.833344 15 1.11317 15 1.45834V2.50001H15.8333C17.6743 2.50001 19.1666 3.99239 19.1666 5.83334V10.3415C18.7886 10.0031 18.3691 9.71002 17.9166 9.47088V5.83334C17.9166 4.68275 16.9839 3.75001 15.8333 3.75001H15V5.20834C15 5.55352 14.7202 5.83334 14.375 5.83334C14.0298 5.83334 13.75 5.55352 13.75 5.20834V3.75001H6.24998V5.20834C6.24998 5.55352 5.97016 5.83334 5.62498 5.83334C5.2798 5.83334 4.99998 5.55352 4.99998 5.20834V3.75001H4.16665C3.01605 3.75001 2.08331 4.68275 2.08331 5.83334V15.8333C2.08331 16.9839 3.01605 17.9167 4.16665 17.9167H9.47085C9.70999 18.3691 10.003 18.7886 10.3414 19.1667H4.16665C2.3257 19.1667 0.833313 17.6743 0.833313 15.8333V5.83334C0.833313 3.99239 2.3257 2.50001 4.16665 2.50001H4.99998V1.45834ZM15.2083 8.75001H15.0024L15 8.75001L14.9975 8.75001H4.79165C4.44647 8.75001 4.16665 8.47019 4.16665 8.12501C4.16665 7.77983 4.44647 7.50001 4.79165 7.50001H15.2083C15.5535 7.50001 15.8333 7.77983 15.8333 8.12501C15.8333 8.47019 15.5535 8.75001 15.2083 8.75001ZM8.33331 14.1667C8.5013 14.1667 8.65767 14.2164 8.78853 14.3019C8.76306 14.5311 8.74998 14.764 8.74998 15C8.74998 15.236 8.76306 15.4689 8.78853 15.6981C8.65767 15.7836 8.5013 15.8333 8.33331 15.8333C7.87308 15.8333 7.49998 15.4602 7.49998 15C7.49998 14.5398 7.87308 14.1667 8.33331 14.1667ZM4.99998 10.8333C4.53974 10.8333 4.16665 11.2064 4.16665 11.6667C4.16665 12.1269 4.53974 12.5 4.99998 12.5C5.46022 12.5 5.83331 12.1269 5.83331 11.6667C5.83331 11.2064 5.46022 10.8333 4.99998 10.8333ZM4.16665 15C4.16665 14.5398 4.53974 14.1667 4.99998 14.1667C5.46022 14.1667 5.83331 14.5398 5.83331 15C5.83331 15.4602 5.46022 15.8333 4.99998 15.8333C4.53974 15.8333 4.16665 15.4602 4.16665 15ZM8.33331 10.8333C7.87308 10.8333 7.49998 11.2064 7.49998 11.6667C7.49998 12.1269 7.87308 12.5 8.33331 12.5C8.79355 12.5 9.16665 12.1269 9.16665 11.6667C9.16665 11.2064 8.79355 10.8333 8.33331 10.8333ZM20 15C20 17.7614 17.7614 20 15 20C12.2386 20 9.99998 17.7614 9.99998 15C9.99998 12.2386 12.2386 10 15 10C17.7614 10 20 12.2386 20 15ZM15 12.2917C15.3452 12.2917 15.625 12.5715 15.625 12.9167V14.7411L16.6919 15.8081C16.936 16.0521 16.936 16.4479 16.6919 16.692C16.4478 16.936 16.0521 16.936 15.808 16.692L14.558 15.442C14.4408 15.3247 14.375 15.1658 14.375 15V12.9167C14.375 12.5715 14.6548 12.2917 15 12.2917Z" fill="#18202A"/>
</g>
<defs>
<clipPath id="clip0_2266_35201">
<rect width="20" height="20" fill="white"/>
</clipPath>
</defs>
</svg>
