<svg width="20" height="20" viewBox="0 0 20 20" fill="none" xmlns="http://www.w3.org/2000/svg">
<path fill-rule="evenodd" clip-rule="evenodd" d="M13.75 6.66634V5.83301C13.75 3.76194 12.0711 2.08301 9.99999 2.08301C7.92892 2.08301 6.24999 3.76194 6.24999 5.83301V6.66634H13.75ZM15 5.83301V6.66634C16.8409 6.66634 18.3333 8.15872 18.3333 9.99967V15.833C18.3333 17.674 16.8409 19.1663 15 19.1663H4.99999C3.15904 19.1663 1.66666 17.674 1.66666 15.833V9.99967C1.66666 8.15872 3.15904 6.66634 4.99999 6.66634V5.83301C4.99999 3.07158 7.23857 0.833008 9.99999 0.833008C12.7614 0.833008 15 3.07158 15 5.83301ZM4.99999 7.91634C3.8494 7.91634 2.91666 8.84908 2.91666 9.99967V15.833C2.91666 16.9836 3.8494 17.9163 4.99999 17.9163H15C16.1506 17.9163 17.0833 16.9836 17.0833 15.833V9.99967C17.0833 8.84908 16.1506 7.91634 15 7.91634H4.99999ZM6.24999 12.9163C6.24999 13.4916 5.78362 13.958 5.20832 13.958C4.63303 13.958 4.16666 13.4916 4.16666 12.9163C4.16666 12.341 4.63303 11.8747 5.20832 11.8747C5.78362 11.8747 6.24999 12.341 6.24999 12.9163ZM9.44443 12.9163C9.44443 13.4916 8.97806 13.958 8.40276 13.958C7.82747 13.958 7.3611 13.4916 7.3611 12.9163C7.3611 12.341 7.82747 11.8747 8.40276 11.8747C8.97806 11.8747 9.44443 12.341 9.44443 12.9163ZM11.5972 13.958C12.1725 13.958 12.6389 13.4916 12.6389 12.9163C12.6389 12.341 12.1725 11.8747 11.5972 11.8747C11.0219 11.8747 10.5555 12.341 10.5555 12.9163C10.5555 13.4916 11.0219 13.958 11.5972 13.958ZM15.8333 12.9163C15.8333 13.4916 15.367 13.958 14.7917 13.958C14.2164 13.958 13.75 13.4916 13.75 12.9163C13.75 12.341 14.2164 11.8747 14.7917 11.8747C15.367 11.8747 15.8333 12.341 15.8333 12.9163Z" fill="#18202A"/>
</svg>
