<svg width="20" height="20" viewBox="0 0 20 20" fill="none" xmlns="http://www.w3.org/2000/svg">
<path d="M11.5446 6.21836C11.2821 5.94446 10.8333 6.13845 10.8333 6.5258V7.96001C9.7028 7.98762 8.49095 8.24734 7.53936 9.01365C6.51888 9.83544 5.83331 11.2105 5.83331 13.3923C5.83331 13.4904 5.89628 13.5763 5.98701 13.6021C6.07773 13.6278 6.17373 13.5869 6.22132 13.5023C6.78104 12.5073 7.22547 11.9014 7.8901 11.5295C8.53 11.1715 9.40091 11.0154 10.8333 11.0019V12.4327C10.8333 12.82 11.2821 13.014 11.5446 12.7401L14.375 9.78667C14.5377 9.61687 14.5377 9.34158 14.375 9.17179L11.5446 6.21836Z" fill="#18202A"/>
<path fill-rule="evenodd" clip-rule="evenodd" d="M0.833333 6.09014C0.833333 4.6494 1.95262 3.48145 3.33333 3.48145H16.6667C18.0474 3.48145 19.1667 4.6494 19.1667 6.09014V13.478C19.1667 14.9188 18.0474 16.0867 16.6667 16.0867H19.375C19.7202 16.0867 20 16.3787 20 16.7389C20 17.0991 19.7202 17.3911 19.375 17.3911H0.625C0.279822 17.3911 0 17.0991 0 16.7389C0 16.3787 0.279822 16.0867 0.625 16.0867H3.33333C1.95262 16.0867 0.833333 14.9188 0.833333 13.478V6.09014ZM2.08333 6.09014C2.08333 5.36977 2.64298 4.78579 3.33333 4.78579H16.6667C17.357 4.78579 17.9167 5.36977 17.9167 6.09014V13.478C17.9167 14.1984 17.357 14.7824 16.6667 14.7824H3.33333C2.64298 14.7824 2.08333 14.1984 2.08333 13.478V6.09014Z" fill="#18202A"/>
</svg>
