<svg width="20" height="20" viewBox="0 0 20 20" fill="none" xmlns="http://www.w3.org/2000/svg">
<path d="M6.66667 3.125C4.71066 3.125 3.125 4.71066 3.125 6.66667C3.125 8.11801 3.99808 9.36682 5.25023 9.91391C5.56654 10.0521 5.71092 10.4206 5.57272 10.7369C5.43452 11.0532 5.06607 11.1976 4.74977 11.0594C3.05875 10.3205 1.875 8.63253 1.875 6.66667C1.875 4.0203 4.0203 1.875 6.66667 1.875C8.63253 1.875 10.3205 3.05875 11.0594 4.74977C11.1975 5.06607 11.0532 5.43452 10.7369 5.57272C10.4206 5.71092 10.0521 5.56654 9.91391 5.25023C9.36682 3.99808 8.118 3.125 6.66667 3.125Z" fill="#18202A"/>
<path fill-rule="evenodd" clip-rule="evenodd" d="M6.08159 7.39005C5.82529 6.58456 6.58456 5.82529 7.39005 6.08159L15.3415 8.61159C16.1738 8.87642 16.3302 9.98644 15.6035 10.4709L14.0956 11.4762L16.9932 14.3738C17.4 14.7806 17.4 15.4401 16.9932 15.8469L15.8469 16.9932C15.4401 17.4 14.7806 17.4 14.3738 16.9932L11.4762 14.0956L10.4709 15.6035C9.98644 16.3302 8.87642 16.1738 8.61159 15.3415L6.08159 7.39005ZM7.39487 7.39487L9.67132 14.5494L10.859 12.7679C10.9629 12.6121 11.1311 12.5111 11.3175 12.4926C11.5038 12.4742 11.6886 12.5402 11.821 12.6726L15.1104 15.962L15.962 15.1104L12.6726 11.821C12.5402 11.6886 12.4742 11.5038 12.4926 11.3175C12.5111 11.1311 12.6121 10.9629 12.7679 10.859L14.5494 9.67132L7.39487 7.39487Z" fill="#18202A"/>
</svg>
