<svg width="20" height="20" viewBox="0 0 20 20" fill="none" xmlns="http://www.w3.org/2000/svg">
<path fill-rule="evenodd" clip-rule="evenodd" d="M8.72471 1.22481C8.96879 0.980729 9.36452 0.980729 9.6086 1.22481L12.1086 3.72481C12.3527 3.96888 12.3527 4.36461 12.1086 4.60869L9.6086 7.10869C9.36452 7.35277 8.96879 7.35277 8.72471 7.10869C8.48064 6.86461 8.48064 6.46888 8.72471 6.22481L10.1578 4.79175H7.49999C4.62351 4.79175 2.29166 7.1236 2.29166 10.0001C2.29166 12.4052 3.92196 14.4296 6.13777 15.0285C6.43874 15.1098 6.66666 15.3714 6.66666 15.6831C6.66666 16.066 6.32882 16.3641 5.95694 16.2729C3.13519 15.5812 1.04166 13.0351 1.04166 10.0001C1.04166 6.43324 3.93315 3.54175 7.49999 3.54175H10.1578L8.72471 2.10869C8.48064 1.86461 8.48064 1.46888 8.72471 1.22481ZM9.84221 16.4584L11.2753 17.8915C11.5193 18.1355 11.5193 18.5313 11.2753 18.7754C11.0312 19.0194 10.6355 19.0194 10.3914 18.7754L7.89138 16.2754C7.6473 16.0313 7.6473 15.6356 7.89138 15.3915L10.3914 12.8915C10.6355 12.6474 11.0312 12.6474 11.2753 12.8915C11.5193 13.1355 11.5193 13.5313 11.2753 13.7754L9.84221 15.2084H12.5C15.3765 15.2084 17.7083 12.8766 17.7083 10.0001C17.7083 7.59492 16.078 5.57053 13.8622 4.9717C13.5612 4.89036 13.3333 4.62881 13.3333 4.31704C13.3333 3.93414 13.6712 3.63607 14.043 3.72724C16.8648 4.419 18.9583 6.96505 18.9583 10.0001C18.9583 13.5669 16.0668 16.4584 12.5 16.4584H9.84221Z" fill="#18202A"/>
</svg>
