<svg width="20" height="20" viewBox="0 0 20 20" fill="none" xmlns="http://www.w3.org/2000/svg">
<path fill-rule="evenodd" clip-rule="evenodd" d="M10 1.6665C8.15907 1.6665 6.66669 3.15889 6.66669 4.99984V9.1665C6.66669 11.0075 8.15907 12.4998 10 12.4998C11.841 12.4998 13.3334 11.0075 13.3334 9.1665V4.99984C13.3334 3.15889 11.841 1.6665 10 1.6665ZM10 11.2498C11.1506 11.2498 12.0834 10.3171 12.0834 9.1665V4.99984C12.0834 3.84924 11.1506 2.9165 10 2.9165C8.84943 2.9165 7.91669 3.84924 7.91669 4.99984V9.1665C7.91669 10.3171 8.84943 11.2498 10 11.2498Z" fill="#18202A"/>
<path d="M4.76188 9.1665C4.4167 9.1665 4.13336 9.44728 4.16986 9.79052C4.46049 12.5233 6.63825 14.6925 9.37502 14.9698V17.0832H6.87502C6.52984 17.0832 6.25002 17.363 6.25002 17.7082C6.25002 18.0533 6.52984 18.3332 6.87502 18.3332H13.125C13.4702 18.3332 13.75 18.0533 13.75 17.7082C13.75 17.363 13.4702 17.0832 13.125 17.0832H10.625V14.9635C13.3337 14.6609 15.482 12.5035 15.7706 9.79052C15.8071 9.44728 15.5237 9.1665 15.1785 9.1665C14.8334 9.1665 14.558 9.44788 14.5115 9.7899C14.2074 12.0263 12.2901 13.7498 9.97021 13.7498C7.65035 13.7498 5.73305 12.0263 5.42892 9.7899C5.3824 9.44788 5.10705 9.1665 4.76188 9.1665Z" fill="#18202A"/>
</svg>
