<svg width="20" height="20" viewBox="0 0 20 20" fill="none" xmlns="http://www.w3.org/2000/svg">
<g clip-path="url(#clip0_3737_8830)">
<g clip-path="url(#clip1_3737_8830)">
<path fill-rule="evenodd" clip-rule="evenodd" d="M10 0C10.4603 0 10.8334 0.373096 10.8334 0.833333V1.70404C12.1787 1.82527 13.4401 2.23715 14.5545 2.8764L15.5202 1.91074C15.8456 1.58531 16.3733 1.58531 16.6987 1.91074C17.0242 2.23618 17.0242 2.76382 16.6987 3.08926L15.9382 3.8498C17.9136 5.53118 19.1667 8.03592 19.1667 10.8333C19.1667 15.8959 15.0627 20 10 20C4.93743 20 0.833374 15.8959 0.833374 10.8333C0.833374 6.05163 4.49462 2.12506 9.16671 1.70404V0.833333C9.16671 0.373096 9.5398 0 10 0ZM10 4.16667C10.4603 4.16667 10.8334 4.53976 10.8334 5V10H15C15.4603 10 15.8334 10.3731 15.8334 10.8333C15.8334 11.2936 15.4603 11.6667 15 11.6667H10C9.5398 11.6667 9.16671 11.2936 9.16671 10.8333V5C9.16671 4.53976 9.5398 4.16667 10 4.16667Z" fill="#18202A"/>
</g>
</g>
<defs>
<clipPath id="clip0_3737_8830">
<rect width="20" height="20" fill="white"/>
</clipPath>
<clipPath id="clip1_3737_8830">
<rect width="20" height="20" fill="white"/>
</clipPath>
</defs>
</svg>
