<svg width="20" height="20" viewBox="0 0 20 20" fill="none" xmlns="http://www.w3.org/2000/svg">
<g clip-path="url(#clip0_2266_41140)">
<path fill-rule="evenodd" clip-rule="evenodd" d="M10 17.9163C14.3723 17.9163 17.9167 14.3719 17.9167 9.99967C17.9167 5.62742 14.3723 2.08301 10 2.08301C5.62776 2.08301 2.08334 5.62742 2.08334 9.99967C2.08334 14.3719 5.62776 17.9163 10 17.9163ZM10 19.1663C15.0626 19.1663 19.1667 15.0623 19.1667 9.99967C19.1667 4.93706 15.0626 0.833008 10 0.833008C4.9374 0.833008 0.833344 4.93706 0.833344 9.99967C0.833344 15.0623 4.9374 19.1663 10 19.1663Z" fill="#18202A"/>
<path fill-rule="evenodd" clip-rule="evenodd" d="M11.455 9.61322C11.8347 9.03475 12.0833 8.12726 12.0833 6.97884C12.0833 6.14564 11.8608 5.5513 11.5492 5.18607C11.2616 4.84908 10.795 4.58301 10 4.58301C9.20503 4.58301 8.73844 4.84908 8.45087 5.18607C8.13921 5.5513 7.91668 6.14564 7.91668 6.97884C7.91668 8.12726 8.16528 9.03475 8.54499 9.61322C8.89106 10.1404 9.34788 10.4163 10 10.4163C10.6521 10.4163 11.109 10.1404 11.455 9.61322ZM10 11.6663C12.2222 11.6663 13.3333 9.58301 13.3333 6.97884C13.3333 4.89551 12.2222 3.33301 10 3.33301C7.77779 3.33301 6.66668 4.89551 6.66668 6.97884C6.66668 9.58301 7.77779 11.6663 10 11.6663Z" fill="#18202A"/>
<path d="M3.35188 16.3108C3.48612 15.779 3.75678 15.2837 4.16611 14.8824C5.66929 13.4085 7.72852 12.4997 10 12.4997C12.2715 12.4997 14.3307 13.4085 15.8339 14.8824C16.2432 15.2837 16.5139 15.779 16.6481 16.3108C16.2912 16.6867 15.9026 17.0324 15.4868 17.3436C15.5494 16.7399 15.3549 16.1633 14.9588 15.7749C13.6798 14.5209 11.9312 13.7497 10 13.7497C8.06882 13.7497 6.32024 14.5209 5.04126 15.7749C4.64517 16.1633 4.45066 16.7399 4.51322 17.3436C4.09739 17.0324 3.70886 16.6867 3.35188 16.3108Z" fill="#18202A"/>
</g>
<defs>
<clipPath id="clip0_2266_41140">
<rect width="20" height="20" fill="white"/>
</clipPath>
</defs>
</svg>
