<svg width="20" height="20" viewBox="0 0 20 20" fill="none" xmlns="http://www.w3.org/2000/svg">
<path d="M3.33329 1.66663C2.41282 1.66663 1.66663 2.41282 1.66663 3.33329V4.16663C1.66663 5.0871 2.41282 5.83329 3.33329 5.83329H16.6666C17.5871 5.83329 18.3333 5.0871 18.3333 4.16663V3.33329C18.3333 2.41282 17.5871 1.66663 16.6666 1.66663H3.33329Z" fill="#18202A"/>
<path fill-rule="evenodd" clip-rule="evenodd" d="M2.49996 8.33329C2.49996 7.87306 2.87306 7.49996 3.33329 7.49996H16.6666C17.1269 7.49996 17.5 7.87306 17.5 8.33329V15.8333C17.5 17.6742 16.0076 19.1666 14.1666 19.1666H5.83329C3.99234 19.1666 2.49996 17.6742 2.49996 15.8333V8.33329ZM6.66663 9.99996C6.66663 9.53972 7.03972 9.16663 7.49996 9.16663H12.5C12.9602 9.16663 13.3333 9.53972 13.3333 9.99996C13.3333 10.4602 12.9602 10.8333 12.5 10.8333H7.49996C7.03972 10.8333 6.66663 10.4602 6.66663 9.99996Z" fill="#18202A"/>
</svg>
