<svg width="20" height="20" viewBox="0 0 20 20" fill="none" xmlns="http://www.w3.org/2000/svg">
<path fill-rule="evenodd" clip-rule="evenodd" d="M8.18169 4.11612L9.48224 5.41667H15.8333C16.9839 5.41667 17.9167 6.34941 17.9167 7.5H2.08334V5.83333C2.08334 4.68274 3.01608 3.75 4.16668 3.75H7.29781C7.62933 3.75 7.94727 3.8817 8.18169 4.11612ZM2.08334 8.33333V14.1667C2.08334 15.3173 3.01608 16.25 4.16668 16.25H15.8333C16.9839 16.25 17.9167 15.3173 17.9167 14.1667V8.33333H2.08334ZM0.833344 5.83333C0.833344 3.99238 2.32573 2.5 4.16668 2.5H7.29781C7.96085 2.5 8.59674 2.76339 9.06558 3.23223L10 4.16667H15.8333C17.6743 4.16667 19.1667 5.65905 19.1667 7.5V14.1667C19.1667 16.0076 17.6743 17.5 15.8333 17.5H4.16668C2.32573 17.5 0.833344 16.0076 0.833344 14.1667V5.83333Z" fill="#18202A"/>
</svg>
