<svg width="20" height="20" viewBox="0 0 20 20" fill="none" xmlns="http://www.w3.org/2000/svg">
<path fill-rule="evenodd" clip-rule="evenodd" d="M10 9.16634C12.2222 9.16634 13.3333 7.08301 13.3333 4.47884C13.3333 2.39551 12.2222 0.833008 10 0.833008C7.77778 0.833008 6.66667 2.39551 6.66667 4.47884C6.66667 7.08301 7.77778 9.16634 10 9.16634ZM10 10.833C10.8106 10.833 11.5942 10.9487 12.3351 11.1646C10.9172 12.2287 10 13.9238 10 15.833C10 17.0574 10.3773 18.1938 11.0219 19.1321C10.6842 19.1548 10.3434 19.1663 10 19.1663C8.71051 19.1663 7.45902 19.0036 6.26494 18.6976C5.24908 18.4373 4.38809 17.7568 3.91655 16.8201L3.87764 16.7422C3.22579 15.4258 3.44745 13.8131 4.55972 12.8537C6.01956 11.5944 7.92088 10.833 10 10.833ZM20 15.833C20 13.5318 18.1345 11.6663 15.8333 11.6663C13.5321 11.6663 11.6667 13.5318 11.6667 15.833C11.6667 18.1342 13.5321 19.9997 15.8333 19.9997C18.1345 19.9997 20 18.1342 20 15.833ZM15.8586 18.3583C16.1027 18.1142 16.1027 17.7185 15.8586 17.4744L14.8422 16.458H18.3333C18.6785 16.458 18.9583 16.1782 18.9583 15.833C18.9583 15.4878 18.6785 15.208 18.3333 15.208H14.8422L15.8586 14.1916C16.1027 13.9475 16.1027 13.5518 15.8586 13.3077C15.6145 13.0637 15.2188 13.0637 14.9747 13.3077L12.8914 15.3911C12.6473 15.6351 12.6473 16.0309 12.8914 16.2749L14.9747 18.3583C15.2188 18.6024 15.6145 18.6024 15.8586 18.3583Z" fill="#18202A"/>
</svg>
