<svg width="20" height="20" viewBox="0 0 20 20" fill="none" xmlns="http://www.w3.org/2000/svg">
<path fill-rule="evenodd" clip-rule="evenodd" d="M12.9167 10C14.8611 10 15.8333 8.125 15.8333 5.78125C15.8333 3.90625 14.8611 2.5 12.9167 2.5C10.9722 2.5 10 3.90625 10 5.78125C10 8.125 10.9722 10 12.9167 10ZM16.2835 18.0329C17.2698 17.8543 18.1326 17.2469 18.5886 16.3543C18.6835 16.1685 18.7738 15.9804 18.8593 15.7902C19.4168 14.5498 19.0743 13.0712 17.942 12.3181C16.5398 11.3854 14.8006 10.8333 12.9167 10.8333C11.0328 10.8333 9.29351 11.3854 7.89134 12.3181C6.75905 13.0712 6.41653 14.5498 6.97401 15.7902C7.05953 15.9804 7.14981 16.1685 7.24474 16.3543C7.70078 17.2469 8.56356 17.8543 9.54987 18.0329C10.6377 18.2299 11.7636 18.3333 12.9167 18.3333C14.0697 18.3333 15.1957 18.2299 16.2835 18.0329ZM7.69948 7.55208C7.69948 9.375 6.86615 10.8333 5.19948 10.8333C3.53282 10.8333 2.69948 9.375 2.69948 7.55208C2.69948 6.09375 3.53282 5 5.19948 5C6.86615 5 7.69948 6.09375 7.69948 7.55208ZM5.45383 16.4734C4.75674 14.9224 4.95064 13.0433 6.0734 11.7233C5.78768 11.6859 5.49627 11.6667 5.20036 11.6667C4.01164 11.6667 2.89558 11.9778 1.92918 12.523C0.945467 13.0781 0.603685 14.2927 0.9867 15.3553C1.03278 15.4832 1.08077 15.6101 1.13061 15.7361C1.48343 16.6279 2.29714 17.2505 3.24822 17.3741C3.88719 17.4572 4.53877 17.5 5.20036 17.5C5.4584 17.5 5.71491 17.4935 5.96975 17.4806C5.89514 17.362 5.82529 17.2393 5.76056 17.1126C5.6531 16.9023 5.55079 16.6892 5.45383 16.4734Z" fill="#18202A"/>
</svg>
