<svg width="20" height="20" viewBox="0 0 20 20" fill="none" xmlns="http://www.w3.org/2000/svg">
<path fill-rule="evenodd" clip-rule="evenodd" d="M9.99999 6.24967C11.1506 6.24967 12.0833 5.31693 12.0833 4.16634C12.0833 3.01575 11.1506 2.08301 9.99999 2.08301C8.8494 2.08301 7.91666 3.01575 7.91666 4.16634C7.91666 5.31693 8.8494 6.24967 9.99999 6.24967ZM13.3333 4.16634C13.3333 5.79367 12.1672 7.14863 10.625 7.44118V17.891C12.4405 17.7434 14.1531 16.9562 15.4506 15.6586C16.7482 14.3611 17.5353 12.6486 17.683 10.833H15.8333C15.4881 10.833 15.2083 10.5532 15.2083 10.208C15.2083 9.86283 15.4881 9.58301 15.8333 9.58301H18.3333C18.6785 9.58301 18.9583 9.86283 18.9583 10.208C18.9583 12.5839 18.0145 14.8625 16.3345 16.5425C14.6545 18.2225 12.3759 19.1663 9.99999 19.1663C7.62409 19.1663 5.3455 18.2225 3.66549 16.5425C1.98548 14.8625 1.04166 12.5839 1.04166 10.208C1.04166 10.0422 1.1075 9.88328 1.22471 9.76607C1.34192 9.64886 1.5009 9.58301 1.66666 9.58301H4.16666C4.51183 9.58301 4.79166 9.86283 4.79166 10.208C4.79166 10.5532 4.51183 10.833 4.16666 10.833H2.31702C2.46464 12.6486 3.25183 14.3611 4.54938 15.6586C5.84692 16.9562 7.55943 17.7434 9.37499 17.891V7.44118C7.83279 7.14863 6.66666 5.79367 6.66666 4.16634C6.66666 2.32539 8.15904 0.833008 9.99999 0.833008C11.8409 0.833008 13.3333 2.32539 13.3333 4.16634Z" fill="#18202A"/>
</svg>
