<svg width="20" height="20" viewBox="0 0 20 20" fill="none" xmlns="http://www.w3.org/2000/svg">
<g clip-path="url(#clip0_2266_37063)">
<path d="M0.833334 6.6668C0.833334 5.28609 1.95262 4.1668 3.33333 4.1668H16.6667C18.0474 4.1668 19.1667 5.28609 19.1667 6.6668V9.1668H0.833334V6.6668Z" fill="#18202A"/>
<path fill-rule="evenodd" clip-rule="evenodd" d="M9.70606 1.88497C10.3352 2.83878 10.6726 4.11396 10.8172 4.83658L10.942 5.46071L10.3727 5.74536C8.37966 6.74187 6.54739 6.18767 5.58571 4.98793C5.11932 4.40609 4.85637 3.66154 4.93676 2.90569C5.01971 2.12575 5.46087 1.41828 6.23796 0.952076C6.93397 0.534512 7.65039 0.434003 8.31948 0.684455C8.94227 0.917574 9.39052 1.40657 9.70606 1.88497ZM7.73521 2.24535C7.62739 2.205 7.44104 2.1739 7.09539 2.38127C6.74259 2.59292 6.61882 2.84938 6.59408 3.08195C6.56678 3.33861 6.65341 3.65516 6.88615 3.94552C7.25398 4.4044 7.99633 4.78516 9.02255 4.49299C8.86411 3.92162 8.62881 3.27874 8.31478 2.80264C8.09213 2.46508 7.88934 2.30305 7.73521 2.24535Z" fill="#18202A"/>
<path fill-rule="evenodd" clip-rule="evenodd" d="M10.2939 1.88497C9.66482 2.83878 9.32737 4.11396 9.18285 4.83658L9.05802 5.46071L9.62732 5.74536C11.6203 6.74187 13.4526 6.18767 14.4143 4.98793C14.8807 4.40609 15.1436 3.66154 15.0632 2.90569C14.9803 2.12575 14.5391 1.41828 13.762 0.952076C13.066 0.534512 12.3496 0.434003 11.6805 0.684455C11.0577 0.917574 10.6095 1.40657 10.2939 1.88497ZM12.2648 2.24535C12.3726 2.205 12.559 2.1739 12.9046 2.38127C13.2574 2.59292 13.3812 2.84938 13.4059 3.08195C13.4332 3.33861 13.3466 3.65516 13.1138 3.94552C12.746 4.4044 12.0037 4.78516 10.9775 4.49299C11.1359 3.92162 11.3712 3.27874 11.6852 2.80264C11.9079 2.46508 12.1107 2.30305 12.2648 2.24535Z" fill="#18202A"/>
<path d="M1.66667 10.8335H9.16667V19.1668H4.16667C2.78596 19.1668 1.66667 18.0475 1.66667 16.6668V10.8335Z" fill="#18202A"/>
<path d="M10.8333 10.8335H18.3333V16.6668C18.3333 18.0475 17.214 19.1668 15.8333 19.1668H10.8333V10.8335Z" fill="#18202A"/>
</g>
<defs>
<clipPath id="clip0_2266_37063">
<rect width="20" height="20" fill="white"/>
</clipPath>
</defs>
</svg>
