<svg width="20" height="20" viewBox="0 0 20 20" fill="none" xmlns="http://www.w3.org/2000/svg">
<g clip-path="url(#clip0_3725_8819)">
<g clip-path="url(#clip1_3725_8819)">
<path fill-rule="evenodd" clip-rule="evenodd" d="M8.33337 1.66634C8.33337 1.2061 7.96028 0.833008 7.50004 0.833008C7.0398 0.833008 6.66671 1.2061 6.66671 1.66634V3.33301H5.72921C4.86626 3.33301 4.16671 4.03256 4.16671 4.89551V7.49967H1.66671C1.20647 7.49967 0.833374 7.87277 0.833374 8.33301C0.833374 8.79325 1.20647 9.16634 1.66671 9.16634H4.16671V10.833H1.66671C1.20647 10.833 0.833374 11.2061 0.833374 11.6663C0.833374 12.1266 1.20647 12.4997 1.66671 12.4997H4.16671V14.2705C4.16671 15.1335 4.86626 15.833 5.72921 15.833H6.66671V18.333C6.66671 18.7932 7.0398 19.1663 7.50004 19.1663C7.96028 19.1663 8.33337 18.7932 8.33337 18.333V15.833H11.6667V18.333C11.6667 18.7932 12.0398 19.1663 12.5 19.1663C12.9603 19.1663 13.3334 18.7932 13.3334 18.333V15.833H15.1042C15.9672 15.833 16.6667 15.1335 16.6667 14.2705V12.4997H18.3334C18.7936 12.4997 19.1667 12.1266 19.1667 11.6663C19.1667 11.2061 18.7936 10.833 18.3334 10.833H16.6667V9.16634H18.3334C18.7936 9.16634 19.1667 8.79325 19.1667 8.33301C19.1667 7.87277 18.7936 7.49967 18.3334 7.49967H16.6667V4.89551C16.6667 4.03256 15.9672 3.33301 15.1042 3.33301H13.3334V1.66634C13.3334 1.2061 12.9603 0.833008 12.5 0.833008C12.0398 0.833008 11.6667 1.2061 11.6667 1.66634V3.33301H8.33337V1.66634ZM12.5 8.33301C12.5 7.87277 12.1269 7.49967 11.6667 7.49967H9.16671C8.70647 7.49967 8.33337 7.87277 8.33337 8.33301V10.833C8.33337 11.2932 8.70647 11.6663 9.16671 11.6663H11.6667C12.1269 11.6663 12.5 11.2932 12.5 10.833V8.33301Z" fill="#18202A"/>
</g>
</g>
<defs>
<clipPath id="clip0_3725_8819">
<rect width="20" height="20" fill="white"/>
</clipPath>
<clipPath id="clip1_3725_8819">
<rect width="20" height="20" fill="white"/>
</clipPath>
</defs>
</svg>
