<svg width="20" height="20" viewBox="0 0 20 20" fill="none" xmlns="http://www.w3.org/2000/svg">
<path fill-rule="evenodd" clip-rule="evenodd" d="M3.33331 2.91669H16.6666C17.357 2.91669 17.9166 3.47633 17.9166 4.16669V6.66669C17.9166 7.35704 17.357 7.91669 16.6666 7.91669H3.33331C2.64296 7.91669 2.08331 7.35704 2.08331 6.66669V4.16669C2.08331 3.47633 2.64296 2.91669 3.33331 2.91669ZM0.833313 4.16669C0.833313 2.78597 1.9526 1.66669 3.33331 1.66669H16.6666C18.0474 1.66669 19.1666 2.78598 19.1666 4.16669V6.66669C19.1666 8.0474 18.0474 9.16669 16.6666 9.16669H3.33331C1.9526 9.16669 0.833313 8.0474 0.833313 6.66669V4.16669ZM3.33331 12.0834H16.6666C17.357 12.0834 17.9166 12.643 17.9166 13.3334V15.8334C17.9166 16.5237 17.357 17.0834 16.6666 17.0834H3.33331C2.64296 17.0834 2.08331 16.5237 2.08331 15.8334V13.3334C2.08331 12.643 2.64296 12.0834 3.33331 12.0834ZM0.833313 13.3334C0.833313 11.9526 1.9526 10.8334 3.33331 10.8334H16.6666C18.0474 10.8334 19.1666 11.9526 19.1666 13.3334V15.8334C19.1666 17.2141 18.0474 18.3334 16.6666 18.3334H3.33331C1.9526 18.3334 0.833313 17.2141 0.833313 15.8334V13.3334Z" fill="#18202A"/>
</svg>
