<svg width="20" height="20" viewBox="0 0 20 20" fill="none" xmlns="http://www.w3.org/2000/svg">
<path fill-rule="evenodd" clip-rule="evenodd" d="M13.3333 4.47884C13.3333 7.08301 12.2222 9.16634 9.99999 9.16634C7.77777 9.16634 6.66666 7.08301 6.66666 4.47884C6.66666 2.39551 7.77777 0.833008 9.99999 0.833008C12.2222 0.833008 13.3333 2.39551 13.3333 4.47884ZM12.0833 4.47884C12.0833 5.62726 11.8347 6.53475 11.455 7.11322C11.1089 7.64042 10.6521 7.91634 9.99999 7.91634C9.34787 7.91634 8.89104 7.64042 8.54498 7.11322C8.16527 6.53475 7.91666 5.62726 7.91666 4.47884C7.91666 3.64564 8.13919 3.0513 8.45085 2.68607C8.73842 2.34908 9.20501 2.08301 9.99999 2.08301C10.795 2.08301 11.2616 2.34908 11.5491 2.68607C11.8608 3.0513 12.0833 3.64564 12.0833 4.47884ZM8.493 17.8348C8.34933 18.2471 8.30629 18.6696 8.34915 19.0765C7.63829 18.9987 6.94237 18.8712 6.26493 18.6976C5.24906 18.4373 4.38807 17.7568 3.91654 16.8201C3.77676 16.5424 3.64641 16.2592 3.52589 15.9709C3.0138 14.7456 3.21788 13.3121 4.16609 12.3824C5.66927 10.9085 7.7285 9.99967 10 9.99967C10.9225 9.99967 11.8099 10.1496 12.6393 10.4263C12.5976 10.4887 12.5577 10.5534 12.5198 10.6203L12.0017 11.5362C11.3671 11.3497 10.6954 11.2497 10 11.2497C8.0688 11.2497 6.32021 12.0209 5.04123 13.2749C4.5047 13.801 4.33803 14.6725 4.67921 15.4888C4.78836 15.75 4.90643 16.0065 5.03305 16.2581C5.33833 16.8645 5.90079 17.3139 6.57525 17.4867C7.19812 17.6464 7.83842 17.7635 8.493 17.8348ZM18.9978 19.9997C19.7663 19.9997 20.248 19.1532 19.8665 18.4731L15.8687 11.3467C15.4844 10.6618 14.5155 10.6618 14.1313 11.3467L10.1335 18.4731C9.75197 19.1532 10.2337 19.9997 11.0022 19.9997H18.9978ZM14.375 13.958C14.375 13.6128 14.6548 13.333 15 13.333C15.3452 13.333 15.625 13.6128 15.625 13.958V15.6247C15.625 15.9699 15.3452 16.2497 15 16.2497C14.6548 16.2497 14.375 15.9699 14.375 15.6247V13.958ZM14.375 17.708C14.375 17.3628 14.6548 17.083 15 17.083C15.3452 17.083 15.625 17.3628 15.625 17.708C15.625 18.0532 15.3452 18.333 15 18.333C14.6548 18.333 14.375 18.0532 14.375 17.708Z" fill="#18202A"/>
</svg>
