<svg width="20" height="20" viewBox="0 0 20 20" fill="none" xmlns="http://www.w3.org/2000/svg">
<path fill-rule="evenodd" clip-rule="evenodd" d="M15 2.08301H6.66668C5.51608 2.08301 4.58334 3.01575 4.58334 4.16634V15.833C4.58334 16.9836 5.51608 17.9163 6.66668 17.9163H15C16.1506 17.9163 17.0833 16.9836 17.0833 15.833V4.16634C17.0833 3.01575 16.1506 2.08301 15 2.08301ZM6.66668 0.833008C4.82573 0.833008 3.33334 2.32539 3.33334 4.16634V15.833C3.33334 17.674 4.82573 19.1663 6.66668 19.1663H15C16.841 19.1663 18.3333 17.674 18.3333 15.833V4.16634C18.3333 2.32539 16.841 0.833008 15 0.833008H6.66668ZM10.8334 9.62089C11.8435 9.62089 12.3485 8.67392 12.3485 7.4902C12.3485 6.54323 11.8435 5.83301 10.8334 5.83301C9.82325 5.83301 9.3182 6.54323 9.3182 7.4902C9.3182 8.67392 9.82325 9.62089 10.8334 9.62089ZM7.99221 11.6291C7.65792 12.4756 7.80985 12.6491 8.11373 12.9962C8.73598 13.7071 9.72262 14.1663 10.8334 14.1663C11.9441 14.1663 12.9307 13.7071 13.553 12.9963C13.8569 12.6491 14.0088 12.4756 13.6745 11.6291C13.3402 10.7826 13.0161 10.7066 12.368 10.5545C11.879 10.4397 11.3644 10.3785 10.8334 10.3785C10.3023 10.3785 9.78774 10.4397 9.29869 10.5545C8.65056 10.7066 8.32649 10.7826 7.99221 11.6291ZM0.833344 4.99967C0.833344 4.53944 1.20644 4.16634 1.66668 4.16634H2.50001V7.49967H1.66668C1.20644 7.49967 0.833344 7.12658 0.833344 6.66634V4.99967ZM0.833344 9.16634C0.833344 8.7061 1.20644 8.33301 1.66668 8.33301H2.50001V11.6663H1.66668C1.20644 11.6663 0.833344 11.2932 0.833344 10.833V9.16634ZM1.66668 12.4997C1.20644 12.4997 0.833344 12.8728 0.833344 13.333V14.9997C0.833344 15.4599 1.20644 15.833 1.66668 15.833H2.50001V12.4997H1.66668Z" fill="#18202A"/>
</svg>
