<svg width="20" height="20" viewBox="0 0 20 20" fill="none" xmlns="http://www.w3.org/2000/svg">
<g clip-path="url(#clip0_2301_8430)">
<path fill-rule="evenodd" clip-rule="evenodd" d="M10.625 2.08333V8.125C10.625 8.81535 11.1846 9.375 11.875 9.375H17.9166C18.607 9.375 19.1666 8.81535 19.1666 8.125V5C19.1666 2.69881 17.3012 0.833328 15 0.833328H11.875C11.1846 0.833328 10.625 1.39297 10.625 2.08333ZM9.37498 2.08333C9.37498 1.39297 8.81534 0.833328 8.12498 0.833328H4.99998C2.69879 0.833328 0.833313 2.69881 0.833313 5V15C0.833313 17.3012 2.69879 19.1667 4.99998 19.1667H8.12498C8.81534 19.1667 9.37498 18.607 9.37498 17.9167V2.08333ZM10.625 11.875V17.9167C10.625 18.607 11.1846 19.1667 11.875 19.1667H15C17.3012 19.1667 19.1666 17.3012 19.1666 15V11.875C19.1666 11.1846 18.607 10.625 17.9166 10.625H11.875C11.1846 10.625 10.625 11.1846 10.625 11.875ZM11.875 17.9167H15C16.6108 17.9167 17.9166 16.6108 17.9166 15V11.875H11.875V17.9167ZM11.875 8.125H17.9166V5C17.9166 3.38916 16.6108 2.08333 15 2.08333H11.875V8.125ZM8.12498 2.08333H4.99998C3.38915 2.08333 2.08331 3.38916 2.08331 5V15C2.08331 16.6108 3.38915 17.9167 4.99998 17.9167H8.12498V2.08333Z" fill="#18202A"/>
</g>
<defs>
<clipPath id="clip0_2301_8430">
<rect width="20" height="20" fill="white"/>
</clipPath>
</defs>
</svg>
