<svg width="20" height="20" viewBox="0 0 20 20" fill="none" xmlns="http://www.w3.org/2000/svg">
<g clip-path="url(#clip0_3906_9351)">
<path d="M10.8586 7.05806C10.7414 6.94085 10.5824 6.875 10.4166 6.875C10.2509 6.875 10.0919 6.94085 9.9747 7.05806L7.68304 9.34972C7.43896 9.5938 7.43896 9.98953 7.68304 10.2336C7.92712 10.4777 8.32284 10.4777 8.56692 10.2336L9.79165 9.00888V14.1667C9.79165 14.5118 10.0715 14.7917 10.4166 14.7917C10.7618 14.7917 11.0416 14.5118 11.0416 14.1667V9.00888L12.2664 10.2336C12.5104 10.4777 12.9062 10.4777 13.1503 10.2336C13.3943 9.98953 13.3943 9.5938 13.1503 9.34972L10.8586 7.05806Z" fill="#18202A"/>
<path fill-rule="evenodd" clip-rule="evenodd" d="M4.16665 2.5C2.3257 2.5 0.833313 3.99238 0.833313 5.83333V14.1667C0.833313 16.0076 2.3257 17.5 4.16665 17.5H15.8333C17.6743 17.5 19.1666 16.0076 19.1666 14.1667V7.5C19.1666 5.65905 17.6743 4.16667 15.8333 4.16667H9.99998L9.06555 3.23223C8.59671 2.76339 7.96082 2.5 7.29778 2.5H4.16665ZM17.9166 7.5C17.9166 6.34941 16.9839 5.41667 15.8333 5.41667H9.48221L8.18166 4.11612C7.94724 3.8817 7.6293 3.75 7.29778 3.75H4.16665C3.01605 3.75 2.08331 4.68274 2.08331 5.83333V14.1667C2.08331 15.3173 3.01605 16.25 4.16665 16.25H15.8333C16.9839 16.25 17.9166 15.3173 17.9166 14.1667V7.5Z" fill="#18202A"/>
</g>
<defs>
<clipPath id="clip0_3906_9351">
<rect width="20" height="20" fill="white"/>
</clipPath>
</defs>
</svg>
