<svg width="20" height="20" viewBox="0 0 20 20" fill="none" xmlns="http://www.w3.org/2000/svg">
<g clip-path="url(#clip0_2266_40243)">
<path fill-rule="evenodd" clip-rule="evenodd" d="M17.9167 10C17.9167 5.62779 14.3723 2.08337 10 2.08337C5.62776 2.08337 2.08334 5.62779 2.08334 10C2.08334 14.3723 5.62776 17.9167 10 17.9167C14.3723 17.9167 17.9167 14.3723 17.9167 10ZM19.1667 10C19.1667 4.93743 15.0626 0.833374 10 0.833374C4.9374 0.833374 0.833343 4.93743 0.833344 10C0.833344 15.0627 4.9374 19.1667 10 19.1667C15.0626 19.1667 19.1667 15.0627 19.1667 10Z" fill="#18202A"/>
<path fill-rule="evenodd" clip-rule="evenodd" d="M6.22474 11.2753C5.98066 11.0312 5.98066 10.6355 6.22474 10.3914L9.55807 7.0581C9.80215 6.81402 10.1979 6.81402 10.442 7.0581L13.7753 10.3914C14.0194 10.6355 14.0194 11.0312 13.7753 11.2753C13.5312 11.5194 13.1355 11.5194 12.8914 11.2753L10 8.38392L7.10862 11.2753C6.86454 11.5194 6.46881 11.5194 6.22474 11.2753Z" fill="#18202A"/>
</g>
<defs>
<clipPath id="clip0_2266_40243">
<rect width="20" height="20" fill="white"/>
</clipPath>
</defs>
</svg>
