<svg width="20" height="20" viewBox="0 0 20 20" fill="none" xmlns="http://www.w3.org/2000/svg">
<g clip-path="url(#clip0_2266_38608)">
<path d="M2.10039 9.74259V9.69981L2.09746 9.65714C1.82878 5.736 5.53827 2.0835 10.0085 2.0835C14.4553 2.0835 17.9167 5.10051 17.9167 9.74259C17.9167 10.0994 17.8909 10.453 17.8402 10.8008C18.2539 10.9659 18.6424 11.1805 18.9985 11.4373C19.1095 10.8857 19.1667 10.3185 19.1667 9.74259C19.1667 4.3335 15.0664 0.833496 10.0085 0.833496C4.95063 0.833496 0.523351 4.96986 0.850387 9.74259C0.850387 12.5945 1.9902 14.8273 3.80922 16.301L3.9843 18.402C4.03234 18.9785 4.63874 19.3318 5.16397 19.0894L7.43556 18.041C8.25181 18.2342 9.11524 18.3335 10.0085 18.3335C10.3478 18.3335 10.6798 18.3185 11.0041 18.2894C10.809 17.9065 10.6581 17.4973 10.5581 17.0686C10.3777 17.0785 10.1944 17.0835 10.0085 17.0835C9.20758 17.0835 8.44102 16.9945 7.72353 16.8246L7.30358 16.7252L5.18056 17.7051L5.0106 15.6655L4.59609 15.3297C3.08236 14.1033 2.10039 12.2336 2.10039 9.74259Z" fill="#18202A"/>
<path d="M14.5029 10.5814C14.2427 10.6471 13.99 10.7317 13.7464 10.8335C13.0577 10.8315 12.5 10.2726 12.5 9.5835C12.5 8.89314 13.0597 8.3335 13.75 8.3335C14.4404 8.3335 15 8.89314 15 9.5835C15 9.99117 14.8049 10.3533 14.5029 10.5814Z" fill="#18202A"/>
<path d="M10 10.8335C10.6904 10.8335 11.25 10.2739 11.25 9.5835C11.25 8.89314 10.6904 8.3335 10 8.3335C9.30967 8.3335 8.75002 8.89314 8.75002 9.5835C8.75002 10.2739 9.30967 10.8335 10 10.8335Z" fill="#18202A"/>
<path d="M7.50002 9.5835C7.50002 10.2739 6.94038 10.8335 6.25002 10.8335C5.55967 10.8335 5.00002 10.2739 5.00002 9.5835C5.00002 8.89314 5.55967 8.3335 6.25002 8.3335C6.94038 8.3335 7.50002 8.89314 7.50002 9.5835Z" fill="#18202A"/>
<path fill-rule="evenodd" clip-rule="evenodd" d="M15.8333 20.0002C18.1345 20.0002 20 18.1347 20 15.8335C20 13.5323 18.1345 11.6668 15.8333 11.6668C13.5322 11.6668 11.6667 13.5323 11.6667 15.8335C11.6667 18.1347 13.5322 20.0002 15.8333 20.0002ZM18.3912 14.9902C18.6158 14.7282 18.5855 14.3336 18.3234 14.109C18.0613 13.8843 17.6668 13.9147 17.4421 14.1768L15.3232 16.6488L14.125 15.7502C13.8489 15.5431 13.4571 15.599 13.25 15.8752C13.0429 16.1513 13.0989 16.5431 13.375 16.7502L15.0417 18.0002C15.3052 18.1978 15.6768 18.157 15.8912 17.9069L18.3912 14.9902Z" fill="#18202A"/>
</g>
<defs>
<clipPath id="clip0_2266_38608">
<rect width="20" height="20" fill="white"/>
</clipPath>
</defs>
</svg>
