<svg width="20" height="20" viewBox="0 0 20 20" fill="none" xmlns="http://www.w3.org/2000/svg">
<path fill-rule="evenodd" clip-rule="evenodd" d="M11.4275 1.92259C11.1939 2.01933 11.0417 2.24723 11.0417 2.50002V6.05253C8.81451 6.13073 6.42892 6.64763 4.53481 8.1094C2.43168 9.73246 1.04166 12.4357 1.04166 16.6667C1.04166 16.9487 1.23056 17.1958 1.50273 17.2698C1.7749 17.3438 2.0629 17.2263 2.20567 16.9831C3.32232 15.0806 4.18687 13.9638 5.46202 13.28C6.66518 12.6348 8.3109 12.3343 11.0417 12.2959V15.8334C11.0417 16.0861 11.1939 16.314 11.4275 16.4108C11.661 16.5075 11.9298 16.454 12.1086 16.2753L18.7753 9.60863C19.0193 9.36455 19.0193 8.96882 18.7753 8.72474L12.1086 2.05808C11.9298 1.87933 11.661 1.82586 11.4275 1.92259ZM17.4494 9.16668L12.2917 14.3245V11.6667C12.2917 11.3215 12.0118 11.0417 11.6667 11.0417C8.52615 11.0417 6.45401 11.3297 4.8713 12.1784C3.90835 12.6947 3.15893 13.4014 2.46772 14.3032C2.87438 11.7684 3.94835 10.1409 5.29851 9.09897C7.0592 7.74018 9.39806 7.29168 11.6667 7.29168C12.0118 7.29168 12.2917 7.01186 12.2917 6.66668V4.0089L17.4494 9.16668Z" fill="#18202A"/>
</svg>
