<svg width="20" height="20" viewBox="0 0 20 20" fill="none" xmlns="http://www.w3.org/2000/svg">
<g clip-path="url(#clip0_2266_35935)">
<path fill-rule="evenodd" clip-rule="evenodd" d="M4.75592 6.91066C5.08136 7.2361 5.08136 7.76374 4.75592 8.08917L2.84518 9.99992L4.75592 11.9107C5.08136 12.2361 5.08136 12.7637 4.75592 13.0892C4.43049 13.4146 3.90285 13.4146 3.57741 13.0892L1.07741 10.5892C0.751975 10.2637 0.751975 9.7361 1.07741 9.41066L3.57741 6.91066C3.90285 6.58523 4.43049 6.58523 4.75592 6.91066Z" fill="#18202A"/>
<path fill-rule="evenodd" clip-rule="evenodd" d="M9.41075 1.07733C9.73618 0.751893 10.2638 0.751893 10.5893 1.07733L13.0893 3.57733C13.4147 3.90277 13.4147 4.4304 13.0893 4.75584C12.7638 5.08128 12.2362 5.08128 11.9107 4.75584L10 2.8451L8.08926 4.75584C7.76382 5.08128 7.23618 5.08128 6.91075 4.75584C6.58531 4.4304 6.58531 3.90277 6.91075 3.57733L9.41075 1.07733Z" fill="#18202A"/>
<path fill-rule="evenodd" clip-rule="evenodd" d="M6.91075 15.244C7.23618 14.9186 7.76382 14.9186 8.08926 15.244L10 17.1547L11.9107 15.244C12.2362 14.9186 12.7638 14.9186 13.0893 15.244C13.4147 15.5694 13.4147 16.0971 13.0893 16.4225L10.5893 18.9225C10.2638 19.2479 9.73618 19.2479 9.41075 18.9225L6.91075 16.4225C6.58531 16.0971 6.58531 15.5694 6.91075 15.244Z" fill="#18202A"/>
<path fill-rule="evenodd" clip-rule="evenodd" d="M15.2441 6.91066C15.5695 6.58523 16.0972 6.58523 16.4226 6.91066L18.9226 9.41066C19.248 9.7361 19.248 10.2637 18.9226 10.5892L16.4226 13.0892C16.0972 13.4146 15.5695 13.4146 15.2441 13.0892C14.9186 12.7637 14.9186 12.2361 15.2441 11.9107L17.1548 9.99992L15.2441 8.08917C14.9186 7.76374 14.9186 7.2361 15.2441 6.91066Z" fill="#18202A"/>
<path fill-rule="evenodd" clip-rule="evenodd" d="M0.833334 9.99992C0.833334 9.53968 1.20643 9.16659 1.66667 9.16659H18.3333C18.7936 9.16659 19.1667 9.53968 19.1667 9.99992C19.1667 10.4602 18.7936 10.8333 18.3333 10.8333H1.66667C1.20643 10.8333 0.833334 10.4602 0.833334 9.99992Z" fill="#18202A"/>
<path fill-rule="evenodd" clip-rule="evenodd" d="M10 0.833252C10.4602 0.833252 10.8333 1.20635 10.8333 1.66659V18.3333C10.8333 18.7935 10.4602 19.1666 10 19.1666C9.53976 19.1666 9.16667 18.7935 9.16667 18.3333V1.66659C9.16667 1.20635 9.53976 0.833252 10 0.833252Z" fill="#18202A"/>
</g>
<defs>
<clipPath id="clip0_2266_35935">
<rect width="20" height="20" fill="white"/>
</clipPath>
</defs>
</svg>
