<svg width="20" height="20" viewBox="0 0 20 20" fill="none" xmlns="http://www.w3.org/2000/svg">
<g clip-path="url(#clip0_3603_8854)">
<path fill-rule="evenodd" clip-rule="evenodd" d="M9 6C9 7.65685 7.65685 9 6 9V11.5C6 12.8807 7.11929 14 8.5 14H11C11 12.3431 12.3431 11 14 11C15.6569 11 17 12.3431 17 14C17 15.6569 15.6569 17 14 17C12.6938 17 11.5825 16.1652 11.1707 15H8.5C6.567 15 5 13.433 5 11.5V8.82929C3.83481 8.41746 3 7.30622 3 6C3 4.34315 4.34315 3 6 3C7.65685 3 9 4.34315 9 6ZM8 6C8 7.10457 7.10457 8 6 8C4.89543 8 4 7.10457 4 6C4 4.89543 4.89543 4 6 4C7.10457 4 8 4.89543 8 6ZM16 14C16 15.1046 15.1046 16 14 16C12.8954 16 12 15.1046 12 14C12 12.8954 12.8954 12 14 12C15.1046 12 16 12.8954 16 14Z" fill="#18202A"/>
<path d="M15 3.5C15 3.22386 14.7761 3 14.5 3C14.2239 3 14 3.22386 14 3.5V5L12.5 5C12.2239 5 12 5.22386 12 5.5C12 5.77614 12.2239 6 12.5 6H14V7.5C14 7.77614 14.2239 8 14.5 8C14.7761 8 15 7.77614 15 7.5V6H16.5C16.7761 6 17 5.77614 17 5.5C17 5.22386 16.7761 5 16.5 5L15 5V3.5Z" fill="#18202A"/>
</g>
<defs>
<clipPath id="clip0_3603_8854">
<rect width="20" height="20" fill="white"/>
</clipPath>
</defs>
</svg>
