<svg width="20" height="20" viewBox="0 0 20 20" fill="none" xmlns="http://www.w3.org/2000/svg">
<path fill-rule="evenodd" clip-rule="evenodd" d="M19.1667 2.70831C18.8215 2.70831 18.5417 2.98814 18.5417 3.33331V7.70831H14.1667C13.8215 7.70831 13.5417 7.98814 13.5417 8.33331C13.5417 8.67849 13.8215 8.95831 14.1667 8.95831H19.1667C19.5118 8.95831 19.7917 8.67849 19.7917 8.33331V3.33331C19.7917 2.98814 19.5118 2.70831 19.1667 2.70831Z" fill="#18202A"/>
<path fill-rule="evenodd" clip-rule="evenodd" d="M6.45832 11.6666C6.45832 11.3215 6.1785 11.0416 5.83332 11.0416H0.833323C0.488144 11.0416 0.208323 11.3215 0.208323 11.6666V16.6666C0.208323 17.0118 0.488144 17.2916 0.833323 17.2916C1.1785 17.2916 1.45832 17.0118 1.45832 16.6666V12.2916H5.83332C6.1785 12.2916 6.45832 12.0118 6.45832 11.6666Z" fill="#18202A"/>
<path fill-rule="evenodd" clip-rule="evenodd" d="M12.253 2.1969C10.9345 1.81554 9.54096 1.77438 8.2023 2.07727C6.86364 2.38016 5.62353 3.01722 4.59767 3.92901C3.57181 4.84081 2.79365 5.99761 2.33579 7.29148C2.22064 7.61689 2.39109 7.97403 2.71649 8.08918C3.0419 8.20433 3.39904 8.03388 3.51419 7.70848C3.90161 6.61366 4.56005 5.63483 5.42809 4.86331C6.29612 4.0918 7.34544 3.55274 8.47816 3.29645C9.61087 3.04016 10.79 3.07499 11.9057 3.39768C13.0213 3.72037 14.0369 4.32041 14.8579 5.14181C14.8626 5.14643 14.8672 5.15098 14.872 5.15545L18.7387 8.78879C18.9902 9.02516 19.3858 9.01285 19.6221 8.7613C19.8585 8.50975 19.8462 8.11421 19.5946 7.87784L15.735 4.25109C14.766 3.28396 13.5682 2.57734 12.253 2.1969ZM0.377851 11.2387C0.141481 11.4902 0.153788 11.8857 0.405336 12.1221L4.26502 15.7489C5.23403 16.716 6.43176 17.4226 7.747 17.8031C9.06545 18.1844 10.459 18.2256 11.7977 17.9227C13.1363 17.6198 14.3764 16.9827 15.4023 16.0709C16.4282 15.1592 17.2063 14.0024 17.6642 12.7085C17.7793 12.3831 17.6089 12.0259 17.2835 11.9108C16.9581 11.7956 16.6009 11.9661 16.4858 12.2915C16.0984 13.3863 15.4399 14.3651 14.5719 15.1366C13.7039 15.9082 12.6545 16.4472 11.5218 16.7035C10.3891 16.9598 9.20994 16.925 8.09433 16.6023C6.97871 16.2796 5.96303 15.6795 5.14204 14.8582C5.13742 14.8535 5.13273 14.849 5.12797 14.8445L1.26131 11.2112C1.00976 10.9748 0.614222 10.9871 0.377851 11.2387Z" fill="#18202A"/>
</svg>
