<svg width="20" height="20" viewBox="0 0 20 20" fill="none" xmlns="http://www.w3.org/2000/svg">
<g clip-path="url(#clip0_3240_8971)">
<path d="M3.43703 13.9071L2.53842 14.8057C2.23806 14.3985 2.00735 13.9294 1.86847 13.4111L0.14301 6.97157C-0.452581 4.7488 0.866513 2.46406 3.08929 1.86847L9.52879 0.14301C11.6536 -0.426328 13.835 0.753946 14.5434 2.80071L13.5316 3.81256L13.4245 3.41281C13.0076 1.85687 11.4083 0.933503 9.85232 1.35042L3.41281 3.07588C1.85687 3.49279 0.933504 5.09211 1.35042 6.64805L3.07588 13.0876C3.15574 13.3856 3.279 13.6605 3.43703 13.9071Z" fill="#18202A"/>
<path fill-rule="evenodd" clip-rule="evenodd" d="M18.9825 1.90678L15.8711 5.01816L16.2024 5.04714C18.4948 5.24771 20.1906 7.26867 19.9901 9.5611L19.409 16.2024C19.2085 18.4948 17.1875 20.1906 14.8951 19.9901L8.25376 19.409C6.44896 19.2511 5.01397 17.9649 4.58302 16.3063L1.90679 18.9825C1.66122 19.2281 1.26308 19.2281 1.01752 18.9825C0.771955 18.7369 0.771955 18.3388 1.01752 18.0932L18.0932 1.01751C18.3388 0.771942 18.7369 0.771942 18.9825 1.01751C19.2281 1.26307 19.2281 1.66121 18.9825 1.90678ZM9.00155 12.2751L7.57811 13.3112L9.74386 11.1454C10.7397 11.0665 11.5622 10.2783 11.6521 9.25005L11.6533 9.23597L14.7173 6.17199L16.0935 6.29239C17.6982 6.43278 18.8852 7.84746 18.7448 9.45216L18.3019 14.5148L15.2042 10.7947L10.9793 13.8434L9.00155 12.2751ZM5.83218 16.1281L8.96917 13.8447L10.9438 15.4105L14.9899 12.4908L18.1228 16.2531L18.1484 16.2318C17.9413 17.7658 16.5622 18.8811 15.004 18.7448L8.36271 18.1638C7.14923 18.0576 6.17458 17.2228 5.83218 16.1281Z" fill="#18202A"/>
<path d="M7.60406 9.7401L10.2483 7.09585C10.093 7.04311 9.92896 7.008 9.75829 6.99307C8.61208 6.89279 7.60159 7.74068 7.50131 8.8869C7.47523 9.18502 7.51329 9.47396 7.60406 9.7401Z" fill="#18202A"/>
<path d="M6.29238 8.36271L6.03457 11.3096L4.65949 12.6847L5.04714 8.25377C5.2477 5.96134 7.26867 4.26554 9.5611 4.46611L12.6112 4.73296L11.4574 5.88678L9.45216 5.71135C7.84746 5.57096 6.43278 6.75801 6.29238 8.36271Z" fill="#18202A"/>
</g>
<defs>
<clipPath id="clip0_3240_8971">
<rect width="20" height="20" fill="white"/>
</clipPath>
</defs>
</svg>
