<svg width="20" height="20" viewBox="0 0 20 20" fill="none" xmlns="http://www.w3.org/2000/svg">
<path fill-rule="evenodd" clip-rule="evenodd" d="M0 2.08301H2.2034C2.47475 2.08301 2.73386 2.19592 2.91859 2.39468C2.9327 2.40985 2.94401 2.4274 2.952 2.44651L3.32931 3.34877L5.6821 10.0637L4.55035 11.3117C3.70046 12.2489 4.36546 13.7497 5.63065 13.7497H17.0833L16.7448 13.2418C16.4357 12.7782 15.9153 12.4997 15.358 12.4997H5.63065C5.44991 12.4997 5.3549 12.2853 5.47632 12.1514L6.67187 10.833H14.8591C15.4496 10.833 15.9818 10.4769 16.2071 9.93106L18.4428 4.51439C18.839 3.5544 18.1333 2.49967 17.0947 2.49967H4.32913L4.10522 1.96425C4.04037 1.80918 3.94861 1.6668 3.83418 1.54368C3.41295 1.09048 2.82213 0.833008 2.2034 0.833008H0V2.08301ZM6.83819 9.58301L4.79429 3.74967H17.0947C17.2431 3.74967 17.3439 3.90035 17.2873 4.03749L15.0517 9.45416C15.0195 9.53214 14.9434 9.58301 14.8591 9.58301H6.83819ZM7.08333 17.9163C7.57353 17.9163 7.91667 17.5732 7.91667 17.083C7.91667 16.5928 7.57353 16.2497 7.08333 16.2497C6.59313 16.2497 6.25 16.5928 6.25 17.083C6.25 17.5732 6.59313 17.9163 7.08333 17.9163ZM7.08333 19.1663C8.26389 19.1663 9.16667 18.2636 9.16667 17.083C9.16667 15.9025 8.26389 14.9997 7.08333 14.9997C5.90278 14.9997 5 15.9025 5 17.083C5 18.2636 5.90278 19.1663 7.08333 19.1663ZM14.5833 17.9163C15.0735 17.9163 15.4167 17.5732 15.4167 17.083C15.4167 16.5928 15.0735 16.2497 14.5833 16.2497C14.0931 16.2497 13.75 16.5928 13.75 17.083C13.75 17.5732 14.0931 17.9163 14.5833 17.9163ZM14.5833 19.1663C15.7639 19.1663 16.6667 18.2636 16.6667 17.083C16.6667 15.9025 15.7639 14.9997 14.5833 14.9997C13.4028 14.9997 12.5 15.9025 12.5 17.083C12.5 18.2636 13.4028 19.1663 14.5833 19.1663Z" fill="#18202A"/>
</svg>
