<svg width="20" height="20" viewBox="0 0 20 20" fill="none" xmlns="http://www.w3.org/2000/svg">
<g clip-path="url(#clip0_3906_9136)">
<path fill-rule="evenodd" clip-rule="evenodd" d="M0.833374 5.83333C0.833374 3.99238 2.32576 2.5 4.16671 2.5H7.29784C7.96088 2.5 8.59677 2.76339 9.06561 3.23223L10 4.16667H15.8334C17.6743 4.16667 19.1667 5.65905 19.1667 7.5V14.1667C19.1667 16.0076 17.6743 17.5 15.8334 17.5H4.16671C2.32576 17.5 0.833374 16.0076 0.833374 14.1667V5.83333ZM13.75 10.4545C14.7493 10.4545 15.2489 9.50758 15.2489 8.32386C15.2489 7.37689 14.7493 6.66667 13.75 6.66667C12.7508 6.66667 12.2512 7.37689 12.2512 8.32386C12.2512 9.50758 12.7508 10.4545 13.75 10.4545ZM11.3037 12.1306C11.4082 12.0395 11.5177 11.9541 11.6318 11.875C12.2343 11.4568 12.9639 11.2121 13.75 11.2121C14.3866 11.2121 14.9862 11.3726 15.5112 11.6557C15.7572 11.7884 15.9869 11.9479 16.1963 12.1306C16.2551 12.1818 16.3083 12.2371 16.356 12.2958C16.7145 12.737 16.7617 13.37 16.5031 13.8981L16.4944 13.9156L16.4855 13.9335C16.2735 14.3593 15.8864 14.6686 15.4296 14.7869C14.8926 14.926 14.3299 15 13.75 15C13.1702 15 12.6074 14.926 12.0705 14.7869C11.6137 14.6686 11.2266 14.3593 11.0145 13.9335L10.997 13.8981C10.8447 13.5871 10.7985 13.2398 10.8594 12.9167C10.9157 12.618 11.0635 12.3401 11.3037 12.1306Z" fill="#18202A"/>
</g>
<defs>
<clipPath id="clip0_3906_9136">
<rect width="20" height="20" fill="white"/>
</clipPath>
</defs>
</svg>
