<svg width="20" height="20" viewBox="0 0 20 20" fill="none" xmlns="http://www.w3.org/2000/svg">
<g clip-path="url(#clip0_2266_36709)">
<path d="M8.34624 18.2146C8.29294 17.6541 8.40272 17.0652 8.71385 16.5152L12.5198 9.7875C13.6165 7.84883 16.3835 7.84882 17.4802 9.7875L18.8205 12.1568C19.048 11.3839 19.1667 10.5723 19.1667 9.74259C19.1667 4.3335 15.0664 0.833496 10.0085 0.833496C4.95062 0.833496 0.523342 4.96986 0.850378 9.74259C0.850378 12.5945 1.99019 14.8273 3.80921 16.301L3.98429 18.402C4.03233 18.9785 4.63873 19.3318 5.16396 19.0894L7.43556 18.041C7.73312 18.1115 8.03697 18.1694 8.34624 18.2146Z" fill="#18202A"/>
<path fill-rule="evenodd" clip-rule="evenodd" d="M18.9978 19.1668H11.0022C10.2337 19.1668 9.75198 18.3203 10.1335 17.6402L14.1313 10.5139C14.5155 9.82893 15.4845 9.82892 15.8687 10.5139L19.8665 17.6402C20.248 18.3203 19.7663 19.1668 18.9978 19.1668ZM15 12.5002C14.5398 12.5002 14.1667 12.8733 14.1667 13.3335V15.0002C14.1667 15.4604 14.5398 15.8335 15 15.8335C15.4602 15.8335 15.8333 15.4604 15.8333 15.0002V13.3335C15.8333 12.8733 15.4602 12.5002 15 12.5002ZM15 16.6668C14.5398 16.6668 14.1667 17.0399 14.1667 17.5002C14.1667 17.9604 14.5398 18.3335 15 18.3335C15.4602 18.3335 15.8333 17.9604 15.8333 17.5002C15.8333 17.0399 15.4602 16.6668 15 16.6668Z" fill="#18202A"/>
</g>
<defs>
<clipPath id="clip0_2266_36709">
<rect width="20" height="20" fill="white"/>
</clipPath>
</defs>
</svg>
