<svg width="20" height="20" viewBox="0 0 20 20" fill="none" xmlns="http://www.w3.org/2000/svg">
<g clip-path="url(#clip0_3750_8825)">
<path d="M7.66932 3.33308L7.70852 3.33203L7.74665 3.33304C7.76535 3.33412 7.78408 3.33606 7.8028 3.3389L7.8162 3.34207C7.88737 3.3535 7.9581 3.37892 8.02552 3.41886L8.06874 3.44681L12.179 6.33698C12.248 6.38551 12.34 6.38551 12.4091 6.337L16.5165 3.4496C16.9063 3.17561 17.4344 3.42188 17.4952 3.87383L17.501 3.9609V12.8213C17.501 12.9958 17.4282 13.1608 17.3025 13.2782L17.2354 13.3326L12.6521 16.5546C12.4297 16.711 12.1622 16.6979 11.9622 16.5739L7.82324 13.6621C7.75422 13.6136 7.66215 13.6136 7.59312 13.6621L3.48346 16.5518C3.0937 16.8258 2.56558 16.5796 2.5048 16.1276L2.49902 16.0405V7.18009C2.49902 7.00566 2.57182 6.84059 2.69746 6.72328L2.76459 6.66879L7.34792 3.44681C7.40126 3.40932 7.45718 3.38157 7.51415 3.36275L7.61621 3.33941L7.66932 3.33308ZM16.251 5.54931C16.251 5.38732 16.0685 5.29254 15.936 5.38569L13.0026 7.44776C12.9493 7.48521 12.9176 7.54626 12.9176 7.61138V14.4549C12.9176 14.6169 13.1001 14.7117 13.2327 14.6185L16.166 12.5565C16.2193 12.519 16.251 12.458 16.251 12.3928V5.54931ZM7.08236 5.54652C7.08236 5.38454 6.89986 5.28975 6.76734 5.38291L3.834 7.44497C3.78073 7.48242 3.74902 7.54347 3.74902 7.60859V14.4521C3.74902 14.6141 3.93152 14.7089 4.06404 14.6157L6.99738 12.5537C7.05065 12.5162 7.08236 12.4552 7.08236 12.3901V5.54652ZM8.64932 5.38291C8.51681 5.28975 8.33431 5.38454 8.33431 5.54652V12.3901C8.33431 12.4552 8.36601 12.5162 8.41929 12.5537L11.3526 14.6157C11.4851 14.7089 11.6676 14.6141 11.6676 14.4521V7.60859C11.6676 7.54347 11.6359 7.48242 11.5827 7.44497L8.64932 5.38291Z" fill="#18202A"/>
</g>
<defs>
<clipPath id="clip0_3750_8825">
<rect width="20" height="20" fill="white"/>
</clipPath>
</defs>
</svg>
