<svg width="20" height="20" viewBox="0 0 20 20" fill="none" xmlns="http://www.w3.org/2000/svg">
<path fill-rule="evenodd" clip-rule="evenodd" d="M16.2753 3.72481C16.5193 3.96888 16.5193 4.36461 16.2753 4.60869L4.6086 16.2754C4.36452 16.5194 3.96879 16.5194 3.72471 16.2754C3.48064 16.0313 3.48064 15.6356 3.72471 15.3915L15.3914 3.72481C15.6355 3.48073 16.0312 3.48073 16.2753 3.72481Z" fill="#18202A"/>
<path fill-rule="evenodd" clip-rule="evenodd" d="M3.72471 3.72481C3.96879 3.48073 4.36452 3.48073 4.6086 3.72481L16.2753 15.3915C16.5193 15.6356 16.5193 16.0313 16.2753 16.2754C16.0312 16.5194 15.6355 16.5194 15.3914 16.2754L3.72471 4.60869C3.48064 4.36461 3.48064 3.96888 3.72471 3.72481Z" fill="#18202A"/>
</svg>
