<svg width="20" height="20" viewBox="0 0 20 20" fill="none" xmlns="http://www.w3.org/2000/svg">
<path fill-rule="evenodd" clip-rule="evenodd" d="M9.99999 2.2915C7.12208 2.2915 4.61166 3.86835 3.28699 6.20819L2.19922 5.59236C3.73671 2.8766 6.65364 1.0415 9.99999 1.0415C14.9475 1.0415 18.9583 5.05229 18.9583 9.99984C18.9583 14.9474 14.9475 18.9582 9.99999 18.9582C5.05244 18.9582 1.04166 14.9474 1.04166 9.99984C1.04166 9.53919 1.07648 9.08633 1.14371 8.64383C1.19555 8.30257 1.53215 8.09101 1.86895 8.16662C2.20574 8.24222 2.41483 8.57641 2.36686 8.91824C2.31731 9.2714 2.29166 9.63247 2.29166 9.99984C2.29166 14.257 5.74279 17.7082 9.99999 17.7082C14.2572 17.7082 17.7083 14.257 17.7083 9.99984C17.7083 5.74264 14.2572 2.2915 9.99999 2.2915Z" fill="#18202A"/>
<path fill-rule="evenodd" clip-rule="evenodd" d="M2.0783 2.46274C2.41823 2.4028 2.74239 2.62978 2.80233 2.96972L3.20542 5.25573L5.49143 4.85264C5.83137 4.7927 6.15553 5.01968 6.21547 5.35962C6.27541 5.69955 6.04843 6.02371 5.70849 6.08365L2.80697 6.59527C2.46704 6.65521 2.14288 6.42823 2.08294 6.08829L1.57132 3.18678C1.51138 2.84684 1.73836 2.52268 2.0783 2.46274Z" fill="#18202A"/>
<path d="M9.37499 4.7915C9.37499 4.44633 9.65481 4.1665 9.99999 4.1665C10.3452 4.1665 10.625 4.44633 10.625 4.7915V9.99984C10.625 10.345 10.3452 10.6248 9.99999 10.6248C9.65481 10.6248 9.37499 10.345 9.37499 9.99984V4.7915Z" fill="#18202A"/>
<path d="M14.375 9.37484C14.7202 9.37484 15 9.65466 15 9.99984C15 10.345 14.7202 10.6248 14.375 10.6248H9.99999C9.65481 10.6248 9.37499 10.345 9.37499 9.99984C9.37499 9.65466 9.65481 9.37484 9.99999 9.37484H14.375Z" fill="#18202A"/>
</svg>
