<svg width="20" height="20" viewBox="0 0 20 20" fill="none" xmlns="http://www.w3.org/2000/svg">
<g clip-path="url(#clip0_2266_36457)">
<path fill-rule="evenodd" clip-rule="evenodd" d="M10 19.1666C15.0626 19.1666 19.1667 15.0625 19.1667 9.99992C19.1667 4.93731 15.0626 0.833252 10 0.833252C4.93739 0.833252 0.833334 4.93731 0.833334 9.99992C0.833334 15.0625 4.93739 19.1666 10 19.1666ZM10.8333 5.83325C10.8333 5.37301 10.4602 4.99992 10 4.99992C9.53976 4.99992 9.16667 5.37301 9.16667 5.83325V9.16659H5.83333C5.3731 9.16659 5 9.53968 5 9.99992C5 10.4602 5.3731 10.8333 5.83333 10.8333H9.16667V14.1666C9.16667 14.6268 9.53976 14.9999 10 14.9999C10.4602 14.9999 10.8333 14.6268 10.8333 14.1666V10.8333H14.1667C14.6269 10.8333 15 10.4602 15 9.99992C15 9.53968 14.6269 9.16659 14.1667 9.16659H10.8333V5.83325Z" fill="#18202A"/>
</g>
<defs>
<clipPath id="clip0_2266_36457">
<rect width="20" height="20" fill="white"/>
</clipPath>
</defs>
</svg>
