<svg width="20" height="20" viewBox="0 0 20 20" fill="none" xmlns="http://www.w3.org/2000/svg">
<g clip-path="url(#clip0_2266_36541)">
<path fill-rule="evenodd" clip-rule="evenodd" d="M0.833334 5.90596C0.833334 3.10452 3.10435 0.833496 5.9058 0.833496H14.0942C16.8956 0.833496 19.1667 3.10452 19.1667 5.90596V10.4712C19.1667 10.5925 19.1642 10.7133 19.1593 10.8335H13.7319C12.1048 10.8335 10.7209 11.8748 10.2103 13.3273C10.1405 13.3314 10.0704 13.3335 10 13.3335C9.45457 13.3335 8.92292 13.2085 8.45778 12.9759C7.99288 12.7435 7.61637 12.4148 7.3558 12.0316C7.09702 11.651 6.5787 11.5522 6.19811 11.811C5.81752 12.0698 5.71877 12.5881 5.97755 12.9687C6.40832 13.6022 7.00912 14.115 7.71243 14.4666C8.41551 14.8182 9.20323 15.0001 10 15.0001V19.1668H5.9058C3.10435 19.1668 0.833334 16.8958 0.833334 14.0944V5.90596ZM7.5 7.50016C7.5 8.42064 6.94036 9.16683 6.25 9.16683C5.55964 9.16683 5 8.42064 5 7.50016C5 6.57969 5.55964 5.8335 6.25 5.8335C6.94036 5.8335 7.5 6.57969 7.5 7.50016ZM13.75 9.16683C14.4404 9.16683 15 8.42064 15 7.50016C15 6.57969 14.4404 5.8335 13.75 5.8335C13.0596 5.8335 12.5 6.57969 12.5 7.50016C12.5 8.42064 13.0596 9.16683 13.75 9.16683Z" fill="#18202A"/>
<path d="M13.7319 12.5002H18.9287C18.1051 15.946 15.2302 18.5953 11.6667 19.0853V14.5654C11.6667 13.4248 12.5913 12.5002 13.7319 12.5002Z" fill="#18202A"/>
</g>
<defs>
<clipPath id="clip0_2266_36541">
<rect width="20" height="20" fill="white"/>
</clipPath>
</defs>
</svg>
