<svg width="20" height="20" viewBox="0 0 20 20" fill="none" xmlns="http://www.w3.org/2000/svg">
<g clip-path="url(#clip0_3875_8922)">
<g clip-path="url(#clip1_3875_8922)">
<path fill-rule="evenodd" clip-rule="evenodd" d="M9.16669 0.833008C7.78598 0.833008 6.66669 1.9523 6.66669 3.33301V4.16634H2.29169C1.94651 4.16634 1.66669 4.44616 1.66669 4.79134C1.66669 5.13652 1.94651 5.41634 2.29169 5.41634H3.33335V14.1663C3.33335 16.9278 5.57193 19.1663 8.33335 19.1663H11.5635C11.2669 18.787 11.0198 18.3671 10.8318 17.9163H8.33335C6.26229 17.9163 4.58335 16.2374 4.58335 14.1663V5.41634H15.4167V10.4321C15.5542 10.4217 15.6932 10.4163 15.8334 10.4163C16.1167 10.4163 16.395 10.4381 16.6667 10.48V5.41634H17.7084C18.0535 5.41634 18.3334 5.13652 18.3334 4.79134C18.3334 4.44616 18.0535 4.16634 17.7084 4.16634H13.3334V3.33301C13.3334 1.9523 12.2141 0.833008 10.8334 0.833008H9.16669ZM12.0834 3.33301C12.0834 2.64265 11.5237 2.08301 10.8334 2.08301H9.16669C8.47633 2.08301 7.91669 2.64265 7.91669 3.33301V4.16634H12.0834V3.33301Z" fill="#18202A"/>
<path d="M11.0417 13.3048C11.3582 12.7061 11.7837 12.1739 12.2917 11.7345V9.16634C12.2917 8.82116 12.0119 8.54134 11.6667 8.54134C11.3215 8.54134 11.0417 8.82116 11.0417 9.16634V13.3048Z" fill="#18202A"/>
<path d="M8.33335 8.54134C8.67853 8.54134 8.95835 8.82116 8.95835 9.16634V14.1663C8.95835 14.5115 8.67853 14.7913 8.33335 14.7913C7.98818 14.7913 7.70835 14.5115 7.70835 14.1663V9.16634C7.70835 8.82116 7.98818 8.54134 8.33335 8.54134Z" fill="#18202A"/>
<path fill-rule="evenodd" clip-rule="evenodd" d="M15.8334 19.9997C18.1345 19.9997 20 18.1342 20 15.833C20 13.5318 18.1345 11.6663 15.8334 11.6663C13.5322 11.6663 11.6667 13.5318 11.6667 15.833C11.6667 18.1342 13.5322 19.9997 15.8334 19.9997ZM16.4584 13.7497C16.4584 13.4045 16.1785 13.1247 15.8334 13.1247C15.4882 13.1247 15.2084 13.4045 15.2084 13.7497V15.833C15.2084 15.9988 15.2742 16.1577 15.3914 16.275L16.6414 17.525C16.8855 17.769 17.2812 17.769 17.5253 17.525C17.7694 17.2809 17.7694 16.8851 17.5253 16.6411L16.4584 15.5741V13.7497Z" fill="#18202A"/>
</g>
</g>
<defs>
<clipPath id="clip0_3875_8922">
<rect width="20" height="20" fill="white"/>
</clipPath>
<clipPath id="clip1_3875_8922">
<rect width="20" height="20" fill="white"/>
</clipPath>
</defs>
</svg>
