<svg width="20" height="20" viewBox="0 0 20 20" fill="none" xmlns="http://www.w3.org/2000/svg">
<path d="M7.08329 1.6665C7.54353 1.6665 7.91663 2.0396 7.91663 2.49984C7.91663 2.96007 7.54353 3.33317 7.08329 3.33317H4.16663C3.70639 3.33317 3.33329 3.70627 3.33329 4.1665V7.08317C3.33329 7.54341 2.9602 7.9165 2.49996 7.9165C2.03972 7.9165 1.66663 7.54341 1.66663 7.08317V4.1665C1.66663 2.78579 2.78591 1.6665 4.16663 1.6665H7.08329Z" fill="#18202A"/>
<path d="M12.0833 2.49984C12.0833 2.96007 12.4564 3.33317 12.9166 3.33317H15.8333C16.2935 3.33317 16.6666 3.70627 16.6666 4.1665V7.08317C16.6666 7.54341 17.0397 7.9165 17.5 7.9165C17.9602 7.9165 18.3333 7.54341 18.3333 7.08317V4.1665C18.3333 2.78579 17.214 1.6665 15.8333 1.6665H12.9166C12.4564 1.6665 12.0833 2.0396 12.0833 2.49984Z" fill="#18202A"/>
<path d="M12.0833 17.4998C12.0833 17.0396 12.4564 16.6665 12.9166 16.6665H15.8333C16.2935 16.6665 16.6666 16.2934 16.6666 15.8332V12.9165C16.6666 12.4563 17.0397 12.0832 17.5 12.0832C17.9602 12.0832 18.3333 12.4563 18.3333 12.9165V15.8332C18.3333 17.2139 17.214 18.3332 15.8333 18.3332H12.9166C12.4564 18.3332 12.0833 17.9601 12.0833 17.4998Z" fill="#18202A"/>
<path d="M3.33329 12.9165C3.33329 12.4563 2.9602 12.0832 2.49996 12.0832C2.03972 12.0832 1.66663 12.4563 1.66663 12.9165V15.8332C1.66663 17.2139 2.78591 18.3332 4.16663 18.3332H7.08329C7.54353 18.3332 7.91663 17.9601 7.91663 17.4998C7.91663 17.0396 7.54353 16.6665 7.08329 16.6665H4.16663C3.70639 16.6665 3.33329 16.2934 3.33329 15.8332V12.9165Z" fill="#18202A"/>
</svg>
