<svg width="20" height="20" viewBox="0 0 20 20" fill="none" xmlns="http://www.w3.org/2000/svg">
<g clip-path="url(#clip0_2266_38782)">
<path fill-rule="evenodd" clip-rule="evenodd" d="M8.66336 1.56198C8.60977 1.22099 8.84273 0.898905 9.18658 0.868644C9.4547 0.845047 9.72602 0.833008 10 0.833008C15.0626 0.833008 19.1667 4.93706 19.1667 9.99967C19.1667 10.2737 19.1546 10.545 19.131 10.8131C19.1008 11.157 18.7787 11.3899 18.4377 11.3363C18.0967 11.2827 17.8663 10.9628 17.8929 10.6187C17.9086 10.4145 17.9167 10.2081 17.9167 9.99967C17.9167 5.62742 14.3723 2.08301 10 2.08301C9.7916 2.08301 9.58516 2.09105 9.38099 2.10682C9.03684 2.13341 8.71694 1.90297 8.66336 1.56198ZM4.62445 3.36128C4.40706 3.09316 4.44704 2.69765 4.72931 2.49897C5.17173 2.18754 5.64307 1.9142 6.13856 1.68376C6.45155 1.53819 6.8142 1.70103 6.93798 2.02325C7.06175 2.34547 6.89955 2.70478 6.58817 2.85374C6.21456 3.03247 5.85707 3.23969 5.51851 3.47262C5.23414 3.66828 4.84184 3.62941 4.62445 3.36128ZM2.02359 6.93764C1.70136 6.81386 1.53853 6.45121 1.68409 6.13822C1.91453 5.64274 2.18788 5.1714 2.4993 4.72897C2.69799 4.44671 3.0935 4.40673 3.36162 4.62411C3.62974 4.8415 3.66861 5.2338 3.47296 5.51817C3.24002 5.85673 3.0328 6.21423 2.85408 6.58783C2.70512 6.89921 2.34581 7.06141 2.02359 6.93764ZM0.833344 9.99967C0.833344 9.72568 0.845382 9.45436 0.86898 9.18624C0.899241 8.84239 1.22132 8.60943 1.56232 8.66302C1.90331 8.71661 2.13375 9.0365 2.10716 9.38066C2.09138 9.58483 2.08334 9.79126 2.08334 9.99967C2.08334 10.2081 2.09138 10.4145 2.10716 10.6187C2.13375 10.9628 1.90331 11.2827 1.56232 11.3363C1.22132 11.3899 0.899241 11.157 0.868979 10.8131C0.845382 10.545 0.833344 10.2737 0.833344 9.99967ZM3.36162 15.3752C3.0935 15.5926 2.69799 15.5526 2.4993 15.2704C2.18788 14.828 1.91453 14.3566 1.68409 13.8611C1.53853 13.5481 1.70136 13.1855 2.02358 13.0617C2.34581 12.9379 2.70512 13.1001 2.85408 13.4115C3.0328 13.7851 3.24002 14.1426 3.47296 14.4812C3.66861 14.7655 3.62974 15.1578 3.36162 15.3752ZM17.9764 13.0617C18.2987 13.1855 18.4615 13.5481 18.3159 13.8611C18.0855 14.3566 17.8121 14.828 17.5007 15.2704C17.302 15.5526 16.9065 15.5926 16.6384 15.3752C16.3703 15.1578 16.3314 14.7656 16.5271 14.4812C16.76 14.1426 16.9672 13.7851 17.1459 13.4115C17.2949 13.1001 17.6542 12.9379 17.9764 13.0617ZM6.93797 17.9761C6.8142 18.2983 6.45154 18.4612 6.13856 18.3156C5.64307 18.0852 5.17173 17.8118 4.72931 17.5004C4.44704 17.3017 4.40706 16.9062 4.62445 16.6381C4.84184 16.3699 5.23414 16.3311 5.51851 16.5267C5.85707 16.7597 6.21456 16.9669 6.58817 17.1456C6.89955 17.2946 7.06175 17.6539 6.93797 17.9761ZM15.3756 16.6381C15.593 16.9062 15.553 17.3017 15.2707 17.5004C14.8283 17.8118 14.3569 18.0852 13.8615 18.3156C13.5485 18.4612 13.1858 18.2983 13.062 17.9761C12.9383 17.6539 13.1005 17.2946 13.4119 17.1456C13.7855 16.9669 14.143 16.7597 14.4815 16.5267C14.7659 16.3311 15.1582 16.3699 15.3756 16.6381ZM10 19.1663C9.72602 19.1663 9.4547 19.1543 9.18658 19.1307C8.84273 19.1004 8.60977 18.7784 8.66335 18.4374C8.71694 18.0964 9.03684 17.8659 9.38099 17.8925C9.58516 17.9083 9.79159 17.9163 10 17.9163C10.2084 17.9163 10.4149 17.9083 10.619 17.8925C10.9632 17.8659 11.2831 18.0964 11.3367 18.4374C11.3903 18.7784 11.1573 19.1004 10.8134 19.1307C10.5453 19.1543 10.274 19.1663 10 19.1663ZM16.6667 9.99967C16.6667 13.6816 13.6819 16.6663 10 16.6663C6.31811 16.6663 3.33334 13.6816 3.33334 9.99967C3.33334 6.31778 6.31811 3.33301 10 3.33301C13.6819 3.33301 16.6667 6.31778 16.6667 9.99967ZM9.16668 7.08301C9.16668 7.77336 8.60703 8.33301 7.91668 8.33301C7.22632 8.33301 6.66668 7.77336 6.66668 7.08301C6.66668 6.39265 7.22632 5.83301 7.91668 5.83301C8.60703 5.83301 9.16668 6.39265 9.16668 7.08301ZM10 15.4163C12.7461 15.4163 15.0149 13.3729 15.3687 10.7236L12.5 8.33301L9.58334 11.6663L7.5 10.4163L5.17037 12.4548C6.06565 14.2124 7.89224 15.4163 10 15.4163Z" fill="#18202A"/>
</g>
<defs>
<clipPath id="clip0_2266_38782">
<rect width="20" height="20" fill="white"/>
</clipPath>
</defs>
</svg>
