<svg width="20" height="20" viewBox="0 0 20 20" fill="none" xmlns="http://www.w3.org/2000/svg">
<g clip-path="url(#clip0_2266_36958)">
<path d="M15.8333 4.99967C18.1345 4.99967 20 6.86515 20 9.16634C20 11.4675 18.1345 13.333 15.8333 13.333H11.6667V8.33301C11.6667 7.41253 10.9205 6.66634 10 6.66634C9.07953 6.66634 8.33333 7.41253 8.33333 8.33301V13.333H4.16667C1.86548 13.333 0 11.4675 0 9.16634C0 6.86515 1.86548 4.99967 4.16667 4.99967C4.24707 4.99967 4.32694 5.00195 4.40622 5.00645C5.12118 2.59339 7.35501 0.833008 10 0.833008C12.645 0.833008 14.8788 2.59339 15.5938 5.00645C15.6731 5.00195 15.7529 4.99967 15.8333 4.99967Z" fill="#18202A"/>
<path fill-rule="evenodd" clip-rule="evenodd" d="M10 7.49967C10.4602 7.49967 10.8333 7.87277 10.8333 8.33301V16.3212L11.9107 15.2438C12.2362 14.9183 12.7638 14.9183 13.0893 15.2438C13.4147 15.5692 13.4147 16.0968 13.0893 16.4223L10.5893 18.9223C10.433 19.0785 10.221 19.1663 10 19.1663C9.77899 19.1663 9.56702 19.0785 9.41074 18.9223L6.91074 16.4223C6.58531 16.0968 6.58531 15.5692 6.91074 15.2438C7.23618 14.9183 7.76382 14.9183 8.08926 15.2438L9.16667 16.3212V8.33301C9.16667 7.87277 9.53976 7.49967 10 7.49967Z" fill="#18202A"/>
</g>
<defs>
<clipPath id="clip0_2266_36958">
<rect width="20" height="20" fill="white"/>
</clipPath>
</defs>
</svg>
