<svg width="20" height="20" viewBox="0 0 20 20" fill="none" xmlns="http://www.w3.org/2000/svg">
<g clip-path="url(#clip0_2266_36826)">
<path d="M9.16667 5.00016C9.16667 4.53993 9.53976 4.16683 10 4.16683C10.4602 4.16683 10.8333 4.53993 10.8333 5.00016V10.0002C10.8333 10.4604 10.4602 10.8335 10 10.8335C9.53976 10.8335 9.16667 10.4604 9.16667 10.0002V5.00016Z" fill="#18202A"/>
<path d="M14.1667 9.16683C14.6269 9.16683 15 9.53993 15 10.0002C15 10.4604 14.6269 10.8335 14.1667 10.8335H10C9.53976 10.8335 9.16667 10.4604 9.16667 10.0002C9.16667 9.53993 9.53976 9.16683 10 9.16683H14.1667Z" fill="#18202A"/>
<path fill-rule="evenodd" clip-rule="evenodd" d="M10 2.50016C7.20016 2.50016 4.7575 4.03397 3.4683 6.31116L2.01793 5.49005C3.59089 2.71164 6.57558 0.833496 10 0.833496C15.0626 0.833496 19.1667 4.93755 19.1667 10.0002C19.1667 15.0628 15.0626 19.1668 10 19.1668C4.93739 19.1668 0.833334 15.0628 0.833334 10.0002C0.833334 9.59531 0.85963 9.19626 0.910674 8.8047C0.970167 8.34833 1.4199 8.06613 1.86896 8.16694C2.31802 8.26775 2.59548 8.71357 2.54524 9.17106C2.51536 9.44309 2.5 9.71971 2.5 10.0002C2.5 14.1423 5.85787 17.5002 10 17.5002C14.1421 17.5002 17.5 14.1423 17.5 10.0002C17.5 5.85803 14.1421 2.50016 10 2.50016Z" fill="#18202A"/>
<path fill-rule="evenodd" clip-rule="evenodd" d="M2.04213 2.2579C2.49538 2.17798 2.92759 2.48062 3.00751 2.93387L3.37442 5.01471L5.45527 4.6478C5.90851 4.56788 6.34073 4.87052 6.42065 5.32377C6.50057 5.77701 6.19793 6.20923 5.74468 6.28915L2.84316 6.80076C2.38992 6.88068 1.9577 6.57804 1.87778 6.1248L1.36617 3.22328C1.28625 2.77003 1.58889 2.33782 2.04213 2.2579Z" fill="#18202A"/>
</g>
<defs>
<clipPath id="clip0_2266_36826">
<rect width="20" height="20" fill="white"/>
</clipPath>
</defs>
</svg>
