<svg width="20" height="20" viewBox="0 0 20 20" fill="none" xmlns="http://www.w3.org/2000/svg">
<path d="M11.6667 11.6663C11.6667 12.2832 11.3315 12.8219 10.8333 13.11V14.9997C10.8333 15.4599 10.4602 15.833 9.99999 15.833C9.53975 15.833 9.16666 15.4599 9.16666 14.9997V13.11C8.66849 12.8219 8.33332 12.2832 8.33332 11.6663C8.33332 10.7459 9.07951 9.99967 9.99999 9.99967C10.9205 9.99967 11.6667 10.7459 11.6667 11.6663Z" fill="#18202A"/>
<path fill-rule="evenodd" clip-rule="evenodd" d="M18.3333 9.99967C18.3333 8.15873 16.8409 6.66634 15 6.66634V5.83301C15 3.07158 12.7614 0.833008 9.99999 0.833008C7.23857 0.833008 4.99999 3.07158 4.99999 5.83301V6.66634C3.15904 6.66634 1.66666 8.15873 1.66666 9.99967V15.833C1.66666 17.674 3.15904 19.1663 4.99999 19.1663H15C16.8409 19.1663 18.3333 17.674 18.3333 15.833V9.99967ZM9.99999 2.08301C12.0711 2.08301 13.75 3.76194 13.75 5.83301V6.66634H6.24999V5.83301C6.24999 3.76194 7.92892 2.08301 9.99999 2.08301ZM2.91666 9.99967C2.91666 8.84908 3.8494 7.91634 4.99999 7.91634H15C16.1506 7.91634 17.0833 8.84908 17.0833 9.99967V15.833C17.0833 16.9836 16.1506 17.9163 15 17.9163H4.99999C3.8494 17.9163 2.91666 16.9836 2.91666 15.833V9.99967Z" fill="#18202A"/>
</svg>
