<svg width="20" height="20" viewBox="0 0 20 20" fill="none" xmlns="http://www.w3.org/2000/svg">
<g clip-path="url(#clip0_2266_35337)">
<path fill-rule="evenodd" clip-rule="evenodd" d="M2.50002 7.27699C2.00185 6.98881 1.66669 6.45019 1.66669 5.83329V3.33329C1.66669 2.41282 2.41288 1.66663 3.33335 1.66663H16.6667C17.5872 1.66663 18.3334 2.41282 18.3334 3.33329V5.83329C18.3334 6.45019 17.9982 6.98881 17.5 7.27699V10.6779C17.1016 10.5492 16.6829 10.4653 16.25 10.4324V7.49996H3.75002V15.8333C3.75002 16.9839 4.68276 17.9166 5.83335 17.9166H10.8318C11.0198 18.3674 11.2669 18.7873 11.5635 19.1666H5.83335C3.9924 19.1666 2.50002 17.6742 2.50002 15.8333V7.27699ZM2.91669 3.33329C2.91669 3.10317 3.10323 2.91663 3.33335 2.91663H16.6667C16.8968 2.91663 17.0834 3.10317 17.0834 3.33329V5.83329C17.0834 6.06341 16.8968 6.24996 16.6667 6.24996H3.33335C3.10323 6.24996 2.91669 6.06341 2.91669 5.83329V3.33329ZM6.66669 9.79163C6.66669 9.44645 6.94651 9.16663 7.29169 9.16663H12.7084C13.0535 9.16663 13.3334 9.44645 13.3334 9.79163C13.3334 10.1368 13.0535 10.4166 12.7084 10.4166H7.29169C6.94651 10.4166 6.66669 10.1368 6.66669 9.79163ZM20 15.8333C20 18.1345 18.1345 20 15.8334 20C13.5322 20 11.6667 18.1345 11.6667 15.8333C11.6667 13.5321 13.5322 11.6666 15.8334 11.6666C18.1345 11.6666 20 13.5321 20 15.8333ZM17.8957 13.7709C18.1398 14.015 18.1398 14.4107 17.8957 14.6548L16.7172 15.8333L17.8957 17.0118C18.1398 17.2559 18.1398 17.6516 17.8957 17.8957C17.6517 18.1397 17.2559 18.1397 17.0119 17.8957L15.8334 16.7172L14.6548 17.8957C14.4108 18.1397 14.015 18.1397 13.771 17.8957C13.5269 17.6516 13.5269 17.2559 13.771 17.0118L14.9495 15.8333L13.771 14.6548C13.5269 14.4107 13.5269 14.015 13.771 13.7709C14.015 13.5268 14.4108 13.5268 14.6548 13.7709L15.8334 14.9494L17.0119 13.7709C17.2559 13.5268 17.6517 13.5268 17.8957 13.7709Z" fill="#18202A"/>
</g>
<defs>
<clipPath id="clip0_2266_35337">
<rect width="20" height="20" fill="white"/>
</clipPath>
</defs>
</svg>
