<svg width="20" height="20" viewBox="0 0 20 20" fill="none" xmlns="http://www.w3.org/2000/svg">
<path d="M5.83333 5.83268C5.83333 5.37244 6.20643 4.99935 6.66667 4.99935C7.1269 4.99935 7.5 5.37244 7.5 5.83268C7.5 6.29292 7.1269 6.66602 6.66667 6.66602C6.20643 6.66602 5.83333 6.29292 5.83333 5.83268Z" fill="#18202A"/>
<path d="M6.66667 7.49935C6.20643 7.49935 5.83333 7.87245 5.83333 8.33268C5.83333 8.79292 6.20643 9.16602 6.66667 9.16602C7.1269 9.16602 7.5 8.79292 7.5 8.33268C7.5 7.87245 7.1269 7.49935 6.66667 7.49935Z" fill="#18202A"/>
<path d="M9.16667 5.83268C9.16667 5.37244 9.53976 4.99935 10 4.99935C10.4602 4.99935 10.8333 5.37244 10.8333 5.83268C10.8333 6.29292 10.4602 6.66602 10 6.66602C9.53976 6.66602 9.16667 6.29292 9.16667 5.83268Z" fill="#18202A"/>
<path d="M10 7.49935C9.53976 7.49935 9.16667 7.87245 9.16667 8.33268C9.16667 8.79292 9.53976 9.16602 10 9.16602C10.4602 9.16602 10.8333 8.79292 10.8333 8.33268C10.8333 7.87245 10.4602 7.49935 10 7.49935Z" fill="#18202A"/>
<path d="M12.5 5.83268C12.5 5.37244 12.8731 4.99935 13.3333 4.99935C13.7936 4.99935 14.1667 5.37244 14.1667 5.83268C14.1667 6.29292 13.7936 6.66602 13.3333 6.66602C12.8731 6.66602 12.5 6.29292 12.5 5.83268Z" fill="#18202A"/>
<path d="M13.3333 7.49935C12.8731 7.49935 12.5 7.87245 12.5 8.33268C12.5 8.79292 12.8731 9.16602 13.3333 9.16602C13.7936 9.16602 14.1667 8.79292 14.1667 8.33268C14.1667 7.87245 13.7936 7.49935 13.3333 7.49935Z" fill="#18202A"/>
<path fill-rule="evenodd" clip-rule="evenodd" d="M5.625 1.66602C3.89911 1.66602 2.5 3.06513 2.5 4.79102V15.208C2.5 16.9339 3.89911 18.333 5.625 18.333H14.375C16.1009 18.333 17.5 16.9339 17.5 15.208V4.79101C17.5 3.06512 16.1009 1.66602 14.375 1.66602H5.625ZM3.75 4.79102C3.75 3.75548 4.58947 2.91602 5.625 2.91602H14.375C15.4105 2.91602 16.25 3.75548 16.25 4.79101V15.208C16.25 16.2436 15.4105 17.083 14.375 17.083H12.7083V12.291C12.7083 11.4856 12.0554 10.8327 11.25 10.8327H8.75C7.94458 10.8327 7.29167 11.4856 7.29167 12.291V17.083H5.625C4.58947 17.083 3.75 16.2436 3.75 15.208V4.79102ZM11.4583 17.083V12.291C11.4583 12.176 11.3651 12.0827 11.25 12.0827H8.75C8.63494 12.0827 8.54167 12.176 8.54167 12.291V17.083H11.4583Z" fill="#18202A"/>
</svg>
