<svg width="20" height="20" viewBox="0 0 20 20" fill="none" xmlns="http://www.w3.org/2000/svg">
<g clip-path="url(#clip0_2266_36922)">
<path d="M17.6694 13.7639L17.5519 13.8757C17.2284 14.1603 16.8259 14.3345 16.3983 14.3743C15.9173 14.4189 15.4361 14.2904 15.0415 14.0118C14.8928 13.897 14.7277 13.7813 14.5649 13.6788C14.2369 13.4721 13.8955 13.2873 13.5428 13.1257C13.2731 12.9999 13.0576 12.7768 12.94 12.5004C12.8225 12.2241 12.8113 11.9141 12.9087 11.63L13.003 11.1766L13.0764 10.8097L12.7165 10.7071L12.3758 10.6162C11.5775 10.4179 10.7578 10.316 9.93428 10.313C8.9903 10.3165 8.05419 10.4491 7.14909 10.7071L6.73786 10.8243L7.0086 11.613L7.04365 11.7361C7.1005 11.9847 7.0779 12.2463 6.97717 12.4832C6.85961 12.7596 6.64406 12.9827 6.37196 13.1096C6.02163 13.2675 5.67856 13.4532 5.35011 13.663L5.1505 13.7858L5.00508 13.8838C4.93956 13.9317 4.88199 13.98 4.8286 14.0334C4.49828 14.2555 4.03174 14.3817 3.56379 14.3442C3.09566 14.3067 2.65506 14.1079 2.31727 13.7818L0.601806 12.0663L0.484438 11.9397C0.335519 11.7649 0.217526 11.5667 0.135137 11.3525C0.0321792 11.0847 -0.0128193 10.7981 0.00314073 10.5117C0.0318198 10.0149 0.242789 9.54531 0.595703 9.19344L0.814061 8.97508L1.09424 8.76227C3.63763 6.87819 6.76329 5.83936 9.97926 5.83352C13.3143 5.82748 16.5563 6.93268 19.1932 8.97458C19.4288 9.15309 19.6204 9.37695 19.7583 9.63352C19.8963 9.89009 19.9773 10.1734 19.9959 10.4641C20.0145 10.7548 19.9702 11.0461 19.8661 11.3181C19.762 11.5902 19.6005 11.8366 19.3926 12.0407L17.6694 13.7639Z" fill="#18202A"/>
</g>
<defs>
<clipPath id="clip0_2266_36922">
<rect width="20" height="20" fill="white"/>
</clipPath>
</defs>
</svg>
