<svg width="20" height="20" viewBox="0 0 20 20" fill="none" xmlns="http://www.w3.org/2000/svg">
<path fill-rule="evenodd" clip-rule="evenodd" d="M16.7402 14.1558C15.9328 14.4333 15.0668 14.5839 14.1667 14.5839C9.79442 14.5839 6.25001 11.0395 6.25001 6.66722C6.25001 5.14319 6.68145 3.71879 7.42784 2.51084C4.31857 3.57838 2.08334 6.52898 2.08334 10.0006C2.08334 14.3728 5.62776 17.9172 10 17.9172C12.8471 17.9172 15.3451 16.4137 16.7402 14.1558ZM17.5411 12.418C16.5513 13.0001 15.398 13.3339 14.1667 13.3339C10.4848 13.3339 7.50001 10.3491 7.50001 6.66722C7.50001 4.82056 8.25084 3.14926 9.46387 1.94196C9.83542 1.57217 9.62252 0.852141 9.09893 0.877611C4.45925 1.3303 0.833344 5.24199 0.833344 10.0006C0.833344 15.0632 4.9374 19.1672 10 19.1672C13.9212 19.1672 17.2674 16.7051 18.5769 13.2425C18.5771 13.2421 18.5772 13.2417 18.5774 13.2412C18.5824 13.2279 18.5875 13.2145 18.5924 13.2011C18.6541 13.0356 18.7111 12.8678 18.7634 12.698C18.9068 12.2315 18.3089 11.9139 17.905 12.1879C17.8203 12.2454 17.7341 12.301 17.6467 12.3546C17.614 12.3746 17.5812 12.3944 17.5482 12.4138C17.5459 12.4152 17.5435 12.4166 17.5411 12.418Z" fill="#18202A"/>
</svg>
