<svg width="20" height="20" viewBox="0 0 20 20" fill="none" xmlns="http://www.w3.org/2000/svg">
<path fill-rule="evenodd" clip-rule="evenodd" d="M10 14.4107C9.67458 14.7361 9.67458 15.2637 10 15.5892C10.3255 15.9146 10.8531 15.9146 11.1785 15.5892L16.1785 10.5892C16.504 10.2637 16.504 9.7361 16.1785 9.41066L11.1785 4.41066C10.8531 4.08522 10.3255 4.08522 10 4.41066C9.67458 4.7361 9.67458 5.26374 10 5.58917L14.4108 9.99992L10 14.4107ZM3.82151 14.4107C3.49607 14.7361 3.49607 15.2637 3.82151 15.5892C4.14694 15.9146 4.67458 15.9146 5.00002 15.5892L10 10.5892C10.3255 10.2637 10.3255 9.7361 10 9.41066L5.00002 4.41066C4.67458 4.08522 4.14695 4.08522 3.82151 4.41066C3.49607 4.7361 3.49607 5.26374 3.82151 5.58917L8.23225 9.99992L3.82151 14.4107Z" fill="#18202A"/>
</svg>
