<svg width="20" height="20" viewBox="0 0 20 20" fill="none" xmlns="http://www.w3.org/2000/svg">
<g clip-path="url(#clip0_2266_39574)">
<path d="M10 0.833496C15.0626 0.833496 19.1667 4.93755 19.1667 10.0002C19.1667 15.0628 15.0626 19.1668 10 19.1668C4.9374 19.1668 0.833344 15.0628 0.833344 10.0002C0.833344 4.93755 4.9374 0.833496 10 0.833496ZM12.4101 4.92192C11.753 5.29068 11.5702 5.6865 11.692 5.80822C12.411 6.52727 12.9052 7.70309 12.9677 8.76554C13.0438 10.0602 12.4549 11.0418 11.25 11.0418C10.3392 11.0418 10.1865 11.4999 10.5929 12.7192C10.8612 13.5241 10.3923 14.2093 9.57704 14.2651C8.95139 14.308 8.21504 13.9822 7.56106 13.3748C7.27364 13.1078 7.13983 12.8078 6.95067 12.1964L6.83597 11.8281C6.67516 11.3337 6.52704 11.0734 6.32256 10.9386C5.11702 10.1435 4.40186 10.3709 3.54721 11.411L3.08913 12.0035L3.03798 12.0713L2.96011 12.1709C2.82235 12.3431 2.71009 12.4649 2.59071 12.5615L2.52407 12.6113C3.60298 15.7006 6.54268 17.9168 10 17.9168C10.1703 17.9168 10.3394 17.9115 10.507 17.9009L10.5054 17.9319C10.5054 17.3659 11.1941 15.8542 12.022 14.9085C13.2853 13.4656 14.9297 12.995 16.7839 13.9381L16.8493 13.9727C17.528 12.8051 17.9167 11.448 17.9167 10.0002C17.9167 8.03381 17.1998 6.23489 16.0131 4.85052L16.0859 4.87791C14.6886 4.31894 13.3526 4.39294 12.4101 4.92192ZM12.9625 15.7319C12.4387 16.3303 11.9683 17.26 11.811 17.7089C13.537 17.3045 15.0446 16.3367 16.13 15.0102C14.8668 14.4031 13.8517 14.7163 12.9625 15.7319ZM10 2.0835C5.62776 2.0835 2.08334 5.62791 2.08334 10.0002C2.08334 10.3922 2.11183 10.7775 2.16686 11.1542L2.58145 10.6174C3.8002 9.13426 5.18796 8.69292 7.01076 9.89508C7.47285 10.1998 7.73684 10.6215 7.96362 11.2614L8.0646 11.5668L8.14481 11.8269C8.26682 12.2213 8.34526 12.3972 8.41172 12.4589C8.74851 12.7717 9.08305 12.9525 9.32699 13.0038L9.37334 13.011L9.35536 12.9523C8.81642 11.1826 9.27289 9.8709 11.0818 9.79528L11.25 9.79183C11.5868 9.79183 11.759 9.50487 11.7198 8.83895C11.6782 8.13108 11.3579 7.32213 10.9199 6.81293L10.8081 6.6921C9.93729 5.82133 10.5264 4.54569 11.7983 3.83187C12.4694 3.45522 13.2664 3.25011 14.125 3.24172C12.9235 2.50692 11.5112 2.0835 10 2.0835Z" fill="#18202A"/>
</g>
<defs>
<clipPath id="clip0_2266_39574">
<rect width="20" height="20" fill="white"/>
</clipPath>
</defs>
</svg>
