<svg width="20" height="20" viewBox="0 0 20 20" fill="none" xmlns="http://www.w3.org/2000/svg">
<path fill-rule="evenodd" clip-rule="evenodd" d="M0.833334 4.16683C0.833334 2.32588 2.32572 0.833496 4.16667 0.833496H15.8333C17.6743 0.833496 19.1667 2.32588 19.1667 4.16683V11.6668C19.1667 13.5078 17.6743 15.0002 15.8333 15.0002H10.7576L5.37962 18.1979C4.75617 18.5686 3.98958 18.021 4.13803 17.311L4.62121 15.0002H4.16667C2.32572 15.0002 0.833334 13.5078 0.833334 11.6668V4.16683ZM8.67851 5.00016C8.48788 5.00016 8.33333 5.1547 8.33333 5.34534C8.33333 5.43689 8.3697 5.52468 8.43443 5.58942L8.50592 5.66091C8.83136 5.98634 8.83136 6.51398 8.50592 6.83942C8.18049 7.16486 7.65285 7.16486 7.32741 6.83942L7.25592 6.76793C6.87863 6.39064 6.66667 5.87892 6.66667 5.34534C6.66667 4.23423 7.5674 3.3335 8.67851 3.3335H11.0472C12.3098 3.3335 13.3333 4.35705 13.3333 5.61968C13.3333 6.60372 12.7037 7.47736 11.7701 7.78854L11.5135 7.87406C11.1073 8.00947 10.8333 8.3896 10.8333 8.81778V9.16683C10.8333 9.62707 10.4602 10.0002 10 10.0002C9.53976 10.0002 9.16667 9.62707 9.16667 9.16683V8.81778C9.16667 7.67222 9.8997 6.65518 10.9865 6.29293L11.2431 6.2074C11.496 6.12307 11.6667 5.88633 11.6667 5.61968C11.6667 5.27753 11.3893 5.00016 11.0472 5.00016H8.67851ZM10 10.8335C9.53976 10.8335 9.16667 11.2066 9.16667 11.6668C9.16667 12.1271 9.53976 12.5002 10 12.5002C10.4602 12.5002 10.8333 12.1271 10.8333 11.6668C10.8333 11.2066 10.4602 10.8335 10 10.8335Z" fill="#18202A"/>
</svg>
