<svg width="20" height="20" viewBox="0 0 20 20" fill="none" xmlns="http://www.w3.org/2000/svg">
<g clip-path="url(#clip0_2266_34739)">
<path fill-rule="evenodd" clip-rule="evenodd" d="M5.83337 0.833344C5.37314 0.833344 5.00004 1.20644 5.00004 1.66668V2.50001H4.16671C2.32576 2.50001 0.833374 3.99239 0.833374 5.83334V15.8333C0.833374 17.6743 2.32576 19.1667 4.16671 19.1667H10.2122C9.43442 18.1964 8.92233 17.0039 8.78631 15.6996C8.65592 15.7842 8.50038 15.8333 8.33337 15.8333C7.87314 15.8333 7.50004 15.4602 7.50004 15C7.50004 14.5398 7.87314 14.1667 8.33337 14.1667C8.50038 14.1667 8.65592 14.2158 8.78631 14.3004C9.01706 12.0877 10.3301 10.1969 12.1867 9.16668H5.00004C4.5398 9.16668 4.16671 8.79358 4.16671 8.33334C4.16671 7.87311 4.5398 7.50001 5.00004 7.50001H15C15.4603 7.50001 15.8334 7.87311 15.8334 8.33334L15.8333 8.34615C17.0648 8.42207 18.2058 8.83232 19.1667 9.48724V5.83334C19.1667 3.99239 17.6743 2.50001 15.8334 2.50001H15V1.66668C15 1.20644 14.6269 0.833344 14.1667 0.833344C13.7065 0.833344 13.3334 1.20644 13.3334 1.66668V2.50001H6.66671V1.66668C6.66671 1.20644 6.29361 0.833344 5.83337 0.833344ZM4.16671 11.6667C4.16671 11.2064 4.5398 10.8333 5.00004 10.8333C5.46028 10.8333 5.83337 11.2064 5.83337 11.6667C5.83337 12.1269 5.46028 12.5 5.00004 12.5C4.5398 12.5 4.16671 12.1269 4.16671 11.6667ZM5.00004 14.1667C4.5398 14.1667 4.16671 14.5398 4.16671 15C4.16671 15.4602 4.5398 15.8333 5.00004 15.8333C5.46028 15.8333 5.83337 15.4602 5.83337 15C5.83337 14.5398 5.46028 14.1667 5.00004 14.1667ZM7.50004 11.6667C7.50004 11.2064 7.87314 10.8333 8.33337 10.8333C8.79361 10.8333 9.16671 11.2064 9.16671 11.6667C9.16671 12.1269 8.79361 12.5 8.33337 12.5C7.87314 12.5 7.50004 12.1269 7.50004 11.6667ZM15.0484 10C14.566 10 14.1523 10.3445 14.065 10.819L14.0072 11.1325C13.5073 11.3053 13.0512 11.5723 12.6604 11.9122L12.3577 11.8047C11.9031 11.6431 11.398 11.8291 11.1567 12.2469L10.8645 12.7531C10.6232 13.171 10.7147 13.7015 11.082 14.0143L11.3268 14.2229C11.2784 14.4745 11.2531 14.7343 11.2531 15C11.2531 15.2657 11.2784 15.5255 11.3268 15.7771L11.082 15.9857C10.7147 16.2986 10.6232 16.8291 10.8645 17.2469L11.1568 17.7531C11.398 18.171 11.9031 18.357 12.3577 18.1954L12.6604 18.0878C13.0512 18.4278 13.5073 18.6948 14.0072 18.8675L14.065 19.1811C14.1523 19.6555 14.566 20 15.0484 20H15.633C16.1155 20 16.5291 19.6555 16.6165 19.1811L16.6738 18.8699C17.1756 18.6975 17.6334 18.4302 18.0257 18.0894L18.3237 18.1954C18.7783 18.357 19.2835 18.171 19.5247 17.7531L19.817 17.2469C20.0582 16.8291 19.9667 16.2986 19.5995 15.9857L19.3603 15.7819C19.4092 15.5288 19.4349 15.2674 19.4349 15C19.4349 14.7326 19.4092 14.4713 19.3603 14.2182L19.5995 14.0143C19.9668 13.7015 20.0582 13.171 19.817 12.7531L19.5247 12.2469C19.2835 11.8291 18.7783 11.6431 18.3238 11.8047L18.0257 11.9106C17.6334 11.5698 17.1757 11.3025 16.6738 11.1301L16.6165 10.819C16.5291 10.3445 16.1155 10 15.633 10H15.0484ZM15.3402 16.6667C16.2607 16.6667 17.0069 15.9205 17.0069 15C17.0069 14.0795 16.2607 13.3333 15.3402 13.3333C14.4197 13.3333 13.6735 14.0795 13.6735 15C13.6735 15.9205 14.4197 16.6667 15.3402 16.6667Z" fill="#18202A"/>
</g>
<defs>
<clipPath id="clip0_2266_34739">
<rect width="20" height="20" fill="white"/>
</clipPath>
</defs>
</svg>
