<svg width="20" height="20" viewBox="0 0 20 20" fill="none" xmlns="http://www.w3.org/2000/svg">
<g clip-path="url(#clip0_3785_8923)">
<g clip-path="url(#clip1_3785_8923)">
<path fill-rule="evenodd" clip-rule="evenodd" d="M15.4166 6.66634C14.2661 6.66634 13.3333 5.7336 13.3333 4.58301V3.95821L11.4584 3.95801C11.1132 3.95797 10.8333 4.2378 10.8333 4.58301V15.4166C10.8333 15.7618 11.1131 16.0416 11.4583 16.0416H13.3333V15.4163C13.3333 14.2657 14.2661 13.333 15.4166 13.333H17.0833C18.2339 13.333 19.1666 14.2657 19.1666 15.4163V17.083C19.1666 18.2336 18.2339 19.1663 17.0833 19.1663H15.4166C14.3365 19.1663 13.4483 18.3442 13.3436 17.2916H11.4583C10.4228 17.2916 9.58331 16.4521 9.58331 15.4166V10.6247H6.66665V10.833C6.66665 11.9836 5.73391 12.9163 4.58331 12.9163H2.91665C1.76605 12.9163 0.833313 11.9836 0.833313 10.833V9.16634C0.833313 8.01575 1.76605 7.08301 2.91665 7.08301H4.58331C5.73391 7.08301 6.66665 8.01575 6.66665 9.16634V9.37467H9.58331V4.58301C9.58331 3.54739 10.4229 2.7079 11.4585 2.70801L13.3436 2.70821C13.448 1.65534 14.3363 0.833008 15.4166 0.833008H17.0833C18.2339 0.833008 19.1666 1.76575 19.1666 2.91634V4.58301C19.1666 5.7336 18.2339 6.66634 17.0833 6.66634H15.4166ZM14.5833 2.91634C14.5833 2.4561 14.9564 2.08301 15.4166 2.08301H17.0833C17.5436 2.08301 17.9166 2.4561 17.9166 2.91634V4.58301C17.9166 5.04325 17.5436 5.41634 17.0833 5.41634H15.4166C14.9564 5.41634 14.5833 5.04325 14.5833 4.58301V2.91634ZM2.08331 9.16634C2.08331 8.7061 2.45641 8.33301 2.91665 8.33301H4.58331C5.04355 8.33301 5.41665 8.7061 5.41665 9.16634V10.833C5.41665 11.2932 5.04355 11.6663 4.58331 11.6663H2.91665C2.45641 11.6663 2.08331 11.2932 2.08331 10.833V9.16634ZM17.9166 15.4163C17.9166 14.9561 17.5436 14.583 17.0833 14.583H15.4166C14.9564 14.583 14.5833 14.9561 14.5833 15.4163V17.083C14.5833 17.5432 14.9564 17.9163 15.4166 17.9163H17.0833C17.5436 17.9163 17.9166 17.5432 17.9166 17.083V15.4163Z" fill="#18202A"/>
</g>
</g>
<defs>
<clipPath id="clip0_3785_8923">
<rect width="20" height="20" fill="white"/>
</clipPath>
<clipPath id="clip1_3785_8923">
<rect width="20" height="20" fill="white"/>
</clipPath>
</defs>
</svg>
