<svg width="20" height="20" viewBox="0 0 20 20" fill="none" xmlns="http://www.w3.org/2000/svg">
<path d="M5.83331 3.75C5.83331 4.44036 6.39296 5 7.08331 5C7.77367 5 8.33331 4.44036 8.33331 3.75C8.33331 3.05964 7.77367 2.5 7.08331 2.5C6.39296 2.5 5.83331 3.05964 5.83331 3.75Z" fill="#18202A"/>
<path d="M11.6666 3.75C11.6666 4.44036 12.2263 5 12.9166 5C13.607 5 14.1666 4.44036 14.1666 3.75C14.1666 3.05964 13.607 2.5 12.9166 2.5C12.2263 2.5 11.6666 3.05964 11.6666 3.75Z" fill="#18202A"/>
<path d="M12.9166 10.8333C12.2263 10.8333 11.6666 10.2737 11.6666 9.58333C11.6666 8.89298 12.2263 8.33333 12.9166 8.33333C13.607 8.33333 14.1666 8.89298 14.1666 9.58333C14.1666 10.2737 13.607 10.8333 12.9166 10.8333Z" fill="#18202A"/>
<path d="M5.83331 9.58333C5.83331 10.2737 6.39296 10.8333 7.08331 10.8333C7.77367 10.8333 8.33331 10.2737 8.33331 9.58333C8.33331 8.89298 7.77367 8.33333 7.08331 8.33333C6.39296 8.33333 5.83331 8.89298 5.83331 9.58333Z" fill="#18202A"/>
<path d="M12.9166 16.6667C12.2263 16.6667 11.6666 16.107 11.6666 15.4167C11.6666 14.7263 12.2263 14.1667 12.9166 14.1667C13.607 14.1667 14.1666 14.7263 14.1666 15.4167C14.1666 16.107 13.607 16.6667 12.9166 16.6667Z" fill="#18202A"/>
<path d="M5.83331 15.4167C5.83331 16.107 6.39296 16.6667 7.08331 16.6667C7.77367 16.6667 8.33331 16.107 8.33331 15.4167C8.33331 14.7263 7.77367 14.1667 7.08331 14.1667C6.39296 14.1667 5.83331 14.7263 5.83331 15.4167Z" fill="#18202A"/>
</svg>
