<svg width="20" height="20" viewBox="0 0 20 20" fill="none" xmlns="http://www.w3.org/2000/svg">
<g clip-path="url(#clip0_3444_9571)">
<path d="M13.3333 1.6665C14.4218 1.6665 15.3478 2.36218 15.691 3.33317H4.30888C4.65208 2.36218 5.57811 1.6665 6.66663 1.6665H13.3333Z" fill="#18202A"/>
<path fill-rule="evenodd" clip-rule="evenodd" d="M4.16663 4.1665C2.78591 4.1665 1.66663 5.28579 1.66663 6.6665V11.6665C1.66663 12.755 2.3623 13.6811 3.33329 14.0242V15.8332C3.33329 17.2139 4.45258 18.3332 5.83329 18.3332H14.1666C15.5473 18.3332 16.6666 17.2139 16.6666 15.8332V14.0242C17.6376 13.6811 18.3333 12.755 18.3333 11.6665V6.6665C18.3333 5.28579 17.214 4.1665 15.8333 4.1665H4.16663ZM15.8333 7.49984C16.2935 7.49984 16.6666 7.12674 16.6666 6.6665C16.6666 6.20627 16.2935 5.83317 15.8333 5.83317C15.3731 5.83317 15 6.20627 15 6.6665C15 7.12674 15.3731 7.49984 15.8333 7.49984ZM15 9.99984C15 9.5396 14.6269 9.1665 14.1666 9.1665H5.83329C5.37305 9.1665 4.99996 9.5396 4.99996 9.99984V15.8332C4.99996 16.2934 5.37306 16.6665 5.83329 16.6665H14.1666C14.6269 16.6665 15 16.2934 15 15.8332V9.99984Z" fill="#18202A"/>
</g>
<defs>
<clipPath id="clip0_3444_9571">
<rect width="20" height="20" fill="white"/>
</clipPath>
</defs>
</svg>
