<svg width="20" height="20" viewBox="0 0 20 20" fill="none" xmlns="http://www.w3.org/2000/svg">
<g clip-path="url(#clip0_2266_37177)">
<path fill-rule="evenodd" clip-rule="evenodd" d="M0.833334 9.99998C0.833334 15.0626 4.93739 19.1666 10 19.1666C15.0626 19.1666 19.1667 15.0626 19.1667 9.99998C19.1667 4.93737 15.0626 0.833313 10 0.833313C4.93739 0.833313 0.833334 4.93737 0.833334 9.99998ZM13.9226 11.4226C14.248 11.0971 14.248 10.5695 13.9226 10.2441C13.5972 9.91862 13.0695 9.91862 12.7441 10.2441L10.8333 12.1548V5.83331C10.8333 5.37308 10.4602 4.99998 10 4.99998C9.53976 4.99998 9.16667 5.37308 9.16667 5.83331V12.1548L7.25592 10.2441C6.93049 9.91862 6.40285 9.91862 6.07741 10.2441C5.75197 10.5695 5.75197 11.0971 6.07741 11.4226L9.41075 14.7559C9.73618 15.0813 10.2638 15.0813 10.5893 14.7559L13.9226 11.4226Z" fill="#18202A"/>
</g>
<defs>
<clipPath id="clip0_2266_37177">
<rect width="20" height="20" fill="white"/>
</clipPath>
</defs>
</svg>
