<svg width="20" height="20" viewBox="0 0 20 20" fill="none" xmlns="http://www.w3.org/2000/svg">
<g clip-path="url(#clip0_2266_35977)">
<path fill-rule="evenodd" clip-rule="evenodd" d="M16.6667 6.66683V13.1351L10.1984 6.66683H16.6667ZM5.48711 6.66683H3.33333V18.3335C3.33333 19.0202 4.1173 19.4122 4.66667 19.0002L9 15.7502C9.59259 15.3057 10.4074 15.3057 11 15.7502L15.3333 19.0002C15.8827 19.4122 16.6667 19.0202 16.6667 18.3335V17.8464L17.6861 18.8658C18.0548 19.2345 18.6177 19.2693 18.9435 18.9436C19.2692 18.6179 19.2343 18.0549 18.8656 17.6862L2.31392 1.13453C1.94522 0.765823 1.38228 0.730985 1.05655 1.05671C0.730822 1.38244 0.765661 1.94538 1.13436 2.31409L5.48711 6.66683ZM16.6667 5.00016H8.53175L4.88236 1.35077C5.39826 1.0232 6.01031 0.833496 6.66667 0.833496H13.3333C15.1743 0.833496 16.6667 2.32588 16.6667 4.16683V5.00016Z" fill="#18202A"/>
</g>
<defs>
<clipPath id="clip0_2266_35977">
<rect width="20" height="20" fill="white"/>
</clipPath>
</defs>
</svg>
