<svg width="20" height="20" viewBox="0 0 20 20" fill="none" xmlns="http://www.w3.org/2000/svg">
<g clip-path="url(#clip0_3294_8816)">
<path d="M3.33335 4.16683C3.33335 4.62707 2.96026 5.00016 2.50002 5.00016C2.03978 5.00016 1.66669 4.62707 1.66669 4.16683C1.66669 3.70659 2.03978 3.3335 2.50002 3.3335C2.96026 3.3335 3.33335 3.70659 3.33335 4.16683Z" fill="#18202A"/>
<path d="M5.83335 4.16683C5.83335 3.82165 6.11318 3.54183 6.45835 3.54183H17.7084C18.0535 3.54183 18.3334 3.82165 18.3334 4.16683C18.3334 4.51201 18.0535 4.79183 17.7084 4.79183H6.45835C6.11318 4.79183 5.83335 4.51201 5.83335 4.16683Z" fill="#18202A"/>
<path d="M6.45835 9.37516C6.11318 9.37516 5.83335 9.65498 5.83335 10.0002C5.83335 10.3453 6.11318 10.6252 6.45835 10.6252H17.7084C18.0535 10.6252 18.3334 10.3453 18.3334 10.0002C18.3334 9.65498 18.0535 9.37516 17.7084 9.37516H6.45835Z" fill="#18202A"/>
<path d="M6.45835 15.2085C6.11318 15.2085 5.83335 15.4883 5.83335 15.8335C5.83335 16.1787 6.11318 16.4585 6.45835 16.4585H17.7084C18.0535 16.4585 18.3334 16.1787 18.3334 15.8335C18.3334 15.4883 18.0535 15.2085 17.7084 15.2085H6.45835Z" fill="#18202A"/>
<path d="M3.33335 10.0002C3.33335 10.4604 2.96026 10.8335 2.50002 10.8335C2.03978 10.8335 1.66669 10.4604 1.66669 10.0002C1.66669 9.53993 2.03978 9.16683 2.50002 9.16683C2.96026 9.16683 3.33335 9.53993 3.33335 10.0002Z" fill="#18202A"/>
<path d="M3.33335 15.8335C3.33335 16.2937 2.96026 16.6668 2.50002 16.6668C2.03978 16.6668 1.66669 16.2937 1.66669 15.8335C1.66669 15.3733 2.03978 15.0002 2.50002 15.0002C2.96026 15.0002 3.33335 15.3733 3.33335 15.8335Z" fill="#18202A"/>
</g>
<defs>
<clipPath id="clip0_3294_8816">
<rect width="20" height="20" fill="white"/>
</clipPath>
</defs>
</svg>
