<svg width="20" height="20" viewBox="0 0 20 20" fill="none" xmlns="http://www.w3.org/2000/svg">
<path fill-rule="evenodd" clip-rule="evenodd" d="M17.5 8.19003V9.16634H16.25H10.4167H9.16667V7.91634V2.08301H5.83333C4.68274 2.08301 3.75 3.01575 3.75 4.16634V15.833C3.75 16.9836 4.68274 17.9163 5.83333 17.9163H9.88811C10.0497 18.3606 10.2732 18.7817 10.5532 19.1663H5.83333C3.99238 19.1663 2.5 17.674 2.5 15.833V4.16634C2.5 2.32539 3.99238 0.833008 5.83333 0.833008H9.16667H10.143C10.585 0.833008 11.0089 1.0086 11.3215 1.32116L17.0118 7.01152C17.3244 7.32408 17.5 7.748 17.5 8.19003ZM10.4167 7.91634H16.1475C16.1413 7.90916 16.1347 7.90218 16.128 7.8954L10.4376 2.20505C10.4308 2.19827 10.4238 2.19175 10.4167 2.1855V7.91634ZM16.4596 17.9995L18.9288 15.5295V15.5328C19.0473 15.4224 19.204 15.3623 19.3659 15.3652C19.5278 15.368 19.6823 15.4336 19.7968 15.5481C19.9113 15.6626 19.9769 15.8171 19.9798 15.9791C19.9826 16.141 19.9225 16.2977 19.8121 16.4162L17.343 18.8828C16.6278 19.5979 15.6578 19.9996 14.6464 19.9995C13.635 19.9994 12.6651 19.5976 11.95 18.8824C11.2349 18.1672 10.8333 17.1972 10.8333 16.1859C10.8334 15.1745 11.2353 14.2046 11.9505 13.4895L14.6338 10.8053C15.1496 10.2895 15.8493 9.99967 16.5788 9.99967C17.3083 9.99967 18.0079 10.2895 18.5238 10.8053C19.0396 11.3212 19.3294 12.0208 19.3294 12.7503C19.3294 13.4798 19.0396 14.1795 18.5238 14.6953L16.0555 17.1662C15.7386 17.4832 15.3088 17.6614 14.8606 17.6616C14.4124 17.6617 13.9825 17.4838 13.6655 17.167C13.3484 16.8502 13.1702 16.4204 13.17 15.9722C13.1699 15.5239 13.3478 15.094 13.6646 14.777L15.493 12.9495C15.5502 12.8881 15.6192 12.8388 15.6958 12.8047C15.7725 12.7705 15.8553 12.7521 15.9392 12.7507C16.0231 12.7492 16.1065 12.7646 16.1843 12.7961C16.2621 12.8275 16.3328 12.8743 16.3922 12.9336C16.4515 12.993 16.4983 13.0637 16.5297 13.1415C16.5612 13.2193 16.5766 13.3027 16.5751 13.3866C16.5736 13.4705 16.5553 13.5533 16.5211 13.6299C16.4869 13.7066 16.4377 13.7756 16.3763 13.8328L14.5521 15.6603C14.4705 15.7427 14.4248 15.854 14.4248 15.9699C14.4248 16.0858 14.4705 16.1971 14.5521 16.2795C14.6343 16.3615 14.7456 16.4075 14.8617 16.4075C14.9778 16.4075 15.0891 16.3615 15.1713 16.2795L17.6405 13.8112C17.7799 13.6718 17.8906 13.5064 17.966 13.3243C18.0415 13.1422 18.0804 12.947 18.0804 12.7499C18.0804 12.5528 18.0415 12.3576 17.966 12.1755C17.8906 11.9934 17.7799 11.828 17.6405 11.6887C17.3543 11.4162 16.9743 11.2643 16.5792 11.2643C16.1841 11.2643 15.8041 11.4162 15.518 11.6887L12.8313 14.3737C12.3505 14.8548 12.0805 15.5072 12.0807 16.1875C12.081 16.8677 12.3514 17.5199 12.8325 18.0007C13.3137 18.4816 13.9661 18.7515 14.6463 18.7513C15.3265 18.7511 15.9788 18.4806 16.4596 17.9995Z" fill="#18202A"/>
</svg>
