<svg width="20" height="20" viewBox="0 0 20 20" fill="none" xmlns="http://www.w3.org/2000/svg">
<g clip-path="url(#clip0_3292_8770)">
<path d="M14.5546 9.19338C14.8852 9.29257 15.0728 9.641 14.9736 9.97162L14.973 9.97373L14.9721 9.97661L14.9696 9.98464L14.9617 10.0095C14.955 10.0298 14.9457 10.0576 14.9335 10.0918C14.9091 10.1599 14.8732 10.2542 14.8248 10.3661C14.7286 10.5879 14.5791 10.8879 14.3662 11.1921C13.9487 11.7885 13.2113 12.5004 12.0833 12.5004C11.021 12.5004 10.2395 11.8478 9.65608 11.3607L9.59988 11.3138C8.93903 10.7631 8.48646 10.417 7.91666 10.417C7.378 10.417 6.96956 10.7468 6.65785 11.1921C6.50623 11.4087 6.39531 11.6295 6.32216 11.7983C6.28598 11.8818 6.26003 11.9503 6.24369 11.9961C6.23554 12.0189 6.22985 12.0359 6.22652 12.046L6.22332 12.056C6.12397 12.3864 5.77588 12.5731 5.4454 12.474C5.11478 12.3748 4.92716 12.0264 5.02635 11.6958L5.02664 11.6948C5.03927 11.6549 5.05242 11.6151 5.06651 11.5756C5.09087 11.5074 5.12677 11.4131 5.17522 11.3013C5.27134 11.0795 5.42084 10.7795 5.63381 10.4753C6.05126 9.87891 6.78865 9.16703 7.91666 9.16703C8.97903 9.16703 9.76051 9.81954 10.3439 10.3067L10.4001 10.3536C11.061 10.9043 11.5135 11.2504 12.0833 11.2504C12.622 11.2504 13.0304 10.9206 13.3421 10.4753C13.4938 10.2587 13.6047 10.0378 13.6778 9.86904C13.714 9.78554 13.74 9.71708 13.7563 9.67133C13.7644 9.64852 13.7701 9.63153 13.7735 9.62135L13.7766 9.61167C13.8759 9.2813 14.2241 9.09424 14.5546 9.19338Z" fill="#18202A"/>
<path fill-rule="evenodd" clip-rule="evenodd" d="M5.62498 0.833496C5.2798 0.833496 4.99998 1.11332 4.99998 1.4585V2.50016H4.16665C2.3257 2.50016 0.833313 3.99255 0.833313 5.8335V15.8335C0.833313 17.6744 2.3257 19.1668 4.16665 19.1668H15.8333C17.6743 19.1668 19.1666 17.6744 19.1666 15.8335V5.8335C19.1666 3.99255 17.6743 2.50016 15.8333 2.50016H15V1.4585C15 1.11332 14.7202 0.833496 14.375 0.833496C14.0298 0.833496 13.75 1.11332 13.75 1.4585V2.50016H6.24998V1.4585C6.24998 1.11332 5.97016 0.833496 5.62498 0.833496ZM14.375 5.8335C14.0298 5.8335 13.75 5.55367 13.75 5.2085V3.75016H6.24998V5.2085C6.24998 5.55367 5.97016 5.8335 5.62498 5.8335C5.2798 5.8335 4.99998 5.55367 4.99998 5.2085V3.75016H4.16665C3.01605 3.75016 2.08331 4.6829 2.08331 5.8335V15.8335C2.08331 16.9841 3.01605 17.9168 4.16665 17.9168H15.8333C16.9839 17.9168 17.9166 16.9841 17.9166 15.8335V5.8335C17.9166 4.6829 16.9839 3.75016 15.8333 3.75016H15V5.2085C15 5.55367 14.7202 5.8335 14.375 5.8335Z" fill="#18202A"/>
</g>
<defs>
<clipPath id="clip0_3292_8770">
<rect width="20" height="20" fill="white"/>
</clipPath>
</defs>
</svg>
