<svg width="20" height="20" viewBox="0 0 20 20" fill="none" xmlns="http://www.w3.org/2000/svg">
<g clip-path="url(#clip0_3923_8901)">
<path d="M14.1667 2.08301C15.3173 2.08301 16.2501 3.01575 16.2501 4.16634V15.833C16.2501 16.9836 15.3173 17.9163 14.1667 17.9163H8.125C7.77982 17.9163 7.5 18.1962 7.5 18.5413C7.5 18.8865 7.77982 19.1663 8.125 19.1663H14.1667C16.0077 19.1663 17.5001 17.674 17.5001 15.833V4.16634C17.5001 2.32539 16.0077 0.833008 14.1667 0.833008H5.83338C3.99244 0.833008 2.50005 2.32539 2.50005 4.16634V8.54134C2.50005 8.88652 2.77987 9.16634 3.12505 9.16634C3.47023 9.16634 3.75005 8.88652 3.75005 8.54134L3.75005 4.16634C3.75005 3.01575 4.68279 2.08301 5.83338 2.08301L14.1667 2.08301Z" fill="#18202A"/>
<path d="M10 8.54134C10 8.19616 10.2798 7.91634 10.625 7.91634H14.375C14.7202 7.91634 15 8.19616 15 8.54134C15 8.88652 14.7202 9.16634 14.375 9.16634H10.625C10.2798 9.16634 10 8.88652 10 8.54134Z" fill="#18202A"/>
<path d="M11.6667 12.2913C11.6667 11.9462 11.9465 11.6663 12.2917 11.6663H14.375C14.7202 11.6663 15 11.9462 15 12.2913C15 12.6365 14.7202 12.9163 14.375 12.9163H12.2917C11.9465 12.9163 11.6667 12.6365 11.6667 12.2913Z" fill="#18202A"/>
<path d="M6.66667 4.79134C6.66667 4.44616 6.94649 4.16634 7.29167 4.16634H14.375C14.7202 4.16634 15 4.44616 15 4.79134C15 5.13652 14.7202 5.41634 14.375 5.41634H7.29167C6.94649 5.41634 6.66667 5.13652 6.66667 4.79134Z" fill="#18202A"/>
<path d="M7.29247 10.8334C7.40681 10.8334 7.49951 10.9275 7.49952 11.0436L7.5 15.3715C7.50002 15.5588 7.27696 15.6526 7.1465 15.5202L5.98987 14.3457C5.909 14.2636 5.77682 14.2645 5.69691 14.3476C3.90597 16.2094 3.72158 17.2586 4.06728 18.9117C4.11113 19.1213 3.86549 19.2579 3.73033 19.0933C1.60157 16.5007 2.58685 14.2198 4.04227 12.6655C4.12107 12.5813 4.12127 12.4484 4.0404 12.3663L2.88376 11.1919C2.7533 11.0595 2.84571 10.833 3.0302 10.833L7.29247 10.8334Z" fill="#18202A"/>
</g>
<defs>
<clipPath id="clip0_3923_8901">
<rect width="20" height="20" fill="white"/>
</clipPath>
</defs>
</svg>
