<svg width="20" height="20" viewBox="0 0 20 20" fill="none" xmlns="http://www.w3.org/2000/svg">
<g clip-path="url(#clip0_2266_37249)">
<path fill-rule="evenodd" clip-rule="evenodd" d="M10 19.1667C15.0626 19.1667 19.1667 15.0627 19.1667 10C19.1667 4.93743 15.0626 0.833374 10 0.833374C4.93739 0.833374 0.833334 4.93743 0.833334 10C0.833334 15.0627 4.93739 19.1667 10 19.1667ZM9.75592 6.07745C9.43049 5.75201 8.90285 5.75201 8.57741 6.07745C8.25197 6.40289 8.25197 6.93053 8.57741 7.25596L11.3215 10L8.57741 12.7441C8.25197 13.0696 8.25197 13.5972 8.57741 13.9226C8.90285 14.2481 9.43049 14.2481 9.75592 13.9226L13.0893 10.5893C13.4147 10.2639 13.4147 9.73622 13.0893 9.41078L9.75592 6.07745Z" fill="#18202A"/>
</g>
<defs>
<clipPath id="clip0_2266_37249">
<rect width="20" height="20" fill="white"/>
</clipPath>
</defs>
</svg>
