<svg width="20" height="20" viewBox="0 0 20 20" fill="none" xmlns="http://www.w3.org/2000/svg">
<path fill-rule="evenodd" clip-rule="evenodd" d="M10.3129 0.879216L18.4303 3.32085C18.8683 3.45286 19.1671 3.84365 19.1667 4.28571C19.1667 15.0974 13.4956 17.682 10.4482 19.0699C10.3066 19.1345 10.1536 19.1668 10.0002 19.1668C9.84682 19.1668 9.69342 19.1345 9.55134 19.0699C6.50437 17.6816 0.833334 15.0974 0.833334 4.28571C0.833334 3.84325 1.13216 3.45246 1.57014 3.32085L9.68755 0.879216C9.89124 0.818256 10.1092 0.818256 10.3129 0.879216ZM9.49302 5.74206C9.69762 5.30842 10.3024 5.30842 10.507 5.74206L11.367 7.56465L13.2699 7.8543C13.5193 7.89225 13.6735 8.07789 13.7262 8.25843C13.7789 8.43851 13.7481 8.66409 13.5844 8.83092L12.2002 10.2412L12.5294 12.2458C12.5649 12.4615 12.4789 12.6671 12.3232 12.7928C12.1641 12.9211 11.9249 12.9673 11.7076 12.8479L10 11.9098L8.29238 12.8479C8.07512 12.9673 7.8359 12.9211 7.67685 12.7928C7.52106 12.6671 7.43514 12.4615 7.47058 12.2458L7.79981 10.2411L6.41532 8.82845C6.2517 8.66151 6.22108 8.43588 6.27389 8.25582C6.32683 8.0753 6.4812 7.88974 6.73061 7.85203L8.63316 7.56441L9.49302 5.74206Z" fill="#18202A"/>
</svg>
