<svg width="20" height="20" viewBox="0 0 20 20" fill="none" xmlns="http://www.w3.org/2000/svg">
<path fill-rule="evenodd" clip-rule="evenodd" d="M6.25014 16.4593C6.25014 16.1141 6.52996 15.8343 6.87514 15.8343H17.7085C18.0537 15.8343 18.3335 16.1141 18.3335 16.4593C18.3335 16.8045 18.0537 17.0843 17.7085 17.0843H6.87514C6.52996 17.0843 6.25014 16.8045 6.25014 16.4593Z" fill="#18202A"/>
<path fill-rule="evenodd" clip-rule="evenodd" d="M6.25014 3.12598C6.25014 2.7808 6.52996 2.50098 6.87514 2.50098H17.7085C18.0537 2.50098 18.3335 2.7808 18.3335 3.12598C18.3335 3.47115 18.0537 3.75098 17.7085 3.75098H6.87514C6.52996 3.75098 6.25014 3.47115 6.25014 3.12598Z" fill="#18202A"/>
<path d="M5.23375 7.73296C5.47783 7.48888 5.47783 7.09315 5.23375 6.84907C4.98967 6.605 4.59395 6.605 4.34987 6.84907L1.84987 9.34907C1.72432 9.47462 1.66335 9.64028 1.66696 9.8048C1.66938 10.0077 1.76748 10.1875 1.91821 10.3013L4.34987 12.733C4.59395 12.977 4.98967 12.977 5.23375 12.733C5.47783 12.4889 5.47783 12.0932 5.23375 11.8491L3.81252 10.4278L17.7025 10.4222C18.0512 10.422 18.3337 10.1392 18.3336 9.79056C18.3334 9.44188 18.0507 9.15933 17.702 9.15947L3.80156 9.16514L5.23375 7.73296Z" fill="#18202A"/>
</svg>
