<svg width="20" height="20" viewBox="0 0 20 20" fill="none" xmlns="http://www.w3.org/2000/svg">
<path fill-rule="evenodd" clip-rule="evenodd" d="M16.6666 9.16663C16.6666 10.7266 16.1904 12.1753 15.3753 13.3754C15.1083 13.7685 14.8049 14.135 14.4699 14.4699C14.135 14.8049 13.7685 15.1083 13.3754 15.3753C12.1753 16.1904 10.7266 16.6666 9.16663 16.6666C5.02449 16.6666 1.66663 13.3088 1.66663 9.16663C1.66663 5.02449 5.02449 1.66663 9.16663 1.66663C13.3088 1.66663 16.6666 5.02449 16.6666 9.16663ZM15.244 15.244C15.4962 14.9919 15.8697 14.9351 16.1765 15.0737C16.2657 15.1139 16.3492 15.1707 16.4225 15.244L18.0892 16.9107C18.4147 17.2361 18.4147 17.7638 18.0892 18.0892C17.7638 18.4147 17.2361 18.4147 16.9107 18.0892L15.244 16.4225C15.1707 16.3492 15.1139 16.2657 15.0737 16.1765C14.9351 15.8697 14.9919 15.4962 15.244 15.244ZM15 9.16663C15 12.3883 12.3883 15 9.16663 15C5.94496 15 3.33329 12.3883 3.33329 9.16663C3.33329 5.94496 5.94496 3.33329 9.16663 3.33329C12.3883 3.33329 15 5.94496 15 9.16663ZM6.66663 8.33329C6.20639 8.33329 5.83329 8.70639 5.83329 9.16663C5.83329 9.62686 6.20639 9.99996 6.66663 9.99996H11.6666C12.1269 9.99996 12.5 9.62686 12.5 9.16663C12.5 8.70639 12.1269 8.33329 11.6666 8.33329H6.66663Z" fill="#18202A"/>
</svg>
