<svg width="20" height="20" viewBox="0 0 20 20" fill="none" xmlns="http://www.w3.org/2000/svg">
<g clip-path="url(#clip0_3916_8802)">
<path d="M13.9836 11.0922C14.1008 10.975 14.1666 10.816 14.1666 10.6502C14.1666 10.4845 14.1008 10.3255 13.9836 10.2083L11.6919 7.91662C11.4478 7.67254 11.0521 7.67254 10.808 7.91662C10.564 8.1607 10.564 8.55643 10.808 8.8005L12.0074 9.99986L6.45831 9.99986C6.11314 9.99986 5.83331 10.2797 5.83331 10.6249C5.83331 10.97 6.11314 11.2499 6.45831 11.2499H12.0581L10.808 12.5C10.564 12.744 10.564 13.1398 10.808 13.3838C11.0521 13.6279 11.4478 13.6279 11.6919 13.3838L13.9836 11.0922Z" fill="#18202A"/>
<path fill-rule="evenodd" clip-rule="evenodd" d="M4.16665 2.5C2.3257 2.5 0.833313 3.99238 0.833313 5.83333V14.1667C0.833313 16.0076 2.3257 17.5 4.16665 17.5H15.8333C17.6743 17.5 19.1666 16.0076 19.1666 14.1667V7.5C19.1666 5.65905 17.6743 4.16667 15.8333 4.16667H9.99998L9.06555 3.23223C8.59671 2.76339 7.96082 2.5 7.29778 2.5H4.16665ZM9.48221 5.41667L8.18166 4.11612C7.94724 3.8817 7.6293 3.75 7.29778 3.75H4.16665C3.01605 3.75 2.08331 4.68274 2.08331 5.83333V14.1667C2.08331 15.3173 3.01605 16.25 4.16665 16.25H15.8333C16.9839 16.25 17.9166 15.3173 17.9166 14.1667V7.5C17.9166 6.34941 16.9839 5.41667 15.8333 5.41667H9.48221Z" fill="#18202A"/>
</g>
<defs>
<clipPath id="clip0_3916_8802">
<rect width="20" height="20" fill="white"/>
</clipPath>
</defs>
</svg>
