<svg width="20" height="20" viewBox="0 0 20 20" fill="none" xmlns="http://www.w3.org/2000/svg">
<path d="M6.69014 2.11632L6.85675 2.12043C7.29851 2.1487 7.71754 2.31451 8.05704 2.5963C8.43899 2.91334 8.69522 3.35633 8.77951 3.84542C8.80413 4.03683 8.83999 4.24082 8.88382 4.43366C8.97192 4.82205 9.08576 5.20441 9.22452 5.57805C9.32906 5.86536 9.32357 6.18407 9.20818 6.47025C9.09281 6.7564 8.87569 6.98976 8.59857 7.12543L8.20067 7.3863L7.88078 7.59956L8.06767 7.93553L8.24921 8.24912C8.68512 8.97314 9.20662 9.64269 9.80275 10.2432C10.4911 10.9265 11.2675 11.5103 12.1125 11.9805L12.4965 12.1941L12.8728 11.4244L12.9367 11.3095C13.0761 11.0875 13.2826 10.9138 13.5279 10.8149C13.8141 10.6996 14.1328 10.6941 14.4227 10.7996C14.7919 10.9394 15.1761 11.0537 15.5671 11.1399L15.8013 11.1957L15.9782 11.2301C16.0606 11.243 16.1375 11.2497 16.2151 11.2497C16.6165 11.3283 17.0471 11.5756 17.3598 11.9428C17.6727 12.3102 17.8484 12.7747 17.8569 13.257V15.7497L17.8502 15.9269C17.8314 16.1621 17.7731 16.3919 17.6773 16.6074C17.5576 16.8767 17.382 17.1176 17.1623 17.3141C16.7806 17.6542 16.2861 17.8421 15.7741 17.8414H15.4568L15.0986 17.7924C11.8819 17.3134 8.85633 15.7973 6.5156 13.465C4.08817 11.0464 2.53574 7.88802 2.10347 4.48876C2.06197 4.18787 2.08542 3.88604 2.17163 3.59944C2.25784 3.31283 2.40479 3.04816 2.60249 2.82344C2.80018 2.59873 3.04397 2.41926 3.31727 2.29723C3.59056 2.1752 3.88694 2.11349 4.18622 2.1163L6.69014 2.11632Z" fill="#18202A"/>
</svg>
