<svg width="20" height="20" viewBox="0 0 20 20" fill="none" xmlns="http://www.w3.org/2000/svg">
<g clip-path="url(#clip0_2266_35870)">
<path fill-rule="evenodd" clip-rule="evenodd" d="M19.1667 10.0002C19.1667 15.0628 15.0626 19.1668 10 19.1668C4.93739 19.1668 0.833334 15.0628 0.833334 10.0002C0.833334 4.93755 4.93739 0.833496 10 0.833496C15.0626 0.833496 19.1667 4.93755 19.1667 10.0002ZM8.33334 8.3335C8.33334 9.25397 7.77369 10.0002 7.08334 10.0002C6.39298 10.0002 5.83334 9.25397 5.83334 8.3335C5.83334 7.41302 6.39298 6.66683 7.08334 6.66683C7.77369 6.66683 8.33334 7.41302 8.33334 8.3335ZM6.19811 11.811C6.5787 11.5523 7.09702 11.651 7.3558 12.0316C7.61637 12.4148 7.99288 12.7435 8.45778 12.9759C8.92292 13.2085 9.45457 13.3335 10 13.3335C10.5454 13.3335 11.0771 13.2085 11.5422 12.9759C12.0071 12.7435 12.3836 12.4148 12.6442 12.0316C12.903 11.651 13.4213 11.5523 13.8019 11.811C14.1825 12.0698 14.2812 12.5881 14.0225 12.9687C13.5917 13.6023 12.9909 14.115 12.2876 14.4666C11.5845 14.8182 10.7968 15.0002 10 15.0002C9.20323 15.0002 8.41551 14.8182 7.71243 14.4666C7.00912 14.115 6.40832 13.6023 5.97755 12.9687C5.71877 12.5881 5.81752 12.0698 6.19811 11.811ZM12.9167 10.0002C13.607 10.0002 14.1667 9.25397 14.1667 8.3335C14.1667 7.41302 13.607 6.66683 12.9167 6.66683C12.2263 6.66683 11.6667 7.41302 11.6667 8.3335C11.6667 9.25397 12.2263 10.0002 12.9167 10.0002Z" fill="#18202A"/>
</g>
<defs>
<clipPath id="clip0_2266_35870">
<rect width="20" height="20" fill="white"/>
</clipPath>
</defs>
</svg>
