<svg width="20" height="20" viewBox="0 0 20 20" fill="none" xmlns="http://www.w3.org/2000/svg">
<g clip-path="url(#clip0_2266_39622)">
<path d="M9.68759 0.879216C9.85053 0.830448 10.0226 0.820694 10.1892 0.849955L10.3128 0.879216L18.4303 3.32085C18.8683 3.45286 19.1671 3.84365 19.1667 4.28571C19.1667 15.0974 13.4957 17.682 10.4483 19.0699C10.3066 19.1345 10.1536 19.1668 10.0003 19.1668C9.84684 19.1668 9.69343 19.1345 9.55134 19.0699L9.10999 18.8677C5.98912 17.4234 0.833344 14.5945 0.833344 4.28571C0.833344 3.88012 1.08444 3.51795 1.46364 3.35903L1.57015 3.32085L9.68759 0.879216ZM10.0008 2.09016L2.08418 4.471L2.08624 4.70179C2.14605 8.96248 3.12983 12.0234 4.84414 14.2057L5.01231 14.4141C6.26866 15.9306 7.50371 16.7421 9.75518 17.7878L9.99918 17.9002L10.2436 17.7883L10.8615 17.4945C12.6374 16.6273 13.7367 15.8663 14.8164 14.6168L14.9877 14.4143C16.8057 12.2198 17.852 9.09997 17.9138 4.70072L17.915 4.471L10.0008 2.09016Z" fill="#18202A"/>
<path fill-rule="evenodd" clip-rule="evenodd" d="M3.33601 5.4704L3.33334 5.3935L9.97751 3.39516L16.6208 5.3935L16.5996 5.84798C16.3924 9.35205 15.472 11.8431 14.0026 13.6168L13.851 13.796C12.8899 14.9075 11.8974 15.5907 10.2315 16.3999L9.97751 16.5218L9.7218 16.3991C7.96917 15.5475 6.96236 14.8357 5.95239 13.6167L5.79706 13.4239C4.36708 11.5986 3.49199 9.04546 3.33601 5.4704ZM4.64099 6.30552C4.88433 9.21623 5.66599 11.2266 6.77599 12.6465L6.92027 12.8256C7.72828 13.7994 8.52079 14.3995 9.97744 15.1313C11.3619 14.4358 12.1407 13.8617 12.9012 12.9833L13.044 12.8145C14.2266 11.3847 15.0608 9.33187 15.3139 6.30569L9.97749 4.70048L4.64099 6.30552Z" fill="#18202A"/>
</g>
<defs>
<clipPath id="clip0_2266_39622">
<rect width="20" height="20" fill="white"/>
</clipPath>
</defs>
</svg>
