<svg width="20" height="20" viewBox="0 0 20 20" fill="none" xmlns="http://www.w3.org/2000/svg">
<path d="M3.33333 2.5C1.95262 2.5 0.833334 3.61929 0.833334 5V5.82137C0.835452 5.66472 0.881707 5.5069 0.975873 5.36733C1.23329 4.98581 1.75124 4.8852 2.13276 5.14262L8.8119 9.64905C9.14194 9.87177 9.55972 10.0001 10 10.0001C10.4403 10.0001 10.858 9.8718 11.1881 9.64909L17.8673 5.14262C18.2488 4.8852 18.7667 4.98581 19.0241 5.36733C19.1181 5.50656 19.1643 5.66397 19.1667 5.82025V5C19.1667 3.61929 18.0474 2.5 16.6667 2.5H3.33333Z" fill="#18202A"/>
<path d="M19.1667 5.84508C19.1628 6.10845 19.0343 6.36572 18.7994 6.52422L12.1203 11.0306C11.5019 11.448 10.7564 11.6668 10 11.6668C9.2436 11.6668 8.4982 11.448 7.87972 11.0307L1.20059 6.52422C0.965343 6.3655 0.836899 6.10772 0.833334 5.84395V15C0.833334 16.3807 1.95262 17.5 3.33333 17.5H16.6667C18.0474 17.5 19.1667 16.3807 19.1667 15V5.84508Z" fill="#18202A"/>
<path fill-rule="evenodd" clip-rule="evenodd" d="M16.6667 4.16667H3.33333C2.8731 4.16667 2.5 4.53976 2.5 5V15C2.5 15.4602 2.8731 15.8333 3.33333 15.8333H16.6667C17.1269 15.8333 17.5 15.4602 17.5 15V5C17.5 4.53976 17.1269 4.16667 16.6667 4.16667ZM3.33333 2.5C1.95262 2.5 0.833334 3.61929 0.833334 5V15C0.833334 16.3807 1.95262 17.5 3.33333 17.5H16.6667C18.0474 17.5 19.1667 16.3807 19.1667 15V5C19.1667 3.61929 18.0474 2.5 16.6667 2.5H3.33333Z" fill="#18202A"/>
</svg>
