<svg width="20" height="20" viewBox="0 0 20 20" fill="none" xmlns="http://www.w3.org/2000/svg">
<g clip-path="url(#clip0_2266_40171)">
<path fill-rule="evenodd" clip-rule="evenodd" d="M10 17.9166C5.62776 17.9166 2.08334 14.3722 2.08334 9.99998C2.08334 5.62773 5.62776 2.08331 10 2.08331C14.3723 2.08331 17.9167 5.62773 17.9167 9.99998C17.9167 14.3722 14.3723 17.9166 10 17.9166ZM10 19.1666C4.9374 19.1666 0.833344 15.0626 0.833344 9.99998C0.833344 4.93737 4.9374 0.833313 10 0.833313C15.0626 0.833313 19.1667 4.93737 19.1667 9.99998C19.1667 15.0626 15.0626 19.1666 10 19.1666Z" fill="#18202A"/>
<path fill-rule="evenodd" clip-rule="evenodd" d="M9.60862 6.2247C9.36454 5.98063 8.96881 5.98063 8.72474 6.2247L5.3914 9.55804C5.14732 9.80212 5.14732 10.1978 5.3914 10.4419L8.72474 13.7753C8.96881 14.0193 9.36454 14.0193 9.60862 13.7753C9.8527 13.5312 9.8527 13.1354 9.60862 12.8914L7.34223 10.625H14.1667C14.5119 10.625 14.7917 10.3452 14.7917 9.99998C14.7917 9.6548 14.5119 9.37498 14.1667 9.37498H7.34223L9.60862 7.10859C9.8527 6.86451 9.8527 6.46878 9.60862 6.2247Z" fill="#18202A"/>
</g>
<defs>
<clipPath id="clip0_2266_40171">
<rect width="20" height="20" fill="white"/>
</clipPath>
</defs>
</svg>
