<svg width="20" height="20" viewBox="0 0 20 20" fill="none" xmlns="http://www.w3.org/2000/svg">
<path d="M2.67001 3.5682C4.56023 3.18294 6.51649 3.27241 8.36365 3.82859C10.2108 4.38478 11.8912 5.39033 13.2545 6.75522C14.6177 8.1201 15.6213 9.80173 16.1752 11.6496C16.7292 13.4974 16.8163 15.4538 16.4288 17.3435C16.3363 17.7944 16.6269 18.2348 17.0777 18.3273C17.5286 18.4197 17.969 18.1292 18.0615 17.6783C18.5044 15.5186 18.4048 13.2828 17.7717 11.171C17.1386 9.05915 15.9917 7.13728 14.4337 5.57741C12.8757 4.01754 10.9552 2.86835 8.84418 2.2327C6.73313 1.59706 4.49741 1.49481 2.33716 1.9351C1.88619 2.02702 1.59512 2.46711 1.68704 2.91808C1.77895 3.36904 2.21904 3.66011 2.67001 3.5682Z" fill="#18202A"/>
<path d="M6.48454 8.50057C5.25628 8.22001 3.97366 8.29324 2.78531 8.71178C2.35121 8.86467 1.87536 8.6367 1.72247 8.20261C1.56958 7.76851 1.79754 7.29266 2.23164 7.13976C3.71708 6.61659 5.32035 6.52505 6.85568 6.87575C8.391 7.22645 9.79553 8.00503 10.9065 9.12126C12.0174 10.2375 12.7894 11.6457 13.1328 13.1827C13.4762 14.7196 13.377 16.3225 12.8468 17.8054C12.6919 18.2388 12.215 18.4645 11.7816 18.3095C11.3482 18.1546 11.1225 17.6777 11.2775 17.2443C11.7016 16.0579 11.7809 14.7757 11.5062 13.5461C11.2315 12.3165 10.614 11.19 9.72518 10.297C8.83642 9.40399 7.7128 8.78113 6.48454 8.50057Z" fill="#18202A"/>
<path fill-rule="evenodd" clip-rule="evenodd" d="M8.33329 14.9998C8.33329 16.8408 6.84091 18.3332 4.99996 18.3332C3.15901 18.3332 1.66663 16.8408 1.66663 14.9998C1.66663 13.1589 3.15901 11.6665 4.99996 11.6665C6.84091 11.6665 8.33329 13.1589 8.33329 14.9998ZM6.66663 14.9998C6.66663 15.9203 5.92043 16.6665 4.99996 16.6665C4.07948 16.6665 3.33329 15.9203 3.33329 14.9998C3.33329 14.0794 4.07948 13.3332 4.99996 13.3332C5.92043 13.3332 6.66663 14.0794 6.66663 14.9998Z" fill="#18202A"/>
</svg>
