<svg width="20" height="20" viewBox="0 0 20 20" fill="none" xmlns="http://www.w3.org/2000/svg">
<g clip-path="url(#clip0_2266_38137)">
<path fill-rule="evenodd" clip-rule="evenodd" d="M10 17.4997C14.1421 17.4997 17.5 14.1418 17.5 9.99967C17.5 5.85754 14.1421 2.49967 10 2.49967C5.85787 2.49967 2.5 5.85754 2.5 9.99967C2.5 14.1418 5.85787 17.4997 10 17.4997ZM10 19.1663C15.0626 19.1663 19.1667 15.0623 19.1667 9.99967C19.1667 4.93706 15.0626 0.833008 10 0.833008C4.93739 0.833008 0.833334 4.93706 0.833334 9.99967C0.833334 15.0623 4.93739 19.1663 10 19.1663Z" fill="#18202A"/>
<path d="M12.9167 7.44759C12.9167 9.79134 11.9444 11.6663 10 11.6663C8.05556 11.6663 7.08333 9.79134 7.08333 7.44759C7.08333 5.57259 8.05556 4.16634 10 4.16634C11.9444 4.16634 12.9167 5.57259 12.9167 7.44759Z" fill="#18202A"/>
<path d="M3.35187 16.3108C3.48611 15.779 3.75677 15.2837 4.16611 14.8824C5.66928 13.4085 7.72851 12.4997 10 12.4997C12.2715 12.4997 14.3307 13.4085 15.8339 14.8824C16.2432 15.2837 16.5139 15.779 16.6481 16.3108C14.9779 18.0697 12.617 19.1663 10 19.1663C7.38298 19.1663 5.02211 18.0697 3.35187 16.3108Z" fill="#18202A"/>
</g>
<defs>
<clipPath id="clip0_2266_38137">
<rect width="20" height="20" fill="white"/>
</clipPath>
</defs>
</svg>
