<svg width="20" height="20" viewBox="0 0 20 20" fill="none" xmlns="http://www.w3.org/2000/svg">
<path fill-rule="evenodd" clip-rule="evenodd" d="M2.5 4.99935C2.5 3.1584 3.99238 1.66602 5.83333 1.66602H14.1667C16.0076 1.66602 17.5 3.1584 17.5 4.99935V14.9993C17.5 16.8403 16.0076 18.3327 14.1667 18.3327H5.83333C3.99238 18.3327 2.5 16.8403 2.5 14.9993V4.99935ZM7.5 16.666V13.3331C7.5 12.4126 8.24619 11.6664 9.16667 11.6664H10.8333C11.7538 11.6664 12.5 12.4126 12.5 13.3331V16.666H7.5ZM5.83333 5.83268C5.83333 5.37244 6.20643 4.99935 6.66667 4.99935C7.1269 4.99935 7.5 5.37244 7.5 5.83268C7.5 6.29292 7.1269 6.66602 6.66667 6.66602C6.20643 6.66602 5.83333 6.29292 5.83333 5.83268ZM6.66667 7.49935C6.20643 7.49935 5.83333 7.87245 5.83333 8.33268C5.83333 8.79292 6.20643 9.16602 6.66667 9.16602C7.1269 9.16602 7.5 8.79292 7.5 8.33268C7.5 7.87245 7.1269 7.49935 6.66667 7.49935ZM9.16667 5.83268C9.16667 5.37244 9.53976 4.99935 10 4.99935C10.4602 4.99935 10.8333 5.37244 10.8333 5.83268C10.8333 6.29292 10.4602 6.66602 10 6.66602C9.53976 6.66602 9.16667 6.29292 9.16667 5.83268ZM10 7.49935C9.53976 7.49935 9.16667 7.87245 9.16667 8.33268C9.16667 8.79292 9.53976 9.16602 10 9.16602C10.4602 9.16602 10.8333 8.79292 10.8333 8.33268C10.8333 7.87245 10.4602 7.49935 10 7.49935ZM12.5 5.83268C12.5 5.37244 12.8731 4.99935 13.3333 4.99935C13.7936 4.99935 14.1667 5.37244 14.1667 5.83268C14.1667 6.29292 13.7936 6.66602 13.3333 6.66602C12.8731 6.66602 12.5 6.29292 12.5 5.83268ZM13.3333 7.49935C12.8731 7.49935 12.5 7.87245 12.5 8.33268C12.5 8.79292 12.8731 9.16602 13.3333 9.16602C13.7936 9.16602 14.1667 8.79292 14.1667 8.33268C14.1667 7.87245 13.7936 7.49935 13.3333 7.49935Z" fill="#18202A"/>
</svg>
