<svg width="20" height="20" viewBox="0 0 20 20" fill="none" xmlns="http://www.w3.org/2000/svg">
<path fill-rule="evenodd" clip-rule="evenodd" d="M10 5.41699C10.6904 5.41699 11.25 4.85735 11.25 4.16699C11.25 3.47664 10.6904 2.91699 10 2.91699C9.30965 2.91699 8.75001 3.47664 8.75001 4.16699C8.75001 4.85735 9.30965 5.41699 10 5.41699ZM12.5 4.16699C12.5 5.33189 11.7033 6.3107 10.625 6.58823V9.37533H16.0417C16.732 9.37533 17.2917 9.93497 17.2917 10.6253V13.4124C18.3699 13.6899 19.1667 14.6688 19.1667 15.8337C19.1667 17.2144 18.0474 18.3337 16.6667 18.3337C15.286 18.3337 14.1667 17.2144 14.1667 15.8337C14.1667 14.6688 14.9634 13.6899 16.0417 13.4124V10.6253L10.625 10.6253V13.4124C11.7033 13.6899 12.5 14.6688 12.5 15.8337C12.5 17.2144 11.3807 18.3337 10 18.3337C8.6193 18.3337 7.50001 17.2144 7.50001 15.8337C7.50001 14.6688 8.29674 13.6899 9.37501 13.4124V10.6253L3.95834 10.6253V13.4124C5.03661 13.6899 5.83334 14.6688 5.83334 15.8337C5.83334 17.2144 4.71406 18.3337 3.33334 18.3337C1.95263 18.3337 0.833344 17.2144 0.833344 15.8337C0.833344 14.6688 1.63008 13.6899 2.70834 13.4124V10.6253C2.70834 9.93497 3.26799 9.37533 3.95834 9.37533H9.37501V6.58823C8.29674 6.31071 7.50001 5.33189 7.50001 4.16699C7.50001 2.78628 8.6193 1.66699 10 1.66699C11.3807 1.66699 12.5 2.78628 12.5 4.16699ZM4.58334 15.8337C4.58334 16.524 4.0237 17.0837 3.33334 17.0837C2.64299 17.0837 2.08334 16.524 2.08334 15.8337C2.08334 15.1433 2.64299 14.5837 3.33334 14.5837C4.0237 14.5837 4.58334 15.1433 4.58334 15.8337ZM11.25 15.8337C11.25 16.524 10.6904 17.0837 10 17.0837C9.30965 17.0837 8.75001 16.524 8.75001 15.8337C8.75001 15.1433 9.30965 14.5837 10 14.5837C10.6904 14.5837 11.25 15.1433 11.25 15.8337ZM17.9167 15.8337C17.9167 16.524 17.357 17.0837 16.6667 17.0837C15.9763 17.0837 15.4167 16.524 15.4167 15.8337C15.4167 15.1433 15.9763 14.5837 16.6667 14.5837C17.357 14.5837 17.9167 15.1433 17.9167 15.8337Z" fill="#18202A"/>
</svg>
