<svg width="20" height="20" viewBox="0 0 20 20" fill="none" xmlns="http://www.w3.org/2000/svg">
<path d="M13.5194 2.80103C13.8881 2.43233 14.4511 2.39749 14.7768 2.72322C15.1025 3.04894 15.0677 3.61189 14.699 3.98059L14.1905 4.48909C14.6949 5.07321 15 5.83431 15 6.66667V13.3333C15 15.1743 13.5076 16.6667 11.6667 16.6667H3.33333C2.93832 16.6667 2.55935 16.598 2.20773 16.4718L1.48059 17.199C1.11189 17.5677 0.548943 17.6025 0.223216 17.2768C-0.102511 16.9511 -0.0676728 16.3881 0.301031 16.0194L13.5194 2.80103Z" fill="#18202A"/>
<path d="M0.0509845 13.9173L10.635 3.33333H3.33333C1.49238 3.33333 0 4.82572 0 6.66667V13.3333C0 13.5326 0.0174781 13.7277 0.0509845 13.9173Z" fill="#18202A"/>
<path d="M16.1797 6.91725C15.9622 7.07385 15.8333 7.32551 15.8333 7.59353V11.5731C15.8333 12.6745 15.9622 12.9261 16.1797 13.0828L18.6797 14.8828C19.231 15.2796 20 14.8857 20 14.2065V5.79353C20 5.11428 19.231 4.72036 18.6797 5.11725L16.1797 6.91725Z" fill="#18202A"/>
</svg>
