<svg width="20" height="20" viewBox="0 0 20 20" fill="none" xmlns="http://www.w3.org/2000/svg">
<path d="M8.33331 9.99992C8.33331 10.9204 7.58712 11.6666 6.66665 11.6666C5.74617 11.6666 4.99998 10.9204 4.99998 9.99992C4.99998 9.07944 5.74617 8.33325 6.66665 8.33325C7.58712 8.33325 8.33331 9.07944 8.33331 9.99992Z" fill="#18202A"/>
<path d="M6.04165 12.4999C5.00611 12.4999 4.16665 13.3394 4.16665 14.3749C4.16665 14.7201 4.44647 14.9999 4.79165 14.9999H8.54165C8.88682 14.9999 9.16665 14.7201 9.16665 14.3749C9.16665 13.3394 8.32718 12.4999 7.29165 12.4999H6.04165Z" fill="#18202A"/>
<path d="M11.4583 9.99992C11.1131 9.99992 10.8333 10.2797 10.8333 10.6249C10.8333 10.9701 11.1131 11.2499 11.4583 11.2499H15.2083C15.5535 11.2499 15.8333 10.9701 15.8333 10.6249C15.8333 10.2797 15.5535 9.99992 15.2083 9.99992H11.4583Z" fill="#18202A"/>
<path d="M10.8333 13.1249C10.8333 12.7797 11.1131 12.4999 11.4583 12.4999H15.2083C15.5535 12.4999 15.8333 12.7797 15.8333 13.1249C15.8333 13.4701 15.5535 13.7499 15.2083 13.7499H11.4583C11.1131 13.7499 10.8333 13.4701 10.8333 13.1249Z" fill="#18202A"/>
<path fill-rule="evenodd" clip-rule="evenodd" d="M7.49998 3.33325C7.49998 1.95254 8.61927 0.833252 9.99998 0.833252C11.3807 0.833252 12.5 1.95254 12.5 3.33325H15.8333C17.6743 3.33325 19.1666 4.82564 19.1666 6.66658V14.9999C19.1666 16.8409 17.6743 18.3333 15.8333 18.3333H4.16665C2.3257 18.3333 0.833313 16.8409 0.833313 14.9999V6.66658C0.833313 4.82564 2.3257 3.33325 4.16665 3.33325L7.49998 3.33325ZM9.99998 2.08325C10.6903 2.08325 11.25 2.6429 11.25 3.33325V5.41658H8.74998V3.33325C8.74998 2.6429 9.30962 2.08325 9.99998 2.08325ZM17.9166 6.66658C17.9166 5.51599 16.9839 4.58325 15.8333 4.58325H12.5V5.83325C12.5 6.29349 12.1269 6.66658 11.6666 6.66658H8.33331C7.87308 6.66658 7.49998 6.29349 7.49998 5.83325V4.58325H4.16665C3.01605 4.58325 2.08331 5.51599 2.08331 6.66658V14.9999C2.08331 16.1505 3.01605 17.0833 4.16665 17.0833H15.8333C16.9839 17.0833 17.9166 16.1505 17.9166 14.9999V6.66658Z" fill="#18202A"/>
</svg>
