<svg width="20" height="20" viewBox="0 0 20 20" fill="none" xmlns="http://www.w3.org/2000/svg">
<path fill-rule="evenodd" clip-rule="evenodd" d="M10 7.70801C10.3452 7.70801 10.625 7.98783 10.625 8.33301V16.8241L12.0581 15.3911C12.3021 15.147 12.6979 15.147 12.9419 15.3911C13.186 15.6351 13.186 16.0309 12.9419 16.275L10.4419 18.775C10.3247 18.8922 10.1658 18.958 10 18.958C9.83424 18.958 9.67527 18.8922 9.55806 18.775L7.05806 16.275C6.81398 16.0309 6.81398 15.6351 7.05806 15.3911C7.30214 15.147 7.69786 15.147 7.94194 15.3911L9.375 16.8241V8.33301C9.375 7.98783 9.65482 7.70801 10 7.70801Z" fill="#18202A"/>
<path d="M14.3953 5.36155L14.6764 6.31045L15.6645 6.25444C15.7203 6.25128 15.7765 6.24967 15.8333 6.24967C17.4442 6.24967 18.75 7.55551 18.75 9.16634C18.75 10.7772 17.4442 12.083 15.8333 12.083H11.875V13.333H15.8333C18.1345 13.333 20 11.4675 20 9.16634C20 6.86515 18.1345 4.99967 15.8333 4.99967C15.7529 4.99967 15.6731 5.00195 15.5938 5.00645C14.8788 2.59339 12.645 0.833008 10 0.833008C7.35501 0.833008 5.12118 2.59339 4.40622 5.00645C4.32694 5.00195 4.24707 4.99967 4.16667 4.99967C1.86548 4.99967 0 6.86515 0 9.16634C0 11.4675 1.86548 13.333 4.16667 13.333H8.125V12.083H4.16667C2.55584 12.083 1.25 10.7772 1.25 9.16634C1.25 7.55551 2.55584 6.24967 4.16667 6.24967C4.22345 6.24967 4.27973 6.25128 4.33548 6.25444L5.32357 6.31045L5.60472 5.36155C6.16673 3.46471 7.92364 2.08301 10 2.08301C12.0764 2.08301 13.8333 3.46471 14.3953 5.36155Z" fill="#18202A"/>
</svg>
