<svg width="20" height="20" viewBox="0 0 20 20" fill="none" xmlns="http://www.w3.org/2000/svg">
<path fill-rule="evenodd" clip-rule="evenodd" d="M5.83333 0.833008H9.16667V9.16634H13.1188C13.0458 9.23127 12.9743 9.2987 12.9044 9.36863L9.36887 12.9042C7.66751 14.6055 7.44858 17.2279 8.71207 19.1663H5.83333C3.99238 19.1663 2.5 17.674 2.5 15.833V4.16634C2.5 2.32539 3.99238 0.833008 5.83333 0.833008ZM17.0118 7.01152C17.1544 7.15403 17.2684 7.3197 17.3503 7.49967H10.8333V0.982708C11.0133 1.06461 11.179 1.17865 11.3215 1.32116L17.0118 7.01152ZM18.797 10.5471C17.4952 9.24539 15.3847 9.24539 14.0829 10.5471L13.4937 11.1364C13.1682 11.4618 13.1682 11.9895 13.4937 12.3149C13.8191 12.6403 14.3467 12.6403 14.6722 12.3149L15.2614 11.7257C15.9123 11.0748 16.9676 11.0748 17.6184 11.7257C18.2693 12.3765 18.2693 13.4318 17.6184 14.0827L17.0292 14.6719C16.7038 14.9974 16.7038 15.525 17.0292 15.8504C17.3546 16.1759 17.8823 16.1759 18.2077 15.8504L18.797 15.2612C20.0987 13.9594 20.0987 11.8489 18.797 10.5471ZM10.5474 18.7967C9.24563 17.495 9.24563 15.3844 10.5474 14.0827L11.1366 13.4934C11.4621 13.168 11.9897 13.168 12.3151 13.4934C12.6406 13.8189 12.6406 14.3465 12.3151 14.6719L11.7259 15.2612C11.075 15.9121 11.075 16.9673 11.7259 17.6182C12.3768 18.2691 13.432 18.2691 14.0829 17.6182L14.6722 17.029C14.9976 16.7035 15.5252 16.7035 15.8507 17.029C16.1761 17.3544 16.1761 17.882 15.8507 18.2075L15.2614 18.7967C13.9597 20.0985 11.8491 20.0985 10.5474 18.7967ZM12.9044 16.4397C12.579 16.1143 12.579 15.5866 12.9044 15.2612L15.2614 12.9042C15.5869 12.5787 16.1145 12.5787 16.4399 12.9042C16.7654 13.2296 16.7654 13.7572 16.4399 14.0827L14.0829 16.4397C13.7575 16.7651 13.2298 16.7651 12.9044 16.4397Z" fill="#18202A"/>
</svg>
