<svg width="20" height="20" viewBox="0 0 20 20" fill="none" xmlns="http://www.w3.org/2000/svg">
<path fill-rule="evenodd" clip-rule="evenodd" d="M14.7351 6.78073C14.9486 6.70682 15.178 6.66667 15.4167 6.66667C16.5673 6.66667 17.5 7.59941 17.5 8.75V13.88C17.5004 14.5741 17.3756 15.2615 17.1327 15.9029C16.8898 16.5443 16.5336 17.1271 16.0844 17.618C15.6353 18.109 15.102 18.4985 14.515 18.7642C13.928 19.0299 13.2989 19.1667 12.6635 19.1667H9.06234C8.38649 19.1661 7.72052 18.9894 7.11968 18.6514C6.51884 18.3133 6.00046 17.8236 5.60757 17.2229L4.56868 15.6391C3.76506 14.4107 3.33313 12.9385 3.33334 11.4286C3.33334 10.6077 3.63185 9.82038 4.16321 9.23991C4.61539 8.74593 5.20467 8.43616 5.83334 8.35482V2.08333C5.83334 0.93274 6.76608 0 7.91668 0C9.06727 0 10 0.93274 10 2.08333V5.04167C10.1346 5.01435 10.274 5 10.4167 5C10.5594 5 10.6987 5.01435 10.8333 5.04167C11.3626 5.14911 11.819 5.45718 12.1197 5.88305C12.1606 5.90046 12.1992 5.92209 12.2351 5.9474C12.4486 5.87348 12.678 5.83333 12.9167 5.83333C13.6203 5.83333 14.2425 6.18219 14.6197 6.71639C14.6606 6.73379 14.6992 6.75542 14.7351 6.78073ZM8.75001 9.375C8.75001 9.72018 9.02983 10 9.37501 10C9.72019 10 10 9.72018 10 9.375V6.31717L10.2487 6.26669C10.3019 6.25588 10.358 6.25 10.4167 6.25C10.7115 6.25 10.9717 6.40223 11.1215 6.63831L11.25 6.84072V9.375C11.25 9.72018 11.5298 10 11.875 10C12.2202 10 12.5 9.72018 12.5 9.375V7.18292L12.6209 7.137C12.7111 7.1027 12.8102 7.08333 12.9167 7.08333C13.2115 7.08333 13.4717 7.23556 13.6215 7.47164L13.75 7.67405V9.375C13.75 9.72018 14.0298 10 14.375 10C14.7202 10 15 9.72018 15 9.375V8.01625L15.1209 7.97033C15.2111 7.93603 15.3102 7.91667 15.4167 7.91667C15.8769 7.91667 16.25 8.28976 16.25 8.75V13.88C16.2503 14.4245 16.1523 14.9622 15.9637 15.4602C15.7751 15.9581 15.5011 16.4038 15.1622 16.7743C14.8234 17.1446 14.4272 17.4318 13.9995 17.6254C13.5722 17.8189 13.1185 17.9167 12.6635 17.9167H9.0634C8.60637 17.9163 8.15056 17.7971 7.73262 17.562C7.3139 17.3264 6.94148 16.9787 6.6537 16.5387L5.61473 14.9548L5.61421 14.954C4.94799 13.9353 4.58316 12.7025 4.58334 11.4288C4.58334 10.9054 4.77465 10.4232 5.08524 10.0839C5.34707 9.79788 5.67047 9.63631 5.99375 9.59448L7.08334 9.4535V2.08333C7.08334 1.6231 7.45644 1.25 7.91668 1.25C8.37691 1.25 8.75001 1.6231 8.75001 2.08333V9.375Z" fill="#18202A"/>
</svg>
