<svg width="20" height="20" viewBox="0 0 20 20" fill="none" xmlns="http://www.w3.org/2000/svg">
<g clip-path="url(#clip0_2266_37615)">
<path fill-rule="evenodd" clip-rule="evenodd" d="M0.833334 4.16634C0.833334 2.32539 2.32572 0.833008 4.16667 0.833008H15.8333C17.6743 0.833008 19.1667 2.32539 19.1667 4.16634V15.833C19.1667 17.674 17.6743 19.1663 15.8333 19.1663H4.16667C2.32572 19.1663 0.833334 17.674 0.833334 15.833V4.16634ZM10 9.16634C11.1111 9.16634 11.6667 8.12467 11.6667 6.82259C11.6667 5.78092 11.1111 4.99967 10 4.99967C8.88889 4.99967 8.33333 5.78092 8.33333 6.82259C8.33333 8.12467 8.88889 9.16634 10 9.16634ZM5.41667 9.16634C6.25 9.16634 6.66667 8.33301 6.66667 7.29134C6.66667 6.45801 6.25 5.83301 5.41667 5.83301C4.58333 5.83301 4.16667 6.45801 4.16667 7.29134C4.16667 8.33301 4.58333 9.16634 5.41667 9.16634ZM15.8333 7.29134C15.8333 8.33301 15.4167 9.16634 14.5833 9.16634C13.75 9.16634 13.3333 8.33301 13.3333 7.29134C13.3333 6.45801 13.75 5.83301 14.5833 5.83301C15.4167 5.83301 15.8333 6.45801 15.8333 7.29134ZM6.76067 10.1811C6.82388 10.1372 6.88801 10.0946 6.95302 10.0532C6.68394 10.0073 6.40693 9.9834 6.12406 9.9834C5.34095 9.9834 4.60264 10.167 3.95357 10.4916C3.4026 10.7672 3.1709 11.413 3.35482 12.0009C3.39054 12.1151 3.42856 12.2283 3.46885 12.3405C3.64428 12.8292 4.08018 13.1739 4.59445 13.2453C5.03059 13.3059 5.47537 13.341 5.92709 13.3489C5.89862 13.2699 5.87112 13.1905 5.84462 13.1107C5.50445 12.0856 5.78297 10.8595 6.76067 10.1811ZM14.0742 13.3461C14.1023 13.2681 14.1295 13.1896 14.1557 13.1106C14.4958 12.0856 14.2173 10.8595 13.2396 10.1811C13.1685 10.1318 13.0963 10.084 13.023 10.0379C13.2619 10.002 13.5068 9.9834 13.7563 9.9834C14.5989 9.9834 15.3896 10.1959 16.073 10.5679C16.6037 10.8568 16.817 11.4928 16.6319 12.0679C16.6051 12.1513 16.577 12.2342 16.5477 12.3165C16.3756 12.8005 15.9478 13.145 15.44 13.2228C14.9935 13.2913 14.5376 13.333 14.0742 13.3461ZM12.9928 13.7876C12.7228 14.3707 12.1782 14.7785 11.5438 14.8804C11.0409 14.9612 10.5253 15.0031 10.0001 15.0031C9.47493 15.0031 8.95938 14.9612 8.45651 14.8804C7.82204 14.7785 7.27747 14.3708 7.00748 13.7876C6.86668 13.4835 6.7423 13.17 6.63552 12.8482C6.39399 12.1204 6.60569 11.3029 7.23574 10.8657C8.02334 10.3192 8.97507 9.99967 10.0001 9.99967C11.0251 9.99967 11.9769 10.3192 12.7645 10.8657C13.3945 11.3029 13.6062 12.1204 13.3647 12.8482C13.2579 13.17 13.1336 13.4835 12.9928 13.7876Z" fill="#18202A"/>
</g>
<defs>
<clipPath id="clip0_2266_37615">
<rect width="20" height="20" fill="white"/>
</clipPath>
</defs>
</svg>
