<svg width="20" height="20" viewBox="0 0 20 20" fill="none" xmlns="http://www.w3.org/2000/svg">
<path fill-rule="evenodd" clip-rule="evenodd" d="M8.33332 8.54159C8.6785 8.54159 8.95832 8.82141 8.95832 9.16659V14.1666C8.95832 14.5118 8.6785 14.7916 8.33332 14.7916C7.98814 14.7916 7.70832 14.5118 7.70832 14.1666V9.16659C7.70832 8.82141 7.98814 8.54159 8.33332 8.54159Z" fill="#18202A"/>
<path fill-rule="evenodd" clip-rule="evenodd" d="M11.6667 8.54159C12.0118 8.54159 12.2917 8.82141 12.2917 9.16659V14.1666C12.2917 14.5118 12.0118 14.7916 11.6667 14.7916C11.3215 14.7916 11.0417 14.5118 11.0417 14.1666V9.16659C11.0417 8.82141 11.3215 8.54159 11.6667 8.54159Z" fill="#18202A"/>
<path fill-rule="evenodd" clip-rule="evenodd" d="M15.4167 5.41659H4.58332V14.1666C4.58332 16.2377 6.26226 17.9166 8.33332 17.9166H11.6667C13.7377 17.9166 15.4167 16.2377 15.4167 14.1666V5.41659ZM3.33332 4.16659V14.1666C3.33332 16.928 5.5719 19.1666 8.33332 19.1666H11.6667C14.4281 19.1666 16.6667 16.928 16.6667 14.1666V4.16659H3.33332Z" fill="#18202A"/>
<path d="M1.66666 4.79159C1.66666 4.44641 1.94648 4.16659 2.29166 4.16659H17.7083C18.0535 4.16659 18.3333 4.44641 18.3333 4.79159C18.3333 5.13676 18.0535 5.41659 17.7083 5.41659H2.29166C1.94648 5.41659 1.66666 5.13676 1.66666 4.79159Z" fill="#18202A"/>
<path fill-rule="evenodd" clip-rule="evenodd" d="M10.8333 2.08325H9.16666C8.4763 2.08325 7.91666 2.6429 7.91666 3.33325V4.16659H12.0833V3.33325C12.0833 2.6429 11.5237 2.08325 10.8333 2.08325ZM9.16666 0.833252C7.78594 0.833252 6.66666 1.95254 6.66666 3.33325V5.41659H13.3333V3.33325C13.3333 1.95254 12.214 0.833252 10.8333 0.833252H9.16666Z" fill="#18202A"/>
</svg>
