<svg width="20" height="20" viewBox="0 0 20 20" fill="none" xmlns="http://www.w3.org/2000/svg">
<path fill-rule="evenodd" clip-rule="evenodd" d="M17.2559 5.24408C17.5814 5.56951 17.5814 6.09715 17.2559 6.42259L9.75592 13.9226C9.43048 14.248 8.90285 14.248 8.57741 13.9226L5.83333 11.1785L3.08925 13.9226C2.76382 14.248 2.23618 14.248 1.91074 13.9226C1.58531 13.5972 1.58531 13.0695 1.91074 12.7441L5.24408 9.41074C5.56951 9.08531 6.09715 9.08531 6.42259 9.41074L9.16667 12.1548L16.0774 5.24408C16.4028 4.91864 16.9305 4.91864 17.2559 5.24408Z" fill="#18202A"/>
<path fill-rule="evenodd" clip-rule="evenodd" d="M10 5.83333C10 5.3731 10.3731 5 10.8333 5H16.6667C17.1269 5 17.5 5.3731 17.5 5.83333V11.6667C17.5 12.1269 17.1269 12.5 16.6667 12.5C16.2064 12.5 15.8333 12.1269 15.8333 11.6667V6.66667H10.8333C10.3731 6.66667 10 6.29357 10 5.83333Z" fill="#18202A"/>
</svg>
