<svg width="20" height="20" viewBox="0 0 20 20" fill="none" xmlns="http://www.w3.org/2000/svg">
<path d="M18.3333 5.00016C18.7936 5.00016 19.1667 4.62707 19.1667 4.16683C19.1667 3.70659 18.7936 3.3335 18.3333 3.3335H1.66667C1.20643 3.3335 0.833334 3.70659 0.833334 4.16683C0.833334 4.62707 1.20643 5.00016 1.66667 5.00016H18.3333Z" fill="#18202A"/>
<path d="M18.3333 10.8335C18.7936 10.8335 19.1667 10.4604 19.1667 10.0002C19.1667 9.53993 18.7936 9.16683 18.3333 9.16683H1.66667C1.20643 9.16683 0.833334 9.53993 0.833334 10.0002C0.833334 10.4604 1.20643 10.8335 1.66667 10.8335H18.3333Z" fill="#18202A"/>
<path d="M18.3333 16.6668C18.7936 16.6668 19.1667 16.2937 19.1667 15.8335C19.1667 15.3733 18.7936 15.0002 18.3333 15.0002H1.66667C1.20643 15.0002 0.833334 15.3733 0.833334 15.8335C0.833334 16.2937 1.20643 16.6668 1.66667 16.6668H18.3333Z" fill="#18202A"/>
</svg>
