<svg width="20" height="20" viewBox="0 0 20 20" fill="none" xmlns="http://www.w3.org/2000/svg">
<g clip-path="url(#clip0_2266_37627)">
<path fill-rule="evenodd" clip-rule="evenodd" d="M0.833334 4.16634C0.833334 2.32539 2.32572 0.833008 4.16667 0.833008H15.8333C17.6743 0.833008 19.1667 2.32539 19.1667 4.16634V11.0452C18.2218 10.3862 17.0727 9.99967 15.8333 9.99967C15.4772 9.99967 15.1285 10.0316 14.79 10.0927C14.4574 10.0212 14.1115 9.9834 13.7563 9.9834C13.5068 9.9834 13.2619 10.002 13.023 10.0379C13.0963 10.084 13.1685 10.1318 13.2396 10.1811C13.36 10.2647 13.4699 10.3566 13.5692 10.4553C13.2907 10.5728 13.0232 10.7112 12.7687 10.8686L12.7645 10.8657C11.9769 10.3192 11.0251 9.99967 10.0001 9.99967C8.97507 9.99967 8.02334 10.3192 7.23574 10.8657C6.60569 11.3029 6.39399 12.1204 6.63552 12.8482C6.7423 13.17 6.86668 13.4835 7.00748 13.7876C7.27747 14.3708 7.82204 14.7785 8.45651 14.8804C8.95938 14.9612 9.47493 15.0031 10.0001 15.0031L10.0586 15.0029C10.02 15.2741 10 15.5512 10 15.833C10 17.0724 10.3865 18.2215 11.0456 19.1663H4.16667C2.32572 19.1663 0.833334 17.674 0.833334 15.833V4.16634ZM10 9.16634C11.1111 9.16634 11.6667 8.12467 11.6667 6.82259C11.6667 5.78092 11.1111 4.99967 10 4.99967C8.88889 4.99967 8.33333 5.78092 8.33333 6.82259C8.33333 8.12467 8.88889 9.16634 10 9.16634ZM5.41667 9.16634C6.25 9.16634 6.66667 8.33301 6.66667 7.29134C6.66667 6.45801 6.25 5.83301 5.41667 5.83301C4.58333 5.83301 4.16667 6.45801 4.16667 7.29134C4.16667 8.33301 4.58333 9.16634 5.41667 9.16634ZM15.8333 7.29134C15.8333 8.33301 15.4167 9.16634 14.5833 9.16634C13.75 9.16634 13.3333 8.33301 13.3333 7.29134C13.3333 6.45801 13.75 5.83301 14.5833 5.83301C15.4167 5.83301 15.8333 6.45801 15.8333 7.29134ZM6.76067 10.1811C6.82388 10.1372 6.88801 10.0946 6.95302 10.0532C6.68394 10.0073 6.40693 9.9834 6.12406 9.9834C5.34095 9.9834 4.60264 10.167 3.95357 10.4916C3.4026 10.7672 3.1709 11.413 3.35482 12.0009C3.39054 12.1151 3.42856 12.2283 3.46885 12.3405C3.64428 12.8292 4.08018 13.1739 4.59445 13.2453C5.03059 13.3059 5.47537 13.341 5.92709 13.3489C5.89862 13.2699 5.87112 13.1905 5.84462 13.1107C5.50445 12.0856 5.78297 10.8595 6.76067 10.1811ZM20 15.833C20 18.1342 18.1345 19.9997 15.8333 19.9997C13.5321 19.9997 11.6667 18.1342 11.6667 15.833C11.6667 13.5318 13.5321 11.6663 15.8333 11.6663C18.1345 11.6663 20 13.5318 20 15.833ZM15.8333 13.333C15.3731 13.333 15 13.7061 15 14.1663V14.9997H14.1667C13.7064 14.9997 13.3333 15.3728 13.3333 15.833C13.3333 16.2932 13.7064 16.6663 14.1667 16.6663H15V17.4997C15 17.9599 15.3731 18.333 15.8333 18.333C16.2936 18.333 16.6667 17.9599 16.6667 17.4997V16.6663H17.5C17.9602 16.6663 18.3333 16.2932 18.3333 15.833C18.3333 15.3728 17.9602 14.9997 17.5 14.9997H16.6667V14.1663C16.6667 13.7061 16.2936 13.333 15.8333 13.333Z" fill="#18202A"/>
</g>
<defs>
<clipPath id="clip0_2266_37627">
<rect width="20" height="20" fill="white"/>
</clipPath>
</defs>
</svg>
