<svg width="20" height="20" viewBox="0 0 20 20" fill="none" xmlns="http://www.w3.org/2000/svg">
<path fill-rule="evenodd" clip-rule="evenodd" d="M15.197 1.67243C16.9463 1.77438 18.3334 3.22522 18.3334 5.00004V15.8334C18.3334 17.6743 16.841 19.1667 15 19.1667H5.00002C3.15907 19.1667 1.66669 17.6743 1.66669 15.8334V5.00004C1.66669 3.22522 3.05378 1.77438 4.80303 1.67243C5.09038 1.17111 5.63076 0.833374 6.25002 0.833374H13.75C14.3693 0.833374 14.9097 1.17111 15.197 1.67243ZM4.58335 2.95838C3.63242 3.15141 2.91669 3.99214 2.91669 5.00004V15.8334C2.91669 16.984 3.84943 17.9167 5.00002 17.9167H15C16.1506 17.9167 17.0834 16.984 17.0834 15.8334V5.00004C17.0834 3.99214 16.3676 3.15141 15.4167 2.95838V4.16671C15.4167 5.08718 14.6705 5.83337 13.75 5.83337H6.25002C5.32955 5.83337 4.58335 5.08718 4.58335 4.16671V2.95838ZM5.83335 2.50004C5.83335 2.26992 6.0199 2.08337 6.25002 2.08337H13.75C13.9801 2.08337 14.1667 2.26992 14.1667 2.50004V4.16671C14.1667 4.39683 13.9801 4.58337 13.75 4.58337H6.25002C6.0199 4.58337 5.83335 4.39683 5.83335 4.16671V2.50004ZM14.6086 8.77532C14.8527 8.53124 14.8527 8.13551 14.6086 7.89143C14.3646 7.64735 13.9688 7.64735 13.7247 7.89143L8.33335 13.2828L6.2753 11.2248C6.03122 10.9807 5.63549 10.9807 5.39141 11.2248C5.14733 11.4688 5.14733 11.8646 5.39141 12.1086L7.89141 14.6086C8.13549 14.8527 8.53122 14.8527 8.7753 14.6086L14.6086 8.77532Z" fill="#18202A"/>
</svg>
