<svg width="20" height="20" viewBox="0 0 20 20" fill="none" xmlns="http://www.w3.org/2000/svg">
<g clip-path="url(#clip0_3291_8716)">
<g clip-path="url(#clip1_3291_8716)">
<path d="M7.58629 6.61378C7.26158 6.83025 7.08335 7.11744 7.08335 7.5C7.08335 7.84518 6.80353 8.125 6.45835 8.125C6.11317 8.125 5.83335 7.84518 5.83335 7.5C5.83335 6.63256 6.28011 5.98225 6.89291 5.57372C7.48718 5.17754 8.24063 5 8.95835 5C10.7256 5 12.0833 6.28633 12.0833 7.91667C12.0833 8.76431 11.5704 9.6012 11.107 10.2158C10.7331 10.7117 10.3079 11.1658 10.032 11.4604C9.95468 11.543 9.889 11.6132 9.83956 11.6681C9.51516 12.0285 8.78099 12.8151 8.13323 13.506L7.90429 13.75H11.4583C11.8035 13.75 12.0833 14.0298 12.0833 14.375C12.0833 14.7202 11.8035 15 11.4583 15H6.45835C6.20888 15 5.98331 14.8517 5.88449 14.6226C5.78566 14.3935 5.8325 14.1277 6.00366 13.9462L6.36916 13.5581C6.59255 13.3208 6.89701 12.9969 7.22135 12.651C7.87233 11.9567 8.5965 11.1807 8.91047 10.8319C8.98044 10.7541 9.0622 10.6667 9.15219 10.5705C9.4278 10.2759 9.78069 9.89863 10.1089 9.46332C10.5596 8.86546 10.8333 8.31902 10.8333 7.91667C10.8333 7.047 10.1077 6.25 8.95835 6.25C8.42606 6.25 7.92951 6.38496 7.58629 6.61378Z" fill="#18202A"/>
<path d="M3.39011 5.05901C3.60973 5.16188 3.75002 5.3825 3.75002 5.62501V14.375C3.75002 14.7202 3.47019 15 3.12502 15C2.77984 15 2.50002 14.7202 2.50002 14.375V6.95941L1.02513 8.18848C0.759958 8.40946 0.365855 8.37363 0.144877 8.10846C-0.0761002 7.84328 -0.0402727 7.44918 0.2249 7.2282L2.7249 5.14487C2.9112 4.98962 3.1705 4.95615 3.39011 5.05901Z" fill="#18202A"/>
<path d="M15.5029 6.61378C15.1782 6.83025 15 7.11744 15 7.5C15 7.84518 14.7202 8.125 14.375 8.125C14.0298 8.125 13.75 7.84518 13.75 7.5C13.75 6.63256 14.1968 5.98225 14.8096 5.57372C15.4038 5.17754 16.1573 5 16.875 5C17.7191 5 18.4934 5.2413 19.0692 5.71546C19.6546 6.1976 20 6.89474 20 7.70833C20 8.75737 19.5253 9.52249 18.8102 9.99922L18.809 10L18.8102 10.0008C19.5253 10.4776 20 11.2427 20 12.2917C20 12.9348 19.8204 13.4591 19.515 13.8694C19.2149 14.2725 18.8223 14.5269 18.4523 14.6878C17.7338 15.0002 17.0042 15.0001 16.8779 15H16.875C16.2887 15 15.5434 14.8855 14.9212 14.5253C14.265 14.1454 13.75 13.4864 13.75 12.5C13.75 12.1548 14.0298 11.875 14.375 11.875C14.7202 11.875 15 12.1548 15 12.5C15 12.9719 15.2141 13.2505 15.5475 13.4435C15.9149 13.6562 16.4197 13.75 16.875 13.75C16.9658 13.75 17.4803 13.7474 17.9539 13.5415C18.1829 13.4419 18.3763 13.3057 18.5123 13.1229C18.6432 12.9472 18.75 12.6903 18.75 12.2917C18.75 11.6741 18.4955 11.2934 18.1169 11.0409C17.7066 10.7674 17.1125 10.625 16.4583 10.625C16.1132 10.625 15.8333 10.3452 15.8333 10C15.8333 9.65487 16.1132 9.37504 16.4583 9.37504C17.1125 9.37504 17.7066 9.23266 18.1168 8.95916C18.4955 8.7067 18.75 8.32597 18.75 7.70833C18.75 7.27192 18.5745 6.9274 18.2746 6.68037C17.9649 6.42536 17.4892 6.25 16.875 6.25C16.3427 6.25 15.8462 6.38496 15.5029 6.61378Z" fill="#18202A"/>
</g>
</g>
<defs>
<clipPath id="clip0_3291_8716">
<rect width="20" height="20" fill="white"/>
</clipPath>
<clipPath id="clip1_3291_8716">
<rect width="20" height="20" fill="white"/>
</clipPath>
</defs>
</svg>
