<svg width="20" height="20" viewBox="0 0 20 20" fill="none" xmlns="http://www.w3.org/2000/svg">
<path fill-rule="evenodd" clip-rule="evenodd" d="M12.1464 2.85355C11.9512 2.65829 11.9512 2.34171 12.1464 2.14645C12.3417 1.95118 12.6583 1.95118 12.8536 2.14645L16.6654 5.95825H16.6667V5.95958L16.8536 6.14645C17.0488 6.34171 17.0488 6.65829 16.8536 6.85355L12.8536 10.8536C12.6583 11.0488 12.3417 11.0488 12.1464 10.8536C11.9512 10.6583 11.9512 10.3417 12.1464 10.1464L15.3346 6.95825H8.02087C5.80021 6.95825 4 8.75846 4 10.9791C4 13.1998 5.80021 15 8.02087 15H13.5417C13.8178 15 14.0417 15.2239 14.0417 15.5C14.0417 15.7761 13.8178 16 13.5417 16H8.02087C5.24792 16 3 13.7521 3 10.9791C3 8.20617 5.24792 5.95825 8.02087 5.95825H15.2511L12.1464 2.85355Z" fill="#18202A"/>
</svg>
