<svg width="20" height="20" viewBox="0 0 20 20" fill="none" xmlns="http://www.w3.org/2000/svg">
<path fill-rule="evenodd" clip-rule="evenodd" d="M17.2442 5.59377C17.2137 5.52005 17.1685 5.45099 17.1086 5.39107C16.9866 5.26903 16.8266 5.20801 16.6667 5.20801H10.8333C10.4882 5.20801 10.2083 5.48783 10.2083 5.83301C10.2083 6.17819 10.4882 6.45801 10.8333 6.45801H15.1578L9.16667 12.4491L6.27528 9.55773C6.0312 9.31365 5.63547 9.31365 5.39139 9.55773L2.05806 12.8911C1.81398 13.1351 1.81398 13.5309 2.05806 13.7749C2.30214 14.019 2.69786 14.019 2.94194 13.7749L5.83333 10.8836L8.72472 13.7749C8.9688 14.019 9.36453 14.019 9.60861 13.7749L16.0417 7.34189V11.6663C16.0417 12.0115 16.3215 12.2913 16.6667 12.2913C17.0118 12.2913 17.2917 12.0115 17.2917 11.6663V5.83378C17.2917 5.8316 17.2917 5.82942 17.2916 5.82724C17.2909 5.74775 17.2751 5.66838 17.2442 5.59377Z" fill="#18202A"/>
</svg>
