<svg width="20" height="20" viewBox="0 0 20 20" fill="none" xmlns="http://www.w3.org/2000/svg">
<g clip-path="url(#clip0_2266_39091)">
<path fill-rule="evenodd" clip-rule="evenodd" d="M3.33334 4.22276L1.01752 1.90694C0.771952 1.66137 0.771952 1.26323 1.01752 1.01767C1.26308 0.772105 1.66122 0.772105 1.90679 1.01767L18.9825 18.0934C19.2281 18.339 19.2281 18.7371 18.9825 18.9827C18.7369 19.2282 18.3388 19.2282 18.0932 18.9827L16.6667 17.5561V18.3335C16.6667 19.0202 15.8827 19.4122 15.3333 19.0002L11 15.7502C10.4074 15.3057 9.5926 15.3057 9.00001 15.7502L4.66668 19.0002C4.11731 19.4122 3.33334 19.0202 3.33334 18.3335V4.22276ZM15.4167 16.3061V17.5002L11.75 14.7502C10.713 13.9724 9.28705 13.9724 8.25001 14.7502L4.58334 17.5002V6.25016H5.36074L15.4167 16.3061ZM15.4167 5.00016H7.65585L8.90585 6.25016H15.4167V12.761L16.6667 14.011V4.16683C16.6667 2.32588 15.1743 0.833496 13.3333 0.833496H6.66668C5.78584 0.833496 4.98481 1.17515 4.38886 1.73317L5.27351 2.61782C5.6426 2.28565 6.13103 2.0835 6.66668 2.0835H13.3333C14.4839 2.0835 15.4167 3.01624 15.4167 4.16683V5.00016Z" fill="#18202A"/>
</g>
<defs>
<clipPath id="clip0_2266_39091">
<rect width="20" height="20" fill="white"/>
</clipPath>
</defs>
</svg>
