<svg width="20" height="20" viewBox="0 0 20 20" fill="none" xmlns="http://www.w3.org/2000/svg">
<g clip-path="url(#clip0_2414_8763)">
<path fill-rule="evenodd" clip-rule="evenodd" d="M18.8842 12.2672C19.0687 11.5421 19.1667 10.7825 19.1667 9.99992C19.1667 4.93731 15.0627 0.833252 10 0.833252C4.93743 0.833252 0.833374 4.93731 0.833374 9.99992C0.833374 15.0625 4.93743 19.1666 10 19.1666C10.3125 19.1666 10.6213 19.151 10.9257 19.1204C10.2538 18.4612 10.1881 17.2572 11.0866 16.5833C11.1915 16.5046 11.2533 16.3811 11.2533 16.2499V14.8471C10.8457 14.9484 10.4242 14.9999 10 14.9999C9.20327 14.9999 8.41555 14.8179 7.71247 14.4664C7.00916 14.1147 6.40836 13.602 5.97759 12.9685C5.71881 12.5879 5.81756 12.0696 6.19815 11.8108C6.57874 11.552 7.09706 11.6508 7.35584 12.0314C7.61641 12.4146 7.99292 12.7432 8.45782 12.9757C8.92296 13.2083 9.45461 13.3333 10 13.3333C10.5455 13.3333 11.0771 13.2083 11.5423 12.9757C11.5561 12.9688 11.5699 12.9617 11.5836 12.9546C12.2177 11.4628 13.6967 10.4166 15.42 10.4166C16.8641 10.4166 18.1366 11.1512 18.8842 12.2672ZM7.08338 9.99992C7.77374 9.99992 8.33338 9.25373 8.33338 8.33325C8.33338 7.41278 7.77374 6.66659 7.08338 6.66659C6.39302 6.66659 5.83338 7.41278 5.83338 8.33325C5.83338 9.25373 6.39302 9.99992 7.08338 9.99992ZM14.1667 8.33325C14.1667 9.25373 13.6071 9.99992 12.9167 9.99992C12.2264 9.99992 11.6667 9.25373 11.6667 8.33325C11.6667 7.41278 12.2264 6.66659 12.9167 6.66659C13.6071 6.66659 14.1667 7.41278 14.1667 8.33325Z" fill="#18202A"/>
<path fill-rule="evenodd" clip-rule="evenodd" d="M18.3333 14.5834L18.3333 14.5952V16.0834C18.3333 16.7129 18.6297 17.3057 19.1333 17.6834C19.4109 17.8916 19.2637 18.3334 18.9166 18.3334H11.9166C11.5696 18.3334 11.4223 17.8916 11.7 17.6834C12.2036 17.3057 12.5 16.7129 12.5 16.0834V14.5834C12.5 14.5834 12.5 14.5834 12.5 14.5834C12.5 14.5834 12.5 14.5834 12.5 14.5834C12.5 12.9726 13.8058 11.6667 15.4166 11.6667C17.0275 11.6667 18.3333 12.9726 18.3333 14.5834ZM14.5833 19.1667C14.3532 19.1667 14.1666 19.3533 14.1666 19.5834C14.1666 19.8135 14.3532 20.0001 14.5833 20.0001H16.25C16.4801 20.0001 16.6666 19.8135 16.6666 19.5834C16.6666 19.3533 16.4801 19.1667 16.25 19.1667H14.5833Z" fill="#18202A"/>
</g>
<defs>
<clipPath id="clip0_2414_8763">
<rect width="20" height="20" fill="white"/>
</clipPath>
</defs>
</svg>
