<svg width="20" height="20" viewBox="0 0 20 20" fill="none" xmlns="http://www.w3.org/2000/svg">
<path fill-rule="evenodd" clip-rule="evenodd" d="M13.3081 0.808058C13.5521 0.563981 13.9479 0.563981 14.1919 0.808058L14.8527 1.4688C14.934 1.55016 15.066 1.55016 15.1473 1.4688L15.8081 0.808058C16.0521 0.563981 16.4479 0.563981 16.6919 0.808058C16.936 1.05214 16.936 1.44786 16.6919 1.69194L16.0312 2.35269C15.9498 2.43405 15.9498 2.56595 16.0312 2.64731L16.6919 3.30806C16.936 3.55214 16.936 3.94786 16.6919 4.19194C16.4479 4.43602 16.0521 4.43602 15.8081 4.19194L15.1473 3.5312C15.066 3.44984 14.934 3.44984 14.8527 3.5312L14.1919 4.19194C13.9479 4.43602 13.5521 4.43602 13.3081 4.19194C13.064 3.94786 13.064 3.55214 13.3081 3.30806L13.9688 2.64731C14.0502 2.56595 14.0502 2.43405 13.9688 2.35269L13.3081 1.69194C13.064 1.44786 13.064 1.05214 13.3081 0.808058ZM8.125 1.56585C8.125 1.22067 7.84518 0.94085 7.5 0.94085C7.15482 0.94085 6.875 1.22067 6.875 1.56585V2.50028C6.875 2.61534 6.78172 2.70862 6.66667 2.70862H5.73223C5.38705 2.70862 5.10723 2.98844 5.10723 3.33362C5.10723 3.67879 5.38705 3.95862 5.73223 3.95862L6.66667 3.95862C6.78173 3.95862 6.875 4.05189 6.875 4.16695V5.10138C6.875 5.44656 7.15482 5.72638 7.5 5.72638C7.84518 5.72638 8.125 5.44656 8.125 5.10138L8.125 4.16695C8.125 4.05189 8.21827 3.95862 8.33333 3.95862H9.26777C9.61294 3.95862 9.89277 3.67879 9.89277 3.33362C9.89277 2.98844 9.61294 2.70862 9.26777 2.70862L8.33333 2.70862C8.21827 2.70862 8.125 2.61534 8.125 2.50028V1.56585ZM13.8215 6.32124L13.6785 6.17826C13.0276 5.52739 11.9724 5.52739 11.3215 6.17826L10.1726 7.32716L12.6726 9.82716L13.8215 8.67826C14.4724 8.02739 14.4724 6.97211 13.8215 6.32124ZM2.01185 15.4879L8.99408 8.50567L11.4941 11.0057L4.51185 17.9879C3.86097 18.6388 2.8057 18.6388 2.15482 17.9879L2.01185 17.8449C1.36097 17.1941 1.36097 16.1388 2.01185 15.4879ZM17.2917 10.7325C17.2917 10.3873 17.0118 10.1075 16.6667 10.1075C16.3215 10.1075 16.0417 10.3873 16.0417 10.7325V11.6669C16.0417 11.782 15.9484 11.8753 15.8333 11.8753H14.8989C14.5537 11.8753 14.2739 12.1551 14.2739 12.5003C14.2739 12.8455 14.5537 13.1253 14.8989 13.1253H15.8333C15.9484 13.1253 16.0417 13.2186 16.0417 13.3336V14.2681C16.0417 14.6132 16.3215 14.8931 16.6667 14.8931C17.0118 14.8931 17.2917 14.6132 17.2917 14.2681V13.3336C17.2917 13.2186 17.3849 13.1253 17.5 13.1253H18.4344C18.7796 13.1253 19.0594 12.8455 19.0594 12.5003C19.0594 12.1551 18.7796 11.8753 18.4344 11.8753H17.5C17.3849 11.8753 17.2917 11.782 17.2917 11.6669V10.7325Z" fill="#18202A"/>
</svg>
