<svg width="20" height="20" viewBox="0 0 20 20" fill="none" xmlns="http://www.w3.org/2000/svg">
<g clip-path="url(#clip0_3444_9529)">
<path fill-rule="evenodd" clip-rule="evenodd" d="M13.3334 1.6665C14.7141 1.6665 15.8334 2.78579 15.8334 4.1665C17.2141 4.1665 18.3334 5.28579 18.3334 6.6665V12.4998C18.3334 13.8805 17.2141 14.9998 15.8334 14.9998V15.8332C15.8334 17.2139 14.7141 18.3332 13.3334 18.3332H6.66669C5.28598 18.3332 4.16669 17.2139 4.16669 15.8332V11.6665C4.16669 10.2858 5.28598 9.1665 6.66669 9.1665H13.3334C14.7141 9.1665 15.8334 10.2858 15.8334 11.6665V13.7498C16.5237 13.7498 17.0834 13.1902 17.0834 12.4998V6.6665C17.0834 5.97615 16.5237 5.4165 15.8334 5.4165H4.16669C3.47633 5.4165 2.91669 5.97615 2.91669 6.6665V12.4998C2.91669 13.1902 3.47633 13.7498 4.16669 13.7498V14.9998C2.78597 14.9998 1.66669 13.8805 1.66669 12.4998V6.6665C1.66669 5.28579 2.78598 4.1665 4.16669 4.1665C4.16669 2.78579 5.28598 1.6665 6.66669 1.6665H13.3334ZM5.41669 4.1665C5.41669 3.47615 5.97633 2.9165 6.66669 2.9165H13.3334C14.0237 2.9165 14.5834 3.47615 14.5834 4.1665H5.41669ZM5.41669 11.6665C5.41669 10.9761 5.97633 10.4165 6.66669 10.4165H13.3334C14.0237 10.4165 14.5834 10.9761 14.5834 11.6665V15.8332C14.5834 16.5235 14.0237 17.0832 13.3334 17.0832H6.66669C5.97633 17.0832 5.41669 16.5235 5.41669 15.8332V11.6665Z" fill="#18202A"/>
<path d="M15 8.33317C15.4603 8.33317 15.8334 7.96007 15.8334 7.49984C15.8334 7.0396 15.4603 6.6665 15 6.6665C14.5398 6.6665 14.1667 7.0396 14.1667 7.49984C14.1667 7.96007 14.5398 8.33317 15 8.33317Z" fill="#18202A"/>
</g>
<defs>
<clipPath id="clip0_3444_9529">
<rect width="20" height="20" fill="white"/>
</clipPath>
</defs>
</svg>
