<svg width="20" height="20" viewBox="0 0 20 20" fill="none" xmlns="http://www.w3.org/2000/svg">
<path d="M2.68417 2.68425C2.92973 2.43869 3.32787 2.43869 3.57343 2.68425L17.3158 16.4266C17.5614 16.6722 17.5614 17.0703 17.3158 17.3159C17.0703 17.5615 16.6721 17.5615 16.4266 17.3159L2.68417 3.57352C2.4386 3.32796 2.4386 2.92982 2.68417 2.68425Z" fill="#18202A"/>
<path d="M5.32495 4.43696C4.15434 5.61977 3.49845 7.20151 3.49845 8.84929C3.49845 11.9993 2.72248 13.8586 2.08225 14.8566C1.86391 15.1969 2.13542 15.8334 2.53978 15.8334H16.7214L15.4714 14.5834H3.65387C4.24524 13.3167 4.74845 11.4661 4.74845 8.84929C4.74845 7.53754 5.26947 6.2724 6.20885 5.32086L5.32495 4.43696Z" fill="#18202A"/>
<path d="M15.8112 13.1555C15.4806 12.0315 15.2515 10.6148 15.2515 8.84929C15.2515 7.50659 14.7056 6.21271 13.7239 5.25402C12.7412 4.29434 11.4022 3.75008 9.99999 3.75008C8.99669 3.75008 8.02575 4.02871 7.19454 4.53878L6.2906 3.63484C7.20254 3.01617 8.26464 2.63404 9.37567 2.5294C9.37522 2.51969 9.37499 2.50991 9.37499 2.50008V1.66675C9.37499 1.32157 9.65482 1.04175 9.99999 1.04175C10.3452 1.04175 10.625 1.32157 10.625 1.66675V2.50008C10.625 2.50991 10.6248 2.51969 10.6243 2.5294C12.1195 2.67022 13.5261 3.31359 14.5973 4.35972C15.8166 5.55043 16.5015 7.16537 16.5015 8.84929C16.5015 11.9993 17.2775 13.8586 17.9177 14.8566C18.0002 14.9852 18.0128 15.1561 17.9747 15.3189L15.8112 13.1555Z" fill="#18202A"/>
<path d="M8.58509 18.6949C8.17616 18.3885 7.87745 17.958 7.73361 17.4677L8.93305 17.1158C9.0009 17.3471 9.14177 17.55 9.33449 17.6944C9.52721 17.8388 9.76142 17.9167 10.0021 17.9167C10.2427 17.9167 10.4769 17.8388 10.6697 17.6944C10.8624 17.55 11.0033 17.3471 11.0711 17.1158L12.2705 17.4677C12.1267 17.958 11.828 18.3885 11.4191 18.6949C11.0101 19.0012 10.513 19.1667 10.0021 19.1667C9.49116 19.1667 8.99402 19.0012 8.58509 18.6949Z" fill="#18202A"/>
</svg>
