<svg width="20" height="20" viewBox="0 0 20 20" fill="none" xmlns="http://www.w3.org/2000/svg">
<path fill-rule="evenodd" clip-rule="evenodd" d="M2.68417 2.68417C2.92974 2.43861 3.32788 2.43861 3.57344 2.68417L17.3158 16.4266C17.3221 16.4329 17.3283 16.4393 17.3343 16.4458L17.4126 16.5241L17.3971 16.5263C17.5575 16.7702 17.5304 17.1013 17.3158 17.3158C17.0703 17.5614 16.6721 17.5614 16.4266 17.3158L14.887 15.7763C14.8067 15.9774 14.7216 16.176 14.6319 16.3721C14.1886 17.3415 13.2785 18.0128 12.2241 18.1696C11.4984 18.2774 10.7557 18.3333 9.99992 18.3333C9.24416 18.3333 8.50147 18.2774 7.77573 18.1696C6.72135 18.0128 5.81119 17.3415 5.36789 16.3721C5.21147 16.0301 5.06908 15.6802 4.94148 15.3234C4.50515 14.1031 4.87033 12.7108 5.96178 12.0121C7.11289 11.2753 8.47859 10.8442 9.94427 10.8335L6.62557 7.51484C6.65292 7.6762 6.66659 7.84544 6.66659 8.02083C6.66659 9.58333 5.97215 10.8333 4.58326 10.8333C3.19437 10.8333 2.49992 9.58333 2.49992 8.02083C2.49992 6.77083 3.19437 5.83333 4.58326 5.83333C4.7189 5.83333 4.84791 5.84227 4.97031 5.85958L2.68417 3.57344C2.43861 3.32788 2.43861 2.92974 2.68417 2.68417ZM13.9139 14.8031L11.3372 12.2265C10.9067 12.1327 10.4593 12.0833 9.99992 12.0833C8.75908 12.0833 7.60621 12.4436 6.63572 13.0649C6.10903 13.4021 5.84697 14.1431 6.1185 14.9025C6.23405 15.2256 6.36299 15.5425 6.50467 15.8523C6.76807 16.4283 7.31407 16.8372 7.95951 16.9332C8.62461 17.032 9.30588 17.0833 9.99992 17.0833C10.694 17.0833 11.3752 17.032 12.0403 16.9332C12.6858 16.8372 13.2318 16.4283 13.4952 15.8523C13.6368 15.5425 13.7658 15.2256 13.8813 14.9025C13.8932 14.8693 13.904 14.8362 13.9139 14.8031ZM5.11391 9.30748C5.27568 9.07089 5.41659 8.63991 5.41659 8.02083C5.41659 7.61646 5.3049 7.39387 5.2115 7.28879C5.13763 7.20569 4.97893 7.08333 4.58326 7.08333C4.18759 7.08333 4.02889 7.20569 3.95502 7.28879C3.86161 7.39387 3.74992 7.61646 3.74992 8.02083C3.74992 8.63991 3.89083 9.07089 4.05261 9.30748C4.18032 9.49426 4.32484 9.58333 4.58326 9.58333C4.84167 9.58333 4.98619 9.49426 5.11391 9.30748Z" fill="#18202A"/>
<path d="M11.2499 6.25C11.2499 7.10763 11.083 7.77014 10.8463 8.19006L11.7496 9.09333C12.2498 8.40764 12.4999 7.39135 12.4999 6.25C12.4999 4.58333 11.6666 3.33333 9.99992 3.33333C8.77767 3.33333 8.00359 4.00559 7.67768 5.02143L8.7531 6.09685C8.77662 5.53933 8.92765 5.16424 9.10101 4.94754C9.25976 4.74909 9.5119 4.58333 9.99992 4.58333C10.4879 4.58333 10.7401 4.74909 10.8988 4.94754C11.0876 5.18352 11.2499 5.60732 11.2499 6.25Z" fill="#18202A"/>
<path d="M18.6523 15.996L17.7604 15.1041C17.9567 14.9735 18.1037 14.7819 18.177 14.5553C18.332 14.0759 18.1256 13.6786 17.8571 13.5372C17.3718 13.2815 16.8428 13.0972 16.2831 12.9988C16.1264 12.5177 15.8781 12.0643 15.5357 11.6695C16.5821 11.7002 17.568 11.972 18.4398 12.4313C19.3321 12.9014 19.6767 13.9802 19.3663 14.9399C19.2296 15.3626 18.9788 15.7242 18.6523 15.996Z" fill="#18202A"/>
<path fill-rule="evenodd" clip-rule="evenodd" d="M17.4999 8.02083C17.4999 9.58333 16.8055 10.8333 15.4166 10.8333C14.0277 10.8333 13.3333 9.58333 13.3333 8.02083C13.3333 6.77083 14.0277 5.83333 15.4166 5.83333C16.8055 5.83333 17.4999 6.77083 17.4999 8.02083ZM16.2499 8.02083C16.2499 8.63991 16.109 9.07089 15.9472 9.30748C15.8195 9.49426 15.675 9.58333 15.4166 9.58333C15.1582 9.58333 15.0137 9.49426 14.8859 9.30748C14.7242 9.07089 14.5833 8.63991 14.5833 8.02083C14.5833 7.61646 14.6949 7.39387 14.7884 7.28879C14.8622 7.20569 15.0209 7.08333 15.4166 7.08333C15.8123 7.08333 15.971 7.20569 16.0448 7.28879C16.1382 7.39387 16.2499 7.61646 16.2499 8.02083Z" fill="#18202A"/>
<path d="M1.67301 12.2905C2.52202 11.8936 3.46847 11.6705 4.46664 11.6667C4.12968 12.0543 3.88371 12.4986 3.72614 12.9703C3.18787 13.0463 2.6762 13.2014 2.2023 13.4229C1.89633 13.5659 1.65622 14.003 1.82646 14.5329C1.96028 14.9495 2.32542 15.255 2.78909 15.3123C3.0751 15.3476 3.36395 15.3741 3.65538 15.3916C3.68663 15.5105 3.723 15.6282 3.76446 15.7442C3.87569 16.0552 3.99718 16.3614 4.1285 16.6623C3.62443 16.6503 3.12652 16.6134 2.63594 16.5528C1.70374 16.4378 0.923633 15.8095 0.636359 14.9153C0.308019 13.8932 0.700457 12.7451 1.67301 12.2905Z" fill="#18202A"/>
</svg>
