<svg width="20" height="20" viewBox="0 0 20 20" fill="none" xmlns="http://www.w3.org/2000/svg">
<g clip-path="url(#clip0_2266_39010)">
<path d="M11.0472 5.20825C12.1947 5.20825 13.125 6.13853 13.125 7.2861C13.125 8.13078 12.6145 8.88595 11.843 9.20552L11.7042 9.25732L11.4477 9.34284C10.9942 9.49401 10.6769 9.89737 10.6308 10.3658L10.625 10.4842V10.8333C10.625 11.1784 10.3452 11.4583 10 11.4583C9.6836 11.4583 9.4221 11.2231 9.38072 10.9181L9.37501 10.8333V10.4842C9.37501 9.48111 9.98479 8.58494 10.9046 8.21154L11.0524 8.15699L11.3089 8.07147C11.647 7.95878 11.875 7.64243 11.875 7.2861C11.875 6.86155 11.5554 6.51164 11.1437 6.46382L11.0472 6.45825H8.67852C8.37283 6.45825 8.12501 6.70607 8.12501 7.01176C8.12501 7.1292 8.16233 7.2428 8.23041 7.33668L8.28713 7.40315L8.35862 7.47464C8.6027 7.71872 8.6027 8.11445 8.35862 8.35853C8.13673 8.58042 7.78951 8.60059 7.54483 8.41904L7.47474 8.35853L7.40324 8.28704C7.06502 7.94881 6.87501 7.49008 6.87501 7.01176C6.87501 6.05902 7.61379 5.27882 8.54972 5.21278L8.67852 5.20825H11.0472Z" fill="#18202A"/>
<path d="M10.8333 13.3333C10.8333 12.873 10.4602 12.4999 10 12.4999C9.53977 12.4999 9.16668 12.873 9.16668 13.3333C9.16668 13.7935 9.53977 14.1666 10 14.1666C10.4602 14.1666 10.8333 13.7935 10.8333 13.3333Z" fill="#18202A"/>
<path fill-rule="evenodd" clip-rule="evenodd" d="M10 19.1666C15.0626 19.1666 19.1667 15.0625 19.1667 9.99992C19.1667 4.93731 15.0626 0.833252 10 0.833252C4.9374 0.833252 0.833344 4.93731 0.833344 9.99992C0.833344 15.0625 4.9374 19.1666 10 19.1666ZM17.9167 9.99992C17.9167 14.3722 14.3723 17.9166 10 17.9166C5.62776 17.9166 2.08334 14.3722 2.08334 9.99992C2.08334 5.62766 5.62776 2.08325 10 2.08325C14.3723 2.08325 17.9167 5.62766 17.9167 9.99992Z" fill="#18202A"/>
</g>
<defs>
<clipPath id="clip0_2266_39010">
<rect width="20" height="20" fill="white"/>
</clipPath>
</defs>
</svg>
