<svg width="20" height="20" viewBox="0 0 20 20" fill="none" xmlns="http://www.w3.org/2000/svg">
<g clip-path="url(#clip0_2266_36286)">
<path fill-rule="evenodd" clip-rule="evenodd" d="M1.48059 0.30103C1.11189 -0.0676728 0.548942 -0.102511 0.223215 0.223215C-0.102511 0.548942 -0.0676728 1.11189 0.30103 1.48059L1.29446 2.47402C1.00146 2.97013 0.833333 3.54877 0.833333 4.16667V11.6667C0.833333 13.5076 2.32572 15 4.16667 15H4.62121L4.13803 17.3109C3.98958 18.0208 4.75617 18.5684 5.37962 18.1977L10.7576 15H13.8204L16.0194 17.199C16.3881 17.5677 16.9511 17.6025 17.2768 17.2768C17.6025 16.9511 17.5677 16.3881 17.199 16.0194L1.48059 0.30103ZM19.1667 11.6667C19.1667 12.749 18.6508 13.7109 17.8515 14.3198L4.36508 0.833333H15.8333C17.6743 0.833333 19.1667 2.32572 19.1667 4.16667V11.6667Z" fill="#18202A"/>
</g>
<defs>
<clipPath id="clip0_2266_36286">
<rect width="20" height="20" fill="white"/>
</clipPath>
</defs>
</svg>
