<svg width="20" height="20" viewBox="0 0 20 20" fill="none" xmlns="http://www.w3.org/2000/svg">
<g clip-path="url(#clip0_2266_36529)">
<path d="M14.2326 1.86706L14.2417 1.87178C14.2775 1.8905 14.3131 1.90945 14.3486 1.92863C14.3857 1.94864 14.4232 1.96921 14.4605 1.99005C14.4922 2.00772 14.5233 2.02533 14.5543 2.04313C14.6007 2.06971 14.6469 2.09674 14.6928 2.12415C14.7159 2.13795 14.7392 2.152 14.7624 2.16615C14.8177 2.19986 14.8724 2.23394 14.9266 2.26857C14.9421 2.27849 14.9579 2.28863 14.9736 2.29882C15.0248 2.33191 15.0754 2.3654 15.1257 2.39937C15.1448 2.41226 15.1638 2.42522 15.1828 2.43825L15.1946 2.4464C15.3302 2.53981 15.4631 2.63678 15.5933 2.73717C15.6148 2.75375 15.6362 2.77043 15.6576 2.7872C15.698 2.81892 15.7379 2.85086 15.7776 2.88312C15.8083 2.90803 15.8388 2.93317 15.8692 2.95851C15.9072 2.99026 15.9453 3.02254 15.9831 3.05512C16.0035 3.07277 16.0237 3.09034 16.0438 3.10799C16.1662 3.21536 16.2858 3.32606 16.4023 3.43984L16.421 3.45807C16.4422 3.47888 16.4633 3.4998 16.4843 3.52082C16.5196 3.55613 16.5545 3.5917 16.5892 3.62756C16.6024 3.64115 16.6152 3.65448 16.628 3.66784C16.7259 3.77034 16.8219 3.87556 16.9155 3.98299C16.933 4.00313 16.9508 4.02367 16.9684 4.04428L17.0108 4.0942C17.0168 4.10132 17.0228 4.10845 17.0288 4.11559C17.0659 4.15993 17.1029 4.20485 17.1394 4.25012C18.4072 5.82194 19.1667 7.82236 19.1667 10.0002C19.1667 12.107 18.4559 14.0479 17.2611 15.596L17.406 15.403C17.3442 15.4876 17.281 15.5711 17.2163 15.6534C17.1781 15.7021 17.1397 15.7502 17.1007 15.7978C17.0799 15.8233 17.0588 15.8488 17.0376 15.8742C16.93 16.003 16.8188 16.1289 16.7042 16.2517C16.6803 16.2774 16.6563 16.3028 16.6322 16.328C16.6025 16.3592 16.5725 16.3902 16.5422 16.421C16.509 16.4548 16.4755 16.4885 16.4417 16.5218C16.4071 16.556 16.3721 16.59 16.3369 16.6237C16.3178 16.642 16.2986 16.6602 16.2794 16.6783C16.1532 16.797 16.0238 16.912 15.8912 17.0234C15.8671 17.0436 15.8425 17.0641 15.8177 17.0844C15.7842 17.112 15.7505 17.1393 15.7167 17.1663C15.6758 17.199 15.6347 17.2312 15.5934 17.2631C15.479 17.3513 15.3625 17.4369 15.244 17.5197C15.2298 17.5296 15.2156 17.5395 15.2013 17.5493C15.0588 17.6477 14.9134 17.7421 14.7652 17.8325C14.746 17.8441 14.7275 17.8554 14.7088 17.8666C14.6564 17.898 14.603 17.9293 14.5493 17.9601C14.5216 17.9759 14.4938 17.9917 14.466 18.0072C14.3231 18.0871 14.1783 18.163 14.0313 18.2351L13.9995 18.2506C13.9761 18.262 13.9527 18.2732 13.9292 18.2844C13.8812 18.3072 13.8331 18.3295 13.7848 18.3515C13.7477 18.3683 13.7102 18.385 13.6726 18.4015C13.6365 18.4173 13.6007 18.4327 13.5648 18.4479C13.5229 18.4655 13.4809 18.4829 13.4387 18.5C13.399 18.5161 13.3587 18.5321 13.3183 18.5478C13.2609 18.5701 13.2034 18.5917 13.1456 18.6129C13.0853 18.6349 13.0248 18.6563 12.964 18.677C12.9463 18.6831 12.9291 18.6889 12.9119 18.6946C12.843 18.7177 12.7732 18.7402 12.7031 18.7618C12.6798 18.7689 12.6568 18.7759 12.6338 18.7828C12.5734 18.8009 12.5123 18.8185 12.451 18.8355C12.4248 18.8427 12.3987 18.8498 12.3725 18.8568C12.2014 18.9026 12.0283 18.9435 11.8533 18.9794C11.8479 18.9805 11.8431 18.9815 11.8383 18.9824L11.6477 19.0191C11.1132 19.1162 10.5625 19.1668 10 19.1668C5.84478 19.1668 2.33529 16.4021 1.21074 12.6118L1.2105 12.611L1.19751 12.5668C1.17387 12.4856 1.15132 12.4039 1.12988 12.3217L1.2105 12.611C1.17248 12.4828 1.13718 12.3534 1.10468 12.2229C1.08839 12.1575 1.07288 12.0922 1.05808 12.0266C1.05056 11.9933 1.04317 11.9596 1.03596 11.926C1.02354 11.8678 1.01166 11.8095 1.00033 11.7509C0.989139 11.693 0.978489 11.6349 0.968387 11.5767C0.956259 11.5067 0.94496 11.4367 0.934462 11.3664C0.929295 11.3319 0.924326 11.2972 0.919546 11.2625C0.908683 11.1837 0.898816 11.1044 0.88997 11.0249C0.88857 11.0123 0.887174 10.9995 0.885805 10.9868C0.875541 10.8908 0.866787 10.7948 0.859522 10.6983C0.857056 10.6655 0.854788 10.6331 0.852687 10.6006C0.847681 10.5232 0.843612 10.4451 0.840531 10.3668C0.839592 10.3429 0.838754 10.3193 0.838007 10.2957C0.834898 10.1976 0.833334 10.0991 0.833334 10.0002C0.833334 4.93755 4.93739 0.833496 10 0.833496C10.0944 0.833496 10.1885 0.834923 10.2822 0.837757L10 0.833496C10.1015 0.833496 10.2026 0.835146 10.3033 0.83842C10.386 0.841106 10.4686 0.844899 10.5509 0.849778C10.5726 0.851063 10.5949 0.852462 10.6171 0.85394C10.679 0.858057 10.7403 0.862753 10.8015 0.868049C10.8311 0.870612 10.8605 0.873306 10.8899 0.876138C10.9457 0.881512 11.0016 0.887414 11.0573 0.893817C11.0962 0.89828 11.135 0.902992 11.1738 0.907947C11.3412 0.929351 11.507 0.955226 11.6712 0.985478C11.6962 0.990082 11.7207 0.994697 11.7451 0.99941C11.8068 1.0113 11.8685 1.02386 11.93 1.03703C11.9578 1.04298 11.9856 1.04907 12.0133 1.05529C12.0624 1.0663 12.1116 1.07774 12.1605 1.08957C12.2066 1.10071 12.2521 1.11208 12.2975 1.1238C12.3382 1.13429 12.3788 1.14508 12.4194 1.15614C12.4512 1.16483 12.4833 1.17379 12.5154 1.18291C12.6814 1.23019 12.845 1.28186 13.0065 1.33791C13.0291 1.34576 13.052 1.3538 13.0748 1.36192C13.1343 1.3831 13.1934 1.40484 13.2522 1.42717C13.2704 1.43408 13.2885 1.44101 13.3066 1.44799C13.3689 1.47211 13.4309 1.49687 13.4925 1.52228C13.5158 1.53188 13.5391 1.54161 13.5623 1.55143C13.6221 1.57665 13.6815 1.60251 13.7407 1.62897C13.7564 1.63601 13.7725 1.64325 13.7885 1.65053C13.8555 1.68099 13.9216 1.71202 13.9873 1.74381C13.9988 1.74938 14.0102 1.75489 14.0215 1.76043L14.0313 1.76521C14.0989 1.79836 14.166 1.83231 14.2326 1.86706ZM11.25 6.25016C12.5 7.50016 12.9167 10.4168 11.25 10.4168C9.58333 10.4168 9.58333 11.6668 10 12.9168C10.2861 13.775 9.14328 13.9913 7.98638 12.9168C7.45825 12.4263 7.52288 10.9815 6.66665 10.4168C4.5079 8.9931 3.38898 10.5705 2.65829 11.5389C3.36802 14.9431 6.3854 17.5002 10 17.5002C10.4368 17.5002 10.865 17.4628 11.2813 17.3911C11.1738 15.0002 13.3396 13.2197 16.126 14.3257C16.9919 13.1041 17.5 11.6115 17.5 10.0002C17.5 7.52135 16.2975 5.32341 14.4439 3.9579C11.9138 3.7082 10.4181 5.4183 11.25 6.25016Z" fill="#18202A"/>
</g>
<defs>
<clipPath id="clip0_2266_36529">
<rect width="20" height="20" fill="white"/>
</clipPath>
</defs>
</svg>
