<svg width="20" height="20" viewBox="0 0 20 20" fill="none" xmlns="http://www.w3.org/2000/svg">
<path fill-rule="evenodd" clip-rule="evenodd" d="M9 6C9 7.4865 7.91886 8.72048 6.5 8.95852V11.75C6.5 12.9926 7.50736 14 8.75 14H11C11 12.3431 12.3431 11 14 11C15.6569 11 17 12.3431 17 14C17 15.6569 15.6569 17 14 17C12.8896 17 11.9201 16.3967 11.4013 15.5H8.75C6.67893 15.5 5 13.8211 5 11.75V8.82929C3.83481 8.41746 3 7.30622 3 6C3 4.34315 4.34315 3 6 3C7.65685 3 9 4.34315 9 6ZM7.5 6C7.5 6.82843 6.82843 7.5 6 7.5C5.17157 7.5 4.5 6.82843 4.5 6C4.5 5.17157 5.17157 4.5 6 4.5C6.82843 4.5 7.5 5.17157 7.5 6ZM15.5 14C15.5 14.8284 14.8284 15.5 14 15.5C13.1716 15.5 12.5 14.8284 12.5 14C12.5 13.1716 13.1716 12.5 14 12.5C14.8284 12.5 15.5 13.1716 15.5 14Z" fill="#18202A"/>
</svg>
