<svg width="20" height="20" viewBox="0 0 20 20" fill="none" xmlns="http://www.w3.org/2000/svg">
<g clip-path="url(#clip0_2266_39598)">
<path fill-rule="evenodd" clip-rule="evenodd" d="M10 14.357C10 12.411 11.5776 10.8335 13.5236 10.8335H18.125V12.0835H13.5236C12.2679 12.0835 11.25 13.1014 11.25 14.357V18.1252H10V14.357Z" fill="#18202A"/>
<path fill-rule="evenodd" clip-rule="evenodd" d="M14.0942 2.0835H5.90581C3.79472 2.0835 2.08334 3.79487 2.08334 5.90596V14.0944C2.08334 16.2055 3.79472 17.9168 5.90581 17.9168H10.471C14.5831 17.9168 17.9167 14.5833 17.9167 10.4712V5.90596C17.9167 3.79487 16.2053 2.0835 14.0942 2.0835ZM5.90581 0.833496C3.10436 0.833496 0.833344 3.10452 0.833344 5.90596V14.0944C0.833344 16.8958 3.10436 19.1668 5.90581 19.1668H10.471C15.2735 19.1668 19.1667 15.2737 19.1667 10.4712V5.90596C19.1667 3.10452 16.8957 0.833496 14.0942 0.833496H5.90581Z" fill="#18202A"/>
<path d="M7.50001 7.50016C7.50001 8.42064 6.94037 9.16683 6.25001 9.16683C5.55965 9.16683 5.00001 8.42064 5.00001 7.50016C5.00001 6.57969 5.55965 5.8335 6.25001 5.8335C6.94037 5.8335 7.50001 6.57969 7.50001 7.50016Z" fill="#18202A"/>
<path d="M15 7.50016C15 8.42064 14.4404 9.16683 13.75 9.16683C13.0597 9.16683 12.5 8.42064 12.5 7.50016C12.5 6.57969 13.0597 5.8335 13.75 5.8335C14.4404 5.8335 15 6.57969 15 7.50016Z" fill="#18202A"/>
<path d="M10.0951 13.5406C10.0329 13.8026 10 14.076 10 14.357L10 14.7918C9.23465 14.7918 8.47894 14.6169 7.8056 14.2803C7.13209 13.9435 6.55933 13.4538 6.14983 12.8515C5.95575 12.5661 6.02981 12.1774 6.31525 11.9833C6.6007 11.7892 6.98943 11.8633 7.18352 12.1487C7.46537 12.5632 7.86991 12.9149 8.36462 13.1622C8.85949 13.4097 9.42316 13.5418 10 13.5418C10.0317 13.5418 10.0634 13.5414 10.0951 13.5406Z" fill="#18202A"/>
</g>
<defs>
<clipPath id="clip0_2266_39598">
<rect width="20" height="20" fill="white"/>
</clipPath>
</defs>
</svg>
