<svg width="20" height="20" viewBox="0 0 20 20" fill="none" xmlns="http://www.w3.org/2000/svg">
<path fill-rule="evenodd" clip-rule="evenodd" d="M4.16663 3.3335C2.78591 3.3335 1.66663 4.45278 1.66663 5.8335V13.3335C1.66663 14.7142 2.78591 15.8335 4.16663 15.8335H9.16663V16.6668H7.49996C7.03972 16.6668 6.66663 17.0399 6.66663 17.5002C6.66663 17.9604 7.03972 18.3335 7.49996 18.3335H12.5C12.9602 18.3335 13.3333 17.9604 13.3333 17.5002C13.3333 17.0399 12.9602 16.6668 12.5 16.6668H10.8333V15.8335H15.8333C17.214 15.8335 18.3333 14.7142 18.3333 13.3335V5.8335C18.3333 4.45278 17.214 3.3335 15.8333 3.3335H4.16663ZM16.6666 5.8335C16.6666 5.37326 16.2935 5.00016 15.8333 5.00016H4.16663C3.70639 5.00016 3.33329 5.37326 3.33329 5.8335V10.8335H16.6666V5.8335ZM15.8333 14.1668C16.2935 14.1668 16.6666 13.7937 16.6666 13.3335V12.5002H3.33329V13.3335C3.33329 13.7937 3.70639 14.1668 4.16663 14.1668H15.8333Z" fill="#18202A"/>
</svg>
