<svg width="20" height="20" viewBox="0 0 20 20" fill="none" xmlns="http://www.w3.org/2000/svg">
<g clip-path="url(#clip0_2266_39049)">
<path d="M10.442 1.01631C10.1979 0.772233 9.80215 0.772233 9.55807 1.01631L7.05807 3.51631C6.81399 3.76039 6.81399 4.15612 7.05807 4.40019C7.30215 4.64427 7.69788 4.64427 7.94195 4.40019L9.37501 2.96714V9.37492H2.96723L4.40029 7.94186C4.64436 7.69778 4.64436 7.30205 4.40029 7.05798C4.15621 6.8139 3.76048 6.8139 3.5164 7.05798L1.0164 9.55798C0.772324 9.80206 0.772324 10.1978 1.0164 10.4419L3.5164 12.9419C3.76048 13.1859 4.15621 13.1859 4.40029 12.9419C4.64436 12.6978 4.64436 12.3021 4.40029 12.058L2.96723 10.6249H9.37501V17.0327L7.94195 15.5996C7.69788 15.3556 7.30215 15.3556 7.05807 15.5996C6.81399 15.8437 6.81399 16.2394 7.05807 16.4835L9.55807 18.9835C9.80215 19.2276 10.1979 19.2276 10.442 18.9835L12.942 16.4835C13.186 16.2394 13.186 15.8437 12.942 15.5996C12.6979 15.3556 12.3021 15.3556 12.0581 15.5996L10.625 17.0327V10.6249H17.0328L15.5997 12.058C15.3557 12.3021 15.3557 12.6978 15.5997 12.9419C15.8438 13.1859 16.2395 13.1859 16.4836 12.9419L18.9836 10.4419C19.2277 10.1978 19.2277 9.80206 18.9836 9.55798L16.4836 7.05798C16.2395 6.8139 15.8438 6.8139 15.5997 7.05798C15.3557 7.30205 15.3557 7.69778 15.5997 7.94186L17.0328 9.37492H10.625V2.96714L12.0581 4.40019C12.3021 4.64427 12.6979 4.64427 12.942 4.40019C13.186 4.15612 13.186 3.76039 12.942 3.51631L10.442 1.01631Z" fill="#18202A"/>
</g>
<defs>
<clipPath id="clip0_2266_39049">
<rect width="20" height="20" fill="white"/>
</clipPath>
</defs>
</svg>
