<svg width="20" height="20" viewBox="0 0 20 20" fill="none" xmlns="http://www.w3.org/2000/svg">
<g clip-path="url(#clip0_2266_37561)">
<path fill-rule="evenodd" clip-rule="evenodd" d="M9.16667 2.49967C5.48477 2.49967 2.5 5.48444 2.5 9.16634C2.5 12.5973 5.09248 15.4239 8.4249 15.7923C8.88235 15.8428 9.21219 16.2547 9.16162 16.7121C9.11105 17.1696 8.69922 17.4994 8.24177 17.4489C4.07427 16.9882 0.833334 13.4563 0.833334 9.16634C0.833334 4.56397 4.56429 0.833008 9.16667 0.833008C13.4566 0.833008 16.9885 4.07394 17.4492 8.24145C17.4997 8.6989 17.1699 9.11073 16.7125 9.16129C16.255 9.21186 15.8432 8.88202 15.7926 8.42457C15.4242 5.09216 12.5976 2.49967 9.16667 2.49967ZM9.16667 5.83301C7.32572 5.83301 5.83333 7.32539 5.83333 9.16634C5.83333 10.5319 6.65463 11.7075 7.83364 12.2227C8.25538 12.4069 8.44789 12.8982 8.26363 13.3199C8.07936 13.7417 7.5881 13.9342 7.16636 13.7499C5.4022 12.9791 4.16667 11.218 4.16667 9.16634C4.16667 6.40492 6.40524 4.16634 9.16667 4.16634C11.2183 4.16634 12.9795 5.40187 13.7503 7.16603C13.9345 7.58777 13.742 8.07904 13.3203 8.2633C12.8985 8.44757 12.4073 8.25506 12.223 7.83332C11.7079 6.6543 10.5323 5.83301 9.16667 5.83301ZM9.2124 9.99728C9.05862 9.51398 9.51418 9.05842 9.99748 9.2122L17.5704 11.6218C18.0698 11.7807 18.1636 12.4467 17.7276 12.7374L15.9104 13.9489L19.0194 17.0579C19.2634 17.3019 19.2634 17.6977 19.0194 17.9418L17.942 19.0192C17.6979 19.2632 17.3021 19.2632 17.0581 19.0192L13.9491 15.9102L12.7376 17.7274C12.4469 18.1634 11.7809 18.0696 11.622 17.5702L9.2124 9.99728Z" fill="#18202A"/>
</g>
<defs>
<clipPath id="clip0_2266_37561">
<rect width="20" height="20" fill="white"/>
</clipPath>
</defs>
</svg>
