<svg width="20" height="20" viewBox="0 0 20 20" fill="none" xmlns="http://www.w3.org/2000/svg">
<path d="M3.75 8.3335C4.44036 8.3335 5 7.77385 5 7.0835C5 6.39314 4.44036 5.8335 3.75 5.8335C3.05964 5.8335 2.5 6.39314 2.5 7.0835C2.5 7.77385 3.05964 8.3335 3.75 8.3335Z" fill="#18202A"/>
<path d="M3.75 14.1668C4.44036 14.1668 5 13.6072 5 12.9168C5 12.2265 4.44036 11.6668 3.75 11.6668C3.05964 11.6668 2.5 12.2265 2.5 12.9168C2.5 13.6072 3.05964 14.1668 3.75 14.1668Z" fill="#18202A"/>
<path d="M10.8333 7.0835C10.8333 7.77385 10.2737 8.3335 9.58333 8.3335C8.89298 8.3335 8.33333 7.77385 8.33333 7.0835C8.33333 6.39314 8.89298 5.8335 9.58333 5.8335C10.2737 5.8335 10.8333 6.39314 10.8333 7.0835Z" fill="#18202A"/>
<path d="M9.58333 14.1668C10.2737 14.1668 10.8333 13.6072 10.8333 12.9168C10.8333 12.2265 10.2737 11.6668 9.58333 11.6668C8.89298 11.6668 8.33333 12.2265 8.33333 12.9168C8.33333 13.6072 8.89298 14.1668 9.58333 14.1668Z" fill="#18202A"/>
<path d="M16.6667 7.0835C16.6667 7.77385 16.107 8.3335 15.4167 8.3335C14.7263 8.3335 14.1667 7.77385 14.1667 7.0835C14.1667 6.39314 14.7263 5.8335 15.4167 5.8335C16.107 5.8335 16.6667 6.39314 16.6667 7.0835Z" fill="#18202A"/>
<path d="M15.4167 14.1668C16.107 14.1668 16.6667 13.6072 16.6667 12.9168C16.6667 12.2265 16.107 11.6668 15.4167 11.6668C14.7263 11.6668 14.1667 12.2265 14.1667 12.9168C14.1667 13.6072 14.7263 14.1668 15.4167 14.1668Z" fill="#18202A"/>
</svg>
