<svg width="20" height="20" viewBox="0 0 20 20" fill="none" xmlns="http://www.w3.org/2000/svg">
<path d="M11.0472 3.54183C12.1947 3.54183 13.125 4.47211 13.125 5.61968C13.125 6.46436 12.6145 7.21953 11.843 7.5391L11.7042 7.5909L11.4477 7.67642C10.9942 7.82759 10.6769 8.23095 10.6308 8.69942L10.625 8.81778V9.16683C10.625 9.51201 10.3452 9.79183 10 9.79183C9.6836 9.79183 9.4221 9.5567 9.38072 9.25164L9.37501 9.16683V8.81778C9.37501 7.81469 9.98479 6.91851 10.9046 6.54512L11.0524 6.49057L11.3089 6.40505C11.647 6.29236 11.875 5.97601 11.875 5.61968C11.875 5.19512 11.5554 4.84522 11.1437 4.7974L11.0472 4.79183H8.67852C8.37283 4.79183 8.12501 5.03965 8.12501 5.34534C8.12501 5.46278 8.16233 5.57637 8.23041 5.67026L8.28713 5.73673L8.35862 5.80822C8.6027 6.0523 8.6027 6.44803 8.35862 6.6921C8.13673 6.91399 7.78951 6.93417 7.54483 6.75262L7.47474 6.6921L7.40324 6.62061C7.06502 6.28239 6.87501 5.82366 6.87501 5.34534C6.87501 4.3926 7.61379 3.6124 8.54972 3.54636L8.67852 3.54183H11.0472Z" fill="#18202A"/>
<path d="M10.8333 11.6668C10.8333 11.2066 10.4602 10.8335 10 10.8335C9.53977 10.8335 9.16668 11.2066 9.16668 11.6668C9.16668 12.1271 9.53977 12.5002 10 12.5002C10.4602 12.5002 10.8333 12.1271 10.8333 11.6668Z" fill="#18202A"/>
<path fill-rule="evenodd" clip-rule="evenodd" d="M15.8333 15.0002H10.7576L5.37963 18.1979C4.75618 18.5686 3.98959 18.021 4.13804 17.311L4.62122 15.0002H4.16668C3.89013 15.0002 3.62144 14.9665 3.3645 14.903C1.91103 14.5439 0.833344 13.2312 0.833344 11.6668V4.16683C0.833344 2.32588 2.32573 0.833496 4.16668 0.833496H15.8333C17.6743 0.833496 19.1667 2.32588 19.1667 4.16683V11.6668C19.1667 13.5078 17.6743 15.0002 15.8333 15.0002ZM10.7576 13.7502C10.5327 13.7502 10.312 13.8108 10.1187 13.9257L5.5556 16.639L5.84476 15.256C5.9218 14.8876 5.82871 14.504 5.59135 14.2119C5.35399 13.9198 4.99762 13.7502 4.62122 13.7502H4.16668C3.01608 13.7502 2.08334 12.8174 2.08334 11.6668V4.16683C2.08334 3.01624 3.01608 2.0835 4.16668 2.0835H15.8333C16.9839 2.0835 17.9167 3.01624 17.9167 4.16683V11.6668C17.9167 12.8174 16.9839 13.7502 15.8333 13.7502H10.7576Z" fill="#18202A"/>
</svg>
