<svg width="20" height="20" viewBox="0 0 20 20" fill="none" xmlns="http://www.w3.org/2000/svg">
<path d="M8.53033 3.28033C8.82322 2.98744 8.82322 2.51256 8.53033 2.21967C8.23744 1.92678 7.76256 1.92678 7.46967 2.21967L3.46967 6.21967C3.17678 6.51256 3.17678 6.98744 3.46967 7.28033L7.46967 11.2803C7.76256 11.5732 8.23744 11.5732 8.53033 11.2803C8.82322 10.9874 8.82322 10.5126 8.53033 10.2197L5.81066 7.5H11.5C13.7092 7.5 15.5 9.29086 15.5 11.5C15.5 13.7091 13.7092 15.5 11.5 15.5H6.75C6.33579 15.5 6 15.8358 6 16.25C6 16.6642 6.33579 17 6.75 17H11.5C14.5376 17 17 14.5376 17 11.5C17 8.46243 14.5376 6 11.5 6H5.81066L8.53033 3.28033Z" fill="#18202A"/>
</svg>
