<svg width="20" height="20" viewBox="0 0 20 20" fill="none" xmlns="http://www.w3.org/2000/svg">
<path fill-rule="evenodd" clip-rule="evenodd" d="M14.1667 3.33366H5C3.61929 3.33366 2.5 4.45295 2.5 5.83366V13.3337C2.5 14.7144 3.61929 15.8337 5 15.8337H8.33333C8.79357 15.8337 9.16667 16.2068 9.16667 16.667C9.16667 17.1272 8.79357 17.5003 8.33333 17.5003H5C2.69881 17.5003 0.833334 15.6348 0.833334 13.3337V5.83366C0.833334 3.53247 2.69881 1.66699 5 1.66699H14.1667C16.4679 1.66699 18.3333 3.53247 18.3333 5.83366V7.50033C18.3333 7.96056 17.9602 8.33366 17.5 8.33366C17.0398 8.33366 16.6667 7.96056 16.6667 7.50033V5.83366C16.6667 4.45295 15.5474 3.33366 14.1667 3.33366ZM10.8333 12.5003C10.8333 11.1196 11.9526 10.0003 13.3333 10.0003H16.6667C18.0474 10.0003 19.1667 11.1196 19.1667 12.5003V15.8337C19.1667 17.2144 18.0474 18.3337 16.6667 18.3337H13.3333C11.9526 18.3337 10.8333 17.2144 10.8333 15.8337V12.5003Z" fill="#18202A"/>
</svg>
