<svg width="20" height="20" viewBox="0 0 20 20" fill="none" xmlns="http://www.w3.org/2000/svg">
<path fill-rule="evenodd" clip-rule="evenodd" d="M14.5833 5.78125C14.5833 6.80504 14.3672 7.60069 14.0505 8.09708C13.7666 8.54187 13.4136 8.75 12.9167 8.75C12.4197 8.75 12.0667 8.54187 11.7829 8.09708C11.4661 7.60069 11.25 6.80504 11.25 5.78125C11.25 5.04424 11.442 4.53597 11.6912 4.23563C11.9135 3.96769 12.2731 3.75 12.9167 3.75C13.5603 3.75 13.9199 3.96769 14.1422 4.23563C14.3913 4.53597 14.5833 5.04424 14.5833 5.78125ZM15.8333 5.78125C15.8333 8.125 14.8611 10 12.9167 10C10.9722 10 10 8.125 10 5.78125C10 3.90625 10.9722 2.5 12.9167 2.5C14.8611 2.5 15.8333 3.90625 15.8333 5.78125ZM5.20037 11.6667C5.67059 11.6667 6.12943 11.7153 6.57214 11.8079C6.24267 12.1462 5.98702 12.5339 5.80516 12.9499C5.60674 12.928 5.40496 12.9167 5.20037 12.9167C4.23242 12.9167 3.32728 13.1695 2.54343 13.6117C2.17994 13.8168 1.9497 14.3407 2.16264 14.9314C2.20438 15.0472 2.24783 15.1621 2.29297 15.2763C2.47525 15.737 2.89982 16.0683 3.40933 16.1346C3.99501 16.2107 4.59279 16.25 5.20037 16.25C5.40435 16.25 5.60723 16.2456 5.80892 16.2368C5.82214 16.2677 5.83574 16.2984 5.84972 16.329C5.94391 16.535 6.04319 16.7387 6.14741 16.9397C6.23985 17.118 6.3435 17.2876 6.45715 17.4481C6.04277 17.4825 5.62362 17.5 5.20037 17.5C4.53878 17.5 3.88719 17.4572 3.24823 17.3741C2.29715 17.2505 1.48344 16.6279 1.13062 15.7361C1.08078 15.6101 1.03279 15.4832 0.986709 15.3553C0.603695 14.2927 0.945476 13.0781 1.92919 12.523C2.89559 11.9778 4.01165 11.6667 5.20037 11.6667ZM12.9167 17.0833C14.0128 17.0833 15.0815 16.9851 16.1122 16.7986C16.7342 16.686 17.2504 16.3103 17.5184 15.791C17.6034 15.6264 17.6843 15.4598 17.7609 15.2915C18.1031 14.5396 17.8609 13.7345 17.2879 13.3573C16.0817 12.5632 14.5706 12.0833 12.9167 12.0833C11.2628 12.0833 9.75161 12.5632 8.54541 13.3573C7.97246 13.7345 7.73024 14.5396 8.07248 15.2915C8.14908 15.4598 8.22992 15.6264 8.31493 15.791C8.58295 16.3103 9.09919 16.686 9.72114 16.7986C10.7519 16.9851 11.8205 17.0833 12.9167 17.0833ZM16.3348 18.0286C17.3133 17.8515 18.1716 17.2509 18.6292 16.3644C18.7236 16.1815 18.8134 15.9965 18.8986 15.8093C19.467 14.5604 19.1188 13.0661 17.9753 12.3133C16.5631 11.3836 14.8125 10.8333 12.9167 10.8333C11.0208 10.8333 9.27028 11.3836 7.85806 12.3133C6.71456 13.0661 6.36636 14.5604 6.93477 15.8093C7.01995 15.9965 7.10979 16.1815 7.20417 16.3644C7.66175 17.2509 8.52005 17.8515 9.49853 18.0286C10.6026 18.2284 11.7458 18.3333 12.9167 18.3333C14.0876 18.3333 15.2307 18.2284 16.3348 18.0286ZM6.44949 7.55208C6.44949 8.29519 6.27654 8.83801 6.05204 9.15721C5.86144 9.42822 5.61217 9.58333 5.19949 9.58333C4.78682 9.58333 4.53755 9.42822 4.34695 9.15721C4.12245 8.83801 3.94949 8.29519 3.94949 7.55208C3.94949 7.05236 4.09088 6.74342 4.24703 6.57263C4.3871 6.41943 4.65346 6.25 5.19949 6.25C5.74553 6.25 6.01189 6.41943 6.15196 6.57263C6.30811 6.74342 6.44949 7.05236 6.44949 7.55208ZM7.69949 7.55208C7.69949 9.375 6.86616 10.8333 5.19949 10.8333C3.53283 10.8333 2.69949 9.375 2.69949 7.55208C2.69949 6.09375 3.53283 5 5.19949 5C6.86616 5 7.69949 6.09375 7.69949 7.55208Z" fill="#18202A"/>
</svg>
