<svg width="20" height="20" viewBox="0 0 20 20" fill="none" xmlns="http://www.w3.org/2000/svg">
<path fill-rule="evenodd" clip-rule="evenodd" d="M16.9238 3.07654C15.0525 1.20528 12.0186 1.20528 10.1473 3.07654L8.37955 4.84431C8.13547 5.08839 8.13547 5.48411 8.37955 5.72819C8.62362 5.97227 9.01935 5.97227 9.26343 5.72819L11.0312 3.96043C12.4143 2.57732 14.6568 2.57732 16.0399 3.96043C17.423 5.34353 17.423 7.58599 16.0399 8.9691L14.2721 10.7369C14.028 10.9809 14.028 11.3767 14.2721 11.6207C14.5162 11.8648 14.9119 11.8648 15.156 11.6207L16.9238 9.85298C18.795 7.98172 18.795 4.9478 16.9238 3.07654ZM3.07624 16.9234C1.20497 15.0521 1.20497 12.0182 3.07624 10.1469L4.844 8.37918C5.08808 8.1351 5.48381 8.1351 5.72789 8.37918C5.97197 8.62325 5.97196 9.01898 5.72789 9.26306L3.96012 11.0308C2.57701 12.4139 2.57701 14.6564 3.96012 16.0395C5.34323 17.4226 7.58569 17.4226 8.96879 16.0395L10.7366 14.2717C10.9806 14.0277 11.3764 14.0277 11.6204 14.2717C11.8645 14.5158 11.8645 14.9115 11.6204 15.1556L9.85268 16.9234C7.98141 18.7946 4.9475 18.7946 3.07624 16.9234ZM6.02252 13.0932C5.77844 13.3373 5.77844 13.733 6.02252 13.9771C6.2666 14.2212 6.66233 14.2212 6.9064 13.9771L13.9775 6.90604C14.2215 6.66196 14.2215 6.26623 13.9775 6.02216C13.7334 5.77808 13.3377 5.77808 13.0936 6.02216L6.02252 13.0932Z" fill="#18202A"/>
</svg>
