<svg width="20" height="20" viewBox="0 0 20 20" fill="none" xmlns="http://www.w3.org/2000/svg">
<g clip-path="url(#clip0_2266_37303)">
<path fill-rule="evenodd" clip-rule="evenodd" d="M5.83333 0.833252C3.07191 0.833252 0.833334 3.07183 0.833334 5.83325V14.1666C0.833334 16.928 3.07191 19.1666 5.83333 19.1666H14.1667C16.9281 19.1666 19.1667 16.928 19.1667 14.1666V5.83325C19.1667 3.07183 16.9281 0.833252 14.1667 0.833252H5.83333ZM10 6.66659C10 8.0473 8.88071 9.16659 7.5 9.16659C6.11929 9.16659 5 8.0473 5 6.66659C5 5.28587 6.11929 4.16659 7.5 4.16659C8.88071 4.16659 10 5.28587 10 6.66659ZM13.75 9.16659L17.5 13.9393V14.1666C17.5 16.0075 16.0076 17.4999 14.1667 17.4999H5.83333C4.68524 17.4999 3.67272 16.9195 3.0732 16.0361L6.66667 12.0833L9.16667 14.1666L13.75 9.16659Z" fill="#18202A"/>
</g>
<defs>
<clipPath id="clip0_2266_37303">
<rect width="20" height="20" fill="white"/>
</clipPath>
</defs>
</svg>
