<svg width="20" height="20" viewBox="0 0 20 20" fill="none" xmlns="http://www.w3.org/2000/svg">
<g clip-path="url(#clip0_2266_35947)">
<path fill-rule="evenodd" clip-rule="evenodd" d="M10 5.83301C10.9205 5.83301 11.6667 5.08682 11.6667 4.16634C11.6667 3.24587 10.9205 2.49967 10 2.49967C9.07953 2.49967 8.33333 3.24587 8.33333 4.16634C8.33333 5.08682 9.07952 5.83301 10 5.83301ZM13.3333 4.16634C13.3333 5.71954 12.271 7.02462 10.8333 7.39466V17.4533C12.5159 17.2652 14.0946 16.5117 15.3033 15.303C16.512 14.0943 17.2655 12.5155 17.4536 10.833H15.8333C15.3731 10.833 15 10.4599 15 9.99967C15 9.53944 15.3731 9.16634 15.8333 9.16634H18.3333C18.7936 9.16634 19.1667 9.53944 19.1667 9.99967C19.1667 12.4308 18.2009 14.7624 16.4818 16.4815C14.7627 18.2006 12.4312 19.1663 10 19.1663C7.56885 19.1663 5.23727 18.2006 3.51819 16.4815C1.79911 14.7624 0.833334 12.4308 0.833334 9.99967C0.833334 9.77866 0.921131 9.5667 1.07741 9.41042C1.23369 9.25414 1.44565 9.16634 1.66667 9.16634H4.16667C4.6269 9.16634 5 9.53944 5 9.99967C5 10.4599 4.6269 10.833 4.16667 10.833H2.54641C2.73448 12.5155 3.48801 14.0943 4.6967 15.303C5.90539 16.5117 7.48415 17.2652 9.16667 17.4533V7.39466C7.72898 7.02462 6.66667 5.71954 6.66667 4.16634C6.66667 2.32539 8.15905 0.833008 10 0.833008C11.841 0.833008 13.3333 2.32539 13.3333 4.16634Z" fill="#18202A"/>
</g>
<defs>
<clipPath id="clip0_2266_35947">
<rect width="20" height="20" fill="white"/>
</clipPath>
</defs>
</svg>
