<svg width="20" height="20" viewBox="0 0 20 20" fill="none" xmlns="http://www.w3.org/2000/svg">
<path fill-rule="evenodd" clip-rule="evenodd" d="M10 18.9587C10.3452 18.9587 10.625 18.6788 10.625 18.3337V9.84254L12.0581 11.2756C12.3021 11.5197 12.6979 11.5197 12.9419 11.2756C13.186 11.0315 13.186 10.6358 12.9419 10.3917L10.4419 7.89172C10.3247 7.77451 10.1658 7.70866 10 7.70866C9.83424 7.70866 9.67527 7.77451 9.55806 7.89172L7.05806 10.3917C6.81398 10.6358 6.81398 11.0315 7.05806 11.2756C7.30214 11.5197 7.69786 11.5197 7.94194 11.2756L9.375 9.84254V18.3337C9.375 18.6788 9.65482 18.9587 10 18.9587Z" fill="#18202A"/>
<path d="M14.3953 6.19553L14.6764 7.14444L15.6645 7.08843C15.7203 7.08527 15.7765 7.08366 15.8333 7.08366C17.4442 7.08366 18.75 8.38949 18.75 10.0003C18.75 11.6112 17.4442 12.917 15.8333 12.917H11.875V14.167H15.8333C18.1345 14.167 20 12.3015 20 10.0003C20 7.69914 18.1345 5.83366 15.8333 5.83366C15.7529 5.83366 15.6731 5.83594 15.5938 5.84043C14.8788 3.42738 12.645 1.66699 10 1.66699C7.35501 1.66699 5.12118 3.42738 4.40622 5.84043C4.32694 5.83594 4.24707 5.83366 4.16667 5.83366C1.86548 5.83366 0 7.69914 0 10.0003C0 12.3015 1.86548 14.167 4.16667 14.167H8.125V12.917H4.16667C2.55584 12.917 1.25 11.6112 1.25 10.0003C1.25 8.38949 2.55584 7.08366 4.16667 7.08366C4.22345 7.08366 4.27973 7.08527 4.33548 7.08843L5.32357 7.14444L5.60472 6.19553C6.16673 4.29869 7.92364 2.91699 10 2.91699C12.0764 2.91699 13.8333 4.29869 14.3953 6.19553Z" fill="#18202A"/>
</svg>
