<svg width="20" height="20" viewBox="0 0 20 20" fill="none" xmlns="http://www.w3.org/2000/svg">
<path fill-rule="evenodd" clip-rule="evenodd" d="M11.6667 3.75H3.33333C2.18274 3.75 1.25 4.68274 1.25 5.83333V14.1667C1.25 15.3173 2.18274 16.25 3.33333 16.25H11.6667C12.8173 16.25 13.75 15.3173 13.75 14.1667V5.83333C13.75 4.68274 12.8173 3.75 11.6667 3.75ZM3.33333 2.5C1.49238 2.5 0 3.99238 0 5.83333V14.1667C0 16.0076 1.49238 17.5 3.33333 17.5H11.6667C13.5076 17.5 15 16.0076 15 14.1667V5.83333C15 3.99238 13.5076 2.5 11.6667 2.5H3.33333Z" fill="#18202A"/>
<path fill-rule="evenodd" clip-rule="evenodd" d="M17.0833 7.80696V12.193L18.75 13.393V6.60696L17.0833 7.80696ZM16.1797 6.91725C15.9622 7.07385 15.8333 7.32551 15.8333 7.59353V12.4065C15.8333 12.6745 15.9622 12.9261 16.1797 13.0828L18.6797 14.8828C19.231 15.2796 20 14.8857 20 14.2065V5.79353C20 5.11428 19.231 4.72036 18.6797 5.11725L16.1797 6.91725Z" fill="#18202A"/>
</svg>
