<svg width="20" height="20" viewBox="0 0 20 20" fill="none" xmlns="http://www.w3.org/2000/svg">
<path d="M11.6667 9.99992C11.6667 10.9204 10.9205 11.6666 10 11.6666C9.07953 11.6666 8.33333 10.9204 8.33333 9.99992C8.33333 9.07944 9.07953 8.33325 10 8.33325C10.9205 8.33325 11.6667 9.07944 11.6667 9.99992Z" fill="#18202A"/>
<path fill-rule="evenodd" clip-rule="evenodd" d="M7.80594 1.51571C7.87873 1.12031 8.22345 0.833252 8.6255 0.833252H11.3626C11.7647 0.833252 12.1094 1.12031 12.1822 1.51571L12.438 2.90506C13.3581 3.22117 14.1974 3.71124 14.9165 4.33599L16.2475 3.86283C16.6263 3.72817 17.0473 3.88318 17.2483 4.23136L18.6169 6.6018C18.8179 6.94998 18.7417 7.39205 18.4357 7.65279L17.3632 8.56653C17.453 9.0305 17.5 9.50972 17.5 9.99992C17.5 10.4901 17.453 10.9693 17.3632 11.4333L18.4357 12.347C18.7417 12.6078 18.8179 13.0498 18.6169 13.398L17.2484 15.7685C17.0473 16.1166 16.6264 16.2717 16.2475 16.137L14.9165 15.6638C14.1974 16.2886 13.3581 16.7787 12.438 17.0948L12.1822 18.4841C12.1094 18.8795 11.7647 19.1666 11.3626 19.1666H8.6255C8.22345 19.1666 7.87873 18.8795 7.80594 18.4841L7.54937 17.0904C6.63273 16.7736 5.79666 16.2841 5.08008 15.6608L3.74058 16.137C3.36175 16.2717 2.94079 16.1166 2.73977 15.7685L1.3712 13.398C1.17017 13.0498 1.24641 12.6078 1.55244 12.347L2.63515 11.4246C2.54645 10.9633 2.50001 10.487 2.50001 9.99992C2.50001 9.51278 2.54646 9.03649 2.63515 8.57524L1.55247 7.65279C1.24643 7.39205 1.1702 6.94998 1.37122 6.6018L2.73979 4.23136C2.94082 3.88318 3.36178 3.72817 3.7406 3.86283L5.0801 4.33899C5.79667 3.71568 6.63274 3.22619 7.54937 2.90943L7.80594 1.51571ZM13.3333 9.99992C13.3333 11.8409 11.8409 13.3333 10 13.3333C8.15905 13.3333 6.66667 11.8409 6.66667 9.99992C6.66667 8.15897 8.15905 6.66659 10 6.66659C11.8409 6.66659 13.3333 8.15897 13.3333 9.99992Z" fill="#18202A"/>
</svg>
