<svg width="20" height="20" viewBox="0 0 20 20" fill="none" xmlns="http://www.w3.org/2000/svg">
<g clip-path="url(#clip0_3394_8804)">
<path d="M15.8334 5.41683C15.8334 6.10719 15.2737 6.66683 14.5834 6.66683C13.893 6.66683 13.3334 6.10719 13.3334 5.41683C13.3334 4.72647 13.893 4.16683 14.5834 4.16683C15.2737 4.16683 15.8334 4.72647 15.8334 5.41683Z" fill="#18202A"/>
<path fill-rule="evenodd" clip-rule="evenodd" d="M15.9524 1.92457L15.8246 1.29993C15.7691 1.02845 15.5302 0.833496 15.2531 0.833496H13.9136C13.6365 0.833496 13.3977 1.02845 13.3421 1.29993L13.2144 1.92457C12.8619 2.06284 12.5355 2.25293 12.2445 2.48545L11.6387 2.28345C11.3758 2.1958 11.0875 2.30519 10.949 2.54517L10.2792 3.70519C10.1407 3.94518 10.1901 4.24951 10.3974 4.43335L10.8749 4.85671C10.8476 5.03944 10.8334 5.22648 10.8334 5.41683C10.8334 5.60719 10.8476 5.79424 10.8749 5.97697L10.3974 6.40033C10.1901 6.58417 10.1407 6.8885 10.2792 7.12848L10.949 8.28851C11.0875 8.52849 11.3758 8.63788 11.6387 8.55022L12.2445 8.34823C12.5355 8.58074 12.8619 8.77082 13.2144 8.90909L13.3421 9.53373C13.3977 9.80521 13.6365 10.0002 13.9136 10.0002H15.2531C15.5302 10.0002 15.7691 9.80521 15.8246 9.53373L15.9524 8.90909C16.3048 8.77082 16.6312 8.58075 16.9223 8.34824L17.5281 8.55024C17.791 8.6379 18.0792 8.52851 18.2178 8.28853L18.8875 7.1285C19.0261 6.88852 18.9767 6.58419 18.7693 6.40035L18.2918 5.977C18.3192 5.79425 18.3334 5.6072 18.3334 5.41683C18.3334 5.22647 18.3192 5.03942 18.2918 4.85668L18.7693 4.43333C18.9767 4.24949 19.0261 3.94516 18.8875 3.70517L18.2178 2.54515C18.0792 2.30517 17.791 2.19578 17.5281 2.28343L16.9223 2.48543C16.6312 2.25292 16.3048 2.06284 15.9524 1.92457ZM14.0852 2.65712L13.5796 2.8555C13.3218 2.95662 13.0825 3.09588 12.8686 3.26672L12.4439 3.60607L11.6449 3.33968L11.3153 3.91069L11.9442 4.46833L11.8639 5.00482C11.8438 5.13869 11.8334 5.27622 11.8334 5.41683C11.8334 5.55745 11.8438 5.69498 11.8639 5.82885L11.9443 6.36535L11.3153 6.92299L11.645 7.494L12.4439 7.22761L12.8687 7.56695C13.0825 7.73779 13.3218 7.87704 13.5796 7.97816L14.0852 8.17654L14.2537 9.00016H14.9131L15.0815 8.17654L15.5872 7.97816C15.8449 7.87704 16.0842 7.73779 16.2981 7.56696L16.7228 7.22762L17.5218 7.49402L17.8515 6.92301L17.2225 6.36537L17.3029 5.82887C17.3229 5.695 17.3334 5.55745 17.3334 5.41683C17.3334 5.27621 17.3229 5.13867 17.3029 5.00481L17.2225 4.46831L17.8515 3.91067L17.5218 3.33966L16.7228 3.60605L16.2981 3.26671C16.0843 3.09587 15.8449 2.95662 15.5872 2.8555L15.0815 2.65712L14.9131 1.8335H14.2537L14.0852 2.65712Z" fill="#18202A"/>
<path fill-rule="evenodd" clip-rule="evenodd" d="M6.6667 15.8335C8.04741 15.8335 9.1667 14.7142 9.1667 13.3335C9.1667 11.9528 8.04741 10.8335 6.6667 10.8335C5.28599 10.8335 4.1667 11.9528 4.1667 13.3335C4.1667 14.7142 5.28599 15.8335 6.6667 15.8335ZM6.6667 14.5835C7.35705 14.5835 7.9167 14.0239 7.9167 13.3335C7.9167 12.6431 7.35705 12.0835 6.6667 12.0835C5.97634 12.0835 5.4167 12.6431 5.4167 13.3335C5.4167 14.0239 5.97634 14.5835 6.6667 14.5835Z" fill="#18202A"/>
<path fill-rule="evenodd" clip-rule="evenodd" d="M12.5838 11.0823L11.5748 9.33467C11.4353 9.09294 11.144 8.98395 10.8801 9.07467L9.80784 9.44314C9.40671 9.11886 8.95443 8.85536 8.46498 8.66663L8.24824 7.55518C8.19482 7.28122 7.95481 7.0835 7.67569 7.0835H5.65767C5.37855 7.0835 5.13854 7.28122 5.08512 7.55518L4.86839 8.66663C4.37889 8.85538 3.92656 9.11891 3.52541 9.44324L2.45322 9.07477C2.18926 8.98406 1.89802 9.09305 1.75846 9.33477L0.749442 11.0824C0.609883 11.3242 0.661115 11.6309 0.87166 11.8141L1.72645 12.5581C1.6871 12.8108 1.66668 13.0698 1.66668 13.3335C1.66668 13.5973 1.68711 13.8563 1.72647 14.1091L0.871725 14.853C0.661181 15.0362 0.609948 15.3429 0.749508 15.5847L1.75852 17.3323C1.89808 17.5741 2.18932 17.683 2.45329 17.5923L3.52552 17.2238C3.92665 17.5481 4.37894 17.8116 4.86839 18.0004L5.08512 19.1118C5.13854 19.3858 5.37855 19.5835 5.65767 19.5835H7.67569C7.95481 19.5835 8.19482 19.3858 8.24824 19.1118L8.46498 18.0004C8.95438 17.8117 9.40663 17.5482 9.80772 17.2239L10.88 17.5924C11.144 17.6831 11.4352 17.5742 11.5748 17.3324L12.5838 15.5848C12.7233 15.343 12.6721 15.0363 12.4616 14.8531L11.6069 14.1092C11.6462 13.8564 11.6667 13.5973 11.6667 13.3335C11.6667 13.0697 11.6463 12.8107 11.6069 12.5579L12.4616 11.814C12.6722 11.6308 12.7234 11.3241 12.5838 11.0823ZM5.96299 9.58427L5.3181 9.83294C4.9519 9.97413 4.61271 10.1716 4.3113 10.4153L3.77336 10.8502L2.56638 10.4354L2.10659 11.2318L3.06776 12.0683L2.96157 12.7504C2.93209 12.9397 2.91668 13.1344 2.91668 13.3335C2.91668 13.5327 2.9321 13.7274 2.96158 13.9167L3.0678 14.5988L2.10665 15.4353L2.56644 16.2317L3.77345 15.8169L4.31138 16.2518C4.61278 16.4954 4.95194 16.6929 5.3181 16.8341L5.96299 17.0827L6.20689 18.3335H7.12647L7.37037 17.0827L8.01527 16.8341C8.38139 16.6929 8.72052 16.4955 9.0219 16.2518L9.55982 15.817L10.7668 16.2318L11.2266 15.4354L10.2655 14.5989L10.3718 13.9168C10.4013 13.7275 10.4167 13.5327 10.4167 13.3335C10.4167 13.1343 10.4013 12.9396 10.3718 12.7503L10.2656 12.0682L11.2267 11.2317L10.7669 10.4353L9.55991 10.8501L9.02198 10.4152C8.72058 10.1716 8.38142 9.97412 8.01527 9.83294L7.37037 9.58427L7.12647 8.3335H6.20689L5.96299 9.58427Z" fill="#18202A"/>
</g>
<defs>
<clipPath id="clip0_3394_8804">
<rect width="20" height="20" fill="white"/>
</clipPath>
</defs>
</svg>
