<svg width="24" height="24" viewBox="0 0 24 24" fill="none" xmlns="http://www.w3.org/2000/svg">
<path fill-rule="evenodd" clip-rule="evenodd" d="M1 5C1 3.34315 2.34315 2 4 2H17C18.3062 2 19.4175 2.83481 19.8293 4H4V5H19C21.2091 5 23 6.79086 23 9V18C23 20.2091 21.2091 22 19 22H5C2.79086 22 1 20.2091 1 18V5ZM14 11C12.8954 11 12 11.8954 12 13V15C12 16.1046 12.8954 17 14 17H21V11H14Z" fill="#18202A"/>
<path d="M16 14C16 14.5523 15.5523 15 15 15C14.4477 15 14 14.5523 14 14C14 13.4477 14.4477 13 15 13C15.5523 13 16 13.4477 16 14Z" fill="#18202A"/>
</svg>
