<svg width="24" height="24" viewBox="0 0 24 24" fill="none" xmlns="http://www.w3.org/2000/svg">
<g clip-path="url(#clip0_3444_9413)">
<path d="M17.3536 2.64626C16.0537 1.34643 13.9463 1.34643 12.6465 2.64626L12.3535 2.93926L17.0606 7.64637L17.3536 7.35337C18.6534 6.05354 18.6534 3.94609 17.3536 2.64626Z" fill="#18202A"/>
<path d="M2.65671 12.1363L10.9189 4.33312L15.6263 9.04049L7.34333 16.8633C7.27918 16.9239 7.20014 16.9664 7.11423 16.9866L2.11577 18.1594C1.60531 18.2791 1.14923 17.8159 1.27696 17.3073L2.51508 12.378C2.5383 12.2856 2.58743 12.2017 2.65671 12.1363Z" fill="#18202A"/>
<path d="M12.0571 16.5016C12.4358 16.5233 12.7697 16.7574 12.9191 17.1061L14.0295 19.697C14.1083 19.8808 14.2891 20 14.4891 20H14.5109C14.7109 20 14.8917 19.8808 14.9705 19.697L16.0809 17.1061C16.2303 16.7574 16.5642 16.5233 16.9429 16.5016C17.3216 16.48 17.68 16.6745 17.8682 17.0039L19.1484 19.2442C19.4155 19.7116 19.9125 20 20.4508 20H22C22.5523 20 23 20.4477 23 21C23 21.5523 22.5523 22 22 22H20.4508C19.1948 22 18.0351 21.327 17.412 20.2365L17.1281 19.7397L16.8088 20.4848C16.4148 21.404 15.511 22 14.5109 22H14.4891C13.489 22 12.5852 21.404 12.1912 20.4848L11.8719 19.7397L11.588 20.2365C10.9649 21.327 9.80519 22 8.54919 22H2C1.44772 22 1 21.5523 1 21C1 20.4477 1.44772 20 2 20H8.54919C9.08748 20 9.58449 19.7116 9.85156 19.2442L11.1318 17.0039C11.32 16.6745 11.6784 16.48 12.0571 16.5016Z" fill="#18202A"/>
</g>
<defs>
<clipPath id="clip0_3444_9413">
<rect width="24" height="24" fill="white"/>
</clipPath>
</defs>
</svg>
