<svg width="24" height="24" viewBox="0 0 24 24" fill="none" xmlns="http://www.w3.org/2000/svg">
<path fill-rule="evenodd" clip-rule="evenodd" d="M15.7071 6.70711C15.3166 7.09763 14.6834 7.09763 14.2929 6.70711L12 4.41421L9.70711 6.70711C9.31658 7.09763 8.68342 7.09763 8.29289 6.70711C7.90237 6.31658 7.90237 5.68342 8.29289 5.29289L11.2929 2.29289C11.6834 1.90237 12.3166 1.90237 12.7071 2.29289L15.7071 5.29289C16.0976 5.68342 16.0976 6.31658 15.7071 6.70711ZM2 9C1.44772 9 1 9.44772 1 10C1 10.5523 1.44772 11 2 11H22C22.5523 11 23 10.5523 23 10C23 9.44772 22.5523 9 22 9H2ZM2 13C1.44772 13 1 13.4477 1 14C1 14.5523 1.44772 15 2 15H22C22.5523 15 23 14.5523 23 14C23 13.4477 22.5523 13 22 13H2ZM15.7071 18.7071C16.0976 18.3166 16.0976 17.6834 15.7071 17.2929C15.3166 16.9024 14.6834 16.9024 14.2929 17.2929L12 19.5858L9.70711 17.2929C9.31658 16.9024 8.68342 16.9024 8.29289 17.2929C7.90237 17.6834 7.90237 18.3166 8.29289 18.7071L11.2929 21.7071C11.6834 22.0976 12.3166 22.0976 12.7071 21.7071L15.7071 18.7071Z" fill="#18202A"/>
</svg>
