<svg width="24" height="24" viewBox="0 0 24 24" fill="none" xmlns="http://www.w3.org/2000/svg">
<g clip-path="url(#clip0_2266_33421)">
<path fill-rule="evenodd" clip-rule="evenodd" d="M12 24C18.6274 24 24 18.6274 24 12C24 5.37258 18.6274 0 12 0C5.37258 0 0 5.37258 0 12C0 18.6274 5.37258 24 12 24ZM12 12C13.3333 12 14 10.75 14 9.1875C14 7.9375 13.3333 7 12 7C10.6667 7 10 7.9375 10 9.1875C10 10.75 10.6667 12 12 12ZM6.5 12C7.5 12 8 11 8 9.75C8 8.75 7.5 8 6.5 8C5.5 8 5 8.75 5 9.75C5 11 5.5 12 6.5 12ZM17.5 12C18.5 12 19 11 19 9.75C19 8.75 18.5 8 17.5 8C16.5 8 16 8.75 16 9.75C16 11 16.5 12 17.5 12ZM8.1128 13.2177C8.18866 13.165 8.26561 13.1139 8.34363 13.0643C8.02073 13.0092 7.68831 12.9805 7.34888 12.9805C6.40913 12.9805 5.52316 13.2008 4.74429 13.5903C4.08312 13.921 3.80508 14.6959 4.02579 15.4015C4.06865 15.5385 4.11427 15.6743 4.16261 15.809C4.37313 16.3954 4.89621 16.8091 5.51334 16.8948C6.03671 16.9675 6.57045 17.0095 7.1125 17.019C7.07834 16.9243 7.04534 16.829 7.01354 16.7332C6.60534 15.5031 6.93956 14.0318 8.1128 13.2177ZM16.9868 16.7332C16.9554 16.8279 16.9228 16.9221 16.889 17.0157C17.4451 17 17.9922 16.95 18.528 16.8678C19.1374 16.7743 19.6507 16.361 19.8572 15.7802C19.8924 15.6814 19.9261 15.582 19.9583 15.4819C20.1804 14.7917 19.9245 14.0286 19.2877 13.6819C18.4675 13.2355 17.5187 12.9805 16.5076 12.9805C16.2082 12.9805 15.9143 13.0028 15.6276 13.0459C15.7156 13.1012 15.8022 13.1585 15.8875 13.2177C17.0607 14.0318 17.395 15.5031 16.9868 16.7332ZM15.5914 17.5455C15.2674 18.2453 14.6139 18.7346 13.8525 18.8569C13.249 18.9538 12.6304 19.0041 12.0001 19.0041C11.3699 19.0041 10.7513 18.9538 10.1478 18.8569C9.38644 18.7346 8.73296 18.2453 8.40897 17.5455C8.24001 17.1806 8.09076 16.8044 7.96263 16.4182C7.67279 15.5448 7.92683 14.5639 8.68289 14.0393C9.628 13.3834 10.7701 13 12.0001 13C13.2302 13 14.3723 13.3834 15.3174 14.0393C16.0734 14.5639 16.3275 15.5448 16.0377 16.4182C15.9095 16.8044 15.7603 17.1806 15.5914 17.5455Z" fill="#18202A"/>
</g>
<defs>
<clipPath id="clip0_2266_33421">
<rect width="24" height="24" fill="white"/>
</clipPath>
</defs>
</svg>
