<svg width="16" height="16" viewBox="0 0 16 16" fill="none" xmlns="http://www.w3.org/2000/svg">
<g clip-path="url(#clip0_3075_8862)">
<path d="M15.4023 1.73782C15.5885 1.53114 15.5841 1.20082 15.3924 1.00005C15.2007 0.799268 14.8944 0.804055 14.7082 1.01074L8.79787 7.57105L6.3794 4.73152C6.19864 4.51929 5.89255 4.50524 5.69572 4.70015C5.4989 4.89505 5.48587 5.2251 5.66663 5.43733L8.43161 8.68371C8.52165 8.78942 8.64811 8.85047 8.78121 8.85249C8.91431 8.8545 9.04231 8.79729 9.13506 8.69434L15.4023 1.73782Z" fill="#18202A"/>
<path d="M3.33329 1.33333C1.86053 1.33333 0.666626 2.52724 0.666626 4V10C0.666626 11.2515 1.52878 12.3017 2.69155 12.5889C2.89711 12.6397 3.11205 12.6667 3.33329 12.6667H3.69693L3.31038 14.5154C3.19162 15.0833 3.8049 15.5214 4.30365 15.2248L8.60602 12.6667H12.6666C14.1394 12.6667 15.3333 11.4728 15.3333 10V6.5C15.3333 6.22386 15.1094 6 14.8333 6C14.5571 6 14.3333 6.22386 14.3333 6.5V10C14.3333 10.9205 13.5871 11.6667 12.6666 11.6667H8.60602C8.42613 11.6667 8.24957 11.7152 8.09494 11.8071L4.44443 13.9777L4.67576 12.8713C4.73739 12.5766 4.66292 12.2698 4.47303 12.0361C4.28314 11.8024 3.99805 11.6667 3.69693 11.6667H3.33329C2.41282 11.6667 1.66663 10.9205 1.66663 10V4C1.66663 3.07953 2.41282 2.33333 3.33329 2.33333H9.49996C9.7761 2.33333 9.99996 2.10948 9.99996 1.83333C9.99996 1.55719 9.7761 1.33333 9.49996 1.33333H3.33329Z" fill="#18202A"/>
</g>
<defs>
<clipPath id="clip0_3075_8862">
<rect width="16" height="16" fill="white"/>
</clipPath>
</defs>
</svg>
