<svg width="24" height="24" viewBox="0 0 24 24" fill="none" xmlns="http://www.w3.org/2000/svg">
<path fill-rule="evenodd" clip-rule="evenodd" d="M1.97487 12.0251L11.9749 2.02513C12.6313 1.36875 13.5215 1 14.4497 1H20.5C21.8807 1 23 2.11929 23 3.5V9.55025C23 10.4785 22.6313 11.3687 21.9749 12.0251L11.9749 22.0251C10.608 23.392 8.39196 23.392 7.02513 22.0251L1.97487 16.9749C0.608036 15.608 0.608039 13.392 1.97487 12.0251ZM17.5 8C18.3284 8 19 7.32843 19 6.5C19 5.67157 18.3284 5 17.5 5C16.6716 5 16 5.67157 16 6.5C16 7.32843 16.6716 8 17.5 8Z" fill="#18202A"/>
</svg>
