<svg width="24" height="24" viewBox="0 0 24 24" fill="none" xmlns="http://www.w3.org/2000/svg">
<path d="M9.03033 3.78033C9.32322 3.48744 9.32322 3.01256 9.03033 2.71967C8.73744 2.42678 8.26256 2.42678 7.96967 2.71967L3.46967 7.21967C3.17678 7.51256 3.17678 7.98744 3.46967 8.28033L7.96967 12.7803C8.26256 13.0732 8.73744 13.0732 9.03033 12.7803C9.32322 12.4874 9.32322 12.0126 9.03033 11.7197L5.81066 8.5H15C17.4853 8.5 19.5 10.5147 19.5 13C19.5 15.4853 17.4853 17.5 15 17.5H7.75C7.33579 17.5 7 17.8358 7 18.25C7 18.6642 7.33579 19 7.75 19H15C18.3137 19 21 16.3137 21 13C21 9.68629 18.3137 7 15 7H5.81066L9.03033 3.78033Z" fill="#18202A"/>
</svg>
