<svg width="24" height="24" viewBox="0 0 24 24" fill="none" xmlns="http://www.w3.org/2000/svg">
<path fill-rule="evenodd" clip-rule="evenodd" d="M4 4.00391C2.34315 4.00391 1 5.34705 1 7.00391V15.0039C1 16.6608 2.34315 18.0039 4 18.0039H1C0.447715 18.0039 0 18.4516 0 19.0039C0 19.5562 0.447716 20.0039 1 20.0039H23C23.5523 20.0039 24 19.5562 24 19.0039C24 18.4516 23.5523 18.0039 23 18.0039H20C21.6569 18.0039 23 16.6608 23 15.0039V7.00391C23 5.34705 21.6569 4.00391 20 4.00391H4ZM13 7.50491C13 7.05946 13.5385 6.83637 13.8535 7.15136L17.25 10.5478C17.4452 10.7431 17.4452 11.0596 17.25 11.2549L13.8535 14.6514C13.5385 14.9663 13 14.7433 13 14.2978V12.6525C11.2811 12.6679 10.236 12.8474 9.46812 13.2592C8.67056 13.6869 8.13724 14.3836 7.46558 15.5279C7.40847 15.6252 7.29327 15.6722 7.18441 15.6426C7.07554 15.613 6.99998 15.5142 6.99998 15.4014C6.99998 12.8923 7.82265 11.311 9.04724 10.3659C10.1891 9.48469 11.6434 9.18601 13 9.15426V7.50491Z" fill="#18202A"/>
</svg>
