<svg width="24" height="24" viewBox="0 0 24 24" fill="none" xmlns="http://www.w3.org/2000/svg">
<path d="M3.22102 3.22101C3.5157 2.92633 3.99347 2.92633 4.28815 3.22101L20.779 19.7119C21.0737 20.0065 21.0737 20.4843 20.779 20.779C20.4843 21.0737 20.0066 21.0737 19.7119 20.779L3.22102 4.28813C2.92635 3.99345 2.92635 3.51568 3.22102 3.22101Z" fill="#18202A"/>
<path d="M6.38996 5.32426C4.98524 6.74363 4.19816 8.64171 4.19816 10.619C4.19816 14.3991 3.267 16.6302 2.49872 17.8278C2.23672 18.2362 2.56253 19 3.04776 19H20.0657L18.5657 17.5H4.38467C5.09431 15.98 5.69816 13.7592 5.69816 10.619C5.69816 9.04495 6.32339 7.52678 7.45064 6.38493L6.38996 5.32426Z" fill="#18202A"/>
<path d="M18.9735 15.7865C18.5767 14.4377 18.3019 12.7376 18.3019 10.619C18.3019 9.00781 17.6468 7.45516 16.4688 6.30473C15.2895 5.15311 13.6827 4.5 12 4.5C10.7961 4.5 9.63093 4.83436 8.63347 5.44644L7.54874 4.36172C8.64308 3.6193 9.91759 3.16075 11.2508 3.03519C11.2503 3.02353 11.25 3.01179 11.25 3V2C11.25 1.58579 11.5858 1.25 12 1.25C12.4142 1.25 12.75 1.58579 12.75 2V3C12.75 3.01179 12.7497 3.02353 12.7492 3.03519C14.5434 3.20416 16.2313 3.97621 17.5168 5.23157C18.9799 6.66042 19.8019 8.59835 19.8019 10.619C19.8019 14.3991 20.733 16.6302 21.5013 17.8278C21.6003 17.9821 21.6154 18.1872 21.5696 18.3826L18.9735 15.7865Z" fill="#18202A"/>
<path d="M10.3021 22.4337C9.81142 22.0661 9.45297 21.5495 9.28035 20.9611L10.7197 20.5389C10.8011 20.8164 10.9701 21.06 11.2014 21.2332C11.4327 21.4064 11.7137 21.5 12.0025 21.5C12.2913 21.5 12.5724 21.4064 12.8036 21.2332C13.0349 21.0599 13.2039 20.8164 13.2854 20.5389L14.7247 20.9611C14.5521 21.5495 14.1936 22.0661 13.7029 22.4337C13.2122 22.8013 12.6156 23 12.0025 23C11.3894 23 10.7928 22.8013 10.3021 22.4337Z" fill="#18202A"/>
</svg>
