<svg width="24" height="24" viewBox="0 0 24 24" fill="none" xmlns="http://www.w3.org/2000/svg">
<g clip-path="url(#clip0_2266_33088)">
<path fill-rule="evenodd" clip-rule="evenodd" d="M5 16.9999L10.8134 22.3133C12.4177 23.7797 15 22.6415 15 20.468V3.53203C15 1.35852 12.4178 0.22032 10.8134 1.68665L5 6.99988H3C1.34315 6.99988 0 8.34302 0 9.99988V13.9999C0 15.6567 1.34315 16.9999 3 16.9999H5ZM5.58223 15.4999L11.8253 21.2061C12.4671 21.7927 13.5 21.3374 13.5 20.468V3.53203C13.5 2.66262 12.4671 2.20735 11.8254 2.79388L5.5822 8.49988H5.5V15.4999H5.58223ZM3 8.49988H4V15.4999H3C2.17157 15.4999 1.5 14.8283 1.5 13.9999V9.99988C1.5 9.17145 2.17157 8.49988 3 8.49988Z" fill="#18202A"/>
<path d="M17.2155 9.57464C16.9492 9.25733 16.9906 8.78427 17.3079 8.51801C17.6252 8.25176 18.0983 8.29315 18.3646 8.61046L20.5219 11.1815L22.6792 8.61046C22.9455 8.29315 23.4185 8.25176 23.7358 8.51801C24.0531 8.78427 24.0945 9.25733 23.8283 9.57464L21.5009 12.3482L23.8283 15.1218C24.0945 15.4391 24.0531 15.9122 23.7358 16.1785C23.4185 16.4447 22.9454 16.4033 22.6792 16.086L20.5219 13.515L18.3646 16.086C18.0983 16.4033 17.6253 16.4447 17.308 16.1785C16.9907 15.9122 16.9493 15.4391 17.2155 15.1218L19.5428 12.3482L17.2155 9.57464Z" fill="#18202A"/>
</g>
<defs>
<clipPath id="clip0_2266_33088">
<rect width="24" height="24" fill="white"/>
</clipPath>
</defs>
</svg>
