<svg width="24" height="24" viewBox="0 0 24 24" fill="none" xmlns="http://www.w3.org/2000/svg">
<path d="M14.9697 3.78033C14.6768 3.48744 14.6768 3.01256 14.9697 2.71967C15.2626 2.42678 15.7374 2.42678 16.0303 2.71967L20.5303 7.21967C20.8232 7.51256 20.8232 7.98744 20.5303 8.28033L16.0303 12.7803C15.7374 13.0732 15.2626 13.0732 14.9697 12.7803C14.6768 12.4874 14.6768 12.0126 14.9697 11.7197L18.1893 8.5H9C6.51472 8.5 4.5 10.5147 4.5 13C4.5 15.4853 6.51472 17.5 9 17.5H16.25C16.6642 17.5 17 17.8358 17 18.25C17 18.6642 16.6642 19 16.25 19H9C5.68629 19 3 16.3137 3 13C3 9.68629 5.68629 7 9 7H18.1893L14.9697 3.78033Z" fill="#18202A"/>
</svg>
