<svg width="24" height="24" viewBox="0 0 24 24" fill="none" xmlns="http://www.w3.org/2000/svg">
<path fill-rule="evenodd" clip-rule="evenodd" d="M5.96095 8.80077C6.66369 5.88056 9.04855 3.75 12 3.75C14.9515 3.75 17.3363 5.88056 18.039 8.80077C17.9374 8.7041 17.8343 8.61018 17.7299 8.51904L16.8943 9.78376C17.2503 10.1103 17.5897 10.478 17.908 10.8872C17.9964 11.0009 18.1111 11.0822 18.2369 11.1292C18.1535 12.8652 17.6861 14.9017 17.1941 16.9381C17.1012 17.3223 16.8203 17.7966 16.3558 18.32C15.901 18.8323 15.3179 19.3386 14.7056 19.7884C14.0943 20.2375 13.4721 20.6169 12.9503 20.8806C12.689 21.0126 12.4627 21.1106 12.2826 21.1738C12.1928 21.2053 12.1213 21.2258 12.0676 21.2378C12.0279 21.2468 12.0064 21.2492 12 21.2498C11.9936 21.2492 11.9721 21.2468 11.9324 21.2378C11.8787 21.2258 11.8072 21.2053 11.7174 21.1738C11.5373 21.1106 11.311 21.0126 11.0497 20.8806C10.5279 20.6169 9.90569 20.2375 9.29443 19.7884C8.68211 19.3386 8.09901 18.8323 7.64424 18.32C7.1797 17.7966 6.89877 17.3223 6.80595 16.9381C6.3139 14.9017 5.84651 12.8652 5.76315 11.1292C5.88888 11.0822 6.00357 11.0009 6.09202 10.8872C6.41195 10.4759 6.75318 10.1066 7.11122 9.77873L6.2574 8.53011C6.15737 8.61779 6.05853 8.70801 5.96095 8.80077ZM12 2.25C7.50095 2.25 4.25 6.11747 4.25 10.6C4.25 12.6545 4.81397 15.0806 5.3479 17.2904C5.52431 18.0205 5.98838 18.7141 6.52241 19.3157C7.06621 19.9284 7.73523 20.5043 8.40638 20.9973C9.07859 21.4911 9.7712 21.9152 10.3733 22.2194C10.674 22.3713 10.9619 22.4983 11.2206 22.5891C11.4623 22.674 11.7406 22.75 12 22.75C12.2594 22.75 12.5377 22.674 12.7794 22.5891C13.0381 22.4983 13.326 22.3713 13.6267 22.2194C14.2288 21.9152 14.9214 21.4911 15.5936 20.9973C16.2648 20.5043 16.9338 19.9284 17.4776 19.3157C18.0116 18.7141 18.4757 18.0205 18.6521 17.2904C19.186 15.0806 19.75 12.6545 19.75 10.6C19.75 6.11747 16.4991 2.25 12 2.25ZM12 6.30176C11.5934 6.30176 11.1877 6.33168 10.7853 6.39127L11.1767 7.85202C11.4509 7.81846 11.7257 7.80176 12 7.80176C12.2818 7.80176 12.5643 7.8194 12.846 7.85484L13.2373 6.39463C12.8275 6.33281 12.4142 6.30176 12 6.30176ZM7.4605 7.6321C8.05775 7.25695 8.68352 6.96023 9.32663 6.7431L9.71587 8.19577C9.23482 8.36542 8.7631 8.59032 8.30788 8.8713L7.4605 7.6321ZM16.5244 7.62262C15.9384 7.25611 15.325 6.965 14.6949 6.75038L14.3055 8.20335C14.781 8.37275 15.2472 8.59617 15.6972 8.87446L16.5244 7.62262Z" fill="#26282C"/>
</svg>
