<svg width="24" height="24" viewBox="0 0 24 24" fill="none" xmlns="http://www.w3.org/2000/svg">
<path fill-rule="evenodd" clip-rule="evenodd" d="M5.75 10.6C5.75 6.79826 8.46968 3.75 12 3.75C15.5303 3.75 18.25 6.79826 18.25 10.6C18.25 11.6716 18.0767 12.8797 17.8249 14.1449C17.5308 14.5122 17.2194 14.8448 16.8942 15.1431L17.429 15.9526C17.3524 16.2803 17.2735 16.6092 17.1941 16.9381C17.1012 17.3223 16.8203 17.7966 16.3558 18.32C15.901 18.8323 15.3179 19.3386 14.7056 19.7884C14.0943 20.2375 13.4721 20.6169 12.9503 20.8806C12.689 21.0126 12.4627 21.1106 12.2826 21.1738C12.1928 21.2053 12.1213 21.2258 12.0676 21.2378C12.0279 21.2468 12.0064 21.2492 12 21.2498C11.9936 21.2492 11.9721 21.2468 11.9324 21.2378C11.8787 21.2258 11.8072 21.2053 11.7174 21.1738C11.5373 21.1106 11.311 21.0126 11.0497 20.8806C10.5279 20.6169 9.90569 20.2375 9.29443 19.7884C8.68211 19.3386 8.09901 18.8323 7.64424 18.32C7.1797 17.7966 6.89877 17.3223 6.80595 16.9381C6.72563 16.6057 6.64596 16.2733 6.56852 15.9422L7.11142 15.1482C6.78414 14.8486 6.4709 14.5143 6.17513 14.1449C5.92333 12.8797 5.75 11.6716 5.75 10.6ZM12 2.25C7.50095 2.25 4.25 6.11747 4.25 10.6C4.25 12.6545 4.81397 15.0806 5.3479 17.2904C5.52431 18.0205 5.98838 18.7141 6.52241 19.3157C7.06621 19.9284 7.73523 20.5043 8.40638 20.9973C9.07859 21.4911 9.7712 21.9152 10.3733 22.2194C10.674 22.3713 10.9619 22.4983 11.2206 22.5891C11.4623 22.674 11.7406 22.75 12 22.75C12.2594 22.75 12.5377 22.674 12.7794 22.5891C13.0381 22.4983 13.326 22.3713 13.6267 22.2194C14.2288 21.9152 14.9214 21.4911 15.5936 20.9973C16.2648 20.5043 16.9338 19.9284 17.4776 19.3157C18.0116 18.7141 18.4757 18.0205 18.6521 17.2904C19.186 15.0806 19.75 12.6545 19.75 10.6C19.75 6.11747 16.4991 2.25 12 2.25ZM16.5243 17.3042C15.9384 17.6706 15.3253 17.9616 14.6954 18.1762L14.3061 16.7232C14.7813 16.5539 15.2473 16.3306 15.6971 16.0524L16.5243 17.3042ZM7.46073 17.2948C8.05791 17.6699 8.6836 17.9666 9.32663 18.1837L9.71587 16.731C9.2349 16.5614 8.76326 16.3366 8.30811 16.0556L7.46073 17.2948ZM12 18.625C11.5934 18.625 11.1877 18.5951 10.7853 18.5355L11.1767 17.0748C11.4509 17.1083 11.7257 17.125 12 17.125C12.282 17.125 12.5647 17.1074 12.8466 17.0719L13.2379 18.5321C12.8279 18.594 12.4144 18.625 12 18.625Z" fill="#26282C"/>
</svg>
