<svg width="24" height="24" viewBox="0 0 24 24" fill="none" xmlns="http://www.w3.org/2000/svg">
<path fill-rule="evenodd" clip-rule="evenodd" d="M12.5 21.4871C12.3344 21.4957 12.1677 21.5 12 21.5C6.75329 21.5 2.5 17.2467 2.5 12C2.5 6.75329 6.75329 2.5 12 2.5C17.2467 2.5 21.5 6.75329 21.5 12C21.5 12.4825 21.464 12.9566 21.3946 13.4198C21.8916 13.7726 22.3214 14.2139 22.6609 14.7207C22.8823 13.8506 23 12.939 23 12C23 5.92487 18.0751 1 12 1C5.92487 1 1 5.92487 1 12C1 18.0751 5.92487 23 12 23C12.3749 23 12.7455 22.9812 13.1108 22.9446C12.7216 22.5627 12.5019 22.0285 12.5 21.4871ZM13.5039 17.5587C13.0161 17.6853 12.5098 17.75 12 17.75C11.0816 17.75 10.1747 17.5402 9.36671 17.1362C8.5585 16.7321 7.87118 16.1444 7.37979 15.4217C7.14689 15.0792 7.23576 14.6127 7.57829 14.3798C7.92083 14.1469 8.38731 14.2358 8.62021 14.5783C8.95843 15.0757 9.44388 15.4977 10.0375 15.7945C10.6314 16.0915 11.3078 16.25 12 16.25C12.6188 16.25 13.2249 16.1233 13.7707 15.8844C13.5977 16.3912 13.5039 16.9346 13.5039 17.5V17.5587ZM10 10C10 11.1046 9.32843 12 8.5 12C7.67157 12 7 11.1046 7 10C7 8.89543 7.67157 8 8.5 8C9.32843 8 10 8.89543 10 10ZM15.5 12C16.3284 12 17 11.1046 17 10C17 8.89543 16.3284 8 15.5 8C14.6716 8 14 8.89543 14 10C14 11.1046 14.6716 12 15.5 12Z" fill="#18202A"/>
<path fill-rule="evenodd" clip-rule="evenodd" d="M22 17.5L22 17.5143V19.5C22 20.1295 22.2964 20.7223 22.8 21.1C23.1844 21.3883 22.9805 22 22.5 22H14.5C14.0195 22 13.8156 21.3883 14.2 21.1C14.7036 20.7223 15 20.1295 15 19.5V17.5C15 17.5 15 17.5 15 17.5C15 17.5 15 17.5 15 17.5C15 15.567 16.567 14 18.5 14C20.433 14 22 15.567 22 17.5ZM17.5 23C17.2239 23 17 23.2239 17 23.5C17 23.7761 17.2239 24 17.5 24H19.5C19.7762 24 20 23.7761 20 23.5C20 23.2239 19.7762 23 19.5 23H17.5Z" fill="#18202A"/>
</svg>
