<svg width="24" height="24" viewBox="0 0 24 24" fill="none" xmlns="http://www.w3.org/2000/svg">
<path fill-rule="evenodd" clip-rule="evenodd" d="M12 4C12 3.44772 11.5511 2.99607 11.0003 3.03667C5.39364 3.44993 1 7.30516 1 12C1 16.9706 5.92487 21 12 21C13.1763 21 14.3094 20.8489 15.372 20.5692L18.4823 21.8652C19.1743 22.1535 19.9257 21.6061 19.8635 20.8591L19.6633 18.4566C21.7213 16.8212 23 14.5328 23 12C23 11.949 22.9995 11.898 22.9984 11.8472C22.9885 11.3604 22.5696 11 22.0827 11H21.9088C21.3872 11 21 11.4784 21 12C21 13.8204 20.086 15.5661 18.419 16.8908L17.5813 17.5565L17.7338 19.3867L15.517 18.463L14.8629 18.6351C13.9671 18.8709 13.0051 19 12 19C6.63547 19 3 15.5095 3 12C3 8.71306 6.18908 5.4427 11.0009 5.04121C11.5513 4.99529 12 4.55228 12 4Z" fill="#18202A"/>
<path d="M17 2C17.5523 2 18 2.33579 18 2.75V3.52213C19.7437 3.89315 21.7559 5.75096 21.7559 7C21.7559 7.47919 21.1346 7.25937 20.3198 6.97111C19.5992 6.71613 18.7272 6.40761 18 6.48196V12C18 13.6569 16.6569 15 15 15C13.3431 15 12 13.6569 12 12C12 10.3431 13.3431 9 15 9C15.3506 9 15.6872 9.06015 16 9.17071V2.75C16 2.33579 16.4477 2 17 2Z" fill="#18202A"/>
</svg>
