<svg width="24" height="24" viewBox="0 0 24 24" fill="none" xmlns="http://www.w3.org/2000/svg">
<path fill-rule="evenodd" clip-rule="evenodd" d="M6 1.75C6 1.33579 6.33579 1 6.75 1C7.16421 1 7.5 1.33579 7.5 1.75V3H16.5V1.75C16.5 1.33579 16.8358 1 17.25 1C17.6642 1 18 1.33579 18 1.75V3H19C21.2091 3 23 4.79086 23 7V11.3847C22.5331 11.0665 22.0307 10.7964 21.5 10.5816V7C21.5 5.61929 20.3807 4.5 19 4.5H18V6.25C18 6.66421 17.6642 7 17.25 7C16.8358 7 16.5 6.66421 16.5 6.25V4.5H7.5V6.25C7.5 6.66421 7.16421 7 6.75 7C6.33579 7 6 6.66421 6 6.25V4.5H5C3.61929 4.5 2.5 5.61929 2.5 7V19C2.5 20.3807 3.61929 21.5 5 21.5H11.3042C11.5655 22.0363 11.8851 22.539 12.2546 23H5C2.79086 23 1 21.2091 1 19V7C1 4.79086 2.79086 3 5 3H6V1.75ZM10 17C10.2004 17 10.3871 17.059 10.5435 17.1605C10.5148 17.4364 10.5 17.7165 10.5 18.0001C10.5 18.2836 10.5147 18.5636 10.5435 18.8395C10.387 18.941 10.2004 19 10 19C9.44772 19 9 18.5523 9 18C9 17.4477 9.44772 17 10 17ZM5 9.75C5 9.33579 5.33579 9 5.75 9H18.25C18.6642 9 19 9.33579 19 9.75C19 10.1642 18.6642 10.5 18.25 10.5H5.75C5.33579 10.5 5 10.1642 5 9.75ZM6 13C5.44772 13 5 13.4477 5 14C5 14.5523 5.44772 15 6 15C6.55228 15 7 14.5523 7 14C7 13.4477 6.55228 13 6 13ZM5 18C5 17.4477 5.44772 17 6 17C6.55228 17 7 17.4477 7 18C7 18.5523 6.55228 19 6 19C5.44772 19 5 18.5523 5 18ZM10 13C9.44772 13 9 13.4477 9 14C9 14.5523 9.44772 15 10 15C10.5523 15 11 14.5523 11 14C11 13.4477 10.5523 13 10 13ZM17.8915 12C17.4091 12 16.9954 12.3445 16.9081 12.819L16.8086 13.359C16.2087 13.5663 15.6614 13.8867 15.1924 14.2947L14.6723 14.1098C14.2177 13.9482 13.7125 14.1342 13.4713 14.552L12.954 15.448C12.7128 15.8658 12.8043 16.3963 13.1715 16.7092L13.5921 17.0675C13.534 17.3694 13.5036 17.6812 13.5036 18C13.5036 18.3189 13.534 18.6306 13.5921 18.9325L13.1715 19.2908C12.8043 19.6037 12.7128 20.1342 12.954 20.552L13.4713 21.448C13.7126 21.8658 14.2177 22.0518 14.6723 21.8902L15.1924 21.7053C15.6614 22.1133 16.2087 22.4337 16.8086 22.641L16.9081 23.181C16.9954 23.6555 17.4091 24 17.8915 24H18.9261C19.4086 24 19.8222 23.6555 19.9096 23.181L20.0085 22.6439C20.6107 22.437 21.1601 22.1162 21.6308 21.7073L22.1454 21.8902C22.6 22.0518 23.1051 21.8658 23.3463 21.448L23.8636 20.552C24.1049 20.1342 24.0134 19.6037 23.6461 19.2908L23.2323 18.9382C23.291 18.6345 23.3218 18.3209 23.3218 18C23.3218 17.6791 23.291 17.3655 23.2323 17.0618L23.6461 16.7092C24.0134 16.3963 24.1049 15.8658 23.8636 15.448L23.3463 14.552C23.1051 14.1342 22.6 13.9482 22.1454 14.1098L21.6308 14.2927C21.1601 13.8838 20.6107 13.563 20.0085 13.3561L19.9096 12.819C19.8222 12.3445 19.4086 12 18.9261 12H17.8915ZM18.4082 20C19.5127 20 20.4082 19.1046 20.4082 18C20.4082 16.8954 19.5127 16 18.4082 16C17.3036 16 16.4082 16.8954 16.4082 18C16.4082 19.1046 17.3036 20 18.4082 20Z" fill="#18202A"/>
</svg>
