<svg width="24" height="24" viewBox="0 0 24 24" fill="none" xmlns="http://www.w3.org/2000/svg">
<g clip-path="url(#clip0_3626_8891)">
<path d="M17 13.813L15.5 12.313V6.42539C15.5 5.71809 15.0059 5.10689 14.3143 4.95869L6.46336 3.27635L4.55649 1.36948C4.98475 1.13397 5.47673 1 6 1H18C19.6569 1 21 2.34315 21 4V17.813L19.5 16.313V4C19.5 3.17157 18.8284 2.5 18 2.5H9.99932L14.6286 3.49199C16.0118 3.78839 17 5.01078 17 6.42539V13.813Z" fill="#18202A"/>
<path fill-rule="evenodd" clip-rule="evenodd" d="M1.5 2.56743L3 4.06744V18.5749C3 19.9895 3.9882 21.2119 5.37141 21.5083L13.3714 23.2226C14.9985 23.5712 16.5447 22.5355 16.9159 21H18C18.5546 21 19.074 20.8495 19.5197 20.5872L21.4325 22.5C21.7272 22.7947 22.2049 22.7947 22.4996 22.5C22.7943 22.2053 22.7943 21.7276 22.4996 21.4329L2.56712 1.50031C2.27244 1.20563 1.79468 1.20563 1.5 1.50031C1.20532 1.79498 1.20532 2.27275 1.5 2.56743ZM17 18.0675L18.3831 19.4506C18.2608 19.4828 18.1324 19.5 18 19.5H17V18.0675ZM13.6857 21.7559C14.6195 21.956 15.5 21.2442 15.5 20.2892V16.5675L13.6152 14.6827C13.4455 14.8815 13.232 15 13 15C12.4477 15 12 14.3284 12 13.5C12 13.3625 12.0123 13.2294 12.0354 13.1029L4.5 5.56744V18.5749C4.5 19.2822 4.9941 19.8934 5.68571 20.0416L13.6857 21.7559Z" fill="#18202A"/>
</g>
<defs>
<clipPath id="clip0_3626_8891">
<rect width="24" height="24" fill="white"/>
</clipPath>
</defs>
</svg>
