<svg width="24" height="24" viewBox="0 0 24 24" fill="none" xmlns="http://www.w3.org/2000/svg">
<path fill-rule="evenodd" clip-rule="evenodd" d="M12 11C14.6667 11 16 8.5 16 5.375C16 2.875 14.6667 1 12 1C9.33333 1 8 2.875 8 5.375C8 8.5 9.33333 11 12 11ZM12 13C12.9728 13 13.913 13.1389 14.8021 13.3979C13.1007 14.6749 12 16.7089 12 19C12 20.4693 12.4527 21.8329 13.2262 22.9589C12.821 22.9862 12.4121 23 12 23C10.4526 23 8.95082 22.8047 7.51793 22.4375C6.29889 22.1251 5.2657 21.3086 4.69986 20.1845C4.6842 20.1534 4.66863 20.1222 4.65317 20.091C3.87094 18.5114 4.13694 16.5761 5.47167 15.4248C7.22347 13.9137 9.50505 13 12 13ZM14 19C14 21.7614 16.2386 24 19 24C21.7614 24 24 21.7614 24 19C24 16.2386 21.7614 14 19 14C16.2386 14 14 16.2386 14 19ZM18.9697 15.9697C18.6768 16.2626 18.6768 16.7374 18.9697 17.0303L20.1893 18.25H16C15.5858 18.25 15.25 18.5858 15.25 19C15.25 19.4142 15.5858 19.75 16 19.75H20.1893L18.9697 20.9697C18.6768 21.2626 18.6768 21.7374 18.9697 22.0303C19.2626 22.3232 19.7374 22.3232 20.0303 22.0303L22.5303 19.5303C22.8232 19.2374 22.8232 18.7626 22.5303 18.4697L20.0303 15.9697C19.7374 15.6768 19.2626 15.6768 18.9697 15.9697Z" fill="#18202A"/>
</svg>
