<svg width="24" height="24" viewBox="0 0 24 24" fill="none" xmlns="http://www.w3.org/2000/svg">
<path fill-rule="evenodd" clip-rule="evenodd" d="M4 1C3.58579 1 3.25 1.33579 3.25 1.75C3.25 2.16421 3.58579 2.5 4 2.5H5V4.14286C5 7.26248 6.85941 9.92713 9.48051 10.9868C9.7848 11.1099 10 11.3961 10 11.7243V12.2757C10 12.6039 9.7848 12.8901 9.48051 13.0131C6.85941 14.0728 5 16.7375 5 19.8571V21.5H4C3.58579 21.5 3.25 21.8358 3.25 22.25C3.25 22.6642 3.58579 23 4 23H20C20.4142 23 20.75 22.6642 20.75 22.25C20.75 21.8358 20.4142 21.5 20 21.5H19L19 19.8571C19 16.7375 17.1406 14.0728 14.5195 13.0131C14.2152 12.8901 14 12.6039 14 12.2757V11.7243C14 11.3961 14.2152 11.1099 14.5195 10.9868C17.1406 9.92713 19 7.26248 19 4.14286L19 2.5H20C20.4142 2.5 20.75 2.16421 20.75 1.75C20.75 1.33579 20.4142 1 20 1H4ZM10.0427 9.59619C8.00006 8.77034 6.5 6.66382 6.5 4.14286V2.5H17.5L17.5 4.14323C17.4999 6.66402 15.9998 8.77038 13.9573 9.59619C13.1529 9.92136 12.5 10.7158 12.5 11.7243V12.2757C12.5 13.2842 13.1529 14.0786 13.9573 14.4038C15.9998 15.2296 17.4999 17.3363 17.5 19.8571L17.5 21.5H6.5V19.8571C6.5 17.3361 8.00006 15.2296 10.0427 14.4038C10.8471 14.0786 11.5 13.2842 11.5 12.2757V11.7243C11.5 10.7158 10.8471 9.92136 10.0427 9.59619Z" fill="#18202A"/>
</svg>
