<svg width="24" height="24" viewBox="0 0 24 24" fill="none" xmlns="http://www.w3.org/2000/svg">
<path d="M14.8113 3.95062L9 9.76196V5C9 3.34315 10.3431 2 12 2C13.2877 2 14.3859 2.81129 14.8113 3.95062Z" fill="#18202A"/>
<path d="M19.2233 2.36124C19.6657 1.91879 20.3413 1.87699 20.7321 2.26786C21.123 2.65873 21.0812 3.33427 20.6388 3.77671L15 9.41547V11C15 12.6569 13.6569 14 12 14C11.5372 14 11.0989 13.8952 10.7074 13.708L9.24338 15.1721C10.0337 15.6953 10.9813 16 12 16C14.4212 16 16.4405 14.279 16.9013 11.9936C17.0105 11.4522 17.4477 11 18 11C18.5523 11 19.0075 11.4503 18.9296 11.997C18.4922 15.0641 16.0667 17.4905 13 17.9291V20H15.5C16.0523 20 16.5 20.4477 16.5 21C16.5 21.5523 16.0523 22 15.5 22H8.5C7.94771 22 7.5 21.5523 7.5 21C7.5 20.4477 7.94771 20 8.5 20H11V17.9291C9.81441 17.7595 8.72465 17.2928 7.80856 16.6069L4.77671 19.6388C4.33427 20.0812 3.65873 20.123 3.26786 19.7321C2.87699 19.3413 2.91879 18.6657 3.36124 18.2233L19.2233 2.36124Z" fill="#18202A"/>
<path d="M5.40629 13.3557L7.0214 11.7406C6.84581 11.3183 6.46339 11 6.00003 11C5.44775 11 4.99253 11.4503 5.0705 11.997C5.13745 12.4665 5.25099 12.921 5.40629 13.3557Z" fill="#18202A"/>
</svg>
