<svg width="24" height="24" viewBox="0 0 24 24" fill="none" xmlns="http://www.w3.org/2000/svg">
<path fill-rule="evenodd" clip-rule="evenodd" d="M4.20709 2.79289C3.81657 2.40237 3.1834 2.40237 2.79288 2.79289C2.40235 3.18342 2.40235 3.81658 2.79288 4.20711L5.29326 6.70749C3.45837 8.19326 2.07813 9.9456 1.32236 11.0144C0.901255 11.6099 0.901254 12.3901 1.32236 12.9856C2.83467 15.1243 6.84747 20 12 20C13.8516 20 15.556 19.3703 17.0501 18.4643L19.7929 21.2071C20.1834 21.5976 20.8166 21.5976 21.2071 21.2071C21.5976 20.8166 21.5976 20.1834 21.2071 19.7929L18.7067 17.2925L18.7076 17.2918L15.4467 14.031L15.4462 14.032L13.9322 12.518L13.9326 12.5168L11.4832 10.0674L11.4819 10.0677L9.96802 8.55382L9.969 8.55324L6.95083 5.53507L6.94986 5.53566L4.20709 2.79289ZM8.5538 9.96803C8.20191 10.5635 7.99998 11.2582 7.99998 12C7.99998 14.2091 9.79085 16 12 16C12.7418 16 13.4364 15.7981 14.032 15.4462L12.518 13.9323C12.3528 13.9764 12.1791 14 12 14C10.8954 14 9.99998 13.1046 9.99998 12C9.99998 11.8208 10.0235 11.6472 10.0677 11.482L8.5538 9.96803Z" fill="#18202A"/>
<path d="M12.252 8.00781C14.2604 8.13267 15.8673 9.73959 15.9922 11.748L20.1921 15.9479C21.2937 14.8426 22.1423 13.7426 22.6776 12.9856C23.0987 12.3901 23.0987 11.6099 22.6776 11.0144C21.1653 8.87572 17.1525 4 12 4C10.8912 4 9.83527 4.22577 8.84563 4.60145L12.252 8.00781Z" fill="#18202A"/>
</svg>
