<svg width="24" height="24" viewBox="0 0 24 24" fill="none" xmlns="http://www.w3.org/2000/svg">
<path fill-rule="evenodd" clip-rule="evenodd" d="M1 5C1 2.79086 2.79086 1 5 1H19C21.2091 1 23 2.79086 23 5V13.2547C21.8662 12.4638 20.4872 12 19 12C18.5727 12 18.1542 12.0383 17.748 12.1116C17.3489 12.0258 16.9338 11.9805 16.5076 11.9805C16.2082 11.9805 15.9143 12.0028 15.6276 12.0459C15.7156 12.1012 15.8022 12.1585 15.8875 12.2177C16.032 12.318 16.1638 12.4283 16.2831 12.5468C15.9488 12.6877 15.6278 12.8538 15.3224 13.0428L15.3174 13.0393C14.3723 12.3834 13.2302 12 12.0001 12C10.7701 12 9.628 12.3834 8.68289 13.0393C7.92683 13.5639 7.67279 14.5448 7.96263 15.4182C8.09076 15.8044 8.24001 16.1806 8.40897 16.5455C8.73296 17.2453 9.38644 17.7346 10.1478 17.8569C10.7513 17.9538 11.3699 18.0041 12.0001 18.0041L12.0703 18.0039C12.024 18.3293 12 18.6618 12 19C12 20.4872 12.4638 21.8662 13.2547 23H5C2.79086 23 1 21.2091 1 19V5ZM12 11C13.3333 11 14 9.75 14 8.1875C14 6.9375 13.3333 6 12 6C10.6667 6 10 6.9375 10 8.1875C10 9.75 10.6667 11 12 11ZM6.5 11C7.5 11 8 10 8 8.75C8 7.75 7.5 7 6.5 7C5.5 7 5 7.75 5 8.75C5 10 5.5 11 6.5 11ZM19 8.75C19 10 18.5 11 17.5 11C16.5 11 16 10 16 8.75C16 7.75 16.5 7 17.5 7C18.5 7 19 7.75 19 8.75ZM8.1128 12.2177C8.18866 12.165 8.26561 12.1139 8.34363 12.0643C8.02073 12.0092 7.68831 11.9805 7.34888 11.9805C6.40913 11.9805 5.52316 12.2008 4.74429 12.5903C4.08312 12.921 3.80508 13.6959 4.02579 14.4015C4.06865 14.5385 4.11428 14.6743 4.16262 14.809C4.37313 15.3954 4.89621 15.8091 5.51334 15.8948C6.03671 15.9675 6.57045 16.0095 7.1125 16.019C7.07834 15.9243 7.04534 15.829 7.01354 15.7332C6.60534 14.5031 6.93956 13.0318 8.1128 12.2177ZM24 19C24 21.7614 21.7614 24 19 24C16.2386 24 14 21.7614 14 19C14 16.2386 16.2386 14 19 14C21.7614 14 24 16.2386 24 19ZM19 16C18.4477 16 18 16.4477 18 17V18H17C16.4477 18 16 18.4477 16 19C16 19.5523 16.4477 20 17 20H18V21C18 21.5523 18.4477 22 19 22C19.5523 22 20 21.5523 20 21V20H21C21.5523 20 22 19.5523 22 19C22 18.4477 21.5523 18 21 18H20V17C20 16.4477 19.5523 16 19 16Z" fill="#18202A"/>
</svg>
