<svg width="24" height="23" viewBox="0 0 24 23" fill="none" xmlns="http://www.w3.org/2000/svg">
<path d="M4 1C2.89543 1 2 1.89543 2 3V4C2 5.10457 2.89543 6 4 6H20C21.1046 6 22 5.10457 22 4V3C22 1.89543 21.1046 1 20 1H4Z" fill="#18202A"/>
<path fill-rule="evenodd" clip-rule="evenodd" d="M3 9C3 8.44772 3.44772 8 4 8H20C20.5523 8 21 8.44772 21 9V18C21 20.2091 19.2091 22 17 22H7C4.79086 22 3 20.2091 3 18V9ZM8 11C8 10.4477 8.44772 10 9 10H15C15.5523 10 16 10.4477 16 11C16 11.5523 15.5523 12 15 12H9C8.44772 12 8 11.5523 8 11Z" fill="#18202A"/>
</svg>
