<svg width="24" height="24" viewBox="0 0 24 24" fill="none" xmlns="http://www.w3.org/2000/svg">
<path d="M16.5173 11.4569C16.8172 11.7426 16.8288 12.2173 16.5431 12.5172L10.8288 18.5172C10.6826 18.6708 10.4781 18.7553 10.2661 18.7497C10.0541 18.7442 9.85431 18.6491 9.71629 18.4881L7.43057 15.8214C7.161 15.5069 7.19743 15.0335 7.51192 14.7639C7.82641 14.4943 8.29989 14.5307 8.56946 14.8452L10.315 16.8817L15.4569 11.4828C15.7426 11.1828 16.2173 11.1712 16.5173 11.4569Z" fill="#18202A"/>
<path fill-rule="evenodd" clip-rule="evenodd" d="M4.00985 6.75512C4.13445 5.2128 5.42559 4 7 4H17C18.5744 4 19.8655 5.2128 19.9901 6.75512C20.5524 7.25397 20.926 7.96084 20.9901 8.75511C21.6096 9.30469 22 10.1068 22 11V19C22 20.6569 20.6569 22 19 22H5C3.34315 22 2 20.6569 2 19V11C2 10.1068 2.39039 9.30469 3.00985 8.75512C3.07402 7.96084 3.44756 7.25397 4.00985 6.75512ZM5.87984 6.00236C6.15456 5.69412 6.55461 5.5 7 5.5H17C17.4454 5.5 17.8454 5.69412 18.1202 6.00237C18.0803 6.0008 18.0402 6 18 6H6C5.95976 6 5.9197 6.00079 5.87984 6.00236ZM4.87984 8.00236C4.9197 8.00079 4.95976 8 5 8H19C19.0402 8 19.0803 8.00079 19.1202 8.00236C18.8454 7.69411 18.4454 7.5 18 7.5H6C5.55461 7.5 5.15456 7.69412 4.87984 8.00236ZM20.5 11C20.5 10.1716 19.8284 9.5 19 9.5H5C4.17157 9.5 3.5 10.1716 3.5 11V19C3.5 19.8284 4.17157 20.5 5 20.5H19C19.8284 20.5 20.5 19.8284 20.5 19V11Z" fill="#18202A"/>
</svg>
