<svg width="24" height="24" viewBox="0 0 24 24" fill="none" xmlns="http://www.w3.org/2000/svg">
<path fill-rule="evenodd" clip-rule="evenodd" d="M12.2499 2C11.5596 2 10.9999 2.55964 10.9999 3.25V10.75C10.9999 10.8769 10.9054 10.9817 10.7829 10.9978H10.7169C10.5945 10.9817 10.4999 10.8769 10.4999 10.75V5.25C10.4999 4.55964 9.94029 4 9.24994 4C8.55958 4 7.99994 4.55964 7.99994 5.25L7.99994 10.9978L7.99994 12.5C7.99994 12.5002 7.99994 12.5005 7.99994 12.5007V13L6.52994 11.53C6.23548 11.2359 5.85119 11.0486 5.4381 10.9978C5.02501 10.9471 4.60682 11.0359 4.24994 11.25C3.91489 11.4509 3.67142 11.7745 3.57132 12.1521C3.47122 12.5298 3.52239 12.9315 3.71394 13.272C5.59294 16.612 6.68794 18.521 6.99994 19C7.06502 19.1002 7.13035 19.2002 7.19594 19.3C7.74245 20.1299 8.48652 20.811 9.36132 21.2823C10.2355 21.7532 11.2129 21.9998 12.2059 22H12.2079H14.4999C16.4855 22 17.4709 21.0144 18.2261 20.2591L18.2426 20.2426C19.3678 19.1174 19.4999 17.5913 19.4999 16V12.5V10.9978V7.25C19.4999 6.55964 18.9403 6 18.2499 6C17.5596 6 16.9999 6.55964 16.9999 7.25V10.75C16.9999 10.8769 16.9054 10.9817 16.7829 10.9978H16.7169C16.5945 10.9817 16.4999 10.8769 16.4999 10.75V5.25C16.4999 4.55964 15.9403 4 15.2499 4C14.5596 4 13.9999 4.55964 13.9999 5.25V10.75C13.9999 10.8769 13.9054 10.9817 13.7829 10.9978H13.7169C13.5945 10.9817 13.4999 10.8769 13.4999 10.75V3.25C13.4999 2.55964 12.9403 2 12.2499 2Z" fill="#18202A"/>
</svg>
