<svg width="24" height="24" viewBox="0 0 24 24" fill="none" xmlns="http://www.w3.org/2000/svg">
<path fill-rule="evenodd" clip-rule="evenodd" d="M6.23979 7.87114C4.55177 9.2374 3.26174 10.8698 2.54709 11.8804C2.51686 11.9232 2.50653 11.9641 2.50653 12C2.50653 12.0359 2.51686 12.0768 2.54709 12.1196C3.26174 13.1302 4.55176 14.7626 6.23979 16.1289C7.93807 17.5034 9.90291 18.5 12 18.5C14.097 18.5 16.0619 17.5034 17.7602 16.1289C19.4482 14.7626 20.7382 13.1302 21.4529 12.1196C21.4831 12.0768 21.4934 12.0359 21.4934 12C21.4934 11.9641 21.4831 11.9232 21.4529 11.8804C20.7382 10.8698 19.4482 9.2374 17.7602 7.87114C16.0619 6.4966 14.097 5.5 12 5.5C9.90291 5.5 7.93807 6.4966 6.23979 7.87114ZM1.32236 11.0144C0.901255 11.6099 0.901254 12.3901 1.32236 12.9856C2.83467 15.1243 6.84747 20 12 20C17.1525 20 21.1653 15.1243 22.6776 12.9856C23.0987 12.3901 23.0987 11.6099 22.6776 11.0144C21.1653 8.87572 17.1525 4 12 4C6.84747 4 2.83468 8.87572 1.32236 11.0144Z" fill="#18202A"/>
<path fill-rule="evenodd" clip-rule="evenodd" d="M12 14.5C13.3807 14.5 14.5 13.3807 14.5 12C14.5 10.6193 13.3807 9.5 12 9.5C10.6193 9.5 9.49998 10.6193 9.49998 12C9.49998 13.3807 10.6193 14.5 12 14.5ZM16 12C16 14.2091 14.2091 16 12 16C9.79085 16 7.99998 14.2091 7.99998 12C7.99998 9.79086 9.79085 8 12 8C14.2091 8 16 9.79086 16 12Z" fill="#18202A"/>
</svg>
