<svg width="24" height="24" viewBox="0 0 24 24" fill="none" xmlns="http://www.w3.org/2000/svg">
<g clip-path="url(#clip0_3722_8765)">
<path fill-rule="evenodd" clip-rule="evenodd" d="M10 2C10 1.44772 9.55229 1 9 1C8.44772 1 8 1.44772 8 2V4H6.875C5.83947 4 5 4.83947 5 5.875V9H2C1.44772 9 1 9.44771 1 10C1 10.5523 1.44772 11 2 11H5V13H2C1.44772 13 1 13.4477 1 14C1 14.5523 1.44772 15 2 15H5V17.125C5 18.1605 5.83947 19 6.875 19H8V22C8 22.5523 8.44772 23 9 23C9.55229 23 10 22.5523 10 22V19H14V22C14 22.5523 14.4477 23 15 23C15.5523 23 16 22.5523 16 22V19H18.125C19.1605 19 20 18.1605 20 17.125V15H22C22.5523 15 23 14.5523 23 14C23 13.4477 22.5523 13 22 13H20V11H22C22.5523 11 23 10.5523 23 10C23 9.44772 22.5523 9 22 9H20V5.875C20 4.83947 19.1605 4 18.125 4H16V2C16 1.44772 15.5523 1 15 1C14.4477 1 14 1.44772 14 2V4H10V2ZM15 10C15 9.44772 14.5523 9 14 9H11C10.4477 9 10 9.44772 10 10V13C10 13.5523 10.4477 14 11 14H14C14.5523 14 15 13.5523 15 13V10Z" fill="#18202A"/>
</g>
<defs>
<clipPath id="clip0_3722_8765">
<rect width="24" height="24" fill="white"/>
</clipPath>
</defs>
</svg>
