<svg width="24" height="24" viewBox="0 0 24 24" fill="none" xmlns="http://www.w3.org/2000/svg">
<path fill-rule="evenodd" clip-rule="evenodd" d="M12 21C16.9706 21 21 16.9706 21 12C21 7.02944 16.9706 3 12 3C7.02944 3 3 7.02944 3 12C3 16.9706 7.02944 21 12 21ZM12 23C18.0751 23 23 18.0751 23 12C23 5.92487 18.0751 1 12 1C5.92487 1 1 5.92487 1 12C1 18.0751 5.92487 23 12 23Z" fill="#18202A"/>
<path d="M15.5 8.9375C15.5 11.75 14.3333 14 12 14C9.66667 14 8.5 11.75 8.5 8.9375C8.5 6.6875 9.66667 5 12 5C14.3333 5 15.5 6.6875 15.5 8.9375Z" fill="#18202A"/>
<path d="M4.02225 19.5734C4.18333 18.9352 4.50812 18.3409 4.99933 17.8592C6.80313 16.0906 9.27421 15 12 15C14.7258 15 17.1969 16.0906 19.0007 17.8592C19.4919 18.3409 19.8167 18.9351 19.9778 19.5734C17.9735 21.684 15.1404 23 12 23C8.85958 23 6.02653 21.684 4.02225 19.5734Z" fill="#18202A"/>
</svg>
