<svg width="24" height="24" viewBox="0 0 24 24" fill="none" xmlns="http://www.w3.org/2000/svg">
<g clip-path="url(#clip0_3517_8868)">
<path d="M4 5C4 5.55228 3.55228 6 3 6C2.44772 6 2 5.55228 2 5C2 4.44772 2.44772 4 3 4C3.55228 4 4 4.44772 4 5Z" fill="#18202A"/>
<path d="M7 5C7 4.44772 7.44772 4 8 4H21C21.5523 4 22 4.44772 22 5C22 5.55228 21.5523 6 21 6H8C7.44772 6 7 5.55228 7 5Z" fill="#18202A"/>
<path d="M8 11C7.44772 11 7 11.4477 7 12C7 12.5523 7.44772 13 8 13H15.3924C16.446 12.3652 17.6803 12 19 12C19.9994 12 20.9498 12.2094 21.8098 12.5868C21.9295 12.422 22 12.2192 22 12C22 11.4477 21.5523 11 21 11H8Z" fill="#18202A"/>
<path d="M12 19C12 18.6605 12.0242 18.3266 12.0709 18H8C7.44772 18 7 18.4477 7 19C7 19.5523 7.44772 20 8 20H12.0709C12.0242 19.6734 12 19.3395 12 19Z" fill="#18202A"/>
<path d="M4 12C4 12.5523 3.55228 13 3 13C2.44772 13 2 12.5523 2 12C2 11.4477 2.44772 11 3 11C3.55228 11 4 11.4477 4 12Z" fill="#18202A"/>
<path d="M4 19C4 19.5523 3.55228 20 3 20C2.44772 20 2 19.5523 2 19C2 18.4477 2.44772 18 3 18C3.55228 18 4 18.4477 4 19Z" fill="#18202A"/>
<path fill-rule="evenodd" clip-rule="evenodd" d="M19 24C21.7614 24 24 21.7614 24 19C24 16.2386 21.7614 14 19 14C16.2386 14 14 16.2386 14 19C14 21.7614 16.2386 24 19 24ZM18 17C18 16.4477 18.4477 16 19 16C19.5523 16 20 16.4477 20 17V18H21C21.5523 18 22 18.4477 22 19C22 19.5523 21.5523 20 21 20H20V21C20 21.5523 19.5523 22 19 22C18.4477 22 18 21.5523 18 21V20H17C16.4477 20 16 19.5523 16 19C16 18.4477 16.4477 18 17 18H18V17Z" fill="#18202A"/>
</g>
<defs>
<clipPath id="clip0_3517_8868">
<rect width="24" height="24" fill="white"/>
</clipPath>
</defs>
</svg>
