<svg width="24" height="24" viewBox="0 0 24 24" fill="none" xmlns="http://www.w3.org/2000/svg">
<path fill-rule="evenodd" clip-rule="evenodd" d="M1 5C1 2.79086 2.79086 1 5 1H19C21.2091 1 23 2.79086 23 5V14C23 16.2091 21.2091 18 19 18H12.9091L6.45554 21.8372C5.70741 22.2821 4.7875 21.625 4.96564 20.773L5.54545 18H5C2.79086 18 1 16.2091 1 14V5ZM10.4142 6C10.1854 6 10 6.18545 10 6.41421C10 6.52407 10.0436 6.62943 10.1213 6.70711L10.2071 6.79289C10.5976 7.18342 10.5976 7.81658 10.2071 8.20711C9.81658 8.59763 9.18342 8.59763 8.79289 8.20711L8.70711 8.12132C8.25435 7.66857 8 7.0545 8 6.41421C8 5.08088 9.08088 4 10.4142 4H13.2566C14.7717 4 16 5.22827 16 6.74342C16 7.92427 15.2444 8.97263 14.1241 9.34605L13.8162 9.44868C13.3288 9.61116 13 10.0673 13 10.5811V11C13 11.5523 12.5523 12 12 12C11.4477 12 11 11.5523 11 11V10.5811C11 9.20647 11.8796 7.98603 13.1838 7.55132L13.4917 7.44868C13.7952 7.34749 14 7.06341 14 6.74342C14 6.33284 13.6672 6 13.2566 6H10.4142ZM12 13C11.4477 13 11 13.4477 11 14C11 14.5523 11.4477 15 12 15C12.5523 15 13 14.5523 13 14C13 13.4477 12.5523 13 12 13Z" fill="#18202A"/>
</svg>
