<svg width="24" height="24" viewBox="0 0 24 24" fill="none" xmlns="http://www.w3.org/2000/svg">
<g clip-path="url(#clip0_3352_8942)">
<path fill-rule="evenodd" clip-rule="evenodd" d="M3.05985 3.45646C3.17756 3.17968 3.44925 3 3.75002 3H20.25C20.5508 3 20.8225 3.17968 20.9402 3.45646C21.0579 3.73324 20.9989 4.05358 20.7903 4.27023L14.5 10.8024V20.25C14.5 20.5371 14.3361 20.799 14.0779 20.9245C13.8196 21.0501 13.5124 21.0171 13.2867 20.8397L9.78665 18.0897C9.60569 17.9475 9.50002 17.7301 9.50002 17.5V10.8024L3.20978 4.27023C3.00115 4.05358 2.94213 3.73324 3.05985 3.45646ZM5.51344 4.5L10.7903 9.97977C10.9248 10.1195 11 10.306 11 10.5V17.1355L13 18.7069V10.5C13 10.306 13.0752 10.1195 13.2098 9.97977L18.4866 4.5H5.51344Z" fill="#18202A"/>
</g>
<defs>
<clipPath id="clip0_3352_8942">
<rect width="24" height="24" fill="white"/>
</clipPath>
</defs>
</svg>
