<svg width="24" height="24" viewBox="0 0 24 24" fill="none" xmlns="http://www.w3.org/2000/svg">
<path fill-rule="evenodd" clip-rule="evenodd" d="M5.08356 13.2573C4.64754 12.8107 4.18807 12.361 3.68543 11.9486C4.64809 11.038 5.45473 10.0555 6.15139 9.20689L6.15139 9.20689L6.15151 9.20674C6.3418 8.97497 6.52387 8.75319 6.69869 8.5456C7.19608 7.95494 7.62232 7.49179 8.025 7.17636C8.42311 6.8645 8.73178 6.75 9 6.75C9.52293 6.75 9.74494 6.89801 10.0808 7.12193L10.084 7.12404C10.4963 7.39894 11.0246 7.75 12 7.75C12.9754 7.75 13.5037 7.39894 13.916 7.12404L13.9192 7.12193C14.2551 6.89801 14.4771 6.75 15 6.75C15.2682 6.75 15.5769 6.8645 15.975 7.17636C16.3777 7.49179 16.8039 7.95494 17.3013 8.5456C17.4762 8.75323 17.6583 8.97506 17.8486 9.20689C18.5453 10.0555 19.3519 11.038 20.3146 11.9486C19.8119 12.361 19.3525 12.8107 18.9164 13.2573C18.7314 13.447 18.5521 13.6342 18.3755 13.8187L18.3751 13.819C17.9167 14.2979 17.4758 14.7584 16.9955 15.195C15.7082 16.3653 14.255 17.25 12 17.25C9.74501 17.25 8.29184 16.3653 7.00451 15.195C6.52419 14.7584 6.08329 14.2979 5.6249 13.8191L5.62488 13.819L5.62464 13.8188C5.44796 13.6343 5.26869 13.447 5.08356 13.2573ZM9 5.25C8.26823 5.25 7.63939 5.573 7.10001 5.99552C6.56519 6.41446 6.05392 6.98256 5.55132 7.5794C5.35577 7.81161 5.15921 8.05069 4.95933 8.2938C4.10154 9.33715 3.18254 10.4549 2.01986 11.4238C1.83808 11.5753 1.73845 11.8037 1.75107 12.04C1.76369 12.2763 1.88709 12.4928 2.08398 12.624C2.76617 13.0788 3.37785 13.6574 4.0102 14.3052C4.17299 14.4719 4.33889 14.6452 4.50799 14.8218L4.50807 14.8219L4.50811 14.822C4.97851 15.3133 5.47367 15.8306 5.9955 16.305C7.45817 17.6347 9.255 18.75 12 18.75C14.745 18.75 16.5418 17.6347 18.0045 16.305C18.5263 15.8306 19.0215 15.3133 19.4919 14.822L19.4919 14.8219L19.492 14.8218C19.6611 14.6452 19.827 14.4719 19.9898 14.3052C20.6222 13.6574 21.2338 13.0788 21.916 12.624C22.1129 12.4928 22.2363 12.2763 22.2489 12.04C22.2616 11.8037 22.1619 11.5753 21.9801 11.4238C20.8175 10.4549 19.8985 9.33715 19.0407 8.2938C18.8408 8.05068 18.6442 7.81161 18.4487 7.5794C17.9461 6.98256 17.4348 6.41446 16.9 5.99552C16.3606 5.573 15.7318 5.25 15 5.25C14.0246 5.25 13.4963 5.60106 13.084 5.87596L13.0808 5.87807C12.7449 6.10199 12.5229 6.25 12 6.25C11.4771 6.25 11.2551 6.10199 10.9192 5.87807L10.916 5.87596C10.5037 5.60106 9.97544 5.25 9 5.25ZM8.64709 11.2647C8.24092 11.1835 7.84581 11.4469 7.76457 11.8531C7.68334 12.2592 7.94675 12.6543 8.35292 12.7356C10.95 13.255 13.05 13.255 15.6471 12.7356C16.0533 12.6543 16.3167 12.2592 16.2354 11.8531C16.1542 11.4469 15.7591 11.1835 15.3529 11.2647C12.95 11.7453 11.05 11.7453 8.64709 11.2647Z" fill="#26282C"/>
</svg>
