<svg width="24" height="24" viewBox="0 0 24 24" fill="none" xmlns="http://www.w3.org/2000/svg">
<path d="M14 12C14 13.1046 13.1046 14 12 14C10.8954 14 10 13.1046 10 12C10 10.8954 10.8954 10 12 10C13.1046 10 14 10.8954 14 12Z" fill="#18202A"/>
<path fill-rule="evenodd" clip-rule="evenodd" d="M9.36712 1.81895C9.45447 1.34447 9.86814 1 10.3506 1H13.6352C14.1176 1 14.5313 1.34447 14.6186 1.81895L14.9256 3.48617C16.0297 3.8655 17.0368 4.45358 17.8998 5.20328L19.497 4.63549C19.9516 4.4739 20.4568 4.65991 20.698 5.07773L22.3403 7.92226C22.5815 8.34008 22.49 8.87056 22.1228 9.18345L20.8358 10.2799C20.9436 10.8367 21 11.4118 21 12C21 12.5882 20.9436 13.1633 20.8358 13.72L22.1228 14.8165C22.4901 15.1294 22.5815 15.6599 22.3403 16.0777L20.698 18.9223C20.4568 19.3401 19.9516 19.5261 19.4971 19.3645L17.8998 18.7967C17.0368 19.5464 16.0297 20.1345 14.9256 20.5138L14.6186 22.181C14.5313 22.6555 14.1176 23 13.6352 23H10.3506C9.86814 23 9.45447 22.6555 9.36712 22.181L9.05924 20.5086C7.95928 20.1285 6.95599 19.5411 6.0961 18.7931L4.48869 19.3645C4.0341 19.5261 3.52895 19.3401 3.28772 18.9223L1.64544 16.0777C1.40421 15.6599 1.49569 15.1294 1.86293 14.8165L3.16218 13.7096C3.05574 13.1561 3.00002 12.5846 3.00002 12C3.00002 11.4154 3.05575 10.8439 3.16219 10.2904L1.86296 9.18345C1.49572 8.87056 1.40424 8.34008 1.64546 7.92226L3.28775 5.07773C3.52898 4.65991 4.03413 4.4739 4.48872 4.63549L6.09612 5.20689C6.95601 4.45892 7.95928 3.87153 9.05924 3.49142L9.36712 1.81895ZM16 12C16 14.2091 14.2091 16 12 16C9.79086 16 8 14.2091 8 12C8 9.79086 9.79086 8 12 8C14.2091 8 16 9.79086 16 12Z" fill="#18202A"/>
</svg>
