<svg width="24" height="24" viewBox="0 0 24 24" fill="none" xmlns="http://www.w3.org/2000/svg">
<path d="M23.479 7.46064C23.7845 7.74041 23.7834 8.21662 23.4905 8.50951C23.1976 8.80241 22.7239 8.80093 22.4173 8.52246C19.6652 6.02312 16.0105 4.5 12 4.5C7.98952 4.5 4.33479 6.02312 1.58271 8.52246C1.27608 8.80093 0.80239 8.80241 0.509496 8.50952C0.216603 8.21663 0.21551 7.74042 0.52096 7.46064C3.54544 4.69041 7.5753 3 12 3C16.4247 3 20.4545 4.6904 23.479 7.46064Z" fill="#18202A"/>
<path d="M19.9388 11.0012C20.2493 11.2753 20.2478 11.7522 19.9549 12.045C19.662 12.3379 19.1888 12.3357 18.8759 12.0643C17.0337 10.4668 14.6298 9.5 12 9.5C9.3702 9.5 6.96623 10.4668 5.12408 12.0643C4.81114 12.3357 4.33792 12.3379 4.04503 12.0451C3.75214 11.7522 3.75065 11.2753 4.06116 11.0012C6.17673 9.13339 8.956 8 12 8C15.044 8 17.8232 9.13339 19.9388 11.0012Z" fill="#18202A"/>
<path d="M16.3922 14.5491C16.7146 14.8092 16.7123 15.2877 16.4194 15.5806C16.1265 15.8735 15.6543 15.8687 15.3245 15.6181C14.4011 14.9165 13.2492 14.5 12 14.5C10.7508 14.5 9.59889 14.9165 8.6755 15.6181C8.3457 15.8687 7.87346 15.8735 7.58057 15.5806C7.28767 15.2877 7.28541 14.8092 7.60778 14.5491C8.80881 13.5801 10.3366 13 12 13C13.6633 13 15.1912 13.5801 16.3922 14.5491Z" fill="#18202A"/>
<path d="M12 22C13.1046 22 14 21.1046 14 20C14 18.8954 13.1046 18 12 18C10.8954 18 9.99998 18.8954 9.99998 20C9.99998 21.1046 10.8954 22 12 22Z" fill="#18202A"/>
</svg>
