<svg width="24" height="24" viewBox="0 0 24 24" fill="none" xmlns="http://www.w3.org/2000/svg">
<path fill-rule="evenodd" clip-rule="evenodd" d="M17.4175 3C18.1468 3 18.8184 3.39707 19.1699 4.03616L22.6743 10.4078C22.8856 10.7919 22.9648 11.2348 22.8997 11.6683L21.7555 19.2967C21.6086 20.2757 20.7676 21 19.7776 21H4.22238C3.23238 21 2.39136 20.2757 2.2445 19.2967L1.10025 11.6683C1.03523 11.2348 1.11444 10.7919 1.3257 10.4078L4.83011 4.03616C5.18162 3.39707 5.85316 3 6.58254 3H17.4175ZM3.74712 10.6303C3.65625 10.7969 3.77683 11 3.96659 11H8C8.55229 11 8.98369 11.46 9.16437 11.9819C9.57106 13.1565 10.687 14 12 14C13.313 14 14.429 13.1565 14.8356 11.9819C15.0163 11.46 15.4477 11 16 11H20.0334C20.2232 11 20.3438 10.7969 20.2529 10.6303L17.4661 5.52115C17.2909 5.19989 16.9541 5 16.5882 5H7.41182C7.04587 5 6.70916 5.19989 6.53392 5.52115L3.74712 10.6303Z" fill="#18202A"/>
</svg>
