<svg width="24" height="24" viewBox="0 0 24 24" fill="none" xmlns="http://www.w3.org/2000/svg">
<path fill-rule="evenodd" clip-rule="evenodd" d="M10.2929 1.29289C10.6834 0.902369 11.3166 0.902369 11.7071 1.29289L14.7071 4.29289C15.0976 4.68342 15.0976 5.31658 14.7071 5.70711L11.7071 8.70711C11.3166 9.09763 10.6834 9.09763 10.2929 8.70711C9.90237 8.31658 9.90237 7.68342 10.2929 7.29289L11.5858 6H9C5.68629 6 3 8.68629 3 12C3 14.3619 4.36476 16.4051 6.34872 17.3839C6.72879 17.5715 7 17.9419 7 18.3658V18.458C7 19.1114 6.3803 19.5896 5.78216 19.3265C2.96625 18.088 1 15.2736 1 12C1 7.58172 4.58172 4 9 4H11.5858L10.2929 2.70711C9.90237 2.31658 9.90237 1.68342 10.2929 1.29289ZM15 20C19.4183 20 23 16.4183 23 12C23 8.7264 21.0338 5.91204 18.2178 4.67349C17.6197 4.41041 17 4.88857 17 5.54201V5.63424C17 6.05805 17.2712 6.42854 17.6513 6.61606C19.6352 7.59491 21 9.63808 21 12C21 15.3137 18.3137 18 15 18H12.4142L13.7071 16.7071C14.0976 16.3166 14.0976 15.6834 13.7071 15.2929C13.3166 14.9024 12.6834 14.9024 12.2929 15.2929L9.29289 18.2929C8.90237 18.6834 8.90237 19.3166 9.29289 19.7071L12.2929 22.7071C12.6834 23.0976 13.3166 23.0976 13.7071 22.7071C14.0976 22.3166 14.0976 21.6834 13.7071 21.2929L12.4142 20H15Z" fill="#18202A"/>
</svg>
