<svg width="24" height="24" viewBox="0 0 24 24" fill="none" xmlns="http://www.w3.org/2000/svg">
<path fill-rule="evenodd" clip-rule="evenodd" d="M16.7119 3.22101C17.0065 2.92633 17.4843 2.92633 17.779 3.22101C18.0737 3.51569 18.0737 3.99345 17.779 4.28813L16.8618 5.20533C17.566 5.92637 18 6.9125 18 8V16C18 18.2091 16.2091 20 14 20H4C3.4311 20 2.88995 19.8812 2.39997 19.6672L1.28813 20.779C0.993453 21.0737 0.515686 21.0737 0.221009 20.779C-0.0736691 20.4843 -0.0736689 20.0065 0.221009 19.7119L16.7119 3.22101ZM3.5991 18.468C3.72962 18.4891 3.86354 18.5 4 18.5H14C15.3807 18.5 16.5 17.3807 16.5 16V8C16.5 7.32672 16.2338 6.7156 15.801 6.26611L3.5991 18.468Z" fill="#18202A"/>
<path d="M0 8C0 5.79086 1.79086 4 4 4H13.813L12.313 5.5H4C2.61929 5.5 1.5 6.61929 1.5 8V16C1.5 16.1 1.50588 16.1987 1.5173 16.2957L0.297192 17.5158C0.105617 17.0483 0 16.5365 0 16V8Z" fill="#18202A"/>
<path fill-rule="evenodd" clip-rule="evenodd" d="M19 9.11223C19 8.79061 19.1547 8.48862 19.4157 8.3007L22.4157 6.1407C23.0772 5.66443 24 6.13713 24 6.95223V17.0478C24 17.8629 23.0772 18.3356 22.4157 17.8593L19.4157 15.6993C19.1547 15.5114 19 15.2094 19 14.8878V9.11223ZM22.5 16.0716L20.5 14.6316V9.36835L22.5 7.92835V16.0716Z" fill="#18202A"/>
</svg>
