<svg width="24" height="24" viewBox="0 0 24 24" fill="none" xmlns="http://www.w3.org/2000/svg">
<path fill-rule="evenodd" clip-rule="evenodd" d="M4 3C1.79086 3 0 4.79086 0 7V17C0 19.2091 1.79086 21 4 21H14C16.2091 21 18 19.2091 18 17V7C18 4.79086 16.2091 3 14 3H4ZM7.96918 8.73848L11.4425 11.1814C12.009 11.5798 12.0087 12.4195 11.4421 12.8176L7.96876 15.2578C7.30614 15.7234 6.39389 15.2494 6.39389 14.4396L6.39389 9.55643C6.39389 8.74639 7.30661 8.27247 7.96918 8.73848Z" fill="#18202A"/>
<path d="M19.4157 8.3007C19.1547 8.48862 19 8.79061 19 9.11223V14.8878C19 15.2094 19.1547 15.5114 19.4157 15.6993L22.4157 17.8593C23.0772 18.3356 24 17.8629 24 17.0478V6.95223C24 6.13713 23.0772 5.66443 22.4157 6.1407L19.4157 8.3007Z" fill="#18202A"/>
</svg>
