<svg width="24" height="24" viewBox="0 0 24 24" fill="none" xmlns="http://www.w3.org/2000/svg">
<path fill-rule="evenodd" clip-rule="evenodd" d="M10.3998 8.64441C9.78378 8.2713 9 8.71923 9 9.44443V14.5456C9 15.2708 9.78378 15.7187 10.3998 15.3456L14.6113 12.795C15.2096 12.4327 15.2096 11.5574 14.6113 11.195L10.3998 8.64441ZM10.5 13.5313V10.4587L13.0367 11.995L10.5 13.5313Z" fill="#18202A"/>
<path d="M7 4.5V6.5H5V4.5H7Z" fill="#18202A"/>
<path d="M7 19.5V17.5H5V19.5H7Z" fill="#18202A"/>
<path d="M9 4.5H11V6.5H9V4.5Z" fill="#18202A"/>
<path d="M11 17.5H9V19.5H11V17.5Z" fill="#18202A"/>
<path d="M13 4.5H15V6.5H13V4.5Z" fill="#18202A"/>
<path d="M15 17.5H13V19.5H15V17.5Z" fill="#18202A"/>
<path d="M19 4.5V6.5H17V4.5H19Z" fill="#18202A"/>
<path d="M19 19.5V17.5H17V19.5H19Z" fill="#18202A"/>
<path fill-rule="evenodd" clip-rule="evenodd" d="M1 6C1 3.23858 3.23858 1 6 1H18C20.7614 1 23 3.23858 23 6V18C23 20.7614 20.7614 23 18 23H6C3.23858 23 1 20.7614 1 18V6ZM6 2.5H18C19.933 2.5 21.5 4.067 21.5 6V18C21.5 19.933 19.933 21.5 18 21.5H6C4.067 21.5 2.5 19.933 2.5 18V6C2.5 4.067 4.067 2.5 6 2.5Z" fill="#18202A"/>
</svg>
