<svg width="24" height="24" viewBox="0 0 24 24" fill="none" xmlns="http://www.w3.org/2000/svg">
<path fill-rule="evenodd" clip-rule="evenodd" d="M10 6C10 7.86384 8.72523 9.42994 7 9.87398V14C7 15.6569 8.34315 17 10 17H14.126C14.5701 15.2748 16.1362 14 18 14C20.2091 14 22 15.7909 22 18C22 20.2091 20.2091 22 18 22C16.1362 22 14.5701 20.7252 14.126 19H10C7.23858 19 5 16.7614 5 14V9.87398C3.27477 9.42994 2 7.86384 2 6C2 3.79086 3.79086 2 6 2C8.20914 2 10 3.79086 10 6ZM8 6C8 7.10457 7.10457 8 6 8C4.89543 8 4 7.10457 4 6C4 4.89543 4.89543 4 6 4C7.10457 4 8 4.89543 8 6ZM20 18C20 19.1046 19.1046 20 18 20C16.8954 20 16 19.1046 16 18C16 16.8954 16.8954 16 18 16C19.1046 16 20 16.8954 20 18Z" fill="#18202A"/>
</svg>
