<svg width="16" height="16" viewBox="0 0 16 16" fill="none" xmlns="http://www.w3.org/2000/svg">
<g clip-path="url(#clip0_17654_110443)">
<path fill-rule="evenodd" clip-rule="evenodd" d="M8.75289 2.53067C8.75274 2.53081 8.7526 2.53095 8.75246 2.53109L3.41738 7.89233L3.41652 7.89319C1.99007 9.31964 1.99007 11.671 3.41652 13.0975C4.84296 14.5239 7.19436 14.5239 8.6208 13.0975L13.7998 7.91847C13.9951 7.72321 14.3117 7.72321 14.5069 7.91847C14.7022 8.11373 14.7022 8.43032 14.5069 8.62558L9.32791 13.8046C7.51094 15.6216 4.52638 15.6216 2.70941 13.8046C0.8926 11.9878 0.892437 9.0036 2.70892 7.18658C2.70908 7.18641 2.70925 7.18625 2.70941 7.18609L8.04449 1.82485L8.04536 1.82398C9.36535 0.503985 11.5129 0.503985 12.8329 1.82398C14.1529 3.14398 14.1529 5.29152 12.8329 6.61152L12.832 6.61245L7.83698 11.5813C7.83678 11.5815 7.83657 11.5817 7.83637 11.5819C7.03541 12.3822 5.73089 12.3714 4.91417 11.5887L4.90656 11.5813C4.10565 10.7804 4.11623 9.47539 4.89912 8.65846L4.90753 8.6499L9.72035 3.86324C9.91614 3.66851 10.2327 3.66937 10.4275 3.86516C10.6222 4.06096 10.6213 4.37754 10.4255 4.57227L5.61733 9.35433C5.20216 9.79169 5.21252 10.4689 5.60995 10.8704C6.04867 11.287 6.72877 11.2753 7.12988 10.8742L7.13081 10.8732L12.1258 5.90441C12.126 5.90425 12.1261 5.90409 12.1263 5.90393C13.0553 4.97442 13.0551 3.4604 12.1258 2.53109C11.1965 1.60176 9.68239 1.60162 8.75289 2.53067Z" fill="#30A960"/>
</g>
<defs>
<clipPath id="clip0_17654_110443">
<rect width="16" height="16" fill="white" transform="translate(0 0.000488281)"/>
</clipPath>
</defs>
</svg>
