<svg width="24" height="24" viewBox="0 0 24 24" fill="none" xmlns="http://www.w3.org/2000/svg">
<path fill-rule="evenodd" clip-rule="evenodd" d="M23 12C23 18.0751 18.0751 23 12 23C5.92487 23 1 18.0751 1 12C1 5.92487 5.92487 1 12 1C18.0751 1 23 5.92487 23 12ZM10 10C10 11.1046 9.32843 12 8.50001 12C7.67158 12 7.00001 11.1046 7.00001 10C7.00001 8.89543 7.67158 8 8.50001 8C9.32843 8 10 8.89543 10 10ZM7.43773 14.173C7.89444 13.8625 8.51642 13.981 8.82696 14.4377C9.13965 14.8976 9.59145 15.292 10.1493 15.5709C10.7075 15.85 11.3455 16 12 16C12.6545 16 13.2925 15.85 13.8507 15.5709C14.4086 15.292 14.8604 14.8976 15.1731 14.4377C15.4836 13.981 16.1056 13.8625 16.5623 14.173C17.019 14.4836 17.1375 15.1056 16.827 15.5623C16.31 16.3225 15.5891 16.9378 14.7451 17.3598C13.9014 17.7816 12.9561 18 12 18C11.0439 18 10.0986 17.7816 9.25491 17.3598C8.41094 16.9378 7.68998 16.3225 7.17306 15.5623C6.86252 15.1056 6.98102 14.4836 7.43773 14.173ZM15.5 12C16.3284 12 17 11.1046 17 10C17 8.89543 16.3284 8 15.5 8C14.6716 8 14 8.89543 14 10C14 11.1046 14.6716 12 15.5 12Z" fill="#18202A"/>
</svg>
