<svg width="24" height="24" viewBox="0 0 24 24" fill="none" xmlns="http://www.w3.org/2000/svg">
<path fill-rule="evenodd" clip-rule="evenodd" d="M9.27036 9.62239L3.31006 10.4527L7.61922 14.5044L6.58559 20.3042L12 17.5631L17.4144 20.3042L16.3806 14.5037L20.6899 10.4576L14.7292 9.6216L12 4.29133L9.27036 9.62239ZM8.29074 8.24437L1.03435 9.25527C0.618409 9.31322 0.454882 9.82709 0.760838 10.1148L5.99998 15.0408L4.75729 22.0137C4.68493 22.4197 5.10746 22.7338 5.47537 22.5476L12 19.2444L18.5246 22.5476C18.8925 22.7338 19.315 22.4197 19.2427 22.0137L18 15.0408L23.2389 10.1219C23.545 9.83445 23.3819 9.32054 22.9661 9.26221L15.7092 8.24437L12.445 1.86929C12.2593 1.50646 11.7407 1.50646 11.5549 1.86929L8.29074 8.24437Z" fill="#18202A"/>
</svg>
