<svg width="24" height="24" viewBox="0 0 24 24" fill="none" xmlns="http://www.w3.org/2000/svg">
<g clip-path="url(#clip0_3626_8944)">
<path d="M19 14.7618L21 16.7618V4C21 2.34315 19.6569 1 18 1H6C5.76483 1 5.53598 1.02706 5.31639 1.07823L16 11.7618V5.59103C16 4.65971 15.3572 3.85166 14.4497 3.64224L11.6667 3H18C18.5523 3 19 3.44772 19 4V14.7618Z" fill="#18202A"/>
<path fill-rule="evenodd" clip-rule="evenodd" d="M1.59341 3.00913L3 4.41569V18.6135C3 20.0104 3.96423 21.2225 5.32542 21.5366L13.5503 23.4347C14.8035 23.7239 16 22.7721 16 21.4859V21H18C18.4628 21 18.9012 20.8952 19.2926 20.708L20.9911 22.4065C21.4336 22.8489 22.1091 22.8907 22.5 22.4998C22.8909 22.109 22.8491 21.4334 22.4066 20.991L3.00889 1.59366C2.56644 1.15121 1.89091 1.10941 1.50004 1.50028C1.10916 1.89115 1.15097 2.56669 1.59341 3.00913ZM16 17.4154L17.5846 19H16V17.4154ZM13.4353 14.8508L12.0015 13.417C12.0005 13.4445 12 13.4722 12 13.5C12 14.3284 12.4477 15 13 15C13.156 15 13.3037 14.9464 13.4353 14.8508Z" fill="#18202A"/>
</g>
<defs>
<clipPath id="clip0_3626_8944">
<rect width="24" height="24" fill="white"/>
</clipPath>
</defs>
</svg>
