<svg width="24" height="24" viewBox="0 0 24 24" fill="none" xmlns="http://www.w3.org/2000/svg">
<g clip-path="url(#clip0_3893_8893)">
<path d="M19.5001 10.75C19.5001 10.3358 19.8358 10 20.2501 10C20.6643 10 21.0001 10.3358 21.0001 10.75V19C21.0001 21.2091 19.2092 23 17.0001 23H7.00006C4.79092 23 3.00006 21.2091 3.00006 19V5C3.00006 2.79086 4.79092 1 7.00006 1H12.25C12.6642 1 13 1.33579 13 1.75C13 2.16421 12.6642 2.5 12.25 2.5L7.00006 2.5C5.61935 2.5 4.50006 3.61929 4.50006 5L4.50006 19C4.50006 20.3807 5.61935 21.5 7.00006 21.5H17.0001C18.3808 21.5 19.5001 20.3807 19.5001 19V10.75Z" fill="#18202A"/>
<path d="M7.75 13C7.33579 13 7 13.3358 7 13.75C7 14.1642 7.33579 14.5 7.75 14.5H12.25C12.6642 14.5 13 14.1642 13 13.75C13 13.3358 12.6642 13 12.25 13H7.75Z" fill="#18202A"/>
<path d="M7.75 9C7.33579 9 7 9.33579 7 9.75C7 10.1642 7.33579 10.5 7.75 10.5H10.25C10.6642 10.5 11 10.1642 11 9.75C11 9.33579 10.6642 9 10.25 9H7.75Z" fill="#18202A"/>
<path d="M7.75 17C7.33579 17 7 17.3358 7 17.75C7 18.1642 7.33579 18.5 7.75 18.5H16.25C16.6642 18.5 17 18.1642 17 17.75C17 17.3358 16.6642 17 16.25 17H7.75Z" fill="#18202A"/>
<path d="M19.7413 5.5511L17.75 3.71299V10.25C17.75 10.6642 17.4142 11 17 11C16.5858 11 16.25 10.6642 16.25 10.25V3.71299L14.2587 5.5511C13.9543 5.83206 13.4799 5.81308 13.1989 5.50871C12.9179 5.20434 12.9369 4.72985 13.2413 4.4489L16.4913 1.4489C16.7786 1.1837 17.2214 1.1837 17.5087 1.4489L20.7587 4.4489C21.0631 4.72985 21.0821 5.20434 20.8011 5.50871C20.5202 5.81308 20.0457 5.83206 19.7413 5.5511Z" fill="#18202A"/>
</g>
<defs>
<clipPath id="clip0_3893_8893">
<rect width="24" height="24" fill="white"/>
</clipPath>
</defs>
</svg>
