<svg width="24" height="24" viewBox="0 0 24 24" fill="none" xmlns="http://www.w3.org/2000/svg">
<path fill-rule="evenodd" clip-rule="evenodd" d="M10.2071 6.20711C10.5976 5.81658 10.5976 5.18342 10.2071 4.79289C9.81658 4.40237 9.18342 4.40237 8.79289 4.79289L2.29289 11.2929C1.90237 11.6834 1.90237 12.3166 2.29289 12.7071L8.79289 19.2071C9.18342 19.5976 9.81658 19.5976 10.2071 19.2071C10.5976 18.8166 10.5976 18.1834 10.2071 17.7929L4.41421 12L10.2071 6.20711ZM13.7929 6.20711C13.4024 5.81658 13.4024 5.18342 13.7929 4.79289C14.1834 4.40237 14.8166 4.40237 15.2071 4.79289L21.7071 11.2929C22.0976 11.6834 22.0976 12.3166 21.7071 12.7071L15.2071 19.2071C14.8166 19.5976 14.1834 19.5976 13.7929 19.2071C13.4024 18.8166 13.4024 18.1834 13.7929 17.7929L19.5858 12L13.7929 6.20711Z" fill="#18202A"/>
</svg>
