<svg width="24" height="24" viewBox="0 0 24 24" fill="none" xmlns="http://www.w3.org/2000/svg">
<g clip-path="url(#clip0_3352_8902)">
<path d="M12 13L10 10H8L11 14.5L8 19H10L12 16L14 19H16L13 14.5L16 10H14L12 13Z" fill="#18202A"/>
<path fill-rule="evenodd" clip-rule="evenodd" d="M2 2C2 0.89543 2.89543 0 4 0H15.6716C16.202 0 16.7107 0.210714 17.0858 0.585786L21.4142 4.91421C21.7893 5.28929 22 5.79799 22 6.32843V22C22 23.1046 21.1046 24 20 24H4C2.89543 24 2 23.1046 2 22V2ZM4 22.5C3.72386 22.5 3.5 22.2761 3.5 22V2C3.5 1.72386 3.72386 1.5 4 1.5H15.0048L15 5.40608C15 5.82882 15.1678 6.23424 15.4665 6.53315C15.7652 6.83207 16.1704 7 16.5928 7L20.5 6.99504V22C20.5 22.2761 20.2761 22.5 20 22.5H4Z" fill="#18202A"/>
</g>
<defs>
<clipPath id="clip0_3352_8902">
<rect width="24" height="24" fill="white"/>
</clipPath>
</defs>
</svg>
