<svg width="24" height="24" viewBox="0 0 24 24" fill="none" xmlns="http://www.w3.org/2000/svg">
<path d="M23 5C23 7.20914 21.2091 9 19 9C16.7909 9 15 7.20914 15 5C15 2.79086 16.7909 1 19 1C21.2091 1 23 2.79086 23 5Z" fill="#18202A"/>
<path d="M23 10.7453C21.8662 11.5362 20.4872 12 19 12C15.134 12 12 8.86599 12 5C12 3.9264 12.2417 2.90926 12.6736 2H5C2.79086 2 1 3.79086 1 6V15C1 17.2091 2.79086 19 5 19H5.54545L4.96564 21.773C4.7875 22.625 5.70741 23.2821 6.45554 22.8372L12.9091 19H19C21.2091 19 23 17.2091 23 15V10.7453Z" fill="#18202A"/>
</svg>
