<svg width="24" height="24" viewBox="0 0 24 24" fill="none" xmlns="http://www.w3.org/2000/svg">
<path fill-rule="evenodd" clip-rule="evenodd" d="M7 1C4.79086 1 3 2.79086 3 5V19C3 21.2091 4.79086 23 7 23L7 1ZM8 1V23H17C19.2091 23 21 21.2091 21 19V5C21 2.79086 19.2091 1 17 1H8ZM12 5C11.4477 5 11 5.44772 11 6C11 6.55228 11.4477 7 12 7H17C17.5523 7 18 6.55228 18 6C18 5.44772 17.5523 5 17 5H12ZM12 9C12 8.44772 12.4477 8 13 8H16C16.5523 8 17 8.44772 17 9C17 9.55229 16.5523 10 16 10H13C12.4477 10 12 9.55229 12 9Z" fill="#18202A"/>
</svg>
