<svg width="24" height="24" viewBox="0 0 24 24" fill="none" xmlns="http://www.w3.org/2000/svg">
<path fill-rule="evenodd" clip-rule="evenodd" d="M17.4629 1.7523C17.8759 1.72014 18.2367 2.02884 18.2689 2.4418L18.2699 2.45521L18.2726 2.49146C18.2749 2.52292 18.2782 2.5687 18.2822 2.62694C18.2902 2.74337 18.301 2.9098 18.3124 3.11131C18.3351 3.51359 18.3603 4.05912 18.3699 4.62749C18.3794 5.19229 18.3738 5.79613 18.3318 6.30946C18.3108 6.56519 18.2795 6.81595 18.2312 7.03623C18.1884 7.23119 18.1127 7.50219 17.9476 7.71979C17.7057 8.03886 17.1809 8.63565 16.6072 9.2709C16.6521 10.3734 16.5682 12.1087 16.4735 13.7313C16.4442 14.2323 16.4139 14.7232 16.3852 15.1869C16.3086 16.4284 16.2439 17.4752 16.2439 18C16.2439 18.3261 16.3189 18.4532 16.4564 18.5768C16.6618 18.7613 17.0418 18.9548 17.7878 19.2387C18.1429 19.3738 18.4396 19.4753 18.6928 19.5616L18.7247 19.5725C18.9557 19.6512 19.1764 19.7265 19.3554 19.8032C19.5352 19.8803 19.7711 19.9978 19.9547 20.2055C20.17 20.4491 20.2439 20.7323 20.2439 21C20.2439 21.4445 20.0419 21.7946 19.7446 22.0087C19.4856 22.1952 19.1972 22.25 18.9939 22.25H13.4939C12.9953 22.25 12.5503 22.124 12.2031 21.839C11.8575 21.5552 11.6925 21.1823 11.6214 20.8471C11.4876 20.2165 11.651 19.5634 11.742 19.2746C11.79 19.1222 11.8589 18.9703 11.9171 18.8469C11.945 18.7878 11.9697 18.7368 11.9932 18.6882C12.0272 18.6178 12.0587 18.5526 12.0938 18.4757C12.2124 18.2162 12.25 18.0724 12.25 18C12.25 17.9921 12.2501 17.9842 12.2504 17.9763C12.2728 17.267 12.1571 16.2016 12.0194 15.1367C11.9874 14.8893 11.9538 14.6399 11.9211 14.3962L11.9211 14.3962L11.8789 14.0817C11.4232 14.514 10.9681 14.9476 10.5581 15.3459C10.1856 15.7076 9.85611 16.0347 9.60116 16.3005C9.32881 16.5845 9.1885 16.751 9.15011 16.8101C8.93659 17.1389 8.87408 17.3037 8.84442 17.4233C8.81776 17.5308 8.81039 17.6141 8.79661 17.7698L8.79661 17.7698C8.78955 17.8496 8.78081 17.9484 8.76694 18.0792C8.73938 18.3389 8.73073 18.828 8.75516 19.3073C8.76721 19.5436 8.78655 19.7614 8.81207 19.9346C8.83188 20.069 8.85036 20.1387 8.85685 20.1633C8.86011 20.1756 8.86035 20.1765 8.85625 20.1685C8.87347 20.2021 8.9045 20.2487 8.96857 20.3336L8.99366 20.3666C9.04658 20.4359 9.12763 20.5421 9.1907 20.6449C9.26421 20.7647 9.38316 20.9859 9.38474 21.2688C9.38658 21.5975 9.23325 21.8643 9.02845 22.0524C8.89007 22.1795 8.70902 22.25 8.52112 22.25H6.5C6.42627 22.25 6.35294 22.2392 6.28237 22.2178L6.28079 22.2173L6.27914 22.2168L6.27565 22.2157L6.26788 22.2132L6.24928 22.207C6.23556 22.2023 6.2192 22.1964 6.20052 22.1892C6.1632 22.1748 6.11622 22.1548 6.06214 22.1282C5.95437 22.075 5.81563 21.9938 5.66871 21.8739C5.36865 21.629 5.04914 21.2337 4.88888 20.633C4.81719 20.3644 4.80015 20.1381 4.79072 19.9046C4.7882 19.8422 4.7862 19.7797 4.78412 19.7143L4.78412 19.7143C4.77837 19.5342 4.77195 19.3327 4.75192 19.0537C4.74033 18.8922 4.68685 18.666 4.59344 18.3564C4.56197 18.2521 4.52153 18.125 4.47853 17.9898L4.47852 17.9898C4.41376 17.7862 4.34322 17.5645 4.28883 17.3752C4.19108 17.035 4.09805 16.6498 4.07901 16.2755C4.06007 15.9034 4.10942 15.4517 4.39225 15.0606C4.75277 14.562 5.2549 14.3293 5.59405 14.1721L5.59407 14.1721C5.65246 14.145 5.70603 14.1202 5.7532 14.0966C6.09173 13.9276 6.45739 13.7051 6.86325 13.103L6.86938 13.0924L6.92254 13.0009C6.96866 12.9218 7.03541 12.8076 7.11832 12.6669C7.28408 12.3855 7.51484 11.9974 7.77478 11.5703C8.289 10.7253 8.93645 9.69627 9.42112 9.05004C10.1882 8.02729 10.9534 7.13466 11.5262 6.49831C11.783 6.21297 12.0018 5.97831 12.1657 5.80563L11.3096 3.23721C11.1786 2.84425 11.391 2.41951 11.784 2.28852C12.1769 2.15754 12.6016 2.36991 12.7326 2.76287L13.7326 5.76287C13.8225 6.03234 13.7523 6.32942 13.5515 6.5303L13.5485 6.53333L13.5371 6.54486L13.4899 6.59287C13.4479 6.63572 13.3856 6.69992 13.3058 6.78352C13.1462 6.95076 12.9169 7.19536 12.6411 7.50176C12.0888 8.11542 11.3541 8.97279 10.6211 9.95004C10.1855 10.5308 9.57241 11.5018 9.05614 12.3501C8.80084 12.7696 8.57386 13.1514 8.4107 13.4283C8.32916 13.5667 8.26365 13.6788 8.21863 13.756L8.16703 13.8448L8.14974 13.8747C8.14169 13.8886 8.13298 13.9027 8.12404 13.9161C7.53498 14.7997 6.93911 15.181 6.42336 15.4386C6.31465 15.4929 6.22252 15.5374 6.14349 15.5756C5.83236 15.7261 5.72429 15.7784 5.60775 15.9395C5.60621 15.9416 5.56685 15.9984 5.57707 16.1993C5.58718 16.3979 5.64117 16.6501 5.73049 16.9609C5.78465 17.1494 5.83734 17.3139 5.89266 17.4866L5.89268 17.4867C5.936 17.6219 5.98094 17.7622 6.02948 17.9231C6.12545 18.2411 6.22359 18.6053 6.24808 18.9463C6.27046 19.2582 6.27824 19.5027 6.28409 19.6867L6.28409 19.6868C6.28595 19.7452 6.28762 19.7976 6.28949 19.844C6.29732 20.0377 6.30864 20.1357 6.33817 20.2463C6.4077 20.5069 6.53143 20.6418 6.61716 20.7118C6.6357 20.7269 6.65323 20.7396 6.66904 20.75H7.47464C7.39519 20.5539 7.35402 20.3291 7.32811 20.1533C7.29333 19.9174 7.27063 19.6488 7.25711 19.3837C7.23042 18.8602 7.23653 18.2864 7.27531 17.9209C7.28115 17.8658 7.28642 17.8062 7.29196 17.7435C7.31046 17.5342 7.33203 17.2901 7.38852 17.0623C7.4726 16.7232 7.62692 16.4015 7.89214 15.9931C8.02061 15.7953 8.26281 15.5289 8.51859 15.2622C8.79176 14.9774 9.13601 14.636 9.51294 14.2699C10.0787 13.7204 10.731 13.1026 11.3459 12.5202L11.346 12.5201C11.5499 12.327 11.7497 12.1378 11.9409 11.9562C12.6175 11.3136 13.1725 10.7798 13.4466 10.4872C13.9256 9.9761 14.6345 9.21262 15.2854 8.49583C15.9332 7.78249 16.4952 7.14619 16.7315 6.84071C16.7367 6.82643 16.75 6.78804 16.766 6.71497C16.7943 6.5859 16.8186 6.40854 16.8368 6.187C16.8729 5.74579 16.8793 5.19852 16.8701 4.65275C16.861 4.11055 16.8368 3.58603 16.8148 3.19592C16.8038 3.00123 16.7933 2.84087 16.7857 2.72956C16.7819 2.67393 16.7788 2.6306 16.7766 2.60143C16.7471 2.19943 17.0039 1.78585 17.4629 1.7523ZM13.3972 14.1162C13.3266 13.5904 13.2656 13.1363 13.232 12.7983C13.7894 12.2672 14.2712 11.801 14.5412 11.5129C14.7058 11.3372 14.8975 11.1318 15.1047 10.9087C15.0809 11.7345 15.0319 12.6874 14.976 13.6438C14.9487 14.1112 14.9198 14.5794 14.8919 15.0299L14.8919 15.0299C14.8136 16.2977 14.7439 17.4252 14.7439 18C14.7439 18.674 14.9462 19.2365 15.4541 19.6927C15.8941 20.0879 16.5277 20.3642 17.2544 20.6407C17.3569 20.6797 17.4544 20.716 17.5477 20.75H13.4939C13.2456 20.75 13.1674 20.6899 13.155 20.6797C13.1411 20.6683 13.1102 20.6369 13.0887 20.5359C13.0375 20.2942 13.1027 19.9473 13.1726 19.7255C13.1878 19.6776 13.2183 19.6043 13.2737 19.4871C13.2895 19.4535 13.3095 19.4121 13.3313 19.3668C13.3718 19.2826 13.4189 19.185 13.4582 19.099C13.5782 18.8364 13.7464 18.4361 13.7499 18.0134C13.7754 17.1646 13.6417 15.9854 13.507 14.9443C13.4695 14.6543 13.4322 14.3766 13.3972 14.1164L13.3972 14.1162ZM6.75 3C6.75 2.58579 6.41421 2.25 6 2.25C5.58579 2.25 5.25 2.58579 5.25 3V6.18934L5.03033 5.96967C4.73744 5.67678 4.26256 5.67678 3.96967 5.96967C3.67678 6.26256 3.67678 6.73744 3.96967 7.03033L5.46967 8.53033C5.68417 8.74483 6.00676 8.809 6.28701 8.69291C6.56727 8.57682 6.75 8.30335 6.75 8V3Z" fill="#26282C"/>
</svg>
