<svg width="24" height="24" viewBox="0 0 24 24" fill="none" xmlns="http://www.w3.org/2000/svg">
<path fill-rule="evenodd" clip-rule="evenodd" d="M1.28813 0.221008C0.993453 -0.0736694 0.515686 -0.0736694 0.221008 0.221008C-0.0736695 0.515686 -0.0736694 0.993453 0.221008 1.28813L1.68851 2.75563C1.25393 3.39559 1 4.16814 1 5V14C1 15.8773 2.29322 17.4525 4.03739 17.8834C4.34572 17.9596 4.66814 18 5 18H5.54545L4.96564 20.773C4.7875 21.625 5.70741 22.2821 6.45554 21.8372L12.9091 18H16.9329L19.7119 20.779C20.0065 21.0737 20.4843 21.0737 20.779 20.779C21.0737 20.4843 21.0737 20.0065 20.779 19.7119L1.28813 0.221008ZM15.4329 16.5L11.4329 12.5H7.75C7.33579 12.5 7 12.1642 7 11.75C7 11.3358 7.33579 11 7.75 11H9.93288L2.78073 3.84786C2.60137 4.19264 2.5 4.58448 2.5 5V14C2.5 15.3807 3.61929 16.5 5 16.5H5.54545C5.99714 16.5 6.42477 16.7035 6.70961 17.0541C6.99444 17.4046 7.10615 17.8649 7.0137 18.307L6.6667 19.9666L12.1425 16.7107C12.3744 16.5728 12.6393 16.5 12.9091 16.5H15.4329ZM19.6116 16.4246C20.6967 16.1518 21.5 15.1697 21.5 14V5C21.5 3.61929 20.3807 2.5 19 2.5H5.68701L4.25606 1.06905C4.49711 1.02371 4.74579 1 5 1H19C21.2091 1 23 2.79086 23 5V14C23 15.5723 22.0929 16.9327 20.7734 17.5864L19.6116 16.4246ZM10.187 7L11.687 8.5H16.25C16.6642 8.5 17 8.16421 17 7.75C17 7.33579 16.6642 7 16.25 7H10.187Z" fill="#18202A"/>
</svg>
