<svg width="24" height="24" viewBox="0 0 24 24" fill="none" xmlns="http://www.w3.org/2000/svg">
<path fill-rule="evenodd" clip-rule="evenodd" d="M23 3.25008C22.5858 3.25008 22.25 3.58586 22.25 4.00008V9.25008H17C16.5858 9.25008 16.25 9.58586 16.25 10.0001C16.25 10.4143 16.5858 10.7501 17 10.7501H23C23.4142 10.7501 23.75 10.4143 23.75 10.0001V4.00008C23.75 3.58586 23.4142 3.25008 23 3.25008Z" fill="#18202A"/>
<path fill-rule="evenodd" clip-rule="evenodd" d="M7.75 14.0001C7.75 13.5859 7.41421 13.2501 7 13.2501H1C0.585787 13.2501 0.25 13.5859 0.25 14.0001V20.0001C0.25 20.4143 0.585787 20.7501 1 20.7501C1.41421 20.7501 1.75 20.4143 1.75 20.0001V14.7501H7C7.41421 14.7501 7.75 14.4143 7.75 14.0001Z" fill="#18202A"/>
<path fill-rule="evenodd" clip-rule="evenodd" d="M14.7036 2.63638C13.1214 2.17875 11.4492 2.12936 9.84277 2.49282C8.23638 2.85629 6.74825 3.62076 5.51722 4.71492C4.28619 5.80906 3.35239 7.19723 2.80296 8.74988C2.66478 9.14036 2.86932 9.56893 3.2598 9.70711C3.65029 9.84529 4.07886 9.64076 4.21704 9.25027C4.68194 7.93649 5.47208 6.76189 6.51372 5.83607C7.55536 4.91025 8.81455 4.26339 10.1738 3.95584C11.5331 3.64829 12.9481 3.69009 14.2868 4.07732C15.6255 4.46455 16.8444 5.18459 17.8295 6.17027C17.8351 6.17582 17.8407 6.18127 17.8464 6.18664L22.4864 10.5466C22.7883 10.8303 23.2629 10.8155 23.5466 10.5137C23.8302 10.2118 23.8154 9.73715 23.5136 9.45351L18.882 5.1014C17.7192 3.94086 16.2819 3.09291 14.7036 2.63638ZM0.453436 13.4865C0.169792 13.7884 0.184559 14.263 0.486418 14.5466L5.11803 18.8988C6.28085 20.0593 7.71812 20.9072 9.29641 21.3638C10.8786 21.8214 12.5508 21.8708 14.1572 21.5073C15.7636 21.1439 17.2518 20.3794 18.4828 19.2852C19.7138 18.1911 20.6476 16.8029 21.197 15.2503C21.3352 14.8598 21.1307 14.4312 20.7402 14.293C20.3497 14.1549 19.9211 14.3594 19.783 14.7499C19.3181 16.0637 18.5279 17.2383 17.4863 18.1641C16.4446 19.0899 15.1855 19.7368 13.8262 20.0443C12.4669 20.3519 11.0519 20.3101 9.71321 19.9228C8.37447 19.5356 7.15565 18.8156 6.17046 17.8299C6.16492 17.8243 6.15929 17.8189 6.15358 17.8135L1.51358 13.4535C1.21172 13.1699 0.73708 13.1846 0.453436 13.4865Z" fill="#18202A"/>
</svg>
