<svg width="24" height="24" viewBox="0 0 24 24" fill="none" xmlns="http://www.w3.org/2000/svg">
<path fill-rule="evenodd" clip-rule="evenodd" d="M17.4175 3C18.1468 3 18.8184 3.39707 19.1699 4.03616L22.6743 10.4078C22.8856 10.7919 22.9648 11.2348 22.8997 11.6683L21.7555 19.2967C21.6086 20.2757 20.7676 21 19.7776 21H4.22238C3.23238 21 2.39136 20.2757 2.2445 19.2967L1.10025 11.6683C1.03523 11.2348 1.11444 10.7919 1.3257 10.4078L4.83011 4.03616C5.18162 3.39707 5.85316 3 6.58254 3H17.4175ZM2.79688 11H8C8.55229 11 8.98369 11.46 9.16437 11.9819C9.57106 13.1565 10.687 14 12 14C13.313 14 14.4289 13.1565 14.8356 11.9819C15.0163 11.46 15.4477 11 16 11H21.2031L17.891 4.76542C17.8042 4.60209 17.6344 4.5 17.4495 4.5H6.55055C6.36561 4.5 6.19577 4.60209 6.109 4.76542L2.79688 11ZM12 15.5C13.8343 15.5 15.4122 14.4025 16.113 12.8284C16.1992 12.6348 16.3856 12.5 16.5975 12.5H21.2582L20.2721 19.0742C20.2354 19.3189 20.0251 19.5 19.7776 19.5H4.22238C3.97488 19.5 3.76462 19.3189 3.72791 19.0742L2.74178 12.5H7.40247C7.61438 12.5 7.80078 12.6348 7.88697 12.8284C8.58778 14.4025 10.1657 15.5 12 15.5Z" fill="#18202A"/>
</svg>
