<svg width="24" height="24" viewBox="0 0 24 24" fill="none" xmlns="http://www.w3.org/2000/svg">
<path fill-rule="evenodd" clip-rule="evenodd" d="M4.77671 3.36124C4.33427 2.91879 3.65873 2.87699 3.26786 3.26786C2.87699 3.65873 2.91879 4.33427 3.36124 4.77671L5.67915 7.09462C5.47614 7.03291 5.24972 7 4.99991 7C3.66657 7 2.99991 7.9375 2.99991 9.1875C2.99991 10.75 3.66657 12 4.99991 12C6.33324 12 6.99991 10.75 6.99991 9.1875C6.99991 8.8585 6.95372 8.55114 6.86136 8.27683L11.5935 13.009C9.96348 13.0814 8.44617 13.5875 7.15414 14.4146C5.8444 15.253 5.40618 16.9237 5.92977 18.388C6.0829 18.8163 6.25376 19.2361 6.44147 19.6466C6.97343 20.8099 8.06562 21.6154 9.33088 21.8035C10.2018 21.9329 11.093 22 11.9999 22C12.9068 22 13.798 21.9329 14.6689 21.8035C15.9342 21.6154 17.0264 20.8099 17.5583 19.6466C17.629 19.4919 17.6974 19.336 17.7633 19.1787L19.2233 20.6388C19.6657 21.0812 20.3413 21.123 20.7321 20.7321C21.123 20.3413 21.0812 19.6657 20.6388 19.2233L4.77671 3.36124ZM14.4839 10.2456L9.53959 5.30131C10.0281 4.49742 10.8482 4 11.9999 4C13.9999 4 14.9999 5.5 14.9999 7.5C14.9999 8.53687 14.8279 9.48774 14.4839 10.2456ZM19.3172 14.0517C19.7183 14.6151 19.9917 15.2468 20.1425 15.9042L22.885 18.6467C23.0351 18.4296 23.1554 18.1885 23.2396 17.9281C23.612 16.7765 23.1986 15.482 22.1277 14.9178C21.271 14.4664 20.3223 14.1659 19.3172 14.0517ZM18.9999 12C20.3332 12 20.9999 10.75 20.9999 9.1875C20.9999 7.9375 20.3332 7 18.9999 7C17.6666 7 16.9999 7.9375 16.9999 9.1875C16.9999 10.75 17.6666 12 18.9999 12ZM4.04655 19.0616C3.45906 17.4186 3.64589 15.4911 4.69834 14.0298C3.74368 14.1117 2.83691 14.3612 2.00761 14.7488C0.840549 15.2943 0.369623 16.6721 0.76363 17.8986C1.10836 18.9717 2.04449 19.7256 3.16313 19.8637C3.57167 19.9141 3.98445 19.9508 4.401 19.9734C4.27489 19.6736 4.15665 19.3695 4.04655 19.0616Z" fill="#18202A"/>
</svg>
