<svg width="24" height="24" viewBox="0 0 24 24" fill="none" xmlns="http://www.w3.org/2000/svg">
<path fill-rule="evenodd" clip-rule="evenodd" d="M9.1197 8.5H14.8803L12 5.66117L9.1197 8.5ZM9.11969 15.5L12 18.3388L14.8803 15.5H9.11969ZM8.09203 10C7.12108 10 6.63483 8.84298 7.32139 8.1663L11.2294 4.31461C11.655 3.89513 12.345 3.89513 12.7706 4.31461L16.6786 8.1663C17.3652 8.84298 16.8789 10 15.908 10H8.09203ZM8.09203 14C7.12108 14 6.63483 15.157 7.32139 15.8337L11.2294 19.6854C11.655 20.1049 12.345 20.1049 12.7706 19.6854L16.6786 15.8337C17.3652 15.157 16.8789 14 15.908 14H8.09203Z" fill="#18202A"/>
</svg>
