<svg width="24" height="24" viewBox="0 0 24 24" fill="none" xmlns="http://www.w3.org/2000/svg">
<path d="M5 3C3.34315 3 2 4.34315 2 6V7C2 8.65685 3.34315 10 5 10H6C7.65685 10 9 8.65685 9 7V6C9 5.71403 8.95999 5.4374 8.88525 5.17541L6.03033 8.03033C5.73744 8.32322 5.26256 8.32322 4.96967 8.03033L3.46967 6.53033C3.17678 6.23744 3.17678 5.76256 3.46967 5.46967C3.76256 5.17678 4.23744 5.17678 4.53033 5.46967L5.5 6.43934L8.09077 3.84857C7.55047 3.3234 6.813 3 6 3H5Z" fill="#18202A"/>
<path d="M8.09078 14.8486C7.55047 14.3234 6.813 14 6 14H5C3.34315 14 2 15.3431 2 17V18C2 19.6569 3.34315 21 5 21H6C7.65685 21 9 19.6569 9 18V17C9 16.714 8.95999 16.4374 8.88525 16.1754L6.03033 19.0303C5.73744 19.3232 5.26256 19.3232 4.96967 19.0303L3.46967 17.5303C3.17678 17.2374 3.17678 16.7626 3.46967 16.4697C3.76256 16.1768 4.23744 16.1768 4.53033 16.4697L5.5 17.4393L8.09078 14.8486Z" fill="#18202A"/>
<path d="M11.75 4C11.3358 4 11 4.33579 11 4.75C11 5.16421 11.3358 5.5 11.75 5.5H21.25C21.6642 5.5 22 5.16421 22 4.75C22 4.33579 21.6642 4 21.25 4H11.75Z" fill="#18202A"/>
<path d="M11 8.25C11 7.83579 11.3358 7.5 11.75 7.5H21.25C21.6642 7.5 22 7.83579 22 8.25C22 8.66421 21.6642 9 21.25 9H11.75C11.3358 9 11 8.66421 11 8.25Z" fill="#18202A"/>
<path d="M11.75 15C11.3358 15 11 15.3358 11 15.75C11 16.1642 11.3358 16.5 11.75 16.5H21.25C21.6642 16.5 22 16.1642 22 15.75C22 15.3358 21.6642 15 21.25 15H11.75Z" fill="#18202A"/>
<path d="M11 19.25C11 18.8358 11.3358 18.5 11.75 18.5H21.25C21.6642 18.5 22 18.8358 22 19.25C22 19.6642 21.6642 20 21.25 20H11.75C11.3358 20 11 19.6642 11 19.25Z" fill="#18202A"/>
</svg>
