<svg width="24" height="24" viewBox="0 0 24 24" fill="none" xmlns="http://www.w3.org/2000/svg">
<path fill-rule="evenodd" clip-rule="evenodd" d="M21.3175 12.3532C20.951 14.196 20.0462 15.8887 18.7177 17.2173L14.2384 22.0607C13.9446 22.3547 13.5957 22.5879 13.2117 22.7471C12.8276 22.9063 12.4158 22.9883 12 22.9883C11.5842 22.9883 11.1724 22.9063 10.7883 22.7471C10.4041 22.5879 10.0551 22.3545 9.76121 22.0603L5.28232 17.2173C3.95377 15.8887 3.04903 14.196 2.68251 12.3532C2.31599 10.5104 2.50415 8.60026 3.2232 6.86439C3.94224 5.12852 5.15988 3.64486 6.72214 2.601C8.28439 1.55715 10.1211 1 12 1C13.8789 1 15.7156 1.55715 17.2779 2.601C18.8401 3.64486 20.0578 5.12852 20.7768 6.86439C21.4959 8.60026 21.684 10.5104 21.3175 12.3532ZM14 10C14 11.1046 13.1046 12 12 12C10.8954 12 10 11.1046 10 10C10 8.89543 10.8954 8 12 8C13.1046 8 14 8.89543 14 10ZM16 10C16 12.2091 14.2091 14 12 14C9.79086 14 8 12.2091 8 10C8 7.79086 9.79086 6 12 6C14.2091 6 16 7.79086 16 10Z" fill="#18202A"/>
</svg>
