<svg width="24" height="24" viewBox="0 0 24 24" fill="none" xmlns="http://www.w3.org/2000/svg">
<path fill-rule="evenodd" clip-rule="evenodd" d="M12 7.5C13.3807 7.5 14.5 6.38071 14.5 5C14.5 3.61929 13.3807 2.5 12 2.5C10.6193 2.5 9.5 3.61929 9.5 5C9.5 6.38071 10.6193 7.5 12 7.5ZM16 5C16 6.95279 14.6006 8.57875 12.75 8.9298V21.4696C14.9287 21.2924 16.9837 20.3478 18.5407 18.7907C20.0978 17.2337 21.0424 15.1787 21.2196 13H19C18.5858 13 18.25 12.6642 18.25 12.25C18.25 11.8358 18.5858 11.5 19 11.5H22C22.4142 11.5 22.75 11.8358 22.75 12.25C22.75 15.1011 21.6174 17.8354 19.6014 19.8514C17.5854 21.8674 14.8511 23 12 23C9.14892 23 6.41462 21.8674 4.3986 19.8514C2.38259 17.8354 1.25 15.1011 1.25 12.25C1.25 12.0511 1.32902 11.8603 1.46967 11.7197C1.61032 11.579 1.80109 11.5 2 11.5H5C5.41421 11.5 5.75 11.8358 5.75 12.25C5.75 12.6642 5.41421 13 5 13H2.78043C2.95758 15.1787 3.9022 17.2337 5.45926 18.7907C7.01632 20.3478 9.07133 21.2924 11.25 21.4696V8.9298C9.39935 8.57875 8 6.95279 8 5C8 2.79086 9.79086 1 12 1C14.2091 1 16 2.79086 16 5Z" fill="#18202A"/>
</svg>
