<svg width="24" height="24" viewBox="0 0 24 24" fill="none" xmlns="http://www.w3.org/2000/svg">
<path fill-rule="evenodd" clip-rule="evenodd" d="M21.5 8.5H2.5V19C2.5 20.3807 3.61929 21.5 5 21.5H19C20.3807 21.5 21.5 20.3807 21.5 19V8.5ZM1 7V19C1 21.2091 2.79086 23 5 23H19C21.2091 23 23 21.2091 23 19V7H1Z" fill="#18202A"/>
<path fill-rule="evenodd" clip-rule="evenodd" d="M10.5 13.4587V16.5313L13.0367 14.995L10.5 13.4587ZM9 12.4444C9 11.7192 9.78378 11.2713 10.3998 11.6444L14.6113 14.195C15.2096 14.5574 15.2096 15.4327 14.6113 15.795L10.3998 18.3456C9.78378 18.7187 9 18.2708 9 17.5456V12.4444Z" fill="#18202A"/>
<path d="M7 2H9.5L4.5 8H2L7 2Z" fill="#18202A"/>
<path d="M13 2H15.5L10.5 8H8L13 2Z" fill="#18202A"/>
<path d="M19 2H21.5L16.5 8H14L19 2Z" fill="#18202A"/>
<path fill-rule="evenodd" clip-rule="evenodd" d="M19 2.5H5C3.61929 2.5 2.5 3.61929 2.5 5V7H21.5V5C21.5 3.61929 20.3807 2.5 19 2.5ZM5 1C2.79086 1 1 2.79086 1 5V8.5H23V5C23 2.79086 21.2091 1 19 1H5Z" fill="#18202A"/>
</svg>
