<svg width="24" height="24" viewBox="0 0 24 24" fill="none" xmlns="http://www.w3.org/2000/svg">
<path fill-rule="evenodd" clip-rule="evenodd" d="M23 12C23 13.9487 22.4933 15.779 21.6045 17.3664L16.2271 11.989L17.2874 10.9086C17.4973 10.6947 17.5374 10.4049 17.4694 10.1725C17.4013 9.93949 17.2035 9.70309 16.8861 9.65478L13.9658 9.21029L12.6474 6.41619C12.3856 5.86127 11.6144 5.86127 11.3526 6.41619L11.1287 6.89062L6.63364 2.39554C8.22103 1.5067 10.0513 1 12 1C18.0751 1 23 5.92487 23 12ZM19.0384 20.4538L21.2233 22.6388C21.6657 23.0812 22.3413 23.123 22.7321 22.7321C23.123 22.3413 23.0812 21.6657 22.6388 21.2233L2.77671 1.36124C2.33427 0.918793 1.65873 0.876986 1.26786 1.26786C0.876986 1.65873 0.918793 2.33427 1.36124 2.77671L3.54616 4.96163C1.95639 6.86903 1 9.32282 1 12C1 18.0751 5.92487 23 12 23C14.6772 23 17.131 22.0436 19.0384 20.4538ZM15.4172 16.8327C15.4136 16.8357 15.4099 16.8387 15.4063 16.8416C15.2029 17.0057 14.8985 17.0641 14.6216 16.912L12 15.4718L9.37838 16.912C9.10153 17.0641 8.79712 17.0057 8.59375 16.8416C8.3943 16.6807 8.28352 16.4169 8.32921 16.1387L8.83332 13.0691L6.71225 10.9049C6.50248 10.6909 6.46262 10.4011 6.53078 10.1687C6.5991 9.93569 6.79705 9.6994 7.11459 9.6514L8.08867 9.50414L15.4172 16.8327Z" fill="#18202A"/>
</svg>
