<svg width="24" height="24" viewBox="0 0 24 24" fill="none" xmlns="http://www.w3.org/2000/svg">
<path d="M17.6362 13.422L20.2379 8.65214L20.2929 8.70711C20.6834 9.09763 21.3166 9.09763 21.7071 8.70711C21.9021 8.51209 21.9998 8.25658 22 8.00098V7.99902C21.9998 7.74342 21.9021 7.48791 21.7071 7.29289L20.7235 6.30931C20.7131 6.29835 20.7023 6.28761 20.6913 6.27709L17.7229 3.30868C17.7124 3.29768 17.7017 3.28695 17.6907 3.2765L16.7071 2.29289C16.3166 1.90237 15.6834 1.90237 15.2929 2.29289C14.9024 2.68342 14.9024 3.31658 15.2929 3.70711L15.3479 3.76208L10.578 6.36381L17.6362 13.422Z" fill="#18202A"/>
<path d="M4.29289 4.29289C4.68341 3.90237 5.31658 3.90237 5.7071 4.29289L19.7078 18.2936C20.0983 18.6841 20.0983 19.3173 19.7078 19.7078C19.3173 20.0983 18.6841 20.0983 18.2936 19.7078L15.6497 17.0639L14.8832 18.469L15.7071 19.2929C16.0976 19.6834 16.0976 20.3166 15.7071 20.7071C15.3166 21.0976 14.6834 21.0976 14.2929 20.7071L9.5 15.9142L5.70711 19.7071C5.31658 20.0976 4.68342 20.0976 4.29289 19.7071C3.90237 19.3166 3.90237 18.6834 4.29289 18.2929L8.08579 14.5L3.29289 9.70711C2.90237 9.31658 2.90237 8.68342 3.29289 8.29289C3.68342 7.90237 4.31658 7.90237 4.70711 8.29289L5.53096 9.11675L6.9361 8.35031L4.29289 5.70711C3.90237 5.31658 3.90237 4.68342 4.29289 4.29289Z" fill="#18202A"/>
</svg>
