<svg width="24" height="24" viewBox="0 0 24 24" fill="none" xmlns="http://www.w3.org/2000/svg">
<path fill-rule="evenodd" clip-rule="evenodd" d="M3 1C3 0.447716 3.44772 0 4 0H20C20.5523 0 21 0.447715 21 1V3.5957C21 3.90603 20.8559 4.19877 20.61 4.38808L18.2575 6.19927C20.5393 8.03207 22 10.8455 22 14C22 19.5228 17.5228 24 12 24C6.47715 24 2 19.5228 2 14C2 10.8455 3.46066 8.03207 5.74254 6.19927L3.38997 4.38807C3.14407 4.19877 3 3.90603 3 3.5957V1ZM17 2V5.33782C16.0822 4.80692 15.0723 4.4177 14 4.20004V2H17ZM10 2V4.20004C8.92773 4.4177 7.91776 4.80692 7 5.33782V2H10ZM12 20C15.3137 20 18 17.3137 18 14C18 10.6863 15.3137 8 12 8C8.68629 8 6 10.6863 6 14C6 17.3137 8.68629 20 12 20ZM13.1255 12.4537L12.2886 10.6904C12.1681 10.4365 11.8319 10.4365 11.7114 10.6904L10.8745 12.4537C10.8264 12.5551 10.7357 12.6248 10.6312 12.6407L8.77934 12.9222C8.50981 12.9632 8.40422 13.3226 8.60266 13.5236L9.92667 14.8649C10.0066 14.9458 10.0432 15.0648 10.024 15.1812L9.70949 17.0881C9.66264 17.3722 9.93674 17.5919 10.1753 17.4614L11.8534 16.5436C11.9456 16.4932 12.0544 16.4932 12.1466 16.5436L13.8247 17.4614C14.0633 17.5919 14.3374 17.3722 14.2905 17.0881L13.976 15.1812C13.9568 15.0648 13.9934 14.9458 14.0733 14.8649L15.3973 13.5236C15.5958 13.3226 15.4902 12.9632 15.2207 12.9222L13.3688 12.6407C13.2643 12.6248 13.1736 12.5551 13.1255 12.4537Z" fill="#18202A"/>
</svg>
