<svg width="24" height="24" viewBox="0 0 24 24" fill="none" xmlns="http://www.w3.org/2000/svg">
<path fill-rule="evenodd" clip-rule="evenodd" d="M12 17.2929C11.6095 17.6834 11.6095 18.3166 12 18.7071C12.3906 19.0976 13.0237 19.0976 13.4143 18.7071L19.4143 12.7071C19.8048 12.3166 19.8048 11.6834 19.4143 11.2929L13.4143 5.29289C13.0237 4.90237 12.3906 4.90237 12 5.29289C11.6095 5.68342 11.6095 6.31658 12 6.70711L17.2929 12L12 17.2929ZM4.58583 17.2929C4.19531 17.6834 4.19531 18.3166 4.58583 18.7071C4.97636 19.0976 5.60952 19.0976 6.00005 18.7071L12 12.7071C12.3906 12.3166 12.3906 11.6834 12 11.2929L6.00005 5.29289C5.60952 4.90237 4.97636 4.90237 4.58583 5.29289C4.19531 5.68342 4.19531 6.31658 4.58583 6.70711L9.87873 12L4.58583 17.2929Z" fill="#18202A"/>
</svg>
