<svg width="24" height="24" viewBox="0 0 24 24" fill="none" xmlns="http://www.w3.org/2000/svg">
<path fill-rule="evenodd" clip-rule="evenodd" d="M1 5C1 2.79086 2.79086 1 5 1H6L3 5H1ZM5.5 5L8.5 1H12L9 5H5.5ZM11.5 5L14.5 1H18L15 5H11.5ZM17.5 5L20.3301 1.22648C21.8854 1.77469 23 3.25718 23 5H17.5ZM1 19V7H23V19C23 21.2091 21.2091 23 19 23H5C2.79086 23 1 21.2091 1 19ZM10.3998 11.6444C9.78378 11.2713 9 11.7192 9 12.4444V17.5456C9 18.2708 9.78378 18.7187 10.3998 18.3456L14.6113 15.795C15.2096 15.4327 15.2096 14.5574 14.6113 14.195L10.3998 11.6444Z" fill="#18202A"/>
</svg>
