<svg width="24" height="24" viewBox="0 0 24 24" fill="none" xmlns="http://www.w3.org/2000/svg">
<path fill-rule="evenodd" clip-rule="evenodd" d="M16.549 19.7515C16.549 19.3373 16.2132 19.0015 15.799 19.0015H2.79895C2.38474 19.0015 2.04895 19.3373 2.04895 19.7515C2.04895 20.1657 2.38474 20.5015 2.79895 20.5015H15.799C16.2132 20.5015 16.549 20.1657 16.549 19.7515Z" fill="#18202A"/>
<path fill-rule="evenodd" clip-rule="evenodd" d="M16.549 3.75146C16.549 3.33725 16.2132 3.00146 15.799 3.00146H2.79895C2.38474 3.00146 2.04895 3.33725 2.04895 3.75146C2.04895 4.16568 2.38474 4.50146 2.79895 4.50146H15.799C16.2132 4.50146 16.549 4.16568 16.549 3.75146Z" fill="#18202A"/>
<path d="M17.7197 9.27984C17.4268 8.98695 17.4268 8.51207 17.7197 8.21918C18.0126 7.92629 18.4874 7.92629 18.7803 8.21918L21.7803 11.2192C21.9355 11.3744 22.0085 11.5807 21.9992 11.7839C21.9909 12.0197 21.8749 12.2281 21.6989 12.3613L18.7803 15.2798C18.4874 15.5727 18.0126 15.5727 17.7197 15.2798C17.4268 14.9869 17.4268 14.5121 17.7197 14.2192L19.4251 12.5137L2.757 12.5069C2.33858 12.5067 1.99952 12.1674 1.99969 11.749C1.99986 11.3305 2.3392 10.9915 2.75762 10.9917L19.4383 10.9985L17.7197 9.27984Z" fill="#18202A"/>
</svg>
