<svg width="24" height="24" viewBox="0 0 24 24" fill="none" xmlns="http://www.w3.org/2000/svg">
<path fill-rule="evenodd" clip-rule="evenodd" d="M16 5.375C16 8.5 14.6667 11 12 11C9.33333 11 8 8.5 8 5.375C8 2.875 9.33333 1 12 1C14.6667 1 16 2.875 16 5.375ZM14.5 5.375C14.5 6.75311 14.2017 7.84209 13.746 8.53625C13.3307 9.1689 12.7826 9.5 12 9.5C11.2174 9.5 10.6693 9.1689 10.254 8.53625C9.79833 7.84209 9.5 6.75311 9.5 5.375C9.5 4.37516 9.76704 3.66195 10.141 3.22368C10.4861 2.81928 11.046 2.5 12 2.5C12.954 2.5 13.5139 2.81928 13.859 3.22368C14.233 3.66195 14.5 4.37516 14.5 5.375Z" fill="#18202A"/>
<path fill-rule="evenodd" clip-rule="evenodd" d="M19.3001 20.1845C18.7343 21.3086 17.7011 22.1251 16.4821 22.4375C15.0492 22.8047 13.5474 23 12 23C10.4526 23 8.95081 22.8047 7.51792 22.4375C6.29888 22.1251 5.26569 21.3086 4.69985 20.1845C4.53212 19.8513 4.3757 19.5114 4.23108 19.1654C3.61657 17.6951 3.86147 15.9749 4.99932 14.8592C6.80313 13.0906 9.27421 12 12 12C14.7258 12 17.1969 13.0906 19.0007 14.8592C20.1385 15.9749 20.3834 17.6951 19.7689 19.1654C19.6243 19.5114 19.4679 19.8513 19.3001 20.1845ZM16.1097 20.9845C14.7975 21.3208 13.4207 21.5 12 21.5C10.5793 21.5 9.20254 21.3208 7.8903 20.9845C7.08095 20.7771 6.406 20.2378 6.03967 19.5101C5.88772 19.2082 5.74604 18.9004 5.61506 18.587C5.20565 17.6074 5.40564 16.5616 6.04949 15.9303C7.58426 14.4254 9.68256 13.5 12 13.5C14.3174 13.5 16.4157 14.4254 17.9505 15.9303C18.5944 16.5616 18.7943 17.6074 18.3849 18.587C18.254 18.9004 18.1123 19.2082 17.9603 19.5101C17.594 20.2378 16.919 20.7771 16.1097 20.9845Z" fill="#18202A"/>
</svg>
