<svg width="24" height="24" viewBox="0 0 24 24" fill="none" xmlns="http://www.w3.org/2000/svg">
<path d="M4 5C4 4.44772 3.55228 4 3 4C2.44772 4 2 4.44772 2 5V19C2 19.5523 2.44772 20 3 20C3.55228 20 4 19.5523 4 19V13L12 13V19C12 19.5523 12.4477 20 13 20C13.5523 20 14 19.5523 14 19V5C14 4.44772 13.5523 4 13 4C12.4477 4 12 4.44772 12 5V11L4 11V5Z" fill="#18202A"/>
<path d="M18 13C18 12.6914 18.4021 12 19.5 12C20.5188 12 21 12.6208 21 13.25C21 13.4893 20.9655 13.7612 20.7725 14.1259C20.5684 14.5112 20.1652 15.0405 19.3544 15.7363L16.3598 18.2318C16.0364 18.5013 15.9164 18.9446 16.0597 19.3404C16.203 19.7363 16.579 20 17 20H22C22.5523 20 23 19.5523 23 19C23 18.4477 22.5523 18 22 18H19.762L20.6402 17.2683L20.6508 17.2593C21.5865 16.4573 22.182 15.7379 22.54 15.0616C22.9095 14.3638 23 13.7607 23 13.25C23 11.3792 21.4812 10 19.5 10C17.5979 10 16 11.3086 16 13C16 13.5523 16.4477 14 17 14C17.5523 14 18 13.5523 18 13Z" fill="#18202A"/>
</svg>
