<svg width="24" height="24" viewBox="0 0 24 24" fill="none" xmlns="http://www.w3.org/2000/svg">
<path fill-rule="evenodd" clip-rule="evenodd" d="M10.2493 4.5C10.2493 4.08579 9.91354 3.75 9.49933 3.75C9.08511 3.75 8.74933 4.08579 8.74933 4.5C8.74933 8.68843 7.90542 10.615 7.10682 11.9412C6.95532 12.1928 6.79365 12.4366 6.63127 12.6815L6.63126 12.6815C5.94658 13.714 5.24933 14.7655 5.24933 16.5C5.24933 18.0956 6.15876 19.0514 7.15465 19.5095C7.63802 19.7318 8.14457 19.8414 8.59177 19.8678C9.01477 19.8928 9.47895 19.8487 9.83474 19.6708C10.2052 19.4856 10.3554 19.0351 10.1701 18.6646C9.9849 18.2941 9.5344 18.1439 9.16392 18.3292C9.16406 18.3291 9.16395 18.3292 9.16358 18.3293C9.15919 18.3311 9.11831 18.3475 9.02875 18.3601C8.93746 18.373 8.81896 18.3786 8.68032 18.3704C8.40095 18.3539 8.07938 18.2838 7.78151 18.1468C7.21489 17.8861 6.74933 17.4044 6.74933 16.5C6.74933 15.2504 7.16371 14.6179 7.80056 13.6459L7.80058 13.6459L7.80061 13.6459C7.98125 13.3702 8.17978 13.0672 8.39184 12.715C9.34323 11.135 10.2493 8.93657 10.2493 4.5ZM15.2493 4.5C15.2493 4.08579 14.9135 3.75 14.4993 3.75C14.0851 3.75 13.7493 4.08579 13.7493 4.5C13.7493 8.93657 14.6554 11.135 15.6068 12.715C15.8189 13.0672 16.0174 13.3702 16.1981 13.6459C16.8349 14.6179 17.2493 15.2504 17.2493 16.5C17.2493 17.4044 16.7838 17.8861 16.2171 18.1468C15.9193 18.2838 15.5977 18.3539 15.3183 18.3704C15.1797 18.3786 15.0612 18.373 14.9699 18.3601C14.8803 18.3475 14.8395 18.3311 14.8351 18.3293L14.8347 18.3292C14.8347 18.3291 14.8347 18.3291 14.8347 18.3292M15.2493 4.5C15.2493 8.68843 16.0932 10.615 16.8918 11.9412ZM16.8918 11.9412C17.0433 12.1928 17.205 12.4366 17.3674 12.6815ZM17.3674 12.6815C18.0521 13.714 18.7493 14.7655 18.7493 16.5ZM18.7493 16.5C18.7493 18.0956 17.8399 19.0514 16.844 19.5095ZM16.844 19.5095C16.3606 19.7318 15.8541 19.8414 15.4069 19.8678ZM15.4069 19.8678C14.9839 19.8928 14.5197 19.8487 14.1639 19.6708ZM14.1639 19.6708C13.7934 19.4856 13.6433 19.0351 13.8285 18.6646ZM13.8285 18.6646C14.0137 18.2941 14.4643 18.1439 14.8347 18.3292ZM11.9998 18.25C12.65 18.2502 13.1566 18.141 13.5755 17.965C13.9887 17.7915 14.2815 17.5662 14.4879 17.4073L14.4887 17.4066C14.7172 17.2308 14.7901 17.183 14.8627 17.16C14.8963 17.1494 14.9949 17.1218 15.2626 17.2111C15.6555 17.3422 16.0803 17.13 16.2114 16.7371C16.3426 16.3442 16.1303 15.9194 15.7374 15.7882C15.2551 15.6273 14.8224 15.5996 14.4107 15.7297C14.0621 15.8399 13.789 16.0514 13.6096 16.1903L13.5738 16.218C13.374 16.3718 13.2138 16.49 12.9948 16.582C12.7809 16.6718 12.475 16.7501 12.0002 16.75C11.5252 16.7499 11.2192 16.6716 11.0052 16.5817C10.786 16.4897 10.6258 16.3715 10.426 16.2178L10.3902 16.1901C10.2108 16.0514 9.93771 15.84 9.58918 15.7299C9.1777 15.6 8.74522 15.6275 8.263 15.7881C7.87001 15.919 7.65754 16.3437 7.78843 16.7366C7.91933 17.1296 8.34402 17.3421 8.737 17.2112C9.00479 17.122 9.10356 17.1496 9.13739 17.1603C9.21009 17.1832 9.28305 17.2311 9.51148 17.4068L9.51238 17.4075C9.7188 17.5662 10.0115 17.7914 10.4245 17.9648C10.8433 18.1406 11.3498 18.2499 11.9998 18.25ZM3.25 12.5C3.66421 12.5 4 12.8358 4 13.25V18.25C4 18.5533 3.81727 18.8268 3.53701 18.9429C3.25676 19.059 2.93417 18.9948 2.71967 18.7803L1.21967 17.2803C0.926777 16.9874 0.926777 16.5126 1.21967 16.2197C1.51256 15.9268 1.98744 15.9268 2.28033 16.2197L2.5 16.4393V13.25C2.5 12.8358 2.83579 12.5 3.25 12.5ZM20 13.25C20 12.8358 20.3358 12.5 20.75 12.5C21.1642 12.5 21.5 12.8358 21.5 13.25V16.4393L21.7197 16.2197C22.0126 15.9268 22.4874 15.9268 22.7803 16.2197C23.0732 16.5126 23.0732 16.9874 22.7803 17.2803L21.2803 18.7803C21.0658 18.9948 20.7432 19.059 20.463 18.9429C20.1827 18.8268 20 18.5533 20 18.25V13.25Z" fill="#26282C"/>
</svg>
