<svg width="24" height="24" viewBox="0 0 24 24" fill="none" xmlns="http://www.w3.org/2000/svg">
<path fill-rule="evenodd" clip-rule="evenodd" d="M10.1522 22.6338C9.61827 22.2338 9.22825 21.6717 9.04043 21.0315L10.9595 20.4685C11.0258 20.6942 11.1632 20.8923 11.3513 21.0331C11.5393 21.1739 11.7678 21.25 12.0025 21.25C12.2372 21.25 12.4657 21.1739 12.6537 21.0331C12.8417 20.8923 12.9792 20.6942 13.0454 20.4685L14.9645 21.0315C14.7767 21.6717 14.3867 22.2339 13.8528 22.6338C13.3188 23.0338 12.6696 23.25 12.0025 23.25C11.3353 23.25 10.6862 23.0338 10.1522 22.6338Z" fill="#18202A"/>
<path fill-rule="evenodd" clip-rule="evenodd" d="M12 1C12.5523 1 13 1.44772 13 2V3C13 3.55228 12.5523 4 12 4C11.4477 4 11 3.55228 11 3V2C11 1.44772 11.4477 1 12 1Z" fill="#18202A"/>
<path d="M6.48324 5.23157C7.94637 3.80272 9.9308 3 12 3C14.0692 3 16.0536 3.80272 17.5167 5.23157C18.9799 6.66042 19.8018 8.59835 19.8018 10.619C19.8018 14.3991 20.733 16.6302 21.5013 17.8278C21.7633 18.2362 21.4375 19 20.9522 19H3.04773C2.5625 19 2.23669 18.2362 2.49869 17.8278C3.26697 16.6302 4.19813 14.3991 4.19813 10.619C4.19813 8.59835 5.02011 6.66042 6.48324 5.23157Z" fill="#18202A"/>
</svg>
