<svg width="24" height="24" viewBox="0 0 24 24" fill="none" xmlns="http://www.w3.org/2000/svg">
<path fill-rule="evenodd" clip-rule="evenodd" d="M4 1C2.34315 1 1 2.34315 1 4V7.9C1 9.55685 2.34315 10.9 4 10.9H7.9C9.55685 10.9 10.9 9.55685 10.9 7.9V4C10.9 2.34315 9.55685 1 7.9 1H4ZM4 13.1C2.34315 13.1 1 14.4431 1 16.1V20C1 21.6569 2.34315 23 4 23H7.9C9.55685 23 10.9 21.6569 10.9 20V16.1C10.9 14.4431 9.55685 13.1 7.9 13.1H4ZM13.1 4C13.1 2.34315 14.4431 1 16.1 1H20C21.6569 1 23 2.34315 23 4V7.9C23 9.55685 21.6569 10.9 20 10.9H16.1C14.4431 10.9 13.1 9.55685 13.1 7.9V4ZM16.1 13.1C14.4431 13.1 13.1 14.4431 13.1 16.1V20C13.1 21.6569 14.4431 23 16.1 23H20C21.6569 23 23 21.6569 23 20V16.1C23 14.4431 21.6569 13.1 20 13.1H16.1Z" fill="#18202A"/>
</svg>
