<svg width="24" height="24" viewBox="0 0 24 24" fill="none" xmlns="http://www.w3.org/2000/svg">
<path d="M0 9.97278C0 8.31592 1.34315 6.97278 3 6.97278H4V16.9728H3C1.34315 16.9728 0 15.6296 0 13.9728V9.97278Z" fill="#18202A"/>
<path d="M6 17.8868V6.05882L10.8134 1.65956C12.4178 0.19322 15 1.33142 15 3.50493V20.4409C15 22.6144 12.4177 23.7526 10.8134 22.2862L6 17.8868Z" fill="#18202A"/>
<path d="M20.5305 7.07038C21.0182 6.81109 21.6237 6.99621 21.883 7.48385C22.6401 8.90778 23.0361 10.5481 23.0361 12.2132C23.0361 13.8783 22.6401 15.5186 21.883 16.9425C21.6237 17.4301 21.0182 17.6153 20.5305 17.356C20.0429 17.0967 19.8578 16.4912 20.1171 16.0036C20.7131 14.8826 21.0361 13.5669 21.0361 12.2132C21.0361 10.8595 20.7131 9.5438 20.1171 8.4228C19.8578 7.93516 20.0429 7.32966 20.5305 7.07038Z" fill="#18202A"/>
<path d="M17.4394 8.78848C17.8967 8.47886 18.5185 8.5986 18.8281 9.05593C19.4536 9.9798 19.7819 11.1111 19.7819 12.2595C19.7819 13.4078 19.4536 14.5391 18.8281 15.463C18.5185 15.9203 17.8967 16.0401 17.4394 15.7304C16.9821 15.4208 16.8623 14.7991 17.1719 14.3418C17.5581 13.7714 17.7819 13.0362 17.7819 12.2595C17.7819 11.4827 17.5581 10.7475 17.1719 10.1772C16.8623 9.71985 16.9821 9.09811 17.4394 8.78848Z" fill="#18202A"/>
</svg>
