<svg width="24" height="24" viewBox="0 0 24 24" fill="none" xmlns="http://www.w3.org/2000/svg">
<path fill-rule="evenodd" clip-rule="evenodd" d="M15 2.5H5C3.61929 2.5 2.5 3.61929 2.5 5V15C2.5 16.3807 3.61929 17.5 5 17.5L5 9C5 6.79086 6.79086 5 9 5H17.5C17.5 3.61929 16.3807 2.5 15 2.5ZM5 19C2.79086 19 1 17.2091 1 15V5C1 2.79086 2.79086 1 5 1H15C17.2091 1 19 2.79086 19 5C21.2091 5 23 6.79086 23 9V19C23 21.2091 21.2091 23 19 23H9C6.79086 23 5 21.2091 5 19ZM9 6.5H19C20.3807 6.5 21.5 7.61929 21.5 9V19C21.5 20.3807 20.3807 21.5 19 21.5H9C7.61929 21.5 6.5 20.3807 6.5 19V9C6.5 7.61929 7.61929 6.5 9 6.5Z" fill="#18202A"/>
</svg>
