<svg width="24" height="24" viewBox="0 0 24 24" fill="none" xmlns="http://www.w3.org/2000/svg">
<path d="M6.65748 5.71814C4.14034 7.3335 2.25545 9.69488 1.32239 11.0144C0.901285 11.6099 0.901285 12.3901 1.32239 12.9856C2.8347 15.1243 6.8475 20 12 20C14.4551 20 16.6515 18.893 18.4419 17.5026L17.372 16.4327C15.7652 17.6479 13.9392 18.5 12 18.5C9.90294 18.5 7.9381 17.5034 6.23982 16.1289C4.5518 14.7626 3.26177 13.1302 2.54712 12.1196C2.51689 12.0768 2.50656 12.0359 2.50656 12C2.50656 11.9641 2.51689 11.9232 2.54712 11.8804C3.26177 10.8698 4.5518 9.2374 6.23982 7.87114C6.72152 7.48127 7.22467 7.1218 7.74619 6.80685L6.65748 5.71814Z" fill="#18202A"/>
<path d="M9.68028 8.74094C8.6632 9.46618 8 10.6556 8 12C8 14.2091 9.79086 16 12 16C13.3444 16 14.5338 15.3368 15.2591 14.3197L14.1742 13.2349C13.7442 13.9905 12.9316 14.5 12 14.5C10.6193 14.5 9.5 13.3807 9.5 12C9.5 11.0684 10.0095 10.2558 10.7651 9.82578L9.68028 8.74094Z" fill="#18202A"/>
<path d="M12.6445 9.58387L11.151 8.09029C11.4246 8.03115 11.7087 8 12 8C14.2091 8 16 9.79086 16 12C16 12.2913 15.9689 12.5754 15.9097 12.849L14.4161 11.3555C14.1866 10.4928 13.5072 9.81342 12.6445 9.58387Z" fill="#18202A"/>
<path d="M18.5276 15.4669C19.8404 14.2638 20.8508 12.971 21.4529 12.1196C21.4831 12.0768 21.4935 12.0359 21.4935 12C21.4935 11.9641 21.4831 11.9232 21.4529 11.8804C20.7383 10.8698 19.4482 9.2374 17.7602 7.87114C16.0619 6.4966 14.0971 5.5 12 5.5C11.0175 5.5 10.064 5.71877 9.15333 6.09267L8.01742 4.95676C9.23872 4.37251 10.5758 4 12 4C17.1525 4 21.1653 8.87572 22.6776 11.0144C23.0987 11.6099 23.0987 12.3901 22.6776 12.9856C22.0484 13.8755 20.9862 15.2393 19.5891 16.5285L18.5276 15.4669Z" fill="#18202A"/>
<path fill-rule="evenodd" clip-rule="evenodd" d="M2.96967 2.96967C3.26256 2.67678 3.73744 2.67678 4.03033 2.96967L21.0303 19.9697C21.3232 20.2626 21.3232 20.7374 21.0303 21.0303C20.7374 21.3232 20.2626 21.3232 19.9697 21.0303L2.96967 4.03033C2.67678 3.73744 2.67678 3.26256 2.96967 2.96967Z" fill="#18202A"/>
</svg>
