<svg width="24" height="24" viewBox="0 0 24 24" fill="none" xmlns="http://www.w3.org/2000/svg">
<path fill-rule="evenodd" clip-rule="evenodd" d="M12 16.5C13.933 16.5 15.5 14.933 15.5 13C15.5 11.067 13.933 9.5 12 9.5C10.067 9.5 8.5 11.067 8.5 13C8.5 14.933 10.067 16.5 12 16.5ZM12 18C14.7614 18 17 15.7614 17 13C17 10.2386 14.7614 8 12 8C9.23858 8 7 10.2386 7 13C7 15.7614 9.23858 18 12 18Z" fill="#18202A"/>
<path d="M13.9299 1C14.4237 1 14.91 1.122 15.3454 1.35506C15.7808 1.58812 16.1519 1.92507 16.4259 2.336L17.2379 3.555C17.3292 3.69192 17.453 3.80417 17.5981 3.88179C17.7431 3.95938 17.9051 3.99998 18.0696 4H18C20.7614 4 23 6.23858 23 9V17C23 19.7614 20.7614 22 18 22H6C3.23858 22 1 19.7614 1 17V9C1 6.31125 3.12231 4.11818 5.78311 4.00462L5.93018 4C6.09467 3.99998 6.25661 3.95938 6.40166 3.88179C6.5468 3.80417 6.67053 3.69192 6.76188 3.555L7.57388 2.336C7.84781 1.92507 8.21896 1.58812 8.65437 1.35506C9.08979 1.122 9.57601 1 10.0699 1H13.9299ZM13.9299 2.5H10.0699C9.82306 2.5 9.57998 2.56098 9.36224 2.67752C9.18807 2.77075 9.03447 2.89722 8.91001 3.04906L8.82227 3.16758L8.00966 4.38749C7.78128 4.72981 7.47192 5.01045 7.10917 5.20445C6.80697 5.3661 6.47542 5.46354 6.1353 5.49156L6 5.496C4.13144 5.5 2.60487 6.96428 2.50518 8.80797L2.5 9V17C2.5 18.8685 3.96429 20.3951 5.80797 20.4948L6 20.5H18C19.8685 20.5 21.3951 19.0357 21.4948 17.192L21.5 17V9C21.5 7.13145 20.0357 5.60487 18.192 5.50518L18 5.5L17.8645 5.49156C17.5923 5.46914 17.3256 5.40229 17.0752 5.29368L16.8906 5.20444C16.5882 5.04268 16.3229 4.82078 16.1105 4.55279L15.9895 4.38658L15.1779 3.16814C15.0408 2.96254 14.8552 2.79404 14.6375 2.67752C14.4634 2.5843 14.2729 2.52662 14.0774 2.50728L13.9299 2.5Z" fill="#18202A"/>
</svg>
