<svg width="24" height="24" viewBox="0 0 24 24" fill="none" xmlns="http://www.w3.org/2000/svg">
<path d="M8 11.75C8 11.3358 8.33579 11 8.75 11H15.25C15.6642 11 16 11.3358 16 11.75C16 12.1642 15.6642 12.5 15.25 12.5H8.75C8.33579 12.5 8 12.1642 8 11.75Z" fill="#18202A"/>
<path fill-rule="evenodd" clip-rule="evenodd" d="M3 8.73244C2.4022 8.38663 2 7.74028 2 7V4C2 2.89543 2.89543 2 4 2H20C21.1046 2 22 2.89543 22 4V7C22 7.74028 21.5978 8.38663 21 8.73244V19C21 21.2091 19.2091 23 17 23H7C4.79086 23 3 21.2091 3 19V8.73244ZM3.5 4C3.5 3.72386 3.72386 3.5 4 3.5H20C20.2761 3.5 20.5 3.72386 20.5 4V7C20.5 7.27614 20.2761 7.5 20 7.5H4C3.72386 7.5 3.5 7.27614 3.5 7V4ZM17 21.5C18.3807 21.5 19.5 20.3807 19.5 19V9H4.5V19C4.5 20.3807 5.61929 21.5 7 21.5H17Z" fill="#18202A"/>
</svg>
