<svg width="24" height="24" viewBox="0 0 24 24" fill="none" xmlns="http://www.w3.org/2000/svg">
<path fill-rule="evenodd" clip-rule="evenodd" d="M16 5.375C16 8.5 14.6667 11 12 11C9.33333 11 8 8.5 8 5.375C8 2.875 9.33333 1 12 1C14.6667 1 16 2.875 16 5.375ZM14.5 5.375C14.5 6.75311 14.2017 7.84209 13.746 8.53625C13.3307 9.1689 12.7826 9.5 12 9.5C11.2174 9.5 10.6693 9.1689 10.254 8.53625C9.79833 7.84209 9.5 6.75311 9.5 5.375C9.5 4.37516 9.76704 3.66195 10.141 3.22368C10.4861 2.81928 11.046 2.5 12 2.5C12.954 2.5 13.5139 2.81928 13.859 3.22368C14.233 3.66195 14.5 4.37516 14.5 5.375ZM12.9862 21.4711C13.1986 21.9876 13.4757 22.4707 13.8073 22.9104C13.2129 22.9697 12.61 23 12 23C10.4526 23 8.95081 22.8047 7.51792 22.4375C6.29888 22.1251 5.26569 21.3086 4.69985 20.1845C4.53212 19.8513 4.3757 19.5114 4.23108 19.1654C3.61657 17.6951 3.86147 15.9749 4.99932 14.8592C6.80313 13.0906 9.27421 12 12 12C13.5888 12 15.0911 12.3705 16.4252 13.0299C15.8555 13.2759 15.3281 13.6011 14.8566 13.9915C13.964 13.6732 13.0025 13.5 12 13.5C9.68256 13.5 7.58426 14.4254 6.04949 15.9303C5.40564 16.5616 5.20565 17.6074 5.61506 18.587C5.74604 18.9004 5.88772 19.2082 6.03967 19.5101C6.406 20.2378 7.08095 20.7771 7.8903 20.9845C9.20254 21.3208 10.5793 21.5 12 21.5C12.3312 21.5 12.66 21.4903 12.9862 21.4711ZM24 19C24 21.7614 21.7614 24 19 24C16.2386 24 14 21.7614 14 19C14 16.2386 16.2386 14 19 14C21.7614 14 24 16.2386 24 19ZM19 15.3C18.4405 15.3 17.9687 15.3384 17.6086 15.3833C16.7725 15.4874 16.25 16.2098 16.25 16.9614L16.25 17.1787C16.25 17.6456 16.4355 18.0933 16.7656 18.4234C17.0585 18.7163 17.5333 18.7163 17.8262 18.4234C18.1191 18.1306 18.1191 17.6557 17.8262 17.3628C17.7774 17.314 17.75 17.2478 17.75 17.1787L17.75 16.9614C17.75 16.9211 17.7636 16.8953 17.7732 16.8836C17.7756 16.8807 17.7778 16.8787 17.7794 16.8773C17.781 16.876 17.7822 16.8752 17.783 16.8748C17.7841 16.8741 17.7869 16.8726 17.7939 16.8718C18.0993 16.8338 18.5088 16.8 19 16.8C19.453 16.8 19.8365 16.8287 20.133 16.863C20.1632 16.8665 20.1855 16.8787 20.2057 16.903C20.2283 16.9304 20.25 16.9776 20.25 17.0415C20.25 17.416 20.0317 17.7561 19.6913 17.9122L19.1421 18.1639C18.5985 18.413 18.25 18.956 18.25 19.554C18.25 19.9682 18.5858 20.304 19 20.304C19.4142 20.304 19.75 19.9682 19.75 19.554C19.75 19.5426 19.7566 19.5322 19.767 19.5275L20.3162 19.2758C21.1899 18.8754 21.75 18.0026 21.75 17.0415C21.75 16.2438 21.1949 15.4758 20.3054 15.3729C19.9574 15.3327 19.5161 15.3 19 15.3ZM19 23C19.5523 23 20 22.5523 20 22C20 21.4477 19.5523 21 19 21C18.4477 21 18 21.4477 18 22C18 22.5523 18.4477 23 19 23Z" fill="#18202A"/>
</svg>
