<svg width="24" height="24" viewBox="0 0 24 24" fill="none" xmlns="http://www.w3.org/2000/svg">
<path fill-rule="evenodd" clip-rule="evenodd" d="M1 6C1 3.79086 2.79086 2 5 2H19C21.2091 2 23 3.79086 23 6V18C23 20.2091 21.2091 22 19 22H5C2.79086 22 1 20.2091 1 18V6ZM12.75 3.5H16.5V20.5H12.75V3.5ZM11.25 3.5H7.5V20.5H11.25V3.5ZM18 20.5V3.5H19C20.3807 3.5 21.5 4.61929 21.5 6V18C21.5 19.3807 20.3807 20.5 19 20.5H18ZM6 3.5H5C3.61929 3.5 2.5 4.61929 2.5 6V18C2.5 19.3807 3.61929 20.5 5 20.5H6V3.5Z" fill="#18202A"/>
</svg>
