<svg width="24" height="24" viewBox="0 0 24 24" fill="none" xmlns="http://www.w3.org/2000/svg">
<path fill-rule="evenodd" clip-rule="evenodd" d="M6 1C4.89543 1 4 1.89543 4 3H20C20 1.89543 19.1046 1 18 1H6ZM6 6H3V9C3 9.55228 3.44772 10 4 10H5C5.55228 10 6 9.55228 6 9V6ZM5 12C5.76836 12 6.46925 11.7111 7 11.2361C7.53076 11.7111 8.23164 12 9 12H10C10.7684 12 11.4692 11.7111 12 11.2361C12.5308 11.7111 13.2316 12 14 12H15C15.7684 12 16.4692 11.7111 17 11.2361C17.5308 11.7111 18.2316 12 19 12H20C21.6569 12 23 10.6569 23 9V6C23 4.89543 22.1046 4 21 4H18H16H13H11H8H6H3C1.89543 4 1 4.89543 1 6V9C1 10.6569 2.34315 12 4 12H5ZM16 6V9C16 9.55228 15.5523 10 15 10H14C13.4477 10 13 9.55228 13 9V6H16ZM18 9V6H21V9C21 9.55228 20.5523 10 20 10H19C18.4477 10 18 9.55228 18 9ZM11 6H8V9C8 9.55228 8.44772 10 9 10H10C10.5523 10 11 9.55228 11 9V6ZM2 12.4648V19C2 21.2091 3.79086 23 6 23H18C20.2091 23 22 21.2091 22 19V12.4648C21.4117 12.8052 20.7286 13 20 13H19C18.2714 13 17.5883 12.8052 17 12.4648C16.4117 12.8052 15.7286 13 15 13H14C13.2714 13 12.5883 12.8052 12 12.4648C11.4117 12.8052 10.7286 13 10 13H9C8.27143 13 7.58835 12.8052 7 12.4648C6.41165 12.8052 5.72858 13 5 13H4C3.27143 13 2.58835 12.8052 2 12.4648ZM9 17C9 15.8954 9.89543 15 11 15H13C14.1046 15 15 15.8954 15 17V21H9V17Z" fill="#18202A"/>
</svg>
