<svg width="24" height="24" viewBox="0 0 24 24" fill="none" xmlns="http://www.w3.org/2000/svg">
<path fill-rule="evenodd" clip-rule="evenodd" d="M13.7806 14.1601L12.7517 11.9996C12.7392 11.9999 12.7268 12 12.7143 12H6.28571C6.27321 12 6.26075 11.9999 6.24833 11.9996L4.18606 16.3301C3.90108 16.9285 3.20802 17.171 2.63806 16.8718C2.06811 16.5726 1.83709 15.845 2.12206 15.2466L7.952 3.00448C8.58981 1.66517 10.4102 1.66517 11.048 3.00448L15.5283 12.4124L17.3372 10.6035L21.3965 14.6628L12.6343 23.425L8.93477 23.9904C8.39319 24.0732 7.9268 23.6068 8.00957 23.0652L8.57501 19.3657L13.7806 14.1601ZM9.5 5.17153L11.7994 10H7.20058L9.5 5.17153Z" fill="#18202A"/>
<path d="M18.4853 9.4554L19.4653 8.4754C19.7698 8.171 20.1827 8 20.6133 8C21.0438 8 21.4567 8.171 21.7612 8.4754L23.5246 10.2388C23.829 10.5433 24 10.9562 24 11.3867C24 11.8173 23.829 12.2302 23.5246 12.5347L22.5446 13.5147L18.4853 9.4554Z" fill="#18202A"/>
</svg>
