<svg width="24" height="24" viewBox="0 0 24 24" fill="none" xmlns="http://www.w3.org/2000/svg">
<path fill-rule="evenodd" clip-rule="evenodd" d="M1 6C1 3.79086 2.79086 2 5 2H19C21.2091 2 23 3.79086 23 6V18C23 20.2091 21.2091 22 19 22H5C2.79086 22 1 20.2091 1 18V6ZM9 3.5H15V11.25L9 11.25V3.5ZM7.5 11.25V3.5H5C3.61929 3.5 2.5 4.61929 2.5 6V11.25H7.5ZM2.5 12.75H7.5V20.5H5C3.61929 20.5 2.5 19.3807 2.5 18V12.75ZM9 12.75L15 12.75V20.5H9V12.75ZM16.5 12.75V20.5H19C20.3807 20.5 21.5 19.3807 21.5 18V12.75H16.5ZM21.5 11.25V6C21.5 4.61929 20.3807 3.5 19 3.5H16.5V11.25H21.5Z" fill="#18202A"/>
</svg>
