<svg width="24" height="24" viewBox="0 0 24 24" fill="none" xmlns="http://www.w3.org/2000/svg">
<g clip-path="url(#clip0_3916_8783)">
<path d="M16.7803 13.3106C16.921 13.17 17 12.9792 17 12.7803C17 12.5814 16.921 12.3906 16.7803 12.2499L14.0303 9.49994C13.7374 9.20705 13.2626 9.20705 12.9697 9.49994C12.6768 9.79284 12.6768 10.2677 12.9697 10.5606L14.4089 11.9998L7.75 11.9998C7.33579 11.9998 7 12.3356 7 12.7498C7 13.164 7.33579 13.4998 7.75 13.4998L14.4698 13.4998L12.9697 14.9999C12.6768 15.2928 12.6768 15.7677 12.9697 16.0606C13.2626 16.3535 13.7374 16.3535 14.0303 16.0606L16.7803 13.3106Z" fill="#18202A"/>
<path fill-rule="evenodd" clip-rule="evenodd" d="M5 3C2.79086 3 1 4.79086 1 7V17C1 19.2091 2.79086 21 5 21H19C21.2091 21 23 19.2091 23 17V9C23 6.79086 21.2091 5 19 5H12L10.8787 3.87868C10.3161 3.31607 9.55301 3 8.75736 3H5ZM11.3787 6.5L9.81802 4.93934C9.53671 4.65804 9.15518 4.5 8.75736 4.5H5C3.61929 4.5 2.5 5.61929 2.5 7V17C2.5 18.3807 3.61929 19.5 5 19.5H19C20.3807 19.5 21.5 18.3807 21.5 17V9C21.5 7.61929 20.3807 6.5 19 6.5H11.3787Z" fill="#18202A"/>
</g>
<defs>
<clipPath id="clip0_3916_8783">
<rect width="24" height="24" fill="white"/>
</clipPath>
</defs>
</svg>
