<svg width="24" height="24" viewBox="0 0 24 24" fill="none" xmlns="http://www.w3.org/2000/svg">
<path fill-rule="evenodd" clip-rule="evenodd" d="M18.4504 16.0505C19.4285 14.6105 20 12.872 20 11C20 6.02944 15.9706 2 11 2C6.02944 2 2 6.02944 2 11C2 15.9706 6.02944 20 11 20C12.872 20 14.6105 19.4285 16.0505 18.4504C16.5223 18.13 16.962 17.7659 17.364 17.364C17.7659 16.962 18.13 16.5223 18.4504 16.0505ZM19.4118 18.0885C19.0437 17.9222 18.5955 17.9903 18.2929 18.2929C17.9903 18.5955 17.9222 19.0437 18.0885 19.4118C18.1368 19.5189 18.2049 19.6191 18.2929 19.7071L20.2929 21.7071C20.6834 22.0976 21.3166 22.0976 21.7071 21.7071C22.0976 21.3166 22.0976 20.6834 21.7071 20.2929L19.7071 18.2929C19.6191 18.2049 19.5189 18.1368 19.4118 18.0885ZM11 18C14.866 18 18 14.866 18 11C18 7.13401 14.866 4 11 4C7.13401 4 4 7.13401 4 11C4 14.866 7.13401 18 11 18Z" fill="#18202A"/>
</svg>
