<svg width="24" height="24" viewBox="0 0 24 24" fill="none" xmlns="http://www.w3.org/2000/svg">
<path d="M13.2566 6.25C14.6337 6.25 15.75 7.36634 15.75 8.74342C15.75 9.75703 15.1374 10.6632 14.2116 11.0467L14.0451 11.1089L13.7372 11.2115C13.193 11.3929 12.8123 11.8769 12.757 12.4391L12.75 12.5811V13C12.75 13.4142 12.4142 13.75 12 13.75C11.6203 13.75 11.3065 13.4678 11.2568 13.1018L11.25 13V12.5811C11.25 11.3774 11.9817 10.302 13.0855 9.85395L13.2628 9.78849L13.5707 9.68586C13.9764 9.55064 14.25 9.17101 14.25 8.74342C14.25 8.23395 13.8665 7.81407 13.3724 7.75668L13.2566 7.75H10.4142C10.0474 7.75 9.75 8.04738 9.75 8.41421C9.75 8.55514 9.79479 8.69145 9.87648 8.80411L9.94454 8.88388L10.0303 8.96967C10.3232 9.26256 10.3232 9.73744 10.0303 10.0303C9.76406 10.2966 9.3474 10.3208 9.05379 10.1029L8.96967 10.0303L8.88388 9.94454C8.47801 9.53868 8.25 8.9882 8.25 8.41421C8.25 7.27092 9.13653 6.33468 10.2597 6.25543L10.4142 6.25H13.2566Z" fill="#18202A"/>
<path d="M13 16C13 15.4477 12.5523 15 12 15C11.4477 15 11 15.4477 11 16C11 16.5523 11.4477 17 12 17C12.5523 17 13 16.5523 13 16Z" fill="#18202A"/>
<path fill-rule="evenodd" clip-rule="evenodd" d="M12 23C18.0751 23 23 18.0751 23 12C23 5.92487 18.0751 1 12 1C5.92487 1 1 5.92487 1 12C1 18.0751 5.92487 23 12 23ZM21.5 12C21.5 17.2467 17.2467 21.5 12 21.5C6.75329 21.5 2.5 17.2467 2.5 12C2.5 6.75329 6.75329 2.5 12 2.5C17.2467 2.5 21.5 6.75329 21.5 12Z" fill="#18202A"/>
</svg>
