<svg width="24" height="24" viewBox="0 0 24 24" fill="none" xmlns="http://www.w3.org/2000/svg">
<path fill-rule="evenodd" clip-rule="evenodd" d="M17 2.5H7C4.51472 2.5 2.5 4.51472 2.5 7V17C2.5 19.4853 4.51472 21.5 7 21.5H17C19.4853 21.5 21.5 19.4853 21.5 17V7C21.5 4.51472 19.4853 2.5 17 2.5ZM7 1C3.68629 1 1 3.68629 1 7V17C1 20.3137 3.68629 23 7 23H17C20.3137 23 23 20.3137 23 17V7C23 3.68629 20.3137 1 17 1H7Z" fill="#18202A"/>
<path fill-rule="evenodd" clip-rule="evenodd" d="M9 9.5C9.82843 9.5 10.5 8.82843 10.5 8C10.5 7.17157 9.82843 6.5 9 6.5C8.17157 6.5 7.5 7.17157 7.5 8C7.5 8.82843 8.17157 9.5 9 9.5ZM12 8C12 9.65685 10.6569 11 9 11C7.34315 11 6 9.65685 6 8C6 6.34315 7.34315 5 9 5C10.6569 5 12 6.34315 12 8Z" fill="#18202A"/>
<path fill-rule="evenodd" clip-rule="evenodd" d="M16.544 9.84207L22.5897 17.5366L21.4103 18.4634L16.456 12.1579L11.0695 18.0342L8.07173 15.5361L3.55496 20.5045L2.44504 19.4955L7.92827 13.4639L10.9305 15.9658L16.544 9.84207Z" fill="#18202A"/>
</svg>
