<svg width="24" height="24" viewBox="0 0 24 24" fill="none" xmlns="http://www.w3.org/2000/svg">
<path fill-rule="evenodd" clip-rule="evenodd" d="M4.58579 1.58579C4.96086 1.21071 5.46957 1 6 1H18C18.5304 1 19.0391 1.21071 19.4142 1.58579C19.7893 1.96086 20 2.46957 20 3V22C20 22.3746 19.7907 22.7178 19.4576 22.8892C19.1245 23.0606 18.7236 23.0315 18.4188 22.8137L15.5 20.7289L12.5812 22.8137C12.2335 23.0621 11.7665 23.0621 11.4188 22.8137L8.5 20.7289L5.58124 22.8137C5.27642 23.0315 4.87549 23.0606 4.54242 22.8892C4.20935 22.7178 4 22.3746 4 22V3C4 2.46957 4.21071 1.96086 4.58579 1.58579ZM8 7C8 6.44772 8.44771 6 9 6H15C15.5523 6 16 6.44772 16 7C16 7.55228 15.5523 8 15 8H9C8.44771 8 8 7.55228 8 7ZM9 10C8.44771 10 8 10.4477 8 11C8 11.5523 8.44771 12 9 12H15C15.5523 12 16 11.5523 16 11C16 10.4477 15.5523 10 15 10H9ZM8 15C8 14.4477 8.44771 14 9 14H15C15.5523 14 16 14.4477 16 15C16 15.5523 15.5523 16 15 16H9C8.44771 16 8 15.5523 8 15Z" fill="#18202A"/>
</svg>
