<svg width="24" height="24" viewBox="0 0 24 24" fill="none" xmlns="http://www.w3.org/2000/svg">
<path d="M18.599 2.35655L17.864 3.09155L20.9084 6.13603L21.6434 5.40103C21.8717 5.17266 22 4.86296 22 4.54005C22 4.21713 21.8717 3.90744 21.6434 3.67907L20.3209 2.35655C20.0926 2.12825 19.7829 2 19.4599 2C19.137 2 18.8273 2.12825 18.599 2.35655Z" fill="#18202A"/>
<path d="M20.0473 6.99713L17.0029 3.95266L10.4313 10.5243L10.0072 13.2989C9.9451 13.7051 10.2949 14.0549 10.7011 13.9928L13.4757 13.5687L20.0473 6.99713Z" fill="#18202A"/>
<path d="M12 5C12 4.44772 11.5523 4 11 4H5C3.34315 4 2 5.34315 2 7V19C2 20.6569 3.34315 22 5 22H17C18.6569 22 20 20.6569 20 19V13C20 12.4477 19.5523 12 19 12C18.4477 12 18 12.4477 18 13V19C18 19.5523 17.5523 20 17 20H5C4.44772 20 4 19.5523 4 19V7C4 6.44772 4.44772 6 5 6H11C11.5523 6 12 5.55228 12 5Z" fill="#18202A"/>
</svg>
