<svg width="24" height="24" viewBox="0 0 24 24" fill="none" xmlns="http://www.w3.org/2000/svg">
<g clip-path="url(#clip0_2266_31208)">
<path fill-rule="evenodd" clip-rule="evenodd" d="M15 23.6219V16.0116L15.0001 22.5859C18.6633 21.5497 21.5497 18.6633 22.5859 15.0001L17.7648 15H23.6219C23.8687 14.0411 24 13.0359 24 12C24 10.9641 23.8687 9.95886 23.6219 9H15.3542L15.3542 8.99996L22.5858 8.99961C21.5496 5.33648 18.6633 2.45019 15.0001 1.41406L15 7.98837V0.378052L14.5863 0.279403C13.7533 0.0964352 12.8879 0 12 0L11.558 0.00799042C10.6778 0.0398604 9.82188 0.166515 9 0.378052V8.64579L8.99999 8.6458L8.99964 1.41412C5.33658 2.4503 2.45033 5.33655 1.41415 8.99961L8.64583 8.99996L8.64579 9H0.378052L0.279403 9.41373C0.0964352 10.2467 0 11.1121 0 12C0 13.0359 0.131259 14.0411 0.378052 15H6.23525L1.41409 15.0001C2.45022 18.6632 5.33651 21.5496 8.99964 22.5858L8.99999 15.3542L9.0048 15.3584C9.01252 15.3653 9.02027 15.3722 9.02804 15.379L9.0048 15.3584C8.87854 15.2457 8.75868 15.1261 8.64583 15L8.6453 14.9994L8.49748 14.8256C7.87359 14.0532 7.5 13.0702 7.5 12C7.5 10.8565 7.92657 9.81248 8.62927 9.01861C8.63186 9.01569 8.63444 9.01278 8.63703 9.00987C8.63996 9.00658 8.6429 9.00329 8.64584 9H8.64579C8.75723 8.8755 8.87549 8.75723 9 8.64579V8.64584L9.17445 8.49748C9.94684 7.87359 10.9298 7.5 12 7.5L12.2454 7.50658C13.3014 7.56332 14.2608 7.98418 15 8.64584V8.6458C15.1244 8.75716 15.2426 8.87534 15.3542 9H15.3542C15.3554 9.00133 15.3566 9.00266 15.3578 9.00398L15.3759 9.02443C16.0755 9.81758 16.5 10.8593 16.5 12C16.5 13.1525 16.0667 14.2039 15.3542 15H15.3542L15.3592 14.9943C15.2462 15.121 15.1261 15.2413 14.9997 15.3544L14.9987 15.3553L14.8256 15.5025C14.0532 16.1264 13.0702 16.5 12 16.5C10.8475 16.5 9.79613 16.0667 9 15.3542V23.6219L9.41373 23.7206C10.2467 23.9035 11.1121 24 12 24L12.442 23.992C13.3222 23.9601 14.1781 23.8334 15 23.6219ZM14.9988 15.3552C14.9991 15.3549 14.9994 15.3547 14.9997 15.3544L15 15.3542L15 15.3542L15 15.3542L14.9988 15.3552ZM8.64545 14.9995C8.64557 14.9997 8.6457 14.9998 8.64583 15H8.6458L8.64545 14.9995ZM13.3704 17.8424L13.5 17.809V22.391L13.3302 22.4167C12.8919 22.472 12.448 22.5 12 22.5L11.5399 22.4901C11.2341 22.477 10.9306 22.4507 10.6297 22.4115L10.5 22.391V17.809L10.6296 17.8424C11.0736 17.9462 11.5328 18 12 18C12.4672 18 12.9265 17.9462 13.3704 17.8424ZM17.809 10.5H22.391L22.4167 10.6698C22.472 11.1081 22.5 11.552 22.5 12L22.4907 12.4466C22.4783 12.7433 22.4536 13.038 22.4167 13.3302L22.391 13.5H17.809L17.8424 13.3704C17.9462 12.9265 18 12.4672 18 12L17.9936 11.7207C17.9765 11.3497 17.9254 10.9848 17.8424 10.6296L17.809 10.5ZM1.608 10.5H6.19L6.1576 10.6296C6.0538 11.0735 6 11.5328 6 12L6.00631 12.2768C6.0231 12.6445 6.07323 13.0065 6.1549 13.3589L6.191 13.5H1.608L1.5833 13.3302C1.52797 12.892 1.5 12.448 1.5 12L1.50988 11.5398C1.52303 11.2341 1.54928 10.9305 1.58845 10.6296L1.608 10.5ZM10.6697 1.5833C11.108 1.52797 11.552 1.5 12 1.5L12.4602 1.50988C12.7659 1.52303 13.0695 1.54928 13.3704 1.58845L13.5 1.608V6.19L13.3704 6.1576C12.9265 6.0538 12.4672 6 12 6L11.7232 6.00631C11.3555 6.0231 10.9936 6.07323 10.6411 6.1549L10.5 6.19V1.608L10.6697 1.5833Z" fill="#18202A"/>
</g>
<defs>
<clipPath id="clip0_2266_31208">
<rect width="24" height="24" fill="white"/>
</clipPath>
</defs>
</svg>
