<svg width="24" height="24" viewBox="0 0 24 24" fill="none" xmlns="http://www.w3.org/2000/svg">
<path fill-rule="evenodd" clip-rule="evenodd" d="M6.75256 5.35745C6.71342 5.15529 6.59289 4.97812 6.41924 4.86748C6.24559 4.75684 6.03408 4.72246 5.83433 4.7724L3.83433 5.2724C3.43462 5.37232 3.19036 5.77597 3.28727 6.17642C3.52518 7.1595 3.67349 7.94519 3.69093 8.78758C3.70829 9.62673 3.59612 10.557 3.27326 11.8133C2.98535 12.9336 2.98744 14.1912 3.27917 15.26C3.51603 16.1278 3.98424 16.9956 4.76623 17.4732V19.3452C4.75575 19.3952 4.75024 19.4469 4.75024 19.5C4.75024 19.9142 5.08603 20.25 5.50024 20.25H18.4999C18.9141 20.25 19.2499 19.9142 19.2499 19.5V17.4731C20.0352 16.9935 20.5039 16.121 20.74 15.2487C21.0286 14.1825 21.0298 12.9299 20.7429 11.8133C20.42 10.557 20.3078 9.62673 20.3252 8.78758C20.3426 7.94519 20.4909 7.1595 20.7288 6.17642C20.8258 5.77597 20.5815 5.37232 20.1818 5.2724L18.1818 4.7724C17.982 4.72246 17.7705 4.75684 17.5969 4.86748C17.4232 4.97812 17.3027 5.15529 17.2636 5.35745C17.0382 6.52157 16.5802 7.63641 15.8772 8.44562C15.1916 9.2348 14.2628 9.75 12.9999 9.75C12.7158 9.75 12.456 9.91055 12.329 10.1647L12.0055 10.8119L11.6892 10.1689C11.563 9.91245 11.302 9.75 11.0162 9.75C9.75332 9.75 8.82454 9.2348 8.1389 8.44562C7.43586 7.63641 6.97794 6.52157 6.75256 5.35745ZM6.26623 18.75V17.7497L17.7499 17.745V18.75H6.26623ZM5.65667 16.2499L18.3705 16.2448C18.7371 16.069 19.0858 15.6189 19.2921 14.8568C19.51 14.0519 19.5153 13.0632 19.2901 12.1867C18.9427 10.8352 18.8046 9.76543 18.8255 8.75654C18.8413 7.99539 18.9473 7.2888 19.1047 6.54929L18.5559 6.4121C18.2561 7.49675 17.7584 8.5675 17.0095 9.42939C16.1537 10.4145 14.9803 11.1107 13.4728 11.2313L12.6711 12.8353C12.5437 13.0902 12.2829 13.2509 11.9979 13.25C11.7129 13.2491 11.4531 13.0868 11.3273 12.8311L10.5401 11.2311C9.03416 11.1097 7.8618 10.4138 7.00657 9.42939C6.25776 8.5675 5.76 7.49675 5.46017 6.4121L4.9114 6.54929C5.06876 7.2888 5.17485 7.99539 5.1906 8.75654C5.21149 9.76543 5.07337 10.8352 4.72605 12.1867C4.49998 13.0664 4.50618 14.0588 4.72623 14.865C4.93514 15.6304 5.28731 16.0784 5.65667 16.2499ZM2.6721 11.3359C2.85752 10.9655 2.70757 10.5149 2.33717 10.3295C1.96678 10.1441 1.5162 10.294 1.33078 10.6644C1.09709 11.1313 0.937029 11.6548 0.841377 12.2043L2.34449 12.3269C2.4184 11.9597 2.52794 11.6239 2.6721 11.3359ZM2.2364 13.8231L0.73233 13.7004C0.739401 14.0681 0.769792 14.4353 0.821043 14.7938C0.875186 15.1725 0.954296 15.553 1.05879 15.9246L2.43936 15.2771C2.38486 15.0526 2.34003 14.8199 2.30594 14.5815C2.26957 14.3271 2.24646 14.0731 2.2364 13.8231ZM1.60617 17.3247C1.84446 17.7804 2.13241 18.1918 2.47111 18.5305C2.764 18.8234 3.23888 18.8234 3.53177 18.5305C3.82466 18.2376 3.82466 17.7627 3.53177 17.4698C3.32454 17.2626 3.13386 16.997 2.96601 16.6869L1.60617 17.3247ZM21.3284 11.3359C21.143 10.9655 21.2929 10.5149 21.6633 10.3295C22.0337 10.1441 22.4843 10.294 22.6697 10.6644C22.9034 11.1313 23.0635 11.6548 23.1591 12.2043L21.656 12.3269C21.5821 11.9597 21.4726 11.6239 21.3284 11.3359ZM21.6945 14.5815C21.7309 14.3271 21.754 14.0731 21.7641 13.8231L23.2682 13.7004C23.2611 14.0681 23.2307 14.4353 23.1795 14.7938C23.1253 15.1725 23.0462 15.553 22.9417 15.9246L21.5611 15.2771C21.6156 15.0526 21.6605 14.8199 21.6945 14.5815ZM20.4687 17.4698C20.676 17.2626 20.8666 16.997 21.0345 16.6869L22.3943 17.3247C22.156 17.7804 21.8681 18.1918 21.5294 18.5305C21.2365 18.8234 20.7616 18.8234 20.4687 18.5305C20.1758 18.2376 20.1758 17.7627 20.4687 17.4698Z" fill="#26282C"/>
</svg>
