<svg width="24" height="24" viewBox="0 0 24 24" fill="none" xmlns="http://www.w3.org/2000/svg">
<path fill-rule="evenodd" clip-rule="evenodd" d="M2.75 1C2.33579 1 2 1.33579 2 1.75C2 2.16421 2.33579 2.5 2.75 2.5H4V20C4 20.1883 4.01735 20.3726 4.05054 20.5513C4.05385 20.5691 4.05732 20.5869 4.06095 20.6046C4.30435 21.7941 5.25172 22.7271 6.44874 22.9495C6.62743 22.9827 6.81169 23 7 23H17C17.1883 23 17.3726 22.9826 17.5513 22.9495C17.5691 22.9461 17.5869 22.9427 17.6046 22.9391C18.7941 22.6956 19.7271 21.7483 19.9495 20.5513C19.9827 20.3726 20 20.1883 20 20V2.5H21.25C21.6642 2.5 22 2.16421 22 1.75C22 1.33579 21.6642 1 21.25 1H20H4H2.75ZM18.5 19.063V2.5H5.5V19.063C5.65981 19.0219 5.82735 19 6 19C7.10457 19 8 19.8954 8 21C8 21.1726 7.97812 21.3402 7.93699 21.5H16.063C16.0219 21.3402 16 21.1726 16 21C16 19.8954 16.8954 19 18 19C18.1726 19 18.3402 19.0219 18.5 19.063ZM15.5303 12.2197C15.8232 12.5126 15.8232 12.9874 15.5303 13.2803L12.5303 16.2803C12.2374 16.5732 11.7626 16.5732 11.4697 16.2803L8.46967 13.2803C8.17678 12.9874 8.17678 12.5126 8.46967 12.2197C8.76256 11.9268 9.23744 11.9268 9.53033 12.2197L11.25 13.9393V7.75C11.25 7.33579 11.5858 7 12 7C12.4142 7 12.75 7.33579 12.75 7.75V13.9393L14.4697 12.2197C14.7626 11.9268 15.2374 11.9268 15.5303 12.2197Z" fill="#18202A"/>
</svg>
