<svg width="24" height="24" viewBox="0 0 24 24" fill="none" xmlns="http://www.w3.org/2000/svg">
<path fill-rule="evenodd" clip-rule="evenodd" d="M4 2C2.89543 2 2 2.89543 2 4V5C2 6.10457 2.89543 7 4 7H20C21.1046 7 22 6.10457 22 5V4C22 2.89543 21.1046 2 20 2H4ZM3 10C3 9.44772 3.44772 9 4 9H20C20.5523 9 21 9.44772 21 10V12.8135C20.3699 12.61 19.6978 12.5 19 12.5C15.4101 12.5 12.5 15.4101 12.5 19C12.5 20.5085 13.0139 21.897 13.8762 23H7C4.79086 23 3 21.2091 3 19V10ZM8 12C8 11.4477 8.44772 11 9 11H15C15.5523 11 16 11.4477 16 12C16 12.5523 15.5523 13 15 13H9C8.44772 13 8 12.5523 8 12ZM24 19C24 21.7614 21.7614 24 19 24C16.2386 24 14 21.7614 14 19C14 16.2386 16.2386 14 19 14C21.7614 14 24 16.2386 24 19ZM21.4749 16.5251C21.7678 16.818 21.7678 17.2929 21.4749 17.5858L20.0607 19L21.4749 20.4142C21.7678 20.7071 21.7678 21.182 21.4749 21.4749C21.182 21.7677 20.7071 21.7677 20.4142 21.4749L19 20.0606L17.5858 21.4749C17.2929 21.7677 16.818 21.7677 16.5251 21.4749C16.2322 21.182 16.2322 20.7071 16.5251 20.4142L17.9393 19L16.5251 17.5858C16.2322 17.2929 16.2322 16.818 16.5251 16.5251C16.818 16.2322 17.2929 16.2322 17.5858 16.5251L19 17.9393L20.4142 16.5251C20.7071 16.2322 21.182 16.2322 21.4749 16.5251Z" fill="#18202A"/>
</svg>
