<svg width="24" height="24" viewBox="0 0 24 24" fill="none" xmlns="http://www.w3.org/2000/svg">
<path fill-rule="evenodd" clip-rule="evenodd" d="M16 2.5H8C6.61929 2.5 5.5 3.61929 5.5 5V21L9.9 17.7C11.1444 16.7667 12.8556 16.7667 14.1 17.7L18.5 21V5C18.5 3.61929 17.3807 2.5 16 2.5ZM8 1C5.79086 1 4 2.79086 4 5V22C4 22.824 4.94076 23.2944 5.6 22.8L10.8 18.9C11.5111 18.3667 12.4889 18.3667 13.2 18.9L18.4 22.8C19.0592 23.2944 20 22.824 20 22V5C20 2.79086 18.2091 1 16 1H8Z" fill="#18202A"/>
<path d="M5 6H19V7.5H5V6Z" fill="#18202A"/>
</svg>
