<svg width="24" height="24" viewBox="0 0 24 24" fill="none" xmlns="http://www.w3.org/2000/svg">
<g clip-path="url(#clip0_2266_33248)">
<path fill-rule="evenodd" clip-rule="evenodd" d="M8.5 0.5C9.05228 0.5 9.5 0.947715 9.5 1.5V3.5C9.5 4.05228 9.05228 4.5 8.5 4.5C7.94772 4.5 7.5 4.05228 7.5 3.5V1.5C7.5 0.947715 7.94772 0.5 8.5 0.5ZM2.79289 2.79289C3.18342 2.40237 3.81658 2.40237 4.20711 2.79289L5.70711 4.29289C6.09763 4.68342 6.09763 5.31658 5.70711 5.70711C5.31658 6.09763 4.68342 6.09763 4.29289 5.70711L2.79289 4.20711C2.40237 3.81658 2.40237 3.18342 2.79289 2.79289ZM0.5 8.5C0.5 7.94772 0.947715 7.5 1.5 7.5H3.5C4.05228 7.5 4.5 7.94772 4.5 8.5C4.5 9.05228 4.05228 9.5 3.5 9.5H1.5C0.947715 9.5 0.5 9.05228 0.5 8.5ZM12 3.51498C14.3431 1.17183 18.1421 1.17183 20.4853 3.51498C22.8284 5.85813 22.8284 9.65711 20.4853 12.0003L18.3639 14.1216C17.9734 14.5121 17.3402 14.5121 16.9497 14.1216C16.5592 13.7311 16.5592 13.0979 16.9497 12.7074L19.071 10.586C20.6331 9.02395 20.6331 6.49129 19.071 4.92919C17.5089 3.3671 14.9763 3.3671 13.4142 4.92919L11.2929 7.05051C10.9023 7.44104 10.2692 7.44104 9.87865 7.05051C9.48813 6.65999 9.48813 6.02682 9.87865 5.6363L12 3.51498ZM3.51467 11.9994C1.17153 14.3426 1.17153 18.1416 3.51467 20.4847C5.85782 22.8279 9.65681 22.8279 12 20.4847L14.1213 18.3634C14.5118 17.9729 14.5118 17.3397 14.1213 16.9492C13.7308 16.5586 13.0976 16.5586 12.7071 16.9492L10.5857 19.0705C9.02365 20.6326 6.49098 20.6326 4.92889 19.0705C3.36679 17.5084 3.36679 14.9757 4.92889 13.4136L7.05021 11.2923C7.44073 10.9018 7.44073 10.2686 7.05021 9.8781C6.65968 9.48758 6.02652 9.48758 5.63599 9.8781L3.51467 11.9994ZM14.5 22.5C14.5 23.0523 14.9477 23.5 15.5 23.5C16.0523 23.5 16.5 23.0523 16.5 22.5V20.5C16.5 19.9477 16.0523 19.5 15.5 19.5C14.9477 19.5 14.5 19.9477 14.5 20.5V22.5ZM18.2929 19.7071L19.7929 21.2071C20.1834 21.5976 20.8166 21.5976 21.2071 21.2071C21.5976 20.8166 21.5976 20.1834 21.2071 19.7929L19.7071 18.2929C19.3166 17.9024 18.6834 17.9024 18.2929 18.2929C17.9024 18.6834 17.9024 19.3166 18.2929 19.7071ZM22.5 16.5C23.0523 16.5 23.5 16.0523 23.5 15.5C23.5 14.9477 23.0523 14.5 22.5 14.5H20.5C19.9477 14.5 19.5 14.9477 19.5 15.5C19.5 16.0523 19.9477 16.5 20.5 16.5H22.5Z" fill="#18202A"/>
</g>
<defs>
<clipPath id="clip0_2266_33248">
<rect width="24" height="24" fill="white"/>
</clipPath>
</defs>
</svg>
