<svg width="24" height="24" viewBox="0 0 24 24" fill="none" xmlns="http://www.w3.org/2000/svg">
<path fill-rule="evenodd" clip-rule="evenodd" d="M11 2.75C6.44365 2.75 2.75 6.44365 2.75 11C2.75 15.246 5.95825 18.7437 10.0824 19.1996C10.4941 19.2451 10.791 19.6158 10.7455 20.0275C10.6999 20.4392 10.3293 20.736 9.91759 20.6905C5.04185 20.1515 1.25 16.0191 1.25 11C1.25 5.61522 5.61522 1.25 11 1.25C16.0191 1.25 20.1515 5.04185 20.6905 9.91759C20.736 10.3293 20.4392 10.6999 20.0275 10.7455C19.6158 10.791 19.2451 10.4941 19.1996 10.0824C18.7437 5.95825 15.246 2.75 11 2.75ZM11 6.75C8.65279 6.75 6.75 8.65279 6.75 11C6.75 12.7416 7.79769 14.2402 9.30028 14.8967C9.67984 15.0625 9.8531 15.5047 9.68726 15.8842C9.52143 16.2638 9.07929 16.4371 8.69972 16.2712C6.6705 15.3846 5.25 13.359 5.25 11C5.25 7.82436 7.82436 5.25 11 5.25C13.359 5.25 15.3846 6.6705 16.2712 8.69972C16.4371 9.07929 16.2638 9.52143 15.8842 9.68726C15.5047 9.8531 15.0625 9.67984 14.8967 9.30028C14.2402 7.79769 12.7416 6.75 11 6.75ZM14.7416 20.2856L12.1543 12.1543L20.2856 14.7415L18.284 16.0759C18.097 16.2006 17.9758 16.4025 17.9536 16.6261C17.9315 16.8497 18.0108 17.0714 18.1697 17.2303L21.9393 21L21 21.9393L17.2303 18.1696C17.0714 18.0108 16.8497 17.9315 16.6261 17.9536C16.4025 17.9758 16.2006 18.097 16.076 18.2839L14.7416 20.2856ZM12.1486 10.5784C11.182 10.2708 10.2708 11.1819 10.5784 12.1485L13.4699 21.236C13.7877 22.2348 15.1197 22.4225 15.7011 21.5504L16.8166 19.8772L20.1161 23.1767C20.6043 23.6649 21.3957 23.6649 21.8839 23.1767L23.1768 21.8839C23.6649 21.3957 23.6649 20.6042 23.1768 20.1161L19.8772 16.8165L21.5504 15.7011C22.4225 15.1197 22.2348 13.7876 21.2361 13.4698L12.1486 10.5784Z" fill="#18202A"/>
</svg>
