<svg width="24" height="24" viewBox="0 0 24 24" fill="none" xmlns="http://www.w3.org/2000/svg">
<path d="M7.00001 2.75001C7.00001 2.45383 6.8257 2.18539 6.55514 2.06489C6.28457 1.94439 5.96843 1.99441 5.74828 2.19254L3.24828 4.44254C2.9404 4.71964 2.91544 5.19385 3.19254 5.50174C3.46963 5.80962 3.94385 5.83458 4.25173 5.55748L5.50001 4.43404V9.25012C5.50001 9.66433 5.83579 10.0001 6.25001 10.0001C6.66422 10.0001 7.00001 9.66433 7.00001 9.25012V2.75001Z" fill="#18202A"/>
<path d="M4.50002 14.5C4.50002 14.2243 4.85147 13.5 6.00002 13.5C7.14857 13.5 7.50002 14.2243 7.50002 14.5C7.50002 15.3907 7.0127 15.9267 5.96969 16.9697L3.21969 19.7197C3.00519 19.9342 2.94103 20.2568 3.05711 20.537C3.1732 20.8173 3.44668 21 3.75002 21H8.25002C8.66424 21 9.00002 20.6642 9.00002 20.25C9.00002 19.8358 8.66424 19.5 8.25002 19.5H5.56068L7.11221 17.9486C8.04419 17.0179 9.00002 16.0635 9.00002 14.5C9.00002 13.2757 7.85147 12 6.00002 12C4.14857 12 3.00002 13.2757 3.00002 14.5C3.00002 14.9142 3.33581 15.25 3.75002 15.25C4.16424 15.25 4.50002 14.9142 4.50002 14.5Z" fill="#18202A"/>
<path d="M11 4.75C11 4.33579 11.3358 4 11.75 4H21.25C21.6642 4 22 4.33579 22 4.75C22 5.16421 21.6642 5.5 21.25 5.5H11.75C11.3358 5.5 11 5.16421 11 4.75Z" fill="#18202A"/>
<path d="M11.75 7.5C11.3358 7.5 11 7.83579 11 8.25C11 8.66421 11.3358 9 11.75 9H21.25C21.6642 9 22 8.66421 22 8.25C22 7.83579 21.6642 7.5 21.25 7.5H11.75Z" fill="#18202A"/>
<path d="M11 15.75C11 15.3358 11.3358 15 11.75 15H21.25C21.6642 15 22 15.3358 22 15.75C22 16.1642 21.6642 16.5 21.25 16.5H11.75C11.3358 16.5 11 16.1642 11 15.75Z" fill="#18202A"/>
<path d="M11.75 18.5C11.3358 18.5 11 18.8358 11 19.25C11 19.6642 11.3358 20 11.75 20H21.25C21.6642 20 22 19.6642 22 19.25C22 18.8358 21.6642 18.5 21.25 18.5H11.75Z" fill="#18202A"/>
</svg>
