<svg width="24" height="24" viewBox="0 0 24 24" fill="none" xmlns="http://www.w3.org/2000/svg">
<path fill-rule="evenodd" clip-rule="evenodd" d="M16.5 8V7C16.5 4.51472 14.4853 2.5 12 2.5C9.51472 2.5 7.5 4.51472 7.5 7V8H16.5ZM18 7V8C20.2091 8 22 9.79086 22 12V19C22 21.2091 20.2091 23 18 23H6C3.79086 23 2 21.2091 2 19V12C2 9.79086 3.79086 8 6 8V7C6 3.68629 8.68629 1 12 1C15.3137 1 18 3.68629 18 7ZM6 9.5C4.61929 9.5 3.5 10.6193 3.5 12V19C3.5 20.3807 4.61929 21.5 6 21.5H18C19.3807 21.5 20.5 20.3807 20.5 19V12C20.5 10.6193 19.3807 9.5 18 9.5H6ZM7.5 15.5C7.5 16.1904 6.94036 16.75 6.25 16.75C5.55964 16.75 5 16.1904 5 15.5C5 14.8096 5.55964 14.25 6.25 14.25C6.94036 14.25 7.5 14.8096 7.5 15.5ZM11.3333 15.5C11.3333 16.1904 10.7737 16.75 10.0833 16.75C9.39297 16.75 8.83333 16.1904 8.83333 15.5C8.83333 14.8096 9.39297 14.25 10.0833 14.25C10.7737 14.25 11.3333 14.8096 11.3333 15.5ZM13.9167 16.75C14.607 16.75 15.1667 16.1904 15.1667 15.5C15.1667 14.8096 14.607 14.25 13.9167 14.25C13.2263 14.25 12.6667 14.8096 12.6667 15.5C12.6667 16.1904 13.2263 16.75 13.9167 16.75ZM19 15.5C19 16.1904 18.4404 16.75 17.75 16.75C17.0596 16.75 16.5 16.1904 16.5 15.5C16.5 14.8096 17.0596 14.25 17.75 14.25C18.4404 14.25 19 14.8096 19 15.5Z" fill="#18202A"/>
</svg>
