<svg width="24" height="24" viewBox="0 0 24 24" fill="none" xmlns="http://www.w3.org/2000/svg">
<path d="M12 12C14 12 15 10 15 7.5C15 5.5 14 4 12 4C10 4 9.00003 5.5 9.00003 7.5C9.00003 10 10 12 12 12Z" fill="#18202A"/>
<path d="M12.6679 21.9878C12.2395 21.0817 12 20.0688 12 19C12 16.7284 13.082 14.7096 14.7588 13.4307C13.8894 13.151 12.9623 13 12 13C10.2159 13 8.55306 13.5191 7.15426 14.4146C5.84452 15.253 5.4063 16.9237 5.9299 18.388C6.08302 18.8163 6.25388 19.2361 6.44159 19.6466C6.97355 20.8099 8.06574 21.6154 9.331 21.8035C10.2019 21.9329 11.0931 22 12 22C12.2236 22 12.4463 21.9959 12.6679 21.9878Z" fill="#18202A"/>
<path d="M5.00003 12C6.33336 12 7.00003 10.75 7.00003 9.1875C7.00003 7.9375 6.33336 7 5.00003 7C3.6667 7 3.00003 7.9375 3.00003 9.1875C3.00003 10.75 3.6667 12 5.00003 12Z" fill="#18202A"/>
<path d="M19 12C20.3334 12 21 10.75 21 9.1875C21 7.9375 20.3334 7 19 7C17.6667 7 17 7.9375 17 9.1875C17 10.75 17.6667 12 19 12Z" fill="#18202A"/>
<path d="M4.04667 19.0616C3.45918 17.4186 3.64602 15.4911 4.69846 14.0298C3.74381 14.1117 2.83704 14.3612 2.00773 14.7488C0.840671 15.2943 0.369745 16.6721 0.763752 17.8986C1.10848 18.9717 2.04462 19.7256 3.16325 19.8637C3.5718 19.9141 3.98458 19.9508 4.40113 19.9734C4.27502 19.6736 4.15678 19.3695 4.04667 19.0616Z" fill="#18202A"/>
<path fill-rule="evenodd" clip-rule="evenodd" d="M19 24C21.7614 24 24 21.7614 24 19C24 16.2386 21.7614 14 19 14C16.2386 14 14 16.2386 14 19C14 21.7614 16.2386 24 19 24ZM22.0694 17.9881C22.339 17.6736 22.3026 17.2001 21.9881 16.9306C21.6736 16.661 21.2001 16.6974 20.9305 17.0119L18.3878 19.9784L16.95 18.9C16.6186 18.6515 16.1485 18.7186 15.9 19.05C15.6515 19.3814 15.7186 19.8515 16.05 20.1L18.05 21.6C18.3662 21.8372 18.8122 21.7882 19.0694 21.4881L22.0694 17.9881Z" fill="#18202A"/>
</svg>
