<svg width="24" height="24" viewBox="0 0 24 24" fill="none" xmlns="http://www.w3.org/2000/svg">
<g clip-path="url(#clip0_3240_8952)">
<path d="M4.12443 16.6886L3.0461 17.7669C2.68567 17.2782 2.40882 16.7152 2.24216 16.0933L0.171612 8.36589C-0.543097 5.69856 1.03982 2.95687 3.70715 2.24216L11.4346 0.171612C13.9843 -0.511594 16.602 0.904735 17.4521 3.36086L16.2379 4.57507L16.1094 4.09537C15.6091 2.22824 13.6899 1.1202 11.8228 1.6205L4.09537 3.69105C2.22824 4.19135 1.1202 6.11053 1.6205 7.97766L3.69105 15.7051C3.78689 16.0627 3.9348 16.3926 4.12443 16.6886Z" fill="#18202A"/>
<path fill-rule="evenodd" clip-rule="evenodd" d="M22.779 2.28813L19.0453 6.02179L19.4429 6.05657C22.1938 6.29725 24.2287 8.72241 23.9881 11.4733L23.2908 19.4429C23.0502 22.1938 20.625 24.2288 17.8741 23.9881L9.90452 23.2908C7.73876 23.1014 6.01676 21.5579 5.49962 19.5675L2.28814 22.779C1.99347 23.0737 1.5157 23.0737 1.22102 22.779C0.926346 22.4843 0.926346 22.0065 1.22102 21.7119L21.7119 1.22101C22.0066 0.926331 22.4843 0.926331 22.779 1.22101C23.0737 1.51569 23.0737 1.99345 22.779 2.28813ZM10.8019 14.7301L9.09374 15.9734L11.6926 13.3745C12.8876 13.2798 13.8746 12.334 13.9825 11.1001L13.984 11.0832L17.6607 7.40639L19.3121 7.55087C21.2378 7.71934 22.6623 9.41695 22.4938 11.3426L21.9623 17.4177L18.245 12.9536L13.1752 16.6121L10.8019 14.7301ZM6.99862 19.3537L10.763 16.6136L13.1326 18.4926L17.9879 14.9889L21.7473 19.5038L21.7781 19.4781C21.5296 21.319 19.8747 22.6574 18.0048 22.4938L10.0353 21.7965C8.57908 21.6691 7.4095 20.6673 6.99862 19.3537Z" fill="#18202A"/>
<path d="M9.12487 11.6881L12.298 8.51501C12.1116 8.45173 11.9148 8.4096 11.71 8.39168C10.3345 8.27135 9.12191 9.28882 9.00158 10.6643C8.97028 11.022 9.01595 11.3688 9.12487 11.6881Z" fill="#18202A"/>
<path d="M7.55086 10.0353L7.24148 13.5715L5.59139 15.2216L6.05657 9.90452C6.29724 7.15361 8.72241 5.11865 11.4733 5.35933L15.1334 5.67955L13.7488 7.06414L11.3426 6.85362C9.41695 6.68515 7.71933 8.10962 7.55086 10.0353Z" fill="#18202A"/>
</g>
<defs>
<clipPath id="clip0_3240_8952">
<rect width="24" height="24" fill="white"/>
</clipPath>
</defs>
</svg>
