<svg width="24" height="24" viewBox="0 0 24 24" fill="none" xmlns="http://www.w3.org/2000/svg">
<path fill-rule="evenodd" clip-rule="evenodd" d="M10.4697 1.46967C10.7626 1.17678 11.2374 1.17678 11.5303 1.46967L14.5303 4.46967C14.8232 4.76256 14.8232 5.23744 14.5303 5.53033L11.5303 8.53033C11.2374 8.82322 10.7626 8.82322 10.4697 8.53033C10.1768 8.23744 10.1768 7.76256 10.4697 7.46967L12.1893 5.75H9C5.54822 5.75 2.75 8.54822 2.75 12C2.75 14.8862 4.70636 17.3155 7.36533 18.0341C7.7265 18.1317 8 18.4455 8 18.8197C8 19.2791 7.5946 19.6368 7.14834 19.5274C3.76225 18.6973 1.25 15.642 1.25 12C1.25 7.71979 4.71979 4.25 9 4.25H12.1893L10.4697 2.53033C10.1768 2.23744 10.1768 1.76256 10.4697 1.46967ZM11.8107 19.75L13.5303 21.4697C13.8232 21.7626 13.8232 22.2374 13.5303 22.5303C13.2374 22.8232 12.7626 22.8232 12.4697 22.5303L9.46967 19.5303C9.17678 19.2374 9.17678 18.7626 9.46967 18.4697L12.4697 15.4697C12.7626 15.1768 13.2374 15.1768 13.5303 15.4697C13.8232 15.7626 13.8232 16.2374 13.5303 16.5303L11.8107 18.25H15C18.4518 18.25 21.25 15.4518 21.25 12C21.25 9.1138 19.2936 6.68453 16.6347 5.96594C16.2735 5.86833 16 5.55447 16 5.18035C16 4.72087 16.4054 4.36319 16.8517 4.47259C20.2378 5.3027 22.75 8.35797 22.75 12C22.75 16.2802 19.2802 19.75 15 19.75H11.8107Z" fill="#18202A"/>
</svg>
