<svg width="24" height="24" viewBox="0 0 24 24" fill="none" xmlns="http://www.w3.org/2000/svg">
<path fill-rule="evenodd" clip-rule="evenodd" d="M3.70647 4.7736L2.22101 3.28813C1.92633 2.99345 1.92633 2.51569 2.22101 2.22101C2.51569 1.92633 2.99345 1.92633 3.28813 2.22101L21.779 20.7119C22.0737 21.0065 22.0737 21.4843 21.779 21.779C21.4843 22.0737 21.0065 22.0737 20.7119 21.779L19.2264 20.2935C17.2936 21.9791 14.766 23 12 23C5.92487 23 1 18.0751 1 12C1 9.234 2.02091 6.70645 3.70647 4.7736ZM18.1629 19.23C16.5039 20.6455 14.3517 21.5 12 21.5C6.75329 21.5 2.5 17.2467 2.5 12C2.5 9.64827 3.35453 7.49613 4.77002 5.83714L8.2585 9.32563L7.07722 9.50421C6.64653 9.56932 6.38137 9.88972 6.29088 10.1983C6.20063 10.5061 6.25261 10.8931 6.5337 11.1799L8.56609 13.2536L8.08251 16.1981C8.02191 16.5672 8.16888 16.9201 8.43678 17.1362C8.71056 17.3571 9.12383 17.4371 9.49875 17.2312L12 15.857L14.5013 17.2312C14.8762 17.4371 15.2894 17.3571 15.5632 17.1362C15.6571 17.0605 15.7362 16.9679 15.7966 16.8637L18.1629 19.23ZM14.2532 15.3204L9.57632 10.6434L8.29766 10.8368L10.1695 12.7466L9.73538 15.3897L12 14.1455L14.2646 15.3897L14.2532 15.3204ZM10.636 7.44899L11.7629 8.57587L12 8.07333L12.6608 9.47377L13.7251 10.538L15.7024 10.839L14.872 11.685L15.9327 12.7457L17.4658 11.1837C17.7471 10.8971 17.7993 10.5101 17.7093 10.2023C17.6191 9.8937 17.3543 9.57315 16.9237 9.50763L14.1351 9.08318L12.8735 6.40951C12.5215 5.6635 11.4785 5.6635 11.1265 6.40951L10.636 7.44899ZM21.5 12C21.5 13.8066 20.9957 15.4953 20.1203 16.9333L21.2076 18.0206C22.3409 16.2909 23 14.2224 23 12C23 5.92487 18.0751 1 12 1C9.77761 1 7.70915 1.65906 5.9794 2.79239L7.06673 3.87971C8.50466 3.00426 10.1934 2.5 12 2.5C17.2467 2.5 21.5 6.75329 21.5 12Z" fill="#18202A"/>
</svg>
