<svg width="24" height="24" viewBox="0 0 24 24" fill="none" xmlns="http://www.w3.org/2000/svg">
<path fill-rule="evenodd" clip-rule="evenodd" d="M23 11.6909C23 17.1736 18.6826 22 12.0102 22C10.9383 22 9.90216 21.8809 8.92267 21.649L6.19676 22.9071C5.56647 23.198 4.8388 22.774 4.78115 22.0822L4.57105 19.561C2.38822 17.7925 1.02045 15.1132 1.02045 11.6909C0.628009 5.96364 5.94074 1 12.0102 1C18.0797 1 23 5.2 23 11.6909ZM9 11.5C9 12.3284 8.32843 13 7.5 13C6.67157 13 6 12.3284 6 11.5C6 10.6716 6.67157 10 7.5 10C8.32843 10 9 10.6716 9 11.5ZM12 13C12.8284 13 13.5 12.3284 13.5 11.5C13.5 10.6716 12.8284 10 12 10C11.1716 10 10.5 10.6716 10.5 11.5C10.5 12.3284 11.1716 13 12 13ZM16.5 13C17.3284 13 18 12.3284 18 11.5C18 10.6716 17.3284 10 16.5 10C15.6716 10 15 10.6716 15 11.5C15 12.3284 15.6716 13 16.5 13Z" fill="#18202A"/>
</svg>
