<svg width="24" height="24" viewBox="0 0 24 24" fill="none" xmlns="http://www.w3.org/2000/svg">
<path fill-rule="evenodd" clip-rule="evenodd" d="M2.54711 10.8804C3.26176 9.8698 4.55178 8.2374 6.23981 6.87114C7.93808 5.4966 9.90292 4.5 12 4.5C14.0971 4.5 16.0619 5.4966 17.7602 6.87114C19.4482 8.2374 20.7382 9.8698 21.4529 10.8804C21.4831 10.9232 21.4935 10.9641 21.4935 11C21.4935 11.0359 21.4831 11.0768 21.4529 11.1196C20.7382 12.1302 19.4482 13.7626 17.7602 15.1289C16.0619 16.5034 14.0971 17.5 12 17.5C9.90292 17.5 7.93808 16.5034 6.23981 15.1289C4.55178 13.7626 3.26176 12.1302 2.5471 11.1196C2.51688 11.0768 2.50655 11.0359 2.50655 11C2.50655 10.9641 2.51688 10.9232 2.54711 10.8804ZM1.32237 11.9856C0.901269 11.3901 0.90127 10.6099 1.32238 10.0144C2.83469 7.87572 6.84749 3 12 3C17.1525 3 21.1653 7.87572 22.6776 10.0144C23.0987 10.6099 23.0987 11.3901 22.6776 11.9856C21.1653 14.1243 17.1525 19 12 19C6.84749 19 2.83469 14.1243 1.32237 11.9856ZM14.5 11C14.5 12.3807 13.3807 13.5 12 13.5C10.6193 13.5 9.5 12.3807 9.5 11C9.5 9.61929 10.6193 8.5 12 8.5C13.3807 8.5 14.5 9.61929 14.5 11ZM12 15C14.2091 15 16 13.2091 16 11C16 8.79086 14.2091 7 12 7C9.79086 7 8 8.79086 8 11C8 13.2091 9.79086 15 12 15ZM1.98014 17.4239C1.66193 17.1587 1.18901 17.2017 0.923838 17.5199C0.658665 17.8381 0.701658 18.311 1.01987 18.5762C7.298 23.808 16.702 23.808 22.9801 18.5762C23.2983 18.311 23.3413 17.8381 23.0762 17.5199C22.811 17.2017 22.3381 17.1587 22.0199 17.4239C16.298 22.1921 7.70201 22.1921 1.98014 17.4239Z" fill="#26282C"/>
</svg>
