<svg width="24" height="24" viewBox="0 0 24 24" fill="none" xmlns="http://www.w3.org/2000/svg">
<path fill-rule="evenodd" clip-rule="evenodd" d="M10.1213 3.07646L14.1213 4.07646C14.3439 4.13211 14.5 4.3321 14.5 4.56153V10.5H9.5V3.56153C9.5 3.23625 9.80569 2.99757 10.1213 3.07646ZM8 3.56153C8 2.26039 9.22278 1.30567 10.4851 1.62125L14.4851 2.62125C15.3754 2.84383 16 3.6438 16 4.56153V11C17.1046 11 18 11.8954 18 13V20C18 21.1046 17.1046 22 16 22H8C6.89543 22 6 21.1046 6 20V13C6 11.8954 6.89543 11 8 11V3.56153ZM8 12.5H16C16.2761 12.5 16.5 12.7239 16.5 13V20C16.5 20.2761 16.2761 20.5 16 20.5H8C7.72386 20.5 7.5 20.2761 7.5 20V13C7.5 12.7239 7.72386 12.5 8 12.5Z" fill="#26282C"/>
</svg>
