<svg width="24" height="24" viewBox="0 0 24 24" fill="none" xmlns="http://www.w3.org/2000/svg">
<path fill-rule="evenodd" clip-rule="evenodd" d="M12 11C14.6667 11 16 8.5 16 5.375C16 2.875 14.6667 1 12 1C9.33333 1 8 2.875 8 5.375C8 8.5 9.33333 11 12 11ZM12 13C12.9728 13 13.913 13.1389 14.8021 13.3979C13.1007 14.6749 12 16.7089 12 19C12 20.4693 12.4527 21.8329 13.2262 22.9589C12.821 22.9861 12.4121 23 12 23C10.4526 23 8.95082 22.8047 7.51793 22.4375C6.29889 22.1251 5.2657 21.3086 4.69986 20.1845C4.6842 20.1534 4.66863 20.1222 4.65317 20.091C3.87094 18.5114 4.13694 16.5761 5.47167 15.4248C7.22347 13.9137 9.50505 13 12 13ZM24 19C24 21.7614 21.7614 24 19 24C16.2386 24 14 21.7614 14 19C14 16.2386 16.2386 14 19 14C21.7614 14 24 16.2386 24 19ZM19 15.3C18.4405 15.3 17.9687 15.3384 17.6086 15.3833C16.7725 15.4874 16.25 16.2098 16.25 16.9614L16.25 17.1787C16.25 17.6456 16.4355 18.0933 16.7656 18.4234C17.0585 18.7163 17.5333 18.7163 17.8262 18.4234C18.1191 18.1306 18.1191 17.6557 17.8262 17.3628C17.7774 17.314 17.75 17.2478 17.75 17.1787L17.75 16.9614C17.75 16.9211 17.7636 16.8953 17.7732 16.8836C17.7778 16.878 17.7814 16.8757 17.783 16.8748C17.7838 16.8743 17.7856 16.8734 17.7892 16.8726C17.7905 16.8723 17.7921 16.872 17.7939 16.8718C18.0993 16.8338 18.5088 16.8 19 16.8C19.453 16.8 19.8365 16.8287 20.133 16.863C20.1632 16.8665 20.1855 16.8787 20.2057 16.903C20.2283 16.9304 20.25 16.9776 20.25 17.0415C20.25 17.416 20.0317 17.7561 19.6913 17.9122L19.1421 18.1639C18.5985 18.413 18.25 18.956 18.25 19.554C18.25 19.9682 18.5858 20.304 19 20.304C19.4142 20.304 19.75 19.9682 19.75 19.554C19.75 19.5426 19.7566 19.5322 19.767 19.5275L20.3162 19.2758C21.1899 18.8754 21.75 18.0026 21.75 17.0415C21.75 16.2438 21.1949 15.4758 20.3054 15.3729C19.9574 15.3327 19.5161 15.3 19 15.3ZM19 23C19.5523 23 20 22.5523 20 22C20 21.4477 19.5523 21 19 21C18.4477 21 18 21.4477 18 22C18 22.5523 18.4477 23 19 23Z" fill="#18202A"/>
</svg>
