<svg width="24" height="24" viewBox="0 0 24 24" fill="none" xmlns="http://www.w3.org/2000/svg">
<g clip-path="url(#clip0_3240_8914)">
<path d="M2.24216 16.0933C2.33954 16.4567 2.47454 16.8 2.64185 17.1201L4.17661 15.5853L4.17402 15.5757L2.10346 7.84825C1.67464 6.24785 2.62439 4.60284 4.22478 4.17402L11.9522 2.10346C13.5292 1.6809 15.1495 2.59693 15.6069 4.15505L17.1319 2.63001C16.0587 0.633038 13.7193 -0.440595 11.4346 0.171612L3.70715 2.24216C1.03982 2.95687 -0.543097 5.69856 0.171612 8.36589L2.24216 16.0933Z" fill="#18202A"/>
<path fill-rule="evenodd" clip-rule="evenodd" d="M5.57799 19.8375L2.77671 22.6388C2.33427 23.0812 1.65873 23.123 1.26786 22.7321C0.876987 22.3413 0.918793 21.6657 1.36124 21.2233L21.2233 1.36124C21.6657 0.918793 22.3413 0.876986 22.7321 1.26786C23.123 1.65873 23.0812 2.33427 22.6388 2.77671L19.3656 6.0499L19.4429 6.05666C22.1938 6.29734 24.2287 8.7225 23.9881 11.4734L23.2908 19.443C23.0502 22.1939 20.625 24.2288 17.8741 23.9882L9.90452 23.2909C7.83772 23.1101 6.17506 21.6962 5.57799 19.8375ZM7.3503 18.0652L11.2695 14.146L13.5024 15.9167L18.608 12.2324L21.5997 15.8252L21.3523 18.6535L18.2652 14.9461L13.4456 18.4241L11.0767 16.5456L7.46642 19.1734C7.36141 18.8243 7.31874 18.4502 7.3503 18.0652ZM14.2116 11.2039C13.9709 12.0279 13.3222 12.6632 12.5156 12.8998L14.2116 11.2039Z" fill="#18202A"/>
<path d="M5.69217 14.0697L9.31262 10.4493C9.3138 10.3939 9.31681 10.3382 9.32171 10.2823C9.43414 8.99714 10.5001 8.02452 11.7614 8.00046L14.1668 5.59507L11.4733 5.35942C8.72241 5.11874 6.29724 7.1537 6.05657 9.90461L5.69217 14.0697Z" fill="#18202A"/>
</g>
<defs>
<clipPath id="clip0_3240_8914">
<rect width="24" height="24" fill="white"/>
</clipPath>
</defs>
</svg>
