<svg width="24" height="23" viewBox="0 0 24 23" fill="none" xmlns="http://www.w3.org/2000/svg">
<path d="M13.8535 7.15136C13.5385 6.83637 13 7.05946 13 7.50491V9.15426C11.6434 9.18601 10.1891 9.48469 9.04724 10.3659C7.82265 11.311 6.99998 12.8923 6.99998 15.4014C6.99998 15.5142 7.07554 15.613 7.18441 15.6426C7.29327 15.6722 7.40847 15.6252 7.46558 15.5279C8.13724 14.3836 8.67056 13.6869 9.46812 13.2592C10.236 12.8474 11.2811 12.6679 13 12.6525V14.2978C13 14.7433 13.5385 14.9663 13.8535 14.6514L17.25 11.2549C17.4452 11.0596 17.4452 10.7431 17.25 10.5478L13.8535 7.15136Z" fill="#18202A"/>
<path fill-rule="evenodd" clip-rule="evenodd" d="M1 7.00391C1 5.34705 2.34315 4.00391 4 4.00391H20C21.6569 4.00391 23 5.34705 23 7.00391V15.5C23 17.1569 21.6569 18.5 20 18.5H23.25C23.6642 18.5 24 18.8358 24 19.25C24 19.6642 23.6642 20 23.25 20H0.75C0.335786 20 0 19.6642 0 19.25C0 18.8358 0.335786 18.5 0.75 18.5H4C2.34315 18.5 1 17.1569 1 15.5V7.00391ZM2.5 7.00391C2.5 6.17548 3.17157 5.50391 4 5.50391H20C20.8284 5.50391 21.5 6.17548 21.5 7.00391V15.5C21.5 16.3284 20.8284 17 20 17H4C3.17157 17 2.5 16.3284 2.5 15.5V7.00391Z" fill="#18202A"/>
</svg>
