<svg width="24" height="24" viewBox="0 0 24 24" fill="none" xmlns="http://www.w3.org/2000/svg">
<path d="M15.6061 15.5146L15.5948 15.5259C15.5404 15.5803 15.4962 15.6245 15.4555 15.6635C13.5225 17.5117 10.4775 17.5117 8.54455 15.6635C8.50374 15.6244 8.4596 15.5803 8.40499 15.5257L8.3539 15.4746L8.34583 15.4667C8.15262 15.2822 7.84798 15.2817 7.65477 15.4661L7.64612 15.4746L7.28288 15.8378C6.95634 16.1644 6.68214 16.4386 6.45835 16.6466C6.24599 16.844 5.98019 17.0776 5.6766 17.2432C4.45404 17.9104 3.04196 17.7668 2 17.0441V20.499C2 21.3274 2.67157 21.999 3.5 21.999H20.5C21.3284 21.999 22 21.3274 22 20.499V17.0441C20.958 17.7668 19.546 17.9104 18.3234 17.2432C18.0198 17.0776 17.754 16.844 17.5417 16.6466C17.3179 16.4386 17.0437 16.1644 16.7172 15.8379L16.3964 15.517L16.3937 15.5144L16.3539 15.4746L16.3452 15.4661C16.152 15.2817 15.848 15.2817 15.6548 15.4661L15.6461 15.4746L15.6061 15.5146Z" fill="#18202A"/>
<path d="M17.0161 7.99933H6.9839C6.06958 7.99933 5.61242 7.99933 5.23204 8.07374C3.63525 8.38612 2.38679 9.63458 2.07441 11.2314C2 11.6117 2 12.0713 2 12.9905C2 13.9693 2 14.4587 2.08116 14.7349C2.4408 15.9585 3.83849 16.5375 4.95805 15.9265C5.2107 15.7886 5.55468 15.4446 6.24264 14.7567L6.54545 14.4539C6.5829 14.4164 6.60163 14.3977 6.61782 14.3822C7.39099 13.6429 8.60901 13.6429 9.38218 14.3822C9.39837 14.3977 9.4171 14.4164 9.45455 14.4539C9.52008 14.5194 9.55284 14.5522 9.58118 14.5793C10.9342 15.873 13.0658 15.873 14.4188 14.5793C14.4471 14.5522 14.48 14.5194 14.5455 14.4539C14.5829 14.4164 14.6016 14.3977 14.6178 14.3822C15.391 13.6429 16.609 13.6429 17.3822 14.3822C17.3984 14.3977 17.4172 14.4165 17.4545 14.4539L17.7574 14.7567C18.4453 15.4446 18.7893 15.7886 19.0419 15.9265C20.1615 16.5375 21.5592 15.9585 21.9188 14.7349C22 14.4587 22 13.9693 22 12.9905C22 12.0713 22 11.6117 21.9256 11.2314C21.6132 9.63458 20.3647 8.38612 18.768 8.07374C18.3876 7.99933 17.9304 7.99933 17.0161 7.99933Z" fill="#18202A"/>
<path d="M10.5858 6.4067C9.80474 5.62565 9.80474 4.35932 10.5858 3.57828L12 2.16406L13.4142 3.57828C14.1953 4.35932 14.1953 5.62565 13.4142 6.4067C12.6332 7.18775 11.3668 7.18775 10.5858 6.4067Z" fill="#18202A"/>
</svg>
