<svg width="24" height="24" viewBox="0 0 24 24" fill="none" xmlns="http://www.w3.org/2000/svg">
<path fill-rule="evenodd" clip-rule="evenodd" d="M20.0882 16.9864C19.1193 17.3193 18.0801 17.5001 17 17.5001C11.7533 17.5001 7.5 13.2468 7.5 8.00008C7.5 6.17124 8.01773 4.46196 8.9134 3.01242C5.18227 4.29347 2.5 7.83418 2.5 12.0001C2.5 17.2468 6.75329 21.5001 12 21.5001C15.4165 21.5001 18.4141 19.6959 20.0882 16.9864ZM21.0493 14.901C19.8616 15.5995 18.4776 16.0001 17 16.0001C12.5817 16.0001 9 12.4184 9 8.00008C9 5.78408 9.90099 3.77853 11.3566 2.32977C11.8025 1.88602 11.547 1.02198 10.9187 1.05255C5.35109 1.59577 1 6.2898 1 12.0001C1 18.0752 5.92487 23.0001 12 23.0001C16.7055 23.0001 20.7209 20.0456 22.2923 15.8904C22.2924 15.8899 22.2926 15.8894 22.2928 15.8889C22.2989 15.8729 22.3049 15.8568 22.3109 15.8407C22.3849 15.6421 22.4534 15.4408 22.516 15.237C22.6881 14.6772 21.9706 14.2961 21.486 14.6249C21.3843 14.6939 21.281 14.7606 21.176 14.825C21.1368 14.849 21.0975 14.8727 21.0578 14.896C21.055 14.8977 21.0522 14.8994 21.0493 14.901Z" fill="#18202A"/>
</svg>
