<svg width="24" height="24" viewBox="0 0 24 24" fill="none" xmlns="http://www.w3.org/2000/svg">
<path fill-rule="evenodd" clip-rule="evenodd" d="M12 2.25C7.50095 2.25 4.25 6.11747 4.25 10.6C4.25 12.6545 4.81397 15.0806 5.3479 17.2904C5.52431 18.0205 5.98838 18.7141 6.52241 19.3157C7.06621 19.9284 7.73523 20.5043 8.40638 20.9973C9.07859 21.4911 9.7712 21.9152 10.3733 22.2194C10.674 22.3713 10.9619 22.4983 11.2206 22.5891C11.4623 22.674 11.7406 22.75 12 22.75C12.2594 22.75 12.5377 22.674 12.7794 22.5891C13.0381 22.4983 13.326 22.3713 13.6267 22.2194C14.2288 21.9152 14.9214 21.4911 15.5936 20.9973C16.2648 20.5043 16.9338 19.9284 17.4776 19.3157C18.0116 18.7141 18.4757 18.0205 18.6521 17.2904C19.186 15.0806 19.75 12.6545 19.75 10.6C19.75 6.11747 16.4991 2.25 12 2.25ZM5.75 10.6C5.75 6.79826 8.46968 3.75 12 3.75C15.5303 3.75 18.25 6.79826 18.25 10.6C18.25 11.6077 18.0967 12.736 17.8691 13.9191C17.2419 14.0566 16.6667 14.2764 16.1467 14.573L17.1151 15.7564C17.2435 15.6929 17.3766 15.6351 17.5147 15.583C17.4117 16.0325 17.3035 16.4853 17.1941 16.9381C17.1012 17.3223 16.8203 17.7966 16.3558 18.32C15.901 18.8323 15.3179 19.3386 14.7056 19.7884C14.6067 19.861 14.5076 19.9318 14.4087 20.0006C14.4458 19.7812 14.4893 19.5689 14.539 19.3638L13.1642 18.6914C12.968 19.3973 12.8437 20.158 12.7872 20.9608C12.5941 21.053 12.4241 21.1241 12.2826 21.1738C12.1928 21.2053 12.1213 21.2258 12.0676 21.2378C12.0279 21.2468 12.0064 21.2492 12 21.2498C11.9936 21.2492 11.9721 21.2468 11.9324 21.2378C11.8787 21.2258 11.8072 21.2053 11.7174 21.1738C11.5763 21.1243 11.4069 21.0534 11.2144 20.9615C11.157 20.1456 11.0297 19.3731 10.8278 18.6574L9.45412 19.3294C9.50749 19.5455 9.55386 19.7697 9.59307 20.0018C9.49355 19.9326 9.39385 19.8615 9.29443 19.7884C8.68211 19.3386 8.09901 18.8323 7.64424 18.32C7.1797 17.7966 6.89877 17.3223 6.80595 16.9381C6.69648 16.4851 6.58824 16.0321 6.48518 15.5823C6.60397 15.6271 6.71914 15.6761 6.83076 15.7293L7.80157 14.543C7.29515 14.2613 6.73728 14.0515 6.13086 13.9187C5.90323 12.7358 5.75 11.6076 5.75 10.6ZM9.59657 16.1078C9.86311 16.4576 10.0957 16.8389 10.2956 17.2479L8.94793 17.9071C8.78846 17.5806 8.60656 17.2834 8.40343 17.0168C8.2933 16.8723 8.17594 16.7354 8.05112 16.6066L9.00588 15.4398C9.21688 15.6451 9.4139 15.868 9.59657 16.1078ZM15.9085 16.6505C15.7992 16.7664 15.6958 16.8886 15.5981 17.0168C15.3886 17.2919 15.2016 17.5995 15.0385 17.9383L13.6908 17.2791C13.8941 16.8582 14.1317 16.4665 14.405 16.1078C14.5752 15.8844 14.7578 15.6757 14.9525 15.4823L15.9085 16.6505ZM1.96967 17.9697C2.26256 17.6768 2.73744 17.6768 3.03033 17.9697L5.03033 19.9697C5.32322 20.2626 5.32322 20.7374 5.03033 21.0303L3.03033 23.0303C2.73744 23.3232 2.26256 23.3232 1.96967 23.0303C1.67678 22.7374 1.67678 22.2626 1.96967 21.9697L3.43934 20.5L1.96967 19.0303C1.67678 18.7374 1.67678 18.2626 1.96967 17.9697ZM20.9697 17.9697C21.2626 17.6768 21.7374 17.6768 22.0303 17.9697C22.3232 18.2626 22.3232 18.7374 22.0303 19.0303L20.5607 20.5L22.0303 21.9697C22.3232 22.2626 22.3232 22.7374 22.0303 23.0303C21.7374 23.3232 21.2626 23.3232 20.9697 23.0303L18.9697 21.0303C18.6768 20.7374 18.6768 20.2626 18.9697 19.9697L20.9697 17.9697Z" fill="#26282C"/>
</svg>
