<svg width="24" height="24" viewBox="0 0 24 24" fill="none" xmlns="http://www.w3.org/2000/svg">
<path d="M19.0729 7.13352L15.9606 12.8392L17.0662 13.9448L20.1784 8.2391L20.4697 8.53033C20.7626 8.82322 21.2374 8.82322 21.5303 8.53033C21.8232 8.23744 21.8232 7.76256 21.5303 7.46967L20.5426 6.48195C20.5348 6.47376 20.5267 6.46572 20.5185 6.45785L17.5422 3.48151C17.5343 3.47326 17.5262 3.46521 17.518 3.45737L16.5303 2.46967C16.2374 2.17678 15.7626 2.17678 15.4697 2.46967C15.1768 2.76256 15.1768 3.23744 15.4697 3.53033L15.7609 3.82156L10.0552 6.93377L11.1608 8.03935L16.8665 4.92714L19.0729 7.13352Z" fill="#18202A"/>
<path fill-rule="evenodd" clip-rule="evenodd" d="M4.26069 4.32135C4.55358 4.02845 5.02845 4.02845 5.32135 4.32135L19.6492 18.6492C19.9421 18.9421 19.9421 19.417 19.6492 19.7099C19.3563 20.0028 18.8814 20.0028 18.5886 19.7099L15.5688 16.6901L14.6584 18.3591C14.6304 18.4105 14.5972 18.4573 14.5599 18.4993L15.5303 19.4697C15.8232 19.7626 15.8232 20.2374 15.5303 20.5303C15.2374 20.8232 14.7626 20.8232 14.4697 20.5303L9.5 15.5607L4.53033 20.5303C4.23744 20.8232 3.76256 20.8232 3.46967 20.5303C3.17678 20.2374 3.17678 19.7626 3.46967 19.4697L8.43934 14.5L3.46967 9.53033C3.17678 9.23744 3.17678 8.76256 3.46967 8.46967C3.76256 8.17678 4.23744 8.17678 4.53033 8.46967L5.50075 9.44009C5.54267 9.40277 5.58947 9.36961 5.64086 9.34158L7.30988 8.4312L4.26069 5.38201C3.96779 5.08911 3.96779 4.61424 4.26069 4.32135ZM6.59204 10.5314L8.41547 9.53679L14.4632 15.5845L13.4686 17.408L6.59204 10.5314Z" fill="#18202A"/>
</svg>
