<svg width="24" height="24" viewBox="0 0 24 24" fill="none" xmlns="http://www.w3.org/2000/svg">
<path fill-rule="evenodd" clip-rule="evenodd" d="M9.53033 18.5303C9.82322 18.2374 9.82322 17.7626 9.53033 17.4697C9.23744 17.1768 8.76256 17.1768 8.46967 17.4697L6.75 19.1893L6.75 4.81066L8.46967 6.53033C8.76256 6.82322 9.23744 6.82322 9.53033 6.53033C9.82322 6.23744 9.82322 5.76256 9.53033 5.46967L6.53033 2.46967C6.23744 2.17678 5.76256 2.17678 5.46967 2.46967L2.46967 5.46967C2.17678 5.76256 2.17678 6.23744 2.46967 6.53033C2.76256 6.82322 3.23744 6.82322 3.53033 6.53033L5.25 4.81066L5.25 19.1893L3.53033 17.4697C3.23744 17.1768 2.76256 17.1768 2.46967 17.4697C2.17678 17.7626 2.17678 18.2374 2.46967 18.5303L5.46967 21.5303C5.76256 21.8232 6.23744 21.8232 6.53033 21.5303L9.53033 18.5303ZM12.75 6C12.3358 6 12 6.33579 12 6.75C12 7.16421 12.3358 7.5 12.75 7.5H21.25C21.6642 7.5 22 7.16421 22 6.75C22 6.33579 21.6642 6 21.25 6H12.75ZM12.75 9.5C12.3358 9.5 12 9.83579 12 10.25C12 10.6642 12.3358 11 12.75 11H21.25C21.6642 11 22 10.6642 22 10.25C22 9.83579 21.6642 9.5 21.25 9.5H12.75ZM12 13.75C12 13.3358 12.3358 13 12.75 13H21.25C21.6642 13 22 13.3358 22 13.75C22 14.1642 21.6642 14.5 21.25 14.5H12.75C12.3358 14.5 12 14.1642 12 13.75ZM12.75 16.5C12.3358 16.5 12 16.8358 12 17.25C12 17.6642 12.3358 18 12.75 18H21.25C21.6642 18 22 17.6642 22 17.25C22 16.8358 21.6642 16.5 21.25 16.5H12.75Z" fill="#18202A"/>
</svg>
