<svg width="24" height="24" viewBox="0 0 24 24" fill="none" xmlns="http://www.w3.org/2000/svg">
<g clip-path="url(#clip0_3900_9006)">
<path d="M18.2986 9.98864C18.2986 11.4091 17.6991 12.5455 16.5 12.5455C15.3009 12.5455 14.7013 11.4091 14.7013 9.98864C14.7013 8.85227 15.3009 8 16.5 8C17.6991 8 18.2986 8.85227 18.2986 9.98864Z" fill="#18202A"/>
<path d="M13.9581 14.25C13.8212 14.345 13.6898 14.4474 13.5644 14.5567C13.2762 14.8081 13.0988 15.1416 13.0312 15.5C12.9581 15.8878 13.0136 16.3046 13.1964 16.6777L13.2174 16.7202C13.4718 17.2312 13.9364 17.6023 14.4846 17.7443C15.1289 17.9112 15.8042 18 16.5 18C17.1958 18 17.8711 17.9112 18.5154 17.7443C19.0636 17.6023 19.5282 17.2312 19.7826 16.7202L19.7933 16.6988L19.8036 16.6777C20.114 16.044 20.0573 15.2844 19.6272 14.755C19.5699 14.6846 19.5061 14.6182 19.4356 14.5567C19.1842 14.3375 18.9086 14.146 18.6134 13.9868C17.9833 13.6471 17.2639 13.4545 16.5 13.4545C15.5567 13.4545 14.6811 13.7482 13.9581 14.25Z" fill="#18202A"/>
<path fill-rule="evenodd" clip-rule="evenodd" d="M5 3C2.79086 3 1 4.79086 1 7V17C1 19.2091 2.79086 21 5 21H19C21.2091 21 23 19.2091 23 17V9C23 6.79086 21.2091 5 19 5H12L10.8787 3.87868C10.3161 3.31607 9.55301 3 8.75736 3H5ZM21.5 9C21.5 7.61929 20.3807 6.5 19 6.5H11.3787L9.81802 4.93934C9.53671 4.65804 9.15518 4.5 8.75736 4.5H5C3.61929 4.5 2.5 5.61929 2.5 7V17C2.5 18.3807 3.61929 19.5 5 19.5H19C20.3807 19.5 21.5 18.3807 21.5 17V9Z" fill="#18202A"/>
</g>
<defs>
<clipPath id="clip0_3900_9006">
<rect width="24" height="24" fill="white"/>
</clipPath>
</defs>
</svg>
