<svg width="24" height="24" viewBox="0 0 24 24" fill="none" xmlns="http://www.w3.org/2000/svg">
<path fill-rule="evenodd" clip-rule="evenodd" d="M12 23C18.0751 23 23 18.0751 23 12C23 5.92487 18.0751 1 12 1C5.92487 1 1 5.92487 1 12C1 18.0751 5.92487 23 12 23ZM16.7241 9.68966C17.105 9.28973 17.0896 8.65675 16.6896 8.27586C16.2897 7.89498 15.6567 7.91042 15.2758 8.31035L10.3248 13.509L8.75924 11.6825C8.39982 11.2632 7.76852 11.2147 7.3492 11.5741C6.92987 11.9335 6.88131 12.5648 7.24073 12.9841L9.52645 15.6508C9.71048 15.8655 9.97682 15.9923 10.2595 15.9997C10.5422 16.0071 10.8148 15.8944 11.0098 15.6897L16.7241 9.68966Z" fill="#18202A"/>
</svg>
