<svg width="24" height="24" viewBox="0 0 24 24" fill="none" xmlns="http://www.w3.org/2000/svg">
<path d="M5.5 15.3155L4.85375 15.7184L5.34103 13.2747H3.09091C2.27855 13.2747 1.5 12.563 1.5 11.5336V4.2411C1.5 3.21165 2.27855 2.5 3.09091 2.5H13.9091C14.7214 2.5 15.5 3.21165 15.5 4.2411V4.5H17V4.2411C17 2.45109 15.6162 1 13.9091 1H3.09091C1.38385 1 0 2.45109 0 4.2411V11.5336C0 12.9298 0.841953 14.1198 2.02252 14.5758C2.35548 14.7045 2.71537 14.7747 3.09091 14.7747H3.5124L3.06436 17.0216C2.9267 17.7119 3.63754 18.2444 4.21565 17.8839L5.5 17.0831V15.3155Z" fill="#18202A"/>
<path fill-rule="evenodd" clip-rule="evenodd" d="M21.9775 19.5758C23.158 19.1198 24 17.9298 24 16.5336V9.2411C24 7.45109 22.6162 6 20.9091 6H10.0909C8.38385 6 7 7.45109 7 9.2411V16.5336C7 18.3236 8.38385 19.7747 10.0909 19.7747H14.7975L19.7844 22.8839C20.3625 23.2444 21.0733 22.7119 20.9356 22.0216L20.4876 19.7747H20.9091C21.2846 19.7747 21.6445 19.7045 21.9775 19.5758ZM15.2268 18.2747L19.1462 20.7184L18.659 18.2747H20.9091C21.7215 18.2747 22.5 17.563 22.5 16.5336V9.2411C22.5 8.21165 21.7215 7.5 20.9091 7.5H10.0909C9.27855 7.5 8.5 8.21165 8.5 9.2411V16.5336C8.5 17.563 9.27855 18.2747 10.0909 18.2747H15.2268Z" fill="#18202A"/>
</svg>
