<svg width="24" height="24" viewBox="0 0 24 24" fill="none" xmlns="http://www.w3.org/2000/svg">
<path fill-rule="evenodd" clip-rule="evenodd" d="M10.4351 2.12173C10.3494 1.57614 10.7223 1.05963 11.2734 1.02365C11.5137 1.00796 11.756 1 12 1C18.0751 1 23 5.92487 23 12C23 12.244 22.992 12.4863 22.9764 12.7266C22.9404 13.2777 22.4239 13.6506 21.8783 13.5649C21.3327 13.4791 20.9656 12.9669 20.9906 12.4152C20.9968 12.2776 21 12.1392 21 12C21 7.02944 16.9706 3 12 3C11.8608 3 11.7224 3.00315 11.5848 3.00939C11.0331 3.03439 10.5209 2.66731 10.4351 2.12173ZM5.70666 4.22823C5.35884 3.79923 5.42237 3.16526 5.88109 2.85769C6.28292 2.58826 6.7036 2.34456 7.14077 2.12898C7.6361 1.88472 8.21714 2.14619 8.41518 2.66175C8.61322 3.1773 8.35248 3.75093 7.86223 4.00524C7.61686 4.13252 7.37805 4.2708 7.14644 4.41943C6.68163 4.71771 6.05448 4.65722 5.70666 4.22823ZM2.66175 8.41518C2.14619 8.21714 1.88472 7.6361 2.12898 7.14077C2.34456 6.7036 2.58826 6.28292 2.85769 5.88109C3.16526 5.42237 3.79923 5.35884 4.22823 5.70666C4.65722 6.05448 4.71771 6.68163 4.41943 7.14644C4.27079 7.37805 4.13252 7.61686 4.00524 7.86223C3.75093 8.35249 3.1773 8.61322 2.66175 8.41518ZM1 12C1 11.756 1.00796 11.5137 1.02365 11.2734C1.05963 10.7223 1.57614 10.3494 2.12173 10.4351C2.66731 10.5209 3.03439 11.0331 3.00939 11.5848C3.00315 11.7224 3 11.8608 3 12C3 12.1392 3.00315 12.2776 3.00939 12.4152C3.03439 12.9669 2.66731 13.4791 2.12173 13.5649C1.57614 13.6506 1.05963 13.2777 1.02365 12.7266C1.00796 12.4863 1 12.244 1 12ZM21.3383 15.5848C21.8538 15.7829 22.1153 16.3639 21.871 16.8592C21.6554 17.2964 21.4117 17.7171 21.1423 18.1189C20.8347 18.5776 20.2008 18.6412 19.7718 18.2933C19.3428 17.9455 19.2823 17.3184 19.5806 16.8536C19.7292 16.622 19.8675 16.3831 19.9948 16.1378C20.2491 15.6475 20.8227 15.3868 21.3383 15.5848ZM4.22823 18.2933C3.79923 18.6412 3.16526 18.5776 2.85769 18.1189C2.58826 17.7171 2.34456 17.2964 2.12898 16.8592C1.88472 16.3639 2.14619 15.7829 2.66175 15.5848C3.1773 15.3868 3.75093 15.6475 4.00524 16.1378C4.13252 16.3831 4.27079 16.622 4.41943 16.8536C4.71771 17.3184 4.65723 17.9455 4.22823 18.2933ZM8.41518 21.3383C8.21714 21.8538 7.6361 22.1153 7.14077 21.871C6.7036 21.6554 6.28292 21.4117 5.88109 21.1423C5.42237 20.8347 5.35884 20.2008 5.70666 19.7718C6.05448 19.3428 6.68163 19.2823 7.14644 19.5806C7.37805 19.7292 7.61686 19.8675 7.86224 19.9948C8.35249 20.2491 8.61322 20.8227 8.41518 21.3383ZM18.2933 19.7718C18.6412 20.2008 18.5776 20.8347 18.1189 21.1423C17.7171 21.4117 17.2964 21.6554 16.8592 21.871C16.3639 22.1153 15.7829 21.8538 15.5848 21.3383C15.3868 20.8227 15.6475 20.2491 16.1378 19.9948C16.3831 19.8675 16.622 19.7292 16.8536 19.5806C17.3184 19.2823 17.9455 19.3428 18.2933 19.7718ZM13.5649 21.8783C13.6506 22.4239 13.2777 22.9404 12.7266 22.9764C12.4863 22.992 12.244 23 12 23C11.756 23 11.5137 22.992 11.2734 22.9764C10.7223 22.9404 10.3494 22.4239 10.4351 21.8783C10.5209 21.3327 11.0331 20.9656 11.5848 20.9906C11.7224 20.9968 11.8608 21 12 21C12.1392 21 12.2776 20.9968 12.4152 20.9906C12.9669 20.9656 13.4791 21.3327 13.5649 21.8783ZM19 12C19 15.866 15.866 19 12 19C8.13401 19 5 15.866 5 12C5 8.13401 8.13401 5 12 5C15.866 5 19 8.13401 19 12ZM12 9.5C12 10.3284 11.3284 11 10.5 11C9.67157 11 9 10.3284 9 9.5C9 8.67157 9.67157 8 10.5 8C11.3284 8 12 8.67157 12 9.5ZM9 12.5L7.76561 14.6602C8.65059 16.0659 10.2162 17 12 17C14.6021 17 16.7399 15.0123 16.978 12.4725L15 10L11.5 14L9 12.5Z" fill="#18202A"/>
</svg>
