<svg width="24" height="24" viewBox="0 0 24 24" fill="none" xmlns="http://www.w3.org/2000/svg">
<path fill-rule="evenodd" clip-rule="evenodd" d="M11.75 2C11.3358 2 11 2.33579 11 2.75V5H5C3.34315 5 2 6.34315 2 8V16C2 17.6569 3.34315 19 5 19H11V21.25C11 21.6642 11.3358 22 11.75 22C12.1642 22 12.5 21.6642 12.5 21.25V2.75C12.5 2.33579 12.1642 2 11.75 2ZM11 17.5V6.5H5C4.17157 6.5 3.5 7.17157 3.5 8V16C3.5 16.8284 4.17157 17.5 5 17.5H11ZM13.5 5H15V6.5H13.5V5ZM18 5H16.5V6.5H18V5ZM18 17.5H16.5V19H18V17.5ZM19.5 17.4146V18.9585C20.7563 18.7478 21.7478 17.7563 21.9585 16.5H20.4146C20.264 16.9262 19.9262 17.264 19.5 17.4146ZM22 15H20.5V13H22V15ZM20.5 11H22V9H20.5V11ZM19.5 6.58535V5.04148C20.7563 5.25224 21.7478 6.24375 21.9585 7.5H20.4146C20.264 7.07379 19.9262 6.736 19.5 6.58535ZM15 17.5H13.5V19H15V17.5Z" fill="#26282C"/>
</svg>
