<svg width="24" height="24" viewBox="0 0 24 24" fill="none" xmlns="http://www.w3.org/2000/svg">
<path fill-rule="evenodd" clip-rule="evenodd" d="M5 16.9999L10.8134 22.3133C12.4177 23.7797 15 22.6415 15 20.468V3.53203C15 1.35852 12.4178 0.22032 10.8134 1.68665L5 6.99988H3C1.34315 6.99988 0 8.34302 0 9.99988V13.9999C0 15.6567 1.34315 16.9999 3 16.9999H5ZM5.58223 15.4999L11.8253 21.2061C12.4671 21.7927 13.5 21.3374 13.5 20.468V3.53203C13.5 2.66262 12.4671 2.20735 11.8254 2.79388L5.5822 8.49988H5.5V15.4999H5.58223ZM4 15.4999V8.49988H3C2.17157 8.49988 1.5 9.17145 1.5 9.99988V13.9999C1.5 14.8283 2.17157 15.4999 3 15.4999H4Z" fill="#18202A"/>
<path d="M21.6251 7.62827C21.4306 7.26254 20.9765 7.1237 20.6108 7.31816C20.2451 7.51263 20.1062 7.96675 20.3007 8.33248C20.9169 9.49135 21.2489 10.8476 21.2489 12.2402C21.2489 13.6329 20.9169 14.9891 20.3007 16.148C20.1062 16.5137 20.2451 16.9678 20.6108 17.1623C20.9765 17.3568 21.4306 17.2179 21.6251 16.8522C22.3621 15.4661 22.7489 13.8664 22.7489 12.2402C22.7489 10.614 22.3621 9.01433 21.6251 7.62827Z" fill="#18202A"/>
<path d="M18.6831 9.22316C18.4508 8.88016 17.9845 8.79036 17.6415 9.02258C17.2985 9.2548 17.2087 9.7211 17.441 10.0641C17.857 10.6786 18.0939 11.4633 18.0939 12.2865C18.0939 13.1098 17.857 13.8945 17.441 14.509C17.2087 14.852 17.2985 15.3183 17.6415 15.5505C17.9845 15.7827 18.4508 15.6929 18.6831 15.3499C19.2786 14.4702 19.5939 13.3885 19.5939 12.2865C19.5939 11.1846 19.2786 10.1028 18.6831 9.22316Z" fill="#18202A"/>
</svg>
