<svg width="24" height="24" viewBox="0 0 24 24" fill="none" xmlns="http://www.w3.org/2000/svg">
<path fill-rule="evenodd" clip-rule="evenodd" d="M15 22C16.6569 22 18 20.6569 18 19C18 17.3431 16.6569 16 15 16C13.3431 16 12 17.3431 12 19C12 20.6569 13.3431 22 15 22Z" fill="#18202A"/>
<path fill-rule="evenodd" clip-rule="evenodd" d="M15 8C16.6569 8 18 6.65685 18 5C18 3.34315 16.6569 2 15 2C13.3431 2 12 3.34315 12 5C12 6.65685 13.3431 8 15 8Z" fill="#18202A"/>
<path fill-rule="evenodd" clip-rule="evenodd" d="M9 15C10.6569 15 12 13.6569 12 12C12 10.3431 10.6569 9 9 9C7.34315 9 6 10.3431 6 12C6 13.6569 7.34315 15 9 15Z" fill="#18202A"/>
<path d="M1 19C1 18.4477 1.44772 18 2 18H10C10.5523 18 11 18.4477 11 19C11 19.5523 10.5523 20 10 20H2C1.44772 20 1 19.5523 1 19Z" fill="#18202A"/>
<path d="M1 5C1 4.44772 1.44772 4 2 4H10C10.5523 4 11 4.44772 11 5C11 5.55228 10.5523 6 10 6H2C1.44772 6 1 5.55228 1 5Z" fill="#18202A"/>
<path d="M13 12C13 11.4477 13.4477 11 14 11H22C22.5523 11 23 11.4477 23 12C23 12.5523 22.5523 13 22 13H14C13.4477 13 13 12.5523 13 12Z" fill="#18202A"/>
<path d="M19 19C19 18.4477 19.4477 18 20 18H22C22.5523 18 23 18.4477 23 19C23 19.5523 22.5523 20 22 20H20C19.4477 20 19 19.5523 19 19Z" fill="#18202A"/>
<path d="M19 5C19 4.44772 19.4477 4 20 4H22C22.5523 4 23 4.44772 23 5C23 5.55228 22.5523 6 22 6H20C19.4477 6 19 5.55228 19 5Z" fill="#18202A"/>
<path d="M1 12C1 11.4477 1.44772 11 2 11H4C4.55228 11 5 11.4477 5 12C5 12.5523 4.55228 13 4 13H2C1.44772 13 1 12.5523 1 12Z" fill="#18202A"/>
</svg>
