<svg width="24" height="24" viewBox="0 0 24 24" fill="none" xmlns="http://www.w3.org/2000/svg">
<path d="M11.6251 1.05486C11.8206 0.996342 12.0271 0.984638 12.227 1.01975L12.3754 1.05486L22.1163 3.98482C22.6419 4.14324 23.0005 4.61219 23 5.14266C23 18.1167 16.1948 21.2182 12.5379 22.8837C12.3679 22.9612 12.1843 23 12.0003 23C11.8162 23 11.6321 22.9612 11.4616 22.8837L10.932 22.6411C7.18693 20.9079 1 17.5133 1 5.14266C1 4.65595 1.30132 4.22134 1.75636 4.03064L1.88416 3.98482L11.6251 1.05486ZM12.001 2.508L2.501 5.365L2.50348 5.64196C2.57525 10.7548 3.75578 14.4279 5.81295 17.0466L6.01476 17.2967C7.52238 19.1165 9.00444 20.0903 11.7062 21.3452L11.999 21.48L12.2923 21.3457L13.0338 20.9932C15.1649 19.9526 16.4841 19.0394 17.7796 17.54L17.9852 17.2969C20.1669 14.6635 21.4224 10.9198 21.4965 5.64067L21.498 5.365L12.001 2.508Z" fill="#18202A"/>
<path fill-rule="evenodd" clip-rule="evenodd" d="M4.0032 6.56428L4 6.472L11.973 4.074L19.945 6.472L19.9194 7.01738C19.6709 11.2223 18.5664 14.2116 16.8031 16.34L16.6212 16.555C15.4679 17.8889 14.2769 18.7086 12.2778 19.6796L11.973 19.826L11.6661 19.6787C9.56299 18.6568 8.35482 17.8027 7.14286 16.3398L6.95646 16.1084C5.24048 13.9181 4.19038 10.8544 4.0032 6.56428ZM5.56918 7.56642C5.86118 11.0593 6.79918 13.4717 8.13118 15.1756L8.30431 15.3905C9.27392 16.559 10.2249 17.2792 11.9729 18.1573C13.6343 17.3228 14.5688 16.6338 15.4814 15.5798L15.6528 15.3772C17.0719 13.6614 18.0729 11.198 18.3767 7.56663L11.973 5.64038L5.56918 7.56642Z" fill="#18202A"/>
</svg>
