<svg width="24" height="24" viewBox="0 0 24 24" fill="none" xmlns="http://www.w3.org/2000/svg">
<path fill-rule="evenodd" clip-rule="evenodd" d="M1 5C1 2.79086 2.79086 1 5 1H19C21.2091 1 23 2.79086 23 5V14C23 16.2091 21.2091 18 19 18H12.9091L6.45554 21.8372C5.70741 22.2821 4.7875 21.625 4.96564 20.773L5.54545 18H5C2.79086 18 1 16.2091 1 14V5ZM6 7C6 6.44772 6.44772 6 7 6H17C17.5523 6 18 6.44772 18 7C18 7.55228 17.5523 8 17 8H7C6.44772 8 6 7.55228 6 7ZM7 11C6.44772 11 6 11.4477 6 12C6 12.5523 6.44772 13 7 13H14C14.5523 13 15 12.5523 15 12C15 11.4477 14.5523 11 14 11H7Z" fill="#18202A"/>
</svg>
