<svg width="24" height="24" viewBox="0 0 24 24" fill="none" xmlns="http://www.w3.org/2000/svg">
<g clip-path="url(#clip0_2266_31754)">
<path fill-rule="evenodd" clip-rule="evenodd" d="M11 1H7C4.79086 1 3 2.79086 3 5V19C3 21.2091 4.79086 23 7 23H11.2621C10.4461 21.8313 10 20.4325 10 18.9876C10 17.256 10.641 15.5868 11.8333 14.2621L12.0526 14.0318L15.0844 11H13H11V9V1ZM20.8204 9H19.4334H13V1.17964C13.216 1.27792 13.4148 1.41477 13.5858 1.58579L20.4142 8.41421C20.5852 8.58523 20.7221 8.78403 20.8204 9ZM20.899 11.2797C20.4534 11.0951 19.9758 11 19.4934 11C19.0111 11 18.5334 11.0951 18.0878 11.2797C17.6423 11.4644 17.2374 11.7351 16.8965 12.0763L13.5268 15.446L13.3445 15.6383C12.5196 16.5555 12.06 17.7479 12.06 18.9876C12.06 20.3159 12.5876 21.5898 13.5267 22.5291C14.4662 23.4685 15.7401 23.9961 17.0684 23.9961C18.3967 23.9961 19.6706 23.4685 20.61 22.5293L23.71 19.4292L23.7932 19.335C24.0982 18.9428 24.0705 18.3755 23.71 18.015C23.3195 17.6245 22.6863 17.6245 22.2958 18.015L19.1958 21.115L19.0507 21.2508C18.5038 21.7298 17.7998 21.9961 17.0684 21.9961C16.2705 21.9961 15.5053 21.6791 14.941 21.1149C14.3769 20.5508 14.06 19.7856 14.06 18.9876C14.06 18.1897 14.3769 17.4245 14.9411 16.8602L18.311 13.4902L18.4329 13.3797C18.5598 13.2755 18.7015 13.1904 18.8536 13.1273C19.0564 13.0433 19.2738 13 19.4934 13C19.713 13 19.9304 13.0433 20.1332 13.1273C20.336 13.2114 20.5203 13.3346 20.6755 13.4899C20.9891 13.8037 21.1652 14.2291 21.1652 14.6726C21.1652 15.1162 20.9891 15.5416 20.6756 15.8553L17.5758 18.955L17.5247 18.9971L17.4667 19.0281C17.426 19.045 17.3824 19.0537 17.3384 19.0537C17.2944 19.0537 17.2508 19.045 17.2101 19.0281C17.1695 19.0113 17.1325 18.9866 17.1014 18.9554C17.0695 18.9235 17.0448 18.8866 17.0279 18.8459C17.0111 18.8052 17.0024 18.7617 17.0024 18.7176C17.0024 18.6736 17.0111 18.63 17.0279 18.5894C17.0448 18.5487 17.0695 18.5118 17.1006 18.4806L19.3952 16.1851L19.4783 16.0909C19.7833 15.6985 19.7554 15.1313 19.3949 14.7709C19.0043 14.3804 18.3711 14.3806 17.9807 14.7712L15.6867 17.0662L15.5621 17.2008C15.4034 17.3865 15.2744 17.5967 15.1804 17.8235C15.0629 18.1069 15.0024 18.4108 15.0024 18.7176C15.0024 19.0245 15.0629 19.3283 15.1804 19.6118C15.2979 19.8952 15.4701 20.1528 15.6872 20.3696C15.9033 20.5859 16.1608 20.7582 16.4443 20.8757C16.7277 20.9932 17.0316 21.0537 17.3384 21.0537C17.6453 21.0537 17.9491 20.9932 18.2326 20.8757C18.516 20.7582 18.7735 20.586 18.9904 20.3689L22.09 17.2692L22.2435 17.106C22.8358 16.4364 23.1652 15.5715 23.1652 14.6726C23.1652 13.6989 22.7786 12.765 22.0902 12.0763C21.7494 11.7351 21.3446 11.4644 20.899 11.2797Z" fill="#18202A"/>
</g>
<defs>
<clipPath id="clip0_2266_31754">
<rect width="24" height="24" fill="white"/>
</clipPath>
</defs>
</svg>
