<svg width="24" height="24" viewBox="0 0 24 24" fill="none" xmlns="http://www.w3.org/2000/svg">
<path fill-rule="evenodd" clip-rule="evenodd" d="M6 2.5H18C18.2761 2.5 18.5 2.72386 18.5 3V4H17.75H16.25H12.75H11.25H7.75H6.25H5.5V3C5.5 2.72386 5.72386 2.5 6 2.5ZM4 4V3C4 1.89543 4.89543 1 6 1H18C19.1046 1 20 1.89543 20 3V4H20.75C21.8546 4 22.75 4.89543 22.75 6V9C22.75 9.76835 22.4611 10.4692 21.9861 11H22V19C22 21.2091 20.2091 23 18 23H16H8H6C3.79086 23 2 21.2091 2 19V11H2.01389C1.53885 10.4692 1.25 9.76835 1.25 9V6C1.25 4.89543 2.14543 4 3.25 4H4ZM3.5 11.9055V19C3.5 20.3807 4.61929 21.5 6 21.5H8V17C8 15.3431 9.34315 14 11 14H13C14.6569 14 16 15.3431 16 17V21.5H18C19.3807 21.5 20.5 20.3807 20.5 19V11.9055C20.2603 11.9672 20.009 12 19.75 12H19.25C18.354 12 17.5497 11.6072 17 10.9844C16.4503 11.6072 15.646 12 14.75 12H14.25C13.354 12 12.5497 11.6072 12 10.9844C11.4503 11.6072 10.646 12 9.75 12H9.25C8.35398 12 7.54971 11.6072 7 10.9844C6.45029 11.6072 5.64602 12 4.75 12H4.25C3.99103 12 3.73971 11.9672 3.5 11.9055ZM14.5 21.5V17C14.5 16.1716 13.8284 15.5 13 15.5H11C10.1716 15.5 9.5 16.1716 9.5 17V21.5H14.5ZM20 5.5H17.75V9C17.75 9.82843 18.4216 10.5 19.25 10.5H19.75C20.5784 10.5 21.25 9.82843 21.25 9V6C21.25 5.72386 21.0261 5.5 20.75 5.5H20ZM16.25 5.5H12.75V9C12.75 9.82843 13.4216 10.5 14.25 10.5H14.75C15.5784 10.5 16.25 9.82843 16.25 9V5.5ZM11.25 5.5H7.75V9C7.75 9.82843 8.42157 10.5 9.25 10.5H9.75C10.5784 10.5 11.25 9.82843 11.25 9V5.5ZM6.25 5.5H4H3.25C2.97386 5.5 2.75 5.72386 2.75 6V9C2.75 9.82843 3.42157 10.5 4.25 10.5H4.75C5.57843 10.5 6.25 9.82843 6.25 9V5.5Z" fill="#18202A"/>
</svg>
