<svg width="24" height="24" viewBox="0 0 24 24" fill="none" xmlns="http://www.w3.org/2000/svg">
<path fill-rule="evenodd" clip-rule="evenodd" d="M19.9901 6.75512C19.8655 5.2128 18.5744 4 17 4H7C5.42559 4 4.13445 5.2128 4.00985 6.75512C3.44756 7.25397 3.07402 7.96084 3.00985 8.75512C2.39039 9.30469 2 10.1068 2 11V19C2 20.6569 3.34315 22 5 22H19C20.6569 22 22 20.6569 22 19V11C22 10.1068 21.6096 9.30469 20.9901 8.75512C20.926 7.96084 20.5524 7.25397 19.9901 6.75512ZM18.1202 6.00237C17.8454 5.69412 17.4454 5.5 17 5.5H7C6.55461 5.5 6.15456 5.69412 5.87984 6.00236C5.9197 6.00079 5.95976 6 6 6H18C18.0402 6 18.0803 6.0008 18.1202 6.00237ZM5 8C4.95976 8 4.9197 8.00079 4.87984 8.00236C5.15456 7.69412 5.55461 7.5 6 7.5H18C18.4454 7.5 18.8454 7.69412 19.1202 8.00237C19.0803 8.0008 19.0402 8 19 8H5ZM16.7242 12.6897C17.105 12.2897 17.0896 11.6567 16.6897 11.2759C16.2897 10.895 15.6568 10.9104 15.2759 11.3103L10.3248 16.509L8.75927 14.6825C8.39985 14.2632 7.76855 14.2147 7.34923 14.5741C6.9299 14.9335 6.88134 15.5648 7.24076 15.9841L9.52648 18.6508C9.71051 18.8655 9.97685 18.9923 10.2595 18.9997C10.5422 19.0071 10.8148 18.8944 11.0099 18.6897L16.7242 12.6897Z" fill="#18202A"/>
</svg>
