<svg width="24" height="24" viewBox="0 0 24 24" fill="none" xmlns="http://www.w3.org/2000/svg">
<path d="M17.7863 4.61786C18.1275 4.18359 18.0521 3.55494 17.6178 3.21372C17.1835 2.87251 16.5549 2.94795 16.2137 3.38222L5.91007 16.4959L3.70711 14.2929C3.31658 13.9024 2.68342 13.9024 2.29289 14.2929C1.90237 14.6835 1.90237 15.3166 2.29289 15.7071L5.29289 18.7071C5.49511 18.9094 5.77422 19.0153 6.05968 18.9983C6.34514 18.9812 6.60964 18.8427 6.78632 18.6179L17.7863 4.61786Z" fill="#18202A"/>
<path d="M19 7C18.4477 7 18 7.44772 18 8C18 8.55228 18.4477 9 19 9H21C21.5523 9 22 8.55228 22 8C22 7.44772 21.5523 7 21 7H19Z" fill="#18202A"/>
<path d="M14 13C14 12.4477 14.4477 12 15 12H21C21.5523 12 22 12.4477 22 13C22 13.5523 21.5523 14 21 14H15C14.4477 14 14 13.5523 14 13Z" fill="#18202A"/>
<path d="M11 17C10.4477 17 10 17.4477 10 18C10 18.5523 10.4477 19 11 19H21C21.5523 19 22 18.5523 22 18C22 17.4477 21.5523 17 21 17H11Z" fill="#18202A"/>
</svg>
