<svg width="24" height="24" viewBox="0 0 24 24" fill="none" xmlns="http://www.w3.org/2000/svg">
<path d="M16.0303 13.0303C16.3232 12.7374 16.3232 12.2626 16.0303 11.9697C15.7374 11.6768 15.2625 11.6768 14.9697 11.9697L10.5 16.4393L9.03031 14.9697C8.73742 14.6768 8.26255 14.6768 7.96965 14.9697C7.67676 15.2626 7.67676 15.7374 7.96965 16.0303L9.96965 18.0303C10.2625 18.3232 10.7374 18.3232 11.0303 18.0303L16.0303 13.0303Z" fill="#18202A"/>
<path fill-rule="evenodd" clip-rule="evenodd" d="M17.005 6C16.6445 6 16.3387 5.74735 16.2113 5.41011C15.5688 3.70944 13.9258 2.5 12.0002 2.5C9.5149 2.5 7.50018 4.51472 7.50018 7V8H18.0002C20.2093 8 22.0002 9.79086 22.0002 12V19C22.0002 21.2091 20.2093 23 18.0002 23H6.00018C3.79104 23 2.00018 21.2091 2.00018 19V12C2.00018 9.79086 3.79104 8 6.00018 8V7C6.00018 3.68629 8.68647 1 12.0002 1C14.6555 1 16.9079 2.72483 17.6982 5.11519C17.848 5.56839 17.4824 6 17.005 6ZM6.00018 9.5C4.61947 9.5 3.50018 10.6193 3.50018 12V19C3.50018 20.3807 4.61947 21.5 6.00018 21.5H18.0002C19.3809 21.5 20.5002 20.3807 20.5002 19V12C20.5002 10.6193 19.3809 9.5 18.0002 9.5H6.00018Z" fill="#18202A"/>
</svg>
