<svg width="24" height="24" viewBox="0 0 24 24" fill="none" xmlns="http://www.w3.org/2000/svg">
<path fill-rule="evenodd" clip-rule="evenodd" d="M7.50018 19.7515C7.50018 19.3373 7.83597 19.0015 8.25018 19.0015H21.2502C21.6644 19.0015 22.0002 19.3373 22.0002 19.7515C22.0002 20.1657 21.6644 20.5015 21.2502 20.5015H8.25018C7.83597 20.5015 7.50018 20.1657 7.50018 19.7515Z" fill="#18202A"/>
<path fill-rule="evenodd" clip-rule="evenodd" d="M7.50018 3.75146C7.50018 3.33725 7.83597 3.00146 8.25018 3.00146H21.2502C21.6644 3.00146 22.0002 3.33725 22.0002 3.75146C22.0002 4.16568 21.6644 4.50146 21.2502 4.50146H8.25018C7.83597 4.50146 7.50018 4.16568 7.50018 3.75146Z" fill="#18202A"/>
<path d="M6.28051 9.27984C6.57341 8.98695 6.57341 8.51207 6.28051 8.21918C5.98762 7.92629 5.51275 7.92629 5.21985 8.21918L2.21985 11.2192C2.0692 11.3698 1.99604 11.5686 2.00036 11.766C2.00327 12.0095 2.12098 12.2253 2.30186 12.3619L5.21985 15.2798C5.51275 15.5727 5.98762 15.5727 6.28051 15.2798C6.57341 14.9869 6.57341 14.5121 6.28051 14.2192L4.57504 12.5137L21.243 12.5069C21.6614 12.5067 22.0005 12.1674 22.0003 11.749C22.0001 11.3305 21.6608 10.9915 21.2424 10.9917L4.56189 10.9985L6.28051 9.27984Z" fill="#18202A"/>
</svg>
