<svg width="24" height="24" viewBox="0 0 24 24" fill="none" xmlns="http://www.w3.org/2000/svg">
<path fill-rule="evenodd" clip-rule="evenodd" d="M0.46967 1.46967C0.762563 1.17678 1.23744 1.17678 1.53033 1.46967L2.75 2.68934V2.5C2.75 2.08579 3.08579 1.75 3.5 1.75C3.91421 1.75 4.25 2.08579 4.25 2.5V4.5C4.25 4.91421 3.91421 5.25 3.5 5.25H1.5C1.08579 5.25 0.75 4.91421 0.75 4.5C0.75 4.08579 1.08579 3.75 1.5 3.75H1.68934L0.46967 2.53033C0.176777 2.23744 0.176777 1.76256 0.46967 1.46967ZM12 3.75C8.46968 3.75 5.75 6.79826 5.75 10.6C5.75 12.4435 6.26295 14.6908 6.80595 16.9381C6.89877 17.3223 7.1797 17.7966 7.64424 18.32C8.09901 18.8323 8.68211 19.3386 9.29443 19.7884C9.90569 20.2375 10.5279 20.6169 11.0497 20.8806C11.311 21.0126 11.5373 21.1106 11.7174 21.1738C11.8072 21.2053 11.8787 21.2258 11.9324 21.2378C11.9721 21.2468 11.9936 21.2492 12 21.2498C12.0064 21.2492 12.0279 21.2468 12.0676 21.2378C12.1213 21.2258 12.1928 21.2053 12.2826 21.1738C12.4627 21.1106 12.689 21.0126 12.9503 20.8806C13.4721 20.6169 14.0943 20.2375 14.7056 19.7884C15.3179 19.3386 15.901 18.8323 16.3558 18.32C16.8203 17.7966 17.1012 17.3223 17.1941 16.9381C17.737 14.6908 18.25 12.4435 18.25 10.6C18.25 6.79826 15.5303 3.75 12 3.75ZM4.25 10.6C4.25 6.11747 7.50095 2.25 12 2.25C16.4991 2.25 19.75 6.11747 19.75 10.6C19.75 12.6545 19.186 15.0806 18.6521 17.2904C18.4757 18.0205 18.0116 18.7141 17.4776 19.3157C16.9338 19.9284 16.2648 20.5043 15.5936 20.9973C14.9214 21.4911 14.2288 21.9152 13.6267 22.2194C13.326 22.3713 13.0381 22.4983 12.7794 22.5891C12.5377 22.674 12.2594 22.75 12 22.75C11.7406 22.75 11.4623 22.674 11.2206 22.5891C10.9619 22.4983 10.674 22.3713 10.3733 22.2194C9.7712 21.9152 9.07859 21.4911 8.40638 20.9973C7.73523 20.5043 7.06621 19.9284 6.52241 19.3157C5.98838 18.7141 5.52431 18.0205 5.3479 17.2904C4.81397 15.0806 4.25 12.6545 4.25 10.6ZM21.9697 1.46967C22.2626 1.17678 22.7374 1.17678 23.0303 1.46967C23.3232 1.76256 23.3232 2.23744 23.0303 2.53033L21.8107 3.75H22C22.4142 3.75 22.75 4.08579 22.75 4.5C22.75 4.91421 22.4142 5.25 22 5.25H20C19.5858 5.25 19.25 4.91421 19.25 4.5V2.5C19.25 2.08579 19.5858 1.75 20 1.75C20.4142 1.75 20.75 2.08579 20.75 2.5V2.68934L21.9697 1.46967ZM0.46967 22.0303C0.762563 22.3232 1.23744 22.3232 1.53033 22.0303L2.75 20.8107V21C2.75 21.4142 3.08579 21.75 3.5 21.75C3.91421 21.75 4.25 21.4142 4.25 21V19C4.25 18.5858 3.91421 18.25 3.5 18.25H1.5C1.08579 18.25 0.75 18.5858 0.75 19C0.75 19.4142 1.08579 19.75 1.5 19.75H1.68934L0.46967 20.9697C0.176777 21.2626 0.176777 21.7374 0.46967 22.0303ZM21.9697 22.0303C22.2626 22.3232 22.7374 22.3232 23.0303 22.0303C23.3232 21.7374 23.3232 21.2626 23.0303 20.9697L21.8107 19.75H22C22.4142 19.75 22.75 19.4142 22.75 19C22.75 18.5858 22.4142 18.25 22 18.25H20C19.5858 18.25 19.25 18.5858 19.25 19V21C19.25 21.4142 19.5858 21.75 20 21.75C20.4142 21.75 20.75 21.4142 20.75 21V20.8107L21.9697 22.0303Z" fill="black"/>
</svg>
