<svg width="24" height="24" viewBox="0 0 24 24" fill="none" xmlns="http://www.w3.org/2000/svg">
<path d="M10 12C10 13.1046 9.10457 14 8 14C6.89543 14 6 13.1046 6 12C6 10.8954 6.89543 10 8 10C9.10457 10 10 10.8954 10 12Z" fill="#18202A"/>
<path d="M7.25 15C6.00736 15 5 16.0074 5 17.25C5 17.6642 5.33579 18 5.75 18H10.25C10.6642 18 11 17.6642 11 17.25C11 16.0074 9.99264 15 8.75 15H7.25Z" fill="#18202A"/>
<path d="M13.75 12C13.3358 12 13 12.3358 13 12.75C13 13.1642 13.3358 13.5 13.75 13.5H18.25C18.6642 13.5 19 13.1642 19 12.75C19 12.3358 18.6642 12 18.25 12H13.75Z" fill="#18202A"/>
<path d="M13 15.75C13 15.3358 13.3358 15 13.75 15H18.25C18.6642 15 19 15.3358 19 15.75C19 16.1642 18.6642 16.5 18.25 16.5H13.75C13.3358 16.5 13 16.1642 13 15.75Z" fill="#18202A"/>
<path fill-rule="evenodd" clip-rule="evenodd" d="M9 4C9 2.34315 10.3431 1 12 1C13.6569 1 15 2.34315 15 4H19C21.2091 4 23 5.79086 23 8V18C23 20.2091 21.2091 22 19 22H5C2.79086 22 1 20.2091 1 18V8C1 5.79086 2.79086 4 5 4L9 4ZM12 2.5C12.8284 2.5 13.5 3.17157 13.5 4V6.5H10.5V4C10.5 3.17157 11.1716 2.5 12 2.5ZM21.5 8C21.5 6.61929 20.3807 5.5 19 5.5H15V7C15 7.55228 14.5523 8 14 8H10C9.44772 8 9 7.55228 9 7V5.5H5C3.61929 5.5 2.5 6.61929 2.5 8V18C2.5 19.3807 3.61929 20.5 5 20.5H19C20.3807 20.5 21.5 19.3807 21.5 18V8Z" fill="#18202A"/>
</svg>
