<svg width="24" height="24" viewBox="0 0 24 24" fill="none" xmlns="http://www.w3.org/2000/svg">
<path fill-rule="evenodd" clip-rule="evenodd" d="M16 5.375C16 8.5 14.6667 11 12 11C9.33333 11 8 8.5 8 5.375C8 2.875 9.33333 1 12 1C14.6667 1 16 2.875 16 5.375ZM14.5 5.375C14.5 6.75311 14.2017 7.84209 13.746 8.53625C13.3307 9.1689 12.7826 9.5 12 9.5C11.2174 9.5 10.6693 9.1689 10.254 8.53625C9.79833 7.84209 9.5 6.75311 9.5 5.375C9.5 4.37516 9.76704 3.66195 10.141 3.22368C10.4861 2.81928 11.046 2.5 12 2.5C12.954 2.5 13.5139 2.81928 13.859 3.22368C14.233 3.66195 14.5 4.37516 14.5 5.375ZM12.9862 21.4711C13.1986 21.9876 13.4757 22.4707 13.8073 22.9104C13.2129 22.9697 12.61 23 12 23C10.4526 23 8.95081 22.8047 7.51792 22.4375C6.29888 22.1251 5.26569 21.3086 4.69985 20.1845C4.53212 19.8513 4.3757 19.5114 4.23108 19.1654C3.61657 17.6951 3.86147 15.9749 4.99932 14.8592C6.80313 13.0906 9.27421 12 12 12C13.5888 12 15.0911 12.3705 16.4252 13.0299C15.8555 13.2759 15.3281 13.6011 14.8566 13.9915C13.964 13.6732 13.0025 13.5 12 13.5C9.68256 13.5 7.58426 14.4254 6.04949 15.9303C5.40564 16.5616 5.20565 17.6074 5.61506 18.587C5.74604 18.9004 5.88772 19.2082 6.03967 19.5101C6.406 20.2378 7.08095 20.7771 7.8903 20.9845C9.20254 21.3208 10.5793 21.5 12 21.5C12.3312 21.5 12.66 21.4903 12.9862 21.4711ZM19 22.5C20.933 22.5 22.5 20.933 22.5 19C22.5 18.3049 22.2974 17.6572 21.948 17.1126L17.1126 21.948C17.6572 22.2974 18.3049 22.5 19 22.5ZM20.8874 16.052L16.052 20.8874C15.7026 20.3428 15.5 19.6951 15.5 19C15.5 17.067 17.067 15.5 19 15.5C19.6951 15.5 20.3428 15.7026 20.8874 16.052ZM19 24C21.7614 24 24 21.7614 24 19C24 16.2386 21.7614 14 19 14C16.2386 14 14 16.2386 14 19C14 21.7614 16.2386 24 19 24Z" fill="#18202A"/>
</svg>
