<svg width="24" height="24" viewBox="0 0 24 24" fill="none" xmlns="http://www.w3.org/2000/svg">
<path d="M1.22101 1.22101C1.51569 0.926331 1.99345 0.926331 2.28813 1.22101L20.779 19.7119C21.0737 20.0065 21.0737 20.4843 20.779 20.779C20.4843 21.0737 20.0065 21.0737 19.7119 20.779L1.22101 2.28813C0.926331 1.99345 0.926331 1.51569 1.22101 1.22101Z" fill="#18202A"/>
<path d="M4.31834 3.25265L1.88416 3.98482L1.75636 4.03064C1.30132 4.22134 1 4.65595 1 5.14266C1 17.5133 7.18693 20.9079 10.932 22.6411L11.4616 22.8837C11.6321 22.9612 11.8162 23 12.0003 23C12.1843 23 12.3679 22.9612 12.5379 22.8837C14.3892 22.0405 17.0475 20.8293 19.2211 18.1554L18.1541 17.0884C18.0985 17.1587 18.0421 17.2282 17.9852 17.2969L17.7796 17.54C16.4841 19.0394 15.1649 19.9526 13.0338 20.9932L12.2923 21.3457L11.999 21.48L11.7062 21.3452C9.00444 20.0903 7.52238 19.1165 6.01476 17.2967L5.81295 17.0466C3.75578 14.4279 2.57525 10.7548 2.50348 5.64196L2.501 5.365L5.52213 4.45644L4.31834 3.25265Z" fill="#18202A"/>
<path d="M6.7197 5.65401L4 6.472L4.0032 6.56428C4.19038 10.8544 5.24048 13.9181 6.95646 16.1084L7.14286 16.3398C8.35482 17.8027 9.56299 18.6568 11.6661 19.6787L11.973 19.826L12.2778 19.6796C14.2769 18.7086 15.4679 17.8889 16.6212 16.555L16.8031 16.34C16.8939 16.2304 16.9829 16.1186 17.0701 16.0044L15.9985 14.9328C15.8863 15.0863 15.771 15.2343 15.6528 15.3772L15.4814 15.5798C14.5688 16.6338 13.6343 17.3228 11.9729 18.1573C10.2249 17.2792 9.27392 16.559 8.30431 15.3905L8.13118 15.1756C6.79918 13.4717 5.86118 11.0593 5.56918 7.56642L7.9239 6.85821L6.7197 5.65401Z" fill="#18202A"/>
<path d="M9.55472 6.36771L8.35053 5.16351L11.973 4.074L19.945 6.472L19.9194 7.01738C19.7281 10.2535 19.0299 12.7697 17.9145 14.7275L16.8086 13.6216C17.6093 12.0798 18.1639 10.1096 18.3767 7.56663L11.973 5.64038L9.55472 6.36771Z" fill="#18202A"/>
<path d="M19.0263 15.8393C20.5634 13.3319 21.4352 10.0129 21.4965 5.64067L21.498 5.365L12.001 2.508L7.15299 3.96598L5.94914 2.76213L11.6251 1.05486C11.8206 0.996342 12.0271 0.984638 12.227 1.01975L12.3754 1.05486L22.1163 3.98482C22.6419 4.14324 23.0005 4.61219 23 5.14266C23 10.6168 21.7885 14.3334 20.1131 16.9261L19.0263 15.8393Z" fill="#18202A"/>
</svg>
