<svg width="24" height="24" viewBox="0 0 24 24" fill="none" xmlns="http://www.w3.org/2000/svg">
<path d="M14 8.1875C14 9.75 13.3333 11 12 11C10.6667 11 10 9.75 10 8.1875C10 6.9375 10.6667 6 12 6C13.3333 6 14 6.9375 14 8.1875Z" fill="#18202A"/>
<path d="M8 8.75C8 10 7.5 11 6.5 11C5.5 11 5 10 5 8.75C5 7.75 5.5 7 6.5 7C7.5 7 8 7.75 8 8.75Z" fill="#18202A"/>
<path d="M19 8.75C19 10 18.5 11 17.5 11C16.5 11 16 10 16 8.75C16 7.75 16.5 7 17.5 7C18.5 7 19 7.75 19 8.75Z" fill="#18202A"/>
<path d="M8.34361 12.0643C8.2656 12.1139 8.18864 12.165 8.11278 12.2177C6.93955 13.0318 6.60532 14.5031 7.01353 15.7332C7.04533 15.829 7.07832 15.9243 7.11249 16.019C6.57043 16.0095 6.03669 15.9675 5.51332 15.8948C4.8962 15.8091 4.37312 15.3954 4.1626 14.809C4.11426 14.6743 4.06863 14.5385 4.02577 14.4015C3.80507 13.6959 4.0831 12.921 4.74427 12.5903C5.52315 12.2008 6.40912 11.9805 7.34886 11.9805C7.6883 11.9805 8.02072 12.0092 8.34361 12.0643Z" fill="#18202A"/>
<path d="M16.9868 15.7332C16.9553 15.8279 16.9227 15.9221 16.889 16.0157C17.4451 16 17.9922 15.95 18.528 15.8678C19.1374 15.7743 19.6507 15.361 19.8572 14.7802C19.8924 14.6814 19.9261 14.582 19.9583 14.4819C20.1804 13.7917 19.9245 13.0286 19.2876 12.6819C18.4675 12.2355 17.5186 11.9805 16.5076 11.9805C16.2082 11.9805 15.9143 12.0028 15.6276 12.0459C15.7156 12.1012 15.8022 12.1585 15.8875 12.2177C17.0607 13.0318 17.3949 14.5031 16.9868 15.7332Z" fill="#18202A"/>
<path d="M15.5914 16.5455C15.2674 17.2453 14.6139 17.7346 13.8525 17.8569C13.249 17.9538 12.6304 18.0041 12.0001 18.0041C11.3699 18.0041 10.7513 17.9538 10.1478 17.8569C9.38644 17.7346 8.73296 17.2453 8.40897 16.5455C8.24001 16.1806 8.09076 15.8044 7.96263 15.4182C7.67279 14.5448 7.92683 13.5639 8.68289 13.0393C9.628 12.3834 10.7701 12 12.0001 12C13.2302 12 14.3723 12.3834 15.3174 13.0393C16.0734 13.5639 16.3275 14.5448 16.0377 15.4182C15.9095 15.8044 15.7603 16.1806 15.5914 16.5455Z" fill="#18202A"/>
<path fill-rule="evenodd" clip-rule="evenodd" d="M19 2.5H5C3.61929 2.5 2.5 3.61929 2.5 5V19C2.5 20.3807 3.61929 21.5 5 21.5H19C20.3807 21.5 21.5 20.3807 21.5 19V5C21.5 3.61929 20.3807 2.5 19 2.5ZM5 1C2.79086 1 1 2.79086 1 5V19C1 21.2091 2.79086 23 5 23H19C21.2091 23 23 21.2091 23 19V5C23 2.79086 21.2091 1 19 1H5Z" fill="#18202A"/>
</svg>
