<svg width="24" height="24" viewBox="0 0 24 24" fill="none" xmlns="http://www.w3.org/2000/svg">
<path fill-rule="evenodd" clip-rule="evenodd" d="M23 12C23 5.92487 18.0751 1 12 1C5.92487 1 1 5.92487 1 12C1 18.0751 5.92487 23 12 23C18.0751 23 23 18.0751 23 12ZM7.29289 10.2929C6.90237 10.6834 6.90237 11.3166 7.29289 11.7071C7.68342 12.0976 8.31658 12.0976 8.70711 11.7071L11 9.41421V17C11 17.5523 11.4477 18 12 18C12.5523 18 13 17.5523 13 17V9.41421L15.2929 11.7071C15.6834 12.0976 16.3166 12.0976 16.7071 11.7071C17.0976 11.3166 17.0976 10.6834 16.7071 10.2929L12.7071 6.29289C12.3166 5.90237 11.6834 5.90237 11.2929 6.29289L7.29289 10.2929Z" fill="#18202A"/>
</svg>
