<svg width="24" height="24" viewBox="0 0 24 24" fill="none" xmlns="http://www.w3.org/2000/svg">
<path fill-rule="evenodd" clip-rule="evenodd" d="M2.04023 6.99959L11.7562 12.4166C11.9075 12.501 12.0918 12.501 12.2431 12.4166L21.9596 6.99959L12.2431 1.58281C12.0918 1.49844 11.9075 1.49844 11.7562 1.58282L2.04023 6.99959ZM11.0257 13.7268C11.6311 14.0643 12.3682 14.0643 12.9736 13.7268L18.5 10.6457V14.342C18.5 15.2875 17.9604 16.2907 16.7908 17.1178C15.6249 17.9422 13.9359 18.4994 12 18.4994C10.0641 18.4994 8.37508 17.9422 7.20921 17.1178C6.0396 16.2907 5.5 15.2875 5.5 14.342V10.6459L11.0257 13.7268ZM23.4733 7.87301L20 9.80944V14.342C20 17.4667 16.4183 19.9994 12 19.9994C7.58171 19.9994 4 17.4667 4 14.342V9.80963L2.5 8.97332L2.5 19.6679C3.09124 19.9488 3.5 20.5514 3.5 21.2495C3.5 22.216 2.7165 22.9995 1.75 22.9995C0.783502 22.9995 0 22.216 0 21.2495C0 20.5514 0.408763 19.9488 0.999999 19.6679L1 8.13701L0.526478 7.873C-0.157576 7.49162 -0.157567 6.50752 0.526494 6.12615L11.0258 0.27267C11.6312 -0.0648416 12.3681 -0.0648487 12.9735 0.272651L23.4733 6.12614C24.1574 6.50751 24.1574 7.49163 23.4733 7.87301ZM12 8.49951C13.2426 8.49951 14.25 7.82794 14.25 6.99951C14.25 6.17108 13.2426 5.49951 12 5.49951C10.7574 5.49951 9.75 6.17108 9.75 6.99951C9.75 7.82794 10.7574 8.49951 12 8.49951Z" fill="#18202A"/>
</svg>
