<svg width="24" height="24" viewBox="0 0 24 24" fill="none" xmlns="http://www.w3.org/2000/svg">
<path d="M6 1C3.23858 1 1 3.23858 1 6V18C1 20.7614 3.23858 23 6 23H13.8762C13.5203 22.5448 13.2237 22.0409 12.9982 21.5H6C4.067 21.5 2.5 19.933 2.5 18V6C2.5 4.067 4.067 2.5 6 2.5H18C19.933 2.5 21.5 4.067 21.5 6V12.9982C22.0409 13.2237 22.5448 13.5203 23 13.8762V6C23 3.23858 20.7614 1 18 1H6Z" fill="#18202A"/>
<path d="M7 6.5V4.5H5V6.5H7Z" fill="#18202A"/>
<path fill-rule="evenodd" clip-rule="evenodd" d="M9 9.44443C9 8.71923 9.78378 8.2713 10.3998 8.64441L14.6113 11.195C15.2096 11.5574 15.2096 12.4327 14.6113 12.795L10.3998 15.3456C9.78378 15.7187 9 15.2708 9 14.5456V9.44443ZM10.5 10.4587V13.5313L13.0367 11.995L10.5 10.4587Z" fill="#18202A"/>
<path d="M7 19.5V17.5H5V19.5H7Z" fill="#18202A"/>
<path d="M11 4.5H9V6.5H11V4.5Z" fill="#18202A"/>
<path d="M11 17.5H9V19.5H11V17.5Z" fill="#18202A"/>
<path d="M15 4.5H13V6.5H15V4.5Z" fill="#18202A"/>
<path d="M19 6.5V4.5H17V6.5H19Z" fill="#18202A"/>
<path fill-rule="evenodd" clip-rule="evenodd" d="M19 24C21.7614 24 24 21.7614 24 19C24 16.2386 21.7614 14 19 14C16.2386 14 14 16.2386 14 19C14 21.7614 16.2386 24 19 24ZM19.75 16.75C19.75 16.3358 19.4142 16 19 16C18.5858 16 18.25 16.3358 18.25 16.75V18.25H16.75C16.3358 18.25 16 18.5858 16 19C16 19.4142 16.3358 19.75 16.75 19.75H18.25V21.25C18.25 21.6642 18.5858 22 19 22C19.4142 22 19.75 21.6642 19.75 21.25V19.75H21.25C21.6642 19.75 22 19.4142 22 19C22 18.5858 21.6642 18.25 21.25 18.25H19.75V16.75Z" fill="#18202A"/>
</svg>
