<svg width="24" height="24" viewBox="0 0 24 24" fill="none" xmlns="http://www.w3.org/2000/svg">
<path fill-rule="evenodd" clip-rule="evenodd" d="M0 2.5H2.64408C2.9697 2.5 3.28063 2.6355 3.50231 2.87401C3.51924 2.89221 3.53281 2.91327 3.5424 2.9362L3.99517 4.01892L6.81852 12.0768L5.46042 13.5744C4.44055 14.6991 5.23855 16.5 6.75677 16.5H20.5L20.0937 15.8906C19.7228 15.3342 19.0983 15 18.4296 15H6.75677C6.53989 15 6.42589 14.7427 6.57158 14.5821L8.00625 13H17.8309C18.5395 13 19.1782 12.5727 19.4485 11.9177L22.1313 5.41766C22.6068 4.26567 21.7599 3 20.5137 3H5.19495L4.92627 2.35749C4.84845 2.17141 4.73834 2.00055 4.60102 1.85281C4.09554 1.30897 3.38655 1 2.64408 1H0V2.5ZM8.20583 11.5L5.75315 4.5H20.5137C20.6917 4.5 20.8127 4.68081 20.7448 4.84538L18.062 11.3454C18.0234 11.439 17.9321 11.5 17.8309 11.5H8.20583ZM8.5 21.5C9.08824 21.5 9.5 21.0882 9.5 20.5C9.5 19.9118 9.08824 19.5 8.5 19.5C7.91176 19.5 7.5 19.9118 7.5 20.5C7.5 21.0882 7.91176 21.5 8.5 21.5ZM8.5 23C9.91667 23 11 21.9167 11 20.5C11 19.0833 9.91667 18 8.5 18C7.08333 18 6 19.0833 6 20.5C6 21.9167 7.08333 23 8.5 23ZM17.5 21.5C18.0882 21.5 18.5 21.0882 18.5 20.5C18.5 19.9118 18.0882 19.5 17.5 19.5C16.9118 19.5 16.5 19.9118 16.5 20.5C16.5 21.0882 16.9118 21.5 17.5 21.5ZM17.5 23C18.9167 23 20 21.9167 20 20.5C20 19.0833 18.9167 18 17.5 18C16.0833 18 15 19.0833 15 20.5C15 21.9167 16.0833 23 17.5 23Z" fill="#18202A"/>
</svg>
