<svg width="24" height="24" viewBox="0 0 24 24" fill="none" xmlns="http://www.w3.org/2000/svg">
<path fill-rule="evenodd" clip-rule="evenodd" d="M10.1116 2.76032C10.5202 2.82842 10.7962 3.21484 10.7281 3.62342C10.4909 5.04636 9.66685 6.08763 8.9213 7.02969L8.92112 7.02992L8.92057 7.03061C8.84582 7.12506 8.77186 7.21851 8.69937 7.31126C8.5633 7.48533 8.42879 7.66041 8.29782 7.83908C8.58966 7.77863 8.889 7.75012 9.19032 7.75012C10.8553 7.75012 12.6617 8.61288 14.0186 9.96979C14.9276 10.8788 15.7694 11.9729 16.5434 13.1386C17.2723 12.2098 17.9481 10.9627 18.2342 9.81826C18.3739 9.25961 18.4953 8.72239 18.6175 8.18194L18.6175 8.18184C18.7216 7.72167 18.8261 7.25916 18.9429 6.7791C19.179 5.8086 19.4455 4.85751 19.7919 4.16475C19.9771 3.79427 20.4276 3.6441 20.7981 3.82934C21.1686 4.01459 21.3187 4.46509 21.1335 4.83557C20.8716 5.35937 20.6377 6.15829 20.4004 7.13365C20.3021 7.53786 20.1976 7.99809 20.0904 8.46987L20.0904 8.47013C19.9638 9.02768 19.8335 9.60134 19.7055 10.1177C19.6449 11.0764 19.8278 12.5333 19.9589 13.5739C20.1505 15.0953 20.2131 16.8795 19.7628 18.8735C19.8888 19.124 20.0111 19.3687 20.1299 19.6062L20.1591 19.6647C20.3443 20.0352 20.1942 20.4857 19.8237 20.6709C19.4532 20.8562 19.0027 20.706 18.8175 20.3355C18.6796 20.0599 18.5383 19.7773 18.3933 19.4894C18.314 19.3971 18.2578 19.2863 18.2304 19.1669C16.8093 16.3605 15.0558 13.1283 12.958 11.0304C11.8149 9.88735 10.3712 9.25012 9.19032 9.25012C8.61076 9.25012 8.11668 9.40171 7.73131 9.69253C7.35492 9.97657 7.02675 10.4351 6.83959 11.1532C6.77494 11.5603 6.73828 12.0067 6.73828 12.5001C6.73828 13.7661 7.37904 15.1085 8.29545 16.4526C8.74658 17.1143 9.24673 17.7515 9.7358 18.357C9.85643 18.5063 9.97736 18.6549 10.097 18.8019L10.0972 18.8022C10.4543 19.2409 10.7993 19.6649 11.0883 20.0501C11.3368 20.3815 11.2697 20.8516 10.9383 21.1001C10.6069 21.3486 10.1368 21.2815 9.88828 20.9501C9.61877 20.5908 9.30136 20.2007 8.95052 19.7696L8.95047 19.7696L8.95045 19.7696C8.82718 19.6181 8.69978 19.4616 8.56889 19.2995C8.07359 18.6863 7.54248 18.011 7.05611 17.2976C6.09752 15.8917 5.23828 14.2341 5.23828 12.5001C5.23828 11.9168 5.2828 11.3789 5.36438 10.8793C5.70119 8.81655 6.65831 7.48673 7.51758 6.38747C7.58341 6.30326 7.64803 6.22101 7.71133 6.14044C8.49607 5.14158 9.07776 4.40116 9.24849 3.37682C9.31658 2.96824 9.703 2.69223 10.1116 2.76032ZM18.579 16.5831C18.6418 15.5737 18.5803 14.6321 18.4706 13.7614L18.4607 13.683L18.4606 13.6823C18.4388 13.5093 18.4148 13.3186 18.3903 13.1156C18.0754 13.6151 17.7325 14.0766 17.3847 14.4728C17.806 15.174 18.2042 15.8849 18.579 16.5831ZM4.62836 8.38594C4.84145 8.03074 4.72624 7.57005 4.37104 7.35697C4.01584 7.14388 3.55516 7.25909 3.34207 7.61429C3.13685 7.95638 2.96631 8.32657 2.82743 8.71609L4.27532 9.12473C4.37566 8.85891 4.49326 8.61114 4.62836 8.38594ZM3.91656 10.5821L2.46143 10.1714C2.37011 10.74 2.32948 11.3247 2.33217 11.9042L3.83206 11.7973C3.8342 11.3817 3.86221 10.9737 3.91656 10.5821ZM2.43394 13.4008C2.50628 13.9519 2.61674 14.4965 2.76371 15.015L4.16626 14.4582C4.0685 14.0896 3.98962 13.6987 3.93307 13.2939L2.43394 13.4008ZM3.28753 16.421C3.46952 16.8009 3.67641 17.1489 3.90725 17.4533C4.15753 17.7833 4.62798 17.848 4.95803 17.5977C5.28808 17.3474 5.35275 16.877 5.10248 16.5469C4.95409 16.3513 4.8144 16.1222 4.68583 15.8658L3.28753 16.421Z" fill="#26282C"/>
</svg>
