<svg width="24" height="24" viewBox="0 0 24 24" fill="none" xmlns="http://www.w3.org/2000/svg">
<path fill-rule="evenodd" clip-rule="evenodd" d="M7.00012 19.9995C7.00012 19.4472 7.44784 18.9995 8.00012 18.9995H21.0001C21.5524 18.9995 22.0001 19.4472 22.0001 19.9995C22.0001 20.5518 21.5524 20.9995 21.0001 20.9995H8.00012C7.44784 20.9995 7.00012 20.5518 7.00012 19.9995Z" fill="#18202A"/>
<path fill-rule="evenodd" clip-rule="evenodd" d="M7.00012 3.99951C7.00012 3.44723 7.44784 2.99951 8.00012 2.99951H21.0001C21.5524 2.99951 22.0001 3.44723 22.0001 3.99951C22.0001 4.5518 21.5524 4.99951 21.0001 4.99951H8.00012C7.44784 4.99951 7.00012 4.5518 7.00012 3.99951Z" fill="#18202A"/>
<path d="M6.70723 9.70662C7.09775 9.31609 7.09775 8.68293 6.70723 8.2924C6.3167 7.90188 5.68354 7.90188 5.29302 8.2924L2.29302 11.2924C2.12546 11.46 2.02979 11.6722 2.00602 11.8907C1.98841 12.0526 2.01024 12.218 2.0715 12.3712C2.11306 12.4752 2.17277 12.5736 2.25062 12.6616C2.26592 12.6789 2.28181 12.6956 2.29826 12.7119L5.29302 15.7066C5.68354 16.0971 6.3167 16.0971 6.70723 15.7066C7.09775 15.3161 7.09775 14.6829 6.70723 14.2924L5.41343 12.9986L21.0006 12.9922C21.5529 12.992 22.0004 12.5441 22.0002 11.9918C21.9999 11.4396 21.552 10.992 20.9998 10.9922L5.41524 10.9986L6.70723 9.70662Z" fill="#18202A"/>
</svg>
