<svg width="24" height="24" viewBox="0 0 24 24" fill="none" xmlns="http://www.w3.org/2000/svg">
<path fill-rule="evenodd" clip-rule="evenodd" d="M13 3.5H11C10.7239 3.5 10.5 3.72386 10.5 4V20C10.5 20.2761 10.7239 20.5 11 20.5H13C13.2761 20.5 13.5 20.2761 13.5 20V4C13.5 3.72386 13.2761 3.5 13 3.5ZM11 2C9.89543 2 9 2.89543 9 4V20C9 21.1046 9.89543 22 11 22H13C14.1046 22 15 21.1046 15 20V4C15 2.89543 14.1046 2 13 2H11ZM5 11.5H3C2.72386 11.5 2.5 11.7239 2.5 12V20C2.5 20.2761 2.72386 20.5 3 20.5H5C5.27614 20.5 5.5 20.2761 5.5 20V12C5.5 11.7239 5.27614 11.5 5 11.5ZM3 10C1.89543 10 1 10.8954 1 12V20C1 21.1046 1.89543 22 3 22H5C6.10457 22 7 21.1046 7 20V12C7 10.8954 6.10457 10 5 10H3ZM19 7.5H21C21.2761 7.5 21.5 7.72386 21.5 8V20C21.5 20.2761 21.2761 20.5 21 20.5H19C18.7239 20.5 18.5 20.2761 18.5 20V8C18.5 7.72386 18.7239 7.5 19 7.5ZM17 8C17 6.89543 17.8954 6 19 6H21C22.1046 6 23 6.89543 23 8V20C23 21.1046 22.1046 22 21 22H19C17.8954 22 17 21.1046 17 20V8Z" fill="#18202A"/>
</svg>
