<svg width="24" height="24" viewBox="0 0 24 24" fill="none" xmlns="http://www.w3.org/2000/svg">
<path fill-rule="evenodd" clip-rule="evenodd" d="M9.81802 4.93934L11.3787 6.5H19C20.3807 6.5 21.5 7.61929 21.5 9H2.5V7C2.5 5.61929 3.61929 4.5 5 4.5H8.75736C9.15518 4.5 9.53671 4.65804 9.81802 4.93934ZM2.5 10V17C2.5 18.3807 3.61929 19.5 5 19.5H12.5189C12.5585 20.0195 12.659 20.5218 12.8135 21H5C2.79086 21 1 19.2091 1 17V7C1 4.79086 2.79086 3 5 3H8.75736C9.55301 3 10.3161 3.31607 10.8787 3.87868L12 5H19C21.2091 5 23 6.79086 23 9V13.8762C22.5448 13.5203 22.0409 13.2237 21.5 12.9982V10H2.5ZM24 19C24 21.7614 21.7614 24 19 24C16.2386 24 14 21.7614 14 19C14 16.2386 16.2386 14 19 14C21.7614 14 24 16.2386 24 19ZM19 16C19.4142 16 19.75 16.3358 19.75 16.75V18.25H21.25C21.6642 18.25 22 18.5858 22 19C22 19.4142 21.6642 19.75 21.25 19.75H19.75V21.25C19.75 21.6642 19.4142 22 19 22C18.5858 22 18.25 21.6642 18.25 21.25V19.75H16.75C16.3358 19.75 16 19.4142 16 19C16 18.5858 16.3358 18.25 16.75 18.25H18.25V16.75C18.25 16.3358 18.5858 16 19 16Z" fill="#18202A"/>
</svg>
