<svg width="24" height="24" viewBox="0 0 24 24" fill="none" xmlns="http://www.w3.org/2000/svg">
<path fill-rule="evenodd" clip-rule="evenodd" d="M1 5C1 2.79086 2.79086 1 5 1H19C21.2091 1 23 2.79086 23 5V15.3099C22.4022 14.085 21.3186 13.1406 20 12.7277V12C20 11.4477 19.5523 11 19 11H5C4.44772 11 4 11.4477 4 12V19C4 19.5523 4.44772 20 5 20H13.18C12.2096 20.8436 12.3426 22.2531 13.1696 23H5C2.79086 23 1 21.2091 1 19V5ZM4 6C4 4.89543 4.89543 4 6 4C7.10457 4 8 4.89543 8 6C8 7.10457 7.10457 8 6 8C4.89543 8 4 7.10457 4 6ZM11 5C10.4477 5 10 5.44772 10 6C10 6.55228 10.4477 7 11 7H19C19.5523 7 20 6.55228 20 6C20 5.44772 19.5523 5 19 5H11Z" fill="#18202A"/>
<path fill-rule="evenodd" clip-rule="evenodd" d="M22 17.5143L22 17.5C22 15.567 20.433 14 18.5 14C17.334 14 16.3012 14.5701 15.6652 15.4469L22.2639 20.4929C22.0932 20.1945 22 19.853 22 19.5V17.5143ZM21.7653 22H14.5C14.0195 22 13.8156 21.3883 14.2 21.1C14.7036 20.7223 15 20.1295 15 19.5V17.5L15 17.5L15 17.5C15 17.2848 15.0194 17.0742 15.0566 16.8698L21.7653 22ZM17 23.5C17 23.2239 17.2239 23 17.5 23H19.5C19.7762 23 20 23.2239 20 23.5C20 23.7761 19.7762 24 19.5 24H17.5C17.2239 24 17 23.7761 17 23.5Z" fill="#18202A"/>
<path d="M14.5 14.5L23 21" stroke="#18202A" stroke-width="1.5" stroke-linecap="round"/>
</svg>
