<svg width="24" height="24" viewBox="0 0 24 24" fill="none" xmlns="http://www.w3.org/2000/svg">
<path d="M12.75 4.75C12.3358 4.75 12 4.41421 12 4C12 3.58579 12.3358 3.25 12.75 3.25H20C20.4142 3.25 20.75 3.58579 20.75 4V11.25C20.75 11.6642 20.4142 12 20 12C19.5858 12 19.25 11.6642 19.25 11.25V5.81066L14.5303 10.5303C14.2374 10.8232 13.7626 10.8232 13.4697 10.5303C13.1768 10.2374 13.1768 9.76256 13.4697 9.46967L18.1893 4.75H12.75Z" fill="#18202A"/>
<path d="M12 20C12 20.4142 11.6642 20.75 11.25 20.75H4C3.58579 20.75 3.25 20.4142 3.25 20V12.75C3.25 12.3358 3.58579 12 4 12C4.41422 12 4.75 12.3358 4.75 12.75L4.75 18.1893L9.46967 13.4697C9.76256 13.1768 10.2374 13.1768 10.5303 13.4697C10.8232 13.7626 10.8232 14.2374 10.5303 14.5303L5.81066 19.25H11.25C11.6642 19.25 12 19.5858 12 20Z" fill="#18202A"/>
</svg>
