<svg width="24" height="24" viewBox="0 0 24 24" fill="none" xmlns="http://www.w3.org/2000/svg">
<path fill-rule="evenodd" clip-rule="evenodd" d="M7 1C6.44772 1 6 1.44772 6 2V3H5C2.79086 3 1 4.79086 1 7V19C1 21.2091 2.79086 23 5 23H13.2547C12.4638 21.8662 12 20.4872 12 19C12 17.4241 12.5208 15.9698 13.3996 14.7998C13.157 14.6173 13 14.327 13 14C13 13.4477 13.4477 13 14 13C14.327 13 14.6173 13.157 14.7998 13.3996C15.9698 12.5208 17.4241 12 19 12C20.4872 12 21.8662 12.4638 23 13.2547V7C23 4.79086 21.2091 3 19 3H18V2C18 1.44772 17.5523 1 17 1C16.4477 1 16 1.44772 16 2V3H8V2C8 1.44772 7.55228 1 7 1ZM5 10C5 9.44772 5.44772 9 6 9H18C18.5523 9 19 9.44772 19 10C19 10.5523 18.5523 11 18 11H6C5.44772 11 5 10.5523 5 10ZM5 14C5 13.4477 5.44772 13 6 13C6.55228 13 7 13.4477 7 14C7 14.5523 6.55228 15 6 15C5.44772 15 5 14.5523 5 14ZM6 17C5.44772 17 5 17.4477 5 18C5 18.5523 5.44772 19 6 19C6.55228 19 7 18.5523 7 18C7 17.4477 6.55228 17 6 17ZM9 14C9 13.4477 9.44772 13 10 13C10.5523 13 11 13.4477 11 14C11 14.5523 10.5523 15 10 15C9.44772 15 9 14.5523 9 14ZM10 17C9.44772 17 9 17.4477 9 18C9 18.5523 9.44772 19 10 19C10.5523 19 11 18.5523 11 18C11 17.4477 10.5523 17 10 17ZM24 19C24 21.7614 21.7614 24 19 24C16.2386 24 14 21.7614 14 19C14 16.2386 16.2386 14 19 14C21.7614 14 24 16.2386 24 19ZM19 16C18.4477 16 18 16.4477 18 17V18H17C16.4477 18 16 18.4477 16 19C16 19.5523 16.4477 20 17 20H18V21C18 21.5523 18.4477 22 19 22C19.5523 22 20 21.5523 20 21V20H21C21.5523 20 22 19.5523 22 19C22 18.4477 21.5523 18 21 18H20V17C20 16.4477 19.5523 16 19 16Z" fill="#18202A"/>
</svg>
