<svg width="24" height="24" viewBox="0 0 24 24" fill="none" xmlns="http://www.w3.org/2000/svg">
<g clip-path="url(#clip0_2266_32970)">
<path d="M4.22478 4.17402L11.9522 2.10346C13.5526 1.67464 15.1976 2.62439 15.6264 4.22478L16.0374 5.75872L18.1577 5.94422L17.5583 3.70715C16.8436 1.03982 14.1019 -0.543097 11.4346 0.171612L3.70715 2.24216C1.03982 2.95687 -0.543097 5.69856 0.171612 8.36589L2.24216 16.0933C2.69366 17.7783 3.95406 19.0305 5.49362 19.5442C5.35843 19.0132 5.30887 18.4509 5.35932 17.8742L5.40984 17.2968C4.82317 16.9068 4.37069 16.3096 4.17402 15.5757L2.10346 7.84825C1.67464 6.24785 2.62439 4.60284 4.22478 4.17402Z" fill="#18202A"/>
<path d="M12.3103 10.5437C12.2862 10.8188 12.0437 11.0223 11.7686 10.9982C11.4935 10.9742 11.29 10.7317 11.3141 10.4566C11.3382 10.1815 11.5807 9.97799 11.8558 10.0021C12.1309 10.0261 12.3344 10.2686 12.3103 10.5437Z" fill="#18202A"/>
<path fill-rule="evenodd" clip-rule="evenodd" d="M5.49362 19.5442C5.45982 19.4115 5.43138 19.2768 5.40851 19.1404C5.34116 18.7388 5.32218 18.3224 5.35729 17.8982L5.35932 17.8742L6.05657 9.90461C6.29724 7.1537 8.72241 5.11874 11.4733 5.35942L19.4429 6.05666C22.1938 6.29734 24.2287 8.7225 23.9881 11.4734L23.2908 19.443C23.0502 22.1939 20.625 24.2288 17.8741 23.9882L9.90452 23.2909C7.7303 23.1007 6.00333 21.5459 5.49362 19.5442ZM11.5943 12.9906C12.9698 13.111 14.1823 12.0935 14.3027 10.718C14.423 9.34258 13.4055 8.13 12.0301 8.00966C10.6546 7.88933 9.44205 8.9068 9.32171 10.2823C9.20137 11.6577 10.2188 12.8703 11.5943 12.9906ZM23.4123 18.0019L18.608 12.2324L13.5024 15.9167L11.1285 14.0341L6 17.7671L7.17699 19.3841L11.0767 16.5456L13.4456 18.4241L18.2652 14.9461L21.8754 19.2817L23.4123 18.0019Z" fill="#18202A"/>
<path fill-rule="evenodd" clip-rule="evenodd" d="M19.2686 8.04905L11.299 7.3518C9.64846 7.2074 8.19336 8.42837 8.04896 10.0789L7.35171 18.0485C7.20731 19.699 8.42828 21.1541 10.0788 21.2985L18.0484 21.9958C19.6989 22.1402 21.154 20.9192 21.2984 19.2687L21.9957 11.2991C22.1401 9.64855 20.9191 8.19346 19.2686 8.04905ZM11.4733 5.35942C8.72241 5.11874 6.29724 7.1537 6.05657 9.90461L5.35932 17.8742C5.11865 20.6251 7.1536 23.0502 9.90452 23.2909L17.8741 23.9882C20.625 24.2288 23.0502 22.1939 23.2908 19.443L23.9881 11.4734C24.2287 8.7225 22.1938 6.29734 19.4429 6.05666L11.4733 5.35942Z" fill="#18202A"/>
</g>
<defs>
<clipPath id="clip0_2266_32970">
<rect width="24" height="24" fill="white"/>
</clipPath>
</defs>
</svg>
