<svg width="24" height="24" viewBox="0 0 24 24" fill="none" xmlns="http://www.w3.org/2000/svg">
<g clip-path="url(#clip0_3291_8691)">
<path d="M9.10354 7.93654C8.7139 8.1963 8.50002 8.54093 8.50002 9C8.50002 9.41421 8.16423 9.75 7.75002 9.75C7.3358 9.75 7.00002 9.41421 7.00002 9C7.00002 7.95907 7.53613 7.1787 8.27149 6.68846C8.98462 6.21304 9.88876 6 10.75 6C12.8707 6 14.5 7.5436 14.5 9.5C14.5 10.5172 13.8845 11.5214 13.3284 12.259C12.8798 12.8541 12.3695 13.399 12.0385 13.7525C11.9456 13.8516 11.8668 13.9358 11.8075 14.0017C11.4182 14.4343 10.5372 15.3781 9.75988 16.2072L9.48515 16.5H13.75C14.1642 16.5 14.5 16.8358 14.5 17.25C14.5 17.6642 14.1642 18 13.75 18H7.75002C7.45066 18 7.17998 17.822 7.06138 17.5471C6.94279 17.2723 6.999 16.9532 7.20439 16.7354L7.64299 16.2698C7.91106 15.9849 8.27641 15.5963 8.66562 15.1812C9.4468 14.348 10.3158 13.4169 10.6926 12.9983C10.7765 12.905 10.8746 12.8001 10.9826 12.6846C11.3134 12.3311 11.7368 11.8784 12.1307 11.356C12.6716 10.6385 13 9.98282 13 9.5C13 8.4564 12.1293 7.5 10.75 7.5C10.1113 7.5 9.51541 7.66196 9.10354 7.93654Z" fill="#18202A"/>
<path d="M4.06814 6.07082C4.33167 6.19425 4.50002 6.459 4.50002 6.75001V17.25C4.50002 17.6642 4.16423 18 3.75002 18C3.33581 18 3.00002 17.6642 3.00002 17.25V8.35129L1.23016 9.82617C0.911949 10.0913 0.439026 10.0484 0.173853 9.73015C-0.0913202 9.41194 -0.0483272 8.93902 0.269881 8.67384L3.26988 6.17384C3.49344 5.98754 3.8046 5.94738 4.06814 6.07082Z" fill="#18202A"/>
<path d="M18.6035 7.93654C18.2139 8.1963 18 8.54093 18 9C18 9.41421 17.6642 9.75 17.25 9.75C16.8358 9.75 16.5 9.41421 16.5 9C16.5 7.95907 17.0361 7.1787 17.7715 6.68846C18.4846 6.21304 19.3887 6 20.25 6C21.263 6 22.1921 6.28957 22.883 6.85855C23.5856 7.43712 24 8.27369 24 9.25C24 10.5088 23.4304 11.427 22.5723 11.9991L22.5708 12L22.5723 12.001C23.4304 12.5731 24 13.4912 24 14.7501C24 15.5218 23.7845 16.151 23.418 16.6432C23.0579 17.127 22.5868 17.4323 22.1428 17.6254C21.2806 18.0002 20.4051 18.0001 20.2535 18.0001H20.25C19.5464 18.0001 18.6521 17.8626 17.9055 17.4303C17.118 16.9744 16.5 16.1837 16.5 15C16.5 14.5858 16.8358 14.25 17.25 14.25C17.6642 14.25 18 14.5858 18 15C18 15.5663 18.257 15.9006 18.657 16.1322C19.0979 16.3875 19.7036 16.5001 20.25 16.5001C20.359 16.5001 20.9763 16.4969 21.5447 16.2498C21.8195 16.1303 22.0515 15.9669 22.2148 15.7475C22.3718 15.5366 22.5 15.2283 22.5 14.7501C22.5 14.0089 22.1946 13.552 21.7402 13.2491C21.248 12.9209 20.535 12.7501 19.75 12.7501C19.3358 12.7501 19 12.4143 19 12.0001C19 11.5858 19.3358 11.2501 19.75 11.2501C20.535 11.2501 21.2479 11.0792 21.7402 10.751C22.1946 10.448 22.5 9.99116 22.5 9.25C22.5 8.72631 22.2894 8.31288 21.9295 8.01645C21.5579 7.71043 20.987 7.5 20.25 7.5C19.6113 7.5 19.0154 7.66196 18.6035 7.93654Z" fill="#18202A"/>
</g>
<defs>
<clipPath id="clip0_3291_8691">
<rect width="24" height="24" fill="white"/>
</clipPath>
</defs>
</svg>
