<svg width="24" height="24" viewBox="0 0 24 24" fill="none" xmlns="http://www.w3.org/2000/svg">
<path d="M2 12C2 10.8954 2.89543 10 4 10H5C6.10457 10 7 10.8954 7 12V20C7 21.1046 6.10457 22 5 22H4C2.89543 22 2 21.1046 2 20V12Z" fill="#18202A"/>
<path d="M9.5 4C9.5 2.89543 10.3954 2 11.5 2H12.5C13.6046 2 14.5 2.89543 14.5 4V20C14.5 21.1046 13.6046 22 12.5 22H11.5C10.3954 22 9.5 21.1046 9.5 20V4Z" fill="#18202A"/>
<path d="M17 8C17 6.89543 17.8954 6 19 6H20C21.1046 6 22 6.89543 22 8V20C22 21.1046 21.1046 22 20 22H19C17.8954 22 17 21.1046 17 20V8Z" fill="#18202A"/>
</svg>
