<svg width="24" height="24" viewBox="0 0 24 24" fill="none" xmlns="http://www.w3.org/2000/svg">
<path fill-rule="evenodd" clip-rule="evenodd" d="M5.89952 16.7955L6.06183 18.7688C6.13859 19.702 7.15397 20.3127 8.05036 19.8999C12.0182 18.0726 15.8024 15.762 19.2313 13.06C19.917 12.5196 19.917 11.4803 19.2313 10.9399C15.8024 8.23789 12.0182 5.92729 8.05036 4.1C7.15397 3.68719 6.13859 4.29794 6.06183 5.23116L5.89952 7.20446C5.63701 10.3961 5.63701 13.6038 5.89952 16.7955ZM8.67781 2.73754C6.85849 1.89969 4.73107 3.11197 4.56688 5.1082L4.40457 7.0815C4.13533 10.3549 4.13533 13.645 4.40457 16.9184L4.56688 18.8917C4.73107 20.8879 6.85849 22.1002 8.67781 21.2624C12.7516 19.3863 16.637 17.0141 20.1597 14.2381C21.6076 13.0972 21.6076 10.9027 20.1597 9.76177C16.637 6.98582 12.7516 4.61363 8.67781 2.73754Z" fill="#18202A"/>
</svg>
