<svg width="24" height="24" viewBox="0 0 24 24" fill="none" xmlns="http://www.w3.org/2000/svg">
<g clip-path="url(#clip0_3517_8827)">
<path d="M4 5C4 5.55228 3.55228 6 3 6C2.44772 6 2 5.55228 2 5C2 4.44772 2.44772 4 3 4C3.55228 4 4 4.44772 4 5Z" fill="#18202A"/>
<path d="M7 5C7 4.58579 7.33579 4.25 7.75 4.25H21.25C21.6642 4.25 22 4.58579 22 5C22 5.41421 21.6642 5.75 21.25 5.75H7.75C7.33579 5.75 7 5.41421 7 5Z" fill="#18202A"/>
<path d="M7.75 11.25C7.33579 11.25 7 11.5858 7 12C7 12.4142 7.33579 12.75 7.75 12.75H17.2086C17.7776 12.5872 18.3786 12.5 19 12.5C19.6214 12.5 20.2224 12.5872 20.7914 12.75H21.25C21.6642 12.75 22 12.4142 22 12C22 11.5858 21.6642 11.25 21.25 11.25H7.75Z" fill="#18202A"/>
<path d="M12.5 19C12.5 18.7463 12.5145 18.4961 12.5428 18.25H7.75C7.33579 18.25 7 18.5858 7 19C7 19.4142 7.33579 19.75 7.75 19.75H12.5428C12.5145 19.5039 12.5 19.2537 12.5 19Z" fill="#18202A"/>
<path d="M4 12C4 12.5523 3.55228 13 3 13C2.44772 13 2 12.5523 2 12C2 11.4477 2.44772 11 3 11C3.55228 11 4 11.4477 4 12Z" fill="#18202A"/>
<path d="M4 19C4 19.5523 3.55228 20 3 20C2.44772 20 2 19.5523 2 19C2 18.4477 2.44772 18 3 18C3.55228 18 4 18.4477 4 19Z" fill="#18202A"/>
<path fill-rule="evenodd" clip-rule="evenodd" d="M19 24C21.7614 24 24 21.7614 24 19C24 16.2386 21.7614 14 19 14C16.2386 14 14 16.2386 14 19C14 21.7614 16.2386 24 19 24ZM19.75 16.75C19.75 16.3358 19.4142 16 19 16C18.5858 16 18.25 16.3358 18.25 16.75V18.25H16.75C16.3358 18.25 16 18.5858 16 19C16 19.4142 16.3358 19.75 16.75 19.75H18.25V21.25C18.25 21.6642 18.5858 22 19 22C19.4142 22 19.75 21.6642 19.75 21.25V19.75H21.25C21.6642 19.75 22 19.4142 22 19C22 18.5858 21.6642 18.25 21.25 18.25H19.75V16.75Z" fill="#18202A"/>
</g>
<defs>
<clipPath id="clip0_3517_8827">
<rect width="24" height="24" fill="white"/>
</clipPath>
</defs>
</svg>
