<svg width="24" height="24" viewBox="0 0 24 24" fill="none" xmlns="http://www.w3.org/2000/svg">
<path fill-rule="evenodd" clip-rule="evenodd" d="M16 5.375C16 8.5 14.6667 11 12 11C9.33333 11 8 8.5 8 5.375C8 2.875 9.33333 1 12 1C14.6667 1 16 2.875 16 5.375ZM14.5 5.375C14.5 6.75311 14.2017 7.84209 13.746 8.53625C13.3307 9.1689 12.7826 9.5 12 9.5C11.2174 9.5 10.6693 9.1689 10.254 8.53625C9.79833 7.84209 9.5 6.75311 9.5 5.375C9.5 4.37516 9.76704 3.66195 10.141 3.22368C10.4861 2.81928 11.046 2.5 12 2.5C12.954 2.5 13.5139 2.81928 13.859 3.22368C14.233 3.66195 14.5 4.37516 14.5 5.375ZM11.2971 21.4853C11.5594 22.0265 11.8809 22.5336 12.2532 22.9983C12.169 22.9994 12.0845 23 12 23C10.4526 23 8.95081 22.8047 7.51792 22.4375C6.29888 22.1251 5.26569 21.3086 4.69985 20.1845C4.53212 19.8513 4.3757 19.5114 4.23108 19.1654C3.61657 17.6951 3.86147 15.9749 4.99932 14.8592C6.80313 13.0906 9.27421 12 12 12C12.3844 12 12.7637 12.0217 13.1368 12.0639C12.6647 12.4908 12.2437 12.9731 11.8842 13.5008C9.61268 13.5311 7.55865 14.4506 6.04949 15.9303C5.40564 16.5616 5.20565 17.6074 5.61506 18.587C5.74604 18.9004 5.88772 19.2082 6.03967 19.5101C6.406 20.2378 7.08095 20.7771 7.8903 20.9845C8.98499 21.265 10.1245 21.4363 11.2971 21.4853ZM17.8915 12C17.4091 12 16.9954 12.3445 16.9081 12.819L16.8086 13.359C16.2087 13.5663 15.6614 13.8867 15.1924 14.2947L14.6723 14.1098C14.2177 13.9482 13.7125 14.1342 13.4713 14.552L12.954 15.448C12.7128 15.8658 12.8043 16.3963 13.1715 16.7092L13.5921 17.0675C13.534 17.3694 13.5036 17.6812 13.5036 18C13.5036 18.3189 13.534 18.6306 13.5921 18.9325L13.1715 19.2908C12.8043 19.6037 12.7128 20.1342 12.954 20.552L13.4713 21.448C13.7126 21.8658 14.2177 22.0518 14.6723 21.8902L15.1924 21.7053C15.6614 22.1133 16.2087 22.4337 16.8086 22.641L16.9081 23.181C16.9954 23.6555 17.4091 24 17.8915 24H18.9261C19.4086 24 19.8222 23.6555 19.9096 23.181L20.0085 22.6439C20.6107 22.437 21.1601 22.1162 21.6308 21.7073L22.1454 21.8902C22.6 22.0518 23.1051 21.8658 23.3463 21.448L23.8636 20.552C24.1049 20.1342 24.0134 19.6037 23.6461 19.2908L23.2323 18.9382C23.291 18.6345 23.3218 18.3209 23.3218 18C23.3218 17.6791 23.291 17.3655 23.2323 17.0618L23.6461 16.7092C24.0134 16.3963 24.1049 15.8658 23.8636 15.448L23.3463 14.552C23.1051 14.1342 22.6 13.9482 22.1454 14.1098L21.6308 14.2927C21.1601 13.8838 20.6107 13.563 20.0085 13.3561L19.9096 12.819C19.8222 12.3445 19.4086 12 18.9261 12H17.8915ZM18.4082 20C19.5127 20 20.4082 19.1046 20.4082 18C20.4082 16.8954 19.5127 16 18.4082 16C17.3036 16 16.4082 16.8954 16.4082 18C16.4082 19.1046 17.3036 20 18.4082 20Z" fill="#18202A"/>
</svg>
