<svg width="24" height="24" viewBox="0 0 24 24" fill="none" xmlns="http://www.w3.org/2000/svg">
<path fill-rule="evenodd" clip-rule="evenodd" d="M2.52045 11.6396V11.6909C2.52045 14.6802 3.69882 16.9238 5.5153 18.3954L6.0127 18.7984L6.21666 21.2459L8.76429 20.0701L9.26823 20.1894C10.1292 20.3932 11.0491 20.5 12.0102 20.5C17.8702 20.5 21.5 16.3293 21.5 11.6909C21.5 6.12042 17.3464 2.5 12.0102 2.5C6.64591 2.5 2.19452 6.883 2.51694 11.5884L2.52045 11.6396ZM23 11.6909C23 17.1736 18.6826 22 12.0102 22C10.9383 22 9.90216 21.8809 8.92267 21.649L6.19676 22.9071C5.56647 23.198 4.8388 22.774 4.78115 22.0822L4.57105 19.561C2.38822 17.7925 1.02045 15.1132 1.02045 11.6909C0.628009 5.96364 5.94074 1 12.0102 1C18.0797 1 23 5.2 23 11.6909Z" fill="#18202A"/>
<path fill-rule="evenodd" clip-rule="evenodd" d="M16.5 13C17.3284 13 18 12.3284 18 11.5C18 10.6716 17.3284 10 16.5 10C15.6716 10 15 10.6716 15 11.5C15 12.3284 15.6716 13 16.5 13Z" fill="#18202A"/>
<path fill-rule="evenodd" clip-rule="evenodd" d="M12 13C12.8284 13 13.5 12.3284 13.5 11.5C13.5 10.6716 12.8284 10 12 10C11.1716 10 10.5 10.6716 10.5 11.5C10.5 12.3284 11.1716 13 12 13Z" fill="#18202A"/>
<path fill-rule="evenodd" clip-rule="evenodd" d="M7.50002 13C8.32844 13 9.00002 12.3284 9.00002 11.5C9.00002 10.6716 8.32844 10 7.50002 10C6.67159 10 6.00002 10.6716 6.00002 11.5C6.00002 12.3284 6.67159 13 7.50002 13Z" fill="#18202A"/>
</svg>
