<svg width="24" height="24" viewBox="0 0 24 24" fill="none" xmlns="http://www.w3.org/2000/svg">
<path fill-rule="evenodd" clip-rule="evenodd" d="M12 12C14 12 15 10 15 7.5C15 5.5 14 4 12 4C10 4 9 5.5 9 7.5C9 10 10 12 12 12ZM12.9725 9.90135C13.2792 9.40296 13.5 8.58053 13.5 7.5C13.5 6.72878 13.3052 6.22022 13.0787 5.93704C12.8882 5.69891 12.5856 5.5 12 5.5C11.4144 5.5 11.1118 5.69891 10.9213 5.93704C10.6948 6.22022 10.5 6.72878 10.5 7.5C10.5 8.58053 10.7208 9.40296 11.0275 9.90135C11.2964 10.3384 11.5962 10.5 12 10.5C12.4038 10.5 12.7036 10.3384 12.9725 9.90135Z" fill="#18202A"/>
<path fill-rule="evenodd" clip-rule="evenodd" d="M14.669 21.8035C15.9343 21.6154 17.0265 20.8099 17.5584 19.6466C17.7461 19.2361 17.917 18.8163 18.0701 18.388C18.5937 16.9237 18.1555 15.253 16.8458 14.4146C15.447 13.5191 13.7841 13 12 13C10.2159 13 8.55303 13.5191 7.15423 14.4146C5.84449 15.253 5.40627 16.9237 5.92987 18.388C6.08299 18.8163 6.25385 19.2361 6.44156 19.6466C6.97352 20.8099 8.06571 21.6154 9.33097 21.8035C10.2019 21.9329 11.0931 22 12 22C12.9069 22 13.7981 21.9329 14.669 21.8035ZM12 20.5C12.8328 20.5 13.6504 20.4384 14.4485 20.3198C15.223 20.2047 15.8782 19.714 16.1943 19.0228C16.3643 18.651 16.519 18.2708 16.6577 17.883C16.9835 16.9717 16.6691 16.0825 16.037 15.6779C14.8724 14.9324 13.489 14.5 12 14.5C10.511 14.5 9.12754 14.9324 7.96295 15.6779C7.33093 16.0825 7.01645 16.9717 7.34229 17.883C7.48095 18.2708 7.63568 18.651 7.8057 19.0228C8.12177 19.714 8.77697 20.2047 9.55151 20.3198C10.3496 20.4384 11.1671 20.5 12 20.5Z" fill="#18202A"/>
<path fill-rule="evenodd" clip-rule="evenodd" d="M8 9.625C8 11.5 7.16667 13 5.5 13C3.83333 13 3 11.5 3 9.625C3 8.125 3.83333 7 5.5 7C7.16667 7 8 8.125 8 9.625ZM6.5 9.625C6.5 10.3679 6.33091 10.8851 6.13678 11.169C5.98352 11.3931 5.81009 11.5 5.5 11.5C5.18991 11.5 5.01648 11.3931 4.86322 11.169C4.66909 10.8851 4.5 10.3679 4.5 9.625C4.5 9.13975 4.63403 8.87264 4.74611 8.74655C4.83476 8.64682 5.0252 8.5 5.5 8.5C5.9748 8.5 6.16524 8.64682 6.25389 8.74655C6.36597 8.87264 6.5 9.13975 6.5 9.625Z" fill="#18202A"/>
<path fill-rule="evenodd" clip-rule="evenodd" d="M18.5 13C20.1667 13 21 11.5 21 9.625C21 8.125 20.1667 7 18.5 7C16.8333 7 16 8.125 16 9.625C16 11.5 16.8333 13 18.5 13ZM19.1368 11.169C19.3309 10.8851 19.5 10.3679 19.5 9.625C19.5 9.13975 19.366 8.87264 19.2539 8.74655C19.1652 8.64682 18.9748 8.5 18.5 8.5C18.0252 8.5 17.8348 8.64682 17.7461 8.74655C17.634 8.87264 17.5 9.13975 17.5 9.625C17.5 10.3679 17.6691 10.8851 17.8632 11.169C18.0165 11.3931 18.1899 11.5 18.5 11.5C18.8101 11.5 18.9835 11.3931 19.1368 11.169Z" fill="#18202A"/>
<path d="M20.9735 19.818C20.3418 19.9082 19.6995 19.9657 19.0484 19.9886C19.2049 19.6296 19.3498 19.2642 19.4825 18.893C19.5339 18.7494 19.5787 18.6036 19.617 18.4561C20.0025 18.4281 20.384 18.387 20.7613 18.333C21.2685 18.2606 21.6649 17.9225 21.8125 17.4663C21.9985 16.8911 21.7508 16.4143 21.4287 16.2446C20.8463 15.9378 20.2114 15.7167 19.5398 15.5986C19.3517 15.0213 19.0539 14.4772 18.6429 14.0034C19.8986 14.0402 21.0817 14.3664 22.1278 14.9175C23.1987 15.4817 23.6121 16.7762 23.2397 17.9279C22.9108 18.9448 22.0316 19.6667 20.9735 19.818Z" fill="#18202A"/>
<path d="M2.0077 14.7486C3.02652 14.2724 4.16226 14.0046 5.36006 14C4.95571 14.4652 4.66055 14.9984 4.47146 15.5643C3.82553 15.6556 3.21153 15.8417 2.64285 16.1075C2.27569 16.2791 1.98756 16.8036 2.19184 17.4395C2.35242 17.9394 2.79059 18.306 3.347 18.3747C3.69021 18.4171 4.03683 18.4489 4.38655 18.4699C4.42405 18.6126 4.4677 18.7539 4.51745 18.893C4.65093 19.2663 4.7967 19.6337 4.95429 19.9947C4.34941 19.9803 3.75191 19.9361 3.16322 19.8634C2.04458 19.7253 1.10845 18.9714 0.763722 17.8983C0.369715 16.6718 0.84064 15.2941 2.0077 14.7486Z" fill="#18202A"/>
</svg>
