<svg width="24" height="24" viewBox="0 0 24 24" fill="none" xmlns="http://www.w3.org/2000/svg">
<path d="M9.25 2.5C9.66421 2.5 10 2.83579 10 3.25V7.25C10 8.76878 8.76878 10 7.25 10H3.25C2.83579 10 2.5 9.66421 2.5 9.25C2.5 8.83579 2.83579 8.5 3.25 8.5H7.25C7.94036 8.5 8.5 7.94036 8.5 7.25V3.25C8.5 2.83579 8.83579 2.5 9.25 2.5Z" fill="#18202A"/>
<path d="M2.5 14.75C2.5 14.3358 2.83579 14 3.25 14H7.25C8.76878 14 10 15.2312 10 16.75V20.75C10 21.1642 9.66421 21.5 9.25 21.5C8.83579 21.5 8.5 21.1642 8.5 20.75V16.75C8.5 16.0596 7.94036 15.5 7.25 15.5H3.25C2.83579 15.5 2.5 15.1642 2.5 14.75Z" fill="#18202A"/>
<path d="M21.5 9.25C21.5 9.66421 21.1642 10 20.75 10H16.75C15.2312 10 14 8.76878 14 7.25V3.25C14 2.83579 14.3358 2.5 14.75 2.5C15.1642 2.5 15.5 2.83579 15.5 3.25V7.25C15.5 7.94036 16.0596 8.5 16.75 8.5H20.75C21.1642 8.5 21.5 8.83579 21.5 9.25Z" fill="#18202A"/>
<path d="M14.75 21.5C14.3358 21.5 14 21.1642 14 20.75L14 16.5962C14 15.1623 15.1623 14 16.5962 14H20.75C21.1642 14 21.5 14.3358 21.5 14.75C21.5 15.1642 21.1642 15.5 20.75 15.5H16.5962C15.9908 15.5 15.5 15.9908 15.5 16.5962L15.5 20.75C15.5 21.1642 15.1642 21.5 14.75 21.5Z" fill="#18202A"/>
</svg>
