<svg width="24" height="24" viewBox="0 0 24 24" fill="none" xmlns="http://www.w3.org/2000/svg">
<path fill-rule="evenodd" clip-rule="evenodd" d="M16 2.5H16.5C17.3284 2.5 18 3.17157 18 4V20C18 20.8284 17.3284 21.5 16.5 21.5H7.5C6.67157 21.5 6 20.8284 6 20V4C6 3.17157 6.67157 2.5 7.5 2.5H8C8 3.60457 8.89543 4.5 10 4.5H14C15.1046 4.5 16 3.60457 16 2.5ZM4.5 4C4.5 2.34315 5.84315 1 7.5 1H16.5C18.1569 1 19.5 2.34315 19.5 4V20C19.5 21.6569 18.1569 23 16.5 23H7.5C5.84315 23 4.5 21.6569 4.5 20V4Z" fill="#18202A"/>
</svg>
