<svg width="24" height="24" viewBox="0 0 24 24" fill="none" xmlns="http://www.w3.org/2000/svg">
<path fill-rule="evenodd" clip-rule="evenodd" d="M12 21.5C17.2467 21.5 21.5 17.2467 21.5 12C21.5 6.75329 17.2467 2.5 12 2.5C6.75329 2.5 2.5 6.75329 2.5 12C2.5 17.2467 6.75329 21.5 12 21.5ZM12 23C18.0751 23 23 18.0751 23 12C23 5.92487 18.0751 1 12 1C5.92487 1 1 5.92487 1 12C1 18.0751 5.92487 23 12 23Z" fill="#18202A"/>
<path fill-rule="evenodd" clip-rule="evenodd" d="M10.4697 7.46967C10.7626 7.17678 11.2374 7.17678 11.5303 7.46967L15.5303 11.4697C15.8232 11.7626 15.8232 12.2374 15.5303 12.5303L11.5303 16.5303C11.2374 16.8232 10.7626 16.8232 10.4697 16.5303C10.1768 16.2374 10.1768 15.7626 10.4697 15.4697L13.9393 12L10.4697 8.53033C10.1768 8.23744 10.1768 7.76256 10.4697 7.46967Z" fill="#18202A"/>
</svg>
