<svg width="24" height="24" viewBox="0 0 24 24" fill="none" xmlns="http://www.w3.org/2000/svg">
<g clip-path="url(#clip0_3736_8815)">
<path fill-rule="evenodd" clip-rule="evenodd" d="M12 0C12.5523 0 13 0.447715 13 1V2.04484C14.6144 2.19032 16.1281 2.68457 17.4654 3.45168L18.6242 2.29289C19.0147 1.90237 19.6479 1.90237 20.0384 2.29289C20.4289 2.68342 20.4289 3.31658 20.0384 3.70711L19.1258 4.61976C21.4963 6.63742 23 9.64311 23 13C23 19.0751 18.0751 24 12 24C5.92487 24 1 19.0751 1 13C1 7.26196 5.3935 2.55007 11 2.04484V1C11 0.447715 11.4477 0 12 0ZM12 5C12.5523 5 13 5.44772 13 6V12H18C18.5523 12 19 12.4477 19 13C19 13.5523 18.5523 14 18 14H12C11.4477 14 11 13.5523 11 13V6C11 5.44772 11.4477 5 12 5Z" fill="#18202A"/>
</g>
<defs>
<clipPath id="clip0_3736_8815">
<rect width="24" height="24" fill="white"/>
</clipPath>
</defs>
</svg>
