<svg width="24" height="24" viewBox="0 0 24 24" fill="none" xmlns="http://www.w3.org/2000/svg">
<path d="M11 6C11 5.44772 11.4477 5 12 5C12.5523 5 13 5.44772 13 6V12C13 12.5523 12.5523 13 12 13C11.4477 13 11 12.5523 11 12V6Z" fill="#18202A"/>
<path d="M17 11C17.5523 11 18 11.4477 18 12C18 12.5523 17.5523 13 17 13H12C11.4477 13 11 12.5523 11 12C11 11.4477 11.4477 11 12 11H17Z" fill="#18202A"/>
<path fill-rule="evenodd" clip-rule="evenodd" d="M12 3C8.6402 3 5.70899 4.84057 4.16196 7.57319L2.42152 6.58786C4.30907 3.25377 7.89069 1 12 1C18.0751 1 23 5.92487 23 12C23 18.0751 18.0751 23 12 23C5.92487 23 1 18.0751 1 12C1 11.5142 1.03156 11.0353 1.09281 10.5654C1.1642 10.0178 1.70388 9.67916 2.24275 9.80014C2.78162 9.92111 3.11458 10.4561 3.05428 11.0051C3.01843 11.3315 3 11.6635 3 12C3 16.9706 7.02944 21 12 21C16.9706 21 21 16.9706 21 12C21 7.02944 16.9706 3 12 3Z" fill="#18202A"/>
<path fill-rule="evenodd" clip-rule="evenodd" d="M2.45056 2.70928C2.99445 2.61338 3.51311 2.97655 3.60901 3.52044L4.04931 6.01746L6.54632 5.57717C7.09021 5.48126 7.60887 5.84443 7.70477 6.38833C7.80068 6.93222 7.43751 7.45088 6.89361 7.54678L3.41179 8.16072C2.8679 8.25662 2.34924 7.89346 2.25334 7.34956L1.6394 3.86774C1.5435 3.32385 1.90666 2.80519 2.45056 2.70928Z" fill="#18202A"/>
</svg>
