<svg width="24" height="24" viewBox="0 0 24 24" fill="none" xmlns="http://www.w3.org/2000/svg">
<g clip-path="url(#clip0_2266_32022)">
<path fill-rule="evenodd" clip-rule="evenodd" d="M13.2782 1.76255C12.5373 1.14686 11.4627 1.14686 10.7218 1.76255L0.360883 10.3722C-0.0638867 10.7251 -0.12209 11.3556 0.230882 11.7804C0.583854 12.2052 1.21434 12.2634 1.63911 11.9104L3 10.7795V21.0006C3 21.5529 3.44771 22.0006 4 22.0006H10V16.0006C10 15.4483 10.4477 15.0006 11 15.0006H13C13.5523 15.0006 14 15.4483 14 16.0006V22.0006H20C20.5523 22.0006 21 21.5529 21 21.0006V10.7795L22.3609 11.9104C22.7857 12.2634 23.4161 12.2052 23.7691 11.7804C24.1221 11.3556 24.0639 10.7251 23.6391 10.3722L13.2782 1.76255Z" fill="#18202A"/>
</g>
<defs>
<clipPath id="clip0_2266_32022">
<rect width="24" height="24" fill="white"/>
</clipPath>
</defs>
</svg>
