<svg width="24" height="24" viewBox="0 0 24 24" fill="none" xmlns="http://www.w3.org/2000/svg">
<path fill-rule="evenodd" clip-rule="evenodd" d="M2.53033 6.53033L5.53033 3.53033C5.82322 3.23744 5.82322 2.76256 5.53033 2.46967C5.23744 2.17678 4.76256 2.17678 4.46967 2.46967L1.46967 5.46967C1.17678 5.76256 1.17678 6.23744 1.46967 6.53033C1.76256 6.82322 2.23744 6.82322 2.53033 6.53033ZM20.5 13C20.5 17.6944 16.6944 21.5 12 21.5C7.30558 21.5 3.5 17.6944 3.5 13C3.5 8.30558 7.30558 4.5 12 4.5C16.6944 4.5 20.5 8.30558 20.5 13ZM22 13C22 18.5228 17.5228 23 12 23C6.47715 23 2 18.5228 2 13C2 7.47715 6.47715 3 12 3C17.5228 3 22 7.47715 22 13ZM18.4697 3.53033L21.4697 6.53033C21.7626 6.82322 22.2374 6.82322 22.5303 6.53033C22.8232 6.23744 22.8232 5.76256 22.5303 5.46967L19.5303 2.46967C19.2374 2.17678 18.7626 2.17678 18.4697 2.46967C18.1768 2.76256 18.1768 3.23744 18.4697 3.53033ZM12.75 7C12.75 6.58579 12.4142 6.25 12 6.25C11.5858 6.25 11.25 6.58579 11.25 7V13C11.25 13.3 11.4288 13.5712 11.7046 13.6894L15.2046 15.1894C15.5853 15.3525 16.0262 15.1762 16.1894 14.7954C16.3525 14.4147 16.1762 13.9738 15.7954 13.8106L12.75 12.5055V7Z" fill="#18202A"/>
</svg>
