<svg width="24" height="24" viewBox="0 0 24 24" fill="none" xmlns="http://www.w3.org/2000/svg">
<path fill-rule="evenodd" clip-rule="evenodd" d="M19 2.5H5C3.61929 2.5 2.5 3.61929 2.5 5V19C2.5 20.3807 3.61929 21.5 5 21.5H12.9982C13.2237 22.0409 13.5203 22.5448 13.8762 23H5C2.79086 23 1 21.2091 1 19V5C1 2.79086 2.79086 1 5 1H19C21.2091 1 23 2.79086 23 5V13.8762C22.5448 13.5203 22.0409 13.2237 21.5 12.9982V5C21.5 3.61929 20.3807 2.5 19 2.5ZM12.578 17.99C12.8834 16.0323 14.0626 14.364 15.704 13.3964C15.5947 13.2627 15.4657 13.1422 15.3174 13.0393C14.3723 12.3834 13.2302 12 12.0001 12C10.7701 12 9.628 12.3834 8.68289 13.0393C7.92683 13.5639 7.67279 14.5448 7.96263 15.4182C8.09076 15.8044 8.24001 16.1806 8.40897 16.5455C8.73296 17.2453 9.38644 17.7346 10.1478 17.8569C10.7513 17.9538 11.3699 18.0041 12.0001 18.0041C12.1939 18.0041 12.3865 17.9994 12.578 17.99ZM16.62 12.9495C17.3348 12.6681 18.1115 12.5098 18.924 12.5004C18.1917 12.167 17.3724 11.9805 16.5076 11.9805C16.2082 11.9805 15.9143 12.0028 15.6276 12.0459C15.7156 12.1012 15.8022 12.1585 15.8875 12.2177C16.1851 12.4243 16.4288 12.6731 16.62 12.9495ZM12 11C13.3333 11 14 9.75 14 8.1875C14 6.9375 13.3333 6 12 6C10.6667 6 10 6.9375 10 8.1875C10 9.75 10.6667 11 12 11ZM6.5 11C7.5 11 8 10 8 8.75C8 7.75 7.5 7 6.5 7C5.5 7 5 7.75 5 8.75C5 10 5.5 11 6.5 11ZM19 8.75C19 10 18.5 11 17.5 11C16.5 11 16 10 16 8.75C16 7.75 16.5 7 17.5 7C18.5 7 19 7.75 19 8.75ZM8.11278 12.2177C8.18864 12.165 8.2656 12.1139 8.34361 12.0643C8.02072 12.0092 7.6883 11.9805 7.34886 11.9805C6.40912 11.9805 5.52315 12.2008 4.74427 12.5903C4.0831 12.921 3.80507 13.6959 4.02577 14.4015C4.06863 14.5385 4.11426 14.6743 4.1626 14.809C4.37312 15.3954 4.8962 15.8091 5.51332 15.8948C6.03669 15.9675 6.57043 16.0095 7.11249 16.019C7.07832 15.9243 7.04533 15.829 7.01353 15.7332C6.60532 14.5031 6.93955 13.0318 8.11278 12.2177ZM24 19C24 21.7614 21.7614 24 19 24C16.2386 24 14 21.7614 14 19C14 16.2386 16.2386 14 19 14C21.7614 14 24 16.2386 24 19ZM19 16C19.4142 16 19.75 16.3358 19.75 16.75V18.25H21.25C21.6642 18.25 22 18.5858 22 19C22 19.4142 21.6642 19.75 21.25 19.75H19.75V21.25C19.75 21.6642 19.4142 22 19 22C18.5858 22 18.25 21.6642 18.25 21.25V19.75H16.75C16.3358 19.75 16 19.4142 16 19C16 18.5858 16.3358 18.25 16.75 18.25H18.25V16.75C18.25 16.3358 18.5858 16 19 16Z" fill="#18202A"/>
</svg>
