<svg width="24" height="24" viewBox="0 0 24 24" fill="none" xmlns="http://www.w3.org/2000/svg">
<path fill-rule="evenodd" clip-rule="evenodd" d="M20.7071 6.29289C21.0976 6.68342 21.0976 7.31658 20.7071 7.70711L11.7071 16.7071C11.3166 17.0976 10.6834 17.0976 10.2929 16.7071L7 13.4142L3.70711 16.7071C3.31658 17.0976 2.68342 17.0976 2.29289 16.7071C1.90237 16.3166 1.90237 15.6834 2.29289 15.2929L6.29289 11.2929C6.68342 10.9024 7.31658 10.9024 7.70711 11.2929L11 14.5858L19.2929 6.29289C19.6834 5.90237 20.3166 5.90237 20.7071 6.29289Z" fill="#18202A"/>
<path fill-rule="evenodd" clip-rule="evenodd" d="M12 7C12 6.44772 12.4477 6 13 6H20C20.5523 6 21 6.44772 21 7V14C21 14.5523 20.5523 15 20 15C19.4477 15 19 14.5523 19 14V8H13C12.4477 8 12 7.55228 12 7Z" fill="#18202A"/>
</svg>
