<svg width="24" height="24" viewBox="0 0 24 24" fill="none" xmlns="http://www.w3.org/2000/svg">
<path fill-rule="evenodd" clip-rule="evenodd" d="M15.1044 4.47734C15.3526 4.78244 15.7071 5 16.1004 5C16.8609 5 17.3841 4.2423 16.9545 3.61479C15.8737 2.03595 14.0578 1 12 1C8.68629 1 6 3.68629 6 7V8C3.79086 8 2 9.79086 2 12V19C2 21.2091 3.79086 23 6 23H18C20.2091 23 22 21.2091 22 19V12C22 9.79086 20.2091 8 18 8H8V7C8 4.79086 9.79086 3 12 3C13.2527 3 14.3709 3.57587 15.1044 4.47734ZM16.7071 12.2929C17.0976 12.6834 17.0976 13.3166 16.7071 13.7071L11.7071 18.7071C11.3166 19.0976 10.6834 19.0976 10.2929 18.7071L8.29289 16.7071C7.90237 16.3166 7.90237 15.6834 8.29289 15.2929C8.68342 14.9024 9.31658 14.9024 9.70711 15.2929L11 16.5858L15.2929 12.2929C15.6834 11.9024 16.3166 11.9024 16.7071 12.2929Z" fill="#18202A"/>
</svg>
