<svg width="24" height="24" viewBox="0 0 24 24" fill="none" xmlns="http://www.w3.org/2000/svg">
<path d="M7 3.5H11C12.933 3.5 14.5 5.067 14.5 7V8C14.5 8.41421 14.8358 8.75 15.25 8.75C15.6642 8.75 16 8.41421 16 8V7C16 4.23858 13.7614 2 11 2H7C4.23858 2 2 4.23858 2 7V17C2 19.7614 4.23858 22 7 22H11C13.7614 22 16 19.7614 16 17V16.1C16 15.6858 15.6642 15.35 15.25 15.35C14.8358 15.35 14.5 15.6858 14.5 16.1V17C14.5 18.933 12.933 20.5 11 20.5H7C5.067 20.5 3.5 18.933 3.5 17V7C3.5 5.067 5.067 3.5 7 3.5Z" fill="#18202A"/>
<path fill-rule="evenodd" clip-rule="evenodd" d="M17.4697 8.46967C17.7626 8.17678 18.2374 8.17678 18.5303 8.46967L21.5303 11.4697C21.8232 11.7626 21.8232 12.2374 21.5303 12.5303L18.5303 15.5303C18.2374 15.8232 17.7626 15.8232 17.4697 15.5303C17.1768 15.2374 17.1768 14.7626 17.4697 14.4697L19.1893 12.75H9C8.58579 12.75 8.25 12.4142 8.25 12C8.25 11.5858 8.58579 11.25 9 11.25H19.1893L17.4697 9.53033C17.1768 9.23744 17.1768 8.76256 17.4697 8.46967Z" fill="#18202A"/>
</svg>
