<svg width="24" height="24" viewBox="0 0 24 24" fill="none" xmlns="http://www.w3.org/2000/svg">
<path fill-rule="evenodd" clip-rule="evenodd" d="M5.73717 2.78869C5.34421 2.65771 4.91947 2.87008 4.78848 3.26303C4.6575 3.65599 4.86987 4.08073 5.26283 4.21172C5.57535 4.31589 5.92319 4.43008 6.29694 4.55277L6.29697 4.55278C7.73679 5.02544 9.56111 5.62432 11.2321 6.26324C12.284 6.66543 13.2536 7.07555 14.0136 7.47041C14.3936 7.66787 14.7076 7.85456 14.9478 8.02677C15.1972 8.2055 15.3241 8.33847 15.376 8.41623C15.5333 8.65228 15.6697 9.0512 15.7745 9.72486C15.8776 10.3875 15.9386 11.2281 16.0013 12.2942C16.0156 12.5378 16.03 12.7918 16.0449 13.0564L16.0449 13.0565C16.1599 15.0915 16.3102 17.7516 16.7566 21.0993C16.8113 21.5099 17.1885 21.7984 17.5991 21.7436C18.0097 21.6889 18.2982 21.3117 18.2434 20.9011C17.805 17.613 17.6576 15.0071 17.5426 12.9731V12.9731C17.5276 12.7078 17.5132 12.4522 17.4987 12.2062C17.4364 11.1473 17.3724 10.2379 17.2567 9.4943C17.1427 8.7617 16.9667 8.09813 16.624 7.58418C16.4259 7.28693 16.131 7.02929 15.8217 6.80762C15.5034 6.57945 15.122 6.35598 14.7052 6.13937C13.8714 5.70611 12.841 5.27247 11.7678 4.86216C10.059 4.2088 8.18731 3.59444 6.74665 3.12157C6.37875 3.00082 6.03895 2.88929 5.73717 2.78869ZM4.46852 7.91455C4.14507 7.65579 3.6731 7.70824 3.41435 8.03168C3.15559 8.35513 3.20803 8.8271 3.53148 9.08586C4.47132 9.83773 5.6597 10.2694 6.7968 10.5134C7.94118 10.7588 9.08832 10.8256 9.99475 10.8104C10.1991 10.807 10.3373 10.9555 10.3513 11.0923C10.592 13.4563 10.8736 15.1014 11.473 16.7014C12.0703 18.2957 12.9681 19.8044 14.376 21.9162C14.6057 22.2609 15.0714 22.354 15.416 22.1242C15.7607 21.8945 15.8538 21.4288 15.624 21.0842C14.2254 18.9863 13.4107 17.5979 12.8776 16.1752C12.3468 14.7581 12.0804 13.2662 11.8436 10.9404C11.744 9.9627 10.8853 9.29532 9.96963 9.31066C9.14807 9.32442 8.11878 9.26279 7.11139 9.04671C6.09672 8.82907 5.15801 8.46614 4.46852 7.91455ZM13.7658 2.80384C14.2482 2.9968 14.6797 3.17287 15.07 3.33945L14.4554 4.70857C14.0901 4.55288 13.6782 4.38436 13.2087 4.19656C12.8241 4.04272 12.6371 3.60624 12.7909 3.22166C12.9447 2.83707 13.3812 2.65001 13.7658 2.80384ZM17.1043 6.20118C16.7424 5.88779 16.3478 5.62196 15.8154 5.34157L16.4309 3.97058C17.1655 4.35102 17.7286 4.73335 18.2658 5.22805L17.1043 6.20118ZM18.3876 8.38095C18.2857 7.99904 18.1652 7.66656 18.0303 7.3822L19.2079 6.39564C19.4752 6.87037 19.6817 7.41228 19.8369 7.99445C19.8773 8.14565 19.9144 8.30074 19.9485 8.45948L18.443 8.60151C18.4253 8.5266 18.4068 8.45307 18.3876 8.38095ZM18.7373 11.5002C18.7373 11.0025 18.7166 10.5299 18.6762 10.0862L20.1696 9.94529C20.215 10.4424 20.2373 10.9625 20.2373 11.5002C20.2373 11.9144 19.9015 12.2502 19.4873 12.2502C19.073 12.2502 18.7373 11.9144 18.7373 11.5002ZM3.8239 11.6756C4.00319 11.3022 4.45123 11.1448 4.82463 11.3241C5.04697 11.4308 5.29001 11.5374 5.54865 11.6382L5.15349 13.0929C4.79603 12.9591 4.46694 12.8163 4.17538 12.6763C3.80198 12.497 3.64461 12.049 3.8239 11.6756ZM6.9839 12.0767L6.59028 13.5257C6.96171 13.61 7.34689 13.6754 7.7392 13.7133C7.74192 14.038 7.74841 14.3647 7.76394 14.6856L9.25422 14.4274C9.2375 13.9748 9.23725 13.4968 9.23725 13.0002C9.23725 12.586 8.90146 12.2502 8.48725 12.2502C7.98259 12.2502 7.47385 12.1841 6.9839 12.0767ZM7.93383 16.1785L9.41271 15.9223C9.47439 16.2111 9.55509 16.4588 9.65807 16.6648C9.84331 17.0353 9.69314 17.4858 9.32266 17.671C8.95218 17.8563 8.50167 17.7061 8.31643 17.3356C8.1379 16.9786 8.01694 16.5852 7.93383 16.1785Z" fill="#26282C"/>
</svg>
