<svg width="24" height="24" viewBox="0 0 24 24" fill="none" xmlns="http://www.w3.org/2000/svg">
<g clip-path="url(#clip0_3394_8855)">
<path d="M18.5 6.5C18.5 7.05228 18.0523 7.5 17.5 7.5C16.9477 7.5 16.5 7.05228 16.5 6.5C16.5 5.94772 16.9477 5.5 17.5 5.5C18.0523 5.5 18.5 5.94772 18.5 6.5Z" fill="#18202A"/>
<path fill-rule="evenodd" clip-rule="evenodd" d="M16.6963 1C16.3638 1 16.0772 1.23394 16.0105 1.55972L15.8572 2.30929C15.4343 2.47522 15.0426 2.70332 14.6933 2.98235L13.9663 2.73995C13.6509 2.63477 13.305 2.76603 13.1387 3.05401L12.335 4.44604C12.1688 4.73402 12.228 5.09922 12.4769 5.31982L13.0499 5.82787C13.0171 6.04714 13 6.27158 13 6.5C13 6.72843 13.0171 6.95289 13.0499 7.17217L12.4769 7.6802C12.2281 7.9008 12.1688 8.26601 12.335 8.55399L13.1387 9.94601C13.305 10.234 13.6509 10.3653 13.9664 10.2601L14.6934 10.0177C15.0426 10.2967 15.4343 10.5248 15.8572 10.6907L16.0105 11.4403C16.0772 11.7661 16.3638 12 16.6963 12H18.3037C18.6363 12 18.9229 11.7661 18.9895 11.4403L19.1428 10.6907C19.5658 10.5248 19.9575 10.2967 20.3067 10.0177L21.0337 10.2601C21.3491 10.3653 21.695 10.234 21.8613 9.94604L22.665 8.55401C22.8313 8.26603 22.772 7.90083 22.5232 7.68023L21.9502 7.17222C21.983 6.95292 22 6.72845 22 6.5C22 6.27157 21.983 6.04711 21.9502 5.82783L22.5232 5.3198C22.772 5.0992 22.8313 4.73399 22.665 4.44601L21.8613 3.05399C21.6951 2.76601 21.3491 2.63474 21.0337 2.73993L20.3067 2.98232C19.9575 2.7033 19.5658 2.47521 19.1428 2.30929L18.9895 1.55972C18.9229 1.23394 18.6363 1 18.3037 1H16.6963ZM20 6.5C20 7.88071 18.8807 9 17.5 9C16.1193 9 15 7.88071 15 6.5C15 5.11929 16.1193 4 17.5 4C18.8807 4 20 5.11929 20 6.5Z" fill="#18202A"/>
<path d="M8 17.5C8.82843 17.5 9.5 16.8284 9.5 16C9.5 15.1716 8.82843 14.5 8 14.5C7.17157 14.5 6.5 15.1716 6.5 16C6.5 16.8284 7.17157 17.5 8 17.5Z" fill="#18202A"/>
<path fill-rule="evenodd" clip-rule="evenodd" d="M6.10217 9.06602C6.16628 8.73727 6.45428 8.5 6.78923 8.5H9.21086C9.5458 8.5 9.83381 8.73727 9.89792 9.06602L10.158 10.3998C10.7453 10.6262 11.2881 10.9424 11.7694 11.3316L13.0561 10.8894C13.3729 10.7805 13.7223 10.9113 13.8898 11.2014L15.1006 13.2986C15.2681 13.5887 15.2066 13.9567 14.954 14.1766L13.9283 15.0693C13.9755 15.3726 14 15.6834 14 16C14 16.3166 13.9755 16.6275 13.9283 16.9309L14.9539 17.8235C15.2065 18.0434 15.268 18.4115 15.1006 18.7015L13.8897 20.7987C13.7223 21.0888 13.3728 21.2196 13.056 21.1107L11.7693 20.6685C11.288 21.0576 10.7453 21.3738 10.158 21.6002L9.89792 22.934C9.83381 23.2627 9.5458 23.5 9.21086 23.5H6.78923C6.45428 23.5 6.16628 23.2627 6.10217 22.934L5.84209 21.6002C5.25475 21.3738 4.712 21.0576 4.23065 20.6684L2.94397 21.1106C2.62721 21.2195 2.27772 21.0887 2.11025 20.7986L0.899434 18.7014C0.731962 18.4113 0.793441 18.0433 1.04609 17.8234L2.07179 16.9307C2.02456 16.6274 2.00004 16.3166 2.00004 16C2.00004 15.6835 2.02455 15.3727 2.07176 15.0695L1.04602 14.1767C0.793362 13.9569 0.731884 13.5888 0.899355 13.2987L2.11017 11.2015C2.27764 10.9115 2.62713 10.7807 2.94389 10.8895L4.23051 11.3317C4.7119 10.9425 5.25469 10.6263 5.84209 10.3998L6.10217 9.06602ZM8 19.5C9.933 19.5 11.5 17.933 11.5 16C11.5 14.067 9.933 12.5 8 12.5C6.067 12.5 4.5 14.067 4.5 16C4.5 17.933 6.067 19.5 8 19.5Z" fill="#18202A"/>
</g>
<defs>
<clipPath id="clip0_3394_8855">
<rect width="24" height="24" fill="white"/>
</clipPath>
</defs>
</svg>
