<svg width="24" height="24" viewBox="0 0 24 24" fill="none" xmlns="http://www.w3.org/2000/svg">
<path fill-rule="evenodd" clip-rule="evenodd" d="M3.43382 4.41438C3.75727 4.15562 4.22924 4.20806 4.48799 4.53151L6.48799 7.03151C6.66809 7.25663 6.70321 7.56507 6.57832 7.82492C6.45343 8.08477 6.19064 8.25003 5.90234 8.25003H3.90234C3.48813 8.25003 3.15234 7.91424 3.15234 7.50003C3.15234 7.08581 3.48813 6.75003 3.90234 6.75003H4.34187L3.31669 5.46855C3.05793 5.1451 3.11037 4.67313 3.43382 4.41438ZM9.40234 5.75C9.81656 5.75 10.1523 6.08579 10.1523 6.5L10.1523 6.57569C10.1524 7.50777 10.1524 8.17768 10.0823 8.66857C10.0001 9.24381 9.81277 9.65023 9.43267 10.0303C8.76712 10.6959 7.56304 11.25 5.90234 11.25C5.10953 11.25 4.58325 11.537 4.238 11.9685C3.87472 12.4226 3.65234 13.1144 3.65234 14V19.5C3.65234 19.9142 3.31656 20.25 2.90234 20.25C2.48813 20.25 2.15234 19.9142 2.15234 19.5V14C2.15234 12.8856 2.42996 11.8274 3.06669 11.0315C3.72144 10.213 4.69516 9.75 5.90234 9.75C7.24165 9.75 8.03757 9.30412 8.37201 8.96967C8.49192 8.84977 8.55456 8.75619 8.59738 8.45643C8.65037 8.0855 8.65234 7.52835 8.65234 6.5C8.65234 6.08579 8.98813 5.75 9.40234 5.75ZM14.4023 5.75C14.8166 5.75 15.1523 6.08579 15.1523 6.5C15.1523 7.52835 15.1543 8.0855 15.2073 8.45643C15.2501 8.75619 15.3128 8.84977 15.4327 8.96967C15.7671 9.30412 16.563 9.75 17.9023 9.75C19.1095 9.75 20.0832 10.213 20.738 11.0315C21.3747 11.8274 21.6523 12.8856 21.6523 14V19.5C21.6523 19.9142 21.3166 20.25 20.9023 20.25C20.4881 20.25 20.1523 19.9142 20.1523 19.5V14C20.1523 13.1144 19.93 12.4226 19.5667 11.9685C19.2214 11.537 18.6952 11.25 17.9023 11.25C16.2417 11.25 15.0376 10.6959 14.372 10.0303C13.9919 9.65023 13.8046 9.24381 13.7224 8.66857C13.6523 8.17768 13.6523 7.50777 13.6523 6.57569L13.6523 6.5C13.6523 6.08579 13.9881 5.75 14.4023 5.75ZM19.3167 4.53151C19.5755 4.20806 20.0474 4.15562 20.3709 4.41438C20.6943 4.67313 20.7468 5.1451 20.488 5.46855L19.4628 6.75003H19.9023C20.3166 6.75003 20.6523 7.08581 20.6523 7.50003C20.6523 7.91424 20.3166 8.25003 19.9023 8.25003H17.9023C17.614 8.25003 17.3513 8.08477 17.2264 7.82492C17.1015 7.56507 17.1366 7.25663 17.3167 7.03151L19.3167 4.53151Z" fill="#26282C"/>
</svg>
