<svg width="24" height="24" viewBox="0 0 24 24" fill="none" xmlns="http://www.w3.org/2000/svg">
<path fill-rule="evenodd" clip-rule="evenodd" d="M4 2C2.89543 2 2 2.89543 2 4V6C2 7.10457 2.89543 8 4 8H5.25V18C5.25 19.5188 6.48122 20.75 8 20.75H15.1454C15.4421 21.483 16.1607 22 17 22H20C21.1046 22 22 21.1046 22 20V19C22 17.8954 21.1046 17 20 17H17C15.8954 17 15 17.8954 15 19V19.25H8C7.30964 19.25 6.75 18.6904 6.75 18V13.75H15.1454C15.4421 14.483 16.1607 15 17 15H20C21.1046 15 22 14.1046 22 13V12C22 10.8954 21.1046 10 20 10H17C15.8954 10 15 10.8954 15 12V12.25H6.75V8H9C10.1046 8 11 7.10457 11 6V4C11 2.89543 10.1046 2 9 2H4ZM3.5 4C3.5 3.72386 3.72386 3.5 4 3.5H9C9.27614 3.5 9.5 3.72386 9.5 4V6C9.5 6.27614 9.27614 6.5 9 6.5H4C3.72386 6.5 3.5 6.27614 3.5 6V4ZM20.5 12C20.5 11.7239 20.2761 11.5 20 11.5H17C16.7239 11.5 16.5 11.7239 16.5 12V13C16.5 13.2761 16.7239 13.5 17 13.5H20C20.2761 13.5 20.5 13.2761 20.5 13V12ZM16.5 19C16.5 18.7239 16.7239 18.5 17 18.5H20C20.2761 18.5 20.5 18.7239 20.5 19V20C20.5 20.2761 20.2761 20.5 20 20.5H17C16.7239 20.5 16.5 20.2761 16.5 20V19Z" fill="#18202A"/>
</svg>
