<svg width="28" height="28" viewBox="0 0 28 28" fill="none" xmlns="http://www.w3.org/2000/svg">
<path fill-rule="evenodd" clip-rule="evenodd" d="M4.66666 5.91148L1.4245 2.66932C1.08071 2.32553 1.08071 1.76814 1.4245 1.42435C1.76829 1.08056 2.32569 1.08056 2.66948 1.42435L26.5755 25.3304C26.9193 25.6741 26.9193 26.2315 26.5755 26.5753C26.2317 26.9191 25.6743 26.9191 25.3305 26.5753L23.3333 24.5781V25.6665C23.3333 26.6279 22.2358 27.1767 21.4667 26.5998L15.4 22.0498C14.5704 21.4276 13.4296 21.4276 12.6 22.0498L6.53332 26.5998C5.76421 27.1767 4.66666 26.6279 4.66666 25.6665V5.91148ZM21.5833 22.8281V24.4998L16.45 20.6498C14.9981 19.5609 13.0018 19.5609 11.55 20.6498L6.41666 24.4998V8.74984H7.50501L21.5833 22.8281ZM21.5833 6.99984H10.7182L12.4682 8.74984H21.5833V17.865L23.3333 19.615V5.83317C23.3333 3.25584 21.244 1.1665 18.6667 1.1665H9.33332C8.10016 1.1665 6.9787 1.64482 6.14437 2.42604L7.38289 3.66455C7.89961 3.19951 8.58342 2.9165 9.33332 2.9165H18.6667C20.2775 2.9165 21.5833 4.22234 21.5833 5.83317V6.99984Z" fill="#18202A"/>
</svg>
