<svg width="28" height="28" viewBox="0 0 28 28" fill="none" xmlns="http://www.w3.org/2000/svg">
<path d="M13.5626 1.23051C13.7907 1.16224 14.0316 1.14858 14.2648 1.18955L14.438 1.23051L25.8023 4.64879C26.4155 4.83362 26.8339 5.38073 26.8333 5.99961C26.8333 21.136 18.8939 24.7544 14.6275 26.6975C14.4292 26.7879 14.215 26.8332 14.0003 26.8332C13.7856 26.8332 13.5708 26.7879 13.3719 26.6975L12.754 26.4144C8.38474 24.3924 1.16666 20.432 1.16666 5.99961C1.16666 5.43178 1.51819 4.92473 2.04908 4.70225L2.19818 4.64879L13.5626 1.23051ZM14.0012 2.92584L2.91782 6.259L2.92071 6.58212C3.00445 12.5471 4.38174 16.8324 6.78177 19.8875L7.01721 20.1794C8.7761 22.3024 10.5052 23.4385 13.6572 24.9026L13.9988 25.0598L14.341 24.9032L15.2061 24.4919C17.6924 23.2779 19.2314 22.2125 20.7429 20.4631L20.9827 20.1796C23.528 17.1073 24.9928 12.7396 25.0793 6.58062L25.081 6.259L14.0012 2.92584Z" fill="#18202A"/>
<path fill-rule="evenodd" clip-rule="evenodd" d="M4.67039 7.65817L4.66666 7.5505L13.9685 4.75284L23.2692 7.5505L23.2393 8.18679C22.9494 13.0925 21.6608 16.58 19.6036 19.0631L19.3914 19.314C18.0459 20.8702 16.6563 21.8265 14.3241 22.9594L13.9685 23.1302L13.6105 22.9584C11.1568 21.7661 9.74728 20.7697 8.33332 19.0629L8.11586 18.793C6.11389 16.2376 4.88876 12.6633 4.67039 7.65817ZM6.49736 8.82733C6.83804 12.9023 7.93236 15.7169 9.48637 17.7047L9.68835 17.9554C10.8196 19.3187 11.9291 20.1589 13.9684 21.1834C15.9067 20.2098 16.997 19.406 18.0617 18.1762L18.2616 17.9399C19.9173 15.9382 21.085 13.0642 21.4394 8.82757L13.9685 6.58029L6.49736 8.82733Z" fill="#18202A"/>
</svg>
