<svg width="28" height="28" viewBox="0 0 28 28" fill="none" xmlns="http://www.w3.org/2000/svg">
<path fill-rule="evenodd" clip-rule="evenodd" d="M14 8.16699C15.2887 8.16699 16.3333 7.12232 16.3333 5.83366C16.3333 4.54499 15.2887 3.50033 14 3.50033C12.7113 3.50033 11.6667 4.54499 11.6667 5.83366C11.6667 7.12232 12.7113 8.16699 14 8.16699ZM18.6667 5.83366C18.6667 8.00814 17.1794 9.83525 15.1667 10.3533V24.4353C17.5222 24.1721 19.7325 23.1171 21.4246 21.4249C23.1168 19.7328 24.1717 17.5225 24.435 15.167H22.1667C21.5223 15.167 21 14.6447 21 14.0003C21 13.356 21.5223 12.8337 22.1667 12.8337H25.6667C26.311 12.8337 26.8333 13.356 26.8333 14.0003C26.8333 17.4039 25.4813 20.6681 23.0745 23.0749C20.6678 25.4816 17.4036 26.8337 14 26.8337C10.5964 26.8337 7.33218 25.4816 4.92546 23.0749C2.51874 20.6681 1.16666 17.4039 1.16666 14.0003C1.16666 13.6909 1.28958 13.3942 1.50837 13.1754C1.72717 12.9566 2.02391 12.8337 2.33333 12.8337H5.83333C6.47766 12.8337 7 13.356 7 14.0003C7 14.6447 6.47766 15.167 5.83333 15.167H3.56498C3.82827 17.5225 4.88321 19.7328 6.57538 21.4249C8.26754 23.1171 10.4778 24.1721 12.8333 24.4353V10.3533C10.8206 9.83526 9.33333 8.00814 9.33333 5.83366C9.33333 3.25633 11.4227 1.16699 14 1.16699C16.5773 1.16699 18.6667 3.25633 18.6667 5.83366Z" fill="#18202A"/>
</svg>
