<svg width="28" height="28" viewBox="0 0 28 28" fill="none" xmlns="http://www.w3.org/2000/svg">
<path fill-rule="evenodd" clip-rule="evenodd" d="M11.4543 5.76256L13.2751 7.58333H22.1667C23.7775 7.58333 25.0833 8.88917 25.0833 10.5H2.91666V8.16667C2.91666 6.55584 4.22249 5.25 5.83332 5.25H10.2169C10.681 5.25 11.1262 5.43437 11.4543 5.76256ZM2.91666 11.6667V19.8333C2.91666 21.4442 4.22249 22.75 5.83332 22.75H22.1667C23.7775 22.75 25.0833 21.4442 25.0833 19.8333V11.6667H2.91666ZM1.16666 8.16667C1.16666 5.58934 3.25599 3.5 5.83332 3.5H10.2169C11.1452 3.5 12.0354 3.86875 12.6918 4.52513L14 5.83333H22.1667C24.744 5.83333 26.8333 7.92267 26.8333 10.5V19.8333C26.8333 22.4107 24.744 24.5 22.1667 24.5H5.83332C3.25599 24.5 1.16666 22.4107 1.16666 19.8333V8.16667Z" fill="#18202A"/>
</svg>
