<svg width="28" height="28" viewBox="0 0 28 28" fill="none" xmlns="http://www.w3.org/2000/svg">
<g clip-path="url(#clip0_3750_8816)">
<path d="M10.7371 4.66553L10.792 4.66406L10.8453 4.66547C10.8715 4.66698 10.8977 4.6697 10.9239 4.67367L10.9427 4.67811C11.0423 4.69412 11.1414 4.72971 11.2357 4.78562L11.2963 4.82475L17.0966 8.90335C17.1656 8.95187 17.2577 8.95188 17.3267 8.90336L23.1232 4.82866C23.6688 4.44507 24.4082 4.78985 24.4933 5.42258L24.5014 5.54448V17.9491C24.5014 18.1933 24.3995 18.4244 24.2236 18.5886L24.1296 18.6649L17.7129 23.1757C17.4016 23.3946 17.0271 23.3763 16.7471 23.2027L10.9065 19.0938C10.8375 19.0453 10.7455 19.0453 10.6764 19.0938L4.87687 23.1718C4.3312 23.5554 3.59183 23.2106 3.50674 22.5779L3.49866 22.456V10.0514C3.49866 9.80714 3.60057 9.57604 3.77646 9.41182L3.87045 9.33552L10.2871 4.82475C10.3618 4.77226 10.4401 4.73341 10.5198 4.70707L10.6627 4.6744L10.7371 4.66553ZM22.7514 7.61423C22.7514 7.45224 22.5689 7.35745 22.4364 7.45061L18.1697 10.45C18.1164 10.4874 18.0847 10.5485 18.0847 10.6136V20.3901C18.0847 20.5521 18.2672 20.6469 18.3997 20.5537L22.6664 17.5544C22.7197 17.5169 22.7514 17.4559 22.7514 17.3908V7.61423ZM9.91532 7.61032C9.91532 7.44834 9.73282 7.35355 9.6003 7.44671L5.33364 10.4461C5.28036 10.4835 5.24866 10.5446 5.24866 10.6097V20.3862C5.24866 20.5482 5.43116 20.643 5.56368 20.5498L9.83034 17.5505C9.88362 17.513 9.91532 17.452 9.91532 17.3869V7.61032ZM11.9831 7.44671C11.8506 7.35355 11.6681 7.44834 11.6681 7.61032V17.3869C11.6681 17.452 11.6998 17.513 11.753 17.5505L16.0197 20.5498C16.1522 20.643 16.3347 20.5482 16.3347 20.3862V10.6097C16.3347 10.5446 16.303 10.4835 16.2497 10.4461L11.9831 7.44671Z" fill="#18202A"/>
</g>
<defs>
<clipPath id="clip0_3750_8816">
<rect width="28" height="28" fill="white"/>
</clipPath>
</defs>
</svg>
