<svg width="28" height="28" viewBox="0 0 28 28" fill="none" xmlns="http://www.w3.org/2000/svg">
<path d="M20.7507 5.38751C21.1488 4.88086 21.0608 4.14743 20.5541 3.74934C20.0475 3.35126 19.314 3.43927 18.916 3.94592L6.89509 19.2452L4.32496 16.6751C3.86935 16.2195 3.13066 16.2195 2.67504 16.6751C2.21943 17.1307 2.21943 17.8694 2.67504 18.325L6.17504 21.825C6.41096 22.0609 6.73659 22.1845 7.06963 22.1646C7.40267 22.1447 7.71125 21.9832 7.91737 21.7208L20.7507 5.38751Z" fill="#18202A"/>
<path d="M22.1667 8.16667C21.5223 8.16667 21 8.689 21 9.33333C21 9.97767 21.5223 10.5 22.1667 10.5H24.5C25.1443 10.5 25.6667 9.97767 25.6667 9.33333C25.6667 8.689 25.1443 8.16667 24.5 8.16667H22.1667Z" fill="#18202A"/>
<path d="M16.3333 15.1667C16.3333 14.5223 16.8557 14 17.5 14H24.5C25.1443 14 25.6667 14.5223 25.6667 15.1667C25.6667 15.811 25.1443 16.3333 24.5 16.3333H17.5C16.8557 16.3333 16.3333 15.811 16.3333 15.1667Z" fill="#18202A"/>
<path d="M12.8333 19.8333C12.189 19.8333 11.6667 20.3557 11.6667 21C11.6667 21.6443 12.189 22.1667 12.8333 22.1667H24.5C25.1443 22.1667 25.6667 21.6443 25.6667 21C25.6667 20.3557 25.1443 19.8333 24.5 19.8333H12.8333Z" fill="#18202A"/>
</svg>
