<svg width="28" height="28" viewBox="0 0 28 28" fill="none" xmlns="http://www.w3.org/2000/svg">
<path fill-rule="evenodd" clip-rule="evenodd" d="M19.8333 6.41699H8.16666C7.20016 6.41699 6.41666 7.20049 6.41666 8.16699V19.8337C6.41666 20.8002 7.20016 21.5837 8.16666 21.5837H19.8333C20.7998 21.5837 21.5833 20.8002 21.5833 19.8337V8.16699C21.5833 7.20049 20.7998 6.41699 19.8333 6.41699ZM8.16666 4.66699C6.23366 4.66699 4.66666 6.234 4.66666 8.16699V19.8337C4.66666 21.7667 6.23366 23.3337 8.16666 23.3337H19.8333C21.7663 23.3337 23.3333 21.7667 23.3333 19.8337V8.16699C23.3333 6.234 21.7663 4.66699 19.8333 4.66699H8.16666Z" fill="#18202A"/>
</svg>
