<svg width="28" height="28" viewBox="0 0 28 28" fill="none" xmlns="http://www.w3.org/2000/svg">
<g clip-path="url(#clip0_2294_9114)">
<path fill-rule="evenodd" clip-rule="evenodd" d="M17.5 27.5589V18.6802L17.5001 26.3502C21.7739 25.1413 25.1413 21.7739 26.3502 17.5001L20.7255 17.5H27.5589C27.8468 16.3813 28 15.2085 28 14C28 12.7914 27.8468 11.6187 27.5589 10.5H17.9133L26.3501 10.4995C25.1412 6.22589 21.7738 2.85856 17.5001 1.64974L17.5 9.31976V0.441061L17.0173 0.32597C16.0455 0.112508 15.0359 0 14 0L13.4843 0.00932216C12.4575 0.0465038 11.4589 0.194268 10.5 0.441061V10.0868L10.4996 1.64981C6.22601 2.85869 2.85872 6.22597 1.64985 10.4995L10.0868 10.5L0.441061 10.5L0.32597 10.9827C0.112508 11.9545 0 12.9641 0 14C0 15.2085 0.153135 16.3813 0.441061 17.5H7.27446L1.64978 17.5001C2.85859 21.7738 6.22592 25.1412 10.4996 26.3501L10.5 17.9132L10.5056 17.9181C10.5146 17.9262 10.5236 17.9342 10.5327 17.9422L10.5056 17.9181C10.3583 17.7867 10.2185 17.6471 10.0868 17.5L9.91373 17.2965C9.18586 16.3954 8.75 15.2485 8.75 14C8.75 12.6659 9.24766 11.4479 10.0675 10.5217C10.0705 10.5183 10.0735 10.5149 10.0765 10.5115C10.08 10.5077 10.0834 10.5038 10.0868 10.5C10.2168 10.3547 10.3547 10.2168 10.5 10.0868L10.7035 9.91373C11.6046 9.18586 12.7515 8.75 14 8.75L14.2863 8.75767C15.5183 8.82388 16.6376 9.31487 17.5 10.0868C17.6451 10.2167 17.7831 10.3546 17.9133 10.5C17.9146 10.5015 17.916 10.5031 17.9174 10.5046L17.9386 10.5285C18.7547 11.4538 19.25 12.6691 19.25 14C19.25 15.3446 18.7445 16.5712 17.9133 17.5L17.9191 17.4933C17.7872 17.6412 17.6471 17.7815 17.4997 17.9135L17.4985 17.9145L17.2965 18.0863C16.3954 18.8141 15.2485 19.25 14 19.25C12.6554 19.25 11.4288 18.7444 10.5 17.9132L10.5 27.5589L10.9827 27.674C11.9545 27.8875 12.9641 28 14 28L14.5157 27.9907C15.5425 27.9535 16.5411 27.8057 17.5 27.5589ZM10.0868 17.5C10.0867 17.4998 10.0869 17.5001 10.0868 17.5V17.5ZM15.5988 20.8161L15.75 20.7772V26.1228L15.5519 26.1528C15.0406 26.2174 14.5226 26.25 14 26.25L13.4632 26.2385C13.1065 26.2231 12.7523 26.1925 12.4013 26.1468L12.25 26.1228V20.7772L12.4012 20.8161C12.9191 20.9372 13.4549 21 14 21C14.5451 21 15.0809 20.9372 15.5988 20.8161ZM20.7772 12.25H26.1228L26.1528 12.4481C26.2174 12.9594 26.25 13.4774 26.25 14L26.2391 14.521C26.2247 14.8672 26.1958 15.211 26.1528 15.5519L26.1228 15.75H20.7772L20.8161 15.5988C20.9372 15.0809 21 14.5451 21 14L20.9925 13.6741C20.9726 13.2413 20.913 12.8156 20.8161 12.4012L20.7772 12.25ZM1.876 12.25H7.22167L7.18386 12.4012C7.06277 12.9191 7 13.4549 7 14L7.00736 14.323C7.02694 14.752 7.08543 15.1742 7.18072 15.5854L7.22283 15.75H1.876L1.84718 15.5519C1.78263 15.0406 1.75 14.5227 1.75 14L1.76152 13.4631C1.77687 13.1064 1.8075 12.7523 1.85319 12.4012L1.876 12.25ZM12.448 1.84718C12.9593 1.78264 13.4773 1.75 14 1.75L14.5368 1.76152C14.8935 1.77686 15.2477 1.80749 15.5988 1.85319L15.75 1.876V7.22167L15.5988 7.18387C15.0809 7.06277 14.5451 7 14 7L13.677 7.00736C13.248 7.02694 12.8258 7.08543 12.4146 7.18072L12.25 7.22167V1.876L12.448 1.84718Z" fill="#18202A"/>
</g>
<defs>
<clipPath id="clip0_2294_9114">
<rect width="28" height="28" fill="white"/>
</clipPath>
</defs>
</svg>
