<svg width="28" height="28" viewBox="0 0 28 28" fill="none" xmlns="http://www.w3.org/2000/svg">
<path d="M8.16669 5.25C8.16669 6.2165 8.95019 7 9.91669 7C10.8832 7 11.6667 6.2165 11.6667 5.25C11.6667 4.2835 10.8832 3.5 9.91669 3.5C8.95019 3.5 8.16669 4.2835 8.16669 5.25Z" fill="#18202A"/>
<path d="M16.3334 5.25C16.3334 6.2165 17.1169 7 18.0834 7C19.0499 7 19.8334 6.2165 19.8334 5.25C19.8334 4.2835 19.0499 3.5 18.0834 3.5C17.1169 3.5 16.3334 4.2835 16.3334 5.25Z" fill="#18202A"/>
<path d="M18.0834 15.1667C17.1169 15.1667 16.3334 14.3832 16.3334 13.4167C16.3334 12.4502 17.1169 11.6667 18.0834 11.6667C19.0499 11.6667 19.8334 12.4502 19.8334 13.4167C19.8334 14.3832 19.0499 15.1667 18.0834 15.1667Z" fill="#18202A"/>
<path d="M8.16669 13.4167C8.16669 14.3832 8.95019 15.1667 9.91669 15.1667C10.8832 15.1667 11.6667 14.3832 11.6667 13.4167C11.6667 12.4502 10.8832 11.6667 9.91669 11.6667C8.95019 11.6667 8.16669 12.4502 8.16669 13.4167Z" fill="#18202A"/>
<path d="M18.0834 23.3333C17.1169 23.3333 16.3334 22.5498 16.3334 21.5833C16.3334 20.6168 17.1169 19.8333 18.0834 19.8333C19.0499 19.8333 19.8334 20.6168 19.8334 21.5833C19.8334 22.5498 19.0499 23.3333 18.0834 23.3333Z" fill="#18202A"/>
<path d="M8.16669 21.5833C8.16669 22.5498 8.95019 23.3333 9.91669 23.3333C10.8832 23.3333 11.6667 22.5498 11.6667 21.5833C11.6667 20.6168 10.8832 19.8333 9.91669 19.8333C8.95019 19.8333 8.16669 20.6168 8.16669 21.5833Z" fill="#18202A"/>
</svg>
