<svg width="28" height="28" viewBox="0 0 28 28" fill="none" xmlns="http://www.w3.org/2000/svg">
<path fill-rule="evenodd" clip-rule="evenodd" d="M11.9083 7.24162C12.3639 6.78601 12.3639 6.04732 11.9083 5.59171C11.4527 5.1361 10.714 5.1361 10.2584 5.59171L2.67508 13.175C2.21947 13.6307 2.21947 14.3693 2.67508 14.825L10.2584 22.4083C10.714 22.8639 11.4527 22.8639 11.9083 22.4083C12.3639 21.9527 12.3639 21.214 11.9083 20.7584L5.14996 14L11.9083 7.24162ZM16.0917 7.24162C15.6361 6.78601 15.6361 6.04732 16.0917 5.59171C16.5474 5.1361 17.2861 5.1361 17.7417 5.59171L25.325 13.175C25.7806 13.6307 25.7806 14.3693 25.325 14.825L17.7417 22.4083C17.2861 22.8639 16.5474 22.8639 16.0917 22.4083C15.6361 21.9527 15.6361 21.214 16.0917 20.7584L22.8501 14L16.0917 7.24162Z" fill="#18202A"/>
</svg>
