<svg width="28" height="28" viewBox="0 0 28 28" fill="none" xmlns="http://www.w3.org/2000/svg">
<path d="M0 8.16667C0 5.58934 2.08934 3.5 4.66667 3.5H16.3333C18.9107 3.5 21 5.58934 21 8.16667V19.8333C21 22.4107 18.9107 24.5 16.3333 24.5H4.66667C2.08934 24.5 0 22.4107 0 19.8333V8.16667Z" fill="#18202A"/>
<path d="M22.1667 10.6309C22.1667 10.2557 22.3471 9.90339 22.6516 9.68415L26.1516 7.16415C26.9234 6.60851 28 7.15999 28 8.11094V19.8891C28 20.84 26.9234 21.3915 26.1516 20.8358L22.6516 18.3159C22.3471 18.0966 22.1667 17.7443 22.1667 16.2024V10.6309Z" fill="#18202A"/>
</svg>
