<svg width="28" height="28" viewBox="0 0 28 28" fill="none" xmlns="http://www.w3.org/2000/svg">
<path fill-rule="evenodd" clip-rule="evenodd" d="M14 25.0834C7.87883 25.0834 2.91666 20.1212 2.91666 14C2.91666 7.87886 7.87883 2.91669 14 2.91669C20.1211 2.91669 25.0833 7.87886 25.0833 14C25.0833 20.1212 20.1211 25.0834 14 25.0834ZM14 26.8334C6.91234 26.8334 1.16666 21.0877 1.16666 14C1.16666 6.91237 6.91234 1.16669 14 1.16669C21.0876 1.16669 26.8333 6.91237 26.8333 14C26.8333 21.0877 21.0876 26.8334 14 26.8334Z" fill="#18202A"/>
<path fill-rule="evenodd" clip-rule="evenodd" d="M13.452 8.71464C13.1103 8.37293 12.5563 8.37293 12.2146 8.71464L7.54794 13.3813C7.20623 13.723 7.20623 14.277 7.54794 14.6187L12.2146 19.2854C12.5563 19.6271 13.1103 19.6271 13.452 19.2854C13.7938 18.9437 13.7938 18.3897 13.452 18.048L10.2791 14.875H19.8333C20.3166 14.875 20.7083 14.4833 20.7083 14C20.7083 13.5168 20.3166 13.125 19.8333 13.125H10.2791L13.452 9.95207C13.7938 9.61036 13.7938 9.05634 13.452 8.71464Z" fill="#18202A"/>
</svg>
