<svg width="28" height="28" viewBox="0 0 28 28" fill="none" xmlns="http://www.w3.org/2000/svg">
<path fill-rule="evenodd" clip-rule="evenodd" d="M14 25.0837C20.1211 25.0837 25.0833 20.1215 25.0833 14.0003C25.0833 7.87917 20.1211 2.91699 14 2.91699C7.87883 2.91699 2.91666 7.87917 2.91666 14.0003C2.91666 20.1215 7.87883 25.0837 14 25.0837ZM14 26.8337C21.0876 26.8337 26.8333 21.088 26.8333 14.0003C26.8333 6.91267 21.0876 1.16699 14 1.16699C6.91234 1.16699 1.16666 6.91267 1.16666 14.0003C1.16666 21.088 6.91234 26.8337 14 26.8337Z" fill="#18202A"/>
<path fill-rule="evenodd" clip-rule="evenodd" d="M16.037 13.4593C16.5686 12.6494 16.9167 11.379 16.9167 9.77116C16.9167 8.60468 16.6051 7.7726 16.1688 7.26128C15.7662 6.78949 15.113 6.41699 14 6.41699C12.887 6.41699 12.2338 6.78949 11.8312 7.26128C11.3949 7.7726 11.0833 8.60468 11.0833 9.77116C11.0833 11.379 11.4314 12.6494 11.963 13.4593C12.4475 14.1974 13.087 14.5837 14 14.5837C14.913 14.5837 15.5525 14.1974 16.037 13.4593ZM14 16.3337C17.1111 16.3337 18.6667 13.417 18.6667 9.77116C18.6667 6.85449 17.1111 4.66699 14 4.66699C10.8889 4.66699 9.33332 6.85449 9.33332 9.77116C9.33332 13.417 10.8889 16.3337 14 16.3337Z" fill="#18202A"/>
<path d="M4.69261 22.8359C4.88054 22.0914 5.25947 21.398 5.83254 20.8361C7.93698 18.7727 10.8199 17.5003 14 17.5003C17.1801 17.5003 20.063 18.7727 22.1674 20.8361C22.7405 21.398 23.1195 22.0913 23.3074 22.8359C22.8076 23.3622 22.2637 23.8461 21.6815 24.2818C21.7691 23.4366 21.4968 22.6294 20.9423 22.0856C19.1517 20.33 16.7037 19.2503 14 19.2503C11.2963 19.2503 8.84831 20.33 7.05773 22.0857C6.50322 22.6294 6.2309 23.4366 6.31849 24.2818C5.73632 23.8462 5.19238 23.3622 4.69261 22.8359Z" fill="#18202A"/>
</svg>
