<svg width="28" height="28" viewBox="0 0 28 28" fill="none" xmlns="http://www.w3.org/2000/svg">
<path fill-rule="evenodd" clip-rule="evenodd" d="M14 12.8337C17.1111 12.8337 18.6667 9.91699 18.6667 6.27116C18.6667 3.35449 17.1111 1.16699 14 1.16699C10.8889 1.16699 9.33333 3.35449 9.33333 6.27116C9.33333 9.91699 10.8889 12.8337 14 12.8337ZM14 15.167C15.1349 15.167 16.2319 15.329 17.2691 15.6312C15.2841 17.121 14 19.494 14 22.167C14 23.8812 14.5281 25.472 15.4306 26.7857C14.9579 26.8175 14.4808 26.8337 14 26.8337C12.1947 26.8337 10.4426 26.6059 8.77092 26.1774C7.3487 25.813 6.14332 24.8603 5.48317 23.5489C5.46489 23.5126 5.44673 23.4762 5.42869 23.4398C4.5161 21.5969 4.82643 19.3391 6.38361 17.9959C8.42738 16.233 11.0892 15.167 14 15.167ZM28 22.167C28 18.9453 25.3883 16.3337 22.1667 16.3337C18.945 16.3337 16.3333 18.9453 16.3333 22.167C16.3333 25.3887 18.945 28.0003 22.1667 28.0003C25.3883 28.0003 28 25.3887 28 22.167ZM22.202 25.7024C22.5438 25.3607 22.5438 24.8066 22.202 24.4649L20.7791 23.042H25.6667C26.1499 23.042 26.5417 22.6502 26.5417 22.167C26.5417 21.6837 26.1499 21.292 25.6667 21.292H20.7791L22.202 19.869C22.5438 19.5273 22.5438 18.9733 22.202 18.6316C21.8603 18.2899 21.3063 18.2899 20.9646 18.6316L18.0479 21.5483C17.7062 21.89 17.7062 22.444 18.0479 22.7857L20.9646 25.7024C21.3063 26.0441 21.8603 26.0441 22.202 25.7024Z" fill="#18202A"/>
</svg>
