<svg width="28" height="28" viewBox="0 0 28 28" fill="none" xmlns="http://www.w3.org/2000/svg">
<path fill-rule="evenodd" clip-rule="evenodd" d="M22.7501 12.5417C22.7501 12.0585 23.1418 11.6667 23.6251 11.6667C24.1083 11.6667 24.5001 12.0585 24.5001 12.5417V22.1667C24.5001 24.7441 22.4107 26.8334 19.8334 26.8334H8.16673C5.5894 26.8334 3.50006 24.7441 3.50006 22.1667V5.83341C3.50006 3.25609 5.5894 1.16675 8.16673 1.16675H18.9584C19.4416 1.16675 19.8334 1.5585 19.8334 2.04175C19.8334 2.525 19.4416 2.91675 18.9584 2.91675L8.16673 2.91675C6.5559 2.91675 5.25006 4.22258 5.25006 5.83341L5.25006 22.1667C5.25006 23.7776 6.5559 25.0834 8.16673 25.0834H19.8334C21.4442 25.0834 22.7501 23.7776 22.7501 22.1667V12.5417ZM9.04166 15.1667C8.55841 15.1667 8.16666 15.5585 8.16666 16.0417C8.16666 16.525 8.55841 16.9167 9.04166 16.9167H14.2917C14.7749 16.9167 15.1667 16.525 15.1667 16.0417C15.1667 15.5585 14.7749 15.1667 14.2917 15.1667H9.04166ZM8.16666 20.7084C8.16666 20.2252 8.55841 19.8334 9.04166 19.8334H18.9583C19.4416 19.8334 19.8333 20.2252 19.8333 20.7084C19.8333 21.1917 19.4416 21.5834 18.9583 21.5834H9.04166C8.55841 21.5834 8.16666 21.1917 8.16666 20.7084ZM25.1187 5.28547C25.4604 4.94376 25.4604 4.38974 25.1187 4.04803C24.777 3.70632 24.223 3.70632 23.8813 4.04803L17.4938 10.4355L14.7791 7.77515C14.434 7.4369 13.88 7.4425 13.5418 7.78764C13.2035 8.13279 13.2091 8.68678 13.5542 9.02502L16.8876 12.2917C17.2303 12.6275 17.7795 12.6247 18.1187 12.2855L25.1187 5.28547Z" fill="#18202A"/>
</svg>
