<svg width="28" height="28" viewBox="0 0 28 28" fill="none" xmlns="http://www.w3.org/2000/svg">
<path d="M2.33335 3.20831C2.33335 2.72506 2.7251 2.33331 3.20835 2.33331H24.7917C25.2749 2.33331 25.6667 2.72506 25.6667 3.20831C25.6667 3.69156 25.2749 4.08331 24.7917 4.08331H3.20835C2.72511 4.08331 2.33335 3.69156 2.33335 3.20831Z" fill="#18202A"/>
<path d="M2.33335 24.7916C2.33335 24.3084 2.7251 23.9166 3.20835 23.9166H24.7917C25.2749 23.9166 25.6667 24.3084 25.6667 24.7916C25.6667 25.2749 25.2749 25.6666 24.7917 25.6666H3.20835C2.72511 25.6666 2.33335 25.2749 2.33335 24.7916Z" fill="#18202A"/>
<path fill-rule="evenodd" clip-rule="evenodd" d="M1.16669 9.33331C1.16669 7.40032 2.73369 5.83331 4.66669 5.83331H23.3334C25.2664 5.83331 26.8334 7.40032 26.8334 9.33331V18.6666C26.8334 20.5996 25.2664 22.1666 23.3334 22.1666H4.66669C2.73369 22.1666 1.16669 20.5996 1.16669 18.6666V9.33331ZM4.66669 7.58331H23.3334C24.2999 7.58331 25.0834 8.36681 25.0834 9.33331V18.6666C25.0834 19.6331 24.2999 20.4166 23.3334 20.4166H4.66669C3.70019 20.4166 2.91669 19.6331 2.91669 18.6666V9.33331C2.91669 8.36681 3.70019 7.58331 4.66669 7.58331Z" fill="#18202A"/>
</svg>
