<svg width="28" height="28" viewBox="0 0 28 28" fill="none" xmlns="http://www.w3.org/2000/svg">
<path fill-rule="evenodd" clip-rule="evenodd" d="M14 24.5003C19.799 24.5003 24.5 19.7993 24.5 14.0003C24.5 8.20134 19.799 3.50033 14 3.50033C8.20101 3.50033 3.5 8.20134 3.5 14.0003C3.5 19.7993 8.20101 24.5003 14 24.5003ZM14 26.8337C21.0877 26.8337 26.8333 21.088 26.8333 14.0003C26.8333 6.91267 21.0877 1.16699 14 1.16699C6.91234 1.16699 1.16666 6.91267 1.16666 14.0003C1.16666 21.088 6.91234 26.8337 14 26.8337Z" fill="#18202A"/>
<path d="M18.0833 10.4274C18.0833 13.7087 16.7222 16.3337 14 16.3337C11.2778 16.3337 9.91667 13.7087 9.91667 10.4274C9.91667 7.80241 11.2778 5.83366 14 5.83366C16.7222 5.83366 18.0833 7.80241 18.0833 10.4274Z" fill="#18202A"/>
<path d="M4.69262 22.8359C4.88055 22.0914 5.25947 21.398 5.83254 20.8361C7.93699 18.7727 10.8199 17.5003 14 17.5003C17.1801 17.5003 20.063 18.7727 22.1675 20.8361C22.7405 21.398 23.1195 22.0913 23.3074 22.8359C20.9691 25.2983 17.6638 26.8337 14 26.8337C10.3362 26.8337 7.03095 25.2983 4.69262 22.8359Z" fill="#18202A"/>
</svg>
