<svg width="28" height="28" viewBox="0 0 28 28" fill="none" xmlns="http://www.w3.org/2000/svg">
<path d="M1.16666 2.0415C1.16666 1.55826 1.55841 1.1665 2.04166 1.1665C2.52491 1.1665 2.91666 1.55825 2.91666 2.0415V25.9582C2.91666 26.4414 2.52491 26.8332 2.04166 26.8332C1.55841 26.8332 1.16666 26.4414 1.16666 25.9582V2.0415Z" fill="#18202A"/>
<path fill-rule="evenodd" clip-rule="evenodd" d="M14 5.24984H2.91666V16.9165H15.1667C15.4888 16.9165 15.75 16.6553 15.75 16.3332V6.99984C15.75 6.03334 14.9665 5.24984 14 5.24984ZM1.16666 3.49984V18.6665H15.1667C16.4553 18.6665 17.5 17.6218 17.5 16.3332V6.99984C17.5 5.06684 15.933 3.49984 14 3.49984H1.16666Z" fill="#18202A"/>
<path fill-rule="evenodd" clip-rule="evenodd" d="M9.33332 18.6665V20.9998C9.33332 22.2885 10.378 23.3332 11.6667 23.3332H25.7329C26.6819 23.3332 27.2338 22.2606 26.6823 21.4884L22.651 15.8446C22.3613 15.439 22.3613 14.894 22.651 14.4884L26.6823 8.84462C27.2338 8.07244 26.6819 6.99984 25.7329 6.99984H17.5V8.74984H24.5994L21.227 13.4712C20.5026 14.4853 20.5026 15.8477 21.227 16.8618L24.5994 21.5832H11.6667C11.3445 21.5832 11.0833 21.322 11.0833 20.9998V18.6665H9.33332Z" fill="#18202A"/>
<path fill-rule="evenodd" clip-rule="evenodd" d="M15.3283 17.3497C15.7013 16.9428 15.7837 16.6575 15.7567 16.4417L17.4932 16.2246C17.6121 17.1755 17.1477 17.9548 16.6183 18.5322C16.0886 19.1101 15.3801 19.6123 14.7386 20.0375C14.5288 20.1766 14.3283 20.3063 14.1379 20.4293C13.7088 20.7068 13.3316 20.9508 13.0163 21.1936C12.795 21.364 12.6553 21.4968 12.5768 21.5956C12.5448 21.6359 12.5324 21.6586 12.5292 21.6652C12.5322 21.6577 12.5417 21.6296 12.5417 21.5832H10.7917C10.7917 21.1296 11.0027 20.7637 11.2065 20.5071C11.414 20.2458 11.6822 20.0122 11.9485 19.8071C12.324 19.5179 12.7987 19.2109 13.2567 18.9146C13.4331 18.8006 13.6069 18.6881 13.7718 18.5788C14.4063 18.1582 14.9557 17.7562 15.3283 17.3497ZM12.5283 21.6673C12.5282 21.6673 12.5285 21.6666 12.5292 21.6652L12.5283 21.6673Z" fill="#18202A"/>
</svg>
