<svg width="28" height="28" viewBox="0 0 28 28" fill="none" xmlns="http://www.w3.org/2000/svg">
<path fill-rule="evenodd" clip-rule="evenodd" d="M8.4583 13.0542V6.41666C8.4583 5.72047 8.73486 5.05279 9.22715 4.56051C9.71943 4.06822 10.3871 3.79166 11.0833 3.79166C11.3856 3.79166 11.6825 3.84381 11.962 3.94311C11.9779 3.64631 12.0441 3.35401 12.1581 3.07878C12.29 2.7603 12.4834 2.47093 12.7271 2.22717C12.9709 1.98342 13.2603 1.79006 13.5788 1.65814C13.8972 1.52623 14.2386 1.45833 14.5833 1.45833C14.928 1.45833 15.2694 1.52623 15.5878 1.65814C15.9063 1.79006 16.1957 1.98342 16.4395 2.22717C16.6832 2.47093 16.8766 2.7603 17.0085 3.07878C17.1225 3.35401 17.1887 3.64632 17.2046 3.94312C17.4841 3.84381 17.781 3.79166 18.0833 3.79166C18.7795 3.79166 19.4472 4.06822 19.9395 4.56051C20.3986 5.01964 20.6701 5.63135 20.7046 6.27646C20.9841 6.17714 21.281 6.12499 21.5833 6.12499C22.2795 6.12499 22.9471 6.40156 23.4395 6.89384C23.9317 7.38613 24.2083 8.0538 24.2083 8.74999V18.6667C24.2083 20.7552 23.3786 22.7583 21.9018 24.2352C20.4249 25.7119 18.4219 26.5417 16.3333 26.5417H14.2399C12.9368 26.5414 11.654 26.2177 10.5066 25.5997C9.35843 24.9811 8.38132 24.0863 7.66402 22.9971C7.58668 22.8794 7.50963 22.7614 7.43289 22.6434C7.04892 22.054 5.75294 19.7926 3.57037 15.913C3.23516 15.3172 3.14563 14.6141 3.3208 13.9533C3.49597 13.2925 3.92204 12.7261 4.50838 12.3745C5.092 12.0243 5.77562 11.8794 6.45115 11.9623C7.12669 12.0453 7.75548 12.3519 8.23703 12.8329L8.4583 13.0542ZM14.2485 3.27493C14.3546 3.23096 14.4684 3.20833 14.5833 3.20833C14.6982 3.20833 14.812 3.23096 14.9181 3.27493C15.0243 3.31891 15.1208 3.38336 15.202 3.46461C15.2833 3.54586 15.3477 3.64232 15.3917 3.74848C15.4357 3.85464 15.4583 3.96842 15.4583 4.08333V14C15.4583 14.4832 15.8501 14.875 16.3333 14.875C16.8166 14.875 17.2083 14.4832 17.2083 14V6.41666C17.2083 6.1846 17.3005 5.96204 17.4646 5.79794C17.6287 5.63385 17.8512 5.54166 18.0833 5.54166C18.3154 5.54166 18.5379 5.63385 18.702 5.79794C18.8661 5.96204 18.9583 6.1846 18.9583 6.41666V14C18.9583 14.4832 19.3501 14.875 19.8333 14.875C20.3166 14.875 20.7083 14.4832 20.7083 14L20.7083 8.74999C20.7083 8.51793 20.8005 8.29537 20.9646 8.13128C21.1287 7.96718 21.3513 7.87499 21.5833 7.87499C21.8154 7.87499 22.038 7.96718 22.202 8.13128C22.3661 8.29537 22.4583 8.51793 22.4583 8.74999V18.6667C22.4583 20.2911 21.813 21.849 20.6643 22.9977C19.5156 24.1464 17.9578 24.7917 16.3333 24.7917H14.2412C13.2273 24.7915 12.2292 24.5399 11.3366 24.059C10.4435 23.5779 9.68398 22.8825 9.12607 22.0354C9.05037 21.9201 8.97549 21.8056 8.90039 21.69C8.55637 21.1617 7.29735 18.9687 5.09558 15.055C4.98385 14.8564 4.95398 14.622 5.01237 14.4017C5.07076 14.1814 5.21279 13.9926 5.40823 13.8755C5.65734 13.726 5.94951 13.6639 6.23784 13.6993C6.52618 13.7347 6.79441 13.8654 6.99994 14.0707L8.71279 15.7836C8.71846 15.7893 8.72421 15.7949 8.73004 15.8005C8.80912 15.8758 8.89885 15.9335 8.99423 15.9735C9.09851 16.0174 9.21307 16.0417 9.3333 16.0417C9.81655 16.0417 10.2083 15.6499 10.2083 15.1667V6.41666C10.2083 6.1846 10.3005 5.96204 10.4646 5.79794C10.6287 5.63385 10.8512 5.54166 11.0833 5.54166C11.3154 5.54166 11.5379 5.63385 11.702 5.79794C11.8661 5.96204 11.9583 6.1846 11.9583 6.41666V14C11.9583 14.4832 12.3501 14.875 12.8333 14.875C13.3166 14.875 13.7083 14.4832 13.7083 14V4.08333C13.7083 3.96842 13.7309 3.85464 13.7749 3.74848C13.8189 3.64232 13.8833 3.54586 13.9646 3.46461C14.0458 3.38336 14.1423 3.31891 14.2485 3.27493Z" fill="#18202A"/>
</svg>
