<svg width="28" height="28" viewBox="0 0 28 28" fill="none" xmlns="http://www.w3.org/2000/svg">
<path fill-rule="evenodd" clip-rule="evenodd" d="M15.5957 20.9998H22.3788C24.839 20.9998 26.8333 18.9105 26.8333 16.3332V5.83317C26.8333 3.25584 24.839 1.1665 22.3788 1.1665H6.78788C4.3277 1.1665 2.33333 3.25584 2.33333 5.83317V6.16461C2.33333 6.62589 2.70728 6.99984 3.16856 6.99984C3.62984 6.99984 4.00379 6.62589 4.00379 6.16461V5.83317C4.00379 4.22234 5.25027 2.9165 6.78788 2.9165H22.3788C23.9164 2.9165 25.1629 4.22234 25.1629 5.83317V16.3332C25.1629 17.944 23.9164 19.2498 22.3788 19.2498H15.5957C15.2952 19.2498 15.0003 19.3348 14.742 19.4956L8.64398 23.2942L9.03041 21.358C9.13336 20.8422 9.00896 20.3052 8.69176 19.8963C8.37455 19.4873 7.89832 19.2498 7.39532 19.2498H6.78788C5.48388 19.2498 4.38927 18.3107 4.08675 17.0427C3.995 16.6582 3.68326 16.3332 3.28788 16.3332C2.7607 16.3332 2.32348 16.7645 2.42542 17.2818C2.48 17.5587 2.55799 17.8266 2.65713 18.0832C3.18731 19.4553 4.32236 20.5031 5.71588 20.8638C6.05925 20.9527 6.41831 20.9998 6.78788 20.9998H7.39532L6.74961 24.2351C6.55123 25.229 7.57567 25.9956 8.40882 25.4766L15.5957 20.9998ZM11.9937 6.67279C11.652 6.33108 11.098 6.33108 10.7563 6.67279C10.4146 7.01449 10.4146 7.56851 10.7563 7.91022L13.3459 10.4998H0.875C0.391751 10.4998 0 10.8916 0 11.3748C0 11.8581 0.391751 12.2498 0.875 12.2498H13.3459L10.7563 14.8395C10.4146 15.1812 10.4146 15.7352 10.7563 16.0769C11.098 16.4186 11.652 16.4186 11.9937 16.0769L16.0771 11.9936C16.4188 11.6518 16.4188 11.0978 16.0771 10.7561L11.9937 6.67279Z" fill="#18202A"/>
</svg>
