<svg width="28" height="28" viewBox="0 0 28 28" fill="none" xmlns="http://www.w3.org/2000/svg">
<path fill-rule="evenodd" clip-rule="evenodd" d="M3.75784 3.75784C4.10163 3.41405 4.65903 3.41405 5.00282 3.75784L24.2422 22.9972C24.251 23.006 24.2596 23.015 24.268 23.0241L24.3777 23.1338L24.356 23.1368C24.5805 23.4783 24.5425 23.9418 24.2422 24.2422C23.8984 24.5859 23.341 24.5859 22.9972 24.2422L20.8418 22.0868C20.7294 22.3683 20.6103 22.6464 20.4847 22.921C19.8641 24.2782 18.5899 25.218 17.1137 25.4374C16.0977 25.5884 15.0579 25.6667 13.9999 25.6667C12.9418 25.6667 11.9021 25.5884 10.886 25.4374C9.40989 25.218 8.13567 24.2782 7.51505 22.921C7.29605 22.4421 7.09672 21.9523 6.91807 21.4527C6.30721 19.7443 6.81847 17.7952 8.3465 16.817C9.95805 15.7854 11.87 15.1819 13.922 15.167L9.2758 10.5208C9.31409 10.7467 9.33323 10.9836 9.33323 11.2292C9.33323 13.4167 8.361 15.1667 6.41656 15.1667C4.47212 15.1667 3.49989 13.4167 3.49989 11.2292C3.49989 9.47917 4.47212 8.16667 6.41656 8.16667C6.60646 8.16667 6.78708 8.17918 6.95843 8.20341L3.75784 5.00282C3.41405 4.65903 3.41405 4.10163 3.75784 3.75784ZM19.4794 20.7244L15.8721 17.1171C15.2694 16.9858 14.6431 16.9167 13.9999 16.9167C12.2627 16.9167 10.6487 17.4211 9.29 18.2909C8.55264 18.7629 8.18575 19.8003 8.5659 20.8635C8.72766 21.3159 8.90819 21.7595 9.10654 22.1932C9.47529 22.9996 10.2397 23.5721 11.1433 23.7064C12.0744 23.8448 13.0282 23.9167 13.9999 23.9167C14.9715 23.9167 15.9253 23.8448 16.8564 23.7064C17.7601 23.5721 18.5245 22.9996 18.8932 22.1932C19.0916 21.7595 19.2721 21.3159 19.4339 20.8635C19.4505 20.8171 19.4656 20.7707 19.4794 20.7244ZM7.15947 13.0305C7.38595 12.6992 7.58323 12.0959 7.58323 11.2292C7.58323 10.663 7.42686 10.3514 7.29609 10.2043C7.19268 10.088 6.9705 9.91667 6.41656 9.91667C5.86262 9.91667 5.64044 10.088 5.53703 10.2043C5.40626 10.3514 5.24989 10.663 5.24989 11.2292C5.24989 12.0959 5.44717 12.6992 5.67365 13.0305C5.85245 13.292 6.05478 13.4167 6.41656 13.4167C6.77834 13.4167 6.98067 13.292 7.15947 13.0305Z" fill="#18202A"/>
<path d="M15.7499 8.75C15.7499 9.95068 15.5162 10.8782 15.1848 11.4661L16.4494 12.7307C17.1497 11.7707 17.4999 10.3479 17.4999 8.75C17.4999 6.41667 16.3332 4.66667 13.9999 4.66667C12.2887 4.66667 11.205 5.60782 10.7488 7.03L12.2543 8.53559C12.2873 7.75506 12.4987 7.22994 12.7414 6.92655C12.9637 6.64873 13.3167 6.41667 13.9999 6.41667C14.6831 6.41667 15.0361 6.64873 15.2584 6.92655C15.5227 7.25693 15.7499 7.85025 15.7499 8.75Z" fill="#18202A"/>
<path d="M26.1132 22.3945L24.8645 21.1458C25.1394 20.9629 25.3452 20.6946 25.4478 20.3774C25.6648 19.7062 25.3758 19.1501 25 18.9521C24.3205 18.5941 23.5799 18.3361 22.7964 18.1983C22.5769 17.5248 22.2294 16.89 21.75 16.3373C23.2149 16.3803 24.5952 16.7608 25.8157 17.4038C27.065 18.062 27.5474 19.5723 27.1129 20.9159C26.9215 21.5077 26.5703 22.0138 26.1132 22.3945Z" fill="#18202A"/>
<path fill-rule="evenodd" clip-rule="evenodd" d="M24.4999 11.2292C24.4999 13.4167 23.5277 15.1667 21.5832 15.1667C19.6388 15.1667 18.6666 13.4167 18.6666 11.2292C18.6666 9.47917 19.6388 8.16667 21.5832 8.16667C23.5277 8.16667 24.4999 9.47917 24.4999 11.2292ZM22.7499 11.2292C22.7499 12.0959 22.5526 12.6992 22.3261 13.0305C22.1473 13.292 21.945 13.4167 21.5832 13.4167C21.2214 13.4167 21.0191 13.292 20.8403 13.0305C20.6138 12.6992 20.4166 12.0959 20.4166 11.2292C20.4166 10.663 20.5729 10.3514 20.7037 10.2043C20.8071 10.088 21.0293 9.91667 21.5832 9.91667C22.1372 9.91667 22.3593 10.088 22.4628 10.2043C22.5935 10.3514 22.7499 10.663 22.7499 11.2292Z" fill="#18202A"/>
<path d="M2.34221 17.2067C3.53083 16.6511 4.85586 16.3387 6.2533 16.3333C5.78156 16.8761 5.4372 17.4981 5.2166 18.1584C4.46302 18.2649 3.74668 18.4819 3.08322 18.792C2.65486 18.9923 2.31871 19.6042 2.55704 20.3461C2.74439 20.9293 3.25559 21.357 3.90473 21.4372C4.30514 21.4866 4.70953 21.5237 5.11754 21.5482C5.16128 21.7148 5.2122 21.8795 5.27025 22.0418C5.42597 22.4773 5.59605 22.906 5.7799 23.3272C5.0742 23.3104 4.37713 23.2588 3.69032 23.174C2.38524 23.0129 1.29309 22.1333 0.890902 20.8814C0.431227 19.4504 0.98064 17.8431 2.34221 17.2067Z" fill="#18202A"/>
</svg>
