<svg width="28" height="28" viewBox="0 0 28 28" fill="none" xmlns="http://www.w3.org/2000/svg">
<path d="M8.16667 8.16634C8.16667 7.52201 8.689 6.99967 9.33333 6.99967C9.97767 6.99967 10.5 7.52201 10.5 8.16634C10.5 8.81067 9.97767 9.33301 9.33333 9.33301C8.689 9.33301 8.16667 8.81067 8.16667 8.16634Z" fill="#18202A"/>
<path d="M9.33333 10.4997C8.689 10.4997 8.16667 11.022 8.16667 11.6663C8.16667 12.3107 8.689 12.833 9.33333 12.833C9.97767 12.833 10.5 12.3107 10.5 11.6663C10.5 11.022 9.97767 10.4997 9.33333 10.4997Z" fill="#18202A"/>
<path d="M12.8333 8.16634C12.8333 7.52201 13.3557 6.99967 14 6.99967C14.6443 6.99967 15.1667 7.52201 15.1667 8.16634C15.1667 8.81067 14.6443 9.33301 14 9.33301C13.3557 9.33301 12.8333 8.81067 12.8333 8.16634Z" fill="#18202A"/>
<path d="M14 10.4997C13.3557 10.4997 12.8333 11.022 12.8333 11.6663C12.8333 12.3107 13.3557 12.833 14 12.833C14.6443 12.833 15.1667 12.3107 15.1667 11.6663C15.1667 11.022 14.6443 10.4997 14 10.4997Z" fill="#18202A"/>
<path d="M17.5 8.16634C17.5 7.52201 18.0223 6.99967 18.6667 6.99967C19.311 6.99967 19.8333 7.52201 19.8333 8.16634C19.8333 8.81067 19.311 9.33301 18.6667 9.33301C18.0223 9.33301 17.5 8.81067 17.5 8.16634Z" fill="#18202A"/>
<path d="M18.6667 10.4997C18.0223 10.4997 17.5 11.022 17.5 11.6663C17.5 12.3107 18.0223 12.833 18.6667 12.833C19.311 12.833 19.8333 12.3107 19.8333 11.6663C19.8333 11.022 19.311 10.4997 18.6667 10.4997Z" fill="#18202A"/>
<path fill-rule="evenodd" clip-rule="evenodd" d="M7.875 2.33301C5.45875 2.33301 3.5 4.29176 3.5 6.70801V21.2918C3.5 23.7081 5.45876 25.6668 7.875 25.6668H20.125C22.5412 25.6668 24.5 23.7081 24.5 21.2918V6.708C24.5 4.29176 22.5412 2.33301 20.125 2.33301H7.875ZM5.25 6.70801C5.25 5.25826 6.42525 4.08301 7.875 4.08301H20.125C21.5747 4.08301 22.75 5.25826 22.75 6.708V21.2918C22.75 22.7416 21.5747 23.9168 20.125 23.9168H17.7917V17.208C17.7917 16.0804 16.8776 15.1663 15.75 15.1663H12.25C11.1224 15.1663 10.2083 16.0804 10.2083 17.208V23.9168H7.875C6.42525 23.9168 5.25 22.7416 5.25 21.2918V6.70801ZM16.0417 23.9168V17.208C16.0417 17.0469 15.9111 16.9163 15.75 16.9163H12.25C12.0889 16.9163 11.9583 17.0469 11.9583 17.208V23.9168H16.0417Z" fill="#18202A"/>
</svg>
