<svg width="28" height="28" viewBox="0 0 28 28" fill="none" xmlns="http://www.w3.org/2000/svg">
<path d="M2.91666 2.91699C2.91666 1.95049 2.13315 1.16699 1.16666 1.16699V26.8337H26.8333C26.8333 25.8672 26.0498 25.0837 25.0833 25.0837H2.91666V2.91699Z" fill="#18202A"/>
<path d="M21.5833 5.83366C21.5833 4.86716 22.3668 4.08366 23.3333 4.08366C24.2998 4.08366 25.0833 4.86716 25.0833 5.83366C25.0833 6.80016 24.2998 7.58366 23.3333 7.58366C23.0747 7.58366 22.8292 7.52756 22.6083 7.42686L16.9086 11.498C16.9139 11.5536 16.9167 11.61 16.9167 11.667C16.9167 12.6335 16.1332 13.417 15.1667 13.417C14.4305 13.417 13.8006 12.9625 13.5421 12.3188L8.37664 11.5809C8.05624 11.9885 7.55869 12.2503 6.99999 12.2503C6.03349 12.2503 5.24999 11.4668 5.24999 10.5003C5.24999 9.53383 6.03349 8.75033 6.99999 8.75033C7.73611 8.75033 8.36608 9.20483 8.62458 9.84853L13.79 10.5864C14.1104 10.1788 14.608 9.91699 15.1667 9.91699C15.4253 9.91699 15.6708 9.9731 15.8917 10.0738L21.5914 6.00262C21.586 5.94702 21.5833 5.89066 21.5833 5.83366Z" fill="#18202A"/>
<path fill-rule="evenodd" clip-rule="evenodd" d="M5.83332 14.0003C5.18899 14.0003 4.66666 14.5227 4.66666 15.167V22.167C4.66666 22.8113 5.18899 23.3337 5.83332 23.3337H8.16666C8.81099 23.3337 9.33332 22.8113 9.33332 22.167V15.167C9.33332 14.5227 8.81099 14.0003 8.16666 14.0003H5.83332ZM6.41666 15.7503V21.5837H7.58332V15.7503H6.41666Z" fill="#18202A"/>
<path fill-rule="evenodd" clip-rule="evenodd" d="M12.8333 16.3337C12.8333 15.6893 13.3557 15.167 14 15.167H16.3333C16.9777 15.167 17.5 15.6893 17.5 16.3337V22.167C17.5 22.8113 16.9777 23.3337 16.3333 23.3337H14C13.3557 23.3337 12.8333 22.8113 12.8333 22.167V16.3337ZM14.5833 21.5837V16.917H15.75V21.5837H14.5833Z" fill="#18202A"/>
<path fill-rule="evenodd" clip-rule="evenodd" d="M22.1667 9.33366C21.5223 9.33366 21 9.85599 21 10.5003V22.167C21 22.8113 21.5223 23.3337 22.1667 23.3337H24.5C25.1443 23.3337 25.6667 22.8113 25.6667 22.167V10.5003C25.6667 9.85599 25.1443 9.33366 24.5 9.33366H22.1667ZM22.75 11.0837V21.5837H23.9167V11.0837H22.75Z" fill="#18202A"/>
</svg>
