<svg width="28" height="28" viewBox="0 0 28 28" fill="none" xmlns="http://www.w3.org/2000/svg">
<path fill-rule="evenodd" clip-rule="evenodd" d="M20.6015 4.24767C20.8329 4.67191 20.6766 5.20342 20.2523 5.43483L7.41899 12.4348C6.99474 12.6662 6.46324 12.5099 6.23183 12.0857C6.00043 11.6614 6.15675 11.1299 6.58099 10.8985L19.4143 3.89851C19.8386 3.6671 20.3701 3.82343 20.6015 4.24767Z" fill="#18202A"/>
<path fill-rule="evenodd" clip-rule="evenodd" d="M23.7523 7.39851C24.1766 7.62991 24.3329 8.16142 24.1015 8.58566L17.1015 21.419C16.8701 21.8432 16.3386 21.9996 15.9143 21.7682C15.4901 21.5368 15.3338 21.0052 15.5652 20.581L22.5652 7.74767C22.7966 7.32343 23.3281 7.1671 23.7523 7.39851Z" fill="#18202A"/>
<path fill-rule="evenodd" clip-rule="evenodd" d="M18.0479 2.88128C18.3896 2.53957 18.9437 2.53957 19.2854 2.88128L25.1187 8.71462C25.4604 9.05632 25.4604 9.61034 25.1187 9.95205C24.777 10.2938 24.223 10.2938 23.8813 9.95205L18.0479 4.11872C17.7062 3.77701 17.7062 3.22299 18.0479 2.88128Z" fill="#18202A"/>
<path fill-rule="evenodd" clip-rule="evenodd" d="M11.1187 16.8813C11.4604 17.223 11.4604 17.777 11.1187 18.1187L6.45204 22.7854C6.11033 23.1271 5.55631 23.1271 5.2146 22.7854C4.8729 22.4437 4.8729 21.8897 5.2146 21.5479L9.88127 16.8813C10.223 16.5396 10.777 16.5396 11.1187 16.8813Z" fill="#18202A"/>
<path fill-rule="evenodd" clip-rule="evenodd" d="M4.04794 9.88128C4.38965 9.53957 4.94367 9.53957 5.28537 9.88128L18.1187 22.7146C18.4604 23.0563 18.4604 23.6103 18.1187 23.9521C17.777 24.2938 17.223 24.2938 16.8813 23.9521L4.04794 11.1187C3.70623 10.777 3.70623 10.223 4.04794 9.88128Z" fill="#18202A"/>
</svg>
