<svg width="28" height="28" viewBox="0 0 28 28" fill="none" xmlns="http://www.w3.org/2000/svg">
<path fill-rule="evenodd" clip-rule="evenodd" d="M7 4.66699C5.71133 4.66699 4.66666 5.71166 4.66666 7.00033V21.0003C4.66666 22.289 5.71133 23.3337 7 23.3337H10.5C11.7887 23.3337 12.8333 22.289 12.8333 21.0003V7.00033C12.8333 5.71166 11.7887 4.66699 10.5 4.66699H7ZM17.5 4.66699C16.2113 4.66699 15.1667 5.71166 15.1667 7.00033V21.0003C15.1667 22.289 16.2113 23.3337 17.5 23.3337H21C22.2887 23.3337 23.3333 22.289 23.3333 21.0003V7.00033C23.3333 5.71166 22.2887 4.66699 21 4.66699H17.5Z" fill="#18202A"/>
</svg>
