<svg width="28" height="28" viewBox="0 0 28 28" fill="none" xmlns="http://www.w3.org/2000/svg">
<path fill-rule="evenodd" clip-rule="evenodd" d="M7.27979 9.18308C5.31042 10.777 3.8054 12.6815 2.97164 13.8606C2.93637 13.9105 2.92432 13.9582 2.92432 14.0001C2.92432 14.0419 2.93637 14.0897 2.97163 14.1396C3.80539 15.3186 5.31042 17.2231 7.27979 18.8171C9.26111 20.4207 11.5534 21.5834 14 21.5834C16.4466 21.5834 18.7389 20.4207 20.7202 18.8171C22.6896 17.2231 24.1946 15.3187 25.0284 14.1396C25.0637 14.0897 25.0757 14.0419 25.0757 14.0001C25.0757 13.9582 25.0637 13.9105 25.0284 13.8606C24.1946 12.6815 22.6896 10.777 20.7202 9.18308C18.7389 7.57944 16.4466 6.41675 14 6.41675C11.5534 6.41675 9.26111 7.57944 7.27979 9.18308ZM1.54278 12.8502C1.05149 13.545 1.05149 14.4552 1.54278 15.15C3.30715 17.6451 7.98875 23.3334 14 23.3334C20.0113 23.3334 24.6929 17.6451 26.4572 15.15C26.9485 14.4552 26.9485 13.545 26.4572 12.8502C24.6929 10.3551 20.0113 4.66675 14 4.66675C7.98875 4.66675 3.30715 10.3551 1.54278 12.8502Z" fill="#18202A"/>
<path fill-rule="evenodd" clip-rule="evenodd" d="M14 16.9167C15.6108 16.9167 16.9167 15.6109 16.9167 14.0001C16.9167 12.3893 15.6108 11.0834 14 11.0834C12.3892 11.0834 11.0833 12.3893 11.0833 14.0001C11.0833 15.6109 12.3892 16.9167 14 16.9167ZM18.6667 14.0001C18.6667 16.5774 16.5773 18.6667 14 18.6667C11.4227 18.6667 9.33335 16.5774 9.33335 14.0001C9.33335 11.4228 11.4227 9.33341 14 9.33341C16.5773 9.33341 18.6667 11.4228 18.6667 14.0001Z" fill="#18202A"/>
</svg>
