<svg width="28" height="28" viewBox="0 0 28 28" fill="none" xmlns="http://www.w3.org/2000/svg">
<path fill-rule="evenodd" clip-rule="evenodd" d="M26.8333 14.0001C26.8333 21.0877 21.0877 26.8334 14 26.8334C6.91234 26.8334 1.16666 21.0877 1.16666 14.0001C1.16666 6.91243 6.91234 1.16675 14 1.16675C21.0877 1.16675 26.8333 6.91243 26.8333 14.0001ZM12.1499 10.5001C11.883 10.5001 11.6667 10.7164 11.6667 10.9833C11.6667 11.1115 11.7176 11.2344 11.8082 11.325L11.9083 11.4251C12.3639 11.8807 12.3639 12.6194 11.9083 13.075C11.4527 13.5307 10.714 13.5307 10.2584 13.075L10.1583 12.975C9.63008 12.4467 9.33333 11.7303 9.33333 10.9833C9.33333 9.42778 10.5944 8.16675 12.1499 8.16675H15.466C17.2337 8.16675 18.6667 9.59973 18.6667 11.3674C18.6667 12.7451 17.7851 13.9682 16.4781 14.4038L16.1189 14.5235C15.5502 14.7131 15.1667 15.2453 15.1667 15.8447V16.3334C15.1667 16.9777 14.6443 17.5001 14 17.5001C13.3557 17.5001 12.8333 16.9777 12.8333 16.3334V15.8447C12.8333 14.241 13.8596 12.8171 15.3811 12.31L15.7403 12.1902C16.0944 12.0722 16.3333 11.7407 16.3333 11.3674C16.3333 10.8884 15.945 10.5001 15.466 10.5001H12.1499ZM12.8333 19.8334C12.8333 19.1891 13.3557 18.6667 14 18.6667C14.6443 18.6667 15.1667 19.1891 15.1667 19.8334C15.1667 20.4777 14.6443 21.0001 14 21.0001C13.3557 21.0001 12.8333 20.4777 12.8333 19.8334Z" fill="#18202A"/>
</svg>
