<svg width="28" height="28" viewBox="0 0 28 28" fill="none" xmlns="http://www.w3.org/2000/svg">
<path fill-rule="evenodd" clip-rule="evenodd" d="M21.5833 12.8334C21.5833 17.6659 17.6658 21.5834 12.8333 21.5834C8.00082 21.5834 4.08331 17.6659 4.08331 12.8334C4.08331 8.00088 8.00082 4.08337 12.8333 4.08337C17.6658 4.08337 21.5833 8.00088 21.5833 12.8334ZM12.8333 23.3334C18.6323 23.3334 23.3333 18.6324 23.3333 12.8334C23.3333 7.03438 18.6323 2.33337 12.8333 2.33337C7.03432 2.33337 2.33331 7.03438 2.33331 12.8334C2.33331 18.6324 7.03432 23.3334 12.8333 23.3334ZM22.7854 21.548C22.4437 21.2063 21.8896 21.2063 21.5479 21.548C21.2062 21.8897 21.2062 22.4437 21.5479 22.7854L23.8813 25.1188C24.223 25.4605 24.777 25.4605 25.1187 25.1188C25.4604 24.7771 25.4604 24.223 25.1187 23.8813L22.7854 21.548ZM9.33331 11.9584C8.85006 11.9584 8.45831 12.3501 8.45831 12.8334C8.45831 13.3166 8.85006 13.7084 9.33331 13.7084H16.3333C16.8166 13.7084 17.2083 13.3166 17.2083 12.8334C17.2083 12.3501 16.8166 11.9584 16.3333 11.9584H9.33331Z" fill="#18202A"/>
</svg>
