<svg width="28" height="28" viewBox="0 0 28 28" fill="none" xmlns="http://www.w3.org/2000/svg">
<path fill-rule="evenodd" clip-rule="evenodd" d="M4.66669 1.1665C4.18344 1.1665 3.79169 1.55825 3.79169 2.0415C3.79169 2.52475 4.18344 2.9165 4.66669 2.9165H5.83335V4.83317C5.83335 8.47273 8.00266 11.5815 11.0606 12.8178C11.4156 12.9613 11.6667 13.2952 11.6667 13.6782V14.3215C11.6667 14.7044 11.4156 15.0383 11.0606 15.1818C8.00266 16.4181 5.83335 19.5269 5.83335 23.1665V25.0832H4.66669C4.18344 25.0832 3.79169 25.4749 3.79169 25.9582C3.79169 26.4414 4.18344 26.8332 4.66669 26.8332H23.3334C23.8166 26.8332 24.2084 26.4414 24.2084 25.9582C24.2084 25.4749 23.8166 25.0832 23.3334 25.0832H22.1667V23.1665C22.1667 19.5269 19.9974 16.4181 16.9394 15.1818C16.5844 15.0383 16.3334 14.7044 16.3334 14.3215V13.6782C16.3334 13.2952 16.5844 12.9613 16.9394 12.8178C19.9974 11.5815 22.1667 8.47273 22.1667 4.83317V2.9165H23.3334C23.8166 2.9165 24.2084 2.52475 24.2084 2.0415C24.2084 1.55825 23.8166 1.1665 23.3334 1.1665H4.66669ZM11.7166 11.1954C9.33343 10.2319 7.58335 7.77429 7.58335 4.83317V2.9165H20.4167V4.8336C20.4165 7.77453 18.6665 10.2319 16.2835 11.1954C15.3451 11.5748 14.5834 12.5016 14.5834 13.6782V14.3215C14.5834 15.498 15.3451 16.4249 16.2835 16.8042C18.6665 17.7677 20.4165 20.2255 20.4167 23.1665V25.0832H7.58335V23.1665C7.58335 20.2253 9.33343 17.7677 11.7166 16.8042C12.6549 16.4249 13.4167 15.498 13.4167 14.3215V13.6782C13.4167 12.5016 12.6549 11.5748 11.7166 11.1954Z" fill="#18202A"/>
</svg>
