<svg width="28" height="28" viewBox="0 0 28 28" fill="none" xmlns="http://www.w3.org/2000/svg">
<path fill-rule="evenodd" clip-rule="evenodd" d="M14 25.0832C20.1211 25.0832 25.0833 20.121 25.0833 13.9998C25.0833 7.87868 20.1211 2.9165 14 2.9165C7.87883 2.9165 2.91666 7.87868 2.91666 13.9998C2.91666 20.121 7.87883 25.0832 14 25.0832ZM14 26.8332C21.0876 26.8332 26.8333 21.0875 26.8333 13.9998C26.8333 6.91218 21.0876 1.1665 14 1.1665C6.91234 1.1665 1.16666 6.91218 1.16666 13.9998C1.16666 21.0875 6.91234 26.8332 14 26.8332Z" fill="#18202A"/>
<path fill-rule="evenodd" clip-rule="evenodd" d="M13.6087 1.55055C13.855 1.42738 14.145 1.42738 14.3913 1.55055C18.8576 3.78372 21 8.67359 21 13.5623C21 18.4573 18.8602 23.5823 14.4732 26.4025C14.1849 26.5878 13.8151 26.5878 13.5268 26.4025C9.13976 23.5823 6.99999 18.4573 6.99999 13.5623C6.99999 8.67359 9.14233 3.78372 13.6087 1.55055ZM13.125 3.88544C10.2494 5.97557 8.74999 9.65586 8.74999 13.5623C8.74999 17.4383 10.2322 21.3613 13.125 23.9114V3.88544ZM14.875 23.9114V3.88544C17.7505 5.97557 19.25 9.65586 19.25 13.5623C19.25 17.4383 17.7678 21.3613 14.875 23.9114Z" fill="#18202A"/>
<path fill-rule="evenodd" clip-rule="evenodd" d="M25.6667 14.8748H2.33332V13.1248H25.6667V14.8748Z" fill="#18202A"/>
</svg>
