<svg width="28" height="28" viewBox="0 0 28 28" fill="none" xmlns="http://www.w3.org/2000/svg">
<path fill-rule="evenodd" clip-rule="evenodd" d="M21 26.8333H16.6666C15.8382 26.8333 15.1666 26.1618 15.1666 25.3333V16.6667C15.1666 15.8382 15.8382 15.1667 16.6666 15.1667H25.3333C26.1617 15.1667 26.8333 15.8382 26.8333 16.6667V21C26.8333 24.2217 24.2216 26.8333 21 26.8333ZM26.8333 11.3333C26.8333 12.1618 26.1617 12.8333 25.3333 12.8333H16.6666C15.8382 12.8333 15.1666 12.1618 15.1666 11.3333V2.66667C15.1666 1.83824 15.8382 1.16667 16.6666 1.16667H21C24.2216 1.16667 26.8333 3.77834 26.8333 7.00001V11.3333ZM6.99996 1.16667H11.3333C12.1617 1.16667 12.8333 1.83824 12.8333 2.66667V25.3333C12.8333 26.1618 12.1617 26.8333 11.3333 26.8333H6.99996C3.7783 26.8333 1.16663 24.2217 1.16663 21V7.00001C1.16663 3.77834 3.7783 1.16667 6.99996 1.16667Z" fill="#18202A"/>
</svg>
