<svg width="28" height="28" viewBox="0 0 28 28" fill="none" xmlns="http://www.w3.org/2000/svg">
<path d="M11.6667 14.0001C11.6667 15.2887 10.622 16.3334 9.33335 16.3334C8.04469 16.3334 7.00002 15.2887 7.00002 14.0001C7.00002 12.7114 8.04469 11.6667 9.33335 11.6667C10.622 11.6667 11.6667 12.7114 11.6667 14.0001Z" fill="#18202A"/>
<path d="M8.45835 17.5001C7.00861 17.5001 5.83335 18.6753 5.83335 20.1251C5.83335 20.6083 6.2251 21.0001 6.70835 21.0001H11.9584C12.4416 21.0001 12.8334 20.6083 12.8334 20.1251C12.8334 18.6753 11.6581 17.5001 10.2084 17.5001H8.45835Z" fill="#18202A"/>
<path d="M16.0417 14.0001C15.5584 14.0001 15.1667 14.3918 15.1667 14.8751C15.1667 15.3583 15.5584 15.7501 16.0417 15.7501H21.2917C21.7749 15.7501 22.1667 15.3583 22.1667 14.8751C22.1667 14.3918 21.7749 14.0001 21.2917 14.0001H16.0417Z" fill="#18202A"/>
<path d="M15.1667 18.3751C15.1667 17.8918 15.5584 17.5001 16.0417 17.5001H21.2917C21.7749 17.5001 22.1667 17.8918 22.1667 18.3751C22.1667 18.8583 21.7749 19.2501 21.2917 19.2501H16.0417C15.5584 19.2501 15.1667 18.8583 15.1667 18.3751Z" fill="#18202A"/>
<path fill-rule="evenodd" clip-rule="evenodd" d="M10.5 4.66675C10.5 2.73375 12.067 1.16675 14 1.16675C15.933 1.16675 17.5 2.73375 17.5 4.66675H22.1667C24.744 4.66675 26.8334 6.75609 26.8334 9.33341V21.0001C26.8334 23.5774 24.744 25.6667 22.1667 25.6667H5.83335C3.25603 25.6667 1.16669 23.5774 1.16669 21.0001V9.33341C1.16669 6.75609 3.25603 4.66675 5.83335 4.66675L10.5 4.66675ZM14 2.91675C14.9665 2.91675 15.75 3.70025 15.75 4.66675V7.58341H12.25V4.66675C12.25 3.70025 13.0335 2.91675 14 2.91675ZM25.0834 9.33341C25.0834 7.72258 23.7775 6.41675 22.1667 6.41675H17.5V8.16675C17.5 8.81108 16.9777 9.33341 16.3334 9.33341H11.6667C11.0224 9.33341 10.5 8.81108 10.5 8.16675V6.41675H5.83335C4.22252 6.41675 2.91669 7.72258 2.91669 9.33341V21.0001C2.91669 22.6109 4.22252 23.9167 5.83335 23.9167H22.1667C23.7775 23.9167 25.0834 22.6109 25.0834 21.0001V9.33341Z" fill="#18202A"/>
</svg>
