<svg width="28" height="28" viewBox="0 0 28 28" fill="none" xmlns="http://www.w3.org/2000/svg">
<path d="M6.78788 1.1665C4.3277 1.1665 2.33333 3.25778 2.33333 5.8375V8.1665H9.33333C9.33333 7.27078 9.67504 6.37505 10.3585 5.69163C11.7253 4.32479 13.9414 4.32479 15.3082 5.69163L18.8082 9.19163C20.175 10.5585 20.175 12.7745 18.8082 14.1414L15.3082 17.6414C13.9414 19.0082 11.7253 19.0082 10.3585 17.6414C9.67504 16.958 9.33333 16.0622 9.33333 15.1665H2.33333V16.3473C2.33333 18.927 4.3277 21.0183 6.78788 21.0183H7.39532L6.74961 24.2565C6.55123 25.2514 7.57567 26.0187 8.40882 25.4992L15.5957 21.0183H22.3788C24.839 21.0183 26.8333 18.927 26.8333 16.3473V5.83751C26.8333 3.25778 24.839 1.1665 22.3788 1.1665H6.78788Z" fill="#18202A"/>
<path d="M12.0084 7.34155C12.464 6.88593 13.2027 6.88593 13.6583 7.34155L17.1583 10.8415C17.6139 11.2972 17.6139 12.0358 17.1583 12.4915L13.6583 15.9915C13.2027 16.4471 12.464 16.4471 12.0084 15.9915C11.5528 15.5358 11.5528 14.7972 12.0084 14.3415L13.5168 12.8332H1.16667C0.522334 12.8332 0 12.3108 0 11.6665C0 11.0222 0.522334 10.4998 1.16667 10.4998H13.5168L12.0084 8.99146C11.5528 8.53585 11.5528 7.79716 12.0084 7.34155Z" fill="#18202A"/>
</svg>
