<svg width="28" height="28" viewBox="0 0 28 28" fill="none" xmlns="http://www.w3.org/2000/svg">
<path fill-rule="evenodd" clip-rule="evenodd" d="M16.9165 1.50318C14.0959 0.84492 11.1355 1.1602 8.51673 2.39775C5.89798 3.6353 3.77488 5.72234 2.49265 8.31951C1.21042 10.9167 0.844478 13.8712 1.45432 16.7027C2.06416 19.5343 3.61392 22.0762 5.85161 23.9153C8.0893 25.7543 10.8833 26.7823 13.7793 26.8321C16.6753 26.8819 19.503 25.9506 21.8026 24.1896C22.3142 23.7978 22.4113 23.0655 22.0196 22.554C21.6278 22.0424 20.8955 21.9453 20.384 22.337C18.5025 23.7779 16.1889 24.5399 13.8194 24.4992C11.45 24.4584 9.16397 23.6173 7.33313 22.1126C5.5023 20.6079 4.23431 18.5282 3.73535 16.2115C3.23639 13.8948 3.5358 11.4774 4.58489 9.35245C5.63399 7.2275 7.37107 5.51992 9.51369 4.50738C11.6563 3.49484 14.0784 3.23688 16.3862 3.77545C18.6941 4.31403 20.7518 5.61746 22.2249 7.4738C23.698 9.33012 24.4998 11.6302 24.5 14V15.1666C24.5 15.7855 24.2541 16.379 23.8166 16.8166C23.379 17.2541 22.7855 17.5 22.1666 17.5C21.5478 17.5 20.9543 17.2541 20.5167 16.8166C20.0791 16.379 19.8333 15.7855 19.8333 15.1666V9.3333C19.8333 8.68897 19.311 8.16664 18.6666 8.16664C18.0224 8.16664 17.5002 8.68875 17.5 9.3329C16.525 8.60059 15.3132 8.16665 14 8.16665C10.7783 8.16665 8.16663 10.7783 8.16663 14C8.16663 17.2216 10.7783 19.8333 14 19.8333C15.7361 19.8333 17.295 19.0749 18.3636 17.8713C18.5135 18.082 18.6816 18.2812 18.8668 18.4665C19.742 19.3416 20.929 19.8333 22.1666 19.8333C23.4043 19.8333 24.5913 19.3416 25.4665 18.4665C26.3416 17.5913 26.8333 16.4043 26.8333 15.1666V13.9999C26.8331 11.1035 25.8531 8.29224 24.0527 6.02338C22.2522 3.75451 19.7372 2.16143 16.9165 1.50318ZM10.5 14C10.5 12.067 12.067 10.5 14 10.5C15.933 10.5 17.5 12.067 17.5 14C17.5 15.933 15.933 17.5 14 17.5C12.067 17.5 10.5 15.933 10.5 14Z" fill="#18202A"/>
</svg>
