<svg width="28" height="28" viewBox="0 0 28 28" fill="none" xmlns="http://www.w3.org/2000/svg">
<path fill-rule="evenodd" clip-rule="evenodd" d="M19.8333 4.66634H7C5.067 4.66634 3.5 6.23334 3.5 8.16634V18.6663C3.5 20.5993 5.067 22.1663 7 22.1663H11.8333C12.3856 22.1663 12.8333 22.6141 12.8333 23.1663V23.4997C12.8333 24.052 12.3856 24.4997 11.8333 24.4997H7C3.77834 24.4997 1.16666 21.888 1.16666 18.6663V8.16634C1.16666 4.94468 3.77834 2.33301 7 2.33301H19.8333C23.055 2.33301 25.6667 4.94468 25.6667 8.16634V10.6663C25.6667 11.2186 25.2189 11.6663 24.6667 11.6663H24.3333C23.781 11.6663 23.3333 11.2186 23.3333 10.6663V8.16634C23.3333 6.23334 21.7663 4.66634 19.8333 4.66634ZM15.1667 17.4997C15.1667 15.5667 16.7337 13.9997 18.6667 13.9997H23.3333C25.2663 13.9997 26.8333 15.5667 26.8333 17.4997V22.1663C26.8333 24.0993 25.2663 25.6663 23.3333 25.6663H18.6667C16.7337 25.6663 15.1667 24.0993 15.1667 22.1663V17.4997Z" fill="#18202A"/>
</svg>
