<svg width="28" height="28" viewBox="0 0 28 28" fill="none" xmlns="http://www.w3.org/2000/svg">
<path fill-rule="evenodd" clip-rule="evenodd" d="M26.8333 13.9998C26.8333 16.2733 26.2422 18.4086 25.2052 20.2606L18.9316 13.987L20.1686 12.7265C20.4135 12.477 20.4603 12.1389 20.381 11.8677C20.3015 11.5959 20.0708 11.3201 19.7005 11.2637L16.2934 10.7452L14.7554 7.48539C14.4499 6.83799 13.5501 6.83799 13.2447 7.48539L12.9835 8.03889L7.73924 2.79464C9.5912 1.75766 11.7266 1.1665 14 1.1665C21.0877 1.1665 26.8333 6.91218 26.8333 13.9998ZM22.2114 23.8627L24.7605 26.4117C25.2767 26.9279 26.0648 26.9767 26.5208 26.5207C26.9768 26.0647 26.9281 25.2765 26.4119 24.7603L3.23949 1.58795C2.72331 1.07176 1.93518 1.02299 1.47917 1.47901C1.02315 1.93502 1.07192 2.72315 1.58811 3.23933L4.13718 5.78841C2.28246 8.0137 1.16666 10.8765 1.16666 13.9998C1.16666 21.0875 6.91234 26.8332 14 26.8332C17.1234 26.8332 19.9861 25.7174 22.2114 23.8627ZM17.9867 19.6379C17.9825 19.6415 17.9783 19.645 17.974 19.6484C17.7367 19.8398 17.3816 19.908 17.0586 19.7306L14 18.0502L10.9414 19.7306C10.6184 19.908 10.2633 19.8398 10.026 19.6484C9.79335 19.4607 9.6641 19.1529 9.71741 18.8283L10.3055 15.2471L7.83096 12.7223C7.58623 12.4726 7.53972 12.1344 7.61924 11.8633C7.69895 11.5915 7.92989 11.3158 8.30036 11.2598L9.43678 11.088L17.9867 19.6379Z" fill="#18202A"/>
</svg>
