<svg width="28" height="28" viewBox="0 0 28 28" fill="none" xmlns="http://www.w3.org/2000/svg">
<path fill-rule="evenodd" clip-rule="evenodd" d="M14 25.0832C20.1211 25.0832 25.0833 20.121 25.0833 13.9998C25.0833 7.87868 20.1211 2.9165 14 2.9165C7.87883 2.9165 2.91666 7.87868 2.91666 13.9998C2.91666 20.121 7.87883 25.0832 14 25.0832ZM26.8333 13.9998C26.8333 21.0875 21.0876 26.8332 14 26.8332C6.91234 26.8332 1.16666 21.0875 1.16666 13.9998C1.16666 6.91218 6.91234 1.1665 14 1.1665C21.0876 1.1665 26.8333 6.91218 26.8333 13.9998Z" fill="#18202A"/>
<path d="M13.125 6.70817C13.125 6.22492 13.5167 5.83317 14 5.83317C14.4832 5.83317 14.875 6.22492 14.875 6.70817V13.9998C14.875 14.4831 14.4832 14.8748 14 14.8748C13.5167 14.8748 13.125 14.4831 13.125 13.9998V6.70817Z" fill="#18202A"/>
<path d="M20.125 13.1248C20.6082 13.1248 21 13.5166 21 13.9998C21 14.4831 20.6082 14.8748 20.125 14.8748H14C13.5167 14.8748 13.125 14.4831 13.125 13.9998C13.125 13.5166 13.5167 13.1248 14 13.1248H20.125Z" fill="#18202A"/>
</svg>
