<svg width="28" height="28" viewBox="0 0 28 28" fill="none" xmlns="http://www.w3.org/2000/svg">
<path d="M6.99996 2.33332C6.99996 1.68899 7.52229 1.16666 8.16663 1.16666C8.81096 1.16666 9.33329 1.68899 9.33329 2.33332V6.99999C9.33329 7.64432 8.81096 8.16666 8.16663 8.16666C7.52229 8.16666 6.99996 7.64432 6.99996 6.99999V2.33332Z" fill="#18202A"/>
<path d="M18.6666 2.33332C18.6666 1.68899 19.189 1.16666 19.8333 1.16666C20.4776 1.16666 21 1.68899 21 2.33332V6.99999C21 7.64432 20.4776 8.16666 19.8333 8.16666C19.189 8.16666 18.6666 7.64432 18.6666 6.99999V2.33332Z" fill="#18202A"/>
<path fill-rule="evenodd" clip-rule="evenodd" d="M5.83329 3.49999C3.25596 3.49999 1.16663 5.58933 1.16663 8.16666V22.1667C1.16663 24.744 3.25596 26.8333 5.83329 26.8333H22.1666C24.744 26.8333 26.8333 24.744 26.8333 22.1667V8.16666C26.8333 5.58933 24.744 3.49999 22.1666 3.49999H5.83329ZM5.83329 11.6667C5.83329 11.0223 6.35563 10.5 6.99996 10.5H21C21.6443 10.5 22.1666 11.0223 22.1666 11.6667C22.1666 12.311 21.6443 12.8333 21 12.8333H6.99996C6.35563 12.8333 5.83329 12.311 5.83329 11.6667ZM5.83329 16.3333C5.83329 15.689 6.35563 15.1667 6.99996 15.1667C7.64429 15.1667 8.16663 15.689 8.16663 16.3333C8.16663 16.9777 7.64429 17.5 6.99996 17.5C6.35563 17.5 5.83329 16.9777 5.83329 16.3333ZM6.99996 19.8333C6.35563 19.8333 5.83329 20.3557 5.83329 21C5.83329 21.6443 6.35563 22.1667 6.99996 22.1667C7.64429 22.1667 8.16663 21.6443 8.16663 21C8.16663 20.3557 7.64429 19.8333 6.99996 19.8333ZM10.5 16.3333C10.5 15.689 11.0223 15.1667 11.6666 15.1667C12.311 15.1667 12.8333 15.689 12.8333 16.3333C12.8333 16.9777 12.311 17.5 11.6666 17.5C11.0223 17.5 10.5 16.9777 10.5 16.3333ZM11.6666 19.8333C11.0223 19.8333 10.5 20.3557 10.5 21C10.5 21.6443 11.0223 22.1667 11.6666 22.1667C12.311 22.1667 12.8333 21.6443 12.8333 21C12.8333 20.3557 12.311 19.8333 11.6666 19.8333ZM15.1666 16.3333C15.1666 15.689 15.689 15.1667 16.3333 15.1667C16.9776 15.1667 17.5 15.689 17.5 16.3333C17.5 16.9777 16.9776 17.5 16.3333 17.5C15.689 17.5 15.1666 16.9777 15.1666 16.3333ZM16.3333 19.8333C15.689 19.8333 15.1666 20.3557 15.1666 21C15.1666 21.6443 15.689 22.1667 16.3333 22.1667C16.9776 22.1667 17.5 21.6443 17.5 21C17.5 20.3557 16.9776 19.8333 16.3333 19.8333ZM19.8333 16.3333C19.8333 15.689 20.3556 15.1667 21 15.1667C21.6443 15.1667 22.1666 15.689 22.1666 16.3333C22.1666 16.9777 21.6443 17.5 21 17.5C20.3556 17.5 19.8333 16.9777 19.8333 16.3333ZM21 19.8333C20.3556 19.8333 19.8333 20.3557 19.8333 21C19.8333 21.6443 20.3556 22.1667 21 22.1667C21.6443 22.1667 22.1666 21.6443 22.1666 21C22.1666 20.3557 21.6443 19.8333 21 19.8333Z" fill="#18202A"/>
</svg>
