<svg width="28" height="28" viewBox="0 0 28 28" fill="none" xmlns="http://www.w3.org/2000/svg">
<g clip-path="url(#clip0_2296_15397)">
<path fill-rule="evenodd" clip-rule="evenodd" d="M5.83332 2.91699H22.1667C23.7775 2.91699 25.0833 4.22283 25.0833 5.83366V15.7465C25.8219 16.3001 26.4248 17.0249 26.8333 17.8619V5.83366C26.8333 3.25633 24.744 1.16699 22.1667 1.16699H5.83332C3.25599 1.16699 1.16666 3.25633 1.16666 5.83366V22.167C1.16666 24.7443 3.25599 26.8337 5.83332 26.8337H15.3645C14.8715 26.3884 14.5899 25.7413 14.5834 25.0837H5.83332C4.22249 25.0837 2.91666 23.7778 2.91666 22.167V5.83366C2.91666 4.22283 4.22249 2.91699 5.83332 2.91699ZM23.3333 14.8493V13.417C23.3333 12.1283 22.2887 11.0837 21 11.0837H6.99999C5.71133 11.0837 4.66666 12.1283 4.66666 13.417V21.0003C4.66666 22.289 5.71133 23.3337 6.99999 23.3337H15.3767C15.4227 23.2936 15.4709 23.2547 15.5212 23.217C15.6681 23.1068 15.7545 22.9339 15.7545 22.7503V21.5837H6.99999C6.67782 21.5837 6.41666 21.3225 6.41666 21.0003V13.417C6.41666 13.0948 6.67782 12.8337 6.99999 12.8337H21C21.3222 12.8337 21.5833 13.0948 21.5833 13.417V14.5837C21.5848 14.5837 21.5864 14.5837 21.5879 14.5837C22.1959 14.5837 22.7822 14.6767 23.3333 14.8493ZM6.99999 4.66699C5.71133 4.66699 4.66666 5.71166 4.66666 7.00033C4.66666 8.28899 5.71133 9.33366 6.99999 9.33366C8.28865 9.33366 9.33332 8.28899 9.33332 7.00033C9.33332 5.71166 8.28865 4.66699 6.99999 4.66699ZM11.6667 7.00033C11.6667 6.51708 12.0584 6.12533 12.5417 6.12533H21.875C22.3582 6.12533 22.75 6.51708 22.75 7.00033C22.75 7.48357 22.3582 7.87533 21.875 7.87533H12.5417C12.0584 7.87533 11.6667 7.48357 11.6667 7.00033Z" fill="#18202A"/>
<path fill-rule="evenodd" clip-rule="evenodd" d="M25.6667 20.433L25.6667 20.4163C25.6667 18.1612 23.8385 16.333 21.5834 16.333C20.1782 16.333 18.9388 17.0428 18.2041 18.1234L26.1037 24.1642C25.8238 23.8136 25.6667 23.3747 25.6667 22.9163V20.433ZM25.5987 25.6663H17.0833C16.4694 25.6663 16.2088 24.8847 16.7 24.5163C17.2036 24.1386 17.5 23.5459 17.5 22.9163V20.4164L17.5 20.4163L17.5 20.4163C17.5 20.1171 17.5322 19.8255 17.5933 19.5446L25.5987 25.6663ZM19.8334 27.4163C19.8334 27.0942 20.0945 26.833 20.4167 26.833H22.75C23.0722 26.833 23.3334 27.0942 23.3334 27.4163C23.3334 27.7385 23.0722 27.9997 22.75 27.9997H20.4167C20.0945 27.9997 19.8334 27.7385 19.8334 27.4163Z" fill="#18202A"/>
<path d="M16.9167 16.917L26.8333 24.5003" stroke="#18202A" stroke-width="1.5" stroke-linecap="round"/>
</g>
<defs>
<clipPath id="clip0_2296_15397">
<rect width="28" height="28" fill="white"/>
</clipPath>
</defs>
</svg>
