<svg width="28" height="28" viewBox="0 0 28 28" fill="none" xmlns="http://www.w3.org/2000/svg">
<path fill-rule="evenodd" clip-rule="evenodd" d="M22.75 22.167V11.4668C22.75 11.3121 22.6885 11.1637 22.5791 11.0543L14.6126 3.08785C14.5033 2.97845 14.3549 2.91699 14.2002 2.91699H8.16667C6.55584 2.91699 5.25 4.22283 5.25 5.83366V22.167C5.25 23.7778 6.55584 25.0837 8.16667 25.0837H19.8333C21.4442 25.0837 22.75 23.7778 22.75 22.167ZM8.16667 1.16699C5.58934 1.16699 3.5 3.25633 3.5 5.83366V22.167C3.5 24.7443 5.58934 26.8337 8.16667 26.8337H19.8333C22.4107 26.8337 24.5 24.7443 24.5 22.167V11.4668C24.5 10.848 24.2542 10.2545 23.8166 9.81691L15.8501 1.85041C15.4125 1.41282 14.819 1.16699 14.2002 1.16699H8.16667Z" fill="#18202A"/>
<path d="M12.8333 1.16699H14.5833V12.8337H12.8333V1.16699Z" fill="#18202A"/>
<path d="M12.8333 11.0837H24.5V12.8337H12.8333V11.0837Z" fill="#18202A"/>
</svg>
