<svg width="28" height="28" viewBox="0 0 28 28" fill="none" xmlns="http://www.w3.org/2000/svg">
<path fill-rule="evenodd" clip-rule="evenodd" d="M9.33329 4.66675C8.68896 4.66675 8.16663 5.18908 8.16663 5.83341V22.1667C8.16663 22.8111 8.68896 23.3334 9.33329 23.3334H16.9166C19.8161 23.3334 22.1666 20.9829 22.1666 18.0834C22.1666 15.8172 20.7307 13.8863 18.7191 13.151C19.4171 12.2596 19.8333 11.1368 19.8333 9.91675C19.8333 7.01725 17.4828 4.66675 14.5833 4.66675H9.33329ZM14.5833 12.8334C16.1941 12.8334 17.5 11.5276 17.5 9.91675C17.5 8.30592 16.1941 7.00008 14.5833 7.00008H10.5V12.8334H14.5833ZM19.8333 18.0834C19.8333 16.4726 18.5275 15.1667 16.9166 15.1667H10.5V21.0001H16.9166C18.5275 21.0001 19.8333 19.6942 19.8333 18.0834Z" fill="#18202A"/>
</svg>
