<svg width="28" height="28" viewBox="0 0 28 28" fill="none" xmlns="http://www.w3.org/2000/svg">
<g clip-path="url(#clip0_2291_21618)">
<path fill-rule="evenodd" clip-rule="evenodd" d="M9.91671 0.583374C10.561 0.583374 11.0834 1.10571 11.0834 1.75004V4.08337C11.0834 4.72771 10.561 5.25004 9.91671 5.25004C9.27238 5.25004 8.75004 4.72771 8.75004 4.08337V1.75004C8.75004 1.10571 9.27238 0.583374 9.91671 0.583374ZM3.25842 3.25842C3.71403 2.8028 4.45272 2.8028 4.90833 3.25842L6.65833 5.00842C7.11394 5.46403 7.11394 6.20272 6.65833 6.65833C6.20272 7.11394 5.46403 7.11394 5.00842 6.65833L3.25842 4.90833C2.8028 4.45272 2.8028 3.71403 3.25842 3.25842ZM0.583374 9.91671C0.583374 9.27238 1.10571 8.75004 1.75004 8.75004H4.08337C4.72771 8.75004 5.25004 9.27238 5.25004 9.91671C5.25004 10.561 4.72771 11.0834 4.08337 11.0834H1.75004C1.10571 11.0834 0.583374 10.561 0.583374 9.91671ZM14 4.10085C16.7337 1.36718 21.1658 1.36718 23.8995 4.10085C26.6332 6.83452 26.6332 11.2667 23.8995 14.0003L21.4246 16.4752C20.969 16.9308 20.2303 16.9308 19.7747 16.4752C19.3191 16.0196 19.3191 15.2809 19.7747 14.8253L22.2496 12.3504C24.072 10.528 24.072 7.57321 22.2496 5.75077C20.4271 3.92832 17.4724 3.92832 15.6499 5.75077L13.175 8.22564C12.7194 8.68125 11.9807 8.68125 11.5251 8.22564C11.0695 7.77003 11.0695 7.03134 11.5251 6.57572L14 4.10085ZM4.10049 13.9994C1.36682 16.733 1.36682 21.1652 4.10049 23.8989C6.83416 26.6325 11.2663 26.6325 14 23.8989L16.4749 21.424C16.9305 20.9684 16.9305 20.2297 16.4749 19.7741C16.0193 19.3185 15.2806 19.3185 14.8249 19.7741L12.3501 22.2489C10.5276 24.0714 7.57286 24.0714 5.75041 22.2489C3.92796 20.4265 3.92796 17.4717 5.75041 15.6493L8.22528 13.1744C8.6809 12.7188 8.6809 11.9801 8.22528 11.5245C7.76967 11.0689 7.03098 11.0689 6.57537 11.5245L4.10049 13.9994ZM16.9167 26.25C16.9167 26.8944 17.439 27.4167 18.0834 27.4167C18.7277 27.4167 19.25 26.8944 19.25 26.25V23.9167C19.25 23.2724 18.7277 22.75 18.0834 22.75C17.439 22.75 16.9167 23.2724 16.9167 23.9167V26.25ZM21.3418 22.9917L23.0918 24.7417C23.5474 25.1973 24.2861 25.1973 24.7417 24.7417C25.1973 24.2861 25.1973 23.5474 24.7417 23.0918L22.9917 21.3418C22.5361 20.8861 21.7974 20.8861 21.3418 21.3418C20.8861 21.7974 20.8861 22.5361 21.3418 22.9917ZM26.25 19.25C26.8944 19.25 27.4167 18.7277 27.4167 18.0834C27.4167 17.439 26.8944 16.9167 26.25 16.9167H23.9167C23.2724 16.9167 22.75 17.439 22.75 18.0834C22.75 18.7277 23.2724 19.25 23.9167 19.25H26.25Z" fill="#18202A"/>
</g>
<defs>
<clipPath id="clip0_2291_21618">
<rect width="28" height="28" fill="white"/>
</clipPath>
</defs>
</svg>
