<svg width="28" height="28" viewBox="0 0 28 28" fill="none" xmlns="http://www.w3.org/2000/svg">
<path fill-rule="evenodd" clip-rule="evenodd" d="M22.9972 2.59085C23.341 2.24706 23.8984 2.24706 24.2422 2.59085C24.5859 2.93464 24.5859 3.49204 24.2422 3.83583L18.6667 9.41132V12.833C18.6667 15.4103 16.5773 17.4997 14 17.4997C13.0295 17.4997 12.1282 17.2034 11.3816 16.6964L10.1099 17.9681C11.1821 18.7728 12.5145 19.2497 13.9583 19.2497C17.2061 19.2497 19.8903 16.8367 20.3161 13.7058C20.3812 13.2269 20.7667 12.833 21.2499 12.833C21.7332 12.833 22.1299 13.2261 22.0788 13.7066C21.6748 17.5048 18.6672 20.5252 14.875 20.9488V23.9163H18.375C18.8582 23.9163 19.25 24.3081 19.25 24.7913C19.25 25.2746 18.8582 25.6663 18.375 25.6663H9.625C9.14175 25.6663 8.75 25.2746 8.75 24.7913C8.75 24.3081 9.14175 23.9163 9.625 23.9163H13.125V20.9577C11.5218 20.7952 10.0556 20.169 8.86265 19.2153L5.00282 23.0752C4.65903 23.419 4.10163 23.419 3.75784 23.0752C3.41405 22.7314 3.41405 22.174 3.75784 21.8302L22.9972 2.59085ZM12.6558 15.4222C13.0581 15.6314 13.5152 15.7497 14 15.7497C15.6108 15.7497 16.9167 14.4438 16.9167 12.833V11.1613L12.6558 15.4222Z" fill="#18202A"/>
<path d="M14 2.33301C15.8343 2.33301 17.4215 3.39135 18.1841 4.93071L16.8287 6.28609C16.5104 5.02021 15.3647 4.08301 14 4.08301C12.3892 4.08301 11.0833 5.38884 11.0833 6.99967V12.0315L9.41389 13.7009C9.361 13.4197 9.33333 13.1296 9.33333 12.833V6.99967C9.33333 4.42235 11.4227 2.33301 14 2.33301Z" fill="#18202A"/>
<path d="M7.97048 15.1443C7.79412 14.6877 7.66847 14.2059 7.60045 13.7058C7.53534 13.2269 7.14985 12.833 6.6666 12.833C6.18335 12.833 5.78667 13.2261 5.83778 13.7066C5.94242 14.6906 6.22184 15.6225 6.64438 16.4704L7.97048 15.1443Z" fill="#18202A"/>
</svg>
