<svg width="28" height="28" viewBox="0 0 28 28" fill="none" xmlns="http://www.w3.org/2000/svg">
<path fill-rule="evenodd" clip-rule="evenodd" d="M2.95203 7.61872L6.45203 4.11872C6.79374 3.77701 6.79374 3.22299 6.45203 2.88128C6.11032 2.53957 5.5563 2.53957 5.21459 2.88128L1.71459 6.38128C1.37289 6.72299 1.37289 7.27701 1.71459 7.61872C2.0563 7.96043 2.61032 7.96043 2.95203 7.61872ZM23.9166 15.1667C23.9166 20.6435 19.4768 25.0833 14 25.0833C8.52316 25.0833 4.08331 20.6435 4.08331 15.1667C4.08331 9.68984 8.52316 5.25 14 5.25C19.4768 5.25 23.9166 9.68984 23.9166 15.1667ZM25.6666 15.1667C25.6666 21.61 20.4433 26.8333 14 26.8333C7.55666 26.8333 2.33331 21.61 2.33331 15.1667C2.33331 8.72334 7.55666 3.5 14 3.5C20.4433 3.5 25.6666 8.72334 25.6666 15.1667ZM21.5479 4.11872L25.0479 7.61872C25.3896 7.96043 25.9437 7.96043 26.2854 7.61872C26.6271 7.27701 26.6271 6.72299 26.2854 6.38128L22.7854 2.88128C22.4437 2.53957 21.8896 2.53957 21.5479 2.88128C21.2062 3.22299 21.2062 3.77701 21.5479 4.11872ZM14.875 8.16667C14.875 7.68342 14.4832 7.29167 14 7.29167C13.5167 7.29167 13.125 7.68342 13.125 8.16667V15.1667C13.125 15.5167 13.3336 15.833 13.6553 15.9709L17.7386 17.7209C18.1828 17.9113 18.6972 17.7055 18.8876 17.2613C19.0779 16.8172 18.8722 16.3028 18.428 16.1124L14.875 14.5897V8.16667Z" fill="#18202A"/>
</svg>
