<svg width="28" height="28" viewBox="0 0 28 28" fill="none" xmlns="http://www.w3.org/2000/svg">
<path d="M20.5756 15.6589L23.6109 10.0941L23.675 10.1582C24.1307 10.6138 24.8693 10.6138 25.325 10.1582C25.5525 9.9307 25.6664 9.63259 25.6667 9.3344V9.33211C25.6664 9.03391 25.5525 8.73581 25.325 8.50829L24.1774 7.36078C24.1652 7.348 24.1527 7.33546 24.1399 7.32319L20.6767 3.86004C20.6644 3.84721 20.6519 3.83469 20.6392 3.8225L19.4916 2.67496C19.036 2.21935 18.2973 2.21935 17.8417 2.67496C17.3861 3.13057 17.3861 3.86927 17.8417 4.32488L17.9058 4.38901L12.341 7.42437L20.5756 15.6589Z" fill="#18202A"/>
<path d="M5.00837 5.00829C5.46398 4.55268 6.20268 4.55268 6.65829 5.00829L22.9925 21.3425C23.4481 21.7981 23.4481 22.5368 22.9925 22.9924C22.5368 23.448 21.7981 23.448 21.3425 22.9924L18.258 19.9078L17.3638 21.5471L18.325 22.5083C18.7806 22.9639 18.7806 23.7026 18.325 24.1582C17.8693 24.6138 17.1307 24.6138 16.675 24.1582L11.0833 18.5665L6.65829 22.9915C6.20268 23.4472 5.46399 23.4472 5.00838 22.9915C4.55276 22.5359 4.55276 21.7972 5.00838 21.3416L9.43342 16.9166L3.84171 11.3249C3.3861 10.8693 3.3861 10.1306 3.84171 9.67496C4.29732 9.21935 5.03601 9.21935 5.49162 9.67496L6.45279 10.6361L8.09211 9.74195L5.00837 6.65821C4.55276 6.2026 4.55276 5.4639 5.00837 5.00829Z" fill="#18202A"/>
</svg>
