<svg width="28" height="28" viewBox="0 0 28 28" fill="none" xmlns="http://www.w3.org/2000/svg">
<path d="M3.50002 3.5C2.21136 3.5 1.16669 4.54467 1.16669 5.83333V10.5C1.16669 11.7887 2.21136 12.8333 3.50002 12.8333H17.5C18.7887 12.8333 19.8334 11.7887 19.8334 10.5V5.83333C19.8334 4.54467 18.7887 3.5 17.5 3.5H3.50002Z" fill="#18202A"/>
<path fill-rule="evenodd" clip-rule="evenodd" d="M1.16669 17.5C1.16669 16.2113 2.21136 15.1667 3.50002 15.1667H17.5C18.7887 15.1667 19.8334 16.2113 19.8334 17.5V22.1667C19.8334 23.4553 18.7887 24.5 17.5 24.5H3.50002C2.21136 24.5 1.16669 23.4553 1.16669 22.1667V17.5ZM2.91669 17.5C2.91669 17.1778 3.17785 16.9167 3.50002 16.9167H17.5C17.8222 16.9167 18.0834 17.1778 18.0834 17.5V22.1667C18.0834 22.4888 17.8222 22.75 17.5 22.75H3.50002C3.17785 22.75 2.91669 22.4888 2.91669 22.1667V17.5Z" fill="#18202A"/>
<path d="M22.558 6.8009C22.1257 6.58479 21.6002 6.75998 21.384 7.19221C21.1679 7.62444 21.3431 8.15003 21.7754 8.36615C23.301 9.12898 24.5645 10.6573 24.8773 12.4718C25.1415 14.004 24.745 15.8552 23.0417 17.735V16.3333C23.0417 15.8501 22.6499 15.4583 22.1667 15.4583C21.6834 15.4583 21.2917 15.8501 21.2917 16.3333V19.8333C21.2917 20.3166 21.6834 20.7083 22.1667 20.7083H25.6667C26.1499 20.7083 26.5417 20.3166 26.5417 19.8333C26.5417 19.3501 26.1499 18.9583 25.6667 18.9583H24.2938C26.3417 16.7207 26.9736 14.3305 26.6019 12.1744C26.1855 9.75975 24.5323 7.78807 22.558 6.8009Z" fill="#18202A"/>
</svg>
