<svg width="28" height="28" viewBox="0 0 28 28" fill="none" xmlns="http://www.w3.org/2000/svg">
<path d="M15.466 7.29175C17.0726 7.29175 18.375 8.59414 18.375 10.2007C18.375 11.3833 17.6603 12.4405 16.5802 12.8879L16.3859 12.9604L16.0267 13.0802C15.3918 13.2918 14.9477 13.8565 14.8831 14.5124L14.875 14.6781V15.1667C14.875 15.65 14.4832 16.0417 14 16.0417C13.557 16.0417 13.1909 15.7126 13.133 15.2855L13.125 15.1667V14.6781C13.125 13.2738 13.9787 12.0191 15.2664 11.4964L15.4733 11.42L15.8325 11.3003C16.3058 11.1425 16.625 10.6996 16.625 10.2007C16.625 9.60636 16.1776 9.11649 15.6012 9.04955L15.466 9.04175H12.1499C11.7219 9.04175 11.375 9.3887 11.375 9.81666C11.375 9.98108 11.4272 10.1401 11.5225 10.2715L11.602 10.3646L11.702 10.4647C12.0438 10.8064 12.0438 11.3604 11.702 11.7021C11.3914 12.0128 10.9053 12.041 10.5627 11.7869L10.4646 11.7021L10.3645 11.602C9.89101 11.1285 9.62499 10.4863 9.62499 9.81666C9.62499 8.48283 10.6593 7.39055 11.9696 7.29809L12.1499 7.29175H15.466Z" fill="#18202A"/>
<path d="M15.1667 18.6667C15.1667 18.0224 14.6443 17.5001 14 17.5001C13.3557 17.5001 12.8333 18.0224 12.8333 18.6667C12.8333 19.3111 13.3557 19.8334 14 19.8334C14.6443 19.8334 15.1667 19.3111 15.1667 18.6667Z" fill="#18202A"/>
<path fill-rule="evenodd" clip-rule="evenodd" d="M14 26.8334C21.0876 26.8334 26.8333 21.0877 26.8333 14.0001C26.8333 6.91243 21.0876 1.16675 14 1.16675C6.91234 1.16675 1.16666 6.91243 1.16666 14.0001C1.16666 21.0877 6.91234 26.8334 14 26.8334ZM25.0833 14.0001C25.0833 20.1212 20.1211 25.0834 14 25.0834C7.87883 25.0834 2.91666 20.1212 2.91666 14.0001C2.91666 7.87893 7.87883 2.91675 14 2.91675C20.1211 2.91675 25.0833 7.87893 25.0833 14.0001Z" fill="#18202A"/>
</svg>
