<svg width="28" height="28" viewBox="0 0 28 28" fill="none" xmlns="http://www.w3.org/2000/svg">
<path d="M24.346 19.4015C24.6002 18.9151 24.8206 18.4099 25.0048 17.8892C25.2198 17.2818 24.9016 16.6151 24.2942 16.4002C23.6868 16.1852 23.0201 16.5034 22.8052 17.1108C22.7406 17.2932 22.6706 17.4732 22.5951 17.6506L24.346 19.4015Z" fill="#18202A"/>
<path d="M10.3532 5.40864C10.862 5.19309 11.3909 5.02239 11.9338 4.89954C13.4715 4.55161 15.0724 4.59889 16.5869 5.03697C18.1014 5.47505 19.4803 6.28965 20.5948 7.40476C20.6035 7.41338 20.6122 7.42187 20.6211 7.43023L23.888 10.4999H21C20.3557 10.4999 19.8333 11.0223 19.8333 11.6666C19.8333 12.3109 20.3557 12.8333 21 12.8333H26.8333C27.4777 12.8333 28 12.3109 28 11.6666V5.83325C28 5.18892 27.4777 4.66659 26.8333 4.66659C26.189 4.66659 25.6667 5.18892 25.6667 5.83325V8.96944L22.2319 5.74196C20.841 4.35489 19.1224 3.34137 17.2352 2.79552C15.3421 2.24792 13.341 2.18882 11.4189 2.62374C10.4353 2.84629 9.48869 3.1945 8.60144 3.65692L10.3532 5.40864Z" fill="#18202A"/>
<path d="M4.31758 2.67288C3.8033 2.23465 3.07648 2.21511 2.64583 2.64575C2.18982 3.10177 2.23859 3.8899 2.75477 4.40608L4.96387 6.61517C4.11363 7.6544 3.44617 8.83629 2.99516 10.1108C2.78022 10.7182 3.09838 11.3849 3.7058 11.5998C4.31323 11.8148 4.97989 11.4966 5.19484 10.8892C5.52947 9.94355 6.01305 9.06164 6.6241 8.2754L19.7234 21.3747C18.6471 22.2088 17.3992 22.7989 16.0662 23.1005C14.5285 23.4484 12.9276 23.4011 11.4131 22.963C9.89859 22.525 8.51972 21.7104 7.40516 20.5953C7.39655 20.5866 7.38779 20.5781 7.37891 20.5698L4.11194 17.4999H7C7.64433 17.4999 8.16667 16.9776 8.16667 16.3333C8.16667 15.6889 7.64433 15.1666 7 15.1666H1.16667C0.522334 15.1666 0 15.6889 0 16.3333V22.1666C0 22.8109 0.522334 23.3333 1.16667 23.3333C1.811 23.3333 2.33333 22.8109 2.33333 22.1666V19.0305L5.76812 22.258C7.15898 23.6451 8.87763 24.6586 10.7648 25.2045C12.6579 25.7521 14.659 25.8112 16.5811 25.3763C18.3437 24.9775 19.9874 24.1752 21.3839 23.0352L23.5938 25.2451C24.11 25.7613 24.8981 25.8101 25.3542 25.3541C25.7848 24.9234 25.7653 24.1966 25.327 23.6823L4.31758 2.67288Z" fill="#18202A"/>
</svg>
