<svg width="28" height="28" viewBox="0 0 28 28" fill="none" xmlns="http://www.w3.org/2000/svg">
<g clip-path="url(#clip0_3906_9127)">
<path fill-rule="evenodd" clip-rule="evenodd" d="M1.16663 8.16667C1.16663 5.58934 3.25596 3.5 5.83329 3.5H10.2169C11.1451 3.5 12.0354 3.86875 12.6918 4.52513L14 5.83333H22.1666C24.744 5.83333 26.8333 7.92267 26.8333 10.5V19.8333C26.8333 22.4107 24.744 24.5 22.1666 24.5H5.83329C3.25596 24.5 1.16663 22.4107 1.16663 19.8333V8.16667ZM19.2499 14.6364C20.6489 14.6364 21.3484 13.3106 21.3484 11.6534C21.3484 10.3277 20.6489 9.33333 19.2499 9.33333C17.851 9.33333 17.1515 10.3277 17.1515 11.6534C17.1515 13.3106 17.851 14.6364 19.2499 14.6364ZM15.8251 16.9828C15.9714 16.8553 16.1247 16.7358 16.2844 16.625C17.128 16.0396 18.1494 15.697 19.25 15.697C20.1412 15.697 20.9805 15.9216 21.7156 16.318C22.06 16.5037 22.3815 16.7271 22.6748 16.9828C22.757 17.0545 22.8315 17.132 22.8983 17.2142C23.4002 17.8318 23.4663 18.718 23.1042 19.4573L23.0921 19.4819L23.0797 19.5069C22.7828 20.103 22.2408 20.536 21.6013 20.7017C20.8496 20.8965 20.0617 21 19.25 21C18.4382 21 17.6503 20.8965 16.8986 20.7017C16.2591 20.536 15.7171 20.103 15.4202 19.5069L15.3957 19.4573C15.1825 19.022 15.1177 18.5357 15.203 18.0833C15.2819 17.6652 15.4888 17.2761 15.8251 16.9828Z" fill="#18202A"/>
</g>
<defs>
<clipPath id="clip0_3906_9127">
<rect width="28" height="28" fill="white"/>
</clipPath>
</defs>
</svg>
