<svg width="28" height="28" viewBox="0 0 28 28" fill="none" xmlns="http://www.w3.org/2000/svg">
<path fill-rule="evenodd" clip-rule="evenodd" d="M26.8333 14.0001C26.8333 21.0877 21.0877 26.8334 14 26.8334C6.91234 26.8334 1.16666 21.0877 1.16666 14.0001C1.16666 6.91243 6.91234 1.16675 14 1.16675C21.0877 1.16675 26.8333 6.91243 26.8333 14.0001ZM19.4916 10.1584C19.9472 9.70276 19.9472 8.96407 19.4916 8.50846C19.036 8.05285 18.2973 8.05285 17.8417 8.50846L14 12.3502L10.1583 8.50846C9.70268 8.05285 8.96398 8.05285 8.50837 8.50846C8.05276 8.96407 8.05276 9.70276 8.50837 10.1584L12.3501 14.0001L8.50837 17.8418C8.05276 18.2974 8.05276 19.0361 8.50837 19.4917C8.96398 19.9473 9.70268 19.9473 10.1583 19.4917L14 15.65L17.8417 19.4917C18.2973 19.9473 19.036 19.9473 19.4916 19.4917C19.9472 19.0361 19.9472 18.2974 19.4916 17.8418L15.6499 14.0001L19.4916 10.1584Z" fill="#18202A"/>
</svg>
