<svg width="28" height="28" viewBox="0 0 28 28" fill="none" xmlns="http://www.w3.org/2000/svg">
<path fill-rule="evenodd" clip-rule="evenodd" d="M21.5255 18.7256C22.6666 17.0456 23.3334 15.0173 23.3334 12.8334C23.3334 7.03438 18.6324 2.33337 12.8334 2.33337C7.03438 2.33337 2.33337 7.03438 2.33337 12.8334C2.33337 18.6324 7.03438 23.3334 12.8334 23.3334C15.0173 23.3334 17.0456 22.6666 18.7256 21.5255C19.276 21.1517 19.7891 20.7269 20.258 20.258C20.7269 19.7891 21.1517 19.276 21.5255 18.7256ZM22.6472 21.1032C22.2177 20.9093 21.6947 20.9888 21.3417 21.3417C20.9888 21.6947 20.9093 22.2177 21.1032 22.6472C21.1596 22.7721 21.2391 22.889 21.3417 22.9917L23.6751 25.325C24.1307 25.7806 24.8694 25.7806 25.325 25.325C25.7806 24.8694 25.7806 24.1307 25.325 23.6751L22.9917 21.3417C22.889 21.2391 22.7721 21.1596 22.6472 21.1032ZM12.8334 21C17.3437 21 21 17.3437 21 12.8334C21 8.32305 17.3437 4.66671 12.8334 4.66671C8.32305 4.66671 4.66671 8.32305 4.66671 12.8334C4.66671 17.3437 8.32305 21 12.8334 21Z" fill="#18202A"/>
</svg>
