<svg width="28" height="28" viewBox="0 0 28 28" fill="none" xmlns="http://www.w3.org/2000/svg">
<g clip-path="url(#clip0_3626_8954)">
<path d="M22.1666 17.2225L24.5 19.5558V4.66699C24.5 2.734 22.933 1.16699 21 1.16699H6.99996C6.72559 1.16699 6.4586 1.19856 6.20242 1.25827L18.6666 13.7225V6.52319C18.6666 5.43666 17.9167 4.49393 16.858 4.24961L13.6111 3.50033H21C21.6443 3.50033 22.1666 4.02266 22.1666 4.66699V17.2225Z" fill="#18202A"/>
<path fill-rule="evenodd" clip-rule="evenodd" d="M1.85894 3.51098L3.49996 5.15196V21.716C3.49996 23.3458 4.62489 24.7599 6.21295 25.1264L15.8086 27.3408C17.2707 27.6782 18.6666 26.5677 18.6666 25.0672V24.5003H21C21.5399 24.5003 22.0514 24.378 22.508 24.1597L24.4896 26.1412C25.0058 26.6574 25.7939 26.7062 26.25 26.2501C26.706 25.7941 26.6572 25.006 26.141 24.4898L3.51033 1.85959C2.99414 1.34341 2.20602 1.29463 1.75 1.75065C1.29398 2.20667 1.34276 2.99479 1.85894 3.51098ZM18.6666 20.3183L20.5153 22.167H18.6666V20.3183ZM15.6745 17.3263L14.0017 15.6535C14.0005 15.6856 14 15.7178 14 15.7503C14 16.7168 14.5223 17.5003 15.1666 17.5003C15.3487 17.5003 15.521 17.4378 15.6745 17.3263Z" fill="#18202A"/>
</g>
<defs>
<clipPath id="clip0_3626_8954">
<rect width="28" height="28" fill="white"/>
</clipPath>
</defs>
</svg>
