<svg width="28" height="28" viewBox="0 0 28 28" fill="none" xmlns="http://www.w3.org/2000/svg">
<g clip-path="url(#clip0_3906_9319)">
<path d="M13.4167 19.25C13.4167 19.7332 13.8084 20.125 14.2917 20.125C14.7749 20.125 15.1667 19.7332 15.1667 19.25V16.0417H18.375C18.8583 16.0417 19.25 15.6499 19.25 15.1667C19.25 14.6834 18.8583 14.2917 18.375 14.2917H15.1667V11.0833C15.1667 10.6001 14.7749 10.2083 14.2917 10.2083C13.8084 10.2083 13.4167 10.6001 13.4167 11.0833V14.2917H10.2084C9.7251 14.2917 9.33335 14.6834 9.33335 15.1667C9.33335 15.6499 9.7251 16.0417 10.2084 16.0417H13.4167V19.25Z" fill="#18202A"/>
<path fill-rule="evenodd" clip-rule="evenodd" d="M5.83335 3.5C3.25602 3.5 1.16669 5.58934 1.16669 8.16667V19.8333C1.16669 22.4107 3.25602 24.5 5.83335 24.5H22.1667C24.744 24.5 26.8334 22.4107 26.8334 19.8333V10.5C26.8334 7.92267 24.744 5.83333 22.1667 5.83333H14L12.6918 4.52513C12.0354 3.86875 11.1452 3.5 10.2169 3.5H5.83335ZM25.0834 10.5C25.0834 8.88917 23.7775 7.58333 22.1667 7.58333H13.2751L11.4544 5.76256C11.1262 5.43437 10.6811 5.25 10.2169 5.25H5.83335C4.22252 5.25 2.91669 6.55584 2.91669 8.16667V19.8333C2.91669 21.4442 4.22252 22.75 5.83335 22.75H22.1667C23.7775 22.75 25.0834 21.4442 25.0834 19.8333V10.5Z" fill="#18202A"/>
</g>
<defs>
<clipPath id="clip0_3906_9319">
<rect width="28" height="28" fill="white"/>
</clipPath>
</defs>
</svg>
