<svg width="28" height="28" viewBox="0 0 28 28" fill="none" xmlns="http://www.w3.org/2000/svg">
<path fill-rule="evenodd" clip-rule="evenodd" d="M8.16666 1.16675C4.30067 1.16675 1.16666 4.30075 1.16666 8.16675V19.8334C1.16666 23.6994 4.30067 26.8334 8.16666 26.8334H19.8333C23.6993 26.8334 26.8333 23.6994 26.8333 19.8334V8.16675C26.8333 4.30076 23.6993 1.16675 19.8333 1.16675H8.16666ZM14 9.33342C14 11.2664 12.433 12.8334 10.5 12.8334C8.567 12.8334 7 11.2664 7 9.33342C7 7.40042 8.567 5.83342 10.5 5.83342C12.433 5.83342 14 7.40042 14 9.33342ZM19.25 12.8334L24.5 19.5152V19.8334C24.5 22.4107 22.4107 24.5001 19.8333 24.5001H8.16666C6.55934 24.5001 5.14181 23.6875 4.30247 22.4507L9.33333 16.9167L12.8333 19.8334L19.25 12.8334Z" fill="#18202A"/>
</svg>
