<svg width="28" height="28" viewBox="0 0 28 28" fill="none" xmlns="http://www.w3.org/2000/svg">
<path fill-rule="evenodd" clip-rule="evenodd" d="M25.0833 9.9165H2.91666V22.1665C2.91666 23.7773 4.22249 25.0832 5.83332 25.0832H22.1667C23.7775 25.0832 25.0833 23.7773 25.0833 22.1665V9.9165ZM1.16666 8.1665V22.1665C1.16666 24.7438 3.25599 26.8332 5.83332 26.8332H22.1667C24.744 26.8332 26.8333 24.7438 26.8333 22.1665V8.1665H1.16666Z" fill="#18202A"/>
<path fill-rule="evenodd" clip-rule="evenodd" d="M12.25 15.7017V19.2864L15.2094 17.494L12.25 15.7017ZM10.5 14.5183C10.5 13.6723 11.4144 13.1497 12.1331 13.585L17.0465 16.5607C17.7445 16.9834 17.7445 18.0046 17.0465 18.4274L12.1331 21.4031C11.4144 21.8383 10.5 21.3158 10.5 20.4697V14.5183Z" fill="#18202A"/>
<path d="M8.16666 2.33317H11.0833L5.24999 9.33317H2.33332L8.16666 2.33317Z" fill="#18202A"/>
<path d="M15.1667 2.33317H18.0833L12.25 9.33317H9.33332L15.1667 2.33317Z" fill="#18202A"/>
<path d="M22.1667 2.33317H25.0833L19.25 9.33317H16.3333L22.1667 2.33317Z" fill="#18202A"/>
<path fill-rule="evenodd" clip-rule="evenodd" d="M22.1667 2.9165H5.83332C4.22249 2.9165 2.91666 4.22234 2.91666 5.83317V8.1665H25.0833V5.83317C25.0833 4.22234 23.7775 2.9165 22.1667 2.9165ZM5.83332 1.1665C3.25599 1.1665 1.16666 3.25584 1.16666 5.83317V9.9165H26.8333V5.83317C26.8333 3.25584 24.744 1.1665 22.1667 1.1665H5.83332Z" fill="#18202A"/>
</svg>
