<svg width="28" height="28" viewBox="0 0 28 28" fill="none" xmlns="http://www.w3.org/2000/svg">
<path fill-rule="evenodd" clip-rule="evenodd" d="M4.66666 5.83366C4.66666 3.25633 6.756 1.16699 9.33333 1.16699H21C23.5773 1.16699 25.6667 3.25633 25.6667 5.83366V22.167C25.6667 24.7443 23.5773 26.8337 21 26.8337H9.33333C6.756 26.8337 4.66666 24.7443 4.66666 22.167V5.83366ZM15.1667 13.47C16.5808 13.47 17.2879 12.1443 17.2879 10.4871C17.2879 9.16131 16.5808 8.16699 15.1667 8.16699C13.7525 8.16699 13.0455 9.16131 13.0455 10.4871C13.0455 12.1443 13.7525 13.47 15.1667 13.47ZM11.1891 16.2815C10.7211 17.4666 10.9338 17.7095 11.3592 18.1955C12.2304 19.1907 13.6116 19.8337 15.1667 19.8337C16.7217 19.8337 18.103 19.1907 18.9742 18.1955C19.3996 17.7096 19.6123 17.4666 19.1443 16.2815C18.6763 15.0965 18.2226 14.99 17.3152 14.7771C16.6305 14.6164 15.9102 14.5306 15.1667 14.5306C14.4232 14.5306 13.7028 14.6164 13.0181 14.7771C12.1108 14.99 11.6571 15.0965 11.1891 16.2815ZM1.16666 7.00033C1.16666 6.35599 1.689 5.83366 2.33333 5.83366H3.5V10.5003H2.33333C1.689 10.5003 1.16666 9.97799 1.16666 9.33366V7.00033ZM1.16666 12.8337C1.16666 12.1893 1.689 11.667 2.33333 11.667H3.5V16.3337H2.33333C1.689 16.3337 1.16666 15.8113 1.16666 15.167V12.8337ZM2.33333 17.5003C1.689 17.5003 1.16666 18.0227 1.16666 18.667V21.0003C1.16666 21.6447 1.689 22.167 2.33333 22.167H3.5V17.5003H2.33333Z" fill="#18202A"/>
</svg>
