<svg width="28" height="28" viewBox="0 0 28 28" fill="none" xmlns="http://www.w3.org/2000/svg">
<path d="M11.6667 3.5C8.01223 3.5 5.83337 6.4533 5.83337 9.33333C5.83337 9.72338 5.87334 10.1148 5.95152 10.5H8.35884C8.23247 10.1269 8.16671 9.73194 8.16671 9.33333C8.16671 7.5467 9.48785 5.83333 11.6667 5.83333H16.3334C17.327 5.83333 18.2539 6.08527 18.8946 6.51239C19.5007 6.91647 19.8334 7.45256 19.8334 8.16667C19.8334 8.811 20.3557 9.33333 21 9.33333C21.6444 9.33333 22.1667 8.811 22.1667 8.16667C22.1667 6.54744 21.3327 5.33353 20.1889 4.57094C19.0795 3.8314 17.6731 3.5 16.3334 3.5H11.6667Z" fill="#18202A"/>
<path d="M2.33337 14C2.33337 13.3557 2.85571 12.8333 3.50004 12.8333H24.5C25.1444 12.8333 25.6667 13.3557 25.6667 14C25.6667 14.6443 25.1444 15.1667 24.5 15.1667H22.1445C22.9141 16.1138 23.3334 17.3071 23.3334 18.6667C23.3334 20.4942 22.5381 21.9992 21.2177 23.0176C19.9258 24.014 18.197 24.5 16.3334 24.5H10.5C6.84556 24.5 4.66671 21.5467 4.66671 18.6667C4.66671 18.0223 5.18904 17.5 5.83337 17.5C6.47771 17.5 7.00004 18.0223 7.00004 18.6667C7.00004 20.4533 8.32119 22.1667 10.5 22.1667H16.3334C17.8168 22.1667 19.0047 21.7777 19.7927 21.1699C20.5522 20.5841 21 19.7558 21 18.6667C21 17.5524 20.5703 16.7294 19.8417 16.157C19.0823 15.5602 17.9031 15.1667 16.3334 15.1667H3.50004C2.85571 15.1667 2.33337 14.6443 2.33337 14Z" fill="#18202A"/>
</svg>
