<svg width="28" height="28" viewBox="0 0 28 28" fill="none" xmlns="http://www.w3.org/2000/svg">
<path d="M16.3333 14.0001C16.3333 15.2887 15.2887 16.3334 14 16.3334C12.7113 16.3334 11.6667 15.2887 11.6667 14.0001C11.6667 12.7114 12.7113 11.6667 14 11.6667C15.2887 11.6667 16.3333 12.7114 16.3333 14.0001Z" fill="#18202A"/>
<path fill-rule="evenodd" clip-rule="evenodd" d="M10.9283 2.12219C11.0302 1.56863 11.5128 1.16675 12.0757 1.16675H15.9077C16.4706 1.16675 16.9532 1.56863 17.0551 2.12219L17.4132 4.06728C18.7013 4.50984 19.8763 5.19593 20.8831 6.07058L22.7465 5.40816C23.2769 5.21963 23.8662 5.43664 24.1477 5.9241L26.0637 9.24271C26.3451 9.73017 26.2384 10.3491 25.8099 10.7141L24.3085 11.9933C24.4342 12.6429 24.5 13.3138 24.5 14.0001C24.5 14.6864 24.4342 15.3572 24.3085 16.0068L25.8099 17.286C26.2384 17.6511 26.3451 18.27 26.0637 18.7574L24.1477 22.076C23.8663 22.5635 23.2769 22.7805 22.7466 22.592L20.8831 21.9296C19.8763 22.8042 18.7013 23.4903 17.4132 23.9329L17.0551 25.878C16.9532 26.4315 16.4706 26.8334 15.9077 26.8334H12.0757C11.5128 26.8334 11.0302 26.4315 10.9283 25.878L10.5691 23.9268C9.28582 23.4833 8.11532 22.798 7.11211 21.9254L5.23681 22.592C4.70645 22.7805 4.11711 22.5635 3.83567 22.076L1.91967 18.7574C1.63824 18.27 1.74497 17.6511 2.17342 17.286L3.68921 15.9946C3.56503 15.3489 3.50001 14.6821 3.50001 14.0001C3.50001 13.3181 3.56503 12.6513 3.68921 12.0055L2.17345 10.7141C1.745 10.3491 1.63827 9.73017 1.91971 9.24271L3.83571 5.9241C4.11714 5.43664 4.70649 5.21963 5.23684 5.40816L7.11213 6.07478C8.11534 5.20215 9.28583 4.51686 10.5691 4.0734L10.9283 2.12219ZM18.6667 14.0001C18.6667 16.5774 16.5773 18.6667 14 18.6667C11.4227 18.6667 9.33333 16.5774 9.33333 14.0001C9.33333 11.4228 11.4227 9.33342 14 9.33342C16.5773 9.33342 18.6667 11.4228 18.6667 14.0001Z" fill="#18202A"/>
</svg>
