<svg width="28" height="28" viewBox="0 0 28 28" fill="none" xmlns="http://www.w3.org/2000/svg">
<g clip-path="url(#clip0_3352_8912)">
<path d="M14 15.1667L11.6666 11.6667H9.33331L12.8333 16.9167L9.33331 22.1667H11.6666L14 18.6667L16.3333 22.1667H18.6666L15.1666 16.9167L18.6666 11.6667H16.3333L14 15.1667Z" fill="#18202A"/>
<path fill-rule="evenodd" clip-rule="evenodd" d="M2.33331 2.33333C2.33331 1.04467 3.37798 0 4.66665 0H18.2835C18.9023 0 19.4958 0.245833 19.9334 0.683417L24.9832 5.73325C25.4208 6.17083 25.6666 6.76433 25.6666 7.38316V25.6667C25.6666 26.9553 24.622 28 23.3333 28H4.66665C3.37798 28 2.33331 26.9553 2.33331 25.6667V2.33333ZM4.66665 26.25C4.34448 26.25 4.08331 25.9888 4.08331 25.6667V2.33333C4.08331 2.01117 4.34448 1.75 4.66665 1.75H17.5056L17.5 6.3071C17.5 6.80029 17.6958 7.27328 18.0443 7.62201C18.3927 7.97075 18.8654 8.16667 19.3582 8.16667L23.9166 8.16088V25.6667C23.9166 25.9888 23.6555 26.25 23.3333 26.25H4.66665Z" fill="#18202A"/>
</g>
<defs>
<clipPath id="clip0_3352_8912">
<rect width="28" height="28" fill="white"/>
</clipPath>
</defs>
</svg>
