<svg width="28" height="28" viewBox="0 0 28 28" fill="none" xmlns="http://www.w3.org/2000/svg">
<path fill-rule="evenodd" clip-rule="evenodd" d="M1.16666 5.83366C1.16666 3.25633 3.256 1.16699 5.83333 1.16699H22.1667C24.744 1.16699 26.8333 3.25633 26.8333 5.83366V15.4641C25.5105 14.5414 23.9018 14.0003 22.1667 14.0003C21.6681 14.0003 21.18 14.045 20.706 14.1306C20.2404 14.0304 19.7561 13.9775 19.2589 13.9775C18.9096 13.9775 18.5667 14.0036 18.2322 14.0539C18.3348 14.1184 18.4359 14.1853 18.5354 14.2543C18.7041 14.3713 18.8578 14.5 18.9969 14.6383C18.607 14.8027 18.2324 14.9964 17.8761 15.2169L17.8703 15.2128C16.7676 14.4477 15.4352 14.0003 14.0001 14.0003C12.5651 14.0003 11.2327 14.4476 10.13 15.2128C9.24796 15.8249 8.95158 16.9693 9.28973 17.9883C9.43922 18.4388 9.61334 18.8777 9.81046 19.3035C10.1884 20.1198 10.9508 20.6907 11.8391 20.8334C12.5431 20.9464 13.2649 21.0051 14.0001 21.0051L14.0821 21.0049C14.028 21.3845 14 21.7725 14 22.167C14 23.9021 14.5411 25.5109 15.4638 26.8337H5.83333C3.256 26.8337 1.16666 24.7443 1.16666 22.167V5.83366ZM14 12.8337C15.5556 12.8337 16.3333 11.3753 16.3333 9.55241C16.3333 8.09408 15.5556 7.00033 14 7.00033C12.4444 7.00033 11.6667 8.09408 11.6667 9.55241C11.6667 11.3753 12.4444 12.8337 14 12.8337ZM7.58333 12.8337C8.75 12.8337 9.33333 11.667 9.33333 10.2087C9.33333 9.04199 8.75 8.16699 7.58333 8.16699C6.41666 8.16699 5.83333 9.04199 5.83333 10.2087C5.83333 11.667 6.41666 12.8337 7.58333 12.8337ZM22.1667 10.2087C22.1667 11.667 21.5833 12.8337 20.4167 12.8337C19.25 12.8337 18.6667 11.667 18.6667 10.2087C18.6667 9.04199 19.25 8.16699 20.4167 8.16699C21.5833 8.16699 22.1667 9.04199 22.1667 10.2087ZM9.46493 14.2543C9.55343 14.1929 9.64321 14.1332 9.73423 14.0753C9.35752 14.0111 8.96969 13.9775 8.57369 13.9775C7.47732 13.9775 6.44369 14.2345 5.535 14.689C4.76364 15.0748 4.43926 15.9789 4.69675 16.8021C4.74675 16.9619 4.79999 17.1204 4.85638 17.2775C5.10198 17.9616 5.71225 18.4443 6.43222 18.5443C7.04283 18.629 7.66552 18.6781 8.29792 18.6892C8.25806 18.5787 8.21957 18.4675 8.18246 18.3557C7.70623 16.9206 8.09616 15.2041 9.46493 14.2543ZM28 22.167C28 25.3887 25.3883 28.0003 22.1667 28.0003C18.945 28.0003 16.3333 25.3887 16.3333 22.167C16.3333 18.9453 18.945 16.3337 22.1667 16.3337C25.3883 16.3337 28 18.9453 28 22.167ZM22.1667 18.667C21.5223 18.667 21 19.1893 21 19.8337V21.0003H19.8333C19.189 21.0003 18.6667 21.5227 18.6667 22.167C18.6667 22.8113 19.189 23.3337 19.8333 23.3337H21V24.5003C21 25.1447 21.5223 25.667 22.1667 25.667C22.811 25.667 23.3333 25.1447 23.3333 24.5003V23.3337H24.5C25.1443 23.3337 25.6667 22.8113 25.6667 22.167C25.6667 21.5227 25.1443 21.0003 24.5 21.0003H23.3333V19.8337C23.3333 19.1893 22.811 18.667 22.1667 18.667Z" fill="#18202A"/>
</svg>
