<svg width="28" height="28" viewBox="0 0 28 28" fill="none" xmlns="http://www.w3.org/2000/svg">
<path fill-rule="evenodd" clip-rule="evenodd" d="M4.32421 5.56903L2.59117 3.83599C2.24738 3.4922 2.24738 2.9348 2.59117 2.59101C2.93496 2.24722 3.49235 2.24722 3.83614 2.59101L25.4088 24.1637C25.7526 24.5075 25.7526 25.0649 25.4088 25.4087C25.065 25.7525 24.5076 25.7525 24.1638 25.4087L22.4308 23.6756C20.1758 25.6421 17.227 26.8332 14 26.8332C6.91234 26.8332 1.16666 21.0875 1.16666 13.9998C1.16666 10.7728 2.35772 7.82403 4.32421 5.56903ZM21.19 22.4348C19.2545 24.0862 16.7437 25.0832 14 25.0832C7.87883 25.0832 2.91666 20.121 2.91666 13.9998C2.91666 11.2562 3.9136 8.74533 5.56501 6.80983L9.63491 10.8797L8.25675 11.0881C7.75427 11.164 7.44493 11.5378 7.33935 11.8979C7.23405 12.2569 7.2947 12.7085 7.62264 13.0431L9.99377 15.4624L9.42959 18.8977C9.35888 19.3282 9.53035 19.74 9.8429 19.9921C10.1623 20.2498 10.6445 20.3432 11.0819 20.1029L14 18.4997L16.9181 20.1029C17.3555 20.3432 17.8377 20.2498 18.1571 19.9921C18.2666 19.9037 18.3589 19.7957 18.4294 19.6742L21.19 22.4348ZM16.6288 17.8736L11.1724 12.4172L9.6806 12.6427L11.8644 14.8708L11.3579 17.9545L14 16.503L16.6421 17.9545L16.6288 17.8736ZM12.4087 8.69033L13.7234 10.005L14 9.41873L14.7709 11.0526L16.0126 12.2942L18.3194 12.6453L17.3507 13.6324L18.5882 14.8699L20.3768 13.0475C20.705 12.7131 20.7659 12.2616 20.6609 11.9025C20.5556 11.5425 20.2466 11.1685 19.7443 11.0921L16.4909 10.5969L15.0191 7.4776C14.6085 6.60725 13.3915 6.60725 12.9809 7.4776L12.4087 8.69033ZM25.0833 13.9998C25.0833 16.1075 24.495 18.0777 23.4737 19.7553L24.7422 21.0239C26.0644 19.0058 26.8333 16.5926 26.8333 13.9998C26.8333 6.91218 21.0876 1.1665 14 1.1665C11.4072 1.1665 8.994 1.93541 6.97596 3.25763L8.2445 4.52617C9.92209 3.50481 11.8923 2.9165 14 2.9165C20.1211 2.9165 25.0833 7.87868 25.0833 13.9998Z" fill="#18202A"/>
</svg>
