<svg width="28" height="28" viewBox="0 0 28 28" fill="none" xmlns="http://www.w3.org/2000/svg">
<path d="M7 2.33317C7 1.68884 7.52233 1.1665 8.16666 1.1665H19.8333C20.4777 1.1665 21 1.68884 21 2.33317C21 2.9775 20.4777 3.49984 19.8333 3.49984H8.16666C7.52233 3.49984 7 2.9775 7 2.33317Z" fill="#18202A"/>
<path d="M5.83333 4.6665C5.189 4.6665 4.66666 5.18884 4.66666 5.83317C4.66666 6.4775 5.189 6.99984 5.83333 6.99984H22.1667C22.811 6.99984 23.3333 6.4775 23.3333 5.83317C23.3333 5.18884 22.811 4.6665 22.1667 4.6665H5.83333Z" fill="#18202A"/>
<path fill-rule="evenodd" clip-rule="evenodd" d="M5.83333 8.1665C3.256 8.1665 1.16666 10.2558 1.16666 12.8332V20.9998C1.16666 24.2215 3.77834 26.8332 7 26.8332H21C24.2217 26.8332 26.8333 24.2215 26.8333 20.9998V12.8332C26.8333 10.2558 24.744 8.1665 22.1667 8.1665H5.83333ZM10.5 14.5183C10.5 13.6723 11.4144 13.1497 12.1331 13.585L17.0465 16.5607C17.7445 16.9834 17.7445 18.0046 17.0465 18.4274L12.1331 21.4031C11.4144 21.8383 10.5 21.3158 10.5 20.4697V14.5183Z" fill="#18202A"/>
</svg>
