<svg width="28" height="28" viewBox="0 0 28 28" fill="none" xmlns="http://www.w3.org/2000/svg">
<path d="M2.33334 13.9997C2.33334 12.711 3.378 11.6663 4.66667 11.6663H5.83334C7.122 11.6663 8.16667 12.711 8.16667 13.9997V23.333C8.16667 24.6217 7.122 25.6663 5.83334 25.6663H4.66667C3.378 25.6663 2.33334 24.6217 2.33334 23.333V13.9997Z" fill="#18202A"/>
<path d="M11.0833 4.66634C11.0833 3.37768 12.128 2.33301 13.4167 2.33301H14.5833C15.872 2.33301 16.9167 3.37768 16.9167 4.66634V23.333C16.9167 24.6217 15.872 25.6663 14.5833 25.6663H13.4167C12.128 25.6663 11.0833 24.6217 11.0833 23.333V4.66634Z" fill="#18202A"/>
<path d="M19.8333 9.33301C19.8333 8.04434 20.878 6.99967 22.1667 6.99967H23.3333C24.622 6.99967 25.6667 8.04434 25.6667 9.33301V23.333C25.6667 24.6217 24.622 25.6663 23.3333 25.6663H22.1667C20.878 25.6663 19.8333 24.6217 19.8333 23.333V9.33301Z" fill="#18202A"/>
</svg>
