<svg width="28" height="28" viewBox="0 0 28 28" fill="none" xmlns="http://www.w3.org/2000/svg">
<path fill-rule="evenodd" clip-rule="evenodd" d="M8.75022 23.0436C8.75022 22.5604 9.14197 22.1686 9.62522 22.1686H24.7919C25.2751 22.1686 25.6669 22.5604 25.6669 23.0436C25.6669 23.5269 25.2751 23.9186 24.7919 23.9186H9.62522C9.14197 23.9186 8.75022 23.5269 8.75022 23.0436Z" fill="#18202A"/>
<path fill-rule="evenodd" clip-rule="evenodd" d="M8.75022 4.37695C8.75022 3.8937 9.14197 3.50195 9.62522 3.50195H24.7919C25.2751 3.50195 25.6669 3.8937 25.6669 4.37695C25.6669 4.8602 25.2751 5.25195 24.7919 5.25195H9.62522C9.14197 5.25195 8.75022 4.8602 8.75022 4.37695Z" fill="#18202A"/>
<path d="M7.32728 10.8267C7.66898 10.485 7.66898 9.931 7.32728 9.58929C6.98557 9.24758 6.43155 9.24758 6.08984 9.58929L2.58984 13.0893C2.41408 13.265 2.32872 13.497 2.33377 13.7273C2.33716 14.0113 2.47449 14.2631 2.68552 14.4224L6.08984 17.8267C6.43155 18.1684 6.98557 18.1684 7.32728 17.8267C7.66898 17.485 7.66898 16.931 7.32728 16.5893L5.33755 14.5996L24.7835 14.5916C25.2717 14.5914 25.6672 14.1955 25.667 13.7074C25.6668 13.2192 25.2709 12.8236 24.7828 12.8238L5.32221 12.8318L7.32728 10.8267Z" fill="#18202A"/>
</svg>
