<svg width="28" height="28" viewBox="0 0 28 28" fill="none" xmlns="http://www.w3.org/2000/svg">
<path d="M1.16666 9.33274C1.16666 7.39975 2.73367 5.83274 4.66666 5.83274H23.3333C25.2663 5.83274 26.8333 7.39975 26.8333 9.33274V12.8327H1.16666V9.33274Z" fill="#18202A"/>
<path fill-rule="evenodd" clip-rule="evenodd" d="M13.5885 2.63818C14.4693 3.97352 14.9417 5.75876 15.144 6.77043L15.3188 7.64422L14.5218 8.04273C11.7315 9.43783 9.16634 8.66195 7.81999 6.98232C7.16704 6.16775 6.79892 5.12538 6.91146 4.06718C7.02759 2.97527 7.64522 1.98481 8.73314 1.33212C9.70755 0.747535 10.7105 0.606823 11.6473 0.957456C12.5192 1.28382 13.1467 1.96842 13.5885 2.63818ZM10.8293 3.14271C10.6783 3.08621 10.4175 3.04268 9.93354 3.333C9.43963 3.62931 9.26634 3.98835 9.23171 4.31395C9.19349 4.67328 9.31477 5.11645 9.64061 5.52295C10.1556 6.16538 11.1949 6.69844 12.6316 6.2894C12.4097 5.48948 12.0803 4.58945 11.6407 3.92291C11.329 3.45033 11.0451 3.22348 10.8293 3.14271Z" fill="#18202A"/>
<path fill-rule="evenodd" clip-rule="evenodd" d="M14.4115 2.63818C13.5307 3.97352 13.0583 5.75876 12.856 6.77043L12.6812 7.64422L13.4782 8.04273C16.2685 9.43783 18.8337 8.66195 20.18 6.98232C20.833 6.16775 21.2011 5.12538 21.0885 4.06718C20.9724 2.97527 20.3548 1.98481 19.2669 1.33212C18.2924 0.747535 17.2895 0.606823 16.3527 0.957456C15.4808 1.28382 14.8533 1.96842 14.4115 2.63818ZM17.1707 3.14271C17.3217 3.08621 17.5825 3.04268 18.0665 3.333C18.5604 3.62931 18.7337 3.98835 18.7683 4.31395C18.8065 4.67328 18.6852 5.11645 18.3594 5.52295C17.8444 6.16538 16.8051 6.69844 15.3684 6.2894C15.5903 5.48948 15.9197 4.58945 16.3593 3.92291C16.671 3.45033 16.9549 3.22348 17.1707 3.14271Z" fill="#18202A"/>
<path d="M2.33333 15.1661H12.8333V26.8327H5.83333C3.90033 26.8327 2.33333 25.2657 2.33333 23.3327V15.1661Z" fill="#18202A"/>
<path d="M15.1667 15.1661H25.6667V23.3327C25.6667 25.2657 24.0997 26.8327 22.1667 26.8327H15.1667V15.1661Z" fill="#18202A"/>
</svg>
