<svg width="28" height="28" viewBox="0 0 28 28" fill="none" xmlns="http://www.w3.org/2000/svg">
<path fill-rule="evenodd" clip-rule="evenodd" d="M14 25.0834C20.1211 25.0834 25.0833 20.1212 25.0833 14.0001C25.0833 7.87893 20.1211 2.91675 14 2.91675C7.87883 2.91675 2.91666 7.87893 2.91666 14.0001C2.91666 20.1212 7.87883 25.0834 14 25.0834ZM26.8333 14.0001C26.8333 21.0877 21.0876 26.8334 14 26.8334C6.91234 26.8334 1.16666 21.0877 1.16666 14.0001C1.16666 6.91243 6.91234 1.16675 14 1.16675C21.0876 1.16675 26.8333 6.91243 26.8333 14.0001Z" fill="#18202A"/>
<path d="M13.125 11.3751C13.125 10.8918 13.5167 10.5001 14 10.5001C14.4832 10.5001 14.875 10.8918 14.875 11.3751V18.9584C14.875 19.4417 14.4832 19.8334 14 19.8334C13.5167 19.8334 13.125 19.4417 13.125 18.9584V11.3751Z" fill="#18202A"/>
<path d="M11.375 11.3751C11.375 10.8918 11.7667 10.5001 12.25 10.5001H14C14.4832 10.5001 14.875 10.8918 14.875 11.3751C14.875 11.8583 14.4832 12.2501 14 12.2501H12.25C11.7667 12.2501 11.375 11.8583 11.375 11.3751Z" fill="#18202A"/>
<path d="M10.7917 18.9584C10.7917 18.4752 11.1834 18.0834 11.6667 18.0834H16.3333C16.8166 18.0834 17.2083 18.4752 17.2083 18.9584C17.2083 19.4417 16.8166 19.8334 16.3333 19.8334H11.6667C11.1834 19.8334 10.7917 19.4417 10.7917 18.9584Z" fill="#18202A"/>
<path d="M12.8333 8.16675C12.8333 7.52242 13.3557 7.00008 14 7.00008C14.6443 7.00008 15.1667 7.52242 15.1667 8.16675C15.1667 8.81108 14.6443 9.33342 14 9.33342C13.3557 9.33342 12.8333 8.81108 12.8333 8.16675Z" fill="#18202A"/>
</svg>
