<svg width="28" height="28" viewBox="0 0 28 28" fill="none" xmlns="http://www.w3.org/2000/svg">
<path d="M2.94052 13.6392V13.5793L2.93642 13.5196C2.56027 8.03 7.75355 2.9165 14.0119 2.9165C20.2374 2.9165 25.0833 7.14032 25.0833 13.6392C25.0833 13.9915 25.0654 14.3414 25.0299 14.6879L26.3487 17.019C26.6672 15.9371 26.8333 14.8008 26.8333 13.6392C26.8333 6.0665 21.093 1.1665 14.0119 1.1665C6.93085 1.1665 0.732668 6.95741 1.19052 13.6392C1.19052 17.6319 2.78625 20.7578 5.33288 22.8209L5.578 25.7624C5.64526 26.5695 6.49421 27.0642 7.22954 26.7248L10.4098 25.257C10.8264 25.3556 11.2518 25.4368 11.6847 25.5001C11.6305 24.9302 11.6968 24.3393 11.904 23.7635C11.5323 23.7082 11.1683 23.6382 10.8129 23.5541L10.225 23.4149L7.25276 24.7867L7.01481 21.9313L6.4345 21.4612C4.31528 19.7443 2.94052 17.1267 2.94052 13.6392Z" fill="#18202A"/>
<path fill-rule="evenodd" clip-rule="evenodd" d="M26.5969 26.8332H15.4031C14.3272 26.8332 13.6528 25.6481 14.1869 24.696L19.7838 14.719C20.3218 13.7601 21.6782 13.7601 22.2162 14.719L27.8131 24.696C28.3472 25.6481 27.6729 26.8332 26.5969 26.8332ZM21 17.4998C20.5168 17.4998 20.125 17.8916 20.125 18.3748V20.7082C20.125 21.1914 20.5168 21.5832 21 21.5832C21.4833 21.5832 21.875 21.1914 21.875 20.7082V18.3748C21.875 17.8916 21.4833 17.4998 21 17.4998ZM21 22.7498C20.5168 22.7498 20.125 23.1416 20.125 23.6248C20.125 24.1081 20.5168 24.4998 21 24.4998C21.4833 24.4998 21.875 24.1081 21.875 23.6248C21.875 23.1416 21.4833 22.7498 21 22.7498Z" fill="#18202A"/>
</svg>
