<svg width="28" height="28" viewBox="0 0 28 28" fill="none" xmlns="http://www.w3.org/2000/svg">
<path d="M11.6909 4.75758C9.01299 3.97086 6.18009 3.87102 3.45342 4.46726C2.98133 4.57049 2.51493 4.27147 2.4117 3.79938C2.30847 3.32728 2.60749 2.86089 3.07958 2.75766C6.09327 2.09866 9.22437 2.20901 12.1842 3.07854C15.144 3.94807 17.8373 5.54879 20.0156 7.73311C22.194 9.91744 23.7874 12.615 24.6489 15.5772C25.5103 18.5394 25.6122 21.6708 24.945 24.6827C24.8404 25.1545 24.3732 25.4522 23.9014 25.3477C23.4296 25.2432 23.1319 24.776 23.2364 24.3042C23.84 21.5791 23.7479 18.746 22.9685 16.0659C22.1891 13.3858 20.7474 10.9452 18.7765 8.96886C16.8056 6.99257 14.3688 5.5443 11.6909 4.75758Z" fill="#18202A"/>
<path d="M8.93802 11.2905C7.11178 10.9055 5.21302 11.0598 3.4729 11.7346C3.02234 11.9093 2.51545 11.6857 2.34074 11.2351C2.16602 10.7846 2.38963 10.2777 2.84019 10.103C4.89669 9.30551 7.14069 9.12314 9.29897 9.57809C11.4573 10.033 13.4367 11.1057 14.9963 12.6654C16.556 14.2251 17.6285 16.2046 18.0833 18.3629C18.5382 20.5212 18.3557 22.7652 17.5581 24.8217C17.3834 25.2722 16.8765 25.4958 16.4259 25.3211C15.9754 25.1463 15.7518 24.6394 15.9265 24.1889C16.6014 22.4488 16.7558 20.55 16.3709 18.7238C15.9861 16.8975 15.0786 15.2225 13.7589 13.9028C12.4392 12.583 10.7643 11.6754 8.93802 11.2905Z" fill="#18202A"/>
<path fill-rule="evenodd" clip-rule="evenodd" d="M11.6715 21.0002C11.6715 23.5775 9.58219 25.6668 7.00486 25.6668C4.42753 25.6668 2.3382 23.5775 2.3382 21.0002C2.3382 18.4228 4.42753 16.3335 7.00486 16.3335C9.58219 16.3335 11.6715 18.4228 11.6715 21.0002ZM9.92153 21.0002C9.92153 22.611 8.61569 23.9168 7.00486 23.9168C5.39403 23.9168 4.0882 22.611 4.0882 21.0002C4.0882 19.3893 5.39403 18.0835 7.00486 18.0835C8.61569 18.0835 9.92153 19.3893 9.92153 21.0002Z" fill="#18202A"/>
</svg>
