<svg width="28" height="28" viewBox="0 0 28 28" fill="none" xmlns="http://www.w3.org/2000/svg">
<g clip-path="url(#clip0_3361_8815)">
<path fill-rule="evenodd" clip-rule="evenodd" d="M24.4683 11.0832C24.389 10.6064 24.1628 10.1626 23.8166 9.81642L15.8501 1.84992C15.5039 1.50371 15.0601 1.27753 14.5833 1.19817V1.1665H8.16667C5.58934 1.1665 3.5 3.25584 3.5 5.83317V22.1665C3.5 24.7438 5.58934 26.8332 8.16667 26.8332H16.1889C15.7736 26.3021 15.4277 25.7142 15.1645 25.0832H8.16667C6.55584 25.0832 5.25 23.7773 5.25 22.1665V5.83317C5.25 4.22234 6.55584 2.9165 8.16667 2.9165H12.8333V12.8332H22.75V14.6053C23.356 14.6514 23.9421 14.7687 24.5 14.9489V11.0832H24.4683ZM22.5791 11.0539C22.5886 11.0633 22.5978 11.0731 22.6065 11.0832H14.5833V3.05999C14.5934 3.06875 14.6032 3.07787 14.6126 3.08736L22.5791 11.0539Z" fill="#18202A"/>
<path fill-rule="evenodd" clip-rule="evenodd" d="M28 22.1665C28 25.3882 25.3883 27.9998 22.1667 27.9998C18.945 27.9998 16.3333 25.3882 16.3333 22.1665C16.3333 18.9448 18.945 16.3332 22.1667 16.3332C25.3883 16.3332 28 18.9448 28 22.1665ZM21.875 19.2498C22.3582 19.2498 22.75 19.6416 22.75 20.1248V22.6791L24.2437 24.1728C24.5854 24.5145 24.5854 25.0685 24.2437 25.4102C23.902 25.7519 23.348 25.7519 23.0063 25.4102L21.2563 23.6602C21.0922 23.4961 21 23.2736 21 23.0415V20.1248C21 19.6416 21.3918 19.2498 21.875 19.2498Z" fill="#18202A"/>
</g>
<defs>
<clipPath id="clip0_3361_8815">
<rect width="28" height="28" fill="white"/>
</clipPath>
</defs>
</svg>
