<svg width="28" height="28" viewBox="0 0 28 28" fill="none" xmlns="http://www.w3.org/2000/svg">
<path fill-rule="evenodd" clip-rule="evenodd" d="M14 26.8334C21.0877 26.8334 26.8333 21.0877 26.8333 14.0001C26.8333 6.91243 21.0877 1.16675 14 1.16675C6.91234 1.16675 1.16666 6.91243 1.16666 14.0001C1.16666 21.0877 6.91234 26.8334 14 26.8334ZM15.1667 8.16675C15.1667 7.52242 14.6443 7.00008 14 7.00008C13.3557 7.00008 12.8333 7.52242 12.8333 8.16675V12.8334H8.16666C7.52233 12.8334 7 13.3557 7 14.0001C7 14.6444 7.52233 15.1667 8.16666 15.1667H12.8333V19.8334C12.8333 20.4777 13.3557 21.0001 14 21.0001C14.6443 21.0001 15.1667 20.4777 15.1667 19.8334V15.1667H19.8333C20.4777 15.1667 21 14.6444 21 14.0001C21 13.3557 20.4777 12.8334 19.8333 12.8334H15.1667V8.16675Z" fill="#18202A"/>
</svg>
