<svg width="28" height="28" viewBox="0 0 28 28" fill="none" xmlns="http://www.w3.org/2000/svg">
<path fill-rule="evenodd" clip-rule="evenodd" d="M14 25.0833C20.1211 25.0833 25.0833 20.1211 25.0833 14C25.0833 7.8788 20.1211 2.91663 14 2.91663C7.87883 2.91663 2.91666 7.8788 2.91666 14C2.91666 20.1211 7.87883 25.0833 14 25.0833ZM14 26.8333C21.0876 26.8333 26.8333 21.0876 26.8333 14C26.8333 6.91231 21.0876 1.16663 14 1.16663C6.91234 1.16663 1.16666 6.91231 1.16666 14C1.16666 21.0876 6.91234 26.8333 14 26.8333Z" fill="#18202A"/>
<path fill-rule="evenodd" clip-rule="evenodd" d="M12.2146 8.71457C12.5563 8.37287 13.1103 8.37287 13.452 8.71457L18.1187 13.3812C18.4604 13.7229 18.4604 14.277 18.1187 14.6187L13.452 19.2853C13.1103 19.6271 12.5563 19.6271 12.2146 19.2853C11.8729 18.9436 11.8729 18.3896 12.2146 18.0479L16.2626 14L12.2146 9.95201C11.8729 9.6103 11.8729 9.05628 12.2146 8.71457Z" fill="#18202A"/>
</svg>
