<svg width="28" height="28" viewBox="0 0 28 28" fill="none" xmlns="http://www.w3.org/2000/svg">
<path d="M16.4394 3.49984C16.9098 3.49984 17.4708 3.92077 17.4989 4.6665H19.8329C19.8029 2.72815 18.2951 1.1665 16.4394 1.1665H3.39394C1.51952 1.1665 0 2.75986 0 4.72536V12.7328C0 14.1013 0.736638 15.2894 1.81681 15.8849C2.28802 16.1447 2.82461 16.2917 3.39394 16.2917H3.85675L3.36478 18.7589C3.21363 19.5169 3.99416 20.1015 4.62895 19.7057L7 18.2274V15.4777L6.3129 15.9061L6.70129 13.9583H3.39394C2.91128 13.9583 2.33333 13.5152 2.33333 12.7328V4.72536C2.33333 3.94295 2.91128 3.49984 3.39394 3.49984H16.4394Z" fill="#18202A"/>
<path d="M28 10.7811C28 8.69278 26.4805 6.99984 24.6061 6.99984H12.7273C10.8529 6.99984 9.33333 8.69278 9.33333 10.7811V19.289C9.33333 21.3774 10.8529 23.0703 12.7273 23.0703H17.8953L23.3711 26.6977C24.0058 27.1183 24.7864 26.4971 24.6352 25.6917L24.1433 23.0703H24.6061C26.4805 23.0703 28 21.3774 28 19.289V10.7811Z" fill="#18202A"/>
</svg>
