<svg width="28" height="28" viewBox="0 0 28 28" fill="none" xmlns="http://www.w3.org/2000/svg">
<path fill-rule="evenodd" clip-rule="evenodd" d="M14 25.0834C20.1211 25.0834 25.0833 20.1212 25.0833 14.0001C25.0833 7.87893 20.1211 2.91675 14 2.91675C7.87883 2.91675 2.91666 7.87893 2.91666 14.0001C2.91666 20.1212 7.87883 25.0834 14 25.0834ZM26.8333 14.0001C26.8333 21.0877 21.0876 26.8334 14 26.8334C6.91234 26.8334 1.16666 21.0877 1.16666 14.0001C1.16666 6.91243 6.91234 1.16675 14 1.16675C21.0876 1.16675 26.8333 6.91243 26.8333 14.0001Z" fill="#18202A"/>
<path fill-rule="evenodd" clip-rule="evenodd" d="M22.7854 5.2147C22.4437 4.87299 21.8896 4.87299 21.5479 5.2147L5.2146 21.548C4.8729 21.8897 4.8729 22.4438 5.2146 22.7855C5.55631 23.1272 6.11033 23.1272 6.45204 22.7855L22.7854 6.45213C23.1271 6.11042 23.1271 5.55641 22.7854 5.2147Z" fill="#18202A"/>
</svg>
