<svg width="28" height="28" viewBox="0 0 28 28" fill="none" xmlns="http://www.w3.org/2000/svg">
<path fill-rule="evenodd" clip-rule="evenodd" d="M23.4362 19.817C22.3059 20.2054 21.0934 20.4163 19.8333 20.4163C13.7122 20.4163 8.74999 15.4541 8.74999 9.33293C8.74999 7.19929 9.35401 5.20513 10.399 3.514C6.04597 5.00856 2.91666 9.13939 2.91666 13.9996C2.91666 20.1208 7.87883 25.0829 14 25.0829C17.9859 25.0829 21.4831 22.978 23.4362 19.817ZM24.5576 17.3841C23.1718 18.1989 21.5571 18.6663 19.8333 18.6663C14.6787 18.6663 10.5 14.4876 10.5 9.33293C10.5 6.74761 11.5511 4.4078 13.2494 2.71757C13.7696 2.19986 13.4715 1.19183 12.7385 1.22748C6.24292 1.86124 1.16666 7.33761 1.16666 13.9996C1.16666 21.0873 6.91234 26.8329 14 26.8329C19.4897 26.8329 24.1743 23.386 26.0076 18.5384C26.0078 18.5378 26.0081 18.5372 26.0083 18.5366C26.0154 18.5178 26.0224 18.4991 26.0294 18.4803C26.1157 18.2486 26.1956 18.0138 26.2687 17.776C26.4695 17.1229 25.6324 16.6783 25.067 17.0619C24.9484 17.1424 24.8278 17.2202 24.7053 17.2953C24.6596 17.3233 24.6137 17.351 24.5675 17.3782C24.5642 17.3802 24.5609 17.3821 24.5576 17.3841Z" fill="#18202A"/>
</svg>
