<svg width="28" height="28" viewBox="0 0 28 28" fill="none" xmlns="http://www.w3.org/2000/svg">
<path fill-rule="evenodd" clip-rule="evenodd" d="M7 1.16699C5.71133 1.16699 4.66666 2.21166 4.66666 3.50033H23.3333C23.3333 2.21166 22.2887 1.16699 21 1.16699H7ZM7 7.00033H3.5V10.5003C3.5 11.1447 4.02233 11.667 4.66666 11.667H5.83333C6.47766 11.667 7 11.1447 7 10.5003V7.00033ZM5.83333 14.0003C6.72975 14.0003 7.54745 13.6633 8.16667 13.1091C8.78588 13.6633 9.60358 14.0003 10.5 14.0003H11.6667C12.5631 14.0003 13.3808 13.6633 14 13.1091C14.6192 13.6633 15.4369 14.0003 16.3333 14.0003H17.5C18.3964 14.0003 19.2141 13.6633 19.8333 13.1091C20.4526 13.6633 21.2702 14.0003 22.1667 14.0003H23.3333C25.2663 14.0003 26.8333 12.4333 26.8333 10.5003V7.00033C26.8333 5.71166 25.7887 4.66699 24.5 4.66699H21H18.6667H15.1667H12.8333H9.33333H7H3.5C2.21133 4.66699 1.16666 5.71166 1.16666 7.00033V10.5003C1.16666 12.4333 2.73367 14.0003 4.66666 14.0003H5.83333ZM18.6667 7.00033V10.5003C18.6667 11.1447 18.1443 11.667 17.5 11.667H16.3333C15.689 11.667 15.1667 11.1447 15.1667 10.5003V7.00033H18.6667ZM21 10.5003V7.00033H24.5V10.5003C24.5 11.1447 23.9777 11.667 23.3333 11.667H22.1667C21.5223 11.667 21 11.1447 21 10.5003ZM12.8333 7.00033H9.33333L9.33333 10.5003V10.5016C9.33403 11.1454 9.8561 11.667 10.5 11.667H11.6667C12.311 11.667 12.8333 11.1447 12.8333 10.5003V7.00033ZM2.33333 14.5426V22.167C2.33333 24.7443 4.42267 26.8336 7 26.8336H21C23.5773 26.8336 25.6667 24.7443 25.6667 22.167V14.5426C24.9803 14.9397 24.1833 15.167 23.3333 15.167H22.1667C21.3167 15.167 20.5197 14.9397 19.8333 14.5426C19.1469 14.9397 18.35 15.167 17.5 15.167H16.3333C15.4833 15.167 14.6864 14.9397 14 14.5426C13.3136 14.9397 12.5167 15.167 11.6667 15.167H10.5C9.64999 15.167 8.85307 14.9397 8.16667 14.5426C7.48026 14.9397 6.68333 15.167 5.83333 15.167H4.66666C3.81666 15.167 3.01974 14.9397 2.33333 14.5426ZM10.5 19.5003C10.5 18.3958 11.3954 17.5003 12.5 17.5003H15.5C16.6046 17.5003 17.5 18.3958 17.5 19.5003V24.5003H10.5V19.5003Z" fill="#18202A"/>
</svg>
