<svg width="28" height="28" viewBox="0 0 28 28" fill="none" xmlns="http://www.w3.org/2000/svg">
<path fill-rule="evenodd" clip-rule="evenodd" d="M5.35004 1.84992C5.78763 1.41234 6.38112 1.1665 6.99996 1.1665H21C21.6188 1.1665 22.2123 1.41234 22.6499 1.84992C23.0875 2.28751 23.3333 2.881 23.3333 3.49984V25.6665C23.3333 26.1035 23.0891 26.5039 22.7005 26.7039C22.3119 26.9038 21.8441 26.8699 21.4885 26.6159L18.0833 24.1836L14.6781 26.6159C14.2724 26.9056 13.7275 26.9056 13.3218 26.6159L9.91663 24.1836L6.5114 26.6159C6.15579 26.8699 5.68803 26.9038 5.29945 26.7039C4.91086 26.5039 4.66663 26.1035 4.66663 25.6665V3.49984C4.66663 2.881 4.91246 2.28751 5.35004 1.84992ZM9.33329 8.1665C9.33329 7.52217 9.85563 6.99984 10.5 6.99984H17.5C18.1443 6.99984 18.6666 7.52217 18.6666 8.1665C18.6666 8.81084 18.1443 9.33317 17.5 9.33317H10.5C9.85563 9.33317 9.33329 8.81084 9.33329 8.1665ZM10.5 11.6665C9.85563 11.6665 9.33329 12.1888 9.33329 12.8332C9.33329 13.4775 9.85563 13.9998 10.5 13.9998H17.5C18.1443 13.9998 18.6666 13.4775 18.6666 12.8332C18.6666 12.1888 18.1443 11.6665 17.5 11.6665H10.5ZM9.33329 17.4998C9.33329 16.8555 9.85563 16.3332 10.5 16.3332H17.5C18.1443 16.3332 18.6666 16.8555 18.6666 17.4998C18.6666 18.1442 18.1443 18.6665 17.5 18.6665H10.5C9.85563 18.6665 9.33329 18.1442 9.33329 17.4998Z" fill="#18202A"/>
</svg>
