<svg width="28" height="28" viewBox="0 0 28 28" fill="none" xmlns="http://www.w3.org/2000/svg">
<path fill-rule="evenodd" clip-rule="evenodd" d="M14 7.29175C14.4832 7.29175 14.875 7.6835 14.875 8.16675V19.8334C14.875 20.3167 14.4832 20.7084 14 20.7084C13.5167 20.7084 13.125 20.3167 13.125 19.8334V8.16675C13.125 7.6835 13.5167 7.29175 14 7.29175Z" fill="#18202A"/>
<path fill-rule="evenodd" clip-rule="evenodd" d="M7.29166 14.0001C7.29166 13.5168 7.68341 13.1251 8.16666 13.1251H19.8333C20.3166 13.1251 20.7083 13.5168 20.7083 14.0001C20.7083 14.4833 20.3166 14.8751 19.8333 14.8751H8.16666C7.68341 14.8751 7.29166 14.4833 7.29166 14.0001Z" fill="#18202A"/>
<path fill-rule="evenodd" clip-rule="evenodd" d="M14 25.0834C20.1211 25.0834 25.0833 20.1212 25.0833 14.0001C25.0833 7.87893 20.1211 2.91675 14 2.91675C7.87883 2.91675 2.91666 7.87893 2.91666 14.0001C2.91666 20.1212 7.87883 25.0834 14 25.0834ZM14 26.8334C21.0876 26.8334 26.8333 21.0877 26.8333 14.0001C26.8333 6.91243 21.0876 1.16675 14 1.16675C6.91234 1.16675 1.16666 6.91243 1.16666 14.0001C1.16666 21.0877 6.91234 26.8334 14 26.8334Z" fill="#18202A"/>
</svg>
