<svg width="28" height="28" viewBox="0 0 28 28" fill="none" xmlns="http://www.w3.org/2000/svg">
<path fill-rule="evenodd" clip-rule="evenodd" d="M0 2.91699H3.08476C3.46465 2.91699 3.82741 3.07508 4.08603 3.35333C4.10578 3.37457 4.12161 3.39914 4.1328 3.4259L4.66103 4.68906L7.95494 14.0899L6.37049 15.8372C5.18064 17.1493 6.11165 19.2503 7.8829 19.2503H23.9167L23.4427 18.5394C23.0099 17.8902 22.2814 17.5003 21.5012 17.5003H7.8829C7.62987 17.5003 7.49687 17.2002 7.66685 17.0127L9.34062 15.167H20.8027C21.6294 15.167 22.3746 14.6684 22.69 13.9043L25.8199 6.32092C26.3746 4.97694 25.3866 3.50033 23.9326 3.50033H6.06078L5.74731 2.75073C5.65652 2.53363 5.52806 2.3343 5.36785 2.16193C4.77813 1.52745 3.95098 1.16699 3.08476 1.16699H0V2.91699ZM9.57347 13.417L6.712 5.25033H23.9326C24.1404 5.25033 24.2815 5.46127 24.2023 5.65327L21.0723 13.2366C21.0273 13.3458 20.9208 13.417 20.8027 13.417H9.57347ZM9.91667 25.0837C10.6029 25.0837 11.0833 24.6033 11.0833 23.917C11.0833 23.2307 10.6029 22.7503 9.91667 22.7503C9.23039 22.7503 8.75 23.2307 8.75 23.917C8.75 24.6033 9.23039 25.0837 9.91667 25.0837ZM9.91667 26.8337C11.5694 26.8337 12.8333 25.5698 12.8333 23.917C12.8333 22.2642 11.5694 21.0003 9.91667 21.0003C8.26389 21.0003 7 22.2642 7 23.917C7 25.5698 8.26389 26.8337 9.91667 26.8337ZM20.4167 25.0837C21.1029 25.0837 21.5833 24.6033 21.5833 23.917C21.5833 23.2307 21.1029 22.7503 20.4167 22.7503C19.7304 22.7503 19.25 23.2307 19.25 23.917C19.25 24.6033 19.7304 25.0837 20.4167 25.0837ZM20.4167 26.8337C22.0694 26.8337 23.3333 25.5698 23.3333 23.917C23.3333 22.2642 22.0694 21.0003 20.4167 21.0003C18.7639 21.0003 17.5 22.2642 17.5 23.917C17.5 25.5698 18.7639 26.8337 20.4167 26.8337Z" fill="#18202A"/>
</svg>
