<svg width="28" height="28" viewBox="0 0 28 28" fill="none" xmlns="http://www.w3.org/2000/svg">
<path fill-rule="evenodd" clip-rule="evenodd" d="M14 26.8333C21.0877 26.8333 26.8333 21.0876 26.8333 14C26.8333 6.91234 21.0877 1.16666 14 1.16666C6.91234 1.16666 1.16666 6.91234 1.16666 14C1.16666 21.0876 6.91234 26.8333 14 26.8333ZM15.9916 8.50837C15.536 8.05275 14.7973 8.05275 14.3417 8.50837C13.8861 8.96398 13.8861 9.70267 14.3417 10.1583L17.0167 12.8333H8.16666C7.52233 12.8333 7 13.3557 7 14C7 14.6443 7.52233 15.1667 8.16666 15.1667H17.0167L14.3417 17.8417C13.8861 18.2973 13.8861 19.036 14.3417 19.4916C14.7973 19.9472 15.536 19.9472 15.9916 19.4916L20.6583 14.8249C21.1139 14.3693 21.1139 13.6306 20.6583 13.175L15.9916 8.50837Z" fill="#18202A"/>
</svg>
