<svg width="28" height="28" viewBox="0 0 28 28" fill="none" xmlns="http://www.w3.org/2000/svg">
<path fill-rule="evenodd" clip-rule="evenodd" d="M26.8333 13.9998C26.8333 21.0875 21.0877 26.8332 14 26.8332C6.91234 26.8332 1.16666 21.0875 1.16666 13.9998C1.16666 6.91218 6.91234 1.1665 14 1.1665C21.0877 1.1665 26.8333 6.91218 26.8333 13.9998ZM14 5.83317C13.3557 5.83317 12.8333 6.35551 12.8333 6.99984V13.9998C12.8333 14.6442 13.3557 15.1665 14 15.1665H19.8333C20.4777 15.1665 21 14.6442 21 13.9998C21 13.3555 20.4777 12.8332 19.8333 12.8332L15.1667 12.8332V6.99984C15.1667 6.35551 14.6443 5.83317 14 5.83317Z" fill="#18202A"/>
</svg>
