<svg width="28" height="28" viewBox="0 0 28 28" fill="none" xmlns="http://www.w3.org/2000/svg">
<path fill-rule="evenodd" clip-rule="evenodd" d="M19.3071 23.0436C19.3071 22.5604 18.9154 22.1686 18.4321 22.1686H3.26546C2.78221 22.1686 2.39046 22.5604 2.39046 23.0436C2.39046 23.5269 2.78221 23.9186 3.26546 23.9186H18.4321C18.9154 23.9186 19.3071 23.5269 19.3071 23.0436Z" fill="#18202A"/>
<path fill-rule="evenodd" clip-rule="evenodd" d="M19.3071 4.37695C19.3071 3.8937 18.9154 3.50195 18.4321 3.50195H3.26546C2.78221 3.50195 2.39046 3.8937 2.39046 4.37695C2.39046 4.8602 2.78221 5.25195 3.26546 5.25195H18.4321C18.9154 5.25195 19.3071 4.8602 19.3071 4.37695Z" fill="#18202A"/>
<path d="M20.673 10.8267C20.3313 10.485 20.3313 9.931 20.673 9.58929C21.0147 9.24758 21.5687 9.24758 21.9104 9.58929L25.4104 13.0893C25.5915 13.2704 25.6766 13.511 25.6658 13.7482C25.6561 14.0232 25.5207 14.2663 25.3154 14.4217L21.9104 17.8267C21.5687 18.1684 21.0147 18.1684 20.673 17.8267C20.3313 17.485 20.3313 16.931 20.673 16.5893L22.6627 14.5996L3.21652 14.5916C2.72836 14.5914 2.33279 14.1955 2.33299 13.7074C2.33319 13.2192 2.72909 12.8236 3.21725 12.8238L22.678 12.8318L20.673 10.8267Z" fill="#18202A"/>
</svg>
