<svg width="28" height="28" viewBox="0 0 28 28" fill="none" xmlns="http://www.w3.org/2000/svg">
<path d="M2.94052 13.6392V13.5793L2.93642 13.5196C2.56027 8.03 7.75355 2.9165 14.0119 2.9165C20.2374 2.9165 25.0833 7.14032 25.0833 13.6392C25.0833 14.1388 25.0472 14.6338 24.9763 15.1207C25.5554 15.3518 26.0993 15.6523 26.5978 16.0118C26.7533 15.2396 26.8333 14.4455 26.8333 13.6392C26.8333 6.0665 21.093 1.1665 14.0119 1.1665C6.93085 1.1665 0.732668 6.95741 1.19052 13.6392C1.19052 17.6319 2.78625 20.7578 5.33288 22.8209L5.578 25.7624C5.64526 26.5695 6.49421 27.0642 7.22954 26.7248L10.4098 25.257C11.5525 25.5276 12.7613 25.6665 14.0119 25.6665C14.4869 25.6665 14.9517 25.6455 15.4057 25.6047C15.1326 25.0687 14.9213 24.4958 14.7813 23.8956C14.5287 23.9095 14.2722 23.9165 14.0119 23.9165C12.8906 23.9165 11.8174 23.7919 10.8129 23.5541L10.225 23.4149L7.25276 24.7867L7.01481 21.9313L6.4345 21.4612C4.31528 19.7443 2.94052 17.1267 2.94052 13.6392Z" fill="#18202A"/>
<path d="M20.304 14.8136C19.9398 14.9056 19.586 15.0239 19.2449 15.1665C18.2807 15.1637 17.5 14.3813 17.5 13.4165C17.5 12.45 18.2835 11.6665 19.25 11.6665C20.2165 11.6665 21 12.45 21 13.4165C21 13.9872 20.7268 14.4942 20.304 14.8136Z" fill="#18202A"/>
<path d="M14 15.1665C14.9665 15.1665 15.75 14.383 15.75 13.4165C15.75 12.45 14.9665 11.6665 14 11.6665C13.0335 11.6665 12.25 12.45 12.25 13.4165C12.25 14.383 13.0335 15.1665 14 15.1665Z" fill="#18202A"/>
<path d="M10.5 13.4165C10.5 14.383 9.71651 15.1665 8.75001 15.1665C7.78351 15.1665 7.00001 14.383 7.00001 13.4165C7.00001 12.45 7.78351 11.6665 8.75001 11.6665C9.71651 11.6665 10.5 12.45 10.5 13.4165Z" fill="#18202A"/>
<path fill-rule="evenodd" clip-rule="evenodd" d="M22.1667 27.9998C25.3883 27.9998 28 25.3882 28 22.1665C28 18.9448 25.3883 16.3332 22.1667 16.3332C18.945 16.3332 16.3333 18.9448 16.3333 22.1665C16.3333 25.3882 18.945 27.9998 22.1667 27.9998ZM25.7477 20.9859C26.0621 20.619 26.0197 20.0666 25.6527 19.7522C25.2858 19.4377 24.7334 19.4802 24.419 19.8471L21.4525 23.308L19.775 22.0498C19.3884 21.7599 18.8399 21.8382 18.55 22.2248C18.26 22.6114 18.3384 23.1599 18.725 23.4498L21.0583 25.1998C21.4272 25.4765 21.9475 25.4194 22.2477 25.0693L25.7477 20.9859Z" fill="#18202A"/>
</svg>
