<svg width="28" height="28" viewBox="0 0 28 28" fill="none" xmlns="http://www.w3.org/2000/svg">
<g clip-path="url(#clip0_3860_8800)">
<path d="M20.4154 3.50112C20.7375 3.50115 20.9986 3.76227 20.9987 4.08439L21 16.0913C21.0001 16.611 20.3717 16.8713 20.0042 16.5038L16.746 13.2456C16.5182 13.0178 16.1458 13.0202 15.9207 13.2507C10.8756 18.4161 10.3562 21.327 11.3301 25.9132C11.4536 26.4948 10.7616 26.8737 10.3809 26.417C4.38416 19.2241 7.15969 12.8961 11.2596 8.584C11.4816 8.35052 11.4821 7.98178 11.2543 7.75398L7.99609 4.49582C7.62858 4.12832 7.88889 3.49995 8.40862 3.5L20.4154 3.50112Z" fill="#18202A"/>
</g>
<defs>
<clipPath id="clip0_3860_8800">
<rect width="28" height="28" fill="white"/>
</clipPath>
</defs>
</svg>
