<svg width="28" height="28" viewBox="0 0 28 28" fill="none" xmlns="http://www.w3.org/2000/svg">
<path d="M27.3922 8.70408C27.7486 9.03048 27.7473 9.58606 27.4056 9.92777C27.0639 10.2695 26.5112 10.2678 26.1535 9.94287C22.9427 7.02697 18.6789 5.25 14 5.25C9.32112 5.25 5.05728 7.02698 1.84652 9.94287C1.48878 10.2678 0.936142 10.2695 0.594433 9.92777C0.252724 9.58606 0.251449 9.03049 0.607807 8.70408C4.13636 5.47214 8.83787 3.5 14 3.5C19.1621 3.5 23.8636 5.47214 27.3922 8.70408Z" fill="#18202A"/>
<path d="M23.262 12.8347C23.6242 13.1546 23.6225 13.7108 23.2808 14.0526C22.9391 14.3943 22.387 14.3916 22.0219 14.075C19.8727 12.2112 17.0681 11.0833 14 11.0833C10.9319 11.0833 8.12729 12.2112 5.97811 14.075C5.61302 14.3916 5.06093 14.3943 4.71922 14.0526C4.37751 13.7109 4.37578 13.1546 4.73804 12.8347C7.2062 10.6556 10.4487 9.33333 14 9.33333C17.5513 9.33333 20.7938 10.6556 23.262 12.8347Z" fill="#18202A"/>
<path d="M19.1242 16.974C19.5003 17.2774 19.4977 17.8356 19.156 18.1773C18.8143 18.5191 18.2633 18.5135 17.8786 18.2211C16.8013 17.4025 15.4574 16.9167 14 16.9167C12.5426 16.9167 11.1987 17.4025 10.1214 18.2211C9.73667 18.5135 9.18572 18.5191 8.84401 18.1773C8.50231 17.8356 8.49966 17.2774 8.87577 16.974C10.277 15.8435 12.0594 15.1667 14 15.1667C15.9406 15.1667 17.723 15.8435 19.1242 16.974Z" fill="#18202A"/>
<path d="M14 25.6667C15.2887 25.6667 16.3333 24.622 16.3333 23.3333C16.3333 22.0447 15.2887 21 14 21C12.7113 21 11.6667 22.0447 11.6667 23.3333C11.6667 24.622 12.7113 25.6667 14 25.6667Z" fill="#18202A"/>
</svg>
