<svg width="28" height="28" viewBox="0 0 28 28" fill="none" xmlns="http://www.w3.org/2000/svg">
<path fill-rule="evenodd" clip-rule="evenodd" d="M23.4484 6.41699C22.8433 7.46315 21.7122 8.16699 20.4167 8.16699C19.1212 8.16699 17.9901 7.46314 17.3849 6.41699H3.5C2.5335 6.41699 1.75 7.20049 1.75 8.16699V19.8337C1.75 20.8002 2.5335 21.5837 3.5 21.5837H17.3849C17.9901 20.5375 19.1212 19.8337 20.4167 19.8337C21.7122 19.8337 22.8433 20.5375 23.4484 21.5837H24.5C25.4665 21.5837 26.25 20.8002 26.25 19.8337V8.16699C26.25 7.20049 25.4665 6.41699 24.5 6.41699H23.4484ZM22.1667 23.3337C22.1667 22.3672 21.3832 21.5837 20.4167 21.5837C19.4502 21.5837 18.6667 22.3672 18.6667 23.3337H3.5C1.567 23.3337 0 21.7667 0 19.8337V8.16699C0 6.234 1.567 4.66699 3.5 4.66699H18.6667C18.6667 5.63349 19.4502 6.41699 20.4167 6.41699C21.3832 6.41699 22.1667 5.63349 22.1667 4.66699H24.5C26.433 4.66699 28 6.234 28 8.16699V19.8337C28 21.7667 26.433 23.3337 24.5 23.3337H22.1667ZM3.5 10.2087C3.5 9.72541 3.89175 9.33366 4.375 9.33366H14.875C15.3582 9.33366 15.75 9.72541 15.75 10.2087C15.75 10.6919 15.3582 11.0837 14.875 11.0837H4.375C3.89175 11.0837 3.5 10.6919 3.5 10.2087ZM4.375 12.8337C3.89175 12.8337 3.5 13.2254 3.5 13.7087C3.5 14.1919 3.89175 14.5837 4.375 14.5837H14.875C15.3582 14.5837 15.75 14.1919 15.75 13.7087C15.75 13.2254 15.3582 12.8337 14.875 12.8337H4.375ZM3.5 17.2087C3.5 16.7254 3.89175 16.3337 4.375 16.3337H7.29167C7.77492 16.3337 8.16667 16.7254 8.16667 17.2087C8.16667 17.6919 7.77492 18.0837 7.29167 18.0837H4.375C3.89175 18.0837 3.5 17.6919 3.5 17.2087ZM21 10.5003H19.8333V17.5003H21V10.5003Z" fill="#18202A"/>
</svg>
