<svg width="28" height="28" viewBox="0 0 28 28" fill="none" xmlns="http://www.w3.org/2000/svg">
<path fill-rule="evenodd" clip-rule="evenodd" d="M3.5 1.16667C3.5 0.522335 4.02234 0 4.66667 0H23.3333C23.9777 0 24.5 0.522334 24.5 1.16667V4.19498C24.5 4.55703 24.3319 4.89856 24.045 5.11942L21.3004 7.23248C23.9626 9.37074 25.6667 12.653 25.6667 16.3333C25.6667 22.7767 20.4433 28 14 28C7.55668 28 2.33334 22.7767 2.33334 16.3333C2.33334 12.653 4.03744 9.37074 6.69963 7.23248L3.95496 5.11942C3.66809 4.89856 3.5 4.55703 3.5 4.19498V1.16667ZM19.8333 2.33333V6.22746C18.7626 5.60808 17.5843 5.15398 16.3333 4.90004V2.33333H19.8333ZM11.6667 2.33333V4.90004C10.4157 5.15398 9.23739 5.60808 8.16667 6.22746V2.33333H11.6667ZM14 23.3333C17.866 23.3333 21 20.1993 21 16.3333C21 12.4673 17.866 9.33333 14 9.33333C10.134 9.33333 7 12.4673 7 16.3333C7 20.1993 10.134 23.3333 14 23.3333ZM15.3131 14.5294L14.3367 12.4721C14.1961 12.176 13.8039 12.176 13.6633 12.4721L12.687 14.5294C12.6308 14.6476 12.5249 14.7289 12.4031 14.7475L10.2426 15.0759C9.92812 15.1237 9.80493 15.5431 10.0364 15.7776L11.5811 17.3423C11.6743 17.4368 11.717 17.5756 11.6946 17.7114L11.3277 19.9362C11.2731 20.2676 11.5929 20.5239 11.8712 20.3717L13.829 19.3009C13.9365 19.2421 14.0635 19.2421 14.171 19.3009L16.1288 20.3717C16.4071 20.5239 16.7269 20.2676 16.6723 19.9362L16.3054 17.7114C16.283 17.5756 16.3257 17.4368 16.4189 17.3423L17.9636 15.7776C18.1951 15.5431 18.0719 15.1237 17.7574 15.0759L15.597 14.7475C15.4751 14.7289 15.3692 14.6476 15.3131 14.5294Z" fill="#18202A"/>
</svg>
