<svg width="28" height="28" viewBox="0 0 28 28" fill="none" xmlns="http://www.w3.org/2000/svg">
<path fill-rule="evenodd" clip-rule="evenodd" d="M1.16669 6.99998C1.16669 4.42265 3.25603 2.33331 5.83335 2.33331H22.1667C24.744 2.33331 26.8334 4.42265 26.8334 6.99998V21C26.8334 23.5773 24.744 25.6666 22.1667 25.6666H5.83335C3.25603 25.6666 1.16669 23.5773 1.16669 21V6.99998ZM14.875 4.08331H19.25V23.9166H14.875V4.08331ZM13.125 4.08331H8.75002V23.9166H13.125V4.08331ZM21 23.9166V4.08331H22.1667C23.7775 4.08331 25.0834 5.38915 25.0834 6.99998V21C25.0834 22.6108 23.7775 23.9166 22.1667 23.9166H21ZM7.00002 4.08331H5.83335C4.22252 4.08331 2.91669 5.38915 2.91669 6.99998V21C2.91669 22.6108 4.22252 23.9166 5.83335 23.9166H7.00002V4.08331Z" fill="#18202A"/>
</svg>
