<svg width="28" height="28" viewBox="0 0 28 28" fill="none" xmlns="http://www.w3.org/2000/svg">
<path fill-rule="evenodd" clip-rule="evenodd" d="M7.00001 2.91699H21C21.3222 2.91699 21.5833 3.17816 21.5833 3.50033V4.66699H20.7083H18.9583H14.875H13.125H9.04168H7.29168H6.41668V3.50033C6.41668 3.17816 6.67784 2.91699 7.00001 2.91699ZM4.66668 4.66699V3.50033C4.66668 2.21166 5.71135 1.16699 7.00001 1.16699H21C22.2887 1.16699 23.3333 2.21166 23.3333 3.50033V4.66699H24.2083C25.497 4.66699 26.5417 5.71166 26.5417 7.00033V10.5003C26.5417 11.3967 26.2047 12.2144 25.6505 12.8337H25.6667V22.167C25.6667 24.7443 23.5773 26.8337 21 26.8337L18.6667 26.8337H9.33334L7.00001 26.8337C4.42268 26.8337 2.33334 24.7443 2.33334 22.167V12.8337H2.34955C1.79534 12.2144 1.45834 11.3967 1.45834 10.5003V7.00033C1.45834 5.71166 2.50301 4.66699 3.79168 4.66699H4.66668ZM4.08334 13.8901V22.167C4.08334 23.7778 5.38918 25.0837 7.00001 25.0837H9.33334V19.8337C9.33334 17.9007 10.9003 16.3337 12.8333 16.3337H15.1667C17.0997 16.3337 18.6667 17.9007 18.6667 19.8337V25.0837H21C22.6108 25.0837 23.9167 23.7778 23.9167 22.167V13.8901C23.637 13.962 23.3438 14.0003 23.0417 14.0003H22.4583C21.413 14.0003 20.4747 13.542 19.8333 12.8154C19.192 13.542 18.2537 14.0003 17.2083 14.0003H16.625C15.5797 14.0003 14.6413 13.542 14 12.8154C13.3587 13.542 12.4204 14.0003 11.375 14.0003H10.7917C9.74632 14.0003 8.808 13.542 8.16668 12.8154C7.52535 13.542 6.58703 14.0003 5.54168 14.0003H4.95834C4.65621 14.0003 4.36301 13.962 4.08334 13.8901ZM16.9167 25.0837V19.8337C16.9167 18.8672 16.1332 18.0837 15.1667 18.0837H12.8333C11.8668 18.0837 11.0833 18.8672 11.0833 19.8337V25.0837H16.9167ZM23.3333 6.41699H20.7083V10.5003C20.7083 11.4668 21.4918 12.2503 22.4583 12.2503H23.0417C24.0082 12.2503 24.7917 11.4668 24.7917 10.5003V7.00033C24.7917 6.67816 24.5305 6.41699 24.2083 6.41699H23.3333ZM18.9583 6.41699H14.875V10.5003C14.875 11.4668 15.6585 12.2503 16.625 12.2503H17.2083C18.1748 12.2503 18.9583 11.4668 18.9583 10.5003V6.41699ZM13.125 6.41699H9.04168V10.5003C9.04168 11.4668 9.82518 12.2503 10.7917 12.2503H11.375C12.3415 12.2503 13.125 11.4668 13.125 10.5003V6.41699ZM7.29168 6.41699H4.66668H3.79168C3.46951 6.41699 3.20834 6.67816 3.20834 7.00033V10.5003C3.20834 11.4668 3.99185 12.2503 4.95834 12.2503H5.54168C6.50817 12.2503 7.29168 11.4668 7.29168 10.5003V6.41699Z" fill="#18202A"/>
</svg>
