<svg width="28" height="28" viewBox="0 0 28 28" fill="none" xmlns="http://www.w3.org/2000/svg">
<path d="M18.702 15.2024C19.0438 14.8607 19.0438 14.3067 18.702 13.9649C18.3603 13.6232 17.8063 13.6232 17.4646 13.9649L12.25 19.1796L10.5354 17.4649C10.1937 17.1232 9.63965 17.1232 9.29794 17.4649C8.95623 17.8067 8.95623 18.3607 9.29794 18.7024L11.6313 21.0357C11.973 21.3774 12.527 21.3774 12.8687 21.0357L18.702 15.2024Z" fill="#18202A"/>
<path fill-rule="evenodd" clip-rule="evenodd" d="M19.8392 7.00032C19.4186 7.00032 19.0618 6.70557 18.9132 6.31212C18.1637 4.328 16.2467 2.91699 14.0002 2.91699C11.1007 2.91699 8.75022 5.2675 8.75022 8.16699V9.33366H21.0002C23.5776 9.33366 25.6669 11.423 25.6669 14.0003V22.167C25.6669 24.7443 23.5776 26.8337 21.0002 26.8337H7.00022C4.42289 26.8337 2.33356 24.7443 2.33356 22.167V14.0003C2.33356 11.423 4.42289 9.33366 7.00022 9.33366V8.16699C7.00022 4.301 10.1342 1.16699 14.0002 1.16699C17.0981 1.16699 19.7259 3.1793 20.6479 5.96805C20.8227 6.49678 20.3961 7.00032 19.8392 7.00032ZM7.00022 11.0837C5.38939 11.0837 4.08356 12.3895 4.08356 14.0003V22.167C4.08356 23.7778 5.38939 25.0837 7.00022 25.0837H21.0002C22.6111 25.0837 23.9169 23.7778 23.9169 22.167V14.0003C23.9169 12.3895 22.6111 11.0837 21.0002 11.0837H7.00022Z" fill="#18202A"/>
</svg>
