<svg width="28" height="28" viewBox="0 0 28 28" fill="none" xmlns="http://www.w3.org/2000/svg">
<path fill-rule="evenodd" clip-rule="evenodd" d="M15.1358 16.0152C14.4295 16.409 13.5697 16.409 12.8633 16.0152L3.5 10.7948L3.5 23.1125C4.03182 23.481 4.38012 24.0957 4.38012 24.7917C4.38012 25.9193 3.46604 26.8334 2.33846 26.8334C1.21088 26.8334 0.296791 25.9193 0.296791 24.7917C0.296791 24.1002 0.640623 23.4889 1.16666 23.1196L1.16666 9.49384L0.614204 9.18582C-0.183859 8.74087 -0.183849 7.59276 0.614223 7.14782L12.8634 0.318766C13.5697 -0.0749975 14.4295 -0.0750057 15.1358 0.318744L27.3855 7.14781C28.1836 7.59274 28.1836 8.74088 27.3855 9.18583L15.1358 16.0152ZM16.625 8.16675C16.625 9.13325 15.4497 9.91675 14 9.91675C12.5503 9.91675 11.375 9.13325 11.375 8.16675C11.375 7.20025 12.5503 6.41675 14 6.41675C15.4497 6.41675 16.625 7.20025 16.625 8.16675ZM12.2952 17.0339L4.66666 12.7807V16.7328C4.66666 20.3784 8.84533 23.3331 14 23.3331C19.1547 23.3331 23.3333 20.3784 23.3333 16.7328V12.7804L15.7039 17.0339C14.6445 17.6246 13.3547 17.6246 12.2952 17.0339Z" fill="#18202A"/>
</svg>
