<svg width="28" height="28" viewBox="0 0 28 28" fill="none" xmlns="http://www.w3.org/2000/svg">
<path fill-rule="evenodd" clip-rule="evenodd" d="M8.16666 9.91654H3.49999C3.17782 9.91654 2.91666 10.1777 2.91666 10.4999V24.4999C2.91666 24.822 3.17782 25.0832 3.49999 25.0832H8.16666C8.48882 25.0832 8.74999 24.822 8.74999 24.4999V10.4999C8.74999 10.1777 8.48882 9.91654 8.16666 9.91654ZM3.49999 8.16654C2.21133 8.16654 1.16666 9.21121 1.16666 10.4999V24.4999C1.16666 25.7885 2.21133 26.8332 3.49999 26.8332H8.16666C9.45532 26.8332 10.5 25.7885 10.5 24.4999V10.4999C10.5 9.21121 9.45532 8.16654 8.16666 8.16654H3.49999Z" fill="#18202A"/>
<path fill-rule="evenodd" clip-rule="evenodd" d="M14.9641 0.682484C15.3765 0.383143 15.881 0.304682 16.3434 0.368116C17.7109 0.555719 18.8257 1.09242 19.595 1.97744C20.3635 2.86143 20.7083 4.00218 20.7083 5.24981C20.7083 6.14305 20.5987 6.7932 20.4585 7.29148H24.5C26.2719 7.29148 27.7083 8.7279 27.7083 10.4998V10.8249C27.7083 14.5831 26.8333 18.2897 25.1526 21.6512L25.0833 21.7897C24.3422 23.2719 22.8273 24.2081 21.1702 24.2081H8.75L8.74997 9.62481H10.5833C11.1775 9.62481 11.9241 9.19391 12.685 8.33732C14.0285 6.82468 14.2917 4.4419 14.2917 2.04515C14.2917 1.49193 14.5298 0.997685 14.9641 0.682484ZM16.0416 2.09752C16.0383 4.46689 15.8069 7.45761 13.9934 9.49945C13.1341 10.4669 11.9455 11.3748 10.5833 11.3748H10.5L10.5 22.4581H21.1702C22.1645 22.4581 23.0734 21.8964 23.5181 21.0071L23.5873 20.8686C25.1466 17.7501 25.9583 14.3114 25.9583 10.8249V10.4998C25.9583 9.6944 25.3054 9.04148 24.5 9.04148H20.4167C19.8694 9.04148 19.3334 8.82717 18.9963 8.35624C18.6653 7.89385 18.6292 7.32813 18.7721 6.82396C18.8668 6.48938 18.9583 5.99787 18.9583 5.24981C18.9583 4.32366 18.7064 3.62268 18.2743 3.12555C17.843 2.62945 17.1534 2.24563 16.1055 2.10188C16.0805 2.09844 16.0592 2.09734 16.0416 2.09752Z" fill="#18202A"/>
</svg>
