<svg width="28" height="28" viewBox="0 0 28 28" fill="none" xmlns="http://www.w3.org/2000/svg">
<g clip-path="url(#clip0_3517_8837)">
<g clip-path="url(#clip1_3517_8837)">
<path d="M4.66665 5.83366C4.66665 6.47799 4.14431 7.00033 3.49998 7.00033C2.85565 7.00033 2.33331 6.47799 2.33331 5.83366C2.33331 5.18933 2.85565 4.66699 3.49998 4.66699C4.14431 4.66699 4.66665 5.18933 4.66665 5.83366Z" fill="#18202A"/>
<path d="M8.16665 5.83366C8.16665 5.35041 8.5584 4.95866 9.04165 4.95866H24.7916C25.2749 4.95866 25.6666 5.35041 25.6666 5.83366C25.6666 6.31691 25.2749 6.70866 24.7916 6.70866H9.04165C8.5584 6.70866 8.16665 6.31691 8.16665 5.83366Z" fill="#18202A"/>
<path d="M9.04165 13.1253C8.5584 13.1253 8.16665 13.5171 8.16665 14.0003C8.16665 14.4836 8.5584 14.8753 9.04165 14.8753H20.0766C20.7405 14.6854 21.4417 14.5837 22.1666 14.5837C22.8916 14.5837 23.5927 14.6854 24.2567 14.8753H24.7916C25.2749 14.8753 25.6666 14.4836 25.6666 14.0003C25.6666 13.5171 25.2749 13.1253 24.7916 13.1253H9.04165Z" fill="#18202A"/>
<path d="M14.5833 22.167C14.5833 21.8711 14.6003 21.5791 14.6332 21.292H9.04165C8.5584 21.292 8.16665 21.6837 8.16665 22.167C8.16665 22.6502 8.5584 23.042 9.04165 23.042H14.6332C14.6003 22.7549 14.5833 22.4629 14.5833 22.167Z" fill="#18202A"/>
<path d="M4.66665 14.0003C4.66665 14.6447 4.14431 15.167 3.49998 15.167C2.85565 15.167 2.33331 14.6447 2.33331 14.0003C2.33331 13.356 2.85565 12.8337 3.49998 12.8337C4.14431 12.8337 4.66665 13.356 4.66665 14.0003Z" fill="#18202A"/>
<path d="M4.66665 22.167C4.66665 22.8113 4.14431 23.3337 3.49998 23.3337C2.85565 23.3337 2.33331 22.8113 2.33331 22.167C2.33331 21.5227 2.85565 21.0003 3.49998 21.0003C4.14431 21.0003 4.66665 21.5227 4.66665 22.167Z" fill="#18202A"/>
<path fill-rule="evenodd" clip-rule="evenodd" d="M22.1666 28.0003C25.3883 28.0003 28 25.3887 28 22.167C28 18.9453 25.3883 16.3337 22.1666 16.3337C18.945 16.3337 16.3333 18.9453 16.3333 22.167C16.3333 25.3887 18.945 28.0003 22.1666 28.0003ZM23.0416 19.542C23.0416 19.0587 22.6499 18.667 22.1666 18.667C21.6834 18.667 21.2916 19.0587 21.2916 19.542V21.292H19.5416C19.0584 21.292 18.6666 21.6837 18.6666 22.167C18.6666 22.6502 19.0584 23.042 19.5416 23.042H21.2916V24.792C21.2916 25.2752 21.6834 25.667 22.1666 25.667C22.6499 25.667 23.0416 25.2752 23.0416 24.792V23.042H24.7916C25.2749 23.042 25.6666 22.6502 25.6666 22.167C25.6666 21.6837 25.2749 21.292 24.7916 21.292H23.0416V19.542Z" fill="#18202A"/>
</g>
</g>
<defs>
<clipPath id="clip0_3517_8837">
<rect width="28" height="28" fill="white"/>
</clipPath>
<clipPath id="clip1_3517_8837">
<rect width="28" height="28" fill="white"/>
</clipPath>
</defs>
</svg>
