<svg width="28" height="28" viewBox="0 0 28 28" fill="none" xmlns="http://www.w3.org/2000/svg">
<path d="M9.33333 6.99984H25.7329C26.6819 6.99984 27.2339 8.07244 26.6823 8.84462L22.651 14.4884C22.3613 14.894 22.3613 15.439 22.651 15.8446L26.6823 21.4884C27.2339 22.2606 26.6819 23.3332 25.7329 23.3332H11.6667C10.378 23.3332 9.33333 22.2885 9.33333 20.9998V6.99984Z" fill="#18202A"/>
<path d="M1.16666 3.49984H14C15.933 3.49984 17.5 5.06684 17.5 6.99984V16.3332C17.5 17.6218 16.4553 18.6665 15.1667 18.6665H1.16666V3.49984Z" fill="#18202A"/>
<path d="M1.16666 2.33317C1.16666 1.68884 1.689 1.1665 2.33333 1.1665C2.97766 1.1665 3.5 1.68884 3.5 2.33317V25.6665C3.5 26.3108 2.97766 26.8332 2.33333 26.8332C1.689 26.8332 1.16666 26.3108 1.16666 25.6665V2.33317Z" fill="#18202A"/>
</svg>
