<svg width="28" height="28" viewBox="0 0 28 28" fill="none" xmlns="http://www.w3.org/2000/svg">
<g clip-path="url(#clip0_2294_10303)">
<path d="M0 11.6667C0 9.73373 1.567 8.16673 3.5 8.16673H4.66667V19.8334H3.5C1.567 19.8334 0 18.2664 0 16.3334V11.6667Z" fill="#18202A"/>
<path d="M7 20.8997V7.10044L12.6156 1.96797C14.4874 0.257243 17.5 1.58514 17.5 4.12091V23.8795C17.5 26.4153 14.4873 27.7432 12.6156 26.0324L7 20.8997Z" fill="#18202A"/>
<path d="M27.7297 11.3937C28.1439 10.9001 28.0795 10.1642 27.5859 9.75007C27.0924 9.3359 26.3565 9.40028 25.9423 9.89387L23.8364 12.4036L21.7304 9.89387C21.3162 9.40028 20.5804 9.3359 20.0868 9.75007C19.5932 10.1642 19.5288 10.9001 19.943 11.3937L22.3134 14.2187L19.943 17.0436C19.5288 17.5372 19.5932 18.2731 20.0868 18.6873C20.5803 19.1014 21.3162 19.037 21.7304 18.5435L23.8364 16.0337L25.9423 18.5435C26.3565 19.037 27.0924 19.1014 27.586 18.6873C28.0795 18.2731 28.1439 17.5372 27.7298 17.0436L25.3593 14.2187L27.7297 11.3937Z" fill="#18202A"/>
</g>
<defs>
<clipPath id="clip0_2294_10303">
<rect width="28" height="28" fill="white"/>
</clipPath>
</defs>
</svg>
