<svg width="28" height="28" viewBox="0 0 28 28" fill="none" xmlns="http://www.w3.org/2000/svg">
<path d="M25.0833 7.53059C24.1369 5.90921 22.839 4.50291 21.2689 3.42382C18.7506 1.69308 15.6975 0.917672 12.6586 1.23707C9.61964 1.55648 6.79441 2.94973 4.69103 5.16622C2.58766 7.38271 1.34418 10.277 1.18425 13.3285C1.02433 16.3799 1.95847 19.3883 3.81863 21.8125C5.6788 24.2368 8.34291 25.9177 11.3318 26.553C14.3207 27.1883 17.4382 26.7363 20.1235 25.2783C22.5522 23.9596 24.4833 21.8963 25.6404 19.4035C25.8435 18.9659 25.6158 18.459 25.1654 18.2861C24.715 18.1132 24.2129 18.34 24.0048 18.7753C22.2208 22.5062 18.4114 25.0834 14 25.0834C7.87884 25.0834 2.91667 20.1213 2.91667 14.0001C2.91667 7.87895 7.87884 2.91677 14 2.91677C18.6791 2.91677 22.6811 5.81637 24.3069 9.91675H17.2083C16.7251 9.91675 16.3333 10.3085 16.3333 10.7917C16.3333 11.275 16.7251 11.6667 17.2083 11.6667H25.6667C26.311 11.6667 26.8333 11.1444 26.8333 10.5001V2.04175C26.8333 1.5585 26.4416 1.16675 25.9583 1.16675C25.4751 1.16675 25.0833 1.5585 25.0833 2.04175V7.53059Z" fill="#18202A"/>
</svg>
