<svg width="28" height="28" viewBox="0 0 28 28" fill="none" xmlns="http://www.w3.org/2000/svg">
<path d="M11.6667 5.83341C11.6667 5.18908 12.189 4.66675 12.8333 4.66675H22.1667C22.811 4.66675 23.3333 5.18908 23.3333 5.83341C23.3333 6.47775 22.811 7.00008 22.1667 7.00008H18.445L12.3984 21.0001H16.3333C16.9777 21.0001 17.5 21.5224 17.5 22.1667C17.5 22.8111 16.9777 23.3334 16.3333 23.3334H4.66667C4.02233 23.3334 3.5 22.8111 3.5 22.1667C3.5 21.5224 4.02233 21.0001 4.66667 21.0001H9.85679L15.9033 7.00008H12.8333C12.189 7.00008 11.6667 6.47775 11.6667 5.83341Z" fill="#18202A"/>
</svg>
