<svg width="28" height="28" viewBox="0 0 28 28" fill="none" xmlns="http://www.w3.org/2000/svg">
<g clip-path="url(#clip0_2294_9462)">
<path fill-rule="evenodd" clip-rule="evenodd" d="M12.8333 1.16699H8.16667C5.58934 1.16699 3.5 3.25633 3.5 5.83366V22.167C3.5 24.7443 5.58934 26.8337 8.16667 26.8337H13.1391C12.1871 25.4702 11.6667 23.8382 11.6667 22.1526C11.6667 20.1323 12.4145 18.1849 13.8055 16.6394L14.0614 16.3708L17.5985 12.8337H15.1667H12.8333V10.5003V1.16699ZM24.2904 10.5003H22.6759L22.6723 10.5003L22.6688 10.5003H15.1667V1.37657C15.4186 1.49124 15.6506 1.65089 15.8501 1.85041L23.8166 9.81691C24.0161 10.0164 24.1758 10.2484 24.2904 10.5003ZM24.3821 13.16C23.8623 12.9446 23.3051 12.8337 22.7423 12.8337C22.1796 12.8337 21.6223 12.9446 21.1025 13.16C20.5826 13.3755 20.1103 13.6913 19.7126 14.0894L15.7813 18.0207L15.5686 18.245C14.6062 19.3151 14.07 20.7062 14.07 22.1526C14.07 23.7022 14.6855 25.1884 15.7812 26.2843C16.8772 27.3802 18.3635 27.9958 19.9132 27.9958C21.4628 27.9958 22.9491 27.3802 24.045 26.2845L27.6617 22.6678L27.7587 22.5579C28.1146 22.1002 28.0822 21.4384 27.6617 21.0179C27.2061 20.5623 26.4674 20.5623 26.0118 21.0179L22.3951 24.6345L22.2258 24.793C21.5878 25.3517 20.7665 25.6624 19.9132 25.6624C18.9823 25.6624 18.0895 25.2927 17.4311 24.6344C16.7731 23.9762 16.4033 23.0835 16.4033 22.1526C16.4033 21.2217 16.7731 20.3289 17.4313 19.6705L21.3629 15.7389L21.505 15.61C21.6531 15.4884 21.8184 15.3891 21.9959 15.3156C22.2325 15.2175 22.4862 15.167 22.7423 15.167C22.9985 15.167 23.2521 15.2175 23.4887 15.3155C23.7254 15.4136 23.9404 15.5574 24.1214 15.7386C24.4873 16.1047 24.6927 16.6009 24.6927 17.1184C24.6927 17.6359 24.4873 18.1321 24.1215 18.4981L20.5051 22.1145L20.4455 22.1636L20.3778 22.1998C20.3304 22.2195 20.2795 22.2296 20.2282 22.2296C20.1768 22.2296 20.1259 22.2195 20.0785 22.1998C20.031 22.1801 19.9879 22.1513 19.9517 22.115C19.9144 22.0778 19.8856 22.0347 19.8659 21.9872C19.8462 21.9398 19.8361 21.8889 19.8361 21.8376C19.8361 21.7862 19.8462 21.7354 19.8659 21.6879C19.8856 21.6405 19.9144 21.5974 19.9507 21.5611L22.6277 18.8829L22.7247 18.773C23.0805 18.3153 23.048 17.6535 22.6273 17.233C22.1716 16.7775 21.4329 16.7777 20.9774 17.2334L18.3011 19.9109L18.1558 20.0679C17.9706 20.2846 17.8201 20.5298 17.7104 20.7944C17.5733 21.1251 17.5028 21.4796 17.5028 21.8376C17.5028 22.1956 17.5733 22.55 17.7104 22.8807C17.8475 23.2114 18.0484 23.5119 18.3017 23.7649C18.5538 24.0173 18.8543 24.2182 19.185 24.3553C19.5157 24.4924 19.8702 24.5629 20.2282 24.5629C20.5861 24.5629 20.9406 24.4924 21.2713 24.3553C21.602 24.2182 21.9025 24.0173 22.1555 23.764L25.7717 20.1478L25.9508 19.9573C26.6417 19.1761 27.0261 18.1671 27.0261 17.1184C27.0261 15.9824 26.575 14.8928 25.7719 14.0893C25.3743 13.6913 24.902 13.3755 24.3821 13.16Z" fill="#18202A"/>
</g>
<defs>
<clipPath id="clip0_2294_9462">
<rect width="28" height="28" fill="white"/>
</clipPath>
</defs>
</svg>
