<svg width="28" height="28" viewBox="0 0 28 28" fill="none" xmlns="http://www.w3.org/2000/svg">
<path fill-rule="evenodd" clip-rule="evenodd" d="M23.3333 7.58374H4.66666C3.70016 7.58374 2.91666 8.36724 2.91666 9.33374V13.4171H25.0833V9.33374C25.0833 8.36724 24.2998 7.58374 23.3333 7.58374ZM4.66666 5.83374C2.73366 5.83374 1.16666 7.40074 1.16666 9.33374V15.1671H26.8333V9.33374C26.8333 7.40074 25.2663 5.83374 23.3333 5.83374H4.66666Z" fill="#18202A"/>
<path d="M14 4.02929C13.8132 3.60046 13.5959 3.18043 13.345 2.79998C12.9195 2.15487 12.3349 1.52749 11.545 1.23182C10.7065 0.917956 9.79629 1.03564 8.88319 1.58344C7.86952 2.19158 7.30743 3.10311 7.20149 4.09924C7.13823 4.69404 7.24033 5.28758 7.46967 5.83374H9.52225C9.48395 5.79206 9.44753 5.74962 9.41303 5.70658C9.0463 5.24907 8.89417 4.731 8.94168 4.28432C8.9865 3.86292 9.21533 3.42496 9.78348 3.0841C10.3287 2.75699 10.6824 2.7775 10.9315 2.87077C11.2293 2.98223 11.5562 3.2663 11.8842 3.76353C12.2756 4.35695 12.5797 5.11693 12.8016 5.83374H15.1984C15.4203 5.11693 15.7244 4.35695 16.1158 3.76353C16.4438 3.2663 16.7707 2.98223 17.0685 2.87077C17.3176 2.7775 17.6713 2.75699 18.2165 3.0841C18.7847 3.42496 19.0135 3.86292 19.0583 4.28432C19.1058 4.731 18.9537 5.24907 18.587 5.70658C18.5525 5.74962 18.516 5.79206 18.4777 5.83374H20.5303C20.7597 5.28758 20.8618 4.69404 20.7985 4.09924C20.6926 3.10311 20.1305 2.19158 19.1168 1.58344C18.2037 1.03564 17.2935 0.917956 16.455 1.23182C15.6651 1.52749 15.0805 2.15487 14.655 2.79998C14.404 3.18043 14.1868 3.60046 14 4.02929Z" fill="#18202A"/>
<path fill-rule="evenodd" clip-rule="evenodd" d="M23.9167 15.1671H4.08332V23.3337C4.08332 24.3002 4.86682 25.0837 5.83332 25.0837H22.1667C23.1332 25.0837 23.9167 24.3002 23.9167 23.3337V15.1671ZM2.33332 13.4171V23.3337C2.33332 25.2667 3.90033 26.8337 5.83332 26.8337H22.1667C24.0997 26.8337 25.6667 25.2667 25.6667 23.3337V13.4171H2.33332Z" fill="#18202A"/>
<path d="M13.125 14.0004H14.875V25.6671H13.125V14.0004Z" fill="#18202A"/>
</svg>
