<svg width="28" height="28" viewBox="0 0 28 28" fill="none" xmlns="http://www.w3.org/2000/svg">
<path fill-rule="evenodd" clip-rule="evenodd" d="M7 1.1665C3.77834 1.1665 1.16666 3.77818 1.16666 6.99984V20.9998C1.16666 24.2215 3.77834 26.8332 7 26.8332H21C24.2217 26.8332 26.8333 24.2215 26.8333 20.9998V6.99984C26.8333 3.77818 24.2217 1.1665 21 1.1665H7ZM8.16666 5.83317V3.49984H5.83333V5.83317H8.16666ZM10.5 11.0183C10.5 10.1723 11.4144 9.64968 12.1331 10.085L17.0465 13.0607C17.7445 13.4834 17.7445 14.5046 17.0465 14.9274L12.1331 17.9031C11.4144 18.3383 10.5 17.8158 10.5 16.9697V11.0183ZM5.83333 24.4998V22.1665H8.16666V24.4998H5.83333ZM12.8333 3.49984H10.5V5.83317H12.8333V3.49984ZM10.5 22.1665H12.8333V24.4998H10.5V22.1665ZM17.5 3.49984H15.1667V5.83317H17.5V3.49984ZM15.1667 22.1665H17.5V24.4998H15.1667V22.1665ZM22.1667 5.83317V3.49984H19.8333V5.83317H22.1667ZM19.8333 24.4998V22.1665H22.1667V24.4998H19.8333Z" fill="#18202A"/>
</svg>
