<svg width="28" height="28" viewBox="0 0 28 28" fill="none" xmlns="http://www.w3.org/2000/svg">
<path fill-rule="evenodd" clip-rule="evenodd" d="M19.8333 2.91675H8.16666C5.26716 2.91675 2.91666 5.26725 2.91666 8.16675V19.8334C2.91666 22.7329 5.26716 25.0834 8.16666 25.0834H19.8333C22.7328 25.0834 25.0833 22.7329 25.0833 19.8334V8.16675C25.0833 5.26725 22.7328 2.91675 19.8333 2.91675ZM8.16666 1.16675C4.30066 1.16675 1.16666 4.30075 1.16666 8.16675V19.8334C1.16666 23.6994 4.30066 26.8334 8.16666 26.8334H19.8333C23.6993 26.8334 26.8333 23.6994 26.8333 19.8334V8.16675C26.8333 4.30076 23.6993 1.16675 19.8333 1.16675H8.16666Z" fill="#18202A"/>
<path fill-rule="evenodd" clip-rule="evenodd" d="M10.5 11.0834C11.4665 11.0834 12.25 10.2999 12.25 9.33342C12.25 8.36692 11.4665 7.58342 10.5 7.58342C9.53349 7.58342 8.74999 8.36692 8.74999 9.33342C8.74999 10.2999 9.53349 11.0834 10.5 11.0834ZM14 9.33342C14 11.2664 12.433 12.8334 10.5 12.8334C8.56699 12.8334 6.99999 11.2664 6.99999 9.33342C6.99999 7.40042 8.56699 5.83342 10.5 5.83342C12.433 5.83342 14 7.40042 14 9.33342Z" fill="#18202A"/>
<path fill-rule="evenodd" clip-rule="evenodd" d="M19.3013 11.4825L26.3547 20.4595L24.9786 21.5407L19.1986 14.1843L12.9143 21.0399L9.41701 18.1255L4.14744 23.922L2.85254 22.7448L9.24964 15.708L12.7523 18.6269L19.3013 11.4825Z" fill="#18202A"/>
</svg>
