<svg width="28" height="28" viewBox="0 0 28 28" fill="none" xmlns="http://www.w3.org/2000/svg">
<path d="M0 11.635C0 9.70199 1.567 8.13499 3.5 8.13499H4.66667V19.8017H3.5C1.567 19.8017 0 18.2347 0 16.3017V11.635Z" fill="#18202A"/>
<path d="M7 20.868V7.0687L12.6156 1.93623C14.4874 0.225505 17.5 1.5534 17.5 4.08917V23.8478C17.5 26.3836 14.4873 27.7115 12.6156 26.0007L7 20.868Z" fill="#18202A"/>
<path d="M23.9523 8.24886C24.5212 7.94636 25.2276 8.16233 25.5301 8.73124C26.4134 10.3925 26.8754 12.3062 26.8754 14.2488C26.8754 16.1914 26.4134 18.1051 25.5301 19.7663C25.2276 20.3353 24.5212 20.5512 23.9523 20.2487C23.3834 19.9462 23.1674 19.2398 23.4699 18.6709C24.1653 17.3631 24.5421 15.8281 24.5421 14.2488C24.5421 12.6695 24.1653 11.1345 23.4699 9.82668C23.1674 9.25777 23.3834 8.55135 23.9523 8.24886Z" fill="#18202A"/>
<path d="M20.3459 10.2533C20.8795 9.89209 21.6049 10.0318 21.9661 10.5653C22.6958 11.6432 23.0789 12.963 23.0789 14.3028C23.0789 15.6425 22.6958 16.9624 21.9661 18.0402C21.6049 18.5738 20.8795 18.7135 20.3459 18.3523C19.8124 17.991 19.6727 17.2657 20.0339 16.7321C20.4844 16.0667 20.7456 15.209 20.7456 14.3028C20.7456 13.3965 20.4844 12.5388 20.0339 11.8735C19.6727 11.3399 19.8124 10.6145 20.3459 10.2533Z" fill="#18202A"/>
</svg>
