<svg width="28" height="28" viewBox="0 0 28 28" fill="none" xmlns="http://www.w3.org/2000/svg">
<path fill-rule="evenodd" clip-rule="evenodd" d="M17.5 2.91699H5.83332C4.22249 2.91699 2.91666 4.22283 2.91666 5.83366V17.5003C2.91666 19.1112 4.22249 20.417 5.83332 20.417L5.83332 10.5003C5.83332 7.923 7.92266 5.83366 10.5 5.83366H20.4167C20.4167 4.22283 19.1108 2.91699 17.5 2.91699ZM5.83332 22.167C3.25599 22.167 1.16666 20.0777 1.16666 17.5003V5.83366C1.16666 3.25633 3.25599 1.16699 5.83332 1.16699H17.5C20.0773 1.16699 22.1667 3.25633 22.1667 5.83366C24.744 5.83366 26.8333 7.923 26.8333 10.5003V22.167C26.8333 24.7443 24.744 26.8337 22.1667 26.8337H10.5C7.92266 26.8337 5.83332 24.7443 5.83332 22.167ZM10.5 7.58366H22.1667C23.7775 7.58366 25.0833 8.88949 25.0833 10.5003V22.167C25.0833 23.7778 23.7775 25.0837 22.1667 25.0837H10.5C8.88916 25.0837 7.58332 23.7778 7.58332 22.167V10.5003C7.58332 8.88949 8.88916 7.58366 10.5 7.58366Z" fill="#18202A"/>
</svg>
