<svg width="28" height="28" viewBox="0 0 28 28" fill="none" xmlns="http://www.w3.org/2000/svg">
<path d="M9.345 2.37976C10.1788 2.36764 10.9896 2.65362 11.6312 3.18621C12.2729 3.71879 12.7034 4.46299 12.845 5.28476C12.88 5.5531 12.9267 5.82143 12.985 6.0781C13.1027 6.59703 13.2547 7.10759 13.44 7.60643C13.6369 8.14766 13.6267 8.74259 13.4113 9.27674C13.2228 9.74411 12.889 10.1361 12.4619 10.3964L12.2733 10.4998L11.7833 10.8264C12.4154 11.9628 13.2006 13.007 14.1167 13.9298C14.9241 14.7314 15.8245 15.4326 16.7982 16.0189L17.22 16.2631L17.4767 15.7381C17.7299 15.2208 18.1656 14.8155 18.6997 14.6002C19.2339 14.3848 19.8288 14.3745 20.37 14.5715C20.7433 14.7128 21.124 14.8336 21.5103 14.9335L22.2892 15.1183C22.4204 15.146 22.5517 15.1665 22.68 15.1665C23.4778 15.3095 24.2012 15.7249 24.7267 16.342C25.1939 16.8905 25.479 17.568 25.5466 18.281L25.5617 18.5498V22.0498C25.564 22.5449 25.4612 23.0349 25.2601 23.4875C25.0589 23.9399 24.7641 24.3446 24.395 24.6748C23.8169 25.1898 23.0862 25.497 22.3187 25.5524L22.0617 25.5615H21.6183C16.7285 24.9577 12.1792 22.7421 8.68892 19.2645C5.1987 15.7869 2.96653 11.2457 2.345 6.3581C2.27626 5.86 2.31564 5.35293 2.46048 4.87143C2.60531 4.38992 2.8522 3.94528 3.18433 3.56776C3.51646 3.19024 3.92603 2.88872 4.38516 2.68372C4.76777 2.51288 5.1773 2.41241 5.59416 2.3864L5.845 2.37976H9.345ZM9.345 4.12976L5.82855 4.12954C5.57716 4.12732 5.32822 4.17916 5.09866 4.28166C4.86907 4.38417 4.66429 4.53493 4.49824 4.72368C4.33216 4.91245 4.20872 5.13477 4.13631 5.37553C4.06389 5.61627 4.04419 5.8698 4.08102 6.13734C4.65347 10.6391 6.70941 14.8217 9.92411 18.0248C13.024 21.1135 17.0309 23.1213 21.3514 23.7594L21.7371 23.8111L22.0643 23.8115C22.4329 23.812 22.7907 23.6961 23.0861 23.4843L23.2283 23.3704C23.4129 23.2054 23.5603 23.003 23.6609 22.7767C23.7363 22.607 23.7841 22.4268 23.8028 22.2394L23.8117 22.0498L23.812 18.5806C23.8048 18.1755 23.6572 17.7853 23.3943 17.4766C23.1692 17.2123 22.8714 17.0219 22.5396 16.9279L22.4488 16.9067L22.4288 16.9064C22.3462 16.8998 22.2643 16.89 22.1813 16.8773L21.9277 16.8306L21.5216 16.7354C20.9191 16.6026 20.3272 16.4264 19.7716 16.216C19.6364 16.1668 19.4877 16.1693 19.3541 16.2232C19.254 16.2636 19.1677 16.3307 19.1043 16.4158L19.0488 16.5068L18.522 17.5843C18.2283 18.185 17.4909 18.4165 16.9067 18.0914L16.3692 17.7924C15.0929 17.0823 13.9202 16.2006 12.8747 15.1627C11.9743 14.2556 11.1866 13.2443 10.5282 12.1508L10.254 11.6771L9.99235 11.2067C9.6968 10.6754 9.85886 10.0062 10.3648 9.6689L11.3026 9.04368L11.5038 8.92803C11.6331 8.86472 11.7344 8.75585 11.7882 8.62233C11.8421 8.48874 11.8447 8.34003 11.7995 8.21571C11.5872 7.64428 11.4132 7.05951 11.2785 6.46593C11.2088 6.15938 11.1523 5.83795 11.1204 5.582C11.0496 5.17122 10.8344 4.79911 10.5135 4.53279C10.2385 4.30455 9.90144 4.16689 9.53217 4.13615L9.345 4.12976Z" fill="#18202A"/>
<path fill-rule="evenodd" clip-rule="evenodd" d="M23.528 10.7744C23.528 11.2577 23.1362 11.6494 22.653 11.6494L17.22 11.6494C16.7367 11.6494 16.345 11.2577 16.345 10.7744V5.34142C16.345 4.85817 16.7367 4.46642 17.22 4.46642C17.7032 4.46642 18.095 4.85817 18.095 5.34142V8.66198L23.0008 3.7562C23.3425 3.41449 23.8965 3.41449 24.2382 3.7562C24.5799 4.09791 24.5799 4.65193 24.2382 4.99364L19.3324 9.89941L22.653 9.89941C23.1362 9.89941 23.528 10.2912 23.528 10.7744Z" fill="#18202A"/>
</svg>
