<svg width="28" height="28" viewBox="0 0 28 28" fill="none" xmlns="http://www.w3.org/2000/svg">
<path d="M19.2701 9.86654C19.62 10.1998 19.6335 10.7537 19.3003 11.1036L12.6336 18.1036C12.463 18.2828 12.2244 18.3813 11.9771 18.3749C11.7297 18.3684 11.4967 18.2575 11.3356 18.0696L8.66896 14.9585C8.35447 14.5916 8.39696 14.0392 8.76387 13.7247C9.13078 13.4102 9.68317 13.4527 9.99766 13.8196L12.0342 16.1955L18.033 9.89671C18.3663 9.54677 18.9202 9.53327 19.2701 9.86654Z" fill="#18202A"/>
<path fill-rule="evenodd" clip-rule="evenodd" d="M4.66665 2.3335C3.37798 2.3335 2.33331 3.37817 2.33331 4.66683V23.3335C2.33331 24.6222 3.37798 25.6668 4.66665 25.6668H23.3333C24.622 25.6668 25.6666 24.6222 25.6666 23.3335V4.66683C25.6666 3.37817 24.622 2.3335 23.3333 2.3335H4.66665ZM23.9166 4.66683C23.9166 4.34466 23.6555 4.0835 23.3333 4.0835H4.66665C4.34448 4.0835 4.08331 4.34466 4.08331 4.66683V23.3335C4.08331 23.6557 4.34448 23.9168 4.66665 23.9168H23.3333C23.6555 23.9168 23.9166 23.6557 23.9166 23.3335V4.66683Z" fill="#18202A"/>
</svg>
