<svg width="28" height="28" viewBox="0 0 28 28" fill="none" xmlns="http://www.w3.org/2000/svg">
<g clip-path="url(#clip0_3783_8837)">
<path fill-rule="evenodd" clip-rule="evenodd" d="M22.1667 1.16699C20.878 1.16699 19.8334 2.21166 19.8334 3.50033V3.79199H17.5C15.7281 3.79199 14.2917 5.22841 14.2917 7.00033V13.1253H8.16669V12.8337C8.16669 11.545 7.12202 10.5003 5.83335 10.5003H3.50002C2.21136 10.5003 1.16669 11.545 1.16669 12.8337V15.167C1.16669 16.4557 2.21136 17.5003 3.50002 17.5003H5.83335C7.12202 17.5003 8.16669 16.4557 8.16669 15.167V14.8753H14.2917V21.0003C14.2917 22.7722 15.7281 24.2087 17.5 24.2087H19.8334V24.5003C19.8334 25.789 20.878 26.8337 22.1667 26.8337H24.5C25.7887 26.8337 26.8334 25.789 26.8334 24.5003V22.167C26.8334 20.8783 25.7887 19.8337 24.5 19.8337H22.1667C20.878 19.8337 19.8334 20.8783 19.8334 22.167V22.4587H17.5C16.6946 22.4587 16.0417 21.8057 16.0417 21.0003V14.8753H19.8334V15.167C19.8334 16.4557 20.878 17.5003 22.1667 17.5003H24.5C25.7887 17.5003 26.8334 16.4557 26.8334 15.167V12.8337C26.8334 11.545 25.7887 10.5003 24.5 10.5003H22.1667C20.878 10.5003 19.8334 11.545 19.8334 12.8337V13.1253H16.0417V7.00033C16.0417 6.19491 16.6946 5.54199 17.5 5.54199H19.8334V5.83366C19.8334 7.12232 20.878 8.16699 22.1667 8.16699H24.5C25.7887 8.16699 26.8334 7.12232 26.8334 5.83366V3.50033C26.8334 2.21166 25.7887 1.16699 24.5 1.16699H22.1667ZM25.0834 3.50033C25.0834 3.17816 24.8222 2.91699 24.5 2.91699H22.1667C21.8445 2.91699 21.5834 3.17816 21.5834 3.50033V5.83366C21.5834 6.15583 21.8445 6.41699 22.1667 6.41699H24.5C24.8222 6.41699 25.0834 6.15582 25.0834 5.83366V3.50033ZM6.41669 12.8337C6.41669 12.5115 6.15552 12.2503 5.83335 12.2503H3.50002C3.17785 12.2503 2.91669 12.5115 2.91669 12.8337V15.167C2.91669 15.4892 3.17785 15.7503 3.50002 15.7503H5.83335C6.15552 15.7503 6.41669 15.4892 6.41669 15.167V12.8337ZM21.5834 12.8337C21.5834 12.5115 21.8445 12.2503 22.1667 12.2503H24.5C24.8222 12.2503 25.0834 12.5115 25.0834 12.8337V15.167C25.0834 15.4892 24.8222 15.7503 24.5 15.7503H22.1667C21.8445 15.7503 21.5834 15.4892 21.5834 15.167V12.8337ZM25.0834 22.167C25.0834 21.8448 24.8222 21.5837 24.5 21.5837H22.1667C21.8445 21.5837 21.5834 21.8448 21.5834 22.167V24.5003C21.5834 24.8225 21.8445 25.0837 22.1667 25.0837H24.5C24.8222 25.0837 25.0834 24.8225 25.0834 24.5003V22.167Z" fill="#18202A"/>
</g>
<defs>
<clipPath id="clip0_3783_8837">
<rect width="28" height="28" fill="white"/>
</clipPath>
</defs>
</svg>
