<svg width="28" height="28" viewBox="0 0 28 28" fill="none" xmlns="http://www.w3.org/2000/svg">
<path d="M5.25 11.6665C6.2165 11.6665 7 10.883 7 9.9165C7 8.95001 6.2165 8.1665 5.25 8.1665C4.2835 8.1665 3.5 8.95001 3.5 9.9165C3.5 10.883 4.2835 11.6665 5.25 11.6665Z" fill="#18202A"/>
<path d="M5.25 19.8332C6.2165 19.8332 7 19.0497 7 18.0832C7 17.1167 6.2165 16.3332 5.25 16.3332C4.2835 16.3332 3.5 17.1167 3.5 18.0832C3.5 19.0497 4.2835 19.8332 5.25 19.8332Z" fill="#18202A"/>
<path d="M15.1667 9.9165C15.1667 10.883 14.3832 11.6665 13.4167 11.6665C12.4502 11.6665 11.6667 10.883 11.6667 9.9165C11.6667 8.95001 12.4502 8.1665 13.4167 8.1665C14.3832 8.1665 15.1667 8.95001 15.1667 9.9165Z" fill="#18202A"/>
<path d="M13.4167 19.8332C14.3832 19.8332 15.1667 19.0497 15.1667 18.0832C15.1667 17.1167 14.3832 16.3332 13.4167 16.3332C12.4502 16.3332 11.6667 17.1167 11.6667 18.0832C11.6667 19.0497 12.4502 19.8332 13.4167 19.8332Z" fill="#18202A"/>
<path d="M23.3333 9.9165C23.3333 10.883 22.5498 11.6665 21.5833 11.6665C20.6168 11.6665 19.8333 10.883 19.8333 9.9165C19.8333 8.95001 20.6168 8.1665 21.5833 8.1665C22.5498 8.1665 23.3333 8.95001 23.3333 9.9165Z" fill="#18202A"/>
<path d="M21.5833 19.8332C22.5498 19.8332 23.3333 19.0497 23.3333 18.0832C23.3333 17.1167 22.5498 16.3332 21.5833 16.3332C20.6168 16.3332 19.8333 17.1167 19.8333 18.0832C19.8333 19.0497 20.6168 19.8332 21.5833 19.8332Z" fill="#18202A"/>
</svg>
