<svg width="28" height="28" viewBox="0 0 28 28" fill="none" xmlns="http://www.w3.org/2000/svg">
<path fill-rule="evenodd" clip-rule="evenodd" d="M15.9985 2.69163C15.6715 2.82706 15.4583 3.14612 15.4583 3.50003V8.47354C12.3403 8.58303 9.00051 9.30669 6.34876 11.3532C3.40437 13.6254 1.45834 17.41 1.45834 23.3334C1.45834 23.7282 1.72281 24.0742 2.10385 24.1777C2.48489 24.2813 2.88808 24.1168 3.08796 23.7763C4.65128 21.1128 5.86164 19.5493 7.64685 18.592C9.33127 17.6887 11.6353 17.268 15.4583 17.2143V22.1667C15.4583 22.5206 15.6715 22.8397 15.9985 22.9751C16.3255 23.1105 16.7018 23.0357 16.9521 22.7854L26.2854 13.4521C26.6271 13.1104 26.6271 12.5563 26.2854 12.2146L16.9521 2.88131C16.7018 2.63106 16.3255 2.5562 15.9985 2.69163ZM24.4292 12.8334L17.2083 20.0543V16.3334C17.2083 15.8501 16.8166 15.4584 16.3333 15.4584C11.9366 15.4584 9.03563 15.8616 6.81984 17.0497C5.47171 17.7726 4.42253 18.762 3.45483 20.0245C4.02416 16.4757 5.52771 14.1973 7.41793 12.7386C9.8829 10.8363 13.1573 10.2084 16.3333 10.2084C16.8166 10.2084 17.2083 9.81661 17.2083 9.33336V5.61246L24.4292 12.8334Z" fill="#18202A"/>
</svg>
