<svg width="28" height="28" viewBox="0 0 28 28" fill="none" xmlns="http://www.w3.org/2000/svg">
<path fill-rule="evenodd" clip-rule="evenodd" d="M19.8334 23.3328C19.8334 22.6885 19.3111 22.1662 18.6667 22.1662H3.50008C2.85575 22.1662 2.33341 22.6885 2.33341 23.3328C2.33341 23.9772 2.85575 24.4995 3.50008 24.4995H18.6667C19.3111 24.4995 19.8334 23.9772 19.8334 23.3328Z" fill="#18202A"/>
<path fill-rule="evenodd" clip-rule="evenodd" d="M19.8334 4.66618C19.8334 4.02185 19.3111 3.49951 18.6667 3.49951H3.50008C2.85575 3.49951 2.33341 4.02185 2.33341 4.66618C2.33341 5.31051 2.85575 5.83284 3.50008 5.83284H18.6667C19.3111 5.83284 19.8334 5.31051 19.8334 4.66618Z" fill="#18202A"/>
<path d="M20.1751 11.3245C19.7195 10.8689 19.7195 10.1302 20.1751 9.67455C20.6307 9.21894 21.3694 9.21894 21.825 9.67455L25.325 13.1746C25.5205 13.37 25.6321 13.6176 25.6599 13.8726C25.6804 14.0615 25.6549 14.2544 25.5835 14.4332C25.535 14.5545 25.4653 14.6693 25.3745 14.7719C25.3567 14.7921 25.3381 14.8117 25.3189 14.8306L21.825 18.3245C21.3694 18.7801 20.6307 18.7801 20.1751 18.3245C19.7195 17.8689 19.7195 17.1302 20.1751 16.6746L21.6846 15.1651L3.49956 15.1577C2.85522 15.1574 2.3331 14.6349 2.33337 13.9906C2.33363 13.3462 2.85618 12.8241 3.50051 12.8244L21.6824 12.8318L20.1751 11.3245Z" fill="#18202A"/>
</svg>
