<svg width="28" height="28" viewBox="0 0 28 28" fill="none" xmlns="http://www.w3.org/2000/svg">
<g clip-path="url(#clip0_2294_10661)">
<path fill-rule="evenodd" clip-rule="evenodd" d="M18.6667 6.27116C18.6667 9.91699 17.1111 12.8337 14 12.8337C10.8889 12.8337 9.33333 9.91699 9.33333 6.27116C9.33333 3.35449 10.8889 1.16699 14 1.16699C17.1111 1.16699 18.6667 3.35449 18.6667 6.27116ZM17.1206 15.589C16.1273 15.314 15.0808 15.167 14 15.167C11.0892 15.167 8.42738 16.233 6.38361 17.9959C4.82643 19.3391 4.5161 21.5969 5.42869 23.4398C5.44673 23.4762 5.46489 23.5126 5.48317 23.5489C6.14332 24.8603 7.3487 25.813 8.77092 26.1774C9.71934 26.4205 10.6936 26.599 11.6888 26.7079C11.6049 25.9111 11.7563 25.0714 12.1994 24.288L17.1206 15.589Z" fill="#18202A"/>
<path fill-rule="evenodd" clip-rule="evenodd" d="M26.5969 28.0003H15.4031C14.3271 28.0003 13.6528 26.8152 14.1869 25.8631L19.7838 15.8862C20.3218 14.9273 21.6782 14.9273 22.2162 15.8862L27.8131 25.8631C28.3472 26.8152 27.6729 28.0003 26.5969 28.0003ZM21 18.667C20.5168 18.667 20.125 19.0587 20.125 19.542V21.8753C20.125 22.3586 20.5168 22.7503 21 22.7503C21.4832 22.7503 21.875 22.3586 21.875 21.8753V19.542C21.875 19.0587 21.4832 18.667 21 18.667ZM21 23.917C20.5168 23.917 20.125 24.3087 20.125 24.792C20.125 25.2752 20.5168 25.667 21 25.667C21.4832 25.667 21.875 25.2752 21.875 24.792C21.875 24.3087 21.4832 23.917 21 23.917Z" fill="#18202A"/>
</g>
<defs>
<clipPath id="clip0_2294_10661">
<rect width="28" height="28" fill="white"/>
</clipPath>
</defs>
</svg>
