<svg width="28" height="28" viewBox="0 0 28 28" fill="none" xmlns="http://www.w3.org/2000/svg">
<path d="M3.73811 4.99587C6.38442 4.4565 9.12318 4.58176 11.7092 5.36042C14.2952 6.13908 16.6478 7.54685 18.5564 9.45769C20.4649 11.3685 21.8699 13.7228 22.6454 16.3098C23.421 18.8967 23.5429 21.6357 23.0004 24.2813C22.871 24.9125 23.2777 25.5291 23.9089 25.6586C24.5401 25.788 25.1567 25.3813 25.2862 24.7501C25.9062 21.7264 25.7668 18.5963 24.8805 15.6397C23.9941 12.6832 22.3885 9.99259 20.2073 7.80877C18.0261 5.62495 15.3374 4.01607 12.382 3.12617C9.42649 2.23628 6.29647 2.09312 3.27212 2.70954C2.64077 2.83822 2.23327 3.45434 2.36195 4.0857C2.49063 4.71705 3.10676 5.12455 3.73811 4.99587Z" fill="#18202A"/>
<path d="M9.07845 11.9012C7.35888 11.5084 5.56322 11.6109 3.89953 12.1969C3.29179 12.4109 2.6256 12.0918 2.41155 11.484C2.19751 10.8763 2.51666 10.2101 3.1244 9.99606C5.204 9.26362 7.44859 9.13546 9.59805 9.62644C11.7475 10.1174 13.7138 11.2074 15.2692 12.7702C16.8245 14.3329 17.9052 16.3044 18.386 18.4561C18.8668 20.6079 18.728 22.8518 17.9857 24.928C17.7688 25.5347 17.1011 25.8507 16.4943 25.6337C15.8876 25.4168 15.5716 24.7491 15.7886 24.1424C16.3824 22.4815 16.4934 20.6863 16.1088 18.9649C15.7242 17.2435 14.8596 15.6663 13.6154 14.4162C12.3711 13.166 10.798 12.294 9.07845 11.9012Z" fill="#18202A"/>
<path fill-rule="evenodd" clip-rule="evenodd" d="M11.6667 21.0002C11.6667 23.5775 9.57737 25.6668 7.00004 25.6668C4.42271 25.6668 2.33337 23.5775 2.33337 21.0002C2.33337 18.4228 4.42271 16.3335 7.00004 16.3335C9.57737 16.3335 11.6667 18.4228 11.6667 21.0002ZM9.33337 21.0002C9.33337 22.2888 8.2887 23.3335 7.00004 23.3335C5.71138 23.3335 4.66671 22.2888 4.66671 21.0002C4.66671 19.7115 5.71138 18.6668 7.00004 18.6668C8.2887 18.6668 9.33337 19.7115 9.33337 21.0002Z" fill="#18202A"/>
</svg>
