<svg width="28" height="28" viewBox="0 0 28 28" fill="none" xmlns="http://www.w3.org/2000/svg">
<path d="M1.16666 5.5415C1.16666 5.05825 1.55841 4.6665 2.04166 4.6665H25.9583C26.4416 4.6665 26.8333 5.05825 26.8333 5.5415C26.8333 6.02475 26.4416 6.4165 25.9583 6.4165H2.04166C1.55841 6.4165 1.16666 6.02475 1.16666 5.5415Z" fill="#18202A"/>
<path d="M1.16666 22.4582C1.16666 21.9749 1.55841 21.5832 2.04166 21.5832H25.9583C26.4416 21.5832 26.8333 21.9749 26.8333 22.4582C26.8333 22.9414 26.4416 23.3332 25.9583 23.3332H2.04166C1.55841 23.3332 1.16666 22.9414 1.16666 22.4582Z" fill="#18202A"/>
<path d="M1.16666 13.9998C1.16666 13.5166 1.55841 13.1248 2.04166 13.1248H25.9583C26.4416 13.1248 26.8333 13.5166 26.8333 13.9998C26.8333 14.4831 26.4416 14.8748 25.9583 14.8748H2.04166C1.55841 14.8748 1.16666 14.4831 1.16666 13.9998Z" fill="#18202A"/>
</svg>
