<svg width="28" height="28" viewBox="0 0 28 28" fill="none" xmlns="http://www.w3.org/2000/svg">
<path fill-rule="evenodd" clip-rule="evenodd" d="M14.0001 20.1751C13.5445 20.6307 13.5445 21.3694 14.0001 21.825C14.4557 22.2807 15.1944 22.2807 15.65 21.825L22.65 14.825C23.1056 14.3694 23.1056 13.6307 22.65 13.1751L15.65 6.17512C15.1944 5.71951 14.4557 5.71951 14.0001 6.17512C13.5445 6.63073 13.5445 7.36943 14.0001 7.82504L20.1751 14.0001L14.0001 20.1751ZM5.35016 20.1751C4.89455 20.6307 4.89455 21.3694 5.35016 21.825C5.80577 22.2806 6.54446 22.2806 7.00008 21.825L14.0001 14.825C14.4557 14.3694 14.4557 13.6307 14.0001 13.1751L7.00008 6.17512C6.54447 5.71951 5.80577 5.71951 5.35016 6.17512C4.89455 6.63073 4.89455 7.36943 5.35016 7.82504L11.5252 14.0001L5.35016 20.1751Z" fill="#18202A"/>
</svg>
