<svg width="28" height="28" viewBox="0 0 28 28" fill="none" xmlns="http://www.w3.org/2000/svg">
<path fill-rule="evenodd" clip-rule="evenodd" d="M14 14.5837C15.6108 14.5837 16.9167 13.2778 16.9167 11.667C16.9167 10.0562 15.6108 8.75033 14 8.75033C12.3892 8.75033 11.0833 10.0562 11.0833 11.667C11.0833 13.2778 12.3892 14.5837 14 14.5837ZM14 16.3337C16.5773 16.3337 18.6667 14.2443 18.6667 11.667C18.6667 9.08966 16.5773 7.00033 14 7.00033C11.4227 7.00033 9.33332 9.08966 9.33332 11.667C9.33332 14.2443 11.4227 16.3337 14 16.3337Z" fill="#18202A"/>
<path d="M14 1.16699C16.192 1.16699 18.3349 1.817 20.1575 3.03483C21.9801 4.25266 23.4008 5.9836 24.2396 8.00878C25.0785 10.034 25.298 12.2625 24.8704 14.4124C24.4428 16.5623 23.3872 18.5371 21.8373 20.0872L16.6115 25.7378C16.2687 26.0808 15.8616 26.3529 15.4136 26.5386C14.9655 26.7243 14.4851 26.82 14 26.82C13.5149 26.82 13.0345 26.7243 12.5863 26.5386C12.1381 26.3529 11.7309 26.0806 11.3881 25.7373L6.16269 20.0872C4.61272 18.5371 3.55719 16.5623 3.12958 14.4124C2.70198 12.2625 2.9215 10.034 3.76039 8.00878C4.59927 5.9836 6.01985 4.25266 7.84249 3.03483C9.66511 1.817 11.8079 1.16699 14 1.16699ZM14 2.91699C12.154 2.91699 10.3496 3.46437 8.81473 4.4899C7.27986 5.51545 6.08359 6.97309 5.37717 8.6785C4.67073 10.3839 4.48587 12.2605 4.84596 14.071C5.18204 15.7608 5.97874 17.3221 7.18317 18.624L7.44749 18.899L12.6262 24.5006C12.8065 24.6811 13.0206 24.8243 13.2564 24.922C13.4922 25.0197 13.7449 25.07 14 25.07C14.2551 25.07 14.5078 25.0197 14.7434 24.922C14.9321 24.8438 15.1069 24.7366 15.2375 24.6294L15.3267 24.5496L20.5998 18.8498C21.9051 17.5444 22.794 15.8814 23.154 14.071C23.5141 12.2605 23.3293 10.3838 22.6228 8.67846C21.9165 6.97315 20.7201 5.51549 19.1853 4.48992C17.6504 3.46437 15.8459 2.91699 14 2.91699Z" fill="#18202A"/>
</svg>
