<svg width="28" height="28" viewBox="0 0 28 28" fill="none" xmlns="http://www.w3.org/2000/svg">
<g clip-path="url(#clip0_3444_9423)">
<path d="M20.2458 3.08755C18.7293 1.57108 16.2706 1.57108 14.7542 3.08755L14.4123 3.42938L19.904 8.92101L20.2458 8.57917C21.7623 7.0627 21.7623 4.60402 20.2458 3.08755Z" fill="#18202A"/>
<path d="M3.09945 14.1593L12.7387 5.05556L18.2306 10.5475L8.56718 19.6741C8.49234 19.7448 8.40012 19.7944 8.2999 19.8179L2.46835 21.1862C1.87282 21.3259 1.34073 20.7854 1.48974 20.1921L2.93422 14.4413C2.96131 14.3334 3.01863 14.2356 3.09945 14.1593Z" fill="#18202A"/>
<path d="M14.0666 19.2521C14.5084 19.2774 14.898 19.5505 15.0723 19.9573L16.3677 22.98C16.4597 23.1945 16.6706 23.3336 16.9039 23.3336H16.9293C17.1627 23.3336 17.3736 23.1945 17.4655 22.98L18.761 19.9573C18.9353 19.5505 19.3248 19.2774 19.7667 19.2521C20.2085 19.2269 20.6267 19.4538 20.8462 19.8381L22.3398 22.4518C22.6514 22.9971 23.2312 23.3336 23.8592 23.3336H25.6666C26.311 23.3336 26.8333 23.8559 26.8333 24.5002C26.8333 25.1446 26.311 25.6669 25.6666 25.6669H23.8592C22.3939 25.6669 21.0409 24.8817 20.3139 23.6095L19.9827 23.0299L19.6102 23.8992C19.1506 24.9716 18.0961 25.6669 16.9293 25.6669H16.9039C15.7372 25.6669 14.6827 24.9716 14.2231 23.8992L13.8505 23.0299L13.5193 23.6095C12.7923 24.8817 11.4394 25.6669 9.97402 25.6669H2.33329C1.68896 25.6669 1.16663 25.1446 1.16663 24.5002C1.16663 23.8559 1.68896 23.3336 2.33329 23.3336H9.97402C10.602 23.3336 11.1819 22.9971 11.4934 22.4518L12.987 19.8381C13.2066 19.4538 13.6247 19.2269 14.0666 19.2521Z" fill="#18202A"/>
</g>
<defs>
<clipPath id="clip0_3444_9423">
<rect width="28" height="28" fill="white"/>
</clipPath>
</defs>
</svg>
