<svg width="28" height="28" viewBox="0 0 28 28" fill="none" xmlns="http://www.w3.org/2000/svg">
<path d="M26.8334 5.83317C26.8334 8.4105 24.744 10.4998 22.1667 10.4998C19.5894 10.4998 17.5 8.4105 17.5 5.83317C17.5 3.25584 19.5894 1.1665 22.1667 1.1665C24.744 1.1665 26.8334 3.25584 26.8334 5.83317Z" fill="#18202A"/>
<path d="M14.188 4.08317C14.3215 3.47139 14.5237 2.88523 14.7859 2.33317H5.83335C3.25602 2.33317 1.16669 4.42251 1.16669 6.99984V17.4998C1.16669 19.69 2.67545 21.5278 4.71031 22.0305C5.07003 22.1194 5.44618 22.1665 5.83335 22.1665H6.46972L5.79326 25.4017C5.58543 26.3957 6.65866 27.1623 7.53149 26.6433L15.0606 22.1665H22.1667C24.744 22.1665 26.8334 20.0772 26.8334 17.4998V12.536C26.294 12.9123 25.707 13.2251 25.0834 13.4636V17.4998C25.0834 19.1107 23.7775 20.4165 22.1667 20.4165H15.0606C14.7458 20.4165 14.4368 20.5014 14.1662 20.6623L7.77784 24.4608L8.18267 22.5247C8.29052 22.0089 8.1602 21.4719 7.82789 21.0629C7.49559 20.654 6.99668 20.4165 6.46972 20.4165H5.83335C4.22252 20.4165 2.91669 19.1107 2.91669 17.4998V6.99984C2.91669 5.38901 4.22252 4.08317 5.83335 4.08317H14.188Z" fill="#18202A"/>
</svg>
