<svg width="28" height="28" viewBox="0 0 28 28" fill="none" xmlns="http://www.w3.org/2000/svg">
<path fill-rule="evenodd" clip-rule="evenodd" d="M26.8333 14C26.8333 6.9123 21.0877 1.16663 14 1.16663C6.91234 1.16663 1.16666 6.91231 1.16666 14C1.16666 21.0876 6.91234 26.8333 14 26.8333C21.0877 26.8333 26.8333 21.0876 26.8333 14ZM8.50837 14.3417C8.05276 14.7973 8.05276 15.536 8.50837 15.9916C8.96398 16.4472 9.70268 16.4472 10.1583 15.9916L14 12.1499L17.8417 15.9916C18.2973 16.4472 19.036 16.4472 19.4916 15.9916C19.9472 15.536 19.9472 14.7973 19.4916 14.3417L14.825 9.675C14.3693 9.21939 13.6307 9.21939 13.175 9.675L8.50837 14.3417Z" fill="#18202A"/>
</svg>
