<svg width="28" height="28" viewBox="0 0 28 28" fill="none" xmlns="http://www.w3.org/2000/svg">
<path d="M10.5 3.49992C10.5 4.14425 9.97771 4.66659 9.33337 4.66659H7.00004C5.71138 4.66659 4.66671 5.71125 4.66671 6.99992V20.9999C4.66671 22.2886 5.71138 23.3333 7.00004 23.3333H21C22.2887 23.3333 23.3334 22.2886 23.3334 20.9999V18.6666C23.3334 18.0223 23.8557 17.4999 24.5 17.4999C25.1444 17.4999 25.6667 18.0223 25.6667 18.6666V20.9999C25.6667 23.5772 23.5774 25.6666 21 25.6666H7.00004C4.42271 25.6666 2.33337 23.5772 2.33337 20.9999V6.99992C2.33337 4.42259 4.42271 2.33325 7.00004 2.33325H9.33337C9.97771 2.33325 10.5 2.85559 10.5 3.49992Z" fill="#18202A"/>
<path fill-rule="evenodd" clip-rule="evenodd" d="M14.875 3.49992C14.875 2.85559 15.3974 2.33325 16.0417 2.33325H24.5C25.1444 2.33325 25.6667 2.85559 25.6667 3.49992V11.9583C25.6667 12.6026 25.1444 13.1249 24.5 13.1249C23.8557 13.1249 23.3334 12.6026 23.3334 11.9583V6.3165L12.4917 17.1582C12.0361 17.6138 11.2974 17.6138 10.8417 17.1582C10.3861 16.7026 10.3861 15.9639 10.8417 15.5083L21.6835 4.66659H16.0417C15.3974 4.66659 14.875 4.14425 14.875 3.49992Z" fill="#18202A"/>
</svg>
