<svg width="28" height="28" viewBox="0 0 28 28" fill="none" xmlns="http://www.w3.org/2000/svg">
<path fill-rule="evenodd" clip-rule="evenodd" d="M23.3333 9.33317V18.3887L14.2778 9.33317H23.3333ZM23.3333 6.99984H11.9444L6.8353 1.89069C7.55756 1.43209 8.41443 1.1665 9.33333 1.1665H18.6667C21.244 1.1665 23.3333 3.25584 23.3333 5.83317V6.99984ZM7.68194 9.33317L1.58811 3.23933C1.07192 2.72315 1.02315 1.93502 1.47917 1.47901C1.93518 1.02299 2.72331 1.07176 3.23949 1.58795L26.4119 24.7603C26.9281 25.2765 26.9768 26.0647 26.5208 26.5207C26.0648 26.9767 25.2767 26.9279 24.7605 26.4117L23.3333 24.9846V25.6665C23.3333 26.6279 22.2358 27.1767 21.4667 26.5998L15.4 22.0498C14.5704 21.4276 13.4296 21.4276 12.6 22.0498L6.53333 26.5998C5.76422 27.1767 4.66666 26.6279 4.66666 25.6665V9.33317H7.68194Z" fill="#18202A"/>
</svg>
