<svg width="28" height="28" viewBox="0 0 28 28" fill="none" xmlns="http://www.w3.org/2000/svg">
<path d="M26.9542 3.04143C27.2801 2.67973 27.2723 2.10169 26.9368 1.75032C26.6014 1.39896 26.0653 1.40734 25.7394 1.76904L15.3964 13.2496L11.164 8.2804C10.8477 7.909 10.3121 7.88442 9.96761 8.2255C9.62316 8.56659 9.60037 9.14417 9.9167 9.51557L14.7554 15.1967C14.913 15.3817 15.1343 15.4886 15.3672 15.4921C15.6001 15.4956 15.8241 15.3955 15.9865 15.2153L26.9542 3.04143Z" fill="#18202A"/>
<path d="M5.83335 2.33358C3.25603 2.33358 1.16669 4.42292 1.16669 7.00024V17.5002C1.16669 19.6904 2.67545 21.5282 4.71031 22.0309C5.07003 22.1198 5.44618 22.1669 5.83335 22.1669H6.46972L5.79326 25.4021C5.58543 26.3961 6.65866 27.1627 7.53149 26.6437L15.0606 22.1669H22.1667C24.744 22.1669 26.8334 20.0776 26.8334 17.5002V11.3752C26.8334 10.892 26.4416 10.5002 25.9584 10.5002C25.4751 10.5002 25.0834 10.892 25.0834 11.3752V17.5002C25.0834 19.1111 23.7775 20.4169 22.1667 20.4169H15.0606C14.7458 20.4169 14.4368 20.5018 14.1662 20.6627L7.77784 24.4612L8.18267 22.5251C8.29052 22.0093 8.1602 21.4723 7.82789 21.0633C7.49559 20.6544 6.99668 20.4169 6.46972 20.4169H5.83335C4.22252 20.4169 2.91669 19.1111 2.91669 17.5002V7.00024C2.91669 5.38941 4.22252 4.08358 5.83335 4.08358H16.625C17.1083 4.08358 17.5 3.69183 17.5 3.20858C17.5 2.72533 17.1083 2.33358 16.625 2.33358H5.83335Z" fill="#18202A"/>
</svg>
