<svg width="28" height="28" viewBox="0 0 28 28" fill="none" xmlns="http://www.w3.org/2000/svg">
<path fill-rule="evenodd" clip-rule="evenodd" d="M17.903 1.58122C17.395 1.30932 16.8276 1.16699 16.2515 1.16699H11.7482C11.172 1.16699 10.6047 1.30932 10.0968 1.58122C9.58878 1.85313 9.15577 2.24624 8.83618 2.72566L7.88885 4.14783C7.78228 4.30757 7.63792 4.43852 7.46859 4.52908C7.29937 4.6196 7.11044 4.66697 6.91853 4.66699L6.74695 4.67238C3.64269 4.80487 1.16666 7.36345 1.16666 10.5003V19.8337C1.16666 23.0553 3.77833 25.667 6.99999 25.667H21C24.2216 25.667 26.8333 23.0553 26.8333 19.8337V10.5003C26.8333 7.27867 24.2216 4.66699 21 4.66699H21.0812C20.8893 4.66697 20.7003 4.6196 20.5311 4.52908C20.3618 4.43852 20.2174 4.30757 20.1109 4.14783L19.1635 2.72566C18.8439 2.24624 18.4109 1.85313 17.903 1.58122ZM11.7482 2.91699H16.2515L16.4236 2.92548C16.6517 2.94805 16.8739 3.01534 17.0771 3.12409C17.3311 3.26003 17.5476 3.45662 17.7075 3.69649L18.6544 5.118L18.7956 5.31192C19.0434 5.62457 19.3529 5.88346 19.7056 6.07217L19.921 6.17628C20.2132 6.303 20.5243 6.38099 20.8419 6.40714L21 6.41699L21.224 6.42303C23.375 6.53935 25.0833 8.32035 25.0833 10.5003V19.8337L25.0773 20.0577C24.961 22.2086 23.18 23.917 21 23.917H6.99999L6.77595 23.9109C4.62499 23.7946 2.91666 22.0136 2.91666 19.8337V10.5003L2.9227 10.2763C3.03901 8.12532 4.82 6.41699 6.99999 6.41232L7.15784 6.40715C7.55465 6.37446 7.94145 6.26078 8.29403 6.07218C8.71724 5.84585 9.07815 5.51843 9.34459 5.11907L10.2926 3.69583L10.395 3.55757C10.5402 3.38042 10.7194 3.23287 10.9226 3.1241C11.1766 2.98813 11.4602 2.91699 11.7482 2.91699ZM10.459 11.4045C11.3599 10.4855 12.6128 9.91699 14 9.91699C16.1651 9.91699 18.0061 11.3047 18.6821 13.2392L17.3762 13.4258C17.0259 13.4758 16.7402 13.732 16.6524 14.0748C16.5645 14.4177 16.6919 14.7796 16.975 14.992L19.3083 16.742C19.6949 17.0319 20.2434 16.9536 20.5333 16.567L22.2833 14.2337C22.4957 13.9505 22.5166 13.5674 22.3362 13.2629C22.1559 12.9583 21.8099 12.7924 21.4596 12.8425L20.4392 12.9882C19.6241 10.202 17.0497 8.16699 14 8.16699C12.1236 8.16699 10.4258 8.93854 9.20932 10.1795C8.87102 10.5245 8.87653 11.0785 9.22162 11.4168C9.56671 11.7551 10.1207 11.7496 10.459 11.4045ZM8.69166 13.0087C8.30506 12.7187 7.75661 12.7971 7.46666 13.1837L5.71666 15.517C5.50432 15.8001 5.48343 16.1833 5.66374 16.4878C5.84406 16.7923 6.19005 16.9582 6.5404 16.9082L7.56074 16.7624C8.37592 19.5486 10.9503 21.5837 14 21.5837C15.8764 21.5837 17.5742 20.8121 18.7907 19.5712C19.129 19.2261 19.1235 18.6721 18.7784 18.3338C18.4333 17.9955 17.8793 18.001 17.541 18.3461C16.6401 19.2651 15.3872 19.8337 14 19.8337C11.8349 19.8337 9.99387 18.4459 9.31793 16.5114L10.6237 16.3249C10.9741 16.2748 11.2598 16.0186 11.3476 15.6758C11.4354 15.333 11.3081 14.971 11.025 14.7587L8.69166 13.0087Z" fill="#18202A"/>
</svg>
