<svg width="28" height="28" viewBox="0 0 28 28" fill="none" xmlns="http://www.w3.org/2000/svg">
<path fill-rule="evenodd" clip-rule="evenodd" d="M5.87898 23.9168H22.121C24.3681 23.9168 25.7711 21.4828 24.645 19.5383L16.5239 5.51642C15.4004 3.57656 12.5996 3.57656 11.4761 5.51642L3.35505 19.5383C2.2289 21.4828 3.63196 23.9168 5.87898 23.9168ZM22.121 25.6668H5.87898C2.28375 25.6668 0.0388485 21.7724 1.8407 18.6613L9.96174 4.63936C11.7593 1.53558 16.2407 1.53558 18.0383 4.63936L26.1593 18.6613C27.9612 21.7724 25.7163 25.6668 22.121 25.6668Z" fill="#18202A"/>
<path fill-rule="evenodd" clip-rule="evenodd" d="M14 8.45845C14.4833 8.45845 14.875 8.8502 14.875 9.33345V15.1668C14.875 15.65 14.4833 16.0418 14 16.0418C13.5168 16.0418 13.125 15.65 13.125 15.1668V9.33345C13.125 8.8502 13.5168 8.45845 14 8.45845Z" fill="#18202A"/>
<path fill-rule="evenodd" clip-rule="evenodd" d="M13.125 19.8334C13.125 19.3502 13.5168 18.9584 14 18.9584H14.0117C14.4949 18.9584 14.8867 19.3502 14.8867 19.8334C14.8867 20.3167 14.4949 20.7084 14.0117 20.7084H14C13.5168 20.7084 13.125 20.3167 13.125 19.8334Z" fill="#18202A"/>
</svg>
