<svg width="28" height="28" viewBox="0 0 28 28" fill="none" xmlns="http://www.w3.org/2000/svg">
<path fill-rule="evenodd" clip-rule="evenodd" d="M8.16667 1.16699C5.58934 1.16699 3.5 3.25633 3.5 5.83366V22.167C3.5 24.7443 5.58934 26.8337 8.16667 26.8337L8.16667 1.16699ZM9.33333 1.16699V26.8337H19.8333C22.4107 26.8337 24.5 24.7443 24.5 22.167V5.83366C24.5 3.25633 22.4107 1.16699 19.8333 1.16699H9.33333ZM13.8333 5.83366C13.281 5.83366 12.8333 6.28137 12.8333 6.83366V7.16699C12.8333 7.71928 13.281 8.16699 13.8333 8.16699H20C20.5523 8.16699 21 7.71928 21 7.16699V6.83366C21 6.28137 20.5523 5.83366 20 5.83366H13.8333ZM14 10.3337C14 9.78137 14.4477 9.33366 15 9.33366H18.8333C19.3856 9.33366 19.8333 9.78137 19.8333 10.3337V10.667C19.8333 11.2193 19.3856 11.667 18.8333 11.667H15C14.4477 11.667 14 11.2193 14 10.667V10.3337Z" fill="#18202A"/>
</svg>
