<svg width="28" height="28" viewBox="0 0 28 28" fill="none" xmlns="http://www.w3.org/2000/svg">
<path d="M3.80279 2.55941C3.4572 2.24765 2.92405 2.25821 2.59117 2.59109C2.24738 2.93489 2.24738 3.49228 2.59117 3.83607L5.35611 6.60101C4.44746 7.66135 3.73888 8.88342 3.27011 10.2081C3.1089 10.6637 3.34753 11.1637 3.80309 11.3249C4.25866 11.4861 4.75866 11.2475 4.91987 10.7919C5.30142 9.71367 5.87074 8.7158 6.59788 7.84279L20.1564 21.4013C18.9907 22.3695 17.6115 23.0499 16.1306 23.3849C14.5448 23.7437 12.8939 23.695 11.3321 23.2432C9.77021 22.7915 8.34825 21.9514 7.19886 20.8014C7.1924 20.795 7.18584 20.7886 7.17917 20.7824L3.37561 17.2083H6.99999C7.48324 17.2083 7.87499 16.8165 7.87499 16.3333C7.87499 15.85 7.48324 15.4583 6.99999 15.4583H1.16666C0.683407 15.4583 0.291656 15.85 0.291656 16.3333V22.1666C0.291656 22.6498 0.683407 23.0416 1.16666 23.0416C1.64991 23.0416 2.04166 22.6498 2.04166 22.1666V18.3562L5.97101 22.0485C7.32763 23.4024 9.00446 24.3917 10.8458 24.9243C12.6916 25.4582 14.6426 25.5158 16.5168 25.0918C18.3197 24.6839 19.9949 23.843 21.3983 22.6432L24.1638 25.4087C24.5076 25.7525 25.065 25.7525 25.4088 25.4087C25.7417 25.0759 25.7523 24.5427 25.4405 24.1971L3.80279 2.55941Z" fill="#18202A"/>
<path d="M23.6876 19.9694C24.1097 19.2852 24.4596 18.5556 24.7299 17.7919C24.8911 17.3363 24.6525 16.8363 24.1969 16.6751C23.7413 16.5139 23.2413 16.7525 23.0801 17.2081C22.8982 17.7223 22.6735 18.2183 22.4094 18.6911L23.6876 19.9694Z" fill="#18202A"/>
<path d="M9.31152 5.59327C10.1101 5.14868 10.971 4.81835 11.8694 4.61507C13.4552 4.25626 15.1061 4.30502 16.6679 4.75679C18.2298 5.20855 19.6517 6.04861 20.8011 7.19857C20.8076 7.20504 20.8142 7.21141 20.8208 7.21767L24.6243 10.7916H21C20.5167 10.7916 20.125 11.1833 20.125 11.6666C20.125 12.1498 20.5167 12.5416 21 12.5416H26.8333C27.3166 12.5416 27.7083 12.1498 27.7083 11.6666V5.83325C27.7083 5.35 27.3166 4.95825 26.8333 4.95825C26.3501 4.95825 25.9583 5.35 25.9583 5.83325V9.64373L22.0289 5.95153C20.6723 4.59757 18.9955 3.60831 17.1542 3.0757C15.3083 2.54179 13.3573 2.48417 11.4832 2.90821C10.2592 3.18517 9.09402 3.66168 8.03283 4.31458L9.31152 5.59327Z" fill="#18202A"/>
</svg>
