<svg width="28" height="28" viewBox="0 0 28 28" fill="none" xmlns="http://www.w3.org/2000/svg">
<g clip-path="url(#clip0_3294_8807)">
<path d="M4.66665 5.83317C4.66665 6.4775 4.14431 6.99984 3.49998 6.99984C2.85565 6.99984 2.33331 6.4775 2.33331 5.83317C2.33331 5.18884 2.85565 4.6665 3.49998 4.6665C4.14431 4.6665 4.66665 5.18884 4.66665 5.83317Z" fill="#18202A"/>
<path d="M8.16665 5.83317C8.16665 5.34992 8.5584 4.95817 9.04165 4.95817H24.7916C25.2749 4.95817 25.6666 5.34992 25.6666 5.83317C25.6666 6.31642 25.2749 6.70817 24.7916 6.70817H9.04165C8.5584 6.70817 8.16665 6.31642 8.16665 5.83317Z" fill="#18202A"/>
<path d="M9.04165 13.1248C8.5584 13.1248 8.16665 13.5166 8.16665 13.9998C8.16665 14.4831 8.5584 14.8748 9.04165 14.8748H24.7916C25.2749 14.8748 25.6666 14.4831 25.6666 13.9998C25.6666 13.5166 25.2749 13.1248 24.7916 13.1248H9.04165Z" fill="#18202A"/>
<path d="M9.04165 21.2915C8.5584 21.2915 8.16665 21.6833 8.16665 22.1665C8.16665 22.6498 8.5584 23.0415 9.04165 23.0415H24.7916C25.2749 23.0415 25.6666 22.6498 25.6666 22.1665C25.6666 21.6833 25.2749 21.2915 24.7916 21.2915H9.04165Z" fill="#18202A"/>
<path d="M4.66665 13.9998C4.66665 14.6442 4.14431 15.1665 3.49998 15.1665C2.85565 15.1665 2.33331 14.6442 2.33331 13.9998C2.33331 13.3555 2.85565 12.8332 3.49998 12.8332C4.14431 12.8332 4.66665 13.3555 4.66665 13.9998Z" fill="#18202A"/>
<path d="M4.66665 22.1665C4.66665 22.8108 4.14431 23.3332 3.49998 23.3332C2.85565 23.3332 2.33331 22.8108 2.33331 22.1665C2.33331 21.5222 2.85565 20.9998 3.49998 20.9998C4.14431 20.9998 4.66665 21.5222 4.66665 22.1665Z" fill="#18202A"/>
</g>
<defs>
<clipPath id="clip0_3294_8807">
<rect width="28" height="28" fill="white"/>
</clipPath>
</defs>
</svg>
