<svg width="28" height="28" viewBox="0 0 28 28" fill="none" xmlns="http://www.w3.org/2000/svg">
<path d="M18.9272 3.92144C19.4434 3.40526 20.2315 3.35648 20.6875 3.8125C21.1435 4.26852 21.0947 5.05664 20.5786 5.57283L19.8667 6.28472C20.5729 7.10249 21 8.16803 21 9.33333V18.6667C21 21.244 18.9107 23.3333 16.3333 23.3333H4.66667C4.11364 23.3333 3.58309 23.2371 3.09082 23.0606L2.07283 24.0786C1.55665 24.5947 0.76852 24.6435 0.312503 24.1875C-0.143515 23.7315 -0.094742 22.9434 0.421443 22.4272L18.9272 3.92144Z" fill="#18202A"/>
<path d="M0.0713783 19.4842L14.889 4.66667H4.66667C2.08934 4.66667 0 6.756 0 9.33333V18.6667C0 18.9456 0.0244693 19.2188 0.0713783 19.4842Z" fill="#18202A"/>
<path d="M22.6516 9.68415C22.3471 9.90339 22.1667 10.2557 22.1667 10.6309V16.2024C22.1667 17.7443 22.3471 18.0966 22.6516 18.3159L26.1516 20.8358C26.9234 21.3915 28 20.84 28 19.8891V8.11094C28 7.15999 26.9234 6.60851 26.1516 7.16415L22.6516 9.68415Z" fill="#18202A"/>
</svg>
