<svg width="28" height="28" viewBox="0 0 28 28" fill="none" xmlns="http://www.w3.org/2000/svg">
<path d="M5.83334 3.5C3.90035 3.5 2.33334 5.067 2.33334 7V8.16667C2.33334 10.0997 3.90035 11.6667 5.83334 11.6667H7.00001C8.93301 11.6667 10.5 10.0997 10.5 8.16667V7C10.5 6.66636 10.4533 6.34363 10.3661 6.03798L7.0354 9.36872C6.69369 9.71043 6.13967 9.71043 5.79796 9.36872L4.04796 7.61872C3.70625 7.27701 3.70625 6.72299 4.04796 6.38128C4.38967 6.03957 4.94369 6.03957 5.2854 6.38128L6.41668 7.51256L9.43925 4.48999C8.80889 3.8773 7.94851 3.5 7.00001 3.5H5.83334Z" fill="#18202A"/>
<path d="M9.43925 17.3233C8.80889 16.7106 7.94851 16.3333 7.00001 16.3333H5.83334C3.90035 16.3333 2.33334 17.9003 2.33334 19.8333V21C2.33334 22.933 3.90035 24.5 5.83334 24.5H7.00001C8.93301 24.5 10.5 22.933 10.5 21V19.8333C10.5 19.4997 10.4533 19.177 10.3661 18.8713L7.0354 22.2021C6.69369 22.5438 6.13967 22.5438 5.79796 22.2021L4.04796 20.4521C3.70625 20.1103 3.70625 19.5563 4.04796 19.2146C4.38967 18.8729 4.94369 18.8729 5.2854 19.2146L6.41668 20.3459L9.43925 17.3233Z" fill="#18202A"/>
<path d="M13.7083 4.66667C13.2251 4.66667 12.8333 5.05842 12.8333 5.54167C12.8333 6.02492 13.2251 6.41667 13.7083 6.41667H24.7917C25.2749 6.41667 25.6667 6.02492 25.6667 5.54167C25.6667 5.05842 25.2749 4.66667 24.7917 4.66667H13.7083Z" fill="#18202A"/>
<path d="M12.8333 9.625C12.8333 9.14175 13.2251 8.75 13.7083 8.75H24.7917C25.2749 8.75 25.6667 9.14175 25.6667 9.625C25.6667 10.1082 25.2749 10.5 24.7917 10.5H13.7083C13.2251 10.5 12.8333 10.1082 12.8333 9.625Z" fill="#18202A"/>
<path d="M13.7083 17.5C13.2251 17.5 12.8333 17.8918 12.8333 18.375C12.8333 18.8582 13.2251 19.25 13.7083 19.25H24.7917C25.2749 19.25 25.6667 18.8582 25.6667 18.375C25.6667 17.8918 25.2749 17.5 24.7917 17.5H13.7083Z" fill="#18202A"/>
<path d="M12.8333 22.4583C12.8333 21.9751 13.2251 21.5833 13.7083 21.5833H24.7917C25.2749 21.5833 25.6667 21.9751 25.6667 22.4583C25.6667 22.9416 25.2749 23.3333 24.7917 23.3333H13.7083C13.2251 23.3333 12.8333 22.9416 12.8333 22.4583Z" fill="#18202A"/>
</svg>
