<svg width="28" height="28" viewBox="0 0 28 28" fill="none" xmlns="http://www.w3.org/2000/svg">
<path fill-rule="evenodd" clip-rule="evenodd" d="M18.1187 7.32673C17.777 7.66843 17.223 7.66843 16.8813 7.32673L14 4.44544L11.1187 7.32673C10.777 7.66843 10.223 7.66843 9.88127 7.32672C9.53956 6.98502 9.53956 6.431 9.88127 6.08929L13.3813 2.58929C13.723 2.24758 14.277 2.24758 14.6187 2.58929L18.1187 6.08929C18.4604 6.431 18.4604 6.98502 18.1187 7.32673ZM2.04166 10.4997C1.55841 10.4997 1.16666 10.8914 1.16666 11.3747C1.16666 11.8579 1.55841 12.2497 2.04166 12.2497H25.9583C26.4416 12.2497 26.8333 11.8579 26.8333 11.3747C26.8333 10.8914 26.4416 10.4997 25.9583 10.4997H2.04166ZM2.04166 15.7497C1.55841 15.7497 1.16666 16.1414 1.16666 16.6247C1.16666 17.1079 1.55841 17.4997 2.04166 17.4997H25.9583C26.4416 17.4997 26.8333 17.1079 26.8333 16.6247C26.8333 16.1414 26.4416 15.7497 25.9583 15.7497H2.04166ZM18.1187 21.9101C18.4604 21.5684 18.4604 21.0143 18.1187 20.6726C17.777 20.3309 17.223 20.3309 16.8813 20.6726L14 23.5539L11.1187 20.6726C10.777 20.3309 10.223 20.3309 9.88127 20.6726C9.53956 21.0143 9.53956 21.5684 9.88127 21.9101L13.3813 25.4101C13.723 25.7518 14.277 25.7518 14.6187 25.4101L18.1187 21.9101Z" fill="#18202A"/>
</svg>
