<svg width="28" height="28" viewBox="0 0 28 28" fill="none" xmlns="http://www.w3.org/2000/svg">
<path d="M17.5 8.75033C17.5 11.667 16.3333 14.0003 14 14.0003C11.6667 14.0003 10.5 11.667 10.5 8.75033C10.5 6.41699 11.6667 4.66699 14 4.66699C16.3333 4.66699 17.5 6.41699 17.5 8.75033Z" fill="#18202A"/>
<path d="M20.4848 22.9213C19.8642 24.2785 18.59 25.2183 17.1139 25.4377C16.0978 25.5887 15.058 25.667 14 25.667C12.9419 25.667 11.9022 25.5887 10.8861 25.4377C9.41 25.2183 8.13577 24.2785 7.51516 22.9213C7.29616 22.4424 7.09682 21.9526 6.91818 21.453C6.30732 19.7446 6.81858 17.7955 8.34661 16.8173C9.97853 15.7726 11.9185 15.167 14 15.167C16.0814 15.167 18.0214 15.7726 19.6534 16.8173C21.1814 17.7955 21.6927 19.7447 21.0818 21.453C20.9032 21.9526 20.7038 22.4424 20.4848 22.9213Z" fill="#18202A"/>
<path d="M5.83333 14.0003C7.38889 14.0003 8.16667 12.542 8.16667 10.7191C8.16667 9.26074 7.38889 8.16699 5.83333 8.16699C4.27778 8.16699 3.5 9.26074 3.5 10.7191C3.5 12.542 4.27778 14.0003 5.83333 14.0003Z" fill="#18202A"/>
<path d="M24.5 10.7191C24.5 12.542 23.7222 14.0003 22.1667 14.0003C20.6111 14.0003 19.8333 12.542 19.8333 10.7191C19.8333 9.26074 20.6111 8.16699 22.1667 8.16699C23.7222 8.16699 24.5 9.26074 24.5 10.7191Z" fill="#18202A"/>
<path d="M4.72108 22.2389C4.03568 20.322 4.25365 18.0732 5.4815 16.3684C4.36774 16.4639 3.30984 16.7551 2.34232 17.2073C0.980747 17.8437 0.431334 19.4511 0.891009 20.882C1.29319 22.134 2.38535 23.0135 3.69043 23.1746C4.16706 23.2334 4.64864 23.2763 5.13461 23.3027C4.98748 22.9528 4.84954 22.5981 4.72108 22.2389Z" fill="#18202A"/>
<path d="M22.8716 23.288C23.0164 22.9429 23.1523 22.5931 23.2789 22.2389C23.9609 20.3316 23.7485 18.0957 22.5368 16.394C23.7095 16.5273 24.8162 16.8778 25.8158 17.4044C27.0651 18.0626 27.5475 19.5729 27.113 20.9165C26.7293 22.1029 25.7035 22.9452 24.4691 23.1216C23.9426 23.1968 23.4099 23.2525 22.8716 23.288Z" fill="#18202A"/>
</svg>
