<svg width="28" height="28" viewBox="0 0 28 28" fill="none" xmlns="http://www.w3.org/2000/svg">
<g clip-path="url(#clip0_2294_9889)">
<path fill-rule="evenodd" clip-rule="evenodd" d="M26.8333 3.50009C26.189 3.50009 25.6667 4.02242 25.6667 4.66675V10.5001H19.8333C19.189 10.5001 18.6667 11.0224 18.6667 11.6668C18.6667 12.3111 19.189 12.8334 19.8333 12.8334H26.8333C27.4777 12.8334 28 12.3111 28 11.6668V4.66675C28 4.02242 27.4777 3.50009 26.8333 3.50009Z" fill="#18202A"/>
<path fill-rule="evenodd" clip-rule="evenodd" d="M9.33333 16.3334C9.33333 15.6891 8.811 15.1668 8.16667 15.1668H1.16667C0.522335 15.1668 0 15.6891 0 16.3334V23.3334C0 23.9778 0.522335 24.5001 1.16667 24.5001C1.811 24.5001 2.33333 23.9778 2.33333 23.3334V17.5001H8.16667C8.811 17.5001 9.33333 16.9778 9.33333 16.3334Z" fill="#18202A"/>
<path fill-rule="evenodd" clip-rule="evenodd" d="M17.2352 2.7956C15.3421 2.248 13.341 2.1889 11.4189 2.62382C9.49669 3.05874 7.71602 3.97349 6.24299 5.28273C4.76997 6.59197 3.65261 8.25302 2.99516 10.1109C2.78022 10.7183 3.09838 11.385 3.7058 11.5999C4.31323 11.8149 4.97989 11.4967 5.19484 10.8893C5.72079 9.40299 6.61468 8.07415 7.7931 7.02675C8.97152 5.97936 10.3961 5.24756 11.9338 4.89963C13.4715 4.55169 15.0724 4.59897 16.5869 5.03705C18.1014 5.47513 19.4803 6.28973 20.5948 7.40484C20.6035 7.41346 20.6122 7.42195 20.6211 7.4303L26.0344 12.517C26.504 12.9582 27.2423 12.9352 27.6835 12.4657C28.1248 11.9961 28.1018 11.2578 27.6322 10.8165L22.2319 5.74207C20.841 4.35499 19.1224 3.34146 17.2352 2.7956ZM0.316456 15.5345C-0.124769 16.0041 -0.101797 16.7424 0.367762 17.1836L5.76814 22.2581C7.15899 23.6452 8.87764 24.6587 10.7648 25.2046C12.6579 25.7522 14.659 25.8113 16.5811 25.3764C18.5033 24.9414 20.284 24.0267 21.757 22.7174C23.23 21.4082 24.3474 19.7472 25.0048 17.8893C25.2198 17.2819 24.9016 16.6152 24.2942 16.4003C23.6868 16.1853 23.0201 16.5035 22.8052 17.1109C22.2792 18.5972 21.3853 19.926 20.2069 20.9734C19.0285 22.0208 17.6039 22.7526 16.0662 23.1006C14.5285 23.4485 12.9276 23.4012 11.4131 22.9631C9.89859 22.5251 8.51972 21.7105 7.40516 20.5953C7.39998 20.5902 7.39475 20.585 7.38947 20.5799C7.38597 20.5766 7.38245 20.5732 7.3789 20.5699L1.96557 15.4832C1.49601 15.042 0.757679 15.065 0.316456 15.5345Z" fill="#18202A"/>
</g>
<defs>
<clipPath id="clip0_2294_9889">
<rect width="28" height="28" fill="white"/>
</clipPath>
</defs>
</svg>
