<svg width="28" height="28" viewBox="0 0 28 28" fill="none" xmlns="http://www.w3.org/2000/svg">
<path d="M6.99999 1.1665C3.77833 1.1665 1.16666 3.77818 1.16666 6.99984V20.9998C1.16666 24.2215 3.77833 26.8332 6.99999 26.8332H16.1888C15.7736 26.3021 15.4277 25.7142 15.1645 25.0832H6.99999C4.74483 25.0832 2.91666 23.255 2.91666 20.9998V6.99984C2.91666 4.74467 4.74483 2.9165 6.99999 2.9165H21C23.2552 2.9165 25.0833 4.74467 25.0833 6.99984V15.1644C25.7144 15.4275 26.3022 15.7735 26.8333 16.1887V6.99984C26.8333 3.77818 24.2216 1.1665 21 1.1665H6.99999Z" fill="#18202A"/>
<path d="M8.16666 7.58317V5.24984H5.83332V7.58317H8.16666Z" fill="#18202A"/>
<path fill-rule="evenodd" clip-rule="evenodd" d="M10.5 11.0183C10.5 10.1723 11.4144 9.64968 12.1331 10.085L17.0464 13.0607C17.7445 13.4834 17.7445 14.5046 17.0464 14.9274L12.1331 17.9031C11.4144 18.3383 10.5 17.8158 10.5 16.9697V11.0183ZM12.25 12.2017V15.7864L15.2094 13.994L12.25 12.2017Z" fill="#18202A"/>
<path d="M8.16666 22.7498V20.4165H5.83332V22.7498H8.16666Z" fill="#18202A"/>
<path d="M12.8333 5.24984H10.5V7.58317H12.8333V5.24984Z" fill="#18202A"/>
<path d="M12.8333 20.4165H10.5V22.7498H12.8333V20.4165Z" fill="#18202A"/>
<path d="M17.5 5.24984H15.1667V7.58317H17.5V5.24984Z" fill="#18202A"/>
<path d="M22.1667 7.58317V5.24984H19.8333V7.58317H22.1667Z" fill="#18202A"/>
<path fill-rule="evenodd" clip-rule="evenodd" d="M22.1667 27.9998C25.3883 27.9998 28 25.3882 28 22.1665C28 18.9448 25.3883 16.3332 22.1667 16.3332C18.945 16.3332 16.3333 18.9448 16.3333 22.1665C16.3333 25.3882 18.945 27.9998 22.1667 27.9998ZM23.0417 19.5415C23.0417 19.0583 22.6499 18.6665 22.1667 18.6665C21.6834 18.6665 21.2917 19.0583 21.2917 19.5415V21.2915H19.5417C19.0584 21.2915 18.6667 21.6833 18.6667 22.1665C18.6667 22.6498 19.0584 23.0415 19.5417 23.0415H21.2917V24.7915C21.2917 25.2748 21.6834 25.6665 22.1667 25.6665C22.6499 25.6665 23.0417 25.2748 23.0417 24.7915V23.0415H24.7917C25.2749 23.0415 25.6667 22.6498 25.6667 22.1665C25.6667 21.6833 25.2749 21.2915 24.7917 21.2915H23.0417V19.5415Z" fill="#18202A"/>
</svg>
