<svg width="28" height="28" viewBox="0 0 28 28" fill="none" xmlns="http://www.w3.org/2000/svg">
<path fill-rule="evenodd" clip-rule="evenodd" d="M12.2146 1.71453C12.5563 1.37282 13.1104 1.37282 13.4521 1.71453L16.9521 5.21453C17.2938 5.55624 17.2938 6.11026 16.9521 6.45197L13.4521 9.95197C13.1104 10.2937 12.5563 10.2937 12.2146 9.95197C11.8729 9.61026 11.8729 9.05624 12.2146 8.71453L14.2209 6.70825H10.5C6.47293 6.70825 3.20834 9.97284 3.20834 13.9999C3.20834 17.3672 5.49076 20.2013 8.5929 21.0397C9.01426 21.1535 9.33334 21.5197 9.33334 21.9562C9.33334 22.4922 8.86038 22.9095 8.33974 22.7819C4.3893 21.8134 1.45834 18.249 1.45834 13.9999C1.45834 9.00634 5.50644 4.95825 10.5 4.95825H14.2209L12.2146 2.95197C11.8729 2.61026 11.8729 2.05624 12.2146 1.71453ZM13.7791 23.0416L15.7854 25.0479C16.1271 25.3896 16.1271 25.9436 15.7854 26.2853C15.4437 26.627 14.8897 26.627 14.548 26.2853L11.048 22.7853C10.7063 22.4436 10.7063 21.8896 11.048 21.5479L14.548 18.0479C14.8897 17.7062 15.4437 17.7062 15.7854 18.0479C16.1271 18.3896 16.1271 18.9436 15.7854 19.2853L13.7791 21.2916H17.5C21.5271 21.2916 24.7917 18.027 24.7917 13.9999C24.7917 10.6327 22.5093 7.79854 19.4071 6.96018C18.9858 6.84631 18.6667 6.48013 18.6667 6.04365C18.6667 5.5076 19.1396 5.09031 19.6603 5.21794C23.6107 6.1864 26.5417 9.75088 26.5417 13.9999C26.5417 18.9935 22.4936 23.0416 17.5 23.0416H13.7791Z" fill="#18202A"/>
</svg>
