<svg width="28" height="28" viewBox="0 0 28 28" fill="none" xmlns="http://www.w3.org/2000/svg">
<path fill-rule="evenodd" clip-rule="evenodd" d="M4.66669 4.08331H23.3334C24.2999 4.08331 25.0834 4.86681 25.0834 5.83331V9.33331C25.0834 10.2998 24.2999 11.0833 23.3334 11.0833H4.66669C3.70019 11.0833 2.91669 10.2998 2.91669 9.33331V5.83331C2.91669 4.86681 3.70019 4.08331 4.66669 4.08331ZM1.16669 5.83331C1.16669 3.90032 2.73369 2.33331 4.66669 2.33331H23.3334C25.2664 2.33331 26.8334 3.90032 26.8334 5.83331V9.33331C26.8334 11.2663 25.2664 12.8333 23.3334 12.8333H4.66669C2.73369 12.8333 1.16669 11.2663 1.16669 9.33331V5.83331ZM4.66669 16.9166H23.3334C24.2999 16.9166 25.0834 17.7001 25.0834 18.6666V22.1666C25.0834 23.1331 24.2999 23.9166 23.3334 23.9166H4.66669C3.70019 23.9166 2.91669 23.1331 2.91669 22.1666V18.6666C2.91669 17.7001 3.70019 16.9166 4.66669 16.9166ZM1.16669 18.6666C1.16669 16.7336 2.73369 15.1666 4.66669 15.1666H23.3334C25.2664 15.1666 26.8334 16.7336 26.8334 18.6666V22.1666C26.8334 24.0996 25.2664 25.6666 23.3334 25.6666H4.66669C2.73369 25.6666 1.16669 24.0996 1.16669 22.1666V18.6666Z" fill="#18202A"/>
</svg>
