<svg width="28" height="28" viewBox="0 0 28 28" fill="none" xmlns="http://www.w3.org/2000/svg">
<path fill-rule="evenodd" clip-rule="evenodd" d="M21.2758 2.34131C23.7247 2.48403 25.6666 4.51521 25.6666 6.99996V22.1666C25.6666 24.744 23.5773 26.8333 21 26.8333H6.99998C4.42265 26.8333 2.33331 24.744 2.33331 22.1666V6.99996C2.33331 4.51521 4.27524 2.48403 6.72419 2.34131C7.12648 1.63945 7.88301 1.16663 8.74998 1.16663H19.25C20.1169 1.16663 20.8735 1.63946 21.2758 2.34131ZM6.41665 4.14164C5.08534 4.41188 4.08331 5.5889 4.08331 6.99996V22.1666C4.08331 23.7775 5.38915 25.0833 6.99998 25.0833H21C22.6108 25.0833 23.9166 23.7775 23.9166 22.1666V6.99996C23.9166 5.5889 22.9146 4.41188 21.5833 4.14164V5.83329C21.5833 7.12196 20.5386 8.16663 19.25 8.16663H8.74998C7.46132 8.16663 6.41665 7.12196 6.41665 5.83329V4.14164ZM8.16665 3.49996C8.16665 3.17779 8.42781 2.91663 8.74998 2.91663H19.25C19.5721 2.91663 19.8333 3.17779 19.8333 3.49996V5.83329C19.8333 6.15546 19.5721 6.41663 19.25 6.41663H8.74998C8.42781 6.41663 8.16665 6.15546 8.16665 5.83329V3.49996ZM20.452 12.2853C20.7937 11.9436 20.7937 11.3896 20.452 11.0479C20.1103 10.7062 19.5563 10.7062 19.2146 11.0479L11.6666 18.5959L8.78536 15.7146C8.44366 15.3729 7.88964 15.3729 7.54793 15.7146C7.20622 16.0563 7.20622 16.6103 7.54793 16.952L11.0479 20.452C11.3896 20.7937 11.9437 20.7937 12.2854 20.452L20.452 12.2853Z" fill="#18202A"/>
</svg>
