<svg width="28" height="28" viewBox="0 0 28 28" fill="none" xmlns="http://www.w3.org/2000/svg">
<path fill-rule="evenodd" clip-rule="evenodd" d="M19.2854 8.7147C19.6271 9.05641 19.6271 9.61043 19.2854 9.95213L9.95204 19.2855C9.61033 19.6272 9.05631 19.6272 8.71461 19.2855C8.3729 18.9438 8.3729 18.3897 8.71461 18.048L18.0479 8.7147C18.3896 8.37299 18.9437 8.37299 19.2854 8.7147Z" fill="#18202A"/>
<path fill-rule="evenodd" clip-rule="evenodd" d="M8.71461 8.7147C9.05631 8.37299 9.61033 8.37299 9.95204 8.7147L19.2854 18.048C19.6271 18.3897 19.6271 18.9438 19.2854 19.2855C18.9437 19.6272 18.3896 19.6272 18.0479 19.2855L8.71461 9.95213C8.3729 9.61043 8.3729 9.05641 8.71461 8.7147Z" fill="#18202A"/>
<path fill-rule="evenodd" clip-rule="evenodd" d="M14 25.0834C20.1211 25.0834 25.0833 20.1212 25.0833 14.0001C25.0833 7.87893 20.1211 2.91675 14 2.91675C7.87883 2.91675 2.91666 7.87893 2.91666 14.0001C2.91666 20.1212 7.87883 25.0834 14 25.0834ZM26.8333 14.0001C26.8333 21.0877 21.0876 26.8334 14 26.8334C6.91234 26.8334 1.16666 21.0877 1.16666 14.0001C1.16666 6.91243 6.91234 1.16675 14 1.16675C21.0876 1.16675 26.8333 6.91243 26.8333 14.0001Z" fill="#18202A"/>
</svg>
