<svg width="28" height="28" viewBox="0 0 28 28" fill="none" xmlns="http://www.w3.org/2000/svg">
<path fill-rule="evenodd" clip-rule="evenodd" d="M19.25 9.33366V8.16699C19.25 5.2675 16.8995 2.91699 14 2.91699C11.1005 2.91699 8.75001 5.2675 8.75001 8.16699V9.33366H19.25ZM21 8.16699V9.33366C23.5773 9.33366 25.6667 11.423 25.6667 14.0003V22.167C25.6667 24.7443 23.5773 26.8337 21 26.8337H7.00001C4.42268 26.8337 2.33334 24.7443 2.33334 22.167V14.0003C2.33334 11.423 4.42268 9.33366 7.00001 9.33366V8.16699C7.00001 4.301 10.134 1.16699 14 1.16699C17.866 1.16699 21 4.301 21 8.16699ZM7.00001 11.0837C5.38918 11.0837 4.08334 12.3895 4.08334 14.0003V22.167C4.08334 23.7778 5.38918 25.0837 7.00001 25.0837H21C22.6108 25.0837 23.9167 23.7778 23.9167 22.167V14.0003C23.9167 12.3895 22.6108 11.0837 21 11.0837H7.00001ZM8.75001 18.0837C8.75001 18.8891 8.09709 19.542 7.29168 19.542C6.48626 19.542 5.83334 18.8891 5.83334 18.0837C5.83334 17.2782 6.48626 16.6253 7.29168 16.6253C8.09709 16.6253 8.75001 17.2782 8.75001 18.0837ZM13.2222 18.0837C13.2222 18.8891 12.5693 19.542 11.7639 19.542C10.9585 19.542 10.3056 18.8891 10.3056 18.0837C10.3056 17.2782 10.9585 16.6253 11.7639 16.6253C12.5693 16.6253 13.2222 17.2782 13.2222 18.0837ZM16.2361 19.542C17.0415 19.542 17.6945 18.8891 17.6945 18.0837C17.6945 17.2782 17.0415 16.6253 16.2361 16.6253C15.4307 16.6253 14.7778 17.2782 14.7778 18.0837C14.7778 18.8891 15.4307 19.542 16.2361 19.542ZM22.1667 18.0837C22.1667 18.8891 21.5138 19.542 20.7083 19.542C19.9029 19.542 19.25 18.8891 19.25 18.0837C19.25 17.2782 19.9029 16.6253 20.7083 16.6253C21.5138 16.6253 22.1667 17.2782 22.1667 18.0837Z" fill="#18202A"/>
</svg>
