<svg width="28" height="28" viewBox="0 0 28 28" fill="none" xmlns="http://www.w3.org/2000/svg">
<path d="M4.66671 5.83341C4.66671 5.18908 4.14437 4.66675 3.50004 4.66675C2.85571 4.66675 2.33337 5.18908 2.33337 5.83341V22.1667C2.33337 22.8111 2.85571 23.3334 3.50004 23.3334C4.14437 23.3334 4.66671 22.8111 4.66671 22.1667V15.1667L14 15.1667V22.1667C14 22.8111 14.5224 23.3334 15.1667 23.3334C15.811 23.3334 16.3334 22.8111 16.3334 22.1667V5.83341C16.3334 5.18908 15.811 4.66675 15.1667 4.66675C14.5224 4.66675 14 5.18908 14 5.83341V12.8334H4.66671V5.83341Z" fill="#18202A"/>
<path d="M21 15.1667C21 14.8067 21.4692 14.0001 22.75 14.0001C23.9386 14.0001 24.5 14.7243 24.5 15.4584C24.5 15.7376 24.4598 16.0548 24.2346 16.4803C23.9965 16.9299 23.5262 17.5473 22.5801 18.3591L19.0865 21.2705C18.7091 21.5849 18.5692 22.1021 18.7364 22.5639C18.9036 23.0258 19.3422 23.3334 19.8334 23.3334H25.6667C26.311 23.3334 26.8334 22.8111 26.8334 22.1667C26.8334 21.5224 26.311 21.0001 25.6667 21.0001H23.0558L24.0803 20.1464L24.0926 20.1359C25.1842 19.2002 25.879 18.361 26.2967 17.572C26.7278 16.7579 26.8334 16.0542 26.8334 15.4584C26.8334 13.2758 25.0614 11.6667 22.75 11.6667C20.5309 11.6667 18.6667 13.1935 18.6667 15.1667C18.6667 15.8111 19.189 16.3334 19.8334 16.3334C20.4777 16.3334 21 15.8111 21 15.1667Z" fill="#18202A"/>
</svg>
