<svg width="28" height="28" viewBox="0 0 28 28" fill="none" xmlns="http://www.w3.org/2000/svg">
<path fill-rule="evenodd" clip-rule="evenodd" d="M18.6667 2.9165H9.33332C7.72249 2.9165 6.41666 4.22234 6.41666 5.83317V24.4998L11.55 20.6498C13.0018 19.5609 14.9981 19.5609 16.45 20.6498L21.5833 24.4998V5.83317C21.5833 4.22234 20.2775 2.9165 18.6667 2.9165ZM9.33332 1.1665C6.75599 1.1665 4.66666 3.25584 4.66666 5.83317V25.6665C4.66666 26.6279 5.76421 27.1767 6.53332 26.5998L12.6 22.0498C13.4296 21.4276 14.5704 21.4276 15.4 22.0498L21.4667 26.5998C22.2358 27.1767 23.3333 26.6279 23.3333 25.6665V5.83317C23.3333 3.25584 21.244 1.1665 18.6667 1.1665H9.33332Z" fill="#18202A"/>
<path d="M5.83332 6.99984H22.1667V8.74984H5.83332V6.99984Z" fill="#18202A"/>
</svg>
