<svg width="28" height="28" viewBox="0 0 28 28" fill="none" xmlns="http://www.w3.org/2000/svg">
<g clip-path="url(#clip0_2294_9556)">
<path fill-rule="evenodd" clip-rule="evenodd" d="M2.07283 0.421441C1.55664 -0.094742 0.768519 -0.143516 0.312501 0.312501C-0.143516 0.768519 -0.094742 1.55664 0.421441 2.07283L1.81224 3.46363C1.40204 4.15819 1.16667 4.96827 1.16667 5.83333V16.3333C1.16667 18.9107 3.256 21 5.83333 21H6.4697L5.79324 24.2352C5.58541 25.2292 6.65864 25.9958 7.53147 25.4768L15.0606 21H19.3486L22.4272 24.0786C22.9434 24.5947 23.7315 24.6435 24.1875 24.1875C24.6435 23.7315 24.5947 22.9434 24.0786 22.4272L2.07283 0.421441ZM13.5153 15.1667L11.1819 12.8333H8.16667C7.52234 12.8333 7 13.3557 7 14C7 14.6443 7.52234 15.1667 8.16667 15.1667H13.5153ZM26.8333 16.3333C26.8333 17.8486 26.1111 19.1952 24.9922 20.0477L14.2778 9.33333H19.8333C20.4777 9.33333 21 8.811 21 8.16667C21 7.52233 20.4777 7 19.8333 7H11.9444L6.11111 1.16667H22.1667C24.744 1.16667 26.8333 3.256 26.8333 5.83333V16.3333Z" fill="#18202A"/>
</g>
<defs>
<clipPath id="clip0_2294_9556">
<rect width="28" height="28" fill="white"/>
</clipPath>
</defs>
</svg>
