<svg width="28" height="28" viewBox="0 0 28 28" fill="none" xmlns="http://www.w3.org/2000/svg">
<g clip-path="url(#clip0_2294_9019)">
<path fill-rule="evenodd" clip-rule="evenodd" d="M1.16663 7.00033C1.16663 3.77867 3.7783 1.16699 6.99996 1.16699H21C24.2216 1.16699 26.8333 3.77866 26.8333 7.00033V15.464C25.5105 14.5414 23.9018 14.0003 22.1667 14.0003C17.6564 14.0003 14 17.6566 14 22.1669C14 23.9021 14.5411 25.5108 15.4639 26.8337H6.99996C3.7783 26.8337 1.16663 24.222 1.16663 21.0003V7.00033ZM8.16663 3.50033V5.83366H5.83329V3.50033H8.16663ZM12.1331 10.0855C11.4144 9.65017 10.5 10.1728 10.5 11.0188V16.9702C10.5 17.8162 11.4144 18.3388 12.1331 17.9035L17.0464 14.9279C17.7445 14.5051 17.7445 13.4839 17.0464 13.0611L12.1331 10.0855ZM5.83329 22.167V24.5003H8.16663V22.167H5.83329ZM10.5 3.50033H12.8333V5.83366H10.5V3.50033ZM12.8333 22.167H10.5V24.5003H12.8333V22.167ZM15.1666 3.50033H17.5V5.83366H15.1666V3.50033ZM22.1666 3.50033V5.83366H19.8333V3.50033H22.1666Z" fill="#18202A"/>
<path fill-rule="evenodd" clip-rule="evenodd" d="M22.1668 28.0003C25.3884 28.0003 28.0001 25.3887 28.0001 22.167C28.0001 18.9453 25.3884 16.3337 22.1668 16.3337C18.9451 16.3337 16.3334 18.9453 16.3334 22.167C16.3334 25.3887 18.9451 28.0003 22.1668 28.0003ZM21.0002 19.8336C21.0002 19.1893 21.5225 18.6669 22.1669 18.6669C22.8112 18.6669 23.3335 19.1893 23.3335 19.8336V21.0002H24.5002C25.1445 21.0002 25.6668 21.5226 25.6668 22.1669C25.6668 22.8112 25.1445 23.3336 24.5002 23.3336H23.3335V24.5003C23.3335 25.1446 22.8112 25.6669 22.1669 25.6669C21.5225 25.6669 21.0002 25.1446 21.0002 24.5003V23.3336H19.8335C19.1892 23.3336 18.6668 22.8112 18.6668 22.1669C18.6668 21.5226 19.1892 21.0002 19.8335 21.0002H21.0002V19.8336Z" fill="#18202A"/>
</g>
<defs>
<clipPath id="clip0_2294_9019">
<rect width="28" height="28" fill="white"/>
</clipPath>
</defs>
</svg>
