<svg width="28" height="28" viewBox="0 0 28 28" fill="none" xmlns="http://www.w3.org/2000/svg">
<g clip-path="url(#clip0_2294_13083)">
<path fill-rule="evenodd" clip-rule="evenodd" d="M2.94052 13.6392V13.5793L2.93642 13.5196C2.56027 8.03 7.75355 2.9165 14.0119 2.9165C20.2374 2.9165 25.0833 7.14032 25.0833 13.6392C25.0833 14.1388 25.0472 14.6338 24.9763 15.1207C25.5554 15.3518 26.0993 15.6523 26.5978 16.0118C26.7533 15.2396 26.8333 14.4455 26.8333 13.6392C26.8333 6.0665 21.093 1.1665 14.0119 1.1665C6.93086 1.1665 0.732667 6.95741 1.19052 13.6392C1.19052 17.6319 2.78625 20.7578 5.33288 22.8209L5.578 25.7624C5.64526 26.5695 6.49421 27.0642 7.22954 26.7248L10.4098 25.257C11.5525 25.5276 12.7613 25.6665 14.0119 25.6665C14.4869 25.6665 14.9517 25.6455 15.4057 25.6047C15.1326 25.0687 14.9213 24.4958 14.7814 23.8956C14.5287 23.9095 14.2722 23.9165 14.0119 23.9165C12.8906 23.9165 11.8174 23.7919 10.8129 23.5541L10.225 23.4149L7.25276 24.7867L7.01481 21.9313L6.4345 21.4612C4.31528 19.7443 2.94052 17.1267 2.94052 13.6392ZM10.5 13.4165C10.5 14.383 9.71651 15.1665 8.75001 15.1665C7.78351 15.1665 7.00001 14.383 7.00001 13.4165C7.00001 12.45 7.78351 11.6665 8.75001 11.6665C9.71651 11.6665 10.5 12.45 10.5 13.4165ZM14 15.1665C14.9665 15.1665 15.75 14.383 15.75 13.4165C15.75 12.45 14.9665 11.6665 14 11.6665C13.0335 11.6665 12.25 12.45 12.25 13.4165C12.25 14.383 13.0335 15.1665 14 15.1665ZM19.25 15.1665C20.2165 15.1665 21 14.383 21 13.4165C21 12.45 20.2165 11.6665 19.25 11.6665C18.2835 11.6665 17.5 12.45 17.5 13.4165C17.5 14.383 18.2835 15.1665 19.25 15.1665ZM28 22.1665C28 25.3882 25.3883 27.9998 22.1667 27.9998C18.945 27.9998 16.3333 25.3882 16.3333 22.1665C16.3333 18.9448 18.945 16.3332 22.1667 16.3332C25.3883 16.3332 28 18.9448 28 22.1665ZM22.1667 18.6665C22.6499 18.6665 23.0417 19.0583 23.0417 19.5415V21.2915H24.7917C25.2749 21.2915 25.6667 21.6833 25.6667 22.1665C25.6667 22.6498 25.2749 23.0415 24.7917 23.0415H23.0417V24.7915C23.0417 25.2748 22.6499 25.6665 22.1667 25.6665C21.6834 25.6665 21.2917 25.2748 21.2917 24.7915V23.0415H19.5417C19.0584 23.0415 18.6667 22.6498 18.6667 22.1665C18.6667 21.6833 19.0584 21.2915 19.5417 21.2915H21.2917V19.5415C21.2917 19.0583 21.6834 18.6665 22.1667 18.6665Z" fill="#18202A"/>
</g>
<defs>
<clipPath id="clip0_2294_13083">
<rect width="28" height="28" fill="white"/>
</clipPath>
</defs>
</svg>
