<svg width="28" height="28" viewBox="0 0 28 28" fill="none" xmlns="http://www.w3.org/2000/svg">
<path fill-rule="evenodd" clip-rule="evenodd" d="M20.3204 3.5C21.1713 3.5 21.9548 3.96325 22.3649 4.70886L26.4534 12.1425C26.6998 12.5906 26.7922 13.1073 26.7164 13.6131L25.3814 22.5128C25.2101 23.655 24.2289 24.5 23.0739 24.5H4.92611C3.77112 24.5 2.78992 23.655 2.61859 22.5128L1.28363 13.6131C1.20776 13.1073 1.30017 12.5906 1.54665 12.1425L5.63513 4.70886C6.04522 3.96324 6.82869 3.5 7.67964 3.5H20.3204ZM3.26302 12.8333H9.33334C9.97767 12.8333 10.481 13.37 10.6918 13.9789C11.1662 15.3493 12.4682 16.3333 14 16.3333C15.5318 16.3333 16.8338 15.3493 17.3082 13.9789C17.519 13.37 18.0223 12.8333 18.6667 12.8333H24.737L20.8728 5.55966C20.7716 5.36911 20.5735 5.25 20.3577 5.25H7.64231C7.42654 5.25 7.22839 5.36911 7.12716 5.55966L3.26302 12.8333ZM14 18.0833C16.14 18.0833 17.9809 16.803 18.7985 14.9665C18.8991 14.7406 19.1166 14.5833 19.3638 14.5833H24.8013L23.6508 22.2532C23.6079 22.5388 23.3626 22.75 23.0739 22.75H4.92611C4.63736 22.75 4.39206 22.5388 4.34923 22.2532L3.19875 14.5833H8.63622C8.88345 14.5833 9.10091 14.7406 9.20146 14.9665C10.0191 16.803 11.86 18.0833 14 18.0833Z" fill="#18202A"/>
</svg>
