<svg width="28" height="28" viewBox="0 0 28 28" fill="none" xmlns="http://www.w3.org/2000/svg">
<path fill-rule="evenodd" clip-rule="evenodd" d="M2.33334 5.83301C2.33334 3.90001 3.90035 2.33301 5.83334 2.33301H8.16668C8.64993 2.33301 9.04168 2.72476 9.04168 3.20801C9.04168 3.69126 8.64993 4.08301 8.16668 4.08301H5.83334C4.86685 4.08301 4.08334 4.86651 4.08334 5.83301V8.16634C4.08334 8.64959 3.69159 9.04134 3.20834 9.04134C2.72509 9.04134 2.33334 8.64959 2.33334 8.16634V5.83301ZM9.33334 12.833C8.8501 12.833 8.45834 12.4413 8.45834 11.958V10.208C8.45834 9.72476 8.8501 9.33301 9.33334 9.33301C9.81659 9.33301 10.2083 9.72476 10.2083 10.208V11.958C10.2083 12.4413 9.81659 12.833 9.33334 12.833ZM13.125 10.208V13.9997C13.125 14.1608 12.9945 14.2913 12.8333 14.2913H12.5417C12.0584 14.2913 11.6667 14.6831 11.6667 15.1663C11.6667 15.6496 12.0584 16.0413 12.5417 16.0413H12.8333C13.9609 16.0413 14.875 15.1273 14.875 13.9997V10.208C14.875 9.72476 14.4832 9.33301 14 9.33301C13.5168 9.33301 13.125 9.72476 13.125 10.208ZM18.2281 18.1811C17.96 17.779 17.4167 17.6703 17.0147 17.9384C16.8341 18.0587 16.4928 18.2538 16.0509 18.4502C15.3329 18.7693 14.6248 18.9581 14 18.9581C13.3752 18.9581 12.6671 18.7693 11.9491 18.4502C11.5072 18.2538 11.1659 18.0587 10.9854 17.9384C10.5833 17.6703 10.04 17.779 9.77197 18.1811C9.50391 18.5832 9.61256 19.1264 10.0147 19.3945C10.2716 19.5658 10.696 19.8083 11.2384 20.0494C12.161 20.4594 13.0936 20.7081 14 20.7081C14.9064 20.7081 15.839 20.4594 16.7616 20.0494C17.1491 19.8772 17.4763 19.7042 17.7253 19.5571L17.9854 19.3945C18.3875 19.1264 18.4961 18.5832 18.2281 18.1811ZM17.7917 11.958C17.7917 12.4413 18.1834 12.833 18.6667 12.833C19.1499 12.833 19.5417 12.4413 19.5417 11.958V10.208C19.5417 9.72476 19.1499 9.33301 18.6667 9.33301C18.1834 9.33301 17.7917 9.72476 17.7917 10.208V11.958ZM5.83334 25.6663C3.90035 25.6663 2.33334 24.0993 2.33334 22.1663V19.833C2.33334 19.3498 2.72509 18.958 3.20834 18.958C3.69159 18.958 4.08334 19.3498 4.08334 19.833V22.1663C4.08334 23.1328 4.86685 23.9163 5.83334 23.9163H8.16668C8.64993 23.9163 9.04168 24.3081 9.04168 24.7913C9.04168 25.2746 8.64993 25.6663 8.16668 25.6663H5.83334ZM25.6667 5.83301C25.6667 3.90001 24.0997 2.33301 22.1667 2.33301H19.8333C19.3501 2.33301 18.9583 2.72476 18.9583 3.20801C18.9583 3.69126 19.3501 4.08301 19.8333 4.08301H22.1667C23.1332 4.08301 23.9167 4.86651 23.9167 5.83301V8.16634C23.9167 8.64959 24.3084 9.04134 24.7917 9.04134C25.2749 9.04134 25.6667 8.64959 25.6667 8.16634V5.83301ZM22.1667 25.6663C24.0997 25.6663 25.6667 24.0993 25.6667 22.1663V19.833C25.6667 19.3498 25.2749 18.958 24.7917 18.958C24.3084 18.958 23.9167 19.3498 23.9167 19.833V22.1663C23.9167 23.1328 23.1332 23.9163 22.1667 23.9163H19.8333C19.3501 23.9163 18.9583 24.3081 18.9583 24.7913C18.9583 25.2746 19.3501 25.6663 19.8333 25.6663H22.1667Z" fill="#18202A"/>
</svg>
