<svg width="28" height="28" viewBox="0 0 28 28" fill="none" xmlns="http://www.w3.org/2000/svg">
<path d="M18.1187 13.4521C18.4604 13.1103 18.4604 12.5563 18.1187 12.2146C17.777 11.8729 17.223 11.8729 16.8813 12.2146L14 15.0959L11.1187 12.2146C10.777 11.8729 10.223 11.8729 9.88126 12.2146C9.53955 12.5563 9.53955 13.1103 9.88126 13.4521L12.7625 16.3333L9.88126 19.2146C9.53955 19.5563 9.53955 20.1103 9.88126 20.4521C10.223 20.7938 10.777 20.7938 11.1187 20.4521L14 17.5708L16.8813 20.4521C17.223 20.7938 17.777 20.7938 18.1187 20.4521C18.4604 20.1103 18.4604 19.5563 18.1187 19.2146L15.2374 16.3333L18.1187 13.4521Z" fill="#18202A"/>
<path fill-rule="evenodd" clip-rule="evenodd" d="M8.16665 3.5C6.32984 3.5 4.8235 4.91493 4.67814 6.7143C4.02214 7.29629 3.58633 8.12099 3.51147 9.04764C2.78876 9.68881 2.33331 10.6245 2.33331 11.6667V21C2.33331 22.933 3.90032 24.5 5.83331 24.5H22.1666C24.0996 24.5 25.6666 22.933 25.6666 21V11.6667C25.6666 10.6245 25.2112 9.6888 24.4885 9.04763C24.4136 8.12098 23.9778 7.29629 23.3218 6.7143C23.1765 4.91493 21.6701 3.5 19.8333 3.5H8.16665ZM8.16665 5.25C7.64703 5.25 7.1803 5.47647 6.85979 5.83609C6.90629 5.83426 6.95303 5.83333 6.99998 5.83333H21C21.0469 5.83333 21.0937 5.83426 21.1402 5.83609C20.8197 5.47647 20.3529 5.25 19.8333 5.25H8.16665ZM5.83331 8.16667C5.78636 8.16667 5.73963 8.16759 5.69312 8.16942C6.01363 7.8098 6.48036 7.58333 6.99998 7.58333H21C21.5196 7.58333 21.9863 7.8098 22.3068 8.16942C22.2603 8.16759 22.2136 8.16667 22.1666 8.16667H5.83331ZM22.1666 9.91667C23.1331 9.91667 23.9166 10.7002 23.9166 11.6667V21C23.9166 21.9665 23.1331 22.75 22.1666 22.75H5.83331C4.86681 22.75 4.08331 21.9665 4.08331 21V11.6667C4.08331 10.7002 4.86682 9.91667 5.83331 9.91667H22.1666Z" fill="#18202A"/>
</svg>
