<svg width="28" height="28" viewBox="0 0 28 28" fill="none" xmlns="http://www.w3.org/2000/svg">
<path fill-rule="evenodd" clip-rule="evenodd" d="M12.0191 26.1726C11.4466 25.7438 11.0285 25.141 10.8271 24.4546L12.5063 23.9619C12.6013 24.2857 12.7985 24.5699 13.0683 24.772C13.3381 24.9741 13.666 25.0833 14.0029 25.0833C14.3398 25.0833 14.6677 24.9741 14.9375 24.772C15.2074 24.5699 15.4046 24.2857 15.4996 23.9619L17.1788 24.4546C16.9774 25.141 16.5592 25.7438 15.9867 26.1726C15.4142 26.6014 14.7182 26.8333 14.0029 26.8333C13.2876 26.8333 12.5916 26.6014 12.0191 26.1726Z" fill="#18202A"/>
<path fill-rule="evenodd" clip-rule="evenodd" d="M14 1.45825C14.4833 1.45825 14.875 1.85 14.875 2.33325V3.49992C14.875 3.98317 14.4833 4.37492 14 4.37492C13.5168 4.37492 13.125 3.98317 13.125 3.49992V2.33325C13.125 1.85 13.5168 1.45825 14 1.45825Z" fill="#18202A"/>
<path fill-rule="evenodd" clip-rule="evenodd" d="M7.56381 6.10341C5.85682 7.7704 4.89784 10.0313 4.89784 12.3888C4.89784 16.7989 3.81149 19.4019 2.91517 20.799C2.60949 21.2755 2.98961 22.1666 3.55571 22.1666H24.4443C25.0104 22.1666 25.3905 21.2755 25.0849 20.799C24.1885 19.4019 23.1022 16.7989 23.1022 12.3888C23.1022 10.0313 22.1432 7.7704 20.4362 6.10341C18.7292 4.43642 16.4141 3.49992 14 3.49992C11.586 3.49992 9.27079 4.43642 7.56381 6.10341ZM14 5.24992C12.0369 5.24992 10.1623 6.01188 8.78649 7.35543C7.41211 8.6976 6.64784 10.509 6.64784 12.3888C6.64784 16.0523 5.94336 18.6432 5.11544 20.4166H22.8846C22.0567 18.6432 21.3522 16.0523 21.3522 12.3888C21.3522 10.509 20.5879 8.6976 19.2135 7.35543C17.8377 6.01188 15.9631 5.24992 14 5.24992Z" fill="#18202A"/>
</svg>
