<svg width="28" height="28" viewBox="0 0 28 28" fill="none" xmlns="http://www.w3.org/2000/svg">
<path fill-rule="evenodd" clip-rule="evenodd" d="M2.30402 14.0296L13.9707 2.36297C14.7365 1.5972 15.7751 1.16699 16.858 1.16699H23.9167C25.5275 1.16699 26.8333 2.47283 26.8333 4.08366V11.1423C26.8333 12.2253 26.4031 13.2639 25.6374 14.0296L13.9707 25.6963C12.3761 27.2909 9.79062 27.2909 8.19598 25.6963L2.30402 19.8043C0.709378 18.2097 0.709381 15.6243 2.30402 14.0296ZM20.4167 9.33366C21.3832 9.33366 22.1667 8.55016 22.1667 7.58366C22.1667 6.61716 21.3832 5.83366 20.4167 5.83366C19.4502 5.83366 18.6667 6.61716 18.6667 7.58366C18.6667 8.55016 19.4502 9.33366 20.4167 9.33366Z" fill="#18202A"/>
</svg>
