<svg width="28" height="28" viewBox="0 0 28 28" fill="none" xmlns="http://www.w3.org/2000/svg">
<g clip-path="url(#clip0_2294_13696)">
<path fill-rule="evenodd" clip-rule="evenodd" d="M18.6667 6.27116C18.6667 9.91699 17.1111 12.8337 14 12.8337C10.8889 12.8337 9.33334 9.91699 9.33334 6.27116C9.33334 3.35449 10.8889 1.16699 14 1.16699C17.1111 1.16699 18.6667 3.35449 18.6667 6.27116ZM16.9167 6.27116C16.9167 7.87895 16.5686 9.14943 16.037 9.95928C15.5525 10.6974 14.913 11.0837 14 11.0837C13.087 11.0837 12.4475 10.6974 11.963 9.95928C11.4314 9.14943 11.0833 7.87895 11.0833 6.27116C11.0833 5.10468 11.3949 4.2726 11.8312 3.76128C12.2338 3.28949 12.887 2.91699 14 2.91699C15.113 2.91699 15.7662 3.28949 16.1688 3.76128C16.6051 4.2726 16.9167 5.10468 16.9167 6.27116ZM15.1505 25.0499C15.3984 25.6525 15.7217 26.2162 16.1086 26.7291C15.4151 26.7983 14.7117 26.8337 14 26.8337C12.1947 26.8337 10.4426 26.6059 8.77091 26.1774C7.34869 25.813 6.14331 24.8603 5.48317 23.5489C5.28748 23.1602 5.10498 22.7637 4.93626 22.36C4.21933 20.6446 4.50505 18.6377 5.83254 17.3361C7.93699 15.2727 10.8199 14.0003 14 14.0003C15.8537 14.0003 17.6063 14.4326 19.1627 15.2019C18.4981 15.4889 17.8827 15.8683 17.3327 16.3238C16.2914 15.9524 15.1696 15.7503 14 15.7503C11.2963 15.7503 8.84831 16.83 7.05774 18.5857C6.30659 19.3222 6.07326 20.5423 6.55091 21.6851C6.70372 22.0508 6.86901 22.4099 7.04628 22.7621C7.47367 23.6111 8.26111 24.2402 9.20536 24.4822C10.7363 24.8746 12.3425 25.0837 14 25.0837C14.3864 25.0837 14.77 25.0723 15.1505 25.0499ZM28 22.167C28 25.3887 25.3883 28.0003 22.1667 28.0003C18.945 28.0003 16.3333 25.3887 16.3333 22.167C16.3333 18.9453 18.945 16.3337 22.1667 16.3337C25.3883 16.3337 28 18.9453 28 22.167ZM22.1667 17.8503C21.5139 17.8503 20.9635 17.8952 20.5433 17.9475C19.568 18.0689 18.9583 18.9118 18.9583 19.7886L18.9583 20.0422C18.9583 20.5869 19.1747 21.1092 19.5598 21.4943C19.9015 21.8361 20.4556 21.8361 20.7973 21.4943C21.139 21.1526 21.139 20.5986 20.7973 20.2569C20.7403 20.2 20.7083 20.1227 20.7083 20.0422L20.7083 19.7886C20.7083 19.7416 20.7242 19.7116 20.7355 19.6979C20.7408 19.6914 20.745 19.6886 20.7468 19.6876C20.7482 19.6868 20.7514 19.6851 20.7596 19.6841C21.1159 19.6397 21.5936 19.6003 22.1667 19.6003C22.6951 19.6003 23.1426 19.6338 23.4885 19.6738C23.5238 19.6779 23.5498 19.6921 23.5733 19.7205C23.5997 19.7525 23.625 19.8075 23.625 19.8821C23.625 20.319 23.3704 20.7158 22.9732 20.8978L22.3324 21.1915C21.6983 21.4821 21.2917 22.1157 21.2917 22.8133C21.2917 23.2966 21.6834 23.6883 22.1667 23.6883C22.6499 23.6883 23.0417 23.2966 23.0417 22.8133C23.0417 22.8 23.0494 22.7879 23.0615 22.7824L23.7023 22.4887C24.7215 22.0216 25.375 21.0033 25.375 19.8821C25.375 18.9515 24.7274 18.0555 23.6896 17.9354C23.2836 17.8885 22.7687 17.8503 22.1667 17.8503ZM22.1667 26.8337C22.811 26.8337 23.3333 26.3113 23.3333 25.667C23.3333 25.0227 22.811 24.5003 22.1667 24.5003C21.5223 24.5003 21 25.0227 21 25.667C21 26.3113 21.5223 26.8337 22.1667 26.8337Z" fill="#18202A"/>
</g>
<defs>
<clipPath id="clip0_2294_13696">
<rect width="28" height="28" fill="white"/>
</clipPath>
</defs>
</svg>
