<svg width="28" height="28" viewBox="0 0 28 28" fill="none" xmlns="http://www.w3.org/2000/svg">
<path fill-rule="evenodd" clip-rule="evenodd" d="M6.99999 6.41699H10.5C10.8222 6.41699 11.0833 6.67816 11.0833 7.00033V21.0003C11.0833 21.3225 10.8222 21.5837 10.5 21.5837H6.99999C6.67782 21.5837 6.41666 21.3225 6.41666 21.0003V7.00033C6.41666 6.67816 6.67782 6.41699 6.99999 6.41699ZM4.66666 7.00033C4.66666 5.71166 5.71133 4.66699 6.99999 4.66699H10.5C11.7887 4.66699 12.8333 5.71166 12.8333 7.00033V21.0003C12.8333 22.289 11.7887 23.3337 10.5 23.3337H6.99999C5.71133 23.3337 4.66666 22.289 4.66666 21.0003V7.00033ZM17.5 6.41699H21C21.3222 6.41699 21.5833 6.67816 21.5833 7.00033V21.0003C21.5833 21.3225 21.3222 21.5837 21 21.5837H17.5C17.1778 21.5837 16.9167 21.3225 16.9167 21.0003V7.00033C16.9167 6.67816 17.1778 6.41699 17.5 6.41699ZM15.1667 7.00033C15.1667 5.71166 16.2113 4.66699 17.5 4.66699H21C22.2887 4.66699 23.3333 5.71166 23.3333 7.00033V21.0003C23.3333 22.289 22.2887 23.3337 21 23.3337H17.5C16.2113 23.3337 15.1667 22.289 15.1667 21.0003V7.00033Z" fill="#18202A"/>
</svg>
