<svg width="28" height="28" viewBox="0 0 28 28" fill="none" xmlns="http://www.w3.org/2000/svg">
<path d="M5.83334 3.5C3.90034 3.5 2.33334 5.067 2.33334 7V8.16667C2.33334 10.0997 3.90034 11.6667 5.83334 11.6667H7C8.933 11.6667 10.5 10.0997 10.5 8.16667V7C10.5 6.66636 10.4533 6.34363 10.3661 6.03798L7.03539 9.36872C6.69368 9.71043 6.13966 9.71043 5.79795 9.36872L4.04795 7.61872C3.70624 7.27701 3.70624 6.72299 4.04795 6.38128C4.38966 6.03957 4.94368 6.03957 5.28539 6.38128L6.41667 7.51256L9.43924 4.48999C8.80888 3.8773 7.9485 3.5 7 3.5H5.83334Z" fill="#18202A"/>
<path d="M9.43924 17.3233C8.80888 16.7106 7.9485 16.3333 7 16.3333H5.83334C3.90034 16.3333 2.33334 17.9003 2.33334 19.8333V21C2.33334 22.933 3.90034 24.5 5.83334 24.5H7C8.933 24.5 10.5 22.933 10.5 21V19.8333C10.5 19.4997 10.4533 19.177 10.3661 18.8713L7.03539 22.2021C6.69368 22.5438 6.13966 22.5438 5.79795 22.2021L4.04795 20.4521C3.70624 20.1103 3.70624 19.5563 4.04795 19.2146C4.38966 18.8729 4.94368 18.8729 5.28539 19.2146L6.41667 20.3459L9.43924 17.3233Z" fill="#18202A"/>
<path d="M14 4.66667C13.3557 4.66667 12.8333 5.189 12.8333 5.83333C12.8333 6.47767 13.3557 7 14 7H24.5C25.1443 7 25.6667 6.47767 25.6667 5.83333C25.6667 5.189 25.1443 4.66667 24.5 4.66667H14Z" fill="#18202A"/>
<path d="M12.8333 9.33333C12.8333 8.689 13.3557 8.16667 14 8.16667H24.5C25.1443 8.16667 25.6667 8.689 25.6667 9.33333C25.6667 9.97767 25.1443 10.5 24.5 10.5H14C13.3557 10.5 12.8333 9.97767 12.8333 9.33333Z" fill="#18202A"/>
<path d="M14 17.5C13.3557 17.5 12.8333 18.0223 12.8333 18.6667C12.8333 19.311 13.3557 19.8333 14 19.8333H24.5C25.1443 19.8333 25.6667 19.311 25.6667 18.6667C25.6667 18.0223 25.1443 17.5 24.5 17.5H14Z" fill="#18202A"/>
<path d="M12.8333 22.1667C12.8333 21.5223 13.3557 21 14 21H24.5C25.1443 21 25.6667 21.5223 25.6667 22.1667C25.6667 22.811 25.1443 23.3333 24.5 23.3333H14C13.3557 23.3333 12.8333 22.811 12.8333 22.1667Z" fill="#18202A"/>
</svg>
