<svg width="28" height="28" viewBox="0 0 28 28" fill="none" xmlns="http://www.w3.org/2000/svg">
<g clip-path="url(#clip0_3916_8793)">
<path d="M19.5771 15.529C19.7412 15.3649 19.8333 15.1424 19.8333 14.9103C19.8333 14.6783 19.7412 14.4557 19.5771 14.2916L16.3687 11.0833C16.027 10.7416 15.473 10.7416 15.1313 11.0833C14.7896 11.425 14.7896 11.979 15.1313 12.3207L16.8104 13.9998L9.04169 13.9998C8.55844 13.9998 8.16669 14.3916 8.16669 14.8748C8.16669 15.3581 8.55844 15.7498 9.04169 15.7498L16.8814 15.7498L15.1313 17.4999C14.7896 17.8416 14.7896 18.3957 15.1313 18.7374C15.473 19.0791 16.027 19.0791 16.3687 18.7374L19.5771 15.529Z" fill="#18202A"/>
<path fill-rule="evenodd" clip-rule="evenodd" d="M5.83335 3.5C3.25602 3.5 1.16669 5.58934 1.16669 8.16667V19.8333C1.16669 22.4107 3.25602 24.5 5.83335 24.5H22.1667C24.744 24.5 26.8334 22.4107 26.8334 19.8333V10.5C26.8334 7.92267 24.744 5.83333 22.1667 5.83333H14L12.6918 4.52513C12.0354 3.86875 11.1452 3.5 10.2169 3.5H5.83335ZM13.2751 7.58333L11.4544 5.76256C11.1262 5.43437 10.6811 5.25 10.2169 5.25H5.83335C4.22252 5.25 2.91669 6.55584 2.91669 8.16667V19.8333C2.91669 21.4442 4.22252 22.75 5.83335 22.75H22.1667C23.7775 22.75 25.0834 21.4442 25.0834 19.8333V10.5C25.0834 8.88917 23.7775 7.58333 22.1667 7.58333H13.2751Z" fill="#18202A"/>
</g>
<defs>
<clipPath id="clip0_3916_8793">
<rect width="28" height="28" fill="white"/>
</clipPath>
</defs>
</svg>
