<svg width="28" height="28" viewBox="0 0 28 28" fill="none" xmlns="http://www.w3.org/2000/svg">
<g clip-path="url(#clip0_3294_8882)">
<path d="M4.66671 5.83317C4.66671 6.4775 4.14437 6.99984 3.50004 6.99984C2.85571 6.99984 2.33337 6.4775 2.33337 5.83317C2.33337 5.18884 2.85571 4.6665 3.50004 4.6665C4.14437 4.6665 4.66671 5.18884 4.66671 5.83317Z" fill="#18202A"/>
<path d="M8.16671 5.83317C8.16671 5.18884 8.68904 4.6665 9.33337 4.6665H24.5C25.1444 4.6665 25.6667 5.18884 25.6667 5.83317C25.6667 6.4775 25.1444 6.99984 24.5 6.99984H9.33337C8.68904 6.99984 8.16671 6.4775 8.16671 5.83317Z" fill="#18202A"/>
<path d="M9.33337 12.8332C8.68904 12.8332 8.16671 13.3555 8.16671 13.9998C8.16671 14.6442 8.68904 15.1665 9.33337 15.1665H24.5C25.1444 15.1665 25.6667 14.6442 25.6667 13.9998C25.6667 13.3555 25.1444 12.8332 24.5 12.8332H9.33337Z" fill="#18202A"/>
<path d="M9.33337 20.9998C8.68904 20.9998 8.16671 21.5222 8.16671 22.1665C8.16671 22.8108 8.68904 23.3332 9.33337 23.3332H24.5C25.1444 23.3332 25.6667 22.8108 25.6667 22.1665C25.6667 21.5222 25.1444 20.9998 24.5 20.9998H9.33337Z" fill="#18202A"/>
<path d="M4.66671 13.9998C4.66671 14.6442 4.14437 15.1665 3.50004 15.1665C2.85571 15.1665 2.33337 14.6442 2.33337 13.9998C2.33337 13.3555 2.85571 12.8332 3.50004 12.8332C4.14437 12.8332 4.66671 13.3555 4.66671 13.9998Z" fill="#18202A"/>
<path d="M4.66671 22.1665C4.66671 22.8108 4.14437 23.3332 3.50004 23.3332C2.85571 23.3332 2.33337 22.8108 2.33337 22.1665C2.33337 21.5222 2.85571 20.9998 3.50004 20.9998C4.14437 20.9998 4.66671 21.5222 4.66671 22.1665Z" fill="#18202A"/>
</g>
<defs>
<clipPath id="clip0_3294_8882">
<rect width="28" height="28" fill="white"/>
</clipPath>
</defs>
</svg>
