<svg width="28" height="28" viewBox="0 0 28 28" fill="none" xmlns="http://www.w3.org/2000/svg">
<path fill-rule="evenodd" clip-rule="evenodd" d="M2.91666 14C2.91666 20.1212 7.87883 25.0834 14 25.0834C20.1211 25.0834 25.0833 20.1212 25.0833 14C25.0833 7.87886 20.1211 2.91669 14 2.91669C7.87883 2.91669 2.91666 7.87886 2.91666 14ZM1.16666 14C1.16666 21.0877 6.91234 26.8334 14 26.8334C21.0876 26.8334 26.8333 21.0877 26.8333 14C26.8333 6.91237 21.0876 1.16669 14 1.16669C6.91234 1.16669 1.16666 6.91237 1.16666 14Z" fill="#18202A"/>
<path fill-rule="evenodd" clip-rule="evenodd" d="M19.2854 14.548C19.6271 14.8897 19.6271 15.4437 19.2854 15.7854L14.6187 20.4521C14.277 20.7938 13.723 20.7938 13.3813 20.4521L8.71461 15.7854C8.3729 15.4437 8.3729 14.8897 8.71461 14.548C9.05631 14.2063 9.61033 14.2063 9.95204 14.548L13.125 17.7209V8.16669C13.125 7.68344 13.5167 7.29169 14 7.29169C14.4832 7.29169 14.875 7.68344 14.875 8.16669V17.7209L18.0479 14.548C18.3896 14.2063 18.9437 14.2063 19.2854 14.548Z" fill="#18202A"/>
</svg>
