<svg width="28" height="28" viewBox="0 0 28 28" fill="none" xmlns="http://www.w3.org/2000/svg">
<path fill-rule="evenodd" clip-rule="evenodd" d="M14.9736 7.91404C14.5819 7.08399 13.4181 7.08399 13.0264 7.91404L11.889 10.3246L9.37924 10.7041C8.89806 10.7768 8.60354 11.1347 8.50355 11.4757C8.40385 11.8157 8.46085 12.245 8.77314 12.5636L10.608 14.4357L10.171 17.0964C10.104 17.5044 10.2665 17.8962 10.5644 18.1365C10.8693 18.3824 11.3312 18.4723 11.7498 18.2423L14 17.0061L16.2502 18.2423C16.6688 18.4723 17.1307 18.3824 17.4356 18.1365C17.7335 17.8962 17.896 17.5044 17.829 17.0964L17.3921 14.4361L19.2263 12.5672C19.5388 12.2488 19.5961 11.8196 19.4967 11.4795C19.397 11.1386 19.1028 10.7805 18.6218 10.7073L16.1112 10.3252L14.9736 7.91404ZM13.0734 11.9155L14 9.95172L14.9263 11.915L17.0911 12.2444L15.5214 13.8438L15.8827 16.0437L14 15.0093L12.1173 16.0437L12.4785 13.8442L10.909 12.2427L13.0734 11.9155Z" fill="#18202A"/>
<path fill-rule="evenodd" clip-rule="evenodd" d="M14.2648 1.18955C14.0316 1.14858 13.7907 1.16224 13.5626 1.23051L2.19818 4.6488L2.04907 4.70225C1.51819 4.92473 1.16666 5.43178 1.16666 5.99961C1.16666 20.432 8.38474 24.3924 12.754 26.4144L13.3719 26.6975C13.5708 26.7879 13.7856 26.8332 14.0003 26.8332C14.215 26.8332 14.4292 26.7879 14.6275 26.6975C18.8939 24.7544 26.8333 21.136 26.8333 5.99961C26.8339 5.38073 26.4155 4.83362 25.8023 4.6488L14.438 1.23051L14.2648 1.18955ZM2.91782 6.259L14.0012 2.92584L25.081 6.259L25.0793 6.58062C24.9928 12.7396 23.528 17.1073 20.9827 20.1796L20.7429 20.4631C19.2314 22.2125 17.6924 23.2779 15.2061 24.4919L14.341 24.9032L13.9988 25.0598L13.6572 24.9026C10.5052 23.4385 8.7761 22.3024 7.01721 20.1794L6.78177 19.8875C4.38174 16.8324 3.00445 12.5471 2.92071 6.58212L2.91782 6.259Z" fill="#18202A"/>
</svg>
