<svg width="28" height="28" viewBox="0 0 28 28" fill="none" xmlns="http://www.w3.org/2000/svg">
<g clip-path="url(#clip0_2294_9592)">
<path fill-rule="evenodd" clip-rule="evenodd" d="M12.5087 0.538735C13.3732 -0.179579 14.6268 -0.179578 15.4913 0.538736L27.579 10.5833C28.0745 10.9951 28.1424 11.7307 27.7306 12.2262C27.3188 12.7218 26.5833 12.7897 26.0877 12.3779L24.5 11.0585V24.6669C24.5 25.2191 24.0523 25.6669 23.5 25.6669H16.3333V18.5002C16.3333 17.9479 15.8856 17.5002 15.3333 17.5002H12.6667C12.1144 17.5002 11.6667 17.9479 11.6667 18.5002V25.6669H4.5C3.94771 25.6669 3.5 25.2191 3.5 24.6669V11.0586L1.9123 12.3779C1.41674 12.7897 0.681176 12.7218 0.269375 12.2262C-0.142426 11.7307 -0.0745218 10.9951 0.421043 10.5833L12.5087 0.538735ZM13.9966 2.33619L14 2.33352L14.0037 2.33639L14 2.33333L13.9966 2.33619Z" fill="#18202A"/>
</g>
<defs>
<clipPath id="clip0_2294_9592">
<rect width="28" height="28" fill="white"/>
</clipPath>
</defs>
</svg>
