<svg width="28" height="28" viewBox="0 0 28 28" fill="none" xmlns="http://www.w3.org/2000/svg">
<path d="M9.33331 13.7084C9.33331 13.2251 9.72506 12.8334 10.2083 12.8334H17.7916C18.2749 12.8334 18.6666 13.2251 18.6666 13.7084C18.6666 14.1916 18.2749 14.5834 17.7916 14.5834H10.2083C9.72506 14.5834 9.33331 14.1916 9.33331 13.7084Z" fill="#18202A"/>
<path fill-rule="evenodd" clip-rule="evenodd" d="M3.49998 10.1879C2.80254 9.78444 2.33331 9.03037 2.33331 8.16671V4.66671C2.33331 3.37804 3.37798 2.33337 4.66665 2.33337H23.3333C24.622 2.33337 25.6666 3.37804 25.6666 4.66671V8.16671C25.6666 9.03037 25.1974 9.78444 24.5 10.1879V22.1667C24.5 24.744 22.4106 26.8334 19.8333 26.8334H8.16665C5.58932 26.8334 3.49998 24.744 3.49998 22.1667V10.1879ZM4.08331 4.66671C4.08331 4.34454 4.34448 4.08337 4.66665 4.08337H23.3333C23.6555 4.08337 23.9166 4.34454 23.9166 4.66671V8.16671C23.9166 8.48887 23.6555 8.75004 23.3333 8.75004H4.66665C4.34448 8.75004 4.08331 8.48887 4.08331 8.16671V4.66671ZM19.8333 25.0834C21.4441 25.0834 22.75 23.7775 22.75 22.1667V10.5H5.24998V22.1667C5.24998 23.7775 6.55582 25.0834 8.16665 25.0834H19.8333Z" fill="#18202A"/>
</svg>
