<svg width="28" height="28" viewBox="0 0 28 28" fill="none" xmlns="http://www.w3.org/2000/svg">
<path d="M9.36619 2.96305L9.59945 2.9688C10.2179 3.00838 10.8046 3.24051 11.2799 3.63502C11.8146 4.07888 12.1733 4.69906 12.2913 5.38379C12.3258 5.65176 12.376 5.93735 12.4373 6.20732C12.5607 6.75107 12.7201 7.28637 12.9143 7.80947C13.0607 8.2117 13.053 8.65789 12.8915 9.05855C12.7299 9.45916 12.426 9.78585 12.038 9.9758L11.4809 10.341L11.0331 10.6396L11.2947 11.1099L11.5489 11.549C12.1592 12.5626 12.8893 13.5 13.7238 14.3407C14.6875 15.2973 15.7745 16.1146 16.9576 16.7728L17.4951 17.0719L18.0219 15.9943L18.1114 15.8334C18.3066 15.5227 18.5956 15.2796 18.939 15.1411C19.3397 14.9796 19.7859 14.9719 20.1917 15.1196C20.7087 15.3153 21.2465 15.4754 21.7939 15.5961L22.1219 15.6742L22.3695 15.7224C22.4848 15.7404 22.5926 15.7497 22.7012 15.7497C23.2631 15.8598 23.8659 16.206 24.3037 16.7201C24.7418 17.2344 24.9877 17.8847 24.9996 18.56V22.0497L24.9902 22.2979C24.9639 22.6272 24.8823 22.9488 24.7482 23.2505C24.5806 23.6276 24.3348 23.9649 24.0273 24.24C23.4928 24.7161 22.8006 24.9792 22.0837 24.9781H21.6395L21.1381 24.9096C16.6347 24.239 12.3989 22.1164 9.12184 18.8512C5.72344 15.4651 3.55003 11.0434 2.94486 6.28446C2.88676 5.86321 2.91958 5.44066 3.04028 5.03941C3.16097 4.63816 3.36671 4.26762 3.64349 3.95301C3.92025 3.63842 4.26156 3.38716 4.64418 3.21631C5.02679 3.04547 5.44171 2.95908 5.86071 2.96302L9.36619 2.96305Z" fill="#18202A"/>
<path fill-rule="evenodd" clip-rule="evenodd" d="M23.528 11.0662C23.528 11.7106 23.0057 12.2329 22.3613 12.2329L16.9283 12.2329C16.284 12.2329 15.7617 11.7106 15.7617 11.0662V5.63325C15.7617 4.98891 16.284 4.46658 16.9283 4.46658C17.5727 4.46658 18.095 4.98891 18.095 5.63325V8.24966L22.5029 3.84179C22.9585 3.38618 23.6972 3.38618 24.1528 3.84179C24.6084 4.2974 24.6084 5.03609 24.1528 5.49171L19.7449 9.89958H22.3613C23.0057 9.89958 23.528 10.4219 23.528 11.0662Z" fill="#18202A"/>
</svg>
