<svg width="28" height="28" viewBox="0 0 28 28" fill="none" xmlns="http://www.w3.org/2000/svg">
<path fill-rule="evenodd" clip-rule="evenodd" d="M5.25001 15.1668C5.89434 15.1668 6.41668 14.6445 6.41668 14.0002C6.41668 13.3558 5.89434 12.8335 5.25001 12.8335C4.60568 12.8335 4.08334 13.3558 4.08334 14.0002C4.08334 14.6445 4.60568 15.1668 5.25001 15.1668ZM5.25001 16.9168C6.86084 16.9168 8.16668 15.611 8.16668 14.0002C8.16668 12.3893 6.86084 11.0835 5.25001 11.0835C3.63918 11.0835 2.33334 12.3893 2.33334 14.0002C2.33334 15.611 3.63918 16.9168 5.25001 16.9168Z" fill="#18202A"/>
<path fill-rule="evenodd" clip-rule="evenodd" d="M14 15.1668C14.6443 15.1668 15.1667 14.6445 15.1667 14.0002C15.1667 13.3558 14.6443 12.8335 14 12.8335C13.3557 12.8335 12.8333 13.3558 12.8333 14.0002C12.8333 14.6445 13.3557 15.1668 14 15.1668ZM14 16.9168C15.6108 16.9168 16.9167 15.611 16.9167 14.0002C16.9167 12.3893 15.6108 11.0835 14 11.0835C12.3892 11.0835 11.0833 12.3893 11.0833 14.0002C11.0833 15.611 12.3892 16.9168 14 16.9168Z" fill="#18202A"/>
<path fill-rule="evenodd" clip-rule="evenodd" d="M22.75 15.1668C23.3943 15.1668 23.9167 14.6445 23.9167 14.0002C23.9167 13.3558 23.3943 12.8335 22.75 12.8335C22.1057 12.8335 21.5833 13.3558 21.5833 14.0002C21.5833 14.6445 22.1057 15.1668 22.75 15.1668ZM22.75 16.9168C24.3608 16.9168 25.6667 15.611 25.6667 14.0002C25.6667 12.3893 24.3608 11.0835 22.75 11.0835C21.1392 11.0835 19.8333 12.3893 19.8333 14.0002C19.8333 15.611 21.1392 16.9168 22.75 16.9168Z" fill="#18202A"/>
</svg>
