<svg width="28" height="28" viewBox="0 0 28 28" fill="none" xmlns="http://www.w3.org/2000/svg">
<path d="M8.16667 3.20827C8.16667 2.86272 7.96332 2.54954 7.64766 2.40896C7.332 2.26837 6.96317 2.32673 6.70633 2.55789L3.78966 5.18289C3.43047 5.50616 3.40135 6.05942 3.72463 6.41861C4.0479 6.77781 4.60116 6.80693 4.96035 6.48365L6.41667 5.17296V10.7917C6.41667 11.275 6.80843 11.6667 7.29167 11.6667C7.77492 11.6667 8.16667 11.275 8.16667 10.7917V3.20827Z" fill="#18202A"/>
<path d="M5.25003 16.9166C5.25003 16.5949 5.66005 15.7499 7.00003 15.7499C8.34 15.7499 8.75003 16.5949 8.75003 16.9166C8.75003 17.9558 8.18148 18.581 6.96464 19.7979L3.75631 23.0062C3.50606 23.2564 3.4312 23.6328 3.56663 23.9598C3.70206 24.2867 4.02112 24.4999 4.37503 24.4999H9.62503C10.1083 24.4999 10.5 24.1082 10.5 23.6249C10.5 23.1417 10.1083 22.7499 9.62503 22.7499H6.48746L8.29758 20.9399C9.38489 19.8542 10.5 18.7406 10.5 16.9166C10.5 15.4882 9.16005 13.9999 7.00003 13.9999C4.84 13.9999 3.50003 15.4882 3.50003 16.9166C3.50003 17.3998 3.89178 17.7916 4.37503 17.7916C4.85827 17.7916 5.25003 17.3998 5.25003 16.9166Z" fill="#18202A"/>
<path d="M12.8333 5.54159C12.8333 5.05834 13.2251 4.66659 13.7083 4.66659H24.7917C25.2749 4.66659 25.6667 5.05834 25.6667 5.54159C25.6667 6.02483 25.2749 6.41659 24.7917 6.41659H13.7083C13.2251 6.41659 12.8333 6.02483 12.8333 5.54159Z" fill="#18202A"/>
<path d="M13.7083 8.74992C13.2251 8.74992 12.8333 9.14167 12.8333 9.62492C12.8333 10.1082 13.2251 10.4999 13.7083 10.4999H24.7917C25.2749 10.4999 25.6667 10.1082 25.6667 9.62492C25.6667 9.14167 25.2749 8.74992 24.7917 8.74992H13.7083Z" fill="#18202A"/>
<path d="M12.8333 18.3749C12.8333 17.8917 13.2251 17.4999 13.7083 17.4999H24.7917C25.2749 17.4999 25.6667 17.8917 25.6667 18.3749C25.6667 18.8582 25.2749 19.2499 24.7917 19.2499H13.7083C13.2251 19.2499 12.8333 18.8582 12.8333 18.3749Z" fill="#18202A"/>
<path d="M13.7083 21.5833C13.2251 21.5833 12.8333 21.975 12.8333 22.4583C12.8333 22.9415 13.2251 23.3333 13.7083 23.3333H24.7917C25.2749 23.3333 25.6667 22.9415 25.6667 22.4583C25.6667 21.975 25.2749 21.5833 24.7917 21.5833H13.7083Z" fill="#18202A"/>
</svg>
