<svg width="28" height="28" viewBox="0 0 28 28" fill="none" xmlns="http://www.w3.org/2000/svg">
<g clip-path="url(#clip0_2294_12368)">
<path fill-rule="evenodd" clip-rule="evenodd" d="M28 14C28 15.0002 27.8951 15.9759 27.6957 16.9167H26.5004C25.3975 21.6621 21.6621 25.3974 16.9167 26.5002V24.6953C20.6934 23.6679 23.6679 20.6934 24.6955 16.9167H20.3652C19.6667 18.4385 18.4385 19.6666 16.9167 20.3651V18.3657C17.4894 17.9823 17.9825 17.4892 18.3659 16.9165C18.4753 16.7531 18.5759 16.5832 18.6667 16.4075C18.8672 16.0196 19.0208 15.6035 19.1199 15.1667C19.205 14.7915 19.25 14.401 19.25 14C19.25 13.599 19.205 13.2085 19.1199 12.8333C19.0208 12.3965 18.8672 11.9804 18.6667 11.5925C18.5758 11.4167 18.4753 11.2468 18.3659 11.0833H27.6957C27.8951 12.0241 28 12.9998 28 14ZM26.1953 15.1667H20.903C20.9668 14.787 21 14.3972 21 14C21 13.6028 20.9668 13.213 20.903 12.8333H26.1953C26.2315 13.217 26.25 13.6061 26.25 14C26.25 14.3939 26.2315 14.783 26.1953 15.1667Z" fill="#18202A"/>
<path fill-rule="evenodd" clip-rule="evenodd" d="M14 0C15.0002 0 15.9759 0.104884 16.9167 0.304253V9.63407C16.7532 9.52466 16.5833 9.42418 16.4075 9.33333C16.0196 9.1328 15.6035 8.97921 15.1667 8.88009C14.7915 8.79495 14.401 8.75 14 8.75C13.599 8.75 13.2085 8.79495 12.8333 8.88009C12.3965 8.97921 11.9804 9.1328 11.5925 9.33333C11.4167 9.42418 11.2468 9.52466 11.0833 9.63407C10.5106 10.0175 10.0175 10.5104 9.63408 11.0831H7.63472C8.33321 9.56124 9.56145 8.333 11.0833 7.63451V3.30424C7.30653 4.33175 4.33196 7.30631 3.30445 11.0831H1.49956C2.60243 6.33764 6.33785 2.60222 11.0833 1.49935L11.0833 0.304253C12.0241 0.104884 12.9998 0 14 0ZM15.1667 1.80471V7.09704C14.787 7.03322 14.3972 7 14 7C13.6028 7 13.213 7.03322 12.8333 7.09704V1.80471C13.217 1.76853 13.6061 1.75 14 1.75C14.3939 1.75 14.783 1.76853 15.1667 1.80471Z" fill="#18202A"/>
<path fill-rule="evenodd" clip-rule="evenodd" d="M0 14C0 12.9998 0.104884 12.0241 0.304253 11.0833L9.63408 11.0831C9.52466 11.2466 9.42418 11.4167 9.33333 11.5925C9.1328 11.9804 8.97921 12.3965 8.88009 12.8333C8.79495 13.2085 8.75 13.599 8.75 14C8.75 14.401 8.79495 14.7915 8.88009 15.1667C8.97921 15.6035 9.1328 16.0196 9.33333 16.4075C9.42414 16.5832 9.52457 16.7531 9.63393 16.9165C10.0173 17.4892 10.5106 17.9823 11.0833 18.3657C11.2468 18.4751 11.4167 18.5758 11.5925 18.6667C11.9804 18.8672 12.3965 19.0208 12.8333 19.1199C13.2085 19.205 13.599 19.25 14 19.25C14.401 19.25 14.7915 19.205 15.1667 19.1199C15.6035 19.0208 16.0196 18.8672 16.4075 18.6667C16.5833 18.5758 16.7532 18.4751 16.9167 18.3657L16.9167 27.6957C15.9759 27.8951 15.0002 28 14 28C12.9998 28 12.0241 27.8951 11.0833 27.6957L11.0833 26.5002C6.33792 25.3974 2.60254 21.6621 1.49961 16.9167H0.304253C0.104884 15.9759 0 15.0002 0 14ZM3.30451 16.9167C4.33207 20.6934 7.30659 23.6679 11.0833 24.6953V20.3651C9.56152 19.6666 8.33333 18.4385 7.63482 16.9167H3.30451ZM1.80471 12.8333H7.09704C7.03322 13.213 7 13.6028 7 14C7 14.3972 7.03322 14.787 7.09704 15.1667H1.80471C1.76853 14.783 1.75 14.3939 1.75 14C1.75 13.6061 1.76853 13.217 1.80471 12.8333ZM12.8333 26.1953V20.903C13.213 20.9668 13.6028 21 14 21C14.3972 21 14.787 20.9668 15.1667 20.903V26.1953C14.783 26.2315 14.3939 26.25 14 26.25C13.6061 26.25 13.217 26.2315 12.8333 26.1953Z" fill="#18202A"/>
<path d="M24.6956 11.0831H26.5005C25.3976 6.33764 21.6622 2.60221 16.9167 1.49935V3.30424C20.6935 4.33175 23.6681 7.30631 24.6956 11.0831Z" fill="#18202A"/>
<path d="M18.3659 11.0833C17.9825 10.5106 17.4894 10.0175 16.9167 9.63407L16.9167 7.63451C18.4386 8.333 19.6668 9.56124 20.3653 11.0831L18.3659 11.0833Z" fill="#18202A"/>
</g>
<defs>
<clipPath id="clip0_2294_12368">
<rect width="28" height="28" fill="white"/>
</clipPath>
</defs>
</svg>
