<svg width="28" height="28" viewBox="0 0 28 28" fill="none" xmlns="http://www.w3.org/2000/svg">
<path fill-rule="evenodd" clip-rule="evenodd" d="M6.20742 14.8748L3.02831 23.3429C2.98321 23.463 2.96027 23.5517 2.95009 23.6144C2.94204 23.664 2.94364 23.687 2.94393 23.6902C3.12595 24.8659 4.33578 25.5058 5.51397 24.8538L23.5473 14.8748H6.20742ZM23.5472 13.1248L5.51398 3.14567C4.33563 2.4936 3.12592 3.13343 2.94393 4.30927C2.94395 4.30901 2.94397 4.30888 2.94397 4.30888C2.94397 4.30889 2.94393 4.30927 2.94381 4.31001C2.94385 4.30976 2.94389 4.30951 2.94393 4.30927C2.94363 4.31244 2.94204 4.33547 2.95009 4.38502C2.96027 4.44772 2.98321 4.53647 3.02831 4.65659L6.20744 13.1248H23.5472ZM1.38996 5.27166L4.66666 13.9997L1.38996 22.7278C1.2423 23.1211 1.1502 23.5412 1.21431 23.9564C1.59656 26.432 4.20497 27.5782 6.36129 26.385L25.9758 15.531C27.1794 14.865 27.1794 13.1346 25.9758 12.4686L6.3613 1.61447C4.20496 0.421216 1.59651 1.56716 1.2143 4.04302C1.1502 4.45822 1.2423 4.87834 1.38996 5.27166Z" fill="#18202A"/>
</svg>
