<svg width="28" height="28" viewBox="0 0 28 28" fill="none" xmlns="http://www.w3.org/2000/svg">
<path d="M11.375 2.33337H16.0393C16.261 2.33344 16.4744 2.41766 16.6364 2.56901C16.7984 2.72036 16.8969 2.92756 16.912 3.14873C16.9271 3.36991 16.8577 3.58858 16.7178 3.76056C16.5779 3.93253 16.3779 4.04499 16.1583 4.07521L16.0393 4.08337H14.5833V23.9167H16.0358C16.2473 23.9167 16.4515 23.9933 16.6109 24.1323C16.7703 24.2712 16.8739 24.4632 16.9026 24.6727L16.9108 24.7917C16.9108 25.0032 16.8342 25.2074 16.6953 25.3668C16.5563 25.5261 16.3643 25.6298 16.1548 25.6585L16.0358 25.6667H11.375C11.1533 25.6666 10.9399 25.5824 10.7779 25.4311C10.6159 25.2797 10.5174 25.0725 10.5023 24.8513C10.4872 24.6302 10.5566 24.4115 10.6965 24.2395C10.8364 24.0676 11.0364 23.9551 11.256 23.9249L11.375 23.9167H12.8333V4.08337H11.375C11.1635 4.08337 10.9592 4.00679 10.7999 3.86781C10.6405 3.72883 10.5369 3.53685 10.5081 3.32737L10.5 3.20837C10.5 2.99693 10.5766 2.79264 10.7155 2.63329C10.8545 2.47393 11.0465 2.3703 11.256 2.34154L11.375 2.33337H16.0393H11.375ZM21.287 5.82987C22.2923 5.8308 23.2562 6.23058 23.9671 6.94145C24.6779 7.65233 25.0777 8.61621 25.0786 9.62154L25.0833 18.3762C25.084 19.3446 24.714 20.2765 24.0493 20.9808C23.3845 21.685 22.4755 22.1081 21.5086 22.1632L21.2916 22.169H15.7558V20.419H21.3593C21.8893 20.4018 22.3917 20.1789 22.7602 19.7975C23.1286 19.4162 23.3342 18.9065 23.3333 18.3762L23.3298 9.62037C23.3289 9.07877 23.1132 8.55965 22.73 8.1769C22.3468 7.79414 21.8274 7.57902 21.2858 7.57871H15.7558V5.82871H21.2858L21.287 5.82987ZM11.6666 5.82987V7.57987H6.12498C5.5835 7.57987 5.06419 7.79498 4.6813 8.17786C4.29842 8.56075 4.08331 9.08006 4.08331 9.62154V18.3762C4.08331 19.5044 4.99798 20.4179 6.12498 20.4179H11.6608V22.1679H6.12498C5.11937 22.1679 4.15494 21.7684 3.44387 21.0573C2.73279 20.3462 2.33331 19.3818 2.33331 18.3762V9.62154C2.33331 8.61593 2.73279 7.6515 3.44387 6.94043C4.15494 6.22935 5.11937 5.82987 6.12498 5.82987H11.6666Z" fill="#18202A"/>
</svg>
