<svg width="28" height="28" viewBox="0 0 28 28" fill="none" xmlns="http://www.w3.org/2000/svg">
<path fill-rule="evenodd" clip-rule="evenodd" d="M10.6397 9.91675H17.3604L14 6.60478L10.6397 9.91675ZM10.6397 18.0834L14 21.3954L17.3604 18.0834H10.6397ZM9.44073 11.6667C8.30795 11.6667 7.74065 10.3169 8.54165 9.52743L13.1009 5.0338C13.5975 4.5444 14.4026 4.5444 14.8991 5.0338L19.4584 9.52743C20.2594 10.3169 19.6921 11.6667 18.5593 11.6667H9.44073ZM9.44073 16.3334C8.30795 16.3334 7.74065 17.6833 8.54165 18.4727L13.1009 22.9664C13.5975 23.4558 14.4026 23.4558 14.8991 22.9664L19.4584 18.4727C20.2594 17.6833 19.6921 16.3334 18.5593 16.3334H9.44073Z" fill="#18202A"/>
</svg>
