<svg width="28" height="28" viewBox="0 0 28 28" fill="none" xmlns="http://www.w3.org/2000/svg">
<path fill-rule="evenodd" clip-rule="evenodd" d="M14 9.41873L12.6937 12.1872L9.6806 12.6427L11.8644 14.8708L11.3579 17.9545L14 16.503L16.6421 17.9545L16.1356 14.8705L18.3194 12.6453L15.306 12.1867L14 9.41873ZM12.9809 7.4776C13.3915 6.60725 14.6085 6.60725 15.0191 7.4776L16.4909 10.5969L19.7443 11.0921C20.2466 11.1685 20.5556 11.5425 20.6609 11.9025C20.7659 12.2616 20.705 12.7131 20.3768 13.0475L18.0063 15.4628L18.5704 18.8977C18.6411 19.3282 18.4696 19.74 18.1571 19.9921C17.8377 20.2498 17.3555 20.3432 16.9181 20.1029L14 18.4997L11.0819 20.1029C10.6445 20.3432 10.1623 20.2498 9.8429 19.9921C9.53035 19.74 9.35888 19.3282 9.42959 18.8977L9.99377 15.4624L7.62264 13.0431C7.2947 12.7085 7.23405 12.2569 7.33935 11.8979C7.44493 11.5378 7.75427 11.164 8.25675 11.0881L11.5093 10.5964L12.9809 7.4776Z" fill="#18202A"/>
<path fill-rule="evenodd" clip-rule="evenodd" d="M14 25.0832C20.1211 25.0832 25.0833 20.121 25.0833 13.9998C25.0833 7.87868 20.1211 2.9165 14 2.9165C7.87883 2.9165 2.91666 7.87868 2.91666 13.9998C2.91666 20.121 7.87883 25.0832 14 25.0832ZM26.8333 13.9998C26.8333 21.0875 21.0876 26.8332 14 26.8332C6.91234 26.8332 1.16666 21.0875 1.16666 13.9998C1.16666 6.91218 6.91234 1.1665 14 1.1665C21.0876 1.1665 26.8333 6.91218 26.8333 13.9998Z" fill="#18202A"/>
</svg>
