<svg width="28" height="28" viewBox="0 0 28 28" fill="none" xmlns="http://www.w3.org/2000/svg">
<path fill-rule="evenodd" clip-rule="evenodd" d="M20.4167 8.09375C20.4167 9.52706 20.1141 10.641 19.6706 11.3359C19.2732 11.9586 18.779 12.25 18.0833 12.25C17.3876 12.25 16.8934 11.9586 16.496 11.3359C16.0525 10.641 15.75 9.52706 15.75 8.09375C15.75 7.06193 16.0188 6.35035 16.3677 5.92988C16.6789 5.55477 17.1823 5.25 18.0833 5.25C18.9844 5.25 19.4878 5.55477 19.799 5.92988C20.1478 6.35035 20.4167 7.06193 20.4167 8.09375ZM22.1667 8.09375C22.1667 11.375 20.8055 14 18.0833 14C15.3611 14 14 11.375 14 8.09375C14 5.46875 15.3611 3.5 18.0833 3.5C20.8055 3.5 22.1667 5.46875 22.1667 8.09375ZM7.28049 16.3333C7.9388 16.3333 8.58118 16.4015 9.20098 16.5311C8.73971 17.0046 8.38181 17.5474 8.12719 18.1299C7.8494 18.0991 7.56691 18.0833 7.28049 18.0833C5.92536 18.0833 4.65817 18.4372 3.56078 19.0564C3.05189 19.3435 2.72955 20.0769 3.02768 20.904C3.0861 21.0661 3.14693 21.227 3.21013 21.3868C3.46533 22.0318 4.05973 22.4957 4.77304 22.5884C5.593 22.6949 6.42988 22.75 7.28049 22.75C7.56607 22.75 7.8501 22.7438 8.13246 22.7315C8.15097 22.7747 8.17001 22.8177 8.18959 22.8606C8.32145 23.1491 8.46045 23.4341 8.60635 23.7155C8.73576 23.9652 8.88088 24.2027 9.03998 24.4273C8.45986 24.4755 7.87304 24.5 7.28049 24.5C6.35427 24.5 5.44205 24.44 4.5475 24.3238C3.21598 24.1507 2.0768 23.2791 1.58285 22.0305C1.51306 21.8541 1.44589 21.6764 1.38137 21.4974C0.845148 20.0098 1.32364 18.3093 2.70084 17.5323C4.0538 16.7689 5.61628 16.3333 7.28049 16.3333ZM18.0833 23.9167C19.6179 23.9167 21.1141 23.7791 22.5571 23.518C23.4278 23.3604 24.1505 22.8344 24.5258 22.1075C24.6448 21.8769 24.758 21.6438 24.8652 21.4081C25.3443 20.3554 25.0052 19.2284 24.2031 18.7003C22.5144 17.5885 20.3988 16.9167 18.0833 16.9167C15.7679 16.9167 13.6522 17.5885 11.9636 18.7003C11.1614 19.2284 10.8223 20.3554 11.3015 21.4081C11.4087 21.6438 11.5219 21.8769 11.6409 22.1075C12.0161 22.8344 12.7388 23.3604 13.6096 23.518C15.0526 23.7791 16.5487 23.9167 18.0833 23.9167ZM22.8687 25.24C24.2386 24.9921 25.4402 24.1512 26.0808 22.9101C26.213 22.6542 26.3387 22.3951 26.458 22.1331C27.2538 20.3846 26.7663 18.2925 25.1654 17.2386C23.1883 15.937 20.7375 15.1667 18.0833 15.1667C15.4291 15.1667 12.9784 15.937 11.0013 17.2386C9.40036 18.2926 8.91288 20.3846 9.70866 22.1331C9.82791 22.3951 9.95369 22.6542 10.0858 22.9101C10.7264 24.1512 11.9281 24.9921 13.2979 25.24C14.8436 25.5198 16.4441 25.6667 18.0833 25.6667C19.7226 25.6667 21.323 25.5198 22.8687 25.24ZM9.02927 10.5729C9.02927 11.6133 8.78713 12.3732 8.47283 12.8201C8.20599 13.1995 7.85701 13.4167 7.27927 13.4167C6.70152 13.4167 6.35254 13.1995 6.0857 12.8201C5.77141 12.3732 5.52927 11.6133 5.52927 10.5729C5.52927 9.8733 5.72721 9.44079 5.94582 9.20168C6.14191 8.9872 6.51481 8.75 7.27927 8.75C8.04372 8.75 8.41662 8.9872 8.61272 9.20168C8.83133 9.44079 9.02927 9.8733 9.02927 10.5729ZM10.7793 10.5729C10.7793 13.125 9.6126 15.1667 7.27927 15.1667C4.94593 15.1667 3.77927 13.125 3.77927 10.5729C3.77927 8.53125 4.94593 7 7.27927 7C9.6126 7 10.7793 8.53125 10.7793 10.5729Z" fill="#18202A"/>
</svg>
