<svg width="28" height="28" viewBox="0 0 28 28" fill="none" xmlns="http://www.w3.org/2000/svg">
<path d="M10.7416 4.90837C11.1972 4.45276 11.1972 3.71407 10.7416 3.25846C10.286 2.80285 9.54732 2.80285 9.09171 3.25846L3.84171 8.50846C3.3861 8.96407 3.3861 9.70276 3.84171 10.1584L9.09171 15.4084C9.54732 15.864 10.286 15.864 10.7416 15.4084C11.1972 14.9528 11.1972 14.2141 10.7416 13.7585L7.48325 10.5001H16.9167C19.8162 10.5001 22.1667 12.8506 22.1667 15.7501C22.1667 18.6496 19.8162 21.0001 16.9167 21.0001H9.33333C8.689 21.0001 8.16667 21.5224 8.16667 22.1668C8.16667 22.8111 8.689 23.3334 9.33333 23.3334H16.9167C21.1048 23.3334 24.5 19.9382 24.5 15.7501C24.5 11.5619 21.1048 8.16675 16.9167 8.16675H7.48325L10.7416 4.90837Z" fill="#18202A"/>
</svg>
