<svg width="28" height="28" viewBox="0 0 28 28" fill="none" xmlns="http://www.w3.org/2000/svg">
<g clip-path="url(#clip0_2291_21828)">
<path fill-rule="evenodd" clip-rule="evenodd" d="M8.16663 1.16669C7.52229 1.16669 6.99996 1.68902 6.99996 2.33335V3.50002H5.83329C3.25596 3.50002 1.16663 5.58936 1.16663 8.16669V22.1667C1.16663 24.744 3.25596 26.8334 5.83329 26.8334H15.4638C14.5411 25.5105 14 23.9018 14 22.1667C14 20.3281 14.6075 18.6314 15.6329 17.2665C15.3497 17.0536 15.1666 16.7149 15.1666 16.3334C15.1666 15.689 15.689 15.1667 16.3333 15.1667C16.7148 15.1667 17.0535 15.3498 17.2664 15.6329C18.6313 14.6076 20.328 14 22.1666 14C23.9017 14 25.5105 14.5411 26.8333 15.4638V8.16669C26.8333 5.58936 24.744 3.50002 22.1666 3.50002H21V2.33335C21 1.68902 20.4776 1.16669 19.8333 1.16669C19.189 1.16669 18.6666 1.68902 18.6666 2.33335V3.50002H9.33329V2.33335C9.33329 1.68902 8.81096 1.16669 8.16663 1.16669ZM5.83329 11.6667C5.83329 11.0224 6.35563 10.5 6.99996 10.5H21C21.6443 10.5 22.1666 11.0224 22.1666 11.6667C22.1666 12.311 21.6443 12.8334 21 12.8334H6.99996C6.35563 12.8334 5.83329 12.311 5.83329 11.6667ZM5.83329 16.3334C5.83329 15.689 6.35563 15.1667 6.99996 15.1667C7.64429 15.1667 8.16663 15.689 8.16663 16.3334C8.16663 16.9777 7.64429 17.5 6.99996 17.5C6.35563 17.5 5.83329 16.9777 5.83329 16.3334ZM6.99996 19.8334C6.35563 19.8334 5.83329 20.3557 5.83329 21C5.83329 21.6444 6.35563 22.1667 6.99996 22.1667C7.64429 22.1667 8.16663 21.6444 8.16663 21C8.16663 20.3557 7.64429 19.8334 6.99996 19.8334ZM10.5 16.3334C10.5 15.689 11.0223 15.1667 11.6666 15.1667C12.311 15.1667 12.8333 15.689 12.8333 16.3334C12.8333 16.9777 12.311 17.5 11.6666 17.5C11.0223 17.5 10.5 16.9777 10.5 16.3334ZM11.6666 19.8334C11.0223 19.8334 10.5 20.3557 10.5 21C10.5 21.6444 11.0223 22.1667 11.6666 22.1667C12.311 22.1667 12.8333 21.6444 12.8333 21C12.8333 20.3557 12.311 19.8334 11.6666 19.8334ZM28 22.1667C28 25.3883 25.3883 28 22.1666 28C18.945 28 16.3333 25.3883 16.3333 22.1667C16.3333 18.945 18.945 16.3334 22.1666 16.3334C25.3883 16.3334 28 18.945 28 22.1667ZM22.0442 24.0391C21.9965 24.0868 21.941 24.1258 21.8801 24.1545L19.2097 25.4111C19.0171 25.5018 18.8137 25.3083 18.8945 25.1114L20.0564 22.2799C20.0887 22.2012 20.1379 22.1305 20.2004 22.0728L23.8212 18.7304C24.0513 18.518 24.408 18.5252 24.6294 18.7466L25.5706 19.6878C25.7984 19.9156 25.7984 20.2849 25.5706 20.5127L22.0442 24.0391Z" fill="#18202A"/>
</g>
<defs>
<clipPath id="clip0_2291_21828">
<rect width="28" height="28" fill="white"/>
</clipPath>
</defs>
</svg>
