<svg width="28" height="28" viewBox="0 0 28 28" fill="none" xmlns="http://www.w3.org/2000/svg">
<path fill-rule="evenodd" clip-rule="evenodd" d="M14 7.82488C14.4557 7.36927 14.4557 6.63057 14 6.17496C13.5444 5.71935 12.8057 5.71935 12.3501 6.17496L5.35013 13.175C4.89452 13.6306 4.89452 14.3693 5.35013 14.8249L12.3501 21.8249C12.8057 22.2805 13.5444 22.2805 14 21.8249C14.4557 21.3693 14.4557 20.6306 14 20.175L7.82501 13.9999L14 7.82488ZM22.65 7.82488C23.1056 7.36927 23.1056 6.63057 22.65 6.17496C22.1944 5.71935 21.4557 5.71935 21 6.17496L14 13.175C13.5444 13.6306 13.5444 14.3693 14 14.8249L21 21.8249C21.4557 22.2805 22.1944 22.2805 22.65 21.8249C23.1056 21.3693 23.1056 20.6306 22.65 20.175L16.4749 13.9999L22.65 7.82488Z" fill="#18202A"/>
</svg>
