<svg width="28" height="28" viewBox="0 0 28 28" fill="none" xmlns="http://www.w3.org/2000/svg">
<path fill-rule="evenodd" clip-rule="evenodd" d="M10.8154 11.226L3.86177 12.1948L8.88912 16.9217L7.68321 23.6882L14 20.4902L20.3168 23.6882L19.1108 16.9209L24.1382 12.2005L17.1841 11.2251L14 5.00647L10.8154 11.226ZM9.67256 9.61835L1.20677 10.7977C0.721507 10.8653 0.530726 11.4649 0.887675 11.8005L7.00001 17.5475L5.5502 25.6826C5.46579 26.1562 5.95873 26.5227 6.38796 26.3054L14 22.4517L21.6121 26.3054C22.0413 26.5227 22.5342 26.1562 22.4498 25.6826L21 17.5475L27.112 11.8088C27.4692 11.4734 27.2789 10.8739 26.7938 10.8058L18.3275 9.61835L14.5192 2.18076C14.3025 1.75746 13.6975 1.75746 13.4808 2.18076L9.67256 9.61835Z" fill="#18202A"/>
</svg>
