<svg width="28" height="28" viewBox="0 0 28 28" fill="none" xmlns="http://www.w3.org/2000/svg">
<path fill-rule="evenodd" clip-rule="evenodd" d="M2.94052 13.5793V13.6392C2.94052 17.1267 4.31528 19.7443 6.4345 21.4612L7.01481 21.9313L7.25276 24.7867L10.225 23.4149L10.8129 23.5541C11.8174 23.7919 12.8906 23.9165 14.0119 23.9165C20.8486 23.9165 25.0833 19.0506 25.0833 13.6392C25.0833 7.14032 20.2374 2.9165 14.0119 2.9165C7.75355 2.9165 2.56027 8.03 2.93642 13.5196L2.94052 13.5793ZM26.8333 13.6392C26.8333 20.0357 21.7964 25.6665 14.0119 25.6665C12.7613 25.6665 11.5525 25.5276 10.4098 25.257L7.22954 26.7248C6.49421 27.0642 5.64526 26.5695 5.578 25.7624L5.33288 22.8209C2.78625 20.7578 1.19052 17.6319 1.19052 13.6392C0.732667 6.95741 6.93086 1.1665 14.0119 1.1665C21.093 1.1665 26.8333 6.0665 26.8333 13.6392Z" fill="#18202A"/>
<path fill-rule="evenodd" clip-rule="evenodd" d="M19.25 15.1665C20.2165 15.1665 21 14.383 21 13.4165C21 12.45 20.2165 11.6665 19.25 11.6665C18.2835 11.6665 17.5 12.45 17.5 13.4165C17.5 14.383 18.2835 15.1665 19.25 15.1665Z" fill="#18202A"/>
<path fill-rule="evenodd" clip-rule="evenodd" d="M14 15.1665C14.9665 15.1665 15.75 14.383 15.75 13.4165C15.75 12.45 14.9665 11.6665 14 11.6665C13.0335 11.6665 12.25 12.45 12.25 13.4165C12.25 14.383 13.0335 15.1665 14 15.1665Z" fill="#18202A"/>
<path fill-rule="evenodd" clip-rule="evenodd" d="M8.75001 15.1665C9.71651 15.1665 10.5 14.383 10.5 13.4165C10.5 12.45 9.71651 11.6665 8.75001 11.6665C7.78351 11.6665 7.00001 12.45 7.00001 13.4165C7.00001 14.383 7.78351 15.1665 8.75001 15.1665Z" fill="#18202A"/>
</svg>
