<svg width="28" height="28" viewBox="0 0 28 28" fill="none" xmlns="http://www.w3.org/2000/svg">
<g clip-path="url(#clip0_2294_13796)">
<path fill-rule="evenodd" clip-rule="evenodd" d="M18.6667 6.27116C18.6667 9.91699 17.1111 12.8337 14 12.8337C10.8889 12.8337 9.33334 9.91699 9.33334 6.27116C9.33334 3.35449 10.8889 1.16699 14 1.16699C17.1111 1.16699 18.6667 3.35449 18.6667 6.27116ZM16.9167 6.27116C16.9167 7.87895 16.5686 9.14943 16.037 9.95928C15.5525 10.6974 14.913 11.0837 14 11.0837C13.087 11.0837 12.4475 10.6974 11.963 9.95928C11.4314 9.14943 11.0833 7.87895 11.0833 6.27116C11.0833 5.10468 11.3949 4.2726 11.8312 3.76128C12.2338 3.28949 12.887 2.91699 14 2.91699C15.113 2.91699 15.7662 3.28949 16.1688 3.76128C16.6051 4.2726 16.9167 5.10468 16.9167 6.27116ZM11.8902 24.9695C11.6891 25.5467 11.6288 26.1383 11.6888 26.7079C10.6936 26.599 9.71933 26.4205 8.77091 26.1774C7.34869 25.813 6.14331 24.8603 5.48317 23.5489C5.28748 23.1602 5.10498 22.7637 4.93626 22.36C4.21933 20.6446 4.50505 18.6377 5.83254 17.3361C7.93699 15.2727 10.8199 14.0003 14 14.0003C15.2915 14.0003 16.5339 14.2102 17.6951 14.5976C17.6366 14.6849 17.5808 14.7755 17.5277 14.8693L16.8024 16.1514C15.9139 15.8903 14.9735 15.7503 14 15.7503C11.2963 15.7503 8.84831 16.83 7.05774 18.5857C6.30659 19.3222 6.07326 20.5423 6.55091 21.6851C6.70372 22.0508 6.86901 22.4099 7.04628 22.7621C7.47367 23.6111 8.26111 24.2402 9.20536 24.4822C10.0774 24.7057 10.9738 24.8697 11.8902 24.9695ZM26.5969 28.0003C27.6729 28.0003 28.3472 26.8152 27.8131 25.8631L22.2162 15.8862C21.6782 14.9273 20.3218 14.9273 19.7838 15.8862L14.1869 25.8631C13.6528 26.8152 14.3272 28.0003 15.4031 28.0003H26.5969ZM20.125 19.542C20.125 19.0587 20.5168 18.667 21 18.667C21.4833 18.667 21.875 19.0587 21.875 19.542V21.8753C21.875 22.3586 21.4833 22.7503 21 22.7503C20.5168 22.7503 20.125 22.3586 20.125 21.8753V19.542ZM20.125 24.792C20.125 24.3087 20.5168 23.917 21 23.917C21.4833 23.917 21.875 24.3087 21.875 24.792C21.875 25.2752 21.4833 25.667 21 25.667C20.5168 25.667 20.125 25.2752 20.125 24.792Z" fill="#18202A"/>
</g>
<defs>
<clipPath id="clip0_2294_13796">
<rect width="28" height="28" fill="white"/>
</clipPath>
</defs>
</svg>
