<svg width="28" height="28" viewBox="0 0 28 28" fill="none" xmlns="http://www.w3.org/2000/svg">
<path fill-rule="evenodd" clip-rule="evenodd" d="M14 7.58301C14.9665 7.58301 15.75 6.79951 15.75 5.83301C15.75 4.86651 14.9665 4.08301 14 4.08301C13.0335 4.08301 12.25 4.86651 12.25 5.83301C12.25 6.79951 13.0335 7.58301 14 7.58301ZM17.5 5.83301C17.5 7.46387 16.3846 8.83421 14.875 9.22274V13.1247H22.4583C23.4248 13.1247 24.2083 13.9082 24.2083 14.8747V18.7766C25.7179 19.1651 26.8333 20.5355 26.8333 22.1663C26.8333 24.0993 25.2663 25.6663 23.3333 25.6663C21.4003 25.6663 19.8333 24.0993 19.8333 22.1663C19.8333 20.5355 20.9487 19.1651 22.4583 18.7766V14.8747H14.875V18.7766C16.3846 19.1651 17.5 20.5355 17.5 22.1663C17.5 24.0993 15.933 25.6663 14 25.6663C12.067 25.6663 10.5 24.0993 10.5 22.1663C10.5 20.5355 11.6154 19.1651 13.125 18.7766V14.8747H5.54166V18.7766C7.05123 19.1651 8.16666 20.5355 8.16666 22.1663C8.16666 24.0993 6.59965 25.6663 4.66666 25.6663C2.73366 25.6663 1.16666 24.0993 1.16666 22.1663C1.16666 20.5355 2.28208 19.1651 3.79166 18.7766V14.8747C3.79166 13.9082 4.57516 13.1247 5.54166 13.1247H13.125V9.22274C11.6154 8.83421 10.5 7.46387 10.5 5.83301C10.5 3.90001 12.067 2.33301 14 2.33301C15.933 2.33301 17.5 3.90001 17.5 5.83301ZM6.41666 22.1663C6.41666 23.1328 5.63315 23.9163 4.66666 23.9163C3.70016 23.9163 2.91666 23.1328 2.91666 22.1663C2.91666 21.1998 3.70016 20.4163 4.66666 20.4163C5.63315 20.4163 6.41666 21.1998 6.41666 22.1663ZM15.75 22.1663C15.75 23.1328 14.9665 23.9163 14 23.9163C13.0335 23.9163 12.25 23.1328 12.25 22.1663C12.25 21.1998 13.0335 20.4163 14 20.4163C14.9665 20.4163 15.75 21.1998 15.75 22.1663ZM25.0833 22.1663C25.0833 23.1328 24.2998 23.9163 23.3333 23.9163C22.3668 23.9163 21.5833 23.1328 21.5833 22.1663C21.5833 21.1998 22.3668 20.4163 23.3333 20.4163C24.2998 20.4163 25.0833 21.1998 25.0833 22.1663Z" fill="#18202A"/>
</svg>
