<svg width="28" height="28" viewBox="0 0 28 28" fill="none" xmlns="http://www.w3.org/2000/svg">
<path fill-rule="evenodd" clip-rule="evenodd" d="M14 4.66659C14 4.02225 13.4762 3.49533 12.8336 3.5427C6.29254 4.02484 1.16663 8.52261 1.16663 13.9999C1.16663 19.7989 6.91231 24.4999 14 24.4999C15.3723 24.4999 16.6943 24.3237 17.934 23.9974L21.5626 25.5093C22.3699 25.8457 23.2466 25.207 23.174 24.3355L22.9404 21.5326C25.3415 19.6246 26.8333 16.9548 26.8333 13.9999C26.8333 13.9404 26.8327 13.8809 26.8315 13.8216C26.8199 13.2537 26.3312 12.8333 25.7631 12.8333H25.5603C24.9517 12.8333 24.5 13.3914 24.5 13.9999C24.5 16.1237 23.4336 18.1603 21.4887 19.7059L20.5115 20.4825L20.6894 22.6177L18.1031 21.54L17.3401 21.7409C16.295 22.016 15.1726 22.1666 14 22.1666C7.74134 22.1666 3.49996 18.0943 3.49996 13.9999C3.49996 10.1652 7.22055 6.34974 12.8344 5.88133C13.4765 5.82776 14 5.31092 14 4.66659Z" fill="#18202A"/>
<path d="M19.8333 2.33325C20.4776 2.33325 21 2.725 21 3.20825V4.10907C23.0342 4.54192 25.3818 6.70937 25.3818 8.16658C25.3818 8.72564 24.6569 8.46918 23.7064 8.13288C22.8657 7.8354 21.8484 7.47546 21 7.5622V13.9999C21 15.9329 19.433 17.4999 17.5 17.4999C15.567 17.4999 14 15.9329 14 13.9999C14 12.0669 15.567 10.4999 17.5 10.4999C17.909 10.4999 18.3017 10.5701 18.6666 10.6991V3.20825C18.6666 2.725 19.189 2.33325 19.8333 2.33325Z" fill="#18202A"/>
</svg>
