<svg width="28" height="28" viewBox="0 0 28 28" fill="none" xmlns="http://www.w3.org/2000/svg">
<path fill-rule="evenodd" clip-rule="evenodd" d="M20.5311 4.52909C20.7003 4.6196 20.8893 4.66696 21.0812 4.66699H21C24.2217 4.66699 26.8333 7.27866 26.8333 10.5003V19.8337C26.8333 23.0553 24.2217 25.667 21 25.667H7C3.77834 25.667 1.16666 23.0553 1.16666 19.8337V10.5003C1.16666 7.27866 3.77834 4.66699 7 4.66699H6.91854C7.11044 4.66696 7.29938 4.6196 7.4686 4.52909C7.63793 4.43852 7.78228 4.30756 7.88885 4.14783L8.83619 2.72566C9.15578 2.24624 9.58878 1.85313 10.0968 1.58122C10.6048 1.30932 11.172 1.16703 11.7482 1.16699H16.2515C16.8277 1.16703 17.395 1.30932 17.9029 1.58122C18.4109 1.85313 18.8439 2.24624 19.1635 2.72566L20.1109 4.14783C20.2174 4.30756 20.3618 4.43852 20.5311 4.52909ZM10.459 11.4045C11.3599 10.4855 12.6128 9.91699 14 9.91699C16.1651 9.91699 18.0061 11.3047 18.6821 13.2392L17.3763 13.4258C17.0259 13.4758 16.7402 13.732 16.6524 14.0748C16.5645 14.4177 16.6919 14.7796 16.975 14.992L19.3083 16.742C19.6949 17.0319 20.2434 16.9536 20.5333 16.567L22.2833 14.2337C22.4957 13.9505 22.5166 13.5674 22.3363 13.2629C22.1559 12.9583 21.8099 12.7924 21.4596 12.8425L20.4393 12.9882C19.6241 10.202 17.0497 8.16699 14 8.16699C12.1236 8.16699 10.4258 8.93854 9.20933 10.1795C8.87103 10.5245 8.87654 11.0785 9.22163 11.4168C9.56671 11.7551 10.1207 11.7496 10.459 11.4045ZM8.69167 13.0087C8.30507 12.7187 7.75662 12.7971 7.46667 13.1837L5.71667 15.517C5.50432 15.8001 5.48344 16.1833 5.66375 16.4878C5.84406 16.7923 6.19006 16.9582 6.54041 16.9082L7.56075 16.7624C8.37593 19.5486 10.9503 21.5837 14 21.5837C15.8764 21.5837 17.5742 20.8121 18.7907 19.5712C19.129 19.2261 19.1235 18.6721 18.7784 18.3338C18.4333 17.9955 17.8793 18.001 17.541 18.3461C16.6401 19.2651 15.3872 19.8337 14 19.8337C11.8349 19.8337 9.99388 18.4459 9.31794 16.5114L10.6237 16.3249C10.9741 16.2748 11.2598 16.0186 11.3476 15.6758C11.4355 15.333 11.3081 14.971 11.025 14.7587L8.69167 13.0087Z" fill="#18202A"/>
</svg>
