<svg width="28" height="28" viewBox="0 0 28 28" fill="none" xmlns="http://www.w3.org/2000/svg">
<path d="M4.66671 5.83341C4.66671 5.18908 4.14437 4.66675 3.50004 4.66675C2.85571 4.66675 2.33337 5.18908 2.33337 5.83341V22.1667C2.33337 22.8111 2.85571 23.3334 3.50004 23.3334C4.14437 23.3334 4.66671 22.8111 4.66671 22.1667V15.1667L14 15.1667V22.1667C14 22.8111 14.5224 23.3334 15.1667 23.3334C15.811 23.3334 16.3334 22.8111 16.3334 22.1667V5.83341C16.3334 5.18908 15.811 4.66675 15.1667 4.66675C14.5224 4.66675 14 5.18908 14 5.83341V12.8334H4.66671V5.83341Z" fill="#18202A"/>
<path d="M25.6667 12.8334C25.6667 12.4032 25.4299 12.0078 25.0505 11.8048C24.6712 11.6018 24.2109 11.624 23.8529 11.8627L20.3529 14.196C19.8168 14.5534 19.6719 15.2778 20.0293 15.8139C20.3867 16.35 21.1111 16.4949 21.6472 16.1375L23.3334 15.0134V22.1667C23.3334 22.8111 23.8557 23.3334 24.5 23.3334C25.1444 23.3334 25.6667 22.8111 25.6667 22.1667V12.8334Z" fill="#18202A"/>
</svg>
