<svg width="28" height="28" viewBox="0 0 28 28" fill="none" xmlns="http://www.w3.org/2000/svg">
<path fill-rule="evenodd" clip-rule="evenodd" d="M12.8333 3.50033C7.67867 3.50033 3.5 7.679 3.5 12.8337C3.5 17.637 7.12947 21.5942 11.7949 22.11C12.4353 22.1808 12.8971 22.7573 12.8263 23.3978C12.7555 24.0382 12.1789 24.5 11.5385 24.4292C5.70397 23.7842 1.16666 18.8396 1.16666 12.8337C1.16666 6.39034 6.39001 1.16699 12.8333 1.16699C18.8393 1.16699 23.7839 5.7043 24.4289 11.5388C24.4996 12.1792 24.0379 12.7558 23.3974 12.8266C22.757 12.8974 22.1804 12.4356 22.1096 11.7952C21.5939 7.1298 17.6367 3.50033 12.8333 3.50033ZM12.8333 8.16699C10.256 8.16699 8.16666 10.2563 8.16666 12.8337C8.16666 14.7455 9.31648 16.3913 10.9671 17.1125C11.5575 17.3705 11.827 18.0583 11.5691 18.6487C11.3111 19.2391 10.6233 19.5087 10.0329 19.2507C7.56307 18.1716 5.83333 15.7059 5.83333 12.8337C5.83333 8.96767 8.96734 5.83366 12.8333 5.83366C15.7056 5.83366 18.1712 7.5634 19.2504 10.0332C19.5083 10.6237 19.2388 11.3114 18.6484 11.5694C18.0579 11.8274 17.3702 11.5579 17.1122 10.9674C16.391 9.31681 14.7451 8.16699 12.8333 8.16699ZM12.8974 13.997C12.6821 13.3204 13.3198 12.6826 13.9965 12.8979L24.5985 16.2712C25.2977 16.4937 25.4291 17.4261 24.8186 17.8331L22.2745 19.5292L26.6271 23.8818C26.9688 24.2235 26.9688 24.7775 26.6271 25.1192L25.1187 26.6276C24.777 26.9693 24.223 26.9693 23.8813 26.6276L19.5287 22.275L17.8326 24.8191C17.4256 25.4296 16.4932 25.2982 16.2707 24.5991L12.8974 13.997Z" fill="#18202A"/>
</svg>
