<svg width="28" height="28" viewBox="0 0 28 28" fill="none" xmlns="http://www.w3.org/2000/svg">
<path fill-rule="evenodd" clip-rule="evenodd" d="M5.83333 4.66699C6.47766 4.66699 7 5.18933 7 5.83366V9.33366C7 12.5553 9.61167 15.167 12.8333 15.167H20.5167L16.675 11.3253C16.2194 10.8697 16.2194 10.131 16.675 9.67537C17.1307 9.21976 17.8693 9.21976 18.325 9.67537L24.1583 15.5087C24.6139 15.9643 24.6139 16.703 24.1583 17.1586L18.325 22.992C17.8693 23.4476 17.1307 23.4476 16.675 22.992C16.2194 22.5363 16.2194 21.7976 16.675 21.342L20.5167 17.5003H12.8333C8.32301 17.5003 4.66666 13.844 4.66666 9.33366V5.83366C4.66666 5.18933 5.189 4.66699 5.83333 4.66699Z" fill="#18202A"/>
</svg>
