<svg width="28" height="28" viewBox="0 0 28 28" fill="none" xmlns="http://www.w3.org/2000/svg">
<g clip-path="url(#clip0_3293_9042)">
<path fill-rule="evenodd" clip-rule="evenodd" d="M16.3333 4.6665C16.9776 4.6665 17.5 5.18884 17.5 5.83317V6.70817H18.0833C18.7276 6.70817 19.25 7.2305 19.25 7.87484C19.25 8.51917 18.7276 9.0415 18.0833 9.0415H17.5V17.4998C17.5 18.1442 16.9776 18.6665 16.3333 18.6665C15.7813 18.6665 15.3189 18.2832 15.1977 17.7683C14.4612 18.3317 13.5405 18.6665 12.5416 18.6665C10.1254 18.6665 8.16663 16.7077 8.16663 14.2915C8.16663 11.8753 10.1254 9.9165 12.5416 9.9165C13.5265 9.9165 14.4354 10.242 15.1666 10.7912V9.0415H14.5833C13.939 9.0415 13.4166 8.51917 13.4166 7.87484C13.4166 7.2305 13.939 6.70817 14.5833 6.70817H15.1666V5.83317C15.1666 5.18884 15.689 4.6665 16.3333 4.6665ZM12.5416 16.3332C13.6692 16.3332 14.5833 15.4191 14.5833 14.2915C14.5833 13.1639 13.6692 12.2498 12.5416 12.2498C11.414 12.2498 10.5 13.1639 10.5 14.2915C10.5 15.4191 11.414 16.3332 12.5416 16.3332Z" fill="#18202A"/>
<path d="M9.33329 19.8332C8.68896 19.8332 8.16663 20.3555 8.16663 20.9998C8.16663 21.6442 8.68896 22.1665 9.33329 22.1665H16.3333C16.9776 22.1665 17.5 21.6442 17.5 20.9998C17.5 20.3555 16.9776 19.8332 16.3333 19.8332H9.33329Z" fill="#18202A"/>
<path fill-rule="evenodd" clip-rule="evenodd" d="M26.8333 13.9998C26.8333 21.0875 21.0876 26.8332 14 26.8332C6.9123 26.8332 1.16663 21.0875 1.16663 13.9998C1.16663 6.91218 6.9123 1.1665 14 1.1665C21.0876 1.1665 26.8333 6.91218 26.8333 13.9998ZM24.5 13.9998C24.5 19.7988 19.7989 24.4998 14 24.4998C8.20097 24.4998 3.49996 19.7988 3.49996 13.9998C3.49996 8.20085 8.20097 3.49984 14 3.49984C19.7989 3.49984 24.5 8.20085 24.5 13.9998Z" fill="#18202A"/>
</g>
<defs>
<clipPath id="clip0_3293_9042">
<rect width="28" height="28" fill="white"/>
</clipPath>
</defs>
</svg>
