<svg width="32" height="32" viewBox="0 0 32 32" fill="none" xmlns="http://www.w3.org/2000/svg">
<path fill-rule="evenodd" clip-rule="evenodd" d="M18.284 3.07615C17.9103 3.23093 17.6667 3.59557 17.6667 4.00003V9.68405C14.1032 9.80917 10.2863 10.6362 7.25573 12.975C3.89072 15.5719 1.66669 19.8972 1.66669 26.6667C1.66669 27.118 1.96893 27.5133 2.4044 27.6317C2.83988 27.75 3.30067 27.5621 3.5291 27.1729C5.31575 24.129 6.69903 22.342 8.73926 21.248C10.6643 20.2157 13.2975 19.7349 17.6667 19.6735V25.3334C17.6667 25.7378 17.9103 26.1025 18.284 26.2572C18.6577 26.412 19.0878 26.3265 19.3738 26.0405L30.0405 15.3738C30.431 14.9833 30.431 14.3501 30.0405 13.9596L19.3738 3.29292C19.0878 3.00692 18.6577 2.92137 18.284 3.07615ZM27.9191 14.6667L19.6667 22.9191V18.6667C19.6667 18.1144 19.219 17.6667 18.6667 17.6667C13.6419 17.6667 10.3264 18.1275 7.79411 19.4854C6.2534 20.3116 5.05433 21.4422 3.94839 22.8852C4.59905 18.8294 6.3174 16.2255 8.47764 14.5584C11.2947 12.3843 15.0369 11.6667 18.6667 11.6667C19.219 11.6667 19.6667 11.219 19.6667 10.6667V6.41424L27.9191 14.6667Z" fill="#18202A"/>
</svg>
