<svg width="32" height="32" viewBox="0 0 32 32" fill="none" xmlns="http://www.w3.org/2000/svg">
<g clip-path="url(#clip0_3444_9559)">
<path d="M21.3333 2.6665C23.0749 2.6665 24.5566 3.77958 25.1057 5.33317H6.89423C7.44335 3.77958 8.925 2.6665 10.6666 2.6665H21.3333Z" fill="#18202A"/>
<path fill-rule="evenodd" clip-rule="evenodd" d="M6.66663 6.6665C4.45749 6.6665 2.66663 8.45736 2.66663 10.6665V18.6665C2.66663 20.4081 3.7797 21.8898 5.33329 22.4389V25.3332C5.33329 27.5423 7.12415 29.3332 9.33329 29.3332H22.6666C24.8758 29.3332 26.6666 27.5423 26.6666 25.3332V22.4389C28.2202 21.8898 29.3333 20.4081 29.3333 18.6665V10.6665C29.3333 8.45736 27.5424 6.6665 25.3333 6.6665H6.66663ZM25.3333 11.9998C26.0697 11.9998 26.6666 11.4029 26.6666 10.6665C26.6666 9.93012 26.0697 9.33317 25.3333 9.33317C24.5969 9.33317 24 9.93012 24 10.6665C24 11.4029 24.5969 11.9998 25.3333 11.9998ZM24 15.9998C24 15.2635 23.403 14.6665 22.6666 14.6665H9.33329C8.59691 14.6665 7.99996 15.2635 7.99996 15.9998V25.3332C7.99996 26.0695 8.59691 26.6665 9.33329 26.6665H22.6666C23.403 26.6665 24 26.0695 24 25.3332V15.9998Z" fill="#18202A"/>
</g>
<defs>
<clipPath id="clip0_3444_9559">
<rect width="32" height="32" fill="white"/>
</clipPath>
</defs>
</svg>
