<svg width="32" height="32" viewBox="0 0 32 32" fill="none" xmlns="http://www.w3.org/2000/svg">
<path d="M2.66666 16.0003C2.66666 14.5276 3.86057 13.3337 5.33333 13.3337H6.66666C8.13942 13.3337 9.33333 14.5276 9.33333 16.0003V26.667C9.33333 28.1397 8.13942 29.3337 6.66666 29.3337H5.33333C3.86057 29.3337 2.66666 28.1397 2.66666 26.667V16.0003Z" fill="#18202A"/>
<path d="M12.6667 5.33366C12.6667 3.8609 13.8606 2.66699 15.3333 2.66699H16.6667C18.1394 2.66699 19.3333 3.8609 19.3333 5.33366V26.667C19.3333 28.1397 18.1394 29.3337 16.6667 29.3337H15.3333C13.8606 29.3337 12.6667 28.1398 12.6667 26.667V5.33366Z" fill="#18202A"/>
<path d="M22.6667 10.667C22.6667 9.19423 23.8606 8.00033 25.3333 8.00033H26.6667C28.1394 8.00033 29.3333 9.19423 29.3333 10.667V26.667C29.3333 28.1397 28.1394 29.3337 26.6667 29.3337H25.3333C23.8606 29.3337 22.6667 28.1397 22.6667 26.667V10.667Z" fill="#18202A"/>
</svg>
