<svg width="32" height="32" viewBox="0 0 32 32" fill="none" xmlns="http://www.w3.org/2000/svg">
<path d="M27.824 22.1733C28.1145 21.6174 28.3664 21.04 28.577 20.445C28.8226 19.7508 28.459 18.9889 27.7648 18.7432C27.0706 18.4976 26.3087 18.8612 26.063 19.5554C25.9893 19.7638 25.9092 19.9695 25.823 20.1723L27.824 22.1733Z" fill="#18202A"/>
<path d="M11.8322 6.18148C12.4138 5.93514 13.0181 5.74005 13.6386 5.59965C15.396 5.20202 17.2256 5.25605 18.9564 5.75671C20.6873 6.25737 22.2632 7.18834 23.537 8.46275C23.5468 8.47261 23.5568 8.48232 23.567 8.49186L27.3006 12.0001H24C23.2636 12.0001 22.6667 12.597 22.6667 13.3334C22.6667 14.0698 23.2636 14.6667 24 14.6667H30.6667C31.403 14.6667 32 14.0698 32 13.3334V6.66675C32 5.93037 31.403 5.33341 30.6667 5.33341C29.9303 5.33341 29.3333 5.93037 29.3333 6.66675V10.251L25.4078 6.56242C23.8183 4.97719 21.8541 3.81889 19.6974 3.19505C17.5338 2.56923 15.2469 2.50169 13.0501 2.99873C11.926 3.25308 10.8442 3.65103 9.83022 4.17951L11.8322 6.18148Z" fill="#18202A"/>
<path d="M4.93437 3.05489C4.34663 2.55405 3.51598 2.53173 3.02381 3.02389C2.50265 3.54506 2.55839 4.44577 3.14831 5.03569L5.67299 7.56037C4.70129 8.74806 3.93849 10.0988 3.42305 11.5554C3.17739 12.2496 3.54101 13.0115 4.23521 13.2571C4.9294 13.5028 5.6913 13.1392 5.93696 12.445C6.3194 11.3642 6.87206 10.3563 7.5704 9.45777L22.5411 24.4285C21.311 25.3816 19.8848 26.056 18.3614 26.4007C16.604 26.7983 14.7744 26.7443 13.0436 26.2437C11.3127 25.743 9.73682 24.812 8.46305 23.5376C8.4532 23.5278 8.4432 23.5181 8.43304 23.5085L4.69936 20.0001H8C8.73638 20.0001 9.33333 19.4031 9.33333 18.6667C9.33333 17.9304 8.73638 17.3334 8 17.3334H1.33333C0.596954 17.3334 0 17.9304 0 18.6667V25.3334C0 26.0698 0.596954 26.6667 1.33333 26.6667C2.06971 26.6667 2.66667 26.0698 2.66667 25.3334V21.7493L6.59214 25.4379C8.18169 27.0232 10.1459 28.1815 12.3026 28.8053C14.4662 29.4311 16.7531 29.4987 18.9499 29.0016C20.9643 28.5458 22.8427 27.6289 24.4387 26.3261L26.9644 28.8518C27.5543 29.4417 28.455 29.4974 28.9762 28.9763C29.4684 28.4841 29.446 27.6534 28.9452 27.0657L4.93437 3.05489Z" fill="#18202A"/>
</svg>
