<svg width="32" height="32" viewBox="0 0 32 32" fill="none" xmlns="http://www.w3.org/2000/svg">
<path fill-rule="evenodd" clip-rule="evenodd" d="M9.33333 1.33301C6.38781 1.33301 4 3.72082 4 6.66634V25.333C4 28.2785 6.38781 30.6663 9.33333 30.6663L9.33333 1.33301ZM10.6667 1.33301V30.6663H22.6667C25.6122 30.6663 28 28.2785 28 25.333V6.66634C28 3.72082 25.6122 1.33301 22.6667 1.33301H10.6667ZM15.6667 6.66634C15.1144 6.66634 14.6667 7.11406 14.6667 7.66634V8.33301C14.6667 8.88529 15.1144 9.33301 15.6667 9.33301H23C23.5523 9.33301 24 8.88529 24 8.33301V7.66634C24 7.11406 23.5523 6.66634 23 6.66634H15.6667ZM16 11.6663C16 11.1141 16.4477 10.6663 17 10.6663H21.6667C22.219 10.6663 22.6667 11.1141 22.6667 11.6663V12.333C22.6667 12.8853 22.219 13.333 21.6667 13.333H17C16.4477 13.333 16 12.8853 16 12.333V11.6663Z" fill="#18202A"/>
</svg>
