<svg width="32" height="32" viewBox="0 0 32 32" fill="none" xmlns="http://www.w3.org/2000/svg">
<path fill-rule="evenodd" clip-rule="evenodd" d="M2.66669 6.66663C2.66669 4.45749 4.45755 2.66663 6.66669 2.66663H10.6667C12.8758 2.66663 14.6667 4.45749 14.6667 6.66663V10.6666C14.6667 12.8758 12.8758 14.6666 10.6667 14.6666H6.66669C4.45755 14.6666 2.66669 12.8758 2.66669 10.6666V6.66663ZM4.66669 6.66663C4.66669 5.56206 5.56212 4.66663 6.66669 4.66663H10.6667C11.7713 4.66663 12.6667 5.56206 12.6667 6.66663V10.6666C12.6667 11.7712 11.7713 12.6666 10.6667 12.6666H6.66669C5.56212 12.6666 4.66669 11.7712 4.66669 10.6666V6.66663Z" fill="#18202A"/>
<path fill-rule="evenodd" clip-rule="evenodd" d="M2.66669 21.3333C2.66669 19.1242 4.45755 17.3333 6.66669 17.3333H10.6667C12.8758 17.3333 14.6667 19.1242 14.6667 21.3333V25.3333C14.6667 27.5424 12.8758 29.3333 10.6667 29.3333H6.66669C4.45755 29.3333 2.66669 27.5424 2.66669 25.3333V21.3333ZM4.66669 21.3333C4.66669 20.2287 5.56212 19.3333 6.66669 19.3333H10.6667C11.7713 19.3333 12.6667 20.2287 12.6667 21.3333V25.3333C12.6667 26.4379 11.7713 27.3333 10.6667 27.3333H6.66669C5.56212 27.3333 4.66669 26.4379 4.66669 25.3333V21.3333Z" fill="#18202A"/>
<path fill-rule="evenodd" clip-rule="evenodd" d="M21.3334 2.66663C19.1242 2.66663 17.3334 4.45749 17.3334 6.66663V10.6666C17.3334 12.8758 19.1242 14.6666 21.3334 14.6666H25.3334C27.5425 14.6666 29.3334 12.8758 29.3334 10.6666V6.66663C29.3334 4.45749 27.5425 2.66663 25.3334 2.66663H21.3334ZM27.3334 6.66663C27.3334 5.56206 26.4379 4.66663 25.3334 4.66663H21.3334C20.2288 4.66663 19.3334 5.56206 19.3334 6.66663V10.6666C19.3334 11.7712 20.2288 12.6666 21.3334 12.6666H25.3334C26.4379 12.6666 27.3334 11.7712 27.3334 10.6666V6.66663Z" fill="#18202A"/>
<path fill-rule="evenodd" clip-rule="evenodd" d="M17.3334 21.3333C17.3334 19.1242 19.1242 17.3333 21.3334 17.3333H25.3334C27.5425 17.3333 29.3334 19.1242 29.3334 21.3333V25.3333C29.3334 27.5424 27.5425 29.3333 25.3334 29.3333H21.3334C19.1242 29.3333 17.3334 27.5424 17.3334 25.3333V21.3333ZM19.3334 21.3333C19.3334 20.2287 20.2288 19.3333 21.3334 19.3333H25.3334C26.4379 19.3333 27.3334 20.2287 27.3334 21.3333V25.3333C27.3334 26.4379 26.4379 27.3333 25.3334 27.3333H21.3334C20.2288 27.3333 19.3334 26.4379 19.3334 25.3333V21.3333Z" fill="#18202A"/>
</svg>
