<svg width="32" height="32" viewBox="0 0 32 32" fill="none" xmlns="http://www.w3.org/2000/svg">
<path fill-rule="evenodd" clip-rule="evenodd" d="M30.6667 15.588C30.6667 22.8983 24.9102 29.3335 16.0136 29.3335C14.5844 29.3335 13.2029 29.1747 11.8969 28.8655L8.26234 30.543C7.42196 30.9309 6.45173 30.3655 6.37487 29.4431L6.09473 26.0814C3.18429 23.7235 1.3606 20.1511 1.3606 15.588C0.837341 7.95168 7.92098 1.3335 16.0136 1.3335C24.1063 1.3335 30.6667 6.9335 30.6667 15.588ZM12 15.3335C12 16.4381 11.1046 17.3335 10 17.3335C8.89543 17.3335 8 16.4381 8 15.3335C8 14.2289 8.89543 13.3335 10 13.3335C11.1046 13.3335 12 14.2289 12 15.3335ZM16 17.3335C17.1046 17.3335 18 16.4381 18 15.3335C18 14.2289 17.1046 13.3335 16 13.3335C14.8954 13.3335 14 14.2289 14 15.3335C14 16.4381 14.8954 17.3335 16 17.3335ZM22 17.3335C23.1046 17.3335 24 16.4381 24 15.3335C24 14.2289 23.1046 13.3335 22 13.3335C20.8954 13.3335 20 14.2289 20 15.3335C20 16.4381 20.8954 17.3335 22 17.3335Z" fill="#18202A"/>
</svg>
