<svg width="32" height="32" viewBox="0 0 32 32" fill="none" xmlns="http://www.w3.org/2000/svg">
<g clip-path="url(#clip0_2294_13457)">
<path d="M5.45882 4.91989L15.7588 2.16C18.2476 1.49314 20.8057 2.97007 21.4726 5.45881L22.0832 7.73774L24.2028 7.92319L23.4038 4.94134C22.4512 1.38599 18.7967 -0.723906 15.2414 0.228745L4.94134 2.98863C1.38599 3.94128 -0.723906 7.59574 0.228745 11.1511L2.98863 21.4511C3.59044 23.6971 5.27046 25.3662 7.32257 26.0509C7.14237 25.3432 7.07631 24.5936 7.14356 23.8249L7.14607 23.7963C6.0869 23.2028 5.25894 22.199 4.91989 20.9336L2.16 10.6336C1.49315 8.14486 2.97008 5.58674 5.45882 4.91989Z" fill="#18202A"/>
<path fill-rule="evenodd" clip-rule="evenodd" d="M25.7416 10.0647L15.1188 9.13534C12.5521 8.91078 10.2893 10.8095 10.0647 13.3762L9.13534 23.999C8.91078 26.5657 10.8095 28.8285 13.3762 29.0531L23.999 29.9825C26.5657 30.207 28.8285 28.3083 29.0531 25.7416L29.9825 15.1188C30.207 12.5521 28.3083 10.2893 25.7416 10.0647ZM15.293 7.14357C11.6263 6.82277 8.39374 9.5352 8.07294 13.202L7.14356 23.8249C6.82276 27.4916 9.5352 30.7241 13.202 31.0449L23.8248 31.9742C27.4915 32.295 30.7241 29.5826 31.0449 25.9158L31.9742 15.293C32.295 11.6263 29.5826 8.39374 25.9158 8.07294L15.293 7.14357Z" fill="#18202A"/>
<path fill-rule="evenodd" clip-rule="evenodd" d="M15.2019 15.8329C15.9352 15.8971 16.5817 15.3546 16.6459 14.6213C16.71 13.8879 16.1676 13.2414 15.4342 13.1772C14.7008 13.1131 14.0543 13.6556 13.9902 14.3889C13.926 15.1223 14.4685 15.7688 15.2019 15.8329ZM18.6377 14.7955C18.4773 16.6289 16.861 17.9851 15.0276 17.8247C13.1942 17.6643 11.838 16.048 11.9984 14.2147C12.1588 12.3813 13.7751 11.0251 15.6085 11.1855C17.4418 11.3459 18.7981 12.9621 18.6377 14.7955Z" fill="#18202A"/>
<path fill-rule="evenodd" clip-rule="evenodd" d="M24.3192 17.2661L30.524 24.7176L28.9875 25.997L23.9765 19.9791L17.5047 24.6493L14.3463 22.1447L8.94356 26.0773L7.76692 24.4608L14.398 19.634L17.5615 22.1426L24.3192 17.2661Z" fill="#18202A"/>
</g>
<defs>
<clipPath id="clip0_2294_13457">
<rect width="32" height="32" fill="white"/>
</clipPath>
</defs>
</svg>
