<svg width="32" height="32" viewBox="0 0 32 32" fill="none" xmlns="http://www.w3.org/2000/svg">
<path fill-rule="evenodd" clip-rule="evenodd" d="M16 28.6667C22.9956 28.6667 28.6666 22.9956 28.6666 16C28.6666 9.00443 22.9956 3.33337 16 3.33337C9.00437 3.33337 3.33331 9.00443 3.33331 16C3.33331 22.9956 9.00437 28.6667 16 28.6667ZM16 30.6667C24.1002 30.6667 30.6666 24.1002 30.6666 16C30.6666 7.89986 24.1002 1.33337 16 1.33337C7.8998 1.33337 1.33331 7.89986 1.33331 16C1.33331 24.1002 7.8998 30.6667 16 30.6667Z" fill="#18202A"/>
<path fill-rule="evenodd" clip-rule="evenodd" d="M13.9595 9.9596C14.3501 9.56908 14.9832 9.56908 15.3738 9.9596L20.7071 15.2929C21.0976 15.6835 21.0976 16.3166 20.7071 16.7071L15.3738 22.0405C14.9832 22.431 14.3501 22.431 13.9595 22.0405C13.569 21.65 13.569 21.0168 13.9595 20.6263L18.5858 16L13.9595 11.3738C13.569 10.9833 13.569 10.3501 13.9595 9.9596Z" fill="#18202A"/>
</svg>
