<svg width="32" height="32" viewBox="0 0 32 32" fill="none" xmlns="http://www.w3.org/2000/svg">
<path fill-rule="evenodd" clip-rule="evenodd" d="M28.36 24.0651C28.5568 23.6399 28.6666 23.1661 28.6666 22.6667V13.3333H3.33331V22.6667C3.33331 24.5076 4.8257 26 6.66665 26H16.0791C15.6778 26.6138 15.443 27.2996 15.3646 28H6.66665C3.72113 28 1.33331 25.6122 1.33331 22.6667V9.33333C1.33331 6.38781 3.72113 4 6.66665 4H11.6765C12.7373 4 13.7547 4.42143 14.5049 5.17157L16 6.66667H25.3333C28.2788 6.66667 30.6666 9.05448 30.6666 12V22.6667C30.6666 23.6107 30.4213 24.4975 29.991 25.2668C29.8775 25.1533 29.7566 25.044 29.6281 24.9395C29.2312 24.6165 28.8072 24.3239 28.36 24.0651ZM13.0907 6.58579L15.1716 8.66667H25.3333C27.1743 8.66667 28.6666 10.1591 28.6666 12H3.33331V9.33333C3.33331 7.49238 4.8257 6 6.66665 6H11.6765C12.2069 6 12.7156 6.21071 13.0907 6.58579Z" fill="#18202A"/>
<path d="M18.3009 26.4908C18.5158 26.3159 18.7411 26.152 18.9757 26C20.2153 25.1971 21.7162 24.7273 23.3333 24.7273C24.6429 24.7273 25.8762 25.0354 26.9562 25.5789C27.4623 25.8336 27.9348 26.1401 28.3657 26.4907C28.4865 26.5891 28.596 26.6953 28.6942 26.808C29.4316 27.6551 29.5288 28.8704 28.9967 29.8843L28.9789 29.918L28.9606 29.9524C28.5245 30.7699 27.728 31.3637 26.7883 31.5909C25.6838 31.858 24.5261 32 23.3333 32C22.1405 32 20.9828 31.858 19.8783 31.5909C18.9386 31.3637 18.1421 30.7699 17.706 29.9524L17.67 29.8843C17.3566 29.2873 17.2615 28.6204 17.3868 28C17.5026 27.4266 17.8068 26.8929 18.3009 26.4908Z" fill="#18202A"/>
<path d="M23.3333 23.2727C25.3889 23.2727 26.4167 21.4545 26.4167 19.1818C26.4167 17.3636 25.3889 16 23.3333 16C21.2777 16 20.2499 17.3636 20.2499 19.1818C20.2499 21.4545 21.2777 23.2727 23.3333 23.2727Z" fill="#18202A"/>
</svg>
