<svg width="32" height="32" viewBox="0 0 32 32" fill="none" xmlns="http://www.w3.org/2000/svg">
<path fill-rule="evenodd" clip-rule="evenodd" d="M16 9.33301C17.4728 9.33301 18.6667 8.1391 18.6667 6.66634C18.6667 5.19358 17.4728 3.99967 16 3.99967C14.5272 3.99967 13.3333 5.19358 13.3333 6.66634C13.3333 8.1391 14.5272 9.33301 16 9.33301ZM21.3333 6.66634C21.3333 9.15146 19.6336 11.2396 17.3333 11.8317V27.9254C20.0254 27.6245 22.5514 26.4189 24.4853 24.485C26.4192 22.5511 27.6248 20.025 27.9257 17.333H25.3333C24.597 17.333 24 16.7361 24 15.9997C24 15.2633 24.597 14.6663 25.3333 14.6663H29.3333C30.0697 14.6663 30.6667 15.2633 30.6667 15.9997C30.6667 19.8895 29.1214 23.62 26.3709 26.3706C23.6204 29.1211 19.8898 30.6663 16 30.6663C12.1102 30.6663 8.37963 29.1211 5.6291 26.3706C2.87856 23.62 1.33333 19.8895 1.33333 15.9997C1.33333 15.6461 1.4738 15.3069 1.72385 15.0569C1.9739 14.8068 2.31304 14.6663 2.66666 14.6663H6.66666C7.40304 14.6663 8 15.2633 8 15.9997C8 16.7361 7.40304 17.333 6.66666 17.333H4.07426C4.37516 20.025 5.58081 22.5511 7.51471 24.485C9.44862 26.4189 11.9746 27.6245 14.6667 27.9254V11.8317C12.3664 11.2396 10.6667 9.15146 10.6667 6.66634C10.6667 3.72082 13.0545 1.33301 16 1.33301C18.9455 1.33301 21.3333 3.72082 21.3333 6.66634Z" fill="#18202A"/>
</svg>
