<svg width="32" height="32" viewBox="0 0 32 32" fill="none" xmlns="http://www.w3.org/2000/svg">
<path d="M6 13.3335C7.10457 13.3335 8 12.4381 8 11.3335C8 10.2289 7.10457 9.3335 6 9.3335C4.89543 9.3335 4 10.2289 4 11.3335C4 12.4381 4.89543 13.3335 6 13.3335Z" fill="#18202A"/>
<path d="M6 22.6668C7.10457 22.6668 8 21.7714 8 20.6668C8 19.5623 7.10457 18.6668 6 18.6668C4.89543 18.6668 4 19.5623 4 20.6668C4 21.7714 4.89543 22.6668 6 22.6668Z" fill="#18202A"/>
<path d="M17.3333 11.3335C17.3333 12.4381 16.4379 13.3335 15.3333 13.3335C14.2288 13.3335 13.3333 12.4381 13.3333 11.3335C13.3333 10.2289 14.2288 9.3335 15.3333 9.3335C16.4379 9.3335 17.3333 10.2289 17.3333 11.3335Z" fill="#18202A"/>
<path d="M15.3333 22.6668C16.4379 22.6668 17.3333 21.7714 17.3333 20.6668C17.3333 19.5623 16.4379 18.6668 15.3333 18.6668C14.2288 18.6668 13.3333 19.5623 13.3333 20.6668C13.3333 21.7714 14.2288 22.6668 15.3333 22.6668Z" fill="#18202A"/>
<path d="M26.6667 11.3335C26.6667 12.4381 25.7712 13.3335 24.6667 13.3335C23.5621 13.3335 22.6667 12.4381 22.6667 11.3335C22.6667 10.2289 23.5621 9.3335 24.6667 9.3335C25.7712 9.3335 26.6667 10.2289 26.6667 11.3335Z" fill="#18202A"/>
<path d="M24.6667 22.6668C25.7712 22.6668 26.6667 21.7714 26.6667 20.6668C26.6667 19.5623 25.7712 18.6668 24.6667 18.6668C23.5621 18.6668 22.6667 19.5623 22.6667 20.6668C22.6667 21.7714 23.5621 22.6668 24.6667 22.6668Z" fill="#18202A"/>
</svg>
