<svg width="32" height="32" viewBox="0 0 32 32" fill="none" xmlns="http://www.w3.org/2000/svg">
<path fill-rule="evenodd" clip-rule="evenodd" d="M16 28.6667C22.9956 28.6667 28.6666 22.9956 28.6666 16C28.6666 9.00443 22.9956 3.33337 16 3.33337C9.00437 3.33337 3.33331 9.00443 3.33331 16C3.33331 22.9956 9.00437 28.6667 16 28.6667ZM16 30.6667C24.1002 30.6667 30.6666 24.1002 30.6666 16C30.6666 7.89986 24.1002 1.33337 16 1.33337C7.8998 1.33337 1.33331 7.89986 1.33331 16C1.33331 24.1002 7.8998 30.6667 16 30.6667Z" fill="#18202A"/>
<path fill-rule="evenodd" clip-rule="evenodd" d="M22.023 11.2759C22.4229 11.6568 22.4383 12.2898 22.0574 12.6897L14.4384 20.6897C14.2434 20.8945 13.9708 21.0071 13.6881 20.9997C13.4054 20.9923 13.139 20.8655 12.955 20.6508L9.90739 17.0953C9.54797 16.676 9.59653 16.0447 10.0159 15.6852C10.4352 15.3258 11.0665 15.3744 11.4259 15.7937L13.7533 18.509L20.6092 11.3104C20.9901 10.9105 21.623 10.895 22.023 11.2759Z" fill="#18202A"/>
</svg>
