<svg width="32" height="32" viewBox="0 0 32 32" fill="none" xmlns="http://www.w3.org/2000/svg">
<path fill-rule="evenodd" clip-rule="evenodd" d="M30.6667 16C30.6667 7.89986 24.1002 1.33337 16 1.33337C7.89982 1.33337 1.33333 7.89987 1.33333 16C1.33333 24.1002 7.89982 30.6667 16 30.6667C24.1002 30.6667 30.6667 24.1002 30.6667 16ZM9.72385 16.3906C9.20315 16.9113 9.20315 17.7555 9.72385 18.2762C10.2446 18.7969 11.0888 18.7969 11.6095 18.2762L16 13.8857L20.3905 18.2762C20.9112 18.7969 21.7554 18.7969 22.2761 18.2762C22.7968 17.7555 22.7968 16.9113 22.2761 16.3906L16.9428 11.0572C16.4221 10.5365 15.5779 10.5365 15.0572 11.0572L9.72385 16.3906Z" fill="#18202A"/>
</svg>
