<svg width="32" height="32" viewBox="0 0 32 32" fill="none" xmlns="http://www.w3.org/2000/svg">
<g clip-path="url(#clip0_2294_10715)">
<path fill-rule="evenodd" clip-rule="evenodd" d="M16 14.6663C19.5556 14.6663 21.3333 11.333 21.3333 7.16634C21.3333 3.83301 19.5556 1.33301 16 1.33301C12.4444 1.33301 10.6667 3.83301 10.6667 7.16634C10.6667 11.333 12.4444 14.6663 16 14.6663ZM16.0001 17.333C17.297 17.333 18.5507 17.5182 19.7362 17.8635C17.4676 19.5662 16 22.2782 16 25.333C16 27.2921 16.6036 29.1102 17.635 30.6115C17.0947 30.6479 16.5495 30.6663 16 30.6663C13.9368 30.6663 11.9344 30.406 10.0239 29.9164C8.39852 29.4998 7.02094 28.4111 6.26648 26.9123C6.2456 26.8709 6.22484 26.8293 6.20422 26.7876C5.16126 24.6815 5.51592 22.1012 7.29556 20.5661C9.63129 18.5513 12.6734 17.333 16.0001 17.333ZM32 25.333C32 29.0149 29.0152 31.9997 25.3333 31.9997C21.6515 31.9997 18.6667 29.0149 18.6667 25.333C18.6667 21.6511 21.6515 18.6664 25.3333 18.6664C29.0152 18.6664 32 21.6511 32 25.333ZM25.3333 20.6664C26.0697 20.6664 26.6667 21.2633 26.6667 21.9997V23.9997H28.6667C29.4031 23.9997 30 24.5967 30 25.333C30 26.0694 29.4031 26.6664 28.6667 26.6664H26.6667V28.6664C26.6667 29.4028 26.0697 29.9997 25.3333 29.9997C24.597 29.9997 24 29.4028 24 28.6664V26.6664H22C21.2636 26.6664 20.6667 26.0694 20.6667 25.333C20.6667 24.5967 21.2636 23.9997 22 23.9997H24V21.9997C24 21.2633 24.597 20.6664 25.3333 20.6664Z" fill="#18202A"/>
</g>
<defs>
<clipPath id="clip0_2294_10715">
<rect width="32" height="32" fill="white"/>
</clipPath>
</defs>
</svg>
