<svg width="32" height="32" viewBox="0 0 32 32" fill="none" xmlns="http://www.w3.org/2000/svg">
<path fill-rule="evenodd" clip-rule="evenodd" d="M17 3.33333V13C17 14.1046 17.8954 15 19 15H28.6666C29.7712 15 30.6666 14.1046 30.6666 13V7.99999C30.6666 4.3181 27.6819 1.33333 24 1.33333H19C17.8954 1.33333 17 2.22876 17 3.33333ZM15 3.33333C15 2.22876 14.1045 1.33333 13 1.33333H7.99998C4.31808 1.33333 1.33331 4.3181 1.33331 8V24C1.33331 27.6819 4.31808 30.6667 7.99998 30.6667H13C14.1045 30.6667 15 29.7712 15 28.6667V3.33333ZM17 19V28.6667C17 29.7712 17.8954 30.6667 19 30.6667H24C27.6819 30.6667 30.6666 27.6819 30.6666 24V19C30.6666 17.8954 29.7712 17 28.6666 17H19C17.8954 17 17 17.8954 17 19ZM19 28.6667H24C26.5773 28.6667 28.6666 26.5773 28.6666 24V19H19V28.6667ZM19 13H28.6666V7.99999C28.6666 5.42267 26.5773 3.33333 24 3.33333H19V13ZM13 3.33333H7.99998C5.42265 3.33333 3.33331 5.42267 3.33331 8V24C3.33331 26.5773 5.42265 28.6667 7.99998 28.6667H13V3.33333Z" fill="#18202A"/>
</svg>
