<svg width="32" height="32" viewBox="0 0 32 32" fill="none" xmlns="http://www.w3.org/2000/svg">
<path fill-rule="evenodd" clip-rule="evenodd" d="M1.33333 6.6665C1.33333 4.45736 3.12419 2.6665 5.33333 2.6665H22.6667C24.4083 2.6665 25.8899 3.77958 26.4391 5.33317H5.33333V6.6665H25.3333C28.2788 6.6665 30.6667 9.05432 30.6667 11.9998V23.9998C30.6667 26.9454 28.2788 29.3332 25.3333 29.3332H6.66666C3.72114 29.3332 1.33333 26.9454 1.33333 23.9998V6.6665ZM18.6667 14.6665C17.1939 14.6665 16 15.8604 16 17.3332V19.9998C16 21.4726 17.1939 22.6665 18.6667 22.6665H28V14.6665H18.6667Z" fill="#18202A"/>
<path d="M21.3333 18.6665C21.3333 19.4029 20.7364 19.9998 20 19.9998C19.2636 19.9998 18.6667 19.4029 18.6667 18.6665C18.6667 17.9301 19.2636 17.3332 20 17.3332C20.7364 17.3332 21.3333 17.9301 21.3333 18.6665Z" fill="#18202A"/>
</svg>
