<svg width="32" height="32" viewBox="0 0 32 32" fill="none" xmlns="http://www.w3.org/2000/svg">
<path d="M23.5149 17.8961L26.9839 11.5363L27.0572 11.6096C27.5779 12.1303 28.4221 12.1303 28.9428 11.6096C29.2028 11.3495 29.333 11.0088 29.3333 10.6681V10.6654C29.333 10.3246 29.2028 9.98396 28.9428 9.72394L27.6314 8.41249C27.6174 8.39789 27.6031 8.38356 27.5884 8.36953L23.6305 4.41165C23.6165 4.39698 23.6022 4.38268 23.5876 4.36875L22.2761 3.05727C21.7554 2.53657 20.9112 2.53657 20.3905 3.05727C19.8698 3.57797 19.8698 4.42219 20.3905 4.94289L20.4638 5.01618L14.104 8.48517L23.5149 17.8961Z" fill="#18202A"/>
<path d="M5.72385 5.72394C6.24455 5.20324 7.08877 5.20324 7.60947 5.72394L26.2771 24.3916C26.7978 24.9123 26.7978 25.7565 26.2771 26.2772C25.7564 26.7979 24.9122 26.7979 24.3915 26.2772L20.8662 22.752L19.8443 24.6255L20.9428 25.7239C21.4635 26.2446 21.4635 27.0889 20.9428 27.6096C20.4221 28.1303 19.5779 28.1303 19.0572 27.6096L12.6667 21.219L7.60948 26.2762C7.08878 26.7969 6.24456 26.7969 5.72386 26.2762C5.20316 25.7555 5.20316 24.9113 5.72386 24.3906L10.781 19.3334L4.39052 12.9429C3.86983 12.4222 3.86983 11.578 4.39052 11.0573C4.91122 10.5366 5.75544 10.5366 6.27614 11.0573L7.37462 12.1557L9.24813 11.1338L5.72385 7.60956C5.20315 7.08886 5.20315 6.24464 5.72385 5.72394Z" fill="#18202A"/>
</svg>
