<svg width="32" height="32" viewBox="0 0 32 32" fill="none" xmlns="http://www.w3.org/2000/svg">
<path fill-rule="evenodd" clip-rule="evenodd" d="M5.33331 7.6665C5.33331 7.11422 5.78103 6.6665 6.33331 6.6665H25.6666C28.4281 6.6665 30.6666 8.90508 30.6666 11.6665V17.3332C30.6666 17.8855 30.2189 18.3332 29.6666 18.3332C29.1144 18.3332 28.6666 17.8855 28.6666 17.3332V11.6665C28.6666 10.0096 27.3235 8.6665 25.6666 8.6665H6.33331C5.78103 8.6665 5.33331 8.21879 5.33331 7.6665ZM2.33331 12.3332C2.8856 12.3332 3.33331 12.7809 3.33331 13.3332V23.9998C3.33331 25.6567 4.67646 26.9998 6.33331 26.9998H25.6666C27.3235 26.9998 28.6666 25.6567 28.6666 23.9998V19.9998C28.6666 19.4476 29.1144 18.9998 29.6666 18.9998C30.2189 18.9998 30.6666 19.4476 30.6666 19.9998V23.9998C30.6666 26.7613 28.4281 28.9998 25.6666 28.9998H6.33331C3.57189 28.9998 1.33331 26.7613 1.33331 23.9998V13.3332C1.33331 12.7809 1.78103 12.3332 2.33331 12.3332Z" fill="#18202A"/>
<path fill-rule="evenodd" clip-rule="evenodd" d="M1.33331 7.6665C1.33331 4.90508 3.57189 2.6665 6.33331 2.6665H22.3333C24.3584 2.6665 26 4.30813 26 6.33317V7.6665C26 8.21879 25.5523 8.6665 25 8.6665C24.4477 8.6665 24 8.21879 24 7.6665V6.33317C24 5.4127 23.2538 4.6665 22.3333 4.6665H6.33331C4.67646 4.6665 3.33331 6.00965 3.33331 7.6665V12.9998C3.33331 13.5521 2.8856 13.9998 2.33331 13.9998C1.78103 13.9998 1.33331 13.5521 1.33331 12.9998V7.6665Z" fill="#18202A"/>
<path fill-rule="evenodd" clip-rule="evenodd" d="M15 16.9998C15 14.9748 16.6416 13.3332 18.6666 13.3332H28.3333C29.622 13.3332 30.6666 14.3778 30.6666 15.6665V21.6665C30.6666 22.9552 29.622 23.9998 28.3333 23.9998H18.6666C16.6416 23.9998 15 22.3582 15 20.3332V16.9998ZM18.6666 15.3332C17.7462 15.3332 17 16.0794 17 16.9998V20.3332C17 21.2536 17.7462 21.9998 18.6666 21.9998H28.3333C28.5174 21.9998 28.6666 21.8506 28.6666 21.6665V15.6665C28.6666 15.4824 28.5174 15.3332 28.3333 15.3332H18.6666Z" fill="#18202A"/>
<path d="M21.3333 18.6665C21.3333 19.4029 20.7364 19.9998 20 19.9998C19.2636 19.9998 18.6666 19.4029 18.6666 18.6665C18.6666 17.9301 19.2636 17.3332 20 17.3332C20.7364 17.3332 21.3333 17.9301 21.3333 18.6665Z" fill="#18202A"/>
</svg>
