<svg width="32" height="32" viewBox="0 0 32 32" fill="none" xmlns="http://www.w3.org/2000/svg">
<path fill-rule="evenodd" clip-rule="evenodd" d="M16.3333 2.66667C15.4129 2.66667 14.6667 3.41286 14.6667 4.33334V14.3333C14.6667 14.5025 14.5406 14.6423 14.3773 14.6638H14.2893C14.126 14.6423 14 14.5025 14 14.3333V7.00001C14 6.07953 13.2538 5.33334 12.3333 5.33334C11.4129 5.33334 10.6667 6.07953 10.6667 7.00001L10.6667 14.6638L10.6667 16.6667C10.6667 16.6669 10.6667 16.6672 10.6667 16.6675V17.3333L8.70667 15.3733C8.31405 14.9812 7.80166 14.7314 7.25088 14.6638C6.7001 14.5962 6.1425 14.7145 5.66667 15C5.21993 15.2678 4.89531 15.6994 4.76184 16.2029C4.62838 16.7064 4.6966 17.242 4.952 17.696C7.45733 22.1493 8.91733 24.6947 9.33333 25.3333C9.4201 25.4669 9.50721 25.6002 9.59467 25.7333C10.3234 26.8398 11.3154 27.748 12.4818 28.3764C13.6475 29.0043 14.9507 29.3331 16.2746 29.3333H16.2773H19.3333C21.9807 29.3333 23.2946 28.0192 24.3015 27.0122L24.3235 26.9902C25.8238 25.4899 26 23.4551 26 21.3333V16.6667V14.6638V9.66667C26 8.7462 25.2538 8.00001 24.3333 8.00001C23.4129 8.00001 22.6667 8.7462 22.6667 9.66667V14.3333C22.6667 14.5025 22.5406 14.6423 22.3773 14.6638H22.2893C22.126 14.6423 22 14.5025 22 14.3333V7.00001C22 6.07953 21.2538 5.33334 20.3333 5.33334C19.4129 5.33334 18.6667 6.07953 18.6667 7.00001V14.3333C18.6667 14.5025 18.5406 14.6423 18.3773 14.6638H18.2893C18.126 14.6423 18 14.5025 18 14.3333V4.33334C18 3.41286 17.2538 2.66667 16.3333 2.66667Z" fill="#18202A"/>
</svg>
