<svg width="32" height="32" viewBox="0 0 32 32" fill="none" xmlns="http://www.w3.org/2000/svg">
<path fill-rule="evenodd" clip-rule="evenodd" d="M25.3333 6.00001H6.66665C4.8257 6.00001 3.33331 7.49239 3.33331 9.33334V25.3333C3.33331 27.1743 4.8257 28.6667 6.66665 28.6667H25.3333C27.1743 28.6667 28.6666 27.1743 28.6666 25.3333V9.33334C28.6666 7.49239 27.1743 6.00001 25.3333 6.00001ZM6.66665 4.00001C3.72113 4.00001 1.33331 6.38783 1.33331 9.33334V25.3333C1.33331 28.2789 3.72113 30.6667 6.66665 30.6667H25.3333C28.2788 30.6667 30.6666 28.2789 30.6666 25.3333V9.33334C30.6666 6.38783 28.2788 4.00001 25.3333 4.00001H6.66665Z" fill="#18202A"/>
<path d="M7.99998 2.33334C7.99998 1.78106 8.4477 1.33334 8.99998 1.33334C9.55226 1.33334 9.99998 1.78106 9.99998 2.33334V8.33334C9.99998 8.88563 9.55226 9.33334 8.99998 9.33334C8.4477 9.33334 7.99998 8.88563 7.99998 8.33334V2.33334Z" fill="#18202A"/>
<path d="M22 2.33334C22 1.78106 22.4477 1.33334 23 1.33334C23.5523 1.33334 24 1.78106 24 2.33334V8.33334C24 8.88563 23.5523 9.33334 23 9.33334C22.4477 9.33334 22 8.88563 22 8.33334V2.33334Z" fill="#18202A"/>
<path d="M6.66665 13C6.66665 12.4477 7.11436 12 7.66665 12H24.3333C24.8856 12 25.3333 12.4477 25.3333 13C25.3333 13.5523 24.8856 14 24.3333 14H7.66665C7.11436 14 6.66665 13.5523 6.66665 13Z" fill="#18202A"/>
<path d="M6.66665 18.6667C6.66665 17.9303 7.2636 17.3333 7.99998 17.3333C8.73636 17.3333 9.33331 17.9303 9.33331 18.6667C9.33331 19.4031 8.73636 20 7.99998 20C7.2636 20 6.66665 19.4031 6.66665 18.6667Z" fill="#18202A"/>
<path d="M6.66665 24C6.66665 23.2636 7.2636 22.6667 7.99998 22.6667C8.73636 22.6667 9.33331 23.2636 9.33331 24C9.33331 24.7364 8.73636 25.3333 7.99998 25.3333C7.2636 25.3333 6.66665 24.7364 6.66665 24Z" fill="#18202A"/>
<path d="M12 18.6667C12 17.9303 12.5969 17.3333 13.3333 17.3333C14.0697 17.3333 14.6666 17.9303 14.6666 18.6667C14.6666 19.4031 14.0697 20 13.3333 20C12.5969 20 12 19.4031 12 18.6667Z" fill="#18202A"/>
<path d="M12 24C12 23.2636 12.5969 22.6667 13.3333 22.6667C14.0697 22.6667 14.6666 23.2636 14.6666 24C14.6666 24.7364 14.0697 25.3333 13.3333 25.3333C12.5969 25.3333 12 24.7364 12 24Z" fill="#18202A"/>
<path d="M17.3333 18.6667C17.3333 17.9303 17.9303 17.3333 18.6666 17.3333C19.403 17.3333 20 17.9303 20 18.6667C20 19.4031 19.403 20 18.6666 20C17.9303 20 17.3333 19.4031 17.3333 18.6667Z" fill="#18202A"/>
<path d="M17.3333 24C17.3333 23.2636 17.9303 22.6667 18.6666 22.6667C19.403 22.6667 20 23.2636 20 24C20 24.7364 19.403 25.3333 18.6666 25.3333C17.9303 25.3333 17.3333 24.7364 17.3333 24Z" fill="#18202A"/>
<path d="M22.6666 18.6667C22.6666 17.9303 23.2636 17.3333 24 17.3333C24.7364 17.3333 25.3333 17.9303 25.3333 18.6667C25.3333 19.4031 24.7364 20 24 20C23.2636 20 22.6666 19.4031 22.6666 18.6667Z" fill="#18202A"/>
<path d="M22.6666 24C22.6666 23.2636 23.2636 22.6667 24 22.6667C24.7364 22.6667 25.3333 23.2636 25.3333 24C25.3333 24.7364 24.7364 25.3333 24 25.3333C23.2636 25.3333 22.6666 24.7364 22.6666 24Z" fill="#18202A"/>
</svg>
