<svg width="32" height="32" viewBox="0 0 32 32" fill="none" xmlns="http://www.w3.org/2000/svg">
<path fill-rule="evenodd" clip-rule="evenodd" d="M6.66666 1.33301C3.72114 1.33301 1.33333 3.72082 1.33333 6.66634V25.333C1.33333 28.2785 3.72114 30.6663 6.66666 30.6663H25.3333C28.2788 30.6663 30.6667 28.2785 30.6667 25.333V6.66634C30.6667 3.72082 28.2788 1.33301 25.3333 1.33301H6.66666ZM8 5.33301C6.52724 5.33301 5.33333 6.52692 5.33333 7.99967C5.33333 9.47243 6.52724 10.6663 8 10.6663C9.47275 10.6663 10.6667 9.47243 10.6667 7.99967C10.6667 6.52692 9.47275 5.33301 8 5.33301ZM13.3333 7.99967C13.3333 7.2633 13.9303 6.66634 14.6667 6.66634H25.3333C26.0697 6.66634 26.6667 7.2633 26.6667 7.99967C26.6667 8.73605 26.0697 9.33301 25.3333 9.33301H14.6667C13.9303 9.33301 13.3333 8.73605 13.3333 7.99967ZM6.66666 14.6663C5.93028 14.6663 5.33333 15.2633 5.33333 15.9997V25.333C5.33333 26.0694 5.93028 26.6663 6.66666 26.6663H25.3333C26.0697 26.6663 26.6667 26.0694 26.6667 25.333V15.9997C26.6667 15.2633 26.0697 14.6663 25.3333 14.6663H6.66666Z" fill="#18202A"/>
</svg>
