<svg width="32" height="32" viewBox="0 0 32 32" fill="none" xmlns="http://www.w3.org/2000/svg">
<path fill-rule="evenodd" clip-rule="evenodd" d="M4 1.33333C4 0.596954 4.59695 0 5.33333 0H26.6667C27.403 0 28 0.596954 28 1.33333V4.79427C28 5.20803 27.8079 5.59836 27.48 5.85077L24.3433 8.2657C27.3858 10.7094 29.3333 14.4606 29.3333 18.6667C29.3333 26.0305 23.3638 32 16 32C8.6362 32 2.66666 26.0305 2.66666 18.6667C2.66666 14.4606 4.61421 10.7094 7.65672 8.2657L4.51995 5.85077C4.19209 5.59835 4 5.20803 4 4.79427V1.33333ZM22.6667 2.66667V7.1171C21.443 6.40923 20.0964 5.89026 18.6667 5.60005V2.66667H22.6667ZM13.3333 2.66667V5.60005C11.9036 5.89026 10.557 6.40923 9.33333 7.1171V2.66667H13.3333ZM16 26.6667C20.4183 26.6667 24 23.0849 24 18.6667C24 14.2484 20.4183 10.6667 16 10.6667C11.5817 10.6667 8 14.2484 8 18.6667C8 23.0849 11.5817 26.6667 16 26.6667ZM17.5006 16.605L16.3848 14.2538C16.2241 13.9154 15.7759 13.9154 15.6152 14.2538L14.4994 16.605C14.4352 16.7401 14.3142 16.8331 14.1749 16.8542L11.7058 17.2296C11.3464 17.2842 11.2056 17.7635 11.4702 18.0315L13.2356 19.8198C13.3421 19.9277 13.3909 20.0864 13.3653 20.2416L12.946 22.7842C12.8835 23.163 13.249 23.4559 13.567 23.2819L15.8045 22.0581C15.9274 21.9909 16.0726 21.9909 16.1954 22.0581L18.433 23.2819C18.751 23.4559 19.1165 23.163 19.054 22.7842L18.6347 20.2416C18.6091 20.0864 18.6579 19.9277 18.7644 19.8198L20.5298 18.0315C20.7944 17.7635 20.6536 17.2842 20.2942 17.2296L17.8251 16.8542C17.6858 16.8331 17.5647 16.7401 17.5006 16.605Z" fill="#18202A"/>
</svg>
