<svg width="32" height="32" viewBox="0 0 32 32" fill="none" xmlns="http://www.w3.org/2000/svg">
<path d="M6.66667 13.3333C8.13943 13.3333 9.33333 12.1394 9.33333 10.6667C9.33333 9.19391 8.13943 8 6.66667 8C5.19391 8 4 9.19391 4 10.6667C4 12.1394 5.19391 13.3333 6.66667 13.3333Z" fill="#18202A"/>
<path d="M6.66667 24C8.13943 24 9.33333 22.8061 9.33333 21.3333C9.33333 19.8606 8.13943 18.6667 6.66667 18.6667C5.19391 18.6667 4 19.8606 4 21.3333C4 22.8061 5.19391 24 6.66667 24Z" fill="#18202A"/>
<path d="M18.6667 10.6667C18.6667 12.1394 17.4728 13.3333 16 13.3333C14.5272 13.3333 13.3333 12.1394 13.3333 10.6667C13.3333 9.19391 14.5272 8 16 8C17.4728 8 18.6667 9.19391 18.6667 10.6667Z" fill="#18202A"/>
<path d="M18.6667 21.3333C18.6667 22.8061 17.4728 24 16 24C14.5272 24 13.3333 22.8061 13.3333 21.3333C13.3333 19.8606 14.5272 18.6667 16 18.6667C17.4728 18.6667 18.6667 19.8606 18.6667 21.3333Z" fill="#18202A"/>
<path d="M28 21.3333C28 22.8061 26.8061 24 25.3333 24C23.8606 24 22.6667 22.8061 22.6667 21.3333C22.6667 19.8606 23.8606 18.6667 25.3333 18.6667C26.8061 18.6667 28 19.8606 28 21.3333Z" fill="#18202A"/>
<path d="M28 10.6667C28 12.1394 26.8061 13.3333 25.3333 13.3333C23.8606 13.3333 22.6667 12.1394 22.6667 10.6667C22.6667 9.19391 23.8606 8 25.3333 8C26.8061 8 28 9.19391 28 10.6667Z" fill="#18202A"/>
</svg>
