<svg width="32" height="32" viewBox="0 0 32 32" fill="none" xmlns="http://www.w3.org/2000/svg">
<path d="M28.6666 8.60621C27.585 6.75321 26.1017 5.14601 24.3073 3.91276C21.4293 1.93477 17.94 1.04859 14.4669 1.41363C10.9939 1.77866 7.76503 3.37094 5.36117 5.90408C2.95731 8.43721 1.53619 11.745 1.35343 15.2323C1.17066 18.7197 2.23824 22.1579 4.36414 24.9284C6.49004 27.699 9.53475 29.62 12.9506 30.3461C16.3665 31.0722 19.9293 30.5556 22.9983 28.8893C25.774 27.3822 27.9809 25.0241 29.3033 22.1752C29.5354 21.6751 29.2752 21.0958 28.7604 20.8982C28.2457 20.7006 27.6718 20.9599 27.434 21.4573C25.3952 25.7212 21.0416 28.6666 16 28.6666C9.00438 28.6666 3.33333 22.9956 3.33333 15.9999C3.33333 9.00434 9.00438 3.33328 16 3.33328C21.3476 3.33328 25.9212 6.64711 27.7793 11.3333H19.6666C19.1144 11.3333 18.6666 11.781 18.6666 12.3333C18.6666 12.8855 19.1144 13.3333 19.6666 13.3333H29.3333C30.0697 13.3333 30.6666 12.7363 30.6666 11.9999V2.33325C30.6666 1.78097 30.2189 1.33325 29.6666 1.33325C29.1144 1.33325 28.6666 1.78097 28.6666 2.33325V8.60621Z" fill="#18202A"/>
</svg>
