<svg width="32" height="32" viewBox="0 0 32 32" fill="none" xmlns="http://www.w3.org/2000/svg">
<path d="M11.6667 2.6665C12.219 2.6665 12.6667 3.11422 12.6667 3.6665C12.6667 4.21879 12.219 4.6665 11.6667 4.6665H6.66669C5.56212 4.6665 4.66669 5.56193 4.66669 6.6665V11.6665C4.66669 12.2188 4.21897 12.6665 3.66669 12.6665C3.1144 12.6665 2.66669 12.2188 2.66669 11.6665V6.6665C2.66669 4.45736 4.45755 2.6665 6.66669 2.6665H11.6667Z" fill="#18202A"/>
<path d="M19.3334 3.6665C19.3334 4.21879 19.7811 4.6665 20.3334 4.6665H25.3334C26.4379 4.6665 27.3334 5.56193 27.3334 6.6665V11.6665C27.3334 12.2188 27.7811 12.6665 28.3334 12.6665C28.8856 12.6665 29.3334 12.2188 29.3334 11.6665V6.6665C29.3334 4.45737 27.5425 2.6665 25.3334 2.6665H20.3334C19.7811 2.6665 19.3334 3.11422 19.3334 3.6665Z" fill="#18202A"/>
<path d="M19.3334 28.3332C19.3334 27.7809 19.7811 27.3332 20.3334 27.3332H25.3334C26.4379 27.3332 27.3334 26.4377 27.3334 25.3332V20.3332C27.3334 19.7809 27.7811 19.3332 28.3334 19.3332C28.8856 19.3332 29.3334 19.7809 29.3334 20.3332V25.3332C29.3334 27.5423 27.5425 29.3332 25.3334 29.3332H20.3334C19.7811 29.3332 19.3334 28.8855 19.3334 28.3332Z" fill="#18202A"/>
<path d="M4.66669 20.3332C4.66669 19.7809 4.21897 19.3332 3.66669 19.3332C3.1144 19.3332 2.66669 19.7809 2.66669 20.3332V25.3332C2.66669 27.5423 4.45755 29.3332 6.66669 29.3332H11.6667C12.219 29.3332 12.6667 28.8855 12.6667 28.3332C12.6667 27.7809 12.219 27.3332 11.6667 27.3332H6.66669C5.56212 27.3332 4.66669 26.4377 4.66669 25.3332V20.3332Z" fill="#18202A"/>
</svg>
