<svg width="32" height="32" viewBox="0 0 32 32" fill="none" xmlns="http://www.w3.org/2000/svg">
<path fill-rule="evenodd" clip-rule="evenodd" d="M13.8613 2.49937C13.7756 1.95378 14.1483 1.43844 14.6985 1.39003C15.1275 1.35227 15.5616 1.33301 16 1.33301C24.1002 1.33301 30.6666 7.8995 30.6666 15.9997C30.6666 16.4381 30.6474 16.8722 30.6096 17.3012C30.5612 17.8513 30.0459 18.2241 29.5003 18.1383C28.9547 18.0526 28.586 17.5408 28.6285 16.9901C28.6538 16.6634 28.6666 16.3331 28.6666 15.9997C28.6666 9.00407 22.9956 3.33301 16 3.33301C15.6665 3.33301 15.3362 3.34587 15.0096 3.37111C14.4589 3.41365 13.9471 3.04495 13.8613 2.49937ZM7.39908 5.37825C7.05126 4.94925 7.11523 4.31644 7.56685 3.99854C8.27474 3.50026 9.02888 3.06291 9.82166 2.6942C10.3224 2.46131 10.9027 2.72184 11.1007 3.23739C11.2988 3.75295 11.0392 4.32785 10.541 4.56618C9.94326 4.85214 9.37127 5.1837 8.82958 5.55639C8.37458 5.86944 7.7469 5.80725 7.39908 5.37825ZM3.2377 11.1004C2.72214 10.9024 2.46161 10.3221 2.69451 9.82135C3.06322 9.02857 3.50057 8.27443 3.99885 7.56655C4.31675 7.11493 4.94956 7.05096 5.37856 7.39878C5.80755 7.7466 5.86975 8.37428 5.5567 8.82927C5.184 9.37097 4.85245 9.94296 4.56649 10.5407C4.32815 11.0389 3.75326 11.2985 3.2377 11.1004ZM1.33331 15.9997C1.33331 15.5613 1.35258 15.1272 1.39033 14.6982C1.43875 14.148 1.95408 13.7753 2.49967 13.861C3.04526 13.9468 3.41396 14.4586 3.37141 15.0092C3.34618 15.3359 3.33331 15.6662 3.33331 15.9997C3.33331 16.3331 3.34618 16.6634 3.37141 16.9901C3.41396 17.5407 3.04526 18.0526 2.49967 18.1383C1.95408 18.2241 1.43875 17.8513 1.39033 17.3012C1.35257 16.8722 1.33331 16.4381 1.33331 15.9997ZM5.37855 24.6006C4.94956 24.9484 4.31674 24.8844 3.99885 24.4328C3.50057 23.7249 3.06321 22.9708 2.69451 22.178C2.46161 21.6772 2.72214 21.097 3.2377 20.8989C3.75326 20.7009 4.32815 20.9604 4.56649 21.4586C4.85245 22.0564 5.184 22.6284 5.5567 23.1701C5.86975 23.6251 5.80755 24.2528 5.37855 24.6006ZM28.7623 20.8989C29.2778 21.097 29.5383 21.6772 29.3054 22.178C28.9367 22.9708 28.4994 23.7249 28.0011 24.4328C27.6832 24.8844 27.0504 24.9484 26.6214 24.6006C26.1924 24.2528 26.1302 23.6251 26.4433 23.1701C26.816 22.6284 27.1475 22.0564 27.4335 21.4586C27.6718 20.9604 28.2467 20.7009 28.7623 20.8989ZM11.1007 28.762C10.9027 29.2775 10.3224 29.538 9.82166 29.3051C9.02888 28.9364 8.27474 28.4991 7.56685 28.0008C7.11523 27.6829 7.05126 27.0501 7.39908 26.6211C7.7469 26.1921 8.37458 26.1299 8.82957 26.443C9.37127 26.8157 9.94326 27.1472 10.541 27.4332C11.0392 27.6715 11.2988 28.2464 11.1007 28.762ZM24.6009 26.6211C24.9487 27.0501 24.8847 27.6829 24.4331 28.0008C23.7252 28.4991 22.9711 28.9364 22.1783 29.3051C21.6775 29.538 21.0973 29.2775 20.8992 28.762C20.7012 28.2464 20.9607 27.6715 21.4589 27.4332C22.0567 27.1472 22.6287 26.8157 23.1704 26.443C23.6254 26.1299 24.2531 26.1921 24.6009 26.6211ZM16 30.6663C15.5616 30.6663 15.1275 30.6471 14.6985 30.6093C14.1483 30.5609 13.7756 30.0456 13.8613 29.5C13.9471 28.9544 14.4589 28.5857 15.0095 28.6282C15.3362 28.6535 15.6665 28.6663 16 28.6663C16.3334 28.6663 16.6637 28.6535 16.9904 28.6282C17.5411 28.5857 18.0529 28.9544 18.1386 29.5C18.2244 30.0456 17.8516 30.5609 17.3015 30.6093C16.8725 30.6471 16.4384 30.6663 16 30.6663ZM26.6666 15.9997C26.6666 21.8907 21.891 26.6663 16 26.6663C10.1089 26.6663 5.33331 21.8907 5.33331 15.9997C5.33331 10.1086 10.1089 5.33301 16 5.33301C21.891 5.33301 26.6666 10.1086 26.6666 15.9997ZM14.6666 11.333C14.6666 12.4376 13.7712 13.333 12.6666 13.333C11.5621 13.333 10.6666 12.4376 10.6666 11.333C10.6666 10.2284 11.5621 9.33301 12.6666 9.33301C13.7712 9.33301 14.6666 10.2284 14.6666 11.333ZM16 24.6663C20.3937 24.6663 24.0238 21.3968 24.5899 17.158L20 13.333L15.3333 18.6663L12 16.6663L8.27256 19.9278C9.70501 22.7401 12.6275 24.6663 16 24.6663Z" fill="#18202A"/>
</svg>
