<svg width="32" height="32" viewBox="0 0 32 32" fill="none" xmlns="http://www.w3.org/2000/svg">
<path fill-rule="evenodd" clip-rule="evenodd" d="M21.3333 3.3335H10.6666C8.8257 3.3335 7.33331 4.82588 7.33331 6.66683V28.0002L13.2 23.6002C14.8592 22.3557 17.1407 22.3557 18.8 23.6002L24.6666 28.0002V6.66683C24.6666 4.82588 23.1743 3.3335 21.3333 3.3335ZM10.6666 1.3335C7.72113 1.3335 5.33331 3.72131 5.33331 6.66683V29.3335C5.33331 30.4322 6.58766 31.0594 7.46665 30.4002L14.4 25.2002C15.3481 24.4891 16.6518 24.4891 17.6 25.2002L24.5333 30.4002C25.4123 31.0594 26.6666 30.4322 26.6666 29.3335V6.66683C26.6666 3.72131 24.2788 1.3335 21.3333 1.3335H10.6666Z" fill="#18202A"/>
<path d="M6.66665 8.00016H25.3333V10.0002H6.66665V8.00016Z" fill="#18202A"/>
</svg>
