<svg width="32" height="32" viewBox="0 0 32 32" fill="none" xmlns="http://www.w3.org/2000/svg">
<path fill-rule="evenodd" clip-rule="evenodd" d="M16 28.6668C22.9956 28.6668 28.6666 22.9958 28.6666 16.0002C28.6666 9.00456 22.9956 3.3335 16 3.3335C9.00437 3.3335 3.33331 9.00456 3.33331 16.0002C3.33331 22.9958 9.00437 28.6668 16 28.6668ZM30.6666 16.0002C30.6666 24.1003 24.1002 30.6668 16 30.6668C7.8998 30.6668 1.33331 24.1003 1.33331 16.0002C1.33331 7.89999 7.8998 1.3335 16 1.3335C24.1002 1.3335 30.6666 7.89999 30.6666 16.0002Z" fill="#18202A"/>
<path fill-rule="evenodd" clip-rule="evenodd" d="M10.1044 19.1732C10.5611 18.8627 11.1831 18.9812 11.4936 19.4379C11.9446 20.1011 12.5918 20.6638 13.3834 21.0595C14.1752 21.4554 15.077 21.6668 16 21.6668C16.9229 21.6668 17.8248 21.4554 18.6166 21.0595C19.4081 20.6638 20.0554 20.1011 20.5064 19.4379C20.8169 18.9812 21.4389 18.8627 21.8956 19.1732C22.3523 19.4837 22.4708 20.1057 22.1603 20.5624C21.5051 21.526 20.5886 22.3096 19.511 22.8484C18.4337 23.3871 17.2246 23.6668 16 23.6668C14.7754 23.6668 13.5663 23.3871 12.4889 22.8484C11.4113 22.3096 10.4949 21.526 9.8397 20.5624C9.52916 20.1057 9.64766 19.4837 10.1044 19.1732Z" fill="#18202A"/>
<path d="M13.3333 13.3335C13.3333 14.8063 12.4379 16.0002 11.3333 16.0002C10.2287 16.0002 9.33331 14.8063 9.33331 13.3335C9.33331 11.8607 10.2287 10.6668 11.3333 10.6668C12.4379 10.6668 13.3333 11.8607 13.3333 13.3335Z" fill="#18202A"/>
<path d="M22.6666 13.3335C22.6666 14.8063 21.7712 16.0002 20.6666 16.0002C19.5621 16.0002 18.6666 14.8063 18.6666 13.3335C18.6666 11.8607 19.5621 10.6668 20.6666 10.6668C21.7712 10.6668 22.6666 11.8607 22.6666 13.3335Z" fill="#18202A"/>
</svg>
