<svg width="32" height="32" viewBox="0 0 32 32" fill="none" xmlns="http://www.w3.org/2000/svg">
<path fill-rule="evenodd" clip-rule="evenodd" d="M23.0187 3.56181C23.9306 2.65476 25.4046 2.65673 26.3141 3.56623L28.4335 5.68566C29.343 6.59516 29.345 8.06913 28.4379 8.98106L18.3433 19.1299C18.1924 19.2816 17.9969 19.3809 17.7854 19.4132L14.0859 19.9787C12.8772 20.1634 11.8363 19.1225 12.0211 17.9139L12.5865 14.2143C12.6188 14.0028 12.7181 13.8073 12.8698 13.6564L23.0187 3.56181ZM24.8999 4.98044C24.7699 4.85052 24.5594 4.85023 24.4291 4.97981L23.4088 5.99464L26.0051 8.59093L27.0199 7.57064C27.1495 7.44037 27.1492 7.2298 27.0193 7.09987L24.8999 4.98044ZM24.5947 10.0089L21.9908 7.40506L14.5138 14.8421L14.0368 17.9629L17.1576 17.486L24.5947 10.0089Z" fill="#18202A"/>
<path d="M16 6.33333C16 5.78105 15.5523 5.33333 15 5.33333H6.66669C4.45755 5.33333 2.66669 7.1242 2.66669 9.33333V25.3333C2.66669 27.5425 4.45755 29.3333 6.66669 29.3333H22.6667C24.8758 29.3333 26.6667 27.5425 26.6667 25.3333V17C26.6667 16.4477 26.219 16 25.6667 16C25.1144 16 24.6667 16.4477 24.6667 17V25.3333C24.6667 26.4379 23.7713 27.3333 22.6667 27.3333H6.66669C5.56212 27.3333 4.66669 26.4379 4.66669 25.3333V9.33333C4.66669 8.22876 5.56212 7.33333 6.66669 7.33333H15C15.5523 7.33333 16 6.88562 16 6.33333Z" fill="#18202A"/>
</svg>
