<svg width="32" height="32" viewBox="0 0 32 32" fill="none" xmlns="http://www.w3.org/2000/svg">
<path fill-rule="evenodd" clip-rule="evenodd" d="M10.0003 26.3353C10.0003 25.783 10.448 25.3353 11.0003 25.3353H28.3336C28.8859 25.3353 29.3336 25.783 29.3336 26.3353C29.3336 26.8876 28.8859 27.3353 28.3336 27.3353H11.0003C10.448 27.3353 10.0003 26.8876 10.0003 26.3353Z" fill="#18202A"/>
<path fill-rule="evenodd" clip-rule="evenodd" d="M10.0003 5.00195C10.0003 4.44967 10.448 4.00195 11.0003 4.00195H28.3336C28.8859 4.00195 29.3336 4.44967 29.3336 5.00195C29.3336 5.55424 28.8859 6.00195 28.3336 6.00195H11.0003C10.448 6.00195 10.0003 5.55424 10.0003 5.00195Z" fill="#18202A"/>
<path d="M8.37404 12.3731C8.76456 11.9826 8.76456 11.3494 8.37404 10.9589C7.98351 10.5684 7.35035 10.5684 6.95982 10.9589L2.95982 14.9589C2.75895 15.1598 2.6614 15.4248 2.66717 15.6881C2.67105 16.0127 2.828 16.3004 3.06917 16.4825L6.95982 20.3731C7.35035 20.7636 7.98351 20.7636 8.37404 20.3731C8.76456 19.9826 8.76456 19.3494 8.37404 18.9589L6.10007 16.6849L28.324 16.6759C28.8819 16.6756 29.334 16.2232 29.3338 15.6653C29.3335 15.1074 28.8811 14.6553 28.3232 14.6555L6.08254 14.6646L8.37404 12.3731Z" fill="#18202A"/>
</svg>
