<svg width="32" height="32" viewBox="0 0 32 32" fill="none" xmlns="http://www.w3.org/2000/svg">
<path fill-rule="evenodd" clip-rule="evenodd" d="M27.9638 12.6668C27.8731 12.122 27.6146 11.6148 27.219 11.2191L18.1144 2.11454C17.7187 1.71888 17.2115 1.46039 16.6667 1.36969V1.3335H9.33333C6.38781 1.3335 4 3.72131 4 6.66683V25.3335C4 28.279 6.38781 30.6668 9.33333 30.6668H18.5015C18.027 30.0598 17.6316 29.388 17.3309 28.6668H9.33333C7.49238 28.6668 6 27.1744 6 25.3335V6.66683C6 4.82588 7.49238 3.3335 9.33333 3.3335H14.6667V14.6668H26V16.6921C26.6926 16.7448 27.3625 16.8789 28 17.0848V12.6668H27.9638ZM25.8047 12.6333C25.8156 12.6442 25.826 12.6553 25.836 12.6668H16.6667V3.49748C16.6782 3.50749 16.6893 3.51792 16.7002 3.52876L25.8047 12.6333Z" fill="#18202A"/>
<path fill-rule="evenodd" clip-rule="evenodd" d="M32 25.3335C32 29.0154 29.0152 32.0002 25.3333 32.0002C21.6514 32.0002 18.6667 29.0154 18.6667 25.3335C18.6667 21.6516 21.6514 18.6668 25.3333 18.6668C29.0152 18.6668 32 21.6516 32 25.3335ZM25 22.0002C25.5523 22.0002 26 22.4479 26 23.0002V25.9193L27.7071 27.6264C28.0976 28.0169 28.0976 28.6501 27.7071 29.0406C27.3166 29.4311 26.6834 29.4311 26.2929 29.0406L24.2929 27.0406C24.1054 26.8531 24 26.5987 24 26.3335V23.0002C24 22.4479 24.4477 22.0002 25 22.0002Z" fill="#18202A"/>
</svg>
