<svg width="32" height="32" viewBox="0 0 32 32" fill="none" xmlns="http://www.w3.org/2000/svg">
<path fill-rule="evenodd" clip-rule="evenodd" d="M14.6667 5.99984C14.6667 6.73622 15.2636 7.33317 16 7.33317C16.7364 7.33317 17.3334 6.73622 17.3334 5.99984C17.3334 5.26346 16.7364 4.6665 16 4.6665C15.2636 4.6665 14.6667 5.26346 14.6667 5.99984ZM12.6667 5.99984C12.6667 7.84079 14.1591 9.33317 16 9.33317C17.841 9.33317 19.3334 7.84079 19.3334 5.99984C19.3334 4.15889 17.841 2.6665 16 2.6665C14.1591 2.6665 12.6667 4.15889 12.6667 5.99984Z" fill="#18202A"/>
<path fill-rule="evenodd" clip-rule="evenodd" d="M14.6667 15.9998C14.6667 16.7362 15.2636 17.3332 16 17.3332C16.7364 17.3332 17.3334 16.7362 17.3334 15.9998C17.3334 15.2635 16.7364 14.6665 16 14.6665C15.2636 14.6665 14.6667 15.2635 14.6667 15.9998ZM12.6667 15.9998C12.6667 17.8408 14.1591 19.3332 16 19.3332C17.841 19.3332 19.3334 17.8408 19.3334 15.9998C19.3334 14.1589 17.841 12.6665 16 12.6665C14.1591 12.6665 12.6667 14.1589 12.6667 15.9998Z" fill="#18202A"/>
<path fill-rule="evenodd" clip-rule="evenodd" d="M14.6667 25.9998C14.6667 26.7362 15.2636 27.3332 16 27.3332C16.7364 27.3332 17.3334 26.7362 17.3334 25.9998C17.3334 25.2635 16.7364 24.6665 16 24.6665C15.2636 24.6665 14.6667 25.2635 14.6667 25.9998ZM12.6667 25.9998C12.6667 27.8408 14.1591 29.3332 16 29.3332C17.841 29.3332 19.3334 27.8408 19.3334 25.9998C19.3334 24.1589 17.841 22.6665 16 22.6665C14.1591 22.6665 12.6667 24.1589 12.6667 25.9998Z" fill="#18202A"/>
</svg>
