<svg width="32" height="32" viewBox="0 0 32 32" fill="none" xmlns="http://www.w3.org/2000/svg">
<path fill-rule="evenodd" clip-rule="evenodd" d="M6.36895 4.48165C5.77902 3.89172 4.87831 3.83598 4.35714 4.35714C3.83598 4.87831 3.89172 5.77902 4.48165 6.36895L7.5722 9.45949C7.30152 9.37721 6.99963 9.33333 6.66654 9.33333C4.88877 9.33333 3.99988 10.5833 3.99988 12.25C3.99988 14.3333 4.88877 16 6.66654 16C8.44432 16 9.33321 14.3333 9.33321 12.25C9.33321 11.8113 9.27163 11.4015 9.14847 11.0358L15.458 17.3453C13.2846 17.4419 11.2616 18.1166 9.53886 19.2194C7.79254 20.3373 7.20824 22.5649 7.90637 24.5174C8.11053 25.0884 8.33835 25.6481 8.58863 26.1954C9.2979 27.7465 10.7542 28.8205 12.4412 29.0713C13.6023 29.2439 14.7907 29.3333 15.9999 29.3333C17.2091 29.3333 18.3974 29.2439 19.5586 29.0713C21.2456 28.8205 22.7018 27.7465 23.4111 26.1954C23.5054 25.9892 23.5965 25.7813 23.6843 25.5716L25.6311 27.5184C26.221 28.1083 27.1217 28.164 27.6429 27.6429C28.164 27.1217 28.1083 26.221 27.5184 25.6311L6.36895 4.48165ZM19.3118 13.6608L12.7195 7.06841C13.3708 5.99657 14.4642 5.33333 15.9999 5.33333C18.6665 5.33333 19.9999 7.33333 19.9999 10C19.9999 11.3825 19.7705 12.6503 19.3118 13.6608ZM25.7563 18.7357C26.2911 19.4868 26.6556 20.3291 26.8566 21.2056L30.5133 24.8622C30.7135 24.5728 30.8739 24.2514 30.9861 23.9042C31.4827 22.3687 30.9314 20.6426 29.5036 19.8904C28.3613 19.2886 27.0965 18.8879 25.7563 18.7357ZM25.3332 16C27.111 16 27.9999 14.3333 27.9999 12.25C27.9999 10.5833 27.111 9.33333 25.3332 9.33333C23.5554 9.33333 22.6665 10.5833 22.6665 12.25C22.6665 14.3333 23.5554 16 25.3332 16ZM5.3954 25.4155C4.61208 23.2248 4.86119 20.6547 6.26445 18.7064C4.99158 18.8156 3.78255 19.1483 2.67681 19.6651C1.12073 20.3924 0.492831 22.2294 1.01817 23.8648C1.47781 25.2956 2.72599 26.3008 4.21751 26.4849C4.76223 26.5521 5.31261 26.6011 5.868 26.6312C5.69986 26.2314 5.54221 25.826 5.3954 25.4155Z" fill="#18202A"/>
</svg>
