<svg width="32" height="32" viewBox="0 0 32 32" fill="none" xmlns="http://www.w3.org/2000/svg">
<g clip-path="url(#clip0_3916_8833)">
<path fill-rule="evenodd" clip-rule="evenodd" d="M8.76591 5.51023C7.71589 4.46024 8.45964 2.66491 9.94456 2.66504L23.6666 2.66628C24.587 2.66636 25.333 3.41242 25.3331 4.33277L25.3346 18.055C25.3348 19.5399 23.5395 20.2837 22.4894 19.2337L19.0072 15.7514C16.315 18.5358 14.9151 20.5837 14.2756 22.4675C13.629 24.3723 13.7197 26.2279 14.2582 28.739C14.4288 29.5346 14.0294 30.2389 13.4297 30.5619C12.8146 30.8933 11.9786 30.823 11.4296 30.1673C7.85244 25.8947 6.81185 21.8278 7.38529 18.1204C7.93461 14.5689 9.94201 11.5003 12.2659 9.01017L8.76591 5.51023ZM23.3332 4.66625L10.7492 4.66511L13.9038 7.81961C14.5589 8.47468 14.5444 9.51688 13.9258 10.1652C11.6542 12.5462 9.84013 15.3335 9.36179 18.4261C8.93956 21.1559 9.53815 24.2543 12.0258 27.6838C11.7046 25.6315 11.7212 23.7705 12.3818 21.8246C13.1854 19.4573 14.9014 17.0855 17.8147 14.109C18.4604 13.4494 19.525 13.4408 20.18 14.0958L23.3345 17.2503L23.3332 4.66625Z" fill="#18202A"/>
</g>
<defs>
<clipPath id="clip0_3916_8833">
<rect width="32" height="32" fill="white"/>
</clipPath>
</defs>
</svg>
