<svg width="32" height="32" viewBox="0 0 32 32" fill="none" xmlns="http://www.w3.org/2000/svg">
<path fill-rule="evenodd" clip-rule="evenodd" d="M12.3605 12.8297L4.41341 13.9368L10.159 19.339L8.78078 27.0721L16 23.4173L23.2192 27.0721L21.8408 19.3381L27.5865 13.9434L19.6389 12.8286L16 5.72161L12.3605 12.8297ZM11.0543 10.9923L1.37913 12.3402C0.824545 12.4175 0.606509 13.1026 1.01445 13.4862L7.99997 20.0542L6.34305 29.3515C6.24658 29.8928 6.80995 30.3116 7.30049 30.0632L16 25.659L24.6995 30.0632C25.19 30.3116 25.7534 29.8928 25.6569 29.3515L24 20.0542L30.9851 13.4957C31.3933 13.1124 31.1758 12.4272 30.6214 12.3495L20.9456 10.9923L16.5934 2.49223C16.3457 2.00845 15.6543 2.00845 15.4066 2.49222L11.0543 10.9923Z" fill="#18202A"/>
</svg>
