<svg width="32" height="32" viewBox="0 0 32 32" fill="none" xmlns="http://www.w3.org/2000/svg">
<path fill-rule="evenodd" clip-rule="evenodd" d="M22 10.6663V9.33301C22 6.0193 19.3137 3.33301 16 3.33301C12.6863 3.33301 10 6.0193 10 9.33301V10.6663H22ZM24 9.33301V10.6663C26.9455 10.6663 29.3334 13.0542 29.3334 15.9997V25.333C29.3334 28.2785 26.9455 30.6663 24 30.6663H8.00002C5.0545 30.6663 2.66669 28.2785 2.66669 25.333V15.9997C2.66669 13.0542 5.0545 10.6663 8.00002 10.6663V9.33301C8.00002 4.91473 11.5817 1.33301 16 1.33301C20.4183 1.33301 24 4.91473 24 9.33301ZM8.00002 12.6663C6.15907 12.6663 4.66669 14.1587 4.66669 15.9997V25.333C4.66669 27.174 6.15907 28.6663 8.00002 28.6663H24C25.841 28.6663 27.3334 27.174 27.3334 25.333V15.9997C27.3334 14.1587 25.841 12.6663 24 12.6663H8.00002ZM10 20.6663C10 21.5868 9.25383 22.333 8.33335 22.333C7.41288 22.333 6.66669 21.5868 6.66669 20.6663C6.66669 19.7459 7.41288 18.9997 8.33335 18.9997C9.25383 18.9997 10 19.7459 10 20.6663ZM15.1111 20.6663C15.1111 21.5868 14.3649 22.333 13.4445 22.333C12.524 22.333 11.7778 21.5868 11.7778 20.6663C11.7778 19.7459 12.524 18.9997 13.4445 18.9997C14.3649 18.9997 15.1111 19.7459 15.1111 20.6663ZM18.5556 22.333C19.4761 22.333 20.2222 21.5868 20.2222 20.6663C20.2222 19.7459 19.4761 18.9997 18.5556 18.9997C17.6351 18.9997 16.8889 19.7459 16.8889 20.6663C16.8889 21.5868 17.6351 22.333 18.5556 22.333ZM25.3334 20.6663C25.3334 21.5868 24.5872 22.333 23.6667 22.333C22.7462 22.333 22 21.5868 22 20.6663C22 19.7459 22.7462 18.9997 23.6667 18.9997C24.5872 18.9997 25.3334 19.7459 25.3334 20.6663Z" fill="#18202A"/>
</svg>
