<svg width="32" height="32" viewBox="0 0 32 32" fill="none" xmlns="http://www.w3.org/2000/svg">
<path fill-rule="evenodd" clip-rule="evenodd" d="M20 29.3332C22.2091 29.3332 24 27.5423 24 25.3332C24 23.124 22.2091 21.3332 20 21.3332C17.7909 21.3332 16 23.124 16 25.3332C16 27.5423 17.7909 29.3332 20 29.3332Z" fill="#18202A"/>
<path fill-rule="evenodd" clip-rule="evenodd" d="M20 10.6665C22.2091 10.6665 24 8.87564 24 6.6665C24 4.45736 22.2091 2.6665 20 2.6665C17.7909 2.6665 16 4.45736 16 6.6665C16 8.87564 17.7909 10.6665 20 10.6665Z" fill="#18202A"/>
<path fill-rule="evenodd" clip-rule="evenodd" d="M12 19.9998C14.2091 19.9998 16 18.209 16 15.9998C16 13.7907 14.2091 11.9998 12 11.9998C9.79086 11.9998 8 13.7907 8 15.9998C8 18.209 9.79086 19.9998 12 19.9998Z" fill="#18202A"/>
<path d="M1.33333 25.3332C1.33333 24.5968 1.93028 23.9998 2.66666 23.9998H13.3333C14.0697 23.9998 14.6667 24.5968 14.6667 25.3332C14.6667 26.0695 14.0697 26.6665 13.3333 26.6665H2.66666C1.93028 26.6665 1.33333 26.0695 1.33333 25.3332Z" fill="#18202A"/>
<path d="M1.33333 6.6665C1.33333 5.93012 1.93028 5.33317 2.66666 5.33317H13.3333C14.0697 5.33317 14.6667 5.93012 14.6667 6.6665C14.6667 7.40288 14.0697 7.99984 13.3333 7.99984H2.66666C1.93028 7.99984 1.33333 7.40288 1.33333 6.6665Z" fill="#18202A"/>
<path d="M17.3333 15.9998C17.3333 15.2635 17.9303 14.6665 18.6667 14.6665H29.3333C30.0697 14.6665 30.6667 15.2635 30.6667 15.9998C30.6667 16.7362 30.0697 17.3332 29.3333 17.3332H18.6667C17.9303 17.3332 17.3333 16.7362 17.3333 15.9998Z" fill="#18202A"/>
<path d="M25.3333 25.3332C25.3333 24.5968 25.9303 23.9998 26.6667 23.9998H29.3333C30.0697 23.9998 30.6667 24.5968 30.6667 25.3332C30.6667 26.0695 30.0697 26.6665 29.3333 26.6665H26.6667C25.9303 26.6665 25.3333 26.0695 25.3333 25.3332Z" fill="#18202A"/>
<path d="M25.3333 6.6665C25.3333 5.93012 25.9303 5.33317 26.6667 5.33317H29.3333C30.0697 5.33317 30.6667 5.93012 30.6667 6.6665C30.6667 7.40288 30.0697 7.99984 29.3333 7.99984H26.6667C25.9303 7.99984 25.3333 7.40288 25.3333 6.6665Z" fill="#18202A"/>
<path d="M1.33333 15.9998C1.33333 15.2635 1.93028 14.6665 2.66666 14.6665H5.33333C6.06971 14.6665 6.66666 15.2635 6.66666 15.9998C6.66666 16.7362 6.06971 17.3332 5.33333 17.3332H2.66666C1.93028 17.3332 1.33333 16.7362 1.33333 15.9998Z" fill="#18202A"/>
</svg>
