<svg width="32" height="32" viewBox="0 0 32 32" fill="none" xmlns="http://www.w3.org/2000/svg">
<g clip-path="url(#clip0_3785_8911)">
<path fill-rule="evenodd" clip-rule="evenodd" d="M24.6666 10.6663C22.8257 10.6663 21.3333 9.17396 21.3333 7.33301V6.33333L18.3334 6.33301C17.7811 6.33295 17.3333 6.78068 17.3333 7.33301V24.6667C17.3333 25.219 17.781 25.6667 18.3333 25.6667H21.3333V24.6663C21.3333 22.8254 22.8257 21.333 24.6666 21.333H27.3333C29.1743 21.333 30.6666 22.8254 30.6666 24.6663V27.333C30.6666 29.174 29.1743 30.6663 27.3333 30.6663H24.6666C22.9383 30.6663 21.5172 29.351 21.3498 27.6667H18.3333C16.6765 27.6667 15.3333 26.3236 15.3333 24.6667V16.9997H10.6666V17.333C10.6666 19.174 9.17426 20.6663 7.33331 20.6663H4.66665C2.8257 20.6663 1.33331 19.174 1.33331 17.333V14.6663C1.33331 12.8254 2.8257 11.333 4.66665 11.333H7.33331C9.17426 11.333 10.6666 12.8254 10.6666 14.6663V14.9997H15.3333V7.33301C15.3333 5.67603 16.6767 4.33283 18.3336 4.33301L21.3497 4.33333C21.5168 2.64874 22.9381 1.33301 24.6666 1.33301H27.3333C29.1743 1.33301 30.6666 2.82539 30.6666 4.66634V7.33301C30.6666 9.17396 29.1743 10.6663 27.3333 10.6663H24.6666ZM23.3333 4.66634C23.3333 3.92996 23.9303 3.33301 24.6666 3.33301H27.3333C28.0697 3.33301 28.6666 3.92996 28.6666 4.66634V7.33301C28.6666 8.06939 28.0697 8.66634 27.3333 8.66634H24.6666C23.9303 8.66634 23.3333 8.06939 23.3333 7.33301V4.66634ZM3.33331 14.6663C3.33331 13.93 3.93027 13.333 4.66665 13.333H7.33331C8.06969 13.333 8.66665 13.93 8.66665 14.6663V17.333C8.66665 18.0694 8.06969 18.6663 7.33331 18.6663H4.66665C3.93027 18.6663 3.33331 18.0694 3.33331 17.333V14.6663ZM28.6666 24.6663C28.6666 23.93 28.0697 23.333 27.3333 23.333H24.6666C23.9303 23.333 23.3333 23.93 23.3333 24.6663V27.333C23.3333 28.0694 23.9303 28.6663 24.6666 28.6663H27.3333C28.0697 28.6663 28.6666 28.0694 28.6666 27.333V24.6663Z" fill="#18202A"/>
</g>
<defs>
<clipPath id="clip0_3785_8911">
<rect width="32" height="32" fill="white"/>
</clipPath>
</defs>
</svg>
