<svg width="32" height="32" viewBox="0 0 32 32" fill="none" xmlns="http://www.w3.org/2000/svg">
<path fill-rule="evenodd" clip-rule="evenodd" d="M2.63316 16.0332L15.9665 2.69984C16.8417 1.82467 18.0287 1.33301 19.2663 1.33301H27.3333C29.1743 1.33301 30.6667 2.82539 30.6667 4.66634V12.7333C30.6667 13.971 30.175 15.158 29.2998 16.0332L15.9665 29.3665C14.1441 31.189 11.1893 31.189 9.36683 29.3665L2.63316 22.6328C0.810713 20.8104 0.810717 17.8556 2.63316 16.0332ZM23.3333 10.6663C24.4379 10.6663 25.3333 9.77091 25.3333 8.66634C25.3333 7.56177 24.4379 6.66634 23.3333 6.66634C22.2288 6.66634 21.3333 7.56177 21.3333 8.66634C21.3333 9.77091 22.2288 10.6663 23.3333 10.6663Z" fill="#18202A"/>
</svg>
