<svg width="32" height="32" viewBox="0 0 32 32" fill="none" xmlns="http://www.w3.org/2000/svg">
<path d="M19.9596 5.04036C19.5691 4.64983 19.5691 4.01667 19.9596 3.62615C20.3501 3.23562 20.9833 3.23562 21.3738 3.62615L27.3738 9.62615C27.7643 10.0167 27.7643 10.6498 27.3738 11.0404L21.3738 17.0404C20.9833 17.4309 20.3501 17.4309 19.9596 17.0404C19.5691 16.6498 19.5691 16.0167 19.9596 15.6261L24.2525 11.3333H12C8.68631 11.3333 6.00002 14.0195 6.00002 17.3333C6.00002 20.647 8.68631 23.3333 12 23.3333H21.6667C22.219 23.3333 22.6667 23.781 22.6667 24.3333C22.6667 24.8855 22.219 25.3333 21.6667 25.3333H12C7.58174 25.3333 4.00002 21.7515 4.00002 17.3333C4.00002 12.915 7.58174 9.33325 12 9.33325H24.2525L19.9596 5.04036Z" fill="#18202A"/>
</svg>
