<svg width="32" height="32" viewBox="0 0 32 32" fill="none" xmlns="http://www.w3.org/2000/svg">
<path d="M13.361 5.43689C10.3005 4.53778 7.06293 4.42368 3.94673 5.10509C3.40719 5.22307 2.87417 4.88133 2.75619 4.3418C2.63821 3.80226 2.97995 3.26924 3.51949 3.15126C6.9637 2.39811 10.5421 2.52423 13.9248 3.51798C17.3074 4.51173 20.3854 6.34113 22.875 8.8375C25.3646 11.3339 27.1856 14.4168 28.1701 17.8022C29.1546 21.1875 29.271 24.7663 28.5085 28.2084C28.389 28.7476 27.8551 29.0879 27.3159 28.9685C26.7767 28.849 26.4364 28.3151 26.5558 27.7758C27.2457 24.6615 27.1404 21.4236 26.2497 18.3607C25.3589 15.2978 23.7113 12.5084 21.4589 10.2498C19.2064 7.99116 16.4215 6.336 13.361 5.43689Z" fill="#18202A"/>
<path d="M10.2148 12.903C8.12772 12.4631 5.9577 12.6394 3.96899 13.4106C3.45407 13.6103 2.87477 13.3547 2.67509 12.8398C2.47542 12.3249 2.73097 11.7456 3.2459 11.5459C5.59619 10.6345 8.16075 10.4261 10.6274 10.946C13.094 11.466 15.3562 12.6918 17.1386 14.4744C18.9211 16.2569 20.1468 18.5192 20.6666 20.9858C21.1864 23.4525 20.9779 26.017 20.0664 28.3673C19.8667 28.8822 19.2873 29.1377 18.7724 28.938C18.2575 28.7383 18.002 28.159 18.2017 27.6441C18.973 25.6554 19.1494 23.4854 18.7096 21.3982C18.2698 19.3111 17.2326 17.3968 15.7244 15.8885C14.2162 14.3802 12.302 13.343 10.2148 12.903Z" fill="#18202A"/>
<path fill-rule="evenodd" clip-rule="evenodd" d="M13.3389 23.9998C13.3389 26.9454 10.951 29.3332 8.00552 29.3332C5.06 29.3332 2.67219 26.9454 2.67219 23.9998C2.67219 21.0543 5.06 18.6665 8.00552 18.6665C10.951 18.6665 13.3389 21.0543 13.3389 23.9998ZM11.3389 23.9998C11.3389 25.8408 9.84647 27.3332 8.00552 27.3332C6.16457 27.3332 4.67219 25.8408 4.67219 23.9998C4.67219 22.1589 6.16457 20.6665 8.00552 20.6665C9.84647 20.6665 11.3389 22.1589 11.3389 23.9998Z" fill="#18202A"/>
</svg>
