<svg width="32" height="32" viewBox="0 0 32 32" fill="none" xmlns="http://www.w3.org/2000/svg">
<path d="M24.1634 6.14933L26.9727 12.328C27.5234 12.4387 28.0594 12.56 28.5781 12.692C28.707 12.7227 28.8286 12.7787 28.9356 12.8567C29.0427 12.9348 29.1333 13.0334 29.2019 13.1467C29.2706 13.2601 29.316 13.3859 29.3356 13.517C29.3552 13.6481 29.3486 13.7817 29.316 13.9102C29.2835 14.0387 29.2258 14.1594 29.1462 14.2654C29.0666 14.3713 28.9668 14.4604 28.8525 14.5275C28.7381 14.5945 28.6116 14.6382 28.4803 14.6559C28.349 14.6736 28.2154 14.665 28.0874 14.6307C27.4262 14.4646 26.7601 14.3188 26.0901 14.1933C20.0181 13.0467 11.9834 13.0467 5.91275 14.1933C5.24172 14.3184 4.57473 14.4642 3.91275 14.6307C3.78546 14.663 3.65305 14.6699 3.52308 14.651C3.39311 14.6322 3.26813 14.5879 3.15528 14.5207C2.92736 14.3851 2.76266 14.1644 2.69742 13.9073C2.63217 13.6503 2.67173 13.3778 2.80738 13.1499C2.94303 12.9219 3.16367 12.7572 3.42075 12.692C3.94075 12.56 4.47808 12.4387 5.03008 12.3267L7.83808 6.14933C8.12937 5.50853 8.59895 4.96512 9.19074 4.58399C9.78253 4.20286 10.4715 4.00013 11.1754 4H20.8248C21.5289 3.99987 22.2181 4.20248 22.8102 4.58363C23.4023 4.96477 23.872 5.50832 24.1634 6.14933ZM4.66608 22C4.66608 20.9391 5.08751 19.9217 5.83766 19.1716C6.5878 18.4214 7.60522 18 8.66608 18C9.72695 18 10.7444 18.4214 11.4945 19.1716C12.2447 19.9217 12.6661 20.9391 12.6661 22C12.6661 23.0609 12.2447 24.0783 11.4945 24.8284C10.7444 25.5786 9.72695 26 8.66608 26C7.60522 26 6.5878 25.5786 5.83766 24.8284C5.08751 24.0783 4.66608 23.0609 4.66608 22ZM8.66608 16C7.53668 16.0004 6.43032 16.3195 5.47422 16.9207C4.51813 17.5219 3.75113 18.3808 3.26144 19.3985C2.77174 20.4162 2.57924 21.5515 2.70605 22.6737C2.83287 23.796 3.27387 24.8597 3.97832 25.7424C4.68278 26.6252 5.62209 27.2913 6.68823 27.6639C7.75438 28.0366 8.90406 28.1008 10.0051 27.8491C11.1061 27.5975 12.1137 27.0402 12.9121 26.2413C13.7104 25.4425 14.2671 24.4345 14.5181 23.3333H17.4821C17.8141 24.7677 18.6617 26.03 19.8637 26.8802C21.0657 27.7305 22.5382 28.1093 24.0012 27.9447C25.4643 27.7801 26.8158 27.0835 27.7988 25.9874C28.7818 24.8914 29.3278 23.4723 29.3328 22C29.3354 20.4647 28.7494 18.9868 27.6954 17.8704C26.6414 16.7541 25.1995 16.0842 23.6666 15.9988C22.1336 15.9134 20.6263 16.4189 19.4547 17.4112C18.2832 18.4035 17.5367 19.8072 17.3688 21.3333H14.6301C14.4661 19.8664 13.7671 18.5114 12.6668 17.5275C11.5665 16.5435 10.1421 15.9997 8.66608 16ZM19.3328 22C19.3328 20.9391 19.7542 19.9217 20.5043 19.1716C21.2545 18.4214 22.2719 18 23.3328 18C24.3936 18 25.411 18.4214 26.1612 19.1716C26.9113 19.9217 27.3328 20.9391 27.3328 22C27.3328 23.0609 26.9113 24.0783 26.1612 24.8284C25.411 25.5786 24.3936 26 23.3328 26C22.2719 26 21.2545 25.5786 20.5043 24.8284C19.7542 24.0783 19.3328 23.0609 19.3328 22Z" fill="#18202A"/>
</svg>
