<svg width="32" height="32" viewBox="0 0 32 32" fill="none" xmlns="http://www.w3.org/2000/svg">
<path d="M6.66666 4C4.45753 4 2.66666 5.79086 2.66666 8V9.33333C2.66666 11.5425 4.45752 13.3333 6.66666 13.3333H8C10.2091 13.3333 12 11.5425 12 9.33333V8C12 7.6187 11.9466 7.24986 11.847 6.90054L8.04044 10.7071C7.64991 11.0976 7.01675 11.0976 6.62622 10.7071L4.62622 8.70711C4.2357 8.31658 4.2357 7.68342 4.62622 7.29289C5.01675 6.90237 5.64991 6.90237 6.04044 7.29289L7.33333 8.58579L10.7877 5.13142C10.0673 4.43119 9.084 4 8 4H6.66666Z" fill="#18202A"/>
<path d="M10.7877 19.7981C10.0673 19.0979 9.084 18.6667 8 18.6667H6.66666C4.45753 18.6667 2.66666 20.4575 2.66666 22.6667V24C2.66666 26.2091 4.45752 28 6.66666 28H8C10.2091 28 12 26.2091 12 24V22.6667C12 22.2854 11.9466 21.9165 11.847 21.5672L8.04044 25.3738C7.64991 25.7643 7.01675 25.7643 6.62622 25.3738L4.62622 23.3738C4.2357 22.9832 4.2357 22.3501 4.62622 21.9596C5.01675 21.569 5.64991 21.569 6.04044 21.9596L7.33333 23.2525L10.7877 19.7981Z" fill="#18202A"/>
<path d="M16 5.33333C15.2636 5.33333 14.6667 5.93029 14.6667 6.66667C14.6667 7.40305 15.2636 8 16 8H28C28.7364 8 29.3333 7.40305 29.3333 6.66667C29.3333 5.93029 28.7364 5.33333 28 5.33333H16Z" fill="#18202A"/>
<path d="M14.6667 10.6667C14.6667 9.93029 15.2636 9.33333 16 9.33333H28C28.7364 9.33333 29.3333 9.93029 29.3333 10.6667C29.3333 11.403 28.7364 12 28 12H16C15.2636 12 14.6667 11.403 14.6667 10.6667Z" fill="#18202A"/>
<path d="M16 20C15.2636 20 14.6667 20.597 14.6667 21.3333C14.6667 22.0697 15.2636 22.6667 16 22.6667H28C28.7364 22.6667 29.3333 22.0697 29.3333 21.3333C29.3333 20.597 28.7364 20 28 20H16Z" fill="#18202A"/>
<path d="M14.6667 25.3333C14.6667 24.597 15.2636 24 16 24H28C28.7364 24 29.3333 24.597 29.3333 25.3333C29.3333 26.0697 28.7364 26.6667 28 26.6667H16C15.2636 26.6667 14.6667 26.0697 14.6667 25.3333Z" fill="#18202A"/>
</svg>
