<svg width="32" height="32" viewBox="0 0 32 32" fill="none" xmlns="http://www.w3.org/2000/svg">
<path fill-rule="evenodd" clip-rule="evenodd" d="M30.6667 16C30.6667 7.8998 24.1002 1.33331 16 1.33331C7.89982 1.33331 1.33333 7.8998 1.33333 16C1.33333 24.1002 7.89982 30.6666 16 30.6666C24.1002 30.6666 30.6667 24.1002 30.6667 16ZM9.72385 13.7238C9.20315 14.2445 9.20315 15.0888 9.72385 15.6095C10.2446 16.1302 11.0888 16.1302 11.6095 15.6095L14.6667 12.5523V22.6666C14.6667 23.403 15.2636 24 16 24C16.7364 24 17.3333 23.403 17.3333 22.6666V12.5523L20.3905 15.6095C20.9112 16.1302 21.7554 16.1302 22.2761 15.6095C22.7968 15.0888 22.7968 14.2445 22.2761 13.7238L16.9428 8.3905C16.4221 7.8698 15.5779 7.8698 15.0572 8.3905L9.72385 13.7238Z" fill="#18202A"/>
</svg>
