<svg width="32" height="32" viewBox="0 0 32 32" fill="none" xmlns="http://www.w3.org/2000/svg">
<path fill-rule="evenodd" clip-rule="evenodd" d="M30.6667 4.33335C30.1144 4.33335 29.6667 4.78107 29.6667 5.33335V12.3334H22.6667C22.1144 12.3334 21.6667 12.7811 21.6667 13.3334C21.6667 13.8856 22.1144 14.3334 22.6667 14.3334H30.6667C31.2189 14.3334 31.6667 13.8856 31.6667 13.3334V5.33335C31.6667 4.78107 31.2189 4.33335 30.6667 4.33335Z" fill="#18202A"/>
<path fill-rule="evenodd" clip-rule="evenodd" d="M10.3333 18.6667C10.3333 18.1144 9.88561 17.6667 9.33332 17.6667H1.33332C0.781038 17.6667 0.333323 18.1144 0.333323 18.6667V26.6667C0.333323 27.219 0.781038 27.6667 1.33332 27.6667C1.88561 27.6667 2.33332 27.219 2.33332 26.6667V19.6667H9.33332C9.88561 19.6667 10.3333 19.219 10.3333 18.6667Z" fill="#18202A"/>
<path fill-rule="evenodd" clip-rule="evenodd" d="M19.6048 3.5151C17.4953 2.90492 15.2655 2.83906 13.1237 3.32368C10.9818 3.80831 8.99765 4.82761 7.35628 6.28647C5.71491 7.74534 4.46985 9.59622 3.73727 11.6664C3.55303 12.1871 3.82575 12.7585 4.34639 12.9427C4.86704 13.127 5.43847 12.8543 5.62271 12.3336C6.24257 10.5819 7.29609 9.01577 8.68494 7.78135C10.0738 6.54692 11.7527 5.68444 13.5651 5.27438C15.3774 4.86431 17.2641 4.92003 19.049 5.43634C20.834 5.95265 22.4591 6.91271 23.7727 8.22695C23.7801 8.23434 23.7876 8.24162 23.7952 8.24877L29.9819 14.0621C30.3844 14.4403 31.0172 14.4206 31.3954 14.0181C31.7736 13.6156 31.7539 12.9828 31.3514 12.6046L25.176 6.80179C23.6255 5.25439 21.7092 4.1238 19.6048 3.5151ZM0.60457 17.9819C0.226379 18.3844 0.246067 19.0172 0.648546 19.3954L6.82403 25.1983C8.37445 26.7457 10.2908 27.8762 12.3952 28.4849C14.5047 29.0951 16.7344 29.161 18.8763 28.6764C21.0181 28.1917 23.0023 27.1724 24.6437 25.7136C26.2851 24.2547 27.5301 22.4038 28.2627 20.3336C28.4469 19.813 28.1742 19.2415 27.6536 19.0573C27.1329 18.8731 26.5615 19.1458 26.3773 19.6664C25.7574 21.4181 24.7039 22.9843 23.315 24.2187C21.9262 25.4531 20.2473 26.3156 18.4349 26.7257C16.6226 27.1357 14.7359 27.08 12.9509 26.5637C11.166 26.0474 9.54085 25.0873 8.22727 23.7731C8.21988 23.7657 8.21238 23.7584 8.20476 23.7513L2.0181 17.9379C1.61562 17.5597 0.982761 17.5794 0.60457 17.9819Z" fill="#18202A"/>
</svg>
