<svg width="32" height="32" viewBox="0 0 32 32" fill="none" xmlns="http://www.w3.org/2000/svg">
<path fill-rule="evenodd" clip-rule="evenodd" d="M2.96134 2.96118C3.35425 2.56828 3.99127 2.56828 4.38417 2.96118L29.0387 27.6157C29.4316 28.0086 29.4316 28.6456 29.0387 29.0385C28.6458 29.4314 28.0087 29.4314 27.6158 29.0385L25.2438 26.6665H1C0.447715 26.6665 0 26.2188 0 25.6665C0 25.1142 0.447715 24.6665 1 24.6665H5.33333C3.12419 24.6665 1.33333 22.8756 1.33333 20.6665V9.33838C1.33333 7.55697 2.49785 6.04754 4.10715 5.52982L2.96134 4.38401C2.56844 3.99111 2.56844 3.35409 2.96134 2.96118ZM18.2541 19.6767L21.2438 22.6665H5.33333C4.22876 22.6665 3.33333 21.7711 3.33333 20.6665V9.33838C3.33333 8.23381 4.22876 7.33838 5.33333 7.33838H5.91571L12.2525 13.6751C12.1886 13.7208 12.1255 13.7677 12.063 13.8159C10.4302 15.076 9.3333 17.1844 9.3333 20.5298C9.3333 20.6802 9.43405 20.812 9.57921 20.8514C9.72437 20.8909 9.87796 20.8282 9.95411 20.6985C10.8497 19.1728 11.5607 18.2438 12.6242 17.6735C13.3449 17.2871 14.2487 17.0541 15.5201 16.9428L17.3333 18.756V19.0584C17.3333 19.5585 17.8425 19.8484 18.2541 19.6767Z" fill="#18202A"/>
<path d="M21.1253 16.8758L16.4958 12.2462C16.7767 12.2216 17.0565 12.2068 17.3333 12.2003V10.0012C17.3333 9.40724 18.0514 9.10979 18.4714 9.52977L23 14.0584C23.2603 14.3187 23.2603 14.7408 23 15.0012L21.1253 16.8758Z" fill="#18202A"/>
<path d="M28.6667 20.6665C28.6667 21.6914 27.8958 22.5362 26.9023 22.6528L28.4815 24.232C29.7785 23.5706 30.6667 22.2223 30.6667 20.6665V9.33838C30.6667 7.12924 28.8758 5.33838 26.6667 5.33838H9.58789L11.5879 7.33838H26.6667C27.7712 7.33838 28.6667 8.23381 28.6667 9.33838V20.6665Z" fill="#18202A"/>
<path d="M28.916 24.6665L30.916 26.6665H31C31.5523 26.6665 32 26.2188 32 25.6665C32 25.1142 31.5523 24.6665 31 24.6665H28.916Z" fill="#18202A"/>
</svg>
