<svg width="32" height="32" viewBox="0 0 32 32" fill="none" xmlns="http://www.w3.org/2000/svg">
<path d="M25.3333 7.99967C29.0152 7.99967 32 10.9844 32 14.6663C32 18.3482 29.0152 21.333 25.3333 21.333H18.6667V13.333C18.6667 11.8602 17.4728 10.6663 16 10.6663C14.5272 10.6663 13.3333 11.8602 13.3333 13.333V21.333H6.66667C2.98477 21.333 0 18.3482 0 14.6663C0 10.9844 2.98477 7.99967 6.66667 7.99967C6.79531 7.99967 6.92311 8.00332 7.04995 8.01051C8.19388 4.14962 11.768 1.33301 16 1.33301C20.232 1.33301 23.8061 4.14962 24.95 8.01051C25.0769 8.00332 25.2047 7.99967 25.3333 7.99967Z" fill="#18202A"/>
<path fill-rule="evenodd" clip-rule="evenodd" d="M16 11.9997C16.7364 11.9997 17.3333 12.5966 17.3333 13.333V26.1141L19.0572 24.3902C19.5779 23.8695 20.4221 23.8695 20.9428 24.3902C21.4635 24.9109 21.4635 25.7551 20.9428 26.2758L16.9428 30.2758C16.6928 30.5259 16.3536 30.6663 16 30.6663C15.6464 30.6663 15.3072 30.5259 15.0572 30.2758L11.0572 26.2758C10.5365 25.7551 10.5365 24.9109 11.0572 24.3902C11.5779 23.8695 12.4221 23.8695 12.9428 24.3902L14.6667 26.1141V13.333C14.6667 12.5966 15.2636 11.9997 16 11.9997Z" fill="#18202A"/>
</svg>
