<svg width="32" height="32" viewBox="0 0 32 32" fill="none" xmlns="http://www.w3.org/2000/svg">
<g clip-path="url(#clip0_2294_10513)">
<path fill-rule="evenodd" clip-rule="evenodd" d="M16 14.6663C19.5556 14.6663 21.3333 11.333 21.3333 7.16634C21.3333 3.83301 19.5556 1.33301 16 1.33301C12.4444 1.33301 10.6667 3.83301 10.6667 7.16634C10.6667 11.333 12.4444 14.6663 16 14.6663ZM16.0001 17.333C17.297 17.333 18.5507 17.5182 19.7362 17.8635C17.4676 19.5662 16 22.2782 16 25.333C16 27.2921 16.6036 29.1102 17.635 30.6115C17.0947 30.6479 16.5495 30.6663 16 30.6663C13.9368 30.6663 11.9344 30.406 10.0239 29.9164C8.39852 29.4998 7.02094 28.4111 6.26648 26.9123C6.2456 26.8709 6.22484 26.8293 6.20422 26.7876C5.16126 24.6815 5.51592 22.1012 7.29556 20.5661C9.63129 18.5513 12.6734 17.333 16.0001 17.333ZM32 25.333C32 29.0149 29.0152 31.9997 25.3333 31.9997C21.6514 31.9997 18.6667 29.0149 18.6667 25.333C18.6667 21.6511 21.6514 18.6663 25.3333 18.6663C29.0152 18.6663 32 21.6511 32 25.333ZM29.3174 22.5737C29.7368 22.9332 29.7853 23.5645 29.4259 23.9838L25.4259 28.6505C25.0829 29.0506 24.4883 29.1159 24.0666 28.7997L21.4 26.7997C20.9582 26.4683 20.8686 25.8415 21.2 25.3997C21.5314 24.9578 22.1582 24.8683 22.6 25.1997L24.5171 26.6375L27.9074 22.6822C28.2668 22.2629 28.8981 22.2143 29.3174 22.5737Z" fill="#18202A"/>
</g>
<defs>
<clipPath id="clip0_2294_10513">
<rect width="32" height="32" fill="white"/>
</clipPath>
</defs>
</svg>
