<svg width="32" height="32" viewBox="0 0 32 32" fill="none" xmlns="http://www.w3.org/2000/svg">
<path d="M18.7879 4.00016C19.3255 4.00016 19.9666 4.48123 19.9987 5.3335H22.6661C22.6319 3.11823 20.9087 1.3335 18.7879 1.3335H3.87879C1.73659 1.3335 0 3.15447 0 5.40076V14.5521C0 16.1161 0.841872 17.474 2.07636 18.1545C2.61488 18.4514 3.22813 18.6194 3.87879 18.6194H4.40771L3.84547 21.4391C3.67272 22.3054 4.56476 22.9735 5.29022 22.5212L8 20.8316V17.6891L7.21475 18.1787L7.65862 15.9527H3.87879C3.32718 15.9527 2.66667 15.4463 2.66667 14.5521V5.40076C2.66667 4.50658 3.32717 4.00016 3.87879 4.00016H18.7879Z" fill="#18202A"/>
<path d="M32 12.3216C32 9.93495 30.2634 8.00016 28.1212 8.00016H14.5455C12.4033 8.00016 10.6667 9.93495 10.6667 12.3216V22.0449C10.6667 24.4316 12.4033 26.3664 14.5455 26.3664H20.4518L26.7098 30.5121C27.4352 30.9926 28.3273 30.2828 28.1545 29.3623L27.5923 26.3664H28.1212C30.2634 26.3664 32 24.4316 32 22.0449V12.3216Z" fill="#18202A"/>
</svg>
