<svg width="32" height="32" viewBox="0 0 32 32" fill="none" xmlns="http://www.w3.org/2000/svg">
<path fill-rule="evenodd" clip-rule="evenodd" d="M29.3333 10.6681V10.6654C29.333 10.3246 29.2028 9.98396 28.9428 9.72394L27.6314 8.41249C27.6174 8.39789 27.6031 8.38356 27.5884 8.36953L23.6305 4.41165C23.6165 4.39698 23.6022 4.38268 23.5876 4.36875L22.2761 3.05727C21.7554 2.53657 20.9112 2.53657 20.3905 3.05727C19.8698 3.57797 19.8698 4.42219 20.3905 4.94289L20.4638 5.01618L7.37462 12.1557L6.27614 11.0573C5.75544 10.5366 4.91122 10.5366 4.39052 11.0573C3.86983 11.578 3.86983 12.4222 4.39052 12.9429L10.781 19.3334L5.72386 24.3906C5.20316 24.9113 5.20316 25.7555 5.72386 26.2762C6.24456 26.7969 7.08878 26.7969 7.60948 26.2762L12.6667 21.219L19.0572 27.6096C19.5779 28.1303 20.4221 28.1303 20.9428 27.6096C21.4635 27.0889 21.4635 26.2446 20.9428 25.7239L19.8443 24.6255L26.9839 11.5363L27.0572 11.6096C27.5779 12.1303 28.4221 12.1303 28.9428 11.6096C29.2028 11.3495 29.333 11.0088 29.3333 10.6681Z" fill="#18202A"/>
</svg>
