<svg width="32" height="32" viewBox="0 0 32 32" fill="none" xmlns="http://www.w3.org/2000/svg">
<g clip-path="url(#clip0_3900_9013)">
<path d="M24.3982 13.3182C24.3982 15.2121 23.5988 16.7273 22 16.7273C20.4012 16.7273 19.6018 15.2121 19.6018 13.3182C19.6018 11.803 20.4012 10.6667 22 10.6667C23.5988 10.6667 24.3982 11.803 24.3982 13.3182Z" fill="#18202A"/>
<path d="M18.6107 19C18.4283 19.1266 18.2531 19.2632 18.0859 19.409C17.7015 19.7441 17.465 20.1888 17.3749 20.6667C17.2774 21.1837 17.3514 21.7394 17.5952 22.237L17.6231 22.2936C17.9624 22.9749 18.5819 23.4698 19.3127 23.6591C20.1718 23.8817 21.0722 24 22 24C22.9277 24 23.8281 23.8817 24.6872 23.6591C25.4181 23.4698 26.0375 22.9749 26.3768 22.2936L26.391 22.265L26.4048 22.2369C26.8187 21.392 26.7431 20.3793 26.1695 19.6734C26.0932 19.5794 26.008 19.4909 25.9141 19.4089C25.5789 19.1167 25.2114 18.8614 24.8178 18.6491C23.9778 18.1961 23.0185 17.9394 22 17.9394C20.7422 17.9394 19.5748 18.3309 18.6107 19Z" fill="#18202A"/>
<path fill-rule="evenodd" clip-rule="evenodd" d="M6.66665 4C3.72113 4 1.33331 6.38781 1.33331 9.33333V22.6667C1.33331 25.6122 3.72113 28 6.66665 28H25.3333C28.2788 28 30.6666 25.6122 30.6666 22.6667V12C30.6666 9.05448 28.2788 6.66667 25.3333 6.66667H16L14.5049 5.17157C13.7547 4.42143 12.7373 4 11.6765 4H6.66665ZM28.6666 12C28.6666 10.1591 27.1743 8.66667 25.3333 8.66667H15.1716L13.0907 6.58579C12.7156 6.21071 12.2069 6 11.6765 6H6.66665C4.8257 6 3.33331 7.49238 3.33331 9.33333V22.6667C3.33331 24.5076 4.8257 26 6.66665 26H25.3333C27.1743 26 28.6666 24.5076 28.6666 22.6667V12Z" fill="#18202A"/>
</g>
<defs>
<clipPath id="clip0_3900_9013">
<rect width="32" height="32" fill="white"/>
</clipPath>
</defs>
</svg>
