<svg width="32" height="32" viewBox="0 0 32 32" fill="none" xmlns="http://www.w3.org/2000/svg">
<path d="M10.6667 8.00016H29.4091C30.4936 8.00016 31.1244 9.22599 30.4941 10.1085L25.8869 16.5585C25.5557 17.0221 25.5557 17.6449 25.8869 18.1085L30.4941 24.5585C31.1244 25.441 30.4936 26.6668 29.4091 26.6668H13.3333C11.8606 26.6668 10.6667 25.4729 10.6667 24.0002V8.00016Z" fill="#18202A"/>
<path d="M1.33333 4.00016H16C18.2091 4.00016 20 5.79102 20 8.00016V18.6668C20 20.1396 18.8061 21.3335 17.3333 21.3335H1.33333V4.00016Z" fill="#18202A"/>
<path d="M1.33333 2.66683C1.33333 1.93045 1.93028 1.3335 2.66666 1.3335C3.40304 1.3335 3.99999 1.93045 3.99999 2.66683V29.3335C3.99999 30.0699 3.40304 30.6668 2.66666 30.6668C1.93028 30.6668 1.33333 30.0699 1.33333 29.3335V2.66683Z" fill="#18202A"/>
</svg>
