<svg width="32" height="32" viewBox="0 0 32 32" fill="none" xmlns="http://www.w3.org/2000/svg">
<g clip-path="url(#clip0_3737_8771)">
<path d="M17.3333 9C17.3333 8.44772 16.8856 8 16.3333 8C15.781 8 15.3333 8.44772 15.3333 9V17.6667C15.3333 18.219 15.781 18.6667 16.3333 18.6667H24.3333C24.8856 18.6667 25.3333 18.219 25.3333 17.6667C25.3333 17.1144 24.8856 16.6667 24.3333 16.6667H17.3333V9Z" fill="#18202A"/>
<path fill-rule="evenodd" clip-rule="evenodd" d="M17.3333 1C17.3333 0.447715 16.8856 0 16.3333 0C15.781 0 15.3333 0.447715 15.3333 1V2.68155C7.54256 3.03008 1.33331 9.45658 1.33331 17.3333C1.33331 25.4335 7.8998 32 16 32C24.1002 32 30.6666 25.4335 30.6666 17.3333C30.6666 12.7372 28.5525 8.6348 25.2436 5.94563L26.4822 4.70711C26.8727 4.31658 26.8727 3.68342 26.4822 3.29289C26.0916 2.90237 25.4585 2.90237 25.0679 3.29289L23.5838 4.77704C21.7292 3.65451 19.606 2.93126 17.3333 2.72646V1ZM16 30C22.9956 30 28.6666 24.3289 28.6666 17.3333C28.6666 10.3377 22.9956 4.66667 16 4.66667C9.00437 4.66667 3.33331 10.3377 3.33331 17.3333C3.33331 24.3289 9.00437 30 16 30Z" fill="#18202A"/>
</g>
<defs>
<clipPath id="clip0_3737_8771">
<rect width="32" height="32" fill="white"/>
</clipPath>
</defs>
</svg>
