<svg width="32" height="32" viewBox="0 0 32 32" fill="none" xmlns="http://www.w3.org/2000/svg">
<path d="M12 2.6665C12.7363 2.6665 13.3333 3.26346 13.3333 3.99984V9.33317C13.3333 11.5423 11.5424 13.3332 9.33329 13.3332H3.99996C3.26358 13.3332 2.66663 12.7362 2.66663 11.9998C2.66663 11.2635 3.26358 10.6665 3.99996 10.6665H9.33329C10.0697 10.6665 10.6666 10.0695 10.6666 9.33317V3.99984C10.6666 3.26346 11.2636 2.6665 12 2.6665Z" fill="#18202A"/>
<path d="M2.66663 19.9998C2.66663 19.2635 3.26358 18.6665 3.99996 18.6665H9.33329C11.5424 18.6665 13.3333 20.4574 13.3333 22.6665V27.9998C13.3333 28.7362 12.7363 29.3332 12 29.3332C11.2636 29.3332 10.6666 28.7362 10.6666 27.9998V22.6665C10.6666 21.9301 10.0697 21.3332 9.33329 21.3332H3.99996C3.26358 21.3332 2.66663 20.7362 2.66663 19.9998Z" fill="#18202A"/>
<path d="M29.3333 11.9998C29.3333 12.7362 28.7363 13.3332 28 13.3332H22.6666C20.4575 13.3332 18.6666 11.5423 18.6666 9.33317V3.99984C18.6666 3.26346 19.2636 2.6665 20 2.6665C20.7363 2.6665 21.3333 3.26346 21.3333 3.99984V9.33317C21.3333 10.0695 21.9302 10.6665 22.6666 10.6665H28C28.7363 10.6665 29.3333 11.2635 29.3333 11.9998Z" fill="#18202A"/>
<path d="M20 29.3332C19.2636 29.3332 18.6666 28.7362 18.6666 27.9998V22.4614C18.6666 20.3655 20.3657 18.6665 22.4615 18.6665H28C28.7363 18.6665 29.3333 19.2635 29.3333 19.9998C29.3333 20.7362 28.7363 21.3332 28 21.3332H22.4615C21.8384 21.3332 21.3333 21.8383 21.3333 22.4614V27.9998C21.3333 28.7362 20.7363 29.3332 20 29.3332Z" fill="#18202A"/>
</svg>
