<svg width="32" height="32" viewBox="0 0 32 32" fill="none" xmlns="http://www.w3.org/2000/svg">
<path fill-rule="evenodd" clip-rule="evenodd" d="M8 1.3335C4.3181 1.3335 1.33333 4.31827 1.33333 8.00016V24.0002C1.33333 27.6821 4.3181 30.6668 8 30.6668H24C27.6819 30.6668 30.6667 27.6821 30.6667 24.0002V8.00016C30.6667 4.31826 27.6819 1.3335 24 1.3335H8ZM9.33333 6.66683V4.00016H6.66666V6.66683H9.33333ZM12 12.5927C12 11.6258 13.045 11.0286 13.8664 11.526L19.4817 14.9268C20.2794 15.41 20.2794 16.577 19.4817 17.0602L13.8665 20.461C13.045 20.9585 12 20.3612 12 19.3943V12.5927ZM6.66666 28.0002V25.3335H9.33333V28.0002H6.66666ZM14.6667 4.00016H12V6.66683H14.6667V4.00016ZM12 25.3335H14.6667V28.0002H12V25.3335ZM20 4.00016H17.3333V6.66683H20V4.00016ZM17.3333 25.3335H20V28.0002H17.3333V25.3335ZM25.3333 6.66683V4.00016H22.6667V6.66683H25.3333ZM22.6667 28.0002V25.3335H25.3333V28.0002H22.6667Z" fill="#18202A"/>
</svg>
