<svg width="32" height="32" viewBox="0 0 32 32" fill="none" xmlns="http://www.w3.org/2000/svg">
<path fill-rule="evenodd" clip-rule="evenodd" d="M13.7239 1.72378C14.2446 1.20308 15.0888 1.20308 15.6095 1.72378L19.6095 5.72378C20.1302 6.24447 20.1302 7.0887 19.6095 7.60939L15.6095 11.6094C15.0888 12.1301 14.2446 12.1301 13.7239 11.6094C13.2032 11.0887 13.2032 10.2445 13.7239 9.72378L15.4477 7.99992H12C7.58172 7.99992 3.99999 11.5816 3.99999 15.9999C3.99999 19.1492 5.81968 21.8734 8.46495 23.1785C8.97172 23.4285 9.33333 23.9225 9.33333 24.4876V24.6106C9.33333 25.4818 8.50706 26.1194 7.70955 25.7686C3.95499 24.1172 1.33333 20.3647 1.33333 15.9999C1.33333 10.1089 6.10896 5.33325 12 5.33325H15.4477L13.7239 3.60939C13.2032 3.0887 13.2032 2.24448 13.7239 1.72378ZM16.5523 26.6666L18.2761 28.3904C18.7968 28.9111 18.7968 29.7554 18.2761 30.2761C17.7554 30.7968 16.9112 30.7968 16.3905 30.2761L12.3905 26.2761C11.8698 25.7554 11.8698 24.9111 12.3905 24.3904L16.3905 20.3904C16.9112 19.8697 17.7554 19.8697 18.2761 20.3904C18.7968 20.9111 18.7968 21.7554 18.2761 22.2761L16.5523 23.9999H20C24.4183 23.9999 28 20.4182 28 15.9999C28 12.8507 26.1803 10.1265 23.535 8.82133C23.0283 8.57131 22.6667 8.07732 22.6667 7.51223V7.38926C22.6667 6.51802 23.4929 5.88046 24.2904 6.23124C28.045 7.88263 30.6667 11.6351 30.6667 15.9999C30.6667 21.891 25.891 26.6666 20 26.6666H16.5523Z" fill="#18202A"/>
</svg>
