<svg width="32" height="32" viewBox="0 0 32 32" fill="none" xmlns="http://www.w3.org/2000/svg">
<path d="M16 14.6663C19.5556 14.6663 21.3333 11.333 21.3333 7.16634C21.3333 3.83301 19.5556 1.33301 16 1.33301C12.4444 1.33301 10.6667 3.83301 10.6667 7.16634C10.6667 11.333 12.4444 14.6663 16 14.6663Z" fill="#18202A"/>
<path d="M21.9761 29.9164C23.6015 29.4998 24.9791 28.4111 25.7335 26.9123C25.7441 26.8914 25.7546 26.8704 25.7651 26.8493C25.7754 26.8288 25.7856 26.8082 25.7958 26.7876C26.8388 24.6814 26.4841 22.1011 24.7045 20.566C22.3687 18.5513 19.3267 17.333 16.0001 17.333C12.6734 17.333 9.63129 18.5513 7.29556 20.5661C5.51592 22.1012 5.16126 24.6815 6.20422 26.7876C6.22484 26.8293 6.2456 26.8709 6.26648 26.9123C7.02094 28.4111 8.39852 29.4998 10.0239 29.9164C11.9344 30.406 13.9368 30.6663 16 30.6663C18.0632 30.6663 20.0656 30.406 21.9761 29.9164Z" fill="#18202A"/>
</svg>
