<svg width="32" height="32" viewBox="0 0 32 32" fill="none" xmlns="http://www.w3.org/2000/svg">
<path fill-rule="evenodd" clip-rule="evenodd" d="M3.36058 15.588V15.5196L3.3559 15.4513C2.92601 9.1775 8.86119 3.3335 16.0136 3.3335C23.1285 3.3335 28.6666 8.16072 28.6666 15.588C28.6666 16.159 28.6254 16.7247 28.5444 17.2811C29.2062 17.5453 29.8278 17.8887 30.3975 18.2995C30.5752 17.417 30.6666 16.5095 30.6666 15.588C30.6666 6.9335 24.1063 1.3335 16.0136 1.3335C7.92097 1.3335 0.837326 7.95168 1.36058 15.588C1.36058 20.1511 3.18428 23.7235 6.09471 26.0814L6.37485 29.4431C6.45171 30.3655 7.42195 30.9309 8.26232 30.543L11.8969 28.8655C13.2029 29.1747 14.5843 29.3335 16.0136 29.3335C16.5565 29.3335 17.0877 29.3095 17.6066 29.2629C17.2944 28.6503 17.0529 27.9956 16.893 27.3096C16.6042 27.3254 16.3111 27.3335 16.0136 27.3335C14.7321 27.3335 13.5056 27.1911 12.3576 26.9193L11.6857 26.7602L8.28886 28.328L8.01692 25.0647L7.35371 24.5274C4.93174 22.5652 3.36058 19.5737 3.36058 15.588ZM12 15.3335C12 16.4381 11.1046 17.3335 10 17.3335C8.89543 17.3335 8 16.4381 8 15.3335C8 14.2289 8.89543 13.3335 10 13.3335C11.1046 13.3335 12 14.2289 12 15.3335ZM16 17.3335C17.1046 17.3335 18 16.4381 18 15.3335C18 14.2289 17.1046 13.3335 16 13.3335C14.8954 13.3335 14 14.2289 14 15.3335C14 16.4381 14.8954 17.3335 16 17.3335ZM22 17.3335C23.1046 17.3335 24 16.4381 24 15.3335C24 14.2289 23.1046 13.3335 22 13.3335C20.8954 13.3335 20 14.2289 20 15.3335C20 16.4381 20.8954 17.3335 22 17.3335ZM32 25.3335C32 29.0154 29.0152 32.0002 25.3333 32.0002C21.6514 32.0002 18.6667 29.0154 18.6667 25.3335C18.6667 21.6516 21.6514 18.6668 25.3333 18.6668C29.0152 18.6668 32 21.6516 32 25.3335ZM25.3333 21.3335C25.8856 21.3335 26.3333 21.7812 26.3333 22.3335V24.3335H28.3333C28.8856 24.3335 29.3333 24.7812 29.3333 25.3335C29.3333 25.8858 28.8856 26.3335 28.3333 26.3335H26.3333V28.3335C26.3333 28.8858 25.8856 29.3335 25.3333 29.3335C24.781 29.3335 24.3333 28.8858 24.3333 28.3335V26.3335H22.3333C21.781 26.3335 21.3333 25.8858 21.3333 25.3335C21.3333 24.7812 21.781 24.3335 22.3333 24.3335H24.3333V22.3335C24.3333 21.7812 24.781 21.3335 25.3333 21.3335Z" fill="#18202A"/>
</svg>
