<svg width="32" height="32" viewBox="0 0 32 32" fill="none" xmlns="http://www.w3.org/2000/svg">
<path fill-rule="evenodd" clip-rule="evenodd" d="M16.0001 8.94289C16.5208 8.42219 16.5208 7.57797 16.0001 7.05727C15.4794 6.53657 14.6352 6.53657 14.1145 7.05727L6.11452 15.0573C5.59382 15.578 5.59382 16.4222 6.11452 16.9429L14.1145 24.9429C14.6352 25.4636 15.4794 25.4636 16.0001 24.9429C16.5208 24.4222 16.5208 23.578 16.0001 23.0573L8.94295 16.0001L16.0001 8.94289ZM25.8858 8.94289C26.4065 8.42219 26.4065 7.57797 25.8858 7.05727C25.3651 6.53657 24.5208 6.53657 24.0001 7.05727L16.0001 15.0573C15.4794 15.578 15.4794 16.4222 16.0001 16.9429L24.0001 24.9429C24.5208 25.4636 25.3651 25.4636 25.8858 24.9429C26.4065 24.4222 26.4065 23.578 25.8858 23.0573L18.8286 16.0001L25.8858 8.94289Z" fill="#18202A"/>
</svg>
