<svg width="32" height="32" viewBox="0 0 32 32" fill="none" xmlns="http://www.w3.org/2000/svg">
<path fill-rule="evenodd" clip-rule="evenodd" d="M7.99999 1.33301C6.52724 1.33301 5.33333 2.52692 5.33333 3.99967H26.6667C26.6667 2.52692 25.4728 1.33301 24 1.33301H7.99999ZM8 7.99967H3.99999V11.9997C3.99999 12.7361 4.59695 13.333 5.33333 13.333H6.66666C7.40304 13.333 8 12.7361 8 11.9997V7.99967ZM6.66666 15.9997C7.69114 15.9997 8.62566 15.6145 9.33333 14.9811C10.041 15.6145 10.9755 15.9997 12 15.9997H13.3333C14.3578 15.9997 15.2923 15.6145 16 14.9811C16.7077 15.6145 17.6422 15.9997 18.6667 15.9997H20C21.0245 15.9997 21.959 15.6145 22.6667 14.9811C23.3743 15.6145 24.3089 15.9997 25.3333 15.9997H26.6667C28.8758 15.9997 30.6667 14.2088 30.6667 11.9997V7.99967C30.6667 6.52692 29.4728 5.33301 28 5.33301H24H21.3333H17.3333H14.6667H10.6667H7.99999H3.99999C2.52724 5.33301 1.33333 6.52692 1.33333 7.99967V11.9997C1.33333 14.2088 3.12419 15.9997 5.33333 15.9997H6.66666ZM21.3333 7.99967V11.9997C21.3333 12.7361 20.7364 13.333 20 13.333H18.6667C17.9303 13.333 17.3333 12.7361 17.3333 11.9997V7.99967H21.3333ZM25.3333 13.333C24.5976 13.333 24.0011 12.7371 24 12.0016V11.9997L24 7.99967H28V11.9997C28 12.7361 27.403 13.333 26.6667 13.333H25.3333ZM14.6667 7.99967H10.6667L10.6667 11.9997V12.0011C10.6674 12.7368 11.2641 13.333 12 13.333H13.3333C14.0697 13.333 14.6667 12.7361 14.6667 11.9997V7.99967ZM2.66666 16.6195V25.333C2.66666 28.2785 5.05448 30.6663 7.99999 30.6663H24C26.9455 30.6663 29.3333 28.2785 29.3333 25.333V16.6195C28.5489 17.0733 27.6381 17.333 26.6667 17.333H25.3333C24.3619 17.333 23.4511 17.0733 22.6667 16.6195C21.8822 17.0733 20.9714 17.333 20 17.333H18.6667C17.6952 17.333 16.7845 17.0733 16 16.6195C15.2155 17.0733 14.3048 17.333 13.3333 17.333H12C11.0286 17.333 10.1178 17.0733 9.33333 16.6195C8.54887 17.0733 7.63809 17.333 6.66666 17.333H5.33333C4.3619 17.333 3.45112 17.0733 2.66666 16.6195ZM12 21.9997C12 20.8951 12.8954 19.9997 14 19.9997H18C19.1046 19.9997 20 20.8951 20 21.9997V27.9997H12V21.9997Z" fill="#18202A"/>
</svg>
