<svg width="32" height="32" viewBox="0 0 32 32" fill="none" xmlns="http://www.w3.org/2000/svg">
<path fill-rule="evenodd" clip-rule="evenodd" d="M13.9596 1.95964C14.3501 1.56912 14.9833 1.56912 15.3738 1.95964L19.3738 5.95964C19.7643 6.35017 19.7643 6.98333 19.3738 7.37386L15.3738 11.3739C14.9833 11.7644 14.3501 11.7644 13.9596 11.3739C13.5691 10.9833 13.5691 10.3502 13.9596 9.95964L16.2525 7.66675H12C7.39765 7.66675 3.66669 11.3977 3.66669 16.0001C3.66669 19.8483 6.27517 23.0874 9.82047 24.0455C10.302 24.1756 10.6667 24.5941 10.6667 25.093C10.6667 25.7056 10.1262 26.1825 9.53114 26.0366C5.01635 24.9298 1.66669 20.8561 1.66669 16.0001C1.66669 10.2931 6.29308 5.66675 12 5.66675H16.2525L13.9596 3.37385C13.5691 2.98333 13.5691 2.35017 13.9596 1.95964ZM15.7476 26.3334L18.0405 28.6263C18.431 29.0168 18.431 29.65 18.0405 30.0405C17.6499 30.431 17.0168 30.431 16.6262 30.0405L12.6262 26.0405C12.2357 25.65 12.2357 25.0168 12.6262 24.6263L16.6262 20.6263C17.0168 20.2358 17.6499 20.2358 18.0405 20.6263C18.431 21.0168 18.431 21.65 18.0405 22.0405L15.7476 24.3334H20C24.6024 24.3334 28.3334 20.6025 28.3334 16.0001C28.3334 12.1518 25.7249 8.91279 22.1796 7.95467C21.698 7.82453 21.3334 7.40604 21.3334 6.90721C21.3334 6.29458 21.8739 5.81767 22.4689 5.96354C26.9837 7.07035 30.3334 11.144 30.3334 16.0001C30.3334 21.707 25.707 26.3334 20 26.3334H15.7476Z" fill="#18202A"/>
</svg>
