<svg width="32" height="32" viewBox="0 0 32 32" fill="none" xmlns="http://www.w3.org/2000/svg">
<path fill-rule="evenodd" clip-rule="evenodd" d="M21.3333 7.16634C21.3333 11.333 19.5556 14.6663 16 14.6663C12.4444 14.6663 10.6667 11.333 10.6667 7.16634C10.6667 3.83301 12.4444 1.33301 16 1.33301C19.5556 1.33301 21.3333 3.83301 21.3333 7.16634ZM19.5664 17.8153C18.4312 17.501 17.2353 17.333 16.0001 17.333C12.6734 17.333 9.63129 18.5513 7.29556 20.5661C5.51592 22.1012 5.16126 24.6815 6.20422 26.7876C6.22484 26.8293 6.2456 26.8709 6.26648 26.9123C7.02094 28.4111 8.39852 29.4998 10.0239 29.9164C11.1078 30.1942 12.2213 30.3981 13.3587 30.5226C13.2627 29.6119 13.4358 28.6523 13.9422 27.7571L19.5664 17.8153Z" fill="#18202A"/>
<path fill-rule="evenodd" clip-rule="evenodd" d="M31.7864 29.5571C32.3968 30.6453 31.6261 31.9997 30.3965 31.9997H17.6035C16.3739 31.9997 15.6032 30.6453 16.2136 29.5571L22.6101 18.155C23.2249 17.059 24.7751 17.059 25.3899 18.155L31.7864 29.5571ZM24 21.333C23.4477 21.333 23 21.7807 23 22.333V24.9997C23 25.552 23.4477 25.9997 24 25.9997C24.5523 25.9997 25 25.552 25 24.9997V22.333C25 21.7807 24.5523 21.333 24 21.333ZM24 27.333C23.4477 27.333 23 27.7807 23 28.333C23 28.8853 23.4477 29.333 24 29.333C24.5523 29.333 25 28.8853 25 28.333C25 27.7807 24.5523 27.333 24 27.333Z" fill="#18202A"/>
</svg>
