<svg width="32" height="32" viewBox="0 0 32 32" fill="none" xmlns="http://www.w3.org/2000/svg">
<path d="M8.87666 7.62426C5.52048 9.77807 3.00729 12.9266 1.76321 14.6859C1.20173 15.4799 1.20173 16.5202 1.76321 17.3142C3.77963 20.1658 9.13002 26.6667 16 26.6667C19.2735 26.6667 22.202 25.1907 24.5892 23.3368L23.1627 21.9104C21.0203 23.5306 18.5856 24.6667 16 24.6667C13.2039 24.6667 10.5842 23.338 8.31978 21.5052C6.06908 19.6836 4.34905 17.507 3.39618 16.1595C3.35588 16.1025 3.3421 16.0479 3.3421 16.0001C3.3421 15.9523 3.35588 15.8976 3.39618 15.8407C4.34905 14.4931 6.06908 12.3166 8.31979 10.4949C8.96205 9.9751 9.63291 9.49581 10.3283 9.07588L8.87666 7.62426Z" fill="#18202A"/>
<path d="M12.9071 11.6547C11.551 12.6217 10.6667 14.2076 10.6667 16.0001C10.6667 18.9456 13.0545 21.3334 16 21.3334C17.7925 21.3334 19.3784 20.4491 20.3454 19.093L18.899 17.6466C18.3256 18.654 17.2421 19.3334 16 19.3334C14.1591 19.3334 12.6667 17.841 12.6667 16.0001C12.6667 14.758 13.3461 13.6745 14.3535 13.1011L12.9071 11.6547Z" fill="#18202A"/>
<path d="M16.8594 12.7786L14.868 10.7871C15.2328 10.7083 15.6116 10.6667 16 10.6667C18.9455 10.6667 21.3334 13.0546 21.3334 16.0001C21.3334 16.3885 21.2918 16.7673 21.213 17.1321L19.2215 15.1407C18.9155 13.9904 18.0097 13.0846 16.8594 12.7786Z" fill="#18202A"/>
<path d="M24.7034 20.6226C26.4538 19.0184 27.8011 17.2948 28.6039 16.1595C28.6442 16.1025 28.658 16.0479 28.658 16.0001C28.658 15.9523 28.6442 15.8976 28.6039 15.8407C27.651 14.4931 25.931 12.3166 23.6803 10.4949C21.4159 8.66221 18.7961 7.33341 16 7.33341C14.69 7.33341 13.4187 7.6251 12.2045 8.12364L10.6899 6.60909C12.3183 5.83009 14.1011 5.33341 16 5.33341C22.87 5.33341 28.2204 11.8344 30.2369 14.6859C30.7983 15.4799 30.7983 16.5202 30.2369 17.3142C29.3979 18.5007 27.9816 20.3191 26.1189 22.038L24.7034 20.6226Z" fill="#18202A"/>
<path fill-rule="evenodd" clip-rule="evenodd" d="M3.95958 3.95964C4.3501 3.56912 4.98327 3.56912 5.37379 3.95964L28.0405 26.6263C28.431 27.0168 28.431 27.65 28.0405 28.0405C27.6499 28.431 27.0168 28.431 26.6262 28.0405L3.95958 5.37385C3.56906 4.98333 3.56906 4.35017 3.95958 3.95964Z" fill="#18202A"/>
</svg>
