<svg width="32" height="32" viewBox="0 0 32 32" fill="none" xmlns="http://www.w3.org/2000/svg">
<path fill-rule="evenodd" clip-rule="evenodd" d="M4.94194 6.36496L2.96132 4.38434C2.56842 3.99143 2.56842 3.35441 2.96132 2.96151C3.35423 2.5686 3.99125 2.5686 4.38415 2.96151L29.0386 27.616C29.4315 28.0089 29.4315 28.6459 29.0386 29.0388C28.6457 29.4317 28.0087 29.4317 27.6158 29.0388L25.6352 27.0582C23.0581 29.3056 19.688 30.6668 16 30.6668C7.8998 30.6668 1.33331 24.1003 1.33331 16.0002C1.33331 12.3122 2.69453 8.94209 4.94194 6.36496ZM24.2171 25.6401C22.0051 27.5275 19.1356 28.6668 16 28.6668C9.00437 28.6668 3.33331 22.9958 3.33331 16.0002C3.33331 12.8645 4.47268 9.99501 6.36 7.78302L11.0113 12.4343L9.43628 12.6724C8.86202 12.7593 8.50848 13.1865 8.38782 13.5979C8.26748 14.0083 8.33679 14.5243 8.71158 14.9067L11.4214 17.6716L10.7767 21.5977C10.6959 22.0897 10.8918 22.5603 11.249 22.8485C11.6141 23.1429 12.1651 23.2497 12.665 22.975L16 21.1428L19.335 22.975C19.8349 23.2497 20.3859 23.1429 20.751 22.8485C20.8762 22.7475 20.9815 22.6241 21.0621 22.4852L24.2171 25.6401ZM19.0043 20.4273L12.7684 14.1914L11.0635 14.4492L13.5593 16.9956L12.9805 20.5198L16 18.8609L19.0195 20.5198L19.0043 20.4273ZM14.1813 9.93215L15.6838 11.4347L16 10.7646L16.881 12.6319L18.3001 14.0509L20.9365 14.4522L19.8294 15.5802L21.2436 16.9945L23.2877 14.9117C23.6628 14.5296 23.7324 14.0136 23.6124 13.6032C23.4921 13.1918 23.139 12.7644 22.5649 12.677L18.8467 12.1111L17.1647 8.54617C16.6954 7.55149 15.3046 7.55149 14.8353 8.54617L14.1813 9.93215ZM28.6666 16.0002C28.6666 18.4089 27.9943 20.6606 26.827 22.5779L28.2768 24.0276C29.7879 21.7213 30.6666 18.9634 30.6666 16.0002C30.6666 7.89999 24.1002 1.3335 16 1.3335C13.0368 1.3335 10.2788 2.21224 7.97252 3.72335L9.42228 5.17311C11.3395 4.00585 13.5912 3.3335 16 3.3335C22.9956 3.3335 28.6666 9.00456 28.6666 16.0002Z" fill="#18202A"/>
</svg>
