<svg width="32" height="32" viewBox="0 0 32 32" fill="none" xmlns="http://www.w3.org/2000/svg">
<path fill-rule="evenodd" clip-rule="evenodd" d="M16 8.33325C16.5523 8.33325 17 8.78097 17 9.33325V22.6666C17 23.2189 16.5523 23.6666 16 23.6666C15.4477 23.6666 15 23.2189 15 22.6666V9.33325C15 8.78097 15.4477 8.33325 16 8.33325Z" fill="#18202A"/>
<path fill-rule="evenodd" clip-rule="evenodd" d="M8.33331 15.9999C8.33331 15.4476 8.78103 14.9999 9.33331 14.9999H22.6666C23.2189 14.9999 23.6666 15.4476 23.6666 15.9999C23.6666 16.5522 23.2189 16.9999 22.6666 16.9999H9.33331C8.78103 16.9999 8.33331 16.5522 8.33331 15.9999Z" fill="#18202A"/>
<path fill-rule="evenodd" clip-rule="evenodd" d="M16 28.6666C22.9956 28.6666 28.6666 22.9955 28.6666 15.9999C28.6666 9.00431 22.9956 3.33325 16 3.33325C9.00437 3.33325 3.33331 9.00431 3.33331 15.9999C3.33331 22.9955 9.00437 28.6666 16 28.6666ZM16 30.6666C24.1002 30.6666 30.6666 24.1001 30.6666 15.9999C30.6666 7.89974 24.1002 1.33325 16 1.33325C7.8998 1.33325 1.33331 7.89974 1.33331 15.9999C1.33331 24.1001 7.8998 30.6666 16 30.6666Z" fill="#18202A"/>
</svg>
