<svg width="32" height="32" viewBox="0 0 32 32" fill="none" xmlns="http://www.w3.org/2000/svg">
<path d="M9.33331 6C9.33331 7.10457 10.2287 8 11.3333 8C12.4379 8 13.3333 7.10457 13.3333 6C13.3333 4.89543 12.4379 4 11.3333 4C10.2287 4 9.33331 4.89543 9.33331 6Z" fill="#18202A"/>
<path d="M18.6666 6C18.6666 7.10457 19.5621 8 20.6666 8C21.7712 8 22.6666 7.10457 22.6666 6C22.6666 4.89543 21.7712 4 20.6666 4C19.5621 4 18.6666 4.89543 18.6666 6Z" fill="#18202A"/>
<path d="M20.6666 17.3333C19.5621 17.3333 18.6666 16.4379 18.6666 15.3333C18.6666 14.2288 19.5621 13.3333 20.6666 13.3333C21.7712 13.3333 22.6666 14.2288 22.6666 15.3333C22.6666 16.4379 21.7712 17.3333 20.6666 17.3333Z" fill="#18202A"/>
<path d="M9.33331 15.3333C9.33331 16.4379 10.2287 17.3333 11.3333 17.3333C12.4379 17.3333 13.3333 16.4379 13.3333 15.3333C13.3333 14.2288 12.4379 13.3333 11.3333 13.3333C10.2287 13.3333 9.33331 14.2288 9.33331 15.3333Z" fill="#18202A"/>
<path d="M20.6666 26.6667C19.5621 26.6667 18.6666 25.7712 18.6666 24.6667C18.6666 23.5621 19.5621 22.6667 20.6666 22.6667C21.7712 22.6667 22.6666 23.5621 22.6666 24.6667C22.6666 25.7712 21.7712 26.6667 20.6666 26.6667Z" fill="#18202A"/>
<path d="M9.33331 24.6667C9.33331 25.7712 10.2287 26.6667 11.3333 26.6667C12.4379 26.6667 13.3333 25.7712 13.3333 24.6667C13.3333 23.5621 12.4379 22.6667 11.3333 22.6667C10.2287 22.6667 9.33331 23.5621 9.33331 24.6667Z" fill="#18202A"/>
</svg>
