<svg width="32" height="32" viewBox="0 0 32 32" fill="none" xmlns="http://www.w3.org/2000/svg">
<path d="M13.354 29.1433C13.2687 28.2465 13.4443 27.3042 13.9422 26.4242L20.0317 15.6599C21.7864 12.558 26.2135 12.558 27.9683 15.6599L30.1128 19.4507C30.4768 18.2142 30.6667 16.9156 30.6667 15.588C30.6667 6.9335 24.1063 1.3335 16.0136 1.3335C7.92098 1.3335 0.837341 7.95168 1.3606 15.588C1.3606 20.1511 3.18429 23.7235 6.09473 26.0814L6.37487 29.4431C6.45173 30.3655 7.42196 30.9309 8.26234 30.543L11.8969 28.8655C12.373 28.9782 12.8591 29.071 13.354 29.1433Z" fill="#18202A"/>
<path fill-rule="evenodd" clip-rule="evenodd" d="M30.3965 30.6668H17.6035C16.3739 30.6668 15.6032 29.3124 16.2136 28.2243L22.6101 16.8221C23.2249 15.7262 24.7751 15.7262 25.3899 16.8221L31.7864 28.2243C32.3968 29.3124 31.6261 30.6668 30.3965 30.6668ZM24 20.0002C23.2636 20.0002 22.6667 20.5971 22.6667 21.3335V24.0002C22.6667 24.7365 23.2636 25.3335 24 25.3335C24.7364 25.3335 25.3333 24.7365 25.3333 24.0002V21.3335C25.3333 20.5971 24.7364 20.0002 24 20.0002ZM24 26.6668C23.2636 26.6668 22.6667 27.2638 22.6667 28.0002C22.6667 28.7365 23.2636 29.3335 24 29.3335C24.7364 29.3335 25.3333 28.7365 25.3333 28.0002C25.3333 27.2638 24.7364 26.6668 24 26.6668Z" fill="#18202A"/>
</svg>
