<svg width="32" height="32" viewBox="0 0 32 32" fill="none" xmlns="http://www.w3.org/2000/svg">
<path fill-rule="evenodd" clip-rule="evenodd" d="M11.7238 4.66663C12.5638 3.82668 14 4.42158 14 5.60945V10.0077C17.6176 10.0924 21.4955 10.8889 24.5406 13.2389C27.8062 15.759 30 19.9758 30 26.6666C30 26.9675 29.7985 27.2311 29.5082 27.31C29.2178 27.3889 28.9107 27.2636 28.7584 27.0041C26.9673 23.9526 25.5451 22.0946 23.4183 20.9542C21.3706 19.8561 18.5837 19.3775 14 19.3362V23.7238C14 24.9117 12.5638 25.5066 11.7238 24.6666L2.66665 15.6094C2.14595 15.0887 2.14595 14.2445 2.66665 13.7238L11.7238 4.66663Z" fill="#18202A"/>
</svg>
