<svg width="32" height="32" viewBox="0 0 32 32" fill="none" xmlns="http://www.w3.org/2000/svg">
<path d="M5.33333 4C3.12419 4 1.33333 5.79086 1.33333 8V9.3142C1.33672 9.06356 1.41072 8.81104 1.56139 8.58773C1.97325 7.9773 2.80198 7.81632 3.41241 8.22819L14.099 15.4385C14.6271 15.7948 15.2955 16.0001 16 16.0001C16.7045 16.0001 17.3728 15.7949 17.9009 15.4385L28.5876 8.22819C29.198 7.81632 30.0268 7.9773 30.4386 8.58773C30.5889 8.8105 30.6629 9.06235 30.6667 9.31239V8C30.6667 5.79086 28.8758 4 26.6667 4H5.33333Z" fill="#18202A"/>
<path d="M30.6667 9.35212C30.6604 9.77353 30.4549 10.1852 30.0791 10.4388L19.3926 17.649C18.403 18.3167 17.2103 18.6668 16 18.6668C14.7898 18.6668 13.5971 18.3168 12.6075 17.6491L1.92094 10.4388C1.54454 10.1848 1.33903 9.77235 1.33333 9.35032V24C1.33333 26.2091 3.12419 28 5.33333 28H26.6667C28.8758 28 30.6667 26.2091 30.6667 24V9.35212Z" fill="#18202A"/>
<path fill-rule="evenodd" clip-rule="evenodd" d="M26.6667 6.66667H5.33333C4.59695 6.66667 3.99999 7.26362 3.99999 8V24C3.99999 24.7364 4.59695 25.3333 5.33333 25.3333H26.6667C27.403 25.3333 28 24.7364 28 24V8C28 7.26362 27.403 6.66667 26.6667 6.66667ZM5.33333 4C3.12419 4 1.33333 5.79086 1.33333 8V24C1.33333 26.2091 3.12419 28 5.33333 28H26.6667C28.8758 28 30.6667 26.2091 30.6667 24V8C30.6667 5.79086 28.8758 4 26.6667 4H5.33333Z" fill="#18202A"/>
</svg>
