<svg width="32" height="32" viewBox="0 0 32 32" fill="none" xmlns="http://www.w3.org/2000/svg">
<g clip-path="url(#clip0_2294_13645)">
<path fill-rule="evenodd" clip-rule="evenodd" d="M21.3333 7.16634C21.3333 11.333 19.5555 14.6663 16 14.6663C12.4444 14.6663 10.6666 11.333 10.6666 7.16634C10.6666 3.83301 12.4444 1.33301 16 1.33301C19.5555 1.33301 21.3333 3.83301 21.3333 7.16634ZM19.3333 7.16634C19.3333 9.00382 18.9355 10.4558 18.328 11.3813C17.7743 12.2249 17.0434 12.6663 16 12.6663C14.9566 12.6663 14.2257 12.2249 13.672 11.3813C13.0644 10.4558 12.6666 9.00382 12.6666 7.16634C12.6666 5.83323 13.0227 4.88228 13.5214 4.29791C13.9815 3.75872 14.728 3.33301 16 3.33301C17.272 3.33301 18.0185 3.75872 18.4786 4.29791C18.9773 4.88228 19.3333 5.83323 19.3333 7.16634ZM17.3149 28.6278C17.5982 29.3165 17.9676 29.9606 18.4098 30.5469C17.6172 30.6259 16.8133 30.6663 16 30.6663C13.9368 30.6663 11.9344 30.406 10.0239 29.9164C8.39848 29.4998 7.0209 28.4111 6.26645 26.9123C6.04281 26.4681 5.83424 26.0149 5.64141 25.5536C4.82207 23.5932 5.1486 21.2996 6.66574 19.812C9.07082 17.4538 12.3656 15.9997 16 15.9997C18.1184 15.9997 20.1215 16.4937 21.9002 17.3729C21.1407 17.7009 20.4374 18.1345 19.8088 18.6551C18.6187 18.2306 17.3367 17.9997 16 17.9997C12.9101 17.9997 10.1123 19.2336 8.06596 21.2401C7.20751 22.0818 6.94084 23.4762 7.48673 24.7823C7.66136 25.2002 7.85028 25.6106 8.05287 26.0131C8.54131 26.9834 9.44125 27.7024 10.5204 27.979C12.27 28.4274 14.1057 28.6663 16 28.6663C16.4416 28.6663 16.88 28.6534 17.3149 28.6278ZM32 25.333C32 29.0149 29.0152 31.9997 25.3333 31.9997C21.6514 31.9997 18.6666 29.0149 18.6666 25.333C18.6666 21.6511 21.6514 18.6663 25.3333 18.6663C29.0152 18.6663 32 21.6511 32 25.333ZM29.3174 22.5737C29.7367 22.9332 29.7853 23.5645 29.4259 23.9838L25.4259 28.6505C25.0829 29.0506 24.4882 29.1159 24.0666 28.7997L21.4 26.7997C20.9581 26.4683 20.8686 25.8415 21.2 25.3997C21.5313 24.9578 22.1581 24.8683 22.6 25.1997L24.5171 26.6375L27.9074 22.6822C28.2668 22.2629 28.8981 22.2143 29.3174 22.5737Z" fill="#18202A"/>
</g>
<defs>
<clipPath id="clip0_2294_13645">
<rect width="32" height="32" fill="white"/>
</clipPath>
</defs>
</svg>
