<svg width="32" height="32" viewBox="0 0 32 32" fill="none" xmlns="http://www.w3.org/2000/svg">
<path d="M28.2917 17.2712C26.3659 19.3447 21.7385 24.6674 18.645 28.1175C17.198 29.7313 14.802 29.7313 13.355 28.1175C10.2615 24.6674 5.63408 19.3447 3.70828 17.2712C2.62504 16.1042 1.33333 14.2017 1.33333 11.766C1.33333 7.48438 4.94971 4 9.3958 4C11.8011 4 14.064 5.67943 15.6029 7.46667C15.803 7.69819 16.198 7.69819 16.397 7.46667C17.936 5.67943 20.1989 4 22.6042 4C27.0503 4 30.6667 7.48438 30.6667 11.766C30.6667 14.2017 29.3749 16.1042 28.2917 17.2712Z" fill="#18202A"/>
</svg>
