<svg width="32" height="32" viewBox="0 0 32 32" fill="none" xmlns="http://www.w3.org/2000/svg">
<path fill-rule="evenodd" clip-rule="evenodd" d="M1.33333 16C1.33333 24.1002 7.89982 30.6666 16 30.6666C24.1002 30.6666 30.6667 24.1002 30.6667 16C30.6667 7.8998 24.1002 1.33331 16 1.33331C7.89982 1.33331 1.33333 7.8998 1.33333 16ZM22.2761 18.2761C22.7968 17.7554 22.7968 16.9112 22.2761 16.3905C21.7554 15.8698 20.9112 15.8698 20.3905 16.3905L17.3333 19.4477V9.33331C17.3333 8.59693 16.7364 7.99998 16 7.99998C15.2636 7.99998 14.6667 8.59693 14.6667 9.33331V19.4477L11.6095 16.3905C11.0888 15.8698 10.2446 15.8698 9.72385 16.3905C9.20315 16.9112 9.20315 17.7554 9.72385 18.2761L15.0572 23.6095C15.5779 24.1302 16.4221 24.1302 16.9428 23.6095L22.2761 18.2761Z" fill="#18202A"/>
</svg>
