<svg width="32" height="32" viewBox="0 0 32 32" fill="none" xmlns="http://www.w3.org/2000/svg">
<path fill-rule="evenodd" clip-rule="evenodd" d="M13.0907 6.58579L15.1716 8.66667H25.3333C27.1743 8.66667 28.6666 10.1591 28.6666 12H3.33331V9.33333C3.33331 7.49238 4.8257 6 6.66665 6H11.6765C12.2069 6 12.7156 6.21071 13.0907 6.58579ZM3.33331 13.3333V22.6667C3.33331 24.5076 4.8257 26 6.66665 26H25.3333C27.1743 26 28.6666 24.5076 28.6666 22.6667V13.3333H3.33331ZM1.33331 9.33333C1.33331 6.38781 3.72113 4 6.66665 4H11.6765C12.7373 4 13.7547 4.42143 14.5049 5.17157L16 6.66667H25.3333C28.2788 6.66667 30.6666 9.05448 30.6666 12V22.6667C30.6666 25.6122 28.2788 28 25.3333 28H6.66665C3.72113 28 1.33331 25.6122 1.33331 22.6667V9.33333Z" fill="#18202A"/>
</svg>
