<svg width="32" height="32" viewBox="0 0 32 32" fill="none" xmlns="http://www.w3.org/2000/svg">
<path fill-rule="evenodd" clip-rule="evenodd" d="M16.5006 1.40665L29.4884 5.31326C30.1892 5.52448 30.6673 6.14974 30.6667 6.85704C30.6667 24.1558 21.593 28.2911 16.7172 30.5118C16.4905 30.6152 16.2458 30.6668 16.0003 30.6668C15.7549 30.6668 15.5095 30.6152 15.2821 30.5118C10.407 28.2904 1.33333 24.1558 1.33333 6.85704C1.33333 6.1491 1.81145 5.52383 2.51221 5.31326L15.5001 1.40665C15.826 1.30911 16.1747 1.30911 16.5006 1.40665ZM15.1888 9.1872C15.5162 8.49337 16.4838 8.49337 16.8112 9.1872L18.1871 12.1033L21.2319 12.5668C21.6308 12.6275 21.8775 12.9245 21.962 13.2134C22.0462 13.5015 21.997 13.8624 21.7351 14.1294L19.5204 16.3859L20.0471 19.5931C20.1038 19.9383 19.9663 20.2673 19.7171 20.4684C19.4626 20.6736 19.0798 20.7475 18.7322 20.5565L16 19.0555L13.2678 20.5565C12.9202 20.7475 12.5374 20.6736 12.2829 20.4684C12.0337 20.2673 11.8962 19.9383 11.9529 19.5931L12.4797 16.3856L10.2645 14.1254C10.0027 13.8583 9.95373 13.4973 10.0382 13.2092C10.1229 12.9204 10.3699 12.6235 10.769 12.5632L13.8131 12.103L15.1888 9.1872Z" fill="#18202A"/>
</svg>
