<svg width="32" height="32" viewBox="0 0 32 32" fill="none" xmlns="http://www.w3.org/2000/svg">
<path d="M24 3.66675C24 4.21903 23.5523 4.66675 23 4.66675H8.00002C6.15907 4.66675 4.66669 6.15913 4.66669 8.00008V24.0001C4.66669 25.841 6.15907 27.3334 8.00002 27.3334H24C25.841 27.3334 27.3334 25.841 27.3334 24.0001V15.6667C27.3334 15.1145 27.7811 14.6667 28.3334 14.6667C28.8856 14.6667 29.3334 15.1145 29.3334 15.6667V24.0001C29.3334 26.9456 26.9455 29.3334 24 29.3334H8.00002C5.0545 29.3334 2.66669 26.9456 2.66669 24.0001V8.00008C2.66669 5.05456 5.0545 2.66675 8.00002 2.66675H23C23.5523 2.66675 24 3.11446 24 3.66675Z" fill="#18202A"/>
<path d="M29.3738 8.04052C29.7643 7.65 29.7643 7.01683 29.3738 6.62631C28.9833 6.23578 28.3501 6.23578 27.9596 6.62631L15.3334 19.2525L10.7071 14.6263C10.3166 14.2358 9.68344 14.2358 9.29291 14.6263C8.90239 15.0168 8.90239 15.65 9.29291 16.0405L14.6262 21.3739C15.0168 21.7644 15.6499 21.7644 16.0405 21.3739L29.3738 8.04052Z" fill="#18202A"/>
</svg>
