<svg width="32" height="32" viewBox="0 0 32 32" fill="none" xmlns="http://www.w3.org/2000/svg">
<path fill-rule="evenodd" clip-rule="evenodd" d="M26.0405 5.95964C26.431 6.35017 26.431 6.98333 26.0405 7.37385L7.37379 26.0405C6.98327 26.431 6.3501 26.431 5.95958 26.0405C5.56906 25.65 5.56906 25.0168 5.95958 24.6263L24.6262 5.95964C25.0168 5.56912 25.6499 5.56912 26.0405 5.95964Z" fill="#18202A"/>
<path fill-rule="evenodd" clip-rule="evenodd" d="M5.95958 5.95964C6.3501 5.56912 6.98327 5.56912 7.37379 5.95964L26.0405 24.6263C26.431 25.0168 26.431 25.65 26.0405 26.0405C25.6499 26.431 25.0168 26.431 24.6262 26.0405L5.95958 7.37385C5.56906 6.98333 5.56906 6.35017 5.95958 5.95964Z" fill="#18202A"/>
</svg>
