<svg width="32" height="32" viewBox="0 0 32 32" fill="none" xmlns="http://www.w3.org/2000/svg">
<g clip-path="url(#clip0_2294_12365)">
<path fill-rule="evenodd" clip-rule="evenodd" d="M32 16C32 17.1431 31.8801 18.2581 31.6523 19.3333H30.2862C29.0257 24.7566 24.7567 29.0256 19.3333 30.286V28.2233C23.6496 27.049 27.0491 23.6496 28.2234 19.3333H23.2745C22.4762 21.0725 21.0726 22.4761 19.3333 23.2744V20.9894C19.9879 20.5512 20.5515 19.9877 20.9896 19.3331C21.1146 19.1464 21.2296 18.9522 21.3333 18.7515C21.5625 18.3081 21.738 17.8326 21.8513 17.3333C21.9486 16.9045 22 16.4583 22 16C22 15.5417 21.9486 15.0955 21.8513 14.6667C21.738 14.1674 21.5625 13.6919 21.3333 13.2485C21.2295 13.0477 21.1147 12.8535 20.9896 12.6667H31.6523C31.8801 13.7419 32 14.8569 32 16ZM29.9375 17.3333H23.8891C23.962 16.8994 24 16.4539 24 16C24 15.5461 23.962 15.1006 23.8891 14.6667H29.9375C29.9788 15.1051 30 15.5499 30 16C30 16.4501 29.9788 16.8949 29.9375 17.3333Z" fill="#18202A"/>
<path fill-rule="evenodd" clip-rule="evenodd" d="M16 0C17.1431 0 18.2581 0.119867 19.3333 0.347718V11.0104C19.1465 10.8853 18.9523 10.7705 18.7515 10.6667C18.3081 10.4375 17.8326 10.262 17.3333 10.1487C16.9045 10.0514 16.4583 10 16 10C15.5417 10 15.0955 10.0514 14.6667 10.1487C14.1674 10.262 13.6919 10.4375 13.2485 10.6667C13.0477 10.7705 12.8535 10.8853 12.6667 11.0104C12.0121 11.4485 11.4485 12.0118 11.0104 12.6664H8.7254C9.52367 10.9271 10.9274 9.52343 12.6667 8.72515V3.77627C8.35032 4.95057 4.95081 8.35007 3.77651 12.6664H1.71379C2.9742 7.24302 7.24326 2.97396 12.6667 1.71354L12.6667 0.347718C13.7419 0.119867 14.8569 0 16 0ZM17.3333 2.06253V8.1109C16.8994 8.03797 16.4539 8 16 8C15.5461 8 15.1006 8.03797 14.6667 8.1109V2.06253C15.1051 2.02118 15.5499 2 16 2C16.4501 2 16.8949 2.02118 17.3333 2.06253Z" fill="#18202A"/>
<path fill-rule="evenodd" clip-rule="evenodd" d="M0 16C0 14.8569 0.119867 13.7419 0.347718 12.6667L11.0104 12.6664C10.8853 12.8532 10.7705 13.0477 10.6667 13.2485C10.4375 13.6919 10.262 14.1674 10.1487 14.6667C10.0514 15.0955 10 15.5417 10 16C10 16.4583 10.0514 16.9045 10.1487 17.3333C10.262 17.8326 10.4375 18.3081 10.6667 18.7515C10.7704 18.9522 10.8852 19.1464 11.0102 19.3331C11.4484 19.9877 12.0121 20.5512 12.6667 20.9894C12.8535 21.1144 13.0477 21.2295 13.2485 21.3333C13.6919 21.5625 14.1674 21.738 14.6667 21.8513C15.0955 21.9486 15.5417 22 16 22C16.4583 22 16.9045 21.9486 17.3333 21.8513C17.8326 21.738 18.3081 21.5625 18.7515 21.3333C18.9523 21.2295 19.1465 21.1144 19.3333 20.9894L19.3333 31.6523C18.2581 31.8801 17.1431 32 16 32C14.8569 32 13.7419 31.8801 12.6667 31.6523L12.6667 30.286C7.24334 29.0256 2.97433 24.7566 1.71384 19.3333H0.347718C0.119867 18.2581 0 17.1431 0 16ZM3.77658 19.3333C4.95094 23.6496 8.35039 27.049 12.6667 28.2233V23.2744C10.9275 22.4761 9.5238 21.0725 8.72551 19.3333H3.77658ZM2.06253 14.6667H8.1109C8.03797 15.1006 8 15.5461 8 16C8 16.4539 8.03797 16.8994 8.1109 17.3333H2.06253C2.02118 16.8949 2 16.4501 2 16C2 15.5499 2.02118 15.1051 2.06253 14.6667ZM14.6667 29.9375V23.8891C15.1006 23.962 15.5461 24 16 24C16.4539 24 16.8994 23.962 17.3333 23.8891V29.9375C16.8949 29.9788 16.4501 30 16 30C15.5499 30 15.1051 29.9788 14.6667 29.9375Z" fill="#18202A"/>
<path d="M28.2235 12.6664H30.2862C29.0258 7.24302 24.7568 2.97396 19.3333 1.71354V3.77627C23.6497 4.95057 27.0492 8.35007 28.2235 12.6664Z" fill="#18202A"/>
<path d="M20.9896 12.6667C20.5515 12.0121 19.9879 11.4485 19.3333 11.0104L19.3333 8.72515C21.0726 9.52343 22.4763 10.9271 23.2746 12.6664L20.9896 12.6667Z" fill="#18202A"/>
</g>
<defs>
<clipPath id="clip0_2294_12365">
<rect width="32" height="32" fill="white"/>
</clipPath>
</defs>
</svg>
