<svg width="32" height="32" viewBox="0 0 32 32" fill="none" xmlns="http://www.w3.org/2000/svg">
<path fill-rule="evenodd" clip-rule="evenodd" d="M7.60947 11.0571C8.13017 11.5778 8.13017 12.422 7.60947 12.9427L4.55228 15.9999L7.60947 19.0571C8.13017 19.5778 8.13017 20.422 7.60947 20.9427C7.08877 21.4634 6.24455 21.4634 5.72385 20.9427L1.72385 16.9427C1.20315 16.422 1.20315 15.5778 1.72385 15.0571L5.72385 11.0571C6.24455 10.5364 7.08877 10.5364 7.60947 11.0571Z" fill="#18202A"/>
<path fill-rule="evenodd" clip-rule="evenodd" d="M15.0572 1.72378C15.5779 1.20308 16.4221 1.20308 16.9428 1.72378L20.9428 5.72378C21.4635 6.24448 21.4635 7.0887 20.9428 7.6094C20.4221 8.13009 19.5779 8.13009 19.0572 7.6094L16 4.5522L12.9428 7.6094C12.4221 8.13009 11.5779 8.13009 11.0572 7.6094C10.5365 7.0887 10.5365 6.24448 11.0572 5.72378L15.0572 1.72378Z" fill="#18202A"/>
<path fill-rule="evenodd" clip-rule="evenodd" d="M11.0572 24.3904C11.5779 23.8697 12.4221 23.8697 12.9428 24.3904L16 27.4476L19.0572 24.3904C19.5779 23.8697 20.4221 23.8697 20.9428 24.3904C21.4635 24.9111 21.4635 25.7554 20.9428 26.2761L16.9428 30.2761C16.4221 30.7968 15.5779 30.7968 15.0572 30.2761L11.0572 26.2761C10.5365 25.7554 10.5365 24.9111 11.0572 24.3904Z" fill="#18202A"/>
<path fill-rule="evenodd" clip-rule="evenodd" d="M24.3905 11.0571C24.9112 10.5364 25.7554 10.5364 26.2761 11.0571L30.2761 15.0571C30.7968 15.5778 30.7968 16.422 30.2761 16.9427L26.2761 20.9427C25.7554 21.4634 24.9112 21.4634 24.3905 20.9427C23.8698 20.422 23.8698 19.5778 24.3905 19.0571L27.4477 15.9999L24.3905 12.9427C23.8698 12.422 23.8698 11.5778 24.3905 11.0571Z" fill="#18202A"/>
<path fill-rule="evenodd" clip-rule="evenodd" d="M1.33333 15.9999C1.33333 15.2635 1.93028 14.6666 2.66666 14.6666H29.3333C30.0697 14.6666 30.6667 15.2635 30.6667 15.9999C30.6667 16.7363 30.0697 17.3333 29.3333 17.3333H2.66666C1.93028 17.3333 1.33333 16.7363 1.33333 15.9999Z" fill="#18202A"/>
<path fill-rule="evenodd" clip-rule="evenodd" d="M16 1.33325C16.7364 1.33325 17.3333 1.93021 17.3333 2.66659V29.3333C17.3333 30.0696 16.7364 30.6666 16 30.6666C15.2636 30.6666 14.6667 30.0696 14.6667 29.3333V2.66659C14.6667 1.93021 15.2636 1.33325 16 1.33325Z" fill="#18202A"/>
</svg>
