<svg width="32" height="32" viewBox="0 0 32 32" fill="none" xmlns="http://www.w3.org/2000/svg">
<g clip-path="url(#clip0_2291_21931)">
<path fill-rule="evenodd" clip-rule="evenodd" d="M9.33337 1.33334C8.59699 1.33334 8.00004 1.9303 8.00004 2.66668V4.00001H6.66671C3.72119 4.00001 1.33337 6.38783 1.33337 9.33334V25.3333C1.33337 28.2789 3.72119 30.6667 6.66671 30.6667H15.6729C14.4705 29.1668 13.665 27.3351 13.4156 25.3309C13.3884 25.3325 13.361 25.3333 13.3334 25.3333C12.597 25.3333 12 24.7364 12 24C12 23.2636 12.597 22.6667 13.3334 22.6667C13.361 22.6667 13.3884 22.6675 13.4156 22.6692C13.5498 21.5912 13.8448 20.5632 14.2758 19.6098C14.0346 19.8509 13.7014 20 13.3334 20C12.597 20 12 19.4031 12 18.6667C12 17.9303 12.597 17.3333 13.3334 17.3333C14.0698 17.3333 14.6667 17.9303 14.6667 18.6667C14.6667 18.731 14.6622 18.7943 14.6533 18.8562C15.6235 17.0971 17.0758 15.6412 18.832 14.6667H8.00004C7.26366 14.6667 6.66671 14.0697 6.66671 13.3333C6.66671 12.597 7.26366 12 8.00004 12H24C24.7364 12 25.3334 12.597 25.3334 13.3333C25.3334 13.361 25.3325 13.3884 25.3309 13.4156C27.3352 13.665 29.1668 14.4705 30.6667 15.6728V9.33334C30.6667 6.38783 28.2789 4.00001 25.3334 4.00001H24V2.66668C24 1.9303 23.4031 1.33334 22.6667 1.33334C21.9303 1.33334 21.3334 1.9303 21.3334 2.66668V4.00001H10.6667V2.66668C10.6667 1.9303 10.0698 1.33334 9.33337 1.33334ZM6.66671 18.6667C6.66671 17.9303 7.26366 17.3333 8.00004 17.3333C8.73642 17.3333 9.33337 17.9303 9.33337 18.6667C9.33337 19.4031 8.73642 20 8.00004 20C7.26366 20 6.66671 19.4031 6.66671 18.6667ZM8.00004 22.6667C7.26366 22.6667 6.66671 23.2636 6.66671 24C6.66671 24.7364 7.26366 25.3333 8.00004 25.3333C8.73642 25.3333 9.33337 24.7364 9.33337 24C9.33337 23.2636 8.73642 22.6667 8.00004 22.6667ZM32 24C32 28.4183 28.4183 32 24 32C19.5818 32 16 28.4183 16 24C16 19.5817 19.5818 16 24 16C28.4183 16 32 19.5817 32 24ZM24 19.6667C24.5523 19.6667 25 20.1144 25 20.6667V23.5858L26.7071 25.2929C27.0977 25.6834 27.0977 26.3166 26.7071 26.7071C26.3166 27.0976 25.6835 27.0976 25.2929 26.7071L23.2929 24.7071C23.1054 24.5196 23 24.2652 23 24V20.6667C23 20.1144 23.4478 19.6667 24 19.6667Z" fill="#18202A"/>
</g>
<defs>
<clipPath id="clip0_2291_21931">
<rect width="32" height="32" fill="white"/>
</clipPath>
</defs>
</svg>
