<svg width="32" height="32" viewBox="0 0 32 32" fill="none" xmlns="http://www.w3.org/2000/svg">
<path d="M7.33333 20.4208L6.47167 20.958L7.12137 17.6997H4.12121C3.03807 17.6997 2 16.7509 2 15.3783V5.65497C2 4.28237 3.03807 3.3335 4.12121 3.3335H18.5455C19.6286 3.3335 20.6667 4.28237 20.6667 5.65497V6.00016H22.6667V5.65497C22.6667 3.26828 20.8215 1.3335 18.5455 1.3335H4.12121C1.84513 1.3335 0 3.26828 0 5.65497V15.3783C0 17.2399 1.1226 18.8266 2.69669 19.4346C3.14064 19.6061 3.62049 19.6997 4.12121 19.6997H4.6832L4.08581 22.6957C3.90227 23.6161 4.85006 24.326 5.62086 23.8454L7.33333 22.7777V20.4208Z" fill="#18202A"/>
<path fill-rule="evenodd" clip-rule="evenodd" d="M29.3033 26.1013C30.8774 25.4933 32 23.9066 32 22.0449V12.3216C32 9.93495 30.1549 8.00016 27.8788 8.00016H13.4545C11.1785 8.00016 9.33333 9.93495 9.33333 12.3216V22.0449C9.33333 24.4316 11.1785 26.3664 13.4545 26.3664H19.73L26.3791 30.5121C27.1499 30.9926 28.0977 30.2828 27.9142 29.3623L27.3168 26.3664H27.8788C28.3795 26.3664 28.8594 26.2728 29.3033 26.1013ZM20.3024 24.3664L25.5283 27.6247L24.8786 24.3664H27.8788C28.9619 24.3664 30 23.4175 30 22.0449V12.3216C30 10.949 28.9619 10.0002 27.8788 10.0002H13.4545C12.3714 10.0002 11.3333 10.949 11.3333 12.3216V22.0449C11.3333 23.4175 12.3714 24.3664 13.4545 24.3664H20.3024Z" fill="#18202A"/>
</svg>
