<svg width="32" height="32" viewBox="0 0 32 32" fill="none" xmlns="http://www.w3.org/2000/svg">
<path fill-rule="evenodd" clip-rule="evenodd" d="M22.0404 9.95948C22.4309 10.35 22.4309 10.9832 22.0404 11.3737L11.3738 22.0404C10.9832 22.4309 10.3501 22.4309 9.95954 22.0404C9.56902 21.6498 9.56902 21.0167 9.95954 20.6261L20.6262 9.95948C21.0167 9.56895 21.6499 9.56895 22.0404 9.95948Z" fill="#18202A"/>
<path fill-rule="evenodd" clip-rule="evenodd" d="M9.95954 9.95948C10.3501 9.56895 10.9832 9.56895 11.3738 9.95948L22.0404 20.6261C22.4309 21.0167 22.4309 21.6498 22.0404 22.0404C21.6499 22.4309 21.0167 22.4309 20.6262 22.0404L9.95954 11.3737C9.56902 10.9832 9.56902 10.35 9.95954 9.95948Z" fill="#18202A"/>
<path fill-rule="evenodd" clip-rule="evenodd" d="M16 28.6666C22.9956 28.6666 28.6666 22.9955 28.6666 15.9999C28.6666 9.00431 22.9956 3.33325 16 3.33325C9.00437 3.33325 3.33331 9.00431 3.33331 15.9999C3.33331 22.9955 9.00437 28.6666 16 28.6666ZM30.6666 15.9999C30.6666 24.1001 24.1002 30.6666 16 30.6666C7.8998 30.6666 1.33331 24.1001 1.33331 15.9999C1.33331 7.89974 7.8998 1.33325 16 1.33325C24.1002 1.33325 30.6666 7.89974 30.6666 15.9999Z" fill="#18202A"/>
</svg>
