<svg width="32" height="32" viewBox="0 0 32 32" fill="none" xmlns="http://www.w3.org/2000/svg">
<path d="M10.6667 5C7.53705 5 5 7.53705 5 10.6667C5 12.9888 6.39692 14.9869 8.40037 15.8623C8.90646 16.0834 9.13747 16.6729 8.91635 17.179C8.69523 17.6851 8.10572 17.9161 7.59963 17.695C4.894 16.5128 3 13.812 3 10.6667C3 6.43248 6.43248 3 10.6667 3C13.812 3 16.5128 4.894 17.695 7.59963C17.9161 8.10572 17.6851 8.69523 17.179 8.91635C16.6729 9.13747 16.0834 8.90646 15.8623 8.40037C14.9869 6.39692 12.9888 5 10.6667 5Z" fill="#18202A"/>
<path fill-rule="evenodd" clip-rule="evenodd" d="M9.73054 11.8241C9.32047 10.5353 10.5353 9.32047 11.8241 9.73054L24.5464 13.7785C25.8781 14.2023 26.1284 15.9783 24.9656 16.7535L22.5529 18.3619L27.1891 22.9981C27.84 23.649 27.84 24.7042 27.1891 25.3551L25.3551 27.1891C24.7042 27.84 23.649 27.84 22.9981 27.1891L18.3619 22.5529L16.7535 24.9656C15.9783 26.1284 14.2023 25.8781 13.7785 24.5464L9.73054 11.8241ZM11.8318 11.8318L15.4741 23.2791L17.3745 20.4286C17.5406 20.1793 17.8098 20.0177 18.108 19.9882C18.4061 19.9586 18.7018 20.0643 18.9136 20.2762L24.1766 25.5392L25.5392 24.1766L20.2762 18.9136C20.0643 18.7018 19.9586 18.4061 19.9882 18.108C20.0177 17.8098 20.1793 17.5406 20.4286 17.3745L23.2791 15.4741L11.8318 11.8318Z" fill="#18202A"/>
</svg>
