<svg width="32" height="32" viewBox="0 0 32 32" fill="none" xmlns="http://www.w3.org/2000/svg">
<path fill-rule="evenodd" clip-rule="evenodd" d="M16 28.6667C9.00437 28.6667 3.33331 22.9956 3.33331 16C3.33331 9.00443 9.00437 3.33337 16 3.33337C22.9956 3.33337 28.6666 9.00443 28.6666 16C28.6666 22.9956 22.9956 28.6667 16 28.6667ZM16 30.6667C7.8998 30.6667 1.33331 24.1002 1.33331 16C1.33331 7.89986 7.8998 1.33337 16 1.33337C24.1002 1.33337 30.6666 7.89986 30.6666 16C30.6666 24.1002 24.1002 30.6667 16 30.6667Z" fill="#18202A"/>
<path fill-rule="evenodd" clip-rule="evenodd" d="M18.0404 9.9596C17.6499 9.56908 17.0167 9.56908 16.6262 9.9596L11.2929 15.2929C10.9023 15.6835 10.9023 16.3166 11.2929 16.7071L16.6262 22.0405C17.0167 22.431 17.6499 22.431 18.0404 22.0405C18.4309 21.65 18.4309 21.0168 18.0404 20.6263L13.4142 16L18.0404 11.3738C18.4309 10.9833 18.4309 10.3501 18.0404 9.9596Z" fill="#18202A"/>
</svg>
