<svg width="32" height="32" viewBox="0 0 32 32" fill="none" xmlns="http://www.w3.org/2000/svg">
<path d="M20 9.99967C20 13.333 18.6667 15.9997 16 15.9997C13.3333 15.9997 12 13.333 12 9.99967C12 7.33301 13.3333 5.33301 16 5.33301C18.6667 5.33301 20 7.33301 20 9.99967Z" fill="#18202A"/>
<path d="M23.4112 26.1951C22.702 27.7462 21.2457 28.8202 19.5587 29.071C18.3975 29.2436 17.2092 29.333 16 29.333C14.7908 29.333 13.6025 29.2436 12.4413 29.071C10.7543 28.8202 9.29803 27.7462 8.58875 26.1951C8.33847 25.6478 8.11065 25.088 7.90649 24.517C7.20836 22.5646 7.79266 20.337 9.53898 19.2191C11.404 18.0252 13.6212 17.333 16 17.333C18.3788 17.333 20.5959 18.0252 22.461 19.2191C24.2073 20.337 24.7916 22.5646 24.0935 24.517C23.8893 25.088 23.6615 25.6478 23.4112 26.1951Z" fill="#18202A"/>
<path d="M6.66667 15.9997C8.44444 15.9997 9.33333 14.333 9.33333 12.2497C9.33333 10.583 8.44444 9.33301 6.66667 9.33301C4.88889 9.33301 4 10.583 4 12.2497C4 14.333 4.88889 15.9997 6.66667 15.9997Z" fill="#18202A"/>
<path d="M28 12.2497C28 14.333 27.1111 15.9997 25.3333 15.9997C23.5556 15.9997 22.6667 14.333 22.6667 12.2497C22.6667 10.583 23.5556 9.33301 25.3333 9.33301C27.1111 9.33301 28 10.583 28 12.2497Z" fill="#18202A"/>
<path d="M5.39552 25.4152C4.6122 23.2245 4.86131 20.6544 6.26458 18.7061C4.9917 18.8152 3.78267 19.148 2.67693 19.6648C1.12085 20.3921 0.492953 22.2291 1.0183 23.8644C1.47794 25.2953 2.72611 26.3004 4.21763 26.4846C4.76235 26.5518 5.31273 26.6008 5.86813 26.6309C5.69998 26.2311 5.54233 25.8257 5.39552 25.4152Z" fill="#18202A"/>
<path d="M26.1389 26.6141C26.3044 26.2197 26.4597 25.82 26.6045 25.4152C27.3839 23.2354 27.1411 20.6801 25.7564 18.7353C27.0966 18.8876 28.3614 19.2882 29.5038 19.8901C30.9315 20.6423 31.4828 22.3684 30.9863 23.9039C30.5478 25.2598 29.3754 26.2223 27.9647 26.424C27.363 26.51 26.7541 26.5736 26.1389 26.6141Z" fill="#18202A"/>
</svg>
