<svg width="32" height="32" viewBox="0 0 32 32" fill="none" xmlns="http://www.w3.org/2000/svg">
<path d="M15.967 9.33353C21.2337 9.32403 26.3535 11.0693 30.5177 14.2939C30.9461 14.6185 31.2996 15.0315 31.5541 15.505C31.8086 15.9784 31.9581 16.5011 31.9924 17.0375C32.0267 17.5739 31.945 18.1114 31.7529 18.6134C31.5929 19.0317 31.3592 19.4172 31.0638 19.752L30.8792 19.9466L28.2337 22.5921C27.6126 23.2315 26.7836 23.6282 25.896 23.7106C25.0085 23.793 24.1206 23.5559 23.3924 23.0418C23.1631 22.8655 22.925 22.6979 22.6869 22.548C22.2057 22.2447 21.7048 21.9737 21.1878 21.7367C20.6298 21.4765 20.1879 21.019 19.9469 20.4525C19.7361 19.9568 19.6922 19.4082 19.8182 18.8886L19.8826 18.6679L20.0061 18.0506C18.6694 17.6694 17.2866 17.4737 15.8967 17.4685C14.6804 17.473 13.4698 17.6235 12.2906 17.9164L11.7873 18.0506L11.9901 18.6414C12.1896 19.2239 12.1667 19.8595 11.9258 20.426C11.6848 20.9926 11.2429 21.45 10.6849 21.7102C10.2959 21.8856 9.91686 22.082 9.54938 22.2984L8.82094 22.7475C8.70079 22.8258 8.58615 22.9095 8.48915 23.0065C7.77803 23.5014 6.91717 23.7342 6.05358 23.665C5.28586 23.6036 4.55821 23.3069 3.96822 22.8192L3.75358 22.6274L1.10804 19.9819C0.732083 19.6093 0.439398 19.1612 0.249361 18.6672C0.0594111 18.1731 -0.0236587 17.6444 0.00579495 17.1158C0.053494 16.2895 0.373554 15.505 0.911843 14.8831L1.09928 14.6819L1.43438 14.3468C5.58682 11.1071 10.7002 9.34313 15.967 9.33353ZM15.9706 11.3336C11.3339 11.342 6.82695 12.8355 3.10719 15.5874L2.74933 15.8589L2.56246 16.0454L2.42414 16.1919C2.17311 16.4819 2.02462 16.8473 2.0027 17.2271C1.98899 17.4731 2.02765 17.7193 2.11605 17.9492C2.18239 18.1217 2.27561 18.2821 2.39465 18.4275L2.52226 18.5676L5.0861 21.136L5.24258 21.2777C5.51772 21.5052 5.85661 21.6428 6.21339 21.6714C6.54816 21.6982 6.88215 21.6275 7.17573 21.4699L7.27467 21.4082L7.39097 21.3131L7.5698 21.1808L7.77141 21.045L8.53441 20.5751C8.9645 20.3218 9.40797 20.0921 9.83955 19.8977C9.95001 19.8462 10.0376 19.7556 10.0853 19.6433C10.1211 19.5591 10.1326 19.4672 10.1196 19.3783L10.0984 19.2908L9.66346 18.0237C9.41241 17.2923 9.83407 16.5015 10.5812 16.3024L11.8086 15.9753C13.1436 15.6438 14.5136 15.4736 15.904 15.4686C17.2805 15.4736 18.6506 15.6439 19.9849 15.9754L20.5545 16.1273L21.1461 16.2959C21.8143 16.4865 22.2242 17.1583 22.0879 17.8396L21.8438 19.0601L21.8025 19.2283L21.7619 19.3599C21.7368 19.4631 21.7457 19.5718 21.7874 19.6697C21.8351 19.782 21.9227 19.8726 22.0211 19.9186C22.6187 20.1925 23.1973 20.5056 23.7525 20.8555C24.0404 21.0368 24.3294 21.2394 24.5458 21.408C24.8847 21.6472 25.2979 21.7576 25.7111 21.7192C26.0651 21.6863 26.3992 21.546 26.6823 21.3061L26.8195 21.1779L29.4281 18.5703L29.5643 18.4285C29.7019 18.2726 29.8106 18.0931 29.885 17.8986C29.9744 17.665 30.0124 17.4148 29.9964 17.1652C29.9805 16.9155 29.9109 16.6722 29.7925 16.4519C29.674 16.2315 29.5095 16.0393 29.2932 15.8753C25.6271 13.0364 21.1521 11.4498 16.5264 11.3397L15.9706 11.3336Z" fill="#18202A"/>
</svg>
