<svg width="32" height="32" viewBox="0 0 32 32" fill="none" xmlns="http://www.w3.org/2000/svg">
<path fill-rule="evenodd" clip-rule="evenodd" d="M13.6094 8.27614C14.1301 7.75544 14.1301 6.91122 13.6094 6.39052C13.0887 5.86983 12.2445 5.86983 11.7238 6.39052L3.05715 15.0572C2.53645 15.5779 2.53645 16.4221 3.05715 16.9428L11.7238 25.6095C12.2445 26.1302 13.0887 26.1302 13.6094 25.6095C14.1301 25.0888 14.1301 24.2446 13.6094 23.7239L5.88558 16L13.6094 8.27614ZM18.3905 8.27614C17.8698 7.75544 17.8698 6.91122 18.3905 6.39052C18.9112 5.86983 19.7554 5.86983 20.2761 6.39052L28.9428 15.0572C29.4635 15.5779 29.4635 16.4221 28.9428 16.9428L20.2761 25.6095C19.7554 26.1302 18.9112 26.1302 18.3905 25.6095C17.8698 25.0888 17.8698 24.2446 18.3905 23.7239L26.1143 16L18.3905 8.27614Z" fill="#18202A"/>
</svg>
