<svg width="32" height="32" viewBox="0 0 32 32" fill="none" xmlns="http://www.w3.org/2000/svg">
<path fill-rule="evenodd" clip-rule="evenodd" d="M21.2929 1.29289C21.6834 0.902369 22.3166 0.902369 22.7071 1.29289L23.7643 2.35008C23.8945 2.48026 24.1055 2.48026 24.2357 2.35008L25.2929 1.29289C25.6834 0.902369 26.3166 0.902369 26.7071 1.29289C27.0976 1.68342 27.0976 2.31658 26.7071 2.70711L25.6499 3.7643C25.5197 3.89447 25.5197 4.10553 25.6499 4.2357L26.7071 5.29289C27.0976 5.68342 27.0976 6.31658 26.7071 6.70711C26.3166 7.09763 25.6834 7.09763 25.2929 6.70711L24.2357 5.64992C24.1055 5.51974 23.8945 5.51974 23.7643 5.64992L22.7071 6.70711C22.3166 7.09763 21.6834 7.09763 21.2929 6.70711C20.9024 6.31658 20.9024 5.68342 21.2929 5.29289L22.3501 4.2357C22.4803 4.10553 22.4803 3.89447 22.3501 3.7643L21.2929 2.70711C20.9024 2.31658 20.9024 1.68342 21.2929 1.29289ZM13 2.50536C13 1.95307 12.5523 1.50536 12 1.50536C11.4477 1.50536 11 1.95307 11 2.50536V4.00045C11 4.18455 10.8508 4.33379 10.6667 4.33379L9.17157 4.33379C8.61929 4.33379 8.17157 4.7815 8.17157 5.33379C8.17157 5.88607 8.61929 6.33379 9.17157 6.33379L10.6667 6.33379C10.8508 6.33379 11 6.48302 11 6.66712V8.16221C11 8.7145 11.4477 9.16221 12 9.16221C12.5523 9.16221 13 8.7145 13 8.16221V6.66712C13 6.48302 13.1492 6.33379 13.3333 6.33379H14.8284C15.3807 6.33379 15.8284 5.88607 15.8284 5.33379C15.8284 4.7815 15.3807 4.33379 14.8284 4.33379L13.3333 4.33379C13.1492 4.33379 13 4.18455 13 4.00045V2.50536ZM16.0404 13.4543L17.8787 15.2925L5.80474 27.3664C5.54439 27.6268 5.12228 27.6268 4.86193 27.3664L3.9665 26.471C3.70615 26.2107 3.70615 25.7885 3.9665 25.5282L16.0404 13.4543ZM3.44772 28.7806C4.48912 29.822 6.17756 29.822 7.21896 28.7806L22.1144 13.8852C23.1558 12.8438 23.1558 11.1554 22.1144 10.114L21.219 9.21855C20.1776 8.17715 18.4891 8.17715 17.4477 9.21855L2.55229 24.114C1.51089 25.1554 1.51089 26.8438 2.55229 27.8852L3.44772 28.7806ZM20.7002 12.471L19.2929 13.8783L17.4547 12.04L18.8619 10.6328C19.1223 10.3724 19.5444 10.3724 19.8047 10.6328L20.7002 11.5282C20.9605 11.7885 20.9605 12.2106 20.7002 12.471ZM27.6667 17.172C27.6667 16.6197 27.219 16.172 26.6667 16.172C26.1144 16.172 25.6667 16.6197 25.6667 17.172V18.6671C25.6667 18.8512 25.5174 19.0005 25.3333 19.0005H23.8382C23.286 19.0005 22.8382 19.4482 22.8382 20.0005C22.8382 20.5527 23.286 21.0005 23.8382 21.0005H25.3333C25.5174 21.0005 25.6667 21.1497 25.6667 21.3338V22.8289C25.6667 23.3812 26.1144 23.8289 26.6667 23.8289C27.219 23.8289 27.6667 23.3812 27.6667 22.8289V21.3338C27.6667 21.1497 27.8159 21.0005 28 21.0005H29.4951C30.0474 21.0005 30.4951 20.5527 30.4951 20.0005C30.4951 19.4482 30.0474 19.0005 29.4951 19.0005L28 19.0005C27.8159 19.0005 27.6667 18.8512 27.6667 18.6671V17.172Z" fill="#18202A"/>
</svg>
