<svg width="32" height="32" viewBox="0 0 32 32" fill="none" xmlns="http://www.w3.org/2000/svg">
<path d="M19.7239 5.60939C19.2032 5.0887 19.2032 4.24448 19.7239 3.72378C20.2446 3.20308 21.0888 3.20308 21.6095 3.72378L27.6095 9.72378C28.1302 10.2445 28.1302 11.0887 27.6095 11.6094L21.6095 17.6094C21.0888 18.1301 20.2446 18.1301 19.7239 17.6094C19.2032 17.0887 19.2032 16.2445 19.7239 15.7238L23.4477 11.9999H12.6667C9.35296 11.9999 6.66667 14.6862 6.66667 17.9999C6.66667 21.3136 9.35296 23.9999 12.6667 23.9999H21.3333C22.0697 23.9999 22.6667 24.5969 22.6667 25.3333C22.6667 26.0696 22.0697 26.6666 21.3333 26.6666H12.6667C7.8802 26.6666 4 22.7864 4 17.9999C4 13.2135 7.8802 9.33325 12.6667 9.33325H23.4477L19.7239 5.60939Z" fill="#18202A"/>
</svg>
