<svg width="32" height="32" viewBox="0 0 32 32" fill="none" xmlns="http://www.w3.org/2000/svg">
<g clip-path="url(#clip0_3294_8804)">
<path d="M5.33335 6.66683C5.33335 7.40321 4.7364 8.00016 4.00002 8.00016C3.26364 8.00016 2.66669 7.40321 2.66669 6.66683C2.66669 5.93045 3.26364 5.3335 4.00002 5.3335C4.7364 5.3335 5.33335 5.93045 5.33335 6.66683Z" fill="#18202A"/>
<path d="M9.33335 6.66683C9.33335 6.11454 9.78107 5.66683 10.3334 5.66683H28.3334C28.8856 5.66683 29.3334 6.11454 29.3334 6.66683C29.3334 7.21911 28.8856 7.66683 28.3334 7.66683H10.3334C9.78107 7.66683 9.33335 7.21911 9.33335 6.66683Z" fill="#18202A"/>
<path d="M10.3334 15.0002C9.78107 15.0002 9.33335 15.4479 9.33335 16.0002C9.33335 16.5524 9.78107 17.0002 10.3334 17.0002H28.3334C28.8856 17.0002 29.3334 16.5524 29.3334 16.0002C29.3334 15.4479 28.8856 15.0002 28.3334 15.0002H10.3334Z" fill="#18202A"/>
<path d="M10.3334 24.3335C9.78107 24.3335 9.33335 24.7812 9.33335 25.3335C9.33335 25.8858 9.78107 26.3335 10.3334 26.3335H28.3334C28.8856 26.3335 29.3334 25.8858 29.3334 25.3335C29.3334 24.7812 28.8856 24.3335 28.3334 24.3335H10.3334Z" fill="#18202A"/>
<path d="M5.33335 16.0002C5.33335 16.7365 4.7364 17.3335 4.00002 17.3335C3.26364 17.3335 2.66669 16.7365 2.66669 16.0002C2.66669 15.2638 3.26364 14.6668 4.00002 14.6668C4.7364 14.6668 5.33335 15.2638 5.33335 16.0002Z" fill="#18202A"/>
<path d="M5.33335 25.3335C5.33335 26.0699 4.7364 26.6668 4.00002 26.6668C3.26364 26.6668 2.66669 26.0699 2.66669 25.3335C2.66669 24.5971 3.26364 24.0002 4.00002 24.0002C4.7364 24.0002 5.33335 24.5971 5.33335 25.3335Z" fill="#18202A"/>
</g>
<defs>
<clipPath id="clip0_3294_8804">
<rect width="32" height="32" fill="white"/>
</clipPath>
</defs>
</svg>
