<svg width="32" height="32" viewBox="0 0 32 32" fill="none" xmlns="http://www.w3.org/2000/svg">
<path fill-rule="evenodd" clip-rule="evenodd" d="M19.3333 1.7179C16.1097 0.965605 12.7264 1.32592 9.7335 2.74027C6.74064 4.15461 4.31424 6.5398 2.84883 9.50799C1.38343 12.4762 0.965205 15.8528 1.66217 19.0888C2.35913 22.3249 4.13029 25.2299 6.68764 27.3317C9.245 29.4335 12.4382 30.6084 15.7479 30.6653C19.0576 30.7222 22.2893 29.6578 24.9174 27.6452C25.502 27.1975 25.613 26.3606 25.1653 25.7759C24.7176 25.1913 23.8807 25.0803 23.2961 25.528C21.1458 27.1747 18.5017 28.0456 15.7937 27.999C13.0858 27.9524 10.4732 26.9912 8.38081 25.2716C6.28843 23.5519 4.8393 21.175 4.26906 18.5274C3.69881 15.8797 4.041 13.117 5.23996 10.6885C6.43893 8.25998 8.42417 6.30846 10.8729 5.15127C13.3216 3.99408 16.0897 3.69927 18.7272 4.31479C21.3647 4.9303 23.7164 6.41993 25.4 8.54147C27.0835 10.663 27.9999 13.2917 28.0001 16V17.3333C28.0001 18.0405 27.7191 18.7188 27.219 19.2189C26.7189 19.719 26.0406 19.9999 25.3334 19.9999C24.6261 19.9999 23.9479 19.719 23.4478 19.2189C22.9477 18.7188 22.6667 18.0405 22.6667 17.3333V10.6666C22.6667 9.93023 22.0698 9.33328 21.3334 9.33328C20.5972 9.33328 20.0003 9.92998 20.0001 10.6662C18.8858 9.82923 17.5009 9.33329 16 9.33329C12.3181 9.33329 9.33337 12.3181 9.33337 16C9.33337 19.6819 12.3181 22.6666 16 22.6666C17.9842 22.6666 19.7659 21.7999 20.9871 20.4243C21.1584 20.6651 21.3504 20.8928 21.5622 21.1045C22.5623 22.1047 23.9189 22.6666 25.3334 22.6666C26.7479 22.6666 28.1044 22.1047 29.1046 21.1045C30.1048 20.1043 30.6667 18.7478 30.6667 17.3333V15.9999C30.6665 12.6896 29.5465 9.47683 27.4889 6.88384C25.4312 4.29085 22.5569 2.47019 19.3333 1.7179ZM12 16C12 13.7908 13.7909 12 16 12C18.2092 12 20 13.7908 20 16C20 18.2091 18.2092 20 16 20C13.7909 20 12 18.2091 12 16Z" fill="#18202A"/>
</svg>
