<svg width="32" height="32" viewBox="0 0 32 32" fill="none" xmlns="http://www.w3.org/2000/svg">
<path d="M20.7071 15.3738C21.0977 14.9832 21.0977 14.3501 20.7071 13.9596C20.3166 13.569 19.6834 13.569 19.2929 13.9596L16 17.2525L12.7071 13.9596C12.3166 13.569 11.6834 13.569 11.2929 13.9596C10.9024 14.3501 10.9024 14.9832 11.2929 15.3738L14.5858 18.6667L11.2929 21.9596C10.9024 22.3501 10.9024 22.9832 11.2929 23.3738C11.6834 23.7643 12.3166 23.7643 12.7071 23.3738L16 20.0809L19.2929 23.3738C19.6834 23.7643 20.3166 23.7643 20.7071 23.3738C21.0977 22.9832 21.0977 22.3501 20.7071 21.9596L17.4142 18.6667L20.7071 15.3738Z" fill="#18202A"/>
<path fill-rule="evenodd" clip-rule="evenodd" d="M9.33335 4C7.23414 4 5.51262 5.61706 5.34649 7.67349C4.59677 8.33862 4.09871 9.28113 4.01315 10.3402C3.1872 11.0729 2.66669 12.1423 2.66669 13.3333V24C2.66669 26.2091 4.45755 28 6.66669 28H25.3334C27.5425 28 29.3334 26.2091 29.3334 24V13.3333C29.3334 12.1423 28.8128 11.0729 27.9869 10.3401C27.9013 9.28112 27.4033 8.33862 26.6536 7.67349C26.4874 5.61706 24.7659 4 22.6667 4H9.33335ZM9.33335 6C8.7395 6 8.2061 6.25882 7.8398 6.66982C7.89295 6.66772 7.94636 6.66667 8.00002 6.66667H24C24.0537 6.66667 24.1071 6.66773 24.1602 6.66982C23.7939 6.25882 23.2605 6 22.6667 6H9.33335ZM6.66669 9.33333C6.61303 9.33333 6.55962 9.33439 6.50647 9.33648C6.87277 8.92549 7.40617 8.66667 8.00002 8.66667H24C24.5939 8.66667 25.1273 8.92549 25.4936 9.33648C25.4404 9.33439 25.387 9.33333 25.3334 9.33333H6.66669ZM25.3334 11.3333C26.4379 11.3333 27.3334 12.2288 27.3334 13.3333V24C27.3334 25.1046 26.4379 26 25.3334 26H6.66669C5.56212 26 4.66669 25.1046 4.66669 24V13.3333C4.66669 12.2288 5.56212 11.3333 6.66669 11.3333H25.3334Z" fill="#18202A"/>
</svg>
