<svg width="32" height="32" viewBox="0 0 32 32" fill="none" xmlns="http://www.w3.org/2000/svg">
<path fill-rule="evenodd" clip-rule="evenodd" d="M20 27.3332C21.1045 27.3332 22 26.4377 22 25.3332C22 24.2286 21.1045 23.3332 20 23.3332C18.8954 23.3332 18 24.2286 18 25.3332C18 26.4377 18.8954 27.3332 20 27.3332ZM20 29.3332C22.2091 29.3332 24 27.5423 24 25.3332C24 23.124 22.2091 21.3332 20 21.3332C17.7908 21.3332 16 23.124 16 25.3332C16 27.5423 17.7908 29.3332 20 29.3332Z" fill="#18202A"/>
<path fill-rule="evenodd" clip-rule="evenodd" d="M20 8.6665C21.1045 8.6665 22 7.77107 22 6.6665C22 5.56193 21.1045 4.6665 20 4.6665C18.8954 4.6665 18 5.56193 18 6.6665C18 7.77107 18.8954 8.6665 20 8.6665ZM20 10.6665C22.2091 10.6665 24 8.87564 24 6.6665C24 4.45736 22.2091 2.6665 20 2.6665C17.7908 2.6665 16 4.45736 16 6.6665C16 8.87564 17.7908 10.6665 20 10.6665Z" fill="#18202A"/>
<path fill-rule="evenodd" clip-rule="evenodd" d="M12 17.9998C13.1045 17.9998 14 17.1044 14 15.9998C14 14.8953 13.1045 13.9998 12 13.9998C10.8954 13.9998 9.99998 14.8953 9.99998 15.9998C9.99998 17.1044 10.8954 17.9998 12 17.9998ZM12 19.9998C14.2091 19.9998 16 18.209 16 15.9998C16 13.7907 14.2091 11.9998 12 11.9998C9.79084 11.9998 7.99998 13.7907 7.99998 15.9998C7.99998 18.209 9.79084 19.9998 12 19.9998Z" fill="#18202A"/>
<path d="M1.33331 25.3332C1.33331 24.7809 1.78103 24.3332 2.33331 24.3332H13.6666C14.2189 24.3332 14.6666 24.7809 14.6666 25.3332C14.6666 25.8855 14.2189 26.3332 13.6666 26.3332H2.33331C1.78103 26.3332 1.33331 25.8855 1.33331 25.3332Z" fill="#18202A"/>
<path d="M1.33331 6.6665C1.33331 6.11422 1.78103 5.6665 2.33331 5.6665H13.6666C14.2189 5.6665 14.6666 6.11422 14.6666 6.6665C14.6666 7.21879 14.2189 7.6665 13.6666 7.6665H2.33331C1.78103 7.6665 1.33331 7.21879 1.33331 6.6665Z" fill="#18202A"/>
<path d="M17.3333 15.9998C17.3333 15.4476 17.781 14.9998 18.3333 14.9998H29.6666C30.2189 14.9998 30.6666 15.4476 30.6666 15.9998C30.6666 16.5521 30.2189 16.9998 29.6666 16.9998H18.3333C17.781 16.9998 17.3333 16.5521 17.3333 15.9998Z" fill="#18202A"/>
<path d="M25.3333 25.3332C25.3333 24.7809 25.781 24.3332 26.3333 24.3332H29.6666C30.2189 24.3332 30.6666 24.7809 30.6666 25.3332C30.6666 25.8855 30.2189 26.3332 29.6666 26.3332H26.3333C25.781 26.3332 25.3333 25.8855 25.3333 25.3332Z" fill="#18202A"/>
<path d="M25.3333 6.6665C25.3333 6.11422 25.781 5.6665 26.3333 5.6665H29.6666C30.2189 5.6665 30.6666 6.11422 30.6666 6.6665C30.6666 7.21879 30.2189 7.6665 29.6666 7.6665H26.3333C25.781 7.6665 25.3333 7.21879 25.3333 6.6665Z" fill="#18202A"/>
<path d="M1.33331 15.9998C1.33331 15.4476 1.78103 14.9998 2.33331 14.9998H5.66665C6.21893 14.9998 6.66665 15.4476 6.66665 15.9998C6.66665 16.5521 6.21893 16.9998 5.66665 16.9998H2.33331C1.78103 16.9998 1.33331 16.5521 1.33331 15.9998Z" fill="#18202A"/>
</svg>
