<svg width="32" height="32" viewBox="0 0 32 32" fill="none" xmlns="http://www.w3.org/2000/svg">
<path fill-rule="evenodd" clip-rule="evenodd" d="M30.6667 15.588C30.6667 16.2591 30.6181 16.9229 30.5231 17.5749C29.0392 16.5803 27.254 16.0002 25.3333 16.0002C24.825 16.0002 24.3261 16.0408 23.8398 16.119C23.9429 15.8779 24 15.6123 24 15.3335C24 14.2289 23.1046 13.3335 22 13.3335C20.8954 13.3335 20 14.2289 20 15.3335C20 16.0734 20.4018 16.7195 20.9991 17.0654C18.0271 18.6266 16 21.7433 16 25.3335C16 26.7567 16.3185 28.1055 16.8882 29.3125C16.6002 29.3264 16.3086 29.3335 16.0136 29.3335C14.5844 29.3335 13.2029 29.1747 11.8969 28.8655L8.26234 30.543C7.42196 30.9309 6.45173 30.3655 6.37487 29.4431L6.09473 26.0814C3.18429 23.7235 1.3606 20.1511 1.3606 15.588C0.837341 7.95168 7.92098 1.3335 16.0136 1.3335C24.1063 1.3335 30.6667 6.9335 30.6667 15.588ZM10 17.3335C11.1046 17.3335 12 16.4381 12 15.3335C12 14.2289 11.1046 13.3335 10 13.3335C8.89543 13.3335 8 14.2289 8 15.3335C8 16.4381 8.89543 17.3335 10 17.3335ZM16 17.3335C17.1046 17.3335 18 16.4381 18 15.3335C18 14.2289 17.1046 13.3335 16 13.3335C14.8954 13.3335 14 14.2289 14 15.3335C14 16.4381 14.8954 17.3335 16 17.3335ZM32 25.3335C32 29.0154 29.0152 32.0002 25.3333 32.0002C21.6514 32.0002 18.6667 29.0154 18.6667 25.3335C18.6667 21.6516 21.6514 18.6668 25.3333 18.6668C29.0152 18.6668 32 21.6516 32 25.3335ZM25.3333 21.3335C24.5969 21.3335 24 21.9305 24 22.6668V24.0002H22.6667C21.9303 24.0002 21.3333 24.5971 21.3333 25.3335C21.3333 26.0699 21.9303 26.6668 22.6667 26.6668H24V28.0002C24 28.7365 24.5969 29.3335 25.3333 29.3335C26.0697 29.3335 26.6667 28.7365 26.6667 28.0002V26.6668H28C28.7364 26.6668 29.3333 26.0699 29.3333 25.3335C29.3333 24.5971 28.7364 24.0002 28 24.0002H26.6667V22.6668C26.6667 21.9305 26.0697 21.3335 25.3333 21.3335Z" fill="#18202A"/>
</svg>
