<svg width="32" height="32" viewBox="0 0 32 32" fill="none" xmlns="http://www.w3.org/2000/svg">
<g clip-path="url(#clip0_2291_21611)">
<path fill-rule="evenodd" clip-rule="evenodd" d="M11.3333 0.666626C12.0697 0.666626 12.6666 1.26358 12.6666 1.99996V4.66663C12.6666 5.40301 12.0697 5.99996 11.3333 5.99996C10.5969 5.99996 9.99996 5.40301 9.99996 4.66663V1.99996C9.99996 1.26358 10.5969 0.666626 11.3333 0.666626ZM3.72382 3.72382C4.24452 3.20312 5.08874 3.20312 5.60944 3.72382L7.60944 5.72382C8.13013 6.24452 8.13013 7.08874 7.60944 7.60944C7.08874 8.13013 6.24452 8.13013 5.72382 7.60944L3.72382 5.60944C3.20312 5.08874 3.20312 4.24452 3.72382 3.72382ZM0.666626 11.3333C0.666626 10.5969 1.26358 9.99996 1.99996 9.99996H4.66663C5.40301 9.99996 5.99996 10.5969 5.99996 11.3333C5.99996 12.0697 5.40301 12.6666 4.66663 12.6666H1.99996C1.26358 12.6666 0.666626 12.0697 0.666626 11.3333ZM15.9999 4.6866C19.1241 1.5624 24.1894 1.5624 27.3136 4.6866C30.4378 7.81079 30.4378 12.8761 27.3136 16.0003L24.4852 18.8287C23.9645 19.3494 23.1203 19.3494 22.5996 18.8287C22.0789 18.308 22.0789 17.4638 22.5996 16.9431L25.428 14.1147C27.5108 12.0319 27.5108 8.65501 25.428 6.57222C23.3452 4.48942 19.9683 4.48942 17.8855 6.57222L15.0571 9.40064C14.5364 9.92134 13.6922 9.92134 13.1715 9.40064C12.6508 8.87994 12.6508 8.03573 13.1715 7.51503L15.9999 4.6866ZM4.68619 15.9992C1.562 19.1234 1.562 24.1887 4.68619 27.3129C7.81039 30.4371 12.8757 30.4371 15.9999 27.3129L18.8283 24.4845C19.349 23.9638 19.349 23.1196 18.8283 22.5989C18.3076 22.0782 17.4634 22.0782 16.9427 22.5989L14.1143 25.4273C12.0315 27.5101 8.65461 27.5101 6.57181 25.4273C4.48901 23.3445 4.48901 19.9676 6.57181 17.8848L9.40024 15.0564C9.92094 14.5357 9.92094 13.6915 9.40024 13.1708C8.87954 12.6501 8.03532 12.6501 7.51462 13.1708L4.68619 15.9992ZM19.3333 30C19.3333 30.7363 19.9302 31.3333 20.6666 31.3333C21.403 31.3333 22 30.7363 22 30V27.3333C22 26.5969 21.403 26 20.6666 26C19.9302 26 19.3333 26.5969 19.3333 27.3333V30ZM24.3905 26.2761L26.3905 28.2761C26.9112 28.7968 27.7554 28.7968 28.2761 28.2761C28.7968 27.7554 28.7968 26.9112 28.2761 26.3905L26.2761 24.3905C25.7554 23.8698 24.9112 23.8698 24.3905 24.3905C23.8698 24.9112 23.8698 25.7554 24.3905 26.2761ZM30 22C30.7363 22 31.3333 21.403 31.3333 20.6666C31.3333 19.9302 30.7363 19.3333 30 19.3333H27.3333C26.5969 19.3333 26 19.9302 26 20.6666C26 21.403 26.5969 22 27.3333 22H30Z" fill="#18202A"/>
</g>
<defs>
<clipPath id="clip0_2291_21611">
<rect width="32" height="32" fill="white"/>
</clipPath>
</defs>
</svg>
