<svg width="32" height="32" viewBox="0 0 32 32" fill="none" xmlns="http://www.w3.org/2000/svg">
<path fill-rule="evenodd" clip-rule="evenodd" d="M25 8.97031C24.978 8.9804 24.9559 8.9903 24.9337 9H25V8.97031ZM24.9352 23C24.9569 23.0095 24.9785 23.0192 25 23.029V23H24.9352ZM23.3333 24.6663C24.4379 24.6663 25.3333 25.5618 25.3333 26.6663H28C30.2091 26.6663 32 24.8755 32 22.6663V9.33301C32 7.12387 30.2091 5.33301 28 5.33301H25.3333C25.3333 6.43758 24.4379 7.33301 23.3333 7.33301C22.2288 7.33301 21.3333 6.43758 21.3333 5.33301H4C1.79086 5.33301 0 7.12387 0 9.33301V22.6663C0 24.8755 1.79086 26.6663 4 26.6663H21.3333C21.3333 25.5618 22.2288 24.6663 23.3333 24.6663ZM5 10.666C4.44772 10.666 4 11.1137 4 11.666C4 12.2183 4.44772 12.666 5 12.666H17C17.5523 12.666 18 12.2183 18 11.666C18 11.1137 17.5523 10.666 17 10.666H5ZM4 15.666C4 15.1137 4.44772 14.666 5 14.666H17C17.5523 14.666 18 15.1137 18 15.666C18 16.2183 17.5523 16.666 17 16.666H5C4.44772 16.666 4 16.2183 4 15.666ZM5 18.666C4.44772 18.666 4 19.1137 4 19.666C4 20.2183 4.44772 20.666 5 20.666H8.33333C8.88562 20.666 9.33333 20.2183 9.33333 19.666C9.33333 19.1137 8.88562 18.666 8.33333 18.666H5ZM22.6667 12H24V20H22.6667V12Z" fill="#18202A"/>
</svg>
