<svg width="32" height="32" viewBox="0 0 32 32" fill="none" xmlns="http://www.w3.org/2000/svg">
<path fill-rule="evenodd" clip-rule="evenodd" d="M6.66669 5.3335C4.45755 5.3335 2.66669 7.12436 2.66669 9.3335V21.3335C2.66669 23.5426 4.45755 25.3335 6.66669 25.3335H15V27.3335H12C11.4477 27.3335 11 27.7812 11 28.3335C11 28.8858 11.4477 29.3335 12 29.3335H20C20.5523 29.3335 21 28.8858 21 28.3335C21 27.7812 20.5523 27.3335 20 27.3335H17V25.3335H25.3334C27.5425 25.3335 29.3334 23.5426 29.3334 21.3335V9.3335C29.3334 7.12436 27.5425 5.3335 25.3334 5.3335H6.66669ZM27.3334 9.3335C27.3334 8.22893 26.4379 7.3335 25.3334 7.3335H6.66669C5.56212 7.3335 4.66669 8.22893 4.66669 9.3335V18.6668H27.3334V9.3335ZM6.66669 23.3335C5.56212 23.3335 4.66669 22.4381 4.66669 21.3335V20.6668H27.3334V21.3335C27.3334 22.4381 26.4379 23.3335 25.3334 23.3335H6.66669Z" fill="#18202A"/>
</svg>
