<svg width="32" height="32" viewBox="0 0 32 32" fill="none" xmlns="http://www.w3.org/2000/svg">
<path d="M30.6667 6.66683C30.6667 9.61235 28.2789 12.0002 25.3334 12.0002C22.3879 12.0002 20 9.61235 20 6.66683C20 3.72131 22.3879 1.3335 25.3334 1.3335C28.2789 1.3335 30.6667 3.72131 30.6667 6.66683Z" fill="#18202A"/>
<path d="M30.6667 14.3272C29.1549 15.3817 27.3164 16.0002 25.3334 16.0002C20.1787 16.0002 16 11.8215 16 6.66683C16 5.23537 16.3223 3.87917 16.8982 2.66683H6.66671C3.72119 2.66683 1.33337 5.05464 1.33337 8.00016V20.0002C1.33337 22.9457 3.72119 25.3335 6.66671 25.3335H7.39398L6.62089 29.0309C6.38337 30.1668 7.60992 31.0429 8.60743 30.4498L17.2122 25.3335H25.3334C28.2789 25.3335 30.6667 22.9457 30.6667 20.0002V14.3272Z" fill="#18202A"/>
</svg>
