<svg width="32" height="32" viewBox="0 0 32 32" fill="none" xmlns="http://www.w3.org/2000/svg">
<path fill-rule="evenodd" clip-rule="evenodd" d="M16.1899 22.2811C16.4992 22.0972 16.8523 22.0002 17.2121 22.0002H25.3333C27.1743 22.0002 28.6666 20.5078 28.6666 18.6668V6.66683C28.6666 4.82588 27.1743 3.3335 25.3333 3.3335H6.66665C4.8257 3.3335 3.33331 4.82588 3.33331 6.66683V18.6668C3.33331 20.5078 4.8257 22.0002 6.66664 22.0002H7.39392C7.99616 22.0002 8.56634 22.2715 8.94612 22.7389C9.3259 23.2063 9.47484 23.82 9.35158 24.4095L8.88892 26.6222L16.1899 22.2811ZM17.2121 24.0002H25.3333C28.2788 24.0002 30.6666 21.6123 30.6666 18.6668V6.66683C30.6666 3.72131 28.2788 1.3335 25.3333 1.3335H6.66665C3.72113 1.3335 1.33331 3.72131 1.33331 6.66683V18.6668C1.33331 21.1699 3.05761 23.2702 5.38317 23.8447C5.79427 23.9463 6.22417 24.0002 6.66664 24.0002H7.39392L6.62083 27.6976C6.38331 28.8335 7.60986 29.7096 8.60737 29.1165L17.2121 24.0002ZM9.33331 10.3335C9.33331 9.78121 9.78103 9.3335 10.3333 9.3335H21.6666C22.2189 9.3335 22.6666 9.78121 22.6666 10.3335C22.6666 10.8858 22.2189 11.3335 21.6666 11.3335H10.3333C9.78103 11.3335 9.33331 10.8858 9.33331 10.3335ZM10.3333 14.6668C9.78103 14.6668 9.33331 15.1145 9.33331 15.6668C9.33331 16.2191 9.78103 16.6668 10.3333 16.6668H17.6666C18.2189 16.6668 18.6666 16.2191 18.6666 15.6668C18.6666 15.1145 18.2189 14.6668 17.6666 14.6668H10.3333Z" fill="#18202A"/>
</svg>
