<svg width="32" height="32" viewBox="0 0 32 32" fill="none" xmlns="http://www.w3.org/2000/svg">
<path fill-rule="evenodd" clip-rule="evenodd" d="M22.2825 4.29468C22.6754 3.90177 23.3124 3.90177 23.7053 4.29468C24.0982 4.68758 24.0982 5.3246 23.7053 5.71751L22.4824 6.94044C23.4214 7.90182 24 9.21667 24 10.6667V21.3333C24 24.2789 21.6122 26.6667 18.6667 26.6667H5.33333C4.57481 26.6667 3.85326 26.5083 3.19996 26.2229L1.71751 27.7053C1.3246 28.0982 0.687582 28.0982 0.294678 27.7053C-0.0982255 27.3124 -0.0982251 26.6754 0.294678 26.2825L22.2825 4.29468ZM4.79879 24.624C4.97283 24.6521 5.15138 24.6667 5.33333 24.6667H18.6667C20.5076 24.6667 22 23.1743 22 21.3333V10.6667C22 9.76895 21.6451 8.95413 21.068 8.35482L4.79879 24.624Z" fill="#18202A"/>
<path d="M0 10.6667C0 7.72115 2.38781 5.33333 5.33333 5.33333H18.4173L16.4173 7.33333H5.33333C3.49238 7.33333 2 8.82572 2 10.6667V21.3333C2 21.4667 2.00784 21.5983 2.02307 21.7276L0.396256 23.3544C0.140822 22.7311 0 22.0486 0 21.3333V10.6667Z" fill="#18202A"/>
<path fill-rule="evenodd" clip-rule="evenodd" d="M25.3333 12.1496C25.3333 11.7208 25.5396 11.3182 25.8876 11.0676L29.8876 8.1876C30.7696 7.55258 32 8.18285 32 9.26965V22.7304C32 23.8172 30.7696 24.4474 29.8876 23.8124L25.8876 20.9324C25.5396 20.6818 25.3333 20.2792 25.3333 19.8504V12.1496ZM30 21.4289L27.3333 19.5089V12.4911L30 10.5711V21.4289Z" fill="#18202A"/>
</svg>
