<svg width="32" height="32" viewBox="0 0 32 32" fill="none" xmlns="http://www.w3.org/2000/svg">
<path fill-rule="evenodd" clip-rule="evenodd" d="M28.6666 11.3335H3.33331V25.3335C3.33331 27.1744 4.8257 28.6668 6.66665 28.6668H25.3333C27.1743 28.6668 28.6666 27.1744 28.6666 25.3335V11.3335ZM1.33331 9.3335V25.3335C1.33331 28.279 3.72113 30.6668 6.66665 30.6668H25.3333C28.2788 30.6668 30.6666 28.279 30.6666 25.3335V9.3335H1.33331Z" fill="#18202A"/>
<path fill-rule="evenodd" clip-rule="evenodd" d="M14 17.9451V22.0419L17.3822 19.9935L14 17.9451ZM12 16.5927C12 15.6258 13.045 15.0286 13.8664 15.526L19.4816 18.9268C20.2794 19.41 20.2794 20.577 19.4816 21.0602L13.8664 24.461C13.045 24.9585 12 24.3612 12 23.3943V16.5927Z" fill="#18202A"/>
<path d="M9.33331 2.66683H12.6666L5.99998 10.6668H2.66665L9.33331 2.66683Z" fill="#18202A"/>
<path d="M17.3333 2.66683H20.6666L14 10.6668H10.6666L17.3333 2.66683Z" fill="#18202A"/>
<path d="M25.3333 2.66683H28.6666L22 10.6668H18.6666L25.3333 2.66683Z" fill="#18202A"/>
<path fill-rule="evenodd" clip-rule="evenodd" d="M25.3333 3.3335H6.66665C4.8257 3.3335 3.33331 4.82588 3.33331 6.66683V9.3335H28.6666V6.66683C28.6666 4.82588 27.1743 3.3335 25.3333 3.3335ZM6.66665 1.3335C3.72113 1.3335 1.33331 3.72131 1.33331 6.66683V11.3335H30.6666V6.66683C30.6666 3.72131 28.2788 1.3335 25.3333 1.3335H6.66665Z" fill="#18202A"/>
</svg>
