<svg width="32" height="32" viewBox="0 0 32 32" fill="none" xmlns="http://www.w3.org/2000/svg">
<path d="M23.2873 14.7093C23.8163 14.868 24.1165 15.4255 23.9578 15.9545L23.9568 15.9579L23.9554 15.9625L23.9514 15.9753L23.9387 16.0151C23.9281 16.0476 23.9131 16.0921 23.8936 16.1467C23.8546 16.2558 23.7972 16.4067 23.7196 16.5856C23.5658 16.9405 23.3266 17.4205 22.9859 17.9073C22.318 18.8615 21.1382 20.0005 19.3333 20.0005C17.6335 20.0005 16.3832 18.9565 15.4497 18.1771L15.3598 18.102C14.3025 17.2209 13.5783 16.6671 12.6667 16.6671C11.8048 16.6671 11.1513 17.1948 10.6526 17.9073C10.41 18.2538 10.2325 18.6072 10.1155 18.8773C10.0576 19.0108 10.0161 19.1204 9.98992 19.1936C9.97688 19.2301 9.96777 19.2573 9.96245 19.2736L9.95732 19.2895C9.79836 19.8181 9.24143 20.1169 8.71265 19.9583C8.18366 19.7996 7.88348 19.2421 8.04217 18.7131L8.04263 18.7116C8.06285 18.6477 8.08388 18.5841 8.10643 18.5209C8.1454 18.4118 8.20284 18.2609 8.28036 18.082C8.43416 17.7271 8.67336 17.2471 9.0141 16.7603C9.68203 15.8062 10.8618 14.6671 12.6667 14.6671C14.3665 14.6671 15.6168 15.7112 16.5503 16.4906L16.6402 16.5656C17.6975 17.4467 18.4217 18.0005 19.3333 18.0005C20.1952 18.0005 20.8487 17.4728 21.3474 16.7603C21.59 16.4138 21.7675 16.0605 21.8845 15.7904C21.9424 15.6568 21.9839 15.5472 22.0101 15.474C22.0231 15.4375 22.0322 15.4104 22.0375 15.3941L22.0425 15.3786C22.2015 14.85 22.7586 14.5507 23.2873 14.7093Z" fill="#18202A"/>
<path fill-rule="evenodd" clip-rule="evenodd" d="M8.99998 1.3335C8.44769 1.3335 7.99998 1.78121 7.99998 2.3335V4.00016H6.66665C3.72113 4.00016 1.33331 6.38798 1.33331 9.3335V25.3335C1.33331 28.279 3.72113 30.6668 6.66665 30.6668H25.3333C28.2788 30.6668 30.6666 28.279 30.6666 25.3335V9.3335C30.6666 6.38798 28.2788 4.00016 25.3333 4.00016H24V2.3335C24 1.78121 23.5523 1.3335 23 1.3335C22.4477 1.3335 22 1.78121 22 2.3335V4.00016H9.99998V2.3335C9.99998 1.78121 9.55227 1.3335 8.99998 1.3335ZM23 9.3335C22.4477 9.3335 22 8.88578 22 8.3335V6.00016H9.99998V8.3335C9.99998 8.88578 9.55227 9.3335 8.99998 9.3335C8.44769 9.3335 7.99998 8.88578 7.99998 8.3335V6.00016H6.66665C4.8257 6.00016 3.33331 7.49255 3.33331 9.3335V25.3335C3.33331 27.1744 4.8257 28.6668 6.66665 28.6668H25.3333C27.1743 28.6668 28.6666 27.1744 28.6666 25.3335V9.3335C28.6666 7.49255 27.1743 6.00016 25.3333 6.00016H24V8.3335C24 8.88578 23.5523 9.3335 23 9.3335Z" fill="#18202A"/>
</svg>
