<svg width="32" height="32" viewBox="0 0 32 32" fill="none" xmlns="http://www.w3.org/2000/svg">
<path d="M19.7485 5.26732L12 13.0158V6.6665C12 4.45736 13.7909 2.6665 16 2.6665C17.7169 2.6665 19.1812 3.74823 19.7485 5.26732Z" fill="#18202A"/>
<path d="M25.6311 3.14815C26.221 2.55823 27.1217 2.50249 27.6429 3.02365C28.164 3.54481 28.1083 4.44553 27.5184 5.03545L20 12.5538V14.6665C20 16.8756 18.2091 18.6665 16 18.6665C15.3829 18.6665 14.7985 18.5268 14.2766 18.2772L12.3245 20.2293C13.3782 20.9269 14.6417 21.3332 16 21.3332C19.2283 21.3332 21.9207 19.0385 22.5351 15.9913C22.6806 15.2695 23.2637 14.6665 24 14.6665C24.7364 14.6665 25.3434 15.2669 25.2394 15.9959C24.6563 20.0854 21.4223 23.3205 17.3333 23.9053V26.6665H20.6667C21.403 26.6665 22 27.2635 22 27.9998C22 28.7362 21.403 29.3332 20.6667 29.3332H11.3333C10.597 29.3332 10 28.7362 10 27.9998C10 27.2635 10.597 26.6665 11.3333 26.6665H14.6667V23.9053C13.0859 23.6792 11.6329 23.057 10.4114 22.1424L6.36895 26.1849C5.77902 26.7748 4.87831 26.8305 4.35714 26.3094C3.83598 25.7882 3.89172 24.8875 4.48165 24.2976L25.6311 3.14815Z" fill="#18202A"/>
<path d="M7.20838 17.8074L9.36187 15.6539C9.12774 15.0909 8.61786 14.6665 8.00004 14.6665C7.26366 14.6665 6.65671 15.2669 6.76066 15.9959C6.84993 16.6219 7.00132 17.2279 7.20838 17.8074Z" fill="#18202A"/>
</svg>
