<svg width="32" height="32" viewBox="0 0 32 32" fill="none" xmlns="http://www.w3.org/2000/svg">
<path d="M3.99998 4C2.52722 4 1.33331 5.19391 1.33331 6.66667V12C1.33331 13.4728 2.52722 14.6667 3.99998 14.6667H20C21.4727 14.6667 22.6666 13.4728 22.6666 12V6.66667C22.6666 5.19391 21.4727 4 20 4H3.99998Z" fill="#18202A"/>
<path fill-rule="evenodd" clip-rule="evenodd" d="M1.33331 20C1.33331 18.5272 2.52722 17.3333 3.99998 17.3333H20C21.4727 17.3333 22.6666 18.5272 22.6666 20V25.3333C22.6666 26.8061 21.4727 28 20 28H3.99998C2.52722 28 1.33331 26.8061 1.33331 25.3333V20ZM3.33331 20C3.33331 19.6318 3.63179 19.3333 3.99998 19.3333H20C20.3682 19.3333 20.6666 19.6318 20.6666 20V25.3333C20.6666 25.7015 20.3682 26 20 26H3.99998C3.63179 26 3.33331 25.7015 3.33331 25.3333V20Z" fill="#18202A"/>
<path d="M25.7805 7.77246C25.2865 7.52547 24.6859 7.72569 24.4389 8.21967C24.1919 8.71365 24.3921 9.31432 24.8861 9.56131C26.6297 10.4331 28.0736 12.1798 28.4312 14.2535C28.7331 16.0046 28.28 18.1202 26.3333 20.2685V18.6667C26.3333 18.1144 25.8856 17.6667 25.3333 17.6667C24.781 17.6667 24.3333 18.1144 24.3333 18.6667V22.6667C24.3333 23.219 24.781 23.6667 25.3333 23.6667H29.3333C29.8856 23.6667 30.3333 23.219 30.3333 22.6667C30.3333 22.1144 29.8856 21.6667 29.3333 21.6667H27.7644C30.1048 19.1093 30.8269 16.3777 30.4021 13.9136C29.9263 11.154 28.0369 8.90065 25.7805 7.77246Z" fill="#18202A"/>
</svg>
