<svg width="32" height="32" viewBox="0 0 32 32" fill="none" xmlns="http://www.w3.org/2000/svg">
<path fill-rule="evenodd" clip-rule="evenodd" d="M16 27.9999C22.6274 27.9999 28 22.6273 28 15.9999C28 9.3725 22.6274 3.99992 16 3.99992C9.37258 3.99992 3.99999 9.3725 3.99999 15.9999C3.99999 22.6273 9.37258 27.9999 16 27.9999ZM30.6667 15.9999C30.6667 24.1001 24.1002 30.6666 16 30.6666C7.89982 30.6666 1.33333 24.1001 1.33333 15.9999C1.33333 7.89974 7.89982 1.33325 16 1.33325C24.1002 1.33325 30.6667 7.89974 30.6667 15.9999Z" fill="#18202A"/>
<path fill-rule="evenodd" clip-rule="evenodd" d="M26.2761 5.72378C25.7554 5.20308 24.9112 5.20308 24.3905 5.72378L5.72385 24.3904C5.20315 24.9111 5.20315 25.7554 5.72385 26.2761C6.24455 26.7968 7.08877 26.7968 7.60947 26.2761L26.2761 7.60939C26.7968 7.0887 26.7968 6.24448 26.2761 5.72378Z" fill="#18202A"/>
</svg>
