<svg width="32" height="32" viewBox="0 0 32 32" fill="none" xmlns="http://www.w3.org/2000/svg">
<path fill-rule="evenodd" clip-rule="evenodd" d="M1.33331 8.00002C1.33331 5.0545 3.72113 2.66669 6.66665 2.66669H25.3333C28.2788 2.66669 30.6666 5.0545 30.6666 8.00002V24C30.6666 26.9455 28.2788 29.3334 25.3333 29.3334H6.66665C3.72113 29.3334 1.33331 26.9455 1.33331 24V8.00002ZM17 4.66669H22V27.3334H17V4.66669ZM15 4.66669H9.99998V27.3334H15V4.66669ZM24 27.3334V4.66669H25.3333C27.1743 4.66669 28.6666 6.15907 28.6666 8.00002V24C28.6666 25.841 27.1743 27.3334 25.3333 27.3334H24ZM7.99998 4.66669H6.66665C4.8257 4.66669 3.33331 6.15907 3.33331 8.00002V24C3.33331 25.841 4.8257 27.3334 6.66665 27.3334H7.99998V4.66669Z" fill="#18202A"/>
</svg>
