<svg width="32" height="32" viewBox="0 0 32 32" fill="none" xmlns="http://www.w3.org/2000/svg">
<g clip-path="url(#clip0_3444_9517)">
<path fill-rule="evenodd" clip-rule="evenodd" d="M21.3334 2.6665C23.5425 2.6665 25.3334 4.45736 25.3334 6.6665C27.5425 6.6665 29.3334 8.45736 29.3334 10.6665V19.9998C29.3334 22.209 27.5425 23.9998 25.3334 23.9998V25.3332C25.3334 27.5423 23.5425 29.3332 21.3334 29.3332H10.6667C8.45755 29.3332 6.66669 27.5423 6.66669 25.3332V18.6665C6.66669 16.4574 8.45755 14.6665 10.6667 14.6665H21.3334C23.5425 14.6665 25.3334 16.4574 25.3334 18.6665V21.9998C26.4379 21.9998 27.3334 21.1044 27.3334 19.9998V10.6665C27.3334 9.56193 26.4379 8.6665 25.3334 8.6665H6.66669C5.56212 8.6665 4.66669 9.56193 4.66669 10.6665V19.9998C4.66669 21.1044 5.56212 21.9998 6.66669 21.9998V23.9998C4.45755 23.9998 2.66669 22.209 2.66669 19.9998V10.6665C2.66669 8.45736 4.45755 6.6665 6.66669 6.6665C6.66669 4.45736 8.45755 2.6665 10.6667 2.6665H21.3334ZM8.66669 6.6665C8.66669 5.56193 9.56212 4.6665 10.6667 4.6665H21.3334C22.4379 4.6665 23.3334 5.56193 23.3334 6.6665H8.66669ZM8.66669 18.6665C8.66669 17.5619 9.56212 16.6665 10.6667 16.6665H21.3334C22.4379 16.6665 23.3334 17.5619 23.3334 18.6665V25.3332C23.3334 26.4377 22.4379 27.3332 21.3334 27.3332H10.6667C9.56212 27.3332 8.66669 26.4377 8.66669 25.3332V18.6665Z" fill="#18202A"/>
<path d="M24 13.3332C24.7364 13.3332 25.3334 12.7362 25.3334 11.9998C25.3334 11.2635 24.7364 10.6665 24 10.6665C23.2636 10.6665 22.6667 11.2635 22.6667 11.9998C22.6667 12.7362 23.2636 13.3332 24 13.3332Z" fill="#18202A"/>
</g>
<defs>
<clipPath id="clip0_3444_9517">
<rect width="32" height="32" fill="white"/>
</clipPath>
</defs>
</svg>
