<svg width="32" height="32" viewBox="0 0 32 32" fill="none" xmlns="http://www.w3.org/2000/svg">
<path fill-rule="evenodd" clip-rule="evenodd" d="M2.66669 6.66699C2.66669 4.45785 4.45755 2.66699 6.66669 2.66699H9.33335C9.88564 2.66699 10.3334 3.11471 10.3334 3.66699C10.3334 4.21928 9.88564 4.66699 9.33335 4.66699H6.66669C5.56212 4.66699 4.66669 5.56242 4.66669 6.66699V9.33366C4.66669 9.88594 4.21897 10.3337 3.66669 10.3337C3.1144 10.3337 2.66669 9.88594 2.66669 9.33366V6.66699ZM10.6667 14.667C10.1144 14.667 9.66669 14.2193 9.66669 13.667V11.667C9.66669 11.1147 10.1144 10.667 10.6667 10.667C11.219 10.667 11.6667 11.1147 11.6667 11.667V13.667C11.6667 14.2193 11.219 14.667 10.6667 14.667ZM15 11.667V16.0003C15 16.1845 14.8508 16.3337 14.6667 16.3337H14.3334C13.7811 16.3337 13.3334 16.7814 13.3334 17.3337C13.3334 17.8859 13.7811 18.3337 14.3334 18.3337H14.6667C15.9554 18.3337 17 17.289 17 16.0003V11.667C17 11.1147 16.5523 10.667 16 10.667C15.4478 10.667 15 11.1147 15 11.667ZM20.8321 20.7791C20.5257 20.3195 19.9049 20.1954 19.4453 20.5017C19.239 20.6393 18.849 20.8621 18.3439 21.0866C17.5233 21.4513 16.7141 21.6671 16 21.6671C15.2859 21.6671 14.4767 21.4513 13.6562 21.0866C13.1511 20.8621 12.761 20.6393 12.5547 20.5017C12.0952 20.1954 11.4743 20.3195 11.168 20.7791C10.8616 21.2386 10.9858 21.8595 11.4453 22.1658C11.739 22.3616 12.224 22.6387 12.8439 22.9142C13.8983 23.3829 14.9641 23.6671 16 23.6671C17.0359 23.6671 18.1017 23.3829 19.1562 22.9142C19.599 22.7174 19.9729 22.5198 20.2575 22.3516L20.5547 22.1658C21.0143 21.8595 21.1384 21.2386 20.8321 20.7791ZM20.3334 13.667C20.3334 14.2193 20.7811 14.667 21.3334 14.667C21.8856 14.667 22.3334 14.2193 22.3334 13.667V11.667C22.3334 11.1147 21.8856 10.667 21.3334 10.667C20.7811 10.667 20.3334 11.1147 20.3334 11.667V13.667ZM6.66669 29.3337C4.45755 29.3337 2.66669 27.5428 2.66669 25.3337V22.667C2.66669 22.1147 3.1144 21.667 3.66669 21.667C4.21897 21.667 4.66669 22.1147 4.66669 22.667V25.3337C4.66669 26.4382 5.56212 27.3337 6.66669 27.3337H9.33335C9.88564 27.3337 10.3334 27.7814 10.3334 28.3337C10.3334 28.8859 9.88564 29.3337 9.33335 29.3337H6.66669ZM29.3334 6.66699C29.3334 4.45785 27.5425 2.66699 25.3334 2.66699H22.6667C22.1144 2.66699 21.6667 3.11471 21.6667 3.66699C21.6667 4.21928 22.1144 4.66699 22.6667 4.66699H25.3334C26.4379 4.66699 27.3334 5.56242 27.3334 6.66699V9.33366C27.3334 9.88594 27.7811 10.3337 28.3334 10.3337C28.8856 10.3337 29.3334 9.88594 29.3334 9.33366V6.66699ZM25.3334 29.3337C27.5425 29.3337 29.3334 27.5428 29.3334 25.3337V22.667C29.3334 22.1147 28.8856 21.667 28.3334 21.667C27.7811 21.667 27.3334 22.1147 27.3334 22.667V25.3337C27.3334 26.4382 26.4379 27.3337 25.3334 27.3337H22.6667C22.1144 27.3337 21.6667 27.7814 21.6667 28.3337C21.6667 28.8859 22.1144 29.3337 22.6667 29.3337H25.3334Z" fill="#18202A"/>
</svg>
