<svg width="32" height="32" viewBox="0 0 32 32" fill="none" xmlns="http://www.w3.org/2000/svg">
<path d="M16 1.3335C24.1002 1.3335 30.6666 7.89999 30.6666 16.0002C30.6666 24.1003 24.1002 30.6668 16 30.6668C7.8998 30.6668 1.33331 24.1003 1.33331 16.0002C1.33331 7.89999 7.8998 1.3335 16 1.3335ZM19.8561 7.87498C18.8048 8.46498 18.5123 9.0983 18.7071 9.29306C19.8576 10.4435 20.6483 12.3249 20.7483 14.0248C20.8701 16.0962 19.9277 17.6668 18 17.6668C16.5427 17.6668 16.2984 18.3997 16.9487 20.3506C17.3779 21.6385 16.6277 22.7347 15.3232 22.8241C14.3222 22.8927 13.144 22.3714 12.0977 21.3995C11.6378 20.9724 11.4237 20.4923 11.121 19.5142L10.9375 18.9249C10.6802 18.1339 10.4432 17.7174 10.1161 17.5016C8.1872 16.2295 7.04295 16.5934 5.6755 18.2575L4.94257 19.2055L4.86074 19.314L4.73614 19.4733C4.51572 19.7488 4.33611 19.9437 4.1451 20.0983L4.03847 20.178C5.76474 25.1209 10.4683 28.6668 16 28.6668C16.2725 28.6668 16.543 28.6582 16.8112 28.6413L16.8086 28.691C16.8086 27.7853 17.9105 25.3666 19.2352 23.8535C21.2564 21.5449 23.8876 20.792 26.8543 22.3009L26.9589 22.3563C28.0448 20.488 28.6666 18.3167 28.6666 16.0002C28.6666 12.854 27.5196 9.97572 25.6209 7.76074L25.7374 7.80455C23.5018 6.91021 21.3641 7.02861 19.8561 7.87498ZM20.74 25.171C19.9018 26.1283 19.1492 27.6159 18.8976 28.3341C21.6592 27.687 24.0713 26.1386 25.808 24.0162C23.7869 23.0449 22.1626 23.546 20.74 25.171ZM16 3.3335C9.00437 3.3335 3.33331 9.00456 3.33331 16.0002C3.33331 16.6274 3.3789 17.2439 3.46693 17.8467L4.13029 16.9877C6.08028 14.6147 8.3007 13.9086 11.2172 15.832C11.9565 16.3196 12.3789 16.9943 12.7418 18.0182L12.9033 18.5067L13.0317 18.923C13.2269 19.5539 13.3524 19.8353 13.4587 19.9341C13.9976 20.4346 14.5328 20.7238 14.9232 20.806L14.9973 20.8175L14.9685 20.7237C14.1062 17.892 14.8366 15.7934 17.7309 15.6723L18 15.6668C18.5389 15.6668 18.8144 15.2077 18.7517 14.1422C18.6851 13.0096 18.1726 11.7153 17.4718 10.9006L17.2929 10.7073C15.8996 9.31402 16.8422 7.273 18.8772 6.13089C19.951 5.52825 21.2263 5.20007 22.5999 5.18665C20.6776 4.01097 18.4179 3.3335 16 3.3335Z" fill="#18202A"/>
</svg>
