<svg width="32" height="32" viewBox="0 0 32 32" fill="none" xmlns="http://www.w3.org/2000/svg">
<g clip-path="url(#clip0_2294_9885)">
<path fill-rule="evenodd" clip-rule="evenodd" d="M30.6667 4.0001C29.9303 4.0001 29.3333 4.59705 29.3333 5.33343V12.0001H22.6667C21.9303 12.0001 21.3333 12.5971 21.3333 13.3334C21.3333 14.0698 21.9303 14.6668 22.6667 14.6668H30.6667C31.403 14.6668 32 14.0698 32 13.3334V5.33343C32 4.59705 31.403 4.0001 30.6667 4.0001Z" fill="#18202A"/>
<path fill-rule="evenodd" clip-rule="evenodd" d="M10.6667 18.6668C10.6667 17.9304 10.0697 17.3334 9.33333 17.3334H1.33333C0.596951 17.3334 -3.8147e-06 17.9304 -3.8147e-06 18.6668V26.6668C-3.8147e-06 27.4031 0.596951 28.0001 1.33333 28.0001C2.06971 28.0001 2.66666 27.4031 2.66666 26.6668V20.0001H9.33333C10.0697 20.0001 10.6667 19.4031 10.6667 18.6668Z" fill="#18202A"/>
<path fill-rule="evenodd" clip-rule="evenodd" d="M19.6974 3.19497C17.5338 2.56914 15.2469 2.5016 13.0501 2.99865C10.8534 3.4957 8.8183 4.54113 7.13484 6.03741C5.45139 7.53368 4.1744 9.43202 3.42304 11.5553C3.17739 12.2495 3.541 13.0114 4.2352 13.2571C4.9294 13.5027 5.6913 13.1391 5.93695 12.4449C6.53804 10.7463 7.55963 9.2276 8.90639 8.03058C10.2532 6.83356 11.8812 5.99721 13.6386 5.59957C15.396 5.20193 17.2255 5.25597 18.9564 5.75663C20.6873 6.25729 22.2632 7.18826 23.537 8.46267C23.5468 8.47253 23.5568 8.48223 23.567 8.49177L29.7536 14.3051C30.2903 14.8094 31.1341 14.7831 31.6383 14.2465C32.1426 13.7098 32.1163 12.866 31.5797 12.3618L25.4079 6.56237C23.8183 4.97713 21.8541 3.81881 19.6974 3.19497ZM0.36166 17.7537C-0.142597 18.2904 -0.116344 19.1342 0.420296 19.6384L6.59215 25.4379C8.1817 27.0231 10.1459 28.1814 12.3026 28.8052C14.4662 29.4311 16.7531 29.4986 18.9499 29.0016C21.1466 28.5045 23.1817 27.4591 24.8651 25.9628C26.5486 24.4665 27.8256 22.5682 28.577 20.4449C28.8226 19.7507 28.459 18.9888 27.7648 18.7431C27.0706 18.4975 26.3087 18.8611 26.063 19.5553C25.462 21.2539 24.4404 22.7726 23.0936 23.9696C21.7468 25.1666 20.1188 26.003 18.3614 26.4006C16.604 26.7983 14.7744 26.7442 13.0436 26.2436C11.3127 25.7429 9.73681 24.8119 8.46304 23.5375C8.45712 23.5316 8.45114 23.5257 8.4451 23.5199C8.4411 23.5161 8.43708 23.5122 8.43303 23.5084L2.24636 17.6951C1.70973 17.1908 0.865915 17.2171 0.36166 17.7537Z" fill="#18202A"/>
</g>
<defs>
<clipPath id="clip0_2294_9885">
<rect width="32" height="32" fill="white"/>
</clipPath>
</defs>
</svg>
