<svg width="32" height="32" viewBox="0 0 32 32" fill="none" xmlns="http://www.w3.org/2000/svg">
<g clip-path="url(#clip0_2294_13953)">
<path fill-rule="evenodd" clip-rule="evenodd" d="M25.3333 3.33301H6.66665C4.8257 3.33301 3.33331 4.82539 3.33331 6.66634V25.333C3.33331 27.174 4.8257 28.6663 6.66665 28.6663H17.3309C17.6316 29.3875 18.027 30.0594 18.5015 30.6663H6.66665C3.72113 30.6663 1.33331 28.2785 1.33331 25.333V6.66634C1.33331 3.72082 3.72113 1.33301 6.66665 1.33301H25.3333C28.2788 1.33301 30.6666 3.72082 30.6666 6.66634V18.5012C30.0597 18.0267 29.3878 17.6313 28.6666 17.3306V6.66634C28.6666 4.82539 27.1743 3.33301 25.3333 3.33301ZM16.7707 23.9863C17.1779 21.3761 18.75 19.1517 20.9387 17.8616C20.7929 17.6832 20.6209 17.5226 20.4232 17.3854C19.163 16.5109 17.6402 15.9997 16.0001 15.9997C14.3601 15.9997 12.8373 16.5109 11.5772 17.3853C10.5691 18.0849 10.2304 19.3928 10.6168 20.5573C10.7877 21.0722 10.9867 21.5738 11.2119 22.0604C11.6439 22.9934 12.5152 23.6458 13.5304 23.8089C14.335 23.9381 15.1599 24.0052 16.0001 24.0052C16.2585 24.0052 16.5154 23.9988 16.7707 23.9863ZM22.16 17.2657C23.113 16.8905 24.1486 16.6793 25.2319 16.6669C24.2556 16.2224 23.1632 15.9736 22.0101 15.9736C21.6109 15.9736 21.219 16.0034 20.8367 16.0609C20.9541 16.1347 21.0696 16.2111 21.1833 16.29C21.5802 16.5653 21.905 16.8971 22.16 17.2657ZM16 14.6663C17.7778 14.6663 18.6666 12.9997 18.6666 10.9163C18.6666 9.24967 17.7778 7.99967 16 7.99967C14.2222 7.99967 13.3333 9.24967 13.3333 10.9163C13.3333 12.9997 14.2222 14.6663 16 14.6663ZM8.66665 14.6663C9.99998 14.6663 10.6666 13.333 10.6666 11.6663C10.6666 10.333 9.99998 9.33301 8.66665 9.33301C7.33331 9.33301 6.66665 10.333 6.66665 11.6663C6.66665 13.333 7.33331 14.6663 8.66665 14.6663ZM25.3333 11.6663C25.3333 13.333 24.6666 14.6663 23.3333 14.6663C22 14.6663 21.3333 13.333 21.3333 11.6663C21.3333 10.333 22 9.33301 23.3333 9.33301C24.6666 9.33301 25.3333 10.333 25.3333 11.6663ZM10.817 16.2899C10.9182 16.2197 11.0208 16.1515 11.1248 16.0854C10.6943 16.012 10.251 15.9736 9.79846 15.9736C8.54547 15.9736 7.36418 16.2674 6.32568 16.7868C5.44412 17.2277 5.0734 18.2609 5.36768 19.2016C5.42482 19.3843 5.48566 19.5655 5.55011 19.745C5.8308 20.5269 6.52824 21.0785 7.35108 21.1927C8.04891 21.2896 8.76056 21.3457 9.4833 21.3584C9.43774 21.2321 9.39375 21.1051 9.35135 20.9773C8.80708 19.3371 9.25271 17.3754 10.817 16.2899ZM32 25.333C32 29.0149 29.0152 31.9997 25.3333 31.9997C21.6514 31.9997 18.6666 29.0149 18.6666 25.333C18.6666 21.6511 21.6514 18.6663 25.3333 18.6663C29.0152 18.6663 32 21.6511 32 25.333ZM25.3333 21.333C25.8856 21.333 26.3333 21.7807 26.3333 22.333V24.333H28.3333C28.8856 24.333 29.3333 24.7807 29.3333 25.333C29.3333 25.8853 28.8856 26.333 28.3333 26.333H26.3333V28.333C26.3333 28.8853 25.8856 29.333 25.3333 29.333C24.781 29.333 24.3333 28.8853 24.3333 28.333V26.333H22.3333C21.781 26.333 21.3333 25.8853 21.3333 25.333C21.3333 24.7807 21.781 24.333 22.3333 24.333H24.3333V22.333C24.3333 21.7807 24.781 21.333 25.3333 21.333Z" fill="#18202A"/>
</g>
<defs>
<clipPath id="clip0_2294_13953">
<rect width="32" height="32" fill="white"/>
</clipPath>
</defs>
</svg>
