<svg width="32" height="32" viewBox="0 0 32 32" fill="none" xmlns="http://www.w3.org/2000/svg">
<path fill-rule="evenodd" clip-rule="evenodd" d="M16 30.6667C24.1002 30.6667 30.6667 24.1002 30.6667 16C30.6667 7.89986 24.1002 1.33337 16 1.33337C7.89982 1.33337 1.33333 7.89986 1.33333 16C1.33333 24.1002 7.89982 30.6667 16 30.6667ZM22.2988 12.9196C22.8067 12.3863 22.7861 11.5424 22.2529 11.0345C21.7196 10.5267 20.8756 10.5473 20.3678 11.0805L13.7663 18.012L11.679 15.5768C11.1998 15.0177 10.358 14.9529 9.79892 15.4321C9.23982 15.9114 9.17507 16.7531 9.6543 17.3122L12.7019 20.8678C12.9473 21.154 13.3024 21.323 13.6793 21.3329C14.0563 21.3428 14.4197 21.1926 14.6798 20.9196L22.2988 12.9196Z" fill="#18202A"/>
</svg>
