<svg width="32" height="32" viewBox="0 0 32 32" fill="none" xmlns="http://www.w3.org/2000/svg">
<path d="M5.33329 6.66659C5.33329 5.93021 4.73634 5.33325 3.99996 5.33325C3.26358 5.33325 2.66663 5.93021 2.66663 6.66659V25.3333C2.66663 26.0696 3.26358 26.6666 3.99996 26.6666C4.73634 26.6666 5.33329 26.0696 5.33329 25.3333V17.3333L16 17.3333V25.3333C16 26.0696 16.5969 26.6666 17.3333 26.6666C18.0697 26.6666 18.6666 26.0696 18.6666 25.3333V6.66659C18.6666 5.93021 18.0697 5.33325 17.3333 5.33325C16.5969 5.33325 16 5.93021 16 6.66659V14.6666L5.33329 14.6666V6.66659Z" fill="#18202A"/>
<path d="M29.3333 14.6666C29.3333 14.1749 29.0626 13.723 28.6291 13.491C28.1955 13.259 27.6695 13.2844 27.2603 13.5572L23.2603 16.2239C22.6476 16.6323 22.4821 17.4601 22.8905 18.0729C23.299 18.6856 24.1268 18.8511 24.7395 18.4427L26.6666 17.1579V25.3333C26.6666 26.0696 27.2636 26.6666 27.9999 26.6666C28.7363 26.6666 29.3333 26.0696 29.3333 25.3333V14.6666Z" fill="#18202A"/>
</svg>
