<svg width="32" height="32" viewBox="0 0 32 32" fill="none" xmlns="http://www.w3.org/2000/svg">
<path fill-rule="evenodd" clip-rule="evenodd" d="M22.6667 5.33366H8C5.79086 5.33366 3.99999 7.12452 3.99999 9.33366V21.3337C3.99999 23.5428 5.79086 25.3337 7.99999 25.3337H13.6667C14.2189 25.3337 14.6667 25.7814 14.6667 26.3337V27.0003C14.6667 27.5526 14.2189 28.0003 13.6667 28.0003H7.99999C4.3181 28.0003 1.33333 25.0156 1.33333 21.3337V9.33366C1.33333 5.65176 4.3181 2.66699 8 2.66699H22.6667C26.3486 2.66699 29.3333 5.65176 29.3333 9.33366V12.3337C29.3333 12.8859 28.8856 13.3337 28.3333 13.3337H27.6667C27.1144 13.3337 26.6667 12.8859 26.6667 12.3337V9.33366C26.6667 7.12452 24.8758 5.33366 22.6667 5.33366ZM17.3333 20.0003C17.3333 17.7912 19.1242 16.0003 21.3333 16.0003H26.6667C28.8758 16.0003 30.6667 17.7912 30.6667 20.0003V25.3337C30.6667 27.5428 28.8758 29.3337 26.6667 29.3337H21.3333C19.1242 29.3337 17.3333 27.5428 17.3333 25.3337V20.0003Z" fill="#18202A"/>
</svg>
