<svg width="32" height="32" viewBox="0 0 32 32" fill="none" xmlns="http://www.w3.org/2000/svg">
<path fill-rule="evenodd" clip-rule="evenodd" d="M30.6667 15.9999C30.6667 24.1001 24.1002 30.6666 16 30.6666C7.89982 30.6666 1.33333 24.1001 1.33333 15.9999C1.33333 7.89974 7.89982 1.33325 16 1.33325C24.1002 1.33325 30.6667 7.89974 30.6667 15.9999ZM13.8856 11.9999C13.5806 11.9999 13.3333 12.2472 13.3333 12.5522C13.3333 12.6987 13.3915 12.8392 13.4951 12.9427L13.6095 13.0571C14.1302 13.5778 14.1302 14.422 13.6095 14.9427C13.0888 15.4634 12.2446 15.4634 11.7239 14.9427L11.6095 14.8283C11.0058 14.2247 10.6667 13.4059 10.6667 12.5522C10.6667 10.7744 12.1078 9.33325 13.8856 9.33325H17.6754C19.6956 9.33325 21.3333 10.9709 21.3333 12.9911C21.3333 14.5656 20.3258 15.9634 18.8322 16.4613L18.4216 16.5982C17.7717 16.8148 17.3333 17.423 17.3333 18.1081V18.6666C17.3333 19.403 16.7364 19.9999 16 19.9999C15.2636 19.9999 14.6667 19.403 14.6667 18.6666V18.1081C14.6667 16.2752 15.8395 14.648 17.5784 14.0683L17.9889 13.9315C18.3937 13.7966 18.6667 13.4178 18.6667 12.9911C18.6667 12.4437 18.2229 11.9999 17.6754 11.9999H13.8856ZM14.6667 22.6666C14.6667 21.9302 15.2636 21.3333 16 21.3333C16.7364 21.3333 17.3333 21.9302 17.3333 22.6666C17.3333 23.403 16.7364 23.9999 16 23.9999C15.2636 23.9999 14.6667 23.403 14.6667 22.6666Z" fill="#18202A"/>
</svg>
