<svg width="32" height="32" viewBox="0 0 32 32" fill="none" xmlns="http://www.w3.org/2000/svg">
<path d="M7.75758 1.3335C4.94594 1.3335 2.66667 3.72353 2.66667 6.67178V9.3335H10.6667C10.6667 8.30981 11.0572 7.28612 11.8382 6.50507C13.4003 4.94297 15.933 4.94297 17.4951 6.50507L21.4951 10.5051C23.0572 12.0672 23.0572 14.5998 21.4951 16.1619L17.4951 20.1619C15.933 21.724 13.4003 21.724 11.8382 20.1619C11.0572 19.3809 10.6667 18.3572 10.6667 17.3335H2.66667V18.6829C2.66667 21.6312 4.94594 24.0212 7.75757 24.0212H8.45179L7.71384 27.722C7.48712 28.8591 8.65791 29.736 9.61008 29.1423L17.8237 24.0212H25.5758C28.3874 24.0212 30.6667 21.6312 30.6667 18.6829V6.67178C30.6667 3.72353 28.3874 1.3335 25.5758 1.3335H7.75758Z" fill="#18202A"/>
<path d="M13.7239 8.39069C14.2446 7.86999 15.0888 7.86999 15.6095 8.39069L19.6095 12.3907C20.1302 12.9114 20.1302 13.7556 19.6095 14.2763L15.6095 18.2763C15.0888 18.797 14.2446 18.797 13.7239 18.2763C13.2032 17.7556 13.2032 16.9114 13.7239 16.3907L15.4477 14.6668H1.33333C0.596954 14.6668 0 14.0699 0 13.3335C0 12.5971 0.596954 12.0002 1.33333 12.0002H15.4477L13.7239 10.2763C13.2032 9.75561 13.2032 8.91139 13.7239 8.39069Z" fill="#18202A"/>
</svg>
