<svg width="32" height="32" viewBox="0 0 32 32" fill="none" xmlns="http://www.w3.org/2000/svg">
<path d="M3.36058 15.588V15.5196L3.3559 15.4513C2.92601 9.1775 8.86119 3.3335 16.0136 3.3335C23.1285 3.3335 28.6666 8.16072 28.6666 15.588C28.6666 16.159 28.6254 16.7247 28.5444 17.2811C29.2062 17.5453 29.8278 17.8887 30.3975 18.2996C30.5752 17.417 30.6666 16.5095 30.6666 15.588C30.6666 6.9335 24.1063 1.3335 16.0136 1.3335C7.92097 1.3335 0.837326 7.95168 1.36058 15.588C1.36058 20.1511 3.18428 23.7235 6.09471 26.0814L6.37485 29.4431C6.45171 30.3655 7.42195 30.9309 8.26232 30.543L11.8969 28.8655C13.2029 29.1747 14.5843 29.3335 16.0136 29.3335C16.5565 29.3335 17.0877 29.3095 17.6065 29.2629C17.2944 28.6503 17.0529 27.9956 16.8929 27.3096C16.6042 27.3254 16.3111 27.3335 16.0136 27.3335C14.7321 27.3335 13.5056 27.1911 12.3576 26.9193L11.6857 26.7602L8.28886 28.328L8.01692 25.0647L7.35371 24.5274C4.93174 22.5652 3.36058 19.5737 3.36058 15.588Z" fill="#18202A"/>
<path d="M23.2046 16.9302C22.7883 17.0353 22.384 17.1706 21.9941 17.3335C20.8923 17.3303 20 16.4361 20 15.3335C20 14.2289 20.8954 13.3335 22 13.3335C23.1046 13.3335 24 14.2289 24 15.3335C24 15.9858 23.6877 16.5651 23.2046 16.9302Z" fill="#18202A"/>
<path d="M16 17.3335C17.1046 17.3335 18 16.4381 18 15.3335C18 14.2289 17.1046 13.3335 16 13.3335C14.8954 13.3335 14 14.2289 14 15.3335C14 16.4381 14.8954 17.3335 16 17.3335Z" fill="#18202A"/>
<path d="M12 15.3335C12 16.4381 11.1046 17.3335 10 17.3335C8.89543 17.3335 8 16.4381 8 15.3335C8 14.2289 8.89543 13.3335 10 13.3335C11.1046 13.3335 12 14.2289 12 15.3335Z" fill="#18202A"/>
<path fill-rule="evenodd" clip-rule="evenodd" d="M25.3333 32.0002C29.0152 32.0002 32 29.0154 32 25.3335C32 21.6516 29.0152 18.6668 25.3333 18.6668C21.6514 18.6668 18.6666 21.6516 18.6666 25.3335C18.6666 29.0154 21.6514 32.0002 25.3333 32.0002ZM29.4259 23.9843C29.7853 23.565 29.7367 22.9337 29.3174 22.5742C28.8981 22.2148 28.2668 22.2634 27.9074 22.6827L24.5171 26.638L22.6 25.2002C22.1581 24.8688 21.5313 24.9583 21.2 25.4002C20.8686 25.842 20.9581 26.4688 21.4 26.8002L24.0666 28.8002C24.4882 29.1164 25.0829 29.0511 25.4259 28.651L29.4259 23.9843Z" fill="#18202A"/>
</svg>
