<svg width="32" height="32" viewBox="0 0 32 32" fill="none" xmlns="http://www.w3.org/2000/svg">
<path fill-rule="evenodd" clip-rule="evenodd" d="M13.7362 29.9117C13.0819 29.4216 12.6039 28.7327 12.3738 27.9483L14.2929 27.3852C14.4014 27.7552 14.6268 28.08 14.9352 28.311C15.2435 28.542 15.6183 28.6667 16.0033 28.6667C16.3884 28.6667 16.7631 28.542 17.0715 28.311C17.3798 28.08 17.6052 27.7552 17.7138 27.3852L19.6329 27.9483C19.4027 28.7327 18.9248 29.4216 18.2705 29.9117C17.6162 30.4018 16.8208 30.6667 16.0033 30.6667C15.1859 30.6667 14.3904 30.4018 13.7362 29.9117Z" fill="#18202A"/>
<path fill-rule="evenodd" clip-rule="evenodd" d="M16 1.66675C16.5523 1.66675 17 2.11446 17 2.66675V4.00008C17 4.55237 16.5523 5.00008 16 5.00008C15.4477 5.00008 15 4.55237 15 4.00008V2.66675C15 2.11446 15.4477 1.66675 16 1.66675Z" fill="#18202A"/>
<path fill-rule="evenodd" clip-rule="evenodd" d="M8.64434 6.9755C6.6935 8.88064 5.59753 11.4645 5.59753 14.1588C5.59753 19.1989 4.35598 22.1737 3.33161 23.7705C2.98227 24.315 3.41669 25.3334 4.06365 25.3334H27.9364C28.5833 25.3334 29.0177 24.315 28.6684 23.7705C27.644 22.1737 26.4025 19.1989 26.4025 14.1588C26.4025 11.4645 25.3065 8.88064 23.3557 6.9755C21.4048 5.07037 18.7589 4.00008 16 4.00008C13.2411 4.00008 10.5952 5.07037 8.64434 6.9755ZM16 6.00008C13.7564 6.00008 11.614 6.8709 10.0417 8.40638C8.47098 9.94029 7.59753 12.0105 7.59753 14.1588C7.59753 18.3457 6.7924 21.3067 5.84621 23.3334H26.1538C25.2076 21.3067 24.4025 18.3457 24.4025 14.1588C24.4025 12.0105 23.529 9.94029 21.9583 8.40638C20.386 6.8709 18.2436 6.00008 16 6.00008Z" fill="#18202A"/>
</svg>
