<svg width="32" height="32" viewBox="0 0 32 32" fill="none" xmlns="http://www.w3.org/2000/svg">
<g clip-path="url(#clip0_2294_9471)">
<path fill-rule="evenodd" clip-rule="evenodd" d="M6.66666 4C3.72114 4 1.33333 6.38781 1.33333 9.33333V12H30.6667C30.6667 9.05448 28.2788 6.66667 25.3333 6.66667H16L14.5049 5.17157C13.7548 4.42143 12.7373 4 11.6765 4H6.66666ZM1.33333 13.3333V22.6667C1.33333 25.6122 3.72114 28 6.66666 28H16.3865C16.135 27.1551 16 26.26 16 25.3333C16 20.1787 20.1787 16 25.3333 16C27.3163 16 29.1549 16.6184 30.6667 17.6729V13.3333H1.33333ZM32 25.3333C32 29.0152 29.0152 32 25.3333 32C21.6514 32 18.6667 29.0152 18.6667 25.3333C18.6667 21.6514 21.6514 18.6667 25.3333 18.6667C29.0152 18.6667 32 21.6514 32 25.3333ZM25.3333 21.3333C24.5969 21.3333 24 21.9303 24 22.6667V24H22.6667C21.9303 24 21.3333 24.597 21.3333 25.3333C21.3333 26.0697 21.9303 26.6667 22.6667 26.6667H24V28C24 28.7364 24.5969 29.3333 25.3333 29.3333C26.0697 29.3333 26.6667 28.7364 26.6667 28V26.6667H28C28.7364 26.6667 29.3333 26.0697 29.3333 25.3333C29.3333 24.597 28.7364 24 28 24H26.6667V22.6667C26.6667 21.9303 26.0697 21.3333 25.3333 21.3333Z" fill="#18202A"/>
</g>
<defs>
<clipPath id="clip0_2294_9471">
<rect width="32" height="32" fill="white"/>
</clipPath>
</defs>
</svg>
