<svg width="32" height="32" viewBox="0 0 32 32" fill="none" xmlns="http://www.w3.org/2000/svg">
<g clip-path="url(#clip0_2291_21905)">
<path fill-rule="evenodd" clip-rule="evenodd" d="M9.33337 1.33334C8.59699 1.33334 8.00004 1.9303 8.00004 2.66668V4.00001H6.66671C3.72119 4.00001 1.33337 6.38783 1.33337 9.33334V25.3333C1.33337 28.2789 3.72119 30.6667 6.66671 30.6667H16.3395C15.0951 29.1142 14.2757 27.2063 14.0581 25.1194C13.8494 25.2547 13.6006 25.3333 13.3334 25.3333C12.597 25.3333 12 24.7364 12 24C12 23.2636 12.597 22.6667 13.3334 22.6667C13.6006 22.6667 13.8494 22.7453 14.0581 22.8806C14.4273 19.3404 16.5282 16.315 19.4987 14.6667H8.00004C7.26366 14.6667 6.66671 14.0697 6.66671 13.3333C6.66671 12.597 7.26366 12 8.00004 12H24C24.7364 12 25.3334 12.597 25.3334 13.3333L25.3332 13.3538C27.3036 13.4753 29.1292 14.1317 30.6667 15.1796V9.33334C30.6667 6.38783 28.2789 4.00001 25.3334 4.00001H24V2.66668C24 1.9303 23.4031 1.33334 22.6667 1.33334C21.9303 1.33334 21.3334 1.9303 21.3334 2.66668V4.00001H10.6667V2.66668C10.6667 1.9303 10.0698 1.33334 9.33337 1.33334ZM6.66671 18.6667C6.66671 17.9303 7.26366 17.3333 8.00004 17.3333C8.73642 17.3333 9.33337 17.9303 9.33337 18.6667C9.33337 19.4031 8.73642 20 8.00004 20C7.26366 20 6.66671 19.4031 6.66671 18.6667ZM8.00004 22.6667C7.26366 22.6667 6.66671 23.2636 6.66671 24C6.66671 24.7364 7.26366 25.3333 8.00004 25.3333C8.73642 25.3333 9.33337 24.7364 9.33337 24C9.33337 23.2636 8.73642 22.6667 8.00004 22.6667ZM12 18.6667C12 17.9303 12.597 17.3333 13.3334 17.3333C14.0698 17.3333 14.6667 17.9303 14.6667 18.6667C14.6667 19.4031 14.0698 20 13.3334 20C12.597 20 12 19.4031 12 18.6667ZM23.5778 16C23.0954 16 22.6817 16.3445 22.5944 16.819L22.4116 17.812C21.6116 18.0884 20.8819 18.5156 20.2566 19.0596L19.3016 18.7201C18.847 18.5585 18.3418 18.7445 18.1006 19.1623L17.1333 20.8377C16.8921 21.2555 16.9836 21.786 17.3508 22.0989L18.1228 22.7567C18.0454 23.1592 18.0049 23.5749 18.0049 24C18.0049 24.4252 18.0454 24.8408 18.1228 25.2434L17.3508 25.9011C16.9836 26.214 16.8921 26.7445 17.1333 27.1623L18.1006 28.8377C18.3418 29.2555 18.847 29.4416 19.3016 29.28L20.2566 28.9405C20.882 29.4844 21.6116 29.9116 22.4116 30.1881L22.5944 31.1811C22.6817 31.6555 23.0954 32 23.5778 32H25.5124C25.9949 32 26.4085 31.6555 26.4959 31.1811L26.678 30.1919C27.481 29.916 28.2135 29.4883 28.8411 28.9431L29.7887 29.28C30.2433 29.4416 30.7485 29.2555 30.9897 28.8377L31.957 27.1623C32.1982 26.7445 32.1067 26.214 31.7395 25.9011L30.9764 25.251C31.0547 24.8461 31.0958 24.4278 31.0958 24C31.0958 23.5722 31.0547 23.154 30.9764 22.7491L31.7395 22.0989C32.1068 21.786 32.1982 21.2555 31.957 20.8377L30.9897 19.1623C30.7485 18.7445 30.2433 18.5585 29.7887 18.7201L28.8411 19.057C28.2135 18.5117 27.481 18.084 26.678 17.8081L26.4959 16.819C26.4085 16.3445 25.9949 16 25.5124 16H23.5778ZM24.5443 26.6667C26.017 26.6667 27.2109 25.4728 27.2109 24C27.2109 22.5273 26.017 21.3333 24.5443 21.3333C23.0715 21.3333 21.8776 22.5273 21.8776 24C21.8776 25.4728 23.0715 26.6667 24.5443 26.6667Z" fill="#18202A"/>
</g>
<defs>
<clipPath id="clip0_2291_21905">
<rect width="32" height="32" fill="white"/>
</clipPath>
</defs>
</svg>
