<svg width="32" height="32" viewBox="0 0 32 32" fill="none" xmlns="http://www.w3.org/2000/svg">
<path d="M21.6311 4.48165C22.221 3.89172 23.1217 3.83598 23.6429 4.35714C24.164 4.87831 24.1083 5.77902 23.5184 6.36895L22.7048 7.18254C23.5119 8.11714 24 9.3349 24 10.6667V21.3333C24 24.2789 21.6122 26.6667 18.6667 26.6667H5.33333C4.70131 26.6667 4.09496 26.5567 3.53237 26.3549L2.36895 27.5184C1.77902 28.1083 0.878309 28.164 0.357146 27.6429C-0.164017 27.1217 -0.108277 26.221 0.481649 25.6311L21.6311 4.48165Z" fill="#18202A"/>
<path d="M0.0815752 22.2677L17.016 5.33333H5.33333C2.38781 5.33333 0 7.72115 0 10.6667V21.3333C0 21.6521 0.0279649 21.9643 0.0815752 22.2677Z" fill="#18202A"/>
<path d="M25.8876 11.0676C25.5396 11.3182 25.3333 11.7208 25.3333 12.1496V18.517C25.3333 20.2792 25.5396 20.6818 25.8876 20.9324L29.8876 23.8124C30.7696 24.4474 32 23.8172 32 22.7304V9.26965C32 8.18285 30.7696 7.55258 29.8876 8.1876L25.8876 11.0676Z" fill="#18202A"/>
</svg>
