<svg width="32" height="32" viewBox="0 0 32 32" fill="none" xmlns="http://www.w3.org/2000/svg">
<path fill-rule="evenodd" clip-rule="evenodd" d="M6.66663 5.3335C4.45749 5.3335 2.66663 7.12436 2.66663 9.3335V21.3335C2.66663 23.5426 4.45749 25.3335 6.66663 25.3335H14.6666V26.6668H12C11.2636 26.6668 10.6666 27.2638 10.6666 28.0002C10.6666 28.7365 11.2636 29.3335 12 29.3335H20C20.7363 29.3335 21.3333 28.7365 21.3333 28.0002C21.3333 27.2638 20.7363 26.6668 20 26.6668H17.3333V25.3335H25.3333C27.5424 25.3335 29.3333 23.5426 29.3333 21.3335V9.3335C29.3333 7.12436 27.5424 5.3335 25.3333 5.3335H6.66663ZM26.6666 9.3335C26.6666 8.59712 26.0697 8.00016 25.3333 8.00016H6.66663C5.93025 8.00016 5.33329 8.59712 5.33329 9.3335V17.3335H26.6666V9.3335ZM25.3333 22.6668C26.0697 22.6668 26.6666 22.0699 26.6666 21.3335V20.0002H5.33329V21.3335C5.33329 22.0699 5.93025 22.6668 6.66663 22.6668H25.3333Z" fill="#18202A"/>
</svg>
