<svg width="32" height="32" viewBox="0 0 32 32" fill="none" xmlns="http://www.w3.org/2000/svg">
<g clip-path="url(#clip0_3893_8900)">
<path d="M26.0001 14.333C26.0001 13.7807 26.4478 13.333 27.0001 13.333C27.5523 13.333 28.0001 13.7807 28.0001 14.333V25.333C28.0001 28.2785 25.6122 30.6663 22.6667 30.6663H9.33339C6.38787 30.6663 4.00006 28.2785 4.00006 25.333V6.66634C4.00006 3.72082 6.38788 1.33301 9.33339 1.33301H16.3333C16.8856 1.33301 17.3333 1.78072 17.3333 2.33301C17.3333 2.88529 16.8856 3.33301 16.3333 3.33301L9.33339 3.33301C7.49245 3.33301 6.00006 4.82539 6.00006 6.66634L6.00006 25.333C6.00006 27.174 7.49244 28.6663 9.33339 28.6663H22.6667C24.5077 28.6663 26.0001 27.174 26.0001 25.333V14.333Z" fill="#18202A"/>
<path d="M10.3333 17.333C9.78103 17.333 9.33331 17.7807 9.33331 18.333C9.33331 18.8853 9.78103 19.333 10.3333 19.333H16.3333C16.8856 19.333 17.3333 18.8853 17.3333 18.333C17.3333 17.7807 16.8856 17.333 16.3333 17.333H10.3333Z" fill="#18202A"/>
<path d="M10.3333 11.9997C9.78103 11.9997 9.33331 12.4474 9.33331 12.9997C9.33331 13.552 9.78103 13.9997 10.3333 13.9997H13.6666C14.2189 13.9997 14.6666 13.552 14.6666 12.9997C14.6666 12.4474 14.2189 11.9997 13.6666 11.9997H10.3333Z" fill="#18202A"/>
<path d="M10.3333 22.6663C9.78103 22.6663 9.33331 23.1141 9.33331 23.6663C9.33331 24.2186 9.78103 24.6663 10.3333 24.6663H21.6666C22.2189 24.6663 22.6666 24.2186 22.6666 23.6663C22.6666 23.1141 22.2189 22.6663 21.6666 22.6663H10.3333Z" fill="#18202A"/>
<path d="M26.3217 7.40114L23.6666 4.95032V13.6663C23.6666 14.2186 23.2189 14.6663 22.6666 14.6663C22.1144 14.6663 21.6666 14.2186 21.6666 13.6663V4.95033L19.0116 7.40114C18.6058 7.77575 17.9731 7.75044 17.5985 7.34462C17.2239 6.9388 17.2492 6.30614 17.655 5.93154L21.9884 1.93154C22.3714 1.57794 22.9619 1.57794 23.3449 1.93154L27.6783 5.93154C28.0841 6.30614 28.1094 6.9388 27.7348 7.34462C27.3602 7.75044 26.7275 7.77575 26.3217 7.40114Z" fill="#18202A"/>
</g>
<defs>
<clipPath id="clip0_3893_8900">
<rect width="32" height="32" fill="white"/>
</clipPath>
</defs>
</svg>
