<svg width="32" height="32" viewBox="0 0 32 32" fill="none" xmlns="http://www.w3.org/2000/svg">
<path fill-rule="evenodd" clip-rule="evenodd" d="M13.9135 2.82864C13.7992 2.10119 14.2964 1.41252 15.0313 1.36454C15.3516 1.34362 15.6746 1.33301 16 1.33301C24.1002 1.33301 30.6667 7.8995 30.6667 15.9997C30.6667 16.325 30.656 16.648 30.6351 16.9684C30.5872 17.7032 29.8985 18.2005 29.171 18.0862C28.4436 17.9718 27.9541 17.2889 27.9875 16.5532C27.9958 16.3698 28 16.1853 28 15.9997C28 9.37226 22.6274 3.99967 16 3.99967C15.8144 3.99967 15.6298 4.00388 15.4464 4.01219C14.7108 4.04553 14.0278 3.55609 13.9135 2.82864ZM7.60888 5.63731C7.14512 5.06531 7.22983 4.22002 7.84145 3.80993C8.37722 3.45069 8.93812 3.12575 9.52102 2.83831C10.1815 2.51263 10.9562 2.86126 11.2202 3.54867C11.4843 4.23608 11.1366 5.00091 10.483 5.33999C10.1558 5.5097 9.83739 5.69407 9.52858 5.89225C8.90883 6.28996 8.07264 6.20931 7.60888 5.63731ZM3.54899 11.2199C2.86158 10.9559 2.51295 10.1811 2.83863 9.5207C3.12607 8.9378 3.45101 8.3769 3.81025 7.84113C4.22034 7.22951 5.06563 7.1448 5.63763 7.60856C6.20963 8.07232 6.29028 8.90851 5.89257 9.52826C5.69439 9.83707 5.51002 10.1555 5.34031 10.4827C5.00123 11.1363 4.2364 11.484 3.54899 11.2199ZM1.33333 15.9997C1.33333 15.6743 1.34394 15.3513 1.36486 15.0309C1.41284 14.2961 2.10151 13.7989 2.82896 13.9132C3.55641 14.0275 4.04585 14.7105 4.01251 15.4461C4.0042 15.6295 3.99999 15.8141 3.99999 15.9997C3.99999 16.1853 4.0042 16.3698 4.01251 16.5532C4.04585 17.2889 3.55641 17.9718 2.82896 18.0862C2.10151 18.2005 1.41284 17.7032 1.36486 16.9684C1.34394 16.648 1.33333 16.325 1.33333 15.9997ZM28.451 20.7794C29.1384 21.0435 29.487 21.8182 29.1614 22.4786C28.8739 23.0615 28.549 23.6224 28.1897 24.1582C27.7797 24.7698 26.9344 24.8546 26.3624 24.3908C25.7904 23.927 25.7097 23.0908 26.1074 22.4711C26.3056 22.1623 26.49 21.8439 26.6597 21.5167C26.9988 20.863 27.7636 20.5154 28.451 20.7794ZM5.63763 24.3908C5.06563 24.8546 4.22034 24.7698 3.81025 24.1582C3.45101 23.6224 3.12607 23.0615 2.83863 22.4786C2.51295 21.8182 2.86158 21.0435 3.54899 20.7794C4.2364 20.5154 5.00123 20.863 5.34031 21.5167C5.51002 21.8439 5.69439 22.1623 5.89257 22.4711C6.29028 23.0908 6.20963 23.927 5.63763 24.3908ZM11.2202 28.4507C10.9562 29.1381 10.1815 29.4867 9.52102 29.161C8.93812 28.8736 8.37722 28.5487 7.84145 28.1894C7.22983 27.7793 7.14512 26.934 7.60888 26.362C8.07264 25.79 8.90884 25.7094 9.52858 26.1071C9.83739 26.3053 10.1558 26.4897 10.483 26.6594C11.1366 26.9984 11.4843 27.7633 11.2202 28.4507ZM24.3911 26.362C24.8549 26.934 24.7702 27.7793 24.1585 28.1894C23.6228 28.5487 23.0619 28.8736 22.479 29.161C21.8185 29.4867 21.0438 29.1381 20.7798 28.4507C20.5157 27.7633 20.8633 26.9984 21.517 26.6594C21.8442 26.4897 22.1626 26.3053 22.4714 26.1071C23.0912 25.7094 23.9274 25.79 24.3911 26.362ZM18.0865 29.1707C18.2008 29.8982 17.7035 30.5868 16.9687 30.6348C16.6484 30.6557 16.3253 30.6663 16 30.6663C15.6746 30.6663 15.3516 30.6557 15.0313 30.6348C14.2964 30.5868 13.7992 29.8982 13.9135 29.1707C14.0278 28.4433 14.7108 27.9538 15.4464 27.9872C15.6298 27.9955 15.8144 27.9997 16 27.9997C16.1856 27.9997 16.3701 27.9955 16.5535 27.9872C17.2892 27.9538 17.9722 28.4433 18.0865 29.1707ZM25.3333 15.9997C25.3333 21.1543 21.1547 25.333 16 25.333C10.8453 25.333 6.66666 21.1543 6.66666 15.9997C6.66666 10.845 10.8453 6.66634 16 6.66634C21.1547 6.66634 25.3333 10.845 25.3333 15.9997ZM16 12.6663C16 13.7709 15.1046 14.6663 14 14.6663C12.8954 14.6663 12 13.7709 12 12.6663C12 11.5618 12.8954 10.6663 14 10.6663C15.1046 10.6663 16 11.5618 16 12.6663ZM12 16.6663L10.3541 19.5466C11.5341 21.4209 13.6216 22.6663 16 22.6663C19.4694 22.6663 22.3199 20.0161 22.6373 16.6296L20 13.333L15.3333 18.6663L12 16.6663Z" fill="#18202A"/>
</svg>
