<svg width="32" height="32" viewBox="0 0 32 32" fill="none" xmlns="http://www.w3.org/2000/svg">
<path d="M9.33333 9.33268C9.33333 8.5963 9.93029 7.99935 10.6667 7.99935C11.403 7.99935 12 8.5963 12 9.33268C12 10.0691 11.403 10.666 10.6667 10.666C9.93029 10.666 9.33333 10.0691 9.33333 9.33268Z" fill="#18202A"/>
<path d="M10.6667 11.9993C9.93029 11.9993 9.33333 12.5963 9.33333 13.3327C9.33333 14.0691 9.93029 14.666 10.6667 14.666C11.403 14.666 12 14.0691 12 13.3327C12 12.5963 11.403 11.9993 10.6667 11.9993Z" fill="#18202A"/>
<path d="M14.6667 9.33268C14.6667 8.5963 15.2636 7.99935 16 7.99935C16.7364 7.99935 17.3333 8.5963 17.3333 9.33268C17.3333 10.0691 16.7364 10.666 16 10.666C15.2636 10.666 14.6667 10.0691 14.6667 9.33268Z" fill="#18202A"/>
<path d="M16 11.9993C15.2636 11.9993 14.6667 12.5963 14.6667 13.3327C14.6667 14.0691 15.2636 14.666 16 14.666C16.7364 14.666 17.3333 14.0691 17.3333 13.3327C17.3333 12.5963 16.7364 11.9993 16 11.9993Z" fill="#18202A"/>
<path d="M20 9.33268C20 8.5963 20.597 7.99935 21.3333 7.99935C22.0697 7.99935 22.6667 8.5963 22.6667 9.33268C22.6667 10.0691 22.0697 10.666 21.3333 10.666C20.597 10.666 20 10.0691 20 9.33268Z" fill="#18202A"/>
<path d="M21.3333 11.9993C20.597 11.9993 20 12.5963 20 13.3327C20 14.0691 20.597 14.666 21.3333 14.666C22.0697 14.666 22.6667 14.0691 22.6667 13.3327C22.6667 12.5963 22.0697 11.9993 21.3333 11.9993Z" fill="#18202A"/>
<path fill-rule="evenodd" clip-rule="evenodd" d="M9 2.66602C6.23858 2.66602 4 4.90459 4 7.66602V24.3332C4 27.0947 6.23858 29.3332 9 29.3332H23C25.7614 29.3332 28 27.0946 28 24.3332V7.66601C28 4.90459 25.7614 2.66602 23 2.66602H9ZM6 7.66602C6 6.00916 7.34315 4.66602 9 4.66602H23C24.6569 4.66602 26 6.00916 26 7.66601V24.3332C26 25.9901 24.6569 27.3332 23 27.3332H20.3333V19.666C20.3333 18.3774 19.2887 17.3327 18 17.3327H14C12.7113 17.3327 11.6667 18.3773 11.6667 19.666V27.3332H9C7.34314 27.3332 6 25.9901 6 24.3332V7.66602ZM18.3333 27.3332V19.666C18.3333 19.4819 18.1841 19.3327 18 19.3327H14C13.8159 19.3327 13.6667 19.4819 13.6667 19.666V27.3332H18.3333Z" fill="#18202A"/>
</svg>
