<svg width="32" height="32" viewBox="0 0 32 32" fill="none" xmlns="http://www.w3.org/2000/svg">
<path fill-rule="evenodd" clip-rule="evenodd" d="M28.6666 16C28.6666 9.00443 22.9956 3.33337 16 3.33337C9.00437 3.33337 3.33331 9.00443 3.33331 16C3.33331 22.9956 9.00437 28.6667 16 28.6667C22.9956 28.6667 28.6666 22.9956 28.6666 16ZM30.6666 16C30.6666 7.89986 24.1002 1.33337 16 1.33337C7.8998 1.33337 1.33331 7.89987 1.33331 16C1.33331 24.1002 7.8998 30.6667 16 30.6667C24.1002 30.6667 30.6666 24.1002 30.6666 16Z" fill="#18202A"/>
<path fill-rule="evenodd" clip-rule="evenodd" d="M9.95954 18.0405C9.56902 17.65 9.56902 17.0168 9.95954 16.6263L15.2929 11.2929C15.6834 10.9024 16.3166 10.9024 16.7071 11.2929L22.0404 16.6263C22.4309 17.0168 22.4309 17.65 22.0404 18.0405C21.6499 18.431 21.0167 18.431 20.6262 18.0405L16 13.4143L11.3738 18.0405C10.9832 18.431 10.3501 18.431 9.95954 18.0405Z" fill="#18202A"/>
</svg>
