<svg width="32" height="32" viewBox="0 0 32 32" fill="none" xmlns="http://www.w3.org/2000/svg">
<path fill-rule="evenodd" clip-rule="evenodd" d="M13.716 3.07615C14.0897 3.23093 14.3334 3.59557 14.3334 4.00003V9.68405C17.8968 9.80917 21.7137 10.6362 24.7443 12.975C28.1093 15.5719 30.3334 19.8972 30.3334 26.6667C30.3334 27.118 30.0311 27.5133 29.5956 27.6317C29.1602 27.75 28.6994 27.5621 28.4709 27.1729C26.6843 24.129 25.301 22.342 23.2608 21.248C21.3357 20.2157 18.7026 19.7349 14.3334 19.6735V25.3334C14.3334 25.7378 14.0897 26.1025 13.716 26.2572C13.3424 26.412 12.9122 26.3265 12.6262 26.0405L1.95958 15.3738C1.56906 14.9833 1.56906 14.3501 1.95958 13.9596L12.6262 3.29292C12.9122 3.00692 13.3424 2.92137 13.716 3.07615ZM4.0809 14.6667L12.3334 22.9191V18.6667C12.3334 18.1144 12.7811 17.6667 13.3334 17.6667C18.3582 17.6667 21.6736 18.1275 24.2059 19.4854C25.7466 20.3116 26.9457 21.4422 28.0516 22.8852C27.401 18.8294 25.6826 16.2255 23.5224 14.5584C20.7053 12.3843 16.9631 11.6667 13.3334 11.6667C12.7811 11.6667 12.3334 11.219 12.3334 10.6667V6.41424L4.0809 14.6667Z" fill="#18202A"/>
</svg>
