<svg width="32" height="32" viewBox="0 0 32 32" fill="none" xmlns="http://www.w3.org/2000/svg">
<path fill-rule="evenodd" clip-rule="evenodd" d="M16 10.7646L14.5071 13.9286L11.0635 14.4492L13.5593 16.9956L12.9805 20.5198L16 18.8609L19.0195 20.5198L18.4406 16.9952L20.9365 14.4522L17.4926 13.928L16 10.7646ZM14.8353 8.54617C15.3046 7.55149 16.6954 7.55149 17.1647 8.54617L18.8467 12.1111L22.5649 12.677C23.139 12.7644 23.4921 13.1918 23.6124 13.6032C23.7324 14.0136 23.6628 14.5296 23.2877 14.9117L20.5786 17.6721L21.2233 21.5977C21.3041 22.0897 21.1081 22.5603 20.751 22.8485C20.3859 23.1429 19.8349 23.2497 19.335 22.975L16 21.1428L12.665 22.975C12.1651 23.2497 11.6141 23.1429 11.249 22.8485C10.8918 22.5603 10.6959 22.0897 10.7767 21.5977L11.4214 17.6716L8.71158 14.9067C8.33679 14.5243 8.26748 14.0083 8.38782 13.5979C8.50848 13.1865 8.86202 12.7593 9.43628 12.6724L13.1535 12.1105L14.8353 8.54617Z" fill="#18202A"/>
<path fill-rule="evenodd" clip-rule="evenodd" d="M16 28.6668C22.9956 28.6668 28.6666 22.9958 28.6666 16.0002C28.6666 9.00456 22.9956 3.3335 16 3.3335C9.00437 3.3335 3.33331 9.00456 3.33331 16.0002C3.33331 22.9958 9.00437 28.6668 16 28.6668ZM30.6666 16.0002C30.6666 24.1003 24.1002 30.6668 16 30.6668C7.8998 30.6668 1.33331 24.1003 1.33331 16.0002C1.33331 7.89999 7.8998 1.3335 16 1.3335C24.1002 1.3335 30.6666 7.89999 30.6666 16.0002Z" fill="#18202A"/>
</svg>
