<svg width="32" height="32" viewBox="0 0 32 32" fill="none" xmlns="http://www.w3.org/2000/svg">
<path fill-rule="evenodd" clip-rule="evenodd" d="M24.6262 24.6262C25.0168 24.2357 25.6499 24.2357 26.0405 24.6262L28.7071 27.2929C29.0977 27.6834 29.0977 28.3165 28.7071 28.7071C28.3166 29.0976 27.6834 29.0976 27.2929 28.7071L24.6262 26.0404C24.2357 25.6499 24.2357 25.0167 24.6262 24.6262Z" fill="#18202A"/>
<path fill-rule="evenodd" clip-rule="evenodd" d="M14.6667 24.6666C20.1895 24.6666 24.6667 20.1895 24.6667 14.6666C24.6667 9.14378 20.1895 4.66663 14.6667 4.66663C9.14384 4.66663 4.66669 9.14378 4.66669 14.6666C4.66669 20.1895 9.14384 24.6666 14.6667 24.6666ZM26.6667 14.6666C26.6667 21.294 21.2941 26.6666 14.6667 26.6666C8.03927 26.6666 2.66669 21.294 2.66669 14.6666C2.66669 8.03921 8.03927 2.66663 14.6667 2.66663C21.2941 2.66663 26.6667 8.03921 26.6667 14.6666Z" fill="#18202A"/>
</svg>
