<svg width="32" height="32" viewBox="0 0 32 32" fill="none" xmlns="http://www.w3.org/2000/svg">
<path fill-rule="evenodd" clip-rule="evenodd" d="M6.66667 22.6664L14.4178 29.751C16.557 31.7062 20 30.1886 20 27.2906V4.70929C20 1.81127 16.557 0.293679 14.4179 2.24879L6.66667 9.33309H4C1.79086 9.33309 0 11.124 0 13.3331V18.6664C0 20.8756 1.79086 22.6664 4 22.6664H6.66667ZM7.44297 20.6664L15.7671 28.2747C16.6228 29.0568 18 28.4498 18 27.2906V4.70929C18 3.55008 16.6228 2.94305 15.7672 3.72509L7.44294 11.3331H7.33333V20.6664H7.44297ZM5.33333 20.6664V11.3331H4C2.89543 11.3331 2 12.2285 2 13.3331V18.6664C2 19.771 2.89543 20.6664 4 20.6664H5.33333Z" fill="#18202A"/>
<path d="M28.8335 10.1709C28.5742 9.6833 27.9687 9.49819 27.481 9.75747C26.9934 10.0168 26.8083 10.6223 27.0676 11.1099C27.8892 12.655 28.3319 14.4634 28.3319 16.3202C28.3319 18.1771 27.8892 19.9854 27.0676 21.5306C26.8083 22.0182 26.9934 22.6237 27.481 22.883C27.9687 23.1423 28.5742 22.9571 28.8335 22.4695C29.8161 20.6214 30.3319 18.4885 30.3319 16.3202C30.3319 14.152 29.8161 12.019 28.8335 10.1709Z" fill="#18202A"/>
<path d="M24.9107 12.2975C24.6011 11.8401 23.9794 11.7204 23.5221 12.03C23.0647 12.3396 22.945 12.9614 23.2546 13.4187C23.8093 14.2381 24.1252 15.2843 24.1252 16.382C24.1252 17.4796 23.8093 18.5259 23.2546 19.3452C22.945 19.8026 23.0647 20.4243 23.5221 20.7339C23.9794 21.0435 24.6011 20.9238 24.9107 20.4665C25.7048 19.2936 26.1252 17.8512 26.1252 16.382C26.1252 14.9128 25.7048 13.4704 24.9107 12.2975Z" fill="#18202A"/>
</svg>
