<svg width="32" height="32" viewBox="0 0 32 32" fill="none" xmlns="http://www.w3.org/2000/svg">
<path d="M9.33333 5.33317H14.6667C16.8758 5.33317 18.6667 7.12403 18.6667 9.33317C18.6667 10.0695 19.2636 10.6665 20 10.6665C20.7364 10.6665 21.3333 10.0695 21.3333 9.33317C21.3333 5.65127 18.3486 2.6665 14.6667 2.6665H9.33333C5.65143 2.6665 2.66666 5.65127 2.66666 9.33317V22.6665C2.66666 26.3484 5.65143 29.3332 9.33333 29.3332H14.6667C18.3486 29.3332 21.3333 26.3484 21.3333 22.6665C21.3333 21.9301 20.7364 21.3332 20 21.3332C19.2636 21.3332 18.6667 21.9301 18.6667 22.6665C18.6667 24.8756 16.8758 26.6665 14.6667 26.6665H9.33333C7.12419 26.6665 5.33333 24.8756 5.33333 22.6665V9.33317C5.33333 7.12403 7.12419 5.33317 9.33333 5.33317Z" fill="#18202A"/>
<path fill-rule="evenodd" clip-rule="evenodd" d="M23.0572 11.057C23.5779 10.5363 24.4221 10.5363 24.9428 11.057L28.9428 15.057C29.4635 15.5777 29.4635 16.4219 28.9428 16.9426L24.9428 20.9426C24.4221 21.4633 23.5779 21.4633 23.0572 20.9426C22.5365 20.4219 22.5365 19.5777 23.0572 19.057L24.781 17.3332H12C11.2636 17.3332 10.6667 16.7362 10.6667 15.9998C10.6667 15.2635 11.2636 14.6665 12 14.6665H24.781L23.0572 12.9426C22.5365 12.4219 22.5365 11.5777 23.0572 11.057Z" fill="#18202A"/>
</svg>
