<svg width="32" height="32" viewBox="0 0 32 32" fill="none" xmlns="http://www.w3.org/2000/svg">
<g clip-path="url(#clip0_2294_11642)">
<path fill-rule="evenodd" clip-rule="evenodd" d="M6.66667 22.6664L14.4178 29.751C16.557 31.7062 20 30.1886 20 27.2906V4.70929C20 1.81127 16.557 0.293679 14.4179 2.24879L6.66667 9.33309H4C1.79086 9.33309 0 11.124 0 13.3331V18.6664C0 20.8756 1.79086 22.6664 4 22.6664H6.66667ZM7.44297 20.6664L15.7671 28.2747C16.6228 29.0568 18 28.4498 18 27.2906V4.70929C18 3.55008 16.6228 2.94305 15.7672 3.72509L7.44294 11.3331H7.33333V20.6664H7.44297ZM4 11.3331H5.33333V20.6664H4C2.89543 20.6664 2 19.771 2 18.6664V13.3331C2 12.2285 2.89543 11.3331 4 11.3331Z" fill="#18202A"/>
<path d="M22.954 12.7661C22.599 12.343 22.6542 11.7123 23.0772 11.3573C23.5003 11.0023 24.1311 11.0575 24.4861 11.4805L27.3625 14.9085L30.2389 11.4805C30.5939 11.0575 31.2247 11.0023 31.6478 11.3573C32.0709 11.7123 32.126 12.343 31.771 12.7661L28.6679 16.4643L31.771 20.1624C32.126 20.5854 32.0708 21.2162 31.6477 21.5712C31.2247 21.9262 30.5939 21.871 30.2389 21.4479L27.3625 18.02L24.4861 21.4479C24.1311 21.871 23.5003 21.9262 23.0773 21.5712C22.6542 21.2162 22.599 20.5854 22.954 20.1624L26.0571 16.4643L22.954 12.7661Z" fill="#18202A"/>
</g>
<defs>
<clipPath id="clip0_2294_11642">
<rect width="32" height="32" fill="white"/>
</clipPath>
</defs>
</svg>
