<svg width="32" height="32" viewBox="0 0 32 32" fill="none" xmlns="http://www.w3.org/2000/svg">
<g clip-path="url(#clip0_2294_9111)">
<path fill-rule="evenodd" clip-rule="evenodd" d="M20 31.4959V21.3488L20.0002 30.1145C24.8845 28.7329 28.733 24.8844 30.1145 20.0001L23.6863 20H31.4959C31.8249 18.7215 32 17.3812 32 16C32 14.6188 31.8249 13.2785 31.4959 12H20.4723L30.1144 11.9995C28.7328 7.1153 24.8844 3.26692 20.0002 1.88542L20 10.6512V0.504069L19.4483 0.372537C18.3377 0.12858 17.1839 0 16 0L15.4106 0.0106539C14.2371 0.0531472 13.0958 0.22202 12 0.504069V11.5277L11.9995 1.8855C7.11544 3.26707 3.26711 7.1154 1.88554 11.9995L11.5278 11.9999L0.504069 12L0.372537 12.5516C0.12858 13.6623 0 14.8161 0 16C0 17.3812 0.175012 18.7215 0.504069 20H8.31367L1.88546 20.0001C3.26696 24.8843 7.11534 28.7328 11.9995 30.1144L12 20.4722L12.0064 20.4779C12.0167 20.4871 12.027 20.4962 12.0374 20.5054L12.0064 20.4779C11.838 20.3276 11.6782 20.1681 11.5278 19.9999L11.33 19.7674C10.4981 18.7376 10 17.4269 10 16C10 14.4753 10.5688 13.0833 11.5057 12.0248C11.5091 12.0209 11.5126 12.017 11.516 12.0132C11.52 12.0088 11.5238 12.0043 11.5278 11.9999C11.6763 11.8339 11.834 11.6763 12 11.5277L12.2326 11.33C13.2625 10.4981 14.5731 10 16 10L16.3271 10.0088C17.7352 10.0844 19.0144 10.6456 20 11.5278C20.1659 11.6763 20.3235 11.8338 20.4723 12C20.4739 12.0018 20.4754 12.0035 20.477 12.0053L20.5012 12.0326C21.434 13.0901 22 14.479 22 16C22 17.5366 21.4223 18.9385 20.4723 19.9999L20.479 19.9924C20.3282 20.1614 20.1681 20.3217 19.9996 20.4725L19.9983 20.4737L19.7674 20.6701C18.7376 21.5019 17.4269 22 16 22C14.4633 22 13.0615 21.4222 12 20.4722L12 31.4959L12.5516 31.6274C13.6623 31.8714 14.8161 32 16 32L16.5894 31.9893C17.7629 31.9468 18.9041 31.7779 20 31.4959ZM11.5278 19.9999C11.5276 19.9998 11.5279 20.0001 11.5278 19.9999V19.9999ZM17.8272 23.7899L18 23.7453V29.8547L17.7736 29.8889C17.1892 29.9627 16.5973 30 16 30L15.3865 29.9868C14.9789 29.9693 14.5741 29.9343 14.1729 29.8821L14 29.8547V23.7453L14.1728 23.7899C14.7647 23.9283 15.3771 24 16 24C16.623 24 17.2353 23.9283 17.8272 23.7899ZM23.7453 14H29.8547L29.8889 14.2264C29.9627 14.8108 30 15.4027 30 16L29.9876 16.5954C29.9711 16.9911 29.9381 17.384 29.8889 17.7736L29.8547 18H23.7453L23.7899 17.8272C23.9283 17.2353 24 16.623 24 16L23.9914 15.6276C23.9686 15.1329 23.9006 14.6464 23.7899 14.1728L23.7453 14ZM2.144 14H8.25333L8.21013 14.1728C8.07173 14.7647 8 15.377 8 16L8.00841 16.3691C8.03079 16.8594 8.09764 17.3419 8.20654 17.8119L8.25467 18H2.144L2.11106 17.7736C2.0373 17.1893 2 16.5973 2 16L2.01317 15.3865C2.0307 14.9788 2.06571 14.574 2.11793 14.1728L2.144 14ZM14.2263 2.11107C14.8107 2.0373 15.4027 2 16 2L16.6135 2.01317C17.0212 2.0307 17.426 2.06571 17.8272 2.11793L18 2.144V8.25333L17.8272 8.21014C17.2353 8.07174 16.623 8 16 8L15.6309 8.00841C15.1406 8.03079 14.6581 8.09764 14.1881 8.20653L14 8.25333V2.144L14.2263 2.11107Z" fill="#18202A"/>
</g>
<defs>
<clipPath id="clip0_2294_9111">
<rect width="32" height="32" fill="white"/>
</clipPath>
</defs>
</svg>
