<svg width="32" height="32" viewBox="0 0 32 32" fill="none" xmlns="http://www.w3.org/2000/svg">
<path fill-rule="evenodd" clip-rule="evenodd" d="M16 28.6666C9.00437 28.6666 3.33331 22.9956 3.33331 16C3.33331 9.00437 9.00437 3.33331 16 3.33331C22.9956 3.33331 28.6666 9.00437 28.6666 16C28.6666 22.9956 22.9956 28.6666 16 28.6666ZM16 30.6666C7.8998 30.6666 1.33331 24.1002 1.33331 16C1.33331 7.8998 7.8998 1.33331 16 1.33331C24.1002 1.33331 30.6666 7.8998 30.6666 16C30.6666 24.1002 24.1002 30.6666 16 30.6666Z" fill="#18202A"/>
<path fill-rule="evenodd" clip-rule="evenodd" d="M15.3738 9.95954C14.9832 9.56902 14.3501 9.56902 13.9595 9.95954L8.62621 15.2929C8.23568 15.6834 8.23568 16.3166 8.62621 16.7071L13.9595 22.0404C14.3501 22.4309 14.9832 22.4309 15.3738 22.0404C15.7643 21.6499 15.7643 21.0167 15.3738 20.6262L11.7475 17H22.6666C23.2189 17 23.6666 16.5523 23.6666 16C23.6666 15.4477 23.2189 15 22.6666 15H11.7475L15.3738 11.3738C15.7643 10.9832 15.7643 10.3501 15.3738 9.95954Z" fill="#18202A"/>
</svg>
