<svg width="32" height="32" viewBox="0 0 32 32" fill="none" xmlns="http://www.w3.org/2000/svg">
<path fill-rule="evenodd" clip-rule="evenodd" d="M12.9428 23.0575C13.4635 23.5782 13.4635 24.4224 12.9428 24.9431L8.94281 28.9431C8.42211 29.4638 7.57789 29.4638 7.05719 28.9431L3.05719 24.9431C2.53649 24.4224 2.53649 23.5782 3.05719 23.0575C3.57789 22.5368 4.42211 22.5368 4.94281 23.0575L6.66666 24.7814L6.66666 7.21927L4.94281 8.94313C4.42211 9.46383 3.57789 9.46383 3.05719 8.94313C2.53649 8.42243 2.53649 7.57821 3.05719 7.05751L7.05719 3.05752C7.57789 2.53682 8.42211 2.53682 8.94281 3.05752L12.9428 7.05752C13.4635 7.57821 13.4635 8.42243 12.9428 8.94313C12.4221 9.46383 11.5779 9.46383 11.0572 8.94313L9.33333 7.21928L9.33333 24.7814L11.0572 23.0575C11.5779 22.5368 12.4221 22.5368 12.9428 23.0575ZM16 13.3337C16 12.5973 16.5969 12.0003 17.3333 12.0003H28C28.7364 12.0003 29.3333 12.5973 29.3333 13.3337C29.3333 14.07 28.7364 14.667 28 14.667H17.3333C16.597 14.667 16 14.07 16 13.3337ZM17.3333 6.66699C16.5969 6.66699 16 7.26395 16 8.00033C16 8.7367 16.597 9.33366 17.3333 9.33366H28C28.7364 9.33366 29.3333 8.7367 29.3333 8.00033C29.3333 7.26395 28.7364 6.66699 28 6.66699H17.3333ZM16 18.667C16 17.9306 16.5969 17.3337 17.3333 17.3337H28C28.7364 17.3337 29.3333 17.9306 29.3333 18.667C29.3333 19.4034 28.7364 20.0003 28 20.0003H17.3333C16.597 20.0003 16 19.4034 16 18.667ZM28 22.667H17.3333C16.5969 22.667 16 23.2639 16 24.0003C16 24.7367 16.597 25.3337 17.3333 25.3337H28C28.7364 25.3337 29.3333 24.7367 29.3333 24.0003C29.3333 23.2639 28.7364 22.667 28 22.667Z" fill="#18202A"/>
</svg>
