<svg width="32" height="32" viewBox="0 0 32 32" fill="none" xmlns="http://www.w3.org/2000/svg">
<path d="M17.6754 5.66683C19.5115 5.66683 21 7.15528 21 8.99139C21 10.3429 20.1832 11.5512 18.9488 12.0625L18.7267 12.1453L18.3162 12.2822C17.5906 12.524 17.0831 13.1694 17.0093 13.919L17 14.1084V14.6668C17 15.2191 16.5523 15.6668 16 15.6668C15.4937 15.6668 15.0753 15.2906 15.0091 14.8025L15 14.6668V14.1084C15 12.5034 15.9756 11.0695 17.4473 10.4721L17.6838 10.3848L18.0943 10.248C18.6352 10.0677 19 9.56152 19 8.99139C19 8.3121 18.4887 7.75225 17.8299 7.67574L17.6754 7.66683H13.8856C13.3965 7.66683 13 8.06334 13 8.55244C13 8.74035 13.0597 8.9221 13.1686 9.07232L13.2594 9.17867L13.3738 9.29306C13.7643 9.68358 13.7643 10.3167 13.3738 10.7073C13.0187 11.0623 12.4632 11.0946 12.0717 10.8041L11.9595 10.7073L11.8452 10.5929C11.304 10.0517 11 9.31776 11 8.55244C11 7.02806 12.182 5.77974 13.6795 5.67408L13.8856 5.66683H17.6754Z" fill="#18202A"/>
<path d="M17.3333 18.6668C17.3333 17.9305 16.7364 17.3335 16 17.3335C15.2636 17.3335 14.6666 17.9305 14.6666 18.6668C14.6666 19.4032 15.2636 20.0002 16 20.0002C16.7364 20.0002 17.3333 19.4032 17.3333 18.6668Z" fill="#18202A"/>
<path fill-rule="evenodd" clip-rule="evenodd" d="M25.3333 24.0002H17.2121L8.60737 29.1165C7.60986 29.7096 6.38331 28.8335 6.62083 27.6976L7.39392 24.0002H6.66664C6.22417 24.0002 5.79427 23.9463 5.38317 23.8447C3.05761 23.2702 1.33331 21.1699 1.33331 18.6668V6.66683C1.33331 3.72131 3.72113 1.3335 6.66665 1.3335H25.3333C28.2788 1.3335 30.6666 3.72131 30.6666 6.66683V18.6668C30.6666 21.6123 28.2788 24.0002 25.3333 24.0002ZM17.2121 22.0002C16.8523 22.0002 16.4992 22.0972 16.1899 22.2811L8.88892 26.6222L9.35158 24.4095C9.47484 23.82 9.3259 23.2063 8.94612 22.7389C8.56634 22.2715 7.99616 22.0002 7.39392 22.0002H6.66664C4.8257 22.0002 3.33331 20.5078 3.33331 18.6668V6.66683C3.33331 4.82588 4.8257 3.3335 6.66665 3.3335H25.3333C27.1743 3.3335 28.6666 4.82588 28.6666 6.66683V18.6668C28.6666 20.5078 27.1743 22.0002 25.3333 22.0002H17.2121Z" fill="#18202A"/>
</svg>
