<svg width="32" height="32" viewBox="0 0 32 32" fill="none" xmlns="http://www.w3.org/2000/svg">
<path d="M4.66669 6.33325C4.66669 5.78097 4.21897 5.33325 3.66669 5.33325C3.1144 5.33325 2.66669 5.78097 2.66669 6.33325V25.6666C2.66669 26.2189 3.1144 26.6666 3.66669 26.6666C4.21897 26.6666 4.66669 26.2189 4.66669 25.6666V16.6666L16.6667 16.6666V25.6666C16.6667 26.2189 17.1144 26.6666 17.6667 26.6666C18.219 26.6666 18.6667 26.2189 18.6667 25.6666V6.33325C18.6667 5.78097 18.219 5.33325 17.6667 5.33325C17.1144 5.33325 16.6667 5.78097 16.6667 6.33325V14.6666L4.66669 14.6666V6.33325Z" fill="#18202A"/>
<path d="M28 15.6666C28 15.2717 27.7676 14.9138 27.4069 14.7531C27.0461 14.5924 26.6246 14.6591 26.3311 14.9233L22.9977 17.9233C22.5872 18.2928 22.5539 18.9251 22.9234 19.3356C23.2929 19.7461 23.9252 19.7794 24.3357 19.4099L26 17.912V25.6666C26 26.2189 26.4477 26.6666 27 26.6666C27.5523 26.6666 28 26.2189 28 25.6666V15.6666Z" fill="#18202A"/>
</svg>
