<svg width="32" height="32" viewBox="0 0 32 32" fill="none" xmlns="http://www.w3.org/2000/svg">
<g clip-path="url(#clip0_2294_9453)">
<path fill-rule="evenodd" clip-rule="evenodd" d="M14.6667 1.33301H9.33333C6.38781 1.33301 4 3.72082 4 6.66634V25.333C4 28.2785 6.38781 30.6663 9.33333 30.6663H15.0161C13.9281 29.1081 13.3333 27.243 13.3333 25.3165C13.3333 23.0077 14.188 20.782 15.7777 19.0158L16.0701 18.7088L20.1126 14.6663H17.3333H14.6667V11.9997V1.33301ZM27.7605 11.9997H25.915L25.9112 11.9997L25.9074 11.9997H17.3333V1.57253C17.6213 1.70357 17.8864 1.88603 18.1144 2.11406L27.219 11.2186C27.447 11.4466 27.6294 11.7117 27.7605 11.9997ZM27.8653 15.0393C27.2712 14.7931 26.6344 14.6663 25.9912 14.6663C25.3481 14.6663 24.7112 14.7931 24.1171 15.0393C23.523 15.2856 22.9832 15.6465 22.5287 16.1015L18.0357 20.5944L17.7927 20.8507C16.6928 22.0737 16.08 23.6635 16.08 25.3165C16.08 27.0876 16.7834 28.7861 18.0357 30.0385C19.2883 31.291 20.9868 31.9945 22.7579 31.9945C24.529 31.9945 26.2275 31.291 27.48 30.0387L31.6133 25.9053L31.7243 25.7797C32.131 25.2567 32.094 24.5004 31.6133 24.0197C31.0926 23.499 30.2484 23.499 29.7277 24.0197L25.5944 28.153L25.4009 28.3341C24.6717 28.9727 23.7331 29.3278 22.7579 29.3278C21.694 29.3278 20.6737 28.9052 19.9213 28.1529C19.1692 27.4007 18.7467 26.3804 18.7467 25.3165C18.7467 24.2526 19.1692 23.2323 19.9215 22.4799L24.4147 17.9867L24.5772 17.8393C24.7464 17.7003 24.9353 17.5869 25.1381 17.5028C25.4086 17.3907 25.6985 17.333 25.9912 17.333C26.284 17.333 26.5739 17.3907 26.8443 17.5028C27.1147 17.6149 27.3604 17.7792 27.5673 17.9863C27.9855 18.4046 28.2203 18.9718 28.2203 19.5632C28.2203 20.1546 27.9855 20.7217 27.5674 21.14L23.4344 25.2731L23.3663 25.3291L23.2889 25.3705C23.2347 25.393 23.1766 25.4046 23.1179 25.4046C23.0592 25.4046 23.0011 25.393 22.9468 25.3705C22.8926 25.348 22.8433 25.3151 22.8019 25.2736C22.7593 25.2311 22.7264 25.1818 22.7039 25.1276C22.6814 25.0733 22.6698 25.0152 22.6698 24.9565C22.6698 24.8978 22.6814 24.8397 22.7039 24.7855C22.7264 24.7313 22.7593 24.682 22.8008 24.6405L25.8602 21.5798L25.9711 21.4542C26.3777 20.931 26.3406 20.1747 25.8598 19.6942C25.339 19.1736 24.4948 19.1738 23.9742 19.6946L20.9155 22.7546L20.7495 22.9341C20.5379 23.1817 20.3658 23.462 20.2405 23.7643C20.0838 24.1423 20.0032 24.5474 20.0032 24.9565C20.0032 25.3657 20.0838 25.7708 20.2405 26.1487C20.3972 26.5267 20.6268 26.87 20.9162 27.1592C21.2044 27.4476 21.5477 27.6772 21.9257 27.8339C22.3037 27.9906 22.7088 28.0712 23.1179 28.0712C23.527 28.0712 23.9321 27.9906 24.3101 27.8339C24.688 27.6772 25.0314 27.4476 25.3205 27.1582L29.4534 23.0253L29.658 22.8077C30.4477 21.9148 30.8869 20.7617 30.8869 19.5632C30.8869 18.2649 30.3714 17.0197 29.4537 16.1013C28.9992 15.6465 28.4594 15.2856 27.8653 15.0393Z" fill="#18202A"/>
</g>
<defs>
<clipPath id="clip0_2294_9453">
<rect width="32" height="32" fill="white"/>
</clipPath>
</defs>
</svg>
