<svg width="32" height="32" viewBox="0 0 32 32" fill="none" xmlns="http://www.w3.org/2000/svg">
<path d="M24.7986 3.14191L23.8186 4.1219L27.8779 8.1812L28.8579 7.20121C29.1623 6.89671 29.3333 6.48379 29.3333 6.05324C29.3333 5.62268 29.1623 5.20976 28.8579 4.90527L27.0945 3.14191C26.79 2.83751 26.3771 2.6665 25.9466 2.6665C25.516 2.6665 25.1031 2.83751 24.7986 3.14191Z" fill="#18202A"/>
<path d="M26.7297 9.32935L22.6704 5.27005L13.9083 14.0322L13.3429 17.7317C13.2601 18.2733 13.7265 18.7397 14.2681 18.6569L17.9676 18.0915L26.7297 9.32935Z" fill="#18202A"/>
<path d="M16 6.6665C16 5.93012 15.403 5.33317 14.6666 5.33317H6.66663C4.45749 5.33317 2.66663 7.12403 2.66663 9.33317V25.3332C2.66663 27.5423 4.45749 29.3332 6.66663 29.3332H22.6666C24.8758 29.3332 26.6666 27.5423 26.6666 25.3332V17.3332C26.6666 16.5968 26.0697 15.9998 25.3333 15.9998C24.5969 15.9998 24 16.5968 24 17.3332V25.3332C24 26.0695 23.403 26.6665 22.6666 26.6665H6.66663C5.93025 26.6665 5.33329 26.0695 5.33329 25.3332V9.33317C5.33329 8.59679 5.93025 7.99984 6.66663 7.99984H14.6666C15.403 7.99984 16 7.40288 16 6.6665Z" fill="#18202A"/>
</svg>
