<svg width="32" height="32" viewBox="0 0 32 32" fill="none" xmlns="http://www.w3.org/2000/svg">
<path d="M18.6667 15.9999C18.6667 17.4727 17.4728 18.6666 16 18.6666C14.5272 18.6666 13.3333 17.4727 13.3333 15.9999C13.3333 14.5272 14.5272 13.3333 16 13.3333C17.4728 13.3333 18.6667 14.5272 18.6667 15.9999Z" fill="#18202A"/>
<path fill-rule="evenodd" clip-rule="evenodd" d="M12.4895 2.42519C12.606 1.79254 13.1575 1.33325 13.8008 1.33325H18.1802C18.8235 1.33325 19.3751 1.79254 19.4915 2.42519L19.9008 4.64815C21.373 5.15392 22.7158 5.93803 23.8664 6.93763L25.996 6.18058C26.6022 5.96511 27.2757 6.21313 27.5973 6.77023L29.787 10.5629C30.1087 11.12 29.9867 11.8273 29.4971 12.2445L27.7811 13.7065C27.9248 14.4488 28 15.2156 28 15.9999C28 16.7842 27.9248 17.551 27.7811 18.2933L29.4971 19.7553C29.9867 20.1725 30.1087 20.8798 29.7871 21.4369L27.5974 25.2296C27.2757 25.7867 26.6022 26.0347 25.9961 25.8192L23.8664 25.0622C22.7158 26.0618 21.373 26.8459 19.9008 27.3517L19.4915 29.5747C19.3751 30.2073 18.8235 30.6666 18.1802 30.6666H13.8008C13.1575 30.6666 12.606 30.2073 12.4895 29.5747L12.079 27.3447C10.6124 26.8379 9.27466 26.0547 8.12813 25.0574L5.98493 25.8192C5.37881 26.0347 4.70527 25.7867 4.38363 25.2296L2.19392 21.4369C1.87228 20.8798 1.99426 20.1725 2.48391 19.7553L4.21624 18.2794C4.07433 17.5414 4.00002 16.7793 4.00002 15.9999C4.00002 15.2205 4.07433 14.4584 4.21625 13.7204L2.48395 12.2445C1.99429 11.8273 1.87232 11.12 2.19396 10.5629L4.38367 6.77023C4.70531 6.21313 5.37885 5.96511 5.98497 6.18058L8.12816 6.94243C9.27468 5.94514 10.6124 5.16195 12.079 4.65514L12.4895 2.42519ZM21.3333 15.9999C21.3333 18.9454 18.9455 21.3333 16 21.3333C13.0545 21.3333 10.6667 18.9454 10.6667 15.9999C10.6667 13.0544 13.0545 10.6666 16 10.6666C18.9455 10.6666 21.3333 13.0544 21.3333 15.9999Z" fill="#18202A"/>
</svg>
