<svg width="32" height="32" viewBox="0 0 32 32" fill="none" xmlns="http://www.w3.org/2000/svg">
<path fill-rule="evenodd" clip-rule="evenodd" d="M20 6.66699C20 8.40862 18.8869 9.89027 17.3333 10.4394V14.667H26C27.1046 14.667 28 15.5624 28 16.667V17.3337V21.5613C29.5536 22.1104 30.6667 23.592 30.6667 25.3337C30.6667 27.5428 28.8758 29.3337 26.6667 29.3337C24.4575 29.3337 22.6667 27.5428 22.6667 25.3337C22.6667 23.592 23.7797 22.1104 25.3333 21.5613V17.3337H17.3333V21.5613C18.8869 22.1104 20 23.592 20 25.3337C20 27.5428 18.2091 29.3337 16 29.3337C13.7909 29.3337 12 27.5428 12 25.3337C12 23.592 13.1131 22.1104 14.6667 21.5613V17.3337H6.66666V21.5613C8.22025 22.1104 9.33333 23.592 9.33333 25.3337C9.33333 27.5428 7.54247 29.3337 5.33333 29.3337C3.12419 29.3337 1.33333 27.5428 1.33333 25.3337C1.33333 23.592 2.44641 22.1104 3.99999 21.5613V17.3337V16.667C3.99999 15.5624 4.89543 14.667 5.99999 14.667H14.6667V10.4394C13.1131 9.89027 12 8.40862 12 6.66699C12 4.45785 13.7909 2.66699 16 2.66699C18.2091 2.66699 20 4.45785 20 6.66699Z" fill="#18202A"/>
</svg>
