<svg width="32" height="32" viewBox="0 0 32 32" fill="none" xmlns="http://www.w3.org/2000/svg">
<g clip-path="url(#clip0_2547_8348)">
<path d="M16 15.9999C18.6667 15.9999 20 13.3333 20 9.99992C20 7.33325 18.6667 5.33325 16 5.33325C13.3333 5.33325 12 7.33325 12 9.99992C12 13.3333 13.3333 15.9999 16 15.9999Z" fill="#18202A"/>
<path d="M16.8905 29.317C16.3193 28.1088 16 26.7583 16 25.3333C16 22.3045 17.4426 19.6127 19.6783 17.9075C18.5192 17.5346 17.2831 17.3333 16 17.3333C13.6212 17.3333 11.404 18.0254 9.53898 19.2193C7.79266 20.3373 7.20836 22.5649 7.90649 24.5173C8.11065 25.0883 8.33847 25.648 8.58875 26.1953C9.29803 27.7464 10.7543 28.8205 12.4413 29.0712C13.6025 29.2438 14.7908 29.3333 16 29.3333C16.2981 29.3333 16.595 29.3278 16.8905 29.317Z" fill="#18202A"/>
<path d="M6.66667 15.9999C8.44444 15.9999 9.33333 14.3333 9.33333 12.2499C9.33333 10.5833 8.44444 9.33325 6.66667 9.33325C4.88889 9.33325 4 10.5833 4 12.2499C4 14.3333 4.88889 15.9999 6.66667 15.9999Z" fill="#18202A"/>
<path d="M25.3333 15.9999C27.1111 15.9999 28 14.3333 28 12.2499C28 10.5833 27.1111 9.33325 25.3333 9.33325C23.5556 9.33325 22.6667 10.5833 22.6667 12.2499C22.6667 14.3333 23.5556 15.9999 25.3333 15.9999Z" fill="#18202A"/>
<path d="M5.39552 25.4154C4.6122 23.2247 4.86131 20.6547 6.26458 18.7063C4.9917 18.8155 3.78267 19.1482 2.67693 19.665C1.12085 20.3924 0.492953 22.2293 1.0183 23.8647C1.47794 25.2955 2.72611 26.3007 4.21763 26.4848C4.76235 26.5521 5.31273 26.6011 5.86813 26.6312C5.69998 26.2313 5.54233 25.826 5.39552 25.4154Z" fill="#18202A"/>
<path fill-rule="evenodd" clip-rule="evenodd" d="M25.3333 31.9999C29.0152 31.9999 32 29.0152 32 25.3333C32 21.6514 29.0152 18.6666 25.3333 18.6666C21.6514 18.6666 18.6666 21.6514 18.6666 25.3333C18.6666 29.0152 21.6514 31.9999 25.3333 31.9999ZM29.4259 23.984C29.7853 23.5647 29.7367 22.9334 29.3174 22.574C28.8981 22.2146 28.2668 22.2631 27.9073 22.6825L24.5171 26.6378L22.5999 25.1999C22.1581 24.8685 21.5313 24.9581 21.1999 25.3999C20.8686 25.8417 20.9581 26.4685 21.3999 26.7999L24.0666 28.7999C24.4882 29.1161 25.0829 29.0509 25.4259 28.6507L29.4259 23.984Z" fill="#18202A"/>
</g>
<defs>
<clipPath id="clip0_2547_8348">
<rect width="32" height="32" fill="white"/>
</clipPath>
</defs>
</svg>
