<svg width="32" height="32" viewBox="0 0 32 32" fill="none" xmlns="http://www.w3.org/2000/svg">
<path fill-rule="evenodd" clip-rule="evenodd" d="M21.3634 8.6161C21.7596 9.00092 21.7688 9.63402 21.3839 10.0302L8.43155 23.3635C8.23838 23.5623 7.97133 23.6721 7.69415 23.6665C7.41698 23.6609 7.15455 23.5405 6.96954 23.3341L2.58859 18.4452C2.22001 18.0339 2.25466 17.4017 2.66596 17.0331C3.07727 16.6645 3.70948 16.6992 4.07806 17.1105L7.74377 21.2012L19.9494 8.63659C20.3342 8.24045 20.9673 8.23127 21.3634 8.6161Z" fill="#18202A"/>
<path fill-rule="evenodd" clip-rule="evenodd" d="M29.3634 8.6161C29.7596 9.00092 29.7688 9.63402 29.3839 10.0302L16.4316 23.3635C16.2335 23.5674 15.958 23.6774 15.6739 23.6659C15.3899 23.6544 15.1241 23.5226 14.9431 23.3034L13.52 21.5797C13.1684 21.1538 13.2286 20.5235 13.6544 20.1719C14.0803 19.8203 14.7106 19.8805 15.0623 20.3063L15.7747 21.1693L27.9494 8.63659C28.3342 8.24045 28.9673 8.23127 29.3634 8.6161Z" fill="#18202A"/>
</svg>
