<svg width="32" height="32" viewBox="0 0 32 32" fill="none" xmlns="http://www.w3.org/2000/svg">
<path d="M27.9986 7.54499C27.0047 6.137 25.7627 4.90407 24.3195 3.91276C21.44 1.93477 17.9488 1.04859 14.4739 1.41363C10.999 1.77866 7.76847 3.37094 5.36333 5.90407C2.95819 8.4372 1.53632 11.7449 1.35345 15.2323C1.17059 18.7197 2.23873 22.1579 4.36577 24.9284C6.49281 27.6989 9.53913 29.62 12.9568 30.3461C16.3745 31.0721 19.9393 30.5555 23.0099 28.8892C25.6526 27.4551 27.7801 25.2503 29.12 22.5853C29.4806 21.8678 29.0997 21.0227 28.3497 20.735C27.6002 20.4475 26.7671 20.8269 26.3879 21.5341C24.4097 25.2237 20.5149 27.7332 16.0336 27.7332C9.55002 27.7332 4.29403 22.48 4.29403 15.9999C4.29403 9.51979 9.55002 4.26661 16.0336 4.26661C20.5957 4.26661 24.55 6.86747 26.4931 10.6666H19.9943C19.2575 10.6666 18.6603 11.2635 18.6603 11.9999C18.6603 12.7363 19.2575 13.3332 19.9943 13.3332H29.3326C30.0694 13.3332 30.6667 12.7363 30.6667 11.9999V2.66658C30.6667 1.9302 30.0694 1.33325 29.3326 1.33325C28.5958 1.33325 27.9986 1.9302 27.9986 2.66658V7.54499Z" fill="#18202A"/>
</svg>
