<svg width="32" height="32" viewBox="0 0 32 32" fill="none" xmlns="http://www.w3.org/2000/svg">
<path d="M3.33331 3.33301C3.33331 2.22844 2.43788 1.33301 1.33331 1.33301V30.6663H30.6666C30.6666 29.5618 29.7712 28.6663 28.6666 28.6663H3.33331V3.33301Z" fill="#18202A"/>
<path d="M24.6666 6.66634C24.6666 5.56177 25.5621 4.66634 26.6666 4.66634C27.7712 4.66634 28.6666 5.56177 28.6666 6.66634C28.6666 7.77091 27.7712 8.66634 26.6666 8.66634C26.3711 8.66634 26.0905 8.60222 25.838 8.48714L19.3241 13.1399C19.3302 13.2035 19.3333 13.2679 19.3333 13.333C19.3333 14.4376 18.4379 15.333 17.3333 15.333C16.492 15.333 15.7721 14.8136 15.4766 14.0779L9.5733 13.2346C9.20713 13.7005 8.6385 13.9997 7.99998 13.9997C6.89541 13.9997 5.99998 13.1042 5.99998 11.9997C5.99998 10.8951 6.89541 9.99967 7.99998 9.99967C8.84126 9.99967 9.56123 10.5191 9.85665 11.2548L15.76 12.0981C16.1262 11.6322 16.6948 11.333 17.3333 11.333C17.6289 11.333 17.9095 11.3971 18.162 11.5122L24.6758 6.85944C24.6698 6.79589 24.6666 6.73148 24.6666 6.66634Z" fill="#18202A"/>
<path fill-rule="evenodd" clip-rule="evenodd" d="M6.66665 15.9997C5.93027 15.9997 5.33331 16.5966 5.33331 17.333V25.333C5.33331 26.0694 5.93027 26.6663 6.66665 26.6663H9.33331C10.0697 26.6663 10.6666 26.0694 10.6666 25.333V17.333C10.6666 16.5966 10.0697 15.9997 9.33331 15.9997H6.66665ZM7.33331 17.9997V24.6663H8.66665V17.9997H7.33331Z" fill="#18202A"/>
<path fill-rule="evenodd" clip-rule="evenodd" d="M14.6666 18.6663C14.6666 17.93 15.2636 17.333 16 17.333H18.6666C19.403 17.333 20 17.93 20 18.6663V25.333C20 26.0694 19.403 26.6663 18.6666 26.6663H16C15.2636 26.6663 14.6666 26.0694 14.6666 25.333V18.6663ZM16.6666 24.6663V19.333H18V24.6663H16.6666Z" fill="#18202A"/>
<path fill-rule="evenodd" clip-rule="evenodd" d="M25.3333 10.6663C24.5969 10.6663 24 11.2633 24 11.9997V25.333C24 26.0694 24.5969 26.6663 25.3333 26.6663H28C28.7364 26.6663 29.3333 26.0694 29.3333 25.333V11.9997C29.3333 11.2633 28.7364 10.6663 28 10.6663H25.3333ZM26 12.6663V24.6663H27.3333V12.6663H26Z" fill="#18202A"/>
</svg>
