<svg width="32" height="32" viewBox="0 0 32 32" fill="none" xmlns="http://www.w3.org/2000/svg">
<path d="M1.33333 10.6667C1.33333 8.45755 3.12419 6.66669 5.33333 6.66669H26.6667C28.8758 6.66669 30.6667 8.45755 30.6667 10.6667V14.6667H1.33333V10.6667Z" fill="#18202A"/>
<path fill-rule="evenodd" clip-rule="evenodd" d="M15.5297 3.01575C16.5363 4.54186 17.0762 6.58214 17.3074 7.73833L17.5072 8.73695L16.5963 9.19238C13.4075 10.7868 10.4758 9.90007 8.93713 7.9805C8.1909 7.04955 7.77019 5.85827 7.89881 4.64891C8.03153 3.401 8.73739 2.26905 9.98073 1.52313C11.0943 0.855023 12.2406 0.694209 13.3112 1.09493C14.3076 1.46792 15.0248 2.25032 15.5297 3.01575ZM12.3763 3.59237C12.2038 3.5278 11.9057 3.47804 11.3526 3.80984C10.7881 4.14848 10.5901 4.55881 10.5505 4.93093C10.5068 5.34159 10.6454 5.84806 11.0178 6.31264C11.6064 7.04684 12.7941 7.65605 14.4361 7.18858C14.1826 6.27439 13.8061 5.24578 13.3036 4.48403C12.9474 3.94393 12.6229 3.68468 12.3763 3.59237Z" fill="#18202A"/>
<path fill-rule="evenodd" clip-rule="evenodd" d="M16.4703 3.01575C15.4637 4.54186 14.9238 6.58214 14.6925 7.73833L14.4928 8.73695L15.4037 9.19238C18.5925 10.7868 21.5242 9.90007 23.0629 7.9805C23.8091 7.04955 24.2298 5.85827 24.1012 4.64891C23.9685 3.401 23.2626 2.26905 22.0193 1.52313C20.9056 0.855023 19.7594 0.694209 18.6888 1.09493C17.6924 1.46792 16.9752 2.25032 16.4703 3.01575ZM19.6237 3.59237C19.7962 3.5278 20.0943 3.47804 20.6474 3.80984C21.2118 4.14848 21.4099 4.55881 21.4495 4.93093C21.4931 5.34159 21.3545 5.84806 20.9822 6.31264C20.3936 7.04684 19.2059 7.65605 17.5639 7.18858C17.8174 6.27439 18.1939 5.24578 18.6963 4.48403C19.0526 3.94393 19.3771 3.68468 19.6237 3.59237Z" fill="#18202A"/>
<path d="M2.66666 17.3334H14.6667V30.6667H6.66666C4.45752 30.6667 2.66666 28.8758 2.66666 26.6667V17.3334Z" fill="#18202A"/>
<path d="M17.3333 17.3334H29.3333V26.6667C29.3333 28.8758 27.5425 30.6667 25.3333 30.6667H17.3333V17.3334Z" fill="#18202A"/>
</svg>
