<svg width="32" height="32" viewBox="0 0 32 32" fill="none" xmlns="http://www.w3.org/2000/svg">
<path fill-rule="evenodd" clip-rule="evenodd" d="M4 7.99935C4 5.05383 6.38781 2.66602 9.33333 2.66602H22.6667C25.6122 2.66602 28 5.05383 28 7.99935V23.9993C28 26.9449 25.6122 29.3327 22.6667 29.3327H9.33333C6.38781 29.3327 4 26.9449 4 23.9993V7.99935ZM12 26.666V21.3333C12 19.8606 13.1939 18.6667 14.6667 18.6667H17.3333C18.8061 18.6667 20 19.8606 20 21.3333V26.666H12ZM9.33333 9.33268C9.33333 8.5963 9.93029 7.99935 10.6667 7.99935C11.403 7.99935 12 8.5963 12 9.33268C12 10.0691 11.403 10.666 10.6667 10.666C9.93029 10.666 9.33333 10.0691 9.33333 9.33268ZM10.6667 11.9993C9.93029 11.9993 9.33333 12.5963 9.33333 13.3327C9.33333 14.0691 9.93029 14.666 10.6667 14.666C11.403 14.666 12 14.0691 12 13.3327C12 12.5963 11.403 11.9993 10.6667 11.9993ZM14.6667 9.33268C14.6667 8.5963 15.2636 7.99935 16 7.99935C16.7364 7.99935 17.3333 8.5963 17.3333 9.33268C17.3333 10.0691 16.7364 10.666 16 10.666C15.2636 10.666 14.6667 10.0691 14.6667 9.33268ZM16 11.9993C15.2636 11.9993 14.6667 12.5963 14.6667 13.3327C14.6667 14.0691 15.2636 14.666 16 14.666C16.7364 14.666 17.3333 14.0691 17.3333 13.3327C17.3333 12.5963 16.7364 11.9993 16 11.9993ZM20 9.33268C20 8.5963 20.597 7.99935 21.3333 7.99935C22.0697 7.99935 22.6667 8.5963 22.6667 9.33268C22.6667 10.0691 22.0697 10.666 21.3333 10.666C20.597 10.666 20 10.0691 20 9.33268ZM21.3333 11.9993C20.597 11.9993 20 12.5963 20 13.3327C20 14.0691 20.597 14.666 21.3333 14.666C22.0697 14.666 22.6667 14.0691 22.6667 13.3327C22.6667 12.5963 22.0697 11.9993 21.3333 11.9993Z" fill="#18202A"/>
</svg>
