<svg width="32" height="32" viewBox="0 0 32 32" fill="none" xmlns="http://www.w3.org/2000/svg">
<path fill-rule="evenodd" clip-rule="evenodd" d="M26.2727 2.73704C25.3233 1.86535 24.0571 1.33325 22.6667 1.33325H9.33333C6.38781 1.33325 4 3.72107 4 6.66659V25.3333C4 28.2788 6.38781 30.6666 9.33333 30.6666H22.6667C25.6122 30.6666 28 28.2788 28 25.3333V12.3234L24.1618 16.1617C22.5997 17.7238 20.067 17.7238 18.5049 16.1617L14.5049 12.1617C12.9428 10.5996 12.9428 8.06692 14.5049 6.50483C16.067 4.94273 18.5997 4.94273 20.1618 6.50483L21.3333 7.6764L26.2727 2.73704ZM8 18.6666C8 17.9302 8.59695 17.3333 9.33333 17.3333H14.6667C15.403 17.3333 16 17.9302 16 18.6666C16 19.403 15.403 19.9999 14.6667 19.9999H9.33333C8.59695 19.9999 8 19.403 8 18.6666ZM9.33333 22.6666C8.59695 22.6666 8 23.2635 8 23.9999C8 24.7363 8.59695 25.3333 9.33333 25.3333H22.6667C23.403 25.3333 24 24.7363 24 23.9999C24 23.2635 23.403 22.6666 22.6667 22.6666H9.33333ZM30.2761 6.27606C30.7968 5.75536 30.7968 4.91114 30.2761 4.39044C29.7554 3.86974 28.9112 3.86974 28.3905 4.39044L21.3333 11.4476L18.2761 8.39044C17.7554 7.86974 16.9112 7.86974 16.3905 8.39044C15.8698 8.91114 15.8698 9.75536 16.3905 10.2761L20.3905 14.2761C20.9112 14.7968 21.7554 14.7968 22.2761 14.2761L30.2761 6.27606Z" fill="#18202A"/>
</svg>
