<svg width="32" height="32" viewBox="0 0 32 32" fill="none" xmlns="http://www.w3.org/2000/svg">
<path d="M9.33333 16.0002C9.33333 17.4729 8.13943 18.6668 6.66667 18.6668C5.19391 18.6668 4 17.4729 4 16.0002C4 14.5274 5.19391 13.3335 6.66667 13.3335C8.13943 13.3335 9.33333 14.5274 9.33333 16.0002Z" fill="#18202A"/>
<path d="M18.6667 16.0002C18.6667 17.4729 17.4728 18.6668 16 18.6668C14.5272 18.6668 13.3333 17.4729 13.3333 16.0002C13.3333 14.5274 14.5272 13.3335 16 13.3335C17.4728 13.3335 18.6667 14.5274 18.6667 16.0002Z" fill="#18202A"/>
<path d="M28 16.0002C28 17.4729 26.8061 18.6668 25.3333 18.6668C23.8606 18.6668 22.6667 17.4729 22.6667 16.0002C22.6667 14.5274 23.8606 13.3335 25.3333 13.3335C26.8061 13.3335 28 14.5274 28 16.0002Z" fill="#18202A"/>
</svg>
