<svg width="32" height="32" viewBox="0 0 32 32" fill="none" xmlns="http://www.w3.org/2000/svg">
<path fill-rule="evenodd" clip-rule="evenodd" d="M6.00002 2H10V6.75639C9.79571 6.85951 9.59442 6.96774 9.39631 7.0809L6.00002 4.46617V2ZM7.65674 8.2657L4.51998 5.85077C4.19212 5.59835 4.00002 5.20803 4.00002 4.79427V1.33333C4.00002 0.596954 4.59697 0 5.33335 0H26.6667C27.4031 0 28 0.596954 28 1.33333V4.79427C28 5.20803 27.8079 5.59836 27.4801 5.85077L24.3433 8.2657C27.3858 10.7094 29.3334 14.4606 29.3334 18.6667C29.3334 26.0305 23.3638 32 16 32C8.63622 32 2.66669 26.0305 2.66669 18.6667C2.66669 14.4606 4.61423 10.7094 7.65674 8.2657ZM22.6037 7.0809L26 4.46617V2H22V6.75639C22.2043 6.85951 22.4056 6.96774 22.6037 7.0809ZM18 5.48233V2H14V5.48233C14.6524 5.3842 15.3203 5.33333 16 5.33333C16.6798 5.33333 17.3476 5.3842 18 5.48233ZM27.3334 18.6667C27.3334 24.9259 22.2592 30 16 30C9.74079 30 4.66669 24.9259 4.66669 18.6667C4.66669 12.4074 9.74079 7.33333 16 7.33333C22.2592 7.33333 27.3334 12.4074 27.3334 18.6667ZM16 26C20.0501 26 23.3334 22.7168 23.3334 18.6667C23.3334 14.6166 20.0501 11.3333 16 11.3333C11.9499 11.3333 8.66669 14.6166 8.66669 18.6667C8.66669 22.7168 11.9499 26 16 26ZM16 28C21.1547 28 25.3334 23.8213 25.3334 18.6667C25.3334 13.512 21.1547 9.33333 16 9.33333C10.8454 9.33333 6.66669 13.512 6.66669 18.6667C6.66669 23.8213 10.8454 28 16 28ZM17.5006 16.2716L16.3848 13.9205C16.2242 13.5821 15.7759 13.5821 15.6153 13.9205L14.4994 16.2716C14.4353 16.4067 14.3142 16.4997 14.1749 16.5209L11.7058 16.8963C11.3464 16.9509 11.2056 17.4302 11.4702 17.6982L13.2356 19.4865C13.3421 19.5944 13.3909 19.753 13.3653 19.9083L12.946 22.4508C12.8835 22.8296 13.249 23.1225 13.5671 22.9486L15.8046 21.7248C15.9274 21.6576 16.0726 21.6576 16.1955 21.7248L18.433 22.9486C18.751 23.1225 19.1165 22.8296 19.054 22.4508L18.6347 19.9083C18.6091 19.753 18.6579 19.5944 18.7645 19.4865L20.5298 17.6982C20.7944 17.4302 20.6536 16.9509 20.2942 16.8963L17.8251 16.5209C17.6858 16.4997 17.5648 16.4067 17.5006 16.2716Z" fill="#18202A"/>
</svg>
