<svg width="32" height="32" viewBox="0 0 32 32" fill="none" xmlns="http://www.w3.org/2000/svg">
<path d="M9.33334 3.66677C9.33334 3.27186 9.10093 2.91393 8.74018 2.75327C8.37943 2.5926 7.95791 2.65929 7.66438 2.92347L4.33104 5.92347C3.92053 6.29293 3.88726 6.92522 4.25671 7.33573C4.62617 7.74624 5.25846 7.77952 5.66897 7.41006L7.33334 5.91213V12.3336C7.33334 12.8859 7.78106 13.3336 8.33334 13.3336C8.88563 13.3336 9.33334 12.8859 9.33334 12.3336V3.66677Z" fill="#18202A"/>
<path d="M6.00003 19.3334C6.00003 18.9658 6.46863 18.0001 8.00003 18.0001C9.53143 18.0001 10 18.9658 10 19.3334C10 20.521 9.35026 21.2356 7.95959 22.6263L4.29292 26.293C4.00692 26.579 3.92137 27.0091 4.07615 27.3828C4.23093 27.7564 4.59557 28.0001 5.00003 28.0001H11C11.5523 28.0001 12 27.5524 12 27.0001C12 26.4478 11.5523 26.0001 11 26.0001H7.41424L9.48295 23.9315C10.7256 22.6906 12 21.418 12 19.3334C12 17.701 10.4686 16.0001 8.00003 16.0001C5.53143 16.0001 4.00003 17.701 4.00003 19.3334C4.00003 19.8857 4.44774 20.3334 5.00003 20.3334C5.55231 20.3334 6.00003 19.8857 6.00003 19.3334Z" fill="#18202A"/>
<path d="M14.6667 6.33341C14.6667 5.78113 15.1144 5.33341 15.6667 5.33341H28.3333C28.8856 5.33341 29.3333 5.78113 29.3333 6.33341C29.3333 6.8857 28.8856 7.33341 28.3333 7.33341H15.6667C15.1144 7.33341 14.6667 6.8857 14.6667 6.33341Z" fill="#18202A"/>
<path d="M15.6667 10.0001C15.1144 10.0001 14.6667 10.4478 14.6667 11.0001C14.6667 11.5524 15.1144 12.0001 15.6667 12.0001H28.3333C28.8856 12.0001 29.3333 11.5524 29.3333 11.0001C29.3333 10.4478 28.8856 10.0001 28.3333 10.0001H15.6667Z" fill="#18202A"/>
<path d="M14.6667 21.0001C14.6667 20.4478 15.1144 20.0001 15.6667 20.0001H28.3333C28.8856 20.0001 29.3333 20.4478 29.3333 21.0001C29.3333 21.5524 28.8856 22.0001 28.3333 22.0001H15.6667C15.1144 22.0001 14.6667 21.5524 14.6667 21.0001Z" fill="#18202A"/>
<path d="M15.6667 24.6667C15.1144 24.6667 14.6667 25.1145 14.6667 25.6667C14.6667 26.219 15.1144 26.6667 15.6667 26.6667H28.3333C28.8856 26.6667 29.3333 26.219 29.3333 25.6667C29.3333 25.1145 28.8856 24.6667 28.3333 24.6667H15.6667Z" fill="#18202A"/>
</svg>
