<svg width="32" height="32" viewBox="0 0 32 32" fill="none" xmlns="http://www.w3.org/2000/svg">
<path fill-rule="evenodd" clip-rule="evenodd" d="M16.0001 23.0571C15.4794 23.5778 15.4794 24.422 16.0001 24.9427C16.5208 25.4634 17.365 25.4634 17.8857 24.9427L25.8857 16.9427C26.4064 16.422 26.4064 15.5778 25.8857 15.0571L17.8857 7.05711C17.365 6.53641 16.5208 6.53641 16.0001 7.05711C15.4794 7.57781 15.4794 8.42203 16.0001 8.94273L23.0573 15.9999L16.0001 23.0571ZM6.11449 23.0571C5.59379 23.5778 5.59379 24.422 6.11449 24.9427C6.63519 25.4634 7.4794 25.4634 8.0001 24.9427L16.0001 16.9427C16.5208 16.422 16.5208 15.5778 16.0001 15.0571L8.0001 7.05711C7.47941 6.53641 6.63519 6.53641 6.11449 7.05711C5.59379 7.57781 5.59379 8.42203 6.11449 8.94272L13.1717 15.9999L6.11449 23.0571Z" fill="#18202A"/>
</svg>
