<svg width="32" height="32" viewBox="0 0 32 32" fill="none" xmlns="http://www.w3.org/2000/svg">
<path d="M16 4.97405C16 4.42177 15.5509 3.97114 14.9995 4.00153C7.36593 4.42228 1.33331 9.62176 1.33331 15.9741C1.33331 22.6015 7.8998 27.9741 16 27.9741C17.5683 27.9741 19.0792 27.7726 20.496 27.3997L24.643 29.1276C25.5657 29.5121 26.5676 28.7822 26.4846 27.7861L26.2177 24.5829C28.9617 22.4023 30.6666 19.3511 30.6666 15.9741C30.6666 15.8136 30.6628 15.6539 30.6552 15.495C30.6316 15.0041 30.2105 14.6407 29.719 14.6407C29.1088 14.6407 28.651 15.1932 28.6647 15.8032C28.666 15.8601 28.6666 15.9171 28.6666 15.9741C28.6666 18.6387 27.3264 21.1472 24.9734 23.0171L24.1357 23.6827L24.4005 26.8599L20.641 25.2934L19.9869 25.4656C18.7369 25.7946 17.3972 25.9741 16 25.9741C8.6104 25.9741 3.33331 21.1404 3.33331 15.9741C3.33331 11.0442 8.13848 6.41715 14.9991 6.00399C15.5504 5.97079 16 5.52634 16 4.97405Z" fill="#18202A"/>
<path d="M21.6666 2.66675C22.2189 2.66675 22.6666 3.11446 22.6666 3.66675V4.69625C24.9915 5.19094 27.6745 7.66803 27.6745 9.33342C27.6745 9.97234 26.8461 9.67924 25.7598 9.29489C24.7989 8.95492 23.6362 8.54356 22.6666 8.64269V16.0001C22.6666 18.2092 20.8758 20.0001 18.6666 20.0001C16.4575 20.0001 14.6666 18.2092 14.6666 16.0001C14.6666 13.7909 16.4575 12.0001 18.6666 12.0001C19.3952 12.0001 20.0783 12.1949 20.6666 12.5352V3.66675C20.6666 3.11446 21.1144 2.66675 21.6666 2.66675Z" fill="#18202A"/>
</svg>
