<svg width="32" height="32" viewBox="0 0 32 32" fill="none" xmlns="http://www.w3.org/2000/svg">
<path d="M8 6.66667C8 8.13943 9.19391 9.33333 10.6667 9.33333C12.1394 9.33333 13.3333 8.13943 13.3333 6.66667C13.3333 5.19391 12.1394 4 10.6667 4C9.19391 4 8 5.19391 8 6.66667Z" fill="#18202A"/>
<path d="M18.6667 6.66667C18.6667 8.13943 19.8606 9.33333 21.3333 9.33333C22.8061 9.33333 24 8.13943 24 6.66667C24 5.19391 22.8061 4 21.3333 4C19.8606 4 18.6667 5.19391 18.6667 6.66667Z" fill="#18202A"/>
<path d="M10.6667 18.6667C9.19391 18.6667 8 17.4728 8 16C8 14.5272 9.19391 13.3333 10.6667 13.3333C12.1394 13.3333 13.3333 14.5272 13.3333 16C13.3333 17.4728 12.1394 18.6667 10.6667 18.6667Z" fill="#18202A"/>
<path d="M21.3333 18.6667C19.8606 18.6667 18.6667 17.4728 18.6667 16C18.6667 14.5272 19.8606 13.3333 21.3333 13.3333C22.8061 13.3333 24 14.5272 24 16C24 17.4728 22.8061 18.6667 21.3333 18.6667Z" fill="#18202A"/>
<path d="M21.3333 28C19.8606 28 18.6667 26.8061 18.6667 25.3333C18.6667 23.8606 19.8606 22.6667 21.3333 22.6667C22.8061 22.6667 24 23.8606 24 25.3333C24 26.8061 22.8061 28 21.3333 28Z" fill="#18202A"/>
<path d="M10.6667 28C9.19391 28 8 26.8061 8 25.3333C8 23.8606 9.19391 22.6667 10.6667 22.6667C12.1394 22.6667 13.3333 23.8606 13.3333 25.3333C13.3333 26.8061 12.1394 28 10.6667 28Z" fill="#18202A"/>
</svg>
