<svg width="32" height="32" viewBox="0 0 32 32" fill="none" xmlns="http://www.w3.org/2000/svg">
<g clip-path="url(#clip0_3906_9151)">
<path fill-rule="evenodd" clip-rule="evenodd" d="M15.1716 8.66667L13.0907 6.58579C12.7156 6.21071 12.2069 6 11.6765 6H6.66665C4.8257 6 3.33331 7.49238 3.33331 9.33333V22.6667C3.33331 24.5076 4.8257 26 6.66665 26H25.3333C27.1743 26 28.6666 24.5076 28.6666 22.6667V12C28.6666 10.1591 27.1743 8.66667 25.3333 8.66667H15.1716ZM6.66665 4C3.72113 4 1.33331 6.38781 1.33331 9.33333V22.6667C1.33331 25.6122 3.72113 28 6.66665 28H25.3333C28.2788 28 30.6666 25.6122 30.6666 22.6667V12C30.6666 9.05448 28.2788 6.66667 25.3333 6.66667H16L14.5049 5.17157C13.7547 4.42143 12.7373 4 11.6765 4H6.66665Z" fill="#18202A"/>
</g>
<defs>
<clipPath id="clip0_3906_9151">
<rect width="32" height="32" fill="white"/>
</clipPath>
</defs>
</svg>
