<svg width="32" height="32" viewBox="0 0 32 32" fill="none" xmlns="http://www.w3.org/2000/svg">
<g clip-path="url(#clip0_2296_15129)">
<path fill-rule="evenodd" clip-rule="evenodd" d="M6.66665 3.33301H25.3333C27.1743 3.33301 28.6666 4.82539 28.6666 6.66634V17.9953C29.5107 18.628 30.1998 19.4563 30.6666 20.4129V6.66634C30.6666 3.72082 28.2788 1.33301 25.3333 1.33301H6.66665C3.72113 1.33301 1.33331 3.72082 1.33331 6.66634V25.333C1.33331 28.2785 3.72113 30.6663 6.66665 30.6663H17.5595C16.996 30.1575 16.6742 29.418 16.6668 28.6663H6.66665C4.8257 28.6663 3.33331 27.174 3.33331 25.333V6.66634C3.33331 4.82539 4.8257 3.33301 6.66665 3.33301ZM26.6666 16.9699V15.333C26.6666 13.8602 25.4727 12.6663 24 12.6663H7.99998C6.52722 12.6663 5.33331 13.8602 5.33331 15.333V23.9997C5.33331 25.4724 6.52722 26.6663 7.99998 26.6663H17.5734C17.626 26.6206 17.681 26.5761 17.7385 26.533C17.9064 26.4071 18.0052 26.2095 18.0052 25.9997V24.6663H7.99998C7.63179 24.6663 7.33331 24.3679 7.33331 23.9997V15.333C7.33331 14.9648 7.63179 14.6663 7.99998 14.6663H24C24.3682 14.6663 24.6666 14.9648 24.6666 15.333V16.6663C24.6684 16.6663 24.6701 16.6663 24.6719 16.6663C25.3667 16.6663 26.0368 16.7727 26.6666 16.9699ZM7.99998 5.33301C6.52722 5.33301 5.33331 6.52692 5.33331 7.99967C5.33331 9.47243 6.52722 10.6663 7.99998 10.6663C9.47274 10.6663 10.6666 9.47243 10.6666 7.99967C10.6666 6.52692 9.47274 5.33301 7.99998 5.33301ZM13.3333 7.99967C13.3333 7.44739 13.781 6.99967 14.3333 6.99967H25C25.5523 6.99967 26 7.44739 26 7.99967C26 8.55196 25.5523 8.99967 25 8.99967H14.3333C13.781 8.99967 13.3333 8.55196 13.3333 7.99967Z" fill="#18202A"/>
<path fill-rule="evenodd" clip-rule="evenodd" d="M29.3334 23.3337L29.3333 23.353V26.3337C29.3333 26.9632 29.6297 27.5559 30.1333 27.9337C30.7313 28.3821 30.4141 29.3337 29.6666 29.3337H19.6666C18.9192 29.3337 18.602 28.3821 19.2 27.9337C19.7036 27.556 20 26.9632 20 26.3337V23.3337C20 23.3337 20 23.3337 20 23.3337C20 23.3337 20 23.3337 20 23.3336C20 20.7563 22.0894 18.667 24.6667 18.667C27.244 18.667 29.3334 20.7563 29.3334 23.3337ZM23.3334 30.667C22.9652 30.667 22.6667 30.9655 22.6667 31.3337C22.6667 31.7018 22.9652 32.0003 23.3334 32.0003H26C26.3682 32.0003 26.6667 31.7018 26.6667 31.3337C26.6667 30.9655 26.3682 30.667 26 30.667H23.3334Z" fill="#18202A"/>
</g>
<defs>
<clipPath id="clip0_2296_15129">
<rect width="32" height="32" fill="white"/>
</clipPath>
</defs>
</svg>
