<svg width="32" height="32" viewBox="0 0 32 32" fill="none" xmlns="http://www.w3.org/2000/svg">
<g clip-path="url(#clip0_2294_9541)">
<path fill-rule="evenodd" clip-rule="evenodd" d="M2.36895 0.481647C1.77902 -0.108277 0.878307 -0.164018 0.357145 0.357145C-0.164018 0.878307 -0.108277 1.77902 0.481647 2.36895L2.07114 3.95843C1.60233 4.75222 1.33333 5.67803 1.33333 6.66667V18.6667C1.33333 21.6122 3.72115 24 6.66666 24H7.39394L6.62085 27.6974C6.38333 28.8334 7.60988 29.7094 8.60739 29.1163L17.2121 24H22.1127L25.6311 27.5184C26.221 28.1083 27.1217 28.164 27.6429 27.6429C28.164 27.1217 28.1083 26.221 27.5184 25.6311L2.36895 0.481647ZM30.6667 18.6667C30.6667 20.3984 29.8413 21.9374 28.5625 22.9117L6.98413 1.33333H25.3333C28.2789 1.33333 30.6667 3.72115 30.6667 6.66667V18.6667Z" fill="#18202A"/>
</g>
<defs>
<clipPath id="clip0_2294_9541">
<rect width="32" height="32" fill="white"/>
</clipPath>
</defs>
</svg>
