<svg width="48" height="48" viewBox="0 0 48 48" fill="none" xmlns="http://www.w3.org/2000/svg">
<path fill-rule="evenodd" clip-rule="evenodd" d="M20.7144 3.2556C20.6287 2.71001 21.0013 2.19586 21.5502 2.13499C22.355 2.04576 23.1724 2 24 2C36.1503 2 46 11.8497 46 24C46 24.8276 45.9542 25.645 45.865 26.4498C45.8041 26.9987 45.29 27.3713 44.7444 27.2856L43.7565 27.1304C43.2109 27.0446 42.8409 26.5329 42.8978 25.9836C42.9654 25.332 43 24.6703 43 24C43 13.5066 34.4934 5 24 5C23.3297 5 22.668 5.03465 22.0164 5.10218C21.4671 5.15911 20.9554 4.78906 20.8697 4.24348L20.7144 3.2556ZM10.7838 7.67948C10.4359 7.25048 10.5004 6.61876 10.9447 6.29072C12.2551 5.32321 13.6772 4.49737 15.1882 3.83614C15.6942 3.61474 16.2738 3.87427 16.4718 4.38983L16.8304 5.32333C17.0284 5.83888 16.7698 6.41491 16.2654 6.63999C15.0499 7.18243 13.9015 7.84902 12.8362 8.62386C12.3896 8.94874 11.7614 8.88525 11.4135 8.45625L10.7838 7.67948ZM4.38983 16.4718C3.87427 16.2738 3.61474 15.6942 3.83615 15.1882C4.49738 13.6771 5.32321 12.2551 6.29072 10.9447C6.61877 10.5004 7.25048 10.4359 7.67948 10.7838L8.45625 11.4135C8.88525 11.7614 8.94874 12.3896 8.62387 12.8362C7.84902 13.9015 7.18243 15.0499 6.63999 16.2654C6.41492 16.7698 5.83889 17.0284 5.32333 16.8304L4.38983 16.4718ZM2 24C2 23.1724 2.04576 22.355 2.13499 21.5502C2.19586 21.0013 2.71001 20.6287 3.2556 20.7144L4.24348 20.8696C4.78906 20.9554 5.15911 21.4671 5.10218 22.0164C5.03465 22.668 5 23.3297 5 24C5 24.6703 5.03465 25.332 5.10218 25.9836C5.15911 26.5329 4.78906 27.0446 4.24348 27.1303L3.2556 27.2856C2.71001 27.3713 2.19586 26.9987 2.13499 26.4498C2.04576 25.645 2 24.8276 2 24ZM7.67948 37.2162C7.25048 37.5641 6.61876 37.4996 6.29072 37.0553C5.32321 35.7449 4.49737 34.3228 3.83614 32.8118C3.61474 32.3058 3.87427 31.7262 4.38983 31.5282L5.32333 31.1696C5.83888 30.9716 6.41491 31.2302 6.63999 31.7346C7.18243 32.9501 7.84902 34.0985 8.62386 35.1638C8.94874 35.6104 8.88525 36.2386 8.45625 36.5865L7.67948 37.2162ZM43.6102 31.5282C44.1257 31.7262 44.3853 32.3058 44.1639 32.8118C43.5026 34.3228 42.6768 35.7449 41.7093 37.0553C41.3812 37.4996 40.7495 37.5641 40.3205 37.2162L39.5437 36.5865C39.1147 36.2386 39.0513 35.6104 39.3761 35.1638C40.151 34.0985 40.8176 32.9501 41.36 31.7346C41.5851 31.2302 42.1611 30.9716 42.6767 31.1696L43.6102 31.5282ZM16.4718 43.6102C16.2738 44.1257 15.6942 44.3853 15.1882 44.1639C13.6771 43.5026 12.2551 42.6768 10.9447 41.7093C10.5004 41.3812 10.4359 40.7495 10.7838 40.3205L11.4135 39.5438C11.7614 39.1147 12.3896 39.0513 12.8362 39.3761C13.9015 40.151 15.0499 40.8176 16.2654 41.36C16.7698 41.5851 17.0284 42.1611 16.8304 42.6767L16.4718 43.6102ZM37.2162 40.3205C37.5641 40.7495 37.4996 41.3812 37.0553 41.7093C35.7449 42.6768 34.3228 43.5026 32.8118 44.1639C32.3058 44.3853 31.7262 44.1257 31.5282 43.6102L31.1696 42.6767C30.9716 42.1611 31.2302 41.5851 31.7346 41.36C32.9501 40.8176 34.0985 40.151 35.1638 39.3761C35.6104 39.0513 36.2386 39.1148 36.5865 39.5438L37.2162 40.3205ZM24 46C23.1724 46 22.355 45.9542 21.5502 45.865C21.0013 45.8041 20.6287 45.29 20.7144 44.7444L20.8696 43.7565C20.9554 43.2109 21.4671 42.8409 22.0164 42.8978C22.668 42.9654 23.3297 43 24 43C24.6703 43 25.332 42.9654 25.9836 42.8978C26.5329 42.8409 27.0446 43.2109 27.1303 43.7565L27.2856 44.7444C27.3713 45.29 26.9987 45.8041 26.4498 45.865C25.645 45.9542 24.8276 46 24 46ZM40 24C40 32.8366 32.8366 40 24 40C15.1634 40 8 32.8366 8 24C8 15.1634 15.1634 8 24 8C32.8366 8 40 15.1634 40 24ZM22 17C22 18.6569 20.6569 20 19 20C17.3431 20 16 18.6569 16 17C16 15.3431 17.3431 14 19 14C20.6569 14 22 15.3431 22 17ZM24 37C30.5906 37 36.0357 32.0957 36.8849 25.7374L30 20L23 28L18 25L12.4089 29.8922C14.5575 34.1106 18.9413 37 24 37Z" fill="#18202A"/>
</svg>
