<svg width="48" height="48" viewBox="0 0 48 48" fill="none" xmlns="http://www.w3.org/2000/svg">
<path d="M19.5 6C13.5514 6 10 10.7971 10 15.5C10 16.6869 10.2262 17.8797 10.66 19H13.985C13.3431 17.9552 13 16.7342 13 15.5C13 12.2029 15.4486 9 19.5 9H28C32.366 9 35 12.0103 35 14.5C35 15.3284 35.6716 16 36.5 16C37.3284 16 38 15.3284 38 14.5C38 9.98969 33.634 6 28 6H19.5Z" fill="#18202A"/>
<path d="M4 23.5C4 22.6716 4.67157 22 5.5 22H42.5C43.3284 22 44 22.6716 44 23.5C44 24.3284 43.3284 25 42.5 25H37.1459C39.0759 26.8058 40 29.2656 40 32C40 34.87 38.9819 37.4375 36.8512 39.2639C34.7481 41.0665 31.7342 42 28 42H18C12.0608 42 8 36.7131 8 32C8 31.1716 8.67157 30.5 9.5 30.5C10.3284 30.5 11 31.1716 11 32C11 35.2869 13.9392 39 18 39H28C31.2658 39 33.5019 38.1835 34.8988 36.9861C36.2681 35.8125 37 34.13 37 32C37 29.87 36.2681 28.1875 34.8988 27.0139C33.5019 25.8165 31.2658 25 28 25H5.5C4.67157 25 4 24.3284 4 23.5Z" fill="#18202A"/>
</svg>
