<svg width="48" height="48" viewBox="0 0 48 48" fill="none" xmlns="http://www.w3.org/2000/svg">
<path fill-rule="evenodd" clip-rule="evenodd" d="M34.0002 39.999C34.0002 38.8945 33.1048 37.999 32.0002 37.999H6.00024C4.89568 37.999 4.00024 38.8945 4.00024 39.999C4.00024 41.1036 4.89568 41.999 6.00024 41.999H32.0002C33.1048 41.999 34.0002 41.1036 34.0002 39.999Z" fill="#18202A"/>
<path fill-rule="evenodd" clip-rule="evenodd" d="M34.0002 7.99902C34.0002 6.89445 33.1048 5.99902 32.0002 5.99902H6.00024C4.89568 5.99902 4.00024 6.89445 4.00024 7.99902C4.00024 9.10359 4.89568 9.99902 6.00024 9.99902H32.0002C33.1048 9.99902 34.0002 9.10359 34.0002 7.99902Z" fill="#18202A"/>
<path d="M34.586 19.4132C33.805 18.6322 33.805 17.3659 34.586 16.5848C35.3671 15.8038 36.6334 15.8038 37.4145 16.5848L43.4145 22.5848C43.7496 22.9199 43.9409 23.3444 43.9884 23.7815C44.0237 24.1052 43.98 24.436 43.8575 24.7425C43.7744 24.9504 43.655 25.1472 43.4993 25.3231C43.4687 25.3577 43.4369 25.3913 43.404 25.4237L37.4145 31.4132C36.6334 32.1943 35.3671 32.1943 34.586 31.4132C33.805 30.6322 33.805 29.3659 34.586 28.5848L37.1736 25.9972L5.99935 25.9845C4.89478 25.984 3.99971 25.0882 4.00016 23.9837C4.00061 22.8791 4.89641 21.984 6.00098 21.9845L37.17 21.9972L34.586 19.4132Z" fill="#18202A"/>
</svg>
