<svg width="48" height="48" viewBox="0 0 48 48" fill="none" xmlns="http://www.w3.org/2000/svg">
<path fill-rule="evenodd" clip-rule="evenodd" d="M24 43C34.4934 43 43 34.4934 43 24C43 13.5066 34.4934 5 24 5C13.5066 5 5 13.5066 5 24C5 34.4934 13.5066 43 24 43ZM24 46C36.1503 46 46 36.1503 46 24C46 11.8497 36.1503 2 24 2C11.8497 2 2 11.8497 2 24C2 36.1503 11.8497 46 24 46Z" fill="#18202A"/>
<path fill-rule="evenodd" clip-rule="evenodd" d="M33.0345 16.9138C33.6344 17.4851 33.6575 18.4346 33.0862 19.0345L21.6576 31.0345C21.3651 31.3417 20.9562 31.5106 20.5321 31.4995C20.1081 31.4884 19.7086 31.2983 19.4325 30.9762L14.8611 25.6429C14.322 25.0139 14.3948 24.0669 15.0238 23.5278C15.6528 22.9886 16.5998 23.0615 17.1389 23.6905L20.63 27.7635L30.9138 16.9655C31.4851 16.3656 32.4346 16.3425 33.0345 16.9138Z" fill="#18202A"/>
</svg>
