<svg width="48" height="48" viewBox="0 0 48 48" fill="none" xmlns="http://www.w3.org/2000/svg">
<path d="M23.2502 2.10973C23.6412 1.99268 24.0542 1.96928 24.454 2.0395L24.7508 2.10973L44.2326 7.96964C45.2838 8.28648 46.001 9.22438 46 10.2853C46 36.2334 32.3896 42.4364 25.0758 45.7674C24.7358 45.9224 24.3686 46 24.0006 46C23.6324 46 23.2642 45.9224 22.9232 45.7674L21.864 45.2821C14.3739 41.8158 2 35.0265 2 10.2853C2 9.31189 2.60264 8.44268 3.51272 8.06128L3.76833 7.96964L23.2502 2.10973ZM24.002 5.016L5.002 10.73L5.00695 11.2839C5.1505 21.5096 7.51157 28.8558 11.6259 34.0932L12.0295 34.5935C15.0448 38.233 18.0089 40.1806 23.4124 42.6904L23.998 42.96L24.5846 42.6914L26.0677 41.9863C30.3298 39.9052 32.9681 38.0788 35.5593 35.0799L35.9704 34.5939C40.3338 29.327 42.8449 21.8395 42.993 11.2813L42.996 10.73L24.002 5.016Z" fill="#18202A"/>
<path fill-rule="evenodd" clip-rule="evenodd" d="M8.00641 13.1286L8 12.944L23.946 8.148L39.89 12.944L39.8389 14.0348C39.3418 22.4445 37.1328 28.4231 33.6062 32.68L33.2424 33.1099C30.9358 35.7777 28.5537 37.4172 24.5557 39.3593L23.946 39.652L23.3323 39.3575C19.126 37.3135 16.7096 35.6054 14.2857 32.6796L13.9129 32.2169C10.481 27.8362 8.38076 21.7087 8.00641 13.1286ZM11.1384 15.1328C11.7224 22.1186 13.5984 26.9435 16.2624 30.3512L16.6086 30.781C18.5478 33.1181 20.4499 34.5584 23.9458 36.3147C27.2686 34.6456 29.1377 33.2677 30.9629 31.1595L31.3056 30.7544C34.1439 27.3229 36.1458 22.3961 36.7533 15.1333L23.9459 11.2808L11.1384 15.1328Z" fill="#18202A"/>
</svg>
