<svg width="48" height="48" viewBox="0 0 48 48" fill="none" xmlns="http://www.w3.org/2000/svg">
<g clip-path="url(#clip0_2294_11590)">
<path d="M8.19075 7.38211L23.6456 3.241C27.3798 2.24041 31.2182 4.45649 32.2188 8.19075L33.135 11.6102L36.3154 11.8884L35.1166 7.41429C33.6871 2.07963 28.2038 -1.08619 22.8691 0.343223L7.41429 4.48433C2.07963 5.91375 -1.08619 11.3971 0.343224 16.7318L4.48433 32.1866C5.38732 35.5566 7.90812 38.0611 10.9872 39.0884C10.7169 38.0265 10.6177 36.9017 10.7186 35.7483L10.7224 35.7054C9.13316 34.8149 7.89084 33.3088 7.38211 31.4101L3.241 15.9553C2.24041 12.2211 4.45649 8.3827 8.19075 7.38211Z" fill="#18202A"/>
<path fill-rule="evenodd" clip-rule="evenodd" d="M38.6243 15.1017L22.6852 13.7072C18.8339 13.3703 15.4387 16.2192 15.1017 20.0705L13.7072 36.0096C13.3703 39.8609 16.2192 43.2561 20.0705 43.5931L36.0096 44.9876C39.8609 45.3245 43.2561 42.4756 43.5931 38.6243L44.9876 22.6852C45.3245 18.8339 42.4756 15.4387 38.6243 15.1017ZM22.9466 10.7187C17.4448 10.2373 12.5945 14.3072 12.1131 19.809L10.7186 35.7483C10.2373 41.2502 14.3072 46.1003 19.809 46.5817L35.7481 47.9762C41.25 48.4575 46.1003 44.3876 46.5817 38.8858L47.9761 22.9467C48.4575 17.4448 44.3876 12.5945 38.8858 12.1131L22.9466 10.7187Z" fill="#18202A"/>
<path fill-rule="evenodd" clip-rule="evenodd" d="M22.8098 23.7567C23.9102 23.853 24.8802 23.039 24.9765 21.9387C25.0728 20.8383 24.2588 19.8682 23.1584 19.7719C22.0581 19.6757 21.088 20.4897 20.9917 21.59C20.8955 22.6904 21.7094 23.6605 22.8098 23.7567ZM27.9651 22.2001C27.7244 24.951 25.2993 26.986 22.5483 26.7453C19.7974 26.5046 17.7625 24.0795 18.0032 21.3286C18.2438 18.5776 20.669 16.5427 23.4199 16.7834C26.1708 17.024 28.2058 19.4492 27.9651 22.2001Z" fill="#18202A"/>
<path fill-rule="evenodd" clip-rule="evenodd" d="M36.4901 25.9072L45.8001 37.0878L43.4947 39.0075L35.9758 29.9778L26.2651 36.9853L21.526 33.2273L13.4195 39.128L11.654 36.7025L21.6037 29.4602L26.3504 33.2242L36.4901 25.9072Z" fill="#18202A"/>
</g>
<defs>
<clipPath id="clip0_2294_11590">
<rect width="48" height="48" fill="white"/>
</clipPath>
</defs>
</svg>
