<svg width="48" height="48" viewBox="0 0 48 48" fill="none" xmlns="http://www.w3.org/2000/svg">
<path fill-rule="evenodd" clip-rule="evenodd" d="M24 46C11.8497 46 2 36.1503 2 24C2 11.8497 11.8497 2 24 2C36.1503 2 46 11.8497 46 24C46 36.1503 36.1503 46 24 46ZM20.5858 14.5858C21.3668 13.8047 22.6332 13.8047 23.4142 14.5858C24.1953 15.3668 24.1953 16.6332 23.4142 17.4142L18.8284 22H34C35.1046 22 36 22.8954 36 24C36 25.1046 35.1046 26 34 26H18.8284L23.4142 30.5858C24.1953 31.3668 24.1953 32.6332 23.4142 33.4142C22.6332 34.1953 21.3668 34.1953 20.5858 33.4142L12.5858 25.4142C11.8047 24.6332 11.8047 23.3668 12.5858 22.5858L20.5858 14.5858Z" fill="#18202A"/>
</svg>
