<svg width="48" height="48" viewBox="0 0 48 48" fill="none" xmlns="http://www.w3.org/2000/svg">
<path d="M28 28C28 29.4806 27.1956 30.7733 26 31.4649V36C26 37.1046 25.1046 38 24 38C22.8954 38 22 37.1046 22 36V31.4649C20.8044 30.7733 20 29.4806 20 28C20 25.7909 21.7909 24 24 24C26.2091 24 28 25.7909 28 28Z" fill="#18202A"/>
<path fill-rule="evenodd" clip-rule="evenodd" d="M44 24C44 19.5817 40.4183 16 36 16V14C36 7.37258 30.6274 2 24 2C17.3726 2 12 7.37258 12 14V16C7.58172 16 4 19.5817 4 24V38C4 42.4183 7.58172 46 12 46H36C40.4183 46 44 42.4183 44 38V24ZM24 5C28.9706 5 33 9.02944 33 14V16H15V14C15 9.02944 19.0294 5 24 5ZM7 24C7 21.2386 9.23858 19 12 19H36C38.7614 19 41 21.2386 41 24V38C41 40.7614 38.7614 43 36 43H12C9.23858 43 7 40.7614 7 38V24Z" fill="#18202A"/>
</svg>
