<svg width="48" height="48" viewBox="0 0 48 48" fill="none" xmlns="http://www.w3.org/2000/svg">
<g clip-path="url(#clip0_3626_8895)">
<path d="M34 27.626L31 24.626V12.8508C31 11.4362 30.0118 10.2138 28.6286 9.91738L12.9267 6.55269L9.11298 2.73896C9.9695 2.26794 10.9535 2 12 2H36C39.3137 2 42 4.68629 42 8V35.626L39 32.626V8C39 6.34315 37.6569 5 36 5H19.9986L29.2572 6.98397C32.0236 7.57678 34 10.0216 34 12.8508V27.626Z" fill="#18202A"/>
<path fill-rule="evenodd" clip-rule="evenodd" d="M3 5.13486L6 8.13487V37.1498C6 39.979 7.9764 42.4238 10.7428 43.0166L26.7428 46.4452C29.9969 47.1425 33.0893 45.0711 33.8318 42H36C37.1091 42 38.148 41.6991 39.0393 41.1744L42.8649 45C43.4543 45.5894 44.4098 45.5894 44.9992 45C45.5885 44.4106 45.5885 43.4551 44.9992 42.8658L5.13424 3.00061C4.54489 2.41125 3.58936 2.41125 3 3.00061C2.41064 3.58997 2.41064 4.5455 3 5.13486ZM34 36.135L36.7662 38.9013C36.5216 38.9657 36.2648 39 36 39H34V36.135ZM27.3714 43.5118C29.239 43.912 31 42.4883 31 40.5784V33.135L27.2304 29.3653C26.8911 29.763 26.464 30 26 30C24.8954 30 24 28.6569 24 27C24 26.7251 24.0247 26.4588 24.0708 26.2058L9 11.1349V37.1498C9 38.5644 9.9882 39.7868 11.3714 40.0832L27.3714 43.5118Z" fill="#18202A"/>
</g>
<defs>
<clipPath id="clip0_3626_8895">
<rect width="48" height="48" fill="white"/>
</clipPath>
</defs>
</svg>
