<svg width="48" height="48" viewBox="0 0 48 48" fill="none" xmlns="http://www.w3.org/2000/svg">
<g clip-path="url(#clip0_3352_8906)">
<path d="M24 26L20 20H16L22 29L16 38H20L24 32L28 38H32L26 29L32 20H28L24 26Z" fill="#18202A"/>
<path fill-rule="evenodd" clip-rule="evenodd" d="M4 4C4 1.79086 5.79086 0 8 0H31.3431C32.404 0 33.4214 0.421427 34.1716 1.17157L42.8284 9.82843C43.5786 10.5786 44 11.596 44 12.6569V44C44 46.2091 42.2091 48 40 48H8C5.79086 48 4 46.2091 4 44V4ZM8 45C7.44772 45 7 44.5523 7 44V4C7 3.44772 7.44771 3 8 3H30.0097L30 10.8122C30 11.6576 30.3356 12.4685 30.933 13.0663C31.5305 13.6641 32.3407 14 33.1856 14L41 13.9901V44C41 44.5523 40.5523 45 40 45H8Z" fill="#18202A"/>
</g>
<defs>
<clipPath id="clip0_3352_8906">
<rect width="48" height="48" fill="white"/>
</clipPath>
</defs>
</svg>
