<svg width="48" height="48" viewBox="0 0 48 48" fill="none" xmlns="http://www.w3.org/2000/svg">
<path fill-rule="evenodd" clip-rule="evenodd" d="M27.426 4.61422C26.8655 4.8464 26.5 5.39335 26.5 6.00004V14.5261C21.1548 14.7138 15.4294 15.9543 10.8836 19.4625C5.83605 23.3579 2.5 29.8458 2.5 40C2.5 40.677 2.95337 41.27 3.60658 41.4475C4.25979 41.6251 4.95097 41.3431 5.29362 40.7593C7.9736 36.1935 10.0485 33.513 13.1089 31.872C15.9965 30.3236 19.9462 29.6024 26.5 29.5102V38C26.5 38.6067 26.8655 39.1537 27.426 39.3859C27.9865 39.618 28.6317 39.4897 29.0607 39.0607L45.0607 23.0607C45.6464 22.4749 45.6464 21.5252 45.0607 20.9394L29.0607 4.93938C28.6317 4.51039 27.9865 4.38205 27.426 4.61422ZM41.8787 22L29.5 34.3787V28C29.5 27.1716 28.8284 26.5 28 26.5C20.4628 26.5 15.4896 27.1912 11.6911 29.2281C9.38007 30.4674 7.58146 32.1634 5.92255 34.3278C6.89854 28.2441 9.47606 24.3383 12.7164 21.8375C16.9421 18.5764 22.5554 17.5 28 17.5C28.8284 17.5 29.5 16.8285 29.5 16V9.62136L41.8787 22Z" fill="#18202A"/>
</svg>
