<svg width="48" height="48" viewBox="0 0 48 48" fill="none" xmlns="http://www.w3.org/2000/svg">
<path fill-rule="evenodd" clip-rule="evenodd" d="M25.669 13.5672C24.9976 12.1443 23.0024 12.1443 22.331 13.5672L20.3812 17.6997L16.0787 18.3501C15.2538 18.4748 14.7489 19.0884 14.5775 19.6729C14.4066 20.2557 14.5043 20.9916 15.0397 21.5379L18.1851 24.7472L17.436 29.3084C17.3211 30.0078 17.5997 30.6794 18.1105 31.0914C18.633 31.513 19.4249 31.667 20.1425 31.2728L24 29.1535L27.8576 31.2728C28.5751 31.667 29.367 31.513 29.8895 31.0914C30.4003 30.6794 30.6789 30.0078 30.564 29.3084L29.8151 24.7478L32.9594 21.544C33.4951 20.9982 33.5933 20.2624 33.4229 19.6795C33.252 19.095 32.7477 18.4811 31.9231 18.3556L27.6193 17.7005L25.669 13.5672ZM22.4116 20.4268L24 17.0604L25.588 20.4259L29.299 20.9908L26.6081 23.7325L27.2275 27.5037L24 25.7306L20.7726 27.5037L21.3918 23.7331L18.7011 20.9877L22.4116 20.4268Z" fill="#18202A"/>
<path fill-rule="evenodd" clip-rule="evenodd" d="M24.454 2.0395C24.0542 1.96928 23.6412 1.99269 23.2502 2.10972L3.76832 7.96964L3.51271 8.06128C2.60263 8.44268 2 9.3119 2 10.2853C2 35.0265 14.3739 41.8158 21.864 45.2821L22.9232 45.7674C23.2642 45.9224 23.6324 46 24.0006 46C24.3686 46 24.7358 45.9224 25.0758 45.7674C32.3896 42.4364 46 36.2334 46 10.2853C46.001 9.22438 45.2838 8.28648 44.2326 7.96964L24.7508 2.10972L24.454 2.0395ZM5.002 10.73L24.002 5.016L42.996 10.73L42.993 11.2813C42.8449 21.8395 40.3338 29.327 35.9704 34.5939L35.5593 35.0799C32.9681 38.0788 30.3298 39.9052 26.0677 41.9863L24.5846 42.6914L23.998 42.96L23.4124 42.6904C18.0089 40.1806 15.0448 38.233 12.0295 34.5935L11.6259 34.0932C7.51157 28.8558 5.1505 21.5096 5.00695 11.2839L5.002 10.73Z" fill="#18202A"/>
</svg>
