<svg width="48" height="48" viewBox="0 0 48 48" fill="none" xmlns="http://www.w3.org/2000/svg">
<g clip-path="url(#clip0_3875_8907)">
<path fill-rule="evenodd" clip-rule="evenodd" d="M22 2C18.6863 2 16 4.68629 16 8V10H5.5C4.67157 10 4 10.6716 4 11.5C4 12.3284 4.67157 13 5.5 13H8V34C8 40.6274 13.3726 46 20 46H27.7523C27.0405 45.0895 26.4474 44.0818 25.9963 43H20C15.0294 43 11 38.9706 11 34V13H37V25.0379C37.33 25.0128 37.6635 25 38 25C38.6801 25 39.3481 25.0522 40 25.1529V13H42.5C43.3284 13 44 12.3284 44 11.5C44 10.6716 43.3284 10 42.5 10H32V8C32 4.68629 29.3137 2 26 2H22ZM29 8C29 6.34315 27.6569 5 26 5H22C20.3431 5 19 6.34315 19 8V10H29V8Z" fill="#18202A"/>
<path d="M26.5 31.9322C27.2597 30.4954 28.2808 29.218 29.5 28.1636V22C29.5 21.1716 28.8284 20.5 28 20.5C27.1716 20.5 26.5 21.1716 26.5 22V31.9322Z" fill="#18202A"/>
<path d="M20 20.5C20.8284 20.5 21.5 21.1716 21.5 22V34C21.5 34.8284 20.8284 35.5 20 35.5C19.1716 35.5 18.5 34.8284 18.5 34V22C18.5 21.1716 19.1716 20.5 20 20.5Z" fill="#18202A"/>
<path fill-rule="evenodd" clip-rule="evenodd" d="M38 48C43.5228 48 48 43.5228 48 38C48 32.4772 43.5228 28 38 28C32.4772 28 28 32.4772 28 38C28 43.5228 32.4772 48 38 48ZM39.5 33C39.5 32.1716 38.8284 31.5 38 31.5C37.1716 31.5 36.5 32.1716 36.5 33V38C36.5 38.3978 36.658 38.7794 36.9393 39.0607L39.9393 42.0607C40.5251 42.6464 41.4749 42.6464 42.0607 42.0607C42.6464 41.4749 42.6464 40.5251 42.0607 39.9393L39.5 37.3787V33Z" fill="#18202A"/>
</g>
<defs>
<clipPath id="clip0_3875_8907">
<rect width="48" height="48" fill="white"/>
</clipPath>
</defs>
</svg>
