<svg width="48" height="48" viewBox="0 0 48 48" fill="none" xmlns="http://www.w3.org/2000/svg">
<path d="M27.7071 14.9245C27.0771 14.2672 26 14.7328 26 15.6624V19.1045C23.2867 19.1708 20.3783 19.7941 18.0945 21.6332C15.6453 23.6055 14 26.9057 14 32.1419C14 32.3774 14.1511 32.5837 14.3688 32.6454C14.5865 32.7072 14.8169 32.6091 14.9312 32.406C16.2745 30.0179 17.3411 28.5639 18.9362 27.6713C20.472 26.812 22.5622 26.4374 26 26.4051V29.8389C26 30.7685 27.0771 31.2341 27.7071 30.5767L34.5 23.4885C34.8905 23.081 34.8905 22.4203 34.5 22.0128L27.7071 14.9245Z" fill="#18202A"/>
<path fill-rule="evenodd" clip-rule="evenodd" d="M2 14.6168C2 11.159 4.68629 8.35596 8 8.35596H40C43.3137 8.35596 46 11.159 46 14.6168V32.3478C46 35.8056 43.3137 38.6087 40 38.6087H46.5C47.3284 38.6087 48 39.3094 48 40.1739C48 41.0383 47.3284 41.7391 46.5 41.7391H1.5C0.671573 41.7391 0 41.0383 0 40.1739C0 39.3094 0.671573 38.6087 1.5 38.6087H8C4.68629 38.6087 2 35.8056 2 32.3478V14.6168ZM5 14.6168C5 12.8879 6.34315 11.4864 8 11.4864H40C41.6569 11.4864 43 12.8879 43 14.6168V32.3478C43 34.0767 41.6569 35.4782 40 35.4782H8C6.34315 35.4782 5 34.0767 5 32.3478V14.6168Z" fill="#18202A"/>
</svg>
