<svg width="48" height="48" viewBox="0 0 48 48" fill="none" xmlns="http://www.w3.org/2000/svg">
<path fill-rule="evenodd" clip-rule="evenodd" d="M24 12.5C24.8284 12.5 25.5 13.1716 25.5 14V34C25.5 34.8284 24.8284 35.5 24 35.5C23.1716 35.5 22.5 34.8284 22.5 34V14C22.5 13.1716 23.1716 12.5 24 12.5Z" fill="#18202A"/>
<path fill-rule="evenodd" clip-rule="evenodd" d="M12.5 24C12.5 23.1716 13.1716 22.5 14 22.5H34C34.8284 22.5 35.5 23.1716 35.5 24C35.5 24.8284 34.8284 25.5 34 25.5H14C13.1716 25.5 12.5 24.8284 12.5 24Z" fill="#18202A"/>
<path fill-rule="evenodd" clip-rule="evenodd" d="M24 43C34.4934 43 43 34.4934 43 24C43 13.5066 34.4934 5 24 5C13.5066 5 5 13.5066 5 24C5 34.4934 13.5066 43 24 43ZM24 46C36.1503 46 46 36.1503 46 24C46 11.8497 36.1503 2 24 2C11.8497 2 2 11.8497 2 24C2 36.1503 11.8497 46 24 46Z" fill="#18202A"/>
</svg>
