<svg width="48" height="48" viewBox="0 0 48 48" fill="none" xmlns="http://www.w3.org/2000/svg">
<g clip-path="url(#clip0_2294_8069)">
<path fill-rule="evenodd" clip-rule="evenodd" d="M30 47.2438V32.0232L30.0002 45.1717C37.3267 43.0994 43.0995 37.3266 45.1718 30.0002L35.5295 30H47.2438C47.7374 28.0822 48 26.0718 48 24C48 21.9282 47.7374 19.9177 47.2438 18H30.7085C30.7084 18 30.7084 17.9999 30.7084 17.9999L45.1716 17.9992C43.0992 10.673 37.3265 4.90038 30.0002 2.82812L30 15.9767V0.756104L29.1725 0.558806C27.5065 0.19287 25.7758 0 24 0L23.1159 0.0159808C21.3557 0.0797208 19.6438 0.33303 18 0.756104V17.2916L18 17.2916L17.9993 2.82825C10.6732 4.9006 4.90067 10.6731 2.82831 17.9992L17.2917 17.9999L17.2916 18H0.756104L0.558806 18.8275C0.19287 20.4934 0 22.2242 0 24C0 26.0718 0.262518 28.0822 0.756104 30H12.4705L2.82819 30.0002C4.90044 37.3265 10.673 43.0992 17.9993 45.1716L18 30.7083L18.0096 30.7168C18.025 30.7306 18.0405 30.7444 18.0561 30.758L18.0096 30.7168C17.7571 30.4915 17.5174 30.2521 17.2917 29.9999L17.2906 29.9987L16.995 29.6511C15.7472 28.1064 15 26.1404 15 24C15 21.7129 15.8531 19.625 17.2585 18.0372C17.2637 18.0314 17.2689 18.0256 17.2741 18.0197C17.2799 18.0132 17.2858 18.0066 17.2917 18H17.2916C17.5145 17.751 17.751 17.5145 18 17.2916V17.2917L18.3489 16.995C19.8937 15.7472 21.8596 15 24 15L24.4907 15.0132C26.6028 15.1266 28.5215 15.9684 30 17.2917V17.2916C30.2488 17.5143 30.4852 17.7507 30.7084 18H30.7084C32.1334 19.5923 33 21.695 33 24C33 26.305 32.1334 28.4077 30.7085 29.9999H30.7084L30.7184 29.9886C30.4924 30.242 30.2522 30.4826 29.9994 30.7088L29.9974 30.7106L29.6511 31.0051C28.1064 32.2528 26.1404 33 24 33C21.695 33 19.5923 32.1334 18 30.7084V47.2438L18.8275 47.4411C20.4934 47.8071 22.2242 48 24 48L24.8841 47.984C26.6443 47.9203 28.3562 47.6669 30 47.2438ZM29.9976 30.7104C29.9982 30.7099 29.9988 30.7093 29.9994 30.7088L30 30.7083L30 30.7084L30 30.7084L29.9976 30.7104ZM17.2909 29.9991C17.2911 29.9994 17.2914 29.9996 17.2917 29.9999H17.2916L17.2909 29.9991ZM26.7408 35.6848L27 35.618V44.782L26.6603 44.8334C25.7838 44.944 24.8959 45 24 45L23.0797 44.9802C22.4683 44.9539 21.8611 44.9014 21.2593 44.8231L21 44.782V35.618L21.2592 35.6848C22.1471 35.8924 23.0656 36 24 36C24.9344 36 25.8529 35.8924 26.7408 35.6848ZM35.618 21H44.782L44.8334 21.3396C44.944 22.2161 45 23.1041 45 24L44.9814 24.8931C44.9566 25.4866 44.9072 26.076 44.8334 26.6603L44.782 27H35.618L35.6848 26.7408C35.8924 25.8529 36 24.9344 36 24L35.9871 23.4414C35.953 22.6994 35.8509 21.9695 35.6848 21.2592L35.618 21ZM3.216 21H12.38L12.3152 21.2592C12.1076 22.1471 12 23.0656 12 24L12.0126 24.5536C12.0462 25.2891 12.1465 26.0129 12.3098 26.7179L12.382 27H3.216L3.1666 26.6605C3.05595 25.784 3 24.896 3 24L3.01975 23.0797C3.04605 22.4682 3.09856 21.861 3.17689 21.2592L3.216 21ZM21.3395 3.1666C22.216 3.05595 23.104 3 24 3L24.9203 3.01975C25.5318 3.04605 26.139 3.09856 26.7407 3.17689L27 3.216V12.38L26.7409 12.3152C25.853 12.1076 24.9345 12 24 12L23.4464 12.0126C22.7109 12.0462 21.9871 12.1465 21.2822 12.3098L21 12.38V3.216L21.3395 3.1666Z" fill="#18202A"/>
</g>
<defs>
<clipPath id="clip0_2294_8069">
<rect width="48" height="48" fill="white"/>
</clipPath>
</defs>
</svg>
