<svg width="48" height="48" viewBox="0 0 48 48" fill="none" xmlns="http://www.w3.org/2000/svg">
<g clip-path="url(#clip0_3240_8956)">
<path d="M8.24887 33.3771L6.0922 35.5338C5.37135 34.5565 4.81763 33.4305 4.48433 32.1866L0.343223 16.7318C-1.08619 11.3971 2.07963 5.91375 7.41429 4.48433L22.8691 0.343223C27.9686 -1.02319 33.204 1.80947 34.9043 6.72171L32.4758 9.15013L32.2188 8.19075C31.2182 4.45649 27.3798 2.24041 23.6456 3.241L8.19075 7.38211C4.45648 8.3827 2.24041 12.2211 3.241 15.9553L7.38211 31.4101C7.57378 32.1255 7.86959 32.7851 8.24887 33.3771Z" fill="#18202A"/>
<path fill-rule="evenodd" clip-rule="evenodd" d="M45.558 4.57626L38.0907 12.0436L38.8858 12.1131C44.3876 12.5945 48.4575 17.4448 47.9761 22.9467L46.5817 38.8858C46.1003 44.3876 41.25 48.4575 35.7481 47.9762L19.809 46.5817C15.4775 46.2027 12.0335 43.1159 10.9992 39.135L4.57629 45.558C3.98693 46.1473 3.0314 46.1473 2.44205 45.558C1.85269 44.9686 1.85269 44.0131 2.44205 43.4237L43.4238 2.44202C44.0131 1.85266 44.9687 1.85266 45.558 2.44202C46.1474 3.03137 46.1474 3.98691 45.558 4.57626ZM21.6037 29.4602L18.1875 31.9468L23.3853 26.749C25.7753 26.5596 27.7492 24.6679 27.9651 22.2001L27.9679 22.1663L35.3215 14.8128L38.6243 15.1017C42.4756 15.4387 45.3245 18.8339 44.9876 22.6852L43.9245 34.8355L36.4901 25.9072L26.3504 33.2242L21.6037 29.4602ZM13.9972 38.7074L21.526 33.2273L26.2651 36.9853L35.9758 29.9778L43.4947 39.0075L43.5562 38.9563C43.0591 42.6379 39.7494 45.3148 36.0096 44.9876L20.0705 43.5931C17.1582 43.3383 14.819 41.3346 13.9972 38.7074Z" fill="#18202A"/>
<path d="M18.2497 23.3762L24.5959 17.03C24.2232 16.9035 23.8295 16.8192 23.4199 16.7834C20.669 16.5427 18.2438 18.5776 18.0032 21.3286C17.9406 22.0441 18.0319 22.7375 18.2497 23.3762Z" fill="#18202A"/>
<path d="M15.1017 20.0705L14.483 27.143L11.1828 30.4432L12.1131 19.809C12.5945 14.3072 17.4448 10.2373 22.9466 10.7187L30.2669 11.3591L27.4977 14.1283L22.6852 13.7072C18.8339 13.3703 15.4387 16.2192 15.1017 20.0705Z" fill="#18202A"/>
</g>
<defs>
<clipPath id="clip0_3240_8956">
<rect width="48" height="48" fill="white"/>
</clipPath>
</defs>
</svg>
