<svg width="48" height="48" viewBox="0 0 48 48" fill="none" xmlns="http://www.w3.org/2000/svg">
<path fill-rule="evenodd" clip-rule="evenodd" d="M10 33.9998L21.6267 44.6266C24.8354 47.5594 30 45.2831 30 40.936V7.06406C30 2.71703 24.8356 0.44064 21.6268 3.37331L10 13.9998H6C2.68629 13.9998 0 16.686 0 19.9998V27.9998C0 31.3135 2.68629 33.9998 6 33.9998H10ZM11.1645 30.9998L23.6507 42.4122C24.9342 43.5854 27 42.6748 27 40.936V7.06406C27 5.32524 24.9342 4.4147 23.6507 5.58776L11.1644 16.9998H11V30.9998H11.1645ZM8 30.9998V16.9998H6C4.34315 16.9998 3 18.3429 3 19.9998V27.9998C3 29.6566 4.34315 30.9998 6 30.9998H8Z" fill="#18202A"/>
<path d="M43.2502 15.2565C42.8613 14.5251 41.953 14.2474 41.2216 14.6363C40.4901 15.0253 40.2124 15.9335 40.6014 16.665C41.8337 18.9827 42.4979 21.6952 42.4979 24.4805C42.4979 27.2657 41.8337 29.9782 40.6014 32.296C40.2124 33.0274 40.4901 33.9357 41.2216 34.3246C41.953 34.7135 42.8613 34.4358 43.2502 33.7044C44.7242 30.9322 45.4979 27.7328 45.4979 24.4805C45.4979 21.2281 44.7242 18.0287 43.2502 15.2565Z" fill="#18202A"/>
<path d="M37.3661 18.4463C36.9017 17.7603 35.9691 17.5807 35.2831 18.0452C34.5971 18.5096 34.4175 19.4422 34.8819 20.1282C35.714 21.3572 36.1878 22.9266 36.1878 24.5731C36.1878 26.2195 35.714 27.7889 34.8819 29.018C34.4175 29.704 34.5971 30.6366 35.2831 31.101C35.9691 31.5654 36.9017 31.3858 37.3661 30.6998C38.5573 28.9405 39.1878 26.7769 39.1878 24.5731C39.1878 22.3692 38.5573 20.2057 37.3661 18.4463Z" fill="#18202A"/>
</svg>
