<svg width="48" height="48" viewBox="0 0 48 48" fill="none" xmlns="http://www.w3.org/2000/svg">
<path fill-rule="evenodd" clip-rule="evenodd" d="M24.8787 34.9393C24.2929 35.5251 24.2929 36.4749 24.8787 37.0607C25.4645 37.6464 26.4142 37.6464 27 37.0607L39 25.0607C39.5858 24.4749 39.5858 23.5251 39 22.9393L27 10.9393C26.4142 10.3536 25.4645 10.3536 24.8787 10.9393C24.2929 11.5251 24.2929 12.4749 24.8787 13.0607L35.818 24L24.8787 34.9393ZM8.93933 34.9393C8.35355 35.5251 8.35355 36.4749 8.93933 37.0607C9.52512 37.6464 10.4749 37.6464 11.0607 37.0607L23.0607 25.0607C23.6464 24.4749 23.6464 23.5251 23.0607 22.9393L11.0607 10.9393C10.4749 10.3536 9.52512 10.3536 8.93933 10.9393C8.35355 11.5251 8.35355 12.4749 8.93933 13.0607L19.8787 24L8.93933 34.9393Z" fill="#18202A"/>
</svg>
