<svg width="48" height="48" viewBox="0 0 48 48" fill="none" xmlns="http://www.w3.org/2000/svg">
<path fill-rule="evenodd" clip-rule="evenodd" d="M23.4044 11.2C23.7046 11.5473 24.297 11.5473 24.5956 11.2C26.904 8.51914 30.2983 6 33.9063 6C40.5754 6 46 11.2266 46 17.649C46 21.3026 44.0624 24.1563 42.4376 25.9069C40.7538 27.7196 37.6926 31.1892 34.5135 34.7923C32.2385 37.3706 29.9029 40.0178 27.9675 42.1763C25.797 44.597 22.203 44.597 20.0325 42.1763C18.0969 40.0175 15.7608 37.3699 13.4856 34.7913C10.3065 31.1882 7.24613 27.7196 5.56243 25.9069C3.93757 24.1563 2 21.3026 2 17.649C2 11.2266 7.42457 6 14.0937 6C17.7017 6 21.096 8.51914 23.4044 11.2ZM40.2388 23.866C41.6256 22.3718 43 20.2184 43 17.649C43 12.9881 39.0253 9 33.9063 9C31.6166 9 28.9819 10.7036 26.8689 13.1575C25.3699 14.899 22.6277 14.8892 21.1347 13.1617L21.1311 13.1575C19.0181 10.7036 16.3834 9 14.0937 9C8.97475 9 5 12.9881 5 17.649C5 20.218 6.37395 22.3711 7.76055 23.8652C9.46181 25.6969 12.5818 29.2326 15.7918 32.8704C18.0608 35.4418 20.3752 38.0646 22.2661 40.1735C23.2444 41.2645 24.7556 41.2645 25.7339 40.1735C27.6247 38.0647 29.939 35.442 32.2079 32.8708C35.4175 29.2334 38.5377 25.6975 40.2388 23.866Z" fill="#18202A"/>
</svg>
