<svg width="48" height="48" viewBox="0 0 48 48" fill="none" xmlns="http://www.w3.org/2000/svg">
<path fill-rule="evenodd" clip-rule="evenodd" d="M34 44C39.5229 44 44 39.5229 44 34C44 28.4772 39.5229 24 34 24C28.4772 24 24 28.4772 24 34C24 39.5229 28.4772 44 34 44ZM34 48C41.732 48 48 41.732 48 34C48 26.268 41.732 20 34 20C26.268 20 20 26.268 20 34C20 41.732 26.268 48 34 48Z" fill="#18202A"/>
<path fill-rule="evenodd" clip-rule="evenodd" d="M26.5 34C26.5 30.4101 29.4101 27.5 33 27.5H38C38.8284 27.5 39.5 28.1716 39.5 29C39.5 29.8284 38.8284 30.5 38 30.5H33C31.067 30.5 29.5 32.067 29.5 34C29.5 35.933 31.067 37.5 33 37.5H37C37.8284 37.5 38.5 36.8284 38.5 36C38.5 35.7239 38.2761 35.5 38 35.5H35C34.1716 35.5 33.5 34.8284 33.5 34C33.5 33.1716 34.1716 32.5 35 32.5H38C39.933 32.5 41.5 34.067 41.5 36C41.5 38.4853 39.4853 40.5 37 40.5H33C29.4101 40.5 26.5 37.5899 26.5 34Z" fill="#18202A"/>
<path fill-rule="evenodd" clip-rule="evenodd" d="M0 12C0 10.5723 0.869893 9.53039 1.70507 8.8722C2.5628 8.19623 3.68001 7.67496 4.88226 7.27421C7.30768 6.46573 10.5311 6 14 6C17.4689 6 20.6923 6.46573 23.1177 7.27421C24.32 7.67496 25.4372 8.19623 26.2949 8.8722C27.1301 9.53039 28 10.5723 28 12V21.3473C24.6521 22.9377 22.0355 25.8177 20.7923 29.3455C18.7809 29.7673 16.4517 30 14 30C10.5311 30 7.30768 29.5343 4.88226 28.7258C4.58196 28.6257 4.28697 28.5181 4 28.4024V29.8247C4.03547 29.8624 4.09251 29.9164 4.18097 29.9862C4.53771 30.2673 5.17786 30.608 6.14717 30.9311C8.0649 31.5703 10.8414 32 14 32C16.3623 32 18.511 31.7596 20.2464 31.371C20.0847 32.2225 20 33.1014 20 34C20 34.5016 20.0264 34.997 20.0778 35.4849C18.2374 35.8183 16.1665 36 14 36C10.5311 36 7.30768 35.5343 4.88226 34.7258C4.58196 34.6257 4.28697 34.5181 4 34.4024V35.8247C4.03547 35.8624 4.09251 35.9164 4.18097 35.9862C4.53771 36.2673 5.17786 36.608 6.14717 36.9311C8.0649 37.5703 10.8414 38 14 38C16.4325 38 18.6384 37.7452 20.3999 37.336C20.7258 38.6692 21.2427 39.9276 21.9198 41.0804C19.6752 41.6689 16.9248 42 14 42C10.5311 42 7.30768 41.5343 4.88226 40.7258C3.68001 40.325 2.5628 39.8038 1.70507 39.1278C0.869893 38.4696 0 37.4277 0 36V12ZM6.14717 11.0689C5.19371 11.3868 4.55874 11.7216 4.1987 12C4.55874 12.2784 5.19371 12.6132 6.14717 12.9311C8.0649 13.5703 10.8414 14 14 14C17.1586 14 19.9351 13.5703 21.8528 12.9311C22.8063 12.6132 23.4413 12.2784 23.8013 12C23.4413 11.7216 22.8063 11.3868 21.8528 11.0689C19.9351 10.4297 17.1586 10 14 10C10.8414 10 8.0649 10.4297 6.14717 11.0689ZM4 23.8247V22.4024C4.28697 22.5181 4.58196 22.6257 4.88226 22.7258C7.30768 23.5343 10.5311 24 14 24C17.4689 24 20.6923 23.5343 23.1177 22.7258C23.418 22.6257 23.713 22.5181 24 22.4024V23.8247C23.9645 23.8624 23.9075 23.9164 23.819 23.9862C23.4623 24.2673 22.8221 24.608 21.8528 24.9311C19.9351 25.5703 17.1586 26 14 26C10.8414 26 8.0649 25.5703 6.14717 24.9311C5.17786 24.608 4.53771 24.2673 4.18097 23.9862C4.09251 23.9164 4.03547 23.8624 4 23.8247ZM24 16.4024C23.713 16.5181 23.418 16.6257 23.1177 16.7258C20.6923 17.5343 17.4689 18 14 18C10.5311 18 7.30768 17.5343 4.88226 16.7258C4.58196 16.6257 4.28697 16.5181 4 16.4024V17.8247C4.03547 17.8624 4.09251 17.9164 4.18097 17.9862C4.53771 18.2673 5.17786 18.608 6.14717 18.9311C8.0649 19.5703 10.8414 20 14 20C17.1586 20 19.9351 19.5703 21.8528 18.9311C22.8221 18.608 23.4623 18.2673 23.819 17.9862C23.9075 17.9164 23.9645 17.8624 24 17.8247V16.4024Z" fill="#18202A"/>
</svg>
