<svg width="48" height="48" viewBox="0 0 48 48" fill="none" xmlns="http://www.w3.org/2000/svg">
<path fill-rule="evenodd" clip-rule="evenodd" d="M24 43C34.4934 43 43 34.4934 43 24C43 13.5066 34.4934 5 24 5C13.5066 5 5 13.5066 5 24C5 34.4934 13.5066 43 24 43ZM46 24C46 36.1503 36.1503 46 24 46C11.8497 46 2 36.1503 2 24C2 11.8497 11.8497 2 24 2C36.1503 2 46 11.8497 46 24Z" fill="#18202A"/>
<path fill-rule="evenodd" clip-rule="evenodd" d="M39.0607 8.93934C38.4749 8.35355 37.5251 8.35355 36.9393 8.93934L8.93934 36.9393C8.35355 37.5251 8.35355 38.4749 8.93934 39.0607C9.52513 39.6464 10.4749 39.6464 11.0607 39.0607L39.0607 11.0607C39.6464 10.4749 39.6464 9.52513 39.0607 8.93934Z" fill="#18202A"/>
</svg>
