<svg width="48" height="48" viewBox="0 0 48 48" fill="none" xmlns="http://www.w3.org/2000/svg">
<path fill-rule="evenodd" clip-rule="evenodd" d="M2 10C2 5.58172 5.58172 2 10 2H38C42.4183 2 46 5.58172 46 10V38C46 42.4183 42.4183 46 38 46H10C5.58172 46 2 42.4183 2 38V10ZM24 22C26.6667 22 28 19.5 28 16.375C28 13.875 26.6667 12 24 12C21.3333 12 20 13.875 20 16.375C20 19.5 21.3333 22 24 22ZM13 22C15 22 16 20 16 17.5C16 15.5 15 14 13 14C11 14 10 15.5 10 17.5C10 20 11 22 13 22ZM38 17.5C38 20 37 22 35 22C33 22 32 20 32 17.5C32 15.5 33 14 35 14C37 14 38 15.5 38 17.5ZM16.2256 24.4354C16.3773 24.3301 16.5312 24.2278 16.6873 24.1286C16.0415 24.0184 15.3766 23.9609 14.6978 23.9609C12.8183 23.9609 11.0463 24.4015 9.48857 25.1806C8.16624 25.842 7.61016 27.3919 8.05158 28.803C8.13729 29.077 8.22855 29.3487 8.32523 29.618C8.74626 30.7908 9.79243 31.6182 11.0267 31.7896C12.0734 31.935 13.1409 32.0191 14.225 32.0381C14.1567 31.8486 14.0907 31.6581 14.0271 31.4664C13.2107 29.0062 13.8791 26.0636 16.2256 24.4354ZM33.778 32.0314C33.8455 31.8442 33.9107 31.6558 33.9736 31.4663C34.7899 29.0061 34.1215 26.0637 31.7751 24.4354C31.6045 24.3171 31.4311 24.2025 31.2551 24.0918C31.8286 24.0056 32.4164 23.9609 33.0152 23.9609C35.0373 23.9609 36.935 24.4709 38.5753 25.3638C39.849 26.0571 40.3608 27.5834 39.9165 28.9638C39.8521 29.1639 39.7848 29.3628 39.7145 29.5604C39.3013 30.7221 38.2747 31.5487 37.0561 31.7356C35.9844 31.8999 34.8902 32 33.778 32.0314ZM31.1827 33.091C30.5348 34.4905 29.2278 35.4692 27.705 35.7137C26.4981 35.9076 25.2607 36.0082 24.0002 36.0082C22.7398 36.0082 21.5025 35.9076 20.2956 35.7138C18.7729 35.4692 17.4659 34.4906 16.8179 33.0911C16.48 32.3613 16.1815 31.6088 15.9253 30.8365C15.3456 29.0896 15.8537 27.1278 17.3658 26.0785C19.256 24.7668 21.5402 24 24.0002 24C26.4604 24 28.7445 24.7668 30.6348 26.0786C32.1469 27.1278 32.6549 29.0896 32.0753 30.8365C31.8191 31.6087 31.5206 32.3612 31.1827 33.091Z" fill="#18202A"/>
</svg>
