<svg width="48" height="48" viewBox="0 0 48 48" fill="none" xmlns="http://www.w3.org/2000/svg">
<path d="M24 2C36.1503 2 46 11.8497 46 24C46 36.1503 36.1503 46 24 46C11.8497 46 2 36.1503 2 24C2 11.8497 11.8497 2 24 2ZM29.7841 11.8122C28.2073 12.6972 27.7685 13.6472 28.0607 13.9393C29.7864 15.665 30.9724 18.487 31.1224 21.0369C31.3052 24.1441 29.8916 26.5 27 26.5C24.814 26.5 24.4476 27.5993 25.423 30.5257C26.067 32.4574 24.9415 34.1019 22.9849 34.2359C21.4833 34.3388 19.7161 33.5569 18.1465 32.0991C17.4567 31.4584 17.1356 30.7383 16.6816 29.271L16.4063 28.3871C16.0204 27.2006 15.6649 26.5759 15.1741 26.2522C12.2808 24.344 10.5645 24.8899 8.51328 27.386L7.41389 28.808L7.29113 28.9708L7.10424 29.2097C6.77362 29.623 6.5042 29.9153 6.21769 30.1472L6.05774 30.2667C8.64713 37.6811 15.7024 43 24 43C24.4088 43 24.8145 42.9871 25.2169 42.9617L25.213 43.0363C25.213 41.6777 26.8658 38.0497 28.8528 35.78C31.8847 32.3171 35.8314 31.1877 40.2814 33.4511L40.4383 33.5342C42.0672 30.7318 43 27.4748 43 24C43 19.2807 41.2794 14.9633 38.4314 11.6409L38.6061 11.7066C35.2527 10.3651 32.0462 10.5427 29.7841 11.8122ZM31.11 37.7562C29.8528 39.1922 28.7238 41.4236 28.3464 42.5009C32.4889 41.5303 36.1069 39.2077 38.712 36.0241C35.6803 34.5671 33.244 35.3188 31.11 37.7562ZM24 5C13.5066 5 5 13.5066 5 24C5 24.9408 5.06838 25.8656 5.20043 26.7698L6.19546 25.4813C9.12046 21.9218 12.4511 20.8626 16.8258 23.7478C17.9348 24.4792 18.5684 25.4912 19.1127 27.0271L19.355 27.7599L19.5475 28.3842C19.8404 29.3306 20.0286 29.7528 20.1881 29.9009C20.9964 30.6516 21.7993 31.0855 22.3848 31.2087L22.496 31.226L22.4528 31.0852C21.1594 26.8378 22.2549 23.6898 26.5964 23.5083L27 23.5C27.8084 23.5 28.2216 22.8113 28.1276 21.2131C28.0277 19.5142 27.2589 17.5727 26.2078 16.3506L25.9393 16.0607C23.8495 13.9708 25.2634 10.9093 28.3159 9.19609C29.9265 8.29213 31.8394 7.79986 33.8999 7.77973C31.0164 6.01622 27.6269 5 24 5Z" fill="#18202A"/>
</svg>
