<svg width="48" height="48" viewBox="0 0 48 48" fill="none" xmlns="http://www.w3.org/2000/svg">
<path d="M38 14C43.5228 14 48 18.4772 48 24C48 29.5228 43.5228 34 38 34H28V27.4652C29.5297 28.3494 31.5197 28.1372 32.8284 26.8284C34.3905 25.2663 34.3905 22.7337 32.8284 21.1716L26.8284 15.1716C26.0783 14.4214 25.0609 14 24 14C22.9391 14 21.9217 14.4214 21.1716 15.1716L15.1716 21.1716C13.6095 22.7337 13.6095 25.2663 15.1716 26.8284C16.4803 28.1372 18.4703 28.3494 20 27.4652V34H10C4.47715 34 0 29.5228 0 24C0 18.4772 4.47715 14 10 14C10.193 14 10.3847 14.0055 10.5749 14.0163C12.2908 8.22493 17.652 4 24 4C30.348 4 35.7092 8.22493 37.4251 14.0163C37.6153 14.0055 37.807 14 38 14Z" fill="#18202A"/>
<path fill-rule="evenodd" clip-rule="evenodd" d="M24 44C25.1046 44 26 43.1046 26 42V22.8284L28.5858 25.4142C29.3668 26.1953 30.6332 26.1953 31.4142 25.4142C32.1953 24.6332 32.1953 23.3668 31.4142 22.5858L25.4142 16.5858C25.0391 16.2107 24.5304 16 24 16C23.4696 16 22.9609 16.2107 22.5858 16.5858L16.5858 22.5858C15.8047 23.3668 15.8047 24.6332 16.5858 25.4142C17.3668 26.1953 18.6332 26.1953 19.4142 25.4142L22 22.8284V42C22 43.1046 22.8954 44 24 44Z" fill="#18202A"/>
</svg>
