<svg width="48" height="48" viewBox="0 0 48 48" fill="none" xmlns="http://www.w3.org/2000/svg">
<path fill-rule="evenodd" clip-rule="evenodd" d="M40.1973 11C39.1599 12.7934 37.2208 14 35 14C32.7792 14 30.8401 12.7934 29.8027 11H6C4.34315 11 3 12.3431 3 14V34C3 35.6569 4.34315 37 6 37H29.8027C30.8401 35.2066 32.7792 34 35 34C37.2208 34 39.1599 35.2066 40.1973 37H42C43.6569 37 45 35.6569 45 34V14C45 12.3431 43.6569 11 42 11H40.1973ZM38 40C38 38.3431 36.6569 37 35 37C33.3431 37 32 38.3431 32 40H6C2.68629 40 0 37.3137 0 34V14C0 10.6863 2.68629 8 6 8H32C32 9.65685 33.3431 11 35 11C36.6569 11 38 9.65685 38 8H42C45.3137 8 48 10.6863 48 14V34C48 37.3137 45.3137 40 42 40H38ZM6 17C6 16.4477 6.44772 16 7 16H26C26.5523 16 27 16.4477 27 17V18C27 18.5523 26.5523 19 26 19H7C6.44772 19 6 18.5523 6 18V17ZM7 22C6.44772 22 6 22.4477 6 23V24C6 24.5523 6.44772 25 7 25H26C26.5523 25 27 24.5523 27 24V23C27 22.4477 26.5523 22 26 22H7ZM6 29C6 28.4477 6.44772 28 7 28H13C13.5523 28 14 28.4477 14 29V30C14 30.5523 13.5523 31 13 31H7C6.44772 31 6 30.5523 6 30V29ZM36 18H34V30H36V18Z" fill="#18202A"/>
</svg>
