<svg width="48" height="48" viewBox="0 0 48 48" fill="none" xmlns="http://www.w3.org/2000/svg">
<path d="M12.5 4C13.3284 4 14 4.67157 14 5.5C14 6.32843 13.3284 7 12.5 7H10C8.34315 7 7 8.34315 7 10V12.5C7 13.3284 6.32843 14 5.5 14C4.67157 14 4 13.3284 4 12.5V10C4 6.68629 6.68629 4 10 4H12.5Z" fill="#18202A"/>
<path d="M34 5.5C34 6.32843 34.6716 7 35.5 7H38C39.6569 7 41 8.34315 41 10V12.5C41 13.3284 41.6716 14 42.5 14C43.3284 14 44 13.3284 44 12.5V10C44 6.68629 41.3137 4 38 4H35.5C34.6716 4 34 4.67157 34 5.5Z" fill="#18202A"/>
<path d="M34 42.5C34 41.6716 34.6716 41 35.5 41H38C39.6569 41 41 39.6569 41 38V35.5C41 34.6716 41.6716 34 42.5 34C43.3284 34 44 34.6716 44 35.5V38C44 41.3137 41.3137 44 38 44H35.5C34.6716 44 34 43.3284 34 42.5Z" fill="#18202A"/>
<path d="M7 35.5C7 34.6716 6.32843 34 5.5 34C4.67157 34 4 34.6716 4 35.5V38C4 41.3137 6.68629 44 10 44H12.5C13.3284 44 14 43.3284 14 42.5C14 41.6716 13.3284 41 12.5 41H10C8.34315 41 7 39.6569 7 38V35.5Z" fill="#18202A"/>
<path fill-rule="evenodd" clip-rule="evenodd" d="M12 26C10.8954 26 10 26.8954 10 28V36C10 37.1046 10.8954 38 12 38H20C21.1046 38 22 37.1046 22 36V28C22 26.8954 21.1046 26 20 26H12ZM13 29V35H19V29H13Z" fill="#18202A"/>
<path fill-rule="evenodd" clip-rule="evenodd" d="M12 10C10.8954 10 10 10.8954 10 12V20C10 21.1046 10.8954 22 12 22H20C21.1046 22 22 21.1046 22 20V12C22 10.8954 21.1046 10 20 10H12ZM13 13V19H19V13H13Z" fill="#18202A"/>
<path fill-rule="evenodd" clip-rule="evenodd" d="M28 10C26.8954 10 26 10.8954 26 12V20C26 21.1046 26.8954 22 28 22H36C37.1046 22 38 21.1046 38 20V12C38 10.8954 37.1046 10 36 10H28ZM29 13V19H35V13H29Z" fill="#18202A"/>
<path d="M26 26H29V29H26V26Z" fill="#18202A"/>
<path fill-rule="evenodd" clip-rule="evenodd" d="M32 29H29V32H26V35H29V38H32V35H35V38H38V35H35V32H38V29H35V26H32V29ZM32 32H35V29H32V32ZM32 32V35H29V32H32Z" fill="#18202A"/>
</svg>
