<svg width="48" height="48" viewBox="0 0 48 48" fill="none" xmlns="http://www.w3.org/2000/svg">
<g clip-path="url(#clip0_3860_8794)">
<path d="M34.9977 6.00192C35.5499 6.00198 35.9975 6.44961 35.9976 7.00181L35.9999 27.585C36 28.476 34.9228 28.9223 34.2928 28.2923L28.7073 22.7067C28.3167 22.3162 27.6784 22.3204 27.2926 22.7155C18.6438 31.5705 17.7534 36.5606 19.4229 44.4226C19.6346 45.4197 18.4484 46.0691 17.7957 45.2862C7.5156 32.9556 12.2737 22.1077 19.3021 14.7154C19.6826 14.3152 19.6836 13.6831 19.293 13.2925L13.7075 7.70712C13.0775 7.07712 13.5237 5.99992 14.4147 6L34.9977 6.00192Z" fill="#18202A"/>
</g>
<defs>
<clipPath id="clip0_3860_8794">
<rect width="48" height="48" fill="white"/>
</clipPath>
</defs>
</svg>
