<svg width="48" height="48" viewBox="0 0 48 48" fill="none" xmlns="http://www.w3.org/2000/svg">
<path fill-rule="evenodd" clip-rule="evenodd" d="M24 14C26.2091 14 28 12.2091 28 10C28 7.79086 26.2091 6 24 6C21.7909 6 20 7.79086 20 10C20 12.2091 21.7909 14 24 14ZM32 10C32 13.7277 29.4505 16.8599 26 17.748V41.8886C30.038 41.4373 33.8271 39.6288 36.7279 36.7279C39.6288 33.8271 41.4373 30.038 41.8886 26H38C36.8954 26 36 25.1046 36 24C36 22.8954 36.8954 22 38 22H44C45.1046 22 46 22.8954 46 24C46 29.8348 43.6821 35.4305 39.5564 39.5564C35.4305 43.6822 29.8348 46 24 46C18.1652 46 12.5695 43.6822 8.44365 39.5564C4.31785 35.4305 2 29.8348 2 24C2 23.4696 2.21071 22.9609 2.58579 22.5858C2.96086 22.2107 3.46957 22 4 22H10C11.1046 22 12 22.8954 12 24C12 25.1046 11.1046 26 10 26H6.11139C6.56274 30.038 8.37122 33.8271 11.2721 36.7279C14.1729 39.6288 17.962 41.4373 22 41.8886V17.748C18.5495 16.8599 16 13.7277 16 10C16 5.58172 19.5817 2 24 2C28.4183 2 32 5.58172 32 10Z" fill="#18202A"/>
</svg>
