<svg width="48" height="48" viewBox="0 0 48 48" fill="none" xmlns="http://www.w3.org/2000/svg">
<path fill-rule="evenodd" clip-rule="evenodd" d="M24 15C26.7614 15 29 12.7614 29 10C29 7.23858 26.7614 5 24 5C21.2386 5 19 7.23858 19 10C19 12.7614 21.2386 15 24 15ZM32 10C32 13.9056 29.2013 17.1575 25.5 17.8596V42.9391C29.8573 42.5848 33.9674 40.6956 37.0815 37.5815C40.1956 34.4674 42.0848 30.3573 42.4391 26H38C37.1716 26 36.5 25.3284 36.5 24.5C36.5 23.6716 37.1716 23 38 23H44C44.8284 23 45.5 23.6716 45.5 24.5C45.5 30.2022 43.2348 35.6708 39.2028 39.7028C35.1708 43.7348 29.7022 46 24 46C18.2978 46 12.8292 43.7348 8.7972 39.7028C4.76517 35.6708 2.5 30.2022 2.5 24.5C2.5 24.1022 2.65804 23.7206 2.93934 23.4393C3.22064 23.158 3.60218 23 4 23H10C10.8284 23 11.5 23.6716 11.5 24.5C11.5 25.3284 10.8284 26 10 26H5.56087C5.91516 30.3573 7.80441 34.4674 10.9185 37.5815C14.0326 40.6956 18.1427 42.5848 22.5 42.9391V17.8596C18.7987 17.1575 16 13.9056 16 10C16 5.58172 19.5817 2 24 2C28.4183 2 32 5.58172 32 10Z" fill="#18202A"/>
</svg>
