<svg width="48" height="48" viewBox="0 0 48 48" fill="none" xmlns="http://www.w3.org/2000/svg">
<path d="M30 26C30 29.3137 27.3137 32 24 32C20.6863 32 18 29.3137 18 26C18 22.6863 20.6863 20 24 20C27.3137 20 30 22.6863 30 26Z" fill="#18202A"/>
<path fill-rule="evenodd" clip-rule="evenodd" d="M36.1392 8C35.8102 7.99995 35.4863 7.91875 35.1962 7.76359C34.9059 7.60834 34.6585 7.38383 34.4758 7.11L32.8518 4.672C32.3039 3.85013 31.5616 3.17623 30.6908 2.71011C29.8199 2.24399 28.8475 2.00007 27.8598 2H20.1398C19.152 2.00007 18.1796 2.24399 17.3087 2.71011C16.4379 3.17623 15.6956 3.85013 15.1478 4.672L13.5238 7.11C13.3411 7.38383 13.0936 7.60834 12.8033 7.76359C12.5132 7.91875 12.1893 7.99995 11.8604 8H12C6.47715 8 2 12.4772 2 18V34C2 39.5228 6.47715 44 12 44H36C41.5228 44 46 39.5228 46 34V18C46 12.4772 41.5228 8 36 8H36.1392ZM34 26C34 31.5228 29.5228 36 24 36C18.4772 36 14 31.5228 14 26C14 20.4772 18.4772 16 24 16C29.5228 16 34 20.4772 34 26Z" fill="#18202A"/>
</svg>
