<svg width="48" height="48" viewBox="0 0 48 48" fill="none" xmlns="http://www.w3.org/2000/svg">
<path fill-rule="evenodd" clip-rule="evenodd" d="M28.9998 2.57691C24.1644 1.44847 19.0895 1.98895 14.6002 4.11046C10.1109 6.23198 6.47129 9.80976 4.27319 14.262C2.07508 18.7143 1.44775 23.7793 2.49319 28.6333C3.53863 33.4873 6.19537 37.845 10.0314 40.9976C13.8674 44.1503 18.6572 45.9126 23.6218 45.998C28.5864 46.0834 33.4339 44.4868 37.376 41.4679C38.253 40.7963 38.4195 39.5409 37.7479 38.664C37.0763 37.787 35.821 37.6205 34.944 38.2921C31.7186 40.7621 27.7525 42.0684 23.6905 41.9986C19.6286 41.9287 15.7097 40.4869 12.5712 37.9074C9.43258 35.3279 7.25889 31.7626 6.40352 27.7911C5.54816 23.8196 6.06143 19.6756 7.85989 16.0328C9.65834 12.39 12.6362 9.46275 16.3092 7.72697C19.9823 5.99118 24.1345 5.54897 28.0908 6.47224C32.047 7.39551 35.5746 9.62996 38.0999 12.8123C40.6252 15.9945 41.9997 19.9376 42 24.0001V26C42 27.0608 41.5786 28.0783 40.8285 28.8284C40.0783 29.5786 39.0609 30 38 30C36.9392 30 35.9217 29.5786 35.1716 28.8284C34.4215 28.0783 34 27.0608 34 26V16C34 14.8954 33.1046 14 32 14C30.8957 14 30.0004 14.895 30 15.9993C28.3287 14.7439 26.2512 14 24 14C18.4772 14 14 18.4772 14 24C14 29.5228 18.4772 34 24 34C26.9762 34 29.6487 32.6998 31.4806 30.6365C31.7375 30.9977 32.0256 31.3393 32.3432 31.6568C33.8435 33.1571 35.8783 34 38 34C40.1218 34 42.1566 33.1571 43.6569 31.6568C45.1572 30.1565 46 28.1217 46 26V23.9999C45.9997 19.0345 44.3197 14.2153 41.2332 10.3258C38.1467 6.43634 33.8352 3.70535 28.9998 2.57691ZM18 24C18 20.6863 20.6863 18 24 18C27.3137 18 30 20.6863 30 24C30 27.3137 27.3137 30 24 30C20.6863 30 18 27.3137 18 24Z" fill="#18202A"/>
</svg>
