<svg width="48" height="48" viewBox="0 0 48 48" fill="none" xmlns="http://www.w3.org/2000/svg">
<g clip-path="url(#clip0_2414_8641)">
<path fill-rule="evenodd" clip-rule="evenodd" d="M25 42.9741C24.6689 42.9913 24.3354 43 24 43C13.5066 43 5 34.4934 5 24C5 13.5066 13.5066 5 24 5C34.4934 5 43 13.5066 43 24C43 24.965 42.9281 25.9133 42.7892 26.8397C43.7833 27.5452 44.6428 28.4278 45.3219 29.4415C45.7647 27.7012 46 25.8781 46 24C46 11.8497 36.1503 2 24 2C11.8497 2 2 11.8497 2 24C2 36.1503 11.8497 46 24 46C24.7499 46 25.491 45.9625 26.2216 45.8892C25.4432 45.1255 25.0038 44.057 25 42.9741ZM27.0078 35.1174C26.0322 35.3707 25.0197 35.5 24 35.5C22.1631 35.5 20.3494 35.0803 18.7334 34.2723C17.117 33.4641 15.7424 32.2888 14.7596 30.8434C14.2938 30.1583 14.4715 29.2254 15.1566 28.7596C15.8417 28.2938 16.7746 28.4715 17.2404 29.1566C17.9169 30.1514 18.8878 30.9954 20.0751 31.5891C21.2628 32.1829 22.6156 32.5 24 32.5C25.2375 32.5 26.4497 32.2466 27.5414 31.7687C27.1955 32.7824 27.0078 33.8693 27.0078 35V35.1174ZM20 20C20 22.2091 18.6569 24 17 24C15.3431 24 14 22.2091 14 20C14 17.7909 15.3431 16 17 16C18.6569 16 20 17.7909 20 20ZM31 24C32.6569 24 34 22.2091 34 20C34 17.7909 32.6569 16 31 16C29.3431 16 28 17.7909 28 20C28 22.2091 29.3431 24 31 24Z" fill="#18202A"/>
<path fill-rule="evenodd" clip-rule="evenodd" d="M44 35L44 35.0291V40C44 40.6295 44.2964 41.2223 44.8 41.6L45.6 42.2C46.3688 42.7766 45.961 44 45 44H29C28.039 44 27.6312 42.7766 28.4 42.2L29.2 41.6C29.7036 41.2223 30 40.6295 30 40V35C30 35 30 35 30 35C30 35 30 35 30 35C30.0001 31.134 33.1341 28 37 28C40.866 28 44 31.134 44 35ZM35 46C34.4478 46 34 46.4477 34 47C34 47.5523 34.4478 48 35 48H39C39.5523 48 40 47.5523 40 47C40 46.4477 39.5523 46 39 46H35Z" fill="#18202A"/>
</g>
<defs>
<clipPath id="clip0_2414_8641">
<rect width="48" height="48" fill="white"/>
</clipPath>
</defs>
</svg>
