<svg width="48" height="48" viewBox="0 0 48 48" fill="none" xmlns="http://www.w3.org/2000/svg">
<path d="M23.2502 2.10973C23.6412 1.99268 24.0542 1.96928 24.454 2.0395L24.7508 2.10973L44.2326 7.96964C45.2838 8.28648 46.001 9.22438 46 10.2853C46 36.2334 32.3896 42.4364 25.0758 45.7674C24.7358 45.9224 24.3686 46 24.0006 46C23.6324 46 23.2642 45.9224 22.9232 45.7674L21.864 45.2821C14.3739 41.8158 2 35.0265 2 10.2853C2 9.31189 2.60264 8.44268 3.51272 8.06128L3.76833 7.96964L23.2502 2.10973ZM24.002 6.06L6.01 11.472L6.02694 12.224C6.29571 21.738 8.56599 28.5777 12.41 33.4725L12.7996 33.9555C15.5667 37.2956 18.3001 39.1605 23.1373 41.4565L24 41.858L24.1536 41.789C29.1971 39.448 32.0358 37.6275 34.805 34.4233L35.2003 33.9559C39.2804 29.031 41.6953 22.0553 41.9731 12.2209L41.988 11.472L24.002 6.06Z" fill="#18202A"/>
<path fill-rule="evenodd" clip-rule="evenodd" d="M10.0302 14.8562L10 14.408L23.866 10.236L37.726 14.406L37.6978 14.8518C37.126 22.3479 35.102 27.6405 31.9841 31.404L31.6367 31.8141C29.6647 34.089 27.6072 35.5583 24.237 37.246L23.864 37.43L22.835 36.9116C19.6592 35.2613 17.6955 33.7594 15.7438 31.4036L15.389 30.9626C12.4724 27.2298 10.58 22.0596 10.0302 14.8562Z" fill="#18202A"/>
</svg>
