<svg width="48" height="48" viewBox="0 0 48 48" fill="none" xmlns="http://www.w3.org/2000/svg">
<path d="M9 20C10.6569 20 12 18.6569 12 17C12 15.3431 10.6569 14 9 14C7.34315 14 6 15.3431 6 17C6 18.6569 7.34315 20 9 20Z" fill="#18202A"/>
<path d="M9 34C10.6569 34 12 32.6569 12 31C12 29.3431 10.6569 28 9 28C7.34315 28 6 29.3431 6 31C6 32.6569 7.34315 34 9 34Z" fill="#18202A"/>
<path d="M26 17C26 18.6569 24.6569 20 23 20C21.3431 20 20 18.6569 20 17C20 15.3431 21.3431 14 23 14C24.6569 14 26 15.3431 26 17Z" fill="#18202A"/>
<path d="M23 34C24.6569 34 26 32.6569 26 31C26 29.3431 24.6569 28 23 28C21.3431 28 20 29.3431 20 31C20 32.6569 21.3431 34 23 34Z" fill="#18202A"/>
<path d="M40 17C40 18.6569 38.6569 20 37 20C35.3431 20 34 18.6569 34 17C34 15.3431 35.3431 14 37 14C38.6569 14 40 15.3431 40 17Z" fill="#18202A"/>
<path d="M37 34C38.6569 34 40 32.6569 40 31C40 29.3431 38.6569 28 37 28C35.3431 28 34 29.3431 34 31C34 32.6569 35.3431 34 37 34Z" fill="#18202A"/>
</svg>
