<svg width="48" height="48" viewBox="0 0 48 48" fill="none" xmlns="http://www.w3.org/2000/svg">
<g clip-path="url(#clip0_2294_8545)">
<path fill-rule="evenodd" clip-rule="evenodd" d="M0 12C0 5.37258 5.37258 0 12 0H36C42.6274 0 48 5.37258 48 12V36C48 42.6274 42.6274 48 36 48H12C5.37258 48 0 42.6274 0 36V12ZM6 24C6 14.0589 14.0589 6 24 6C33.9411 6 42 14.0589 42 24C42 33.9411 33.9411 42 24 42C14.0589 42 6 33.9411 6 24ZM32.0399 20.6332V20.6333V20.6334C32.0399 20.7834 32.0399 20.9334 32.0231 21.0833V27C32.0199 27.2042 32.0174 27.378 32.0152 27.5269C32.0056 28.1799 32.0031 28.3538 31.9894 28.5167C31.9556 29.0667 31.8882 29.5833 31.804 30.0333C31.5849 31.1333 31.1467 32.1167 30.5063 32.9333C28.9557 34.9667 26.7142 36 23.866 36C21.8436 36 20.0572 35.4833 18.5572 34.4667C16.9899 33.4 15.9281 31.9 15.3551 30.0167H18.6078C19.6021 32.1833 21.3212 33.2333 23.8492 33.2333C25.484 33.2333 26.7142 32.7667 27.658 31.8C28.5681 30.85 29.0232 29.5833 29.0232 27.9667V27.1667C27.4895 28.4833 25.5008 29.2667 23.3267 29.2667C18.5067 29.2667 14.5967 25.4 14.5967 20.6333C14.5967 15.8667 18.5067 12 23.3267 12C25.484 12 27.4727 12.7833 28.9895 14.0833V12H32.0231V20.1667C32.0399 20.3166 32.0399 20.4833 32.0399 20.6332ZM17.6471 20.6167C17.6471 23.7167 20.192 26.2333 23.3267 26.2333C26.4446 26.2333 28.9895 23.7167 29.0063 20.6167C29.0063 17.5167 26.4614 15 23.3267 15C20.192 15 17.6471 17.5167 17.6471 20.6167Z" fill="#18202A"/>
</g>
<defs>
<clipPath id="clip0_2294_8545">
<rect width="48" height="48" fill="white"/>
</clipPath>
</defs>
</svg>
