<svg width="48" height="48" viewBox="0 0 48 48" fill="none" xmlns="http://www.w3.org/2000/svg">
<path d="M20 24C20 26.2091 18.2091 28 16 28C13.7909 28 12 26.2091 12 24C12 21.7909 13.7909 20 16 20C18.2091 20 20 21.7909 20 24Z" fill="#18202A"/>
<path d="M14.5 30C12.0147 30 10 32.0147 10 34.5C10 35.3284 10.6716 36 11.5 36H20.5C21.3284 36 22 35.3284 22 34.5C22 32.0147 19.9853 30 17.5 30H14.5Z" fill="#18202A"/>
<path d="M27.5 24C26.6716 24 26 24.6716 26 25.5C26 26.3284 26.6716 27 27.5 27H36.5C37.3284 27 38 26.3284 38 25.5C38 24.6716 37.3284 24 36.5 24H27.5Z" fill="#18202A"/>
<path d="M26 31.5C26 30.6716 26.6716 30 27.5 30H36.5C37.3284 30 38 30.6716 38 31.5C38 32.3284 37.3284 33 36.5 33H27.5C26.6716 33 26 32.3284 26 31.5Z" fill="#18202A"/>
<path fill-rule="evenodd" clip-rule="evenodd" d="M18 8C18 4.68629 20.6863 2 24 2C27.3137 2 30 4.68629 30 8H38C42.4183 8 46 11.5817 46 16V36C46 40.4183 42.4183 44 38 44H10C5.58172 44 2 40.4183 2 36V16C2 11.5817 5.58172 8 10 8L18 8ZM24 5C25.6569 5 27 6.34315 27 8V13H21V8C21 6.34315 22.3431 5 24 5ZM43 16C43 13.2386 40.7614 11 38 11H30V14C30 15.1046 29.1046 16 28 16H20C18.8954 16 18 15.1046 18 14V11H10C7.23858 11 5 13.2386 5 16V36C5 38.7614 7.23858 41 10 41H38C40.7614 41 43 38.7614 43 36V16Z" fill="#18202A"/>
</svg>
