<svg width="48" height="48" viewBox="0 0 48 48" fill="none" xmlns="http://www.w3.org/2000/svg">
<path fill-rule="evenodd" clip-rule="evenodd" d="M6 11.999C6 7.58075 9.58172 3.99902 14 3.99902H34C38.4183 3.99902 42 7.58075 42 11.999V35.999C42 40.4173 38.4183 43.999 34 43.999H14C9.58172 43.999 6 40.4173 6 35.999V11.999ZM18 39.999V32C18 29.7909 19.7909 28 22 28H26C28.2091 28 30 29.7909 30 32V39.999H18ZM14 13.999C14 12.8945 14.8954 11.999 16 11.999C17.1046 11.999 18 12.8945 18 13.999C18 15.1036 17.1046 15.999 16 15.999C14.8954 15.999 14 15.1036 14 13.999ZM16 17.999C14.8954 17.999 14 18.8945 14 19.999C14 21.1036 14.8954 21.999 16 21.999C17.1046 21.999 18 21.1036 18 19.999C18 18.8945 17.1046 17.999 16 17.999ZM22 13.999C22 12.8945 22.8954 11.999 24 11.999C25.1046 11.999 26 12.8945 26 13.999C26 15.1036 25.1046 15.999 24 15.999C22.8954 15.999 22 15.1036 22 13.999ZM24 17.999C22.8954 17.999 22 18.8945 22 19.999C22 21.1036 22.8954 21.999 24 21.999C25.1046 21.999 26 21.1036 26 19.999C26 18.8945 25.1046 17.999 24 17.999ZM30 13.999C30 12.8945 30.8954 11.999 32 11.999C33.1046 11.999 34 12.8945 34 13.999C34 15.1036 33.1046 15.999 32 15.999C30.8954 15.999 30 15.1036 30 13.999ZM32 17.999C30.8954 17.999 30 18.8945 30 19.999C30 21.1036 30.8954 21.999 32 21.999C33.1046 21.999 34 21.1036 34 19.999C34 18.8945 33.1046 17.999 32 17.999Z" fill="#18202A"/>
</svg>
