<svg width="48" height="48" viewBox="0 0 48 48" fill="none" xmlns="http://www.w3.org/2000/svg">
<path fill-rule="evenodd" clip-rule="evenodd" d="M38 5H10C7.23858 5 5 7.23858 5 10V38C5 40.7614 7.23858 43 10 43H38C40.7614 43 43 40.7614 43 38V10C43 7.23858 40.7614 5 38 5ZM10 2C5.58172 2 2 5.58172 2 10V38C2 42.4183 5.58172 46 10 46H38C42.4183 46 46 42.4183 46 38V10C46 5.58172 42.4183 2 38 2H10ZM8 12C8 9.79086 9.79086 8 12 8C14.2091 8 16 9.79086 16 12C16 14.2091 14.2091 16 12 16C9.79086 16 8 14.2091 8 12ZM21.5 10.5C20.6716 10.5 20 11.1716 20 12C20 12.8284 20.6716 13.5 21.5 13.5H37.5C38.3284 13.5 39 12.8284 39 12C39 11.1716 38.3284 10.5 37.5 10.5H21.5ZM12 22H36C36.5523 22 37 22.4477 37 23V36C37 36.5523 36.5523 37 36 37H12C11.4477 37 11 36.5523 11 36V23C11 22.4477 11.4477 22 12 22ZM8 23C8 20.7909 9.79086 19 12 19H36C38.2091 19 40 20.7909 40 23V36C40 38.2091 38.2091 40 36 40H12C9.79086 40 8 38.2091 8 36V23Z" fill="#18202A"/>
</svg>
