<svg width="48" height="48" viewBox="0 0 48 48" fill="none" xmlns="http://www.w3.org/2000/svg">
<path d="M29.9393 7.56066C29.3536 6.97487 29.3536 6.02513 29.9393 5.43934C30.5251 4.85355 31.4749 4.85355 32.0607 5.43934L41.0607 14.4393C41.6464 15.0251 41.6464 15.9749 41.0607 16.5607L32.0607 25.5607C31.4749 26.1464 30.5251 26.1464 29.9393 25.5607C29.3536 24.9749 29.3536 24.0251 29.9393 23.4393L36.3787 17H18C13.0294 17 9 21.0294 9 26C9 30.9706 13.0294 35 18 35H32.5C33.3284 35 34 35.6716 34 36.5C34 37.3284 33.3284 38 32.5 38H18C11.3726 38 6 32.6274 6 26C6 19.3726 11.3726 14 18 14H36.3787L29.9393 7.56066Z" fill="#18202A"/>
</svg>
