<svg width="48" height="48" viewBox="0 0 48 48" fill="none" xmlns="http://www.w3.org/2000/svg">
<path fill-rule="evenodd" clip-rule="evenodd" d="M46 24C46 36.1503 36.1503 46 24 46C11.8497 46 2 36.1503 2 24C2 11.8497 11.8497 2 24 2C36.1503 2 46 11.8497 46 24ZM22.7051 12.8324C23.2288 11.7225 24.7712 11.7225 25.2949 12.8324L27.9316 18.4206L33.7722 19.3096C34.4071 19.4062 34.8025 19.879 34.9388 20.345C35.0747 20.8098 34.9946 21.3894 34.5748 21.8171L30.3335 26.1386L31.3416 32.2773C31.433 32.8338 31.2114 33.3615 30.8125 33.6833C30.4058 34.0114 29.797 34.1283 29.2433 33.8241L24 30.9435L18.7568 33.8241C18.2031 34.1283 17.5942 34.0114 17.1875 33.6833C16.7886 33.3615 16.567 32.8338 16.6584 32.2773L17.6666 26.1382L13.4245 21.8099C13.005 21.3818 12.9252 20.8022 13.0616 20.3373C13.1982 19.8714 13.5941 19.3988 14.2292 19.3028L20.0687 18.42L22.7051 12.8324Z" fill="#18202A"/>
</svg>
