<svg width="48" height="48" viewBox="0 0 48 48" fill="none" xmlns="http://www.w3.org/2000/svg">
<path fill-rule="evenodd" clip-rule="evenodd" d="M9 3H15V10.1346C14.6935 10.2893 14.3916 10.4516 14.0944 10.6214L9 6.69925V3ZM11.4851 12.3985L6.77993 8.77615C6.28814 8.39753 6 7.81205 6 7.1914V2C6 0.895432 6.89543 0 8 0H40C41.1046 0 42 0.895431 42 2V7.1914C42 7.81205 41.7119 8.39753 41.2201 8.77615L36.5149 12.3985C41.0787 16.0641 44 21.6909 44 28C44 39.0457 35.0457 48 24 48C12.9543 48 4 39.0457 4 28C4 21.6909 6.92132 16.0641 11.4851 12.3985ZM33.9056 10.6214L39 6.69925V3H33V10.1346C33.3065 10.2893 33.6084 10.4516 33.9056 10.6214ZM27 8.2235V3H21V8.2235C21.9786 8.0763 22.9804 8 24 8C25.0196 8 26.0214 8.0763 27 8.2235ZM41 28C41 37.3888 33.3888 45 24 45C14.6112 45 7 37.3888 7 28C7 18.6112 14.6112 11 24 11C33.3888 11 41 18.6112 41 28ZM24 39C30.0751 39 35 34.0751 35 28C35 21.9249 30.0751 17 24 17C17.9249 17 13 21.9249 13 28C13 34.0751 17.9249 39 24 39ZM24 42C31.732 42 38 35.732 38 28C38 20.268 31.732 14 24 14C16.268 14 10 20.268 10 28C10 35.732 16.268 42 24 42ZM26.2509 24.4075L24.5771 20.8807C24.3362 20.3731 23.6638 20.3731 23.4229 20.8807L21.7491 24.4075C21.6529 24.6101 21.4713 24.7496 21.2624 24.7814L17.5587 25.3444C17.0196 25.4263 16.8084 26.1452 17.2053 26.5473L19.8533 29.2297C20.0131 29.3916 20.0863 29.6296 20.0479 29.8624L19.419 33.6763C19.3253 34.2445 19.8735 34.6838 20.3505 34.4229L23.7068 32.5872C23.8911 32.4864 24.1089 32.4864 24.2932 32.5872L27.6495 34.4229C28.1265 34.6838 28.6747 34.2444 28.581 33.6763L27.9521 29.8624C27.9137 29.6296 27.9869 29.3916 28.1467 29.2297L30.7947 26.5473C31.1916 26.1452 30.9804 25.4263 30.4413 25.3444L26.7376 24.7814C26.5287 24.7496 26.3471 24.6101 26.2509 24.4075Z" fill="#18202A"/>
</svg>
