<svg width="48" height="48" viewBox="0 0 48 48" fill="none" xmlns="http://www.w3.org/2000/svg">
<path fill-rule="evenodd" clip-rule="evenodd" d="M40 10H33.8C32.8734 5.43552 28.8379 2 24 2C19.1621 2 15.1266 5.43552 14.2 10H8C4.68629 10 2 12.6863 2 16V20.093L17.6022 25.0936C21.7871 26.1792 26.211 26.1792 30.3959 25.0936L46 20.093V16C46 12.6863 43.3137 10 40 10ZM24 6C26.6124 6 28.8349 7.66962 29.6586 10H18.3414C19.1651 7.66962 21.3876 6 24 6ZM27 19C27 20.6569 25.6569 22 24 22C22.3431 22 21 20.6569 21 19C21 17.3431 22.3431 16 24 16C25.6569 16 27 17.3431 27 19Z" fill="#18202A"/>
<path d="M46 24.2572L31.2327 28.9896L31.193 29C26.4865 30.2289 21.5115 30.2289 16.8051 29L16.7653 28.9896L2 24.2572V36C2 39.3137 4.68629 42 8 42H40C43.3137 42 46 39.3137 46 36V24.2572Z" fill="#18202A"/>
</svg>
