<svg width="48" height="48" viewBox="0 0 48 48" fill="none" xmlns="http://www.w3.org/2000/svg">
<path fill-rule="evenodd" clip-rule="evenodd" d="M23.0607 13.0607C23.6464 12.4749 23.6464 11.5251 23.0607 10.9393C22.4749 10.3536 21.5251 10.3536 20.9393 10.9393L8.93934 22.9393C8.35355 23.5251 8.35355 24.4749 8.93934 25.0607L20.9393 37.0607C21.5251 37.6464 22.4749 37.6464 23.0607 37.0607C23.6464 36.4749 23.6464 35.5251 23.0607 34.9393L12.1213 24L23.0607 13.0607ZM39 13.0607C39.5858 12.4749 39.5858 11.5251 39 10.9393C38.4142 10.3536 37.4645 10.3536 36.8787 10.9393L24.8787 22.9393C24.2929 23.5251 24.2929 24.4749 24.8787 25.0607L36.8787 37.0607C37.4645 37.6464 38.4142 37.6464 39 37.0607C39.5858 36.4749 39.5858 35.5251 39 34.9393L28.0607 24L39 13.0607Z" fill="#18202A"/>
</svg>
