<svg width="48" height="48" viewBox="0 0 48 48" fill="none" xmlns="http://www.w3.org/2000/svg">
<path fill-rule="evenodd" clip-rule="evenodd" d="M40.9705 7.02998C36.2842 2.34369 28.6863 2.34369 24 7.02998L19.7573 11.2726C18.9763 12.0537 18.9763 13.32 19.7573 14.101C20.5384 14.8821 21.8047 14.8821 22.5858 14.101L26.8284 9.8584C29.9526 6.73421 35.0179 6.73421 38.1421 9.8584C41.2663 12.9826 41.2663 18.0479 38.1421 21.1721L33.8995 25.4148C33.1184 26.1958 33.1184 27.4621 33.8995 28.2432C34.6805 29.0242 35.9468 29.0242 36.7279 28.2432L40.9705 24.0005C45.6568 19.3142 45.6568 11.7163 40.9705 7.02998ZM7.02937 40.9694C2.34308 36.2831 2.34308 28.6852 7.02937 23.9989L11.272 19.7562C12.0531 18.9752 13.3194 18.9752 14.1004 19.7562C14.8815 20.5373 14.8815 21.8036 14.1004 22.5847L9.85779 26.8273C6.7336 29.9515 6.7336 35.0168 9.85779 38.141C12.982 41.2652 18.0473 41.2652 21.1715 38.141L25.4141 33.8984C26.1952 33.1173 27.4615 33.1173 28.2426 33.8984C29.0236 34.6794 29.0236 35.9457 28.2426 36.7268L23.9999 40.9694C19.3136 45.6557 11.7157 45.6557 7.02937 40.9694ZM14.1004 31.0699C13.3194 31.851 13.3194 33.1173 14.1004 33.8984C14.8815 34.6794 16.1478 34.6794 16.9289 33.8984L33.8994 16.9278C34.6805 16.1468 34.6805 14.8804 33.8994 14.0994C33.1184 13.3183 31.8521 13.3183 31.071 14.0994L14.1004 31.0699Z" fill="#18202A"/>
</svg>
