<svg width="48" height="48" viewBox="0 0 48 48" fill="none" xmlns="http://www.w3.org/2000/svg">
<path fill-rule="evenodd" clip-rule="evenodd" d="M7 4C5.34315 4 4 5.34315 4 7V19C4 20.6569 5.34315 22 7 22H19C20.6569 22 22 20.6569 22 19V7C22 5.34315 20.6569 4 19 4H7ZM7 26C5.34315 26 4 27.3431 4 29V41C4 42.6569 5.34315 44 7 44H19C20.6569 44 22 42.6569 22 41V29C22 27.3431 20.6569 26 19 26H7ZM26 7C26 5.34315 27.3431 4 29 4H41C42.6569 4 44 5.34315 44 7V19C44 20.6569 42.6569 22 41 22H29C27.3431 22 26 20.6569 26 19V7ZM29 26C27.3431 26 26 27.3431 26 29V41C26 42.6569 27.3431 44 29 44H41C42.6569 44 44 42.6569 44 41V29C44 27.3431 42.6569 26 41 26H29Z" fill="#18202A"/>
</svg>
