<svg width="48" height="48" viewBox="0 0 48 48" fill="none" xmlns="http://www.w3.org/2000/svg">
<path fill-rule="evenodd" clip-rule="evenodd" d="M26.6126 7.94314C26.612 7.94372 26.6115 7.94429 26.6109 7.94487L10.6065 24.0277L10.603 24.0312C6.51896 28.1153 6.51896 34.8529 10.603 38.9369C14.6871 43.021 21.4247 43.021 25.5088 38.9369L41.0458 23.3999C41.8269 22.6189 43.0932 22.6189 43.8743 23.3999C44.6553 24.181 44.6553 25.4473 43.8743 26.2283L28.3372 41.7654C22.691 47.4115 13.4208 47.4115 7.77461 41.7654C2.12904 36.1198 2.12843 26.8509 7.7728 21.2046C7.7734 21.204 7.77401 21.2034 7.77461 21.2028L23.779 5.1199L23.7825 5.11644C27.9377 0.961187 34.6969 0.961187 38.8522 5.11644C43.0074 9.27169 43.0074 16.0309 38.8522 20.1862L38.8485 20.1899L23.8644 35.0954C23.8636 35.0963 23.8628 35.0971 23.8619 35.0979C21.2597 37.6975 17.0356 37.6544 14.3965 35.1252L14.3661 35.0954C11.764 32.4934 11.8063 28.2674 14.3363 25.6275L14.3699 25.5932L28.8084 11.2332C29.5916 10.4543 30.8579 10.4578 31.6368 11.2409C32.4157 12.0241 32.4123 13.2904 31.6291 14.0694L17.2098 28.4103C16.1503 29.5317 16.191 31.2469 17.1797 32.2521C18.3067 33.3165 20.0331 33.2699 21.036 32.267L21.0397 32.2633L36.0238 17.3577C36.0244 17.3571 36.025 17.3564 36.0257 17.3558C38.6169 14.7625 38.6163 10.5374 36.0238 7.94487C33.4312 5.35229 29.2059 5.35171 26.6126 7.94314Z" fill="#18202A"/>
</svg>
