<svg width="48" height="48" viewBox="0 0 48 48" fill="none" xmlns="http://www.w3.org/2000/svg">
<g clip-path="url(#clip0_2294_8886)">
<path fill-rule="evenodd" clip-rule="evenodd" d="M24 22C29.3333 22 32 17 32 10.75C32 5.75 29.3333 2 24 2C18.6667 2 16 5.75 16 10.75C16 17 18.6667 22 24 22ZM24.0001 26C25.9455 26 27.8261 26.2778 29.6043 26.7958C26.2014 29.3498 24 33.4178 24 38C24 40.9387 24.9054 43.6658 26.4525 45.9178C25.642 45.9723 24.8243 46 24 46C20.9052 46 17.9016 45.6095 15.0359 44.875C12.5978 44.2502 10.5314 42.6171 9.39972 40.369C9.36839 40.3068 9.33726 40.2444 9.30633 40.1819C7.74188 37.0227 8.27388 33.1522 10.9433 30.8496C14.4469 27.8275 19.0101 26 24.0001 26ZM48 38C48 43.5229 43.5229 48 38 48C32.4772 48 28 43.5229 28 38C28 32.4772 32.4772 28 38 28C43.5229 28 48 32.4772 48 38ZM38 31C39.1046 31 40 31.8955 40 33V36H43C44.1046 36 45 36.8955 45 38C45 39.1046 44.1046 40 43 40H40V43C40 44.1046 39.1046 45 38 45C36.8955 45 36 44.1046 36 43V40H33C31.8955 40 31 39.1046 31 38C31 36.8955 31.8955 36 33 36H36V33C36 31.8955 36.8955 31 38 31Z" fill="#18202A"/>
</g>
<defs>
<clipPath id="clip0_2294_8886">
<rect width="48" height="48" fill="white"/>
</clipPath>
</defs>
</svg>
