<svg width="48" height="48" viewBox="0 0 48 48" fill="none" xmlns="http://www.w3.org/2000/svg">
<path d="M32 8C33.1046 8 34 7.10457 34 6C34 4.89543 33.1046 4 32 4H12C7.58172 4 4 7.58172 4 12V36C4 40.4183 7.58172 44 12 44H36C40.4183 44 44 40.4183 44 36V26C44 24.8954 43.1046 24 42 24C40.8954 24 40 24.8954 40 26V36C40 38.2091 38.2091 40 36 40H12C9.79086 40 8 38.2091 8 36V12C8 9.79086 9.79086 8 12 8H32Z" fill="#18202A"/>
<path d="M24.4142 32.4142L43.4142 13.4142C44.1953 12.6332 44.1953 11.3668 43.4142 10.5858C42.6332 9.80474 41.3668 9.80474 40.5858 10.5858L23 28.1716L17.4142 22.5858C16.6332 21.8047 15.3668 21.8047 14.5858 22.5858C13.8047 23.3668 13.8047 24.6332 14.5858 25.4142L21.5858 32.4142C22.3668 33.1953 23.6332 33.1953 24.4142 32.4142Z" fill="#18202A"/>
</svg>
