<svg width="48" height="48" viewBox="0 0 48 48" fill="none" xmlns="http://www.w3.org/2000/svg">
<path fill-rule="evenodd" clip-rule="evenodd" d="M31.0607 12.5607C30.4749 13.1464 29.5251 13.1464 28.9393 12.5607L24 7.62132L19.0607 12.5607C18.4749 13.1464 17.5251 13.1464 16.9393 12.5607C16.3536 11.9749 16.3536 11.0251 16.9393 10.4393L22.9393 4.43934C23.5251 3.85355 24.4749 3.85355 25.0607 4.43934L31.0607 10.4393C31.6464 11.0251 31.6464 11.9749 31.0607 12.5607ZM3.5 18C2.67157 18 2 18.6716 2 19.5C2 20.3284 2.67157 21 3.5 21H44.5C45.3284 21 46 20.3284 46 19.5C46 18.6716 45.3284 18 44.5 18H3.5ZM3.5 27C2.67157 27 2 27.6716 2 28.5C2 29.3284 2.67157 30 3.5 30H44.5C45.3284 30 46 29.3284 46 28.5C46 27.6716 45.3284 27 44.5 27H3.5ZM31.0607 37.5607C31.6464 36.9749 31.6464 36.0251 31.0607 35.4393C30.4749 34.8536 29.5251 34.8536 28.9393 35.4393L24 40.3787L19.0607 35.4393C18.4749 34.8536 17.5251 34.8536 16.9393 35.4393C16.3536 36.0251 16.3536 36.9749 16.9393 37.5607L22.9393 43.5607C23.5251 44.1464 24.4749 44.1464 25.0607 43.5607L31.0607 37.5607Z" fill="#18202A"/>
</svg>
