<svg width="48" height="48" viewBox="0 0 48 48" fill="none" xmlns="http://www.w3.org/2000/svg">
<path fill-rule="evenodd" clip-rule="evenodd" d="M5 24C5 34.4934 13.5066 43 24 43C34.4934 43 43 34.4934 43 24C43 13.5066 34.4934 5 24 5C13.5066 5 5 13.5066 5 24ZM2 24C2 36.1503 11.8497 46 24 46C36.1503 46 46 36.1503 46 24C46 11.8497 36.1503 2 24 2C11.8497 2 2 11.8497 2 24Z" fill="#18202A"/>
<path fill-rule="evenodd" clip-rule="evenodd" d="M33.0607 24.9393C33.6464 25.5251 33.6464 26.4749 33.0607 27.0607L25.0607 35.0607C24.4749 35.6464 23.5251 35.6464 22.9393 35.0607L14.9393 27.0607C14.3536 26.4749 14.3536 25.5251 14.9393 24.9393C15.5251 24.3536 16.4749 24.3536 17.0607 24.9393L22.5 30.3787V14C22.5 13.1716 23.1716 12.5 24 12.5C24.8284 12.5 25.5 13.1716 25.5 14V30.3787L30.9393 24.9393C31.5251 24.3536 32.4749 24.3536 33.0607 24.9393Z" fill="#18202A"/>
</svg>
