<svg width="48" height="48" viewBox="0 0 48 48" fill="none" xmlns="http://www.w3.org/2000/svg">
<path fill-rule="evenodd" clip-rule="evenodd" d="M24 16.1467L21.7607 20.8926L16.5953 21.6735L20.3389 25.4931L19.4708 30.7794L24 28.2911L28.5293 30.7794L27.661 25.4925L31.4047 21.678L26.2389 20.8917L24 16.1467ZM22.2529 12.819C22.9569 11.327 25.0431 11.327 25.7471 12.819L28.2701 18.1664L33.8475 19.0153C34.7085 19.1463 35.2382 19.7874 35.4187 20.4046C35.5987 21.0202 35.4942 21.7942 34.9316 22.3674L30.8679 26.5079L31.835 32.3963C31.9562 33.1344 31.6623 33.8402 31.1265 34.2724C30.5789 34.7142 29.7524 34.8743 29.0025 34.4623L24 31.714L18.9975 34.4623C18.2477 34.8743 17.4211 34.7142 16.8736 34.2724C16.3378 33.8402 16.0438 33.1344 16.165 32.3963L17.1322 26.5072L13.0674 22.3599C12.5052 21.7862 12.4013 21.0122 12.5818 20.3966C12.7627 19.7794 13.2931 19.1386 14.1544 19.0084L19.7303 18.1655L22.2529 12.819Z" fill="#18202A"/>
<path fill-rule="evenodd" clip-rule="evenodd" d="M24 43C34.4934 43 43 34.4934 43 24C43 13.5066 34.4934 5 24 5C13.5066 5 5 13.5066 5 24C5 34.4934 13.5066 43 24 43ZM46 24C46 36.1503 36.1503 46 24 46C11.8497 46 2 36.1503 2 24C2 11.8497 11.8497 2 24 2C36.1503 2 46 11.8497 46 24Z" fill="#18202A"/>
</svg>
