<svg width="48" height="48" viewBox="0 0 48 48" fill="none" xmlns="http://www.w3.org/2000/svg">
<path d="M14 24C14 26.2091 12.2091 28 10 28C7.79086 28 6 26.2091 6 24C6 21.7909 7.79086 20 10 20C12.2091 20 14 21.7909 14 24Z" fill="#18202A"/>
<path d="M28 24C28 26.2091 26.2091 28 24 28C21.7909 28 20 26.2091 20 24C20 21.7909 21.7909 20 24 20C26.2091 20 28 21.7909 28 24Z" fill="#18202A"/>
<path d="M42 24C42 26.2091 40.2091 28 38 28C35.7909 28 34 26.2091 34 24C34 21.7909 35.7909 20 38 20C40.2091 20 42 21.7909 42 24Z" fill="#18202A"/>
</svg>
