<svg width="48" height="48" viewBox="0 0 48 48" fill="none" xmlns="http://www.w3.org/2000/svg">
<path fill-rule="evenodd" clip-rule="evenodd" d="M24 5C26.7614 5 29 7.23858 29 10H19C19 7.23858 21.2386 5 24 5ZM16 10C16 5.58172 19.5817 2 24 2C28.4183 2 32 5.58172 32 10H40C43.3137 10 46 12.6863 46 16V20.6963V23.8466V36C46 39.3137 43.3137 42 40 42H8C4.68629 42 2 39.3137 2 36V23.8466V20.6963V16C2 12.6863 4.68629 10 8 10H16ZM5 24.8081V36C5 37.6569 6.34315 39 8 39H40C41.6569 39 43 37.6569 43 36V24.808L31.2327 28.579L31.193 28.5894C26.4865 29.8183 21.5115 29.8183 16.8051 28.5894L16.7653 28.579L5 24.8081ZM43 21.6577L30.3959 25.6969C26.211 26.7824 21.7871 26.7824 17.6021 25.6969L5 21.6578V16C5 14.3431 6.34315 13 8 13H16H32H40C41.6569 13 43 14.3431 43 16V21.6577ZM27 21C27 22.6569 25.6569 24 24 24C22.3431 24 21 22.6569 21 21C21 19.3431 22.3431 18 24 18C25.6569 18 27 19.3431 27 21Z" fill="#18202A"/>
</svg>
