<svg width="48" height="48" viewBox="0 0 48 48" fill="none" xmlns="http://www.w3.org/2000/svg">
<path d="M8 4C5.79086 4 4 5.79086 4 8V10C4 12.2091 5.79086 14 8 14H40C42.2091 14 44 12.2091 44 10V8C44 5.79086 42.2091 4 40 4H8Z" fill="#18202A"/>
<path fill-rule="evenodd" clip-rule="evenodd" d="M6 20C6 18.8954 6.89543 18 8 18H40C41.1046 18 42 18.8954 42 20V38C42 42.4183 38.4183 46 34 46H14C9.58172 46 6 42.4183 6 38V20ZM16 24C16 22.8954 16.8954 22 18 22H30C31.1046 22 32 22.8954 32 24C32 25.1046 31.1046 26 30 26H18C16.8954 26 16 25.1046 16 24Z" fill="#18202A"/>
</svg>
