<svg width="48" height="48" viewBox="0 0 48 48" fill="none" xmlns="http://www.w3.org/2000/svg">
<g clip-path="url(#clip0_3750_8834)">
<path d="M16.687 8.93551C16.8195 8.84233 17.002 8.93712 17.002 9.09911V33.5402C17.002 33.6053 16.9703 33.6663 16.9171 33.7037L8.36264 39.7209C7.42722 40.3785 6.15973 39.7874 6.01385 38.7027L6 38.4937V17.2287C6 16.81 6.1747 16.4139 6.47624 16.1323L6.63736 16.0015L16.687 8.93551ZM41.9908 9.29364L42.0047 9.50262V30.7677C42.0047 31.1863 41.83 31.5825 41.5284 31.864L41.3673 31.9948L31.317 39.0567C31.1845 39.1498 31.002 39.055 31.002 38.893V14.4499C31.002 14.3848 31.0337 14.3237 31.087 14.2863L39.642 8.27549C40.5775 7.6179 41.8449 8.20896 41.9908 9.29364ZM20.002 9.10108C20.002 8.93909 20.1845 8.8443 20.317 8.93746L27.917 14.2803C27.9703 14.3177 28.002 14.3788 28.002 14.4439V38.8888C28.002 39.0508 27.8194 39.1456 27.6869 39.0523L20.0869 33.7057C20.0337 33.6683 20.002 33.6073 20.002 33.5422V9.10108Z" fill="#18202A"/>
</g>
<defs>
<clipPath id="clip0_3750_8834">
<rect width="48" height="48" fill="white"/>
</clipPath>
</defs>
</svg>
