<svg width="48" height="48" viewBox="0 0 48 48" fill="none" xmlns="http://www.w3.org/2000/svg">
<g clip-path="url(#clip0_3379_9202)">
<path d="M16 2C13.7909 2 12 3.79086 12 6V10C12 11.913 12.8953 13.617 14.2898 14.7156C16.0251 16.0828 18 17.7909 18 20V24C18 26.2091 16.2091 28 14 28H10.5714C5.83756 28 2 31.8376 2 36.5714C2 38.465 3.53502 40 5.42857 40H42.5714C44.465 40 46 38.465 46 36.5714C46 31.8376 42.1624 28 37.4286 28H34C31.7909 28 30 26.2091 30 24V20C30 17.7909 31.9749 16.0828 33.7102 14.7156C35.1047 13.617 36 11.913 36 10V6C36 3.79086 34.2091 2 32 2H16Z" fill="#18202A"/>
<path d="M4 44C4 42.8954 4.89543 42 6 42H42C43.1046 42 44 42.8954 44 44C44 45.1046 43.1046 46 42 46H6C4.89543 46 4 45.1046 4 44Z" fill="#18202A"/>
</g>
<defs>
<clipPath id="clip0_3379_9202">
<rect width="48" height="48" fill="white"/>
</clipPath>
</defs>
</svg>
