<svg width="48" height="48" viewBox="0 0 48 48" fill="none" xmlns="http://www.w3.org/2000/svg">
<path fill-rule="evenodd" clip-rule="evenodd" d="M43 24C43 13.5066 34.4934 5 24 5C13.5066 5 5 13.5066 5 24C5 34.4934 13.5066 43 24 43C34.4934 43 43 34.4934 43 24ZM46 24C46 11.8497 36.1503 2 24 2C11.8497 2 2 11.8497 2 24C2 36.1503 11.8497 46 24 46C36.1503 46 46 36.1503 46 24Z" fill="#18202A"/>
<path fill-rule="evenodd" clip-rule="evenodd" d="M14.9393 23.0607C14.3536 22.4749 14.3536 21.5251 14.9393 20.9393L22.9393 12.9393C23.5251 12.3536 24.4749 12.3536 25.0607 12.9393L33.0607 20.9393C33.6464 21.5251 33.6464 22.4749 33.0607 23.0607C32.4749 23.6464 31.5251 23.6464 30.9393 23.0607L25.5 17.6213V34C25.5 34.8284 24.8284 35.5 24 35.5C23.1716 35.5 22.5 34.8284 22.5 34V17.6213L17.0607 23.0607C16.4749 23.6464 15.5251 23.6464 14.9393 23.0607Z" fill="#18202A"/>
</svg>
