<svg width="48" height="48" viewBox="0 0 48 48" fill="none" xmlns="http://www.w3.org/2000/svg">
<path d="M29.5858 8.41421C28.8047 7.63317 28.8047 6.36683 29.5858 5.58579C30.3668 4.80474 31.6332 4.80474 32.4142 5.58579L41.4142 14.5858C42.1953 15.3668 42.1953 16.6332 41.4142 17.4142L32.4142 26.4142C31.6332 27.1953 30.3668 27.1953 29.5858 26.4142C28.8047 25.6332 28.8047 24.3668 29.5858 23.5858L35.1716 18H19C14.0294 18 10 22.0294 10 27C10 31.9706 14.0294 36 19 36H32C33.1046 36 34 36.8954 34 38C34 39.1046 33.1046 40 32 40H19C11.8203 40 6 34.1797 6 27C6 19.8203 11.8203 14 19 14H35.1716L29.5858 8.41421Z" fill="#18202A"/>
</svg>
