<svg width="48" height="48" viewBox="0 0 48 48" fill="none" xmlns="http://www.w3.org/2000/svg">
<g clip-path="url(#clip0_3289_16950)">
<path d="M13 3C14.1046 3 15 3.89543 15 5V10H20.0039C21.1085 10 22.0039 10.8954 22.0039 12C22.0039 13.1046 21.1085 14 20.0039 14H15V19C15 20.1046 14.1046 21 13 21C11.8954 21 11 20.1046 11 19V14H6.00391C4.89934 14 4.00391 13.1046 4.00391 12C4.00391 10.8954 4.89934 10 6.00391 10H11V5C11 3.89543 11.8954 3 13 3ZM27.9961 10C26.8915 10 25.9961 10.8954 25.9961 12C25.9961 13.1046 26.8915 14 27.9961 14H41.9961C43.1007 14 43.9961 13.1046 43.9961 12C43.9961 10.8954 43.1007 10 41.9961 10H27.9961ZM26 35C26 33.8954 26.8954 33 28 33H42C43.1046 33 44 33.8954 44 35C44 36.1046 43.1046 37 42 37H28C26.8954 37 26 36.1046 26 35ZM35 31C36.3807 31 37.5 29.8807 37.5 28.5C37.5 27.1193 36.3807 26 35 26C33.6193 26 32.5 27.1193 32.5 28.5C32.5 29.8807 33.6193 31 35 31ZM37.5 41.5C37.5 42.8807 36.3807 44 35 44C33.6193 44 32.5 42.8807 32.5 41.5C32.5 40.1193 33.6193 39 35 39C36.3807 39 37.5 40.1193 37.5 41.5ZM4.58579 26.5858C5.36683 25.8047 6.63316 25.8047 7.41421 26.5858L13 32.1716L18.5858 26.5858C19.3669 25.8047 20.6332 25.8047 21.4142 26.5858C22.1953 27.3668 22.1953 28.6332 21.4142 29.4142L15.8284 35L21.4142 40.5858C22.1953 41.3668 22.1953 42.6332 21.4142 43.4142C20.6332 44.1953 19.3668 44.1953 18.5858 43.4142L13 37.8284L7.41424 43.4142C6.63319 44.1953 5.36686 44.1953 4.58581 43.4142C3.80476 42.6332 3.80476 41.3668 4.58581 40.5858L10.1716 35L4.58579 29.4142C3.80474 28.6332 3.80474 27.3668 4.58579 26.5858Z" fill="#18202A"/>
</g>
<defs>
<clipPath id="clip0_3289_16950">
<rect width="48" height="48" fill="white"/>
</clipPath>
</defs>
</svg>
