<svg width="48" height="48" viewBox="0 0 48 48" fill="none" xmlns="http://www.w3.org/2000/svg">
<path d="M16 7.5C11.3056 7.5 7.5 11.3056 7.5 16C7.5 19.4832 9.59538 22.4804 12.6006 23.7934C13.3597 24.1251 13.7062 25.0093 13.3745 25.7685C13.0429 26.5276 12.1586 26.8741 11.3994 26.5424C7.341 24.7692 4.5 20.7181 4.5 16C4.5 9.64873 9.64873 4.5 16 4.5C20.7181 4.5 24.7692 7.341 26.5424 11.3994C26.8741 12.1586 26.5276 13.0429 25.7685 13.3745C25.0093 13.7062 24.1251 13.3597 23.7934 12.6006C22.4804 9.59538 19.4832 7.5 16 7.5Z" fill="#18202A"/>
<path fill-rule="evenodd" clip-rule="evenodd" d="M14.5958 17.7361C13.9807 15.8029 15.8029 13.9807 17.7361 14.5958L36.8196 20.6678C38.8172 21.3034 39.1926 23.9675 37.4484 25.1303L33.8294 27.5429L40.7836 34.4971C41.7599 35.4734 41.7599 37.0564 40.7836 38.0327L38.0327 40.7836C37.0564 41.7599 35.4734 41.7599 34.4971 40.7836L27.5429 33.8294L25.1303 37.4484C23.9675 39.1926 21.3034 38.8172 20.6678 36.8196L14.5958 17.7361ZM17.7477 17.7477L23.2112 34.9187L26.0617 30.6429C26.311 30.269 26.7148 30.0265 27.162 29.9822C27.6092 29.938 28.0527 30.0965 28.3704 30.4143L36.2649 38.3088L38.3088 36.2649L30.4143 28.3704C30.0965 28.0527 29.938 27.6092 29.9822 27.162C30.0265 26.7148 30.269 26.311 30.6429 26.0617L34.9187 23.2112L17.7477 17.7477Z" fill="#18202A"/>
</svg>
