<svg width="48" height="48" viewBox="0 0 48 48" fill="none" xmlns="http://www.w3.org/2000/svg">
<path fill-rule="evenodd" clip-rule="evenodd" d="M46 6.50015C45.1716 6.50015 44.5 7.17172 44.5 8.00015V18.5002H34C33.1716 18.5002 32.5 19.1717 32.5 20.0002C32.5 20.8286 33.1716 21.5002 34 21.5002H46C46.8284 21.5002 47.5 20.8286 47.5 20.0002V8.00015C47.5 7.17172 46.8284 6.50015 46 6.50015Z" fill="#18202A"/>
<path fill-rule="evenodd" clip-rule="evenodd" d="M15.5 28.0002C15.5 27.1717 14.8284 26.5002 14 26.5002H2C1.17157 26.5002 0.499996 27.1717 0.499996 28.0002V40.0002C0.499996 40.8286 1.17157 41.5002 2 41.5002C2.82842 41.5002 3.5 40.8286 3.5 40.0002V29.5002H14C14.8284 29.5002 15.5 28.8286 15.5 28.0002Z" fill="#18202A"/>
<path fill-rule="evenodd" clip-rule="evenodd" d="M29.4072 5.27277C26.2429 4.3575 22.8983 4.25872 19.6855 4.98565C16.4728 5.71258 13.4965 7.24153 11.0344 9.42983C8.57238 11.6181 6.70478 14.3945 5.60592 17.4998C5.32956 18.2807 5.73863 19.1379 6.5196 19.4142C7.30058 19.6906 8.15771 19.2815 8.43407 18.5005C9.36388 15.873 10.9441 13.5238 13.0274 11.6721C15.1107 9.82051 17.6291 8.52678 20.3476 7.91169C23.0661 7.29659 25.8961 7.38017 28.5736 8.15463C31.2511 8.92909 33.6887 10.3692 35.6591 12.3405C35.6702 12.3516 35.6814 12.3625 35.6928 12.3733L44.9728 21.0933C45.5765 21.6606 46.5258 21.631 47.0931 21.0273C47.6604 20.4236 47.6309 19.4743 47.0272 18.907L37.764 10.2028C35.4383 7.88171 32.5638 6.18582 29.4072 5.27277ZM0.906868 26.973C0.339581 27.5767 0.369114 28.526 0.972832 29.0933L10.2361 37.7975C12.5617 40.1186 15.4362 41.8145 18.5928 42.7275C21.7571 43.6428 25.1017 43.7416 28.3144 43.0147C31.5272 42.2877 34.5035 40.7588 36.9656 38.5705C39.4276 36.3822 41.2952 33.6058 42.3941 30.5005C42.6704 29.7196 42.2614 28.8624 41.4804 28.5861C40.6994 28.3097 39.8423 28.7188 39.5659 29.4998C38.6361 32.1273 37.0558 34.4765 34.9726 36.3282C32.8893 38.1798 30.3709 39.4735 27.6524 40.0886C24.9339 40.7037 22.1039 40.6201 19.4264 39.8457C16.7489 39.0712 14.3113 37.6311 12.3409 35.6598C12.3298 35.6487 12.3186 35.6378 12.3072 35.627L3.02716 26.907C2.42344 26.3397 1.47416 26.3693 0.906868 26.973Z" fill="#18202A"/>
</svg>
