<svg width="48" height="48" viewBox="0 0 48 48" fill="none" xmlns="http://www.w3.org/2000/svg">
<path fill-rule="evenodd" clip-rule="evenodd" d="M24 22C29.3333 22 32 17 32 10.75C32 5.75 29.3333 2 24 2C18.6667 2 16 5.75 16 10.75C16 17 18.6667 22 24 22ZM24.0001 26C25.9455 26 27.8261 26.2778 29.6042 26.7958C26.2014 29.3498 24 33.4178 24 38C24 40.9386 24.9054 43.6658 26.4525 45.9178C25.642 45.9723 24.8243 46 24 46C20.9052 46 17.9016 45.6095 15.0359 44.875C12.5978 44.2502 10.5314 42.6171 9.39972 40.369C9.36839 40.3068 9.33726 40.2444 9.30633 40.1819C7.74188 37.0227 8.27388 33.1522 10.9433 30.8496C14.4469 27.8275 19.0101 26 24.0001 26ZM48 38C48 43.5228 43.5228 48 38 48C32.4772 48 28 43.5228 28 38C28 32.4772 32.4772 28 38 28C43.5228 28 48 32.4772 48 38ZM37.7284 41.2716C37.6875 41.3125 37.64 41.3459 37.5877 41.3705L32.4655 43.7809C32.3004 43.8586 32.126 43.6928 32.1953 43.524L34.4245 38.0917C34.4522 38.0242 34.4944 37.9636 34.548 37.9141L41.1895 31.7834C41.3867 31.6014 41.6924 31.6075 41.8822 31.7972L44.1889 34.104C44.3842 34.2993 44.3842 34.6158 44.1889 34.8111L37.7284 41.2716Z" fill="#18202A"/>
</svg>
