<svg width="48" height="48" viewBox="0 0 48 48" fill="none" xmlns="http://www.w3.org/2000/svg">
<g clip-path="url(#clip0_3626_8948)">
<path d="M38 29.5237L42 33.5237V8C42 4.68629 39.3137 2 36 2H12C11.5297 2 11.072 2.05412 10.6328 2.15647L32 23.5237V11.1821C32 9.31943 30.7144 7.70331 28.8994 7.28449L23.3333 6H36C37.1046 6 38 6.89543 38 8V29.5237Z" fill="#18202A"/>
<path fill-rule="evenodd" clip-rule="evenodd" d="M3.18683 6.01826L6 8.83138V37.2269C6 40.0209 7.92845 42.445 10.6508 43.0733L27.1006 46.8694C29.607 47.4478 32 45.5441 32 42.9718V42H36C36.9257 42 37.8024 41.7904 38.5853 41.416L41.9823 44.8129C42.8672 45.6978 44.2183 45.7814 45 44.9997C45.7817 44.2179 45.6981 42.8669 44.8132 41.982L6.01777 3.18731C5.13289 2.30243 3.78182 2.21882 3.00007 3.00056C2.21833 3.7823 2.30194 5.13338 3.18683 6.01826ZM32 34.8308L35.1692 38H32V34.8308ZM26.8706 29.7016L24.003 26.834C24.001 26.889 24 26.9443 24 27C24 28.6569 24.8954 30 26 30C26.3121 30 26.6074 29.8928 26.8706 29.7016Z" fill="#18202A"/>
</g>
<defs>
<clipPath id="clip0_3626_8948">
<rect width="48" height="48" fill="white"/>
</clipPath>
</defs>
</svg>
