<svg width="48" height="48" viewBox="0 0 48 48" fill="none" xmlns="http://www.w3.org/2000/svg">
<path d="M18.0607 7.56066C18.6464 6.97487 18.6464 6.02513 18.0607 5.43934C17.4749 4.85355 16.5251 4.85355 15.9393 5.43934L6.93934 14.4393C6.35355 15.0251 6.35355 15.9749 6.93934 16.5607L15.9393 25.5607C16.5251 26.1464 17.4749 26.1464 18.0607 25.5607C18.6464 24.9749 18.6464 24.0251 18.0607 23.4393L11.6213 17H30C34.9706 17 39 21.0294 39 26C39 30.9706 34.9706 35 30 35H15.5C14.6716 35 14 35.6716 14 36.5C14 37.3284 14.6716 38 15.5 38H30C36.6274 38 42 32.6274 42 26C42 19.3726 36.6274 14 30 14H11.6213L18.0607 7.56066Z" fill="#18202A"/>
</svg>
