<svg width="48" height="48" viewBox="0 0 48 48" fill="none" xmlns="http://www.w3.org/2000/svg">
<g clip-path="url(#clip0_3785_8908)">
<path fill-rule="evenodd" clip-rule="evenodd" d="M37 16C34.2386 16 32 13.7614 32 11V9.50049L27.5002 9.5C26.6717 9.49991 26 10.1715 26 11V37.0006C26 37.829 26.6716 38.5006 27.5 38.5006H32V37C32 34.2386 34.2386 32 37 32H41C43.7614 32 46 34.2386 46 37V41C46 43.7614 43.7614 46 41 46H37C34.4075 46 32.2759 44.027 32.0247 41.5006H27.5C25.0147 41.5006 23 39.4859 23 37.0006V25.5H16V26C16 28.7614 13.7614 31 11 31H7C4.23858 31 2 28.7614 2 26V22C2 19.2386 4.23858 17 7 17H11C13.7614 17 16 19.2386 16 22V22.5H23V11C23 8.51453 25.015 6.49973 27.5005 6.5L32.0246 6.50049C32.2753 3.97359 34.4072 2 37 2H41C43.7614 2 46 4.23858 46 7V11C46 13.7614 43.7614 16 41 16H37ZM35 7C35 5.89543 35.8954 5 37 5H41C42.1046 5 43 5.89543 43 7V11C43 12.1046 42.1046 13 41 13H37C35.8954 13 35 12.1046 35 11V7ZM5 22C5 20.8954 5.89543 20 7 20H11C12.1046 20 13 20.8954 13 22V26C13 27.1046 12.1046 28 11 28H7C5.89543 28 5 27.1046 5 26V22ZM43 37C43 35.8954 42.1046 35 41 35H37C35.8954 35 35 35.8954 35 37V41C35 42.1046 35.8954 43 37 43H41C42.1046 43 43 42.1046 43 41V37Z" fill="#18202A"/>
</g>
<defs>
<clipPath id="clip0_3785_8908">
<rect width="48" height="48" fill="white"/>
</clipPath>
</defs>
</svg>
