<svg width="48" height="48" viewBox="0 0 48 48" fill="none" xmlns="http://www.w3.org/2000/svg">
<path d="M42.4376 25.9069C39.5489 29.017 32.6077 37.0011 27.9675 42.1763C25.797 44.597 22.203 44.597 20.0325 42.1763C15.3923 37.0011 8.45113 29.017 5.56243 25.9069C3.93757 24.1563 2 21.3026 2 17.649C2 11.2266 7.42457 6 14.0937 6C17.7017 6 21.096 8.51914 23.4044 11.2C23.7046 11.5473 24.297 11.5473 24.5956 11.2C26.904 8.51914 30.2983 6 33.9063 6C40.5754 6 46 11.2266 46 17.649C46 21.3026 44.0624 24.1563 42.4376 25.9069Z" fill="#18202A"/>
</svg>
