<svg width="48" height="48" viewBox="0 0 48 48" fill="none" xmlns="http://www.w3.org/2000/svg">
<path d="M12 14C11.1716 14 10.5 14.6716 10.5 15.5C10.5 16.3284 11.1716 17 12 17H36C36.8284 17 37.5 16.3284 37.5 15.5C37.5 14.6716 36.8284 14 36 14H12Z" fill="#18202A"/>
<path d="M12 22C11.1716 22 10.5 22.6716 10.5 23.5C10.5 24.3284 11.1716 25 12 25H36C36.8284 25 37.5 24.3284 37.5 23.5C37.5 22.6716 36.8284 22 36 22H12Z" fill="#18202A"/>
<path d="M10.5 31.5C10.5 30.6716 11.1716 30 12 30H24C24.8284 30 25.5 30.6716 25.5 31.5C25.5 32.3284 24.8284 33 24 33H12C11.1716 33 10.5 32.3284 10.5 31.5Z" fill="#18202A"/>
<path fill-rule="evenodd" clip-rule="evenodd" d="M4 12C4 7.58172 7.58172 4 12 4H36C40.4183 4 44 7.58172 44 12V36C44 40.4183 40.4183 44 36 44H12C7.58172 44 4 40.4183 4 36V12ZM36 7C38.7614 7 41 9.23858 41 12V36C41 38.7614 38.7614 41 36 41H12C9.23858 41 7 38.7614 7 36V12C7 9.23858 9.23858 7 12 7H36Z" fill="#18202A"/>
</svg>
