<svg width="48" height="48" viewBox="0 0 48 48" fill="none" xmlns="http://www.w3.org/2000/svg">
<g clip-path="url(#clip0_3737_8815)">
<path fill-rule="evenodd" clip-rule="evenodd" d="M24 0C25.1046 0 26 0.89543 26 2V4.08969C29.2287 4.38064 32.2563 5.36915 34.9308 6.90335L37.2484 4.58579C38.0294 3.80474 39.2958 3.80474 40.0768 4.58579C40.8579 5.36684 40.8579 6.63316 40.0768 7.41421L38.2515 9.23952C42.9926 13.2748 46 19.2862 46 26C46 38.1503 36.1503 48 24 48C11.8497 48 2 38.1503 2 26C2 14.5239 10.787 5.10014 22 4.08969V2C22 0.89543 22.8954 0 24 0ZM24 10C25.1046 10 26 10.8954 26 12V24H36C37.1046 24 38 24.8954 38 26C38 27.1046 37.1046 28 36 28H24C22.8954 28 22 27.1046 22 26V12C22 10.8954 22.8954 10 24 10Z" fill="#18202A"/>
</g>
<defs>
<clipPath id="clip0_3737_8815">
<rect width="48" height="48" fill="white"/>
</clipPath>
</defs>
</svg>
