<svg width="48" height="48" viewBox="0 0 48 48" fill="none" xmlns="http://www.w3.org/2000/svg">
<path fill-rule="evenodd" clip-rule="evenodd" d="M46 24C46 27.8973 44.9866 31.5579 43.2089 34.7327L32.4541 23.9779L34.5748 21.8171C34.9946 21.3894 35.0747 20.8098 34.9388 20.345C34.8025 19.879 34.4071 19.4062 33.7722 19.3096L27.9316 18.4206L25.2949 12.8324C24.7712 11.7225 23.2288 11.7225 22.7051 12.8324L22.2574 13.7812L13.2673 4.79108C16.4421 3.01341 20.1027 2 24 2C36.1503 2 46 11.8497 46 24ZM7.09232 9.92326L2.72247 5.55342C1.83759 4.66853 1.75397 3.31746 2.53572 2.53572C3.31746 1.75397 4.66853 1.83759 5.55342 2.72247L45.2775 42.4466C46.1624 43.3315 46.246 44.6825 45.4643 45.4643C44.6825 46.246 43.3315 46.1624 42.4466 45.2775L38.0767 40.9077C34.2619 44.0872 29.3543 46 24 46C11.8497 46 2 36.1503 2 24C2 18.6456 3.91279 13.7381 7.09232 9.92326ZM30.8344 33.6653C30.8271 33.6714 30.8199 33.6774 30.8125 33.6833C30.4058 34.0114 29.797 34.1283 29.2433 33.8241L24 30.9435L18.7568 33.8241C18.2031 34.1283 17.5942 34.0114 17.1875 33.6833C16.7886 33.3615 16.567 32.8338 16.6584 32.2773L17.6666 26.1382L13.4245 21.8099C13.005 21.3818 12.9252 20.8022 13.0616 20.3373C13.1982 19.8714 13.5941 19.3988 14.2292 19.3028L16.1773 19.0083L30.8344 33.6653Z" fill="#18202A"/>
</svg>
