<svg width="48" height="48" viewBox="0 0 48 48" fill="none" xmlns="http://www.w3.org/2000/svg">
<g clip-path="url(#clip0_3352_8946)">
<path fill-rule="evenodd" clip-rule="evenodd" d="M6.11969 6.91293C6.35513 6.35937 6.89849 6 7.50004 6H40.5C41.1016 6 41.6449 6.35937 41.8804 6.91293C42.1158 7.46649 41.9978 8.10716 41.5805 8.54046L29 21.6048V40.5C29 41.0742 28.6722 41.5981 28.1557 41.8491C27.6393 42.1001 27.0248 42.0343 26.5733 41.6795L19.5733 36.1795C19.2114 35.8951 19 35.4603 19 35V21.6048L6.41956 8.54046C6.0023 8.10716 5.88426 7.46649 6.11969 6.91293ZM11.0269 9L21.5805 19.9595C21.8497 20.239 22 20.612 22 21V34.2709L26 37.4138V21C26 20.612 26.1504 20.239 26.4196 19.9595L36.9732 9H11.0269Z" fill="#18202A"/>
</g>
<defs>
<clipPath id="clip0_3352_8946">
<rect width="48" height="48" fill="white"/>
</clipPath>
</defs>
</svg>
