<svg width="48" height="48" viewBox="0 0 48 48" fill="none" xmlns="http://www.w3.org/2000/svg">
<path fill-rule="evenodd" clip-rule="evenodd" d="M10 6C5.58172 6 2 9.58172 2 14V18H46C46 13.5817 42.4183 10 38 10H24L21.7574 7.75736C20.6321 6.63214 19.106 6 17.5147 6H10ZM2 20V34C2 38.4183 5.58172 42 10 42H24.5798C24.2026 40.7326 24 39.3899 24 38C24 30.268 30.268 24 38 24C40.9745 24 43.7323 24.9276 46 26.5094V20H2ZM48 38C48 43.5228 43.5228 48 38 48C32.4772 48 28 43.5228 28 38C28 32.4772 32.4772 28 38 28C43.5228 28 48 32.4772 48 38ZM38 32C36.8954 32 36 32.8954 36 34V36H34C32.8954 36 32 36.8954 32 38C32 39.1046 32.8954 40 34 40H36V42C36 43.1046 36.8954 44 38 44C39.1046 44 40 43.1046 40 42V40H42C43.1046 40 44 39.1046 44 38C44 36.8954 43.1046 36 42 36H40V34C40 32.8954 39.1046 32 38 32Z" fill="#18202A"/>
</svg>
