<svg width="48" height="48" viewBox="0 0 48 48" fill="none" xmlns="http://www.w3.org/2000/svg">
<path fill-rule="evenodd" clip-rule="evenodd" d="M5.04084 23.3818V23.2792L5.03383 23.1767C4.38899 13.766 13.2918 5 24.0204 5C34.6927 5 42.9999 12.2408 42.9999 23.3818C42.9999 24.2383 42.9381 25.0868 42.8165 25.9215C43.8092 26.3177 44.7417 26.8328 45.5962 27.4491C45.8627 26.1253 45.9999 24.764 45.9999 23.3818C45.9999 10.4 36.1594 2 24.0204 2C11.8814 2 1.25596 11.9273 2.04084 23.3818C2.04084 30.2264 4.77638 35.585 9.14204 39.1219L9.56224 44.1644C9.67754 45.548 11.1329 46.396 12.3935 45.8142L17.8453 43.298C19.8043 43.7618 21.8765 44 24.0204 44C24.8347 44 25.6315 43.9641 26.4098 43.8941C25.9416 42.9751 25.5794 41.9931 25.3394 40.9641C24.9063 40.9879 24.4666 41 24.0204 41C22.0981 41 20.2584 40.7864 18.5364 40.3787L17.5285 40.1401L12.4333 42.4918L12.0253 37.5969L11.0305 36.7909C7.39758 33.8476 5.04084 29.3603 5.04084 23.3818ZM18 23C18 24.6569 16.6568 26 15 26C13.3431 26 12 24.6569 12 23C12 21.3431 13.3431 20 15 20C16.6568 20 18 21.3431 18 23ZM24 26C25.6568 26 27 24.6569 27 23C27 21.3431 25.6568 20 24 20C22.3431 20 21 21.3431 21 23C21 24.6569 22.3431 26 24 26ZM33 26C34.6568 26 36 24.6569 36 23C36 21.3431 34.6568 20 33 20C31.3431 20 30 21.3431 30 23C30 24.6569 31.3431 26 33 26ZM48 38C48 43.5228 43.5228 48 38 48C32.4771 48 28 43.5228 28 38C28 32.4772 32.4771 28 38 28C43.5228 28 48 32.4772 48 38ZM38 32C38.8284 32 39.5 32.6716 39.5 33.5V36.5H42.5C43.3284 36.5 44 37.1716 44 38C44 38.8284 43.3284 39.5 42.5 39.5H39.5V42.5C39.5 43.3284 38.8284 44 38 44C37.1715 44 36.5 43.3284 36.5 42.5V39.5H33.5C32.6715 39.5 32 38.8284 32 38C32 37.1716 32.6715 36.5 33.5 36.5H36.5V33.5C36.5 32.6716 37.1715 32 38 32Z" fill="#18202A"/>
</svg>
