<svg width="48" height="48" viewBox="0 0 48 48" fill="none" xmlns="http://www.w3.org/2000/svg">
<path d="M25.5 9.5C24.6716 9.5 24 8.82843 24 8C24 7.17157 24.6716 6.5 25.5 6.5H40C40.8284 6.5 41.5 7.17157 41.5 8V22.5C41.5 23.3284 40.8284 24 40 24C39.1716 24 38.5 23.3284 38.5 22.5V11.6213L29.0607 21.0607C28.4749 21.6464 27.5251 21.6464 26.9393 21.0607C26.3536 20.4749 26.3536 19.5251 26.9393 18.9393L36.3787 9.5H25.5Z" fill="#18202A"/>
<path d="M24 40C24 40.8284 23.3284 41.5 22.5 41.5H8C7.17157 41.5 6.5 40.8284 6.5 40V25.5C6.5 24.6716 7.17158 24 8 24C8.82843 24 9.5 24.6716 9.5 25.5L9.5 36.3787L18.9393 26.9393C19.5251 26.3536 20.4749 26.3536 21.0607 26.9393C21.6464 27.5251 21.6464 28.4749 21.0607 29.0607L11.6213 38.5H22.5C23.3284 38.5 24 39.1716 24 40Z" fill="#18202A"/>
</svg>
