<svg width="48" height="48" viewBox="0 0 48 48" fill="none" xmlns="http://www.w3.org/2000/svg">
<path fill-rule="evenodd" clip-rule="evenodd" d="M25.9471 27.4545C24.7363 28.1296 23.2623 28.1296 22.0515 27.4545L6 18.5052L6 39.3963C6.90155 39.9137 7.50879 40.886 7.50879 42V43C7.50879 44.6569 6.16564 46 4.50879 46H3.50879C1.85193 46 0.508789 44.6569 0.508789 43V42C0.508789 40.8932 1.10815 39.9264 2 39.4065L2 16.275L1.05292 15.747C-0.315182 14.9842 -0.315165 13.016 1.05296 12.2533L22.0515 0.546316C23.2623 -0.128707 24.7363 -0.128721 25.947 0.546279L46.9466 12.2533C48.3148 13.016 48.3148 14.9842 46.9466 15.747L25.9471 27.4545ZM28.5 14C28.5 15.6569 26.4853 17 24 17C21.5147 17 19.5 15.6569 19.5 14C19.5 12.3431 21.5147 11 24 11C26.4853 11 28.5 12.3431 28.5 14ZM21.0775 29.2008L8 21.9096V28.6847C8 34.9342 15.1634 39.9995 24 39.9995C32.8366 39.9995 40 34.9342 40 28.6847V21.9092L26.921 29.2009C25.1048 30.2135 22.8937 30.2135 21.0775 29.2008Z" fill="#18202A"/>
</svg>
