<svg width="48" height="48" viewBox="0 0 48 48" fill="none" xmlns="http://www.w3.org/2000/svg">
<path fill-rule="evenodd" clip-rule="evenodd" d="M24 2C26.2091 2 28 3.79086 28 6C28 7.48056 27.1956 8.77325 26 9.46487V12H30C37.1267 12 43.0096 17.325 43.8871 24.2132C44.2312 24.0757 44.6068 24 45 24C46.6569 24 48 25.3431 48 27V33C48 34.6569 46.6569 36 45 36C44.6494 36 44.3128 35.9398 44 35.8293V38C44 42.4183 40.4183 46 36 46H12C7.58172 46 4 42.4183 4 38V35.8293C3.68722 35.9398 3.35064 36 3 36C1.34315 36 0 34.6569 0 33V27C0 25.3431 1.34315 24 3 24C3.39324 24 3.76881 24.0757 4.11295 24.2132C4.99041 17.325 10.8733 12 18 12H22V9.46487C20.8044 8.77325 20 7.48056 20 6C20 3.79086 21.7909 2 24 2ZM40 28C40 31.3137 37.3137 34 34 34C30.6863 34 28 31.3137 28 28C28 24.6863 30.6863 22 34 22C37.3137 22 40 24.6863 40 28ZM14 34C17.3137 34 20 31.3137 20 28C20 24.6863 17.3137 22 14 22C10.6863 22 8 24.6863 8 28C8 31.3137 10.6863 34 14 34ZM20 39C20 38.4477 20.4477 38 21 38H27C27.5523 38 28 38.4477 28 39C28 39.5523 27.5523 40 27 40H21C20.4477 40 20 39.5523 20 39Z" fill="#18202A"/>
</svg>
