<svg width="48" height="48" viewBox="0 0 48 48" fill="none" xmlns="http://www.w3.org/2000/svg">
<path d="M2 15.9995C2 12.6858 4.68629 9.99954 8 9.99954H40C43.3137 9.99954 46 12.6858 46 15.9995V21.9995H2V15.9995Z" fill="#18202A"/>
<path fill-rule="evenodd" clip-rule="evenodd" d="M23.2945 4.52314C24.8044 6.8123 25.6143 9.87272 25.9612 11.607L26.2608 13.1049L24.8944 13.7881C20.1112 16.1797 15.7137 14.8496 13.4057 11.9703C12.2864 10.5738 11.6553 8.78692 11.8482 6.97287C12.0473 5.10102 13.1061 3.40309 14.9711 2.2842C16.6415 1.28205 18.3609 1.04083 19.9668 1.64191C21.4614 2.2014 22.5372 3.37499 23.2945 4.52314ZM18.5645 5.38807C18.3057 5.29121 17.8585 5.21657 17.0289 5.71426C16.1822 6.22223 15.8852 6.83773 15.8258 7.39591C15.7603 8.01189 15.9682 8.77161 16.5268 9.46848C17.4095 10.5698 19.1912 11.4836 21.6541 10.7824C21.2739 9.41109 20.7091 7.86819 19.9555 6.72555C19.4211 5.91541 18.9344 5.52653 18.5645 5.38807Z" fill="#18202A"/>
<path fill-rule="evenodd" clip-rule="evenodd" d="M24.7055 4.52314C23.1956 6.8123 22.3857 9.87272 22.0388 11.607L21.7392 13.1049L23.1056 13.7881C27.8888 16.1797 32.2863 14.8496 34.5943 11.9703C35.7136 10.5738 36.3447 8.78692 36.1518 6.97287C35.9527 5.10102 34.8939 3.40309 33.0289 2.2842C31.3585 1.28205 29.6391 1.04083 28.0332 1.64191C26.5386 2.2014 25.4628 3.37499 24.7055 4.52314ZM29.4355 5.38807C29.6943 5.29121 30.1415 5.21657 30.9711 5.71426C31.8178 6.22223 32.1148 6.83773 32.1742 7.39591C32.2397 8.01189 32.0318 8.77161 31.4732 9.46848C30.5905 10.5698 28.8088 11.4836 26.3459 10.7824C26.7261 9.41109 27.2909 7.86819 28.0445 6.72555C28.5789 5.91541 29.0656 5.52653 29.4355 5.38807Z" fill="#18202A"/>
<path d="M4 25.9995H22V45.9995H10C6.68629 45.9995 4 43.3133 4 39.9995V25.9995Z" fill="#18202A"/>
<path d="M26 25.9995H44V39.9995C44 43.3133 41.3137 45.9995 38 45.9995H26V25.9995Z" fill="#18202A"/>
</svg>
