<svg width="48" height="48" viewBox="0 0 48 48" fill="none" xmlns="http://www.w3.org/2000/svg">
<path fill-rule="evenodd" clip-rule="evenodd" d="M30 10C30 12.6124 28.3304 14.8349 26 15.6586V22H40C41.1046 22 42 22.8954 42 24V26V32.3414C44.3304 33.1651 46 35.3876 46 38C46 41.3137 43.3137 44 40 44C36.6863 44 34 41.3137 34 38C34 35.3876 35.6696 33.1651 38 32.3414V26H26V32.3414C28.3304 33.1651 30 35.3876 30 38C30 41.3137 27.3137 44 24 44C20.6863 44 18 41.3137 18 38C18 35.3876 19.6696 33.1651 22 32.3414V26H10V32.3414C12.3304 33.1651 14 35.3876 14 38C14 41.3137 11.3137 44 8 44C4.68629 44 2 41.3137 2 38C2 35.3876 3.66962 33.1651 6 32.3414V26V24C6 22.8954 6.89543 22 8 22H22V15.6586C19.6696 14.8349 18 12.6124 18 10C18 6.68629 20.6863 4 24 4C27.3137 4 30 6.68629 30 10Z" fill="#18202A"/>
</svg>
