<svg width="48" height="48" viewBox="0 0 48 48" fill="none" xmlns="http://www.w3.org/2000/svg">
<path fill-rule="evenodd" clip-rule="evenodd" d="M20.574 4.61422C21.1345 4.8464 21.5 5.39335 21.5 6.00004V14.5261C26.8452 14.7138 32.5706 15.9543 37.1164 19.4625C42.164 23.3579 45.5 29.8458 45.5 40C45.5 40.677 45.0466 41.27 44.3934 41.4475C43.7402 41.6251 43.049 41.3431 42.7064 40.7593C40.0264 36.1935 37.9515 33.513 34.8911 31.872C32.0035 30.3236 28.0538 29.6024 21.5 29.5102V38C21.5 38.6067 21.1345 39.1537 20.574 39.3859C20.0135 39.618 19.3683 39.4897 18.9393 39.0607L2.93934 23.0607C2.35355 22.4749 2.35355 21.5252 2.93934 20.9394L18.9393 4.93938C19.3683 4.51039 20.0135 4.38205 20.574 4.61422ZM6.12132 22L18.5 34.3787V28C18.5 27.1716 19.1716 26.5 20 26.5C27.5372 26.5 32.5104 27.1912 36.3089 29.2281C38.6199 30.4674 40.4185 32.1634 42.0774 34.3278C41.1015 28.2441 38.5239 24.3383 35.2836 21.8375C31.0579 18.5764 25.4446 17.5 20 17.5C19.1716 17.5 18.5 16.8285 18.5 16V9.62136L6.12132 22Z" fill="#18202A"/>
</svg>
