<svg width="48" height="48" viewBox="0 0 48 48" fill="none" xmlns="http://www.w3.org/2000/svg">
<path fill-rule="evenodd" clip-rule="evenodd" d="M46 24C46 11.8497 36.1503 2 24 2C11.8497 2 2 11.8497 2 24C2 36.1503 11.8497 46 24 46C36.1503 46 46 36.1503 46 24ZM14.5858 20.5858C13.8047 21.3668 13.8047 22.6332 14.5858 23.4142C15.3668 24.1953 16.6332 24.1953 17.4142 23.4142L22 18.8284V34C22 35.1046 22.8954 36 24 36C25.1046 36 26 35.1046 26 34V18.8284L30.5858 23.4142C31.3668 24.1953 32.6332 24.1953 33.4142 23.4142C34.1953 22.6332 34.1953 21.3668 33.4142 20.5858L25.4142 12.5858C24.6332 11.8047 23.3668 11.8047 22.5858 12.5858L14.5858 20.5858Z" fill="#18202A"/>
</svg>
