<svg width="48" height="48" viewBox="0 0 48 48" fill="none" xmlns="http://www.w3.org/2000/svg">
<g clip-path="url(#clip0_3783_8831)">
<path fill-rule="evenodd" clip-rule="evenodd" d="M38 2C35.7909 2 34 3.79086 34 6V6.5H30C26.9624 6.5 24.5 8.96243 24.5 12V22.5H14V22C14 19.7909 12.2091 18 10 18H6C3.79086 18 2 19.7909 2 22V26C2 28.2091 3.79086 30 6 30H10C12.2091 30 14 28.2091 14 26V25.5H24.5V36C24.5 39.0376 26.9624 41.5 30 41.5H34V42C34 44.2091 35.7909 46 38 46H42C44.2091 46 46 44.2091 46 42V38C46 35.7909 44.2091 34 42 34H38C35.7909 34 34 35.7909 34 38V38.5H30C28.6193 38.5 27.5 37.3807 27.5 36V25.5H34V26C34 28.2091 35.7909 30 38 30H42C44.2091 30 46 28.2091 46 26V22C46 19.7909 44.2091 18 42 18H38C35.7909 18 34 19.7909 34 22V22.5H27.5V12C27.5 10.6193 28.6193 9.5 30 9.5H34V10C34 12.2091 35.7909 14 38 14H42C44.2091 14 46 12.2091 46 10V6C46 3.79086 44.2091 2 42 2H38ZM43 6C43 5.44772 42.5523 5 42 5H38C37.4477 5 37 5.44772 37 6V10C37 10.5523 37.4477 11 38 11H42C42.5523 11 43 10.5523 43 10V6ZM11 22C11 21.4477 10.5523 21 10 21H6C5.44772 21 5 21.4477 5 22V26C5 26.5523 5.44772 27 6 27H10C10.5523 27 11 26.5523 11 26V22ZM37 22C37 21.4477 37.4477 21 38 21H42C42.5523 21 43 21.4477 43 22V26C43 26.5523 42.5523 27 42 27H38C37.4477 27 37 26.5523 37 26V22ZM43 38C43 37.4477 42.5523 37 42 37H38C37.4477 37 37 37.4477 37 38V42C37 42.5523 37.4477 43 38 43H42C42.5523 43 43 42.5523 43 42V38Z" fill="#18202A"/>
</g>
<defs>
<clipPath id="clip0_3783_8831">
<rect width="48" height="48" fill="white"/>
</clipPath>
</defs>
</svg>
