<svg width="48" height="48" viewBox="0 0 48 48" fill="none" xmlns="http://www.w3.org/2000/svg">
<path fill-rule="evenodd" clip-rule="evenodd" d="M24 42C33.9411 42 42 33.9411 42 24C42 14.0589 33.9411 6 24 6C14.0589 6 6 14.0589 6 24C6 33.9411 14.0589 42 24 42ZM46 24C46 36.1503 36.1503 46 24 46C11.8497 46 2 36.1503 2 24C2 11.8497 11.8497 2 24 2C36.1503 2 46 11.8497 46 24Z" fill="#18202A"/>
<path fill-rule="evenodd" clip-rule="evenodd" d="M39.4142 8.58579C38.6332 7.80474 37.3668 7.80474 36.5858 8.58579L8.58579 36.5858C7.80474 37.3668 7.80474 38.6332 8.58579 39.4142C9.36683 40.1953 10.6332 40.1953 11.4142 39.4142L39.4142 11.4142C40.1953 10.6332 40.1953 9.36683 39.4142 8.58579Z" fill="#18202A"/>
</svg>
