<svg width="48" height="48" viewBox="0 0 48 48" fill="none" xmlns="http://www.w3.org/2000/svg">
<path d="M18 6C18 7.10457 17.1046 8 16 8H12C9.79086 8 8 9.79086 8 12V36C8 38.2091 9.79086 40 12 40H36C38.2091 40 40 38.2091 40 36V32C40 30.8954 40.8954 30 42 30C43.1046 30 44 30.8954 44 32V36C44 40.4183 40.4183 44 36 44H12C7.58172 44 4 40.4183 4 36V12C4 7.58172 7.58172 4 12 4H16C17.1046 4 18 4.89543 18 6Z" fill="#18202A"/>
<path fill-rule="evenodd" clip-rule="evenodd" d="M25.5 6C25.5 4.89543 26.3954 4 27.5 4H42C43.1046 4 44 4.89543 44 6V20.5C44 21.6046 43.1046 22.5 42 22.5C40.8954 22.5 40 21.6046 40 20.5V10.8284L21.4142 29.4142C20.6332 30.1953 19.3668 30.1953 18.5858 29.4142C17.8047 28.6332 17.8047 27.3668 18.5858 26.5858L37.1716 8H27.5C26.3954 8 25.5 7.10457 25.5 6Z" fill="#18202A"/>
</svg>
