<svg width="48" height="48" viewBox="0 0 48 48" fill="none" xmlns="http://www.w3.org/2000/svg">
<path fill-rule="evenodd" clip-rule="evenodd" d="M40 9H8C6.34315 9 5 10.3431 5 12V36C5 37.6569 6.34315 39 8 39H40C41.6569 39 43 37.6569 43 36V12C43 10.3431 41.6569 9 40 9ZM8 6C4.68629 6 2 8.68629 2 12V36C2 39.3137 4.68629 42 8 42H40C43.3137 42 46 39.3137 46 36V12C46 8.68629 43.3137 6 40 6H8Z" fill="#18202A"/>
<path fill-rule="evenodd" clip-rule="evenodd" d="M45.2434 13.161C45.7068 13.8478 45.5257 14.7801 44.839 15.2434L28.8091 26.0588C27.4113 27.0021 25.7206 27.5 24 27.5C22.2794 27.5 20.5887 27.0021 19.1909 26.0588L3.16104 15.2434C2.47431 14.7801 2.29321 13.8478 2.75656 13.161C3.2199 12.4743 4.15222 12.2932 4.83896 12.7566L20.8689 23.572C21.7475 24.1649 22.8485 24.5 24 24.5C25.1515 24.5 26.2524 24.165 27.131 23.5721L43.161 12.7566C43.8478 12.2932 44.7801 12.4743 45.2434 13.161Z" fill="#18202A"/>
</svg>
