<svg width="48" height="48" viewBox="0 0 48 48" fill="none" xmlns="http://www.w3.org/2000/svg">
<path fill-rule="evenodd" clip-rule="evenodd" d="M22 5.5C12.8873 5.5 5.5 12.8873 5.5 22C5.5 30.492 11.9165 37.4874 20.1648 38.3992C20.9882 38.4902 21.5819 39.2315 21.4909 40.055C21.3999 40.8784 20.6586 41.4721 19.8352 41.3811C10.0837 40.3031 2.5 32.0382 2.5 22C2.5 11.2304 11.2304 2.5 22 2.5C32.0382 2.5 40.3031 10.0837 41.3811 19.8352C41.4721 20.6586 40.8784 21.3999 40.055 21.4909C39.2315 21.5819 38.4902 20.9882 38.3992 20.1648C37.4874 11.9165 30.492 5.5 22 5.5ZM22 13.5C17.3056 13.5 13.5 17.3056 13.5 22C13.5 25.4832 15.5954 28.4804 18.6006 29.7934C19.3597 30.1251 19.7062 31.0093 19.3745 31.7685C19.0429 32.5276 18.1586 32.8741 17.3994 32.5424C13.341 30.7692 10.5 26.7181 10.5 22C10.5 15.6487 15.6487 10.5 22 10.5C26.7181 10.5 30.7692 13.341 32.5424 17.3994C32.8741 18.1586 32.5276 19.0429 31.7685 19.3745C31.0093 19.7062 30.1251 19.3597 29.7934 18.6006C28.4804 15.5954 25.4832 13.5 22 13.5ZM29.4831 40.5711L24.3087 24.3086L40.5712 29.483L36.5679 32.1519C36.194 32.4011 35.9516 32.8049 35.9073 33.2521C35.863 33.6993 36.0216 34.1428 36.3393 34.4606L43.8787 41.9999L42 43.8786L34.4607 36.3393C34.1429 36.0215 33.6994 35.8629 33.2522 35.9072C32.805 35.9515 32.4012 36.194 32.1519 36.5679L29.4831 40.5711ZM24.2971 21.1567C22.3639 20.5416 20.5417 22.3639 21.1568 24.2971L26.9398 42.4721C27.5753 44.4696 30.2394 44.845 31.4022 43.1008L33.6331 39.7544L40.2322 46.3535C41.2085 47.3298 42.7914 47.3298 43.7678 46.3535L46.3535 43.7677C47.3299 42.7914 47.3299 41.2085 46.3535 40.2322L39.7544 33.6331L43.1009 31.4021C44.8451 30.2393 44.4697 27.5753 42.4721 26.9397L24.2971 21.1567Z" fill="#18202A"/>
</svg>
