<svg width="48" height="48" viewBox="0 0 48 48" fill="none" xmlns="http://www.w3.org/2000/svg">
<path fill-rule="evenodd" clip-rule="evenodd" d="M10 2C5.58172 2 2 5.58172 2 10V38C2 42.4183 5.58172 46 10 46H38C42.4183 46 46 42.4183 46 38V10C46 5.58172 42.4183 2 38 2H10ZM12 8C9.79086 8 8 9.79086 8 12C8 14.2091 9.79086 16 12 16C14.2091 16 16 14.2091 16 12C16 9.79086 14.2091 8 12 8ZM20 12C20 10.8954 20.8954 10 22 10H38C39.1046 10 40 10.8954 40 12C40 13.1046 39.1046 14 38 14H22C20.8954 14 20 13.1046 20 12ZM10 22C8.89543 22 8 22.8954 8 24V38C8 39.1046 8.89543 40 10 40H38C39.1046 40 40 39.1046 40 38V24C40 22.8954 39.1046 22 38 22H10Z" fill="#18202A"/>
</svg>
