<svg width="48" height="48" viewBox="0 0 48 48" fill="none" xmlns="http://www.w3.org/2000/svg">
<path fill-rule="evenodd" clip-rule="evenodd" d="M33.0979 39.5029C33.0979 38.6745 32.4263 38.0029 31.5979 38.0029H5.5979C4.76947 38.0029 4.0979 38.6745 4.0979 39.5029C4.0979 40.3314 4.76947 41.0029 5.5979 41.0029H31.5979C32.4263 41.0029 33.0979 40.3314 33.0979 39.5029Z" fill="#18202A"/>
<path fill-rule="evenodd" clip-rule="evenodd" d="M33.0979 7.50293C33.0979 6.6745 32.4263 6.00293 31.5979 6.00293H5.5979C4.76947 6.00293 4.0979 6.6745 4.0979 7.50293C4.0979 8.33136 4.76947 9.00293 5.5979 9.00293H31.5979C32.4263 9.00293 33.0979 8.33136 33.0979 7.50293Z" fill="#18202A"/>
<path d="M35.4393 18.5597C34.8536 17.9739 34.8536 17.0241 35.4393 16.4384C36.0251 15.8526 36.9749 15.8526 37.5607 16.4384L43.5607 22.4384C43.8711 22.7488 44.017 23.1614 43.9984 23.5679C43.9818 24.0394 43.7498 24.4561 43.3978 24.7226L37.5607 30.5597C36.9749 31.1455 36.0251 31.1455 35.4393 30.5597C34.8536 29.9739 34.8536 29.0241 35.4393 28.4384L38.8503 25.0274L5.51401 25.0138C4.67716 25.0135 3.99904 24.3348 3.99938 23.4979C3.99973 22.6611 4.6784 21.983 5.51525 21.9833L38.8766 21.9969L35.4393 18.5597Z" fill="#18202A"/>
</svg>
