<svg width="48" height="48" viewBox="0 0 48 48" fill="none" xmlns="http://www.w3.org/2000/svg">
<path fill-rule="evenodd" clip-rule="evenodd" d="M6 2C6 0.895432 6.89543 0 8 0H40C41.1046 0 42 0.895431 42 2V7.1914C42 7.81205 41.7119 8.39753 41.2201 8.77615L36.5149 12.3985C41.0787 16.0641 44 21.6909 44 28C44 39.0457 35.0457 48 24 48C12.9543 48 4 39.0457 4 28C4 21.6909 6.92132 16.0641 11.4851 12.3985L6.77993 8.77615C6.28814 8.39753 6 7.81205 6 7.1914V2ZM34 4V10.6756C32.1645 9.61385 30.1445 8.83539 28 8.40007V4H34ZM20 4V8.40007C17.8555 8.83539 15.8355 9.61385 14 10.6756V4H20ZM24 40C30.6274 40 36 34.6274 36 28C36 21.3726 30.6274 16 24 16C17.3726 16 12 21.3726 12 28C12 34.6274 17.3726 40 24 40ZM26.2509 24.9075L24.5771 21.3807C24.3362 20.8731 23.6638 20.8731 23.4229 21.3807L21.7491 24.9075C21.6529 25.1101 21.4713 25.2496 21.2624 25.2814L17.5587 25.8444C17.0196 25.9263 16.8084 26.6452 17.2053 27.0473L19.8533 29.7297C20.0131 29.8916 20.0863 30.1296 20.0479 30.3624L19.419 34.1763C19.3253 34.7445 19.8735 35.1838 20.3505 34.9229L23.7068 33.0872C23.8911 32.9864 24.1089 32.9864 24.2932 33.0872L27.6495 34.9229C28.1265 35.1838 28.6747 34.7444 28.581 34.1763L27.9521 30.3624C27.9137 30.1296 27.9869 29.8916 28.1467 29.7297L30.7947 27.0473C31.1916 26.6452 30.9804 25.9263 30.4413 25.8444L26.7376 25.2814C26.5287 25.2496 26.3471 25.1101 26.2509 24.9075Z" fill="#18202A"/>
</svg>
