<svg width="48" height="48" viewBox="0 0 48 48" fill="none" xmlns="http://www.w3.org/2000/svg">
<g clip-path="url(#clip0_3906_9313)">
<path d="M23 33C23 33.8284 23.6716 34.5 24.5 34.5C25.3284 34.5 26 33.8284 26 33V27.5H31.5C32.3284 27.5 33 26.8284 33 26C33 25.1716 32.3284 24.5 31.5 24.5H26V19C26 18.1716 25.3284 17.5 24.5 17.5C23.6716 17.5 23 18.1716 23 19V24.5H17.5C16.6716 24.5 16 25.1716 16 26C16 26.8284 16.6716 27.5 17.5 27.5H23V33Z" fill="#18202A"/>
<path fill-rule="evenodd" clip-rule="evenodd" d="M10 6C5.58172 6 2 9.58172 2 14V34C2 38.4183 5.58172 42 10 42H38C42.4183 42 46 38.4183 46 34V18C46 13.5817 42.4183 10 38 10H24L21.7574 7.75736C20.6321 6.63214 19.106 6 17.5147 6H10ZM43 18C43 15.2386 40.7614 13 38 13H22.7574L19.636 9.87868C19.0734 9.31607 18.3104 9 17.5147 9H10C7.23858 9 5 11.2386 5 14V34C5 36.7614 7.23858 39 10 39H38C40.7614 39 43 36.7614 43 34V18Z" fill="#18202A"/>
</g>
<defs>
<clipPath id="clip0_3906_9313">
<rect width="48" height="48" fill="white"/>
</clipPath>
</defs>
</svg>
