<svg width="48" height="48" viewBox="0 0 48 48" fill="none" xmlns="http://www.w3.org/2000/svg">
<path d="M35.5726 9.23573C36.2551 8.36718 36.1042 7.10988 35.2356 6.42745C34.3671 5.74502 33.1098 5.8959 32.4274 6.76444L11.8201 32.9918L7.41421 28.5859C6.63317 27.8048 5.36684 27.8048 4.58579 28.5859C3.80474 29.3669 3.80474 30.6333 4.58579 31.4143L10.5858 37.4143C10.9902 37.8187 11.5484 38.0307 12.1194 37.9965C12.6903 37.9624 13.2193 37.6855 13.5726 37.2357L35.5726 9.23573Z" fill="#18202A"/>
<path d="M38 14C36.8954 14 36 14.8954 36 16C36 17.1046 36.8954 18 38 18H42C43.1046 18 44 17.1046 44 16C44 14.8954 43.1046 14 42 14H38Z" fill="#18202A"/>
<path d="M28 26C28 24.8954 28.8954 24 30 24H42C43.1046 24 44 24.8954 44 26C44 27.1046 43.1046 28 42 28H30C28.8954 28 28 27.1046 28 26Z" fill="#18202A"/>
<path d="M22 34C20.8954 34 20 34.8954 20 36C20 37.1046 20.8954 38 22 38H42C43.1046 38 44 37.1046 44 36C44 34.8954 43.1046 34 42 34H22Z" fill="#18202A"/>
</svg>
