<svg width="48" height="48" viewBox="0 0 48 48" fill="none" xmlns="http://www.w3.org/2000/svg">
<path fill-rule="evenodd" clip-rule="evenodd" d="M24 25C26.7614 25 29 22.7614 29 20C29 17.2386 26.7614 15 24 15C21.2386 15 19 17.2386 19 20C19 22.7614 21.2386 25 24 25ZM24 28C28.4183 28 32 24.4183 32 20C32 15.5817 28.4183 12 24 12C19.5817 12 16 15.5817 16 20C16 24.4183 19.5817 28 24 28Z" fill="#18202A"/>
<path d="M24 2C27.7578 2 31.4312 3.1143 34.5558 5.202C37.6802 7.28972 40.1156 10.257 41.5536 13.7288C42.9918 17.2005 43.368 21.0208 42.635 24.7064C41.902 28.392 40.0924 31.7774 37.4354 34.4346L28.4768 44.1214C27.8892 44.7094 27.1914 45.1758 26.4234 45.4942C25.6552 45.8126 24.8316 45.9766 24 45.9766C23.1684 45.9766 22.3448 45.8126 21.5766 45.4942C20.8082 45.1758 20.1102 44.709 19.5224 44.1206L10.5646 34.4346C7.90754 31.7774 6.09806 28.392 5.36502 24.7064C4.63198 21.0208 5.0083 17.2005 6.4464 13.7288C7.88448 10.257 10.3198 7.28972 13.4443 5.202C16.5688 3.1143 20.2422 2 24 2ZM24 5C20.8355 5 17.7421 5.93836 15.111 7.69642C12.4798 9.45451 10.429 11.9533 9.21802 14.8769C8.00699 17.8004 7.69009 21.0175 8.30738 24.1212C8.88352 27.0179 10.2493 29.6944 12.314 31.9263L12.7671 32.3977L21.6449 42.0004C21.954 42.3099 22.3211 42.5553 22.7253 42.7228C23.1295 42.8903 23.5627 42.9766 24 42.9766C24.4373 42.9766 24.8705 42.8903 25.2745 42.7229C25.5979 42.5888 25.8975 42.405 26.1214 42.2214L26.2743 42.0845L35.314 32.3134C37.5516 30.0756 39.0754 27.2247 39.6926 24.1212C40.3099 21.0174 39.993 17.8003 38.7819 14.8768C37.5711 11.9534 35.5203 9.45456 32.8891 7.69644C30.2579 5.93836 27.1645 5 24 5Z" fill="#18202A"/>
</svg>
