<svg width="48" height="48" viewBox="0 0 48 48" fill="none" xmlns="http://www.w3.org/2000/svg">
<path fill-rule="evenodd" clip-rule="evenodd" d="M12 9H10C8.34315 9 7 10.3431 7 12V14C7 15.6569 8.34315 17 10 17H12C13.6569 17 15 15.6569 15 14V12C15 10.3431 13.6569 9 12 9ZM10 6H12C15.3137 6 18 8.68629 18 12V14C18 17.3137 15.3137 20 12 20H10C6.68629 20 4 17.3137 4 14V12C4 8.68629 6.68629 6 10 6Z" fill="#18202A"/>
<path fill-rule="evenodd" clip-rule="evenodd" d="M12 31H10C8.34315 31 7 32.3431 7 34V36C7 37.6569 8.34315 39 10 39H12C13.6569 39 15 37.6569 15 36V34C15 32.3431 13.6569 31 12 31ZM10 28H12C15.3137 28 18 30.6863 18 34V36C18 39.3137 15.3137 42 12 42H10C6.68629 42 4 39.3137 4 36V34C4 30.6863 6.68629 28 10 28Z" fill="#18202A"/>
<path d="M22 9.5C22 8.67157 22.6716 8 23.5 8H42.5C43.3284 8 44 8.67157 44 9.5C44 10.3284 43.3284 11 42.5 11H23.5C22.6716 11 22 10.3284 22 9.5Z" fill="#18202A"/>
<path d="M22 16.5C22 15.6716 22.6716 15 23.5 15H42.5C43.3284 15 44 15.6716 44 16.5C44 17.3284 43.3284 18 42.5 18H23.5C22.6716 18 22 17.3284 22 16.5Z" fill="#18202A"/>
<path d="M22 31.5C22 30.6716 22.6716 30 23.5 30H42.5C43.3284 30 44 30.6716 44 31.5C44 32.3284 43.3284 33 42.5 33H23.5C22.6716 33 22 32.3284 22 31.5Z" fill="#18202A"/>
<path d="M22 38.5C22 37.6716 22.6716 37 23.5 37H42.5C43.3284 37 44 37.6716 44 38.5C44 39.3284 43.3284 40 42.5 40H23.5C22.6716 40 22 39.3284 22 38.5Z" fill="#18202A"/>
</svg>
