<svg width="48" height="48" viewBox="0 0 48 48" fill="none" xmlns="http://www.w3.org/2000/svg">
<path fill-rule="evenodd" clip-rule="evenodd" d="M24 46C36.1503 46 46 36.1503 46 24C46 11.8497 36.1503 2 24 2C11.8497 2 2 11.8497 2 24C2 36.1503 11.8497 46 24 46ZM33.4483 19.3793C34.21 18.5795 34.1791 17.3135 33.3793 16.5517C32.5794 15.79 31.3135 15.8208 30.5517 16.6207L20.6495 27.018L17.5185 23.3651C16.7996 22.5264 15.537 22.4293 14.6984 23.1482C13.8597 23.867 13.7626 25.1296 14.4815 25.9683L19.0529 31.3016C19.421 31.731 19.9536 31.9845 20.519 31.9993C21.0844 32.0141 21.6296 31.7889 22.0197 31.3793L33.4483 19.3793Z" fill="#18202A"/>
</svg>
