<svg width="48" height="48" viewBox="0 0 48 48" fill="none" xmlns="http://www.w3.org/2000/svg">
<path fill-rule="evenodd" clip-rule="evenodd" d="M12 5H36C36.5523 5 37 5.44772 37 6V8H35.5H32.5H25.5H22.5H15.5H12.5H11V6C11 5.44772 11.4477 5 12 5ZM8 8V6C8 3.79086 9.79086 2 12 2H36C38.2091 2 40 3.79086 40 6V8H41.5C43.7091 8 45.5 9.79086 45.5 12V18C45.5 19.5367 44.9223 20.9385 43.9722 22H44V38C44 42.4183 40.4183 46 36 46H32H16H12C7.58172 46 4 42.4183 4 38V22H4.02779C3.07771 20.9385 2.5 19.5367 2.5 18V12C2.5 9.79086 4.29086 8 6.5 8H8ZM7 23.811V38C7 40.7614 9.23858 43 12 43H16V34C16 30.6863 18.6863 28 22 28H26C29.3137 28 32 30.6863 32 34V43H36C38.7614 43 41 40.7614 41 38V23.811C40.5206 23.9344 40.0179 24 39.5 24H38.5C36.708 24 35.0994 23.2144 34 21.9687C32.9006 23.2144 31.292 24 29.5 24H28.5C26.708 24 25.0994 23.2144 24 21.9687C22.9006 23.2144 21.292 24 19.5 24H18.5C16.708 24 15.0994 23.2144 14 21.9687C12.9006 23.2144 11.292 24 9.5 24H8.5C7.98205 24 7.47943 23.9344 7 23.811ZM29 43V34C29 32.3431 27.6569 31 26 31H22C20.3431 31 19 32.3431 19 34V43H29ZM40 11H35.5V18C35.5 19.6569 36.8431 21 38.5 21H39.5C41.1569 21 42.5 19.6569 42.5 18V12C42.5 11.4477 42.0523 11 41.5 11H40ZM32.5 11H25.5V18C25.5 19.6569 26.8431 21 28.5 21H29.5C31.1569 21 32.5 19.6569 32.5 18V11ZM22.5 11H15.5V18C15.5 19.6569 16.8431 21 18.5 21H19.5C21.1569 21 22.5 19.6569 22.5 18V11ZM12.5 11H8H6.5C5.94772 11 5.5 11.4477 5.5 12V18C5.5 19.6569 6.84315 21 8.5 21H9.5C11.1569 21 12.5 19.6569 12.5 18V11Z" fill="#18202A"/>
</svg>
