<svg width="48" height="48" viewBox="0 0 48 48" fill="none" xmlns="http://www.w3.org/2000/svg">
<path d="M5 5C5 3.34315 3.65685 2 2 2V46H46C46 44.3431 44.6569 43 43 43H5V5Z" fill="#18202A"/>
<path d="M37 10C37 8.34315 38.3431 7 40 7C41.6569 7 43 8.34315 43 10C43 11.6569 41.6569 13 40 13C39.5566 13 39.1357 12.9038 38.757 12.7312L28.9862 19.7104C28.9953 19.8057 29 19.9023 29 20C29 21.6569 27.6569 23 26 23C24.7381 23 23.6581 22.2208 23.215 21.1174L14.36 19.8524C13.8107 20.5512 12.9578 21 12 21C10.3431 21 9 19.6569 9 18C9 16.3431 10.3431 15 12 15C13.2619 15 14.3419 15.7792 14.785 16.8826L23.64 18.1476C24.1893 17.4488 25.0422 17 26 17C26.4434 17 26.8643 17.0962 27.243 17.2688L37.0138 10.2896C37.0047 10.1943 37 10.0977 37 10Z" fill="#18202A"/>
<path fill-rule="evenodd" clip-rule="evenodd" d="M10 24C8.89543 24 8 24.8954 8 26V38C8 39.1046 8.89543 40 10 40H14C15.1046 40 16 39.1046 16 38V26C16 24.8954 15.1046 24 14 24H10ZM11 27V37H13V27H11Z" fill="#18202A"/>
<path fill-rule="evenodd" clip-rule="evenodd" d="M22 28C22 26.8954 22.8954 26 24 26H28C29.1046 26 30 26.8954 30 28V38C30 39.1046 29.1046 40 28 40H24C22.8954 40 22 39.1046 22 38V28ZM25 37V29H27V37H25Z" fill="#18202A"/>
<path fill-rule="evenodd" clip-rule="evenodd" d="M38 16C36.8954 16 36 16.8954 36 18V38C36 39.1046 36.8954 40 38 40H42C43.1046 40 44 39.1046 44 38V18C44 16.8954 43.1046 16 42 16H38ZM39 19V37H41V19H39Z" fill="#18202A"/>
</svg>
