<svg width="48" height="48" viewBox="0 0 48 48" fill="none" xmlns="http://www.w3.org/2000/svg">
<path fill-rule="evenodd" clip-rule="evenodd" d="M26.0711 6.17158L6.07111 26.1716C4.50901 27.7337 4.50901 30.2663 6.07111 31.8284L16.1716 41.9289C17.7337 43.491 20.2664 43.491 21.8285 41.9289L41.8285 21.9289C42.5786 21.1788 43 20.1614 43 19.1005V7C43 5.89543 42.1046 5 41 5H28.8995C27.8387 5 26.8213 5.42143 26.0711 6.17158ZM39 14C39 16.7614 36.7615 19 34 19C31.2386 19 29 16.7614 29 14C29 11.2386 31.2386 9 34 9C36.7615 9 39 11.2386 39 14ZM23.9498 4.05025L3.94979 24.0503C1.21612 26.7839 1.21612 31.2161 3.94979 33.9497L14.0503 44.0503C16.784 46.7839 21.2161 46.7839 23.9498 44.0502L43.9498 24.0503C45.2625 22.7375 46 20.957 46 19.1005V7C46 4.23858 43.7615 2 41 2H28.8995C27.043 2 25.2625 2.7375 23.9498 4.05025ZM36 14C36 15.1046 35.1046 16 34 16C32.8955 16 32 15.1046 32 14C32 12.8954 32.8955 12 34 12C35.1046 12 36 12.8954 36 14Z" fill="#18202A"/>
</svg>
