<svg width="48" height="48" viewBox="0 0 48 48" fill="none" xmlns="http://www.w3.org/2000/svg">
<path fill-rule="evenodd" clip-rule="evenodd" d="M2 10C2 5.58172 5.58172 2 10 2H38C42.4183 2 46 5.58172 46 10V26.5094C43.7323 24.9276 40.9745 24 38 24C37.1453 24 36.3085 24.0766 35.4961 24.2233C34.6979 24.0516 33.8676 23.9609 33.0152 23.9609C32.4164 23.9609 31.8286 24.0056 31.2551 24.0918C31.4311 24.2025 31.6045 24.3171 31.7751 24.4354C32.0641 24.636 32.3277 24.8565 32.5661 25.0936C31.8976 25.3754 31.2556 25.7076 30.6448 26.0855L30.6348 26.0786C28.7445 24.7668 26.4604 24 24.0002 24C21.5402 24 19.256 24.7668 17.3658 26.0785C15.8537 27.1278 15.3456 29.0896 15.9253 30.8365C16.1815 31.6088 16.48 32.3613 16.8179 33.0911C17.4659 34.4906 18.7729 35.4692 20.2956 35.7138C21.5025 35.9076 22.7398 36.0082 24.0002 36.0082C24.0273 36.0082 24.0544 36.0082 24.0814 36.0081C24.1012 36.008 24.1209 36.0079 24.1407 36.0078C24.048 36.6585 24 37.3237 24 38C24 40.9745 24.9276 43.7323 26.5094 46H10C5.58172 46 2 42.4183 2 38V10ZM24 22C26.6667 22 28 19.5 28 16.375C28 13.875 26.6667 12 24 12C21.3333 12 20 13.875 20 16.375C20 19.5 21.3333 22 24 22ZM13 22C15 22 16 20 16 17.5C16 15.5 15 14 13 14C11 14 10 15.5 10 17.5C10 20 11 22 13 22ZM38 17.5C38 20 37 22 35 22C33 22 32 20 32 17.5C32 15.5 33 14 35 14C37 14 38 15.5 38 17.5ZM16.2256 24.4354C16.3773 24.3301 16.5312 24.2278 16.6873 24.1286C16.0415 24.0184 15.3766 23.9609 14.6978 23.9609C12.8183 23.9609 11.0463 24.4015 9.48857 25.1806C8.16624 25.842 7.61016 27.3919 8.05158 28.803C8.13729 29.077 8.22855 29.3487 8.32523 29.618C8.74626 30.7908 9.79243 31.6182 11.0267 31.7896C12.0734 31.935 13.1409 32.0191 14.225 32.0381C14.1567 31.8486 14.0907 31.6581 14.0271 31.4664C13.2107 29.0062 13.8791 26.0636 16.2256 24.4354ZM48 38C48 43.5228 43.5228 48 38 48C32.4772 48 28 43.5228 28 38C28 32.4772 32.4772 28 38 28C43.5228 28 48 32.4772 48 38ZM38 32C36.8954 32 36 32.8954 36 34V36H34C32.8954 36 32 36.8954 32 38C32 39.1046 32.8954 40 34 40H36V42C36 43.1046 36.8954 44 38 44C39.1046 44 40 43.1046 40 42V40H42C43.1046 40 44 39.1046 44 38C44 36.8954 43.1046 36 42 36H40V34C40 32.8954 39.1046 32 38 32Z" fill="#18202A"/>
</svg>
