<svg width="48" height="48" viewBox="0 0 48 48" fill="none" xmlns="http://www.w3.org/2000/svg">
<path fill-rule="evenodd" clip-rule="evenodd" d="M24 43C34.4934 43 43 34.4934 43 24C43 13.5066 34.4934 5 24 5C13.5066 5 5 13.5066 5 24C5 34.4934 13.5066 43 24 43ZM46 24C46 36.1503 36.1503 46 24 46C11.8497 46 2 36.1503 2 24C2 11.8497 11.8497 2 24 2C36.1503 2 46 11.8497 46 24Z" fill="#18202A"/>
<path d="M22.5 19.5C22.5 18.6716 23.1716 18 24 18C24.8284 18 25.5 18.6716 25.5 19.5V32.5C25.5 33.3284 24.8284 34 24 34C23.1716 34 22.5 33.3284 22.5 32.5V19.5Z" fill="#18202A"/>
<path d="M19.5 19.5C19.5 18.6716 20.1716 18 21 18H24C24.8284 18 25.5 18.6716 25.5 19.5C25.5 20.3284 24.8284 21 24 21H21C20.1716 21 19.5 20.3284 19.5 19.5Z" fill="#18202A"/>
<path d="M18.5 32.5C18.5 31.6716 19.1716 31 20 31H28C28.8284 31 29.5 31.6716 29.5 32.5C29.5 33.3284 28.8284 34 28 34H20C19.1716 34 18.5 33.3284 18.5 32.5Z" fill="#18202A"/>
<path d="M22 14C22 12.8954 22.8954 12 24 12C25.1046 12 26 12.8954 26 14C26 15.1046 25.1046 16 24 16C22.8954 16 22 15.1046 22 14Z" fill="#18202A"/>
</svg>
