<svg width="48" height="48" viewBox="0 0 48 48" fill="none" xmlns="http://www.w3.org/2000/svg">
<path fill-rule="evenodd" clip-rule="evenodd" d="M8 2C7.17157 2 6.5 2.67157 6.5 3.5C6.5 4.32843 7.17157 5 8 5H10V8.28571C10 14.525 13.7188 19.8543 18.961 21.9737C19.5696 22.2197 20 22.7921 20 23.4486V24.5514C20 25.2078 19.5696 25.7802 18.961 26.0262C13.7188 28.1456 10 33.4749 10 39.7142V43H8C7.17157 43 6.5 43.6716 6.5 44.5C6.5 45.3284 7.17157 46 8 46H40C40.8284 46 41.5 45.3284 41.5 44.5C41.5 43.6716 40.8284 43 40 43H38L38 39.7142C38 33.475 34.2812 28.1456 29.039 26.0262C28.4304 25.7802 28 25.2078 28 24.5514V23.4486C28 22.7921 28.4304 22.2197 29.039 21.9737C34.2812 19.8543 38 14.525 38 8.28571L38 5H40C40.8284 5 41.5 4.32843 41.5 3.5C41.5 2.67157 40.8284 2 40 2H8ZM20.0855 19.1924C16.0001 17.5407 13 13.3276 13 8.28571V5H35L35 8.28645C34.9997 13.328 31.9997 17.5408 27.9145 19.1924C26.3059 19.8427 25 21.4316 25 23.4486V24.5514C25 26.5683 26.3059 28.1572 27.9145 28.8075C31.9997 30.4591 34.9997 34.6726 35 39.7142L35 43H13V39.7142C13 34.6723 16.0001 30.4592 20.0855 28.8075C21.6941 28.1572 23 26.5683 23 24.5514V23.4486C23 21.4316 21.6941 19.8427 20.0855 19.1924Z" fill="#18202A"/>
</svg>
