<svg width="48" height="48" viewBox="0 0 48 48" fill="none" xmlns="http://www.w3.org/2000/svg">
<path fill-rule="evenodd" clip-rule="evenodd" d="M40 22C40 25.7439 38.857 29.2209 36.9008 32.101C36.2599 33.0446 35.5318 33.9241 34.7279 34.7279C33.9241 35.5318 33.0446 36.2599 32.101 36.9008C29.2209 38.857 25.7439 40 22 40C12.0589 40 4 31.9411 4 22C4 12.0589 12.0589 4 22 4C31.9411 4 40 12.0589 40 22ZM36.5858 36.5858C37.1909 35.9807 38.0873 35.8444 38.8237 36.1769C39.0378 36.2736 39.2383 36.4099 39.4142 36.5858L43.4142 40.5858C44.1953 41.3668 44.1953 42.6332 43.4142 43.4142C42.6332 44.1953 41.3668 44.1953 40.5858 43.4142L36.5858 39.4142C36.4099 39.2383 36.2736 39.0378 36.1769 38.8237C35.8444 38.0873 35.9807 37.1909 36.5858 36.5858ZM36 22C36 29.732 29.732 36 22 36C14.268 36 8 29.732 8 22C8 14.268 14.268 8 22 8C29.732 8 36 14.268 36 22ZM16 20C14.8954 20 14 20.8954 14 22C14 23.1046 14.8954 24 16 24H28C29.1046 24 30 23.1046 30 22C30 20.8954 29.1046 20 28 20H16Z" fill="#18202A"/>
</svg>
