<svg width="48" height="48" viewBox="0 0 48 48" fill="none" xmlns="http://www.w3.org/2000/svg">
<g clip-path="url(#clip0_2294_8642)">
<path d="M8.44957 8.34803L23.9044 4.20693C27.1052 3.34928 30.3952 5.24877 31.2528 8.44957L32.0749 11.5174L36.3154 11.8884L35.1166 7.41429C33.6871 2.07963 28.2038 -1.08619 22.8691 0.343224L7.41429 4.48433C2.07963 5.91375 -1.08619 11.3971 0.343224 16.7318L4.48433 32.1866C5.38732 35.5566 7.90812 38.0611 10.9872 39.0884C10.7169 38.0265 10.6177 36.9017 10.7186 35.7483L10.8197 34.5936C9.64634 33.8135 8.74137 32.6193 8.34803 31.1513L4.20693 15.6965C3.34928 12.4957 5.24877 9.20568 8.44957 8.34803Z" fill="#18202A"/>
<path d="M24.6206 21.0875C24.5725 21.6376 24.0874 22.0446 23.5372 21.9965C22.9871 21.9484 22.5801 21.4633 22.6282 20.9131C22.6763 20.363 23.1614 19.956 23.7115 20.0041C24.2617 20.0522 24.6687 20.5373 24.6206 21.0875Z" fill="#18202A"/>
<path fill-rule="evenodd" clip-rule="evenodd" d="M10.9872 39.0884C10.9196 38.8229 10.8628 38.5537 10.817 38.2809C10.6823 37.4776 10.6444 36.6449 10.7146 35.7964L10.7186 35.7483L12.1131 19.8092C12.5945 14.3074 17.4448 10.2375 22.9466 10.7188L38.8858 12.1133C44.3876 12.5947 48.4575 17.445 47.9762 22.9468L46.5817 38.8859C46.1003 44.3878 41.25 48.4577 35.7482 47.9763L19.809 46.5818C15.4606 46.2014 12.0067 43.0917 10.9872 39.0884ZM23.1886 25.9813C25.9395 26.222 28.3647 24.187 28.6054 21.4361C28.846 18.6852 26.8111 16.26 24.0602 16.0193C21.3093 15.7787 18.8841 17.8136 18.6434 20.5645C18.4027 23.3154 20.4377 25.7406 23.1886 25.9813ZM46.8246 36.0039L37.216 24.4647L27.0049 31.8333L22.2569 28.0683L12 35.5342L14.354 38.7682L22.1533 33.0911L26.8912 36.8481L36.5303 29.8923L43.7507 38.5635L46.8246 36.0039Z" fill="#18202A"/>
<path fill-rule="evenodd" clip-rule="evenodd" d="M38.5371 16.0981L22.598 14.7036C19.2969 14.4148 16.3867 16.8567 16.0979 20.1578L14.7034 36.097C14.4146 39.3981 16.8566 42.3083 20.1577 42.5971L36.0968 43.9916C39.3979 44.2804 42.3081 41.8384 42.5969 38.5373L43.9914 22.5982C44.2802 19.2971 41.8382 16.3869 38.5371 16.0981ZM22.9466 10.7188C17.4448 10.2375 12.5945 14.3074 12.1131 19.8092L10.7186 35.7483C10.2373 41.2502 14.3072 46.1005 19.809 46.5818L35.7482 47.9763C41.25 48.4577 46.1003 44.3878 46.5817 38.8859L47.9762 22.9468C48.4575 17.445 44.3876 12.5947 38.8858 12.1133L22.9466 10.7188Z" fill="#18202A"/>
</g>
<defs>
<clipPath id="clip0_2294_8642">
<rect width="48" height="48" fill="white"/>
</clipPath>
</defs>
</svg>
