<svg width="48" height="48" viewBox="0 0 48 48" fill="none" xmlns="http://www.w3.org/2000/svg">
<path d="M12 4C12 2.89543 12.8954 2 14 2C15.1046 2 16 2.89543 16 4V12C16 13.1046 15.1046 14 14 14C12.8954 14 12 13.1046 12 12V4Z" fill="#18202A"/>
<path d="M32 4C32 2.89543 32.8954 2 34 2C35.1046 2 36 2.89543 36 4V12C36 13.1046 35.1046 14 34 14C32.8954 14 32 13.1046 32 12V4Z" fill="#18202A"/>
<path fill-rule="evenodd" clip-rule="evenodd" d="M10 6C5.58172 6 2 9.58172 2 14V38C2 42.4183 5.58172 46 10 46H38C42.4183 46 46 42.4183 46 38V14C46 9.58172 42.4183 6 38 6H10ZM10 20C10 18.8954 10.8954 18 12 18H36C37.1046 18 38 18.8954 38 20C38 21.1046 37.1046 22 36 22H12C10.8954 22 10 21.1046 10 20ZM10 28C10 26.8954 10.8954 26 12 26C13.1046 26 14 26.8954 14 28C14 29.1046 13.1046 30 12 30C10.8954 30 10 29.1046 10 28ZM12 34C10.8954 34 10 34.8954 10 36C10 37.1046 10.8954 38 12 38C13.1046 38 14 37.1046 14 36C14 34.8954 13.1046 34 12 34ZM18 28C18 26.8954 18.8954 26 20 26C21.1046 26 22 26.8954 22 28C22 29.1046 21.1046 30 20 30C18.8954 30 18 29.1046 18 28ZM20 34C18.8954 34 18 34.8954 18 36C18 37.1046 18.8954 38 20 38C21.1046 38 22 37.1046 22 36C22 34.8954 21.1046 34 20 34ZM26 28C26 26.8954 26.8954 26 28 26C29.1046 26 30 26.8954 30 28C30 29.1046 29.1046 30 28 30C26.8954 30 26 29.1046 26 28ZM28 34C26.8954 34 26 34.8954 26 36C26 37.1046 26.8954 38 28 38C29.1046 38 30 37.1046 30 36C30 34.8954 29.1046 34 28 34ZM34 28C34 26.8954 34.8954 26 36 26C37.1046 26 38 26.8954 38 28C38 29.1046 37.1046 30 36 30C34.8954 30 34 29.1046 34 28ZM36 34C34.8954 34 34 34.8954 34 36C34 37.1046 34.8954 38 36 38C37.1046 38 38 37.1046 38 36C38 34.8954 37.1046 34 36 34Z" fill="#18202A"/>
</svg>
