<svg width="48" height="48" viewBox="0 0 48 48" fill="none" xmlns="http://www.w3.org/2000/svg">
<path fill-rule="evenodd" clip-rule="evenodd" d="M12.4796 15.7423C9.10353 18.4748 6.52348 21.7396 5.09418 23.7609C5.03373 23.8463 5.01306 23.9283 5.01306 24C5.01306 24.0717 5.03373 24.1537 5.09418 24.2391C6.52348 26.2604 9.10353 29.5252 12.4796 32.2577C15.8761 35.0068 19.8058 37 24 37C28.1941 37 32.1238 35.0068 35.5203 32.2577C38.8964 29.5252 41.4764 26.2604 42.9058 24.2391C42.9662 24.1537 42.9869 24.0717 42.9869 24C42.9869 23.9283 42.9662 23.8463 42.9058 23.7609C41.4765 21.7396 38.8964 18.4748 35.5203 15.7423C32.1238 12.9932 28.1941 11 24 11C19.8058 11 15.8761 12.9932 12.4796 15.7423ZM2.64472 22.0288C1.80251 23.2198 1.80251 24.7802 2.64472 25.9712C5.66935 30.2486 13.6949 40 24 40C34.305 40 42.3306 30.2486 45.3552 25.9712C46.1974 24.7802 46.1974 23.2198 45.3552 22.0288C42.3306 17.7514 34.305 8 24 8C13.6949 8 5.66935 17.7514 2.64472 22.0288Z" fill="#18202A"/>
<path fill-rule="evenodd" clip-rule="evenodd" d="M24 29C26.7614 29 29 26.7614 29 24C29 21.2386 26.7614 19 24 19C21.2385 19 19 21.2386 19 24C19 26.7614 21.2385 29 24 29ZM32 24C32 28.4183 28.4182 32 24 32C19.5817 32 16 28.4183 16 24C16 19.5817 19.5817 16 24 16C28.4182 16 32 19.5817 32 24Z" fill="#18202A"/>
</svg>
