<svg width="48" height="48" viewBox="0 0 48 48" fill="none" xmlns="http://www.w3.org/2000/svg">
<path d="M14.5858 14.5858C15.3668 13.8047 16.6332 13.8047 17.4142 14.5858L24 21.1716L30.5858 14.5858C31.3668 13.8047 32.6332 13.8047 33.4142 14.5858C34.1953 15.3668 34.1953 16.6332 33.4142 17.4142L26.8284 24L33.4142 30.5858C34.1953 31.3668 34.1953 32.6332 33.4142 33.4142C32.6332 34.1953 31.3668 34.1953 30.5858 33.4142L24 26.8284L17.4142 33.4142C16.6332 34.1953 15.3668 34.1953 14.5858 33.4142C13.8047 32.6332 13.8047 31.3668 14.5858 30.5858L21.1716 24L14.5858 17.4142C13.8047 16.6332 13.8047 15.3668 14.5858 14.5858Z" fill="#18202A"/>
<path fill-rule="evenodd" clip-rule="evenodd" d="M12 4C7.58172 4 4 7.58172 4 12V36C4 40.4183 7.58172 44 12 44H36C40.4183 44 44 40.4183 44 36V12C44 7.58172 40.4183 4 36 4H12ZM40 12C40 9.79086 38.2091 8 36 8H12C9.79086 8 8 9.79086 8 12V36C8 38.2091 9.79086 40 12 40H36C38.2091 40 40 38.2091 40 36V12Z" fill="#18202A"/>
</svg>
