<svg width="48" height="48" viewBox="0 0 48 48" fill="none" xmlns="http://www.w3.org/2000/svg">
<path fill-rule="evenodd" clip-rule="evenodd" d="M4.57626 2.44202C3.98691 1.85266 3.03137 1.85266 2.44202 2.44202C1.85266 3.03137 1.85266 3.98691 2.44202 4.57626L8 10.1342V44C8 45.6481 9.88153 46.5889 11.2 45.6L21.6 37.8C23.0222 36.7333 24.9778 36.7333 26.4 37.8L36.8 45.6C38.1185 46.5889 40 45.6481 40 44V42.1342L43.4237 45.558C44.0131 46.1473 44.9686 46.1473 45.558 45.558C46.1473 44.9686 46.1473 44.0131 45.558 43.4237L4.57626 2.44202ZM37 39.1342L12.8658 15H11V42L19.8 35.4C22.2889 33.5333 25.7111 33.5333 28.2 35.4L37 42V39.1342ZM37 12H18.374L21.374 15H37V30.626L40 33.626V10C40 5.58172 36.4183 2 32 2H16C13.886 2 11.9635 2.81997 10.5332 4.15921L12.6564 6.28237C13.5422 5.48516 14.7144 5 16 5H32C34.7614 5 37 7.23858 37 10V12Z" fill="#18202A"/>
</svg>
