<svg width="48" height="48" viewBox="0 0 48 48" fill="none" xmlns="http://www.w3.org/2000/svg">
<path fill-rule="evenodd" clip-rule="evenodd" d="M24 22C29.3333 22 32 17 32 10.75C32 5.75 29.3333 2 24 2C18.6667 2 16 5.75 16 10.75C16 17 18.6667 22 24 22ZM24.0001 26C25.9455 26 27.826 26.2778 29.6042 26.7958C26.2014 29.3498 24 33.4178 24 38C24 40.9386 24.9054 43.6658 26.4524 45.9178C25.642 45.9723 24.8243 46 24 46C20.9052 46 17.9016 45.6095 15.0359 44.875C12.5978 44.2502 10.5314 42.6171 9.39972 40.369C9.36839 40.3068 9.33726 40.2444 9.30633 40.1819C7.74188 37.0227 8.27388 33.1522 10.9433 30.8496C14.4469 27.8275 19.0101 26 24.0001 26ZM28 38C28 43.5228 32.4771 48 38 48C43.5228 48 48 43.5228 48 38C48 32.4772 43.5228 28 38 28C32.4771 28 28 32.4772 28 38ZM37.9393 31.9393C37.3535 32.5251 37.3535 33.4749 37.9393 34.0607L40.3787 36.5H32C31.1716 36.5 30.5 37.1716 30.5 38C30.5 38.8284 31.1716 39.5 32 39.5H40.3787L37.9393 41.9393C37.3535 42.5251 37.3535 43.4749 37.9393 44.0607C38.5251 44.6464 39.4749 44.6464 40.0606 44.0607L45.0606 39.0607C45.6464 38.4749 45.6464 37.5251 45.0606 36.9393L40.0606 31.9393C39.4749 31.3536 38.5251 31.3536 37.9393 31.9393Z" fill="#18202A"/>
</svg>
