<svg width="48" height="48" viewBox="0 0 48 48" fill="none" xmlns="http://www.w3.org/2000/svg">
<path fill-rule="evenodd" clip-rule="evenodd" d="M19.636 9.87868L22.7574 13H38C40.7614 13 43 15.2386 43 18H5V14C5 11.2386 7.23858 9 10 9H17.5147C18.3104 9 19.0734 9.31607 19.636 9.87868ZM5 20V34C5 36.7614 7.23858 39 10 39H25.0379C25.1169 40.0389 25.3181 41.0437 25.627 42H10C5.58172 42 2 38.4183 2 34V14C2 9.58172 5.58172 6 10 6H17.5147C19.106 6 20.6321 6.63214 21.7574 7.75736L24 10H38C42.4183 10 46 13.5817 46 18V27.7523C45.0895 27.0405 44.0818 26.4474 43 25.9963V20H5ZM48 38C48 43.5229 43.5229 48 38 48C32.4772 48 28 43.5229 28 38C28 32.4772 32.4772 28 38 28C43.5229 28 48 32.4772 48 38ZM32 38C32 37.1716 32.6716 36.5 33.5 36.5H42.5C43.3284 36.5 44 37.1716 44 38C44 38.8284 43.3284 39.5 42.5 39.5H33.5C32.6716 39.5 32 38.8284 32 38Z" fill="#18202A"/>
</svg>
