<svg width="48" height="48" viewBox="0 0 48 48" fill="none" xmlns="http://www.w3.org/2000/svg">
<path fill-rule="evenodd" clip-rule="evenodd" d="M17 1C18.1046 1 19 1.89543 19 3V7C19 8.10457 18.1046 9 17 9C15.8954 9 15 8.10457 15 7V3C15 1.89543 15.8954 1 17 1ZM5.58579 5.58579C6.36684 4.80474 7.63316 4.80474 8.41421 5.58579L11.4142 8.58579C12.1953 9.36683 12.1953 10.6332 11.4142 11.4142C10.6332 12.1953 9.36683 12.1953 8.58579 11.4142L5.58579 8.41421C4.80474 7.63316 4.80474 6.36684 5.58579 5.58579ZM1 17C1 15.8954 1.89543 15 3 15H7C8.10457 15 9 15.8954 9 17C9 18.1046 8.10457 19 7 19H3C1.89543 19 1 18.1046 1 17ZM23.9999 7.02996C28.6862 2.34367 36.2842 2.34367 40.9705 7.02996C45.6568 11.7163 45.6568 19.3142 40.9705 24.0005L36.7279 28.2432C35.9468 29.0242 34.6805 29.0242 33.8994 28.2432C33.1184 27.4621 33.1184 26.1958 33.8994 25.4147L38.1421 21.1721C41.2663 18.0479 41.2663 12.9826 38.1421 9.85839C35.0179 6.73419 29.9526 6.73419 26.8284 9.85839L22.5857 14.101C21.8047 14.8821 20.5384 14.8821 19.7573 14.101C18.9763 13.32 18.9763 12.0536 19.7573 11.2726L23.9999 7.02996ZM7.02935 23.9988C2.34306 28.6851 2.34306 36.2831 7.02935 40.9694C11.7156 45.6557 19.3136 45.6557 23.9999 40.9694L28.2426 36.7268C29.0236 35.9457 29.0236 34.6794 28.2426 33.8983C27.4615 33.1173 26.1952 33.1173 25.4141 33.8983L21.1715 38.141C18.0473 41.2652 12.982 41.2652 9.85778 38.141C6.73358 35.0168 6.73358 29.9515 9.85778 26.8273L14.1004 22.5846C14.8815 21.8036 14.8815 20.5373 14.1004 19.7562C13.3194 18.9752 12.053 18.9752 11.272 19.7562L7.02935 23.9988ZM29 45C29 46.1046 29.8954 47 31 47C32.1046 47 33 46.1046 33 45V41C33 39.8954 32.1046 39 31 39C29.8954 39 29 39.8954 29 41V45ZM36.5858 39.4142L39.5858 42.4142C40.3668 43.1953 41.6332 43.1953 42.4142 42.4142C43.1953 41.6332 43.1953 40.3668 42.4142 39.5858L39.4142 36.5858C38.6332 35.8047 37.3668 35.8047 36.5858 36.5858C35.8047 37.3668 35.8047 38.6332 36.5858 39.4142ZM45 33C46.1046 33 47 32.1046 47 31C47 29.8954 46.1046 29 45 29H41C39.8954 29 39 29.8954 39 31C39 32.1046 39.8954 33 41 33H45Z" fill="#18202A"/>
</svg>
