<svg width="48" height="48" viewBox="0 0 48 48" fill="none" xmlns="http://www.w3.org/2000/svg">
<g clip-path="url(#clip0_3906_9121)">
<path fill-rule="evenodd" clip-rule="evenodd" d="M2 14C2 9.58172 5.58172 6 10 6H17.5147C19.106 6 20.6321 6.63214 21.7574 7.75736L24 10H38C42.4183 10 46 13.5817 46 18V34C46 38.4183 42.4183 42 38 42H10C5.58172 42 2 38.4183 2 34V14ZM33 25.0909C35.3982 25.0909 36.5973 22.8182 36.5973 19.9773C36.5973 17.7045 35.3982 16 33 16C30.6018 16 29.4027 17.7045 29.4027 19.9773C29.4027 22.8182 30.6018 25.0909 33 25.0909ZM27.1289 29.1135C27.3796 28.8948 27.6424 28.69 27.9161 28.5C29.3623 27.4964 31.1133 26.9091 33 26.9091C34.5278 26.9091 35.9667 27.2942 37.2267 27.9737C37.8172 28.2921 38.3684 28.6751 38.8711 29.1134C39.0121 29.2363 39.1398 29.3691 39.2543 29.51C40.1147 30.5689 40.2281 32.088 39.6072 33.3554L39.5865 33.3975L39.5652 33.4405C39.0563 34.4623 38.1272 35.2046 37.0308 35.4887C35.7422 35.8225 34.3916 36 33 36C31.6084 36 30.2578 35.8225 28.9691 35.4887C27.8728 35.2046 26.9436 34.4623 26.4348 33.4405L26.3928 33.3554C26.0272 32.6091 25.9162 31.7755 26.0624 31C26.1975 30.2833 26.5523 29.6162 27.1289 29.1135Z" fill="#18202A"/>
</g>
<defs>
<clipPath id="clip0_3906_9121">
<rect width="48" height="48" fill="white"/>
</clipPath>
</defs>
</svg>
