<svg width="48" height="48" viewBox="0 0 48 48" fill="none" xmlns="http://www.w3.org/2000/svg">
<path fill-rule="evenodd" clip-rule="evenodd" d="M24.7509 2.10973L44.2327 7.96964C45.2838 8.28648 46.001 9.22437 46 10.2853C46 36.2335 32.3895 42.4364 25.0758 45.7675C24.7358 45.9225 24.3687 46 24.0005 46C23.6324 46 23.2642 45.9225 22.9232 45.7675C15.6105 42.4354 2 36.2335 2 10.2853C2 9.2234 2.71719 8.28551 3.76833 7.96964L23.2501 2.10973C23.739 1.96342 24.262 1.96342 24.7509 2.10973ZM22.7832 13.7806C23.2743 12.7398 24.7257 12.7398 25.2168 13.7806L27.2807 18.1548L31.8479 18.8499C32.4462 18.941 32.8163 19.3866 32.943 19.8198C33.0694 20.252 32.9955 20.7934 32.6026 21.1938L29.2806 24.5786L30.0706 29.3894C30.1557 29.9073 29.9495 30.4007 29.5756 30.7023C29.1939 31.0102 28.6197 31.121 28.0983 30.8346L24 28.583L19.9017 30.8346C19.3803 31.121 18.8062 31.0102 18.4244 30.7023C18.0506 30.4007 17.8443 29.9073 17.9294 29.3894L18.7195 24.5782L15.3968 21.1879C15.0041 20.7872 14.9306 20.2457 15.0573 19.8136C15.1844 19.3803 15.5549 18.935 16.1535 18.8445L20.7196 18.1542L22.7832 13.7806Z" fill="#18202A"/>
</svg>
