<svg width="48" height="48" viewBox="0 0 48 48" fill="none" xmlns="http://www.w3.org/2000/svg">
<path d="M12 6H10C6.68629 6 4 8.68629 4 12V14C4 17.3137 6.68629 20 10 20H12C15.3137 20 18 17.3137 18 14V12C18 8.68629 15.3137 6 12 6Z" fill="#18202A"/>
<path d="M12 28H10C6.68629 28 4 30.6863 4 34V36C4 39.3137 6.68629 42 10 42H12C15.3137 42 18 39.3137 18 36V34C18 30.6863 15.3137 28 12 28Z" fill="#18202A"/>
<path fill-rule="evenodd" clip-rule="evenodd" d="M22 10C22 8.89543 22.8954 8 24 8H42C43.1046 8 44 8.89543 44 10C44 11.1046 43.1046 12 42 12H24C22.8954 12 22 11.1046 22 10Z" fill="#18202A"/>
<path fill-rule="evenodd" clip-rule="evenodd" d="M22 16C22 14.8954 22.8954 14 24 14H42C43.1046 14 44 14.8954 44 16C44 17.1046 43.1046 18 42 18H24C22.8954 18 22 17.1046 22 16Z" fill="#18202A"/>
<path fill-rule="evenodd" clip-rule="evenodd" d="M22 32C22 30.8954 22.8954 30 24 30H42C43.1046 30 44 30.8954 44 32C44 33.1046 43.1046 34 42 34H24C22.8954 34 22 33.1046 22 32Z" fill="#18202A"/>
<path fill-rule="evenodd" clip-rule="evenodd" d="M22 38C22 36.8954 22.8954 36 24 36H42C43.1046 36 44 36.8954 44 38C44 39.1046 43.1046 40 42 40H24C22.8954 40 22 39.1046 22 38Z" fill="#18202A"/>
</svg>
