<svg width="48" height="48" viewBox="0 0 48 48" fill="none" xmlns="http://www.w3.org/2000/svg">
<path d="M46.2071 5.21346C46.7658 4.59341 46.7524 3.60247 46.1774 3.00014C45.6024 2.3978 44.6833 2.41217 44.1247 3.03221L26.3937 22.7132L19.1383 14.1945C18.5961 13.5579 17.6778 13.5157 17.0873 14.1004C16.4968 14.6852 16.4577 15.6753 17 16.312L25.2949 26.0511C25.5651 26.3683 25.9444 26.5514 26.3438 26.5575C26.7431 26.5635 27.1271 26.3919 27.4053 26.083L46.2071 5.21346Z" fill="#18202A"/>
<path d="M10 4C5.58172 4 2 7.58172 2 12V30C2 33.7546 4.58645 36.905 8.07479 37.7668C8.69144 37.9192 9.33628 38 10 38H11.0909L9.93127 43.5461C9.57499 45.25 11.4148 46.5642 12.9111 45.6745L25.8182 38H38C42.4183 38 46 34.4183 46 30V19.5C46 18.6716 45.3284 18 44.5 18C43.6716 18 43 18.6716 43 19.5V30C43 32.7614 40.7614 35 38 35H25.8182C25.2785 35 24.7488 35.1456 24.285 35.4214L13.3334 41.9331L14.0274 38.614C14.2123 37.7298 13.9889 36.8093 13.4192 36.1082C12.8495 35.4071 11.9943 35 11.0909 35H10C7.23857 35 5 32.7614 5 30V12C5 9.23858 7.23858 7 10 7H28.5C29.3284 7 30 6.32843 30 5.5C30 4.67157 29.3284 4 28.5 4H10Z" fill="#18202A"/>
</svg>
