<svg width="48" height="48" viewBox="0 0 48 48" fill="none" xmlns="http://www.w3.org/2000/svg">
<g clip-path="url(#clip0_3293_9036)">
<path fill-rule="evenodd" clip-rule="evenodd" d="M28 8C29.1046 8 30 8.89543 30 10V11.5H31C32.1046 11.5 33 12.3954 33 13.5C33 14.6046 32.1046 15.5 31 15.5H30V30C30 31.1046 29.1046 32 28 32C27.0538 32 26.2611 31.3429 26.0532 30.4602C24.7907 31.4261 23.2124 32 21.5 32C17.3579 32 14 28.6421 14 24.5C14 20.3579 17.3579 17 21.5 17C23.1884 17 24.7465 17.5579 26 18.4995V15.5H25C23.8954 15.5 23 14.6046 23 13.5C23 12.3954 23.8954 11.5 25 11.5H26V10C26 8.89543 26.8954 8 28 8ZM21.5 28C23.433 28 25 26.433 25 24.5C25 22.567 23.433 21 21.5 21C19.567 21 18 22.567 18 24.5C18 26.433 19.567 28 21.5 28Z" fill="#18202A"/>
<path d="M16 34C14.8954 34 14 34.8954 14 36C14 37.1046 14.8954 38 16 38H28C29.1046 38 30 37.1046 30 36C30 34.8954 29.1046 34 28 34H16Z" fill="#18202A"/>
<path fill-rule="evenodd" clip-rule="evenodd" d="M46 24C46 36.1503 36.1503 46 24 46C11.8497 46 2 36.1503 2 24C2 11.8497 11.8497 2 24 2C36.1503 2 46 11.8497 46 24ZM42 24C42 33.9411 33.9411 42 24 42C14.0589 42 6 33.9411 6 24C6 14.0589 14.0589 6 24 6C33.9411 6 42 14.0589 42 24Z" fill="#18202A"/>
</g>
<defs>
<clipPath id="clip0_3293_9036">
<rect width="48" height="48" fill="white"/>
</clipPath>
</defs>
</svg>
