<svg width="48" height="48" viewBox="0 0 48 48" fill="none" xmlns="http://www.w3.org/2000/svg">
<path fill-rule="evenodd" clip-rule="evenodd" d="M8 8.00781C4.68629 8.00781 2 10.6941 2 14.0078V30.0078C2 33.3215 4.68629 36.0078 8 36.0078H2C0.895431 36.0078 0 36.9032 0 38.0078C0 39.1124 0.895432 40.0078 2 40.0078H46C47.1046 40.0078 48 39.1124 48 38.0078C48 36.9032 47.1046 36.0078 46 36.0078H40C43.3137 36.0078 46 33.3215 46 30.0078V14.0078C46 10.6941 43.3137 8.00781 40 8.00781H8ZM26 15.0098C26 14.1189 27.0771 13.6727 27.7071 14.3027L34.5 21.0956C34.8905 21.4861 34.8905 22.1193 34.5 22.5098L27.7071 29.3027C27.0771 29.9327 26 29.4865 26 28.5956V25.3049C22.5622 25.3358 20.472 25.6948 18.9362 26.5184C17.3411 27.3737 16.2745 28.7672 14.9312 31.0558C14.8169 31.2504 14.5865 31.3444 14.3688 31.2852C14.1511 31.226 14 31.0283 14 30.8027C14 25.7846 15.6453 22.622 18.0945 20.7319C20.3783 18.9694 23.2867 18.372 26 18.3085V15.0098Z" fill="#18202A"/>
</svg>
