<svg width="48" height="48" viewBox="0 0 48 48" fill="none" xmlns="http://www.w3.org/2000/svg">
<path fill-rule="evenodd" clip-rule="evenodd" d="M8 7H40C41.6569 7 43 8.34315 43 10V16C43 17.6569 41.6569 19 40 19H8C6.34315 19 5 17.6569 5 16V10C5 8.34315 6.34315 7 8 7ZM2 10C2 6.68629 4.68629 4 8 4H40C43.3137 4 46 6.68629 46 10V16C46 19.3137 43.3137 22 40 22H8C4.68629 22 2 19.3137 2 16V10ZM8 29H40C41.6569 29 43 30.3431 43 32V38C43 39.6569 41.6569 41 40 41H8C6.34315 41 5 39.6569 5 38V32C5 30.3431 6.34315 29 8 29ZM2 32C2 28.6863 4.68629 26 8 26H40C43.3137 26 46 28.6863 46 32V38C46 41.3137 43.3137 44 40 44H8C4.68629 44 2 41.3137 2 38V32Z" fill="#18202A"/>
</svg>
