<svg width="48" height="48" viewBox="0 0 48 48" fill="none" xmlns="http://www.w3.org/2000/svg">
<path fill-rule="evenodd" clip-rule="evenodd" d="M46 24C46 36.1503 36.1503 46 24 46C11.8497 46 2 36.1503 2 24C2 11.8497 11.8497 2 24 2C36.1503 2 46 11.8497 46 24ZM20 20C20 22.2091 18.6569 24 17 24C15.3432 24 14 22.2091 14 20C14 17.7909 15.3432 16 17 16C18.6569 16 20 17.7909 20 20ZM14.8755 28.3461C15.7889 27.725 17.0328 27.962 17.6539 28.8755C18.2793 29.7952 19.1829 30.5839 20.2987 31.1418C21.415 31.7 22.691 32 24 32C25.3091 32 26.585 31.7 27.7013 31.1418C28.8171 30.5839 29.7207 29.7952 30.3461 28.8755C30.9672 27.962 32.2111 27.725 33.1246 28.3461C34.038 28.9672 34.275 30.2111 33.6539 31.1245C32.6201 32.6451 31.1781 33.8756 29.4902 34.7195C27.8028 35.5632 25.9123 36 24 36C22.0877 36 20.1972 35.5632 18.5098 34.7195C16.8219 33.8756 15.38 32.6451 14.3461 31.1245C13.725 30.2111 13.962 28.9672 14.8755 28.3461ZM31 24C32.6569 24 34 22.2091 34 20C34 17.7909 32.6569 16 31 16C29.3432 16 28 17.7909 28 20C28 22.2091 29.3432 24 31 24Z" fill="#18202A"/>
</svg>
