<svg width="48" height="48" viewBox="0 0 48 48" fill="none" xmlns="http://www.w3.org/2000/svg">
<g clip-path="url(#clip0_2293_22114)">
<path fill-rule="evenodd" clip-rule="evenodd" d="M12 3.5C12 2.67157 12.6716 2 13.5 2C14.3284 2 15 2.67157 15 3.5V6H33V3.5C33 2.67157 33.6716 2 34.5 2C35.3284 2 36 2.67157 36 3.5V6H38C42.4183 6 46 9.58172 46 14V22.7695C45.0661 22.133 44.0614 21.5928 43 21.1632V14C43 11.2386 40.7614 9 38 9H36V12.5C36 13.3284 35.3284 14 34.5 14C33.6716 14 33 13.3284 33 12.5V9H15V12.5C15 13.3284 14.3284 14 13.5 14C12.6716 14 12 13.3284 12 12.5V9H10C7.23858 9 5 11.2386 5 14V38C5 40.7614 7.23858 43 10 43H22.6084C23.1311 44.0726 23.7702 45.0781 24.5092 46H10C5.58172 46 2 42.4183 2 38V14C2 9.58172 5.58172 6 10 6H12V3.5ZM20 34C20.4008 34 20.7741 34.1179 21.0871 34.3209C21.0295 34.8728 21 35.433 21 36.0001C21 36.5671 21.0295 37.1273 21.087 37.6791C20.7741 37.8821 20.4008 38 20 38C18.8954 38 18 37.1046 18 36C18 34.8954 18.8954 34 20 34ZM10 19.5C10 18.6716 10.6716 18 11.5 18H36.5C37.3284 18 38 18.6716 38 19.5C38 20.3284 37.3284 21 36.5 21H11.5C10.6716 21 10 20.3284 10 19.5ZM12 26C10.8954 26 10 26.8954 10 28C10 29.1046 10.8954 30 12 30C13.1046 30 14 29.1046 14 28C14 26.8954 13.1046 26 12 26ZM10 36C10 34.8954 10.8954 34 12 34C13.1046 34 14 34.8954 14 36C14 37.1046 13.1046 38 12 38C10.8954 38 10 37.1046 10 36ZM20 26C18.8954 26 18 26.8954 18 28C18 29.1046 18.8954 30 20 30C21.1046 30 22 29.1046 22 28C22 26.8954 21.1046 26 20 26ZM34.9503 24C34.4679 24 34.0542 24.3445 33.9669 24.819L33.6173 26.7179C32.4173 27.1326 31.3229 27.7734 30.3848 28.5894L28.56 27.9407C28.1054 27.7791 27.6002 27.9651 27.359 28.3829L25.4917 31.6171C25.2505 32.035 25.342 32.5654 25.7092 32.8783L27.1842 34.135C27.0681 34.7388 27.0073 35.3623 27.0073 36C27.0073 36.6377 27.0681 37.2612 27.1842 37.8651L25.7092 39.1217C25.342 39.4346 25.2505 39.9651 25.4917 40.3829L27.359 43.6171C27.6002 44.035 28.1054 44.221 28.56 44.0594L30.3848 43.4107C31.3229 44.2266 32.4174 44.8674 33.6173 45.2821L33.9669 47.181C34.0542 47.6555 34.4679 48 34.9503 48H38.6849C39.1674 48 39.581 47.6555 39.6684 47.181L40.0169 45.2878C41.2215 44.874 42.3201 44.2325 43.2615 43.4146L45.0753 44.0594C45.5299 44.221 46.0351 44.035 46.2763 43.6171L48.1436 40.3829C48.3848 39.9651 48.2934 39.4346 47.9261 39.1217L46.4645 37.8764C46.5821 37.2691 46.6436 36.6417 46.6436 36C46.6436 35.3583 46.5821 34.731 46.4645 34.1236L47.9261 32.8783C48.2934 32.5654 48.3849 32.035 48.1436 31.6171L46.2763 28.3829C46.0351 27.9651 45.53 27.7791 45.0754 27.9407L43.2616 28.5854C42.3202 27.7675 41.2215 27.126 40.0169 26.7122L39.6684 24.819C39.581 24.3445 39.1674 24 38.6849 24H34.9503ZM36.8163 40C39.0255 40 40.8163 38.2091 40.8163 36C40.8163 33.7909 39.0255 32 36.8163 32C34.6072 32 32.8163 33.7909 32.8163 36C32.8163 38.2091 34.6072 40 36.8163 40Z" fill="#18202A"/>
</g>
<defs>
<clipPath id="clip0_2293_22114">
<rect width="48" height="48" fill="white"/>
</clipPath>
</defs>
</svg>
