<svg width="48" height="48" viewBox="0 0 48 48" fill="none" xmlns="http://www.w3.org/2000/svg">
<path d="M6.51908 4.3877C5.92664 3.85325 5.01267 3.87136 4.44202 4.44202C3.85266 5.03137 3.85266 5.98691 4.44202 6.57626L9.18191 11.3162C7.62424 13.1339 6.40952 15.2289 5.60593 17.4998C5.32957 18.2807 5.73863 19.1379 6.51961 19.4142C7.30058 19.6906 8.15771 19.2815 8.43407 18.5005C9.08816 16.6521 10.0641 14.9415 11.3107 13.4449L34.5538 36.688C32.5555 38.3479 30.1912 39.5142 27.6524 40.0886C24.9339 40.7037 22.1039 40.6201 19.4264 39.8457C16.7489 39.0712 14.3113 37.6311 12.3409 35.6598C12.3298 35.6487 12.3186 35.6378 12.3072 35.627L5.78678 29.5H12C12.8284 29.5 13.5 28.8284 13.5 28C13.5 27.1716 12.8284 26.5 12 26.5H2C1.17157 26.5 0.5 27.1716 0.5 28V38C0.5 38.8284 1.17157 39.5 2 39.5C2.82843 39.5 3.5 38.8284 3.5 38V31.4678L10.236 37.7975C12.5617 40.1186 15.4362 41.8145 18.5928 42.7275C21.7571 43.6428 25.1017 43.7416 28.3145 43.0147C31.4052 42.3153 34.277 40.8738 36.6828 38.817L41.4237 43.558C42.0131 44.1473 42.9686 44.1473 43.558 43.558C44.1286 42.9873 44.1467 42.0733 43.6123 41.4809L6.51908 4.3877Z" fill="#18202A"/>
<path d="M40.6074 34.2333C41.3309 33.0605 41.9308 31.8098 42.3941 30.5005C42.6704 29.7196 42.2614 28.8624 41.4804 28.5861C40.6994 28.3097 39.8423 28.7188 39.5659 29.4998C39.254 30.3813 38.8688 31.2314 38.416 32.042L40.6074 34.2333Z" fill="#18202A"/>
<path d="M15.9626 9.5886C17.3316 8.82645 18.8075 8.26016 20.3476 7.91169C23.0661 7.29659 25.8961 7.38017 28.5736 8.15463C31.2511 8.92909 33.6887 10.3692 35.6591 12.3405C35.6702 12.3516 35.6814 12.3626 35.6928 12.3733L42.2131 18.5H36C35.1716 18.5 34.5 19.1716 34.5 20C34.5 20.8284 35.1716 21.5 36 21.5H46C46.8284 21.5 47.5 20.8284 47.5 20V10C47.5 9.17157 46.8284 8.5 46 8.5C45.1716 8.5 44.5 9.17157 44.5 10V16.5322L37.7639 10.2028C35.4383 7.88169 32.5637 6.18581 29.4072 5.27277C26.2429 4.3575 22.8983 4.25872 19.6855 4.98565C17.5872 5.46042 15.5898 6.27731 13.7706 7.39656L15.9626 9.5886Z" fill="#18202A"/>
</svg>
