<svg width="48" height="48" viewBox="0 0 48 48" fill="none" xmlns="http://www.w3.org/2000/svg">
<path d="M35.2724 26.844L40.4758 17.3043L40.5858 17.4142C41.3668 18.1953 42.6332 18.1953 43.4142 17.4142C43.8042 17.0242 43.9995 16.5132 44 16.002V15.998C43.9995 15.4868 43.8042 14.9758 43.4142 14.5858L41.447 12.6186C41.4261 12.5967 41.4046 12.5752 41.3826 12.5542L35.4458 6.61735C35.4248 6.59535 35.4033 6.5739 35.3814 6.553L33.4142 4.58579C32.6332 3.80474 31.3668 3.80474 30.5858 4.58579C29.8047 5.36684 29.8047 6.63317 30.5858 7.41421L30.6957 7.52415L21.156 12.7276L35.2724 26.844Z" fill="#18202A"/>
<path d="M8.58578 8.58578C9.36683 7.80474 10.6332 7.80474 11.4142 8.58578L39.4156 36.5872C40.1967 37.3683 40.1967 38.6346 39.4156 39.4156C38.6346 40.1967 37.3683 40.1967 36.5872 39.4156L31.2994 34.1278L29.7665 36.9381L31.4142 38.5858C32.1953 39.3668 32.1953 40.6332 31.4142 41.4142C30.6332 42.1953 29.3668 42.1953 28.5858 41.4142L19 31.8284L11.4142 39.4142C10.6332 40.1953 9.36684 40.1953 8.58579 39.4142C7.80474 38.6332 7.80474 37.3668 8.58579 36.5858L16.1716 29L6.58579 19.4142C5.80474 18.6332 5.80474 17.3668 6.58579 16.5858C7.36683 15.8047 8.63317 15.8047 9.41421 16.5858L11.0619 18.2335L13.8722 16.7006L8.58578 11.4142C7.80473 10.6332 7.80473 9.36683 8.58578 8.58578Z" fill="#18202A"/>
</svg>
