<svg width="48" height="48" viewBox="0 0 48 48" fill="none" xmlns="http://www.w3.org/2000/svg">
<path d="M18 12.5C17.1716 12.5 16.5 13.1716 16.5 14C16.5 14.8284 17.1716 15.5 18 15.5H30C30.8284 15.5 31.5 14.8284 31.5 14C31.5 13.1716 30.8284 12.5 30 12.5H18Z" fill="#18202A"/>
<path d="M18 20.5C17.1716 20.5 16.5 21.1716 16.5 22C16.5 22.8284 17.1716 23.5 18 23.5H30C30.8284 23.5 31.5 22.8284 31.5 22C31.5 21.1716 30.8284 20.5 30 20.5H18Z" fill="#18202A"/>
<path d="M16.5 30C16.5 29.1716 17.1716 28.5 18 28.5H30C30.8284 28.5 31.5 29.1716 31.5 30C31.5 30.8284 30.8284 31.5 30 31.5H18C17.1716 31.5 16.5 30.8284 16.5 30Z" fill="#18202A"/>
<path fill-rule="evenodd" clip-rule="evenodd" d="M12 2.5C11.0717 2.5 10.1815 2.86875 9.52513 3.52513C8.86875 4.1815 8.5 5.07174 8.5 6V44C8.5 44.5619 8.81402 45.0766 9.31363 45.3338C9.81323 45.5909 10.4146 45.5472 10.8719 45.2206L17 40.8434L23.1281 45.2206C23.6497 45.5931 24.3503 45.5931 24.8719 45.2206L31 40.8434L37.1281 45.2206C37.5854 45.5472 38.1868 45.5909 38.6864 45.3338C39.186 45.0766 39.5 44.5619 39.5 44V6C39.5 5.07175 39.1313 4.18151 38.4749 3.52513C37.8185 2.86875 36.9283 2.5 36 2.5H12ZM11.6464 5.64645C11.7402 5.55268 11.8674 5.5 12 5.5H36C36.1326 5.5 36.2598 5.55268 36.3536 5.64645C36.4473 5.74021 36.5 5.86739 36.5 6V41.0852L31.8719 37.7794C31.3503 37.4069 30.6497 37.4069 30.1281 37.7794L24 42.1566L17.8719 37.7794C17.3503 37.4069 16.6497 37.4069 16.1281 37.7794L11.5 41.0852V6C11.5 5.86739 11.5527 5.74022 11.6464 5.64645Z" fill="#18202A"/>
</svg>
