<svg width="48" height="48" viewBox="0 0 48 48" fill="none" xmlns="http://www.w3.org/2000/svg">
<path fill-rule="evenodd" clip-rule="evenodd" d="M32 10.75C32 17 29.3333 22 24 22C18.6667 22 16 17 16 10.75C16 5.75 18.6667 2 24 2C29.3333 2 32 5.75 32 10.75ZM29 10.75C29 13.5062 28.4033 15.6842 27.492 17.0725C26.6615 18.3378 25.5651 19 24 19C22.4349 19 21.3385 18.3378 20.508 17.0725C19.5967 15.6842 19 13.5062 19 10.75C19 8.75033 19.5341 7.32391 20.2821 6.44736C20.9722 5.63857 22.092 5 24 5C25.908 5 27.0278 5.63857 27.7179 6.44736C28.4659 7.32391 29 8.75033 29 10.75ZM25.9724 42.9421C26.3973 43.9752 26.9514 44.9414 27.6147 45.8208C26.4259 45.9393 25.22 46 24 46C20.9052 46 17.9016 45.6095 15.0358 44.875C12.5978 44.2502 10.5314 42.6171 9.3997 40.369C9.06425 39.7026 8.75139 39.0229 8.46215 38.3308C7.23313 35.3902 7.72293 31.9498 9.99863 29.7185C13.6063 26.1812 18.5484 24 24 24C27.1777 24 30.1823 24.7411 32.8504 26.0598C31.7111 26.5519 30.6561 27.2022 29.7132 27.9831C27.928 27.3464 26.005 27 24 27C19.3651 27 15.1685 28.8509 12.099 31.8606C10.8113 33.1232 10.4113 35.2148 11.2301 37.174C11.4921 37.8007 11.7754 38.4164 12.0793 39.0201C12.812 40.4755 14.1619 41.5541 15.7806 41.969C18.4051 42.6416 21.1585 43 24 43C24.6624 43 25.32 42.9805 25.9724 42.9421ZM48 38C48 43.5228 43.5228 48 38 48C32.4772 48 28 43.5228 28 38C28 32.4772 32.4772 28 38 28C43.5228 28 48 32.4772 48 38ZM38 30.6C36.8809 30.6 35.9375 30.6769 35.2171 30.7665C33.5451 30.9747 32.5 32.4197 32.5 33.9228L32.5 34.3575C32.5 35.2912 32.8709 36.1867 33.5311 36.8469C34.1169 37.4327 35.0667 37.4327 35.6525 36.8469C36.2382 36.2611 36.2382 35.3114 35.6525 34.7256C35.5548 34.628 35.5 34.4955 35.5 34.3575L35.5 33.9228C35.5 33.8422 35.5272 33.7907 35.5465 33.7672C35.5513 33.7614 35.5555 33.7574 35.5589 33.7546C35.562 33.752 35.5645 33.7504 35.566 33.7496C35.5683 33.7483 35.5739 33.7453 35.5878 33.7436C36.1986 33.6675 37.0177 33.6 38 33.6C38.9059 33.6 39.673 33.6574 40.266 33.726C40.3264 33.733 40.371 33.7574 40.4113 33.806C40.4567 33.8609 40.5 33.9551 40.5 34.0831C40.5 34.8321 40.0635 35.5123 39.3826 35.8243L38.2842 36.3277C37.197 36.8259 36.5 37.9121 36.5 39.108C36.5 39.9364 37.1716 40.608 38 40.608C38.8284 40.608 39.5 39.9364 39.5 39.108C39.5 39.0852 39.5133 39.0645 39.534 39.055L40.6325 38.5516C42.3797 37.7508 43.5 36.0051 43.5 34.0831C43.5 32.4877 42.3899 30.9517 40.6108 30.7459C39.9148 30.6654 39.0321 30.6 38 30.6ZM38 46C39.1046 46 40 45.1046 40 44C40 42.8954 39.1046 42 38 42C36.8954 42 36 42.8954 36 44C36 45.1046 36.8954 46 38 46Z" fill="#18202A"/>
</svg>
