<svg width="48" height="48" viewBox="0 0 48 48" fill="none" xmlns="http://www.w3.org/2000/svg">
<path fill-rule="evenodd" clip-rule="evenodd" d="M30.2088 8.95467C30.7052 9.56489 31.4142 10 32.2009 10C33.7218 10 34.7682 8.4846 33.909 7.22958C31.7474 4.07191 28.1156 2 24 2C17.3726 2 12 7.37258 12 14V16C7.58172 16 4 19.5817 4 24V38C4 42.4183 7.58172 46 12 46H36C40.4183 46 44 42.4183 44 38V24C44 19.5817 40.4183 16 36 16H16V14C16 9.58172 19.5817 6 24 6C26.5054 6 28.7419 7.15175 30.2088 8.95467ZM33.4142 24.5858C34.1953 25.3668 34.1953 26.6332 33.4142 27.4142L23.4142 37.4142C22.6332 38.1953 21.3668 38.1953 20.5858 37.4142L16.5858 33.4142C15.8047 32.6332 15.8047 31.3668 16.5858 30.5858C17.3668 29.8047 18.6332 29.8047 19.4142 30.5858L22 33.1716L30.5858 24.5858C31.3668 23.8047 32.6332 23.8047 33.4142 24.5858Z" fill="#18202A"/>
</svg>
