<svg width="48" height="48" viewBox="0 0 48 48" fill="none" xmlns="http://www.w3.org/2000/svg">
<g clip-path="url(#clip0_2294_8511)">
<path d="M42.4065 33.0329L42.1245 33.3013C41.3481 33.9843 40.3822 34.4025 39.356 34.4978C38.2015 34.605 37.0466 34.2966 36.0995 33.628C35.7427 33.3525 35.3466 33.0748 34.9557 32.8287C34.1686 32.3327 33.3491 31.8892 32.5027 31.5012C31.8555 31.1993 31.3382 30.6639 31.0561 30.0006C30.774 29.3374 30.7472 28.5933 30.9808 27.9115L31.2072 26.8234L31.3833 25.9429L30.5197 25.6966L29.7019 25.4785C27.786 25.0026 25.8188 24.7581 23.8423 24.7508C21.5767 24.7591 19.3301 25.0774 17.1578 25.6965L16.1709 25.9779L16.8207 27.8707L16.9048 28.1661C17.0412 28.7629 16.987 29.3908 16.7452 29.9593C16.4631 30.6226 15.9457 31.158 15.2927 31.4626C14.4519 31.8416 13.6285 32.2872 12.8403 32.7907L12.3612 33.0854L12.0122 33.3208C11.855 33.4356 11.7168 33.5516 11.5886 33.6797C10.7959 34.2128 9.67618 34.5156 8.55309 34.4256C7.42958 34.3356 6.37215 33.8586 5.56145 33.0759L1.44434 28.9588L1.16265 28.6549C0.805247 28.2354 0.522063 27.7596 0.324329 27.2455C0.0772302 26.6029 -0.0307664 25.9151 0.00753776 25.2277C0.0763675 24.0354 0.582694 22.9083 1.42969 22.0639L1.95375 21.5398L2.62618 21.0291C8.73032 16.5073 16.2319 14.0141 23.9502 14.0001C31.9544 13.9856 39.7352 16.638 46.0637 21.5386C46.6292 21.967 47.089 22.5043 47.42 23.1201C47.751 23.7358 47.9454 24.4157 47.9901 25.1134C48.0347 25.8111 47.9285 26.5102 47.6786 27.1632C47.4288 27.8161 47.0412 28.4075 46.5422 28.8972L42.4065 33.0329Z" fill="#18202A"/>
</g>
<defs>
<clipPath id="clip0_2294_8511">
<rect width="48" height="48" fill="white"/>
</clipPath>
</defs>
</svg>
