<svg width="48" height="48" viewBox="0 0 48 48" fill="none" xmlns="http://www.w3.org/2000/svg">
<path fill-rule="evenodd" clip-rule="evenodd" d="M39 38V19.6569C39 19.3916 38.8946 19.1373 38.7071 18.9497L25.0503 5.29289C24.8627 5.10536 24.6084 5 24.3431 5H14C11.2386 5 9 7.23858 9 10V38C9 40.7614 11.2386 43 14 43H34C36.7614 43 39 40.7614 39 38ZM14 2C9.58172 2 6 5.58172 6 10V38C6 42.4183 9.58172 46 14 46H34C38.4183 46 42 42.4183 42 38V19.6569C42 18.596 41.5786 17.5786 40.8284 16.8284L27.1716 3.17157C26.4214 2.42143 25.404 2 24.3431 2H14Z" fill="#18202A"/>
<path d="M22 2H25V22H22V2Z" fill="#18202A"/>
<path d="M22 19H42V22H22V19Z" fill="#18202A"/>
</svg>
