<svg width="48" height="48" viewBox="0 0 48 48" fill="none" xmlns="http://www.w3.org/2000/svg">
<path fill-rule="evenodd" clip-rule="evenodd" d="M17.5858 6.99995C18.8457 5.74002 21 6.63237 21 8.41417V15.0116C26.4264 15.1386 32.2433 16.3333 36.8109 19.8583C41.7093 23.6385 45 29.9638 45 40C45 40.4512 44.6977 40.8466 44.2623 40.9649C43.8268 41.0833 43.366 40.8953 43.1376 40.5062C40.4509 35.9289 38.3176 33.142 35.1274 31.4312C32.0559 29.7842 27.8755 29.0662 21 29.0044V35.5857C21 37.3676 18.8457 38.2599 17.5858 37L3.99997 23.4142C3.21892 22.6331 3.21892 21.3668 3.99997 20.5857L17.5858 6.99995Z" fill="#18202A"/>
</svg>
