<svg width="48" height="48" viewBox="0 0 48 48" fill="none" xmlns="http://www.w3.org/2000/svg">
<path fill-rule="evenodd" clip-rule="evenodd" d="M24 43C34.4934 43 43 34.4934 43 24C43 13.5066 34.4934 5 24 5C13.5066 5 5 13.5066 5 24C5 34.4934 13.5066 43 24 43ZM46 24C46 36.1503 36.1503 46 24 46C11.8497 46 2 36.1503 2 24C2 11.8497 11.8497 2 24 2C36.1503 2 46 11.8497 46 24Z" fill="#18202A"/>
<path d="M22.5 11.5C22.5 10.6716 23.1716 10 24 10C24.8284 10 25.5 10.6716 25.5 11.5V24C25.5 24.8284 24.8284 25.5 24 25.5C23.1716 25.5 22.5 24.8284 22.5 24V11.5Z" fill="#18202A"/>
<path d="M34.5 22.5C35.3284 22.5 36 23.1716 36 24C36 24.8284 35.3284 25.5 34.5 25.5H24C23.1716 25.5 22.5 24.8284 22.5 24C22.5 23.1716 23.1716 22.5 24 22.5H34.5Z" fill="#18202A"/>
</svg>
