<svg width="48" height="48" viewBox="0 0 48 48" fill="none" xmlns="http://www.w3.org/2000/svg">
<g clip-path="url(#clip0_3394_8859)">
<path d="M37 13C37 14.1046 36.1046 15 35 15C33.8954 15 33 14.1046 33 13C33 11.8954 33.8954 11 35 11C36.1046 11 37 11.8954 37 13Z" fill="#18202A"/>
<path fill-rule="evenodd" clip-rule="evenodd" d="M33.3927 2C32.7276 2 32.1544 2.46788 32.0211 3.11944L31.7145 4.61858C30.8686 4.95043 30.0851 5.40664 29.3866 5.96469L27.9327 5.4799C27.3018 5.26954 26.6099 5.53206 26.2774 6.10802L24.67 8.89208C24.3375 9.46803 24.4561 10.1984 24.9537 10.6396L26.0998 11.6557C26.0341 12.0943 26.0001 12.5432 26.0001 13C26.0001 13.4569 26.0341 13.9058 26.0998 14.3443L24.9538 15.3604C24.4561 15.8016 24.3376 16.532 24.6701 17.108L26.2775 19.892C26.61 20.468 27.3018 20.7305 27.9327 20.5201L29.3867 20.0354C30.0852 20.5934 30.8686 21.0496 31.7144 21.3814L32.0211 22.8806C32.1544 23.5321 32.7276 24 33.3927 24H36.6074C37.2725 24 37.8458 23.5321 37.979 22.8806L38.2857 21.3814C39.1315 21.0496 39.9149 20.5934 40.6134 20.0354L42.0673 20.5202C42.6982 20.7306 43.3901 20.468 43.7226 19.8921L45.33 17.108C45.6625 16.5321 45.5439 15.8017 45.0463 15.3605L43.9003 14.3444C43.966 13.9058 44.0001 13.4569 44.0001 13C44.0001 12.5431 43.966 12.0942 43.9003 11.6557L45.0464 10.6396C45.544 10.1984 45.6626 9.46798 45.33 8.89203L43.7227 6.10797C43.3901 5.53202 42.6983 5.26949 42.0674 5.47985L40.6134 5.96464C39.915 5.40661 39.1315 4.95042 38.2857 4.61858L37.979 3.11945C37.8458 2.46788 37.2725 2 36.6074 2H33.3927ZM40 13C40 15.7614 37.7614 18 35 18C32.2386 18 30 15.7614 30 13C30 10.2386 32.2386 8 35 8C37.7614 8 40 10.2386 40 13Z" fill="#18202A"/>
<path d="M16 35C17.6569 35 19 33.6569 19 32C19 30.3431 17.6569 29 16 29C14.3431 29 13 30.3431 13 32C13 33.6569 14.3431 35 16 35Z" fill="#18202A"/>
<path fill-rule="evenodd" clip-rule="evenodd" d="M12.2043 18.132C12.3326 17.4745 12.9086 17 13.5785 17H18.4217C19.0916 17 19.6676 17.4745 19.7958 18.132L20.316 20.7995C21.4907 21.2525 22.5762 21.8849 23.5389 22.6632L26.1122 21.7788C26.7457 21.5611 27.4447 21.8227 27.7796 22.4028L30.2013 26.5972C30.5362 27.1773 30.4132 27.9135 29.9079 28.3532L27.8566 30.1386C27.9511 30.7452 28.0001 31.3669 28.0001 32C28.0001 32.6332 27.951 33.255 27.8565 33.8617L29.9078 35.647C30.4131 36.0868 30.536 36.8229 30.2011 37.4031L27.7795 41.5975C27.4445 42.1776 26.7456 42.4392 26.112 42.2215L23.5386 41.3371C22.576 42.1152 21.4906 42.7476 20.316 43.2005L19.7958 45.868C19.6676 46.5255 19.0916 47 18.4217 47H13.5785C12.9086 47 12.3326 46.5255 12.2043 45.868L11.6842 43.2005C10.5095 42.7475 9.424 42.1151 8.4613 41.3368L5.88794 42.2212C5.25442 42.4389 4.55544 42.1773 4.2205 41.5972L1.79887 37.4028C1.46392 36.8227 1.58688 36.0865 2.09219 35.6468L4.14358 33.8614C4.04911 33.2548 4.00009 32.6331 4.00009 32C4.00009 31.367 4.0491 30.7455 4.14353 30.139L2.09203 28.3535C1.58672 27.9137 1.46377 27.1776 1.79871 26.5975L4.22034 22.4031C4.55528 21.8229 5.25426 21.5613 5.88778 21.7791L8.46103 22.6634C9.4238 21.885 10.5094 21.2525 11.6842 20.7995L12.2043 18.132ZM16 39C19.866 39 23 35.866 23 32C23 28.134 19.866 25 16 25C12.134 25 9 28.134 9 32C9 35.866 12.134 39 16 39Z" fill="#18202A"/>
</g>
<defs>
<clipPath id="clip0_3394_8859">
<rect width="48" height="48" fill="white"/>
</clipPath>
</defs>
</svg>
