<svg width="48" height="48" viewBox="0 0 48 48" fill="none" xmlns="http://www.w3.org/2000/svg">
<path d="M19.5 4H27.496C27.876 4.00012 28.2419 4.14449 28.5196 4.40395C28.7973 4.6634 28.9661 5.0186 28.9921 5.39776C29.018 5.77692 28.899 6.15178 28.6591 6.4466C28.4193 6.74141 28.0765 6.9342 27.7 6.986L27.496 7H25V41H27.49C27.8525 41 28.2027 41.1313 28.4759 41.3695C28.749 41.6078 28.9267 41.9369 28.976 42.296L28.99 42.5C28.99 42.8625 28.8587 43.2127 28.6205 43.4859C28.3822 43.759 28.0531 43.9367 27.694 43.986L27.49 44H19.5C19.12 43.9999 18.7541 43.8555 18.4764 43.5961C18.1987 43.3366 18.0299 42.9814 18.0039 42.6022C17.978 42.2231 18.097 41.8482 18.3369 41.5534C18.5767 41.2586 18.9195 41.0658 19.296 41.014L19.5 41H22V7H19.5C19.1375 6.99998 18.7873 6.86871 18.5141 6.63047C18.241 6.39222 18.0633 6.06311 18.014 5.704L18 5.5C18 5.13752 18.1313 4.78732 18.3695 4.51414C18.6078 4.24096 18.9369 4.0633 19.296 4.014L19.5 4H27.496H19.5ZM36.492 9.994C38.2154 9.99559 39.8678 10.6809 41.0864 11.8996C42.3051 13.1182 42.9904 14.7706 42.992 16.494L43 31.502C43.0012 33.1621 42.3669 34.7597 41.2273 35.9669C40.0878 37.1742 38.5294 37.8995 36.872 37.994L36.5 38.004H27.01V35.004H36.616C37.5245 34.9744 38.3858 34.5923 39.0175 33.9386C39.6491 33.2849 40.0015 32.411 40 31.502L39.994 16.492C39.9924 15.5635 39.6226 14.6736 38.9657 14.0175C38.3088 13.3613 37.4185 12.9925 36.49 12.992H27.01V9.992H36.49L36.492 9.994ZM20 9.994V12.994H10.5C9.57174 12.994 8.6815 13.3627 8.02513 14.0191C7.36875 14.6755 7 15.5657 7 16.494V31.502C7 33.436 8.568 35.002 10.5 35.002H19.99V38.002H10.5C8.77609 38.002 7.12279 37.3172 5.90381 36.0982C4.68482 34.8792 4 33.2259 4 31.502V16.494C4 14.7701 4.68482 13.1168 5.90381 11.8978C7.12279 10.6788 8.77609 9.994 10.5 9.994H20Z" fill="#18202A"/>
</svg>
