<svg width="48" height="48" viewBox="0 0 48 48" fill="none" xmlns="http://www.w3.org/2000/svg">
<path fill-rule="evenodd" clip-rule="evenodd" d="M35 11C33.3431 11 32 9.65685 32 8H6C2.68629 8 0 10.6863 0 14V34C0 37.3137 2.68629 40 6 40H32C32 38.3443 33.3413 37.0018 34.9966 37C34.9977 37 34.9989 37 35 37C35.0011 37 35.0023 37 35.0034 37C36.6587 37.0018 38 38.3443 38 40H42C45.3137 40 48 37.3137 48 34V14C48 10.6863 45.3137 8 42 8H38C38 9.65685 36.6569 11 35 11ZM7 16C6.44772 16 6 16.4477 6 17V18C6 18.5523 6.44772 19 7 19H26C26.5523 19 27 18.5523 27 18V17C27 16.4477 26.5523 16 26 16H7ZM6 23C6 22.4477 6.44772 22 7 22H26C26.5523 22 27 22.4477 27 23V24C27 24.5523 26.5523 25 26 25H7C6.44772 25 6 24.5523 6 24V23ZM7 28C6.44772 28 6 28.4477 6 29V30C6 30.5523 6.44772 31 7 31H13C13.5523 31 14 30.5523 14 30V29C14 28.4477 13.5523 28 13 28H7ZM34 18H36V30H34V18Z" fill="#18202A"/>
</svg>
