<svg width="48" height="48" viewBox="0 0 48 48" fill="none" xmlns="http://www.w3.org/2000/svg">
<path d="M7 9.5C7 8.67157 6.32843 8 5.5 8C4.67157 8 4 8.67157 4 9.5V38.5C4 39.3284 4.67157 40 5.5 40C6.32843 40 7 39.3284 7 38.5V25L25 25V38.5C25 39.3284 25.6716 40 26.5 40C27.3284 40 28 39.3284 28 38.5V9.5C28 8.67157 27.3284 8 26.5 8C25.6716 8 25 8.67157 25 9.5V22L7 22V9.5Z" fill="#18202A"/>
<path d="M42 23.5C42 22.9077 41.6514 22.3708 41.1103 22.1298C40.5691 21.8888 39.9369 21.9888 39.4966 22.3851L34.4966 26.8851C33.8808 27.4393 33.8309 28.3877 34.3851 29.0035C34.9393 29.6192 35.8877 29.6692 36.5035 29.115L39 26.8681V38.5C39 39.3285 39.6716 40 40.5 40C41.3284 40 42 39.3285 42 38.5V23.5Z" fill="#18202A"/>
</svg>
