<svg width="48" height="48" viewBox="0 0 48 48" fill="none" xmlns="http://www.w3.org/2000/svg">
<path fill-rule="evenodd" clip-rule="evenodd" d="M12 2C6.47715 2 2 6.47715 2 12V36C2 41.5228 6.47715 46 12 46H36C41.5228 46 46 41.5228 46 36V12C46 6.47715 41.5228 2 36 2H12ZM14 10V6H10V10H14ZM18 18.8889C18 17.4385 19.5676 16.5426 20.7997 17.2888L29.2225 22.39C30.4192 23.1147 30.4192 24.8653 29.2225 25.5901L20.7997 30.6912C19.5676 31.4374 18 30.5416 18 29.0912V18.8889ZM10 42V38H14V42H10ZM22 6H18V10H22V6ZM18 38H22V42H18V38ZM30 6H26V10H30V6ZM26 38H30V42H26V38ZM38 10V6H34V10H38ZM34 42V38H38V42H34Z" fill="#18202A"/>
</svg>
