<svg width="48" height="48" viewBox="0 0 48 48" fill="none" xmlns="http://www.w3.org/2000/svg">
<path d="M6.44205 4.44202C7.0314 3.85266 7.98694 3.85266 8.57629 4.44202L41.558 37.4237C42.1474 38.0131 42.1474 38.9686 41.558 39.558C40.9687 40.1473 40.0131 40.1473 39.4238 39.558L6.44205 6.57626C5.85269 5.98691 5.85269 5.03137 6.44205 4.44202Z" fill="#18202A"/>
<path d="M12.2255 8.09407C8.05076 9.63524 4.26155 11.9724 1.04198 14.9213C0.431081 15.4808 0.433267 16.4333 1.01905 17.019C1.60484 17.6048 2.55222 17.6019 3.16549 17.0449C6.4175 14.0916 10.2997 11.8197 14.5865 10.4551L12.2255 8.09407Z" fill="#18202A"/>
<path d="M20.3997 16.2683C15.7312 16.9706 11.5031 19.0176 8.12239 22.0024C7.50136 22.5507 7.50434 23.5043 8.09012 24.0901C8.67591 24.6759 9.62235 24.6714 10.2482 24.1286C13.7327 21.1068 18.2223 19.2134 23.1484 19.017L20.3997 16.2683Z" fill="#18202A"/>
<path d="M27.6987 19.3247L24.377 16.0029C30.3173 16.0944 35.734 18.344 39.8777 22.0024C40.4987 22.5507 40.4957 23.5043 39.9099 24.0901C39.3241 24.6759 38.3777 24.6714 37.7518 24.1286C34.9516 21.7002 31.5022 20.0005 27.6987 19.3247Z" fill="#18202A"/>
<path d="M17.9618 9.58773L15.4565 7.0824C18.1863 6.37589 21.0493 6 24 6C32.8494 6 40.9091 9.38081 46.9581 14.9213C47.569 15.4808 47.5668 16.4332 46.981 17.019C46.3952 17.6048 45.4478 17.6019 44.8346 17.0449C39.3304 12.0462 32.021 9 24 9C21.9338 9 19.9149 9.20214 17.9618 9.58773Z" fill="#18202A"/>
<path d="M32.8389 31.1612C33.4247 30.5754 33.4292 29.6184 32.7844 29.0983C30.3824 27.1603 27.3267 26 24 26C20.6734 26 17.6177 27.1603 15.2156 29.0983C14.5709 29.6185 14.5754 30.5754 15.1612 31.1612C15.747 31.747 16.6915 31.7374 17.3511 31.2362C19.1978 29.8329 21.5017 29 24 29C26.4984 29 28.8022 29.8329 30.649 31.2362C31.3086 31.7374 32.2531 31.747 32.8389 31.1612Z" fill="#18202A"/>
<path d="M28 40C28 42.2091 26.2092 44 24 44C21.7909 44 20 42.2091 20 40C20 37.7909 21.7909 36 24 36C26.2092 36 28 37.7909 28 40Z" fill="#18202A"/>
</svg>
