<svg width="48" height="48" viewBox="0 0 48 48" fill="none" xmlns="http://www.w3.org/2000/svg">
<path fill-rule="evenodd" clip-rule="evenodd" d="M10 8.5C10.8284 8.5 11.5 9.17157 11.5 10V16C11.5 21.799 16.201 26.5 22 26.5H36.3787L28.9393 19.0607C28.3536 18.4749 28.3536 17.5251 28.9393 16.9393C29.5251 16.3536 30.4749 16.3536 31.0607 16.9393L41.0607 26.9393C41.6464 27.5251 41.6464 28.4749 41.0607 29.0607L31.0607 39.0607C30.4749 39.6464 29.5251 39.6464 28.9393 39.0607C28.3536 38.4749 28.3536 37.5251 28.9393 36.9393L36.3787 29.5H22C14.5442 29.5 8.5 23.4558 8.5 16V10C8.5 9.17157 9.17157 8.5 10 8.5Z" fill="#18202A"/>
</svg>
