<svg width="48" height="48" viewBox="0 0 48 48" fill="none" xmlns="http://www.w3.org/2000/svg">
<path d="M8 10C8 8.89543 7.10457 8 6 8C4.89543 8 4 8.89543 4 10V38C4 39.1046 4.89543 40 6 40C7.10457 40 8 39.1046 8 38V26L24 26V38C24 39.1046 24.8954 40 26 40C27.1046 40 28 39.1046 28 38V10C28 8.89543 27.1046 8 26 8C24.8954 8 24 8.89543 24 10V22L8 22V10Z" fill="#18202A"/>
<path d="M44 22C44 21.2624 43.594 20.5847 42.9437 20.2367C42.2934 19.8886 41.5043 19.9268 40.8906 20.3359L34.8906 24.3359C33.9715 24.9486 33.7232 26.1903 34.3359 27.1094C34.9486 28.0285 36.1903 28.2768 37.1094 27.6641L40 25.737V38C40 39.1046 40.8954 40 42 40C43.1045 40 44 39.1046 44 38V22Z" fill="#18202A"/>
</svg>
