<svg width="48" height="48" viewBox="0 0 48 48" fill="none" xmlns="http://www.w3.org/2000/svg">
<path fill-rule="evenodd" clip-rule="evenodd" d="M26.2587 7.59005C26.2582 7.59047 26.2578 7.59089 26.2574 7.59131L10.2521 23.675L10.2495 23.6776C5.9702 27.957 5.9702 35.0112 10.2495 39.2905C14.5289 43.5698 21.5831 43.5698 25.8624 39.2905L41.3994 23.7535C41.9852 23.1677 42.935 23.1677 43.5208 23.7535C44.1065 24.3393 44.1065 25.289 43.5208 25.8748L27.9837 41.4118C22.5328 46.8627 13.5791 46.8627 8.12823 41.4118C2.6778 35.9614 2.67731 27.0088 8.12676 21.5578C8.12725 21.5573 8.12774 21.5568 8.12823 21.5563L24.1335 5.47259L24.1361 5.46999C28.0961 1.51 34.5387 1.51 38.4987 5.46999C42.4587 9.42998 42.4587 15.8726 38.4987 19.8326L38.4959 19.8354L23.511 34.7419C23.5103 34.7425 23.5097 34.7431 23.5091 34.7437C21.1062 37.1446 17.1927 37.1123 14.7425 34.7642L14.7197 34.7419C12.317 32.3391 12.3487 28.4242 14.6974 25.9734L14.7226 25.9477L29.161 11.5878C29.7484 11.0036 30.6982 11.0062 31.2824 11.5935C31.8665 12.1809 31.864 13.1307 31.2766 13.7148L16.852 28.061C15.6065 29.3731 15.6376 31.4047 16.8298 32.6093C18.146 33.859 20.1863 33.8239 21.3896 32.6206L21.3924 32.6178L36.3774 17.7113C36.3779 17.7108 36.3783 17.7103 36.3788 17.7099C39.1658 14.9213 39.1653 10.3793 36.3774 7.59131C33.5894 4.80332 29.0472 4.8029 26.2587 7.59005Z" fill="#18202A"/>
</svg>
