<svg width="48" height="48" viewBox="0 0 48 48" fill="none" xmlns="http://www.w3.org/2000/svg">
<path fill-rule="evenodd" clip-rule="evenodd" d="M14 2C9.58172 2 6 5.58172 6 10V38C6 42.4183 9.58172 46 14 46L14 2ZM16 2V46H34C38.4183 46 42 42.4183 42 38V10C42 5.58172 38.4183 2 34 2H16ZM23 10C22.4477 10 22 10.4477 22 11V13C22 13.5523 22.4477 14 23 14H35C35.5523 14 36 13.5523 36 13V11C36 10.4477 35.5523 10 35 10H23ZM24 17C24 16.4477 24.4477 16 25 16H33C33.5523 16 34 16.4477 34 17V19C34 19.5523 33.5523 20 33 20H25C24.4477 20 24 19.5523 24 19V17Z" fill="#18202A"/>
</svg>
