<svg width="48" height="48" viewBox="0 0 48 48" fill="none" xmlns="http://www.w3.org/2000/svg">
<path fill-rule="evenodd" clip-rule="evenodd" d="M37 22C37 30.2843 30.2843 37 22 37C13.7157 37 7 30.2843 7 22C7 13.7157 13.7157 7 22 7C30.2843 7 37 13.7157 37 22ZM22 40C31.9411 40 40 31.9411 40 22C40 12.0589 31.9411 4 22 4C12.0589 4 4 12.0589 4 22C4 31.9411 12.0589 40 22 40ZM39.0607 36.9393C38.4749 36.3536 37.5251 36.3536 36.9393 36.9393C36.3536 37.5251 36.3536 38.4749 36.9393 39.0607L40.9393 43.0607C41.5251 43.6464 42.4749 43.6464 43.0607 43.0607C43.6464 42.4749 43.6464 41.5251 43.0607 40.9393L39.0607 36.9393ZM23.5 15C23.5 14.1716 22.8284 13.5 22 13.5C21.1716 13.5 20.5 14.1716 20.5 15V20.5H15C14.1716 20.5 13.5 21.1716 13.5 22C13.5 22.8284 14.1716 23.5 15 23.5H20.5V29C20.5 29.8284 21.1716 30.5 22 30.5C22.8284 30.5 23.5 29.8284 23.5 29V23.5H29C29.8284 23.5 30.5 22.8284 30.5 22C30.5 21.1716 29.8284 20.5 29 20.5H23.5V15Z" fill="#18202A"/>
</svg>
