<svg width="48" height="48" viewBox="0 0 48 48" fill="none" xmlns="http://www.w3.org/2000/svg">
<path fill-rule="evenodd" clip-rule="evenodd" d="M20.6043 44.8674C19.6228 44.1323 18.9059 43.099 18.5607 41.9223L21.4394 41.0777C21.6022 41.6327 21.9403 42.1199 22.4028 42.4664C22.8653 42.8128 23.4275 43 24.005 43C24.5826 43 25.1447 42.8128 25.6072 42.4664C26.0698 42.1199 26.4079 41.6327 26.5707 41.0777L29.4494 41.9223C29.1041 43.099 28.3872 44.1323 27.4058 44.8674C26.4244 45.6026 25.2312 46 24.005 46C22.7788 46 21.5857 45.6026 20.6043 44.8674Z" fill="#18202A"/>
<path fill-rule="evenodd" clip-rule="evenodd" d="M24 2.5C24.8285 2.5 25.5 3.17157 25.5 4V6C25.5 6.82843 24.8285 7.5 24 7.5C23.1716 7.5 22.5 6.82843 22.5 6V4C22.5 3.17157 23.1716 2.5 24 2.5Z" fill="#18202A"/>
<path fill-rule="evenodd" clip-rule="evenodd" d="M12.9665 10.4631C10.0403 13.3208 8.39632 17.1967 8.39632 21.2381C8.39632 28.7982 6.534 33.2605 4.99745 35.6556C4.47343 36.4724 5.12507 38 6.09551 38H41.9046C42.875 38 43.5266 36.4724 43.0026 35.6556C41.4661 33.2605 39.6038 28.7982 39.6038 21.2381C39.6038 17.1967 37.9598 13.3208 35.0335 10.4631C32.1073 7.60544 28.1384 6 24 6C19.8617 6 15.8928 7.60544 12.9665 10.4631ZM24 9C20.6347 9 17.4211 10.3062 15.0626 12.6095C12.7065 14.9103 11.3963 18.0156 11.3963 21.2381C11.3963 27.5184 10.1886 31.9599 8.76935 35H39.2307C37.8114 31.9599 36.6038 27.5184 36.6038 21.2381C36.6038 18.0156 35.2936 14.9103 32.9375 12.6095C30.579 10.3062 27.3654 9 24 9Z" fill="#18202A"/>
</svg>
