<svg width="48" height="48" viewBox="0 0 48 48" fill="none" xmlns="http://www.w3.org/2000/svg">
<path d="M29.6227 7.90074L18 19.5234V9.99951C18 6.6858 20.6863 3.99951 24 3.99951C26.5754 3.99951 28.7718 5.6221 29.6227 7.90074Z" fill="#18202A"/>
<path d="M38.4466 4.72198C39.3315 3.8371 40.6825 3.75348 41.4643 4.53523C42.246 5.31697 42.1624 6.66804 41.2775 7.55293L30 18.8305V21.9995C30 25.3132 27.3137 27.9995 24 27.9995C23.0744 27.9995 22.1977 27.7899 21.4149 27.4156L18.4868 30.3437C20.0673 31.3901 21.9625 31.9995 24.0001 31.9995C28.8425 31.9995 32.881 28.5576 33.8026 23.9867C34.0209 22.904 34.8955 21.9995 36.0001 21.9995C37.1046 21.9995 38.0151 22.9001 37.8591 23.9936C36.9844 30.1278 32.1334 34.9805 26 35.8577V39.9995H31C32.1046 39.9995 33 40.8949 33 41.9995C33 43.1041 32.1046 43.9995 31 43.9995H17C15.8954 43.9995 15 43.1041 15 41.9995C15 40.8949 15.8954 39.9995 17 39.9995H22V35.8577C19.6288 35.5185 17.4493 34.5852 15.6171 33.2133L9.55342 39.277C8.66853 40.1619 7.31746 40.2455 6.53572 39.4638C5.75397 38.6821 5.83758 37.331 6.72247 36.4461L38.4466 4.72198Z" fill="#18202A"/>
<path d="M10.8126 26.7109L14.0428 23.4806C13.6916 22.6362 12.9268 21.9995 12.0001 21.9995C10.8955 21.9995 9.98506 22.9001 10.141 23.9936C10.2749 24.9326 10.502 25.8416 10.8126 26.7109Z" fill="#18202A"/>
</svg>
