<svg width="48" height="48" viewBox="0 0 48 48" fill="none" xmlns="http://www.w3.org/2000/svg">
<path fill-rule="evenodd" clip-rule="evenodd" d="M26.7355 36H38.3636C42.5811 36 46 32.4183 46 28V10C46 5.58172 42.5811 2 38.3636 2H11.6364C7.41892 2 4 5.58172 4 10V10.5682C4 11.359 4.64105 12 5.43182 12C6.22259 12 6.86364 11.359 6.86364 10.5682V10C6.86364 7.23858 9.00046 5 11.6364 5H38.3636C40.9995 5 43.1364 7.23858 43.1364 10V28C43.1364 30.7614 40.9995 33 38.3636 33H26.7355C26.2204 33 25.7148 33.1456 25.272 33.4214L14.8182 39.9331L15.4807 36.614C15.6572 35.7298 15.4439 34.8093 14.9002 34.1082C14.3564 33.4071 13.54 33 12.6777 33H11.6364C9.40093 33 7.52446 31.39 7.00587 29.2164C6.84856 28.5571 6.31417 28 5.63636 28C4.73262 28 3.9831 28.7395 4.15787 29.6262C4.25143 30.1008 4.38513 30.5601 4.55508 31C5.46397 33.3522 7.40975 35.1485 9.79866 35.7668C10.3873 35.9192 11.0028 36 11.6364 36H12.6777L11.5708 41.5461C11.2307 43.25 12.9869 44.5642 14.4151 43.6745L26.7355 36ZM20.5607 11.4393C19.9749 10.8536 19.0251 10.8536 18.4393 11.4393C17.8536 12.0251 17.8536 12.9749 18.4393 13.5607L22.8787 18H1.5C0.671573 18 0 18.6716 0 19.5C0 20.3284 0.671573 21 1.5 21H22.8787L18.4393 25.4393C17.8536 26.0251 17.8536 26.9749 18.4393 27.5607C19.0251 28.1464 19.9749 28.1464 20.5607 27.5607L27.5607 20.5607C28.1465 19.9749 28.1465 19.0251 27.5607 18.4393L20.5607 11.4393Z" fill="#18202A"/>
</svg>
