<svg width="48" height="48" viewBox="0 0 48 48" fill="none" xmlns="http://www.w3.org/2000/svg">
<path d="M31.2123 31.0291L31.1896 31.0518C31.0807 31.1607 30.9924 31.249 30.9109 31.3269C27.0451 35.0233 20.955 35.0233 17.0891 31.3269C17.0075 31.2489 16.9192 31.1606 16.81 31.0513L16.7078 30.9493L16.6917 30.9334C16.3052 30.5645 15.696 30.5634 15.3095 30.9322L15.2922 30.9493L14.5658 31.6756C13.9127 32.3287 13.3643 32.8771 12.9167 33.2932C12.492 33.6879 11.9604 34.1551 11.3532 34.4865C8.90808 35.8208 6.08393 35.5335 4 34.0883V40.998C4 42.6549 5.34315 43.998 7 43.998H41C42.6569 43.998 44 42.6549 44 40.998V34.0883C41.9161 35.5335 39.0919 35.8208 36.6468 34.4865C36.0397 34.1551 35.508 33.6879 35.0833 33.2932C34.6357 32.8771 34.0875 32.3288 33.4343 31.6757L32.7927 31.0341L32.7874 31.0288L32.7077 30.9492L32.6904 30.9321C32.304 30.5634 31.696 30.5634 31.3096 30.9322L31.2922 30.9493L31.2123 31.0291Z" fill="#18202A"/>
<path d="M34.0322 15.9987H13.9678C12.1392 15.9987 11.2248 15.9987 10.4641 16.1475C7.27051 16.7722 4.77358 19.2692 4.14882 22.4627C4 23.2235 4 24.1427 4 25.9811C4 27.9386 4 28.9174 4.16232 29.4697C4.88159 31.917 7.67698 33.0749 9.9161 31.853C10.4214 31.5773 11.1094 30.8893 12.4853 29.5134L13.0909 28.9077C13.1658 28.8328 13.2033 28.7954 13.2356 28.7644C14.782 27.2859 17.218 27.2859 18.7644 28.7644C18.7967 28.7954 18.8342 28.8328 18.9091 28.9077C19.0402 29.0388 19.1057 29.1043 19.1624 29.1585C21.8685 31.746 26.1315 31.746 28.8376 29.1585C28.8943 29.1044 28.9599 29.0387 29.0909 28.9077C29.1658 28.8328 29.2033 28.7954 29.2356 28.7644C30.782 27.2859 33.218 27.2859 34.7644 28.7644C34.7967 28.7954 34.8344 28.833 34.9091 28.9077L35.5147 29.5134C36.8906 30.8893 37.5786 31.5773 38.0839 31.853C40.323 33.0749 43.1184 31.917 43.8377 29.4697C44 28.9174 44 27.9386 44 25.9811C44 24.1427 44 23.2235 43.8512 22.4627C43.2264 19.2692 40.7295 16.7722 37.5359 16.1475C36.7752 15.9987 35.8608 15.9987 34.0322 15.9987Z" fill="#18202A"/>
<path d="M21.1716 12.8134C19.6095 11.2513 19.6095 8.71865 21.1716 7.15655L24 4.32812L26.8284 7.15655C28.3905 8.71865 28.3905 11.2513 26.8284 12.8134C25.2663 14.3755 22.7337 14.3755 21.1716 12.8134Z" fill="#18202A"/>
</svg>
