<svg width="48" height="48" viewBox="0 0 48 48" fill="none" xmlns="http://www.w3.org/2000/svg">
<g clip-path="url(#clip0_3517_8956)">
<path d="M8 10C8 11.1046 7.10457 12 6 12C4.89543 12 4 11.1046 4 10C4 8.89543 4.89543 8 6 8C7.10457 8 8 8.89543 8 10Z" fill="#18202A"/>
<path d="M14 10C14 8.89543 14.8954 8 16 8H42C43.1046 8 44 8.89543 44 10C44 11.1046 43.1046 12 42 12H16C14.8954 12 14 11.1046 14 10Z" fill="#18202A"/>
<path d="M16 22C14.8954 22 14 22.8954 14 24C14 25.1046 14.8954 26 16 26H30.7848C32.8919 24.7304 35.3607 24 38 24C39.9987 24 41.8996 24.4188 43.6197 25.1735C43.8589 24.8439 44 24.4384 44 24C44 22.8954 43.1046 22 42 22H16Z" fill="#18202A"/>
<path d="M24 38C24 37.321 24.0483 36.6532 24.1418 36H16C14.8954 36 14 36.8954 14 38C14 39.1046 14.8954 40 16 40H24.1418C24.0483 39.3468 24 38.679 24 38Z" fill="#18202A"/>
<path d="M8 24C8 25.1046 7.10457 26 6 26C4.89543 26 4 25.1046 4 24C4 22.8954 4.89543 22 6 22C7.10457 22 8 22.8954 8 24Z" fill="#18202A"/>
<path d="M8 38C8 39.1046 7.10457 40 6 40C4.89543 40 4 39.1046 4 38C4 36.8954 4.89543 36 6 36C7.10457 36 8 36.8954 8 38Z" fill="#18202A"/>
<path fill-rule="evenodd" clip-rule="evenodd" d="M38 48C43.5228 48 48 43.5228 48 38C48 32.4772 43.5228 28 38 28C32.4772 28 28 32.4772 28 38C28 43.5228 32.4772 48 38 48ZM36 34C36 32.8954 36.8954 32 38 32C39.1046 32 40 32.8954 40 34V36H42C43.1046 36 44 36.8954 44 38C44 39.1046 43.1046 40 42 40H40V42C40 43.1046 39.1046 44 38 44C36.8954 44 36 43.1046 36 42V40H34C32.8954 40 32 39.1046 32 38C32 36.8954 32.8954 36 34 36H36V34Z" fill="#18202A"/>
</g>
<defs>
<clipPath id="clip0_3517_8956">
<rect width="48" height="48" fill="white"/>
</clipPath>
</defs>
</svg>
