<svg width="48" height="48" viewBox="0 0 48 48" fill="none" xmlns="http://www.w3.org/2000/svg">
<path fill-rule="evenodd" clip-rule="evenodd" d="M24 33C27.866 33 31 29.866 31 26C31 22.134 27.866 19 24 19C20.134 19 17 22.134 17 26C17 29.866 20.134 33 24 33ZM24 36C29.5228 36 34 31.5228 34 26C34 20.4772 29.5228 16 24 16C18.4772 16 14 20.4772 14 26C14 31.5228 18.4772 36 24 36Z" fill="#18202A"/>
<path d="M27.8598 2C28.8474 2 29.82 2.24399 30.6908 2.71011C31.5616 3.17623 32.3038 3.85013 32.8518 4.672L34.4758 7.11C34.6584 7.38384 34.906 7.60834 35.1962 7.76358C35.4862 7.91876 35.8102 7.99996 36.1392 8H36C41.5228 8 46 12.4772 46 18V34C46 39.5228 41.5228 44 36 44H12C6.47716 44 2 39.5228 2 34V18C2 12.6225 6.24462 8.23636 11.5662 8.00924L11.8604 8C12.1893 7.99996 12.5132 7.91876 12.8033 7.76358C13.0936 7.60834 13.3411 7.38384 13.5238 7.11L15.1478 4.672C15.6956 3.85013 16.4379 3.17623 17.3087 2.71011C18.1796 2.24399 19.152 2 20.1398 2H27.8598ZM27.8598 5H20.1398C19.6461 5 19.16 5.12195 18.7245 5.35505C18.3761 5.5415 18.0689 5.79444 17.82 6.09813L17.6445 6.33516L16.0193 8.77498C15.5626 9.45961 14.9438 10.0209 14.2183 10.4089C13.6139 10.7322 12.9508 10.9271 12.2706 10.9831L12 10.992C8.26288 11 5.20975 13.9286 5.01036 17.6159L5 18V34C5 37.7371 7.92858 40.7903 11.6159 40.9896L12 41H36C39.7371 41 42.7902 38.0714 42.9896 34.3841L43 34V18C43 14.2629 40.0714 11.2097 36.3841 11.0104L36 11L35.7289 10.9831C35.1846 10.9383 34.6513 10.8046 34.1504 10.5874L33.7811 10.4089C33.1764 10.0854 32.6458 9.64157 32.221 9.10558L31.979 8.77316L30.3558 6.33629C30.0816 5.92507 29.7104 5.58807 29.275 5.35503C28.9267 5.16859 28.5458 5.05324 28.1547 5.01455L27.8598 5Z" fill="#18202A"/>
</svg>
