<svg width="48" height="48" viewBox="0 0 48 48" fill="none" xmlns="http://www.w3.org/2000/svg">
<path fill-rule="evenodd" clip-rule="evenodd" d="M24 46C36.1503 46 46 36.1503 46 24C46 11.8497 36.1503 2 24 2C11.8497 2 2 11.8497 2 24C2 36.1503 11.8497 46 24 46ZM27.4142 14.5858C26.6332 13.8047 25.3668 13.8047 24.5858 14.5858C23.8047 15.3668 23.8047 16.6332 24.5858 17.4142L29.1716 22H14C12.8954 22 12 22.8954 12 24C12 25.1046 12.8954 26 14 26H29.1716L24.5858 30.5858C23.8047 31.3668 23.8047 32.6332 24.5858 33.4142C25.3668 34.1953 26.6332 34.1953 27.4142 33.4142L35.4142 25.4142C36.1953 24.6332 36.1953 23.3668 35.4142 22.5858L27.4142 14.5858Z" fill="#18202A"/>
</svg>
