<svg width="48" height="48" viewBox="0 0 48 48" fill="none" xmlns="http://www.w3.org/2000/svg">
<path fill-rule="evenodd" clip-rule="evenodd" d="M36.4728 4.01374C40.671 4.25841 44 7.74044 44 12V38C44 42.4183 40.4183 46 36 46H12C7.58172 46 4 42.4183 4 38V12C4 7.74044 7.32901 4.25841 11.5272 4.01374C12.2169 2.81056 13.5138 2 15 2H33C34.4862 2 35.7831 2.81056 36.4728 4.01374ZM11 7.10002C8.71776 7.56329 7 9.58104 7 12V38C7 40.7614 9.23858 43 12 43H36C38.7614 43 41 40.7614 41 38V12C41 9.58104 39.2822 7.56329 37 7.10002V10C37 12.2091 35.2091 14 33 14H15C12.7909 14 11 12.2091 11 10V7.10002ZM14 6C14 5.44772 14.4477 5 15 5H33C33.5523 5 34 5.44772 34 6V10C34 10.5523 33.5523 11 33 11H15C14.4477 11 14 10.5523 14 10V6ZM35.0607 21.0607C35.6464 20.4749 35.6464 19.5251 35.0607 18.9393C34.4749 18.3536 33.5251 18.3536 32.9393 18.9393L20 31.8787L15.0607 26.9393C14.4749 26.3536 13.5251 26.3536 12.9393 26.9393C12.3536 27.5251 12.3536 28.4749 12.9393 29.0607L18.9393 35.0607C19.5251 35.6464 20.4749 35.6464 21.0607 35.0607L35.0607 21.0607Z" fill="#18202A"/>
</svg>
