<svg width="48" height="48" viewBox="0 0 48 48" fill="none" xmlns="http://www.w3.org/2000/svg">
<path fill-rule="evenodd" clip-rule="evenodd" d="M24 4C19.5817 4 16 7.58172 16 12V22C16 26.4183 19.5817 30 24 30C28.4183 30 32 26.4183 32 22V12C32 7.58172 28.4183 4 24 4ZM24 27C26.7614 27 29 24.7614 29 22V12C29 9.23858 26.7614 7 24 7C21.2386 7 19 9.23858 19 12V22C19 24.7614 21.2386 27 24 27Z" fill="#18202A"/>
<path d="M11.4285 22C10.6 22 9.92001 22.6739 10.0076 23.4976C10.7051 30.0564 15.9318 35.2624 22.5 35.928V41H16.5C15.6716 41 15 41.6716 15 42.5C15 43.3284 15.6716 44 16.5 44H31.5C32.3284 44 33 43.3284 33 42.5C33 41.6716 32.3284 41 31.5 41H25.5V35.9128C32.0009 35.1866 37.1569 30.0087 37.8493 23.4976C37.9369 22.6739 37.2569 22 36.4285 22C35.6 22 34.9392 22.6753 34.8276 23.4962C34.0976 28.8636 29.4961 33 23.9285 33C18.3608 33 13.7593 28.8636 13.0293 23.4962C12.9177 22.6753 12.2569 22 11.4285 22Z" fill="#18202A"/>
</svg>
