<svg width="48" height="48" viewBox="0 0 48 48" fill="none" xmlns="http://www.w3.org/2000/svg">
<path fill-rule="evenodd" clip-rule="evenodd" d="M39.409 4.10568C37.985 2.79815 36.0857 2 34 2H14C9.58172 2 6 5.58172 6 10V38C6 42.4183 9.58172 46 14 46H34C38.4183 46 42 42.4183 42 38V18.4853L36.2426 24.2426C33.8995 26.5858 30.1005 26.5858 27.7574 24.2426L21.7574 18.2426C19.4142 15.8995 19.4142 12.1005 21.7574 9.75736C24.1005 7.41421 27.8995 7.41421 30.2426 9.75736L32 11.5147L39.409 4.10568ZM12 28C12 26.8954 12.8954 26 14 26H22C23.1046 26 24 26.8954 24 28C24 29.1046 23.1046 30 22 30H14C12.8954 30 12 29.1046 12 28ZM14 34C12.8954 34 12 34.8954 12 36C12 37.1046 12.8954 38 14 38H34C35.1046 38 36 37.1046 36 36C36 34.8954 35.1046 34 34 34H14ZM45.4142 9.41421C46.1953 8.63317 46.1953 7.36684 45.4142 6.58579C44.6332 5.80474 43.3668 5.80474 42.5858 6.58579L32 17.1716L27.4142 12.5858C26.6332 11.8047 25.3668 11.8047 24.5858 12.5858C23.8047 13.3668 23.8047 14.6332 24.5858 15.4142L30.5858 21.4142C31.3668 22.1953 32.6332 22.1953 33.4142 21.4142L45.4142 9.41421Z" fill="#18202A"/>
</svg>
