<svg width="48" height="48" viewBox="0 0 48 48" fill="none" xmlns="http://www.w3.org/2000/svg">
<path d="M43 12.9094C41.3775 10.1299 39.1525 7.71914 36.461 5.86927C32.144 2.90228 26.91 1.57301 21.7004 2.12056C16.4908 2.66811 11.6476 5.05653 8.04179 8.85624C4.436 12.6559 2.30432 17.6176 2.03017 22.8486C1.75602 28.0797 3.35739 33.237 6.54624 37.3928C9.7351 41.5486 14.3022 44.4302 19.426 45.5193C24.5498 46.6084 29.894 45.8335 34.4975 43.334C38.661 41.0734 41.9714 37.5363 43.9549 33.263C44.3032 32.5128 43.9128 31.6439 43.1407 31.3475C42.3686 31.0511 41.5078 31.4399 41.151 32.186C38.0929 38.5819 31.5624 43 24 43C13.5066 43 5.00002 34.4935 5.00002 24C5.00002 13.5066 13.5066 5.00004 24 5.00004C32.0214 5.00004 38.8818 9.97078 41.669 17H29.5C28.6716 17 28 17.6716 28 18.5C28 19.3284 28.6716 20 29.5 20H44C45.1046 20 46 19.1046 46 18V3.5C46 2.67157 45.3284 2 44.5 2C43.6716 2 43 2.67157 43 3.5V12.9094Z" fill="#18202A"/>
</svg>
