<svg width="48" height="48" viewBox="0 0 48 48" fill="none" xmlns="http://www.w3.org/2000/svg">
<path fill-rule="evenodd" clip-rule="evenodd" d="M41.3862 13.4258C41.313 13.2489 41.2045 13.0832 41.0607 12.9393C40.7678 12.6464 40.3839 12.5 40 12.5H26C25.1716 12.5 24.5 13.1716 24.5 14C24.5 14.8284 25.1716 15.5 26 15.5H36.3787L22 29.8787L15.0607 22.9393C14.4749 22.3536 13.5251 22.3536 12.9393 22.9393L4.93934 30.9393C4.35355 31.5251 4.35355 32.4749 4.93934 33.0607C5.52513 33.6464 6.47487 33.6464 7.06066 33.0607L14 26.1213L20.9393 33.0607C21.5251 33.6464 22.4749 33.6464 23.0607 33.0607L38.5 17.6213V28C38.5 28.8284 39.1716 29.5 40 29.5C40.8284 29.5 41.5 28.8284 41.5 28V14C41.5 13.7966 41.4595 13.6027 41.3862 13.4258Z" fill="#18202A"/>
</svg>
