<svg width="48" height="48" viewBox="0 0 48 48" fill="none" xmlns="http://www.w3.org/2000/svg">
<path d="M12 22C8.68629 22 6 19.3137 6 16V14C6 10.6863 8.68629 8 12 8H14C17.2858 8 19.9546 10.6412 19.9994 13.9163C20.5006 20.5162 20.0174 26.3611 18.2194 30.6485C17.3076 32.8229 16.0236 34.6767 14.281 35.9886C12.5171 37.3164 10.3996 38.0001 8 38.0001C6.89543 38.0001 6 37.1047 6 36.0001C6 34.8955 6.89543 34.0001 8 34.0001C9.60045 34.0001 10.8579 33.5588 11.8753 32.7929C12.9139 32.011 13.8174 30.8023 14.5306 29.1016C14.7215 28.6463 14.9458 28.1599 15.0272 27.6712C15.4727 24.998 14.9581 23.6492 14.4383 22.9994C13.9212 22.3531 13.08 22 12 22Z" fill="#18202A"/>
<path d="M41.9994 13.9163C41.9546 10.6412 39.2858 8 36 8H34C30.6863 8 28 10.6863 28 14V16C28 19.3137 30.6863 22 34 22C35.08 22 35.9212 22.3531 36.4383 22.9994C36.9581 23.6492 37.4727 24.998 37.0272 27.6712C36.9458 28.1599 36.7215 28.6463 36.5306 29.1016C35.8174 30.8023 34.9139 32.011 33.8753 32.7929C32.8579 33.5588 31.6004 34.0001 30 34.0001C28.8954 34.0001 28 34.8955 28 36.0001C28 37.1047 28.8954 38.0001 30 38.0001C32.3996 38.0001 34.5171 37.3164 36.281 35.9886C38.0236 34.6767 39.3076 32.8229 40.2194 30.6485C42.0174 26.3611 42.5006 20.5162 41.9994 13.9163Z" fill="#18202A"/>
</svg>
