<svg width="48" height="48" viewBox="0 0 48 48" fill="none" xmlns="http://www.w3.org/2000/svg">
<path d="M41.736 33.2598C42.1718 32.426 42.5496 31.5599 42.8654 30.6673C43.2339 29.626 42.6885 28.4832 41.6472 28.1147C40.6059 27.7462 39.463 28.2917 39.0946 29.333C38.9839 29.6456 38.8638 29.9542 38.7345 30.2583L41.736 33.2598Z" fill="#18202A"/>
<path d="M17.7483 9.2721C18.6206 8.90258 19.5272 8.60995 20.4579 8.39936C23.0941 7.8029 25.8383 7.88395 28.4347 8.63494C31.031 9.38593 33.3948 10.7824 35.3054 12.694C35.3202 12.7088 35.3352 12.7234 35.3505 12.7377L40.9508 18H36C34.8954 18 34 18.8954 34 20C34 21.1046 34.8954 22 36 22H46C47.1046 22 48 21.1046 48 20V10C48 8.89543 47.1046 8 46 8C44.8954 8 44 8.89543 44 10V15.3763L38.1118 9.84351C35.7274 7.46567 32.7812 5.72821 29.5461 4.79246C26.3007 3.85372 22.8704 3.75241 19.5752 4.49798C17.889 4.8795 16.2663 5.47642 14.7453 6.26914L17.7483 9.2721Z" fill="#18202A"/>
<path d="M7.40156 4.58222C6.51995 3.83096 5.27396 3.79747 4.53572 4.53572C3.75397 5.31746 3.83759 6.66853 4.72247 7.55342L8.50949 11.3404C7.05194 13.122 5.90773 15.1481 5.13457 17.333C4.76609 18.3743 5.31151 19.5171 6.35281 19.8856C7.3941 20.2541 8.53695 19.7086 8.90543 18.6673C9.47909 17.0462 10.3081 15.5344 11.3556 14.1865L33.8116 36.6426C31.9665 38.0724 29.8272 39.0839 27.5421 39.6009C24.9059 40.1974 22.1617 40.1164 19.5653 39.3654C16.969 38.6144 14.6052 37.2179 12.6946 35.3063C12.6798 35.2915 12.6648 35.277 12.6496 35.2627L7.04904 30H12C13.1046 30 14 29.1046 14 28C14 26.8954 13.1046 26 12 26H2C0.89543 26 0 26.8954 0 28V38C0 39.1046 0.89543 40 2 40C3.10457 40 4 39.1046 4 38V32.6238L9.88821 38.1568C12.2725 40.5346 15.2188 42.2721 18.4539 43.2078C21.6993 44.1466 25.1296 44.2479 28.4248 43.5023C31.4464 42.8186 34.2641 41.4433 36.6581 39.4891L40.4466 43.2775C41.3315 44.1624 42.6825 44.246 43.4643 43.4643C44.2025 42.726 44.169 41.4801 43.4178 40.5984L7.40156 4.58222Z" fill="#18202A"/>
</svg>
