<svg width="48" height="48" viewBox="0 0 48 48" fill="none" xmlns="http://www.w3.org/2000/svg">
<path fill-rule="evenodd" clip-rule="evenodd" d="M41.4142 12.5858C42.1953 13.3668 42.1953 14.6332 41.4142 15.4142L23.4142 33.4142C22.6332 34.1953 21.3668 34.1953 20.5858 33.4142L14 26.8284L7.41421 33.4142C6.63317 34.1953 5.36683 34.1953 4.58579 33.4142C3.80474 32.6332 3.80474 31.3668 4.58579 30.5858L12.5858 22.5858C13.3668 21.8047 14.6332 21.8047 15.4142 22.5858L22 29.1716L38.5858 12.5858C39.3668 11.8047 40.6332 11.8047 41.4142 12.5858Z" fill="#18202A"/>
<path fill-rule="evenodd" clip-rule="evenodd" d="M24 14C24 12.8954 24.8954 12 26 12H40C41.1046 12 42 12.8954 42 14V28C42 29.1046 41.1046 30 40 30C38.8954 30 38 29.1046 38 28V16H26C24.8954 16 24 15.1046 24 14Z" fill="#18202A"/>
</svg>
