<svg width="48" height="48" viewBox="0 0 48 48" fill="none" xmlns="http://www.w3.org/2000/svg">
<path fill-rule="evenodd" clip-rule="evenodd" d="M44 24C44 19.5817 40.4183 16 36 16V14C36 7.37258 30.6274 2 24 2C17.3726 2 12 7.37258 12 14V16C7.58172 16 4 19.5817 4 24V38C4 42.4183 7.58172 46 12 46H36C40.4183 46 44 42.4183 44 38V24ZM24 6C28.4183 6 32 9.58172 32 14V16H16V14C16 9.58172 19.5817 6 24 6ZM26 31.4649C27.1956 30.7733 28 29.4806 28 28C28 25.7909 26.2091 24 24 24C21.7909 24 20 25.7909 20 28C20 29.4806 20.8044 30.7733 22 31.4649V36C22 37.1046 22.8954 38 24 38C25.1046 38 26 37.1046 26 36V31.4649Z" fill="#18202A"/>
</svg>
