<svg width="48" height="48" viewBox="0 0 48 48" fill="none" xmlns="http://www.w3.org/2000/svg">
<path fill-rule="evenodd" clip-rule="evenodd" d="M28 9H8C5.23858 9 3 11.2386 3 14V34C3 36.7614 5.23858 39 8 39H28C30.7614 39 33 36.7614 33 34V14C33 11.2386 30.7614 9 28 9ZM8 6C3.58172 6 0 9.58172 0 14V34C0 38.4183 3.58172 42 8 42H28C32.4183 42 36 38.4183 36 34V14C36 9.58172 32.4183 6 28 6H8Z" fill="#18202A"/>
<path fill-rule="evenodd" clip-rule="evenodd" d="M41 18.7367V29.2633L45 32.1433V15.8567L41 18.7367ZM38.8314 16.6014C38.3094 16.9772 38 17.5812 38 18.2245V29.7755C38 30.4188 38.3094 31.0228 38.8314 31.3986L44.8314 35.7186C46.1544 36.6711 48 35.7257 48 34.0955V13.9045C48 12.2743 46.1544 11.3289 44.8314 12.2814L38.8314 16.6014Z" fill="#18202A"/>
<path fill-rule="evenodd" clip-rule="evenodd" d="M15 19.931L15 28.0618L20.7834 23.9986L15 19.931ZM15.1506 16.3692L23.6728 22.3632C24.8057 23.16 24.8053 24.8393 23.672 25.6356L15.1497 31.623C13.8245 32.5541 12 31.6062 12 29.9865L12 18.0051C12 16.385 13.8254 15.4372 15.1506 16.3692Z" fill="#18202A"/>
</svg>
