<svg width="48" height="48" viewBox="0 0 48 48" fill="none" xmlns="http://www.w3.org/2000/svg">
<path fill-rule="evenodd" clip-rule="evenodd" d="M5.0409 23.2792V23.3818C5.0409 29.3603 7.39764 33.8476 11.0306 36.7909L12.0254 37.5969L12.4333 42.4918L17.5286 40.1401L18.5365 40.3787C20.2584 40.7864 22.0982 41 24.0205 41C35.7404 41 43 32.6585 43 23.3818C43 12.2408 34.6927 5 24.0205 5C13.2918 5 4.38905 13.766 5.03389 23.1767L5.0409 23.2792ZM46 23.3818C46 34.3472 37.3653 44 24.0205 44C21.8765 44 19.8043 43.7618 17.8453 43.298L12.3935 45.8142C11.1329 46.396 9.6776 45.548 9.56231 44.1644L9.1421 39.1219C4.77644 35.585 2.0409 30.2264 2.0409 23.3818C1.25602 11.9273 11.8815 2 24.0205 2C36.1594 2 46 10.4 46 23.3818Z" fill="#18202A"/>
<path fill-rule="evenodd" clip-rule="evenodd" d="M33 26C34.6569 26 36 24.6569 36 23C36 21.3431 34.6569 20 33 20C31.3432 20 30 21.3431 30 23C30 24.6569 31.3432 26 33 26Z" fill="#18202A"/>
<path fill-rule="evenodd" clip-rule="evenodd" d="M24 26C25.6569 26 27 24.6569 27 23C27 21.3431 25.6569 20 24 20C22.3432 20 21 21.3431 21 23C21 24.6569 22.3432 26 24 26Z" fill="#18202A"/>
<path fill-rule="evenodd" clip-rule="evenodd" d="M15 26C16.6569 26 18 24.6569 18 23C18 21.3431 16.6569 20 15 20C13.3432 20 12 21.3431 12 23C12 24.6569 13.3432 26 15 26Z" fill="#18202A"/>
</svg>
