<svg width="48" height="48" viewBox="0 0 48 48" fill="none" xmlns="http://www.w3.org/2000/svg">
<path d="M12 10C12 12.2091 13.7909 14 16 14C18.2091 14 20 12.2091 20 10C20 7.79086 18.2091 6 16 6C13.7909 6 12 7.79086 12 10Z" fill="#18202A"/>
<path d="M28 10C28 12.2091 29.7909 14 32 14C34.2091 14 36 12.2091 36 10C36 7.79086 34.2091 6 32 6C29.7909 6 28 7.79086 28 10Z" fill="#18202A"/>
<path d="M16 28C13.7909 28 12 26.2091 12 24C12 21.7909 13.7909 20 16 20C18.2091 20 20 21.7909 20 24C20 26.2091 18.2091 28 16 28Z" fill="#18202A"/>
<path d="M32 28C29.7909 28 28 26.2091 28 24C28 21.7909 29.7909 20 32 20C34.2091 20 36 21.7909 36 24C36 26.2091 34.2091 28 32 28Z" fill="#18202A"/>
<path d="M32 42C29.7909 42 28 40.2091 28 38C28 35.7909 29.7909 34 32 34C34.2091 34 36 35.7909 36 38C36 40.2091 34.2091 42 32 42Z" fill="#18202A"/>
<path d="M16 42C13.7909 42 12 40.2091 12 38C12 35.7909 13.7909 34 16 34C18.2091 34 20 35.7909 20 38C20 40.2091 18.2091 42 16 42Z" fill="#18202A"/>
</svg>
