<svg width="48" height="48" viewBox="0 0 48 48" fill="none" xmlns="http://www.w3.org/2000/svg">
<path fill-rule="evenodd" clip-rule="evenodd" d="M30.8285 6.99995C29.5685 5.74002 27.4142 6.63237 27.4142 8.41417V15.0116C21.9878 15.1386 16.1709 16.3333 11.6033 19.8583C6.70494 23.6385 3.41425 29.9638 3.41425 40C3.41425 40.4512 3.71649 40.8466 4.15196 40.9649C4.58744 41.0833 5.04822 40.8953 5.27666 40.5062C7.96331 35.9289 10.0966 33.142 13.2868 31.4312C16.3583 29.7842 20.5387 29.0662 27.4142 29.0044V35.5857C27.4142 37.3676 29.5685 38.2599 30.8285 37L44.4142 23.4142C45.1953 22.6331 45.1953 21.3668 44.4142 20.5857L30.8285 6.99995Z" fill="#18202A"/>
</svg>
