<svg width="48" height="48" viewBox="0 0 48 48" fill="none" xmlns="http://www.w3.org/2000/svg">
<path fill-rule="evenodd" clip-rule="evenodd" d="M33.0607 14.9393C33.6464 15.5251 33.6464 16.4749 33.0607 17.0607L17.0607 33.0607C16.4749 33.6464 15.5251 33.6464 14.9393 33.0607C14.3536 32.4749 14.3536 31.5251 14.9393 30.9393L30.9393 14.9393C31.5251 14.3536 32.4749 14.3536 33.0607 14.9393Z" fill="#18202A"/>
<path fill-rule="evenodd" clip-rule="evenodd" d="M14.9393 14.9393C15.5251 14.3536 16.4749 14.3536 17.0607 14.9393L33.0607 30.9393C33.6464 31.5251 33.6464 32.4749 33.0607 33.0607C32.4749 33.6464 31.5251 33.6464 30.9393 33.0607L14.9393 17.0607C14.3536 16.4749 14.3536 15.5251 14.9393 14.9393Z" fill="#18202A"/>
<path fill-rule="evenodd" clip-rule="evenodd" d="M24 43C34.4934 43 43 34.4934 43 24C43 13.5066 34.4934 5 24 5C13.5066 5 5 13.5066 5 24C5 34.4934 13.5066 43 24 43ZM46 24C46 36.1503 36.1503 46 24 46C11.8497 46 2 36.1503 2 24C2 11.8497 11.8497 2 24 2C36.1503 2 46 11.8497 46 24Z" fill="#18202A"/>
</svg>
