<svg width="48" height="48" viewBox="0 0 48 48" fill="none" xmlns="http://www.w3.org/2000/svg">
<path d="M26.5132 8.5C29.2673 8.5 31.5 10.7327 31.5 13.4868C31.5 15.5141 30.2749 17.3265 28.4233 18.0934L28.0901 18.2178L27.4743 18.423C26.386 18.7858 25.6246 19.7539 25.5139 20.8782L25.5 21.1623V22C25.5 22.8284 24.8284 23.5 24 23.5C23.2406 23.5 22.613 22.9357 22.5137 22.2035L22.5 22V21.1623C22.5 18.7549 23.9635 16.604 26.171 15.7079L26.5257 15.577L27.1414 15.3717C27.9528 15.1013 28.5 14.342 28.5 13.4868C28.5 12.4679 27.733 11.6281 26.7449 11.5134L26.5132 11.5H20.8284C20.0948 11.5 19.5 12.0948 19.5 12.8284C19.5 13.1103 19.5896 13.3829 19.753 13.6082L19.8891 13.7678L20.0607 13.9393C20.6464 14.5251 20.6464 15.4749 20.0607 16.0607C19.5281 16.5932 18.6948 16.6416 18.1076 16.2059L17.9393 16.0607L17.7678 15.8891C16.956 15.0773 16.5 13.9764 16.5 12.8284C16.5 10.5418 18.2731 8.66937 20.5193 8.51087L20.8284 8.5H26.5132Z" fill="#18202A"/>
<path d="M26 28C26 26.8954 25.1046 26 24 26C22.8954 26 22 26.8954 22 28C22 29.1046 22.8954 30 24 30C25.1046 30 26 29.1046 26 28Z" fill="#18202A"/>
<path fill-rule="evenodd" clip-rule="evenodd" d="M38 36H25.8182L12.9111 43.6745C11.4148 44.5642 9.57499 43.25 9.93127 41.5461L11.0909 36H10C9.33628 36 8.69144 35.9192 8.07479 35.7668C4.58645 34.905 2 31.7546 2 28V10C2 5.58172 5.58172 2 10 2H38C42.4183 2 46 5.58172 46 10V28C46 32.4183 42.4183 36 38 36ZM25.8182 33C25.2785 33 24.7488 33.1456 24.285 33.4214L13.3334 39.9331L14.0274 36.614C14.2123 35.7298 13.9889 34.8093 13.4192 34.1082C12.8495 33.4071 11.9943 33 11.0909 33H10C7.23857 33 5 30.7614 5 28V10C5 7.23858 7.23858 5 10 5H38C40.7614 5 43 7.23858 43 10V28C43 30.7614 40.7614 33 38 33H25.8182Z" fill="#18202A"/>
</svg>
