<svg width="48" height="48" viewBox="0 0 48 48" fill="none" xmlns="http://www.w3.org/2000/svg">
<path d="M44 12C45.1046 12 46 11.1046 46 10C46 8.89543 45.1046 8 44 8H4C2.89543 8 2 8.89543 2 10C2 11.1046 2.89543 12 4 12H44Z" fill="#18202A"/>
<path d="M44 26C45.1046 26 46 25.1046 46 24C46 22.8954 45.1046 22 44 22H4C2.89543 22 2 22.8954 2 24C2 25.1046 2.89543 26 4 26H44Z" fill="#18202A"/>
<path d="M44 40C45.1046 40 46 39.1046 46 38C46 36.8954 45.1046 36 44 36H4C2.89543 36 2 36.8954 2 38C2 39.1046 2.89543 40 4 40H44Z" fill="#18202A"/>
</svg>
