<svg width="48" height="48" viewBox="0 0 48 48" fill="none" xmlns="http://www.w3.org/2000/svg">
<path fill-rule="evenodd" clip-rule="evenodd" d="M21 26.2986V33.7014L27.169 30L21 26.2986ZM21.029 22.8174C19.6959 22.0176 18 22.9778 18 24.5324V35.4676C18 37.0222 19.6959 37.9824 21.029 37.1826L30.1417 31.715C31.4364 30.9382 31.4364 29.0618 30.1417 28.285L21.029 22.8174Z" fill="#18202A"/>
<path fill-rule="evenodd" clip-rule="evenodd" d="M38 17H10C7.23858 17 5 19.2386 5 22V36C5 39.866 8.13401 43 12 43H36C39.866 43 43 39.866 43 36V22C43 19.2386 40.7614 17 38 17ZM10 14C5.58172 14 2 17.5817 2 22V36C2 41.5229 6.47715 46 12 46H36C41.5228 46 46 41.5229 46 36V22C46 17.5817 42.4183 14 38 14H10Z" fill="#18202A"/>
<path d="M8 9.5C8 8.67157 8.67157 8 9.5 8H38.5C39.3284 8 40 8.67157 40 9.5C40 10.3284 39.3284 11 38.5 11H9.5C8.67157 11 8 10.3284 8 9.5Z" fill="#18202A"/>
<path d="M12 3.5C12 2.67157 12.6716 2 13.5 2H34.5C35.3284 2 36 2.67157 36 3.5C36 4.32843 35.3284 5 34.5 5H13.5C12.6716 5 12 4.32843 12 3.5Z" fill="#18202A"/>
</svg>
