<svg width="48" height="48" viewBox="0 0 48 48" fill="none" xmlns="http://www.w3.org/2000/svg">
<path d="M6.44205 6.44201C7.0314 5.85266 7.98694 5.85266 8.57629 6.44201L41.558 39.4237C42.1474 40.0131 42.1474 40.9686 41.558 41.558C40.9687 42.1473 40.0131 42.1473 39.4238 41.558L6.44205 8.57626C5.85269 7.9869 5.85269 7.03137 6.44205 6.44201Z" fill="#18202A"/>
<path d="M12.7799 10.6485C9.97048 13.4873 8.39632 17.2834 8.39632 21.2381C8.39632 28.7982 6.534 33.2605 4.99745 35.6556C4.47343 36.4724 5.12507 38 6.09551 38H40.1314L37.1314 35H8.76935C10.1886 31.9599 11.3963 27.5184 11.3963 21.2381C11.3963 18.0899 12.6468 15.0536 14.9013 12.7699L12.7799 10.6485Z" fill="#18202A"/>
<path d="M37.947 31.573C37.1535 28.8755 36.6038 25.4753 36.6038 21.2381C36.6038 18.0156 35.2936 14.9103 32.9375 12.6095C30.579 10.3062 27.3654 9 24 9C21.5921 9 19.2619 9.66872 17.2669 10.8929L15.0975 8.72343C17.2862 7.23861 19.8352 6.3215 22.5017 6.07037C22.5006 6.04705 22.5 6.02359 22.5 6V4C22.5 3.17157 23.1716 2.5 24 2.5C24.8285 2.5 25.5 3.17157 25.5 4V6C25.5 6.02359 25.4995 6.04705 25.4984 6.07037C29.0868 6.40833 32.4626 7.95242 35.0335 10.4631C37.9598 13.3208 39.6038 17.1967 39.6038 21.2381C39.6038 28.7982 41.4661 33.2605 43.0026 35.6556C43.2006 35.9642 43.2308 36.3744 43.1393 36.7652L37.947 31.573Z" fill="#18202A"/>
<path d="M20.6043 44.8674C19.6228 44.1323 18.9059 43.099 18.5607 41.9223L21.4394 41.0777C21.6022 41.6327 21.9403 42.1199 22.4028 42.4664C22.8653 42.8128 23.4275 43 24.005 43C24.5826 43 25.1447 42.8128 25.6072 42.4664C26.0698 42.1199 26.4079 41.6327 26.5707 41.0777L29.4494 41.9223C29.1041 43.099 28.3872 44.1323 27.4058 44.8674C26.4244 45.6026 25.2312 46 24.005 46C22.7788 46 21.5857 45.6026 20.6043 44.8674Z" fill="#18202A"/>
</svg>
