<svg width="48" height="48" viewBox="0 0 48 48" fill="none" xmlns="http://www.w3.org/2000/svg">
<path fill-rule="evenodd" clip-rule="evenodd" d="M34.8168 8.78172C35.2135 9.50899 34.9456 10.4201 34.2183 10.8168L12.2183 22.8168C11.491 23.2135 10.5799 22.9456 10.1832 22.2183C9.78646 21.491 10.0544 20.5799 10.7817 20.1832L32.7817 8.18316C33.509 7.78646 34.4201 8.05445 34.8168 8.78172Z" fill="#18202A"/>
<path fill-rule="evenodd" clip-rule="evenodd" d="M40.2183 14.1832C40.9455 14.5799 41.2135 15.491 40.8168 16.2183L28.8168 38.2183C28.4201 38.9455 27.509 39.2135 26.7817 38.8168C26.0544 38.4201 25.7865 37.509 26.1832 36.7817L38.1832 14.7817C38.5799 14.0544 39.491 13.7865 40.2183 14.1832Z" fill="#18202A"/>
<path fill-rule="evenodd" clip-rule="evenodd" d="M30.4393 6.43934C31.0251 5.85355 31.9749 5.85355 32.5607 6.43934L42.5607 16.4393C43.1464 17.0251 43.1464 17.9749 42.5607 18.5607C41.9749 19.1464 41.0251 19.1464 40.4393 18.5607L30.4393 8.56066C29.8536 7.97487 29.8536 7.02513 30.4393 6.43934Z" fill="#18202A"/>
<path fill-rule="evenodd" clip-rule="evenodd" d="M18.5607 30.4393C19.1464 31.0251 19.1464 31.9749 18.5607 32.5607L10.5607 40.5607C9.97487 41.1464 9.02513 41.1464 8.43934 40.5607C7.85355 39.9749 7.85355 39.0251 8.43934 38.4393L16.4393 30.4393C17.0251 29.8536 17.9749 29.8536 18.5607 30.4393Z" fill="#18202A"/>
<path fill-rule="evenodd" clip-rule="evenodd" d="M6.43934 18.4393C7.02513 17.8536 7.97487 17.8536 8.56066 18.4393L30.5607 40.4393C31.1464 41.0251 31.1464 41.9749 30.5607 42.5607C29.9749 43.1464 29.0251 43.1464 28.4393 42.5607L6.43934 20.5607C5.85355 19.9749 5.85355 19.0251 6.43934 18.4393Z" fill="#18202A"/>
</svg>
