<svg width="48" height="48" viewBox="0 0 48 48" fill="none" xmlns="http://www.w3.org/2000/svg">
<path fill-rule="evenodd" clip-rule="evenodd" d="M14 2C12.8954 2 12 2.89543 12 4V6H10C5.58172 6 2 9.58172 2 14V38C2 42.4183 5.58172 46 10 46H23.5093C21.7058 43.7502 20.4975 41.0027 20.1233 37.9963C20.0825 37.9987 20.0414 38 20 38C18.8954 38 18 37.1046 18 36C18 34.8954 18.8954 34 20 34C20.0414 34 20.0825 34.0013 20.1233 34.0037C20.3246 32.3868 20.7671 30.8447 21.4137 29.4147C21.0518 29.7764 20.552 30 20 30C18.8954 30 18 29.1046 18 28C18 26.8954 18.8954 26 20 26C21.1046 26 22 26.8954 22 28C22 28.0965 21.9932 28.1914 21.98 28.2842C23.4352 25.6456 25.6136 23.4618 28.248 22H12C10.8954 22 10 21.1046 10 20C10 18.8954 10.8954 18 12 18H36C37.1046 18 38 18.8954 38 20C38 20.0414 37.9987 20.0825 37.9963 20.1233C41.0027 20.4975 43.7502 21.7058 46 23.5093V14C46 9.58172 42.4183 6 38 6H36V4C36 2.89543 35.1046 2 34 2C32.8954 2 32 2.89543 32 4V6H16V4C16 2.89543 15.1046 2 14 2ZM10 28C10 26.8954 10.8954 26 12 26C13.1046 26 14 26.8954 14 28C14 29.1046 13.1046 30 12 30C10.8954 30 10 29.1046 10 28ZM12 34C10.8954 34 10 34.8954 10 36C10 37.1046 10.8954 38 12 38C13.1046 38 14 37.1046 14 36C14 34.8954 13.1046 34 12 34ZM48 36C48 42.6274 42.6274 48 36 48C29.3726 48 24 42.6274 24 36C24 29.3726 29.3726 24 36 24C42.6274 24 48 29.3726 48 36ZM36 29.5C36.8284 29.5 37.5 30.1716 37.5 31V35.3787L40.0607 37.9393C40.6464 38.5251 40.6464 39.4749 40.0607 40.0607C39.4749 40.6464 38.5251 40.6464 37.9393 40.0607L34.9393 37.0607C34.658 36.7794 34.5 36.3978 34.5 36V31C34.5 30.1716 35.1716 29.5 36 29.5Z" fill="#18202A"/>
</svg>
