<svg width="48" height="48" viewBox="0 0 48 48" fill="none" xmlns="http://www.w3.org/2000/svg">
<path fill-rule="evenodd" clip-rule="evenodd" d="M36.9008 32.101C38.857 29.2209 40 25.7439 40 22C40 12.0589 31.9411 4 22 4C12.0589 4 4 12.0589 4 22C4 31.9411 12.0589 40 22 40C25.7439 40 29.2209 38.857 32.101 36.9008C33.0446 36.2599 33.9241 35.5318 34.7279 34.7279C35.5318 33.9241 36.2599 33.0446 36.9008 32.101ZM38.8237 36.1769C38.0873 35.8444 37.1909 35.9807 36.5858 36.5858C35.9807 37.1909 35.8444 38.0873 36.1769 38.8237C36.2736 39.0378 36.4099 39.2383 36.5858 39.4142L40.5858 43.4142C41.3668 44.1953 42.6332 44.1953 43.4142 43.4142C44.1953 42.6332 44.1953 41.3668 43.4142 40.5858L39.4142 36.5858C39.2383 36.4099 39.0378 36.2736 38.8237 36.1769ZM22 36C29.732 36 36 29.732 36 22C36 14.268 29.732 8 22 8C14.268 8 8 14.268 8 22C8 29.732 14.268 36 22 36Z" fill="#18202A"/>
</svg>
