<svg width="48" height="48" viewBox="0 0 48 48" fill="none" xmlns="http://www.w3.org/2000/svg">
<path fill-rule="evenodd" clip-rule="evenodd" d="M24 6C22.8954 6 22 6.89543 22 8C22 9.10457 22.8954 10 24 10H35.1716L25.5858 19.5858C24.8047 20.3668 24.8047 21.6332 25.5858 22.4142C26.3668 23.1953 27.6332 23.1953 28.4142 22.4142L38 12.8284V24C38 25.1046 38.8954 26 40 26C41.1046 26 42 25.1046 42 24V8C42 6.89543 41.1046 6 40 6L24 6ZM24 42C25.1046 42 26 41.1046 26 40C26 38.8954 25.1046 38 24 38H12.8284L22.4142 28.4142C23.1953 27.6332 23.1953 26.3668 22.4142 25.5858C21.6332 24.8047 20.3668 24.8047 19.5858 25.5858L10 35.1716L10 24C10 22.8954 9.10457 22 8 22C6.89543 22 6 22.8954 6 24V40C6 41.1046 6.89543 42 8 42H24Z" fill="#18202A"/>
</svg>
