<svg width="48" height="48" viewBox="0 0 48 48" fill="none" xmlns="http://www.w3.org/2000/svg">
<path fill-rule="evenodd" clip-rule="evenodd" d="M18 11C18 14.171 15.8915 16.8496 13 17.7101V28.5C13 32.0899 15.9101 35 19.5 35H30.2899C31.1504 32.1085 33.829 30 37 30C40.866 30 44 33.134 44 37C44 40.866 40.866 44 37 44C33.4735 44 30.5561 41.3923 30.0709 38H19.5C14.2533 38 10 33.7467 10 28.5V17.9291C6.60771 17.4439 4 14.5265 4 11C4 7.13401 7.13401 4 11 4C14.866 4 18 7.13401 18 11ZM15 11C15 13.2091 13.2091 15 11 15C8.79086 15 7 13.2091 7 11C7 8.79086 8.79086 7 11 7C13.2091 7 15 8.79086 15 11ZM41 37C41 39.2091 39.2091 41 37 41C34.7909 41 33 39.2091 33 37C33 34.7909 34.7909 33 37 33C39.2091 33 41 34.7909 41 37Z" fill="#18202A"/>
</svg>
