<svg width="64" height="64" viewBox="0 0 64 64" fill="none" xmlns="http://www.w3.org/2000/svg">
<path fill-rule="evenodd" clip-rule="evenodd" d="M19.3333 29.8382V14.6667C19.3333 13.0754 19.9655 11.5492 21.0907 10.424C22.2159 9.2988 23.742 8.66666 25.3333 8.66666C26.0243 8.66666 26.703 8.78585 27.3419 9.01284C27.3782 8.33444 27.5295 7.66632 27.7901 7.03723C28.0916 6.30927 28.5335 5.64784 29.0907 5.09069C29.6478 4.53354 30.3093 4.09158 31.0372 3.79005C31.7652 3.48852 32.5454 3.33333 33.3333 3.33333C34.1213 3.33333 34.9015 3.48852 35.6294 3.79005C36.3574 4.09158 37.0188 4.53354 37.576 5.09069C38.1331 5.64784 38.5751 6.30927 38.8766 7.03723C39.1372 7.66632 39.2885 8.33444 39.3248 9.01284C39.9637 8.78585 40.6424 8.66666 41.3333 8.66666C42.9246 8.66666 44.4508 9.2988 45.576 10.424C46.6254 11.4735 47.246 12.8717 47.3248 14.3462C47.9637 14.1192 48.6424 14 49.3333 14C50.9245 14 52.4507 14.6321 53.576 15.7574C54.7011 16.8826 55.3333 18.4087 55.3333 20V42.6667C55.3333 47.4405 53.4368 52.0189 50.0613 55.3947C46.6856 58.7701 42.1072 60.6667 37.3333 60.6667H32.5485C29.5698 60.6661 26.6377 59.9262 24.0152 58.5136C21.3908 57.0997 19.1574 55.0544 17.5178 52.5648C17.3411 52.2957 17.1649 52.0261 16.9895 51.7563C16.1119 50.4091 13.1496 45.2403 8.16092 36.3726C7.39471 35.0107 7.19007 33.4037 7.59047 31.8933C7.99086 30.3828 8.96473 29.0882 10.3049 28.2847C11.6389 27.4842 13.2015 27.1529 14.7456 27.3425C16.2896 27.5321 17.7269 28.233 18.8276 29.3324L19.3333 29.8382ZM32.568 7.48557C32.8106 7.38506 33.0707 7.33333 33.3333 7.33333C33.596 7.33333 33.856 7.38506 34.0987 7.48557C34.3414 7.58608 34.5618 7.7334 34.7475 7.91911C34.9333 8.10483 35.0806 8.32531 35.1811 8.56796C35.2816 8.81061 35.3333 9.07068 35.3333 9.33333V32C35.3333 33.1046 36.2288 34 37.3333 34C38.4379 34 39.3333 33.1046 39.3333 32V14.6667C39.3333 14.1362 39.544 13.6275 39.9191 13.2524C40.2942 12.8774 40.8029 12.6667 41.3333 12.6667C41.8638 12.6667 42.3725 12.8774 42.7475 13.2524C43.1226 13.6275 43.3333 14.1362 43.3333 14.6667V32C43.3333 33.1046 44.2288 34 45.3333 34C46.4379 34 47.3333 33.1046 47.3333 32L47.3333 20C47.3333 19.4696 47.544 18.9608 47.9192 18.5858C48.2941 18.2107 48.8029 18 49.3333 18C49.8637 18 50.3725 18.2107 50.7475 18.5858C51.1227 18.9608 51.3333 19.4696 51.3333 20V42.6667C51.3333 46.3797 49.8584 49.9405 47.2328 52.5661C44.6072 55.1917 41.0464 56.6667 37.3333 56.6667H32.5515C30.234 56.6664 27.9525 56.0912 25.9122 54.992C23.871 53.8923 22.1349 52.3029 20.8597 50.3667C20.6866 50.1032 20.5155 49.8413 20.3438 49.5771C19.5575 48.3696 16.6797 43.3571 11.6471 34.4114C11.3917 33.9574 11.3235 33.4217 11.4569 32.9182C11.5904 32.4147 11.915 31.9832 12.3617 31.7153C12.9311 31.3737 13.5989 31.2317 14.258 31.3127C14.9171 31.3936 15.5301 31.6924 15.9999 32.1617L19.915 36.0768C19.928 36.0898 19.9411 36.1027 19.9544 36.1153C20.1352 36.2876 20.3403 36.4194 20.5583 36.511C20.7967 36.6112 21.0585 36.6667 21.3333 36.6667C22.4379 36.6667 23.3333 35.7712 23.3333 34.6667V14.6667C23.3333 14.1362 23.544 13.6275 23.9191 13.2524C24.2942 12.8774 24.8029 12.6667 25.3333 12.6667C25.8638 12.6667 26.3725 12.8774 26.7475 13.2524C27.1226 13.6275 27.3333 14.1362 27.3333 14.6667V32C27.3333 33.1046 28.2288 34 29.3333 34C30.4379 34 31.3333 33.1046 31.3333 32V9.33333C31.3333 9.07068 31.3851 8.81061 31.4856 8.56796C31.5861 8.32531 31.7334 8.10483 31.9191 7.91911C32.1048 7.7334 32.3253 7.58608 32.568 7.48557Z" fill="#18202A"/>
</svg>
