<svg width="64" height="64" viewBox="0 0 64 64" fill="none" xmlns="http://www.w3.org/2000/svg">
<path fill-rule="evenodd" clip-rule="evenodd" d="M32 7.3335C22.7907 7.3335 14.7573 12.3794 10.5184 19.8669L7.0375 17.8962C11.9575 9.20581 21.2917 3.3335 32 3.3335C47.8321 3.3335 60.6666 16.168 60.6666 32.0002C60.6666 47.8323 47.8321 60.6668 32 60.6668C16.1678 60.6668 3.33331 47.8323 3.33331 32.0002C3.33331 30.5261 3.44474 29.077 3.65987 27.661C3.82578 26.5689 4.9029 25.8919 5.98065 26.1339C7.05839 26.3758 7.72746 27.4452 7.57398 28.539C7.41541 29.6692 7.33331 30.8246 7.33331 32.0002C7.33331 45.6232 18.377 56.6668 32 56.6668C45.623 56.6668 56.6666 45.6232 56.6666 32.0002C56.6666 18.3771 45.623 7.3335 32 7.3335Z" fill="#18202A"/>
<path fill-rule="evenodd" clip-rule="evenodd" d="M6.65057 7.88146C7.73836 7.68965 8.77567 8.41599 8.96748 9.50378L10.2574 16.819L17.5726 15.5291C18.6604 15.3373 19.6977 16.0637 19.8895 17.1515C20.0813 18.2393 19.355 19.2766 18.2672 19.4684L8.98233 21.1055C7.89454 21.2974 6.85723 20.571 6.66542 19.4832L5.02825 10.1984C4.83644 9.11058 5.56278 8.07326 6.65057 7.88146Z" fill="#18202A"/>
<path d="M30 15.3335C30 14.2289 30.8954 13.3335 32 13.3335C33.1045 13.3335 34 14.2289 34 15.3335V32.0002C34 33.1047 33.1045 34.0002 32 34.0002C30.8954 34.0002 30 33.1047 30 32.0002V15.3335Z" fill="#18202A"/>
<path d="M46 30.0002C47.1045 30.0002 48 30.8956 48 32.0002C48 33.1047 47.1045 34.0002 46 34.0002H32C30.8954 34.0002 30 33.1047 30 32.0002C30 30.8956 30.8954 30.0002 32 30.0002H46Z" fill="#18202A"/>
</svg>
