<svg width="64" height="64" viewBox="0 0 64 64" fill="none" xmlns="http://www.w3.org/2000/svg">
<path d="M18.6667 7.33329C18.6667 6.54347 18.2019 5.82762 17.4804 5.50629C16.7589 5.18496 15.9158 5.31834 15.3288 5.8467L8.66209 11.8467C7.84107 12.5856 7.77451 13.8502 8.51343 14.6712C9.25235 15.4922 10.5169 15.5588 11.3379 14.8199L14.6667 11.824V24.6669C14.6667 25.7715 15.5621 26.6669 16.6667 26.6669C17.7713 26.6669 18.6667 25.7715 18.6667 24.6669V7.33329Z" fill="#18202A"/>
<path d="M12.0001 38.6666C12.0001 37.9314 12.9373 35.9999 16.0001 35.9999C19.0629 35.9999 20.0001 37.9314 20.0001 38.6666C20.0001 41.0418 18.7005 42.471 15.9192 45.2524L8.58584 52.5857C8.01385 53.1577 7.84274 54.0179 8.1523 54.7653C8.46186 55.5126 9.19113 55.9999 10.0001 55.9999H22.0001C23.1046 55.9999 24.0001 55.1045 24.0001 53.9999C24.0001 52.8954 23.1046 51.9999 22.0001 51.9999H14.8285L18.9659 47.8627C21.4512 45.381 24.0001 42.8358 24.0001 38.6666C24.0001 35.4018 20.9373 31.9999 16.0001 31.9999C11.0629 31.9999 8.00006 35.4018 8.00006 38.6666C8.00006 39.7712 8.89549 40.6666 10.0001 40.6666C11.1046 40.6666 12.0001 39.7712 12.0001 38.6666Z" fill="#18202A"/>
<path d="M29.3333 12.6666C29.3333 11.562 30.2288 10.6666 31.3333 10.6666H56.6667C57.7712 10.6666 58.6667 11.562 58.6667 12.6666C58.6667 13.7712 57.7712 14.6666 56.6667 14.6666H31.3333C30.2288 14.6666 29.3333 13.7712 29.3333 12.6666Z" fill="#18202A"/>
<path d="M31.3333 19.9999C30.2288 19.9999 29.3333 20.8953 29.3333 21.9999C29.3333 23.1045 30.2288 23.9999 31.3333 23.9999H56.6667C57.7712 23.9999 58.6667 23.1045 58.6667 21.9999C58.6667 20.8953 57.7712 19.9999 56.6667 19.9999H31.3333Z" fill="#18202A"/>
<path d="M29.3333 41.9999C29.3333 40.8954 30.2288 39.9999 31.3333 39.9999H56.6667C57.7712 39.9999 58.6667 40.8954 58.6667 41.9999C58.6667 43.1045 57.7712 43.9999 56.6667 43.9999H31.3333C30.2288 43.9999 29.3333 43.1045 29.3333 41.9999Z" fill="#18202A"/>
<path d="M31.3333 49.3333C30.2288 49.3333 29.3333 50.2287 29.3333 51.3333C29.3333 52.4378 30.2288 53.3333 31.3333 53.3333H56.6667C57.7712 53.3333 58.6667 52.4378 58.6667 51.3333C58.6667 50.2287 57.7712 49.3333 56.6667 49.3333H31.3333Z" fill="#18202A"/>
</svg>
