<svg width="64" height="64" viewBox="0 0 64 64" fill="none" xmlns="http://www.w3.org/2000/svg">
<path d="M37.3333 37.3337C37.3333 39.3077 36.2608 41.0313 34.6666 41.9535V48.0003C34.6666 49.4731 33.4727 50.667 32 50.667C30.5272 50.667 29.3333 49.4731 29.3333 48.0003V41.9535C27.7392 41.0313 26.6666 39.3077 26.6666 37.3337C26.6666 34.3881 29.0545 32.0003 32 32.0003C34.9455 32.0003 37.3333 34.3881 37.3333 37.3337Z" fill="#18202A"/>
<path fill-rule="evenodd" clip-rule="evenodd" d="M58.6666 32.0003C58.6666 26.1093 53.891 21.3337 48 21.3337V18.667C48 9.83044 40.8365 2.66699 32 2.66699C23.1634 2.66699 16 9.83044 16 18.667V21.3337C10.1089 21.3337 5.33331 26.1093 5.33331 32.0003V50.667C5.33331 56.558 10.1089 61.3337 16 61.3337H48C53.891 61.3337 58.6666 56.558 58.6666 50.667V32.0003ZM32 6.66699C38.6274 6.66699 44 12.0396 44 18.667V21.3337H20V18.667C20 12.0396 25.3726 6.66699 32 6.66699ZM9.33331 32.0003C9.33331 28.3184 12.3181 25.3337 16 25.3337H48C51.6819 25.3337 54.6666 28.3184 54.6666 32.0003V50.667C54.6666 54.3489 51.6819 57.3337 48 57.3337H16C12.3181 57.3337 9.33331 54.3489 9.33331 50.667V32.0003Z" fill="#18202A"/>
</svg>
