<svg width="64" height="64" viewBox="0 0 64 64" fill="none" xmlns="http://www.w3.org/2000/svg">
<g clip-path="url(#clip0_3750_8831)">
<path d="M22.3543 11.8405C22.4868 11.7473 22.6693 11.8421 22.6693 12.0041V44.7551C22.6693 44.8203 22.6376 44.8813 22.5844 44.9187L11.1502 52.9615C9.90295 53.8383 8.21298 53.0502 8.01847 51.6039L8 51.3253V22.9719C8 22.4137 8.23294 21.8855 8.63499 21.5101L8.84981 21.3357L22.3543 11.8405ZM55.9878 12.3918L56.0062 12.6705V41.0239C56.0062 41.5821 55.7733 42.1103 55.3713 42.4857L55.1564 42.6601L41.651 52.1497C41.5185 52.2428 41.336 52.148 41.336 51.986V19.2322C41.336 19.1671 41.3677 19.106 41.421 19.0686L52.856 11.0343C54.1033 10.1575 55.7933 10.9456 55.9878 12.3918ZM26.6693 12.0067C26.6693 11.8447 26.8518 11.75 26.9844 11.8431L37.251 19.0606C37.3043 19.098 37.336 19.1591 37.336 19.2242V51.9804C37.336 52.1424 37.1534 52.2372 37.0209 52.144L26.7543 44.9214C26.701 44.8839 26.6693 44.8229 26.6693 44.7578V12.0067Z" fill="#18202A"/>
</g>
<defs>
<clipPath id="clip0_3750_8831">
<rect width="64" height="64" fill="white"/>
</clipPath>
</defs>
</svg>
