<svg width="64" height="64" viewBox="0 0 64 64" fill="none" xmlns="http://www.w3.org/2000/svg">
<path fill-rule="evenodd" clip-rule="evenodd" d="M26.7475 16.0807C27.5286 15.2997 27.5286 14.0333 26.7475 13.2523C25.9665 12.4712 24.7002 12.4712 23.9191 13.2523L6.58579 30.5856C5.80474 31.3667 5.80474 32.633 6.58579 33.4141L23.9191 50.7474C24.7002 51.5284 25.9665 51.5284 26.7475 50.7474C27.5286 49.9663 27.5286 48.7 26.7475 47.919L10.8284 31.9998L26.7475 16.0807ZM37.2525 16.0807C36.4714 15.2997 36.4714 14.0333 37.2525 13.2523C38.0335 12.4712 39.2998 12.4712 40.0809 13.2523L57.4142 30.5856C58.1953 31.3667 58.1953 32.633 57.4142 33.4141L40.0809 50.7474C39.2998 51.5284 38.0335 51.5284 37.2525 50.7474C36.4714 49.9663 36.4714 48.7 37.2525 47.919L53.1716 31.9998L37.2525 16.0807Z" fill="#18202A"/>
</svg>
