<svg width="64" height="64" viewBox="0 0 64 64" fill="none" xmlns="http://www.w3.org/2000/svg">
<path fill-rule="evenodd" clip-rule="evenodd" d="M32.0002 17.8855C33.0416 16.8441 33.0416 15.1557 32.0002 14.1143C30.9588 13.0729 29.2703 13.0729 28.2289 14.1143L12.2289 30.1143C11.1875 31.1557 11.1875 32.8441 12.2289 33.8855L28.2289 49.8855C29.2703 50.9269 30.9588 50.9269 32.0002 49.8855C33.0416 48.8441 33.0416 47.1557 32.0002 46.1143L17.8858 31.9999L32.0002 17.8855ZM51.7714 17.8855C52.8128 16.8441 52.8128 15.1557 51.7714 14.1143C50.73 13.0729 49.0416 13.0729 48.0002 14.1143L32.0002 30.1143C30.9588 31.1557 30.9588 32.8441 32.0002 33.8855L48.0002 49.8855C49.0416 50.9269 50.73 50.9269 51.7714 49.8855C52.8128 48.8441 52.8128 47.1557 51.7714 46.1143L37.657 31.9999L51.7714 17.8855Z" fill="#18202A"/>
</svg>
