<svg width="64" height="64" viewBox="0 0 64 64" fill="none" xmlns="http://www.w3.org/2000/svg">
<path fill-rule="evenodd" clip-rule="evenodd" d="M32 61.3334C15.7997 61.3334 2.66667 48.2004 2.66667 32C2.66667 15.7997 15.7997 2.66669 32 2.66669C48.2004 2.66669 61.3333 15.7997 61.3333 32C61.3333 48.2004 48.2004 61.3334 32 61.3334ZM27.4477 19.4477C28.4891 18.4063 30.1776 18.4063 31.219 19.4477C32.2604 20.4891 32.2604 22.1776 31.219 23.219L25.1046 29.3334H45.3333C46.8061 29.3334 48 30.5273 48 32C48 33.4728 46.8061 34.6667 45.3333 34.6667H25.1046L31.219 40.7811C32.2604 41.8225 32.2604 43.5109 31.219 44.5523C30.1776 45.5937 28.4891 45.5937 27.4477 44.5523L16.7811 33.8856C15.7396 32.8442 15.7396 31.1558 16.7811 30.1144L27.4477 19.4477Z" fill="#18202A"/>
</svg>
