<svg width="64" height="64" viewBox="0 0 64 64" fill="none" xmlns="http://www.w3.org/2000/svg">
<path d="M26.6667 8C18.3136 8 13.3334 14.7504 13.3334 21.3333C13.3334 22.2249 13.4247 23.1195 13.6034 24H19.1059C18.817 23.1472 18.6667 22.2444 18.6667 21.3333C18.6667 17.2496 21.6865 13.3333 26.6667 13.3333H37.3334C39.6045 13.3333 41.7231 13.9092 43.1875 14.8855C44.5729 15.8091 45.3334 17.0344 45.3334 18.6667C45.3334 20.1394 46.5273 21.3333 48 21.3333C49.4728 21.3333 50.6667 20.1394 50.6667 18.6667C50.6667 14.9656 48.7605 12.1909 46.1459 10.4479C43.6103 8.75749 40.3956 8 37.3334 8H26.6667Z" fill="#18202A"/>
<path d="M5.33337 32C5.33337 30.5272 6.52728 29.3333 8.00004 29.3333H56C57.4728 29.3333 58.6667 30.5272 58.6667 32C58.6667 33.4728 57.4728 34.6667 56 34.6667H50.616C52.375 36.8315 53.3334 39.5592 53.3334 42.6667C53.3334 46.8438 51.5156 50.2839 48.4976 52.6116C45.5447 54.8891 41.5932 56 37.3334 56H24C15.6469 56 10.6667 49.2496 10.6667 42.6667C10.6667 41.1939 11.8606 40 13.3334 40C14.8061 40 16 41.1939 16 42.6667C16 46.7504 19.0198 50.6667 24 50.6667H37.3334C40.7241 50.6667 43.4393 49.7776 45.2404 48.3884C46.9764 47.0495 48 45.1562 48 42.6667C48 40.1198 47.0178 38.2386 45.3525 36.9302C43.6166 35.5663 40.9214 34.6667 37.3334 34.6667H8.00004C6.52728 34.6667 5.33337 33.4728 5.33337 32Z" fill="#18202A"/>
</svg>
