<svg width="64" height="64" viewBox="0 0 64 64" fill="none" xmlns="http://www.w3.org/2000/svg">
<path fill-rule="evenodd" clip-rule="evenodd" d="M12 4H20V13.5128C19.5914 13.719 19.1888 13.9355 18.7926 14.1618L12 8.93233V4ZM15.3134 16.5314L9.03989 11.7015C8.38417 11.1967 7.99998 10.4161 7.99998 9.58853V2.66667C7.99998 1.19391 9.19389 0 10.6666 0H53.3333C54.8061 0 56 1.19391 56 2.66667V9.58853C56 10.4161 55.6158 11.1967 54.9601 11.7015L48.6865 16.5314C54.7715 21.4188 58.6666 28.9212 58.6666 37.3333C58.6666 52.0609 46.7276 64 32 64C17.2724 64 5.33331 52.0609 5.33331 37.3333C5.33331 28.9212 9.22841 21.4188 15.3134 16.5314ZM45.2074 14.1618L52 8.93233V4H44V13.5128C44.4086 13.719 44.8112 13.9355 45.2074 14.1618ZM36 10.9647V4H28V10.9647C29.3048 10.7684 30.6405 10.6667 32 10.6667C33.3595 10.6667 34.6952 10.7684 36 10.9647ZM54.6666 37.3333C54.6666 49.8518 44.5184 60 32 60C19.4815 60 9.33331 49.8518 9.33331 37.3333C9.33331 24.8149 19.4815 14.6667 32 14.6667C44.5184 14.6667 54.6666 24.8149 54.6666 37.3333ZM32 52C40.1002 52 46.6666 45.4335 46.6666 37.3333C46.6666 29.2332 40.1002 22.6667 32 22.6667C23.8998 22.6667 17.3333 29.2332 17.3333 37.3333C17.3333 45.4335 23.8998 52 32 52ZM32 56C42.3093 56 50.6666 47.6426 50.6666 37.3333C50.6666 27.024 42.3093 18.6667 32 18.6667C21.6907 18.6667 13.3333 27.024 13.3333 37.3333C13.3333 47.6426 21.6907 56 32 56ZM35.0012 32.5433L32.7695 27.841C32.4483 27.1641 31.5517 27.1641 31.2304 27.841L28.9987 32.5433C28.8705 32.8135 28.6284 32.9995 28.3498 33.0418L23.4115 33.7925C22.6928 33.9018 22.4112 34.8603 22.9404 35.3964L26.4711 38.973C26.6841 39.1888 26.7817 39.5061 26.7305 39.8165L25.892 44.9017C25.767 45.6593 26.498 46.2451 27.134 45.8972L31.6091 43.4496C31.8548 43.3152 32.1452 43.3152 32.3909 43.4496L36.8659 45.8972C37.502 46.2451 38.2329 45.6593 38.108 44.9017L37.2694 39.8165C37.2182 39.5061 37.3158 39.1888 37.5289 38.973L41.0596 35.3964C41.5887 34.8603 41.3071 33.9018 40.5884 33.7925L35.6501 33.0418C35.3715 32.9995 35.1295 32.8135 35.0012 32.5433Z" fill="#18202A"/>
</svg>
