<svg width="64" height="64" viewBox="0 0 64 64" fill="none" xmlns="http://www.w3.org/2000/svg">
<path fill-rule="evenodd" clip-rule="evenodd" d="M2.66667 13.3337C2.66667 7.44262 7.4423 2.66699 13.3333 2.66699H40C43.9482 2.66699 47.3953 4.81205 49.2397 8.00033H18.6667C12.7756 8.00033 8 12.776 8 18.667V49.24C4.81173 47.3957 2.66667 43.9485 2.66667 40.0003V13.3337ZM24 13.3337C18.109 13.3337 13.3333 18.1093 13.3333 24.0003V50.667C13.3333 56.558 18.109 61.3337 24 61.3337H50.6667C56.5577 61.3337 61.3333 56.558 61.3333 50.667V24.0003C61.3333 18.1093 56.5577 13.3337 50.6667 13.3337H24Z" fill="#18202A"/>
</svg>
