<svg width="64" height="64" viewBox="0 0 64 64" fill="none" xmlns="http://www.w3.org/2000/svg">
<path d="M21.3333 10C15.0741 10 10 15.0741 10 21.3333C10 25.9776 12.7938 29.9738 16.8007 31.7245C17.8129 32.1667 18.2749 33.3458 17.8327 34.358C17.3905 35.3701 16.2114 35.8322 15.1993 35.3899C9.788 33.0256 6 27.6241 6 21.3333C6 12.865 12.865 6 21.3333 6C27.6241 6 33.0256 9.788 35.3899 15.1993C35.8322 16.2114 35.3701 17.3905 34.358 17.8327C33.3458 18.2749 32.1668 17.8129 31.7245 16.8007C29.9738 12.7938 25.9776 10 21.3333 10Z" fill="#18202A"/>
<path fill-rule="evenodd" clip-rule="evenodd" d="M19.4611 23.6482C18.6409 21.0706 21.0706 18.6409 23.6482 19.4611L49.0928 27.5571C51.7563 28.4046 52.2567 31.9566 49.9311 33.507L45.1059 36.7239L54.3782 45.9962C55.6799 47.2979 55.6799 49.4085 54.3782 50.7102L50.7102 54.3782C49.4085 55.6799 47.2979 55.6799 45.9962 54.3782L36.7239 45.1059L33.507 49.9311C31.9566 52.2567 28.4046 51.7563 27.5571 49.0928L19.4611 23.6482ZM23.6636 23.6636L30.9482 46.5582L34.7489 40.8572C35.0813 40.3586 35.6197 40.0354 36.2159 39.9763C36.8122 39.9173 37.4035 40.1287 37.8272 40.5524L48.3532 51.0783L51.0784 48.3532L40.5524 37.8272C40.1287 37.4035 39.9173 36.8122 39.9763 36.2159C40.0354 35.6197 40.3586 35.0813 40.8572 34.7489L46.5582 30.9482L23.6636 23.6636Z" fill="#18202A"/>
</svg>
