<svg width="64" height="64" viewBox="0 0 64 64" fill="none" xmlns="http://www.w3.org/2000/svg">
<path fill-rule="evenodd" clip-rule="evenodd" d="M13.3333 8C7.4423 8 2.66667 12.7756 2.66667 18.6667V24H61.3333C61.3333 18.109 56.5577 13.3333 50.6667 13.3333H32L29.0098 10.3431C27.5095 8.84286 25.4747 8 23.353 8H13.3333ZM2.66667 26.6667V45.3333C2.66667 51.2244 7.4423 56 13.3333 56H32.773C32.2701 54.3101 32 52.5199 32 50.6667C32 40.3573 40.3574 32 50.6667 32C54.6327 32 58.3098 33.2368 61.3333 35.3458V26.6667H2.66667ZM64 50.6667C64 58.0305 58.0305 64 50.6667 64C43.3029 64 37.3333 58.0305 37.3333 50.6667C37.3333 43.3029 43.3029 37.3333 50.6667 37.3333C58.0305 37.3333 64 43.3029 64 50.6667ZM42.6667 50C42.6667 48.8954 43.5621 48 44.6667 48H56.6667C57.7712 48 58.6667 48.8954 58.6667 50V51.3333C58.6667 52.4379 57.7712 53.3333 56.6667 53.3333H44.6667C43.5621 53.3333 42.6667 52.4379 42.6667 51.3333V50Z" fill="#18202A"/>
</svg>
