<svg width="64" height="64" viewBox="0 0 64 64" fill="none" xmlns="http://www.w3.org/2000/svg">
<g clip-path="url(#clip0_2533_8398)">
<path d="M31.9998 32.0001C37.3331 32.0001 39.9998 26.6667 39.9998 20.0001C39.9998 14.6667 37.3331 10.6667 31.9998 10.6667C26.6664 10.6667 23.9998 14.6667 23.9998 20.0001C23.9998 26.6667 26.6664 32.0001 31.9998 32.0001Z" fill="#18202A"/>
<path d="M35.2306 58.5597C34.0177 56.1924 33.3333 53.5095 33.3333 50.6667C33.3333 44.7269 36.3211 39.4849 40.8758 36.3615C38.1302 35.268 35.1352 34.6667 31.9997 34.6667C27.2421 34.6667 22.8078 36.0511 19.0777 38.4389C15.5851 40.6748 14.4165 45.13 15.8127 49.0348C16.2211 50.1768 16.6767 51.2963 17.1773 52.3909C18.5958 55.493 21.5083 57.6412 24.8823 58.1427C27.2047 58.4879 29.5813 58.6668 31.9997 58.6668C33.0855 58.6668 34.1628 58.6307 35.2306 58.5597Z" fill="#18202A"/>
<path d="M13.3331 32.0001C16.8886 32.0001 18.6664 28.6667 18.6664 24.5001C18.6664 21.1667 16.8886 18.6667 13.3331 18.6667C9.77753 18.6667 7.99976 21.1667 7.99976 24.5001C7.99976 28.6667 9.77753 32.0001 13.3331 32.0001Z" fill="#18202A"/>
<path d="M50.6664 32.0001C54.222 32.0001 55.9998 28.6667 55.9998 24.5001C55.9998 21.1667 54.222 18.6667 50.6664 18.6667C47.1109 18.6667 45.3331 21.1667 45.3331 24.5001C45.3331 28.6667 47.1109 32.0001 50.6664 32.0001Z" fill="#18202A"/>
<path d="M10.7908 50.831C9.22416 46.4496 9.72238 41.3096 12.5289 37.4128C9.98316 37.6312 7.5651 38.2967 5.35362 39.3303C2.24146 40.785 0.985662 44.4589 2.03635 47.7296C2.95563 50.5913 5.45198 52.6016 8.43502 52.9699C9.52446 53.1044 10.6252 53.2023 11.736 53.2626C11.3997 52.4629 11.0844 51.6522 10.7908 50.831Z" fill="#18202A"/>
<path fill-rule="evenodd" clip-rule="evenodd" d="M50.6667 64.0001C58.0305 64.0001 64 58.0305 64 50.6668C64 43.303 58.0305 37.3334 50.6667 37.3334C43.3029 37.3334 37.3333 43.303 37.3333 50.6668C37.3333 58.0305 43.3029 64.0001 50.6667 64.0001ZM52.6667 44.6667C52.6667 43.5622 51.7712 42.6667 50.6667 42.6667C49.5621 42.6667 48.6667 43.5622 48.6667 44.6667V48.6667H44.6667C43.5621 48.6667 42.6667 49.5622 42.6667 50.6667C42.6667 51.7713 43.5621 52.6667 44.6667 52.6667H48.6667V56.6667C48.6667 57.7713 49.5621 58.6667 50.6667 58.6667C51.7712 58.6667 52.6667 57.7713 52.6667 56.6667V52.6667H56.6667C57.7712 52.6667 58.6667 51.7713 58.6667 50.6667C58.6667 49.5622 57.7712 48.6667 56.6667 48.6667H52.6667V44.6667Z" fill="#18202A"/>
</g>
<defs>
<clipPath id="clip0_2533_8398">
<rect width="64" height="64" fill="white"/>
</clipPath>
</defs>
</svg>
