<svg width="64" height="64" viewBox="0 0 64 64" fill="none" xmlns="http://www.w3.org/2000/svg">
<g clip-path="url(#clip0_3289_16923)">
<path d="M16.6666 5.3335C17.7712 5.3335 18.6666 6.22893 18.6666 7.3335V14.6668H26C27.1045 14.6668 28 15.5623 28 16.6668C28 17.7714 27.1045 18.6668 26 18.6668H18.6666V26.0002C18.6666 27.1047 17.7712 28.0002 16.6666 28.0002C15.5621 28.0002 14.6666 27.1047 14.6666 26.0002V18.6668H7.33331C6.22874 18.6668 5.33331 17.7714 5.33331 16.6668C5.33331 15.5623 6.22874 14.6668 7.33331 14.6668H14.6666V7.3335C14.6666 6.22893 15.5621 5.3335 16.6666 5.3335ZM38 14.6668C36.8954 14.6668 36 15.5623 36 16.6668C36 17.7714 36.8954 18.6668 38 18.6668H56.6666C57.7712 18.6668 58.6666 17.7714 58.6666 16.6668C58.6666 15.5623 57.7712 14.6668 56.6666 14.6668H38ZM36 47.3335C36 46.2289 36.8954 45.3335 38 45.3335H56.6666C57.7712 45.3335 58.6666 46.2289 58.6666 47.3335C58.6666 48.4381 57.7712 49.3335 56.6666 49.3335H38C36.8954 49.3335 36 48.4381 36 47.3335ZM47.3333 42.6668C48.8061 42.6668 50 41.4729 50 40.0002C50 38.5274 48.8061 37.3335 47.3333 37.3335C45.8605 37.3335 44.6666 38.5274 44.6666 40.0002C44.6666 41.4729 45.8605 42.6668 47.3333 42.6668ZM50 56.0002C50 57.4729 48.8061 58.6668 47.3333 58.6668C45.8605 58.6668 44.6666 57.4729 44.6666 56.0002C44.6666 54.5274 45.8605 53.3335 47.3333 53.3335C48.8061 53.3335 50 54.5274 50 56.0002ZM5.9191 38.081C5.13805 37.3 5.13805 36.0337 5.9191 35.2526C6.70015 34.4716 7.96648 34.4716 8.74753 35.2526L16.6666 43.1717L24.5858 35.2526C25.3668 34.4716 26.6331 34.4716 27.4142 35.2526C28.1952 36.0337 28.1952 37.3 27.4142 38.081L19.4951 46.0002L27.4142 53.9193C28.1952 54.7003 28.1952 55.9667 27.4142 56.7477C26.6331 57.5288 25.3668 57.5288 24.5858 56.7477L16.6666 48.8286L8.74753 56.7477C7.96648 57.5288 6.70015 57.5288 5.9191 56.7477C5.13805 55.9667 5.13805 54.7003 5.9191 53.9193L13.8382 46.0002L5.9191 38.081Z" fill="#18202A"/>
</g>
<defs>
<clipPath id="clip0_3289_16923">
<rect width="64" height="64" fill="white"/>
</clipPath>
</defs>
</svg>
