<svg width="64" height="64" viewBox="0 0 64 64" fill="none" xmlns="http://www.w3.org/2000/svg">
<path d="M24.6667 6.6665C25.7713 6.6665 26.6667 7.56193 26.6667 8.6665V19.3332C26.6667 23.3833 23.3834 26.6665 19.3334 26.6665H8.66669C7.56212 26.6665 6.66669 25.7711 6.66669 24.6665C6.66669 23.5619 7.56212 22.6665 8.66669 22.6665H19.3334C21.1743 22.6665 22.6667 21.1741 22.6667 19.3332V8.6665C22.6667 7.56193 23.5621 6.6665 24.6667 6.6665Z" fill="#18202A"/>
<path d="M6.66669 39.3332C6.66669 38.2286 7.56212 37.3332 8.66669 37.3332H19.3334C23.3834 37.3332 26.6667 40.6164 26.6667 44.6665V55.3332C26.6667 56.4377 25.7713 57.3332 24.6667 57.3332C23.5621 57.3332 22.6667 56.4377 22.6667 55.3332V44.6665C22.6667 42.8256 21.1743 41.3332 19.3334 41.3332H8.66669C7.56212 41.3332 6.66669 40.4377 6.66669 39.3332Z" fill="#18202A"/>
<path d="M57.3334 24.6665C57.3334 25.7711 56.4379 26.6665 55.3334 26.6665H44.6667C40.6166 26.6665 37.3334 23.3833 37.3334 19.3332V8.6665C37.3334 7.56193 38.2288 6.6665 39.3334 6.6665C40.4379 6.6665 41.3334 7.56193 41.3334 8.6665V19.3332C41.3334 21.1741 42.8257 22.6665 44.6667 22.6665H55.3334C56.4379 22.6665 57.3334 23.5619 57.3334 24.6665Z" fill="#18202A"/>
<path d="M39.3334 57.3332C38.2288 57.3332 37.3334 56.4377 37.3334 55.3332L37.3334 44.2562C37.3334 40.4327 40.4329 37.3332 44.2564 37.3332H55.3334C56.4379 37.3332 57.3334 38.2286 57.3334 39.3332C57.3334 40.4377 56.4379 41.3332 55.3334 41.3332H44.2564C42.6421 41.3332 41.3334 42.6419 41.3334 44.2562L41.3334 55.3332C41.3334 56.4377 40.4379 57.3332 39.3334 57.3332Z" fill="#18202A"/>
</svg>
