<svg width="64" height="64" viewBox="0 0 64 64" fill="none" xmlns="http://www.w3.org/2000/svg">
<path fill-rule="evenodd" clip-rule="evenodd" d="M21.3333 10.6667C19.8605 10.6667 18.6666 11.8607 18.6666 13.3334V50.6667C18.6666 52.1395 19.8605 53.3334 21.3333 53.3334H38.6666C45.294 53.3334 50.6666 47.9608 50.6666 41.3334C50.6666 36.1534 47.3845 31.74 42.7865 30.0593C44.3821 28.0218 45.3333 25.4554 45.3333 22.6667C45.3333 16.0393 39.9607 10.6667 33.3333 10.6667H21.3333ZM33.3333 29.3334C37.0152 29.3334 40 26.3486 40 22.6667C40 18.9848 37.0152 16.0001 33.3333 16.0001H24V29.3334H33.3333ZM45.3333 41.3334C45.3333 37.6515 42.3485 34.6667 38.6666 34.6667H24V48.0001H38.6666C42.3485 48.0001 45.3333 45.0153 45.3333 41.3334Z" fill="#18202A"/>
</svg>
