<svg width="64" height="64" viewBox="0 0 64 64" fill="none" xmlns="http://www.w3.org/2000/svg">
<path fill-rule="evenodd" clip-rule="evenodd" d="M42.6667 14.3337C42.6667 22.667 39.1111 29.3337 32 29.3337C24.8889 29.3337 21.3333 22.667 21.3333 14.3337C21.3333 7.66699 24.8889 2.66699 32 2.66699C39.1111 2.66699 42.6667 7.66699 42.6667 14.3337ZM47.821 39.865C43.3952 36.5981 37.9232 34.667 32.0001 34.667C25.3468 34.667 19.2626 37.1036 14.5911 41.1331C11.0318 44.2033 10.3225 49.364 12.4084 53.5763C12.4497 53.6595 12.4912 53.7427 12.533 53.8257C14.0419 56.8231 16.797 59.0006 20.0478 59.8337C23.0403 60.6006 26.1454 61.0863 29.3333 61.2608V45.667C29.3333 44.0101 30.6765 42.667 32.3333 42.667H46.6667C47.219 42.667 47.6667 42.2193 47.6667 41.667V41.3337C47.6667 40.8299 47.7199 40.3386 47.821 39.865ZM35.6667 48.0003C35.1144 48.0003 34.6667 48.448 34.6667 49.0003V63.0003C34.6667 63.5526 35.1144 64.0003 35.6667 64.0003H55C55.5523 64.0003 56 63.5526 56 63.0003V49.0003C56 48.448 55.5523 48.0003 55 48.0003L53.3333 48.0003V42.667C53.3333 41.1942 54.5272 40.0003 56 40.0003C57.4728 40.0003 58.6667 41.1942 58.6667 42.667V46.2225C58.6667 47.6953 59.8606 48.8892 61.3333 48.8892C62.8061 48.8892 64 47.6953 64 46.2225V42.667C64 38.2487 60.4183 34.667 56 34.667C51.5817 34.667 48 38.2487 48 42.667V48.0003L35.6667 48.0003ZM48 54.667C48 53.1942 46.8061 52.0003 45.3333 52.0003C43.8606 52.0003 42.6667 53.1942 42.6667 54.667V57.3337C42.6667 58.8064 43.8606 60.0003 45.3333 60.0003C46.8061 60.0003 48 58.8064 48 57.3337V54.667Z" fill="#18202A"/>
</svg>
