<svg width="64" height="64" viewBox="0 0 64 64" fill="none" xmlns="http://www.w3.org/2000/svg">
<path fill-rule="evenodd" clip-rule="evenodd" d="M42.7269 17.2321C43.5192 18.0017 43.5376 19.2679 42.7679 20.0602L16.8632 46.7269C16.4768 47.1246 15.9427 47.344 15.3884 47.3329C14.834 47.3217 14.3092 47.0809 13.9391 46.668L5.17724 36.8902C4.44009 36.0676 4.50937 34.8032 5.33199 34.066C6.1546 33.3289 7.41903 33.3982 8.15618 34.2208L15.4876 42.4022L39.8988 17.2731C40.6685 16.4808 41.9347 16.4624 42.7269 17.2321Z" fill="#18202A"/>
<path fill-rule="evenodd" clip-rule="evenodd" d="M58.727 17.2321C59.5192 18.0017 59.5376 19.2679 58.7679 20.0602L32.8632 46.7269C32.467 47.1347 31.916 47.3546 31.3479 47.3317C30.7798 47.3087 30.2483 47.0451 29.8864 46.6067L27.04 43.1593C26.3368 42.3075 26.4572 41.0469 27.309 40.3436C28.1607 39.6404 29.4213 39.7608 30.1246 40.6126L31.5496 42.3385L55.8988 17.2731C56.6685 16.4808 57.9347 16.4624 58.727 17.2321Z" fill="#18202A"/>
</svg>
