<svg width="64" height="64" viewBox="0 0 64 64" fill="none" xmlns="http://www.w3.org/2000/svg">
<path fill-rule="evenodd" clip-rule="evenodd" d="M2.66667 13.3337C2.66667 7.44262 7.4423 2.66699 13.3333 2.66699H50.6667C56.5577 2.66699 61.3333 7.44262 61.3333 13.3337V50.667C61.3333 56.558 56.5577 61.3337 50.6667 61.3337H13.3333C7.4423 61.3337 2.66667 56.558 2.66667 50.667V13.3337ZM32 29.3337C35.5556 29.3337 37.3333 26.0003 37.3333 21.8337C37.3333 18.5003 35.5556 16.0003 32 16.0003C28.4444 16.0003 26.6667 18.5003 26.6667 21.8337C26.6667 26.0003 28.4444 29.3337 32 29.3337ZM17.3333 29.3337C20 29.3337 21.3333 26.667 21.3333 23.3337C21.3333 20.667 20 18.667 17.3333 18.667C14.6667 18.667 13.3333 20.667 13.3333 23.3337C13.3333 26.667 14.6667 29.3337 17.3333 29.3337ZM50.6667 23.3337C50.6667 26.667 49.3333 29.3337 46.6667 29.3337C44 29.3337 42.6667 26.667 42.6667 23.3337C42.6667 20.667 44 18.667 46.6667 18.667C49.3333 18.667 50.6667 20.667 50.6667 23.3337ZM21.6341 32.5808C21.8364 32.4404 22.0416 32.3041 22.2497 32.1718C21.3886 32.0249 20.5022 31.9482 19.597 31.9482C17.091 31.9482 14.7284 32.5357 12.6514 33.5745C10.8883 34.4563 10.1469 36.5228 10.7354 38.4043C10.8497 38.7696 10.9714 39.1319 11.1003 39.491C11.6617 41.0547 13.0566 42.1579 14.7022 42.3864C16.0979 42.5803 17.5212 42.6924 18.9667 42.7177C18.8756 42.4652 18.7876 42.2111 18.7028 41.9555C17.6142 38.6752 18.5055 34.7519 21.6341 32.5808ZM45.0374 42.7089C45.1274 42.4592 45.2143 42.208 45.2981 41.9554C46.3866 38.6752 45.4953 34.7519 42.3668 32.5809C42.1393 32.4231 41.9082 32.2703 41.6735 32.1227C42.4381 32.0079 43.2219 31.9482 44.0202 31.9482C46.7164 31.9482 49.2466 32.6282 51.4337 33.8188C53.1319 34.7432 53.8143 36.7782 53.2221 38.6187C53.1362 38.8856 53.0464 39.1508 52.9527 39.4142C52.4018 40.9631 51.033 42.0652 49.4081 42.3144C47.9792 42.5335 46.5203 42.6669 45.0374 42.7089ZM41.577 44.1216C40.713 45.9877 38.9704 47.2926 36.9401 47.6186C35.3308 47.8771 33.6809 48.0113 32.0003 48.0113C30.3198 48.0113 28.67 47.8771 27.0608 47.6187C25.0305 47.2926 23.2879 45.9878 22.4239 44.1218C21.9734 43.1487 21.5754 42.1454 21.2337 41.1156C20.4608 38.7865 21.1382 36.1707 23.1544 34.7717C25.6747 33.0228 28.7202 32.0003 32.0003 32.0003C35.2805 32.0003 38.3261 33.0228 40.8464 34.7717C42.8625 36.1708 43.5399 38.7865 42.7671 41.1156C42.4254 42.1453 42.0275 43.1485 41.577 44.1216Z" fill="#18202A"/>
</svg>
