<svg width="64" height="64" viewBox="0 0 64 64" fill="none" xmlns="http://www.w3.org/2000/svg">
<path fill-rule="evenodd" clip-rule="evenodd" d="M61.3333 31.9998C61.3333 48.2002 48.2004 61.3332 32 61.3332C15.7997 61.3332 2.66667 48.2002 2.66667 31.9998C2.66667 15.7995 15.7997 2.6665 32 2.6665C48.2004 2.6665 61.3333 15.7995 61.3333 31.9998ZM30.2735 17.1097C30.9717 15.6299 33.0283 15.6299 33.7265 17.1097L37.2422 24.5606L45.0296 25.7459C45.8761 25.8748 46.4034 26.5051 46.585 27.1264C46.7663 27.7463 46.6595 28.519 46.0997 29.0894L40.4446 34.8514L41.7888 43.0363C41.9107 43.7782 41.6152 44.4818 41.0834 44.9109C40.5411 45.3484 39.7293 45.5042 38.991 45.0986L32 41.2579L25.009 45.0986C24.2708 45.5042 23.459 45.3484 22.9167 44.9109C22.3848 44.4818 22.0894 43.7782 22.2112 43.0363L23.5555 34.8508L17.8993 29.0797C17.34 28.5089 17.2337 27.7361 17.4154 27.1163C17.5976 26.495 18.1255 25.8649 18.9723 25.7369L26.7583 24.5598L30.2735 17.1097Z" fill="#18202A"/>
</svg>
