<svg width="64" height="64" viewBox="0 0 64 64" fill="none" xmlns="http://www.w3.org/2000/svg">
<path d="M6.72117 31.1756V31.0387L6.71181 30.9021C5.85202 18.3545 17.7224 6.6665 32.0272 6.6665C46.2569 6.6665 57.3333 16.3209 57.3333 31.1756C57.3333 31.9807 57.2923 32.7806 57.2113 33.5724L60.2256 38.9009C60.9536 36.4279 61.3333 33.8306 61.3333 31.1756C61.3333 13.8665 48.2125 2.6665 32.0272 2.6665C15.8419 2.6665 1.67465 15.9029 2.72117 31.1756C2.72117 40.3017 6.36855 47.4465 12.1894 52.1624L12.7497 58.8857C12.9034 60.7305 14.8439 61.8612 16.5246 61.0855L23.7937 57.7305C24.746 57.956 25.7183 58.1414 26.708 58.2861C26.5841 56.9834 26.7355 55.6328 27.2091 54.3167C26.3595 54.1904 25.5276 54.0304 24.7152 53.8381L23.3714 53.52L16.5777 56.6555L16.0338 50.129L14.7074 49.0544C9.86348 45.13 6.72117 39.147 6.72117 31.1756Z" fill="#18202A"/>
<path fill-rule="evenodd" clip-rule="evenodd" d="M60.7929 61.3332H35.2071C32.7478 61.3332 31.2063 58.6244 32.4272 56.4481L45.2201 33.6437C46.4497 31.4519 49.5503 31.4519 50.7799 33.6437L63.5728 56.4481C64.7937 58.6244 63.2522 61.3332 60.7929 61.3332ZM48 39.9998C46.8954 39.9998 46 40.8953 46 41.9998V47.3332C46 48.4377 46.8954 49.3332 48 49.3332C49.1046 49.3332 50 48.4377 50 47.3332V41.9998C50 40.8953 49.1046 39.9998 48 39.9998ZM48 51.9998C46.8954 51.9998 46 52.8953 46 53.9998C46 55.1044 46.8954 55.9998 48 55.9998C49.1046 55.9998 50 55.1044 50 53.9998C50 52.8953 49.1046 51.9998 48 51.9998Z" fill="#18202A"/>
</svg>
