<svg width="64" height="64" viewBox="0 0 64 64" fill="none" xmlns="http://www.w3.org/2000/svg">
<path fill-rule="evenodd" clip-rule="evenodd" d="M53.3333 35.9998C53.3333 41.1545 49.1547 45.3332 44 45.3332C38.8453 45.3332 34.6667 41.1545 34.6667 35.9998C34.6667 30.8452 38.8453 26.6665 44 26.6665C49.1547 26.6665 53.3333 30.8452 53.3333 35.9998ZM44 30.6665C46.9455 30.6665 49.3333 33.0543 49.3333 35.9998C49.3333 38.9454 46.9455 41.3332 44 41.3332C41.0545 41.3332 38.6667 38.9454 38.6667 35.9998C38.6667 33.0543 41.0545 30.6665 44 30.6665Z" fill="#18202A"/>
<path fill-rule="evenodd" clip-rule="evenodd" d="M20 45.3332C25.1547 45.3332 29.3333 41.1545 29.3333 35.9998C29.3333 30.8452 25.1547 26.6665 20 26.6665C14.8453 26.6665 10.6667 30.8452 10.6667 35.9998C10.6667 41.1545 14.8453 45.3332 20 45.3332ZM25.3333 35.9998C25.3333 33.0543 22.9455 30.6665 20 30.6665C17.0545 30.6665 14.6667 33.0543 14.6667 35.9998C14.6667 38.9454 17.0545 41.3332 20 41.3332C22.9455 41.3332 25.3333 38.9454 25.3333 35.9998Z" fill="#18202A"/>
<path d="M28.6667 50.6665C27.5621 50.6665 26.6667 51.5619 26.6667 52.6665C26.6667 53.7711 27.5621 54.6665 28.6667 54.6665H35.3333C36.4379 54.6665 37.3333 53.7711 37.3333 52.6665C37.3333 51.5619 36.4379 50.6665 35.3333 50.6665H28.6667Z" fill="#18202A"/>
<path fill-rule="evenodd" clip-rule="evenodd" d="M37.3333 7.99984C37.3333 5.05432 34.9455 2.6665 32 2.6665C29.0545 2.6665 26.6667 5.05432 26.6667 7.99984C26.6667 10.2381 28.0454 12.1543 30 12.9455V15.9998H24C14.5961 15.9998 6.81632 22.9537 5.52237 31.9998H4C1.79086 31.9998 0 33.7907 0 35.9998V43.9998C0 46.209 1.79086 47.9998 4 47.9998H5.33333V50.6665C5.33333 56.5575 10.109 61.3332 16 61.3332H48C53.891 61.3332 58.6667 56.5575 58.6667 50.6665V47.9998H60C62.2091 47.9998 64 46.209 64 43.9998V35.9998C64 33.7907 62.2091 31.9998 60 31.9998H58.4776C57.1837 22.9537 49.4039 15.9998 40 15.9998H34V12.9455C35.9546 12.1543 37.3333 10.2381 37.3333 7.99984ZM40 19.9998C48.1002 19.9998 54.6667 26.5663 54.6667 34.6665V50.6665C54.6667 54.3484 51.6819 57.3332 48 57.3332H16C12.3181 57.3332 9.33333 54.3484 9.33333 50.6665V34.6665C9.33333 26.5663 15.8998 19.9998 24 19.9998H40Z" fill="#18202A"/>
</svg>
