<svg width="64" height="64" viewBox="0 0 64 64" fill="none" xmlns="http://www.w3.org/2000/svg">
<path d="M48 7.33325C48 8.43782 47.1045 9.33325 46 9.33325H16C12.3181 9.33325 9.33331 12.318 9.33331 15.9999V47.9999C9.33331 51.6818 12.3181 54.6666 16 54.6666H48C51.6819 54.6666 54.6666 51.6818 54.6666 47.9999V31.3333C54.6666 30.2287 55.5621 29.3333 56.6666 29.3333C57.7712 29.3333 58.6666 30.2287 58.6666 31.3333V47.9999C58.6666 53.891 53.891 58.6666 48 58.6666H16C10.1089 58.6666 5.33331 53.891 5.33331 47.9999V15.9999C5.33331 10.1089 10.1089 5.33325 16 5.33325H46C47.1045 5.33325 48 6.22868 48 7.33325Z" fill="#18202A"/>
<path d="M58.7475 16.0808C59.5286 15.2998 59.5286 14.0334 58.7475 13.2524C57.9665 12.4713 56.7001 12.4713 55.9191 13.2524L30.6666 38.5048L21.4142 29.2524C20.6331 28.4713 19.3668 28.4713 18.5858 29.2524C17.8047 30.0334 17.8047 31.2997 18.5858 32.0808L29.2524 42.7475C30.0335 43.5285 31.2998 43.5285 32.0809 42.7475L58.7475 16.0808Z" fill="#18202A"/>
</svg>
