<svg width="64" height="64" viewBox="0 0 64 64" fill="none" xmlns="http://www.w3.org/2000/svg">
<path fill-rule="evenodd" clip-rule="evenodd" d="M61.3333 31.9998C61.3333 37.1963 59.9821 42.0771 57.6119 46.3101L43.2721 31.9704L46.0997 29.0894C46.6595 28.519 46.7663 27.7463 46.585 27.1264C46.4034 26.5051 45.8761 25.8748 45.0296 25.7459L37.2422 24.5606L33.7265 17.1097C33.0283 15.6299 30.9717 15.6299 30.2735 17.1097L29.6766 18.3748L17.6897 6.38795C21.9228 4.01771 26.8036 2.6665 32 2.6665C48.2004 2.6665 61.3333 15.7995 61.3333 31.9998ZM9.45643 13.2309L3.62997 7.40439C2.45012 6.22455 2.33864 4.42312 3.38096 3.38079C4.42329 2.33847 6.22471 2.44995 7.40456 3.6298L60.37 56.5953C61.5499 57.7751 61.6614 59.5766 60.619 60.6189C59.5767 61.6612 57.7753 61.5497 56.5954 60.3699L50.769 54.5434C45.6826 58.7828 39.1391 61.3332 32 61.3332C15.7997 61.3332 2.66667 48.2002 2.66667 31.9998C2.66667 24.8607 5.21706 18.3172 9.45643 13.2309ZM41.1125 44.8869C41.1029 44.895 41.0932 44.903 41.0834 44.9109C40.5411 45.3484 39.7293 45.5042 38.991 45.0986L32 41.2579L25.009 45.0986C24.2708 45.5042 23.459 45.3484 22.9167 44.9109C22.3848 44.4818 22.0894 43.7782 22.2112 43.0363L23.5555 34.8508L17.8993 29.0797C17.34 28.5089 17.2337 27.7361 17.4154 27.1163C17.5976 26.495 18.1255 25.8649 18.9723 25.7369L21.5698 25.3442L41.1125 44.8869Z" fill="#18202A"/>
</svg>
