<svg width="64" height="64" viewBox="0 0 64 64" fill="none" xmlns="http://www.w3.org/2000/svg">
<g clip-path="url(#clip0_2359_20944)">
<path fill-rule="evenodd" clip-rule="evenodd" d="M64 32C64 34.2861 63.7603 36.5163 63.3046 38.6667H60.5723C58.0514 49.5133 49.5133 58.0512 38.6667 60.572L38.6667 63.3046C36.5163 63.7603 34.2861 64 32 64C29.7139 64 27.4837 63.7603 25.3333 63.3046L25.3333 60.572C14.4867 58.0512 5.94866 49.5133 3.42768 38.6667H0.695436C0.239735 36.5163 0 34.2861 0 32C0 29.7139 0.239735 27.4837 0.695436 25.3333H22.0207C21.7706 25.7069 21.541 26.0954 21.3333 26.4971C20.875 27.3837 20.5239 28.3349 20.2974 29.3333C20.1027 30.191 20 31.0835 20 32C20 32.1152 20.0016 32.23 20.0048 32.3444C20.009 32.4916 20.0158 32.6381 20.0252 32.784C20.4293 39.0457 25.6362 43.9995 32 43.9995C37.6992 43.9995 42.4705 40.0265 43.6952 34.6991C43.3646 36.1375 42.7754 37.4771 41.9793 38.6665H41.9794C42.2294 38.2929 42.4591 37.9046 42.6667 37.5029C43.125 36.6163 43.4761 35.6651 43.7026 34.6667C43.7635 34.3987 43.8153 34.1272 43.8578 33.8527C43.8621 33.8253 43.8663 33.7978 43.8703 33.7703C43.8788 33.713 43.8869 33.6554 43.8945 33.5978C43.9641 33.0751 44 32.5418 44 32C44 31.0835 43.8973 30.191 43.7026 29.3333C43.4761 28.3349 43.125 27.3837 42.6667 26.4971C42.459 26.0954 42.2294 25.7069 41.9793 25.3333H63.3046C63.7603 27.4837 64 29.7139 64 32ZM46.549 38.6667C44.9524 42.1451 42.1451 44.9523 38.6667 46.5488V56.4465C47.2992 54.098 54.0982 47.2992 56.4469 38.6667H46.549ZM38.6667 41.9793L38.6667 41.9791C36.7599 43.2555 34.4669 43.9998 32 43.9998C29.5331 43.9998 27.2401 43.2555 25.3333 41.9791L25.3333 41.9793C25.7069 42.2294 26.0954 42.459 26.4971 42.6667C27.3837 43.125 28.3349 43.4761 29.3333 43.7026C30.191 43.8972 31.0835 44 32 44C32.9165 44 33.809 43.8973 34.6667 43.7026C35.6651 43.4761 36.6162 43.125 37.5029 42.6667C37.9046 42.459 38.293 42.2294 38.6667 41.9793ZM25.3333 46.5487C21.8549 44.9523 19.0476 42.145 17.451 38.6667H7.55316C9.90187 47.2992 16.7008 54.098 25.3333 56.4465V46.5487ZM22.0206 38.6665C21.7706 38.2929 21.5409 37.9045 21.3333 37.5029C20.875 36.6163 20.5239 35.6651 20.2974 34.6667C20.2244 34.3451 20.1643 34.0185 20.1178 33.6877C20.3744 35.5109 21.0408 37.2025 22.0207 38.6665H22.0206ZM59.8749 34.6667H47.7782C47.9241 33.7988 48 32.9078 48 32C48 31.0922 47.9241 30.2012 47.7782 29.3333H59.8749C59.9576 30.2103 60 31.0998 60 32C60 32.9003 59.9576 33.7897 59.8749 34.6667ZM32 0C34.2861 0 36.5163 0.239735 38.6667 0.695436L38.6667 3.42708C49.5136 5.94794 58.0518 14.4862 60.5725 25.3332H56.4471C54.0986 16.7003 47.2995 9.90116 38.6667 7.55254V17.4503C42.1454 19.0469 44.9528 21.8544 46.5494 25.3332H41.9795C41.1031 24.0239 39.9759 22.8966 38.6667 22.0203L38.6667 22.0207C38.2931 21.7706 37.9046 21.541 37.5029 21.3333C36.6163 20.875 35.6651 20.5239 34.6667 20.2974C33.809 20.1027 32.9165 20 32 20C31.0835 20 30.191 20.1027 29.3333 20.2974C28.3349 20.5239 27.3837 20.875 26.4971 21.3333C26.0954 21.541 25.7069 21.7706 25.3333 22.0207L25.3333 22.0203C24.0241 22.8967 22.8969 24.0239 22.0205 25.3332H17.4507C19.0472 21.8544 21.8547 19.0469 25.3333 17.4503V7.55254C16.7005 9.90117 9.90147 16.7003 7.55295 25.3332H3.4275C5.94825 14.4862 14.4864 5.94795 25.3333 3.42709L25.3333 0.695436C27.4837 0.239735 29.7139 0 32 0ZM34.6667 4.12506V16.2218C33.7988 16.0759 32.9078 16 32 16C31.0922 16 30.2012 16.0759 29.3333 16.2218V4.12506C30.2103 4.04236 31.0998 4 32 4C32.9003 4 33.7897 4.04236 34.6667 4.12506ZM4.12506 29.3333H16.2218C16.0759 30.2012 16 31.0922 16 32C16 32.9078 16.0759 33.7988 16.2218 34.6667H4.12506C4.04236 33.7897 4 32.9003 4 32C4 31.0998 4.04236 30.2103 4.12506 29.3333ZM29.3333 59.8749V47.7782C30.2012 47.9241 31.0922 48 32 48C32.9078 48 33.7988 47.9241 34.6667 47.7782V59.8749C33.7897 59.9576 32.9003 60 32 60C31.0997 60 30.2103 59.9576 29.3333 59.8749ZM20 31.9995L20 31.9995V31.9998C20 31.9997 20 31.9996 20 31.9995Z" fill="#18202A"/>
</g>
<defs>
<clipPath id="clip0_2359_20944">
<rect width="64" height="64" fill="white"/>
</clipPath>
</defs>
</svg>
