<svg width="64" height="64" viewBox="0 0 64 64" fill="none" xmlns="http://www.w3.org/2000/svg">
<path fill-rule="evenodd" clip-rule="evenodd" d="M50.6667 6.66699H13.3334C9.65146 6.66699 6.66669 9.65176 6.66669 13.3337V50.667C6.66669 54.3489 9.65146 57.3337 13.3334 57.3337H34.6618C35.2633 58.776 36.0541 60.1197 37.0031 61.3337H13.3334C7.44232 61.3337 2.66669 56.558 2.66669 50.667V13.3337C2.66669 7.44262 7.44232 2.66699 13.3334 2.66699H50.6667C56.5577 2.66699 61.3334 7.44262 61.3334 13.3337V37.0034C60.1194 36.0544 58.7757 35.2636 57.3334 34.6621V13.3337C57.3334 9.65176 54.3486 6.66699 50.6667 6.66699ZM33.5414 47.9735C34.3558 42.7531 37.5002 38.3044 41.8774 35.7241C41.5858 35.3674 41.2419 35.0462 40.8464 34.7717C38.3261 33.0228 35.2805 32.0003 32.0003 32.0003C28.7202 32.0003 25.6747 33.0228 23.1544 34.7717C21.1382 36.1707 20.4608 38.7865 21.2337 41.1156C21.5754 42.1454 21.9734 43.1487 22.4239 44.1218C23.2879 45.9878 25.0305 47.2926 27.0608 47.6187C28.67 47.8771 30.3198 48.0113 32.0003 48.0113C32.517 48.0113 33.0308 47.9986 33.5414 47.9735ZM44.32 34.5324C46.2261 33.782 48.2972 33.3597 50.4639 33.3348C48.5113 32.4458 46.3265 31.9482 44.0202 31.9482C43.2219 31.9482 42.4381 32.0079 41.6735 32.1227C41.9082 32.2703 42.1393 32.4231 42.3667 32.5809C43.1604 33.1317 43.8101 33.7952 44.32 34.5324ZM32 29.3337C35.5556 29.3337 37.3334 26.0003 37.3334 21.8337C37.3334 18.5003 35.5556 16.0003 32 16.0003C28.4445 16.0003 26.6667 18.5003 26.6667 21.8337C26.6667 26.0003 28.4445 29.3337 32 29.3337ZM17.3334 29.3337C20 29.3337 21.3334 26.667 21.3334 23.3337C21.3334 20.667 20 18.667 17.3334 18.667C14.6667 18.667 13.3334 20.667 13.3334 23.3337C13.3334 26.667 14.6667 29.3337 17.3334 29.3337ZM50.6667 23.3337C50.6667 26.667 49.3334 29.3337 46.6667 29.3337C44 29.3337 42.6667 26.667 42.6667 23.3337C42.6667 20.667 44 18.667 46.6667 18.667C49.3334 18.667 50.6667 20.667 50.6667 23.3337ZM21.6341 32.5808C21.8364 32.4404 22.0416 32.3041 22.2496 32.1718C21.3886 32.0249 20.5021 31.9482 19.597 31.9482C17.091 31.9482 14.7284 32.5357 12.6514 33.5745C10.8883 34.4563 10.1469 36.5228 10.7354 38.4043C10.8497 38.7696 10.9714 39.1319 11.1003 39.491C11.6617 41.0547 13.0565 42.1579 14.7022 42.3864C16.0979 42.5803 17.5212 42.6924 18.9667 42.7177C18.8755 42.4652 18.7876 42.2111 18.7028 41.9555C17.6142 38.6752 18.5055 34.7519 21.6341 32.5808ZM64 50.667C64 58.0308 58.0305 64.0003 50.6667 64.0003C43.3029 64.0003 37.3334 58.0308 37.3334 50.667C37.3334 43.3032 43.3029 37.3337 50.6667 37.3337C58.0305 37.3337 64 43.3032 64 50.667ZM50.6667 42.667C51.7713 42.667 52.6667 43.5624 52.6667 44.667V48.667H56.6667C57.7713 48.667 58.6667 49.5624 58.6667 50.667C58.6667 51.7716 57.7713 52.667 56.6667 52.667H52.6667V56.667C52.6667 57.7716 51.7713 58.667 50.6667 58.667C49.5621 58.667 48.6667 57.7716 48.6667 56.667V52.667H44.6667C43.5621 52.667 42.6667 51.7716 42.6667 50.667C42.6667 49.5624 43.5621 48.667 44.6667 48.667H48.6667V44.667C48.6667 43.5624 49.5621 42.667 50.6667 42.667Z" fill="#18202A"/>
</svg>
