<svg width="64" height="64" viewBox="0 0 64 64" fill="none" xmlns="http://www.w3.org/2000/svg">
<path fill-rule="evenodd" clip-rule="evenodd" d="M53.3334 12H10.6667C8.45755 12 6.66669 13.7909 6.66669 16V48C6.66669 50.2091 8.45755 52 10.6667 52H53.3334C55.5425 52 57.3334 50.2091 57.3334 48V16C57.3334 13.7909 55.5425 12 53.3334 12ZM10.6667 8C6.24841 8 2.66669 11.5817 2.66669 16V48C2.66669 52.4183 6.24841 56 10.6667 56H53.3334C57.7516 56 61.3334 52.4183 61.3334 48V16C61.3334 11.5817 57.7516 8 53.3334 8H10.6667Z" fill="#18202A"/>
<path fill-rule="evenodd" clip-rule="evenodd" d="M60.3246 17.5481C60.9424 18.4637 60.7009 19.7068 59.7853 20.3246L38.4122 34.7451C36.5484 36.0028 34.2941 36.6667 32 36.6667C29.7059 36.6667 27.4516 36.0028 25.5879 34.7451L4.21475 20.3246C3.2991 19.7068 3.05764 18.4637 3.67543 17.5481C4.29322 16.6324 5.53632 16.391 6.45196 17.0087L27.8252 31.4293C28.9967 32.2199 30.4646 32.6667 32 32.6667C33.5354 32.6667 35.0032 32.22 36.1747 31.4294L57.5481 17.0087C58.4637 16.391 59.7068 16.6324 60.3246 17.5481Z" fill="#18202A"/>
</svg>
