<svg width="64" height="64" viewBox="0 0 64 64" fill="none" xmlns="http://www.w3.org/2000/svg">
<path fill-rule="evenodd" clip-rule="evenodd" d="M61.3333 31.1756C61.3333 32.5178 61.2363 33.8453 61.0463 35.1494C58.0783 33.1601 54.508 31.9998 50.6667 31.9998C49.65 31.9998 48.6523 32.0811 47.6797 32.2375C47.8859 31.7552 48 31.2242 48 30.6665C48 28.4574 46.2091 26.6665 44 26.6665C41.7909 26.6665 40 28.4574 40 30.6665C40 32.1463 40.8036 33.4385 41.9982 34.1304C36.0541 37.2527 32 43.4862 32 50.6665C32 53.5129 32.6371 56.2105 33.7764 58.6245C33.2004 58.6524 32.6173 58.6665 32.0273 58.6665C29.1687 58.6665 26.4058 58.3489 23.7938 57.7305L16.5247 61.0855C14.8439 61.8612 12.9035 60.7305 12.7497 58.8857L12.1895 52.1624C6.3686 47.4465 2.72121 40.3017 2.72121 31.1756C1.6747 15.9029 15.842 2.6665 32.0273 2.6665C48.2126 2.6665 61.3333 13.8665 61.3333 31.1756ZM20 34.6665C22.2091 34.6665 24 32.8756 24 30.6665C24 28.4574 22.2091 26.6665 20 26.6665C17.7909 26.6665 16 28.4574 16 30.6665C16 32.8756 17.7909 34.6665 20 34.6665ZM32 34.6665C34.2091 34.6665 36 32.8756 36 30.6665C36 28.4574 34.2091 26.6665 32 26.6665C29.7909 26.6665 28 28.4574 28 30.6665C28 32.8756 29.7909 34.6665 32 34.6665ZM64 50.6665C64 58.0303 58.0305 63.9998 50.6667 63.9998C43.3029 63.9998 37.3333 58.0303 37.3333 50.6665C37.3333 43.3027 43.3029 37.3332 50.6667 37.3332C58.0305 37.3332 64 43.3027 64 50.6665ZM50.6667 42.6665C49.1939 42.6665 48 43.8604 48 45.3332V47.9998H45.3333C43.8606 47.9998 42.6667 49.1937 42.6667 50.6665C42.6667 52.1393 43.8606 53.3332 45.3333 53.3332H48V55.9998C48 57.4726 49.1939 58.6665 50.6667 58.6665C52.1394 58.6665 53.3333 57.4726 53.3333 55.9998V53.3332H56C57.4728 53.3332 58.6667 52.1393 58.6667 50.6665C58.6667 49.1937 57.4728 47.9998 56 47.9998H53.3333V45.3332C53.3333 43.8604 52.1394 42.6665 50.6667 42.6665Z" fill="#18202A"/>
</svg>
