<svg width="64" height="64" viewBox="0 0 64 64" fill="none" xmlns="http://www.w3.org/2000/svg">
<path fill-rule="evenodd" clip-rule="evenodd" d="M27.827 5.65826C27.5984 4.20336 28.5929 2.82602 30.0625 2.73006C30.7033 2.68822 31.3493 2.66699 32 2.66699C48.2004 2.66699 61.3333 15.8 61.3333 32.0003C61.3333 32.651 61.3121 33.2971 61.2703 33.9378C61.1743 35.4074 59.797 36.4019 58.3421 36.1733C56.8872 35.9447 55.9083 34.5787 55.975 33.1074C55.9916 32.7406 56 32.3715 56 32.0003C56 18.7455 45.2548 8.00033 32 8.00033C31.6288 8.00033 31.2597 8.00873 30.8929 8.02536C29.4216 8.09203 28.0557 7.11316 27.827 5.65826ZM15.2178 11.2756C14.2902 10.1316 14.4597 8.44102 15.6829 7.62083C16.7545 6.90236 17.8763 6.25248 19.0421 5.6776C20.3629 5.02624 21.9124 5.7235 22.4405 7.09831C22.9686 8.47313 22.2733 10.0028 20.966 10.681C20.3116 11.0204 19.6748 11.3891 19.0572 11.7855C17.8177 12.5809 16.1453 12.4196 15.2178 11.2756ZM7.09799 22.4408C5.72318 21.9127 5.02592 20.3633 5.67728 19.0424C6.25216 17.8766 6.90204 16.7548 7.62051 15.6832C8.44069 14.46 10.1313 14.2906 11.2753 15.2181C12.4193 16.1456 12.5806 17.818 11.7851 19.0575C11.3888 19.6751 11.0201 20.312 10.6806 20.9663C10.0025 22.2736 8.47281 22.9689 7.09799 22.4408ZM2.66667 32.0003C2.66667 31.3496 2.6879 30.7036 2.72974 30.0629C2.82569 28.5932 4.20304 27.5987 5.65794 27.8274C7.11284 28.056 8.09171 29.422 8.02504 30.8932C8.00841 31.26 8.00001 31.6291 8.00001 32.0003C8.00001 32.3715 8.00841 32.7406 8.02504 33.1074C8.09171 34.5787 7.11284 35.9447 5.65794 36.1733C4.20304 36.4019 2.8257 35.4074 2.72974 33.9378C2.6879 33.2971 2.66667 32.651 2.66667 32.0003ZM56.902 41.5598C58.2768 42.088 58.9741 43.6374 58.3227 44.9583C57.7479 46.1241 57.098 47.2459 56.3795 48.3174C55.5593 49.5407 53.8687 49.7101 52.7247 48.7826C51.5807 47.855 51.4194 46.1826 52.2149 44.9432C52.6112 44.3255 52.98 43.6887 53.3194 43.0344C53.9975 41.727 55.5272 41.0317 56.902 41.5598ZM11.2753 48.7826C10.1313 49.7101 8.44069 49.5407 7.62051 48.3174C6.90204 47.2459 6.25216 46.1241 5.67728 44.9583C5.02592 43.6374 5.72318 42.088 7.098 41.5598C8.47281 41.0317 10.0025 41.727 10.6806 43.0344C11.0201 43.6887 11.3888 44.3255 11.7851 44.9432C12.5806 46.1826 12.4193 47.855 11.2753 48.7826ZM22.4405 56.9023C21.9124 58.2772 20.3629 58.9744 19.0421 58.3231C17.8763 57.7482 16.7545 57.0983 15.6829 56.3798C14.4597 55.5596 14.2902 53.8691 15.2178 52.7251C16.1453 51.5811 17.8177 51.4198 19.0572 52.2152C19.6748 52.6115 20.3116 52.9803 20.966 53.3197C22.2733 53.9979 22.9686 55.5275 22.4405 56.9023ZM48.7822 52.7251C49.7098 53.869 49.5403 55.5596 48.3171 56.3798C47.2456 57.0983 46.1237 57.7482 44.958 58.3231C43.6371 58.9744 42.0876 58.2772 41.5595 56.9023C41.0314 55.5275 41.7267 53.9978 43.034 53.3197C43.6884 52.9803 44.3252 52.6115 44.9428 52.2152C46.1823 51.4198 47.8547 51.5811 48.7822 52.7251ZM36.173 58.3424C36.4016 59.7973 35.4071 61.1746 33.9375 61.2706C33.2968 61.3124 32.6507 61.3337 32 61.3337C31.3493 61.3337 30.7033 61.3124 30.0625 61.2706C28.5929 61.1746 27.5984 59.7973 27.827 58.3424C28.0557 56.8875 29.4216 55.9086 30.8929 55.9753C31.2597 55.9919 31.6288 56.0003 32 56.0003C32.3712 56.0003 32.7403 55.9919 33.1071 55.9753C34.5784 55.9086 35.9443 56.8875 36.173 58.3424ZM50.6667 32.0003C50.6667 42.3096 42.3093 50.667 32 50.667C21.6907 50.667 13.3333 42.3096 13.3333 32.0003C13.3333 21.691 21.6907 13.3337 32 13.3337C42.3093 13.3337 50.6667 21.691 50.6667 32.0003ZM32 25.3337C32 27.5428 30.2091 29.3337 28 29.3337C25.7909 29.3337 24 27.5428 24 25.3337C24 23.1245 25.7909 21.3337 28 21.3337C30.2091 21.3337 32 23.1245 32 25.3337ZM24 33.3337L20.7083 39.0941C23.0683 42.8427 27.2432 45.3337 32 45.3337C38.9389 45.3337 44.6398 40.0331 45.2746 33.2602L40 26.667L30.6667 37.3337L24 33.3337Z" fill="#18202A"/>
</svg>
