<svg width="64" height="64" viewBox="0 0 64 64" fill="none" xmlns="http://www.w3.org/2000/svg">
<g clip-path="url(#clip0_3761_8844)">
<path fill-rule="evenodd" clip-rule="evenodd" d="M26.6667 17.3333C26.6667 21.5614 23.8553 25.1328 20 26.2802V35.3334C20 40.1198 23.8802 44 28.6667 44H37.7198C38.8672 40.1447 42.4386 37.3333 46.6667 37.3333C51.8213 37.3333 56 41.512 56 46.6667C56 51.8213 51.8213 56 46.6667 56C41.9647 56 38.0749 52.5231 37.4279 48H28.6667C21.6711 48 16 42.329 16 35.3334V26.5721C11.4769 25.9252 8 22.0353 8 17.3333C8 12.1787 12.1787 8 17.3333 8C22.488 8 26.6667 12.1787 26.6667 17.3333ZM22.6667 17.3333C22.6667 20.2789 20.2789 22.6667 17.3333 22.6667C14.3878 22.6667 12 20.2789 12 17.3333C12 14.3878 14.3878 12 17.3333 12C20.2789 12 22.6667 14.3878 22.6667 17.3333ZM52 46.6667C52 49.6122 49.6122 52 46.6667 52C43.7211 52 41.3333 49.6122 41.3333 46.6667C41.3333 43.7211 43.7211 41.3333 46.6667 41.3333C49.6122 41.3333 52 43.7211 52 46.6667Z" fill="#18202A"/>
<path d="M48.6667 10C48.6667 8.89543 47.7712 8 46.6667 8C45.5621 8 44.6667 8.89543 44.6667 10V15.3333H39.3333C38.2288 15.3333 37.3333 16.2288 37.3333 17.3333C37.3333 18.4379 38.2288 19.3333 39.3333 19.3333H44.6667V24.6667C44.6667 25.7712 45.5621 26.6667 46.6667 26.6667C47.7712 26.6667 48.6667 25.7712 48.6667 24.6667V19.3333H54C55.1046 19.3333 56 18.4379 56 17.3333C56 16.2288 55.1046 15.3333 54 15.3333H48.6667V10Z" fill="#18202A"/>
</g>
<defs>
<clipPath id="clip0_3761_8844">
<rect width="64" height="64" fill="white"/>
</clipPath>
</defs>
</svg>
