<svg width="64" height="64" viewBox="0 0 64 64" fill="none" xmlns="http://www.w3.org/2000/svg">
<path fill-rule="evenodd" clip-rule="evenodd" d="M32 29.3337C39.1111 29.3337 42.6667 22.667 42.6667 14.3337C42.6667 7.66699 39.1111 2.66699 32 2.66699C24.8889 2.66699 21.3333 7.66699 21.3333 14.3337C21.3333 22.667 24.8889 29.3337 32 29.3337ZM32.0001 34.667C34.594 34.667 37.1014 35.0373 39.4723 35.728C34.9352 39.1334 32 44.5574 32 50.667C32 54.5852 33.2072 58.2214 35.2699 61.224C34.1894 61.2967 33.099 61.3337 32 61.3337C27.8736 61.3337 23.8689 60.813 20.0478 59.8337C16.797 59.0006 14.0419 56.8231 12.533 53.8257C12.4912 53.7427 12.4497 53.6595 12.4084 53.5763C10.3225 49.364 11.0318 44.2033 14.5911 41.1331C19.2626 37.1036 25.3468 34.667 32.0001 34.667ZM37.3333 50.667C37.3333 58.0308 43.3029 64.0003 50.6666 64.0003C58.0304 64.0003 64 58.0308 64 50.667C64 43.3032 58.0304 37.3337 50.6666 37.3337C43.3029 37.3337 37.3333 43.3032 37.3333 50.667ZM50.5858 42.5861C49.8047 43.3672 49.8047 44.6335 50.5858 45.4145L53.8382 48.667H42.6666C41.5621 48.667 40.6666 49.5624 40.6666 50.667C40.6666 51.7716 41.5621 52.667 42.6666 52.667H53.8382L50.5858 55.9194C49.8047 56.7005 49.8047 57.9668 50.5858 58.7479C51.3668 59.5289 52.6331 59.5289 53.4142 58.7479L60.0809 52.0812C60.8619 51.3002 60.8619 50.0338 60.0809 49.2528L53.4142 42.5861C52.6331 41.8051 51.3668 41.8051 50.5858 42.5861Z" fill="#18202A"/>
</svg>
