<svg width="64" height="64" viewBox="0 0 64 64" fill="none" xmlns="http://www.w3.org/2000/svg">
<path fill-rule="evenodd" clip-rule="evenodd" d="M15.732 44.7876L16.1648 50.0497C16.3695 52.5383 19.0772 54.1669 21.4676 53.0661C32.0484 48.1933 42.1396 42.0317 51.2835 34.8263C53.112 33.3854 53.112 30.6138 51.2835 29.1728C42.1396 21.9674 32.0484 15.8058 21.4676 10.933C19.0772 9.83217 16.3695 11.4609 16.1648 13.9494L15.732 19.2116C15.032 27.7225 15.032 36.2766 15.732 44.7876ZM23.1408 7.29977C18.2893 5.06552 12.6161 8.29825 12.1783 13.6215L11.7455 18.8837C11.0275 27.6129 11.0275 36.3863 11.7455 45.1154L12.1783 50.3776C12.6161 55.7009 18.2893 58.9336 23.1408 56.6993C34.0042 51.6964 44.3653 45.3706 53.7592 37.968C57.6201 34.9256 57.6201 29.0735 53.7592 26.0311C44.3653 18.6285 34.0042 12.3027 23.1408 7.29977Z" fill="#18202A"/>
</svg>
