<svg width="64" height="64" viewBox="0 0 64 64" fill="none" xmlns="http://www.w3.org/2000/svg">
<path fill-rule="evenodd" clip-rule="evenodd" d="M40.2783 11.9399C40.9403 12.7535 41.8856 13.3337 42.9345 13.3337C44.9624 13.3337 46.3576 11.3131 45.212 9.63977C42.3298 5.42954 37.4875 2.66699 32 2.66699C23.1634 2.66699 16 9.83044 16 18.667V21.3337C10.109 21.3337 5.33333 26.1093 5.33333 32.0003V50.667C5.33333 56.558 10.109 61.3337 16 61.3337H48C53.891 61.3337 58.6667 56.558 58.6667 50.667V32.0003C58.6667 26.1093 53.891 21.3337 48 21.3337H21.3333V18.667C21.3333 12.776 26.109 8.00033 32 8.00033C35.3406 8.00033 38.3225 9.53599 40.2783 11.9399ZM44.5523 32.7814C45.5937 33.8228 45.5937 35.5112 44.5523 36.5526L31.2189 49.8859C30.1775 50.9273 28.4891 50.9273 27.4477 49.8859L22.1144 44.5526C21.073 43.5112 21.073 41.8228 22.1144 40.7814C23.1558 39.74 24.8442 39.74 25.8856 40.7814L29.3333 44.2291L40.781 32.7814C41.8224 31.74 43.5109 31.74 44.5523 32.7814Z" fill="#18202A"/>
</svg>
