<svg width="64" height="64" viewBox="0 0 64 64" fill="none" xmlns="http://www.w3.org/2000/svg">
<path d="M37.3334 21.8337C37.3334 26.0003 35.5556 29.3337 32 29.3337C28.4445 29.3337 26.6667 26.0003 26.6667 21.8337C26.6667 18.5003 28.4445 16.0003 32 16.0003C35.5556 16.0003 37.3334 18.5003 37.3334 21.8337Z" fill="#18202A"/>
<path d="M21.3334 23.3337C21.3334 26.667 20 29.3337 17.3334 29.3337C14.6667 29.3337 13.3334 26.667 13.3334 23.3337C13.3334 20.667 14.6667 18.667 17.3334 18.667C20 18.667 21.3334 20.667 21.3334 23.3337Z" fill="#18202A"/>
<path d="M50.6667 23.3337C50.6667 26.667 49.3334 29.3337 46.6667 29.3337C44 29.3337 42.6667 26.667 42.6667 23.3337C42.6667 20.667 44 18.667 46.6667 18.667C49.3334 18.667 50.6667 20.667 50.6667 23.3337Z" fill="#18202A"/>
<path d="M22.2496 32.1718C22.0416 32.3041 21.8364 32.4404 21.6341 32.5808C18.5055 34.7519 17.6142 38.6752 18.7028 41.9555C18.7876 42.2111 18.8755 42.4652 18.9667 42.7177C17.5212 42.6924 16.0979 42.5803 14.7022 42.3864C13.0565 42.1579 11.6617 41.0547 11.1003 39.491C10.9714 39.1319 10.8497 38.7696 10.7354 38.4043C10.1469 36.5228 10.8883 34.4563 12.6514 33.5745C14.7284 32.5357 17.091 31.9482 19.597 31.9482C20.5021 31.9482 21.3886 32.0249 22.2496 32.1718Z" fill="#18202A"/>
<path d="M45.2981 41.9554C45.2143 42.2081 45.1273 42.4592 45.0374 42.7089C46.5202 42.6669 47.9791 42.5335 49.4081 42.3144C51.033 42.0652 52.4018 40.9631 52.9526 39.4142C53.0464 39.1508 53.1362 38.8856 53.222 38.6187C53.8143 36.7782 53.1319 34.7432 51.4337 33.8188C49.2466 32.6282 46.7164 31.9482 44.0202 31.9482C43.2219 31.9482 42.4381 32.0079 41.6735 32.1227C41.9082 32.2703 42.1393 32.4231 42.3667 32.5809C45.4953 34.7519 46.3865 38.6752 45.2981 41.9554Z" fill="#18202A"/>
<path d="M41.577 44.1216C40.713 45.9877 38.9704 47.2926 36.9401 47.6186C35.3308 47.8771 33.681 48.0113 32.0003 48.0113C30.3198 48.0113 28.67 47.8771 27.0608 47.6187C25.0305 47.2926 23.2879 45.9878 22.4239 44.1218C21.9734 43.1487 21.5754 42.1454 21.2337 41.1156C20.4608 38.7865 21.1382 36.1707 23.1544 34.7717C25.6747 33.0228 28.7202 32.0003 32.0003 32.0003C35.2805 32.0003 38.3261 33.0228 40.8464 34.7717C42.8625 36.1708 43.54 38.7865 42.7671 41.1156C42.4254 42.1453 42.0275 43.1485 41.577 44.1216Z" fill="#18202A"/>
<path fill-rule="evenodd" clip-rule="evenodd" d="M50.6667 6.66699H13.3334C9.65146 6.66699 6.66669 9.65176 6.66669 13.3337V50.667C6.66669 54.3489 9.65146 57.3337 13.3334 57.3337H50.6667C54.3486 57.3337 57.3334 54.3489 57.3334 50.667V13.3337C57.3334 9.65176 54.3486 6.66699 50.6667 6.66699ZM13.3334 2.66699C7.44232 2.66699 2.66669 7.44262 2.66669 13.3337V50.667C2.66669 56.558 7.44232 61.3337 13.3334 61.3337H50.6667C56.5577 61.3337 61.3334 56.558 61.3334 50.667V13.3337C61.3334 7.44262 56.5577 2.66699 50.6667 2.66699H13.3334Z" fill="#18202A"/>
</svg>
