<svg width="64" height="64" viewBox="0 0 64 64" fill="none" xmlns="http://www.w3.org/2000/svg">
<path fill-rule="evenodd" clip-rule="evenodd" d="M24.721 25.6599L8.82688 27.8741L20.318 38.6785L17.5616 54.1447L32 46.8351L46.4384 54.1447L43.6817 38.6767L55.173 27.8872L39.2779 25.6578L32 11.4437L24.721 25.6599ZM22.1087 21.9852L2.75833 24.6809C1.64915 24.8354 1.21308 26.2057 2.02896 26.9729L16 40.109L12.6862 58.7035C12.4932 59.7861 13.62 60.6237 14.601 60.127L32 51.3185L49.399 60.127C50.3801 60.6237 51.5068 59.7861 51.3139 58.7035L48 40.109L61.9703 26.9918C62.7866 26.2254 62.3518 24.8549 61.2429 24.6994L41.8913 21.9852L33.1868 4.98494C32.6914 4.01739 31.3086 4.01739 30.8132 4.98494L22.1087 21.9852Z" fill="#18202A"/>
</svg>
