<svg width="64" height="64" viewBox="0 0 64 64" fill="none" xmlns="http://www.w3.org/2000/svg">
<path fill-rule="evenodd" clip-rule="evenodd" d="M44.0809 19.9192C44.8619 20.7003 44.8619 21.9666 44.0809 22.7476L22.7476 44.081C21.9665 44.862 20.7002 44.862 19.9191 44.081C19.1381 43.2999 19.1381 42.0336 19.9191 41.2525L41.2525 19.9192C42.0335 19.1382 43.2999 19.1382 44.0809 19.9192Z" fill="#18202A"/>
<path fill-rule="evenodd" clip-rule="evenodd" d="M19.9191 19.9192C20.7002 19.1382 21.9665 19.1382 22.7476 19.9192L44.0809 41.2525C44.8619 42.0336 44.8619 43.2999 44.0809 44.081C43.2999 44.862 42.0335 44.862 41.2525 44.081L19.9191 22.7476C19.1381 21.9666 19.1381 20.7003 19.9191 19.9192Z" fill="#18202A"/>
<path fill-rule="evenodd" clip-rule="evenodd" d="M32 57.3334C45.9912 57.3334 57.3334 45.9913 57.3334 32.0001C57.3334 18.0089 45.9912 6.66675 32 6.66675C18.0088 6.66675 6.66669 18.0089 6.66669 32.0001C6.66669 45.9913 18.0088 57.3334 32 57.3334ZM61.3334 32.0001C61.3334 48.2004 48.2004 61.3334 32 61.3334C15.7997 61.3334 2.66669 48.2004 2.66669 32.0001C2.66669 15.7997 15.7997 2.66675 32 2.66675C48.2004 2.66675 61.3334 15.7997 61.3334 32.0001Z" fill="#18202A"/>
</svg>
