<svg width="64" height="64" viewBox="0 0 64 64" fill="none" xmlns="http://www.w3.org/2000/svg">
<path fill-rule="evenodd" clip-rule="evenodd" d="M32 32.0003C37.3333 32.0003 40 26.667 40 20.0003C40 14.667 37.3333 10.667 32 10.667C26.6667 10.667 24 14.667 24 20.0003C24 26.667 26.6667 32.0003 32 32.0003ZM34.5934 26.4039C35.4113 25.0749 36 22.8817 36 20.0003C36 17.9437 35.4806 16.5876 34.8765 15.8324C34.3685 15.1974 33.5617 14.667 32 14.667C30.4383 14.667 29.6315 15.1974 29.1235 15.8324C28.5194 16.5876 28 17.9437 28 20.0003C28 22.8817 28.5888 25.0749 29.4066 26.4039C30.1238 27.5694 30.9232 28.0003 32 28.0003C33.0768 28.0003 33.8762 27.5694 34.5934 26.4039Z" fill="#18202A"/>
<path fill-rule="evenodd" clip-rule="evenodd" d="M39.1174 58.1429C42.4914 57.6414 45.4039 55.4933 46.8225 52.3912C47.323 51.2965 47.7786 50.177 48.187 49.0351C49.5832 45.1302 48.4146 40.675 44.922 38.4392C41.1919 36.0513 36.7576 34.667 32 34.667C27.2424 34.667 22.8081 36.0513 19.078 38.4392C15.5853 40.675 14.4167 45.1302 15.813 49.0351C16.2213 50.177 16.6769 51.2965 17.1775 52.3912C18.5961 55.4933 21.5086 57.6414 24.8826 58.1429C27.2049 58.4881 29.5816 58.667 32 58.667C34.4184 58.667 36.795 58.4881 39.1174 58.1429ZM32 54.667C34.2209 54.667 36.401 54.5028 38.5293 54.1864C40.5947 53.8794 42.3419 52.5709 43.1848 50.7277C43.6381 49.7362 44.0508 48.7224 44.4205 47.6883C45.2894 45.2583 44.4508 42.887 42.7654 41.808C39.6598 39.82 35.9707 38.667 32 38.667C28.0293 38.667 24.3401 39.82 21.2345 41.808C19.5491 42.8869 18.7105 45.2583 19.5794 47.6883C19.9492 48.7224 20.3618 49.7362 20.8152 50.7277C21.6581 52.5709 23.4053 53.8794 25.4707 54.1864C27.599 54.5028 29.7791 54.667 32 54.667Z" fill="#18202A"/>
<path fill-rule="evenodd" clip-rule="evenodd" d="M21.3333 25.667C21.3333 30.667 19.1111 34.667 14.6667 34.667C10.2222 34.667 8 30.667 8 25.667C8 21.667 10.2222 18.667 14.6667 18.667C19.1111 18.667 21.3333 21.667 21.3333 25.667ZM17.3333 25.667C17.3333 27.6481 16.8824 29.0272 16.3647 29.7843C15.9561 30.382 15.4936 30.667 14.6667 30.667C13.8397 30.667 13.3773 30.382 12.9686 29.7843C12.4509 29.0272 12 27.6481 12 25.667C12 24.373 12.3574 23.6607 12.6563 23.3244C12.8927 23.0585 13.4005 22.667 14.6667 22.667C15.9328 22.667 16.4406 23.0585 16.677 23.3244C16.9759 23.6607 17.3333 24.373 17.3333 25.667Z" fill="#18202A"/>
<path fill-rule="evenodd" clip-rule="evenodd" d="M49.3333 34.667C53.7778 34.667 56 30.667 56 25.667C56 21.667 53.7778 18.667 49.3333 18.667C44.8889 18.667 42.6667 21.667 42.6667 25.667C42.6667 30.667 44.8889 34.667 49.3333 34.667ZM51.0314 29.7843C51.5491 29.0272 52 27.6481 52 25.667C52 24.373 51.6426 23.6607 51.3437 23.3244C51.1073 23.0585 50.5995 22.667 49.3333 22.667C48.0672 22.667 47.5594 23.0585 47.323 23.3244C47.0241 23.6607 46.6667 24.373 46.6667 25.667C46.6667 27.6481 47.1176 29.0272 47.6353 29.7843C48.0439 30.382 48.5064 30.667 49.3333 30.667C50.1603 30.667 50.6227 30.382 51.0314 29.7843Z" fill="#18202A"/>
<path d="M55.9294 52.8482C54.2448 53.089 52.5319 53.2423 50.7956 53.3033C51.2132 52.3458 51.5995 51.3715 51.9535 50.3817C52.0904 49.9987 52.21 49.6098 52.3121 49.2166C53.3399 49.142 54.3574 49.0322 55.3634 48.8884C56.716 48.6951 57.7732 47.7937 58.1666 46.5771C58.6627 45.0431 58.002 43.7719 57.1431 43.3193C55.59 42.5011 53.8971 41.9115 52.1062 41.5965C51.6047 40.057 50.8103 38.6061 49.7144 37.3428C53.0629 37.4409 56.2179 38.3107 59.0075 39.7804C61.8631 41.2849 62.9657 44.737 61.9725 47.808C61.0955 50.5198 58.7508 52.445 55.9294 52.8482Z" fill="#18202A"/>
<path d="M5.35387 39.3299C8.07072 38.06 11.0993 37.3458 14.2935 37.3337C13.2152 38.5742 12.4281 39.996 11.9239 41.5052C10.2014 41.7486 8.56408 42.2448 7.04761 42.9536C6.0685 43.4112 5.30016 44.81 5.84491 46.5058C6.27313 47.8388 7.44158 48.8164 8.92534 48.9995C9.84056 49.1125 10.7649 49.1975 11.6975 49.2534C11.7975 49.6341 11.9139 50.0106 12.0465 50.3817C12.4025 51.3771 12.7912 52.3569 13.2114 53.3196C11.5984 53.2812 10.0051 53.1632 8.43526 52.9694C5.45223 52.6012 2.95587 50.5908 2.03659 47.7291C0.985906 44.4584 2.24171 40.7845 5.35387 39.3299Z" fill="#18202A"/>
</svg>
