<svg width="64" height="64" viewBox="0 0 64 64" fill="none" xmlns="http://www.w3.org/2000/svg">
<path fill-rule="evenodd" clip-rule="evenodd" d="M42.6667 18.667V21.3337H21.3333V18.667C21.3333 12.776 26.109 8.00033 32 8.00033C37.891 8.00033 42.6667 12.776 42.6667 18.667ZM48 21.3337V18.667C48 9.83044 40.8366 2.66699 32 2.66699C23.1634 2.66699 16 9.83044 16 18.667V21.3337C10.109 21.3337 5.33333 26.1093 5.33333 32.0003V50.667C5.33333 56.558 10.109 61.3337 16 61.3337H48C53.891 61.3337 58.6667 56.558 58.6667 50.667V32.0003C58.6667 26.1093 53.891 21.3337 48 21.3337ZM16.6667 44.667C18.5076 44.667 20 43.1746 20 41.3337C20 39.4927 18.5076 38.0003 16.6667 38.0003C14.8257 38.0003 13.3333 39.4927 13.3333 41.3337C13.3333 43.1746 14.8257 44.667 16.6667 44.667ZM26.8889 44.667C28.7299 44.667 30.2222 43.1746 30.2222 41.3337C30.2222 39.4927 28.7299 38.0003 26.8889 38.0003C25.048 38.0003 23.5556 39.4927 23.5556 41.3337C23.5556 43.1746 25.048 44.667 26.8889 44.667ZM40.4444 41.3337C40.4444 43.1746 38.952 44.667 37.1111 44.667C35.2701 44.667 33.7777 43.1746 33.7777 41.3337C33.7777 39.4927 35.2701 38.0003 37.1111 38.0003C38.952 38.0003 40.4444 39.4927 40.4444 41.3337ZM47.3333 44.667C49.1743 44.667 50.6667 43.1746 50.6667 41.3337C50.6667 39.4927 49.1743 38.0003 47.3333 38.0003C45.4924 38.0003 44 39.4927 44 41.3337C44 43.1746 45.4924 44.667 47.3333 44.667Z" fill="#18202A"/>
</svg>
