<svg width="64" height="64" viewBox="0 0 64 64" fill="none" xmlns="http://www.w3.org/2000/svg">
<path fill-rule="evenodd" clip-rule="evenodd" d="M56 26.2095V29.3337H52H33.3333H29.3333V25.3337V6.66699H18.6667C14.9848 6.66699 12 9.65176 12 13.3337V50.667C12 54.3489 14.9848 57.3337 18.6667 57.3337H31.642C32.1589 58.7554 32.8742 60.1027 33.7704 61.3337H18.6667C12.7756 61.3337 8 56.558 8 50.667V13.3337C8 7.44262 12.7756 2.66699 18.6667 2.66699H29.3333H32.4575C33.872 2.66699 35.2286 3.2289 36.2288 4.22909L54.4379 22.4382C55.4381 23.4384 56 24.795 56 26.2095ZM33.3333 25.3337H51.672C51.652 25.3107 51.6312 25.2883 51.6095 25.2667L33.4003 7.05752C33.3787 7.03584 33.3563 7.01498 33.3333 6.99497V25.3337ZM52.6708 57.5997L60.5721 49.6957V49.7064C60.9512 49.3531 61.4527 49.1608 61.9708 49.1699C62.489 49.1791 62.9833 49.389 63.3498 49.7554C63.7162 50.1218 63.9261 50.6162 63.9352 51.1343C63.9444 51.6525 63.7521 52.1539 63.3988 52.5331L55.4974 60.4264C53.2088 62.7147 50.1049 64.0001 46.8685 63.9998C43.6321 63.9996 40.5284 62.7137 38.2401 60.4251C35.9518 58.1364 34.6664 55.0325 34.6667 51.7961C34.6669 48.5597 35.9528 45.456 38.2414 43.1677L46.8281 34.5784C48.4788 32.9277 50.7177 32.0003 53.0521 32.0003C55.3866 32.0003 57.6254 32.9277 59.2761 34.5784C60.9268 36.2291 61.8542 38.4679 61.8542 40.8024C61.8542 43.1368 60.9268 45.3757 59.2761 47.0264L51.3774 54.9331C50.3636 55.9476 48.9883 56.5178 47.554 56.5183C46.1197 56.5188 44.744 55.9496 43.7294 54.9357C42.7149 53.9219 42.1447 52.5466 42.1442 51.1123C42.1437 49.678 42.7129 48.3023 43.7268 47.2877L49.5774 41.4397C49.7605 41.2432 49.9813 41.0856 50.2267 40.9763C50.472 40.867 50.7368 40.8082 51.0054 40.8035C51.2739 40.7987 51.5407 40.8481 51.7897 40.9487C52.0387 41.0493 52.265 41.199 52.4549 41.389C52.6448 41.5789 52.7945 41.8051 52.8951 42.0541C52.9957 42.3032 53.0451 42.5699 53.0404 42.8385C53.0356 43.107 52.9768 43.3718 52.8675 43.6172C52.7582 43.8625 52.6006 44.0833 52.4041 44.2664L46.5668 50.1144C46.3057 50.378 46.1593 50.734 46.1593 51.1051C46.1593 51.4761 46.3057 51.8321 46.5668 52.0957C46.8297 52.3581 47.186 52.5054 47.5574 52.5054C47.9289 52.5054 48.2852 52.3581 48.5481 52.0957L56.4494 44.1971C56.8957 43.7513 57.2498 43.2219 57.4913 42.6392C57.7329 42.0565 57.8572 41.4319 57.8572 40.8011C57.8572 40.1703 57.7329 39.5457 57.4913 38.9629C57.2498 38.3802 56.8957 37.8508 56.4494 37.4051C55.5337 36.5333 54.3178 36.0471 53.0534 36.0471C51.7891 36.0471 50.5732 36.5333 49.6574 37.4051L41.0601 45.9971C39.5215 47.5367 38.6575 49.6245 38.6583 51.8012C38.659 53.9779 39.5244 56.0651 41.0641 57.6037C42.6038 59.1423 44.6916 60.0063 46.8683 60.0055C49.0449 60.0048 51.1322 59.1394 52.6708 57.5997Z" fill="#18202A"/>
</svg>
