<svg width="64" height="64" viewBox="0 0 64 64" fill="none" xmlns="http://www.w3.org/2000/svg">
<path d="M35.3509 16.6667C39.0231 16.6667 42 19.6436 42 23.3159C42 26.0188 40.3665 28.4354 37.8977 29.458L37.4535 29.6238L36.6325 29.8974C35.1813 30.3812 34.1662 31.6719 34.0186 33.171L34 33.5498V34.6667C34 35.7713 33.1046 36.6667 32 36.6667C30.9875 36.6667 30.1507 35.9143 30.0183 34.9381L30 34.6667V33.5498C30 30.3399 31.9513 27.4721 34.8947 26.2773L35.3676 26.1027L36.1886 25.829C37.2704 25.4684 38 24.4561 38 23.3159C38 21.9573 36.9774 20.8376 35.6598 20.6846L35.3509 20.6667H27.7712C26.793 20.6667 26 21.4598 26 22.438C26 22.8138 26.1195 23.1773 26.3373 23.4777L26.5188 23.6904L26.7476 23.9192C27.5286 24.7002 27.5286 25.9666 26.7476 26.7476C26.0375 27.4577 24.9264 27.5222 24.1435 26.9413L23.9191 26.7476L23.6904 26.5189C22.6081 25.4366 22 23.9686 22 22.438C22 19.3892 24.3641 16.8926 27.3591 16.6812L27.7712 16.6667H35.3509Z" fill="#18202A"/>
<path d="M34.6667 42.6667C34.6667 41.194 33.4728 40.0001 32 40.0001C30.5273 40.0001 29.3334 41.194 29.3334 42.6667C29.3334 44.1395 30.5273 45.3334 32 45.3334C33.4728 45.3334 34.6667 44.1395 34.6667 42.6667Z" fill="#18202A"/>
<path fill-rule="evenodd" clip-rule="evenodd" d="M32 61.3334C48.2004 61.3334 61.3334 48.2004 61.3334 32.0001C61.3334 15.7997 48.2004 2.66675 32 2.66675C15.7997 2.66675 2.66669 15.7997 2.66669 32.0001C2.66669 48.2004 15.7997 61.3334 32 61.3334ZM57.3334 32.0001C57.3334 45.9913 45.9912 57.3334 32 57.3334C18.0088 57.3334 6.66669 45.9913 6.66669 32.0001C6.66669 18.0089 18.0088 6.66675 32 6.66675C45.9912 6.66675 57.3334 18.0089 57.3334 32.0001Z" fill="#18202A"/>
</svg>
