<svg width="64" height="64" viewBox="0 0 64 64" fill="none" xmlns="http://www.w3.org/2000/svg">
<path fill-rule="evenodd" clip-rule="evenodd" d="M29.3333 12.0002C29.3333 13.4729 30.5272 14.6668 32 14.6668C33.4727 14.6668 34.6666 13.4729 34.6666 12.0002C34.6666 10.5274 33.4727 9.3335 32 9.3335C30.5272 9.3335 29.3333 10.5274 29.3333 12.0002ZM25.3333 12.0002C25.3333 15.6821 28.3181 18.6668 32 18.6668C35.6819 18.6668 38.6666 15.6821 38.6666 12.0002C38.6666 8.31826 35.6819 5.3335 32 5.3335C28.3181 5.3335 25.3333 8.31826 25.3333 12.0002Z" fill="#18202A"/>
<path fill-rule="evenodd" clip-rule="evenodd" d="M29.3333 32.0002C29.3333 33.4729 30.5272 34.6668 32 34.6668C33.4727 34.6668 34.6666 33.4729 34.6666 32.0002C34.6666 30.5274 33.4727 29.3335 32 29.3335C30.5272 29.3335 29.3333 30.5274 29.3333 32.0002ZM25.3333 32.0002C25.3333 35.6821 28.3181 38.6668 32 38.6668C35.6819 38.6668 38.6666 35.6821 38.6666 32.0002C38.6666 28.3183 35.6819 25.3335 32 25.3335C28.3181 25.3335 25.3333 28.3183 25.3333 32.0002Z" fill="#18202A"/>
<path fill-rule="evenodd" clip-rule="evenodd" d="M29.3333 52.0002C29.3333 53.4729 30.5272 54.6668 32 54.6668C33.4727 54.6668 34.6666 53.4729 34.6666 52.0002C34.6666 50.5274 33.4727 49.3335 32 49.3335C30.5272 49.3335 29.3333 50.5274 29.3333 52.0002ZM25.3333 52.0002C25.3333 55.6821 28.3181 58.6668 32 58.6668C35.6819 58.6668 38.6666 55.6821 38.6666 52.0002C38.6666 48.3183 35.6819 45.3335 32 45.3335C28.3181 45.3335 25.3333 48.3183 25.3333 52.0002Z" fill="#18202A"/>
</svg>
