<svg width="64" height="64" viewBox="0 0 64 64" fill="none" xmlns="http://www.w3.org/2000/svg">
<path fill-rule="evenodd" clip-rule="evenodd" d="M32 21.5287L29.0143 27.8567L22.1271 28.8978L27.1186 33.9907L25.961 41.039L32 37.7213L38.039 41.039L36.8813 33.9898L41.873 28.9039L34.9852 27.8555L32 21.5287ZM29.6706 17.0919C30.6093 15.1025 33.3908 15.1025 34.3295 17.0919L37.6936 24.2216L45.13 25.3535C46.2781 25.5283 46.9843 26.383 47.2249 27.206C47.4649 28.0268 47.3256 29.0587 46.5755 29.823L41.1573 35.3437L42.4467 43.1949C42.6083 44.179 42.2164 45.1201 41.502 45.6964C40.7719 46.2854 39.6698 46.4989 38.67 45.9496L32 42.2852L25.33 45.9496C24.3302 46.4989 23.2282 46.2854 22.4981 45.6964C21.7837 45.1201 21.3918 44.179 21.5534 43.1949L22.8429 35.3428L17.4232 29.813C16.6736 29.0482 16.535 28.0161 16.7757 27.1953C17.017 26.3724 17.7241 25.518 18.8726 25.3444L26.3071 24.2205L29.6706 17.0919Z" fill="#18202A"/>
<path fill-rule="evenodd" clip-rule="evenodd" d="M32 57.3332C45.9912 57.3332 57.3334 45.9911 57.3334 31.9998C57.3334 18.0086 45.9912 6.6665 32 6.6665C18.0088 6.6665 6.66669 18.0086 6.66669 31.9998C6.66669 45.9911 18.0088 57.3332 32 57.3332ZM61.3334 31.9998C61.3334 48.2002 48.2004 61.3332 32 61.3332C15.7997 61.3332 2.66669 48.2002 2.66669 31.9998C2.66669 15.7995 15.7997 2.6665 32 2.6665C48.2004 2.6665 61.3334 15.7995 61.3334 31.9998Z" fill="#18202A"/>
</svg>
