<svg width="64" height="64" viewBox="0 0 64 64" fill="none" xmlns="http://www.w3.org/2000/svg">
<path fill-rule="evenodd" clip-rule="evenodd" d="M16 10.667C13.0545 10.667 10.6667 13.0548 10.6667 16.0003V48.0003C10.6667 50.9458 13.0545 53.3337 16 53.3337H24C26.9455 53.3337 29.3333 50.9458 29.3333 48.0003V16.0003C29.3333 13.0548 26.9455 10.667 24 10.667H16ZM40 10.667C37.0545 10.667 34.6667 13.0548 34.6667 16.0003V48.0003C34.6667 50.9458 37.0545 53.3337 40 53.3337H48C50.9455 53.3337 53.3333 50.9458 53.3333 48.0003V16.0003C53.3333 13.0548 50.9455 10.667 48 10.667H40Z" fill="#18202A"/>
</svg>
