<svg width="64" height="64" viewBox="0 0 64 64" fill="none" xmlns="http://www.w3.org/2000/svg">
<path fill-rule="evenodd" clip-rule="evenodd" d="M5.33331 13.3334C5.33331 8.9151 8.91504 5.33337 13.3333 5.33337H21.3333C25.7516 5.33337 29.3333 8.9151 29.3333 13.3334V21.3334C29.3333 25.7516 25.7516 29.3334 21.3333 29.3334H13.3333C8.91503 29.3334 5.33331 25.7516 5.33331 21.3334V13.3334ZM9.33331 13.3334C9.33331 11.1242 11.1242 9.33337 13.3333 9.33337H21.3333C23.5425 9.33337 25.3333 11.1242 25.3333 13.3334V21.3334C25.3333 23.5425 23.5425 25.3334 21.3333 25.3334H13.3333C11.1242 25.3334 9.33331 23.5425 9.33331 21.3334V13.3334Z" fill="#18202A"/>
<path fill-rule="evenodd" clip-rule="evenodd" d="M5.33331 42.6667C5.33331 38.2484 8.91504 34.6667 13.3333 34.6667H21.3333C25.7516 34.6667 29.3333 38.2484 29.3333 42.6667V50.6667C29.3333 55.085 25.7516 58.6667 21.3333 58.6667H13.3333C8.91503 58.6667 5.33331 55.085 5.33331 50.6667V42.6667ZM9.33331 42.6667C9.33331 40.4576 11.1242 38.6667 13.3333 38.6667H21.3333C23.5425 38.6667 25.3333 40.4576 25.3333 42.6667V50.6667C25.3333 52.8758 23.5425 54.6667 21.3333 54.6667H13.3333C11.1242 54.6667 9.33331 52.8758 9.33331 50.6667V42.6667Z" fill="#18202A"/>
<path fill-rule="evenodd" clip-rule="evenodd" d="M42.6666 5.33337C38.2484 5.33337 34.6666 8.9151 34.6666 13.3334V21.3334C34.6666 25.7516 38.2484 29.3334 42.6666 29.3334H50.6666C55.0849 29.3334 58.6666 25.7516 58.6666 21.3334V13.3334C58.6666 8.9151 55.0849 5.33337 50.6666 5.33337H42.6666ZM54.6666 13.3334C54.6666 11.1242 52.8758 9.33337 50.6666 9.33337H42.6666C40.4575 9.33337 38.6666 11.1242 38.6666 13.3334V21.3334C38.6666 23.5425 40.4575 25.3334 42.6666 25.3334H50.6666C52.8758 25.3334 54.6666 23.5425 54.6666 21.3334V13.3334Z" fill="#18202A"/>
<path fill-rule="evenodd" clip-rule="evenodd" d="M34.6666 42.6667C34.6666 38.2484 38.2484 34.6667 42.6666 34.6667H50.6666C55.0849 34.6667 58.6666 38.2484 58.6666 42.6667V50.6667C58.6666 55.085 55.0849 58.6667 50.6666 58.6667H42.6666C38.2484 58.6667 34.6666 55.085 34.6666 50.6667V42.6667ZM38.6666 42.6667C38.6666 40.4576 40.4575 38.6667 42.6666 38.6667H50.6666C52.8758 38.6667 54.6666 40.4576 54.6666 42.6667V50.6667C54.6666 52.8758 52.8758 54.6667 50.6666 54.6667H42.6666C40.4575 54.6667 38.6666 52.8758 38.6666 50.6667V42.6667Z" fill="#18202A"/>
</svg>
