<svg width="64" height="64" viewBox="0 0 64 64" fill="none" xmlns="http://www.w3.org/2000/svg">
<path fill-rule="evenodd" clip-rule="evenodd" d="M35.4835 10.5912C35.4827 10.5919 35.4819 10.5927 35.4812 10.5935L14.142 32.0373L14.1374 32.0419C8.69194 37.4873 8.69194 46.4708 14.1374 51.9162C19.5828 57.3617 28.5663 57.3617 34.0117 51.9162L54.7278 31.2002C55.7692 30.1588 57.4576 30.1588 58.499 31.2002C59.5404 32.2416 59.5404 33.93 58.499 34.9714L37.783 55.6875C30.2547 63.2157 17.8944 63.2157 10.3661 55.6875C2.83872 48.1601 2.83791 35.8016 10.3637 28.2731C10.3645 28.2723 10.3653 28.2715 10.3661 28.2707L31.7053 6.82686L31.7099 6.82224C37.2503 1.28191 46.2626 1.28191 51.8029 6.82224C57.3432 12.3626 57.3432 21.3749 51.8029 26.9152L51.798 26.9201L31.8193 46.7942C31.8181 46.7954 31.817 46.7965 31.8159 46.7976C28.3462 50.2636 22.7141 50.2061 19.1953 46.8339L19.1548 46.7942C15.6854 43.3248 15.7418 37.6903 19.1151 34.1703L19.1599 34.1246L38.4112 14.978C39.4554 13.9394 41.1439 13.944 42.1824 14.9883C43.221 16.0325 43.2164 17.7209 42.1721 18.7595L22.9464 37.8807C21.5337 39.3759 21.588 41.6629 22.9063 43.0032C24.4089 44.4223 26.7108 44.3602 28.048 43.023L28.053 43.0181L48.0317 23.144C48.0325 23.1431 48.0334 23.1423 48.0342 23.1414C51.4892 19.6836 51.4884 14.0502 48.0317 10.5935C44.5749 7.13671 38.9412 7.13594 35.4835 10.5912Z" fill="#18202A"/>
</svg>
