<svg width="64" height="64" viewBox="0 0 64 64" fill="none" xmlns="http://www.w3.org/2000/svg">
<path fill-rule="evenodd" clip-rule="evenodd" d="M10.6667 5.33337C7.72119 5.33337 5.33337 7.72119 5.33337 10.6667V13.3334C5.33337 16.2789 7.72119 18.6667 10.6667 18.6667H53.3334C56.2789 18.6667 58.6667 16.2789 58.6667 13.3334V10.6667C58.6667 7.72119 56.2789 5.33337 53.3334 5.33337H10.6667ZM8.00004 26.6667C8.00004 25.1939 9.19395 24 10.6667 24H53.3334C54.8061 24 56 25.1939 56 26.6667V34.1694C54.3199 33.6266 52.5275 33.3334 50.6667 33.3334C41.0938 33.3334 33.3334 41.0938 33.3334 50.6667C33.3334 54.6894 34.7037 58.3921 37.0031 61.3334H18.6667C12.7757 61.3334 8.00004 56.5577 8.00004 50.6667V26.6667ZM21.3334 32C21.3334 30.5273 22.5273 29.3334 24 29.3334H40C41.4728 29.3334 42.6667 30.5273 42.6667 32C42.6667 33.4728 41.4728 34.6667 40 34.6667H24C22.5273 34.6667 21.3334 33.4728 21.3334 32ZM64 50.6667C64 58.0305 58.0305 64 50.6667 64C43.3029 64 37.3334 58.0305 37.3334 50.6667C37.3334 43.3029 43.3029 37.3334 50.6667 37.3334C58.0305 37.3334 64 43.3029 64 50.6667ZM57.2664 44.067C58.0474 44.848 58.0474 46.1144 57.2664 46.8954L53.4951 50.6666L57.2664 54.4379C58.0474 55.2189 58.0474 56.4853 57.2664 57.2663C56.4853 58.0474 55.219 58.0474 54.4379 57.2663L50.6667 53.4951L46.8955 57.2663C46.1144 58.0474 44.8481 58.0474 44.067 57.2663C43.286 56.4853 43.286 55.2189 44.067 54.4379L47.8383 50.6666L44.067 46.8954C43.286 46.1144 43.286 44.848 44.067 44.067C44.8481 43.2859 46.1144 43.2859 46.8955 44.067L50.6667 47.8382L54.4379 44.067C55.219 43.2859 56.4853 43.2859 57.2664 44.067Z" fill="#18202A"/>
</svg>
