<svg width="64" height="64" viewBox="0 0 64 64" fill="none" xmlns="http://www.w3.org/2000/svg">
<path fill-rule="evenodd" clip-rule="evenodd" d="M46.9283 10.3518C47.3151 10.5587 47.7469 10.6669 48.1855 10.667H48C55.3638 10.667 61.3333 16.6365 61.3333 24.0003V45.3337C61.3333 52.6975 55.3638 58.667 48 58.667H16C8.63621 58.667 2.66667 52.6975 2.66667 45.3337V24.0003C2.66667 16.6365 8.63621 10.667 16 10.667H15.8138C16.2524 10.6669 16.6843 10.5587 17.0711 10.3518C17.4581 10.1448 17.7881 9.84544 18.0317 9.48033L20.197 6.22966C20.9275 5.13384 21.9172 4.2353 23.0783 3.61381C24.2394 2.99232 25.536 2.66709 26.853 2.66699H37.1463C38.4633 2.66709 39.7599 2.99232 40.921 3.61381C42.0821 4.2353 43.0719 5.13384 43.8023 6.22966L45.9677 9.48033C46.2113 9.84544 46.5412 10.1448 46.9283 10.3518ZM23.9063 26.0671C25.9655 23.9665 28.8292 22.667 32 22.667C36.9489 22.667 41.1569 25.8389 42.7019 30.2607L39.7172 30.6871C38.9164 30.8015 38.2633 31.387 38.0626 32.1706C37.8618 32.9542 38.1529 33.7816 38.8 34.267L44.1333 38.267C45.017 38.9297 46.2706 38.7506 46.9333 37.867L50.9333 32.5337C51.4187 31.8865 51.4664 31.0107 51.0543 30.3147C50.6422 29.6186 49.8513 29.2394 49.0505 29.3538L46.7183 29.6869C44.855 23.3185 38.9707 18.667 32 18.667C27.7111 18.667 23.8305 20.4305 21.0499 23.2669C20.2767 24.0557 20.2892 25.3219 21.078 26.0952C21.8668 26.8684 23.1331 26.8559 23.9063 26.0671ZM19.8667 29.7337C18.983 29.0709 17.7294 29.25 17.0667 30.1337L13.0667 35.467C12.5813 36.1141 12.5336 36.9899 12.9457 37.686C13.3579 38.382 14.1487 38.7613 14.9495 38.6469L17.2817 38.3137C19.145 44.6821 25.0293 49.3337 32 49.3337C36.2889 49.3337 40.1696 47.5701 42.9501 44.7337C43.7234 43.945 43.7108 42.6787 42.922 41.9055C42.1332 41.1322 40.867 41.1448 40.0937 41.9336C38.0345 44.0342 35.1708 45.3337 32 45.3337C27.0512 45.3337 22.8432 42.1617 21.2982 37.7399L24.2829 37.3136C25.0836 37.1992 25.7367 36.6136 25.9374 35.83C26.1382 35.0464 25.8472 34.219 25.2 33.7337L19.8667 29.7337Z" fill="#18202A"/>
</svg>
