<svg width="64" height="64" viewBox="0 0 64 64" fill="none" xmlns="http://www.w3.org/2000/svg">
<path fill-rule="evenodd" clip-rule="evenodd" d="M32 61.3333C48.2004 61.3333 61.3333 48.2003 61.3333 32C61.3333 15.7996 48.2004 2.66663 32 2.66663C15.7997 2.66663 2.66667 15.7996 2.66667 32C2.66667 48.2003 15.7997 61.3333 32 61.3333ZM44.5977 25.839C45.6134 24.7726 45.5722 23.0846 44.5057 22.0689C43.4392 21.0532 41.7513 21.0944 40.7356 22.1609L27.5327 36.0239L23.358 31.1534C22.3995 30.0352 20.7161 29.9057 19.5979 30.8642C18.4797 31.8226 18.3502 33.5061 19.3086 34.6243L25.4039 41.7354C25.8946 42.308 26.6049 42.646 27.3587 42.6657C28.1125 42.6855 28.8395 42.3851 29.3596 41.839L44.5977 25.839Z" fill="#18202A"/>
</svg>
