<svg width="64" height="64" viewBox="0 0 64 64" fill="none" xmlns="http://www.w3.org/2000/svg">
<path d="M24 13.3335C24 8.91522 27.5817 5.3335 32 5.3335C36.4183 5.3335 40 8.91522 40 13.3335V29.3335C40 33.7518 36.4183 37.3335 32 37.3335C27.5817 37.3335 24 33.7518 24 29.3335V13.3335Z" fill="#18202A"/>
<path d="M16.0001 29.3335C14.5273 29.3335 13.3134 30.5342 13.5213 31.9922C14.6876 40.1711 21.1556 46.6413 29.3333 47.8111V53.3335H22.6667C21.1939 53.3335 20 54.5274 20 56.0002C20 57.4729 21.1939 58.6668 22.6667 58.6668H41.3333C42.8061 58.6668 44 57.4729 44 56.0002C44 54.5274 42.8061 53.3335 41.3333 53.3335H34.6667V47.8111C42.8445 46.6414 49.3125 40.1712 50.4788 31.9922C50.6868 30.5342 49.4728 29.3335 48.0001 29.3335C46.5273 29.3335 45.3612 30.5394 45.0701 31.9831C43.8413 38.0776 38.4567 42.6668 32.0001 42.6668C25.5435 42.6668 20.1588 38.0776 18.93 31.9831C18.6389 30.5394 17.4728 29.3335 16.0001 29.3335Z" fill="#18202A"/>
</svg>
