<svg width="64" height="64" viewBox="0 0 64 64" fill="none" xmlns="http://www.w3.org/2000/svg">
<path d="M24.5523 11.219C25.5937 10.1776 25.5937 8.48919 24.5523 7.4478C23.5109 6.4064 21.8224 6.4064 20.781 7.4478L8.78105 19.4478C7.73965 20.4892 7.73965 22.1776 8.78105 23.219L20.781 35.219C21.8224 36.2604 23.5109 36.2604 24.5523 35.219C25.5937 34.1776 25.5937 32.4892 24.5523 31.4478L17.1046 24.0001H38.6667C45.2941 24.0001 50.6667 29.3727 50.6667 36.0001C50.6667 42.6275 45.2941 48.0001 38.6667 48.0001H21.3333C19.8606 48.0001 18.6667 49.194 18.6667 50.6668C18.6667 52.1395 19.8606 53.3334 21.3333 53.3334H38.6667C48.2396 53.3334 56 45.573 56 36.0001C56 26.4271 48.2396 18.6667 38.6667 18.6667H17.1046L24.5523 11.219Z" fill="#18202A"/>
</svg>
