<svg width="64" height="64" viewBox="0 0 64 64" fill="none" xmlns="http://www.w3.org/2000/svg">
<path d="M24 8.00004C24 6.52728 25.1939 5.33337 26.6667 5.33337H37.3334C38.8061 5.33337 40 6.52728 40 8.00004C40 9.4728 38.8061 10.6667 37.3334 10.6667H34.6667V53.3334H37.3334C38.8061 53.3334 40 54.5273 40 56C40 57.4728 38.8061 58.6667 37.3334 58.6667H26.6667C25.1939 58.6667 24 57.4728 24 56C24 54.5273 25.1939 53.3334 26.6667 53.3334H29.3334V10.6667H26.6667C25.1939 10.6667 24 9.4728 24 8.00004Z" fill="#18202A"/>
<path d="M5.33337 21.3334C5.33337 16.9151 8.9151 13.3334 13.3334 13.3334H26.6667V50.6667H13.3334C8.9151 50.6667 5.33337 47.085 5.33337 42.6667V21.3334Z" fill="#18202A"/>
<path d="M58.6667 21.3334C58.6667 16.9151 55.085 13.3334 50.6667 13.3334H37.3334V50.6667H50.6667C55.085 50.6667 58.6667 47.085 58.6667 42.6667V21.3334Z" fill="#18202A"/>
</svg>
