<svg width="64" height="64" viewBox="0 0 64 64" fill="none" xmlns="http://www.w3.org/2000/svg">
<g clip-path="url(#clip0_2359_18262)">
<path fill-rule="evenodd" clip-rule="evenodd" d="M29.3333 2.66699H18.6667C12.7756 2.66699 8 7.44262 8 13.3337V50.667C8 56.558 12.7756 61.3337 18.6667 61.3337H30.0322C27.8563 58.2172 26.6667 54.4869 26.6667 50.634C26.6667 46.0163 28.376 41.5651 31.5554 38.0325L32.1403 37.4185L40.2251 29.3337H34.6667H29.3333V24.0003V2.66699ZM55.521 24.0003H51.8225H34.6667V3.14603C35.2426 3.40812 35.7727 3.77305 36.2288 4.22909L54.4379 22.4382C54.894 22.8943 55.2589 23.4244 55.521 24.0003ZM55.7306 30.0796C54.5424 29.5872 53.2687 29.3337 51.9824 29.3337C50.6961 29.3337 49.4225 29.5871 48.2342 30.0797C47.0461 30.5721 45.9665 31.294 45.0573 32.2039L36.0715 41.1898L35.5853 41.7024C33.3856 44.1484 32.16 47.3281 32.16 50.634C32.16 54.1761 33.5669 57.5732 36.0713 60.078C38.5766 62.5829 41.9737 63.9899 45.5158 63.9899C49.0579 63.9899 52.455 62.5829 54.9599 60.0784L63.2267 51.8117L63.4485 51.5604C64.2619 50.5143 64.188 49.0017 63.2267 48.0404C62.1853 46.999 60.4969 46.999 59.4555 48.0404L51.1888 56.307L50.8018 56.6692C49.3435 57.9464 47.4662 58.6566 45.5158 58.6566C43.388 58.6566 41.3474 57.8114 39.8426 56.3068C38.3385 54.8024 37.4933 52.7618 37.4933 50.634C37.4933 48.5062 38.3385 46.4655 39.8429 44.9608L48.8294 35.9743L49.1544 35.6795C49.4928 35.4015 49.8707 35.1747 50.2763 35.0066C50.8172 34.7824 51.3969 34.667 51.9824 34.667C52.568 34.667 53.1477 34.7824 53.6885 35.0065C54.2294 35.2307 54.7208 35.5593 55.1347 35.9735C55.9709 36.8103 56.4405 37.9446 56.4405 39.1274C56.4405 40.3102 55.9709 41.4445 55.1349 42.281L46.8688 50.5471L46.7325 50.6592L46.5779 50.742C46.4694 50.7869 46.3532 50.8101 46.2358 50.8101C46.1184 50.8101 46.0021 50.7869 45.8936 50.742C45.7852 50.697 45.6867 50.6311 45.6038 50.5481C45.5186 50.4631 45.4528 50.3646 45.4078 50.2561C45.3628 50.1477 45.3397 50.0314 45.3397 49.914C45.3397 49.7966 45.3628 49.6804 45.4078 49.572C45.4527 49.4635 45.5186 49.365 45.6017 49.2821L51.7205 43.1606L51.9423 42.9093C52.7554 41.863 52.6812 40.3504 51.7197 39.3893C50.678 38.3482 48.9896 38.3485 47.9484 39.3902L41.8311 45.5102L41.499 45.8691C41.0757 46.3644 40.7317 46.9249 40.481 47.5297C40.1677 48.2855 40.0064 49.0958 40.0064 49.914C40.0064 50.7323 40.1677 51.5425 40.481 52.2984C40.7943 53.0543 41.2536 53.741 41.8325 54.3193C42.4087 54.8962 43.0955 55.3554 43.8514 55.6688C44.6073 55.9821 45.4175 56.1434 46.2358 56.1434C47.054 56.1434 47.8643 55.9821 48.6202 55.6688C49.3761 55.3555 50.0628 54.8962 50.6411 54.3173L58.9067 46.0517L59.3161 45.6163C60.8954 43.8306 61.7739 41.5243 61.7739 39.1274C61.7739 36.5307 60.7428 34.0403 58.9073 32.2037C57.9984 31.2939 56.9188 30.5721 55.7306 30.0796Z" fill="#18202A"/>
</g>
<defs>
<clipPath id="clip0_2359_18262">
<rect width="64" height="64" fill="white"/>
</clipPath>
</defs>
</svg>
