<svg width="64" height="64" viewBox="0 0 64 64" fill="none" xmlns="http://www.w3.org/2000/svg">
<path fill-rule="evenodd" clip-rule="evenodd" d="M13.3334 10.6665C8.9151 10.6665 5.33337 14.2482 5.33337 18.6665V42.6665C5.33337 47.0848 8.91509 50.6665 13.3334 50.6665H29.3334V53.3332H24C22.5273 53.3332 21.3334 54.5271 21.3334 55.9998C21.3334 57.4726 22.5273 58.6665 24 58.6665H40C41.4728 58.6665 42.6667 57.4726 42.6667 55.9998C42.6667 54.5271 41.4728 53.3332 40 53.3332H34.6667V50.6665H50.6667C55.085 50.6665 58.6667 47.0848 58.6667 42.6665V18.6665C58.6667 14.2482 55.085 10.6665 50.6667 10.6665H13.3334ZM53.3334 18.6665C53.3334 17.1937 52.1395 15.9998 50.6667 15.9998H13.3334C11.8606 15.9998 10.6667 17.1937 10.6667 18.6665V34.6665H53.3334V18.6665ZM50.6667 45.3332C52.1395 45.3332 53.3334 44.1393 53.3334 42.6665V39.9998H10.6667V42.6665C10.6667 44.1393 11.8606 45.3332 13.3334 45.3332H50.6667Z" fill="#18202A"/>
</svg>
