<svg width="64" height="64" viewBox="0 0 64 64" fill="none" xmlns="http://www.w3.org/2000/svg">
<path d="M58.6667 15.9998C60.1394 15.9998 61.3333 14.8059 61.3333 13.3332C61.3333 11.8604 60.1394 10.6665 58.6667 10.6665H5.33334C3.86058 10.6665 2.66667 11.8604 2.66667 13.3332C2.66667 14.8059 3.86058 15.9998 5.33334 15.9998H58.6667Z" fill="#18202A"/>
<path d="M58.6667 34.6665C60.1394 34.6665 61.3333 33.4726 61.3333 31.9998C61.3333 30.5271 60.1394 29.3332 58.6667 29.3332H5.33334C3.86058 29.3332 2.66667 30.5271 2.66667 31.9998C2.66667 33.4726 3.86058 34.6665 5.33334 34.6665H58.6667Z" fill="#18202A"/>
<path d="M58.6667 53.3332C60.1394 53.3332 61.3333 52.1393 61.3333 50.6665C61.3333 49.1937 60.1394 47.9998 58.6667 47.9998H5.33334C3.86058 47.9998 2.66667 49.1937 2.66667 50.6665C2.66667 52.1393 3.86058 53.3332 5.33334 53.3332H58.6667Z" fill="#18202A"/>
</svg>
