<svg width="64" height="64" viewBox="0 0 64 64" fill="none" xmlns="http://www.w3.org/2000/svg">
<path fill-rule="evenodd" clip-rule="evenodd" d="M2.66667 13.3337C2.66667 7.44262 7.4423 2.66699 13.3333 2.66699H50.6667C56.5577 2.66699 61.3333 7.44262 61.3333 13.3337V35.3462C58.3098 33.2372 54.6327 32.0003 50.6667 32.0003C49.5271 32.0003 48.4113 32.1024 47.3281 32.298C46.2638 32.0691 45.1568 31.9482 44.0202 31.9482C43.2219 31.9482 42.4381 32.0079 41.6735 32.1227C41.9082 32.2703 42.1393 32.4231 42.3668 32.5809C42.7521 32.8483 43.1036 33.1423 43.4215 33.4585C42.5302 33.8342 41.6741 34.2772 40.8597 34.781L40.8464 34.7717C38.3261 33.0228 35.2805 32.0003 32.0003 32.0003C28.7202 32.0003 25.6747 33.0228 23.1544 34.7717C21.1382 36.1707 20.4608 38.7865 21.2337 41.1156C21.5754 42.1454 21.9734 43.1487 22.4239 44.1218C23.2879 45.9878 25.0305 47.2926 27.0608 47.6187C28.67 47.8771 30.3198 48.0113 32.0003 48.0113C32.0628 48.0113 32.1252 48.0111 32.1876 48.0108C32.0639 48.8784 32 49.7652 32 50.667C32 54.633 33.2368 58.3101 35.3458 61.3337H13.3333C7.4423 61.3337 2.66667 56.558 2.66667 50.667V13.3337ZM32 29.3337C35.5556 29.3337 37.3333 26.0003 37.3333 21.8337C37.3333 18.5003 35.5556 16.0003 32 16.0003C28.4444 16.0003 26.6667 18.5003 26.6667 21.8337C26.6667 26.0003 28.4444 29.3337 32 29.3337ZM17.3333 29.3337C20 29.3337 21.3333 26.667 21.3333 23.3337C21.3333 20.667 20 18.667 17.3333 18.667C14.6667 18.667 13.3333 20.667 13.3333 23.3337C13.3333 26.667 14.6667 29.3337 17.3333 29.3337ZM50.6667 23.3337C50.6667 26.667 49.3333 29.3337 46.6667 29.3337C44 29.3337 42.6667 26.667 42.6667 23.3337C42.6667 20.667 44 18.667 46.6667 18.667C49.3333 18.667 50.6667 20.667 50.6667 23.3337ZM21.6341 32.5808C21.8364 32.4404 22.0416 32.3041 22.2497 32.1718C21.3886 32.0249 20.5022 31.9482 19.597 31.9482C17.091 31.9482 14.7284 32.5357 12.6514 33.5745C10.8883 34.4563 10.1469 36.5228 10.7354 38.4043C10.8497 38.7696 10.9714 39.1319 11.1003 39.491C11.6617 41.0547 13.0566 42.1579 14.7022 42.3864C16.0979 42.5803 17.5212 42.6924 18.9667 42.7177C18.8756 42.4652 18.7876 42.2111 18.7028 41.9555C17.6142 38.6752 18.5055 34.7519 21.6341 32.5808ZM64 50.667C64 58.0308 58.0305 64.0003 50.6667 64.0003C43.3029 64.0003 37.3333 58.0308 37.3333 50.667C37.3333 43.3032 43.3029 37.3337 50.6667 37.3337C58.0305 37.3337 64 43.3032 64 50.667ZM50 42.667C48.8954 42.667 48 43.5624 48 44.667V48.0003H44.6667C43.5621 48.0003 42.6667 48.8958 42.6667 50.0003V51.3337C42.6667 52.4382 43.5621 53.3337 44.6667 53.3337H48V56.667C48 57.7716 48.8954 58.667 50 58.667H51.3333C52.4379 58.667 53.3333 57.7716 53.3333 56.667V53.3337H56.6667C57.7712 53.3337 58.6667 52.4382 58.6667 51.3337V50.0003C58.6667 48.8958 57.7712 48.0003 56.6667 48.0003H53.3333V44.667C53.3333 43.5624 52.4379 42.667 51.3333 42.667H50Z" fill="#18202A"/>
</svg>
