<svg width="64" height="64" viewBox="0 0 64 64" fill="none" xmlns="http://www.w3.org/2000/svg">
<path fill-rule="evenodd" clip-rule="evenodd" d="M6.72117 31.0387V31.1756C6.72117 39.147 9.86348 45.13 14.7074 49.0544L16.0338 50.129L16.5777 56.6555L23.3714 53.52L24.7152 53.8381C27.0112 54.3817 29.4642 54.6665 32.0272 54.6665C47.6538 54.6665 57.3333 43.5445 57.3333 31.1756C57.3333 16.3209 46.2569 6.6665 32.0272 6.6665C17.7224 6.6665 5.85202 18.3545 6.71181 30.9021L6.72117 31.0387ZM61.3333 31.1756C61.3333 45.7961 49.8203 58.6665 32.0272 58.6665C29.1687 58.6665 26.4057 58.3489 23.7937 57.7305L16.5246 61.0855C14.8439 61.8612 12.9034 60.7305 12.7497 58.8857L12.1894 52.1624C6.36855 47.4465 2.72117 40.3017 2.72117 31.1756C1.67465 15.9029 15.8419 2.6665 32.0272 2.6665C48.2125 2.6665 61.3333 13.8665 61.3333 31.1756Z" fill="#18202A"/>
<path fill-rule="evenodd" clip-rule="evenodd" d="M44 34.6665C46.2091 34.6665 48 32.8756 48 30.6665C48 28.4574 46.2091 26.6665 44 26.6665C41.7909 26.6665 40 28.4574 40 30.6665C40 32.8756 41.7909 34.6665 44 34.6665Z" fill="#18202A"/>
<path fill-rule="evenodd" clip-rule="evenodd" d="M32 34.6665C34.2091 34.6665 36 32.8756 36 30.6665C36 28.4574 34.2091 26.6665 32 26.6665C29.7909 26.6665 28 28.4574 28 30.6665C28 32.8756 29.7909 34.6665 32 34.6665Z" fill="#18202A"/>
<path fill-rule="evenodd" clip-rule="evenodd" d="M20 34.6665C22.2091 34.6665 24 32.8756 24 30.6665C24 28.4574 22.2091 26.6665 20 26.6665C17.7909 26.6665 16 28.4574 16 30.6665C16 32.8756 17.7909 34.6665 20 34.6665Z" fill="#18202A"/>
</svg>
