<svg width="64" height="64" viewBox="0 0 64 64" fill="none" xmlns="http://www.w3.org/2000/svg">
<path d="M31.9339 18.6666C42.4674 18.6476 52.707 22.1382 61.0353 28.5874C61.8922 29.2365 62.5993 30.0626 63.1082 31.0094C63.6172 31.9563 63.9161 33.0017 63.9847 34.0745C64.0534 35.1473 63.89 36.2223 63.5058 37.2263C63.1857 38.0629 62.7185 38.8339 62.1276 39.5034L61.7584 39.8926L56.4674 45.1837C55.2252 46.4626 53.5673 47.2559 51.7921 47.4207C50.017 47.5856 48.2411 47.1114 46.7847 46.0832C46.3262 45.7304 45.85 45.3953 45.3738 45.0955C44.4113 44.489 43.4097 43.947 42.3755 43.4729C41.2596 42.9524 40.3757 42.0375 39.8938 40.9045C39.4722 39.913 39.3844 38.8158 39.6364 37.7766L39.7652 37.3353L40.0122 36.1007C37.3387 35.3384 34.5732 34.9468 31.7933 34.9366C29.3609 34.9456 26.9396 35.2466 24.5812 35.8322L23.5745 36.1006L23.9802 37.2823C24.3793 38.4472 24.3334 39.7185 23.8516 40.8515C23.3696 41.9847 22.4858 42.8995 21.3699 43.42C20.5918 43.7708 19.8337 44.1635 19.0988 44.5964L17.6419 45.4945C17.4016 45.651 17.1723 45.8186 16.9783 46.0126C15.5561 47.0024 13.8343 47.468 12.1072 47.3295C10.5717 47.2066 9.11643 46.6134 7.93643 45.6378L7.50716 45.2543L2.21609 39.9632C1.46417 39.2181 0.878797 38.322 0.498721 37.3338C0.118822 36.3458 -0.0473174 35.2883 0.0115899 34.2311C0.106988 32.5786 0.747107 31.0096 1.82369 29.7656L2.19856 29.3633L2.86876 28.6931C11.1736 22.2137 21.4004 18.6858 31.9339 18.6666ZM31.9412 22.6667C22.6677 22.6835 13.6539 25.6706 6.21438 31.1743L5.49867 31.7172L5.12492 32.0903L4.84827 32.3832C4.34621 32.9633 4.04925 33.6941 4.00539 34.4537C3.97798 34.9457 4.0553 35.4381 4.2321 35.8979C4.36478 36.2429 4.55122 36.5638 4.7893 36.8544L5.04452 37.1348L10.1722 42.2714L10.4852 42.555C11.0354 43.0099 11.7132 43.2852 12.4268 43.3423C13.0963 43.396 13.7643 43.2545 14.3515 42.9392L14.5493 42.8159L14.7819 42.6256L15.1396 42.3611L15.5428 42.0895L17.0688 41.1497C17.929 40.6431 18.8159 40.1837 19.6791 39.7949C19.9 39.6918 20.0751 39.5106 20.1706 39.2861C20.2422 39.1177 20.2652 38.9339 20.2392 38.7561L20.1969 38.5811L19.3269 36.0469C18.8248 34.5842 19.6681 33.0025 21.1624 32.6043L23.6172 31.9501C26.2872 31.2871 29.0271 30.9468 31.808 30.9366C34.5611 30.9468 37.3013 31.2874 39.9699 31.9502L41.109 32.254L42.2921 32.5914C43.6286 32.9725 44.4483 34.316 44.1758 35.6788L43.6876 38.1197L43.605 38.4562L43.5237 38.7194C43.4737 38.9257 43.4914 39.1431 43.5747 39.3389C43.6703 39.5636 43.8454 39.7448 44.0422 39.8367C45.2373 40.3845 46.3946 41.0108 47.505 41.7106C48.0808 42.0731 48.6588 42.4782 49.0917 42.8155C49.7693 43.2939 50.5959 43.5146 51.4221 43.4379C52.1303 43.3721 52.7984 43.0915 53.3646 42.6117L53.6389 42.3553L58.8562 37.14L59.1285 36.8566C59.4039 36.5446 59.6212 36.1857 59.77 35.7968C59.9488 35.3294 60.0248 34.8291 59.9929 34.3298C59.961 33.8305 59.8218 33.3439 59.5849 32.9032C59.348 32.4625 59.019 32.078 58.5863 31.75C51.2542 26.0723 42.3043 22.899 33.0527 22.6789L31.9412 22.6667Z" fill="#18202A"/>
</svg>
