<svg width="64" height="64" viewBox="0 0 64 64" fill="none" xmlns="http://www.w3.org/2000/svg">
<path d="M61.6096 6.95127C62.3544 6.12454 62.3366 4.80329 61.5699 4.00018C60.8032 3.19707 59.5778 3.21622 58.833 4.04295L35.1917 30.2842L25.5178 18.9261C24.7948 18.0771 23.5704 18.021 22.7831 18.8006C21.9958 19.5802 21.9437 20.9004 22.6667 21.7493L33.7266 34.7348C34.0868 35.1577 34.5926 35.4019 35.125 35.4099C35.6574 35.418 36.1694 35.1892 36.5404 34.7774L61.6096 6.95127Z" fill="#18202A"/>
<path d="M13.3334 5.33333C7.44232 5.33333 2.66669 10.109 2.66669 16V40C2.66669 45.0061 6.11528 49.2067 10.7664 50.3558C11.5886 50.5589 12.4484 50.6667 13.3333 50.6667H14.7879L13.2417 58.0614C12.7667 60.3334 15.2198 62.0855 17.2148 60.8993L34.4243 50.6667H50.6667C56.5577 50.6667 61.3334 45.891 61.3334 40V26C61.3334 24.8954 60.4379 24 59.3334 24C58.2288 24 57.3334 24.8954 57.3334 26V40C57.3334 43.6819 54.3486 46.6667 50.6667 46.6667H34.4243C33.7047 46.6667 32.9984 46.8608 32.38 47.2285L17.7779 55.9108L18.7032 51.4853C18.9497 50.3063 18.6519 49.079 17.8923 48.1442C17.1327 47.2094 15.9924 46.6667 14.7879 46.6667H13.3333C9.65145 46.6667 6.66669 43.6819 6.66669 40V16C6.66669 12.3181 9.65145 9.33333 13.3334 9.33333H38C39.1046 9.33333 40 8.4379 40 7.33333C40 6.22876 39.1046 5.33333 38 5.33333H13.3334Z" fill="#18202A"/>
</svg>
