<svg width="64" height="64" viewBox="0 0 64 64" fill="none" xmlns="http://www.w3.org/2000/svg">
<path d="M46.906 11.9024C47.5884 11.0338 47.4375 9.7765 46.569 9.09407C45.7004 8.41165 44.4431 8.56252 43.7607 9.43107L15.8201 44.9918L9.41421 38.5858C8.63316 37.8048 7.36683 37.8048 6.58579 38.5858C5.80474 39.3669 5.80474 40.6332 6.58579 41.4143L14.5858 49.4143C14.9902 49.8187 15.5484 50.0306 16.1194 49.9965C16.6903 49.9623 17.2193 49.6854 17.5726 49.2357L46.906 11.9024Z" fill="#18202A"/>
<path d="M50.6667 19.3333C49.5621 19.3333 48.6667 20.2287 48.6667 21.3333C48.6667 22.4379 49.5621 23.3333 50.6667 23.3333H56C57.1046 23.3333 58 22.4379 58 21.3333C58 20.2287 57.1046 19.3333 56 19.3333H50.6667Z" fill="#18202A"/>
<path d="M38 34.6666C38 33.5621 38.8954 32.6666 40 32.6666H56C57.1046 32.6666 58 33.5621 58 34.6666C58 35.7712 57.1046 36.6666 56 36.6666H40C38.8954 36.6666 38 35.7712 38 34.6666Z" fill="#18202A"/>
<path d="M29.3333 46C28.2288 46 27.3333 46.8954 27.3333 48C27.3333 49.1045 28.2288 50 29.3333 50H56C57.1046 50 58 49.1045 58 48C58 46.8954 57.1046 46 56 46H29.3333Z" fill="#18202A"/>
</svg>
