<svg width="64" height="64" viewBox="0 0 64 64" fill="none" xmlns="http://www.w3.org/2000/svg">
<path d="M32 2.66675C29.0544 2.66675 26.6666 5.05456 26.6666 8.00008V16.0001H37.3333V8.00008C37.3333 5.05456 34.9455 2.66675 32 2.66675Z" fill="#18202A"/>
<path fill-rule="evenodd" clip-rule="evenodd" d="M26.6666 21.3334C23.7211 21.3334 21.3333 18.9456 21.3333 16.0001V10.6667H13.3333C7.44226 10.6667 2.66663 15.4424 2.66663 21.3334V48.0001C2.66663 53.8911 7.44226 58.6667 13.3333 58.6667H50.6666C56.5577 58.6667 61.3333 53.8911 61.3333 48.0001V21.3334C61.3333 15.4424 56.5577 10.6667 50.6666 10.6667H42.6666V16.0001C42.6666 18.9456 40.2788 21.3334 37.3333 21.3334H26.6666ZM21.3333 37.3334C24.2788 37.3334 26.6666 34.9456 26.6666 32.0001C26.6666 29.0546 24.2788 26.6667 21.3333 26.6667C18.3878 26.6667 16 29.0546 16 32.0001C16 34.9456 18.3878 37.3334 21.3333 37.3334ZM19.3333 40.0001C16.0196 40.0001 13.3333 42.6864 13.3333 46.0001C13.3333 47.1047 14.2287 48.0001 15.3333 48.0001H27.3333C28.4379 48.0001 29.3333 47.1047 29.3333 46.0001C29.3333 42.6864 26.647 40.0001 23.3333 40.0001H19.3333ZM37.3333 32.0001C37.3333 30.5273 38.5272 29.3334 40 29.3334H50.6666C52.1394 29.3334 53.3333 30.5273 53.3333 32.0001C53.3333 33.4728 52.1394 34.6667 50.6666 34.6667H40C38.5272 34.6667 37.3333 33.4728 37.3333 32.0001ZM40 40.0001C38.5272 40.0001 37.3333 41.194 37.3333 42.6667C37.3333 44.1395 38.5272 45.3334 40 45.3334H50.6666C52.1394 45.3334 53.3333 44.1395 53.3333 42.6667C53.3333 41.194 52.1394 40.0001 50.6666 40.0001H40Z" fill="#18202A"/>
</svg>
