<svg width="64" height="64" viewBox="0 0 64 64" fill="none" xmlns="http://www.w3.org/2000/svg">
<path fill-rule="evenodd" clip-rule="evenodd" d="M2.66667 13.3332C2.66667 7.44213 7.4423 2.6665 13.3333 2.6665H50.6667C56.5577 2.6665 61.3333 7.44213 61.3333 13.3332V37.3332C61.3333 43.2242 56.5577 47.9998 50.6667 47.9998H34.4242L17.2148 58.2325C15.2198 59.4187 12.7667 57.6665 13.2417 55.3946L14.7879 47.9998H13.3333C7.4423 47.9998 2.66667 43.2242 2.66667 37.3332V13.3332ZM16 17.9998C16 16.8953 16.8954 15.9998 18 15.9998H46C47.1046 15.9998 48 16.8953 48 17.9998V19.3332C48 20.4377 47.1046 21.3332 46 21.3332H18C16.8954 21.3332 16 20.4377 16 19.3332V17.9998ZM18 29.3332C16.8954 29.3332 16 30.2286 16 31.3332V32.6665C16 33.7711 16.8954 34.6665 18 34.6665H38C39.1046 34.6665 40 33.7711 40 32.6665V31.3332C40 30.2286 39.1046 29.3332 38 29.3332H18Z" fill="#18202A"/>
</svg>
