<svg width="64" height="64" viewBox="0 0 64 64" fill="none" xmlns="http://www.w3.org/2000/svg">
<path fill-rule="evenodd" clip-rule="evenodd" d="M13.3333 11.333C14.4379 11.333 15.3333 12.2284 15.3333 13.333V21.333C15.3333 29.065 21.6013 35.333 29.3333 35.333H48.5049L38.5858 25.4139C37.8047 24.6328 37.8047 23.3665 38.5858 22.5855C39.3668 21.8044 40.6331 21.8044 41.4142 22.5855L54.7475 35.9188C55.5286 36.6998 55.5286 37.9662 54.7475 38.7472L41.4142 52.0806C40.6331 52.8616 39.3668 52.8616 38.5858 52.0806C37.8047 51.2995 37.8047 50.0332 38.5858 49.2521L48.5049 39.333H29.3333C19.3922 39.333 11.3333 31.2741 11.3333 21.333V13.333C11.3333 12.2284 12.2287 11.333 13.3333 11.333Z" fill="#18202A"/>
</svg>
