<svg width="64" height="64" viewBox="0 0 64 64" fill="none" xmlns="http://www.w3.org/2000/svg">
<path fill-rule="evenodd" clip-rule="evenodd" d="M10.6666 5.33337C7.72113 5.33337 5.33331 7.72119 5.33331 10.6667V16C5.33331 18.9456 7.72113 21.3334 10.6666 21.3334H14V48C14 52.0501 17.2832 55.3334 21.3333 55.3334H40.3877C41.1788 57.2879 43.0951 58.6667 45.3333 58.6667H53.3333C56.2788 58.6667 58.6666 56.2789 58.6666 53.3334V50.6667C58.6666 47.7212 56.2788 45.3334 53.3333 45.3334H45.3333C42.3878 45.3334 40 47.7212 40 50.6667V51.3334H21.3333C19.4924 51.3334 18 49.841 18 48V36.6667H40.3877C41.1788 38.6213 43.0951 40 45.3333 40H53.3333C56.2788 40 58.6666 37.6122 58.6666 34.6667V32C58.6666 29.0545 56.2788 26.6667 53.3333 26.6667H45.3333C42.3878 26.6667 40 29.0545 40 32V32.6667H18V21.3334H24C26.9455 21.3334 29.3333 18.9456 29.3333 16V10.6667C29.3333 7.72119 26.9455 5.33337 24 5.33337H10.6666ZM9.33331 10.6667C9.33331 9.93033 9.93027 9.33337 10.6666 9.33337H24C24.7364 9.33337 25.3333 9.93033 25.3333 10.6667V16C25.3333 16.7364 24.7364 17.3334 24 17.3334H10.6666C9.93027 17.3334 9.33331 16.7364 9.33331 16V10.6667ZM54.6666 32C54.6666 31.2637 54.0697 30.6667 53.3333 30.6667H45.3333C44.5969 30.6667 44 31.2637 44 32V34.6667C44 35.4031 44.5969 36 45.3333 36H53.3333C54.0697 36 54.6666 35.4031 54.6666 34.6667V32ZM44 50.6667C44 49.9303 44.5969 49.3334 45.3333 49.3334H53.3333C54.0697 49.3334 54.6666 49.9303 54.6666 50.6667V53.3334C54.6666 54.0698 54.0697 54.6667 53.3333 54.6667H45.3333C44.5969 54.6667 44 54.0698 44 53.3334V50.6667Z" fill="#18202A"/>
</svg>
