<svg width="64" height="64" viewBox="0 0 64 64" fill="none" xmlns="http://www.w3.org/2000/svg">
<g clip-path="url(#clip0_3916_8784)">
<path d="M44.7476 35.4949C45.1226 35.1199 45.3333 34.6112 45.3333 34.0807C45.3333 33.5503 45.1226 33.0416 44.7476 32.6665L37.4142 25.3332C36.6332 24.5521 35.3668 24.5521 34.5858 25.3332C33.8047 26.1142 33.8047 27.3806 34.5858 28.1616L38.4237 31.9995L20.6667 31.9995C19.5621 31.9995 18.6667 32.895 18.6667 33.9995C18.6667 35.1041 19.5621 35.9995 20.6667 35.9995L38.5861 35.9995L34.5858 39.9998C33.8047 40.7809 33.8047 42.0472 34.5858 42.8283C35.3668 43.6093 36.6332 43.6093 37.4142 42.8283L44.7476 35.4949Z" fill="#18202A"/>
<path fill-rule="evenodd" clip-rule="evenodd" d="M13.3334 8C7.44232 8 2.66669 12.7756 2.66669 18.6667V45.3333C2.66669 51.2244 7.44232 56 13.3334 56H50.6667C56.5577 56 61.3334 51.2244 61.3334 45.3333V24C61.3334 18.109 56.5577 13.3333 50.6667 13.3333H32L29.0098 10.3431C27.5095 8.84286 25.4747 8 23.353 8H13.3334ZM30.3432 17.3333L26.1814 13.1716C25.4313 12.4214 24.4138 12 23.353 12H13.3334C9.65146 12 6.66669 14.9848 6.66669 18.6667V45.3333C6.66669 49.0152 9.65146 52 13.3334 52H50.6667C54.3486 52 57.3334 49.0152 57.3334 45.3333V24C57.3334 20.3181 54.3486 17.3333 50.6667 17.3333H30.3432Z" fill="#18202A"/>
</g>
<defs>
<clipPath id="clip0_3916_8784">
<rect width="64" height="64" fill="white"/>
</clipPath>
</defs>
</svg>
