<svg width="64" height="64" viewBox="0 0 64 64" fill="none" xmlns="http://www.w3.org/2000/svg">
<path fill-rule="evenodd" clip-rule="evenodd" d="M15.219 22.1145C16.2604 23.1559 16.2604 24.8443 15.219 25.8857L9.10458 32.0001L15.219 38.1145C16.2604 39.1559 16.2604 40.8443 15.219 41.8857C14.1776 42.9271 12.4891 42.9271 11.4477 41.8857L3.44772 33.8857C2.40632 32.8443 2.40632 31.1559 3.44772 30.1145L11.4477 22.1145C12.4891 21.0731 14.1776 21.0731 15.219 22.1145Z" fill="#18202A"/>
<path fill-rule="evenodd" clip-rule="evenodd" d="M30.1144 3.4478C31.1558 2.4064 32.8442 2.4064 33.8856 3.4478L41.8856 11.4478C42.927 12.4892 42.927 14.1776 41.8856 15.219C40.8442 16.2604 39.1558 16.2604 38.1144 15.219L32 9.10465L25.8856 15.219C24.8442 16.2604 23.1558 16.2604 22.1144 15.219C21.073 14.1776 21.073 12.4892 22.1144 11.4478L30.1144 3.4478Z" fill="#18202A"/>
<path fill-rule="evenodd" clip-rule="evenodd" d="M22.1144 48.7811C23.1558 47.7397 24.8442 47.7397 25.8856 48.7811L32 54.8955L38.1144 48.7811C39.1558 47.7397 40.8442 47.7397 41.8856 48.7811C42.927 49.8225 42.927 51.511 41.8856 52.5524L33.8856 60.5524C32.8442 61.5938 31.1558 61.5938 30.1144 60.5524L22.1144 52.5524C21.073 51.511 21.073 49.8225 22.1144 48.7811Z" fill="#18202A"/>
<path fill-rule="evenodd" clip-rule="evenodd" d="M48.7811 22.1145C49.8225 21.0731 51.5109 21.0731 52.5523 22.1145L60.5523 30.1145C61.5937 31.1559 61.5937 32.8443 60.5523 33.8857L52.5523 41.8857C51.5109 42.9271 49.8225 42.9271 48.7811 41.8857C47.7397 40.8443 47.7397 39.1559 48.7811 38.1145L54.8954 32.0001L48.7811 25.8857C47.7397 24.8443 47.7397 23.1559 48.7811 22.1145Z" fill="#18202A"/>
<path fill-rule="evenodd" clip-rule="evenodd" d="M2.66667 32.0001C2.66667 30.5273 3.86058 29.3334 5.33334 29.3334H58.6667C60.1394 29.3334 61.3333 30.5273 61.3333 32.0001C61.3333 33.4728 60.1394 34.6667 58.6667 34.6667H5.33334C3.86058 34.6667 2.66667 33.4728 2.66667 32.0001Z" fill="#18202A"/>
<path fill-rule="evenodd" clip-rule="evenodd" d="M32 2.66675C33.4728 2.66675 34.6667 3.86066 34.6667 5.33341V58.6667C34.6667 60.1395 33.4728 61.3334 32 61.3334C30.5272 61.3334 29.3333 60.1395 29.3333 58.6667V5.33341C29.3333 3.86066 30.5272 2.66675 32 2.66675Z" fill="#18202A"/>
</svg>
