<svg width="64" height="64" viewBox="0 0 64 64" fill="none" xmlns="http://www.w3.org/2000/svg">
<g clip-path="url(#clip0_2359_21106)">
<path fill-rule="evenodd" clip-rule="evenodd" d="M13.3333 45.3331L28.8356 59.5023C33.1139 63.4126 40 60.3775 40 54.5814V9.41883C40 3.62279 33.1141 0.587602 28.8358 4.49783L13.3333 18.6664H8C3.58172 18.6664 0 22.2481 0 26.6664V37.3331C0 41.7514 3.58172 45.3331 8 45.3331H13.3333ZM14.8859 41.3331L31.5343 56.5497C33.2456 58.1139 36 56.8998 36 54.5814V9.41883C36 7.1004 33.2456 5.88634 31.5343 7.45042L14.8859 22.6664H14.6667V41.3331H14.8859ZM8 22.6664H10.6667V41.3331H8C5.79086 41.3331 4 39.5422 4 37.3331V26.6664C4 24.4573 5.79086 22.6664 8 22.6664Z" fill="#18202A"/>
<path d="M45.908 25.5324C45.198 24.6863 45.3083 23.4248 46.1545 22.7148C47.0006 22.0048 48.2622 22.1151 48.9722 22.9613L54.725 29.8173L60.4779 22.9613C61.1879 22.1151 62.4494 22.0048 63.2956 22.7148C64.1417 23.4248 64.2521 24.6863 63.5421 25.5324L57.3358 32.9287L63.542 40.325C64.252 41.1711 64.1416 42.4326 63.2955 43.1426C62.4494 43.8526 61.1878 43.7423 60.4778 42.8961L54.725 36.0402L48.9722 42.8961C48.2622 43.7423 47.0007 43.8526 46.1546 43.1426C45.3084 42.4326 45.198 41.1711 45.908 40.325L52.1142 32.9287L45.908 25.5324Z" fill="#18202A"/>
</g>
<defs>
<clipPath id="clip0_2359_21106">
<rect width="64" height="64" fill="white"/>
</clipPath>
</defs>
</svg>
