<svg width="64" height="64" viewBox="0 0 64 64" fill="none" xmlns="http://www.w3.org/2000/svg">
<path fill-rule="evenodd" clip-rule="evenodd" d="M16 4.66669C16 3.56212 16.8955 2.66669 18 2.66669C19.1046 2.66669 20 3.56212 20 4.66669V8.00002H44V4.66669C44 3.56212 44.8955 2.66669 46 2.66669C47.1046 2.66669 48 3.56212 48 4.66669V8.00002H50.6667C56.5577 8.00002 61.3334 12.7757 61.3334 18.6667V37.0031C60.1194 36.0541 58.7757 35.2633 57.3334 34.6618V18.6667C57.3334 14.9848 54.3486 12 50.6667 12H48V16.6667C48 17.7713 47.1046 18.6667 46 18.6667C44.8955 18.6667 44 17.7713 44 16.6667V12H20V16.6667C20 17.7713 19.1046 18.6667 18 18.6667C16.8955 18.6667 16 17.7713 16 16.6667V12H13.3334C9.65146 12 6.66669 14.9848 6.66669 18.6667V50.6667C6.66669 54.3486 9.65146 57.3334 13.3334 57.3334H34.6618C35.2633 58.7757 36.0541 60.1194 37.0031 61.3334H13.3334C7.44232 61.3334 2.66669 56.5577 2.66669 50.6667V18.6667C2.66669 12.7757 7.44232 8.00002 13.3334 8.00002H16V4.66669ZM37.3334 34.6667C38.6993 34.6667 39.8253 35.6937 39.9815 37.0176C38.8783 37.8825 37.8825 38.8783 37.0176 39.9815C35.6937 39.8253 34.6667 38.6993 34.6667 37.3334C34.6667 35.8606 35.8606 34.6667 37.3334 34.6667ZM13.3334 26C13.3334 24.8955 14.2288 24 15.3334 24H48.6667C49.7713 24 50.6667 24.8955 50.6667 26C50.6667 27.1046 49.7713 28 48.6667 28H15.3334C14.2288 28 13.3334 27.1046 13.3334 26ZM16 34.6667C14.5273 34.6667 13.3334 35.8606 13.3334 37.3334C13.3334 38.8061 14.5273 40 16 40C17.4728 40 18.6667 38.8061 18.6667 37.3334C18.6667 35.8606 17.4728 34.6667 16 34.6667ZM13.3334 48C13.3334 46.5273 14.5273 45.3334 16 45.3334C17.4728 45.3334 18.6667 46.5273 18.6667 48C18.6667 49.4728 17.4728 50.6667 16 50.6667C14.5273 50.6667 13.3334 49.4728 13.3334 48ZM26.6667 34.6667C25.1939 34.6667 24 35.8606 24 37.3334C24 38.8061 25.1939 40 26.6667 40C28.1394 40 29.3334 38.8061 29.3334 37.3334C29.3334 35.8606 28.1394 34.6667 26.6667 34.6667ZM24 48C24 46.5273 25.1939 45.3334 26.6667 45.3334C28.1394 45.3334 29.3334 46.5273 29.3334 48C29.3334 49.4728 28.1394 50.6667 26.6667 50.6667C25.1939 50.6667 24 49.4728 24 48ZM64 50.6667C64 58.0305 58.0305 64 50.6667 64C43.3029 64 37.3334 58.0305 37.3334 50.6667C37.3334 43.3029 43.3029 37.3334 50.6667 37.3334C58.0305 37.3334 64 43.3029 64 50.6667ZM50.6667 42.6667C51.7713 42.6667 52.6667 43.5621 52.6667 44.6667V48.6667H56.6667C57.7713 48.6667 58.6667 49.5621 58.6667 50.6667C58.6667 51.7713 57.7713 52.6667 56.6667 52.6667H52.6667V56.6667C52.6667 57.7713 51.7713 58.6667 50.6667 58.6667C49.5621 58.6667 48.6667 57.7713 48.6667 56.6667V52.6667H44.6667C43.5621 52.6667 42.6667 51.7713 42.6667 50.6667C42.6667 49.5621 43.5621 48.6667 44.6667 48.6667H48.6667V44.6667C48.6667 43.5621 49.5621 42.6667 50.6667 42.6667Z" fill="#18202A"/>
</svg>
