<svg width="64" height="64" viewBox="0 0 64 64" fill="none" xmlns="http://www.w3.org/2000/svg">
<g clip-path="url(#clip0_3923_8883)">
<path d="M45.3335 6.66699C49.0154 6.66699 52.0002 9.65176 52.0002 13.3337V50.667C52.0002 54.3489 49.0154 57.3337 45.3335 57.3337H26C24.8954 57.3337 24 58.2291 24 59.3337C24 60.4382 24.8954 61.3337 26 61.3337H45.3335C51.2245 61.3337 56.0002 56.558 56.0002 50.667V13.3337C56.0002 7.44262 51.2245 2.66699 45.3335 2.66699H18.6668C12.7758 2.66699 8.00016 7.44262 8.00016 13.3337V27.3337C8.00016 28.4382 8.89559 29.3337 10.0002 29.3337C11.1047 29.3337 12.0002 28.4382 12.0002 27.3337L12.0002 13.3337C12.0002 9.65176 14.9849 6.66699 18.6668 6.66699L45.3335 6.66699Z" fill="#18202A"/>
<path d="M32 27.3337C32 26.2291 32.8954 25.3337 34 25.3337H46C47.1046 25.3337 48 26.2291 48 27.3337C48 28.4382 47.1046 29.3337 46 29.3337H34C32.8954 29.3337 32 28.4382 32 27.3337Z" fill="#18202A"/>
<path d="M37.3333 39.3337C37.3333 38.2291 38.2288 37.3337 39.3333 37.3337H46C47.1046 37.3337 48 38.2291 48 39.3337C48 40.4382 47.1046 41.3337 46 41.3337H39.3333C38.2288 41.3337 37.3333 40.4382 37.3333 39.3337Z" fill="#18202A"/>
<path d="M21.3333 15.3337C21.3333 14.2291 22.2288 13.3337 23.3333 13.3337H46C47.1046 13.3337 48 14.2291 48 15.3337C48 16.4382 47.1046 17.3337 46 17.3337H23.3333C22.2288 17.3337 21.3333 16.4382 21.3333 15.3337Z" fill="#18202A"/>
<path d="M23.3359 34.6683C23.7018 34.6683 23.9984 34.9695 23.9985 35.341L24 49.19C24.0001 49.7895 23.2863 50.0897 22.8688 49.6658L19.1676 45.9078C18.9088 45.645 18.4858 45.6478 18.2301 45.9136C12.4991 51.8715 11.9091 55.229 13.0153 60.5188C13.1556 61.1897 12.3696 61.6266 11.9371 61.0999C5.12501 52.8035 8.27792 45.5047 12.9353 40.531C13.1874 40.2617 13.1881 39.8364 12.9293 39.5736L9.22803 35.8156C8.81056 35.3917 9.10626 34.6669 9.69665 34.667L23.3359 34.6683Z" fill="#18202A"/>
</g>
<defs>
<clipPath id="clip0_3923_8883">
<rect width="64" height="64" fill="white"/>
</clipPath>
</defs>
</svg>
