<svg width="64" height="64" viewBox="0 0 64 64" fill="none" xmlns="http://www.w3.org/2000/svg">
<path fill-rule="evenodd" clip-rule="evenodd" d="M5.33331 13.333C5.33331 8.91473 8.91504 5.33301 13.3333 5.33301H18.6666C19.7712 5.33301 20.6666 6.22844 20.6666 7.33301C20.6666 8.43758 19.7712 9.33301 18.6666 9.33301H13.3333C11.1242 9.33301 9.33331 11.1239 9.33331 13.333V18.6663C9.33331 19.7709 8.43788 20.6663 7.33331 20.6663C6.22874 20.6663 5.33331 19.7709 5.33331 18.6663V13.333ZM21.3333 29.333C20.2288 29.333 19.3333 28.4376 19.3333 27.333V23.333C19.3333 22.2284 20.2288 21.333 21.3333 21.333C22.4379 21.333 23.3333 22.2284 23.3333 23.333V27.333C23.3333 28.4376 22.4379 29.333 21.3333 29.333ZM30 23.333V31.9997C30 32.3679 29.7016 32.6663 29.3333 32.6663H28.6666C27.5621 32.6663 26.6666 33.5618 26.6666 34.6663C26.6666 35.7709 27.5621 36.6663 28.6666 36.6663H29.3333C31.9106 36.6663 34 34.577 34 31.9997V23.333C34 22.2284 33.1045 21.333 32 21.333C30.8954 21.333 30 22.2284 30 23.333ZM41.6641 41.5572C41.0514 40.6381 39.8096 40.3898 38.8906 41.0025C38.478 41.2775 37.6979 41.7233 36.6877 42.1723C35.0466 42.9016 33.4282 43.3332 32 43.3332C30.5718 43.3332 28.9534 42.9016 27.3123 42.1723C26.3021 41.7233 25.522 41.2775 25.1094 41.0025C24.1903 40.3898 22.9486 40.6381 22.3359 41.5572C21.7232 42.4762 21.9715 43.718 22.8906 44.3307C23.478 44.7222 24.4479 45.2765 25.6877 45.8275C27.7966 46.7648 29.9282 47.3332 32 47.3332C34.0718 47.3332 36.2034 46.7648 38.3123 45.8275C39.1979 45.4339 39.9457 45.0387 40.5149 44.7023L41.1094 44.3307C42.0284 43.718 42.2768 42.4762 41.6641 41.5572ZM40.6666 27.333C40.6666 28.4376 41.5621 29.333 42.6666 29.333C43.7712 29.333 44.6666 28.4376 44.6666 27.333V23.333C44.6666 22.2284 43.7712 21.333 42.6666 21.333C41.5621 21.333 40.6666 22.2284 40.6666 23.333V27.333ZM13.3333 58.6663C8.91504 58.6663 5.33331 55.0846 5.33331 50.6663V45.333C5.33331 44.2284 6.22874 43.333 7.33331 43.333C8.43788 43.333 9.33331 44.2284 9.33331 45.333V50.6663C9.33331 52.8755 11.1242 54.6663 13.3333 54.6663H18.6666C19.7712 54.6663 20.6666 55.5618 20.6666 56.6663C20.6666 57.7709 19.7712 58.6663 18.6666 58.6663H13.3333ZM58.6666 13.333C58.6666 8.91473 55.0849 5.33301 50.6666 5.33301H45.3333C44.2287 5.33301 43.3333 6.22844 43.3333 7.33301C43.3333 8.43758 44.2287 9.33301 45.3333 9.33301H50.6666C52.8758 9.33301 54.6666 11.1239 54.6666 13.333V18.6663C54.6666 19.7709 55.5621 20.6663 56.6666 20.6663C57.7712 20.6663 58.6666 19.7709 58.6666 18.6663V13.333ZM50.6666 58.6663C55.0849 58.6663 58.6666 55.0846 58.6666 50.6663V45.333C58.6666 44.2284 57.7712 43.333 56.6666 43.333C55.5621 43.333 54.6666 44.2284 54.6666 45.333V50.6663C54.6666 52.8755 52.8758 54.6663 50.6666 54.6663H45.3333C44.2287 54.6663 43.3333 55.5618 43.3333 56.6663C43.3333 57.7709 44.2287 58.6663 45.3333 58.6663H50.6666Z" fill="#18202A"/>
</svg>
