<svg width="64" height="64" viewBox="0 0 64 64" fill="none" xmlns="http://www.w3.org/2000/svg">
<path d="M13.3333 8C8.91505 8 5.33333 11.5817 5.33333 16V18.6667C5.33333 23.0849 8.91505 26.6667 13.3333 26.6667H16C20.4183 26.6667 24 23.0849 24 18.6667V16C24 15.2374 23.8933 14.4997 23.694 13.8011L16.0809 21.4142C15.2998 22.1953 14.0335 22.1953 13.2524 21.4142L9.25245 17.4142C8.4714 16.6332 8.4714 15.3668 9.25245 14.5858C10.0335 13.8047 11.2998 13.8047 12.0809 14.5858L14.6667 17.1716L21.5754 10.2628C20.1346 8.86239 18.168 8 16 8H13.3333Z" fill="#18202A"/>
<path d="M21.5754 39.5962C20.1346 38.1957 18.168 37.3333 16 37.3333H13.3333C8.91505 37.3333 5.33333 40.9151 5.33333 45.3333V48C5.33333 52.4183 8.91505 56 13.3333 56H16C20.4183 56 24 52.4183 24 48V45.3333C24 44.5707 23.8933 43.8331 23.694 43.1344L16.0809 50.7476C15.2998 51.5286 14.0335 51.5286 13.2524 50.7476L9.25245 46.7476C8.4714 45.9665 8.4714 44.7002 9.25245 43.9191C10.0335 43.1381 11.2998 43.1381 12.0809 43.9191L14.6667 46.5049L21.5754 39.5962Z" fill="#18202A"/>
<path d="M32 10.6667C30.5272 10.6667 29.3333 11.8606 29.3333 13.3333C29.3333 14.8061 30.5272 16 32 16H56C57.4728 16 58.6667 14.8061 58.6667 13.3333C58.6667 11.8606 57.4728 10.6667 56 10.6667H32Z" fill="#18202A"/>
<path d="M29.3333 21.3333C29.3333 19.8606 30.5272 18.6667 32 18.6667H56C57.4728 18.6667 58.6667 19.8606 58.6667 21.3333C58.6667 22.8061 57.4728 24 56 24H32C30.5272 24 29.3333 22.8061 29.3333 21.3333Z" fill="#18202A"/>
<path d="M32 40C30.5272 40 29.3333 41.1939 29.3333 42.6667C29.3333 44.1394 30.5272 45.3333 32 45.3333H56C57.4728 45.3333 58.6667 44.1394 58.6667 42.6667C58.6667 41.1939 57.4728 40 56 40H32Z" fill="#18202A"/>
<path d="M29.3333 50.6667C29.3333 49.1939 30.5272 48 32 48H56C57.4728 48 58.6667 49.1939 58.6667 50.6667C58.6667 52.1394 57.4728 53.3333 56 53.3333H32C30.5272 53.3333 29.3333 52.1394 29.3333 50.6667Z" fill="#18202A"/>
</svg>
