<svg width="64" height="64" viewBox="0 0 64 64" fill="none" xmlns="http://www.w3.org/2000/svg">
<path fill-rule="evenodd" clip-rule="evenodd" d="M2.66667 13.3332C2.66667 7.44213 7.4423 2.6665 13.3333 2.6665H50.6667C56.5577 2.6665 61.3333 7.44213 61.3333 13.3332V37.3332C61.3333 43.2242 56.5577 47.9998 50.6667 47.9998H34.4242L17.2148 58.2325C15.2198 59.4187 12.7667 57.6665 13.2417 55.3946L14.7879 47.9998H13.3333C7.4423 47.9998 2.66667 43.2242 2.66667 37.3332V13.3332ZM27.7712 15.9998C27.1612 15.9998 26.6667 16.4944 26.6667 17.1044C26.6667 17.3974 26.783 17.6783 26.9902 17.8855L27.219 18.1142C28.2604 19.1556 28.2604 20.8441 27.219 21.8855C26.1776 22.9269 24.4891 22.9269 23.4477 21.8855L23.219 21.6567C22.0116 20.4494 21.3333 18.8118 21.3333 17.1044C21.3333 13.5489 24.2157 10.6665 27.7712 10.6665H35.3509C39.3913 10.6665 42.6667 13.9419 42.6667 17.9823C42.6667 21.1312 40.6517 23.9269 37.6643 24.9226L36.8433 25.1963C35.5434 25.6296 34.6667 26.846 34.6667 28.2162V29.3332C34.6667 30.8059 33.4728 31.9998 32 31.9998C30.5272 31.9998 29.3333 30.8059 29.3333 29.3332V28.2162C29.3333 24.5504 31.6791 21.2959 35.1567 20.1367L35.9778 19.863C36.7873 19.5932 37.3333 18.8356 37.3333 17.9823C37.3333 16.8874 36.4458 15.9998 35.3509 15.9998H27.7712ZM32 34.6665C30.5272 34.6665 29.3333 35.8604 29.3333 37.3332C29.3333 38.8059 30.5272 39.9998 32 39.9998C33.4728 39.9998 34.6667 38.8059 34.6667 37.3332C34.6667 35.8604 33.4728 34.6665 32 34.6665Z" fill="#18202A"/>
</svg>
