<svg width="64" height="64" viewBox="0 0 64 64" fill="none" xmlns="http://www.w3.org/2000/svg">
<path fill-rule="evenodd" clip-rule="evenodd" d="M32 57.3334C45.9912 57.3334 57.3334 45.9913 57.3334 32.0001C57.3334 18.0089 45.9912 6.66675 32 6.66675C18.0088 6.66675 6.66669 18.0089 6.66669 32.0001C6.66669 45.9913 18.0088 57.3334 32 57.3334ZM61.3334 32.0001C61.3334 48.2004 48.2004 61.3334 32 61.3334C15.7997 61.3334 2.66669 48.2004 2.66669 32.0001C2.66669 15.7997 15.7997 2.66675 32 2.66675C48.2004 2.66675 61.3334 15.7997 61.3334 32.0001Z" fill="#18202A"/>
<path d="M30 26.0001C30 24.8955 30.8955 24.0001 32 24.0001C33.1046 24.0001 34 24.8955 34 26.0001V43.3334C34 44.438 33.1046 45.3334 32 45.3334C30.8955 45.3334 30 44.438 30 43.3334V26.0001Z" fill="#18202A"/>
<path d="M26 26.0001C26 24.8955 26.8955 24.0001 28 24.0001H32C33.1046 24.0001 34 24.8955 34 26.0001C34 27.1047 33.1046 28.0001 32 28.0001H28C26.8955 28.0001 26 27.1047 26 26.0001Z" fill="#18202A"/>
<path d="M24.6667 43.3334C24.6667 42.2288 25.5621 41.3334 26.6667 41.3334H37.3334C38.4379 41.3334 39.3334 42.2288 39.3334 43.3334C39.3334 44.438 38.4379 45.3334 37.3334 45.3334H26.6667C25.5621 45.3334 24.6667 44.438 24.6667 43.3334Z" fill="#18202A"/>
<path d="M29.3334 18.6667C29.3334 17.194 30.5273 16.0001 32 16.0001C33.4728 16.0001 34.6667 17.194 34.6667 18.6667C34.6667 20.1395 33.4728 21.3334 32 21.3334C30.5273 21.3334 29.3334 20.1395 29.3334 18.6667Z" fill="#18202A"/>
</svg>
