<svg width="64" height="64" viewBox="0 0 64 64" fill="none" xmlns="http://www.w3.org/2000/svg">
<g clip-path="url(#clip0_3626_8892)">
<path d="M45.3333 36.835L41.3333 32.835V17.1347C41.3333 15.2486 40.0157 13.6187 38.1714 13.2235L17.2356 8.73725L12.1506 3.65227C13.2927 3.02424 14.6046 2.66699 16 2.66699H48C52.4183 2.66699 56 6.24871 56 10.667V47.5016L52 43.5016V10.667C52 8.45785 50.2091 6.66699 48 6.66699H26.6649L39.0096 9.31229C42.6981 10.1027 45.3333 13.3624 45.3333 17.1347V36.835Z" fill="#18202A"/>
<path fill-rule="evenodd" clip-rule="evenodd" d="M4 6.8468L8 10.8468V49.5334C8 53.3057 10.6352 56.5654 14.3238 57.3558L35.6571 61.9272C39.9959 62.857 44.1191 60.0951 45.1091 56.0003H48C49.4788 56.0003 50.864 55.5991 52.0524 54.8995L57.1533 60.0003C57.9391 60.7861 59.2131 60.7861 59.9989 60.0003C60.7847 59.2145 60.7847 57.9405 59.9989 57.1547L6.84566 4.00114C6.05985 3.21533 4.78581 3.21533 4 4.00114C3.21419 4.78695 3.21419 6.06099 4 6.8468ZM45.3333 48.1803L49.0216 51.8687C48.6955 51.9546 48.3531 52.0003 48 52.0003H45.3333V48.1803ZM36.4952 58.016C38.9853 58.5496 41.3333 56.6514 41.3333 54.1048V44.1803L36.3071 39.1541C35.8547 39.6843 35.2853 40.0003 34.6667 40.0003C33.1939 40.0003 32 38.2095 32 36.0003C32 35.6337 32.0329 35.2787 32.0944 34.9414L12 14.8468V49.5334C12 51.4195 13.3176 53.0494 15.1619 53.4446L36.4952 58.016Z" fill="#18202A"/>
</g>
<defs>
<clipPath id="clip0_3626_8892">
<rect width="64" height="64" fill="white"/>
</clipPath>
</defs>
</svg>
