<svg width="64" height="64" viewBox="0 0 64 64" fill="none" xmlns="http://www.w3.org/2000/svg">
<path fill-rule="evenodd" clip-rule="evenodd" d="M29.3333 56.0001C29.3333 56.8942 29.4433 57.7626 29.6505 58.5925C27.6338 58.4654 25.6746 58.1761 23.7937 57.7308L16.5246 61.0857C14.8439 61.8615 12.9034 60.7307 12.7497 58.886L12.1894 52.1626C6.36855 47.4468 2.72117 40.3019 2.72117 31.1758C1.67465 15.9031 15.8419 2.66675 32.0272 2.66675C48.2125 2.66675 61.3333 13.8667 61.3333 31.1758C61.3333 32.9442 61.1649 34.687 60.8373 36.3845C59.2613 30.7775 54.1107 26.6667 48 26.6667C41.5715 26.6667 36.2056 31.2161 34.9462 37.2709C31.6044 39.0722 29.3333 42.6043 29.3333 46.6667V56.0001ZM56 41.3334C58.9455 41.3334 61.3333 43.7212 61.3333 46.6668V56.0001C61.3333 58.9456 58.9455 61.3334 56 61.3334H40C37.0544 61.3334 34.6666 58.9456 34.6666 56.0001V46.6668C34.6666 43.7212 37.0544 41.3334 40 41.3334V40.0001C40 35.5818 43.5817 32.0001 48 32.0001C52.4182 32.0001 56 35.5818 56 40.0001V41.3334ZM53.3333 40.0001C53.3333 37.0546 50.9455 34.6668 48 34.6668C45.0544 34.6668 42.6666 37.0546 42.6666 40.0001V41.3334H53.3333V40.0001ZM50.6666 49.3334C50.6666 50.3205 50.1304 51.1823 49.3333 51.6433V54.6668C49.3333 55.4031 48.7363 56.0001 48 56.0001C47.2636 56.0001 46.6666 55.4031 46.6666 54.6668V51.6433C45.8696 51.1823 45.3333 50.3205 45.3333 49.3334C45.3333 47.8607 46.5272 46.6668 48 46.6668C49.4727 46.6668 50.6666 47.8607 50.6666 49.3334Z" fill="#18202A"/>
</svg>
