<svg width="64" height="64" viewBox="0 0 64 64" fill="none" xmlns="http://www.w3.org/2000/svg">
<path fill-rule="evenodd" clip-rule="evenodd" d="M55.9276 25.3332C55.7462 24.2435 55.2292 23.2291 54.4379 22.4377L36.2288 4.2286C35.4374 3.43726 34.423 2.92028 33.3333 2.73888V2.6665H18.6667C12.7756 2.6665 8 7.44213 8 13.3332V50.6665C8 56.5575 12.7756 61.3332 18.6667 61.3332H37.0031C36.054 60.1192 35.2633 58.7755 34.6618 57.3332H18.6667C14.9848 57.3332 12 54.3484 12 50.6665V13.3332C12 9.65127 14.9848 6.6665 18.6667 6.6665H29.3333V29.3332H52V33.3837C53.3852 33.4891 54.7249 33.7573 56 34.1692V25.3332H55.9276ZM51.6095 25.2662C51.6312 25.2878 51.652 25.3102 51.672 25.3332H33.3333V6.99448C33.3563 7.01449 33.3787 7.03535 33.4003 7.05703L51.6095 25.2662Z" fill="#18202A"/>
<path fill-rule="evenodd" clip-rule="evenodd" d="M64 50.6665C64 58.0303 58.0305 63.9998 50.6667 63.9998C43.3029 63.9998 37.3333 58.0303 37.3333 50.6665C37.3333 43.3027 43.3029 37.3332 50.6667 37.3332C58.0305 37.3332 64 43.3027 64 50.6665ZM50 43.9998C51.1046 43.9998 52 44.8953 52 45.9998V51.8381L55.4142 55.2523C56.1953 56.0333 56.1953 57.2997 55.4142 58.0807C54.6332 58.8618 53.3668 58.8618 52.5858 58.0807L48.5858 54.0807C48.2107 53.7056 48 53.1969 48 52.6665V45.9998C48 44.8953 48.8954 43.9998 50 43.9998Z" fill="#18202A"/>
</svg>
