<svg width="64" height="64" viewBox="0 0 64 64" fill="none" xmlns="http://www.w3.org/2000/svg">
<path fill-rule="evenodd" clip-rule="evenodd" d="M33.0012 2.81281L58.9769 10.626C60.3784 11.0485 61.3347 12.299 61.3333 13.7136C61.3333 48.3111 43.186 56.5817 33.4344 61.0231C32.9811 61.2298 32.4915 61.3332 32.0007 61.3332C31.5098 61.3332 31.0189 61.2298 30.5643 61.0231C20.814 56.5804 2.66667 48.3111 2.66667 13.7136C2.66667 12.2977 3.62292 11.0472 5.02444 10.626L31.0002 2.81281C31.652 2.61774 32.3494 2.61774 33.0012 2.81281ZM30.3776 18.3739C31.0324 16.9863 32.9676 16.9863 33.6224 18.3739L36.3743 24.2062L42.4638 25.1331C43.2617 25.2545 43.755 25.8486 43.924 26.4263C44.0925 27.0025 43.9941 27.7244 43.4701 28.2583L39.0407 32.7713L40.0942 39.1858C40.2076 39.8762 39.9326 40.5341 39.4341 40.9362C38.9252 41.3468 38.1596 41.4945 37.4644 41.1126L32 38.1105L26.5356 41.1126C25.8404 41.4945 25.0749 41.3468 24.5659 40.9362C24.0674 40.5341 23.7925 39.8762 23.9058 39.1858L24.9594 32.7707L20.529 28.2504C20.0054 27.7161 19.9075 26.9941 20.0764 26.4179C20.2458 25.8403 20.7398 25.2465 21.5379 25.1258L27.6261 24.2054L30.3776 18.3739Z" fill="#18202A"/>
</svg>
