<svg width="64" height="64" viewBox="0 0 64 64" fill="none" xmlns="http://www.w3.org/2000/svg">
<g clip-path="url(#clip0_3517_8953)">
<g clip-path="url(#clip1_3517_8953)">
<path d="M10.6667 13.3337C10.6667 14.8064 9.4728 16.0003 8.00004 16.0003C6.52728 16.0003 5.33337 14.8064 5.33337 13.3337C5.33337 11.8609 6.52728 10.667 8.00004 10.667C9.4728 10.667 10.6667 11.8609 10.6667 13.3337Z" fill="#18202A"/>
<path d="M18.6667 13.3337C18.6667 11.8609 19.8606 10.667 21.3334 10.667H56C57.4728 10.667 58.6667 11.8609 58.6667 13.3337C58.6667 14.8064 57.4728 16.0003 56 16.0003H21.3334C19.8606 16.0003 18.6667 14.8064 18.6667 13.3337Z" fill="#18202A"/>
<path d="M21.3334 29.3337C19.8606 29.3337 18.6667 30.5276 18.6667 32.0003C18.6667 33.4731 19.8606 34.667 21.3334 34.667H41.0465C43.8559 32.9741 47.1476 32.0003 50.6667 32.0003C53.3317 32.0003 55.8662 32.5588 58.1596 33.5651C58.4786 33.1256 58.6667 32.5849 58.6667 32.0003C58.6667 30.5276 57.4728 29.3337 56 29.3337H21.3334Z" fill="#18202A"/>
<path d="M32 50.667C32 49.7616 32.0645 48.8713 32.1891 48.0003H21.3334C19.8606 48.0003 18.6667 49.1942 18.6667 50.667C18.6667 52.1398 19.8606 53.3337 21.3334 53.3337H32.1891C32.0645 52.4627 32 51.5724 32 50.667Z" fill="#18202A"/>
<path d="M10.6667 32.0003C10.6667 33.4731 9.4728 34.667 8.00004 34.667C6.52728 34.667 5.33337 33.4731 5.33337 32.0003C5.33337 30.5276 6.52728 29.3337 8.00004 29.3337C9.4728 29.3337 10.6667 30.5276 10.6667 32.0003Z" fill="#18202A"/>
<path d="M10.6667 50.667C10.6667 52.1398 9.4728 53.3337 8.00004 53.3337C6.52728 53.3337 5.33337 52.1398 5.33337 50.667C5.33337 49.1942 6.52728 48.0003 8.00004 48.0003C9.4728 48.0003 10.6667 49.1942 10.6667 50.667Z" fill="#18202A"/>
<path fill-rule="evenodd" clip-rule="evenodd" d="M50.6667 64.0003C58.0305 64.0003 64 58.0308 64 50.667C64 43.3032 58.0305 37.3337 50.6667 37.3337C43.3029 37.3337 37.3334 43.3032 37.3334 50.667C37.3334 58.0308 43.3029 64.0003 50.6667 64.0003ZM48 45.3337C48 43.8609 49.194 42.667 50.6667 42.667C52.1395 42.667 53.3334 43.8609 53.3334 45.3337V48.0003H56C57.4728 48.0003 58.6667 49.1942 58.6667 50.667C58.6667 52.1397 57.4728 53.3337 56 53.3337H53.3334V56.0003C53.3334 57.4731 52.1395 58.667 50.6667 58.667C49.194 58.667 48 57.4731 48 56.0003V53.3337H45.3334C43.8606 53.3337 42.6667 52.1397 42.6667 50.667C42.6667 49.1942 43.8606 48.0003 45.3334 48.0003H48V45.3337Z" fill="#18202A"/>
</g>
</g>
<defs>
<clipPath id="clip0_3517_8953">
<rect width="64" height="64" fill="white"/>
</clipPath>
<clipPath id="clip1_3517_8953">
<rect width="64" height="64" fill="white"/>
</clipPath>
</defs>
</svg>
