<svg width="64" height="64" viewBox="0 0 64 64" fill="none" xmlns="http://www.w3.org/2000/svg">
<path fill-rule="evenodd" clip-rule="evenodd" d="M26.1814 13.1716L30.3432 17.3333H50.6667C54.3486 17.3333 57.3334 20.3181 57.3334 24H6.66669V18.6667C6.66669 14.9848 9.65146 12 13.3334 12H23.353C24.4138 12 25.4313 12.4214 26.1814 13.1716ZM6.66669 26.6667V45.3333C6.66669 49.0152 9.65146 52 13.3334 52H50.6667C54.3486 52 57.3334 49.0152 57.3334 45.3333V26.6667H6.66669ZM2.66669 18.6667C2.66669 12.7756 7.44232 8 13.3334 8H23.353C25.4747 8 27.5095 8.84286 29.0098 10.3431L32 13.3333H50.6667C56.5577 13.3333 61.3334 18.109 61.3334 24V45.3333C61.3334 51.2244 56.5577 56 50.6667 56H13.3334C7.44232 56 2.66669 51.2244 2.66669 45.3333V18.6667Z" fill="#18202A"/>
</svg>
