<svg width="64" height="64" viewBox="0 0 64 64" fill="none" xmlns="http://www.w3.org/2000/svg">
<path fill-rule="evenodd" clip-rule="evenodd" d="M34.6667 9.33301H29.3334C28.597 9.33301 28 9.92996 28 10.6663V53.333C28 54.0694 28.597 54.6663 29.3334 54.6663H34.6667C35.4031 54.6663 36 54.0694 36 53.333V10.6663C36 9.92996 35.4031 9.33301 34.6667 9.33301ZM29.3334 5.33301C26.3878 5.33301 24 7.72082 24 10.6663V53.333C24 56.2785 26.3878 58.6663 29.3334 58.6663H34.6667C37.6122 58.6663 40 56.2785 40 53.333V10.6663C40 7.72082 37.6122 5.33301 34.6667 5.33301H29.3334ZM13.3334 30.6663H8.00002C7.26364 30.6663 6.66669 31.2633 6.66669 31.9997V53.333C6.66669 54.0694 7.26364 54.6663 8.00002 54.6663H13.3334C14.0697 54.6663 14.6667 54.0694 14.6667 53.333V31.9997C14.6667 31.2633 14.0697 30.6663 13.3334 30.6663ZM8.00002 26.6663C5.0545 26.6663 2.66669 29.0542 2.66669 31.9997V53.333C2.66669 56.2785 5.0545 58.6663 8.00002 58.6663H13.3334C16.2789 58.6663 18.6667 56.2785 18.6667 53.333V31.9997C18.6667 29.0542 16.2789 26.6663 13.3334 26.6663H8.00002ZM50.6667 19.9997H56C56.7364 19.9997 57.3334 20.5966 57.3334 21.333V53.333C57.3334 54.0694 56.7364 54.6663 56 54.6663H50.6667C49.9303 54.6663 49.3334 54.0694 49.3334 53.333V21.333C49.3334 20.5966 49.9303 19.9997 50.6667 19.9997ZM45.3334 21.333C45.3334 18.3875 47.7212 15.9997 50.6667 15.9997H56C58.9455 15.9997 61.3334 18.3875 61.3334 21.333V53.333C61.3334 56.2785 58.9455 58.6663 56 58.6663H50.6667C47.7212 58.6663 45.3334 56.2785 45.3334 53.333V21.333Z" fill="#18202A"/>
</svg>
