<svg width="64" height="64" viewBox="0 0 64 64" fill="none" xmlns="http://www.w3.org/2000/svg">
<g clip-path="url(#clip0_3906_9310)">
<path d="M30.6667 44C30.6667 45.1046 31.5621 46 32.6667 46C33.7713 46 34.6667 45.1046 34.6667 44V36.6667H42C43.1046 36.6667 44 35.7712 44 34.6667C44 33.5621 43.1046 32.6667 42 32.6667H34.6667V25.3333C34.6667 24.2288 33.7713 23.3333 32.6667 23.3333C31.5621 23.3333 30.6667 24.2288 30.6667 25.3333V32.6667H23.3334C22.2288 32.6667 21.3334 33.5621 21.3334 34.6667C21.3334 35.7712 22.2288 36.6667 23.3334 36.6667H30.6667V44Z" fill="#18202A"/>
<path fill-rule="evenodd" clip-rule="evenodd" d="M13.3334 8C7.44232 8 2.66669 12.7756 2.66669 18.6667V45.3333C2.66669 51.2244 7.44232 56 13.3334 56H50.6667C56.5577 56 61.3334 51.2244 61.3334 45.3333V24C61.3334 18.109 56.5577 13.3333 50.6667 13.3333H32L29.0098 10.3431C27.5095 8.84286 25.4747 8 23.353 8H13.3334ZM57.3334 24C57.3334 20.3181 54.3486 17.3333 50.6667 17.3333H30.3432L26.1814 13.1716C25.4313 12.4214 24.4138 12 23.353 12H13.3334C9.65146 12 6.66669 14.9848 6.66669 18.6667V45.3333C6.66669 49.0152 9.65146 52 13.3334 52H50.6667C54.3486 52 57.3334 49.0152 57.3334 45.3333V24Z" fill="#18202A"/>
</g>
<defs>
<clipPath id="clip0_3906_9310">
<rect width="64" height="64" fill="white"/>
</clipPath>
</defs>
</svg>
