<svg width="64" height="64" viewBox="0 0 64 64" fill="none" xmlns="http://www.w3.org/2000/svg">
<path fill-rule="evenodd" clip-rule="evenodd" d="M14.2011 57.4309C10.5713 56.5932 8 53.361 8 49.6357V10.6665C8 6.24822 11.5817 2.6665 16 2.6665H48C52.4183 2.6665 56 6.24823 56 10.6665V47.9998C56 52.4181 52.4183 55.9998 48 55.9998H42.6667V57.2956C42.6667 60.7254 39.476 63.2635 36.1341 62.4923L14.2011 57.4309ZM38.5326 9.71249L31.1111 7.99984H48C49.4728 7.99984 50.6667 9.19375 50.6667 10.6665V47.9998C50.6667 49.4726 49.4728 50.6665 48 50.6665H42.6667V14.9092C42.6667 12.4257 40.9525 10.2709 38.5326 9.71249ZM37.3333 35.9998C37.3333 38.209 36.1394 39.9998 34.6667 39.9998C33.1939 39.9998 32 38.209 32 35.9998C32 33.7907 33.1939 31.9998 34.6667 31.9998C36.1394 31.9998 37.3333 33.7907 37.3333 35.9998Z" fill="#18202A"/>
</svg>
