<svg width="64" height="64" viewBox="0 0 64 64" fill="none" xmlns="http://www.w3.org/2000/svg">
<path d="M22.6667 5.3335C24.1395 5.3335 25.3334 6.5274 25.3334 8.00016C25.3334 9.47292 24.1395 10.6668 22.6667 10.6668H13.3334C11.8606 10.6668 10.6667 11.8607 10.6667 13.3335V22.6668C10.6667 24.1396 9.4728 25.3335 8.00004 25.3335C6.52728 25.3335 5.33337 24.1396 5.33337 22.6668V13.3335C5.33337 8.91522 8.9151 5.3335 13.3334 5.3335H22.6667Z" fill="#18202A"/>
<path d="M38.6667 8.00016C38.6667 9.47292 39.8606 10.6668 41.3334 10.6668H50.6667C52.1395 10.6668 53.3334 11.8607 53.3334 13.3335V22.6668C53.3334 24.1396 54.5273 25.3335 56 25.3335C57.4728 25.3335 58.6667 24.1396 58.6667 22.6668V13.3335C58.6667 8.91522 55.085 5.3335 50.6667 5.3335H41.3334C39.8606 5.3335 38.6667 6.5274 38.6667 8.00016Z" fill="#18202A"/>
<path d="M38.6667 56.0002C38.6667 54.5274 39.8606 53.3335 41.3334 53.3335H50.6667C52.1395 53.3335 53.3334 52.1396 53.3334 50.6668V41.3335C53.3334 39.8607 54.5273 38.6668 56 38.6668C57.4728 38.6668 58.6667 39.8607 58.6667 41.3335V50.6668C58.6667 55.0851 55.085 58.6668 50.6667 58.6668H41.3334C39.8606 58.6668 38.6667 57.4729 38.6667 56.0002Z" fill="#18202A"/>
<path d="M10.6667 41.3335C10.6667 39.8607 9.4728 38.6668 8.00004 38.6668C6.52728 38.6668 5.33337 39.8607 5.33337 41.3335V50.6668C5.33337 55.0851 8.91509 58.6668 13.3334 58.6668H22.6667C24.1395 58.6668 25.3334 57.4729 25.3334 56.0002C25.3334 54.5274 24.1395 53.3335 22.6667 53.3335H13.3334C11.8606 53.3335 10.6667 52.1396 10.6667 50.6668V41.3335Z" fill="#18202A"/>
</svg>
