<svg width="64" height="64" viewBox="0 0 64 64" fill="none" xmlns="http://www.w3.org/2000/svg">
<path fill-rule="evenodd" clip-rule="evenodd" d="M32 20.0003C35.6819 20.0003 38.6666 17.0156 38.6666 13.3337C38.6666 9.65176 35.6819 6.66699 32 6.66699C28.3181 6.66699 25.3333 9.65176 25.3333 13.3337C25.3333 17.0156 28.3181 20.0003 32 20.0003ZM42.6666 13.3337C42.6666 18.5411 38.935 22.877 34 23.8131V57.2525C39.8098 56.7801 45.2898 54.2611 49.4419 50.109C53.5941 45.9568 56.1131 40.4768 56.5855 34.667H50.6666C49.5621 34.667 48.6666 33.7716 48.6666 32.667C48.6666 31.5624 49.5621 30.667 50.6666 30.667H58.6666C59.7712 30.667 60.6666 31.5624 60.6666 32.667C60.6666 40.2699 57.6464 47.5613 52.2704 52.9374C46.8943 58.3134 39.6028 61.3337 32 61.3337C24.3971 61.3337 17.1056 58.3134 11.7296 52.9374C6.35354 47.5613 3.33331 40.2699 3.33331 32.667C3.33331 32.1366 3.54403 31.6279 3.9191 31.2528C4.29417 30.8777 4.80288 30.667 5.33331 30.667H13.3333C14.4379 30.667 15.3333 31.5624 15.3333 32.667C15.3333 33.7716 14.4379 34.667 13.3333 34.667H7.41447C7.88686 40.4768 10.4059 45.9568 14.558 50.109C18.7102 54.2611 24.1902 56.7801 30 57.2525V23.8131C25.0649 22.877 21.3333 18.5411 21.3333 13.3337C21.3333 7.44262 26.1089 2.66699 32 2.66699C37.891 2.66699 42.6666 7.44262 42.6666 13.3337Z" fill="#18202A"/>
</svg>
