<svg width="64" height="64" viewBox="0 0 64 64" fill="none" xmlns="http://www.w3.org/2000/svg">
<g clip-path="url(#clip0_2359_20981)">
<path fill-rule="evenodd" clip-rule="evenodd" d="M3.43502 0.589355C2.64921 -0.196452 1.37516 -0.196452 0.589355 0.589355C-0.196452 1.37516 -0.196452 2.64921 0.589356 3.43502L4.50269 7.34835C3.34382 9.0549 2.66667 11.115 2.66667 13.3333V37.3333C2.66667 42.3394 6.11526 46.54 10.7664 47.6891C11.5886 47.8922 12.4484 48 13.3333 48H14.7879L13.2417 55.3948C12.7667 57.6667 15.2198 59.4189 17.2148 58.2327L34.4242 48H45.1543L52.565 55.4106C53.3508 56.1965 54.6248 56.1965 55.4106 55.4106C56.1965 54.6248 56.1965 53.3508 55.4106 52.565L3.43502 0.589355ZM41.1543 44L30.4877 33.3333H20.6667C19.5621 33.3333 18.6667 32.4379 18.6667 31.3333C18.6667 30.2288 19.5621 29.3333 20.6667 29.3333H26.4877L7.41529 10.2609C6.93699 11.1804 6.66667 12.2253 6.66667 13.3333V37.3333C6.66667 41.0152 9.65143 44 13.3333 44H14.7879C15.9924 44 17.1327 44.5428 17.8923 45.4776C18.6518 46.4124 18.9497 47.6397 18.7032 48.8187L17.7779 53.2442L32.3799 44.5619C32.9984 44.1941 33.7047 44 34.4242 44H41.1543ZM52.2977 43.799C55.1912 43.0714 57.3333 40.4525 57.3333 37.3333V13.3333C57.3333 9.65144 54.3486 6.66667 50.6667 6.66667H15.1654L11.3495 2.85081C11.9923 2.72991 12.6554 2.66667 13.3333 2.66667H50.6667C56.5577 2.66667 61.3333 7.4423 61.3333 13.3333V37.3333C61.3333 41.5261 58.9143 45.1538 55.3957 46.897L52.2977 43.799ZM27.1654 18.6667L31.1654 22.6667H43.3333C44.4379 22.6667 45.3333 21.7712 45.3333 20.6667C45.3333 19.5621 44.4379 18.6667 43.3333 18.6667H27.1654Z" fill="#18202A"/>
</g>
<defs>
<clipPath id="clip0_2359_20981">
<rect width="64" height="64" fill="white"/>
</clipPath>
</defs>
</svg>
