<svg width="64" height="64" viewBox="0 0 64 64" fill="none" xmlns="http://www.w3.org/2000/svg">
<g clip-path="url(#clip0_2359_15590)">
<path fill-rule="evenodd" clip-rule="evenodd" d="M18.6666 2.66666C17.1939 2.66666 16 3.86056 16 5.33332V7.99999H13.3333C7.44226 7.99999 2.66663 12.7756 2.66663 18.6667V50.6667C2.66663 56.5577 7.44226 61.3333 13.3333 61.3333H32.679C30.19 58.2284 28.5513 54.4125 28.116 50.2387C27.6988 50.5094 27.2011 50.6667 26.6666 50.6667C25.1939 50.6667 24 49.4727 24 48C24 46.5272 25.1939 45.3333 26.6666 45.3333C27.2011 45.3333 27.6988 45.4905 28.116 45.7612C28.8544 38.6807 33.0562 32.63 38.9973 29.3333H16C14.5272 29.3333 13.3333 28.1394 13.3333 26.6667C13.3333 25.1939 14.5272 24 16 24H48C49.4727 24 50.6666 25.1939 50.6666 26.6667C50.6666 26.6803 50.6665 26.694 50.6663 26.7076C54.6071 26.9506 58.2583 28.2634 61.3333 30.3591V18.6667C61.3333 12.7756 56.5577 7.99999 50.6666 7.99999H48V5.33332C48 3.86056 46.8061 2.66666 45.3333 2.66666C43.8605 2.66666 42.6666 3.86056 42.6666 5.33332V7.99999H21.3333V5.33332C21.3333 3.86056 20.1394 2.66666 18.6666 2.66666ZM13.3333 37.3333C13.3333 35.8606 14.5272 34.6667 16 34.6667C17.4727 34.6667 18.6666 35.8606 18.6666 37.3333C18.6666 38.8061 17.4727 40 16 40C14.5272 40 13.3333 38.8061 13.3333 37.3333ZM16 45.3333C14.5272 45.3333 13.3333 46.5272 13.3333 48C13.3333 49.4727 14.5272 50.6667 16 50.6667C17.4727 50.6667 18.6666 49.4727 18.6666 48C18.6666 46.5272 17.4727 45.3333 16 45.3333ZM24 37.3333C24 35.8606 25.1939 34.6667 26.6666 34.6667C28.1394 34.6667 29.3333 35.8606 29.3333 37.3333C29.3333 38.8061 28.1394 40 26.6666 40C25.1939 40 24 38.8061 24 37.3333ZM46.3228 32C45.8404 32 45.4267 32.3445 45.3394 32.8189L44.823 35.6239C43.2231 36.1768 41.7638 37.0312 40.513 38.1191L37.8184 37.1612C37.3638 36.9996 36.8586 37.1857 36.6174 37.6035L33.8501 42.3966C33.6089 42.8144 33.7004 43.3449 34.0676 43.6578L36.2455 45.5133C36.0907 46.3184 36.0096 47.1497 36.0096 48C36.0096 48.8503 36.0907 49.6816 36.2455 50.4867L34.0676 52.3423C33.7004 52.6552 33.6089 53.1857 33.8501 53.6035L36.6174 58.3966C36.8587 58.8144 37.3638 59.0004 37.8184 58.8388L40.5131 57.8809C41.7638 58.9688 43.2231 59.8232 44.823 60.3761L45.3394 63.181C45.4267 63.6555 45.8404 64 46.3228 64H51.8574C52.3399 64 52.7535 63.6555 52.8409 63.181L53.3559 60.3838C54.9619 59.832 56.4268 58.9766 57.682 57.8861L60.362 58.8388C60.8165 59.0004 61.3217 58.8144 61.5629 58.3966L64.3302 53.6035C64.5714 53.1857 64.48 52.6552 64.1127 52.3423L61.9526 50.5019C62.1094 49.6921 62.1915 48.8556 62.1915 48C62.1915 47.1444 62.1094 46.308 61.9527 45.4981L64.1128 43.6578C64.48 43.3449 64.5715 42.8144 64.3302 42.3966L61.563 37.6035C61.3217 37.1857 60.8166 36.9996 60.362 37.1612L57.6821 38.1139C56.4269 37.0234 54.9619 36.168 53.3558 35.6162L52.8409 32.8189C52.7535 32.3445 52.3399 32 51.8574 32H46.3228ZM49.0884 53.3333C52.0339 53.3333 54.4218 50.9455 54.4218 48C54.4218 45.0545 52.0339 42.6667 49.0884 42.6667C46.1429 42.6667 43.7551 45.0545 43.7551 48C43.7551 50.9455 46.1429 53.3333 49.0884 53.3333Z" fill="#18202A"/>
</g>
<defs>
<clipPath id="clip0_2359_15590">
<rect width="64" height="64" fill="white"/>
</clipPath>
</defs>
</svg>
