<svg width="64" height="64" viewBox="0 0 64 64" fill="none" xmlns="http://www.w3.org/2000/svg">
<path fill-rule="evenodd" clip-rule="evenodd" d="M41.4142 16.7472C40.6332 17.5283 39.3669 17.5283 38.5858 16.7472L32 10.1614L25.4142 16.7472C24.6332 17.5283 23.3669 17.5283 22.5858 16.7472C21.8048 15.9662 21.8048 14.6998 22.5858 13.9188L30.5858 5.91879C31.3669 5.13775 32.6332 5.13775 33.4142 5.91879L41.4142 13.9188C42.1953 14.6998 42.1953 15.9662 41.4142 16.7472ZM4.66669 23.9997C3.56212 23.9997 2.66669 24.8951 2.66669 25.9997C2.66669 27.1042 3.56212 27.9997 4.66669 27.9997H59.3334C60.4379 27.9997 61.3334 27.1042 61.3334 25.9997C61.3334 24.8951 60.4379 23.9997 59.3334 23.9997H4.66669ZM4.66669 35.9997C3.56212 35.9997 2.66669 36.8951 2.66669 37.9997C2.66669 39.1042 3.56212 39.9997 4.66669 39.9997H59.3334C60.4379 39.9997 61.3334 39.1042 61.3334 37.9997C61.3334 36.8951 60.4379 35.9997 59.3334 35.9997H4.66669ZM41.4142 50.0806C42.1953 49.2995 42.1953 48.0332 41.4142 47.2521C40.6332 46.4711 39.3669 46.4711 38.5858 47.2521L32 53.8379L25.4142 47.2521C24.6332 46.4711 23.3669 46.4711 22.5858 47.2521C21.8048 48.0332 21.8048 49.2995 22.5858 50.0806L30.5858 58.0806C31.3669 58.8616 32.6332 58.8616 33.4142 58.0806L41.4142 50.0806Z" fill="#18202A"/>
</svg>
