<svg width="64" height="64" viewBox="0 0 64 64" fill="none" xmlns="http://www.w3.org/2000/svg">
<path d="M18.5858 18.5857C19.3668 17.8047 20.6331 17.8047 21.4142 18.5857L32 29.1715L42.5858 18.5857C43.3668 17.8047 44.6331 17.8047 45.4142 18.5857C46.1952 19.3668 46.1952 20.6331 45.4142 21.4141L34.8284 31.9999L45.4142 42.5857C46.1952 43.3667 46.1952 44.6331 45.4142 45.4141C44.6331 46.1952 43.3668 46.1952 42.5858 45.4141L32 34.8283L21.4142 45.4141C20.6331 46.1952 19.3668 46.1952 18.5858 45.4141C17.8047 44.6331 17.8047 43.3668 18.5858 42.5857L29.1716 31.9999L18.5858 21.4141C17.8047 20.6331 17.8047 19.3668 18.5858 18.5857Z" fill="#18202A"/>
<path fill-rule="evenodd" clip-rule="evenodd" d="M16 5.33325C10.1089 5.33325 5.33331 10.1089 5.33331 15.9999V47.9999C5.33331 53.891 10.1089 58.6666 16 58.6666H48C53.891 58.6666 58.6666 53.891 58.6666 47.9999V15.9999C58.6666 10.1089 53.891 5.33325 48 5.33325H16ZM54.6666 15.9999C54.6666 12.318 51.6819 9.33325 48 9.33325H16C12.3181 9.33325 9.33331 12.318 9.33331 15.9999V47.9999C9.33331 51.6818 12.3181 54.6666 16 54.6666H48C51.6819 54.6666 54.6666 51.6818 54.6666 47.9999V15.9999Z" fill="#18202A"/>
</svg>
