<svg width="64" height="64" viewBox="0 0 64 64" fill="none" xmlns="http://www.w3.org/2000/svg">
<path fill-rule="evenodd" clip-rule="evenodd" d="M50.6667 6.66699H13.3334C9.65146 6.66699 6.66669 9.65176 6.66669 13.3337V50.667C6.66669 54.3489 9.65146 57.3337 13.3334 57.3337H50.6667C54.3486 57.3337 57.3334 54.3489 57.3334 50.667V13.3337C57.3334 9.65176 54.3486 6.66699 50.6667 6.66699ZM13.3334 2.66699C7.44232 2.66699 2.66669 7.44262 2.66669 13.3337V50.667C2.66669 56.558 7.44232 61.3337 13.3334 61.3337H50.6667C56.5577 61.3337 61.3334 56.558 61.3334 50.667V13.3337C61.3334 7.44262 56.5577 2.66699 50.6667 2.66699H13.3334ZM10.6667 16.0003C10.6667 13.0548 13.0545 10.667 16 10.667C18.9455 10.667 21.3334 13.0548 21.3334 16.0003C21.3334 18.9458 18.9455 21.3337 16 21.3337C13.0545 21.3337 10.6667 18.9458 10.6667 16.0003ZM28.6667 14.0003C27.5621 14.0003 26.6667 14.8958 26.6667 16.0003C26.6667 17.1049 27.5621 18.0003 28.6667 18.0003H50C51.1046 18.0003 52 17.1049 52 16.0003C52 14.8958 51.1046 14.0003 50 14.0003H28.6667ZM16 29.3337H48C48.7364 29.3337 49.3334 29.9306 49.3334 30.667V48.0003C49.3334 48.7367 48.7364 49.3337 48 49.3337H16C15.2636 49.3337 14.6667 48.7367 14.6667 48.0003V30.667C14.6667 29.9306 15.2636 29.3337 16 29.3337ZM10.6667 30.667C10.6667 27.7215 13.0545 25.3337 16 25.3337H48C50.9455 25.3337 53.3334 27.7215 53.3334 30.667V48.0003C53.3334 50.9458 50.9455 53.3337 48 53.3337H16C13.0545 53.3337 10.6667 50.9458 10.6667 48.0003V30.667Z" fill="#18202A"/>
</svg>
