<svg width="64" height="64" viewBox="0 0 64 64" fill="none" xmlns="http://www.w3.org/2000/svg">
<path fill-rule="evenodd" clip-rule="evenodd" d="M35.6474 47.9998H51.1515C56.7748 47.9998 61.3333 43.2242 61.3333 37.3332V13.3332C61.3333 7.44213 56.7748 2.6665 51.1515 2.6665H15.5152C9.89189 2.6665 5.33333 7.44213 5.33333 13.3332V14.4998C5.33333 15.3283 6.00491 15.9998 6.83333 15.9998H7.65152C8.47994 15.9998 9.15152 15.3283 9.15152 14.4998V13.3332C9.15152 9.65127 12.0006 6.6665 15.5152 6.6665H51.1515C54.6661 6.6665 57.5152 9.65127 57.5152 13.3332V37.3332C57.5152 41.0151 54.6661 43.9998 51.1515 43.9998H35.6474C34.9605 43.9998 34.2864 44.1939 33.696 44.5617L19.7577 53.244L20.6409 48.8185C20.8762 47.6395 20.5919 46.4122 19.8669 45.4774C19.1418 44.5426 18.0533 43.9998 16.9036 43.9998H15.5151C12.4892 43.9998 9.95659 41.7873 9.31086 38.8223C9.13457 38.0128 8.47994 37.3332 7.65151 37.3332H7.33333C6.22876 37.3332 5.31437 38.2356 5.51013 39.3227C5.63555 40.0192 5.82558 40.6917 6.07345 41.3332C7.28529 44.4695 9.87967 46.8646 13.0649 47.6889C13.8497 47.8921 14.6704 47.9998 15.5151 47.9998H16.9036L15.4277 55.3946C14.9742 57.6665 17.3158 59.4187 19.2202 58.2325L35.6474 47.9998ZM27.4142 15.2523C26.6332 14.4712 25.3668 14.4712 24.5858 15.2523C23.8047 16.0333 23.8047 17.2997 24.5858 18.0807L30.5049 23.9998H2C0.895431 23.9998 0 24.8953 0 25.9998C0 27.1044 0.895431 27.9998 2 27.9998H30.5049L24.5858 33.919C23.8047 34.7 23.8047 35.9663 24.5858 36.7474C25.3668 37.5284 26.6332 37.5284 27.4142 36.7474L36.7475 27.4141C37.5286 26.633 37.5286 25.3667 36.7475 24.5856L27.4142 15.2523Z" fill="#18202A"/>
</svg>
