<svg width="64" height="64" viewBox="0 0 64 64" fill="none" xmlns="http://www.w3.org/2000/svg">
<path d="M43.2621 8.96329C44.442 7.78345 46.2434 7.67196 47.2857 8.71429C48.328 9.75661 48.2166 11.558 47.0367 12.7379L45.4095 14.3651C47.0237 16.2343 48 18.6698 48 21.3333V42.6667C48 48.5577 43.2244 53.3333 37.3333 53.3333H10.6667C9.40261 53.3333 8.18992 53.1135 7.06473 52.7099L4.7379 55.0367C3.55805 56.2166 1.75662 56.328 0.714292 55.2857C-0.328034 54.2434 -0.216553 52.442 0.963298 51.2621L43.2621 8.96329Z" fill="#18202A"/>
<path d="M0.16315 44.5354L34.0319 10.6667H10.6667C4.77563 10.6667 0 15.4423 0 21.3333V42.6667C0 43.3042 0.0559298 43.9287 0.16315 44.5354Z" fill="#18202A"/>
<path d="M51.7752 22.1352C51.0792 22.6363 50.6667 23.4416 50.6667 24.2993V37.034C50.6667 40.5584 51.0792 41.3637 51.7752 41.8648L59.7752 47.6248C61.5391 48.8948 64 47.6343 64 45.4607V18.5393C64 16.3657 61.5391 15.1052 59.7752 16.3752L51.7752 22.1352Z" fill="#18202A"/>
</svg>
