<svg width="64" height="64" viewBox="0 0 64 64" fill="none" xmlns="http://www.w3.org/2000/svg">
<g clip-path="url(#clip0_3916_8827)">
<path fill-rule="evenodd" clip-rule="evenodd" d="M17.5318 11.0214C15.4318 8.92146 16.9193 5.33079 19.8891 5.33105L47.3332 5.33353C49.1739 5.3337 50.6661 6.82582 50.6663 8.66651L50.6693 36.1109C50.6696 39.0808 47.0789 40.5683 44.9789 38.4683L38.0144 31.5038C32.63 37.0725 29.8302 41.1684 28.5513 44.936C27.2581 48.7456 27.4394 52.4568 28.5164 57.4791C28.8576 59.0701 28.0587 60.4787 26.8594 61.1248C25.6292 61.7876 23.9573 61.647 22.8592 60.3355C15.7049 51.7905 13.6237 43.6566 14.7706 36.2417C15.8692 29.1388 19.884 23.0015 24.5319 18.0213L17.5318 11.0214ZM46.6663 9.33347L21.4985 9.3312L27.8076 15.6402C29.1178 16.9503 29.0888 19.0347 27.8516 20.3315C23.3084 25.0933 19.6803 30.6679 18.7236 36.8531C17.8791 42.3128 19.0763 48.5095 24.0516 55.3685C23.4091 51.2639 23.4425 47.5419 24.7635 43.6503C26.3708 38.9156 29.8029 34.172 35.6295 28.2191C36.9207 26.8998 39.0499 26.8825 40.36 28.1925L46.6691 34.5016L46.6663 9.33347Z" fill="#18202A"/>
</g>
<defs>
<clipPath id="clip0_3916_8827">
<rect width="64" height="64" fill="white"/>
</clipPath>
</defs>
</svg>
