<svg width="64" height="64" viewBox="0 0 64 64" fill="none" xmlns="http://www.w3.org/2000/svg">
<path d="M29.3333 15.9998C29.3333 14.5271 30.5272 13.3332 32 13.3332C33.4728 13.3332 34.6667 14.5271 34.6667 15.9998V31.9998C34.6667 33.4726 33.4728 34.6665 32 34.6665C30.5272 34.6665 29.3333 33.4726 29.3333 31.9998V15.9998Z" fill="#18202A"/>
<path d="M45.3333 29.3332C46.8061 29.3332 48 30.5271 48 31.9998C48 33.4726 46.8061 34.6665 45.3333 34.6665H32C30.5272 34.6665 29.3333 33.4726 29.3333 31.9998C29.3333 30.5271 30.5272 29.3332 32 29.3332H45.3333Z" fill="#18202A"/>
<path fill-rule="evenodd" clip-rule="evenodd" d="M32 7.99984C23.0405 7.99984 15.224 12.908 11.0986 20.195L6.45738 17.5675C11.4909 8.67655 21.0419 2.6665 32 2.6665C48.2004 2.6665 61.3333 15.7995 61.3333 31.9998C61.3333 48.2002 48.2004 61.3332 32 61.3332C15.7997 61.3332 2.66667 48.2002 2.66667 31.9998C2.66667 30.7043 2.75082 29.4274 2.91416 28.1744C3.10454 26.714 4.54368 25.8109 5.98067 26.1335C7.41767 26.4561 8.30555 27.8827 8.14476 29.3467C8.04915 30.2172 8.00001 31.1024 8.00001 31.9998C8.00001 45.2547 18.7452 55.9998 32 55.9998C45.2548 55.9998 56 45.2547 56 31.9998C56 18.745 45.2548 7.99984 32 7.99984Z" fill="#18202A"/>
<path fill-rule="evenodd" clip-rule="evenodd" d="M6.53483 7.22459C7.98521 6.96885 9.3683 7.9373 9.62404 9.38769L10.7982 16.0464L17.4569 14.8723C18.9072 14.6165 20.2903 15.585 20.5461 17.0354C20.8018 18.4858 19.8334 19.8688 18.383 20.1246L9.09812 21.7618C7.64774 22.0175 6.26465 21.0491 6.00891 19.5987L4.37173 10.3138C4.11599 8.86343 5.08444 7.48034 6.53483 7.22459Z" fill="#18202A"/>
</svg>
