<svg width="64" height="64" viewBox="0 0 64 64" fill="none" xmlns="http://www.w3.org/2000/svg">
<path fill-rule="evenodd" clip-rule="evenodd" d="M2.66667 18.8984C2.66667 9.93376 9.93393 2.6665 18.8986 2.6665H45.1015C54.0661 2.6665 61.3333 9.93377 61.3333 18.8984V33.5071C61.3333 33.8955 61.3254 34.282 61.3096 34.6665H43.942C38.7354 34.6665 34.307 37.9986 32.6729 42.6466C32.4496 42.6598 32.2252 42.6664 32 42.6664C30.2546 42.6664 28.5533 42.2664 27.0649 41.5222C25.5772 40.7784 24.3724 39.7267 23.5386 38.5004C22.7105 37.2825 21.0519 36.9665 19.834 37.7946C18.6161 38.6227 18.3001 40.2813 19.1282 41.4992C20.5066 43.5265 22.4292 45.1672 24.6798 46.2925C26.9296 47.4174 29.4503 47.9998 32 47.9998V61.3332H18.8986C9.93393 61.3332 2.66667 54.0659 2.66667 45.1013V18.8984ZM24 23.9998C24 26.9454 22.2091 29.3332 20 29.3332C17.7909 29.3332 16 26.9454 16 23.9998C16 21.0543 17.7909 18.6665 20 18.6665C22.2091 18.6665 24 21.0543 24 23.9998ZM44 29.3332C46.2091 29.3332 48 26.9454 48 23.9998C48 21.0543 46.2091 18.6665 44 18.6665C41.7909 18.6665 40 21.0543 40 23.9998C40 26.9454 41.7909 29.3332 44 29.3332Z" fill="#18202A"/>
<path d="M43.942 39.9998H60.5718C57.9362 51.0266 48.7366 59.5041 37.3333 61.0723V46.6085C37.3333 42.9587 40.2922 39.9998 43.942 39.9998Z" fill="#18202A"/>
</svg>
