<svg width="64" height="64" viewBox="0 0 64 64" fill="none" xmlns="http://www.w3.org/2000/svg">
<path fill-rule="evenodd" clip-rule="evenodd" d="M49.2011 42.8013C51.8093 38.9612 53.3334 34.3253 53.3334 29.3334C53.3334 16.0785 42.5882 5.33337 29.3334 5.33337C16.0785 5.33337 5.33337 16.0785 5.33337 29.3334C5.33337 42.5882 16.0785 53.3334 29.3334 53.3334C34.3253 53.3334 38.9612 51.8093 42.8013 49.2011C44.0594 48.3466 45.2321 47.3757 46.3039 46.3039C47.3757 45.2321 48.3466 44.0595 49.2011 42.8013ZM51.765 48.2359C50.7832 47.7925 49.5879 47.9742 48.7811 48.7811C47.9742 49.5879 47.7925 50.7832 48.2359 51.765C48.3648 52.0504 48.5465 52.3178 48.7811 52.5523L54.1144 57.8857C55.1558 58.9271 56.8443 58.9271 57.8857 57.8857C58.9271 56.8443 58.9271 55.1558 57.8857 54.1144L52.5523 48.7811C52.3178 48.5465 52.0504 48.3648 51.765 48.2359ZM29.3334 48C39.6427 48 48 39.6427 48 29.3334C48 19.0241 39.6427 10.6667 29.3334 10.6667C19.0241 10.6667 10.6667 19.0241 10.6667 29.3334C10.6667 39.6427 19.0241 48 29.3334 48Z" fill="#18202A"/>
</svg>
