<svg width="64" height="64" viewBox="0 0 64 64" fill="none" xmlns="http://www.w3.org/2000/svg">
<path fill-rule="evenodd" clip-rule="evenodd" d="M52.5454 5.47432C50.6466 3.73095 48.1143 2.66675 45.3333 2.66675H18.6667C12.7756 2.66675 8 7.44238 8 13.3334V50.6667C8 56.5578 12.7756 61.3334 18.6667 61.3334H45.3333C51.2244 61.3334 56 56.5578 56 50.6667V24.6471L48.3235 32.3236C45.1993 35.4478 40.134 35.4478 37.0098 32.3236L29.0098 24.3236C25.8856 21.1994 25.8856 16.1341 29.0098 13.0099C32.134 9.8857 37.1993 9.8857 40.3235 13.0099L42.6667 15.353L52.5454 5.47432ZM16 37.3334C16 35.8607 17.1939 34.6667 18.6667 34.6667H29.3333C30.8061 34.6667 32 35.8607 32 37.3334C32 38.8062 30.8061 40.0001 29.3333 40.0001H18.6667C17.1939 40.0001 16 38.8062 16 37.3334ZM18.6667 45.3334C17.1939 45.3334 16 46.5273 16 48.0001C16 49.4728 17.1939 50.6667 18.6667 50.6667H45.3333C46.8061 50.6667 48 49.4728 48 48.0001C48 46.5273 46.8061 45.3334 45.3333 45.3334H18.6667ZM60.5523 12.5524C61.5937 11.511 61.5937 9.82253 60.5523 8.78113C59.5109 7.73973 57.8224 7.73973 56.7811 8.78113L42.6667 22.8955L36.5523 16.7811C35.5109 15.7397 33.8224 15.7397 32.781 16.7811C31.7397 17.8225 31.7397 19.511 32.781 20.5524L40.781 28.5524C41.8224 29.5938 43.5109 29.5938 44.5523 28.5524L60.5523 12.5524Z" fill="#18202A"/>
</svg>
