<svg width="64" height="64" viewBox="0 0 64 64" fill="none" xmlns="http://www.w3.org/2000/svg">
<path d="M37.5758 7.99984C38.651 7.99984 39.9332 8.96196 39.9975 10.6665H45.3323C45.2638 6.23598 41.8173 2.6665 37.5758 2.6665H7.75758C3.47319 2.6665 0 6.30846 0 10.801V29.1037C0 32.2318 1.68374 34.9474 4.15271 36.3085C5.22977 36.9023 6.45625 37.2383 7.75757 37.2383H8.81543L7.69093 42.8776C7.34545 44.6102 9.12952 45.9465 10.5804 45.0418L16 41.6628V35.3778L14.4295 36.3569L15.3172 31.9049H7.75757C6.65435 31.9049 5.33333 30.8921 5.33333 29.1037V10.801C5.33333 9.01268 6.65435 7.99984 7.75758 7.99984H37.5758Z" fill="#18202A"/>
<path d="M64 24.6428C64 19.8694 60.5268 15.9998 56.2424 15.9998H29.0909C24.8065 15.9998 21.3333 19.8694 21.3333 24.6428V44.0894C21.3333 48.8628 24.8065 52.7323 29.0909 52.7323H40.9036L53.4196 61.0236C54.8705 61.9848 56.6546 60.565 56.3091 58.7242L55.1846 52.7323H56.2424C60.5268 52.7323 64 48.8628 64 44.0894V24.6428Z" fill="#18202A"/>
</svg>
