<svg width="64" height="64" viewBox="0 0 64 64" fill="none" xmlns="http://www.w3.org/2000/svg">
<path fill-rule="evenodd" clip-rule="evenodd" d="M15.2189 9.88554L7.21891 17.8855C6.17751 18.9269 4.48907 18.9269 3.44767 17.8855C2.40628 16.8441 2.40628 15.1557 3.44767 14.1143L11.4477 6.1143C12.4891 5.0729 14.1775 5.0729 15.2189 6.1143C16.2603 7.1557 16.2603 8.84414 15.2189 9.88554ZM32 61.3332C46.7276 61.3332 58.6666 49.3942 58.6666 34.6666C58.6666 19.939 46.7276 7.99992 32 7.99992C17.2724 7.99992 5.33329 19.939 5.33329 34.6666C5.33329 49.3942 17.2724 61.3332 32 61.3332ZM34.6666 18.6666C34.6666 17.1938 33.4727 15.9999 32 15.9999C30.5272 15.9999 29.3333 17.1938 29.3333 18.6666V34.6666C29.3333 35.7333 29.969 36.6974 30.9495 37.1176L40.2828 41.1176C41.6365 41.6978 43.2042 41.0707 43.7843 39.717C44.3645 38.3634 43.7374 36.7957 42.3837 36.2155L34.6666 32.9082V18.6666ZM48.781 9.88554C47.7396 8.84414 47.7396 7.1557 48.781 6.1143C49.8224 5.0729 51.5108 5.0729 52.5522 6.1143L60.5522 14.1143C61.5936 15.1557 61.5936 16.8441 60.5522 17.8855C59.5108 18.9269 57.8224 18.9269 56.781 17.8855L48.781 9.88554Z" fill="#18202A"/>
</svg>
