<svg width="64" height="64" viewBox="0 0 64 64" fill="none" xmlns="http://www.w3.org/2000/svg">
<path fill-rule="evenodd" clip-rule="evenodd" d="M50.5624 58.6666H13.4377C5.22003 58.6666 0.0888252 49.7652 4.20734 42.6541L22.7697 10.604C26.8785 3.50962 37.1216 3.50962 41.2304 10.604L59.7928 42.6541C63.9113 49.7652 58.7801 58.6666 50.5624 58.6666ZM34.6667 21.3333C34.6667 19.8606 33.4728 18.6667 32 18.6667C30.5272 18.6667 29.3333 19.8606 29.3333 21.3333V34.6667C29.3333 36.1394 30.5272 37.3333 32 37.3333C33.4728 37.3333 34.6667 36.1394 34.6667 34.6667V21.3333ZM32 42.6667C30.5272 42.6667 29.3333 43.8606 29.3333 45.3333C29.3333 46.8061 30.5272 48 32 48H32.0267C33.4994 48 34.6933 46.8061 34.6933 45.3333C34.6933 43.8606 33.4994 42.6667 32.0267 42.6667H32Z" fill="#18202A"/>
</svg>
