<svg width="64" height="64" viewBox="0 0 64 64" fill="none" xmlns="http://www.w3.org/2000/svg">
<path fill-rule="evenodd" clip-rule="evenodd" d="M54.4379 22.4382C55.2292 23.2296 55.7462 24.244 55.9276 25.3337H56V29.3337H53.6344C53.0849 29.3979 52.5389 29.498 52 29.634V29.3337H29.3333V6.66699H18.6667C14.9848 6.66699 12 9.65176 12 13.3337V50.667C12 54.3489 14.9848 57.3337 18.6667 57.3337H29.4417C29.6873 58.7209 30.1653 60.0751 30.8754 61.3337H18.6667C12.7756 61.3337 8 56.558 8 50.667V13.3337C8 7.44262 12.7756 2.66699 18.6667 2.66699H33.3333V2.73937C34.423 2.92077 35.4374 3.43775 36.2288 4.22909L54.4379 22.4382ZM33.3333 6.99496V25.3337H51.672C51.652 25.3107 51.6312 25.2883 51.6095 25.2667L33.4003 7.05752C33.3787 7.03584 33.3563 7.01498 33.3333 6.99496ZM61.241 35.7861C57.8564 32.4016 52.369 32.4016 48.9844 35.7861L45.2132 39.5574C44.4322 40.3384 44.4322 41.6047 45.2132 42.3858C45.9943 43.1668 47.2606 43.1668 48.0416 42.3858L51.8129 38.6146C53.6353 36.7921 56.5901 36.7921 58.4125 38.6146C60.235 40.437 60.235 43.3918 58.4125 45.2142L54.6413 48.9855C53.8602 49.7665 53.8602 51.0328 54.6413 51.8139C55.4223 52.5949 56.6887 52.5949 57.4697 51.8139L61.241 48.0426C64.6255 44.6581 64.6255 39.1707 61.241 35.7861ZM35.7851 61.242C32.4006 57.8574 32.4006 52.37 35.7851 48.9855L39.5563 45.2142C40.3374 44.4332 41.6037 44.4332 42.3848 45.2142C43.1658 45.9953 43.1658 47.2616 42.3848 48.0426L38.6135 51.8139C36.7911 53.6363 36.7911 56.5911 38.6135 58.4135C40.436 60.236 43.3908 60.236 45.2132 58.4135L48.9844 54.6423C49.7655 53.8613 51.0318 53.8613 51.8129 54.6423C52.5939 55.4234 52.5939 56.6897 51.8129 57.4707L48.0416 61.242C44.6571 64.6265 39.1697 64.6265 35.7851 61.242ZM53.2271 46.6284L46.6274 53.2281C45.8464 54.0091 44.58 54.0091 43.799 53.2281C43.0179 52.447 43.0179 51.1807 43.799 50.3997L50.3987 43.8C51.1797 43.019 52.446 43.019 53.2271 43.8C54.0081 44.5811 54.0081 45.8474 53.2271 46.6284Z" fill="#18202A"/>
</svg>
