<svg width="64" height="64" viewBox="0 0 64 64" fill="none" xmlns="http://www.w3.org/2000/svg">
<path fill-rule="evenodd" clip-rule="evenodd" d="M53.3071 18.0135C52.9748 13.9006 49.5318 10.6665 45.3334 10.6665H18.6667C14.4683 10.6665 11.0252 13.9006 10.693 18.0135C9.19354 19.3437 8.19742 21.2288 8.02631 23.3468C6.3744 24.8124 5.33337 26.9512 5.33337 29.3332V50.6665C5.33337 55.0848 8.91509 58.6665 13.3334 58.6665H50.6667C55.085 58.6665 58.6667 55.0848 58.6667 50.6665V29.3332C58.6667 26.9512 57.6257 24.8124 55.9738 23.3468C55.8027 21.2288 54.8065 19.3437 53.3071 18.0135ZM48.3205 16.0061C47.5879 15.1842 46.5211 14.6665 45.3334 14.6665H18.6667C17.479 14.6665 16.4122 15.1841 15.6796 16.0061C15.7859 16.002 15.8927 15.9998 16 15.9998H48C48.1073 15.9998 48.2142 16.002 48.3205 16.0061ZM13.3334 21.3332C13.2261 21.3332 13.1192 21.3353 13.0129 21.3395C13.7455 20.5175 14.8123 19.9998 16 19.9998H48C49.1877 19.9998 50.2546 20.5175 50.9871 21.3395C50.8809 21.3353 50.774 21.3332 50.6667 21.3332H13.3334ZM44.5978 33.8389C45.6135 32.7724 45.5723 31.0845 44.5058 30.0688C43.4394 29.0531 41.7514 29.0943 40.7357 30.1608L27.5328 44.0238L23.3581 39.1533C22.3996 38.0351 20.7162 37.9056 19.598 38.864C18.4798 39.8225 18.3503 41.506 19.3087 42.6242L25.404 49.7353C25.8947 50.3078 26.605 50.6458 27.3588 50.6656C28.1127 50.6853 28.8396 50.385 29.3597 49.8389L44.5978 33.8389Z" fill="#18202A"/>
</svg>
