<svg width="64" height="64" viewBox="0 0 64 64" fill="none" xmlns="http://www.w3.org/2000/svg">
<path fill-rule="evenodd" clip-rule="evenodd" d="M45.3334 59.9998C53.4335 59.9998 60 53.4333 60 45.3332C60 37.233 53.4335 30.6665 45.3334 30.6665C37.2332 30.6665 30.6667 37.233 30.6667 45.3332C30.6667 53.4333 37.2332 59.9998 45.3334 59.9998ZM45.3334 63.9998C55.6427 63.9998 64 55.6425 64 45.3332C64 35.0239 55.6427 26.6665 45.3334 26.6665C35.024 26.6665 26.6667 35.0239 26.6667 45.3332C26.6667 55.6425 35.024 63.9998 45.3334 63.9998Z" fill="#18202A"/>
<path fill-rule="evenodd" clip-rule="evenodd" d="M2.66669 15.9998C2.66669 14.388 3.64851 13.1708 4.6861 12.353C5.74624 11.5176 7.15634 10.8526 8.72052 10.3312C11.8698 9.28148 16.0933 8.6665 20.6667 8.6665C25.2401 8.6665 29.4636 9.28148 32.6129 10.3312C34.177 10.8526 35.5871 11.5176 36.6473 12.353C37.6849 13.1708 38.6667 14.388 38.6667 15.9998V27.8922C37.2412 28.4374 35.8996 29.1524 34.6667 30.0123V28.8494C34.028 29.1549 33.337 29.4271 32.6129 29.6684C29.4636 30.7182 25.2401 31.3332 20.6667 31.3332C16.0933 31.3332 11.8698 30.7182 8.72052 29.6684C7.99641 29.4271 7.30532 29.1549 6.66669 28.8494V31.9694C6.68617 32.0206 6.78012 32.204 7.16199 32.505C7.72114 32.9456 8.65419 33.43 9.98543 33.8737C12.627 34.7542 16.4036 35.3332 20.6667 35.3332C24.4285 35.3332 27.8115 34.8824 30.37 34.1714C29.3226 35.5732 28.4676 37.1272 27.8441 38.7941C25.6427 39.1432 23.2087 39.3332 20.6667 39.3332C16.0933 39.3332 11.8698 38.7182 8.72052 37.6684C7.99641 37.4271 7.30532 37.1549 6.66669 36.8494V39.9694C6.68617 40.0206 6.78012 40.204 7.16199 40.505C7.72114 40.9456 8.65419 41.43 9.98543 41.8737C12.627 42.7542 16.4036 43.3332 20.6667 43.3332C22.8804 43.3332 24.9628 43.1771 26.8234 42.9037C26.72 43.6989 26.6667 44.5098 26.6667 45.3332C26.6667 45.8792 26.6901 46.4197 26.7361 46.9538C24.8366 47.2007 22.7893 47.3332 20.6667 47.3332C16.0933 47.3332 11.8698 46.7182 8.72052 45.6684C7.99641 45.4271 7.30532 45.1549 6.66669 44.8494V47.9694C6.68617 48.0206 6.78012 48.204 7.16199 48.505C7.72114 48.9456 8.65419 49.43 9.98543 49.8737C12.627 50.7542 16.4036 51.3332 20.6667 51.3332C23.1447 51.3332 25.4583 51.1376 27.4802 50.8008C27.8857 52.1263 28.4347 53.3891 29.1092 54.5711C26.5913 55.0615 23.7063 55.3332 20.6667 55.3332C16.0933 55.3332 11.8698 54.7182 8.72052 53.6684C7.15634 53.147 5.74624 52.4821 4.6861 51.6466C3.64851 50.8289 2.66669 49.6117 2.66669 47.9998V15.9998ZM7.16199 15.4947C6.83531 15.7521 6.71934 15.9236 6.68045 15.9998C6.71934 16.0761 6.83531 16.2475 7.16199 16.505C7.72114 16.9456 8.65419 17.43 9.98543 17.8737C12.627 18.7542 16.4036 19.3332 20.6667 19.3332C24.9298 19.3332 28.7064 18.7542 31.3479 17.8737C32.6792 17.43 33.6122 16.9456 34.1714 16.505C34.4981 16.2475 34.614 16.0761 34.6529 15.9998C34.614 15.9236 34.4981 15.7521 34.1714 15.4947C33.6122 15.054 32.6792 14.5697 31.3479 14.126C28.7064 13.2454 24.9298 12.6665 20.6667 12.6665C16.4036 12.6665 12.627 13.2454 9.98543 14.126C8.65419 14.5697 7.72114 15.054 7.16199 15.4947ZM34.6667 20.8494C34.028 21.1549 33.337 21.4271 32.6129 21.6684C29.4636 22.7182 25.2401 23.3332 20.6667 23.3332C16.0933 23.3332 11.8698 22.7182 8.72052 21.6684C7.99641 21.4271 7.30532 21.1549 6.66669 20.8494V23.9694C6.68617 24.0206 6.78012 24.204 7.16199 24.505C7.72114 24.9456 8.65419 25.43 9.98543 25.8737C12.627 26.7542 16.4036 27.3332 20.6667 27.3332C24.9298 27.3332 28.7064 26.7542 31.3479 25.8737C32.6792 25.43 33.6122 24.9456 34.1714 24.505C34.5533 24.204 34.6472 24.0206 34.6667 23.9694V20.8494Z" fill="#18202A"/>
<path fill-rule="evenodd" clip-rule="evenodd" d="M35.3334 45.3332C35.3334 40.5467 39.2136 36.6665 44 36.6665H50.6667C51.7713 36.6665 52.6667 37.5619 52.6667 38.6665C52.6667 39.7711 51.7713 40.6665 50.6667 40.6665H44C41.4227 40.6665 39.3334 42.7558 39.3334 45.3332C39.3334 47.9105 41.4227 49.9998 44 49.9998H49.3334C50.4379 49.9998 51.3334 49.1044 51.3334 47.9998C51.3334 47.6316 51.0349 47.3332 50.6667 47.3332H46.6667C45.5621 47.3332 44.6667 46.4377 44.6667 45.3332C44.6667 44.2286 45.5621 43.3332 46.6667 43.3332H50.6667C53.244 43.3332 55.3334 45.4225 55.3334 47.9998C55.3334 51.3135 52.6471 53.9998 49.3334 53.9998H44C39.2136 53.9998 35.3334 50.1196 35.3334 45.3332Z" fill="#18202A"/>
</svg>
