<svg width="64" height="64" viewBox="0 0 64 64" fill="none" xmlns="http://www.w3.org/2000/svg">
<path fill-rule="evenodd" clip-rule="evenodd" d="M61.3333 8.66695C60.2287 8.66695 59.3333 9.56238 59.3333 10.6669V24.667H45.3333C44.2287 24.667 43.3333 25.5624 43.3333 26.667C43.3333 27.7715 44.2287 28.667 45.3333 28.667H61.3333C62.4379 28.667 63.3333 27.7715 63.3333 26.667V10.6669C63.3333 9.56238 62.4379 8.66695 61.3333 8.66695Z" fill="#18202A"/>
<path fill-rule="evenodd" clip-rule="evenodd" d="M20.6666 37.3336C20.6666 36.229 19.7712 35.3336 18.6666 35.3336H2.66665C1.56208 35.3336 0.666645 36.229 0.666645 37.3336V53.3336C0.666645 54.4382 1.56208 55.3336 2.66665 55.3336C3.77121 55.3336 4.66665 54.4382 4.66665 53.3336V39.3336H18.6666C19.7712 39.3336 20.6666 38.4382 20.6666 37.3336Z" fill="#18202A"/>
<path fill-rule="evenodd" clip-rule="evenodd" d="M39.2095 7.03044C34.9905 5.81008 30.5311 5.67837 26.2474 6.64761C21.9637 7.61686 17.9953 9.65545 14.7126 12.5732C11.4298 15.4909 8.9397 19.1927 7.47455 23.3331C7.10607 24.3744 7.65149 25.5172 8.69279 25.8857C9.73409 26.2542 10.8769 25.7088 11.2454 24.6675C12.4851 21.1641 14.5922 18.0318 17.3699 15.5629C20.1476 13.0941 23.5054 11.3691 27.1301 10.549C30.7548 9.72887 34.5281 9.84031 38.0981 10.8729C41.6681 11.9055 44.9182 13.8257 47.5454 16.4541C47.5602 16.4689 47.5752 16.4835 47.5904 16.4978L59.9638 28.1245C60.7687 28.8808 62.0344 28.8415 62.7908 28.0365C63.5472 27.2315 63.5078 25.9658 62.7029 25.2094L50.3519 13.6038C47.2511 10.509 43.4183 8.24784 39.2095 7.03044ZM1.20914 35.9641C0.452759 36.769 0.492134 38.0347 1.29709 38.7911L13.6481 50.3968C16.7489 53.4916 20.5816 55.7527 24.7904 56.9701C29.0095 58.1905 33.4689 58.3222 37.7526 57.353C42.0363 56.3837 46.0047 54.3451 49.2874 51.4274C52.5701 48.5096 55.0603 44.8079 56.5254 40.6675C56.8939 39.6262 56.3485 38.4833 55.3072 38.1149C54.2659 37.7464 53.123 38.2918 52.7545 39.3331C51.5148 42.8365 49.4078 45.9688 46.6301 48.4376C43.8524 50.9065 40.4945 52.6314 36.8698 53.4516C33.2452 54.2717 29.4718 54.1603 25.9019 53.1276C22.3319 52.095 19.0817 50.1749 16.4545 47.5464C16.4398 47.5316 16.4248 47.5171 16.4095 47.5028L4.0362 35.8761C3.23124 35.1197 1.96552 35.1591 1.20914 35.9641Z" fill="#18202A"/>
</svg>
