<svg width="64" height="64" viewBox="0 0 64 64" fill="none" xmlns="http://www.w3.org/2000/svg">
<path fill-rule="evenodd" clip-rule="evenodd" d="M44 21.3337V18.667C44 12.0396 38.6274 6.66699 32 6.66699C25.3726 6.66699 20 12.0396 20 18.667V21.3337H44ZM48 18.667V21.3337C53.891 21.3337 58.6666 26.1093 58.6666 32.0003V50.667C58.6666 56.558 53.891 61.3337 48 61.3337H16C10.1089 61.3337 5.33331 56.558 5.33331 50.667V32.0003C5.33331 26.1093 10.1089 21.3337 16 21.3337V18.667C16 9.83044 23.1634 2.66699 32 2.66699C40.8365 2.66699 48 9.83044 48 18.667ZM48 25.3337H16C12.3181 25.3337 9.33331 28.3184 9.33331 32.0003V50.667C9.33331 54.3489 12.3181 57.3337 16 57.3337H48C51.6819 57.3337 54.6666 54.3489 54.6666 50.667V32.0003C54.6666 28.3184 51.6819 25.3337 48 25.3337ZM20 41.3337C20 43.1746 18.5076 44.667 16.6666 44.667C14.8257 44.667 13.3333 43.1746 13.3333 41.3337C13.3333 39.4927 14.8257 38.0003 16.6666 38.0003C18.5076 38.0003 20 39.4927 20 41.3337ZM30.2222 41.3337C30.2222 43.1746 28.7298 44.667 26.8889 44.667C25.0479 44.667 23.5555 43.1746 23.5555 41.3337C23.5555 39.4927 25.0479 38.0003 26.8889 38.0003C28.7298 38.0003 30.2222 39.4927 30.2222 41.3337ZM37.1111 44.667C38.9521 44.667 40.4444 43.1746 40.4444 41.3337C40.4444 39.4927 38.9521 38.0003 37.1111 38.0003C35.2702 38.0003 33.7778 39.4927 33.7778 41.3337C33.7778 43.1746 35.2702 44.667 37.1111 44.667ZM50.6666 41.3337C50.6666 43.1746 49.1743 44.667 47.3333 44.667C45.4924 44.667 44 43.1746 44 41.3337C44 39.4927 45.4924 38.0003 47.3333 38.0003C49.1743 38.0003 50.6666 39.4927 50.6666 41.3337Z" fill="#18202A"/>
</svg>
