<svg width="64" height="64" viewBox="0 0 64 64" fill="none" xmlns="http://www.w3.org/2000/svg">
<g clip-path="url(#clip0_3352_8850)">
<path fill-rule="evenodd" clip-rule="evenodd" d="M58.6667 19.3333C58.6667 19.1565 58.5965 18.987 58.4715 18.8619C58.3464 18.7369 58.1769 18.6667 58 18.6667H46.6667C44.8986 18.6667 43.2029 17.9643 41.9527 16.714C40.7024 15.4638 40 13.7681 40 12V0.666667C40 0.489856 39.9298 0.320286 39.8048 0.195262C39.6798 0.0702379 39.5102 0 39.3334 0H10.6667C9.25222 0 7.89567 0.561903 6.89547 1.5621C5.89528 2.56229 5.33337 3.91885 5.33337 5.33333V58.6667C5.33337 60.0812 5.89528 61.4377 6.89547 62.4379C7.89567 63.4381 9.25222 64 10.6667 64H53.3334C54.7479 64 56.1044 63.4381 57.1046 62.4379C58.1048 61.4377 58.6667 60.0812 58.6667 58.6667V19.3333ZM29.3334 38.6667L21.3334 26.6667H26.6667L32 34.6667L37.3334 26.6667H42.6667L34.6667 38.6667L42.6667 50.6667H37.3334L32 42.6667L26.6667 50.6667H21.3334L29.3334 38.6667Z" fill="#18202A"/>
<path d="M43.8383 14.8284C44.5884 15.5785 45.6058 16 46.6667 16H57.0667C57.1987 16.0002 57.3279 15.9612 57.4377 15.888C57.5476 15.8148 57.6332 15.7106 57.6837 15.5886C57.7343 15.4666 57.7475 15.3324 57.7217 15.2029C57.6959 15.0734 57.6322 14.9545 57.5387 14.8613L43.8054 1.13863C43.7128 1.04578 43.5949 0.982293 43.4664 0.956121C43.3379 0.929949 43.2045 0.942254 43.083 0.991495C42.9614 1.04074 42.8571 1.12473 42.7831 1.23296C42.709 1.34119 42.6686 1.46885 42.6667 1.59997V12C42.6667 13.0608 43.0881 14.0782 43.8383 14.8284Z" fill="#18202A"/>
</g>
<defs>
<clipPath id="clip0_3352_8850">
<rect width="64" height="64" fill="white"/>
</clipPath>
</defs>
</svg>
