<svg width="64" height="64" viewBox="0 0 64 64" fill="none" xmlns="http://www.w3.org/2000/svg">
<g clip-path="url(#clip0_3725_8801)">
<path fill-rule="evenodd" clip-rule="evenodd" d="M26.6666 5.33366C26.6666 3.8609 25.4727 2.66699 24 2.66699C22.5272 2.66699 21.3333 3.8609 21.3333 5.33366V10.667H18.3333C15.5719 10.667 13.3333 12.9056 13.3333 15.667V24.0003H5.33329C3.86053 24.0003 2.66663 25.1942 2.66663 26.667C2.66663 28.1398 3.86053 29.3337 5.33329 29.3337H13.3333V34.667H5.33329C3.86053 34.667 2.66663 35.8609 2.66663 37.3337C2.66663 38.8064 3.86053 40.0003 5.33329 40.0003H13.3333V45.667C13.3333 48.4284 15.5719 50.667 18.3333 50.667H21.3333V58.667C21.3333 60.1398 22.5272 61.3337 24 61.3337C25.4727 61.3337 26.6666 60.1398 26.6666 58.667V50.667H37.3333V58.667C37.3333 60.1398 38.5272 61.3337 40 61.3337C41.4727 61.3337 42.6666 60.1398 42.6666 58.667V50.667H48.3333C51.0947 50.667 53.3333 48.4284 53.3333 45.667V40.0003H58.6666C60.1394 40.0003 61.3333 38.8064 61.3333 37.3337C61.3333 35.8609 60.1394 34.667 58.6666 34.667H53.3333V29.3337H58.6666C60.1394 29.3337 61.3333 28.1398 61.3333 26.667C61.3333 25.1942 60.1394 24.0003 58.6666 24.0003H53.3333V15.667C53.3333 12.9056 51.0947 10.667 48.3333 10.667H42.6666V5.33366C42.6666 3.8609 41.4727 2.66699 40 2.66699C38.5272 2.66699 37.3333 3.8609 37.3333 5.33366V10.667H26.6666V5.33366ZM40 26.667C40 25.1942 38.8061 24.0003 37.3333 24.0003H29.3333C27.8605 24.0003 26.6666 25.1942 26.6666 26.667V34.667C26.6666 36.1398 27.8605 37.3337 29.3333 37.3337H37.3333C38.8061 37.3337 40 36.1398 40 34.667V26.667Z" fill="#18202A"/>
</g>
<defs>
<clipPath id="clip0_3725_8801">
<rect width="64" height="64" fill="white"/>
</clipPath>
</defs>
</svg>
