<svg width="64" height="64" viewBox="0 0 64 64" fill="none" xmlns="http://www.w3.org/2000/svg">
<path fill-rule="evenodd" clip-rule="evenodd" d="M22.6667 1.33337C24.1395 1.33337 25.3334 2.52728 25.3334 4.00004V9.33337C25.3334 10.8061 24.1395 12 22.6667 12C21.1939 12 20 10.8061 20 9.33337V4.00004C20 2.52728 21.1939 1.33337 22.6667 1.33337ZM7.44776 7.44776C8.48915 6.40636 10.1776 6.40636 11.219 7.44776L15.219 11.4478C16.2604 12.4892 16.2604 14.1776 15.219 15.219C14.1776 16.2604 12.4892 16.2604 11.4478 15.219L7.44776 11.219C6.40636 10.1776 6.40636 8.48915 7.44776 7.44776ZM1.33337 22.6667C1.33337 21.1939 2.52728 20 4.00004 20H9.33337C10.8061 20 12 21.1939 12 22.6667C12 24.1395 10.8061 25.3334 9.33337 25.3334H4.00004C2.52728 25.3334 1.33337 24.1395 1.33337 22.6667ZM32 9.37332C38.2484 3.12493 48.379 3.12493 54.6274 9.37332C60.8758 15.6217 60.8758 25.7523 54.6274 32.0007L48.9705 37.6576C47.9291 38.699 46.2407 38.699 45.1993 37.6576C44.1579 36.6162 44.1579 34.9278 45.1993 33.8864L50.8562 28.2295C55.0217 24.0639 55.0217 17.3101 50.8562 13.1446C46.6906 8.97896 39.9368 8.97896 35.7712 13.1446L30.1144 18.8014C29.073 19.8428 27.3845 19.8428 26.3431 18.8014C25.3017 17.76 25.3017 16.0716 26.3431 15.0302L32 9.37332ZM9.37251 31.9985C3.12412 38.2469 3.12412 48.3775 9.37251 54.6259C15.6209 60.8743 25.7515 60.8743 31.9999 54.6259L37.6568 48.9691C38.6982 47.9277 38.6982 46.2392 37.6568 45.1978C36.6154 44.1564 34.9269 44.1564 33.8855 45.1978L28.2287 50.8547C24.0631 55.0203 17.3093 55.0203 13.1437 50.8547C8.97815 46.6891 8.97815 39.9353 13.1437 35.7697L18.8006 30.1129C19.842 29.0715 19.842 27.3831 18.8006 26.3417C17.7592 25.3003 16.0708 25.3003 15.0294 26.3417L9.37251 31.9985ZM38.6667 60C38.6667 61.4728 39.8606 62.6667 41.3334 62.6667C42.8061 62.6667 44 61.4728 44 60V54.6667C44 53.194 42.8061 52 41.3334 52C39.8606 52 38.6667 53.194 38.6667 54.6667V60ZM48.7811 52.5523L52.7811 56.5523C53.8225 57.5937 55.5109 57.5937 56.5523 56.5523C57.5937 55.5109 57.5937 53.8225 56.5523 52.7811L52.5523 48.7811C51.5109 47.7397 49.8225 47.7397 48.7811 48.7811C47.7397 49.8225 47.7397 51.5109 48.7811 52.5523ZM60 44C61.4728 44 62.6667 42.8061 62.6667 41.3334C62.6667 39.8606 61.4728 38.6667 60 38.6667H54.6667C53.194 38.6667 52 39.8606 52 41.3334C52 42.8061 53.194 44 54.6667 44H60Z" fill="#18202A"/>
</svg>
