<svg width="64" height="64" viewBox="0 0 64 64" fill="none" xmlns="http://www.w3.org/2000/svg">
<path fill-rule="evenodd" clip-rule="evenodd" d="M2.66667 13.3332C2.66667 7.44213 7.4423 2.6665 13.3333 2.6665H16L8.00001 13.3332H2.66667ZM14.6667 13.3332L22.6667 2.6665H32L24 13.3332H14.6667ZM30.6667 13.3332L38.6667 2.6665H48L40 13.3332H30.6667ZM46.6667 13.3332L54.2137 3.27045C58.3611 4.73235 61.3333 8.68566 61.3333 13.3332H46.6667ZM2.66667 50.6665V18.6665H61.3333V50.6665C61.3333 56.5575 56.5577 61.3332 50.6667 61.3332H13.3333C7.4423 61.3332 2.66667 56.5575 2.66667 50.6665ZM27.7329 31.0516C26.0901 30.0566 24 31.2511 24 33.185V46.7881C24 48.7219 26.0901 49.9164 27.7329 48.9215L38.9633 42.1199C40.5589 41.1536 40.5589 38.8195 38.9633 37.8531L27.7329 31.0516Z" fill="#18202A"/>
</svg>
