<svg width="64" height="64" viewBox="0 0 64 64" fill="none" xmlns="http://www.w3.org/2000/svg">
<path fill-rule="evenodd" clip-rule="evenodd" d="M42.6667 6.66699L44 6.66699C46.2091 6.66699 48 8.45785 48 10.667V53.3337C48 55.5428 46.2091 57.3337 44 57.3337H20C17.7909 57.3337 16 55.5428 16 53.3337V10.667C16 8.45785 17.7909 6.66699 20 6.66699L21.3333 6.66699V10.0003C21.3333 11.1049 22.2288 12.0003 23.3333 12.0003H40.6667C41.7712 12.0003 42.6667 11.1049 42.6667 10.0003V6.66699ZM12 10.667C12 6.24871 15.5817 2.66699 20 2.66699H44C48.4183 2.66699 52 6.24871 52 10.667V53.3337C52 57.7519 48.4183 61.3337 44 61.3337H20C15.5817 61.3337 12 57.7519 12 53.3337V10.667Z" fill="#18202A"/>
</svg>
