<svg width="64" height="64" viewBox="0 0 64 64" fill="none" xmlns="http://www.w3.org/2000/svg">
<path fill-rule="evenodd" clip-rule="evenodd" d="M12.7379 8.96329C11.558 7.78345 9.75661 7.67196 8.71429 8.71429C7.67196 9.75661 7.78345 11.558 8.96329 12.7379L15.1444 18.919C14.603 18.7544 13.9993 18.6667 13.3331 18.6667C9.77753 18.6667 7.99976 21.1667 7.99976 24.5C7.99976 28.6667 9.77753 32 13.3331 32C16.8886 32 18.6664 28.6667 18.6664 24.5C18.6664 23.6227 18.5433 22.803 18.2969 22.0715L30.9161 34.6907C26.5693 34.8838 22.5231 36.2333 19.0777 38.4389C15.5851 40.6747 14.4165 45.1299 15.8127 49.0347C16.2211 50.1767 16.6767 51.2962 17.1773 52.3908C18.5958 55.493 21.5083 57.6411 24.8823 58.1426C27.2047 58.4878 29.5813 58.6667 31.9997 58.6667C34.4181 58.6667 36.7948 58.4878 39.1171 58.1426C42.4911 57.6411 45.4037 55.493 46.8222 52.3908C47.0108 51.9785 47.193 51.5626 47.3687 51.1433L51.2621 55.0367C52.442 56.2166 54.2434 56.328 55.2857 55.2857C56.328 54.2434 56.2166 52.442 55.0367 51.2621L12.7379 8.96329ZM38.6236 27.3215L25.4389 14.1368C26.7415 11.9931 28.9285 10.6667 31.9998 10.6667C37.3331 10.6667 39.9998 14.6667 39.9998 20C39.9998 22.765 39.541 25.3006 38.6236 27.3215ZM51.5125 37.4713C52.5823 38.9736 53.3112 40.6581 53.7133 42.4112L61.0265 49.7245C61.4269 49.1456 61.7477 48.5028 61.9723 47.8084C62.9655 44.7374 61.8628 41.2853 59.0073 39.7808C56.7226 38.5771 54.1929 37.7759 51.5125 37.4713ZM50.6664 32C54.222 32 55.9998 28.6667 55.9998 24.5C55.9998 21.1667 54.222 18.6667 50.6664 18.6667C47.1109 18.6667 45.3331 21.1667 45.3331 24.5C45.3331 28.6667 47.1109 32 50.6664 32ZM10.7908 50.831C9.22416 46.4496 9.72238 41.3095 12.5289 37.4128C9.98316 37.6311 7.5651 38.2966 5.35362 39.3302C2.24146 40.7849 0.985662 44.4588 2.03635 47.7295C2.95563 50.5912 5.45198 52.6015 8.43502 52.9698C9.52446 53.1043 10.6252 53.2023 11.736 53.2625C11.3997 52.4628 11.0844 51.6521 10.7908 50.831Z" fill="#18202A"/>
</svg>
