<svg width="64" height="64" viewBox="0 0 64 64" fill="none" xmlns="http://www.w3.org/2000/svg">
<path d="M10.6667 13.3334C10.6667 11.8607 9.4728 10.6667 8.00004 10.6667C6.52728 10.6667 5.33337 11.8607 5.33337 13.3334V50.6667C5.33337 52.1395 6.52728 53.3334 8.00004 53.3334C9.4728 53.3334 10.6667 52.1395 10.6667 50.6667V34.6667L32 34.6667V50.6667C32 52.1395 33.1939 53.3334 34.6667 53.3334C36.1395 53.3334 37.3334 52.1395 37.3334 50.6667V13.3334C37.3334 11.8607 36.1395 10.6667 34.6667 10.6667C33.1939 10.6667 32 11.8607 32 13.3334V29.3334L10.6667 29.3334V13.3334Z" fill="#18202A"/>
<path d="M48 34.6667C48 33.8437 49.0723 32.0001 52 32.0001C54.7168 32.0001 56 33.6555 56 35.3334C56 35.9716 55.9081 36.6966 55.3932 37.669C54.8492 38.6967 53.774 40.1081 51.6117 41.9636L43.6262 48.6182C42.7637 49.3369 42.4438 50.5189 42.826 51.5746C43.2082 52.6302 44.2106 53.3334 45.3333 53.3334H58.6667C60.1394 53.3334 61.3333 52.1395 61.3333 50.6667C61.3333 49.194 60.1394 48.0001 58.6667 48.0001H52.6988L55.0407 46.0489L55.0688 46.0248C57.5639 43.8861 59.152 41.9679 60.1068 40.1644C61.0919 38.3036 61.3333 36.6953 61.3333 35.3334C61.3333 30.3447 57.2832 26.6667 52 26.6667C46.9277 26.6667 42.6667 30.1565 42.6667 34.6667C42.6667 36.1395 43.8606 37.3334 45.3333 37.3334C46.8061 37.3334 48 36.1395 48 34.6667Z" fill="#18202A"/>
</svg>
