<svg width="64" height="64" viewBox="0 0 64 64" fill="none" xmlns="http://www.w3.org/2000/svg">
<path d="M26.6666 7.33325C26.6666 8.43782 25.7712 9.33325 24.6666 9.33325H16C12.3181 9.33325 9.33331 12.318 9.33331 15.9999V47.9999C9.33331 51.6818 12.3181 54.6666 16 54.6666H48C51.6819 54.6666 54.6666 51.6818 54.6666 47.9999V39.3332C54.6666 38.2287 55.5621 37.3333 56.6666 37.3333C57.7712 37.3333 58.6666 38.2287 58.6666 39.3332V47.9999C58.6666 53.891 53.891 58.6666 48 58.6666H16C10.1089 58.6666 5.33331 53.891 5.33331 47.9999V15.9999C5.33331 10.1089 10.1089 5.33325 16 5.33325H24.6666C25.7712 5.33325 26.6666 6.22868 26.6666 7.33325Z" fill="#18202A"/>
<path fill-rule="evenodd" clip-rule="evenodd" d="M37.3333 9.33325C36.2287 9.33325 35.3333 8.43782 35.3333 7.33325C35.3333 6.22868 36.2287 5.33325 37.3333 5.33325H56.6666C57.7712 5.33325 58.6666 6.22868 58.6666 7.33325V26.6666C58.6666 27.7712 57.7712 28.6666 56.6666 28.6666C55.5621 28.6666 54.6666 27.7712 54.6666 26.6666V12.1617L29.4142 37.4141C28.6331 38.1952 27.3668 38.1952 26.5858 37.4141C25.8047 36.6331 25.8047 35.3668 26.5858 34.5857L51.8382 9.33325H37.3333Z" fill="#18202A"/>
</svg>
