<svg width="64" height="64" viewBox="0 0 64 64" fill="none" xmlns="http://www.w3.org/2000/svg">
<g clip-path="url(#clip0_2359_15591)">
<path fill-rule="evenodd" clip-rule="evenodd" d="M18.6666 2.66666C17.1939 2.66666 16 3.86056 16 5.33332V7.99999H13.3333C7.44226 7.99999 2.66663 12.7756 2.66663 18.6667V50.6667C2.66663 56.5577 7.44226 61.3333 13.3333 61.3333H31.3456C28.941 58.3336 27.33 54.6702 26.8311 50.6617C26.7767 50.665 26.7218 50.6667 26.6666 50.6667C25.1939 50.6667 24 49.4727 24 48C24 46.5272 25.1939 45.3333 26.6666 45.3333C26.7218 45.3333 26.7767 45.335 26.8311 45.3383C27.0994 43.1824 27.6894 41.1263 28.5516 39.2196C28.069 39.7018 27.4027 40 26.6666 40C25.1939 40 24 38.8061 24 37.3333C24 35.8606 25.1939 34.6667 26.6666 34.6667C28.1394 34.6667 29.3333 35.8606 29.3333 37.3333C29.3333 37.462 29.3242 37.5885 29.3066 37.7123C31.2469 34.1942 34.1514 31.2824 37.6639 29.3333H16C14.5272 29.3333 13.3333 28.1394 13.3333 26.6667C13.3333 25.1939 14.5272 24 16 24H48C49.4727 24 50.6666 25.1939 50.6666 26.6667C50.6666 26.7219 50.6649 26.7767 50.6616 26.8311C54.6702 27.33 58.3336 28.941 61.3333 31.3457V18.6667C61.3333 12.7756 56.5577 7.99999 50.6666 7.99999H48V5.33332C48 3.86056 46.8061 2.66666 45.3333 2.66666C43.8605 2.66666 42.6666 3.86056 42.6666 5.33332V7.99999H21.3333V5.33332C21.3333 3.86056 20.1394 2.66666 18.6666 2.66666ZM13.3333 37.3333C13.3333 35.8606 14.5272 34.6667 16 34.6667C17.4727 34.6667 18.6666 35.8606 18.6666 37.3333C18.6666 38.8061 17.4727 40 16 40C14.5272 40 13.3333 38.8061 13.3333 37.3333ZM16 45.3333C14.5272 45.3333 13.3333 46.5272 13.3333 48C13.3333 49.4727 14.5272 50.6667 16 50.6667C17.4727 50.6667 18.6666 49.4727 18.6666 48C18.6666 46.5272 17.4727 45.3333 16 45.3333ZM64 48C64 56.8365 56.8365 64 48 64C39.1634 64 32 56.8365 32 48C32 39.1634 39.1634 32 48 32C56.8365 32 64 39.1634 64 48ZM48 39.3333C49.1045 39.3333 50 40.2288 50 41.3333V47.1716L53.4142 50.5858C54.1952 51.3668 54.1952 52.6332 53.4142 53.4142C52.6331 54.1953 51.3668 54.1953 50.5857 53.4142L46.5857 49.4142C46.2107 49.0391 46 48.5304 46 48V41.3333C46 40.2288 46.8954 39.3333 48 39.3333Z" fill="#18202A"/>
</g>
<defs>
<clipPath id="clip0_2359_15591">
<rect width="64" height="64" fill="white"/>
</clipPath>
</defs>
</svg>
