<svg width="64" height="64" viewBox="0 0 64 64" fill="none" xmlns="http://www.w3.org/2000/svg">
<path d="M31.0003 2.81281C31.5217 2.65675 32.0722 2.62554 32.6053 2.71917L33.0011 2.81281L58.9768 10.626C60.3784 11.0485 61.3347 12.299 61.3334 13.7136C61.3334 48.311 43.1862 56.5817 33.4344 61.023C32.9811 61.2297 32.4915 61.3332 32.0008 61.3332C31.5099 61.3332 31.019 61.2297 30.5643 61.023L29.152 60.376C19.1652 55.7542 2.66669 46.7019 2.66669 13.7136C2.66669 12.4157 3.4702 11.2567 4.68365 10.7482L5.02446 10.626L31.0003 2.81281ZM32.0027 6.68784L6.66935 14.3065L6.67596 15.0451C6.86736 28.6793 10.0154 38.4742 15.5012 45.4574L16.0394 46.1245C20.0597 50.9772 24.0119 53.574 31.2166 56.9203L31.9974 57.2798L32.7795 56.9217L34.7569 55.9816C40.4398 53.2067 43.9575 50.7716 47.4124 46.7731L47.9605 46.125C53.7784 39.1026 57.1265 29.1192 57.3241 15.0416L57.328 14.3065L32.0027 6.68784Z" fill="#18202A"/>
<path fill-rule="evenodd" clip-rule="evenodd" d="M10.6752 17.5046L10.6667 17.2585L31.928 10.8638L53.1867 17.2585L53.1186 18.7129C52.4557 29.9259 49.5104 37.8974 44.8083 43.5731L44.3232 44.1464C41.2478 47.7034 38.0717 49.8894 32.7409 52.4788L31.928 52.8692L31.1097 52.4765C25.5013 49.7512 22.2795 47.4737 19.0476 43.5726L18.5506 42.9557C13.9746 37.1148 11.1744 28.9448 10.6752 17.5046ZM14.8512 20.177C15.6298 29.4912 18.1312 35.9245 21.6832 40.4682L22.1448 41.0412C24.7305 44.1572 27.2665 46.0777 31.9278 48.4194C36.3581 46.194 38.8502 44.3567 41.2839 41.5459L41.7408 41.0058C45.5252 36.4303 48.1944 29.8613 49.0044 20.1775L31.9279 15.0409L14.8512 20.177Z" fill="#18202A"/>
</svg>
