<svg width="64" height="64" viewBox="0 0 64 64" fill="none" xmlns="http://www.w3.org/2000/svg">
<path fill-rule="evenodd" clip-rule="evenodd" d="M61.3333 32.0001C61.3333 48.2004 48.2004 61.3334 32 61.3334C15.7997 61.3334 2.66667 48.2004 2.66667 32.0001C2.66667 15.7997 15.7997 2.66675 32 2.66675C48.2004 2.66675 61.3333 15.7997 61.3333 32.0001ZM44.5523 23.219C45.5937 22.1776 45.5937 20.4892 44.5523 19.4478C43.5109 18.4064 41.8225 18.4064 40.7811 19.4478L32 28.2288L23.219 19.4478C22.1776 18.4064 20.4891 18.4064 19.4477 19.4478C18.4063 20.4892 18.4063 22.1776 19.4477 23.219L28.2288 32.0001L19.4477 40.7811C18.4063 41.8225 18.4063 43.511 19.4477 44.5524C20.4891 45.5938 22.1776 45.5938 23.219 44.5524L32 35.7713L40.7811 44.5524C41.8225 45.5938 43.5109 45.5938 44.5523 44.5524C45.5937 43.511 45.5937 41.8225 44.5523 40.7811L35.7712 32.0001L44.5523 23.219Z" fill="#18202A"/>
</svg>
