<svg width="64" height="64" viewBox="0 0 64 64" fill="none" xmlns="http://www.w3.org/2000/svg">
<path fill-rule="evenodd" clip-rule="evenodd" d="M32 61.3334C48.2004 61.3334 61.3333 48.2004 61.3333 32.0001C61.3333 15.7997 48.2004 2.66675 32 2.66675C15.7997 2.66675 2.66667 15.7997 2.66667 32.0001C2.66667 48.2004 15.7997 61.3334 32 61.3334ZM34.6667 18.6667C34.6667 17.194 33.4728 16.0001 32 16.0001C30.5272 16.0001 29.3333 17.194 29.3333 18.6667V29.3334H18.6667C17.1939 29.3334 16 30.5273 16 32.0001C16 33.4728 17.1939 34.6667 18.6667 34.6667H29.3333V45.3334C29.3333 46.8062 30.5272 48.0001 32 48.0001C33.4728 48.0001 34.6667 46.8062 34.6667 45.3334V34.6667H45.3333C46.8061 34.6667 48 33.4728 48 32.0001C48 30.5273 46.8061 29.3334 45.3333 29.3334H34.6667V18.6667Z" fill="#18202A"/>
</svg>
