<svg width="64" height="64" viewBox="0 0 64 64" fill="none" xmlns="http://www.w3.org/2000/svg">
<path fill-rule="evenodd" clip-rule="evenodd" d="M32 61.3333C48.2004 61.3333 61.3333 48.2003 61.3333 32C61.3333 15.7996 48.2004 2.66663 32 2.66663C15.7997 2.66663 2.66667 15.7996 2.66667 32C2.66667 48.2003 15.7997 61.3333 32 61.3333ZM31.219 19.4477C30.1776 18.4063 28.4891 18.4063 27.4477 19.4477C26.4063 20.4891 26.4063 22.1775 27.4477 23.2189L36.2288 32L27.4477 40.781C26.4063 41.8224 26.4063 43.5108 27.4477 44.5522C28.4891 45.5936 30.1776 45.5936 31.219 44.5522L41.8856 33.8856C42.927 32.8442 42.927 31.1557 41.8856 30.1143L31.219 19.4477Z" fill="#18202A"/>
</svg>
