<svg width="64" height="64" viewBox="0 0 64 64" fill="none" xmlns="http://www.w3.org/2000/svg">
<g clip-path="url(#clip0_2359_21122)">
<path fill-rule="evenodd" clip-rule="evenodd" d="M40 18.75C40 25 37.3333 30 32 30C26.6667 30 24 25 24 18.75C24 13.75 26.6667 10 32 10C37.3333 10 40 13.75 40 18.75ZM37 18.75C37 21.5062 36.4033 23.6842 35.492 25.0725C34.6615 26.3378 33.5651 27 32 27C30.4349 27 29.3385 26.3378 28.508 25.0725C27.5967 23.6842 27 21.5062 27 18.75C27 16.7503 27.5341 15.3239 28.2821 14.4474C28.9722 13.6386 30.092 13 32 13C33.908 13 35.0278 13.6386 35.7179 14.4474C36.4659 15.3239 37 16.7503 37 18.75ZM28.1797 50.7815C28.3167 51.8341 28.5305 52.8625 28.8152 53.8611C26.8386 53.6878 24.9078 53.3548 23.0358 52.875C20.5978 52.2502 18.5314 50.6171 17.3997 48.369C17.0642 47.7026 16.7514 47.0229 16.4622 46.3308C15.2331 43.3902 15.7229 39.9498 17.9986 37.7185C21.6063 34.1812 26.5484 32 32 32C33.0116 32 34.0056 32.0751 34.9768 32.22C34.0428 33.0703 33.1845 34.0024 32.4134 35.0049C32.276 35.0016 32.1382 35 32 35C27.3651 35 23.1685 36.8509 20.099 39.8606C18.8113 41.1232 18.4113 43.2148 19.2301 45.174C19.4921 45.8007 19.7754 46.4164 20.0793 47.0201C20.812 48.4755 22.1619 49.5541 23.7806 49.969C25.2109 50.3355 26.6794 50.6087 28.1797 50.7815ZM46.3229 32C45.8404 32 45.4268 32.3445 45.3394 32.819L44.823 35.6239C43.2231 36.1768 41.7638 37.0312 40.513 38.1191L37.8184 37.1613C37.3638 36.9997 36.8587 37.1857 36.6174 37.6035L33.8502 42.3966C33.6089 42.8144 33.7004 43.3449 34.0676 43.6578L36.2455 45.5133C36.0907 46.3184 36.0097 47.1497 36.0097 48C36.0097 48.8503 36.0907 49.6816 36.2456 50.4868L34.0677 52.3423C33.7004 52.6552 33.609 53.1857 33.8502 53.6035L36.6175 58.3966C36.8587 58.8144 37.3638 59.0004 37.8184 58.8388L40.5131 57.8809C41.7639 58.9688 43.2231 59.8232 44.823 60.3761L45.3394 63.181C45.4268 63.6555 45.8404 64 46.3229 64H51.8575C52.3399 64 52.7536 63.6555 52.8409 63.181L53.3559 60.3838C54.9619 59.832 56.4268 58.9766 57.682 57.8861L60.362 58.8388C60.8166 59.0004 61.3217 58.8144 61.563 58.3966L64.3303 53.6035C64.5715 53.1857 64.48 52.6552 64.1128 52.3423L61.9527 50.5019C62.1094 49.6921 62.1915 48.8556 62.1915 48C62.1915 47.1444 62.1094 46.308 61.9527 45.4982L64.1128 43.6578C64.48 43.3449 64.5715 42.8144 64.3303 42.3966L61.563 37.6035C61.3218 37.1857 60.8166 36.9997 60.362 37.1613L57.6821 38.1139C56.4269 37.0234 54.962 36.168 53.3559 35.6162L52.8409 32.819C52.7536 32.3445 52.3399 32 51.8575 32H46.3229ZM49.0885 53.3333C52.034 53.3333 54.4218 50.9455 54.4218 48C54.4218 45.0545 52.034 42.6667 49.0885 42.6667C46.1429 42.6667 43.7551 45.0545 43.7551 48C43.7551 50.9455 46.1429 53.3333 49.0885 53.3333Z" fill="#18202A"/>
</g>
<defs>
<clipPath id="clip0_2359_21122">
<rect width="64" height="64" fill="white"/>
</clipPath>
</defs>
</svg>
