<svg width="64" height="64" viewBox="0 0 64 64" fill="none" xmlns="http://www.w3.org/2000/svg">
<path fill-rule="evenodd" clip-rule="evenodd" d="M36.7482 37.7603L34.0045 31.9988C33.9714 31.9995 33.9381 31.9999 33.9048 31.9999H16.7619C16.7286 31.9999 16.6954 31.9995 16.6623 31.9988L11.1629 43.5468C10.4029 45.1426 8.55475 45.7894 7.03487 44.9915C5.51499 44.1936 4.89894 42.2532 5.65888 40.6574L21.2054 8.01187C22.9062 4.44038 27.7605 4.44037 29.4614 8.01187L41.4087 33.0997L46.2324 28.276L57.0572 39.1008L33.6915 62.4665L23.8261 63.9744C22.3819 64.1951 21.1382 62.9514 21.3589 61.5072L22.8667 51.6418L36.7482 37.7603ZM25.3334 13.7907L31.4652 26.6666H19.2016L25.3334 13.7907Z" fill="#18202A"/>
<path d="M49.2942 25.2143L51.9075 22.601C52.7195 21.7893 53.8206 21.3333 54.9687 21.3333C56.1169 21.3333 57.218 21.7893 58.03 22.601L62.7323 27.3033C63.544 28.1153 64 29.2164 64 30.3645C64 31.5127 63.544 32.6138 62.7323 33.4258L60.119 36.0391L49.2942 25.2143Z" fill="#18202A"/>
</svg>
