<svg width="64" height="64" viewBox="0 0 64 64" fill="none" xmlns="http://www.w3.org/2000/svg">
<g clip-path="url(#clip0_3875_8904)">
<g clip-path="url(#clip1_3875_8904)">
<path fill-rule="evenodd" clip-rule="evenodd" d="M29.3333 2.66699C24.915 2.66699 21.3333 6.24871 21.3333 10.667V13.3337H7.33331C6.22874 13.3337 5.33331 14.2291 5.33331 15.3337C5.33331 16.4382 6.22874 17.3337 7.33331 17.3337H10.6666V45.3337C10.6666 54.1702 17.8301 61.3337 26.6666 61.3337H37.0031C36.054 60.1197 35.2632 58.776 34.6617 57.3337H26.6666C20.0392 57.3337 14.6666 51.9611 14.6666 45.3337V17.3337H49.3333V33.3842C49.7734 33.3507 50.218 33.3337 50.6666 33.3337C51.5735 33.3337 52.4641 33.4033 53.3333 33.5375V17.3337H56.6666C57.7712 17.3337 58.6666 16.4382 58.6666 15.3337C58.6666 14.2291 57.7712 13.3337 56.6666 13.3337H42.6666V10.667C42.6666 6.24871 39.0849 2.66699 34.6666 2.66699H29.3333ZM38.6666 10.667C38.6666 8.45785 36.8758 6.66699 34.6666 6.66699H29.3333C27.1242 6.66699 25.3333 8.45785 25.3333 10.667V13.3337H38.6666V10.667Z" fill="#18202A"/>
<path d="M35.3333 42.5766C36.3463 40.6608 37.7077 38.9577 39.3333 37.5517V29.3337C39.3333 28.2291 38.4379 27.3337 37.3333 27.3337C36.2287 27.3337 35.3333 28.2291 35.3333 29.3337V42.5766Z" fill="#18202A"/>
<path d="M26.6666 27.3337C27.7712 27.3337 28.6666 28.2291 28.6666 29.3337V45.3337C28.6666 46.4382 27.7712 47.3337 26.6666 47.3337C25.5621 47.3337 24.6666 46.4382 24.6666 45.3337V29.3337C24.6666 28.2291 25.5621 27.3337 26.6666 27.3337Z" fill="#18202A"/>
<path fill-rule="evenodd" clip-rule="evenodd" d="M50.6666 64.0003C58.0304 64.0003 64 58.0308 64 50.667C64 43.3032 58.0304 37.3337 50.6666 37.3337C43.3028 37.3337 37.3333 43.3032 37.3333 50.667C37.3333 58.0308 43.3028 64.0003 50.6666 64.0003ZM52.6666 44.0003C52.6666 42.8958 51.7712 42.0003 50.6666 42.0003C49.5621 42.0003 48.6666 42.8958 48.6666 44.0003V50.667C48.6666 51.1974 48.8774 51.7061 49.2524 52.0812L53.2524 56.0812C54.0335 56.8623 55.2998 56.8623 56.0809 56.0812C56.8619 55.3002 56.8619 54.0338 56.0809 53.2528L52.6666 49.8386V44.0003Z" fill="#18202A"/>
</g>
</g>
<defs>
<clipPath id="clip0_3875_8904">
<rect width="64" height="64" fill="white"/>
</clipPath>
<clipPath id="clip1_3875_8904">
<rect width="64" height="64" fill="white"/>
</clipPath>
</defs>
</svg>
