<svg width="64" height="64" viewBox="0 0 64 64" fill="none" xmlns="http://www.w3.org/2000/svg">
<path d="M14.6667 40.8411L12.9433 41.9156L14.2427 35.399H8.24242C6.07613 35.399 4 33.5013 4 30.7561V11.3094C4 8.56424 6.07613 6.6665 8.24243 6.6665H37.0909C39.2572 6.6665 41.3333 8.56424 41.3333 11.3094V11.9998H45.3333V11.3094C45.3333 6.53608 41.6431 2.6665 37.0909 2.6665H8.24243C3.69026 2.6665 0 6.53608 0 11.3094V30.7561C0 34.4793 2.24521 37.6527 5.39338 38.8688C6.28127 39.2117 7.24099 39.399 8.24242 39.399H9.36639L8.17162 45.3908C7.80454 47.2317 9.70011 48.6515 11.2417 47.6903L14.6667 45.5549V40.8411Z" fill="#18202A"/>
<path fill-rule="evenodd" clip-rule="evenodd" d="M58.6066 52.2021C61.7548 50.9861 64 47.8127 64 44.0894V24.6428C64 19.8694 60.3097 15.9998 55.7576 15.9998H26.9091C22.3569 15.9998 18.6667 19.8694 18.6667 24.6428V44.0894C18.6667 48.8628 22.3569 52.7323 26.9091 52.7323H39.4601L52.7583 61.0236C54.2999 61.9848 56.1955 60.565 55.8284 58.7242L54.6336 52.7323H55.7576C56.759 52.7323 57.7187 52.5451 58.6066 52.2021ZM40.6049 48.7323L51.0567 55.2489L49.7573 48.7323H55.7576C57.9239 48.7323 60 46.8346 60 44.0894V24.6428C60 21.8976 57.9239 19.9998 55.7576 19.9998H26.9091C24.7428 19.9998 22.6667 21.8976 22.6667 24.6428V44.0894C22.6667 46.8346 24.7428 48.7323 26.9091 48.7323H40.6049Z" fill="#18202A"/>
</svg>
