<svg width="64" height="64" viewBox="0 0 64 64" fill="none" xmlns="http://www.w3.org/2000/svg">
<path d="M3.25604 3.25586C4.04185 2.47005 5.3159 2.47005 6.1017 3.25586L55.4107 52.5648C56.1965 53.3506 56.1965 54.6247 55.4107 55.4105C54.6249 56.1963 53.3508 56.1963 52.565 55.4105L3.25604 6.10152C2.47024 5.31571 2.47024 4.04167 3.25604 3.25586Z" fill="#18202A"/>
<path d="M11.5156 8.67357L5.02446 10.626L4.68365 10.7482C3.4702 11.2567 2.66669 12.4157 2.66669 13.7136C2.66669 46.7019 19.1652 55.7542 29.152 60.376L30.5643 61.023C31.019 61.2297 31.5099 61.3332 32.0008 61.3332C32.4915 61.3332 32.9811 61.2297 33.4344 61.023C38.3713 58.7746 45.4599 55.5447 51.2563 48.4143L48.411 45.569C48.2626 45.7564 48.1124 45.9417 47.9605 46.125L47.4124 46.7731C43.9575 50.7716 40.4398 53.2067 34.7569 55.9816L32.7795 56.9217L31.9974 57.2798L31.2166 56.9203C24.0119 53.574 20.0597 50.9772 16.0394 46.1245L15.5012 45.4574C10.0154 38.4742 6.86736 28.6793 6.67596 15.0451L6.66935 14.3065L14.7257 11.8837L11.5156 8.67357Z" fill="#18202A"/>
<path d="M17.9192 15.0772L10.6667 17.2585L10.6752 17.5046C11.1744 28.9448 13.9746 37.1148 18.5506 42.9557L19.0476 43.5726C22.2795 47.4737 25.5013 49.7512 31.1097 52.4765L31.928 52.8692L32.7409 52.4788C38.0717 49.8894 41.2478 47.7034 44.3232 44.1464L44.8083 43.5731C45.0503 43.281 45.2877 42.9827 45.5203 42.6783L42.6626 39.8206C42.3634 40.2299 42.056 40.6248 41.7408 41.0058L41.2839 41.5459C38.8502 44.3567 36.3581 46.194 31.9278 48.4194C27.2665 46.0777 24.7305 44.1572 22.1448 41.0412L21.6832 40.4682C18.1312 35.9245 15.6298 29.4912 14.8512 20.177L21.1304 18.2884L17.9192 15.0772Z" fill="#18202A"/>
<path d="M25.4793 16.9804L22.2681 13.7692L31.928 10.8638L53.1867 17.2585L53.1186 18.7129C52.6084 27.3426 50.7464 34.0523 47.772 39.2732L44.8231 36.3242C46.9582 32.2127 48.4372 26.9588 49.0044 20.1775L31.9279 15.0409L25.4793 16.9804Z" fill="#18202A"/>
<path d="M50.7368 42.2379C54.8357 35.5516 57.1604 26.7008 57.3241 15.0416L57.328 14.3065L32.0027 6.68784L19.0747 10.5758L15.8644 7.3655L31.0003 2.81281C31.5217 2.65675 32.0722 2.62554 32.6053 2.71917L33.0011 2.81281L58.9768 10.626C60.3784 11.0485 61.3347 12.299 61.3334 13.7136C61.3334 28.3114 58.1027 38.2223 53.6351 45.1362L50.7368 42.2379Z" fill="#18202A"/>
</svg>
