<svg width="64" height="64" viewBox="0 0 64 64" fill="none" xmlns="http://www.w3.org/2000/svg">
<path fill-rule="evenodd" clip-rule="evenodd" d="M26.6666 27.3334C27.7712 27.3334 28.6666 28.2288 28.6666 29.3334V45.3334C28.6666 46.438 27.7712 47.3334 26.6666 47.3334C25.5621 47.3334 24.6666 46.438 24.6666 45.3334V29.3334C24.6666 28.2288 25.5621 27.3334 26.6666 27.3334Z" fill="#18202A"/>
<path fill-rule="evenodd" clip-rule="evenodd" d="M37.3333 27.3334C38.4379 27.3334 39.3333 28.2288 39.3333 29.3334V45.3334C39.3333 46.438 38.4379 47.3334 37.3333 47.3334C36.2287 47.3334 35.3333 46.438 35.3333 45.3334V29.3334C35.3333 28.2288 36.2287 27.3334 37.3333 27.3334Z" fill="#18202A"/>
<path fill-rule="evenodd" clip-rule="evenodd" d="M49.3333 17.3334H14.6666V45.3334C14.6666 51.9608 20.0392 57.3334 26.6666 57.3334H37.3333C43.9607 57.3334 49.3333 51.9608 49.3333 45.3334V17.3334ZM10.6666 13.3334V45.3334C10.6666 54.17 17.8301 61.3334 26.6666 61.3334H37.3333C46.1699 61.3334 53.3333 54.17 53.3333 45.3334V13.3334H10.6666Z" fill="#18202A"/>
<path d="M5.33331 15.3334C5.33331 14.2288 6.22874 13.3334 7.33331 13.3334H56.6666C57.7712 13.3334 58.6666 14.2288 58.6666 15.3334C58.6666 16.438 57.7712 17.3334 56.6666 17.3334H7.33331C6.22874 17.3334 5.33331 16.438 5.33331 15.3334Z" fill="#18202A"/>
<path fill-rule="evenodd" clip-rule="evenodd" d="M34.6666 6.66675H29.3333C27.1242 6.66675 25.3333 8.45761 25.3333 10.6667V13.3334H38.6666V10.6667C38.6666 8.45761 36.8758 6.66675 34.6666 6.66675ZM29.3333 2.66675C24.915 2.66675 21.3333 6.24847 21.3333 10.6667V17.3334H42.6666V10.6667C42.6666 6.24847 39.0849 2.66675 34.6666 2.66675H29.3333Z" fill="#18202A"/>
</svg>
