<svg width="64" height="64" viewBox="0 0 64 64" fill="none" xmlns="http://www.w3.org/2000/svg">
<path fill-rule="evenodd" clip-rule="evenodd" d="M53.3071 18.0135C52.9748 13.9006 49.5318 10.6665 45.3334 10.6665H18.6667C14.4683 10.6665 11.0252 13.9006 10.693 18.0135C9.19354 19.3437 8.19742 21.2288 8.02631 23.3468C6.3744 24.8124 5.33337 26.9512 5.33337 29.3332V50.6665C5.33337 55.0848 8.91509 58.6665 13.3334 58.6665H50.6667C55.085 58.6665 58.6667 55.0848 58.6667 50.6665V29.3332C58.6667 26.9512 57.6257 24.8124 55.9738 23.3468C55.8027 21.2288 54.8065 19.3437 53.3071 18.0135ZM48.3205 16.0061C47.5879 15.1842 46.5211 14.6665 45.3334 14.6665H18.6667C17.479 14.6665 16.4122 15.1841 15.6796 16.0061C15.7859 16.002 15.8927 15.9998 16 15.9998H48C48.1073 15.9998 48.2142 16.002 48.3205 16.0061ZM13.3334 21.3332C13.2261 21.3332 13.1192 21.3353 13.0129 21.3395C13.7455 20.5175 14.8123 19.9998 16 19.9998H48C49.1877 19.9998 50.2546 20.5175 50.9871 21.3395C50.8809 21.3353 50.774 21.3332 50.6667 21.3332H13.3334ZM32 26.6665C33.4728 26.6665 34.6667 27.8604 34.6667 29.3332V37.3332H42.6667C44.1395 37.3332 45.3334 38.5271 45.3334 39.9998C45.3334 41.4726 44.1395 42.6665 42.6667 42.6665H34.6667V50.6665C34.6667 52.1393 33.4728 53.3332 32 53.3332C30.5273 53.3332 29.3334 52.1393 29.3334 50.6665V42.6665H21.3334C19.8606 42.6665 18.6667 41.4726 18.6667 39.9998C18.6667 38.5271 19.8606 37.3332 21.3334 37.3332H29.3334V29.3332C29.3334 27.8604 30.5273 26.6665 32 26.6665Z" fill="#18202A"/>
</svg>
