<svg width="64" height="64" viewBox="0 0 64 64" fill="none" xmlns="http://www.w3.org/2000/svg">
<path fill-rule="evenodd" clip-rule="evenodd" d="M32 29.3337C39.1111 29.3337 42.6667 22.667 42.6667 14.3337C42.6667 7.66699 39.1111 2.66699 32 2.66699C24.8889 2.66699 21.3333 7.66699 21.3333 14.3337C21.3333 22.667 24.8889 29.3337 32 29.3337ZM32.0001 34.667C34.594 34.667 37.1014 35.0373 39.4723 35.7281C34.9352 39.1334 32 44.5574 32 50.667C32 54.5852 33.2072 58.2214 35.27 61.224C34.1894 61.2967 33.099 61.3337 32 61.3337C27.8736 61.3337 23.8689 60.813 20.0478 59.8337C16.797 59.0006 14.0419 56.8231 12.533 53.8257C12.4912 53.7427 12.4497 53.6595 12.4084 53.5763C10.3225 49.364 11.0318 44.2033 14.5911 41.1331C19.2626 37.1036 25.3468 34.667 32.0001 34.667ZM64 50.667C64 58.0308 58.0305 64.0003 50.6667 64.0003C43.3029 64.0003 37.3333 58.0308 37.3333 50.667C37.3333 43.3032 43.3029 37.3337 50.6667 37.3337C58.0305 37.3337 64 43.3032 64 50.667ZM50.6667 40.8003C49.1746 40.8003 47.9166 40.9028 46.9562 41.0224C44.7268 41.3 43.3334 43.2266 43.3333 45.2307L43.3333 45.8103C43.3333 47.0553 43.8279 48.2492 44.7082 49.1295C45.4892 49.9106 46.7556 49.9106 47.5366 49.1295C48.3177 48.3485 48.3177 47.0821 47.5366 46.3011C47.4065 46.1709 47.3333 45.9944 47.3333 45.8103L47.3333 45.2307C47.3333 45.1233 47.3696 45.0546 47.3953 45.0233C47.4076 45.0084 47.417 45.0022 47.4213 44.9998C47.4244 44.9981 47.4318 44.994 47.4504 44.9917C48.2648 44.8903 49.3569 44.8003 50.6667 44.8003C51.8746 44.8003 52.8974 44.8769 53.688 44.9683C53.7686 44.9776 53.8281 45.0102 53.8817 45.075C53.9422 45.1481 54 45.2738 54 45.4445C54 46.4431 53.418 47.3501 52.5102 47.7661L51.0456 48.4373C49.596 49.1016 48.6667 50.5498 48.6667 52.1443C48.6667 53.2488 49.5621 54.1443 50.6667 54.1443C51.7713 54.1443 52.6667 53.2488 52.6667 52.1443C52.6667 52.1139 52.6844 52.0863 52.712 52.0736L54.1766 51.4024C56.5063 50.3348 58 48.0072 58 45.4445C58 43.3172 56.5198 41.2692 54.1477 40.9948C53.2197 40.8875 52.0428 40.8003 50.6667 40.8003ZM50.6667 61.3337C52.1394 61.3337 53.3333 60.1397 53.3333 58.667C53.3333 57.1942 52.1394 56.0003 50.6667 56.0003C49.1939 56.0003 48 57.1942 48 58.667C48 60.1397 49.1939 61.3337 50.6667 61.3337Z" fill="#18202A"/>
</svg>
