<svg width="64" height="64" viewBox="0 0 64 64" fill="none" xmlns="http://www.w3.org/2000/svg">
<g clip-path="url(#clip0_2359_18396)">
<path fill-rule="evenodd" clip-rule="evenodd" d="M61.3333 55.9998C59.8606 55.9998 58.6667 54.8059 58.6667 53.3331V39.9998H45.3333C43.8606 39.9998 42.6667 38.8059 42.6667 37.3331C42.6667 35.8604 43.8606 34.6665 45.3333 34.6665H61.3333C62.8061 34.6665 64 35.8604 64 37.3331V53.3331C64 54.8059 62.8061 55.9998 61.3333 55.9998Z" fill="#18202A"/>
<path fill-rule="evenodd" clip-rule="evenodd" d="M21.3333 26.6665C21.3333 28.1392 20.1394 29.3331 18.6667 29.3331H2.66666C1.1939 29.3331 -1.52588e-05 28.1392 -1.52588e-05 26.6665V10.6665C-1.52588e-05 9.1937 1.1939 7.99979 2.66666 7.99979C4.13942 7.99979 5.33332 9.1937 5.33332 10.6665V23.9998H18.6667C20.1394 23.9998 21.3333 25.1937 21.3333 26.6665Z" fill="#18202A"/>
<path fill-rule="evenodd" clip-rule="evenodd" d="M39.3948 57.6101C35.0676 58.8617 30.4938 58.9968 26.1003 58.0027C21.7067 57.0086 17.6366 54.9177 14.2697 51.9252C10.9028 48.9326 8.3488 45.136 6.84608 40.8894C6.35477 39.501 7.082 37.9772 8.4704 37.4859C9.8588 36.9946 11.3826 37.7218 11.8739 39.1102C13.0761 42.5075 15.1193 45.5448 17.8128 47.9388C20.5063 50.3329 23.7624 52.0056 27.2772 52.8009C30.7921 53.5961 34.4511 53.4881 37.9129 52.4867C41.3746 51.4854 44.5264 49.6235 47.0739 47.0747C47.0936 47.0549 47.1136 47.0355 47.1339 47.0165L59.5073 35.3898C60.5805 34.3813 62.2682 34.4338 63.2767 35.5071C64.2852 36.5803 64.2327 38.268 63.1594 39.2765L50.8157 50.8753C47.6366 54.0457 43.7083 56.3624 39.3948 57.6101ZM0.723316 28.4925C-0.285202 27.4193 -0.232697 25.7316 0.840584 24.7231L13.1843 13.1243C16.3634 9.95383 20.2917 7.63721 24.6052 6.38953C28.9324 5.13788 33.5062 5.0028 37.8997 5.99689C42.2933 6.99099 46.3634 9.08187 49.7303 12.0744C53.0972 15.067 55.6512 18.8636 57.1539 23.1102C57.6452 24.4986 56.918 26.0224 55.5296 26.5137C54.1412 27.005 52.6174 26.2778 52.1261 24.8894C50.9239 21.4921 48.8807 18.4548 46.1872 16.0608C43.4937 13.6667 40.2376 11.994 36.7227 11.1987C33.2079 10.4035 29.5489 10.5115 26.0871 11.5128C22.6253 12.5142 19.4736 14.3761 16.9261 16.9249C16.9142 16.9368 16.9023 16.9485 16.8902 16.9602C16.8822 16.9679 16.8742 16.9755 16.8661 16.9831L4.49273 28.6098C3.41945 29.6183 1.73183 29.5658 0.723316 28.4925Z" fill="#18202A"/>
</g>
<defs>
<clipPath id="clip0_2359_18396">
<rect width="64" height="64" fill="white" transform="matrix(1 0 0 -1 0 64)"/>
</clipPath>
</defs>
</svg>
