<svg width="64" height="64" viewBox="0 0 64 64" fill="none" xmlns="http://www.w3.org/2000/svg">
<path d="M23.3333 5.3335C24.4379 5.3335 25.3333 6.22893 25.3333 7.3335C25.3333 8.43807 24.4379 9.3335 23.3333 9.3335H13.3333C11.1242 9.3335 9.33331 11.1244 9.33331 13.3335V23.3335C9.33331 24.4381 8.43788 25.3335 7.33331 25.3335C6.22874 25.3335 5.33331 24.4381 5.33331 23.3335V13.3335C5.33331 8.91522 8.91504 5.3335 13.3333 5.3335H23.3333Z" fill="#18202A"/>
<path d="M38.6666 7.3335C38.6666 8.43807 39.5621 9.3335 40.6666 9.3335H50.6666C52.8758 9.3335 54.6666 11.1244 54.6666 13.3335V23.3335C54.6666 24.4381 55.5621 25.3335 56.6666 25.3335C57.7712 25.3335 58.6666 24.4381 58.6666 23.3335V13.3335C58.6666 8.91522 55.0849 5.3335 50.6666 5.3335H40.6666C39.5621 5.3335 38.6666 6.22893 38.6666 7.3335Z" fill="#18202A"/>
<path d="M38.6666 56.6668C38.6666 55.5623 39.5621 54.6668 40.6666 54.6668H50.6666C52.8758 54.6668 54.6666 52.876 54.6666 50.6668V40.6668C54.6666 39.5623 55.5621 38.6668 56.6666 38.6668C57.7712 38.6668 58.6666 39.5623 58.6666 40.6668V50.6668C58.6666 55.0851 55.0849 58.6668 50.6666 58.6668H40.6666C39.5621 58.6668 38.6666 57.7714 38.6666 56.6668Z" fill="#18202A"/>
<path d="M9.33331 40.6668C9.33331 39.5623 8.43788 38.6668 7.33331 38.6668C6.22874 38.6668 5.33331 39.5623 5.33331 40.6668V50.6668C5.33331 55.0851 8.91503 58.6668 13.3333 58.6668H23.3333C24.4379 58.6668 25.3333 57.7714 25.3333 56.6668C25.3333 55.5623 24.4379 54.6668 23.3333 54.6668H13.3333C11.1242 54.6668 9.33331 52.876 9.33331 50.6668V40.6668Z" fill="#18202A"/>
</svg>
