<svg width="64" height="64" viewBox="0 0 64 64" fill="none" xmlns="http://www.w3.org/2000/svg">
<path d="M17.7533 15.2483C11.0409 19.5559 6.01452 25.8529 3.52635 29.3716C2.40341 30.9596 2.40341 33.0402 3.52635 34.6282C7.55919 40.3313 18.26 53.3332 32 53.3332C38.547 53.3332 44.404 50.3812 49.1784 46.6734L46.3254 43.8205C42.0406 47.0609 37.1711 49.3332 32 49.3332C26.4078 49.3332 21.1682 46.6757 16.6395 43.0102C12.1381 39.3669 8.69803 35.0138 6.7923 32.3188C6.7117 32.2048 6.68414 32.0956 6.68414 31.9999C6.68414 31.9043 6.7117 31.795 6.7923 31.6811C8.69804 28.986 12.1381 24.633 16.6395 20.9896C17.924 19.95 19.2658 18.9914 20.6565 18.1515L17.7533 15.2483Z" fill="#18202A"/>
<path d="M25.8141 23.3091C23.1019 25.2431 21.3333 28.415 21.3333 31.9999C21.3333 37.891 26.1089 42.6666 32 42.6666C35.5849 42.6666 38.7568 40.898 40.6908 38.1858L37.7979 35.2929C36.6511 37.3078 34.4842 38.6666 32 38.6666C28.3181 38.6666 25.3333 35.6818 25.3333 31.9999C25.3333 29.5157 26.6921 27.3488 28.707 26.202L25.8141 23.3091Z" fill="#18202A"/>
<path d="M33.7187 25.5569L29.7359 21.574C30.4656 21.4163 31.2231 21.3333 32 21.3333C37.891 21.3333 42.6666 26.1089 42.6666 31.9999C42.6666 32.7768 42.5836 33.5343 42.4259 34.264L38.443 30.2812C37.8309 27.9806 36.0193 26.169 33.7187 25.5569Z" fill="#18202A"/>
<path d="M49.4068 41.245C52.9076 38.0366 55.6022 34.5893 57.2077 32.3188C57.2883 32.2048 57.3159 32.0956 57.3159 31.9999C57.3159 31.9043 57.2883 31.795 57.2077 31.6811C55.302 28.986 51.8619 24.633 47.3605 20.9896C42.8318 17.3242 37.5922 14.6666 32 14.6666C29.3799 14.6666 26.8373 15.25 24.4089 16.247L21.3798 13.2179C24.6366 11.6599 28.2022 10.6666 32 10.6666C45.74 10.6666 56.4408 23.6685 60.4737 29.3716C61.5966 30.9596 61.5966 33.0402 60.4737 34.6282C58.7956 37.0012 55.9632 40.6379 52.2376 44.0758L49.4068 41.245Z" fill="#18202A"/>
<path fill-rule="evenodd" clip-rule="evenodd" d="M7.9191 7.91904C8.70015 7.13799 9.96648 7.13799 10.7475 7.91904L56.0809 53.2524C56.8619 54.0334 56.8619 55.2997 56.0809 56.0808C55.2998 56.8618 54.0335 56.8618 53.2524 56.0808L7.9191 10.7475C7.13805 9.96642 7.13805 8.70009 7.9191 7.91904Z" fill="#18202A"/>
</svg>
