<svg width="64" height="64" viewBox="0 0 64 64" fill="none" xmlns="http://www.w3.org/2000/svg">
<g clip-path="url(#clip0_3875_8954)">
<g clip-path="url(#clip1_3875_8954)">
<path fill-rule="evenodd" clip-rule="evenodd" d="M29.3334 2.66699C24.9151 2.66699 21.3334 6.24871 21.3334 10.667V13.3337H8.00004C6.52728 13.3337 5.33337 14.5276 5.33337 16.0003C5.33337 17.4731 6.52728 18.667 8.00004 18.667H10.6667V45.3337C10.6667 54.1702 17.8302 61.3337 26.6667 61.3337H35.3459C33.2369 58.3101 32 54.633 32 50.667C32 47.1479 32.9739 43.8562 34.6667 41.0468V29.3337C34.6667 27.8609 35.8606 26.667 37.3334 26.667C38.8061 26.667 40 27.8609 40 29.3337V35.3462C43.0236 33.2372 46.7007 32.0003 50.6667 32.0003C51.5721 32.0003 52.4624 32.0648 53.3334 32.1894V18.667H56C57.4728 18.667 58.6667 17.4731 58.6667 16.0003C58.6667 14.5276 57.4728 13.3337 56 13.3337H42.6667V10.667C42.6667 6.24871 39.085 2.66699 34.6667 2.66699H29.3334ZM37.3334 10.667C37.3334 9.19423 36.1395 8.00033 34.6667 8.00033H29.3334C27.8606 8.00033 26.6667 9.19423 26.6667 10.667V13.3337H37.3334V10.667ZM29.3334 29.3337C29.3334 27.8609 28.1395 26.667 26.6667 26.667C25.1939 26.667 24 27.8609 24 29.3337V45.3337C24 46.8064 25.1939 48.0003 26.6667 48.0003C28.1395 48.0003 29.3334 46.8064 29.3334 45.3337V29.3337Z" fill="#18202A"/>
<path fill-rule="evenodd" clip-rule="evenodd" d="M50.6667 64.0003C58.0305 64.0003 64 58.0308 64 50.667C64 43.3032 58.0305 37.3337 50.6667 37.3337C43.3029 37.3337 37.3334 43.3032 37.3334 50.667C37.3334 58.0308 43.3029 64.0003 50.6667 64.0003ZM53.3334 44.0003C53.3334 42.5276 52.1395 41.3337 50.6667 41.3337C49.194 41.3337 48 42.5276 48 44.0003V50.667C48 51.3742 48.281 52.0525 48.7811 52.5526L52.7811 56.5526C53.8225 57.594 55.5109 57.594 56.5523 56.5526C57.5937 55.5112 57.5937 53.8228 56.5523 52.7814L53.3334 49.5624V44.0003Z" fill="#18202A"/>
</g>
</g>
<defs>
<clipPath id="clip0_3875_8954">
<rect width="64" height="64" fill="white"/>
</clipPath>
<clipPath id="clip1_3875_8954">
<rect width="64" height="64" fill="white"/>
</clipPath>
</defs>
</svg>
