<svg width="64" height="64" viewBox="0 0 64 64" fill="none" xmlns="http://www.w3.org/2000/svg">
<path fill-rule="evenodd" clip-rule="evenodd" d="M55.2189 16.781C56.2603 17.8224 56.2603 19.5109 55.2189 20.5523L31.2189 44.5523C30.1775 45.5937 28.4891 45.5937 27.4477 44.5523L18.6667 35.7712L9.88561 44.5523C8.84422 45.5937 7.15577 45.5937 6.11438 44.5523C5.07298 43.5109 5.07298 41.8224 6.11438 40.781L16.781 30.1144C17.8224 29.073 19.5109 29.073 20.5523 30.1144L29.3333 38.8954L51.4477 16.781C52.4891 15.7397 54.1775 15.7397 55.2189 16.781Z" fill="#18202A"/>
<path fill-rule="evenodd" clip-rule="evenodd" d="M32 18.6667C32 17.1939 33.1939 16 34.6667 16H53.3333C54.8061 16 56 17.1939 56 18.6667V37.3333C56 38.8061 54.8061 40 53.3333 40C51.8606 40 50.6667 38.8061 50.6667 37.3333V21.3333H34.6667C33.1939 21.3333 32 20.1394 32 18.6667Z" fill="#18202A"/>
</svg>
