<svg width="64" height="64" viewBox="0 0 64 64" fill="none" xmlns="http://www.w3.org/2000/svg">
<path fill-rule="evenodd" clip-rule="evenodd" d="M34.7614 8.22909L8.09475 34.8958C6.01196 36.9786 6.01195 40.3554 8.09475 42.4382L21.5621 55.9056C23.6449 57.9884 27.0218 57.9884 29.1046 55.9056L55.7712 29.2389C56.7714 28.2387 57.3333 26.8822 57.3333 25.4677V9.33366C57.3333 7.8609 56.1394 6.66699 54.6667 6.66699H38.5327C37.1182 6.66699 35.7616 7.2289 34.7614 8.22909ZM52 18.667C52 22.3489 49.0152 25.3337 45.3333 25.3337C41.6514 25.3337 38.6666 22.3489 38.6666 18.667C38.6666 14.9851 41.6514 12.0003 45.3333 12.0003C49.0152 12.0003 52 14.9851 52 18.667ZM31.933 5.40067L5.26633 32.0673C1.62143 35.7122 1.62143 41.6218 5.26632 45.2667L18.7337 58.734C22.3786 62.3789 28.2881 62.3789 31.933 58.734L58.5997 32.0673C60.35 30.317 61.3333 27.943 61.3333 25.4677V9.33366C61.3333 5.65176 58.3486 2.66699 54.6667 2.66699H38.5327C36.0573 2.66699 33.6833 3.65033 31.933 5.40067ZM48 18.667C48 20.1398 46.8061 21.3337 45.3333 21.3337C43.8606 21.3337 42.6666 20.1398 42.6666 18.667C42.6666 17.1942 43.8606 16.0003 45.3333 16.0003C46.8061 16.0003 48 17.1942 48 18.667Z" fill="#18202A"/>
</svg>
