<svg width="64" height="64" viewBox="0 0 64 64" fill="none" xmlns="http://www.w3.org/2000/svg">
<path fill-rule="evenodd" clip-rule="evenodd" d="M16 2.6665C8.63621 2.6665 2.66667 8.63604 2.66667 15.9998V47.9998C2.66667 55.3636 8.63621 61.3332 16 61.3332H48C55.3638 61.3332 61.3333 55.3636 61.3333 47.9998V15.9998C61.3333 8.63604 55.3638 2.6665 48 2.6665H16ZM18.6667 13.3332V7.99984H13.3333V13.3332H18.6667ZM24 25.185C24 23.2511 26.0901 22.0566 27.7329 23.0516L38.9633 29.8531C40.5589 30.8195 40.5589 33.1536 38.9633 34.1199L27.7329 40.9215C26.0901 41.9164 24 40.7219 24 38.7881V25.185ZM13.3333 55.9998V50.6665H18.6667V55.9998H13.3333ZM29.3333 7.99984H24V13.3332H29.3333V7.99984ZM24 50.6665H29.3333V55.9998H24V50.6665ZM40 7.99984H34.6667V13.3332H40V7.99984ZM34.6667 50.6665H40V55.9998H34.6667V50.6665ZM50.6667 13.3332V7.99984H45.3333V13.3332H50.6667ZM45.3333 55.9998V50.6665H50.6667V55.9998H45.3333Z" fill="#18202A"/>
</svg>
