<svg width="64" height="64" viewBox="0 0 64 64" fill="none" xmlns="http://www.w3.org/2000/svg">
<path d="M32 29.3337C39.1111 29.3337 42.6667 22.667 42.6667 14.3337C42.6667 7.66699 39.1111 2.66699 32 2.66699C24.8889 2.66699 21.3333 7.66699 21.3333 14.3337C21.3333 22.667 24.8889 29.3337 32 29.3337Z" fill="#18202A"/>
<path d="M43.9522 59.8337C47.203 59.0006 49.9582 56.8231 51.4671 53.8257C51.4882 53.7837 51.5093 53.7417 51.5302 53.6997C51.5508 53.6585 51.5713 53.6173 51.5917 53.5761C53.6776 49.3638 52.9682 44.2031 49.4089 41.1329C44.7375 37.1035 38.6533 34.667 32.0001 34.667C25.3468 34.667 19.2626 37.1036 14.5911 41.1331C11.0318 44.2033 10.3225 49.364 12.4084 53.5763C12.4497 53.6595 12.4912 53.7427 12.533 53.8257C14.0419 56.8231 16.797 59.0006 20.0478 59.8337C23.8689 60.813 27.8736 61.3337 32 61.3337C36.1264 61.3337 40.1312 60.813 43.9522 59.8337Z" fill="#18202A"/>
</svg>
