<svg width="64" height="64" viewBox="0 0 64 64" fill="none" xmlns="http://www.w3.org/2000/svg">
<path d="M24 7.99992C24 9.47268 22.8061 10.6666 21.3334 10.6666H16C13.0545 10.6666 10.6667 13.0544 10.6667 15.9999V47.9999C10.6667 50.9454 13.0545 53.3332 16 53.3332H48C50.9456 53.3332 53.3334 50.9454 53.3334 47.9999V42.6666C53.3334 41.1938 54.5273 39.9999 56 39.9999C57.4728 39.9999 58.6667 41.1938 58.6667 42.6666V47.9999C58.6667 53.891 53.8911 58.6666 48 58.6666H16C10.109 58.6666 5.33337 53.891 5.33337 47.9999V15.9999C5.33337 10.1089 10.109 5.33325 16 5.33325H21.3334C22.8061 5.33325 24 6.52716 24 7.99992Z" fill="#18202A"/>
<path fill-rule="evenodd" clip-rule="evenodd" d="M34 7.99992C34 6.52716 35.1939 5.33325 36.6667 5.33325H56C57.4728 5.33325 58.6667 6.52716 58.6667 7.99992V27.3333C58.6667 28.806 57.4728 29.9999 56 29.9999C54.5273 29.9999 53.3334 28.806 53.3334 27.3333V14.4378L28.5523 39.2189C27.5109 40.2603 25.8225 40.2603 24.7811 39.2189C23.7397 38.1775 23.7397 36.489 24.7811 35.4476L49.5621 10.6666H36.6667C35.1939 10.6666 34 9.47268 34 7.99992Z" fill="#18202A"/>
</svg>
