<svg width="64" height="64" viewBox="0 0 64 64" fill="none" xmlns="http://www.w3.org/2000/svg">
<path d="M18.6667 18.6654C18.6667 17.1926 19.8606 15.9987 21.3333 15.9987C22.8061 15.9987 24 17.1926 24 18.6654C24 20.1381 22.8061 21.332 21.3333 21.332C19.8606 21.332 18.6667 20.1381 18.6667 18.6654Z" fill="#18202A"/>
<path d="M21.3333 23.9987C19.8606 23.9987 18.6667 25.1926 18.6667 26.6654C18.6667 28.1381 19.8606 29.332 21.3333 29.332C22.8061 29.332 24 28.1381 24 26.6654C24 25.1926 22.8061 23.9987 21.3333 23.9987Z" fill="#18202A"/>
<path d="M29.3333 18.6654C29.3333 17.1926 30.5272 15.9987 32 15.9987C33.4728 15.9987 34.6667 17.1926 34.6667 18.6654C34.6667 20.1381 33.4728 21.332 32 21.332C30.5272 21.332 29.3333 20.1381 29.3333 18.6654Z" fill="#18202A"/>
<path d="M32 23.9987C30.5272 23.9987 29.3333 25.1926 29.3333 26.6654C29.3333 28.1381 30.5272 29.332 32 29.332C33.4728 29.332 34.6667 28.1381 34.6667 26.6654C34.6667 25.1926 33.4728 23.9987 32 23.9987Z" fill="#18202A"/>
<path d="M40 18.6654C40 17.1926 41.1939 15.9987 42.6667 15.9987C44.1394 15.9987 45.3333 17.1926 45.3333 18.6654C45.3333 20.1381 44.1394 21.332 42.6667 21.332C41.1939 21.332 40 20.1381 40 18.6654Z" fill="#18202A"/>
<path d="M42.6667 23.9987C41.1939 23.9987 40 25.1926 40 26.6654C40 28.1381 41.1939 29.332 42.6667 29.332C44.1394 29.332 45.3333 28.1381 45.3333 26.6654C45.3333 25.1926 44.1394 23.9987 42.6667 23.9987Z" fill="#18202A"/>
<path fill-rule="evenodd" clip-rule="evenodd" d="M18 5.33203C12.4772 5.33203 8 9.80918 8 15.332V48.6665C8 54.1893 12.4772 58.6664 18 58.6664H46C51.5229 58.6664 56 54.1893 56 48.6664V15.332C56 9.80918 51.5229 5.33203 46 5.33203H18ZM12 15.332C12 12.0183 14.6863 9.33203 18 9.33203H46C49.3137 9.33203 52 12.0183 52 15.332V48.6664C52 51.9802 49.3137 54.6664 46 54.6664H40.6667V39.332C40.6667 36.7547 38.5773 34.6654 36 34.6654H28C25.4227 34.6654 23.3333 36.7547 23.3333 39.332V54.6664H18C14.6863 54.6664 12 51.9802 12 48.6665V15.332ZM36.6667 54.6664V39.332C36.6667 38.9638 36.3682 38.6654 36 38.6654H28C27.6318 38.6654 27.3333 38.9638 27.3333 39.332V54.6664H36.6667Z" fill="#18202A"/>
</svg>
