<svg width="64" height="64" viewBox="0 0 64 64" fill="none" xmlns="http://www.w3.org/2000/svg">
<path d="M62.6107 19.895C63.4252 20.6411 63.4223 21.911 62.6413 22.692C61.8602 23.4731 60.5971 23.4691 59.7794 22.7265C52.4405 16.0617 42.6946 12 32 12C21.3054 12 11.5595 16.0617 4.22059 22.7266C3.4029 23.4692 2.13973 23.4731 1.35868 22.692C0.577628 21.911 0.574713 20.6411 1.38925 19.895C9.45452 12.5077 20.2008 8 32 8C43.7991 8 54.5454 12.5077 62.6107 19.895Z" fill="#18202A"/>
<path d="M53.1702 29.3365C53.9982 30.0676 53.9942 31.3391 53.2132 32.1201C52.4321 32.9012 51.1702 32.8951 50.3357 32.1715C45.4233 27.9114 39.0127 25.3333 32 25.3333C24.9872 25.3333 18.5766 27.9114 13.6642 32.1715C12.8297 32.8951 11.5678 32.9012 10.7868 32.1201C10.0057 31.3391 10.0018 30.0676 10.8298 29.3365C16.4713 24.3557 23.8827 21.3333 32 21.3333C40.1173 21.3333 47.5287 24.3557 53.1702 29.3365Z" fill="#18202A"/>
<path d="M43.7125 38.7977C44.5722 39.4913 44.5661 40.7672 43.7851 41.5482C43.004 42.3293 41.7447 42.3165 40.8653 41.6482C38.4029 39.7772 35.3311 38.6667 32 38.6667C28.6688 38.6667 25.5971 39.7772 23.1347 41.6483C22.2552 42.3165 20.9959 42.3293 20.2149 41.5482C19.4338 40.7672 19.4278 39.4913 20.2874 38.7977C23.4902 36.2137 27.5644 34.6667 32 34.6667C36.4355 34.6667 40.5098 36.2137 43.7125 38.7977Z" fill="#18202A"/>
<path d="M32 58.6667C34.9455 58.6667 37.3333 56.2789 37.3333 53.3333C37.3333 50.3878 34.9455 48 32 48C29.0545 48 26.6666 50.3878 26.6666 53.3333C26.6666 56.2789 29.0545 58.6667 32 58.6667Z" fill="#18202A"/>
</svg>
