<svg width="64" height="64" viewBox="0 0 64 64" fill="none" xmlns="http://www.w3.org/2000/svg">
<path fill-rule="evenodd" clip-rule="evenodd" d="M32 29.3337C39.1111 29.3337 42.6667 22.667 42.6667 14.3337C42.6667 7.66699 39.1111 2.66699 32 2.66699C24.8889 2.66699 21.3333 7.66699 21.3333 14.3337C21.3333 22.667 24.8889 29.3337 32 29.3337ZM32.0001 34.667C34.594 34.667 37.1014 35.0373 39.4723 35.7281C34.9352 39.1334 32 44.5574 32 50.667C32 54.5852 33.2072 58.2214 35.27 61.224C34.1894 61.2967 33.099 61.3337 32 61.3337C27.8736 61.3337 23.8689 60.813 20.0478 59.8337C16.797 59.0006 14.0419 56.8231 12.533 53.8257C12.4912 53.7427 12.4497 53.6595 12.4084 53.5763C10.3225 49.364 11.0318 44.2033 14.5911 41.1331C19.2626 37.1036 25.3468 34.667 32.0001 34.667ZM64 50.667C64 58.0308 58.0305 64.0003 50.6667 64.0003C43.3029 64.0003 37.3333 58.0308 37.3333 50.667C37.3333 43.3032 43.3029 37.3337 50.6667 37.3337C58.0305 37.3337 64 43.3032 64 50.667ZM50.2839 55.0497C50.2431 55.0906 50.1955 55.124 50.1433 55.1486L43.1322 58.4479C42.9671 58.5256 42.7927 58.3598 42.862 58.191L45.9134 50.7551C45.9411 50.6876 45.9832 50.627 46.0368 50.5775L55.0369 42.2696C55.2341 42.0875 55.5399 42.0937 55.7296 42.2834L59.0364 45.5902C59.2317 45.7854 59.2317 46.102 59.0364 46.2973L50.2839 55.0497Z" fill="#18202A"/>
</svg>
