<svg width="64" height="64" viewBox="0 0 64 64" fill="none" xmlns="http://www.w3.org/2000/svg">
<g clip-path="url(#clip0_2414_8769)">
<path fill-rule="evenodd" clip-rule="evenodd" d="M60.4291 39.2554C61.0195 36.935 61.3333 34.5042 61.3333 32.0001C61.3333 15.7997 48.2003 2.66675 32 2.66675C15.7996 2.66675 2.66663 15.7997 2.66663 32.0001C2.66663 48.2004 15.7996 61.3334 32 61.3334C32.9998 61.3334 33.9879 61.2834 34.962 61.1857C32.8121 59.0761 32.6016 55.2233 35.477 53.0668C35.8127 52.8149 36.0103 52.4198 36.0103 52.0001V47.5111C34.7061 47.8351 33.3571 48.0001 32 48.0001C29.4503 48.0001 26.9296 47.4177 24.6797 46.2928C22.4291 45.1675 20.5066 43.5268 19.1281 41.4995C18.3 40.2816 18.616 38.623 19.8339 37.7949C21.0518 36.9668 22.7104 37.2828 23.5385 38.5007C24.3724 39.727 25.5772 40.7787 27.0649 41.5225C28.5533 42.2667 30.2546 42.6667 32 42.6667C33.7454 42.6667 35.4467 42.2667 36.9351 41.5225C36.9794 41.5004 37.0235 41.4779 37.0673 41.4552C39.0966 36.6812 43.8292 33.3334 49.3437 33.3334C53.9648 33.3334 58.0369 35.6843 60.4291 39.2554ZM22.6666 32.0001C24.8758 32.0001 26.6666 29.6123 26.6666 26.6667C26.6666 23.7212 24.8758 21.3334 22.6666 21.3334C20.4575 21.3334 18.6666 23.7212 18.6666 26.6667C18.6666 29.6123 20.4575 32.0001 22.6666 32.0001ZM45.3333 26.6667C45.3333 29.6123 43.5424 32.0001 41.3333 32.0001C39.1242 32.0001 37.3333 29.6123 37.3333 26.6667C37.3333 23.7212 39.1242 21.3334 41.3333 21.3334C43.5424 21.3334 45.3333 23.7212 45.3333 26.6667Z" fill="#18202A"/>
<path fill-rule="evenodd" clip-rule="evenodd" d="M58.6667 46.6666L58.6666 46.7052V53.6666C58.6666 54.2961 58.963 54.8889 59.4666 55.2666L61.5999 56.8666C62.3688 57.4432 61.961 58.6666 60.9999 58.6666H37.6666C36.7056 58.6666 36.2978 57.4432 37.0666 56.8666L39.1999 55.2666C39.7036 54.8889 39.9999 54.2961 39.9999 53.6666V46.6666C39.9999 46.6666 40 46.6666 40 46.6666C40 46.6666 40 46.6666 40 46.6665C40 41.5119 44.1787 37.3333 49.3334 37.3333C54.488 37.3333 58.6667 41.5119 58.6667 46.6666ZM46.3334 61.3333C45.7811 61.3333 45.3334 61.781 45.3334 62.3333V62.9999C45.3334 63.5522 45.7811 63.9999 46.3334 63.9999H52.3334C52.8856 63.9999 53.3334 63.5522 53.3334 62.9999V62.3333C53.3334 61.781 52.8856 61.3333 52.3334 61.3333H46.3334Z" fill="#18202A"/>
</g>
<defs>
<clipPath id="clip0_2414_8769">
<rect width="64" height="64" fill="white"/>
</clipPath>
</defs>
</svg>
