<svg width="64" height="64" viewBox="0 0 64 64" fill="none" xmlns="http://www.w3.org/2000/svg">
<path fill-rule="evenodd" clip-rule="evenodd" d="M0 6.66699H7.05089C7.9192 6.66699 8.74835 7.02833 9.3395 7.66434C9.38463 7.71289 9.42082 7.76905 9.44639 7.8302L10.6538 10.7174L18.1827 32.2051L14.5611 36.1988C11.8415 39.1979 13.9695 44.0003 18.0181 44.0003H54.6667L53.5833 42.3753C52.5941 40.8915 50.9289 40.0003 49.1457 40.0003H18.0181C17.4397 40.0003 17.1357 39.3143 17.5242 38.8858L21.35 34.667H47.5491C49.4387 34.667 51.1418 33.5274 51.8628 31.7807L59.0169 14.4474C60.2848 11.3755 58.0265 8.00033 54.7032 8.00033H13.8532L13.1367 6.28697C12.9292 5.79074 12.6356 5.33512 12.2694 4.94114C10.9214 3.4909 9.03081 2.66699 7.05089 2.66699H0V6.66699ZM21.8822 30.667L15.3417 12.0003H54.7032C55.178 12.0003 55.5006 12.4825 55.3194 12.9213L48.1653 30.2547C48.0623 30.5042 47.819 30.667 47.5491 30.667H21.8822ZM22.6667 57.3337C24.2353 57.3337 25.3333 56.2356 25.3333 54.667C25.3333 53.0984 24.2353 52.0003 22.6667 52.0003C21.098 52.0003 20 53.0984 20 54.667C20 56.2356 21.098 57.3337 22.6667 57.3337ZM22.6667 61.3337C26.4444 61.3337 29.3333 58.4448 29.3333 54.667C29.3333 50.8892 26.4444 48.0003 22.6667 48.0003C18.8889 48.0003 16 50.8892 16 54.667C16 58.4448 18.8889 61.3337 22.6667 61.3337ZM46.6667 57.3337C48.2353 57.3337 49.3333 56.2356 49.3333 54.667C49.3333 53.0984 48.2353 52.0003 46.6667 52.0003C45.098 52.0003 44 53.0984 44 54.667C44 56.2356 45.098 57.3337 46.6667 57.3337ZM46.6667 61.3337C50.4444 61.3337 53.3333 58.4448 53.3333 54.667C53.3333 50.8892 50.4444 48.0003 46.6667 48.0003C42.8889 48.0003 40 50.8892 40 54.667C40 58.4448 42.8889 61.3337 46.6667 61.3337Z" fill="#18202A"/>
</svg>
