<svg width="64" height="64" viewBox="0 0 64 64" fill="none" xmlns="http://www.w3.org/2000/svg">
<path fill-rule="evenodd" clip-rule="evenodd" d="M56.8466 32.9421C55.8693 37.8563 53.4566 42.3702 49.9138 45.9132L37.9691 58.8288C37.1856 59.6128 36.2553 60.2348 35.2313 60.6592C34.2069 61.0839 33.1089 61.3024 32 61.3024C30.8911 61.3024 29.7931 61.0839 28.7687 60.6592C27.7443 60.2346 26.8136 59.6123 26.0299 58.8278L14.0862 45.9132C10.5434 42.3702 8.13075 37.8563 7.15336 32.9421C6.17597 28.028 6.67773 22.9344 8.59519 18.3054C10.5127 13.6764 13.7597 9.71994 17.9257 6.93634C22.0917 4.15273 26.9896 2.66699 32 2.66699C37.0104 2.66699 41.9083 4.15273 46.0743 6.93634C50.2403 9.71994 53.4874 13.6764 55.4048 18.3054C57.3223 22.9344 57.824 28.028 56.8466 32.9421ZM37.3333 26.667C37.3333 29.6125 34.9455 32.0003 32 32.0003C29.0545 32.0003 26.6667 29.6125 26.6667 26.667C26.6667 23.7215 29.0545 21.3337 32 21.3337C34.9455 21.3337 37.3333 23.7215 37.3333 26.667ZM42.6667 26.667C42.6667 32.558 37.891 37.3337 32 37.3337C26.109 37.3337 21.3333 32.558 21.3333 26.667C21.3333 20.776 26.109 16.0003 32 16.0003C37.891 16.0003 42.6667 20.776 42.6667 26.667Z" fill="#18202A"/>
</svg>
