<svg width="64" height="64" viewBox="0 0 64 64" fill="none" xmlns="http://www.w3.org/2000/svg">
<path fill-rule="evenodd" clip-rule="evenodd" d="M38.6664 3.43592C32.2192 1.93133 25.4526 2.65197 19.4669 5.48066C13.4812 8.30935 8.62835 13.0797 5.69754 19.0161C2.76673 24.9525 1.93029 31.7057 3.32421 38.1778C4.71814 44.6498 8.26045 50.46 13.3752 54.6636C18.4899 58.8671 24.8762 61.2169 31.4957 61.3307C38.1151 61.4445 44.5784 59.3157 49.8347 55.2905C51.0039 54.3951 51.2259 52.7213 50.3305 51.552C49.4351 50.3827 47.7613 50.1607 46.592 51.0562C42.2915 54.3496 37.0033 56.0913 31.5874 55.9981C26.1714 55.905 20.9463 53.9825 16.7615 50.5432C12.5767 47.1039 9.67847 42.3502 8.53799 37.0549C7.39751 31.7596 8.08187 26.2342 10.4798 21.3771C12.8777 16.5201 16.8482 12.617 21.7456 10.3027C26.643 7.98828 32.1793 7.39867 37.4543 8.6297C42.7293 9.86072 47.4328 12.84 50.7998 17.0831C54.1669 21.3261 55.9996 26.5835 56 32.0002V34.6667C56 36.0812 55.4381 37.4377 54.4379 38.4379C53.4377 39.4381 52.0812 40 50.6667 40C49.2522 40 47.8956 39.4381 46.8954 38.4379C45.8952 37.4377 45.3333 36.0812 45.3333 34.6667V21.3333C45.3333 19.8606 44.1394 18.6667 42.6667 18.6667C41.1942 18.6667 40.0005 19.8601 40 21.3324C37.7716 19.6586 35.0016 18.6667 32 18.6667C24.6362 18.6667 18.6666 24.6362 18.6666 32C18.6666 39.3638 24.6362 45.3334 32 45.3334C35.9682 45.3334 39.5316 43.5998 41.9741 40.8487C42.3166 41.3304 42.7008 41.7857 43.1242 42.2092C45.1246 44.2095 47.8377 45.3334 50.6667 45.3334C53.4956 45.3334 56.2087 44.2095 58.2091 42.2092C60.2095 40.2088 61.3333 37.4957 61.3333 34.6667V31.9998C61.3329 25.3794 59.0929 18.9538 54.9776 13.7678C50.8623 8.58183 45.1136 4.94051 38.6664 3.43592ZM24 32C24 27.5818 27.5817 24 32 24C36.4182 24 40 27.5818 40 32C40 36.4183 36.4182 40 32 40C27.5817 40 24 36.4183 24 32Z" fill="#18202A"/>
</svg>
