<svg width="64" height="64" viewBox="0 0 64 64" fill="none" xmlns="http://www.w3.org/2000/svg">
<path fill-rule="evenodd" clip-rule="evenodd" d="M32.4261 8.28771C32.1791 8.08248 31.8209 8.08248 31.5739 8.28771L12 24.5531V53.9997C12 54.3679 12.2985 54.6663 12.6667 54.6663H23.3333V39.333C23.3333 36.7557 25.4227 34.6663 28 34.6663H36C38.5773 34.6663 40.6667 36.7557 40.6667 39.333V54.6663H51.3333C51.7015 54.6663 52 54.3679 52 53.9997V24.5531L32.4261 8.28771ZM56 27.877L60.0551 31.2467C60.9047 31.9526 62.1656 31.8362 62.8716 30.9867C63.5775 30.1372 63.4611 28.8762 62.6116 28.1702L34.9825 5.21126C33.2537 3.77463 30.7463 3.77463 29.0175 5.21126L1.38845 28.1702C0.538914 28.8762 0.422507 30.1372 1.12845 30.9867C1.83439 31.8362 3.09536 31.9526 3.9449 31.2467L8 27.877V53.9997C8 56.577 10.0893 58.6663 12.6667 58.6663H51.3333C53.9107 58.6663 56 56.577 56 53.9997V27.877ZM36.6667 54.6663V39.333C36.6667 38.9648 36.3682 38.6663 36 38.6663H28C27.6318 38.6663 27.3333 38.9648 27.3333 39.333V54.6663H36.6667Z" fill="#18202A"/>
</svg>
