<svg width="64" height="64" viewBox="0 0 64 64" fill="none" xmlns="http://www.w3.org/2000/svg">
<path d="M24.0809 10.081C24.8619 9.29991 24.8619 8.03358 24.0809 7.25253C23.2999 6.47149 22.0335 6.47149 21.2525 7.25253L9.25247 19.2525C8.47142 20.0336 8.47142 21.2999 9.25247 22.081L21.2525 34.081C22.0335 34.862 23.2999 34.862 24.0809 34.081C24.8619 33.2999 24.8619 32.0336 24.0809 31.2525L15.4951 22.6667H40C46.6274 22.6667 52 28.0393 52 34.6667C52 41.2942 46.6274 46.6667 40 46.6667H20.6667C19.5621 46.6667 18.6667 47.5622 18.6667 48.6667C18.6667 49.7713 19.5621 50.6667 20.6667 50.6667H40C48.8366 50.6667 56 43.5033 56 34.6667C56 25.8302 48.8366 18.6667 40 18.6667H15.4951L24.0809 10.081Z" fill="#18202A"/>
</svg>
