<svg width="64" height="64" viewBox="0 0 64 64" fill="none" xmlns="http://www.w3.org/2000/svg">
<path fill-rule="evenodd" clip-rule="evenodd" d="M32 17.333C34.2092 17.333 36 15.5421 36 13.333C36 11.1239 34.2092 9.33301 32 9.33301C29.7909 9.33301 28 11.1239 28 13.333C28 15.5421 29.7909 17.333 32 17.333ZM40 13.333C40 17.0607 37.4505 20.1929 34 21.081V29.9997H53.3334C54.4379 29.9997 55.3334 30.8951 55.3334 31.9997L55.3334 33.9997V42.9184C58.7838 43.8065 61.3334 46.9387 61.3334 50.6663C61.3334 55.0846 57.7516 58.6663 53.3334 58.6663C48.9151 58.6663 45.3334 55.0846 45.3334 50.6663C45.3334 46.9387 47.8829 43.8065 51.3334 42.9184V33.9997H34V42.9184C37.4505 43.8065 40 46.9387 40 50.6663C40 55.0846 36.4183 58.6663 32 58.6663C27.5817 58.6663 24 55.0846 24 50.6663C24 46.9387 26.5496 43.8065 30 42.9184V33.9997H12.6667V42.9184C16.1171 43.8065 18.6667 46.9387 18.6667 50.6663C18.6667 55.0846 15.085 58.6663 10.6667 58.6663C6.24841 58.6663 2.66669 55.0846 2.66669 50.6663C2.66669 46.9387 5.21623 43.8065 8.66669 42.9184V33.9997V31.9997C8.66669 30.8951 9.56212 29.9997 10.6667 29.9997H30V21.081C26.5496 20.1929 24 17.0607 24 13.333C24 8.91473 27.5817 5.33301 32 5.33301C36.4183 5.33301 40 8.91473 40 13.333ZM14.6667 50.6663C14.6667 52.8755 12.8758 54.6663 10.6667 54.6663C8.45755 54.6663 6.66669 52.8755 6.66669 50.6663C6.66669 48.4572 8.45755 46.6663 10.6667 46.6663C12.8758 46.6663 14.6667 48.4572 14.6667 50.6663ZM36 50.6663C36 52.8755 34.2092 54.6663 32 54.6663C29.7909 54.6663 28 52.8755 28 50.6663C28 48.4572 29.7909 46.6663 32 46.6663C34.2092 46.6663 36 48.4572 36 50.6663ZM57.3334 50.6663C57.3334 52.8755 55.5425 54.6663 53.3334 54.6663C51.1242 54.6663 49.3334 52.8755 49.3334 50.6663C49.3334 48.4572 51.1242 46.6663 53.3334 46.6663C55.5425 46.6663 57.3334 48.4572 57.3334 50.6663Z" fill="#18202A"/>
</svg>
