<svg width="64" height="64" viewBox="0 0 64 64" fill="none" xmlns="http://www.w3.org/2000/svg">
<path fill-rule="evenodd" clip-rule="evenodd" d="M57.3334 32C57.3334 18.0088 45.9912 6.66669 32 6.66669C18.0088 6.66669 6.66669 18.0088 6.66669 32C6.66669 45.9912 18.0088 57.3334 32 57.3334C45.9912 57.3334 57.3334 45.9912 57.3334 32ZM61.3334 32C61.3334 15.7997 48.2004 2.66669 32 2.66669C15.7997 2.66669 2.66669 15.7997 2.66669 32C2.66669 48.2004 15.7997 61.3334 32 61.3334C48.2004 61.3334 61.3334 48.2004 61.3334 32Z" fill="#18202A"/>
<path fill-rule="evenodd" clip-rule="evenodd" d="M19.9191 30.7476C19.1381 29.9665 19.1381 28.7002 19.9191 27.9191L30.5858 17.2525C31.3669 16.4714 32.6332 16.4714 33.4142 17.2525L44.0809 27.9191C44.8619 28.7002 44.8619 29.9665 44.0809 30.7476C43.2999 31.5286 42.0335 31.5286 41.2525 30.7476L34 23.4951V45.3334C34 46.4379 33.1046 47.3334 32 47.3334C30.8955 47.3334 30 46.4379 30 45.3334V23.4951L22.7476 30.7476C21.9665 31.5286 20.7002 31.5286 19.9191 30.7476Z" fill="#18202A"/>
</svg>
