<svg width="64" height="64" viewBox="0 0 64 64" fill="none" xmlns="http://www.w3.org/2000/svg">
<path d="M45.5444 5.97392L45.5733 5.98901C45.6879 6.04892 45.802 6.10956 45.9156 6.17093C46.0342 6.23495 46.1542 6.3008 46.2737 6.36746C46.375 6.42401 46.4746 6.48039 46.5739 6.53733C46.7222 6.62239 46.8699 6.70887 47.0169 6.7966C47.0908 6.84076 47.1654 6.88572 47.2397 6.931C47.4168 7.03888 47.5915 7.14793 47.7651 7.25875C47.8148 7.2905 47.8653 7.32294 47.9157 7.35553C48.0793 7.46142 48.2413 7.56858 48.4022 7.6773C48.4633 7.71854 48.5242 7.76002 48.5849 7.80173L48.6227 7.82778C49.0566 8.1267 49.482 8.437 49.8985 8.75825C49.9674 8.81132 50.0359 8.86469 50.1043 8.91837C50.2335 9.01987 50.3614 9.12206 50.4884 9.22529C50.5865 9.305 50.6842 9.38547 50.7813 9.46656C50.9031 9.56816 51.0249 9.67145 51.1458 9.7757C51.2113 9.83219 51.2759 9.8884 51.3403 9.94489C51.7318 10.2885 52.1145 10.6427 52.4875 11.0068L52.5471 11.0651C52.615 11.1317 52.6825 11.1987 52.7497 11.2659C52.8626 11.3789 52.9745 11.4928 53.0855 11.6075C53.1276 11.651 53.1686 11.6936 53.2095 11.7364C53.523 12.0644 53.8302 12.4011 54.1295 12.7449C54.1857 12.8093 54.2424 12.8751 54.2988 12.941L54.4345 13.1007C54.4537 13.1235 54.4729 13.1464 54.4921 13.1692C54.611 13.3111 54.7292 13.4548 54.846 13.5997C58.9031 18.6295 61.3333 25.0309 61.3333 31.9998C61.3333 38.7418 59.0589 44.9524 55.2354 49.9064L55.6993 49.2888C55.5015 49.5595 55.2991 49.8267 55.0923 50.0903C54.97 50.2461 54.847 50.3998 54.7224 50.5522C54.6557 50.6338 54.5883 50.7154 54.5204 50.7967C54.176 51.2088 53.8201 51.6118 53.4536 52.0047C53.3769 52.087 53.3002 52.1682 53.2231 52.249C53.128 52.3486 53.0319 52.4479 52.9351 52.5465C52.8288 52.6548 52.7216 52.7624 52.6135 52.8691C52.5027 52.9786 52.3909 53.0873 52.2781 53.1952C52.217 53.2537 52.1556 53.312 52.0939 53.37C51.6903 53.7497 51.2761 54.1178 50.8517 54.4742C50.7747 54.5389 50.6958 54.6044 50.6167 54.6695C50.5093 54.7578 50.4017 54.8449 50.2935 54.9314C50.1624 55.0361 50.0311 55.1392 49.8988 55.2413C49.5327 55.5236 49.16 55.7973 48.7808 56.0623C48.7354 56.0939 48.6899 56.1256 48.6442 56.1571C48.1882 56.4719 47.7229 56.7741 47.2487 57.0632C47.1873 57.1006 47.1279 57.1365 47.0683 57.1723C46.9005 57.273 46.7296 57.3732 46.5576 57.4717C46.4691 57.5224 46.3802 57.5727 46.291 57.6225C45.8339 57.878 45.3705 58.121 44.9001 58.3517L44.7985 58.4013C44.7236 58.4376 44.6486 58.4737 44.5734 58.5094C44.42 58.5823 44.266 58.6538 44.1113 58.724C43.9926 58.7779 43.8726 58.8314 43.7522 58.8841C43.6368 58.9346 43.5222 58.9839 43.4073 59.0325C43.2734 59.089 43.1389 59.1447 43.0038 59.1994C42.8767 59.2509 42.7478 59.302 42.6185 59.3522C42.435 59.4235 42.251 59.4929 42.066 59.5605C41.873 59.631 41.6793 59.6994 41.4847 59.7659C41.4283 59.7852 41.3733 59.8037 41.3182 59.8222C41.0975 59.8961 40.8743 59.9678 40.6499 60.037C40.5755 60.0599 40.5019 60.0823 40.4282 60.1043C40.2348 60.1623 40.0394 60.2186 39.8433 60.2729C39.7595 60.2961 39.6759 60.3188 39.5921 60.3412C39.0446 60.4875 38.4905 60.6184 37.9307 60.7333C37.9131 60.7369 37.8979 60.74 37.8827 60.7431L37.2727 60.8606C35.5622 61.171 33.8 61.3332 32 61.3332C18.7033 61.3332 7.47292 52.486 3.87437 40.3572L3.8736 40.3545L3.83204 40.2131C3.75637 39.9532 3.68421 39.6917 3.61561 39.4289L3.8736 40.3545C3.75193 39.9443 3.63897 39.5303 3.53498 39.1127C3.48284 38.9034 3.43323 38.6944 3.38587 38.4845C3.36179 38.3778 3.33814 38.2702 3.31509 38.1624C3.27533 37.9764 3.2373 37.7896 3.20105 37.6022C3.16525 37.417 3.13117 37.2311 3.09884 37.0446C3.06003 36.8207 3.02388 36.5967 2.99028 36.3719C2.97375 36.2613 2.95785 36.1504 2.94255 36.0394C2.90779 35.787 2.87621 35.5335 2.84791 35.279C2.84343 35.2388 2.83896 35.1979 2.83458 35.1569C2.80173 34.8499 2.77372 34.5425 2.75047 34.2338C2.74258 34.129 2.73532 34.0252 2.7286 33.9212C2.71258 33.6736 2.69956 33.4237 2.6897 33.173C2.6867 33.0966 2.68402 33.0212 2.68163 32.9457C2.67168 32.6316 2.66667 32.3163 2.66667 31.9998C2.66667 15.7995 15.7997 2.6665 32 2.6665C32.3021 2.6665 32.6032 2.67107 32.9031 2.68014L32 2.6665C32.3248 2.6665 32.6484 2.67178 32.9706 2.68226C33.2352 2.69086 33.4995 2.70299 33.7629 2.71861C33.8324 2.72272 33.9036 2.72719 33.9747 2.73192C34.1728 2.7451 34.369 2.76013 34.5647 2.77707C34.6594 2.78528 34.7536 2.79389 34.8477 2.80296C35.0262 2.82016 35.2051 2.83904 35.3835 2.85953C35.5078 2.87381 35.6321 2.88889 35.7561 2.90475C36.2919 2.97324 36.8223 3.05604 37.3479 3.15285C37.4278 3.16758 37.5062 3.18235 37.5844 3.19743C37.7818 3.23547 37.9793 3.27566 38.176 3.31782C38.2648 3.33684 38.3538 3.35635 38.4426 3.37626C38.5998 3.41148 38.757 3.44808 38.9137 3.48594C39.0612 3.52158 39.2069 3.55799 39.3521 3.59548C39.4822 3.62905 39.6123 3.66358 39.7419 3.69897C39.8439 3.72679 39.9466 3.75544 40.0492 3.78463C40.5804 3.93594 41.1039 4.10126 41.6208 4.28064C41.6932 4.30576 41.7663 4.33147 41.8394 4.35747C42.0297 4.42524 42.2189 4.49481 42.4072 4.56626C42.4654 4.58836 42.5232 4.61053 42.581 4.63288C42.7805 4.71005 42.9787 4.78929 43.1759 4.87061C43.2504 4.90133 43.325 4.93245 43.3994 4.96388C43.5906 5.04459 43.7809 5.12733 43.9702 5.21203C44.0205 5.23456 44.0719 5.25772 44.1232 5.28102C44.3376 5.37849 44.5492 5.47778 44.7595 5.5795C44.7963 5.59732 44.8326 5.61497 44.8689 5.6327L44.9001 5.64798C45.1164 5.75406 45.3311 5.86272 45.5444 5.97392ZM36 19.9998C40 23.9998 41.3333 33.3332 36 33.3332C30.6667 33.3332 30.6667 37.3332 32 41.3332C32.9154 44.0795 29.2585 44.7716 25.5564 41.3332C23.8664 39.7635 24.0732 35.1402 21.3333 33.3332C14.4253 28.7772 10.8447 33.8249 8.50652 36.9238C10.7777 47.8173 20.4333 55.9998 32 55.9998C33.3979 55.9998 34.7679 55.8803 36.1003 55.651C35.7561 47.9998 42.6868 42.3024 51.6033 45.8414C54.374 41.9325 56 37.156 56 31.9998C56 24.0676 52.1519 17.0342 46.2206 12.6646C38.1243 11.8656 33.338 17.3379 36 19.9998Z" fill="#18202A"/>
</svg>
