<svg width="64" height="64" viewBox="0 0 64 64" fill="none" xmlns="http://www.w3.org/2000/svg">
<path d="M46.5748 29.4181C47.6327 29.7355 48.2331 30.8505 47.9157 31.9085L47.9137 31.9152L47.9109 31.9245L47.9029 31.9502L47.8774 32.0297C47.8562 32.0948 47.8262 32.1836 47.7872 32.2929C47.7093 32.5111 47.5944 32.8129 47.4393 33.1707C47.1317 33.8805 46.6533 34.8405 45.9719 35.8141C44.636 37.7224 42.2764 40.0005 38.6667 40.0005C35.2671 40.0005 32.7664 37.9124 30.8995 36.3536L30.7197 36.2036C28.605 34.4413 27.1568 33.3338 25.3334 33.3338C23.6097 33.3338 22.3027 34.3891 21.3052 35.8141C20.82 36.5072 20.4651 37.2138 20.231 37.754C20.1152 38.0212 20.0322 38.2403 19.9799 38.3867C19.9538 38.4597 19.9356 38.514 19.925 38.5466L19.9147 38.5786C19.5968 39.6358 18.4829 40.2334 17.4254 39.9161C16.3674 39.5987 15.767 38.4838 16.0844 37.4258L16.0853 37.4227C16.1258 37.2948 16.1678 37.1677 16.2129 37.0413C16.2909 36.8231 16.4057 36.5214 16.5608 36.1636C16.8684 35.4538 17.3468 34.4938 18.0283 33.5202C19.3641 31.6118 21.7238 29.3338 25.3334 29.3338C28.733 29.3338 31.2337 31.4218 33.1006 32.9806L33.2804 33.1307C35.3951 34.893 36.8434 36.0005 38.6667 36.0005C40.3904 36.0005 41.6975 34.9452 42.6949 33.5202C43.1801 32.8271 43.535 32.1204 43.7691 31.5802C43.8849 31.313 43.9679 31.094 44.0202 30.9476C44.0463 30.8746 44.0645 30.8202 44.0752 30.7876L44.0851 30.7567C44.4031 29.6995 45.5172 29.1009 46.5748 29.4181Z" fill="#18202A"/>
<path fill-rule="evenodd" clip-rule="evenodd" d="M18 2.6665C16.8955 2.6665 16 3.56193 16 4.6665V7.99984H13.3334C7.44232 7.99984 2.66669 12.7755 2.66669 18.6665V50.6665C2.66669 56.5575 7.44232 61.3332 13.3334 61.3332H50.6667C56.5577 61.3332 61.3334 56.5575 61.3334 50.6665V18.6665C61.3334 12.7755 56.5577 7.99984 50.6667 7.99984H48V4.6665C48 3.56193 47.1046 2.6665 46 2.6665C44.8955 2.6665 44 3.56193 44 4.6665V7.99984H20V4.6665C20 3.56193 19.1046 2.6665 18 2.6665ZM46 18.6665C44.8955 18.6665 44 17.7711 44 16.6665V11.9998H20V16.6665C20 17.7711 19.1046 18.6665 18 18.6665C16.8955 18.6665 16 17.7711 16 16.6665V11.9998H13.3334C9.65146 11.9998 6.66669 14.9846 6.66669 18.6665V50.6665C6.66669 54.3484 9.65146 57.3332 13.3334 57.3332H50.6667C54.3486 57.3332 57.3334 54.3484 57.3334 50.6665V18.6665C57.3334 14.9846 54.3486 11.9998 50.6667 11.9998H48V16.6665C48 17.7711 47.1046 18.6665 46 18.6665Z" fill="#18202A"/>
</svg>
