<svg width="64" height="64" viewBox="0 0 64 64" fill="none" xmlns="http://www.w3.org/2000/svg">
<path fill-rule="evenodd" clip-rule="evenodd" d="M45.3334 9.33301H16C10.8454 9.33301 6.66669 13.5117 6.66669 18.6663V42.6663C6.66669 47.821 10.8454 51.9997 16 51.9997H28.6667C29.7713 51.9997 30.6667 52.8951 30.6667 53.9997C30.6667 55.1042 29.7713 55.9997 28.6667 55.9997H16C8.63622 55.9997 2.66669 50.0301 2.66669 42.6663V18.6663C2.66669 11.3025 8.63623 5.33301 16 5.33301H45.3334C52.6972 5.33301 58.6667 11.3025 58.6667 18.6663V25.9997C58.6667 27.1042 57.7713 27.9997 56.6667 27.9997C55.5621 27.9997 54.6667 27.1042 54.6667 25.9997V18.6663C54.6667 13.5117 50.488 9.33301 45.3334 9.33301ZM42.6667 35.9997H53.3334C55.5425 35.9997 57.3334 37.7905 57.3334 39.9997V50.6663C57.3334 52.8755 55.5425 54.6663 53.3334 54.6663H42.6667C40.4576 54.6663 38.6667 52.8755 38.6667 50.6663V39.9997C38.6667 37.7905 40.4576 35.9997 42.6667 35.9997ZM34.6667 39.9997C34.6667 35.5814 38.2484 31.9997 42.6667 31.9997H53.3334C57.7516 31.9997 61.3334 35.5814 61.3334 39.9997V50.6663C61.3334 55.0846 57.7516 58.6663 53.3334 58.6663H42.6667C38.2484 58.6663 34.6667 55.0846 34.6667 50.6663V39.9997Z" fill="#18202A"/>
</svg>
