<svg width="64" height="64" viewBox="0 0 64 64" fill="none" xmlns="http://www.w3.org/2000/svg">
<g clip-path="url(#clip0_3444_9511)">
<path fill-rule="evenodd" clip-rule="evenodd" d="M42.6666 5.3335C47.0849 5.3335 50.6666 8.91522 50.6666 13.3335C55.0849 13.3335 58.6666 16.9152 58.6666 21.3335V40.0002C58.6666 44.4184 55.0849 48.0002 50.6666 48.0002V50.6668C50.6666 55.0851 47.0849 58.6668 42.6666 58.6668H21.3333C16.915 58.6668 13.3333 55.0851 13.3333 50.6668V37.3335C13.3333 32.9152 16.915 29.3335 21.3333 29.3335H42.6666C47.0849 29.3335 50.6666 32.9152 50.6666 37.3335V44.0002C52.8758 44.0002 54.6666 42.2093 54.6666 40.0002V21.3335C54.6666 19.1244 52.8758 17.3335 50.6666 17.3335H13.3333C11.1242 17.3335 9.33331 19.1244 9.33331 21.3335V40.0002C9.33331 42.2093 11.1242 44.0002 13.3333 44.0002V48.0002C8.91503 48.0002 5.33331 44.4184 5.33331 40.0002V21.3335C5.33331 16.9152 8.91504 13.3335 13.3333 13.3335C13.3333 8.91522 16.915 5.3335 21.3333 5.3335H42.6666ZM17.3333 13.3335C17.3333 11.1244 19.1242 9.3335 21.3333 9.3335H42.6666C44.8758 9.3335 46.6666 11.1244 46.6666 13.3335H17.3333ZM17.3333 37.3335C17.3333 35.1244 19.1242 33.3335 21.3333 33.3335H42.6666C44.8758 33.3335 46.6666 35.1244 46.6666 37.3335V50.6668C46.6666 52.876 44.8758 54.6668 42.6666 54.6668H21.3333C19.1242 54.6668 17.3333 52.876 17.3333 50.6668V37.3335Z" fill="#18202A"/>
<path d="M48 26.6668C49.4727 26.6668 50.6666 25.4729 50.6666 24.0002C50.6666 22.5274 49.4727 21.3335 48 21.3335C46.5272 21.3335 45.3333 22.5274 45.3333 24.0002C45.3333 25.4729 46.5272 26.6668 48 26.6668Z" fill="#18202A"/>
</g>
<defs>
<clipPath id="clip0_3444_9511">
<rect width="64" height="64" fill="white"/>
</clipPath>
</defs>
</svg>
