<svg width="64" height="64" viewBox="0 0 64 64" fill="none" xmlns="http://www.w3.org/2000/svg">
<g clip-path="url(#clip0_3785_8905)">
<path fill-rule="evenodd" clip-rule="evenodd" d="M49.3334 21.3337C45.6515 21.3337 42.6667 18.3489 42.6667 14.667V12.6676L36.6669 12.667C35.5623 12.6669 34.6667 13.5623 34.6667 14.667V49.3345C34.6667 50.439 35.5621 51.3345 36.6667 51.3345H42.6667V49.3337C42.6667 45.6518 45.6515 42.667 49.3334 42.667H54.6667C58.3486 42.667 61.3334 45.6518 61.3334 49.3337V54.667C61.3334 58.3489 58.3486 61.3337 54.6667 61.3337H49.3334C45.8767 61.3337 43.0345 58.703 42.6997 55.3345H36.6667C33.353 55.3345 30.6667 52.6482 30.6667 49.3345V34.0003H21.3334V34.667C21.3334 38.3489 18.3486 41.3337 14.6667 41.3337H9.33335C5.65146 41.3337 2.66669 38.3489 2.66669 34.667V29.3337C2.66669 25.6518 5.65146 22.667 9.33335 22.667H14.6667C18.3486 22.667 21.3334 25.6518 21.3334 29.3337V30.0003H30.6667V14.667C30.6667 11.353 33.3534 8.66663 36.6673 8.66699L42.6995 8.66765C43.0337 5.29845 45.8762 2.66699 49.3334 2.66699H54.6667C58.3486 2.66699 61.3334 5.65176 61.3334 9.33366V14.667C61.3334 18.3489 58.3486 21.3337 54.6667 21.3337H49.3334ZM46.6667 9.33366C46.6667 7.8609 47.8606 6.66699 49.3334 6.66699H54.6667C56.1394 6.66699 57.3334 7.8609 57.3334 9.33366V14.667C57.3334 16.1398 56.1394 17.3337 54.6667 17.3337H49.3334C47.8606 17.3337 46.6667 16.1398 46.6667 14.667V9.33366ZM6.66669 29.3337C6.66669 27.8609 7.86059 26.667 9.33335 26.667H14.6667C16.1394 26.667 17.3334 27.8609 17.3334 29.3337V34.667C17.3334 36.1398 16.1394 37.3337 14.6667 37.3337H9.33335C7.86059 37.3337 6.66669 36.1398 6.66669 34.667V29.3337ZM57.3334 49.3337C57.3334 47.8609 56.1394 46.667 54.6667 46.667H49.3334C47.8606 46.667 46.6667 47.8609 46.6667 49.3337V54.667C46.6667 56.1398 47.8606 57.3337 49.3334 57.3337H54.6667C56.1394 57.3337 57.3334 56.1398 57.3334 54.667V49.3337Z" fill="#18202A"/>
</g>
<defs>
<clipPath id="clip0_3785_8905">
<rect width="64" height="64" fill="white"/>
</clipPath>
</defs>
</svg>
