<svg width="64" height="64" viewBox="0 0 64 64" fill="none" xmlns="http://www.w3.org/2000/svg">
<path fill-rule="evenodd" clip-rule="evenodd" d="M9.88395 12.7294L5.92271 8.76819C5.1369 7.98238 5.1369 6.70833 5.92271 5.92253C6.70852 5.13672 7.98256 5.13672 8.76837 5.92253L58.0773 55.2315C58.8631 56.0173 58.8631 57.2913 58.0773 58.0771C57.2915 58.863 56.0175 58.863 55.2317 58.0771L51.2704 54.1159C46.1162 58.6107 39.376 61.3332 32 61.3332C15.7997 61.3332 2.66669 48.2002 2.66669 31.9998C2.66669 24.6238 5.38911 17.8837 9.88395 12.7294ZM48.4343 51.2798C44.0103 55.0544 38.2713 57.3332 32 57.3332C18.0088 57.3332 6.66669 45.9911 6.66669 31.9998C6.66669 25.7286 8.94543 19.9895 12.7201 15.5655L22.0227 24.8682L18.8726 25.3444C17.7241 25.518 17.017 26.3724 16.7757 27.1953C16.535 28.0161 16.6736 29.0482 17.4232 29.813L22.8429 35.3428L21.5534 43.1949C21.3918 44.179 21.7837 45.1201 22.4981 45.6964C23.2282 46.2854 24.3302 46.4989 25.33 45.9496L32 42.2852L38.67 45.9496C39.6698 46.4989 40.7719 46.2854 41.502 45.6964C41.7524 45.4944 41.9631 45.2476 42.1244 44.9698L48.4343 51.2798ZM38.0087 40.8541L25.5369 28.3824L22.1271 28.8978L27.1186 33.9907L25.961 41.039L32 37.7213L38.039 41.039L38.0087 40.8541ZM28.3627 19.8638L31.3677 22.8688L32 21.5287L33.7621 25.2632L36.6002 28.1013L41.873 28.9039L39.6588 31.1599L42.4873 33.9885L46.5755 29.823C47.3256 29.0587 47.4649 28.0268 47.2249 27.206C46.9843 26.383 46.2781 25.5283 45.13 25.3535L37.6936 24.2216L34.3295 17.0919C33.3908 15.1025 30.6093 15.1025 29.6706 17.0919L28.3627 19.8638ZM57.3334 31.9998C57.3334 36.8173 55.9887 41.3208 53.6541 45.1552L56.5536 48.0548C59.5759 43.4421 61.3334 37.9262 61.3334 31.9998C61.3334 15.7995 48.2004 2.6665 32 2.6665C26.0736 2.6665 20.5577 4.42399 15.9451 7.44622L18.8446 10.3457C22.6791 8.01121 27.1825 6.6665 32 6.6665C45.9912 6.6665 57.3334 18.0086 57.3334 31.9998Z" fill="#18202A"/>
</svg>
