<svg width="64" height="64" viewBox="0 0 64 64" fill="none" xmlns="http://www.w3.org/2000/svg">
<path d="M12 26.6665C14.2091 26.6665 16 24.8756 16 22.6665C16 20.4574 14.2091 18.6665 12 18.6665C9.79086 18.6665 8 20.4574 8 22.6665C8 24.8756 9.79086 26.6665 12 26.6665Z" fill="#18202A"/>
<path d="M12 45.3332C14.2091 45.3332 16 43.5423 16 41.3332C16 39.124 14.2091 37.3332 12 37.3332C9.79086 37.3332 8 39.124 8 41.3332C8 43.5423 9.79086 45.3332 12 45.3332Z" fill="#18202A"/>
<path d="M34.6667 22.6665C34.6667 24.8756 32.8758 26.6665 30.6667 26.6665C28.4575 26.6665 26.6667 24.8756 26.6667 22.6665C26.6667 20.4574 28.4575 18.6665 30.6667 18.6665C32.8758 18.6665 34.6667 20.4574 34.6667 22.6665Z" fill="#18202A"/>
<path d="M30.6667 45.3332C32.8758 45.3332 34.6667 43.5423 34.6667 41.3332C34.6667 39.124 32.8758 37.3332 30.6667 37.3332C28.4575 37.3332 26.6667 39.124 26.6667 41.3332C26.6667 43.5423 28.4575 45.3332 30.6667 45.3332Z" fill="#18202A"/>
<path d="M53.3333 22.6665C53.3333 24.8756 51.5425 26.6665 49.3333 26.6665C47.1242 26.6665 45.3333 24.8756 45.3333 22.6665C45.3333 20.4574 47.1242 18.6665 49.3333 18.6665C51.5425 18.6665 53.3333 20.4574 53.3333 22.6665Z" fill="#18202A"/>
<path d="M49.3333 45.3332C51.5425 45.3332 53.3333 43.5423 53.3333 41.3332C53.3333 39.124 51.5425 37.3332 49.3333 37.3332C47.1242 37.3332 45.3333 39.124 45.3333 41.3332C45.3333 43.5423 47.1242 45.3332 49.3333 45.3332Z" fill="#18202A"/>
</svg>
