<svg width="64" height="64" viewBox="0 0 64 64" fill="none" xmlns="http://www.w3.org/2000/svg">
<path d="M9.33331 12.6667C9.33331 11.5622 8.43788 10.6667 7.33331 10.6667C6.22874 10.6667 5.33331 11.5622 5.33331 12.6667V51.3334C5.33331 52.438 6.22874 53.3334 7.33331 53.3334C8.43788 53.3334 9.33331 52.438 9.33331 51.3334V33.3334L33.3333 33.3334V51.3334C33.3333 52.438 34.2287 53.3334 35.3333 53.3334C36.4379 53.3334 37.3333 52.438 37.3333 51.3334V12.6667C37.3333 11.5622 36.4379 10.6667 35.3333 10.6667C34.2287 10.6667 33.3333 11.5622 33.3333 12.6667V29.3334L9.33331 29.3334V12.6667Z" fill="#18202A"/>
<path d="M56 31.3335C56 30.5436 55.5352 29.8278 54.8137 29.5065C54.0922 29.1851 53.2491 29.3185 52.6621 29.8469L45.9954 35.8469C45.1744 36.5858 45.1078 37.8504 45.8467 38.6714C46.5857 39.4924 47.8502 39.559 48.6713 38.82L52 35.8242V51.3335C52 52.438 52.8954 53.3335 54 53.3335C55.1046 53.3335 56 52.438 56 51.3335V31.3335Z" fill="#18202A"/>
</svg>
