<svg width="64" height="64" viewBox="0 0 64 64" fill="none" xmlns="http://www.w3.org/2000/svg">
<path fill-rule="evenodd" clip-rule="evenodd" d="M21.3333 10.6667V13.3334H7.99999C6.52724 13.3334 5.33333 14.5273 5.33333 16.0001C5.33333 17.4728 6.52724 18.6667 8 18.6667H10.6667V45.3334C10.6667 54.17 17.8301 61.3334 26.6667 61.3334H37.3333C46.1699 61.3334 53.3333 54.17 53.3333 45.3334V18.6667H56C57.4728 18.6667 58.6667 17.4728 58.6667 16.0001C58.6667 14.5273 57.4728 13.3334 56 13.3334H42.6667V10.6667C42.6667 6.24847 39.0849 2.66675 34.6667 2.66675H29.3333C24.915 2.66675 21.3333 6.24847 21.3333 10.6667ZM34.6667 8.00008H29.3333C27.8606 8.00008 26.6667 9.19399 26.6667 10.6667V13.3334H37.3333V10.6667C37.3333 9.19399 36.1394 8.00008 34.6667 8.00008ZM26.6667 26.6667C28.1394 26.6667 29.3333 27.8607 29.3333 29.3334V45.3334C29.3333 46.8062 28.1394 48.0001 26.6667 48.0001C25.1939 48.0001 24 46.8062 24 45.3334V29.3334C24 27.8607 25.1939 26.6667 26.6667 26.6667ZM40 29.3334C40 27.8607 38.8061 26.6667 37.3333 26.6667C35.8606 26.6667 34.6667 27.8607 34.6667 29.3334V45.3334C34.6667 46.8062 35.8606 48.0001 37.3333 48.0001C38.8061 48.0001 40 46.8062 40 45.3334V29.3334Z" fill="#18202A"/>
</svg>
