<svg width="64" height="64" viewBox="0 0 64 64" fill="none" xmlns="http://www.w3.org/2000/svg">
<path fill-rule="evenodd" clip-rule="evenodd" d="M49.2524 49.2525C50.0335 48.4714 51.2998 48.4714 52.0809 49.2525L57.4142 54.5858C58.1952 55.3669 58.1952 56.6332 57.4142 57.4143C56.6331 58.1953 55.3668 58.1953 54.5858 57.4143L49.2524 52.0809C48.4714 51.2999 48.4714 50.0335 49.2524 49.2525Z" fill="#18202A"/>
<path fill-rule="evenodd" clip-rule="evenodd" d="M29.3333 49.3334C40.379 49.3334 49.3333 40.3791 49.3333 29.3334C49.3333 18.2877 40.379 9.33337 29.3333 9.33337C18.2876 9.33337 9.33331 18.2877 9.33331 29.3334C9.33331 40.3791 18.2876 49.3334 29.3333 49.3334ZM53.3333 29.3334C53.3333 42.5882 42.5882 53.3334 29.3333 53.3334C16.0785 53.3334 5.33331 42.5882 5.33331 29.3334C5.33331 16.0785 16.0785 5.33337 29.3333 5.33337C42.5882 5.33337 53.3333 16.0785 53.3333 29.3334Z" fill="#18202A"/>
</svg>
