<svg width="64" height="64" viewBox="0 0 64 64" fill="none" xmlns="http://www.w3.org/2000/svg">
<path fill-rule="evenodd" clip-rule="evenodd" d="M25.8856 46.1141C26.927 47.1555 26.927 48.8439 25.8856 49.8853L17.8856 57.8853C16.8442 58.9267 15.1558 58.9267 14.1144 57.8853L6.11438 49.8853C5.07298 48.8439 5.07298 47.1555 6.11438 46.1141C7.15578 45.0727 8.84422 45.0727 9.88561 46.1141L13.3333 49.5618L13.3333 14.4376L9.88561 17.8853C8.84421 18.9267 7.15577 18.9267 6.11438 17.8853C5.07298 16.8439 5.07298 15.1554 6.11438 14.1141L14.1144 6.11406C15.1558 5.07266 16.8442 5.07266 17.8856 6.11406L25.8856 14.1141C26.927 15.1555 26.927 16.8439 25.8856 17.8853C24.8442 18.9267 23.1558 18.9267 22.1144 17.8853L18.6667 14.4376L18.6667 49.5618L22.1144 46.1141C23.1558 45.0727 24.8442 45.0727 25.8856 46.1141ZM32 26.6663C32 25.1936 33.1939 23.9997 34.6667 23.9997H56C57.4728 23.9997 58.6667 25.1936 58.6667 26.6663C58.6667 28.1391 57.4728 29.333 56 29.333H34.6667C33.1939 29.333 32 28.1391 32 26.6663ZM34.6667 13.333C33.1939 13.333 32 14.5269 32 15.9997C32 17.4724 33.1939 18.6663 34.6667 18.6663H56C57.4728 18.6663 58.6667 17.4724 58.6667 15.9997C58.6667 14.5269 57.4728 13.333 56 13.333H34.6667ZM32 37.333C32 35.8602 33.1939 34.6663 34.6667 34.6663H56C57.4728 34.6663 58.6667 35.8602 58.6667 37.333C58.6667 38.8058 57.4728 39.9997 56 39.9997H34.6667C33.1939 39.9997 32 38.8058 32 37.333ZM56 45.333H34.6667C33.1939 45.333 32 46.5269 32 47.9997C32 49.4724 33.1939 50.6663 34.6667 50.6663H56C57.4728 50.6663 58.6667 49.4724 58.6667 47.9997C58.6667 46.5269 57.4728 45.333 56 45.333Z" fill="#18202A"/>
</svg>
