<svg width="64" height="64" viewBox="0 0 64 64" fill="none" xmlns="http://www.w3.org/2000/svg">
<path fill-rule="evenodd" clip-rule="evenodd" d="M49.3333 29.3334C49.3333 40.3791 40.379 49.3334 29.3333 49.3334C18.2876 49.3334 9.33331 40.3791 9.33331 29.3334C9.33331 18.2877 18.2876 9.33337 29.3333 9.33337C40.379 9.33337 49.3333 18.2877 49.3333 29.3334ZM29.3333 53.3334C42.5882 53.3334 53.3333 42.5882 53.3333 29.3334C53.3333 16.0785 42.5882 5.33337 29.3333 5.33337C16.0785 5.33337 5.33331 16.0785 5.33331 29.3334C5.33331 42.5882 16.0785 53.3334 29.3333 53.3334ZM52.0809 49.2525C51.2998 48.4714 50.0335 48.4714 49.2524 49.2525C48.4714 50.0335 48.4714 51.2999 49.2524 52.0809L54.5858 57.4143C55.3668 58.1953 56.6331 58.1953 57.4142 57.4143C58.1952 56.6332 58.1952 55.3669 57.4142 54.5858L52.0809 49.2525ZM21.3333 27.3334C20.2287 27.3334 19.3333 28.2288 19.3333 29.3334C19.3333 30.4379 20.2287 31.3334 21.3333 31.3334H37.3333C38.4379 31.3334 39.3333 30.4379 39.3333 29.3334C39.3333 28.2288 38.4379 27.3334 37.3333 27.3334H21.3333Z" fill="#18202A"/>
</svg>
