<svg width="64" height="64" viewBox="0 0 64 64" fill="none" xmlns="http://www.w3.org/2000/svg">
<path d="M21.36 5.43981C23.2659 5.4121 25.119 6.06576 26.5857 7.28312C28.0523 8.50045 29.0363 10.2015 29.36 12.0798C29.44 12.6931 29.5467 13.3065 29.68 13.8931C29.9491 15.0793 30.2965 16.2463 30.72 17.3865C31.1701 18.6236 31.1467 19.9834 30.6544 21.2043C30.2237 22.2726 29.4605 23.1685 28.4844 23.7636L28.0533 23.9998L26.9333 24.7465C28.3781 27.3439 30.1728 29.7306 32.2667 31.8399C34.1123 33.672 36.1703 35.2749 38.396 36.615L39.36 37.1732L39.9467 35.9732C40.5256 34.7908 41.5213 33.8644 42.7421 33.3722C43.9632 32.8799 45.3229 32.8564 46.56 33.3066C47.4134 33.6296 48.2834 33.9058 49.1663 34.1341L50.9467 34.5566C51.2467 34.6199 51.5467 34.6666 51.84 34.6666C53.6635 34.9935 55.3171 35.9431 56.5181 37.3535C57.586 38.6072 58.2377 40.1558 58.3923 41.7854L58.4268 42.3999V50.3999C58.432 51.5316 58.1971 52.6516 57.7373 53.686C57.2776 54.7202 56.6037 55.6452 55.76 56.3999C54.4386 57.5771 52.7685 58.2793 51.0142 58.4058L50.4267 58.4266H49.4133C38.2365 57.0466 27.8381 51.9823 19.8604 44.0335C11.8828 36.0847 6.78066 25.7048 5.36002 14.5331C5.2029 13.3946 5.29293 12.2356 5.624 11.135C5.95504 10.0345 6.51936 9.01813 7.2785 8.15522C8.03765 7.29232 8.97381 6.60314 10.0233 6.13456C10.8978 5.74407 11.8339 5.51443 12.7867 5.45498L13.36 5.43981H21.36ZM21.36 9.43981L13.3224 9.43929C12.7478 9.43423 12.1788 9.55271 11.6541 9.787C11.1293 10.0213 10.6613 10.3659 10.2817 10.7973C9.90212 11.2288 9.61998 11.737 9.45445 12.2873C9.28892 12.8375 9.24391 13.417 9.32807 14.0285C10.6365 24.3182 15.3358 33.8786 22.6837 41.1999C29.7692 48.2597 38.9278 52.8491 48.8033 54.3076L49.6849 54.4256L50.4326 54.4266C51.2752 54.4278 52.0931 54.1629 52.7682 53.6787L53.0933 53.4185C53.5152 53.0412 53.8522 52.5785 54.0821 52.0615C54.2545 51.6736 54.3637 51.2616 54.4063 50.8333L54.4268 50.3999L54.4274 42.4703C54.4111 41.5443 54.0737 40.6524 53.4727 39.9469C52.9583 39.3427 52.2774 38.9076 51.5192 38.6927L51.3116 38.6443L51.2658 38.6436C51.0771 38.6284 50.8898 38.606 50.7002 38.5769L50.1204 38.4703L49.1923 38.2528C47.8152 37.9492 46.4623 37.5465 45.1922 37.0654C44.8832 36.953 44.5433 36.9588 44.238 37.0819C44.0091 37.1742 43.8119 37.3276 43.6669 37.5223L43.5402 37.7301L42.336 40.1931C41.6648 41.5661 39.9793 42.0952 38.6439 41.3522L37.4153 40.6686C34.498 39.0456 31.8176 37.0302 29.4278 34.6579C27.3698 32.5847 25.5694 30.2731 24.0645 27.7735L23.4377 26.6909L22.8397 25.6158C22.1641 24.4013 22.5346 22.8716 23.6909 22.1007L25.8345 20.6716L26.2944 20.4073C26.59 20.2626 26.8215 20.0137 26.9446 19.7085C27.0677 19.4032 27.0736 19.0633 26.9703 18.7791C26.4852 17.473 26.0872 16.1364 25.7795 14.7796C25.6202 14.0789 25.491 13.3442 25.4181 12.7592C25.2563 11.8203 24.7643 10.9697 24.031 10.361C23.4024 9.83931 22.6319 9.52466 21.7879 9.4544L21.36 9.43981Z" fill="#18202A"/>
<path fill-rule="evenodd" clip-rule="evenodd" d="M39.5691 10.0002C39.5691 8.89559 40.4646 8.00016 41.5691 8.00016H53.9874C55.092 8.00016 55.9874 8.89559 55.9874 10.0002V22.4184C55.9874 23.523 55.092 24.4184 53.9874 24.4184C52.8828 24.4184 51.9874 23.523 51.9874 22.4184V14.8286L40.7742 26.0418C39.9932 26.8228 38.7268 26.8228 37.9458 26.0418C37.1647 25.2607 37.1647 23.9944 37.9458 23.2134L49.159 12.0002H41.5691C40.4646 12.0002 39.5691 11.1047 39.5691 10.0002Z" fill="#18202A"/>
</svg>
