<svg width="64" height="64" viewBox="0 0 64 64" fill="none" xmlns="http://www.w3.org/2000/svg">
<path fill-rule="evenodd" clip-rule="evenodd" d="M32 24.667C33.1046 24.667 34 25.5624 34 26.667V53.8386L38.5858 49.2528C39.3668 48.4717 40.6332 48.4717 41.4142 49.2528C42.1953 50.0338 42.1953 51.3002 41.4142 52.0812L33.4142 60.0812C33.0391 60.4563 32.5304 60.667 32 60.667C31.4696 60.667 30.9609 60.4563 30.5858 60.0812L22.5858 52.0812C21.8047 51.3002 21.8047 50.0338 22.5858 49.2528C23.3668 48.4717 24.6332 48.4717 25.4142 49.2528L30 53.8386V26.667C30 25.5624 30.8954 24.667 32 24.667Z" fill="#18202A"/>
<path d="M46.0649 17.1583L46.9646 20.1948L50.1265 20.0156C50.3049 20.0055 50.485 20.0003 50.6667 20.0003C55.8213 20.0003 60 24.179 60 29.3337C60 34.4883 55.8213 38.667 50.6667 38.667H38V42.667H50.6667C58.0305 42.667 64 36.6975 64 29.3337C64 21.9699 58.0305 16.0003 50.6667 16.0003C50.4094 16.0003 50.1538 16.0076 49.9001 16.022C47.6122 8.30023 40.464 2.66699 32 2.66699C23.536 2.66699 16.3878 8.30023 14.0999 16.022C13.8462 16.0076 13.5906 16.0003 13.3333 16.0003C5.96954 16.0003 0 21.9699 0 29.3337C0 36.6975 5.96954 42.667 13.3333 42.667H26V38.667H13.3333C8.17868 38.667 4 34.4883 4 29.3337C4 24.179 8.17868 20.0003 13.3333 20.0003C13.515 20.0003 13.6951 20.0055 13.8735 20.0156L17.0354 20.1948L17.9351 17.1583C19.7335 11.0884 25.3556 6.66699 32 6.66699C38.6444 6.66699 44.2665 11.0884 46.0649 17.1583Z" fill="#18202A"/>
</svg>
