<svg width="64" height="64" viewBox="0 0 64 64" fill="none" xmlns="http://www.w3.org/2000/svg">
<path fill-rule="evenodd" clip-rule="evenodd" d="M27.9191 3.91904C28.7001 3.13799 29.9665 3.13799 30.7475 3.91904L38.7475 11.919C39.5286 12.7001 39.5286 13.9664 38.7475 14.7475L30.7475 22.7475C29.9665 23.5285 28.7001 23.5285 27.9191 22.7475C27.1381 21.9664 27.1381 20.7001 27.9191 19.919L32.5049 15.3333H24C14.7952 15.3333 7.33331 22.7952 7.33331 31.9999C7.33331 39.6964 12.5503 46.1745 19.6409 48.0907C20.604 48.351 21.3333 49.188 21.3333 50.1857C21.3333 51.4109 20.2522 52.3647 19.0622 52.073C10.0326 49.8594 3.33331 41.712 3.33331 31.9999C3.33331 20.586 12.5861 11.3333 24 11.3333H32.5049L27.9191 6.74747C27.1381 5.96642 27.1381 4.70009 27.9191 3.91904ZM31.4951 52.6666L36.0809 57.2524C36.8619 58.0334 36.8619 59.2998 36.0809 60.0808C35.2998 60.8619 34.0335 60.8619 33.2524 60.0808L25.2524 52.0808C24.4714 51.2998 24.4714 50.0334 25.2524 49.2524L33.2524 41.2524C34.0335 40.4713 35.2998 40.4713 36.0809 41.2524C36.8619 42.0334 36.8619 43.2998 36.0809 44.0808L31.4951 48.6666H40C49.2047 48.6666 56.6666 41.2047 56.6666 31.9999C56.6666 24.3034 51.4497 17.8253 44.3591 15.9091C43.396 15.6488 42.6666 14.8118 42.6666 13.8142C42.6666 12.5889 43.7477 11.6351 44.9377 11.9268C53.9673 14.1404 60.6666 22.2878 60.6666 31.9999C60.6666 43.4138 51.4139 52.6666 40 52.6666H31.4951Z" fill="#18202A"/>
</svg>
