<svg width="64" height="64" viewBox="0 0 64 64" fill="none" xmlns="http://www.w3.org/2000/svg">
<g clip-path="url(#clip0_3906_9118)">
<path fill-rule="evenodd" clip-rule="evenodd" d="M2.66663 18.6667C2.66663 12.7756 7.44226 8 13.3333 8H23.3529C25.4747 8 27.5095 8.84286 29.0098 10.3431L32 13.3333H50.6666C56.5577 13.3333 61.3333 18.109 61.3333 24V45.3333C61.3333 51.2244 56.5577 56 50.6666 56H13.3333C7.44226 56 2.66663 51.2244 2.66663 45.3333V18.6667ZM43.9999 33.4545C47.1975 33.4545 48.7963 30.4242 48.7963 26.6364C48.7963 23.6061 47.1975 21.3333 43.9999 21.3333C40.8023 21.3333 39.2035 23.6061 39.2035 26.6364C39.2035 30.4242 40.8023 33.4545 43.9999 33.4545ZM36.1718 38.8179C36.5061 38.5264 36.8565 38.2533 37.2215 38C39.1497 36.6619 41.4844 35.8788 44 35.8788C46.0371 35.8788 47.9556 36.3923 49.6356 37.2982C50.4229 37.7227 51.1578 38.2334 51.8281 38.8179C52.0161 38.9818 52.1864 39.1588 52.3391 39.3467C53.4862 40.7585 53.6374 42.784 52.8096 44.4738L52.782 44.53L52.7536 44.5873C52.0751 45.9498 50.8362 46.9395 49.3744 47.3182C47.6562 47.7633 45.8554 48 43.9999 48C42.1445 48 40.3437 47.7633 38.6255 47.3182C37.1637 46.9395 35.9248 45.9498 35.2463 44.5873L35.1903 44.4739C34.7028 43.4789 34.5549 42.3674 34.7498 41.3333C34.93 40.3777 35.4031 39.4882 36.1718 38.8179Z" fill="#18202A"/>
</g>
<defs>
<clipPath id="clip0_3906_9118">
<rect width="64" height="64" fill="white"/>
</clipPath>
</defs>
</svg>
