<svg width="64" height="64" viewBox="0 0 64 64" fill="none" xmlns="http://www.w3.org/2000/svg">
<g clip-path="url(#clip0_3737_8812)">
<path fill-rule="evenodd" clip-rule="evenodd" d="M32 0C33.4727 0 34.6666 1.19391 34.6666 2.66667V5.45291C38.9716 5.84085 43.0083 7.15887 46.5744 9.20447L49.6645 6.11438C50.7059 5.07298 52.3943 5.07298 53.4357 6.11438C54.4771 7.15578 54.4771 8.84422 53.4357 9.88562L51.002 12.3194C57.3235 17.6998 61.3333 25.715 61.3333 34.6667C61.3333 50.867 48.2003 64 32 64C15.7996 64 2.66663 50.867 2.66663 34.6667C2.66663 19.3652 14.3826 6.80019 29.3333 5.45291V2.66667C29.3333 1.19391 30.5272 0 32 0ZM32 13.3333C33.4727 13.3333 34.6666 14.5272 34.6666 16V32H48C49.4727 32 50.6666 33.1939 50.6666 34.6667C50.6666 36.1394 49.4727 37.3333 48 37.3333H32C30.5272 37.3333 29.3333 36.1394 29.3333 34.6667V16C29.3333 14.5272 30.5272 13.3333 32 13.3333Z" fill="#18202A"/>
</g>
<defs>
<clipPath id="clip0_3737_8812">
<rect width="64" height="64" fill="white"/>
</clipPath>
</defs>
</svg>
