<svg width="64" height="64" viewBox="0 0 64 64" fill="none" xmlns="http://www.w3.org/2000/svg">
<path fill-rule="evenodd" clip-rule="evenodd" d="M7.05089 6.66699H0V2.66699H7.05089C9.03081 2.66699 10.9214 3.4909 12.2694 4.94114C12.6356 5.33512 12.9292 5.79074 13.1367 6.28698L13.8532 8.00033H54.7032C58.0265 8.00033 60.2848 11.3755 59.0169 14.4474L51.8628 31.7807C51.1418 33.5274 49.4387 34.667 47.5491 34.667H21.35L17.5242 38.8858C17.1357 39.3143 17.4397 40.0003 18.0181 40.0003H49.1457C50.9289 40.0003 52.5941 40.8915 53.5833 42.3753L54.6667 44.0003H18.0181C13.9695 44.0003 11.8415 39.1979 14.5611 36.1988L18.1827 32.2051L10.6538 10.7174L9.44639 7.8302C9.42082 7.76905 9.38463 7.71289 9.3395 7.66434C8.74835 7.02833 7.9192 6.66699 7.05089 6.66699ZM26.6667 53.3337C26.6667 56.3559 24.3556 58.667 21.3333 58.667C18.3111 58.667 16 56.3559 16 53.3337C16 50.3114 18.3111 48.0003 21.3333 48.0003C24.3556 48.0003 26.6667 50.3114 26.6667 53.3337ZM50.6667 53.3337C50.6667 56.3559 48.3556 58.667 45.3333 58.667C42.3111 58.667 40 56.3559 40 53.3337C40 50.3114 42.3111 48.0003 45.3333 48.0003C48.3556 48.0003 50.6667 50.3114 50.6667 53.3337Z" fill="#18202A"/>
</svg>
