<svg width="64" height="64" viewBox="0 0 64 64" fill="none" xmlns="http://www.w3.org/2000/svg">
<path d="M50.6667 16.0003C58.0305 16.0003 64 21.9699 64 29.3337C64 36.6975 58.0305 42.667 50.6667 42.667H37.3333V26.667C37.3333 23.7215 34.9455 21.3337 32 21.3337C29.0545 21.3337 26.6667 23.7215 26.6667 26.667V42.667H13.3333C5.96954 42.667 0 36.6975 0 29.3337C0 21.9699 5.96954 16.0003 13.3333 16.0003C13.5906 16.0003 13.8462 16.0076 14.0999 16.022C16.3878 8.30023 23.536 2.66699 32 2.66699C40.464 2.66699 47.6122 8.30023 49.9001 16.022C50.1538 16.0076 50.4094 16.0003 50.6667 16.0003Z" fill="#18202A"/>
<path fill-rule="evenodd" clip-rule="evenodd" d="M32 24.0003C33.4728 24.0003 34.6667 25.1942 34.6667 26.667V52.2291L38.1144 48.7814C39.1558 47.74 40.8442 47.74 41.8856 48.7814C42.927 49.8228 42.927 51.5112 41.8856 52.5526L33.8856 60.5526C33.3855 61.0527 32.7072 61.3337 32 61.3337C31.2928 61.3337 30.6145 61.0527 30.1144 60.5526L22.1144 52.5526C21.073 51.5112 21.073 49.8228 22.1144 48.7814C23.1558 47.74 24.8442 47.74 25.8856 48.7814L29.3333 52.2291V26.667C29.3333 25.1942 30.5272 24.0003 32 24.0003Z" fill="#18202A"/>
</svg>
