<svg width="64" height="64" viewBox="0 0 64 64" fill="none" xmlns="http://www.w3.org/2000/svg">
<g clip-path="url(#clip0_3725_8772)">
<path fill-rule="evenodd" clip-rule="evenodd" d="M24 25.7258C24 24.7729 24.7725 24.0003 25.7255 24.0003H38.2745C39.2275 24.0003 40 24.7729 40 25.7258V38.2748C40 39.2278 39.2275 40.0003 38.2745 40.0003H25.7255C24.7725 40.0003 24 39.2278 24 38.2748V25.7258ZM27.451 27.4513V36.5493H36.549V27.4513H27.451Z" fill="#18202A"/>
<path fill-rule="evenodd" clip-rule="evenodd" d="M26.7266 4.66699C26.7266 3.56242 25.8312 2.66699 24.7266 2.66699C23.622 2.66699 22.7266 3.56242 22.7266 4.66699V10.6071H17.4553C13.673 10.6071 10.6068 13.6733 10.6068 17.4556V22.667H4.66669C3.56212 22.667 2.66669 23.5624 2.66669 24.667C2.66669 25.7716 3.56212 26.667 4.66669 26.667H10.6068V34.667H4.66669C3.56212 34.667 2.66669 35.5624 2.66669 36.667C2.66669 37.7716 3.56212 38.667 4.66669 38.667H10.6068V46.5465C10.6068 50.3288 13.673 53.395 17.4553 53.395H22.7266V59.4412C22.7266 60.4864 23.622 61.3337 24.7266 61.3337C25.8312 61.3337 26.7266 60.4864 26.7266 59.4412V53.395H37.2735V59.4412C37.2735 60.4864 38.1689 61.3337 39.2735 61.3337C40.378 61.3337 41.2735 60.4864 41.2735 59.4412V53.395H46.5462C50.3285 53.395 53.3947 50.3288 53.3947 46.5465V38.667H59.4409C60.4861 38.667 61.3334 37.7716 61.3334 36.667C61.3334 35.5624 60.4861 34.667 59.4409 34.667H53.3947V26.667H59.4409C60.4861 26.667 61.3334 25.7716 61.3334 24.667C61.3334 23.5624 60.4861 22.667 59.4409 22.667H53.3947V17.4556C53.3947 13.6733 50.3285 10.6071 46.5462 10.6071H41.2735V4.66699C41.2735 3.56242 40.378 2.66699 39.2735 2.66699C38.1689 2.66699 37.2735 3.56242 37.2735 4.66699V10.6071H26.7266V4.66699ZM17.4553 14.6071C15.8821 14.6071 14.6068 15.8824 14.6068 17.4556V46.5465C14.6068 48.1197 15.8821 49.395 17.4553 49.395H46.5462C48.1194 49.395 49.3947 48.1197 49.3947 46.5465V17.4556C49.3947 15.8824 48.1194 14.6071 46.5462 14.6071H17.4553Z" fill="#18202A"/>
</g>
<defs>
<clipPath id="clip0_3725_8772">
<rect width="64" height="64" fill="white"/>
</clipPath>
</defs>
</svg>
