<svg width="64" height="64" viewBox="0 0 64 64" fill="none" xmlns="http://www.w3.org/2000/svg">
<path d="M6.66669 6.66699C6.66669 4.45785 4.87583 2.66699 2.66669 2.66699V61.3337H61.3334C61.3334 59.1245 59.5425 57.3337 57.3334 57.3337H6.66669V6.66699Z" fill="#18202A"/>
<path d="M49.3334 13.3337C49.3334 11.1245 51.1242 9.33366 53.3334 9.33366C55.5425 9.33366 57.3334 11.1245 57.3334 13.3337C57.3334 15.5428 55.5425 17.3337 53.3334 17.3337C52.7422 17.3337 52.181 17.2054 51.6761 16.9752L38.6483 26.2808C38.6605 26.4079 38.6667 26.5367 38.6667 26.667C38.6667 28.8761 36.8758 30.667 34.6667 30.667C32.9841 30.667 31.5442 29.6281 30.9533 28.1568L19.1467 26.4702C18.4143 27.4019 17.2771 28.0003 16 28.0003C13.7909 28.0003 12 26.2095 12 24.0003C12 21.7912 13.7909 20.0003 16 20.0003C17.6826 20.0003 19.1225 21.0392 19.7134 22.5105L31.52 24.1972C32.2524 23.2654 33.3897 22.667 34.6667 22.667C35.2578 22.667 35.819 22.7952 36.324 23.0254L49.3518 13.7199C49.3396 13.5928 49.3334 13.4639 49.3334 13.3337Z" fill="#18202A"/>
<path fill-rule="evenodd" clip-rule="evenodd" d="M13.3334 32.0003C11.8606 32.0003 10.6667 33.1942 10.6667 34.667V50.667C10.6667 52.1398 11.8606 53.3337 13.3334 53.3337H18.6667C20.1394 53.3337 21.3334 52.1398 21.3334 50.667V34.667C21.3334 33.1942 20.1394 32.0003 18.6667 32.0003H13.3334ZM14.6667 36.0003V49.3337H17.3334V36.0003H14.6667Z" fill="#18202A"/>
<path fill-rule="evenodd" clip-rule="evenodd" d="M29.3334 37.3337C29.3334 35.8609 30.5273 34.667 32 34.667H37.3334C38.8061 34.667 40 35.8609 40 37.3337V50.667C40 52.1398 38.8061 53.3337 37.3334 53.3337H32C30.5273 53.3337 29.3334 52.1398 29.3334 50.667V37.3337ZM33.3334 49.3337V38.667H36V49.3337H33.3334Z" fill="#18202A"/>
<path fill-rule="evenodd" clip-rule="evenodd" d="M50.6667 21.3337C49.1939 21.3337 48 22.5276 48 24.0003V50.667C48 52.1398 49.1939 53.3337 50.6667 53.3337H56C57.4728 53.3337 58.6667 52.1398 58.6667 50.667V24.0003C58.6667 22.5276 57.4728 21.3337 56 21.3337H50.6667ZM52 25.3337V49.3337H54.6667V25.3337H52Z" fill="#18202A"/>
</svg>
