<svg width="64" height="64" viewBox="0 0 64 64" fill="none" xmlns="http://www.w3.org/2000/svg">
<path fill-rule="evenodd" clip-rule="evenodd" d="M34 6.66667V26C34 28.2091 35.7909 30 38 30H57.3334C59.5425 30 61.3334 28.2091 61.3334 26V16C61.3334 8.63621 55.3638 2.66667 48 2.66667H38C35.7909 2.66667 34 4.45753 34 6.66667ZM30 6.66667C30 4.45753 28.2092 2.66667 26 2.66667H16C8.63622 2.66667 2.66669 8.63621 2.66669 16V48C2.66669 55.3638 8.63623 61.3333 16 61.3333H26C28.2092 61.3333 30 59.5425 30 57.3333V6.66667ZM34 38V57.3333C34 59.5425 35.7909 61.3333 38 61.3333H48C55.3638 61.3333 61.3334 55.3638 61.3334 48V38C61.3334 35.7909 59.5425 34 57.3334 34H38C35.7909 34 34 35.7909 34 38ZM38 57.3333H48C53.1547 57.3333 57.3334 53.1547 57.3334 48V38H38V57.3333ZM38 26H57.3334V16C57.3334 10.8453 53.1547 6.66667 48 6.66667H38V26ZM26 6.66667H16C10.8454 6.66667 6.66669 10.8453 6.66669 16V48C6.66669 53.1547 10.8454 57.3333 16 57.3333H26V6.66667Z" fill="#18202A"/>
</svg>
