<svg width="64" height="64" viewBox="0 0 64 64" fill="none" xmlns="http://www.w3.org/2000/svg">
<path fill-rule="evenodd" clip-rule="evenodd" d="M27.4723 59.8232C26.1637 58.843 25.2079 57.4652 24.7476 55.8963L28.5858 54.7702C28.8029 55.5102 29.2537 56.1598 29.8704 56.6217C30.4871 57.0837 31.2366 57.3333 32.0067 57.3333C32.7768 57.3333 33.5263 57.0837 34.143 56.6217C34.7597 56.1598 35.2104 55.5102 35.4276 54.7702L39.2658 55.8963C38.8055 57.4652 37.8496 58.843 36.541 59.8232C35.2325 60.8034 33.6416 61.3333 32.0067 61.3333C30.3717 61.3333 28.7809 60.8034 27.4723 59.8232Z" fill="#18202A"/>
<path fill-rule="evenodd" clip-rule="evenodd" d="M32 3.33325C33.1046 3.33325 34 4.22868 34 5.33325V7.99992C34 9.10449 33.1046 9.99992 32 9.99992C30.8954 9.99992 30 9.10449 30 7.99992V5.33325C30 4.22868 30.8954 3.33325 32 3.33325Z" fill="#18202A"/>
<path fill-rule="evenodd" clip-rule="evenodd" d="M17.2887 13.9508C13.387 17.761 11.1951 22.9289 11.1951 28.3174C11.1951 38.3975 8.71197 44.3472 6.66323 47.5407C5.96454 48.6297 6.83338 50.6666 8.12731 50.6666H55.8727C57.1666 50.6666 58.0355 48.6297 57.3368 47.5407C55.2881 44.3472 52.805 38.3975 52.805 28.3174C52.805 22.9289 50.613 17.761 46.7113 13.9508C42.8096 10.1405 37.5178 7.99992 32 7.99992C26.4822 7.99992 21.1904 10.1405 17.2887 13.9508ZM32 11.9999C27.5129 11.9999 23.228 13.7416 20.0834 16.8125C16.942 19.8803 15.1951 24.0207 15.1951 28.3174C15.1951 36.6911 13.5848 42.6131 11.6924 46.6666H52.3076C50.4152 42.6131 48.805 36.6911 48.805 28.3174C48.805 24.0207 47.0581 19.8803 43.9166 16.8125C40.772 13.7416 36.4872 11.9999 32 11.9999Z" fill="#18202A"/>
</svg>
