<svg width="64" height="64" viewBox="0 0 64 64" fill="none" xmlns="http://www.w3.org/2000/svg">
<path fill-rule="evenodd" clip-rule="evenodd" d="M32 60.6663C33.1046 60.6663 34 59.7709 34 58.6663V31.4948L38.5858 36.0806C39.3668 36.8616 40.6332 36.8616 41.4142 36.0806C42.1953 35.2995 42.1953 34.0332 41.4142 33.2521L33.4142 25.2521C33.0391 24.8771 32.5304 24.6663 32 24.6663C31.4696 24.6663 30.9609 24.8771 30.5858 25.2521L22.5858 33.2521C21.8047 34.0332 21.8047 35.2995 22.5858 36.0806C23.3668 36.8616 24.6332 36.8616 25.4142 36.0806L30 31.4948V58.6663C30 59.7709 30.8954 60.6663 32 60.6663Z" fill="#18202A"/>
<path d="M46.0649 19.8243L46.9646 22.8608L50.1265 22.6816C50.3049 22.6715 50.485 22.6663 50.6667 22.6663C55.8213 22.6663 60 26.845 60 31.9997C60 37.1543 55.8213 41.333 50.6667 41.333H38V45.333H50.6667C58.0305 45.333 64 39.3635 64 31.9997C64 24.6359 58.0305 18.6663 50.6667 18.6663C50.4094 18.6663 50.1538 18.6736 49.9001 18.688C47.6122 10.9662 40.464 5.33301 32 5.33301C23.536 5.33301 16.3878 10.9662 14.0999 18.688C13.8462 18.6736 13.5906 18.6663 13.3333 18.6663C5.96954 18.6663 0 24.6359 0 31.9997C0 39.3635 5.96954 45.333 13.3333 45.333H26V41.333H13.3333C8.17868 41.333 4 37.1543 4 31.9997C4 26.845 8.17868 22.6663 13.3333 22.6663C13.515 22.6663 13.6951 22.6715 13.8735 22.6816L17.0354 22.8608L17.9351 19.8243C19.7335 13.7545 25.3556 9.33301 32 9.33301C38.6444 9.33301 44.2665 13.7545 46.0649 19.8243Z" fill="#18202A"/>
</svg>
