<svg width="64" height="64" viewBox="0 0 64 64" fill="none" xmlns="http://www.w3.org/2000/svg">
<g clip-path="url(#clip0_3444_9553)">
<path d="M42.6667 5.3335C46.15 5.3335 49.1133 7.55965 50.2115 10.6668H13.7886C14.8868 7.55965 17.8501 5.3335 21.3334 5.3335H42.6667Z" fill="#18202A"/>
<path fill-rule="evenodd" clip-rule="evenodd" d="M13.3334 13.3335C8.9151 13.3335 5.33337 16.9152 5.33337 21.3335V37.3335C5.33337 40.8167 7.55953 43.78 10.6667 44.8783V50.6668C10.6667 55.0851 14.2484 58.6668 18.6667 58.6668H45.3334C49.7517 58.6668 53.3334 55.0851 53.3334 50.6668V44.8783C56.4405 43.78 58.6667 40.8167 58.6667 37.3335V21.3335C58.6667 16.9152 55.085 13.3335 50.6667 13.3335H13.3334ZM50.6667 24.0002C52.1395 24.0002 53.3334 22.8063 53.3334 21.3335C53.3334 19.8607 52.1395 18.6668 50.6667 18.6668C49.1939 18.6668 48 19.8607 48 21.3335C48 22.8063 49.1939 24.0002 50.6667 24.0002ZM48 32.0002C48 30.5274 46.8061 29.3335 45.3334 29.3335H18.6667C17.1939 29.3335 16 30.5274 16 32.0002V50.6668C16 52.1396 17.1939 53.3335 18.6667 53.3335H45.3334C46.8061 53.3335 48 52.1396 48 50.6668V32.0002Z" fill="#18202A"/>
</g>
<defs>
<clipPath id="clip0_3444_9553">
<rect width="64" height="64" fill="white"/>
</clipPath>
</defs>
</svg>
