<svg width="64" height="64" viewBox="0 0 64 64" fill="none" xmlns="http://www.w3.org/2000/svg">
<path d="M24 16.6668C22.8954 16.6668 22 17.5623 22 18.6668C22 19.7714 22.8954 20.6668 24 20.6668H40C41.1045 20.6668 42 19.7714 42 18.6668C42 17.5623 41.1045 16.6668 40 16.6668H24Z" fill="#18202A"/>
<path d="M24 27.3335C22.8954 27.3335 22 28.2289 22 29.3335C22 30.4381 22.8954 31.3335 24 31.3335H40C41.1045 31.3335 42 30.4381 42 29.3335C42 28.2289 41.1045 27.3335 40 27.3335H24Z" fill="#18202A"/>
<path d="M22 40.0002C22 38.8956 22.8954 38.0002 24 38.0002H40C41.1045 38.0002 42 38.8956 42 40.0002C42 41.1047 41.1045 42.0002 40 42.0002H24C22.8954 42.0002 22 41.1047 22 40.0002Z" fill="#18202A"/>
<path fill-rule="evenodd" clip-rule="evenodd" d="M16 3.3335C14.7623 3.3335 13.5753 3.82516 12.7001 4.70033C11.825 5.5755 11.3333 6.76249 11.3333 8.00016V58.6668C11.3333 59.416 11.752 60.1024 12.4181 60.4452C13.0843 60.788 13.8862 60.7297 14.4958 60.2943L22.6666 54.458L30.8375 60.2943C31.5329 60.791 32.4671 60.791 33.1625 60.2943L41.3333 54.458L49.5042 60.2943C50.1138 60.7297 50.9157 60.788 51.5818 60.4452C52.248 60.1024 52.6666 59.416 52.6666 58.6668V8.00016C52.6666 6.76249 52.175 5.5755 51.2998 4.70033C50.4246 3.82516 49.2377 3.3335 48 3.3335H16ZM15.5286 7.52876C15.6536 7.40373 15.8232 7.3335 16 7.3335H48C48.1768 7.3335 48.3464 7.40374 48.4714 7.52876C48.5964 7.65378 48.6666 7.82335 48.6666 8.00016V54.7805L42.4958 50.3727C41.8004 49.876 40.8662 49.876 40.1708 50.3727L32 56.209L23.8291 50.3727C23.1337 49.876 22.1996 49.876 21.5042 50.3727L15.3333 54.7805V8.00016C15.3333 7.82335 15.4036 7.65378 15.5286 7.52876Z" fill="#18202A"/>
</svg>
