<svg width="64" height="64" viewBox="0 0 64 64" fill="none" xmlns="http://www.w3.org/2000/svg">
<path fill-rule="evenodd" clip-rule="evenodd" d="M32 45.9419C32 39.7147 37.0482 34.6665 43.2754 34.6665H58V38.6665H43.2754C39.2573 38.6665 36 41.9238 36 45.9419V57.9998H32V45.9419Z" fill="#18202A"/>
<path fill-rule="evenodd" clip-rule="evenodd" d="M45.1015 6.6665H18.8986C12.1431 6.6665 6.66669 12.1429 6.66669 18.8984V45.1013C6.66669 51.8568 12.1431 57.3332 18.8986 57.3332H33.5073C46.6661 57.3332 57.3334 46.6659 57.3334 33.5071V18.8984C57.3334 12.1429 51.857 6.6665 45.1015 6.6665ZM18.8986 2.6665C9.93395 2.6665 2.66669 9.93376 2.66669 18.8984V45.1013C2.66669 54.0659 9.93395 61.3332 18.8986 61.3332H33.5073C48.8752 61.3332 61.3334 48.875 61.3334 33.5071V18.8984C61.3334 9.93377 54.0661 2.6665 45.1015 2.6665H18.8986Z" fill="#18202A"/>
<path d="M24 23.9998C24 26.9454 22.2092 29.3332 20 29.3332C17.7909 29.3332 16 26.9454 16 23.9998C16 21.0543 17.7909 18.6665 20 18.6665C22.2092 18.6665 24 21.0543 24 23.9998Z" fill="#18202A"/>
<path d="M48 23.9998C48 26.9454 46.2092 29.3332 44 29.3332C41.7909 29.3332 40 26.9454 40 23.9998C40 21.0543 41.7909 18.6665 44 18.6665C46.2092 18.6665 48 21.0543 48 23.9998Z" fill="#18202A"/>
<path d="M32.3043 43.3292C32.1053 44.1677 32 45.0425 32 45.9419L32 47.333C29.5509 47.333 27.1326 46.7735 24.9779 45.6962C22.8227 44.6185 20.9898 43.0515 19.6794 41.1243C19.0584 40.2108 19.2954 38.9669 20.2088 38.3458C21.1222 37.7247 22.3662 37.9617 22.9872 38.8752C23.8892 40.2016 25.1837 41.3269 26.7668 42.1184C28.3504 42.9102 30.1541 43.333 32 43.333C32.1016 43.333 32.203 43.3318 32.3043 43.3292Z" fill="#18202A"/>
</svg>
