<svg width="64" height="64" viewBox="0 0 64 64" fill="none" xmlns="http://www.w3.org/2000/svg">
<path fill-rule="evenodd" clip-rule="evenodd" d="M46.4466 8C48.3916 8 50.1824 9.05885 51.1197 10.7631L60.4648 27.7542C61.0282 28.7785 61.2394 29.9595 61.066 31.1156L58.0147 51.4578C57.6231 54.0686 55.3803 56 52.7403 56H11.2597C8.61969 56 6.37696 54.0686 5.98535 51.4578L2.93401 31.1156C2.7606 29.9595 2.97183 28.7785 3.53519 27.7542L12.8803 10.7631C13.8176 9.05884 15.6084 8 17.5535 8H46.4466ZM7.45834 29.3333H21.3333C22.8061 29.3333 23.9565 30.56 24.4383 31.9517C25.5228 35.0841 28.4987 37.3333 32 37.3333C35.5013 37.3333 38.4772 35.0841 39.5617 31.9517C40.0435 30.56 41.1939 29.3333 42.6667 29.3333H56.5417L47.7094 12.7078C47.478 12.2722 47.0251 12 46.5319 12H17.4681C16.975 12 16.522 12.2722 16.2907 12.7078L7.45834 29.3333ZM32 41.3333C36.8914 41.3333 41.0993 38.4067 42.9681 34.2091C43.1979 33.6928 43.695 33.3333 44.2601 33.3333H56.6886L54.0589 50.8645C53.961 51.5172 53.4003 52 52.7403 52H11.2597C10.5997 52 10.039 51.5172 9.94109 50.8645L7.31142 33.3333H19.7399C20.305 33.3333 20.8021 33.6928 21.0319 34.2091C22.9007 38.4067 27.1086 41.3333 32 41.3333Z" fill="#18202A"/>
</svg>
