<svg width="343" height="181" viewBox="0 0 343 181" fill="none" xmlns="http://www.w3.org/2000/svg">
<defs>
<clipPath id="clip0_19611_316626">
<rect y="0.5" width="343" height="180" rx="12" fill="white"/>
</clipPath>
</defs>
<g clip-path="url(#clip0_19611_316626)">
<rect y="0.5" width="343" height="180" rx="12" fill="#F7EDFF"/>
<path d="M32 30.5C32 26.0817 35.5817 22.5 40 22.5H304C308.418 22.5 312 26.0817 312 30.5V180.5H32V30.5Z" fill="white"/>
<rect x="58" y="38.5" width="164" height="20" rx="4" fill="#ECEEF1"/>
<rect x="250" y="38.5" width="44" height="20" rx="4" fill="#28526E"/>
<path d="M262.039 52.5V46.543H264.212V45.4541H258.611V46.543H260.779V52.5H262.039ZM265.452 52.5H266.663V49.3994C266.663 48.6328 267.107 48.1152 267.903 48.1152C268.606 48.1152 268.978 48.5303 268.978 49.3408V52.5H270.188V49.0527C270.188 47.7832 269.495 47.0605 268.353 47.0605C267.557 47.0605 266.985 47.4219 266.731 48.0225H266.644V45.0928H265.452V52.5ZM273.865 48.0127C274.593 48.0127 275.071 48.5205 275.096 49.3115H272.581C272.635 48.5303 273.143 48.0127 273.865 48.0127ZM275.105 51.0303C274.93 51.4258 274.515 51.6455 273.914 51.6455C273.118 51.6455 272.605 51.0889 272.576 50.2002V50.1367H276.307V49.7461C276.307 48.0615 275.394 47.0508 273.87 47.0508C272.322 47.0508 271.36 48.1299 271.36 49.8486C271.36 51.5674 272.308 52.6074 273.88 52.6074C275.14 52.6074 276.023 52.002 276.253 51.0303H275.105ZM274.5 44.7314H273.235L271.883 46.4307H273.05L273.826 45.3809H273.909L274.686 46.4307H275.853L274.5 44.7314ZM277.522 52.5H278.733V49.2529C278.733 48.5986 279.178 48.1055 279.778 48.1055C280.374 48.1055 280.745 48.4619 280.745 49.0479V52.5H281.922V49.1748C281.922 48.5645 282.337 48.1055 282.967 48.1055C283.616 48.1055 283.943 48.4473 283.943 49.1357V52.5H285.149V48.8281C285.149 47.7197 284.505 47.0508 283.436 47.0508C282.693 47.0508 282.078 47.4365 281.814 48.0225H281.731C281.507 47.4219 280.994 47.0508 280.257 47.0508C279.549 47.0508 279.002 47.4121 278.772 48.0225H278.689V47.1582H277.522V52.5Z" fill="white"/>
<rect x="66" y="78.5" width="4" height="12" fill="#FA8C16"/>
<rect x="82" y="82.5" width="64" height="4" rx="2" fill="#ECEEF1"/>
<rect x="66" y="98.5" width="220" height="1" fill="#ECEEF1"/>
<rect x="66" y="107.5" width="141" height="8" rx="4" fill="#ECEEF1"/>
<rect x="58.5" y="71" width="235" height="52" rx="3.5" stroke="#ECEEF1"/>
<rect x="58" y="135.5" width="236" height="28" rx="4" fill="#3AB67B"/>
<path d="M147.9 153.5V147.543H150.073V146.454H144.473V147.543H146.641V153.5H147.9ZM152.124 152.636C151.587 152.636 151.201 152.367 151.201 151.918C151.201 151.483 151.519 151.239 152.197 151.195L153.403 151.117V151.542C153.403 152.162 152.856 152.636 152.124 152.636ZM151.768 153.588C152.466 153.588 153.052 153.285 153.35 152.768H153.433V153.5H154.6V149.853C154.6 148.72 153.828 148.051 152.456 148.051C151.187 148.051 150.303 148.651 150.205 149.594H151.348C151.46 149.232 151.841 149.037 152.397 149.037C153.052 149.037 153.403 149.33 153.403 149.853V150.302L152.026 150.385C150.728 150.463 150 151.02 150 151.986C150 152.963 150.737 153.588 151.768 153.588ZM152.363 155.561C152.769 155.561 153.066 155.253 153.066 154.857C153.066 154.457 152.769 154.149 152.363 154.149C151.953 154.149 151.66 154.457 151.66 154.857C151.66 155.253 151.953 155.561 152.363 155.561ZM158.364 153.607C159.961 153.607 160.933 152.562 160.933 150.829C160.933 149.101 159.956 148.051 158.364 148.051C156.777 148.051 155.796 149.105 155.796 150.829C155.796 152.562 156.763 153.607 158.364 153.607ZM158.364 152.592C157.52 152.592 157.036 151.947 157.036 150.829C157.036 149.716 157.52 149.066 158.364 149.066C159.204 149.066 159.688 149.716 159.688 150.829C159.688 151.947 159.209 152.592 158.364 152.592ZM164.819 153.5H166.03V150.253C166.03 149.599 166.475 149.105 167.075 149.105C167.671 149.105 168.042 149.462 168.042 150.048V153.5H169.219V150.175C169.219 149.564 169.634 149.105 170.264 149.105C170.913 149.105 171.24 149.447 171.24 150.136V153.5H172.446V149.828C172.446 148.72 171.802 148.051 170.732 148.051C169.99 148.051 169.375 148.437 169.111 149.022H169.028C168.804 148.422 168.291 148.051 167.554 148.051C166.846 148.051 166.299 148.412 166.069 149.022H165.986V148.158H164.819V153.5ZM178.53 148.158H177.319V151.269C177.319 152.06 176.89 152.543 176.104 152.543C175.381 152.543 175.044 152.143 175.044 151.327V148.158H173.833V151.63C173.833 152.88 174.517 153.607 175.684 153.607C176.499 153.607 177.021 153.261 177.28 152.65H177.363V153.5H178.53V148.158ZM176.167 155.561C176.572 155.561 176.87 155.253 176.87 154.857C176.87 154.457 176.572 154.149 176.167 154.149C175.757 154.149 175.464 154.457 175.464 154.857C175.464 155.253 175.757 155.561 176.167 155.561ZM184.629 149.955C184.502 148.832 183.672 148.051 182.3 148.051C180.693 148.051 179.751 149.081 179.751 150.814C179.751 152.572 180.698 153.607 182.305 153.607C183.657 153.607 184.497 152.855 184.629 151.737H183.477C183.35 152.294 182.93 152.592 182.3 152.592C181.475 152.592 180.977 151.938 180.977 150.814C180.977 149.706 181.47 149.066 182.3 149.066C182.964 149.066 183.364 149.438 183.477 149.955H184.629ZM188.452 153.5H189.663V150.253C189.663 149.599 190.107 149.105 190.708 149.105C191.304 149.105 191.675 149.462 191.675 150.048V153.5H192.852V150.175C192.852 149.564 193.267 149.105 193.896 149.105C194.546 149.105 194.873 149.447 194.873 150.136V153.5H196.079V149.828C196.079 148.72 195.435 148.051 194.365 148.051C193.623 148.051 193.008 148.437 192.744 149.022H192.661C192.437 148.422 191.924 148.051 191.187 148.051C190.479 148.051 189.932 148.412 189.702 149.022H189.619V148.158H188.452V153.5ZM199.819 152.592C198.975 152.592 198.491 151.947 198.491 150.829C198.491 149.711 198.979 149.066 199.819 149.066C200.659 149.066 201.143 149.711 201.143 150.829C201.143 151.947 200.659 152.592 199.819 152.592ZM202.388 150.829C202.388 150.023 202.1 149.33 201.689 149.052V148.998C201.753 148.998 201.831 148.998 201.934 148.998C202.407 148.998 202.749 148.69 202.749 148.114V147.084H201.748V147.782C201.748 148.09 201.626 148.212 201.216 148.212C200.698 148.212 200.488 148.051 199.819 148.051C198.228 148.051 197.251 149.105 197.251 150.829C197.251 152.558 198.218 153.607 199.819 153.607C201.421 153.607 202.388 152.562 202.388 150.829ZM200.288 147.274L201.675 145.58H200.322L199.106 147.274H200.288ZM204.014 153.5H205.22V148.158H204.014V153.5ZM204.614 147.289C205.059 147.289 205.361 147.006 205.361 146.62C205.361 146.234 205.059 145.951 204.614 145.951C204.175 145.951 203.867 146.234 203.867 146.62C203.867 147.006 204.175 147.289 204.614 147.289Z" fill="white"/>
</g>
</svg>
