<svg width="293" height="172" viewBox="0 0 293 172" fill="none" xmlns="http://www.w3.org/2000/svg">
<path d="M85.2819 34.4188L41 64.1406L84.6175 129.565L128.899 99.8433L85.2819 34.4188Z" fill="white"/>
<path d="M106.016 96.7502L105.515 99.8707L83.5 96.6869L84.0012 93.5664L106.016 96.7502Z" fill="#DEDFE2"/>
<path d="M94.9304 85.6172L98.0878 86.0726L94.5871 107.821L91.4258 107.362L94.9304 85.6172Z" fill="#DEDFE2"/>
<path d="M74.6535 57.9771C74.6851 58.0246 70.2491 61.058 64.7434 64.7527C59.2378 68.4474 54.7505 71.4055 54.7189 71.358C54.6873 71.3104 59.1234 68.2771 64.629 64.5824C70.1346 60.8877 74.622 57.9296 74.6535 57.9771Z" fill="#DEDFE2"/>
<path d="M90.9404 53.8715C90.972 53.919 83.5917 58.9284 74.4591 65.0545C65.3226 71.1846 57.895 76.1148 57.8634 76.0673C57.8318 76.0198 65.2081 71.0143 74.3447 64.8803C83.4772 58.7502 90.9088 53.82 90.9404 53.8675V53.8715Z" fill="#DEDFE2"/>
<path d="M94.206 58.766C94.2376 58.8135 86.8573 63.8229 77.7247 69.9491C68.5882 76.0791 61.1606 81.0093 61.129 80.9618C61.0974 80.9143 68.4738 75.9089 77.6103 69.7748C86.7429 63.6447 94.1745 58.7145 94.206 58.7621V58.766Z" fill="#DEDFE2"/>
<path d="M97.4677 63.6645C97.4993 63.712 90.119 68.7214 80.9865 74.8475C71.8499 80.9776 64.4223 85.9078 64.3907 85.8602C64.3592 85.8127 71.7355 80.8073 80.872 74.6733C90.0046 68.5432 97.4362 63.613 97.4677 63.6605V63.6645Z" fill="#DEDFE2"/>
<path d="M100.733 68.5629C100.765 68.6104 93.3847 73.6198 84.2521 79.7459C75.1156 85.876 67.6879 90.8062 67.6564 90.7587C67.6248 90.7112 75.0011 85.7057 84.1376 79.5717C93.2702 73.4416 100.702 68.5114 100.733 68.5589V68.5629Z" fill="#DEDFE2"/>
<path d="M233.354 78.2532L196.164 103.215L232.795 158.159L269.984 133.198L233.354 78.2532Z" fill="white"/>
<path d="M224.429 98.0476C224.461 98.0951 220.739 100.649 216.114 103.75C211.488 106.855 207.715 109.33 207.684 109.282C207.652 109.235 211.374 106.68 215.999 103.576C220.621 100.475 224.398 97.9961 224.429 98.0436V98.0476Z" fill="#DEDFE2"/>
<path d="M238.105 94.602C238.136 94.6495 231.944 98.8629 224.272 104.011C216.6 109.159 210.356 113.293 210.324 113.246C210.293 113.198 216.485 108.989 224.157 103.837C231.826 98.6887 238.073 94.5544 238.105 94.602Z" fill="#DEDFE2"/>
<path d="M240.847 98.7152C240.879 98.7628 234.686 102.976 227.014 108.124C219.342 113.272 213.098 117.406 213.067 117.359C213.035 117.311 219.227 113.102 226.9 107.95C234.568 102.802 240.816 98.6677 240.847 98.7152Z" fill="#DEDFE2"/>
<path d="M243.593 102.829C243.625 102.876 237.432 107.09 229.76 112.234C222.088 117.382 215.844 121.516 215.813 121.468C215.781 121.421 221.973 117.211 229.646 112.059C237.314 106.911 243.562 102.777 243.593 102.825V102.829Z" fill="#DEDFE2"/>
<path d="M246.332 106.942C246.363 106.989 240.171 111.203 232.498 116.351C224.826 121.499 218.582 125.633 218.551 125.585C218.519 125.538 224.712 121.328 232.384 116.177C240.052 111.029 246.3 106.894 246.332 106.942Z" fill="#DEDFE2"/>
<path d="M174.52 36.8236L133.941 15.0469L101.984 74.9997L142.562 96.7764L174.52 36.8236Z" fill="white"/>
<path d="M152.312 38.271C152.281 38.3304 148.164 36.1841 143.12 33.4754C138.073 30.7668 134.012 28.5254 134.043 28.466C134.075 28.4066 138.191 30.553 143.235 33.2616C148.279 35.9702 152.344 38.2116 152.312 38.271Z" fill="#DEDFE2"/>
<path d="M162.053 49.0574C162.021 49.1168 155.209 45.5251 146.842 41.0345C138.471 36.5438 131.711 32.8531 131.742 32.7937C131.774 32.7343 138.586 36.326 146.957 40.8206C155.324 45.3113 162.084 49.002 162.053 49.0614V49.0574Z" fill="#DEDFE2"/>
<path d="M159.662 53.5418C159.631 53.6012 152.819 50.0095 144.452 45.5188C136.081 41.0282 129.32 37.3375 129.352 37.2781C129.383 37.2187 136.195 40.8104 144.566 45.305C152.933 49.7956 159.694 53.4863 159.662 53.5457V53.5418Z" fill="#DEDFE2"/>
<path d="M157.268 58.0301C157.236 58.0895 150.424 54.4978 142.057 50.0071C133.686 45.5165 126.926 41.8258 126.957 41.7664C126.989 41.707 133.801 45.2987 142.172 49.7933C150.538 54.2839 157.299 57.9746 157.268 58.034V58.0301Z" fill="#DEDFE2"/>
<path d="M154.877 62.5145C154.845 62.5739 148.033 58.9821 139.666 54.4915C131.296 50.0009 124.535 46.3101 124.567 46.2507C124.598 46.1913 131.41 49.783 139.781 54.2776C148.148 58.7683 154.908 62.459 154.877 62.5184V62.5145Z" fill="#DEDFE2"/>
<path d="M260.427 160.173C260.427 160.229 209.416 160.276 146.507 160.276C83.5967 160.276 32.5742 160.229 32.5742 160.173C32.5742 160.118 83.573 160.07 146.507 160.07C209.44 160.07 260.427 160.118 260.427 160.173Z" fill="#263238"/>
<path d="M45.1824 135.371C46.5164 135.419 47.7675 136.143 48.6476 137.153C49.5277 138.159 50.0684 139.426 50.4118 140.721C51.0787 143.224 50.6683 146.182 49.9579 148.673C47.2544 147.703 45.5889 144.812 44.8351 143.291C43.6432 140.887 42.9447 135.823 45.1785 135.371" fill="#30A960"/>
<path d="M53.8462 151.705C52.9937 150.477 52.974 148.771 53.6489 147.432C54.3237 146.098 55.6182 145.135 57.043 144.696C57.7021 144.494 58.4677 144.407 59.04 144.791C59.5768 145.151 59.8096 145.856 59.7386 146.497C59.6675 147.139 59.3439 147.729 58.9611 148.248C57.6468 150.034 56.0484 151.519 53.8462 151.701" fill="#30A960"/>
<path d="M54.146 160.074C54.146 160.074 54.0907 159.892 54.0236 159.555C53.9526 159.183 53.8579 158.704 53.7473 158.129C53.5342 156.93 53.1948 155.223 53.4513 153.338C53.696 151.461 54.442 149.853 55.2234 148.895C55.6062 148.412 55.9772 148.067 56.2495 147.857C56.3798 147.746 56.4982 147.679 56.5692 147.624C56.6442 147.572 56.6876 147.548 56.6916 147.556C56.7192 147.588 56.0601 148 55.33 148.978C54.5919 149.94 53.8815 151.516 53.6368 153.366C53.3843 155.215 53.696 156.906 53.8776 158.11C53.9723 158.715 54.0512 159.206 54.0986 159.547C54.142 159.888 54.1617 160.078 54.146 160.078V160.074Z" fill="#263238"/>
<path d="M46.0508 139.184C46.0508 139.184 46.0942 139.251 46.1613 139.39C46.2323 139.544 46.3271 139.746 46.4415 139.992C46.6783 140.518 47.0177 141.282 47.4242 142.229C48.2372 144.126 49.3265 146.763 50.4632 149.697C51.5998 152.636 52.5667 155.321 53.2377 157.269C53.5731 158.243 53.8415 159.035 54.0191 159.586C54.102 159.847 54.1691 160.057 54.2204 160.219C54.2638 160.366 54.2835 160.441 54.2796 160.445C54.2756 160.449 54.2401 160.374 54.1849 160.231C54.1257 160.069 54.0467 159.863 53.952 159.609C53.7468 159.047 53.4626 158.267 53.1153 157.313C52.4089 155.372 51.4222 152.699 50.2895 149.761C49.1529 146.826 48.0873 144.185 47.3058 142.276C46.923 141.338 46.6073 140.57 46.3784 140.015C46.2757 139.762 46.1968 139.556 46.1337 139.398C46.0784 139.255 46.0547 139.18 46.0587 139.176L46.0508 139.184Z" fill="#263238"/>
<path d="M50.9384 154.539C49.3439 151.818 46.3721 149.965 43.2345 149.735C42.4373 149.676 41.4743 149.81 41.1191 150.531C40.7639 151.252 41.2375 152.103 41.7821 152.697C44.0475 155.156 47.8758 156.016 50.966 154.756" fill="#30A960"/>
<path d="M44.4493 151.879C44.4493 151.879 44.6269 151.875 44.9505 151.899C45.1123 151.911 45.3096 151.923 45.5346 151.966C45.7596 152.01 46.0201 152.034 46.3003 152.109C46.5805 152.176 46.8923 152.247 47.2119 152.362C47.5395 152.457 47.875 152.6 48.2262 152.75C48.9208 153.067 49.6628 153.483 50.3653 154.022C51.0639 154.568 51.6519 155.178 52.1334 155.776C52.3623 156.081 52.5834 156.374 52.757 156.671C52.9464 156.956 53.0885 157.241 53.2188 157.498C53.3608 157.752 53.4437 158.001 53.5385 158.211C53.6332 158.421 53.6884 158.611 53.7358 158.766C53.8305 159.074 53.8779 159.245 53.866 159.249C53.8266 159.265 53.6332 158.572 53.1004 157.558C52.9622 157.308 52.8162 157.031 52.6228 156.754C52.4492 156.465 52.2282 156.184 51.9953 155.887C51.5178 155.305 50.9336 154.711 50.2469 154.172C49.5563 153.641 48.834 153.23 48.1512 152.909C47.8079 152.758 47.4764 152.612 47.1567 152.513C46.8449 152.394 46.541 152.319 46.2647 152.24C45.1557 151.958 44.4414 151.919 44.4453 151.879H44.4493Z" fill="#263238"/>
<path d="M223.601 27.7729C222.44 28.0422 221.876 29.3807 221.765 30.5687C221.655 31.7567 221.805 33.0159 221.308 34.101C220.747 35.3246 219.409 36.2235 219.362 37.566C219.334 38.3857 219.82 39.1579 219.796 39.9776C219.757 41.324 218.391 42.3417 218.32 43.6842C218.269 44.6544 218.912 45.581 218.758 46.5393C218.64 47.2838 218.06 47.8699 217.815 48.5867C217.329 50.0083 218.3 51.5765 219.571 52.3764C220.984 53.2674 222.796 53.501 224.386 52.9902C225.977 52.4793 227.318 51.2399 227.954 49.6875C228.656 47.9768 228.502 46.0523 228.348 44.2069C227.875 38.4609 227.52 32.7071 227.287 26.9492" fill="#263238"/>
<path d="M220.232 48.039C220.208 48.0152 220.547 47.9162 220.76 47.4054C220.863 47.1559 220.918 46.8233 220.895 46.4391C220.883 46.0511 220.749 45.6313 220.607 45.1561C220.476 44.6849 220.303 44.1384 220.401 43.5325C220.5 42.9147 220.942 42.4079 221.341 41.9129C221.542 41.6594 221.747 41.3981 221.873 41.1011C222.008 40.808 222.035 40.4675 221.937 40.1507C221.731 39.5052 221.1 39.026 220.812 38.2815C220.67 37.9053 220.666 37.4975 220.749 37.1252C220.828 36.753 220.978 36.4124 221.131 36.0877C221.439 35.4422 221.783 34.8522 221.917 34.2225C222.193 32.9672 222.063 31.7673 222.252 30.7813C222.422 29.7953 222.84 29.0508 223.251 28.6706C223.452 28.4726 223.645 28.3697 223.772 28.2984C223.906 28.239 223.977 28.2152 223.981 28.2192C223.993 28.2429 223.689 28.334 223.306 28.7261C222.927 29.1102 222.544 29.8388 222.394 30.8051C222.315 31.2842 222.304 31.8267 222.284 32.4049C222.264 32.9831 222.244 33.6127 222.098 34.2621C221.96 34.9195 221.613 35.5373 221.313 36.1669C221.017 36.7886 220.745 37.5173 221.005 38.1984C221.258 38.8716 221.893 39.3507 222.13 40.0794C222.248 40.4437 222.209 40.8437 222.055 41.1684C221.909 41.4971 221.696 41.7703 221.491 42.0237C221.076 42.5227 220.666 43.0019 220.571 43.5563C220.472 44.1067 220.626 44.6413 220.749 45.1086C220.879 45.5798 221.009 46.0233 221.013 46.4273C221.025 46.8272 220.958 47.1757 220.835 47.4291C220.717 47.6865 220.551 47.8489 220.433 47.9281C220.311 48.0113 220.236 48.0311 220.236 48.0311L220.232 48.039Z" fill="#375464"/>
<path d="M217.124 57.4297L213.56 67.7336L198.705 68.5335L196.227 74.0657L211.737 75.6417C214.831 76.9248 218.363 75.3527 219.492 72.1926L223.632 60.5977L217.124 57.4337V57.4297Z" fill="#F4C8B7"/>
<path d="M247.853 154.579C247.853 154.579 236.964 119.881 236.735 118.757C236.526 117.739 240.686 92.7713 241.211 86.3086L226.502 86.859V86.966L220.246 87.3144L225.846 158.274H232.615L231.944 134.731C236.12 145.978 242.099 157.434 242.099 157.434L247.853 154.579Z" fill="#F4C8B7"/>
<path d="M232.219 143.167C232.227 142.953 232.136 135.278 232.136 135.278C232.054 135.738 229.54 128.618 229.603 128.182C229.634 127.956 232.219 143.167 232.219 143.167Z" fill="#C87C65"/>
<path d="M229.321 124.812C229.321 124.812 229.29 124.967 229.278 125.244C229.262 125.521 229.258 125.925 229.286 126.42C229.294 126.67 229.321 126.939 229.353 127.232C229.388 127.521 229.428 127.834 229.495 128.155C229.617 128.804 229.807 129.505 230.048 130.222C230.541 131.655 231.082 132.911 231.468 133.825C231.65 134.241 231.808 134.598 231.938 134.899C232.052 135.152 232.124 135.287 232.139 135.279C232.155 135.275 232.112 135.124 232.021 134.863C231.93 134.602 231.792 134.225 231.614 133.762C231.267 132.835 230.75 131.572 230.261 130.147C230.02 129.434 229.831 128.745 229.696 128.111C229.625 127.794 229.578 127.489 229.535 127.204C229.495 126.919 229.46 126.65 229.44 126.404C229.392 125.913 229.373 125.513 229.361 125.24C229.349 124.963 229.333 124.812 229.317 124.812H229.321Z" fill="#C87C65"/>
<path d="M225.721 158.622V157.985L232.651 157.68L232.671 160.309L232.245 160.337C230.342 160.448 222.56 160.772 221.285 160.388C219.864 159.961 225.721 158.618 225.721 158.618V158.622Z" fill="#375464"/>
<path d="M232.764 160.156C232.764 160.156 232.725 160.164 232.646 160.168C232.543 160.176 232.433 160.18 232.307 160.192C231.967 160.208 231.549 160.228 231.052 160.251C229.994 160.295 228.53 160.331 226.912 160.339C225.293 160.346 223.829 160.319 222.771 160.287C222.278 160.267 221.86 160.251 221.516 160.24C221.39 160.232 221.28 160.228 221.177 160.22C221.098 160.216 221.059 160.212 221.059 160.208C221.059 160.208 221.098 160.204 221.177 160.204C221.28 160.204 221.39 160.204 221.516 160.204C221.856 160.208 222.278 160.216 222.771 160.224C223.829 160.24 225.293 160.259 226.912 160.251C228.526 160.243 229.99 160.216 231.052 160.188C231.545 160.176 231.963 160.164 232.307 160.156C232.433 160.156 232.543 160.152 232.646 160.148C232.725 160.148 232.764 160.148 232.764 160.148V160.156Z" fill="#263238"/>
<path d="M223.472 160.376C223.448 160.376 223.425 160.079 223.235 159.778C223.05 159.473 222.793 159.319 222.805 159.299C222.809 159.279 223.105 159.406 223.306 159.734C223.508 160.059 223.492 160.384 223.472 160.38V160.376Z" fill="#263238"/>
<path d="M225.502 159.337C225.502 159.337 225.384 159.23 225.285 159.071C225.183 158.913 225.119 158.774 225.135 158.763C225.155 158.751 225.254 158.869 225.352 159.028C225.455 159.186 225.518 159.325 225.502 159.337Z" fill="#263238"/>
<path d="M226.065 159.035C226.065 159.035 225.939 158.979 225.82 158.872C225.702 158.766 225.615 158.667 225.631 158.647C225.647 158.631 225.757 158.702 225.875 158.809C225.994 158.916 226.081 159.015 226.065 159.035Z" fill="#263238"/>
<path d="M226.414 158.379C226.414 158.403 226.252 158.423 226.054 158.427C225.857 158.427 225.695 158.415 225.695 158.391C225.695 158.368 225.857 158.348 226.054 158.344C226.252 158.344 226.414 158.356 226.414 158.379Z" fill="#263238"/>
<path d="M226.532 157.921C226.54 157.941 226.366 158.02 226.129 158.04C225.896 158.06 225.711 158.008 225.715 157.984C225.715 157.961 225.9 157.972 226.121 157.957C226.342 157.941 226.52 157.897 226.528 157.921H226.532Z" fill="#263238"/>
<path d="M225.269 158.729C225.269 158.729 225.099 158.76 224.827 158.729C224.689 158.713 224.527 158.681 224.353 158.626C224.266 158.594 224.176 158.574 224.081 158.515C224.037 158.487 223.986 158.444 223.97 158.376C223.951 158.309 223.986 158.234 224.037 158.198C224.46 157.976 224.886 158.214 225.044 158.432C225.131 158.543 225.17 158.654 225.19 158.729C225.21 158.804 225.206 158.848 225.202 158.848C225.186 158.852 225.17 158.673 224.997 158.467C224.91 158.368 224.783 158.269 224.618 158.222C224.46 158.174 224.239 158.163 224.089 158.262C224.018 158.313 224.045 158.396 224.124 158.444C224.199 158.491 224.29 158.519 224.373 158.551C224.543 158.606 224.697 158.646 224.831 158.669C225.095 158.717 225.265 158.717 225.265 158.729H225.269Z" fill="#263238"/>
<path d="M225.156 158.754C225.156 158.754 225.085 158.647 225.105 158.445C225.117 158.346 225.152 158.231 225.223 158.12C225.302 158.021 225.401 157.887 225.59 157.891C225.693 157.903 225.744 158.021 225.729 158.097C225.721 158.176 225.685 158.243 225.654 158.295C225.587 158.406 225.515 158.497 225.444 158.564C225.306 158.703 225.196 158.754 225.192 158.746C225.184 158.734 225.279 158.667 225.401 158.524C225.46 158.453 225.527 158.366 225.587 158.255C225.646 158.16 225.689 157.994 225.579 157.974C225.468 157.962 225.354 158.073 225.287 158.164C225.216 158.259 225.18 158.366 225.16 158.453C225.129 158.635 225.168 158.75 225.152 158.754H225.156Z" fill="#263238"/>
<path d="M232.619 158.256C232.619 158.256 232.422 158.237 232.11 158.276C231.802 158.312 231.372 158.439 231.001 158.74C230.63 159.04 230.409 159.433 230.311 159.726C230.208 160.023 230.196 160.221 230.18 160.221C230.176 160.221 230.172 160.169 230.18 160.082C230.188 159.991 230.208 159.864 230.255 159.71C230.346 159.401 230.563 158.989 230.95 158.676C231.337 158.363 231.787 158.241 232.106 158.217C232.268 158.205 232.398 158.213 232.485 158.225C232.572 158.237 232.623 158.252 232.619 158.256Z" fill="#263238"/>
<path d="M229.298 159.602C229.298 159.622 228.852 159.697 228.292 159.697C227.731 159.697 227.281 159.634 227.281 159.61C227.281 159.586 227.735 159.614 228.288 159.61C228.844 159.61 229.294 159.574 229.294 159.598L229.298 159.602Z" fill="#263238"/>
<path d="M230.651 159.588C230.651 159.588 230.615 159.683 230.568 159.786C230.52 159.889 230.497 159.98 230.473 159.98C230.449 159.98 230.437 159.87 230.493 159.751C230.544 159.632 230.635 159.569 230.651 159.584V159.588Z" fill="#263238"/>
<path d="M231.158 158.952C231.158 158.952 231.131 159.039 231.06 159.115C230.989 159.186 230.917 159.233 230.902 159.218C230.886 159.202 230.929 159.13 231 159.055C231.071 158.984 231.142 158.936 231.158 158.952Z" fill="#263238"/>
<path d="M231.883 158.656C231.879 158.679 231.788 158.679 231.685 158.715C231.583 158.751 231.512 158.806 231.492 158.79C231.472 158.778 231.531 158.679 231.658 158.636C231.784 158.592 231.891 158.636 231.883 158.656Z" fill="#263238"/>
<path d="M232.401 158.514C232.408 158.533 232.369 158.569 232.314 158.592C232.259 158.616 232.204 158.616 232.196 158.592C232.188 158.573 232.228 158.537 232.283 158.514C232.338 158.49 232.393 158.49 232.401 158.514Z" fill="#263238"/>
<path d="M241.963 158.007L241.699 157.425L247.899 154.297L248.992 156.689L248.613 156.891C246.924 157.774 239.954 161.266 238.636 161.441C237.164 161.635 241.963 158.003 241.963 158.003V158.007Z" fill="#375464"/>
<path d="M249.019 156.508C249.019 156.508 248.984 156.532 248.917 156.567C248.826 156.615 248.727 156.666 248.617 156.726C248.313 156.88 247.938 157.07 247.496 157.296C246.549 157.771 245.227 158.405 243.755 159.078C242.282 159.747 240.937 160.325 239.954 160.733C239.496 160.919 239.105 161.078 238.79 161.204C238.671 161.252 238.569 161.292 238.47 161.327C238.395 161.355 238.359 161.367 238.355 161.363C238.355 161.363 238.391 161.343 238.462 161.311C238.557 161.272 238.659 161.224 238.774 161.173C239.086 161.038 239.472 160.872 239.926 160.678C240.901 160.258 242.243 159.672 243.715 159.003C245.187 158.333 246.509 157.704 247.464 157.244C247.91 157.031 248.289 156.848 248.597 156.698C248.712 156.643 248.814 156.595 248.905 156.551C248.976 156.52 249.015 156.504 249.015 156.504L249.019 156.508Z" fill="#263238"/>
<path d="M240.632 160.534C240.608 160.546 240.47 160.281 240.17 160.083C239.878 159.881 239.578 159.845 239.582 159.821C239.578 159.801 239.902 159.797 240.217 160.015C240.537 160.229 240.652 160.53 240.632 160.534Z" fill="#263238"/>
<path d="M242.057 158.743C242.057 158.743 241.907 158.695 241.75 158.592C241.592 158.489 241.477 158.39 241.489 158.371C241.501 158.351 241.639 158.418 241.797 158.521C241.955 158.624 242.069 158.723 242.057 158.743Z" fill="#263238"/>
<path d="M242.443 158.246C242.435 158.27 242.309 158.246 242.155 158.199C242.001 158.151 241.887 158.092 241.891 158.072C241.899 158.048 242.025 158.072 242.179 158.119C242.333 158.167 242.447 158.226 242.443 158.246Z" fill="#263238"/>
<path d="M242.499 157.5C242.507 157.52 242.369 157.607 242.191 157.69C242.01 157.774 241.856 157.825 241.848 157.805C241.84 157.785 241.978 157.698 242.156 157.615C242.337 157.532 242.491 157.481 242.499 157.5Z" fill="#263238"/>
<path d="M242.422 157.031C242.422 157.031 242.311 157.194 242.106 157.304C241.901 157.419 241.711 157.447 241.707 157.427C241.699 157.403 241.873 157.34 242.066 157.233C242.264 157.126 242.41 157.015 242.426 157.035L242.422 157.031Z" fill="#263238"/>
<path d="M241.595 158.291C241.595 158.291 241.453 158.39 241.188 158.473C241.058 158.513 240.896 158.552 240.715 158.572C240.624 158.58 240.533 158.596 240.423 158.584C240.371 158.576 240.308 158.556 240.265 158.505C240.221 158.453 240.221 158.37 240.253 158.315C240.549 157.938 241.034 157.982 241.267 158.117C241.393 158.184 241.472 158.267 241.52 158.327C241.567 158.39 241.583 158.429 241.579 158.429C241.567 158.441 241.48 158.283 241.239 158.168C241.121 158.113 240.963 158.077 240.794 158.101C240.632 158.125 240.423 158.204 240.328 158.354C240.284 158.429 240.344 158.497 240.434 158.505C240.521 158.517 240.62 158.505 240.707 158.501C240.884 158.485 241.042 158.453 241.172 158.422C241.433 158.354 241.587 158.287 241.595 158.299V158.291Z" fill="#263238"/>
<path d="M241.502 158.36C241.502 158.36 241.391 158.289 241.328 158.099C241.296 158.004 241.281 157.885 241.304 157.754C241.336 157.632 241.371 157.465 241.549 157.394C241.648 157.362 241.881 157.564 241.896 157.639C241.92 157.715 241.778 157.675 241.774 157.738C241.758 157.865 241.731 157.98 241.695 158.071C241.624 158.253 241.545 158.344 241.537 158.34C241.525 158.333 241.585 158.23 241.64 158.051C241.667 157.96 241.691 157.853 241.699 157.731C241.715 157.62 241.683 157.449 241.573 157.477C241.466 157.513 241.411 157.659 241.383 157.77C241.36 157.885 241.368 157.996 241.387 158.087C241.431 158.265 241.517 158.352 241.506 158.364L241.502 158.36Z" fill="#263238"/>
<path d="M248.111 154.841C248.111 154.841 247.922 154.904 247.654 155.067C247.385 155.225 247.046 155.518 246.829 155.946C246.612 156.373 246.572 156.821 246.6 157.13C246.628 157.443 246.699 157.629 246.683 157.633C246.679 157.633 246.655 157.589 246.624 157.506C246.592 157.423 246.56 157.296 246.537 157.134C246.493 156.817 246.521 156.35 246.75 155.902C246.975 155.459 247.338 155.158 247.618 155.011C247.76 154.936 247.883 154.888 247.969 154.865C248.056 154.841 248.104 154.833 248.108 154.837L248.111 154.841Z" fill="#263238"/>
<path d="M245.628 157.43C245.628 157.43 245.257 157.699 244.748 157.933C244.239 158.166 243.801 158.289 243.793 158.269C243.785 158.245 244.207 158.087 244.713 157.857C245.218 157.628 245.616 157.41 245.628 157.434V157.43Z" fill="#263238"/>
<path d="M246.856 156.864C246.88 156.872 246.86 156.967 246.864 157.082C246.864 157.196 246.88 157.287 246.856 157.299C246.836 157.307 246.777 157.216 246.777 157.082C246.777 156.951 246.833 156.856 246.856 156.864Z" fill="#263238"/>
<path d="M247.059 156.071C247.078 156.079 247.071 156.162 247.035 156.257C247 156.352 246.952 156.423 246.932 156.415C246.913 156.407 246.921 156.324 246.956 156.229C246.992 156.134 247.039 156.063 247.059 156.071Z" fill="#263238"/>
<path d="M247.603 155.506C247.607 155.53 247.524 155.565 247.445 155.64C247.366 155.712 247.323 155.795 247.299 155.787C247.275 155.787 247.291 155.668 247.386 155.577C247.484 155.486 247.595 155.482 247.599 155.502L247.603 155.506Z" fill="#263238"/>
<path d="M248.018 155.165C248.018 155.165 248.014 155.228 247.971 155.275C247.928 155.318 247.88 155.342 247.865 155.326C247.849 155.311 247.869 155.263 247.912 155.216C247.955 155.173 248.002 155.149 248.018 155.165Z" fill="#263238"/>
<path d="M240.254 74.564L239.098 60.4268L245.029 60.5337C245.029 60.5337 245.306 58.4507 244.429 53.8769C243.893 51.0732 242.034 49.3546 239.946 48.3329V48.2973L239.765 48.2498C237.108 47.0024 234.33 46.8281 234.33 46.8281L227.048 46.9113C227.048 46.9113 221.488 46.2143 218.409 50.1941C217.225 51.7266 213.555 62.2167 213.555 62.2167L222.293 66.438L221.46 60.6208C221.46 60.6208 221.626 64.8382 222.162 66.1727C222.462 66.9172 223.327 69.2298 223.327 69.2298L223.212 76.2034L240.246 74.564H240.254Z" fill="#30A960"/>
<path d="M236.242 58.3745L235.16 62.9919H245.354L244.683 55.2461L236.242 58.3745Z" fill="#30A960"/>
<path d="M245.352 62.9922C245.352 62.9605 244.839 62.909 244.003 62.8575C243.166 62.81 242.01 62.7665 240.735 62.7744C239.456 62.7823 238.3 62.8377 237.467 62.9011C236.63 62.9684 236.117 63.0397 236.121 63.0674C236.121 63.0991 236.642 63.0872 237.475 63.0595C238.312 63.0357 239.464 63.0041 240.735 62.9961C242.01 62.9922 243.162 63.008 243.999 63.0159C244.835 63.0239 245.352 63.0239 245.352 62.9922Z" fill="#263238"/>
<path d="M235.8 55.2109C235.768 55.2109 235.756 55.6624 235.764 56.3871C235.772 57.1117 235.8 58.1136 235.839 59.2185C235.882 60.3233 235.934 61.3252 235.981 62.0459C236.029 62.7706 236.076 63.2141 236.107 63.2141C236.139 63.2141 236.151 62.7627 236.143 62.038C236.135 61.3133 236.107 60.3114 236.068 59.2066C236.025 58.1017 235.973 57.1038 235.926 56.3791C235.879 55.6545 235.831 55.2109 235.8 55.2109Z" fill="#263238"/>
<g opacity="0.3">
<path opacity="0.3" d="M226.523 59.2109C226.523 59.2109 228.789 76.0687 235.159 75.6212C235.159 75.6212 238.028 75.5856 238.948 73.6729V72.9205L226.523 59.2109Z" fill="black"/>
</g>
<g opacity="0.3">
<path opacity="0.3" d="M235.798 56.207L234.578 64.4716L235.367 65.9209L236.67 63.0856L236.117 63.0697L235.798 56.207Z" fill="black"/>
</g>
<path d="M223.336 69.2271C223.336 69.2271 223.261 69.0924 223.163 68.8311C223.064 68.5737 222.934 68.1935 222.78 67.7262C222.476 66.7837 222.101 65.469 221.805 63.984C221.513 62.499 221.367 61.1368 221.324 60.1468C221.3 59.6518 221.292 59.2518 221.3 58.9746C221.304 58.6974 221.316 58.543 221.327 58.543C221.359 58.543 221.383 59.1528 221.466 60.1349C221.548 61.117 221.714 62.4673 222.006 63.9404C222.298 65.4136 222.65 66.7283 222.918 67.6787C223.044 68.1182 223.151 68.4944 223.238 68.8033C223.313 69.0686 223.348 69.2191 223.332 69.2231L223.336 69.2271Z" fill="#263238"/>
<path d="M225.907 74.0702C225.852 74.0861 225.694 73.7217 225.556 73.2584C225.414 72.7951 225.347 72.4031 225.402 72.3872C225.457 72.3714 225.615 72.7357 225.753 73.199C225.895 73.6623 225.963 74.0544 225.907 74.0702Z" fill="#263238"/>
<path d="M226.788 74.0064C226.737 74.0183 226.563 73.4757 226.555 72.7748C226.543 72.0739 226.697 71.5235 226.753 71.5353C226.812 71.5472 226.753 72.0937 226.761 72.7709C226.768 73.448 226.847 73.9945 226.788 74.0064Z" fill="#263238"/>
<path d="M222.479 66.6296C222.455 66.6811 220.419 65.7109 217.936 64.4674C215.454 63.224 213.461 62.1706 213.485 62.1191C213.508 62.0677 215.545 63.0379 218.027 64.2813C220.51 65.5247 222.503 66.5781 222.479 66.6296Z" fill="#263238"/>
<path d="M226.064 48.2728C226.111 46.269 226.119 44.1584 226.119 44.1584C226.119 44.1584 223.558 43.6634 223.112 40.2815C222.685 37.0581 223.877 29.4905 223.877 29.4905C227.619 28.0728 231.506 29.3559 234.068 32.3972L233.432 48.6609C233.357 50.5498 231.68 51.9912 229.667 51.8962C227.634 51.8012 226.02 50.1776 226.064 48.2688V48.2728Z" fill="#F4C8B7"/>
<path d="M223.681 35.5418C223.665 35.7715 223.846 35.9695 224.083 35.9893C224.32 36.0091 224.521 35.8388 224.537 35.6131C224.553 35.3834 224.371 35.1854 224.135 35.1656C223.898 35.1458 223.692 35.3161 223.681 35.5418Z" fill="#263238"/>
<path d="M223.523 34.9747C223.574 35.0341 223.906 34.8005 224.371 34.8124C224.833 34.8203 225.169 35.0658 225.22 35.0104C225.244 34.9866 225.192 34.8836 225.05 34.7728C224.908 34.6619 224.663 34.551 224.371 34.5431C224.083 34.5391 223.838 34.6381 223.696 34.7411C223.55 34.848 223.499 34.947 223.527 34.9747H223.523Z" fill="#263238"/>
<path d="M228.38 35.8348C228.364 36.0645 228.546 36.2625 228.782 36.2823C229.019 36.3021 229.22 36.1318 229.236 35.9061C229.252 35.6804 229.071 35.4784 228.834 35.4586C228.597 35.4388 228.392 35.6091 228.38 35.8348Z" fill="#263238"/>
<path d="M228.347 35.2677C228.398 35.3271 228.73 35.0935 229.196 35.1054C229.657 35.1133 229.993 35.3588 230.044 35.3034C230.068 35.2796 230.016 35.1767 229.87 35.0618C229.728 34.9509 229.484 34.8401 229.192 34.8321C228.904 34.8282 228.659 34.9272 228.517 35.0301C228.371 35.1371 228.319 35.2361 228.347 35.2638V35.2677Z" fill="#263238"/>
<path d="M226.581 38.6699C226.581 38.6422 226.297 38.5868 225.831 38.5155C225.713 38.4997 225.602 38.4719 225.583 38.3927C225.559 38.3056 225.61 38.1789 225.669 38.0443C225.788 37.7591 225.91 37.4621 226.04 37.1493C226.557 35.8742 226.936 34.8287 226.885 34.805C226.834 34.7852 226.372 35.7989 225.851 37.0741C225.725 37.3869 225.606 37.6879 225.492 37.973C225.444 38.1076 225.362 38.2581 225.417 38.4363C225.444 38.5274 225.531 38.5907 225.606 38.6145C225.681 38.6383 225.748 38.6422 225.807 38.6462C226.277 38.6818 226.569 38.6937 226.569 38.666L226.581 38.6699Z" fill="#263238"/>
<path d="M226.117 44.1632C226.117 44.1632 228.371 44.3691 230.644 43.0781C230.644 43.0781 229.496 45.363 226.145 44.9591L226.121 44.1632H226.117Z" fill="#C87C65"/>
<path d="M229.832 33.923C229.737 34.0696 229.386 34.0022 228.991 33.931C228.596 33.8518 228.245 33.7805 228.214 33.6102C228.174 33.4478 228.581 33.2221 229.109 33.3211C229.634 33.4201 229.93 33.7805 229.836 33.9191L229.832 33.923Z" fill="#263238"/>
<path d="M225.225 33.245C225.19 33.4152 224.811 33.4746 224.377 33.4984C223.943 33.5142 223.56 33.4905 223.509 33.3242C223.457 33.1658 223.824 32.9044 224.349 32.8806C224.874 32.8569 225.261 33.0826 225.225 33.245Z" fill="#263238"/>
<path d="M226.589 39.78C226.49 39.7523 226.379 39.8077 226.332 39.8988C226.273 40.0057 226.3 40.1483 226.391 40.2275C226.482 40.3067 226.632 40.3067 226.727 40.2314C226.821 40.1562 226.853 40.0097 226.798 39.9028C226.742 39.7958 226.608 39.7364 226.49 39.7721" fill="#C87C65"/>
<path d="M226.694 39.829C226.714 39.8092 226.619 39.6944 226.418 39.7419C226.323 39.7617 226.201 39.8448 226.165 39.9914C226.13 40.126 226.165 40.3002 226.303 40.4111C226.453 40.5141 226.631 40.4943 226.745 40.4111C226.872 40.328 226.907 40.1775 226.887 40.0825C226.848 39.8726 226.694 39.8409 226.69 39.8686C226.674 39.8963 226.745 39.9676 226.73 40.0904C226.722 40.1498 226.694 40.2092 226.635 40.2369C226.58 40.2686 226.485 40.2686 226.434 40.229C226.378 40.1894 226.351 40.1023 226.363 40.0389C226.37 39.9716 226.414 39.924 226.469 39.8924C226.58 39.829 226.674 39.8607 226.69 39.833L226.694 39.829Z" fill="#263238"/>
<path d="M232.517 36.376C232.118 37.3026 231.143 38.0194 231.277 39.0213C231.364 39.6667 231.779 40.2726 231.7 40.9181C231.597 41.7299 230.756 42.2962 230.638 43.108C230.492 44.1019 231.455 44.8741 231.842 45.8047C232.402 47.1551 231.684 48.6757 231.668 50.1409C231.64 52.3823 233.543 54.4771 235.769 54.6633C236.668 54.7385 237.683 54.4653 238.152 53.6891C238.539 53.0476 238.46 52.2358 238.693 51.523C239.036 50.4617 240.043 49.6895 240.256 48.5926C240.643 46.5967 238.239 44.9494 238.397 42.9219C238.464 42.0546 238.997 41.3022 239.222 40.4627C239.518 39.3658 239.246 38.1303 238.515 37.2591C237.923 36.5502 237.063 36.0869 236.558 35.3147C235.986 34.4395 235.966 33.3268 235.749 32.3011C235.224 29.8024 233.353 27.6323 230.966 26.7492C228.578 25.8661 225.748 26.2978 223.731 27.8541C223.731 27.8541 223.159 30.4637 225.827 30.8993C228.499 31.3349 229.734 30.832 230.034 31.9051C230.034 31.9051 229.73 33.1605 230.835 34.3564C231.94 35.5563 232.978 35.3028 232.513 36.3799L232.517 36.376Z" fill="#263238"/>
<path d="M236.78 54.4787C236.78 54.4787 236.698 54.4787 236.536 54.455C236.378 54.4312 236.145 54.3758 235.857 54.2728C235.289 54.0629 234.48 53.6075 233.793 52.7363C233.449 52.3047 233.13 51.782 232.913 51.1682C232.692 50.5583 232.565 49.8653 232.554 49.1367C232.538 48.4081 232.64 47.6398 232.838 46.8755C232.936 46.4914 233.067 46.1113 233.217 45.7311C233.363 45.3509 233.544 44.9827 233.651 44.5946C233.761 44.2065 233.749 43.8105 233.651 43.4343C233.548 43.0581 233.371 42.7017 233.201 42.3493C233.027 41.9968 232.854 41.6483 232.739 41.2761C232.625 40.9078 232.581 40.5079 232.656 40.1396C232.814 39.3951 233.264 38.8407 233.532 38.2744C233.813 37.7121 233.903 37.1221 233.891 36.5875C233.844 35.5103 233.386 34.7104 233.011 34.2511C232.621 33.7917 232.325 33.6135 232.34 33.5977C232.34 33.5977 232.652 33.7442 233.071 34.1996C233.473 34.655 233.966 35.4628 234.034 36.5795C234.057 37.13 233.974 37.7557 233.686 38.3457C233.414 38.9318 232.98 39.4901 232.842 40.1713C232.704 40.8603 233.027 41.5691 233.378 42.2582C233.552 42.6106 233.734 42.9749 233.844 43.3789C233.955 43.7788 233.97 44.2342 233.848 44.6461C233.738 45.0619 233.552 45.4341 233.406 45.8063C233.26 46.1786 233.13 46.5548 233.031 46.927C232.834 47.6755 232.731 48.4239 232.743 49.1327C232.747 50.5583 233.236 51.8097 233.903 52.6453C234.558 53.5046 235.332 53.9679 235.885 54.1936C236.445 54.4193 236.784 54.455 236.776 54.4787H236.78Z" fill="#375464"/>
<path d="M236.383 34.4937C236.383 34.4937 236.178 34.5452 235.795 34.5808C235.416 34.6125 234.856 34.656 234.169 34.5372C233.502 34.4145 232.653 34.0858 232.117 33.2898C231.852 32.8899 231.75 32.4068 231.58 31.9593C231.418 31.5078 231.106 31.1158 230.68 30.8465C229.816 30.2961 228.802 30.2288 227.914 30.1218C227.022 30.0189 226.181 29.8288 225.613 29.4011C225.04 28.9932 224.748 28.4626 224.669 28.0785C224.626 27.8884 224.63 27.734 224.638 27.631C224.654 27.528 224.661 27.4766 224.669 27.4766C224.693 27.4766 224.642 27.6944 224.744 28.0547C224.839 28.4111 225.135 28.9022 225.692 29.2784C226.24 29.6664 227.041 29.8367 227.929 29.9278C228.809 30.0268 229.863 30.0822 230.787 30.6683C231.245 30.9534 231.596 31.4009 231.762 31.8801C231.939 32.3513 232.034 32.8146 232.271 33.179C232.752 33.9155 233.549 34.2521 234.189 34.3868C234.848 34.5214 235.404 34.5016 235.783 34.4937C236.162 34.4818 236.375 34.4699 236.375 34.4858L236.383 34.4937Z" fill="#375464"/>
<path d="M235.404 31.27C235.404 31.27 235.246 31.3294 234.942 31.3373C234.642 31.3452 234.192 31.2937 233.695 31.0561C233.447 30.9373 233.194 30.771 232.961 30.5453C232.724 30.3196 232.531 30.0305 232.349 29.7256C231.994 29.1236 231.651 28.3792 230.913 28.0742C230.191 27.7614 229.393 27.8327 228.703 27.8802C228.004 27.9475 227.349 27.9713 226.816 27.8644C226.279 27.7693 225.877 27.5476 225.652 27.3416C225.537 27.2387 225.462 27.1476 225.419 27.0803C225.376 27.013 225.356 26.9773 225.36 26.9734C225.376 26.9615 225.47 27.1001 225.703 27.2783C225.932 27.4565 226.323 27.6466 226.84 27.7218C227.361 27.805 227.984 27.7733 228.687 27.6941C229.382 27.6386 230.202 27.5515 230.996 27.8881C231.39 28.0544 231.71 28.3514 231.939 28.6722C232.172 28.993 232.338 29.3296 232.515 29.6305C232.689 29.9354 232.866 30.2126 233.083 30.4265C233.297 30.6443 233.529 30.8106 233.762 30.9294C234.224 31.171 234.654 31.2462 234.946 31.262C235.238 31.2779 235.404 31.2581 235.408 31.2739L235.404 31.27Z" fill="#375464"/>
<path d="M237.955 53.6202C237.936 53.6123 238.062 53.3549 238.208 52.8678C238.354 52.3807 238.496 51.6521 238.472 50.7452C238.441 49.8463 238.228 48.7573 237.632 47.7198C237.344 47.201 236.905 46.7377 236.546 46.1714C236.369 45.8863 236.215 45.5695 236.148 45.2171C236.081 44.8646 236.12 44.4884 236.235 44.1479C236.456 43.4628 236.854 42.8886 236.937 42.259C237.044 41.6293 236.724 41.0551 236.424 40.5403C236.27 40.279 236.12 40.0216 236.002 39.7523C235.883 39.483 235.808 39.1979 235.777 38.9246C235.718 38.3742 235.781 37.8673 235.82 37.4159C235.935 36.513 235.852 35.7685 235.635 35.3131C235.425 34.8498 235.149 34.7112 235.169 34.6914C235.169 34.6914 235.189 34.6954 235.216 34.7152C235.244 34.735 235.291 34.7587 235.343 34.8062C235.449 34.8934 235.587 35.0438 235.706 35.2775C235.954 35.7408 236.061 36.517 235.966 37.4278C235.935 37.8832 235.879 38.3821 235.946 38.9048C235.998 39.4315 236.27 39.9265 236.586 40.4413C236.74 40.7027 236.902 40.9759 237.016 41.2848C237.134 41.5897 237.186 41.9422 237.134 42.2827C237.04 42.9757 236.633 43.5618 236.428 44.2033C236.321 44.5241 236.29 44.8567 236.345 45.1735C236.404 45.4903 236.542 45.7873 236.712 46.0606C237.052 46.607 237.494 47.0783 237.79 47.6208C238.393 48.694 238.599 49.8146 238.614 50.7373C238.622 51.664 238.453 52.4045 238.283 52.8876C238.196 53.1292 238.121 53.3153 238.054 53.4341C237.995 53.5568 237.959 53.6162 237.955 53.6162V53.6202Z" fill="#375464"/>
<path d="M221.88 127.407C221.88 127.407 219.224 102.127 219.07 92.7851C218.916 83.4435 223.258 74.2246 223.258 74.2246L240.26 73.5039C240.26 73.5039 243.623 82.9841 243.682 86.9639C243.8 94.7018 241.634 102.341 241.882 108.479L242.45 127.407" fill="#263238"/>
<path d="M243.019 96.3283C243.019 96.3283 242.924 96.4075 242.743 96.5382C242.695 96.5738 242.644 96.6095 242.589 96.6491C242.538 96.6926 242.482 96.752 242.423 96.8075C242.305 96.9223 242.163 97.053 242.044 97.2312C241.496 97.9044 241.093 99.1122 240.714 100.617C240.505 101.365 240.292 102.201 239.854 103.021C239.735 103.219 239.629 103.433 239.475 103.619C239.4 103.714 239.333 103.817 239.254 103.908L238.993 104.169C238.638 104.522 238.188 104.783 237.715 104.993C236.764 105.413 235.69 105.611 234.707 106.106C233.721 106.589 232.979 107.523 232.525 108.6C232.047 109.674 231.755 110.798 231.357 111.852C230.966 112.897 230.429 113.911 229.581 114.552C228.74 115.218 227.698 115.368 226.798 115.427C225.883 115.483 225.034 115.455 224.276 115.57C223.519 115.677 222.848 115.914 222.374 116.291C221.897 116.667 221.62 117.138 221.49 117.542C221.356 117.95 221.38 118.294 221.423 118.512C221.466 118.734 221.529 118.841 221.514 118.845C221.514 118.845 221.439 118.746 221.379 118.52C221.32 118.298 221.281 117.942 221.411 117.514C221.533 117.091 221.81 116.6 222.299 116.2C222.788 115.8 223.479 115.542 224.253 115.423C225.026 115.297 225.883 115.317 226.786 115.253C227.678 115.19 228.673 115.031 229.466 114.398C230.267 113.788 230.784 112.81 231.167 111.776C231.558 110.735 231.85 109.61 232.335 108.513C232.793 107.416 233.579 106.422 234.613 105.923C235.635 105.417 236.708 105.222 237.636 104.819C238.098 104.617 238.528 104.367 238.867 104.038L239.12 103.789C239.199 103.702 239.262 103.603 239.333 103.516C239.483 103.338 239.586 103.132 239.7 102.942C240.134 102.15 240.351 101.322 240.572 100.577C240.971 99.0805 241.397 97.8569 241.981 97.1837C242.107 97.0055 242.257 96.8748 242.38 96.7639C242.443 96.7085 242.498 96.653 242.553 96.6095L242.715 96.5065C242.909 96.3837 243.011 96.3244 243.015 96.3283H243.019Z" fill="#FAFAFA"/>
<path d="M243.12 84.6289C243.12 84.6289 243.136 84.7437 243.143 84.9695C243.143 85.1912 243.12 85.5239 243.025 85.9357C242.828 86.7594 242.228 87.892 241.103 88.9176C240.547 89.4324 239.88 89.9274 239.11 90.3788C238.348 90.8342 237.508 91.2659 236.647 91.7529C235.791 92.244 234.903 92.7944 234.125 93.531C233.336 94.2557 232.748 95.21 232.215 96.2238C231.678 97.2336 231.205 98.2592 230.561 99.1502C230.242 99.5938 229.883 100.002 229.484 100.346C229.081 100.691 228.643 100.972 228.201 101.205C227.309 101.669 226.402 101.958 225.561 102.223C224.716 102.485 223.931 102.718 223.24 103.007C222.55 103.292 221.954 103.617 221.472 103.958C220.991 104.302 220.624 104.659 220.363 104.983C219.838 105.637 219.728 106.108 219.696 106.096C219.688 106.096 219.728 105.985 219.807 105.775C219.898 105.573 220.04 105.272 220.3 104.936C220.557 104.599 220.92 104.223 221.405 103.867C221.891 103.51 222.491 103.174 223.185 102.877C223.88 102.576 224.669 102.334 225.51 102.065C226.346 101.796 227.246 101.502 228.115 101.043C228.549 100.813 228.971 100.54 229.358 100.204C229.741 99.867 230.092 99.471 230.4 99.0394C231.027 98.1682 231.497 97.1504 232.038 96.1327C232.57 95.1189 233.178 94.1369 233.991 93.3924C234.788 92.64 235.692 92.0856 236.556 91.5945C237.425 91.1075 238.265 90.6838 239.027 90.2402C239.789 89.8046 240.452 89.3215 241.008 88.8225C242.125 87.8286 242.733 86.7317 242.95 85.9278C243.163 85.116 243.092 84.6408 243.124 84.6408L243.12 84.6289Z" fill="#FAFAFA"/>
<path d="M219.153 94.1251C219.153 94.1251 219.137 94.1013 219.117 94.0498C219.102 93.9984 219.066 93.9192 219.042 93.8122C218.995 93.6024 218.964 93.2658 219.082 92.8618C219.303 92.054 220.175 91.0521 221.58 90.5492C222.279 90.3076 223.076 90.1611 223.901 89.9433C224.718 89.7216 225.61 89.4127 226.277 88.7276C226.608 88.387 226.888 87.9871 227.117 87.5436C227.342 87.0961 227.532 86.6169 227.705 86.1219C228.061 85.1359 228.357 84.0627 228.956 83.0846C229.552 82.1025 230.523 81.4174 231.53 81.0769C232.532 80.7086 233.546 80.5423 234.482 80.3245C235.425 80.1186 236.305 79.8532 237.051 79.4454C237.789 79.0256 238.373 78.4672 238.788 77.8732C239.64 76.6852 239.861 75.4695 239.893 74.6656C239.912 73.8499 239.782 73.4024 239.81 73.3984C239.81 73.3984 239.968 73.834 239.976 74.6656C239.968 75.4814 239.766 76.7288 238.91 77.9564C238.492 78.5702 237.896 79.1523 237.138 79.5919C236.372 80.0156 235.472 80.2928 234.529 80.5066C233.586 80.7284 232.58 80.8987 231.605 81.263C230.622 81.6036 229.71 82.249 229.134 83.1915C228.554 84.13 228.258 85.1913 227.899 86.1853C227.721 86.6842 227.528 87.1713 227.295 87.6307C227.054 88.0861 226.762 88.5058 226.411 88.8583C225.704 89.579 224.773 89.8879 223.944 90.1057C223.104 90.3195 222.314 90.4542 221.628 90.6838C220.258 91.1511 219.39 92.1134 219.157 92.8816C219.031 93.2658 219.046 93.5905 219.082 93.8004C219.125 94.0102 219.161 94.1172 219.153 94.1211V94.1251Z" fill="#FAFAFA"/>
<path d="M241.66 115.5C241.66 115.5 241.676 115.583 241.688 115.749C241.695 115.912 241.688 116.157 241.616 116.466C241.478 117.076 241.009 117.912 240.125 118.605C239.69 118.957 239.166 119.278 238.558 119.535C237.954 119.793 237.287 119.999 236.592 120.216C235.898 120.434 235.168 120.664 234.457 120.996C233.743 121.325 233.084 121.804 232.515 122.418C231.939 123.024 231.442 123.685 230.893 124.267C230.345 124.854 229.721 125.337 229.074 125.697C227.776 126.418 226.43 126.663 225.321 126.675C224.204 126.687 223.32 126.453 222.736 126.243C222.444 126.141 222.223 126.038 222.08 125.962C221.934 125.891 221.859 125.848 221.863 125.844C221.863 125.836 221.946 125.867 222.096 125.927C222.246 125.99 222.467 126.081 222.759 126.172C223.343 126.354 224.22 126.564 225.313 126.533C226.402 126.501 227.716 126.243 228.975 125.535C229.603 125.182 230.203 124.711 230.739 124.133C231.28 123.559 231.773 122.897 232.362 122.28C232.938 121.654 233.636 121.151 234.366 120.818C235.097 120.478 235.835 120.252 236.533 120.038C237.232 119.824 237.895 119.626 238.487 119.381C239.079 119.135 239.6 118.826 240.026 118.49C240.898 117.825 241.372 117.033 241.53 116.442C241.684 115.848 241.624 115.5 241.652 115.5H241.66Z" fill="#FAFAFA"/>
<path d="M239.722 63.0082L236.435 63.0874C236.218 64.2002 235.693 64.9605 235.693 64.9605C232.942 60.1729 230.811 53.7577 230.282 51.1797C230.361 50.9223 230.452 50.6372 230.566 50.3204C230.696 49.9521 230.586 49.2552 230.523 48.871C230.432 48.2968 230.27 47.5246 230.223 47.1682C230.077 46.0792 229.903 45.909 229.524 46.0317C229.007 46.198 229.737 49.0928 229.315 49.1522C229.09 49.1878 228.81 48.1939 228.731 47.3821C228.652 46.5703 228.285 44.0676 228.017 43.9012C227.626 43.6557 227.283 44.0438 227.381 44.8516C227.48 45.6714 227.606 48.1147 227.18 48.1464C226.758 48.178 226.402 44.0319 226.402 44.0319C226.402 44.0319 226.47 43.129 225.972 43.1528C225.076 43.1924 225.775 47.5642 225.854 47.9761C225.909 48.2652 225.443 48.3166 225.404 48.0038C225.361 47.683 225.147 43.8577 224.236 43.8894C223.537 43.9131 224.776 47.493 224.386 48.3206C223.995 49.1482 223.723 45.505 223.052 45.5526C222.803 45.5724 222.622 45.6199 223.075 47.683C223.32 48.7918 224.042 50.8312 224.67 52.5182C225.728 58.2404 230.369 76.5475 237.643 73.1934C241.712 71.3203 243.365 63.0082 243.365 63.0082H239.726H239.722Z" fill="#F4C8B7"/>
<path d="M225.69 48.2541C225.69 48.2541 225.722 48.2581 225.785 48.2423C225.84 48.2264 225.951 48.1551 225.935 48.0126C225.927 47.7671 225.888 47.4107 225.832 46.9473C225.789 46.4801 225.651 45.9217 225.651 45.2604C225.647 44.9277 225.651 44.5713 225.674 44.1951C225.686 44.0051 225.69 43.811 225.734 43.6249C225.765 43.4467 225.884 43.2408 226.022 43.2645H226.045C226.188 43.2606 226.294 43.3715 226.341 43.5378C226.393 43.7001 226.405 43.8863 226.393 44.0684V44.0763C226.484 45.0941 226.586 46.2029 226.815 47.3869C226.847 47.5334 226.878 47.6839 226.926 47.8344C226.949 47.9096 226.973 47.9849 227.008 48.0601C227.028 48.0997 227.044 48.1353 227.076 48.1789C227.103 48.2145 227.139 48.2739 227.241 48.2819C227.407 48.27 227.454 48.1433 227.49 48.072C227.525 47.9888 227.549 47.9096 227.565 47.8304C227.6 47.6681 227.616 47.5097 227.628 47.3473C227.672 46.7018 227.648 46.0405 227.6 45.3673C227.585 45.0267 227.502 44.6862 227.561 44.3773C227.589 44.2268 227.652 44.0724 227.754 44.009C227.806 43.9773 227.861 43.9734 227.924 43.9892C227.956 43.9971 227.987 44.013 228.019 44.0288C228.046 44.0526 228.039 44.0407 228.062 44.0882C228.192 44.3733 228.264 44.7416 228.335 45.0822C228.406 45.4346 228.465 45.791 228.52 46.1514C228.575 46.5117 228.627 46.88 228.67 47.2443C228.706 47.6126 228.757 47.9967 228.852 48.369C228.899 48.5551 228.95 48.7412 229.029 48.9273C229.069 49.0184 229.112 49.1135 229.191 49.2085C229.219 49.2481 229.313 49.3233 229.428 49.2956C229.538 49.26 229.57 49.1689 229.59 49.1174C229.653 48.8877 229.633 48.7016 229.633 48.4997C229.625 48.3017 229.609 48.1076 229.594 47.9136C229.566 47.5809 229.534 47.2483 229.523 46.9236C229.519 46.7612 229.519 46.5989 229.534 46.4484C229.542 46.3731 229.558 46.2979 229.582 46.2425C229.594 46.2147 229.609 46.1949 229.621 46.1831C229.629 46.1751 229.633 46.1831 229.637 46.1712L229.688 46.1553C229.949 46.0484 230.036 46.4127 230.107 46.7058C230.166 47.0147 230.205 47.3315 230.268 47.6443C230.371 48.27 230.505 48.8877 230.576 49.4817C230.604 49.7787 230.628 50.0837 230.541 50.3331C230.446 50.6183 230.355 50.9034 230.264 51.1845L230.257 51.2083L230.264 51.236C230.746 53.3665 231.413 55.2713 232.029 56.9622C232.652 58.6531 233.28 60.1104 233.828 61.3063C234.377 62.5022 234.87 63.4209 235.214 64.0506C235.387 64.3476 235.521 64.5852 235.624 64.7594C235.719 64.9178 235.77 65.001 235.778 64.997C235.782 64.997 235.742 64.9059 235.656 64.7396C235.561 64.5614 235.435 64.3199 235.277 64.0149C234.957 63.3774 234.483 62.4507 233.951 61.2509C233.418 60.051 232.81 58.5897 232.198 56.8988C231.595 55.2079 230.939 53.2992 230.474 51.1925V51.2439C230.56 50.9667 230.655 50.6895 230.746 50.4044C230.853 50.0797 230.821 49.7669 230.793 49.458C230.722 48.8402 230.592 48.2383 230.489 47.6087C230.43 47.2998 230.391 46.979 230.328 46.6583C230.292 46.4959 230.257 46.3335 230.166 46.1672C230.122 46.088 230.055 45.9969 229.949 45.9455C229.838 45.8979 229.728 45.9098 229.637 45.9336L229.57 45.9534C229.538 45.9653 229.503 45.9811 229.479 46.0049C229.428 46.0484 229.4 46.0999 229.38 46.1474C229.337 46.2425 229.325 46.3296 229.313 46.4167C229.294 46.5909 229.294 46.7612 229.301 46.9275C229.313 47.2641 229.345 47.5968 229.373 47.9294C229.388 48.1235 229.404 48.3135 229.412 48.5036C229.42 48.6897 229.424 48.8917 229.384 49.0343C229.376 49.0739 229.357 49.0699 229.376 49.0897C229.376 49.0897 229.376 49.1135 229.376 49.1055V49.0897C229.376 49.0897 229.388 49.0739 229.38 49.0699C229.38 49.0699 229.369 49.062 229.357 49.0461C229.313 48.9947 229.27 48.9155 229.234 48.8323C229.163 48.666 229.112 48.4878 229.069 48.3056C228.978 47.9413 228.927 47.5809 228.891 47.2087C228.848 46.8365 228.796 46.4682 228.737 46.1039C228.682 45.7395 228.619 45.3792 228.548 45.0267C228.465 44.6703 228.413 44.3258 228.248 43.9694C228.236 43.9338 228.169 43.8546 228.125 43.8308C228.082 43.8031 228.031 43.7833 227.979 43.7675C227.873 43.7397 227.743 43.7516 227.644 43.815C227.447 43.9457 227.387 44.1516 227.352 44.3298C227.32 44.5159 227.324 44.6981 227.344 44.8723C227.364 45.0426 227.379 45.2089 227.391 45.3752C227.443 46.0405 227.466 46.6979 227.427 47.3275C227.415 47.4819 227.399 47.6403 227.372 47.7869C227.356 47.8621 227.336 47.9294 227.312 47.9928C227.301 48.0245 227.285 48.0522 227.269 48.068C227.253 48.0997 227.241 48.0601 227.245 48.1155C227.265 48.0759 227.245 48.0957 227.229 48.0641C227.214 48.0443 227.198 48.0086 227.182 47.9809C227.154 47.9175 227.131 47.8463 227.107 47.7789C227.064 47.6403 227.028 47.4938 226.997 47.3473C226.764 46.1831 226.653 45.0703 226.551 44.0684V44.0803C226.559 43.8783 226.547 43.6843 226.488 43.4903C226.456 43.3952 226.413 43.3002 226.334 43.2249C226.255 43.1497 226.144 43.1141 226.042 43.118H226.065C225.907 43.0903 225.789 43.1893 225.726 43.2843C225.659 43.3833 225.627 43.4903 225.603 43.5932C225.56 43.7991 225.56 43.9971 225.552 44.1872C225.536 44.5674 225.536 44.9277 225.544 45.2604C225.556 45.9375 225.71 46.4959 225.761 46.9553C225.828 47.4146 225.88 47.771 225.903 48.0126C225.927 48.1274 225.836 48.1987 225.789 48.2185C225.734 48.2423 225.702 48.2462 225.702 48.2502L225.69 48.2541Z" fill="#C87C65"/>
<path d="M199.988 68.461C199.988 68.461 198.895 68.4095 197.703 68.7224C195.666 69.2609 192.146 71.3993 192 74.0446H194.553C194.553 74.0446 193.121 77.1017 193.543 76.8166C194.632 76.084 196.807 73.8664 196.807 73.8664L199.988 68.457V68.461Z" fill="#F4C8B7"/>
<path d="M234.85 22.4491C234.795 22.4531 234.562 20.3345 234.333 17.7129C234.104 15.0914 233.962 12.9649 234.021 12.9609C234.077 12.957 234.309 15.0756 234.538 17.6971C234.767 20.3186 234.909 22.4451 234.85 22.4491Z" fill="#263238"/>
<path d="M246.062 13.0901C246.109 13.1218 244.381 15.6364 242.206 18.7054C240.032 21.7744 238.228 24.2336 238.181 24.2019C238.133 24.1702 239.862 21.6556 242.037 18.5866C244.211 15.5176 246.015 13.0585 246.058 13.0901H246.062Z" fill="#263238"/>
<path d="M250.722 24.4898C250.733 24.5453 248.717 25.0086 246.222 25.5234C243.724 26.0382 241.692 26.4104 241.68 26.355C241.668 26.2996 243.685 25.8362 246.179 25.3214C248.677 24.8066 250.71 24.4344 250.722 24.4898Z" fill="#263238"/>
<path d="M116.49 78.8784L102.534 150.871L100.707 160.296L193.872 159.837C198.052 159.817 201.757 156.091 203.103 150.558L219.624 82.589C220.646 78.3874 218.405 74.0195 215.231 74.0195L120.938 74.1185C118.854 74.1185 117.034 76.0708 116.49 78.8784Z" fill="#42667A"/>
<g opacity="0.2">
<path opacity="0.5" d="M116.49 78.8784L102.534 150.871L100.707 160.296L193.872 159.837C198.052 159.817 201.757 156.091 203.103 150.558L219.624 82.589C220.646 78.3874 218.405 74.0195 215.231 74.0195L120.938 74.1185C118.854 74.1185 117.034 76.0708 116.49 78.8784Z" fill="black"/>
</g>
<path d="M184.937 145.996L175.075 66.2375C174.672 62.9705 172.075 60.5311 169.013 60.543L147.381 60.6143C145.779 60.6182 144.243 61.3033 143.107 62.5151L132.838 73.4685L72.6785 73.7852C69.0041 73.805 66.1783 77.2938 66.6638 81.2182L75.824 154.934C76.2305 158.197 78.8195 160.632 81.8782 160.624L186.721 160.418C198.4 160.66 199.513 157.203 199.513 157.203C186.129 160.177 184.937 146.008 184.937 146V145.996Z" fill="#6598B4"/>
</svg>
