<svg width="343" height="180" viewBox="0 0 343 180" fill="none" xmlns="http://www.w3.org/2000/svg">
<defs>
<clipPath id="clip0_312_284474">
<rect width="343" height="180" rx="12" fill="white"/>
</clipPath>
</defs>
<g clip-path="url(#clip0_312_284474)">
<rect width="343" height="180" rx="12" fill="#FFDAD6"/>
<rect x="52" y="24" width="240" height="178" rx="12" fill="white"/>
<rect x="62" y="27" width="122" height="27" fill="white"/>
<rect x="62" y="50" width="25" height="53" fill="white"/>
<rect x="99" y="64" width="94" height="30" fill="#F5F7F9"/>
<path d="M62.2119 46.0947H64.2148C64.224 46.4958 64.347 46.8171 64.584 47.0586C64.8255 47.3001 65.14 47.4209 65.5273 47.4209C65.9603 47.4209 66.2884 47.291 66.5117 47.0312C66.7396 46.7715 66.8535 46.3932 66.8535 45.8965V39.1357H68.918V45.9102C68.918 46.9538 68.6217 47.765 68.0293 48.3438C67.4368 48.918 66.6097 49.2051 65.5479 49.2051C64.5407 49.2051 63.7318 48.9225 63.1211 48.3574C62.515 47.7923 62.2119 47.0381 62.2119 46.0947ZM77.2373 41.6719V49H75.3096V47.6807H75.2686C74.8857 48.6514 74.1543 49.1367 73.0742 49.1367C72.2721 49.1367 71.6318 48.8929 71.1533 48.4053C70.6748 47.9131 70.4355 47.2432 70.4355 46.3955V41.6719H72.4316V45.9785C72.4316 46.4661 72.5479 46.8376 72.7803 47.0928C73.0173 47.348 73.3568 47.4756 73.7988 47.4756C74.2409 47.4756 74.5918 47.3298 74.8516 47.0381C75.1113 46.7464 75.2412 46.3568 75.2412 45.8691V41.6719H77.2373ZM78.5361 49V41.6719H80.4639V42.9775H80.5049C80.7054 42.5127 80.9971 42.1572 81.3799 41.9111C81.7673 41.6605 82.2389 41.5352 82.7949 41.5352C83.6061 41.5352 84.2327 41.7767 84.6748 42.2598C85.1169 42.7428 85.3379 43.415 85.3379 44.2764V49H83.3418V44.6934C83.3418 44.2103 83.2279 43.8389 83 43.5791C82.7721 43.3193 82.4372 43.1895 81.9951 43.1895C81.5531 43.1895 81.1976 43.3376 80.9287 43.6338C80.6644 43.93 80.5322 44.3174 80.5322 44.7959V49H78.5361ZM89.8906 42.9912C89.4577 42.9912 89.0954 43.1393 88.8037 43.4355C88.5166 43.7318 88.3548 44.11 88.3184 44.5703H91.4287C91.4059 44.1009 91.2533 43.7204 90.9707 43.4287C90.6927 43.137 90.3327 42.9912 89.8906 42.9912ZM91.4561 46.7578H93.2881C93.1787 47.4779 92.8187 48.0589 92.208 48.501C91.6019 48.9385 90.8477 49.1572 89.9453 49.1572C88.8197 49.1572 87.9355 48.82 87.293 48.1455C86.6549 47.471 86.3359 46.5459 86.3359 45.3701C86.3359 44.1989 86.6549 43.2646 87.293 42.5674C87.931 41.8656 88.79 41.5146 89.8701 41.5146C90.932 41.5146 91.7773 41.8473 92.4062 42.5127C93.0352 43.1781 93.3496 44.069 93.3496 45.1855V45.7939H88.2979V45.917C88.2979 46.4411 88.4505 46.8672 88.7559 47.1953C89.0658 47.5189 89.4736 47.6807 89.9795 47.6807C90.3441 47.6807 90.6585 47.5986 90.9229 47.4346C91.1872 47.266 91.3649 47.0404 91.4561 46.7578Z" fill="black"/>
<path d="M70.0117 67V62.1602H71.7812V61.3633H67.3633V62.1602H69.1367V67H70.0117ZM75.8203 62.7461H74.9805V65.2344C74.9805 65.9023 74.6094 66.3047 73.9297 66.3047C73.3125 66.3047 73.0352 65.9766 73.0352 65.2891V62.7461H72.1953V65.5078C72.1953 66.5078 72.7188 67.082 73.6602 67.082C74.3047 67.082 74.7383 66.8086 74.9453 66.3242H75.0117V67H75.8203V62.7461ZM78.7852 63.3789C79.4062 63.3789 79.8125 63.8125 79.832 64.4805H77.6836C77.7305 63.8164 78.1641 63.3789 78.7852 63.3789ZM79.8281 65.8516C79.6719 66.1836 79.3242 66.3672 78.8164 66.3672C78.1445 66.3672 77.7109 65.8945 77.6836 65.1484V65.1016H80.6875V64.8086C80.6875 63.4727 79.9727 62.6641 78.7891 62.6641C77.5898 62.6641 76.8281 63.5273 76.8281 64.8867C76.8281 66.2461 77.5742 67.082 78.793 67.082C79.7656 67.082 80.4453 66.6133 80.6367 65.8516H79.8281Z" fill="black"/>
<rect x="93" y="60" width="189" height="39" rx="4" fill="#F5F7F9"/>
<path d="M104.876 75H103.782V68.6587H104.767L107.878 72.9697H107.953V68.6587H109.042V75H108.062L104.951 70.6846H104.876V75ZM112.214 70.9614C111.889 70.9614 111.621 71.0684 111.41 71.2822C111.199 71.4961 111.082 71.7788 111.058 72.1304H113.322C113.31 71.7729 113.204 71.4888 113.005 71.2778C112.806 71.0669 112.542 70.9614 112.214 70.9614ZM113.33 73.6772H114.363C114.261 74.1167 114.019 74.4639 113.638 74.7188C113.26 74.9707 112.79 75.0967 112.227 75.0967C111.521 75.0967 110.966 74.877 110.562 74.4375C110.16 73.9951 109.96 73.3872 109.96 72.6138C109.96 71.8403 110.162 71.228 110.566 70.7769C110.971 70.3228 111.521 70.0957 112.219 70.0957C112.904 70.0957 113.44 70.311 113.827 70.7417C114.217 71.1694 114.411 71.7627 114.411 72.5215V72.873H111.054V72.9302C111.069 73.3315 111.183 73.6494 111.397 73.8838C111.614 74.1152 111.901 74.231 112.258 74.231C112.809 74.231 113.166 74.0464 113.33 73.6772ZM121.582 70.1924L120.281 75H119.134L118.198 71.5371H118.124L117.192 75H116.058L114.757 70.1924H115.856L116.656 73.7827H116.731L117.653 70.1924H118.695L119.627 73.7827H119.701L120.497 70.1924H121.582ZM124.687 75V71.0933H123.9V70.2231H124.687V69.7178C124.687 69.2373 124.813 68.8784 125.065 68.6411C125.32 68.4038 125.712 68.2852 126.242 68.2852C126.462 68.2852 126.664 68.3013 126.849 68.3335V69.1333C126.752 69.1187 126.628 69.1113 126.475 69.1113C126.223 69.1113 126.04 69.167 125.926 69.2783C125.815 69.3867 125.759 69.5566 125.759 69.7881V70.2231H126.805V71.0933H125.772V75H124.687ZM129.401 70.9614C129.076 70.9614 128.808 71.0684 128.597 71.2822C128.386 71.4961 128.269 71.7788 128.245 72.1304H130.508C130.497 71.7729 130.391 71.4888 130.192 71.2778C129.993 71.0669 129.729 70.9614 129.401 70.9614ZM130.517 73.6772H131.55C131.447 74.1167 131.206 74.4639 130.825 74.7188C130.447 74.9707 129.977 75.0967 129.414 75.0967C128.708 75.0967 128.153 74.877 127.749 74.4375C127.347 73.9951 127.146 73.3872 127.146 72.6138C127.146 71.8403 127.349 71.228 127.753 70.7769C128.157 70.3228 128.708 70.0957 129.405 70.0957C130.091 70.0957 130.627 70.311 131.014 70.7417C131.403 71.1694 131.598 71.7627 131.598 72.5215V72.873H128.241V72.9302C128.255 73.3315 128.37 73.6494 128.583 73.8838C128.8 74.1152 129.087 74.231 129.445 74.231C129.996 74.231 130.353 74.0464 130.517 73.6772ZM134.036 74.2222C134.364 74.2222 134.638 74.1284 134.858 73.9409C135.077 73.7505 135.187 73.5161 135.187 73.2378V72.8555L134.102 72.9258C133.504 72.9639 133.205 73.1807 133.205 73.5762C133.205 73.7754 133.282 73.9336 133.434 74.0508C133.589 74.165 133.79 74.2222 134.036 74.2222ZM133.715 75.0791C133.246 75.0791 132.864 74.9473 132.568 74.6836C132.272 74.4199 132.124 74.0713 132.124 73.6377C132.124 73.2041 132.281 72.8643 132.595 72.6182C132.911 72.3721 133.362 72.2314 133.948 72.1963L135.187 72.1216V71.7173C135.187 71.48 135.11 71.2983 134.954 71.1724C134.799 71.0464 134.575 70.9834 134.282 70.9834C134.03 70.9834 133.822 71.0273 133.658 71.1152C133.494 71.2002 133.387 71.3232 133.337 71.4844H132.309C132.353 71.0596 132.558 70.7227 132.924 70.4736C133.293 70.2217 133.763 70.0957 134.335 70.0957C134.95 70.0957 135.425 70.2378 135.759 70.522C136.096 70.8062 136.264 71.2046 136.264 71.7173V75H135.214V74.3408H135.139C135.004 74.5723 134.811 74.7539 134.559 74.8857C134.31 75.0146 134.029 75.0791 133.715 75.0791ZM137.625 69.0146H138.711V70.2231H139.739V71.0933H138.711V73.4531C138.711 73.6904 138.763 73.8647 138.869 73.9761C138.974 74.0845 139.141 74.1387 139.37 74.1387C139.469 74.1387 139.592 74.1313 139.739 74.1167V74.9692C139.557 75.0044 139.367 75.022 139.168 75.022C138.617 75.022 138.221 74.9209 137.981 74.7188C137.744 74.5166 137.625 74.1826 137.625 73.7168V71.0933H136.865V70.2231H137.625V69.0146ZM144.712 70.1924V75H143.662V74.2354H143.587C143.344 74.8096 142.865 75.0967 142.15 75.0967C141.626 75.0967 141.217 74.9414 140.924 74.6309C140.631 74.3174 140.485 73.8794 140.485 73.3169V70.1924H141.575V73.0444C141.575 73.4136 141.652 73.689 141.808 73.8706C141.963 74.0493 142.203 74.1387 142.528 74.1387C142.88 74.1387 143.149 74.0376 143.337 73.8354C143.527 73.6333 143.622 73.3521 143.622 72.9917V70.1924H144.712ZM145.748 75V70.1924H146.799V70.9395H146.873C146.941 70.6992 147.092 70.5015 147.326 70.3462C147.563 70.1909 147.836 70.1133 148.143 70.1133C148.34 70.1133 148.49 70.1294 148.596 70.1616V71.1724C148.485 71.1313 148.299 71.1108 148.038 71.1108C147.683 71.1108 147.395 71.2134 147.172 71.4185C146.949 71.6206 146.838 71.8887 146.838 72.2227V75H145.748ZM151.086 70.9614C150.761 70.9614 150.493 71.0684 150.282 71.2822C150.071 71.4961 149.954 71.7788 149.931 72.1304H152.194C152.182 71.7729 152.077 71.4888 151.877 71.2778C151.678 71.0669 151.415 70.9614 151.086 70.9614ZM152.203 73.6772H153.235C153.133 74.1167 152.891 74.4639 152.51 74.7188C152.132 74.9707 151.662 75.0967 151.1 75.0967C150.394 75.0967 149.838 74.877 149.434 74.4375C149.033 73.9951 148.832 73.3872 148.832 72.6138C148.832 71.8403 149.034 71.228 149.438 70.7769C149.843 70.3228 150.394 70.0957 151.091 70.0957C151.776 70.0957 152.312 70.311 152.699 70.7417C153.089 71.1694 153.284 71.7627 153.284 72.5215V72.873H149.926V72.9302C149.941 73.3315 150.055 73.6494 150.269 73.8838C150.486 74.1152 150.773 74.231 151.13 74.231C151.681 74.231 152.039 74.0464 152.203 73.6772ZM153.968 71.5679C153.968 71.1343 154.147 70.7812 154.504 70.5088C154.862 70.2334 155.325 70.0957 155.893 70.0957C156.464 70.0957 156.92 70.2173 157.26 70.4604C157.602 70.7007 157.793 71.0391 157.831 71.4756H156.807C156.766 71.3027 156.666 71.168 156.508 71.0713C156.353 70.9717 156.149 70.9219 155.897 70.9219C155.645 70.9219 155.437 70.9761 155.273 71.0845C155.109 71.1929 155.027 71.3335 155.027 71.5063C155.027 71.6411 155.084 71.7524 155.199 71.8403C155.316 71.9282 155.496 72 155.739 72.0557L156.587 72.249C157.05 72.3545 157.39 72.5112 157.607 72.7192C157.824 72.9272 157.932 73.207 157.932 73.5586C157.932 74.0186 157.742 74.3906 157.361 74.6748C156.98 74.9561 156.488 75.0967 155.884 75.0967C155.283 75.0967 154.803 74.9736 154.443 74.7275C154.085 74.4814 153.886 74.1401 153.845 73.7036H154.922C154.974 73.8853 155.084 74.0259 155.251 74.1255C155.421 74.2222 155.641 74.2705 155.91 74.2705C156.186 74.2705 156.41 74.2163 156.583 74.1079C156.756 73.9966 156.842 73.8516 156.842 73.6729C156.842 73.4062 156.621 73.2246 156.179 73.1279L155.326 72.9302C154.863 72.8247 154.52 72.6621 154.298 72.4424C154.078 72.2197 153.968 71.9282 153.968 71.5679ZM160.834 75V70.1924H161.885V70.9702H161.959C162.062 70.6948 162.23 70.481 162.465 70.3286C162.699 70.1733 162.976 70.0957 163.295 70.0957C163.621 70.0957 163.897 70.1733 164.126 70.3286C164.354 70.481 164.52 70.6948 164.622 70.9702H164.697C164.817 70.7036 165.008 70.4912 165.268 70.333C165.529 70.1748 165.825 70.0957 166.156 70.0957C166.637 70.0957 167.013 70.2378 167.286 70.522C167.561 70.8062 167.699 71.1973 167.699 71.6953V75H166.613V71.9722C166.613 71.354 166.32 71.0449 165.734 71.0449C165.453 71.0449 165.226 71.1357 165.053 71.3174C164.88 71.499 164.794 71.729 164.794 72.0073V75H163.735V71.8931C163.735 71.6294 163.657 71.4229 163.502 71.2734C163.347 71.1211 163.134 71.0449 162.865 71.0449C162.595 71.0449 162.371 71.1431 162.192 71.3394C162.014 71.5356 161.924 71.7817 161.924 72.0776V75H160.834ZM170.708 70.9614C170.383 70.9614 170.114 71.0684 169.904 71.2822C169.693 71.4961 169.575 71.7788 169.552 72.1304H171.815C171.803 71.7729 171.698 71.4888 171.499 71.2778C171.3 71.0669 171.036 70.9614 170.708 70.9614ZM171.824 73.6772H172.857C172.754 74.1167 172.512 74.4639 172.132 74.7188C171.754 74.9707 171.283 75.0967 170.721 75.0967C170.015 75.0967 169.46 74.877 169.055 74.4375C168.654 73.9951 168.453 73.3872 168.453 72.6138C168.453 71.8403 168.655 71.228 169.06 70.7769C169.464 70.3228 170.015 70.0957 170.712 70.0957C171.398 70.0957 171.934 70.311 172.321 70.7417C172.71 71.1694 172.905 71.7627 172.905 72.5215V72.873H169.548V72.9302C169.562 73.3315 169.676 73.6494 169.89 73.8838C170.107 74.1152 170.394 74.231 170.752 74.231C171.302 74.231 171.66 74.0464 171.824 73.6772ZM175.716 70.9614C175.391 70.9614 175.123 71.0684 174.912 71.2822C174.701 71.4961 174.584 71.7788 174.561 72.1304H176.824C176.812 71.7729 176.707 71.4888 176.507 71.2778C176.308 71.0669 176.044 70.9614 175.716 70.9614ZM176.833 73.6772H177.865C177.763 74.1167 177.521 74.4639 177.14 74.7188C176.762 74.9707 176.292 75.0967 175.729 75.0967C175.023 75.0967 174.468 74.877 174.064 74.4375C173.663 73.9951 173.462 73.3872 173.462 72.6138C173.462 71.8403 173.664 71.228 174.068 70.7769C174.473 70.3228 175.023 70.0957 175.721 70.0957C176.406 70.0957 176.942 70.311 177.329 70.7417C177.719 71.1694 177.914 71.7627 177.914 72.5215V72.873H174.556V72.9302C174.571 73.3315 174.685 73.6494 174.899 73.8838C175.116 74.1152 175.403 74.231 175.76 74.231C176.311 74.231 176.668 74.0464 176.833 73.6772ZM179.055 69.0146H180.14V70.2231H181.169V71.0933H180.14V73.4531C180.14 73.6904 180.193 73.8647 180.299 73.9761C180.404 74.0845 180.571 74.1387 180.8 74.1387C180.899 74.1387 181.022 74.1313 181.169 74.1167V74.9692C180.987 75.0044 180.797 75.022 180.597 75.022C180.047 75.022 179.651 74.9209 179.411 74.7188C179.174 74.5166 179.055 74.1826 179.055 73.7168V71.0933H178.295V70.2231H179.055V69.0146ZM181.972 75V70.1924H183.057V75H181.972ZM182.512 69.4102C182.316 69.4102 182.155 69.3545 182.029 69.2432C181.903 69.1289 181.84 68.9839 181.84 68.8081C181.84 68.6323 181.903 68.4888 182.029 68.3774C182.155 68.2632 182.316 68.2061 182.512 68.2061C182.712 68.2061 182.873 68.2632 182.996 68.3774C183.122 68.4888 183.185 68.6323 183.185 68.8081C183.185 68.9839 183.122 69.1289 182.996 69.2432C182.873 69.3545 182.712 69.4102 182.512 69.4102ZM184.111 75V70.1924H185.161V70.9614H185.236C185.353 70.686 185.532 70.4736 185.772 70.3242C186.015 70.1719 186.312 70.0957 186.664 70.0957C187.197 70.0957 187.606 70.251 187.89 70.5615C188.177 70.8721 188.321 71.3145 188.321 71.8887V75H187.231V72.1479C187.231 71.4126 186.907 71.0449 186.26 71.0449C185.934 71.0449 185.677 71.1489 185.486 71.3569C185.296 71.5649 185.201 71.8462 185.201 72.2007V75H184.111ZM190.499 73.6421C190.707 73.9087 191 74.042 191.378 74.042C191.756 74.042 192.053 73.9072 192.27 73.6377C192.487 73.3682 192.595 73.0034 192.595 72.5435C192.595 72.0835 192.487 71.7188 192.27 71.4492C192.053 71.1768 191.756 71.0405 191.378 71.0405C191.003 71.0405 190.71 71.1753 190.499 71.4448C190.291 71.7144 190.187 72.0806 190.187 72.5435C190.187 73.0063 190.291 73.3726 190.499 73.6421ZM191.378 76.8281C190.766 76.8281 190.268 76.7036 189.884 76.4546C189.503 76.2056 189.291 75.873 189.247 75.457H190.341C190.376 75.624 190.486 75.7559 190.671 75.8525C190.858 75.9492 191.1 75.9976 191.396 75.9976C191.768 75.9976 192.058 75.9141 192.266 75.7471C192.474 75.5801 192.578 75.3457 192.578 75.0439V74.1343H192.503C192.365 74.3921 192.169 74.5898 191.914 74.7275C191.662 74.8623 191.369 74.9297 191.035 74.9297C190.432 74.9297 189.953 74.7144 189.598 74.2837C189.244 73.8501 189.067 73.27 189.067 72.5435C189.067 71.8052 189.245 71.2163 189.603 70.7769C189.96 70.3345 190.444 70.1133 191.053 70.1133C191.381 70.1133 191.678 70.1895 191.945 70.3418C192.212 70.4941 192.411 70.7007 192.543 70.9614H192.617V70.1924H193.668V75.0176C193.668 75.5742 193.461 76.0151 193.048 76.3403C192.635 76.6655 192.078 76.8281 191.378 76.8281Z" fill="black"/>
<path d="M105.531 91.1055C107.083 91.1055 107.988 89.8574 107.988 87.7217C107.988 87.0317 107.887 86.4604 107.676 85.9727C107.289 85.063 106.533 84.5488 105.58 84.5488C104.279 84.5488 103.334 85.4629 103.334 86.7153C103.334 87.9194 104.23 88.8115 105.439 88.8115C106.248 88.8115 106.942 88.4028 107.21 87.7744C107.214 87.7744 107.214 87.7744 107.219 87.7744H107.223C107.201 89.4575 106.595 90.4155 105.54 90.4155C104.912 90.4155 104.397 90.0376 104.23 89.4619H103.426C103.62 90.4551 104.45 91.1055 105.531 91.1055ZM105.575 88.1172C104.745 88.1172 104.134 87.5151 104.134 86.689C104.134 85.8936 104.775 85.2607 105.588 85.2607C106.406 85.2607 107.039 85.8979 107.039 86.7109C107.039 87.5195 106.415 88.1172 105.575 88.1172ZM109.62 89.9453C109.902 89.9453 110.121 89.7256 110.121 89.4443C110.121 89.1631 109.902 88.9434 109.62 88.9434C109.339 88.9434 109.119 89.1631 109.119 89.4443C109.119 89.7256 109.339 89.9453 109.62 89.9453ZM109.62 86.7109C109.902 86.7109 110.121 86.4912 110.121 86.21C110.121 85.9287 109.902 85.709 109.62 85.709C109.339 85.709 109.119 85.9287 109.119 86.21C109.119 86.4912 109.339 86.7109 109.62 86.7109ZM113.586 91.1055C115.063 91.1055 115.915 89.8267 115.915 87.8228C115.915 85.832 115.058 84.5532 113.586 84.5532C112.114 84.5532 111.248 85.8408 111.248 87.8271C111.248 89.8311 112.105 91.1055 113.586 91.1055ZM113.586 90.4155C112.593 90.4155 112.044 89.4048 112.044 87.8228C112.044 86.2759 112.606 85.2476 113.586 85.2476C114.566 85.2476 115.12 86.2671 115.12 87.8271C115.12 89.4092 114.575 90.4155 113.586 90.4155ZM119.134 91.1055C120.611 91.1055 121.463 89.8267 121.463 87.8228C121.463 85.832 120.606 84.5532 119.134 84.5532C117.662 84.5532 116.796 85.8408 116.796 87.8271C116.796 89.8311 117.653 91.1055 119.134 91.1055ZM119.134 90.4155C118.141 90.4155 117.592 89.4048 117.592 87.8228C117.592 86.2759 118.154 85.2476 119.134 85.2476C120.114 85.2476 120.668 86.2671 120.668 87.8271C120.668 89.4092 120.123 90.4155 119.134 90.4155ZM127.255 88.7852V88.0732H124.372V88.7852H127.255ZM131.9 91H132.665V84.6587H131.891L130.204 85.8716V86.7065L131.882 85.498H131.9V91ZM136.582 91.1055C138.059 91.1055 138.911 89.8267 138.911 87.8228C138.911 85.832 138.054 84.5532 136.582 84.5532C135.11 84.5532 134.244 85.8408 134.244 87.8271C134.244 89.8311 135.101 91.1055 136.582 91.1055ZM136.582 90.4155C135.589 90.4155 135.04 89.4048 135.04 87.8228C135.04 86.2759 135.602 85.2476 136.582 85.2476C137.562 85.2476 138.116 86.2671 138.116 87.8271C138.116 89.4092 137.571 90.4155 136.582 90.4155ZM140.539 89.9453C140.821 89.9453 141.04 89.7256 141.04 89.4443C141.04 89.1631 140.821 88.9434 140.539 88.9434C140.258 88.9434 140.039 89.1631 140.039 89.4443C140.039 89.7256 140.258 89.9453 140.539 89.9453ZM140.539 86.7109C140.821 86.7109 141.04 86.4912 141.04 86.21C141.04 85.9287 140.821 85.709 140.539 85.709C140.258 85.709 140.039 85.9287 140.039 86.21C140.039 86.4912 140.258 86.7109 140.539 86.7109ZM143.903 91H144.668V84.6587H143.895L142.207 85.8716V86.7065L143.886 85.498H143.903V91ZM148.546 91.1055C149.869 91.1055 150.805 90.2134 150.805 88.939C150.805 87.7085 149.926 86.8164 148.709 86.8164C148.102 86.8164 147.575 87.0449 147.289 87.4272H147.272L147.465 85.3618H150.445V84.6587H146.815L146.468 88.2095H147.21C147.469 87.7656 147.975 87.4976 148.568 87.4976C149.412 87.4976 150.014 88.1084 150.014 88.9609C150.014 89.8135 149.416 90.4111 148.555 90.4111C147.795 90.4111 147.219 89.9453 147.149 89.2686H146.371C146.437 90.3496 147.333 91.1055 148.546 91.1055Z" fill="#73787E"/>
<rect x="93" y="102" width="189" height="39" rx="4" fill="#F5F7F9"/>
<path d="M106.428 117.158C105.528 117.158 104.818 116.861 104.296 116.266C103.775 115.668 103.514 114.857 103.514 113.832C103.514 112.8 103.773 111.987 104.292 111.393C104.813 110.798 105.524 110.5 106.423 110.5C107.144 110.5 107.755 110.713 108.256 111.138C108.757 111.56 109.041 112.102 109.108 112.764H107.992C107.913 112.383 107.731 112.08 107.447 111.854C107.163 111.625 106.822 111.511 106.423 111.511C105.884 111.511 105.458 111.719 105.145 112.135C104.831 112.548 104.674 113.112 104.674 113.827C104.674 114.542 104.831 115.107 105.145 115.523C105.458 115.939 105.886 116.147 106.428 116.147C106.829 116.147 107.172 116.043 107.456 115.835C107.74 115.625 107.92 115.342 107.997 114.987H109.113C109.037 115.638 108.752 116.162 108.26 116.561C107.768 116.959 107.157 117.158 106.428 117.158ZM110.004 117V110.333H111.094V117H110.004ZM112.187 117V112.192H113.272V117H112.187ZM112.727 111.41C112.531 111.41 112.37 111.354 112.244 111.243C112.118 111.129 112.055 110.984 112.055 110.808C112.055 110.632 112.118 110.489 112.244 110.377C112.37 110.263 112.531 110.206 112.727 110.206C112.926 110.206 113.087 110.263 113.211 110.377C113.337 110.489 113.4 110.632 113.4 110.808C113.4 110.984 113.337 111.129 113.211 111.243C113.087 111.354 112.926 111.41 112.727 111.41ZM116.343 112.961C116.017 112.961 115.749 113.068 115.538 113.282C115.328 113.496 115.21 113.779 115.187 114.13H117.45C117.438 113.773 117.333 113.489 117.134 113.278C116.934 113.067 116.671 112.961 116.343 112.961ZM117.459 115.677H118.492C118.389 116.117 118.147 116.464 117.767 116.719C117.389 116.971 116.918 117.097 116.356 117.097C115.65 117.097 115.095 116.877 114.69 116.438C114.289 115.995 114.088 115.387 114.088 114.614C114.088 113.84 114.29 113.228 114.695 112.777C115.099 112.323 115.65 112.096 116.347 112.096C117.033 112.096 117.569 112.311 117.955 112.742C118.345 113.169 118.54 113.763 118.54 114.521V114.873H115.183V114.93C115.197 115.332 115.311 115.649 115.525 115.884C115.742 116.115 116.029 116.231 116.387 116.231C116.937 116.231 117.295 116.046 117.459 115.677ZM119.334 117V112.192H120.384V112.961H120.459C120.576 112.686 120.755 112.474 120.995 112.324C121.238 112.172 121.536 112.096 121.887 112.096C122.421 112.096 122.829 112.251 123.113 112.562C123.401 112.872 123.544 113.314 123.544 113.889V117H122.454V114.148C122.454 113.413 122.131 113.045 121.483 113.045C121.158 113.045 120.9 113.149 120.71 113.357C120.519 113.565 120.424 113.846 120.424 114.201V117H119.334ZM124.883 111.015H125.969V112.223H126.997V113.093H125.969V115.453C125.969 115.69 126.021 115.865 126.127 115.976C126.232 116.084 126.399 116.139 126.628 116.139C126.728 116.139 126.851 116.131 126.997 116.117V116.969C126.815 117.004 126.625 117.022 126.426 117.022C125.875 117.022 125.479 116.921 125.239 116.719C125.002 116.517 124.883 116.183 124.883 115.717V113.093H124.123V112.223H124.883V111.015ZM129.886 117V112.192H130.937V112.97H131.011C131.114 112.695 131.282 112.481 131.517 112.329C131.751 112.173 132.028 112.096 132.347 112.096C132.672 112.096 132.949 112.173 133.178 112.329C133.406 112.481 133.572 112.695 133.674 112.97H133.749C133.869 112.704 134.06 112.491 134.32 112.333C134.581 112.175 134.877 112.096 135.208 112.096C135.689 112.096 136.065 112.238 136.337 112.522C136.613 112.806 136.751 113.197 136.751 113.695V117H135.665V113.972C135.665 113.354 135.372 113.045 134.786 113.045C134.505 113.045 134.278 113.136 134.105 113.317C133.932 113.499 133.846 113.729 133.846 114.007V117H132.787V113.893C132.787 113.629 132.709 113.423 132.554 113.273C132.399 113.121 132.186 113.045 131.917 113.045C131.647 113.045 131.423 113.143 131.244 113.339C131.066 113.536 130.976 113.782 130.976 114.078V117H129.886ZM139.76 112.961C139.434 112.961 139.166 113.068 138.955 113.282C138.745 113.496 138.627 113.779 138.604 114.13H140.867C140.855 113.773 140.75 113.489 140.551 113.278C140.351 113.067 140.088 112.961 139.76 112.961ZM140.876 115.677H141.909C141.806 116.117 141.564 116.464 141.183 116.719C140.806 116.971 140.335 117.097 139.773 117.097C139.067 117.097 138.512 116.877 138.107 116.438C137.706 115.995 137.505 115.387 137.505 114.614C137.505 113.84 137.707 113.228 138.112 112.777C138.516 112.323 139.067 112.096 139.764 112.096C140.45 112.096 140.986 112.311 141.372 112.742C141.762 113.169 141.957 113.763 141.957 114.521V114.873H138.6V114.93C138.614 115.332 138.728 115.649 138.942 115.884C139.159 116.115 139.446 116.231 139.804 116.231C140.354 116.231 140.712 116.046 140.876 115.677ZM144.768 112.961C144.443 112.961 144.175 113.068 143.964 113.282C143.753 113.496 143.636 113.779 143.612 114.13H145.876C145.864 113.773 145.758 113.489 145.559 113.278C145.36 113.067 145.096 112.961 144.768 112.961ZM145.884 115.677H146.917C146.815 116.117 146.573 116.464 146.192 116.719C145.814 116.971 145.344 117.097 144.781 117.097C144.075 117.097 143.52 116.877 143.116 116.438C142.715 115.995 142.514 115.387 142.514 114.614C142.514 113.84 142.716 113.228 143.12 112.777C143.525 112.323 144.075 112.096 144.773 112.096C145.458 112.096 145.994 112.311 146.381 112.742C146.771 113.169 146.966 113.763 146.966 114.521V114.873H143.608V114.93C143.623 115.332 143.737 115.649 143.951 115.884C144.168 116.115 144.455 116.231 144.812 116.231C145.363 116.231 145.72 116.046 145.884 115.677ZM148.107 111.015H149.192V112.223H150.221V113.093H149.192V115.453C149.192 115.69 149.245 115.865 149.351 115.976C149.456 116.084 149.623 116.139 149.852 116.139C149.951 116.139 150.074 116.131 150.221 116.117V116.969C150.039 117.004 149.849 117.022 149.649 117.022C149.099 117.022 148.703 116.921 148.463 116.719C148.226 116.517 148.107 116.183 148.107 115.717V113.093H147.347V112.223H148.107V111.015ZM151.024 117V112.192H152.109V117H151.024ZM151.564 111.41C151.368 111.41 151.207 111.354 151.081 111.243C150.955 111.129 150.892 110.984 150.892 110.808C150.892 110.632 150.955 110.489 151.081 110.377C151.207 110.263 151.368 110.206 151.564 110.206C151.763 110.206 151.925 110.263 152.048 110.377C152.174 110.489 152.237 110.632 152.237 110.808C152.237 110.984 152.174 111.129 152.048 111.243C151.925 111.354 151.763 111.41 151.564 111.41ZM153.163 117V112.192H154.213V112.961H154.288C154.405 112.686 154.584 112.474 154.824 112.324C155.067 112.172 155.364 112.096 155.716 112.096C156.249 112.096 156.658 112.251 156.942 112.562C157.229 112.872 157.373 113.314 157.373 113.889V117H156.283V114.148C156.283 113.413 155.959 113.045 155.312 113.045C154.986 113.045 154.729 113.149 154.538 113.357C154.348 113.565 154.253 113.846 154.253 114.201V117H153.163ZM159.551 115.642C159.759 115.909 160.052 116.042 160.43 116.042C160.808 116.042 161.105 115.907 161.322 115.638C161.539 115.368 161.647 115.003 161.647 114.543C161.647 114.083 161.539 113.719 161.322 113.449C161.105 113.177 160.808 113.041 160.43 113.041C160.055 113.041 159.762 113.175 159.551 113.445C159.343 113.714 159.239 114.081 159.239 114.543C159.239 115.006 159.343 115.373 159.551 115.642ZM160.43 118.828C159.818 118.828 159.32 118.704 158.936 118.455C158.555 118.206 158.343 117.873 158.299 117.457H159.393C159.428 117.624 159.538 117.756 159.723 117.853C159.91 117.949 160.152 117.998 160.448 117.998C160.82 117.998 161.11 117.914 161.318 117.747C161.526 117.58 161.63 117.346 161.63 117.044V116.134H161.555C161.417 116.392 161.221 116.59 160.966 116.728C160.714 116.862 160.421 116.93 160.087 116.93C159.484 116.93 159.005 116.714 158.65 116.284C158.296 115.85 158.119 115.27 158.119 114.543C158.119 113.805 158.297 113.216 158.655 112.777C159.012 112.334 159.496 112.113 160.105 112.113C160.433 112.113 160.73 112.189 160.997 112.342C161.264 112.494 161.463 112.701 161.595 112.961H161.669V112.192H162.72V117.018C162.72 117.574 162.513 118.015 162.1 118.34C161.687 118.666 161.13 118.828 160.43 118.828Z" fill="black"/>
<path d="M105.531 133.105C107.083 133.105 107.988 131.857 107.988 129.722C107.988 129.032 107.887 128.46 107.676 127.973C107.289 127.063 106.533 126.549 105.58 126.549C104.279 126.549 103.334 127.463 103.334 128.715C103.334 129.919 104.23 130.812 105.439 130.812C106.248 130.812 106.942 130.403 107.21 129.774C107.214 129.774 107.214 129.774 107.219 129.774H107.223C107.201 131.458 106.595 132.416 105.54 132.416C104.912 132.416 104.397 132.038 104.23 131.462H103.426C103.62 132.455 104.45 133.105 105.531 133.105ZM105.575 130.117C104.745 130.117 104.134 129.515 104.134 128.689C104.134 127.894 104.775 127.261 105.588 127.261C106.406 127.261 107.039 127.898 107.039 128.711C107.039 129.52 106.415 130.117 105.575 130.117ZM109.62 131.945C109.902 131.945 110.121 131.726 110.121 131.444C110.121 131.163 109.902 130.943 109.62 130.943C109.339 130.943 109.119 131.163 109.119 131.444C109.119 131.726 109.339 131.945 109.62 131.945ZM109.62 128.711C109.902 128.711 110.121 128.491 110.121 128.21C110.121 127.929 109.902 127.709 109.62 127.709C109.339 127.709 109.119 127.929 109.119 128.21C109.119 128.491 109.339 128.711 109.62 128.711ZM113.586 133.105C115.063 133.105 115.915 131.827 115.915 129.823C115.915 127.832 115.058 126.553 113.586 126.553C112.114 126.553 111.248 127.841 111.248 129.827C111.248 131.831 112.105 133.105 113.586 133.105ZM113.586 132.416C112.593 132.416 112.044 131.405 112.044 129.823C112.044 128.276 112.606 127.248 113.586 127.248C114.566 127.248 115.12 128.267 115.12 129.827C115.12 131.409 114.575 132.416 113.586 132.416ZM119.134 133.105C120.611 133.105 121.463 131.827 121.463 129.823C121.463 127.832 120.606 126.553 119.134 126.553C117.662 126.553 116.796 127.841 116.796 129.827C116.796 131.831 117.653 133.105 119.134 133.105ZM119.134 132.416C118.141 132.416 117.592 131.405 117.592 129.823C117.592 128.276 118.154 127.248 119.134 127.248C120.114 127.248 120.668 128.267 120.668 129.827C120.668 131.409 120.123 132.416 119.134 132.416ZM127.255 130.785V130.073H124.372V130.785H127.255ZM131.9 133H132.665V126.659H131.891L130.204 127.872V128.707L131.882 127.498H131.9V133ZM136.582 133.105C138.059 133.105 138.911 131.827 138.911 129.823C138.911 127.832 138.054 126.553 136.582 126.553C135.11 126.553 134.244 127.841 134.244 129.827C134.244 131.831 135.101 133.105 136.582 133.105ZM136.582 132.416C135.589 132.416 135.04 131.405 135.04 129.823C135.04 128.276 135.602 127.248 136.582 127.248C137.562 127.248 138.116 128.267 138.116 129.827C138.116 131.409 137.571 132.416 136.582 132.416ZM140.539 131.945C140.821 131.945 141.04 131.726 141.04 131.444C141.04 131.163 140.821 130.943 140.539 130.943C140.258 130.943 140.039 131.163 140.039 131.444C140.039 131.726 140.258 131.945 140.539 131.945ZM140.539 128.711C140.821 128.711 141.04 128.491 141.04 128.21C141.04 127.929 140.821 127.709 140.539 127.709C140.258 127.709 140.039 127.929 140.039 128.21C140.039 128.491 140.258 128.711 140.539 128.711ZM143.903 133H144.668V126.659H143.895L142.207 127.872V128.707L143.886 127.498H143.903V133ZM148.546 133.105C149.869 133.105 150.805 132.213 150.805 130.939C150.805 129.708 149.926 128.816 148.709 128.816C148.102 128.816 147.575 129.045 147.289 129.427H147.272L147.465 127.362H150.445V126.659H146.815L146.468 130.209H147.21C147.469 129.766 147.975 129.498 148.568 129.498C149.412 129.498 150.014 130.108 150.014 130.961C150.014 131.813 149.416 132.411 148.555 132.411C147.795 132.411 147.219 131.945 147.149 131.269H146.371C146.437 132.35 147.333 133.105 148.546 133.105Z" fill="#73787E"/>
<rect x="93" y="144" width="189" height="32" rx="4" fill="#F5F7F9"/>
<rect x="103" y="150" width="124.395" height="6" rx="3" fill="#DADDE1"/>
<rect x="103" y="164" width="21.952" height="6" rx="3" fill="#DADDE1"/>
<rect x="129.952" y="164" width="21.952" height="6" rx="3" fill="#DADDE1"/>
<rect x="64" y="70" width="20" height="20" rx="10" fill="#3AB67B"/>
<path d="M68.6689 79.0146V79.0342H69.8506V79.0146C69.8506 78.2969 70.3486 77.8135 71.0859 77.8135C71.7793 77.8135 72.2871 78.2627 72.2871 78.8828C72.2871 79.3809 72.0479 79.7471 71.0859 80.7236L68.7373 83.126V84H73.6299V82.9307H70.4658V82.8477L71.9404 81.3682C73.1367 80.1865 73.5225 79.5615 73.5225 78.8047C73.5225 77.6279 72.5166 76.7783 71.125 76.7783C69.6797 76.7783 68.6689 77.6963 68.6689 79.0146ZM77.5752 84.1758C79.1377 84.1758 80.1875 83.1699 80.1875 81.7002C80.1875 80.3184 79.2402 79.3369 77.9023 79.3369C77.2236 79.3369 76.7256 79.5762 76.4131 79.9961H76.3301L76.501 78.0186H79.7676V76.9541H75.5244L75.1582 81.0068H76.3008C76.5596 80.5723 77.0137 80.3135 77.5947 80.3135C78.4053 80.3135 78.9717 80.8848 78.9717 81.7295C78.9717 82.5693 78.4102 83.126 77.585 83.126C76.8574 83.126 76.3057 82.6963 76.2275 82.0469H75.0459C75.1045 83.2871 76.1152 84.1758 77.5752 84.1758Z" fill="white"/>
</g>
</svg>
