<svg width="343" height="181" viewBox="0 0 343 181" fill="none" xmlns="http://www.w3.org/2000/svg">
<defs>
<clipPath id="clip0_19611_316506">
<rect y="0.5" width="343" height="180" rx="12" fill="white"/>
</clipPath>
</defs>
<g clip-path="url(#clip0_19611_316506)">
<rect y="0.5" width="343" height="180" rx="12" fill="#FFEECF"/>
<rect x="34" y="21.5" width="280" height="220" rx="8" fill="white"/>
<path d="M63.9971 49.5V41.3994H66.957V39.6357H58.9727V41.3994H61.9326V49.5H63.9971ZM68.4609 49.5H70.4502V41.96H68.4609V49.5ZM70.2383 40.7432L72.2002 38.3301H70.0879L68.3994 40.7432H70.2383ZM72.4668 49.5H74.4561V45.1523C74.4561 44.1611 75.0234 43.5117 75.9463 43.5117C76.8896 43.5117 77.334 44.0586 77.334 45.0977V49.5H79.3232V44.626C79.3232 42.8213 78.4209 41.7959 76.7461 41.7959C75.6318 41.7959 74.8662 42.3223 74.5176 43.1699H74.3945V41.96H72.4668V49.5ZM81.3262 49.5H83.3154V45.1729C83.3154 44.1953 83.8896 43.5322 84.8877 43.5322C85.79 43.5322 86.2754 44.0723 86.2754 45.1182V49.5H88.2646V44.6465C88.2646 42.835 87.3008 41.8164 85.6807 41.8164C84.5732 41.8164 83.7529 42.3359 83.4043 43.1973H83.2812V39.082H81.3262V49.5ZM93.8086 49.5H95.7979V45.1523C95.7979 44.1611 96.3652 43.5117 97.2881 43.5117C98.2314 43.5117 98.6758 44.0586 98.6758 45.0977V49.5H100.665V44.626C100.665 42.8213 99.7627 41.7959 98.0879 41.7959C96.9736 41.7959 96.208 42.3223 95.8594 43.1699H95.7363V41.96H93.8086V49.5ZM105.32 48.1191C104.63 48.1191 104.145 47.7773 104.145 47.2168C104.145 46.6768 104.562 46.3691 105.416 46.3076L106.94 46.2119V46.7656C106.94 47.5312 106.243 48.1191 105.32 48.1191ZM104.664 49.6162C105.642 49.6162 106.462 49.2061 106.852 48.5156H106.975V49.5H108.902V44.3525C108.902 42.7393 107.774 41.7959 105.778 41.7959C103.885 41.7959 102.606 42.6709 102.477 44.0654H104.309C104.473 43.6143 104.951 43.3682 105.669 43.3682C106.489 43.3682 106.94 43.7236 106.94 44.3525V44.9678L105.115 45.0771C103.242 45.1865 102.196 45.9795 102.196 47.3467C102.196 48.7275 103.215 49.6162 104.664 49.6162ZM103.044 38.5488C103.044 39.9502 104.076 40.9482 105.771 40.9482C107.467 40.9482 108.506 39.9502 108.506 38.5488H107.084C107.07 39.2803 106.585 39.7656 105.771 39.7656C104.958 39.7656 104.473 39.2803 104.459 38.5488H103.044ZM110.857 49.5H112.847V45.1523C112.847 44.1611 113.414 43.5117 114.337 43.5117C115.28 43.5117 115.725 44.0586 115.725 45.0977V49.5H117.714V44.626C117.714 42.8213 116.812 41.7959 115.137 41.7959C114.022 41.7959 113.257 42.3223 112.908 43.1699H112.785V41.96H110.857V49.5ZM122.998 47.8184C121.918 47.8184 121.303 46.9912 121.303 45.6582C121.303 44.3389 121.925 43.5049 122.998 43.5049C124.071 43.5049 124.721 44.3389 124.721 45.665C124.721 46.9912 124.078 47.8184 122.998 47.8184ZM122.971 52.3574C125.247 52.3574 126.689 51.2432 126.689 49.4727V41.96H124.762V43.1699H124.639C124.235 42.3428 123.367 41.8369 122.349 41.8369C120.435 41.8369 119.259 43.3271 119.259 45.665C119.259 47.9346 120.428 49.3906 122.308 49.3906C123.367 49.3906 124.16 48.9668 124.577 48.1738H124.7V49.5684C124.7 50.416 124.078 50.9082 123.012 50.9082C122.15 50.9082 121.59 50.6143 121.487 50.1494H119.519C119.642 51.4756 120.968 52.3574 122.971 52.3574ZM132.295 49.5H134.284V44.9609C134.284 44.1201 134.838 43.5117 135.617 43.5117C136.396 43.5117 136.861 43.9697 136.861 44.7695V49.5H138.775V44.8857C138.775 44.0859 139.295 43.5117 140.102 43.5117C140.942 43.5117 141.359 43.9561 141.359 44.8516V49.5H143.349V44.3252C143.349 42.7734 142.412 41.7959 140.908 41.7959C139.855 41.7959 138.987 42.3496 138.639 43.1904H138.516C138.215 42.3154 137.49 41.7959 136.431 41.7959C135.439 41.7959 134.653 42.3291 134.346 43.1904H134.223V41.96H132.295V49.5ZM148.626 48.0371C147.566 48.0371 146.958 47.1963 146.958 45.7266C146.958 44.2773 147.573 43.4229 148.626 43.4229C149.679 43.4229 150.294 44.2773 150.294 45.7266C150.294 47.1963 149.686 48.0371 148.626 48.0371ZM152.338 45.7266C152.338 44.7217 151.948 43.7715 151.415 43.416V43.3135C151.504 43.3135 151.593 43.3135 151.729 43.3135C152.502 43.3135 152.96 42.8486 152.96 42.001V40.4766H151.381V41.4746C151.381 41.8848 151.196 42.0488 150.629 42.0488C149.918 42.0488 149.597 41.7959 148.626 41.7959C146.329 41.7959 144.914 43.293 144.914 45.7266C144.914 48.1875 146.302 49.6641 148.626 49.6641C150.95 49.6641 152.338 48.1943 152.338 45.7266ZM149.344 40.7432L151.306 38.3301H149.193L147.505 40.7432H149.344ZM154.648 49.5H156.638V41.96H154.648V49.5ZM155.646 40.9072C156.357 40.9072 156.822 40.4902 156.822 39.9023C156.822 39.3076 156.357 38.8975 155.646 38.8975C154.929 38.8975 154.471 39.3076 154.471 39.9023C154.471 40.4902 154.929 40.9072 155.646 40.9072Z" fill="black"/>
<rect x="246" y="34.5" width="44" height="20" rx="4" fill="#28526E"/>
<path d="M258.039 48.5V42.543H260.212V41.4541H254.611V42.543H256.779V48.5H258.039ZM261.452 48.5H262.663V45.3994C262.663 44.6328 263.107 44.1152 263.903 44.1152C264.606 44.1152 264.978 44.5303 264.978 45.3408V48.5H266.188V45.0527C266.188 43.7832 265.495 43.0605 264.353 43.0605C263.557 43.0605 262.985 43.4219 262.731 44.0225H262.644V41.0928H261.452V48.5ZM269.865 44.0127C270.593 44.0127 271.071 44.5205 271.096 45.3115H268.581C268.635 44.5303 269.143 44.0127 269.865 44.0127ZM271.105 47.0303C270.93 47.4258 270.515 47.6455 269.914 47.6455C269.118 47.6455 268.605 47.0889 268.576 46.2002V46.1367H272.307V45.7461C272.307 44.0615 271.394 43.0508 269.87 43.0508C268.322 43.0508 267.36 44.1299 267.36 45.8486C267.36 47.5674 268.308 48.6074 269.88 48.6074C271.14 48.6074 272.023 48.002 272.253 47.0303H271.105ZM270.5 40.7314H269.235L267.883 42.4307H269.05L269.826 41.3809H269.909L270.686 42.4307H271.853L270.5 40.7314ZM273.522 48.5H274.733V45.2529C274.733 44.5986 275.178 44.1055 275.778 44.1055C276.374 44.1055 276.745 44.4619 276.745 45.0479V48.5H277.922V45.1748C277.922 44.5645 278.337 44.1055 278.967 44.1055C279.616 44.1055 279.943 44.4473 279.943 45.1357V48.5H281.149V44.8281C281.149 43.7197 280.505 43.0508 279.436 43.0508C278.693 43.0508 278.078 43.4365 277.814 44.0225H277.731C277.507 43.4219 276.994 43.0508 276.257 43.0508C275.549 43.0508 275.002 43.4121 274.772 44.0225H274.689V43.1582H273.522V48.5Z" fill="white"/>
<rect x="66" y="74.5" width="4" height="12" fill="#18BAFF"/>
<path d="M86.0674 84.6758C87.6934 84.6758 88.8848 83.7041 89.0508 82.2637H87.8105C87.6396 83.0547 86.9609 83.5527 86.0674 83.5527C84.8662 83.5527 84.1191 82.5664 84.1191 80.9746C84.1191 79.3877 84.8662 78.4014 86.0625 78.4014C86.9512 78.4014 87.6299 78.9482 87.8057 79.793H89.0459C88.8994 78.3232 87.6641 77.2783 86.0625 77.2783C84.0654 77.2783 82.8301 78.6895 82.8301 80.9795C82.8301 83.2598 84.0703 84.6758 86.0674 84.6758ZM92.1514 83.6357C91.6143 83.6357 91.2285 83.3672 91.2285 82.918C91.2285 82.4834 91.5459 82.2393 92.2246 82.1953L93.4307 82.1172V82.542C93.4307 83.1621 92.8838 83.6357 92.1514 83.6357ZM91.7949 84.5879C92.4932 84.5879 93.0791 84.2852 93.377 83.7676H93.46V84.5H94.627V80.8525C94.627 79.7197 93.8555 79.0508 92.4834 79.0508C91.2139 79.0508 90.3301 79.6514 90.2324 80.5938H91.375C91.4873 80.2324 91.8682 80.0371 92.4248 80.0371C93.0791 80.0371 93.4307 80.3301 93.4307 80.8525V81.3018L92.0537 81.3848C90.7549 81.4629 90.0273 82.0195 90.0273 82.9863C90.0273 83.9629 90.7646 84.5879 91.7949 84.5879ZM93.1133 76.7949H91.8535L90.4961 78.4307H91.6729L92.4395 77.4443H92.5273L93.2939 78.4307H94.4707L93.1133 76.7949ZM94.8516 76.6631L93.9189 75.0859H92.7275L93.8359 76.6631H94.8516ZM96.0869 84.5H97.2979V81.3896C97.2979 80.6035 97.752 80.1055 98.4746 80.1055C99.2119 80.1055 99.5537 80.5156 99.5537 81.3311V84.5H100.765V81.043C100.765 79.7686 100.115 79.0508 98.9238 79.0508C98.1279 79.0508 97.5908 79.417 97.3369 80.0127H97.2539V79.1582H96.0869V84.5ZM104.915 84.5H106.126V77.0928H104.915V84.5ZM109.485 83.6357C108.948 83.6357 108.562 83.3672 108.562 82.918C108.562 82.4834 108.88 82.2393 109.559 82.1953L110.765 82.1172V82.542C110.765 83.1621 110.218 83.6357 109.485 83.6357ZM109.129 84.5879C109.827 84.5879 110.413 84.2852 110.711 83.7676H110.794V84.5H111.961V80.8525C111.961 79.7197 111.189 79.0508 109.817 79.0508C108.548 79.0508 107.664 79.6514 107.566 80.5938H108.709C108.821 80.2324 109.202 80.0371 109.759 80.0371C110.413 80.0371 110.765 80.3301 110.765 80.8525V81.3018L109.388 81.3848C108.089 81.4629 107.361 82.0195 107.361 82.9863C107.361 83.9629 108.099 84.5879 109.129 84.5879ZM110.53 78.2744L109.314 76.5801H107.962L109.349 78.2744H110.53ZM113.421 84.5H114.632V81.2529C114.632 80.5986 115.076 80.1055 115.677 80.1055C116.272 80.1055 116.644 80.4619 116.644 81.0479V84.5H117.82V81.1748C117.82 80.5645 118.235 80.1055 118.865 80.1055C119.515 80.1055 119.842 80.4473 119.842 81.1357V84.5H121.048V80.8281C121.048 79.7197 120.403 79.0508 119.334 79.0508C118.592 79.0508 117.977 79.4365 117.713 80.0225H117.63C117.405 79.4219 116.893 79.0508 116.155 79.0508C115.447 79.0508 114.9 79.4121 114.671 80.0225H114.588V79.1582H113.421V84.5Z" fill="#18BAFF"/>
<rect x="66" y="94.5" width="216" height="1" fill="#ECEEF1"/>
<rect x="66" y="103.5" width="125" height="6" rx="3" fill="#ECEEF1"/>
<rect x="66" y="117.5" width="178" height="6" rx="3" fill="#ECEEF1"/>
<rect x="58.5" y="67" width="231" height="64" rx="3.5" stroke="#ECEEF1"/>
<rect x="66" y="151.5" width="4" height="12" fill="#FA8C16"/>
<path d="M84.373 160.411V158.404H85.5059V157.408H84.373V155.543H85.5889C86.9707 155.543 87.7861 156.427 87.7861 157.965C87.7861 159.537 86.9902 160.411 85.5889 160.411H84.373ZM83.1133 154.454V157.408H82.4297V158.404H83.1133V161.5H85.7549C87.8643 161.5 89.0703 160.206 89.0703 157.945C89.0703 155.733 87.8496 154.454 85.7549 154.454H83.1133ZM92.1807 160.636C91.6436 160.636 91.2578 160.367 91.2578 159.918C91.2578 159.483 91.5752 159.239 92.2539 159.195L93.46 159.117V159.542C93.46 160.162 92.9131 160.636 92.1807 160.636ZM91.8242 161.588C92.5225 161.588 93.1084 161.285 93.4062 160.768H93.4893V161.5H94.6562V157.853C94.6562 156.72 93.8848 156.051 92.5127 156.051C91.2432 156.051 90.3594 156.651 90.2617 157.594H91.4043C91.5166 157.232 91.8975 157.037 92.4541 157.037C93.1084 157.037 93.46 157.33 93.46 157.853V158.302L92.083 158.385C90.7842 158.463 90.0566 159.02 90.0566 159.986C90.0566 160.963 90.7939 161.588 91.8242 161.588ZM96.1162 161.5H97.3271V158.39C97.3271 157.604 97.7812 157.105 98.5039 157.105C99.2412 157.105 99.583 157.516 99.583 158.331V161.5H100.794V158.043C100.794 156.769 100.145 156.051 98.9531 156.051C98.1572 156.051 97.6201 156.417 97.3662 157.013H97.2832V156.158H96.1162V161.5ZM104.524 160.436C103.68 160.436 103.201 159.791 103.201 158.771C103.201 157.75 103.68 157.101 104.524 157.101C105.364 157.101 105.877 157.75 105.877 158.771C105.877 159.791 105.369 160.436 104.524 160.436ZM104.524 163.531C106.082 163.531 107.068 162.755 107.068 161.52V156.158H105.901V157.013H105.818C105.525 156.432 104.891 156.07 104.163 156.07C102.801 156.07 101.956 157.135 101.956 158.771C101.956 160.377 102.796 161.422 104.144 161.422C104.886 161.422 105.467 161.109 105.774 160.538H105.857V161.549C105.857 162.218 105.374 162.608 104.544 162.608C103.88 162.608 103.45 162.374 103.372 162.008H102.156C102.254 162.926 103.152 163.531 104.524 163.531ZM111.609 154.85V156.192H110.765V157.159H111.609V160.074C111.609 161.109 112.098 161.524 113.323 161.524C113.558 161.524 113.782 161.5 113.958 161.466V160.519C113.812 160.533 113.719 160.543 113.548 160.543C113.04 160.543 112.815 160.309 112.815 159.781V157.159H113.958V156.192H112.815V154.85H111.609ZM115.218 161.5H116.429V158.399C116.429 157.633 116.873 157.115 117.669 157.115C118.372 157.115 118.743 157.53 118.743 158.341V161.5H119.954V158.053C119.954 156.783 119.261 156.061 118.118 156.061C117.322 156.061 116.751 156.422 116.497 157.022H116.409V154.093H115.218V161.5ZM124.788 160.65H124.871V161.5H126.038V157.008H126.331C126.966 157.008 127.396 156.661 127.396 156.007V155.001H126.395V155.768C126.395 156.026 126.263 156.158 125.984 156.158H124.827V159.269C124.827 160.064 124.393 160.543 123.611 160.543C122.884 160.543 122.552 160.138 122.552 159.327V156.158H121.341V159.63C121.341 160.865 122.01 161.607 123.191 161.607C123.987 161.607 124.52 161.275 124.788 160.65ZM123.733 163.561C124.139 163.561 124.437 163.253 124.437 162.857C124.437 162.457 124.139 162.149 123.733 162.149C123.323 162.149 123.03 162.457 123.03 162.857C123.03 163.253 123.323 163.561 123.733 163.561ZM132.732 157.955C132.605 156.832 131.775 156.051 130.403 156.051C128.797 156.051 127.854 157.081 127.854 158.814C127.854 160.572 128.802 161.607 130.408 161.607C131.761 161.607 132.601 160.855 132.732 159.737H131.58C131.453 160.294 131.033 160.592 130.403 160.592C129.578 160.592 129.08 159.938 129.08 158.814C129.08 157.706 129.573 157.066 130.403 157.066C131.067 157.066 131.468 157.438 131.58 157.955H132.732ZM136.604 161.5H137.815V158.399C137.815 157.633 138.26 157.115 139.056 157.115C139.759 157.115 140.13 157.53 140.13 158.341V161.5H141.341V158.053C141.341 156.783 140.647 156.061 139.505 156.061C138.709 156.061 138.138 156.422 137.884 157.022H137.796V154.093H136.604V161.5ZM142.791 161.5H143.997V156.158H142.791V161.5ZM143.392 155.289C143.836 155.289 144.139 155.006 144.139 154.62C144.139 154.234 143.836 153.951 143.392 153.951C142.952 153.951 142.645 154.234 142.645 154.62C142.645 155.006 142.952 155.289 143.392 155.289ZM147.742 157.013C148.47 157.013 148.948 157.521 148.973 158.312H146.458C146.512 157.53 147.02 157.013 147.742 157.013ZM148.982 160.03C148.807 160.426 148.392 160.646 147.791 160.646C146.995 160.646 146.482 160.089 146.453 159.2V159.137H150.184V158.746C150.184 157.062 149.271 156.051 147.747 156.051C146.199 156.051 145.237 157.13 145.237 158.849C145.237 160.567 146.185 161.607 147.757 161.607C149.017 161.607 149.9 161.002 150.13 160.03H148.982ZM148.377 153.731H147.112L145.76 155.431H146.927L147.703 154.381H147.786L148.562 155.431H149.729L148.377 153.731ZM147.762 163.561C148.167 163.561 148.465 163.253 148.465 162.857C148.465 162.457 148.167 162.149 147.762 162.149C147.352 162.149 147.059 162.457 147.059 162.857C147.059 163.253 147.352 163.561 147.762 163.561ZM151.399 161.5H152.61V158.39C152.61 157.604 153.064 157.105 153.787 157.105C154.524 157.105 154.866 157.516 154.866 158.331V161.5H156.077V158.043C156.077 156.769 155.428 156.051 154.236 156.051C153.44 156.051 152.903 156.417 152.649 157.013H152.566V156.158H151.399V161.5Z" fill="#FA8C16"/>
<rect x="66" y="171.5" width="216" height="1" fill="#ECEEF1"/>
<rect x="58.5" y="144" width="231" height="68" rx="3.5" stroke="#ECEEF1"/>
</g>
</svg>
