<svg width="343" height="181" viewBox="0 0 343 181" fill="none" xmlns="http://www.w3.org/2000/svg">
<defs>
<filter id="filter0_d_19683_726490" x="223" y="86.5" width="130" height="64" filterUnits="userSpaceOnUse" color-interpolation-filters="sRGB">
<feFlood flood-opacity="0" result="BackgroundImageFix"/>
<feColorMatrix in="SourceAlpha" type="matrix" values="0 0 0 0 0 0 0 0 0 0 0 0 0 0 0 0 0 0 127 0" result="hardAlpha"/>
<feOffset dx="16" dy="16"/>
<feGaussianBlur stdDeviation="8"/>
<feComposite in2="hardAlpha" operator="out"/>
<feColorMatrix type="matrix" values="0 0 0 0 0 0 0 0 0 0 0 0 0 0 0 0 0 0 0.25 0"/>
<feBlend mode="normal" in2="BackgroundImageFix" result="effect1_dropShadow_19683_726490"/>
<feBlend mode="normal" in="SourceGraphic" in2="effect1_dropShadow_19683_726490" result="shape"/>
</filter>
<clipPath id="clip0_19683_726490">
<rect y="0.5" width="343" height="180" rx="12" fill="white"/>
</clipPath>
<clipPath id="clip1_19683_726490">
<rect x="68" y="115.5" width="20" height="20" rx="10" fill="white"/>
</clipPath>
<clipPath id="clip2_19683_726490">
<rect x="92" y="115.5" width="20" height="20" rx="10" fill="white"/>
</clipPath>
<clipPath id="clip3_19683_726490">
<rect x="116" y="115.5" width="20" height="20" rx="10" fill="white"/>
</clipPath>
<clipPath id="clip4_19683_726490">
<rect width="20" height="20" fill="white" transform="translate(233 138.5)"/>
</clipPath>
<clipPath id="clip5_19683_726490">
<rect width="20" height="20" fill="white" transform="translate(232 92.5)"/>
</clipPath>
</defs>

<g clip-path="url(#clip0_19683_726490)">
<rect y="0.5" width="343" height="180" rx="12" fill="#DDF3FF"/>
<rect x="52" y="24.5" width="240" height="218" rx="12" fill="white"/>
<rect x="68" y="61.5" width="188" height="1" fill="#D9D9D9"/>
<path d="M77.5361 52.5V42.6357H75.7793V46.7168H70.9805V42.6357H69.2168V52.5H70.9805V48.2412H75.7793V52.5H77.5361ZM83.0254 52.6504C85.2607 52.6504 86.6211 51.1875 86.6211 48.7607C86.6211 46.3408 85.2539 44.8711 83.0254 44.8711C80.8037 44.8711 79.4297 46.3477 79.4297 48.7607C79.4297 51.1875 80.7832 52.6504 83.0254 52.6504ZM83.0254 51.2285C81.8428 51.2285 81.166 50.3262 81.166 48.7607C81.166 47.2021 81.8428 46.293 83.0254 46.293C84.2012 46.293 84.8779 47.2021 84.8779 48.7607C84.8779 50.3262 84.208 51.2285 83.0254 51.2285ZM83.0254 55.3848C83.5928 55.3848 84.0098 54.9541 84.0098 54.4004C84.0098 53.8398 83.5928 53.4092 83.0254 53.4092C82.4512 53.4092 82.041 53.8398 82.041 54.4004C82.041 54.9541 82.4512 55.3848 83.0254 55.3848ZM92.4043 44.8984C91.3789 44.8984 90.5107 45.4111 90.0801 46.2588H89.9639V45.0215H88.3301V54.9883H90.0254V51.3652H90.1416C90.5244 52.1582 91.3516 52.623 92.4248 52.623C94.3115 52.623 95.4873 51.1465 95.4873 48.7607C95.4873 46.3613 94.2979 44.8984 92.4043 44.8984ZM91.8711 51.1807C90.7158 51.1807 89.998 50.2578 89.9912 48.7607C89.998 47.2705 90.7227 46.3408 91.8779 46.3408C93.04 46.3408 93.7441 47.25 93.7441 48.7607C93.7441 50.2715 93.0469 51.1807 91.8711 51.1807ZM102.802 48.0703H102.686V42.1299H100.99V52.5H102.686V49.8955L103.287 49.2939L105.687 52.5H107.737L104.552 48.2275L107.532 45.0215H105.563L102.802 48.0703ZM109.111 52.5H110.807V48.1592C110.807 47.0859 111.429 46.3613 112.543 46.3613C113.527 46.3613 114.047 46.9424 114.047 48.0771V52.5H115.742V47.6738C115.742 45.8965 114.771 44.8848 113.172 44.8848C112.058 44.8848 111.258 45.3906 110.902 46.2314H110.779V42.1299H109.111V52.5ZM120.309 51.29C119.557 51.29 119.017 50.9141 119.017 50.2852C119.017 49.6768 119.461 49.335 120.411 49.2734L122.1 49.1641V49.7588C122.1 50.627 121.334 51.29 120.309 51.29ZM119.81 52.623C120.787 52.623 121.607 52.1992 122.024 51.4746H122.141V52.5H123.774V47.3936C123.774 45.8076 122.694 44.8711 120.773 44.8711C118.996 44.8711 117.759 45.7119 117.622 47.0312H119.222C119.379 46.5254 119.912 46.252 120.691 46.252C121.607 46.252 122.1 46.6621 122.1 47.3936V48.0225L120.172 48.1387C118.354 48.248 117.335 49.0273 117.335 50.3809C117.335 51.748 118.367 52.623 119.81 52.623ZM121.471 43.7842L123.412 41.4121H121.519L119.816 43.7842H121.471ZM132.278 47.5371C132.101 45.9648 130.938 44.8711 129.018 44.8711C126.769 44.8711 125.449 46.3135 125.449 48.7402C125.449 51.2012 126.775 52.6504 129.024 52.6504C130.918 52.6504 132.094 51.5977 132.278 50.0322H130.665C130.487 50.8115 129.899 51.2285 129.018 51.2285C127.862 51.2285 127.165 50.3125 127.165 48.7402C127.165 47.1885 127.855 46.293 129.018 46.293C129.947 46.293 130.508 46.8125 130.665 47.5371H132.278ZM133.967 52.5H135.662V48.1592C135.662 47.0859 136.284 46.3613 137.398 46.3613C138.383 46.3613 138.902 46.9424 138.902 48.0771V52.5H140.598V47.6738C140.598 45.8965 139.627 44.8848 138.027 44.8848C136.913 44.8848 136.113 45.3906 135.758 46.2314H135.635V42.1299H133.967V52.5ZM146.408 52.5H148.104V48.1592C148.104 47.0859 148.726 46.3613 149.84 46.3613C150.824 46.3613 151.344 46.9424 151.344 48.0771V52.5H153.039V47.6738C153.039 45.8965 152.068 44.8848 150.469 44.8848C149.354 44.8848 148.555 45.3906 148.199 46.2314H148.076V42.1299H146.408V52.5ZM157.605 51.29C156.854 51.29 156.313 50.9141 156.313 50.2852C156.313 49.6768 156.758 49.335 157.708 49.2734L159.396 49.1641V49.7588C159.396 50.627 158.631 51.29 157.605 51.29ZM157.106 52.623C158.084 52.623 158.904 52.1992 159.321 51.4746H159.438V52.5H161.071V47.3936C161.071 45.8076 159.991 44.8711 158.07 44.8711C156.293 44.8711 155.056 45.7119 154.919 47.0312H156.519C156.676 46.5254 157.209 46.252 157.988 46.252C158.904 46.252 159.396 46.6621 159.396 47.3936V48.0225L157.469 48.1387C155.65 48.248 154.632 49.0273 154.632 50.3809C154.632 51.748 155.664 52.623 157.106 52.623ZM159.068 43.7842L157.366 41.4121H155.473L157.414 43.7842H159.068ZM163.115 52.5H164.811V48.1455C164.811 47.0449 165.446 46.3477 166.458 46.3477C167.49 46.3477 167.969 46.9219 167.969 48.0635V52.5H169.664V47.6602C169.664 45.876 168.755 44.8711 167.087 44.8711C165.973 44.8711 165.221 45.3838 164.865 46.2178H164.749V45.0215H163.115V52.5ZM174.887 51.0098C173.704 51.0098 173.034 50.1074 173.034 48.6787C173.034 47.25 173.704 46.3408 174.887 46.3408C176.062 46.3408 176.78 47.25 176.78 48.6787C176.78 50.1074 176.069 51.0098 174.887 51.0098ZM174.887 55.3438C177.067 55.3438 178.448 54.2568 178.448 52.5273V45.0215H176.814V46.2178H176.698C176.288 45.4043 175.399 44.8984 174.381 44.8984C172.474 44.8984 171.291 46.3887 171.291 48.6787C171.291 50.9277 172.467 52.3906 174.354 52.3906C175.393 52.3906 176.206 51.9531 176.637 51.1533H176.753V52.5684C176.753 53.5049 176.076 54.0518 174.914 54.0518C173.984 54.0518 173.383 53.7236 173.273 53.2109H171.571C171.708 54.4961 172.966 55.3438 174.887 55.3438Z" fill="#18202A"/>
<g clip-path="url(#clip1_19683_726490)">
<rect x="68" y="115.5" width="20" height="20" rx="10" fill="#F7EDFF"/>
<path fill-rule="evenodd" clip-rule="evenodd" d="M74.5298 124.597C74.5117 124.426 73.8174 124.227 73.5829 124.787C73.3485 125.346 73.7723 126.139 74.5658 126.202C75.3594 126.265 75.1249 126.121 75.1249 126.121L74.5298 124.597Z" fill="#E4AE7C"/>
<path fill-rule="evenodd" clip-rule="evenodd" d="M81.6002 124.597C81.6182 124.426 82.3126 124.227 82.547 124.787C82.7815 125.346 82.3577 126.139 81.5641 126.202C80.7705 126.265 81.005 126.121 81.005 126.121L81.6002 124.597Z" fill="#E4AE7C"/>
<path fill-rule="evenodd" clip-rule="evenodd" d="M78.0564 135.5H71.6539C71.5817 132.227 74.0976 130.324 76.2619 129.621C76.4332 128.71 76.3881 127.52 76.3881 127.52H78.0474H79.7066C79.7066 127.52 79.6615 128.701 79.8329 129.621C81.9971 130.333 84.513 132.227 84.4409 135.5H78.0564Z" fill="#E4AE7C"/>
<path fill-rule="evenodd" clip-rule="evenodd" d="M79.7247 127.52C79.7247 127.52 79.7157 127.754 79.7247 128.097C79.0935 129.684 77.1277 129.864 76.4062 128.16C76.4153 127.781 76.4062 127.52 76.4062 127.52C77.5064 127.52 78.6156 127.52 79.7247 127.52Z" fill="#D67F54"/>
<path fill-rule="evenodd" clip-rule="evenodd" d="M84.675 135.5C84.7471 132.272 82.2131 130.378 79.9948 129.648C79.5529 130.631 76.5771 130.631 76.1352 129.639C73.9169 130.36 71.3649 132.263 71.437 135.5H84.675V135.5Z" fill="#C53D3F"/>
<path fill-rule="evenodd" clip-rule="evenodd" d="M78.056 128.367C73.9259 128.466 71.8428 118.285 78.056 118.547C84.2691 118.285 82.186 128.466 78.056 128.367Z" fill="#E4AE7C"/>
<path fill-rule="evenodd" clip-rule="evenodd" d="M74.2686 124.065L74.485 123.822C74.5481 123.75 75.7475 126.572 76.036 125.995C76.7484 124.543 79.3726 124.769 79.9136 125.923C80.4457 126.78 81.663 123.921 81.663 123.073C81.663 123.073 81.8073 123.082 81.9787 123.136C81.8344 125.355 80.644 127.681 78.9758 128.285C76.3607 128.881 74.7555 126.626 74.2686 124.065Z" fill="#A87E58"/>
<path fill-rule="evenodd" clip-rule="evenodd" d="M74.332 124.408C74.0434 123.182 73.8992 121.712 74.2599 120.648C74.7017 119.341 76.379 118.556 78.0563 118.547C79.6705 118.538 81.2846 119.241 81.7896 120.45C82.2405 121.523 82.0962 123.11 81.7896 124.408C81.3387 123.723 81.1403 122.497 81.1854 121.757C81.2486 120.63 79.6795 120.035 78.0653 119.99C76.4512 120.044 74.8821 120.63 74.9452 121.757C74.9723 122.497 74.7829 123.714 74.332 124.408Z" fill="#52311D"/>
<path fill-rule="evenodd" clip-rule="evenodd" d="M79.7425 118.98C80.4639 119.737 80.6353 120.098 81.032 120.404C81.2214 120.549 80.3196 120.945 79.7966 120.774C79.8507 120.918 80.1754 121.252 80.1663 121.261C79.8056 121.432 78.6063 121.369 77.8218 120.918C77.8308 121.054 77.8668 121.297 77.9931 121.387C78.0292 121.414 77.5963 121.378 77.4701 121.351C76.7577 121.216 75.378 120.522 75.2607 119.412C75.6305 117.852 78.2456 117.411 79.7425 118.98Z" fill="#52311D"/>
<path fill-rule="evenodd" clip-rule="evenodd" d="M77.6953 131.343C77.6953 131.316 77.7133 131.298 77.7404 131.298C77.7675 131.298 77.7855 131.316 77.7855 131.343V132.966C77.7855 132.993 77.7675 133.011 77.7404 133.011C77.7133 133.011 77.6953 132.993 77.6953 132.966V131.343Z" fill="#632421"/>
<path fill-rule="evenodd" clip-rule="evenodd" d="M78.0744 131.83C78.1646 131.83 78.2367 131.758 78.2367 131.677C78.2367 131.596 78.1646 131.523 78.0744 131.523C77.9842 131.523 77.9121 131.596 77.9121 131.677C77.9121 131.758 77.9842 131.83 78.0744 131.83Z" fill="#632421"/>
<path fill-rule="evenodd" clip-rule="evenodd" d="M78.0744 132.731C78.1646 132.731 78.2367 132.659 78.2367 132.578C78.2367 132.497 78.1646 132.425 78.0744 132.425C77.9842 132.425 77.9121 132.497 77.9121 132.578C77.9121 132.659 77.9842 132.731 78.0744 132.731Z" fill="#632421"/>
<path fill-rule="evenodd" clip-rule="evenodd" d="M73.3579 133.58C73.3579 133.544 73.3849 133.517 73.421 133.517C73.4571 133.517 73.4841 133.544 73.4841 133.58L73.4661 135.428C73.4661 135.464 73.439 135.491 73.403 135.491C73.3669 135.491 73.3398 135.464 73.3398 135.428L73.3579 133.58Z" fill="#632421"/>
<path fill-rule="evenodd" clip-rule="evenodd" d="M82.5737 133.58C82.5737 133.544 82.6008 133.517 82.6368 133.517C82.6729 133.517 82.6999 133.544 82.6999 133.58L82.6819 135.428C82.6819 135.464 82.6549 135.491 82.6188 135.491C82.5827 135.491 82.5557 135.464 82.5557 135.428L82.5737 133.58Z" fill="#632421"/>
<path fill-rule="evenodd" clip-rule="evenodd" d="M78.0563 130.441C78.1014 130.82 77.2627 131.812 77.0553 131.785C76.5504 131.704 75.9191 130.342 75.874 129.693C75.847 129.35 76.388 128.548 76.388 128.557L76.352 129.206C76.3249 129.585 77.0283 130.207 78.0563 130.441Z" fill="#9C393F"/>
<path fill-rule="evenodd" clip-rule="evenodd" d="M78.0564 130.441C78.0114 130.82 78.85 131.812 79.0574 131.785C79.5624 131.703 80.1936 130.342 80.2387 129.692C80.2658 129.35 79.7337 128.529 79.7337 128.538L79.7698 129.187C79.7878 129.566 79.0845 130.206 78.0564 130.441Z" fill="#9C393F"/>
<path fill-rule="evenodd" clip-rule="evenodd" d="M75.8558 120.097C75.9009 120.224 75.946 120.332 76.0091 120.449C76.1444 120.711 76.2887 120.918 76.4961 121.125C76.5141 121.143 76.7666 121.405 76.7666 121.423C76.7125 121.522 76.4239 121.351 76.3698 121.324C76.0632 121.171 75.8468 120.936 75.6574 120.647C75.5672 120.503 75.5041 120.386 75.45 120.224C75.3779 119.971 75.2606 119.683 75.5492 119.692C75.8107 119.692 75.7566 119.791 75.8558 120.097Z" fill="#52311D"/>
<path fill-rule="evenodd" clip-rule="evenodd" d="M76.9824 125.661C77.3612 125.652 77.7399 125.652 78.1186 125.652C78.4974 125.652 78.8761 125.652 79.2549 125.661C79.2549 126.257 78.6687 126.473 78.1186 126.473C77.5776 126.464 76.9824 126.257 76.9824 125.661Z" fill="white"/>
<path fill-rule="evenodd" clip-rule="evenodd" d="M77.8663 126.825C77.8483 126.816 77.8392 126.789 77.8483 126.762C77.8573 126.744 77.8843 126.735 77.9114 126.744C77.9745 126.78 78.0557 126.798 78.1278 126.798C78.209 126.798 78.2811 126.78 78.3442 126.744C78.3623 126.735 78.3893 126.735 78.4074 126.762C78.4164 126.78 78.4164 126.807 78.3893 126.825C78.3172 126.87 78.218 126.888 78.1278 126.888C78.0376 126.888 77.9384 126.87 77.8663 126.825Z" fill="#906949"/>
<path fill-rule="evenodd" clip-rule="evenodd" d="M82.2945 125.22C82.2945 125.247 82.2764 125.265 82.2494 125.265C82.2223 125.265 82.2043 125.247 82.2043 125.22C82.2043 125.085 82.1772 124.994 82.1412 124.949C82.1141 124.922 82.0871 124.904 82.06 124.904C82.0239 124.904 81.9789 124.913 81.9338 124.94C81.8165 125.003 81.6903 125.148 81.6272 125.301C81.5911 125.373 81.564 125.454 81.555 125.508C81.6272 125.463 81.6993 125.445 81.7624 125.445C81.7985 125.445 81.8346 125.463 81.8616 125.481C81.8887 125.499 81.9067 125.526 81.9247 125.563C81.9428 125.626 81.9247 125.707 81.8616 125.806C81.8436 125.824 81.8165 125.833 81.7985 125.815C81.7805 125.797 81.7714 125.77 81.7895 125.752C81.8346 125.68 81.8526 125.626 81.8436 125.581C81.8346 125.563 81.8255 125.553 81.8165 125.544C81.7985 125.535 81.7805 125.526 81.7624 125.526C81.7083 125.517 81.6362 125.544 81.5731 125.608C81.555 125.626 81.546 125.635 81.528 125.635C81.4919 125.644 81.4739 125.626 81.4648 125.59C81.4648 125.581 81.4648 125.563 81.4648 125.535C81.4739 125.472 81.5099 125.355 81.564 125.256C81.6362 125.085 81.7714 124.931 81.9067 124.85C81.9608 124.814 82.0239 124.796 82.078 124.805C82.1322 124.805 82.1863 124.832 82.2313 124.877C82.2584 124.958 82.2945 125.067 82.2945 125.22Z" fill="#D67F54"/>
<path fill-rule="evenodd" clip-rule="evenodd" d="M73.9076 125.22C73.9076 125.247 73.8895 125.265 73.8625 125.265C73.8354 125.265 73.8174 125.247 73.8174 125.22C73.8174 125.058 73.8444 124.959 73.8985 124.895C73.9436 124.841 73.9887 124.823 74.0518 124.823C74.1059 124.823 74.1601 124.841 74.2232 124.868C74.3584 124.94 74.4937 125.103 74.5658 125.274C74.6109 125.382 74.647 125.491 74.665 125.554C74.665 125.572 74.665 125.59 74.665 125.608C74.656 125.644 74.638 125.662 74.6019 125.653C74.5839 125.653 74.5749 125.644 74.5568 125.626C74.4937 125.563 74.4216 125.536 74.3675 125.545C74.3494 125.545 74.3314 125.554 74.3134 125.563C74.3043 125.572 74.2953 125.581 74.2863 125.599C74.2773 125.635 74.2863 125.689 74.3404 125.77C74.3584 125.788 74.3494 125.815 74.3314 125.833C74.3134 125.851 74.2863 125.842 74.2683 125.824C74.2051 125.725 74.1871 125.644 74.2051 125.581C74.2142 125.545 74.2412 125.518 74.2683 125.5C74.2953 125.482 74.3314 125.473 74.3675 125.463C74.4306 125.454 74.5117 125.473 74.5749 125.527C74.5568 125.473 74.5298 125.391 74.5027 125.319C74.4396 125.166 74.3134 125.022 74.1961 124.959C74.151 124.931 74.115 124.922 74.0699 124.922C74.0338 124.922 74.0068 124.94 73.9887 124.968C73.9346 125.004 73.9076 125.085 73.9076 125.22Z" fill="#D67F54"/>
<path fill-rule="evenodd" clip-rule="evenodd" d="M76.1259 118.881C76.1349 118.854 76.153 118.845 76.18 118.845C76.2071 118.854 76.2161 118.872 76.2161 118.899C76.1259 119.341 76.2431 119.737 76.4686 120.071C76.7662 120.513 77.2441 120.856 77.704 121.081C77.722 121.09 77.731 121.117 77.722 121.144C77.713 121.162 77.686 121.171 77.6589 121.162C77.19 120.928 76.694 120.576 76.3874 120.116C76.153 119.765 76.0267 119.35 76.1259 118.881Z" fill="#6C452C"/>
<path fill-rule="evenodd" clip-rule="evenodd" d="M76.5049 118.556C76.5049 118.529 76.5229 118.511 76.541 118.502C76.568 118.502 76.586 118.52 76.5951 118.538C76.6401 118.89 76.9197 119.314 77.3165 119.692C77.7313 120.098 78.2723 120.468 78.7773 120.666C79.7693 121.054 79.8414 121.054 79.8414 121.054C79.8685 121.054 79.8865 121.072 79.8865 121.099C79.8865 121.126 79.8685 121.144 79.8414 121.144C79.8414 121.144 79.7512 121.144 78.7503 120.747C78.2363 120.54 77.6862 120.17 77.2533 119.755C76.8385 119.368 76.55 118.926 76.5049 118.556Z" fill="#6C452C"/>
<path fill-rule="evenodd" clip-rule="evenodd" d="M77.3979 118.357C77.3888 118.33 77.4069 118.312 77.4339 118.303C77.461 118.294 77.479 118.312 77.488 118.339C77.5602 118.637 77.8127 118.961 78.1463 119.241C78.489 119.521 78.9309 119.755 79.3547 119.872C80.2204 120.098 80.3015 120.107 80.3015 120.107C80.3286 120.107 80.3466 120.134 80.3376 120.161C80.3376 120.188 80.3106 120.206 80.2835 120.197C80.2835 120.197 80.2023 120.188 79.3367 119.962C78.8948 119.845 78.4439 119.611 78.0922 119.313C77.7405 119.016 77.479 118.673 77.3979 118.357Z" fill="#6C452C"/>
<path fill-rule="evenodd" clip-rule="evenodd" d="M77.1271 126.077C77.1001 126.077 77.082 126.058 77.082 126.031C77.082 126.004 77.1001 125.986 77.1271 125.986H79.129C79.1561 125.986 79.1741 126.004 79.1741 126.031C79.1741 126.058 79.1561 126.077 79.129 126.077H77.1271Z" fill="#AFB0B0"/>
</g>
<g clip-path="url(#clip2_19683_726490)">
<rect x="92" y="115.5" width="20" height="20" rx="10" fill="#DDF3FF"/>
<path fill-rule="evenodd" clip-rule="evenodd" d="M99.2913 122.327C99.4719 122.817 99.6095 126.531 98.8786 126.815C96.3763 127.787 96.6945 130.994 98.8012 132.207C102.782 134.494 103.41 121.57 103.376 120.934C103.35 120.443 103.866 120.676 103.832 120.306C103.694 118.586 102.215 117.872 101.14 118.019C99.6525 118.216 98.44 120.005 99.2913 122.327Z" fill="#23142B"/>
<path fill-rule="evenodd" clip-rule="evenodd" d="M101.622 121.175C102.241 121.175 102.748 120.745 102.748 120.22C102.748 119.696 102.241 119.266 101.622 119.266C101.002 119.266 100.495 119.696 100.495 120.22C100.504 120.745 101.002 121.175 101.622 121.175Z" fill="#E3A64A"/>
<path fill-rule="evenodd" clip-rule="evenodd" d="M102.894 129.524L102.851 128.148H100.358L100.263 129.524C100.22 130.135 98.913 130.341 98.4056 130.651C96.8923 131.571 95.568 133.144 95.6196 135.449H107.581C107.632 133.273 106.454 131.743 105.035 130.805C104.356 130.341 102.911 130.006 102.894 129.524Z" fill="#E4AE7C"/>
<path fill-rule="evenodd" clip-rule="evenodd" d="M100.28 129.283C101.046 129.989 102.103 130.006 102.886 129.326L102.851 128.148H100.358L100.28 129.283Z" fill="#D67F54"/>
<path fill-rule="evenodd" clip-rule="evenodd" d="M101.544 129.206C97.9151 129.326 96.0836 119.738 101.544 119.996C101.561 119.996 101.587 119.996 101.604 119.996C101.621 119.996 101.647 119.996 101.664 119.996C107.125 119.747 105.293 129.326 101.664 129.214C101.647 129.214 101.621 129.214 101.604 129.214C101.587 129.206 101.57 129.214 101.544 129.206Z" fill="#E4AE7C"/>
<path fill-rule="evenodd" clip-rule="evenodd" d="M98.311 125.198C98.2938 125.035 97.6403 124.846 97.4253 125.37C97.2103 125.895 97.5973 126.634 98.3368 126.695C99.0763 126.755 98.8613 126.626 98.8613 126.626L98.311 125.198Z" fill="#E4AE7C"/>
<path fill-rule="evenodd" clip-rule="evenodd" d="M104.907 125.198C104.924 125.035 105.577 124.846 105.792 125.37C106.007 125.895 105.62 126.634 104.881 126.695C104.141 126.755 104.356 126.626 104.356 126.626L104.907 125.198Z" fill="#E4AE7C"/>
<path fill-rule="evenodd" clip-rule="evenodd" d="M100.615 127.245C101.277 127.236 101.939 127.236 102.602 127.245C102.111 128.199 101.105 128.199 100.615 127.245Z" fill="#88342A"/>
<path fill-rule="evenodd" clip-rule="evenodd" d="M102.121 127.804C101.794 128.019 101.416 128.019 101.089 127.804C101.424 127.598 101.803 127.598 102.121 127.804Z" fill="#D17B65"/>
<path fill-rule="evenodd" clip-rule="evenodd" d="M97.7266 125.757C97.7266 125.783 97.7094 125.8 97.6836 125.8C97.6578 125.8 97.6406 125.783 97.6406 125.757C97.6406 125.602 97.6664 125.508 97.718 125.448C97.761 125.396 97.804 125.379 97.8642 125.379C97.9158 125.379 97.9674 125.396 98.0276 125.422C98.1566 125.491 98.2855 125.645 98.3543 125.809C98.3973 125.912 98.4317 126.015 98.4489 126.075C98.4489 126.093 98.4489 126.11 98.4489 126.127C98.4403 126.161 98.4231 126.179 98.3887 126.17C98.3715 126.17 98.3629 126.161 98.3457 126.144C98.2855 126.084 98.2167 126.058 98.1652 126.067C98.148 126.067 98.1308 126.075 98.1136 126.084C98.105 126.093 98.0964 126.101 98.0878 126.118C98.0792 126.153 98.0878 126.204 98.1394 126.282C98.1566 126.299 98.148 126.325 98.1308 126.342C98.1136 126.359 98.0878 126.351 98.0706 126.333C98.0104 126.239 97.9932 126.161 98.0104 126.101C98.019 126.067 98.0448 126.041 98.0706 126.024C98.0964 126.007 98.1308 125.998 98.1652 125.989C98.2253 125.981 98.2941 125.998 98.3629 126.05C98.3457 125.998 98.3199 125.921 98.2941 125.852C98.2339 125.706 98.1136 125.568 98.0018 125.508C97.9588 125.482 97.9244 125.473 97.8814 125.473C97.847 125.473 97.8212 125.491 97.804 125.516C97.7524 125.542 97.7266 125.628 97.7266 125.757Z" fill="#D67F54"/>
<path fill-rule="evenodd" clip-rule="evenodd" d="M105.56 125.757C105.56 125.783 105.542 125.8 105.517 125.8C105.491 125.8 105.474 125.783 105.474 125.757C105.474 125.628 105.448 125.542 105.413 125.499C105.388 125.473 105.362 125.456 105.336 125.456C105.302 125.456 105.259 125.465 105.216 125.491C105.104 125.551 104.984 125.688 104.923 125.835C104.889 125.903 104.863 125.981 104.855 126.032C104.923 125.989 104.992 125.972 105.052 125.972C105.087 125.972 105.121 125.989 105.147 126.006C105.173 126.024 105.19 126.049 105.207 126.084C105.224 126.144 105.207 126.221 105.147 126.316C105.13 126.333 105.104 126.342 105.087 126.325C105.07 126.307 105.061 126.282 105.078 126.264C105.121 126.196 105.138 126.144 105.13 126.101C105.121 126.084 105.113 126.075 105.104 126.067C105.087 126.058 105.07 126.049 105.052 126.049C105.001 126.041 104.932 126.067 104.872 126.127C104.855 126.144 104.846 126.153 104.829 126.153C104.794 126.161 104.777 126.144 104.769 126.11C104.769 126.101 104.769 126.084 104.769 126.058C104.777 125.998 104.812 125.886 104.863 125.792C104.932 125.628 105.061 125.482 105.19 125.405C105.241 125.37 105.302 125.353 105.353 125.362C105.405 125.362 105.456 125.387 105.499 125.43C105.525 125.508 105.56 125.602 105.56 125.757Z" fill="#D67F54"/>
<path fill-rule="evenodd" clip-rule="evenodd" d="M101.363 128.346C101.346 128.338 101.338 128.312 101.346 128.286C101.355 128.269 101.381 128.26 101.406 128.269C101.467 128.303 101.544 128.32 101.613 128.32C101.69 128.32 101.759 128.303 101.819 128.269C101.836 128.26 101.862 128.26 101.879 128.286C101.888 128.303 101.888 128.329 101.862 128.346C101.793 128.389 101.699 128.406 101.613 128.406C101.518 128.406 101.432 128.389 101.363 128.346Z" fill="#D67F54"/>
<path fill-rule="evenodd" clip-rule="evenodd" d="M101.303 127.529C101.673 127.529 102.043 127.529 102.412 127.529C102.481 127.443 102.541 127.348 102.602 127.245C102.258 127.236 101.905 127.236 101.561 127.236C101.243 127.236 100.925 127.236 100.615 127.245C100.667 127.357 100.736 127.451 100.804 127.529C100.968 127.529 101.14 127.529 101.303 127.529Z" fill="#EBEBEB"/>
<path fill-rule="evenodd" clip-rule="evenodd" d="M97.9668 130.177C97.9754 130.203 97.9668 130.22 97.941 130.229C97.9152 130.238 97.898 130.229 97.8894 130.203C97.7604 129.868 97.7002 129.429 97.7518 129.017C97.7948 128.655 97.9152 128.32 98.1388 128.079C98.6117 127.572 98.6547 127.546 98.6547 127.546C98.6719 127.538 98.6977 127.538 98.7149 127.563C98.7235 127.581 98.7235 127.606 98.6977 127.624C98.6977 127.624 98.6633 127.641 98.199 128.139C97.9926 128.363 97.8722 128.69 97.8378 129.025C97.7862 129.429 97.8464 129.851 97.9668 130.177Z" fill="#4E3B52"/>
<path fill-rule="evenodd" clip-rule="evenodd" d="M98.208 124.288C98.6294 124.606 100.375 124.898 101.983 124.537C103.591 124.176 104.012 123.359 104.012 123.359C104.012 123.359 104.606 124.159 104.649 124.786C104.683 125.405 105.19 122.637 104.287 122.112C103.385 121.596 99.0507 121.596 98.208 124.288Z" fill="#D67F54"/>
<path fill-rule="evenodd" clip-rule="evenodd" d="M98.2167 123.255C98.4058 121.303 99.3775 119.721 101.613 119.893C104.081 119.833 105.07 121.845 105.096 124.063C104.984 124.012 104.881 123.969 104.769 123.926C104.812 123.616 104.554 122.412 104.339 122.619C101.338 125.482 98.0189 124.08 98.1307 123.969C98.1737 123.908 98.2081 123.324 98.2167 123.255Z" fill="#35253D"/>
<path fill-rule="evenodd" clip-rule="evenodd" d="M98.4055 125.74C98.6377 126.144 98.6377 126.144 98.6377 126.144C98.6377 120.28 103.015 119.738 104.296 123.479C104.64 124.493 104.545 125.087 104.545 126.144C104.545 126.144 104.545 126.144 104.777 125.74C105.224 124.958 105.448 124.347 105.422 123.376C105.405 122.757 105.293 122.146 105.078 121.716C103.857 119.248 99.79 119.136 98.311 121.381C97.4511 122.688 97.666 124.442 98.4055 125.74Z" fill="#35253D"/>
<path fill-rule="evenodd" clip-rule="evenodd" d="M103.952 123.1C103.711 123.478 103.066 124.192 102.267 124.269C102.611 123.994 102.972 123.642 103.187 123.367C103.427 123.048 103.513 122.816 103.806 122.515C103.926 122.386 104.021 122.438 104.021 122.438C104.313 122.55 104.107 122.816 103.952 123.1Z" fill="#35253D"/>
<path fill-rule="evenodd" clip-rule="evenodd" d="M98.7414 123.65C98.7156 123.65 98.707 123.625 98.707 123.599C98.707 123.573 98.7328 123.564 98.7586 123.564C99.3004 123.668 100.023 123.668 100.779 123.478C101.381 123.324 102.009 123.057 102.585 122.61C103.866 121.613 103.806 120.916 103.806 120.916C103.806 120.89 103.823 120.873 103.849 120.873C103.875 120.873 103.892 120.89 103.892 120.916C103.892 120.916 103.961 121.664 102.637 122.687C102.052 123.143 101.416 123.418 100.805 123.573C100.031 123.754 99.2918 123.754 98.7414 123.65Z" fill="#4E3B52"/>
<path fill-rule="evenodd" clip-rule="evenodd" d="M98.5864 123.402C98.5606 123.402 98.5434 123.376 98.552 123.359C98.552 123.333 98.5778 123.316 98.595 123.324C99.0078 123.367 99.6097 123.23 100.203 122.963C100.745 122.723 101.286 122.37 101.665 121.949C102.456 121.072 102.482 120.599 102.482 120.599C102.482 120.573 102.508 120.556 102.525 120.556C102.551 120.556 102.568 120.581 102.568 120.599C102.568 120.599 102.542 121.097 101.725 122C101.338 122.43 100.788 122.783 100.229 123.032C99.6355 123.299 99.0164 123.445 98.5864 123.402Z" fill="#4E3B52"/>
<path fill-rule="evenodd" clip-rule="evenodd" d="M98.5861 122.972C98.5603 122.98 98.5431 122.972 98.5345 122.946C98.5259 122.92 98.5345 122.903 98.5603 122.894C98.9988 122.722 99.6781 122.335 100.237 121.785C100.633 121.389 100.968 120.908 101.106 120.358C101.114 120.332 101.131 120.323 101.157 120.323C101.183 120.332 101.192 120.349 101.192 120.375C101.045 120.934 100.71 121.432 100.297 121.837C99.7297 122.404 99.0418 122.8 98.5861 122.972Z" fill="#4E3B52"/>
<path fill-rule="evenodd" clip-rule="evenodd" d="M101.639 132.361C100.212 132.336 98.7758 132.095 97.2538 131.527C96.4971 132.25 95.9124 133.196 95.7061 134.374L97.4172 135.448H101.648H105.878L107.512 134.348C107.297 133.196 106.721 132.275 105.99 131.553C104.477 132.095 103.049 132.336 101.639 132.361Z" fill="#1F1D2E"/>
<path d="M98.3029 127.993C98.4216 127.993 98.5178 127.716 98.5178 127.374C98.5178 127.032 98.4216 126.755 98.3029 126.755C98.1841 126.755 98.0879 127.032 98.0879 127.374C98.0879 127.716 98.1841 127.993 98.3029 127.993Z" fill="#F0CA0C"/>
<path fill-rule="evenodd" clip-rule="evenodd" d="M104.923 127.993C105.044 127.993 105.138 127.709 105.138 127.374C105.138 127.03 105.044 126.755 104.923 126.755C104.803 126.755 104.709 127.039 104.709 127.374C104.7 127.718 104.803 127.993 104.923 127.993Z" fill="#F0CA0C"/>
<path fill-rule="evenodd" clip-rule="evenodd" d="M98.3022 126.789C98.3882 126.789 98.457 126.72 98.457 126.634C98.457 126.548 98.3882 126.479 98.3022 126.479C98.2163 126.479 98.1475 126.548 98.1475 126.634C98.1475 126.72 98.2163 126.789 98.3022 126.789Z" fill="#F0CA0C"/>
<path fill-rule="evenodd" clip-rule="evenodd" d="M104.923 126.789C105.009 126.789 105.078 126.72 105.078 126.634C105.078 126.548 105.009 126.479 104.923 126.479C104.837 126.479 104.769 126.548 104.769 126.634C104.769 126.72 104.837 126.789 104.923 126.789Z" fill="#F0CA0C"/>
<path fill-rule="evenodd" clip-rule="evenodd" d="M101.363 128.346C101.346 128.338 101.338 128.312 101.346 128.286C101.355 128.269 101.381 128.26 101.406 128.269C101.467 128.303 101.544 128.32 101.613 128.32C101.69 128.32 101.759 128.303 101.819 128.269C101.836 128.26 101.862 128.26 101.879 128.286C101.888 128.303 101.888 128.329 101.862 128.346C101.793 128.389 101.699 128.406 101.613 128.406C101.518 128.406 101.432 128.389 101.363 128.346Z" fill="#D67F54"/>
<path fill-rule="evenodd" clip-rule="evenodd" d="M97.5025 133.677C97.5025 133.643 97.5283 133.617 97.5627 133.617C97.5971 133.617 97.6229 133.643 97.6229 133.677L97.6057 135.44C97.6057 135.475 97.5799 135.5 97.5455 135.5C97.5111 135.5 97.4854 135.475 97.4854 135.44L97.5025 133.677Z" fill="#0E0A1F"/>
<path fill-rule="evenodd" clip-rule="evenodd" d="M105.603 133.677C105.603 133.643 105.629 133.617 105.663 133.617C105.698 133.617 105.724 133.643 105.724 133.677L105.706 135.44C105.706 135.475 105.681 135.5 105.646 135.5C105.612 135.5 105.586 135.475 105.586 135.44L105.603 133.677Z" fill="#0E0A1F"/>
</g>
<g clip-path="url(#clip3_19683_726490)">
<rect x="116" y="115.5" width="20" height="20" rx="10" fill="#FFE5F0"/>
<path fill-rule="evenodd" clip-rule="evenodd" d="M122.741 124.953C122.724 124.787 122.053 124.595 121.826 125.136C121.599 125.676 122.009 126.443 122.776 126.504C123.543 126.565 123.317 126.426 123.317 126.426L122.741 124.953Z" fill="#E4AE7C"/>
<path fill-rule="evenodd" clip-rule="evenodd" d="M129.567 124.953C129.584 124.787 130.255 124.595 130.482 125.136C130.709 125.676 130.299 126.443 129.532 126.504C128.765 126.565 128.991 126.426 128.991 126.426L129.567 124.953Z" fill="#E4AE7C"/>
<path fill-rule="evenodd" clip-rule="evenodd" d="M126.15 135.491H119.96C119.891 132.327 122.323 130.487 124.415 129.807C124.581 128.927 124.537 127.776 124.537 127.776H126.141H127.745C127.745 127.776 127.701 128.918 127.867 129.807C129.959 130.496 132.391 132.327 132.321 135.491H126.15Z" fill="#E4AE7C"/>
<path fill-rule="evenodd" clip-rule="evenodd" d="M127.754 127.776C127.754 127.776 127.745 128.003 127.754 128.334C127.144 129.869 125.243 130.043 124.546 128.395C124.555 128.029 124.546 127.776 124.546 127.776C125.609 127.776 126.682 127.776 127.754 127.776Z" fill="#CA976D"/>
<path fill-rule="evenodd" clip-rule="evenodd" d="M132.548 135.491C132.618 132.371 130.169 130.54 128.024 129.834C127.597 130.784 124.72 130.784 124.293 129.825C122.149 130.523 119.682 132.362 119.751 135.491H132.548V135.491Z" fill="#312F58"/>
<path fill-rule="evenodd" clip-rule="evenodd" d="M127.754 130.147C127.022 130.688 125.252 130.679 124.537 130.13V130.409L124.912 135.5H127.37L127.745 130.409V130.147H127.754Z" fill="#536B8F"/>
<path fill-rule="evenodd" clip-rule="evenodd" d="M126.15 128.596C122.158 128.691 120.144 118.85 126.15 119.102C132.156 118.85 130.143 128.691 126.15 128.596Z" fill="#E4AE7C"/>
<path fill-rule="evenodd" clip-rule="evenodd" d="M125.112 125.98C125.478 125.972 125.845 125.972 126.211 125.972C126.577 125.972 126.943 125.972 127.309 125.98C127.309 126.556 126.742 126.765 126.211 126.765C125.679 126.756 125.112 126.556 125.112 125.98Z" fill="white"/>
<path fill-rule="evenodd" clip-rule="evenodd" d="M125.958 127.105C125.941 127.096 125.932 127.07 125.941 127.044C125.95 127.027 125.976 127.018 126.002 127.027C126.063 127.062 126.141 127.079 126.211 127.079C126.29 127.079 126.359 127.062 126.42 127.027C126.438 127.018 126.464 127.018 126.481 127.044C126.49 127.062 126.49 127.088 126.464 127.105C126.394 127.149 126.298 127.166 126.211 127.166C126.124 127.166 126.037 127.149 125.958 127.105Z" fill="#D67F54"/>
<path fill-rule="evenodd" clip-rule="evenodd" d="M130.247 125.554C130.247 125.58 130.23 125.597 130.204 125.597C130.178 125.597 130.16 125.58 130.16 125.554C130.16 125.423 130.134 125.336 130.099 125.292C130.073 125.266 130.047 125.249 130.021 125.249C129.986 125.249 129.942 125.257 129.899 125.283C129.785 125.344 129.663 125.484 129.602 125.632C129.567 125.702 129.541 125.78 129.532 125.833C129.602 125.789 129.672 125.772 129.733 125.772C129.768 125.772 129.803 125.789 129.829 125.806C129.855 125.824 129.872 125.85 129.89 125.885C129.907 125.946 129.89 126.024 129.829 126.12C129.811 126.138 129.785 126.146 129.768 126.129C129.75 126.112 129.742 126.085 129.759 126.068C129.803 125.998 129.82 125.946 129.811 125.902C129.803 125.885 129.794 125.876 129.785 125.867C129.768 125.859 129.75 125.85 129.733 125.85C129.681 125.841 129.611 125.867 129.55 125.928C129.532 125.946 129.524 125.955 129.506 125.955C129.471 125.963 129.454 125.946 129.445 125.911C129.445 125.902 129.445 125.885 129.445 125.859C129.454 125.798 129.489 125.684 129.541 125.588C129.611 125.423 129.742 125.275 129.872 125.196C129.925 125.161 129.986 125.144 130.038 125.153C130.09 125.153 130.143 125.179 130.186 125.222C130.212 125.301 130.247 125.405 130.247 125.554Z" fill="#D67F54"/>
<path fill-rule="evenodd" clip-rule="evenodd" d="M122.14 125.553C122.14 125.58 122.122 125.597 122.096 125.597C122.07 125.597 122.053 125.58 122.053 125.553C122.053 125.397 122.079 125.301 122.131 125.24C122.175 125.187 122.218 125.17 122.279 125.17C122.332 125.17 122.384 125.187 122.445 125.214C122.576 125.283 122.707 125.44 122.776 125.606C122.82 125.71 122.855 125.815 122.872 125.876C122.872 125.893 122.872 125.911 122.872 125.928C122.863 125.963 122.846 125.981 122.811 125.972C122.794 125.972 122.785 125.963 122.768 125.946C122.707 125.885 122.637 125.859 122.584 125.867C122.567 125.867 122.55 125.876 122.532 125.885C122.523 125.893 122.515 125.902 122.506 125.92C122.497 125.954 122.506 126.007 122.558 126.085C122.576 126.103 122.567 126.129 122.55 126.146C122.532 126.164 122.506 126.155 122.489 126.138C122.428 126.042 122.41 125.963 122.428 125.902C122.436 125.867 122.462 125.841 122.489 125.824C122.515 125.806 122.55 125.798 122.584 125.789C122.646 125.78 122.724 125.798 122.785 125.85C122.768 125.798 122.741 125.719 122.715 125.649C122.654 125.501 122.532 125.362 122.419 125.301C122.375 125.275 122.34 125.266 122.297 125.266C122.262 125.266 122.236 125.283 122.218 125.309C122.166 125.344 122.14 125.423 122.14 125.553Z" fill="#D67F54"/>
<path fill-rule="evenodd" clip-rule="evenodd" d="M122.776 125.562C122.498 125.022 122.236 123.976 122.201 123.017C122.166 122.162 122.323 121.395 122.559 120.907C123.23 119.521 124.747 118.71 126.089 118.745C126.106 118.745 126.133 118.745 126.15 118.745C126.167 118.745 126.194 118.745 126.211 118.745C127.554 118.71 129.07 119.512 129.742 120.907C129.968 121.387 130.134 122.162 130.099 123.017C130.064 123.984 129.803 125.03 129.524 125.562C129.619 124.333 129.341 123.801 129.062 123.522C128.443 122.816 128.556 122.319 128.591 122.128C128.617 121.962 129.367 121.36 129.297 121.142C129.07 120.428 126.865 121.238 126.281 121.238C126.263 121.238 126.237 121.238 126.22 121.238C126.202 121.238 126.176 121.238 126.159 121.238C126.141 121.238 126.115 121.238 126.098 121.238C126.08 121.238 126.054 121.238 126.037 121.238C125.444 121.238 123.238 120.428 123.021 121.142C122.951 121.36 123.7 121.953 123.727 122.128C123.753 122.319 123.875 122.825 123.256 123.522C122.96 123.801 122.689 124.333 122.776 125.562Z" fill="#3F2716"/>
<path fill-rule="evenodd" clip-rule="evenodd" d="M124.511 129.258C124.18 129.005 122.672 133.137 123.003 132.85C123.265 132.614 124.049 131.516 124.747 132.946C124.616 131.612 124.599 129.886 124.511 129.258Z" fill="#424B72"/>
<path fill-rule="evenodd" clip-rule="evenodd" d="M127.789 129.258C128.12 129.005 129.628 133.137 129.297 132.85C129.036 132.614 128.251 131.516 127.554 132.946C127.684 131.612 127.702 129.886 127.789 129.258Z" fill="#424B72"/>
<path fill-rule="evenodd" clip-rule="evenodd" d="M122.933 121.195C123.36 121.762 124.118 121.971 125.348 122.128C126.507 122.276 127.893 122.119 128.808 121.666C130.22 120.96 130.09 118.998 129.942 119.068C128.207 119.896 127.614 118.545 126.367 118.161C125.426 117.874 124.162 117.865 123.151 119.033C122.593 119.678 122.445 120.541 122.933 121.195Z" fill="#52311D"/>
<path fill-rule="evenodd" clip-rule="evenodd" d="M121.635 133.634C121.635 133.599 121.661 133.573 121.696 133.573C121.731 133.573 121.757 133.599 121.757 133.634L121.739 135.421C121.739 135.456 121.713 135.482 121.678 135.482C121.643 135.482 121.617 135.456 121.617 135.421L121.635 133.634Z" fill="#1E1F42"/>
<path fill-rule="evenodd" clip-rule="evenodd" d="M130.544 133.634C130.544 133.599 130.57 133.573 130.605 133.573C130.64 133.573 130.666 133.599 130.666 133.634L130.648 135.421C130.648 135.456 130.622 135.482 130.587 135.482C130.553 135.482 130.526 135.456 130.526 135.421L130.544 133.634Z" fill="#1E1F42"/>
</g>
<path fill-rule="evenodd" clip-rule="evenodd" d="M72.5 79.5C72.5 82.5376 74.9624 85 78 85C81.0376 85 83.5 82.5376 83.5 79.5C83.5 76.4624 81.0376 74 78 74C74.9624 74 72.5 76.4624 72.5 79.5ZM78 76C78.2761 76 78.5 76.2239 78.5 76.5V79.5C78.5 79.7761 78.2761 80 78 80H75.5C75.2239 80 75 79.7761 75 79.5C75 79.2239 75.2239 79 75.5 79H77.5V76.5C77.5 76.2239 77.7239 76 78 76Z" fill="#1A99F4"/>
<rect x="92" y="77.5" width="36" height="4" rx="2" fill="#C3C7CC"/>
<rect x="132" y="77.5" width="36" height="4" rx="2" fill="#DADDE1"/>
<path fill-rule="evenodd" clip-rule="evenodd" d="M73.3413 99.6766C73.5245 100.598 73.9769 101.444 74.6412 102.109L76.8808 104.53C77.0277 104.677 77.2021 104.794 77.3941 104.874C77.5862 104.953 77.7921 104.994 78 104.994C78.2079 104.994 78.4138 104.953 78.6059 104.874C78.7979 104.794 78.9724 104.677 79.1194 104.53L81.3588 102.109C82.0231 101.444 82.4755 100.598 82.6587 99.6766C82.842 98.7552 82.7479 97.8001 82.3884 96.9322C82.0289 96.0643 81.4201 95.3224 80.6389 94.8005C79.8578 94.2786 78.9395 94 78 94C77.0605 94 76.1422 94.2786 75.3611 94.8005C74.5799 95.3224 73.9711 96.0643 73.6116 96.9322C73.2521 97.8001 73.158 98.7552 73.3413 99.6766ZM77 98.5C77 99.0523 77.4477 99.5 78 99.5C78.5523 99.5 79 99.0523 79 98.5C79 97.9477 78.5523 97.5 78 97.5C77.4477 97.5 77 97.9477 77 98.5ZM76 98.5C76 99.6046 76.8954 100.5 78 100.5C79.1046 100.5 80 99.6046 80 98.5C80 97.3954 79.1046 96.5 78 96.5C76.8954 96.5 76 97.3954 76 98.5Z" fill="#FFA940"/>
<rect x="92" y="97.5" width="113" height="4" rx="2" fill="#ECEEF1"/>
<rect x="68" y="147.5" width="182" height="4" rx="2" fill="#ECEEF1"/>
<rect x="68" y="157.5" width="182" height="4" rx="2" fill="#ECEEF1"/>
<rect x="68" y="167.5" width="65" height="4" rx="2" fill="#ECEEF1"/>
<rect x="224" y="132.5" width="98" height="32" rx="4" fill="#EDF8BF"/>
<g clip-path="url(#clip4_19683_726490)">
<path d="M247.584 143.5H250.834C250.875 143.5 250.916 143.488 250.95 143.465C250.984 143.442 251.011 143.41 251.027 143.372C251.043 143.334 251.047 143.292 251.039 143.251C251.031 143.211 251.011 143.174 250.981 143.144L246.69 138.856C246.661 138.827 246.624 138.807 246.584 138.799C246.544 138.791 246.502 138.795 246.464 138.81C246.426 138.826 246.393 138.852 246.37 138.886C246.347 138.919 246.335 138.959 246.334 139V142.25C246.334 142.582 246.466 142.9 246.7 143.134C246.935 143.369 247.252 143.5 247.584 143.5Z" fill="#58AA2C"/>
<path d="M251.273 144.394C251.312 144.433 251.334 144.486 251.334 144.542V156.833C251.334 157.275 251.158 157.699 250.846 158.012C250.533 158.324 250.109 158.5 249.667 158.5H236.334C235.892 158.5 235.468 158.324 235.155 158.012C234.843 157.699 234.667 157.275 234.667 156.833V140.167C234.667 139.725 234.843 139.301 235.155 138.988C235.468 138.676 235.892 138.5 236.334 138.5H245.292C245.347 138.5 245.4 138.522 245.439 138.561C245.478 138.6 245.5 138.653 245.5 138.708V142.25C245.5 142.803 245.72 143.332 246.111 143.723C246.501 144.114 247.031 144.333 247.584 144.333H251.125C251.181 144.333 251.234 144.355 251.273 144.394Z" fill="#58AA2C"/>
<path d="M239.816 154H241.34L242.43 152.172H242.465L243.562 154H245.172L243.395 151.18V151.16L245.188 148.363H243.598L242.57 150.273H242.527L241.492 148.363H239.82L241.539 151.145V151.168L239.816 154Z" fill="white"/>
</g>
<rect x="264" y="142" width="49" height="4" rx="2" fill="#BDC0B2"/>
<rect x="264" y="151" width="26" height="4" rx="2" fill="#BDC0B2"/>
<g filter="url(#filter0_d_19683_726490)">
<rect x="223" y="86.5" width="98" height="32" rx="4" fill="#F7EDFF" shape-rendering="crispEdges"/>
<g clip-path="url(#clip5_19683_726490)">
<path d="M246.584 97.5003H249.834C249.875 97.5004 249.916 97.4882 249.95 97.4653C249.984 97.4424 250.011 97.4099 250.027 97.3718C250.043 97.3336 250.047 97.2917 250.039 97.2512C250.031 97.2108 250.011 97.1736 249.981 97.1445L245.69 92.8561C245.661 92.8271 245.624 92.8073 245.584 92.7991C245.544 92.7909 245.502 92.7948 245.464 92.8102C245.426 92.8256 245.393 92.8518 245.37 92.8856C245.347 92.9194 245.335 92.9593 245.334 93.0003V96.2503C245.334 96.5818 245.466 96.8998 245.7 97.1342C245.935 97.3686 246.252 97.5003 246.584 97.5003Z" fill="#DA3C0F"/>
<path d="M250.273 98.3944C250.312 98.4334 250.334 98.4864 250.334 98.5417V110.833C250.334 111.275 250.158 111.699 249.846 112.012C249.533 112.324 249.109 112.5 248.667 112.5H235.334C234.892 112.5 234.468 112.324 234.155 112.012C233.843 111.699 233.667 111.275 233.667 110.833V94.1667C233.667 93.7246 233.843 93.3007 234.155 92.9882C234.468 92.6756 234.892 92.5 235.334 92.5H244.292C244.347 92.5 244.4 92.5219 244.439 92.561C244.478 92.6001 244.5 92.6531 244.5 92.7083V96.25C244.5 96.8025 244.72 97.3324 245.111 97.7231C245.501 98.1138 246.031 98.3333 246.584 98.3333H250.125C250.181 98.3333 250.234 98.3553 250.273 98.3944Z" fill="#DA3C0F"/>
<path d="M236.345 107.5H237.42V106.261H238.146C239.09 106.261 239.699 105.681 239.699 104.775V104.77C239.699 103.864 239.09 103.272 238.146 103.272H236.345V107.5ZM237.889 104.096C238.343 104.096 238.612 104.33 238.612 104.77V104.775C238.612 105.215 238.343 105.452 237.889 105.452H237.42V104.096H237.889Z" fill="white"/>
<path d="M240.177 107.5H241.894C243.168 107.5 243.921 106.712 243.921 105.361V105.355C243.921 104.011 243.168 103.272 241.894 103.272H240.177V107.5ZM241.252 106.633V104.14H241.753C242.43 104.14 242.828 104.567 242.828 105.358V105.364C242.828 106.208 242.453 106.633 241.753 106.633H241.252Z" fill="white"/>
<path d="M244.442 107.5H245.518V105.924H247.155V105.101H245.518V104.137H247.319V103.272H244.442V107.5Z" fill="white"/>
</g>
<rect x="263" y="96" width="49" height="4" rx="2" fill="#B2A2BF"/>
<rect x="263" y="105" width="26" height="4" rx="2" fill="#B2A2BF"/>
</g>
</g>
</svg>
