<svg width="343" height="181" viewBox="0 0 343 181" fill="none" xmlns="http://www.w3.org/2000/svg">
<defs>
<clipPath id="clip0_19683_726371">
<rect y="0.5" width="343" height="180" rx="12" fill="white"/>
</clipPath>
</defs>
<g clip-path="url(#clip0_19683_726371)">
<rect y="0.5" width="343" height="180" rx="12" fill="#FFDAD6"/>
<rect x="52" y="24.5" width="240" height="178" rx="12" fill="white"/>
<rect x="62" y="27.5" width="122" height="27" fill="white"/>
<rect x="62" y="50.5" width="25" height="53" fill="white"/>
<rect x="99" y="64.5" width="94" height="30" fill="#F5F7F9"/>
<path d="M66.4941 47.5V40.5039H68.9434V39.0449H62.2812V40.5039H64.7246V47.5H66.4941ZM69.8164 47.5H71.5273V43.9141C71.5273 43.0879 72.002 42.5195 72.8105 42.5195C73.5898 42.5195 73.9883 43.0117 73.9883 43.8203V47.5H75.6992V43.457C75.6992 42.0039 74.9023 41.1016 73.5078 41.1016C72.5527 41.1016 71.8672 41.5469 71.5332 42.3379H71.498V39.0449H69.8164V47.5ZM79.2207 46.3633C78.6406 46.3633 78.2539 46.0703 78.2539 45.6016C78.2539 45.1562 78.6172 44.8691 79.2559 44.8223L80.5801 44.7402V45.1973C80.5801 45.877 79.9648 46.3633 79.2207 46.3633ZM78.6582 47.5996C79.4434 47.5996 80.2227 47.207 80.5742 46.5391H80.6094V47.5H82.2617V43.1816C82.2617 41.916 81.2129 41.084 79.6016 41.084C77.9375 41.084 76.9004 41.9219 76.8359 43.1406H78.4004C78.4824 42.6777 78.8867 42.3613 79.5254 42.3613C80.1699 42.3613 80.5801 42.7012 80.5801 43.2871V43.7031L78.998 43.7969C77.4336 43.8906 76.5547 44.5527 76.5547 45.6953C76.5547 46.8262 77.4629 47.5996 78.6582 47.5996ZM80.2227 40.334L81.7227 38.5176H80.1523L78.8574 40.334H80.2227ZM83.3691 47.5H85.0801V43.8965C85.0801 43.082 85.5664 42.5195 86.334 42.5195C87.1016 42.5195 87.4883 42.9883 87.4883 43.8086V47.5H89.1992V43.4512C89.1992 41.9805 88.4141 41.1016 87.0195 41.1016C86.0527 41.1016 85.3906 41.5586 85.0566 42.3379H85.0215V41.2188H83.3691V47.5ZM93.1836 46.1641C92.334 46.1641 91.8066 45.4961 91.8066 44.3477C91.8066 43.2051 92.3398 42.4902 93.1836 42.4902C94.0391 42.4902 94.584 43.2168 94.584 44.3477C94.584 45.4844 94.0391 46.1641 93.1836 46.1641ZM93.1543 49.8672C95.0352 49.8672 96.2891 48.9121 96.2891 47.4121V41.2188H94.6016V42.3145H94.5723C94.2441 41.5938 93.5352 41.1191 92.6328 41.1191C91.0391 41.1191 90.0547 42.3438 90.0547 44.3359C90.0547 46.2988 91.0684 47.4824 92.6035 47.4824C93.5117 47.4824 94.25 47.0254 94.543 46.3574H94.5781V47.459C94.5781 48.1855 94.0859 48.6777 93.2012 48.6777C92.5508 48.6777 92.0586 48.3789 91.9238 47.9453H90.248C90.3828 49.0645 91.502 49.8672 93.1543 49.8672ZM103.238 47.6934C105.131 47.6934 106.484 46.4453 106.484 44.7051C106.484 43.0996 105.295 41.916 103.689 41.916C102.611 41.916 101.779 42.4668 101.439 43.293H101.404C101.363 41.3828 102.078 40.252 103.256 40.252C103.918 40.252 104.463 40.627 104.633 41.1895H106.373C106.139 39.8066 104.879 38.8516 103.268 38.8516C101.082 38.8516 99.7227 40.5391 99.7227 43.3398C99.7227 44.4648 99.9629 45.4199 100.432 46.1348C101.023 47.1426 102.025 47.6934 103.238 47.6934ZM103.221 46.2812C102.354 46.2812 101.68 45.6016 101.68 44.7402C101.68 43.8848 102.348 43.2461 103.227 43.2461C104.111 43.2461 104.762 43.8848 104.762 44.7578C104.762 45.6074 104.082 46.2812 103.221 46.2812Z" fill="black"/>
<path d="M65.0117 67.5V62.6602H66.7812V61.8633H62.3633V62.6602H64.1367V67.5H65.0117ZM67.7969 67.5H68.6367V65.0156C68.6367 64.3711 69.0195 63.9375 69.707 63.9375C70.3008 63.9375 70.6172 64.2812 70.6172 64.9609V67.5H71.457V64.7539C71.457 63.7422 70.8984 63.168 69.9922 63.168C69.3516 63.168 68.9023 63.4531 68.6953 63.9297H68.6289V61.5859H67.7969V67.5ZM75.3516 66.8242H75.418V67.5H76.2266V63.8672H76.3906C76.8789 63.8672 77.2148 63.6016 77.2148 63.0898V62.3164H76.4922V62.9219C76.4922 63.1367 76.3867 63.2461 76.1562 63.2461H75.3867V65.7344C75.3867 66.4062 75.0117 66.8047 74.3359 66.8047C73.7148 66.8047 73.4414 66.4727 73.4414 65.7891V63.2461H72.6016V66.0078C72.6016 67 73.1211 67.582 74.0664 67.582C74.7031 67.582 75.1406 67.3164 75.3516 66.8242ZM74.8203 62.5352L75.918 61.1914H74.9336L73.9531 62.5352H74.8203ZM81.4727 64.9688H82.1836C82.9219 64.9688 83.3789 65.332 83.3789 65.9141C83.3789 66.4688 82.8945 66.8633 82.207 66.8633C81.5234 66.8633 81.0547 66.5156 81 65.9688H80.1602C80.2109 66.9766 81.0234 67.6367 82.207 67.6367C83.3828 67.6367 84.2734 66.918 84.2734 65.9609C84.2734 65.207 83.8047 64.6797 83.0352 64.5898V64.5234C83.6562 64.3828 84.043 63.8828 84.043 63.2188C84.043 62.3711 83.2383 61.7266 82.1914 61.7266C81.0625 61.7266 80.3281 62.3555 80.2695 63.375H81.1016C81.1484 62.8203 81.5508 62.4805 82.1641 62.4805C82.7773 62.4805 83.1797 62.8242 83.1797 63.3477C83.1797 63.8789 82.7617 64.2461 82.1562 64.2461H81.4727V64.9688Z" fill="black"/>
<rect x="93" y="60.5" width="189" height="39" rx="4" fill="#F5F7F9"/>
<path d="M108.906 75.5V69.1587H107.777V71.7954H104.692V69.1587H103.558V75.5H104.692V72.749H107.777V75.5H108.906ZM111.978 75.5923C113.345 75.5923 114.232 74.6826 114.232 73.1709C114.232 71.6636 113.336 70.7451 111.978 70.7451C110.62 70.7451 109.724 71.668 109.724 73.1709C109.724 74.6826 110.611 75.5923 111.978 75.5923ZM111.978 74.7266C111.284 74.7266 110.835 74.1641 110.835 73.1709C110.835 72.1821 111.288 71.6152 111.978 71.6152C112.672 71.6152 113.121 72.1821 113.121 73.1709C113.121 74.1641 112.672 74.7266 111.978 74.7266ZM111.978 77.3984C112.316 77.3984 112.589 77.1216 112.589 76.7876C112.589 76.4492 112.316 76.1768 111.978 76.1768C111.64 76.1768 111.367 76.4492 111.367 76.7876C111.367 77.1216 111.64 77.3984 111.978 77.3984ZM117.493 70.7627C116.816 70.7627 116.289 71.1055 116.025 71.646H116.003V70.8418H114.936V77.0337H116.03V74.7266H116.052C116.307 75.2495 116.834 75.5747 117.511 75.5747C118.68 75.5747 119.427 74.6562 119.427 73.1709C119.427 71.6812 118.675 70.7627 117.493 70.7627ZM117.159 74.6782C116.478 74.6782 116.025 74.085 116.021 73.1709C116.025 72.2656 116.478 71.6636 117.159 71.6636C117.867 71.6636 118.306 72.2524 118.306 73.1709C118.306 74.0938 117.867 74.6782 117.159 74.6782ZM122.235 69.752V70.8418H121.567V71.6855H122.235V74.2607C122.235 75.166 122.63 75.522 123.637 75.522C123.87 75.522 124.085 75.5044 124.204 75.478V74.6431C124.133 74.6562 123.993 74.665 123.892 74.665C123.505 74.665 123.329 74.4893 123.329 74.1069V71.6855H124.208V70.8418H123.329V69.752H122.235ZM124.981 75.5H126.076V70.8418H124.981V75.5ZM125.97 70.1782L127.078 68.8291H126.032L125.078 70.1782H125.97ZM126.994 75.5H128.088V72.8018C128.088 72.1338 128.488 71.6812 129.117 71.6812C129.741 71.6812 130.048 72.0503 130.048 72.7095V75.5H131.143V72.4897C131.143 71.4131 130.558 70.7539 129.53 70.7539C128.813 70.7539 128.317 71.0879 128.066 71.6416H128.044V70.8418H126.994V75.5ZM132.052 75.5H133.146V72.8237C133.146 72.1382 133.546 71.6812 134.206 71.6812C134.838 71.6812 135.164 72.0723 135.164 72.7227V75.5H136.258V72.4985C136.258 71.4307 135.656 70.7539 134.627 70.7539C133.92 70.7539 133.406 71.0747 133.155 71.6416H133.133V69.1587H132.052V75.5ZM138.938 75.5H140.033V72.8018C140.033 72.1338 140.433 71.6812 141.061 71.6812C141.685 71.6812 141.993 72.0503 141.993 72.7095V75.5H143.087V72.4897C143.087 71.4131 142.502 70.7539 141.474 70.7539C140.758 70.7539 140.261 71.0879 140.011 71.6416H139.989V70.8418H138.938V75.5ZM145.667 74.7485C145.192 74.7485 144.875 74.5068 144.875 74.1245C144.875 73.7554 145.179 73.5181 145.706 73.4829L146.783 73.417V73.7729C146.783 74.3354 146.286 74.7485 145.667 74.7485ZM145.337 75.5747C145.935 75.5747 146.519 75.2627 146.787 74.7573H146.809V75.5H147.864V72.292C147.864 71.356 147.112 70.7451 145.957 70.7451C144.77 70.7451 144.027 71.3691 143.979 72.2393H144.994C145.064 71.8525 145.394 71.6021 145.913 71.6021C146.453 71.6021 146.783 71.8833 146.783 72.3711V72.7051L145.552 72.7754C144.418 72.8457 143.781 73.3423 143.781 74.1685C143.781 75.0078 144.436 75.5747 145.337 75.5747ZM144.392 68.8379C144.401 69.6377 144.963 70.2354 145.908 70.2354C146.853 70.2354 147.416 69.6377 147.424 68.8379H146.717C146.712 69.3257 146.392 69.6509 145.908 69.6509C145.425 69.6509 145.104 69.3257 145.1 68.8379H144.392ZM148.747 75.5H149.841V72.8018C149.841 72.1338 150.241 71.6812 150.87 71.6812C151.494 71.6812 151.801 72.0503 151.801 72.7095V75.5H152.896V72.4897C152.896 71.4131 152.311 70.7539 151.283 70.7539C150.566 70.7539 150.07 71.0879 149.819 71.6416H149.797V70.8418H148.747V75.5ZM155.831 74.6343C155.141 74.6343 154.702 74.0806 154.702 73.1577C154.702 72.2437 155.141 71.6636 155.831 71.6636C156.53 71.6636 156.982 72.2524 156.982 73.1577C156.982 74.0674 156.53 74.6343 155.831 74.6343ZM155.827 77.2578C157.185 77.2578 158.077 76.5371 158.077 75.4253V70.8418H157.004V71.6416H156.987C156.719 71.1055 156.183 70.7627 155.519 70.7627C154.328 70.7627 153.581 71.6812 153.581 73.1533C153.581 74.6035 154.346 75.5044 155.497 75.5044C156.165 75.5044 156.714 75.1704 156.956 74.6694H156.982V75.4561C156.982 76.0493 156.574 76.4492 155.862 76.4492C155.343 76.4492 154.943 76.2075 154.825 75.8516H153.739C153.849 76.6689 154.675 77.2578 155.827 77.2578ZM160.771 75.5H161.865V72.6479C161.865 72.0854 162.234 71.6768 162.761 71.6768C163.271 71.6768 163.587 71.9976 163.587 72.5161V75.5H164.651V72.6216C164.651 72.0635 165.011 71.6768 165.539 71.6768C166.075 71.6768 166.374 72.002 166.374 72.5732V75.5H167.468V72.3052C167.468 71.3735 166.866 70.7539 165.947 70.7539C165.275 70.7539 164.721 71.1143 164.497 71.6899H164.471C164.299 71.0923 163.829 70.7539 163.17 70.7539C162.537 70.7539 162.045 71.1099 161.843 71.6504H161.821V70.8418H160.771V75.5ZM170.408 74.7266C169.709 74.7266 169.265 74.1597 169.265 73.1709C169.265 72.1865 169.713 71.6152 170.408 71.6152C171.102 71.6152 171.55 72.1865 171.55 73.1709C171.55 74.1553 171.106 74.7266 170.408 74.7266ZM172.662 73.2236C172.662 72.5425 172.46 71.9976 172.122 71.6196V71.5977H172.267C172.719 71.5977 172.992 71.3032 172.992 70.8286V69.9321H172.1V70.5386C172.1 70.811 171.977 70.9121 171.634 70.9121C171.238 70.9121 171.014 70.7451 170.408 70.7451C169.041 70.7451 168.153 71.6724 168.153 73.1709C168.153 74.6738 169.037 75.5923 170.421 75.5923C171.757 75.5923 172.662 74.665 172.662 73.2236ZM170.852 70.1782L171.959 68.8291H170.913L169.959 70.1782H170.852ZM173.787 75.5H174.881V70.8418H173.787V75.5ZM174.332 70.231C174.675 70.231 174.943 69.9673 174.943 69.6377C174.943 69.3037 174.675 69.04 174.332 69.04C173.994 69.04 173.726 69.3037 173.726 69.6377C173.726 69.9673 173.994 70.231 174.332 70.231Z" fill="black"/>
<path d="M105.531 91.6055C107.083 91.6055 107.988 90.3574 107.988 88.2217C107.988 87.5317 107.887 86.9604 107.676 86.4727C107.289 85.563 106.533 85.0488 105.58 85.0488C104.279 85.0488 103.334 85.9629 103.334 87.2153C103.334 88.4194 104.23 89.3115 105.439 89.3115C106.248 89.3115 106.942 88.9028 107.21 88.2744C107.214 88.2744 107.214 88.2744 107.219 88.2744H107.223C107.201 89.9575 106.595 90.9155 105.54 90.9155C104.912 90.9155 104.397 90.5376 104.23 89.9619H103.426C103.62 90.9551 104.45 91.6055 105.531 91.6055ZM105.575 88.6172C104.745 88.6172 104.134 88.0151 104.134 87.189C104.134 86.3936 104.775 85.7607 105.588 85.7607C106.406 85.7607 107.039 86.3979 107.039 87.2109C107.039 88.0195 106.415 88.6172 105.575 88.6172ZM109.62 90.4453C109.902 90.4453 110.121 90.2256 110.121 89.9443C110.121 89.6631 109.902 89.4434 109.62 89.4434C109.339 89.4434 109.119 89.6631 109.119 89.9443C109.119 90.2256 109.339 90.4453 109.62 90.4453ZM109.62 87.2109C109.902 87.2109 110.121 86.9912 110.121 86.71C110.121 86.4287 109.902 86.209 109.62 86.209C109.339 86.209 109.119 86.4287 109.119 86.71C109.119 86.9912 109.339 87.2109 109.62 87.2109ZM113.586 91.6055C115.063 91.6055 115.915 90.3267 115.915 88.3228C115.915 86.332 115.058 85.0532 113.586 85.0532C112.114 85.0532 111.248 86.3408 111.248 88.3271C111.248 90.3311 112.105 91.6055 113.586 91.6055ZM113.586 90.9155C112.593 90.9155 112.044 89.9048 112.044 88.3228C112.044 86.7759 112.606 85.7476 113.586 85.7476C114.566 85.7476 115.12 86.7671 115.12 88.3271C115.12 89.9092 114.575 90.9155 113.586 90.9155ZM119.134 91.6055C120.611 91.6055 121.463 90.3267 121.463 88.3228C121.463 86.332 120.606 85.0532 119.134 85.0532C117.662 85.0532 116.796 86.3408 116.796 88.3271C116.796 90.3311 117.653 91.6055 119.134 91.6055ZM119.134 90.9155C118.141 90.9155 117.592 89.9048 117.592 88.3228C117.592 86.7759 118.154 85.7476 119.134 85.7476C120.114 85.7476 120.668 86.7671 120.668 88.3271C120.668 89.9092 120.123 90.9155 119.134 90.9155ZM127.255 89.2852V88.5732H124.372V89.2852H127.255ZM131.9 91.5H132.665V85.1587H131.891L130.204 86.3716V87.2065L131.882 85.998H131.9V91.5ZM136.582 91.6055C138.059 91.6055 138.911 90.3267 138.911 88.3228C138.911 86.332 138.054 85.0532 136.582 85.0532C135.11 85.0532 134.244 86.3408 134.244 88.3271C134.244 90.3311 135.101 91.6055 136.582 91.6055ZM136.582 90.9155C135.589 90.9155 135.04 89.9048 135.04 88.3228C135.04 86.7759 135.602 85.7476 136.582 85.7476C137.562 85.7476 138.116 86.7671 138.116 88.3271C138.116 89.9092 137.571 90.9155 136.582 90.9155ZM140.539 90.4453C140.821 90.4453 141.04 90.2256 141.04 89.9443C141.04 89.6631 140.821 89.4434 140.539 89.4434C140.258 89.4434 140.039 89.6631 140.039 89.9443C140.039 90.2256 140.258 90.4453 140.539 90.4453ZM140.539 87.2109C140.821 87.2109 141.04 86.9912 141.04 86.71C141.04 86.4287 140.821 86.209 140.539 86.209C140.258 86.209 140.039 86.4287 140.039 86.71C140.039 86.9912 140.258 87.2109 140.539 87.2109ZM143.903 91.5H144.668V85.1587H143.895L142.207 86.3716V87.2065L143.886 85.998H143.903V91.5ZM148.546 91.6055C149.869 91.6055 150.805 90.7134 150.805 89.439C150.805 88.2085 149.926 87.3164 148.709 87.3164C148.102 87.3164 147.575 87.5449 147.289 87.9272H147.272L147.465 85.8618H150.445V85.1587H146.815L146.468 88.7095H147.21C147.469 88.2656 147.975 87.9976 148.568 87.9976C149.412 87.9976 150.014 88.6084 150.014 89.4609C150.014 90.3135 149.416 90.9111 148.555 90.9111C147.795 90.9111 147.219 90.4453 147.149 89.7686H146.371C146.437 90.8496 147.333 91.6055 148.546 91.6055Z" fill="#73787E"/>
<rect x="93" y="102.5" width="189" height="39" rx="4" fill="#F5F7F9"/>
<path d="M108.906 117.5V111.159H107.777V113.795H104.692V111.159H103.558V117.5H104.692V114.749H107.777V117.5H108.906ZM111.978 117.592C113.345 117.592 114.232 116.683 114.232 115.171C114.232 113.664 113.336 112.745 111.978 112.745C110.62 112.745 109.724 113.668 109.724 115.171C109.724 116.683 110.611 117.592 111.978 117.592ZM111.978 116.727C111.284 116.727 110.835 116.164 110.835 115.171C110.835 114.182 111.288 113.615 111.978 113.615C112.672 113.615 113.121 114.182 113.121 115.171C113.121 116.164 112.672 116.727 111.978 116.727ZM111.978 119.398C112.316 119.398 112.589 119.122 112.589 118.788C112.589 118.449 112.316 118.177 111.978 118.177C111.64 118.177 111.367 118.449 111.367 118.788C111.367 119.122 111.64 119.398 111.978 119.398ZM117.493 112.763C116.816 112.763 116.289 113.105 116.025 113.646H116.003V112.842H114.936V119.034H116.03V116.727H116.052C116.307 117.25 116.834 117.575 117.511 117.575C118.68 117.575 119.427 116.656 119.427 115.171C119.427 113.681 118.675 112.763 117.493 112.763ZM117.159 116.678C116.478 116.678 116.025 116.085 116.021 115.171C116.025 114.266 116.478 113.664 117.159 113.664C117.867 113.664 118.306 114.252 118.306 115.171C118.306 116.094 117.867 116.678 117.159 116.678ZM123.07 114.784H123.057V111.159H121.962V117.5H123.057V115.883L123.426 115.509L124.898 117.5H126.164L124.221 114.846L126.084 112.842H124.823L123.07 114.784ZM126.629 117.5H127.724V114.824C127.724 114.138 128.124 113.681 128.783 113.681C129.416 113.681 129.741 114.072 129.741 114.723V117.5H130.835V114.499C130.835 113.431 130.233 112.754 129.205 112.754C128.497 112.754 127.983 113.075 127.732 113.642H127.71V111.159H126.629V117.5ZM133.415 116.749C132.94 116.749 132.624 116.507 132.624 116.125C132.624 115.755 132.927 115.518 133.454 115.483L134.531 115.417V115.773C134.531 116.335 134.034 116.749 133.415 116.749ZM133.085 117.575C133.683 117.575 134.267 117.263 134.535 116.757H134.557V117.5H135.612V114.292C135.612 113.356 134.86 112.745 133.705 112.745C132.518 112.745 131.775 113.369 131.727 114.239H132.742C132.812 113.853 133.142 113.602 133.661 113.602C134.201 113.602 134.531 113.883 134.531 114.371V114.705L133.3 114.775C132.167 114.846 131.529 115.342 131.529 116.168C131.529 117.008 132.184 117.575 133.085 117.575ZM134.104 112.178L135.212 110.829H134.166L133.212 112.178H134.104ZM140.6 114.503C140.525 113.523 139.765 112.745 138.534 112.745C137.181 112.745 136.302 113.681 136.302 115.171C136.302 116.683 137.181 117.592 138.543 117.592C139.712 117.592 140.516 116.907 140.604 115.865H139.571C139.47 116.393 139.11 116.709 138.556 116.709C137.862 116.709 137.414 116.146 137.414 115.171C137.414 114.213 137.857 113.633 138.547 113.633C139.132 113.633 139.479 114.006 139.567 114.503H140.6ZM141.29 117.5H142.384V114.824C142.384 114.138 142.784 113.681 143.443 113.681C144.076 113.681 144.401 114.072 144.401 114.723V117.5H145.495V114.499C145.495 113.431 144.893 112.754 143.865 112.754C143.157 112.754 142.643 113.075 142.393 113.642H142.371V111.159H141.29V117.5ZM148.207 117.5H149.301V114.824C149.301 114.138 149.701 113.681 150.36 113.681C150.993 113.681 151.318 114.072 151.318 114.723V117.5H152.412V114.499C152.412 113.431 151.81 112.754 150.782 112.754C150.074 112.754 149.56 113.075 149.31 113.642H149.288V111.159H148.207V117.5ZM154.992 116.749C154.517 116.749 154.201 116.507 154.201 116.125C154.201 115.755 154.504 115.518 155.031 115.483L156.108 115.417V115.773C156.108 116.335 155.611 116.749 154.992 116.749ZM154.662 117.575C155.26 117.575 155.844 117.263 156.112 116.757H156.134V117.5H157.189V114.292C157.189 113.356 156.438 112.745 155.282 112.745C154.095 112.745 153.353 113.369 153.304 114.239H154.319C154.39 113.853 154.719 113.602 155.238 113.602C155.778 113.602 156.108 113.883 156.108 114.371V114.705L154.877 114.775C153.744 114.846 153.106 115.342 153.106 116.168C153.106 117.008 153.761 117.575 154.662 117.575ZM155.673 112.178L154.719 110.829H153.669L154.776 112.178H155.673ZM158.072 117.5H159.167V114.802C159.167 114.134 159.566 113.681 160.195 113.681C160.819 113.681 161.126 114.05 161.126 114.709V117.5H162.221V114.49C162.221 113.413 161.636 112.754 160.608 112.754C159.892 112.754 159.395 113.088 159.145 113.642H159.123V112.842H158.072V117.5ZM165.156 116.634C164.466 116.634 164.027 116.081 164.027 115.158C164.027 114.244 164.466 113.664 165.156 113.664C165.855 113.664 166.308 114.252 166.308 115.158C166.308 116.067 165.855 116.634 165.156 116.634ZM165.152 119.258C166.51 119.258 167.402 118.537 167.402 117.425V112.842H166.33V113.642H166.312C166.044 113.105 165.508 112.763 164.844 112.763C163.653 112.763 162.906 113.681 162.906 115.153C162.906 116.604 163.671 117.504 164.822 117.504C165.49 117.504 166.04 117.17 166.281 116.669H166.308V117.456C166.308 118.049 165.899 118.449 165.187 118.449C164.668 118.449 164.269 118.208 164.15 117.852H163.064C163.174 118.669 164 119.258 165.152 119.258Z" fill="black"/>
<path d="M105.531 133.605C107.083 133.605 107.988 132.357 107.988 130.222C107.988 129.532 107.887 128.96 107.676 128.473C107.289 127.563 106.533 127.049 105.58 127.049C104.279 127.049 103.334 127.963 103.334 129.215C103.334 130.419 104.23 131.312 105.439 131.312C106.248 131.312 106.942 130.903 107.21 130.274C107.214 130.274 107.214 130.274 107.219 130.274H107.223C107.201 131.958 106.595 132.916 105.54 132.916C104.912 132.916 104.397 132.538 104.23 131.962H103.426C103.62 132.955 104.45 133.605 105.531 133.605ZM105.575 130.617C104.745 130.617 104.134 130.015 104.134 129.189C104.134 128.394 104.775 127.761 105.588 127.761C106.406 127.761 107.039 128.398 107.039 129.211C107.039 130.02 106.415 130.617 105.575 130.617ZM109.62 132.445C109.902 132.445 110.121 132.226 110.121 131.944C110.121 131.663 109.902 131.443 109.62 131.443C109.339 131.443 109.119 131.663 109.119 131.944C109.119 132.226 109.339 132.445 109.62 132.445ZM109.62 129.211C109.902 129.211 110.121 128.991 110.121 128.71C110.121 128.429 109.902 128.209 109.62 128.209C109.339 128.209 109.119 128.429 109.119 128.71C109.119 128.991 109.339 129.211 109.62 129.211ZM113.586 133.605C115.063 133.605 115.915 132.327 115.915 130.323C115.915 128.332 115.058 127.053 113.586 127.053C112.114 127.053 111.248 128.341 111.248 130.327C111.248 132.331 112.105 133.605 113.586 133.605ZM113.586 132.916C112.593 132.916 112.044 131.905 112.044 130.323C112.044 128.776 112.606 127.748 113.586 127.748C114.566 127.748 115.12 128.767 115.12 130.327C115.12 131.909 114.575 132.916 113.586 132.916ZM119.134 133.605C120.611 133.605 121.463 132.327 121.463 130.323C121.463 128.332 120.606 127.053 119.134 127.053C117.662 127.053 116.796 128.341 116.796 130.327C116.796 132.331 117.653 133.605 119.134 133.605ZM119.134 132.916C118.141 132.916 117.592 131.905 117.592 130.323C117.592 128.776 118.154 127.748 119.134 127.748C120.114 127.748 120.668 128.767 120.668 130.327C120.668 131.909 120.123 132.916 119.134 132.916ZM127.255 131.285V130.573H124.372V131.285H127.255ZM131.9 133.5H132.665V127.159H131.891L130.204 128.372V129.207L131.882 127.998H131.9V133.5ZM136.582 133.605C138.059 133.605 138.911 132.327 138.911 130.323C138.911 128.332 138.054 127.053 136.582 127.053C135.11 127.053 134.244 128.341 134.244 130.327C134.244 132.331 135.101 133.605 136.582 133.605ZM136.582 132.916C135.589 132.916 135.04 131.905 135.04 130.323C135.04 128.776 135.602 127.748 136.582 127.748C137.562 127.748 138.116 128.767 138.116 130.327C138.116 131.909 137.571 132.916 136.582 132.916ZM140.539 132.445C140.821 132.445 141.04 132.226 141.04 131.944C141.04 131.663 140.821 131.443 140.539 131.443C140.258 131.443 140.039 131.663 140.039 131.944C140.039 132.226 140.258 132.445 140.539 132.445ZM140.539 129.211C140.821 129.211 141.04 128.991 141.04 128.71C141.04 128.429 140.821 128.209 140.539 128.209C140.258 128.209 140.039 128.429 140.039 128.71C140.039 128.991 140.258 129.211 140.539 129.211ZM143.903 133.5H144.668V127.159H143.895L142.207 128.372V129.207L143.886 127.998H143.903V133.5ZM148.546 133.605C149.869 133.605 150.805 132.713 150.805 131.439C150.805 130.208 149.926 129.316 148.709 129.316C148.102 129.316 147.575 129.545 147.289 129.927H147.272L147.465 127.862H150.445V127.159H146.815L146.468 130.709H147.21C147.469 130.266 147.975 129.998 148.568 129.998C149.412 129.998 150.014 130.608 150.014 131.461C150.014 132.313 149.416 132.911 148.555 132.911C147.795 132.911 147.219 132.445 147.149 131.769H146.371C146.437 132.85 147.333 133.605 148.546 133.605Z" fill="#73787E"/>
<rect x="93" y="144.5" width="189" height="32" rx="4" fill="#F5F7F9"/>
<rect x="103" y="150.5" width="124.395" height="6" rx="3" fill="#DADDE1"/>
<rect x="103" y="164.5" width="21.952" height="6" rx="3" fill="#DADDE1"/>
<rect x="129.952" y="164.5" width="21.952" height="6" rx="3" fill="#DADDE1"/>
<rect x="64" y="70.5" width="20" height="20" rx="10" fill="#3AB67B"/>
<path d="M68.6689 79.5146V79.5342H69.8506V79.5146C69.8506 78.7969 70.3486 78.3135 71.0859 78.3135C71.7793 78.3135 72.2871 78.7627 72.2871 79.3828C72.2871 79.8809 72.0479 80.2471 71.0859 81.2236L68.7373 83.626V84.5H73.6299V83.4307H70.4658V83.3477L71.9404 81.8682C73.1367 80.6865 73.5225 80.0615 73.5225 79.3047C73.5225 78.1279 72.5166 77.2783 71.125 77.2783C69.6797 77.2783 68.6689 78.1963 68.6689 79.5146ZM77.5752 84.6758C79.1377 84.6758 80.1875 83.6699 80.1875 82.2002C80.1875 80.8184 79.2402 79.8369 77.9023 79.8369C77.2236 79.8369 76.7256 80.0762 76.4131 80.4961H76.3301L76.501 78.5186H79.7676V77.4541H75.5244L75.1582 81.5068H76.3008C76.5596 81.0723 77.0137 80.8135 77.5947 80.8135C78.4053 80.8135 78.9717 81.3848 78.9717 82.2295C78.9717 83.0693 78.4102 83.626 77.585 83.626C76.8574 83.626 76.3057 83.1963 76.2275 82.5469H75.0459C75.1045 83.7871 76.1152 84.6758 77.5752 84.6758Z" fill="white"/>
</g>
</svg>
