<svg width="343" height="181" viewBox="0 0 343 181" fill="none" xmlns="http://www.w3.org/2000/svg">
<defs>
<filter id="filter0_d_19683_726124" x="141" y="128.5" width="160" height="76" filterUnits="userSpaceOnUse" color-interpolation-filters="sRGB">
<feFlood flood-opacity="0" result="BackgroundImageFix"/>
<feColorMatrix in="SourceAlpha" type="matrix" values="0 0 0 0 0 0 0 0 0 0 0 0 0 0 0 0 0 0 127 0" result="hardAlpha"/>
<feOffset dx="-24" dy="24"/>
<feGaussianBlur stdDeviation="8"/>
<feComposite in2="hardAlpha" operator="out"/>
<feColorMatrix type="matrix" values="0 0 0 0 0 0 0 0 0 0 0 0 0 0 0 0 0 0 0.16 0"/>
<feBlend mode="normal" in2="BackgroundImageFix" result="effect1_dropShadow_19683_726124"/>
<feBlend mode="normal" in="SourceGraphic" in2="effect1_dropShadow_19683_726124" result="shape"/>
</filter>
<linearGradient id="paint0_linear_19683_726124" x1="74" y1="81.5" x2="74" y2="105.5" gradientUnits="userSpaceOnUse">
<stop stop-color="#57A3FF"/>
<stop offset="1" stop-color="#3C82FB"/>
</linearGradient>
<clipPath id="clip0_19683_726124">
<rect y="0.5" width="343" height="180" rx="12" fill="white"/>
</clipPath>
<clipPath id="clip1_19683_726124">
<rect x="180" y="35.5" width="24" height="24" rx="12" fill="white"/>
</clipPath>
<clipPath id="clip2_19683_726124">
<rect x="208" y="35.5" width="24" height="24" rx="12" fill="white"/>
</clipPath>
<clipPath id="clip3_19683_726124">
<rect x="236" y="35.5" width="24" height="24" rx="12" fill="white"/>
</clipPath>
<clipPath id="clip4_19683_726124">
<rect width="24" height="24" fill="white" transform="translate(62 81.5)"/>
</clipPath>
<clipPath id="clip5_19683_726124">
<rect x="180" y="81.5" width="70" height="24" rx="8" fill="white"/>
</clipPath>
<clipPath id="clip6_19683_726124">
<rect width="20" height="20" fill="white" transform="translate(189 136.5)"/>
</clipPath>
<clipPath id="clip7_19683_726124">
<rect width="20" height="20" fill="white" transform="translate(217 136.5)"/>
</clipPath>
<clipPath id="clip8_19683_726124">
<rect width="20" height="20" fill="white" transform="translate(245 136.5)"/>
</clipPath>
<clipPath id="clip9_19683_726124">
<rect width="20" height="20" fill="white" transform="translate(273 136.5)"/>
</clipPath>
</defs>
<g clip-path="url(#clip0_19683_726124)">
<rect y="0.5" width="343" height="180" rx="12" fill="#FFFA94"/>
<rect x="36" y="24.5" width="240" height="224" rx="12" fill="white"/>
<rect x="52" y="39.5" width="116" height="16" rx="4" fill="#ECEEF1"/>
<g clip-path="url(#clip1_19683_726124)">
<rect x="180" y="35.5" width="24" height="24" rx="12" fill="#F7EDFF"/>
<path fill-rule="evenodd" clip-rule="evenodd" d="M187.836 46.4172C187.814 46.2116 186.981 45.9736 186.699 46.6445C186.418 47.3154 186.927 48.2677 187.879 48.3434C188.831 48.4192 188.55 48.246 188.55 48.246L187.836 46.4172Z" fill="#E4AE7C"/>
<path fill-rule="evenodd" clip-rule="evenodd" d="M196.319 46.4172C196.341 46.2116 197.174 45.9736 197.456 46.6445C197.737 47.3154 197.228 48.2677 196.276 48.3434C195.324 48.4192 195.605 48.246 195.605 48.246L196.319 46.4172Z" fill="#E4AE7C"/>
<path fill-rule="evenodd" clip-rule="evenodd" d="M192.067 59.4996H184.384C184.297 55.5715 187.316 53.2882 189.913 52.4442C190.119 51.3512 190.065 49.9229 190.065 49.9229H192.056H194.047C194.047 49.9229 193.993 51.3404 194.198 52.4442C196.796 53.2991 199.815 55.5715 199.728 59.4996H192.067Z" fill="#E4AE7C"/>
<path fill-rule="evenodd" clip-rule="evenodd" d="M194.068 49.9229C194.068 49.9229 194.057 50.2042 194.068 50.6154C193.311 52.5199 190.952 52.7364 190.086 50.6912C190.097 50.2367 190.086 49.9229 190.086 49.9229C191.406 49.9229 192.737 49.9229 194.068 49.9229Z" fill="#D67F54"/>
<path fill-rule="evenodd" clip-rule="evenodd" d="M200.009 59.4996C200.096 55.6256 197.055 53.3532 194.393 52.4766C193.863 53.6561 190.292 53.6562 189.762 52.4658C187.1 53.3315 184.037 55.6148 184.124 59.4996H200.009V59.4996Z" fill="#C53D3F"/>
<path fill-rule="evenodd" clip-rule="evenodd" d="M192.067 50.9406C187.111 51.0596 184.611 38.8425 192.067 39.1563C199.523 38.8425 197.023 51.0596 192.067 50.9406Z" fill="#E4AE7C"/>
<path fill-rule="evenodd" clip-rule="evenodd" d="M187.521 45.7782L187.781 45.4861C187.857 45.3995 189.296 48.7865 189.642 48.094C190.497 46.3517 193.646 46.6223 194.296 48.0074C194.934 49.0354 196.395 45.6051 196.395 44.5879C196.395 44.5879 196.568 44.5987 196.774 44.6636C196.6 47.3257 195.172 50.1175 193.17 50.8425C190.032 51.5567 188.106 48.8514 187.521 45.7782Z" fill="#A87E58"/>
<path fill-rule="evenodd" clip-rule="evenodd" d="M187.597 46.1901C187.251 44.7184 187.078 42.9546 187.511 41.6777C188.041 40.1086 190.054 39.1672 192.066 39.1564C194.003 39.1455 195.94 39.9896 196.546 41.4396C197.087 42.7273 196.914 44.6319 196.546 46.1901C196.005 45.3677 195.767 43.896 195.821 43.0087C195.897 41.656 194.014 40.9418 192.077 40.8877C190.14 40.9527 188.257 41.656 188.333 43.0087C188.366 43.896 188.138 45.3569 187.597 46.1901Z" fill="#52311D"/>
<path fill-rule="evenodd" clip-rule="evenodd" d="M194.09 39.6756C194.956 40.5845 195.161 41.0174 195.637 41.3853C195.865 41.5584 194.783 42.0346 194.155 41.829C194.22 42.0021 194.609 42.4025 194.599 42.4133C194.166 42.6189 192.727 42.5432 191.785 42.0021C191.796 42.1644 191.839 42.4566 191.991 42.5648C192.034 42.5973 191.515 42.554 191.363 42.5215C190.508 42.3592 188.853 41.526 188.712 40.195C189.156 38.3229 192.294 37.7927 194.09 39.6756Z" fill="#52311D"/>
<path fill-rule="evenodd" clip-rule="evenodd" d="M191.634 54.5111C191.634 54.4787 191.655 54.457 191.688 54.457C191.72 54.457 191.742 54.4787 191.742 54.5111V56.459C191.742 56.4914 191.72 56.5131 191.688 56.5131C191.655 56.5131 191.634 56.4914 191.634 56.459V54.5111Z" fill="#632421"/>
<path fill-rule="evenodd" clip-rule="evenodd" d="M192.088 55.0955C192.197 55.0955 192.283 55.0089 192.283 54.9115C192.283 54.8141 192.197 54.7275 192.088 54.7275C191.98 54.7275 191.894 54.8141 191.894 54.9115C191.894 55.0089 191.98 55.0955 192.088 55.0955Z" fill="#632421"/>
<path fill-rule="evenodd" clip-rule="evenodd" d="M192.088 56.1775C192.197 56.1775 192.283 56.0909 192.283 55.9935C192.283 55.8961 192.197 55.8096 192.088 55.8096C191.98 55.8096 191.894 55.8961 191.894 55.9935C191.894 56.0909 191.98 56.1775 192.088 56.1775Z" fill="#632421"/>
<path fill-rule="evenodd" clip-rule="evenodd" d="M186.429 57.1949C186.429 57.1516 186.461 57.1191 186.505 57.1191C186.548 57.1191 186.58 57.1516 186.58 57.1949L186.559 59.4132C186.559 59.4565 186.526 59.489 186.483 59.489C186.44 59.489 186.407 59.4565 186.407 59.4132L186.429 57.1949Z" fill="#632421"/>
<path fill-rule="evenodd" clip-rule="evenodd" d="M197.488 57.1949C197.488 57.1516 197.521 57.1191 197.564 57.1191C197.607 57.1191 197.64 57.1516 197.64 57.1949L197.618 59.4132C197.618 59.4565 197.586 59.489 197.543 59.489C197.499 59.489 197.467 59.4565 197.467 59.4132L197.488 57.1949Z" fill="#632421"/>
<path fill-rule="evenodd" clip-rule="evenodd" d="M192.066 53.4297C192.12 53.8842 191.114 55.0745 190.865 55.042C190.259 54.9447 189.502 53.3107 189.447 52.5315C189.415 52.1203 190.064 51.1572 190.064 51.1681L190.021 51.9472C189.989 52.4017 190.833 53.1483 192.066 53.4297Z" fill="#9C393F"/>
<path fill-rule="evenodd" clip-rule="evenodd" d="M192.067 53.4289C192.012 53.8834 193.019 55.0737 193.268 55.0412C193.874 54.9438 194.631 53.3098 194.685 52.5307C194.718 52.1195 194.079 51.1348 194.079 51.1456L194.123 51.9247C194.144 52.3792 193.3 53.1475 192.067 53.4289Z" fill="#9C393F"/>
<path fill-rule="evenodd" clip-rule="evenodd" d="M189.426 41.0175C189.48 41.169 189.534 41.2988 189.61 41.4395C189.772 41.7533 189.945 42.0022 190.194 42.2511C190.216 42.2727 190.519 42.5865 190.519 42.6082C190.454 42.7272 190.108 42.5216 190.043 42.4892C189.675 42.3052 189.415 42.0238 189.188 41.6776C189.08 41.5044 189.004 41.3638 188.939 41.169C188.852 40.866 188.712 40.5197 189.058 40.5305C189.372 40.5305 189.307 40.6496 189.426 41.0175Z" fill="#52311D"/>
<path fill-rule="evenodd" clip-rule="evenodd" d="M190.779 47.6944C191.234 47.6836 191.688 47.6836 192.143 47.6836C192.597 47.6836 193.052 47.6836 193.506 47.6944C193.506 48.4086 192.803 48.6683 192.143 48.6683C191.493 48.6575 190.779 48.4086 190.779 47.6944Z" fill="white"/>
<path fill-rule="evenodd" clip-rule="evenodd" d="M191.839 49.0902C191.818 49.0794 191.807 49.0469 191.818 49.0144C191.829 48.9928 191.861 48.982 191.893 48.9928C191.969 49.0361 192.067 49.0577 192.153 49.0577C192.251 49.0577 192.337 49.0361 192.413 48.9928C192.435 48.982 192.467 48.982 192.489 49.0144C192.499 49.0361 192.499 49.0685 192.467 49.0902C192.38 49.1443 192.261 49.1659 192.153 49.1659C192.045 49.1659 191.926 49.1443 191.839 49.0902Z" fill="#906949"/>
<path fill-rule="evenodd" clip-rule="evenodd" d="M197.153 47.1636C197.153 47.1961 197.131 47.2177 197.099 47.2177C197.066 47.2177 197.045 47.1961 197.045 47.1636C197.045 47.0013 197.012 46.8931 196.969 46.839C196.936 46.8065 196.904 46.7849 196.871 46.7849C196.828 46.7849 196.774 46.7957 196.72 46.8282C196.579 46.9039 196.428 47.077 196.352 47.261C196.309 47.3476 196.276 47.445 196.265 47.5099C196.352 47.4558 196.439 47.4341 196.514 47.4341C196.558 47.4341 196.601 47.4558 196.633 47.4774C196.666 47.4991 196.687 47.5315 196.709 47.5748C196.731 47.6506 196.709 47.748 196.633 47.867C196.612 47.8886 196.579 47.8995 196.558 47.8778C196.536 47.8562 196.525 47.8237 196.547 47.8021C196.601 47.7155 196.623 47.6506 196.612 47.5965C196.601 47.5748 196.59 47.564 196.579 47.5532C196.558 47.5424 196.536 47.5315 196.514 47.5315C196.449 47.5207 196.363 47.5532 196.287 47.6289C196.265 47.6506 196.255 47.6614 196.233 47.6614C196.19 47.6722 196.168 47.6506 196.157 47.6073C196.157 47.5965 196.157 47.5748 196.157 47.5424C196.168 47.4666 196.211 47.3259 196.276 47.2069C196.363 47.0013 196.525 46.8173 196.687 46.7199C196.752 46.6767 196.828 46.655 196.893 46.6658C196.958 46.6658 197.023 46.6983 197.077 46.7524C197.109 46.8498 197.153 46.9797 197.153 47.1636Z" fill="#D67F54"/>
<path fill-rule="evenodd" clip-rule="evenodd" d="M187.089 47.1636C187.089 47.1961 187.067 47.2177 187.035 47.2177C187.002 47.2177 186.98 47.1961 186.98 47.1636C186.98 46.9689 187.013 46.8498 187.078 46.7741C187.132 46.7091 187.186 46.6875 187.262 46.6875C187.327 46.6875 187.392 46.7091 187.467 46.7416C187.63 46.8282 187.792 47.023 187.879 47.2286C187.933 47.3584 187.976 47.4883 187.998 47.564C187.998 47.5857 187.998 47.6073 187.998 47.6289C187.987 47.6722 187.965 47.6939 187.922 47.6831C187.9 47.6831 187.889 47.6722 187.868 47.6506C187.792 47.5748 187.705 47.5424 187.641 47.5532C187.619 47.5532 187.597 47.564 187.576 47.5748C187.565 47.5857 187.554 47.5965 187.543 47.6181C187.532 47.6614 187.543 47.7263 187.608 47.8237C187.63 47.8454 187.619 47.8778 187.597 47.8995C187.576 47.9211 187.543 47.9103 187.522 47.8887C187.446 47.7696 187.424 47.6722 187.446 47.5965C187.457 47.5532 187.489 47.5207 187.522 47.4991C187.554 47.4774 187.597 47.4666 187.641 47.4558C187.716 47.445 187.814 47.4666 187.889 47.5316C187.868 47.4666 187.835 47.3692 187.803 47.2827C187.727 47.0987 187.576 46.9256 187.435 46.8498C187.381 46.8174 187.338 46.8065 187.283 46.8065C187.24 46.8065 187.208 46.8282 187.186 46.8606C187.121 46.9039 187.089 47.0013 187.089 47.1636Z" fill="#D67F54"/>
<path fill-rule="evenodd" clip-rule="evenodd" d="M189.751 39.557C189.762 39.5245 189.783 39.5137 189.816 39.5137C189.848 39.5245 189.859 39.5461 189.859 39.5786C189.751 40.1088 189.892 40.585 190.162 40.9854C190.519 41.5156 191.093 41.9268 191.645 42.1973C191.666 42.2081 191.677 42.2406 191.666 42.2731C191.655 42.2947 191.623 42.3055 191.59 42.2947C191.028 42.0134 190.433 41.5913 190.065 41.0395C189.783 40.6174 189.632 40.1197 189.751 39.557Z" fill="#6C452C"/>
<path fill-rule="evenodd" clip-rule="evenodd" d="M190.205 39.1675C190.205 39.135 190.227 39.1134 190.248 39.1025C190.281 39.1025 190.302 39.1242 190.313 39.1458C190.367 39.5678 190.703 40.0764 191.179 40.5309C191.677 41.0179 192.326 41.4616 192.932 41.6996C194.122 42.1649 194.209 42.1649 194.209 42.1649C194.241 42.1649 194.263 42.1866 194.263 42.219C194.263 42.2515 194.241 42.2731 194.209 42.2731C194.209 42.2731 194.101 42.2731 192.9 41.797C192.283 41.5481 191.623 41.1045 191.103 40.6067C190.605 40.1414 190.259 39.6111 190.205 39.1675Z" fill="#6C452C"/>
<path fill-rule="evenodd" clip-rule="evenodd" d="M191.276 38.9291C191.265 38.8966 191.287 38.875 191.32 38.8641C191.352 38.8533 191.374 38.875 191.384 38.9074C191.471 39.2645 191.774 39.6541 192.174 39.9895C192.586 40.325 193.116 40.6064 193.624 40.747C194.663 41.0176 194.761 41.0284 194.761 41.0284C194.793 41.0284 194.815 41.0608 194.804 41.0933C194.804 41.1258 194.771 41.1474 194.739 41.1366C194.739 41.1366 194.642 41.1258 193.603 40.8552C193.073 40.7146 192.532 40.4332 192.109 40.0761C191.687 39.719 191.374 39.3078 191.276 38.9291Z" fill="#6C452C"/>
<path fill-rule="evenodd" clip-rule="evenodd" d="M190.952 48.1922C190.919 48.1922 190.897 48.1706 190.897 48.1381C190.897 48.1056 190.919 48.084 190.952 48.084H193.354C193.386 48.084 193.408 48.1056 193.408 48.1381C193.408 48.1706 193.386 48.1922 193.354 48.1922H190.952Z" fill="#AFB0B0"/>
</g>
<g clip-path="url(#clip2_19683_726124)">
<rect x="208" y="35.5" width="24" height="24" rx="12" fill="#DDF3FF"/>
<path fill-rule="evenodd" clip-rule="evenodd" d="M216.751 43.6919C216.968 44.28 217.133 48.7377 216.256 49.0782C213.253 50.2442 213.635 54.093 216.163 55.548C220.94 58.2927 221.694 42.7838 221.652 42.0203C221.621 41.4321 222.24 41.7107 222.199 41.267C222.034 39.2033 220.259 38.3468 218.969 38.5223C217.184 38.7596 215.729 40.9059 216.751 43.6919Z" fill="#23142B"/>
<path fill-rule="evenodd" clip-rule="evenodd" d="M219.547 42.3093C220.29 42.3093 220.899 41.7934 220.899 41.1639C220.899 40.5345 220.29 40.0186 219.547 40.0186C218.804 40.0186 218.195 40.5345 218.195 41.1639C218.206 41.7934 218.804 42.3093 219.547 42.3093Z" fill="#E3A64A"/>
<path fill-rule="evenodd" clip-rule="evenodd" d="M221.074 52.3287L221.022 50.6777H218.03L217.917 52.3287C217.865 53.0613 216.297 53.309 215.688 53.6804C213.872 54.7845 212.283 56.6728 212.345 59.4382H226.698C226.76 56.8276 225.346 54.9909 223.643 53.8662C222.828 53.309 221.095 52.9066 221.074 52.3287Z" fill="#E4AE7C"/>
<path fill-rule="evenodd" clip-rule="evenodd" d="M217.938 52.0398C218.856 52.8859 220.125 52.9066 221.064 52.0914L221.023 50.6777H218.03L217.938 52.0398Z" fill="#D67F54"/>
<path fill-rule="evenodd" clip-rule="evenodd" d="M219.454 51.947C215.1 52.0915 212.902 40.5862 219.454 40.8958C219.475 40.8958 219.506 40.8958 219.526 40.8958C219.547 40.8958 219.578 40.8958 219.598 40.8958C226.151 40.5965 223.953 52.0915 219.598 51.9573C219.578 51.9573 219.547 51.9573 219.526 51.9573C219.506 51.947 219.485 51.9573 219.454 51.947Z" fill="#E4AE7C"/>
<path fill-rule="evenodd" clip-rule="evenodd" d="M215.574 47.1381C215.554 46.942 214.769 46.715 214.511 47.3444C214.253 47.9739 214.718 48.8613 215.605 48.9335C216.493 49.0057 216.235 48.851 216.235 48.851L215.574 47.1381Z" fill="#E4AE7C"/>
<path fill-rule="evenodd" clip-rule="evenodd" d="M223.488 47.1381C223.509 46.942 224.293 46.715 224.551 47.3444C224.809 47.9739 224.345 48.8613 223.457 48.9335C222.57 49.0057 222.828 48.851 222.828 48.851L223.488 47.1381Z" fill="#E4AE7C"/>
<path fill-rule="evenodd" clip-rule="evenodd" d="M218.34 49.5937C219.134 49.5834 219.929 49.5834 220.723 49.5937C220.135 50.739 218.928 50.739 218.34 49.5937Z" fill="#88342A"/>
<path fill-rule="evenodd" clip-rule="evenodd" d="M220.145 50.2648C219.753 50.5228 219.299 50.5228 218.907 50.2648C219.31 50.0172 219.764 50.0172 220.145 50.2648Z" fill="#D17B65"/>
<path fill-rule="evenodd" clip-rule="evenodd" d="M214.873 47.8095C214.873 47.8404 214.852 47.8611 214.821 47.8611C214.79 47.8611 214.77 47.8404 214.77 47.8095C214.77 47.6238 214.8 47.5102 214.862 47.438C214.914 47.3761 214.966 47.3555 215.038 47.3555C215.1 47.3555 215.162 47.3761 215.234 47.4071C215.389 47.4896 215.543 47.6753 215.626 47.8714C215.678 47.9952 215.719 48.119 215.739 48.1913C215.739 48.2119 215.739 48.2326 215.739 48.2532C215.729 48.2945 215.709 48.3151 215.667 48.3048C215.647 48.3048 215.636 48.2945 215.616 48.2738C215.543 48.2016 215.461 48.1706 215.399 48.181C215.378 48.181 215.358 48.1913 215.337 48.2016C215.327 48.2119 215.316 48.2222 215.306 48.2429C215.296 48.2841 215.306 48.3461 215.368 48.4389C215.389 48.4596 215.378 48.4905 215.358 48.5112C215.337 48.5318 215.306 48.5215 215.285 48.5008C215.213 48.3873 215.193 48.2945 215.213 48.2222C215.224 48.181 215.255 48.15 215.285 48.1294C215.316 48.1087 215.358 48.0984 215.399 48.0881C215.471 48.0778 215.554 48.0984 215.636 48.1603C215.616 48.0984 215.585 48.0055 215.554 47.923C215.482 47.7476 215.337 47.5825 215.203 47.5102C215.151 47.4793 215.11 47.469 215.058 47.469C215.017 47.469 214.986 47.4896 214.966 47.5206C214.904 47.5515 214.873 47.6547 214.873 47.8095Z" fill="#D67F54"/>
<path fill-rule="evenodd" clip-rule="evenodd" d="M224.273 47.8093C224.273 47.8403 224.252 47.8609 224.221 47.8609C224.19 47.8609 224.169 47.8403 224.169 47.8093C224.169 47.6545 224.138 47.5514 224.097 47.4998C224.066 47.4688 224.035 47.4482 224.004 47.4482C223.963 47.4482 223.911 47.4585 223.86 47.4894C223.726 47.5617 223.581 47.7268 223.509 47.9022C223.468 47.9847 223.437 48.0776 223.426 48.1395C223.509 48.0879 223.592 48.0673 223.664 48.0673C223.705 48.0673 223.746 48.0879 223.777 48.1086C223.808 48.1292 223.829 48.1601 223.849 48.2014C223.87 48.2737 223.849 48.3665 223.777 48.48C223.757 48.5007 223.726 48.511 223.705 48.4903C223.684 48.4697 223.674 48.4388 223.695 48.4181C223.746 48.3356 223.767 48.2737 223.757 48.2221C223.746 48.2014 223.736 48.1911 223.726 48.1808C223.705 48.1705 223.684 48.1601 223.664 48.1601C223.602 48.1498 223.519 48.1808 223.447 48.253C223.426 48.2737 223.416 48.284 223.395 48.284C223.354 48.2943 223.334 48.2737 223.323 48.2324C223.323 48.2221 223.323 48.2014 223.323 48.1705C223.334 48.0982 223.375 47.9641 223.437 47.8506C223.519 47.6545 223.674 47.4791 223.829 47.3863C223.891 47.345 223.963 47.3243 224.025 47.3347C224.087 47.3347 224.149 47.3656 224.2 47.4172C224.231 47.5101 224.273 47.6236 224.273 47.8093Z" fill="#D67F54"/>
<path fill-rule="evenodd" clip-rule="evenodd" d="M219.238 50.9145C219.217 50.9042 219.207 50.8732 219.217 50.8422C219.227 50.8216 219.258 50.8113 219.289 50.8216C219.361 50.8629 219.454 50.8835 219.537 50.8835C219.63 50.8835 219.712 50.8629 219.784 50.8216C219.805 50.8113 219.836 50.8113 219.857 50.8422C219.867 50.8629 219.867 50.8938 219.836 50.9145C219.754 50.9661 219.64 50.9867 219.537 50.9867C219.423 50.9867 219.32 50.9661 219.238 50.9145Z" fill="#D67F54"/>
<path fill-rule="evenodd" clip-rule="evenodd" d="M219.165 49.9348C219.609 49.9348 220.053 49.9348 220.496 49.9348C220.579 49.8316 220.651 49.7181 220.723 49.5943C220.311 49.584 219.888 49.584 219.475 49.584C219.093 49.584 218.711 49.584 218.34 49.5943C218.402 49.7284 218.484 49.842 218.567 49.9348C218.763 49.9348 218.969 49.9348 219.165 49.9348Z" fill="#EBEBEB"/>
<path fill-rule="evenodd" clip-rule="evenodd" d="M215.162 53.1129C215.172 53.1438 215.162 53.1645 215.131 53.1748C215.1 53.1851 215.079 53.1748 215.069 53.1438C214.914 52.7414 214.842 52.2152 214.904 51.7199C214.956 51.2865 215.1 50.8841 215.368 50.5951C215.936 49.9863 215.987 49.9554 215.987 49.9554C216.008 49.9451 216.039 49.9451 216.06 49.976C216.07 49.9967 216.07 50.0276 216.039 50.0483C216.039 50.0483 215.998 50.0689 215.441 50.6674C215.193 50.9357 215.048 51.3278 215.007 51.7302C214.945 52.2152 215.017 52.7208 215.162 53.1129Z" fill="#4E3B52"/>
<path fill-rule="evenodd" clip-rule="evenodd" d="M215.45 46.0445C215.956 46.4263 218.05 46.7771 219.98 46.3437C221.91 45.9104 222.415 44.9301 222.415 44.9301C222.415 44.9301 223.127 45.8897 223.179 46.643C223.22 47.3859 223.829 44.0633 222.745 43.4339C221.662 42.8148 216.461 42.8148 215.45 46.0445Z" fill="#D67F54"/>
<path fill-rule="evenodd" clip-rule="evenodd" d="M215.461 44.8068C215.688 42.4645 216.854 40.5658 219.537 40.7722C222.498 40.7 223.685 43.1145 223.716 45.7767C223.582 45.7148 223.458 45.6632 223.324 45.6116C223.375 45.2402 223.066 43.7956 222.808 44.0432C219.207 47.4793 215.224 45.7974 215.358 45.6632C215.409 45.591 215.451 44.8893 215.461 44.8068Z" fill="#35253D"/>
<path fill-rule="evenodd" clip-rule="evenodd" d="M215.687 47.7884C215.966 48.2734 215.966 48.2734 215.966 48.2734C215.966 41.2361 221.218 40.586 222.756 45.0746C223.168 46.2922 223.055 47.0042 223.055 48.2734C223.055 48.2734 223.055 48.2734 223.334 47.7884C223.87 46.8494 224.138 46.1168 224.107 44.9508C224.087 44.2078 223.953 43.4752 223.695 42.9593C222.229 39.9978 217.349 39.8637 215.574 42.5568C214.542 44.1253 214.8 46.2303 215.687 47.7884Z" fill="#35253D"/>
<path fill-rule="evenodd" clip-rule="evenodd" d="M222.344 44.6202C222.055 45.0743 221.281 45.9307 220.321 46.0236C220.734 45.6934 221.167 45.2703 221.425 44.9401C221.714 44.5583 221.817 44.2797 222.168 43.9186C222.313 43.7638 222.426 43.8257 222.426 43.8257C222.777 43.9598 222.529 44.2797 222.344 44.6202Z" fill="#35253D"/>
<path fill-rule="evenodd" clip-rule="evenodd" d="M216.09 45.2812C216.059 45.2812 216.049 45.2502 216.049 45.2192C216.049 45.1883 216.08 45.178 216.111 45.178C216.761 45.3018 217.628 45.3018 218.536 45.0748C219.258 44.889 220.011 44.5692 220.703 44.0326C222.24 42.8356 222.168 41.9998 222.168 41.9998C222.168 41.9689 222.188 41.9482 222.219 41.9482C222.25 41.9482 222.271 41.9689 222.271 41.9998C222.271 41.9998 222.353 42.8976 220.764 44.1255C220.063 44.6724 219.299 45.0026 218.567 45.1883C217.638 45.405 216.75 45.405 216.09 45.2812Z" fill="#4E3B52"/>
<path fill-rule="evenodd" clip-rule="evenodd" d="M215.904 44.9819C215.873 44.9819 215.853 44.9509 215.863 44.9303C215.863 44.8993 215.894 44.8787 215.915 44.889C216.41 44.9406 217.132 44.7755 217.844 44.4556C218.494 44.1667 219.144 43.7436 219.598 43.238C220.548 42.1855 220.579 41.618 220.579 41.618C220.579 41.587 220.61 41.5664 220.63 41.5664C220.661 41.5664 220.682 41.5974 220.682 41.618C220.682 41.618 220.651 42.2165 219.671 43.2999C219.206 43.8159 218.546 44.2389 217.875 44.5382C217.163 44.858 216.42 45.0335 215.904 44.9819Z" fill="#4E3B52"/>
<path fill-rule="evenodd" clip-rule="evenodd" d="M215.905 44.4662C215.874 44.4765 215.853 44.4662 215.843 44.4353C215.832 44.4043 215.843 44.3837 215.874 44.3734C216.4 44.167 217.215 43.7026 217.886 43.0423C218.36 42.5676 218.763 41.9898 218.928 41.3294C218.938 41.2984 218.959 41.2881 218.99 41.2881C219.021 41.2984 219.031 41.319 219.031 41.35C218.856 42.0207 218.453 42.6192 217.958 43.1042C217.277 43.7852 216.452 44.2598 215.905 44.4662Z" fill="#4E3B52"/>
<path fill-rule="evenodd" clip-rule="evenodd" d="M219.567 55.7333C217.854 55.7024 216.131 55.4135 214.305 54.7324C213.397 55.5992 212.695 56.7342 212.447 58.1479L214.501 59.4377H219.577H224.654L226.615 58.1169C226.357 56.7342 225.665 55.6301 224.788 54.7634C222.972 55.4134 221.259 55.7024 219.567 55.7333Z" fill="#1F1D2E"/>
<path d="M215.564 50.4917C215.706 50.4917 215.822 50.1591 215.822 49.7488C215.822 49.3385 215.706 49.0059 215.564 49.0059C215.421 49.0059 215.306 49.3385 215.306 49.7488C215.306 50.1591 215.421 50.4917 215.564 50.4917Z" fill="#F0CA0C"/>
<path fill-rule="evenodd" clip-rule="evenodd" d="M223.51 50.4917C223.654 50.4917 223.768 50.1512 223.768 49.7488C223.768 49.3361 223.654 49.0059 223.51 49.0059C223.365 49.0059 223.252 49.3464 223.252 49.7488C223.241 50.1615 223.365 50.4917 223.51 50.4917Z" fill="#F0CA0C"/>
<path fill-rule="evenodd" clip-rule="evenodd" d="M215.564 49.0473C215.667 49.0473 215.749 48.9647 215.749 48.8615C215.749 48.7583 215.667 48.6758 215.564 48.6758C215.46 48.6758 215.378 48.7583 215.378 48.8615C215.378 48.9647 215.46 49.0473 215.564 49.0473Z" fill="#F0CA0C"/>
<path fill-rule="evenodd" clip-rule="evenodd" d="M223.509 49.0473C223.612 49.0473 223.695 48.9647 223.695 48.8615C223.695 48.7583 223.612 48.6758 223.509 48.6758C223.406 48.6758 223.323 48.7583 223.323 48.8615C223.323 48.9647 223.406 49.0473 223.509 49.0473Z" fill="#F0CA0C"/>
<path fill-rule="evenodd" clip-rule="evenodd" d="M219.238 50.9145C219.217 50.9042 219.207 50.8732 219.217 50.8422C219.227 50.8216 219.258 50.8113 219.289 50.8216C219.361 50.8629 219.454 50.8835 219.537 50.8835C219.63 50.8835 219.712 50.8629 219.784 50.8216C219.805 50.8113 219.836 50.8113 219.857 50.8422C219.867 50.8629 219.867 50.8938 219.836 50.9145C219.754 50.9661 219.64 50.9867 219.537 50.9867C219.423 50.9867 219.32 50.9661 219.238 50.9145Z" fill="#D67F54"/>
<path fill-rule="evenodd" clip-rule="evenodd" d="M214.605 57.3125C214.605 57.2712 214.636 57.2402 214.677 57.2402C214.718 57.2402 214.749 57.2712 214.749 57.3125L214.728 59.4278C214.728 59.4691 214.697 59.5 214.656 59.5C214.615 59.5 214.584 59.4691 214.584 59.4278L214.605 57.3125Z" fill="#0E0A1F"/>
<path fill-rule="evenodd" clip-rule="evenodd" d="M224.324 57.3125C224.324 57.2712 224.355 57.2402 224.397 57.2402C224.438 57.2402 224.469 57.2712 224.469 57.3125L224.448 59.4278C224.448 59.4691 224.417 59.5 224.376 59.5C224.335 59.5 224.304 59.4691 224.304 59.4278L224.324 57.3125Z" fill="#0E0A1F"/>
</g>
<g clip-path="url(#clip3_19683_726124)">
<rect x="236" y="35.5" width="24" height="24" rx="12" fill="#FFE5F0"/>
<path fill-rule="evenodd" clip-rule="evenodd" d="M244.09 46.8427C244.069 46.6439 243.264 46.4138 242.992 47.0624C242.72 47.7109 243.211 48.6315 244.132 48.7047C245.052 48.7779 244.78 48.6105 244.78 48.6105L244.09 46.8427Z" fill="#E4AE7C"/>
<path fill-rule="evenodd" clip-rule="evenodd" d="M252.281 46.8427C252.302 46.6439 253.107 46.4138 253.379 47.0624C253.651 47.7109 253.159 48.6315 252.239 48.7047C251.318 48.7779 251.59 48.6105 251.59 48.6105L252.281 46.8427Z" fill="#E4AE7C"/>
<path fill-rule="evenodd" clip-rule="evenodd" d="M248.18 59.4891H240.753C240.669 55.6919 243.588 53.4847 246.098 52.6688C246.297 51.6123 246.245 50.2314 246.245 50.2314H248.169H250.094C250.094 50.2314 250.042 51.6018 250.241 52.6688C252.751 53.4952 255.67 55.6919 255.586 59.4891H248.18Z" fill="#E4AE7C"/>
<path fill-rule="evenodd" clip-rule="evenodd" d="M250.104 50.2314C250.104 50.2314 250.094 50.5034 250.104 50.9009C249.372 52.742 247.092 52.9512 246.255 50.9742C246.265 50.5348 246.255 50.2314 246.255 50.2314C247.531 50.2314 248.818 50.2314 250.104 50.2314Z" fill="#CA976D"/>
<path fill-rule="evenodd" clip-rule="evenodd" d="M255.858 59.4899C255.942 55.7449 253.002 53.5482 250.429 52.7009C249.916 53.8411 246.464 53.8411 245.952 52.6904C243.378 53.5273 240.418 55.7345 240.502 59.4899H255.858V59.4899Z" fill="#312F58"/>
<path fill-rule="evenodd" clip-rule="evenodd" d="M250.105 53.0776C249.226 53.7261 247.103 53.7157 246.245 53.0566V53.3914L246.695 59.5004H249.645L250.095 53.3914V53.0776H250.105Z" fill="#536B8F"/>
<path fill-rule="evenodd" clip-rule="evenodd" d="M248.18 51.2148C243.389 51.3299 240.972 39.5198 248.18 39.8231C255.387 39.5198 252.971 51.3299 248.18 51.2148Z" fill="#E4AE7C"/>
<path fill-rule="evenodd" clip-rule="evenodd" d="M246.935 48.0769C247.374 48.0664 247.813 48.0664 248.253 48.0664C248.692 48.0664 249.131 48.0664 249.571 48.0769C249.571 48.7673 248.891 49.0183 248.253 49.0183C247.615 49.0079 246.935 48.7673 246.935 48.0769Z" fill="white"/>
<path fill-rule="evenodd" clip-rule="evenodd" d="M247.95 49.4266C247.929 49.4161 247.918 49.3847 247.929 49.3533C247.939 49.3324 247.971 49.322 248.002 49.3324C248.075 49.3743 248.17 49.3952 248.253 49.3952C248.347 49.3952 248.431 49.3743 248.504 49.3324C248.525 49.322 248.557 49.322 248.577 49.3533C248.588 49.3743 248.588 49.4057 248.557 49.4266C248.473 49.4789 248.358 49.4998 248.253 49.4998C248.149 49.4998 248.044 49.4789 247.95 49.4266Z" fill="#D67F54"/>
<path fill-rule="evenodd" clip-rule="evenodd" d="M253.096 47.5639C253.096 47.5953 253.075 47.6162 253.044 47.6162C253.012 47.6162 252.992 47.5953 252.992 47.5639C252.992 47.407 252.96 47.3024 252.918 47.2501C252.887 47.2187 252.856 47.1978 252.824 47.1978C252.782 47.1978 252.73 47.2083 252.678 47.2397C252.542 47.3129 252.395 47.4802 252.322 47.6581C252.28 47.7418 252.249 47.8359 252.238 47.8987C252.322 47.8464 252.406 47.8255 252.479 47.8255C252.521 47.8255 252.563 47.8464 252.594 47.8673C252.625 47.8882 252.646 47.9196 252.667 47.9614C252.688 48.0347 252.667 48.1288 252.594 48.2439C252.573 48.2648 252.542 48.2753 252.521 48.2543C252.5 48.2334 252.489 48.202 252.51 48.1811C252.563 48.0974 252.584 48.0347 252.573 47.9824C252.563 47.9614 252.552 47.951 252.542 47.9405C252.521 47.9301 252.5 47.9196 252.479 47.9196C252.416 47.9091 252.333 47.9405 252.259 48.0137C252.238 48.0347 252.228 48.0451 252.207 48.0451C252.165 48.0556 252.144 48.0347 252.134 47.9928C252.134 47.9824 252.134 47.9614 252.134 47.9301C252.144 47.8568 252.186 47.7208 252.249 47.6058C252.333 47.407 252.489 47.2292 252.646 47.135C252.709 47.0932 252.782 47.0723 252.845 47.0827C252.908 47.0827 252.971 47.1141 253.023 47.1664C253.054 47.2606 253.096 47.3861 253.096 47.5639Z" fill="#D67F54"/>
<path fill-rule="evenodd" clip-rule="evenodd" d="M243.368 47.5648C243.368 47.5961 243.347 47.6171 243.316 47.6171C243.285 47.6171 243.264 47.5961 243.264 47.5648C243.264 47.3765 243.295 47.2614 243.358 47.1882C243.41 47.1254 243.462 47.1045 243.536 47.1045C243.598 47.1045 243.661 47.1254 243.734 47.1568C243.891 47.2405 244.048 47.4288 244.132 47.6275C244.184 47.7531 244.226 47.8786 244.247 47.9518C244.247 47.9727 244.247 47.9937 244.247 48.0146C244.237 48.0564 244.216 48.0773 244.174 48.0669C244.153 48.0669 244.142 48.0564 244.121 48.0355C244.048 47.9623 243.965 47.9309 243.902 47.9413C243.881 47.9413 243.86 47.9518 243.839 47.9623C243.829 47.9727 243.818 47.9832 243.808 48.0041C243.797 48.046 243.808 48.1087 243.87 48.2029C243.891 48.2238 243.881 48.2552 243.86 48.2761C243.839 48.297 243.808 48.2865 243.787 48.2656C243.713 48.1506 243.693 48.0564 243.713 47.9832C243.724 47.9413 243.755 47.91 243.787 47.889C243.818 47.8681 243.86 47.8577 243.902 47.8472C243.975 47.8367 244.069 47.8577 244.142 47.9204C244.121 47.8577 244.09 47.7635 244.059 47.6798C243.985 47.502 243.839 47.3346 243.703 47.2614C243.651 47.23 243.609 47.2196 243.557 47.2196C243.515 47.2196 243.483 47.2405 243.462 47.2719C243.4 47.3137 243.368 47.4079 243.368 47.5648Z" fill="#D67F54"/>
<path fill-rule="evenodd" clip-rule="evenodd" d="M244.132 47.5751C243.797 46.9265 243.483 45.6713 243.441 44.5206C243.4 43.4954 243.588 42.5749 243.87 41.9891C244.676 40.3259 246.496 39.353 248.107 39.3949C248.128 39.3949 248.159 39.3949 248.18 39.3949C248.201 39.3949 248.232 39.3949 248.253 39.3949C249.864 39.353 251.684 40.3154 252.49 41.9891C252.762 42.5644 252.961 43.4954 252.919 44.5206C252.877 45.6817 252.563 46.937 252.228 47.5751C252.343 46.1002 252.009 45.4621 251.674 45.1273C250.931 44.28 251.067 43.6837 251.109 43.4536C251.14 43.2549 252.04 42.5331 251.956 42.2716C251.684 41.4138 249.038 42.3866 248.337 42.3866C248.316 42.3866 248.285 42.3866 248.264 42.3866C248.243 42.3866 248.211 42.3866 248.191 42.3866C248.17 42.3866 248.138 42.3866 248.117 42.3866C248.096 42.3866 248.065 42.3866 248.044 42.3866C247.333 42.3866 244.686 41.4138 244.425 42.2716C244.341 42.5331 245.241 43.2444 245.272 43.4536C245.303 43.6837 245.45 44.2905 244.707 45.1273C244.351 45.4621 244.027 46.1002 244.132 47.5751Z" fill="#3F2716"/>
<path fill-rule="evenodd" clip-rule="evenodd" d="M246.213 52.0105C245.816 51.7071 244.006 56.6654 244.403 56.3202C244.717 56.0378 245.659 54.7198 246.495 56.4353C246.339 54.8348 246.318 52.7636 246.213 52.0105Z" fill="#424B72"/>
<path fill-rule="evenodd" clip-rule="evenodd" d="M250.147 52.0105C250.544 51.7071 252.354 56.6654 251.956 56.3202C251.643 56.0378 250.701 54.7198 249.864 56.4353C250.021 54.8348 250.042 52.7636 250.147 52.0105Z" fill="#424B72"/>
<path fill-rule="evenodd" clip-rule="evenodd" d="M244.32 42.334C244.833 43.014 245.743 43.265 247.218 43.4533C248.609 43.6312 250.272 43.4429 251.371 42.8989C253.065 42.0516 252.908 39.6979 252.73 39.7816C250.649 40.7754 249.937 39.154 248.442 38.6937C247.312 38.3485 245.795 38.3381 244.582 39.7398C243.912 40.5139 243.734 41.5495 244.32 42.334Z" fill="#52311D"/>
<path fill-rule="evenodd" clip-rule="evenodd" d="M242.761 57.2617C242.761 57.2199 242.793 57.1885 242.834 57.1885C242.876 57.1885 242.908 57.2199 242.908 57.2617L242.887 59.4061C242.887 59.448 242.855 59.4794 242.813 59.4794C242.772 59.4794 242.74 59.448 242.74 59.4061L242.761 57.2617Z" fill="#1E1F42"/>
<path fill-rule="evenodd" clip-rule="evenodd" d="M253.452 57.2617C253.452 57.2199 253.483 57.1885 253.525 57.1885C253.567 57.1885 253.598 57.2199 253.598 57.2617L253.577 59.4061C253.577 59.448 253.546 59.4794 253.504 59.4794C253.462 59.4794 253.431 59.448 253.431 59.4061L253.452 57.2617Z" fill="#1E1F42"/>
</g>
<rect x="52" y="71.5" width="208" height="44" rx="8" fill="#EBF2FF"/>
<g clip-path="url(#clip4_19683_726124)">
<path d="M69.9203 81.5H78.0797C82.4546 81.5 86 85.0453 86 89.4203V97.5797C86 101.953 82.4546 105.5 78.0797 105.5H69.9203C65.5453 105.5 62 101.955 62 97.5797V89.4203C62 85.0453 65.5453 81.5 69.9203 81.5Z" fill="url(#paint0_linear_19683_726124)"/>
<path d="M78.1876 95.6981L79.4219 96.7262C79.7235 96.9778 79.875 97.1044 79.9969 97.134C80.2468 97.195 80.5047 97.0747 80.6172 96.8434C80.6719 96.7309 80.6719 96.534 80.6719 96.1403V90.859C80.6719 90.4653 80.6719 90.2685 80.6172 90.1559C80.5047 89.9247 80.2468 89.8044 79.9969 89.8653C79.875 89.895 79.7235 90.0216 79.4219 90.2731L78.1876 91.3013C77.986 91.4685 77.886 91.5528 77.8047 91.6481C77.6422 91.8403 77.5344 92.0716 77.4906 92.3184C77.4687 92.4418 77.4688 92.5731 77.4688 92.8341V94.1653C77.4688 94.4263 77.4687 94.5575 77.4906 94.681C77.5344 94.9278 77.6422 95.1591 77.8047 95.3513C77.886 95.4481 77.9875 95.5309 78.1876 95.6981Z" fill="white"/>
<path d="M67.3281 91.1761C67.3281 90.6824 67.3281 90.4356 67.425 90.2465C67.5094 90.0809 67.6438 89.9465 67.8109 89.8605C68 89.7637 68.2469 89.7637 68.7406 89.7637H73.2407C74.5344 89.7637 75.1813 89.7637 75.675 90.0152C76.1094 90.2371 76.4625 90.5902 76.6844 91.0246C76.9359 91.5183 76.9359 92.1652 76.9359 93.4574V95.8215C76.9359 96.3153 76.9359 96.5621 76.8391 96.7512C76.7547 96.9168 76.6203 97.0512 76.4532 97.1371C76.264 97.234 76.0172 97.234 75.5234 97.234H71.0234C69.7297 97.234 69.0828 97.234 68.5891 96.9824C68.1547 96.7606 67.8016 96.4074 67.5797 95.9731C67.3281 95.4793 67.3281 94.8324 67.3281 93.5402V91.1761Z" fill="white"/>
</g>
<rect x="96" y="89.5" width="74" height="8" rx="2" fill="#091F34" fill-opacity="0.12"/>
<g clip-path="url(#clip5_19683_726124)">
<rect x="180" y="81.5" width="70" height="24" rx="8" fill="#28526E"/>
<path d="M196.367 97.5V91.543H198.54V90.4541H192.939V91.543H195.107V97.5H196.367ZM199.78 97.5H200.991V94.3994C200.991 93.6328 201.436 93.1152 202.231 93.1152C202.935 93.1152 203.306 93.5303 203.306 94.3408V97.5H204.517V94.0527C204.517 92.7832 203.823 92.0605 202.681 92.0605C201.885 92.0605 201.313 92.4219 201.06 93.0225H200.972V90.0928H199.78V97.5ZM207.778 96.6357C207.241 96.6357 206.855 96.3672 206.855 95.918C206.855 95.4834 207.173 95.2393 207.852 95.1953L209.058 95.1172V95.542C209.058 96.1621 208.511 96.6357 207.778 96.6357ZM207.422 97.5879C208.12 97.5879 208.706 97.2852 209.004 96.7676H209.087V97.5H210.254V93.8525C210.254 92.7197 209.482 92.0508 208.11 92.0508C206.841 92.0508 205.957 92.6514 205.859 93.5938H207.002C207.114 93.2324 207.495 93.0371 208.052 93.0371C208.706 93.0371 209.058 93.3301 209.058 93.8525V94.3018L207.681 94.3848C206.382 94.4629 205.654 95.0195 205.654 95.9863C205.654 96.9629 206.392 97.5879 207.422 97.5879ZM211.714 97.5H212.925V94.2529C212.925 93.5986 213.369 93.1055 213.97 93.1055C214.565 93.1055 214.937 93.4619 214.937 94.0479V97.5H216.113V94.1748C216.113 93.5645 216.528 93.1055 217.158 93.1055C217.808 93.1055 218.135 93.4473 218.135 94.1357V97.5H219.341V93.8281C219.341 92.7197 218.696 92.0508 217.627 92.0508C216.885 92.0508 216.27 92.4365 216.006 93.0225H215.923C215.698 92.4219 215.186 92.0508 214.448 92.0508C213.74 92.0508 213.193 92.4121 212.964 93.0225H212.881V92.1582H211.714V97.5ZM225.737 96.4355C224.893 96.4355 224.414 95.791 224.414 94.7705C224.414 93.75 224.893 93.1006 225.737 93.1006C226.577 93.1006 227.09 93.75 227.09 94.7705C227.09 95.791 226.582 96.4355 225.737 96.4355ZM225.737 99.5312C227.295 99.5312 228.281 98.7549 228.281 97.5195V92.1582H227.114V93.0127H227.031C226.738 92.4316 226.104 92.0703 225.376 92.0703C224.014 92.0703 223.169 93.1348 223.169 94.7705C223.169 96.377 224.009 97.4219 225.356 97.4219C226.099 97.4219 226.68 97.1094 226.987 96.5381H227.07V97.5488C227.07 98.2178 226.587 98.6084 225.757 98.6084C225.093 98.6084 224.663 98.374 224.585 98.0078H223.369C223.467 98.9258 224.365 99.5312 225.737 99.5312ZM229.785 97.5H230.991V92.1582H229.785V97.5ZM230.386 91.2891C230.83 91.2891 231.133 91.0059 231.133 90.6201C231.133 90.2344 230.83 89.9512 230.386 89.9512C229.946 89.9512 229.639 90.2344 229.639 90.6201C229.639 91.0059 229.946 91.2891 230.386 91.2891ZM234.321 96.6357C233.784 96.6357 233.398 96.3672 233.398 95.918C233.398 95.4834 233.716 95.2393 234.395 95.1953L235.601 95.1172V95.542C235.601 96.1621 235.054 96.6357 234.321 96.6357ZM233.965 97.5879C234.663 97.5879 235.249 97.2852 235.547 96.7676H235.63V97.5H236.797V93.8525C236.797 92.7197 236.025 92.0508 234.653 92.0508C233.384 92.0508 232.5 92.6514 232.402 93.5938H233.545C233.657 93.2324 234.038 93.0371 234.595 93.0371C235.249 93.0371 235.601 93.3301 235.601 93.8525V94.3018L234.224 94.3848C232.925 94.4629 232.197 95.0195 232.197 95.9863C232.197 96.9629 232.935 97.5879 233.965 97.5879Z" fill="white"/>
</g>
<path d="M57.6758 140.242V139.535H55.3359V140.324H56.6914L56.6875 140.441C56.6719 141.219 56.0859 141.742 55.2266 141.742C54.2227 141.742 53.5938 140.953 53.5938 139.672C53.5938 138.406 54.2109 137.621 55.1953 137.621C55.918 137.621 56.4219 137.977 56.625 138.617H57.6289C57.4492 137.465 56.4961 136.723 55.1953 136.723C53.5898 136.723 52.5625 137.875 52.5625 139.68C52.5625 141.508 53.5781 142.641 55.2109 142.641C56.7148 142.641 57.6758 141.707 57.6758 140.242ZM63.6016 142.5V136.863H62.5977V139.195H59.8555V136.863H58.8477V142.5H59.8555V140.066H62.5977V142.5H63.6016ZM66.0039 142.5V136.863H64.9961V142.5H66.0039ZM71.8789 142.641C73.1797 142.641 74.1328 141.863 74.2656 140.711H73.2734C73.1367 141.344 72.5938 141.742 71.8789 141.742C70.918 141.742 70.3203 140.953 70.3203 139.68C70.3203 138.41 70.918 137.621 71.875 137.621C72.5859 137.621 73.1289 138.059 73.2695 138.734H74.2617C74.1445 137.559 73.1562 136.723 71.875 136.723C70.2773 136.723 69.2891 137.852 69.2891 139.684C69.2891 141.508 70.2812 142.641 71.8789 142.641ZM80.1406 142.5V136.863H79.1367V139.195H76.3945V136.863H75.3867V142.5H76.3945V140.066H79.1367V142.5H80.1406ZM82.5547 136.863H81.5508V140.559C81.5508 141.789 82.4414 142.641 83.8672 142.641C85.293 142.641 86.1836 141.789 86.1836 140.559V136.863H85.1758V140.465C85.1758 141.227 84.7031 141.738 83.8672 141.738C83.0312 141.738 82.5547 141.227 82.5547 140.465V136.863ZM84.3438 136.309L85.5977 135.098H84.4922L83.3672 136.309H84.3438Z" fill="black"/>
<rect x="52" y="152.5" width="202" height="6" rx="3" fill="#ECEEF1"/>
<rect x="52" y="164.5" width="88.5714" height="6" rx="3" fill="#ECEEF1"/>
<g filter="url(#filter0_d_19683_726124)">
<rect x="181" y="128.5" width="120" height="36" rx="8" fill="white" shape-rendering="crispEdges"/>
<g clip-path="url(#clip6_19683_726124)">
<path d="M203.584 141.5H206.834C206.875 141.5 206.916 141.488 206.95 141.465C206.984 141.442 207.011 141.41 207.027 141.372C207.043 141.334 207.047 141.292 207.039 141.251C207.031 141.211 207.011 141.174 206.981 141.144L202.69 136.856C202.661 136.827 202.624 136.807 202.584 136.799C202.544 136.791 202.502 136.795 202.464 136.81C202.426 136.826 202.393 136.852 202.37 136.886C202.347 136.919 202.335 136.959 202.334 137V140.25C202.334 140.582 202.466 140.9 202.7 141.134C202.935 141.369 203.252 141.5 203.584 141.5Z" fill="#DA3C0F"/>
<path d="M207.273 142.394C207.312 142.433 207.334 142.486 207.334 142.542V154.833C207.334 155.275 207.158 155.699 206.846 156.012C206.533 156.324 206.109 156.5 205.667 156.5H192.334C191.892 156.5 191.468 156.324 191.155 156.012C190.843 155.699 190.667 155.275 190.667 154.833V138.167C190.667 137.725 190.843 137.301 191.155 136.988C191.468 136.676 191.892 136.5 192.334 136.5H201.292C201.347 136.5 201.4 136.522 201.439 136.561C201.478 136.6 201.5 136.653 201.5 136.708V140.25C201.5 140.803 201.72 141.332 202.111 141.723C202.501 142.114 203.031 142.333 203.584 142.333H207.125C207.181 142.333 207.234 142.355 207.273 142.394Z" fill="#DA3C0F"/>
<path d="M193.345 151.5H194.42V150.261H195.146C196.09 150.261 196.699 149.681 196.699 148.775V148.77C196.699 147.864 196.09 147.272 195.146 147.272H193.345V151.5ZM194.889 148.096C195.343 148.096 195.612 148.33 195.612 148.77V148.775C195.612 149.215 195.343 149.452 194.889 149.452H194.42V148.096H194.889Z" fill="white"/>
<path d="M197.177 151.5H198.894C200.168 151.5 200.921 150.712 200.921 149.361V149.355C200.921 148.011 200.168 147.272 198.894 147.272H197.177V151.5ZM198.252 150.633V148.14H198.753C199.43 148.14 199.828 148.567 199.828 149.358V149.364C199.828 150.208 199.453 150.633 198.753 150.633H198.252Z" fill="white"/>
<path d="M201.442 151.5H202.518V149.924H204.155V149.101H202.518V148.137H204.319V147.272H201.442V151.5Z" fill="white"/>
</g>
<g clip-path="url(#clip7_19683_726124)">
<path d="M231.584 141.5H234.834C234.875 141.5 234.916 141.488 234.95 141.465C234.984 141.442 235.011 141.41 235.027 141.372C235.043 141.334 235.047 141.292 235.039 141.251C235.031 141.211 235.011 141.174 234.981 141.144L230.69 136.856C230.661 136.827 230.624 136.807 230.584 136.799C230.544 136.791 230.502 136.795 230.464 136.81C230.426 136.826 230.393 136.852 230.37 136.886C230.347 136.919 230.335 136.959 230.334 137V140.25C230.334 140.582 230.466 140.9 230.7 141.134C230.935 141.369 231.252 141.5 231.584 141.5Z" fill="#FF4D82"/>
<path d="M235.273 142.394C235.312 142.433 235.334 142.486 235.334 142.542V154.833C235.334 155.275 235.158 155.699 234.846 156.012C234.533 156.324 234.109 156.5 233.667 156.5H220.334C219.892 156.5 219.468 156.324 219.155 156.012C218.843 155.699 218.667 155.275 218.667 154.833V138.167C218.667 137.725 218.843 137.301 219.155 136.988C219.468 136.676 219.892 136.5 220.334 136.5H229.292C229.347 136.5 229.4 136.522 229.439 136.561C229.478 136.6 229.5 136.653 229.5 136.708V140.25C229.5 140.803 229.72 141.332 230.111 141.723C230.501 142.114 231.031 142.333 231.584 142.333H235.125C235.181 142.333 235.234 142.355 235.273 142.394Z" fill="#FF4D82"/>
<path fill-rule="evenodd" clip-rule="evenodd" d="M229.942 146.937C230.686 147.45 230.686 148.55 229.942 149.063L226.015 151.771C225.162 152.359 224 151.746 224 150.708V145.292C224 144.254 225.162 143.641 226.015 144.229L229.942 146.937Z" fill="white"/>
</g>
<g clip-path="url(#clip8_19683_726124)">
<path d="M259.584 141.5H262.834C262.875 141.5 262.916 141.488 262.95 141.465C262.984 141.442 263.011 141.41 263.027 141.372C263.043 141.334 263.047 141.292 263.039 141.251C263.031 141.211 263.011 141.174 262.981 141.144L258.69 136.856C258.661 136.827 258.624 136.807 258.584 136.799C258.544 136.791 258.502 136.795 258.464 136.81C258.426 136.826 258.393 136.852 258.37 136.886C258.347 136.919 258.335 136.959 258.334 137V140.25C258.334 140.582 258.466 140.9 258.7 141.134C258.935 141.369 259.252 141.5 259.584 141.5Z" fill="#F3B612"/>
<path d="M263.273 142.394C263.312 142.433 263.334 142.486 263.334 142.542V154.833C263.334 155.275 263.158 155.699 262.846 156.012C262.533 156.324 262.109 156.5 261.667 156.5H248.334C247.892 156.5 247.468 156.324 247.155 156.012C246.843 155.699 246.667 155.275 246.667 154.833V138.167C246.667 137.725 246.843 137.301 247.155 136.988C247.468 136.676 247.892 136.5 248.334 136.5H257.292C257.347 136.5 257.4 136.522 257.439 136.561C257.478 136.6 257.5 136.653 257.5 136.708V140.25C257.5 140.803 257.72 141.332 258.111 141.723C258.501 142.114 259.031 142.333 259.584 142.333H263.125C263.181 142.333 263.234 142.355 263.273 142.394Z" fill="#F3B612"/>
<path d="M252.621 152H254.055V150.348H255.023C256.281 150.348 257.094 149.574 257.094 148.367V148.359C257.094 147.152 256.281 146.363 255.023 146.363H252.621V152ZM254.68 147.461C255.285 147.461 255.645 147.773 255.645 148.359V148.367C255.645 148.953 255.285 149.27 254.68 149.27H254.055V147.461H254.68Z" fill="white"/>
</g>
<g clip-path="url(#clip9_19683_726124)">
<path d="M287.584 141.5H290.834C290.875 141.5 290.916 141.488 290.95 141.465C290.984 141.442 291.011 141.41 291.027 141.372C291.043 141.334 291.047 141.292 291.039 141.251C291.031 141.211 291.011 141.174 290.981 141.144L286.69 136.856C286.661 136.827 286.624 136.807 286.584 136.799C286.544 136.791 286.502 136.795 286.464 136.81C286.426 136.826 286.393 136.852 286.37 136.886C286.347 136.919 286.335 136.959 286.334 137V140.25C286.334 140.582 286.466 140.9 286.7 141.134C286.935 141.369 287.252 141.5 287.584 141.5Z" fill="#58AA2C"/>
<path d="M291.273 142.394C291.312 142.433 291.334 142.486 291.334 142.542V154.833C291.334 155.275 291.158 155.699 290.846 156.012C290.533 156.324 290.109 156.5 289.667 156.5H276.334C275.892 156.5 275.468 156.324 275.155 156.012C274.843 155.699 274.667 155.275 274.667 154.833V138.167C274.667 137.725 274.843 137.301 275.155 136.988C275.468 136.676 275.892 136.5 276.334 136.5H285.292C285.347 136.5 285.4 136.522 285.439 136.561C285.478 136.6 285.5 136.653 285.5 136.708V140.25C285.5 140.803 285.72 141.332 286.111 141.723C286.501 142.114 287.031 142.333 287.584 142.333H291.125C291.181 142.333 291.234 142.355 291.273 142.394Z" fill="#58AA2C"/>
<path d="M279.816 152H281.34L282.43 150.172H282.465L283.562 152H285.172L283.395 149.18V149.16L285.188 146.363H283.598L282.57 148.273H282.527L281.492 146.363H279.82L281.539 149.145V149.168L279.816 152Z" fill="white"/>
</g>
<rect x="181.5" y="129" width="119" height="35" rx="7.5" stroke="#DADDE1" shape-rendering="crispEdges"/>
</g>
</g>
</svg>
