<svg width="200" height="117" viewBox="0 0 200 117" fill="none" xmlns="http://www.w3.org/2000/svg">
<rect x="137.407" y="22.8973" width="52.9473" height="62.7682" rx="3" transform="rotate(6.83461 137.407 22.8973)" fill="#FAF9F8"/>
<rect x="140.392" y="26.6955" width="46.1154" height="46.1154" transform="rotate(6.83461 140.392 26.6955)" fill="#CDEAFF"/>
<rect x="150.122" y="35.8319" width="52.9473" height="62.7682" rx="3" transform="rotate(20 150.122 35.8319)" fill="#FAF9F8"/>
<rect x="152.163" y="40.2102" width="46.1154" height="46.1154" transform="rotate(20 152.163 40.2102)" fill="#E8C3FF"/>
<g opacity="0.7" clip-path="url(#clip0_547_54)">
<path d="M177.982 78.696C177.977 78.8325 177.998 78.9647 178.016 79.1084C178.109 79.6902 178.433 80.2567 178.36 80.8489C178.229 81.9003 176.984 82.3872 175.94 82.4729C173.053 82.7069 169.903 81.4643 167.239 80.7514C164.727 80.0738 162.36 77.8596 159.802 77.5692C158.88 77.4672 157.952 77.7025 157.023 77.6613C155.473 77.6001 153.981 76.7539 153.133 75.4575C152.651 74.7155 152.336 73.8003 151.593 73.3279C150.881 72.8777 149.935 72.9315 149.238 72.4735C148.334 71.875 148.156 70.5635 148.537 69.5533C148.918 68.5431 149.73 67.7567 150.514 67.0238C152.326 65.3342 154.262 63.5327 154.869 61.1247C155.132 60.0899 155.181 58.8997 155.979 58.1969C156.584 57.6715 157.462 57.5962 158.195 57.2619C159.191 56.8096 159.896 55.8886 160.717 55.1551C162.142 53.8584 164.026 53.0578 165.957 52.9497C171.452 52.6075 175.243 55.044 177.229 60.026C177.964 61.8774 178.549 63.7313 178.635 65.73C178.731 67.7815 177.587 70.297 178.283 72.2362C178.493 72.8046 178.877 73.302 179.042 73.8939C179.455 75.4931 177.981 77.0634 177.982 78.696Z" fill="#491606"/>
<path d="M143.65 85.2928C143.419 86.5764 143.252 87.6581 143.191 88.0088C143.126 88.3707 143.062 88.7327 143.009 89.0982C142.824 90.2359 142.676 91.3731 142.562 92.5209C142.528 92.8675 142.493 93.2141 142.458 93.5607C142.449 93.7059 142.426 93.8588 142.417 94.0041C142.361 94.6152 142.331 95.2222 142.286 95.8368C142.279 96.0564 142.285 96.2312 142.276 96.3393C142.199 98.5097 142.126 100.669 142.049 102.839C142.048 102.999 142.033 103.167 142.032 103.327C141.98 104.63 141.899 105.949 141.53 107.201C141.069 108.745 140.215 110.042 139.26 111.307C138.933 111.993 138.549 112.662 138.124 113.305C137.793 113.805 137.444 114.286 137.124 114.753C140.466 118.246 154.884 122.797 159.836 121.532C159.833 121.149 159.838 120.78 159.853 120.416C160.027 117.622 160.517 114.731 162.129 112.439C162.275 112.054 162.432 111.672 162.624 111.301C164.577 107.415 168.032 104.693 169.54 100.569L169.608 100.59C170.199 99.0254 170.768 97.4165 171.385 95.8106C171.534 95.4138 171.684 95.017 171.833 94.6203C172.268 93.4748 172.666 92.33 172.999 91.1527C173.438 89.6017 173.107 88.6097 172.39 87.78C172.265 87.6295 172.124 87.4866 171.972 87.3401C171.554 86.9374 171.063 86.5731 170.544 86.1756C170.276 85.9678 169.996 85.7564 169.712 85.519C169.541 85.3914 169.397 85.2598 169.245 85.1133C168.089 84.0711 167.007 82.8305 166.64 81.3218C166.249 79.6946 166.875 78.1778 167.381 76.648C167.555 76.1355 167.717 75.6195 167.82 75.0969C168.146 73.5104 167.662 71.6688 166.711 70.2847C166.501 69.9718 166.257 69.6854 166.002 69.4327C165.501 68.942 164.9 68.5309 164.225 68.3555C163.539 68.1766 162.787 68.2479 162.193 68.6405C161.861 68.869 161.605 69.1707 161.399 69.5125C161.163 69.9069 160.985 70.3562 160.813 70.7831C160.61 71.3109 160.407 71.8388 160.196 72.3519C160.024 72.7787 159.849 73.2168 159.666 73.6402C159.627 73.7264 159.584 73.8238 159.544 73.91C158.867 75.4722 158.606 77.56 156.935 78.4272C153.914 80.004 151.305 79.1334 148.321 79.1804C147.959 79.1898 147.593 79.2105 147.225 79.2423C146.241 79.3396 145.562 79.7299 145.075 80.2919C144.034 81.5548 143.941 83.6213 143.65 85.2928Z" fill="#FFBEB8"/>
<path d="M172.972 72.8595C171.946 72.5366 171.375 71.446 171.697 70.4238C172.019 69.4015 173.111 68.8346 174.137 69.1575C175.163 69.4804 175.734 70.571 175.412 71.5932C175.091 72.6155 173.998 73.1824 172.972 72.8595Z" fill="#F4897D"/>
<path d="M157.638 67.8358C156.612 67.5128 156.041 66.4224 156.363 65.4001C156.685 64.3778 157.778 63.8109 158.803 64.1338C159.829 64.4567 160.4 65.5472 160.078 66.5695C159.757 67.5918 158.664 68.1587 157.638 67.8358Z" fill="#F4897D"/>
<path d="M167.898 75.3478C167.562 76.4162 165.436 77.3531 163.059 76.6049C160.682 75.8566 159.71 73.1268 160.046 72.0584C160.383 70.99 161.9 71.9876 164.277 72.7358C166.654 73.484 168.235 74.2794 167.898 75.3478Z" fill="#F4897D"/>
<path d="M170.415 73.5793C171.454 72.6861 172.366 71.5519 173.129 70.3329C175.327 66.8365 175.204 63.1374 172.651 59.8183C172.035 59.0081 171.359 58.2292 170.522 57.6388C167.469 55.4701 163.822 56.5485 161.64 59.2703C160.452 60.758 159.846 62.4035 159.549 64.1467C159.098 65.3002 158.848 67.0578 158.847 68.3028C158.859 71.1116 160.239 73.747 162.879 74.9049C165.813 76.1683 168.376 75.3271 170.415 73.5793Z" fill="#FFBEB8"/>
<path d="M176.304 67.3354C176.12 67.8346 175.715 68.3061 175.293 68.7445C174.969 69.0882 174.62 69.4241 174.369 69.7492C174.216 69.9375 174.017 70.1397 173.768 70.1169C173.457 70.0747 173.331 69.7009 173.329 69.4077C173.314 67.4389 175.047 65.3237 173.48 63.4793C173.113 63.0574 172.596 62.8112 172.189 62.4322C171.345 61.6373 171.122 60.2018 171.665 59.1192C170.114 59.3693 167.869 59.1229 166.527 59.9961C166.121 60.2581 165.756 60.6029 165.337 60.861C164.755 61.2073 164.058 61.3638 163.395 61.2807C162.81 61.208 162.224 60.9678 161.632 61.0461C160.261 61.2413 159.941 64.3161 159.614 65.3554C159.53 65.6215 159.418 65.8926 159.178 66.0539C159.125 66.093 159.064 66.1156 158.999 66.1089C158.921 66.0984 158.855 66.0498 158.806 65.9925C158.723 65.9108 158.653 65.8331 158.583 65.7553C157.453 64.4107 157.945 62.9774 158.452 61.4516C158.984 59.8497 159.368 58.2852 160.391 56.8799C161.216 55.7605 162.411 54.9667 163.76 54.4578C166.131 53.5745 169.012 53.5618 171.28 54.2062C172.124 54.4439 172.897 55.0772 173.62 55.6532C173.859 55.8397 174.097 56.0262 174.327 56.1961C176.008 57.3797 177.299 60.1404 177.233 62.1114C177.216 62.5937 177.126 63.0528 177.031 63.5245C176.811 64.7369 176.732 66.1468 176.304 67.3354Z" fill="#491606"/>
<path d="M160.834 82.6529C155.399 80.9422 157.801 77.6972 157.801 77.6972L155.032 77.2075C155.032 77.2075 146.13 103.615 145.292 106.276C144.455 108.937 139.156 116.641 139.156 116.641C139.156 116.641 142.712 118.76 146.988 120.106C151.263 121.451 159.949 124.186 159.949 124.186C159.949 124.186 167.835 88.6533 168.619 87.3508C169.404 86.0483 171.296 83.023 171.296 83.023L166.716 80.3285C165.977 81.3487 166.792 84.5283 160.834 82.6529Z" fill="white"/>
<path d="M155.484 76.9931C155.484 76.9931 150.379 89.957 149.575 93.7028C148.748 97.4414 147.418 107.145 145.626 110.855C144.569 113.021 144.112 115.427 143.305 117.672C142.83 119.022 142.17 120.564 140.568 120.809C138.462 121.146 136.171 120.325 134.179 119.748C132.732 119.343 130.246 118.585 130.379 116.653C130.519 114.622 132.889 111.619 132.412 111.544C131.936 111.469 127.418 109.147 126.852 107.295C126.191 105.187 128.488 103.286 129.154 102.046C131.568 97.6321 133.819 92.9422 136.949 88.9537C139.458 85.7448 139.239 81.6781 142.69 78.8907C146.142 76.1032 147.316 77.0346 149.274 76.9263C151.233 76.818 155.484 76.9931 155.484 76.9931Z" fill="#231F20"/>
<path d="M168.386 81.3323C168.386 81.3323 161.863 94.7499 160.877 99.788C159.868 104.819 153.858 118.673 152.682 121.377C151.483 124.074 151.553 125.52 154.009 126.293C156.464 127.066 159.122 128.152 161.05 128.934C162.978 129.716 163.759 127.713 164.348 126.398C164.936 125.084 166.373 122.187 168.539 122.769C170.675 123.366 172.158 121.834 172.721 119.012C173.284 116.19 175.14 100.528 176.089 97.3533C177.568 92.4954 176.004 87.2785 173.949 84.8324C172.441 83.0331 168.386 81.3323 168.386 81.3323Z" fill="#231F20"/>
<path d="M134.281 109.258C135.805 107.514 136.289 104.866 137.362 102.805C138.757 100.12 140.182 97.4194 141.38 94.6473C142.46 92.0882 143.306 89.4802 143.818 86.7422C144.36 83.9885 144.728 81.2303 145.55 78.5398C145.643 78.2442 146.098 78.3873 146.005 78.683C145.14 81.5099 144.774 84.4189 144.189 87.309C143.612 90.1763 142.67 92.9291 141.479 95.6032C140.309 98.209 138.994 100.719 137.671 103.252C136.605 105.291 136.157 107.824 134.626 109.592C134.397 109.844 134.082 109.495 134.281 109.258Z" fill="#4E4446"/>
<path d="M170.828 94.9441C171.274 93.6849 171.766 92.4401 172.403 91.2909C173.149 89.9513 174.071 88.6918 174.422 87.1779C174.493 86.8751 174.947 87.0183 174.877 87.321C174.589 88.5549 173.951 89.6287 173.306 90.7253C172.514 92.0506 171.874 93.4487 171.34 94.9053C170.303 97.803 169.623 100.838 168.881 103.829C168.091 107.054 167.392 110.308 166.859 113.589C166.442 116.182 165.793 118.802 166.011 121.445C166.038 121.754 165.571 121.731 165.543 121.423C165.325 118.78 165.975 116.16 166.391 113.567C166.911 110.406 167.574 107.266 168.336 104.132C169.083 101.043 169.792 97.9171 170.828 94.9441Z" fill="#4E4446"/>
</g>
<path d="M67.8796 2.99999C67.8796 1.34314 69.2228 0 70.8796 0H126.022H142.403C144.059 0 145.403 1.34315 145.403 3V19.3807V90.3146C145.403 91.9714 144.059 93.3146 142.403 93.3146H70.8796C69.2228 93.3146 67.8796 91.9714 67.8796 90.3146V2.99999Z" fill="#C0D8E6"/>
<rect opacity="0.5" x="79.3642" y="55.0317" width="54.5531" height="2.87122" fill="#375464"/>
<rect opacity="0.5" x="79.3642" y="63.6453" width="54.5531" height="2.87122" fill="#375464"/>
<rect opacity="0.5" x="79.3642" y="72.259" width="54.5531" height="2.87122" fill="#375464"/>
<path opacity="0.5" d="M109.831 32.2094H103.451C103.011 32.2094 102.653 32.569 102.653 33.0126V47.4691C102.653 47.9126 103.011 48.2722 103.451 48.2722H109.831C110.272 48.2722 110.629 47.9126 110.629 47.4691V33.0126C110.629 32.569 110.272 32.2094 109.831 32.2094Z" fill="#375464"/>
<path opacity="0.5" d="M97.0703 38.6346H90.6898C90.2494 38.6346 89.8923 38.9942 89.8923 39.4377V47.4691C89.8923 47.9126 90.2494 48.2722 90.6898 48.2722H97.0703C97.5108 48.2722 97.8679 47.9126 97.8679 47.4691V39.4377C97.8679 38.9942 97.5108 38.6346 97.0703 38.6346Z" fill="#375464"/>
<path opacity="0.5" d="M122.592 25.7843H116.212C115.772 25.7843 115.414 26.1439 115.414 26.5875V47.4691C115.414 47.9126 115.772 48.2722 116.212 48.2722H122.592C123.033 48.2722 123.39 47.9126 123.39 47.4691V26.5875C123.39 26.1439 123.033 25.7843 122.592 25.7843Z" fill="#375464"/>
<path d="M107.205 27.1553L117.01 17.2824V21.7687C117.01 22.2122 117.367 22.5718 117.807 22.5718C118.248 22.5718 118.605 22.2122 118.605 21.7687V15.3436C118.605 15.2389 118.583 15.1348 118.543 15.0366C118.462 14.8403 118.307 14.6838 118.112 14.6024C118.014 14.5618 117.911 14.5404 117.807 14.5404H111.427C110.986 14.5404 110.629 14.9 110.629 15.3436C110.629 15.7871 110.986 16.1467 111.427 16.1467H115.882L106.641 25.4518L102.42 21.2008C102.108 20.8871 101.604 20.8871 101.292 21.2008L94.9115 27.6259C94.6 27.9396 94.6 28.4479 94.9115 28.7616C95.0673 28.9185 95.2713 28.9969 95.4754 28.9969C95.6795 28.9969 95.8835 28.9185 96.0393 28.7616L101.856 22.9043L106.077 27.1553C106.389 27.4691 106.894 27.4691 107.205 27.1553Z" fill="#30A960"/>
<path d="M0.776273 28.8488C0.347447 27.2484 1.2972 25.6034 2.89759 25.1745L54.7235 11.2878C55.6291 11.0452 56.596 11.2399 57.3372 11.814L67.6856 19.831C67.9203 20.0128 68.1806 20.1588 68.4581 20.2641L78.4617 24.0619C79.3631 24.4042 80.0451 25.1588 80.2947 26.0902L98.2563 93.1238C98.6851 94.7242 97.7354 96.3692 96.135 96.798L27.0492 115.31C25.4488 115.738 23.8038 114.789 23.375 113.188L0.776273 28.8488Z" fill="#FAF9F8"/>
<path d="M60.3731 26.2605L56.8757 11.5L78.3757 24L64.1868 28.4324C62.5263 28.9511 60.7742 27.9533 60.3731 26.2605Z" fill="#CDD2D5"/>
<rect x="19.0017" y="51.7611" width="13.399" height="13.399" transform="rotate(-15 19.0017 51.7611)" fill="#30A960"/>
<rect opacity="0.2" x="37.2618" y="46.6827" width="35.4117" height="2.87122" transform="rotate(-15 37.2618 46.6827)" fill="#375464"/>
<rect opacity="0.2" x="24.2222" y="71.9749" width="54.5531" height="2.87122" transform="rotate(-15 24.2222 71.9749)" fill="#375464"/>
<rect opacity="0.2" x="39.9866" y="56.8517" width="35.4117" height="2.87122" transform="rotate(-15 39.9866 56.8517)" fill="#375464"/>
<rect opacity="0.2" x="26.9468" y="82.144" width="54.5531" height="2.87122" transform="rotate(-15 26.9468 82.144)" fill="#375464"/>
<rect opacity="0.2" x="29.6714" y="92.3131" width="54.5531" height="2.87122" transform="rotate(-15 29.6714 92.3131)" fill="#375464"/>
<defs>
<clipPath id="clip0_547_54">
<rect width="46.1154" height="46.1154" fill="white" transform="translate(152.163 40.2102) rotate(20)"/>
</clipPath>
</defs>
</svg>
