<svg width="343" height="180" viewBox="0 0 343 180" fill="none" xmlns="http://www.w3.org/2000/svg">
<defs>
<linearGradient id="paint0_linear_312_284600" x1="74" y1="81" x2="74" y2="105" gradientUnits="userSpaceOnUse">
<stop stop-color="#57A3FF"/>
<stop offset="1" stop-color="#3C82FB"/>
</linearGradient>
<clipPath id="clip0_312_284600">
<rect width="343" height="180" rx="12" fill="white"/>
</clipPath>
<clipPath id="clip1_312_284600">
<rect width="24" height="24" fill="white" transform="translate(62 81)"/>
</clipPath>
<clipPath id="clip2_312_284600">
<rect width="20" height="20" fill="white" transform="translate(217 136)"/>
</clipPath>
</defs>
<g clip-path="url(#clip0_312_284600)">
<rect width="343" height="180" rx="12" fill="#FFFA94"/>
<rect x="36" y="24" width="240" height="224" rx="12" fill="white"/>
<rect x="52" y="39" width="116" height="16" rx="4" fill="#ECEEF1"/>
<rect x="180" y="35" width="24" height="24" rx="12" fill="#F7EDFF"/>
<path fill-rule="evenodd" clip-rule="evenodd" d="M187.836 45.9171C187.814 45.7115 186.981 45.4734 186.7 46.1444C186.418 46.8153 186.927 47.7675 187.879 47.8433C188.832 47.919 188.55 47.7459 188.55 47.7459L187.836 45.9171Z" fill="#E4AE7C"/>
<path fill-rule="evenodd" clip-rule="evenodd" d="M196.32 45.9171C196.342 45.7115 197.175 45.4734 197.456 46.1444C197.737 46.8153 197.229 47.7675 196.277 47.8433C195.324 47.919 195.606 47.7459 195.606 47.7459L196.32 45.9171Z" fill="#E4AE7C"/>
<path fill-rule="evenodd" clip-rule="evenodd" d="M192.067 59H184.384C184.298 55.0719 187.317 52.7886 189.914 51.9446C190.119 50.8516 190.065 49.4232 190.065 49.4232H192.056H194.047C194.047 49.4232 193.993 50.8408 194.199 51.9446C196.796 52.7994 199.815 55.0719 199.729 59H192.067Z" fill="#E4AE7C"/>
<path fill-rule="evenodd" clip-rule="evenodd" d="M194.069 49.4232C194.069 49.4232 194.058 49.7046 194.069 50.1158C193.312 52.0203 190.953 52.2367 190.087 50.1915C190.098 49.737 190.087 49.4232 190.087 49.4232C191.407 49.4232 192.738 49.4232 194.069 49.4232Z" fill="#D67F54"/>
<path fill-rule="evenodd" clip-rule="evenodd" d="M200.01 59C200.096 55.126 197.056 52.8535 194.394 51.977C193.863 53.1565 190.292 53.1565 189.762 51.9662C187.1 52.8319 184.038 55.1152 184.124 59H200.01Z" fill="#C53D3F"/>
<path fill-rule="evenodd" clip-rule="evenodd" d="M192.067 50.4405C187.111 50.5595 184.611 38.3424 192.067 38.6562C199.523 38.3424 197.023 50.5595 192.067 50.4405Z" fill="#E4AE7C"/>
<path fill-rule="evenodd" clip-rule="evenodd" d="M187.522 45.2787L187.782 44.9865C187.857 44.9 189.297 48.287 189.643 47.5944C190.498 45.8522 193.647 46.1228 194.296 47.5079C194.934 48.5359 196.395 45.1056 196.395 44.0884C196.395 44.0884 196.568 44.0992 196.774 44.1641C196.601 46.8261 195.173 49.618 193.171 50.343C190.032 51.0572 188.106 48.3519 187.522 45.2787Z" fill="#A87E58"/>
<path fill-rule="evenodd" clip-rule="evenodd" d="M187.598 45.6899C187.251 44.2182 187.078 42.4543 187.511 41.1774C188.041 39.6084 190.054 38.6669 192.067 38.6561C194.004 38.6453 195.941 39.4893 196.547 40.9394C197.088 42.2271 196.915 44.1316 196.547 45.6899C196.006 44.8675 195.768 43.3958 195.822 42.5085C195.898 41.1558 194.015 40.4416 192.078 40.3875C190.141 40.4524 188.258 41.1558 188.334 42.5085C188.366 43.3958 188.139 44.8567 187.598 45.6899Z" fill="#52311D"/>
<path fill-rule="evenodd" clip-rule="evenodd" d="M194.091 39.1756C194.956 40.0845 195.162 40.5174 195.638 40.8853C195.865 41.0584 194.783 41.5346 194.155 41.329C194.22 41.5021 194.61 41.9025 194.599 41.9133C194.166 42.1189 192.727 42.0432 191.786 41.5021C191.796 41.6644 191.84 41.9566 191.991 42.0648C192.035 42.0973 191.515 42.054 191.364 42.0215C190.509 41.8592 188.853 41.026 188.712 39.695C189.156 37.8229 192.294 37.2927 194.091 39.1756Z" fill="#52311D"/>
<path fill-rule="evenodd" clip-rule="evenodd" d="M191.634 54.0115C191.634 53.979 191.656 53.9574 191.688 53.9574C191.721 53.9574 191.742 53.979 191.742 54.0115V55.9593C191.742 55.9918 191.721 56.0134 191.688 56.0134C191.656 56.0134 191.634 55.9918 191.634 55.9593V54.0115Z" fill="#632421"/>
<path fill-rule="evenodd" clip-rule="evenodd" d="M192.089 54.5957C192.197 54.5957 192.284 54.5091 192.284 54.4117C192.284 54.3144 192.197 54.2278 192.089 54.2278C191.981 54.2278 191.894 54.3144 191.894 54.4117C191.894 54.5091 191.981 54.5957 192.089 54.5957Z" fill="#632421"/>
<path fill-rule="evenodd" clip-rule="evenodd" d="M192.089 55.6779C192.197 55.6779 192.284 55.5913 192.284 55.4939C192.284 55.3965 192.197 55.3099 192.089 55.3099C191.981 55.3099 191.894 55.3965 191.894 55.4939C191.894 55.5913 191.981 55.6779 192.089 55.6779Z" fill="#632421"/>
<path fill-rule="evenodd" clip-rule="evenodd" d="M186.429 56.6951C186.429 56.6518 186.462 56.6194 186.505 56.6194C186.548 56.6194 186.581 56.6518 186.581 56.6951L186.559 58.9135C186.559 58.9568 186.527 58.9892 186.483 58.9892C186.44 58.9892 186.408 58.9568 186.408 58.9135L186.429 56.6951Z" fill="#632421"/>
<path fill-rule="evenodd" clip-rule="evenodd" d="M197.488 56.6951C197.488 56.6518 197.521 56.6194 197.564 56.6194C197.607 56.6194 197.64 56.6518 197.64 56.6951L197.618 58.9135C197.618 58.9568 197.586 58.9892 197.543 58.9892C197.499 58.9892 197.467 58.9568 197.467 58.9135L197.488 56.6951Z" fill="#632421"/>
<path fill-rule="evenodd" clip-rule="evenodd" d="M192.067 52.9293C192.121 53.3838 191.115 54.5741 190.866 54.5417C190.26 54.4443 189.503 52.8103 189.448 52.0312C189.416 51.62 190.065 50.6569 190.065 50.6677L190.022 51.4468C189.99 51.9013 190.834 52.648 192.067 52.9293Z" fill="#9C393F"/>
<path fill-rule="evenodd" clip-rule="evenodd" d="M192.067 52.9292C192.013 53.3837 193.019 54.5741 193.268 54.5416C193.874 54.4442 194.632 52.8102 194.686 52.0311C194.718 51.6199 194.08 50.6351 194.08 50.646L194.123 51.4251C194.145 51.8796 193.301 52.6479 192.067 52.9292Z" fill="#9C393F"/>
<path fill-rule="evenodd" clip-rule="evenodd" d="M189.427 40.5175C189.481 40.669 189.535 40.7988 189.611 40.9395C189.773 41.2533 189.946 41.5022 190.195 41.7511C190.217 41.7727 190.52 42.0865 190.52 42.1082C190.455 42.2272 190.109 42.0216 190.044 41.9892C189.676 41.8052 189.416 41.5238 189.189 41.1776C189.08 41.0044 189.005 40.8638 188.94 40.669C188.853 40.366 188.713 40.0197 189.059 40.0305C189.373 40.0305 189.308 40.1496 189.427 40.5175Z" fill="#52311D"/>
<path fill-rule="evenodd" clip-rule="evenodd" d="M190.779 47.194C191.234 47.1832 191.688 47.1832 192.143 47.1832C192.597 47.1832 193.052 47.1832 193.506 47.194C193.506 47.9082 192.803 48.168 192.143 48.168C191.493 48.1571 190.779 47.9082 190.779 47.194Z" fill="white"/>
<path fill-rule="evenodd" clip-rule="evenodd" d="M191.84 48.5901C191.818 48.5792 191.807 48.5468 191.818 48.5143C191.829 48.4927 191.861 48.4819 191.894 48.4927C191.97 48.536 192.067 48.5576 192.154 48.5576C192.251 48.5576 192.338 48.536 192.413 48.4927C192.435 48.4819 192.467 48.4819 192.489 48.5143C192.5 48.536 192.5 48.5684 192.467 48.5901C192.381 48.6442 192.262 48.6658 192.154 48.6658C192.045 48.6658 191.926 48.6442 191.84 48.5901Z" fill="#906949"/>
<path fill-rule="evenodd" clip-rule="evenodd" d="M197.153 46.6639C197.153 46.6963 197.132 46.718 197.099 46.718C197.067 46.718 197.045 46.6963 197.045 46.6639C197.045 46.5015 197.013 46.3933 196.969 46.3392C196.937 46.3068 196.904 46.2851 196.872 46.2851C196.829 46.2851 196.775 46.2959 196.72 46.3284C196.58 46.4042 196.428 46.5773 196.352 46.7613C196.309 46.8478 196.277 46.9452 196.266 47.0101C196.352 46.956 196.439 46.9344 196.515 46.9344C196.558 46.9344 196.601 46.956 196.634 46.9777C196.666 46.9993 196.688 47.0318 196.71 47.0751C196.731 47.1508 196.71 47.2482 196.634 47.3672C196.612 47.3889 196.58 47.3997 196.558 47.3781C196.536 47.3564 196.526 47.324 196.547 47.3023C196.601 47.2157 196.623 47.1508 196.612 47.0967C196.601 47.0751 196.591 47.0642 196.58 47.0534C196.558 47.0426 196.536 47.0318 196.515 47.0318C196.45 47.021 196.363 47.0534 196.288 47.1292C196.266 47.1508 196.255 47.1616 196.233 47.1616C196.19 47.1725 196.169 47.1508 196.158 47.1075C196.158 47.0967 196.158 47.0751 196.158 47.0426C196.169 46.9669 196.212 46.8262 196.277 46.7071C196.363 46.5015 196.526 46.3176 196.688 46.2202C196.753 46.1769 196.829 46.1553 196.894 46.1661C196.958 46.1661 197.023 46.1985 197.078 46.2527C197.11 46.35 197.153 46.4799 197.153 46.6639Z" fill="#D67F54"/>
<path fill-rule="evenodd" clip-rule="evenodd" d="M187.089 46.6638C187.089 46.6962 187.068 46.7179 187.035 46.7179C187.003 46.7179 186.981 46.6962 186.981 46.6638C186.981 46.469 187.013 46.3499 187.078 46.2742C187.132 46.2093 187.187 46.1876 187.262 46.1876C187.327 46.1876 187.392 46.2093 187.468 46.2417C187.63 46.3283 187.793 46.5231 187.879 46.7287C187.933 46.8585 187.977 46.9884 187.998 47.0641C187.998 47.0858 187.998 47.1074 187.998 47.1291C187.987 47.1724 187.966 47.194 187.922 47.1832C187.901 47.1832 187.89 47.1724 187.868 47.1507C187.793 47.075 187.706 47.0425 187.641 47.0533C187.619 47.0533 187.598 47.0641 187.576 47.075C187.565 47.0858 187.554 47.0966 187.544 47.1182C187.533 47.1615 187.544 47.2265 187.609 47.3238C187.63 47.3455 187.619 47.378 187.598 47.3996C187.576 47.4212 187.544 47.4104 187.522 47.3888C187.446 47.2697 187.425 47.1724 187.446 47.0966C187.457 47.0533 187.49 47.0209 187.522 46.9992C187.554 46.9776 187.598 46.9667 187.641 46.9559C187.717 46.9451 187.814 46.9667 187.89 47.0317C187.868 46.9667 187.836 46.8694 187.803 46.7828C187.728 46.5988 187.576 46.4257 187.435 46.3499C187.381 46.3175 187.338 46.3067 187.284 46.3067C187.241 46.3067 187.208 46.3283 187.187 46.3608C187.122 46.404 187.089 46.5014 187.089 46.6638Z" fill="#D67F54"/>
<path fill-rule="evenodd" clip-rule="evenodd" d="M189.751 39.0565C189.762 39.024 189.784 39.0132 189.816 39.0132C189.849 39.024 189.86 39.0456 189.86 39.0781C189.751 39.6083 189.892 40.0845 190.163 40.4849C190.52 41.0151 191.093 41.4263 191.645 41.6968C191.667 41.7077 191.678 41.7401 191.667 41.7726C191.656 41.7942 191.623 41.8051 191.591 41.7942C191.028 41.5129 190.433 41.0909 190.065 40.539C189.784 40.1169 189.632 39.6192 189.751 39.0565Z" fill="#6C452C"/>
<path fill-rule="evenodd" clip-rule="evenodd" d="M190.206 38.667C190.206 38.6345 190.228 38.6129 190.249 38.6021C190.282 38.6021 190.303 38.6237 190.314 38.6453C190.368 39.0674 190.704 39.576 191.18 40.0304C191.678 40.5174 192.327 40.9611 192.933 41.1991C194.123 41.6644 194.21 41.6644 194.21 41.6644C194.242 41.6644 194.264 41.6861 194.264 41.7186C194.264 41.751 194.242 41.7727 194.21 41.7727C194.21 41.7727 194.102 41.7727 192.901 41.2965C192.284 41.0476 191.624 40.604 191.104 40.1062C190.606 39.6409 190.26 39.1106 190.206 38.667Z" fill="#6C452C"/>
<path fill-rule="evenodd" clip-rule="evenodd" d="M191.277 38.4289C191.266 38.3965 191.288 38.3748 191.321 38.364C191.353 38.3532 191.375 38.3748 191.385 38.4073C191.472 38.7644 191.775 39.154 192.175 39.4894C192.587 39.8249 193.117 40.1062 193.625 40.2469C194.664 40.5174 194.762 40.5283 194.762 40.5283C194.794 40.5283 194.816 40.5607 194.805 40.5932C194.805 40.6257 194.772 40.6473 194.74 40.6365C194.74 40.6365 194.643 40.6256 193.604 40.3551C193.074 40.2144 192.532 39.9331 192.11 39.576C191.688 39.2189 191.375 38.8077 191.277 38.4289Z" fill="#6C452C"/>
<path fill-rule="evenodd" clip-rule="evenodd" d="M190.953 47.6918C190.92 47.6918 190.898 47.6702 190.898 47.6377C190.898 47.6053 190.92 47.5836 190.953 47.5836H193.355C193.387 47.5836 193.409 47.6053 193.409 47.6377C193.409 47.6702 193.387 47.6918 193.355 47.6918H190.953Z" fill="#AFB0B0"/>
<rect x="208" y="35" width="24" height="24" rx="12" fill="#DDF3FF"/>
<path fill-rule="evenodd" clip-rule="evenodd" d="M216.75 43.1919C216.967 43.78 217.132 48.2377 216.255 48.5782C213.252 49.7442 213.634 53.593 216.162 55.048C220.939 57.7927 221.693 42.2838 221.651 41.5203C221.62 40.9321 222.239 41.2107 222.198 40.767C222.033 38.7033 220.258 37.8468 218.968 38.0223C217.183 38.2596 215.728 40.4059 216.75 43.1919Z" fill="#23142B"/>
<path fill-rule="evenodd" clip-rule="evenodd" d="M219.547 41.8093C220.29 41.8093 220.898 41.2934 220.898 40.6639C220.898 40.0345 220.29 39.5186 219.547 39.5186C218.804 39.5186 218.195 40.0345 218.195 40.6639C218.205 41.2934 218.804 41.8093 219.547 41.8093Z" fill="#E3A64A"/>
<path fill-rule="evenodd" clip-rule="evenodd" d="M221.074 51.8286L221.022 50.1776H218.03L217.916 51.8286C217.864 52.5612 216.296 52.8089 215.687 53.1803C213.871 54.2844 212.282 56.1727 212.344 58.9381H226.697C226.759 56.3275 225.345 54.4908 223.643 53.3661C222.828 52.8089 221.094 52.4064 221.074 51.8286Z" fill="#E4AE7C"/>
<path fill-rule="evenodd" clip-rule="evenodd" d="M217.937 51.5397C218.855 52.3858 220.124 52.4064 221.063 51.5913L221.022 50.1776H218.029L217.937 51.5397Z" fill="#D67F54"/>
<path fill-rule="evenodd" clip-rule="evenodd" d="M219.454 51.4468C215.099 51.5912 212.901 40.086 219.454 40.3955C219.474 40.3955 219.505 40.3955 219.526 40.3955C219.546 40.3955 219.577 40.3955 219.598 40.3955C226.15 40.0963 223.952 51.5912 219.598 51.4571C219.577 51.4571 219.546 51.4571 219.526 51.4571C219.505 51.4468 219.484 51.4571 219.454 51.4468Z" fill="#E4AE7C"/>
<path fill-rule="evenodd" clip-rule="evenodd" d="M215.574 46.6383C215.553 46.4423 214.769 46.2152 214.511 46.8447C214.253 47.4741 214.717 48.3615 215.605 48.4337C216.492 48.506 216.234 48.3512 216.234 48.3512L215.574 46.6383Z" fill="#E4AE7C"/>
<path fill-rule="evenodd" clip-rule="evenodd" d="M223.488 46.6383C223.509 46.4423 224.293 46.2152 224.551 46.8447C224.809 47.4741 224.345 48.3615 223.457 48.4337C222.57 48.506 222.828 48.3512 222.828 48.3512L223.488 46.6383Z" fill="#E4AE7C"/>
<path fill-rule="evenodd" clip-rule="evenodd" d="M218.339 49.0942C219.134 49.0838 219.928 49.0838 220.723 49.0942C220.135 50.2395 218.928 50.2395 218.339 49.0942Z" fill="#88342A"/>
<path fill-rule="evenodd" clip-rule="evenodd" d="M220.145 49.7648C219.753 50.0228 219.299 50.0228 218.907 49.7648C219.309 49.5172 219.763 49.5172 220.145 49.7648Z" fill="#D17B65"/>
<path fill-rule="evenodd" clip-rule="evenodd" d="M214.872 47.309C214.872 47.34 214.852 47.3606 214.821 47.3606C214.79 47.3606 214.769 47.34 214.769 47.309C214.769 47.1233 214.8 47.0098 214.862 46.9375C214.914 46.8756 214.965 46.855 215.037 46.855C215.099 46.855 215.161 46.8756 215.233 46.9066C215.388 46.9891 215.543 47.1749 215.625 47.3709C215.677 47.4947 215.718 47.6186 215.739 47.6908C215.739 47.7114 215.739 47.7321 215.739 47.7527C215.729 47.794 215.708 47.8146 215.667 47.8043C215.646 47.8043 215.636 47.794 215.615 47.7733C215.543 47.7011 215.46 47.6702 215.398 47.6805C215.378 47.6805 215.357 47.6908 215.337 47.7011C215.326 47.7114 215.316 47.7217 215.306 47.7424C215.295 47.7837 215.306 47.8456 215.368 47.9384C215.388 47.9591 215.378 47.99 215.357 48.0107C215.337 48.0313 215.306 48.021 215.285 48.0003C215.213 47.8868 215.192 47.794 215.213 47.7217C215.223 47.6805 215.254 47.6495 215.285 47.6289C215.316 47.6082 215.357 47.5979 215.398 47.5876C215.471 47.5773 215.553 47.5979 215.636 47.6598C215.615 47.5979 215.584 47.5051 215.553 47.4225C215.481 47.2471 215.337 47.082 215.202 47.0098C215.151 46.9788 215.11 46.9685 215.058 46.9685C215.017 46.9685 214.986 46.9891 214.965 47.0201C214.903 47.051 214.872 47.1542 214.872 47.309Z" fill="#D67F54"/>
<path fill-rule="evenodd" clip-rule="evenodd" d="M224.273 47.309C224.273 47.3399 224.252 47.3605 224.221 47.3605C224.19 47.3605 224.169 47.3399 224.169 47.309C224.169 47.1542 224.138 47.051 224.097 46.9994C224.066 46.9684 224.035 46.9478 224.004 46.9478C223.963 46.9478 223.911 46.9581 223.86 46.9891C223.726 47.0613 223.581 47.2264 223.509 47.4018C223.468 47.4844 223.437 47.5772 223.426 47.6391C223.509 47.5876 223.592 47.5669 223.664 47.5669C223.705 47.5669 223.746 47.5876 223.777 47.6082C223.808 47.6288 223.829 47.6598 223.849 47.7011C223.87 47.7733 223.849 47.8662 223.777 47.9797C223.757 48.0003 223.726 48.0106 223.705 47.99C223.684 47.9693 223.674 47.9384 223.695 47.9177C223.746 47.8352 223.767 47.7733 223.757 47.7217C223.746 47.7011 223.736 47.6907 223.726 47.6804C223.705 47.6701 223.684 47.6598 223.664 47.6598C223.602 47.6495 223.519 47.6804 223.447 47.7527C223.426 47.7733 223.416 47.7836 223.395 47.7836C223.354 47.7939 223.334 47.7733 223.323 47.732C223.323 47.7217 223.323 47.7011 223.323 47.6701C223.334 47.5979 223.375 47.4637 223.437 47.3502C223.519 47.1542 223.674 46.9788 223.829 46.8859C223.891 46.8446 223.963 46.824 224.025 46.8343C224.087 46.8343 224.149 46.8652 224.2 46.9168C224.231 47.0097 224.273 47.1232 224.273 47.309Z" fill="#D67F54"/>
<path fill-rule="evenodd" clip-rule="evenodd" d="M219.237 50.4148C219.216 50.4045 219.206 50.3736 219.216 50.3426C219.227 50.322 219.258 50.3116 219.289 50.322C219.361 50.3632 219.454 50.3839 219.536 50.3839C219.629 50.3839 219.712 50.3632 219.784 50.322C219.805 50.3116 219.836 50.3116 219.856 50.3426C219.867 50.3632 219.867 50.3942 219.836 50.4148C219.753 50.4664 219.64 50.4871 219.536 50.4871C219.423 50.4871 219.32 50.4664 219.237 50.4148Z" fill="#D67F54"/>
<path fill-rule="evenodd" clip-rule="evenodd" d="M219.165 49.4346C219.609 49.4346 220.052 49.4346 220.496 49.4346C220.578 49.3314 220.651 49.2179 220.723 49.0941C220.31 49.0837 219.887 49.0837 219.474 49.0837C219.093 49.0837 218.711 49.0837 218.339 49.0941C218.401 49.2282 218.484 49.3417 218.566 49.4346C218.762 49.4346 218.969 49.4346 219.165 49.4346Z" fill="#EBEBEB"/>
<path fill-rule="evenodd" clip-rule="evenodd" d="M215.161 52.6128C215.171 52.6437 215.161 52.6644 215.13 52.6747C215.099 52.685 215.078 52.6747 215.068 52.6437C214.913 52.2413 214.841 51.715 214.903 51.2197C214.955 50.7864 215.099 50.3839 215.367 50.095C215.935 49.4862 215.986 49.4553 215.986 49.4553C216.007 49.4449 216.038 49.4449 216.059 49.4759C216.069 49.4965 216.069 49.5275 216.038 49.5481C216.038 49.5481 215.997 49.5688 215.44 50.1673C215.192 50.4355 215.047 50.8276 215.006 51.2301C214.944 51.715 215.016 52.2207 215.161 52.6128Z" fill="#4E3B52"/>
<path fill-rule="evenodd" clip-rule="evenodd" d="M215.45 45.5445C215.955 45.9263 218.05 46.2771 219.98 45.8437C221.909 45.4104 222.415 44.4301 222.415 44.4301C222.415 44.4301 223.127 45.3897 223.178 46.143C223.22 46.8859 223.828 43.5633 222.745 42.9339C221.662 42.3148 216.461 42.3148 215.45 45.5445Z" fill="#D67F54"/>
<path fill-rule="evenodd" clip-rule="evenodd" d="M215.46 44.3063C215.687 41.964 216.854 40.0654 219.536 40.2717C222.498 40.1995 223.684 42.614 223.715 45.2762C223.581 45.2143 223.457 45.1627 223.323 45.1112C223.375 44.7397 223.065 43.2951 222.807 43.5427C219.206 46.9788 215.223 45.2969 215.357 45.1627C215.409 45.0905 215.45 44.3888 215.46 44.3063Z" fill="#35253D"/>
<path fill-rule="evenodd" clip-rule="evenodd" d="M215.687 47.2884C215.966 47.7734 215.966 47.7734 215.966 47.7734C215.966 40.7361 221.218 40.086 222.756 44.5746C223.168 45.7922 223.055 46.5042 223.055 47.7734C223.055 47.7734 223.055 47.7734 223.334 47.2884C223.87 46.3494 224.138 45.6168 224.107 44.4508C224.087 43.7078 223.953 42.9752 223.695 42.4593C222.229 39.4978 217.349 39.3637 215.574 42.0568C214.542 43.6253 214.8 45.7303 215.687 47.2884Z" fill="#35253D"/>
<path fill-rule="evenodd" clip-rule="evenodd" d="M222.343 44.1205C222.054 44.5745 221.28 45.4309 220.32 45.5238C220.733 45.1936 221.166 44.7706 221.424 44.4404C221.713 44.0586 221.817 43.78 222.167 43.4188C222.312 43.264 222.425 43.326 222.425 43.326C222.776 43.4601 222.528 43.78 222.343 44.1205Z" fill="#35253D"/>
<path fill-rule="evenodd" clip-rule="evenodd" d="M216.09 44.781C216.059 44.781 216.048 44.7501 216.048 44.7191C216.048 44.6882 216.079 44.6778 216.11 44.6778C216.76 44.8017 217.627 44.8017 218.535 44.5747C219.257 44.3889 220.011 44.069 220.702 43.5325C222.24 42.3355 222.167 41.4997 222.167 41.4997C222.167 41.4688 222.188 41.4481 222.219 41.4481C222.25 41.4481 222.27 41.4688 222.27 41.4997C222.27 41.4997 222.353 42.3974 220.764 43.6253C220.062 44.1722 219.299 44.5024 218.566 44.6882C217.637 44.9049 216.75 44.9049 216.09 44.781Z" fill="#4E3B52"/>
<path fill-rule="evenodd" clip-rule="evenodd" d="M215.904 44.4817C215.873 44.4817 215.852 44.4508 215.863 44.4302C215.863 44.3992 215.894 44.3786 215.914 44.3889C216.409 44.4405 217.132 44.2754 217.844 43.9555C218.494 43.6666 219.144 43.2435 219.598 42.7379C220.547 41.6854 220.578 41.1179 220.578 41.1179C220.578 41.0869 220.609 41.0663 220.63 41.0663C220.661 41.0663 220.681 41.0972 220.681 41.1179C220.681 41.1179 220.65 41.7164 219.67 42.7998C219.206 43.3157 218.545 43.7388 217.875 44.038C217.163 44.3579 216.42 44.5333 215.904 44.4817Z" fill="#4E3B52"/>
<path fill-rule="evenodd" clip-rule="evenodd" d="M215.904 43.9659C215.873 43.9762 215.853 43.9659 215.842 43.9349C215.832 43.9039 215.842 43.8833 215.873 43.873C216.399 43.6666 217.215 43.2023 217.885 42.5419C218.36 42.0672 218.762 41.4894 218.928 40.829C218.938 40.798 218.958 40.7877 218.989 40.7877C219.02 40.798 219.031 40.8187 219.031 40.8496C218.855 41.5203 218.453 42.1188 217.958 42.6038C217.277 43.2848 216.451 43.7595 215.904 43.9659Z" fill="#4E3B52"/>
<path fill-rule="evenodd" clip-rule="evenodd" d="M219.567 55.2337C217.854 55.2027 216.131 54.9138 214.305 54.2328C213.397 55.0996 212.695 56.2346 212.447 57.6482L214.501 58.9381H219.577H224.654L226.615 57.6173C226.357 56.2346 225.665 55.1305 224.788 54.2637C222.972 54.9138 221.259 55.2027 219.567 55.2337Z" fill="#1F1D2E"/>
<path d="M215.564 49.9919C215.706 49.9919 215.822 49.6592 215.822 49.2489C215.822 48.8386 215.706 48.506 215.564 48.506C215.421 48.506 215.306 48.8386 215.306 49.2489C215.306 49.6592 215.421 49.9919 215.564 49.9919Z" fill="#F0CA0C"/>
<path fill-rule="evenodd" clip-rule="evenodd" d="M223.509 49.9919C223.653 49.9919 223.767 49.6513 223.767 49.2489C223.767 48.8362 223.653 48.506 223.509 48.506C223.364 48.506 223.251 48.8465 223.251 49.2489C223.24 49.6617 223.364 49.9919 223.509 49.9919Z" fill="#F0CA0C"/>
<path fill-rule="evenodd" clip-rule="evenodd" d="M215.564 48.5473C215.667 48.5473 215.749 48.4647 215.749 48.3615C215.749 48.2583 215.667 48.1758 215.564 48.1758C215.46 48.1758 215.378 48.2583 215.378 48.3615C215.378 48.4647 215.46 48.5473 215.564 48.5473Z" fill="#F0CA0C"/>
<path fill-rule="evenodd" clip-rule="evenodd" d="M223.509 48.5473C223.612 48.5473 223.695 48.4647 223.695 48.3615C223.695 48.2583 223.612 48.1758 223.509 48.1758C223.406 48.1758 223.323 48.2583 223.323 48.3615C223.323 48.4647 223.406 48.5473 223.509 48.5473Z" fill="#F0CA0C"/>
<path fill-rule="evenodd" clip-rule="evenodd" d="M219.237 50.4148C219.216 50.4045 219.206 50.3736 219.216 50.3426C219.227 50.322 219.258 50.3116 219.289 50.322C219.361 50.3632 219.454 50.3839 219.536 50.3839C219.629 50.3839 219.712 50.3632 219.784 50.322C219.805 50.3116 219.836 50.3116 219.856 50.3426C219.867 50.3632 219.867 50.3942 219.836 50.4148C219.753 50.4664 219.64 50.4871 219.536 50.4871C219.423 50.4871 219.32 50.4664 219.237 50.4148Z" fill="#D67F54"/>
<path fill-rule="evenodd" clip-rule="evenodd" d="M214.604 56.8125C214.604 56.7712 214.635 56.7402 214.676 56.7402C214.717 56.7402 214.748 56.7712 214.748 56.8125L214.727 58.9278C214.727 58.9691 214.697 59 214.655 59C214.614 59 214.583 58.9691 214.583 58.9278L214.604 56.8125Z" fill="#0E0A1F"/>
<path fill-rule="evenodd" clip-rule="evenodd" d="M224.324 56.8125C224.324 56.7712 224.355 56.7402 224.396 56.7402C224.437 56.7402 224.468 56.7712 224.468 56.8125L224.448 58.9278C224.448 58.9691 224.417 59 224.375 59C224.334 59 224.303 58.9691 224.303 58.9278L224.324 56.8125Z" fill="#0E0A1F"/>
<rect x="236" y="35" width="24" height="24" rx="12" fill="#FFE5F0"/>
<path fill-rule="evenodd" clip-rule="evenodd" d="M244.09 46.3426C244.069 46.1438 243.263 45.9137 242.991 46.5622C242.719 47.2108 243.211 48.1313 244.131 48.2046C245.052 48.2778 244.78 48.1104 244.78 48.1104L244.09 46.3426Z" fill="#E4AE7C"/>
<path fill-rule="evenodd" clip-rule="evenodd" d="M252.281 46.3426C252.302 46.1438 253.107 45.9137 253.379 46.5622C253.651 47.2108 253.159 48.1313 252.239 48.2046C251.318 48.2778 251.59 48.1104 251.59 48.1104L252.281 46.3426Z" fill="#E4AE7C"/>
<path fill-rule="evenodd" clip-rule="evenodd" d="M248.18 58.9895H240.753C240.669 55.1923 243.588 52.9851 246.098 52.1691C246.297 51.1126 246.245 49.7318 246.245 49.7318H248.169H250.094C250.094 49.7318 250.042 51.1022 250.241 52.1691C252.751 52.9955 255.67 55.1923 255.586 58.9895H248.18Z" fill="#E4AE7C"/>
<path fill-rule="evenodd" clip-rule="evenodd" d="M250.104 49.7318C250.104 49.7318 250.094 50.0038 250.104 50.4013C249.372 52.2424 247.092 52.4516 246.255 50.4745C246.265 50.0352 246.255 49.7318 246.255 49.7318C247.531 49.7318 248.818 49.7318 250.104 49.7318Z" fill="#CA976D"/>
<path fill-rule="evenodd" clip-rule="evenodd" d="M255.858 58.9895C255.942 55.2446 253.002 53.0478 250.429 52.2005C249.916 53.3407 246.464 53.3407 245.952 52.1901C243.378 53.0269 240.418 55.2341 240.502 58.9895H255.858Z" fill="#312F58"/>
<path fill-rule="evenodd" clip-rule="evenodd" d="M250.105 52.5772C249.226 53.2258 247.102 53.2153 246.245 52.5563V52.891L246.694 59H249.644L250.094 52.891V52.5772H250.105Z" fill="#536B8F"/>
<path fill-rule="evenodd" clip-rule="evenodd" d="M248.18 50.7152C243.389 50.8302 240.972 39.0201 248.18 39.3235C255.387 39.0201 252.971 50.8302 248.18 50.7152Z" fill="#E4AE7C"/>
<path fill-rule="evenodd" clip-rule="evenodd" d="M246.935 47.577C247.374 47.5665 247.814 47.5665 248.253 47.5665C248.692 47.5665 249.132 47.5665 249.571 47.577C249.571 48.2674 248.891 48.5185 248.253 48.5185C247.615 48.508 246.935 48.2674 246.935 47.577Z" fill="white"/>
<path fill-rule="evenodd" clip-rule="evenodd" d="M247.95 48.9263C247.929 48.9159 247.918 48.8845 247.929 48.8531C247.939 48.8322 247.971 48.8217 248.002 48.8322C248.075 48.874 248.17 48.8949 248.253 48.8949C248.347 48.8949 248.431 48.874 248.504 48.8322C248.525 48.8217 248.557 48.8217 248.577 48.8531C248.588 48.874 248.588 48.9054 248.557 48.9263C248.473 48.9786 248.358 48.9996 248.253 48.9996C248.149 48.9996 248.044 48.9786 247.95 48.9263Z" fill="#D67F54"/>
<path fill-rule="evenodd" clip-rule="evenodd" d="M253.096 47.0644C253.096 47.0958 253.075 47.1167 253.044 47.1167C253.012 47.1167 252.992 47.0958 252.992 47.0644C252.992 46.9075 252.96 46.8029 252.918 46.7506C252.887 46.7192 252.856 46.6983 252.824 46.6983C252.782 46.6983 252.73 46.7088 252.678 46.7401C252.542 46.8134 252.395 46.9807 252.322 47.1586C252.28 47.2423 252.249 47.3364 252.238 47.3992C252.322 47.3469 252.406 47.3259 252.479 47.3259C252.521 47.3259 252.563 47.3469 252.594 47.3678C252.625 47.3887 252.646 47.4201 252.667 47.4619C252.688 47.5352 252.667 47.6293 252.594 47.7444C252.573 47.7653 252.542 47.7757 252.521 47.7548C252.5 47.7339 252.489 47.7025 252.51 47.6816C252.563 47.5979 252.584 47.5352 252.573 47.4829C252.563 47.4619 252.552 47.4515 252.542 47.441C252.521 47.4305 252.5 47.4201 252.479 47.4201C252.416 47.4096 252.333 47.441 252.259 47.5142C252.238 47.5352 252.228 47.5456 252.207 47.5456C252.165 47.5561 252.144 47.5352 252.134 47.4933C252.134 47.4828 252.134 47.4619 252.134 47.4305C252.144 47.3573 252.186 47.2213 252.249 47.1063C252.333 46.9075 252.489 46.7297 252.646 46.6355C252.709 46.5937 252.782 46.5728 252.845 46.5832C252.908 46.5832 252.971 46.6146 253.023 46.6669C253.054 46.7611 253.096 46.8866 253.096 47.0644Z" fill="#D67F54"/>
<path fill-rule="evenodd" clip-rule="evenodd" d="M243.368 47.0644C243.368 47.0958 243.347 47.1167 243.315 47.1167C243.284 47.1167 243.263 47.0958 243.263 47.0644C243.263 46.8761 243.295 46.761 243.357 46.6878C243.41 46.625 243.462 46.6041 243.535 46.6041C243.598 46.6041 243.661 46.625 243.734 46.6564C243.891 46.7401 244.048 46.9284 244.131 47.1272C244.184 47.2527 244.226 47.3782 244.246 47.4514C244.246 47.4724 244.246 47.4933 244.246 47.5142C244.236 47.556 244.215 47.577 244.173 47.5665C244.152 47.5665 244.142 47.556 244.121 47.5351C244.048 47.4619 243.964 47.4305 243.901 47.441C243.88 47.441 243.859 47.4514 243.839 47.4619C243.828 47.4724 243.818 47.4828 243.807 47.5037C243.797 47.5456 243.807 47.6084 243.87 47.7025C243.891 47.7234 243.88 47.7548 243.859 47.7757C243.839 47.7966 243.807 47.7862 243.786 47.7653C243.713 47.6502 243.692 47.556 243.713 47.4828C243.723 47.441 243.755 47.4096 243.786 47.3887C243.818 47.3678 243.859 47.3573 243.901 47.3468C243.975 47.3364 244.069 47.3573 244.142 47.4201C244.121 47.3573 244.09 47.2631 244.058 47.1795C243.985 47.0016 243.839 46.8343 243.703 46.761C243.65 46.7297 243.608 46.7192 243.556 46.7192C243.514 46.7192 243.483 46.7401 243.462 46.7715C243.399 46.8133 243.368 46.9075 243.368 47.0644Z" fill="#D67F54"/>
<path fill-rule="evenodd" clip-rule="evenodd" d="M244.132 47.0749C243.797 46.4263 243.483 45.171 243.441 44.0204C243.4 42.9952 243.588 42.0747 243.87 41.4889C244.676 39.8256 246.496 38.8528 248.107 38.8946C248.128 38.8946 248.159 38.8946 248.18 38.8946C248.201 38.8946 248.232 38.8946 248.253 38.8946C249.864 38.8528 251.684 39.8152 252.49 41.4889C252.762 42.0642 252.961 42.9952 252.919 44.0204C252.877 45.1815 252.563 46.4368 252.228 47.0749C252.343 45.5999 252.009 44.9618 251.674 44.6271C250.931 43.7798 251.067 43.1835 251.109 42.9534C251.14 42.7546 252.04 42.0328 251.956 41.7713C251.684 40.9135 249.038 41.8864 248.337 41.8864C248.316 41.8864 248.285 41.8864 248.264 41.8864C248.243 41.8864 248.211 41.8864 248.191 41.8864C248.17 41.8864 248.138 41.8864 248.117 41.8864C248.096 41.8864 248.065 41.8864 248.044 41.8864C247.333 41.8864 244.686 40.9135 244.425 41.7713C244.341 42.0328 245.241 42.7441 245.272 42.9534C245.303 43.1835 245.45 43.7902 244.707 44.6271C244.351 44.9618 244.027 45.5999 244.132 47.0749Z" fill="#3F2716"/>
<path fill-rule="evenodd" clip-rule="evenodd" d="M246.213 51.5102C245.816 51.2068 244.006 56.1652 244.403 55.82C244.717 55.5376 245.659 54.2195 246.495 55.9351C246.339 54.3346 246.318 52.2634 246.213 51.5102Z" fill="#424B72"/>
<path fill-rule="evenodd" clip-rule="evenodd" d="M250.147 51.5102C250.544 51.2068 252.354 56.1652 251.956 55.82C251.643 55.5376 250.701 54.2195 249.864 55.9351C250.021 54.3346 250.042 52.2634 250.147 51.5102Z" fill="#424B72"/>
<path fill-rule="evenodd" clip-rule="evenodd" d="M244.32 41.834C244.833 42.514 245.743 42.765 247.218 42.9533C248.609 43.1312 250.272 42.9429 251.371 42.3989C253.065 41.5516 252.908 39.1979 252.73 39.2816C250.649 40.2754 249.937 38.654 248.442 38.1937C247.312 37.8485 245.795 37.8381 244.582 39.2398C243.912 40.0139 243.734 41.0495 244.32 41.834Z" fill="#52311D"/>
<path fill-rule="evenodd" clip-rule="evenodd" d="M242.761 56.7615C242.761 56.7196 242.793 56.6882 242.834 56.6882C242.876 56.6882 242.908 56.7196 242.908 56.7615L242.887 58.9059C242.887 58.9477 242.855 58.9791 242.813 58.9791C242.772 58.9791 242.74 58.9477 242.74 58.9059L242.761 56.7615Z" fill="#1E1F42"/>
<path fill-rule="evenodd" clip-rule="evenodd" d="M253.452 56.7615C253.452 56.7196 253.483 56.6882 253.525 56.6882C253.567 56.6882 253.599 56.7196 253.599 56.7615L253.578 58.9059C253.578 58.9477 253.546 58.9791 253.504 58.9791C253.463 58.9791 253.431 58.9477 253.431 58.9059L253.452 56.7615Z" fill="#1E1F42"/>
<rect x="52" y="71" width="208" height="44" rx="8" fill="#EBF2FF"/>
<g clip-path="url(#clip1_312_284600)">
<path d="M69.9203 81H78.0797C82.4546 81 86 84.5453 86 88.9203V97.0797C86 101.453 82.4546 105 78.0797 105H69.9203C65.5453 105 62 101.455 62 97.0797V88.9203C62 84.5453 65.5453 81 69.9203 81Z" fill="url(#paint0_linear_312_284600)"/>
<path d="M78.1876 95.1985L79.4219 96.2266C79.7235 96.4782 79.875 96.6048 79.9969 96.6344C80.2468 96.6954 80.5047 96.575 80.6172 96.3438C80.6719 96.2313 80.6719 96.0344 80.6719 95.6407V90.3594C80.6719 89.9657 80.6719 89.7688 80.6172 89.6563C80.5047 89.4251 80.2468 89.3048 79.9969 89.3657C79.875 89.3954 79.7235 89.5219 79.4219 89.7735L78.1876 90.8017C77.986 90.9688 77.886 91.0532 77.8047 91.1485C77.6422 91.3406 77.5344 91.572 77.4906 91.8188C77.4687 91.9422 77.4688 92.0735 77.4688 92.3344V93.6657C77.4688 93.9266 77.4687 94.0579 77.4906 94.1813C77.5344 94.4282 77.6422 94.6595 77.8047 94.8517C77.886 94.9485 77.9875 95.0313 78.1876 95.1985Z" fill="white"/>
<path d="M67.3281 90.6765C67.3281 90.1828 67.3281 89.9359 67.425 89.7469C67.5094 89.5812 67.6438 89.4469 67.8109 89.3609C68 89.264 68.2469 89.264 68.7406 89.264H73.2407C74.5344 89.264 75.1813 89.264 75.675 89.5156C76.1094 89.7375 76.4625 90.0906 76.6844 90.5249C76.9359 91.0187 76.9359 91.6656 76.9359 92.9578V95.3219C76.9359 95.8156 76.9359 96.0625 76.8391 96.2515C76.7547 96.4172 76.6203 96.5515 76.4532 96.6375C76.264 96.7344 76.0172 96.7344 75.5234 96.7344H71.0234C69.7297 96.7344 69.0828 96.7344 68.5891 96.4827C68.1547 96.2609 67.8016 95.9078 67.5797 95.4735C67.3281 94.9797 67.3281 94.3328 67.3281 93.0406V90.6765Z" fill="white"/>
</g>
<rect x="96" y="89" width="99" height="8" rx="2" fill="#091F34" fill-opacity="0.12"/>
<rect x="205" y="81" width="45" height="24" rx="8" fill="#28526E"/>
<path d="M217.568 95.0811C217.568 96.3555 218.477 97.1758 219.824 97.1758C221.24 97.1758 222.095 96.3457 222.095 94.8955V89.9541H220.835V94.8857C220.835 95.6426 220.469 96.043 219.81 96.043C219.209 96.043 218.809 95.6621 218.799 95.0811H217.568ZM225.933 97.1074C227.529 97.1074 228.501 96.0625 228.501 94.3291C228.501 92.6006 227.524 91.5508 225.933 91.5508C224.346 91.5508 223.364 92.6055 223.364 94.3291C223.364 96.0625 224.331 97.1074 225.933 97.1074ZM225.933 96.0918C225.088 96.0918 224.604 95.4473 224.604 94.3291C224.604 93.2158 225.088 92.5664 225.933 92.5664C226.772 92.5664 227.256 93.2158 227.256 94.3291C227.256 95.4473 226.777 96.0918 225.933 96.0918ZM229.736 97H230.942V91.6582H229.736V97ZM230.337 90.7891C230.781 90.7891 231.084 90.5059 231.084 90.1201C231.084 89.7344 230.781 89.4512 230.337 89.4512C229.897 89.4512 229.59 89.7344 229.59 90.1201C229.59 90.5059 229.897 90.7891 230.337 90.7891ZM232.446 97H233.657V93.8896C233.657 93.1035 234.111 92.6055 234.834 92.6055C235.571 92.6055 235.913 93.0156 235.913 93.8311V97H237.124V93.543C237.124 92.2686 236.475 91.5508 235.283 91.5508C234.487 91.5508 233.95 91.917 233.696 92.5127H233.613V91.6582H232.446V97Z" fill="white"/>
<path d="M54.918 142V138.164H54.9844L57.75 142H58.6211V136.363H57.6523V140.195H57.5859L54.8203 136.363H53.9453V142H54.918ZM62.4492 136.223C60.8125 136.223 59.7773 137.359 59.7773 139.18C59.7773 141 60.793 142.141 62.4492 142.141C64.0938 142.141 65.1094 140.996 65.1094 139.18C65.1094 137.359 64.0859 136.223 62.4492 136.223ZM62.4492 137.117C63.4492 137.117 64.0781 137.918 64.0781 139.18C64.0781 140.438 63.4531 141.246 62.4492 141.246C61.4297 141.246 60.8086 140.438 60.8086 139.18C60.8086 137.918 61.4453 137.117 62.4492 137.117ZM68.4648 142V137.234H70.2031V136.363H65.7227V137.234H67.457V142H68.4648ZM74.9062 141.129H72.2656V139.551H74.7617V138.73H72.2656V137.234H74.9062V136.363H71.2578V142H74.9062V141.129ZM75.8984 140.469C75.9492 141.492 76.8047 142.141 78.0977 142.141C79.4648 142.141 80.3125 141.457 80.3125 140.359C80.3125 139.5 79.832 139.023 78.6875 138.766L78.0391 138.617C77.3398 138.457 77.0547 138.234 77.0547 137.855C77.0547 137.375 77.4844 137.062 78.1328 137.062C78.75 137.062 79.1875 137.375 79.2578 137.871H80.2227C80.1758 136.902 79.3203 136.223 78.1367 136.223C76.875 136.223 76.0391 136.902 76.0391 137.926C76.0391 138.766 76.5195 139.273 77.543 139.504L78.2734 139.672C78.9961 139.84 79.3047 140.078 79.3047 140.484C79.3047 140.957 78.8242 141.297 78.1602 141.297C77.4453 141.297 76.9453 140.973 76.8828 140.469H75.8984Z" fill="black"/>
<rect x="52" y="152" width="202" height="6" rx="3" fill="#ECEEF1"/>
<rect x="52" y="164" width="88.5714" height="6" rx="3" fill="#ECEEF1"/>
<rect x="181.5" y="128.5" width="119" height="35" rx="7.5" fill="white"/>
<path d="M203.583 141H206.833C206.874 141 206.915 140.988 206.949 140.965C206.983 140.942 207.01 140.91 207.026 140.872C207.042 140.833 207.046 140.791 207.038 140.751C207.03 140.711 207.01 140.673 206.981 140.644L202.689 136.356C202.66 136.327 202.623 136.307 202.583 136.299C202.543 136.291 202.501 136.295 202.463 136.31C202.425 136.325 202.393 136.352 202.369 136.385C202.346 136.419 202.334 136.459 202.333 136.5V139.75C202.333 140.082 202.465 140.4 202.699 140.634C202.934 140.868 203.251 141 203.583 141Z" fill="#DA3C0F"/>
<path d="M207.272 141.894C207.311 141.933 207.333 141.986 207.333 142.042V154.333C207.333 154.775 207.158 155.199 206.845 155.512C206.532 155.824 206.109 156 205.667 156H192.333C191.891 156 191.467 155.824 191.155 155.512C190.842 155.199 190.667 154.775 190.667 154.333V137.667C190.667 137.225 190.842 136.801 191.155 136.488C191.467 136.176 191.891 136 192.333 136H201.292C201.347 136 201.4 136.022 201.439 136.061C201.478 136.1 201.5 136.153 201.5 136.208V139.75C201.5 140.303 201.719 140.832 202.11 141.223C202.501 141.614 203.031 141.833 203.583 141.833H207.125C207.18 141.833 207.233 141.855 207.272 141.894Z" fill="#DA3C0F"/>
<path d="M193.345 151H194.42V149.761H195.146C196.09 149.761 196.699 149.181 196.699 148.275V148.27C196.699 147.364 196.09 146.772 195.146 146.772H193.345V151ZM194.889 147.596C195.343 147.596 195.612 147.83 195.612 148.27V148.275C195.612 148.715 195.343 148.952 194.889 148.952H194.42V147.596H194.889Z" fill="white"/>
<path d="M197.177 151H198.894C200.168 151 200.921 150.212 200.921 148.861V148.855C200.921 147.511 200.168 146.772 198.894 146.772H197.177V151ZM198.252 150.133V147.64H198.753C199.43 147.64 199.828 148.067 199.828 148.858V148.864C199.828 149.708 199.453 150.133 198.753 150.133H198.252Z" fill="white"/>
<path d="M201.442 151H202.518V149.424H204.155V148.601H202.518V147.637H204.319V146.772H201.442V151Z" fill="white"/>
<g clip-path="url(#clip2_312_284600)">
<path d="M231.583 141H234.833C234.874 141 234.915 140.988 234.949 140.965C234.983 140.942 235.01 140.91 235.026 140.871C235.042 140.833 235.046 140.791 235.038 140.751C235.03 140.71 235.01 140.673 234.981 140.644L230.689 136.356C230.66 136.327 230.623 136.307 230.583 136.299C230.543 136.291 230.501 136.294 230.463 136.31C230.425 136.325 230.393 136.351 230.369 136.385C230.346 136.419 230.334 136.459 230.333 136.5V139.75C230.333 140.081 230.465 140.399 230.699 140.634C230.934 140.868 231.251 141 231.583 141Z" fill="#FF4D82"/>
<path d="M235.272 141.894C235.311 141.933 235.333 141.986 235.333 142.042V154.333C235.333 154.775 235.158 155.199 234.845 155.512C234.532 155.824 234.109 156 233.667 156H220.333C219.891 156 219.467 155.824 219.155 155.512C218.842 155.199 218.667 154.775 218.667 154.333V137.667C218.667 137.225 218.842 136.801 219.155 136.488C219.467 136.176 219.891 136 220.333 136H229.292C229.347 136 229.4 136.022 229.439 136.061C229.478 136.1 229.5 136.153 229.5 136.208V139.75C229.5 140.303 229.719 140.832 230.11 141.223C230.501 141.614 231.031 141.833 231.583 141.833H235.125C235.18 141.833 235.233 141.855 235.272 141.894Z" fill="#FF4D82"/>
<path fill-rule="evenodd" clip-rule="evenodd" d="M229.942 146.437C230.686 146.95 230.686 148.05 229.942 148.563L226.015 151.271C225.162 151.859 224 151.246 224 150.208V144.792C224 143.754 225.162 143.141 226.015 143.729L229.942 146.437Z" fill="white"/>
</g>
<path d="M259.583 141H262.833C262.874 141 262.915 140.988 262.949 140.965C262.983 140.942 263.01 140.91 263.026 140.872C263.042 140.833 263.046 140.791 263.038 140.751C263.03 140.711 263.01 140.673 262.981 140.644L258.689 136.356C258.66 136.327 258.623 136.307 258.583 136.299C258.543 136.291 258.501 136.295 258.463 136.31C258.425 136.325 258.393 136.352 258.369 136.385C258.346 136.419 258.334 136.459 258.333 136.5V139.75C258.333 140.082 258.465 140.4 258.699 140.634C258.934 140.868 259.251 141 259.583 141Z" fill="#F3B612"/>
<path d="M263.272 141.894C263.311 141.933 263.333 141.986 263.333 142.042V154.333C263.333 154.775 263.158 155.199 262.845 155.512C262.532 155.824 262.109 156 261.667 156H248.333C247.891 156 247.467 155.824 247.155 155.512C246.842 155.199 246.667 154.775 246.667 154.333V137.667C246.667 137.225 246.842 136.801 247.155 136.488C247.467 136.176 247.891 136 248.333 136H257.292C257.347 136 257.4 136.022 257.439 136.061C257.478 136.1 257.5 136.153 257.5 136.208V139.75C257.5 140.303 257.719 140.832 258.11 141.223C258.501 141.614 259.031 141.833 259.583 141.833H263.125C263.18 141.833 263.233 141.855 263.272 141.894Z" fill="#F3B612"/>
<path d="M252.621 151.5H254.055V149.848H255.023C256.281 149.848 257.094 149.074 257.094 147.867V147.859C257.094 146.652 256.281 145.863 255.023 145.863H252.621V151.5ZM254.68 146.961C255.285 146.961 255.645 147.273 255.645 147.859V147.867C255.645 148.453 255.285 148.77 254.68 148.77H254.055V146.961H254.68Z" fill="white"/>
<path d="M287.583 141H290.833C290.874 141 290.915 140.988 290.949 140.965C290.983 140.942 291.01 140.91 291.026 140.872C291.042 140.833 291.046 140.791 291.038 140.751C291.03 140.711 291.01 140.673 290.981 140.644L286.689 136.356C286.66 136.327 286.623 136.307 286.583 136.299C286.543 136.291 286.501 136.295 286.463 136.31C286.425 136.325 286.393 136.352 286.369 136.385C286.346 136.419 286.334 136.459 286.333 136.5V139.75C286.333 140.082 286.465 140.4 286.699 140.634C286.934 140.868 287.251 141 287.583 141Z" fill="#58AA2C"/>
<path d="M291.272 141.894C291.311 141.933 291.333 141.986 291.333 142.042V154.333C291.333 154.775 291.158 155.199 290.845 155.512C290.532 155.824 290.109 156 289.667 156H276.333C275.891 156 275.467 155.824 275.155 155.512C274.842 155.199 274.667 154.775 274.667 154.333V137.667C274.667 137.225 274.842 136.801 275.155 136.488C275.467 136.176 275.891 136 276.333 136H285.292C285.347 136 285.4 136.022 285.439 136.061C285.478 136.1 285.5 136.153 285.5 136.208V139.75C285.5 140.303 285.719 140.832 286.11 141.223C286.501 141.614 287.031 141.833 287.583 141.833H291.125C291.18 141.833 291.233 141.855 291.272 141.894Z" fill="#58AA2C"/>
<path d="M279.816 151.5H281.34L282.43 149.672H282.465L283.562 151.5H285.172L283.395 148.68V148.66L285.188 145.863H283.598L282.57 147.773H282.527L281.492 145.863H279.82L281.539 148.645V148.668L279.816 151.5Z" fill="white"/>
<rect x="181.5" y="128.5" width="119" height="35" rx="7.5" stroke="#DADDE1"/>
</g>
</svg>
