<svg width="97" height="97" viewBox="0 0 97 97" fill="none" xmlns="http://www.w3.org/2000/svg">
<rect x="0.5" y="0.5" width="96" height="96" rx="48" fill="#FFDAD6"/>
<rect x="16.5" y="16.5" width="64" height="64" rx="32" fill="#E94040"/>
<path fill-rule="evenodd" clip-rule="evenodd" d="M39.5858 39.5858C40.3668 38.8047 41.6332 38.8047 42.4142 39.5858L48.5 45.6716L54.5858 39.5858C55.3668 38.8047 56.6332 38.8047 57.4142 39.5858C58.1953 40.3668 58.1953 41.6332 57.4142 42.4142L51.3284 48.5L57.4142 54.5858C58.1953 55.3668 58.1953 56.6332 57.4142 57.4142C56.6332 58.1953 55.3668 58.1953 54.5858 57.4142L48.5 51.3284L42.4142 57.4142C41.6332 58.1953 40.3668 58.1953 39.5858 57.4142C38.8047 56.6332 38.8047 55.3668 39.5858 54.5858L45.6716 48.5L39.5858 42.4142C38.8047 41.6332 38.8047 40.3668 39.5858 39.5858Z" fill="white"/>
</svg>
