<svg width="343" height="180" viewBox="0 0 343 180" fill="none" xmlns="http://www.w3.org/2000/svg">
<rect width="343" height="180" rx="12" fill="#F7EDFF"/>
<path d="M32 30C32 25.5817 35.5817 22 40 22H304C308.418 22 312 25.5817 312 30V180H32V30Z" fill="white"/>
<rect x="58" y="38" width="164" height="20" rx="4" fill="#ECEEF1"/>
<rect x="258" y="38" width="36" height="20" rx="4" fill="#28526E"/>
<path d="M271.63 52H272.982L270.478 44.9541H269.062L266.562 52H267.836L268.441 50.1982H271.034L271.63 52ZM269.701 46.2969H269.784L270.741 49.2021H268.734L269.701 46.2969ZM275.707 52.0879C276.449 52.0879 277.064 51.7412 277.367 51.1553H277.45V52H278.622V44.5928H277.411V47.5078H277.328C277.045 46.9219 276.439 46.5703 275.707 46.5703C274.359 46.5703 273.51 47.6348 273.51 49.3242C273.51 51.0234 274.354 52.0879 275.707 52.0879ZM276.083 47.6006C276.913 47.6006 277.426 48.2646 277.426 49.3291C277.426 50.4033 276.918 51.0576 276.083 51.0576C275.253 51.0576 274.75 50.4082 274.75 49.3291C274.75 48.2549 275.258 47.6006 276.083 47.6006ZM282.084 52.0879C282.826 52.0879 283.441 51.7412 283.744 51.1553H283.827V52H284.999V44.5928H283.788V47.5078H283.705C283.422 46.9219 282.816 46.5703 282.084 46.5703C280.736 46.5703 279.887 47.6348 279.887 49.3242C279.887 51.0234 280.731 52.0879 282.084 52.0879ZM282.46 47.6006C283.29 47.6006 283.803 48.2646 283.803 49.3291C283.803 50.4033 283.295 51.0576 282.46 51.0576C281.63 51.0576 281.127 50.4082 281.127 49.3291C281.127 48.2549 281.635 47.6006 282.46 47.6006Z" fill="white"/>
<rect x="66" y="78" width="4" height="12" fill="#FA8C16"/>
<rect x="82" y="82" width="64" height="4" rx="2" fill="#ECEEF1"/>
<rect x="66" y="98" width="220" height="1" fill="#ECEEF1"/>
<rect x="66" y="107" width="141" height="8" rx="4" fill="#ECEEF1"/>
<rect x="58.5" y="70.5" width="235" height="52" rx="3.5" stroke="#ECEEF1"/>
<rect x="58" y="135" width="236" height="28" rx="4" fill="#3AB67B"/>
<path d="M127.888 153.176C129.514 153.176 130.705 152.204 130.871 150.764H129.631C129.46 151.555 128.781 152.053 127.888 152.053C126.687 152.053 125.939 151.066 125.939 149.475C125.939 147.888 126.687 146.901 127.883 146.901C128.771 146.901 129.45 147.448 129.626 148.293H130.866C130.72 146.823 129.484 145.778 127.883 145.778C125.886 145.778 124.65 147.189 124.65 149.479C124.65 151.76 125.891 153.176 127.888 153.176ZM132.146 153H133.356V149.914C133.356 149.167 133.903 148.679 134.689 148.679C134.895 148.679 135.217 148.713 135.31 148.747V147.624C135.197 147.59 134.982 147.57 134.807 147.57C134.118 147.57 133.542 147.961 133.396 148.488H133.312V147.658H132.146V153ZM138.41 148.513C139.138 148.513 139.616 149.021 139.641 149.812H137.126C137.18 149.03 137.688 148.513 138.41 148.513ZM139.65 151.53C139.475 151.926 139.06 152.146 138.459 152.146C137.663 152.146 137.15 151.589 137.121 150.7V150.637H140.852V150.246C140.852 148.562 139.938 147.551 138.415 147.551C136.867 147.551 135.905 148.63 135.905 150.349C135.905 152.067 136.853 153.107 138.425 153.107C139.685 153.107 140.568 152.502 140.798 151.53H139.65ZM143.894 152.136C143.356 152.136 142.971 151.867 142.971 151.418C142.971 150.983 143.288 150.739 143.967 150.695L145.173 150.617V151.042C145.173 151.662 144.626 152.136 143.894 152.136ZM143.537 153.088C144.235 153.088 144.821 152.785 145.119 152.268H145.202V153H146.369V149.353C146.369 148.22 145.598 147.551 144.226 147.551C142.956 147.551 142.072 148.151 141.975 149.094H143.117C143.229 148.732 143.61 148.537 144.167 148.537C144.821 148.537 145.173 148.83 145.173 149.353V149.802L143.796 149.885C142.497 149.963 141.77 150.52 141.77 151.486C141.77 152.463 142.507 153.088 143.537 153.088ZM148.215 146.35V147.692H147.37V148.659H148.215V151.574C148.215 152.609 148.703 153.024 149.929 153.024C150.163 153.024 150.388 153 150.563 152.966V152.019C150.417 152.033 150.324 152.043 150.153 152.043C149.646 152.043 149.421 151.809 149.421 151.281V148.659H150.563V147.692H149.421V146.35H148.215ZM153.967 148.513C154.694 148.513 155.173 149.021 155.197 149.812H152.683C152.736 149.03 153.244 148.513 153.967 148.513ZM155.207 151.53C155.031 151.926 154.616 152.146 154.016 152.146C153.22 152.146 152.707 151.589 152.678 150.7V150.637H156.408V150.246C156.408 148.562 155.495 147.551 153.972 147.551C152.424 147.551 151.462 148.63 151.462 150.349C151.462 152.067 152.409 153.107 153.981 153.107C155.241 153.107 156.125 152.502 156.354 151.53H155.207ZM162.116 152.136C161.579 152.136 161.193 151.867 161.193 151.418C161.193 150.983 161.511 150.739 162.189 150.695L163.396 150.617V151.042C163.396 151.662 162.849 152.136 162.116 152.136ZM161.76 153.088C162.458 153.088 163.044 152.785 163.342 152.268H163.425V153H164.592V149.353C164.592 148.22 163.82 147.551 162.448 147.551C161.179 147.551 160.295 148.151 160.197 149.094H161.34C161.452 148.732 161.833 148.537 162.39 148.537C163.044 148.537 163.396 148.83 163.396 149.353V149.802L162.019 149.885C160.72 149.963 159.992 150.52 159.992 151.486C159.992 152.463 160.729 153.088 161.76 153.088ZM168.718 153H169.929V149.89C169.929 149.104 170.383 148.605 171.105 148.605C171.843 148.605 172.185 149.016 172.185 149.831V153H173.396V149.543C173.396 148.269 172.746 147.551 171.555 147.551C170.759 147.551 170.222 147.917 169.968 148.513H169.885V147.658H168.718V153ZM177.072 148.513C177.8 148.513 178.278 149.021 178.303 149.812H175.788C175.842 149.03 176.35 148.513 177.072 148.513ZM178.312 151.53C178.137 151.926 177.722 152.146 177.121 152.146C176.325 152.146 175.812 151.589 175.783 150.7V150.637H179.514V150.246C179.514 148.562 178.601 147.551 177.077 147.551C175.529 147.551 174.567 148.63 174.567 150.349C174.567 152.067 175.515 153.107 177.087 153.107C178.347 153.107 179.23 152.502 179.46 151.53H178.312ZM187.814 147.658H186.608L185.725 151.647H185.642L184.606 147.658H183.449L182.424 151.647H182.341L181.452 147.658H180.231L181.677 153H182.937L183.972 149.152H184.055L185.095 153H186.369L187.814 147.658ZM191.418 149.187C191.418 149.992 191.901 150.466 192.927 150.7L193.874 150.92C194.382 151.032 194.611 151.223 194.611 151.525C194.611 151.921 194.187 152.189 193.576 152.189C192.971 152.189 192.595 151.955 192.478 151.56H191.281C191.374 152.531 192.214 153.107 193.547 153.107C194.88 153.107 195.822 152.424 195.822 151.398C195.822 150.612 195.349 150.173 194.328 149.943L193.386 149.729C192.849 149.606 192.595 149.421 192.595 149.118C192.595 148.732 193.01 148.469 193.562 148.469C194.128 148.469 194.484 148.708 194.572 149.084H195.71C195.622 148.112 194.826 147.551 193.557 147.551C192.297 147.551 191.418 148.22 191.418 149.187ZM199.289 148.513C200.017 148.513 200.495 149.021 200.52 149.812H198.005C198.059 149.03 198.566 148.513 199.289 148.513ZM200.529 151.53C200.354 151.926 199.938 152.146 199.338 152.146C198.542 152.146 198.029 151.589 198 150.7V150.637H201.73V150.246C201.73 148.562 200.817 147.551 199.294 147.551C197.746 147.551 196.784 148.63 196.784 150.349C196.784 152.067 197.731 153.107 199.304 153.107C200.563 153.107 201.447 152.502 201.677 151.53H200.529ZM207.561 149.455C207.434 148.332 206.604 147.551 205.231 147.551C203.625 147.551 202.683 148.581 202.683 150.314C202.683 152.072 203.63 153.107 205.236 153.107C206.589 153.107 207.429 152.355 207.561 151.237H206.408C206.281 151.794 205.861 152.092 205.231 152.092C204.406 152.092 203.908 151.438 203.908 150.314C203.908 149.206 204.401 148.566 205.231 148.566C205.896 148.566 206.296 148.938 206.408 149.455H207.561ZM209.172 146.35V147.692H208.327V148.659H209.172V151.574C209.172 152.609 209.66 153.024 210.886 153.024C211.12 153.024 211.345 153 211.521 152.966V152.019C211.374 152.033 211.281 152.043 211.11 152.043C210.603 152.043 210.378 151.809 210.378 151.281V148.659H211.521V147.692H210.378V146.35H209.172ZM212.746 153H213.952V147.658H212.746V153ZM213.347 146.789C213.791 146.789 214.094 146.506 214.094 146.12C214.094 145.734 213.791 145.451 213.347 145.451C212.907 145.451 212.6 145.734 212.6 146.12C212.6 146.506 212.907 146.789 213.347 146.789ZM217.761 153.107C219.357 153.107 220.329 152.062 220.329 150.329C220.329 148.601 219.353 147.551 217.761 147.551C216.174 147.551 215.192 148.605 215.192 150.329C215.192 152.062 216.159 153.107 217.761 153.107ZM217.761 152.092C216.916 152.092 216.433 151.447 216.433 150.329C216.433 149.216 216.916 148.566 217.761 148.566C218.601 148.566 219.084 149.216 219.084 150.329C219.084 151.447 218.605 152.092 217.761 152.092ZM221.55 153H222.761V149.89C222.761 149.104 223.215 148.605 223.938 148.605C224.675 148.605 225.017 149.016 225.017 149.831V153H226.228V149.543C226.228 148.269 225.578 147.551 224.387 147.551C223.591 147.551 223.054 147.917 222.8 148.513H222.717V147.658H221.55V153Z" fill="white"/>
</svg>
