<svg width="343" height="181" viewBox="0 0 343 181" fill="none" xmlns="http://www.w3.org/2000/svg">
<defs>
<clipPath id="clip0_19611_316372">
<rect y="0.5" width="343" height="180" rx="12" fill="white"/>
</clipPath>
</defs>
<g clip-path="url(#clip0_19611_316372)">
<rect y="0.5" width="343" height="180" rx="12" fill="#FFE5F0"/>
<rect x="52" y="24.5" width="240" height="246" rx="8" fill="white"/>
<rect x="216" y="119.5" width="16" height="10" fill="white"/>
<path d="M72.1963 40.6289V50.5H76.0791C79.0322 50.5 80.707 48.7021 80.707 45.4961C80.707 42.4062 79.0117 40.6289 76.0791 40.6289H72.1963ZM74.2607 42.3926H75.751C77.542 42.3926 78.6016 43.5342 78.6016 45.5303C78.6016 47.6152 77.5762 48.7363 75.751 48.7363H74.2607V42.3926ZM85.1094 49.1191C84.4189 49.1191 83.9336 48.7773 83.9336 48.2168C83.9336 47.6768 84.3506 47.3691 85.2051 47.3076L86.7295 47.2119V47.7656C86.7295 48.5312 86.0322 49.1191 85.1094 49.1191ZM84.4531 50.6162C85.4307 50.6162 86.251 50.2061 86.6406 49.5156H86.7637V50.5H88.6914V45.3525C88.6914 43.7393 87.5635 42.7959 85.5674 42.7959C83.6738 42.7959 82.3955 43.6709 82.2656 45.0654H84.0977C84.2617 44.6143 84.7402 44.3682 85.458 44.3682C86.2783 44.3682 86.7295 44.7236 86.7295 45.3525V45.9678L84.9043 46.0771C83.0312 46.1865 81.9854 46.9795 81.9854 48.3467C81.9854 49.7275 83.0039 50.6162 84.4531 50.6162ZM90.6465 50.5H92.6357V46.1523C92.6357 45.1611 93.2031 44.5117 94.126 44.5117C95.0693 44.5117 95.5137 45.0586 95.5137 46.0977V50.5H97.5029V45.626C97.5029 43.8213 96.6006 42.7959 94.9258 42.7959C93.8115 42.7959 93.0459 43.3223 92.6973 44.1699H92.5742V42.96H90.6465V50.5ZM99.5059 50.5H101.495V46.1729C101.495 45.1953 102.069 44.5322 103.067 44.5322C103.97 44.5322 104.455 45.0723 104.455 46.1182V50.5H106.444V45.6465C106.444 43.835 105.48 42.8164 103.86 42.8164C102.753 42.8164 101.933 43.3359 101.584 44.1973H101.461V40.082H99.5059V50.5ZM111.817 45.1748C111.817 46.3369 112.528 47.0342 113.991 47.3555L115.358 47.6631C116.021 47.8066 116.309 48.0322 116.309 48.4014C116.309 48.8867 115.775 49.208 115.003 49.208C114.21 49.208 113.725 48.9141 113.574 48.4014H111.633C111.77 49.8506 112.973 50.6641 114.962 50.6641C116.938 50.6641 118.284 49.6797 118.284 48.1758C118.284 47.0479 117.628 46.4326 116.165 46.1113L114.75 45.8037C114.053 45.6465 113.731 45.4209 113.731 45.0518C113.731 44.5732 114.258 44.252 114.969 44.252C115.707 44.252 116.165 44.5527 116.268 45.0381H118.106C117.997 43.5957 116.869 42.7959 114.955 42.7959C113.075 42.7959 111.817 43.7461 111.817 45.1748ZM122.639 49.1191C121.948 49.1191 121.463 48.7773 121.463 48.2168C121.463 47.6768 121.88 47.3691 122.734 47.3076L124.259 47.2119V47.7656C124.259 48.5312 123.562 49.1191 122.639 49.1191ZM121.982 50.6162C122.96 50.6162 123.78 50.2061 124.17 49.5156H124.293V50.5H126.221V45.3525C126.221 43.7393 125.093 42.7959 123.097 42.7959C121.203 42.7959 119.925 43.6709 119.795 45.0654H121.627C121.791 44.6143 122.27 44.3682 122.987 44.3682C123.808 44.3682 124.259 44.7236 124.259 45.3525V45.9678L122.434 46.0771C120.561 46.1865 119.515 46.9795 119.515 48.3467C119.515 49.7275 120.533 50.6162 121.982 50.6162ZM123.876 41.7432L125.838 39.3301H123.726L122.037 41.7432H123.876ZM134.848 45.6191C134.684 43.9033 133.487 42.7959 131.491 42.7959C129.133 42.7959 127.807 44.2109 127.807 46.7129C127.807 49.2422 129.14 50.6641 131.491 50.6641C133.453 50.6641 134.684 49.5771 134.848 47.8887H132.988C132.838 48.6338 132.305 49.0303 131.491 49.0303C130.425 49.0303 129.816 48.2168 129.816 46.7129C129.816 45.2295 130.418 44.4297 131.491 44.4297C132.339 44.4297 132.852 44.9014 132.988 45.6191H134.848ZM136.475 50.5H138.464V46.1729C138.464 45.1953 139.038 44.5322 140.036 44.5322C140.938 44.5322 141.424 45.0723 141.424 46.1182V50.5H143.413V45.6465C143.413 43.835 142.449 42.8164 140.829 42.8164C139.722 42.8164 138.901 43.3359 138.553 44.1973H138.43V40.082H136.475V50.5Z" fill="black"/>
<rect x="71" y="69.5" width="200" height="24" rx="4" fill="#6FBE49" fill-opacity="0.16"/>
<path fill-rule="evenodd" clip-rule="evenodd" d="M77.5 77C76.3954 77 75.5 77.8954 75.5 79V80H86.5C86.5 78.8954 85.6046 78 84.5 78H81L80.4393 77.4393C80.158 77.158 79.7765 77 79.3787 77H77.5ZM86.5 80.5H75.5V84C75.5 85.1046 76.3954 86 77.5 86H84.5C85.6046 86 86.5 85.1046 86.5 84V80.5Z" fill="#3AB67B"/>
<path d="M99.27 85.5V78.9473H101.66V77.7495H95.4995V78.9473H97.8843V85.5H99.27ZM102.879 85.5H104.206V79.624H102.879V85.5ZM104.088 78.6519L105.613 76.7881H104.125L102.788 78.6519H104.088ZM105.86 85.5H107.192V82.0786C107.192 81.2139 107.692 80.666 108.487 80.666C109.298 80.666 109.674 81.1172 109.674 82.0142V85.5H111.006V81.6973C111.006 80.2954 110.292 79.5059 108.981 79.5059C108.105 79.5059 107.515 79.9087 107.235 80.564H107.144V79.624H105.86V85.5ZM112.639 85.5H113.971V82.0894C113.971 81.2461 114.459 80.6768 115.335 80.6768C116.108 80.6768 116.517 81.1333 116.517 82.0249V85.5H117.849V81.708C117.849 80.3115 117.086 79.5166 115.829 79.5166C114.954 79.5166 114.325 79.9141 114.046 80.5747H113.949V77.3521H112.639V85.5ZM122.36 85.5H123.692V82.0786C123.692 81.2139 124.192 80.666 124.987 80.666C125.798 80.666 126.174 81.1172 126.174 82.0142V85.5H127.506V81.6973C127.506 80.2954 126.792 79.5059 125.481 79.5059C124.605 79.5059 124.015 79.9087 123.735 80.564H123.644V79.624H122.36V85.5ZM131.094 84.5493C130.503 84.5493 130.079 84.2539 130.079 83.7598C130.079 83.2817 130.428 83.0132 131.174 82.9648L132.501 82.8789V83.3462C132.501 84.0283 131.899 84.5493 131.094 84.5493ZM130.702 85.5967C131.47 85.5967 132.114 85.2637 132.442 84.6943H132.533V85.5H133.817V81.4878C133.817 80.2417 132.968 79.5059 131.459 79.5059C130.062 79.5059 129.09 80.1665 128.983 81.2031H130.24C130.363 80.8057 130.782 80.5908 131.395 80.5908C132.114 80.5908 132.501 80.9131 132.501 81.4878V81.9819L130.986 82.0732C129.558 82.1592 128.757 82.7715 128.757 83.835C128.757 84.9092 129.568 85.5967 130.702 85.5967ZM129.375 76.9868C129.375 78.0557 130.159 78.8237 131.454 78.8237C132.748 78.8237 133.532 78.0557 133.532 76.9868H132.522C132.512 77.5723 132.125 77.9858 131.454 77.9858C130.782 77.9858 130.396 77.5723 130.385 76.9868H129.375ZM135.423 85.5H136.755V82.0786C136.755 81.2139 137.254 80.666 138.049 80.666C138.86 80.666 139.236 81.1172 139.236 82.0142V85.5H140.568V81.6973C140.568 80.2954 139.854 79.5059 138.543 79.5059C137.668 79.5059 137.077 79.9087 136.798 80.564H136.707V79.624H135.423V85.5ZM144.672 84.3291C143.743 84.3291 143.216 83.6201 143.216 82.4976C143.216 81.375 143.743 80.6606 144.672 80.6606C145.596 80.6606 146.16 81.375 146.16 82.4976C146.16 83.6201 145.601 84.3291 144.672 84.3291ZM144.672 87.7344C146.385 87.7344 147.47 86.8804 147.47 85.5215V79.624H146.187V80.564H146.095C145.773 79.9248 145.075 79.5273 144.274 79.5273C142.776 79.5273 141.847 80.6982 141.847 82.4976C141.847 84.2646 142.771 85.4141 144.253 85.4141C145.069 85.4141 145.708 85.0703 146.047 84.4419H146.138V85.5537C146.138 86.2896 145.606 86.7192 144.693 86.7192C143.963 86.7192 143.49 86.4614 143.404 86.0586H142.067C142.174 87.0684 143.163 87.7344 144.672 87.7344ZM152.041 85.5H153.373V81.9282C153.373 81.2085 153.862 80.666 154.522 80.666C155.178 80.666 155.586 81.0581 155.586 81.7026V85.5H156.88V81.8423C156.88 81.1709 157.337 80.666 158.03 80.666C158.744 80.666 159.104 81.042 159.104 81.7993V85.5H160.431V81.4609C160.431 80.2417 159.722 79.5059 158.545 79.5059C157.729 79.5059 157.052 79.9302 156.762 80.5747H156.671C156.424 79.9141 155.86 79.5059 155.049 79.5059C154.27 79.5059 153.668 79.9033 153.416 80.5747H153.325V79.624H152.041V85.5ZM164.545 84.501C163.616 84.501 163.084 83.792 163.084 82.562C163.084 81.332 163.621 80.623 164.545 80.623C165.469 80.623 166 81.332 166 82.562C166 83.792 165.469 84.501 164.545 84.501ZM167.37 82.562C167.37 81.6758 167.053 80.9131 166.602 80.6069V80.5479C166.672 80.5479 166.758 80.5479 166.871 80.5479C167.392 80.5479 167.768 80.2095 167.768 79.5757V78.4424H166.667V79.2104C166.667 79.5488 166.532 79.6831 166.081 79.6831C165.512 79.6831 165.281 79.5059 164.545 79.5059C162.794 79.5059 161.72 80.666 161.72 82.562C161.72 84.4634 162.783 85.6182 164.545 85.6182C166.307 85.6182 167.37 84.4688 167.37 82.562ZM165.061 78.6519L166.586 76.7881H165.098L163.761 78.6519H165.061ZM169.159 85.5H170.485V79.624H169.159V85.5ZM169.819 78.668C170.308 78.668 170.641 78.3564 170.641 77.9321C170.641 77.5078 170.308 77.1963 169.819 77.1963C169.336 77.1963 168.998 77.5078 168.998 77.9321C168.998 78.3564 169.336 78.668 169.819 78.668Z" fill="#3AB67B"/>
<path d="M83.5 111.5C83.5 112.881 82.3807 114 81 114C79.6193 114 78.5 112.881 78.5 111.5C78.5 110.119 79.6193 109 81 109C82.3807 109 83.5 110.119 83.5 111.5Z" fill="#73787E"/>
<path d="M97.3418 115.5V113.029L98.1689 112.079L100.618 115.5H102.31L99.1519 111.128L102.079 107.75H100.489L97.4331 111.316H97.3418V107.75H95.9561V115.5H97.3418ZM105.436 110.564C106.236 110.564 106.763 111.123 106.79 111.993H104.023C104.083 111.133 104.641 110.564 105.436 110.564ZM106.8 113.883C106.607 114.318 106.15 114.56 105.49 114.56C104.614 114.56 104.05 113.948 104.018 112.97V112.9H108.122V112.471C108.122 110.618 107.117 109.506 105.441 109.506C103.739 109.506 102.681 110.693 102.681 112.583C102.681 114.474 103.723 115.618 105.452 115.618C106.838 115.618 107.81 114.952 108.062 113.883H106.8ZM106.107 106.971H104.775L103.298 108.775H104.55L105.393 107.69H105.49L106.333 108.775H107.584L106.107 106.971ZM106.569 106.879H107.687L108.906 105.145H107.595L106.569 106.879ZM112.445 115.5H113.777V112.089C113.777 111.246 114.266 110.677 115.142 110.677C115.915 110.677 116.323 111.133 116.323 112.025V115.5H117.655V111.708C117.655 110.312 116.893 109.517 115.636 109.517C114.76 109.517 114.132 109.914 113.853 110.575H113.756V107.352H112.445V115.5ZM121.77 115.618C123.526 115.618 124.595 114.469 124.595 112.562C124.595 110.661 123.521 109.506 121.77 109.506C120.024 109.506 118.944 110.666 118.944 112.562C118.944 114.469 120.008 115.618 121.77 115.618ZM121.77 114.501C120.84 114.501 120.309 113.792 120.309 112.562C120.309 111.337 120.84 110.623 121.77 110.623C122.693 110.623 123.225 111.337 123.225 112.562C123.225 113.792 122.699 114.501 121.77 114.501ZM127.946 114.549C127.355 114.549 126.931 114.254 126.931 113.76C126.931 113.282 127.28 113.013 128.027 112.965L129.354 112.879V113.346C129.354 114.028 128.752 114.549 127.946 114.549ZM127.554 115.597C128.322 115.597 128.967 115.264 129.294 114.694H129.386V115.5H130.669V111.488C130.669 110.242 129.821 109.506 128.312 109.506C126.915 109.506 125.943 110.167 125.835 111.203H127.092C127.216 110.806 127.635 110.591 128.247 110.591C128.967 110.591 129.354 110.913 129.354 111.488V111.982L127.839 112.073C126.41 112.159 125.61 112.771 125.61 113.835C125.61 114.909 126.421 115.597 127.554 115.597ZM128.209 117.767C128.655 117.767 128.983 117.428 128.983 116.993C128.983 116.553 128.655 116.214 128.209 116.214C127.758 116.214 127.436 116.553 127.436 116.993C127.436 117.428 127.758 117.767 128.209 117.767ZM137.351 111.601C137.211 110.365 136.298 109.506 134.789 109.506C133.022 109.506 131.985 110.639 131.985 112.546C131.985 114.479 133.027 115.618 134.794 115.618C136.282 115.618 137.206 114.791 137.351 113.561H136.083C135.944 114.173 135.482 114.501 134.789 114.501C133.881 114.501 133.333 113.781 133.333 112.546C133.333 111.327 133.876 110.623 134.789 110.623C135.52 110.623 135.96 111.031 136.083 111.601H137.351ZM138.678 115.5H140.01V112.089C140.01 111.246 140.499 110.677 141.374 110.677C142.147 110.677 142.556 111.133 142.556 112.025V115.5H143.888V111.708C143.888 110.312 143.125 109.517 141.868 109.517C140.993 109.517 140.364 109.914 140.085 110.575H139.988V107.352H138.678V115.5ZM148.399 115.5H149.731V112.079C149.731 111.214 150.231 110.666 151.026 110.666C151.837 110.666 152.213 111.117 152.213 112.014V115.5H153.545V111.697C153.545 110.295 152.831 109.506 151.52 109.506C150.645 109.506 150.054 109.909 149.774 110.564H149.683V109.624H148.399V115.5ZM157.133 114.549C156.542 114.549 156.118 114.254 156.118 113.76C156.118 113.282 156.467 113.013 157.213 112.965L158.54 112.879V113.346C158.54 114.028 157.938 114.549 157.133 114.549ZM156.741 115.597C157.509 115.597 158.153 115.264 158.481 114.694H158.572V115.5H159.856V111.488C159.856 110.242 159.007 109.506 157.498 109.506C156.102 109.506 155.129 110.167 155.022 111.203H156.279C156.402 110.806 156.821 110.591 157.434 110.591C158.153 110.591 158.54 110.913 158.54 111.488V111.982L157.025 112.073C155.597 112.159 154.796 112.771 154.796 113.835C154.796 114.909 155.607 115.597 156.741 115.597ZM155.414 106.987C155.414 108.056 156.198 108.824 157.493 108.824C158.787 108.824 159.571 108.056 159.571 106.987H158.562C158.551 107.572 158.164 107.986 157.493 107.986C156.821 107.986 156.435 107.572 156.424 106.987H155.414ZM161.462 115.5H162.794V111.928C162.794 111.208 163.283 110.666 163.943 110.666C164.599 110.666 165.007 111.058 165.007 111.703V115.5H166.301V111.842C166.301 111.171 166.758 110.666 167.451 110.666C168.165 110.666 168.525 111.042 168.525 111.799V115.5H169.852V111.461C169.852 110.242 169.143 109.506 167.966 109.506C167.15 109.506 166.473 109.93 166.183 110.575H166.092C165.845 109.914 165.281 109.506 164.47 109.506C163.691 109.506 163.089 109.903 162.837 110.575H162.746V109.624H161.462V115.5Z" fill="#73787E"/>
<path d="M83.5 139.5C83.5 140.881 82.3807 142 81 142C79.6193 142 78.5 140.881 78.5 139.5C78.5 138.119 79.6193 137 81 137C82.3807 137 83.5 138.119 83.5 139.5Z" fill="#73787E"/>
<rect x="95" y="134.5" width="156" height="10" rx="4" fill="#ECEEF1"/>
<path d="M83.5 165.5C83.5 166.881 82.3807 168 81 168C79.6193 168 78.5 166.881 78.5 165.5C78.5 164.119 79.6193 163 81 163C82.3807 163 83.5 164.119 83.5 165.5Z" fill="#73787E"/>
<rect x="95" y="160.5" width="111" height="10" rx="4" fill="#ECEEF1"/>
</g>
</svg>
