<svg width="24" height="24" viewBox="0 0 24 24" fill="none" xmlns="http://www.w3.org/2000/svg">
<path fill-rule="evenodd" clip-rule="evenodd" d="M24 12C24 12.8573 23.9101 13.6936 23.7392 14.5H22.7146C21.7693 18.5675 18.5675 21.7692 14.5 22.7145V23.7392C13.6936 23.9101 12.8573 24 12 24C11.1427 24 10.3064 23.9101 9.5 23.7392V22.7145C5.4325 21.7692 2.23075 18.5675 1.28538 14.5H0.260788C0.0899005 13.6936 0 12.8573 0 12C0 11.1427 0.0899005 10.3064 0.260788 9.5H1.2853C2.23056 5.43236 5.43238 2.23049 9.5 1.28516V0.260788C10.3064 0.0899005 11.1427 0 12 0C12.8573 0 13.6936 0.0899005 14.5 0.260788V1.28516C18.5676 2.23048 21.7695 5.43236 22.7147 9.5H23.7392C23.9101 10.3064 24 11.1427 24 12ZM21.1677 9.5C20.287 6.26265 17.7373 3.71294 14.5 2.8322V6.54386C15.8045 7.1426 16.8573 8.19544 17.456 9.5H21.1677ZM15.7423 9.5C15.8361 9.64011 15.9221 9.78577 16 9.9364C16.1719 10.2689 16.3035 10.6256 16.3885 11C16.4615 11.3216 16.5 11.6563 16.5 12C16.5 12.3437 16.4615 12.6784 16.3885 13C16.3035 13.3744 16.1719 13.7311 16 14.0636C15.96 14.141 15.9178 14.217 15.8736 14.2917C15.4877 14.9424 14.9424 15.4876 14.2917 15.8734C14.217 15.9177 14.141 15.96 14.0636 16C13.7311 16.1719 13.3744 16.3035 13 16.3885C12.6784 16.4615 12.3437 16.5 12 16.5C11.6563 16.5 11.3216 16.4615 11 16.3885C10.6256 16.3035 10.2689 16.1719 9.9364 16C9.85904 15.96 9.78299 15.9178 9.70833 15.8736C9.05757 15.4877 8.51239 14.9424 8.12653 14.2917C8.08227 14.217 8.03999 14.141 8 14.0636C7.82811 13.7311 7.69647 13.3744 7.61151 13C7.53853 12.6784 7.5 12.3437 7.5 12C7.5 11.6563 7.53853 11.3216 7.61151 11C7.69647 10.6256 7.82811 10.2689 8 9.9364C8.07787 9.78577 8.16399 9.64011 8.25777 9.5C8.58641 9.00899 9.00901 8.58626 9.5 8.2576C9.64011 8.16382 9.78577 8.07787 9.9364 8C10.2689 7.82811 10.6256 7.69647 11 7.61151C11.3216 7.53853 11.6563 7.5 12 7.5C12.3437 7.5 12.6784 7.53853 13 7.61151C13.3744 7.69647 13.7311 7.82811 14.0636 8C14.2142 8.07787 14.3599 8.16399 14.5 8.25777C14.991 8.58644 15.4137 9.00899 15.7423 9.5ZM9.5 6.54387V2.8322C6.26267 3.71294 3.71301 6.26265 2.83234 9.5H6.54397C7.14266 8.19545 8.19547 7.1426 9.5 6.54387ZM6.54413 14.5H2.83243C3.7132 17.7372 6.26279 20.2867 9.5 21.1674V17.4558C8.19559 16.8571 7.14285 15.8044 6.54413 14.5ZM14.5 17.4558V21.1674C17.7372 20.2867 20.2868 17.7372 21.1676 14.5H17.4559C16.8572 15.8044 15.8044 16.8571 14.5 17.4558ZM22.4531 13H17.9168C17.9715 12.6746 18 12.3404 18 12C18 11.6596 17.9715 11.3254 17.9168 11H22.4531C22.4841 11.3289 22.5 11.6624 22.5 12C22.5 12.3376 22.4841 12.6711 22.4531 13ZM13 1.5469V6.08318C12.6746 6.02847 12.3404 6 12 6C11.6596 6 11.3254 6.02847 11 6.08318V1.5469C11.3289 1.51588 11.6624 1.5 12 1.5C12.3376 1.5 12.6711 1.51588 13 1.5469ZM1.5469 11H6.08318C6.02847 11.3254 6 11.6596 6 12C6 12.3404 6.02847 12.6746 6.08318 13H1.5469C1.51588 12.6711 1.5 12.3376 1.5 12C1.5 11.6624 1.51588 11.3289 1.5469 11ZM11 22.4531V17.9168C11.3254 17.9715 11.6596 18 12 18C12.3404 18 12.6745 17.9715 13 17.9168V22.4531C12.6711 22.4841 12.3376 22.5 12 22.5C11.6624 22.5 11.3289 22.4841 11 22.4531Z" fill="#26282C"/>
</svg>
