<svg width="40" height="40" viewBox="0 0 40 40" fill="none" xmlns="http://www.w3.org/2000/svg">
<rect width="40" height="40" rx="20" fill="#2F54EB"/>
<g clip-path="url(#clip0_24118_61421)">
<path d="M7.40039 21.9984C7.40039 15.0397 13.0416 9.39844 20.0004 9.39844C26.9592 9.39844 32.6004 15.0396 32.6004 21.9984C32.6004 24.9808 30.1827 27.3984 27.2004 27.3984H12.8004C9.81805 27.3984 7.40039 24.9808 7.40039 21.9984Z" fill="white"/>
<rect x="10.1001" y="15.6992" width="19.8" height="7.2" rx="2" fill="#131416"/>
<circle cx="16.4001" cy="19.3" r="1.8" fill="white"/>
<circle cx="23.6003" cy="19.3" r="1.8" fill="white"/>
<path d="M7.35968 10.7001C7.38257 10.4712 7.57518 10.2969 7.80522 10.2969C8.07013 10.2969 8.27713 10.5256 8.25077 10.7892L7.4 19.2969H6.5L7.35968 10.7001Z" fill="#FADB14"/>
<path d="M4.7002 19.3344C4.7002 18.3191 5.52323 17.4961 6.53849 17.4961C7.51145 17.4961 8.3002 18.2848 8.3002 19.2578V20.1961C8.3002 21.1902 7.49431 21.9961 6.5002 21.9961C5.50608 21.9961 4.7002 21.1902 4.7002 20.1961V19.3344Z" fill="#FADB14"/>
<path d="M31.7494 10.7892C31.7231 10.5256 31.9301 10.2969 32.195 10.2969C32.425 10.2969 32.6176 10.4712 32.6405 10.7001L33.5002 19.2969H32.6002L31.7494 10.7892Z" fill="#FADB14"/>
<path d="M35.3003 19.2961C35.3003 18.302 34.4944 17.4961 33.5003 17.4961C32.5062 17.4961 31.7003 18.302 31.7003 19.2961V20.1961C31.7003 21.1902 32.5062 21.9961 33.5003 21.9961C34.4944 21.9961 35.3003 21.1902 35.3003 20.1961V19.2961Z" fill="#FADB14"/>
<path d="M9.48536 35.7434C10.6399 40.3617 14.7895 43.6016 19.5499 43.6016C24.3103 43.6016 28.4599 40.3617 29.6144 35.7434L30.0684 33.9278C30.8263 30.8959 28.168 28.1079 25.1035 28.7208L21.4885 29.4438C20.2088 29.6998 18.891 29.6998 17.6113 29.4438L13.9963 28.7208C10.9318 28.1079 8.27348 30.8959 9.03145 33.9278L9.48536 35.7434Z" fill="white"/>
</g>
<defs>
<clipPath id="clip0_24118_61421">
<rect width="36" height="36" fill="white" transform="translate(2 4)"/>
</clipPath>
</defs>
</svg>
