<svg width="34" height="40" viewBox="0 0 34 40" fill="none" xmlns="http://www.w3.org/2000/svg">
<path d="M26.5 10L32.5906 10C32.6732 10.0002 32.7539 9.97581 32.8225 9.93003C32.8912 9.88426 32.9447 9.81913 32.9763 9.7429C33.0079 9.66667 33.0161 9.58278 33 9.50186C32.9839 9.42093 32.9441 9.34662 32.8856 9.28835L24.7117 1.11408C24.6538 1.05604 24.5801 1.01636 24.4998 1.00001C24.4195 0.983649 24.3361 0.991339 24.2602 1.02211C24.1842 1.05289 24.119 1.10538 24.0727 1.17303C24.0265 1.24067 24.0012 1.32046 24 1.40241V7.50002C24 8.16306 24.2634 8.79895 24.7322 9.26779C25.2011 9.73663 25.837 10 26.5 10Z" fill="#E94040"/>
<path d="M33.878 12.122C33.9561 12.2002 34 12.3062 34 12.4167V36.6667C34 37.5507 33.6488 38.3986 33.0237 39.0237C32.3986 39.6488 31.5507 40 30.6667 40H3.33333C2.44928 40 1.60143 39.6488 0.976311 39.0237C0.351189 38.3986 0 37.5507 0 36.6667V3.33333C0 2.44928 0.351189 1.60143 0.976311 0.976311C1.60143 0.351189 2.44928 0 3.33333 0L21.5833 0C21.6938 0 21.7997 0.0438987 21.8779 0.122039C21.956 0.200179 21.9999 0.30616 21.9999 0.416667V7.83333C21.9999 8.9384 22.4389 9.99821 23.2203 10.7796C24.0017 11.561 25.0615 12 26.1666 12H33.5833C33.6938 12 33.7998 12.0439 33.878 12.122Z" fill="#E94040"/>
<path d="M5.68945 30H7.83984V27.5215H9.29297C11.1797 27.5215 12.3984 26.3613 12.3984 24.5508V24.5391C12.3984 22.7285 11.1797 21.5449 9.29297 21.5449H5.68945V30ZM8.77734 23.1914C9.68555 23.1914 10.2246 23.6602 10.2246 24.5391V24.5508C10.2246 25.4297 9.68555 25.9043 8.77734 25.9043H7.83984V23.1914H8.77734Z" fill="white"/>
<path d="M13.3535 30H16.7871C19.3359 30 20.8418 28.4238 20.8418 25.7227V25.7109C20.8418 23.0215 19.3359 21.5449 16.7871 21.5449H13.3535V30ZM15.5039 28.2656V23.2793H16.5059C17.8594 23.2793 18.6562 24.1348 18.6562 25.7168V25.7285C18.6562 27.416 17.9062 28.2656 16.5059 28.2656H15.5039Z" fill="white"/>
<path d="M21.8848 30H24.0352V26.8477H27.3105V25.2012H24.0352V23.2734H27.6387V21.5449H21.8848V30Z" fill="white"/>
</svg>
