<svg width="33" height="40" viewBox="0 0 33 40" fill="none" xmlns="http://www.w3.org/2000/svg">
<path d="M32.2756 6.91L26.1591 0.731672C25.9295 0.499117 25.6566 0.314744 25.3561 0.189172C25.0557 0.0635997 24.7336 -0.000689883 24.4084 5.58268e-06H2.475C1.81859 5.58268e-06 1.18906 0.263398 0.724911 0.732238C0.260758 1.20108 0 1.83696 0 2.50001V37.5C0 38.163 0.260758 38.7989 0.724911 39.2678C1.18906 39.7366 1.81859 40 2.475 40H30.525C31.1814 40 31.8109 39.7366 32.2751 39.2678C32.7392 38.7989 33 38.163 33 37.5V8.67834C33.0007 8.3499 32.937 8.02456 32.8127 7.72107C32.6884 7.41758 32.5059 7.14194 32.2756 6.91ZM12.375 36.6667C12.0487 36.6667 11.7296 36.5689 11.4583 36.3858C11.187 36.2026 10.9755 35.9423 10.8506 35.6378C10.7257 35.3333 10.693 34.9981 10.7567 34.6748C10.8204 34.3515 10.9775 34.0546 11.2083 33.8215C11.439 33.5884 11.733 33.4297 12.0531 33.3654C12.3732 33.301 12.7049 33.3341 13.0064 33.4602C13.3079 33.5863 13.5656 33.8 13.7469 34.0741C13.9282 34.3481 14.025 34.6704 14.025 35C14.025 35.442 13.8512 35.866 13.5417 36.1785C13.2323 36.4911 12.8126 36.6667 12.375 36.6667ZM12.375 30.8333C12.0487 30.8333 11.7296 30.7356 11.4583 30.5525C11.187 30.3693 10.9755 30.109 10.8506 29.8045C10.7257 29.4999 10.693 29.1648 10.7567 28.8415C10.8204 28.5182 10.9775 28.2212 11.2083 27.9882C11.439 27.7551 11.733 27.5963 12.0531 27.532C12.3732 27.4677 12.7049 27.5007 13.0064 27.6269C13.3079 27.753 13.5656 27.9666 13.7469 28.2407C13.9282 28.5148 14.025 28.837 14.025 29.1667C14.025 29.6087 13.8512 30.0326 13.5417 30.3452C13.2323 30.6577 12.8126 30.8333 12.375 30.8333ZM12.3832 25C12.0569 25 11.7379 24.9023 11.4666 24.7191C11.1952 24.536 10.9837 24.2757 10.8588 23.9711C10.734 23.6666 10.7013 23.3315 10.765 23.0082C10.8286 22.6849 10.9858 22.3879 11.2165 22.1548C11.4473 21.9217 11.7413 21.763 12.0613 21.6987C12.3814 21.6344 12.7132 21.6674 13.0147 21.7935C13.3162 21.9197 13.5739 22.1333 13.7552 22.4074C13.9365 22.6815 14.0332 23.0037 14.0332 23.3333C14.0332 23.7754 13.8594 24.1993 13.55 24.5118C13.2405 24.8244 12.8209 25 12.3832 25ZM12.3832 19.1667C12.0569 19.1667 11.7379 19.0689 11.4666 18.8858C11.1952 18.7027 10.9837 18.4424 10.8588 18.1378C10.734 17.8333 10.7013 17.4982 10.765 17.1749C10.8286 16.8516 10.9858 16.5546 11.2165 16.3215C11.4473 16.0884 11.7413 15.9297 12.0613 15.8654C12.3814 15.8011 12.7132 15.8341 13.0147 15.9602C13.3162 16.0863 13.5739 16.3 13.7552 16.5741C13.9365 16.8481 14.0332 17.1704 14.0332 17.5C14.0332 17.942 13.8594 18.366 13.55 18.6785C13.2405 18.9911 12.8209 19.1667 12.3832 19.1667ZM14.8582 11C14.5538 11.3506 14.1788 11.6316 13.7582 11.8242C13.3377 12.0168 12.8813 12.1165 12.4195 12.1167C11.9502 12.129 11.4838 12.0388 11.0522 11.8522C10.6207 11.6656 10.2341 11.387 9.91898 11.0355C9.60387 10.6839 9.36768 10.2678 9.22657 9.81552C9.08546 9.36324 9.04276 8.8855 9.1014 8.415L9.9099 3.20334C9.94056 3.00725 10.0395 2.82866 10.1889 2.69972C10.3384 2.57078 10.5285 2.49996 10.725 2.50001H14.025C14.2235 2.49762 14.4161 2.56758 14.5677 2.69708C14.7192 2.82657 14.8194 3.0069 14.85 3.205L15.6519 8.39V8.41667C15.7078 8.87909 15.6665 9.34821 15.5305 9.79338C15.3946 10.2385 15.1672 10.6497 14.8632 11H14.8582Z" fill="#722ED1"/>
</svg>
