<svg width="34" height="40" viewBox="0 0 34 40" fill="none" xmlns="http://www.w3.org/2000/svg">
<path d="M26.1667 9.99999H32.6667C32.7492 10.0001 32.8299 9.97578 32.8985 9.93001C32.9672 9.88423 33.0207 9.8191 33.0523 9.74288C33.0839 9.66665 33.0922 9.58276 33.076 9.50183C33.0599 9.42091 33.0201 9.3466 32.9617 9.28832L24.3783 0.711656C24.3205 0.653622 24.2468 0.613943 24.1664 0.597586C24.0861 0.581229 24.0028 0.588919 23.9268 0.619694C23.8509 0.65047 23.7857 0.702964 23.7394 0.770607C23.6931 0.838251 23.6678 0.91804 23.6667 0.99999V7.49999C23.6667 8.16303 23.93 8.79892 24.3989 9.26776C24.8677 9.7366 25.5036 9.99999 26.1667 9.99999Z" fill="#6FBE49"/>
<path d="M33.5445 11.7887C33.6227 11.8668 33.6666 11.9728 33.6666 12.0833V36.6667C33.6666 37.5507 33.3154 38.3986 32.6903 39.0237C32.0652 39.6488 31.2173 40 30.3333 40H3.66659C2.78253 40 1.93468 39.6488 1.30956 39.0237C0.684441 38.3986 0.333252 37.5507 0.333252 36.6667V3.33333C0.333252 2.44928 0.684441 1.60143 1.30956 0.976311C1.93468 0.351189 2.78253 0 3.66659 0H21.5833C21.6938 0 21.7997 0.0438987 21.8779 0.122039C21.956 0.200179 21.9999 0.30616 21.9999 0.416667V7.5C21.9999 8.60507 22.4389 9.66488 23.2203 10.4463C24.0017 11.2277 25.0615 11.6667 26.1666 11.6667H33.2499C33.3604 11.6667 33.4664 11.7106 33.5445 11.7887Z" fill="#6FBE49"/>
<path d="M22.5285 18.2284C22.5283 17.9722 22.4652 17.72 22.3446 17.4939C22.2241 17.2679 22.0498 17.0749 21.8371 16.9321C21.6244 16.7892 21.3799 16.7009 21.125 16.6748C20.8702 16.6487 20.6128 16.6857 20.3756 16.7825L14.1253 19.3395C13.8375 19.4561 13.5911 19.656 13.4178 19.9137C13.2446 20.1714 13.1523 20.475 13.153 20.7855V27.6039C13.153 27.6499 13.1347 27.6941 13.1021 27.7266C13.0696 27.7592 13.0254 27.7775 12.9794 27.7775H12.1113C11.3745 27.7775 10.6679 28.0702 10.147 28.5911C9.62602 29.1121 9.33334 29.8187 9.33334 30.5554C9.33334 31.2922 9.62602 31.9987 10.147 32.5197C10.6679 33.0407 11.3745 33.3333 12.1113 33.3333C12.8425 33.3157 13.5389 33.0174 14.056 32.5002C14.5732 31.983 14.8716 31.2866 14.8892 30.5554V24.137C14.889 24.1026 14.8992 24.0689 14.9184 24.0403C14.9376 24.0117 14.9649 23.9895 14.9968 23.9766L20.5527 21.7036C20.579 21.6927 20.6077 21.6886 20.636 21.6914C20.6644 21.6943 20.6916 21.704 20.7153 21.7199C20.7389 21.7357 20.7583 21.7572 20.7718 21.7823C20.7852 21.8074 20.7923 21.8355 20.7923 21.864V24.8294C20.7923 24.8755 20.774 24.9196 20.7414 24.9522C20.7089 24.9847 20.6647 25.003 20.6187 25.003H19.7506C19.0138 25.003 18.3072 25.2957 17.7863 25.8167C17.2653 26.3376 16.9726 27.0442 16.9726 27.781C16.9726 28.5177 17.2653 29.2243 17.7863 29.7453C18.3072 30.2662 19.0138 30.5589 19.7506 30.5589C20.4818 30.5413 21.1781 30.2429 21.6953 29.7257C22.2125 29.2085 22.5109 28.5122 22.5285 27.781V18.2284ZM15.1288 22.048C15.1024 22.0588 15.0738 22.0629 15.0455 22.06C15.0171 22.0571 14.9899 22.0473 14.9663 22.0314C14.9425 22.0157 14.923 21.9943 14.9096 21.9692C14.8961 21.9441 14.8891 21.9161 14.8892 21.8876V21.1355C14.8892 21.0665 14.9097 20.9991 14.9482 20.9418C14.9867 20.8845 15.0413 20.84 15.1052 20.8139L20.3138 18.6826C20.3665 18.661 20.4237 18.6528 20.4804 18.6586C20.5371 18.6644 20.5914 18.6841 20.6387 18.7158C20.686 18.7476 20.7247 18.7905 20.7515 18.8408C20.7783 18.8911 20.7923 18.9471 20.7923 19.0041V19.6125C20.7923 19.6469 20.7821 19.6805 20.763 19.7091C20.7438 19.7377 20.7165 19.7599 20.6846 19.7729L15.1288 22.048Z" fill="white"/>
</svg>
