<svg width="327" height="164" viewBox="0 0 327 164" fill="none" xmlns="http://www.w3.org/2000/svg">
<rect width="327" height="164" rx="8" fill="#1A99F4"/>
<rect x="14" y="26" width="299" height="113" rx="8" fill="white"/>
<g clip-path="url(#clip0_113_196332)">
<path d="M32.5036 68.9177L33.964 71.5287C34.2675 72.0785 34.7037 72.5104 35.2158 72.8245C36.6827 70.8972 37.7036 69.4182 38.2789 68.3876C38.8627 67.3418 39.5803 65.7057 40.4316 63.4796C38.1373 63.167 36.3987 63.0107 35.2159 63.0107C34.0805 63.0107 32.342 63.167 30 63.4796C30 64.0882 30.1517 64.6968 30.4552 65.2465L32.5036 68.9177Z" fill="#0066DA"/>
<path d="M57.8996 72.8245C58.4119 72.5104 58.8481 72.0785 59.1514 71.5288L59.7584 70.4491L62.6603 65.2465C62.9582 64.7087 63.1151 64.0996 63.1154 63.4796C60.7598 63.167 59.0245 63.0107 57.9092 63.0107C56.7106 63.0107 54.9752 63.167 52.7029 63.4796C53.5441 65.7179 54.2522 67.3539 54.8272 68.3876C55.4071 69.4305 56.4312 70.9094 57.8996 72.8245Z" fill="#EA4335"/>
<path d="M46.5578 52.485C48.255 50.3634 49.4246 48.7274 50.0666 47.577C50.5836 46.6508 51.1527 45.1717 51.7736 43.1401C51.2615 42.826 50.6736 42.6689 50.0666 42.6689H43.049C42.4421 42.6689 41.8543 42.8457 41.342 43.1401C42.1319 45.4702 42.8022 47.1285 43.3528 48.1149C43.9612 49.2051 45.0296 50.6618 46.5578 52.485Z" fill="#00832D"/>
<path d="M52.6838 63.4785H40.4315L35.2158 72.8234C35.7278 73.1375 36.3157 73.2946 36.9227 73.2946H56.1926C56.7996 73.2946 57.3876 73.1178 57.8996 72.8233L52.684 63.4785H52.6838Z" fill="#2684FC"/>
<path d="M46.5577 52.4854L41.3421 43.1406C40.8298 43.4547 40.3937 43.8866 40.0902 44.4363L30.4552 61.7126C30.1573 62.2504 30.0004 62.8595 30 63.4795H40.4316L46.5577 52.4854Z" fill="#00AC47"/>
<path d="M57.8429 53.0735L53.0253 44.4354C52.7219 43.8856 52.2856 43.4538 51.7735 43.1396L46.5579 52.4845L52.6839 63.4786H63.0966C63.0966 62.8699 62.9449 62.2615 62.6414 61.7117L57.8429 53.0735Z" fill="#FFBA00"/>
</g>
<path d="M78.3112 43.976H79.6272L82.4412 52.236H82.4972L85.4372 43.976H86.7532L83.0852 54H81.8672L78.3112 43.976ZM88.5558 45.544C88.3178 45.544 88.1218 45.46 87.9538 45.292C87.7858 45.124 87.7018 44.928 87.7018 44.69C87.7018 44.452 87.7858 44.256 87.9538 44.088C88.1218 43.92 88.3178 43.836 88.5558 43.836C88.7938 43.836 88.9898 43.92 89.1578 44.088C89.3258 44.256 89.4098 44.452 89.4098 44.69C89.4098 44.928 89.3258 45.124 89.1578 45.292C88.9898 45.46 88.7938 45.544 88.5558 45.544ZM87.9678 46.86H89.1578V54H87.9678V46.86ZM94.4237 54.224C93.7377 54.224 93.1217 54.07 92.5897 53.734C92.0437 53.412 91.6237 52.964 91.3157 52.39C91.0077 51.816 90.8677 51.172 90.8677 50.444C90.8677 49.772 91.0077 49.142 91.2877 48.554C91.5677 47.966 91.9737 47.504 92.5057 47.154C93.0377 46.818 93.6397 46.636 94.3257 46.636C95.0257 46.636 95.6277 46.804 96.1457 47.112C96.6497 47.42 97.0417 47.854 97.3217 48.4C97.6017 48.96 97.7417 49.59 97.7417 50.29C97.7417 50.402 97.7277 50.528 97.7137 50.654H92.0577C92.0857 51.2 92.2117 51.662 92.4497 52.026C92.6737 52.404 92.9677 52.684 93.3317 52.866C93.6957 53.062 94.0737 53.146 94.4657 53.146C95.3897 53.146 96.1037 52.726 96.5797 51.858L97.5877 52.348C97.2797 52.922 96.8737 53.384 96.3417 53.72C95.8097 54.056 95.1657 54.224 94.4237 54.224ZM96.4817 49.674C96.4537 49.38 96.3697 49.086 96.2297 48.778C96.0757 48.484 95.8377 48.232 95.5297 48.022C95.2077 47.826 94.8017 47.714 94.3257 47.714C93.7657 47.714 93.2897 47.896 92.8977 48.26C92.5057 48.624 92.2397 49.086 92.1277 49.674H96.4817ZM98.5136 46.86H99.7456L101.44 52.502H101.454L103.26 46.86H104.478L106.284 52.488H106.298L107.992 46.86H109.196L106.886 54H105.682L103.834 48.302L102 54H100.81L98.5136 46.86ZM116.316 54.224C115.784 54.224 115.322 54.126 114.916 53.916C114.496 53.72 114.188 53.44 113.964 53.076C113.74 52.712 113.628 52.306 113.628 51.844C113.628 51.088 113.908 50.5 114.482 50.08C115.042 49.66 115.77 49.436 116.638 49.436C117.058 49.436 117.464 49.492 117.828 49.576C118.192 49.674 118.486 49.786 118.682 49.898V49.464C118.682 48.932 118.486 48.512 118.122 48.19C117.744 47.868 117.268 47.7 116.708 47.7C116.316 47.7 115.938 47.798 115.602 47.966C115.266 48.134 115 48.372 114.804 48.68L113.908 48.008C114.188 47.588 114.566 47.252 115.07 47C115.56 46.762 116.106 46.636 116.708 46.636C117.674 46.636 118.43 46.902 118.99 47.406C119.536 47.91 119.816 48.61 119.816 49.478V54H118.682V52.978H118.626C118.416 53.328 118.108 53.622 117.702 53.86C117.282 54.112 116.82 54.224 116.316 54.224ZM116.428 53.174C116.82 53.174 117.198 53.076 117.548 52.866C117.884 52.67 118.164 52.39 118.374 52.04C118.57 51.704 118.682 51.326 118.682 50.906C118.458 50.766 118.178 50.64 117.856 50.542C117.52 50.458 117.184 50.402 116.82 50.402C116.162 50.402 115.672 50.542 115.336 50.808C115 51.088 114.846 51.438 114.846 51.858C114.846 52.25 114.986 52.572 115.294 52.81C115.588 53.062 115.966 53.174 116.428 53.174ZM121.772 46.86H122.906V47.91H122.962C123.158 47.56 123.466 47.266 123.9 47.014C124.32 46.762 124.782 46.636 125.272 46.636C126.126 46.636 126.784 46.888 127.232 47.392C127.68 47.896 127.918 48.568 127.918 49.422V54H126.728V49.604C126.728 48.946 126.56 48.47 126.252 48.162C125.93 47.868 125.496 47.714 124.95 47.714C124.558 47.714 124.222 47.826 123.914 48.036C123.606 48.26 123.382 48.54 123.214 48.89C123.046 49.24 122.962 49.604 122.962 49.982V54H121.772V46.86ZM132.957 54.224C132.313 54.224 131.725 54.07 131.207 53.734C130.689 53.412 130.283 52.964 129.989 52.39C129.681 51.816 129.541 51.158 129.541 50.43C129.541 49.716 129.681 49.072 129.989 48.484C130.283 47.91 130.689 47.462 131.207 47.126C131.725 46.804 132.313 46.636 132.957 46.636C133.489 46.636 133.979 46.762 134.413 47.014C134.833 47.266 135.169 47.56 135.393 47.924H135.449L135.393 46.93V43.976H136.583V54H135.449V52.95H135.393C135.169 53.314 134.833 53.608 134.413 53.86C133.979 54.112 133.489 54.224 132.957 54.224ZM133.083 53.146C133.503 53.146 133.881 53.034 134.245 52.81C134.609 52.586 134.889 52.278 135.113 51.858C135.337 51.452 135.449 50.976 135.449 50.43C135.449 49.898 135.337 49.422 135.113 49.002C134.889 48.596 134.609 48.274 134.245 48.05C133.881 47.826 133.503 47.714 133.083 47.714C132.663 47.714 132.285 47.826 131.921 48.05C131.557 48.274 131.263 48.596 131.039 49.016C130.815 49.436 130.717 49.898 130.717 50.43C130.717 50.962 130.815 51.438 131.039 51.858C131.263 52.278 131.557 52.586 131.921 52.81C132.285 53.034 132.663 53.146 133.083 53.146ZM145.233 54.224C144.589 54.224 144.001 54.07 143.483 53.734C142.965 53.412 142.559 52.964 142.265 52.39C141.957 51.816 141.817 51.158 141.817 50.43C141.817 49.716 141.957 49.072 142.265 48.484C142.559 47.91 142.965 47.462 143.483 47.126C144.001 46.804 144.589 46.636 145.233 46.636C145.765 46.636 146.255 46.762 146.689 47.014C147.109 47.266 147.445 47.56 147.669 47.924H147.725L147.669 46.93V43.976H148.859V54H147.725V52.95H147.669C147.445 53.314 147.109 53.608 146.689 53.86C146.255 54.112 145.765 54.224 145.233 54.224ZM145.359 53.146C145.779 53.146 146.157 53.034 146.521 52.81C146.885 52.586 147.165 52.278 147.389 51.858C147.613 51.452 147.725 50.976 147.725 50.43C147.725 49.898 147.613 49.422 147.389 49.002C147.165 48.596 146.885 48.274 146.521 48.05C146.157 47.826 145.779 47.714 145.359 47.714C144.939 47.714 144.561 47.826 144.197 48.05C143.833 48.274 143.539 48.596 143.315 49.016C143.091 49.436 142.993 49.898 142.993 50.43C142.993 50.962 143.091 51.438 143.315 51.858C143.539 52.278 143.833 52.586 144.197 52.81C144.561 53.034 144.939 53.146 145.359 53.146ZM154.139 54.224C153.439 54.224 152.809 54.056 152.249 53.72C151.689 53.384 151.241 52.936 150.933 52.348C150.625 51.774 150.471 51.13 150.471 50.43C150.471 49.73 150.625 49.1 150.933 48.512C151.241 47.938 151.689 47.476 152.249 47.14C152.809 46.804 153.439 46.636 154.139 46.636C154.839 46.636 155.469 46.804 156.029 47.14C156.589 47.476 157.023 47.938 157.331 48.512C157.639 49.1 157.807 49.73 157.807 50.43C157.807 51.13 157.639 51.774 157.331 52.348C157.023 52.936 156.589 53.384 156.029 53.72C155.469 54.056 154.839 54.224 154.139 54.224ZM154.139 53.146C154.573 53.146 154.979 53.048 155.357 52.824C155.735 52.6 156.043 52.292 156.267 51.872C156.491 51.466 156.617 50.99 156.617 50.43C156.617 49.884 156.491 49.408 156.267 48.988C156.043 48.582 155.735 48.274 155.357 48.05C154.979 47.826 154.573 47.714 154.139 47.714C153.691 47.714 153.285 47.826 152.907 48.05C152.515 48.274 152.207 48.582 151.983 48.988C151.759 49.408 151.647 49.884 151.647 50.43C151.647 50.99 151.759 51.466 151.983 51.872C152.207 52.292 152.515 52.6 152.907 52.824C153.285 53.048 153.691 53.146 154.139 53.146ZM158.568 46.86H159.8L161.494 52.502H161.508L163.314 46.86H164.532L166.338 52.488H166.352L168.046 46.86H169.25L166.94 54H165.736L163.888 48.302L162.054 54H160.864L158.568 46.86ZM170.535 46.86H171.669V47.91H171.725C171.921 47.56 172.229 47.266 172.663 47.014C173.083 46.762 173.545 46.636 174.035 46.636C174.889 46.636 175.547 46.888 175.995 47.392C176.443 47.896 176.681 48.568 176.681 49.422V54H175.491V49.604C175.491 48.946 175.323 48.47 175.015 48.162C174.693 47.868 174.259 47.714 173.713 47.714C173.321 47.714 172.985 47.826 172.677 48.036C172.369 48.26 172.145 48.54 171.977 48.89C171.809 49.24 171.725 49.604 171.725 49.982V54H170.535V46.86ZM178.682 43.976H179.872V54H178.682V43.976ZM185.157 54.224C184.457 54.224 183.827 54.056 183.267 53.72C182.707 53.384 182.259 52.936 181.951 52.348C181.643 51.774 181.489 51.13 181.489 50.43C181.489 49.73 181.643 49.1 181.951 48.512C182.259 47.938 182.707 47.476 183.267 47.14C183.827 46.804 184.457 46.636 185.157 46.636C185.857 46.636 186.487 46.804 187.047 47.14C187.607 47.476 188.041 47.938 188.349 48.512C188.657 49.1 188.825 49.73 188.825 50.43C188.825 51.13 188.657 51.774 188.349 52.348C188.041 52.936 187.607 53.384 187.047 53.72C186.487 54.056 185.857 54.224 185.157 54.224ZM185.157 53.146C185.591 53.146 185.997 53.048 186.375 52.824C186.753 52.6 187.061 52.292 187.285 51.872C187.509 51.466 187.635 50.99 187.635 50.43C187.635 49.884 187.509 49.408 187.285 48.988C187.061 48.582 186.753 48.274 186.375 48.05C185.997 47.826 185.591 47.714 185.157 47.714C184.709 47.714 184.303 47.826 183.925 48.05C183.533 48.274 183.225 48.582 183.001 48.988C182.777 49.408 182.665 49.884 182.665 50.43C182.665 50.99 182.777 51.466 183.001 51.872C183.225 52.292 183.533 52.6 183.925 52.824C184.303 53.048 184.709 53.146 185.157 53.146ZM192.789 54.224C192.257 54.224 191.795 54.126 191.389 53.916C190.969 53.72 190.661 53.44 190.437 53.076C190.213 52.712 190.101 52.306 190.101 51.844C190.101 51.088 190.381 50.5 190.955 50.08C191.515 49.66 192.243 49.436 193.111 49.436C193.531 49.436 193.937 49.492 194.301 49.576C194.665 49.674 194.959 49.786 195.155 49.898V49.464C195.155 48.932 194.959 48.512 194.595 48.19C194.217 47.868 193.741 47.7 193.181 47.7C192.789 47.7 192.411 47.798 192.075 47.966C191.739 48.134 191.473 48.372 191.277 48.68L190.381 48.008C190.661 47.588 191.039 47.252 191.543 47C192.033 46.762 192.579 46.636 193.181 46.636C194.147 46.636 194.903 46.902 195.463 47.406C196.009 47.91 196.289 48.61 196.289 49.478V54H195.155V52.978H195.099C194.889 53.328 194.581 53.622 194.175 53.86C193.755 54.112 193.293 54.224 192.789 54.224ZM192.901 53.174C193.293 53.174 193.671 53.076 194.021 52.866C194.357 52.67 194.637 52.39 194.847 52.04C195.043 51.704 195.155 51.326 195.155 50.906C194.931 50.766 194.651 50.64 194.329 50.542C193.993 50.458 193.657 50.402 193.293 50.402C192.635 50.402 192.145 50.542 191.809 50.808C191.473 51.088 191.319 51.438 191.319 51.858C191.319 52.25 191.459 52.572 191.767 52.81C192.061 53.062 192.439 53.174 192.901 53.174ZM201.283 54.224C200.639 54.224 200.051 54.07 199.533 53.734C199.015 53.412 198.609 52.964 198.315 52.39C198.007 51.816 197.867 51.158 197.867 50.43C197.867 49.716 198.007 49.072 198.315 48.484C198.609 47.91 199.015 47.462 199.533 47.126C200.051 46.804 200.639 46.636 201.283 46.636C201.815 46.636 202.305 46.762 202.739 47.014C203.159 47.266 203.495 47.56 203.719 47.924H203.775L203.719 46.93V43.976H204.909V54H203.775V52.95H203.719C203.495 53.314 203.159 53.608 202.739 53.86C202.305 54.112 201.815 54.224 201.283 54.224ZM201.409 53.146C201.829 53.146 202.207 53.034 202.571 52.81C202.935 52.586 203.215 52.278 203.439 51.858C203.663 51.452 203.775 50.976 203.775 50.43C203.775 49.898 203.663 49.422 203.439 49.002C203.215 48.596 202.935 48.274 202.571 48.05C202.207 47.826 201.829 47.714 201.409 47.714C200.989 47.714 200.611 47.826 200.247 48.05C199.883 48.274 199.589 48.596 199.365 49.016C199.141 49.436 199.043 49.898 199.043 50.43C199.043 50.962 199.141 51.438 199.365 51.858C199.589 52.278 199.883 52.586 200.247 52.81C200.611 53.034 200.989 53.146 201.409 53.146ZM212.802 54.224C212.27 54.224 211.808 54.126 211.402 53.916C210.982 53.72 210.674 53.44 210.45 53.076C210.226 52.712 210.114 52.306 210.114 51.844C210.114 51.088 210.394 50.5 210.968 50.08C211.528 49.66 212.256 49.436 213.124 49.436C213.544 49.436 213.95 49.492 214.314 49.576C214.678 49.674 214.972 49.786 215.168 49.898V49.464C215.168 48.932 214.972 48.512 214.608 48.19C214.23 47.868 213.754 47.7 213.194 47.7C212.802 47.7 212.424 47.798 212.088 47.966C211.752 48.134 211.486 48.372 211.29 48.68L210.394 48.008C210.674 47.588 211.052 47.252 211.556 47C212.046 46.762 212.592 46.636 213.194 46.636C214.16 46.636 214.916 46.902 215.476 47.406C216.022 47.91 216.302 48.61 216.302 49.478V54H215.168V52.978H215.112C214.902 53.328 214.594 53.622 214.188 53.86C213.768 54.112 213.306 54.224 212.802 54.224ZM212.914 53.174C213.306 53.174 213.684 53.076 214.034 52.866C214.37 52.67 214.65 52.39 214.86 52.04C215.056 51.704 215.168 51.326 215.168 50.906C214.944 50.766 214.664 50.64 214.342 50.542C214.006 50.458 213.67 50.402 213.306 50.402C212.648 50.402 212.158 50.542 211.822 50.808C211.486 51.088 211.332 51.438 211.332 51.858C211.332 52.25 211.472 52.572 211.78 52.81C212.074 53.062 212.452 53.174 212.914 53.174ZM218.258 43.976H219.448V54H218.258V43.976ZM221.511 43.976H222.701V54H221.511V43.976ZM230.502 53.552L227.548 46.86H228.836L231.076 52.166H231.104L233.26 46.86H234.548L230.138 57.024H228.906L230.502 53.552ZM238.853 54.224C238.153 54.224 237.523 54.056 236.963 53.72C236.403 53.384 235.955 52.936 235.647 52.348C235.339 51.774 235.185 51.13 235.185 50.43C235.185 49.73 235.339 49.1 235.647 48.512C235.955 47.938 236.403 47.476 236.963 47.14C237.523 46.804 238.153 46.636 238.853 46.636C239.553 46.636 240.183 46.804 240.743 47.14C241.303 47.476 241.737 47.938 242.045 48.512C242.353 49.1 242.521 49.73 242.521 50.43C242.521 51.13 242.353 51.774 242.045 52.348C241.737 52.936 241.303 53.384 240.743 53.72C240.183 54.056 239.553 54.224 238.853 54.224ZM238.853 53.146C239.287 53.146 239.693 53.048 240.071 52.824C240.449 52.6 240.757 52.292 240.981 51.872C241.205 51.466 241.331 50.99 241.331 50.43C241.331 49.884 241.205 49.408 240.981 48.988C240.757 48.582 240.449 48.274 240.071 48.05C239.693 47.826 239.287 47.714 238.853 47.714C238.405 47.714 237.999 47.826 237.621 48.05C237.229 48.274 236.921 48.582 236.697 48.988C236.473 49.408 236.361 49.884 236.361 50.43C236.361 50.99 236.473 51.466 236.697 51.872C236.921 52.292 237.229 52.6 237.621 52.824C237.999 53.048 238.405 53.146 238.853 53.146ZM246.725 54.224C245.857 54.224 245.199 53.972 244.751 53.468C244.303 52.964 244.079 52.264 244.079 51.354V46.86H245.269V51.172C245.269 51.858 245.423 52.362 245.731 52.67C246.039 52.992 246.445 53.146 246.977 53.146C247.369 53.146 247.733 53.048 248.041 52.824C248.349 52.614 248.601 52.334 248.769 51.984C248.937 51.648 249.035 51.284 249.035 50.892V46.86H250.225V54H249.091V52.964H249.035C248.839 53.328 248.517 53.622 248.097 53.86C247.663 54.112 247.201 54.224 246.725 54.224ZM252.282 46.86H253.416V48.008H253.472C253.612 47.616 253.878 47.294 254.284 47.042C254.676 46.79 255.096 46.65 255.544 46.65C255.866 46.65 256.146 46.706 256.384 46.79V48.078C256.076 47.938 255.74 47.854 255.376 47.854C255.026 47.854 254.704 47.952 254.424 48.148C254.13 48.344 253.892 48.61 253.724 48.946C253.556 49.282 253.472 49.632 253.472 50.01V54H252.282V46.86ZM262.212 47.938H260.896V46.86H262.212V46.09C262.212 45.642 262.31 45.25 262.52 44.914C262.716 44.578 262.996 44.326 263.346 44.144C263.682 43.962 264.074 43.864 264.494 43.864C264.886 43.864 265.236 43.92 265.544 44.032V45.194C265.376 45.138 265.208 45.082 265.068 45.04C264.914 44.998 264.732 44.97 264.536 44.97C264.228 44.97 263.962 45.082 263.738 45.306C263.514 45.53 263.402 45.824 263.402 46.216V46.86H265.236V47.938H263.402V54H262.212V47.938ZM267.554 45.544C267.316 45.544 267.12 45.46 266.952 45.292C266.784 45.124 266.7 44.928 266.7 44.69C266.7 44.452 266.784 44.256 266.952 44.088C267.12 43.92 267.316 43.836 267.554 43.836C267.792 43.836 267.988 43.92 268.156 44.088C268.324 44.256 268.408 44.452 268.408 44.69C268.408 44.928 268.324 45.124 268.156 45.292C267.988 45.46 267.792 45.544 267.554 45.544ZM266.966 46.86H268.156V54H266.966V46.86ZM270.312 43.976H271.502V54H270.312V43.976ZM276.675 54.224C275.989 54.224 275.373 54.07 274.841 53.734C274.295 53.412 273.875 52.964 273.567 52.39C273.259 51.816 273.119 51.172 273.119 50.444C273.119 49.772 273.259 49.142 273.539 48.554C273.819 47.966 274.225 47.504 274.757 47.154C275.289 46.818 275.891 46.636 276.577 46.636C277.277 46.636 277.879 46.804 278.397 47.112C278.901 47.42 279.293 47.854 279.573 48.4C279.853 48.96 279.993 49.59 279.993 50.29C279.993 50.402 279.979 50.528 279.965 50.654H274.309C274.337 51.2 274.463 51.662 274.701 52.026C274.925 52.404 275.219 52.684 275.583 52.866C275.947 53.062 276.325 53.146 276.717 53.146C277.641 53.146 278.355 52.726 278.831 51.858L279.839 52.348C279.531 52.922 279.125 53.384 278.593 53.72C278.061 54.056 277.417 54.224 276.675 54.224ZM278.733 49.674C278.705 49.38 278.621 49.086 278.481 48.778C278.327 48.484 278.089 48.232 277.781 48.022C277.459 47.826 277.053 47.714 276.577 47.714C276.017 47.714 275.541 47.896 275.149 48.26C274.757 48.624 274.491 49.086 274.379 49.674H278.733ZM284.246 54.224C283.476 54.224 282.832 54.056 282.328 53.692C281.81 53.328 281.446 52.866 281.236 52.306L282.3 51.83C282.468 52.264 282.734 52.6 283.084 52.824C283.434 53.062 283.826 53.174 284.246 53.174C284.694 53.174 285.072 53.09 285.394 52.908C285.702 52.726 285.87 52.46 285.87 52.124C285.87 51.83 285.744 51.592 285.492 51.41C285.24 51.228 284.834 51.074 284.302 50.934L283.434 50.71C282.86 50.57 282.398 50.332 282.034 49.996C281.67 49.66 281.488 49.226 281.488 48.694C281.488 48.288 281.6 47.924 281.852 47.616C282.104 47.308 282.426 47.056 282.846 46.888C283.252 46.72 283.7 46.636 284.176 46.636C284.792 46.636 285.352 46.776 285.842 47.042C286.332 47.322 286.682 47.7 286.892 48.176L285.856 48.652C285.534 48.022 284.974 47.7 284.162 47.7C283.77 47.7 283.42 47.798 283.126 47.98C282.832 48.162 282.692 48.386 282.692 48.666C282.692 48.932 282.79 49.142 283 49.31C283.196 49.478 283.504 49.604 283.924 49.702L284.96 49.968C285.66 50.15 286.178 50.416 286.542 50.766C286.892 51.116 287.074 51.536 287.074 52.04C287.074 52.488 286.948 52.866 286.696 53.202C286.444 53.538 286.094 53.79 285.674 53.958C285.24 54.14 284.764 54.224 284.246 54.224ZM82.2872 72.224C81.5872 72.224 80.9572 72.056 80.3972 71.72C79.8372 71.384 79.3892 70.936 79.0812 70.348C78.7732 69.774 78.6192 69.13 78.6192 68.43C78.6192 67.73 78.7732 67.1 79.0812 66.512C79.3892 65.938 79.8372 65.476 80.3972 65.14C80.9572 64.804 81.5872 64.636 82.2872 64.636C82.9872 64.636 83.6172 64.804 84.1772 65.14C84.7372 65.476 85.1712 65.938 85.4792 66.512C85.7872 67.1 85.9552 67.73 85.9552 68.43C85.9552 69.13 85.7872 69.774 85.4792 70.348C85.1712 70.936 84.7372 71.384 84.1772 71.72C83.6172 72.056 82.9872 72.224 82.2872 72.224ZM82.2872 71.146C82.7212 71.146 83.1272 71.048 83.5052 70.824C83.8832 70.6 84.1912 70.292 84.4152 69.872C84.6392 69.466 84.7652 68.99 84.7652 68.43C84.7652 67.884 84.6392 67.408 84.4152 66.988C84.1912 66.582 83.8832 66.274 83.5052 66.05C83.1272 65.826 82.7212 65.714 82.2872 65.714C81.8392 65.714 81.4332 65.826 81.0552 66.05C80.6632 66.274 80.3552 66.582 80.1312 66.988C79.9072 67.408 79.7952 67.884 79.7952 68.43C79.7952 68.99 79.9072 69.466 80.1312 69.872C80.3552 70.292 80.6632 70.6 81.0552 70.824C81.4332 71.048 81.8392 71.146 82.2872 71.146ZM87.5004 64.86H88.6344V65.91H88.6904C88.8864 65.56 89.1944 65.266 89.6284 65.014C90.0484 64.762 90.5104 64.636 91.0004 64.636C91.8544 64.636 92.5124 64.888 92.9604 65.392C93.4084 65.896 93.6464 66.568 93.6464 67.422V72H92.4564V67.604C92.4564 66.946 92.2884 66.47 91.9804 66.162C91.6584 65.868 91.2244 65.714 90.6784 65.714C90.2864 65.714 89.9504 65.826 89.6424 66.036C89.3344 66.26 89.1104 66.54 88.9424 66.89C88.7744 67.24 88.6904 67.604 88.6904 67.982V72H87.5004V64.86ZM104.144 72.224C103.192 72.224 102.324 72 101.54 71.538C100.742 71.09 100.112 70.46 99.6499 69.648C99.1739 68.85 98.9499 67.968 98.9499 66.988C98.9499 66.022 99.1739 65.14 99.6499 64.328C100.112 63.53 100.742 62.9 101.54 62.438C102.324 61.99 103.192 61.752 104.144 61.752C104.872 61.752 105.572 61.892 106.216 62.144C106.86 62.41 107.406 62.774 107.826 63.25L106.986 64.104C106.65 63.712 106.244 63.418 105.754 63.208C105.25 62.998 104.718 62.886 104.158 62.886C103.458 62.886 102.8 63.068 102.184 63.404C101.568 63.74 101.064 64.23 100.7 64.846C100.336 65.462 100.154 66.176 100.154 66.988C100.154 67.8 100.336 68.528 100.7 69.144C101.064 69.76 101.568 70.25 102.184 70.586C102.8 70.922 103.458 71.09 104.158 71.09C104.83 71.09 105.39 70.992 105.838 70.782C106.286 70.572 106.678 70.292 107.014 69.942C107.252 69.69 107.448 69.368 107.602 69.004C107.742 68.64 107.84 68.22 107.882 67.772H104.172V66.666H108.988C109.03 66.932 109.058 67.17 109.058 67.394C109.058 68.01 108.96 68.612 108.764 69.2C108.568 69.788 108.246 70.292 107.826 70.726C106.902 71.734 105.67 72.224 104.144 72.224ZM114.112 72.224C113.412 72.224 112.782 72.056 112.222 71.72C111.662 71.384 111.214 70.936 110.906 70.348C110.598 69.774 110.444 69.13 110.444 68.43C110.444 67.73 110.598 67.1 110.906 66.512C111.214 65.938 111.662 65.476 112.222 65.14C112.782 64.804 113.412 64.636 114.112 64.636C114.812 64.636 115.442 64.804 116.002 65.14C116.562 65.476 116.996 65.938 117.304 66.512C117.612 67.1 117.78 67.73 117.78 68.43C117.78 69.13 117.612 69.774 117.304 70.348C116.996 70.936 116.562 71.384 116.002 71.72C115.442 72.056 114.812 72.224 114.112 72.224ZM114.112 71.146C114.546 71.146 114.952 71.048 115.33 70.824C115.708 70.6 116.016 70.292 116.24 69.872C116.464 69.466 116.59 68.99 116.59 68.43C116.59 67.884 116.464 67.408 116.24 66.988C116.016 66.582 115.708 66.274 115.33 66.05C114.952 65.826 114.546 65.714 114.112 65.714C113.664 65.714 113.258 65.826 112.88 66.05C112.488 66.274 112.18 66.582 111.956 66.988C111.732 67.408 111.62 67.884 111.62 68.43C111.62 68.99 111.732 69.466 111.956 69.872C112.18 70.292 112.488 70.6 112.88 70.824C113.258 71.048 113.664 71.146 114.112 71.146ZM122.752 72.224C122.052 72.224 121.422 72.056 120.862 71.72C120.302 71.384 119.854 70.936 119.546 70.348C119.238 69.774 119.084 69.13 119.084 68.43C119.084 67.73 119.238 67.1 119.546 66.512C119.854 65.938 120.302 65.476 120.862 65.14C121.422 64.804 122.052 64.636 122.752 64.636C123.452 64.636 124.082 64.804 124.642 65.14C125.202 65.476 125.636 65.938 125.944 66.512C126.252 67.1 126.42 67.73 126.42 68.43C126.42 69.13 126.252 69.774 125.944 70.348C125.636 70.936 125.202 71.384 124.642 71.72C124.082 72.056 123.452 72.224 122.752 72.224ZM122.752 71.146C123.186 71.146 123.592 71.048 123.97 70.824C124.348 70.6 124.656 70.292 124.88 69.872C125.104 69.466 125.23 68.99 125.23 68.43C125.23 67.884 125.104 67.408 124.88 66.988C124.656 66.582 124.348 66.274 123.97 66.05C123.592 65.826 123.186 65.714 122.752 65.714C122.304 65.714 121.898 65.826 121.52 66.05C121.128 66.274 120.82 66.582 120.596 66.988C120.372 67.408 120.26 67.884 120.26 68.43C120.26 68.99 120.372 69.466 120.596 69.872C120.82 70.292 121.128 70.6 121.52 70.824C121.898 71.048 122.304 71.146 122.752 71.146ZM131.238 75.248C130.398 75.248 129.698 75.052 129.152 74.66C128.606 74.268 128.242 73.806 128.06 73.246L129.152 72.784C129.292 73.204 129.558 73.54 129.922 73.792C130.286 74.044 130.734 74.17 131.238 74.17C131.966 74.17 132.54 73.96 132.946 73.526C133.352 73.106 133.562 72.49 133.562 71.706V70.908H133.506C133.268 71.272 132.932 71.58 132.512 71.804C132.092 72.028 131.602 72.14 131.07 72.14C130.454 72.14 129.88 71.986 129.376 71.664C128.872 71.356 128.466 70.908 128.172 70.334C127.864 69.774 127.724 69.116 127.724 68.388C127.724 67.674 127.864 67.03 128.172 66.456C128.466 65.882 128.872 65.434 129.376 65.112C129.88 64.804 130.454 64.636 131.07 64.636C131.602 64.636 132.092 64.762 132.512 64.986C132.932 65.21 133.268 65.518 133.506 65.882H133.562V64.86H134.696V71.72C134.696 72.868 134.374 73.75 133.744 74.352C133.1 74.954 132.274 75.248 131.238 75.248ZM131.238 71.062C131.658 71.062 132.05 70.964 132.4 70.74C132.75 70.53 133.03 70.222 133.24 69.816C133.45 69.424 133.562 68.948 133.562 68.388C133.562 67.828 133.45 67.352 133.24 66.946C133.03 66.554 132.75 66.246 132.4 66.036C132.05 65.826 131.658 65.714 131.238 65.714C130.804 65.714 130.412 65.826 130.062 66.036C129.698 66.26 129.418 66.568 129.208 66.96C128.998 67.366 128.9 67.842 128.9 68.388C128.9 68.948 128.998 69.424 129.208 69.83C129.418 70.236 129.698 70.544 130.062 70.754C130.412 70.964 130.804 71.062 131.238 71.062ZM136.755 61.976H137.945V72H136.755V61.976ZM143.118 72.224C142.432 72.224 141.816 72.07 141.284 71.734C140.738 71.412 140.318 70.964 140.01 70.39C139.702 69.816 139.562 69.172 139.562 68.444C139.562 67.772 139.702 67.142 139.982 66.554C140.262 65.966 140.668 65.504 141.2 65.154C141.732 64.818 142.334 64.636 143.02 64.636C143.72 64.636 144.322 64.804 144.84 65.112C145.344 65.42 145.736 65.854 146.016 66.4C146.296 66.96 146.436 67.59 146.436 68.29C146.436 68.402 146.422 68.528 146.408 68.654H140.752C140.78 69.2 140.906 69.662 141.144 70.026C141.368 70.404 141.662 70.684 142.026 70.866C142.39 71.062 142.768 71.146 143.16 71.146C144.084 71.146 144.798 70.726 145.274 69.858L146.282 70.348C145.974 70.922 145.568 71.384 145.036 71.72C144.504 72.056 143.86 72.224 143.118 72.224ZM145.176 67.674C145.148 67.38 145.064 67.086 144.924 66.778C144.77 66.484 144.532 66.232 144.224 66.022C143.902 65.826 143.496 65.714 143.02 65.714C142.46 65.714 141.984 65.896 141.592 66.26C141.2 66.624 140.934 67.086 140.822 67.674H145.176ZM151.921 61.976H154.945C155.967 61.976 156.863 62.2 157.633 62.62C158.389 63.04 158.977 63.628 159.397 64.384C159.803 65.14 160.013 66.008 160.013 66.988C160.013 67.968 159.803 68.836 159.397 69.592C158.977 70.348 158.389 70.95 157.633 71.37C156.863 71.79 155.967 72 154.945 72H151.921V61.976ZM154.945 70.866C156.121 70.866 157.059 70.53 157.759 69.844C158.459 69.172 158.809 68.22 158.809 66.988C158.809 65.77 158.459 64.818 157.759 64.132C157.059 63.46 156.121 63.11 154.945 63.11H153.111V70.866H154.945ZM161.553 64.86H162.687V66.008H162.743C162.883 65.616 163.149 65.294 163.555 65.042C163.947 64.79 164.367 64.65 164.815 64.65C165.137 64.65 165.417 64.706 165.655 64.79V66.078C165.347 65.938 165.011 65.854 164.647 65.854C164.297 65.854 163.975 65.952 163.695 66.148C163.401 66.344 163.163 66.61 162.995 66.946C162.827 67.282 162.743 67.632 162.743 68.01V72H161.553V64.86ZM167.803 63.544C167.565 63.544 167.369 63.46 167.201 63.292C167.033 63.124 166.949 62.928 166.949 62.69C166.949 62.452 167.033 62.256 167.201 62.088C167.369 61.92 167.565 61.836 167.803 61.836C168.041 61.836 168.237 61.92 168.405 62.088C168.573 62.256 168.657 62.452 168.657 62.69C168.657 62.928 168.573 63.124 168.405 63.292C168.237 63.46 168.041 63.544 167.803 63.544ZM167.215 64.86H168.405V72H167.215V64.86ZM169.777 64.86H171.051L173.263 70.6H173.291L175.531 64.86H176.777L173.865 72H172.661L169.777 64.86ZM181.026 72.224C180.34 72.224 179.724 72.07 179.192 71.734C178.646 71.412 178.226 70.964 177.918 70.39C177.61 69.816 177.47 69.172 177.47 68.444C177.47 67.772 177.61 67.142 177.89 66.554C178.17 65.966 178.576 65.504 179.108 65.154C179.64 64.818 180.242 64.636 180.928 64.636C181.628 64.636 182.23 64.804 182.748 65.112C183.252 65.42 183.644 65.854 183.924 66.4C184.204 66.96 184.344 67.59 184.344 68.29C184.344 68.402 184.33 68.528 184.316 68.654H178.66C178.688 69.2 178.814 69.662 179.052 70.026C179.276 70.404 179.57 70.684 179.934 70.866C180.298 71.062 180.676 71.146 181.068 71.146C181.992 71.146 182.706 70.726 183.182 69.858L184.19 70.348C183.882 70.922 183.476 71.384 182.944 71.72C182.412 72.056 181.768 72.224 181.026 72.224ZM183.084 67.674C183.056 67.38 182.972 67.086 182.832 66.778C182.678 66.484 182.44 66.232 182.132 66.022C181.81 65.826 181.404 65.714 180.928 65.714C180.368 65.714 179.892 65.896 179.5 66.26C179.108 66.624 178.842 67.086 178.73 67.674H183.084ZM186.82 72.084C186.568 72.084 186.344 72 186.176 71.832C186.008 71.664 185.924 71.44 185.924 71.188C185.924 70.95 186.008 70.74 186.176 70.572C186.344 70.404 186.568 70.306 186.82 70.306C187.072 70.306 187.282 70.404 187.45 70.572C187.618 70.74 187.716 70.95 187.716 71.188C187.716 71.44 187.618 71.664 187.45 71.832C187.282 72 187.072 72.084 186.82 72.084Z" fill="black"/>
<rect x="30" y="88" width="267" height="1" fill="#E2E2E2"/>
<path d="M37.5811 118L36.7471 115.478H33.1172L32.2695 118H30.4854L33.9854 108.136H35.9678L39.4746 118H37.5811ZM34.8809 110.016L33.5273 114.083H36.3369L34.9971 110.016H34.8809ZM41.0605 118V107.63H42.7559V118H41.0605ZM44.9707 118V107.63H46.666V118H44.9707ZM52.0391 118.15C49.7969 118.15 48.4434 116.688 48.4434 114.261C48.4434 111.848 49.8174 110.371 52.0391 110.371C54.2676 110.371 55.6348 111.841 55.6348 114.261C55.6348 116.688 54.2744 118.15 52.0391 118.15ZM52.0391 116.729C53.2217 116.729 53.8916 115.826 53.8916 114.261C53.8916 112.702 53.2148 111.793 52.0391 111.793C50.8564 111.793 50.1797 112.702 50.1797 114.261C50.1797 115.826 50.8564 116.729 52.0391 116.729ZM67.0576 110.521L65.0342 118H63.25L61.7939 112.613H61.6777L60.2285 118H58.4648L56.4414 110.521H58.1504L59.3945 116.106H59.5107L60.9463 110.521H62.5664L64.0156 116.106H64.1318L65.3691 110.521H67.0576ZM74.8301 116.79C75.8555 116.79 76.6211 116.127 76.6211 115.259V114.664L74.9326 114.773C73.9824 114.835 73.5381 115.177 73.5381 115.785C73.5381 116.414 74.0781 116.79 74.8301 116.79ZM74.3311 118.123C72.8887 118.123 71.8564 117.248 71.8564 115.881C71.8564 114.527 72.875 113.748 74.6934 113.639L76.6211 113.522V112.894C76.6211 112.162 76.1289 111.752 75.2129 111.752C74.4336 111.752 73.9004 112.025 73.7432 112.531H72.1436C72.2803 111.212 73.5176 110.371 75.2949 110.371C77.2158 110.371 78.2959 111.308 78.2959 112.894V118H76.6621V116.975H76.5459C76.1289 117.699 75.3086 118.123 74.3311 118.123ZM80.4082 118V107.63H82.1035V118H80.4082ZM84.3184 118V107.63H86.0137V118H84.3184ZM95.9668 110.398C97.8604 110.398 99.0498 111.861 99.0498 114.261C99.0498 116.646 97.874 118.123 95.9873 118.123C94.9141 118.123 94.0869 117.658 93.7041 116.865H93.5879V120.488H91.8926V110.521H93.5264V111.759H93.6426C94.0732 110.911 94.9414 110.398 95.9668 110.398ZM95.4336 116.681C96.6094 116.681 97.3066 115.771 97.3066 114.261C97.3066 112.75 96.6025 111.841 95.4404 111.841C94.2852 111.841 93.5605 112.771 93.5537 114.261C93.5605 115.758 94.2783 116.681 95.4336 116.681ZM103.89 111.718C102.878 111.718 102.167 112.442 102.092 113.536H105.612C105.578 112.429 104.908 111.718 103.89 111.718ZM105.626 115.942H107.232C106.911 117.303 105.674 118.15 103.91 118.15C101.709 118.15 100.383 116.694 100.383 114.288C100.383 111.882 101.729 110.371 103.896 110.371C106.029 110.371 107.308 111.786 107.308 114.145V114.691H102.085V114.78C102.126 116.024 102.844 116.804 103.958 116.804C104.799 116.804 105.38 116.496 105.626 115.942ZM109.01 118V110.521H110.644V111.684H110.76C110.965 110.945 111.771 110.398 112.735 110.398C112.981 110.398 113.282 110.426 113.439 110.474V112.046C113.31 111.998 112.858 111.95 112.571 111.95C111.471 111.95 110.705 112.634 110.705 113.68V118H109.01ZM114.93 118V110.521H116.563V111.731H116.68C117.001 110.877 117.767 110.371 118.758 110.371C119.79 110.371 120.508 110.891 120.822 111.731H120.938C121.308 110.911 122.169 110.371 123.208 110.371C124.705 110.371 125.607 111.308 125.607 112.859V118H123.919V113.29C123.919 112.326 123.461 111.848 122.552 111.848C121.67 111.848 121.089 112.49 121.089 113.345V118H119.441V113.167C119.441 112.347 118.922 111.848 118.088 111.848C117.247 111.848 116.625 112.538 116.625 113.454V118H114.93ZM127.638 118V110.521H129.326V118H127.638ZM128.479 109.305C127.863 109.305 127.433 108.908 127.433 108.368C127.433 107.828 127.863 107.432 128.479 107.432C129.101 107.432 129.524 107.828 129.524 108.368C129.524 108.908 129.101 109.305 128.479 109.305ZM131.261 112.661C131.261 111.308 132.491 110.371 134.255 110.371C136.032 110.371 137.146 111.157 137.27 112.518H135.677C135.554 111.991 135.055 111.656 134.262 111.656C133.489 111.656 132.908 112.025 132.908 112.565C132.908 112.989 133.264 113.249 134.016 113.42L135.335 113.721C136.764 114.042 137.427 114.657 137.427 115.758C137.427 117.193 136.107 118.15 134.241 118.15C132.375 118.15 131.199 117.344 131.069 115.983H132.744C132.908 116.537 133.435 116.865 134.282 116.865C135.137 116.865 135.731 116.489 135.731 115.936C135.731 115.512 135.41 115.245 134.699 115.088L133.373 114.78C131.938 114.452 131.261 113.789 131.261 112.661ZM138.835 112.661C138.835 111.308 140.065 110.371 141.829 110.371C143.606 110.371 144.721 111.157 144.844 112.518H143.251C143.128 111.991 142.629 111.656 141.836 111.656C141.063 111.656 140.482 112.025 140.482 112.565C140.482 112.989 140.838 113.249 141.59 113.42L142.909 113.721C144.338 114.042 145.001 114.657 145.001 115.758C145.001 117.193 143.682 118.15 141.815 118.15C139.949 118.15 138.773 117.344 138.644 115.983H140.318C140.482 116.537 141.009 116.865 141.856 116.865C142.711 116.865 143.306 116.489 143.306 115.936C143.306 115.512 142.984 115.245 142.273 115.088L140.947 114.78C139.512 114.452 138.835 113.789 138.835 112.661ZM146.737 118V110.521H148.426V118H146.737ZM147.578 109.305C146.963 109.305 146.532 108.908 146.532 108.368C146.532 107.828 146.963 107.432 147.578 107.432C148.2 107.432 148.624 107.828 148.624 108.368C148.624 108.908 148.2 109.305 147.578 109.305ZM153.758 118.15C151.516 118.15 150.162 116.688 150.162 114.261C150.162 111.848 151.536 110.371 153.758 110.371C155.986 110.371 157.354 111.841 157.354 114.261C157.354 116.688 155.993 118.15 153.758 118.15ZM153.758 116.729C154.94 116.729 155.61 115.826 155.61 114.261C155.61 112.702 154.934 111.793 153.758 111.793C152.575 111.793 151.898 112.702 151.898 114.261C151.898 115.826 152.575 116.729 153.758 116.729ZM159.062 118V110.521H160.696V111.718H160.812C161.168 110.884 161.92 110.371 163.034 110.371C164.702 110.371 165.611 111.376 165.611 113.16V118H163.916V113.563C163.916 112.422 163.438 111.848 162.405 111.848C161.394 111.848 160.758 112.545 160.758 113.646V118H159.062Z" fill="#1A99F4"/>
<path d="M289 105C289.552 105 290 104.552 290 104C290 103.448 289.552 103 289 103H279C276.791 103 275 104.791 275 107V119C275 121.209 276.791 123 279 123H291C293.209 123 295 121.209 295 119V114C295 113.448 294.552 113 294 113C293.448 113 293 113.448 293 114V119C293 120.105 292.105 121 291 121H279C277.895 121 277 120.105 277 119V107C277 105.895 277.895 105 279 105H289Z" fill="#18BAFF"/>
<path d="M285.207 117.207L294.707 107.707C295.098 107.317 295.098 106.683 294.707 106.293C294.317 105.902 293.683 105.902 293.293 106.293L284.5 115.086L281.707 112.293C281.317 111.902 280.683 111.902 280.293 112.293C279.902 112.683 279.902 113.317 280.293 113.707L283.793 117.207C284.183 117.598 284.817 117.598 285.207 117.207Z" fill="#18BAFF"/>
<defs>
<clipPath id="clip0_113_196332">
<rect width="33.1152" height="30.6623" fill="white" transform="translate(30 42.6689)"/>
</clipPath>
</defs>
</svg>
