<svg width="16" height="16" viewBox="0 0 16 16" fill="none" xmlns="http://www.w3.org/2000/svg">
<circle cx="8" cy="8" r="8" fill="white"/>
<path fill-rule="evenodd" clip-rule="evenodd" d="M10.8574 5.85355C11.0527 5.65829 11.0527 5.34171 10.8574 5.14645C10.6622 4.95118 10.3456 4.95118 10.1503 5.14645L8.00193 7.29482L5.85355 5.14645C5.65829 4.95118 5.34171 4.95118 5.14645 5.14645C4.95118 5.34171 4.95118 5.65829 5.14645 5.85355L7.29482 8.00193L5.14645 10.1503C4.95118 10.3456 4.95118 10.6622 5.14645 10.8574C5.34171 11.0527 5.65829 11.0527 5.85355 10.8574L8.00193 8.70904L10.1503 10.8574C10.3456 11.0527 10.6622 11.0527 10.8574 10.8574C11.0527 10.6622 11.0527 10.3456 10.8574 10.1503L8.70904 8.00193L10.8574 5.85355Z" fill="#737682"/>
</svg>
