<svg width="24" height="24" viewBox="0 0 24 24" fill="none" xmlns="http://www.w3.org/2000/svg">
<path fill-rule="evenodd" clip-rule="evenodd" d="M20.4142 8.41421C20.711 8.71097 20.9048 9.09137 20.9729 9.5H21V11H20.1129C19.9068 11.0241 19.7021 11.0616 19.5 11.1126V11H11V2.5H7C5.61929 2.5 4.5 3.61929 4.5 5V19C4.5 20.3807 5.61929 21.5 7 21.5H11.0406C11.1328 22.0202 11.312 22.528 11.5783 23H7C4.79086 23 3 21.2091 3 19V5C3 2.79086 4.79086 1 7 1H12.5V1.02714C12.9086 1.09517 13.289 1.28903 13.5858 1.58579L20.4142 8.41421ZM12.5 2.62299V9.5H19.377C19.3695 9.49139 19.3617 9.483 19.3536 9.47487L12.5251 2.64645C12.517 2.63832 12.5086 2.63049 12.5 2.62299ZM22.9654 13.4197C21.6962 12.1505 19.6384 12.1505 18.3692 13.4197L16.955 14.8339C16.6621 15.1268 16.6621 15.6017 16.955 15.8946C17.2478 16.1874 17.7227 16.1874 18.0156 15.8946L19.4298 14.4803C20.1132 13.7969 21.2213 13.7969 21.9047 14.4803C22.5881 15.1638 22.5881 16.2718 21.9047 16.9552L20.4905 18.3694C20.1976 18.6623 20.1976 19.1372 20.4905 19.4301C20.7834 19.723 21.2583 19.723 21.5511 19.4301L22.9654 18.0159C24.2346 16.7467 24.2346 14.6889 22.9654 13.4197ZM13.4194 22.9656C12.1502 21.6964 12.1502 19.6386 13.4194 18.3694L14.8336 16.9552C15.1265 16.6623 15.6014 16.6623 15.8943 16.9552C16.1872 17.2481 16.1872 17.723 15.8943 18.0159L14.4801 19.4301C13.7967 20.1135 13.7967 21.2215 14.4801 21.905C15.1635 22.5884 16.2715 22.5884 16.955 21.905L18.3692 20.4907C18.6621 20.1979 19.1369 20.1979 19.4298 20.4907C19.7227 20.7836 19.7227 21.2585 19.4298 21.5514L18.0156 22.9656C16.7464 24.2348 14.6886 24.2348 13.4194 22.9656ZM19.9602 17.4855L17.4853 19.9604C17.1924 20.2533 16.7175 20.2533 16.4246 19.9604C16.1317 19.6675 16.1317 19.1926 16.4246 18.8998L18.8995 16.4249C19.1924 16.132 19.6673 16.132 19.9602 16.4249C20.253 16.7178 20.253 17.1926 19.9602 17.4855Z" fill="#26282C"/>
</svg>
