<svg width="64" height="64" viewBox="0 0 64 64" fill="none" xmlns="http://www.w3.org/2000/svg">
<path d="M0 32C0 14.3269 14.3269 0 32 0C49.6731 0 64 14.3269 64 32C64 49.6731 49.6731 64 32 64C14.3269 64 0 49.6731 0 32Z" fill="#EDEDED"/>
<g clip-path="url(#clip0)">
<path d="M42 30.8095H40.6667C39.8259 30.8097 38.9946 30.9874 38.2272 31.3311C39.3963 32.1965 40.3464 33.3237 41.0016 34.6224C41.6567 35.921 41.9986 38.4979 42 39.9524H46C47.1046 39.9524 48 39.057 48 37.9524V36.8095C48 35.2182 47.3679 33.6921 46.2426 32.5669C45.1174 31.4417 43.5913 30.8095 42 30.8095Z" fill="#B3B3B3"/>
<path d="M25.7727 31.3311C25.0054 30.9874 24.1741 30.8097 23.3333 30.8095H22C20.4087 30.8095 18.8825 31.4417 17.7573 32.5669C16.6321 33.6921 15.9999 35.2182 15.9999 36.8095V37.9524C15.9999 39.057 16.8954 39.9524 17.9999 39.9524H22C22.0013 38.4979 22.3432 35.921 22.9984 34.6224C23.6535 33.3237 24.6037 32.1965 25.7727 31.3311Z" fill="#B3B3B3"/>
<path d="M32.6667 31.4762H31.3333C29.3884 31.4762 27.5231 32.2488 26.1479 33.6241C24.7726 34.9993 24 36.8646 24 38.8095V41.2857C24 42.3903 24.8954 43.2857 26 43.2857H38C39.1046 43.2857 40 42.3903 40 41.2857V38.8095C40 36.8646 39.2274 34.9993 37.8521 33.6241C36.4769 32.2488 34.6116 31.4762 32.6667 31.4762Z" fill="#B3B3B3"/>
<path d="M32 30.1429C34.5773 30.1429 36.6666 28.0535 36.6666 25.4762C36.6666 22.8988 34.5773 20.8095 32 20.8095C29.4226 20.8095 27.3333 22.8988 27.3333 25.4762C27.3333 28.0535 29.4226 30.1429 32 30.1429Z" fill="#B3B3B3"/>
<path d="M22.6666 29.4762C24.5075 29.4762 25.9999 27.9838 25.9999 26.1428C25.9999 24.3019 24.5075 22.8095 22.6666 22.8095C20.8256 22.8095 19.3333 24.3019 19.3333 26.1428C19.3333 27.9838 20.8256 29.4762 22.6666 29.4762Z" fill="#B3B3B3"/>
<path d="M41.3333 29.4762C43.1743 29.4762 44.6667 27.9838 44.6667 26.1428C44.6667 24.3019 43.1743 22.8095 41.3333 22.8095C39.4924 22.8095 38 24.3019 38 26.1428C38 27.9838 39.4924 29.4762 41.3333 29.4762Z" fill="#B3B3B3"/>
</g>
<defs>
<clipPath id="clip0">
<rect width="32" height="32" fill="white" transform="translate(16 16)"/>
</clipPath>
</defs>
</svg>
