<svg width="12" height="12" viewBox="0 0 12 12" fill="none" xmlns="http://www.w3.org/2000/svg">
<path fill-rule="evenodd" clip-rule="evenodd" d="M8 2.6875C8 4.25 7.33333 5.5 6 5.5C4.66667 5.5 4 4.25 4 2.6875C4 1.4375 4.66667 0.5 6 0.5C7.33333 0.5 8 1.4375 8 2.6875ZM7.33739 6.68086C6.91171 6.56299 6.46322 6.5 6.00002 6.5C4.75252 6.5 3.61173 6.95686 2.73583 7.7124C2.06847 8.28806 1.93547 9.25568 2.32658 10.0455L2.34993 10.0922C2.63285 10.6543 3.14945 11.0626 3.75897 11.2188C4.16543 11.3229 4.58298 11.3994 5.0095 11.4461C4.97353 11.1046 5.03841 10.7447 5.22832 10.409L7.33739 6.68086Z" fill="#18202A"/>
<path fill-rule="evenodd" clip-rule="evenodd" d="M11.3987 12H6.60132C6.14021 12 5.85119 11.4921 6.0801 11.0841L8.47878 6.80823C8.70933 6.39726 9.29067 6.39726 9.52122 6.80823L11.9199 11.084C12.1488 11.4921 11.8598 12 11.3987 12ZM9 8C8.79289 8 8.625 8.16789 8.625 8.375V9.375C8.625 9.58211 8.79289 9.75 9 9.75C9.20711 9.75 9.375 9.58211 9.375 9.375V8.375C9.375 8.16789 9.20711 8 9 8ZM9 10.25C8.79289 10.25 8.625 10.4179 8.625 10.625C8.625 10.8321 8.79289 11 9 11C9.20711 11 9.375 10.8321 9.375 10.625C9.375 10.4179 9.20711 10.25 9 10.25Z" fill="#18202A"/>
</svg>
