<svg width="12" height="12" viewBox="0 0 12 12" fill="none" xmlns="http://www.w3.org/2000/svg">
<path d="M3.5 1.75H5.5C6.4665 1.75 7.25 2.5335 7.25 3.5V4C7.25 4.20711 7.41789 4.375 7.625 4.375C7.83211 4.375 8 4.20711 8 4V3.5C8 2.11929 6.88071 1 5.5 1H3.5C2.11929 1 1 2.11929 1 3.5V8.5C1 9.88071 2.11929 11 3.5 11H5.5C6.88071 11 8 9.88071 8 8.5V8.05C8 7.84289 7.83211 7.675 7.625 7.675C7.41789 7.675 7.25 7.84289 7.25 8.05V8.5C7.25 9.4665 6.4665 10.25 5.5 10.25H3.5C2.5335 10.25 1.75 9.4665 1.75 8.5V3.5C1.75 2.5335 2.5335 1.75 3.5 1.75Z" fill="#18202A"/>
<path fill-rule="evenodd" clip-rule="evenodd" d="M8.73484 4.23483C8.88128 4.08839 9.11872 4.08839 9.26517 4.23483L10.7652 5.73483C10.9116 5.88128 10.9116 6.11872 10.7652 6.26517L9.26517 7.76516C9.11872 7.91161 8.88128 7.91161 8.73484 7.76516C8.58839 7.61872 8.58839 7.38128 8.73484 7.23484L9.59467 6.375H4.5C4.29289 6.375 4.125 6.20711 4.125 6C4.125 5.79289 4.29289 5.625 4.5 5.625H9.59467L8.73484 4.76517C8.58839 4.61872 8.58839 4.38128 8.73484 4.23483Z" fill="#18202A"/>
</svg>
