<svg width="12" height="12" viewBox="0 0 12 12" fill="none" xmlns="http://www.w3.org/2000/svg">
<g clip-path="url(#clip0_2266_34706)">
<path fill-rule="evenodd" clip-rule="evenodd" d="M9 11.5H8C7.17157 11.5 6.5 10.8284 6.5 10V8C6.5 7.17157 7.17157 6.5 8 6.5H10C10.8284 6.5 11.5 7.17157 11.5 8V9C11.5 10.3807 10.3807 11.5 9 11.5ZM11.5 4C11.5 4.82843 10.8284 5.5 10 5.5H8C7.17157 5.5 6.5 4.82843 6.5 4V2C6.5 1.17157 7.17157 0.5 8 0.5H9C10.3807 0.5 11.5 1.61929 11.5 3V4ZM3 0.5H4C4.82843 0.5 5.5 1.17157 5.5 2V10C5.5 10.8284 4.82843 11.5 4 11.5H3C1.61929 11.5 0.5 10.3807 0.5 9V3C0.5 1.61929 1.61929 0.5 3 0.5Z" fill="#18202A"/>
</g>
<defs>
<clipPath id="clip0_2266_34706">
<rect width="12" height="12" fill="white"/>
</clipPath>
</defs>
</svg>
