<svg width="12" height="12" viewBox="0 0 12 12" fill="none" xmlns="http://www.w3.org/2000/svg">
<path fill-rule="evenodd" clip-rule="evenodd" d="M4 2V2.5H1.5C1.22386 2.5 1 2.72386 1 3C1 3.27614 1.22386 3.5 1.5 3.5H2V8.5C2 10.1569 3.34315 11.5 5 11.5H7C8.65685 11.5 10 10.1569 10 8.5V3.5H10.5C10.7761 3.5 11 3.27614 11 3C11 2.72386 10.7761 2.5 10.5 2.5H8V2C8 1.17157 7.32843 0.5 6.5 0.5H5.5C4.67157 0.5 4 1.17157 4 2ZM6.5 1.5H5.5C5.22386 1.5 5 1.72386 5 2V2.5H7V2C7 1.72386 6.77614 1.5 6.5 1.5ZM5 5C5.27614 5 5.5 5.22386 5.5 5.5V8.5C5.5 8.77614 5.27614 9 5 9C4.72386 9 4.5 8.77614 4.5 8.5V5.5C4.5 5.22386 4.72386 5 5 5ZM7.5 5.5C7.5 5.22386 7.27614 5 7 5C6.72386 5 6.5 5.22386 6.5 5.5V8.5C6.5 8.77614 6.72386 9 7 9C7.27614 9 7.5 8.77614 7.5 8.5V5.5Z" fill="#18202A"/>
</svg>
