<svg width="12" height="12" viewBox="0 0 12 12" fill="none" xmlns="http://www.w3.org/2000/svg">
<path d="M2.25 5C2.66421 5 3 4.66421 3 4.25C3 3.83579 2.66421 3.5 2.25 3.5C1.83579 3.5 1.5 3.83579 1.5 4.25C1.5 4.66421 1.83579 5 2.25 5Z" fill="#18202A"/>
<path d="M2.25 8.5C2.66421 8.5 3 8.16421 3 7.75C3 7.33579 2.66421 7 2.25 7C1.83579 7 1.5 7.33579 1.5 7.75C1.5 8.16421 1.83579 8.5 2.25 8.5Z" fill="#18202A"/>
<path d="M6.5 4.25C6.5 4.66421 6.16421 5 5.75 5C5.33579 5 5 4.66421 5 4.25C5 3.83579 5.33579 3.5 5.75 3.5C6.16421 3.5 6.5 3.83579 6.5 4.25Z" fill="#18202A"/>
<path d="M5.75 8.5C6.16421 8.5 6.5 8.16421 6.5 7.75C6.5 7.33579 6.16421 7 5.75 7C5.33579 7 5 7.33579 5 7.75C5 8.16421 5.33579 8.5 5.75 8.5Z" fill="#18202A"/>
<path d="M10 4.25C10 4.66421 9.66421 5 9.25 5C8.83579 5 8.5 4.66421 8.5 4.25C8.5 3.83579 8.83579 3.5 9.25 3.5C9.66421 3.5 10 3.83579 10 4.25Z" fill="#18202A"/>
<path d="M9.25 8.5C9.66421 8.5 10 8.16421 10 7.75C10 7.33579 9.66421 7 9.25 7C8.83579 7 8.5 7.33579 8.5 7.75C8.5 8.16421 8.83579 8.5 9.25 8.5Z" fill="#18202A"/>
</svg>
