<svg width="12" height="12" viewBox="0 0 12 12" fill="none" xmlns="http://www.w3.org/2000/svg">
<path fill-rule="evenodd" clip-rule="evenodd" d="M10 3H8.44999C8.21836 1.85888 7.20948 1 6 1C4.79052 1 3.78164 1.85888 3.55001 3H2C1.17157 3 0.5 3.67157 0.5 4.5V5.52325L4.40054 6.77341C5.44677 7.04479 6.55275 7.04479 7.59898 6.77341L11.5 5.52326V4.5C11.5 3.67157 10.8284 3 10 3ZM6 2C6.65311 2 7.20873 2.4174 7.41465 3H4.58535C4.79127 2.4174 5.34689 2 6 2ZM6.75 5.25C6.75 5.66421 6.41421 6 6 6C5.58579 6 5.25 5.66421 5.25 5.25C5.25 4.83579 5.58579 4.5 6 4.5C6.41421 4.5 6.75 4.83579 6.75 5.25Z" fill="#18202A"/>
<path d="M11.5 6.5643L7.80817 7.74741L7.79824 7.75C6.62162 8.05722 5.37788 8.05722 4.20126 7.75L4.19133 7.74741L0.5 6.56431V9.5C0.5 10.3284 1.17157 11 2 11H10C10.8284 11 11.5 10.3284 11.5 9.5V6.5643Z" fill="#18202A"/>
</svg>
