<svg width="12" height="12" viewBox="0 0 12 12" fill="none" xmlns="http://www.w3.org/2000/svg">
<path d="M0 3.5C0 2.39543 0.895431 1.5 2 1.5H7C8.10457 1.5 9 2.39543 9 3.5V8.5C9 9.60457 8.10457 10.5 7 10.5H2C0.895431 10.5 0 9.60457 0 8.5V3.5Z" fill="#18202A"/>
<path d="M9.5 4.55612C9.5 4.39531 9.57734 4.24431 9.70785 4.15035L11.2078 3.07035C11.5386 2.83222 12 3.06857 12 3.47612V8.52388C12 8.93143 11.5386 9.16778 11.2078 8.92965L9.70785 7.84965C9.57734 7.75569 9.5 7.60469 9.5 6.94388V4.55612Z" fill="#18202A"/>
</svg>
