<svg width="12" height="12" viewBox="0 0 12 12" fill="none" xmlns="http://www.w3.org/2000/svg">
<g clip-path="url(#clip0_2266_37071)">
<path d="M0.5 3.99989C0.5 3.17146 1.17157 2.49989 2 2.49989H10C10.8284 2.49989 11.5 3.17146 11.5 3.99989V5.49989H0.5V3.99989Z" fill="#18202A"/>
<path fill-rule="evenodd" clip-rule="evenodd" d="M5.82364 1.13079C6.20111 1.70307 6.40358 2.46818 6.49029 2.90175L6.56519 3.27623L6.22361 3.44702C5.0278 4.04492 3.92843 3.71241 3.35142 2.99256C3.07159 2.64346 2.91382 2.19673 2.96206 1.74322C3.01183 1.27525 3.27652 0.850772 3.74277 0.57105C4.16038 0.320512 4.59023 0.260206 4.99169 0.410478C5.36536 0.550349 5.63431 0.843749 5.82364 1.13079ZM4.64113 1.34702C4.57643 1.3228 4.46462 1.30414 4.25723 1.42857C4.04556 1.55556 3.97129 1.70943 3.95645 1.84898C3.94007 2.00297 3.99204 2.1929 4.13169 2.36712C4.35239 2.64244 4.7978 2.8709 5.41353 2.6956C5.31846 2.35277 5.17728 1.96705 4.98887 1.68139C4.85528 1.47885 4.7336 1.38163 4.64113 1.34702Z" fill="#18202A"/>
<path fill-rule="evenodd" clip-rule="evenodd" d="M6.17636 1.13079C5.79889 1.70307 5.59642 2.46818 5.50971 2.90175L5.43481 3.27623L5.77639 3.44702C6.9722 4.04492 8.07157 3.71241 8.64858 2.99256C8.92841 2.64346 9.08618 2.19673 9.03794 1.74322C8.98817 1.27525 8.72348 0.850772 8.25723 0.57105C7.83962 0.320512 7.40977 0.260206 7.00831 0.410478C6.63464 0.550349 6.36569 0.843749 6.17636 1.13079ZM7.35887 1.34702C7.42357 1.3228 7.53538 1.30414 7.74277 1.42857C7.95444 1.55556 8.02871 1.70943 8.04355 1.84898C8.05993 2.00297 8.00796 2.1929 7.86831 2.36712C7.64761 2.64244 7.2022 2.8709 6.58647 2.6956C6.68154 2.35277 6.82272 1.96705 7.01113 1.68139C7.14472 1.47885 7.2664 1.38163 7.35887 1.34702Z" fill="#18202A"/>
<path d="M1 6.49989H5.5V11.4999H2.5C1.67157 11.4999 1 10.8283 1 9.99989V6.49989Z" fill="#18202A"/>
<path d="M6.5 6.49989H11V9.99989C11 10.8283 10.3284 11.4999 9.5 11.4999H6.5V6.49989Z" fill="#18202A"/>
</g>
<defs>
<clipPath id="clip0_2266_37071">
<rect width="12" height="12" fill="white"/>
</clipPath>
</defs>
</svg>
