<svg width="12" height="12" viewBox="0 0 12 12" fill="none" xmlns="http://www.w3.org/2000/svg">
<path fill-rule="evenodd" clip-rule="evenodd" d="M1.32204 1.25H0V0.5H1.32204C1.69328 0.5 2.04777 0.654483 2.30051 0.926403C2.36917 1.00027 2.42422 1.0857 2.46313 1.17875L2.59748 1.5H10.2568C10.88 1.5 11.3034 2.13284 11.0657 2.70883L9.72427 5.95883C9.5891 6.28633 9.26976 6.5 8.91545 6.5H4.00312L3.28579 7.29103C3.21294 7.37136 3.26994 7.5 3.37839 7.5H9.21482C9.54917 7.5 9.8614 7.6671 10.0469 7.9453L10.25 8.25H3.37839C2.61928 8.25 2.22028 7.34954 2.73021 6.78721L3.40926 6.0384L1.99759 2.00946L1.7712 1.4681C1.7664 1.45664 1.75962 1.44611 1.75116 1.437C1.64032 1.31775 1.48485 1.25 1.32204 1.25ZM5 10C5 10.5667 4.56667 11 4 11C3.43333 11 3 10.5667 3 10C3 9.43333 3.43333 9 4 9C4.56667 9 5 9.43333 5 10ZM9.5 10C9.5 10.5667 9.06667 11 8.5 11C7.93333 11 7.5 10.5667 7.5 10C7.5 9.43333 7.93333 9 8.5 9C9.06667 9 9.5 9.43333 9.5 10Z" fill="#18202A"/>
</svg>
