<svg width="12" height="12" viewBox="0 0 12 12" fill="none" xmlns="http://www.w3.org/2000/svg">
<path fill-rule="evenodd" clip-rule="evenodd" d="M9.76517 2.23483C9.91161 2.38128 9.91161 2.61872 9.76517 2.76517L2.76517 9.76517C2.61872 9.91161 2.38128 9.91161 2.23483 9.76517C2.08839 9.61872 2.08839 9.38128 2.23483 9.23484L9.23484 2.23483C9.38128 2.08839 9.61872 2.08839 9.76517 2.23483Z" fill="#18202A"/>
<path fill-rule="evenodd" clip-rule="evenodd" d="M2.23483 2.23483C2.38128 2.08839 2.61872 2.08839 2.76517 2.23483L9.76517 9.23484C9.91161 9.38128 9.91161 9.61872 9.76517 9.76517C9.61872 9.91161 9.38128 9.91161 9.23484 9.76517L2.23483 2.76517C2.08839 2.61872 2.08839 2.38128 2.23483 2.23483Z" fill="#18202A"/>
</svg>
