<svg width="12" height="12" viewBox="0 0 12 12" fill="none" xmlns="http://www.w3.org/2000/svg">
<path d="M4.01408 1.2696L4.11405 1.27206C4.37911 1.28903 4.63052 1.38851 4.83422 1.55759C5.0634 1.74781 5.21713 2.0136 5.26771 2.30706C5.28248 2.42191 5.304 2.5443 5.33029 2.66C5.38316 2.89304 5.45145 3.12245 5.53471 3.34664C5.59743 3.51902 5.59414 3.71025 5.52491 3.88196C5.45569 4.05365 5.32541 4.19366 5.15914 4.27506L4.9204 4.43159L4.72847 4.55954L4.8406 4.76112L4.94953 4.94928C5.21107 5.38369 5.52397 5.78542 5.88165 6.14574C6.29466 6.55573 6.76052 6.90599 7.26753 7.18808L7.49789 7.31624L7.72367 6.85441L7.76205 6.78548C7.84567 6.6523 7.96956 6.54811 8.11672 6.48877C8.28845 6.41954 8.47966 6.41625 8.65359 6.47954C8.87514 6.56342 9.10563 6.63203 9.34026 6.68375L9.48081 6.71724L9.58694 6.73788C9.63636 6.74559 9.68252 6.74961 9.72907 6.74961C9.96989 6.79678 10.2283 6.94516 10.4159 7.1655C10.6036 7.3859 10.709 7.66461 10.7141 7.95401V9.44961L10.7101 9.55597C10.6988 9.69708 10.6638 9.83494 10.6064 9.96423C10.5345 10.1258 10.4292 10.2704 10.2974 10.3883C10.0683 10.5923 9.77168 10.7051 9.46445 10.7046H9.27408L9.05918 10.6752C7.12917 10.3878 5.3138 9.47816 3.90936 8.07881C2.4529 6.62763 1.52144 4.73262 1.26208 2.69306C1.23718 2.51253 1.25125 2.33143 1.30298 2.15947C1.3547 1.9875 1.44287 1.8287 1.5615 1.69387C1.68011 1.55904 1.82638 1.45136 1.99036 1.37814C2.15434 1.30492 2.33216 1.2679 2.51173 1.26959L4.01408 1.2696Z" fill="#18202A"/>
<path fill-rule="evenodd" clip-rule="evenodd" d="M10.0834 4.7424C10.0834 5.01854 9.85957 5.2424 9.58343 5.2424L7.25501 5.2424C6.97886 5.2424 6.755 5.01854 6.755 4.7424V2.41397C6.755 2.13783 6.97886 1.91397 7.25501 1.91397C7.53115 1.91397 7.75501 2.13783 7.75501 2.41397V3.53529L9.64409 1.6462C9.83936 1.45094 10.1559 1.45094 10.3512 1.6462C10.5465 1.84146 10.5465 2.15805 10.3512 2.35331L8.46211 4.2424H9.58343C9.85957 4.2424 10.0834 4.46625 10.0834 4.7424Z" fill="#18202A"/>
</svg>
