<svg width="12" height="12" viewBox="0 0 12 12" fill="none" xmlns="http://www.w3.org/2000/svg">
<g clip-path="url(#clip0_2266_38808)">
<path fill-rule="evenodd" clip-rule="evenodd" d="M5.19801 0.937384C5.16585 0.732789 5.30563 0.539538 5.51194 0.521381C5.67281 0.507223 5.8356 0.5 6 0.5C9.03757 0.5 11.5 2.96243 11.5 6C11.5 6.1644 11.4928 6.32719 11.4786 6.48806C11.4605 6.69437 11.2672 6.83415 11.0626 6.80199C10.858 6.76984 10.7198 6.5779 10.7357 6.37141C10.7452 6.24891 10.75 6.12505 10.75 6C10.75 3.37665 8.62335 1.25 6 1.25C5.87495 1.25 5.75109 1.25482 5.62859 1.26429C5.4221 1.28024 5.23016 1.14198 5.19801 0.937384ZM2.77466 2.01697C2.64423 1.85609 2.66822 1.61879 2.83758 1.49958C3.10303 1.31272 3.38584 1.14871 3.68313 1.01045C3.87092 0.923112 4.08851 1.02081 4.16278 1.21414C4.23704 1.40748 4.13972 1.62306 3.95289 1.71244C3.72873 1.81968 3.51423 1.94401 3.3111 2.08377C3.14048 2.20116 2.9051 2.17784 2.77466 2.01697ZM1.21415 4.16278C1.02081 4.08851 0.923112 3.87092 1.01045 3.68313C1.14871 3.38584 1.31272 3.10303 1.49958 2.83758C1.61879 2.66822 1.85609 2.64423 2.01697 2.77466C2.17784 2.9051 2.20116 3.14048 2.08377 3.3111C1.94401 3.51423 1.81968 3.72873 1.71244 3.95289C1.62307 4.13972 1.40748 4.23704 1.21415 4.16278ZM0.5 6C0.5 5.8356 0.507223 5.67281 0.521382 5.51194C0.539539 5.30563 0.732789 5.16585 0.937384 5.19801C1.14198 5.23016 1.28024 5.4221 1.26429 5.62859C1.25482 5.75109 1.25 5.87495 1.25 6C1.25 6.12505 1.25482 6.24891 1.26429 6.37141C1.28024 6.5779 1.14198 6.76984 0.937384 6.80199C0.732789 6.83415 0.539538 6.69437 0.521381 6.48806C0.507223 6.32719 0.5 6.1644 0.5 6ZM2.01697 9.22534C1.85609 9.35577 1.61879 9.33178 1.49958 9.16242C1.31272 8.89697 1.14871 8.61416 1.01045 8.31687C0.923112 8.12908 1.02081 7.91149 1.21414 7.83722C1.40748 7.76296 1.62306 7.86028 1.71244 8.0471C1.81968 8.27127 1.94401 8.48577 2.08377 8.6889C2.20116 8.85952 2.17784 9.0949 2.01697 9.22534ZM10.7859 7.83722C10.9792 7.91149 11.0769 8.12908 10.9896 8.31687C10.8513 8.61416 10.6873 8.89697 10.5004 9.16242C10.3812 9.33178 10.1439 9.35577 9.98303 9.22534C9.82216 9.0949 9.79884 8.85953 9.91623 8.6889C10.056 8.48577 10.1803 8.27127 10.2876 8.04711C10.3769 7.86028 10.5925 7.76296 10.7859 7.83722ZM4.16278 10.7859C4.08851 10.9792 3.87092 11.0769 3.68313 10.9896C3.38584 10.8513 3.10303 10.6873 2.83758 10.5004C2.66822 10.3812 2.64423 10.1439 2.77466 9.98303C2.9051 9.82216 3.14047 9.79884 3.3111 9.91623C3.51423 10.056 3.72873 10.1803 3.95289 10.2876C4.13972 10.3769 4.23704 10.5925 4.16278 10.7859ZM9.22534 9.98303C9.35577 10.1439 9.33178 10.3812 9.16242 10.5004C8.89697 10.6873 8.61416 10.8513 8.31687 10.9896C8.12908 11.0769 7.91149 10.9792 7.83722 10.7859C7.76296 10.5925 7.86028 10.3769 8.04711 10.2876C8.27127 10.1803 8.48577 10.056 8.6889 9.91623C8.85952 9.79884 9.0949 9.82216 9.22534 9.98303ZM6 11.5C5.8356 11.5 5.67281 11.4928 5.51194 11.4786C5.30563 11.4605 5.16585 11.2672 5.19801 11.0626C5.23016 10.858 5.4221 10.7198 5.62859 10.7357C5.75109 10.7452 5.87495 10.75 6 10.75C6.12505 10.75 6.24891 10.7452 6.37141 10.7357C6.5779 10.7198 6.76984 10.858 6.80199 11.0626C6.83415 11.2672 6.69437 11.4605 6.48806 11.4786C6.32719 11.4928 6.1644 11.5 6 11.5ZM10 6C10 8.20914 8.20914 10 6 10C3.79086 10 2 8.20914 2 6C2 3.79086 3.79086 2 6 2C8.20914 2 10 3.79086 10 6ZM5.5 4.25C5.5 4.66421 5.16421 5 4.75 5C4.33579 5 4 4.66421 4 4.25C4 3.83579 4.33579 3.5 4.75 3.5C5.16421 3.5 5.5 3.83579 5.5 4.25ZM6 9.25C7.64764 9.25 9.00892 8.02391 9.22122 6.43436L7.5 5L5.75 7L4.5 6.25L3.10222 7.47306C3.63938 8.52766 4.73534 9.25 6 9.25Z" fill="#18202A"/>
</g>
<defs>
<clipPath id="clip0_2266_38808">
<rect width="12" height="12" fill="white"/>
</clipPath>
</defs>
</svg>
