<svg width="12" height="12" viewBox="0 0 12 12" fill="none" xmlns="http://www.w3.org/2000/svg">
<path d="M2.90909 0.5C1.85473 0.5 1 1.39626 1 2.50186V3.5H4C4 3.11612 4.14645 2.73223 4.43934 2.43934C5.02513 1.85355 5.97487 1.85355 6.56066 2.43934L8.06066 3.93934C8.64645 4.52513 8.64645 5.47487 8.06066 6.06066L6.56066 7.56066C5.97487 8.14645 5.02513 8.14645 4.43934 7.56066C4.14645 7.26777 4 6.88388 4 6.5H1V7.00604C1 8.11163 1.85473 9.00789 2.90909 9.00789H3.16942L2.89269 10.3957C2.80767 10.8221 3.24672 11.1509 3.60378 10.9283L6.68388 9.00789H9.59091C10.6453 9.00789 11.5 8.11163 11.5 7.00604V2.50186C11.5 1.39626 10.6453 0.5 9.59091 0.5H2.90909Z" fill="#18202A"/>
<path d="M5.14645 3.14645C5.34171 2.95118 5.65829 2.95118 5.85355 3.14645L7.35355 4.64645C7.54882 4.84171 7.54882 5.15829 7.35355 5.35355L5.85355 6.85355C5.65829 7.04881 5.34171 7.04881 5.14645 6.85355C4.95118 6.65829 4.95118 6.34171 5.14645 6.14645L5.79289 5.5H0.5C0.223858 5.5 0 5.27614 0 5C0 4.72386 0.223858 4.5 0.5 4.5H5.79289L5.14645 3.85355C4.95118 3.65829 4.95118 3.34171 5.14645 3.14645Z" fill="#18202A"/>
</svg>
