<svg width="12" height="12" viewBox="0 0 12 12" fill="none" xmlns="http://www.w3.org/2000/svg">
<path fill-rule="evenodd" clip-rule="evenodd" d="M2 0.5C1.72386 0.5 1.5 0.723858 1.5 1C1.5 1.27614 1.72386 1.5 2 1.5H2.25884C2.25298 1.59572 2.25 1.69227 2.25 1.78954C2.25 3.4128 3.08174 4.84874 4.33781 5.54184C4.5054 5.63432 4.57143 5.76638 4.57143 5.85968V6.14048C4.57143 6.23379 4.5054 6.36585 4.33781 6.45832C3.08174 7.15143 2.25 8.58736 2.25 10.2106C2.25 10.285 2.25174 10.3589 2.25517 10.4323C2.25199 10.4544 2.25024 10.477 2.25002 10.5H2C1.72386 10.5 1.5 10.7239 1.5 11C1.5 11.2761 1.72386 11.5 2 11.5H10C10.2761 11.5 10.5 11.2761 10.5 11C10.5 10.7239 10.2761 10.5 10 10.5H9.74998C9.74976 10.477 9.74801 10.4544 9.74483 10.4323C9.74826 10.3589 9.75 10.2849 9.75 10.2106C9.75 8.58736 8.91826 7.15143 7.66219 6.45832C7.4946 6.36585 7.42857 6.23379 7.42857 6.14048V5.85968C7.42857 5.76638 7.4946 5.63432 7.66219 5.54184C8.91826 4.84874 9.75 3.4128 9.75 1.78954C9.75 1.69227 9.74702 1.59572 9.74116 1.5H10C10.2761 1.5 10.5 1.27614 10.5 1C10.5 0.723858 10.2761 0.5 10 0.5H2ZM3.25 1.78954C3.25 1.69185 3.2538 1.59528 3.26122 1.5H8.73878C8.7462 1.59528 8.75 1.69185 8.75 1.78954C8.75 3.0808 8.08903 4.16417 7.17906 4.6663C6.78311 4.88478 6.42857 5.30935 6.42857 5.85968V6.14048C6.42857 6.69082 6.78311 7.11539 7.17906 7.33387C8.08903 7.836 8.75 8.91937 8.75 10.2106C8.75 10.2951 8.74716 10.3788 8.74159 10.4614C8.74072 10.4744 8.74034 10.4872 8.74045 10.5H3.25955C3.25966 10.4872 3.25928 10.4743 3.25841 10.4614C3.25284 10.3787 3.25 10.2951 3.25 10.2106C3.25 8.91937 3.91097 7.836 4.82094 7.33387C5.21689 7.11538 5.57143 6.69082 5.57143 6.14048V5.85968C5.57143 5.30935 5.21689 4.88478 4.82094 4.6663C3.91097 4.16417 3.25 3.0808 3.25 1.78954Z" fill="#18202A"/>
</svg>
