<svg width="12" height="12" viewBox="0 0 12 12" fill="none" xmlns="http://www.w3.org/2000/svg">
<path fill-rule="evenodd" clip-rule="evenodd" d="M0.5 3C0.5 1.89543 1.39543 1 2.5 1H9.5C10.6046 1 11.5 1.89543 11.5 3V9C11.5 10.1046 10.6046 11 9.5 11H2.5C1.39543 11 0.5 10.1046 0.5 9V3ZM4.5 1.75H7.5V5.625L4.5 5.625V1.75ZM3.75 5.625V1.75H2.5C1.80964 1.75 1.25 2.30964 1.25 3V5.625H3.75ZM1.25 6.375H3.75V10.25H2.5C1.80964 10.25 1.25 9.69036 1.25 9V6.375ZM4.5 6.375L7.5 6.375V10.25H4.5V6.375ZM8.25 6.375V10.25H9.5C10.1904 10.25 10.75 9.69036 10.75 9V6.375H8.25ZM10.75 5.625V3C10.75 2.30964 10.1904 1.75 9.5 1.75H8.25V5.625H10.75Z" fill="#18202A"/>
</svg>
