<svg width="12" height="12" viewBox="0 0 12 12" fill="none" xmlns="http://www.w3.org/2000/svg">
<g clip-path="url(#clip0_3916_8796)">
<path d="M8.39016 6.6553C8.46049 6.58498 8.5 6.48959 8.5 6.39014C8.5 6.29068 8.46049 6.1953 8.39016 6.12497L7.01516 4.74997C6.86872 4.60353 6.63128 4.60353 6.48483 4.74997C6.33839 4.89642 6.33839 5.13386 6.48483 5.2803L7.20445 5.99992L3.875 5.99991C3.66789 5.99991 3.5 6.16781 3.5 6.37491C3.5 6.58202 3.66789 6.74991 3.875 6.74991L7.23489 6.74992L6.48483 7.49997C6.33839 7.64642 6.33839 7.88385 6.48483 8.0303C6.63128 8.17675 6.86872 8.17675 7.01516 8.0303L8.39016 6.6553Z" fill="#18202A"/>
<path fill-rule="evenodd" clip-rule="evenodd" d="M2.5 1.5C1.39543 1.5 0.5 2.39543 0.5 3.5V8.5C0.5 9.60457 1.39543 10.5 2.5 10.5H9.5C10.6046 10.5 11.5 9.60457 11.5 8.5V4.5C11.5 3.39543 10.6046 2.5 9.5 2.5H6L5.43934 1.93934C5.15804 1.65804 4.7765 1.5 4.37868 1.5H2.5ZM5.68934 3.25L4.90901 2.46967C4.76836 2.32902 4.57759 2.25 4.37868 2.25H2.5C1.80964 2.25 1.25 2.80964 1.25 3.5V8.5C1.25 9.19036 1.80964 9.75 2.5 9.75H9.5C10.1904 9.75 10.75 9.19036 10.75 8.5V4.5C10.75 3.80964 10.1904 3.25 9.5 3.25H5.68934Z" fill="#18202A"/>
</g>
<defs>
<clipPath id="clip0_3916_8796">
<rect width="12" height="12" fill="white"/>
</clipPath>
</defs>
</svg>
