<svg width="12" height="12" viewBox="0 0 12 12" fill="none" xmlns="http://www.w3.org/2000/svg">
<path d="M6.62829 2.125C7.31683 2.125 7.875 2.68317 7.875 3.37171C7.875 3.87852 7.56871 4.33162 7.10581 4.52336L7.02253 4.55444L6.86859 4.60576C6.59649 4.69645 6.40616 4.93847 6.37848 5.21955L6.375 5.29057V5.5C6.375 5.70711 6.20711 5.875 6 5.875C5.81015 5.875 5.65325 5.73392 5.62842 5.55089L5.625 5.5V5.29057C5.625 4.68871 5.99087 4.15101 6.54276 3.92697L6.63142 3.89424L6.78536 3.84293C6.98819 3.77532 7.125 3.58551 7.125 3.37171C7.125 3.11698 6.93325 2.90703 6.68622 2.87834L6.62829 2.875H5.20711C5.02369 2.875 4.875 3.02369 4.875 3.20711C4.875 3.27757 4.89739 3.34573 4.93824 3.40206L4.97227 3.44194L5.01516 3.48483C5.16161 3.63128 5.16161 3.86872 5.01516 4.01517C4.88203 4.1483 4.6737 4.1604 4.52689 4.05147L4.48483 4.01517L4.44194 3.97227C4.23901 3.76934 4.125 3.4941 4.125 3.20711C4.125 2.63546 4.56827 2.16734 5.12983 2.12772L5.20711 2.125H6.62829Z" fill="#18202A"/>
<path d="M6.5 7C6.5 6.72386 6.27614 6.5 6 6.5C5.72386 6.5 5.5 6.72386 5.5 7C5.5 7.27614 5.72386 7.5 6 7.5C6.27614 7.5 6.5 7.27614 6.5 7Z" fill="#18202A"/>
<path fill-rule="evenodd" clip-rule="evenodd" d="M9.5 9H6.45455L3.22777 10.9186C2.8537 11.141 2.39375 10.8125 2.48282 10.3865L2.77273 9H2.5C2.33407 9 2.17286 8.97979 2.0187 8.94171C1.14661 8.72626 0.5 7.93864 0.5 7V2.5C0.5 1.39543 1.39543 0.5 2.5 0.5H9.5C10.6046 0.5 11.5 1.39543 11.5 2.5V7C11.5 8.10457 10.6046 9 9.5 9ZM6.45455 8.25C6.31963 8.25 6.18721 8.28639 6.07124 8.35535L3.33335 9.98328L3.50685 9.1535C3.55307 8.93244 3.49722 8.70232 3.3548 8.52704C3.21239 8.35177 2.99857 8.25 2.77273 8.25H2.5C1.80964 8.25 1.25 7.69036 1.25 7V2.5C1.25 1.80964 1.80964 1.25 2.5 1.25H9.5C10.1904 1.25 10.75 1.80964 10.75 2.5V7C10.75 7.69036 10.1904 8.25 9.5 8.25H6.45455Z" fill="#18202A"/>
</svg>
