<svg width="12" height="12" viewBox="0 0 12 12" fill="none" xmlns="http://www.w3.org/2000/svg">
<path d="M2.5 1.5C1.67157 1.5 1 2.17157 1 3V3.5C1 4.32843 1.67157 5 2.5 5H3C3.82843 5 4.5 4.32843 4.5 3.5V3C4.5 2.85701 4.47999 2.7187 4.44263 2.5877L3.01517 4.01517C2.86872 4.16161 2.63128 4.16161 2.48483 4.01517L1.73483 3.26517C1.58839 3.11872 1.58839 2.88128 1.73483 2.73483C1.88128 2.58839 2.11872 2.58839 2.26517 2.73483L2.75 3.21967L4.04539 1.92428C3.77523 1.6617 3.4065 1.5 3 1.5H2.5Z" fill="#18202A"/>
<path d="M4.04539 7.42428C3.77523 7.1617 3.4065 7 3 7H2.5C1.67157 7 1 7.67157 1 8.5V9C1 9.82843 1.67157 10.5 2.5 10.5H3C3.82843 10.5 4.5 9.82843 4.5 9V8.5C4.5 8.35701 4.47999 8.2187 4.44263 8.0877L3.01517 9.51517C2.86872 9.66161 2.63128 9.66161 2.48483 9.51517L1.73483 8.76517C1.58839 8.61872 1.58839 8.38128 1.73483 8.23483C1.88128 8.08839 2.11872 8.08839 2.26517 8.23483L2.75 8.71967L4.04539 7.42428Z" fill="#18202A"/>
<path d="M6 2C5.72386 2 5.5 2.22386 5.5 2.5C5.5 2.77614 5.72386 3 6 3H10.5C10.7761 3 11 2.77614 11 2.5C11 2.22386 10.7761 2 10.5 2H6Z" fill="#18202A"/>
<path d="M5.5 4C5.5 3.72386 5.72386 3.5 6 3.5H10.5C10.7761 3.5 11 3.72386 11 4C11 4.27614 10.7761 4.5 10.5 4.5H6C5.72386 4.5 5.5 4.27614 5.5 4Z" fill="#18202A"/>
<path d="M6 7.5C5.72386 7.5 5.5 7.72386 5.5 8C5.5 8.27614 5.72386 8.5 6 8.5H10.5C10.7761 8.5 11 8.27614 11 8C11 7.72386 10.7761 7.5 10.5 7.5H6Z" fill="#18202A"/>
<path d="M5.5 9.5C5.5 9.22386 5.72386 9 6 9H10.5C10.7761 9 11 9.22386 11 9.5C11 9.77614 10.7761 10 10.5 10H6C5.72386 10 5.5 9.77614 5.5 9.5Z" fill="#18202A"/>
</svg>
