<svg width="12" height="12" viewBox="0 0 12 12" fill="none" xmlns="http://www.w3.org/2000/svg">
<path fill-rule="evenodd" clip-rule="evenodd" d="M6 5.5C7.33333 5.5 8 4.25 8 2.6875C8 1.4375 7.33333 0.5 6 0.5C4.66667 0.5 4 1.4375 4 2.6875C4 4.25 4.66667 5.5 6 5.5ZM6.00002 6.5C6.48638 6.5 6.95651 6.56944 7.40106 6.69895C6.55034 7.33744 6 8.35445 6 9.5C6 10.2347 6.22635 10.9165 6.61312 11.4794C6.41051 11.4931 6.20607 11.5 6.00001 11.5C5.22631 11.5 4.47541 11.4024 3.75897 11.2188C3.14945 11.0626 2.63285 10.6543 2.34993 10.0922L2.32658 10.0455C1.93547 9.25568 2.06847 8.28806 2.73583 7.7124C3.61173 6.95686 4.75252 6.5 6.00002 6.5ZM12 9.5C12 10.8807 10.8807 12 9.5 12C8.11929 12 7 10.8807 7 9.5C7 8.11929 8.11929 7 9.5 7C10.8807 7 12 8.11929 12 9.5ZM9.47837 10.2716C9.43754 10.3125 9.38995 10.3459 9.33771 10.3705L8.4655 10.7809C8.30042 10.8586 8.12605 10.6928 8.19531 10.5241L8.5746 9.59977C8.60229 9.53228 8.64442 9.47167 8.69802 9.42219L10.0326 8.19024C10.2298 8.00821 10.5355 8.01432 10.7253 8.20408L10.7821 8.26083C10.9773 8.4561 10.9773 8.77268 10.7821 8.96794L9.47837 10.2716Z" fill="#18202A"/>
</svg>
