<svg width="12" height="12" viewBox="0 0 12 12" fill="none" xmlns="http://www.w3.org/2000/svg">
<g clip-path="url(#clip0_2266_35509)">
<path fill-rule="evenodd" clip-rule="evenodd" d="M11.4462 6.59054C11.4818 6.34602 11.5 6.09712 11.5 5.84545C11.5 2.6 9.03986 0.5 6.00511 0.5C2.97037 0.5 0.314005 2.98182 0.510226 5.84545C0.510226 7.5566 1.19411 8.89625 2.28552 9.78048L2.39058 11.0411C2.4194 11.387 2.78324 11.599 3.09838 11.4536L4.46133 10.8245C4.95108 10.9404 5.46914 11 6.00512 11C6.11574 11 6.22508 10.9973 6.33308 10.9921C6.11945 10.5395 6 10.0337 6 9.5C6 8.15369 6.76015 6.98492 7.87467 6.39947C7.65068 6.26975 7.5 6.02747 7.5 5.75C7.5 5.33579 7.83579 5 8.25 5C8.66421 5 9 5.33579 9 5.75C9 5.85457 8.9786 5.95414 8.93994 6.04457C9.1223 6.01524 9.30937 6 9.5 6C10.2203 6 10.8897 6.21756 11.4462 6.59054ZM3.75 6.5C4.16421 6.5 4.5 6.16421 4.5 5.75C4.5 5.33579 4.16421 5 3.75 5C3.33579 5 3 5.33579 3 5.75C3 6.16421 3.33579 6.5 3.75 6.5ZM6.75 5.75C6.75 6.16421 6.41421 6.5 6 6.5C5.58579 6.5 5.25 6.16421 5.25 5.75C5.25 5.33579 5.58579 5 6 5C6.41421 5 6.75 5.33579 6.75 5.75Z" fill="#18202A"/>
<path fill-rule="evenodd" clip-rule="evenodd" d="M9.5 12C10.8807 12 12 10.8807 12 9.5C12 8.11929 10.8807 7 9.5 7C8.11929 7 7 8.11929 7 9.5C7 10.8807 8.11929 12 9.5 12ZM11.0347 8.99405C11.1695 8.8368 11.1513 8.60006 10.994 8.46528C10.8368 8.33049 10.6001 8.34871 10.4653 8.50595L9.19392 9.98919L8.47499 9.45C8.30931 9.32574 8.07426 9.35931 7.94999 9.525C7.82573 9.69069 7.85931 9.92574 8.02499 10.05L9.02499 10.8C9.1831 10.9186 9.4061 10.8941 9.53471 10.744L11.0347 8.99405Z" fill="#18202A"/>
</g>
<defs>
<clipPath id="clip0_2266_35509">
<rect width="12" height="12" fill="white"/>
</clipPath>
</defs>
</svg>
