<svg width="12" height="12" viewBox="0 0 12 12" fill="none" xmlns="http://www.w3.org/2000/svg">
<path fill-rule="evenodd" clip-rule="evenodd" d="M6 1C4.89543 1 4 1.89543 4 3V5.5C4 6.60457 4.89543 7.5 6 7.5C7.10457 7.5 8 6.60457 8 5.5V3C8 1.89543 7.10457 1 6 1ZM6 6.75C6.69036 6.75 7.25 6.19036 7.25 5.5V3C7.25 2.30964 6.69036 1.75 6 1.75C5.30964 1.75 4.75 2.30964 4.75 3V5.5C4.75 6.19036 5.30964 6.75 6 6.75Z" fill="#18202A"/>
<path d="M2.85711 5.5C2.65001 5.5 2.48 5.66847 2.5019 5.87441C2.67628 7.51411 3.98294 8.8156 5.625 8.98201V10.25H4.125C3.91789 10.25 3.75 10.4179 3.75 10.625C3.75 10.8321 3.91789 11 4.125 11H7.875C8.08211 11 8.25 10.8321 8.25 10.625C8.25 10.4179 8.08211 10.25 7.875 10.25H6.375V8.97819C8.00024 8.79665 9.28921 7.50218 9.46232 5.87441C9.48422 5.66846 9.31422 5.5 9.10711 5.5C8.90001 5.5 8.7348 5.66882 8.70689 5.87404C8.52441 7.21589 7.37403 8.25 5.98211 8.25C4.5902 8.25 3.43982 7.21589 3.25734 5.87404C3.22943 5.66882 3.06422 5.5 2.85711 5.5Z" fill="#18202A"/>
</svg>
