<svg width="12" height="12" viewBox="0 0 12 12" fill="none" xmlns="http://www.w3.org/2000/svg">
<path d="M5.99995 6C6.99995 6 7.49995 5 7.49995 3.75C7.49995 2.75 6.99995 2 5.99995 2C4.99995 2 4.49995 2.75 4.49995 3.75C4.49995 5 4.99995 6 5.99995 6Z" fill="#18202A"/>
<path d="M6.33387 10.9939C6.11971 10.5408 5.99994 10.0344 5.99994 9.5C5.99994 8.36421 6.54095 7.35478 7.37932 6.71535C6.94464 6.57552 6.48111 6.5 5.99995 6.5C5.1079 6.5 4.27647 6.75956 3.57707 7.20729C2.9222 7.6265 2.70309 8.46185 2.96489 9.19401C3.04145 9.40813 3.12688 9.61804 3.22074 9.82328C3.48671 10.4049 4.03281 10.8077 4.66544 10.9017C5.10088 10.9665 5.5465 11 5.99995 11C6.11175 11 6.22306 10.998 6.33387 10.9939Z" fill="#18202A"/>
<path d="M2.49995 6C3.16662 6 3.49995 5.375 3.49995 4.59375C3.49995 3.96875 3.16662 3.5 2.49995 3.5C1.83329 3.5 1.49995 3.96875 1.49995 4.59375C1.49995 5.375 1.83329 6 2.49995 6Z" fill="#18202A"/>
<path d="M9.49995 6C10.1666 6 10.5 5.375 10.5 4.59375C10.5 3.96875 10.1666 3.5 9.49995 3.5C8.83329 3.5 8.49995 3.96875 8.49995 4.59375C8.49995 5.375 8.83329 6 9.49995 6Z" fill="#18202A"/>
<path d="M2.02328 9.53081C1.72953 8.70929 1.82295 7.74553 2.34917 7.01489C1.87184 7.05584 1.41846 7.18061 1.0038 7.37442C0.420274 7.64717 0.184812 8.33603 0.381815 8.94929C0.55418 9.48585 1.02225 9.86279 1.58157 9.93184C1.78584 9.95705 1.99223 9.97542 2.2005 9.98672C2.13745 9.83678 2.07833 9.68477 2.02328 9.53081Z" fill="#18202A"/>
<path fill-rule="evenodd" clip-rule="evenodd" d="M9.49994 12C8.11923 12 6.99994 10.8807 6.99994 9.5C6.99994 8.11929 8.11923 7 9.49994 7C10.8807 7 11.9999 8.11929 11.9999 9.5C11.9999 10.8807 10.8807 12 9.49994 12ZM9.48477 8.51517C9.33833 8.36872 9.33833 8.13128 9.48477 7.98484C9.63122 7.83839 9.86866 7.83839 10.0151 7.98484L11.2651 9.23483C11.4116 9.38128 11.4116 9.61872 11.2651 9.76517L10.0151 11.0152C9.86866 11.1616 9.63122 11.1616 9.48477 11.0152C9.33833 10.8687 9.33833 10.6313 9.48477 10.4848L10.0946 9.875H7.99994C7.79283 9.875 7.62494 9.70711 7.62494 9.5C7.62494 9.29289 7.79283 9.125 7.99994 9.125H10.0946L9.48477 8.51517Z" fill="#18202A"/>
</svg>
