<svg width="12" height="12" viewBox="0 0 12 12" fill="none" xmlns="http://www.w3.org/2000/svg">
<g clip-path="url(#clip0_3352_8866)">
<path fill-rule="evenodd" clip-rule="evenodd" d="M11 3.625C11 3.59185 10.9868 3.56005 10.9634 3.53661C10.9399 3.51317 10.9082 3.5 10.875 3.5H8.75C8.41848 3.5 8.10054 3.3683 7.86612 3.13388C7.6317 2.89946 7.5 2.58152 7.5 2.25V0.125C7.5 0.0918479 7.48683 0.0600537 7.46339 0.0366117C7.43995 0.0131696 7.40815 0 7.375 0H2C1.73478 0 1.48043 0.105357 1.29289 0.292893C1.10536 0.48043 1 0.734784 1 1V11C1 11.2652 1.10536 11.5196 1.29289 11.7071C1.48043 11.8946 1.73478 12 2 12H10C10.2652 12 10.5196 11.8946 10.7071 11.7071C10.8946 11.5196 11 11.2652 11 11V3.625ZM5.5 7.25L4 5H5L6 6.5L7 5H8L6.5 7.25L8 9.5H7L6 8L5 9.5H4L5.5 7.25Z" fill="#18202A"/>
<path d="M8.21967 2.78032C8.36032 2.92098 8.55109 2.99999 8.75 2.99999H10.7C10.7248 3.00004 10.749 2.99273 10.7696 2.979C10.7902 2.96527 10.8062 2.94573 10.8157 2.92286C10.8252 2.89999 10.8276 2.87482 10.8228 2.85055C10.818 2.82627 10.806 2.80398 10.7885 2.78649L8.2135 0.213494C8.19614 0.196083 8.17403 0.18418 8.14994 0.179273C8.12584 0.174366 8.10084 0.176673 8.07805 0.185905C8.05526 0.195138 8.0357 0.210886 8.02182 0.231179C8.00794 0.251472 8.00035 0.275409 8 0.299994V2.24999C8 2.44891 8.07902 2.63967 8.21967 2.78032Z" fill="#18202A"/>
</g>
<defs>
<clipPath id="clip0_3352_8866">
<rect width="12" height="12" fill="white"/>
</clipPath>
</defs>
</svg>
