<svg width="12" height="12" viewBox="0 0 12 12" fill="none" xmlns="http://www.w3.org/2000/svg">
<path d="M7 6C7 6.55228 6.55229 7 6 7C5.44772 7 5 6.55228 5 6C5 5.44772 5.44772 5 6 5C6.55229 5 7 5.44772 7 6Z" fill="#18202A"/>
<path fill-rule="evenodd" clip-rule="evenodd" d="M0.661195 5.50719C0.450643 5.80495 0.450642 6.19505 0.661195 6.49281C1.41735 7.56214 3.42375 10 6 10C8.57626 10 10.5827 7.56214 11.3388 6.49281C11.5494 6.19505 11.5494 5.80495 11.3388 5.50719C10.5827 4.43786 8.57626 2 6 2C3.42375 2 1.41735 4.43786 0.661195 5.50719ZM6 8C7.10457 8 8 7.10457 8 6C8 4.89543 7.10457 4 6 4C4.89544 4 4 4.89543 4 6C4 7.10457 4.89544 8 6 8Z" fill="#18202A"/>
</svg>
