<svg width="12" height="12" viewBox="0 0 12 12" fill="none" xmlns="http://www.w3.org/2000/svg">
<path fill-rule="evenodd" clip-rule="evenodd" d="M10.2071 4.20711C10.3555 4.35548 10.4524 4.54568 10.4864 4.75H10.5V5.5H10.0564C9.95342 5.51204 9.85104 5.53081 9.75 5.55632V5.5H5.5V1.25H3.5C2.80964 1.25 2.25 1.80964 2.25 2.5V9.5C2.25 10.1904 2.80964 10.75 3.5 10.75H5.52031C5.56638 11.0101 5.65599 11.264 5.78914 11.5H3.5C2.39543 11.5 1.5 10.6046 1.5 9.5V2.5C1.5 1.39543 2.39543 0.5 3.5 0.5H6.25V0.513571C6.45432 0.547584 6.64452 0.644517 6.79289 0.792893L10.2071 4.20711ZM6.25 1.31149V4.75H9.68851C9.68475 4.74569 9.68084 4.7415 9.67678 4.73744L6.26256 1.32322C6.2585 1.31916 6.25431 1.31525 6.25 1.31149ZM11.4827 6.70984C10.8481 6.07524 9.81918 6.07524 9.18458 6.70984L8.47748 7.41694C8.33103 7.56339 8.33103 7.80083 8.47748 7.94728C8.62392 8.09372 8.86136 8.09372 9.00781 7.94728L9.71491 7.24017C10.0566 6.89846 10.6106 6.89846 10.9523 7.24017C11.2941 7.58188 11.2941 8.1359 10.9523 8.4776L10.2452 9.18471C10.0988 9.33116 10.0988 9.5686 10.2452 9.71504C10.3917 9.86149 10.6291 9.86149 10.7756 9.71504L11.4827 9.00794C12.1173 8.37333 12.1173 7.34444 11.4827 6.70984ZM6.70971 11.4828C6.07511 10.8482 6.07511 9.81931 6.70971 9.18471L7.41682 8.4776C7.56326 8.33116 7.8007 8.33116 7.94715 8.4776C8.09359 8.62405 8.09359 8.86149 7.94715 9.00794L7.24004 9.71504C6.89833 10.0568 6.89833 10.6108 7.24004 10.9525C7.58175 11.2942 8.13577 11.2942 8.47748 10.9525L9.18458 10.2454C9.33103 10.0989 9.56847 10.0989 9.71491 10.2454C9.86136 10.3918 9.86136 10.6293 9.71491 10.7757L9.00781 11.4828C8.3732 12.1174 7.34431 12.1174 6.70971 11.4828ZM9.98008 8.74277L8.74264 9.98021C8.59619 10.1267 8.35876 10.1267 8.21231 9.98021C8.06586 9.83376 8.06586 9.59632 8.21231 9.44988L9.44975 8.21244C9.59619 8.06599 9.83363 8.06599 9.98008 8.21244C10.1265 8.35889 10.1265 8.59632 9.98008 8.74277Z" fill="#18202A"/>
</svg>
