<svg width="12" height="12" viewBox="0 0 12 12" fill="none" xmlns="http://www.w3.org/2000/svg">
<path fill-rule="evenodd" clip-rule="evenodd" d="M10.3536 3.14645C10.5488 3.34171 10.5488 3.65829 10.3536 3.85355L5.85355 8.35355C5.65829 8.54882 5.34171 8.54882 5.14645 8.35355L3.5 6.70711L1.85355 8.35355C1.65829 8.54882 1.34171 8.54882 1.14645 8.35355C0.951184 8.15829 0.951184 7.84171 1.14645 7.64645L3.14645 5.64645C3.34171 5.45118 3.65829 5.45118 3.85355 5.64645L5.5 7.29289L9.64645 3.14645C9.84171 2.95118 10.1583 2.95118 10.3536 3.14645Z" fill="#18202A"/>
<path fill-rule="evenodd" clip-rule="evenodd" d="M6 3.5C6 3.22386 6.22386 3 6.5 3H10C10.2761 3 10.5 3.22386 10.5 3.5V7C10.5 7.27614 10.2761 7.5 10 7.5C9.72386 7.5 9.5 7.27614 9.5 7V4H6.5C6.22386 4 6 3.77614 6 3.5Z" fill="#18202A"/>
</svg>
