<svg width="12" height="12" viewBox="0 0 12 12" fill="none" xmlns="http://www.w3.org/2000/svg">
<g clip-path="url(#clip0_2266_37159)">
<path fill-rule="evenodd" clip-rule="evenodd" d="M6 11.5C9.03757 11.5 11.5 9.03757 11.5 6C11.5 2.96243 9.03757 0.5 6 0.5C2.96243 0.5 0.5 2.96243 0.5 6C0.5 9.03757 2.96243 11.5 6 11.5ZM6.85355 3.64645C6.65829 3.45118 6.34171 3.45118 6.14645 3.64645C5.95118 3.84171 5.95118 4.15829 6.14645 4.35355L7.29289 5.5H3.5C3.22386 5.5 3 5.72386 3 6C3 6.27614 3.22386 6.5 3.5 6.5H7.29289L6.14645 7.64645C5.95118 7.84171 5.95118 8.15829 6.14645 8.35355C6.34171 8.54882 6.65829 8.54882 6.85355 8.35355L8.85355 6.35355C9.04882 6.15829 9.04882 5.84171 8.85355 5.64645L6.85355 3.64645Z" fill="#18202A"/>
</g>
<defs>
<clipPath id="clip0_2266_37159">
<rect width="12" height="12" fill="white"/>
</clipPath>
</defs>
</svg>
