<svg width="12" height="12" viewBox="0 0 12 12" fill="none" xmlns="http://www.w3.org/2000/svg">
<g clip-path="url(#clip0_3860_8803)">
<path d="M8.74948 1.50048C8.88753 1.50049 8.99944 1.6124 8.99946 1.75045L9.00003 6.89626C9.00006 7.119 8.73076 7.23057 8.57326 7.07307L7.17688 5.67669C7.07925 5.57905 6.91967 5.58009 6.8232 5.67887C4.66102 7.89262 4.43842 9.14016 4.85578 11.1057C4.90871 11.3549 4.61216 11.5173 4.44898 11.3216C1.87896 8.2389 3.06847 5.52692 4.82558 3.67886C4.92072 3.57879 4.92095 3.42076 4.82332 3.32313L3.42693 1.92678C3.26943 1.76928 3.38099 1.49998 3.60373 1.5L8.74948 1.50048Z" fill="#18202A"/>
</g>
<defs>
<clipPath id="clip0_3860_8803">
<rect width="12" height="12" fill="white"/>
</clipPath>
</defs>
</svg>
