<svg width="12" height="12" viewBox="0 0 12 12" fill="none" xmlns="http://www.w3.org/2000/svg">
<g clip-path="url(#clip0_2266_39654)">
<path fill-rule="evenodd" clip-rule="evenodd" d="M6 4.03667L5.44017 5.22315L4.14883 5.41838L5.08473 6.37329L4.86769 7.69485L6 7.07277L7.13231 7.69485L6.91525 6.37312L7.85119 5.4195L6.55973 5.22294L6 4.03667ZM5.56324 3.20475C5.73923 2.83175 6.26077 2.83175 6.43677 3.20475L7.06754 4.54159L8.46186 4.75381C8.67713 4.78658 8.80954 4.94685 8.85467 5.10116C8.89967 5.25505 8.87355 5.44854 8.73291 5.59184L7.71698 6.62697L7.95875 8.09907C7.98905 8.28359 7.91556 8.46005 7.78161 8.56811C7.64472 8.67854 7.43809 8.71857 7.25063 8.61558L6 7.9285L4.74938 8.61558C4.56191 8.71856 4.35528 8.67854 4.21839 8.56811C4.08444 8.46005 4.01095 8.28359 4.04126 8.09907L4.28305 6.62681L3.26685 5.58996C3.1263 5.44656 3.10031 5.25304 3.14544 5.09915C3.19069 4.94486 3.32326 4.78466 3.53861 4.7521L4.93257 4.54137L5.56324 3.20475Z" fill="#18202A"/>
<path fill-rule="evenodd" clip-rule="evenodd" d="M6 10.75C8.62335 10.75 10.75 8.62335 10.75 6C10.75 3.37665 8.62335 1.25 6 1.25C3.37665 1.25 1.25 3.37665 1.25 6C1.25 8.62335 3.37665 10.75 6 10.75ZM11.5 6C11.5 9.03757 9.03757 11.5 6 11.5C2.96243 11.5 0.5 9.03757 0.5 6C0.5 2.96243 2.96243 0.5 6 0.5C9.03757 0.5 11.5 2.96243 11.5 6Z" fill="#18202A"/>
</g>
<defs>
<clipPath id="clip0_2266_39654">
<rect width="12" height="12" fill="white"/>
</clipPath>
</defs>
</svg>
