<svg width="12" height="12" viewBox="0 0 12 12" fill="none" xmlns="http://www.w3.org/2000/svg">
<path d="M3 3.5C2.79289 3.5 2.625 3.66789 2.625 3.875C2.625 4.08211 2.79289 4.25 3 4.25H9C9.20711 4.25 9.375 4.08211 9.375 3.875C9.375 3.66789 9.20711 3.5 9 3.5H3Z" fill="#18202A"/>
<path d="M3 5.5C2.79289 5.5 2.625 5.66789 2.625 5.875C2.625 6.08211 2.79289 6.25 3 6.25H9C9.20711 6.25 9.375 6.08211 9.375 5.875C9.375 5.66789 9.20711 5.5 9 5.5H3Z" fill="#18202A"/>
<path d="M2.625 7.875C2.625 7.66789 2.79289 7.5 3 7.5H6C6.20711 7.5 6.375 7.66789 6.375 7.875C6.375 8.08211 6.20711 8.25 6 8.25H3C2.79289 8.25 2.625 8.08211 2.625 7.875Z" fill="#18202A"/>
<path fill-rule="evenodd" clip-rule="evenodd" d="M1 3C1 1.89543 1.89543 1 3 1H9C10.1046 1 11 1.89543 11 3V9C11 10.1046 10.1046 11 9 11H3C1.89543 11 1 10.1046 1 9V3ZM9 1.75C9.69036 1.75 10.25 2.30964 10.25 3V9C10.25 9.69036 9.69036 10.25 9 10.25H3C2.30964 10.25 1.75 9.69036 1.75 9V3C1.75 2.30964 2.30964 1.75 3 1.75H9Z" fill="#18202A"/>
</svg>
