<svg width="12" height="12" viewBox="0 0 12 12" fill="none" xmlns="http://www.w3.org/2000/svg">
<path fill-rule="evenodd" clip-rule="evenodd" d="M7.5 2.5C7.5 3.15311 7.0826 3.70873 6.5 3.91465V5.5H9.5C10.0523 5.5 10.5 5.94772 10.5 6.5V8.08535C11.0826 8.29127 11.5 8.84689 11.5 9.5C11.5 10.3284 10.8284 11 10 11C9.17157 11 8.5 10.3284 8.5 9.5C8.5 8.84689 8.9174 8.29127 9.5 8.08535V6.5H6.5V8.08535C7.0826 8.29127 7.5 8.84689 7.5 9.5C7.5 10.3284 6.82843 11 6 11C5.17157 11 4.5 10.3284 4.5 9.5C4.5 8.84689 4.9174 8.29127 5.5 8.08535V6.5H2.5V8.08535C3.0826 8.29127 3.5 8.84689 3.5 9.5C3.5 10.3284 2.82843 11 2 11C1.17157 11 0.5 10.3284 0.5 9.5C0.5 8.84689 0.917404 8.29127 1.5 8.08535V6.5C1.5 5.94772 1.94772 5.5 2.5 5.5H5.5V3.91465C4.9174 3.70873 4.5 3.15311 4.5 2.5C4.5 1.67157 5.17157 1 6 1C6.82843 1 7.5 1.67157 7.5 2.5Z" fill="#18202A"/>
</svg>
