<svg width="12" height="12" viewBox="0 0 12 12" fill="none" xmlns="http://www.w3.org/2000/svg">
<g clip-path="url(#clip0_3916_8839)">
<path fill-rule="evenodd" clip-rule="evenodd" d="M3.28722 2.06695C2.89346 1.6732 3.17236 0.99995 3.72921 1L8.87498 1.00046C9.22011 1.0005 9.49989 1.28027 9.49993 1.6254L9.50048 6.77122C9.50055 7.32807 8.82729 7.60699 8.43354 7.21323L7.12771 5.9074C6.11813 6.95152 5.59317 7.71951 5.35336 8.42593C5.11089 9.14022 5.14489 9.83607 5.34682 10.7778C5.4108 11.0761 5.26101 11.3402 5.03613 11.4613C4.80548 11.5856 4.49199 11.5592 4.2861 11.3133C2.94466 9.71114 2.55444 8.18604 2.76948 6.79575C2.97548 5.46395 3.72825 4.31321 4.59973 3.37943L3.28722 2.06695ZM8.74994 1.75045L4.03096 1.75003L5.21393 2.93297C5.45959 3.17862 5.45415 3.56944 5.22218 3.81258C4.37033 4.70542 3.69005 5.75066 3.51067 6.91039C3.35234 7.93407 3.57681 9.09596 4.50968 10.382C4.38922 9.61241 4.39546 8.91454 4.64316 8.18485C4.94452 7.29711 5.58804 6.40768 6.68053 5.2915C6.92264 5.04415 7.32186 5.04089 7.56749 5.28652L8.75045 6.46948L8.74994 1.75045Z" fill="#18202A"/>
</g>
<defs>
<clipPath id="clip0_3916_8839">
<rect width="12" height="12" fill="white"/>
</clipPath>
</defs>
</svg>
