<svg width="12" height="12" viewBox="0 0 12 12" fill="none" xmlns="http://www.w3.org/2000/svg">
<g clip-path="url(#clip0_3923_8895)">
<path d="M8.50003 1.25C9.19039 1.25 9.75003 1.80964 9.75003 2.5V9.5C9.75003 10.1904 9.19039 10.75 8.50003 10.75H4.875C4.66789 10.75 4.5 10.9179 4.5 11.125C4.5 11.3321 4.66789 11.5 4.875 11.5H8.50003C9.6046 11.5 10.5 10.6046 10.5 9.5V2.5C10.5 1.39543 9.6046 0.5 8.50003 0.5H3.50003C2.39546 0.5 1.50003 1.39543 1.50003 2.5V5.125C1.50003 5.33211 1.66792 5.5 1.87503 5.5C2.08214 5.5 2.25003 5.33211 2.25003 5.125L2.25003 2.5C2.25003 1.80964 2.80967 1.25 3.50003 1.25L8.50003 1.25Z" fill="#18202A"/>
<path d="M6 5.125C6 4.91789 6.16789 4.75 6.375 4.75H8.625C8.83211 4.75 9 4.91789 9 5.125C9 5.33211 8.83211 5.5 8.625 5.5H6.375C6.16789 5.5 6 5.33211 6 5.125Z" fill="#18202A"/>
<path d="M7 7.375C7 7.16789 7.16789 7 7.375 7H8.625C8.83211 7 9 7.16789 9 7.375C9 7.58211 8.83211 7.75 8.625 7.75H7.375C7.16789 7.75 7 7.58211 7 7.375Z" fill="#18202A"/>
<path d="M4 2.875C4 2.66789 4.16789 2.5 4.375 2.5H8.625C8.83211 2.5 9 2.66789 9 2.875C9 3.08211 8.83211 3.25 8.625 3.25H4.375C4.16789 3.25 4 3.08211 4 2.875Z" fill="#18202A"/>
<path d="M4.37548 6.50024C4.44409 6.50025 4.49971 6.55672 4.49971 6.62638L4.5 9.22307C4.50001 9.33547 4.36617 9.39176 4.2879 9.31229L3.59392 8.60764C3.5454 8.55838 3.46609 8.5589 3.41815 8.60874C2.34358 9.72585 2.23295 10.3554 2.44037 11.3472C2.46668 11.473 2.31929 11.5549 2.2382 11.4562C0.96094 9.90059 1.55211 8.53207 2.42536 7.5995C2.47264 7.549 2.47276 7.46926 2.42424 7.41999L1.73026 6.71536C1.65198 6.63588 1.70742 6.49999 1.81812 6.5L4.37548 6.50024Z" fill="#18202A"/>
</g>
<defs>
<clipPath id="clip0_3923_8895">
<rect width="12" height="12" fill="white"/>
</clipPath>
</defs>
</svg>
