<svg width="12" height="12" viewBox="0 0 12 12" fill="none" xmlns="http://www.w3.org/2000/svg">
<g clip-path="url(#clip0_2266_30470)">
<path fill-rule="evenodd" clip-rule="evenodd" d="M7.24996 0.644166C6.0411 0.362056 4.77237 0.497176 3.65005 1.02755C2.52772 1.55793 1.61782 2.45238 1.0683 3.56545C0.51877 4.67852 0.361937 5.94476 0.623297 7.15827C0.884658 8.37177 1.54884 9.46118 2.50785 10.2493C3.46686 11.0375 4.66429 11.4781 5.90544 11.4994C7.14659 11.5208 8.35847 11.1216 9.34401 10.3669C9.56325 10.199 9.60487 9.88517 9.43697 9.66593C9.26908 9.44669 8.95525 9.40507 8.73601 9.57297C7.92965 10.1905 6.93812 10.517 5.92264 10.4996C4.90715 10.4821 3.92743 10.1217 3.14279 9.47679C2.35814 8.83192 1.81472 7.94059 1.60088 6.94772C1.38704 5.95485 1.51536 4.91884 1.96497 4.00814C2.41458 3.09745 3.15905 2.36563 4.07731 1.93168C4.99558 1.49773 6.03363 1.38718 7.02269 1.618C8.01175 1.84882 8.89365 2.40743 9.52498 3.203C10.1563 3.99857 10.4999 4.98434 10.5 5.99997V6.49993C10.5 6.76515 10.3946 7.01951 10.2071 7.20704C10.0196 7.39458 9.76522 7.49993 9.50001 7.49993C9.23479 7.49993 8.98043 7.39458 8.7929 7.20704C8.60536 7.01951 8.50001 6.76515 8.50001 6.49993V3.99993C8.50001 3.72379 8.27615 3.49993 8.00001 3.49993C7.72392 3.49993 7.5001 3.7237 7.50001 3.99976C7.08217 3.68592 6.56281 3.49994 6 3.49994C4.61929 3.49994 3.5 4.61923 3.5 5.99994C3.5 7.38065 4.61929 8.49994 6 8.49994C6.74405 8.49994 7.41218 8.1749 7.87014 7.65906C7.93437 7.74937 8.0064 7.83475 8.08579 7.91415C8.46087 8.28922 8.96957 8.49993 9.50001 8.49993C10.0304 8.49993 10.5391 8.28922 10.9142 7.91415C11.2893 7.53907 11.5 7.03037 11.5 6.49993V5.9999C11.4999 4.75857 11.0799 3.55377 10.3083 2.5814C9.53668 1.60902 8.45881 0.926277 7.24996 0.644166ZM4.5 5.99994C4.5 5.17151 5.17157 4.49994 6 4.49994C6.82843 4.49994 7.5 5.17151 7.5 5.99994C7.5 6.82837 6.82843 7.49994 6 7.49994C5.17157 7.49994 4.5 6.82837 4.5 5.99994Z" fill="#18202A"/>
</g>
<defs>
<clipPath id="clip0_2266_30470">
<rect width="12" height="12" fill="white"/>
</clipPath>
</defs>
</svg>
