<svg width="12" height="12" viewBox="0 0 12 12" fill="none" xmlns="http://www.w3.org/2000/svg">
<path fill-rule="evenodd" clip-rule="evenodd" d="M11 6C11 4.89543 10.1046 4 9 4V3.5C9 1.84315 7.65685 0.5 6 0.5C4.34315 0.5 3 1.84315 3 3.5V4C1.89543 4 1 4.89543 1 6V9.5C1 10.6046 1.89543 11.5 3 11.5H9C10.1046 11.5 11 10.6046 11 9.5V6ZM6 1.5C7.10457 1.5 8 2.39543 8 3.5V4H4V3.5C4 2.39543 4.89543 1.5 6 1.5ZM6.5 7.86622C6.7989 7.69331 7 7.37014 7 7C7 6.44772 6.55228 6 6 6C5.44772 6 5 6.44772 5 7C5 7.37014 5.2011 7.69331 5.5 7.86622V9C5.5 9.27614 5.72386 9.5 6 9.5C6.27614 9.5 6.5 9.27614 6.5 9V7.86622Z" fill="#18202A"/>
</svg>
