<svg width="12" height="12" viewBox="0 0 12 12" fill="none" xmlns="http://www.w3.org/2000/svg">
<path fill-rule="evenodd" clip-rule="evenodd" d="M8.5 11C9.88071 11 11 9.88071 11 8.5C11 7.11929 9.88071 6 8.5 6C7.11929 6 6 7.11929 6 8.5C6 9.88071 7.11929 11 8.5 11ZM8.5 12C10.433 12 12 10.433 12 8.5C12 6.567 10.433 5 8.5 5C6.567 5 5 6.567 5 8.5C5 10.433 6.567 12 8.5 12Z" fill="#18202A"/>
<path fill-rule="evenodd" clip-rule="evenodd" d="M6.625 8.5C6.625 7.60254 7.35254 6.875 8.25 6.875H9.5C9.70711 6.875 9.875 7.04289 9.875 7.25C9.875 7.45711 9.70711 7.625 9.5 7.625H8.25C7.76675 7.625 7.375 8.01675 7.375 8.5C7.375 8.98325 7.76675 9.375 8.25 9.375H9.25C9.45711 9.375 9.625 9.20711 9.625 9C9.625 8.93096 9.56904 8.875 9.5 8.875H8.75C8.54289 8.875 8.375 8.70711 8.375 8.5C8.375 8.29289 8.54289 8.125 8.75 8.125H9.5C9.98325 8.125 10.375 8.51675 10.375 9C10.375 9.62132 9.87132 10.125 9.25 10.125H8.25C7.35254 10.125 6.625 9.39746 6.625 8.5Z" fill="#18202A"/>
<path fill-rule="evenodd" clip-rule="evenodd" d="M0 3C0 2.64306 0.217473 2.3826 0.426268 2.21805C0.6407 2.04906 0.920002 1.91874 1.22057 1.81855C1.82692 1.61643 2.63279 1.5 3.5 1.5C4.36721 1.5 5.17308 1.61643 5.77943 1.81855C6.08 1.91874 6.3593 2.04906 6.57373 2.21805C6.78253 2.3826 7 2.64306 7 3V5.33682C6.16302 5.73442 5.50889 6.45443 5.19809 7.33636C4.69523 7.44184 4.11294 7.5 3.5 7.5C2.63279 7.5 1.82692 7.38357 1.22057 7.18145C1.14549 7.15642 1.07174 7.12952 1 7.1006V7.45617C1.00887 7.46561 1.02313 7.47911 1.04524 7.49654C1.13443 7.56682 1.29446 7.65199 1.53679 7.73277C2.01623 7.89258 2.71036 8 3.5 8C4.09058 8 4.62774 7.93991 5.06161 7.84275C5.02117 8.05564 5 8.27535 5 8.5C5 8.62539 5.0066 8.74925 5.01946 8.87123C4.55934 8.95458 4.04164 9 3.5 9C2.63279 9 1.82692 8.88357 1.22057 8.68145C1.14549 8.65642 1.07174 8.62952 1 8.6006V8.95617C1.00887 8.96561 1.02313 8.97911 1.04524 8.99654C1.13443 9.06682 1.29446 9.15199 1.53679 9.23277C2.01623 9.39258 2.71036 9.5 3.5 9.5C4.10812 9.5 4.65959 9.43629 5.09998 9.334C5.18146 9.66731 5.31067 9.9819 5.47996 10.2701C4.9188 10.4172 4.23121 10.5 3.5 10.5C2.63279 10.5 1.82692 10.3836 1.22057 10.1814C0.920002 10.0813 0.6407 9.95094 0.426268 9.78195C0.217473 9.6174 0 9.35694 0 9V3ZM1.53679 2.76723C1.29843 2.84669 1.13968 2.93039 1.04968 3C1.13968 3.06961 1.29843 3.15331 1.53679 3.23277C2.01623 3.39258 2.71036 3.5 3.5 3.5C4.28964 3.5 4.98377 3.39258 5.46321 3.23277C5.70157 3.15331 5.86032 3.06961 5.95032 3C5.86032 2.93039 5.70157 2.84669 5.46321 2.76723C4.98377 2.60742 4.28964 2.5 3.5 2.5C2.71036 2.5 2.01623 2.60742 1.53679 2.76723ZM1 5.95617V5.6006C1.07174 5.62952 1.14549 5.65642 1.22057 5.68145C1.82692 5.88357 2.63279 6 3.5 6C4.36721 6 5.17308 5.88357 5.77943 5.68145C5.85451 5.65642 5.92826 5.62952 6 5.6006V5.95617C5.99113 5.96561 5.97687 5.97911 5.95476 5.99654C5.86557 6.06682 5.70554 6.15199 5.46321 6.23277C4.98377 6.39258 4.28964 6.5 3.5 6.5C2.71036 6.5 2.01623 6.39258 1.53679 6.23277C1.29446 6.15199 1.13443 6.06682 1.04524 5.99654C1.02313 5.97911 1.00887 5.96561 1 5.95617ZM6 4.1006C5.92826 4.12952 5.85451 4.15642 5.77943 4.18145C5.17308 4.38357 4.36721 4.5 3.5 4.5C2.63279 4.5 1.82692 4.38357 1.22057 4.18145C1.14549 4.15642 1.07174 4.12952 1 4.1006V4.45617C1.00887 4.46561 1.02313 4.47911 1.04524 4.49654C1.13443 4.56682 1.29446 4.65199 1.53679 4.73277C2.01623 4.89258 2.71036 5 3.5 5C4.28964 5 4.98377 4.89258 5.46321 4.73277C5.70554 4.65199 5.86557 4.56682 5.95476 4.49654C5.97687 4.47911 5.99113 4.46561 6 4.45617V4.1006Z" fill="#18202A"/>
</svg>
