<svg width="12" height="12" viewBox="0 0 12 12" fill="none" xmlns="http://www.w3.org/2000/svg">
<path fill-rule="evenodd" clip-rule="evenodd" d="M6 5.5C7.33333 5.5 8 4.25 8 2.6875C8 1.4375 7.33333 0.5 6 0.5C4.66667 0.5 4 1.4375 4 2.6875C4 4.25 4.66667 5.5 6 5.5ZM6.00002 6.5C6.48638 6.5 6.95651 6.56944 7.40106 6.69895C6.55034 7.33744 6 8.35445 6 9.5C6 10.2347 6.22635 10.9165 6.61312 11.4794C6.41051 11.4931 6.20607 11.5 6.00001 11.5C5.22631 11.5 4.47541 11.4024 3.75897 11.2188C3.14945 11.0626 2.63285 10.6543 2.34993 10.0922L2.32658 10.0455C1.93547 9.25568 2.06847 8.28806 2.73583 7.7124C3.61173 6.95686 4.75252 6.5 6.00002 6.5ZM12 9.5C12 8.11929 10.8807 7 9.5 7C8.11929 7 7 8.11929 7 9.5C7 10.8807 8.11929 12 9.5 12C10.8807 12 12 10.8807 12 9.5ZM9.51517 11.0152C9.66161 10.8687 9.66161 10.6313 9.51517 10.4848L8.90533 9.875H11C11.2071 9.875 11.375 9.70711 11.375 9.5C11.375 9.29289 11.2071 9.125 11 9.125H8.90533L9.51517 8.51517C9.66161 8.36872 9.66161 8.13128 9.51517 7.98483C9.36872 7.83839 9.13128 7.83839 8.98484 7.98483L7.73484 9.23483C7.58839 9.38128 7.58839 9.61872 7.73484 9.76516L8.98484 11.0152C9.13128 11.1616 9.36872 11.1616 9.51517 11.0152Z" fill="#18202A"/>
</svg>
