<svg width="12" height="12" viewBox="0 0 12 12" fill="none" xmlns="http://www.w3.org/2000/svg">
<path d="M2.5 5C3.05228 5 3.5 4.55228 3.5 4C3.5 3.44772 3.05228 3 2.5 3C1.94772 3 1.5 3.44772 1.5 4C1.5 4.55228 1.94772 5 2.5 5Z" fill="#18202A"/>
<path d="M2.5 9C3.05228 9 3.5 8.55228 3.5 8C3.5 7.44772 3.05228 7 2.5 7C1.94772 7 1.5 7.44772 1.5 8C1.5 8.55228 1.94772 9 2.5 9Z" fill="#18202A"/>
<path d="M7 4C7 4.55228 6.55228 5 6 5C5.44772 5 5 4.55228 5 4C5 3.44772 5.44772 3 6 3C6.55228 3 7 3.44772 7 4Z" fill="#18202A"/>
<path d="M7 8C7 8.55228 6.55228 9 6 9C5.44772 9 5 8.55228 5 8C5 7.44772 5.44772 7 6 7C6.55228 7 7 7.44772 7 8Z" fill="#18202A"/>
<path d="M10.5 8C10.5 8.55228 10.0523 9 9.5 9C8.94772 9 8.5 8.55228 8.5 8C8.5 7.44772 8.94772 7 9.5 7C10.0523 7 10.5 7.44772 10.5 8Z" fill="#18202A"/>
<path d="M10.5 4C10.5 4.55228 10.0523 5 9.5 5C8.94772 5 8.5 4.55228 8.5 4C8.5 3.44772 8.94772 3 9.5 3C10.0523 3 10.5 3.44772 10.5 4Z" fill="#18202A"/>
</svg>
