<svg width="12" height="12" viewBox="0 0 12 12" fill="none" xmlns="http://www.w3.org/2000/svg">
<g clip-path="url(#clip0_2266_36585)">
<path fill-rule="evenodd" clip-rule="evenodd" d="M0.633933 0.633929C0.829369 0.438493 1.16714 0.459396 1.38836 0.680618L10.3194 9.61164C10.5406 9.83287 10.5615 10.1706 10.3661 10.3661C10.1706 10.5615 9.83287 10.5406 9.61165 10.3194L0.680622 1.38835C0.4594 1.16713 0.438497 0.829365 0.633933 0.633929Z" fill="#18202A"/>
<path d="M10.2555 8.1365C10.9885 6.8596 11.5 5.08649 11.5 2.57133C11.5002 2.3061 11.321 2.07162 11.0582 1.99241L6.1877 0.527432L6.11349 0.509876C6.01354 0.492319 5.91031 0.498171 5.81255 0.527432L3.37859 1.25954L4.18127 2.06222L6.0005 1.515L10.497 2.868L10.4933 3.05522C10.4422 4.8636 10.1021 6.28533 9.51984 7.40079L10.2555 8.1365Z" fill="#18202A"/>
<path d="M9.6869 8.98206L8.97378 8.26894C8.9173 8.34405 8.8594 8.41738 8.80008 8.48897L8.70124 8.60581C8.00895 9.40688 7.29928 9.86201 6.0384 10.4472L6 10.4645L5.78432 10.3641C4.57502 9.79012 3.89169 9.32391 3.1999 8.48888L3.10249 8.36812C2.1415 7.14443 1.57393 5.43451 1.50674 3.056L1.5025 2.868L3.09409 2.38925L2.29139 1.58655L0.942082 1.99241L0.878181 2.01532C0.650659 2.11067 0.5 2.32797 0.5 2.57133C0.5 8.75663 3.59346 10.4539 5.46599 11.3205L5.7308 11.4418C5.81605 11.4806 5.9081 11.5 6.00015 11.5C6.09215 11.5 6.18395 11.4806 6.26895 11.4418C7.21641 11.0103 8.58653 10.386 9.6869 8.98206Z" fill="#18202A"/>
<path d="M3.88893 3.1841L2.5 3.602L2.50755 3.71404C2.645 5.5149 3.1181 6.80745 3.84724 7.74064L3.93596 7.85091C4.42387 8.43984 4.91479 8.81532 5.70876 9.22791L5.966 9.3575L6.05925 9.31149C6.9018 8.88956 7.41618 8.52225 7.90918 7.95351L7.99602 7.851C8.07998 7.74965 8.16077 7.64387 8.23828 7.53344L3.88893 3.1841Z" fill="#18202A"/>
<path d="M8.74929 6.63024C9.10239 5.84673 9.33481 4.88816 9.42445 3.71294L9.4315 3.6015L5.9665 2.559L4.97605 2.85701L8.74929 6.63024Z" fill="#18202A"/>
</g>
<defs>
<clipPath id="clip0_2266_36585">
<rect width="12" height="12" fill="white"/>
</clipPath>
</defs>
</svg>
