<svg width="12" height="12" viewBox="0 0 12 12" fill="none" xmlns="http://www.w3.org/2000/svg">
<path fill-rule="evenodd" clip-rule="evenodd" d="M8.00002 2.6875C8.00002 4.25 7.33335 5.5 6.00002 5.5C4.66668 5.5 4.00002 4.25 4.00002 2.6875C4.00002 1.4375 4.66668 0.5 6.00002 0.5C7.33335 0.5 8.00002 1.4375 8.00002 2.6875ZM7.25002 2.6875C7.25002 3.37655 7.10085 3.92104 6.87303 4.26813C6.66539 4.58445 6.39129 4.75 6.00002 4.75C5.60874 4.75 5.33464 4.58445 5.12701 4.26813C4.89918 3.92104 4.75002 3.37655 4.75002 2.6875C4.75002 2.18758 4.88353 1.83098 5.07053 1.61184C5.24307 1.40964 5.52302 1.25 6.00002 1.25C6.47701 1.25 6.75696 1.40964 6.9295 1.61184C7.1165 1.83098 7.25002 2.18758 7.25002 2.6875Z" fill="#18202A"/>
<path fill-rule="evenodd" clip-rule="evenodd" d="M9.65008 10.0923C9.36716 10.6543 8.85057 11.0626 8.24105 11.2188C7.52461 11.4024 6.77371 11.5 6.00001 11.5C5.22632 11.5 4.47542 11.4024 3.75897 11.2188C3.14945 11.0626 2.63286 10.6543 2.34994 10.0923C2.26608 9.92566 2.18786 9.75572 2.11555 9.58271C1.8083 8.84756 1.93075 7.98746 2.49967 7.42962C3.40158 6.5453 4.63712 6 6.00002 6C7.36291 6 8.59845 6.54529 9.50035 7.42961C10.0693 7.98745 10.1917 8.84755 9.88448 9.5827C9.81216 9.75572 9.73395 9.92565 9.65008 10.0923ZM8.05486 10.4922C7.39874 10.6604 6.71039 10.75 6.00001 10.75C5.28964 10.75 4.60129 10.6604 3.94517 10.4922C3.54049 10.3885 3.20301 10.1189 3.01985 9.75503C2.94388 9.6041 2.87303 9.45018 2.80755 9.2935C2.60284 8.8037 2.70284 8.28079 3.02476 7.96515C3.79215 7.21272 4.8413 6.75 6.00002 6.75C7.15873 6.75 8.20788 7.21271 8.97527 7.96514C9.29719 8.28078 9.39719 8.80369 9.19248 9.29349C9.12699 9.45018 9.05615 9.6041 8.98018 9.75503C8.79701 10.1189 8.45954 10.3885 8.05486 10.4922Z" fill="#18202A"/>
</svg>
