<svg width="12" height="12" viewBox="0 0 12 12" fill="none" xmlns="http://www.w3.org/2000/svg">
<g clip-path="url(#clip0_2266_40846)">
<path fill-rule="evenodd" clip-rule="evenodd" d="M8.00002 2.6875C8.00002 4.25 7.33335 5.5 6.00002 5.5C4.66668 5.5 4.00002 4.25 4.00002 2.6875C4.00002 1.4375 4.66668 0.5 6.00002 0.5C7.33335 0.5 8.00002 1.4375 8.00002 2.6875ZM7.25002 2.6875C7.25002 3.37655 7.10085 3.92104 6.87303 4.26813C6.66539 4.58445 6.39129 4.75 6.00002 4.75C5.60874 4.75 5.33464 4.58445 5.12701 4.26813C4.89918 3.92104 4.75002 3.37655 4.75002 2.6875C4.75002 2.18758 4.88353 1.83098 5.07053 1.61184C5.24307 1.40964 5.52302 1.25 6.00002 1.25C6.47701 1.25 6.75696 1.40964 6.9295 1.61184C7.1165 1.83098 7.25002 2.18758 7.25002 2.6875ZM5.09582 10.7011C5.00962 10.9485 4.98379 11.202 5.00951 11.4461C4.58299 11.3994 4.16544 11.3229 3.75897 11.2188C3.14945 11.0626 2.63286 10.6543 2.34994 10.0923C2.26608 9.92566 2.18786 9.75572 2.11555 9.58271C1.8083 8.84756 1.93075 7.98746 2.49967 7.42962C3.40158 6.5453 4.63712 6 6.00002 6C6.5535 6 7.08597 6.08993 7.58362 6.25598C7.55857 6.2934 7.53463 6.33221 7.51189 6.37241L7.20103 6.9219C6.82026 6.80999 6.41724 6.75 6.00002 6.75C4.8413 6.75 3.79215 7.21272 3.02476 7.96515C2.70284 8.28079 2.60284 8.8037 2.80755 9.2935C2.87303 9.45018 2.94388 9.6041 3.01985 9.75503C3.20301 10.1189 3.54049 10.3885 3.94517 10.4922C4.31889 10.588 4.70307 10.6583 5.09582 10.7011ZM6.08011 11.0841C5.8512 11.4921 6.14022 12 6.60134 12H11.3987C11.8598 12 12.1488 11.4921 11.9199 11.0841L9.52124 6.80823C9.29069 6.39726 8.70934 6.39726 8.47879 6.80823L6.08011 11.0841ZM8.62502 8.375C8.62502 8.16789 8.79291 8 9.00002 8C9.20712 8 9.37502 8.16789 9.37502 8.375V9.375C9.37502 9.58211 9.20712 9.75 9.00002 9.75C8.79291 9.75 8.62502 9.58211 8.62502 9.375V8.375ZM8.62502 10.625C8.62502 10.4179 8.79291 10.25 9.00002 10.25C9.20712 10.25 9.37502 10.4179 9.37502 10.625C9.37502 10.8321 9.20712 11 9.00002 11C8.79291 11 8.62502 10.8321 8.62502 10.625Z" fill="#18202A"/>
</g>
<defs>
<clipPath id="clip0_2266_40846">
<rect width="12" height="12" fill="white"/>
</clipPath>
</defs>
</svg>
