<svg width="12" height="12" viewBox="0 0 12 12" fill="none" xmlns="http://www.w3.org/2000/svg">
<path fill-rule="evenodd" clip-rule="evenodd" d="M0.644065 0.110504C0.496727 -0.0368347 0.257843 -0.0368347 0.110504 0.110504C-0.0368347 0.257843 -0.0368347 0.496727 0.110504 0.644065L0.844254 1.37782C0.626966 1.69779 0.5 2.08407 0.5 2.5V7C0.5 7.93864 1.14661 8.72626 2.0187 8.94171C2.17286 8.97979 2.33407 9 2.5 9H2.77273L2.48282 10.3865C2.39375 10.8125 2.8537 11.141 3.22777 10.9186L6.45455 9H8.46644L9.85594 10.3895C10.0033 10.5368 10.2422 10.5368 10.3895 10.3895C10.5368 10.2422 10.5368 10.0033 10.3895 9.85594L0.644065 0.110504ZM7.71644 8.25L1.39037 1.92393C1.30069 2.09632 1.25 2.29224 1.25 2.5V7C1.25 7.69036 1.80964 8.25 2.5 8.25H2.77273C2.99857 8.25 3.21239 8.35177 3.3548 8.52704C3.49722 8.70232 3.55307 8.93244 3.50685 9.1535L3.33335 9.98328L6.07124 8.35535C6.18721 8.28639 6.31963 8.25 6.45455 8.25H7.71644ZM10.75 7C10.75 7.58485 10.3483 8.07589 9.80582 8.21232L10.3867 8.79319C11.0464 8.46634 11.5 7.78614 11.5 7V2.5C11.5 1.39543 10.6046 0.5 9.5 0.5H2.5C2.37289 0.5 2.24855 0.511857 2.12803 0.534526L2.84351 1.25H9.5C10.1904 1.25 10.75 1.80964 10.75 2.5V7Z" fill="#18202A"/>
</svg>
