<svg width="12" height="12" viewBox="0 0 12 12" fill="none" xmlns="http://www.w3.org/2000/svg">
<g clip-path="url(#clip0_2266_38661)">
<path fill-rule="evenodd" clip-rule="evenodd" d="M7.98484 0.484835C8.13128 0.338388 8.36872 0.338388 8.51516 0.484835L8.91161 0.881281C8.96043 0.930097 9.03957 0.930097 9.08839 0.881282L9.48483 0.484835C9.63128 0.338388 9.86872 0.338388 10.0152 0.484835C10.1616 0.631282 10.1616 0.868718 10.0152 1.01517L9.61872 1.41161C9.5699 1.46043 9.5699 1.53957 9.61872 1.58839L10.0152 1.98484C10.1616 2.13128 10.1616 2.36872 10.0152 2.51517C9.86872 2.66161 9.63128 2.66161 9.48483 2.51516L9.08839 2.11872C9.03957 2.0699 8.96043 2.0699 8.91161 2.11872L8.51516 2.51516C8.36872 2.66161 8.13128 2.66161 7.98483 2.51516C7.83839 2.36872 7.83839 2.13128 7.98484 1.98483L8.38128 1.58839C8.4301 1.53957 8.4301 1.46043 8.38128 1.41161L7.98484 1.01517C7.83839 0.868718 7.83839 0.631282 7.98484 0.484835ZM4.875 0.93951C4.875 0.732403 4.70711 0.56451 4.5 0.56451C4.29289 0.56451 4.125 0.732403 4.125 0.93951V1.50017C4.125 1.56921 4.06904 1.62517 4 1.62517H3.43934C3.23223 1.62517 3.06434 1.79306 3.06434 2.00017C3.06434 2.20728 3.23223 2.37517 3.43934 2.37517L4 2.37517C4.06904 2.37517 4.125 2.43113 4.125 2.50017V3.06083C4.125 3.26794 4.29289 3.43583 4.5 3.43583C4.70711 3.43583 4.875 3.26794 4.875 3.06083V2.50017C4.875 2.43113 4.93096 2.37517 5 2.37517H5.56066C5.76777 2.37517 5.93566 2.20728 5.93566 2.00017C5.93566 1.79306 5.76777 1.62517 5.56066 1.62517L5 1.62517C4.93096 1.62517 4.875 1.56921 4.875 1.50017V0.93951ZM6.01517 5.04534L6.70451 5.73468L2.17678 10.2624C2.07915 10.36 1.92086 10.36 1.82323 10.2624L1.48744 9.92663C1.38981 9.82899 1.38981 9.6707 1.48744 9.57307L6.01517 5.04534ZM1.29289 10.7927C1.68342 11.1833 2.31658 11.1833 2.70711 10.7927L8.2929 5.20696C8.68342 4.81643 8.68342 4.18327 8.2929 3.79274L7.95711 3.45696C7.56658 3.06643 6.93342 3.06643 6.54289 3.45696L0.957108 9.04274C0.566584 9.43327 0.566584 10.0664 0.957108 10.457L1.29289 10.7927ZM7.76257 4.67663L7.23484 5.20435L6.5455 4.51501L7.07323 3.98729C7.17086 3.88965 7.32915 3.88965 7.42678 3.98729L7.76257 4.32307C7.8602 4.4207 7.8602 4.57899 7.76257 4.67663ZM10.375 6.43951C10.375 6.2324 10.2071 6.06451 10 6.06451C9.79289 6.06451 9.625 6.2324 9.625 6.43951V7.00017C9.625 7.06921 9.56904 7.12517 9.5 7.12517H8.93934C8.73223 7.12517 8.56434 7.29306 8.56434 7.50017C8.56434 7.70728 8.73223 7.87517 8.93934 7.87517H9.5C9.56904 7.87517 9.625 7.93113 9.625 8.00017V8.56083C9.625 8.76794 9.79289 8.93583 10 8.93583C10.2071 8.93583 10.375 8.76794 10.375 8.56083V8.00017C10.375 7.93113 10.431 7.87517 10.5 7.87517H11.0607C11.2678 7.87517 11.4357 7.70728 11.4357 7.50017C11.4357 7.29306 11.2678 7.12517 11.0607 7.12517H10.5C10.431 7.12517 10.375 7.06921 10.375 7.00017V6.43951Z" fill="#18202A"/>
</g>
<defs>
<clipPath id="clip0_2266_38661">
<rect width="12" height="12" fill="white"/>
</clipPath>
</defs>
</svg>
