<svg width="12" height="12" viewBox="0 0 12 12" fill="none" xmlns="http://www.w3.org/2000/svg">
<path d="M4.00499 1.01969C4.36234 1.01449 4.7098 1.13705 4.9848 1.36531C5.25978 1.59356 5.44428 1.9125 5.50498 2.26469C5.51998 2.37969 5.53998 2.49469 5.56498 2.60469C5.61543 2.82709 5.68058 3.0459 5.75998 3.25969C5.84438 3.49164 5.83998 3.74661 5.74768 3.97553C5.66692 4.17584 5.52384 4.34381 5.34081 4.45539L5.25998 4.49969L5.04998 4.63969C5.32088 5.1267 5.65738 5.5742 6.04998 5.96971C6.39605 6.31323 6.78192 6.61376 7.19924 6.86505L7.37998 6.9697L7.48998 6.7447C7.59853 6.523 7.78523 6.3493 8.01413 6.257C8.24308 6.1647 8.49803 6.1603 8.72998 6.2447C8.89 6.30527 9.05313 6.35705 9.21867 6.39988L9.55248 6.47908C9.60873 6.49095 9.66498 6.4997 9.71998 6.4997C10.0619 6.561 10.3719 6.73905 10.5971 7.0035C10.7974 7.23857 10.9196 7.52895 10.9485 7.83449L10.955 7.9497V9.44971C10.956 9.66191 10.9119 9.87191 10.8257 10.0659C10.7395 10.2598 10.6132 10.4332 10.455 10.5747C10.2072 10.7954 9.89408 10.9271 9.56515 10.9508L9.45498 10.9547H9.26498C7.16933 10.696 5.21963 9.7464 3.72381 8.256C2.228 6.7656 1.27136 4.81938 1.00499 2.72469C0.975529 2.51122 0.992409 2.2939 1.05448 2.08754C1.11655 1.88118 1.22236 1.69062 1.3647 1.52883C1.50704 1.36703 1.68257 1.23781 1.87934 1.14995C2.04332 1.07674 2.21884 1.03368 2.39749 1.02253L2.50499 1.01969H4.00499ZM4.00499 1.76969L2.49794 1.76959C2.3902 1.76864 2.28351 1.79086 2.18513 1.83479C2.08674 1.87872 1.99897 1.94333 1.92781 2.02422C1.85663 2.10513 1.80373 2.2004 1.77269 2.30359C1.74166 2.40676 1.73322 2.51542 1.749 2.63008C1.99434 4.55939 2.87545 6.35197 4.25318 7.72471C5.5817 9.04842 7.29894 9.90893 9.15061 10.1824L9.31591 10.2045L9.4561 10.2047C9.61409 10.2049 9.76744 10.1553 9.89402 10.0645L9.95498 10.0157C10.0341 9.94495 10.0973 9.8582 10.1404 9.76125C10.1727 9.68852 10.1932 9.61128 10.2012 9.53098L10.205 9.44971L10.2051 7.96291C10.2021 7.78929 10.1388 7.62206 10.0261 7.48976C9.92966 7.37648 9.802 7.2949 9.65984 7.2546L9.62091 7.24553L9.61232 7.24539C9.57694 7.24255 9.54182 7.23835 9.50627 7.2329L9.39757 7.21291L9.22354 7.17212C8.96533 7.11521 8.71166 7.03969 8.47353 6.9495C8.41558 6.92841 8.35186 6.92951 8.29461 6.95258C8.2517 6.96989 8.21471 6.99865 8.18754 7.03515L8.16377 7.07411L7.93799 7.53594C7.81214 7.79337 7.49611 7.89258 7.24571 7.75326L7.01535 7.6251C6.46837 7.32078 5.96578 6.9429 5.51771 6.49808C5.13183 6.10935 4.79425 5.67594 4.51208 5.20726L4.39456 5.00427L4.28243 4.80268C4.15576 4.57497 4.22522 4.28815 4.44203 4.14361L4.84396 3.87565L4.93019 3.82609C4.98561 3.79896 5.02902 3.7523 5.0521 3.69508C5.07518 3.63782 5.07628 3.57409 5.05691 3.52081C4.96595 3.27591 4.89134 3.0253 4.83363 2.77091C4.80378 2.63952 4.77955 2.50177 4.76588 2.39207C4.73554 2.21603 4.6433 2.05655 4.50579 1.94242C4.38794 1.8446 4.24347 1.7856 4.08521 1.77243L4.00499 1.76969Z" fill="#18202A"/>
<path fill-rule="evenodd" clip-rule="evenodd" d="M7.4192 1.87476C7.4192 1.66765 7.58709 1.49976 7.7942 1.49976H10.1226C10.3297 1.49976 10.4976 1.66765 10.4976 1.87476V4.20318C10.4976 4.41029 10.3297 4.57818 10.1226 4.57818C9.91552 4.57818 9.74762 4.41029 9.74762 4.20318V2.78009L7.64515 4.88256C7.4987 5.02901 7.26126 5.02901 7.11482 4.88256C6.96837 4.73612 6.96837 4.49868 7.11482 4.35223L9.21729 2.24976H7.7942C7.58709 2.24976 7.4192 2.08186 7.4192 1.87476Z" fill="#18202A"/>
</svg>
