<svg width="12" height="12" viewBox="0 0 12 12" fill="none" xmlns="http://www.w3.org/2000/svg">
<g clip-path="url(#clip0_2266_35959)">
<path fill-rule="evenodd" clip-rule="evenodd" d="M6 3.5C6.55228 3.5 7 3.05228 7 2.5C7 1.94772 6.55228 1.5 6 1.5C5.44771 1.5 5 1.94772 5 2.5C5 3.05228 5.44771 3.5 6 3.5ZM8 2.5C8 3.43192 7.36261 4.21497 6.5 4.43699V10.4722C7.50951 10.3593 8.45677 9.90719 9.18198 9.18198C9.90719 8.45677 10.3593 7.50951 10.4722 6.5H9.5C9.22386 6.5 9 6.27614 9 6C9 5.72386 9.22386 5.5 9.5 5.5H11C11.2761 5.5 11.5 5.72386 11.5 6C11.5 7.45869 10.9205 8.85764 9.88909 9.88909C8.85764 10.9205 7.45869 11.5 6 11.5C4.54131 11.5 3.14236 10.9205 2.11091 9.88909C1.07946 8.85764 0.5 7.45869 0.5 6C0.5 5.86739 0.552678 5.74021 0.646447 5.64645C0.740215 5.55268 0.867392 5.5 1 5.5H2.5C2.77614 5.5 3 5.72386 3 6C3 6.27614 2.77614 6.5 2.5 6.5H1.52785C1.64069 7.50951 2.09281 8.45677 2.81802 9.18198C3.54323 9.90719 4.49049 10.3593 5.5 10.4722V4.43699C4.63739 4.21497 4 3.43192 4 2.5C4 1.39543 4.89543 0.5 6 0.5C7.10457 0.5 8 1.39543 8 2.5Z" fill="#18202A"/>
</g>
<defs>
<clipPath id="clip0_2266_35959">
<rect width="12" height="12" fill="white"/>
</clipPath>
</defs>
</svg>
