<svg width="12" height="12" viewBox="0 0 12 12" fill="none" xmlns="http://www.w3.org/2000/svg">
<g clip-path="url(#clip0_2266_34796)">
<path fill-rule="evenodd" clip-rule="evenodd" d="M3.5 0.5C3.22386 0.5 3 0.723858 3 1V1.5H2.5C1.39543 1.5 0.5 2.39543 0.5 3.5V9.5C0.5 10.6046 1.39543 11.5 2.5 11.5H5.87732C5.42644 10.9376 5.12437 10.2507 5.03083 9.49907C5.02063 9.49969 5.01035 9.5 5 9.5C4.72386 9.5 4.5 9.27614 4.5 9C4.5 8.72386 4.72386 8.5 5 8.5C5.01035 8.5 5.02063 8.50031 5.03083 8.50093C5.08114 8.0967 5.19177 7.71118 5.35343 7.35368C5.26295 7.44409 5.13801 7.5 5 7.5C4.72386 7.5 4.5 7.27614 4.5 7C4.5 6.72386 4.72386 6.5 5 6.5C5.27614 6.5 5.5 6.72386 5.5 7C5.5 7.02412 5.49829 7.04784 5.49499 7.07105C5.85879 6.41141 6.4034 5.86546 7.062 5.5H3C2.72386 5.5 2.5 5.27614 2.5 5C2.5 4.72386 2.72386 4.5 3 4.5H9C9.27614 4.5 9.5 4.72386 9.5 5C9.5 5.01035 9.49969 5.02063 9.49907 5.03083C10.2507 5.12437 10.9376 5.42644 11.5 5.87732V3.5C11.5 2.39543 10.6046 1.5 9.5 1.5H9V1C9 0.723858 8.77614 0.5 8.5 0.5C8.22386 0.5 8 0.723858 8 1V1.5H4V1C4 0.723858 3.77614 0.5 3.5 0.5ZM2.5 7C2.5 6.72386 2.72386 6.5 3 6.5C3.27614 6.5 3.5 6.72386 3.5 7C3.5 7.27614 3.27614 7.5 3 7.5C2.72386 7.5 2.5 7.27614 2.5 7ZM3 8.5C2.72386 8.5 2.5 8.72386 2.5 9C2.5 9.27614 2.72386 9.5 3 9.5C3.27614 9.5 3.5 9.27614 3.5 9C3.5 8.72386 3.27614 8.5 3 8.5ZM12 9C12 10.6569 10.6569 12 9 12C7.34315 12 6 10.6569 6 9C6 7.34315 7.34315 6 9 6C10.6569 6 12 7.34315 12 9ZM9 7.375C9.20711 7.375 9.375 7.54289 9.375 7.75V8.84467L10.0152 9.48483C10.1616 9.63128 10.1616 9.86872 10.0152 10.0152C9.86872 10.1616 9.63128 10.1616 9.48483 10.0152L8.73483 9.26517C8.66451 9.19484 8.625 9.09946 8.625 9V7.75C8.625 7.54289 8.79289 7.375 9 7.375Z" fill="#18202A"/>
</g>
<defs>
<clipPath id="clip0_2266_34796">
<rect width="12" height="12" fill="white"/>
</clipPath>
</defs>
</svg>
