<svg width="12" height="12" viewBox="0 0 12 12" fill="none" xmlns="http://www.w3.org/2000/svg">
<g clip-path="url(#clip0_2266_40428)">
<path fill-rule="evenodd" clip-rule="evenodd" d="M5.19992 4.3222C4.89189 4.13565 4.5 4.35962 4.5 4.72221V7.2728C4.5 7.6354 4.89189 7.85936 5.19992 7.67281L7.30563 6.39752C7.60479 6.21633 7.60479 5.77868 7.30563 5.59749L5.19992 4.3222ZM5.25 6.76565V5.22936L6.51833 5.99751L5.25 6.76565Z" fill="#18202A"/>
<path d="M3.5 2.25V3.25H2.5V2.25H3.5Z" fill="#18202A"/>
<path d="M3.5 9.75V8.75H2.5V9.75H3.5Z" fill="#18202A"/>
<path d="M4.5 2.25H5.5V3.25H4.5V2.25Z" fill="#18202A"/>
<path d="M5.5 8.75H4.5V9.75H5.5V8.75Z" fill="#18202A"/>
<path d="M6.5 2.25H7.5V3.25H6.5V2.25Z" fill="#18202A"/>
<path d="M7.5 8.75H6.5V9.75H7.5V8.75Z" fill="#18202A"/>
<path d="M9.5 2.25V3.25H8.5V2.25H9.5Z" fill="#18202A"/>
<path d="M9.5 9.75V8.75H8.5V9.75H9.5Z" fill="#18202A"/>
<path fill-rule="evenodd" clip-rule="evenodd" d="M0.5 3C0.5 1.61929 1.61929 0.5 3 0.5H9C10.3807 0.5 11.5 1.61929 11.5 3V9C11.5 10.3807 10.3807 11.5 9 11.5H3C1.61929 11.5 0.5 10.3807 0.5 9V3ZM3 1.25H9C9.9665 1.25 10.75 2.0335 10.75 3V9C10.75 9.9665 9.9665 10.75 9 10.75H3C2.0335 10.75 1.25 9.9665 1.25 9V3C1.25 2.0335 2.0335 1.25 3 1.25Z" fill="#18202A"/>
</g>
<defs>
<clipPath id="clip0_2266_40428">
<rect width="12" height="12" fill="white"/>
</clipPath>
</defs>
</svg>
