<svg width="12" height="12" viewBox="0 0 12 12" fill="none" xmlns="http://www.w3.org/2000/svg">
<g clip-path="url(#clip0_2266_35557)">
<path fill-rule="evenodd" clip-rule="evenodd" d="M7.98484 0.484835C8.13128 0.338388 8.36872 0.338388 8.51516 0.484835L8.91161 0.881281C8.96043 0.930097 9.03957 0.930097 9.08839 0.881282L9.48483 0.484835C9.63128 0.338388 9.86872 0.338388 10.0152 0.484835C10.1616 0.631282 10.1616 0.868718 10.0152 1.01517L9.61872 1.41161C9.5699 1.46043 9.5699 1.53957 9.61872 1.58839L10.0152 1.98484C10.1616 2.13128 10.1616 2.36872 10.0152 2.51517C9.86872 2.66161 9.63128 2.66161 9.48483 2.51516L9.08839 2.11872C9.03957 2.0699 8.96043 2.0699 8.91161 2.11872L8.51516 2.51516C8.36872 2.66161 8.13128 2.66161 7.98483 2.51516C7.83839 2.36872 7.83839 2.13128 7.98484 1.98483L8.38128 1.58839C8.4301 1.53957 8.4301 1.46043 8.38128 1.41161L7.98484 1.01517C7.83839 0.868718 7.83839 0.631282 7.98484 0.484835ZM4.875 0.93951C4.875 0.732403 4.70711 0.56451 4.5 0.56451C4.29289 0.56451 4.125 0.732403 4.125 0.93951V1.50017C4.125 1.56921 4.06904 1.62517 4 1.62517H3.43934C3.23223 1.62517 3.06434 1.79306 3.06434 2.00017C3.06434 2.20728 3.23223 2.37517 3.43934 2.37517L4 2.37517C4.06904 2.37517 4.125 2.43113 4.125 2.50017V3.06083C4.125 3.26794 4.29289 3.43583 4.5 3.43583C4.70711 3.43583 4.875 3.26794 4.875 3.06083L4.875 2.50017C4.875 2.43113 4.93096 2.37517 5 2.37517H5.56066C5.76777 2.37517 5.93566 2.20728 5.93566 2.00017C5.93566 1.79306 5.76777 1.62517 5.56066 1.62517L5 1.62517C4.93096 1.62517 4.875 1.56921 4.875 1.50017V0.93951ZM8.29289 3.79274L8.20711 3.70696C7.81658 3.31643 7.18342 3.31643 6.7929 3.70696L6.10355 4.3963L7.60355 5.8963L8.29289 5.20696C8.68342 4.81643 8.68342 4.18327 8.29289 3.79274ZM1.20711 9.29274L5.39645 5.1034L6.89645 6.6034L2.70711 10.7927C2.31658 11.1833 1.68342 11.1833 1.29289 10.7927L1.20711 10.707C0.816584 10.3164 0.816584 9.68327 1.20711 9.29274ZM10.375 6.43951C10.375 6.2324 10.2071 6.06451 10 6.06451C9.79289 6.06451 9.625 6.2324 9.625 6.43951V7.00017C9.625 7.06921 9.56904 7.12517 9.5 7.12517H8.93934C8.73223 7.12517 8.56434 7.29306 8.56434 7.50017C8.56434 7.70728 8.73223 7.87517 8.93934 7.87517H9.5C9.56904 7.87517 9.625 7.93113 9.625 8.00017V8.56083C9.625 8.76794 9.79289 8.93583 10 8.93583C10.2071 8.93583 10.375 8.76794 10.375 8.56083V8.00017C10.375 7.93113 10.431 7.87517 10.5 7.87517H11.0607C11.2678 7.87517 11.4357 7.70728 11.4357 7.50017C11.4357 7.29306 11.2678 7.12517 11.0607 7.12517H10.5C10.431 7.12517 10.375 7.06921 10.375 7.00017V6.43951Z" fill="#18202A"/>
</g>
<defs>
<clipPath id="clip0_2266_35557">
<rect width="12" height="12" fill="white"/>
</clipPath>
</defs>
</svg>
