<svg width="12" height="12" viewBox="0 0 12 12" fill="none" xmlns="http://www.w3.org/2000/svg">
<g clip-path="url(#clip0_3604_8874)">
<path fill-rule="evenodd" clip-rule="evenodd" d="M5 3.25C5 4.04276 4.47287 4.71239 3.75 4.92753V6.62501C3.75 7.52247 4.47754 8.25001 5.375 8.25001H7.07247C7.2876 7.52713 7.95724 7 8.75 7C9.7165 7 10.5 7.7835 10.5 8.75C10.5 9.7165 9.7165 10.5 8.75 10.5C7.86838 10.5 7.13903 9.84808 7.01772 9.00001H5.375C4.06332 9.00001 3 7.93668 3 6.62501V4.98228C2.15193 4.86097 1.5 4.13162 1.5 3.25C1.5 2.2835 2.2835 1.5 3.25 1.5C4.2165 1.5 5 2.2835 5 3.25ZM4.25 3.25C4.25 3.80228 3.80228 4.25 3.25 4.25C2.69772 4.25 2.25 3.80228 2.25 3.25C2.25 2.69772 2.69772 2.25 3.25 2.25C3.80228 2.25 4.25 2.69772 4.25 3.25ZM9.75 8.75C9.75 9.30228 9.30228 9.75 8.75 9.75C8.19772 9.75 7.75 9.30228 7.75 8.75C7.75 8.19772 8.19772 7.75 8.75 7.75C9.30228 7.75 9.75 8.19772 9.75 8.75Z" fill="#18202A"/>
<path d="M9.125 1.875C9.125 1.66789 8.95711 1.5 8.75 1.5C8.54289 1.5 8.375 1.66789 8.375 1.875V2.875H7.375C7.16789 2.875 7 3.04289 7 3.25C7 3.45711 7.16789 3.625 7.375 3.625H8.375V4.625C8.375 4.83211 8.54289 5 8.75 5C8.95711 5 9.125 4.83211 9.125 4.625V3.625H10.125C10.3321 3.625 10.5 3.45711 10.5 3.25C10.5 3.04289 10.3321 2.875 10.125 2.875H9.125V1.875Z" fill="#18202A"/>
</g>
<defs>
<clipPath id="clip0_3604_8874">
<rect width="12" height="12" fill="white"/>
</clipPath>
</defs>
</svg>
