<svg width="12" height="12" viewBox="0 0 12 12" fill="none" xmlns="http://www.w3.org/2000/svg">
<path fill-rule="evenodd" clip-rule="evenodd" d="M10.635 9.02442C10.7088 8.86494 10.75 8.68728 10.75 8.5V5H1.25V8.5C1.25 9.19036 1.80964 9.75 2.5 9.75H6.02968C5.8792 9.98019 5.79112 10.2374 5.76175 10.5H2.5C1.39543 10.5 0.5 9.60457 0.5 8.5V3.5C0.5 2.39543 1.39543 1.5 2.5 1.5H4.37868C4.7765 1.5 5.15804 1.65804 5.43934 1.93934L6 2.5H9.5C10.6046 2.5 11.5 3.39543 11.5 4.5V8.5C11.5 8.85403 11.408 9.18657 11.2466 9.47504C11.2041 9.43249 11.1587 9.39151 11.1105 9.3523C10.9617 9.23119 10.8027 9.12148 10.635 9.02442ZM4.90901 2.46967L5.68934 3.25H9.5C10.1904 3.25 10.75 3.80964 10.75 4.5H1.25V3.5C1.25 2.80964 1.80964 2.25 2.5 2.25H4.37868C4.57759 2.25 4.76836 2.32902 4.90901 2.46967Z" fill="#18202A"/>
<path d="M6.86285 9.93404C6.94345 9.86845 7.02792 9.80699 7.1159 9.75C7.58074 9.44892 8.14356 9.27273 8.75001 9.27273C9.24109 9.27273 9.70358 9.38826 10.1086 9.5921C10.2984 9.68762 10.4756 9.80252 10.6371 9.93402C10.6825 9.9709 10.7235 10.0107 10.7603 10.053C11.0369 10.3707 11.0733 10.8264 10.8738 11.2066L10.8671 11.2193L10.8602 11.2321C10.6967 11.5387 10.398 11.7614 10.0456 11.8466C9.63142 11.9467 9.1973 12 8.75 12C8.30269 12 7.86857 11.9467 7.45436 11.8466C7.10198 11.7614 6.80331 11.5387 6.63975 11.2321L6.62625 11.2066C6.50873 10.9827 6.47306 10.7327 6.52006 10.5C6.5635 10.285 6.67754 10.0848 6.86285 9.93404Z" fill="#18202A"/>
<path d="M8.74999 8.72727C9.52085 8.72727 9.90627 8.04545 9.90627 7.19318C9.90627 6.51136 9.52085 6 8.74999 6C7.97914 6 7.59372 6.51136 7.59372 7.19318C7.59372 8.04545 7.97914 8.72727 8.74999 8.72727Z" fill="#18202A"/>
</svg>
