<svg width="12" height="12" viewBox="0 0 12 12" fill="none" xmlns="http://www.w3.org/2000/svg">
<g clip-path="url(#clip0_2266_40106)">
<path fill-rule="evenodd" clip-rule="evenodd" d="M2.66031 6.37476L1.29784 10.0039C1.27851 10.0554 1.26868 10.0935 1.26432 10.1203C1.26087 10.1416 1.26155 10.1514 1.26168 10.1528C1.33969 10.6567 1.85818 10.9309 2.36312 10.6515L10.0917 6.37476H2.66031ZM10.0917 5.62476L2.36313 1.348C1.85801 1.06849 1.33945 1.34287 1.26163 1.84701C1.26167 1.84669 1.26169 1.84652 1.26169 1.84652C1.26169 1.84653 1.26059 1.85621 1.26432 1.87915C1.26868 1.90603 1.27851 1.94406 1.29784 1.99554L2.66032 5.62476H10.0917ZM0.595689 2.25914L1.99999 5.99974L0.595689 9.74035C0.532406 9.90891 0.492934 10.089 0.52041 10.2669C0.684229 11.3279 1.80212 11.8191 2.72626 11.3077L11.1325 6.656C11.6483 6.37056 11.6483 5.62898 11.1325 5.34354L2.72626 0.691778C1.80212 0.180382 0.68421 0.671502 0.520406 1.73258C0.492935 1.91053 0.532406 2.09058 0.595689 2.25914Z" fill="#18202A"/>
</g>
<defs>
<clipPath id="clip0_2266_40106">
<rect width="12" height="12" fill="white"/>
</clipPath>
</defs>
</svg>
