<svg width="12" height="12" viewBox="0 0 12 12" fill="none" xmlns="http://www.w3.org/2000/svg">
<path fill-rule="evenodd" clip-rule="evenodd" d="M6 5.5C7.33333 5.5 8 4.25 8 2.6875C8 1.4375 7.33333 0.5 6 0.5C4.66667 0.5 4 1.4375 4 2.6875C4 4.25 4.66667 5.5 6 5.5ZM6.00002 6.5C6.48638 6.5 6.95651 6.56944 7.40105 6.69895C6.55034 7.33744 5.99999 8.35445 5.99999 9.5C5.99999 10.2347 6.22635 10.9165 6.61311 11.4794C6.41051 11.4931 6.20607 11.5 6.00001 11.5C5.22631 11.5 4.47541 11.4024 3.75897 11.2188C3.14945 11.0626 2.63285 10.6543 2.34993 10.0922L2.32658 10.0455C1.93547 9.25568 2.06847 8.28806 2.73583 7.7124C3.61173 6.95686 4.75252 6.5 6.00002 6.5ZM9.49999 11C10.3284 11 11 10.3284 11 9.5C11 9.26836 10.9475 9.04899 10.8537 8.85313L8.85319 10.8538C9.04903 10.9475 9.26838 11 9.49999 11ZM10.1465 8.14611L8.14614 10.1466C8.05245 9.95082 7.99999 9.73154 7.99999 9.5C7.99999 8.67157 8.67157 8 9.49999 8C9.7315 8 9.95076 8.05245 10.1465 8.14611ZM9.49999 12C10.8807 12 12 10.8807 12 9.5C12 8.11929 10.8807 7 9.49999 7C8.11928 7 6.99999 8.11929 6.99999 9.5C6.99999 10.8807 8.11928 12 9.49999 12Z" fill="#18202A"/>
</svg>
