<svg width="12" height="12" viewBox="0 0 12 12" fill="none" xmlns="http://www.w3.org/2000/svg">
<path fill-rule="evenodd" clip-rule="evenodd" d="M8 3.5V4H4V3.5C4 2.39543 4.89543 1.5 6 1.5C7.10457 1.5 8 2.39543 8 3.5ZM9 4V3.5C9 1.84315 7.65685 0.5 6 0.5C4.34315 0.5 3 1.84315 3 3.5V4C1.89543 4 1 4.89543 1 6V9.5C1 10.6046 1.89543 11.5 3 11.5H9C10.1046 11.5 11 10.6046 11 9.5V6C11 4.89543 10.1046 4 9 4ZM3.125 8.375C3.47018 8.375 3.75 8.09518 3.75 7.75C3.75 7.40482 3.47018 7.125 3.125 7.125C2.77982 7.125 2.5 7.40482 2.5 7.75C2.5 8.09518 2.77982 8.375 3.125 8.375ZM5.04167 8.375C5.38685 8.375 5.66667 8.09518 5.66667 7.75C5.66667 7.40482 5.38685 7.125 5.04167 7.125C4.69649 7.125 4.41667 7.40482 4.41667 7.75C4.41667 8.09518 4.69649 8.375 5.04167 8.375ZM7.58333 7.75C7.58333 8.09518 7.30351 8.375 6.95833 8.375C6.61315 8.375 6.33333 8.09518 6.33333 7.75C6.33333 7.40482 6.61315 7.125 6.95833 7.125C7.30351 7.125 7.58333 7.40482 7.58333 7.75ZM8.875 8.375C9.22018 8.375 9.5 8.09518 9.5 7.75C9.5 7.40482 9.22018 7.125 8.875 7.125C8.52982 7.125 8.25 7.40482 8.25 7.75C8.25 8.09518 8.52982 8.375 8.875 8.375Z" fill="#18202A"/>
</svg>
