<svg width="12" height="12" viewBox="0 0 12 12" fill="none" xmlns="http://www.w3.org/2000/svg">
<path fill-rule="evenodd" clip-rule="evenodd" d="M2.92731 6.375C2.77896 6.74148 2.41967 7 2 7C1.44772 7 1 6.55228 1 6C1 5.44772 1.44772 5 2 5C2.41967 5 2.77896 5.25852 2.92731 5.625H5.07269C5.22104 5.25852 5.58033 5 6 5C6.41967 5 6.77896 5.25852 6.92731 5.625H9.07269C9.22104 5.25852 9.58033 5 10 5C10.5523 5 11 5.44772 11 6C11 6.55228 10.5523 7 10 7C9.58033 7 9.22104 6.74148 9.07269 6.375H6.92731C6.77896 6.74148 6.41967 7 6 7C5.58033 7 5.22104 6.74148 5.07269 6.375H2.92731Z" fill="#18202A"/>
</svg>
