<svg width="12" height="12" viewBox="0 0 12 12" fill="none" xmlns="http://www.w3.org/2000/svg">
<g clip-path="url(#clip0_3075_8858)">
<path d="M11.5518 1.30361C11.6914 1.1486 11.6881 0.900862 11.5444 0.750278C11.4006 0.599695 11.1708 0.603286 11.0312 0.758298L6.59843 5.67854L4.78458 3.54888C4.64901 3.38971 4.41944 3.37918 4.27182 3.52535C4.1242 3.67153 4.11444 3.91907 4.25 4.07824L6.32374 6.51302C6.39127 6.59231 6.48611 6.6381 6.58594 6.63961C6.68577 6.64112 6.78176 6.59822 6.85133 6.521L11.5518 1.30361Z" fill="#18202A"/>
<path d="M2.5 1.00024C1.39543 1.00024 0.5 1.89567 0.5 3.00024V7.50024C0.5 8.43888 1.14661 9.2265 2.0187 9.44195C2.17286 9.48004 2.33407 9.50024 2.5 9.50024H2.77273L2.48282 10.8868C2.39375 11.3128 2.8537 11.6413 3.22777 11.4189L6.45455 9.50024H9.5C10.6046 9.50024 11.5 8.60481 11.5 7.50024V4.87524C11.5 4.66814 11.3321 4.50024 11.125 4.50024C10.9179 4.50024 10.75 4.66814 10.75 4.87524V7.50024C10.75 8.1906 10.1904 8.75024 9.5 8.75024H6.45455C6.31963 8.75024 6.18721 8.78664 6.07124 8.85559L3.33335 10.4835L3.50685 9.65374C3.55307 9.43268 3.49722 9.20256 3.3548 9.02729C3.21239 8.85201 2.99857 8.75024 2.77273 8.75024H2.5C1.80964 8.75024 1.25 8.1906 1.25 7.50024V3.00024C1.25 2.30989 1.80964 1.75024 2.5 1.75024H7.125C7.33211 1.75024 7.5 1.58235 7.5 1.37524C7.5 1.16814 7.33211 1.00024 7.125 1.00024H2.5Z" fill="#18202A"/>
</g>
<defs>
<clipPath id="clip0_3075_8858">
<rect width="12" height="12" fill="white"/>
</clipPath>
</defs>
</svg>
