<svg width="12" height="12" viewBox="0 0 12 12" fill="none" xmlns="http://www.w3.org/2000/svg">
<g clip-path="url(#clip0_2266_38334)">
<path fill-rule="evenodd" clip-rule="evenodd" d="M2.5 1.25H9.5C10.1904 1.25 10.75 1.80964 10.75 2.5V6.74835C11.0665 6.98563 11.3249 7.29623 11.5 7.65496V2.5C11.5 1.39543 10.6046 0.5 9.5 0.5H2.5C1.39543 0.5 0.5 1.39543 0.5 2.5V9.5C0.5 10.6046 1.39543 11.5 2.5 11.5H6.5848C6.37352 11.3092 6.25283 11.0319 6.25005 10.75H2.5C1.80964 10.75 1.25 10.1904 1.25 9.5V2.5C1.25 1.80964 1.80964 1.25 2.5 1.25ZM10 6.36384V5.75C10 5.19772 9.55228 4.75 9 4.75H3C2.44772 4.75 2 5.19772 2 5.75V9C2 9.55228 2.44772 10 3 10H6.59002C6.60974 9.98285 6.63038 9.96617 6.65194 9.95C6.71489 9.90279 6.75194 9.82869 6.75194 9.75V9.25H3C2.86193 9.25 2.75 9.13807 2.75 9V5.75C2.75 5.61193 2.86193 5.5 3 5.5H9C9.13807 5.5 9.25 5.61193 9.25 5.75V6.25C9.25065 6.25 9.2513 6.25 9.25195 6.25C9.51254 6.25 9.76381 6.28987 10 6.36384ZM3 2C2.44772 2 2 2.44772 2 3C2 3.55228 2.44772 4 3 4C3.55228 4 4 3.55228 4 3C4 2.44772 3.55228 2 3 2ZM5 3C5 2.79289 5.16789 2.625 5.375 2.625H9.375C9.58211 2.625 9.75 2.79289 9.75 3C9.75 3.20711 9.58211 3.375 9.375 3.375H5.375C5.16789 3.375 5 3.20711 5 3Z" fill="#18202A"/>
<path fill-rule="evenodd" clip-rule="evenodd" d="M11 8.75715L11 8.75C11 7.7835 10.2165 7 9.25001 7C8.80253 7 8.39428 7.16795 8.08485 7.44426L11.0549 9.71547C11.0188 9.56453 11 9.40843 11 9.25V8.75715ZM11.6855 10.7574L11.5 11H11.75C11.8301 11 11.8641 10.8981 11.8 10.85C11.7606 10.8204 11.7224 10.7895 11.6855 10.7574ZM10.2653 11L7.5 8.88533V9.25C7.5 9.87951 7.20361 10.4723 6.7 10.85C6.63593 10.8981 6.66991 11 6.75 11H10.2653ZM8.50001 11.75C8.50001 11.6119 8.61194 11.5 8.75001 11.5H9.75001C9.88808 11.5 10 11.6119 10 11.75C10 11.8881 9.88808 12 9.75001 12H8.75001C8.61194 12 8.50001 11.8881 8.50001 11.75Z" fill="#18202A"/>
<path d="M7.25 7.25L11.5 10.5" stroke="#18202A" stroke-width="1.5" stroke-linecap="round"/>
</g>
<defs>
<clipPath id="clip0_2266_38334">
<rect width="12" height="12" fill="white"/>
</clipPath>
</defs>
</svg>
