<svg width="12" height="12" viewBox="0 0 12 12" fill="none" xmlns="http://www.w3.org/2000/svg">
<path fill-rule="evenodd" clip-rule="evenodd" d="M1.6105 1.6105C1.75784 1.46317 1.99673 1.46317 2.14407 1.6105L10.3895 9.85594C10.3933 9.85972 10.397 9.86358 10.4006 9.86748L10.4476 9.91448L10.4383 9.91577C10.5345 10.0621 10.5182 10.2608 10.3895 10.3895C10.2422 10.5368 10.0033 10.5368 9.85594 10.3895L8.9322 9.46576C8.88401 9.58641 8.83297 9.70561 8.77917 9.82328C8.51319 10.4049 7.96709 10.8077 7.33446 10.9017C6.89902 10.9665 6.4534 11 5.99995 11C5.5465 11 5.10088 10.9665 4.66544 10.9017C4.03281 10.8077 3.48671 10.4049 3.22074 9.82328C3.12688 9.61804 3.04145 9.40813 2.96489 9.19401C2.70309 8.46185 2.9222 7.6265 3.57707 7.20729C4.26774 6.76515 5.08715 6.50651 5.96656 6.50012L3.97534 4.50891C3.99175 4.60572 3.99995 4.70727 3.99995 4.8125C3.99995 5.75 3.58329 6.5 2.74995 6.5C1.91662 6.5 1.49995 5.75 1.49995 4.8125C1.49995 4.0625 1.91662 3.5 2.74995 3.5C2.83134 3.5 2.90875 3.50536 2.98218 3.51575L1.6105 2.14407C1.46317 1.99673 1.46317 1.75784 1.6105 1.6105ZM8.34833 8.88189L6.80232 7.33588C6.54402 7.27964 6.2756 7.25 5.99995 7.25C5.25545 7.25 4.56372 7.46619 3.98143 7.83895C3.66542 8.04124 3.50818 8.48586 3.6711 8.94149C3.74043 9.13539 3.81779 9.32548 3.9028 9.51138C4.06084 9.85698 4.38844 10.1023 4.77571 10.1599C5.17476 10.2192 5.58353 10.25 5.99995 10.25C6.41637 10.25 6.82514 10.2192 7.22419 10.1599C7.61146 10.1023 7.93906 9.85698 8.0971 9.51138C8.18211 9.32548 8.25947 9.13539 8.3288 8.9415C8.33591 8.9216 8.34242 8.90172 8.34833 8.88189ZM3.06834 5.58449C3.16541 5.44253 3.24995 5.18395 3.24995 4.8125C3.24995 4.56988 3.18294 4.43632 3.1269 4.37327C3.08258 4.32341 2.98736 4.25 2.74995 4.25C2.51255 4.25 2.41733 4.32341 2.37301 4.37327C2.31697 4.43632 2.24995 4.56988 2.24995 4.8125C2.24995 5.18395 2.3345 5.44253 2.43156 5.58449C2.50819 5.69656 2.59491 5.75 2.74995 5.75C2.905 5.75 2.99171 5.69656 3.06834 5.58449Z" fill="#18202A"/>
<path d="M6.74995 3.75C6.74995 4.26458 6.64981 4.66208 6.50779 4.91404L7.04975 5.456C7.34989 5.04458 7.49995 4.43481 7.49995 3.75C7.49995 2.75 6.99995 2 5.99995 2C5.2666 2 4.80216 2.40335 4.60661 3.01286L5.25186 3.65811C5.26597 3.3236 5.35659 3.09854 5.46061 2.96852C5.55586 2.84946 5.70714 2.75 5.99995 2.75C6.29277 2.75 6.44405 2.84946 6.5393 2.96852C6.65258 3.11011 6.74995 3.36439 6.74995 3.75Z" fill="#18202A"/>
<path d="M11.1914 9.59762L10.6562 9.06248C10.774 8.98411 10.8622 8.86913 10.9062 8.73315C10.9992 8.44553 10.8753 8.20716 10.7143 8.12231C10.4231 7.9689 10.1057 7.85835 9.76987 7.79928C9.67583 7.51063 9.52689 7.23859 9.32141 7.00172C9.94926 7.02011 10.5408 7.1832 11.0639 7.45877C11.5993 7.74085 11.806 8.38812 11.6198 8.96394C11.5378 9.21757 11.3873 9.4345 11.1914 9.59762Z" fill="#18202A"/>
<path fill-rule="evenodd" clip-rule="evenodd" d="M10.5 4.8125C10.5 5.75 10.0833 6.5 9.24995 6.5C8.41662 6.5 7.99995 5.75 7.99995 4.8125C7.99995 4.0625 8.41662 3.5 9.24995 3.5C10.0833 3.5 10.5 4.0625 10.5 4.8125ZM9.74995 4.8125C9.74995 5.18395 9.66541 5.44253 9.56834 5.58449C9.49172 5.69656 9.405 5.75 9.24995 5.75C9.09491 5.75 9.00819 5.69656 8.93156 5.58449C8.8345 5.44253 8.74995 5.18395 8.74995 4.8125C8.74995 4.56988 8.81697 4.43632 8.87301 4.37327C8.91733 4.32341 9.01255 4.25 9.24995 4.25C9.48736 4.25 9.58258 4.32341 9.6269 4.37327C9.68294 4.43632 9.74995 4.56988 9.74995 4.8125Z" fill="#18202A"/>
<path d="M1.0038 7.37429C1.51321 7.13619 2.08108 7.00228 2.67998 7C2.47781 7.23259 2.33023 7.49919 2.23568 7.78216C1.91272 7.82781 1.60572 7.92083 1.32138 8.05373C1.1378 8.13954 0.993734 8.40181 1.09588 8.71977C1.17617 8.96971 1.39525 9.15301 1.67346 9.18735C1.84506 9.20854 2.01837 9.22446 2.19323 9.23495C2.21198 9.30632 2.2338 9.37693 2.25868 9.4465C2.32542 9.63315 2.39831 9.81685 2.4771 9.99737C2.17466 9.99016 1.87591 9.96804 1.58157 9.9317C1.02225 9.86266 0.55418 9.48571 0.381815 8.94915C0.184812 8.33589 0.420274 7.64703 1.0038 7.37429Z" fill="#18202A"/>
</svg>
