<svg width="12" height="12" viewBox="0 0 12 12" fill="none" xmlns="http://www.w3.org/2000/svg">
<path fill-rule="evenodd" clip-rule="evenodd" d="M9.85226 1.02642C9.49624 0.699538 9.02142 0.5 8.5 0.5H3.5C2.39543 0.5 1.5 1.39543 1.5 2.5V9.5C1.5 10.6046 2.39543 11.5 3.5 11.5H8.5C9.60457 11.5 10.5 10.6046 10.5 9.5V4.62132L9.06066 6.06066C8.47487 6.64645 7.52513 6.64645 6.93934 6.06066L5.43934 4.56066C4.85355 3.97487 4.85355 3.02513 5.43934 2.43934C6.02513 1.85355 6.97487 1.85355 7.56066 2.43934L8 2.87868L9.85226 1.02642ZM3 7C3 6.72386 3.22386 6.5 3.5 6.5H5.5C5.77614 6.5 6 6.72386 6 7C6 7.27614 5.77614 7.5 5.5 7.5H3.5C3.22386 7.5 3 7.27614 3 7ZM3.5 8.5C3.22386 8.5 3 8.72386 3 9C3 9.27614 3.22386 9.5 3.5 9.5H8.5C8.77614 9.5 9 9.27614 9 9C9 8.72386 8.77614 8.5 8.5 8.5H3.5ZM11.3536 2.35355C11.5488 2.15829 11.5488 1.84171 11.3536 1.64645C11.1583 1.45118 10.8417 1.45118 10.6464 1.64645L8 4.29289L6.85355 3.14645C6.65829 2.95118 6.34171 2.95118 6.14645 3.14645C5.95118 3.34171 5.95118 3.65829 6.14645 3.85355L7.64645 5.35355C7.84171 5.54882 8.15829 5.54882 8.35355 5.35355L11.3536 2.35355Z" fill="#18202A"/>
</svg>
