<svg width="12" height="12" viewBox="0 0 12 12" fill="none" xmlns="http://www.w3.org/2000/svg">
<path d="M9.29949 1.17828L8.93199 1.54578L10.4542 3.06801L10.8217 2.70051C10.9359 2.58633 11 2.43148 11 2.27002C11 2.10857 10.9359 1.95372 10.8217 1.83954L10.1605 1.17828C10.0463 1.06413 9.89143 1 9.72997 1C9.56852 1 9.41367 1.06413 9.29949 1.17828Z" fill="#18202A"/>
<path d="M10.0237 3.49857L8.50143 1.97633L5.21563 5.26213L5.00359 6.64946C4.97255 6.85255 5.14745 7.02745 5.35054 6.99641L6.73787 6.78437L10.0237 3.49857Z" fill="#18202A"/>
<path d="M6 2.5C6 2.22386 5.77614 2 5.5 2H2.5C1.67157 2 1 2.67157 1 3.5V9.5C1 10.3284 1.67157 11 2.5 11H8.5C9.32843 11 10 10.3284 10 9.5V6.5C10 6.22386 9.77614 6 9.5 6C9.22386 6 9 6.22386 9 6.5V9.5C9 9.77614 8.77614 10 8.5 10H2.5C2.22386 10 2 9.77614 2 9.5V3.5C2 3.22386 2.22386 3 2.5 3H5.5C5.77614 3 6 2.77614 6 2.5Z" fill="#18202A"/>
</svg>
