<svg width="12" height="12" viewBox="0 0 12 12" fill="none" xmlns="http://www.w3.org/2000/svg">
<path fill-rule="evenodd" clip-rule="evenodd" d="M6.00004 3.35355C6.1953 3.15829 6.1953 2.84171 6.00004 2.64645C5.80478 2.45118 5.48819 2.45118 5.29293 2.64645L2.29293 5.64645C2.09767 5.84171 2.09767 6.15829 2.29293 6.35355L5.29293 9.35355C5.48819 9.54882 5.80478 9.54882 6.00004 9.35355C6.1953 9.15829 6.1953 8.84171 6.00004 8.64645L3.35359 6L6.00004 3.35355ZM9.70714 3.35355C9.90241 3.15829 9.90241 2.84171 9.70714 2.64645C9.51188 2.45118 9.1953 2.45118 9.00004 2.64645L6.00004 5.64645C5.80478 5.84171 5.80478 6.15829 6.00004 6.35355L9.00004 9.35355C9.1953 9.54882 9.51188 9.54882 9.70714 9.35355C9.90241 9.15829 9.90241 8.84171 9.70714 8.64645L7.0607 6L9.70714 3.35355Z" fill="#18202A"/>
</svg>
