<svg width="12" height="12" viewBox="0 0 12 12" fill="none" xmlns="http://www.w3.org/2000/svg">
<path fill-rule="evenodd" clip-rule="evenodd" d="M8.00002 2.6875C8.00002 4.25 7.33335 5.5 6.00002 5.5C4.66668 5.5 4.00002 4.25 4.00002 2.6875C4.00002 1.4375 4.66668 0.5 6.00002 0.5C7.33335 0.5 8.00002 1.4375 8.00002 2.6875ZM7.25002 2.6875C7.25002 3.37655 7.10085 3.92104 6.87303 4.26813C6.66539 4.58445 6.39129 4.75 6.00002 4.75C5.60874 4.75 5.33464 4.58445 5.12701 4.26813C4.89918 3.92104 4.75002 3.37655 4.75002 2.6875C4.75002 2.18758 4.88353 1.83098 5.07053 1.61184C5.24307 1.40964 5.52302 1.25 6.00002 1.25C6.47701 1.25 6.75696 1.40964 6.9295 1.61184C7.1165 1.83098 7.25002 2.18758 7.25002 2.6875ZM6.49311 10.7355C6.59934 10.9938 6.73788 11.2354 6.90369 11.4552C6.60649 11.4848 6.30502 11.5 6.00001 11.5C5.22632 11.5 4.47542 11.4024 3.75897 11.2188C3.14945 11.0626 2.63286 10.6543 2.34994 10.0923C2.26608 9.92566 2.18786 9.75572 2.11555 9.58271C1.8083 8.84756 1.93075 7.98746 2.49967 7.42962C3.40158 6.5453 4.63712 6 6.00002 6C6.79444 6 7.54558 6.18527 8.21261 6.51496C7.92778 6.63797 7.66404 6.80055 7.42833 6.99577C6.98202 6.83659 6.50127 6.75 6.00002 6.75C4.8413 6.75 3.79215 7.21272 3.02476 7.96515C2.70284 8.28079 2.60284 8.8037 2.80755 9.2935C2.87303 9.45018 2.94388 9.6041 3.01985 9.75503C3.20301 10.1189 3.54049 10.3885 3.94517 10.4922C4.60129 10.6604 5.28964 10.75 6.00001 10.75C6.16562 10.75 6.33003 10.7451 6.49311 10.7355ZM12 9.5C12 10.8807 10.8807 12 9.50002 12C8.1193 12 7.00002 10.8807 7.00002 9.5C7.00002 8.11929 8.1193 7 9.50002 7C10.8807 7 12 8.11929 12 9.5ZM10.7375 8.26258C10.8839 8.40903 10.8839 8.64647 10.7375 8.79291L10.0303 9.50002L10.7375 10.2071C10.8839 10.3536 10.8839 10.591 10.7375 10.7375C10.591 10.8839 10.3536 10.8839 10.2071 10.7375L9.50002 10.0303L8.79291 10.7375C8.64646 10.8839 8.40903 10.8839 8.26258 10.7375C8.11613 10.591 8.11613 10.3536 8.26258 10.2071L8.96969 9.50002L8.26258 8.79291C8.11613 8.64647 8.11613 8.40903 8.26258 8.26258C8.40903 8.11614 8.64646 8.11614 8.79291 8.26258L9.50002 8.96969L10.2071 8.26258C10.3536 8.11614 10.591 8.11614 10.7375 8.26258Z" fill="#18202A"/>
</svg>
