<svg width="12" height="12" viewBox="0 0 12 12" fill="none" xmlns="http://www.w3.org/2000/svg">
<path d="M3.32875 2.85907C2.07019 3.66675 1.12774 4.84744 0.661211 5.50719C0.450658 5.80495 0.450658 6.19505 0.66121 6.49281C1.41737 7.56214 3.42377 10 6.00002 10C7.22759 10 8.32577 9.44649 9.22096 8.75128L8.68604 8.21635C7.88263 8.82393 6.96959 9.25 6.00002 9.25C4.95148 9.25 3.96906 8.7517 3.11993 8.06443C2.27591 7.3813 1.6309 6.5651 1.27358 6.05978C1.25846 6.03841 1.2533 6.01793 1.2533 6C1.2533 5.98207 1.25846 5.96159 1.27358 5.94022C1.6309 5.4349 2.27591 4.6187 3.11993 3.93557C3.36078 3.74063 3.61235 3.5609 3.87311 3.40343L3.32875 2.85907Z" fill="#18202A"/>
<path d="M4.84016 4.37047C4.33162 4.73309 4.00002 5.32782 4.00002 6C4.00002 7.10457 4.89545 8 6.00002 8C6.67219 8 7.26693 7.6684 7.62954 7.15986L7.08713 6.61744C6.87209 6.99523 6.46581 7.25 6.00002 7.25C5.30966 7.25 4.75002 6.69036 4.75002 6C4.75002 5.53421 5.00478 5.12792 5.38258 4.91289L4.84016 4.37047Z" fill="#18202A"/>
<path d="M6.32228 4.79194L5.57549 4.04515C5.71231 4.01557 5.85435 4 6.00002 4C7.10458 4 8.00002 4.89543 8.00002 6C8.00002 6.14567 7.98444 6.2877 7.95487 6.42452L7.20808 5.67773C7.09331 5.24638 6.75364 4.90671 6.32228 4.79194Z" fill="#18202A"/>
<path d="M9.26379 7.73345C9.92019 7.13189 10.4254 6.48551 10.7265 6.05978C10.7416 6.03841 10.7467 6.01793 10.7467 6C10.7467 5.98207 10.7416 5.96159 10.7265 5.94022C10.3691 5.4349 9.72413 4.6187 8.88011 3.93557C8.03097 3.2483 7.04855 2.75 6.00002 2.75C5.50876 2.75 5.03201 2.85938 4.57668 3.04634L4.00872 2.47838C4.61937 2.18625 5.28793 2 6.00002 2C8.57627 2 10.5827 4.43786 11.3388 5.50719C11.5494 5.80495 11.5494 6.19505 11.3388 6.49281C11.0242 6.93775 10.4931 7.61963 9.79458 8.26423L9.26379 7.73345Z" fill="#18202A"/>
<path fill-rule="evenodd" clip-rule="evenodd" d="M1.48485 1.48483C1.6313 1.33839 1.86873 1.33839 2.01518 1.48483L10.5152 9.98483C10.6616 10.1313 10.6616 10.3687 10.5152 10.5152C10.3687 10.6616 10.1313 10.6616 9.98485 10.5152L1.48485 2.01517C1.3384 1.86872 1.3384 1.63128 1.48485 1.48483Z" fill="#18202A"/>
</svg>
