<svg width="12" height="12" viewBox="0 0 12 12" fill="none" xmlns="http://www.w3.org/2000/svg">
<path fill-rule="evenodd" clip-rule="evenodd" d="M6 5.5C7.33333 5.5 8 4.25 8 2.6875C8 1.4375 7.33333 0.5 6 0.5C4.66667 0.5 4 1.4375 4 2.6875C4 4.25 4.66667 5.5 6 5.5ZM6.00002 6.5C6.48638 6.5 6.95651 6.56944 7.40106 6.69895C6.55034 7.33744 6 8.35445 6 9.5C6 10.2347 6.22635 10.9165 6.61312 11.4794C6.41051 11.4931 6.20607 11.5 6.00001 11.5C5.22631 11.5 4.47541 11.4024 3.75897 11.2188C3.14945 11.0626 2.63285 10.6543 2.34993 10.0922L2.32658 10.0455C1.93547 9.25568 2.06847 8.28806 2.73583 7.7124C3.61173 6.95686 4.75252 6.5 6.00002 6.5ZM12 9.5C12 10.8807 10.8807 12 9.5 12C8.11929 12 7 10.8807 7 9.5C7 8.11929 8.11929 7 9.5 7C10.8807 7 12 8.11929 12 9.5ZM9.5 7.65C9.22023 7.65 8.98437 7.66921 8.80429 7.69164C8.38627 7.74369 8.125 8.10492 8.125 8.4807V8.58937C8.125 8.8228 8.21773 9.04667 8.38278 9.21172C8.52923 9.35817 8.76667 9.35817 8.91312 9.21172C9.05956 9.06528 9.05956 8.82784 8.91312 8.68139C8.88871 8.65699 8.875 8.62389 8.875 8.58937L8.875 8.4807C8.875 8.46055 8.88179 8.44767 8.88662 8.44181C8.88892 8.43901 8.89069 8.43785 8.8915 8.43739C8.89192 8.43716 8.89279 8.43669 8.8946 8.43629C8.89526 8.43614 8.89603 8.436 8.89696 8.43589C9.04965 8.41688 9.25442 8.4 9.5 8.4C9.72648 8.4 9.91826 8.41435 10.0665 8.4315C10.0816 8.43325 10.0928 8.43934 10.1028 8.45151C10.1142 8.46521 10.125 8.48878 10.125 8.52077C10.125 8.70801 10.0159 8.87807 9.84565 8.95608L9.57104 9.08193C9.29926 9.20649 9.125 9.47802 9.125 9.77699C9.125 9.9841 9.2929 10.152 9.5 10.152C9.70711 10.152 9.875 9.9841 9.875 9.77699C9.875 9.77129 9.87832 9.76612 9.8835 9.76374L10.1581 9.63789C10.5949 9.43771 10.875 9.00128 10.875 8.52077C10.875 8.12192 10.5975 7.73792 10.1527 7.68647C9.9787 7.66634 9.75803 7.65 9.5 7.65ZM9.5 11.5C9.77614 11.5 10 11.2761 10 11C10 10.7239 9.77614 10.5 9.5 10.5C9.22386 10.5 9 10.7239 9 11C9 11.2761 9.22386 11.5 9.5 11.5Z" fill="#18202A"/>
</svg>
