<svg width="12" height="12" viewBox="0 0 12 12" fill="none" xmlns="http://www.w3.org/2000/svg">
<path fill-rule="evenodd" clip-rule="evenodd" d="M0.5 2.5C0.5 1.67157 1.17157 1 2 1H8.5C9.15311 1 9.70873 1.4174 9.91465 2H2V2.5H9.5C10.6046 2.5 11.5 3.39543 11.5 4.5V9C11.5 10.1046 10.6046 11 9.5 11H2.5C1.39543 11 0.5 10.1046 0.5 9V2.5ZM7 5.5C6.44772 5.5 6 5.94772 6 6.5V7.5C6 8.05228 6.44772 8.5 7 8.5H10.5V5.5H7Z" fill="#18202A"/>
<path d="M8 7C8 7.27614 7.77614 7.5 7.5 7.5C7.22386 7.5 7 7.27614 7 7C7 6.72386 7.22386 6.5 7.5 6.5C7.77614 6.5 8 6.72386 8 7Z" fill="#18202A"/>
</svg>
