<svg width="12" height="12" viewBox="0 0 12 12" fill="none" xmlns="http://www.w3.org/2000/svg">
<g clip-path="url(#clip0_2301_8428)">
<path fill-rule="evenodd" clip-rule="evenodd" d="M6.375 1.25V4.875C6.375 5.28921 6.71079 5.625 7.125 5.625H10.75C11.1642 5.625 11.5 5.28921 11.5 4.875V3C11.5 1.61929 10.3807 0.5 9 0.5H7.125C6.71079 0.5 6.375 0.835786 6.375 1.25ZM5.625 1.25C5.625 0.835786 5.28921 0.5 4.875 0.5H3C1.61929 0.5 0.5 1.61929 0.5 3V9C0.5 10.3807 1.61929 11.5 3 11.5H4.875C5.28921 11.5 5.625 11.1642 5.625 10.75V1.25ZM6.375 7.125V10.75C6.375 11.1642 6.71079 11.5 7.125 11.5H9C10.3807 11.5 11.5 10.3807 11.5 9V7.125C11.5 6.71079 11.1642 6.375 10.75 6.375H7.125C6.71079 6.375 6.375 6.71079 6.375 7.125ZM7.125 10.75H9C9.9665 10.75 10.75 9.9665 10.75 9V7.125H7.125V10.75ZM7.125 4.875H10.75V3C10.75 2.0335 9.9665 1.25 9 1.25H7.125V4.875ZM4.875 1.25H3C2.0335 1.25 1.25 2.0335 1.25 3V9C1.25 9.9665 2.0335 10.75 3 10.75H4.875V1.25Z" fill="#18202A"/>
</g>
<defs>
<clipPath id="clip0_2301_8428">
<rect width="12" height="12" fill="white"/>
</clipPath>
</defs>
</svg>
