<svg width="12" height="12" viewBox="0 0 12 12" fill="none" xmlns="http://www.w3.org/2000/svg">
<path fill-rule="evenodd" clip-rule="evenodd" d="M8.00002 2.6875C8.00002 4.25 7.33335 5.5 6.00002 5.5C4.66668 5.5 4.00002 4.25 4.00002 2.6875C4.00002 1.4375 4.66668 0.5 6.00002 0.5C7.33335 0.5 8.00002 1.4375 8.00002 2.6875ZM7.25002 2.6875C7.25002 3.37655 7.10085 3.92104 6.87303 4.26813C6.66539 4.58445 6.39129 4.75 6.00002 4.75C5.60874 4.75 5.33464 4.58445 5.12701 4.26813C4.89918 3.92104 4.75002 3.37655 4.75002 2.6875C4.75002 2.18758 4.88353 1.83098 5.07053 1.61184C5.24307 1.40964 5.52302 1.25 6.00002 1.25C6.47701 1.25 6.75696 1.40964 6.9295 1.61184C7.1165 1.83098 7.25002 2.18758 7.25002 2.6875ZM5.54311 10.7376C5.59124 11.0066 5.67848 11.262 5.79875 11.4978C5.09601 11.4824 4.41313 11.3864 3.75897 11.2188C3.14945 11.0626 2.63286 10.6543 2.34994 10.0923C2.26608 9.92566 2.18786 9.75572 2.11555 9.58271C1.8083 8.84756 1.93075 7.98746 2.49967 7.42962C3.40158 6.5453 4.63712 6 6.00002 6C6.33585 6 6.66395 6.03311 6.98123 6.09624C6.85979 6.32023 6.75912 6.55711 6.68178 6.80431C6.45985 6.76857 6.23213 6.75 6.00002 6.75C4.8413 6.75 3.79215 7.21272 3.02476 7.96515C2.70284 8.28079 2.60284 8.8037 2.80755 9.2935C2.87303 9.45018 2.94388 9.6041 3.01985 9.75503C3.20301 10.1189 3.54049 10.3885 3.94517 10.4922C4.45964 10.6241 4.99393 10.7076 5.54311 10.7376ZM9.87502 7.875C9.87502 7.59886 10.0989 7.375 10.375 7.375C10.6512 7.375 10.875 7.59886 10.875 7.875V8.25C10.875 8.45711 11.0429 8.625 11.25 8.625C11.4571 8.625 11.625 8.45711 11.625 8.25V7.875C11.625 7.18464 11.0654 6.625 10.375 6.625C9.68466 6.625 9.12502 7.18464 9.12502 7.875V8.5H7.50002C6.94773 8.5 6.50002 8.94772 6.50002 9.5V11C6.50002 11.5523 6.94773 12 7.50002 12H9.50002C10.0523 12 10.5 11.5523 10.5 11V9.5C10.5 9.08033 10.2415 8.72104 9.87502 8.57269V7.875ZM8.50002 9.625C8.70712 9.625 8.87502 9.79289 8.87502 10V10.5C8.87502 10.7071 8.70712 10.875 8.50002 10.875C8.29291 10.875 8.12502 10.7071 8.12502 10.5V10C8.12502 9.79289 8.29291 9.625 8.50002 9.625Z" fill="#18202A"/>
</svg>
