<svg width="12" height="12" viewBox="0 0 12 12" fill="none" xmlns="http://www.w3.org/2000/svg">
<path fill-rule="evenodd" clip-rule="evenodd" d="M2.29289 0.792893C2.48043 0.605357 2.73478 0.5 3 0.5H9C9.26522 0.5 9.51957 0.605356 9.70711 0.792893C9.89464 0.98043 10 1.23478 10 1.5V11C10 11.1873 9.89533 11.3589 9.72879 11.4446C9.56226 11.5303 9.36179 11.5157 9.20938 11.4069L7.75 10.3645L6.29062 11.4069C6.11677 11.531 5.88323 11.531 5.70938 11.4069L4.25 10.3645L2.79062 11.4069C2.63821 11.5157 2.43774 11.5303 2.27121 11.4446C2.10467 11.3589 2 11.1873 2 11V1.5C2 1.23478 2.10536 0.980429 2.29289 0.792893ZM4 3.5C4 3.22386 4.22386 3 4.5 3H7.5C7.77614 3 8 3.22386 8 3.5C8 3.77614 7.77614 4 7.5 4H4.5C4.22386 4 4 3.77614 4 3.5ZM4.5 5C4.22386 5 4 5.22386 4 5.5C4 5.77614 4.22386 6 4.5 6H7.5C7.77614 6 8 5.77614 8 5.5C8 5.22386 7.77614 5 7.5 5H4.5ZM4 7.5C4 7.22386 4.22386 7 4.5 7H7.5C7.77614 7 8 7.22386 8 7.5C8 7.77614 7.77614 8 7.5 8H4.5C4.22386 8 4 7.77614 4 7.5Z" fill="#18202A"/>
</svg>
