<svg width="12" height="12" viewBox="0 0 12 12" fill="none" xmlns="http://www.w3.org/2000/svg">
<path d="M8.89316 2.30893C9.06377 2.0918 9.02605 1.77747 8.80891 1.60686C8.59177 1.43626 8.27745 1.47397 8.10684 1.69111L2.95504 8.24795L1.85355 7.14647C1.65829 6.95121 1.34171 6.95121 1.14645 7.14647C0.951184 7.34173 0.951184 7.65831 1.14645 7.85357L2.64645 9.35357C2.74755 9.45468 2.88711 9.50766 3.02984 9.49913C3.17257 9.4906 3.30482 9.42136 3.39316 9.30893L8.89316 2.30893Z" fill="#18202A"/>
<path d="M9.5 3.5C9.22386 3.5 9 3.72386 9 4C9 4.27614 9.22386 4.5 9.5 4.5H10.5C10.7761 4.5 11 4.27614 11 4C11 3.72386 10.7761 3.5 10.5 3.5H9.5Z" fill="#18202A"/>
<path d="M7 6.5C7 6.22386 7.22386 6 7.5 6H10.5C10.7761 6 11 6.22386 11 6.5C11 6.77614 10.7761 7 10.5 7H7.5C7.22386 7 7 6.77614 7 6.5Z" fill="#18202A"/>
<path d="M5.5 8.5C5.22386 8.5 5 8.72386 5 9C5 9.27614 5.22386 9.5 5.5 9.5H10.5C10.7761 9.5 11 9.27614 11 9C11 8.72386 10.7761 8.5 10.5 8.5H5.5Z" fill="#18202A"/>
</svg>
