<svg width="12" height="12" viewBox="0 0 12 12" fill="none" xmlns="http://www.w3.org/2000/svg">
<g clip-path="url(#clip0_2266_36627)">
<path fill-rule="evenodd" clip-rule="evenodd" d="M11.5 6C11.5 6.97433 11.2466 7.88948 10.8022 8.68318L8.11353 5.99448L8.6437 5.45429C8.74865 5.34735 8.76868 5.20246 8.73469 5.08624C8.70063 4.96975 8.60177 4.85155 8.44306 4.82739L6.9829 4.60515L6.32372 3.20809C6.19281 2.93064 5.8072 2.93063 5.67628 3.20809L5.56436 3.44531L3.31682 1.19777C4.11052 0.753352 5.02567 0.5 6 0.5C9.03757 0.5 11.5 2.96243 11.5 6ZM9.51919 10.2269L10.6116 11.3194C10.8329 11.5406 11.1706 11.5615 11.3661 11.3661C11.5615 11.1706 11.5406 10.8329 11.3194 10.6116L1.38835 0.680618C1.16713 0.459396 0.829365 0.438493 0.633929 0.633929C0.438493 0.829365 0.459396 1.16713 0.680618 1.38835L1.77308 2.48082C0.978197 3.43451 0.5 4.66141 0.5 6C0.5 9.03757 2.96243 11.5 6 11.5C7.33859 11.5 8.56549 11.0218 9.51919 10.2269ZM7.70859 8.41633C7.70679 8.41784 7.70497 8.41934 7.70313 8.42082C7.60145 8.50285 7.44924 8.53207 7.31082 8.45602L6 7.73588L4.68919 8.45602C4.55076 8.53207 4.39856 8.50285 4.29688 8.42082C4.19715 8.34037 4.14176 8.20845 4.16461 8.06933L4.41666 6.53455L3.35613 5.45247C3.25124 5.34545 3.23131 5.20054 3.26539 5.08433C3.29955 4.96784 3.39853 4.8497 3.5573 4.8257L4.04433 4.75207L7.70859 8.41633Z" fill="#18202A"/>
</g>
<defs>
<clipPath id="clip0_2266_36627">
<rect width="12" height="12" fill="white"/>
</clipPath>
</defs>
</svg>
