<svg width="12" height="12" viewBox="0 0 12 12" fill="none" xmlns="http://www.w3.org/2000/svg">
<g clip-path="url(#clip0_2266_35931)">
<path d="M7 6C7 6.55228 6.55228 7 6 7C5.44772 7 5 6.55228 5 6C5 5.44772 5.44772 5 6 5C6.55228 5 7 5.44772 7 6Z" fill="#18202A"/>
<path fill-rule="evenodd" clip-rule="evenodd" d="M4.68356 0.909476C4.72724 0.672234 4.93407 0.5 5.1753 0.5H6.81759C7.05881 0.5 7.26565 0.672234 7.30932 0.909476L7.46278 1.74309C8.01486 1.93275 8.51842 2.22679 8.94988 2.60164L9.74851 2.31775C9.97581 2.23695 10.2284 2.32996 10.349 2.53887L11.1701 3.96113C11.2908 4.17004 11.245 4.43528 11.0614 4.59172L10.4179 5.13996C10.4718 5.41835 10.5 5.70588 10.5 6C10.5 6.29412 10.4718 6.58164 10.4179 6.86002L11.0614 7.40827C11.245 7.56471 11.2908 7.82996 11.1702 8.03887L10.349 9.46113C10.2284 9.67004 9.97582 9.76305 9.74853 9.68225L8.94989 9.39835C8.51842 9.7732 8.01486 10.0672 7.46278 10.2569L7.30932 11.0905C7.26565 11.3278 7.05882 11.5 6.81759 11.5H5.1753C4.93407 11.5 4.72724 11.3278 4.68356 11.0905L4.52962 10.2543C3.97964 10.0642 3.478 9.77054 3.04805 9.39655L2.24435 9.68225C2.01705 9.76305 1.76448 9.67004 1.64386 9.46113L0.822718 8.03887C0.702104 7.82996 0.747845 7.56471 0.931466 7.40827L1.58109 6.85479C1.52787 6.57805 1.50001 6.29228 1.50001 6C1.50001 5.70772 1.52787 5.42194 1.58109 5.14519L0.93148 4.59172C0.74786 4.43528 0.702118 4.17004 0.822732 3.96113L1.64388 2.53887C1.76449 2.32996 2.01707 2.23695 2.24436 2.31775L3.04806 2.60344C3.478 2.22946 3.97964 1.93576 4.52962 1.74571L4.68356 0.909476ZM8 6C8 7.10457 7.10457 8 6 8C4.89543 8 4 7.10457 4 6C4 4.89543 4.89543 4 6 4C7.10457 4 8 4.89543 8 6Z" fill="#18202A"/>
</g>
<defs>
<clipPath id="clip0_2266_35931">
<rect width="12" height="12" fill="white"/>
</clipPath>
</defs>
</svg>
