<svg width="12" height="12" viewBox="0 0 12 12" fill="none" xmlns="http://www.w3.org/2000/svg">
<g clip-path="url(#clip0_3293_9045)">
<g clip-path="url(#clip1_3293_9045)">
<path fill-rule="evenodd" clip-rule="evenodd" d="M7 2C7.27614 2 7.5 2.22386 7.5 2.5V2.875H7.75C8.02614 2.875 8.25 3.09886 8.25 3.375C8.25 3.65114 8.02614 3.875 7.75 3.875H7.5V7.5C7.5 7.77614 7.27614 8 7 8C6.76345 8 6.56527 7.83573 6.5133 7.61505C6.19768 7.85653 5.8031 8 5.375 8C4.33947 8 3.5 7.16053 3.5 6.125C3.5 5.08947 4.33947 4.25 5.375 4.25C5.7971 4.25 6.18663 4.38948 6.5 4.62486V3.875H6.25C5.97386 3.875 5.75 3.65114 5.75 3.375C5.75 3.09886 5.97386 2.875 6.25 2.875H6.5V2.5C6.5 2.22386 6.72386 2 7 2ZM5.375 7C5.85825 7 6.25 6.60825 6.25 6.125C6.25 5.64175 5.85825 5.25 5.375 5.25C4.89175 5.25 4.5 5.64175 4.5 6.125C4.5 6.60825 4.89175 7 5.375 7Z" fill="#18202A"/>
<path d="M4 8.5C3.72386 8.5 3.5 8.72386 3.5 9C3.5 9.27614 3.72386 9.5 4 9.5H7C7.27614 9.5 7.5 9.27614 7.5 9C7.5 8.72386 7.27614 8.5 7 8.5H4Z" fill="#18202A"/>
<path fill-rule="evenodd" clip-rule="evenodd" d="M11.5 6C11.5 9.03757 9.03757 11.5 6 11.5C2.96243 11.5 0.5 9.03757 0.5 6C0.5 2.96243 2.96243 0.5 6 0.5C9.03757 0.5 11.5 2.96243 11.5 6ZM10.5 6C10.5 8.48528 8.48528 10.5 6 10.5C3.51472 10.5 1.5 8.48528 1.5 6C1.5 3.51472 3.51472 1.5 6 1.5C8.48528 1.5 10.5 3.51472 10.5 6Z" fill="#18202A"/>
</g>
</g>
<defs>
<clipPath id="clip0_3293_9045">
<rect width="12" height="12" fill="white"/>
</clipPath>
<clipPath id="clip1_3293_9045">
<rect width="12" height="12" fill="white"/>
</clipPath>
</defs>
</svg>
