<svg width="12" height="12" viewBox="0 0 12 12" fill="none" xmlns="http://www.w3.org/2000/svg">
<path d="M3 5.5C2.17157 5.5 1.5 4.82843 1.5 4V3.5C1.5 2.67157 2.17157 2 3 2H3.5C4.32144 2 4.98866 2.66029 4.99986 3.47907C5.12515 5.12905 5.00434 6.59027 4.55485 7.66214C4.32689 8.20572 4.0059 8.66918 3.57025 8.99714C3.12928 9.3291 2.59989 9.50002 2 9.50002C1.72386 9.50002 1.5 9.27617 1.5 9.00002C1.5 8.72388 1.72386 8.50002 2 8.50002C2.40011 8.50002 2.71447 8.3897 2.96881 8.19822C3.22848 8.00274 3.45436 7.70057 3.63265 7.27541C3.68039 7.16158 3.73644 7.03998 3.7568 6.9178C3.86819 6.24949 3.73953 5.9123 3.60957 5.74985C3.48031 5.58828 3.26999 5.5 3 5.5Z" fill="#18202A"/>
<path d="M10.4999 3.47907C10.4887 2.66029 9.82144 2 9 2H8.5C7.67157 2 7 2.67157 7 3.5V4C7 4.82843 7.67157 5.5 8.5 5.5C8.76999 5.5 8.98031 5.58828 9.10957 5.74985C9.23953 5.9123 9.36819 6.24949 9.2568 6.9178C9.23644 7.03998 9.18039 7.16158 9.13265 7.27541C8.95436 7.70057 8.72848 8.00274 8.46881 8.19822C8.21447 8.3897 7.90011 8.50002 7.5 8.50002C7.22386 8.50002 7 8.72388 7 9.00002C7 9.27617 7.22386 9.50002 7.5 9.50002C8.09989 9.50002 8.62929 9.3291 9.07025 8.99714C9.5059 8.66918 9.82689 8.20572 10.0548 7.66214C10.5043 6.59026 10.6252 5.12905 10.4999 3.47907Z" fill="#18202A"/>
</svg>
