<svg width="12" height="12" viewBox="0 0 12 12" fill="none" xmlns="http://www.w3.org/2000/svg">
<g clip-path="url(#clip0_2266_30453)">
<path fill-rule="evenodd" clip-rule="evenodd" d="M4.25 0.25C4.52614 0.25 4.75 0.473858 4.75 0.75V1.75C4.75 2.02614 4.52614 2.25 4.25 2.25C3.97386 2.25 3.75 2.02614 3.75 1.75V0.75C3.75 0.473858 3.97386 0.25 4.25 0.25ZM1.39645 1.39645C1.59171 1.20118 1.90829 1.20118 2.10355 1.39645L2.85355 2.14645C3.04882 2.34171 3.04882 2.65829 2.85355 2.85355C2.65829 3.04882 2.34171 3.04882 2.14645 2.85355L1.39645 2.10355C1.20118 1.90829 1.20118 1.59171 1.39645 1.39645ZM0.25 4.25C0.25 3.97386 0.473858 3.75 0.75 3.75H1.75C2.02614 3.75 2.25 3.97386 2.25 4.25C2.25 4.52614 2.02614 4.75 1.75 4.75H0.75C0.473858 4.75 0.25 4.52614 0.25 4.25ZM5.99999 1.75749C7.17156 0.585917 9.07105 0.585917 10.2426 1.75749C11.4142 2.92906 11.4142 4.82856 10.2426 6.00013L9.18197 7.06079C8.9867 7.25605 8.67012 7.25605 8.47486 7.06079C8.2796 6.86553 8.2796 6.54895 8.47486 6.35368L9.53552 5.29302C10.3166 4.51198 10.3166 3.24565 9.53552 2.4646C8.75447 1.68355 7.48814 1.68355 6.70709 2.4646L5.64643 3.52526C5.45117 3.72052 5.13459 3.72052 4.93933 3.52526C4.74406 3.32999 4.74406 3.01341 4.93933 2.81815L5.99999 1.75749ZM1.75734 5.99971C0.585764 7.17128 0.585764 9.07078 1.75734 10.2424C2.92891 11.4139 4.8284 11.4139 5.99998 10.2424L7.06064 9.18169C7.2559 8.98643 7.2559 8.66985 7.06064 8.47459C6.86538 8.27932 6.54879 8.27932 6.35353 8.47459L5.29287 9.53524C4.51182 10.3163 3.24549 10.3163 2.46444 9.53524C1.6834 8.7542 1.6834 7.48787 2.46444 6.70682L3.5251 5.64616C3.72037 5.4509 3.72037 5.13431 3.5251 4.93905C3.32984 4.74379 3.01326 4.74379 2.818 4.93905L1.75734 5.99971ZM7.25 11.25C7.25 11.5261 7.47386 11.75 7.75 11.75C8.02614 11.75 8.25 11.5261 8.25 11.25V10.25C8.25 9.97386 8.02614 9.75 7.75 9.75C7.47386 9.75 7.25 9.97386 7.25 10.25V11.25ZM9.14645 9.85355L9.89645 10.6036C10.0917 10.7988 10.4083 10.7988 10.6036 10.6036C10.7988 10.4083 10.7988 10.0917 10.6036 9.89645L9.85355 9.14645C9.65829 8.95118 9.34171 8.95118 9.14645 9.14645C8.95118 9.34171 8.95118 9.65829 9.14645 9.85355ZM11.25 8.25C11.5261 8.25 11.75 8.02614 11.75 7.75C11.75 7.47386 11.5261 7.25 11.25 7.25H10.25C9.97386 7.25 9.75 7.47386 9.75 7.75C9.75 8.02614 9.97386 8.25 10.25 8.25H11.25Z" fill="#18202A"/>
</g>
<defs>
<clipPath id="clip0_2266_30453">
<rect width="12" height="12" fill="white"/>
</clipPath>
</defs>
</svg>
