<svg width="12" height="12" viewBox="0 0 12 12" fill="none" xmlns="http://www.w3.org/2000/svg">
<g clip-path="url(#clip0_3015_8701)">
<path fill-rule="evenodd" clip-rule="evenodd" d="M10 6.75C10 7.7165 9.2165 8.5 8.25 8.5C7.2835 8.5 6.5 7.7165 6.5 6.75C6.5 5.7835 7.2835 5 8.25 5C9.2165 5 10 5.7835 10 6.75ZM8.25 5.75C8.80228 5.75 9.25 6.19772 9.25 6.75C9.25 7.30228 8.80228 7.75 8.25 7.75C7.69772 7.75 7.25 7.30228 7.25 6.75C7.25 6.19772 7.69772 5.75 8.25 5.75Z" fill="#18202A"/>
<path fill-rule="evenodd" clip-rule="evenodd" d="M3.75 8.5C4.7165 8.5 5.5 7.7165 5.5 6.75C5.5 5.7835 4.7165 5 3.75 5C2.7835 5 2 5.7835 2 6.75C2 7.7165 2.7835 8.5 3.75 8.5ZM4.75 6.75C4.75 6.19772 4.30228 5.75 3.75 5.75C3.19772 5.75 2.75 6.19772 2.75 6.75C2.75 7.30228 3.19772 7.75 3.75 7.75C4.30228 7.75 4.75 7.30228 4.75 6.75Z" fill="#18202A"/>
<path d="M5.375 9.5C5.16789 9.5 5 9.66789 5 9.875C5 10.0821 5.16789 10.25 5.375 10.25H6.625C6.83211 10.25 7 10.0821 7 9.875C7 9.66789 6.83211 9.5 6.625 9.5H5.375Z" fill="#18202A"/>
<path fill-rule="evenodd" clip-rule="evenodd" d="M7 1.5C7 0.947715 6.55228 0.5 6 0.5C5.44772 0.5 5 0.947715 5 1.5C5 1.91967 5.25852 2.27896 5.625 2.42731V3H4.5C2.73676 3 1.27806 4.30385 1.03544 6H0.75C0.335786 6 0 6.33579 0 6.75V8.25C0 8.66421 0.335786 9 0.75 9H1V9.5C1 10.6046 1.89543 11.5 3 11.5H9C10.1046 11.5 11 10.6046 11 9.5V9H11.25C11.6642 9 12 8.66421 12 8.25V6.75C12 6.33579 11.6642 6 11.25 6H10.9646C10.7219 4.30385 9.26324 3 7.5 3H6.375V2.42731C6.74148 2.27896 7 1.91967 7 1.5ZM7.5 3.75C9.01878 3.75 10.25 4.98122 10.25 6.5V9.5C10.25 10.1904 9.69036 10.75 9 10.75H3C2.30964 10.75 1.75 10.1904 1.75 9.5V6.5C1.75 4.98122 2.98122 3.75 4.5 3.75H7.5Z" fill="#18202A"/>
</g>
<defs>
<clipPath id="clip0_3015_8701">
<rect width="12" height="12" fill="white"/>
</clipPath>
</defs>
</svg>
