<svg width="12" height="12" viewBox="0 0 12 12" fill="none" xmlns="http://www.w3.org/2000/svg">
<path fill-rule="evenodd" clip-rule="evenodd" d="M1.26517 3.26517L2.76517 1.76517C2.91161 1.61872 2.91161 1.38128 2.76517 1.23483C2.61872 1.08839 2.38128 1.08839 2.23483 1.23483L0.734835 2.73483C0.588388 2.88128 0.588388 3.11872 0.734835 3.26517C0.881282 3.41161 1.11872 3.41161 1.26517 3.26517ZM10.25 6.5C10.25 8.84721 8.34721 10.75 6 10.75C3.65279 10.75 1.75 8.84721 1.75 6.5C1.75 4.15279 3.65279 2.25 6 2.25C8.34721 2.25 10.25 4.15279 10.25 6.5ZM11 6.5C11 9.26142 8.76142 11.5 6 11.5C3.23858 11.5 1 9.26142 1 6.5C1 3.73858 3.23858 1.5 6 1.5C8.76142 1.5 11 3.73858 11 6.5ZM9.23483 1.76517L10.7348 3.26517C10.8813 3.41161 11.1187 3.41161 11.2652 3.26517C11.4116 3.11872 11.4116 2.88128 11.2652 2.73483L9.76517 1.23483C9.61872 1.08839 9.38128 1.08839 9.23483 1.23483C9.08839 1.38128 9.08839 1.61872 9.23483 1.76517ZM6.375 3.5C6.375 3.29289 6.20711 3.125 6 3.125C5.79289 3.125 5.625 3.29289 5.625 3.5V6.5C5.625 6.65001 5.7144 6.78559 5.85228 6.84468L7.60228 7.59468C7.79264 7.67626 8.0131 7.58808 8.09468 7.39772C8.17626 7.20736 8.08808 6.9869 7.89772 6.90532L6.375 6.25273V3.5Z" fill="#18202A"/>
</svg>
