<svg width="12" height="12" viewBox="0 0 12 12" fill="none" xmlns="http://www.w3.org/2000/svg">
<path d="M1.62977 1.09693C1.48166 0.963314 1.25317 0.96784 1.1105 1.1105C0.963165 1.25784 0.963165 1.49673 1.1105 1.64407L2.29548 2.82904C1.90606 3.28347 1.60238 3.80721 1.40148 4.37494C1.33239 4.57018 1.43466 4.78447 1.6299 4.85356C1.82514 4.92265 2.03943 4.82038 2.10852 4.62514C2.27204 4.16304 2.51603 3.73538 2.82767 3.36123L8.63844 9.17201C8.13886 9.58697 7.5478 9.87855 6.9131 10.0222C6.23347 10.1759 5.52597 10.155 4.8566 9.96142C4.18724 9.7678 3.57782 9.40778 3.08523 8.91494C3.08246 8.91217 3.07965 8.90944 3.07679 8.90676L1.44669 7.375H3C3.20711 7.375 3.375 7.20711 3.375 7C3.375 6.79289 3.20711 6.625 3 6.625H0.5C0.292893 6.625 0.125 6.79289 0.125 7V9.5C0.125 9.70711 0.292893 9.875 0.5 9.875C0.707107 9.875 0.875 9.70711 0.875 9.5V7.86696L2.55901 9.44937C3.14042 10.0296 3.85906 10.4536 4.64821 10.6819C5.43928 10.9107 6.27542 10.9354 7.07861 10.7537C7.8513 10.5788 8.56926 10.2184 9.17069 9.70425L10.3559 10.8895C10.5033 11.0368 10.7422 11.0368 10.8895 10.8895C11.0322 10.7468 11.0367 10.5183 10.9031 10.3702L1.62977 1.09693Z" fill="#18202A"/>
<path d="M10.1518 8.55833C10.3327 8.26512 10.4827 7.95244 10.5985 7.62514C10.6676 7.42989 10.5653 7.21561 10.3701 7.14652C10.1749 7.07743 9.96057 7.1797 9.89148 7.37494C9.8135 7.59532 9.71721 7.80786 9.60401 8.01051L10.1518 8.55833Z" fill="#18202A"/>
<path d="M3.99066 2.39715C4.33289 2.20661 4.70187 2.06504 5.0869 1.97792C5.76653 1.82415 6.47403 1.84504 7.1434 2.03866C7.81276 2.23227 8.42218 2.5923 8.91477 3.08514C8.91754 3.08791 8.92035 3.09064 8.92321 3.09332L10.5533 4.625H9C8.79289 4.625 8.625 4.79289 8.625 5C8.625 5.20711 8.79289 5.375 9 5.375H11.5C11.7071 5.375 11.875 5.20711 11.875 5V2.5C11.875 2.29289 11.7071 2.125 11.5 2.125C11.2929 2.125 11.125 2.29289 11.125 2.5V4.13306L9.44098 2.55069C8.85957 1.97042 8.14094 1.54645 7.35179 1.31819C6.56072 1.08937 5.72458 1.06468 4.92139 1.24641C4.3968 1.36511 3.89744 1.56933 3.44265 1.84914L3.99066 2.39715Z" fill="#18202A"/>
</svg>
