<svg width="12" height="12" viewBox="0 0 12 12" fill="none" xmlns="http://www.w3.org/2000/svg">
<path fill-rule="evenodd" clip-rule="evenodd" d="M6 2C6 1.72386 5.77553 1.49804 5.50014 1.51833C2.69682 1.72497 0.5 3.65258 0.5 6C0.5 8.48528 2.96243 10.5 6 10.5C6.58813 10.5 7.15471 10.4245 7.68602 10.2846L9.24115 10.9326C9.58713 11.0768 9.96286 10.8031 9.93173 10.4295L9.83163 9.22831C10.8606 8.41058 11.5 7.26638 11.5 6C11.5 5.97447 11.4997 5.949 11.4992 5.92358C11.4943 5.68018 11.2848 5.5 11.0414 5.5H10.9544C10.6936 5.5 10.5 5.73919 10.5 6C10.5 6.9102 10.043 7.78304 9.20948 8.44541L8.79066 8.77824L8.86691 9.69333L7.75849 9.23148L7.43147 9.31756C6.98357 9.43545 6.50257 9.5 6 9.5C3.31773 9.5 1.5 7.75473 1.5 6C1.5 4.35653 3.09454 2.72135 5.50047 2.52061C5.77566 2.49764 6 2.27614 6 2Z" fill="#18202A"/>
<path d="M8.5 1C8.77614 1 9 1.16789 9 1.375V1.76106C9.87183 1.94657 10.8779 2.87548 10.8779 3.5C10.8779 3.73959 10.5673 3.62968 10.1599 3.48555C9.79959 3.35806 9.3636 3.2038 9 3.24098V6C9 6.82843 8.32843 7.5 7.5 7.5C6.67157 7.5 6 6.82843 6 6C6 5.17157 6.67157 4.5 7.5 4.5C7.67532 4.5 7.84361 4.53008 8 4.58535V1.375C8 1.16789 8.22386 1 8.5 1Z" fill="#18202A"/>
</svg>
