<svg width="12" height="12" viewBox="0 0 12 12" fill="none" xmlns="http://www.w3.org/2000/svg">
<path d="M7.5 3.75C7.5 5 7 6 6 6C5 6 4.5 5 4.5 3.75C4.5 2.75 5 2 6 2C7 2 7.5 2.75 7.5 3.75Z" fill="#18202A"/>
<path d="M8.77921 9.82328C8.51323 10.4049 7.96714 10.8077 7.33451 10.9017C6.89907 10.9665 6.45345 11 6 11C5.54654 11 5.10093 10.9665 4.66548 10.9017C4.03286 10.8077 3.48676 10.4049 3.22078 9.82328C3.12693 9.61804 3.0415 9.40813 2.96493 9.19401C2.70314 8.46185 2.92225 7.6265 3.57712 7.20729C4.27651 6.75956 5.10794 6.5 6 6.5C6.89205 6.5 7.72348 6.75956 8.42288 7.20729C9.07775 7.6265 9.29685 8.46185 9.03506 9.19402C8.9585 9.40813 8.87307 9.61804 8.77921 9.82328Z" fill="#18202A"/>
<path d="M2.5 6C3.16667 6 3.5 5.375 3.5 4.59375C3.5 3.96875 3.16667 3.5 2.5 3.5C1.83333 3.5 1.5 3.96875 1.5 4.59375C1.5 5.375 1.83333 6 2.5 6Z" fill="#18202A"/>
<path d="M10.5 4.59375C10.5 5.375 10.1667 6 9.5 6C8.83333 6 8.5 5.375 8.5 4.59375C8.5 3.96875 8.83333 3.5 9.5 3.5C10.1667 3.5 10.5 3.96875 10.5 4.59375Z" fill="#18202A"/>
<path d="M2.02332 9.53081C1.72958 8.70929 1.82299 7.74553 2.34922 7.01489C1.87189 7.05584 1.4185 7.18061 1.00385 7.37442C0.42032 7.64717 0.184857 8.33603 0.381861 8.94929C0.554226 9.48585 1.02229 9.86279 1.58161 9.93184C1.78588 9.95705 1.99227 9.97542 2.20055 9.98672C2.13749 9.83678 2.07837 9.68477 2.02332 9.53081Z" fill="#18202A"/>
<path d="M9.8021 9.98042C9.86416 9.83253 9.9224 9.68261 9.97668 9.53081C10.269 8.7134 10.1779 7.75516 9.65864 7.02587C10.1612 7.08297 10.6355 7.23321 11.0639 7.4589C11.5993 7.74098 11.8061 8.38825 11.6199 8.96407C11.4554 9.47254 11.0158 9.8335 10.4868 9.90911C10.2611 9.94136 10.0328 9.96523 9.8021 9.98042Z" fill="#18202A"/>
</svg>
