<svg width="12" height="12" viewBox="0 0 12 12" fill="none" xmlns="http://www.w3.org/2000/svg">
<g clip-path="url(#clip0_2266_35668)">
<path fill-rule="evenodd" clip-rule="evenodd" d="M5.21757 1.06086C5.1747 0.788069 5.36117 0.529817 5.63672 0.511825C5.75686 0.50398 5.878 0.5 6 0.5C9.03757 0.5 11.5 2.96243 11.5 6C11.5 6.122 11.496 6.24314 11.4882 6.36328C11.4702 6.63883 11.2119 6.8253 10.9391 6.78243C10.6663 6.73956 10.4828 6.48344 10.4953 6.20758C10.4984 6.13881 10.5 6.0696 10.5 6C10.5 3.51472 8.48528 1.5 6 1.5C5.9304 1.5 5.86119 1.50158 5.79242 1.50469C5.51656 1.5172 5.26044 1.33366 5.21757 1.06086ZM2.85333 2.11411C2.67942 1.89961 2.71119 1.58263 2.94054 1.42884C3.14146 1.29413 3.3518 1.17228 3.57038 1.06449C3.81805 0.942359 4.10857 1.07309 4.20759 1.33087C4.30661 1.58865 4.17624 1.87546 3.93112 2.00262C3.80843 2.06626 3.68902 2.1354 3.57322 2.20971C3.34081 2.35886 3.02724 2.32861 2.85333 2.11411ZM1.33087 4.20759C1.07309 4.10857 0.942358 3.81805 1.06449 3.57039C1.17228 3.3518 1.29413 3.14146 1.42884 2.94054C1.58263 2.71119 1.89961 2.67942 2.11411 2.85333C2.32861 3.02724 2.35886 3.34082 2.20971 3.57322C2.1354 3.68902 2.06626 3.80843 2.00262 3.93112C1.87546 4.17624 1.58865 4.30661 1.33087 4.20759ZM0.5 6C0.5 5.878 0.50398 5.75686 0.511825 5.63672C0.529817 5.36117 0.788068 5.1747 1.06086 5.21757C1.33366 5.26044 1.5172 5.51656 1.50469 5.79242C1.50158 5.86119 1.5 5.9304 1.5 6C1.5 6.0696 1.50158 6.13881 1.50469 6.20758C1.5172 6.48344 1.33366 6.73956 1.06086 6.78243C0.788069 6.8253 0.529817 6.63883 0.511825 6.36328C0.50398 6.24314 0.5 6.122 0.5 6ZM10.6691 7.79241C10.9269 7.89143 11.0576 8.18195 10.9355 8.42962C10.8277 8.6482 10.7059 8.85854 10.5712 9.05945C10.4174 9.28881 10.1004 9.32058 9.88589 9.14667C9.67139 8.97276 9.64114 8.65918 9.79029 8.42678C9.8646 8.31098 9.93374 8.19157 9.99738 8.06888C10.1245 7.82376 10.4113 7.69339 10.6691 7.79241ZM2.11411 9.14667C1.89961 9.32058 1.58263 9.28881 1.42884 9.05945C1.29413 8.85854 1.17228 8.6482 1.06449 8.42962C0.942359 8.18195 1.07309 7.89143 1.33087 7.79241C1.58865 7.69339 1.87546 7.82376 2.00262 8.06888C2.06626 8.19157 2.1354 8.31098 2.20971 8.42678C2.35886 8.65918 2.32861 8.97276 2.11411 9.14667ZM4.20759 10.6691C4.10857 10.9269 3.81805 11.0576 3.57038 10.9355C3.3518 10.8277 3.14146 10.7059 2.94054 10.5712C2.71119 10.4174 2.67942 10.1004 2.85333 9.88589C3.02724 9.67139 3.34082 9.64114 3.57322 9.79029C3.68902 9.8646 3.80843 9.93374 3.93112 9.99738C4.17624 10.1245 4.30661 10.4113 4.20759 10.6691ZM9.14667 9.88589C9.32058 10.1004 9.28881 10.4174 9.05945 10.5712C8.85854 10.7059 8.6482 10.8277 8.42962 10.9355C8.18195 11.0576 7.89143 10.9269 7.79241 10.6691C7.69339 10.4113 7.82376 10.1245 8.06888 9.99738C8.19157 9.93374 8.31098 9.8646 8.42678 9.79029C8.65918 9.64114 8.97276 9.67139 9.14667 9.88589ZM6.78243 10.9391C6.8253 11.2119 6.63883 11.4702 6.36328 11.4882C6.24314 11.496 6.122 11.5 6 11.5C5.878 11.5 5.75686 11.496 5.63672 11.4882C5.36117 11.4702 5.1747 11.2119 5.21757 10.9391C5.26044 10.6663 5.51656 10.4828 5.79242 10.4953C5.86119 10.4984 5.9304 10.5 6 10.5C6.0696 10.5 6.13881 10.4984 6.20758 10.4953C6.48344 10.4828 6.73956 10.6663 6.78243 10.9391ZM9.5 6C9.5 7.933 7.933 9.5 6 9.5C4.067 9.5 2.5 7.933 2.5 6C2.5 4.067 4.067 2.5 6 2.5C7.933 2.5 9.5 4.067 9.5 6ZM6 4.75C6 5.16421 5.66421 5.5 5.25 5.5C4.83579 5.5 4.5 5.16421 4.5 4.75C4.5 4.33579 4.83579 4 5.25 4C5.66421 4 6 4.33579 6 4.75ZM4.5 6.25L3.88281 7.33009C4.3253 8.03295 5.1081 8.5 6 8.5C7.30104 8.5 8.36996 7.50615 8.48898 6.23623L7.5 5L5.75 7L4.5 6.25Z" fill="#18202A"/>
</g>
<defs>
<clipPath id="clip0_2266_35668">
<rect width="12" height="12" fill="white"/>
</clipPath>
</defs>
</svg>
