<svg width="16" height="16" viewBox="0 0 16 16" fill="none" xmlns="http://www.w3.org/2000/svg">
<g clip-path="url(#clip0_2266_34765)">
<path fill-rule="evenodd" clip-rule="evenodd" d="M4.66663 0.666656C4.29844 0.666656 3.99996 0.965133 3.99996 1.33332V1.99999H3.33329C1.86053 1.99999 0.666626 3.1939 0.666626 4.66666V12.6667C0.666626 14.1394 1.86053 15.3333 3.33329 15.3333H8.16971C7.54746 14.5571 7.13779 13.6031 7.02898 12.5597C6.92466 12.6274 6.80023 12.6667 6.66663 12.6667C6.29844 12.6667 5.99996 12.3682 5.99996 12C5.99996 11.6318 6.29844 11.3333 6.66663 11.3333C6.80023 11.3333 6.92466 11.3726 7.02898 11.4403C7.21358 9.67016 8.26402 8.1575 9.74929 7.33332H3.99996C3.63177 7.33332 3.33329 7.03485 3.33329 6.66666C3.33329 6.29847 3.63177 5.99999 3.99996 5.99999H12C12.3681 5.99999 12.6666 6.29847 12.6666 6.66666L12.6665 6.6769C13.6517 6.73764 14.5646 7.06584 15.3333 7.58978V4.66666C15.3333 3.1939 14.1394 1.99999 12.6666 1.99999H12V1.33332C12 0.965133 11.7015 0.666656 11.3333 0.666656C10.9651 0.666656 10.6666 0.965133 10.6666 1.33332V1.99999H5.33329V1.33332C5.33329 0.965133 5.03482 0.666656 4.66663 0.666656ZM3.33329 9.33332C3.33329 8.96513 3.63177 8.66666 3.99996 8.66666C4.36815 8.66666 4.66663 8.96513 4.66663 9.33332C4.66663 9.70151 4.36815 9.99999 3.99996 9.99999C3.63177 9.99999 3.33329 9.70151 3.33329 9.33332ZM3.99996 11.3333C3.63177 11.3333 3.33329 11.6318 3.33329 12C3.33329 12.3682 3.63177 12.6667 3.99996 12.6667C4.36815 12.6667 4.66663 12.3682 4.66663 12C4.66663 11.6318 4.36815 11.3333 3.99996 11.3333ZM5.99996 9.33332C5.99996 8.96513 6.29844 8.66666 6.66663 8.66666C7.03482 8.66666 7.33329 8.96513 7.33329 9.33332C7.33329 9.70151 7.03482 9.99999 6.66663 9.99999C6.29844 9.99999 5.99996 9.70151 5.99996 9.33332ZM12.2052 7.99999C11.7228 7.99999 11.3091 8.34446 11.2217 8.81894L11.2057 8.90596C10.8057 9.04419 10.4409 9.25778 10.1282 9.52977L10.043 9.49949C9.58843 9.33789 9.08328 9.52391 8.84205 9.94173L8.77477 10.0583C8.53354 10.4761 8.62502 11.0066 8.99226 11.3195L9.06135 11.3783C9.02264 11.5796 9.00238 11.7874 9.00238 12C9.00238 12.2126 9.02264 12.4204 9.06135 12.6217L8.99227 12.6805C8.62503 12.9934 8.53354 13.5239 8.77477 13.9417L8.84206 14.0583C9.08329 14.4761 9.58844 14.6621 10.043 14.5005L10.1282 14.4702C10.4409 14.7422 10.8057 14.9558 11.2057 15.094L11.2217 15.181C11.3091 15.6555 11.7228 16 12.2052 16H12.3398C12.8222 16 13.2359 15.6555 13.3233 15.181L13.3389 15.0959C13.7404 14.958 14.1067 14.7441 14.4205 14.4715L14.502 14.5005C14.9566 14.6621 15.4617 14.4761 15.703 14.0583L15.7703 13.9417C16.0115 13.5239 15.92 12.9934 15.5528 12.6805L15.4881 12.6255C15.5273 12.423 15.5478 12.2139 15.5478 12C15.5478 11.7861 15.5273 11.577 15.4881 11.3745L15.5528 11.3195C15.92 11.0066 16.0115 10.4761 15.7703 10.0583L15.703 9.94173C15.4617 9.52391 14.9566 9.33789 14.502 9.49949L14.4205 9.52847C14.1067 9.25584 13.7405 9.04199 13.3389 8.90405L13.3233 8.81894C13.2359 8.34446 12.8222 7.99999 12.3398 7.99999H12.2052ZM12.2721 13.3333C13.0085 13.3333 13.6054 12.7364 13.6054 12C13.6054 11.2636 13.0085 10.6667 12.2721 10.6667C11.5357 10.6667 10.9387 11.2636 10.9387 12C10.9387 12.7364 11.5357 13.3333 12.2721 13.3333Z" fill="#18202A"/>
</g>
<defs>
<clipPath id="clip0_2266_34765">
<rect width="16" height="16" fill="white"/>
</clipPath>
</defs>
</svg>
