<svg width="12" height="12" viewBox="0 0 12 12" fill="none" xmlns="http://www.w3.org/2000/svg">
<path fill-rule="evenodd" clip-rule="evenodd" d="M6.07124 8.35535C6.18721 8.28639 6.31963 8.25 6.45455 8.25H9.5C10.1904 8.25 10.75 7.69036 10.75 7V2.5C10.75 1.80964 10.1904 1.25 9.5 1.25H2.5C1.80964 1.25 1.25 1.80964 1.25 2.5V7C1.25 7.69036 1.80964 8.25 2.5 8.25H2.77273C2.99857 8.25 3.21239 8.35177 3.3548 8.52704C3.49722 8.70232 3.55307 8.93244 3.50685 9.1535L3.33335 9.98328L6.07124 8.35535ZM6.45455 9H9.5C10.6046 9 11.5 8.10457 11.5 7V2.5C11.5 1.39543 10.6046 0.5 9.5 0.5H2.5C1.39543 0.5 0.5 1.39543 0.5 2.5V7C0.5 7.93864 1.14661 8.72626 2.0187 8.94171C2.17286 8.97979 2.33407 9 2.5 9H2.77273L2.48282 10.3865C2.39375 10.8125 2.8537 11.141 3.22777 10.9186L6.45455 9Z" fill="#18202A"/>
</svg>
