<svg width="12" height="12" viewBox="0 0 12 12" fill="none" xmlns="http://www.w3.org/2000/svg">
<g clip-path="url(#clip0_3783_8840)">
<g clip-path="url(#clip1_3783_8840)">
<path fill-rule="evenodd" clip-rule="evenodd" d="M9.5 0.5C8.94772 0.5 8.5 0.947715 8.5 1.5V1.625H7.5C6.74061 1.625 6.125 2.24061 6.125 3V5.625H3.5V5.5C3.5 4.94772 3.05228 4.5 2.5 4.5H1.5C0.947715 4.5 0.5 4.94772 0.5 5.5V6.5C0.5 7.05228 0.947715 7.5 1.5 7.5H2.5C3.05228 7.5 3.5 7.05228 3.5 6.5V6.375H6.125V9C6.125 9.75939 6.74061 10.375 7.5 10.375H8.5V10.5C8.5 11.0523 8.94771 11.5 9.5 11.5H10.5C11.0523 11.5 11.5 11.0523 11.5 10.5V9.5C11.5 8.94772 11.0523 8.5 10.5 8.5H9.5C8.94772 8.5 8.5 8.94771 8.5 9.5V9.625H7.5C7.15482 9.625 6.875 9.34518 6.875 9V6.375H8.5V6.5C8.5 7.05228 8.94771 7.5 9.5 7.5H10.5C11.0523 7.5 11.5 7.05228 11.5 6.5V5.5C11.5 4.94772 11.0523 4.5 10.5 4.5H9.5C8.94772 4.5 8.5 4.94772 8.5 5.5V5.625H6.875V3C6.875 2.65482 7.15482 2.375 7.5 2.375H8.5V2.5C8.5 3.05228 8.94771 3.5 9.5 3.5H10.5C11.0523 3.5 11.5 3.05228 11.5 2.5V1.5C11.5 0.947715 11.0523 0.5 10.5 0.5H9.5ZM10.75 1.5C10.75 1.36193 10.6381 1.25 10.5 1.25H9.5C9.36193 1.25 9.25 1.36193 9.25 1.5V2.5C9.25 2.63807 9.36193 2.75 9.5 2.75H10.5C10.6381 2.75 10.75 2.63807 10.75 2.5V1.5ZM2.75 5.5C2.75 5.36193 2.63807 5.25 2.5 5.25H1.5C1.36193 5.25 1.25 5.36193 1.25 5.5V6.5C1.25 6.63807 1.36193 6.75 1.5 6.75H2.5C2.63807 6.75 2.75 6.63807 2.75 6.5V5.5ZM9.25 5.5C9.25 5.36193 9.36193 5.25 9.5 5.25H10.5C10.6381 5.25 10.75 5.36193 10.75 5.5V6.5C10.75 6.63807 10.6381 6.75 10.5 6.75H9.5C9.36193 6.75 9.25 6.63807 9.25 6.5V5.5ZM10.75 9.5C10.75 9.36193 10.6381 9.25 10.5 9.25H9.5C9.36193 9.25 9.25 9.36193 9.25 9.5V10.5C9.25 10.6381 9.36193 10.75 9.5 10.75H10.5C10.6381 10.75 10.75 10.6381 10.75 10.5V9.5Z" fill="#18202A"/>
</g>
</g>
<defs>
<clipPath id="clip0_3783_8840">
<rect width="12" height="12" fill="white"/>
</clipPath>
<clipPath id="clip1_3783_8840">
<rect width="12" height="12" fill="white"/>
</clipPath>
</defs>
</svg>
