<svg width="12" height="12" viewBox="0 0 12 12" fill="none" xmlns="http://www.w3.org/2000/svg">
<g clip-path="url(#clip0_2266_36537)">
<path d="M8.53957 1.12014L8.54499 1.12297C8.56647 1.1342 8.58787 1.14557 8.60918 1.15708C8.63142 1.16908 8.65391 1.18143 8.67631 1.19393C8.69531 1.20453 8.71399 1.2151 8.7326 1.22578C8.76041 1.24173 8.78811 1.25794 8.81566 1.27439C8.82953 1.28267 8.8435 1.2911 8.85744 1.29959C8.89064 1.31982 8.92341 1.34027 8.95596 1.36105C8.96528 1.367 8.97474 1.37308 8.98418 1.37919C9.01486 1.39905 9.04525 1.41914 9.07542 1.43952C9.08686 1.44726 9.09828 1.45503 9.10966 1.46285L9.11676 1.46774C9.19811 1.52379 9.27788 1.58197 9.35598 1.6422C9.36888 1.65215 9.38174 1.66216 9.39455 1.67222C9.41878 1.69126 9.44276 1.71042 9.46657 1.72977C9.48496 1.74472 9.50328 1.75981 9.5215 1.77501C9.54433 1.79406 9.56717 1.81343 9.58984 1.83297C9.60212 1.84357 9.61423 1.85411 9.6263 1.8647C9.69971 1.92912 9.77146 1.99554 9.8414 2.06381L9.85258 2.07475C9.8653 2.08723 9.87796 2.09978 9.89056 2.11239C9.91174 2.13358 9.93272 2.15492 9.95353 2.17644C9.96142 2.18459 9.96911 2.19259 9.97677 2.20061C10.0356 2.26211 10.0932 2.32524 10.1493 2.38969C10.1598 2.40178 10.1705 2.4141 10.181 2.42647L10.2065 2.45642C10.2101 2.46069 10.2137 2.46497 10.2173 2.46926C10.2396 2.49586 10.2617 2.52281 10.2836 2.54998C11.0443 3.49306 11.5 4.69332 11.5 6C11.5 7.26411 11.0735 8.42861 10.3566 9.35749L10.4436 9.24167C10.4065 9.29244 10.3686 9.34254 10.3298 9.39196C10.3069 9.42118 10.2838 9.45 10.2604 9.47857C10.2479 9.49387 10.2353 9.50917 10.2226 9.5244C10.158 9.60168 10.0913 9.67724 10.0225 9.75092C10.0082 9.76633 9.99379 9.78156 9.97933 9.79671C9.9615 9.8154 9.94348 9.83401 9.92534 9.8525C9.9054 9.87281 9.88529 9.89298 9.86503 9.913C9.84426 9.93352 9.82328 9.95391 9.80215 9.97413C9.79069 9.9851 9.77918 9.99602 9.76761 10.0069C9.69192 10.0781 9.61427 10.1471 9.5347 10.2139C9.52025 10.2261 9.50547 10.2384 9.49062 10.2506C9.47049 10.2671 9.45032 10.2835 9.43004 10.2997C9.40546 10.3193 9.38082 10.3386 9.35602 10.3578C9.28738 10.4107 9.2175 10.462 9.14639 10.5117C9.13789 10.5176 9.12935 10.5236 9.12078 10.5295C9.03529 10.5885 8.94804 10.6452 8.85913 10.6994C8.84763 10.7064 8.83648 10.7131 8.82531 10.7198C8.79384 10.7387 8.7618 10.7575 8.72955 10.776C8.71296 10.7855 8.69629 10.7949 8.67957 10.8042C8.59386 10.8522 8.50697 10.8977 8.41876 10.941L8.39971 10.9503C8.38568 10.9571 8.37162 10.9638 8.35752 10.9705C8.32874 10.9842 8.29987 10.9976 8.27087 11.0108C8.24861 11.0209 8.22611 11.0309 8.20353 11.0408C8.1819 11.0503 8.16042 11.0595 8.13886 11.0686C8.11377 11.0792 8.08854 11.0897 8.06321 11.0999C8.03938 11.1096 8.01522 11.1192 7.99097 11.1286C7.95657 11.1419 7.92206 11.1549 7.88738 11.1676C7.85119 11.1808 7.81487 11.1937 7.77839 11.2061C7.7678 11.2097 7.75749 11.2132 7.74717 11.2167C7.70579 11.2305 7.66393 11.244 7.62186 11.257C7.6079 11.2613 7.5941 11.2655 7.58028 11.2696C7.54402 11.2805 7.5074 11.291 7.47062 11.3012C7.4549 11.3055 7.43923 11.3098 7.42353 11.314C7.32086 11.3414 7.21697 11.366 7.112 11.3875C7.10871 11.3882 7.10586 11.3888 7.10301 11.3894L6.98863 11.4114C6.66791 11.4696 6.33751 11.5 6 11.5C3.50687 11.5 1.40117 9.84116 0.726444 7.567L0.726299 7.5665L0.718506 7.53998C0.704319 7.49125 0.690789 7.44223 0.677925 7.39295L0.726299 7.5665C0.703486 7.48958 0.682307 7.41196 0.662807 7.33367C0.653032 7.29441 0.64373 7.25522 0.63485 7.21587C0.630336 7.19587 0.625901 7.17569 0.621578 7.15547C0.614123 7.1206 0.606993 7.08558 0.600197 7.05044C0.593483 7.01572 0.587093 6.98087 0.581032 6.9459C0.573755 6.90391 0.566976 6.86192 0.560677 6.81976C0.557577 6.79902 0.554595 6.77824 0.551727 6.75741C0.54521 6.71009 0.539289 6.66256 0.533981 6.61484C0.533142 6.6073 0.532304 6.59963 0.531483 6.59196C0.525324 6.53438 0.520072 6.47675 0.515713 6.41887C0.514233 6.39921 0.512872 6.37975 0.511612 6.36025C0.508608 6.31383 0.506167 6.26698 0.504318 6.21997C0.503755 6.20564 0.503252 6.1915 0.502804 6.17734C0.500939 6.11846 0.5 6.05934 0.5 6C0.5 2.96243 2.96243 0.5 6 0.5C6.05664 0.5 6.11309 0.500856 6.16932 0.502557L6 0.5C6.0609 0.5 6.12157 0.50099 6.18199 0.502954C6.2316 0.504566 6.28116 0.506842 6.33054 0.509769C6.34357 0.51054 6.35692 0.51138 6.37026 0.512266C6.4074 0.514737 6.44419 0.517554 6.48088 0.520732C6.49863 0.52227 6.5163 0.523886 6.53394 0.525585C6.56742 0.52881 6.60095 0.532351 6.6344 0.536192C6.65772 0.53887 6.68102 0.541698 6.70428 0.54467C6.80473 0.557513 6.90419 0.573038 7.00272 0.591189C7.01772 0.593951 7.03241 0.596721 7.04708 0.599548C7.08409 0.606681 7.12112 0.614216 7.158 0.622122C7.17465 0.625689 7.19134 0.629346 7.20799 0.633078C7.23746 0.639683 7.26693 0.646545 7.29631 0.653643C7.32397 0.660327 7.35129 0.667153 7.37852 0.674183C7.40292 0.680478 7.4273 0.686951 7.45161 0.693587C7.47073 0.698803 7.49 0.704175 7.50922 0.709649C7.60883 0.738018 7.70698 0.769017 7.80389 0.80265C7.81747 0.807361 7.83119 0.812182 7.84488 0.817056C7.88058 0.829763 7.91604 0.842808 7.95134 0.856205C7.96226 0.860349 7.97311 0.864505 7.98394 0.868696C8.02134 0.883165 8.05851 0.898022 8.09549 0.91327C8.10945 0.91903 8.12344 0.924866 8.13739 0.930758C8.17324 0.945891 8.20892 0.961406 8.24441 0.977286C8.25385 0.98151 8.26348 0.985853 8.27309 0.990222C8.3133 1.0085 8.35298 1.02711 8.3924 1.04619C8.39931 1.04953 8.40611 1.05284 8.41291 1.05616L8.41876 1.05903C8.45932 1.07892 8.49959 1.09929 8.53957 1.12014ZM6.75 3.75C7.5 4.5 7.75 6.25 6.75 6.25C5.75 6.25 5.75 7 6 7.75C6.17164 8.26493 5.48597 8.3947 4.79183 7.75C4.47495 7.45569 4.51373 6.58882 3.99999 6.25C2.70474 5.39576 2.03339 6.34219 1.59497 6.92325C2.02081 8.96578 3.83124 10.5 6 10.5C6.2621 10.5 6.51897 10.4776 6.7688 10.4346C6.70428 9 8.00378 7.93173 9.67561 8.5953C10.1951 7.86237 10.5 6.96679 10.5 6C10.5 4.51271 9.77847 3.19395 8.66636 2.37464C7.14831 2.22482 6.25088 3.25088 6.75 3.75Z" fill="#18202A"/>
</g>
<defs>
<clipPath id="clip0_2266_36537">
<rect width="12" height="12" fill="white"/>
</clipPath>
</defs>
</svg>
