<svg width="12" height="12" viewBox="0 0 12 12" fill="none" xmlns="http://www.w3.org/2000/svg">
<g clip-path="url(#clip0_2266_37874)">
<path fill-rule="evenodd" clip-rule="evenodd" d="M0.5 2.5C0.5 1.39543 1.39543 0.5 2.5 0.5H7.5C8.24028 0.5 8.88663 0.902199 9.23244 1.5H3.5C2.39543 1.5 1.5 2.39543 1.5 3.5V9.23244C0.902199 8.88663 0.5 8.24028 0.5 7.5V2.5ZM4.5 2.5C3.39543 2.5 2.5 3.39543 2.5 4.5V9.5C2.5 10.6046 3.39543 11.5 4.5 11.5H9.5C10.6046 11.5 11.5 10.6046 11.5 9.5V4.5C11.5 3.39543 10.6046 2.5 9.5 2.5H4.5Z" fill="#18202A"/>
</g>
<defs>
<clipPath id="clip0_2266_37874">
<rect width="12" height="12" fill="white"/>
</clipPath>
</defs>
</svg>
