<svg width="12" height="12" viewBox="0 0 12 12" fill="none" xmlns="http://www.w3.org/2000/svg">
<g clip-path="url(#clip0_2266_41761)">
<path fill-rule="evenodd" clip-rule="evenodd" d="M5.23484 0.734835C5.38128 0.588388 5.61872 0.588388 5.76516 0.734835L7.26517 2.23483C7.41161 2.38128 7.41161 2.61872 7.26517 2.76517L5.76516 4.26517C5.61872 4.41161 5.38128 4.41161 5.23484 4.26517C5.08839 4.11872 5.08839 3.88128 5.23484 3.73483L6.09467 2.875H4.5C2.77411 2.875 1.375 4.27411 1.375 6C1.375 7.4431 2.35318 8.65773 3.68267 9.01703C3.86325 9.06583 4 9.22277 4 9.40983C4 9.63956 3.7973 9.81841 3.57417 9.76371C1.88112 9.34865 0.625 7.82102 0.625 6C0.625 3.8599 2.3599 2.125 4.5 2.125H6.09467L5.23484 1.26517C5.08839 1.11872 5.08839 0.881282 5.23484 0.734835ZM5.90533 9.875L6.76517 10.7348C6.91161 10.8813 6.91161 11.1187 6.76517 11.2652C6.61872 11.4116 6.38128 11.4116 6.23484 11.2652L4.73484 9.76516C4.58839 9.61872 4.58839 9.38128 4.73484 9.23483L6.23484 7.73483C6.38128 7.58839 6.61872 7.58839 6.76517 7.73483C6.91161 7.88128 6.91161 8.11872 6.76517 8.26516L5.90533 9.125H7.5C9.22589 9.125 10.625 7.72589 10.625 6C10.625 4.5569 9.64682 3.34227 8.31733 2.98297C8.13675 2.93417 8 2.77723 8 2.59017C8 2.36044 8.2027 2.18159 8.42583 2.2363C10.1189 2.65135 11.375 4.17898 11.375 6C11.375 8.1401 9.6401 9.875 7.5 9.875H5.90533Z" fill="#18202A"/>
</g>
<defs>
<clipPath id="clip0_2266_41761">
<rect width="12" height="12" fill="white"/>
</clipPath>
</defs>
</svg>
