<svg width="12" height="12" viewBox="0 0 12 12" fill="none" xmlns="http://www.w3.org/2000/svg">
<path fill-rule="evenodd" clip-rule="evenodd" d="M0.5 2.5C0.5 1.39543 1.39543 0.5 2.5 0.5H9.5C10.6046 0.5 11.5 1.39543 11.5 2.5V7C11.5 8.10457 10.6046 9 9.5 9H6.45455L3.22777 10.9186C2.8537 11.141 2.39375 10.8125 2.48282 10.3865L2.77273 9H2.5C1.39543 9 0.5 8.10457 0.5 7V2.5ZM3 3.5C3 3.22386 3.22386 3 3.5 3H8.5C8.77614 3 9 3.22386 9 3.5C9 3.77614 8.77614 4 8.5 4H3.5C3.22386 4 3 3.77614 3 3.5ZM3.5 5.5C3.22386 5.5 3 5.72386 3 6C3 6.27614 3.22386 6.5 3.5 6.5H7C7.27614 6.5 7.5 6.27614 7.5 6C7.5 5.72386 7.27614 5.5 7 5.5H3.5Z" fill="#18202A"/>
</svg>
