<svg width="12" height="12" viewBox="0 0 12 12" fill="none" xmlns="http://www.w3.org/2000/svg">
<path fill-rule="evenodd" clip-rule="evenodd" d="M9.2252 8.02524C9.71424 7.30523 10 6.43599 10 5.5C10 3.01472 7.98528 1 5.5 1C3.01472 1 1 3.01472 1 5.5C1 7.98528 3.01472 10 5.5 10C6.43599 10 7.30523 9.71424 8.02524 9.2252C8.26114 9.06498 8.48102 8.88294 8.68198 8.68198C8.88294 8.48102 9.06498 8.26114 9.2252 8.02524ZM9.70592 9.04423C9.52184 8.96109 9.29773 8.99516 9.14645 9.14645C8.99516 9.29773 8.96109 9.52184 9.04423 9.70592C9.06839 9.75944 9.10247 9.80957 9.14645 9.85355L10.1464 10.8536C10.3417 11.0488 10.6583 11.0488 10.8536 10.8536C11.0488 10.6583 11.0488 10.3417 10.8536 10.1464L9.85355 9.14645C9.80957 9.10247 9.75944 9.06839 9.70592 9.04423ZM5.5 9C7.433 9 9 7.433 9 5.5C9 3.567 7.433 2 5.5 2C3.567 2 2 3.567 2 5.5C2 7.433 3.567 9 5.5 9Z" fill="#18202A"/>
</svg>
