<svg width="12" height="12" viewBox="0 0 12 12" fill="none" xmlns="http://www.w3.org/2000/svg">
<g clip-path="url(#clip0_2266_35890)">
<path fill-rule="evenodd" clip-rule="evenodd" d="M11.5 6C11.5 9.03757 9.03757 11.5 6 11.5C2.96243 11.5 0.5 9.03757 0.5 6C0.5 2.96243 2.96243 0.5 6 0.5C9.03757 0.5 11.5 2.96243 11.5 6ZM5.25 3.75C5.25 3.33579 5.58579 3 6 3C6.41421 3 6.75 3.33579 6.75 3.75C6.75 4.16421 6.41421 4.5 6 4.5C5.58579 4.5 5.25 4.16421 5.25 3.75ZM4.5 5.5C4.5 5.22386 4.72386 5 5 5H6C6.27614 5 6.5 5.22386 6.5 5.5V8H7C7.27614 8 7.5 8.22386 7.5 8.5C7.5 8.77614 7.27614 9 7 9H5C4.72386 9 4.5 8.77614 4.5 8.5C4.5 8.22386 4.72386 8 5 8H5.5V6H5C4.72386 6 4.5 5.77614 4.5 5.5Z" fill="#18202A"/>
</g>
<defs>
<clipPath id="clip0_2266_35890">
<rect width="12" height="12" fill="white"/>
</clipPath>
</defs>
</svg>
