<svg width="12" height="12" viewBox="0 0 12 12" fill="none" xmlns="http://www.w3.org/2000/svg">
<path d="M4.51517 1.89017C4.66161 1.74372 4.66161 1.50628 4.51517 1.35983C4.36872 1.21339 4.13128 1.21339 3.98483 1.35983L1.73483 3.60983C1.58839 3.75628 1.58839 3.99372 1.73483 4.14017L3.98483 6.39016C4.13128 6.53661 4.36872 6.53661 4.51517 6.39016C4.66161 6.24372 4.66161 6.00628 4.51517 5.85984L2.90533 4.25H7.5C8.74264 4.25 9.75 5.25736 9.75 6.5C9.75 7.74264 8.74264 8.75 7.5 8.75H3.875C3.66789 8.75 3.5 8.91789 3.5 9.125C3.5 9.33211 3.66789 9.5 3.875 9.5H7.5C9.15685 9.5 10.5 8.15685 10.5 6.5C10.5 4.84315 9.15685 3.5 7.5 3.5H2.90533L4.51517 1.89017Z" fill="#18202A"/>
</svg>
