<svg width="12" height="12" viewBox="0 0 12 12" fill="none" xmlns="http://www.w3.org/2000/svg">
<g clip-path="url(#clip0_2266_39618)">
<path fill-rule="evenodd" clip-rule="evenodd" d="M6.41725 3.3918C6.2494 3.03607 5.75061 3.03607 5.58276 3.3918L5.0953 4.42492L4.01968 4.58753C3.81346 4.6187 3.68724 4.77209 3.64438 4.91822C3.60165 5.06393 3.62608 5.24791 3.75992 5.38447L4.54627 6.1868L4.359 7.3271C4.33028 7.50196 4.39993 7.66985 4.52762 7.77286C4.65826 7.87825 4.85622 7.91675 5.03562 7.81819L6 7.28838L6.96439 7.81819C7.14378 7.91675 7.34175 7.87825 7.47238 7.77286C7.60008 7.66985 7.66972 7.50196 7.64101 7.3271L7.45376 6.18696L8.23986 5.38601C8.37379 5.24955 8.39833 5.0656 8.35572 4.91987C8.31299 4.77374 8.18692 4.62028 7.98078 4.5889L6.90481 4.42514L6.41725 3.3918ZM5.6029 5.1067L6 4.26509L6.397 5.10648L7.32474 5.24769L6.65203 5.93312L6.80686 6.87592L6 6.43265L5.19314 6.87592L5.34795 5.93328L4.67528 5.24694L5.6029 5.1067Z" fill="#18202A"/>
<path fill-rule="evenodd" clip-rule="evenodd" d="M6.11349 0.509875C6.01354 0.492319 5.91031 0.498171 5.81255 0.527431L0.94208 1.99241L0.878179 2.01532C0.650658 2.11067 0.5 2.32797 0.5 2.57133C0.5 8.75663 3.59346 10.4539 5.46599 11.3205L5.7308 11.4419C5.81605 11.4806 5.9081 11.5 6.00015 11.5C6.09215 11.5 6.18395 11.4806 6.26895 11.4419C8.0974 10.6091 11.5 9.05835 11.5 2.57133C11.5002 2.3061 11.321 2.07162 11.0582 1.99241L6.1877 0.527431L6.11349 0.509875ZM1.2505 2.6825L6.0005 1.254L10.749 2.6825L10.7483 2.82034C10.7112 5.45988 10.0834 7.33176 8.9926 8.64847L8.88981 8.76998C8.24203 9.5197 7.58246 9.97629 6.51691 10.4966L6.14615 10.6729L5.9995 10.74L5.8531 10.6726C4.50222 10.0452 3.76119 9.55826 3.00738 8.64837L2.90648 8.5233C1.87789 7.21394 1.28763 5.37739 1.25174 2.82098L1.2505 2.6825Z" fill="#18202A"/>
</g>
<defs>
<clipPath id="clip0_2266_39618">
<rect width="12" height="12" fill="white"/>
</clipPath>
</defs>
</svg>
