<svg width="12" height="12" viewBox="0 0 12 12" fill="none" xmlns="http://www.w3.org/2000/svg">
<path d="M8.25862 4.22845C8.40859 4.37128 8.41438 4.60865 8.27155 4.75862L5.41441 7.75862C5.34127 7.83541 5.23905 7.87765 5.13304 7.87487C5.02703 7.87209 4.92715 7.82456 4.85814 7.74405L3.71528 6.41071C3.5805 6.25347 3.59871 6.01673 3.75595 5.88195C3.9132 5.74716 4.14994 5.76537 4.28472 5.92262L5.15751 6.94087L7.72845 4.24138C7.87128 4.09141 8.10865 4.08562 8.25862 4.22845Z" fill="#18202A"/>
<path fill-rule="evenodd" clip-rule="evenodd" d="M2 1C1.44772 1 1 1.44772 1 2V10C1 10.5523 1.44772 11 2 11H10C10.5523 11 11 10.5523 11 10V2C11 1.44772 10.5523 1 10 1H2ZM10.25 2C10.25 1.86193 10.1381 1.75 10 1.75H2C1.86193 1.75 1.75 1.86193 1.75 2V10C1.75 10.1381 1.86193 10.25 2 10.25H10C10.1381 10.25 10.25 10.1381 10.25 10V2Z" fill="#18202A"/>
</svg>
