<svg width="12" height="12" viewBox="0 0 12 12" fill="none" xmlns="http://www.w3.org/2000/svg">
<path fill-rule="evenodd" clip-rule="evenodd" d="M5.01517 3.01516C5.16161 2.86872 5.16161 2.63128 5.01517 2.48483C4.86872 2.33839 4.63128 2.33839 4.48483 2.48483L1.23483 5.73483C1.08839 5.88128 1.08839 6.11872 1.23483 6.26517L4.48483 9.51516C4.63128 9.66161 4.86872 9.66161 5.01517 9.51516C5.16161 9.36872 5.16161 9.13128 5.01517 8.98484L2.03033 6L5.01517 3.01516ZM6.98483 3.01516C6.83839 2.86872 6.83839 2.63128 6.98483 2.48483C7.13128 2.33839 7.36872 2.33839 7.51517 2.48483L10.7652 5.73483C10.9116 5.88128 10.9116 6.11872 10.7652 6.26517L7.51517 9.51516C7.36872 9.66161 7.13128 9.66161 6.98483 9.51516C6.83839 9.36872 6.83839 9.13128 6.98483 8.98484L9.96967 6L6.98483 3.01516Z" fill="#18202A"/>
</svg>
