<svg width="12" height="12" viewBox="0 0 12 12" fill="none" xmlns="http://www.w3.org/2000/svg">
<path d="M3.5 3.5C3.5 3.22386 3.72386 3 4 3C4.27614 3 4.5 3.22386 4.5 3.5C4.5 3.77614 4.27614 4 4 4C3.72386 4 3.5 3.77614 3.5 3.5Z" fill="#18202A"/>
<path d="M4 4.5C3.72386 4.5 3.5 4.72386 3.5 5C3.5 5.27614 3.72386 5.5 4 5.5C4.27614 5.5 4.5 5.27614 4.5 5C4.5 4.72386 4.27614 4.5 4 4.5Z" fill="#18202A"/>
<path d="M5.5 3.5C5.5 3.22386 5.72386 3 6 3C6.27614 3 6.5 3.22386 6.5 3.5C6.5 3.77614 6.27614 4 6 4C5.72386 4 5.5 3.77614 5.5 3.5Z" fill="#18202A"/>
<path d="M6 4.5C5.72386 4.5 5.5 4.72386 5.5 5C5.5 5.27614 5.72386 5.5 6 5.5C6.27614 5.5 6.5 5.27614 6.5 5C6.5 4.72386 6.27614 4.5 6 4.5Z" fill="#18202A"/>
<path d="M7.5 3.5C7.5 3.22386 7.72386 3 8 3C8.27614 3 8.5 3.22386 8.5 3.5C8.5 3.77614 8.27614 4 8 4C7.72386 4 7.5 3.77614 7.5 3.5Z" fill="#18202A"/>
<path d="M8 4.5C7.72386 4.5 7.5 4.72386 7.5 5C7.5 5.27614 7.72386 5.5 8 5.5C8.27614 5.5 8.5 5.27614 8.5 5C8.5 4.72386 8.27614 4.5 8 4.5Z" fill="#18202A"/>
<path fill-rule="evenodd" clip-rule="evenodd" d="M3.375 1C2.33947 1 1.5 1.83947 1.5 2.875V9.1252C1.5 10.1607 2.33947 11.0002 3.375 11.0002H8.625C9.66053 11.0002 10.5 10.1607 10.5 9.1252V2.875C10.5 1.83946 9.66053 1 8.625 1H3.375ZM2.25 2.875C2.25 2.25368 2.75368 1.75 3.375 1.75H8.625C9.24632 1.75 9.75 2.25368 9.75 2.875V9.1252C9.75 9.74652 9.24632 10.2502 8.625 10.2502H7.625V7.375C7.625 6.89175 7.23325 6.5 6.75 6.5H5.25C4.76675 6.5 4.375 6.89175 4.375 7.375V10.2502H3.375C2.75368 10.2502 2.25 9.74652 2.25 9.1252V2.875ZM6.875 10.2502V7.375C6.875 7.30596 6.81904 7.25 6.75 7.25H5.25C5.18096 7.25 5.125 7.30596 5.125 7.375V10.2502H6.875Z" fill="#18202A"/>
</svg>
