<svg width="12" height="12" viewBox="0 0 12 12" fill="none" xmlns="http://www.w3.org/2000/svg">
<path fill-rule="evenodd" clip-rule="evenodd" d="M1.63799 1.63802C1.83325 1.44275 2.17072 1.46364 2.39174 1.68466L10.3157 9.60863C10.5367 9.82966 10.5576 10.1671 10.3624 10.3624C10.1671 10.5576 9.82963 10.5368 9.6086 10.3157L1.68463 2.39177C1.46361 2.17075 1.44272 1.83328 1.63799 1.63802Z" fill="#18202A"/>
<path d="M10.4437 8.33661C10.1556 7.68178 9.90092 6.7075 9.90092 5.30952C9.90092 4.29918 9.48993 3.33021 8.75837 2.61578C8.14543 2.01721 7.34953 1.6384 6.49903 1.53129C6.49967 1.52094 6.49999 1.51051 6.49999 1.5V1C6.49999 0.723858 6.27614 0.5 5.99999 0.5C5.72385 0.5 5.49999 0.723858 5.49999 1V1.5C5.49999 1.51051 5.50032 1.52094 5.50096 1.53129C5.00461 1.5938 4.52685 1.74885 4.09321 1.98611L10.4437 8.33661Z" fill="#18202A"/>
<path d="M3.27575 2.58286C3.26431 2.59376 3.25293 2.60473 3.24162 2.61578C2.51005 3.33021 2.09906 4.29918 2.09906 5.30952C2.09906 7.19954 1.63349 8.31512 1.24935 8.91389C1.11834 9.11809 1.28125 9.5 1.52386 9.5H10.1929L3.27575 2.58286Z" fill="#18202A"/>
<path d="M5.07611 11.3169C4.80913 11.1169 4.61412 10.8358 4.52022 10.5158L5.47977 10.2342C5.51288 10.3471 5.58162 10.4461 5.67563 10.5165C5.76964 10.587 5.88388 10.625 6.00124 10.625C6.11861 10.625 6.23285 10.587 6.32686 10.5165C6.42087 10.4461 6.48961 10.3471 6.52272 10.2342L7.48227 10.5158C7.38836 10.8358 7.19335 11.1169 6.92638 11.3169C6.6594 11.5169 6.33482 11.625 6.00124 11.625C5.66767 11.625 5.34309 11.5169 5.07611 11.3169Z" fill="#18202A"/>
</svg>
