<svg width="12" height="12" viewBox="0 0 12 12" fill="none" xmlns="http://www.w3.org/2000/svg">
<g clip-path="url(#clip0_3785_8917)">
<g clip-path="url(#clip1_3785_8917)">
<path fill-rule="evenodd" clip-rule="evenodd" d="M9.25 4C8.55964 4 8 3.44036 8 2.75V2.37512L6.87504 2.375C6.66792 2.37498 6.5 2.54288 6.5 2.75V9.25015C6.5 9.45726 6.66789 9.62515 6.875 9.62515H8V9.25C8 8.55964 8.55964 8 9.25 8H10.25C10.9404 8 11.5 8.55964 11.5 9.25V10.25C11.5 10.9404 10.9404 11.5 10.25 11.5H9.25C8.60188 11.5 8.06897 11.0067 8.00619 10.3751H6.875C6.25368 10.3751 5.75 9.87147 5.75 9.25015V6.375H4V6.5C4 7.19036 3.44036 7.75 2.75 7.75H1.75C1.05964 7.75 0.5 7.19036 0.5 6.5V5.5C0.5 4.80964 1.05964 4.25 1.75 4.25H2.75C3.44036 4.25 4 4.80964 4 5.5V5.625H5.75V2.75C5.75 2.12863 6.25375 1.62493 6.87512 1.625L8.00616 1.62512C8.06882 0.993398 8.60179 0.5 9.25 0.5H10.25C10.9404 0.5 11.5 1.05964 11.5 1.75V2.75C11.5 3.44036 10.9404 4 10.25 4H9.25ZM8.75 1.75C8.75 1.47386 8.97386 1.25 9.25 1.25H10.25C10.5261 1.25 10.75 1.47386 10.75 1.75V2.75C10.75 3.02614 10.5261 3.25 10.25 3.25H9.25C8.97386 3.25 8.75 3.02614 8.75 2.75V1.75ZM1.25 5.5C1.25 5.22386 1.47386 5 1.75 5H2.75C3.02614 5 3.25 5.22386 3.25 5.5V6.5C3.25 6.77614 3.02614 7 2.75 7H1.75C1.47386 7 1.25 6.77614 1.25 6.5V5.5ZM10.75 9.25C10.75 8.97386 10.5261 8.75 10.25 8.75H9.25C8.97386 8.75 8.75 8.97386 8.75 9.25V10.25C8.75 10.5261 8.97386 10.75 9.25 10.75H10.25C10.5261 10.75 10.75 10.5261 10.75 10.25V9.25Z" fill="#18202A"/>
</g>
</g>
<defs>
<clipPath id="clip0_3785_8917">
<rect width="12" height="12" fill="white"/>
</clipPath>
<clipPath id="clip1_3785_8917">
<rect width="12" height="12" fill="white"/>
</clipPath>
</defs>
</svg>
