<svg width="12" height="12" viewBox="0 0 12 12" fill="none" xmlns="http://www.w3.org/2000/svg">
<g clip-path="url(#clip0_2266_37473)">
<path fill-rule="evenodd" clip-rule="evenodd" d="M6.65315 1.98579C6.65301 1.98593 6.65286 1.98607 6.65272 1.98622L2.65162 6.00693L2.65076 6.0078C1.62974 7.02882 1.62974 8.71321 2.65076 9.73423C3.67178 10.7553 5.35618 10.7553 6.3772 9.73423L10.2615 5.84998C10.4567 5.65472 10.7733 5.65472 10.9686 5.84998C11.1638 6.04524 11.1638 6.36182 10.9686 6.55708L7.08431 10.4413C5.67276 11.8529 3.3552 11.8529 1.94365 10.4413C0.53226 9.02995 0.532108 6.71273 1.9432 5.30114C1.94335 5.30099 1.9435 5.30084 1.94365 5.30069L5.94475 1.27998L5.94561 1.27911C6.98443 0.240297 8.67423 0.240297 9.71305 1.27911C10.7519 2.31792 10.7519 4.00773 9.71305 5.04654L9.71212 5.04747L5.96611 8.77386C5.9659 8.77407 5.96569 8.77428 5.96548 8.77449C5.31492 9.42436 4.2589 9.41359 3.59912 8.7813L3.59152 8.77386C2.94101 8.12335 2.95158 7.06686 3.58408 6.40687L3.59248 6.3983L7.2021 2.80831C7.39789 2.61358 7.71447 2.61444 7.9092 2.81024C8.10393 3.00603 8.10307 3.32261 7.90727 3.51734L4.30246 7.10256C4.03757 7.38291 4.04776 7.81173 4.29493 8.06303C4.57668 8.32912 5.00828 8.31748 5.259 8.06675L5.25993 8.06582L9.00594 4.33943C9.0061 4.33927 9.00626 4.33911 9.00642 4.33895C9.65423 3.69062 9.65407 2.63434 9.00594 1.98622C8.35779 1.33807 7.30148 1.33793 6.65315 1.98579Z" fill="#18202A"/>
</g>
<defs>
<clipPath id="clip0_2266_37473">
<rect width="12" height="12" fill="white"/>
</clipPath>
</defs>
</svg>
