<svg width="12" height="12" viewBox="0 0 12 12" fill="none" xmlns="http://www.w3.org/2000/svg">
<path fill-rule="evenodd" clip-rule="evenodd" d="M1 2.5C1 1.67157 1.67157 1 2.5 1H4C4.82843 1 5.5 1.67157 5.5 2.5V4C5.5 4.82843 4.82843 5.5 4 5.5H2.5C1.67157 5.5 1 4.82843 1 4V2.5ZM1.75 2.5C1.75 2.08579 2.08579 1.75 2.5 1.75H4C4.41421 1.75 4.75 2.08579 4.75 2.5V4C4.75 4.41421 4.41421 4.75 4 4.75H2.5C2.08579 4.75 1.75 4.41421 1.75 4V2.5Z" fill="#18202A"/>
<path fill-rule="evenodd" clip-rule="evenodd" d="M1 8C1 7.17157 1.67157 6.5 2.5 6.5H4C4.82843 6.5 5.5 7.17157 5.5 8V9.5C5.5 10.3284 4.82843 11 4 11H2.5C1.67157 11 1 10.3284 1 9.5V8ZM1.75 8C1.75 7.58579 2.08579 7.25 2.5 7.25H4C4.41421 7.25 4.75 7.58579 4.75 8V9.5C4.75 9.91421 4.41421 10.25 4 10.25H2.5C2.08579 10.25 1.75 9.91421 1.75 9.5V8Z" fill="#18202A"/>
<path fill-rule="evenodd" clip-rule="evenodd" d="M8 1C7.17157 1 6.5 1.67157 6.5 2.5V4C6.5 4.82843 7.17157 5.5 8 5.5H9.5C10.3284 5.5 11 4.82843 11 4V2.5C11 1.67157 10.3284 1 9.5 1H8ZM10.25 2.5C10.25 2.08579 9.91421 1.75 9.5 1.75H8C7.58579 1.75 7.25 2.08579 7.25 2.5V4C7.25 4.41421 7.58579 4.75 8 4.75H9.5C9.91421 4.75 10.25 4.41421 10.25 4V2.5Z" fill="#18202A"/>
<path fill-rule="evenodd" clip-rule="evenodd" d="M6.5 8C6.5 7.17157 7.17157 6.5 8 6.5H9.5C10.3284 6.5 11 7.17157 11 8V9.5C11 10.3284 10.3284 11 9.5 11H8C7.17157 11 6.5 10.3284 6.5 9.5V8ZM7.25 8C7.25 7.58579 7.58579 7.25 8 7.25H9.5C9.91421 7.25 10.25 7.58579 10.25 8V9.5C10.25 9.91421 9.91421 10.25 9.5 10.25H8C7.58579 10.25 7.25 9.91421 7.25 9.5V8Z" fill="#18202A"/>
</svg>
