<svg width="12" height="12" viewBox="0 0 12 12" fill="none" xmlns="http://www.w3.org/2000/svg">
<g clip-path="url(#clip0_2266_39828)">
<path fill-rule="evenodd" clip-rule="evenodd" d="M6 10.75C8.62335 10.75 10.75 8.62335 10.75 6C10.75 3.37665 8.62335 1.25 6 1.25C3.37665 1.25 1.25 3.37665 1.25 6C1.25 8.62335 3.37665 10.75 6 10.75ZM6 11.5C9.03757 11.5 11.5 9.03757 11.5 6C11.5 2.96243 9.03757 0.5 6 0.5C2.96243 0.5 0.5 2.96243 0.5 6C0.5 9.03757 2.96243 11.5 6 11.5Z" fill="#18202A"/>
<path fill-rule="evenodd" clip-rule="evenodd" d="M5.83229 0.66459C5.93787 0.611803 6.06213 0.611803 6.1677 0.66459C8.08185 1.62166 9 3.71732 9 5.8125C9 7.91034 8.08296 10.1068 6.20278 11.3154C6.07926 11.3949 5.92074 11.3949 5.79722 11.3154C3.91704 10.1068 3 7.91034 3 5.8125C3 3.71732 3.91815 1.62166 5.83229 0.66459ZM5.625 1.66526C4.39262 2.56103 3.75 4.1383 3.75 5.8125C3.75 7.47362 4.38523 9.15489 5.625 10.2478V1.66526ZM6.375 10.2478V1.66526C7.60738 2.56103 8.25 4.1383 8.25 5.8125C8.25 7.47362 7.61477 9.15489 6.375 10.2478Z" fill="#18202A"/>
<path fill-rule="evenodd" clip-rule="evenodd" d="M11 6.375H1V5.625H11V6.375Z" fill="#18202A"/>
</g>
<defs>
<clipPath id="clip0_2266_39828">
<rect width="12" height="12" fill="white"/>
</clipPath>
</defs>
</svg>
