<svg width="12" height="12" viewBox="0 0 12 12" fill="none" xmlns="http://www.w3.org/2000/svg">
<g clip-path="url(#clip0_2266_38777)">
<path fill-rule="evenodd" clip-rule="evenodd" d="M9.5 1.25H2.5C1.80964 1.25 1.25 1.80964 1.25 2.5V9.5C1.25 10.1904 1.80964 10.75 2.5 10.75H9.5C10.1904 10.75 10.75 10.1904 10.75 9.5V2.5C10.75 1.80964 10.1904 1.25 9.5 1.25ZM2.5 0.5C1.39543 0.5 0.5 1.39543 0.5 2.5V9.5C0.5 10.6046 1.39543 11.5 2.5 11.5H9.5C10.6046 11.5 11.5 10.6046 11.5 9.5V2.5C11.5 1.39543 10.6046 0.5 9.5 0.5H2.5ZM2 3C2 2.44772 2.44772 2 3 2C3.55228 2 4 2.44772 4 3C4 3.55228 3.55228 4 3 4C2.44772 4 2 3.55228 2 3ZM5.375 2.625C5.16789 2.625 5 2.79289 5 3C5 3.20711 5.16789 3.375 5.375 3.375H9.375C9.58211 3.375 9.75 3.20711 9.75 3C9.75 2.79289 9.58211 2.625 9.375 2.625H5.375ZM3 5.5H9C9.13807 5.5 9.25 5.61193 9.25 5.75V9C9.25 9.13807 9.13807 9.25 9 9.25H3C2.86193 9.25 2.75 9.13807 2.75 9V5.75C2.75 5.61193 2.86193 5.5 3 5.5ZM2 5.75C2 5.19772 2.44772 4.75 3 4.75H9C9.55228 4.75 10 5.19772 10 5.75V9C10 9.55228 9.55228 10 9 10H3C2.44772 10 2 9.55228 2 9V5.75Z" fill="#18202A"/>
</g>
<defs>
<clipPath id="clip0_2266_38777">
<rect width="12" height="12" fill="white"/>
</clipPath>
</defs>
</svg>
