<svg width="12" height="12" viewBox="0 0 12 12" fill="none" xmlns="http://www.w3.org/2000/svg">
<g clip-path="url(#clip0_3289_16715)">
<g clip-path="url(#clip1_3289_16715)">
<path d="M4.74611 3.94728C4.5801 4.05795 4.50001 4.19395 4.50001 4.375C4.50001 4.65114 4.27615 4.875 4.00001 4.875C3.72387 4.875 3.50001 4.65114 3.50001 4.375C3.50001 3.80605 3.79492 3.37955 4.19141 3.11522C4.57308 2.86078 5.05084 2.75 5.50001 2.75C6.62216 2.75 7.50001 3.57073 7.50001 4.625C7.50001 5.17812 7.16832 5.7093 6.88901 6.07975C6.65997 6.38355 6.39723 6.66406 6.23225 6.8402C6.1872 6.8883 6.14944 6.92861 6.12165 6.95949C5.93599 7.16577 5.52905 7.6021 5.15619 8H7.00001C7.27615 8 7.50001 8.22386 7.50001 8.5C7.50001 8.77614 7.27615 9 7.00001 9H4.00001C3.80044 9 3.61998 8.88132 3.54092 8.69808C3.46186 8.51484 3.49934 8.30213 3.63626 8.15695L3.85547 7.92421C3.98947 7.78182 4.17209 7.58758 4.36663 7.3801C4.75753 6.96317 5.19103 6.49865 5.37837 6.29051C5.42259 6.24138 5.47324 6.18723 5.52836 6.1283C5.69318 5.95208 5.89802 5.73308 6.09053 5.47774C6.35972 5.1207 6.50001 4.82188 6.50001 4.625C6.50001 4.17927 6.12786 3.75 5.50001 3.75C5.19918 3.75 4.92694 3.82672 4.74611 3.94728Z" fill="#18202A"/>
<path d="M2.21209 2.79721C2.38778 2.8795 2.50001 3.056 2.50001 3.25001V8.50001C2.50001 8.77615 2.27615 9.00001 2.00001 9.00001C1.72387 9.00001 1.50001 8.77615 1.50001 8.50001V4.31753L0.820105 4.88412C0.607966 5.0609 0.292684 5.03224 0.115902 4.8201C-0.0608801 4.60796 -0.0322181 4.29268 0.17992 4.1159L1.67992 2.8659C1.82896 2.74169 2.0364 2.71492 2.21209 2.79721Z" fill="#18202A"/>
<path d="M9.2461 3.94728C9.08009 4.05795 9 4.19395 9 4.375C9 4.65114 8.77614 4.875 8.5 4.875C8.22386 4.875 8 4.65114 8 4.375C8 3.80605 8.29491 3.37955 8.6914 3.11522C9.07307 2.86078 9.55083 2.75 10 2.75C10.5295 2.75 11.0239 2.90138 11.396 3.20778C11.7758 3.52058 12 3.97413 12 4.5C12 5.10187 11.7543 5.56355 11.371 5.87502C11.7543 6.18648 12 6.64816 12 7.25003C12 7.66035 11.885 8.00168 11.6843 8.27126C11.4878 8.53517 11.2323 8.69966 10.9962 8.80231C10.5412 9.00017 10.0823 9.00005 10.0023 9.00003H10C9.6351 9.00003 9.16391 8.92924 8.7651 8.69835C8.3391 8.45171 8 8.01832 8 7.375C8 7.09886 8.22386 6.875 8.5 6.875C8.77614 6.875 9 7.09886 9 7.375C9 7.60668 9.0984 7.73581 9.26615 7.83293C9.46109 7.9458 9.7399 8.00003 10 8.00003C10.0518 8.00003 10.3384 7.9979 10.5975 7.88524C10.7208 7.83164 10.8169 7.76176 10.8821 7.67411C10.9432 7.59212 11 7.4647 11 7.25003C11 6.92259 10.8693 6.7326 10.6758 6.60355C10.457 6.45768 10.1275 6.37503 9.75 6.37503C9.47386 6.37503 9.25 6.15117 9.25 5.87503C9.25 5.59888 9.47386 5.37503 9.75 5.37503C10.1275 5.37503 10.457 5.29237 10.6758 5.14649C10.8693 5.01744 11 4.82744 11 4.5C11 4.27587 10.9117 4.10442 10.7603 3.97972C10.6011 3.84862 10.3455 3.75 10 3.75C9.69917 3.75 9.42693 3.82672 9.2461 3.94728Z" fill="#18202A"/>
</g>
</g>
<defs>
<clipPath id="clip0_3289_16715">
<rect width="12" height="12" fill="white"/>
</clipPath>
<clipPath id="clip1_3289_16715">
<rect width="12" height="12" fill="white"/>
</clipPath>
</defs>
</svg>
