<svg width="12" height="12" viewBox="0 0 12 12" fill="none" xmlns="http://www.w3.org/2000/svg">
<g clip-path="url(#clip0_2266_40440)">
<path d="M3 0.5C1.61929 0.5 0.5 1.61929 0.5 3V9C0.5 10.3807 1.61929 11.5 3 11.5H6.93808C6.76013 11.2724 6.61186 11.0204 6.49908 10.75H3C2.0335 10.75 1.25 9.9665 1.25 9V3C1.25 2.0335 2.0335 1.25 3 1.25H9C9.9665 1.25 10.75 2.0335 10.75 3V6.49908C11.0204 6.61186 11.2724 6.76013 11.5 6.93808V3C11.5 1.61929 10.3807 0.5 9 0.5H3Z" fill="#18202A"/>
<path d="M3.5 3.25V2.25H2.5V3.25H3.5Z" fill="#18202A"/>
<path fill-rule="evenodd" clip-rule="evenodd" d="M4.5 4.72221C4.5 4.35962 4.89189 4.13565 5.19992 4.3222L7.30563 5.59749C7.60479 5.77868 7.60479 6.21633 7.30563 6.39752L5.19992 7.67281C4.89189 7.85936 4.5 7.6354 4.5 7.2728V4.72221ZM5.25 5.22936V6.76565L6.51833 5.99751L5.25 5.22936Z" fill="#18202A"/>
<path d="M3.5 9.75V8.75H2.5V9.75H3.5Z" fill="#18202A"/>
<path d="M5.5 2.25H4.5V3.25H5.5V2.25Z" fill="#18202A"/>
<path d="M5.5 8.75H4.5V9.75H5.5V8.75Z" fill="#18202A"/>
<path d="M7.5 2.25H6.5V3.25H7.5V2.25Z" fill="#18202A"/>
<path d="M9.5 3.25V2.25H8.5V3.25H9.5Z" fill="#18202A"/>
<path fill-rule="evenodd" clip-rule="evenodd" d="M9.5 12C10.8807 12 12 10.8807 12 9.5C12 8.11929 10.8807 7 9.5 7C8.11929 7 7 8.11929 7 9.5C7 10.8807 8.11929 12 9.5 12ZM9.875 8.375C9.875 8.16789 9.70711 8 9.5 8C9.29289 8 9.125 8.16789 9.125 8.375V9.125H8.375C8.16789 9.125 8 9.29289 8 9.5C8 9.70711 8.16789 9.875 8.375 9.875H9.125V10.625C9.125 10.8321 9.29289 11 9.5 11C9.70711 11 9.875 10.8321 9.875 10.625V9.875H10.625C10.8321 9.875 11 9.70711 11 9.5C11 9.29289 10.8321 9.125 10.625 9.125H9.875V8.375Z" fill="#18202A"/>
</g>
<defs>
<clipPath id="clip0_2266_40440">
<rect width="12" height="12" fill="white"/>
</clipPath>
</defs>
</svg>
