<svg width="12" height="12" viewBox="0 0 12 12" fill="none" xmlns="http://www.w3.org/2000/svg">
<path d="M6 5.5C7.33333 5.5 8 4.25 8 2.6875C8 1.4375 7.33333 0.5 6 0.5C4.66667 0.5 4 1.4375 4 2.6875C4 4.25 4.66667 5.5 6 5.5Z" fill="#18202A"/>
<path d="M8.24104 11.2188C8.85056 11.0626 9.36716 10.6543 9.65008 10.0923C9.65404 10.0844 9.65799 10.0765 9.66192 10.0686C9.66577 10.0609 9.66961 10.0532 9.67344 10.0455C10.0645 9.25565 9.93154 8.28802 9.26417 7.71237C8.38828 6.95685 7.2475 6.5 6.00002 6.5C4.75252 6.5 3.61173 6.95686 2.73583 7.7124C2.06847 8.28806 1.93547 9.25568 2.32658 10.0455C2.33432 10.0611 2.3421 10.0767 2.34993 10.0922C2.63285 10.6543 3.14945 11.0626 3.75897 11.2188C4.47541 11.4024 5.22631 11.5 6.00001 11.5C6.7737 11.5 7.5246 11.4024 8.24104 11.2188Z" fill="#18202A"/>
</svg>
