<svg width="12" height="12" viewBox="0 0 12 12" fill="none" xmlns="http://www.w3.org/2000/svg">
<g clip-path="url(#clip0_2266_37377)">
<path fill-rule="evenodd" clip-rule="evenodd" d="M3 0.5C1.61929 0.5 0.5 1.61929 0.5 3V9C0.5 10.3807 1.61929 11.5 3 11.5H9C10.3807 11.5 11.5 10.3807 11.5 9V3C11.5 1.61929 10.3807 0.5 9 0.5H3ZM3.5 2.5V1.5H2.5V2.5H3.5ZM4.5 4.72221C4.5 4.35961 4.89189 4.13565 5.19992 4.3222L7.30563 5.59749C7.60479 5.77868 7.60479 6.21633 7.30563 6.39752L5.19992 7.67281C4.89189 7.85936 4.5 7.6354 4.5 7.2728V4.72221ZM2.5 10.5V9.5H3.5V10.5H2.5ZM5.5 1.5H4.5V2.5H5.5V1.5ZM4.5 9.5H5.5V10.5H4.5V9.5ZM7.5 1.5H6.5V2.5H7.5V1.5ZM6.5 9.5H7.5V10.5H6.5V9.5ZM9.5 2.5V1.5H8.5V2.5H9.5ZM8.5 10.5V9.5H9.5V10.5H8.5Z" fill="#18202A"/>
</g>
<defs>
<clipPath id="clip0_2266_37377">
<rect width="12" height="12" fill="white"/>
</clipPath>
</defs>
</svg>
