<svg width="12" height="12" viewBox="0 0 12 12" fill="none" xmlns="http://www.w3.org/2000/svg">
<path d="M4 1.875C2.82639 1.875 1.875 2.82639 1.875 4C1.875 4.8708 2.39885 5.62009 3.15014 5.94835C3.33992 6.03127 3.42655 6.25233 3.34363 6.44212C3.26071 6.6319 3.03964 6.71853 2.84986 6.63561C1.83525 6.19231 1.125 5.17952 1.125 4C1.125 2.41218 2.41218 1.125 4 1.125C5.17952 1.125 6.19231 1.83525 6.63561 2.84986C6.71853 3.03964 6.6319 3.26071 6.44212 3.34363C6.25233 3.42655 6.03127 3.33992 5.94835 3.15014C5.62009 2.39885 4.8708 1.875 4 1.875Z" fill="#18202A"/>
<path fill-rule="evenodd" clip-rule="evenodd" d="M3.64895 4.43403C3.49517 3.95073 3.95073 3.49517 4.43403 3.64895L9.2049 5.16696C9.7043 5.32585 9.79814 5.99187 9.36209 6.28257L8.45735 6.88573L10.1959 8.62428C10.44 8.86836 10.44 9.26409 10.1959 9.50817L9.50817 10.1959C9.26409 10.44 8.86836 10.44 8.62428 10.1959L6.88572 8.45735L6.28257 9.36209C5.99187 9.79814 5.32585 9.7043 5.16696 9.2049L3.64895 4.43403ZM4.43692 4.43692L5.80279 8.72967L6.51542 7.66072C6.57774 7.56724 6.67869 7.50663 6.79049 7.49556C6.90229 7.48449 7.01316 7.52413 7.09261 7.60357L9.06622 9.57719L9.57719 9.06623L7.60357 7.09261C7.52413 7.01316 7.48449 6.90229 7.49556 6.79049C7.50663 6.67869 7.56724 6.57774 7.66072 6.51542L8.72966 5.80279L4.43692 4.43692Z" fill="#18202A"/>
</svg>
