<svg width="12" height="12" viewBox="0 0 12 12" fill="none" xmlns="http://www.w3.org/2000/svg">
<g clip-path="url(#clip0_2266_38958)">
<path fill-rule="evenodd" clip-rule="evenodd" d="M6 10.75C8.62335 10.75 10.75 8.62335 10.75 6C10.75 3.37665 8.62335 1.25 6 1.25C3.37665 1.25 1.25 3.37665 1.25 6C1.25 8.62335 3.37665 10.75 6 10.75ZM11.5 6C11.5 9.03757 9.03757 11.5 6 11.5C2.96243 11.5 0.5 9.03757 0.5 6C0.5 2.96243 2.96243 0.5 6 0.5C9.03757 0.5 11.5 2.96243 11.5 6Z" fill="#18202A"/>
<path fill-rule="evenodd" clip-rule="evenodd" d="M9.76517 2.23483C9.61872 2.08839 9.38128 2.08839 9.23483 2.23483L2.23483 9.23483C2.08839 9.38128 2.08839 9.61872 2.23483 9.76517C2.38128 9.91161 2.61872 9.91161 2.76516 9.76517L9.76517 2.76517C9.91161 2.61872 9.91161 2.38128 9.76517 2.23483Z" fill="#18202A"/>
</g>
<defs>
<clipPath id="clip0_2266_38958">
<rect width="12" height="12" fill="white"/>
</clipPath>
</defs>
</svg>
