<svg width="12" height="12" viewBox="0 0 12 12" fill="none" xmlns="http://www.w3.org/2000/svg">
<g clip-path="url(#clip0_2266_35219)">
<path fill-rule="evenodd" clip-rule="evenodd" d="M3 0.875C3 0.667893 3.16789 0.5 3.375 0.5C3.58211 0.5 3.75 0.667893 3.75 0.875V1.5H8.25V0.875C8.25 0.667893 8.41789 0.5 8.625 0.5C8.83211 0.5 9 0.667893 9 0.875V1.5H9.5C10.6046 1.5 11.5 2.39543 11.5 3.5V6.20487C11.2732 6.00183 11.0214 5.82601 10.75 5.68252V3.5C10.75 2.80964 10.1904 2.25 9.5 2.25H9V3.125C9 3.33211 8.83211 3.5 8.625 3.5C8.41789 3.5 8.25 3.33211 8.25 3.125V2.25H3.75V3.125C3.75 3.33211 3.58211 3.5 3.375 3.5C3.16789 3.5 3 3.33211 3 3.125V2.25H2.5C1.80964 2.25 1.25 2.80964 1.25 3.5V9.5C1.25 10.1904 1.80964 10.75 2.5 10.75H5.68252C5.82601 11.0214 6.00183 11.2732 6.20487 11.5H2.5C1.39543 11.5 0.5 10.6046 0.5 9.5V3.5C0.5 2.39543 1.39543 1.5 2.5 1.5H3V0.875ZM9.125 5.25H9.00191L9 5.25L8.99809 5.25H2.875C2.66789 5.25 2.5 5.08211 2.5 4.875C2.5 4.66789 2.66789 4.5 2.875 4.5H9.125C9.33211 4.5 9.5 4.66789 9.5 4.875C9.5 5.08211 9.33211 5.25 9.125 5.25ZM5 8.5C5.10079 8.5 5.19461 8.52982 5.27313 8.58112C5.25785 8.71864 5.25 8.85841 5.25 9C5.25 9.14159 5.25785 9.28136 5.27313 9.41888C5.19461 9.47018 5.10079 9.5 5 9.5C4.72386 9.5 4.5 9.27614 4.5 9C4.5 8.72386 4.72386 8.5 5 8.5ZM3 6.5C2.72386 6.5 2.5 6.72386 2.5 7C2.5 7.27614 2.72386 7.5 3 7.5C3.27614 7.5 3.5 7.27614 3.5 7C3.5 6.72386 3.27614 6.5 3 6.5ZM2.5 9C2.5 8.72386 2.72386 8.5 3 8.5C3.27614 8.5 3.5 8.72386 3.5 9C3.5 9.27614 3.27614 9.5 3 9.5C2.72386 9.5 2.5 9.27614 2.5 9ZM5 6.5C4.72386 6.5 4.5 6.72386 4.5 7C4.5 7.27614 4.72386 7.5 5 7.5C5.27614 7.5 5.5 7.27614 5.5 7C5.5 6.72386 5.27614 6.5 5 6.5ZM12 9C12 10.6569 10.6569 12 9 12C7.34315 12 6 10.6569 6 9C6 7.34315 7.34315 6 9 6C10.6569 6 12 7.34315 12 9ZM9 7.375C9.20711 7.375 9.375 7.54289 9.375 7.75V8.84467L10.0152 9.48483C10.1616 9.63128 10.1616 9.86872 10.0152 10.0152C9.86872 10.1616 9.63128 10.1616 9.48483 10.0152L8.73483 9.26517C8.66451 9.19484 8.625 9.09946 8.625 9V7.75C8.625 7.54289 8.79289 7.375 9 7.375Z" fill="#18202A"/>
</g>
<defs>
<clipPath id="clip0_2266_35219">
<rect width="12" height="12" fill="white"/>
</clipPath>
</defs>
</svg>
