<svg width="12" height="12" viewBox="0 0 12 12" fill="none" xmlns="http://www.w3.org/2000/svg">
<path d="M11 3C11.2761 3 11.5 2.77614 11.5 2.5C11.5 2.22386 11.2761 2 11 2H1C0.723858 2 0.5 2.22386 0.5 2.5C0.5 2.77614 0.723858 3 1 3H11Z" fill="#18202A"/>
<path d="M11 6.5C11.2761 6.5 11.5 6.27614 11.5 6C11.5 5.72386 11.2761 5.5 11 5.5H1C0.723858 5.5 0.5 5.72386 0.5 6C0.5 6.27614 0.723858 6.5 1 6.5H11Z" fill="#18202A"/>
<path d="M11 10C11.2761 10 11.5 9.77614 11.5 9.5C11.5 9.22386 11.2761 9 11 9H1C0.723858 9 0.5 9.22386 0.5 9.5C0.5 9.77614 0.723858 10 1 10H11Z" fill="#18202A"/>
</svg>
