<svg width="12" height="12" viewBox="0 0 12 12" fill="none" xmlns="http://www.w3.org/2000/svg">
<path fill-rule="evenodd" clip-rule="evenodd" d="M6 6.25C6.69036 6.25 7.25 5.69036 7.25 5C7.25 4.30964 6.69036 3.75 6 3.75C5.30964 3.75 4.75 4.30964 4.75 5C4.75 5.69036 5.30964 6.25 6 6.25ZM6 7C7.10457 7 8 6.10457 8 5C8 3.89543 7.10457 3 6 3C4.89543 3 4 3.89543 4 5C4 6.10457 4.89543 7 6 7Z" fill="#18202A"/>
<path d="M6 0.5C6.93945 0.5 7.8578 0.778575 8.63895 1.3005C9.42005 1.82243 10.0289 2.56426 10.3884 3.43219C10.7479 4.30013 10.842 5.2552 10.6587 6.1766C10.4755 7.098 10.0231 7.94435 9.35885 8.60865L7.1192 11.0303C6.9723 11.1774 6.79785 11.294 6.60585 11.3736C6.4138 11.4532 6.2079 11.4942 6 11.4942C5.7921 11.4942 5.5862 11.4532 5.39415 11.3736C5.20205 11.294 5.02755 11.1773 4.8806 11.0302L2.64116 8.60865C1.97688 7.94435 1.52451 7.098 1.34125 6.1766C1.15799 5.2552 1.25207 4.30013 1.6116 3.43219C1.97112 2.56426 2.57994 1.82243 3.36107 1.3005C4.14219 0.778575 5.06055 0.5 6 0.5ZM6 1.25C5.20888 1.25 4.43553 1.48459 3.77774 1.9241C3.11995 2.36363 2.60726 2.98833 2.3045 3.71922C2.00175 4.45011 1.92252 5.25438 2.07685 6.0303C2.22088 6.75448 2.56232 7.42361 3.07851 7.98158L3.19178 8.09942L5.41121 10.5001C5.4885 10.5775 5.58026 10.6388 5.68132 10.6807C5.78236 10.7226 5.89069 10.7442 6 10.7442C6.10931 10.7442 6.21764 10.7226 6.31862 10.6807C6.39948 10.6472 6.47438 10.6012 6.53035 10.5553L6.56858 10.5211L8.8285 8.07834C9.3879 7.5189 9.76885 6.80617 9.92316 6.0303C10.0775 5.25434 9.99826 4.45008 9.69549 3.7192C9.39277 2.98835 8.88007 2.36364 8.22228 1.92411C7.56446 1.48459 6.79111 1.25 6 1.25Z" fill="#18202A"/>
</svg>
