<svg width="12" height="12" viewBox="0 0 12 12" fill="none" xmlns="http://www.w3.org/2000/svg">
<g clip-path="url(#clip0_3075_8914)">
<path d="M11.8586 1.34839C12.0511 1.15032 12.0465 0.833773 11.8484 0.641361C11.6503 0.448949 11.3338 0.453536 11.1414 0.651607L6.65307 5.27191L4.86827 3.32846C4.68148 3.12508 4.36519 3.11162 4.1618 3.2984C3.95841 3.48519 3.94495 3.80148 4.13174 4.00487L6.2746 6.3382C6.36764 6.43952 6.49831 6.49802 6.63585 6.49995C6.77339 6.50188 6.90565 6.44706 7.0015 6.34839L11.8586 1.34839Z" fill="#18202A"/>
<path d="M0.5 3C0.5 1.89543 1.39543 1 2.5 1H9.40877L6.67349 3.81574L5.6048 2.65206C5.04445 2.0419 4.09556 2.00152 3.4854 2.56187C2.87524 3.12222 2.83486 4.07111 3.39521 4.68127L5.53807 7.01461C5.8172 7.31855 6.20922 7.49407 6.62184 7.49985C7.03446 7.50564 7.43125 7.34117 7.71878 7.04518L11.5 3.15275V7.5C11.5 8.60457 10.6046 9.5 9.5 9.5H6.45455L3.22777 11.4186C2.8537 11.641 2.39375 11.3125 2.48282 10.8865L2.77273 9.5H2.5C1.39543 9.5 0.5 8.60457 0.5 7.5V3Z" fill="#18202A"/>
</g>
<defs>
<clipPath id="clip0_3075_8914">
<rect width="12" height="12" fill="white"/>
</clipPath>
</defs>
</svg>
