<svg width="12" height="12" viewBox="0 0 12 12" fill="none" xmlns="http://www.w3.org/2000/svg">
<path d="M4.5 2.5C4.5 1.67157 5.17157 1 6 1C6.82843 1 7.5 1.67157 7.5 2.5V5.5C7.5 6.32843 6.82843 7 6 7C5.17157 7 4.5 6.32843 4.5 5.5V2.5Z" fill="#18202A"/>
<path d="M3.00002 5.5C2.72387 5.5 2.49626 5.72514 2.53525 5.99852C2.75393 7.53206 3.96667 8.74522 5.5 8.96455V10H4.25C3.97386 10 3.75 10.2239 3.75 10.5C3.75 10.7761 3.97386 11 4.25 11H7.75C8.02614 11 8.25 10.7761 8.25 10.5C8.25 10.2239 8.02614 10 7.75 10H6.5V8.96456C8.03335 8.74524 9.2461 7.53207 9.46478 5.99852C9.50377 5.72514 9.27616 5.5 9.00002 5.5C8.72387 5.5 8.50523 5.72611 8.45065 5.99681C8.22025 7.13952 7.21062 8 6.00002 8C4.78941 8 3.77978 7.13952 3.54938 5.99681C3.4948 5.72611 3.27616 5.5 3.00002 5.5Z" fill="#18202A"/>
</svg>
