<svg width="12" height="12" viewBox="0 0 12 12" fill="none" xmlns="http://www.w3.org/2000/svg">
<path fill-rule="evenodd" clip-rule="evenodd" d="M6 5.5C7.33333 5.5 8 4.25 8 2.6875C8 1.4375 7.33333 0.5 6 0.5C4.66667 0.5 4 1.4375 4 2.6875C4 4.25 4.66667 5.5 6 5.5ZM6.00002 6.5C6.48638 6.5 6.95651 6.56944 7.40106 6.69895C6.55034 7.33744 6 8.35445 6 9.5C6 10.2347 6.22635 10.9165 6.61312 11.4794C6.41051 11.4931 6.20607 11.5 6.00001 11.5C5.22631 11.5 4.47541 11.4024 3.75897 11.2188C3.14945 11.0626 2.63285 10.6543 2.34993 10.0922L2.32658 10.0455C1.93547 9.25568 2.06847 8.28806 2.73583 7.7124C3.61173 6.95686 4.75252 6.5 6.00002 6.5ZM12 9.5C12 10.8807 10.8807 12 9.5 12C8.11929 12 7 10.8807 7 9.5C7 8.11929 8.11929 7 9.5 7C10.8807 7 12 8.11929 12 9.5ZM10.7374 8.26258C10.8839 8.40903 10.8839 8.64647 10.7374 8.79291L10.0303 9.50002L10.7374 10.2071C10.8839 10.3536 10.8839 10.591 10.7374 10.7375C10.591 10.8839 10.3536 10.8839 10.2071 10.7375L9.5 10.0303L8.79289 10.7375C8.64645 10.8839 8.40901 10.8839 8.26256 10.7375C8.11612 10.591 8.11612 10.3536 8.26256 10.2071L8.96967 9.50002L8.26256 8.79291C8.11612 8.64647 8.11612 8.40903 8.26256 8.26258C8.40901 8.11614 8.64645 8.11614 8.79289 8.26258L9.5 8.96969L10.2071 8.26258C10.3536 8.11614 10.591 8.11614 10.7374 8.26258Z" fill="#18202A"/>
</svg>
