<svg width="12" height="12" viewBox="0 0 12 12" fill="none" xmlns="http://www.w3.org/2000/svg">
<g clip-path="url(#clip0_3750_8819)">
<path d="M4.60156 1.99965L4.62509 1.99902L4.64796 1.99963C4.65918 2.00027 4.67042 2.00144 4.68165 2.00314L4.68969 2.00505C4.7324 2.01191 4.77484 2.02716 4.81529 2.05112L4.84122 2.06789L7.26137 3.76964C7.33037 3.81817 7.42241 3.81817 7.49142 3.76966L9.9099 2.06956C10.1438 1.90517 10.4606 2.05293 10.4971 2.3241L10.5006 2.37635V7.69261C10.5006 7.79727 10.4569 7.89631 10.3815 7.9667L10.3412 7.99939L7.59122 9.93258C7.45777 10.0264 7.29729 10.0186 7.17731 9.94414L4.73994 8.22946C4.67092 8.18091 4.57885 8.18089 4.50982 8.22943L2.09005 9.93091C1.85619 10.0953 1.53932 9.94754 1.50285 9.67637L1.49939 9.62413V4.30786C1.49939 4.2032 1.54307 4.10416 1.61845 4.03378L1.65873 4.00108L4.40873 2.06789C4.44073 2.04539 4.47429 2.02874 4.50847 2.01745L4.5697 2.00345L4.60156 1.99965ZM9.75056 3.48342C9.75056 3.32143 9.56806 3.22664 9.43554 3.3198L7.83554 4.44456C7.78226 4.48202 7.75056 4.54306 7.75056 4.60818V8.51873C7.75056 8.68071 7.93306 8.7755 8.06558 8.68234L9.66558 7.55758C9.71885 7.52013 9.75056 7.45909 9.75056 7.39396V3.48342ZM4.24939 3.48175C4.24939 3.31976 4.06689 3.22497 3.93437 3.31813L2.33437 4.44289C2.2811 4.48034 2.24939 4.54139 2.24939 4.60651V8.51706C2.24939 8.67904 2.43189 8.77383 2.56441 8.68067L4.16441 7.55591C4.21768 7.51846 4.24939 7.45741 4.24939 7.39229V3.48175ZM5.31558 3.31813C5.18306 3.22497 5.00056 3.31976 5.00056 3.48175V7.39229C5.00056 7.45741 5.03226 7.51846 5.08554 7.55591L6.68554 8.68067C6.81806 8.77383 7.00056 8.67904 7.00056 8.51706V4.60651C7.00056 4.54139 6.96885 4.48034 6.91558 4.44289L5.31558 3.31813Z" fill="#18202A"/>
</g>
<defs>
<clipPath id="clip0_3750_8819">
<rect width="12" height="12" fill="white"/>
</clipPath>
</defs>
</svg>
