<svg width="12" height="12" viewBox="0 0 12 12" fill="none" xmlns="http://www.w3.org/2000/svg">
<path d="M3.125 1C3.33211 1 3.5 1.16789 3.5 1.375C3.5 1.58211 3.33211 1.75 3.125 1.75H2.5C2.08579 1.75 1.75 2.08579 1.75 2.5V3.125C1.75 3.33211 1.58211 3.5 1.375 3.5C1.16789 3.5 1 3.33211 1 3.125V2.5C1 1.67157 1.67157 1 2.5 1H3.125Z" fill="#18202A"/>
<path d="M8.5 1.375C8.5 1.58211 8.66789 1.75 8.875 1.75H9.5C9.91421 1.75 10.25 2.08579 10.25 2.5V3.125C10.25 3.33211 10.4179 3.5 10.625 3.5C10.8321 3.5 11 3.33211 11 3.125V2.5C11 1.67157 10.3284 1 9.5 1H8.875C8.66789 1 8.5 1.16789 8.5 1.375Z" fill="#18202A"/>
<path d="M8.5 10.625C8.5 10.4179 8.66789 10.25 8.875 10.25H9.5C9.91421 10.25 10.25 9.91421 10.25 9.5V8.875C10.25 8.66789 10.4179 8.5 10.625 8.5C10.8321 8.5 11 8.66789 11 8.875V9.5C11 10.3284 10.3284 11 9.5 11H8.875C8.66789 11 8.5 10.8321 8.5 10.625Z" fill="#18202A"/>
<path d="M1.75 8.875C1.75 8.66789 1.58211 8.5 1.375 8.5C1.16789 8.5 1 8.66789 1 8.875V9.5C1 10.3284 1.67157 11 2.5 11H3.125C3.33211 11 3.5 10.8321 3.5 10.625C3.5 10.4179 3.33211 10.25 3.125 10.25H2.5C2.08579 10.25 1.75 9.91421 1.75 9.5V8.875Z" fill="#18202A"/>
<path fill-rule="evenodd" clip-rule="evenodd" d="M3 6.5C2.72386 6.5 2.5 6.72386 2.5 7V9C2.5 9.27614 2.72386 9.5 3 9.5H5C5.27614 9.5 5.5 9.27614 5.5 9V7C5.5 6.72386 5.27614 6.5 5 6.5H3ZM3.25 7.25V8.75H4.75V7.25H3.25Z" fill="#18202A"/>
<path fill-rule="evenodd" clip-rule="evenodd" d="M3 2.5C2.72386 2.5 2.5 2.72386 2.5 3V5C2.5 5.27614 2.72386 5.5 3 5.5H5C5.27614 5.5 5.5 5.27614 5.5 5V3C5.5 2.72386 5.27614 2.5 5 2.5H3ZM3.25 3.25V4.75H4.75V3.25H3.25Z" fill="#18202A"/>
<path fill-rule="evenodd" clip-rule="evenodd" d="M7 2.5C6.72386 2.5 6.5 2.72386 6.5 3V5C6.5 5.27614 6.72386 5.5 7 5.5H9C9.27614 5.5 9.5 5.27614 9.5 5V3C9.5 2.72386 9.27614 2.5 9 2.5H7ZM7.25 3.25V4.75H8.75V3.25H7.25Z" fill="#18202A"/>
<path d="M6.5 6.5H7.25V7.25H6.5V6.5Z" fill="#18202A"/>
<path fill-rule="evenodd" clip-rule="evenodd" d="M8 7.25H7.25V8H6.5V8.75H7.25V9.5H8V8.75H8.75V9.5H9.5V8.75H8.75V8H9.5V7.25H8.75V6.5H8V7.25ZM8 8H8.75V7.25H8V8ZM8 8V8.75H7.25V8H8Z" fill="#18202A"/>
</svg>
