<svg width="12" height="12" viewBox="0 0 12 12" fill="none" xmlns="http://www.w3.org/2000/svg">
<path d="M5.98761 3.50001C7.96265 3.49645 9.88256 4.15094 11.4441 5.36017C11.6048 5.48187 11.7374 5.63676 11.8328 5.8143C11.9282 5.99183 11.9843 6.18785 11.9971 6.389C12.01 6.59015 11.9794 6.7917 11.9073 6.97995C11.8473 7.13683 11.7597 7.28139 11.6489 7.40692L11.5797 7.4799L10.5876 8.47198C10.3547 8.71176 10.0439 8.8605 9.71101 8.89142C9.37818 8.92233 9.04522 8.83341 8.77214 8.64063C8.68616 8.57449 8.59687 8.51166 8.50758 8.45544C8.32712 8.34171 8.13932 8.24009 7.94541 8.1512C7.73617 8.05361 7.57045 7.88207 7.48009 7.66962C7.40103 7.48373 7.38457 7.278 7.43183 7.08315L7.45598 7.00039L7.50228 6.76891C7.00101 6.62598 6.48248 6.55256 5.96124 6.55064C5.50516 6.55232 5.05118 6.60876 4.60898 6.71858L4.42022 6.7689L4.49628 6.99046C4.57111 7.20889 4.56252 7.44725 4.47217 7.65969C4.38179 7.87216 4.21608 8.04369 4.00685 8.14127C3.86097 8.20705 3.71882 8.28069 3.58102 8.36185L3.30785 8.53025C3.2628 8.5596 3.21981 8.59101 3.18343 8.62739C2.91676 8.81297 2.59394 8.90028 2.27009 8.87432C1.9822 8.85127 1.70933 8.74004 1.48808 8.55713L1.40759 8.48521L0.415517 7.49314C0.274531 7.35343 0.164774 7.18541 0.0935103 7.00012C0.0222792 6.81487 -0.00887201 6.61658 0.00217311 6.41837C0.0200602 6.10851 0.140083 5.81433 0.341941 5.58108L0.41223 5.50566L0.537893 5.37999C2.09506 4.1651 4.01258 3.50361 5.98761 3.50001ZM5.98897 4.25003C4.2502 4.25318 2.56011 4.81326 1.1652 5.84522L1.031 5.94701L0.960922 6.01696L0.909051 6.07189C0.814915 6.18066 0.759234 6.31768 0.751011 6.46009C0.745871 6.55235 0.760368 6.64467 0.793519 6.73089C0.818397 6.79557 0.853353 6.85574 0.897993 6.91024L0.945847 6.96281L1.90729 7.92592L1.96597 7.97909C2.06915 8.06439 2.19623 8.11601 2.33002 8.12672C2.45556 8.13678 2.58081 8.11025 2.6909 8.05114L2.728 8.02801L2.77161 7.99234L2.83867 7.94273L2.91428 7.89181L3.2004 7.71561C3.36169 7.62062 3.52799 7.53447 3.68983 7.46157C3.73125 7.44225 3.76408 7.40827 3.78199 7.36617C3.79542 7.3346 3.79973 7.30013 3.79486 7.26679L3.78691 7.23398L3.6238 6.75882C3.52965 6.48457 3.68778 6.188 3.96796 6.11334L4.42823 5.99068C4.92884 5.86637 5.44259 5.80255 5.964 5.80065C6.4802 5.80255 6.99398 5.86641 7.49435 5.9907L7.70794 6.04766L7.92977 6.11091C8.18036 6.18237 8.33406 6.43429 8.28295 6.6898L8.19142 7.14748L8.17593 7.21056L8.1607 7.25992C8.15131 7.2986 8.15464 7.33936 8.17026 7.37608C8.18818 7.4182 8.22101 7.45218 8.25792 7.46941C8.48199 7.57212 8.69898 7.68955 8.90719 7.82077C9.01515 7.88874 9.12352 7.9647 9.20469 8.02793C9.33175 8.11763 9.48672 8.15902 9.64165 8.14464C9.77443 8.1323 9.8997 8.07968 10.0059 7.98972L10.0573 7.94165L11.0355 6.96379L11.0866 6.91064C11.1382 6.85215 11.179 6.78485 11.2069 6.71193C11.2404 6.6243 11.2547 6.53049 11.2487 6.43688C11.2427 6.34325 11.2166 6.25202 11.1722 6.16938C11.1278 6.08676 11.0661 6.01466 10.9849 5.95316C9.61017 4.88859 7.93205 4.2936 6.19739 4.25232L5.98897 4.25003Z" fill="#18202A"/>
</svg>
