<svg width="12" height="12" viewBox="0 0 12 12" fill="none" xmlns="http://www.w3.org/2000/svg">
<path fill-rule="evenodd" clip-rule="evenodd" d="M6 11.375C6.20711 11.375 6.375 11.2071 6.375 11V5.90533L7.23483 6.76516C7.38128 6.91161 7.61872 6.91161 7.76517 6.76516C7.91161 6.61872 7.91161 6.38128 7.76517 6.23484L6.26516 4.73484C6.19484 4.66451 6.09946 4.625 6 4.625C5.90054 4.625 5.80516 4.66451 5.73483 4.73484L4.23484 6.23484C4.08839 6.38128 4.08839 6.61872 4.23484 6.76516C4.38128 6.91161 4.61872 6.91161 4.76517 6.76516L5.625 5.90533V11C5.625 11.2071 5.79289 11.375 6 11.375Z" fill="#18202A"/>
<path d="M8.63717 3.71712L8.80585 4.28647L9.39871 4.25286C9.43216 4.25097 9.46593 4.25 9.5 4.25C10.4665 4.25 11.25 5.0335 11.25 6C11.25 6.9665 10.4665 7.75 9.5 7.75H7.125V8.5H9.5C10.8807 8.5 12 7.38071 12 6C12 4.61929 10.8807 3.5 9.5 3.5C9.45176 3.5 9.40383 3.50137 9.35627 3.50406C8.92729 2.05623 7.587 1 6 1C4.413 1 3.07271 2.05623 2.64373 3.50406C2.59617 3.50137 2.54824 3.5 2.5 3.5C1.11929 3.5 0 4.61929 0 6C0 7.38071 1.11929 8.5 2.5 8.5H4.875V7.75H2.5C1.5335 7.75 0.75 6.9665 0.75 6C0.75 5.0335 1.5335 4.25 2.5 4.25C2.53407 4.25 2.56784 4.25097 2.60129 4.25286L3.19414 4.28647L3.36283 3.71712C3.70004 2.57902 4.75418 1.75 6 1.75C7.24582 1.75 8.29996 2.57902 8.63717 3.71712Z" fill="#18202A"/>
</svg>
