<svg width="12" height="12" viewBox="0 0 12 12" fill="none" xmlns="http://www.w3.org/2000/svg">
<path d="M6.92676 3.73101C6.76927 3.56668 6.49999 3.68307 6.49999 3.91548V4.77601C5.82168 4.79257 5.09457 4.9484 4.52362 5.40819C3.91133 5.90126 3.49999 6.72629 3.49999 8.03536C3.49999 8.09422 3.53777 8.14579 3.5922 8.16123C3.64664 8.17667 3.70424 8.15215 3.73279 8.10139C4.06862 7.50435 4.33528 7.14084 4.73406 6.91771C5.118 6.70287 5.64054 6.60922 6.49999 6.60115V7.4596C6.49999 7.69201 6.76927 7.8084 6.92676 7.64406L8.62499 5.872C8.72262 5.77012 8.72262 5.60495 8.62499 5.50307L6.92676 3.73101Z" fill="#18202A"/>
<path fill-rule="evenodd" clip-rule="evenodd" d="M0.5 3.65408C0.5 2.78964 1.17157 2.08887 2 2.08887H10C10.8284 2.08887 11.5 2.78964 11.5 3.65408V8.08683C11.5 8.95127 10.8284 9.65205 10 9.65205H11.625C11.8321 9.65205 12 9.82724 12 10.0434C12 10.2595 11.8321 10.4347 11.625 10.4347H0.375C0.167893 10.4347 0 10.2595 0 10.0434C0 9.82724 0.167893 9.65205 0.375 9.65205H2C1.17157 9.65205 0.5 8.95127 0.5 8.08683V3.65408ZM1.25 3.65408C1.25 3.22186 1.58579 2.87148 2 2.87148H10C10.4142 2.87148 10.75 3.22186 10.75 3.65408V8.08683C10.75 8.51905 10.4142 8.86944 10 8.86944H2C1.58579 8.86944 1.25 8.51905 1.25 8.08683V3.65408Z" fill="#18202A"/>
</svg>
