<svg width="12" height="12" viewBox="0 0 12 12" fill="none" xmlns="http://www.w3.org/2000/svg">
<path fill-rule="evenodd" clip-rule="evenodd" d="M3.1199 3.93557C2.27588 4.6187 1.63087 5.4349 1.27355 5.94021C1.25843 5.96159 1.25327 5.98207 1.25327 6C1.25327 6.01793 1.25843 6.03841 1.27354 6.05978C1.63087 6.5651 2.27588 7.3813 3.1199 8.06443C3.96903 8.7517 4.95145 9.25 5.99999 9.25C7.04852 9.25 8.03094 8.7517 8.88008 8.06443C9.7241 7.3813 10.3691 6.5651 10.7264 6.05978C10.7416 6.03841 10.7467 6.01793 10.7467 6C10.7467 5.98207 10.7416 5.96159 10.7264 5.94022C10.3691 5.4349 9.7241 4.6187 8.88008 3.93557C8.03094 3.2483 7.04852 2.75 5.99999 2.75C4.95145 2.75 3.96903 3.2483 3.1199 3.93557ZM0.66118 5.50719C0.450627 5.80495 0.450627 6.19505 0.66118 6.49281C1.41734 7.56214 3.42374 10 5.99999 10C8.57624 10 10.5826 7.56214 11.3388 6.49281C11.5494 6.19505 11.5494 5.80495 11.3388 5.50719C10.5826 4.43786 8.57624 2 5.99999 2C3.42374 2 1.41734 4.43786 0.66118 5.50719Z" fill="#18202A"/>
<path fill-rule="evenodd" clip-rule="evenodd" d="M5.99999 7.25C6.69035 7.25 7.24999 6.69036 7.24999 6C7.24999 5.30964 6.69035 4.75 5.99999 4.75C5.30964 4.75 4.74999 5.30964 4.74999 6C4.74999 6.69036 5.30964 7.25 5.99999 7.25ZM7.99999 6C7.99999 7.10457 7.10456 8 5.99999 8C4.89542 8 3.99999 7.10457 3.99999 6C3.99999 4.89543 4.89542 4 5.99999 4C7.10456 4 7.99999 4.89543 7.99999 6Z" fill="#18202A"/>
</svg>
