<svg width="20" height="20" viewBox="0 0 20 20" fill="none" xmlns="http://www.w3.org/2000/svg">
<rect width="20" height="20" rx="4" fill="#FF4D82"/>
<path fill-rule="evenodd" clip-rule="evenodd" d="M6.66271 14.7683C5.98211 14.6113 5.5 14.0052 5.5 13.3067V6C5.5 5.17157 6.17157 4.5 7 4.5H13C13.8284 4.5 14.5 5.17157 14.5 6V13C14.5 13.8284 13.8284 14.5 13 14.5H12V14.7429C12 15.386 11.4018 15.8619 10.7751 15.7173L6.66271 14.7683ZM11.2249 5.82112L9.83333 5.5H13C13.2761 5.5 13.5 5.72386 13.5 6V13C13.5 13.2761 13.2761 13.5 13 13.5H12V6.79551C12 6.32986 11.6786 5.92583 11.2249 5.82112ZM11 10.75C11 11.1642 10.7761 11.5 10.5 11.5C10.2239 11.5 10 11.1642 10 10.75C10 10.3358 10.2239 10 10.5 10C10.7761 10 11 10.3358 11 10.75Z" fill="white"/>
</svg>
