<svg width="12" height="12" viewBox="0 0 12 12" fill="none" xmlns="http://www.w3.org/2000/svg">
<g clip-path="url(#clip0_3875_8916)">
<path fill-rule="evenodd" clip-rule="evenodd" d="M5.5 0.5C4.67157 0.5 4 1.17157 4 2V2.5H1.375C1.16789 2.5 1 2.66789 1 2.875C1 3.08211 1.16789 3.25 1.375 3.25H2V8.5C2 10.1569 3.34315 11.5 5 11.5H6.93808C6.76013 11.2724 6.61186 11.0204 6.49908 10.75H5C3.75736 10.75 2.75 9.74264 2.75 8.5V3.25H9.25V6.25947C9.33251 6.2532 9.41588 6.25 9.5 6.25C9.67003 6.25 9.83702 6.26306 10 6.28822V3.25H10.625C10.8321 3.25 11 3.08211 11 2.875C11 2.66789 10.8321 2.5 10.625 2.5H8V2C8 1.17157 7.32843 0.5 6.5 0.5H5.5ZM7.25 2C7.25 1.58579 6.91421 1.25 6.5 1.25H5.5C5.08579 1.25 4.75 1.58579 4.75 2V2.5H7.25V2Z" fill="#18202A"/>
<path d="M6.625 7.98306C6.81493 7.62384 7.0702 7.30451 7.375 7.04089V5.5C7.375 5.29289 7.20711 5.125 7 5.125C6.79289 5.125 6.625 5.29289 6.625 5.5V7.98306Z" fill="#18202A"/>
<path d="M5 5.125C5.20711 5.125 5.375 5.29289 5.375 5.5V8.5C5.375 8.70711 5.20711 8.875 5 8.875C4.79289 8.875 4.625 8.70711 4.625 8.5V5.5C4.625 5.29289 4.79289 5.125 5 5.125Z" fill="#18202A"/>
<path fill-rule="evenodd" clip-rule="evenodd" d="M9.5 12C10.8807 12 12 10.8807 12 9.5C12 8.11929 10.8807 7 9.5 7C8.11929 7 7 8.11929 7 9.5C7 10.8807 8.11929 12 9.5 12ZM9.875 8.25C9.875 8.04289 9.70711 7.875 9.5 7.875C9.29289 7.875 9.125 8.04289 9.125 8.25V9.5C9.125 9.59946 9.16451 9.69484 9.23483 9.76517L9.98483 10.5152C10.1313 10.6616 10.3687 10.6616 10.5152 10.5152C10.6616 10.3687 10.6616 10.1313 10.5152 9.98483L9.875 9.34467V8.25Z" fill="#18202A"/>
</g>
<defs>
<clipPath id="clip0_3875_8916">
<rect width="12" height="12" fill="white"/>
</clipPath>
</defs>
</svg>
