<svg width="12" height="12" viewBox="0 0 12 12" fill="none" xmlns="http://www.w3.org/2000/svg">
<path fill-rule="evenodd" clip-rule="evenodd" d="M9 1.25H4C3.30964 1.25 2.75 1.80964 2.75 2.5V9.5C2.75 10.1904 3.30964 10.75 4 10.75H9C9.69036 10.75 10.25 10.1904 10.25 9.5V2.5C10.25 1.80964 9.69036 1.25 9 1.25ZM4 0.5C2.89543 0.5 2 1.39543 2 2.5V9.5C2 10.6046 2.89543 11.5 4 11.5H9C10.1046 11.5 11 10.6046 11 9.5V2.5C11 1.39543 10.1046 0.5 9 0.5H4ZM6.50001 5.77273C7.10607 5.77273 7.4091 5.20455 7.4091 4.49432C7.4091 3.92614 7.10607 3.5 6.50001 3.5C5.89395 3.5 5.59091 3.92614 5.59091 4.49432C5.59091 5.20455 5.89395 5.77273 6.50001 5.77273ZM4.79532 6.97765C4.59474 7.48553 4.68591 7.58967 4.86823 7.79795C5.24158 8.22444 5.83356 8.5 6.50001 8.5C7.16645 8.5 7.75843 8.22444 8.13178 7.79795C8.31411 7.58967 8.40527 7.48553 8.20469 6.97765C8.00412 6.46977 7.80968 6.42414 7.4208 6.33288C7.12738 6.26402 6.81866 6.22727 6.50001 6.22727C6.18136 6.22727 5.87264 6.26402 5.57921 6.33288C5.19033 6.42414 4.99589 6.46977 4.79532 6.97765ZM0.5 3C0.5 2.72386 0.723858 2.5 1 2.5H1.5V4.5H1C0.723858 4.5 0.5 4.27614 0.5 4V3ZM0.5 5.5C0.5 5.22386 0.723858 5 1 5H1.5V7H1C0.723858 7 0.5 6.77614 0.5 6.5V5.5ZM1 7.5C0.723858 7.5 0.5 7.72386 0.5 8V9C0.5 9.27614 0.723858 9.5 1 9.5H1.5V7.5H1Z" fill="#18202A"/>
</svg>
