<svg width="12" height="12" viewBox="0 0 12 12" fill="none" xmlns="http://www.w3.org/2000/svg">
<g clip-path="url(#clip0_2266_40452)">
<path fill-rule="evenodd" clip-rule="evenodd" d="M10.75 4.25H1.25V9.5C1.25 10.1904 1.80964 10.75 2.5 10.75H9.5C10.1904 10.75 10.75 10.1904 10.75 9.5V4.25ZM0.5 3.5V9.5C0.5 10.6046 1.39543 11.5 2.5 11.5H9.5C10.6046 11.5 11.5 10.6046 11.5 9.5V3.5H0.5Z" fill="#18202A"/>
<path fill-rule="evenodd" clip-rule="evenodd" d="M5.25 6.72936V8.26565L6.51833 7.49751L5.25 6.72936ZM4.5 6.22221C4.5 5.85962 4.89189 5.63565 5.19992 5.8222L7.30563 7.09749C7.60479 7.27868 7.60479 7.71633 7.30563 7.89752L5.19992 9.17281C4.89189 9.35936 4.5 9.1354 4.5 8.7728V6.22221Z" fill="#18202A"/>
<path d="M3.5 1H4.75L2.25 4H1L3.5 1Z" fill="#18202A"/>
<path d="M6.5 1H7.75L5.25 4H4L6.5 1Z" fill="#18202A"/>
<path d="M9.5 1H10.75L8.25 4H7L9.5 1Z" fill="#18202A"/>
<path fill-rule="evenodd" clip-rule="evenodd" d="M9.5 1.25H2.5C1.80964 1.25 1.25 1.80964 1.25 2.5V3.5H10.75V2.5C10.75 1.80964 10.1904 1.25 9.5 1.25ZM2.5 0.5C1.39543 0.5 0.5 1.39543 0.5 2.5V4.25H11.5V2.5C11.5 1.39543 10.6046 0.5 9.5 0.5H2.5Z" fill="#18202A"/>
</g>
<defs>
<clipPath id="clip0_2266_40452">
<rect width="12" height="12" fill="white"/>
</clipPath>
</defs>
</svg>
