<svg width="12" height="12" viewBox="0 0 12 12" fill="none" xmlns="http://www.w3.org/2000/svg">
<path fill-rule="evenodd" clip-rule="evenodd" d="M4.76516 9.26517C4.91161 9.11872 4.91161 8.88128 4.76516 8.73484C4.61872 8.58839 4.38128 8.58839 4.23483 8.73484L3.375 9.59467L3.375 2.40533L4.23483 3.26516C4.38128 3.41161 4.61872 3.41161 4.76516 3.26516C4.91161 3.11872 4.91161 2.88128 4.76516 2.73483L3.26516 1.23483C3.11872 1.08839 2.88128 1.08839 2.73483 1.23483L1.23483 2.73483C1.08839 2.88128 1.08839 3.11872 1.23483 3.26516C1.38128 3.41161 1.61872 3.41161 1.76516 3.26516L2.625 2.40533L2.625 9.59467L1.76517 8.73484C1.61872 8.58839 1.38128 8.58839 1.23484 8.73484C1.08839 8.88128 1.08839 9.11872 1.23484 9.26517L2.73483 10.7652C2.88128 10.9116 3.11872 10.9116 3.26516 10.7652L4.76516 9.26517ZM6.375 3C6.16789 3 6 3.16789 6 3.375C6 3.58211 6.16789 3.75 6.375 3.75H10.625C10.8321 3.75 11 3.58211 11 3.375C11 3.16789 10.8321 3 10.625 3H6.375ZM6.375 4.75C6.16789 4.75 6 4.91789 6 5.125C6 5.33211 6.16789 5.5 6.375 5.5H10.625C10.8321 5.5 11 5.33211 11 5.125C11 4.91789 10.8321 4.75 10.625 4.75H6.375ZM6 6.875C6 6.66789 6.16789 6.5 6.375 6.5H10.625C10.8321 6.5 11 6.66789 11 6.875C11 7.08211 10.8321 7.25 10.625 7.25H6.375C6.16789 7.25 6 7.08211 6 6.875ZM6.375 8.25C6.16789 8.25 6 8.41789 6 8.625C6 8.83211 6.16789 9 6.375 9H10.625C10.8321 9 11 8.83211 11 8.625C11 8.41789 10.8321 8.25 10.625 8.25H6.375Z" fill="#18202A"/>
</svg>
