<svg width="12" height="12" viewBox="0 0 12 12" fill="none" xmlns="http://www.w3.org/2000/svg">
<g clip-path="url(#clip0_2266_35639)">
<path fill-rule="evenodd" clip-rule="evenodd" d="M7.5 11.811V8.00579L7.50006 11.2929C9.33167 10.7748 10.7749 9.33166 11.2929 7.50004L8.88238 7.5H11.811C11.9344 7.02055 12 6.51795 12 6C12 5.48205 11.9344 4.97943 11.811 4.5H7.67711L11.2929 4.4998C10.7748 2.66824 9.33163 1.2251 7.50006 0.707031L7.5 3.99418V0.189026L7.29313 0.139701C6.87664 0.0482176 6.44396 0 6 0L5.77898 0.00399521C5.33892 0.0199302 4.91094 0.0832576 4.5 0.189026V4.32289L4.49982 0.707061C2.66829 1.22515 1.22517 2.66827 0.707077 4.4998L4.32291 4.49998L0.189026 4.5L0.139701 4.70687C0.0482176 5.12335 0 5.55604 0 6C0 6.51795 0.0656295 7.02055 0.189026 7.5H3.11762L0.707047 7.50004C1.22511 9.33162 2.66825 10.7748 4.49982 11.2929L4.49999 7.67708L4.50239 7.6792C4.50625 7.68265 4.51013 7.68609 4.51402 7.68951L4.50239 7.6792C4.43926 7.62286 4.37934 7.56302 4.32291 7.49998L4.24874 7.41278C3.9368 7.02659 3.75 6.53509 3.75 6C3.75 5.42823 3.96328 4.90624 4.31464 4.50931C4.31593 4.50785 4.31722 4.50639 4.31852 4.50493C4.31998 4.50329 4.32144 4.50162 4.32291 4.49998C4.37863 4.43773 4.43774 4.37861 4.5 4.32289L4.58722 4.24874C4.97342 3.9368 5.46491 3.75 6 3.75L6.12268 3.75329C6.6507 3.78166 7.13038 3.99209 7.5 4.32292C7.56221 4.3786 7.62131 4.43767 7.67711 4.5C7.67771 4.50066 7.67829 4.50133 7.67888 4.50199L7.68795 4.51221C8.03774 4.90879 8.25 5.42963 8.25 6C8.25 6.57624 8.03336 7.10193 7.67712 7.49998L7.67961 7.49715C7.62309 7.56051 7.56304 7.62065 7.49986 7.6772L7.49935 7.67766L7.41278 7.75127C7.02659 8.0632 6.53509 8.25 6 8.25C5.42375 8.25 4.89806 8.03333 4.49999 7.67708L4.5 11.811L4.70687 11.8603C5.12335 11.9518 5.55604 12 6 12L6.22102 11.996C6.66108 11.9801 7.08904 11.9167 7.5 11.811ZM4.32291 7.49998C4.32285 7.49991 4.32298 7.50005 4.32291 7.49998V7.49998ZM6.6852 8.9212L6.75 8.9045V11.1955L6.66509 11.2083C6.44596 11.236 6.22398 11.25 6 11.25L5.76994 11.2451C5.61707 11.2385 5.46528 11.2254 5.31483 11.2058L5.25 11.1955V8.9045L5.31481 8.9212C5.53678 8.9731 5.7664 9 6 9C6.23361 9 6.46323 8.9731 6.6852 8.9212ZM8.9045 5.25H11.1955L11.2083 5.3349C11.236 5.55403 11.25 5.77602 11.25 6L11.2453 6.22328C11.2392 6.37165 11.2268 6.519 11.2083 6.66509L11.1955 6.75H8.9045L8.9212 6.6852C8.9731 6.46323 9 6.23361 9 6L8.99679 5.86034C8.98824 5.67485 8.96272 5.49238 8.9212 5.31481L8.9045 5.25ZM0.804 5.25H3.095L3.0788 5.31479C3.0269 5.53677 3 5.76639 3 6L3.00315 6.13841C3.01155 6.32227 3.03661 6.50323 3.07745 6.67946L3.0955 6.75H0.804L0.791649 6.66512C0.763986 6.44599 0.75 6.224 0.75 6L0.754938 5.76992C0.761514 5.61705 0.774641 5.46525 0.794223 5.3148L0.804 5.25ZM5.33487 0.79165C5.554 0.763987 5.776 0.75 6 0.75L6.23008 0.754938C6.38295 0.761513 6.53474 0.774641 6.68519 0.794223L6.75 0.804V3.095L6.68522 3.0788C6.46324 3.0269 6.23361 3 6 3L5.86159 3.00315C5.67773 3.01155 5.49678 3.03661 5.32054 3.07745L5.25 3.095V0.804L5.33487 0.79165Z" fill="#18202A"/>
</g>
<defs>
<clipPath id="clip0_2266_35639">
<rect width="12" height="12" fill="white"/>
</clipPath>
</defs>
</svg>
