<svg width="12" height="12" viewBox="0 0 12 12" fill="none" xmlns="http://www.w3.org/2000/svg">
<path fill-rule="evenodd" clip-rule="evenodd" d="M4.85355 8.64645C5.04882 8.84171 5.04882 9.15829 4.85355 9.35355L3.35355 10.8536C3.15829 11.0488 2.84171 11.0488 2.64645 10.8536L1.14645 9.35355C0.951185 9.15829 0.951185 8.84171 1.14645 8.64645C1.34171 8.45118 1.65829 8.45118 1.85355 8.64645L2.5 9.29289L2.5 2.70711L1.85355 3.35355C1.65829 3.54882 1.34171 3.54881 1.14645 3.35355C0.951184 3.15829 0.951184 2.84171 1.14645 2.64645L2.64645 1.14645C2.84171 0.951184 3.15829 0.951185 3.35355 1.14645L4.85355 2.64645C5.04882 2.84171 5.04882 3.15829 4.85355 3.35355C4.65829 3.54882 4.34171 3.54882 4.14645 3.35355L3.5 2.70711L3.5 9.29289L4.14645 8.64645C4.34171 8.45118 4.65829 8.45118 4.85355 8.64645ZM6 5C6 4.72386 6.22386 4.5 6.5 4.5H10.5C10.7761 4.5 11 4.72386 11 5C11 5.27614 10.7761 5.5 10.5 5.5H6.5C6.22386 5.5 6 5.27614 6 5ZM6.5 2.5C6.22386 2.5 6 2.72386 6 3C6 3.27614 6.22386 3.5 6.5 3.5H10.5C10.7761 3.5 11 3.27614 11 3C11 2.72386 10.7761 2.5 10.5 2.5H6.5ZM6 7C6 6.72386 6.22386 6.5 6.5 6.5H10.5C10.7761 6.5 11 6.72386 11 7C11 7.27614 10.7761 7.5 10.5 7.5H6.5C6.22386 7.5 6 7.27614 6 7ZM6.5 8.5C6.22386 8.5 6 8.72386 6 9C6 9.27614 6.22386 9.5 6.5 9.5H10.5C10.7761 9.5 11 9.27614 11 9C11 8.72386 10.7761 8.5 10.5 8.5H6.5Z" fill="#18202A"/>
</svg>
