<svg width="12" height="12" viewBox="0 0 12 12" fill="none" xmlns="http://www.w3.org/2000/svg">
<path fill-rule="evenodd" clip-rule="evenodd" d="M1.5 4.36622C1.2011 4.19331 1 3.87014 1 3.5V2C1 1.44772 1.44772 1 2 1H10C10.5523 1 11 1.44772 11 2V3.5C11 3.87014 10.7989 4.19331 10.5 4.36622V6.40675C10.2609 6.32952 10.0097 6.27923 9.75 6.25947V4.5H2.25V9.5C2.25 10.1904 2.80964 10.75 3.5 10.75H6.49908C6.61186 11.0204 6.76013 11.2724 6.93808 11.5H3.5C2.39543 11.5 1.5 10.6046 1.5 9.5V4.36622ZM1.75 2C1.75 1.86193 1.86193 1.75 2 1.75H10C10.1381 1.75 10.25 1.86193 10.25 2V3.5C10.25 3.63807 10.1381 3.75 10 3.75H2C1.86193 3.75 1.75 3.63807 1.75 3.5V2ZM4 5.875C4 5.66789 4.16789 5.5 4.375 5.5H7.625C7.83211 5.5 8 5.66789 8 5.875C8 6.08211 7.83211 6.25 7.625 6.25H4.375C4.16789 6.25 4 6.08211 4 5.875ZM12 9.5C12 10.8807 10.8807 12 9.5 12C8.11929 12 7 10.8807 7 9.5C7 8.11929 8.11929 7 9.5 7C10.8807 7 12 8.11929 12 9.5ZM10.7374 8.26255C10.8839 8.409 10.8839 8.64644 10.7374 8.79288L10.0303 9.49999L10.7374 10.2071C10.8839 10.3535 10.8839 10.591 10.7374 10.7374C10.591 10.8839 10.3536 10.8839 10.2071 10.7374L9.5 10.0303L8.79289 10.7374C8.64645 10.8839 8.40901 10.8839 8.26256 10.7374C8.11612 10.591 8.11612 10.3535 8.26256 10.2071L8.96967 9.49999L8.26256 8.79288C8.11612 8.64644 8.11612 8.409 8.26256 8.26255C8.40901 8.11611 8.64645 8.11611 8.79289 8.26255L9.5 8.96966L10.2071 8.26255C10.3536 8.11611 10.591 8.11611 10.7374 8.26255Z" fill="#18202A"/>
</svg>
