<svg width="12" height="12" viewBox="0 0 12 12" fill="none" xmlns="http://www.w3.org/2000/svg">
<path fill-rule="evenodd" clip-rule="evenodd" d="M9.25 5.5C9.25 7.57107 7.57107 9.25 5.5 9.25C3.42893 9.25 1.75 7.57107 1.75 5.5C1.75 3.42893 3.42893 1.75 5.5 1.75C7.57107 1.75 9.25 3.42893 9.25 5.5ZM5.5 10C7.98528 10 10 7.98528 10 5.5C10 3.01472 7.98528 1 5.5 1C3.01472 1 1 3.01472 1 5.5C1 7.98528 3.01472 10 5.5 10ZM9.76517 9.23483C9.61872 9.08839 9.38128 9.08839 9.23483 9.23483C9.08839 9.38128 9.08839 9.61872 9.23483 9.76517L10.2348 10.7652C10.3813 10.9116 10.6187 10.9116 10.7652 10.7652C10.9116 10.6187 10.9116 10.3813 10.7652 10.2348L9.76517 9.23483ZM4 5.125C3.79289 5.125 3.625 5.29289 3.625 5.5C3.625 5.70711 3.79289 5.875 4 5.875H7C7.20711 5.875 7.375 5.70711 7.375 5.5C7.375 5.29289 7.20711 5.125 7 5.125H4Z" fill="#18202A"/>
</svg>
