<svg width="12" height="12" viewBox="0 0 12 12" fill="none" xmlns="http://www.w3.org/2000/svg">
<path fill-rule="evenodd" clip-rule="evenodd" d="M7.99998 2.6875C7.99998 4.25 7.33332 5.5 5.99998 5.5C4.66665 5.5 3.99998 4.25 3.99998 2.6875C3.99998 1.4375 4.66665 0.5 5.99998 0.5C7.33332 0.5 7.99998 1.4375 7.99998 2.6875ZM7.24998 2.6875C7.24998 3.37655 7.10082 3.92104 6.87299 4.26813C6.66536 4.58445 6.39126 4.75 5.99998 4.75C5.60871 4.75 5.33461 4.58445 5.12697 4.26813C4.89915 3.92104 4.74998 3.37655 4.74998 2.6875C4.74998 2.18758 4.8835 1.83098 5.0705 1.61184C5.24304 1.40964 5.52299 1.25 5.99998 1.25C6.47698 1.25 6.75693 1.40964 6.92947 1.61184C7.11647 1.83098 7.24998 2.18758 7.24998 2.6875ZM5.64854 10.7427C5.7797 11.0132 5.94046 11.2668 6.1266 11.4991C6.08447 11.4997 6.04226 11.5 5.99998 11.5C5.22629 11.5 4.47539 11.4024 3.75894 11.2188C3.14942 11.0626 2.63283 10.6543 2.34991 10.0923C2.26605 9.92566 2.18783 9.75572 2.11552 9.58271C1.80827 8.84756 1.93072 7.98746 2.49964 7.42962C3.40155 6.5453 4.63709 6 5.99999 6C6.19218 6 6.38184 6.01084 6.56839 6.03195C6.33232 6.24538 6.12182 6.48657 5.94206 6.75039C4.80632 6.76553 3.77931 7.22528 3.02473 7.96515C2.70281 8.28079 2.60281 8.8037 2.80752 9.2935C2.873 9.45018 2.94385 9.6041 3.01982 9.75503C3.20298 10.1189 3.54046 10.3885 3.94514 10.4922C4.49248 10.6325 5.06226 10.7181 5.64854 10.7427ZM9.20439 6C8.81331 6 8.47799 6.27923 8.40718 6.66385L8.40431 6.67948C8.10432 6.78315 7.8307 6.94335 7.59618 7.14734L7.57983 7.14153C7.21134 7.01054 6.80186 7.16132 6.60632 7.50001C6.41078 7.83869 6.48494 8.2687 6.78263 8.52233L6.79603 8.53375C6.767 8.6847 6.7518 8.84058 6.7518 9C6.7518 9.15943 6.767 9.31531 6.79603 9.46627L6.78263 9.47768C6.48494 9.73131 6.41079 10.1613 6.60633 10.5C6.80187 10.8387 7.21135 10.9895 7.57984 10.8585L7.5962 10.8527C7.83071 11.0567 8.10432 11.2169 8.40431 11.3205L8.40718 11.3362C8.47799 11.7208 8.81331 12 9.20439 12C9.59547 12 9.9308 11.7208 10.0016 11.3362L10.0042 11.322C10.3053 11.2185 10.58 11.0581 10.8154 10.8537L10.829 10.8585C11.1975 10.9895 11.6069 10.8387 11.8025 10.5C11.998 10.1613 11.9239 9.73131 11.6262 9.47768L11.6161 9.46911C11.6455 9.31727 11.6609 9.16043 11.6609 9C11.6609 8.83957 11.6455 8.68274 11.6161 8.5309L11.6262 8.52233C11.9239 8.2687 11.998 7.83869 11.8025 7.50001C11.6069 7.16132 11.1975 7.01054 10.829 7.14153L10.8154 7.14636C10.58 6.94189 10.3054 6.7815 10.0042 6.67804L10.0016 6.66384C9.9308 6.27923 9.59547 6 9.20439 6ZM9.20407 10C9.75636 10 10.2041 9.55228 10.2041 9C10.2041 8.44771 9.75636 8 9.20407 8C8.65179 8 8.20407 8.44771 8.20407 9C8.20407 9.55228 8.65179 10 9.20407 10Z" fill="#18202A"/>
</svg>
