<svg width="12" height="12" viewBox="0 0 12 12" fill="none" xmlns="http://www.w3.org/2000/svg">
<g clip-path="url(#clip0_2266_36762)">
<path d="M4 3H11.0284C11.4351 3 11.6717 3.45968 11.4353 3.79062L9.70759 6.20938C9.58341 6.38323 9.58341 6.61677 9.70758 6.79062L11.4353 9.20938C11.6717 9.54032 11.4351 10 11.0284 10H5C4.44772 10 4 9.55228 4 9V3Z" fill="#18202A"/>
<path d="M0.5 1.5H6C6.82843 1.5 7.5 2.17157 7.5 3V7C7.5 7.55228 7.05228 8 6.5 8H0.5V1.5Z" fill="#18202A"/>
<path d="M0.5 1C0.5 0.723858 0.723858 0.5 1 0.5C1.27614 0.5 1.5 0.723858 1.5 1V11C1.5 11.2761 1.27614 11.5 1 11.5C0.723858 11.5 0.5 11.2761 0.5 11V1Z" fill="#18202A"/>
</g>
<defs>
<clipPath id="clip0_2266_36762">
<rect width="12" height="12" fill="white"/>
</clipPath>
</defs>
</svg>
