<svg width="12" height="12" viewBox="0 0 12 12" fill="none" xmlns="http://www.w3.org/2000/svg">
<path fill-rule="evenodd" clip-rule="evenodd" d="M3 2.75H4.5C4.63807 2.75 4.75 2.86193 4.75 3V9C4.75 9.13807 4.63807 9.25 4.5 9.25H3C2.86193 9.25 2.75 9.13807 2.75 9V3C2.75 2.86193 2.86193 2.75 3 2.75ZM2 3C2 2.44772 2.44772 2 3 2H4.5C5.05228 2 5.5 2.44772 5.5 3V9C5.5 9.55228 5.05228 10 4.5 10H3C2.44772 10 2 9.55228 2 9V3ZM7.5 2.75H9C9.13807 2.75 9.25 2.86193 9.25 3V9C9.25 9.13807 9.13807 9.25 9 9.25H7.5C7.36193 9.25 7.25 9.13807 7.25 9V3C7.25 2.86193 7.36193 2.75 7.5 2.75ZM6.5 3C6.5 2.44772 6.94772 2 7.5 2H9C9.55228 2 10 2.44772 10 3V9C10 9.55228 9.55228 10 9 10H7.5C6.94772 10 6.5 9.55228 6.5 9V3Z" fill="#18202A"/>
</svg>
