<svg width="12" height="12" viewBox="0 0 12 12" fill="none" xmlns="http://www.w3.org/2000/svg">
<path d="M2.5 1.5C1.67157 1.5 1 2.17157 1 3V3.5C1 4.32843 1.67157 5 2.5 5H3C3.82843 5 4.5 4.32843 4.5 3.5V3C4.5 2.85701 4.47999 2.7187 4.44263 2.5877L3.01517 4.01517C2.86872 4.16161 2.63128 4.16161 2.48483 4.01517L1.73483 3.26517C1.58839 3.11872 1.58839 2.88128 1.73483 2.73483C1.88128 2.58839 2.11872 2.58839 2.26517 2.73483L2.75 3.21967L4.04539 1.92428C3.77523 1.6617 3.4065 1.5 3 1.5H2.5Z" fill="#18202A"/>
<path d="M4.04539 7.42428C3.77523 7.1617 3.4065 7 3 7H2.5C1.67157 7 1 7.67157 1 8.5V9C1 9.82843 1.67157 10.5 2.5 10.5H3C3.82843 10.5 4.5 9.82843 4.5 9V8.5C4.5 8.35701 4.47999 8.2187 4.44263 8.0877L3.01517 9.51517C2.86872 9.66161 2.63128 9.66161 2.48483 9.51517L1.73483 8.76517C1.58839 8.61872 1.58839 8.38128 1.73483 8.23483C1.88128 8.08839 2.11872 8.08839 2.26517 8.23483L2.75 8.71967L4.04539 7.42428Z" fill="#18202A"/>
<path d="M5.875 2C5.66789 2 5.5 2.16789 5.5 2.375C5.5 2.58211 5.66789 2.75 5.875 2.75H10.625C10.8321 2.75 11 2.58211 11 2.375C11 2.16789 10.8321 2 10.625 2H5.875Z" fill="#18202A"/>
<path d="M5.5 4.125C5.5 3.91789 5.66789 3.75 5.875 3.75H10.625C10.8321 3.75 11 3.91789 11 4.125C11 4.33211 10.8321 4.5 10.625 4.5H5.875C5.66789 4.5 5.5 4.33211 5.5 4.125Z" fill="#18202A"/>
<path d="M5.875 7.5C5.66789 7.5 5.5 7.66789 5.5 7.875C5.5 8.08211 5.66789 8.25 5.875 8.25H10.625C10.8321 8.25 11 8.08211 11 7.875C11 7.66789 10.8321 7.5 10.625 7.5H5.875Z" fill="#18202A"/>
<path d="M5.5 9.625C5.5 9.41789 5.66789 9.25 5.875 9.25H10.625C10.8321 9.25 11 9.41789 11 9.625C11 9.83211 10.8321 10 10.625 10H5.875C5.66789 10 5.5 9.83211 5.5 9.625Z" fill="#18202A"/>
</svg>
