<svg width="12" height="12" viewBox="0 0 12 12" fill="none" xmlns="http://www.w3.org/2000/svg">
<path fill-rule="evenodd" clip-rule="evenodd" d="M5.85111 2.8C5.92614 2.88682 6.07425 2.88682 6.14889 2.8C6.726 2.12979 7.57457 1.5 8.47657 1.5C10.1439 1.5 11.5 2.80664 11.5 4.41225C11.5 5.32564 11.0156 6.03907 10.6094 6.47671C10.1885 6.92991 9.42315 7.79729 8.62837 8.69807C8.05963 9.34266 7.47572 10.0044 6.99187 10.5441C6.44925 11.1492 5.55075 11.1492 5.00813 10.5441C4.52422 10.0044 3.94021 9.34248 3.37141 8.69781C2.57664 7.79705 1.81153 6.9299 1.39061 6.47671C0.984393 6.03907 0.5 5.32564 0.5 4.41225C0.5 2.80664 1.85614 1.5 3.52343 1.5C4.42543 1.5 5.274 2.12979 5.85111 2.8ZM10.0597 5.96649C10.4064 5.59295 10.75 5.05461 10.75 4.41225C10.75 3.24703 9.75631 2.25 8.47657 2.25C7.90414 2.25 7.24547 2.67591 6.71723 3.28938C6.34246 3.72475 5.65691 3.72229 5.28366 3.29042L5.28277 3.28938C4.75453 2.67591 4.09586 2.25 3.52343 2.25C2.24369 2.25 1.25 3.24703 1.25 4.41225C1.25 5.05451 1.59349 5.59278 1.94014 5.96631C2.36545 6.42423 3.14544 7.30816 3.94796 8.21761C4.51521 8.86045 5.09379 9.51614 5.56653 10.0434C5.81109 10.3161 6.18891 10.3161 6.43347 10.0434C6.90619 9.51617 7.48474 8.86051 8.05197 8.21769C8.85439 7.30835 9.63442 6.42436 10.0597 5.96649Z" fill="#18202A"/>
</svg>
