<svg width="12" height="12" viewBox="0 0 12 12" fill="none" xmlns="http://www.w3.org/2000/svg">
<g clip-path="url(#clip0_3049_8502)">
<path d="M11.5 2.5C11.5 3.60457 10.6046 4.5 9.5 4.5C8.39543 4.5 7.5 3.60457 7.5 2.5C7.5 1.39543 8.39543 0.5 9.5 0.5C10.6046 0.5 11.5 1.39543 11.5 2.5Z" fill="#18202A"/>
<path d="M11.5 5.37266C10.9331 5.76809 10.2436 6 9.5 6C7.567 6 6 4.433 6 2.5C6 1.9632 6.12085 1.45463 6.33682 1H2.5C1.39543 1 0.5 1.89543 0.5 3V7.5C0.5 8.60457 1.39543 9.5 2.5 9.5H2.77273L2.48282 10.8865C2.39375 11.3125 2.8537 11.641 3.22777 11.4186L6.45455 9.5H9.5C10.6046 9.5 11.5 8.60457 11.5 7.5V5.37266Z" fill="#18202A"/>
</g>
<defs>
<clipPath id="clip0_3049_8502">
<rect width="12" height="12" fill="white"/>
</clipPath>
</defs>
</svg>
