<svg width="12" height="12" viewBox="0 0 12 12" fill="none" xmlns="http://www.w3.org/2000/svg">
<g clip-path="url(#clip0_2266_35300)">
<path fill-rule="evenodd" clip-rule="evenodd" d="M4.625 0.75C4.625 0.542893 4.45711 0.375 4.25 0.375C4.04289 0.375 3.875 0.542893 3.875 0.75V1.75C3.875 1.95711 4.04289 2.125 4.25 2.125C4.45711 2.125 4.625 1.95711 4.625 1.75V0.75ZM2.01517 1.48483C1.86872 1.33839 1.63128 1.33839 1.48483 1.48483C1.33839 1.63128 1.33839 1.86872 1.48483 2.01517L2.23483 2.76517C2.38128 2.91161 2.61872 2.91161 2.76517 2.76517C2.91161 2.61872 2.91161 2.38128 2.76517 2.23483L2.01517 1.48483ZM0.75 3.875C0.542893 3.875 0.375 4.04289 0.375 4.25C0.375 4.45711 0.542893 4.625 0.75 4.625H1.75C1.95711 4.625 2.125 4.45711 2.125 4.25C2.125 4.04289 1.95711 3.875 1.75 3.875H0.75ZM7.375 11.25C7.375 11.4571 7.54289 11.625 7.75 11.625C7.95711 11.625 8.125 11.4571 8.125 11.25V10.25C8.125 10.0429 7.95711 9.875 7.75 9.875C7.54289 9.875 7.375 10.0429 7.375 10.25V11.25ZM9.23483 9.76517L9.98483 10.5152C10.1313 10.6616 10.3687 10.6616 10.5152 10.5152C10.6616 10.3687 10.6616 10.1313 10.5152 9.98483L9.76517 9.23483C9.61872 9.08839 9.38128 9.08839 9.23483 9.23483C9.08839 9.38128 9.08839 9.61872 9.23483 9.76517ZM11.25 8.125C11.4571 8.125 11.625 7.95711 11.625 7.75C11.625 7.54289 11.4571 7.375 11.25 7.375H10.25C10.0429 7.375 9.875 7.54289 9.875 7.75C9.875 7.95711 10.0429 8.125 10.25 8.125H11.25ZM1.84571 10.1543C0.722949 9.03151 0.722949 7.21116 1.84571 6.08841L2.90637 5.02775C3.05281 4.8813 3.29025 4.8813 3.4367 5.02775C3.58314 5.17419 3.58314 5.41163 3.4367 5.55808L2.37604 6.61874C1.54617 7.4486 1.54617 8.79408 2.37604 9.62394C3.2059 10.4538 4.55138 10.4538 5.38124 9.62394L6.4419 8.56328C6.58835 8.41683 6.82578 8.41683 6.97223 8.56328C7.11868 8.70973 7.11868 8.94716 6.97223 9.09361L5.91157 10.1543C4.78881 11.277 2.96846 11.277 1.84571 10.1543ZM6.08838 1.84574C7.21113 0.72298 9.03148 0.72298 10.1542 1.84574C11.277 2.96849 11.277 4.78884 10.1542 5.9116L9.09358 6.97226C8.94713 7.11871 8.70969 7.11871 8.56325 6.97226C8.4168 6.82581 8.4168 6.58838 8.56325 6.44193L9.62391 5.38127C10.4538 4.55141 10.4538 3.20593 9.62391 2.37607C8.79404 1.5462 7.44857 1.5462 6.6187 2.37607L5.55804 3.43673C5.4116 3.58317 5.17416 3.58317 5.02771 3.43673C4.88127 3.29028 4.88127 3.05284 5.02771 2.9064L6.08838 1.84574Z" fill="#18202A"/>
</g>
<defs>
<clipPath id="clip0_2266_35300">
<rect width="12" height="12" fill="white"/>
</clipPath>
</defs>
</svg>
