<svg width="12" height="12" viewBox="0 0 12 12" fill="none" xmlns="http://www.w3.org/2000/svg">
<path d="M7.76517 5.76516C7.91161 5.61872 7.91161 5.38128 7.76517 5.23483C7.61872 5.08839 7.38128 5.08839 7.23483 5.23483L6 6.46967L4.76517 5.23483C4.61872 5.08839 4.38128 5.08839 4.23483 5.23483C4.08839 5.38128 4.08839 5.61872 4.23483 5.76516L5.46967 7L4.23483 8.23483C4.08839 8.38128 4.08839 8.61872 4.23483 8.76517C4.38128 8.91161 4.61872 8.91161 4.76517 8.76517L6 7.53033L7.23483 8.76517C7.38128 8.91161 7.61872 8.91161 7.76517 8.76517C7.91161 8.61872 7.91161 8.38128 7.76517 8.23483L6.53033 7L7.76517 5.76516Z" fill="#18202A"/>
<path fill-rule="evenodd" clip-rule="evenodd" d="M3.5 1.5C2.7128 1.5 2.06722 2.1064 2.00493 2.87756C1.72378 3.12698 1.53701 3.48042 1.50493 3.87756C1.19519 4.15235 1 4.55338 1 5V9C1 9.82843 1.67157 10.5 2.5 10.5H9.5C10.3284 10.5 11 9.82843 11 9V5C11 4.55338 10.8048 4.15234 10.4951 3.87756C10.463 3.48042 10.2762 3.12698 9.99507 2.87756C9.93277 2.1064 9.2872 1.5 8.5 1.5H3.5ZM3.5 2.25C3.27731 2.25 3.07728 2.34706 2.93992 2.50118C2.95985 2.5004 2.97988 2.5 3 2.5H9C9.02012 2.5 9.04016 2.5004 9.06008 2.50118C8.92272 2.34706 8.7227 2.25 8.5 2.25H3.5ZM2.5 3.5C2.47988 3.5 2.45985 3.5004 2.43992 3.50118C2.57728 3.34706 2.77731 3.25 3 3.25H9C9.2227 3.25 9.42271 3.34706 9.56008 3.50118C9.54015 3.5004 9.52012 3.5 9.5 3.5H2.5ZM9.5 4.25C9.91421 4.25 10.25 4.58579 10.25 5V9C10.25 9.41421 9.91421 9.75 9.5 9.75H2.5C2.08579 9.75 1.75 9.41421 1.75 9V5C1.75 4.58579 2.08579 4.25 2.5 4.25H9.5Z" fill="#18202A"/>
</svg>
