<svg width="12" height="12" viewBox="0 0 12 12" fill="none" xmlns="http://www.w3.org/2000/svg">
<g clip-path="url(#clip0_3737_8777)">
<g clip-path="url(#clip1_3737_8777)">
<path d="M6.5 3.375C6.5 3.16789 6.33211 3 6.125 3C5.91789 3 5.75 3.16789 5.75 3.375V6.625C5.75 6.83211 5.91789 7 6.125 7H9.125C9.33211 7 9.5 6.83211 9.5 6.625C9.5 6.41789 9.33211 6.25 9.125 6.25H6.5V3.375Z" fill="#18202A"/>
<path fill-rule="evenodd" clip-rule="evenodd" d="M6.5 0.375C6.5 0.167893 6.33211 0 6.125 0C5.91789 0 5.75 0.167893 5.75 0.375V1.00558C2.82847 1.13628 0.5 3.54622 0.5 6.5C0.5 9.53757 2.96243 12 6 12C9.03757 12 11.5 9.53757 11.5 6.5C11.5 4.77644 10.7072 3.23805 9.46637 2.22961L9.93081 1.76517C10.0773 1.61872 10.0773 1.38128 9.93081 1.23483C9.78437 1.08839 9.54693 1.08839 9.40048 1.23483L8.84393 1.79139C8.14847 1.37044 7.35227 1.09922 6.5 1.02242V0.375ZM6 11.25C8.62335 11.25 10.75 9.12335 10.75 6.5C10.75 3.87665 8.62335 1.75 6 1.75C3.37665 1.75 1.25 3.87665 1.25 6.5C1.25 9.12335 3.37665 11.25 6 11.25Z" fill="#18202A"/>
</g>
</g>
<defs>
<clipPath id="clip0_3737_8777">
<rect width="12" height="12" fill="white"/>
</clipPath>
<clipPath id="clip1_3737_8777">
<rect width="12" height="12" fill="white"/>
</clipPath>
</defs>
</svg>
