<svg width="12" height="12" viewBox="0 0 12 12" fill="none" xmlns="http://www.w3.org/2000/svg">
<g clip-path="url(#clip0_2266_40509)">
<path fill-rule="evenodd" clip-rule="evenodd" d="M10.0441 8.49272C9.55967 8.65918 9.04005 8.74955 8.5 8.74955C5.87665 8.74955 3.75 6.6229 3.75 3.99955C3.75 3.08513 4.00887 2.23049 4.4567 1.50572C2.59114 2.14625 1.25 3.9166 1.25 5.99955C1.25 8.6229 3.37665 10.7495 6 10.7495C7.70825 10.7495 9.20706 9.84744 10.0441 8.49272ZM10.5247 7.45003C9.93078 7.79926 9.23878 7.99955 8.5 7.99955C6.29086 7.99955 4.5 6.20869 4.5 3.99955C4.5 2.89155 4.9505 1.88878 5.67832 1.16439C5.90124 0.94252 5.7735 0.510504 5.45935 0.525786C2.67554 0.797396 0.5 3.14441 0.5 5.99955C0.5 9.03712 2.96243 11.4995 6 11.4995C8.35273 11.4995 10.3604 10.0223 11.1461 7.94473C11.1462 7.94447 11.1463 7.94422 11.1464 7.94396C11.1495 7.93594 11.1525 7.92791 11.1555 7.91987C11.1925 7.82057 11.2267 7.71991 11.258 7.61799C11.3441 7.33811 10.9853 7.14756 10.743 7.31196C10.6922 7.34646 10.6405 7.37982 10.588 7.412C10.5684 7.42401 10.5487 7.43585 10.5289 7.44753C10.5275 7.44836 10.5261 7.4492 10.5247 7.45003Z" fill="#18202A"/>
</g>
<defs>
<clipPath id="clip0_2266_40509">
<rect width="12" height="12" fill="white"/>
</clipPath>
</defs>
</svg>
