<svg width="12" height="12" viewBox="0 0 12 12" fill="none" xmlns="http://www.w3.org/2000/svg">
<path d="M4.875 1H6.874C6.96901 1.00003 7.06047 1.03612 7.1299 1.10099C7.19932 1.16585 7.24154 1.25465 7.24801 1.34944C7.25449 1.44423 7.22474 1.53795 7.16478 1.61165C7.10483 1.68535 7.01912 1.73355 6.925 1.7465L6.874 1.75H6.25V10.25H6.8725C6.96312 10.25 7.05067 10.2828 7.11897 10.3424C7.18726 10.4019 7.23168 10.4842 7.244 10.574L7.2475 10.625C7.2475 10.7156 7.21468 10.8032 7.15512 10.8715C7.09555 10.9398 7.01328 10.9842 6.9235 10.9965L6.8725 11H4.875C4.77999 11 4.68853 10.9639 4.6191 10.899C4.54968 10.8341 4.50746 10.7454 4.50099 10.6506C4.49451 10.5558 4.52426 10.4621 4.58422 10.3884C4.64417 10.3146 4.72987 10.2665 4.824 10.2535L4.875 10.25H5.5V1.75H4.875C4.78438 1.75 4.69683 1.71718 4.62853 1.65762C4.56024 1.59805 4.51582 1.51578 4.5035 1.426L4.5 1.375C4.5 1.28438 4.53282 1.19683 4.59238 1.12853C4.65195 1.06024 4.73422 1.01582 4.824 1.0035L4.875 1H6.874H4.875ZM9.123 2.4985C9.55385 2.4989 9.96695 2.67023 10.2716 2.97489C10.5763 3.27955 10.7476 3.69265 10.748 4.1235L10.75 7.8755C10.7503 8.29053 10.5917 8.68993 10.3068 8.99173C10.022 9.29354 9.63235 9.47487 9.218 9.4985L9.125 9.501H6.7525V8.751H9.154C9.38113 8.74359 9.59646 8.64806 9.75437 8.48464C9.91228 8.32122 10.0004 8.10275 10 7.8755L9.9985 4.123C9.9981 3.89088 9.90565 3.6684 9.74143 3.50437C9.5772 3.34033 9.35462 3.24813 9.1225 3.248H6.7525V2.498H9.1225L9.123 2.4985ZM5 2.4985V3.2485H2.625C2.39294 3.2485 2.17038 3.34069 2.00628 3.50478C1.84219 3.66888 1.75 3.89144 1.75 4.1235V7.8755C1.75 8.359 2.142 8.7505 2.625 8.7505H4.9975V9.5005H2.625C2.19402 9.5005 1.7807 9.3293 1.47595 9.02455C1.1712 8.7198 1 8.30648 1 7.8755V4.1235C1 3.69252 1.1712 3.2792 1.47595 2.97445C1.7807 2.6697 2.19402 2.4985 2.625 2.4985H5Z" fill="#18202A"/>
</svg>
