<svg width="12" height="12" viewBox="0 0 12 12" fill="none" xmlns="http://www.w3.org/2000/svg">
<path fill-rule="evenodd" clip-rule="evenodd" d="M6.00008 8.64645C5.80482 8.84171 5.80482 9.15829 6.00008 9.35355C6.19535 9.54882 6.51193 9.54882 6.70719 9.35355L9.70719 6.35355C9.90245 6.15829 9.90245 5.84171 9.70719 5.64645L6.70719 2.64645C6.51193 2.45118 6.19535 2.45118 6.00008 2.64645C5.80482 2.84171 5.80482 3.15829 6.00008 3.35355L8.64653 6L6.00008 8.64645ZM2.29298 8.64645C2.09772 8.84171 2.09772 9.15829 2.29298 9.35355C2.48824 9.54881 2.80482 9.54881 3.00008 9.35355L6.00009 6.35355C6.19535 6.15829 6.19535 5.84171 6.00009 5.64645L3.00009 2.64645C2.80482 2.45118 2.48824 2.45118 2.29298 2.64645C2.09772 2.84171 2.09772 3.15829 2.29298 3.35355L4.93943 6L2.29298 8.64645Z" fill="#18202A"/>
</svg>
