<svg width="12" height="12" viewBox="0 0 12 12" fill="none" xmlns="http://www.w3.org/2000/svg">
<g clip-path="url(#clip0_2266_38932)">
<path d="M5.1727 0.185514C5.77219 0.0974937 6.37168 0.105495 6.97117 0.209519C7.57066 0.313543 8.13818 0.501587 8.67372 0.773649C8.76165 0.82166 8.8216 0.897677 8.85357 1.0017C8.88554 1.09772 8.87755 1.18974 8.82959 1.27776C8.78163 1.36579 8.70969 1.4298 8.61378 1.46981C8.51786 1.50182 8.42194 1.49381 8.32602 1.4458C7.86241 1.20575 7.36684 1.04171 6.83929 0.95369C6.31973 0.86567 5.79617 0.861669 5.26862 0.941687C4.74906 1.0137 4.24949 1.16574 3.7699 1.39779C3.2983 1.62184 2.87066 1.91391 2.48699 2.27399C2.41505 2.34601 2.32713 2.38202 2.22321 2.38202C2.1193 2.37402 2.03138 2.33401 1.95944 2.26199C1.8875 2.18997 1.85153 2.10195 1.85153 1.99793C1.85952 1.89391 1.89949 1.80589 1.97143 1.73387C2.41105 1.31777 2.90264 0.977696 3.44617 0.713635C3.98971 0.449575 4.56522 0.273534 5.1727 0.185514ZM1.6477 2.63408C1.73563 2.69809 1.78758 2.78211 1.80357 2.88613C1.81956 2.98216 1.79957 3.07018 1.74362 3.1502C1.36794 3.72633 1.11216 4.34647 0.976275 5.01062C0.840391 5.67478 0.840391 6.34293 0.976275 7.01508C1.00026 7.11911 0.984269 7.21513 0.928316 7.30315C0.872364 7.39117 0.792432 7.44318 0.68852 7.45919C0.584609 7.47519 0.48869 7.45919 0.400765 7.41117C0.320833 7.35516 0.268878 7.27514 0.244898 7.17112C0.085034 6.39494 0.085034 5.62676 0.244898 4.86659C0.404762 4.07441 0.696514 3.36224 1.12015 2.7301C1.1841 2.64208 1.26403 2.59007 1.35995 2.57406C1.46386 2.55806 1.55978 2.57806 1.6477 2.63408ZM9.74082 1.48181C9.66088 1.4178 9.56896 1.38979 9.46505 1.39779C9.36114 1.40579 9.27721 1.4498 9.21326 1.52982C9.14932 1.60984 9.12134 1.70186 9.12934 1.80589C9.13733 1.90991 9.18129 1.99393 9.26122 2.05794C9.70884 2.43403 10.0845 2.87413 10.3883 3.37825C10.692 3.88236 10.8998 4.42249 11.0117 4.99862L11.0357 5.04663C11.0997 5.43072 11.1276 5.7868 11.1196 6.11488C11.1196 6.2189 11.1556 6.30692 11.2276 6.37894C11.2995 6.45095 11.3874 6.49096 11.4913 6.49896C11.5952 6.49896 11.6832 6.46296 11.7551 6.39094C11.827 6.31892 11.867 6.2309 11.875 6.12688C11.875 5.67077 11.835 5.24268 11.7551 4.84258L11.7431 4.79457C11.6072 4.13842 11.3674 3.53028 11.0237 2.97015C10.68 2.40202 10.2524 1.90591 9.74082 1.48181ZM6.37168 5.93484C6.3477 5.83081 6.29175 5.75079 6.20383 5.69478C6.12389 5.63877 6.03197 5.61876 5.92806 5.63477C5.82415 5.65077 5.74422 5.70278 5.68827 5.7908C5.63231 5.87882 5.61233 5.97484 5.62832 6.07887C5.81216 6.96707 5.78818 7.85128 5.55638 8.73148C5.30859 9.62768 4.88895 10.4079 4.29745 11.072C4.2335 11.152 4.20153 11.2441 4.20153 11.3481C4.20952 11.4521 4.25349 11.5361 4.33342 11.6001C4.41335 11.6722 4.50527 11.7042 4.60918 11.6962C4.71309 11.6882 4.79702 11.6441 4.86097 11.5641C5.5324 10.804 6.004 9.92375 6.27576 8.92352C6.53954 7.9553 6.57151 6.95907 6.37168 5.93484ZM5.6523 4.29046C5.90008 4.23444 6.12789 4.23044 6.33571 4.27845C6.56752 4.31046 6.77934 4.39448 6.97117 4.53051C7.171 4.65854 7.33486 4.82258 7.46276 5.02263C7.59065 5.21467 7.67457 5.42672 7.71454 5.65877C7.86641 6.29092 7.91437 6.97107 7.85842 7.69924C7.80247 8.4114 7.65459 9.11957 7.4148 9.82373C7.175 10.5199 6.86327 11.152 6.47959 11.7202C6.42364 11.8002 6.34371 11.8482 6.2398 11.8642C6.14388 11.8882 6.05196 11.8722 5.96403 11.8162C5.87611 11.7602 5.82415 11.6802 5.80816 11.5761C5.79218 11.4721 5.81216 11.3761 5.86811 11.2881C6.21981 10.7759 6.50357 10.2038 6.71939 9.57167C6.9352 8.93152 7.06709 8.29138 7.11505 7.65123C7.16301 6.98708 7.11905 6.37894 6.98316 5.82681V5.7908C6.95918 5.65477 6.91122 5.53474 6.83929 5.43072C6.76735 5.31869 6.67543 5.22667 6.56352 5.15466C6.45961 5.08264 6.33571 5.03463 6.19184 5.01062C6.05595 4.98662 5.92806 4.99062 5.80816 5.02263H5.79617C5.66828 5.04663 5.54838 5.09464 5.43648 5.16666C5.32457 5.23868 5.23265 5.3307 5.16071 5.44272C5.08878 5.54675 5.04082 5.66677 5.01684 5.8028C4.99286 5.93083 4.99286 6.06286 5.01684 6.1989C5.20068 7.0951 5.15272 7.9673 4.87296 8.8155C4.5852 9.6957 4.1216 10.4319 3.48214 11.024C3.40221 11.096 3.31029 11.128 3.20638 11.12C3.10247 11.12 3.01854 11.084 2.95459 11.012C2.89065 10.94 2.85867 10.848 2.85867 10.7359C2.85867 10.6319 2.89464 10.5439 2.96658 10.4719C3.51811 9.95176 3.91378 9.32361 4.15357 8.58745C4.39337 7.84327 4.43733 7.0991 4.28546 6.35493C4.2375 6.13888 4.2335 5.91083 4.27347 5.67077C4.32143 5.43072 4.40935 5.21867 4.53724 5.03463C4.68112 4.82658 4.84099 4.66254 5.01684 4.54251C5.23265 4.40648 5.44447 4.32246 5.6523 4.29046ZM3.74592 6.97907C3.73793 6.87505 3.69396 6.79103 3.61403 6.72702C3.54209 6.655 3.45417 6.62299 3.35026 6.63099C3.24634 6.639 3.15842 6.68301 3.08648 6.76303C3.01454 6.83504 2.98257 6.92306 2.99056 7.02709C3.02253 7.5152 2.9426 7.99131 2.75077 8.45541C2.55893 8.91152 2.26718 9.29561 1.87551 9.60768C1.79558 9.67169 1.75162 9.75571 1.74362 9.85974C1.73563 9.96376 1.76361 10.0558 1.82755 10.1358C1.8915 10.2158 1.97143 10.2598 2.06735 10.2678C2.17126 10.2758 2.26718 10.2478 2.3551 10.1838C2.8267 9.79172 3.18639 9.31561 3.43418 8.75548C3.68197 8.19536 3.78588 7.60322 3.74592 6.97907ZM5.83214 2.88613C6.20782 2.87013 6.57151 2.91814 6.92321 3.03017C7.28291 3.13419 7.61063 3.30223 7.90638 3.53428C8.21012 3.76634 8.45791 4.0424 8.64974 4.36247C8.84958 4.67455 8.98546 5.01462 9.0574 5.38271C9.13733 5.7988 9.18929 6.16289 9.21326 6.47496C9.22126 6.57898 9.19328 6.671 9.12934 6.75102C9.06539 6.83104 8.98146 6.87505 8.87755 6.88305C8.77364 6.89105 8.68172 6.86305 8.60178 6.79903C8.52185 6.72702 8.47789 6.639 8.4699 6.53497C8.42194 6.08687 8.37398 5.75479 8.32602 5.53874C8.27007 5.25868 8.16616 4.99862 8.01429 4.75856C7.87041 4.51851 7.68257 4.31046 7.45077 4.13442C7.21896 3.95838 6.96718 3.83035 6.69541 3.75033C6.43163 3.66231 6.15587 3.6263 5.86811 3.64231C5.58835 3.65031 5.31658 3.71032 5.05281 3.82235C4.78903 3.93438 4.55323 4.09041 4.34541 4.29046C4.14558 4.4905 3.98172 4.71856 3.85383 4.97461C3.73393 5.23067 3.66199 5.49873 3.63801 5.7788C3.62202 5.88282 3.57406 5.96684 3.49413 6.03086C3.42219 6.09487 3.33427 6.12288 3.23036 6.11488C3.12645 6.09887 3.04252 6.05486 2.97857 5.98285C2.91463 5.90283 2.88665 5.81081 2.89464 5.70678C2.92662 5.3387 3.02253 4.98662 3.1824 4.65054C3.35026 4.31446 3.57007 4.01839 3.84184 3.76234C4.11361 3.49828 4.42134 3.29023 4.76505 3.13819C5.10876 2.98616 5.46446 2.90214 5.83214 2.88613ZM9.22526 7.77126C9.23325 7.66723 9.20127 7.57921 9.12934 7.5072C9.06539 7.42718 8.98146 7.38317 8.87755 7.37517C8.77364 7.36716 8.68172 7.39917 8.60178 7.47119C8.52985 7.5432 8.48988 7.63122 8.48189 7.73525C8.40995 8.87951 8.12619 9.95976 7.63061 10.976C7.59065 11.072 7.58665 11.168 7.61862 11.2641C7.6506 11.3601 7.71054 11.4281 7.79847 11.4681C7.89439 11.5161 7.99031 11.5241 8.08622 11.4921C8.19014 11.4601 8.26208 11.3961 8.30204 11.3001C8.84558 10.2038 9.15332 9.02755 9.22526 7.77126ZM5.10077 1.96192C5.13274 2.06595 5.12474 2.16197 5.07679 2.24999C5.02883 2.33801 4.95689 2.39802 4.86097 2.43003C4.42134 2.57406 4.02168 2.79011 3.66199 3.07818C3.3023 3.36625 3.00655 3.71032 2.77474 4.11042C2.54294 4.50251 2.38707 4.9226 2.30714 5.37071C2.22721 5.81881 2.23121 6.26691 2.31913 6.71501L2.33112 6.75102C2.41905 7.19112 2.39107 7.62322 2.24719 8.04732C2.10332 8.46342 1.85952 8.8115 1.51582 9.09156C1.43588 9.15558 1.34396 9.18758 1.24005 9.18758C1.13614 9.17958 1.05221 9.13557 0.988265 9.05555C0.92432 8.97553 0.892347 8.88351 0.892347 8.77949C0.90034 8.67547 0.944303 8.58744 1.02423 8.51543C1.25604 8.33139 1.42789 8.08733 1.5398 7.78326C1.62772 7.49519 1.6477 7.21113 1.59974 6.93106C1.59974 6.91506 1.59575 6.90306 1.58775 6.89506C1.47585 6.35093 1.46786 5.80681 1.56378 5.26268C1.65969 4.71856 1.84753 4.20644 2.1273 3.72633C2.40706 3.24622 2.76275 2.83412 3.19439 2.49004C3.62602 2.14596 4.10561 1.88991 4.63316 1.72187C4.72908 1.68986 4.821 1.69786 4.90893 1.74587C5.00485 1.79388 5.06879 1.8659 5.10077 1.96192ZM6 1.62585C5.89609 1.62585 5.80816 1.66185 5.73622 1.73387C5.66429 1.80589 5.62832 1.89391 5.62832 1.99793C5.62832 2.10195 5.66429 2.19398 5.73622 2.27399C5.80816 2.34601 5.89609 2.38202 6 2.38202C6.43163 2.38202 6.85127 2.45404 7.25893 2.59807C7.66658 2.7421 8.03827 2.95015 8.37398 3.22221C8.70969 3.49427 8.98546 3.81835 9.20127 4.19444C9.42509 4.56252 9.58095 4.95861 9.66888 5.38271V5.39471C9.82075 6.14688 9.88469 6.90306 9.86071 7.66323C9.84473 8.42341 9.73682 9.17158 9.53699 9.90775C9.50502 10.0118 9.51301 10.1078 9.56097 10.1958C9.61692 10.2838 9.69685 10.3398 9.80077 10.3639C9.90468 10.3959 10.0006 10.3839 10.0885 10.3278C10.1764 10.2798 10.2324 10.2038 10.2564 10.0998C10.4642 9.29961 10.5801 8.49142 10.6041 7.67523C10.6361 6.85105 10.5681 6.03886 10.4003 5.23868C10.2963 4.72656 10.1085 4.25045 9.83673 3.81035C9.57296 3.36224 9.24124 2.97415 8.84158 2.64608C8.44991 2.318 8.00629 2.06595 7.51071 1.88991C7.02313 1.71387 6.51956 1.62585 6 1.62585Z" fill="#18202A"/>
</g>
<defs>
<clipPath id="clip0_2266_38932">
<rect width="12" height="12" fill="white"/>
</clipPath>
</defs>
</svg>
