<svg width="12" height="12" viewBox="0 0 12 12" fill="none" xmlns="http://www.w3.org/2000/svg">
<path d="M7.48483 1.89017C7.33839 1.74372 7.33839 1.50628 7.48483 1.35983C7.63128 1.21339 7.86872 1.21339 8.01517 1.35983L10.2652 3.60983C10.4116 3.75628 10.4116 3.99372 10.2652 4.14017L8.01517 6.39016C7.86872 6.53661 7.63128 6.53661 7.48483 6.39016C7.33839 6.24372 7.33839 6.00628 7.48483 5.85984L9.09467 4.25H4.5C3.25736 4.25 2.25 5.25736 2.25 6.5C2.25 7.74264 3.25736 8.75 4.5 8.75H8.125C8.33211 8.75 8.5 8.91789 8.5 9.125C8.5 9.33211 8.33211 9.5 8.125 9.5H4.5C2.84315 9.5 1.5 8.15685 1.5 6.5C1.5 4.84315 2.84315 3.5 4.5 3.5H9.09467L7.48483 1.89017Z" fill="#18202A"/>
</svg>
