<svg width="12" height="12" viewBox="0 0 12 12" fill="none" xmlns="http://www.w3.org/2000/svg">
<path fill-rule="evenodd" clip-rule="evenodd" d="M10 5.5C10 6.43599 9.71424 7.30523 9.2252 8.02524C9.06498 8.26114 8.88294 8.48102 8.68198 8.68198C8.48102 8.88294 8.26114 9.06498 8.02524 9.2252C7.30523 9.71424 6.43599 10 5.5 10C3.01472 10 1 7.98528 1 5.5C1 3.01472 3.01472 1 5.5 1C7.98528 1 10 3.01472 10 5.5ZM9.14645 9.14645C9.29773 8.99516 9.52184 8.96109 9.70592 9.04423C9.75944 9.06839 9.80957 9.10247 9.85355 9.14645L10.8536 10.1464C11.0488 10.3417 11.0488 10.6583 10.8536 10.8536C10.6583 11.0488 10.3417 11.0488 10.1464 10.8536L9.14645 9.85355C9.10247 9.80957 9.06839 9.75944 9.04423 9.70592C8.96109 9.52184 8.99516 9.29773 9.14645 9.14645ZM9 5.5C9 7.433 7.433 9 5.5 9C3.567 9 2 7.433 2 5.5C2 3.567 3.567 2 5.5 2C7.433 2 9 3.567 9 5.5ZM6 3.75C6 3.47386 5.77614 3.25 5.5 3.25C5.22386 3.25 5 3.47386 5 3.75V5H3.75C3.47386 5 3.25 5.22386 3.25 5.5C3.25 5.77614 3.47386 6 3.75 6H5V7.25C5 7.52614 5.22386 7.75 5.5 7.75C5.77614 7.75 6 7.52614 6 7.25V6H7.25C7.52614 6 7.75 5.77614 7.75 5.5C7.75 5.22386 7.52614 5 7.25 5H6V3.75Z" fill="#18202A"/>
</svg>
