<svg width="12" height="12" viewBox="0 0 12 12" fill="none" xmlns="http://www.w3.org/2000/svg">
<g clip-path="url(#clip0_2266_38605)">
<path d="M1.25 1.25C1.25 0.835786 0.914214 0.5 0.5 0.5V11.5H11.5C11.5 11.0858 11.1642 10.75 10.75 10.75H1.25V1.25Z" fill="#18202A"/>
<path d="M9.25 2.5C9.25 2.08579 9.58579 1.75 10 1.75C10.4142 1.75 10.75 2.08579 10.75 2.5C10.75 2.91421 10.4142 3.25 10 3.25C9.88916 3.25 9.78393 3.22596 9.68926 3.1828L7.24655 4.92759C7.24883 4.95142 7.25 4.97557 7.25 5C7.25 5.41421 6.91421 5.75 6.5 5.75C6.18452 5.75 5.91453 5.55521 5.80375 5.27934L3.58999 4.96309C3.45268 5.13779 3.23944 5.25 3 5.25C2.58579 5.25 2.25 4.91421 2.25 4.5C2.25 4.08579 2.58579 3.75 3 3.75C3.31548 3.75 3.58547 3.94479 3.69625 4.22066L5.91001 4.53691C6.04732 4.36221 6.26056 4.25 6.5 4.25C6.61084 4.25 6.71607 4.27404 6.81074 4.3172L9.25345 2.57241C9.25117 2.54858 9.25 2.52443 9.25 2.5Z" fill="#18202A"/>
<path fill-rule="evenodd" clip-rule="evenodd" d="M2.5 6C2.22386 6 2 6.22386 2 6.5V9.5C2 9.77614 2.22386 10 2.5 10H3.5C3.77614 10 4 9.77614 4 9.5V6.5C4 6.22386 3.77614 6 3.5 6H2.5ZM2.75 6.75V9.25H3.25V6.75H2.75Z" fill="#18202A"/>
<path fill-rule="evenodd" clip-rule="evenodd" d="M5.5 7C5.5 6.72386 5.72386 6.5 6 6.5H7C7.27614 6.5 7.5 6.72386 7.5 7V9.5C7.5 9.77614 7.27614 10 7 10H6C5.72386 10 5.5 9.77614 5.5 9.5V7ZM6.25 9.25V7.25H6.75V9.25H6.25Z" fill="#18202A"/>
<path fill-rule="evenodd" clip-rule="evenodd" d="M9.5 4C9.22386 4 9 4.22386 9 4.5V9.5C9 9.77614 9.22386 10 9.5 10H10.5C10.7761 10 11 9.77614 11 9.5V4.5C11 4.22386 10.7761 4 10.5 4H9.5ZM9.75 4.75V9.25H10.25V4.75H9.75Z" fill="#18202A"/>
</g>
<defs>
<clipPath id="clip0_2266_38605">
<rect width="12" height="12" fill="white"/>
</clipPath>
</defs>
</svg>
