<svg width="12" height="12" viewBox="0 0 12 12" fill="none" xmlns="http://www.w3.org/2000/svg">
<path fill-rule="evenodd" clip-rule="evenodd" d="M0.5 2.5C0.5 1.39543 1.39543 0.5 2.5 0.5H9.5C10.6046 0.5 11.5 1.39543 11.5 2.5V7C11.5 8.10457 10.6046 9 9.5 9H6.45455L3.22777 10.9186C2.8537 11.141 2.39375 10.8125 2.48282 10.3865L2.77273 9H2.5C1.39543 9 0.5 8.10457 0.5 7V2.5ZM5.20711 3C5.09272 3 5 3.09272 5 3.20711C5 3.26203 5.02182 3.31471 5.06066 3.35355L5.10355 3.39645C5.29882 3.59171 5.29882 3.90829 5.10355 4.10355C4.90829 4.29882 4.59171 4.29882 4.39645 4.10355L4.35355 4.06066C4.12718 3.83428 4 3.52725 4 3.20711C4 2.54044 4.54044 2 5.20711 2H6.62829C7.38587 2 8 2.61413 8 3.37171C8 3.96213 7.62219 4.48632 7.06206 4.67303L6.90811 4.72434C6.66439 4.80558 6.5 5.03366 6.5 5.29057V5.5C6.5 5.77614 6.27614 6 6 6C5.72386 6 5.5 5.77614 5.5 5.5V5.29057C5.5 4.60323 5.93982 3.99301 6.59189 3.77566L6.74584 3.72434C6.89762 3.67375 7 3.5317 7 3.37171C7 3.16642 6.83358 3 6.62829 3H5.20711ZM6 6.5C5.72386 6.5 5.5 6.72386 5.5 7C5.5 7.27614 5.72386 7.5 6 7.5C6.27614 7.5 6.5 7.27614 6.5 7C6.5 6.72386 6.27614 6.5 6 6.5Z" fill="#18202A"/>
</svg>
