<svg width="12" height="12" viewBox="0 0 12 12" fill="none" xmlns="http://www.w3.org/2000/svg">
<g clip-path="url(#clip0_2266_41061)">
<path d="M7 4.59375C7 5.375 6.66667 6 6 6C5.33333 6 5 5.375 5 4.59375C5 3.96875 5.33333 3.5 6 3.5C6.66667 3.5 7 3.96875 7 4.59375Z" fill="#18202A"/>
<path d="M4 4.875C4 5.5 3.75 6 3.25 6C2.75 6 2.5 5.5 2.5 4.875C2.5 4.375 2.75 4 3.25 4C3.75 4 4 4.375 4 4.875Z" fill="#18202A"/>
<path d="M8.75 6C9.25 6 9.5 5.5 9.5 4.875C9.5 4.375 9.25 4 8.75 4C8.25 4 8 4.375 8 4.875C8 5.5 8.25 6 8.75 6Z" fill="#18202A"/>
<path d="M4.17181 6.53214C4.1328 6.55695 4.09432 6.58252 4.05639 6.60884C3.46977 7.01591 3.30266 7.75154 3.50676 8.3666C3.52266 8.41452 3.53916 8.46216 3.55624 8.50952C3.28522 8.50477 3.01835 8.48374 2.75666 8.4474C2.4481 8.40454 2.18656 8.1977 2.0813 7.9045C2.05713 7.83717 2.03431 7.76924 2.01289 7.70074C1.90253 7.34797 2.04155 6.9605 2.37214 6.79516C2.76157 6.60038 3.20456 6.49023 3.67443 6.49023C3.84415 6.49023 4.01036 6.5046 4.17181 6.53214Z" fill="#18202A"/>
<path d="M8.49339 8.36658C8.47767 8.41395 8.46137 8.46104 8.4445 8.50785C8.72254 8.49999 8.99608 8.47498 9.26401 8.43389C9.56868 8.38717 9.82533 8.18051 9.92862 7.89011C9.94619 7.84071 9.96303 7.79098 9.97913 7.74095C10.0902 7.39584 9.96223 7.01428 9.64382 6.84096C9.23373 6.61773 8.75932 6.49023 8.25379 6.49023C8.1041 6.49023 7.95714 6.50141 7.81378 6.52294C7.85778 6.55062 7.90111 6.57927 7.94376 6.60886C8.53036 7.01592 8.69747 7.75154 8.49339 8.36658Z" fill="#18202A"/>
<path d="M6.92626 9.42844C7.30695 9.36729 7.63369 9.12263 7.79568 8.77274C7.88015 8.59029 7.95477 8.40218 8.01883 8.20911C8.16374 7.77241 8.03672 7.28196 7.6587 7.01964C7.18613 6.69171 6.61509 6.5 6.00006 6.5C5.38504 6.5 4.814 6.69171 4.34144 7.01963C3.96341 7.28195 3.83639 7.77241 3.98131 8.20912C4.04538 8.40219 4.12001 8.59031 4.20448 8.77277C4.36648 9.12265 4.69322 9.36731 5.0739 9.42844C5.37563 9.4769 5.68496 9.50206 6.00006 9.50206C6.31518 9.50206 6.62452 9.4769 6.92626 9.42844Z" fill="#18202A"/>
<path fill-rule="evenodd" clip-rule="evenodd" d="M6 11.25C8.8995 11.25 11.25 8.8995 11.25 6C11.25 3.10051 8.8995 0.75 6 0.75C3.10051 0.75 0.75 3.10051 0.75 6C0.75 8.8995 3.10051 11.25 6 11.25ZM6 12C9.31371 12 12 9.31371 12 6C12 2.68629 9.31371 0 6 0C2.68629 0 0 2.68629 0 6C0 9.31371 2.68629 12 6 12Z" fill="#18202A"/>
</g>
<defs>
<clipPath id="clip0_2266_41061">
<rect width="12" height="12" fill="white"/>
</clipPath>
</defs>
</svg>
