<svg width="12" height="12" viewBox="0 0 12 12" fill="none" xmlns="http://www.w3.org/2000/svg">
<path fill-rule="evenodd" clip-rule="evenodd" d="M8.75 3.46875C8.75 4.08302 8.62034 4.56041 8.43027 4.85825C8.25996 5.12512 8.04817 5.25 7.75 5.25C7.45183 5.25 7.24004 5.12512 7.06973 4.85825C6.87966 4.56041 6.75 4.08302 6.75 3.46875C6.75 3.02654 6.86521 2.72158 7.01472 2.54138C7.14809 2.38062 7.36383 2.25 7.75 2.25C8.13617 2.25 8.35191 2.38062 8.48528 2.54138C8.63479 2.72158 8.75 3.02654 8.75 3.46875ZM9.5 3.46875C9.5 4.875 8.91667 6 7.75 6C6.58333 6 6 4.875 6 3.46875C6 2.34375 6.58333 1.5 7.75 1.5C8.91667 1.5 9.5 2.34375 9.5 3.46875ZM3.12022 7C3.40235 7 3.67765 7.02921 3.94328 7.08477C3.7456 7.28769 3.59221 7.52033 3.48309 7.76997C3.36403 7.75678 3.24297 7.75 3.12022 7.75C2.53944 7.75 1.99636 7.90167 1.52605 8.16703C1.30796 8.29008 1.16981 8.6044 1.29758 8.95885C1.32262 9.02832 1.34869 9.09729 1.37578 9.16575C1.48515 9.44221 1.73989 9.641 2.04559 9.68073C2.397 9.7264 2.75567 9.75 3.12022 9.75C3.24261 9.75 3.36433 9.74734 3.48535 9.74208C3.49328 9.76059 3.50144 9.77903 3.50983 9.79739C3.56634 9.92103 3.62591 10.0432 3.68844 10.1638C3.7439 10.2708 3.80609 10.3726 3.87428 10.4689C3.62566 10.4895 3.37417 10.5 3.12022 10.5C2.72326 10.5 2.33231 10.4743 1.94893 10.4245C1.37828 10.3503 0.890061 9.97675 0.678368 9.44166C0.64846 9.36606 0.61967 9.28989 0.592019 9.21318C0.362211 8.57564 0.56728 7.84684 1.15751 7.51382C1.73735 7.18667 2.40698 7 3.12022 7ZM7.75 10.25C8.40768 10.25 9.04889 10.1911 9.66732 10.0791C10.0405 10.0116 10.3502 9.78618 10.511 9.47462C10.5621 9.37582 10.6106 9.27589 10.6565 9.17492C10.8619 8.72373 10.7165 8.24073 10.3728 8.0144C9.64904 7.53794 8.74233 7.25 7.75 7.25C6.75767 7.25 5.85096 7.53794 5.12724 8.0144C4.78347 8.24073 4.63814 8.72373 4.84348 9.17492C4.88944 9.27589 4.93795 9.37582 4.98895 9.47462C5.14977 9.78618 5.45951 10.0116 5.83268 10.0791C6.45111 10.1911 7.09232 10.25 7.75 10.25ZM9.80089 10.8171C10.388 10.7109 10.903 10.3505 11.1775 9.81863C11.2341 9.70892 11.288 9.59789 11.3391 9.4856C11.6802 8.73624 11.4713 7.83966 10.7852 7.38797C9.93783 6.83013 8.88751 6.5 7.75 6.5C6.61249 6.5 5.56217 6.83013 4.71483 7.38797C4.02873 7.83966 3.81981 8.73624 4.16086 9.4856C4.21197 9.59789 4.26587 9.70892 4.32249 9.81863C4.59705 10.3505 5.11203 10.7109 5.69911 10.8171C6.36157 10.937 7.04747 11 7.75 11C8.45253 11 9.13843 10.937 9.80089 10.8171ZM3.86969 4.53125C3.86969 4.97712 3.76592 5.3028 3.63122 5.49433C3.51686 5.65693 3.36729 5.75 3.11969 5.75C2.87209 5.75 2.72252 5.65693 2.60816 5.49433C2.47346 5.3028 2.36969 4.97712 2.36969 4.53125C2.36969 4.23141 2.45452 4.04605 2.54821 3.94358C2.63225 3.85166 2.79207 3.75 3.11969 3.75C3.44731 3.75 3.60713 3.85166 3.69117 3.94358C3.78486 4.04605 3.86969 4.23141 3.86969 4.53125ZM4.61969 4.53125C4.61969 5.625 4.11969 6.5 3.11969 6.5C2.11969 6.5 1.61969 5.625 1.61969 4.53125C1.61969 3.65625 2.11969 3 3.11969 3C4.11969 3 4.61969 3.65625 4.61969 4.53125Z" fill="#18202A"/>
</svg>
