<svg width="12" height="12" viewBox="0 0 12 12" fill="none" xmlns="http://www.w3.org/2000/svg">
<g clip-path="url(#clip0_2266_38065)">
<path fill-rule="evenodd" clip-rule="evenodd" d="M6 5.5C7.33333 5.5 8 4.25 8 2.6875C8 1.4375 7.33333 0.5 6 0.5C4.66667 0.5 4 1.4375 4 2.6875C4 4.25 4.66667 5.5 6 5.5ZM6.00002 6.5C6.48638 6.5 6.95652 6.56944 7.40107 6.69895C6.55035 7.33745 6.00001 8.35446 6.00001 9.50001C6.00001 10.2347 6.22636 10.9165 6.61312 11.4794C6.41051 11.4931 6.20607 11.5 6.00001 11.5C5.22631 11.5 4.47541 11.4024 3.75897 11.2188C3.14945 11.0626 2.63285 10.6543 2.34993 10.0922L2.32658 10.0455C1.93547 9.25568 2.06847 8.28806 2.73583 7.7124C3.61173 6.95686 4.75252 6.5 6.00002 6.5ZM12 9.50001C12 10.8807 10.8807 12 9.5 12C8.11929 12 7 10.8807 7 9.50001C7 8.1193 8.11929 7.00001 9.5 7.00001C10.8807 7.00001 12 8.1193 12 9.50001ZM9.5 7.75001C9.77615 7.75001 10 7.97387 10 8.25001V9.00001H10.75C11.0261 9.00001 11.25 9.22387 11.25 9.50001C11.25 9.77615 11.0261 10 10.75 10H10V10.75C10 11.0262 9.77615 11.25 9.5 11.25C9.22386 11.25 9 11.0262 9 10.75V10H8.25C7.97386 10 7.75 9.77615 7.75 9.50001C7.75 9.22387 7.97386 9.00001 8.25 9.00001H9V8.25001C9 7.97387 9.22386 7.75001 9.5 7.75001Z" fill="#18202A"/>
</g>
<defs>
<clipPath id="clip0_2266_38065">
<rect width="12" height="12" fill="white"/>
</clipPath>
</defs>
</svg>
