<svg width="12" height="12" viewBox="0 0 12 12" fill="none" xmlns="http://www.w3.org/2000/svg">
<path fill-rule="evenodd" clip-rule="evenodd" d="M8.79905 1.9409C8.87157 1.97969 8.95254 1.99999 9.03479 2H9C10.3807 2 11.5 3.11929 11.5 4.5V8.5C11.5 9.88071 10.3807 11 9 11H3C1.61929 11 0.5 9.88071 0.5 8.5V4.5C0.5 3.11929 1.61929 2 3 2H2.96509C3.04733 1.99999 3.12831 1.97969 3.20083 1.9409C3.2734 1.90208 3.33526 1.84596 3.38094 1.7775L3.78694 1.168C3.9239 0.962533 4.10948 0.794058 4.32719 0.677528C4.5449 0.560998 4.788 0.500018 5.03494 0.5H6.96494C7.21187 0.500018 7.45498 0.560998 7.67269 0.677528C7.8904 0.794058 8.07597 0.962533 8.21294 1.168L8.61894 1.7775C8.66461 1.84596 8.72648 1.90208 8.79905 1.9409ZM4.48243 4.88752C4.86854 4.49366 5.40548 4.25 6 4.25C6.92791 4.25 7.71691 4.84474 8.0066 5.67382L7.44697 5.75377C7.29682 5.77522 7.17438 5.885 7.13673 6.03193C7.09909 6.17886 7.15366 6.334 7.275 6.425L8.275 7.175C8.44069 7.29926 8.67574 7.26569 8.8 7.1L9.55 6.1C9.641 5.97866 9.64996 5.81445 9.57268 5.68394C9.4954 5.55343 9.34712 5.48232 9.19697 5.50377L8.75968 5.56624C8.41032 4.37216 7.30701 3.5 6 3.5C5.19583 3.5 4.46821 3.83066 3.94686 4.36248C3.80187 4.51038 3.80423 4.7478 3.95213 4.89279C4.10002 5.03777 4.33745 5.03541 4.48243 4.88752ZM3.725 5.575C3.55932 5.45074 3.32427 5.48431 3.2 5.65L2.45 6.65C2.359 6.77134 2.35005 6.93555 2.42732 7.06606C2.5046 7.19657 2.65289 7.26768 2.80303 7.24623L3.24032 7.18376C3.58969 8.37784 4.69299 9.25 6 9.25C6.80417 9.25 7.53179 8.91934 8.05315 8.38752C8.19813 8.23962 8.19577 8.0022 8.04788 7.85721C7.89998 7.71223 7.66256 7.71459 7.51757 7.86248C7.13146 8.25634 6.59453 8.5 6 8.5C5.07209 8.5 4.28309 7.90526 3.9934 7.07618L4.55303 6.99623C4.70318 6.97478 4.82563 6.865 4.86327 6.71807C4.90091 6.57114 4.84634 6.416 4.725 6.325L3.725 5.575Z" fill="#18202A"/>
</svg>
