<svg width="12" height="12" viewBox="0 0 12 12" fill="none" xmlns="http://www.w3.org/2000/svg">
<path d="M0.5 4.49988C0.5 3.94759 0.947715 3.49988 1.5 3.49988H2.5C3.05228 3.49988 3.5 3.94759 3.5 4.49988V9.99988C3.5 10.5522 3.05228 10.9999 2.5 10.9999H1.5C0.947715 10.9999 0.5 10.5522 0.5 9.99988V4.49988Z" fill="#18202A"/>
<path d="M8.5 2.24992C8.5 1.31829 7.9885 0.671292 6.95334 0.529281C6.70472 0.495172 6.5 0.625537 6.5 0.876491C6.5 1.89955 6.39618 3.05726 5.71679 3.82216C5.5041 4.06163 5.26606 4.26207 5.01716 4.38141C4.76816 4.50081 4.53571 4.72377 4.53571 4.99992L4.53571 9.49992C4.53571 9.77606 4.75957 9.99992 5.03571 9.99992H9.07295C9.64111 9.99992 10.1605 9.67891 10.4146 9.17074L10.4443 9.11137C11.1385 7.72282 11.5 6.19169 11.5 4.63924V4.49992C11.5 3.94763 11.0523 3.49991 10.5 3.49991H8.75C8.47386 3.49991 8.3307 3.29245 8.40597 3.02676C8.4566 2.84803 8.5 2.60284 8.5 2.24992Z" fill="#18202A"/>
<path fill-rule="evenodd" clip-rule="evenodd" d="M6.4866 0.393611C6.63186 0.288186 6.81377 0.257748 6.98732 0.281557C7.55056 0.358826 7.99797 0.577921 8.30353 0.929435C8.60884 1.28066 8.75 1.73814 8.75 2.24987C8.75 2.62434 8.70381 2.89257 8.6465 3.09486C8.62459 3.17221 8.64256 3.20773 8.64949 3.21741C8.65468 3.22466 8.67623 3.24987 8.75 3.24987H10.5C11.1904 3.24987 11.75 3.80951 11.75 4.49987V4.63919C11.75 6.23045 11.3795 7.79986 10.6679 9.22313L10.6382 9.28249C10.3418 9.87537 9.7358 10.2499 9.07295 10.2499H5.03571C4.62149 10.2499 4.28571 9.91408 4.28571 9.49987L4.28571 4.99987C4.28571 4.57818 4.62917 4.29016 4.90907 4.15595C5.11819 4.05567 5.33064 3.88042 5.52988 3.6561C6.1402 2.96895 6.25 1.90225 6.25 0.876446C6.25 0.676556 6.33509 0.503568 6.4866 0.393611ZM6.76026 0.821751C6.75561 0.831216 6.75 0.848175 6.75 0.876446C6.75 1.89676 6.65216 3.14548 5.90371 3.98814C5.67756 4.24275 5.41393 4.46837 5.12525 4.60679C4.90716 4.71137 4.78571 4.86928 4.78571 4.99987L4.78571 9.49987C4.78571 9.63794 4.89764 9.74987 5.03571 9.74987H9.07295C9.54641 9.74987 9.97924 9.48237 10.191 9.05889L10.2207 8.99952C10.8976 7.64568 11.25 6.15283 11.25 4.63919V4.49987C11.25 4.08566 10.9142 3.74987 10.5 3.74987H8.75C8.54763 3.74987 8.35953 3.67135 8.24292 3.50844C8.12805 3.34797 8.11208 3.14691 8.16543 2.95858C8.20939 2.8034 8.25 2.58124 8.25 2.24987C8.25 1.82999 8.13541 1.49815 7.92618 1.25747C7.71721 1.01707 7.39129 0.841659 6.91936 0.776917C6.84429 0.766617 6.79952 0.784307 6.78028 0.798275C6.77108 0.804948 6.76482 0.812464 6.76026 0.821751Z" fill="#18202A"/>
</svg>
