<svg width="12" height="12" viewBox="0 0 12 12" fill="none" xmlns="http://www.w3.org/2000/svg">
<g clip-path="url(#clip0_2266_39057)">
<path d="M6.26517 0.609835C6.11872 0.463388 5.88128 0.463388 5.73483 0.609835L4.23483 2.10983C4.08839 2.25628 4.08839 2.49372 4.23483 2.64017C4.38128 2.78661 4.61872 2.78661 4.76516 2.64017L5.625 1.78033V5.625H1.78033L2.64017 4.76516C2.78661 4.61872 2.78661 4.38128 2.64017 4.23483C2.49372 4.08839 2.25628 4.08839 2.10983 4.23483L0.609835 5.73483C0.463388 5.88128 0.463388 6.11872 0.609835 6.26517L2.10983 7.76517C2.25628 7.91161 2.49372 7.91161 2.64017 7.76517C2.78661 7.61872 2.78661 7.38128 2.64017 7.23483L1.78033 6.375H5.625V10.2197L4.76516 9.35983C4.61872 9.21339 4.38128 9.21339 4.23483 9.35983C4.08839 9.50628 4.08839 9.74372 4.23483 9.89017L5.73483 11.3902C5.88128 11.5366 6.11872 11.5366 6.26517 11.3902L7.76517 9.89017C7.91161 9.74372 7.91161 9.50628 7.76517 9.35983C7.61872 9.21339 7.38128 9.21339 7.23483 9.35983L6.375 10.2197V6.375H10.2197L9.35983 7.23483C9.21339 7.38128 9.21339 7.61872 9.35983 7.76517C9.50628 7.91161 9.74372 7.91161 9.89017 7.76517L11.3902 6.26517C11.5366 6.11872 11.5366 5.88128 11.3902 5.73483L9.89017 4.23483C9.74372 4.08839 9.50628 4.08839 9.35983 4.23483C9.21339 4.38128 9.21339 4.61872 9.35983 4.76516L10.2197 5.625H6.375V1.78033L7.23483 2.64017C7.38128 2.78661 7.61872 2.78661 7.76517 2.64017C7.91161 2.49372 7.91161 2.25628 7.76517 2.10983L6.26517 0.609835Z" fill="#18202A"/>
</g>
<defs>
<clipPath id="clip0_2266_39057">
<rect width="12" height="12" fill="white"/>
</clipPath>
</defs>
</svg>
