<svg width="12" height="12" viewBox="0 0 12 12" fill="none" xmlns="http://www.w3.org/2000/svg">
<path d="M10.6094 6.47671C9.88722 7.25424 8.15193 9.25027 6.99187 10.5441C6.44925 11.1492 5.55075 11.1492 5.00813 10.5441C3.84807 9.25027 2.11278 7.25424 1.39061 6.47671C0.984393 6.03907 0.5 5.32564 0.5 4.41225C0.5 2.80664 1.85614 1.5 3.52343 1.5C4.42543 1.5 5.274 2.12979 5.85111 2.8C5.92614 2.88682 6.07425 2.88682 6.14889 2.8C6.726 2.12979 7.57457 1.5 8.47657 1.5C10.1439 1.5 11.5 2.80664 11.5 4.41225C11.5 5.32564 11.0156 6.03907 10.6094 6.47671Z" fill="#18202A"/>
</svg>
