<svg width="12" height="12" viewBox="0 0 12 12" fill="none" xmlns="http://www.w3.org/2000/svg">
<g clip-path="url(#clip0_3900_9019)">
<path d="M9.14932 4.99432C9.14932 5.70455 8.84955 6.27273 8.24999 6.27273C7.65044 6.27273 7.35067 5.70455 7.35067 4.99432C7.35067 4.42614 7.65044 4 8.24999 4C8.84955 4 9.14932 4.42614 9.14932 4.99432Z" fill="#18202A"/>
<path d="M6.97903 7.125C6.9106 7.17249 6.8449 7.22371 6.78222 7.27836C6.63809 7.40404 6.54938 7.57082 6.5156 7.75C6.47905 7.94388 6.50679 8.15228 6.59819 8.33886L6.60869 8.36011C6.73591 8.61558 6.9682 8.80116 7.24228 8.87216C7.56444 8.95562 7.90209 9 8.25 9C8.5979 9 8.93555 8.95562 9.25771 8.87216C9.53179 8.80116 9.76408 8.61558 9.8913 8.36011L9.89663 8.34938L9.90181 8.33885C10.057 8.02201 10.0287 7.64222 9.81359 7.37751C9.78496 7.34228 9.75303 7.30908 9.71778 7.27835C9.5921 7.16877 9.4543 7.07301 9.30668 6.99341C8.99167 6.82355 8.63196 6.72727 8.25 6.72727C7.77833 6.72727 7.34057 6.8741 6.97903 7.125Z" fill="#18202A"/>
<path fill-rule="evenodd" clip-rule="evenodd" d="M2.5 1.5C1.39543 1.5 0.5 2.39543 0.5 3.5V8.5C0.5 9.60457 1.39543 10.5 2.5 10.5H9.5C10.6046 10.5 11.5 9.60457 11.5 8.5V4.5C11.5 3.39543 10.6046 2.5 9.5 2.5H6L5.43934 1.93934C5.15804 1.65804 4.7765 1.5 4.37868 1.5H2.5ZM10.75 4.5C10.75 3.80964 10.1904 3.25 9.5 3.25H5.68934L4.90901 2.46967C4.76836 2.32902 4.57759 2.25 4.37868 2.25H2.5C1.80964 2.25 1.25 2.80964 1.25 3.5V8.5C1.25 9.19036 1.80964 9.75 2.5 9.75H9.5C10.1904 9.75 10.75 9.19036 10.75 8.5V4.5Z" fill="#18202A"/>
</g>
<defs>
<clipPath id="clip0_3900_9019">
<rect width="12" height="12" fill="white"/>
</clipPath>
</defs>
</svg>
