<svg width="12" height="12" viewBox="0 0 12 12" fill="none" xmlns="http://www.w3.org/2000/svg">
<path fill-rule="evenodd" clip-rule="evenodd" d="M10.4864 4.75C10.4524 4.54568 10.3555 4.35548 10.2071 4.20711L6.79289 0.792893C6.64452 0.644517 6.45432 0.547584 6.25 0.513571V0.5H3.5C2.39543 0.5 1.5 1.39543 1.5 2.5V9.5C1.5 10.6046 2.39543 11.5 3.5 11.5H6.93808C6.76013 11.2724 6.61186 11.0204 6.49908 10.75H3.5C2.80964 10.75 2.25 10.1904 2.25 9.5V2.5C2.25 1.80964 2.80964 1.25 3.5 1.25H5.5V5.5H9.75V6.25947C10.0097 6.27923 10.2609 6.32952 10.5 6.40675V4.75H10.4864ZM9.67678 4.73744C9.68084 4.7415 9.68475 4.74569 9.68851 4.75H6.25V1.31149C6.25431 1.31525 6.2585 1.31916 6.26256 1.32322L9.67678 4.73744Z" fill="#18202A"/>
<path fill-rule="evenodd" clip-rule="evenodd" d="M12 9.5C12 10.8807 10.8807 12 9.5 12C8.11929 12 7 10.8807 7 9.5C7 8.11929 8.11929 7 9.5 7C10.8807 7 12 8.11929 12 9.5ZM9.375 8.25C9.58211 8.25 9.75 8.41789 9.75 8.625V9.71967L10.3902 10.3598C10.5366 10.5063 10.5366 10.7437 10.3902 10.8902C10.2437 11.0366 10.0063 11.0366 9.85983 10.8902L9.10983 10.1402C9.03951 10.0698 9 9.97446 9 9.875V8.625C9 8.41789 9.16789 8.25 9.375 8.25Z" fill="#18202A"/>
</svg>
