<svg width="12" height="12" viewBox="0 0 12 12" fill="none" xmlns="http://www.w3.org/2000/svg">
<path fill-rule="evenodd" clip-rule="evenodd" d="M8.82921 1.82043C8.92838 2.00225 8.86139 2.23004 8.67957 2.32921L3.17957 5.32921C2.99775 5.42838 2.76996 5.36139 2.67079 5.17957C2.57162 4.99775 2.63861 4.76996 2.82043 4.67079L8.32043 1.67079C8.50225 1.57162 8.73004 1.63861 8.82921 1.82043Z" fill="#18202A"/>
<path fill-rule="evenodd" clip-rule="evenodd" d="M10.1796 3.17079C10.3614 3.26996 10.4284 3.49775 10.3292 3.67957L7.32921 9.17957C7.23004 9.36139 7.00225 9.42838 6.82043 9.32921C6.63861 9.23004 6.57162 9.00225 6.67079 8.82043L9.67079 3.32043C9.76996 3.13861 9.99775 3.07162 10.1796 3.17079Z" fill="#18202A"/>
<path fill-rule="evenodd" clip-rule="evenodd" d="M7.73484 1.23483C7.88128 1.08839 8.11872 1.08839 8.26516 1.23483L10.7652 3.73483C10.9116 3.88128 10.9116 4.11872 10.7652 4.26517C10.6187 4.41161 10.3813 4.41161 10.2348 4.26517L7.73484 1.76517C7.58839 1.61872 7.58839 1.38128 7.73484 1.23483Z" fill="#18202A"/>
<path fill-rule="evenodd" clip-rule="evenodd" d="M4.76517 7.23484C4.91161 7.38128 4.91161 7.61872 4.76517 7.76516L2.76517 9.76517C2.61872 9.91161 2.38128 9.91161 2.23483 9.76517C2.08839 9.61872 2.08839 9.38128 2.23483 9.23483L4.23483 7.23484C4.38128 7.08839 4.61872 7.08839 4.76517 7.23484Z" fill="#18202A"/>
<path fill-rule="evenodd" clip-rule="evenodd" d="M1.73483 4.23483C1.88128 4.08839 2.11872 4.08839 2.26517 4.23483L7.76517 9.73483C7.91161 9.88128 7.91161 10.1187 7.76517 10.2652C7.61872 10.4116 7.38128 10.4116 7.23484 10.2652L1.73483 4.76517C1.58839 4.61872 1.58839 4.38128 1.73483 4.23483Z" fill="#18202A"/>
</svg>
