<svg width="12" height="12" viewBox="0 0 12 12" fill="none" xmlns="http://www.w3.org/2000/svg">
<g clip-path="url(#clip0_2266_39672)">
<path fill-rule="evenodd" clip-rule="evenodd" d="M1.85324 2.3868L1.1105 1.64407C0.963165 1.49673 0.963165 1.25784 1.1105 1.1105C1.25784 0.963165 1.49673 0.963165 1.64407 1.1105L10.8895 10.3559C11.0368 10.5033 11.0368 10.7422 10.8895 10.8895C10.7422 11.0368 10.5033 11.0368 10.3559 10.8895L9.6132 10.1468C8.64678 10.9895 7.383 11.5 6 11.5C2.96243 11.5 0.5 9.03757 0.5 6C0.5 4.617 1.01045 3.35322 1.85324 2.3868ZM9.08143 9.61499C8.25193 10.3227 7.17586 10.75 6 10.75C3.37665 10.75 1.25 8.62335 1.25 6C1.25 4.82414 1.67726 3.74807 2.38501 2.91857L4.12925 4.66281L3.53861 4.7521C3.32326 4.78466 3.19069 4.94486 3.14544 5.09915C3.10031 5.25304 3.1263 5.44656 3.26685 5.58996L4.28305 6.62681L4.04126 8.09907C4.01095 8.28359 4.08444 8.46005 4.21839 8.56811C4.35528 8.67854 4.56191 8.71856 4.74938 8.61558L6 7.9285L7.25063 8.61558C7.43809 8.71857 7.64472 8.67854 7.78161 8.56811C7.82856 8.53024 7.86809 8.48396 7.89831 8.43187L9.08143 9.61499ZM7.12662 7.66018L4.78816 5.32172L4.14883 5.41838L5.08473 6.37329L4.86769 7.69485L6 7.07277L7.13231 7.69485L7.12662 7.66018ZM5.318 3.7245L5.88144 4.28794L6 4.03667L6.33039 4.73688L6.86253 5.26902L7.85119 5.4195L7.43602 5.84251L7.96637 6.37287L8.73291 5.59184C8.87355 5.44854 8.89967 5.25505 8.85467 5.10116C8.80954 4.94685 8.67713 4.78658 8.46186 4.75381L7.06754 4.54159L6.43677 3.20475C6.26077 2.83175 5.73923 2.83175 5.56324 3.20475L5.318 3.7245ZM10.75 6C10.75 6.90328 10.4979 7.74767 10.0601 8.46664L10.6038 9.0103C11.1705 8.14542 11.5 7.1112 11.5 6C11.5 2.96243 9.03757 0.5 6 0.5C4.8888 0.5 3.85457 0.829529 2.9897 1.3962L3.53336 1.93986C4.25233 1.50213 5.09672 1.25 6 1.25C8.62335 1.25 10.75 3.37665 10.75 6Z" fill="#18202A"/>
</g>
<defs>
<clipPath id="clip0_2266_39672">
<rect width="12" height="12" fill="white"/>
</clipPath>
</defs>
</svg>
