<svg width="12" height="12" viewBox="0 0 12 12" fill="none" xmlns="http://www.w3.org/2000/svg">
<path fill-rule="evenodd" clip-rule="evenodd" d="M9.75 5.375C9.75 5.16789 9.91789 5 10.125 5C10.3321 5 10.5 5.16789 10.5 5.375V9.5C10.5 10.6046 9.60457 11.5 8.5 11.5H3.5C2.39543 11.5 1.5 10.6046 1.5 9.5V2.5C1.5 1.39543 2.39543 0.5 3.5 0.5H8.125C8.33211 0.5 8.5 0.667893 8.5 0.875C8.5 1.08211 8.33211 1.25 8.125 1.25L3.5 1.25C2.80964 1.25 2.25 1.80964 2.25 2.5L2.25 9.5C2.25 10.1904 2.80964 10.75 3.5 10.75H8.5C9.19036 10.75 9.75 10.1904 9.75 9.5V5.375ZM3.87497 6.5C3.66786 6.5 3.49997 6.66789 3.49997 6.875C3.49997 7.08211 3.66786 7.25 3.87497 7.25H6.12497C6.33208 7.25 6.49997 7.08211 6.49997 6.875C6.49997 6.66789 6.33208 6.5 6.12497 6.5H3.87497ZM3.49997 8.875C3.49997 8.66789 3.66786 8.5 3.87497 8.5H8.12497C8.33208 8.5 8.49997 8.66789 8.49997 8.875C8.49997 9.08211 8.33208 9.25 8.12497 9.25H3.87497C3.66786 9.25 3.49997 9.08211 3.49997 8.875ZM10.7651 2.26516C10.9116 2.11872 10.9116 1.88128 10.7651 1.73483C10.6187 1.58839 10.3813 1.58839 10.2348 1.73484L7.49732 4.47233L6.33388 3.33217C6.18597 3.18721 5.94854 3.18961 5.80358 3.33753C5.65862 3.48545 5.66102 3.72287 5.80894 3.86783L7.23751 5.26783C7.38437 5.41176 7.61975 5.41057 7.76515 5.26516L10.7651 2.26516Z" fill="#18202A"/>
</svg>
