<svg width="12" height="12" viewBox="0 0 12 12" fill="none" xmlns="http://www.w3.org/2000/svg">
<g clip-path="url(#clip0_2267_24890)">
<path fill-rule="evenodd" clip-rule="evenodd" d="M2.5 8.50006L5.40668 11.1568C6.20886 11.89 7.5 11.3209 7.5 10.2341V1.76614C7.5 0.679381 6.20889 0.110282 5.4067 0.84345L2.5 3.50006H1.5C0.671573 3.50006 0 4.17163 0 5.00006V7.00006C0 7.82849 0.671573 8.50006 1.5 8.50006H2.5ZM2.79111 7.75006L5.91267 10.6032C6.23355 10.8965 6.75 10.6688 6.75 10.2341V1.76614C6.75 1.33143 6.23356 1.1038 5.91268 1.39706L2.7911 4.25006H2.75V7.75006H2.79111ZM1.5 4.25006H2V7.75006H1.5C1.08579 7.75006 0.75 7.41428 0.75 7.00006V5.00006C0.75 4.58585 1.08579 4.25006 1.5 4.25006Z" fill="#18202A"/>
<path d="M8.60775 4.78744C8.47462 4.62879 8.49531 4.39225 8.65397 4.25913C8.81262 4.126 9.04915 4.1467 9.18228 4.30535L10.2609 5.59085L11.3396 4.30535C11.4727 4.1467 11.7093 4.126 11.8679 4.25913C12.0266 4.39225 12.0473 4.62879 11.9141 4.78744L10.7505 6.17425L11.9141 7.56104C12.0473 7.71969 12.0266 7.95623 11.8679 8.08935C11.7093 8.22248 11.4727 8.20178 11.3396 8.04313L10.2609 6.75764L9.18229 8.04313C9.04917 8.20178 8.81263 8.22248 8.65398 8.08935C8.49533 7.95623 8.47463 7.71969 8.60776 7.56104L9.77141 6.17425L8.60775 4.78744Z" fill="#18202A"/>
</g>
<defs>
<clipPath id="clip0_2267_24890">
<rect width="12" height="12" fill="white"/>
</clipPath>
</defs>
</svg>
