<svg width="12" height="12" viewBox="0 0 12 12" fill="none" xmlns="http://www.w3.org/2000/svg">
<g clip-path="url(#clip0_3294_8885)">
<path d="M2 2.5C2 2.77614 1.77614 3 1.5 3C1.22386 3 1 2.77614 1 2.5C1 2.22386 1.22386 2 1.5 2C1.77614 2 2 2.22386 2 2.5Z" fill="#18202A"/>
<path d="M3.5 2.5C3.5 2.22386 3.72386 2 4 2H10.5C10.7761 2 11 2.22386 11 2.5C11 2.77614 10.7761 3 10.5 3H4C3.72386 3 3.5 2.77614 3.5 2.5Z" fill="#18202A"/>
<path d="M4 5.5C3.72386 5.5 3.5 5.72386 3.5 6C3.5 6.27614 3.72386 6.5 4 6.5H10.5C10.7761 6.5 11 6.27614 11 6C11 5.72386 10.7761 5.5 10.5 5.5H4Z" fill="#18202A"/>
<path d="M4 9C3.72386 9 3.5 9.22386 3.5 9.5C3.5 9.77614 3.72386 10 4 10H10.5C10.7761 10 11 9.77614 11 9.5C11 9.22386 10.7761 9 10.5 9H4Z" fill="#18202A"/>
<path d="M2 6C2 6.27614 1.77614 6.5 1.5 6.5C1.22386 6.5 1 6.27614 1 6C1 5.72386 1.22386 5.5 1.5 5.5C1.77614 5.5 2 5.72386 2 6Z" fill="#18202A"/>
<path d="M2 9.5C2 9.77614 1.77614 10 1.5 10C1.22386 10 1 9.77614 1 9.5C1 9.22386 1.22386 9 1.5 9C1.77614 9 2 9.22386 2 9.5Z" fill="#18202A"/>
</g>
<defs>
<clipPath id="clip0_3294_8885">
<rect width="12" height="12" fill="white"/>
</clipPath>
</defs>
</svg>
