<svg width="12" height="12" viewBox="0 0 12 12" fill="none" xmlns="http://www.w3.org/2000/svg">
<path fill-rule="evenodd" clip-rule="evenodd" d="M1.1105 1.1105C1.25784 0.963165 1.49673 0.963165 1.64407 1.1105L10.8895 10.3559C11.0368 10.5033 11.0368 10.7422 10.8895 10.8895C10.7422 11.0368 10.5033 11.0368 10.3559 10.8895L9.46644 10H0.375C0.167893 10 0 9.83211 0 9.625C0 9.41789 0.167893 9.25 0.375 9.25H2C1.17157 9.25 0.5 8.57843 0.5 7.75V3.50195C0.5 2.83392 0.936692 2.26789 1.54018 2.07374L1.1105 1.64407C0.963165 1.49673 0.963165 1.25784 1.1105 1.1105ZM6.84528 7.37884L7.96644 8.5H2C1.58579 8.5 1.25 8.16421 1.25 7.75V3.50195C1.25 3.08774 1.58579 2.75195 2 2.75195H2.21839L4.59468 5.12824C4.57074 5.14535 4.54705 5.16294 4.52362 5.18102C3.91133 5.65355 3.49999 6.4442 3.49999 7.69873C3.49999 7.75513 3.53777 7.80455 3.5922 7.81935C3.64664 7.83414 3.70424 7.81065 3.73279 7.762C4.06862 7.18984 4.33528 6.84148 4.73406 6.62764C5.00432 6.48271 5.34326 6.39533 5.82004 6.3536L6.49999 7.03355V7.14695C6.49999 7.3345 6.69093 7.44321 6.84528 7.37884Z" fill="#18202A"/>
<path d="M7.922 6.32849L6.18591 4.5924C6.29126 4.58316 6.39619 4.57761 6.49999 4.57518V3.7505C6.49999 3.52778 6.76927 3.41623 6.92676 3.57372L8.62499 5.27195C8.72262 5.36958 8.72262 5.52787 8.62499 5.6255L7.922 6.32849Z" fill="#18202A"/>
<path d="M10.75 7.75C10.75 8.13432 10.4609 8.45113 10.0884 8.49485L10.6806 9.08707C11.1669 8.83902 11.5 8.33341 11.5 7.75V3.50195C11.5 2.67353 10.8284 2.00195 10 2.00195H3.59546L4.34546 2.75195H10C10.4142 2.75195 10.75 3.08774 10.75 3.50195V7.75Z" fill="#18202A"/>
<path d="M10.8435 9.25L11.5935 10H11.625C11.8321 10 12 9.83211 12 9.625C12 9.41789 11.8321 9.25 11.625 9.25H10.8435Z" fill="#18202A"/>
</svg>
