<svg width="12" height="12" viewBox="0 0 12 12" fill="none" xmlns="http://www.w3.org/2000/svg">
<path fill-rule="evenodd" clip-rule="evenodd" d="M6.68388 9H9.59091C10.6453 9 11.5 8.10457 11.5 7V2.5C11.5 1.39543 10.6453 0.5 9.59091 0.5H2.90909C1.85473 0.5 1 1.39543 1 2.5V2.64205C1 2.83974 1.16026 3 1.35795 3C1.55565 3 1.71591 2.83974 1.71591 2.64205V2.5C1.71591 1.80964 2.25011 1.25 2.90909 1.25H9.59091C10.2499 1.25 10.7841 1.80964 10.7841 2.5V7C10.7841 7.69036 10.2499 8.25 9.59091 8.25H6.68388C6.5551 8.25 6.4287 8.28639 6.318 8.35535L3.70456 9.98328L3.87018 9.1535C3.9143 8.93244 3.86098 8.70232 3.72504 8.52704C3.58909 8.35177 3.385 8.25 3.16942 8.25H2.90909C2.35023 8.25 1.88111 7.84749 1.75147 7.3041C1.71214 7.13928 1.57854 7 1.40909 7C1.18316 7 0.995776 7.18487 1.03947 7.40654C1.06286 7.52521 1.09628 7.64003 1.13877 7.75C1.36599 8.33806 1.85244 8.78713 2.44966 8.94171C2.59682 8.97979 2.7507 9 2.90909 9H3.16942L2.89269 10.3865C2.80767 10.8125 3.24672 11.141 3.60378 10.9186L6.68388 9ZM5.14017 2.85983C4.99372 2.71339 4.75628 2.71339 4.60984 2.85983C4.46339 3.00628 4.46339 3.24372 4.60984 3.39017L5.71967 4.5H0.375C0.167893 4.5 0 4.66789 0 4.875C0 5.08211 0.167893 5.25 0.375 5.25H5.71967L4.60984 6.35983C4.46339 6.50628 4.46339 6.74372 4.60984 6.89016C4.75628 7.03661 4.99372 7.03661 5.14017 6.89016L6.89017 5.14017C7.03661 4.99372 7.03661 4.75628 6.89017 4.60983L5.14017 2.85983Z" fill="#18202A"/>
</svg>
