<svg width="12" height="12" viewBox="0 0 12 12" fill="none" xmlns="http://www.w3.org/2000/svg">
<g clip-path="url(#clip0_2266_38680)">
<path fill-rule="evenodd" clip-rule="evenodd" d="M0 1.25H1.32204C1.48485 1.25 1.64032 1.31775 1.75116 1.437C1.75962 1.44611 1.7664 1.45664 1.7712 1.4681L1.99759 2.00946L3.40926 6.0384L2.73021 6.78721C2.22027 7.34954 2.61928 8.25 3.37839 8.25H10.25L10.0469 7.9453C9.8614 7.6671 9.54917 7.5 9.21482 7.5H3.37839C3.26994 7.5 3.21294 7.37136 3.28579 7.29103L4.00312 6.5H8.91545C9.26976 6.5 9.5891 6.28633 9.72427 5.95883L11.0657 2.70883C11.3034 2.13284 10.88 1.5 10.2568 1.5H2.59748L2.46313 1.17875C2.42422 1.0857 2.36917 1.00027 2.30051 0.926403C2.04777 0.654483 1.69328 0.5 1.32204 0.5H0V1.25ZM4.10292 5.75L2.87657 2.25H10.2568C10.3459 2.25 10.4064 2.34041 10.3724 2.42269L9.031 5.67269C9.01169 5.71948 8.96607 5.75 8.91545 5.75H4.10292ZM4.25 10.75C4.54412 10.75 4.75 10.5441 4.75 10.25C4.75 9.95588 4.54412 9.75 4.25 9.75C3.95588 9.75 3.75 9.95588 3.75 10.25C3.75 10.5441 3.95588 10.75 4.25 10.75ZM4.25 11.5C4.95833 11.5 5.5 10.9583 5.5 10.25C5.5 9.54167 4.95833 9 4.25 9C3.54167 9 3 9.54167 3 10.25C3 10.9583 3.54167 11.5 4.25 11.5ZM8.75 10.75C9.04412 10.75 9.25 10.5441 9.25 10.25C9.25 9.95588 9.04412 9.75 8.75 9.75C8.45588 9.75 8.25 9.95588 8.25 10.25C8.25 10.5441 8.45588 10.75 8.75 10.75ZM8.75 11.5C9.45833 11.5 10 10.9583 10 10.25C10 9.54167 9.45833 9 8.75 9C8.04167 9 7.5 9.54167 7.5 10.25C7.5 10.9583 8.04167 11.5 8.75 11.5Z" fill="#18202A"/>
</g>
<defs>
<clipPath id="clip0_2266_38680">
<rect width="12" height="12" fill="white"/>
</clipPath>
</defs>
</svg>
