<svg width="12" height="12" viewBox="0 0 12 12" fill="none" xmlns="http://www.w3.org/2000/svg">
<path d="M5 1.375C5 1.58211 4.83211 1.75 4.625 1.75H3C2.30964 1.75 1.75 2.30964 1.75 3V9C1.75 9.69036 2.30964 10.25 3 10.25H9C9.69036 10.25 10.25 9.69036 10.25 9V7.375C10.25 7.16789 10.4179 7 10.625 7C10.8321 7 11 7.16789 11 7.375V9C11 10.1046 10.1046 11 9 11H3C1.89543 11 1 10.1046 1 9V3C1 1.89543 1.89543 1 3 1H4.625C4.83211 1 5 1.16789 5 1.375Z" fill="#18202A"/>
<path fill-rule="evenodd" clip-rule="evenodd" d="M7 1.75C6.79289 1.75 6.625 1.58211 6.625 1.375C6.625 1.16789 6.79289 1 7 1H10.625C10.8321 1 11 1.16789 11 1.375V5C11 5.20711 10.8321 5.375 10.625 5.375C10.4179 5.375 10.25 5.20711 10.25 5V2.28033L5.51516 7.01516C5.36872 7.16161 5.13128 7.16161 4.98483 7.01516C4.83839 6.86872 4.83839 6.63128 4.98483 6.48484L9.71967 1.75H7Z" fill="#18202A"/>
</svg>
