<svg width="12" height="12" viewBox="0 0 12 12" fill="none" xmlns="http://www.w3.org/2000/svg">
<path fill-rule="evenodd" clip-rule="evenodd" d="M9.48045 11.0001H2.51957C0.978754 11.0001 0.0166538 9.33109 0.788876 7.99776L4.26932 1.98836C5.03972 0.658175 6.96029 0.658175 7.7307 1.98837L11.2111 7.99776C11.9834 9.33109 11.0213 11.0001 9.48045 11.0001ZM6.5 4.00012C6.5 3.72398 6.27614 3.50012 6 3.50012C5.72386 3.50012 5.5 3.72398 5.5 4.00012V6.50012C5.5 6.77626 5.72386 7.00012 6 7.00012C6.27614 7.00012 6.5 6.77626 6.5 6.50012V4.00012ZM6 8.00012C5.72386 8.00012 5.5 8.22398 5.5 8.50012C5.5 8.77626 5.72386 9.00012 6 9.00012H6.005C6.28114 9.00012 6.505 8.77626 6.505 8.50012C6.505 8.22398 6.28114 8.00012 6.005 8.00012H6Z" fill="#18202A"/>
</svg>
