<svg width="12" height="12" viewBox="0 0 12 12" fill="none" xmlns="http://www.w3.org/2000/svg">
<path fill-rule="evenodd" clip-rule="evenodd" d="M2.25 0.75H3.75V2.53365C3.67339 2.57232 3.5979 2.6129 3.52361 2.65534L2.25 1.67481V0.75ZM2.87127 3.09964L1.69498 2.19404C1.57204 2.09938 1.5 1.95301 1.5 1.79785V0.5C1.5 0.223858 1.72386 0 2 0H10C10.2761 0 10.5 0.223858 10.5 0.5V1.79785C10.5 1.95301 10.428 2.09938 10.305 2.19404L9.12873 3.09964C10.2697 4.01603 11 5.42273 11 7C11 9.76142 8.76142 12 6 12C3.23858 12 1 9.76142 1 7C1 5.42273 1.73033 4.01603 2.87127 3.09964ZM8.47639 2.65534L9.75 1.67481V0.75H8.25V2.53365C8.32661 2.57232 8.4021 2.6129 8.47639 2.65534ZM6.75 2.05588V0.75H5.25V2.05588C5.49465 2.01907 5.74509 2 6 2C6.25491 2 6.50535 2.01907 6.75 2.05588ZM10.25 7C10.25 9.34721 8.34721 11.25 6 11.25C3.65279 11.25 1.75 9.34721 1.75 7C1.75 4.65279 3.65279 2.75 6 2.75C8.34721 2.75 10.25 4.65279 10.25 7ZM6 9.75C7.51878 9.75 8.75 8.51878 8.75 7C8.75 5.48122 7.51878 4.25 6 4.25C4.48122 4.25 3.25 5.48122 3.25 7C3.25 8.51878 4.48122 9.75 6 9.75ZM6 10.5C7.933 10.5 9.5 8.933 9.5 7C9.5 5.067 7.933 3.5 6 3.5C4.067 3.5 2.5 5.067 2.5 7C2.5 8.933 4.067 10.5 6 10.5ZM6.56274 6.10186L6.14429 5.22019C6.08405 5.09327 5.91595 5.09327 5.85571 5.22019L5.43726 6.10186C5.41322 6.15253 5.36783 6.1874 5.31559 6.19534L4.38967 6.3361C4.25491 6.35658 4.20211 6.53631 4.30133 6.63682L4.96334 7.30743C5.00328 7.3479 5.02158 7.40739 5.01198 7.4656L4.85475 8.41907C4.83132 8.56111 4.96837 8.67095 5.08764 8.60572L5.92671 8.14679C5.97278 8.12159 6.02722 8.12159 6.07329 8.14679L6.91236 8.60572C7.03163 8.67095 7.16868 8.56111 7.14526 8.41907L6.98802 7.4656C6.97842 7.40739 6.99672 7.3479 7.03666 7.30743L7.69867 6.63682C7.79789 6.53631 7.74509 6.35658 7.61033 6.3361L6.68441 6.19534C6.63217 6.1874 6.58678 6.15253 6.56274 6.10186Z" fill="#18202A"/>
</svg>
