<svg width="12" height="12" viewBox="0 0 12 12" fill="none" xmlns="http://www.w3.org/2000/svg">
<path fill-rule="evenodd" clip-rule="evenodd" d="M5.10355 3.10355C5.29882 2.90829 5.29882 2.59171 5.10355 2.39645C4.90829 2.20118 4.59171 2.20118 4.39645 2.39645L1.14645 5.64645C0.951184 5.84171 0.951184 6.15829 1.14645 6.35355L4.39645 9.60355C4.59171 9.79882 4.90829 9.79882 5.10355 9.60355C5.29882 9.40829 5.29882 9.09171 5.10355 8.89645L2.20711 6L5.10355 3.10355ZM6.89645 3.10355C6.70118 2.90829 6.70118 2.59171 6.89645 2.39645C7.09171 2.20118 7.40829 2.20118 7.60355 2.39645L10.8536 5.64645C11.0488 5.84171 11.0488 6.15829 10.8536 6.35355L7.60355 9.60355C7.40829 9.79882 7.09171 9.79882 6.89645 9.60355C6.70118 9.40829 6.70118 9.09171 6.89645 8.89645L9.79289 6L6.89645 3.10355Z" fill="#18202A"/>
</svg>
