<svg width="12" height="12" viewBox="0 0 12 12" fill="none" xmlns="http://www.w3.org/2000/svg">
<path d="M11.7395 3.73032C11.8922 3.87021 11.8917 4.10831 11.7452 4.25476C11.5988 4.4012 11.3619 4.40047 11.2086 4.26123C9.83259 3.01156 8.00523 2.25 5.99999 2.25C3.99476 2.25 2.1674 3.01156 0.791357 4.26123C0.638039 4.40047 0.401195 4.40121 0.254748 4.25476C0.108302 4.10831 0.107755 3.87021 0.26048 3.73032C1.77272 2.3452 3.78765 1.5 5.99999 1.5C8.21233 1.5 10.2273 2.3452 11.7395 3.73032Z" fill="#18202A"/>
<path d="M9.9694 5.50059C10.1247 5.63767 10.1239 5.87608 9.97747 6.02252C9.83102 6.16897 9.59441 6.16784 9.43795 6.03215C8.51687 5.23339 7.31488 4.75 5.99999 4.75C4.6851 4.75 3.48311 5.23339 2.56204 6.03215C2.40557 6.16784 2.16896 6.16897 2.02252 6.02253C1.87607 5.87608 1.87533 5.63767 2.03058 5.5006C3.08836 4.5667 4.478 4 5.99999 4C7.52198 4 8.91162 4.5667 9.9694 5.50059Z" fill="#18202A"/>
<path d="M8.19609 7.27457C8.35728 7.40461 8.35615 7.64384 8.2097 7.79029C8.06325 7.93674 7.82713 7.93435 7.66223 7.80905C7.20054 7.45823 6.62458 7.25 5.99999 7.25C5.3754 7.25 4.79944 7.45823 4.33775 7.80905C4.17285 7.93435 3.93673 7.93674 3.79028 7.79029C3.64384 7.64385 3.6427 7.40461 3.80389 7.27457C4.40441 6.79007 5.16832 6.5 5.99999 6.5C6.83166 6.5 7.59558 6.79007 8.19609 7.27457Z" fill="#18202A"/>
<path d="M5.99999 11C6.55228 11 6.99999 10.5523 6.99999 10C6.99999 9.44772 6.55228 9 5.99999 9C5.44771 9 4.99999 9.44772 4.99999 10C4.99999 10.5523 5.44771 11 5.99999 11Z" fill="#18202A"/>
</svg>
