<svg width="12" height="12" viewBox="0 0 12 12" fill="none" xmlns="http://www.w3.org/2000/svg">
<path fill-rule="evenodd" clip-rule="evenodd" d="M8.50012 10C8.50012 9.72386 8.27626 9.5 8.00012 9.5H1.50012C1.22398 9.5 1.00012 9.72386 1.00012 10C1.00012 10.2761 1.22398 10.5 1.50012 10.5H8.00012C8.27626 10.5 8.50012 10.2761 8.50012 10Z" fill="#18202A"/>
<path fill-rule="evenodd" clip-rule="evenodd" d="M8.50012 2C8.50012 1.72386 8.27626 1.5 8.00012 1.5H1.50012C1.22398 1.5 1.00012 1.72386 1.00012 2C1.00012 2.27614 1.22398 2.5 1.50012 2.5H8.00012C8.27626 2.5 8.50012 2.27614 8.50012 2Z" fill="#18202A"/>
<path d="M8.64657 4.85355C8.45131 4.65829 8.45131 4.34171 8.64657 4.14645C8.84183 3.95118 9.15841 3.95118 9.35368 4.14645L10.8537 5.64645C10.9375 5.73022 10.9853 5.83634 10.9972 5.94562C11.006 6.02656 10.9951 6.10923 10.9644 6.18586C10.9437 6.23784 10.9138 6.28704 10.8749 6.33102C10.8672 6.33968 10.8593 6.34807 10.8511 6.35617L9.35368 7.85355C9.15841 8.04882 8.84183 8.04882 8.64657 7.85355C8.45131 7.65829 8.45131 7.34171 8.64657 7.14645L9.29347 6.49955L1.4999 6.49637C1.22375 6.49625 0.999989 6.2723 1.0001 5.99616C1.00021 5.72002 1.22416 5.49625 1.50031 5.49637L9.29256 5.49955L8.64657 4.85355Z" fill="#18202A"/>
</svg>
