<svg width="12" height="12" viewBox="0 0 12 12" fill="none" xmlns="http://www.w3.org/2000/svg">
<g clip-path="url(#clip0_2266_39888)">
<path fill-rule="evenodd" clip-rule="evenodd" d="M6 1.375C4.27325 1.375 2.767 2.32111 1.9722 3.72501L1.31954 3.35552C2.24203 1.72606 3.99219 0.625 6 0.625C8.96853 0.625 11.375 3.03147 11.375 6C11.375 8.96853 8.96853 11.375 6 11.375C3.03147 11.375 0.625 8.96853 0.625 6C0.625 5.72361 0.645892 5.4519 0.686229 5.1864C0.717338 4.98164 0.919298 4.8547 1.12138 4.90007C1.32345 4.94543 1.4489 5.14594 1.42012 5.35104C1.39039 5.56294 1.375 5.77958 1.375 6C1.375 8.55432 3.44568 10.625 6 10.625C8.55432 10.625 10.625 8.55432 10.625 6C10.625 3.44568 8.55432 1.375 6 1.375Z" fill="#18202A"/>
<path fill-rule="evenodd" clip-rule="evenodd" d="M1.24699 1.47774C1.45095 1.44178 1.64544 1.57797 1.68141 1.78193L1.92326 3.15354L3.29487 2.91168C3.49883 2.87572 3.69332 3.01191 3.72929 3.21587C3.76525 3.41983 3.62906 3.61433 3.4251 3.65029L1.68419 3.95726C1.48023 3.99322 1.28573 3.85703 1.24977 3.65307L0.9428 1.91216C0.906837 1.7082 1.04302 1.51371 1.24699 1.47774Z" fill="#18202A"/>
<path d="M5.625 2.875C5.625 2.66789 5.79289 2.5 6 2.5C6.20711 2.5 6.375 2.66789 6.375 2.875V6C6.375 6.20711 6.20711 6.375 6 6.375C5.79289 6.375 5.625 6.20711 5.625 6V2.875Z" fill="#18202A"/>
<path d="M8.625 5.625C8.83211 5.625 9 5.79289 9 6C9 6.20711 8.83211 6.375 8.625 6.375H6C5.79289 6.375 5.625 6.20711 5.625 6C5.625 5.79289 5.79289 5.625 6 5.625H8.625Z" fill="#18202A"/>
</g>
<defs>
<clipPath id="clip0_2266_39888">
<rect width="12" height="12" fill="white"/>
</clipPath>
</defs>
</svg>
