<svg width="12" height="12" viewBox="0 0 12 12" fill="none" xmlns="http://www.w3.org/2000/svg">
<g clip-path="url(#clip0_3352_8915)">
<path d="M6 6.5L5 5H4L5.5 7.25L4 9.5H5L6 8L7 9.5H8L6.5 7.25L8 5H7L6 6.5Z" fill="#18202A"/>
<path fill-rule="evenodd" clip-rule="evenodd" d="M1 1C1 0.447715 1.44772 0 2 0H7.83579C8.101 0 8.35536 0.105357 8.54289 0.292893L10.7071 2.45711C10.8946 2.64464 11 2.899 11 3.16421V11C11 11.5523 10.5523 12 10 12H2C1.44772 12 1 11.5523 1 11V1ZM2 11.25C1.86193 11.25 1.75 11.1381 1.75 11V1C1.75 0.861929 1.86193 0.75 2 0.75H7.50241L7.5 2.70304C7.5 2.91441 7.58391 3.11712 7.73326 3.26658C7.88261 3.41604 8.08518 3.5 8.2964 3.5L10.25 3.49752V11C10.25 11.1381 10.1381 11.25 10 11.25H2Z" fill="#18202A"/>
</g>
<defs>
<clipPath id="clip0_3352_8915">
<rect width="12" height="12" fill="white"/>
</clipPath>
</defs>
</svg>
