<svg width="12" height="12" viewBox="0 0 12 12" fill="none" xmlns="http://www.w3.org/2000/svg">
<g clip-path="url(#clip0_2266_37419)">
<path d="M0 4.98639C0 4.15796 0.671573 3.48639 1.5 3.48639H2V8.48639H1.5C0.671573 8.48639 0 7.81482 0 6.98639V4.98639Z" fill="#18202A"/>
<path d="M3 8.94339V3.02941L5.4067 0.829778C6.20889 0.0966102 7.5 0.665709 7.5 1.75247V10.2204C7.5 11.3072 6.20886 11.8763 5.40668 11.1431L3 8.94339Z" fill="#18202A"/>
<path d="M10.2653 3.53519C10.5091 3.40555 10.8118 3.49811 10.9415 3.74192C11.32 4.45389 11.518 5.27403 11.518 6.10659C11.518 6.93914 11.32 7.75929 10.9415 8.47125C10.8118 8.71507 10.5091 8.80763 10.2653 8.67799C10.0215 8.54835 9.92889 8.2456 10.0585 8.00178C10.3566 7.44128 10.518 6.78344 10.518 6.10659C10.518 5.42973 10.3566 4.7719 10.0585 4.2114C9.92889 3.96758 10.0215 3.66483 10.2653 3.53519Z" fill="#18202A"/>
<path d="M8.71969 4.39424C8.94836 4.23943 9.25923 4.2993 9.41404 4.52797C9.72678 4.9899 9.89095 5.55555 9.89095 6.12973C9.89095 6.70391 9.72678 7.26956 9.41404 7.7315C9.25923 7.96016 8.94836 8.02003 8.71969 7.86522C8.49103 7.71041 8.43116 7.39954 8.58597 7.17088C8.77903 6.88571 8.89095 6.51812 8.89095 6.12973C8.89095 5.74134 8.77903 5.37375 8.58597 5.08859C8.43116 4.85992 8.49103 4.54905 8.71969 4.39424Z" fill="#18202A"/>
</g>
<defs>
<clipPath id="clip0_2266_37419">
<rect width="12" height="12" fill="white"/>
</clipPath>
</defs>
</svg>
