<svg width="12" height="12" viewBox="0 0 12 12" fill="none" xmlns="http://www.w3.org/2000/svg">
<path fill-rule="evenodd" clip-rule="evenodd" d="M2.51957 10.2501H9.48045C10.4435 10.2501 11.0448 9.20698 10.5621 8.37365L7.08169 2.36425C6.60019 1.53288 5.39983 1.53288 4.91833 2.36425L1.43788 8.37365C0.955245 9.20698 1.55656 10.2501 2.51957 10.2501ZM9.48045 11.0001H2.51957C0.978754 11.0001 0.0166538 9.33109 0.788876 7.99776L4.26932 1.98836C5.03972 0.658175 6.96029 0.658175 7.7307 1.98837L11.2111 7.99776C11.9834 9.33109 11.0213 11.0001 9.48045 11.0001Z" fill="#18202A"/>
<path fill-rule="evenodd" clip-rule="evenodd" d="M6.00001 3.62512C6.20712 3.62512 6.37501 3.79301 6.37501 4.00012V6.50012C6.37501 6.70723 6.20712 6.87512 6.00001 6.87512C5.7929 6.87512 5.62501 6.70723 5.62501 6.50012V4.00012C5.62501 3.79301 5.7929 3.62512 6.00001 3.62512Z" fill="#18202A"/>
<path fill-rule="evenodd" clip-rule="evenodd" d="M5.62501 8.50012C5.62501 8.29301 5.7929 8.12512 6.00001 8.12512H6.00501C6.21212 8.12512 6.38001 8.29301 6.38001 8.50012C6.38001 8.70723 6.21212 8.87512 6.00501 8.87512H6.00001C5.7929 8.87512 5.62501 8.70723 5.62501 8.50012Z" fill="#18202A"/>
</svg>
