<svg width="12" height="12" viewBox="0 0 12 12" fill="none" xmlns="http://www.w3.org/2000/svg">
<g clip-path="url(#clip0_2266_39582)">
<path d="M6 0.5C9.03757 0.5 11.5 2.96243 11.5 6C11.5 9.03757 9.03757 11.5 6 11.5C2.96243 11.5 0.5 9.03757 0.5 6C0.5 2.96243 2.96243 0.5 6 0.5ZM7.44604 2.95306C7.05181 3.17431 6.94213 3.4118 7.01516 3.48483C7.44659 3.91626 7.7431 4.62176 7.7806 5.25923C7.8263 6.03602 7.47291 6.625 6.75 6.625C6.20351 6.625 6.1119 6.89984 6.35576 7.63141C6.51674 8.11436 6.23538 8.52547 5.74622 8.55898C5.37083 8.58471 4.92902 8.38921 4.53663 8.02477C4.36418 7.8646 4.28389 7.68456 4.17039 7.31775L4.10158 7.09677C4.00509 6.80015 3.91622 6.64396 3.79353 6.56305C3.07021 6.08601 2.64111 6.22247 2.12832 6.8465L1.85347 7.202L1.82278 7.2427L1.77606 7.30243C1.6934 7.40575 1.62605 7.47883 1.55442 7.53679L1.51443 7.56668C2.16178 9.42026 3.9256 10.75 6 10.75C6.10219 10.75 6.20363 10.7468 6.30422 10.7404L6.30324 10.7591C6.30324 10.4194 6.71644 9.51242 7.21321 8.94501C7.97118 8.07927 8.95784 7.79692 10.0704 8.36277L10.1096 8.38354C10.5168 7.68295 10.75 6.86871 10.75 6C10.75 4.82019 10.3199 3.74084 9.60785 2.91022L9.65151 2.92665C8.81317 2.59127 8.01155 2.63567 7.44604 2.95306ZM7.7775 9.43905C7.46319 9.79805 7.18095 10.3559 7.08661 10.6252C8.12222 10.3826 9.02673 9.80193 9.678 9.00603C8.92008 8.64177 8.31099 8.82971 7.7775 9.43905ZM6 1.25C3.37665 1.25 1.25 3.37665 1.25 6C1.25 6.2352 1.26709 6.4664 1.30011 6.69244L1.54887 6.37033C2.28011 5.48046 3.11277 5.21565 4.20645 5.93695C4.48371 6.11981 4.6421 6.3728 4.77817 6.75677L4.83875 6.93997L4.88688 7.09606C4.96009 7.33266 5.00715 7.43819 5.04703 7.47523C5.2491 7.66291 5.44982 7.77138 5.59619 7.80218L5.624 7.8065L5.61321 7.77131C5.28985 6.70946 5.56373 5.92245 6.64909 5.87707L6.75 5.875C6.9521 5.875 7.0554 5.70282 7.0319 5.30327C7.00691 4.87855 6.81473 4.39318 6.55194 4.08766L6.48484 4.01517C5.96237 3.4927 6.31584 2.72731 7.07897 2.29902C7.48163 2.07303 7.95986 1.94997 8.47498 1.94493C7.7541 1.50405 6.90672 1.25 6 1.25Z" fill="#18202A"/>
</g>
<defs>
<clipPath id="clip0_2266_39582">
<rect width="12" height="12" fill="white"/>
</clipPath>
</defs>
</svg>
