<svg width="12" height="12" viewBox="0 0 12 12" fill="none" xmlns="http://www.w3.org/2000/svg">
<path fill-rule="evenodd" clip-rule="evenodd" d="M3 2.25H2.5C2.08579 2.25 1.75 2.58579 1.75 3V3.5C1.75 3.91421 2.08579 4.25 2.5 4.25H3C3.41421 4.25 3.75 3.91421 3.75 3.5V3C3.75 2.58579 3.41421 2.25 3 2.25ZM2.5 1.5H3C3.82843 1.5 4.5 2.17157 4.5 3V3.5C4.5 4.32843 3.82843 5 3 5H2.5C1.67157 5 1 4.32843 1 3.5V3C1 2.17157 1.67157 1.5 2.5 1.5Z" fill="#18202A"/>
<path fill-rule="evenodd" clip-rule="evenodd" d="M3 7.75H2.5C2.08579 7.75 1.75 8.08579 1.75 8.5V9C1.75 9.41421 2.08579 9.75 2.5 9.75H3C3.41421 9.75 3.75 9.41421 3.75 9V8.5C3.75 8.08579 3.41421 7.75 3 7.75ZM2.5 7H3C3.82843 7 4.5 7.67157 4.5 8.5V9C4.5 9.82843 3.82843 10.5 3 10.5H2.5C1.67157 10.5 1 9.82843 1 9V8.5C1 7.67157 1.67157 7 2.5 7Z" fill="#18202A"/>
<path d="M5.5 2.375C5.5 2.16789 5.66789 2 5.875 2H10.625C10.8321 2 11 2.16789 11 2.375C11 2.58211 10.8321 2.75 10.625 2.75H5.875C5.66789 2.75 5.5 2.58211 5.5 2.375Z" fill="#18202A"/>
<path d="M5.5 4.125C5.5 3.91789 5.66789 3.75 5.875 3.75H10.625C10.8321 3.75 11 3.91789 11 4.125C11 4.33211 10.8321 4.5 10.625 4.5H5.875C5.66789 4.5 5.5 4.33211 5.5 4.125Z" fill="#18202A"/>
<path d="M5.5 7.875C5.5 7.66789 5.66789 7.5 5.875 7.5H10.625C10.8321 7.5 11 7.66789 11 7.875C11 8.08211 10.8321 8.25 10.625 8.25H5.875C5.66789 8.25 5.5 8.08211 5.5 7.875Z" fill="#18202A"/>
<path d="M5.5 9.625C5.5 9.41789 5.66789 9.25 5.875 9.25H10.625C10.8321 9.25 11 9.41789 11 9.625C11 9.83211 10.8321 10 10.625 10H5.875C5.66789 10 5.5 9.83211 5.5 9.625Z" fill="#18202A"/>
</svg>
