<svg width="12" height="12" viewBox="0 0 12 12" fill="none" xmlns="http://www.w3.org/2000/svg">
<g clip-path="url(#clip0_2266_40525)">
<path fill-rule="evenodd" clip-rule="evenodd" d="M5.5 1.375C3.22183 1.375 1.375 3.22183 1.375 5.5C1.375 7.623 2.97912 9.37185 5.0412 9.59981C5.24706 9.62256 5.39549 9.80789 5.37273 10.0137C5.34997 10.2196 5.16465 10.368 4.9588 10.3453C2.52093 10.0758 0.625 8.00955 0.625 5.5C0.625 2.80761 2.80761 0.625 5.5 0.625C8.00955 0.625 10.0758 2.52093 10.3453 4.9588C10.368 5.16465 10.2196 5.34997 10.0137 5.37273C9.80789 5.39549 9.62256 5.24706 9.59981 5.0412C9.37185 2.97912 7.623 1.375 5.5 1.375ZM5.5 3.375C4.3264 3.375 3.375 4.3264 3.375 5.5C3.375 6.3708 3.89885 7.12009 4.65014 7.44835C4.83992 7.53127 4.92655 7.75233 4.84363 7.94212C4.76071 8.1319 4.53964 8.21853 4.34986 8.13561C3.33525 7.69231 2.625 6.67952 2.625 5.5C2.625 3.91218 3.91218 2.625 5.5 2.625C6.67952 2.625 7.69231 3.33525 8.13561 4.34986C8.21853 4.53964 8.1319 4.76071 7.94212 4.84363C7.75233 4.92655 7.53127 4.83992 7.44835 4.65014C7.12009 3.89885 6.3708 3.375 5.5 3.375ZM7.37078 10.1428L6.07717 6.07715L10.1428 7.37076L9.14199 8.03796C9.04851 8.10028 8.98789 8.20123 8.97682 8.31303C8.96575 8.42483 9.00539 8.53571 9.08483 8.61515L10.9697 10.5L10.5 10.9697L8.61516 9.08482C8.53572 9.00538 8.42485 8.96574 8.31305 8.97681C8.20125 8.98788 8.1003 9.04849 8.03798 9.14197L7.37078 10.1428ZM6.07428 5.28918C5.59098 5.13541 5.13542 5.59097 5.2892 6.07427L6.73494 10.618C6.89384 11.1174 7.55985 11.2113 7.85055 10.7752L8.40828 9.9386L10.0581 11.5884C10.3021 11.8324 10.6979 11.8324 10.9419 11.5884L11.5884 10.9419C11.8325 10.6978 11.8325 10.3021 11.5884 10.058L9.93861 8.40827L10.7752 7.85053C11.2113 7.55983 11.1174 6.89382 10.618 6.73492L6.07428 5.28918Z" fill="#18202A"/>
</g>
<defs>
<clipPath id="clip0_2266_40525">
<rect width="12" height="12" fill="white"/>
</clipPath>
</defs>
</svg>
