<svg width="12" height="12" viewBox="0 0 12 12" fill="none" xmlns="http://www.w3.org/2000/svg">
<path fill-rule="evenodd" clip-rule="evenodd" d="M6 1.75C6.69036 1.75 7.25 2.30964 7.25 3H4.75C4.75 2.30964 5.30964 1.75 6 1.75ZM4 3C4 1.89543 4.89543 1 6 1C7.10457 1 8 1.89543 8 3L10 3C10.8284 3 11.5 3.67157 11.5 4.5V5.67407V6.46164V9.5C11.5 10.3284 10.8284 11 10 11H2C1.17157 11 0.5 10.3284 0.5 9.5V6.46165V5.67407V4.5C0.5 3.67157 1.17157 3 2 3L4 3ZM1.25 6.70203V9.5C1.25 9.91421 1.58579 10.25 2 10.25H10C10.4142 10.25 10.75 9.91421 10.75 9.5V6.70199L7.80817 7.64475L7.79824 7.64735C6.62162 7.95457 5.37788 7.95457 4.20126 7.64735L4.19133 7.64475L1.25 6.70203ZM10.75 5.91442L7.59897 6.92422C6.55275 7.19561 5.44677 7.19561 4.40054 6.92423L1.25 5.91445V4.5C1.25 4.08579 1.58579 3.75 2 3.75L4 3.75H8L10 3.75C10.4142 3.75 10.75 4.08579 10.75 4.5V5.91442ZM6.75 5.75C6.75 6.16421 6.41421 6.5 6 6.5C5.58579 6.5 5.25 6.16421 5.25 5.75C5.25 5.33579 5.58579 5 6 5C6.41421 5 6.75 5.33579 6.75 5.75Z" fill="#18202A"/>
</svg>
