<svg width="12" height="12" viewBox="0 0 12 12" fill="none" xmlns="http://www.w3.org/2000/svg">
<g clip-path="url(#clip0_2266_40008)">
<path fill-rule="evenodd" clip-rule="evenodd" d="M6 3.125C6.20711 3.125 6.375 3.29289 6.375 3.5V8.5C6.375 8.70711 6.20711 8.875 6 8.875C5.79289 8.875 5.625 8.70711 5.625 8.5V3.5C5.625 3.29289 5.79289 3.125 6 3.125Z" fill="#18202A"/>
<path fill-rule="evenodd" clip-rule="evenodd" d="M3.125 6C3.125 5.79289 3.29289 5.625 3.5 5.625H8.5C8.70711 5.625 8.875 5.79289 8.875 6C8.875 6.20711 8.70711 6.375 8.5 6.375H3.5C3.29289 6.375 3.125 6.20711 3.125 6Z" fill="#18202A"/>
<path fill-rule="evenodd" clip-rule="evenodd" d="M6 10.75C8.62335 10.75 10.75 8.62335 10.75 6C10.75 3.37665 8.62335 1.25 6 1.25C3.37665 1.25 1.25 3.37665 1.25 6C1.25 8.62335 3.37665 10.75 6 10.75ZM6 11.5C9.03757 11.5 11.5 9.03757 11.5 6C11.5 2.96243 9.03757 0.5 6 0.5C2.96243 0.5 0.5 2.96243 0.5 6C0.5 9.03757 2.96243 11.5 6 11.5Z" fill="#18202A"/>
</g>
<defs>
<clipPath id="clip0_2266_40008">
<rect width="12" height="12" fill="white"/>
</clipPath>
</defs>
</svg>
