<svg width="13" height="12" viewBox="0 0 13 12" fill="none" xmlns="http://www.w3.org/2000/svg">
<g clip-path="url(#clip0_2266_35497)">
<path fill-rule="evenodd" clip-rule="evenodd" d="M0.506451 3C0.506451 1.61929 1.62574 0.5 3.00645 0.5H9.00645C10.3872 0.5 11.5065 1.61929 11.5065 3V6.62731C10.9395 6.23188 10.2501 5.99998 9.50647 5.99998C7.57348 5.99998 6.00647 7.56698 6.00647 9.49998C6.00647 10.2436 6.23839 10.9331 6.63383 11.5H3.00645C1.62574 11.5 0.506451 10.3807 0.506451 9V3ZM3.50645 1.5V2.5H2.50645V1.5H3.50645ZM5.20637 4.3222C4.89834 4.13565 4.50645 4.35961 4.50645 4.72221V7.2728C4.50645 7.6354 4.89834 7.85936 5.20637 7.67281L7.31208 6.39752C7.61124 6.21633 7.61124 5.77868 7.31208 5.59749L5.20637 4.3222ZM2.50645 9.5V10.5H3.50645V9.5H2.50645ZM4.50645 1.5H5.50645V2.5H4.50645V1.5ZM5.50645 9.5H4.50645V10.5H5.50645V9.5ZM6.50645 1.5H7.50645V2.5H6.50645V1.5ZM9.50645 1.5V2.5H8.50645V1.5H9.50645Z" fill="#18202A"/>
<path fill-rule="evenodd" clip-rule="evenodd" d="M9.50651 12C10.8872 12 12.0065 10.8807 12.0065 9.5C12.0065 8.11929 10.8872 7 9.50651 7C8.1258 7 7.00651 8.11929 7.00651 9.5C7.00651 10.8807 8.1258 12 9.50651 12ZM9.00656 8.49998C9.00656 8.22384 9.23042 7.99998 9.50656 7.99998C9.7827 7.99998 10.0066 8.22384 10.0066 8.49998V8.99996H10.5065C10.7827 8.99996 11.0065 9.22381 11.0065 9.49996C11.0065 9.7761 10.7827 9.99996 10.5065 9.99996H10.0066V10.5C10.0066 10.7761 9.7827 11 9.50656 11C9.23042 11 9.00656 10.7761 9.00656 10.5V9.99996H8.50654C8.23039 9.99996 8.00654 9.7761 8.00654 9.49996C8.00654 9.22381 8.23039 8.99996 8.50654 8.99996H9.00656V8.49998Z" fill="#18202A"/>
</g>
<defs>
<clipPath id="clip0_2266_35497">
<rect width="12" height="12" fill="white" transform="translate(0.00646591)"/>
</clipPath>
</defs>
</svg>
