<svg width="12" height="12" viewBox="0 0 12 12" fill="none" xmlns="http://www.w3.org/2000/svg">
<path fill-rule="evenodd" clip-rule="evenodd" d="M2 0.5C1.79289 0.5 1.625 0.667893 1.625 0.875C1.625 1.08211 1.79289 1.25 2 1.25H2.5V2.07143C2.5 3.63124 3.4297 4.96357 4.74026 5.49342C4.8924 5.55493 5 5.69803 5 5.86214V6.13784C5 6.30195 4.8924 6.44505 4.74026 6.50656C3.4297 7.03641 2.5 8.36874 2.5 9.92855V10.75H2C1.79289 10.75 1.625 10.9179 1.625 11.125C1.625 11.3321 1.79289 11.5 2 11.5H10C10.2071 11.5 10.375 11.3321 10.375 11.125C10.375 10.9179 10.2071 10.75 10 10.75H9.5L9.5 9.92855C9.5 8.36874 8.5703 7.03641 7.25974 6.50656C7.1076 6.44505 7 6.30195 7 6.13784V5.86214C7 5.69803 7.1076 5.55493 7.25974 5.49342C8.5703 4.96357 9.5 3.63124 9.5 2.07143L9.5 1.25H10C10.2071 1.25 10.375 1.08211 10.375 0.875C10.375 0.667893 10.2071 0.5 10 0.5H2ZM5.02137 4.79809C4.00003 4.38517 3.25 3.33191 3.25 2.07143V1.25H8.75L8.75 2.07161C8.74993 3.33201 7.99992 4.38519 6.97863 4.79809C6.57647 4.96068 6.25 5.35789 6.25 5.86214V6.13784C6.25 6.64209 6.57647 7.03929 6.97863 7.20188C7.99992 7.61479 8.74993 8.66815 8.75 9.92855L8.75 10.75H3.25V9.92855C3.25 8.66807 4.00003 7.61481 5.02137 7.20188C5.42353 7.03929 5.75 6.64209 5.75 6.13784V5.86214C5.75 5.35789 5.42353 4.96068 5.02137 4.79809Z" fill="#18202A"/>
</svg>
