<svg width="12" height="12" viewBox="0 0 12 12" fill="none" xmlns="http://www.w3.org/2000/svg">
<g clip-path="url(#clip0_2266_37311)">
<path fill-rule="evenodd" clip-rule="evenodd" d="M3.5 0.5C1.84315 0.5 0.5 1.84315 0.5 3.5V8.5C0.5 10.1569 1.84315 11.5 3.5 11.5H8.5C10.1569 11.5 11.5 10.1569 11.5 8.5V3.5C11.5 1.84315 10.1569 0.5 8.5 0.5H3.5ZM6 4C6 4.82843 5.32843 5.5 4.5 5.5C3.67157 5.5 3 4.82843 3 4C3 3.17157 3.67157 2.5 4.5 2.5C5.32843 2.5 6 3.17157 6 4ZM8.25 5.5L10.5 8.36364V8.5C10.5 9.60457 9.60457 10.5 8.5 10.5H3.5C2.81115 10.5 2.20363 10.1517 1.84392 9.62169L4 7.25L5.5 8.5L8.25 5.5Z" fill="#18202A"/>
</g>
<defs>
<clipPath id="clip0_2266_37311">
<rect width="12" height="12" fill="white"/>
</clipPath>
</defs>
</svg>
