<svg width="12" height="12" viewBox="0 0 12 12" fill="none" xmlns="http://www.w3.org/2000/svg">
<g clip-path="url(#clip0_3394_8868)">
<g clip-path="url(#clip1_3394_8868)">
<path d="M9.25006 3.25C9.25006 3.52614 9.0262 3.75 8.75006 3.75C8.47392 3.75 8.25006 3.52614 8.25006 3.25C8.25006 2.97386 8.47392 2.75 8.75006 2.75C9.0262 2.75 9.25006 2.97386 9.25006 3.25Z" fill="#18202A"/>
<path fill-rule="evenodd" clip-rule="evenodd" d="M8.34823 0.5C8.18197 0.5 8.03865 0.61697 8.00533 0.779861L7.92867 1.15465C7.71721 1.23761 7.52135 1.35166 7.34672 1.49117L6.98323 1.36998C6.82551 1.31738 6.65255 1.38302 6.56942 1.527L6.16757 2.22302C6.08444 2.36701 6.11408 2.54961 6.23849 2.65991L6.52501 2.91394C6.50859 3.02357 6.50008 3.13579 6.50008 3.25C6.50008 3.36422 6.50859 3.47644 6.52501 3.58608L6.2385 3.8401C6.11409 3.9504 6.08445 4.133 6.16758 4.27699L6.56943 4.97301C6.65256 5.117 6.82552 5.18263 6.98325 5.13004L7.34674 5.00884C7.52136 5.14835 7.71721 5.26239 7.92867 5.34535L8.00533 5.72014C8.03865 5.88303 8.18197 6 8.34823 6H9.15192C9.31819 6 9.4615 5.88303 9.49482 5.72014L9.57148 5.34535C9.78294 5.2624 9.97879 5.14835 10.1534 5.00885L10.5169 5.13005C10.6746 5.18264 10.8476 5.11701 10.9307 4.97302L11.3326 4.27701C11.4157 4.13302 11.386 3.95041 11.2616 3.84011L10.9751 3.58611C10.9916 3.47646 11.0001 3.36422 11.0001 3.25C11.0001 3.13578 10.9916 3.02355 10.9751 2.91391L11.2617 2.6599C11.3861 2.5496 11.4157 2.367 11.3326 2.22301L10.9307 1.52699C10.8476 1.383 10.6746 1.31737 10.5169 1.36996L10.1534 1.49116C9.9788 1.35165 9.78295 1.23761 9.57148 1.15465L9.49482 0.779861C9.4615 0.61697 9.31819 0.5 9.15192 0.5H8.34823ZM10.0001 3.25C10.0001 3.94036 9.44042 4.5 8.75006 4.5C8.05971 4.5 7.50006 3.94036 7.50006 3.25C7.50006 2.55964 8.05971 2 8.75006 2C9.44042 2 10.0001 2.55964 10.0001 3.25Z" fill="#18202A"/>
<path d="M4.00006 8.75C4.41427 8.75 4.75006 8.41421 4.75006 8C4.75006 7.58579 4.41427 7.25 4.00006 7.25C3.58585 7.25 3.25006 7.58579 3.25006 8C3.25006 8.41421 3.58585 8.75 4.00006 8.75Z" fill="#18202A"/>
<path fill-rule="evenodd" clip-rule="evenodd" d="M3.05115 4.53301C3.0832 4.36864 3.2272 4.25 3.39467 4.25H4.60549C4.77296 4.25 4.91697 4.36864 4.94902 4.53301L5.07906 5.19988C5.37273 5.31312 5.6441 5.47122 5.88478 5.66579L6.52811 5.4447C6.68649 5.39027 6.86123 5.45567 6.94497 5.6007L7.55038 6.6493C7.63411 6.79433 7.60337 6.97836 7.47705 7.08831L6.96421 7.53465C6.98782 7.68631 7.00008 7.84172 7.00008 8C7.00008 8.15831 6.98782 8.31375 6.96419 8.46544L7.47701 8.91175C7.60333 9.0217 7.63407 9.20573 7.55034 9.35077L6.94493 10.3994C6.86119 10.5444 6.68645 10.6098 6.52807 10.5554L5.88471 10.3343C5.64405 10.5288 5.3727 10.6869 5.07906 10.8001L4.94902 11.467C4.91697 11.6314 4.77296 11.75 4.60549 11.75H3.39468C3.2272 11.75 3.0832 11.6314 3.05115 11.467L2.92111 10.8001C2.62743 10.6869 2.35606 10.5288 2.11539 10.3342L1.47205 10.5553C1.31367 10.6097 1.13892 10.5443 1.05519 10.3993L0.449778 9.3507C0.366042 9.20567 0.396782 9.02164 0.523109 8.91169L1.03596 8.46534C1.01234 8.31369 1.00008 8.15828 1.00008 8C1.00008 7.84175 1.01233 7.68637 1.03594 7.53475L0.523069 7.08837C0.396742 6.97843 0.366003 6.7944 0.449739 6.64936L1.05515 5.60077C1.13888 5.45573 1.31363 5.39034 1.47201 5.44477L2.11532 5.66585C2.35601 5.47125 2.62741 5.31313 2.92111 5.19988L3.05115 4.53301ZM4.00006 9.75C4.96656 9.75 5.75006 8.9665 5.75006 8C5.75006 7.0335 4.96656 6.25 4.00006 6.25C3.03356 6.25 2.25006 7.0335 2.25006 8C2.25006 8.9665 3.03356 9.75 4.00006 9.75Z" fill="#18202A"/>
</g>
</g>
<defs>
<clipPath id="clip0_3394_8868">
<rect width="12" height="12" fill="white"/>
</clipPath>
<clipPath id="clip1_3394_8868">
<rect width="12" height="12" fill="white"/>
</clipPath>
</defs>
</svg>
