<svg width="12" height="12" viewBox="0 0 12 12" fill="none" xmlns="http://www.w3.org/2000/svg">
<g clip-path="url(#clip0_2414_8645)">
<path fill-rule="evenodd" clip-rule="evenodd" d="M1.26023 5.81979V5.84545C1.26023 7.34009 1.84941 8.4619 2.75765 9.19772L3.00635 9.39921L3.10833 10.6229L4.38214 10.035L4.63411 10.0947C4.91132 10.1603 5.20073 10.2058 5.5 10.2299V10.5C5.5 10.6676 5.52063 10.8305 5.55948 10.9861C5.18134 10.9622 4.81399 10.908 4.46133 10.8245L3.09838 11.4536C2.78324 11.599 2.4194 11.387 2.39058 11.0411L2.28552 9.78047C1.19411 8.89625 0.510226 7.5566 0.510226 5.84545C0.314005 2.98182 2.97037 0.5 6.00511 0.5C9.03986 0.5 11.5 2.6 11.5 5.84545C11.5 6.17703 11.4684 6.5038 11.407 6.82209C11.287 6.39524 11.0566 6.01464 10.7484 5.7131C10.6837 3.003 8.63068 1.25 6.00511 1.25C3.32295 1.25 1.09726 3.4415 1.25847 5.79418L1.26023 5.81979ZM10.5 7.75C11.0523 7.75 11.5 8.19772 11.5 8.75V10.5C11.5 11.0523 11.0523 11.5 10.5 11.5H7.5C6.94772 11.5 6.5 11.0523 6.5 10.5V8.75C6.5 8.19772 6.94772 7.75 7.5 7.75V7.5C7.5 6.67157 8.17157 6 9 6C9.82843 6 10.5 6.67157 10.5 7.5V7.75ZM10 7.5C10 6.94772 9.55228 6.5 9 6.5C8.44772 6.5 8 6.94772 8 7.5V7.75H10V7.5ZM9.5 9.25C9.5 9.43507 9.39945 9.59666 9.25 9.68311V10.25C9.25 10.3881 9.13807 10.5 9 10.5C8.86193 10.5 8.75 10.3881 8.75 10.25V9.68311C8.60055 9.59666 8.5 9.43507 8.5 9.25C8.5 8.97386 8.72386 8.75 9 8.75C9.27614 8.75 9.5 8.97386 9.5 9.25Z" fill="#18202A"/>
</g>
<defs>
<clipPath id="clip0_2414_8645">
<rect width="12" height="12" fill="white"/>
</clipPath>
</defs>
</svg>
