<svg width="12" height="12" viewBox="0 0 12 12" fill="none" xmlns="http://www.w3.org/2000/svg">
<path fill-rule="evenodd" clip-rule="evenodd" d="M4.90901 2.46967L5.68934 3.25H9.5C10.1904 3.25 10.75 3.80964 10.75 4.5H1.25V3.5C1.25 2.80964 1.80964 2.25 2.5 2.25H4.37868C4.57759 2.25 4.76836 2.32902 4.90901 2.46967ZM1.25 5V8.5C1.25 9.19036 1.80964 9.75 2.5 9.75H6.25947C6.27923 10.0097 6.32952 10.2609 6.40675 10.5H2.5C1.39543 10.5 0.5 9.60457 0.5 8.5V3.5C0.5 2.39543 1.39543 1.5 2.5 1.5H4.37868C4.7765 1.5 5.15804 1.65804 5.43934 1.93934L6 2.5H9.5C10.6046 2.5 11.5 3.39543 11.5 4.5V6.93808C11.2724 6.76013 11.0204 6.61186 10.75 6.49908V5H1.25ZM12 9.5C12 10.8807 10.8807 12 9.5 12C8.11929 12 7 10.8807 7 9.5C7 8.11929 8.11929 7 9.5 7C10.8807 7 12 8.11929 12 9.5ZM8 9.5C8 9.29289 8.16789 9.125 8.375 9.125H10.625C10.8321 9.125 11 9.29289 11 9.5C11 9.70711 10.8321 9.875 10.625 9.875H8.375C8.16789 9.875 8 9.70711 8 9.5Z" fill="#18202A"/>
</svg>
