<svg width="12" height="12" viewBox="0 0 12 12" fill="none" xmlns="http://www.w3.org/2000/svg">
<path fill-rule="evenodd" clip-rule="evenodd" d="M8.5 1.75H3C2.0335 1.75 1.25 2.5335 1.25 3.5V8C1.25 8.9665 2.0335 9.75 3 9.75H5.375C5.58211 9.75 5.75 9.91789 5.75 10.125C5.75 10.3321 5.58211 10.5 5.375 10.5H3C1.61929 10.5 0.5 9.38071 0.5 8V3.5C0.5 2.11929 1.61929 1 3 1H8.5C9.88071 1 11 2.11929 11 3.5V4.875C11 5.08211 10.8321 5.25 10.625 5.25C10.4179 5.25 10.25 5.08211 10.25 4.875V3.5C10.25 2.5335 9.4665 1.75 8.5 1.75ZM8 6.75H10C10.4142 6.75 10.75 7.08579 10.75 7.5V9.5C10.75 9.91421 10.4142 10.25 10 10.25H8C7.58579 10.25 7.25 9.91421 7.25 9.5V7.5C7.25 7.08579 7.58579 6.75 8 6.75ZM6.5 7.5C6.5 6.67157 7.17157 6 8 6H10C10.8284 6 11.5 6.67157 11.5 7.5V9.5C11.5 10.3284 10.8284 11 10 11H8C7.17157 11 6.5 10.3284 6.5 9.5V7.5Z" fill="#18202A"/>
</svg>
