<svg width="12" height="12" viewBox="0 0 12 12" fill="none" xmlns="http://www.w3.org/2000/svg">
<g clip-path="url(#clip0_2266_36692)">
<path fill-rule="evenodd" clip-rule="evenodd" d="M11.5 5.84545C11.5 6.09712 11.4818 6.34602 11.4462 6.59054C10.8897 6.21756 10.2203 6 9.5 6C9.30937 6 9.1223 6.01524 8.93994 6.04457C8.9786 5.95414 9 5.85457 9 5.75C9 5.33579 8.66421 5 8.25 5C7.83579 5 7.5 5.33579 7.5 5.75C7.5 6.02747 7.65068 6.26975 7.87467 6.39947C6.76015 6.98492 6 8.15369 6 9.5C6 10.0337 6.11945 10.5395 6.33308 10.9921C6.22508 10.9973 6.11574 11 6.00512 11C5.46914 11 4.95108 10.9404 4.46133 10.8245L3.09838 11.4536C2.78324 11.599 2.4194 11.387 2.39058 11.0411L2.28552 9.78047C1.19411 8.89625 0.510226 7.5566 0.510226 5.84545C0.314005 2.98182 2.97037 0.5 6.00511 0.5C9.03986 0.5 11.5 2.6 11.5 5.84545ZM3.75 6.5C4.16421 6.5 4.5 6.16421 4.5 5.75C4.5 5.33579 4.16421 5 3.75 5C3.33579 5 3 5.33579 3 5.75C3 6.16421 3.33579 6.5 3.75 6.5ZM6 6.5C6.41421 6.5 6.75 6.16421 6.75 5.75C6.75 5.33579 6.41421 5 6 5C5.58579 5 5.25 5.33579 5.25 5.75C5.25 6.16421 5.58579 6.5 6 6.5ZM12 9.5C12 10.8807 10.8807 12 9.5 12C8.11929 12 7 10.8807 7 9.5C7 8.11929 8.11929 7 9.5 7C10.8807 7 12 8.11929 12 9.5ZM9.5 8C9.22386 8 9 8.22386 9 8.5V9H8.5C8.22386 9 8 9.22386 8 9.5C8 9.77614 8.22386 10 8.5 10H9V10.5C9 10.7761 9.22386 11 9.5 11C9.77614 11 10 10.7761 10 10.5V10H10.5C10.7761 10 11 9.77614 11 9.5C11 9.22386 10.7761 9 10.5 9H10V8.5C10 8.22386 9.77614 8 9.5 8Z" fill="#18202A"/>
</g>
<defs>
<clipPath id="clip0_2266_36692">
<rect width="12" height="12" fill="white"/>
</clipPath>
</defs>
</svg>
