<svg width="12" height="12" viewBox="0 0 12 12" fill="none" xmlns="http://www.w3.org/2000/svg">
<path fill-rule="evenodd" clip-rule="evenodd" d="M2.94976 8.39773L3.03091 9.38438C3.06929 9.85098 3.57699 10.1564 4.02518 9.94996C6.00909 9.03631 7.90119 7.88101 9.61566 6.52999C9.95852 6.25982 9.95852 5.74014 9.61566 5.46997C7.90119 4.11894 6.00909 2.96364 4.02518 2.05C3.57699 1.84359 3.06929 2.14897 3.03091 2.61558L2.94976 3.60223C2.8185 5.19804 2.8185 6.80192 2.94976 8.39773ZM4.33891 1.36877C3.42925 0.949846 2.36553 1.55598 2.28344 2.5541L2.20228 3.54075C2.06766 5.17747 2.06766 6.82248 2.20229 8.45921L2.28344 9.44586C2.36553 10.444 3.42925 11.0501 4.33891 10.6312C6.37581 9.69314 8.3185 8.50705 10.0799 7.11907C10.8038 6.54862 10.8038 5.45134 10.0799 4.88089C8.3185 3.49291 6.37581 2.30681 4.33891 1.36877Z" fill="#18202A"/>
</svg>
