<svg width="12" height="12" viewBox="0 0 12 12" fill="none" xmlns="http://www.w3.org/2000/svg">
<g clip-path="url(#clip0_2266_41128)">
<path fill-rule="evenodd" clip-rule="evenodd" d="M3 1.25H9C9.13807 1.25 9.25 1.36193 9.25 1.5V2H8.875H8.125H6.375H5.625H3.875H3.125H2.75V1.5C2.75 1.36193 2.86193 1.25 3 1.25ZM2 2V1.5C2 0.947715 2.44772 0.5 3 0.5H9C9.55228 0.5 10 0.947715 10 1.5V2H10.375C10.9273 2 11.375 2.44772 11.375 3V4.5C11.375 4.88418 11.2306 5.23462 10.9931 5.5H11V9.5C11 10.6046 10.1046 11.5 9 11.5L8 11.5H4L3 11.5C1.89543 11.5 1 10.6046 1 9.5V5.5H1.00695C0.769427 5.23462 0.625 4.88418 0.625 4.5V3C0.625 2.44772 1.07272 2 1.625 2H2ZM1.75 5.95274V9.5C1.75 10.1904 2.30964 10.75 3 10.75H4V8.5C4 7.67157 4.67157 7 5.5 7H6.5C7.32843 7 8 7.67157 8 8.5V10.75H9C9.69036 10.75 10.25 10.1904 10.25 9.5V5.95274C10.1301 5.98359 10.0045 6 9.875 6H9.625C9.17699 6 8.77485 5.80359 8.5 5.49218C8.22515 5.80359 7.82301 6 7.375 6H7.125C6.67699 6 6.27485 5.80359 6 5.49218C5.72515 5.80359 5.32301 6 4.875 6H4.625C4.17699 6 3.77485 5.80359 3.5 5.49218C3.22515 5.80359 2.82301 6 2.375 6H2.125C1.99551 6 1.86986 5.98359 1.75 5.95274ZM7.25 10.75V8.5C7.25 8.08579 6.91421 7.75 6.5 7.75H5.5C5.08579 7.75 4.75 8.08579 4.75 8.5V10.75H7.25ZM10 2.75H8.875V4.5C8.875 4.91421 9.21079 5.25 9.625 5.25H9.875C10.2892 5.25 10.625 4.91421 10.625 4.5V3C10.625 2.86193 10.5131 2.75 10.375 2.75H10ZM8.125 2.75H6.375L6.375 4.5C6.375 4.91421 6.71079 5.25 7.125 5.25H7.375C7.78921 5.25 8.125 4.91421 8.125 4.5V2.75ZM5.625 2.75H3.875V4.5C3.875 4.91421 4.21079 5.25 4.625 5.25H4.875C5.28921 5.25 5.625 4.91421 5.625 4.5V2.75ZM3.125 2.75H2H1.625C1.48693 2.75 1.375 2.86193 1.375 3V4.5C1.375 4.91421 1.71079 5.25 2.125 5.25H2.375C2.78921 5.25 3.125 4.91421 3.125 4.5V2.75Z" fill="#18202A"/>
</g>
<defs>
<clipPath id="clip0_2266_41128">
<rect width="12" height="12" fill="white"/>
</clipPath>
</defs>
</svg>
