<svg width="12" height="12" viewBox="0 0 12 12" fill="none" xmlns="http://www.w3.org/2000/svg">
<g clip-path="url(#clip0_2266_36717)">
<path d="M5.00774 10.9287C4.97576 10.5924 5.04163 10.239 5.22831 9.90902L7.51188 5.8724C8.16992 4.7092 9.83008 4.7092 10.4881 5.8724L11.2923 7.29396C11.4288 6.83027 11.5 6.34327 11.5 5.84545C11.5 2.6 9.03986 0.5 6.00511 0.5C2.97037 0.5 0.314005 2.98182 0.510226 5.84545C0.510226 7.5566 1.19411 8.89625 2.28552 9.78047L2.39058 11.0411C2.4194 11.387 2.78324 11.599 3.09838 11.4536L4.46133 10.8245C4.63987 10.8668 4.82218 10.9015 5.00774 10.9287Z" fill="#18202A"/>
<path fill-rule="evenodd" clip-rule="evenodd" d="M11.3987 11.5H6.60132C6.14021 11.5 5.85119 10.9921 6.0801 10.584L8.47878 6.30823C8.70933 5.89726 9.29067 5.89726 9.52122 6.30823L11.9199 10.584C12.1488 10.9921 11.8598 11.5 11.3987 11.5ZM9 7.5C8.72386 7.5 8.5 7.72386 8.5 8V9C8.5 9.27614 8.72386 9.5 9 9.5C9.27614 9.5 9.5 9.27614 9.5 9V8C9.5 7.72386 9.27614 7.5 9 7.5ZM9 10C8.72386 10 8.5 10.2239 8.5 10.5C8.5 10.7761 8.72386 11 9 11C9.27614 11 9.5 10.7761 9.5 10.5C9.5 10.2239 9.27614 10 9 10Z" fill="#18202A"/>
</g>
<defs>
<clipPath id="clip0_2266_36717">
<rect width="12" height="12" fill="white"/>
</clipPath>
</defs>
</svg>
