<svg width="12" height="12" viewBox="0 0 12 12" fill="none" xmlns="http://www.w3.org/2000/svg">
<path fill-rule="evenodd" clip-rule="evenodd" d="M11 4.00049V3.99951C10.9999 3.87171 10.9511 3.74395 10.8536 3.64645L10.3618 3.15465C10.3565 3.14918 10.3512 3.14381 10.3457 3.13855L8.86144 1.65434C8.85619 1.64884 8.85083 1.64347 8.84536 1.63825L8.35355 1.14645C8.15829 0.951184 7.84171 0.951184 7.64645 1.14645C7.45118 1.34171 7.45118 1.65829 7.64645 1.85355L7.67393 1.88104L2.76548 4.55838L2.35355 4.14645C2.15829 3.95118 1.84171 3.95118 1.64645 4.14645C1.45118 4.34171 1.45118 4.65829 1.64645 4.85355L4.04289 7.25L2.14645 9.14645C1.95118 9.34171 1.95118 9.65829 2.14645 9.85355C2.34171 10.0488 2.65829 10.0488 2.85355 9.85355L4.75 7.95711L7.14645 10.3536C7.34171 10.5488 7.65829 10.5488 7.85355 10.3536C8.04882 10.1583 8.04882 9.84171 7.85355 9.64645L7.44162 9.23452L10.119 4.32607L10.1464 4.35355C10.3417 4.54882 10.6583 4.54882 10.8536 4.35355C10.9511 4.25605 10.9999 4.12829 11 4.00049Z" fill="#18202A"/>
</svg>
