<svg width="12" height="12" viewBox="0 0 12 12" fill="none" xmlns="http://www.w3.org/2000/svg">
<path d="M7.80306 7.75728L7.79741 7.76294C7.77018 7.79017 7.7481 7.81225 7.72773 7.83173C6.76127 8.75584 5.23874 8.75584 4.27227 7.83173C4.25187 7.81222 4.2298 7.79014 4.2025 7.76284L4.17695 7.73732L4.17291 7.73334C4.07631 7.64112 3.92399 7.64084 3.82738 7.73306L3.82306 7.73732L3.64144 7.91891C3.47817 8.08218 3.34107 8.21928 3.22917 8.32329C3.123 8.42199 2.99009 8.53878 2.8383 8.62162C2.22702 8.9552 1.52098 8.88338 1 8.52207V10.2495C1 10.6637 1.33579 10.9995 1.75 10.9995H10.25C10.6642 10.9995 11 10.6637 11 10.2495V8.52207C10.479 8.88338 9.77298 8.9552 9.16171 8.62162C9.00991 8.53878 8.87701 8.42199 8.77083 8.32329C8.65893 8.21928 8.52186 8.08221 8.35859 7.91893L8.19818 7.75852L8.19685 7.75721L8.17693 7.73731L8.1726 7.73304C8.076 7.64085 7.924 7.64085 7.8274 7.73304L7.82306 7.73732L7.80306 7.75728Z" fill="#18202A"/>
<path d="M8.50805 3.99966H3.49195C3.03479 3.99966 2.80621 3.99966 2.61602 4.03687C1.81763 4.19306 1.19339 4.81729 1.03721 5.61568C1 5.80587 1 6.03567 1 6.49527C1 6.98466 1 7.22936 1.04058 7.36743C1.2204 7.97926 1.91925 8.26873 2.47903 7.96325C2.60535 7.89431 2.77734 7.72232 3.12132 7.37834L3.27273 7.22694C3.29145 7.20821 3.30081 7.19885 3.30891 7.19111C3.69549 6.82147 4.30451 6.82147 4.69109 7.19111C4.69919 7.19885 4.70855 7.20821 4.72727 7.22694C4.76004 7.2597 4.77642 7.27608 4.79059 7.28963C5.46711 7.93651 6.53289 7.93651 7.20941 7.28963C7.22357 7.27609 7.23999 7.25968 7.27273 7.22694C7.29145 7.20821 7.30081 7.19885 7.30891 7.19111C7.69549 6.82147 8.30451 6.82147 8.69109 7.19111C8.69918 7.19884 8.7086 7.20826 8.72727 7.22694L8.87868 7.37834C9.22266 7.72232 9.39465 7.89431 9.52097 7.96325C10.0808 8.26873 10.7796 7.97926 10.9594 7.36743C11 7.22936 11 6.98466 11 6.49527C11 6.03567 11 5.80587 10.9628 5.61568C10.8066 4.81729 10.1824 4.19306 9.38398 4.03687C9.19379 3.99966 8.96521 3.99966 8.50805 3.99966Z" fill="#18202A"/>
<path d="M5.29289 3.20335C4.90237 2.81283 4.90237 2.17966 5.29289 1.78914L6 1.08203L6.70711 1.78914C7.09763 2.17966 7.09763 2.81283 6.70711 3.20335C6.31658 3.59388 5.68342 3.59388 5.29289 3.20335Z" fill="#18202A"/>
</svg>
