<svg width="12" height="12" viewBox="0 0 12 12" fill="none" xmlns="http://www.w3.org/2000/svg">
<g clip-path="url(#clip0_3444_9143)">
<path fill-rule="evenodd" clip-rule="evenodd" d="M8.76517 1.23499C8.06643 0.536255 6.93357 0.536254 6.23484 1.23499L5.98667 1.48315L1.24209 5.97801C1.19036 6.02703 1.15366 6.08977 1.1363 6.15889L0.517234 8.62356C0.430561 8.96863 0.740043 9.28298 1.08642 9.20171L3.58566 8.61533C3.65028 8.60017 3.70972 8.56813 3.7579 8.52248L8.5079 4.02248C8.50868 4.02174 8.50946 4.021 8.51023 4.02025C8.51357 4.01703 8.51685 4.01375 8.52006 4.01042L8.76517 3.76532C9.4639 3.06658 9.4639 1.93372 8.76517 1.23499ZM6.78048 1.7503L8.24985 3.21967C8.64061 2.81276 8.63561 2.16609 8.23483 1.76532C7.83406 1.36454 7.18739 1.35954 6.78048 1.7503ZM1.35461 8.36842L1.83712 6.44743L6.24293 2.2735L7.71241 3.74298L3.31567 7.90831L1.35461 8.36842Z" fill="#18202A"/>
<path d="M6.34468 8.60253C6.28864 8.47177 6.16344 8.38398 6.02141 8.37586C5.87938 8.36774 5.74499 8.44068 5.67441 8.56419L5.03431 9.68437C4.87852 9.957 4.5886 10.1252 4.2746 10.1252H0.875C0.667893 10.1252 0.5 10.2931 0.5 10.5002C0.5 10.7074 0.667893 10.8752 0.875 10.8752H4.2746C4.85774 10.8752 5.39617 10.5628 5.68549 10.0565L5.95197 9.59014L6.21051 10.1934C6.38778 10.607 6.79452 10.8752 7.24455 10.8752H7.25545C7.70548 10.8752 8.11222 10.607 8.28949 10.1934L8.54803 9.59014L8.81451 10.0565C9.10383 10.5628 9.64226 10.8752 10.2254 10.8752H11.125C11.3321 10.8752 11.5 10.7074 11.5 10.5002C11.5 10.2931 11.3321 10.1252 11.125 10.1252H10.2254C9.9114 10.1252 9.62148 9.957 9.46569 9.68437L8.82559 8.56419C8.75501 8.44068 8.62062 8.36774 8.47859 8.37586C8.33656 8.38398 8.21136 8.47177 8.15532 8.60253L7.60013 9.89797C7.54104 10.0358 7.40546 10.1252 7.25545 10.1252H7.24455C7.09454 10.1252 6.95896 10.0358 6.89987 9.89797L6.34468 8.60253Z" fill="#18202A"/>
</g>
<defs>
<clipPath id="clip0_3444_9143">
<rect width="12" height="12" fill="white"/>
</clipPath>
</defs>
</svg>
