<svg width="12" height="12" viewBox="0 0 12 12" fill="none" xmlns="http://www.w3.org/2000/svg">
<g clip-path="url(#clip0_2266_37401)">
<path fill-rule="evenodd" clip-rule="evenodd" d="M0.5 2.5C0.5 1.39543 1.39543 0.5 2.5 0.5H3L1.5 2.5H0.5ZM2.75 2.5L4.25 0.5H6L4.5 2.5H2.75ZM5.75 2.5L7.25 0.5H9L7.5 2.5H5.75ZM8.75 2.5L10.1651 0.61324C10.9427 0.887346 11.5 1.62859 11.5 2.5H8.75ZM0.5 9.5V3.5H11.5V9.5C11.5 10.6046 10.6046 11.5 9.5 11.5H2.5C1.39543 11.5 0.5 10.6046 0.5 9.5ZM5.19992 5.8222C4.89189 5.63565 4.5 5.85962 4.5 6.22221V8.7728C4.5 9.1354 4.89189 9.35936 5.19992 9.17281L7.30563 7.89752C7.60479 7.71633 7.60479 7.27868 7.30562 7.09749L5.19992 5.8222Z" fill="#18202A"/>
</g>
<defs>
<clipPath id="clip0_2266_37401">
<rect width="12" height="12" fill="white"/>
</clipPath>
</defs>
</svg>
