<svg width="12" height="12" viewBox="0 0 12 12" fill="none" xmlns="http://www.w3.org/2000/svg">
<g clip-path="url(#clip0_2414_8765)">
<path fill-rule="evenodd" clip-rule="evenodd" d="M11.3305 7.36037C11.4412 6.9253 11.5 6.46952 11.5 6C11.5 2.96243 9.03757 0.5 6 0.5C2.96243 0.5 0.5 2.96243 0.5 6C0.5 9.03757 2.96243 11.5 6 11.5C6.18747 11.5 6.37275 11.4906 6.55539 11.4723C6.15228 11.0768 6.11281 10.3543 6.65194 9.95C6.71489 9.90279 6.75194 9.82869 6.75194 9.75V8.90832C6.50739 8.96906 6.25447 9 6 9C5.52194 9 5.04931 8.89081 4.62746 8.67989C4.20547 8.46889 3.84499 8.16126 3.58653 7.78114C3.43126 7.55278 3.49051 7.24179 3.71887 7.08652C3.94722 6.93126 4.25821 6.99051 4.41348 7.21886C4.56982 7.4488 4.79572 7.64599 5.07467 7.78546C5.35375 7.925 5.67274 8 6 8C6.32726 8 6.64626 7.925 6.92534 7.78546C6.93365 7.7813 6.94191 7.7771 6.95013 7.77284C7.33062 6.87771 8.21798 6.25 9.25195 6.25C10.1184 6.25 10.8819 6.6908 11.3305 7.36037ZM4.25 6C4.66422 6 5 5.55228 5 5C5 4.44772 4.66422 4 4.25 4C3.83579 4 3.5 4.44772 3.5 5C3.5 5.55228 3.83579 6 4.25 6ZM8.5 5C8.5 5.55228 8.16422 6 7.75 6C7.33579 6 7 5.55228 7 5C7 4.44772 7.33579 4 7.75 4C8.16422 4 8.5 4.44772 8.5 5Z" fill="#18202A"/>
<path fill-rule="evenodd" clip-rule="evenodd" d="M11 8.75L11 8.75715V9.25C11 9.87951 11.2964 10.4723 11.8 10.85C11.8641 10.8981 11.8301 11 11.75 11H6.75C6.66991 11 6.63593 10.8981 6.7 10.85C7.20361 10.4723 7.5 9.87951 7.5 9.25V8.75001C7.5 8.75 7.5 8.75 7.50001 8.75C7.50001 8.75 7.50001 8.75 7.50001 8.74999C7.50002 7.7835 8.28352 7 9.25001 7C10.2165 7 11 7.7835 11 8.75ZM8.75001 11.5C8.61194 11.5 8.50001 11.6119 8.50001 11.75C8.50001 11.8881 8.61194 12 8.75001 12H9.75001C9.88808 12 10 11.8881 10 11.75C10 11.6119 9.88808 11.5 9.75001 11.5H8.75001Z" fill="#18202A"/>
</g>
<defs>
<clipPath id="clip0_2414_8765">
<rect width="12" height="12" fill="white"/>
</clipPath>
</defs>
</svg>
