<svg width="12" height="12" viewBox="0 0 12 12" fill="none" xmlns="http://www.w3.org/2000/svg">
<path d="M9.06127 2.306L10.1148 4.623C10.3213 4.6645 10.5223 4.71 10.7168 4.7595C10.7651 4.771 10.8107 4.792 10.8509 4.82128C10.891 4.85055 10.925 4.88751 10.9507 4.93002C10.9765 4.97252 10.9935 5.01972 11.0009 5.06888C11.0082 5.11803 11.0057 5.16815 10.9935 5.21632C10.9813 5.2645 10.9597 5.30978 10.9298 5.34951C10.9 5.38925 10.8625 5.42266 10.8197 5.4478C10.7768 5.47294 10.7294 5.48931 10.6801 5.49595C10.6309 5.50259 10.5808 5.49938 10.5328 5.4865C10.2848 5.42424 10.035 5.36955 9.78377 5.3225C7.50677 4.8925 4.49377 4.8925 2.21727 5.3225C1.96564 5.3694 1.71552 5.42409 1.46727 5.4865C1.41954 5.49861 1.36988 5.50121 1.32115 5.49413C1.27241 5.48706 1.22554 5.47045 1.18322 5.44526C1.09775 5.39439 1.03599 5.31166 1.01152 5.21525C0.987058 5.11884 1.00189 5.01667 1.05276 4.9312C1.10363 4.84573 1.18637 4.78397 1.28277 4.7595C1.47777 4.71 1.67927 4.6645 1.88627 4.6225L2.93927 2.306C3.04851 2.0657 3.2246 1.86192 3.44652 1.719C3.66844 1.57607 3.92681 1.50005 4.19077 1.5H7.80927C8.07332 1.49995 8.3318 1.57593 8.55382 1.71886C8.77584 1.86179 8.95201 2.06562 9.06127 2.306ZM1.74977 8.25C1.74977 7.85218 1.90781 7.47064 2.18911 7.18934C2.47042 6.90804 2.85195 6.75 3.24977 6.75C3.6476 6.75 4.02913 6.90804 4.31043 7.18934C4.59174 7.47064 4.74977 7.85218 4.74977 8.25C4.74977 8.64782 4.59174 9.02936 4.31043 9.31066C4.02913 9.59196 3.6476 9.75 3.24977 9.75C2.85195 9.75 2.47042 9.59196 2.18911 9.31066C1.90781 9.02936 1.74977 8.64782 1.74977 8.25ZM3.24977 6C2.82625 6.00014 2.41136 6.11982 2.05283 6.34527C1.69429 6.57072 1.40667 6.89279 1.22303 7.27443C1.0394 7.65607 0.967206 8.0818 1.01476 8.50265C1.06232 8.9235 1.22769 9.32238 1.49186 9.65342C1.75603 9.98446 2.10828 10.2342 2.50808 10.374C2.90788 10.5137 3.33902 10.5378 3.75189 10.4434C4.16477 10.3491 4.54263 10.1401 4.84202 9.8405C5.1414 9.54093 5.35016 9.16294 5.44427 8.75H6.55577C6.68028 9.28789 6.99813 9.76125 7.44887 10.0801C7.89962 10.3989 8.45182 10.541 9.00046 10.4792C9.54911 10.4175 10.0559 10.1563 10.4246 9.74529C10.7932 9.33427 10.9979 8.8021 10.9998 8.25C11.0008 7.67426 10.781 7.12003 10.3858 6.7014C9.99051 6.28277 9.44981 6.03159 8.87496 5.99956C8.30011 5.96753 7.73485 6.15708 7.29552 6.5292C6.8562 6.90133 6.57624 7.42771 6.51327 8H5.48627C5.42477 7.4499 5.16265 6.94178 4.75005 6.5728C4.33744 6.20383 3.8033 5.99989 3.24977 6ZM7.24977 8.25C7.24977 7.85218 7.40781 7.47064 7.68911 7.18934C7.97042 6.90804 8.35195 6.75 8.74977 6.75C9.1476 6.75 9.52913 6.90804 9.81043 7.18934C10.0917 7.47064 10.2498 7.85218 10.2498 8.25C10.2498 8.64782 10.0917 9.02936 9.81043 9.31066C9.52913 9.59196 9.1476 9.75 8.74977 9.75C8.35195 9.75 7.97042 9.59196 7.68911 9.31066C7.40781 9.02936 7.24977 8.64782 7.24977 8.25Z" fill="#18202A"/>
</svg>
