<svg width="12" height="12" viewBox="0 0 12 12" fill="none" xmlns="http://www.w3.org/2000/svg">
<path fill-rule="evenodd" clip-rule="evenodd" d="M11.5 1.62504C11.2929 1.62504 11.125 1.79293 11.125 2.00004V4.62504H8.5C8.29289 4.62504 8.125 4.79293 8.125 5.00004C8.125 5.20714 8.29289 5.37504 8.5 5.37504H11.5C11.7071 5.37504 11.875 5.20714 11.875 5.00004V2.00004C11.875 1.79293 11.7071 1.62504 11.5 1.62504Z" fill="#18202A"/>
<path fill-rule="evenodd" clip-rule="evenodd" d="M3.875 7.00004C3.875 6.79293 3.70711 6.62504 3.5 6.62504H0.499999C0.292892 6.62504 0.124999 6.79293 0.124999 7.00004V10C0.124999 10.2071 0.292892 10.375 0.499999 10.375C0.707106 10.375 0.874999 10.2071 0.874999 10V7.37504H3.5C3.70711 7.37504 3.875 7.20714 3.875 7.00004Z" fill="#18202A"/>
<path fill-rule="evenodd" clip-rule="evenodd" d="M7.35179 1.31819C6.56072 1.08937 5.72458 1.06468 4.92139 1.24641C4.11819 1.42815 3.37412 1.81038 2.75861 2.35746C2.14309 2.90453 1.6762 3.59861 1.40148 4.37494C1.33239 4.57018 1.43466 4.78447 1.6299 4.85356C1.82514 4.92265 2.03943 4.82038 2.10852 4.62514C2.34097 3.96825 2.73604 3.38095 3.25686 2.91804C3.77768 2.45513 4.40727 2.1317 5.0869 1.97792C5.76653 1.82415 6.47403 1.84504 7.1434 2.03866C7.81276 2.23227 8.42217 2.5923 8.91477 3.08514C8.91754 3.08791 8.92035 3.09064 8.92321 3.09332L11.2432 5.27332C11.3941 5.41514 11.6315 5.40776 11.7733 5.25683C11.9151 5.1059 11.9077 4.86858 11.7568 4.72675L9.44099 2.5507C8.85958 1.97043 8.14094 1.54645 7.35179 1.31819ZM0.226717 6.74325C0.0848951 6.89418 0.0922785 7.1315 0.243208 7.27332L2.55902 9.44938C3.14042 10.0296 3.85906 10.4536 4.64821 10.6819C5.43928 10.9107 6.27542 10.9354 7.07861 10.7537C7.88181 10.5719 8.62588 10.1897 9.24139 9.64262C9.8569 9.09554 10.3238 8.40146 10.5985 7.62514C10.6676 7.42989 10.5653 7.21561 10.3701 7.14652C10.1749 7.07743 9.96057 7.1797 9.89148 7.37494C9.65903 8.03183 9.26396 8.61913 8.74314 9.08204C8.22232 9.54495 7.59273 9.86838 6.9131 10.0222C6.23347 10.1759 5.52597 10.155 4.8566 9.96142C4.18723 9.7678 3.57782 9.40778 3.08523 8.91494C3.08246 8.91217 3.07965 8.90944 3.07679 8.90675L0.75679 6.72675C0.605861 6.58493 0.368539 6.59232 0.226717 6.74325Z" fill="#18202A"/>
</svg>
