<svg width="12" height="12" viewBox="0 0 12 12" fill="none" xmlns="http://www.w3.org/2000/svg">
<g clip-path="url(#clip0_2266_35242)">
<path fill-rule="evenodd" clip-rule="evenodd" d="M3 0.875C3 0.667893 3.16789 0.5 3.375 0.5C3.58211 0.5 3.75 0.667893 3.75 0.875V1.5H8.25V0.875C8.25 0.667893 8.41789 0.5 8.625 0.5C8.83211 0.5 9 0.667893 9 0.875V1.5H9.5C10.6046 1.5 11.5 2.39543 11.5 3.5V6.93808C11.2724 6.76013 11.0204 6.61186 10.75 6.49908V3.5C10.75 2.80964 10.1904 2.25 9.5 2.25H9V3.125C9 3.33211 8.83211 3.5 8.625 3.5C8.41789 3.5 8.25 3.33211 8.25 3.125V2.25H3.75V3.125C3.75 3.33211 3.58211 3.5 3.375 3.5C3.16789 3.5 3 3.33211 3 3.125V2.25H2.5C1.80964 2.25 1.25 2.80964 1.25 3.5V9.5C1.25 10.1904 1.80964 10.75 2.5 10.75H6.49908C6.61186 11.0204 6.76013 11.2724 6.93808 11.5H2.5C1.39543 11.5 0.5 10.6046 0.5 9.5V3.5C0.5 2.39543 1.39543 1.5 2.5 1.5H3V0.875ZM7 6.5C7.25611 6.5 7.46725 6.69256 7.49653 6.94079C7.28967 7.10296 7.10296 7.28967 6.94079 7.49653C6.69256 7.46725 6.5 7.25611 6.5 7C6.5 6.72386 6.72386 6.5 7 6.5ZM2.5 4.875C2.5 4.66789 2.66789 4.5 2.875 4.5H9.125C9.33211 4.5 9.5 4.66789 9.5 4.875C9.5 5.08211 9.33211 5.25 9.125 5.25H2.875C2.66789 5.25 2.5 5.08211 2.5 4.875ZM3 6.5C2.72386 6.5 2.5 6.72386 2.5 7C2.5 7.27614 2.72386 7.5 3 7.5C3.27614 7.5 3.5 7.27614 3.5 7C3.5 6.72386 3.27614 6.5 3 6.5ZM2.5 9C2.5 8.72386 2.72386 8.5 3 8.5C3.27614 8.5 3.5 8.72386 3.5 9C3.5 9.27614 3.27614 9.5 3 9.5C2.72386 9.5 2.5 9.27614 2.5 9ZM5 6.5C4.72386 6.5 4.5 6.72386 4.5 7C4.5 7.27614 4.72386 7.5 5 7.5C5.27614 7.5 5.5 7.27614 5.5 7C5.5 6.72386 5.27614 6.5 5 6.5ZM4.5 9C4.5 8.72386 4.72386 8.5 5 8.5C5.27614 8.5 5.5 8.72386 5.5 9C5.5 9.27614 5.27614 9.5 5 9.5C4.72386 9.5 4.5 9.27614 4.5 9ZM12 9.5C12 10.8807 10.8807 12 9.5 12C8.11929 12 7 10.8807 7 9.5C7 8.11929 8.11929 7 9.5 7C10.8807 7 12 8.11929 12 9.5ZM9.5 8C9.70711 8 9.875 8.16789 9.875 8.375V9.125H10.625C10.8321 9.125 11 9.29289 11 9.5C11 9.70711 10.8321 9.875 10.625 9.875H9.875V10.625C9.875 10.8321 9.70711 11 9.5 11C9.29289 11 9.125 10.8321 9.125 10.625V9.875H8.375C8.16789 9.875 8 9.70711 8 9.5C8 9.29289 8.16789 9.125 8.375 9.125H9.125V8.375C9.125 8.16789 9.29289 8 9.5 8Z" fill="#18202A"/>
</g>
<defs>
<clipPath id="clip0_2266_35242">
<rect width="12" height="12" fill="white"/>
</clipPath>
</defs>
</svg>
