<svg width="12" height="12" viewBox="0 0 12 12" fill="none" xmlns="http://www.w3.org/2000/svg">
<path d="M1.61051 1.6105C1.75785 1.46316 1.99673 1.46316 2.14407 1.6105L10.3895 9.85593C10.5368 10.0033 10.5368 10.2422 10.3895 10.3895C10.2422 10.5368 10.0033 10.5368 9.85594 10.3895L1.61051 2.14406C1.46317 1.99673 1.46317 1.75784 1.61051 1.6105Z" fill="#18202A"/>
<path d="M3.19498 2.66213C2.49262 3.37181 2.09908 4.32086 2.09908 5.30952C2.09908 7.19954 1.6335 8.31512 1.24936 8.91389C1.11836 9.11809 1.28127 9.5 1.52388 9.5H10.0329L9.28285 8.75H2.19234C2.54716 7.98998 2.84908 6.87959 2.84908 5.30952C2.84908 4.52248 3.1617 3.76339 3.72532 3.19247L3.19498 2.66213Z" fill="#18202A"/>
<path d="M9.48676 7.89325C9.28837 7.21887 9.15094 6.36882 9.15094 5.30952C9.15094 4.5039 8.82339 3.72758 8.23438 3.15236C7.64475 2.57656 6.84135 2.25 6.00001 2.25C5.39803 2.25 4.81546 2.41718 4.31674 2.72322L3.77437 2.18086C4.32154 1.80965 4.9588 1.58037 5.62541 1.51759C5.62514 1.51176 5.62501 1.5059 5.62501 1.5V1C5.62501 0.792893 5.7929 0.625 6.00001 0.625C6.20712 0.625 6.37501 0.792893 6.37501 1V1.5C6.37501 1.5059 6.37487 1.51176 6.3746 1.51759C7.27171 1.60208 8.11564 1.9881 8.75838 2.61578C9.48995 3.33021 9.90094 4.29918 9.90094 5.30952C9.90094 7.19955 10.3665 8.31512 10.7507 8.91389C10.8002 8.99105 10.8077 9.09359 10.7848 9.19131L9.48676 7.89325Z" fill="#18202A"/>
<path d="M5.15107 11.2169C4.90571 11.0331 4.72648 10.7747 4.64018 10.4806L5.35984 10.2694C5.40055 10.4082 5.48507 10.53 5.60071 10.6166C5.71634 10.7032 5.85687 10.75 6.00126 10.75C6.14565 10.75 6.28618 10.7032 6.40181 10.6166C6.51745 10.53 6.60197 10.4082 6.64268 10.2694L7.36234 10.4806C7.27603 10.7747 7.09681 11.0331 6.85145 11.2169C6.60609 11.4007 6.30781 11.5 6.00126 11.5C5.69471 11.5 5.39642 11.4007 5.15107 11.2169Z" fill="#18202A"/>
</svg>
