<svg width="12" height="12" viewBox="0 0 12 12" fill="none" xmlns="http://www.w3.org/2000/svg">
<g clip-path="url(#clip0_2266_35878)">
<path fill-rule="evenodd" clip-rule="evenodd" d="M11.5 6C11.5 9.03757 9.03757 11.5 6 11.5C2.96243 11.5 0.5 9.03757 0.5 6C0.5 2.96243 2.96243 0.5 6 0.5C9.03757 0.5 11.5 2.96243 11.5 6ZM5 5C5 5.55228 4.66422 6 4.25 6C3.83579 6 3.5 5.55228 3.5 5C3.5 4.44772 3.83579 4 4.25 4C4.66422 4 5 4.44772 5 5ZM3.71887 7.08652C3.94722 6.93126 4.25821 6.99051 4.41348 7.21886C4.56982 7.4488 4.79572 7.64599 5.07467 7.78546C5.35375 7.925 5.67274 8 6 8C6.32726 8 6.64626 7.925 6.92534 7.78546C7.20428 7.64599 7.43018 7.4488 7.58653 7.21886C7.7418 6.99051 8.05278 6.93126 8.28114 7.08652C8.5095 7.24179 8.56875 7.55278 8.41348 7.78114C8.15502 8.16126 7.79454 8.46889 7.37255 8.67989C6.9507 8.89081 6.47807 9 6 9C5.52194 9 5.04931 8.89081 4.62746 8.67989C4.20547 8.46889 3.84499 8.16126 3.58653 7.78114C3.43126 7.55278 3.49051 7.24179 3.71887 7.08652ZM7.75 6C8.16422 6 8.5 5.55228 8.5 5C8.5 4.44772 8.16422 4 7.75 4C7.33579 4 7 4.44772 7 5C7 5.55228 7.33579 6 7.75 6Z" fill="#18202A"/>
</g>
<defs>
<clipPath id="clip0_2266_35878">
<rect width="12" height="12" fill="white"/>
</clipPath>
</defs>
</svg>
