<svg width="12" height="12" viewBox="0 0 12 12" fill="none" xmlns="http://www.w3.org/2000/svg">
<path fill-rule="evenodd" clip-rule="evenodd" d="M8.63199 1.33568C8.97396 0.995534 9.5267 0.996275 9.86777 1.33734L10.6626 2.13212C11.0036 2.47318 11.0044 3.02592 10.6642 3.3679L6.87873 7.17372C6.82216 7.2306 6.74883 7.26784 6.66952 7.27996L5.28219 7.492C4.82894 7.56128 4.43861 7.17095 4.50789 6.7177L4.71993 5.33037C4.73205 5.25106 4.76929 5.17773 4.82617 5.12115L8.63199 1.33568ZM9.33744 1.86767C9.28871 1.81894 9.20975 1.81884 9.1609 1.86743L8.77829 2.24799L9.7519 3.2216L10.1325 2.83899C10.1811 2.79014 10.1809 2.71118 10.1322 2.66245L9.33744 1.86767ZM9.22299 3.75335L8.24654 2.7769L5.44266 5.56579L5.26378 6.73611L6.4341 6.55723L9.22299 3.75335Z" fill="#18202A"/>
<path d="M6 2.375C6 2.16789 5.83211 2 5.625 2H2.5C1.67157 2 1 2.67157 1 3.5V9.5C1 10.3284 1.67157 11 2.5 11H8.5C9.32843 11 10 10.3284 10 9.5V6.375C10 6.16789 9.83211 6 9.625 6C9.41789 6 9.25 6.16789 9.25 6.375V9.5C9.25 9.91421 8.91421 10.25 8.5 10.25H2.5C2.08579 10.25 1.75 9.91421 1.75 9.5V3.5C1.75 3.08579 2.08579 2.75 2.5 2.75H5.625C5.83211 2.75 6 2.58211 6 2.375Z" fill="#18202A"/>
</svg>
