<svg width="12" height="12" viewBox="0 0 12 12" fill="none" xmlns="http://www.w3.org/2000/svg">
<path fill-rule="evenodd" clip-rule="evenodd" d="M8 1.25H8.25C8.66421 1.25 9 1.58579 9 2V10C9 10.4142 8.66421 10.75 8.25 10.75H3.75C3.33579 10.75 3 10.4142 3 10V2C3 1.58579 3.33579 1.25 3.75 1.25H4C4 1.80228 4.44772 2.25 5 2.25H7C7.55228 2.25 8 1.80228 8 1.25ZM2.25 2C2.25 1.17157 2.92157 0.5 3.75 0.5H8.25C9.07843 0.5 9.75 1.17157 9.75 2V10C9.75 10.8284 9.07843 11.5 8.25 11.5H3.75C2.92157 11.5 2.25 10.8284 2.25 10V2Z" fill="#18202A"/>
</svg>
