<svg width="12" height="12" viewBox="0 0 12 12" fill="none" xmlns="http://www.w3.org/2000/svg">
<g clip-path="url(#clip0_2266_36930)">
<path d="M10.6016 8.25822L10.5311 8.32533C10.337 8.49607 10.0955 8.60062 9.839 8.62445C9.55037 8.65126 9.26165 8.57414 9.02488 8.40699C8.93568 8.33812 8.83664 8.26869 8.73892 8.20716C8.54216 8.08317 8.33727 7.97229 8.12569 7.8753C7.96389 7.79983 7.83455 7.66596 7.76402 7.50015C7.69351 7.33435 7.6868 7.14834 7.74521 6.97788L7.80179 6.70586L7.84582 6.48571L7.62992 6.42415L7.42547 6.36963C6.94651 6.25066 6.45469 6.18953 5.96057 6.18771C5.39418 6.18979 4.83252 6.26934 4.28945 6.42414L4.04271 6.49447L4.20516 6.96768L4.22619 7.04153C4.2603 7.19074 4.24674 7.34771 4.1863 7.48982C4.11576 7.65565 3.98644 7.7895 3.82318 7.86565C3.61298 7.9604 3.40714 8.0718 3.21007 8.19768L3.0903 8.27136L3.00305 8.3302C2.96374 8.3589 2.9292 8.3879 2.89716 8.41994C2.69897 8.55321 2.41904 8.6289 2.13827 8.60639C1.8574 8.58391 1.59304 8.46464 1.39036 8.26898L0.361084 7.2397L0.290663 7.16373C0.201312 7.05886 0.130516 6.93991 0.0810824 6.81138C0.0193075 6.65072 -0.00769159 6.47877 0.00188444 6.30692C0.0190919 6.00885 0.145674 5.72709 0.357422 5.51596L0.488437 5.38495L0.656545 5.25727C2.18258 4.12682 4.05798 3.50352 5.98755 3.50001C7.98861 3.49639 9.9338 4.15951 11.5159 5.38465C11.6573 5.49176 11.7723 5.62607 11.855 5.78001C11.9378 5.93396 11.9864 6.10393 11.9975 6.27836C12.0087 6.45277 11.9821 6.62755 11.9197 6.79079C11.8572 6.95403 11.7603 7.10189 11.6356 7.22431L10.6016 8.25822Z" fill="#18202A"/>
</g>
<defs>
<clipPath id="clip0_2266_36930">
<rect width="12" height="12" fill="white"/>
</clipPath>
</defs>
</svg>
