<svg width="12" height="12" viewBox="0 0 12 12" fill="none" xmlns="http://www.w3.org/2000/svg">
<g clip-path="url(#clip0_2266_30433)">
<path fill-rule="evenodd" clip-rule="evenodd" d="M10.2426 1.75746C9.07106 0.585891 7.17156 0.585891 5.99999 1.75746L4.93933 2.81812C4.74407 3.01339 4.74407 3.32997 4.93933 3.52523C5.13459 3.72049 5.45118 3.72049 5.64644 3.52523L6.7071 2.46457C7.48815 1.68352 8.75448 1.68352 9.53553 2.46457C10.3166 3.24562 10.3166 4.51195 9.53553 5.293L8.47486 6.35366C8.2796 6.54892 8.2796 6.8655 8.47486 7.06076C8.67013 7.25603 8.98671 7.25603 9.18197 7.06076L10.2426 6.0001C11.4142 4.82853 11.4142 2.92904 10.2426 1.75746ZM1.75734 10.2423C0.585769 9.07075 0.585769 7.17126 1.75734 5.99969L2.818 4.93903C3.01326 4.74376 3.32985 4.74376 3.52511 4.93903C3.72037 5.13429 3.72037 5.45087 3.52511 5.64613L2.46445 6.70679C1.6834 7.48784 1.6834 8.75417 2.46445 9.53522C3.2455 10.3163 4.51183 10.3163 5.29288 9.53522L6.35354 8.47456C6.5488 8.2793 6.86538 8.2793 7.06064 8.47456C7.2559 8.66982 7.2559 8.9864 7.06064 9.18167L5.99998 10.2423C4.82841 11.4139 2.92891 11.4139 1.75734 10.2423ZM3.52511 7.76745C3.32985 7.96271 3.32985 8.2793 3.52511 8.47456C3.72037 8.66982 4.03696 8.66982 4.23222 8.47456L8.47486 4.23192C8.67012 4.03666 8.67012 3.72007 8.47486 3.52481C8.2796 3.32955 7.96302 3.32955 7.76775 3.52481L3.52511 7.76745Z" fill="#18202A"/>
</g>
<defs>
<clipPath id="clip0_2266_30433">
<rect width="12" height="12" fill="white"/>
</clipPath>
</defs>
</svg>
