<svg width="12" height="12" viewBox="0 0 12 12" fill="none" xmlns="http://www.w3.org/2000/svg">
<path fill-rule="evenodd" clip-rule="evenodd" d="M10 5H2V8C2 8.55228 2.44772 9 3 9H9C9.55228 9 10 8.55228 10 8V5ZM2 4H10C10 3.44772 9.55229 3 9 3H6.19722L4.82319 2.08397C4.74105 2.02922 4.64455 2 4.54584 2H3C2.44772 2 2 2.44772 2 3V4ZM3 1C1.89543 1 1 1.89543 1 3V8C1 9.10457 1.89543 10 3 10H9C10.1046 10 11 9.10457 11 8V4C11 2.89543 10.1046 2 9 2H6.5L5.37789 1.25192C5.13149 1.08766 4.84197 1 4.54584 1H3Z" fill="#18202A"/>
</svg>
