<svg width="12" height="12" viewBox="0 0 12 12" fill="none" xmlns="http://www.w3.org/2000/svg">
<g clip-path="url(#clip0_2266_39606)">
<path fill-rule="evenodd" clip-rule="evenodd" d="M6 8.61413C6 7.44653 6.94653 6.5 8.11413 6.5H10.875V7.25H8.11413C7.36074 7.25 6.75 7.86074 6.75 8.61413V10.875H6V8.61413Z" fill="#18202A"/>
<path fill-rule="evenodd" clip-rule="evenodd" d="M8.45652 1.25H3.54348C2.27683 1.25 1.25 2.27683 1.25 3.54348V8.45652C1.25 9.72318 2.27682 10.75 3.54348 10.75H6.28261C8.74988 10.75 10.75 8.74988 10.75 6.28261V3.54348C10.75 2.27683 9.72318 1.25 8.45652 1.25ZM3.54348 0.5C1.86261 0.5 0.5 1.86261 0.5 3.54348V8.45652C0.5 10.1374 1.86261 11.5 3.54348 11.5H6.28261C9.16409 11.5 11.5 9.16409 11.5 6.28261V3.54348C11.5 1.86261 10.1374 0.5 8.45652 0.5H3.54348Z" fill="#18202A"/>
<path d="M4.5 4.5C4.5 5.05228 4.16421 5.5 3.75 5.5C3.33579 5.5 3 5.05228 3 4.5C3 3.94772 3.33579 3.5 3.75 3.5C4.16421 3.5 4.5 3.94772 4.5 4.5Z" fill="#18202A"/>
<path d="M9 4.5C9 5.05228 8.66421 5.5 8.25 5.5C7.83579 5.5 7.5 5.05228 7.5 4.5C7.5 3.94772 7.83579 3.5 8.25 3.5C8.66421 3.5 9 3.94772 9 4.5Z" fill="#18202A"/>
<path d="M6.05704 8.12426C6.01974 8.28148 6 8.4455 6 8.61413L6 8.87498C5.54078 8.87498 5.08736 8.77006 4.68335 8.56806C4.27925 8.36601 3.93559 8.07218 3.68989 7.71083C3.57344 7.53956 3.61788 7.30632 3.78915 7.18987C3.96041 7.07342 4.19365 7.11786 4.31011 7.28912C4.47921 7.53784 4.72194 7.74883 5.01876 7.89724C5.31569 8.0457 5.65389 8.12498 6 8.12498C6.01904 8.12498 6.03806 8.12474 6.05704 8.12426Z" fill="#18202A"/>
</g>
<defs>
<clipPath id="clip0_2266_39606">
<rect width="12" height="12" fill="white"/>
</clipPath>
</defs>
</svg>
