<svg width="12" height="12" viewBox="0 0 12 12" fill="none" xmlns="http://www.w3.org/2000/svg">
<path fill-rule="evenodd" clip-rule="evenodd" d="M8.35594 1.6105C8.50327 1.46317 8.74216 1.46317 8.8895 1.6105C9.03683 1.75784 9.03683 1.99673 8.8895 2.14407L8.43089 2.60267C8.78301 2.96318 9 3.45625 9 4V8C9 9.10457 8.10457 10 7 10H2C1.71555 10 1.44497 9.94062 1.19999 9.83358L0.644065 10.3895C0.496726 10.5368 0.257843 10.5368 0.110504 10.3895C-0.0368346 10.2422 -0.0368344 10.0033 0.110504 9.85594L8.35594 1.6105ZM1.79955 9.23401C1.86481 9.24453 1.93177 9.25 2 9.25H7C7.69036 9.25 8.25 8.69036 8.25 8V4C8.25 3.66336 8.11692 3.3578 7.90051 3.13306L1.79955 9.23401Z" fill="#18202A"/>
<path d="M0 4C0 2.89543 0.895431 2 2 2H6.90649L6.15649 2.75H2C1.30964 2.75 0.75 3.30964 0.75 4V8C0.75 8.05002 0.752938 8.09936 0.758651 8.14784L0.148596 8.7579C0.0528084 8.52415 0 8.26824 0 8V4Z" fill="#18202A"/>
<path fill-rule="evenodd" clip-rule="evenodd" d="M9.5 4.55612C9.5 4.39531 9.57734 4.24431 9.70785 4.15035L11.2078 3.07035C11.5386 2.83222 12 3.06857 12 3.47612V8.52388C12 8.93143 11.5386 9.16778 11.2078 8.92965L9.70785 7.84965C9.57734 7.75569 9.5 7.60469 9.5 7.44388V4.55612ZM11.25 8.03582L10.25 7.31582V4.68418L11.25 3.96418V8.03582Z" fill="#18202A"/>
</svg>
