<svg width="12" height="12" viewBox="0 0 12 12" fill="none" xmlns="http://www.w3.org/2000/svg">
<path fill-rule="evenodd" clip-rule="evenodd" d="M8.27448 9.87598C8.27448 9.66887 8.10658 9.50098 7.89948 9.50098H1.39948C1.19237 9.50098 1.02448 9.66887 1.02448 9.87598C1.02448 10.0831 1.19237 10.251 1.39948 10.251H7.89948C8.10658 10.251 8.27448 10.0831 8.27448 9.87598Z" fill="#18202A"/>
<path fill-rule="evenodd" clip-rule="evenodd" d="M8.27448 1.87598C8.27448 1.66887 8.10658 1.50098 7.89948 1.50098H1.39948C1.19237 1.50098 1.02448 1.66887 1.02448 1.87598C1.02448 2.08308 1.19237 2.25098 1.39948 2.25098H7.89948C8.10658 2.25098 8.27448 2.08308 8.27448 1.87598Z" fill="#18202A"/>
<path d="M8.85984 4.64017C8.71339 4.49372 8.71339 4.25628 8.85984 4.10983C9.00628 3.96339 9.24372 3.96339 9.39017 4.10983L10.8902 5.60983C10.9678 5.68744 11.0042 5.79059 10.9996 5.89221C10.9955 6.0101 10.9375 6.11427 10.8494 6.18089L9.39017 7.64017C9.24372 7.78661 9.00628 7.78661 8.85984 7.64017C8.71339 7.49372 8.71339 7.25628 8.85984 7.10983L9.71257 6.2571L1.3785 6.25369C1.16929 6.25361 0.999761 6.08394 0.999846 5.87473C0.999931 5.66552 1.1696 5.49599 1.37881 5.49607L9.71915 5.49948L8.85984 4.64017Z" fill="#18202A"/>
</svg>
