<svg width="12" height="12" viewBox="0 0 12 12" fill="none" xmlns="http://www.w3.org/2000/svg">
<path d="M6.375 2.375C6.16789 2.375 6 2.20711 6 2C6 1.79289 6.16789 1.625 6.375 1.625H10C10.2071 1.625 10.375 1.79289 10.375 2V5.625C10.375 5.83211 10.2071 6 10 6C9.79289 6 9.625 5.83211 9.625 5.625V2.90533L7.26516 5.26517C7.11872 5.41161 6.88128 5.41161 6.73484 5.26517C6.58839 5.11872 6.58839 4.88128 6.73484 4.73483L9.09467 2.375H6.375Z" fill="#18202A"/>
<path d="M6 10C6 10.2071 5.83211 10.375 5.625 10.375H2C1.79289 10.375 1.625 10.2071 1.625 10V6.375C1.625 6.16789 1.79289 6 2 6C2.20711 6 2.375 6.16789 2.375 6.375L2.375 9.09467L4.73484 6.73483C4.88128 6.58839 5.11872 6.58839 5.26517 6.73484C5.41161 6.88128 5.41161 7.11872 5.26517 7.26517L2.90533 9.625H5.625C5.83211 9.625 6 9.79289 6 10Z" fill="#18202A"/>
</svg>
