<svg width="12" height="12" viewBox="0 0 12 12" fill="none" xmlns="http://www.w3.org/2000/svg">
<g clip-path="url(#clip0_2266_40191)">
<path fill-rule="evenodd" clip-rule="evenodd" d="M1.25 6C1.25 8.62335 3.37665 10.75 6 10.75C8.62335 10.75 10.75 8.62335 10.75 6C10.75 3.37665 8.62335 1.25 6 1.25C3.37665 1.25 1.25 3.37665 1.25 6ZM0.5 6C0.5 9.03757 2.96243 11.5 6 11.5C9.03757 11.5 11.5 9.03757 11.5 6C11.5 2.96243 9.03757 0.5 6 0.5C2.96243 0.5 0.5 2.96243 0.5 6Z" fill="#18202A"/>
<path fill-rule="evenodd" clip-rule="evenodd" d="M8.26517 6.23483C8.41161 6.38128 8.41161 6.61872 8.26517 6.76516L6.26517 8.76517C6.11872 8.91161 5.88128 8.91161 5.73483 8.76517L3.73484 6.76516C3.58839 6.61872 3.58839 6.38128 3.73484 6.23483C3.88128 6.08839 4.11872 6.08839 4.26517 6.23483L5.625 7.59467V3.5C5.625 3.29289 5.79289 3.125 6 3.125C6.20711 3.125 6.375 3.29289 6.375 3.5V7.59467L7.73483 6.23483C7.88128 6.08839 8.11872 6.08839 8.26517 6.23483Z" fill="#18202A"/>
</g>
<defs>
<clipPath id="clip0_2266_40191">
<rect width="12" height="12" fill="white"/>
</clipPath>
</defs>
</svg>
