<svg width="12" height="12" viewBox="0 0 12 12" fill="none" xmlns="http://www.w3.org/2000/svg">
<path d="M3.5 2H5.5C6.32843 2 7 2.67157 7 3.5C7 3.77614 7.22386 4 7.5 4C7.77614 4 8 3.77614 8 3.5C8 2.11929 6.88071 1 5.5 1H3.5C2.11929 1 1 2.11929 1 3.5V8.5C1 9.88071 2.11929 11 3.5 11H5.5C6.88071 11 8 9.88071 8 8.5C8 8.22386 7.77614 8 7.5 8C7.22386 8 7 8.22386 7 8.5C7 9.32843 6.32843 10 5.5 10H3.5C2.67157 10 2 9.32843 2 8.5V3.5C2 2.67157 2.67157 2 3.5 2Z" fill="#18202A"/>
<path fill-rule="evenodd" clip-rule="evenodd" d="M8.64645 4.14645C8.84171 3.95118 9.15829 3.95118 9.35355 4.14645L10.8536 5.64645C11.0488 5.84171 11.0488 6.15829 10.8536 6.35355L9.35355 7.85355C9.15829 8.04882 8.84171 8.04882 8.64645 7.85355C8.45118 7.65829 8.45118 7.34171 8.64645 7.14645L9.29289 6.5H4.5C4.22386 6.5 4 6.27614 4 6C4 5.72386 4.22386 5.5 4.5 5.5H9.29289L8.64645 4.85355C8.45118 4.65829 8.45118 4.34171 8.64645 4.14645Z" fill="#18202A"/>
</svg>
