<svg width="12" height="12" viewBox="0 0 12 12" fill="none" xmlns="http://www.w3.org/2000/svg">
<path fill-rule="evenodd" clip-rule="evenodd" d="M8 1.25H4C3.30964 1.25 2.75 1.80964 2.75 2.5V10.5L4.95 8.85C5.57222 8.38333 6.42778 8.38333 7.05 8.85L9.25 10.5V2.5C9.25 1.80964 8.69036 1.25 8 1.25ZM4 0.5C2.89543 0.5 2 1.39543 2 2.5V11C2 11.412 2.47038 11.6472 2.8 11.4L5.4 9.45C5.75556 9.18333 6.24444 9.18333 6.6 9.45L9.2 11.4C9.52962 11.6472 10 11.412 10 11V2.5C10 1.39543 9.10457 0.5 8 0.5H4Z" fill="#18202A"/>
<path d="M2.5 3H9.5V3.75H2.5V3Z" fill="#18202A"/>
</svg>
