<svg width="12" height="12" viewBox="0 0 12 12" fill="none" xmlns="http://www.w3.org/2000/svg">
<g clip-path="url(#clip0_2266_39747)">
<path d="M1.26023 5.84545V5.81979L1.25847 5.79418C1.09726 3.4415 3.32295 1.25 6.00511 1.25C8.67318 1.25 10.75 3.06021 10.75 5.84545C10.75 5.99642 10.7423 6.14639 10.7271 6.29486L11.2923 7.29395C11.4288 6.83026 11.5 6.34327 11.5 5.84545C11.5 2.6 9.03986 0.5 6.00511 0.5C2.97037 0.5 0.314005 2.98182 0.510226 5.84545C0.510226 7.5566 1.19411 8.89625 2.28552 9.78047L2.39058 11.0411C2.4194 11.387 2.78324 11.599 3.09838 11.4536L4.46133 10.8245C4.63988 10.8668 4.82218 10.9015 5.00775 10.9287C4.98452 10.6844 5.01291 10.4312 5.10171 10.1844C4.94242 10.1607 4.78642 10.1307 4.63411 10.0947L4.38214 10.035L3.10833 10.6229L3.00635 9.39921L2.75765 9.19772C1.84941 8.4619 1.26023 7.34009 1.26023 5.84545Z" fill="#18202A"/>
<path fill-rule="evenodd" clip-rule="evenodd" d="M11.3987 11.5H6.60133C6.14021 11.5 5.85119 10.9921 6.08011 10.584L8.47878 6.30823C8.70933 5.89726 9.29068 5.89726 9.52123 6.30823L11.9199 10.584C12.1488 10.9921 11.8598 11.5 11.3987 11.5ZM9.00001 7.5C8.7929 7.5 8.62501 7.66789 8.62501 7.875V8.875C8.62501 9.08211 8.7929 9.25 9.00001 9.25C9.20711 9.25 9.37501 9.08211 9.37501 8.875V7.875C9.37501 7.66789 9.20711 7.5 9.00001 7.5ZM9.00001 9.75C8.7929 9.75 8.62501 9.91789 8.62501 10.125C8.62501 10.3321 8.7929 10.5 9.00001 10.5C9.20711 10.5 9.37501 10.3321 9.37501 10.125C9.37501 9.91789 9.20711 9.75 9.00001 9.75Z" fill="#18202A"/>
</g>
<defs>
<clipPath id="clip0_2266_39747">
<rect width="12" height="12" fill="white"/>
</clipPath>
</defs>
</svg>
