<svg width="12" height="12" viewBox="0 0 12 12" fill="none" xmlns="http://www.w3.org/2000/svg">
<path fill-rule="evenodd" clip-rule="evenodd" d="M8.70873 1.5C9.07342 1.5 9.40919 1.69853 9.58495 2.01808L11.3372 5.20392C11.4428 5.39597 11.4824 5.61741 11.4499 5.83417L10.8777 9.64834C10.8043 10.1379 10.3838 10.5 9.88881 10.5H2.11119C1.61619 10.5 1.19568 10.1379 1.12225 9.64834L0.550127 5.83417C0.517613 5.61741 0.557218 5.39597 0.662848 5.20391L2.41506 2.01808C2.59081 1.69853 2.92658 1.5 3.29127 1.5H8.70873ZM1.87356 5.31514C1.82812 5.39844 1.88841 5.5 1.9833 5.5H4C4.27614 5.5 4.49184 5.73 4.58219 5.99095C4.78553 6.57827 5.34351 7 6 7C6.65649 7 7.21448 6.57827 7.41782 5.99095C7.50816 5.73 7.72386 5.5 8 5.5H10.0167C10.1116 5.5 10.1719 5.39844 10.1264 5.31514L8.73304 2.76057C8.64543 2.59994 8.47707 2.5 8.29409 2.5H3.70591C3.52294 2.5 3.35458 2.59994 3.26696 2.76057L1.87356 5.31514Z" fill="#18202A"/>
</svg>
