<svg width="12" height="12" viewBox="0 0 12 12" fill="none" xmlns="http://www.w3.org/2000/svg">
<path d="M1.6105 1.1105C1.75784 0.963165 1.99672 0.963165 2.14406 1.1105L10.3895 9.35594C10.5368 9.50327 10.5368 9.74216 10.3895 9.8895C10.2421 10.0368 10.0033 10.0368 9.85593 9.8895L1.6105 1.64407C1.46316 1.49673 1.46316 1.25784 1.6105 1.1105Z" fill="#18202A"/>
<path d="M3.05636 2.02352C2.01268 2.40881 1.06537 2.99309 0.26048 3.73032C0.107755 3.87021 0.108302 4.10831 0.254748 4.25476C0.401195 4.40121 0.638039 4.40047 0.791357 4.26123C1.60436 3.52289 2.57491 2.95494 3.64661 2.61377L3.05636 2.02352Z" fill="#18202A"/>
<path d="M5.0999 4.06706C3.93278 4.24264 2.87575 4.75441 2.03058 5.5006C1.87533 5.63767 1.87607 5.87608 2.02252 6.02253C2.16896 6.16897 2.40557 6.16784 2.56204 6.03215C3.43316 5.27671 4.55555 4.80336 5.78708 4.75424L5.0999 4.06706Z" fill="#18202A"/>
<path d="M6.92467 4.83117L6.09422 4.00073C7.5793 4.02359 8.93349 4.586 9.9694 5.50059C10.1247 5.63767 10.1239 5.87608 9.97747 6.02252C9.83102 6.16897 9.59441 6.16784 9.43795 6.03215C8.73787 5.42504 7.87553 5.00013 6.92467 4.83117Z" fill="#18202A"/>
<path d="M4.49043 2.39693L3.8641 1.7706C4.54657 1.59397 5.26231 1.5 5.99999 1.5C8.21233 1.5 10.2273 2.3452 11.7395 3.73032C11.8922 3.87021 11.8917 4.10831 11.7452 4.25476C11.5988 4.4012 11.3619 4.40047 11.2086 4.26123C9.83259 3.01156 8.00523 2.25 5.99999 2.25C5.48344 2.25 4.9787 2.30054 4.49043 2.39693Z" fill="#18202A"/>
<path d="M8.2097 7.79029C8.35615 7.64384 8.35728 7.40461 8.19609 7.27457C7.59558 6.79007 6.83166 6.5 5.99999 6.5C5.16832 6.5 4.40441 6.79007 3.80389 7.27457C3.6427 7.40461 3.64384 7.64385 3.79028 7.79029C3.93673 7.93674 4.17285 7.93435 4.33775 7.80905C4.79944 7.45823 5.3754 7.25 5.99999 7.25C6.62458 7.25 7.20054 7.45823 7.66223 7.80905C7.82713 7.93435 8.06325 7.93674 8.2097 7.79029Z" fill="#18202A"/>
<path d="M6.99999 10C6.99999 10.5523 6.55228 11 5.99999 11C5.44771 11 4.99999 10.5523 4.99999 10C4.99999 9.44772 5.44771 9 5.99999 9C6.55228 9 6.99999 9.44772 6.99999 10Z" fill="#18202A"/>
</svg>
