<svg width="12" height="12" viewBox="0 0 12 12" fill="none" xmlns="http://www.w3.org/2000/svg">
<g clip-path="url(#clip0_3875_8966)">
<path fill-rule="evenodd" clip-rule="evenodd" d="M5.5 0.5C4.67157 0.5 4 1.17157 4 2V2.5H1.5C1.22386 2.5 1 2.72386 1 3C1 3.27614 1.22386 3.5 1.5 3.5H2V8.5C2 10.1569 3.34315 11.5 5 11.5H6.62734C6.23191 10.9331 6 10.2436 6 9.5C6 8.84017 6.18259 8.22298 6.5 7.69621V5.5C6.5 5.22386 6.72386 5 7 5C7.27614 5 7.5 5.22386 7.5 5.5V6.62734C8.06692 6.23191 8.75638 6 9.5 6C9.66976 6 9.8367 6.01209 10 6.03544V3.5H10.5C10.7761 3.5 11 3.27614 11 3C11 2.72386 10.7761 2.5 10.5 2.5H8V2C8 1.17157 7.32843 0.5 6.5 0.5H5.5ZM7 2C7 1.72386 6.77614 1.5 6.5 1.5H5.5C5.22386 1.5 5 1.72386 5 2V2.5H7V2ZM5.5 5.5C5.5 5.22386 5.27614 5 5 5C4.72386 5 4.5 5.22386 4.5 5.5V8.5C4.5 8.77614 4.72386 9 5 9C5.27614 9 5.5 8.77614 5.5 8.5V5.5Z" fill="#18202A"/>
<path fill-rule="evenodd" clip-rule="evenodd" d="M9.5 12C10.8807 12 12 10.8807 12 9.5C12 8.11929 10.8807 7 9.5 7C8.11929 7 7 8.11929 7 9.5C7 10.8807 8.11929 12 9.5 12ZM10 8.25C10 7.97386 9.77614 7.75 9.5 7.75C9.22386 7.75 9 7.97386 9 8.25V9.5C9 9.63261 9.05268 9.75978 9.14645 9.85355L9.89645 10.6036C10.0917 10.7988 10.4083 10.7988 10.6036 10.6036C10.7988 10.4083 10.7988 10.0917 10.6036 9.89645L10 9.29289V8.25Z" fill="#18202A"/>
</g>
<defs>
<clipPath id="clip0_3875_8966">
<rect width="12" height="12" fill="white"/>
</clipPath>
</defs>
</svg>
