<svg width="16" height="16" viewBox="0 0 16 16" fill="none" xmlns="http://www.w3.org/2000/svg">
<path fill-rule="evenodd" clip-rule="evenodd" d="M0.666667 3.3335C0.666667 2.22893 1.5621 1.3335 2.66667 1.3335H11.3333C12.2041 1.3335 12.945 1.89003 13.2195 2.66683H2.66667V3.3335H12.6667C14.1394 3.3335 15.3333 4.5274 15.3333 6.00016V12.0002C15.3333 13.4729 14.1394 14.6668 12.6667 14.6668H3.33333C1.86057 14.6668 0.666667 13.4729 0.666667 12.0002V3.3335ZM9.33333 7.3335C8.59695 7.3335 8 7.93045 8 8.66683V10.0002C8 10.7365 8.59695 11.3335 9.33333 11.3335H14V7.3335H9.33333Z" fill="#18202A"/>
<path d="M10.6667 9.3335C10.6667 9.70169 10.3682 10.0002 10 10.0002C9.63181 10.0002 9.33333 9.70169 9.33333 9.3335C9.33333 8.96531 9.63181 8.66683 10 8.66683C10.3682 8.66683 10.6667 8.96531 10.6667 9.3335Z" fill="#18202A"/>
</svg>
