<svg width="16" height="16" viewBox="0 0 16 16" fill="none" xmlns="http://www.w3.org/2000/svg">
<path d="M3.33334 2C2.22877 2 1.33334 2.89543 1.33334 4V4.66667C1.33334 5.77124 2.22877 6.66667 3.33334 6.66667H4.00001C5.10458 6.66667 6.00001 5.77124 6.00001 4.66667V4C6.00001 3.80935 5.97333 3.62493 5.92351 3.45027L4.02023 5.35355C3.82497 5.54882 3.50839 5.54882 3.31312 5.35355L2.31312 4.35355C2.11786 4.15829 2.11786 3.84171 2.31312 3.64645C2.50839 3.45118 2.82497 3.45118 3.02023 3.64645L3.66668 4.29289L5.39386 2.56571C5.03365 2.2156 4.54201 2 4.00001 2H3.33334Z" fill="#18202A"/>
<path d="M5.39386 9.89904C5.03365 9.54893 4.54201 9.33333 4.00001 9.33333H3.33334C2.22877 9.33333 1.33334 10.2288 1.33334 11.3333V12C1.33334 13.1046 2.22877 14 3.33334 14H4.00001C5.10458 14 6.00001 13.1046 6.00001 12V11.3333C6.00001 11.1427 5.97333 10.9583 5.92351 10.7836L4.02023 12.6869C3.82497 12.8821 3.50839 12.8821 3.31312 12.6869L2.31312 11.6869C2.11786 11.4916 2.11786 11.175 2.31312 10.9798C2.50839 10.7845 2.82497 10.7845 3.02023 10.9798L3.66668 11.6262L5.39386 9.89904Z" fill="#18202A"/>
<path d="M7.83334 2.66667C7.5572 2.66667 7.33334 2.89052 7.33334 3.16667C7.33334 3.44281 7.5572 3.66667 7.83334 3.66667H14.1667C14.4428 3.66667 14.6667 3.44281 14.6667 3.16667C14.6667 2.89052 14.4428 2.66667 14.1667 2.66667H7.83334Z" fill="#18202A"/>
<path d="M7.33334 5.5C7.33334 5.22386 7.5572 5 7.83334 5H14.1667C14.4428 5 14.6667 5.22386 14.6667 5.5C14.6667 5.77614 14.4428 6 14.1667 6H7.83334C7.5572 6 7.33334 5.77614 7.33334 5.5Z" fill="#18202A"/>
<path d="M7.83334 10C7.5572 10 7.33334 10.2239 7.33334 10.5C7.33334 10.7761 7.5572 11 7.83334 11H14.1667C14.4428 11 14.6667 10.7761 14.6667 10.5C14.6667 10.2239 14.4428 10 14.1667 10H7.83334Z" fill="#18202A"/>
<path d="M7.33334 12.8333C7.33334 12.5572 7.5572 12.3333 7.83334 12.3333H14.1667C14.4428 12.3333 14.6667 12.5572 14.6667 12.8333C14.6667 13.1095 14.4428 13.3333 14.1667 13.3333H7.83334C7.5572 13.3333 7.33334 13.1095 7.33334 12.8333Z" fill="#18202A"/>
</svg>
