<svg width="16" height="16" viewBox="0 0 16 16" fill="none" xmlns="http://www.w3.org/2000/svg">
<path d="M9.23569 4.97469C9.0257 4.75557 8.66665 4.91076 8.66665 5.22064V6.36801C7.76224 6.3901 6.79276 6.59787 6.03149 7.21092C5.2151 7.86835 4.66665 8.96839 4.66665 10.7138C4.66665 10.7923 4.71703 10.8611 4.7896 10.8816C4.86218 10.9022 4.93898 10.8695 4.97705 10.8019C5.42483 10.0058 5.78037 9.52112 6.31208 9.22361C6.824 8.93716 7.52073 8.81229 8.66665 8.80154V9.94613C8.66665 10.256 9.0257 10.4112 9.23569 10.1921L11.5 7.82933C11.6302 7.6935 11.6302 7.47327 11.5 7.33743L9.23569 4.97469Z" fill="#18202A"/>
<path fill-rule="evenodd" clip-rule="evenodd" d="M0.666667 4.87211C0.666667 3.71952 1.5621 2.78516 2.66667 2.78516H13.3333C14.4379 2.78516 15.3333 3.71952 15.3333 4.87211V10.7824C15.3333 11.935 14.4379 12.8694 13.3333 12.8694H15.5C15.7761 12.8694 16 13.103 16 13.3911C16 13.6793 15.7761 13.9129 15.5 13.9129H0.5C0.223858 13.9129 0 13.6793 0 13.3911C0 13.103 0.223858 12.8694 0.5 12.8694H2.66667C1.5621 12.8694 0.666667 11.935 0.666667 10.7824V4.87211ZM1.66667 4.87211C1.66667 4.29582 2.11438 3.82863 2.66667 3.82863H13.3333C13.8856 3.82863 14.3333 4.29582 14.3333 4.87211V10.7824C14.3333 11.3587 13.8856 11.8259 13.3333 11.8259H2.66667C2.11438 11.8259 1.66667 11.3587 1.66667 10.7824V4.87211Z" fill="#18202A"/>
</svg>
