<svg width="16" height="16" viewBox="0 0 16 16" fill="none" xmlns="http://www.w3.org/2000/svg">
<path fill-rule="evenodd" clip-rule="evenodd" d="M8 10.5C9.38071 10.5 10.5 9.38071 10.5 8C10.5 6.61929 9.38071 5.5 8 5.5C6.61929 5.5 5.5 6.61929 5.5 8C5.5 9.38071 6.61929 10.5 8 10.5ZM8 9.5C8.82843 9.5 9.5 8.82843 9.5 8C9.5 7.17157 8.82843 6.5 8 6.5C7.17157 6.5 6.5 7.17157 6.5 8C6.5 8.82843 7.17157 9.5 8 9.5Z" fill="#18202A"/>
<path fill-rule="evenodd" clip-rule="evenodd" d="M8 3C4.03591 3 1.62382 6.88001 1.10553 7.80415C1.03567 7.92872 1.02997 8.07478 1.09064 8.20407C1.53113 9.14275 3.60839 13 8 13C12.3916 13 14.4689 9.14275 14.9094 8.20407C14.97 8.07478 14.9643 7.92872 14.8945 7.80415C14.3762 6.88001 11.9641 3 8 3ZM2.12563 8.04029C2.39234 8.55093 2.92461 9.43193 3.75727 10.2337C4.74615 11.1859 6.12691 12 8 12C9.8731 12 11.2539 11.1859 12.2427 10.2337C13.0754 9.43194 13.6077 8.55093 13.8744 8.0403C13.5603 7.52241 12.9437 6.61392 12.0572 5.78666C10.9989 4.79917 9.63718 4 8 4C6.36283 4 5.00108 4.79917 3.94282 5.78666C3.05627 6.61392 2.43967 7.52241 2.12563 8.04029Z" fill="#18202A"/>
</svg>
