<svg width="16" height="16" viewBox="0 0 16 16" fill="none" xmlns="http://www.w3.org/2000/svg">
<path fill-rule="evenodd" clip-rule="evenodd" d="M3.00001 8.66683C3.3682 8.66683 3.66668 8.36835 3.66668 8.00016C3.66668 7.63197 3.3682 7.3335 3.00001 7.3335C2.63182 7.3335 2.33334 7.63197 2.33334 8.00016C2.33334 8.36835 2.63182 8.66683 3.00001 8.66683ZM3.00001 9.66683C3.92048 9.66683 4.66668 8.92064 4.66668 8.00016C4.66668 7.07969 3.92048 6.3335 3.00001 6.3335C2.07954 6.3335 1.33334 7.07969 1.33334 8.00016C1.33334 8.92064 2.07954 9.66683 3.00001 9.66683Z" fill="#18202A"/>
<path fill-rule="evenodd" clip-rule="evenodd" d="M8.00001 8.66683C8.3682 8.66683 8.66668 8.36835 8.66668 8.00016C8.66668 7.63197 8.3682 7.3335 8.00001 7.3335C7.63182 7.3335 7.33334 7.63197 7.33334 8.00016C7.33334 8.36835 7.63182 8.66683 8.00001 8.66683ZM8.00001 9.66683C8.92048 9.66683 9.66668 8.92064 9.66668 8.00016C9.66668 7.07969 8.92048 6.3335 8.00001 6.3335C7.07954 6.3335 6.33334 7.07969 6.33334 8.00016C6.33334 8.92064 7.07954 9.66683 8.00001 9.66683Z" fill="#18202A"/>
<path fill-rule="evenodd" clip-rule="evenodd" d="M13 8.66683C13.3682 8.66683 13.6667 8.36835 13.6667 8.00016C13.6667 7.63197 13.3682 7.3335 13 7.3335C12.6318 7.3335 12.3333 7.63197 12.3333 8.00016C12.3333 8.36835 12.6318 8.66683 13 8.66683ZM13 9.66683C13.9205 9.66683 14.6667 8.92064 14.6667 8.00016C14.6667 7.07969 13.9205 6.3335 13 6.3335C12.0795 6.3335 11.3333 7.07969 11.3333 8.00016C11.3333 8.92064 12.0795 9.66683 13 9.66683Z" fill="#18202A"/>
</svg>
