<svg width="16" height="16" viewBox="0 0 16 16" fill="none" xmlns="http://www.w3.org/2000/svg">
<path fill-rule="evenodd" clip-rule="evenodd" d="M2.66667 3.33366C2.66667 1.8609 3.86057 0.666992 5.33333 0.666992H12C13.4728 0.666992 14.6667 1.8609 14.6667 3.33366V12.667C14.6667 14.1398 13.4728 15.3337 12 15.3337H5.33333C3.86057 15.3337 2.66667 14.1398 2.66667 12.667V3.33366ZM8.66667 7.6973C9.47475 7.6973 9.8788 6.93972 9.8788 5.99275C9.8788 5.23517 9.47475 4.66699 8.66667 4.66699C7.85859 4.66699 7.45455 5.23517 7.45455 5.99275C7.45455 6.93972 7.85859 7.6973 8.66667 7.6973ZM6.39376 9.30386C6.12633 9.98103 6.24787 10.1199 6.49097 10.3976C6.98878 10.9662 7.77809 11.3337 8.66667 11.3337C9.55526 11.3337 10.3446 10.9662 10.8424 10.3976C11.0855 10.1199 11.207 9.98103 10.9396 9.30386C10.6722 8.62669 10.4129 8.56585 9.8944 8.44417C9.50317 8.35235 9.09154 8.30336 8.66667 8.30336C8.24181 8.30336 7.83018 8.35235 7.43894 8.44417C6.92044 8.56585 6.66119 8.62669 6.39376 9.30386ZM0.666667 4.00033C0.666667 3.63214 0.965143 3.33366 1.33333 3.33366H2V6.00033H1.33333C0.965143 6.00033 0.666667 5.70185 0.666667 5.33366V4.00033ZM0.666667 7.33366C0.666667 6.96547 0.965143 6.66699 1.33333 6.66699H2V9.33366H1.33333C0.965143 9.33366 0.666667 9.03518 0.666667 8.66699V7.33366ZM1.33333 10.0003C0.965143 10.0003 0.666667 10.2988 0.666667 10.667V12.0003C0.666667 12.3685 0.965143 12.667 1.33333 12.667H2V10.0003H1.33333Z" fill="#18202A"/>
</svg>
