<svg width="16" height="16" viewBox="0 0 16 16" fill="none" xmlns="http://www.w3.org/2000/svg">
<path d="M6.50004 1.33337H9.16537C9.29206 1.33341 9.414 1.38154 9.50657 1.46802C9.59914 1.55451 9.65542 1.67291 9.66406 1.79929C9.67269 1.92568 9.63303 2.05064 9.55309 2.14891C9.47314 2.24718 9.35887 2.31144 9.23337 2.32871L9.16537 2.33337H8.33337V13.6667H9.16337C9.2842 13.6667 9.40094 13.7105 9.49199 13.7899C9.58305 13.8693 9.64228 13.979 9.65871 14.0987L9.66337 14.1667C9.66337 14.2875 9.61961 14.4043 9.5402 14.4953C9.46078 14.5864 9.35108 14.6456 9.23137 14.662L9.16337 14.6667H6.50004C6.37336 14.6667 6.25141 14.6185 6.15885 14.5321C6.06628 14.4456 6.00999 14.3272 6.00136 14.2008C5.99272 14.0744 6.03238 13.9494 6.11233 13.8512C6.19227 13.7529 6.30654 13.6886 6.43204 13.6714L6.50004 13.6667H7.33337V2.33337H6.50004C6.37922 2.33337 6.26248 2.28961 6.17142 2.2102C6.08036 2.13078 6.02114 2.02108 6.00471 1.90137L6.00004 1.83337C6.00005 1.71255 6.0438 1.59581 6.12322 1.50475C6.20263 1.41369 6.31234 1.35447 6.43204 1.33804L6.50004 1.33337H9.16537H6.50004ZM12.164 3.33137C12.7385 3.3319 13.2893 3.56035 13.6955 3.96656C14.1017 4.37277 14.3302 4.92357 14.3307 5.49804L14.3334 10.5007C14.3338 11.0541 14.1223 11.5866 13.7425 11.989C13.3626 12.3914 12.8432 12.6332 12.2907 12.6647L12.1667 12.668H9.00337V11.668H12.2054C12.5082 11.6582 12.7953 11.5308 13.0059 11.3129C13.2164 11.095 13.3339 10.8037 13.3334 10.5007L13.3314 5.49737C13.3308 5.18789 13.2076 4.89125 12.9886 4.67253C12.7696 4.45381 12.4729 4.33088 12.1634 4.33071H9.00337V3.33071H12.1634L12.164 3.33137ZM6.66671 3.33137V4.33137H3.50004C3.19062 4.33137 2.89388 4.45429 2.67508 4.67308C2.45629 4.89187 2.33337 5.18862 2.33337 5.49804V10.5007C2.33337 11.1454 2.85604 11.6674 3.50004 11.6674H6.66337V12.6674H3.50004C2.92541 12.6674 2.3743 12.4391 1.96798 12.0328C1.56165 11.6264 1.33337 11.0753 1.33337 10.5007V5.49804C1.33337 4.9234 1.56165 4.3723 1.96798 3.96598C2.3743 3.55965 2.92541 3.33137 3.50004 3.33137H6.66671Z" fill="#18202A"/>
</svg>
