<svg width="16" height="16" viewBox="0 0 16 16" fill="none" xmlns="http://www.w3.org/2000/svg">
<path d="M5.66671 1.3335C6.0349 1.3335 6.33337 1.63197 6.33337 2.00016C6.33337 2.36835 6.0349 2.66683 5.66671 2.66683H3.33337C2.96518 2.66683 2.66671 2.96531 2.66671 3.3335V5.66683C2.66671 6.03502 2.36823 6.3335 2.00004 6.3335C1.63185 6.3335 1.33337 6.03502 1.33337 5.66683V3.3335C1.33337 2.22893 2.2288 1.3335 3.33337 1.3335H5.66671Z" fill="#18202A"/>
<path d="M9.66671 2.00016C9.66671 2.36835 9.96518 2.66683 10.3334 2.66683H12.6667C13.0349 2.66683 13.3334 2.96531 13.3334 3.3335V5.66683C13.3334 6.03502 13.6319 6.3335 14 6.3335C14.3682 6.3335 14.6667 6.03502 14.6667 5.66683V3.3335C14.6667 2.22893 13.7713 1.3335 12.6667 1.3335H10.3334C9.96518 1.3335 9.66671 1.63197 9.66671 2.00016Z" fill="#18202A"/>
<path d="M9.66671 14.0002C9.66671 13.632 9.96518 13.3335 10.3334 13.3335H12.6667C13.0349 13.3335 13.3334 13.035 13.3334 12.6668V10.3335C13.3334 9.9653 13.6319 9.66683 14 9.66683C14.3682 9.66683 14.6667 9.9653 14.6667 10.3335V12.6668C14.6667 13.7714 13.7713 14.6668 12.6667 14.6668H10.3334C9.96518 14.6668 9.66671 14.3684 9.66671 14.0002Z" fill="#18202A"/>
<path d="M2.66671 10.3335C2.66671 9.96531 2.36823 9.66683 2.00004 9.66683C1.63185 9.66683 1.33337 9.96531 1.33337 10.3335V12.6668C1.33337 13.7714 2.2288 14.6668 3.33337 14.6668H5.66671C6.0349 14.6668 6.33337 14.3684 6.33337 14.0002C6.33337 13.632 6.0349 13.3335 5.66671 13.3335H3.33337C2.96518 13.3335 2.66671 13.035 2.66671 12.6668V10.3335Z" fill="#18202A"/>
</svg>
