<svg width="16" height="16" viewBox="0 0 16 16" fill="none" xmlns="http://www.w3.org/2000/svg">
<g clip-path="url(#clip0_3394_8801)">
<g clip-path="url(#clip1_3394_8801)">
<path d="M12.6667 4.33317C12.6667 4.88546 12.219 5.33317 11.6667 5.33317C11.1144 5.33317 10.6667 4.88546 10.6667 4.33317C10.6667 3.78089 11.1144 3.33317 11.6667 3.33317C12.219 3.33317 12.6667 3.78089 12.6667 4.33317Z" fill="#18202A"/>
<path fill-rule="evenodd" clip-rule="evenodd" d="M12.7619 1.53937L12.6597 1.03965C12.6152 0.822464 12.4242 0.666504 12.2025 0.666504H11.1309C10.9092 0.666504 10.7181 0.822464 10.6737 1.03965L10.5715 1.53937C10.2895 1.64998 10.0284 1.80205 9.79554 1.98807L9.3109 1.82647C9.10059 1.75635 8.86998 1.84386 8.75914 2.03584L8.22335 2.96386C8.1125 3.15585 8.15203 3.39932 8.3179 3.54638L8.69992 3.88508C8.67802 4.03126 8.66668 4.18089 8.66668 4.33317C8.66668 4.48546 8.67802 4.6351 8.69992 4.78128L8.31791 5.11997C8.15203 5.26704 8.11251 5.51051 8.22335 5.70249L8.75914 6.63051C8.86999 6.8225 9.1006 6.91001 9.3109 6.83989L9.79556 6.67829C10.0284 6.8643 10.2895 7.01636 10.5715 7.12698L10.6737 7.62669C10.7181 7.84388 10.9092 7.99984 11.1309 7.99984H12.2025C12.4242 7.99984 12.6152 7.84388 12.6597 7.62669L12.7619 7.12698C13.0438 7.01636 13.305 6.86431 13.5378 6.6783L14.0224 6.8399C14.2327 6.91002 14.4634 6.82252 14.5742 6.63053L15.11 5.70251C15.2208 5.51053 15.1813 5.26706 15.0154 5.11999L14.6334 4.7813C14.6553 4.63511 14.6667 4.48547 14.6667 4.33317C14.6667 4.18088 14.6553 4.03124 14.6334 3.88505L15.0154 3.54637C15.1813 3.3993 15.2208 3.15583 15.11 2.96385L14.5742 2.03583C14.4634 1.84384 14.2328 1.75633 14.0224 1.82645L13.5378 1.98805C13.305 1.80204 13.0438 1.64998 12.7619 1.53937ZM11.2682 2.1254L10.8636 2.2841C10.6574 2.365 10.466 2.47641 10.2949 2.61308L9.95509 2.88456L9.31593 2.67145L9.0522 3.12826L9.55537 3.57437L9.49109 4.00357C9.47505 4.11066 9.46668 4.22068 9.46668 4.33317C9.46668 4.44566 9.47506 4.55569 9.49109 4.66279L9.55538 5.09198L9.0522 5.5381L9.31594 5.99491L9.9551 5.78179L10.2949 6.05327C10.466 6.18994 10.6574 6.30134 10.8636 6.38224L11.2682 6.54094L11.4029 7.19984H11.9304L12.0652 6.54094L12.4697 6.38224C12.6759 6.30134 12.8674 6.18994 13.0384 6.05328L13.3782 5.78181L14.0174 5.99493L14.2811 5.53812L13.778 5.092L13.8423 4.6628C13.8583 4.55571 13.8667 4.44567 13.8667 4.33317C13.8667 4.22068 13.8583 4.11065 13.8423 4.00355L13.778 3.57435L14.2812 3.12824L14.0174 2.67143L13.3783 2.88455L13.0385 2.61307C12.8674 2.4764 12.6759 2.365 12.4697 2.2841L12.0652 2.1254L11.9304 1.4665H11.4029L11.2682 2.1254Z" fill="#18202A"/>
<path fill-rule="evenodd" clip-rule="evenodd" d="M5.33333 12.6665C6.4379 12.6665 7.33333 11.7711 7.33333 10.6665C7.33333 9.56193 6.4379 8.6665 5.33333 8.6665C4.22876 8.6665 3.33333 9.56193 3.33333 10.6665C3.33333 11.7711 4.22876 12.6665 5.33333 12.6665ZM5.33333 11.6665C5.88562 11.6665 6.33333 11.2188 6.33333 10.6665C6.33333 10.1142 5.88562 9.6665 5.33333 9.6665C4.78105 9.6665 4.33333 10.1142 4.33333 10.6665C4.33333 11.2188 4.78105 11.6665 5.33333 11.6665Z" fill="#18202A"/>
<path fill-rule="evenodd" clip-rule="evenodd" d="M10.067 8.86557L9.25984 7.46744C9.14819 7.27406 8.9152 7.18687 8.70402 7.25944L7.84625 7.55422C7.52535 7.2948 7.16352 7.08399 6.77196 6.93301L6.59857 6.04385C6.55583 5.82469 6.36383 5.6665 6.14053 5.6665H4.52611C4.30282 5.6665 4.11081 5.82469 4.06807 6.04385L3.89469 6.93301C3.50309 7.08401 3.14122 7.29484 2.8203 7.5543L1.96255 7.25953C1.75138 7.18695 1.51839 7.27415 1.40674 7.46753L0.59953 8.86565C0.487882 9.05903 0.528867 9.30441 0.697303 9.451L1.38113 10.0462C1.34966 10.2483 1.33332 10.4555 1.33332 10.6665C1.33332 10.8775 1.34966 11.0848 1.38115 11.287L0.697356 11.8821C0.52892 12.0287 0.487934 12.2741 0.599582 12.4674L1.40679 13.8656C1.51844 14.0589 1.75143 14.1461 1.96261 14.0736L2.82039 13.7788C3.14129 14.0382 3.50312 14.249 3.89469 14.4L4.06807 15.2892C4.11081 15.5083 4.30282 15.6665 4.52611 15.6665H6.14053C6.36383 15.6665 6.55583 15.5083 6.59857 15.2892L6.77196 14.4C7.16348 14.249 7.52528 14.0382 7.84616 13.7789L8.70397 14.0737C8.91514 14.1462 9.14814 14.059 9.25978 13.8657L10.067 12.4675C10.1786 12.2741 10.1377 12.0288 9.96922 11.8822L9.28547 11.2871C9.31697 11.0848 9.33332 10.8776 9.33332 10.6665C9.33332 10.4555 9.31698 10.2482 9.28549 10.046L9.96927 9.45092C10.1377 9.30432 10.1787 9.05895 10.067 8.86557ZM4.77037 7.66713L4.25445 7.86606C3.9615 7.97901 3.69015 8.13699 3.44901 8.33194L3.01866 8.67987L2.05308 8.34804L1.68524 8.98514L2.45418 9.65438L2.36923 10.2C2.34565 10.3515 2.33332 10.5072 2.33332 10.6665C2.33332 10.8258 2.34565 10.9816 2.36924 11.1331L2.45422 11.6787L1.6853 12.348L2.05313 12.9851L3.01873 12.6532L3.44908 13.0011C3.6902 13.1961 3.96153 13.354 4.25445 13.467L4.77037 13.6659L4.96549 14.6665H5.70115L5.89627 13.6659L6.41219 13.467C6.70509 13.354 6.97639 13.1961 7.21749 13.0012L7.64783 12.6533L8.61345 12.9851L8.98128 12.348L8.21239 11.6788L8.29739 11.1332C8.32098 10.9817 8.33332 10.8259 8.33332 10.6665C8.33332 10.5072 8.32099 10.3514 8.2974 10.1999L8.21242 9.65426L8.98133 8.98506L8.6135 8.34795L7.64791 8.67979L7.21756 8.33188C6.97644 8.13696 6.70511 7.979 6.41219 7.86606L5.89627 7.66713L5.70115 6.6665H4.96549L4.77037 7.66713Z" fill="#18202A"/>
</g>
</g>
<defs>
<clipPath id="clip0_3394_8801">
<rect width="16" height="16" fill="white"/>
</clipPath>
<clipPath id="clip1_3394_8801">
<rect width="16" height="16" fill="white"/>
</clipPath>
</defs>
</svg>
