<svg width="16" height="16" viewBox="0 0 16 16" fill="none" xmlns="http://www.w3.org/2000/svg">
<g clip-path="url(#clip0_2266_40448)">
<path fill-rule="evenodd" clip-rule="evenodd" d="M14.3333 5.6665H1.66666V12.6665C1.66666 13.587 2.41285 14.3332 3.33332 14.3332H12.6667C13.5871 14.3332 14.3333 13.587 14.3333 12.6665V5.6665ZM0.666656 4.6665V12.6665C0.666656 14.1393 1.86056 15.3332 3.33332 15.3332H12.6667C14.1394 15.3332 15.3333 14.1393 15.3333 12.6665V4.6665H0.666656Z" fill="#18202A"/>
<path fill-rule="evenodd" clip-rule="evenodd" d="M6.99999 8.97231V11.0207L8.6911 9.99651L6.99999 8.97231ZM5.99999 8.29612C5.99999 7.81266 6.52251 7.51403 6.93322 7.76277L9.74082 9.46316C10.1397 9.70474 10.1397 10.2883 9.74082 10.5299L6.93322 12.2302C6.52251 12.479 5.99999 12.1804 5.99999 11.6969V8.29612Z" fill="#18202A"/>
<path d="M4.66666 1.33317H6.33332L2.99999 5.33317H1.33332L4.66666 1.33317Z" fill="#18202A"/>
<path d="M8.66666 1.33317H10.3333L6.99999 5.33317H5.33332L8.66666 1.33317Z" fill="#18202A"/>
<path d="M12.6667 1.33317H14.3333L11 5.33317H9.33332L12.6667 1.33317Z" fill="#18202A"/>
<path fill-rule="evenodd" clip-rule="evenodd" d="M12.6667 1.6665H3.33332C2.41285 1.6665 1.66666 2.4127 1.66666 3.33317V4.6665H14.3333V3.33317C14.3333 2.4127 13.5871 1.6665 12.6667 1.6665ZM3.33332 0.666504C1.86056 0.666504 0.666656 1.86041 0.666656 3.33317V5.6665H15.3333V3.33317C15.3333 1.86041 14.1394 0.666504 12.6667 0.666504H3.33332Z" fill="#18202A"/>
</g>
<defs>
<clipPath id="clip0_2266_40448">
<rect width="16" height="16" fill="white"/>
</clipPath>
</defs>
</svg>
