<svg width="16" height="16" viewBox="0 0 16 16" fill="none" xmlns="http://www.w3.org/2000/svg">
<g clip-path="url(#clip0_2266_40657)">
<path fill-rule="evenodd" clip-rule="evenodd" d="M10.6667 3.58366C10.6667 5.66699 9.77777 7.33366 7.99999 7.33366C6.22221 7.33366 5.33332 5.66699 5.33332 3.58366C5.33332 1.91699 6.22221 0.666992 7.99999 0.666992C9.77777 0.666992 10.6667 1.91699 10.6667 3.58366ZM9.66666 3.58366C9.66666 4.5024 9.46777 5.22838 9.164 5.69116C8.88715 6.11292 8.52169 6.33366 7.99999 6.33366C7.47829 6.33366 7.11283 6.11292 6.83598 5.69116C6.53221 5.22838 6.33332 4.5024 6.33332 3.58366C6.33332 2.9171 6.51135 2.44163 6.76068 2.14944C6.99073 1.87985 7.364 1.66699 7.99999 1.66699C8.63598 1.66699 9.00925 1.87985 9.2393 2.14944C9.48863 2.44163 9.66666 2.9171 9.66666 3.58366ZM8.65745 14.3144C8.79909 14.6587 8.98381 14.9808 9.20489 15.2739C8.80862 15.3134 8.40667 15.3337 7.99999 15.3337C6.96839 15.3337 5.9672 15.2035 5.01194 14.9587C4.19924 14.7504 3.51045 14.206 3.13322 13.4567C3.0214 13.2345 2.91712 13.008 2.82071 12.7773C2.41103 11.7971 2.5743 10.6503 3.33287 9.90649C4.53541 8.72739 6.18279 8.00033 7.99999 8.00033C9.05922 8.00033 10.0607 8.24735 10.9501 8.68694C10.5703 8.85095 10.2187 9.06772 9.90441 9.32802C9.30934 9.11578 8.66833 9.00033 7.99999 9.00033C6.45503 9.00033 5.05616 9.61728 4.03298 10.6205C3.60375 11.0414 3.47042 11.7386 3.74336 12.3917C3.83068 12.6006 3.92514 12.8058 4.02644 13.007C4.27065 13.4922 4.72062 13.8517 5.26019 13.99C6.13502 14.2142 7.05283 14.3337 7.99999 14.3337C8.22079 14.3337 8.44 14.3272 8.65745 14.3144ZM16 12.667C16 14.5079 14.5076 16.0003 12.6667 16.0003C10.8257 16.0003 9.33332 14.5079 9.33332 12.667C9.33332 10.826 10.8257 9.33366 12.6667 9.33366C14.5076 9.33366 16 10.826 16 12.667ZM14.3166 11.0171C14.5118 11.2124 14.5118 11.5289 14.3166 11.7242L13.3738 12.667L14.3166 13.6098C14.5118 13.8051 14.5118 14.1217 14.3166 14.3169C14.1213 14.5122 13.8047 14.5122 13.6095 14.3169L12.6667 13.3741L11.7238 14.3169C11.5286 14.5122 11.212 14.5122 11.0167 14.3169C10.8215 14.1217 10.8215 13.8051 11.0167 13.6098L11.9595 12.667L11.0167 11.7242C10.8215 11.5289 10.8215 11.2124 11.0167 11.0171C11.212 10.8218 11.5286 10.8218 11.7238 11.0171L12.6667 11.9599L13.6095 11.0171C13.8047 10.8218 14.1213 10.8218 14.3166 11.0171Z" fill="#18202A"/>
</g>
<defs>
<clipPath id="clip0_2266_40657">
<rect width="16" height="16" fill="white"/>
</clipPath>
</defs>
</svg>
