<svg width="16" height="16" viewBox="0 0 16 16" fill="none" xmlns="http://www.w3.org/2000/svg">
<g clip-path="url(#clip0_2266_39884)">
<path fill-rule="evenodd" clip-rule="evenodd" d="M8.00001 1.8335C5.69768 1.8335 3.68935 3.09497 2.62961 4.96685L1.75939 4.47418C2.98938 2.30158 5.32293 0.833496 8.00001 0.833496C11.9581 0.833496 15.1667 4.04212 15.1667 8.00016C15.1667 11.9582 11.9581 15.1668 8.00001 15.1668C4.04197 15.1668 0.833344 11.9582 0.833344 8.00016C0.833344 7.63165 0.861199 7.26936 0.914983 6.91536C0.956461 6.64235 1.22574 6.4731 1.49518 6.53359C1.76461 6.59407 1.93188 6.86142 1.89351 7.13488C1.85387 7.41741 1.83334 7.70627 1.83334 8.00016C1.83334 11.4059 4.59425 14.1668 8.00001 14.1668C11.4058 14.1668 14.1667 11.4059 14.1667 8.00016C14.1667 4.59441 11.4058 1.8335 8.00001 1.8335Z" fill="#18202A"/>
<path fill-rule="evenodd" clip-rule="evenodd" d="M1.66266 1.97049C1.9346 1.92254 2.19393 2.10412 2.24188 2.37607L2.56435 4.20488L4.39316 3.88241C4.66511 3.83446 4.92444 4.01604 4.97239 4.28799C5.02034 4.55993 4.83876 4.81926 4.56681 4.86722L2.2456 5.27651C1.97365 5.32446 1.71432 5.14288 1.66637 4.87093L1.25708 2.54971C1.20913 2.27777 1.39071 2.01844 1.66266 1.97049Z" fill="#18202A"/>
<path d="M7.50001 3.8335C7.50001 3.55735 7.72387 3.3335 8.00001 3.3335C8.27615 3.3335 8.50001 3.55735 8.50001 3.8335V8.00016C8.50001 8.2763 8.27615 8.50016 8.00001 8.50016C7.72387 8.50016 7.50001 8.2763 7.50001 8.00016V3.8335Z" fill="#18202A"/>
<path d="M11.5 7.50016C11.7762 7.50016 12 7.72402 12 8.00016C12 8.2763 11.7762 8.50016 11.5 8.50016H8.00001C7.72387 8.50016 7.50001 8.2763 7.50001 8.00016C7.50001 7.72402 7.72387 7.50016 8.00001 7.50016H11.5Z" fill="#18202A"/>
</g>
<defs>
<clipPath id="clip0_2266_39884">
<rect width="16" height="16" fill="white"/>
</clipPath>
</defs>
</svg>
