<svg width="16" height="16" viewBox="0 0 16 16" fill="none" xmlns="http://www.w3.org/2000/svg">
<path d="M3.33333 6.66667C4.06971 6.66667 4.66667 6.06971 4.66667 5.33333C4.66667 4.59695 4.06971 4 3.33333 4C2.59695 4 2 4.59695 2 5.33333C2 6.06971 2.59695 6.66667 3.33333 6.66667Z" fill="#18202A"/>
<path d="M3.33333 12C4.06971 12 4.66667 11.403 4.66667 10.6667C4.66667 9.93029 4.06971 9.33333 3.33333 9.33333C2.59695 9.33333 2 9.93029 2 10.6667C2 11.403 2.59695 12 3.33333 12Z" fill="#18202A"/>
<path d="M9.33333 5.33333C9.33333 6.06971 8.73638 6.66667 8 6.66667C7.26362 6.66667 6.66667 6.06971 6.66667 5.33333C6.66667 4.59695 7.26362 4 8 4C8.73638 4 9.33333 4.59695 9.33333 5.33333Z" fill="#18202A"/>
<path d="M9.33333 10.6667C9.33333 11.403 8.73638 12 8 12C7.26362 12 6.66667 11.403 6.66667 10.6667C6.66667 9.93029 7.26362 9.33333 8 9.33333C8.73638 9.33333 9.33333 9.93029 9.33333 10.6667Z" fill="#18202A"/>
<path d="M14 10.6667C14 11.403 13.403 12 12.6667 12C11.9303 12 11.3333 11.403 11.3333 10.6667C11.3333 9.93029 11.9303 9.33333 12.6667 9.33333C13.403 9.33333 14 9.93029 14 10.6667Z" fill="#18202A"/>
<path d="M14 5.33333C14 6.06971 13.403 6.66667 12.6667 6.66667C11.9303 6.66667 11.3333 6.06971 11.3333 5.33333C11.3333 4.59695 11.9303 4 12.6667 4C13.403 4 14 4.59695 14 5.33333Z" fill="#18202A"/>
</svg>
