<svg width="16" height="16" viewBox="0 0 16 16" fill="none" xmlns="http://www.w3.org/2000/svg">
<g clip-path="url(#clip0_2266_35850)">
<path fill-rule="evenodd" clip-rule="evenodd" d="M8 14.0001C11.3137 14.0001 14 11.3138 14 8.00008C14 4.68637 11.3137 2.00008 8 2.00008C4.68629 2.00008 2 4.68637 2 8.00008C2 11.3138 4.68629 14.0001 8 14.0001ZM15.3333 8.00008C15.3333 12.0502 12.0501 15.3334 8 15.3334C3.94991 15.3334 0.666667 12.0502 0.666667 8.00008C0.666667 3.94999 3.94991 0.666748 8 0.666748C12.0501 0.666748 15.3333 3.94999 15.3333 8.00008Z" fill="#18202A"/>
<path fill-rule="evenodd" clip-rule="evenodd" d="M13.1381 2.86201C12.8777 2.60166 12.4556 2.60166 12.1953 2.86201L2.86193 12.1953C2.60158 12.4557 2.60158 12.8778 2.86193 13.1382C3.12228 13.3985 3.54439 13.3985 3.80474 13.1382L13.1381 3.80482C13.3984 3.54447 13.3984 3.12236 13.1381 2.86201Z" fill="#18202A"/>
</g>
<defs>
<clipPath id="clip0_2266_35850">
<rect width="16" height="16" fill="white"/>
</clipPath>
</defs>
</svg>
