<svg width="16" height="16" viewBox="0 0 16 16" fill="none" xmlns="http://www.w3.org/2000/svg">
<g clip-path="url(#clip0_2266_38772)">
<path fill-rule="evenodd" clip-rule="evenodd" d="M12.6667 1.66699H3.33332C2.41285 1.66699 1.66666 2.41318 1.66666 3.33366V12.667C1.66666 13.5875 2.41285 14.3337 3.33332 14.3337H12.6667C13.5871 14.3337 14.3333 13.5875 14.3333 12.667V3.33366C14.3333 2.41318 13.5871 1.66699 12.6667 1.66699ZM3.33332 0.666992C1.86056 0.666992 0.666656 1.8609 0.666656 3.33366V12.667C0.666656 14.1398 1.86056 15.3337 3.33332 15.3337H12.6667C14.1394 15.3337 15.3333 14.1398 15.3333 12.667V3.33366C15.3333 1.8609 14.1394 0.666992 12.6667 0.666992H3.33332ZM2.66666 4.00033C2.66666 3.26395 3.26361 2.66699 3.99999 2.66699C4.73637 2.66699 5.33332 3.26395 5.33332 4.00033C5.33332 4.73671 4.73637 5.33366 3.99999 5.33366C3.26361 5.33366 2.66666 4.73671 2.66666 4.00033ZM7.16666 3.50033C6.89051 3.50033 6.66666 3.72418 6.66666 4.00033C6.66666 4.27647 6.89051 4.50033 7.16666 4.50033H12.5C12.7761 4.50033 13 4.27647 13 4.00033C13 3.72418 12.7761 3.50033 12.5 3.50033H7.16666ZM3.99999 7.33366H12C12.1841 7.33366 12.3333 7.4829 12.3333 7.66699V12.0003C12.3333 12.1844 12.1841 12.3337 12 12.3337H3.99999C3.8159 12.3337 3.66666 12.1844 3.66666 12.0003V7.66699C3.66666 7.4829 3.81589 7.33366 3.99999 7.33366ZM2.66666 7.66699C2.66666 6.93061 3.26361 6.33366 3.99999 6.33366H12C12.7364 6.33366 13.3333 6.93061 13.3333 7.66699V12.0003C13.3333 12.7367 12.7364 13.3337 12 13.3337H3.99999C3.26361 13.3337 2.66666 12.7367 2.66666 12.0003V7.66699Z" fill="#18202A"/>
</g>
<defs>
<clipPath id="clip0_2266_38772">
<rect width="16" height="16" fill="white"/>
</clipPath>
</defs>
</svg>
