<svg width="16" height="16" viewBox="0 0 16 16" fill="none" xmlns="http://www.w3.org/2000/svg">
<path d="M6.66671 2C4.57843 2 3.33337 3.6876 3.33337 5.33333C3.33337 5.55622 3.35621 5.77987 3.40089 6H4.7765C4.70429 5.7868 4.66671 5.56111 4.66671 5.33333C4.66671 4.3124 5.42165 3.33333 6.66671 3.33333H9.33337C9.90115 3.33333 10.4308 3.4773 10.7969 3.72137C11.1433 3.95227 11.3334 4.2586 11.3334 4.66667C11.3334 5.03486 11.6319 5.33333 12 5.33333C12.3682 5.33333 12.6667 5.03486 12.6667 4.66667C12.6667 3.7414 12.1902 3.04773 11.5365 2.61197C10.9026 2.18937 10.0989 2 9.33337 2H6.66671Z" fill="#18202A"/>
<path d="M1.33337 8C1.33337 7.63181 1.63185 7.33333 2.00004 7.33333H14C14.3682 7.33333 14.6667 7.63181 14.6667 8C14.6667 8.36819 14.3682 8.66667 14 8.66667H12.654C13.0938 9.20788 13.3334 9.8898 13.3334 10.6667C13.3334 11.7109 12.8789 12.571 12.1244 13.1529C11.3862 13.7223 10.3983 14 9.33337 14H6.00004C3.91177 14 2.66671 12.3124 2.66671 10.6667C2.66671 10.2985 2.96518 10 3.33337 10C3.70156 10 4.00004 10.2985 4.00004 10.6667C4.00004 11.6876 4.75498 12.6667 6.00004 12.6667H9.33337C10.1811 12.6667 10.8599 12.4444 11.3101 12.0971C11.7441 11.7624 12 11.2891 12 10.6667C12 10.0299 11.7545 9.55965 11.3382 9.23255C10.9042 8.89156 10.2304 8.66667 9.33337 8.66667H2.00004C1.63185 8.66667 1.33337 8.36819 1.33337 8Z" fill="#18202A"/>
</svg>
