<svg width="16" height="16" viewBox="0 0 16 16" fill="none" xmlns="http://www.w3.org/2000/svg">
<path fill-rule="evenodd" clip-rule="evenodd" d="M6.54534 3.29289L7.58578 4.33333H12.6667C13.5871 4.33333 14.3333 5.07953 14.3333 6H1.66666V4.66667C1.66666 3.74619 2.41285 3 3.33332 3H5.83823C6.10345 3 6.3578 3.10536 6.54534 3.29289ZM1.66666 6.66667V11.3333C1.66666 12.2538 2.41285 13 3.33332 13H12.6667C13.5871 13 14.3333 12.2538 14.3333 11.3333V6.66667H1.66666ZM0.666656 4.66667C0.666656 3.19391 1.86056 2 3.33332 2H5.83823C6.36866 2 6.87737 2.21071 7.25244 2.58579L7.99999 3.33333H12.6667C14.1394 3.33333 15.3333 4.52724 15.3333 6V11.3333C15.3333 12.8061 14.1394 14 12.6667 14H3.33332C1.86056 14 0.666656 12.8061 0.666656 11.3333V4.66667Z" fill="#18202A"/>
</svg>
