<svg width="16" height="16" viewBox="0 0 16 16" fill="none" xmlns="http://www.w3.org/2000/svg">
<g clip-path="url(#clip0_2266_35886)">
<path fill-rule="evenodd" clip-rule="evenodd" d="M15.3333 8.00008C15.3333 12.0502 12.0501 15.3334 8 15.3334C3.94991 15.3334 0.666667 12.0502 0.666667 8.00008C0.666667 3.94999 3.94991 0.666748 8 0.666748C12.0501 0.666748 15.3333 3.94999 15.3333 8.00008ZM7 5.00008C7 4.4478 7.44772 4.00008 8 4.00008C8.55228 4.00008 9 4.4478 9 5.00008C9 5.55237 8.55228 6.00008 8 6.00008C7.44772 6.00008 7 5.55237 7 5.00008ZM6 7.33342C6 6.96523 6.29848 6.66675 6.66667 6.66675H8C8.36819 6.66675 8.66667 6.96523 8.66667 7.33342V10.6667H9.33333C9.70152 10.6667 10 10.9652 10 11.3334C10 11.7016 9.70152 12.0001 9.33333 12.0001H6.66667C6.29848 12.0001 6 11.7016 6 11.3334C6 10.9652 6.29848 10.6667 6.66667 10.6667H7.33333V8.00008H6.66667C6.29848 8.00008 6 7.7016 6 7.33342Z" fill="#18202A"/>
</g>
<defs>
<clipPath id="clip0_2266_35886">
<rect width="16" height="16" fill="white"/>
</clipPath>
</defs>
</svg>
