<svg width="16" height="16" viewBox="0 0 16 16" fill="none" xmlns="http://www.w3.org/2000/svg">
<path fill-rule="evenodd" clip-rule="evenodd" d="M6.31782 9.29022C6.69396 8.00846 6.80125 6.41701 6.66656 4.6461C6.65562 3.55093 5.76443 2.6665 4.66667 2.6665H4C2.89543 2.6665 2 3.56193 2 4.6665V5.33317C2 6.43774 2.89543 7.33317 4 7.33317C4.47025 7.33317 4.8523 7.41716 5.08448 7.62354C5.27954 7.79693 5.48638 8.16789 5.34539 9.05209C5.26983 9.30323 5.18326 9.537 5.08598 9.7524C4.56441 10.9073 3.7609 11.4999 2.66667 11.4999C2.39052 11.4999 2.16667 11.7237 2.16667 11.9999C2.16667 12.276 2.39052 12.4999 2.66667 12.4999C4.2391 12.4999 5.35226 11.5924 5.99735 10.164C6.12388 9.88381 6.24196 9.58872 6.31782 9.29022Z" fill="#18202A"/>
<path fill-rule="evenodd" clip-rule="evenodd" d="M13.6512 9.2902C14.0273 8.00845 14.1346 6.417 13.9999 4.6461C13.989 3.55093 13.0978 2.6665 12 2.6665H11.3333C10.2288 2.6665 9.33333 3.56193 9.33333 4.6665V5.33317C9.33333 6.43774 10.2288 7.33317 11.3333 7.33317C11.8036 7.33317 12.1856 7.41716 12.4178 7.62354C12.6129 7.79693 12.8197 8.16789 12.6787 9.05209C12.6032 9.30323 12.5166 9.537 12.4193 9.7524C11.8977 10.9073 11.0942 11.4999 10 11.4999C9.72386 11.4999 9.5 11.7237 9.5 11.9999C9.5 12.276 9.72386 12.4999 10 12.4999C11.5724 12.4999 12.6856 11.5924 13.3307 10.164C13.4572 9.88381 13.5753 9.58871 13.6512 9.2902Z" fill="#18202A"/>
</svg>
