<svg width="16" height="16" viewBox="0 0 16 16" fill="none" xmlns="http://www.w3.org/2000/svg">
<g clip-path="url(#clip0_3240_8935)">
<path d="M1.49478 10.7289C1.55969 10.9711 1.64969 11.2 1.76123 11.4134L2.78441 10.3902L2.78268 10.3838L1.40231 5.23217C1.11643 4.16523 1.74959 3.06856 2.81652 2.78268L7.96813 1.40231C9.01947 1.1206 10.0997 1.73128 10.4046 2.77003L11.4213 1.75334C10.7058 0.422026 9.14622 -0.29373 7.62303 0.114408L2.47143 1.49478C0.69321 1.97125 -0.362065 3.79904 0.114408 5.57726L1.49478 10.7289Z" fill="#18202A"/>
<path fill-rule="evenodd" clip-rule="evenodd" d="M3.71866 13.225L1.85114 15.0925C1.55618 15.3875 1.10582 15.4153 0.84524 15.1548C0.584658 14.8942 0.612529 14.4438 0.907492 14.1489L14.1489 0.90749C14.4438 0.612528 14.8942 0.584657 15.1548 0.845239C15.4153 1.10582 15.3875 1.55618 15.0925 1.85114L12.9104 4.03327L12.9619 4.03777C14.7959 4.19822 16.1525 5.815 15.992 7.64894L15.5272 12.962C15.3668 14.7959 13.75 16.1526 11.9161 15.9921L6.60301 15.5273C5.22515 15.4067 4.11671 14.4641 3.71866 13.225ZM4.9002 12.0435L7.513 9.43065L9.00163 10.6111L12.4053 8.15491L14.3998 10.5501L14.2348 12.4357L12.1768 9.9641L8.96372 12.2827L7.38445 11.0304L4.97761 12.7823C4.90761 12.5496 4.87916 12.3001 4.9002 12.0435ZM9.47441 7.46924C9.31392 8.01862 8.88148 8.44212 8.34375 8.5999L9.47441 7.46924Z" fill="#18202A"/>
<path d="M3.79478 9.37982L6.20841 6.96619C6.2092 6.92928 6.21121 6.89215 6.21447 6.85484C6.28943 5.99809 7.00004 5.34968 7.84096 5.33364L9.44456 3.73004L7.64888 3.57294C5.81494 3.41249 4.19816 4.76913 4.03771 6.60307L3.79478 9.37982Z" fill="#18202A"/>
</g>
<defs>
<clipPath id="clip0_3240_8935">
<rect width="16" height="16" fill="white"/>
</clipPath>
</defs>
</svg>
