<svg width="16" height="16" viewBox="0 0 16 16" fill="none" xmlns="http://www.w3.org/2000/svg">
<g clip-path="url(#clip0_2266_39665)">
<path fill-rule="evenodd" clip-rule="evenodd" d="M2.47097 3.18223L1.48066 2.19192C1.28421 1.99547 1.28421 1.67696 1.48066 1.48051C1.67711 1.28406 1.99563 1.28406 2.19208 1.48051L14.5193 13.8077C14.7158 14.0042 14.7158 14.3227 14.5193 14.5192C14.3229 14.7156 14.0044 14.7156 13.8079 14.5192L12.8176 13.5289C11.529 14.6526 9.84399 15.3332 7.99999 15.3332C3.9499 15.3332 0.666656 12.0499 0.666656 7.99984C0.666656 6.15584 1.34726 4.4708 2.47097 3.18223ZM12.1086 12.8198C11.0026 13.7635 9.56781 14.3332 7.99999 14.3332C4.50219 14.3332 1.66666 11.4976 1.66666 7.99984C1.66666 6.43202 2.23634 4.99726 3.18 3.89126L5.50566 6.21692L4.71814 6.33598C4.43101 6.37938 4.25424 6.59298 4.19391 6.79871C4.13374 7.00389 4.16839 7.26192 4.35579 7.45312L5.71072 8.83558L5.38833 10.7986C5.34793 11.0446 5.44591 11.2799 5.62451 11.424C5.80703 11.5712 6.08254 11.6246 6.33249 11.4873L7.99999 10.5712L9.66749 11.4873C9.91744 11.6246 10.193 11.5712 10.3755 11.424C10.4381 11.3735 10.4908 11.3118 10.5311 11.2423L12.1086 12.8198ZM9.50215 10.2134L6.38421 7.09547L5.53177 7.22434L6.77963 8.49755L6.49024 10.2596L7.99999 9.4302L9.50974 10.2596L9.50215 10.2134ZM7.09066 4.96583L7.84191 5.71709L7.99999 5.38206L8.44051 6.31568L9.15003 7.0252L10.4682 7.22584L9.91468 7.78986L10.6218 8.49699L11.6439 7.45563C11.8314 7.26456 11.8662 7.00658 11.8062 6.80138C11.746 6.59564 11.5695 6.38194 11.2825 6.33825L9.42337 6.05529L8.58235 4.27284C8.34769 3.7755 7.6523 3.7755 7.41764 4.27284L7.09066 4.96583ZM14.3333 7.99984C14.3333 9.20421 13.9971 10.3301 13.4135 11.2887L14.1384 12.0136C14.894 10.8604 15.3333 9.48143 15.3333 7.99984C15.3333 3.94975 12.0501 0.666504 7.99999 0.666504C6.5184 0.666504 5.13942 1.10588 3.98626 1.86143L4.71114 2.58631C5.66976 2.00268 6.79562 1.6665 7.99999 1.6665C11.4978 1.6665 14.3333 4.50203 14.3333 7.99984Z" fill="#18202A"/>
</g>
<defs>
<clipPath id="clip0_2266_39665">
<rect width="16" height="16" fill="white"/>
</clipPath>
</defs>
</svg>
