<svg width="16" height="16" viewBox="0 0 16 16" fill="none" xmlns="http://www.w3.org/2000/svg">
<path fill-rule="evenodd" clip-rule="evenodd" d="M2.17857 1.51158C2.43915 1.251 2.88951 1.27887 3.18447 1.57383L13.7592 12.1485C14.0541 12.4435 14.082 12.8939 13.8214 13.1544C13.5608 13.415 13.1105 13.3871 12.8155 13.0922L2.24082 2.51748C1.94586 2.22252 1.91799 1.77216 2.17857 1.51158Z" fill="#18202A"/>
<path d="M10.751 7.25862C11.2814 7.49921 11.7747 7.80723 12.22 8.17174C12.5049 8.40496 12.9251 8.40791 13.1854 8.14756C13.4458 7.88721 13.4475 7.46271 13.1665 7.22479C11.9813 6.2213 10.5001 5.55656 8.87242 5.38003L10.751 7.25862Z" fill="#18202A"/>
<path d="M8.27884 6.67207L7.00149 5.39472C5.42344 5.59119 3.98806 6.24727 2.83352 7.2248C2.55252 7.46271 2.55419 7.88721 2.81454 8.14756C3.07489 8.40791 3.49509 8.40496 3.77999 8.17174C4.92936 7.23086 6.39875 6.66634 7.99999 6.66634C8.0934 6.66634 8.18636 6.66826 8.27884 6.67207Z" fill="#18202A"/>
<path d="M6.88668 3.39428C7.2522 3.35379 7.62367 3.33301 7.99999 3.33301C10.5217 3.33301 12.8253 4.26638 14.5844 5.80648C14.8614 6.04902 15.2821 6.05088 15.5425 5.79053C15.8028 5.53018 15.8041 5.10646 15.529 4.86177C13.5271 3.08128 10.8899 1.99967 7.99999 1.99967C7.21946 1.99967 6.45737 2.07858 5.72123 2.22884L6.88668 3.39428Z" fill="#18202A"/>
<path d="M4.24375 2.63698L5.30667 3.69989C3.84795 4.10688 2.52371 4.83629 1.4156 5.80649C1.13858 6.04903 0.717868 6.05089 0.457519 5.79054C0.197169 5.53019 0.195913 5.10646 0.471031 4.86177C1.56088 3.89245 2.83904 3.13027 4.24375 2.63698Z" fill="#18202A"/>
<path d="M10.7966 9.59677C11.0912 9.81762 11.0888 10.2442 10.8284 10.5046C10.5681 10.7649 10.1487 10.7581 9.84198 10.5544C9.31428 10.2039 8.68098 9.99967 7.99999 9.99967C7.319 9.99967 6.68571 10.2039 6.15801 10.5544C5.85131 10.7581 5.43192 10.7649 5.17157 10.5046C4.91122 10.2442 4.90882 9.81762 5.20341 9.59677C5.98278 9.01248 6.95096 8.66634 7.99999 8.66634C9.04902 8.66634 10.0172 9.01248 10.7966 9.59677Z" fill="#18202A"/>
<path d="M9.33333 13.333C9.33333 14.0694 8.73637 14.6663 7.99999 14.6663C7.26361 14.6663 6.66666 14.0694 6.66666 13.333C6.66666 12.5966 7.26361 11.9997 7.99999 11.9997C8.73637 11.9997 9.33333 12.5966 9.33333 13.333Z" fill="#18202A"/>
</svg>
