<svg width="16" height="16" viewBox="0 0 16 16" fill="none" xmlns="http://www.w3.org/2000/svg">
<path fill-rule="evenodd" clip-rule="evenodd" d="M2.86189 1.52851C3.12224 1.26816 3.54435 1.26816 3.8047 1.52851C4.06505 1.78886 4.06505 2.21097 3.8047 2.47132L1.8047 4.47132C1.54435 4.73167 1.12224 4.73167 0.861888 4.47132C0.601539 4.21097 0.601539 3.78886 0.861888 3.52851L2.86189 1.52851ZM7.99996 15.3333C11.6819 15.3333 14.6666 12.3485 14.6666 8.66658C14.6666 4.98469 11.6819 1.99992 7.99996 1.99992C4.31806 1.99992 1.33329 4.98469 1.33329 8.66658C1.33329 12.3485 4.31806 15.3333 7.99996 15.3333ZM8.66663 4.66658C8.66663 4.2984 8.36815 3.99992 7.99996 3.99992C7.63177 3.99992 7.33329 4.2984 7.33329 4.66658V8.66658C7.33329 8.93327 7.49222 9.1743 7.73735 9.27935L10.0707 10.2793C10.4091 10.4244 10.801 10.2676 10.9461 9.9292C11.0911 9.59078 10.9343 9.19886 10.5959 9.05382L8.66663 8.22699V4.66658ZM12.1952 2.47132C11.9349 2.21097 11.9349 1.78886 12.1952 1.52851C12.4556 1.26816 12.8777 1.26816 13.138 1.52851L15.138 3.52851C15.3984 3.78886 15.3984 4.21097 15.138 4.47132C14.8777 4.73167 14.4556 4.73167 14.1952 4.47132L12.1952 2.47132Z" fill="#18202A"/>
</svg>
