<svg width="16" height="16" viewBox="0 0 16 16" fill="none" xmlns="http://www.w3.org/2000/svg">
<path fill-rule="evenodd" clip-rule="evenodd" d="M8 7.33366C9.77778 7.33366 10.6667 5.66699 10.6667 3.58366C10.6667 1.91699 9.77778 0.666992 8 0.666992C6.22222 0.666992 5.33333 1.91699 5.33333 3.58366C5.33333 5.66699 6.22222 7.33366 8 7.33366ZM8.00003 8.66699C8.6485 8.66699 9.27535 8.75958 9.86807 8.93226C8.73378 9.78358 7.99999 11.1396 7.99999 12.667C7.99999 13.6465 8.3018 14.5556 8.81748 15.3063C8.54734 15.3244 8.27475 15.3337 8.00001 15.3337C6.96841 15.3337 5.96722 15.2035 5.01195 14.9587C4.19926 14.7504 3.51047 14.206 3.13324 13.4567L3.10211 13.3943C2.58063 12.3412 2.75796 11.0511 3.64778 10.2835C4.81564 9.27614 6.3367 8.66699 8.00003 8.66699ZM12.6667 14.667C13.7712 14.667 14.6667 13.7716 14.6667 12.667C14.6667 12.3581 14.5967 12.0656 14.4716 11.8045L11.8043 14.472C12.0654 14.597 12.3578 14.667 12.6667 14.667ZM13.5287 10.8618L10.8615 13.5291C10.7366 13.2681 10.6667 12.9757 10.6667 12.667C10.6667 11.5624 11.5621 10.667 12.6667 10.667C12.9753 10.667 13.2677 10.7369 13.5287 10.8618ZM12.6667 16.0003C14.5076 16.0003 16 14.5079 16 12.667C16 10.826 14.5076 9.33366 12.6667 9.33366C10.8257 9.33366 9.33333 10.826 9.33333 12.667C9.33333 14.5079 10.8257 16.0003 12.6667 16.0003Z" fill="#18202A"/>
</svg>
