<svg width="16" height="16" viewBox="0 0 16 16" fill="none" xmlns="http://www.w3.org/2000/svg">
<path d="M12.0817 3.07467L13.4864 6.164C13.7617 6.21933 14.0297 6.28 14.2891 6.346C14.3535 6.36134 14.4143 6.38934 14.4679 6.42837C14.5214 6.4674 14.5667 6.51668 14.601 6.57336C14.6353 6.63003 14.658 6.69297 14.6678 6.7585C14.6776 6.82404 14.6743 6.89086 14.6581 6.9551C14.6418 7.01934 14.6129 7.0797 14.5731 7.13269C14.5333 7.18567 14.4834 7.23022 14.4263 7.26373C14.3691 7.29725 14.3058 7.31908 14.2402 7.32793C14.1745 7.33679 14.1077 7.33251 14.0437 7.31533C13.7131 7.23232 13.3801 7.1594 13.0451 7.09667C10.0091 6.52333 5.99174 6.52333 2.95641 7.09667C2.62089 7.1592 2.2874 7.23212 1.95641 7.31533C1.89276 7.33149 1.82655 7.33494 1.76157 7.32551C1.69659 7.31608 1.6341 7.29394 1.57767 7.26035C1.46371 7.19253 1.38136 7.08221 1.34874 6.95367C1.31612 6.82513 1.3359 6.68889 1.40372 6.57493C1.47155 6.46097 1.58186 6.37862 1.71041 6.346C1.97041 6.28 2.23907 6.21933 2.51507 6.16333L3.91907 3.07467C4.06472 2.75427 4.29951 2.48256 4.5954 2.29199C4.8913 2.10143 5.23579 2.00006 5.58774 2H10.4124C10.7645 1.99993 11.1091 2.10124 11.4051 2.29181C11.7012 2.48239 11.936 2.75416 12.0817 3.07467ZM2.33307 11C2.33307 10.4696 2.54379 9.96086 2.91886 9.58579C3.29393 9.21071 3.80264 9 4.33307 9C4.86351 9 5.37221 9.21071 5.74729 9.58579C6.12236 9.96086 6.33307 10.4696 6.33307 11C6.33307 11.5304 6.12236 12.0391 5.74729 12.4142C5.37221 12.7893 4.86351 13 4.33307 13C3.80264 13 3.29393 12.7893 2.91886 12.4142C2.54379 12.0391 2.33307 11.5304 2.33307 11ZM4.33307 8C3.76837 8.00019 3.21519 8.15976 2.73714 8.46036C2.2591 8.76096 1.8756 9.19038 1.63075 9.69924C1.3859 10.2081 1.28965 10.7757 1.35306 11.3369C1.41647 11.898 1.63696 12.4298 1.98919 12.8712C2.34142 13.3126 2.81108 13.6456 3.34415 13.832C3.87722 14.0183 4.45206 14.0504 5.00257 13.9246C5.55307 13.7987 6.05688 13.5201 6.45606 13.1207C6.85524 12.7212 7.13358 12.2172 7.25907 11.6667H8.74107C8.90708 12.3838 9.33088 13.015 9.93187 13.4401C10.5329 13.8652 11.2691 14.0546 12.0007 13.9723C12.7322 13.89 13.408 13.5417 13.8995 12.9937C14.391 12.4457 14.6639 11.7361 14.6664 11C14.6677 10.2323 14.3748 9.49338 13.8477 8.9352C13.3207 8.37703 12.5998 8.04212 11.8333 7.99941C11.0668 7.9567 10.3132 8.20944 9.7274 8.70561C9.14164 9.20177 8.76836 9.90361 8.68441 10.6667H7.31507C7.23307 9.93321 6.88358 9.25571 6.33343 8.76374C5.78329 8.27177 5.0711 7.99986 4.33307 8ZM9.66641 11C9.66641 10.4696 9.87712 9.96086 10.2522 9.58579C10.6273 9.21071 11.136 9 11.6664 9C12.1968 9 12.7055 9.21071 13.0806 9.58579C13.4557 9.96086 13.6664 10.4696 13.6664 11C13.6664 11.5304 13.4557 12.0391 13.0806 12.4142C12.7055 12.7893 12.1968 13 11.6664 13C11.136 13 10.6273 12.7893 10.2522 12.4142C9.87712 12.0391 9.66641 11.5304 9.66641 11Z" fill="#18202A"/>
</svg>
