<svg width="16" height="16" viewBox="0 0 16 16" fill="none" xmlns="http://www.w3.org/2000/svg">
<path d="M11.7575 8.94791L13.4919 5.76801L13.5286 5.80466C13.7889 6.06501 14.2111 6.06501 14.4714 5.80466C14.6014 5.67465 14.6665 5.5043 14.6667 5.33391V5.3326C14.6665 5.1622 14.6014 4.99186 14.4714 4.86185L13.8157 4.20612C13.8087 4.19882 13.8015 4.19166 13.7942 4.18465L11.8153 2.2057C11.8083 2.19837 11.8011 2.19122 11.7938 2.18425L11.1381 1.52851C10.8777 1.26816 10.4556 1.26816 10.1953 1.52851C9.93491 1.78886 9.93491 2.21097 10.1953 2.47132L10.2319 2.50797L7.05201 4.24246L11.7575 8.94791Z" fill="#18202A"/>
<path d="M2.86193 2.86185C3.12228 2.6015 3.54439 2.6015 3.80474 2.86185L13.1385 12.1957C13.3989 12.456 13.3989 12.8781 13.1385 13.1385C12.8782 13.3988 12.4561 13.3988 12.1957 13.1385L10.4331 11.3759L9.92217 12.3126L10.4714 12.8618C10.7318 13.1222 10.7318 13.5443 10.4714 13.8047C10.2111 14.065 9.78894 14.065 9.52859 13.8047L6.33333 10.6094L3.80474 13.138C3.54439 13.3983 3.12228 13.3983 2.86193 13.138C2.60158 12.8776 2.60158 12.4555 2.86193 12.1952L5.39052 9.66659L2.19526 6.47132C1.93491 6.21097 1.93491 5.78886 2.19526 5.52851C2.45561 5.26816 2.87772 5.26816 3.13807 5.52851L3.68731 6.07775L4.62407 5.56679L2.86193 3.80466C2.60158 3.54431 2.60158 3.1222 2.86193 2.86185Z" fill="#18202A"/>
</svg>
