<svg width="16" height="16" viewBox="0 0 16 16" fill="none" xmlns="http://www.w3.org/2000/svg">
<g clip-path="url(#clip0_2266_37067)">
<path d="M0.666667 5.33286C0.666667 4.22829 1.5621 3.33286 2.66667 3.33286H13.3333C14.4379 3.33286 15.3333 4.22829 15.3333 5.33286V7.33286H0.666667V5.33286Z" fill="#18202A"/>
<path fill-rule="evenodd" clip-rule="evenodd" d="M7.76485 1.50739C8.26815 2.27044 8.53811 3.29058 8.65372 3.86867L8.75359 4.36798L8.29814 4.5957C6.70373 5.39291 5.23791 4.94955 4.46856 3.98976C4.09545 3.52429 3.8851 2.92865 3.94941 2.32397C4.01577 1.70001 4.3687 1.13404 4.99037 0.761075C5.54717 0.427023 6.12031 0.346616 6.65559 0.546978C7.15381 0.733473 7.51241 1.12467 7.76485 1.50739ZM6.18817 1.7957C6.10191 1.76341 5.95283 1.73853 5.67631 1.90443C5.39407 2.07375 5.29505 2.27892 5.27526 2.46498C5.25343 2.6703 5.32272 2.92354 5.50892 3.15583C5.80318 3.52293 6.39706 3.82754 7.21804 3.5938C7.09128 3.13671 6.90305 2.6224 6.65182 2.24153C6.4737 1.97148 6.31147 1.84185 6.18817 1.7957Z" fill="#18202A"/>
<path fill-rule="evenodd" clip-rule="evenodd" d="M8.23515 1.50739C7.73185 2.27044 7.46189 3.29058 7.34628 3.86867L7.24641 4.36798L7.70186 4.5957C9.29627 5.39291 10.7621 4.94955 11.5314 3.98976C11.9045 3.52429 12.1149 2.92865 12.0506 2.32397C11.9842 1.70001 11.6313 1.13404 11.0096 0.761075C10.4528 0.427023 9.87969 0.346616 9.34442 0.546978C8.84619 0.733473 8.48759 1.12467 8.23515 1.50739ZM9.81183 1.7957C9.89809 1.76341 10.0472 1.73853 10.3237 1.90443C10.6059 2.07375 10.7049 2.27892 10.7247 2.46498C10.7466 2.6703 10.6773 2.92354 10.4911 3.15583C10.1968 3.52293 9.60294 3.82754 8.78196 3.5938C8.90872 3.13671 9.09695 2.6224 9.34818 2.24153C9.5263 1.97148 9.68853 1.84185 9.81183 1.7957Z" fill="#18202A"/>
<path d="M1.33333 8.66619H7.33333V15.3329H3.33333C2.22876 15.3329 1.33333 14.4374 1.33333 13.3329V8.66619Z" fill="#18202A"/>
<path d="M8.66667 8.66619H14.6667V13.3329C14.6667 14.4374 13.7712 15.3329 12.6667 15.3329H8.66667V8.66619Z" fill="#18202A"/>
</g>
<defs>
<clipPath id="clip0_2266_37067">
<rect width="16" height="16" fill="white"/>
</clipPath>
</defs>
</svg>
