<svg width="16" height="16" viewBox="0 0 16 16" fill="none" xmlns="http://www.w3.org/2000/svg">
<path fill-rule="evenodd" clip-rule="evenodd" d="M12.3334 7.33337C12.3334 10.0948 10.0948 12.3334 7.33337 12.3334C4.57195 12.3334 2.33337 10.0948 2.33337 7.33337C2.33337 4.57195 4.57195 2.33337 7.33337 2.33337C10.0948 2.33337 12.3334 4.57195 12.3334 7.33337ZM7.33337 13.3334C10.6471 13.3334 13.3334 10.6471 13.3334 7.33337C13.3334 4.01967 10.6471 1.33337 7.33337 1.33337C4.01967 1.33337 1.33337 4.01967 1.33337 7.33337C1.33337 10.6471 4.01967 13.3334 7.33337 13.3334ZM13.0203 12.3132C12.825 12.1179 12.5084 12.1179 12.3132 12.3132C12.1179 12.5084 12.1179 12.825 12.3132 13.0203L13.6465 14.3536C13.8417 14.5489 14.1583 14.5489 14.3536 14.3536C14.5489 14.1583 14.5489 13.8417 14.3536 13.6465L13.0203 12.3132ZM5.33337 6.83337C5.05723 6.83337 4.83337 7.05723 4.83337 7.33337C4.83337 7.60952 5.05723 7.83337 5.33337 7.83337H9.33337C9.60952 7.83337 9.83337 7.60952 9.83337 7.33337C9.83337 7.05723 9.60952 6.83337 9.33337 6.83337H5.33337Z" fill="#18202A"/>
</svg>
