<svg width="16" height="16" viewBox="0 0 16 16" fill="none" xmlns="http://www.w3.org/2000/svg">
<g clip-path="url(#clip0_2266_38234)">
<path d="M13.9993 3.77262C13.5024 3.06862 12.8813 2.45216 12.1598 1.9565C10.72 0.967508 8.97441 0.524419 7.23697 0.706935C5.49952 0.88945 3.88424 1.68559 2.68167 2.95216C1.4791 4.21872 0.768161 5.87259 0.676728 7.61628C0.585296 9.35998 1.11937 11.0791 2.18289 12.4643C3.24641 13.8496 4.76957 14.8101 6.47841 15.1732C8.18726 15.5362 9.96963 15.2779 11.5049 14.4447C12.8263 13.7277 13.8901 12.6253 14.56 11.2928C14.7403 10.934 14.5498 10.5115 14.1748 10.3676C13.8001 10.2239 13.3836 10.4136 13.194 10.7672C12.2048 12.612 10.2574 13.8667 8.01681 13.8667C4.77501 13.8667 2.14702 11.2401 2.14702 8.00008C2.14702 4.76002 4.77501 2.13343 8.01681 2.13343C10.2979 2.13343 12.275 3.43386 13.2466 5.33341H9.99716C9.62877 5.33341 9.33014 5.63188 9.33014 6.00007C9.33014 6.36826 9.62877 6.66674 9.99716 6.66674H14.6663C15.0347 6.66674 15.3333 6.36826 15.3333 6.00007V1.33341C15.3333 0.965224 15.0347 0.666748 14.6663 0.666748C14.2979 0.666748 13.9993 0.965224 13.9993 1.33341V3.77262Z" fill="#18202A"/>
</g>
<defs>
<clipPath id="clip0_2266_38234">
<rect width="16" height="16" fill="white"/>
</clipPath>
</defs>
</svg>
