<svg width="16" height="16" viewBox="0 0 16 16" fill="none" xmlns="http://www.w3.org/2000/svg">
<path d="M2.14734 2.14726C2.34379 1.9508 2.6623 1.9508 2.85875 2.14726L13.8527 13.1412C14.0491 13.3376 14.0491 13.6561 13.8527 13.8526C13.6562 14.049 13.3377 14.049 13.1412 13.8526L2.14734 2.85867C1.95089 2.66222 1.95089 2.34371 2.14734 2.14726Z" fill="#18202A"/>
<path d="M4.25996 3.54942C3.32348 4.49567 2.79876 5.76106 2.79876 7.07928C2.79876 9.59931 2.17799 11.0867 1.66581 11.8851C1.49113 12.1574 1.70835 12.6666 2.03183 12.6666H13.3771L12.3771 11.6666H2.92311C3.3962 10.6532 3.79876 9.17271 3.79876 7.07928C3.79876 6.02989 4.21558 5.01777 4.96708 4.25654L4.25996 3.54942Z" fill="#18202A"/>
<path d="M12.649 10.5242C12.3845 9.62508 12.2012 8.49168 12.2012 7.07928C12.2012 6.00512 11.7645 4.97002 10.9792 4.20307C10.193 3.43533 9.12179 2.99992 8 2.99992C7.19736 2.99992 6.42061 3.22283 5.75564 3.63088L5.03249 2.90773C5.76204 2.41279 6.61172 2.10708 7.50054 2.02338C7.50018 2.0156 7.5 2.00778 7.5 1.99992V1.33325C7.5 1.05711 7.72386 0.833252 8 0.833252C8.27614 0.833252 8.5 1.05711 8.5 1.33325V1.99992C8.5 2.00778 8.49982 2.0156 8.49946 2.02338C9.6956 2.13603 10.8208 2.65072 11.6778 3.48763C12.6533 4.4402 13.2012 5.73215 13.2012 7.07928C13.2012 9.59931 13.822 11.0867 14.3342 11.8851C14.4002 11.988 14.4102 12.1247 14.3798 12.255L12.649 10.5242Z" fill="#18202A"/>
<path d="M6.86808 14.9557C6.54094 14.7107 6.30197 14.3662 6.18689 13.974L7.14645 13.6925C7.20072 13.8775 7.31342 14.0399 7.4676 14.1554C7.62177 14.2709 7.80914 14.3333 8.00167 14.3333C8.19419 14.3333 8.38156 14.2709 8.53574 14.1554C8.68992 14.0399 8.80261 13.8775 8.85689 13.6925L9.81645 13.974C9.70137 14.3662 9.4624 14.7107 9.13526 14.9557C8.80811 15.2008 8.4104 15.3333 8.00167 15.3333C7.59293 15.3333 7.19522 15.2008 6.86808 14.9557Z" fill="#18202A"/>
</svg>
