<svg width="16" height="16" viewBox="0 0 16 16" fill="none" xmlns="http://www.w3.org/2000/svg">
<g clip-path="url(#clip0_2266_36926)">
<path d="M14.1355 11.0108L14.0415 11.1003C13.7827 11.3279 13.4607 11.4673 13.1187 11.4991C12.7338 11.5348 12.3489 11.432 12.0332 11.2092C11.9142 11.1173 11.7822 11.0248 11.6519 10.9427C11.3895 10.7774 11.1164 10.6296 10.8342 10.5002C10.6185 10.3996 10.4461 10.2211 10.352 10C10.258 9.77897 10.2491 9.53095 10.3269 9.30368L10.4024 8.94098L10.4611 8.64746L10.1732 8.56537L9.90063 8.49268C9.26201 8.33405 8.60626 8.25254 7.94742 8.25012C7.19224 8.25289 6.44336 8.35896 5.71927 8.56535L5.39029 8.65913L5.60688 9.29008L5.63492 9.38855C5.6804 9.58748 5.66232 9.79678 5.58174 9.98626C5.48769 10.2074 5.31525 10.3858 5.09757 10.4874C4.8173 10.6137 4.54285 10.7622 4.28009 10.9301L4.1204 11.0283L4.00407 11.1068C3.95165 11.145 3.9056 11.1837 3.86288 11.2264C3.59862 11.4041 3.22539 11.505 2.85103 11.475C2.47653 11.445 2.12405 11.286 1.85382 11.0251L0.481445 9.65278L0.387551 9.55148C0.268416 9.41165 0.174021 9.25305 0.10811 9.08168C0.0257434 8.86747 -0.0102555 8.6382 0.00251259 8.40906C0.0254558 8.01163 0.194231 7.63595 0.476562 7.35446L0.651249 7.17977L0.875394 7.00952C2.91011 5.50226 5.41063 4.67119 7.9834 4.66652C10.6515 4.66169 13.2451 5.54585 15.3546 7.17937C15.5431 7.32218 15.6963 7.50126 15.8067 7.70652C15.917 7.91178 15.9818 8.13841 15.9967 8.37098C16.0116 8.60353 15.9762 8.83657 15.8929 9.05422C15.8096 9.27187 15.6804 9.46902 15.5141 9.63225L14.1355 11.0108Z" fill="#18202A"/>
</g>
<defs>
<clipPath id="clip0_2266_36926">
<rect width="16" height="16" fill="white"/>
</clipPath>
</defs>
</svg>
