<svg width="16" height="16" viewBox="0 0 16 16" fill="none" xmlns="http://www.w3.org/2000/svg">
<path d="M2.17302 1.46249C1.97554 1.28434 1.67088 1.29037 1.48066 1.48059C1.28421 1.67704 1.28421 1.99555 1.48066 2.19201L3.06063 3.77197C2.5414 4.37788 2.1365 5.0762 1.86863 5.83317C1.77651 6.09349 1.91287 6.37921 2.17319 6.47133C2.43352 6.56345 2.71923 6.42709 2.81135 6.16677C3.02938 5.55063 3.3547 4.98042 3.77021 4.48156L11.5179 12.2293C10.8518 12.7825 10.0637 13.1713 9.21746 13.3628C8.31129 13.5678 7.36795 13.54 6.47546 13.2818C5.58297 13.0237 4.77042 12.5436 4.11363 11.8865C4.10994 11.8828 4.10619 11.8792 4.10238 11.8756L1.92892 9.83325H3.99999C4.27613 9.83325 4.49999 9.60939 4.49999 9.33325C4.49999 9.05711 4.27613 8.83325 3.99999 8.83325H0.666656C0.390514 8.83325 0.166656 9.05711 0.166656 9.33325V12.6666C0.166656 12.9427 0.390514 13.1666 0.666656 13.1666C0.942799 13.1666 1.16666 12.9427 1.16666 12.6666V10.4892L3.412 12.5991C4.18722 13.3728 5.1454 13.9381 6.1976 14.2424C7.25236 14.5475 8.36722 14.5804 9.43814 14.3381C10.4684 14.105 11.4257 13.6245 12.2276 12.9389L13.8079 14.5192C14.0044 14.7157 14.3229 14.7157 14.5193 14.5192C14.7095 14.329 14.7156 14.0244 14.5374 13.8269L2.17302 1.46249Z" fill="#18202A"/>
<path d="M13.5358 11.411C13.7769 11.0201 13.9769 10.6032 14.1313 10.1668C14.2235 9.90644 14.0871 9.62073 13.8268 9.52861C13.5665 9.43649 13.2808 9.57285 13.1886 9.83317C13.0847 10.127 12.9563 10.4104 12.8053 10.6806L13.5358 11.411Z" fill="#18202A"/>
<path d="M5.32087 3.19612C5.77718 2.94207 6.26915 2.75331 6.78252 2.63715C7.68869 2.43211 8.63203 2.45998 9.52452 2.71813C10.417 2.97628 11.2296 3.45631 11.8863 4.11343C11.89 4.11713 11.8938 4.12077 11.8976 4.12435L14.071 6.16658H12C11.7238 6.16658 11.5 6.39044 11.5 6.66658C11.5 6.94273 11.7238 7.16658 12 7.16658H15.3333C15.6095 7.16658 15.8333 6.94273 15.8333 6.66658V3.33325C15.8333 3.05711 15.6095 2.83325 15.3333 2.83325C15.0572 2.83325 14.8333 3.05711 14.8333 3.33325V5.51067L12.588 3.40084C11.8128 2.62715 10.8546 2.06186 9.80238 1.75751C8.74762 1.45242 7.63276 1.41949 6.56184 1.6618C5.8624 1.82006 5.19658 2.09235 4.59018 2.46544L5.32087 3.19612Z" fill="#18202A"/>
</svg>
