<svg width="16" height="16" viewBox="0 0 16 16" fill="none" xmlns="http://www.w3.org/2000/svg">
<path fill-rule="evenodd" clip-rule="evenodd" d="M10.3333 8C11.8889 8 12.6667 6.5 12.6667 4.625C12.6667 3.125 11.8889 2 10.3333 2C8.77778 2 8 3.125 8 4.625C8 6.5 8.77778 8 10.3333 8ZM13.0268 14.4263C13.8158 14.2835 14.5061 13.7975 14.8709 13.0835C14.9468 12.9348 15.0191 12.7843 15.0875 12.6321C15.5334 11.6399 15.2594 10.457 14.3536 9.85446C13.2319 9.10835 11.8405 8.66667 10.3333 8.66667C8.82622 8.66667 7.43481 9.10835 6.31307 9.85445C5.40724 10.457 5.13323 11.6398 5.57921 12.6321C5.64762 12.7843 5.71985 12.9348 5.79579 13.0835C6.16062 13.7975 6.85085 14.2835 7.63989 14.4263C8.51015 14.5839 9.41091 14.6667 10.3333 14.6667C11.2558 14.6667 12.1565 14.5839 13.0268 14.4263ZM6.15959 6.04167C6.15959 7.5 5.49292 8.66667 4.15959 8.66667C2.82625 8.66667 2.15959 7.5 2.15959 6.04167C2.15959 4.875 2.82625 4 4.15959 4C5.49292 4 6.15959 4.875 6.15959 6.04167ZM4.36306 13.1787C3.80539 11.9379 3.96052 10.4346 4.85872 9.37865C4.63015 9.34876 4.39702 9.33333 4.16029 9.33333C3.20931 9.33333 2.31647 9.58223 1.54334 10.0184C0.756373 10.4624 0.482948 11.4342 0.789359 12.2842C0.826226 12.3865 0.864613 12.4881 0.90449 12.5889C1.18675 13.3023 1.83771 13.8004 2.59858 13.8993C3.10975 13.9657 3.63102 14 4.16029 14C4.36672 14 4.57193 13.9948 4.7758 13.9845C4.71611 13.8896 4.66023 13.7914 4.60845 13.6901C4.52248 13.5218 4.44063 13.3513 4.36306 13.1787Z" fill="#18202A"/>
</svg>
