<svg width="16" height="16" viewBox="0 0 16 16" fill="none" xmlns="http://www.w3.org/2000/svg">
<g clip-path="url(#clip0_2547_8464)">
<path d="M8.00006 8.00008C9.3334 8.00008 10.0001 6.66675 10.0001 5.00008C10.0001 3.66675 9.3334 2.66675 8.00006 2.66675C6.66673 2.66675 6.00006 3.66675 6.00006 5.00008C6.00006 6.66675 6.66673 8.00008 8.00006 8.00008Z" fill="#18202A"/>
<path d="M8.44529 14.6586C8.15974 14.0545 8.00004 13.3793 8.00004 12.6667C8.00004 11.1524 8.72139 9.80646 9.83922 8.95388C9.25964 8.76744 8.64161 8.66675 8.00005 8.66675C6.81065 8.66675 5.70208 9.01283 4.76955 9.60979C3.89639 10.1688 3.60424 11.2825 3.95331 12.2588C4.05539 12.5443 4.1693 12.8241 4.29444 13.0978C4.64907 13.8733 5.3772 14.4104 6.22071 14.5357C6.8013 14.622 7.39545 14.6667 8.00005 14.6667C8.14912 14.6667 8.29754 14.664 8.44529 14.6586Z" fill="#18202A"/>
<path d="M3.33339 8.00008C4.22228 8.00008 4.66673 7.16675 4.66673 6.12508C4.66673 5.29175 4.22228 4.66675 3.33339 4.66675C2.44451 4.66675 2.00006 5.29175 2.00006 6.12508C2.00006 7.16675 2.44451 8.00008 3.33339 8.00008Z" fill="#18202A"/>
<path d="M12.6667 8.00008C13.5556 8.00008 14.0001 7.16675 14.0001 6.12508C14.0001 5.29175 13.5556 4.66675 12.6667 4.66675C11.7778 4.66675 11.3334 5.29175 11.3334 6.12508C11.3334 7.16675 11.7778 8.00008 12.6667 8.00008Z" fill="#18202A"/>
<path d="M2.69782 12.7078C2.30616 11.6125 2.43072 10.3274 3.13235 9.35327C2.49591 9.40786 1.8914 9.57423 1.33853 9.83264C0.560488 10.1963 0.246538 11.1148 0.509209 11.9325C0.739029 12.6479 1.36312 13.1505 2.10888 13.2425C2.38124 13.2762 2.65642 13.3006 2.93412 13.3157C2.85005 13.1158 2.77123 12.9131 2.69782 12.7078Z" fill="#18202A"/>
<path fill-rule="evenodd" clip-rule="evenodd" d="M12.6667 16.0001C10.8258 16.0001 9.33337 14.5077 9.33337 12.6667C9.33337 10.8258 10.8258 9.33341 12.6667 9.33341C14.5077 9.33341 16 10.8258 16 12.6667C16 14.5077 14.5077 16.0001 12.6667 16.0001ZM12.6465 11.3536C12.4512 11.1584 12.4512 10.8418 12.6465 10.6465C12.8417 10.4513 13.1583 10.4513 13.3536 10.6465L15.0203 12.3132C15.2155 12.5085 15.2155 12.825 15.0203 13.0203L13.3536 14.687C13.1583 14.8822 12.8417 14.8822 12.6465 14.687C12.4512 14.4917 12.4512 14.1751 12.6465 13.9799L13.4596 13.1667H10.6667C10.3906 13.1667 10.1667 12.9429 10.1667 12.6667C10.1667 12.3906 10.3906 12.1667 10.6667 12.1667H13.4596L12.6465 11.3536Z" fill="#18202A"/>
</g>
<defs>
<clipPath id="clip0_2547_8464">
<rect width="16" height="16" fill="white"/>
</clipPath>
</defs>
</svg>
