<svg width="16" height="16" viewBox="0 0 16 16" fill="none" xmlns="http://www.w3.org/2000/svg">
<g clip-path="url(#clip0_2266_38141)">
<path fill-rule="evenodd" clip-rule="evenodd" d="M8 14.0003C11.3137 14.0003 14 11.314 14 8.00033C14 4.68662 11.3137 2.00033 8 2.00033C4.68629 2.00033 2 4.68662 2 8.00033C2 11.314 4.68629 14.0003 8 14.0003ZM8 15.3337C12.0501 15.3337 15.3333 12.0504 15.3333 8.00033C15.3333 3.95024 12.0501 0.666992 8 0.666992C3.94991 0.666992 0.666667 3.95024 0.666667 8.00033C0.666667 12.0504 3.94991 15.3337 8 15.3337Z" fill="#18202A"/>
<path d="M10.3333 5.95866C10.3333 7.83366 9.55556 9.33366 8 9.33366C6.44444 9.33366 5.66667 7.83366 5.66667 5.95866C5.66667 4.45866 6.44444 3.33366 8 3.33366C9.55556 3.33366 10.3333 4.45866 10.3333 5.95866Z" fill="#18202A"/>
<path d="M2.6815 13.0492C2.78889 12.6238 3.00541 12.2276 3.33288 11.9065C4.53542 10.7274 6.18281 10.0003 8.00001 10.0003C9.8172 10.0003 11.4646 10.7274 12.6671 11.9065C12.9946 12.2276 13.2111 12.6238 13.3185 13.0492C11.9823 14.4563 10.0936 15.3337 8 15.3337C5.90639 15.3337 4.01769 14.4563 2.6815 13.0492Z" fill="#18202A"/>
</g>
<defs>
<clipPath id="clip0_2266_38141">
<rect width="16" height="16" fill="white"/>
</clipPath>
</defs>
</svg>
