<svg width="16" height="16" viewBox="0 0 16 16" fill="none" xmlns="http://www.w3.org/2000/svg">
<path fill-rule="evenodd" clip-rule="evenodd" d="M10.6464 0.646447C10.8417 0.451184 11.1583 0.451184 11.3536 0.646447L11.8821 1.17504C11.9472 1.24013 12.0528 1.24013 12.1179 1.17504L12.6464 0.646447C12.8417 0.451184 13.1583 0.451184 13.3536 0.646447C13.5488 0.841709 13.5488 1.15829 13.3536 1.35355L12.825 1.88215C12.7599 1.94724 12.7599 2.05276 12.825 2.11785L13.3536 2.64645C13.5488 2.84171 13.5488 3.15829 13.3536 3.35355C13.1583 3.54882 12.8417 3.54882 12.6464 3.35355L12.1179 2.82496C12.0528 2.75987 11.9472 2.75987 11.8821 2.82496L11.3536 3.35355C11.1583 3.54882 10.8417 3.54882 10.6464 3.35355C10.4512 3.15829 10.4512 2.84171 10.6464 2.64645L11.175 2.11785C11.2401 2.05276 11.2401 1.94724 11.175 1.88215L10.6464 1.35355C10.4512 1.15829 10.4512 0.841709 10.6464 0.646447ZM6.5 1.25268C6.5 0.976537 6.27614 0.75268 6 0.75268C5.72386 0.75268 5.5 0.976537 5.5 1.25268V2.00023C5.5 2.09227 5.42538 2.16689 5.33333 2.16689L4.58579 2.16689C4.30964 2.16689 4.08579 2.39075 4.08579 2.66689C4.08579 2.94304 4.30964 3.16689 4.58579 3.16689L5.33333 3.16689C5.42538 3.16689 5.5 3.24151 5.5 3.33356V4.08111C5.5 4.35725 5.72386 4.58111 6 4.58111C6.27614 4.58111 6.5 4.35725 6.5 4.08111V3.33356C6.5 3.24151 6.57462 3.16689 6.66667 3.16689H7.41421C7.69036 3.16689 7.91421 2.94304 7.91421 2.66689C7.91421 2.39075 7.69036 2.16689 7.41421 2.16689L6.66667 2.16689C6.57462 2.16689 6.5 2.09227 6.5 2.00023V1.25268ZM11.0572 5.05699L10.9428 4.94261C10.4221 4.42191 9.57789 4.42191 9.05719 4.94261L8.13807 5.86173L10.1381 7.86173L11.0572 6.94261C11.5779 6.42191 11.5779 5.57769 11.0572 5.05699ZM1.60948 12.3903L7.19526 6.80454L9.19526 8.80454L3.60948 14.3903C3.08878 14.911 2.24456 14.911 1.72386 14.3903L1.60948 14.2759C1.08878 13.7552 1.08878 12.911 1.60948 12.3903ZM13.8333 8.58601C13.8333 8.30987 13.6095 8.08601 13.3333 8.08601C13.0572 8.08601 12.8333 8.30987 12.8333 8.58601V9.33356C12.8333 9.42561 12.7587 9.50023 12.6667 9.50023H11.9191C11.643 9.50023 11.4191 9.72408 11.4191 10.0002C11.4191 10.2764 11.643 10.5002 11.9191 10.5002H12.6667C12.7587 10.5002 12.8333 10.5748 12.8333 10.6669V11.4144C12.8333 11.6906 13.0572 11.9144 13.3333 11.9144C13.6095 11.9144 13.8333 11.6906 13.8333 11.4144V10.6669C13.8333 10.5748 13.908 10.5002 14 10.5002H14.7475C15.0237 10.5002 15.2475 10.2764 15.2475 10.0002C15.2475 9.72408 15.0237 9.50023 14.7475 9.50023L14 9.50023C13.908 9.50023 13.8333 9.42561 13.8333 9.33356V8.58601Z" fill="#18202A"/>
</svg>
