<svg width="16" height="16" viewBox="0 0 16 16" fill="none" xmlns="http://www.w3.org/2000/svg">
<path d="M8.83771 2.83317C9.75577 2.83317 10.5 3.57739 10.5 4.49545C10.5 5.17119 10.0916 5.77533 9.47441 6.03099L9.36337 6.07243L9.15811 6.14085C8.79531 6.26178 8.54153 6.58447 8.50463 6.95924L8.49999 7.05393V7.33317C8.49999 7.60931 8.27613 7.83317 7.99999 7.83317C7.74686 7.83317 7.53766 7.64507 7.50455 7.40102L7.49999 7.33317V7.05393C7.49999 6.25146 7.98781 5.53452 8.72367 5.2358L8.84188 5.19216L9.04714 5.12374C9.31758 5.03359 9.49999 4.78051 9.49999 4.49545C9.49999 4.15581 9.24433 3.87588 8.91495 3.83763L8.83771 3.83317H6.9428C6.69825 3.83317 6.49999 4.03143 6.49999 4.27598C6.49999 4.36993 6.52985 4.46081 6.58431 4.53591L6.62968 4.58909L6.68688 4.64628C6.88214 4.84155 6.88214 5.15813 6.68688 5.35339C6.50937 5.5309 6.23159 5.54704 6.03585 5.4018L5.97977 5.35339L5.92258 5.2962C5.652 5.02562 5.49999 4.65864 5.49999 4.27598C5.49999 3.51379 6.09101 2.88963 6.83976 2.83679L6.9428 2.83317H8.83771Z" fill="#18202A"/>
<path d="M8.66666 9.33317C8.66666 8.96498 8.36818 8.6665 7.99999 8.6665C7.6318 8.6665 7.33332 8.96498 7.33332 9.33317C7.33332 9.70136 7.6318 9.99984 7.99999 9.99984C8.36818 9.99984 8.66666 9.70136 8.66666 9.33317Z" fill="#18202A"/>
<path fill-rule="evenodd" clip-rule="evenodd" d="M12.6667 11.9998H8.60605L4.30369 14.558C3.80493 14.8546 3.19165 14.4165 3.31041 13.8485L3.69696 11.9998H3.33332C3.11208 11.9998 2.89714 11.9729 2.69159 11.9221C1.52881 11.6348 0.666656 10.5847 0.666656 9.33317V3.33317C0.666656 1.86041 1.86056 0.666504 3.33332 0.666504H12.6667C14.1394 0.666504 15.3333 1.86041 15.3333 3.33317V9.33317C15.3333 10.8059 14.1394 11.9998 12.6667 11.9998ZM8.60605 10.9998C8.42616 10.9998 8.2496 11.0484 8.09497 11.1403L4.44446 13.3109L4.67579 12.2045C4.73742 11.9098 4.66295 11.6029 4.47306 11.3692C4.28317 11.1355 3.99808 10.9998 3.69696 10.9998H3.33332C2.41285 10.9998 1.66666 10.2536 1.66666 9.33317V3.33317C1.66666 2.4127 2.41285 1.6665 3.33332 1.6665H12.6667C13.5871 1.6665 14.3333 2.4127 14.3333 3.33317V9.33317C14.3333 10.2536 13.5871 10.9998 12.6667 10.9998H8.60605Z" fill="#18202A"/>
</svg>
