<svg width="16" height="16" viewBox="0 0 16 16" fill="none" xmlns="http://www.w3.org/2000/svg">
<path fill-rule="evenodd" clip-rule="evenodd" d="M12 1.66699H5.33332C4.41285 1.66699 3.66666 2.41318 3.66666 3.33366V12.667C3.66666 13.5875 4.41285 14.3337 5.33332 14.3337H12C12.9205 14.3337 13.6667 13.5875 13.6667 12.667V3.33366C13.6667 2.41318 12.9205 1.66699 12 1.66699ZM5.33332 0.666992C3.86056 0.666992 2.66666 1.8609 2.66666 3.33366V12.667C2.66666 14.1398 3.86056 15.3337 5.33332 15.3337H12C13.4727 15.3337 14.6667 14.1398 14.6667 12.667V3.33366C14.6667 1.8609 13.4727 0.666992 12 0.666992H5.33332ZM8.66666 7.6973C9.47474 7.6973 9.87879 6.93972 9.87879 5.99275C9.87879 5.23517 9.47474 4.66699 8.66666 4.66699C7.85858 4.66699 7.45454 5.23517 7.45454 5.99275C7.45454 6.93972 7.85858 7.6973 8.66666 7.6973ZM6.39375 9.30386C6.12632 9.98103 6.24786 10.1199 6.49096 10.3976C6.98877 10.9662 7.77808 11.3337 8.66666 11.3337C9.55525 11.3337 10.3446 10.9662 10.8424 10.3976C11.0855 10.1199 11.207 9.98103 10.9396 9.30386C10.6722 8.62669 10.4129 8.56585 9.89439 8.44417C9.50316 8.35235 9.09153 8.30336 8.66666 8.30336C8.2418 8.30336 7.83017 8.35235 7.43893 8.44417C6.92043 8.56585 6.66118 8.62669 6.39375 9.30386ZM0.666656 4.00033C0.666656 3.63214 0.965133 3.33366 1.33332 3.33366H1.99999V6.00033H1.33332C0.965133 6.00033 0.666656 5.70185 0.666656 5.33366V4.00033ZM0.666656 7.33366C0.666656 6.96547 0.965133 6.66699 1.33332 6.66699H1.99999V9.33366H1.33332C0.965133 9.33366 0.666656 9.03518 0.666656 8.66699V7.33366ZM1.33332 10.0003C0.965133 10.0003 0.666656 10.2988 0.666656 10.667V12.0003C0.666656 12.3685 0.965133 12.667 1.33332 12.667H1.99999V10.0003H1.33332Z" fill="#18202A"/>
</svg>
