<svg width="16" height="16" viewBox="0 0 16 16" fill="none" xmlns="http://www.w3.org/2000/svg">
<path fill-rule="evenodd" clip-rule="evenodd" d="M12.3003 10.7004C12.9524 9.74034 13.3334 8.58135 13.3334 7.33337C13.3334 4.01967 10.6471 1.33337 7.33337 1.33337C4.01967 1.33337 1.33337 4.01967 1.33337 7.33337C1.33337 10.6471 4.01967 13.3334 7.33337 13.3334C8.58135 13.3334 9.74034 12.9524 10.7004 12.3003C11.0149 12.0867 11.3081 11.844 11.576 11.576C11.844 11.3081 12.0867 11.0149 12.3003 10.7004ZM12.9413 12.059C12.6958 11.9482 12.397 11.9936 12.1953 12.1953C11.9936 12.397 11.9482 12.6958 12.059 12.9413C12.0912 13.0126 12.1367 13.0795 12.1953 13.1381L13.5286 14.4714C13.789 14.7318 14.2111 14.7318 14.4714 14.4714C14.7318 14.2111 14.7318 13.789 14.4714 13.5286L13.1381 12.1953C13.0795 12.1367 13.0126 12.0912 12.9413 12.059ZM7.33337 12C9.9107 12 12 9.9107 12 7.33337C12 4.75605 9.9107 2.66671 7.33337 2.66671C4.75605 2.66671 2.66671 4.75605 2.66671 7.33337C2.66671 9.9107 4.75605 12 7.33337 12Z" fill="#18202A"/>
</svg>
