<svg width="16" height="16" viewBox="0 0 16 16" fill="none" xmlns="http://www.w3.org/2000/svg">
<path fill-rule="evenodd" clip-rule="evenodd" d="M12.1576 1.33787C13.557 1.41943 14.6667 2.5801 14.6667 3.99996V12.6666C14.6667 14.1394 13.4728 15.3333 12 15.3333H4.00004C2.52728 15.3333 1.33337 14.1394 1.33337 12.6666V3.99996C1.33337 2.58011 2.44305 1.41943 3.84245 1.33787C4.07233 0.936814 4.50463 0.666626 5.00004 0.666626H11C11.4955 0.666626 11.9278 0.936814 12.1576 1.33787ZM3.66671 2.36663C2.90596 2.52106 2.33337 3.19364 2.33337 3.99996V12.6666C2.33337 13.5871 3.07957 14.3333 4.00004 14.3333H12C12.9205 14.3333 13.6667 13.5871 13.6667 12.6666V3.99996C13.6667 3.19364 13.0941 2.52106 12.3334 2.36663V3.33329C12.3334 4.06967 11.7364 4.66663 11 4.66663H5.00004C4.26366 4.66663 3.66671 4.06967 3.66671 3.33329V2.36663ZM4.66671 1.99996C4.66671 1.81586 4.81595 1.66663 5.00004 1.66663H11C11.1841 1.66663 11.3334 1.81586 11.3334 1.99996V3.33329C11.3334 3.51739 11.1841 3.66663 11 3.66663H5.00004C4.81595 3.66663 4.66671 3.51739 4.66671 3.33329V1.99996ZM11.6869 7.02018C11.8822 6.82492 11.8822 6.50833 11.6869 6.31307C11.4917 6.11781 11.1751 6.11781 10.9798 6.31307L6.66671 10.6262L5.02026 8.97974C4.825 8.78448 4.50842 8.78448 4.31315 8.97974C4.11789 9.175 4.11789 9.49158 4.31315 9.68685L6.31315 11.6868C6.50842 11.8821 6.825 11.8821 7.02026 11.6868L11.6869 7.02018Z" fill="#18202A"/>
</svg>
