<svg width="16" height="16" viewBox="0 0 16 16" fill="none" xmlns="http://www.w3.org/2000/svg">
<path fill-rule="evenodd" clip-rule="evenodd" d="M5.33333 1.66699H11.3333C12.2538 1.66699 13 2.41318 13 3.33366V12.667C13 13.5875 12.2538 14.3337 11.3333 14.3337H5.33333V1.66699ZM4.66667 1.66699C3.74619 1.66699 3 2.41318 3 3.33366V12.667C3 13.5875 3.74619 14.3337 4.66667 14.3337L4.66667 1.66699ZM2 3.33366C2 1.8609 3.19391 0.666992 4.66667 0.666992H11.3333C12.8061 0.666992 14 1.8609 14 3.33366V12.667C14 14.1398 12.8061 15.3337 11.3333 15.3337H4.66667C3.19391 15.3337 2 14.1398 2 12.667V3.33366ZM6.66667 3.83366C6.66667 3.55752 6.89052 3.33366 7.16667 3.33366H10.8333C11.1095 3.33366 11.3333 3.55752 11.3333 3.83366C11.3333 4.1098 11.1095 4.33366 10.8333 4.33366H7.16667C6.89052 4.33366 6.66667 4.1098 6.66667 3.83366ZM7.83333 5.33366C7.55719 5.33366 7.33333 5.55752 7.33333 5.83366C7.33333 6.1098 7.55719 6.33366 7.83333 6.33366H10.1667C10.4428 6.33366 10.6667 6.1098 10.6667 5.83366C10.6667 5.55752 10.4428 5.33366 10.1667 5.33366H7.83333Z" fill="#18202A"/>
</svg>
