<svg width="16" height="16" viewBox="0 0 16 16" fill="none" xmlns="http://www.w3.org/2000/svg">
<path fill-rule="evenodd" clip-rule="evenodd" d="M0 1.66699H1.76272C1.9798 1.66699 2.18709 1.75733 2.33488 1.91633C2.34616 1.92847 2.3552 1.94251 2.3616 1.95779L2.66345 2.6796L4.54568 8.05152L3.64028 9.04994C2.96037 9.79971 3.49237 11.0003 4.50452 11.0003H13.6667L13.3958 10.5941C13.1485 10.2231 12.7322 10.0003 12.2864 10.0003H4.50452C4.35992 10.0003 4.28392 9.82881 4.38105 9.7217L5.3375 8.66699H11.8873C12.3597 8.66699 12.7855 8.3821 12.9657 7.94543L14.7542 3.6121C15.0712 2.84411 14.5066 2.00033 13.6758 2.00033H3.4633L3.28418 1.57199C3.2323 1.44793 3.15889 1.33402 3.06735 1.23553C2.73036 0.87297 2.2577 0.666992 1.76272 0.666992H0V1.66699ZM5.47055 7.66699L3.83543 3.00033H13.6758C13.7945 3.00033 13.8751 3.12087 13.8299 3.23058L12.0413 7.56391C12.0156 7.62629 11.9548 7.66699 11.8873 7.66699H5.47055ZM5.66667 14.3337C6.05883 14.3337 6.33333 14.0592 6.33333 13.667C6.33333 13.2748 6.05883 13.0003 5.66667 13.0003C5.27451 13.0003 5 13.2748 5 13.667C5 14.0592 5.27451 14.3337 5.66667 14.3337ZM5.66667 15.3337C6.61111 15.3337 7.33333 14.6114 7.33333 13.667C7.33333 12.7225 6.61111 12.0003 5.66667 12.0003C4.72222 12.0003 4 12.7225 4 13.667C4 14.6114 4.72222 15.3337 5.66667 15.3337ZM11.6667 14.3337C12.0588 14.3337 12.3333 14.0592 12.3333 13.667C12.3333 13.2748 12.0588 13.0003 11.6667 13.0003C11.2745 13.0003 11 13.2748 11 13.667C11 14.0592 11.2745 14.3337 11.6667 14.3337ZM11.6667 15.3337C12.6111 15.3337 13.3333 14.6114 13.3333 13.667C13.3333 12.7225 12.6111 12.0003 11.6667 12.0003C10.7222 12.0003 10 12.7225 10 13.667C10 14.6114 10.7222 15.3337 11.6667 15.3337Z" fill="#18202A"/>
</svg>
