<svg width="16" height="16" viewBox="0 0 16 16" fill="none" xmlns="http://www.w3.org/2000/svg">
<path fill-rule="evenodd" clip-rule="evenodd" d="M8.16667 1.33333C7.70643 1.33333 7.33333 1.70642 7.33333 2.16666V7.16666C7.33333 7.25125 7.27031 7.32112 7.18866 7.33189H7.14467C7.06302 7.32112 7 7.25125 7 7.16666V3.49999C7 3.03976 6.6269 2.66666 6.16667 2.66666C5.70643 2.66666 5.33333 3.03976 5.33333 3.49999L5.33333 7.33189L5.33333 8.33333C5.33333 8.33346 5.33333 8.3336 5.33333 8.33373V8.66666L4.35333 7.68666C4.15703 7.49058 3.90083 7.36571 3.62544 7.33189C3.35005 7.29807 3.07125 7.35724 2.83333 7.49999C2.60997 7.63391 2.44765 7.84969 2.38092 8.10143C2.31419 8.35317 2.3483 8.62101 2.476 8.84799C3.72867 11.0747 4.45867 12.3473 4.66667 12.6667C4.71005 12.7334 4.75361 12.8001 4.79733 12.8667C5.16168 13.4199 5.65772 13.874 6.24092 14.1882C6.82373 14.5021 7.47534 14.6665 8.13732 14.6667H8.13867H9.66667C10.9904 14.6667 11.6473 14.0096 12.1508 13.5061L12.1618 13.4951C12.9119 12.7449 13 11.7275 13 10.6667V8.33333V7.33189V4.83333C13 4.37309 12.6269 3.99999 12.1667 3.99999C11.7064 3.99999 11.3333 4.37309 11.3333 4.83333V7.16666C11.3333 7.25125 11.2703 7.32112 11.1887 7.33189H11.1447C11.063 7.32112 11 7.25125 11 7.16666V3.49999C11 3.03976 10.6269 2.66666 10.1667 2.66666C9.70643 2.66666 9.33333 3.03976 9.33333 3.49999V7.16666C9.33333 7.25125 9.27031 7.32112 9.18866 7.33189H9.14467C9.06302 7.32112 9 7.25125 9 7.16666V2.16666C9 1.70642 8.6269 1.33333 8.16667 1.33333Z" fill="#18202A"/>
</svg>
