<svg width="16" height="16" viewBox="0 0 16 16" fill="none" xmlns="http://www.w3.org/2000/svg">
<g clip-path="url(#clip0_2266_38978)">
<path fill-rule="evenodd" clip-rule="evenodd" d="M8 6.16699C8.27614 6.16699 8.5 6.39085 8.5 6.66699V13.4599L9.64645 12.3134C9.84171 12.1182 10.1583 12.1182 10.3536 12.3134C10.5488 12.5087 10.5488 12.8253 10.3536 13.0205L8.35355 15.0205C8.25979 15.1143 8.13261 15.167 8 15.167C7.86739 15.167 7.74021 15.1143 7.64645 15.0205L5.64645 13.0205C5.45118 12.8253 5.45118 12.5087 5.64645 12.3134C5.84171 12.1182 6.15829 12.1182 6.35355 12.3134L7.5 13.4599V6.66699C7.5 6.39085 7.72386 6.16699 8 6.16699Z" fill="#18202A"/>
<path d="M11.5162 4.28982L11.7411 5.04895L12.5316 5.00414C12.5762 5.00161 12.6212 5.00033 12.6667 5.00033C13.9553 5.00033 15 6.04499 15 7.33366C15 8.62232 13.9553 9.66699 12.6667 9.66699H9.5V10.667H12.6667C14.5076 10.667 16 9.17461 16 7.33366C16 5.49271 14.5076 4.00033 12.6667 4.00033C12.6023 4.00033 12.5384 4.00215 12.475 4.00574C11.9031 2.0753 10.116 0.666992 8 0.666992C5.88401 0.666992 4.09694 2.0753 3.52498 4.00574C3.46155 4.00215 3.39766 4.00033 3.33333 4.00033C1.49238 4.00033 0 5.49271 0 7.33366C0 9.17461 1.49238 10.667 3.33333 10.667H6.5V9.66699H3.33333C2.04467 9.66699 1 8.62232 1 7.33366C1 6.04499 2.04467 5.00033 3.33333 5.00033C3.37876 5.00033 3.42379 5.00161 3.46838 5.00414L4.25886 5.04895L4.48378 4.28982C4.93338 2.77235 6.33891 1.66699 8 1.66699C9.66109 1.66699 11.0666 2.77235 11.5162 4.28982Z" fill="#18202A"/>
</g>
<defs>
<clipPath id="clip0_2266_38978">
<rect width="16" height="16" fill="white"/>
</clipPath>
</defs>
</svg>
