<svg width="16" height="16" viewBox="0 0 16 16" fill="none" xmlns="http://www.w3.org/2000/svg">
<path d="M9.33334 9.33366C9.33334 9.82718 9.06521 10.2581 8.66668 10.4886V12.0003C8.66668 12.3685 8.3682 12.667 8.00001 12.667C7.63182 12.667 7.33334 12.3685 7.33334 12.0003V10.4886C6.93481 10.2581 6.66668 9.82718 6.66668 9.33366C6.66668 8.59728 7.26363 8.00033 8.00001 8.00033C8.73639 8.00033 9.33334 8.59728 9.33334 9.33366Z" fill="#18202A"/>
<path fill-rule="evenodd" clip-rule="evenodd" d="M14.6667 8.00033C14.6667 6.52757 13.4728 5.33366 12 5.33366V4.66699C12 2.45785 10.2091 0.666992 8.00001 0.666992C5.79087 0.666992 4.00001 2.45785 4.00001 4.66699V5.33366C2.52725 5.33366 1.33334 6.52757 1.33334 8.00033V12.667C1.33334 14.1398 2.52725 15.3337 4.00001 15.3337H12C13.4728 15.3337 14.6667 14.1398 14.6667 12.667V8.00033ZM8.00001 1.66699C9.65686 1.66699 11 3.01014 11 4.66699V5.33366H5.00001V4.66699C5.00001 3.01014 6.34316 1.66699 8.00001 1.66699ZM2.33334 8.00033C2.33334 7.07985 3.07954 6.33366 4.00001 6.33366H12C12.9205 6.33366 13.6667 7.07985 13.6667 8.00033V12.667C13.6667 13.5875 12.9205 14.3337 12 14.3337H4.00001C3.07954 14.3337 2.33334 13.5875 2.33334 12.667V8.00033Z" fill="#18202A"/>
</svg>
