<svg width="16" height="16" viewBox="0 0 16 16" fill="none" xmlns="http://www.w3.org/2000/svg">
<path fill-rule="evenodd" clip-rule="evenodd" d="M8.10652 2.07168C8.04478 2.02038 7.95523 2.02038 7.89348 2.07168L3 6.13804V13.4997C3 13.5917 3.07462 13.6663 3.16667 13.6663H5.83333V9.83301C5.83333 9.18867 6.35567 8.66634 7 8.66634H9C9.64433 8.66634 10.1667 9.18867 10.1667 9.83301V13.6663H12.8333C12.9254 13.6663 13 13.5917 13 13.4997V6.13803L8.10652 2.07168ZM14 6.96901L15.0138 7.81143C15.2262 7.98792 15.5414 7.95881 15.7179 7.74643C15.8944 7.53404 15.8653 7.2188 15.6529 7.04232L8.74563 1.30257C8.31342 0.943414 7.68658 0.943414 7.25437 1.30257L0.347113 7.04232C0.134728 7.2188 0.105627 7.53404 0.282113 7.74643C0.458599 7.95881 0.773841 7.98792 0.986226 7.81143L2 6.96901V13.4997C2 14.144 2.52233 14.6663 3.16667 14.6663H12.8333C13.4777 14.6663 14 14.144 14 13.4997V6.96901ZM9.16667 13.6663V9.83301C9.16667 9.74096 9.09205 9.66634 9 9.66634H7C6.90795 9.66634 6.83333 9.74096 6.83333 9.83301V13.6663H9.16667Z" fill="#18202A"/>
</svg>
