<svg width="16" height="16" viewBox="0 0 16 16" fill="none" xmlns="http://www.w3.org/2000/svg">
<g clip-path="url(#clip0_2266_35505)">
<path fill-rule="evenodd" clip-rule="evenodd" d="M15.2616 8.78723C15.3091 8.4612 15.3333 8.12933 15.3333 7.79378C15.3333 3.4665 12.0531 0.666504 8.00682 0.666504C3.96049 0.666504 0.418673 3.97559 0.680301 7.79378C0.680301 10.0753 1.59215 11.8615 3.04736 13.0405L3.18743 14.7213C3.22587 15.1825 3.71098 15.4652 4.13117 15.2713L5.94844 14.4325C6.60144 14.5871 7.29218 14.6665 8.00682 14.6665C8.15433 14.6665 8.30011 14.663 8.44411 14.656C8.15927 14.0525 8 13.3781 8 12.6665C8 10.8714 9.01353 9.31306 10.4996 8.53247C10.2009 8.3595 10 8.03646 10 7.6665C10 7.11422 10.4477 6.6665 11 6.6665C11.5523 6.6665 12 7.11422 12 7.6665C12 7.80593 11.9715 7.93869 11.9199 8.05926C12.1631 8.02016 12.4125 7.99984 12.6667 7.99984C13.627 7.99984 14.5196 8.28991 15.2616 8.78723ZM5 8.6665C5.55228 8.6665 6 8.21879 6 7.6665C6 7.11422 5.55228 6.6665 5 6.6665C4.44771 6.6665 4 7.11422 4 7.6665C4 8.21879 4.44771 8.6665 5 8.6665ZM9 7.6665C9 8.21879 8.55228 8.6665 8 8.6665C7.44771 8.6665 7 8.21879 7 7.6665C7 7.11422 7.44771 6.6665 8 6.6665C8.55228 6.6665 9 7.11422 9 7.6665Z" fill="#18202A"/>
<path fill-rule="evenodd" clip-rule="evenodd" d="M12.6667 15.9998C14.5076 15.9998 16 14.5075 16 12.6665C16 10.8256 14.5076 9.33317 12.6667 9.33317C10.8257 9.33317 9.33333 10.8256 9.33333 12.6665C9.33333 14.5075 10.8257 15.9998 12.6667 15.9998ZM14.7129 11.9919C14.8927 11.7822 14.8684 11.4666 14.6587 11.2869C14.4491 11.1072 14.1334 11.1314 13.9537 11.3411L12.2586 13.3188L11.3 12.5998C11.0791 12.4341 10.7657 12.4789 10.6 12.6998C10.4343 12.9207 10.4791 13.2341 10.7 13.3998L12.0333 14.3998C12.2441 14.5579 12.5415 14.5253 12.7129 14.3252L14.7129 11.9919Z" fill="#18202A"/>
</g>
<defs>
<clipPath id="clip0_2266_35505">
<rect width="16" height="16" fill="white"/>
</clipPath>
</defs>
</svg>
