<svg width="16" height="16" viewBox="0 0 16 16" fill="none" xmlns="http://www.w3.org/2000/svg">
<path d="M15.6527 4.97376C15.8563 5.16027 15.8556 5.47775 15.6603 5.67301C15.4651 5.86827 15.1493 5.86729 14.9449 5.68164C13.1101 4.01541 10.6737 3 8.00001 3C5.32636 3 2.88988 4.01541 1.05516 5.68164C0.85074 5.86729 0.534947 5.86827 0.339685 5.67301C0.144422 5.47775 0.143694 5.16028 0.347327 4.97376C2.36365 3.12694 5.05022 2 8.00001 2C10.9498 2 13.6364 3.12694 15.6527 4.97376Z" fill="#18202A"/>
<path d="M13.2926 7.33413C13.4996 7.51689 13.4986 7.83477 13.3033 8.03003C13.108 8.22529 12.7926 8.22378 12.5839 8.04287C11.3558 6.97785 9.75319 6.33333 8.00001 6.33333C6.24682 6.33333 4.64417 6.97785 3.41607 8.04287C3.20745 8.22379 2.89197 8.2253 2.69671 8.03003C2.50145 7.83477 2.50045 7.51689 2.70746 7.33413C4.11784 6.08893 5.97069 5.33333 8.00001 5.33333C10.0293 5.33333 11.8822 6.08893 13.2926 7.33413Z" fill="#18202A"/>
<path d="M10.9281 9.69942C11.1431 9.87282 11.1416 10.1918 10.9463 10.3871C10.751 10.5823 10.4362 10.5791 10.2163 10.4121C9.60074 9.9443 8.8328 9.66667 8.00001 9.66667C7.16722 9.66667 6.39928 9.9443 5.78369 10.4121C5.56382 10.5791 5.24899 10.5823 5.05373 10.3871C4.85847 10.1918 4.85696 9.87282 5.07188 9.69942C5.87256 9.05343 6.89112 8.66667 8.00001 8.66667C9.1089 8.66667 10.1275 9.05343 10.9281 9.69942Z" fill="#18202A"/>
<path d="M8.00001 14.6667C8.73639 14.6667 9.33334 14.0697 9.33334 13.3333C9.33334 12.597 8.73639 12 8.00001 12C7.26363 12 6.66668 12.597 6.66668 13.3333C6.66668 14.0697 7.26363 14.6667 8.00001 14.6667Z" fill="#18202A"/>
</svg>
