<svg width="16" height="16" viewBox="0 0 16 16" fill="none" xmlns="http://www.w3.org/2000/svg">
<path d="M1.33333 7.99967C1.33333 7.26329 1.93029 6.66634 2.66667 6.66634H3.33333C4.06971 6.66634 4.66667 7.26329 4.66667 7.99967V13.333C4.66667 14.0694 4.06971 14.6663 3.33333 14.6663H2.66667C1.93029 14.6663 1.33333 14.0694 1.33333 13.333V7.99967Z" fill="#18202A"/>
<path d="M6.33333 2.66634C6.33333 1.92996 6.93029 1.33301 7.66667 1.33301H8.33333C9.06971 1.33301 9.66667 1.92996 9.66667 2.66634V13.333C9.66667 14.0694 9.06971 14.6663 8.33333 14.6663H7.66667C6.93029 14.6663 6.33333 14.0694 6.33333 13.333V2.66634Z" fill="#18202A"/>
<path d="M11.3333 5.33301C11.3333 4.59663 11.9303 3.99967 12.6667 3.99967H13.3333C14.0697 3.99967 14.6667 4.59663 14.6667 5.33301V13.333C14.6667 14.0694 14.0697 14.6663 13.3333 14.6663H12.6667C11.9303 14.6663 11.3333 14.0694 11.3333 13.333V5.33301Z" fill="#18202A"/>
</svg>
