<svg width="16" height="16" viewBox="0 0 16 16" fill="none" xmlns="http://www.w3.org/2000/svg">
<g clip-path="url(#clip0_2266_39381)">
<path fill-rule="evenodd" clip-rule="evenodd" d="M0.858754 0.147339C0.662302 -0.049113 0.343791 -0.049113 0.147339 0.147339C-0.049113 0.343791 -0.0491129 0.662302 0.147339 0.858754L1.12567 1.83709C0.835954 2.26373 0.666667 2.77876 0.666667 3.33333V9.33333C0.666667 10.5849 1.52882 11.635 2.6916 11.9223C2.89715 11.9731 3.11209 12 3.33333 12H3.69697L3.31042 13.8487C3.19166 14.4167 3.80494 14.8547 4.3037 14.5582L8.60606 12H11.2886L13.1412 13.8527C13.3377 14.0491 13.6562 14.0491 13.8527 13.8527C14.0491 13.6562 14.0491 13.3377 13.8527 13.1412L0.858754 0.147339ZM10.2886 11L1.85382 2.56524C1.73425 2.79509 1.66667 3.05632 1.66667 3.33333V9.33333C1.66667 10.2538 2.41286 11 3.33333 11H3.69697C3.99809 11 4.28318 11.1357 4.47307 11.3694C4.66296 11.6031 4.73743 11.9099 4.6758 12.2047L4.44447 13.311L8.09499 11.1405C8.24961 11.0485 8.42617 11 8.60606 11H10.2886ZM14.3333 9.33333C14.3333 10.1131 13.7978 10.7679 13.0744 10.9498L13.8489 11.7243C14.7286 11.2885 15.3333 10.3815 15.3333 9.33333V3.33333C15.3333 1.86057 14.1394 0.666667 12.6667 0.666667H3.33333C3.16386 0.666667 2.99807 0.682476 2.83738 0.712702L3.79134 1.66667H12.6667C13.5871 1.66667 14.3333 2.41286 14.3333 3.33333V9.33333Z" fill="#18202A"/>
</g>
<defs>
<clipPath id="clip0_2266_39381">
<rect width="16" height="16" fill="white"/>
</clipPath>
</defs>
</svg>
