<svg width="16" height="16" viewBox="0 0 16 16" fill="none" xmlns="http://www.w3.org/2000/svg">
<g clip-path="url(#clip0_2266_39743)">
<path d="M1.68029 7.79378V7.75955L1.67795 7.72541C1.46301 4.5885 4.43059 1.6665 8.00681 1.6665C11.5642 1.6665 14.3333 4.08011 14.3333 7.79378C14.3333 7.99506 14.3231 8.19503 14.3028 8.39299L15.0564 9.7251C15.2384 9.10685 15.3333 8.45753 15.3333 7.79378C15.3333 3.4665 12.0531 0.666504 8.00681 0.666504C3.96048 0.666504 0.418663 3.97559 0.680291 7.79378C0.680291 10.0753 1.59214 11.8615 3.04736 13.0405L3.18743 14.7213C3.22586 15.1825 3.71097 15.4652 4.13116 15.2713L5.94843 14.4325C6.18649 14.4889 6.42957 14.5352 6.67699 14.5714C6.64602 14.2457 6.68387 13.9081 6.80227 13.5791C6.58988 13.5475 6.38189 13.5075 6.17881 13.4594L5.84285 13.3799L4.14443 14.1638L4.00846 12.5321L3.67685 12.2635C2.46587 11.2824 1.68029 9.78662 1.68029 7.79378Z" fill="#18202A"/>
<path fill-rule="evenodd" clip-rule="evenodd" d="M15.1982 15.3332H8.80176C8.18694 15.3332 7.80158 14.656 8.1068 14.1119L11.305 8.41081C11.6124 7.86285 12.3876 7.86285 12.695 8.41081L15.8932 14.1119C16.1984 14.656 15.8131 15.3332 15.1982 15.3332ZM12 9.99984C11.7239 9.99984 11.5 10.2237 11.5 10.4998V11.8332C11.5 12.1093 11.7239 12.3332 12 12.3332C12.2761 12.3332 12.5 12.1093 12.5 11.8332V10.4998C12.5 10.2237 12.2761 9.99984 12 9.99984ZM12 12.9998C11.7239 12.9998 11.5 13.2237 11.5 13.4998C11.5 13.776 11.7239 13.9998 12 13.9998C12.2761 13.9998 12.5 13.776 12.5 13.4998C12.5 13.2237 12.2761 12.9998 12 12.9998Z" fill="#18202A"/>
</g>
<defs>
<clipPath id="clip0_2266_39743">
<rect width="16" height="16" fill="white"/>
</clipPath>
</defs>
</svg>
