<svg width="16" height="16" viewBox="0 0 16 16" fill="none" xmlns="http://www.w3.org/2000/svg">
<path d="M15.5425 5.79086C15.8028 5.53051 15.8041 5.10678 15.529 4.86209C13.5271 3.08161 10.8899 2 8 2C5.11014 2 2.47291 3.08161 0.471038 4.86209C0.195921 5.10679 0.197177 5.53051 0.457526 5.79086C0.717876 6.05121 1.13859 6.04935 1.41561 5.80681C3.17465 4.2667 5.47833 3.33333 8 3.33333C10.5217 3.33333 12.8253 4.2667 14.5844 5.80681C14.8614 6.04935 15.2821 6.05121 15.5425 5.79086Z" fill="#18202A"/>
<path d="M13.1855 8.14788C13.4458 7.88753 13.4475 7.46303 13.1665 7.22512C11.7726 6.04497 9.96941 5.33333 8 5.33333C6.03059 5.33333 4.2274 6.04497 2.83353 7.22512C2.55253 7.46304 2.5542 7.88754 2.81455 8.14789C3.0749 8.40823 3.49509 8.40529 3.78 8.17206C4.92937 7.23119 6.39876 6.66667 8 6.66667C9.60124 6.66667 11.0706 7.23119 12.22 8.17206C12.5049 8.40528 12.9251 8.40823 13.1855 8.14788Z" fill="#18202A"/>
<path d="M10.8284 10.5049C11.0888 10.2446 11.0912 9.81795 10.7966 9.59709C10.0172 9.0128 9.04903 8.66667 8 8.66667C6.95097 8.66667 5.98278 9.0128 5.20342 9.59709C4.90883 9.81795 4.91122 10.2446 5.17157 10.5049C5.43192 10.7653 5.85132 10.7585 6.15802 10.5547C6.68572 10.2042 7.31901 10 8 10C8.68099 10 9.31429 10.2042 9.84199 10.5547C10.1487 10.7585 10.5681 10.7653 10.8284 10.5049Z" fill="#18202A"/>
<path d="M9.33333 13.3333C9.33333 14.0697 8.73638 14.6667 8 14.6667C7.26362 14.6667 6.66667 14.0697 6.66667 13.3333C6.66667 12.597 7.26362 12 8 12C8.73638 12 9.33333 12.597 9.33333 13.3333Z" fill="#18202A"/>
</svg>
