<svg width="16" height="16" viewBox="0 0 16 16" fill="none" xmlns="http://www.w3.org/2000/svg">
<g clip-path="url(#clip0_2266_38602)">
<path d="M1.66666 1.66699C1.66666 1.11471 1.21894 0.666992 0.666656 0.666992V15.3337H15.3333C15.3333 14.7814 14.8856 14.3337 14.3333 14.3337H1.66666V1.66699Z" fill="#18202A"/>
<path d="M12.3333 3.33366C12.3333 2.78137 12.781 2.33366 13.3333 2.33366C13.8856 2.33366 14.3333 2.78137 14.3333 3.33366C14.3333 3.88594 13.8856 4.33366 13.3333 4.33366C13.1855 4.33366 13.0452 4.3016 12.919 4.24406L9.66206 6.57044C9.6651 6.60222 9.66666 6.63442 9.66666 6.66699C9.66666 7.21928 9.21894 7.66699 8.66666 7.66699C8.24601 7.66699 7.88603 7.40727 7.73832 7.03945L4.78665 6.61778C4.60356 6.85072 4.31925 7.00033 3.99999 7.00033C3.44771 7.00033 2.99999 6.55261 2.99999 6.00033C2.99999 5.44804 3.44771 5.00033 3.99999 5.00033C4.42063 5.00033 4.78061 5.26004 4.92833 5.62787L7.88 6.04954C8.06308 5.8166 8.3474 5.66699 8.66666 5.66699C8.81444 5.66699 8.95474 5.69905 9.08098 5.75659L12.3379 3.43021C12.3349 3.39843 12.3333 3.36623 12.3333 3.33366Z" fill="#18202A"/>
<path fill-rule="evenodd" clip-rule="evenodd" d="M3.33332 8.00033C2.96513 8.00033 2.66666 8.2988 2.66666 8.66699V12.667C2.66666 13.0352 2.96513 13.3337 3.33332 13.3337H4.66666C5.03485 13.3337 5.33332 13.0352 5.33332 12.667V8.66699C5.33332 8.2988 5.03485 8.00033 4.66666 8.00033H3.33332ZM3.66666 9.00033V12.3337H4.33332V9.00033H3.66666Z" fill="#18202A"/>
<path fill-rule="evenodd" clip-rule="evenodd" d="M7.33332 9.33366C7.33332 8.96547 7.6318 8.66699 7.99999 8.66699H9.33332C9.70151 8.66699 9.99999 8.96547 9.99999 9.33366V12.667C9.99999 13.0352 9.70151 13.3337 9.33332 13.3337H7.99999C7.6318 13.3337 7.33332 13.0352 7.33332 12.667V9.33366ZM8.33332 12.3337V9.66699H8.99999V12.3337H8.33332Z" fill="#18202A"/>
<path fill-rule="evenodd" clip-rule="evenodd" d="M12.6667 5.33366C12.2985 5.33366 12 5.63214 12 6.00033V12.667C12 13.0352 12.2985 13.3337 12.6667 13.3337H14C14.3682 13.3337 14.6667 13.0352 14.6667 12.667V6.00033C14.6667 5.63214 14.3682 5.33366 14 5.33366H12.6667ZM13 6.33366V12.3337H13.6667V6.33366H13Z" fill="#18202A"/>
</g>
<defs>
<clipPath id="clip0_2266_38602">
<rect width="16" height="16" fill="white"/>
</clipPath>
</defs>
</svg>
