<svg width="16" height="16" viewBox="0 0 16 16" fill="none" xmlns="http://www.w3.org/2000/svg">
<g clip-path="url(#clip0_2266_35655)">
<path fill-rule="evenodd" clip-rule="evenodd" d="M6.95676 1.41481C6.8996 1.05108 7.14822 0.706748 7.51563 0.682758C7.67581 0.672299 7.83733 0.666992 8 0.666992C12.0501 0.666992 15.3333 3.95024 15.3333 8.00033C15.3333 8.163 15.328 8.32451 15.3176 8.48469C15.2936 8.8521 14.9492 9.10073 14.5855 9.04357C14.2218 8.98641 13.9771 8.64491 13.9937 8.2771C13.9979 8.1854 14 8.09313 14 8.00033C14 4.68662 11.3137 2.00033 8 2.00033C7.9072 2.00033 7.81492 2.00243 7.72322 2.00658C7.35541 2.02325 7.01392 1.77854 6.95676 1.41481ZM3.80444 2.81914C3.57256 2.53314 3.61492 2.1105 3.92073 1.90545C4.18861 1.72583 4.46906 1.56337 4.76051 1.41964C5.09073 1.2568 5.47809 1.43112 5.61012 1.77482C5.74215 2.11853 5.56832 2.50095 5.24149 2.67048C5.07791 2.75534 4.9187 2.84752 4.76429 2.94661C4.45442 3.14547 4.03632 3.10514 3.80444 2.81914ZM1.7745 5.61045C1.43079 5.47842 1.25648 5.09106 1.41932 4.76084C1.56304 4.46939 1.72551 4.18894 1.90513 3.92105C2.11017 3.61524 2.53282 3.57289 2.81882 3.80477C3.10482 4.03665 3.14514 4.45475 2.94629 4.76462C2.8472 4.91902 2.75501 5.07823 2.67016 5.24182C2.50062 5.56865 2.1182 5.74247 1.7745 5.61045ZM0.666667 8.00033C0.666667 7.83765 0.671974 7.67614 0.682433 7.51596C0.706422 7.14855 1.05076 6.89992 1.41448 6.95708C1.77821 7.01424 2.02293 7.35574 2.00626 7.72355C2.0021 7.81525 2 7.90752 2 8.00033C2 8.09313 2.0021 8.1854 2.00626 8.2771C2.02293 8.64492 1.77821 8.98641 1.41448 9.04357C1.05076 9.10073 0.706422 8.8521 0.682433 8.48469C0.671974 8.32451 0.666667 8.163 0.666667 8.00033ZM14.2255 10.3902C14.5692 10.5222 14.7435 10.9096 14.5807 11.2398C14.437 11.5313 14.2745 11.8117 14.0949 12.0796C13.8898 12.3854 13.4672 12.4278 13.1812 12.1959C12.8952 11.964 12.8549 11.5459 13.0537 11.236C13.1528 11.0816 13.245 10.9224 13.3298 10.7588C13.4994 10.432 13.8818 10.2582 14.2255 10.3902ZM2.81882 12.1959C2.53282 12.4278 2.11017 12.3854 1.90513 12.0796C1.72551 11.8117 1.56304 11.5313 1.41932 11.2398C1.25648 10.9096 1.43079 10.5222 1.7745 10.3902C2.1182 10.2582 2.50062 10.432 2.67016 10.7588C2.75501 10.9224 2.8472 11.0816 2.94629 11.236C3.14514 11.5459 3.10482 11.964 2.81882 12.1959ZM5.61012 14.2258C5.47809 14.5695 5.09074 14.7438 4.76051 14.581C4.46906 14.4373 4.18861 14.2748 3.92073 14.0952C3.61492 13.8902 3.57256 13.4675 3.80444 13.1815C4.03632 12.8955 4.45442 12.8552 4.76429 13.054C4.9187 13.1531 5.07791 13.2453 5.24149 13.3302C5.56832 13.4997 5.74215 13.8821 5.61012 14.2258ZM12.1956 13.1815C12.4274 13.4675 12.3851 13.8902 12.0793 14.0952C11.8114 14.2748 11.5309 14.4373 11.2395 14.581C10.9093 14.7438 10.5219 14.5695 10.3899 14.2258C10.2579 13.8821 10.4317 13.4997 10.7585 13.3302C10.9221 13.2453 11.0813 13.1531 11.2357 13.054C11.5456 12.8552 11.9637 12.8955 12.1956 13.1815ZM9.04324 14.5858C9.1004 14.9496 8.85178 15.2939 8.48437 15.3179C8.32419 15.3284 8.16267 15.3337 8 15.3337C7.83733 15.3337 7.67581 15.3284 7.51563 15.3179C7.14823 15.2939 6.8996 14.9496 6.95676 14.5858C7.01392 14.2221 7.35541 13.9774 7.72322 13.9941C7.81492 13.9982 7.9072 14.0003 8 14.0003C8.0928 14.0003 8.18508 13.9982 8.27678 13.9941C8.64459 13.9774 8.98608 14.2221 9.04324 14.5858ZM12.6667 8.00033C12.6667 10.5777 10.5773 12.667 8 12.667C5.42267 12.667 3.33333 10.5777 3.33333 8.00033C3.33333 5.423 5.42267 3.33366 8 3.33366C10.5773 3.33366 12.6667 5.423 12.6667 8.00033ZM8 6.33366C8 6.88594 7.55228 7.33366 7 7.33366C6.44772 7.33366 6 6.88594 6 6.33366C6 5.78137 6.44772 5.33366 7 5.33366C7.55228 5.33366 8 5.78137 8 6.33366ZM6 8.33366L5.17707 9.77378C5.76706 10.7109 6.81081 11.3337 8 11.3337C9.73472 11.3337 11.1599 10.0085 11.3186 8.3153L10 6.66699L7.66666 9.33366L6 8.33366Z" fill="#18202A"/>
</g>
<defs>
<clipPath id="clip0_2266_35655">
<rect width="16" height="16" fill="white"/>
</clipPath>
</defs>
</svg>
