<svg width="16" height="16" viewBox="0 0 16 16" fill="none" xmlns="http://www.w3.org/2000/svg">
<path fill-rule="evenodd" clip-rule="evenodd" d="M8.25029 0.70308L14.7442 2.65639C15.0946 2.762 15.3337 3.07463 15.3333 3.42828C15.3333 12.0777 10.7965 14.1453 8.35859 15.2557C8.24527 15.3073 8.12288 15.3332 8.00017 15.3332C7.87745 15.3332 7.75473 15.3073 7.64107 15.2557C5.2035 14.145 0.666667 12.0777 0.666667 3.42828C0.666667 3.07431 0.905729 2.76167 1.25611 2.65639L7.75004 0.70308C7.91299 0.654312 8.08734 0.654312 8.25029 0.70308ZM7.59441 4.59336C7.7581 4.24644 8.24191 4.24644 8.4056 4.59336L9.09357 6.05143L10.616 6.28314C10.8154 6.3135 10.9388 6.46202 10.981 6.60645C11.0231 6.75051 10.9985 6.93098 10.8675 7.06444L9.76019 8.19271L10.0235 9.79632C10.0519 9.96893 9.98316 10.1334 9.85853 10.2339C9.73129 10.3366 9.53991 10.3735 9.3661 10.278L8 9.52751L6.6339 10.278C6.4601 10.3735 6.26872 10.3366 6.14148 10.2339C6.01685 10.1334 5.94811 9.96893 5.97646 9.79632L6.23984 8.19256L5.13226 7.06247C5.00136 6.92891 4.97687 6.74841 5.01911 6.60436C5.06146 6.45994 5.18496 6.3115 5.38448 6.28133L6.90653 6.05124L7.59441 4.59336Z" fill="#18202A"/>
</svg>
