<svg width="16" height="16" viewBox="0 0 16 16" fill="none" xmlns="http://www.w3.org/2000/svg">
<path fill-rule="evenodd" clip-rule="evenodd" d="M5.33329 2.66675C4.9651 2.66675 4.66663 2.96522 4.66663 3.33341V12.6667C4.66663 13.0349 4.9651 13.3334 5.33329 13.3334H9.66663C11.3235 13.3334 12.6666 11.9903 12.6666 10.3334C12.6666 9.03842 11.8461 7.93507 10.6966 7.51489C11.0955 7.00551 11.3333 6.3639 11.3333 5.66675C11.3333 4.00989 9.99015 2.66675 8.33329 2.66675H5.33329ZM8.33329 7.33342C9.25377 7.33342 9.99996 6.58722 9.99996 5.66675C9.99996 4.74627 9.25377 4.00008 8.33329 4.00008H5.99996V7.33342H8.33329ZM11.3333 10.3334C11.3333 9.41294 10.5871 8.66675 9.66663 8.66675H5.99996V12.0001H9.66663C10.5871 12.0001 11.3333 11.2539 11.3333 10.3334Z" fill="#18202A"/>
</svg>
