<svg width="16" height="16" viewBox="0 0 16 16" fill="none" xmlns="http://www.w3.org/2000/svg">
<g clip-path="url(#clip0_3444_9526)">
<path fill-rule="evenodd" clip-rule="evenodd" d="M10.6667 1.3335C11.7713 1.3335 12.6667 2.22893 12.6667 3.3335C13.7713 3.3335 14.6667 4.22893 14.6667 5.3335V10.0002C14.6667 11.1047 13.7713 12.0002 12.6667 12.0002V12.6668C12.6667 13.7714 11.7713 14.6668 10.6667 14.6668H5.33337C4.2288 14.6668 3.33337 13.7714 3.33337 12.6668V9.3335C3.33337 8.22893 4.2288 7.3335 5.33337 7.3335H10.6667C11.7713 7.3335 12.6667 8.22893 12.6667 9.3335V11.0002C13.219 11.0002 13.6667 10.5524 13.6667 10.0002V5.3335C13.6667 4.78121 13.219 4.3335 12.6667 4.3335H3.33337C2.78109 4.3335 2.33337 4.78121 2.33337 5.3335V10.0002C2.33337 10.5524 2.78109 11.0002 3.33337 11.0002V12.0002C2.2288 12.0002 1.33337 11.1047 1.33337 10.0002V5.3335C1.33337 4.22893 2.2288 3.3335 3.33337 3.3335C3.33337 2.22893 4.2288 1.3335 5.33337 1.3335H10.6667ZM4.33337 3.3335C4.33337 2.78121 4.78109 2.3335 5.33337 2.3335H10.6667C11.219 2.3335 11.6667 2.78121 11.6667 3.3335H4.33337ZM4.33337 9.3335C4.33337 8.78121 4.78109 8.3335 5.33337 8.3335H10.6667C11.219 8.3335 11.6667 8.78121 11.6667 9.3335V12.6668C11.6667 13.2191 11.219 13.6668 10.6667 13.6668H5.33337C4.78109 13.6668 4.33337 13.2191 4.33337 12.6668V9.3335Z" fill="#18202A"/>
<path d="M12 6.66683C12.3682 6.66683 12.6667 6.36835 12.6667 6.00016C12.6667 5.63197 12.3682 5.3335 12 5.3335C11.6319 5.3335 11.3334 5.63197 11.3334 6.00016C11.3334 6.36835 11.6319 6.66683 12 6.66683Z" fill="#18202A"/>
</g>
<defs>
<clipPath id="clip0_3444_9526">
<rect width="16" height="16" fill="white"/>
</clipPath>
</defs>
</svg>
