<svg width="16" height="16" viewBox="0 0 16 16" fill="none" xmlns="http://www.w3.org/2000/svg">
<path d="M4 6.5C4 6.22386 4.22386 6 4.5 6H11.5C11.7761 6 12 6.22386 12 6.5C12 6.77614 11.7761 7 11.5 7H4.5C4.22386 7 4 6.77614 4 6.5Z" fill="#18202A"/>
<path d="M4.75 10C5.16421 10 5.5 9.66421 5.5 9.25C5.5 8.83579 5.16421 8.5 4.75 8.5C4.33579 8.5 4 8.83579 4 9.25C4 9.66421 4.33579 10 4.75 10Z" fill="#18202A"/>
<path d="M11.25 9.99991C11.6642 9.99991 12 9.66412 12 9.24991C12 8.83569 11.6642 8.49991 11.25 8.49991C10.8358 8.49991 10.5 8.83569 10.5 9.24991C10.5 9.66412 10.8358 9.99991 11.25 9.99991Z" fill="#18202A"/>
<path d="M4.75 12.5C5.16421 12.5 5.5 12.1642 5.5 11.75C5.5 11.3358 5.16421 11 4.75 11C4.33579 11 4 11.3358 4 11.75C4 12.1642 4.33579 12.5 4.75 12.5Z" fill="#18202A"/>
<path d="M8 10C8.41421 10 8.75 9.66421 8.75 9.25C8.75 8.83579 8.41421 8.5 8 8.5C7.58579 8.5 7.25 8.83579 7.25 9.25C7.25 9.66421 7.58579 10 8 10Z" fill="#18202A"/>
<path d="M8 12.5C8.41421 12.5 8.75 12.1642 8.75 11.75C8.75 11.3358 8.41421 11 8 11C7.58579 11 7.25 11.3358 7.25 11.75C7.25 12.1642 7.58579 12.5 8 12.5Z" fill="#18202A"/>
<path d="M11.25 12.5C11.6642 12.5 12 12.1642 12 11.75C12 11.3358 11.6642 11 11.25 11C10.8358 11 10.5 11.3358 10.5 11.75C10.5 12.1642 10.8358 12.5 11.25 12.5Z" fill="#18202A"/>
<path fill-rule="evenodd" clip-rule="evenodd" d="M5 1.5C5 1.22386 4.77614 1 4.5 1C4.22386 1 4 1.22386 4 1.5V2H3.5C2.11929 2 1 3.11929 1 4.5V12.5C1 13.8807 2.11929 15 3.5 15H12.5C13.8807 15 15 13.8807 15 12.5V4.5C15 3.11929 13.8807 2 12.5 2H12V1.5C12 1.22386 11.7761 1 11.5 1C11.2239 1 11 1.22386 11 1.5V2H5V1.5ZM2 4.5C2 3.67157 2.67157 3 3.5 3H4V4.5C4 4.77614 4.22386 5 4.5 5C4.77614 5 5 4.77614 5 4.5V3H11V4.5C11 4.77614 11.2239 5 11.5 5C11.7761 5 12 4.77614 12 4.5V3H12.5C13.3284 3 14 3.67157 14 4.5V12.5C14 13.3284 13.3284 14 12.5 14H3.5C2.67157 14 2 13.3284 2 12.5V4.5Z" fill="#18202A"/>
</svg>
