<svg width="16" height="16" viewBox="0 0 16 16" fill="none" xmlns="http://www.w3.org/2000/svg">
<g clip-path="url(#clip0_2266_39578)">
<path d="M7.99999 0.666504C12.0501 0.666504 15.3333 3.94975 15.3333 7.99984C15.3333 12.0499 12.0501 15.3332 7.99999 15.3332C3.9499 15.3332 0.666656 12.0499 0.666656 7.99984C0.666656 3.94975 3.9499 0.666504 7.99999 0.666504ZM9.92804 3.93725C9.40241 4.23225 9.25617 4.54891 9.35354 4.64628C9.92878 5.22152 10.3241 6.16218 10.3741 7.01214C10.4351 8.04786 9.96386 8.83317 8.99999 8.83317C8.27133 8.83317 8.14919 9.19962 8.47433 10.1751C8.68897 10.819 8.31383 11.3671 7.66161 11.4118C7.16109 11.4461 6.57202 11.1855 6.04883 10.6995C5.81889 10.486 5.71185 10.2459 5.56051 9.75684L5.46876 9.4622C5.34011 9.0667 5.22161 8.85845 5.05803 8.75057C4.0936 8.11451 3.52147 8.29646 2.83775 9.1285L2.47129 9.6025L2.43037 9.65677L2.36807 9.7364C2.25786 9.87417 2.16806 9.97161 2.07255 10.0489L2.01924 10.0887C2.88237 12.5602 5.23413 14.3332 7.99999 14.3332C8.13625 14.3332 8.2715 14.3289 8.40562 14.3204L8.40431 14.3453C8.40431 13.8924 8.95524 12.6831 9.61761 11.9265C10.6282 10.7722 11.9438 10.3957 13.4271 11.1502L13.4794 11.1779C14.0224 10.2438 14.3333 9.15812 14.3333 7.99984C14.3333 6.42675 13.7598 4.98762 12.8105 3.88013L12.8687 3.90203C11.7509 3.45486 10.6821 3.51406 9.92804 3.93725ZM10.37 12.5852C9.95092 13.0639 9.57459 13.8077 9.44881 14.1668C10.8296 13.8433 12.0356 13.0691 12.904 12.0079C11.8934 11.5222 11.0813 11.7728 10.37 12.5852ZM7.99999 1.6665C4.50219 1.6665 1.66666 4.50203 1.66666 7.99984C1.66666 8.31343 1.68945 8.62171 1.73347 8.92309L2.06514 8.49361C3.04014 7.30712 4.15035 6.95404 5.60859 7.91577C5.97826 8.15958 6.18946 8.4969 6.37088 9.00886L6.45166 9.25313L6.51583 9.46125C6.61344 9.77672 6.67619 9.91743 6.72936 9.96681C6.99879 10.2171 7.26642 10.3617 7.46158 10.4027L7.49866 10.4085L7.48427 10.3616C7.05312 8.94578 7.4183 7.89643 8.86544 7.83593L8.99999 7.83317C9.26945 7.83317 9.40719 7.6036 9.37585 7.07087C9.34254 6.50457 9.08629 5.85741 8.73592 5.45005L8.64644 5.35339C7.94981 4.65677 8.42111 3.63626 9.43861 3.0652C9.9755 2.76388 10.6131 2.59979 11.3 2.59308C10.3388 2.00524 9.20895 1.6665 7.99999 1.6665Z" fill="#18202A"/>
</g>
<defs>
<clipPath id="clip0_2266_39578">
<rect width="16" height="16" fill="white"/>
</clipPath>
</defs>
</svg>
