<svg width="16" height="16" viewBox="0 0 16 16" fill="none" xmlns="http://www.w3.org/2000/svg">
<path d="M2.13608 2.85485C3.64826 2.54664 5.21326 2.61822 6.691 3.06317C8.16873 3.50812 9.51307 4.31256 10.6037 5.40447C11.6943 6.49638 12.4971 7.84168 12.9403 9.31995C13.3834 10.7982 13.4531 12.3633 13.1431 13.8751C13.0691 14.2358 13.3016 14.5881 13.6623 14.6621C14.0229 14.7361 14.3753 14.5036 14.4493 14.143C14.8036 12.4152 14.7239 10.6265 14.2174 8.93706C13.711 7.24761 12.7934 5.71012 11.547 4.46222C10.3006 3.21433 8.76426 2.29497 7.07542 1.78646C5.38658 1.27794 3.598 1.19614 1.8698 1.54838C1.50903 1.62191 1.27617 1.97398 1.3497 2.33475C1.42323 2.69553 1.77531 2.92838 2.13608 2.85485Z" fill="#18202A"/>
<path d="M5.1877 6.80075C4.20509 6.5763 3.179 6.63489 2.22832 6.96972C1.88104 7.09203 1.50036 6.90966 1.37805 6.56238C1.25574 6.2151 1.43811 5.83442 1.78539 5.7121C2.97373 5.29357 4.25635 5.22033 5.48461 5.50089C6.71288 5.78145 7.83649 6.40431 8.72526 7.29731C9.61403 8.1903 10.2316 9.31685 10.5063 10.5464C10.781 11.776 10.7017 13.0583 10.2775 14.2446C10.1536 14.5913 9.77205 14.7719 9.42535 14.6479C9.07866 14.524 8.89809 14.1424 9.02205 13.7957C9.36138 12.8466 9.42483 11.8208 9.20505 10.8372C8.98526 9.85352 8.49123 8.95227 7.78022 8.23788C7.06921 7.52348 6.17031 7.02519 5.1877 6.80075Z" fill="#18202A"/>
<path fill-rule="evenodd" clip-rule="evenodd" d="M6.66671 12.0002C6.66671 13.4729 5.4728 14.6668 4.00004 14.6668C2.52728 14.6668 1.33337 13.4729 1.33337 12.0002C1.33337 10.5274 2.52728 9.3335 4.00004 9.3335C5.4728 9.3335 6.66671 10.5274 6.66671 12.0002ZM5.33337 12.0002C5.33337 12.7365 4.73642 13.3335 4.00004 13.3335C3.26366 13.3335 2.66671 12.7365 2.66671 12.0002C2.66671 11.2638 3.26366 10.6668 4.00004 10.6668C4.73642 10.6668 5.33337 11.2638 5.33337 12.0002Z" fill="#18202A"/>
</svg>
