<svg width="16" height="16" viewBox="0 0 16 16" fill="none" xmlns="http://www.w3.org/2000/svg">
<path fill-rule="evenodd" clip-rule="evenodd" d="M8.87087 2.64804C8.87068 2.64823 8.87049 2.64842 8.8703 2.64861L3.5355 8.00957L3.53435 8.01072C2.17299 9.37208 2.17299 11.6179 3.53435 12.9793C4.89571 14.3407 7.14157 14.3407 8.50293 12.9793L13.6819 7.8003C13.9423 7.53995 14.3644 7.53995 14.6248 7.8003C14.8851 8.06065 14.8851 8.48276 14.6248 8.7431L9.44574 13.9221C7.56368 15.8042 4.4736 15.8042 2.59154 13.9221C0.70968 12.0403 0.709478 8.95063 2.59093 7.06852C2.59113 7.06831 2.59134 7.06811 2.59154 7.06791L7.92633 1.70696L7.92749 1.70581C9.31257 0.320721 11.5656 0.320721 12.9507 1.70581C14.3358 3.09089 14.3358 5.34396 12.9507 6.72905L12.9495 6.73028L7.95481 11.6988C7.95454 11.6991 7.95426 11.6994 7.95398 11.6996C7.08656 12.5661 5.67854 12.5518 4.79883 11.7087L4.78869 11.6988C3.92134 10.8315 3.93545 9.42281 4.77877 8.54282L4.78998 8.5314L9.6028 3.74474C9.86385 3.4851 10.286 3.48625 10.5456 3.74731C10.8052 4.00837 10.8041 4.43047 10.543 4.69011L5.73661 9.47041C5.38343 9.84421 5.39701 10.416 5.72658 10.751C6.10223 11.1058 6.6777 11.0903 7.01201 10.756L7.01324 10.7548L12.0079 5.78624C12.0081 5.78602 12.0083 5.78581 12.0086 5.78559C12.8723 4.92115 12.8721 3.51279 12.0079 2.64861C11.1437 1.78442 9.7353 1.78423 8.87087 2.64804Z" fill="#18202A"/>
</svg>
