<svg width="16" height="16" viewBox="0 0 16 16" fill="none" xmlns="http://www.w3.org/2000/svg">
<path fill-rule="evenodd" clip-rule="evenodd" d="M10 3.33301C10 4.20382 9.44346 4.94465 8.66667 5.2192V7.33301H12.6667C13.403 7.33301 14 7.92996 14 8.66634V10.7801C14.7768 11.0547 15.3333 11.7955 15.3333 12.6663C15.3333 13.7709 14.4379 14.6663 13.3333 14.6663C12.2288 14.6663 11.3333 13.7709 11.3333 12.6663C11.3333 11.7955 11.8899 11.0547 12.6667 10.7801V8.66634L8.66667 8.66634V10.7801C9.44346 11.0547 10 11.7955 10 12.6663C10 13.7709 9.10457 14.6663 8 14.6663C6.89543 14.6663 6 13.7709 6 12.6663C6 11.7955 6.55654 11.0547 7.33333 10.7801V8.66634L3.33333 8.66634V10.7801C4.11013 11.0547 4.66667 11.7955 4.66667 12.6663C4.66667 13.7709 3.77124 14.6663 2.66667 14.6663C1.5621 14.6663 0.666667 13.7709 0.666667 12.6663C0.666667 11.7955 1.2232 11.0547 2 10.7801V8.66634C2 7.92996 2.59695 7.33301 3.33333 7.33301H7.33333V5.2192C6.55654 4.94465 6 4.20382 6 3.33301C6 2.22844 6.89543 1.33301 8 1.33301C9.10457 1.33301 10 2.22844 10 3.33301Z" fill="#18202A"/>
</svg>
