<svg width="16" height="16" viewBox="0 0 16 16" fill="none" xmlns="http://www.w3.org/2000/svg">
<path fill-rule="evenodd" clip-rule="evenodd" d="M11.6667 4.625C11.6667 5.44403 11.4938 6.08055 11.2404 6.47766C11.0133 6.8335 10.7309 7 10.3333 7C9.93577 7 9.65338 6.8335 9.42629 6.47766C9.17287 6.08055 8.99999 5.44403 8.99999 4.625C8.99999 4.03539 9.15361 3.62877 9.35294 3.3885C9.53077 3.17415 9.81843 3 10.3333 3C10.8482 3 11.1359 3.17415 11.3137 3.3885C11.513 3.62877 11.6667 4.03539 11.6667 4.625ZM12.6667 4.625C12.6667 6.5 11.8889 8 10.3333 8C8.77777 8 7.99999 6.5 7.99999 4.625C7.99999 3.125 8.77777 2 10.3333 2C11.8889 2 12.6667 3.125 12.6667 4.625ZM4.16028 9.33333C4.53645 9.33333 4.90353 9.37228 5.2577 9.44636C4.99412 9.71693 4.7896 10.0271 4.64411 10.36C4.48537 10.3424 4.32395 10.3333 4.16028 10.3333C3.38592 10.3333 2.66181 10.5356 2.03472 10.8894C1.74393 11.0534 1.55974 11.4725 1.7301 11.9451C1.76348 12.0378 1.79824 12.1297 1.83436 12.221C1.98019 12.5896 2.31984 12.8547 2.72745 12.9076C3.19599 12.9685 3.67421 13 4.16028 13C4.32346 13 4.48577 12.9965 4.64712 12.9894C4.65769 13.0141 4.66857 13.0387 4.67976 13.0632C4.75511 13.228 4.83454 13.3909 4.91791 13.5517C4.99186 13.6944 5.07478 13.8301 5.1657 13.9585C4.8342 13.986 4.49888 14 4.16028 14C3.63101 14 3.10974 13.9657 2.59857 13.8993C1.8377 13.8004 1.18674 13.3023 0.90448 12.5889C0.864603 12.4881 0.826216 12.3865 0.789349 12.2842C0.482938 11.4342 0.756363 10.4624 1.54333 10.0184C2.31646 9.58223 3.2093 9.33333 4.16028 9.33333ZM10.3333 13.6667C11.2102 13.6667 12.0652 13.5881 12.8898 13.4388C13.3873 13.3488 13.8003 13.0482 14.0147 12.6328C14.0827 12.5011 14.1474 12.3679 14.2087 12.2332C14.4825 11.6316 14.2887 10.9876 13.8303 10.6859C12.8654 10.0506 11.6564 9.66667 10.3333 9.66667C9.01022 9.66667 7.80127 10.0506 6.83631 10.6859C6.37795 10.9876 6.18418 11.6316 6.45797 12.2332C6.51924 12.3679 6.58392 12.5011 6.65192 12.6328C6.86634 13.0482 7.27934 13.3488 7.77689 13.4388C8.60147 13.5881 9.45641 13.6667 10.3333 13.6667ZM13.0678 14.4229C13.8506 14.2812 14.5373 13.8007 14.9033 13.0915C14.9788 12.9452 15.0507 12.7972 15.1188 12.6475C15.5736 11.6483 15.295 10.4529 14.3802 9.85063C13.2504 9.10684 11.85 8.66667 10.3333 8.66667C8.81664 8.66667 7.41621 9.10684 6.28643 9.85063C5.37163 10.4529 5.09307 11.6483 5.5478 12.6475C5.61594 12.7972 5.68782 12.9452 5.76332 13.0915C6.12938 13.8007 6.81603 14.2812 7.5988 14.4229C8.48208 14.5827 9.39662 14.6667 10.3333 14.6667C11.27 14.6667 12.1846 14.5827 13.0678 14.4229ZM5.15958 6.04167C5.15958 6.63615 5.02121 7.07041 4.84161 7.32577C4.68914 7.54258 4.48972 7.66667 4.15958 7.66667C3.82944 7.66667 3.63002 7.54258 3.47754 7.32577C3.29794 7.07041 3.15958 6.63615 3.15958 6.04167C3.15958 5.64188 3.27268 5.39473 3.39761 5.2581C3.50966 5.13554 3.72275 5 4.15958 5C4.59641 5 4.80949 5.13554 4.92155 5.2581C5.04647 5.39473 5.15958 5.64188 5.15958 6.04167ZM6.15958 6.04167C6.15958 7.5 5.49291 8.66667 4.15958 8.66667C2.82624 8.66667 2.15958 7.5 2.15958 6.04167C2.15958 4.875 2.82624 4 4.15958 4C5.49291 4 6.15958 4.875 6.15958 6.04167Z" fill="#18202A"/>
</svg>
