<svg width="16" height="16" viewBox="0 0 16 16" fill="none" xmlns="http://www.w3.org/2000/svg">
<path fill-rule="evenodd" clip-rule="evenodd" d="M13.3268 4.50325C13.2437 3.47504 12.383 2.6665 11.3334 2.6665H4.66671C3.6171 2.6665 2.75634 3.47504 2.67327 4.50325C2.29842 4.83581 2.04939 5.30707 2.00661 5.83658C1.59363 6.20297 1.33337 6.73767 1.33337 7.33317V12.6665C1.33337 13.7711 2.2288 14.6665 3.33337 14.6665H12.6667C13.7713 14.6665 14.6667 13.7711 14.6667 12.6665V7.33317C14.6667 6.73767 14.4065 6.20297 13.9935 5.83658C13.9507 5.30707 13.7017 4.83581 13.3268 4.50325ZM12.0802 4.00142C11.897 3.79592 11.6303 3.6665 11.3334 3.6665H4.66671C4.36978 3.6665 4.10308 3.79592 3.91993 4.00141C3.9465 4.00037 3.97321 3.99984 4.00004 3.99984H12C12.0269 3.99984 12.0536 4.00037 12.0802 4.00142ZM3.33337 5.33317C3.30654 5.33317 3.27984 5.3337 3.25326 5.33475C3.43641 5.12925 3.70311 4.99984 4.00004 4.99984H12C12.297 4.99984 12.5637 5.12925 12.7468 5.33475C12.7202 5.3337 12.6935 5.33317 12.6667 5.33317H3.33337ZM8.00004 6.6665C8.36823 6.6665 8.66671 6.96498 8.66671 7.33317V9.33317H10.6667C11.0349 9.33317 11.3334 9.63165 11.3334 9.99984C11.3334 10.368 11.0349 10.6665 10.6667 10.6665H8.66671V12.6665C8.66671 13.0347 8.36823 13.3332 8.00004 13.3332C7.63185 13.3332 7.33337 13.0347 7.33337 12.6665V10.6665H5.33337C4.96518 10.6665 4.66671 10.368 4.66671 9.99984C4.66671 9.63165 4.96518 9.33317 5.33337 9.33317H7.33337V7.33317C7.33337 6.96498 7.63185 6.6665 8.00004 6.6665Z" fill="#18202A"/>
</svg>
