<svg width="16" height="16" viewBox="0 0 16 16" fill="none" xmlns="http://www.w3.org/2000/svg">
<path d="M14.6667 3.99984C15.0349 3.99984 15.3333 3.70136 15.3333 3.33317C15.3333 2.96498 15.0349 2.6665 14.6667 2.6665H1.33333C0.965144 2.6665 0.666667 2.96498 0.666667 3.33317C0.666667 3.70136 0.965143 3.99984 1.33333 3.99984H14.6667Z" fill="#18202A"/>
<path d="M14.6667 8.6665C15.0349 8.6665 15.3333 8.36803 15.3333 7.99984C15.3333 7.63165 15.0349 7.33317 14.6667 7.33317H1.33333C0.965144 7.33317 0.666667 7.63165 0.666667 7.99984C0.666667 8.36803 0.965143 8.6665 1.33333 8.6665H14.6667Z" fill="#18202A"/>
<path d="M14.6667 13.3332C15.0349 13.3332 15.3333 13.0347 15.3333 12.6665C15.3333 12.2983 15.0349 11.9998 14.6667 11.9998H1.33333C0.965144 11.9998 0.666667 12.2983 0.666667 12.6665C0.666667 13.0347 0.965143 13.3332 1.33333 13.3332H14.6667Z" fill="#18202A"/>
</svg>
