<svg width="16" height="16" viewBox="0 0 16 16" fill="none" xmlns="http://www.w3.org/2000/svg">
<g clip-path="url(#clip0_3750_8822)">
<path d="M6.1355 2.66588L6.16687 2.66504L6.19737 2.66584C6.21233 2.66671 6.22731 2.66826 6.24229 2.67053L6.25301 2.67307C6.30995 2.68222 6.36653 2.70255 6.42046 2.7345L6.45504 2.75686L9.72024 5.05283C9.78925 5.10135 9.88129 5.10136 9.9503 5.05284L13.2133 2.75909C13.5251 2.5399 13.9476 2.73692 13.9962 3.09848L14.0008 3.16814V10.2565C14.0008 10.396 13.9426 10.5281 13.8421 10.6219L13.7884 10.6655L10.1217 13.2431C9.94378 13.3682 9.72981 13.3577 9.56983 13.2585L6.28165 10.9453C6.21263 10.8968 6.12056 10.8967 6.05153 10.9453L2.78682 13.2409C2.47501 13.4601 2.05251 13.2631 2.00389 12.9015L1.99927 12.8318V5.74349C1.99927 5.60394 2.0575 5.47189 2.15801 5.37804L2.21172 5.33445L5.87839 2.75686C5.92105 2.72687 5.9658 2.70467 6.01137 2.68961L6.09301 2.67094L6.1355 2.66588ZM13.0008 4.51588C13.0008 4.35389 12.8183 4.2591 12.6858 4.35226L10.4191 5.94567C10.3659 5.98313 10.3342 6.04417 10.3342 6.10929V11.4863C10.3342 11.6483 10.5167 11.7431 10.6492 11.65L12.9158 10.0565C12.9691 10.0191 13.0008 9.95804 13.0008 9.89292V4.51588ZM5.66593 4.51365C5.66593 4.35166 5.48343 4.25687 5.35092 4.35003L3.08425 5.94344C3.03097 5.9809 2.99927 6.04194 2.99927 6.10706V11.4841C2.99927 11.6461 3.18177 11.7409 3.31429 11.6477L5.58095 10.0543C5.63423 10.0169 5.66593 9.95581 5.66593 9.89069V4.51365ZM6.98251 4.35003C6.84999 4.25687 6.66749 4.35166 6.66749 4.51365V9.89069C6.66749 9.95581 6.6992 10.0169 6.75247 10.0543L9.01914 11.6477C9.15166 11.7409 9.33416 11.6461 9.33416 11.4841V6.10706C9.33416 6.04194 9.30245 5.9809 9.24918 5.94344L6.98251 4.35003Z" fill="#18202A"/>
</g>
<defs>
<clipPath id="clip0_3750_8822">
<rect width="16" height="16" fill="white"/>
</clipPath>
</defs>
</svg>
