<svg width="16" height="16" viewBox="0 0 16 16" fill="none" xmlns="http://www.w3.org/2000/svg">
<g clip-path="url(#clip0_3352_8958)">
<path fill-rule="evenodd" clip-rule="evenodd" d="M2.0399 2.30431C2.11838 2.11979 2.2995 2 2.50001 2H13.5C13.7005 2 13.8816 2.11979 13.9601 2.30431C14.0386 2.48883 13.9993 2.70239 13.8602 2.84682L9.66668 7.2016V13.5C9.66668 13.6914 9.5574 13.866 9.38525 13.9497C9.21309 14.0334 9.00828 14.0114 8.85777 13.8932L6.52444 12.0598C6.40379 11.965 6.33335 11.8201 6.33335 11.6667V7.2016L2.13985 2.84682C2.00077 2.70239 1.96142 2.48883 2.0399 2.30431ZM3.67563 3L7.19351 6.65318C7.28322 6.74635 7.33335 6.87066 7.33335 7V11.4236L8.66668 12.4713V7C8.66668 6.87066 8.7168 6.74635 8.80652 6.65318L12.3244 3H3.67563Z" fill="#18202A"/>
</g>
<defs>
<clipPath id="clip0_3352_8958">
<rect width="16" height="16" fill="white"/>
</clipPath>
</defs>
</svg>
