<svg width="16" height="16" viewBox="0 0 16 16" fill="none" xmlns="http://www.w3.org/2000/svg">
<path fill-rule="evenodd" clip-rule="evenodd" d="M1.83334 0.666992C1.5572 0.666992 1.33334 0.89085 1.33334 1.16699C1.33334 1.44313 1.5572 1.66699 1.83334 1.66699H2.66668V13.3337C2.66668 14.4382 3.56211 15.3337 4.66668 15.3337H11.3333C12.4379 15.3337 13.3333 14.4382 13.3333 13.3337V1.66699H14.1667C14.4428 1.66699 14.6667 1.44313 14.6667 1.16699C14.6667 0.89085 14.4428 0.666992 14.1667 0.666992H13.3333H2.66668H1.83334ZM12.3333 1.66699H3.66668V12.709C3.77322 12.6816 3.88491 12.667 4.00001 12.667C4.73639 12.667 5.33334 13.2639 5.33334 14.0003C5.33334 14.1154 5.31876 14.2271 5.29134 14.3337H10.7087C10.6813 14.2271 10.6667 14.1154 10.6667 14.0003C10.6667 13.2639 11.2636 12.667 12 12.667C12.1151 12.667 12.2268 12.6816 12.3333 12.709V1.66699ZM10.3536 8.14677C10.5488 8.34203 10.5488 8.65862 10.3536 8.85388L8.35356 10.8539C8.1583 11.0491 7.84172 11.0491 7.64646 10.8539L5.64646 8.85388C5.45119 8.65862 5.45119 8.34203 5.64646 8.14677C5.84172 7.95151 6.1583 7.95151 6.35356 8.14677L7.50001 9.29322V5.16699C7.50001 4.89085 7.72387 4.66699 8.00001 4.66699C8.27615 4.66699 8.50001 4.89085 8.50001 5.16699V9.29322L9.64646 8.14677C9.84172 7.95151 10.1583 7.95151 10.3536 8.14677Z" fill="#18202A"/>
</svg>
