<svg width="16" height="16" viewBox="0 0 16 16" fill="none" xmlns="http://www.w3.org/2000/svg">
<path fill-rule="evenodd" clip-rule="evenodd" d="M14.2117 8.23577C13.9673 9.46431 13.3642 10.5928 12.4785 11.4785L9.49228 14.7074C9.2964 14.9034 9.06382 15.0589 8.80783 15.1651C8.55173 15.2712 8.27722 15.3258 8 15.3258C7.72278 15.3258 7.44827 15.2712 7.19217 15.1651C6.93607 15.0589 6.70341 14.9033 6.50747 14.7072L3.52154 11.4785C2.63584 10.5928 2.03269 9.46431 1.78834 8.23577C1.54399 7.00724 1.66943 5.73383 2.1488 4.57659C2.62816 3.41934 3.43992 2.43023 4.48142 1.73433C5.52293 1.03843 6.7474 0.666992 8 0.666992C9.2526 0.666992 10.4771 1.03843 11.5186 1.73433C12.5601 2.43023 13.3718 3.41934 13.8512 4.57659C14.3306 5.73383 14.456 7.00724 14.2117 8.23577ZM9.33333 6.66699C9.33333 7.40337 8.73638 8.00033 8 8.00033C7.26362 8.00033 6.66667 7.40337 6.66667 6.66699C6.66667 5.93061 7.26362 5.33366 8 5.33366C8.73638 5.33366 9.33333 5.93061 9.33333 6.66699ZM10.6667 6.66699C10.6667 8.13975 9.47276 9.33366 8 9.33366C6.52724 9.33366 5.33333 8.13975 5.33333 6.66699C5.33333 5.19423 6.52724 4.00033 8 4.00033C9.47276 4.00033 10.6667 5.19423 10.6667 6.66699Z" fill="#18202A"/>
</svg>
