<svg width="16" height="16" viewBox="0 0 16 16" fill="none" xmlns="http://www.w3.org/2000/svg">
<g clip-path="url(#clip0_2266_37181)">
<path fill-rule="evenodd" clip-rule="evenodd" d="M0.666667 8.00002C0.666667 12.0501 3.94991 15.3334 8 15.3334C12.0501 15.3334 15.3333 12.0501 15.3333 8.00002C15.3333 3.94993 12.0501 0.666687 8 0.666687C3.94991 0.666687 0.666667 3.94993 0.666667 8.00002ZM11.1381 9.13809C11.3984 8.87774 11.3984 8.45563 11.1381 8.19528C10.8777 7.93493 10.4556 7.93493 10.1953 8.19528L8.66667 9.72388V4.66669C8.66667 4.2985 8.36819 4.00002 8 4.00002C7.63181 4.00002 7.33333 4.2985 7.33333 4.66669V9.72388L5.80474 8.19528C5.54439 7.93493 5.12228 7.93493 4.86193 8.19528C4.60158 8.45563 4.60158 8.87774 4.86193 9.13809L7.5286 11.8048C7.78894 12.0651 8.21105 12.0651 8.4714 11.8048L11.1381 9.13809Z" fill="#18202A"/>
</g>
<defs>
<clipPath id="clip0_2266_37181">
<rect width="16" height="16" fill="white"/>
</clipPath>
</defs>
</svg>
