<svg width="16" height="16" viewBox="0 0 16 16" fill="none" xmlns="http://www.w3.org/2000/svg">
<g clip-path="url(#clip0_2266_39053)">
<path d="M8.35354 0.813195C8.15828 0.617933 7.8417 0.617933 7.64644 0.813195L5.64644 2.81319C5.45117 3.00846 5.45117 3.32504 5.64644 3.5203C5.8417 3.71556 6.15828 3.71556 6.35354 3.5203L7.49999 2.37385V7.50008H2.37376L3.52021 6.35363C3.71547 6.15837 3.71547 5.84179 3.52021 5.64653C3.32495 5.45127 3.00837 5.45127 2.8131 5.64653L0.813103 7.64653C0.617841 7.84179 0.617841 8.15837 0.813103 8.35364L2.8131 10.3536C3.00837 10.5489 3.32495 10.5489 3.52021 10.3536C3.71547 10.1584 3.71547 9.84179 3.52021 9.64653L2.37376 8.50008H7.49999V13.6263L6.35354 12.4799C6.15828 12.2846 5.8417 12.2846 5.64644 12.4799C5.45117 12.6751 5.45117 12.9917 5.64644 13.187L7.64644 15.187C7.8417 15.3822 8.15828 15.3822 8.35354 15.187L10.3535 13.187C10.5488 12.9917 10.5488 12.6751 10.3535 12.4799C10.1583 12.2846 9.8417 12.2846 9.64644 12.4799L8.49999 13.6263V8.50008H13.6262L12.4798 9.64653C12.2845 9.84179 12.2845 10.1584 12.4798 10.3536C12.675 10.5489 12.9916 10.5489 13.1869 10.3536L15.1869 8.35364C15.3821 8.15837 15.3821 7.84179 15.1869 7.64653L13.1869 5.64653C12.9916 5.45127 12.675 5.45127 12.4798 5.64653C12.2845 5.84179 12.2845 6.15837 12.4798 6.35363L13.6262 7.50008H8.49999V2.37385L9.64644 3.5203C9.8417 3.71556 10.1583 3.71556 10.3535 3.5203C10.5488 3.32504 10.5488 3.00846 10.3535 2.81319L8.35354 0.813195Z" fill="#18202A"/>
</g>
<defs>
<clipPath id="clip0_2266_39053">
<rect width="16" height="16" fill="white"/>
</clipPath>
</defs>
</svg>
