<svg width="16" height="16" viewBox="0 0 16 16" fill="none" xmlns="http://www.w3.org/2000/svg">
<g clip-path="url(#clip0_2266_40519)">
<path fill-rule="evenodd" clip-rule="evenodd" d="M7.33334 1.83301C4.29578 1.83301 1.83334 4.29544 1.83334 7.33301C1.83334 10.1637 3.97218 12.4955 6.72161 12.7994C6.99609 12.8298 7.19399 13.0769 7.16365 13.3513C7.13331 13.6258 6.88621 13.8237 6.61174 13.7934C3.36124 13.434 0.833344 10.6791 0.833344 7.33301C0.833344 3.74316 3.74349 0.833008 7.33334 0.833008C10.6794 0.833008 13.4344 3.36091 13.7937 6.6114C13.824 6.88587 13.6261 7.13297 13.3517 7.16331C13.0772 7.19366 12.8301 6.99575 12.7998 6.72128C12.4958 3.97184 10.164 1.83301 7.33334 1.83301ZM7.33334 4.49967C5.76854 4.49967 4.50001 5.7682 4.50001 7.33301C4.50001 8.49408 5.19847 9.49313 6.2002 9.9308C6.45324 10.0414 6.56875 10.3361 6.45819 10.5892C6.34763 10.8422 6.05287 10.9577 5.79982 10.8472C4.44701 10.2561 3.50001 8.9057 3.50001 7.33301C3.50001 5.21592 5.21625 3.49967 7.33334 3.49967C8.90603 3.49967 10.2564 4.44667 10.8475 5.79949C10.9581 6.05253 10.8425 6.34729 10.5895 6.45785C10.3365 6.56841 10.0417 6.4529 9.93114 6.19986C9.49347 5.19814 8.49441 4.49967 7.33334 4.49967ZM9.82771 13.5234L8.1029 8.10254L13.5237 9.82735L12.1893 10.717C12.0647 10.8001 11.9839 10.9346 11.9691 11.0837C11.9543 11.2328 12.0072 11.3806 12.1131 11.4865L14.6262 13.9997L14 14.6259L11.4869 12.1128C11.381 12.0068 11.2331 11.954 11.0841 11.9688C10.935 11.9835 10.8004 12.0643 10.7173 12.189L9.82771 13.5234ZM8.09905 7.05192C7.45465 6.84688 6.84724 7.4543 7.05228 8.09869L8.97993 14.157C9.19179 14.8229 10.0798 14.948 10.4674 14.3666L11.2111 13.2511L13.4108 15.4508C13.7362 15.7763 14.2638 15.7763 14.5893 15.4508L15.4512 14.5889C15.7766 14.2635 15.7766 13.7358 15.4512 13.4104L13.2515 11.2107L14.367 10.4671C14.9484 10.0795 14.8232 9.19144 14.1574 8.97957L8.09905 7.05192Z" fill="#18202A"/>
</g>
<defs>
<clipPath id="clip0_2266_40519">
<rect width="16" height="16" fill="white"/>
</clipPath>
</defs>
</svg>
