<svg width="16" height="16" viewBox="0 0 16 16" fill="none" xmlns="http://www.w3.org/2000/svg">
<g clip-path="url(#clip0_3785_8920)">
<g clip-path="url(#clip1_3785_8920)">
<path fill-rule="evenodd" clip-rule="evenodd" d="M12.3333 5.33366C11.4128 5.33366 10.6666 4.58747 10.6666 3.66699V3.16715L9.16668 3.16699C8.89052 3.16696 8.66663 3.39083 8.66663 3.66699V12.3339C8.66663 12.61 8.89048 12.8339 9.16663 12.8339H10.6666V12.3337C10.6666 11.4132 11.4128 10.667 12.3333 10.667H13.6666C14.5871 10.667 15.3333 11.4132 15.3333 12.3337V13.667C15.3333 14.5875 14.5871 15.3337 13.6666 15.3337H12.3333C11.4691 15.3337 10.7586 14.676 10.6749 13.8339H9.16663C8.3382 13.8339 7.66663 13.1623 7.66663 12.3339V8.50033H5.33329V8.66699C5.33329 9.58747 4.5871 10.3337 3.66663 10.3337H2.33329C1.41282 10.3337 0.666626 9.58747 0.666626 8.66699V7.33366C0.666626 6.41318 1.41282 5.66699 2.33329 5.66699H3.66663C4.5871 5.66699 5.33329 6.41318 5.33329 7.33366V7.50033H7.66663V3.66699C7.66663 2.8385 8.3383 2.1669 9.16679 2.16699L10.6748 2.16716C10.7584 1.32486 11.469 0.666992 12.3333 0.666992H13.6666C14.5871 0.666992 15.3333 1.41318 15.3333 2.33366V3.66699C15.3333 4.58747 14.5871 5.33366 13.6666 5.33366H12.3333ZM11.6666 2.33366C11.6666 1.96547 11.9651 1.66699 12.3333 1.66699H13.6666C14.0348 1.66699 14.3333 1.96547 14.3333 2.33366V3.66699C14.3333 4.03518 14.0348 4.33366 13.6666 4.33366H12.3333C11.9651 4.33366 11.6666 4.03518 11.6666 3.66699V2.33366ZM1.66663 7.33366C1.66663 6.96547 1.9651 6.66699 2.33329 6.66699H3.66663C4.03482 6.66699 4.33329 6.96547 4.33329 7.33366V8.66699C4.33329 9.03518 4.03482 9.33366 3.66663 9.33366H2.33329C1.9651 9.33366 1.66663 9.03518 1.66663 8.66699V7.33366ZM14.3333 12.3337C14.3333 11.9655 14.0348 11.667 13.6666 11.667H12.3333C11.9651 11.667 11.6666 11.9655 11.6666 12.3337V13.667C11.6666 14.0352 11.9651 14.3337 12.3333 14.3337H13.6666C14.0348 14.3337 14.3333 14.0352 14.3333 13.667V12.3337Z" fill="#18202A"/>
</g>
</g>
<defs>
<clipPath id="clip0_3785_8920">
<rect width="16" height="16" fill="white"/>
</clipPath>
<clipPath id="clip1_3785_8920">
<rect width="16" height="16" fill="white"/>
</clipPath>
</defs>
</svg>
