<svg width="16" height="16" viewBox="0 0 16 16" fill="none" xmlns="http://www.w3.org/2000/svg">
<path fill-rule="evenodd" clip-rule="evenodd" d="M10.6667 1.6665H5.33332C4.41285 1.6665 3.66666 2.4127 3.66666 3.33317V13.9998L6.59999 11.7998C7.42962 11.1776 8.57036 11.1776 9.39999 11.7998L12.3333 13.9998V3.33317C12.3333 2.4127 11.5871 1.6665 10.6667 1.6665ZM5.33332 0.666504C3.86056 0.666504 2.66666 1.86041 2.66666 3.33317V14.6665C2.66666 15.2159 3.29383 15.5295 3.73332 15.1998L7.19999 12.5998C7.67406 12.2443 8.32592 12.2443 8.79999 12.5998L12.2667 15.1998C12.7061 15.5295 13.3333 15.2159 13.3333 14.6665V3.33317C13.3333 1.86041 12.1394 0.666504 10.6667 0.666504H5.33332Z" fill="#18202A"/>
<path d="M3.33332 3.99984H12.6667V4.99984H3.33332V3.99984Z" fill="#18202A"/>
</svg>
