<svg width="16" height="16" viewBox="0 0 16 16" fill="none" xmlns="http://www.w3.org/2000/svg">
<path d="M10.3536 7.68689C10.5489 7.49162 10.5489 7.17504 10.3536 6.97978C10.1583 6.78452 9.84175 6.78452 9.64649 6.97978L8.00004 8.62623L6.35359 6.97978C6.15833 6.78452 5.84175 6.78452 5.64649 6.97978C5.45122 7.17504 5.45122 7.49162 5.64649 7.68689L7.29293 9.33333L5.64649 10.9798C5.45122 11.175 5.45122 11.4916 5.64649 11.6869C5.84175 11.8821 6.15833 11.8821 6.35359 11.6869L8.00004 10.0404L9.64649 11.6869C9.84175 11.8821 10.1583 11.8821 10.3536 11.6869C10.5489 11.4916 10.5489 11.175 10.3536 10.9798L8.70715 9.33333L10.3536 7.68689Z" fill="#18202A"/>
<path fill-rule="evenodd" clip-rule="evenodd" d="M4.66671 2C3.6171 2 2.75634 2.80853 2.67327 3.83674C2.29842 4.16931 2.04939 4.64056 2.00661 5.17008C1.59363 5.53646 1.33337 6.07117 1.33337 6.66667V12C1.33337 13.1046 2.2288 14 3.33337 14H12.6667C13.7713 14 14.6667 13.1046 14.6667 12V6.66667C14.6667 6.07117 14.4064 5.53646 13.9935 5.17007C13.9507 4.64056 13.7017 4.16931 13.3268 3.83674C13.2437 2.80853 12.383 2 11.3334 2H4.66671ZM4.66671 3C4.36978 3 4.10308 3.12941 3.91993 3.33491C3.9465 3.33386 3.97321 3.33333 4.00004 3.33333H12C12.0269 3.33333 12.0536 3.33386 12.0802 3.33491C11.897 3.12941 11.6303 3 11.3334 3H4.66671ZM3.33337 4.66667C3.30654 4.66667 3.27984 4.6672 3.25326 4.66824C3.43641 4.46274 3.70311 4.33333 4.00004 4.33333H12C12.297 4.33333 12.5637 4.46274 12.7468 4.66824C12.7202 4.6672 12.6935 4.66667 12.6667 4.66667H3.33337ZM12.6667 5.66667C13.219 5.66667 13.6667 6.11438 13.6667 6.66667V12C13.6667 12.5523 13.219 13 12.6667 13H3.33337C2.78109 13 2.33337 12.5523 2.33337 12V6.66667C2.33337 6.11438 2.78109 5.66667 3.33337 5.66667H12.6667Z" fill="#18202A"/>
</svg>
