<svg width="16" height="16" viewBox="0 0 16 16" fill="none" xmlns="http://www.w3.org/2000/svg">
<g clip-path="url(#clip0_2266_37373)">
<path fill-rule="evenodd" clip-rule="evenodd" d="M4 0.666504C2.15905 0.666504 0.666667 2.15889 0.666667 3.99984V11.9998C0.666667 13.8408 2.15905 15.3332 4 15.3332H12C13.8409 15.3332 15.3333 13.8408 15.3333 11.9998V3.99984C15.3333 2.15889 13.8409 0.666504 12 0.666504H4ZM4.66667 3.33317V1.99984H3.33333V3.33317H4.66667ZM6 6.29612C6 5.81266 6.52252 5.51403 6.93323 5.76277L9.74083 7.46316C10.1397 7.70474 10.1397 8.28828 9.74083 8.52986L6.93323 10.2302C6.52252 10.479 6 10.1804 6 9.6969V6.29612ZM3.33333 13.9998V12.6665H4.66667V13.9998H3.33333ZM7.33333 1.99984H6V3.33317H7.33333V1.99984ZM6 12.6665H7.33333V13.9998H6V12.6665ZM10 1.99984H8.66667V3.33317H10V1.99984ZM8.66667 12.6665H10V13.9998H8.66667V12.6665ZM12.6667 3.33317V1.99984H11.3333V3.33317H12.6667ZM11.3333 13.9998V12.6665H12.6667V13.9998H11.3333Z" fill="#18202A"/>
</g>
<defs>
<clipPath id="clip0_2266_37373">
<rect width="16" height="16" fill="white"/>
</clipPath>
</defs>
</svg>
