<svg width="16" height="16" viewBox="0 0 16 16" fill="none" xmlns="http://www.w3.org/2000/svg">
<g clip-path="url(#clip0_2266_37169)">
<path fill-rule="evenodd" clip-rule="evenodd" d="M8 15.3334C3.94991 15.3334 0.666667 12.0501 0.666667 8.00002C0.666667 3.94993 3.94991 0.666687 8 0.666687C12.0501 0.666687 15.3333 3.94993 15.3333 8.00002C15.3333 12.0501 12.0501 15.3334 8 15.3334ZM6.86193 4.86195C7.12228 4.6016 7.54439 4.6016 7.80474 4.86195C8.06509 5.1223 8.06509 5.54441 7.80474 5.80476L6.27614 7.33335H11.3333C11.7015 7.33335 12 7.63183 12 8.00002C12 8.36821 11.7015 8.66669 11.3333 8.66669H6.27614L7.80474 10.1953C8.06509 10.4556 8.06509 10.8777 7.80474 11.1381C7.54439 11.3984 7.12228 11.3984 6.86193 11.1381L4.19526 8.47143C3.93491 8.21108 3.93491 7.78897 4.19526 7.52862L6.86193 4.86195Z" fill="#18202A"/>
</g>
<defs>
<clipPath id="clip0_2266_37169">
<rect width="16" height="16" fill="white"/>
</clipPath>
</defs>
</svg>
