<svg width="16" height="16" viewBox="0 0 16 16" fill="none" xmlns="http://www.w3.org/2000/svg">
<path d="M12.3994 1.5712L11.9094 2.0612L13.939 4.09085L14.429 3.60085C14.5812 3.4486 14.6667 3.24214 14.6667 3.02686C14.6667 2.81159 14.5812 2.60512 14.429 2.45288L13.5473 1.5712C13.3951 1.419 13.1886 1.3335 12.9733 1.3335C12.7581 1.3335 12.5516 1.419 12.3994 1.5712Z" fill="#18202A"/>
<path d="M13.3649 4.66492L11.3353 2.63527L6.95421 7.01634L6.67149 8.86611C6.63011 9.1369 6.8633 9.3701 7.13409 9.32871L8.98386 9.04599L13.3649 4.66492Z" fill="#18202A"/>
<path d="M8.00004 3.3335C8.00004 2.96531 7.70156 2.66683 7.33337 2.66683H3.33337C2.2288 2.66683 1.33337 3.56226 1.33337 4.66683V12.6668C1.33337 13.7714 2.2288 14.6668 3.33337 14.6668H11.3334C12.4379 14.6668 13.3334 13.7714 13.3334 12.6668V8.66683C13.3334 8.29864 13.0349 8.00016 12.6667 8.00016C12.2985 8.00016 12 8.29864 12 8.66683V12.6668C12 13.035 11.7016 13.3335 11.3334 13.3335H3.33337C2.96518 13.3335 2.66671 13.035 2.66671 12.6668V4.66683C2.66671 4.29864 2.96518 4.00016 3.33337 4.00016H7.33337C7.70156 4.00016 8.00004 3.70169 8.00004 3.3335Z" fill="#18202A"/>
</svg>
