<svg width="16" height="16" viewBox="0 0 16 16" fill="none" xmlns="http://www.w3.org/2000/svg">
<path d="M11.8575 3.07858C12.085 2.78906 12.0347 2.36996 11.7452 2.14248C11.4557 1.91501 11.0366 1.9653 10.8091 2.25481L3.94005 10.9973L2.4714 9.52862C2.21105 9.26827 1.78894 9.26827 1.5286 9.52862C1.26825 9.78897 1.26825 10.2111 1.5286 10.4714L3.52859 12.4714C3.6634 12.6062 3.84948 12.6769 4.03979 12.6655C4.23009 12.6541 4.40643 12.5618 4.52421 12.4119L11.8575 3.07858Z" fill="#18202A"/>
<path d="M12.6667 4.66667C12.2985 4.66667 12 4.96514 12 5.33333C12 5.70152 12.2985 6 12.6667 6H14C14.3682 6 14.6667 5.70152 14.6667 5.33333C14.6667 4.96514 14.3682 4.66667 14 4.66667H12.6667Z" fill="#18202A"/>
<path d="M9.33333 8.66667C9.33333 8.29848 9.63181 8 10 8H14C14.3682 8 14.6667 8.29848 14.6667 8.66667C14.6667 9.03486 14.3682 9.33333 14 9.33333H10C9.63181 9.33333 9.33333 9.03486 9.33333 8.66667Z" fill="#18202A"/>
<path d="M7.33333 11.3333C6.96514 11.3333 6.66667 11.6318 6.66667 12C6.66667 12.3682 6.96514 12.6667 7.33333 12.6667H14C14.3682 12.6667 14.6667 12.3682 14.6667 12C14.6667 11.6318 14.3682 11.3333 14 11.3333H7.33333Z" fill="#18202A"/>
</svg>
