<svg width="16" height="16" viewBox="0 0 16 16" fill="none" xmlns="http://www.w3.org/2000/svg">
<path d="M9.97982 2.5203C9.78456 2.32504 9.78456 2.00846 9.97982 1.81319C10.1751 1.61793 10.4917 1.61793 10.6869 1.81319L13.6869 4.81319C13.8822 5.00846 13.8822 5.32504 13.6869 5.5203L10.6869 8.5203C10.4917 8.71556 10.1751 8.71556 9.97982 8.5203C9.78456 8.32504 9.78456 8.00846 9.97982 7.8132L12.1263 5.66675H6.00004C4.34319 5.66675 3.00004 7.00989 3.00004 8.66675C3.00004 10.3236 4.34319 11.6667 6.00004 11.6667H10.8334C11.1095 11.6667 11.3334 11.8906 11.3334 12.1667C11.3334 12.4429 11.1095 12.6667 10.8334 12.6667H6.00004C3.7909 12.6667 2.00004 10.8759 2.00004 8.66675C2.00004 6.45761 3.7909 4.66675 6.00004 4.66675H12.1263L9.97982 2.5203Z" fill="#18202A"/>
</svg>
