<svg width="16" height="16" viewBox="0 0 16 16" fill="none" xmlns="http://www.w3.org/2000/svg">
<g clip-path="url(#clip0_2266_35898)">
<path fill-rule="evenodd" clip-rule="evenodd" d="M15.3333 8.00008C15.3333 12.0502 12.0501 15.3334 8 15.3334C3.94991 15.3334 0.666667 12.0502 0.666667 8.00008C0.666667 3.94999 3.94991 0.666748 8 0.666748C12.0501 0.666748 15.3333 3.94999 15.3333 8.00008ZM6.94281 6.00008C6.7903 6.00008 6.66667 6.12371 6.66667 6.27622C6.66667 6.34946 6.69576 6.4197 6.74755 6.47149L6.80474 6.52868C7.06509 6.78903 7.06509 7.21114 6.80474 7.47149C6.54439 7.73184 6.12228 7.73184 5.86193 7.47149L5.80474 7.4143C5.5029 7.11246 5.33333 6.70308 5.33333 6.27622C5.33333 5.38733 6.05392 4.66675 6.94281 4.66675H8.83772C9.84782 4.66675 10.6667 5.48559 10.6667 6.49569C10.6667 7.28293 10.1629 7.98184 9.41608 8.23078L9.21082 8.2992C8.88586 8.40752 8.66667 8.71163 8.66667 9.05417V9.33342C8.66667 9.7016 8.36819 10.0001 8 10.0001C7.63181 10.0001 7.33333 9.7016 7.33333 9.33342V9.05417C7.33333 8.13773 7.91976 7.3241 8.78918 7.03429L8.99445 6.96587C9.19683 6.89841 9.33333 6.70902 9.33333 6.49569C9.33333 6.22197 9.11144 6.00008 8.83772 6.00008H6.94281ZM7.33333 11.3334C7.33333 10.9652 7.63181 10.6667 8 10.6667C8.36819 10.6667 8.66667 10.9652 8.66667 11.3334C8.66667 11.7016 8.36819 12.0001 8 12.0001C7.63181 12.0001 7.33333 11.7016 7.33333 11.3334Z" fill="#18202A"/>
</g>
<defs>
<clipPath id="clip0_2266_35898">
<rect width="16" height="16" fill="white"/>
</clipPath>
</defs>
</svg>
