<svg width="16" height="16" viewBox="0 0 16 16" fill="none" xmlns="http://www.w3.org/2000/svg">
<g clip-path="url(#clip0_2266_41144)">
<path fill-rule="evenodd" clip-rule="evenodd" d="M7.99999 14.3337C11.4978 14.3337 14.3333 11.4981 14.3333 8.00033C14.3333 4.50252 11.4978 1.66699 7.99999 1.66699C4.50219 1.66699 1.66666 4.50252 1.66666 8.00033C1.66666 11.4981 4.50219 14.3337 7.99999 14.3337ZM7.99999 15.3337C12.0501 15.3337 15.3333 12.0504 15.3333 8.00033C15.3333 3.95024 12.0501 0.666992 7.99999 0.666992C3.9499 0.666992 0.666656 3.95024 0.666656 8.00033C0.666656 12.0504 3.9499 15.3337 7.99999 15.3337Z" fill="#18202A"/>
<path fill-rule="evenodd" clip-rule="evenodd" d="M9.164 7.69116C9.46777 7.22838 9.66666 6.5024 9.66666 5.58366C9.66666 4.9171 9.48863 4.44163 9.2393 4.14944C9.00925 3.87985 8.63598 3.66699 7.99999 3.66699C7.364 3.66699 6.99073 3.87985 6.76068 4.14944C6.51135 4.44163 6.33332 4.9171 6.33332 5.58366C6.33332 6.5024 6.53221 7.22838 6.83598 7.69116C7.11283 8.11292 7.47829 8.33366 7.99999 8.33366C8.52169 8.33366 8.88715 8.11292 9.164 7.69116ZM7.99999 9.33366C9.77777 9.33366 10.6667 7.66699 10.6667 5.58366C10.6667 3.91699 9.77777 2.66699 7.99999 2.66699C6.22221 2.66699 5.33332 3.91699 5.33332 5.58366C5.33332 7.66699 6.22221 9.33366 7.99999 9.33366Z" fill="#18202A"/>
<path d="M2.68149 13.0492C2.78888 12.6238 3.0054 12.2276 3.33287 11.9065C4.53541 10.7274 6.1828 10.0003 8 10.0003C9.81719 10.0003 11.4646 10.7274 12.6671 11.9065C12.9946 12.2276 13.2111 12.6238 13.3185 13.0492C13.0329 13.35 12.7221 13.6265 12.3894 13.8755C12.4395 13.3925 12.2839 12.9312 11.967 12.6205C10.9438 11.6173 9.54495 11.0003 8 11.0003C6.45504 11.0003 5.05617 11.6173 4.03299 12.6205C3.71612 12.9312 3.56051 13.3925 3.61056 13.8755C3.27789 13.6265 2.96707 13.35 2.68149 13.0492Z" fill="#18202A"/>
</g>
<defs>
<clipPath id="clip0_2266_41144">
<rect width="16" height="16" fill="white"/>
</clipPath>
</defs>
</svg>
