<svg width="16" height="16" viewBox="0 0 16 16" fill="none" xmlns="http://www.w3.org/2000/svg">
<path fill-rule="evenodd" clip-rule="evenodd" d="M2 3.99967C2 2.52692 3.19391 1.33301 4.66667 1.33301H11.3333C12.8061 1.33301 14 2.52692 14 3.99967V11.9997C14 13.4724 12.8061 14.6663 11.3333 14.6663H4.66667C3.19391 14.6663 2 13.4724 2 11.9997V3.99967ZM6 13.333V10.6667C6 9.93029 6.59695 9.33333 7.33333 9.33333H8.66667C9.40305 9.33333 10 9.93029 10 10.6667V13.333H6ZM4.66667 4.66634C4.66667 4.29815 4.96514 3.99967 5.33333 3.99967C5.70152 3.99967 6 4.29815 6 4.66634C6 5.03453 5.70152 5.33301 5.33333 5.33301C4.96514 5.33301 4.66667 5.03453 4.66667 4.66634ZM5.33333 5.99967C4.96514 5.99967 4.66667 6.29815 4.66667 6.66634C4.66667 7.03453 4.96514 7.33301 5.33333 7.33301C5.70152 7.33301 6 7.03453 6 6.66634C6 6.29815 5.70152 5.99967 5.33333 5.99967ZM7.33333 4.66634C7.33333 4.29815 7.63181 3.99967 8 3.99967C8.36819 3.99967 8.66667 4.29815 8.66667 4.66634C8.66667 5.03453 8.36819 5.33301 8 5.33301C7.63181 5.33301 7.33333 5.03453 7.33333 4.66634ZM8 5.99967C7.63181 5.99967 7.33333 6.29815 7.33333 6.66634C7.33333 7.03453 7.63181 7.33301 8 7.33301C8.36819 7.33301 8.66667 7.03453 8.66667 6.66634C8.66667 6.29815 8.36819 5.99967 8 5.99967ZM10 4.66634C10 4.29815 10.2985 3.99967 10.6667 3.99967C11.0349 3.99967 11.3333 4.29815 11.3333 4.66634C11.3333 5.03453 11.0349 5.33301 10.6667 5.33301C10.2985 5.33301 10 5.03453 10 4.66634ZM10.6667 5.99967C10.2985 5.99967 10 6.29815 10 6.66634C10 7.03453 10.2985 7.33301 10.6667 7.33301C11.0349 7.33301 11.3333 7.03453 11.3333 6.66634C11.3333 6.29815 11.0349 5.99967 10.6667 5.99967Z" fill="#18202A"/>
</svg>
