<svg width="16" height="16" viewBox="0 0 16 16" fill="none" xmlns="http://www.w3.org/2000/svg">
<path fill-rule="evenodd" clip-rule="evenodd" d="M10.6667 3.58366C10.6667 5.66699 9.77778 7.33366 8 7.33366C6.22222 7.33366 5.33333 5.66699 5.33333 3.58366C5.33333 1.91699 6.22222 0.666992 8 0.666992C9.77778 0.666992 10.6667 1.91699 10.6667 3.58366ZM9.78318 8.90814C9.21561 8.75097 8.61763 8.66699 8.00003 8.66699C6.3367 8.66699 4.81564 9.27614 3.64778 10.2835C2.75796 11.0511 2.58063 12.3412 3.10211 13.3943L3.13324 13.4567C3.51047 14.206 4.19926 14.7504 5.01195 14.9587C5.55391 15.0976 6.11064 15.1996 6.67933 15.2618C6.63137 14.8065 6.71787 14.3266 6.97109 13.879L9.78318 8.90814Z" fill="#18202A"/>
<path fill-rule="evenodd" clip-rule="evenodd" d="M15.8932 14.7791C16.1984 15.3231 15.8131 16.0003 15.1982 16.0003H8.80176C8.18694 16.0003 7.80158 15.3231 8.1068 14.7791L11.305 9.07796C11.6124 8.53 12.3876 8.53 12.695 9.07796L15.8932 14.7791ZM12 10.667C11.7239 10.667 11.5 10.8908 11.5 11.167V12.5003C11.5 12.7765 11.7239 13.0003 12 13.0003C12.2761 13.0003 12.5 12.7765 12.5 12.5003V11.167C12.5 10.8908 12.2761 10.667 12 10.667ZM12 13.667C11.7239 13.667 11.5 13.8908 11.5 14.167C11.5 14.4431 11.7239 14.667 12 14.667C12.2761 14.667 12.5 14.4431 12.5 14.167C12.5 13.8908 12.2761 13.667 12 13.667Z" fill="#18202A"/>
</svg>
