<svg width="16" height="16" viewBox="0 0 16 16" fill="none" xmlns="http://www.w3.org/2000/svg">
<path d="M4.16671 1.3335C4.44285 1.3335 4.66671 1.55735 4.66671 1.8335C4.66671 2.10964 4.44285 2.3335 4.16671 2.3335H3.33337C2.78109 2.3335 2.33337 2.78121 2.33337 3.3335V4.16683C2.33337 4.44297 2.10952 4.66683 1.83337 4.66683C1.55723 4.66683 1.33337 4.44297 1.33337 4.16683V3.3335C1.33337 2.22893 2.2288 1.3335 3.33337 1.3335H4.16671Z" fill="#18202A"/>
<path d="M11.3334 1.8335C11.3334 2.10964 11.5572 2.3335 11.8334 2.3335H12.6667C13.219 2.3335 13.6667 2.78121 13.6667 3.3335V4.16683C13.6667 4.44297 13.8906 4.66683 14.1667 4.66683C14.4428 4.66683 14.6667 4.44297 14.6667 4.16683V3.3335C14.6667 2.22893 13.7713 1.3335 12.6667 1.3335H11.8334C11.5572 1.3335 11.3334 1.55735 11.3334 1.8335Z" fill="#18202A"/>
<path d="M11.3334 14.1668C11.3334 13.8907 11.5572 13.6668 11.8334 13.6668H12.6667C13.219 13.6668 13.6667 13.2191 13.6667 12.6668V11.8335C13.6667 11.5574 13.8906 11.3335 14.1667 11.3335C14.4428 11.3335 14.6667 11.5574 14.6667 11.8335V12.6668C14.6667 13.7714 13.7713 14.6668 12.6667 14.6668H11.8334C11.5572 14.6668 11.3334 14.443 11.3334 14.1668Z" fill="#18202A"/>
<path d="M2.33337 11.8335C2.33337 11.5574 2.10952 11.3335 1.83337 11.3335C1.55723 11.3335 1.33337 11.5574 1.33337 11.8335V12.6668C1.33337 13.7714 2.2288 14.6668 3.33337 14.6668H4.16671C4.44285 14.6668 4.66671 14.443 4.66671 14.1668C4.66671 13.8907 4.44285 13.6668 4.16671 13.6668H3.33337C2.78109 13.6668 2.33337 13.2191 2.33337 12.6668V11.8335Z" fill="#18202A"/>
<path fill-rule="evenodd" clip-rule="evenodd" d="M4.00004 8.66683C3.63185 8.66683 3.33337 8.96531 3.33337 9.3335V12.0002C3.33337 12.3684 3.63185 12.6668 4.00004 12.6668H6.66671C7.0349 12.6668 7.33337 12.3684 7.33337 12.0002V9.3335C7.33337 8.96531 7.0349 8.66683 6.66671 8.66683H4.00004ZM4.33337 9.66683V11.6668H6.33337V9.66683H4.33337Z" fill="#18202A"/>
<path fill-rule="evenodd" clip-rule="evenodd" d="M4.00004 3.3335C3.63185 3.3335 3.33337 3.63197 3.33337 4.00016V6.66683C3.33337 7.03502 3.63185 7.3335 4.00004 7.3335H6.66671C7.0349 7.3335 7.33337 7.03502 7.33337 6.66683V4.00016C7.33337 3.63197 7.0349 3.3335 6.66671 3.3335H4.00004ZM4.33337 4.3335V6.3335H6.33337V4.3335H4.33337Z" fill="#18202A"/>
<path fill-rule="evenodd" clip-rule="evenodd" d="M9.33337 3.3335C8.96518 3.3335 8.66671 3.63197 8.66671 4.00016V6.66683C8.66671 7.03502 8.96518 7.3335 9.33337 7.3335H12C12.3682 7.3335 12.6667 7.03502 12.6667 6.66683V4.00016C12.6667 3.63197 12.3682 3.3335 12 3.3335H9.33337ZM9.66671 4.3335V6.3335H11.6667V4.3335H9.66671Z" fill="#18202A"/>
<path d="M8.66671 8.66683H9.66671V9.66683H8.66671V8.66683Z" fill="#18202A"/>
<path fill-rule="evenodd" clip-rule="evenodd" d="M10.6667 9.66683H9.66671V10.6668H8.66671V11.6668H9.66671V12.6668H10.6667V11.6668H11.6667V12.6668H12.6667V11.6668H11.6667V10.6668H12.6667V9.66683H11.6667V8.66683H10.6667V9.66683ZM10.6667 10.6668H11.6667V9.66683H10.6667V10.6668ZM10.6667 10.6668V11.6668H9.66671V10.6668H10.6667Z" fill="#18202A"/>
</svg>
