<svg width="16" height="16" viewBox="0 0 16 16" fill="none" xmlns="http://www.w3.org/2000/svg">
<path d="M3.33333 2C2.22876 2 1.33333 2.89543 1.33333 4V4.66667C1.33333 5.77124 2.22876 6.66667 3.33333 6.66667H4C5.10457 6.66667 6 5.77124 6 4.66667V4C6 3.80935 5.97332 3.62493 5.9235 3.45027L4.02022 5.35355C3.82496 5.54882 3.50837 5.54882 3.31311 5.35355L2.31311 4.35355C2.11785 4.15829 2.11785 3.84171 2.31311 3.64645C2.50838 3.45118 2.82496 3.45118 3.02022 3.64645L3.66667 4.29289L5.39385 2.56571C5.03364 2.2156 4.542 2 4 2H3.33333Z" fill="#18202A"/>
<path d="M5.39385 9.89904C5.03364 9.54893 4.542 9.33333 4 9.33333H3.33333C2.22876 9.33333 1.33333 10.2288 1.33333 11.3333V12C1.33333 13.1046 2.22876 14 3.33333 14H4C5.10457 14 6 13.1046 6 12V11.3333C6 11.1427 5.97332 10.9583 5.9235 10.7836L4.02022 12.6869C3.82496 12.8821 3.50837 12.8821 3.31311 12.6869L2.31311 11.6869C2.11785 11.4916 2.11785 11.175 2.31311 10.9798C2.50838 10.7845 2.82496 10.7845 3.02022 10.9798L3.66667 11.6262L5.39385 9.89904Z" fill="#18202A"/>
<path d="M8 2.66667C7.63181 2.66667 7.33333 2.96514 7.33333 3.33333C7.33333 3.70152 7.63181 4 8 4H14C14.3682 4 14.6667 3.70152 14.6667 3.33333C14.6667 2.96514 14.3682 2.66667 14 2.66667H8Z" fill="#18202A"/>
<path d="M7.33333 5.33333C7.33333 4.96514 7.63181 4.66667 8 4.66667H14C14.3682 4.66667 14.6667 4.96514 14.6667 5.33333C14.6667 5.70152 14.3682 6 14 6H8C7.63181 6 7.33333 5.70152 7.33333 5.33333Z" fill="#18202A"/>
<path d="M8 10C7.63181 10 7.33333 10.2985 7.33333 10.6667C7.33333 11.0349 7.63181 11.3333 8 11.3333H14C14.3682 11.3333 14.6667 11.0349 14.6667 10.6667C14.6667 10.2985 14.3682 10 14 10H8Z" fill="#18202A"/>
<path d="M7.33333 12.6667C7.33333 12.2985 7.63181 12 8 12H14C14.3682 12 14.6667 12.2985 14.6667 12.6667C14.6667 13.0349 14.3682 13.3333 14 13.3333H8C7.63181 13.3333 7.33333 13.0349 7.33333 12.6667Z" fill="#18202A"/>
</svg>
