<svg width="16" height="16" viewBox="0 0 16 16" fill="none" xmlns="http://www.w3.org/2000/svg">
<g clip-path="url(#clip0_2266_37153)">
<path fill-rule="evenodd" clip-rule="evenodd" d="M8 15.3333C12.0501 15.3333 15.3333 12.0501 15.3333 7.99999C15.3333 3.9499 12.0501 0.666656 8 0.666656C3.94991 0.666656 0.666667 3.9499 0.666667 7.99999C0.666667 12.0501 3.94991 15.3333 8 15.3333ZM9.13807 4.86192C8.87772 4.60157 8.45561 4.60157 8.19526 4.86192C7.93491 5.12227 7.93491 5.54438 8.19526 5.80473L9.72386 7.33332H4.66667C4.29848 7.33332 4 7.6318 4 7.99999C4 8.36818 4.29848 8.66666 4.66667 8.66666H9.72386L8.19526 10.1953C7.93491 10.4556 7.93491 10.8777 8.19526 11.1381C8.45561 11.3984 8.87772 11.3984 9.13807 11.1381L11.8047 8.47139C12.0651 8.21104 12.0651 7.78893 11.8047 7.52859L9.13807 4.86192Z" fill="#18202A"/>
</g>
<defs>
<clipPath id="clip0_2266_37153">
<rect width="16" height="16" fill="white"/>
</clipPath>
</defs>
</svg>
