<svg width="16" height="16" viewBox="0 0 16 16" fill="none" xmlns="http://www.w3.org/2000/svg">
<path fill-rule="evenodd" clip-rule="evenodd" d="M1.85114 1.57432C1.55618 1.27936 1.10582 1.25149 0.845239 1.51207C0.584657 1.77265 0.612528 2.22301 0.90749 2.51797L1.46215 3.07263C0.978943 3.43772 0.666667 4.01708 0.666667 4.66938V10.0027C0.666667 11.1073 1.5621 12.0027 2.66667 12.0027H0.666667C0.298477 12.0027 0 12.3012 0 12.6694C0 13.0376 0.298477 13.336 0.666667 13.336H11.7256L12.8155 14.426C13.1105 14.721 13.5608 14.7488 13.8214 14.4883C14.082 14.2277 14.0541 13.7773 13.7592 13.4824L1.85114 1.57432ZM6.98255 8.59303L5.64914 7.25961C5.04846 7.90699 4.66665 8.87205 4.66665 10.2677C4.66665 10.3429 4.71703 10.4088 4.7896 10.4285C4.86218 10.4482 4.93898 10.4169 4.97705 10.352C5.42483 9.58917 5.78037 9.12468 6.31208 8.83956C6.50471 8.73627 6.7235 8.6549 6.98255 8.59303Z" fill="#18202A"/>
<path d="M15.3333 4.66938C15.3333 3.56481 14.4379 2.66938 13.3333 2.66938H4.828L8.28167 6.12305C8.41078 6.11243 8.53936 6.10593 8.66665 6.10295V5.00338C8.66665 4.70641 9.0257 4.55769 9.23569 4.76768L11.5 7.03198C11.6302 7.16215 11.6302 7.37321 11.5 7.50338L10.581 8.42237L14.0348 11.8762C14.7934 11.5921 15.3333 10.8604 15.3333 10.0027V4.66938Z" fill="#18202A"/>
<path d="M15.4788 13.3201L14.1613 12.0027H15.3333C15.7015 12.0027 16 12.3012 16 12.6694C16 12.9876 15.777 13.2538 15.4788 13.3201Z" fill="#18202A"/>
</svg>
