<svg width="16" height="16" viewBox="0 0 16 16" fill="none" xmlns="http://www.w3.org/2000/svg">
<path fill-rule="evenodd" clip-rule="evenodd" d="M11.5094 1.78091C11.9653 1.32738 12.7023 1.32837 13.1571 1.78311L14.2168 2.84283C14.6715 3.29758 14.6725 4.03457 14.219 4.49053L9.17169 9.56496C9.09625 9.6408 8.99848 9.69045 8.89273 9.70661L7.04296 9.98934C6.43863 10.0817 5.91819 9.56126 6.01056 8.95693L6.29328 7.10716C6.30944 7.00142 6.35909 6.90364 6.43493 6.8282L11.5094 1.78091ZM12.45 2.49022C12.385 2.42526 12.2797 2.42512 12.2146 2.48991L11.7044 2.99732L13.0026 4.29546L13.51 3.78532C13.5748 3.72018 13.5746 3.6149 13.5097 3.54994L12.45 2.49022ZM12.2974 5.00447L10.9954 3.70253L7.25691 7.42106L7.01842 8.98147L8.57883 8.74298L12.2974 5.00447Z" fill="#18202A"/>
<path d="M8.00004 3.16667C8.00004 2.89052 7.77618 2.66667 7.50004 2.66667H3.33337C2.2288 2.66667 1.33337 3.5621 1.33337 4.66667V12.6667C1.33337 13.7712 2.2288 14.6667 3.33337 14.6667H11.3334C12.4379 14.6667 13.3334 13.7712 13.3334 12.6667V8.5C13.3334 8.22386 13.1095 8 12.8334 8C12.5572 8 12.3334 8.22386 12.3334 8.5V12.6667C12.3334 13.219 11.8857 13.6667 11.3334 13.6667H3.33337C2.78109 13.6667 2.33337 13.219 2.33337 12.6667V4.66667C2.33337 4.11438 2.78109 3.66667 3.33337 3.66667H7.50004C7.77618 3.66667 8.00004 3.44281 8.00004 3.16667Z" fill="#18202A"/>
</svg>
