<svg width="16" height="16" viewBox="0 0 16 16" fill="none" xmlns="http://www.w3.org/2000/svg">
<path fill-rule="evenodd" clip-rule="evenodd" d="M14.6667 8.00033C14.6667 6.52757 13.4728 5.33366 12 5.33366V4.66699C12 2.45785 10.2091 0.666992 8 0.666992C5.79086 0.666992 4 2.45785 4 4.66699V5.33366C2.52724 5.33366 1.33333 6.52757 1.33333 8.00033V12.667C1.33333 14.1398 2.52724 15.3337 4 15.3337H12C13.4728 15.3337 14.6667 14.1398 14.6667 12.667V8.00033ZM8 2.00033C9.47276 2.00033 10.6667 3.19423 10.6667 4.66699V5.33366H5.33333V4.66699C5.33333 3.19423 6.52724 2.00033 8 2.00033ZM8.66667 10.4886C9.0652 10.2581 9.33333 9.82718 9.33333 9.33366C9.33333 8.59728 8.73638 8.00033 8 8.00033C7.26362 8.00033 6.66667 8.59728 6.66667 9.33366C6.66667 9.82718 6.9348 10.2581 7.33333 10.4886V12.0003C7.33333 12.3685 7.63181 12.667 8 12.667C8.36819 12.667 8.66667 12.3685 8.66667 12.0003V10.4886Z" fill="#18202A"/>
</svg>
