<svg width="16" height="16" viewBox="0 0 16 16" fill="none" xmlns="http://www.w3.org/2000/svg">
<g clip-path="url(#clip0_2266_36163)">
<path fill-rule="evenodd" clip-rule="evenodd" d="M7.33333 0.666992H4.66667C3.19391 0.666992 2 1.8609 2 3.33366V12.667C2 14.1398 3.19391 15.3337 4.66667 15.3337H7.50805C6.96407 14.5545 6.66667 13.622 6.66667 12.6588C6.66667 11.5043 7.094 10.3915 7.88885 9.50838L8.03507 9.35487L10.0563 7.33366H8.66667H7.33333V6.00033V0.666992ZM13.8802 6.00033H12.9575L12.9556 6.00033L12.9537 6.00033H8.66667V0.786752C8.81065 0.852274 8.94318 0.943506 9.05719 1.05752L13.6095 5.6098C13.7235 5.72381 13.8147 5.85634 13.8802 6.00033ZM13.9326 7.52015C13.6356 7.39703 13.3172 7.33366 12.9956 7.33366C12.674 7.33366 12.3556 7.39703 12.0586 7.52016C11.7615 7.64327 11.4916 7.82373 11.2643 8.05122L9.01787 10.2977L8.89633 10.4259C8.34639 11.0374 8.04 11.8323 8.04 12.6588C8.04 13.5443 8.39172 14.3935 9.01783 15.0198C9.64414 15.646 10.4934 15.9977 11.3789 15.9977C12.2645 15.9977 13.1138 15.646 13.74 15.0198L15.8067 12.9532L15.8621 12.8904C16.0655 12.6288 16.047 12.2507 15.8067 12.0103C15.5463 11.75 15.1242 11.75 14.8639 12.0103L12.7972 14.077L12.7004 14.1676C12.3359 14.4868 11.8666 14.6644 11.3789 14.6644C10.847 14.6644 10.3368 14.4531 9.96065 14.077C9.58462 13.7009 9.37333 13.1907 9.37333 12.6588C9.37333 12.1268 9.58462 11.6166 9.96073 11.2404L12.2073 8.99382L12.2886 8.92013C12.3732 8.85063 12.4677 8.79392 12.5691 8.75189C12.7043 8.69584 12.8492 8.66699 12.9956 8.66699C13.142 8.66699 13.2869 8.69584 13.4221 8.75188C13.5574 8.80792 13.6802 8.89007 13.7837 8.99362C13.9927 9.20281 14.1101 9.48638 14.1101 9.78209C14.1101 10.0778 13.9927 10.3614 13.7837 10.5705L11.7172 12.637L11.6831 12.665L11.6445 12.6857C11.6174 12.697 11.5883 12.7028 11.5589 12.7028C11.5296 12.7028 11.5005 12.697 11.4734 12.6857C11.4463 12.6745 11.4217 12.658 11.4009 12.6373C11.3797 12.616 11.3632 12.5914 11.352 12.5643C11.3407 12.5372 11.3349 12.5081 11.3349 12.4788C11.3349 12.4494 11.3407 12.4203 11.3519 12.3932C11.3632 12.3661 11.3797 12.3415 11.4004 12.3208L12.9301 10.7904L12.9856 10.7276C13.1889 10.466 13.1703 10.0878 12.9299 9.84758C12.6695 9.58729 12.2474 9.58738 11.9871 9.84778L10.4578 11.3778L10.3748 11.4675C10.2689 11.5914 10.1829 11.7315 10.1202 11.8827C10.0419 12.0716 10.0016 12.2742 10.0016 12.4788C10.0016 12.6833 10.0419 12.8859 10.1202 13.0749C10.1986 13.2638 10.3134 13.4355 10.4581 13.5801C10.6022 13.7243 10.7739 13.8391 10.9628 13.9174C11.1518 13.9958 11.3544 14.0361 11.5589 14.0361C11.7635 14.0361 11.9661 13.9958 12.155 13.9174C12.344 13.8391 12.5157 13.7243 12.6603 13.5796L14.7267 11.5132L14.829 11.4043C15.2238 10.9579 15.4435 10.3813 15.4435 9.78209C15.4435 9.13292 15.1857 8.51032 14.7268 8.05116C14.4996 7.82373 14.2297 7.64327 13.9326 7.52015Z" fill="#18202A"/>
</g>
<defs>
<clipPath id="clip0_2266_36163">
<rect width="16" height="16" fill="white"/>
</clipPath>
</defs>
</svg>
