<svg width="16" height="16" viewBox="0 0 16 16" fill="none" xmlns="http://www.w3.org/2000/svg">
<g clip-path="url(#clip0_2266_36194)">
<path fill-rule="evenodd" clip-rule="evenodd" d="M3.33333 2C1.86057 2 0.666667 3.19391 0.666667 4.66667V6H15.3333C15.3333 4.52724 14.1394 3.33333 12.6667 3.33333H8L7.25245 2.58579C6.87738 2.21071 6.36867 2 5.83824 2H3.33333ZM0.666667 6.66667V11.3333C0.666667 12.8061 1.86057 14 3.33333 14H8.19325C8.06752 13.5775 8 13.13 8 12.6667C8 10.0893 10.0893 8 12.6667 8C13.6582 8 14.5774 8.30921 15.3333 8.83646V6.66667H0.666667ZM16 12.6667C16 14.5076 14.5076 16 12.6667 16C10.8257 16 9.33333 14.5076 9.33333 12.6667C9.33333 10.8257 10.8257 9.33333 12.6667 9.33333C14.5076 9.33333 16 10.8257 16 12.6667ZM12.6667 10.6667C12.2985 10.6667 12 10.9651 12 11.3333V12H11.3333C10.9651 12 10.6667 12.2985 10.6667 12.6667C10.6667 13.0349 10.9651 13.3333 11.3333 13.3333H12V14C12 14.3682 12.2985 14.6667 12.6667 14.6667C13.0349 14.6667 13.3333 14.3682 13.3333 14V13.3333H14C14.3682 13.3333 14.6667 13.0349 14.6667 12.6667C14.6667 12.2985 14.3682 12 14 12H13.3333V11.3333C13.3333 10.9651 13.0349 10.6667 12.6667 10.6667Z" fill="#18202A"/>
</g>
<defs>
<clipPath id="clip0_2266_36194">
<rect width="16" height="16" fill="white"/>
</clipPath>
</defs>
</svg>
