<svg width="16" height="16" viewBox="0 0 16 16" fill="none" xmlns="http://www.w3.org/2000/svg">
<path fill-rule="evenodd" clip-rule="evenodd" d="M6.80478 4.13807C7.06513 3.87772 7.06513 3.45561 6.80478 3.19526C6.54443 2.93491 6.12232 2.93491 5.86197 3.19526L1.52864 7.5286C1.26829 7.78895 1.26829 8.21106 1.52864 8.4714L5.86197 12.8047C6.12232 13.0651 6.54443 13.0651 6.80478 12.8047C7.06513 12.5444 7.06513 12.1223 6.80478 11.8619L2.94285 8L6.80478 4.13807ZM9.1953 4.13807C8.93495 3.87772 8.93495 3.45561 9.1953 3.19526C9.45565 2.93491 9.87776 2.93491 10.1381 3.19526L14.4714 7.5286C14.7318 7.78895 14.7318 8.21106 14.4714 8.4714L10.1381 12.8047C9.87776 13.0651 9.45565 13.0651 9.1953 12.8047C8.93495 12.5444 8.93495 12.1223 9.1953 11.8619L13.0572 8L9.1953 4.13807Z" fill="#18202A"/>
</svg>
