<svg width="16" height="16" viewBox="0 0 16 16" fill="none" xmlns="http://www.w3.org/2000/svg">
<path d="M5.83337 1.3335C6.10952 1.3335 6.33337 1.55735 6.33337 1.8335C6.33337 2.10964 6.10952 2.3335 5.83337 2.3335H3.33337C2.78109 2.3335 2.33337 2.78121 2.33337 3.3335V5.8335C2.33337 6.10964 2.10952 6.3335 1.83337 6.3335C1.55723 6.3335 1.33337 6.10964 1.33337 5.8335V3.3335C1.33337 2.22893 2.2288 1.3335 3.33337 1.3335H5.83337Z" fill="#18202A"/>
<path d="M9.66671 1.8335C9.66671 2.10964 9.89056 2.3335 10.1667 2.3335H12.6667C13.219 2.3335 13.6667 2.78121 13.6667 3.3335V5.8335C13.6667 6.10964 13.8906 6.3335 14.1667 6.3335C14.4428 6.3335 14.6667 6.10964 14.6667 5.8335V3.3335C14.6667 2.22893 13.7713 1.3335 12.6667 1.3335H10.1667C9.89056 1.3335 9.66671 1.55735 9.66671 1.8335Z" fill="#18202A"/>
<path d="M9.66671 14.1668C9.66671 13.8907 9.89056 13.6668 10.1667 13.6668H12.6667C13.219 13.6668 13.6667 13.2191 13.6667 12.6668V10.1668C13.6667 9.89069 13.8906 9.66683 14.1667 9.66683C14.4428 9.66683 14.6667 9.89069 14.6667 10.1668V12.6668C14.6667 13.7714 13.7713 14.6668 12.6667 14.6668H10.1667C9.89056 14.6668 9.66671 14.443 9.66671 14.1668Z" fill="#18202A"/>
<path d="M2.33337 10.1668C2.33337 9.89069 2.10952 9.66683 1.83337 9.66683C1.55723 9.66683 1.33337 9.89069 1.33337 10.1668V12.6668C1.33337 13.7714 2.2288 14.6668 3.33337 14.6668H5.83337C6.10952 14.6668 6.33337 14.443 6.33337 14.1668C6.33337 13.8907 6.10952 13.6668 5.83337 13.6668H3.33337C2.78109 13.6668 2.33337 13.2191 2.33337 12.6668V10.1668Z" fill="#18202A"/>
</svg>
