<svg width="16" height="16" viewBox="0 0 16 16" fill="none" xmlns="http://www.w3.org/2000/svg">
<g clip-path="url(#clip0_2266_39440)">
<path fill-rule="evenodd" clip-rule="evenodd" d="M4.66666 5.66667H1.99999C1.81589 5.66667 1.66666 5.8159 1.66666 6V14C1.66666 14.1841 1.81589 14.3333 1.99999 14.3333H4.66666C4.85075 14.3333 4.99999 14.1841 4.99999 14V6C4.99999 5.8159 4.85075 5.66667 4.66666 5.66667ZM1.99999 4.66667C1.26361 4.66667 0.666656 5.26362 0.666656 6V14C0.666656 14.7364 1.26361 15.3333 1.99999 15.3333H4.66666C5.40304 15.3333 5.99999 14.7364 5.99999 14V6C5.99999 5.26362 5.40304 4.66667 4.66666 4.66667H1.99999Z" fill="#18202A"/>
<path fill-rule="evenodd" clip-rule="evenodd" d="M8.55089 0.39006C8.78659 0.219008 9.07484 0.174174 9.33907 0.210422C10.1205 0.317623 10.7575 0.624312 11.1972 1.13004C11.6363 1.63517 11.8333 2.28703 11.8333 2.99996C11.8333 3.51038 11.7707 3.8819 11.6905 4.16663H14C15.0125 4.16663 15.8333 4.98744 15.8333 5.99996V6.18572C15.8333 8.33328 15.3333 10.4513 14.3729 12.3722L14.3333 12.4513C13.9098 13.2983 13.0442 13.8333 12.0973 13.8333H4.99999L4.99998 5.49996H6.0476C6.38712 5.49996 6.81379 5.25373 7.24855 4.76425C8.01628 3.89988 8.16666 2.5383 8.16666 1.16873C8.16666 0.852599 8.30271 0.570175 8.55089 0.39006ZM9.16664 1.19865C9.16476 2.55258 9.03254 4.26156 7.99621 5.42833C7.5052 5.98115 6.82601 6.49996 6.0476 6.49996H5.99998L5.99999 12.8333H12.0973C12.6654 12.8333 13.1848 12.5123 13.4389 12.0041L13.4785 11.925C14.3695 10.143 14.8333 8.17803 14.8333 6.18572V5.99996C14.8333 5.53972 14.4602 5.16663 14 5.16663H11.6667C11.354 5.16663 11.0476 5.04416 10.855 4.77506C10.6659 4.51084 10.6453 4.18758 10.7269 3.89947C10.781 3.70829 10.8333 3.42743 10.8333 2.99996C10.8333 2.47073 10.6894 2.07017 10.4424 1.7861C10.196 1.50261 9.80195 1.28329 9.20315 1.20114C9.18885 1.19918 9.17668 1.19855 9.16664 1.19865Z" fill="#18202A"/>
</g>
<defs>
<clipPath id="clip0_2266_39440">
<rect width="16" height="16" fill="white"/>
</clipPath>
</defs>
</svg>
