<svg width="16" height="16" viewBox="0 0 16 16" fill="none" xmlns="http://www.w3.org/2000/svg">
<path fill-rule="evenodd" clip-rule="evenodd" d="M13.3334 7.33337C13.3334 8.58135 12.9524 9.74034 12.3003 10.7004C12.0867 11.0149 11.844 11.3081 11.576 11.576C11.3081 11.844 11.0149 12.0867 10.7004 12.3003C9.74034 12.9524 8.58135 13.3334 7.33337 13.3334C4.01967 13.3334 1.33337 10.6471 1.33337 7.33337C1.33337 4.01967 4.01967 1.33337 7.33337 1.33337C10.6471 1.33337 13.3334 4.01967 13.3334 7.33337ZM12.1953 12.1953C12.397 11.9936 12.6958 11.9482 12.9413 12.059C13.0126 12.0912 13.0795 12.1367 13.1381 12.1953L14.4714 13.5286C14.7318 13.789 14.7318 14.2111 14.4714 14.4714C14.2111 14.7318 13.789 14.7318 13.5286 14.4714L12.1953 13.1381C12.1367 13.0795 12.0912 13.0126 12.059 12.9413C11.9482 12.6958 11.9936 12.397 12.1953 12.1953ZM12 7.33337C12 9.9107 9.9107 12 7.33337 12C4.75605 12 2.66671 9.9107 2.66671 7.33337C2.66671 4.75605 4.75605 2.66671 7.33337 2.66671C9.9107 2.66671 12 4.75605 12 7.33337ZM8.00004 5.00004C8.00004 4.63185 7.70156 4.33337 7.33337 4.33337C6.96518 4.33337 6.66671 4.63185 6.66671 5.00004V6.66671H5.00004C4.63185 6.66671 4.33337 6.96518 4.33337 7.33337C4.33337 7.70156 4.63185 8.00004 5.00004 8.00004H6.66671V9.66671C6.66671 10.0349 6.96518 10.3334 7.33337 10.3334C7.70156 10.3334 8.00004 10.0349 8.00004 9.66671V8.00004H9.66671C10.0349 8.00004 10.3334 7.70156 10.3334 7.33337C10.3334 6.96518 10.0349 6.66671 9.66671 6.66671H8.00004V5.00004Z" fill="#18202A"/>
</svg>
