<svg width="16" height="16" viewBox="0 0 16 16" fill="none" xmlns="http://www.w3.org/2000/svg">
<g clip-path="url(#clip0_2266_40460)">
<path fill-rule="evenodd" clip-rule="evenodd" d="M3.33333 11.3333L7.20891 14.8756C8.27848 15.8532 10 15.0944 10 13.6454V2.35477C10 0.905759 8.27852 0.146961 7.20894 1.12452L3.33333 4.66667H2C0.895431 4.66667 0 5.5621 0 6.66667V9.33333C0 10.4379 0.89543 11.3333 2 11.3333H3.33333ZM3.72148 10.3333L7.88356 14.1375C8.31139 14.5285 9 14.225 9 13.6454V2.35477C9 1.77516 8.31141 1.47165 7.88358 1.86267L3.72147 5.66667H3.66667V10.3333H3.72148ZM2.66667 10.3333V5.66667H2C1.44772 5.66667 1 6.11438 1 6.66667V9.33333C1 9.88562 1.44772 10.3333 2 10.3333H2.66667Z" fill="#18202A"/>
<path d="M14.4167 5.08559C14.2871 4.84177 13.9843 4.74922 13.7405 4.87886C13.4967 5.0085 13.4041 5.31125 13.5338 5.55507C13.9446 6.32765 14.166 7.23181 14.166 8.16023C14.166 9.08866 13.9446 9.99282 13.5338 10.7654C13.4041 11.0092 13.4967 11.312 13.7405 11.4416C13.9843 11.5713 14.2871 11.4787 14.4167 11.2349C14.9081 10.3108 15.166 9.24436 15.166 8.16023C15.166 7.07611 14.9081 6.00964 14.4167 5.08559Z" fill="#18202A"/>
<path d="M12.4554 6.14886C12.3006 5.92019 11.9897 5.86032 11.761 6.01513C11.5324 6.16994 11.4725 6.48081 11.6273 6.70948C11.9047 7.11916 12.0626 7.64229 12.0626 8.19111C12.0626 8.73992 11.9047 9.26305 11.6273 9.67274C11.4725 9.9014 11.5324 10.2123 11.761 10.3671C11.9897 10.5219 12.3006 10.462 12.4554 10.2334C12.8524 9.64691 13.0626 8.92572 13.0626 8.19111C13.0626 7.4565 12.8524 6.73531 12.4554 6.14886Z" fill="#18202A"/>
</g>
<defs>
<clipPath id="clip0_2266_40460">
<rect width="16" height="16" fill="white"/>
</clipPath>
</defs>
</svg>
