<svg width="16" height="16" viewBox="0 0 16 16" fill="none" xmlns="http://www.w3.org/2000/svg">
<g clip-path="url(#clip0_3289_16938)">
<path d="M4.16671 1.3335C4.44285 1.3335 4.66671 1.55735 4.66671 1.8335V3.66683H6.50004C6.77618 3.66683 7.00004 3.89069 7.00004 4.16683C7.00004 4.44297 6.77618 4.66683 6.50004 4.66683H4.66671V6.50016C4.66671 6.7763 4.44285 7.00016 4.16671 7.00016C3.89056 7.00016 3.66671 6.7763 3.66671 6.50016V4.66683H1.83337C1.55723 4.66683 1.33337 4.44297 1.33337 4.16683C1.33337 3.89069 1.55723 3.66683 1.83337 3.66683H3.66671V1.8335C3.66671 1.55735 3.89056 1.3335 4.16671 1.3335ZM9.50004 3.66683C9.2239 3.66683 9.00004 3.89069 9.00004 4.16683C9.00004 4.44297 9.2239 4.66683 9.50004 4.66683H14.1667C14.4428 4.66683 14.6667 4.44297 14.6667 4.16683C14.6667 3.89069 14.4428 3.66683 14.1667 3.66683H9.50004ZM9.00004 11.8335C9.00004 11.5574 9.2239 11.3335 9.50004 11.3335H14.1667C14.4428 11.3335 14.6667 11.5574 14.6667 11.8335C14.6667 12.1096 14.4428 12.3335 14.1667 12.3335H9.50004C9.2239 12.3335 9.00004 12.1096 9.00004 11.8335ZM11.8334 10.6668C12.2016 10.6668 12.5 10.3684 12.5 10.0002C12.5 9.63197 12.2016 9.3335 11.8334 9.3335C11.4652 9.3335 11.1667 9.63197 11.1667 10.0002C11.1667 10.3684 11.4652 10.6668 11.8334 10.6668ZM12.5 14.0002C12.5 14.3684 12.2016 14.6668 11.8334 14.6668C11.4652 14.6668 11.1667 14.3684 11.1667 14.0002C11.1667 13.632 11.4652 13.3335 11.8334 13.3335C12.2016 13.3335 12.5 13.632 12.5 14.0002ZM1.47982 9.52038C1.28456 9.32512 1.28456 9.00854 1.47982 8.81328C1.67508 8.61801 1.99167 8.61801 2.18693 8.81328L4.16671 10.7931L6.14649 8.81328C6.34175 8.61801 6.65833 8.61801 6.85359 8.81328C7.04886 9.00854 7.04886 9.32512 6.85359 9.52038L4.87381 11.5002L6.85359 13.4799C7.04886 13.6752 7.04886 13.9918 6.85359 14.187C6.65833 14.3823 6.34175 14.3823 6.14649 14.187L4.16671 12.2073L2.18693 14.187C1.99167 14.3823 1.67508 14.3823 1.47982 14.187C1.28456 13.9918 1.28456 13.6752 1.47982 13.4799L3.4596 11.5002L1.47982 9.52038Z" fill="#18202A"/>
</g>
<defs>
<clipPath id="clip0_3289_16938">
<rect width="16" height="16" fill="white"/>
</clipPath>
</defs>
</svg>
