<svg width="16" height="16" viewBox="0 0 16 16" fill="none" xmlns="http://www.w3.org/2000/svg">
<g clip-path="url(#clip0_3289_16719)">
<g clip-path="url(#clip1_3289_16719)">
<path d="M6.32815 5.26287C6.1068 5.41044 6.00002 5.59178 6.00002 5.83317C6.00002 6.20136 5.70154 6.49984 5.33335 6.49984C4.96516 6.49984 4.66668 6.20136 4.66668 5.83317C4.66668 5.07457 5.0599 4.5059 5.58855 4.15347C6.09744 3.81421 6.73446 3.6665 7.33335 3.6665C8.82955 3.6665 10 4.76082 10 6.1665C10 6.904 9.55776 7.61223 9.18535 8.10618C8.87995 8.51124 8.52964 8.88525 8.30967 9.1201C8.24961 9.18423 8.19926 9.23798 8.1622 9.27916C7.91465 9.5542 7.37207 10.136 6.87492 10.6665H9.33335C9.70154 10.6665 10 10.965 10 11.3332C10 11.7014 9.70154 11.9998 9.33335 11.9998H5.33335C5.06726 11.9998 4.82665 11.8416 4.72123 11.5973C4.61581 11.353 4.66578 11.0693 4.84835 10.8758L5.14063 10.5654C5.31929 10.3756 5.56278 10.1166 5.82217 9.83997C6.34338 9.28406 6.92138 8.66471 7.17116 8.38718C7.23012 8.32168 7.29765 8.24948 7.37115 8.1709C7.59091 7.93595 7.86402 7.64394 8.1207 7.30349C8.47962 6.82744 8.66668 6.42901 8.66668 6.1665C8.66668 5.57219 8.17048 4.99984 7.33335 4.99984C6.93224 4.99984 6.56926 5.10213 6.32815 5.26287Z" fill="#18202A"/>
<path d="M2.94945 3.72945C3.18371 3.83917 3.33335 4.0745 3.33335 4.33318V11.3332C3.33335 11.7014 3.03487 11.9998 2.66668 11.9998C2.29849 11.9998 2.00002 11.7014 2.00002 11.3332V5.75654L1.09347 6.51199C0.810622 6.7477 0.390245 6.70949 0.154536 6.42664C-0.0811735 6.14378 -0.0429575 5.72341 0.239894 5.4877L2.23989 3.82103C2.43862 3.65543 2.7152 3.61973 2.94945 3.72945Z" fill="#18202A"/>
<path d="M12.3281 5.26287C12.1068 5.41044 12 5.59178 12 5.83317C12 6.20136 11.7015 6.49984 11.3333 6.49984C10.9651 6.49984 10.6667 6.20136 10.6667 5.83317C10.6667 5.07457 11.0599 4.5059 11.5885 4.15347C12.0974 3.81421 12.7344 3.6665 13.3333 3.6665C14.0393 3.6665 14.6985 3.86834 15.1946 4.27688C15.7011 4.69394 16 5.29868 16 5.99984C16 6.80233 15.6724 7.41791 15.1614 7.8332C15.6724 8.24848 16 8.86405 16 9.66654C16 10.2136 15.8466 10.6687 15.579 11.0282C15.3171 11.3801 14.9764 11.5994 14.6617 11.7363C14.0549 12.0001 13.4431 11.9999 13.3364 11.9999H13.3333C12.8468 11.9999 12.2185 11.9055 11.6868 11.5976C11.1188 11.2688 10.6667 10.6909 10.6667 9.83317C10.6667 9.46498 10.9651 9.1665 11.3333 9.1665C11.7015 9.1665 12 9.46498 12 9.83317C12 10.1421 12.1312 10.3142 12.3549 10.4437C12.6148 10.5942 12.9865 10.6665 13.3333 10.6665C13.4025 10.6665 13.7845 10.6637 14.13 10.5135C14.2944 10.442 14.4225 10.3488 14.5095 10.232C14.5909 10.1227 14.6667 9.95277 14.6667 9.66654C14.6667 9.22996 14.4925 8.97663 14.2344 8.80457C13.9426 8.61008 13.5033 8.49987 13 8.49987C12.6318 8.49987 12.3333 8.2014 12.3333 7.83321C12.3333 7.46502 12.6318 7.16654 13 7.16654C13.5033 7.16654 13.9426 7.05633 14.2344 6.86183C14.4925 6.68976 14.6667 6.43642 14.6667 5.99984C14.6667 5.701 14.5489 5.4724 14.347 5.30612C14.1348 5.13133 13.794 4.99984 13.3333 4.99984C12.9322 4.99984 12.5692 5.10213 12.3281 5.26287Z" fill="#18202A"/>
</g>
</g>
<defs>
<clipPath id="clip0_3289_16719">
<rect width="16" height="16" fill="white"/>
</clipPath>
<clipPath id="clip1_3289_16719">
<rect width="16" height="16" fill="white"/>
</clipPath>
</defs>
</svg>
