<svg width="16" height="16" viewBox="0 0 16 16" fill="none" xmlns="http://www.w3.org/2000/svg">
<g clip-path="url(#clip0_2266_39014)">
<path d="M8.83771 4.16675C9.75577 4.16675 10.5 4.91097 10.5 5.82903C10.5 6.50477 10.0916 7.10891 9.47441 7.36456L9.36337 7.406L9.15811 7.47442C8.79531 7.59535 8.54153 7.91805 8.50463 8.29282L8.49999 8.38751V8.66675C8.49999 8.94289 8.27613 9.16675 7.99999 9.16675C7.74686 9.16675 7.53766 8.97865 7.50455 8.7346L7.49999 8.66675V8.38751C7.49999 7.58503 7.98781 6.86809 8.72367 6.56938L8.84188 6.52574L9.04714 6.45732C9.31758 6.36717 9.49999 6.11409 9.49999 5.82903C9.49999 5.48938 9.24433 5.20946 8.91495 5.1712L8.83771 5.16675H6.9428C6.69825 5.16675 6.49999 5.365 6.49999 5.60956C6.49999 5.70351 6.52985 5.79438 6.58431 5.86949L6.62968 5.92267L6.68688 5.97986C6.88214 6.17512 6.88214 6.49171 6.68688 6.68697C6.50937 6.86448 6.23159 6.88062 6.03585 6.73538L5.97977 6.68697L5.92258 6.62978C5.652 6.3592 5.49999 5.99221 5.49999 5.60956C5.49999 4.84736 6.09101 4.2232 6.83976 4.17037L6.9428 4.16675H8.83771Z" fill="#18202A"/>
<path d="M8.66666 10.6667C8.66666 10.2986 8.36818 10.0001 7.99999 10.0001C7.6318 10.0001 7.33332 10.2986 7.33332 10.6667C7.33332 11.0349 7.6318 11.3334 7.99999 11.3334C8.36818 11.3334 8.66666 11.0349 8.66666 10.6667Z" fill="#18202A"/>
<path fill-rule="evenodd" clip-rule="evenodd" d="M7.99999 15.3334C12.0501 15.3334 15.3333 12.0502 15.3333 8.00008C15.3333 3.94999 12.0501 0.666748 7.99999 0.666748C3.9499 0.666748 0.666656 3.94999 0.666656 8.00008C0.666656 12.0502 3.9499 15.3334 7.99999 15.3334ZM14.3333 8.00008C14.3333 11.4979 11.4978 14.3334 7.99999 14.3334C4.50219 14.3334 1.66666 11.4979 1.66666 8.00008C1.66666 4.50228 4.50219 1.66675 7.99999 1.66675C11.4978 1.66675 14.3333 4.50228 14.3333 8.00008Z" fill="#18202A"/>
</g>
<defs>
<clipPath id="clip0_2266_39014">
<rect width="16" height="16" fill="white"/>
</clipPath>
</defs>
</svg>
