<svg width="16" height="16" viewBox="0 0 16 16" fill="none" xmlns="http://www.w3.org/2000/svg">
<path d="M6.16663 1.6665C6.44277 1.6665 6.66663 1.89036 6.66663 2.1665V4.83317C6.66663 5.84569 5.84581 6.6665 4.83329 6.6665H2.16663C1.89048 6.6665 1.66663 6.44265 1.66663 6.1665C1.66663 5.89036 1.89048 5.6665 2.16663 5.6665H4.83329C5.29353 5.6665 5.66663 5.29341 5.66663 4.83317V2.1665C5.66663 1.89036 5.89048 1.6665 6.16663 1.6665Z" fill="#18202A"/>
<path d="M1.66663 9.83317C1.66663 9.55703 1.89048 9.33317 2.16663 9.33317H4.83329C5.84581 9.33317 6.66663 10.154 6.66663 11.1665V13.8332C6.66663 14.1093 6.44277 14.3332 6.16663 14.3332C5.89048 14.3332 5.66663 14.1093 5.66663 13.8332V11.1665C5.66663 10.7063 5.29353 10.3332 4.83329 10.3332H2.16663C1.89048 10.3332 1.66663 10.1093 1.66663 9.83317Z" fill="#18202A"/>
<path d="M14.3333 6.1665C14.3333 6.44265 14.1094 6.6665 13.8333 6.6665H11.1666C10.1541 6.6665 9.33329 5.84569 9.33329 4.83317V2.1665C9.33329 1.89036 9.55715 1.6665 9.83329 1.6665C10.1094 1.6665 10.3333 1.89036 10.3333 2.1665V4.83317C10.3333 5.29341 10.7064 5.6665 11.1666 5.6665H13.8333C14.1094 5.6665 14.3333 5.89036 14.3333 6.1665Z" fill="#18202A"/>
<path d="M9.8333 14.3332C9.55715 14.3332 9.3333 14.1093 9.3333 13.8332L9.3333 11.0639C9.3333 10.1081 10.1082 9.33317 11.0641 9.33317H13.8333C14.1094 9.33317 14.3333 9.55703 14.3333 9.83317C14.3333 10.1093 14.1094 10.3332 13.8333 10.3332H11.0641C10.6605 10.3332 10.3333 10.6603 10.3333 11.0639L10.3333 13.8332C10.3333 14.1093 10.1094 14.3332 9.8333 14.3332Z" fill="#18202A"/>
</svg>
