<svg width="16" height="16" viewBox="0 0 16 16" fill="none" xmlns="http://www.w3.org/2000/svg">
<path d="M6.00004 1.99992C6.00004 2.36811 5.70156 2.66659 5.33337 2.66659H4.00004C3.26366 2.66659 2.66671 3.26354 2.66671 3.99992V11.9999C2.66671 12.7363 3.26366 13.3333 4.00004 13.3333H12C12.7364 13.3333 13.3334 12.7363 13.3334 11.9999V10.6666C13.3334 10.2984 13.6319 9.99992 14 9.99992C14.3682 9.99992 14.6667 10.2984 14.6667 10.6666V11.9999C14.6667 13.4727 13.4728 14.6666 12 14.6666H4.00004C2.52728 14.6666 1.33337 13.4727 1.33337 11.9999V3.99992C1.33337 2.52716 2.52728 1.33325 4.00004 1.33325H5.33337C5.70156 1.33325 6.00004 1.63173 6.00004 1.99992Z" fill="#18202A"/>
<path fill-rule="evenodd" clip-rule="evenodd" d="M8.50004 1.99992C8.50004 1.63173 8.79852 1.33325 9.16671 1.33325H14C14.3682 1.33325 14.6667 1.63173 14.6667 1.99992V6.83325C14.6667 7.20144 14.3682 7.49992 14 7.49992C13.6319 7.49992 13.3334 7.20144 13.3334 6.83325V3.60939L7.13811 9.80466C6.87776 10.065 6.45565 10.065 6.1953 9.80466C5.93495 9.54431 5.93495 9.1222 6.1953 8.86185L12.3906 2.66659H9.16671C8.79852 2.66659 8.50004 2.36811 8.50004 1.99992Z" fill="#18202A"/>
</svg>
