<svg width="16" height="16" viewBox="0 0 16 16" fill="none" xmlns="http://www.w3.org/2000/svg">
<path fill-rule="evenodd" clip-rule="evenodd" d="M13.3268 4.50325C13.2437 3.47504 12.383 2.6665 11.3334 2.6665H4.66671C3.6171 2.6665 2.75634 3.47504 2.67327 4.50325C2.29842 4.83581 2.04939 5.30707 2.00661 5.83658C1.59363 6.20297 1.33337 6.73767 1.33337 7.33317V12.6665C1.33337 13.7711 2.2288 14.6665 3.33337 14.6665H12.6667C13.7713 14.6665 14.6667 13.7711 14.6667 12.6665V7.33317C14.6667 6.73767 14.4065 6.20297 13.9935 5.83658C13.9507 5.30707 13.7017 4.83581 13.3268 4.50325ZM12.0802 4.00142C11.897 3.79592 11.6303 3.6665 11.3334 3.6665H4.66671C4.36978 3.6665 4.10308 3.79592 3.91993 4.00141C3.9465 4.00037 3.97321 3.99984 4.00004 3.99984H12C12.0269 3.99984 12.0536 4.00037 12.0802 4.00142ZM3.33337 5.33317C3.30654 5.33317 3.27984 5.3337 3.25326 5.33475C3.43641 5.12925 3.70311 4.99984 4.00004 4.99984H12C12.297 4.99984 12.5637 5.12925 12.7468 5.33475C12.7202 5.3337 12.6935 5.33317 12.6667 5.33317H3.33337ZM11.1495 8.45961C11.4034 8.19299 11.3931 7.771 11.1265 7.51708C10.8599 7.26316 10.4379 7.27345 10.184 7.54007L6.88324 11.0058L5.83956 9.7882C5.59994 9.50865 5.17908 9.47628 4.89952 9.71589C4.61997 9.9555 4.5876 10.3764 4.82721 10.6559L6.35102 12.4337C6.47372 12.5768 6.65127 12.6613 6.83974 12.6663C7.0282 12.6712 7.20994 12.5961 7.33995 12.4596L11.1495 8.45961Z" fill="#18202A"/>
</svg>
