<svg width="16" height="16" viewBox="0 0 16 16" fill="none" xmlns="http://www.w3.org/2000/svg">
<path fill-rule="evenodd" clip-rule="evenodd" d="M8.29293 11.6464C8.09767 11.8417 8.09767 12.1583 8.29293 12.3536C8.48819 12.5488 8.80478 12.5488 9.00004 12.3536L13 8.35355C13.1953 8.15829 13.1953 7.84171 13 7.64645L9.00004 3.64645C8.80478 3.45118 8.48819 3.45118 8.29293 3.64645C8.09767 3.84171 8.09767 4.15829 8.29293 4.35355L11.9394 8L8.29293 11.6464ZM2.97982 11.6464C2.78456 11.8417 2.78456 12.1583 2.97982 12.3536C3.17508 12.5488 3.49166 12.5488 3.68692 12.3536L7.68693 8.35355C7.88219 8.15829 7.88219 7.84171 7.68693 7.64645L3.68692 3.64645C3.49166 3.45118 3.17508 3.45118 2.97982 3.64645C2.78456 3.84171 2.78456 4.15829 2.97982 4.35355L6.62626 8L2.97982 11.6464Z" fill="#18202A"/>
</svg>
