<svg width="16" height="16" viewBox="0 0 16 16" fill="none" xmlns="http://www.w3.org/2000/svg">
<path fill-rule="evenodd" clip-rule="evenodd" d="M5.86192 2.33332C6.2819 1.91334 6.99999 2.21079 6.99999 2.80472V5.00385C8.8088 5.04619 10.7478 5.44443 12.2703 6.61943C13.9031 7.87951 15 9.98792 15 13.3333C15 13.4837 14.8992 13.6155 14.7541 13.655C14.6089 13.6944 14.4553 13.6318 14.3792 13.5021C13.4836 11.9763 12.7725 11.0473 11.7091 10.4771C10.6853 9.92807 9.29184 9.68873 6.99999 9.66812V11.8619C6.99999 12.4559 6.2819 12.7533 5.86192 12.3333L1.33332 7.80472C1.07297 7.54437 1.07297 7.12226 1.33332 6.86191L5.86192 2.33332Z" fill="#18202A"/>
</svg>
