<svg width="16" height="16" viewBox="0 0 16 16" fill="none" xmlns="http://www.w3.org/2000/svg">
<g clip-path="url(#clip0_3906_9325)">
<path d="M7.66663 11C7.66663 11.2761 7.89048 11.5 8.16663 11.5C8.44277 11.5 8.66663 11.2761 8.66663 11V9.16667H10.5C10.7761 9.16667 11 8.94281 11 8.66667C11 8.39052 10.7761 8.16667 10.5 8.16667H8.66663V6.33333C8.66663 6.05719 8.44277 5.83333 8.16663 5.83333C7.89048 5.83333 7.66663 6.05719 7.66663 6.33333V8.16667H5.83329C5.55715 8.16667 5.33329 8.39052 5.33329 8.66667C5.33329 8.94281 5.55715 9.16667 5.83329 9.16667H7.66663V11Z" fill="#18202A"/>
<path fill-rule="evenodd" clip-rule="evenodd" d="M3.33329 2C1.86053 2 0.666626 3.19391 0.666626 4.66667V11.3333C0.666626 12.8061 1.86053 14 3.33329 14H12.6666C14.1394 14 15.3333 12.8061 15.3333 11.3333V6C15.3333 4.52724 14.1394 3.33333 12.6666 3.33333H7.99996L7.25241 2.58579C6.87734 2.21071 6.36863 2 5.8382 2H3.33329ZM14.3333 6C14.3333 5.07953 13.5871 4.33333 12.6666 4.33333H7.58575L6.54531 3.29289C6.35777 3.10536 6.10342 3 5.8382 3H3.33329C2.41282 3 1.66663 3.74619 1.66663 4.66667V11.3333C1.66663 12.2538 2.41282 13 3.33329 13H12.6666C13.5871 13 14.3333 12.2538 14.3333 11.3333V6Z" fill="#18202A"/>
</g>
<defs>
<clipPath id="clip0_3906_9325">
<rect width="16" height="16" fill="white"/>
</clipPath>
</defs>
</svg>
