<svg width="16" height="16" viewBox="0 0 16 16" fill="none" xmlns="http://www.w3.org/2000/svg">
<path d="M14.1459 8.63562C13.183 9.67233 10.8692 12.3337 9.32249 14.0588C8.599 14.8657 7.401 14.8657 6.67751 14.0588C5.13076 12.3337 2.81704 9.67233 1.85414 8.63562C1.31252 8.05209 0.666667 7.10086 0.666667 5.883C0.666667 3.74219 2.47486 2 4.6979 2C5.90057 2 7.032 2.83971 7.80148 3.73333C7.90152 3.8491 8.099 3.8491 8.19852 3.73333C8.968 2.83971 10.0994 2 11.3021 2C13.5251 2 15.3333 3.74219 15.3333 5.883C15.3333 7.10086 14.6875 8.05209 14.1459 8.63562Z" fill="#18202A"/>
</svg>
