<svg width="16" height="16" viewBox="0 0 16 16" fill="none" xmlns="http://www.w3.org/2000/svg">
<g clip-path="url(#clip0_3725_8816)">
<g clip-path="url(#clip1_3725_8816)">
<path fill-rule="evenodd" clip-rule="evenodd" d="M6.66663 1.33366C6.66663 0.965469 6.36815 0.666992 5.99996 0.666992C5.63177 0.666992 5.33329 0.965469 5.33329 1.33366V2.66699H4.58329C3.89294 2.66699 3.33329 3.22664 3.33329 3.91699V6.00033H1.33329C0.965103 6.00033 0.666626 6.2988 0.666626 6.66699C0.666626 7.03518 0.965103 7.33366 1.33329 7.33366H3.33329V8.66699H1.33329C0.965103 8.66699 0.666626 8.96547 0.666626 9.33366C0.666626 9.70185 0.965103 10.0003 1.33329 10.0003H3.33329V11.417C3.33329 12.1073 3.89294 12.667 4.58329 12.667H5.33329V14.667C5.33329 15.0352 5.63177 15.3337 5.99996 15.3337C6.36815 15.3337 6.66663 15.0352 6.66663 14.667V12.667H9.33329V14.667C9.33329 15.0352 9.63177 15.3337 9.99996 15.3337C10.3681 15.3337 10.6666 15.0352 10.6666 14.667V12.667H12.0833C12.7736 12.667 13.3333 12.1073 13.3333 11.417V10.0003H14.6666C15.0348 10.0003 15.3333 9.70185 15.3333 9.33366C15.3333 8.96547 15.0348 8.66699 14.6666 8.66699H13.3333V7.33366H14.6666C15.0348 7.33366 15.3333 7.03518 15.3333 6.66699C15.3333 6.2988 15.0348 6.00033 14.6666 6.00033H13.3333V3.91699C13.3333 3.22664 12.7736 2.66699 12.0833 2.66699H10.6666V1.33366C10.6666 0.965469 10.3681 0.666992 9.99996 0.666992C9.63177 0.666992 9.33329 0.965469 9.33329 1.33366V2.66699H6.66663V1.33366ZM9.99996 6.66699C9.99996 6.2988 9.70148 6.00033 9.33329 6.00033H7.33329C6.9651 6.00033 6.66663 6.2988 6.66663 6.66699V8.66699C6.66663 9.03518 6.9651 9.33366 7.33329 9.33366H9.33329C9.70148 9.33366 9.99996 9.03518 9.99996 8.66699V6.66699Z" fill="#18202A"/>
</g>
</g>
<defs>
<clipPath id="clip0_3725_8816">
<rect width="16" height="16" fill="white"/>
</clipPath>
<clipPath id="clip1_3725_8816">
<rect width="16" height="16" fill="white"/>
</clipPath>
</defs>
</svg>
