<svg width="16" height="16" viewBox="0 0 16 16" fill="none" xmlns="http://www.w3.org/2000/svg">
<path fill-rule="evenodd" clip-rule="evenodd" d="M14 6.55261V7.33366H13H8.33333H7.33333V6.33366V1.66699H4.66667C3.74619 1.66699 3 2.41318 3 3.33366V12.667C3 13.5875 3.74619 14.3337 4.66667 14.3337H7.91049C8.03973 14.6891 8.21854 15.0259 8.44259 15.3337H4.66667C3.19391 15.3337 2 14.1398 2 12.667V3.33366C2 1.8609 3.19391 0.666992 4.66667 0.666992H7.33333H8.11438C8.468 0.666992 8.80714 0.807468 9.05719 1.05752L13.6095 5.6098C13.8595 5.85985 14 6.19899 14 6.55261ZM8.33333 6.33366H12.918C12.913 6.32792 12.9078 6.32233 12.9024 6.31691L8.35008 1.76462C8.34466 1.7592 8.33908 1.75399 8.33333 1.74899V6.33366ZM13.1677 14.4002L15.143 12.4242V12.4268C15.2378 12.3385 15.3632 12.2904 15.4927 12.2927C15.6222 12.295 15.7458 12.3475 15.8374 12.4391C15.9291 12.5307 15.9815 12.6543 15.9838 12.7838C15.9861 12.9134 15.938 13.0387 15.8497 13.1335L13.8744 15.1068C13.3022 15.6789 12.5262 16.0003 11.7171 16.0002C10.908 16.0001 10.1321 15.6787 9.56003 15.1065C8.98796 14.5343 8.6666 13.7584 8.66667 12.9493C8.66673 12.1402 8.9882 11.3642 9.56036 10.7922L11.707 8.64484C12.1197 8.23217 12.6794 8.00033 13.263 8.00033C13.8466 8.00033 14.4064 8.23217 14.819 8.64484C15.2317 9.05752 15.4635 9.61723 15.4635 10.2008C15.4635 10.7845 15.2317 11.3442 14.819 11.7568L12.8444 13.7335C12.5909 13.9871 12.2471 14.1297 11.8885 14.1298C11.5299 14.13 11.186 13.9876 10.9324 13.7342C10.6787 13.4807 10.5362 13.1369 10.536 12.7783C10.5359 12.4197 10.6782 12.0758 10.9317 11.8222L12.3944 10.3602C12.4401 10.3111 12.4953 10.2716 12.5567 10.2443C12.618 10.217 12.6842 10.2023 12.7513 10.2011C12.8185 10.1999 12.8852 10.2123 12.9474 10.2374C13.0097 10.2626 13.0662 10.3 13.1137 10.3475C13.1612 10.395 13.1986 10.4515 13.2238 10.5138C13.2489 10.576 13.2613 10.6427 13.2601 10.7099C13.2589 10.777 13.2442 10.8432 13.2169 10.9045C13.1896 10.9659 13.1502 11.0211 13.101 11.0668L11.6417 12.5288C11.5764 12.5948 11.5398 12.6838 11.5398 12.7765C11.5398 12.8693 11.5764 12.9583 11.6417 13.0242C11.7074 13.0898 11.7965 13.1266 11.8894 13.1266C11.9822 13.1266 12.0713 13.0898 12.137 13.0242L14.1124 11.0495C14.2239 10.9381 14.3124 10.8057 14.3728 10.66C14.4332 10.5144 14.4643 10.3582 14.4643 10.2005C14.4643 10.0428 14.4332 9.88666 14.3728 9.74098C14.3124 9.5953 14.2239 9.46296 14.1124 9.35151C13.8834 9.13357 13.5794 9.01202 13.2634 9.01202C12.9473 9.01202 12.6433 9.13357 12.4144 9.35151L10.265 11.4995C9.88038 11.8844 9.66439 12.4064 9.66457 12.9505C9.66476 13.4947 9.88111 14.0165 10.266 14.4012C10.6509 14.7858 11.1729 15.0018 11.7171 15.0016C12.2612 15.0014 12.783 14.7851 13.1677 14.4002Z" fill="#18202A"/>
</svg>
