<svg width="16" height="16" viewBox="0 0 16 16" fill="none" xmlns="http://www.w3.org/2000/svg">
<g clip-path="url(#clip0_2266_35394)">
<path fill-rule="evenodd" clip-rule="evenodd" d="M3.99996 1.16669C3.99996 0.890545 4.22382 0.666687 4.49996 0.666687C4.7761 0.666687 4.99996 0.890545 4.99996 1.16669V2.00002H11V1.16669C11 0.890545 11.2238 0.666687 11.5 0.666687C11.7761 0.666687 12 0.890545 12 1.16669V2.00002H12.6666C14.1394 2.00002 15.3333 3.19393 15.3333 4.66669V9.25079C15.0298 9.01353 14.6939 8.81584 14.3333 8.66546V4.66669C14.3333 3.74621 13.5871 3.00002 12.6666 3.00002H12V4.16669C12 4.44283 11.7761 4.66669 11.5 4.66669C11.2238 4.66669 11 4.44283 11 4.16669V3.00002H4.99996V4.16669C4.99996 4.44283 4.7761 4.66669 4.49996 4.66669C4.22382 4.66669 3.99996 4.44283 3.99996 4.16669V3.00002H3.33329C2.41282 3.00002 1.66663 3.74621 1.66663 4.66669V12.6667C1.66663 13.5872 2.41282 14.3334 3.33329 14.3334H8.6654C8.81577 14.6939 9.01347 15.0299 9.25073 15.3334H3.33329C1.86053 15.3334 0.666626 14.1394 0.666626 12.6667V4.66669C0.666626 3.19393 1.86053 2.00002 3.33329 2.00002H3.99996V1.16669ZM9.33329 8.66669C9.67477 8.66669 9.95629 8.92343 9.99534 9.25441C9.71952 9.47064 9.47058 9.71958 9.25435 9.9954C8.92337 9.95635 8.66663 9.67483 8.66663 9.33335C8.66663 8.96516 8.9651 8.66669 9.33329 8.66669ZM3.33329 6.50002C3.33329 6.22388 3.55715 6.00002 3.83329 6.00002H12.1666C12.4428 6.00002 12.6666 6.22388 12.6666 6.50002C12.6666 6.77616 12.4428 7.00002 12.1666 7.00002H3.83329C3.55715 7.00002 3.33329 6.77616 3.33329 6.50002ZM3.99996 8.66669C3.63177 8.66669 3.33329 8.96516 3.33329 9.33335C3.33329 9.70154 3.63177 10 3.99996 10C4.36815 10 4.66663 9.70154 4.66663 9.33335C4.66663 8.96516 4.36815 8.66669 3.99996 8.66669ZM3.33329 12C3.33329 11.6318 3.63177 11.3334 3.99996 11.3334C4.36815 11.3334 4.66663 11.6318 4.66663 12C4.66663 12.3682 4.36815 12.6667 3.99996 12.6667C3.63177 12.6667 3.33329 12.3682 3.33329 12ZM6.66663 8.66669C6.29844 8.66669 5.99996 8.96516 5.99996 9.33335C5.99996 9.70154 6.29844 10 6.66663 10C7.03482 10 7.33329 9.70154 7.33329 9.33335C7.33329 8.96516 7.03482 8.66669 6.66663 8.66669ZM5.99996 12C5.99996 11.6318 6.29844 11.3334 6.66663 11.3334C7.03482 11.3334 7.33329 11.6318 7.33329 12C7.33329 12.3682 7.03482 12.6667 6.66663 12.6667C6.29844 12.6667 5.99996 12.3682 5.99996 12ZM16 12.6667C16 14.5076 14.5076 16 12.6666 16C10.8257 16 9.33329 14.5076 9.33329 12.6667C9.33329 10.8257 10.8257 9.33335 12.6666 9.33335C14.5076 9.33335 16 10.8257 16 12.6667ZM12.5966 13.7367C12.5694 13.7639 12.5377 13.7862 12.5029 13.8026L10.977 14.5206C10.8669 14.5724 10.7507 14.4619 10.7968 14.3494L11.4608 12.7314C11.4793 12.6864 11.5073 12.646 11.5431 12.613L13.6121 10.7031C13.7436 10.5818 13.9474 10.5858 14.0739 10.7123L14.6117 11.2502C14.7419 11.3803 14.7419 11.5914 14.6117 11.7216L12.5966 13.7367Z" fill="#18202A"/>
</g>
<defs>
<clipPath id="clip0_2266_35394">
<rect width="16" height="16" fill="white"/>
</clipPath>
</defs>
</svg>
