<svg width="16" height="16" viewBox="0 0 16 16" fill="none" xmlns="http://www.w3.org/2000/svg">
<g clip-path="url(#clip0_2266_39650)">
<path fill-rule="evenodd" clip-rule="evenodd" d="M7.99999 5.38206L7.25355 6.96404L5.53177 7.22434L6.77963 8.49755L6.49024 10.2596L7.99999 9.4302L9.50974 10.2596L9.22032 8.49734L10.4682 7.22584L8.74629 6.96375L7.99999 5.38206ZM7.41764 4.27284C7.6523 3.7755 8.34769 3.7755 8.58235 4.27284L9.42337 6.05529L11.2825 6.33825C11.5695 6.38194 11.746 6.59564 11.8062 6.80138C11.8662 7.00658 11.8314 7.26456 11.6439 7.45563L10.2893 8.83579L10.6117 10.7986C10.6521 11.0446 10.5541 11.2799 10.3755 11.424C10.193 11.5712 9.91744 11.6246 9.66749 11.4873L7.99999 10.5712L6.33249 11.4873C6.08254 11.6246 5.80703 11.5712 5.62451 11.424C5.44591 11.2799 5.34793 11.0446 5.38833 10.7986L5.71072 8.83558L4.35579 7.45312C4.16839 7.26192 4.13374 7.00389 4.19391 6.79871C4.25424 6.59298 4.43101 6.37938 4.71814 6.33598L6.57675 6.055L7.41764 4.27284Z" fill="#18202A"/>
<path fill-rule="evenodd" clip-rule="evenodd" d="M7.99999 14.3332C11.4978 14.3332 14.3333 11.4976 14.3333 7.99984C14.3333 4.50203 11.4978 1.6665 7.99999 1.6665C4.50219 1.6665 1.66666 4.50203 1.66666 7.99984C1.66666 11.4976 4.50219 14.3332 7.99999 14.3332ZM15.3333 7.99984C15.3333 12.0499 12.0501 15.3332 7.99999 15.3332C3.9499 15.3332 0.666656 12.0499 0.666656 7.99984C0.666656 3.94975 3.9499 0.666504 7.99999 0.666504C12.0501 0.666504 15.3333 3.94975 15.3333 7.99984Z" fill="#18202A"/>
</g>
<defs>
<clipPath id="clip0_2266_39650">
<rect width="16" height="16" fill="white"/>
</clipPath>
</defs>
</svg>
