<svg width="16" height="16" viewBox="0 0 16 16" fill="none" xmlns="http://www.w3.org/2000/svg">
<g clip-path="url(#clip0_3444_9146)">
<path fill-rule="evenodd" clip-rule="evenodd" d="M11.6868 1.64649C10.7552 0.714844 9.24472 0.714843 8.31307 1.64649L7.98218 1.97738L1.65609 7.97052C1.5871 8.03587 1.53817 8.11953 1.51502 8.21169L0.689604 11.4979C0.574041 11.958 0.986683 12.3771 1.44852 12.2688L4.78084 11.4869C4.867 11.4667 4.94625 11.424 5.0105 11.3631L11.3438 5.36314C11.3449 5.36216 11.3459 5.36117 11.3469 5.36018C11.3514 5.35588 11.3558 5.35151 11.36 5.34706L11.6868 5.02026C12.6185 4.08862 12.6185 2.57813 11.6868 1.64649ZM9.0406 2.33358L10.9998 4.29273C11.5208 3.75018 11.5141 2.88795 10.9797 2.35359C10.4454 1.81923 9.58315 1.81256 9.0406 2.33358ZM1.80611 11.1577L2.44945 8.59641L8.32387 3.03118L10.2832 4.99048L4.42085 10.5442L1.80611 11.1577Z" fill="#18202A"/>
<path d="M8.45953 11.4699C8.38481 11.2955 8.21788 11.1785 8.02851 11.1676C7.83914 11.1568 7.65995 11.2541 7.56584 11.4188L6.71237 12.9123C6.50466 13.2758 6.11809 13.5002 5.69942 13.5002H1.16663C0.890484 13.5002 0.666626 13.724 0.666626 14.0002C0.666626 14.2763 0.890484 14.5002 1.16663 14.5002H5.69942C6.47695 14.5002 7.19486 14.0835 7.58062 13.4085L7.93591 12.7867L8.28064 13.591C8.51701 14.1426 9.05931 14.5002 9.65936 14.5002H9.6739C10.2739 14.5002 10.8162 14.1426 11.0526 13.591L11.3973 12.7867L11.7526 13.4085C12.1384 14.0835 12.8563 14.5002 13.6338 14.5002H14.8333C15.1094 14.5002 15.3333 14.2763 15.3333 14.0002C15.3333 13.724 15.1094 13.5002 14.8333 13.5002H13.6338C13.2152 13.5002 12.8286 13.2758 12.6209 12.9123L11.7674 11.4188C11.6733 11.2541 11.4941 11.1568 11.3047 11.1676C11.1154 11.1785 10.9484 11.2955 10.8737 11.4699L10.1335 13.1971C10.0547 13.381 9.87391 13.5002 9.6739 13.5002H9.65936C9.45934 13.5002 9.27857 13.381 9.19978 13.1971L8.45953 11.4699Z" fill="#18202A"/>
</g>
<defs>
<clipPath id="clip0_3444_9146">
<rect width="16" height="16" fill="white"/>
</clipPath>
</defs>
</svg>
