<svg width="16" height="16" viewBox="0 0 16 16" fill="none" xmlns="http://www.w3.org/2000/svg">
<path fill-rule="evenodd" clip-rule="evenodd" d="M3.05715 1.05703C3.3072 0.80698 3.64634 0.666504 3.99996 0.666504H12C12.3536 0.666504 12.6927 0.806979 12.9428 1.05703C13.1928 1.30708 13.3333 1.64622 13.3333 1.99984V14.6665C13.3333 14.9162 13.1937 15.145 12.9717 15.2593C12.7496 15.3736 12.4823 15.3541 12.2791 15.209L10.3333 13.8191L8.38745 15.209C8.15565 15.3746 7.84427 15.3746 7.61247 15.209L5.66663 13.8191L3.72078 15.209C3.51758 15.3541 3.25029 15.3736 3.02824 15.2593C2.80619 15.145 2.66663 14.9162 2.66663 14.6665V1.99984C2.66663 1.64621 2.8071 1.30708 3.05715 1.05703ZM5.33329 4.6665C5.33329 4.29831 5.63177 3.99984 5.99996 3.99984H9.99996C10.3681 3.99984 10.6666 4.29831 10.6666 4.6665C10.6666 5.03469 10.3681 5.33317 9.99996 5.33317H5.99996C5.63177 5.33317 5.33329 5.03469 5.33329 4.6665ZM5.99996 6.6665C5.63177 6.6665 5.33329 6.96498 5.33329 7.33317C5.33329 7.70136 5.63177 7.99984 5.99996 7.99984H9.99996C10.3681 7.99984 10.6666 7.70136 10.6666 7.33317C10.6666 6.96498 10.3681 6.6665 9.99996 6.6665H5.99996ZM5.33329 9.99984C5.33329 9.63165 5.63177 9.33317 5.99996 9.33317H9.99996C10.3681 9.33317 10.6666 9.63165 10.6666 9.99984C10.6666 10.368 10.3681 10.6665 9.99996 10.6665H5.99996C5.63177 10.6665 5.33329 10.368 5.33329 9.99984Z" fill="#18202A"/>
</svg>
