<svg width="16" height="16" viewBox="0 0 16 16" fill="none" xmlns="http://www.w3.org/2000/svg">
<path d="M9.33333 8.00008C9.33333 8.73646 8.73638 9.33342 8 9.33342C7.26362 9.33342 6.66667 8.73646 6.66667 8.00008C6.66667 7.2637 7.26362 6.66675 8 6.66675C8.73638 6.66675 9.33333 7.2637 9.33333 8.00008Z" fill="#18202A"/>
<path fill-rule="evenodd" clip-rule="evenodd" d="M6.24475 1.21272C6.30298 0.896393 6.57876 0.666748 6.9004 0.666748H9.09012C9.41175 0.666748 9.68753 0.896393 9.74576 1.21272L9.95038 2.3242C10.6865 2.57708 11.3579 2.96914 11.9332 3.46894L12.998 3.09041C13.3011 2.98268 13.6378 3.10669 13.7987 3.38524L14.8935 5.28159C15.0543 5.56013 14.9934 5.91379 14.7485 6.12238L13.8906 6.85337C13.9624 7.22454 14 7.60792 14 8.00008C14 8.39224 13.9624 8.77561 13.8906 9.14677L14.7485 9.87778C14.9934 10.0864 15.0544 10.44 14.8935 10.7186L13.7987 12.6149C13.6379 12.8935 13.3011 13.0175 12.998 12.9097L11.9332 12.5312C11.3579 13.031 10.6865 13.4231 9.95038 13.676L9.74576 14.7874C9.68753 15.1038 9.41175 15.3334 9.09012 15.3334H6.9004C6.57876 15.3334 6.30298 15.1038 6.24475 14.7874L6.03949 13.6725C5.30618 13.4191 4.63733 13.0275 4.06407 12.5288L2.99246 12.9097C2.6894 13.0175 2.35263 12.8935 2.19182 12.6149L1.09696 10.7186C0.936139 10.44 0.997127 10.0864 1.24195 9.87778L2.10812 9.13981C2.03716 8.77081 2.00001 8.38978 2.00001 8.00008C2.00001 7.61037 2.03716 7.22934 2.10812 6.86033L1.24197 6.12238C0.997146 5.91379 0.936157 5.56013 1.09698 5.28159L2.19183 3.38524C2.35265 3.10669 2.68942 2.98268 2.99248 3.09041L4.06408 3.47134C4.63734 2.97269 5.30619 2.5811 6.03949 2.32769L6.24475 1.21272ZM10.6667 8.00008C10.6667 9.47284 9.47276 10.6667 8 10.6667C6.52724 10.6667 5.33333 9.47284 5.33333 8.00008C5.33333 6.52732 6.52724 5.33342 8 5.33342C9.47276 5.33342 10.6667 6.52732 10.6667 8.00008Z" fill="#18202A"/>
</svg>
