<svg width="16" height="16" viewBox="0 0 16 16" fill="none" xmlns="http://www.w3.org/2000/svg">
<path fill-rule="evenodd" clip-rule="evenodd" d="M11.3334 13.3328C11.3334 12.9647 11.0349 12.6662 10.6667 12.6662H2.00008C1.63189 12.6662 1.33342 12.9647 1.33342 13.3328C1.33342 13.701 1.63189 13.9995 2.00008 13.9995H10.6667C11.0349 13.9995 11.3334 13.701 11.3334 13.3328Z" fill="#18202A"/>
<path fill-rule="evenodd" clip-rule="evenodd" d="M11.3334 2.66618C11.3334 2.29799 11.0349 1.99951 10.6667 1.99951H2.00008C1.63189 1.99951 1.33342 2.29799 1.33342 2.66618C1.33342 3.03437 1.63189 3.33285 2.00008 3.33285H10.6667C11.0349 3.33285 11.3334 3.03437 11.3334 2.66618Z" fill="#18202A"/>
<path d="M11.5287 6.47092C11.2683 6.21057 11.2683 5.78846 11.5287 5.52811C11.789 5.26776 12.2111 5.26776 12.4715 5.52811L14.4715 7.52811C14.5832 7.63981 14.647 7.78129 14.6628 7.927C14.6746 8.03492 14.66 8.14516 14.6192 8.24733C14.5915 8.31664 14.5517 8.38223 14.4998 8.44088C14.4896 8.45242 14.479 8.4636 14.468 8.47441L12.4715 10.4709C12.2111 10.7313 11.789 10.7313 11.5287 10.4709C11.2683 10.2106 11.2683 9.78846 11.5287 9.52811L12.3912 8.66558L1.99978 8.66133C1.63159 8.66118 1.33324 8.36258 1.33339 7.99439C1.33354 7.6262 1.63214 7.32785 2.00033 7.328L12.39 7.33224L11.5287 6.47092Z" fill="#18202A"/>
</svg>
