<svg width="16" height="16" viewBox="0 0 16 16" fill="none" xmlns="http://www.w3.org/2000/svg">
<g clip-path="url(#clip0_2414_8764)">
<path fill-rule="evenodd" clip-rule="evenodd" d="M15.1073 9.81391C15.2548 9.23382 15.3333 8.62611 15.3333 8.00008C15.3333 3.94999 12.05 0.666748 7.99996 0.666748C3.94987 0.666748 0.666626 3.94999 0.666626 8.00008C0.666626 12.0502 3.94987 15.3334 7.99996 15.3334C8.24992 15.3334 8.49695 15.3209 8.74048 15.2965C8.203 14.7691 8.15037 13.8059 8.86921 13.2667C8.95315 13.2038 9.00255 13.105 9.00255 13.0001V11.8778C8.67648 11.9588 8.33925 12.0001 7.99996 12.0001C7.36254 12.0001 6.73237 11.8545 6.1699 11.5733C5.60725 11.2919 5.12661 10.8818 4.782 10.3749C4.57497 10.0705 4.65397 9.6558 4.95845 9.44878C5.26292 9.24176 5.67757 9.32076 5.8846 9.62523C6.09306 9.93182 6.39426 10.1947 6.76619 10.3807C7.13829 10.5667 7.56362 10.6667 7.99996 10.6667C8.43631 10.6667 8.86164 10.5667 9.23374 10.3807C9.24482 10.3752 9.25584 10.3695 9.2668 10.3639C9.77411 9.17036 10.9573 8.33342 12.3359 8.33342C13.4912 8.33342 14.5092 8.92114 15.1073 9.81391ZM5.66663 8.00008C6.21891 8.00008 6.66663 7.40313 6.66663 6.66675C6.66663 5.93037 6.21891 5.33342 5.66663 5.33342C5.11435 5.33342 4.66663 5.93037 4.66663 6.66675C4.66663 7.40313 5.11435 8.00008 5.66663 8.00008ZM11.3333 6.66675C11.3333 7.40313 10.8856 8.00008 10.3333 8.00008C9.78101 8.00008 9.3333 7.40313 9.3333 6.66675C9.3333 5.93037 9.78101 5.33342 10.3333 5.33342C10.8856 5.33342 11.3333 5.93037 11.3333 6.66675Z" fill="#18202A"/>
<path fill-rule="evenodd" clip-rule="evenodd" d="M14.6667 11.6666L14.6667 11.6762V12.6666C14.6667 13.2961 14.9631 13.8889 15.4667 14.2666C15.6376 14.3947 15.5469 14.6666 15.3334 14.6666H9.33337C9.11981 14.6666 9.02919 14.3947 9.20004 14.2666C9.70365 13.8889 10 13.2961 10 12.6666V11.6666C10 11.6666 10 11.6666 10 11.6666C10.0001 11.6666 10.0001 11.6666 10.0001 11.6666C10.0001 10.3779 11.0447 9.33325 12.3334 9.33325C13.6221 9.33325 14.6667 10.3779 14.6667 11.6666ZM11.6667 15.3333C11.4826 15.3333 11.3334 15.4825 11.3334 15.6666C11.3334 15.8507 11.4826 15.9999 11.6667 15.9999H13.0001C13.1842 15.9999 13.3334 15.8507 13.3334 15.6666C13.3334 15.4825 13.1842 15.3333 13.0001 15.3333H11.6667Z" fill="#18202A"/>
</g>
<defs>
<clipPath id="clip0_2414_8764">
<rect width="16" height="16" fill="white"/>
</clipPath>
</defs>
</svg>
