<svg width="16" height="16" viewBox="0 0 16 16" fill="none" xmlns="http://www.w3.org/2000/svg">
<path fill-rule="evenodd" clip-rule="evenodd" d="M8 7.33366C9.77778 7.33366 10.6667 5.66699 10.6667 3.58366C10.6667 1.91699 9.77778 0.666992 8 0.666992C6.22222 0.666992 5.33333 1.91699 5.33333 3.58366C5.33333 5.66699 6.22222 7.33366 8 7.33366ZM8.00003 8.66699C8.6485 8.66699 9.27535 8.75958 9.86808 8.93226C8.73379 9.78358 8 11.1396 8 12.667C8 13.6465 8.3018 14.5556 8.81749 15.3063C8.54735 15.3244 8.27476 15.3337 8.00001 15.3337C6.96841 15.3337 5.96722 15.2035 5.01195 14.9587C4.19926 14.7504 3.51047 14.206 3.13324 13.4567L3.10211 13.3943C2.58063 12.3412 2.75796 11.0511 3.64778 10.2835C4.81564 9.27614 6.3367 8.66699 8.00003 8.66699ZM16 12.667C16 10.826 14.5076 9.33366 12.6667 9.33366C10.8257 9.33366 9.33333 10.826 9.33333 12.667C9.33333 14.5079 10.8257 16.0003 12.6667 16.0003C14.5076 16.0003 16 14.5079 16 12.667ZM12.6869 14.6872C12.8821 14.4919 12.8821 14.1754 12.6869 13.9801L11.8738 13.167L14.6667 13.167C14.9428 13.167 15.1667 12.9431 15.1667 12.667C15.1667 12.3908 14.9428 12.167 14.6667 12.167H11.8738L12.6869 11.3539C12.8821 11.1586 12.8821 10.842 12.6869 10.6468C12.4916 10.4515 12.175 10.4515 11.9798 10.6468L10.3131 12.3134C10.1179 12.5087 10.1179 12.8253 10.3131 13.0205L11.9798 14.6872C12.175 14.8825 12.4916 14.8825 12.6869 14.6872Z" fill="#18202A"/>
</svg>
