<svg width="16" height="16" viewBox="0 0 16 16" fill="none" xmlns="http://www.w3.org/2000/svg">
<g clip-path="url(#clip0_2266_37361)">
<path d="M4 1.33317C4 0.964981 4.29848 0.666504 4.66667 0.666504H11.3333C11.7015 0.666504 12 0.964981 12 1.33317C12 1.70136 11.7015 1.99984 11.3333 1.99984H4.66667C4.29848 1.99984 4 1.70136 4 1.33317Z" fill="#18202A"/>
<path d="M3.33333 2.6665C2.96514 2.6665 2.66667 2.96498 2.66667 3.33317C2.66667 3.70136 2.96514 3.99984 3.33333 3.99984H12.6667C13.0349 3.99984 13.3333 3.70136 13.3333 3.33317C13.3333 2.96498 13.0349 2.6665 12.6667 2.6665H3.33333Z" fill="#18202A"/>
<path fill-rule="evenodd" clip-rule="evenodd" d="M3.33333 4.6665C1.86057 4.6665 0.666667 5.86041 0.666667 7.33317V11.9998C0.666667 13.8408 2.15905 15.3332 4 15.3332H12C13.8409 15.3332 15.3333 13.8408 15.3333 11.9998V7.33317C15.3333 5.86041 14.1394 4.6665 12.6667 4.6665H3.33333ZM6 8.29612C6 7.81266 6.52252 7.51403 6.93323 7.76277L9.74083 9.46316C10.1397 9.70474 10.1397 10.2883 9.74083 10.5299L6.93323 12.2302C6.52252 12.479 6 12.1804 6 11.6969V8.29612Z" fill="#18202A"/>
</g>
<defs>
<clipPath id="clip0_2266_37361">
<rect width="16" height="16" fill="white"/>
</clipPath>
</defs>
</svg>
