<svg width="16" height="16" viewBox="0 0 16 16" fill="none" xmlns="http://www.w3.org/2000/svg">
<g clip-path="url(#clip0_2266_40187)">
<path fill-rule="evenodd" clip-rule="evenodd" d="M1.66666 8.00002C1.66666 11.4978 4.50219 14.3334 7.99999 14.3334C11.4978 14.3334 14.3333 11.4978 14.3333 8.00002C14.3333 4.50222 11.4978 1.66669 7.99999 1.66669C4.50219 1.66669 1.66666 4.50222 1.66666 8.00002ZM0.666656 8.00002C0.666656 12.0501 3.9499 15.3334 7.99999 15.3334C12.0501 15.3334 15.3333 12.0501 15.3333 8.00002C15.3333 3.94993 12.0501 0.666687 7.99999 0.666687C3.9499 0.666687 0.666656 3.94993 0.666656 8.00002Z" fill="#18202A"/>
<path fill-rule="evenodd" clip-rule="evenodd" d="M11.0202 8.31313C11.2155 8.5084 11.2155 8.82498 11.0202 9.02024L8.35354 11.6869C8.15828 11.8822 7.8417 11.8822 7.64644 11.6869L4.97977 9.02024C4.78451 8.82498 4.78451 8.5084 4.97977 8.31313C5.17503 8.11787 5.49161 8.11787 5.68688 8.31313L7.49999 10.1262V4.66669C7.49999 4.39054 7.72385 4.16669 7.99999 4.16669C8.27613 4.16669 8.49999 4.39054 8.49999 4.66669V10.1262L10.3131 8.31313C10.5084 8.11787 10.8249 8.11787 11.0202 8.31313Z" fill="#18202A"/>
</g>
<defs>
<clipPath id="clip0_2266_40187">
<rect width="16" height="16" fill="white"/>
</clipPath>
</defs>
</svg>
