<svg width="16" height="16" viewBox="0 0 16 16" fill="none" xmlns="http://www.w3.org/2000/svg">
<path d="M6.50004 2C4.51717 2 3.33337 3.59903 3.33337 5.16667C3.33337 5.56229 3.40877 5.95992 3.55338 6.33333H4.6617C4.44775 5.98508 4.33337 5.57807 4.33337 5.16667C4.33337 4.06763 5.14958 3 6.50004 3H9.33337C10.7887 3 11.6667 4.00344 11.6667 4.83333C11.6667 5.10948 11.8906 5.33333 12.1667 5.33333C12.4428 5.33333 12.6667 5.10948 12.6667 4.83333C12.6667 3.3299 11.2114 2 9.33337 2H6.50004Z" fill="#18202A"/>
<path d="M1.33337 7.83333C1.33337 7.55719 1.55723 7.33333 1.83337 7.33333H14.1667C14.4428 7.33333 14.6667 7.55719 14.6667 7.83333C14.6667 8.10948 14.4428 8.33333 14.1667 8.33333H12.382C13.0253 8.93528 13.3334 9.7552 13.3334 10.6667C13.3334 11.6233 12.994 12.4792 12.2838 13.088C11.5827 13.6888 10.5781 14 9.33337 14H6.00004C4.0203 14 2.66671 12.2377 2.66671 10.6667C2.66671 10.3905 2.89056 10.1667 3.16671 10.1667C3.44285 10.1667 3.66671 10.3905 3.66671 10.6667C3.66671 11.7623 4.64645 13 6.00004 13H9.33337C10.422 13 11.1673 12.7278 11.633 12.3287C12.0894 11.9375 12.3334 11.3767 12.3334 10.6667C12.3334 9.95668 12.0894 9.39584 11.633 9.00463C11.1673 8.6055 10.422 8.33333 9.33337 8.33333H1.83337C1.55723 8.33333 1.33337 8.10948 1.33337 7.83333Z" fill="#18202A"/>
</svg>
