<svg width="16" height="16" viewBox="0 0 16 16" fill="none" xmlns="http://www.w3.org/2000/svg">
<path d="M1.33329 1.83331C1.33329 1.55717 1.55715 1.33331 1.83329 1.33331H14.1666C14.4428 1.33331 14.6666 1.55717 14.6666 1.83331C14.6666 2.10946 14.4428 2.33331 14.1666 2.33331H1.83329C1.55715 2.33331 1.33329 2.10946 1.33329 1.83331Z" fill="#18202A"/>
<path d="M1.33329 14.1666C1.33329 13.8905 1.55715 13.6666 1.83329 13.6666H14.1666C14.4428 13.6666 14.6666 13.8905 14.6666 14.1666C14.6666 14.4428 14.4428 14.6666 14.1666 14.6666H1.83329C1.55715 14.6666 1.33329 14.4428 1.33329 14.1666Z" fill="#18202A"/>
<path fill-rule="evenodd" clip-rule="evenodd" d="M0.666626 5.33331C0.666626 4.22874 1.56206 3.33331 2.66663 3.33331H13.3333C14.4379 3.33331 15.3333 4.22874 15.3333 5.33331V10.6666C15.3333 11.7712 14.4379 12.6666 13.3333 12.6666H2.66663C1.56206 12.6666 0.666626 11.7712 0.666626 10.6666V5.33331ZM2.66663 4.33331H13.3333C13.8856 4.33331 14.3333 4.78103 14.3333 5.33331V10.6666C14.3333 11.2189 13.8856 11.6666 13.3333 11.6666H2.66663C2.11434 11.6666 1.66663 11.2189 1.66663 10.6666V5.33331C1.66663 4.78103 2.11434 4.33331 2.66663 4.33331Z" fill="#18202A"/>
</svg>
