<svg width="16" height="16" viewBox="0 0 16 16" fill="none" xmlns="http://www.w3.org/2000/svg">
<path d="M9.87423 2.63342L6 6.50765V3.33301C6 2.22844 6.89543 1.33301 8 1.33301C8.85846 1.33301 9.5906 1.87387 9.87423 2.63342Z" fill="#18202A"/>
<path d="M12.8155 1.57383C13.1105 1.27887 13.5608 1.251 13.8214 1.51158C14.082 1.77216 14.0541 2.22252 13.7592 2.51748L10 6.27666V7.33301C10 8.43758 9.10457 9.33301 8 9.33301C7.69146 9.33301 7.39924 9.26314 7.13829 9.13837L6.16225 10.1144C6.68911 10.4632 7.32085 10.6663 8.00002 10.6663C9.61416 10.6663 10.9603 9.51903 11.2675 7.99542C11.3403 7.63449 11.6318 7.33301 12 7.33301C12.3682 7.33301 12.6717 7.63319 12.6197 7.9977C12.3281 10.0424 10.7111 11.66 8.66667 11.9524V13.333H10.3333C10.7015 13.333 11 13.6315 11 13.9997C11 14.3679 10.7015 14.6663 10.3333 14.6663H5.66667C5.29848 14.6663 5 14.3679 5 13.9997C5 13.6315 5.29848 13.333 5.66667 13.333H7.33333V11.9524C6.54294 11.8394 5.81644 11.5282 5.20571 11.0709L3.18447 13.0922C2.88951 13.3871 2.43915 13.415 2.17857 13.1544C1.91799 12.8939 1.94586 12.4435 2.24082 12.1485L12.8155 1.57383Z" fill="#18202A"/>
<path d="M3.60419 8.90346L4.68094 7.82671C4.56387 7.54522 4.30893 7.33301 4.00002 7.33301C3.63183 7.33301 3.32835 7.63319 3.38033 7.9977C3.42497 8.3107 3.50066 8.61369 3.60419 8.90346Z" fill="#18202A"/>
</svg>
