<svg width="16" height="16" viewBox="0 0 16 16" fill="none" xmlns="http://www.w3.org/2000/svg">
<path d="M4.66667 1.83326C4.66667 1.63581 4.55047 1.45684 4.37009 1.37651C4.18971 1.29618 3.97896 1.32952 3.83219 1.46161L2.16552 2.96161C1.96027 3.14634 1.94363 3.46249 2.12836 3.66774C2.31309 3.873 2.62923 3.88964 2.83449 3.70491L3.66667 2.95594V6.16666C3.66667 6.44281 3.89053 6.66666 4.16667 6.66666C4.44281 6.66666 4.66667 6.44281 4.66667 6.16666V1.83326Z" fill="#18202A"/>
<path d="M3.00001 9.66659C3.00001 9.48279 3.23431 8.99992 4.00001 8.99992C4.76572 8.99992 5.00001 9.48279 5.00001 9.66659C5.00001 10.2604 4.67513 10.6177 3.97979 11.313L2.14646 13.1464C2.00346 13.2894 1.96068 13.5044 2.03807 13.6913C2.11547 13.8781 2.29778 13.9999 2.50001 13.9999H5.50001C5.77616 13.9999 6.00001 13.7761 6.00001 13.4999C6.00001 13.2238 5.77616 12.9999 5.50001 12.9999H3.70712L4.74147 11.9656C5.3628 11.3452 6.00001 10.7089 6.00001 9.66659C6.00001 8.85038 5.23431 7.99992 4.00001 7.99992C2.76572 7.99992 2.00001 8.85038 2.00001 9.66659C2.00001 9.94273 2.22387 10.1666 2.50001 10.1666C2.77616 10.1666 3.00001 9.94273 3.00001 9.66659Z" fill="#18202A"/>
<path d="M7.33333 3.16659C7.33333 2.89044 7.55719 2.66659 7.83333 2.66659H14.1667C14.4428 2.66659 14.6667 2.89044 14.6667 3.16659C14.6667 3.44273 14.4428 3.66659 14.1667 3.66659H7.83333C7.55719 3.66659 7.33333 3.44273 7.33333 3.16659Z" fill="#18202A"/>
<path d="M7.83333 4.99992C7.55719 4.99992 7.33333 5.22378 7.33333 5.49992C7.33333 5.77606 7.55719 5.99992 7.83333 5.99992H14.1667C14.4428 5.99992 14.6667 5.77606 14.6667 5.49992C14.6667 5.22378 14.4428 4.99992 14.1667 4.99992H7.83333Z" fill="#18202A"/>
<path d="M7.33333 10.4999C7.33333 10.2238 7.55719 9.99992 7.83333 9.99992H14.1667C14.4428 9.99992 14.6667 10.2238 14.6667 10.4999C14.6667 10.7761 14.4428 10.9999 14.1667 10.9999H7.83333C7.55719 10.9999 7.33333 10.7761 7.33333 10.4999Z" fill="#18202A"/>
<path d="M7.83333 12.3333C7.55719 12.3333 7.33333 12.5571 7.33333 12.8333C7.33333 13.1094 7.55719 13.3333 7.83333 13.3333H14.1667C14.4428 13.3333 14.6667 13.1094 14.6667 12.8333C14.6667 12.5571 14.4428 12.3333 14.1667 12.3333H7.83333Z" fill="#18202A"/>
</svg>
