<svg width="16" height="16" viewBox="0 0 16 16" fill="none" xmlns="http://www.w3.org/2000/svg">
<g clip-path="url(#clip0_2266_38612)">
<path d="M1.68029 7.79378V7.75955L1.67795 7.72541C1.46301 4.5885 4.43059 1.6665 8.00681 1.6665C11.5642 1.6665 14.3333 4.08011 14.3333 7.79378C14.3333 8.07927 14.3127 8.3621 14.2722 8.64033C14.6031 8.7724 14.9139 8.94409 15.1987 9.14954C15.2876 8.70828 15.3333 8.2545 15.3333 7.79378C15.3333 3.4665 12.0531 0.666504 8.00681 0.666504C3.96048 0.666504 0.418663 3.97559 0.680291 7.79378C0.680291 10.0753 1.59214 11.8615 3.04735 13.0405L3.18742 14.7213C3.22586 15.1825 3.71097 15.4652 4.13116 15.2713L5.94843 14.4325C6.60143 14.5871 7.29217 14.6665 8.00681 14.6665C8.27824 14.6665 8.54383 14.6545 8.80327 14.6312C8.64719 14.3249 8.52646 13.9975 8.44647 13.6546C8.30211 13.6625 8.15554 13.6665 8.00681 13.6665C7.36605 13.6665 6.7528 13.5953 6.17881 13.4594L5.84285 13.3799L4.14443 14.1638L4.00846 12.5321L3.67685 12.2635C2.46587 11.2824 1.68029 9.78662 1.68029 7.79378Z" fill="#18202A"/>
<path d="M11.6023 8.46486C11.3941 8.51742 11.192 8.58504 10.9971 8.6665C10.4461 8.66492 10 8.21781 10 7.6665C10 7.11422 10.4477 6.6665 11 6.6665C11.5523 6.6665 12 7.11422 12 7.6665C12 7.99264 11.8439 8.28231 11.6023 8.46486Z" fill="#18202A"/>
<path d="M8 8.6665C8.55228 8.6665 9 8.21879 9 7.6665C9 7.11422 8.55228 6.6665 8 6.6665C7.44771 6.6665 7 7.11422 7 7.6665C7 8.21879 7.44771 8.6665 8 8.6665Z" fill="#18202A"/>
<path d="M6 7.6665C6 8.21879 5.55228 8.6665 5 8.6665C4.44771 8.6665 4 8.21879 4 7.6665C4 7.11422 4.44771 6.6665 5 6.6665C5.55228 6.6665 6 7.11422 6 7.6665Z" fill="#18202A"/>
<path fill-rule="evenodd" clip-rule="evenodd" d="M12.6667 15.9998C14.5076 15.9998 16 14.5075 16 12.6665C16 10.8256 14.5076 9.33317 12.6667 9.33317C10.8257 9.33317 9.33332 10.8256 9.33332 12.6665C9.33332 14.5075 10.8257 15.9998 12.6667 15.9998ZM14.7129 11.9919C14.8927 11.7822 14.8684 11.4666 14.6587 11.2869C14.449 11.1072 14.1334 11.1314 13.9537 11.3411L12.2585 13.3188L11.3 12.5998C11.0791 12.4341 10.7657 12.4789 10.6 12.6998C10.4343 12.9207 10.4791 13.2341 10.7 13.3998L12.0333 14.3998C12.2441 14.5579 12.5414 14.5253 12.7129 14.3252L14.7129 11.9919Z" fill="#18202A"/>
</g>
<defs>
<clipPath id="clip0_2266_38612">
<rect width="16" height="16" fill="white"/>
</clipPath>
</defs>
</svg>
