<svg width="16" height="16" viewBox="0 0 16 16" fill="none" xmlns="http://www.w3.org/2000/svg">
<g clip-path="url(#clip0_2266_36569)">
<path d="M7.75007 0.70308C7.88041 0.664065 8.01806 0.656263 8.15132 0.679671L8.25027 0.70308L14.7442 2.65638C15.0946 2.762 15.3337 3.07463 15.3333 3.42828C15.3333 12.0776 10.7965 14.1453 8.3586 15.2556C8.24527 15.3073 8.12287 15.3332 8.0002 15.3332C7.87747 15.3332 7.75473 15.3073 7.64107 15.2556L7.28798 15.0939C4.79128 13.9384 0.666667 11.6753 0.666667 3.42828C0.666667 3.1038 0.867546 2.81406 1.17091 2.68693L1.25611 2.65638L7.75007 0.70308ZM8.00067 2.01984L2.00333 3.82384L2.00898 4.0745C2.09857 7.24585 2.85533 9.52574 4.13665 11.1573L4.26653 11.3183C5.18891 12.4317 6.10002 13.0533 7.71242 13.8187L8 13.9525L8.05121 13.9295C9.73237 13.1492 10.6786 12.5423 11.6017 11.4743L11.7334 11.3185C13.0935 9.67685 13.8984 7.35161 13.991 4.07347L13.996 3.82384L8.00067 2.01984Z" fill="#18202A"/>
<path fill-rule="evenodd" clip-rule="evenodd" d="M3.3434 4.95189L3.33333 4.8025L7.95533 3.41184L12.5753 4.80184L12.5659 4.95043C12.3753 7.44915 11.7007 9.21333 10.6614 10.4678L10.5456 10.6045C9.88823 11.3628 9.2024 11.8526 8.07899 12.4152L7.95467 12.4765L7.61167 12.3037C6.55305 11.7536 5.89849 11.253 5.24795 10.4677L5.12965 10.3207C4.15746 9.07643 3.52666 7.35304 3.3434 4.95189Z" fill="#18202A"/>
</g>
<defs>
<clipPath id="clip0_2266_36569">
<rect width="16" height="16" fill="white"/>
</clipPath>
</defs>
</svg>
