<svg width="16" height="16" viewBox="0 0 16 16" fill="none" xmlns="http://www.w3.org/2000/svg">
<g clip-path="url(#clip0_2266_36545)">
<path fill-rule="evenodd" clip-rule="evenodd" d="M0.666667 4.72447C0.666667 2.48332 2.48348 0.666504 4.72464 0.666504H11.2754C13.5165 0.666504 15.3333 2.48332 15.3333 4.72447V8.37665C15.3333 8.47375 15.3313 8.57038 15.3274 8.6665H10.9855C9.68385 8.6665 8.57675 9.49952 8.16823 10.6615C8.1124 10.6648 8.05629 10.6665 8 10.6665C7.56366 10.6665 7.13833 10.5665 6.76623 10.3804C6.3943 10.1945 6.0931 9.93156 5.88464 9.62497C5.67761 9.3205 5.26296 9.2415 4.95849 9.44852C4.65401 9.65554 4.57501 10.0702 4.78204 10.3747C5.12665 10.8815 5.60729 11.2917 6.16994 11.573C6.73241 11.8542 7.36258 11.9998 8 11.9998V15.3332H4.72464C2.48348 15.3332 0.666667 13.5164 0.666667 11.2752V4.72447ZM6 5.99984C6 6.73622 5.55228 7.33317 5 7.33317C4.44772 7.33317 4 6.73622 4 5.99984C4 5.26346 4.44772 4.6665 5 4.6665C5.55228 4.6665 6 5.26346 6 5.99984ZM11 7.33317C11.5523 7.33317 12 6.73622 12 5.99984C12 5.26346 11.5523 4.6665 11 4.6665C10.4477 4.6665 10 5.26346 10 5.99984C10 6.73622 10.4477 7.33317 11 7.33317Z" fill="#18202A"/>
<path d="M10.9855 9.99984H15.1429C14.484 12.7565 12.1842 14.8759 9.33333 15.268V11.652C9.33333 10.7395 10.073 9.99984 10.9855 9.99984Z" fill="#18202A"/>
</g>
<defs>
<clipPath id="clip0_2266_36545">
<rect width="16" height="16" fill="white"/>
</clipPath>
</defs>
</svg>
