<svg width="16" height="16" viewBox="0 0 16 16" fill="none" xmlns="http://www.w3.org/2000/svg">
<path fill-rule="evenodd" clip-rule="evenodd" d="M11.3333 2.33301H3.99999C2.71133 2.33301 1.66666 3.37768 1.66666 4.66634V10.6663C1.66666 11.955 2.71133 12.9997 3.99999 12.9997H7.16666C7.4428 12.9997 7.66666 13.2235 7.66666 13.4997C7.66666 13.7758 7.4428 13.9997 7.16666 13.9997H3.99999C2.15904 13.9997 0.666656 12.5073 0.666656 10.6663V4.66634C0.666656 2.82539 2.15904 1.33301 3.99999 1.33301H11.3333C13.1743 1.33301 14.6667 2.82539 14.6667 4.66634V6.49967C14.6667 6.77582 14.4428 6.99967 14.1667 6.99967C13.8905 6.99967 13.6667 6.77582 13.6667 6.49967V4.66634C13.6667 3.37768 12.622 2.33301 11.3333 2.33301ZM10.6667 8.99967H13.3333C13.8856 8.99967 14.3333 9.44739 14.3333 9.99967V12.6663C14.3333 13.2186 13.8856 13.6663 13.3333 13.6663H10.6667C10.1144 13.6663 9.66666 13.2186 9.66666 12.6663V9.99967C9.66666 9.44739 10.1144 8.99967 10.6667 8.99967ZM8.66666 9.99967C8.66666 8.8951 9.56209 7.99967 10.6667 7.99967H13.3333C14.4379 7.99967 15.3333 8.8951 15.3333 9.99967V12.6663C15.3333 13.7709 14.4379 14.6663 13.3333 14.6663H10.6667C9.56209 14.6663 8.66666 13.7709 8.66666 12.6663V9.99967Z" fill="#18202A"/>
</svg>
