<svg width="16" height="16" viewBox="0 0 16 16" fill="none" xmlns="http://www.w3.org/2000/svg">
<path d="M10 8.6665C10 9.77107 9.10457 10.6665 8 10.6665C6.89543 10.6665 6 9.77107 6 8.6665C6 7.56193 6.89543 6.6665 8 6.6665C9.10457 6.6665 10 7.56193 10 8.6665Z" fill="#18202A"/>
<path fill-rule="evenodd" clip-rule="evenodd" d="M12.0464 2.6665C11.9367 2.66649 11.8288 2.63942 11.7321 2.5877C11.6353 2.53595 11.5528 2.46111 11.4919 2.36984L10.9506 1.55717C10.768 1.28321 10.5205 1.05858 10.2303 0.903208C9.93998 0.747835 9.61583 0.666528 9.28659 0.666504H6.71325C6.38401 0.666528 6.05986 0.747835 5.76958 0.903208C5.4793 1.05858 5.23187 1.28321 5.04925 1.55717L4.50792 2.36984C4.44702 2.46111 4.36453 2.53595 4.26777 2.5877C4.17107 2.63942 4.06311 2.66649 3.95345 2.6665H4C2.15905 2.6665 0.666667 4.15889 0.666667 5.99984V11.3332C0.666667 13.1741 2.15905 14.6665 4 14.6665H12C13.8409 14.6665 15.3333 13.1741 15.3333 11.3332V5.99984C15.3333 4.15889 13.8409 2.6665 12 2.6665H12.0464ZM11.3333 8.6665C11.3333 10.5075 9.84095 11.9998 8 11.9998C6.15905 11.9998 4.66667 10.5075 4.66667 8.6665C4.66667 6.82555 6.15905 5.33317 8 5.33317C9.84095 5.33317 11.3333 6.82555 11.3333 8.6665Z" fill="#18202A"/>
</svg>
