<svg width="16" height="16" viewBox="0 0 16 16" fill="none" xmlns="http://www.w3.org/2000/svg">
<path d="M10.4041 10.3427L10.3965 10.3503C10.3602 10.3866 10.3308 10.416 10.3036 10.442C9.01502 11.6741 6.98498 11.6741 5.69636 10.442C5.66916 10.416 5.63973 10.3865 5.60333 10.3501L5.56926 10.3161L5.56388 10.3108C5.43508 10.1878 5.23198 10.1875 5.10318 10.3104L5.09741 10.3161L4.85525 10.5582C4.63756 10.7759 4.45476 10.9587 4.30556 11.0974C4.164 11.229 3.98679 11.3847 3.7844 11.4952C2.96936 11.9399 2.02797 11.8442 1.33333 11.3624V13.6657C1.33333 14.218 1.78105 14.6657 2.33333 14.6657H13.6667C14.219 14.6657 14.6667 14.218 14.6667 13.6657V11.3624C13.972 11.8442 13.0306 11.9399 12.2156 11.4952C12.0132 11.3847 11.836 11.229 11.6944 11.0974C11.5452 10.9587 11.3625 10.776 11.1448 10.5582L10.9309 10.3444L10.9291 10.3426L10.9026 10.3161L10.8968 10.3104C10.768 10.1875 10.5653 10.1875 10.4365 10.3104L10.4307 10.3161L10.4041 10.3427Z" fill="#18202A"/>
<path d="M11.3441 5.33256H4.65593C4.04639 5.33256 3.74161 5.33256 3.48803 5.38217C2.4235 5.59042 1.59119 6.42273 1.38294 7.48725C1.33333 7.74084 1.33333 8.04723 1.33333 8.66003C1.33333 9.31256 1.33333 9.63882 1.38744 9.82291C1.6272 10.6387 2.55899 11.0246 3.30537 10.6173C3.4738 10.5254 3.70312 10.2961 4.16176 9.83746L4.36364 9.63559C4.3886 9.61062 4.40108 9.59814 4.41188 9.58782C4.92732 9.09496 5.73934 9.09496 6.25479 9.58782C6.26558 9.59814 6.27806 9.61062 6.30303 9.63559C6.34672 9.67928 6.36856 9.70112 6.38745 9.71918C7.28949 10.5817 8.71051 10.5817 9.61255 9.71918C9.63143 9.70113 9.65331 9.67924 9.69697 9.63559C9.72193 9.61062 9.73442 9.59814 9.74521 9.58782C10.2607 9.09496 11.0727 9.09496 11.5881 9.58782C11.5989 9.59813 11.6115 9.61069 11.6364 9.63559L11.8382 9.83747C12.2969 10.2961 12.5262 10.5254 12.6946 10.6173C13.441 11.0246 14.3728 10.6387 14.6126 9.82291C14.6667 9.63882 14.6667 9.31256 14.6667 8.66003C14.6667 8.04723 14.6667 7.74084 14.6171 7.48725C14.4088 6.42273 13.5765 5.59042 12.512 5.38217C12.2584 5.33256 11.9536 5.33256 11.3441 5.33256Z" fill="#18202A"/>
<path d="M7.05719 4.27081C6.53649 3.75011 6.53649 2.90589 7.05719 2.38519L8 1.44238L8.94281 2.38519C9.46351 2.90589 9.46351 3.75011 8.94281 4.27081C8.42211 4.79151 7.57789 4.79151 7.05719 4.27081Z" fill="#18202A"/>
</svg>
