<svg width="16" height="16" viewBox="0 0 16 16" fill="none" xmlns="http://www.w3.org/2000/svg">
<path fill-rule="evenodd" clip-rule="evenodd" d="M2.66671 1.33337C1.93033 1.33337 1.33337 1.93033 1.33337 2.66671V3.33337C1.33337 4.06975 1.93033 4.66671 2.66671 4.66671H13.3334C14.0698 4.66671 14.6667 4.06975 14.6667 3.33337V2.66671C14.6667 1.93033 14.0698 1.33337 13.3334 1.33337H2.66671ZM2.00004 6.66671C2.00004 6.29852 2.29852 6.00004 2.66671 6.00004H13.3334C13.7016 6.00004 14 6.29852 14 6.66671V8.54237C13.58 8.40668 13.1319 8.33337 12.6667 8.33337C10.2735 8.33337 8.33337 10.2735 8.33337 12.6667C8.33337 13.6724 8.67597 14.5981 9.25081 15.3334H4.66671C3.19395 15.3334 2.00004 14.1395 2.00004 12.6667V6.66671ZM5.33337 8.00004C5.33337 7.63185 5.63185 7.33337 6.00004 7.33337H10C10.3682 7.33337 10.6667 7.63185 10.6667 8.00004C10.6667 8.36823 10.3682 8.66671 10 8.66671H6.00004C5.63185 8.66671 5.33337 8.36823 5.33337 8.00004ZM16 12.6667C16 14.5077 14.5077 16 12.6667 16C10.8258 16 9.33337 14.5077 9.33337 12.6667C9.33337 10.8258 10.8258 9.33337 12.6667 9.33337C14.5077 9.33337 16 10.8258 16 12.6667ZM14.3166 11.0168C14.5119 11.212 14.5119 11.5286 14.3166 11.7239L13.3738 12.6667L14.3166 13.6095C14.5119 13.8048 14.5119 14.1213 14.3166 14.3166C14.1214 14.5119 13.8048 14.5119 13.6095 14.3166L12.6667 13.3738L11.7239 14.3166C11.5286 14.5119 11.2121 14.5119 11.0168 14.3166C10.8215 14.1213 10.8215 13.8048 11.0168 13.6095L11.9596 12.6667L11.0168 11.7239C10.8215 11.5286 10.8215 11.212 11.0168 11.0168C11.2121 10.8215 11.5286 10.8215 11.7239 11.0168L12.6667 11.9596L13.6095 11.0168C13.8048 10.8215 14.1214 10.8215 14.3166 11.0168Z" fill="#18202A"/>
</svg>
