<svg width="16" height="16" viewBox="0 0 16 16" fill="none" xmlns="http://www.w3.org/2000/svg">
<path fill-rule="evenodd" clip-rule="evenodd" d="M3.93301 11.1966L4.04122 12.5122C4.09239 13.1343 4.76931 13.5415 5.36691 13.2663C8.01213 12.0481 10.5349 10.5077 12.8209 8.70633C13.278 8.3461 13.278 7.65319 12.8209 7.29296C10.5349 5.4916 8.01213 3.9512 5.36691 2.73301C4.76931 2.4578 4.09239 2.86497 4.04122 3.48712L3.93301 4.80265C3.75801 6.93039 3.75801 9.0689 3.93301 11.1966ZM5.78521 1.8247C4.57233 1.26614 3.15405 2.07432 3.04458 3.40514L2.93638 4.72067C2.75688 6.90297 2.75688 9.09632 2.93638 11.2786L3.04458 12.5942C3.15405 13.925 4.57233 14.7332 5.78521 14.1746C8.50108 12.9239 11.0913 11.3424 13.4398 9.49177C14.405 8.73116 14.405 7.26813 13.4398 6.50752C11.0913 4.65689 8.50108 3.07543 5.78521 1.8247Z" fill="#18202A"/>
</svg>
