<svg width="16" height="16" viewBox="0 0 16 16" fill="none" xmlns="http://www.w3.org/2000/svg">
<path fill-rule="evenodd" clip-rule="evenodd" d="M2.80473 1.86201C2.54438 1.60166 2.12227 1.60166 1.86192 1.86201C1.60157 2.12236 1.60157 2.54447 1.86192 2.80482L3.52884 4.47174C2.30558 5.46226 1.38542 6.63048 0.881573 7.343C0.600837 7.74001 0.600836 8.26015 0.881573 8.65716C1.88978 10.0829 4.56498 13.3334 7.99998 13.3334C9.23439 13.3334 10.3707 12.9136 11.3667 12.3096L13.1953 14.1382C13.4556 14.3985 13.8777 14.3985 14.1381 14.1382C14.3984 13.8778 14.3984 13.4557 14.1381 13.1953L12.4711 11.5284L12.4717 11.528L10.2978 9.35407L10.2974 9.35473L9.28816 8.34544L9.28838 8.34462L7.65545 6.71169L7.65463 6.71191L6.64535 5.70263L6.646 5.70224L4.63388 3.69013L4.63324 3.69052L2.80473 1.86201ZM5.70254 6.64544C5.46794 7.04245 5.33332 7.50554 5.33332 8.00008C5.33332 9.47284 6.52723 10.6667 7.99999 10.6667C8.49453 10.6667 8.95763 10.5321 9.35464 10.2975L8.34535 9.28825C8.2352 9.31771 8.11943 9.33342 7.99999 9.33342C7.26361 9.33342 6.66666 8.73646 6.66666 8.00008C6.66666 7.88064 6.68236 7.76487 6.71182 7.65472L5.70254 6.64544Z" fill="#18202A"/>
<path d="M8.168 5.33862C9.50693 5.42186 10.5782 6.49314 10.6615 7.83208L13.4614 10.632C14.1958 9.89516 14.7615 9.16185 15.1184 8.65716C15.3991 8.26015 15.3991 7.74001 15.1184 7.343C14.1102 5.91723 11.435 2.66675 7.99998 2.66675C7.26082 2.66675 6.55685 2.81726 5.89709 3.06771L8.168 5.33862Z" fill="#18202A"/>
</svg>
