<svg width="16" height="16" viewBox="0 0 16 16" fill="none" xmlns="http://www.w3.org/2000/svg">
<path d="M4.00004 4.66683C3.7239 4.66683 3.50004 4.89069 3.50004 5.16683C3.50004 5.44297 3.7239 5.66683 4.00004 5.66683H12C12.2762 5.66683 12.5 5.44297 12.5 5.16683C12.5 4.89069 12.2762 4.66683 12 4.66683H4.00004Z" fill="#18202A"/>
<path d="M4.00004 7.3335C3.7239 7.3335 3.50004 7.55735 3.50004 7.8335C3.50004 8.10964 3.7239 8.3335 4.00004 8.3335H12C12.2762 8.3335 12.5 8.10964 12.5 7.8335C12.5 7.55735 12.2762 7.3335 12 7.3335H4.00004Z" fill="#18202A"/>
<path d="M3.50004 10.5002C3.50004 10.224 3.7239 10.0002 4.00004 10.0002H8.00004C8.27618 10.0002 8.50004 10.224 8.50004 10.5002C8.50004 10.7763 8.27618 11.0002 8.00004 11.0002H4.00004C3.7239 11.0002 3.50004 10.7763 3.50004 10.5002Z" fill="#18202A"/>
<path fill-rule="evenodd" clip-rule="evenodd" d="M1.33337 4.00016C1.33337 2.5274 2.52728 1.3335 4.00004 1.3335H12C13.4728 1.3335 14.6667 2.5274 14.6667 4.00016V12.0002C14.6667 13.4729 13.4728 14.6668 12 14.6668H4.00004C2.52728 14.6668 1.33337 13.4729 1.33337 12.0002V4.00016ZM12 2.3335C12.9205 2.3335 13.6667 3.07969 13.6667 4.00016V12.0002C13.6667 12.9206 12.9205 13.6668 12 13.6668H4.00004C3.07957 13.6668 2.33337 12.9206 2.33337 12.0002V4.00016C2.33337 3.07969 3.07957 2.3335 4.00004 2.3335H12Z" fill="#18202A"/>
</svg>
