<svg width="16" height="16" viewBox="0 0 16 16" fill="none" xmlns="http://www.w3.org/2000/svg">
<path fill-rule="evenodd" clip-rule="evenodd" d="M11.3333 3.66699H4.66666C4.11437 3.66699 3.66666 4.11471 3.66666 4.66699V11.3337C3.66666 11.8859 4.11437 12.3337 4.66666 12.3337H11.3333C11.8856 12.3337 12.3333 11.8859 12.3333 11.3337V4.66699C12.3333 4.11471 11.8856 3.66699 11.3333 3.66699ZM4.66666 2.66699C3.56209 2.66699 2.66666 3.56242 2.66666 4.66699V11.3337C2.66666 12.4382 3.56209 13.3337 4.66666 13.3337H11.3333C12.4379 13.3337 13.3333 12.4382 13.3333 11.3337V4.66699C13.3333 3.56242 12.4379 2.66699 11.3333 2.66699H4.66666Z" fill="#18202A"/>
</svg>
