<svg width="16" height="16" viewBox="0 0 16 16" fill="none" xmlns="http://www.w3.org/2000/svg">
<g clip-path="url(#clip0_2266_37619)">
<path fill-rule="evenodd" clip-rule="evenodd" d="M0.666667 3.33366C0.666667 1.8609 1.86057 0.666992 3.33333 0.666992H12.6667C14.1394 0.666992 15.3333 1.8609 15.3333 3.33366V12.667C15.3333 14.1398 14.1394 15.3337 12.6667 15.3337H3.33333C1.86057 15.3337 0.666667 14.1398 0.666667 12.667V3.33366ZM8 7.33366C8.88889 7.33366 9.33333 6.50033 9.33333 5.45866C9.33333 4.62533 8.88889 4.00033 8 4.00033C7.11111 4.00033 6.66667 4.62533 6.66667 5.45866C6.66667 6.50033 7.11111 7.33366 8 7.33366ZM4.33333 7.33366C5 7.33366 5.33333 6.66699 5.33333 5.83366C5.33333 5.16699 5 4.66699 4.33333 4.66699C3.66667 4.66699 3.33333 5.16699 3.33333 5.83366C3.33333 6.66699 3.66667 7.33366 4.33333 7.33366ZM12.6667 5.83366C12.6667 6.66699 12.3333 7.33366 11.6667 7.33366C11 7.33366 10.6667 6.66699 10.6667 5.83366C10.6667 5.16699 11 4.66699 11.6667 4.66699C12.3333 4.66699 12.6667 5.16699 12.6667 5.83366ZM5.40853 8.14545C5.4591 8.11035 5.51041 8.07626 5.56242 8.04318C5.34716 8.00646 5.12554 7.9873 4.89925 7.9873C4.27276 7.9873 3.68211 8.13416 3.16286 8.39387C2.72208 8.61432 2.53672 9.13095 2.68386 9.60131C2.71243 9.69265 2.74285 9.78322 2.77508 9.87299C2.91542 10.2639 3.26414 10.5397 3.67556 10.5969C4.02447 10.6453 4.3803 10.6734 4.74167 10.6797C4.71889 10.6165 4.6969 10.553 4.67569 10.4891C4.40356 9.66905 4.62638 8.68821 5.40853 8.14545ZM11.2593 10.6775C11.2818 10.615 11.3036 10.5523 11.3245 10.4891C11.5966 9.66904 11.3738 8.68822 10.5917 8.14547C10.5348 8.10601 10.477 8.06782 10.4184 8.03092C10.6095 8.00221 10.8055 7.9873 11.0051 7.9873C11.6791 7.9873 12.3117 8.1573 12.8584 8.45494C13.283 8.68604 13.4536 9.19479 13.3055 9.65492C13.284 9.72164 13.2616 9.78794 13.2382 9.8538C13.1004 10.241 12.7582 10.5165 12.352 10.5788C11.9948 10.6336 11.6301 10.667 11.2593 10.6775ZM10.3942 11.0306C10.1783 11.4972 9.7426 11.8234 9.23501 11.9049C8.83269 11.9695 8.42024 12.0031 8.00008 12.0031C7.57994 12.0031 7.1675 11.9695 6.7652 11.9049C6.25763 11.8234 5.82197 11.4972 5.60598 11.0307C5.49334 10.7874 5.39384 10.5366 5.30842 10.2792C5.11519 9.69687 5.28455 9.04293 5.78859 8.69316C6.41867 8.25593 7.18006 8.00033 8.00008 8.00033C8.82012 8.00033 9.58151 8.25594 10.2116 8.69318C10.7156 9.04294 10.885 9.69687 10.6918 10.2791C10.6064 10.5366 10.5069 10.7874 10.3942 11.0306Z" fill="#18202A"/>
</g>
<defs>
<clipPath id="clip0_2266_37619">
<rect width="16" height="16" fill="white"/>
</clipPath>
</defs>
</svg>
