<svg width="16" height="16" viewBox="0 0 16 16" fill="none" xmlns="http://www.w3.org/2000/svg">
<path d="M6 3.3335C6 2.22893 6.89543 1.3335 8 1.3335C9.10457 1.3335 10 2.22893 10 3.3335V7.3335C10 8.43807 9.10457 9.3335 8 9.3335C6.89543 9.3335 6 8.43807 6 7.3335V3.3335Z" fill="#18202A"/>
<path d="M4.00002 7.3335C3.63183 7.3335 3.32835 7.63368 3.38033 7.99818C3.67191 10.0429 5.28889 11.6605 7.33333 11.9529V13.3335H5.66667C5.29848 13.3335 5 13.632 5 14.0002C5 14.3684 5.29848 14.6668 5.66667 14.6668H10.3333C10.7015 14.6668 11 14.3684 11 14.0002C11 13.632 10.7015 13.3335 10.3333 13.3335H8.66667V11.9529C10.7111 11.6605 12.3281 10.0429 12.6197 7.99818C12.6717 7.63368 12.3682 7.3335 12 7.3335C11.6318 7.3335 11.3403 7.63498 11.2675 7.99591C10.9603 9.51952 9.61416 10.6668 8.00002 10.6668C6.38588 10.6668 5.03971 9.51952 4.73251 7.99591C4.65973 7.63498 4.36821 7.3335 4.00002 7.3335Z" fill="#18202A"/>
</svg>
