<svg width="16" height="16" viewBox="0 0 16 16" fill="none" xmlns="http://www.w3.org/2000/svg">
<path fill-rule="evenodd" clip-rule="evenodd" d="M13 7.16675C13 6.89061 13.2239 6.66675 13.5 6.66675C13.7761 6.66675 14 6.89061 14 7.16675V12.6667C14 14.1395 12.8061 15.3334 11.3333 15.3334H4.66667C3.19391 15.3334 2 14.1395 2 12.6667V3.33341C2 1.86066 3.19391 0.666748 4.66667 0.666748H10.8333C11.1095 0.666748 11.3333 0.890606 11.3333 1.16675C11.3333 1.44289 11.1095 1.66675 10.8333 1.66675L4.66667 1.66675C3.74619 1.66675 3 2.41294 3 3.33341L3 12.6667C3 13.5872 3.74619 14.3334 4.66667 14.3334H11.3333C12.2538 14.3334 13 13.5872 13 12.6667V7.16675ZM5.16663 8.66675C4.89048 8.66675 4.66663 8.89061 4.66663 9.16675C4.66663 9.44289 4.89048 9.66675 5.16663 9.66675H8.16663C8.44277 9.66675 8.66663 9.44289 8.66663 9.16675C8.66663 8.89061 8.44277 8.66675 8.16663 8.66675H5.16663ZM4.66663 11.8334C4.66663 11.5573 4.89048 11.3334 5.16663 11.3334H10.8333C11.1094 11.3334 11.3333 11.5573 11.3333 11.8334C11.3333 12.1096 11.1094 12.3334 10.8333 12.3334H5.16663C4.89048 12.3334 4.66663 12.1096 4.66663 11.8334ZM14.3535 3.0203C14.5488 2.82504 14.5488 2.50846 14.3535 2.31319C14.1583 2.11793 13.8417 2.11793 13.6464 2.3132L9.99642 5.96319L8.44518 4.44298C8.24795 4.24969 7.93139 4.25289 7.73811 4.45012C7.54483 4.64734 7.54803 4.96391 7.74525 5.15719L9.65001 7.02385C9.84583 7.21576 10.1597 7.21417 10.3535 7.0203L14.3535 3.0203Z" fill="#18202A"/>
</svg>
