<svg width="16" height="16" viewBox="0 0 16 16" fill="none" xmlns="http://www.w3.org/2000/svg">
<g clip-path="url(#clip0_2266_35874)">
<path fill-rule="evenodd" clip-rule="evenodd" d="M15.3333 7.99984C15.3333 12.0499 12.0501 15.3332 8 15.3332C3.94991 15.3332 0.666667 12.0499 0.666667 7.99984C0.666667 3.94975 3.94991 0.666504 8 0.666504C12.0501 0.666504 15.3333 3.94975 15.3333 7.99984ZM6.66667 6.6665C6.66667 7.40288 6.21896 7.99984 5.66667 7.99984C5.11439 7.99984 4.66667 7.40288 4.66667 6.6665C4.66667 5.93012 5.11439 5.33317 5.66667 5.33317C6.21896 5.33317 6.66667 5.93012 6.66667 6.6665ZM4.95849 9.44854C5.26296 9.24151 5.67761 9.32051 5.88464 9.62499C6.0931 9.93158 6.3943 10.1945 6.76623 10.3804C7.13833 10.5665 7.56366 10.6665 8 10.6665C8.43635 10.6665 8.86168 10.5665 9.23378 10.3804C9.60571 10.1945 9.90691 9.93158 10.1154 9.62499C10.3224 9.32051 10.737 9.24151 11.0415 9.44854C11.346 9.65556 11.425 10.0702 11.218 10.3747C10.8734 10.8815 10.3927 11.2917 9.83007 11.573C9.2676 11.8543 8.63743 11.9998 8 11.9998C7.36258 11.9998 6.73241 11.8543 6.16994 11.573C5.60729 11.2917 5.12665 10.8815 4.78204 10.3747C4.57501 10.0702 4.65401 9.65556 4.95849 9.44854ZM10.3333 7.99984C10.8856 7.99984 11.3333 7.40288 11.3333 6.6665C11.3333 5.93012 10.8856 5.33317 10.3333 5.33317C9.78105 5.33317 9.33334 5.93012 9.33334 6.6665C9.33334 7.40288 9.78105 7.99984 10.3333 7.99984Z" fill="#18202A"/>
</g>
<defs>
<clipPath id="clip0_2266_35874">
<rect width="16" height="16" fill="white"/>
</clipPath>
</defs>
</svg>
