<svg width="16" height="16" viewBox="0 0 16 16" fill="none" xmlns="http://www.w3.org/2000/svg">
<path d="M0 4.66667C0 3.19391 1.19391 2 2.66667 2H9.33333C10.8061 2 12 3.19391 12 4.66667V11.3333C12 12.8061 10.8061 14 9.33333 14H2.66667C1.19391 14 0 12.8061 0 11.3333V4.66667Z" fill="#18202A"/>
<path d="M12.6667 6.07482C12.6667 5.86041 12.7698 5.65908 12.9438 5.5338L14.9438 4.0938C15.3848 3.77629 16 4.09142 16 4.63482V11.3652C16 11.9086 15.3848 12.2237 14.9438 11.9062L12.9438 10.4662C12.7698 10.3409 12.6667 10.1396 12.6667 9.25851V6.07482Z" fill="#18202A"/>
</svg>
