<svg width="16" height="16" viewBox="0 0 16 16" fill="none" xmlns="http://www.w3.org/2000/svg">
<g clip-path="url(#clip0_3294_8813)">
<path d="M4.66671 3.5004C4.66671 3.22426 4.89057 3.0004 5.16671 3.0004H14.1667C14.4429 3.0004 14.6667 3.22426 14.6667 3.5004C14.6667 3.77654 14.4429 4.0004 14.1667 4.0004H5.16671C4.89057 4.0004 4.66671 3.77654 4.66671 3.5004Z" fill="#18202A"/>
<path d="M5.16671 7.50024C4.89057 7.50024 4.66671 7.72409 4.66671 8.00024C4.66671 8.27638 4.89057 8.50024 5.16671 8.50024H14.1667C14.4429 8.50024 14.6667 8.27638 14.6667 8.00024C14.6667 7.72409 14.4429 7.50024 14.1667 7.50024H5.16671Z" fill="#18202A"/>
<path d="M5.16671 12.0004C4.89057 12.0004 4.66671 12.2243 4.66671 12.5004C4.66671 12.7765 4.89057 13.0004 5.16671 13.0004H14.1667C14.4429 13.0004 14.6667 12.7765 14.6667 12.5004C14.6667 12.2243 14.4429 12.0004 14.1667 12.0004H5.16671Z" fill="#18202A"/>
<path d="M2.75 3.5C2.75 3.91421 2.41421 4.25 2 4.25C1.58579 4.25 1.25 3.91421 1.25 3.5C1.25 3.08579 1.58579 2.75 2 2.75C2.41421 2.75 2.75 3.08579 2.75 3.5Z" fill="#18202A"/>
<path d="M2.75 8.0004C2.75 8.41461 2.41421 8.7504 2 8.7504C1.58579 8.7504 1.25 8.41461 1.25 8.0004C1.25 7.58618 1.58579 7.2504 2 7.2504C2.41421 7.2504 2.75 7.58618 2.75 8.0004Z" fill="#18202A"/>
<path d="M2.75 12.5C2.75 12.9142 2.41421 13.25 2 13.25C1.58579 13.25 1.25 12.9142 1.25 12.5C1.25 12.0858 1.58579 11.75 2 11.75C2.41421 11.75 2.75 12.0858 2.75 12.5Z" fill="#18202A"/>
</g>
<defs>
<clipPath id="clip0_3294_8813">
<rect width="16" height="16" fill="white"/>
</clipPath>
</defs>
</svg>
