<svg width="16" height="16" viewBox="0 0 16 16" fill="none" xmlns="http://www.w3.org/2000/svg">
<g clip-path="url(#clip0_3900_9022)">
<path d="M12.1991 6.65909C12.1991 7.60606 11.7994 8.36364 11 8.36364C10.2005 8.36364 9.80085 7.60606 9.80085 6.65909C9.80085 5.90152 10.2005 5.33333 11 5.33333C11.7994 5.33333 12.1991 5.90152 12.1991 6.65909Z" fill="#18202A"/>
<path d="M9.30534 9.5C9.2141 9.56332 9.1265 9.63161 9.04292 9.70449C8.85074 9.87206 8.73247 10.0944 8.68743 10.3333C8.63869 10.5918 8.67568 10.8697 8.79755 11.1185L8.81154 11.1468C8.98117 11.4874 9.2909 11.7349 9.65633 11.8296C10.0859 11.9408 10.5361 12 11 12C11.4638 12 11.914 11.9408 12.3436 11.8296C12.709 11.7349 13.0187 11.4874 13.1884 11.1468L13.1955 11.1325L13.2024 11.1185C13.4093 10.696 13.3715 10.1896 13.0847 9.83668C13.0466 9.7897 13.004 9.74544 12.957 9.70447C12.7894 9.55836 12.6057 9.43068 12.4089 9.32455C11.9889 9.09807 11.5092 8.9697 11 8.9697C10.3711 8.9697 9.78739 9.16546 9.30534 9.5Z" fill="#18202A"/>
<path fill-rule="evenodd" clip-rule="evenodd" d="M3.33329 2C1.86053 2 0.666626 3.19391 0.666626 4.66667V11.3333C0.666626 12.8061 1.86053 14 3.33329 14H12.6666C14.1394 14 15.3333 12.8061 15.3333 11.3333V6C15.3333 4.52724 14.1394 3.33333 12.6666 3.33333H7.99996L7.25241 2.58579C6.87734 2.21071 6.36863 2 5.8382 2H3.33329ZM14.3333 6C14.3333 5.07953 13.5871 4.33333 12.6666 4.33333H7.58575L6.54531 3.29289C6.35777 3.10536 6.10342 3 5.8382 3H3.33329C2.41282 3 1.66663 3.74619 1.66663 4.66667V11.3333C1.66663 12.2538 2.41282 13 3.33329 13H12.6666C13.5871 13 14.3333 12.2538 14.3333 11.3333V6Z" fill="#18202A"/>
</g>
<defs>
<clipPath id="clip0_3900_9022">
<rect width="16" height="16" fill="white"/>
</clipPath>
</defs>
</svg>
