<svg width="16" height="16" viewBox="0 0 16 16" fill="none" xmlns="http://www.w3.org/2000/svg">
<path fill-rule="evenodd" clip-rule="evenodd" d="M11.6116 2C12.0979 2 12.5456 2.26471 12.7799 2.69078L15.1162 6.93855C15.257 7.19463 15.3099 7.48988 15.2665 7.7789L14.5037 12.8645C14.4058 13.5171 13.8451 14 13.1851 14H2.81492C2.15492 14 1.59424 13.5171 1.49634 12.8645L0.733503 7.7789C0.690151 7.48988 0.742957 7.19463 0.883798 6.93855L3.22008 2.69078C3.45441 2.26471 3.90211 2 4.38836 2H11.6116ZM2.49808 7.08686C2.4375 7.19792 2.51789 7.33333 2.6444 7.33333H5.33333C5.70152 7.33333 5.98912 7.64 6.10958 7.98793C6.3807 8.77102 7.12468 9.33333 8 9.33333C8.87532 9.33333 9.6193 8.77102 9.89042 7.98793C10.0109 7.64 10.2985 7.33333 10.6667 7.33333H13.3556C13.4821 7.33333 13.5625 7.19792 13.5019 7.08686L11.6441 3.68077C11.5272 3.46659 11.3028 3.33333 11.0588 3.33333H4.94121C4.69725 3.33333 4.47277 3.46659 4.35595 3.68077L2.49808 7.08686Z" fill="#18202A"/>
</svg>
