<svg width="16" height="16" viewBox="0 0 16 16" fill="none" xmlns="http://www.w3.org/2000/svg">
<path fill-rule="evenodd" clip-rule="evenodd" d="M2.66667 0.666504C2.29848 0.666504 2 0.964981 2 1.33317C2 1.70136 2.29848 1.99984 2.66667 1.99984H3.01179C3.00397 2.12746 3 2.2562 3 2.38589C3 4.55024 4.10899 6.46482 5.78375 7.38896C6.0072 7.51227 6.09524 7.68834 6.09524 7.81275V8.18715C6.09524 8.31155 6.0072 8.48763 5.78375 8.61093C4.10899 9.53508 3 11.4497 3 13.614C3 13.7131 3.00232 13.8116 3.0069 13.9096C3.00265 13.9391 3.00032 13.9692 3.00003 13.9998H2.66667C2.29848 13.9998 2 14.2983 2 14.6665C2 15.0347 2.29848 15.3332 2.66667 15.3332H13.3333C13.7015 15.3332 14 15.0347 14 14.6665C14 14.2983 13.7015 13.9998 13.3333 13.9998H13C12.9997 13.9692 12.9974 13.9391 12.9931 13.9096C12.9977 13.8116 13 13.7131 13 13.614C13 11.4497 11.891 9.53508 10.2163 8.61093C9.9928 8.48763 9.90476 8.31155 9.90476 8.18715V7.81275C9.90476 7.68834 9.9928 7.51226 10.2163 7.38896C11.891 6.46482 13 4.55024 13 2.38589C13 2.2562 12.996 2.12746 12.9882 1.99984H13.3333C13.7015 1.99984 14 1.70136 14 1.33317C14 0.964981 13.7015 0.666504 13.3333 0.666504H2.66667ZM4.33333 2.38589C4.33333 2.25563 4.3384 2.12687 4.3483 1.99984H11.6517C11.6616 2.12687 11.6667 2.25563 11.6667 2.38589C11.6667 4.10757 10.7854 5.55206 9.57207 6.22157C9.04415 6.51288 8.57143 7.07897 8.57143 7.81275V8.18715C8.57143 8.92093 9.04415 9.48702 9.57207 9.77833C10.7854 10.4478 11.6667 11.8923 11.6667 13.614C11.6667 13.7266 11.6629 13.8382 11.6555 13.9484C11.6543 13.9657 11.6538 13.9828 11.6539 13.9998H4.34607C4.34621 13.9828 4.34571 13.9656 4.34454 13.9483C4.33712 13.8381 4.33333 13.7266 4.33333 13.614C4.33333 11.8923 5.21462 10.4478 6.42793 9.77833C6.95585 9.48702 7.42857 8.92093 7.42857 8.18715V7.81275C7.42857 7.07896 6.95585 6.51288 6.42793 6.22157C5.21462 5.55206 4.33333 4.10757 4.33333 2.38589Z" fill="#18202A"/>
</svg>
