<svg width="16" height="16" viewBox="0 0 16 16" fill="none" xmlns="http://www.w3.org/2000/svg">
<path d="M4.86197 4.86185C5.12232 4.6015 5.54443 4.6015 5.80478 4.86185L8.00004 7.05711L10.1953 4.86185C10.4557 4.6015 10.8778 4.6015 11.1381 4.86185C11.3985 5.1222 11.3985 5.54431 11.1381 5.80466L8.94285 7.99992L11.1381 10.1952C11.3985 10.4555 11.3985 10.8776 11.1381 11.138C10.8778 11.3983 10.4557 11.3983 10.1953 11.138L8.00004 8.94273L5.80478 11.138C5.54443 11.3983 5.12232 11.3983 4.86197 11.138C4.60162 10.8776 4.60162 10.4555 4.86197 10.1952L7.05723 7.99992L4.86197 5.80466C4.60162 5.54431 4.60162 5.1222 4.86197 4.86185Z" fill="#18202A"/>
<path fill-rule="evenodd" clip-rule="evenodd" d="M4.00004 1.33325C2.52728 1.33325 1.33337 2.52716 1.33337 3.99992V11.9999C1.33337 13.4727 2.52728 14.6666 4.00004 14.6666H12C13.4728 14.6666 14.6667 13.4727 14.6667 11.9999V3.99992C14.6667 2.52716 13.4728 1.33325 12 1.33325H4.00004ZM13.3334 3.99992C13.3334 3.26354 12.7364 2.66659 12 2.66659H4.00004C3.26366 2.66659 2.66671 3.26354 2.66671 3.99992V11.9999C2.66671 12.7363 3.26366 13.3333 4.00004 13.3333H12C12.7364 13.3333 13.3334 12.7363 13.3334 11.9999V3.99992Z" fill="#18202A"/>
</svg>
