<svg width="16" height="16" viewBox="0 0 16 16" fill="none" xmlns="http://www.w3.org/2000/svg">
<g clip-path="url(#clip0_2266_39590)">
<path fill-rule="evenodd" clip-rule="evenodd" d="M7.99999 14.3332C11.4978 14.3332 14.3333 11.4976 14.3333 7.99984C14.3333 4.50203 11.4978 1.6665 7.99999 1.6665C4.50219 1.6665 1.66666 4.50203 1.66666 7.99984C1.66666 11.4976 4.50219 14.3332 7.99999 14.3332ZM15.3333 7.99984C15.3333 12.0499 12.0501 15.3332 7.99999 15.3332C3.9499 15.3332 0.666656 12.0499 0.666656 7.99984C0.666656 3.94975 3.9499 0.666504 7.99999 0.666504C12.0501 0.666504 15.3333 3.94975 15.3333 7.99984Z" fill="#18202A"/>
<path fill-rule="evenodd" clip-rule="evenodd" d="M5.05219 9.58636C5.28054 9.43109 5.59153 9.49034 5.7468 9.7187C5.97228 10.0503 6.29591 10.3316 6.69168 10.5295C7.08758 10.7275 7.53851 10.8332 7.99999 10.8332C8.46147 10.8332 8.9124 10.7275 9.3083 10.5295C9.70407 10.3316 10.0277 10.0503 10.2532 9.7187C10.4084 9.49034 10.7194 9.43109 10.9478 9.58636C11.1762 9.74163 11.2354 10.0526 11.0801 10.281C10.7525 10.7628 10.2943 11.1545 9.75552 11.4239C9.21684 11.6933 8.61228 11.8332 7.99999 11.8332C7.3877 11.8332 6.78314 11.6933 6.24446 11.4239C5.70566 11.1545 5.24744 10.7628 4.91985 10.281C4.76458 10.0526 4.82383 9.74163 5.05219 9.58636Z" fill="#18202A"/>
<path d="M6.66666 6.6665C6.66666 7.40288 6.21894 7.99984 5.66666 7.99984C5.11437 7.99984 4.66666 7.40288 4.66666 6.6665C4.66666 5.93012 5.11437 5.33317 5.66666 5.33317C6.21894 5.33317 6.66666 5.93012 6.66666 6.6665Z" fill="#18202A"/>
<path d="M11.3333 6.6665C11.3333 7.40288 10.8856 7.99984 10.3333 7.99984C9.78104 7.99984 9.33332 7.40288 9.33332 6.6665C9.33332 5.93012 9.78104 5.33317 10.3333 5.33317C10.8856 5.33317 11.3333 5.93012 11.3333 6.6665Z" fill="#18202A"/>
</g>
<defs>
<clipPath id="clip0_2266_39590">
<rect width="16" height="16" fill="white"/>
</clipPath>
</defs>
</svg>
