<svg width="16" height="16" viewBox="0 0 16 16" fill="none" xmlns="http://www.w3.org/2000/svg">
<g clip-path="url(#clip0_2266_40004)">
<path fill-rule="evenodd" clip-rule="evenodd" d="M7.99999 4.16675C8.27613 4.16675 8.49999 4.39061 8.49999 4.66675V11.3334C8.49999 11.6096 8.27613 11.8334 7.99999 11.8334C7.72385 11.8334 7.49999 11.6096 7.49999 11.3334V4.66675C7.49999 4.39061 7.72385 4.16675 7.99999 4.16675Z" fill="#18202A"/>
<path fill-rule="evenodd" clip-rule="evenodd" d="M4.16666 8.00008C4.16666 7.72394 4.39051 7.50008 4.66666 7.50008H11.3333C11.6095 7.50008 11.8333 7.72394 11.8333 8.00008C11.8333 8.27622 11.6095 8.50008 11.3333 8.50008H4.66666C4.39051 8.50008 4.16666 8.27622 4.16666 8.00008Z" fill="#18202A"/>
<path fill-rule="evenodd" clip-rule="evenodd" d="M7.99999 14.3334C11.4978 14.3334 14.3333 11.4979 14.3333 8.00008C14.3333 4.50228 11.4978 1.66675 7.99999 1.66675C4.50219 1.66675 1.66666 4.50228 1.66666 8.00008C1.66666 11.4979 4.50219 14.3334 7.99999 14.3334ZM7.99999 15.3334C12.0501 15.3334 15.3333 12.0502 15.3333 8.00008C15.3333 3.94999 12.0501 0.666748 7.99999 0.666748C3.9499 0.666748 0.666656 3.94999 0.666656 8.00008C0.666656 12.0502 3.9499 15.3334 7.99999 15.3334Z" fill="#18202A"/>
</g>
<defs>
<clipPath id="clip0_2266_40004">
<rect width="16" height="16" fill="white"/>
</clipPath>
</defs>
</svg>
