<svg width="16" height="16" viewBox="0 0 16 16" fill="none" xmlns="http://www.w3.org/2000/svg">
<g clip-path="url(#clip0_2266_35984)">
<path fill-rule="evenodd" clip-rule="evenodd" d="M13.3333 5.33317V10.5078L8.15873 5.33317H13.3333ZM4.38968 5.33317H2.66667V14.6665C2.66667 15.2159 3.29384 15.5295 3.73333 15.1998L7.2 12.5998C7.67407 12.2443 8.32593 12.2443 8.8 12.5998L12.2667 15.1998C12.7062 15.5295 13.3333 15.2159 13.3333 14.6665V14.2768L14.1489 15.0923C14.4438 15.3873 14.8942 15.4152 15.1548 15.1546C15.4153 14.894 15.3875 14.4437 15.0925 14.1487L1.85114 0.907328C1.55618 0.612366 1.10582 0.584495 0.845239 0.845076C0.584657 1.10566 0.612528 1.55601 0.90749 1.85098L4.38968 5.33317ZM13.3333 3.99984H6.8254L3.90589 1.08032C4.31861 0.818268 4.80825 0.666504 5.33333 0.666504H10.6667C12.1394 0.666504 13.3333 1.86041 13.3333 3.33317V3.99984Z" fill="#18202A"/>
</g>
<defs>
<clipPath id="clip0_2266_35984">
<rect width="16" height="16" fill="white"/>
</clipPath>
</defs>
</svg>
