<svg width="16" height="16" viewBox="0 0 16 16" fill="none" xmlns="http://www.w3.org/2000/svg">
<g clip-path="url(#clip0_3289_16962)">
<path d="M4.33337 1C4.70156 1 5.00004 1.29848 5.00004 1.66667V3.33333H6.66801C7.0362 3.33333 7.33468 3.63181 7.33468 4C7.33468 4.36819 7.0362 4.66667 6.66801 4.66667H5.00004V6.33333C5.00004 6.70152 4.70156 7 4.33337 7C3.96518 7 3.66671 6.70152 3.66671 6.33333V4.66667H2.00134C1.63315 4.66667 1.33468 4.36819 1.33468 4C1.33468 3.63181 1.63315 3.33333 2.00134 3.33333H3.66671V1.66667C3.66671 1.29848 3.96518 1 4.33337 1ZM9.33207 3.33333C8.96388 3.33333 8.6654 3.63181 8.6654 4C8.6654 4.36819 8.96388 4.66667 9.33207 4.66667H13.9987C14.3669 4.66667 14.6654 4.36819 14.6654 4C14.6654 3.63181 14.3669 3.33333 13.9987 3.33333H9.33207ZM8.66671 11.6667C8.66671 11.2985 8.96518 11 9.33337 11H14C14.3682 11 14.6667 11.2985 14.6667 11.6667C14.6667 12.0349 14.3682 12.3333 14 12.3333H9.33337C8.96518 12.3333 8.66671 12.0349 8.66671 11.6667ZM11.6667 10.3333C12.1269 10.3333 12.5 9.96024 12.5 9.5C12.5 9.03976 12.1269 8.66667 11.6667 8.66667C11.2065 8.66667 10.8334 9.03976 10.8334 9.5C10.8334 9.96024 11.2065 10.3333 11.6667 10.3333ZM12.5 13.8333C12.5 14.2936 12.1269 14.6667 11.6667 14.6667C11.2065 14.6667 10.8334 14.2936 10.8334 13.8333C10.8334 13.3731 11.2065 13 11.6667 13C12.1269 13 12.5 13.3731 12.5 13.8333ZM1.52864 8.86193C1.78899 8.60158 2.2111 8.60158 2.47145 8.86193L4.33338 10.7239L6.19531 8.86193C6.45566 8.60158 6.87777 8.60158 7.13812 8.86193C7.39847 9.12228 7.39847 9.54439 7.13812 9.80474L5.27619 11.6667L7.13811 13.5286C7.39846 13.7889 7.39846 14.2111 7.13811 14.4714C6.87776 14.7318 6.45565 14.7318 6.1953 14.4714L4.33338 12.6095L2.47145 14.4714C2.2111 14.7318 1.78899 14.7318 1.52865 14.4714C1.2683 14.2111 1.2683 13.7889 1.52865 13.5286L3.39057 11.6667L1.52864 9.80474C1.26829 9.54439 1.26829 9.12228 1.52864 8.86193Z" fill="#18202A"/>
</g>
<defs>
<clipPath id="clip0_3289_16962">
<rect width="16" height="16" fill="white"/>
</clipPath>
</defs>
</svg>
