<svg width="16" height="16" viewBox="0 0 16 16" fill="none" xmlns="http://www.w3.org/2000/svg">
<g clip-path="url(#clip0_2266_37891)">
<path fill-rule="evenodd" clip-rule="evenodd" d="M10.6667 3.58366C10.6667 5.66699 9.77778 7.33366 8 7.33366C6.22222 7.33366 5.33333 5.66699 5.33333 3.58366C5.33333 1.91699 6.22222 0.666992 8 0.666992C9.77778 0.666992 10.6667 1.91699 10.6667 3.58366ZM10.0094 8.97514C9.3753 8.77495 8.70027 8.66699 8.00003 8.66699C6.3367 8.66699 4.81564 9.27614 3.64778 10.2835C2.75796 11.0511 2.58063 12.3412 3.10211 13.3943L3.13324 13.4567C3.51047 14.206 4.19926 14.7504 5.01195 14.9587C5.81226 15.1638 6.6448 15.2884 7.50045 15.3234C7.39219 15.0136 7.33333 14.6805 7.33333 14.3337V13.667C7.33333 12.2652 8.29481 11.0879 9.59429 10.7587C9.63644 10.748 9.66667 10.7105 9.66667 10.667C9.66667 10.0667 9.78873 9.49494 10.0094 8.97514ZM9.66667 12.0003C9.11438 12.0003 8.66667 12.448 8.66667 13.0003V15.0003C8.66667 15.5526 9.11438 16.0003 9.66667 16.0003H13C13.5523 16.0003 14 15.5526 14 15.0003V13.0003C14 12.5641 13.7206 12.193 13.331 12.0564C13.3325 12.0379 13.3333 12.0192 13.3333 12.0003V10.667C13.3333 10.2988 13.6318 10.0003 14 10.0003C14.3682 10.0003 14.6667 10.2988 14.6667 10.667V11.5559C14.6667 11.9241 14.9651 12.2225 15.3333 12.2225C15.7015 12.2225 16 11.9241 16 11.5559V10.667C16 9.56242 15.1046 8.66699 14 8.66699C12.8954 8.66699 12 9.56242 12 10.667V12.0003H9.66667ZM12 13.667C12 13.2988 11.7015 13.0003 11.3333 13.0003C10.9651 13.0003 10.6667 13.2988 10.6667 13.667V14.3337C10.6667 14.7018 10.9651 15.0003 11.3333 15.0003C11.7015 15.0003 12 14.7018 12 14.3337V13.667Z" fill="#18202A"/>
</g>
<defs>
<clipPath id="clip0_2266_37891">
<rect width="16" height="16" fill="white"/>
</clipPath>
</defs>
</svg>
