<svg width="16" height="16" viewBox="0 0 16 16" fill="none" xmlns="http://www.w3.org/2000/svg">
<g clip-path="url(#clip0_2266_37319)">
<path d="M2.81652 2.78268L7.96813 1.40231C9.03506 1.11643 10.1317 1.74959 10.4176 2.81652L10.6916 3.83915L12.1051 3.96282L11.7055 2.47143C11.229 0.69321 9.40125 -0.362065 7.62303 0.114408L2.47143 1.49478C0.69321 1.97125 -0.362065 3.79904 0.114408 5.57726L1.49478 10.7289C1.79577 11.8522 2.63604 12.687 3.66241 13.0295C3.57228 12.6755 3.53925 12.3006 3.57288 11.9161L3.60656 11.5312C3.21545 11.2712 2.91379 10.8731 2.78268 10.3838L1.40231 5.23217C1.11643 4.16523 1.74959 3.06856 2.81652 2.78268Z" fill="#18202A"/>
<path d="M8.20686 7.02915C8.19082 7.21255 8.02914 7.34821 7.84575 7.33216C7.66235 7.31612 7.52669 7.15444 7.54273 6.97105C7.55878 6.78765 7.72046 6.65199 7.90385 6.66803C8.08724 6.68408 8.22291 6.84576 8.20686 7.02915Z" fill="#18202A"/>
<path fill-rule="evenodd" clip-rule="evenodd" d="M3.66241 13.0295C3.63988 12.941 3.62092 12.8512 3.60567 12.7603C3.56078 12.4925 3.54812 12.215 3.57153 11.9321L3.57288 11.9161L4.03771 6.60307C4.19816 4.76913 5.81494 3.41249 7.64888 3.57294L12.9619 4.03777C14.7959 4.19822 16.1525 5.815 15.992 7.64894L15.5272 12.962C15.3668 14.7959 13.75 16.1526 11.9161 15.9921L6.60301 15.5273C5.15354 15.4005 4.00222 14.3639 3.66241 13.0295ZM7.72954 8.66042C8.64651 8.74065 9.4549 8.06233 9.53512 7.14536C9.61535 6.22839 8.93703 5.42 8.02006 5.33978C7.10308 5.25955 6.2947 5.93787 6.21447 6.85484C6.13425 7.77181 6.81257 8.5802 7.72954 8.66042ZM15.6082 12.0013L12.4053 8.15491L9.00163 10.6111L7.41898 9.3561L4 11.8447L4.78466 12.9227L7.38445 11.0304L8.96372 12.2827L12.1768 9.9641L14.5836 12.8545L15.6082 12.0013Z" fill="#18202A"/>
<path fill-rule="evenodd" clip-rule="evenodd" d="M12.8457 5.36603L7.53267 4.9012C6.43231 4.80493 5.46224 5.61891 5.36597 6.71928L4.90114 12.0323C4.80487 13.1327 5.61885 14.1027 6.71922 14.199L12.0323 14.6639C13.1326 14.7601 14.1027 13.9461 14.199 12.8458L14.6638 7.53273C14.7601 6.43237 13.9461 5.4623 12.8457 5.36603ZM7.64888 3.57294C5.81494 3.41249 4.19816 4.76913 4.03771 6.60307L3.57288 11.9161C3.41243 13.7501 4.76907 15.3668 6.60301 15.5273L11.9161 15.9921C13.75 16.1526 15.3668 14.7959 15.5272 12.962L15.992 7.64894C16.1525 5.815 14.7959 4.19822 12.9619 4.03777L7.64888 3.57294Z" fill="#18202A"/>
</g>
<defs>
<clipPath id="clip0_2266_37319">
<rect width="16" height="16" fill="white"/>
</clipPath>
</defs>
</svg>
