<svg width="16" height="16" viewBox="0 0 16 16" fill="none" xmlns="http://www.w3.org/2000/svg">
<path fill-rule="evenodd" clip-rule="evenodd" d="M10.2762 2.33332C9.85617 1.91334 9.13808 2.21079 9.13808 2.80472V5.00385C7.32927 5.04619 5.3903 5.44443 3.86776 6.61943C2.23498 7.87951 1.13808 9.98792 1.13808 13.3333C1.13808 13.4837 1.23883 13.6155 1.38399 13.655C1.52915 13.6944 1.68274 13.6318 1.75889 13.5021C2.65444 11.9763 3.36553 11.0473 4.42894 10.4771C5.45278 9.92807 6.84623 9.68873 9.13808 9.66812V11.8619C9.13808 12.4559 9.85618 12.7533 10.2762 12.3333L14.8047 7.80472C15.0651 7.54437 15.0651 7.12226 14.8047 6.86191L10.2762 2.33332Z" fill="#18202A"/>
</svg>
