<svg width="16" height="16" viewBox="0 0 16 16" fill="none" xmlns="http://www.w3.org/2000/svg">
<g clip-path="url(#clip0_2266_40740)">
<path fill-rule="evenodd" clip-rule="evenodd" d="M9.99999 1.66699H3.33332C2.41285 1.66699 1.66666 2.41318 1.66666 3.33366V10.0003C1.66666 10.9208 2.41285 11.667 3.33332 11.667V6.00033C3.33332 4.52757 4.52723 3.33366 5.99999 3.33366L11.6667 3.33366C11.6667 2.41318 10.9205 1.66699 9.99999 1.66699ZM3.33332 12.667C1.86056 12.667 0.666656 11.4731 0.666656 10.0003V3.33366C0.666656 1.8609 1.86056 0.666992 3.33332 0.666992H9.99999C11.4727 0.666992 12.6667 1.8609 12.6667 3.33366C14.1394 3.33366 15.3333 4.52757 15.3333 6.00033V12.667C15.3333 14.1398 14.1394 15.3337 12.6667 15.3337H5.99999C4.52723 15.3337 3.33332 14.1398 3.33332 12.667ZM5.99999 4.33366H12.6667C13.5871 4.33366 14.3333 5.07985 14.3333 6.00033V12.667C14.3333 13.5875 13.5871 14.3337 12.6667 14.3337H5.99999C5.07951 14.3337 4.33332 13.5875 4.33332 12.667V6.00033C4.33332 5.07985 5.07952 4.33366 5.99999 4.33366Z" fill="#18202A"/>
</g>
<defs>
<clipPath id="clip0_2266_40740">
<rect width="16" height="16" fill="white"/>
</clipPath>
</defs>
</svg>
