<svg width="16" height="16" viewBox="0 0 16 16" fill="none" xmlns="http://www.w3.org/2000/svg">
<path fill-rule="evenodd" clip-rule="evenodd" d="M12.6406 14.6667H3.35942C1.30501 14.6667 0.0222049 12.4413 1.05183 10.6635L5.69243 2.65099C6.71963 0.877404 9.28039 0.877405 10.3076 2.65099L14.9482 10.6635C15.9778 12.4413 14.695 14.6667 12.6406 14.6667ZM8.66667 5.33333C8.66667 4.96514 8.36819 4.66667 8 4.66667C7.63181 4.66667 7.33333 4.96514 7.33333 5.33333V8.66667C7.33333 9.03486 7.63181 9.33333 8 9.33333C8.36819 9.33333 8.66667 9.03486 8.66667 8.66667V5.33333ZM8 10.6667C7.63181 10.6667 7.33333 10.9651 7.33333 11.3333C7.33333 11.7015 7.63181 12 8 12H8.00667C8.37486 12 8.67333 11.7015 8.67333 11.3333C8.67333 10.9651 8.37486 10.6667 8.00667 10.6667H8Z" fill="#18202A"/>
</svg>
