<svg width="16" height="16" viewBox="0 0 16 16" fill="none" xmlns="http://www.w3.org/2000/svg">
<path fill-rule="evenodd" clip-rule="evenodd" d="M1.33337 3.33337C1.33337 2.2288 2.2288 1.33337 3.33337 1.33337H5.33337C6.43794 1.33337 7.33337 2.2288 7.33337 3.33337V5.33337C7.33337 6.43794 6.43794 7.33337 5.33337 7.33337H3.33337C2.2288 7.33337 1.33337 6.43794 1.33337 5.33337V3.33337ZM2.33337 3.33337C2.33337 2.78109 2.78109 2.33337 3.33337 2.33337H5.33337C5.88566 2.33337 6.33337 2.78109 6.33337 3.33337V5.33337C6.33337 5.88566 5.88566 6.33337 5.33337 6.33337H3.33337C2.78109 6.33337 2.33337 5.88566 2.33337 5.33337V3.33337Z" fill="#18202A"/>
<path fill-rule="evenodd" clip-rule="evenodd" d="M1.33337 10.6667C1.33337 9.56214 2.2288 8.66671 3.33337 8.66671H5.33337C6.43794 8.66671 7.33337 9.56214 7.33337 10.6667V12.6667C7.33337 13.7713 6.43794 14.6667 5.33337 14.6667H3.33337C2.2288 14.6667 1.33337 13.7713 1.33337 12.6667V10.6667ZM2.33337 10.6667C2.33337 10.1144 2.78109 9.66671 3.33337 9.66671H5.33337C5.88566 9.66671 6.33337 10.1144 6.33337 10.6667V12.6667C6.33337 13.219 5.88566 13.6667 5.33337 13.6667H3.33337C2.78109 13.6667 2.33337 13.219 2.33337 12.6667V10.6667Z" fill="#18202A"/>
<path fill-rule="evenodd" clip-rule="evenodd" d="M10.6667 1.33337C9.56214 1.33337 8.66671 2.2288 8.66671 3.33337V5.33337C8.66671 6.43794 9.56214 7.33337 10.6667 7.33337H12.6667C13.7713 7.33337 14.6667 6.43794 14.6667 5.33337V3.33337C14.6667 2.2288 13.7713 1.33337 12.6667 1.33337H10.6667ZM13.6667 3.33337C13.6667 2.78109 13.219 2.33337 12.6667 2.33337H10.6667C10.1144 2.33337 9.66671 2.78109 9.66671 3.33337V5.33337C9.66671 5.88566 10.1144 6.33337 10.6667 6.33337H12.6667C13.219 6.33337 13.6667 5.88566 13.6667 5.33337V3.33337Z" fill="#18202A"/>
<path fill-rule="evenodd" clip-rule="evenodd" d="M8.66671 10.6667C8.66671 9.56214 9.56214 8.66671 10.6667 8.66671H12.6667C13.7713 8.66671 14.6667 9.56214 14.6667 10.6667V12.6667C14.6667 13.7713 13.7713 14.6667 12.6667 14.6667H10.6667C9.56214 14.6667 8.66671 13.7713 8.66671 12.6667V10.6667ZM9.66671 10.6667C9.66671 10.1144 10.1144 9.66671 10.6667 9.66671H12.6667C13.219 9.66671 13.6667 10.1144 13.6667 10.6667V12.6667C13.6667 13.219 13.219 13.6667 12.6667 13.6667H10.6667C10.1144 13.6667 9.66671 13.219 9.66671 12.6667V10.6667Z" fill="#18202A"/>
</svg>
