<svg width="16" height="16" viewBox="0 0 16 16" fill="none" xmlns="http://www.w3.org/2000/svg">
<path fill-rule="evenodd" clip-rule="evenodd" d="M3.35941 13.6667H12.6406C13.9246 13.6667 14.7264 12.2758 14.0828 11.1647L9.44224 3.15217C8.80024 2.04368 7.19976 2.04368 6.55776 3.15217L1.91717 11.1647C1.27365 12.2758 2.0754 13.6667 3.35941 13.6667ZM12.6406 14.6667H3.35941C1.305 14.6667 0.0221949 12.4413 1.05182 10.6635L5.69242 2.65099C6.71962 0.877404 9.28038 0.877405 10.3076 2.65099L14.9482 10.6635C15.9778 12.4413 14.695 14.6667 12.6406 14.6667Z" fill="#18202A"/>
<path fill-rule="evenodd" clip-rule="evenodd" d="M8 4.83333C8.27614 4.83333 8.5 5.05719 8.5 5.33333V8.66666C8.5 8.9428 8.27614 9.16666 8 9.16666C7.72386 9.16666 7.5 8.9428 7.5 8.66666V5.33333C7.5 5.05719 7.72386 4.83333 8 4.83333Z" fill="#18202A"/>
<path fill-rule="evenodd" clip-rule="evenodd" d="M7.5 11.3333C7.5 11.0572 7.72386 10.8333 8 10.8333H8.00667C8.28281 10.8333 8.50667 11.0572 8.50667 11.3333C8.50667 11.6095 8.28281 11.8333 8.00667 11.8333H8C7.72386 11.8333 7.5 11.6095 7.5 11.3333Z" fill="#18202A"/>
</svg>
