<svg width="16" height="16" viewBox="0 0 16 16" fill="none" xmlns="http://www.w3.org/2000/svg">
<path fill-rule="evenodd" clip-rule="evenodd" d="M10.6667 3.58366C10.6667 5.66699 9.77777 7.33366 7.99999 7.33366C6.22221 7.33366 5.33332 5.66699 5.33332 3.58366C5.33332 1.91699 6.22221 0.666992 7.99999 0.666992C9.77777 0.666992 10.6667 1.91699 10.6667 3.58366ZM9.66666 3.58366C9.66666 4.5024 9.46777 5.22838 9.164 5.69116C8.88715 6.11292 8.52169 6.33366 7.99999 6.33366C7.47829 6.33366 7.11283 6.11292 6.83598 5.69116C6.53221 5.22838 6.33332 4.5024 6.33332 3.58366C6.33332 2.9171 6.51135 2.44163 6.76068 2.14944C6.99073 1.87985 7.364 1.66699 7.99999 1.66699C8.63598 1.66699 9.00925 1.87985 9.2393 2.14944C9.48863 2.44163 9.66666 2.9171 9.66666 3.58366ZM7.53139 14.3239C7.70628 14.6846 7.92062 15.0227 8.16881 15.3325C8.11263 15.3333 8.05635 15.3337 7.99999 15.3337C6.96839 15.3337 5.9672 15.2035 5.01194 14.9587C4.19924 14.7504 3.51045 14.206 3.13322 13.4567C3.0214 13.2345 2.91712 13.008 2.82071 12.7773C2.41103 11.7971 2.5743 10.6503 3.33287 9.90649C4.53541 8.72739 6.18279 8.00033 7.99999 8.00033C8.25625 8.00033 8.50913 8.01478 8.75786 8.04293C8.4431 8.3275 8.16244 8.64909 7.92276 9.00084C6.40844 9.02103 5.03909 9.63403 4.03298 10.6205C3.60375 11.0414 3.47042 11.7386 3.74336 12.3917C3.83068 12.6006 3.92514 12.8058 4.02644 13.007C4.27065 13.4922 4.72062 13.8517 5.26019 13.99C5.98998 14.177 6.74969 14.2912 7.53139 14.3239ZM12.2052 8.00033C11.7228 8.00033 11.3091 8.34479 11.2218 8.81928L11.2058 8.9063C10.8058 9.04452 10.4409 9.25812 10.1283 9.53011L10.0431 9.49982C9.58846 9.33823 9.08331 9.52424 8.84208 9.94206L8.7748 10.0586C8.53357 10.4764 8.62505 11.0069 8.99229 11.3198L9.06138 11.3787C9.02267 11.5799 9.00241 11.7878 9.00241 12.0003C9.00241 12.2129 9.02268 12.4207 9.06138 12.622L8.9923 12.6809C8.62506 12.9938 8.53358 13.5242 8.7748 13.9421L8.84209 14.0586C9.08332 14.4764 9.58847 14.6624 10.0431 14.5008L10.1283 14.4706C10.441 14.7425 10.8058 14.9561 11.2058 15.0943L11.2218 15.1814C11.3091 15.6559 11.7228 16.0003 12.2052 16.0003H12.3398C12.8223 16.0003 13.2359 15.6559 13.3233 15.1814L13.339 15.0963C13.7405 14.9583 14.1067 14.7445 14.4205 14.4719L14.502 14.5008C14.9566 14.6624 15.4618 14.4764 15.703 14.0586L15.7703 13.9421C16.0115 13.5242 15.92 12.9938 15.5528 12.6809L15.4882 12.6258C15.5273 12.4233 15.5479 12.2142 15.5479 12.0003C15.5479 11.7864 15.5273 11.5773 15.4882 11.3749L15.5528 11.3198C15.92 11.0069 16.0115 10.4764 15.7703 10.0586L15.703 9.94206C15.4618 9.52424 14.9566 9.33823 14.502 9.49982L14.4205 9.5288C14.1067 9.25618 13.7405 9.04232 13.339 8.90438L13.3233 8.81928C13.2359 8.34479 12.8223 8.00033 12.3398 8.00033H12.2052ZM12.2721 13.3337C13.0085 13.3337 13.6054 12.7367 13.6054 12.0003C13.6054 11.2639 13.0085 10.667 12.2721 10.667C11.5357 10.667 10.9388 11.2639 10.9388 12.0003C10.9388 12.7367 11.5357 13.3337 12.2721 13.3337Z" fill="#18202A"/>
</svg>
