<svg width="16" height="16" viewBox="0 0 16 16" fill="none" xmlns="http://www.w3.org/2000/svg">
<g clip-path="url(#clip0_2266_36581)">
<path fill-rule="evenodd" clip-rule="evenodd" d="M0.845244 0.845076C1.10583 0.584495 1.55618 0.612366 1.85114 0.907328L13.7592 12.8154C14.0541 13.1103 14.082 13.5607 13.8214 13.8213C13.5609 14.0818 13.1105 14.054 12.8155 13.759L0.907495 1.85098C0.612533 1.55601 0.584662 1.10566 0.845244 0.845076Z" fill="#18202A"/>
<path d="M13.6741 10.8485C14.6513 9.14596 15.3333 6.78183 15.3333 3.42828C15.3337 3.07463 15.0946 2.762 14.7442 2.65638L8.25027 0.70308L8.15132 0.679671C8.01806 0.656263 7.88041 0.664066 7.75007 0.70308L4.50478 1.67922L5.57503 2.74947L8.00067 2.01984L13.996 3.82384L13.991 4.07347C13.9229 6.48463 13.4694 8.38028 12.6931 9.86756L13.6741 10.8485Z" fill="#18202A"/>
<path d="M12.9159 11.9759L11.965 11.0251C11.8897 11.1252 11.8125 11.223 11.7334 11.3185L11.6017 11.4743C10.6786 12.5423 9.73237 13.1492 8.05121 13.9295L8 13.9525L7.71242 13.8187C6.10002 13.0533 5.18891 12.4317 4.26653 11.3183L4.13665 11.1573C2.85533 9.52574 2.09857 7.24585 2.00898 4.0745L2.00333 3.82384L4.12545 3.1855L3.05519 2.11524L1.25611 2.65638L1.17091 2.68693C0.867546 2.81406 0.666667 3.1038 0.666667 3.42828C0.666667 11.6753 4.79128 13.9384 7.28798 15.0939L7.64107 15.2556C7.75473 15.3073 7.87747 15.3332 8.0002 15.3332C8.12287 15.3332 8.24527 15.3073 8.3586 15.2556C9.62188 14.6803 11.4487 13.8479 12.9159 11.9759Z" fill="#18202A"/>
<path d="M5.18524 4.2453L3.33333 4.8025L3.3434 4.95189C3.52666 7.35304 4.15746 9.07643 5.12965 10.3207L5.24795 10.4677C5.89849 11.253 6.55305 11.7536 7.61167 12.3037L7.95467 12.4765L8.07899 12.4152C9.2024 11.8526 9.88823 11.3628 10.5456 10.6045L10.6614 10.4678C10.7733 10.3327 10.881 10.1917 10.9844 10.0444L5.18524 4.2453Z" fill="#18202A"/>
<path d="M11.6657 8.84016C12.1365 7.79548 12.4464 6.51738 12.5659 4.95043L12.5753 4.80184L7.95533 3.41184L6.63474 3.80918L11.6657 8.84016Z" fill="#18202A"/>
</g>
<defs>
<clipPath id="clip0_2266_36581">
<rect width="16" height="16" fill="white"/>
</clipPath>
</defs>
</svg>
