<svg width="16" height="16" viewBox="0 0 16 16" fill="none" xmlns="http://www.w3.org/2000/svg">
<g clip-path="url(#clip0_3240_8968)">
<path d="M2.74962 11.1257L2.03073 11.8446C1.79045 11.5188 1.60588 11.1435 1.49478 10.7289L0.114408 5.57726C-0.362065 3.79904 0.69321 1.97125 2.47143 1.49478L7.62303 0.114408C9.32287 -0.341063 11.068 0.603157 11.6348 2.24057L10.8253 3.05004L10.7396 2.73025C10.4061 1.4855 9.12661 0.746803 7.88185 1.08033L2.73025 2.4607C1.48549 2.79423 0.746803 4.07369 1.08033 5.31844L2.4607 10.47C2.52459 10.7085 2.6232 10.9284 2.74962 11.1257Z" fill="#18202A"/>
<path fill-rule="evenodd" clip-rule="evenodd" d="M15.186 1.52542L12.6969 4.01453L12.9619 4.03772C14.7959 4.19817 16.1525 5.81494 15.992 7.64888L15.5272 12.9619C15.3668 14.7959 13.75 16.1525 11.916 15.9921L6.60301 15.5272C5.15917 15.4009 4.01118 14.372 3.66641 13.045L1.52543 15.186C1.32898 15.3824 1.01047 15.3824 0.814016 15.186C0.617564 14.9895 0.617564 14.671 0.814016 14.4746L14.4746 0.814006C14.671 0.617554 14.9896 0.617554 15.186 0.814006C15.3825 1.01046 15.3825 1.32897 15.186 1.52542ZM7.20124 9.82005L6.06249 10.6489L7.79509 8.91634C8.59176 8.85319 9.24973 8.22265 9.3217 7.40004L9.32265 7.38878L11.7738 4.93759L12.8748 5.03391C14.1585 5.14622 15.1082 6.27797 14.9959 7.56173L14.6415 11.6118L12.1634 8.63573L8.78347 11.0747L7.20124 9.82005ZM4.66574 12.9025L7.17534 11.0758L8.75504 12.3284L11.9919 9.99262L14.4982 13.0025L14.5187 12.9854C14.353 14.2126 13.2498 15.1049 12.0032 14.9959L6.69017 14.531C5.71939 14.4461 4.93967 13.7782 4.66574 12.9025Z" fill="#18202A"/>
<path d="M6.08325 7.79208L8.19865 5.67668C8.07441 5.63449 7.94317 5.6064 7.80663 5.59446C6.88966 5.51423 6.08127 6.19255 6.00105 7.10952C5.98018 7.34802 6.01063 7.57917 6.08325 7.79208Z" fill="#18202A"/>
<path d="M5.03391 6.69017L4.82765 9.04767L3.72759 10.1477L4.03771 6.60301C4.19816 4.76907 5.81494 3.41244 7.64888 3.57289L10.089 3.78636L9.1659 4.70943L7.56173 4.56908C6.27797 4.45677 5.14622 5.40641 5.03391 6.69017Z" fill="#18202A"/>
</g>
<defs>
<clipPath id="clip0_3240_8968">
<rect width="16" height="16" fill="white"/>
</clipPath>
</defs>
</svg>
