<svg width="16" height="16" viewBox="0 0 16 16" fill="none" xmlns="http://www.w3.org/2000/svg">
<path fill-rule="evenodd" clip-rule="evenodd" d="M10.0696 2.98522C10.2351 3.18862 10.4714 3.33366 10.7336 3.33366C11.2406 3.33366 11.5894 2.82853 11.303 2.41019C10.5825 1.35763 9.37188 0.666992 8 0.666992C5.79086 0.666992 4 2.45785 4 4.66699V5.33366C2.52724 5.33366 1.33333 6.52757 1.33333 8.00033V12.667C1.33333 14.1398 2.52724 15.3337 4 15.3337H12C13.4728 15.3337 14.6667 14.1398 14.6667 12.667V8.00033C14.6667 6.52757 13.4728 5.33366 12 5.33366H5.33333V4.66699C5.33333 3.19423 6.52724 2.00033 8 2.00033C8.83515 2.00033 9.58063 2.38424 10.0696 2.98522ZM11.1381 8.19559C11.3984 8.45594 11.3984 8.87805 11.1381 9.1384L7.80474 12.4717C7.54439 12.7321 7.12228 12.7321 6.86193 12.4717L5.52859 11.1384C5.26825 10.878 5.26825 10.4559 5.52859 10.1956C5.78894 9.93524 6.21105 9.93524 6.4714 10.1956L7.33333 11.0575L10.1953 8.19559C10.4556 7.93524 10.8777 7.93524 11.1381 8.19559Z" fill="#18202A"/>
</svg>
