<svg width="16" height="16" viewBox="0 0 16 16" fill="none" xmlns="http://www.w3.org/2000/svg">
<g clip-path="url(#clip0_2266_40223)">
<path fill-rule="evenodd" clip-rule="evenodd" d="M7.99999 14.3333C4.50219 14.3333 1.66666 11.4978 1.66666 7.99996C1.66666 4.50216 4.50219 1.66663 7.99999 1.66663C11.4978 1.66663 14.3333 4.50216 14.3333 7.99996C14.3333 11.4978 11.4978 14.3333 7.99999 14.3333ZM7.99999 15.3333C3.9499 15.3333 0.666656 12.05 0.666656 7.99996C0.666656 3.94987 3.9499 0.666626 7.99999 0.666626C12.0501 0.666626 15.3333 3.94987 15.3333 7.99996C15.3333 12.05 12.0501 15.3333 7.99999 15.3333Z" fill="#18202A"/>
<path fill-rule="evenodd" clip-rule="evenodd" d="M9.02021 4.97974C8.82495 4.78448 8.50837 4.78448 8.3131 4.97974L5.64644 7.64641C5.45117 7.84167 5.45117 8.15825 5.64644 8.35351L8.3131 11.0202C8.50837 11.2154 8.82495 11.2154 9.02021 11.0202C9.21547 10.8249 9.21547 10.5083 9.02021 10.3131L6.7071 7.99996L9.02021 5.68685C9.21547 5.49158 9.21547 5.175 9.02021 4.97974Z" fill="#18202A"/>
</g>
<defs>
<clipPath id="clip0_2266_40223">
<rect width="16" height="16" fill="white"/>
</clipPath>
</defs>
</svg>
