<svg width="16" height="16" viewBox="0 0 16 16" fill="none" xmlns="http://www.w3.org/2000/svg">
<g clip-path="url(#clip0_2266_36758)">
<path d="M5.33333 3.99984H14.7045C15.2468 3.99984 15.5622 4.61275 15.247 5.054L12.9434 8.27901C12.7779 8.51081 12.7779 8.8222 12.9434 9.054L15.247 12.279C15.5622 12.7203 15.2468 13.3332 14.7045 13.3332H6.66667C5.93029 13.3332 5.33333 12.7362 5.33333 11.9998V3.99984Z" fill="#18202A"/>
<path d="M0.666667 1.99984H8C9.10457 1.99984 10 2.89527 10 3.99984V9.33317C10 10.0696 9.40305 10.6665 8.66667 10.6665H0.666667V1.99984Z" fill="#18202A"/>
<path d="M0.666667 1.33317C0.666667 0.964981 0.965143 0.666504 1.33333 0.666504C1.70152 0.666504 2 0.964981 2 1.33317V14.6665C2 15.0347 1.70152 15.3332 1.33333 15.3332C0.965143 15.3332 0.666667 15.0347 0.666667 14.6665V1.33317Z" fill="#18202A"/>
</g>
<defs>
<clipPath id="clip0_2266_36758">
<rect width="16" height="16" fill="white"/>
</clipPath>
</defs>
</svg>
