<svg width="16" height="16" viewBox="0 0 16 16" fill="none" xmlns="http://www.w3.org/2000/svg">
<g clip-path="url(#clip0_3626_8960)">
<g clip-path="url(#clip1_3626_8960)">
<path d="M12.6666 9.84155L14 11.1749V2.66699C14 1.56242 13.1045 0.666992 12 0.666992H3.99996C3.84318 0.666992 3.69061 0.685032 3.54422 0.719149L10.6666 7.84155V3.72768C10.6666 3.1068 10.2381 2.5681 9.63311 2.42849L7.77774 2.00033H12C12.3681 2.00033 12.6666 2.2988 12.6666 2.66699V9.84155Z" fill="#18202A"/>
<path fill-rule="evenodd" clip-rule="evenodd" d="M1.06223 2.00641L1.99996 2.94412V12.4093C1.99996 13.3406 2.64278 14.1487 3.55024 14.3581L9.03348 15.6234C9.86897 15.8163 10.6666 15.1817 10.6666 14.3243V14.0003H12C12.3085 14.0003 12.6008 13.9304 12.8617 13.8057L13.9941 14.938C14.289 15.2329 14.7394 15.2608 15 15.0002C15.2605 14.7396 15.2327 14.2893 14.9377 13.9943L2.00588 1.06276C1.71092 0.767802 1.26056 0.739931 0.999983 1.00051C0.739402 1.26109 0.767273 1.71145 1.06223 2.00641ZM10.6666 11.6106L11.723 12.667H10.6666V11.6106ZM8.95684 9.90085L8.00096 8.945C8.0003 8.96331 7.99996 8.98176 7.99996 9.00033C7.99996 9.55261 8.29844 10.0003 8.66663 10.0003C8.77065 10.0003 8.86911 9.96459 8.95684 9.90085Z" fill="#18202A"/>
</g>
</g>
<defs>
<clipPath id="clip0_3626_8960">
<rect width="16" height="16" fill="white"/>
</clipPath>
<clipPath id="clip1_3626_8960">
<rect width="16" height="16" fill="white"/>
</clipPath>
</defs>
</svg>
