<svg width="16" height="16" viewBox="0 0 16 16" fill="none" xmlns="http://www.w3.org/2000/svg">
<g clip-path="url(#clip0_2266_37307)">
<path fill-rule="evenodd" clip-rule="evenodd" d="M4.66667 0.666748C2.45753 0.666748 0.666667 2.45761 0.666667 4.66675V11.3334C0.666667 13.5426 2.45753 15.3334 4.66667 15.3334H11.3333C13.5425 15.3334 15.3333 13.5426 15.3333 11.3334V4.66675C15.3333 2.45761 13.5425 0.666748 11.3333 0.666748H4.66667ZM8 5.33342C8 6.43798 7.10457 7.33342 6 7.33342C4.89543 7.33342 4 6.43798 4 5.33342C4 4.22885 4.89543 3.33341 6 3.33341C7.10457 3.33341 8 4.22885 8 5.33342ZM11 7.33342L14 11.1516V11.3334C14 12.8062 12.8061 14.0001 11.3333 14.0001H4.66667C3.74819 14.0001 2.93818 13.5357 2.45856 12.829L5.33333 9.66675L7.33333 11.3334L11 7.33342Z" fill="#18202A"/>
</g>
<defs>
<clipPath id="clip0_2266_37307">
<rect width="16" height="16" fill="white"/>
</clipPath>
</defs>
</svg>
