<svg width="16" height="16" viewBox="0 0 16 16" fill="none" xmlns="http://www.w3.org/2000/svg">
<path fill-rule="evenodd" clip-rule="evenodd" d="M5.66667 0.666626C5.11438 0.666626 4.66667 1.11434 4.66667 1.66663C4.66667 2.21891 5.11438 2.66663 5.66667 2.66663H10.3333C10.8856 2.66663 11.3333 2.21891 11.3333 1.66663C11.3333 1.11434 10.8856 0.666626 10.3333 0.666626H5.66667ZM3.33337 1.41728C2.18322 1.71331 1.33337 2.75737 1.33337 3.99993V12.6666C1.33337 14.1394 2.52728 15.3333 4.00004 15.3333H12C13.4728 15.3333 14.6667 14.1394 14.6667 12.6666V3.99993C14.6667 2.75737 13.8169 1.71331 12.6667 1.41728V1.99993C12.6667 3.1045 11.7713 3.99993 10.6667 3.99993H5.33337C4.2288 3.99993 3.33337 3.1045 3.33337 1.99993V1.41728ZM11.8048 6.19519C12.0651 6.45554 12.0651 6.87765 11.8048 7.138L7.13811 11.8047C6.87776 12.065 6.45565 12.065 6.1953 11.8047L4.1953 9.80467C3.93495 9.54432 3.93495 9.12221 4.1953 8.86186C4.45565 8.60151 4.87776 8.60151 5.13811 8.86186L6.66671 10.3905L10.862 6.19519C11.1223 5.93484 11.5444 5.93484 11.8048 6.19519Z" fill="#18202A"/>
</svg>
