<svg width="16" height="16" viewBox="0 0 16 16" fill="none" xmlns="http://www.w3.org/2000/svg">
<g clip-path="url(#clip0_3049_8506)">
<path d="M15.3333 3.33317C15.3333 4.80593 14.1394 5.99984 12.6666 5.99984C11.1939 5.99984 9.99996 4.80593 9.99996 3.33317C9.99996 1.86041 11.1939 0.666504 12.6666 0.666504C14.1394 0.666504 15.3333 1.86041 15.3333 3.33317Z" fill="#18202A"/>
<path d="M15.3333 7.16338C14.5774 7.69063 13.6581 7.99984 12.6666 7.99984C10.0893 7.99984 7.99996 5.9105 7.99996 3.33317C7.99996 2.61744 8.16109 1.93934 8.44905 1.33317H3.33329C1.86053 1.33317 0.666626 2.52708 0.666626 3.99984V9.99984C0.666626 11.4726 1.86053 12.6665 3.33329 12.6665H3.69693L3.31038 14.5152C3.19162 15.0832 3.8049 15.5212 4.30365 15.2247L8.60602 12.6665H12.6666C14.1394 12.6665 15.3333 11.4726 15.3333 9.99984V7.16338Z" fill="#18202A"/>
</g>
<defs>
<clipPath id="clip0_3049_8506">
<rect width="16" height="16" fill="white"/>
</clipPath>
</defs>
</svg>
