<svg width="16" height="16" viewBox="0 0 16 16" fill="none" xmlns="http://www.w3.org/2000/svg">
<path fill-rule="evenodd" clip-rule="evenodd" d="M3.33334 2.83301C3.60949 2.83301 3.83334 3.05687 3.83334 3.33301V5.33301C3.83334 7.266 5.40035 8.83301 7.33334 8.83301H12.1262L9.64646 6.35323C9.45119 6.15797 9.45119 5.84138 9.64646 5.64612C9.84172 5.45086 10.1583 5.45086 10.3536 5.64612L13.6869 8.97945C13.8822 9.17472 13.8822 9.4913 13.6869 9.68656L10.3536 13.0199C10.1583 13.2152 9.84172 13.2152 9.64646 13.0199C9.45119 12.8246 9.45119 12.508 9.64646 12.3128L12.1262 9.83301H7.33334C4.84806 9.83301 2.83334 7.81829 2.83334 5.33301V3.33301C2.83334 3.05687 3.0572 2.83301 3.33334 2.83301Z" fill="#18202A"/>
</svg>
