<svg width="16" height="16" viewBox="0 0 16 16" fill="none" xmlns="http://www.w3.org/2000/svg">
<path fill-rule="evenodd" clip-rule="evenodd" d="M8 8.00033C9.33333 8.00033 10 6.66699 10 5.00033C10 3.66699 9.33333 2.66699 8 2.66699C6.66667 2.66699 6 3.66699 6 5.00033C6 6.66699 6.66667 8.00033 8 8.00033ZM8.64834 6.60123C8.85281 6.26896 9 5.72068 9 5.00033C9 4.48618 8.87016 4.14714 8.71913 3.95835C8.59213 3.7996 8.39042 3.66699 8 3.66699C7.60958 3.66699 7.40787 3.7996 7.28087 3.95835C7.12984 4.14714 7 4.48618 7 5.00033C7 5.72068 7.14719 6.26896 7.35166 6.60123C7.53095 6.89258 7.7308 7.00033 8 7.00033C8.2692 7.00033 8.46905 6.89258 8.64834 6.60123Z" fill="#18202A"/>
<path fill-rule="evenodd" clip-rule="evenodd" d="M9.77934 14.536C10.6228 14.4106 11.351 13.8736 11.7056 13.098C11.8308 12.8244 11.9447 12.5445 12.0467 12.259C12.3958 11.2828 12.1037 10.169 11.2305 9.61004C10.298 9.01308 9.1894 8.66699 7.99999 8.66699C6.81059 8.66699 5.70202 9.01308 4.76949 9.61004C3.89633 10.169 3.60418 11.2828 3.95324 12.259C4.05533 12.5445 4.16923 12.8244 4.29437 13.098C4.64901 13.8736 5.37714 14.4106 6.22065 14.536C6.80123 14.6223 7.39539 14.667 7.99999 14.667C8.6046 14.667 9.19876 14.6223 9.77934 14.536ZM7.99999 13.667C8.55522 13.667 9.10024 13.6259 9.63232 13.5468C10.1487 13.4701 10.5855 13.143 10.7962 12.6822C10.9095 12.4343 11.0127 12.1808 11.1051 11.9223C11.3224 11.3148 11.1127 10.722 10.6914 10.4523C9.91496 9.95524 8.99267 9.66699 7.99999 9.66699C7.00732 9.66699 6.08503 9.95524 5.30863 10.4523C4.88729 10.722 4.67763 11.3148 4.89486 11.9223C4.9873 12.1808 5.09045 12.4343 5.2038 12.6822C5.41452 13.143 5.85132 13.4701 6.36767 13.5468C6.89975 13.6259 7.44476 13.667 7.99999 13.667Z" fill="#18202A"/>
<path fill-rule="evenodd" clip-rule="evenodd" d="M5.33333 6.41699C5.33333 7.66699 4.77778 8.66699 3.66667 8.66699C2.55556 8.66699 2 7.66699 2 6.41699C2 5.41699 2.55556 4.66699 3.66667 4.66699C4.77778 4.66699 5.33333 5.41699 5.33333 6.41699ZM4.33333 6.41699C4.33333 6.91226 4.22061 7.25704 4.09119 7.44631C3.98901 7.59574 3.8734 7.66699 3.66667 7.66699C3.45994 7.66699 3.34432 7.59574 3.24215 7.44631C3.11273 7.25704 3 6.91226 3 6.41699C3 6.0935 3.08935 5.91542 3.16408 5.83136C3.22317 5.76487 3.35013 5.66699 3.66667 5.66699C3.9832 5.66699 4.11016 5.76487 4.16926 5.83136C4.24398 5.91542 4.33333 6.0935 4.33333 6.41699Z" fill="#18202A"/>
<path fill-rule="evenodd" clip-rule="evenodd" d="M12.3333 8.66699C13.4444 8.66699 14 7.66699 14 6.41699C14 5.41699 13.4444 4.66699 12.3333 4.66699C11.2222 4.66699 10.6667 5.41699 10.6667 6.41699C10.6667 7.66699 11.2222 8.66699 12.3333 8.66699ZM12.7579 7.44631C12.8873 7.25704 13 6.91226 13 6.41699C13 6.0935 12.9107 5.91542 12.8359 5.83136C12.7768 5.76487 12.6499 5.66699 12.3333 5.66699C12.0168 5.66699 11.8898 5.76487 11.8307 5.83136C11.756 5.91542 11.6667 6.0935 11.6667 6.41699C11.6667 6.91226 11.7794 7.25704 11.9088 7.44631C12.011 7.59574 12.1266 7.66699 12.3333 7.66699C12.5401 7.66699 12.6557 7.59574 12.7579 7.44631Z" fill="#18202A"/>
<path d="M13.9823 13.2123C13.5612 13.2725 13.133 13.3108 12.6989 13.3261C12.8033 13.0867 12.8999 12.8431 12.9884 12.5957C13.0226 12.4999 13.0525 12.4027 13.078 12.3044C13.335 12.2858 13.5893 12.2583 13.8409 12.2224C14.179 12.174 14.4433 11.9487 14.5417 11.6445C14.6657 11.261 14.5005 10.9432 14.2858 10.8301C13.8975 10.6255 13.4743 10.4781 13.0266 10.3994C12.9012 10.0145 12.7026 9.65178 12.4286 9.33595C13.2657 9.36048 14.0545 9.57792 14.7519 9.94535C15.4658 10.3215 15.7414 11.1845 15.4931 11.9522C15.2739 12.6302 14.6877 13.1115 13.9823 13.2123Z" fill="#18202A"/>
<path d="M1.33847 9.83271C2.01768 9.51524 2.77484 9.3367 3.57337 9.33366C3.30381 9.64378 3.10703 9.99924 2.98097 10.3765C2.55036 10.4374 2.14102 10.5614 1.7619 10.7386C1.51712 10.853 1.32504 11.2027 1.46123 11.6267C1.56828 11.9599 1.8604 12.2043 2.23134 12.2501C2.46014 12.2784 2.69122 12.2996 2.92437 12.3136C2.94937 12.4088 2.97846 12.5029 3.01163 12.5957C3.10062 12.8445 3.1978 13.0895 3.30286 13.3302C2.89961 13.3205 2.50128 13.291 2.10882 13.2426C1.36306 13.1505 0.738968 12.6479 0.509148 11.9325C0.246477 11.1149 0.560427 10.1964 1.33847 9.83271Z" fill="#18202A"/>
</svg>
