<svg width="16" height="16" viewBox="0 0 16 16" fill="none" xmlns="http://www.w3.org/2000/svg">
<path fill-rule="evenodd" clip-rule="evenodd" d="M3.33337 2.6665C2.2288 2.6665 1.33337 3.56193 1.33337 4.6665V10.6665C1.33337 11.7711 2.2288 12.6665 3.33337 12.6665H7.50004V13.6665H6.00004C5.7239 13.6665 5.50004 13.8904 5.50004 14.1665C5.50004 14.4426 5.7239 14.6665 6.00004 14.6665H10C10.2762 14.6665 10.5 14.4426 10.5 14.1665C10.5 13.8904 10.2762 13.6665 10 13.6665H8.50004V12.6665H12.6667C13.7713 12.6665 14.6667 11.7711 14.6667 10.6665V4.6665C14.6667 3.56193 13.7713 2.6665 12.6667 2.6665H3.33337ZM13.6667 4.6665C13.6667 4.11422 13.219 3.6665 12.6667 3.6665H3.33337C2.78109 3.6665 2.33337 4.11422 2.33337 4.6665V9.33317H13.6667V4.6665ZM3.33337 11.6665C2.78109 11.6665 2.33337 11.2188 2.33337 10.6665V10.3332H13.6667V10.6665C13.6667 11.2188 13.219 11.6665 12.6667 11.6665H3.33337Z" fill="#18202A"/>
</svg>
