<svg width="16" height="16" viewBox="0 0 16 16" fill="none" xmlns="http://www.w3.org/2000/svg">
<g clip-path="url(#clip0_2266_37869)">
<path fill-rule="evenodd" clip-rule="evenodd" d="M0.666667 3.33366C0.666667 1.8609 1.86057 0.666992 3.33333 0.666992H10C10.987 0.666992 11.8488 1.20326 12.3099 2.00033H4.66667C3.19391 2.00033 2 3.19423 2 4.66699V12.3102C1.20293 11.8492 0.666667 10.9874 0.666667 10.0003V3.33366ZM6 3.33366C4.52724 3.33366 3.33333 4.52757 3.33333 6.00033V12.667C3.33333 14.1398 4.52724 15.3337 6 15.3337H12.6667C14.1394 15.3337 15.3333 14.1398 15.3333 12.667V6.00033C15.3333 4.52757 14.1394 3.33366 12.6667 3.33366H6Z" fill="#18202A"/>
</g>
<defs>
<clipPath id="clip0_2266_37869">
<rect width="16" height="16" fill="white"/>
</clipPath>
</defs>
</svg>
