<svg width="16" height="16" viewBox="0 0 16 16" fill="none" xmlns="http://www.w3.org/2000/svg">
<path fill-rule="evenodd" clip-rule="evenodd" d="M8 15.1663C8.27614 15.1663 8.5 14.9425 8.5 14.6663V7.87345L9.64645 9.01989C9.84171 9.21516 10.1583 9.21516 10.3536 9.01989C10.5488 8.82463 10.5488 8.50805 10.3536 8.31279L8.35355 6.31279C8.25979 6.21902 8.13261 6.16634 8 6.16634C7.86739 6.16634 7.74021 6.21902 7.64645 6.31279L5.64645 8.31279C5.45118 8.50805 5.45118 8.82463 5.64645 9.01989C5.84171 9.21516 6.15829 9.21516 6.35355 9.01989L7.5 7.87345V14.6663C7.5 14.9425 7.72386 15.1663 8 15.1663Z" fill="#18202A"/>
<path d="M11.5162 4.95584L11.7411 5.71496L12.5316 5.67016C12.5762 5.66763 12.6212 5.66634 12.6667 5.66634C13.9553 5.66634 15 6.71101 15 7.99967C15 9.28834 13.9553 10.333 12.6667 10.333H9.5V11.333H12.6667C14.5076 11.333 16 9.84062 16 7.99967C16 6.15872 14.5076 4.66634 12.6667 4.66634C12.6023 4.66634 12.5384 4.66816 12.475 4.67176C11.9031 2.74132 10.116 1.33301 8 1.33301C5.88401 1.33301 4.09694 2.74132 3.52498 4.67176C3.46155 4.66816 3.39766 4.66634 3.33333 4.66634C1.49238 4.66634 0 6.15872 0 7.99967C0 9.84062 1.49238 11.333 3.33333 11.333H6.5V10.333H3.33333C2.04467 10.333 1 9.28834 1 7.99967C1 6.71101 2.04467 5.66634 3.33333 5.66634C3.37876 5.66634 3.42379 5.66763 3.46838 5.67016L4.25886 5.71496L4.48378 4.95584C4.93338 3.43837 6.33891 2.33301 8 2.33301C9.66109 2.33301 11.0666 3.43837 11.5162 4.95584Z" fill="#18202A"/>
</svg>
