<svg width="16" height="16" viewBox="0 0 16 16" fill="none" xmlns="http://www.w3.org/2000/svg">
<path fill-rule="evenodd" clip-rule="evenodd" d="M13.1363 1.36864C12.6617 0.932799 12.0286 0.666748 11.3333 0.666748H4.66667C3.19391 0.666748 2 1.86066 2 3.33341V12.6667C2 14.1395 3.19391 15.3334 4.66667 15.3334H11.3333C12.8061 15.3334 14 14.1395 14 12.6667V6.16184L12.0809 8.08096C11.2998 8.86201 10.0335 8.86201 9.25245 8.08096L7.25245 6.08096C6.47141 5.29991 6.47141 4.03358 7.25245 3.25253C8.0335 2.47149 9.29983 2.47149 10.0809 3.25253L10.6667 3.83832L13.1363 1.36864ZM4 9.33342C4 8.96523 4.29848 8.66675 4.66667 8.66675H7.33333C7.70152 8.66675 8 8.96523 8 9.33342C8 9.7016 7.70152 10.0001 7.33333 10.0001H4.66667C4.29848 10.0001 4 9.7016 4 9.33342ZM4.66667 11.3334C4.29848 11.3334 4 11.6319 4 12.0001C4 12.3683 4.29848 12.6667 4.66667 12.6667H11.3333C11.7015 12.6667 12 12.3683 12 12.0001C12 11.6319 11.7015 11.3334 11.3333 11.3334H4.66667ZM15.1381 3.13815C15.3984 2.8778 15.3984 2.45569 15.1381 2.19534C14.8777 1.93499 14.4556 1.93499 14.1953 2.19534L10.6667 5.72394L9.13807 4.19534C8.87772 3.93499 8.45561 3.93499 8.19526 4.19534C7.93491 4.45569 7.93491 4.8778 8.19526 5.13815L10.1953 7.13815C10.4556 7.3985 10.8777 7.3985 11.1381 7.13815L15.1381 3.13815Z" fill="#18202A"/>
</svg>
