<svg width="16" height="16" viewBox="0 0 16 16" fill="none" xmlns="http://www.w3.org/2000/svg">
<path d="M4 7.33317C2.89543 7.33317 2 6.43774 2 5.33317V4.6665C2 3.56193 2.89543 2.6665 4 2.6665H4.66667C5.76192 2.6665 6.65155 3.54689 6.66648 4.6386C6.83354 6.83857 6.67246 8.78686 6.07313 10.216C5.76919 10.9408 5.3412 11.5587 4.76033 11.996C4.17238 12.4386 3.46652 12.6665 2.66667 12.6665C2.29848 12.6665 2 12.3681 2 11.9999C2 11.6317 2.29848 11.3332 2.66667 11.3332C3.20015 11.3332 3.61929 11.1861 3.95842 10.9308C4.30463 10.6702 4.60581 10.2673 4.84354 9.70038C4.90718 9.54862 4.98192 9.38647 5.00907 9.22357C5.15758 8.3325 4.98604 7.88291 4.81275 7.6663C4.64042 7.45088 4.35999 7.33317 4 7.33317Z" fill="#18202A"/>
<path d="M13.9998 4.6386C13.9849 3.54689 13.0953 2.6665 12 2.6665H11.3333C10.2288 2.6665 9.33333 3.56193 9.33333 4.6665V5.33317C9.33333 6.43774 10.2288 7.33317 11.3333 7.33317C11.6933 7.33317 11.9737 7.45088 12.1461 7.6663C12.3194 7.88291 12.4909 8.3325 12.3424 9.22357C12.3153 9.38647 12.2405 9.54862 12.1769 9.70038C11.9391 10.2673 11.638 10.6702 11.2918 10.9308C10.9526 11.1861 10.5335 11.3332 10 11.3332C9.63181 11.3332 9.33333 11.6317 9.33333 11.9999C9.33333 12.3681 9.63181 12.6665 10 12.6665C10.7999 12.6665 11.5057 12.4386 12.0937 11.996C12.6745 11.5587 13.1025 10.9408 13.4065 10.216C14.0058 8.78686 14.1669 6.83857 13.9998 4.6386Z" fill="#18202A"/>
</svg>
