<svg width="16" height="16" viewBox="0 0 16 16" fill="none" xmlns="http://www.w3.org/2000/svg">
<path fill-rule="evenodd" clip-rule="evenodd" d="M8 2C7.63181 2 7.33333 2.29848 7.33333 2.66667C7.33333 3.03486 7.63181 3.33333 8 3.33333H11.7239L8.5286 6.5286C8.26825 6.78895 8.26825 7.21106 8.5286 7.4714C8.78895 7.73175 9.21106 7.73175 9.4714 7.4714L12.6667 4.27614V8C12.6667 8.36819 12.9651 8.66667 13.3333 8.66667C13.7015 8.66667 14 8.36819 14 8V2.66667C14 2.29848 13.7015 2 13.3333 2L8 2ZM8 14C8.36819 14 8.66667 13.7015 8.66667 13.3333C8.66667 12.9651 8.36819 12.6667 8 12.6667H4.27614L7.4714 9.4714C7.73175 9.21106 7.73175 8.78895 7.4714 8.5286C7.21105 8.26825 6.78894 8.26825 6.52859 8.5286L3.33333 11.7239L3.33333 8C3.33333 7.63181 3.03486 7.33333 2.66667 7.33333C2.29848 7.33333 2 7.63181 2 8V13.3333C2 13.7015 2.29848 14 2.66667 14H8Z" fill="#18202A"/>
</svg>
