<svg width="16" height="16" viewBox="0 0 16 16" fill="none" xmlns="http://www.w3.org/2000/svg">
<g clip-path="url(#clip0_2266_39614)">
<path fill-rule="evenodd" clip-rule="evenodd" d="M8.55632 4.52224C8.33252 4.04793 7.66747 4.04793 7.44367 4.52224L6.79372 5.89973L5.35956 6.11654C5.0846 6.15811 4.9163 6.36263 4.85917 6.55746C4.8022 6.75175 4.83477 6.99705 5.01322 7.17913L6.06169 8.2489L5.81199 9.76931C5.7737 10.0025 5.86656 10.2263 6.03682 10.3637C6.211 10.5042 6.47495 10.5555 6.71415 10.4241L8 9.71767L9.28584 10.4241C9.52504 10.5555 9.78899 10.5042 9.96317 10.3637C10.1334 10.2263 10.2263 10.0025 10.188 9.76931L9.93834 8.24911L10.9865 7.18118C11.165 6.99924 11.1978 6.75397 11.141 6.55967C11.084 6.36483 10.9159 6.16021 10.641 6.11838L9.20641 5.90002L8.55632 4.52224ZM7.47052 6.80877L8 5.68663L8.52933 6.80848L9.76631 6.99676L8.86936 7.91066L9.07581 9.16773L8 8.5767L6.92418 9.16773L7.13059 7.91087L6.2337 6.99575L7.47052 6.80877Z" fill="#18202A"/>
<path fill-rule="evenodd" clip-rule="evenodd" d="M8.15131 0.679671C8.01805 0.656263 7.8804 0.664066 7.75006 0.703078L1.2561 2.65638L1.17089 2.68693C0.867533 2.81406 0.666656 3.1038 0.666656 3.42828C0.666656 11.6753 4.79127 13.9384 7.28797 15.0939L7.64106 15.2556C7.75472 15.3073 7.87746 15.3332 8.00019 15.3332C8.12286 15.3332 8.24526 15.3073 8.35859 15.2556C10.7965 14.1453 15.3333 12.0776 15.3333 3.42828C15.3337 3.07463 15.0946 2.762 14.7442 2.65638L8.25026 0.703078L8.15131 0.679671ZM1.66732 3.5765L8.00066 1.67184L14.332 3.5765L14.331 3.76029C14.2816 7.27968 13.4446 9.77552 11.9901 11.5311L11.8531 11.6931C10.9894 12.6928 10.1099 13.3016 8.68921 13.9953L8.19486 14.2303L7.99932 14.3198L7.80413 14.23C6.00295 13.3934 5.01491 12.7442 4.00983 11.531L3.87529 11.3642C2.50385 9.61843 1.71682 7.16969 1.66897 3.76114L1.66732 3.5765Z" fill="#18202A"/>
</g>
<defs>
<clipPath id="clip0_2266_39614">
<rect width="16" height="16" fill="white"/>
</clipPath>
</defs>
</svg>
