<svg width="16" height="16" viewBox="0 0 16 16" fill="none" xmlns="http://www.w3.org/2000/svg">
<path fill-rule="evenodd" clip-rule="evenodd" d="M10.6667 3.58366C10.6667 5.66699 9.77777 7.33366 7.99999 7.33366C6.22221 7.33366 5.33332 5.66699 5.33332 3.58366C5.33332 1.91699 6.22221 0.666992 7.99999 0.666992C9.77777 0.666992 10.6667 1.91699 10.6667 3.58366ZM9.66666 3.58366C9.66666 4.5024 9.46777 5.22838 9.164 5.69116C8.88715 6.11292 8.52169 6.33366 7.99999 6.33366C7.47829 6.33366 7.11283 6.11292 6.83598 5.69116C6.53221 5.22838 6.33332 4.5024 6.33332 3.58366C6.33332 2.9171 6.51135 2.44163 6.76068 2.14944C6.99073 1.87985 7.364 1.66699 7.99999 1.66699C8.63598 1.66699 9.00925 1.87985 9.2393 2.14944C9.48863 2.44163 9.66666 2.9171 9.66666 3.58366ZM6.79439 14.2684C6.67946 14.5983 6.64502 14.9363 6.67931 15.2618C6.11063 15.1996 5.55389 15.0976 5.01194 14.9587C4.19924 14.7504 3.51045 14.206 3.13322 13.4567C3.0214 13.2345 2.91712 13.008 2.82071 12.7773C2.41103 11.7971 2.5743 10.6503 3.33287 9.90649C4.53541 8.72739 6.18279 8.00033 7.99999 8.00033C8.73796 8.00033 9.44793 8.12023 10.1115 8.34163C10.0781 8.39152 10.0461 8.44327 10.0158 8.49687L9.60135 9.22953C9.09365 9.08032 8.55629 9.00033 7.99999 9.00033C6.45503 9.00033 5.05616 9.61728 4.03298 10.6205C3.60375 11.0414 3.47042 11.7386 3.74336 12.3917C3.83068 12.6006 3.92514 12.8058 4.02644 13.007C4.27065 13.4922 4.72062 13.8517 5.26019 13.99C5.75849 14.1177 6.27073 14.2114 6.79439 14.2684ZM15.1982 16.0003C15.813 16.0003 16.1984 15.3231 15.8932 14.7791L12.695 9.07796C12.3876 8.53 11.6124 8.53 11.305 9.07797L8.10679 14.7791C7.80157 15.3231 8.18693 16.0003 8.80175 16.0003H15.1982ZM11.5 11.167C11.5 10.8909 11.7238 10.667 12 10.667C12.2761 10.667 12.5 10.8909 12.5 11.167V12.5003C12.5 12.7765 12.2761 13.0003 12 13.0003C11.7238 13.0003 11.5 12.7765 11.5 12.5003V11.167ZM11.5 14.167C11.5 13.8909 11.7238 13.667 12 13.667C12.2761 13.667 12.5 13.8909 12.5 14.167C12.5 14.4431 12.2761 14.667 12 14.667C11.7238 14.667 11.5 14.4431 11.5 14.167Z" fill="#18202A"/>
</svg>
