<svg width="16" height="16" viewBox="0 0 16 16" fill="none" xmlns="http://www.w3.org/2000/svg">
<path d="M11.0115 5.63809C11.2115 5.82854 11.2192 6.14502 11.0288 6.34499L7.21925 10.345C7.12174 10.4474 6.98543 10.5037 6.84409 10.5C6.70274 10.4963 6.56957 10.4329 6.47755 10.3256L4.95375 8.54778C4.77403 8.33812 4.79832 8.02247 5.00798 7.84276C5.21764 7.66305 5.53329 7.68733 5.713 7.89699L6.87672 9.25465L10.3046 5.65533C10.4951 5.45537 10.8116 5.44765 11.0115 5.63809Z" fill="#18202A"/>
<path fill-rule="evenodd" clip-rule="evenodd" d="M2.66671 1.3335C1.93033 1.3335 1.33337 1.93045 1.33337 2.66683V13.3335C1.33337 14.0699 1.93033 14.6668 2.66671 14.6668H13.3334C14.0698 14.6668 14.6667 14.0699 14.6667 13.3335V2.66683C14.6667 1.93045 14.0698 1.3335 13.3334 1.3335H2.66671ZM13.6667 2.66683C13.6667 2.48273 13.5175 2.3335 13.3334 2.3335H2.66671C2.48261 2.3335 2.33337 2.48273 2.33337 2.66683V13.3335C2.33337 13.5176 2.48261 13.6668 2.66671 13.6668H13.3334C13.5175 13.6668 13.6667 13.5176 13.6667 13.3335V2.66683Z" fill="#18202A"/>
</svg>
