<svg width="16" height="16" viewBox="0 0 16 16" fill="none" xmlns="http://www.w3.org/2000/svg">
<path fill-rule="evenodd" clip-rule="evenodd" d="M7.99999 8.33366C8.92046 8.33366 9.66666 7.58747 9.66666 6.66699C9.66666 5.74652 8.92046 5.00033 7.99999 5.00033C7.07952 5.00033 6.33332 5.74652 6.33332 6.66699C6.33332 7.58747 7.07952 8.33366 7.99999 8.33366ZM7.99999 9.33366C9.47275 9.33366 10.6667 8.13975 10.6667 6.66699C10.6667 5.19423 9.47275 4.00033 7.99999 4.00033C6.52723 4.00033 5.33332 5.19423 5.33332 6.66699C5.33332 8.13975 6.52723 9.33366 7.99999 9.33366Z" fill="#18202A"/>
<path d="M7.99999 0.666992C9.25259 0.666992 10.4771 1.03843 11.5186 1.73433C12.5601 2.43023 13.3719 3.41934 13.8512 4.57659C14.3306 5.73383 14.456 7.00726 14.2117 8.23579C13.9673 9.46433 13.3641 10.5928 12.4785 11.4785L9.49226 14.7075C9.29639 14.9035 9.06379 15.0589 8.80779 15.1651C8.55172 15.2712 8.27719 15.3259 7.99999 15.3259C7.72279 15.3259 7.44826 15.2712 7.19219 15.1651C6.93606 15.0589 6.70339 14.9033 6.50746 14.7072L3.52154 11.4785C2.63584 10.5928 2.03268 9.46433 1.78833 8.23579C1.54398 7.00726 1.66942 5.73383 2.14879 4.57659C2.62815 3.41934 3.43991 2.43023 4.48142 1.73433C5.52292 1.03843 6.74739 0.666992 7.99999 0.666992ZM7.99999 1.66699C6.94517 1.66699 5.91403 1.97978 5.03698 2.5658C4.15992 3.15183 3.47633 3.98476 3.07266 4.95928C2.66899 5.9338 2.56335 7.00616 2.76912 8.04072C2.96116 9.00629 3.41642 9.89847 4.10467 10.6424L4.2557 10.7996L7.21494 14.0005C7.31799 14.1036 7.44034 14.1854 7.57508 14.2413C7.70981 14.2971 7.85424 14.3259 7.99999 14.3259C8.14574 14.3259 8.29017 14.2971 8.42481 14.2413C8.53263 14.1966 8.6325 14.1353 8.70713 14.0741L8.75809 14.0285L11.7713 10.7714C12.5172 10.0255 13.0251 9.07522 13.2309 8.04073C13.4366 7.00612 13.331 5.93376 12.9273 4.95926C12.5237 3.9848 11.8401 3.15185 10.963 2.56581C10.0859 1.97978 9.05481 1.66699 7.99999 1.66699Z" fill="#18202A"/>
</svg>
