<svg width="16" height="16" viewBox="0 0 16 16" fill="none" xmlns="http://www.w3.org/2000/svg">
<g clip-path="url(#clip0_3923_8898)">
<path d="M11.3334 1.66699C12.2538 1.66699 13 2.41318 13 3.33366V12.667C13 13.5875 12.2538 14.3337 11.3334 14.3337H6.5C6.22386 14.3337 6 14.5575 6 14.8337C6 15.1098 6.22386 15.3337 6.5 15.3337H11.3334C12.8061 15.3337 14 14.1398 14 12.667V3.33366C14 1.8609 12.8061 0.666992 11.3334 0.666992H4.66671C3.19395 0.666992 2.00004 1.8609 2.00004 3.33366V6.83366C2.00004 7.1098 2.2239 7.33366 2.50004 7.33366C2.77618 7.33366 3.00004 7.1098 3.00004 6.83366L3.00004 3.33366C3.00004 2.41318 3.74623 1.66699 4.66671 1.66699L11.3334 1.66699Z" fill="#18202A"/>
<path d="M8 6.83366C8 6.55752 8.22386 6.33366 8.5 6.33366H11.5C11.7761 6.33366 12 6.55752 12 6.83366C12 7.1098 11.7761 7.33366 11.5 7.33366H8.5C8.22386 7.33366 8 7.1098 8 6.83366Z" fill="#18202A"/>
<path d="M9.33333 9.83366C9.33333 9.55752 9.55719 9.33366 9.83333 9.33366H11.5C11.7761 9.33366 12 9.55752 12 9.83366C12 10.1098 11.7761 10.3337 11.5 10.3337H9.83333C9.55719 10.3337 9.33333 10.1098 9.33333 9.83366Z" fill="#18202A"/>
<path d="M5.33333 3.83366C5.33333 3.55752 5.55719 3.33366 5.83333 3.33366H11.5C11.7761 3.33366 12 3.55752 12 3.83366C12 4.1098 11.7761 4.33366 11.5 4.33366H5.83333C5.55719 4.33366 5.33333 4.1098 5.33333 3.83366Z" fill="#18202A"/>
<path d="M5.83397 8.66732C5.92545 8.66733 5.99961 8.74262 5.99962 8.8355L6 12.2977C6.00002 12.4476 5.82157 12.5227 5.7172 12.4167L4.79189 11.4772C4.7272 11.4115 4.62146 11.4122 4.55753 11.4787C3.12477 12.9681 2.97727 13.8075 3.25383 15.1299C3.2889 15.2977 3.09239 15.4069 2.98426 15.2752C1.28125 13.2011 2.06948 11.3764 3.23382 10.133C3.29686 10.0657 3.29702 9.95934 3.23232 9.89365L2.30701 8.95414C2.20264 8.84817 2.27657 8.66698 2.42416 8.66699L5.83397 8.66732Z" fill="#18202A"/>
</g>
<defs>
<clipPath id="clip0_3923_8898">
<rect width="16" height="16" fill="white"/>
</clipPath>
</defs>
</svg>
