<svg width="16" height="16" viewBox="0 0 16 16" fill="none" xmlns="http://www.w3.org/2000/svg">
<g clip-path="url(#clip0_2266_36962)">
<path d="M12.6667 4.00033C14.5076 4.00033 16 5.49271 16 7.33366C16 9.17461 14.5076 10.667 12.6667 10.667H9.33333V6.66699C9.33333 5.93061 8.73638 5.33366 8 5.33366C7.26362 5.33366 6.66667 5.93061 6.66667 6.66699V10.667H3.33333C1.49238 10.667 0 9.17461 0 7.33366C0 5.49271 1.49238 4.00033 3.33333 4.00033C3.39766 4.00033 3.46155 4.00215 3.52498 4.00574C4.09694 2.0753 5.88401 0.666992 8 0.666992C10.116 0.666992 11.9031 2.0753 12.475 4.00574C12.5384 4.00215 12.6023 4.00033 12.6667 4.00033Z" fill="#18202A"/>
<path fill-rule="evenodd" clip-rule="evenodd" d="M8 6.00033C8.36819 6.00033 8.66667 6.2988 8.66667 6.66699V13.0575L9.5286 12.1956C9.78895 11.9352 10.2111 11.9352 10.4714 12.1956C10.7318 12.4559 10.7318 12.878 10.4714 13.1384L8.47141 15.1384C8.34638 15.2634 8.17681 15.3337 8 15.3337C7.82319 15.3337 7.65362 15.2634 7.52859 15.1384L5.5286 13.1384C5.26825 12.878 5.26825 12.4559 5.5286 12.1956C5.78895 11.9352 6.21106 11.9352 6.4714 12.1956L7.33333 13.0575V6.66699C7.33333 6.2988 7.63181 6.00033 8 6.00033Z" fill="#18202A"/>
</g>
<defs>
<clipPath id="clip0_2266_36962">
<rect width="16" height="16" fill="white"/>
</clipPath>
</defs>
</svg>
