<svg width="16" height="16" viewBox="0 0 16 16" fill="none" xmlns="http://www.w3.org/2000/svg">
<path fill-rule="evenodd" clip-rule="evenodd" d="M2 0.666667C2 0.298477 2.29848 0 2.66667 0H13.3333C13.7015 0 14 0.298477 14 0.666667V2.39713C14 2.60402 13.904 2.79918 13.74 2.92538L12.1716 4.13285C13.6929 5.35471 14.6667 7.2303 14.6667 9.33333C14.6667 13.0152 11.6819 16 8 16C4.3181 16 1.33333 13.0152 1.33333 9.33333C1.33333 7.2303 2.30711 5.35471 3.82836 4.13285L2.25998 2.92538C2.09605 2.79918 2 2.60402 2 2.39713V0.666667ZM11.3333 1.33333V3.55855C10.7215 3.20462 10.0482 2.94513 9.33333 2.80002V1.33333H11.3333ZM6.66667 1.33333V2.80002C5.95182 2.94513 5.27851 3.20462 4.66667 3.55855V1.33333H6.66667ZM8 13.3333C10.2091 13.3333 12 11.5425 12 9.33333C12 7.12419 10.2091 5.33333 8 5.33333C5.79086 5.33333 4 7.12419 4 9.33333C4 11.5425 5.79086 13.3333 8 13.3333ZM8.75031 8.30249L8.19238 7.12691C8.11207 6.9577 7.88793 6.9577 7.80762 7.12691L7.24969 8.30249C7.21763 8.37004 7.15711 8.41653 7.08746 8.42712L5.85289 8.6148C5.67321 8.64211 5.60281 8.88174 5.73511 9.01576L6.61778 9.90991C6.67104 9.96386 6.69544 10.0432 6.68264 10.1208L6.47299 11.3921C6.44176 11.5815 6.6245 11.7279 6.78352 11.641L7.90228 11.0291C7.9637 10.9955 8.03629 10.9955 8.09772 11.0291L9.21648 11.641C9.3755 11.7279 9.55824 11.5815 9.52701 11.3921L9.31736 10.1208C9.30456 10.0432 9.32896 9.96386 9.38222 9.90991L10.2649 9.01576C10.3972 8.88174 10.3268 8.64211 10.1471 8.6148L8.91254 8.42712C8.84289 8.41653 8.78237 8.37004 8.75031 8.30249Z" fill="#18202A"/>
</svg>
