<svg width="16" height="16" viewBox="0 0 16 16" fill="none" xmlns="http://www.w3.org/2000/svg">
<g clip-path="url(#clip0_2266_37928)">
<path fill-rule="evenodd" clip-rule="evenodd" d="M8 7.33366C9.77778 7.33366 10.6667 5.66699 10.6667 3.58366C10.6667 1.91699 9.77778 0.666992 8 0.666992C6.22222 0.666992 5.33333 1.91699 5.33333 3.58366C5.33333 5.66699 6.22222 7.33366 8 7.33366ZM8.00003 8.66699C8.05621 8.66699 8.11224 8.66769 8.16809 8.66907C7.43715 9.58181 7 10.74 7 12.0003C7 13.2611 7.43744 14.4196 8.16882 15.3325C8.11264 15.3333 8.05637 15.3337 8.00001 15.3337C6.96841 15.3337 5.96722 15.2035 5.01195 14.9587C4.19926 14.7504 3.51047 14.206 3.13324 13.4567L3.10211 13.3943C2.58063 12.3412 2.75796 11.0511 3.64778 10.2835C4.81564 9.27614 6.3367 8.66699 8.00003 8.66699ZM12.2053 8.00033C11.7228 8.00033 11.3091 8.34479 11.2218 8.81928L11.2058 8.9063C10.8058 9.04452 10.4409 9.25812 10.1283 9.53011L10.0431 9.49982C9.58847 9.33823 9.08332 9.52424 8.84209 9.94206L8.77481 10.0586C8.53358 10.4764 8.62506 11.0069 8.9923 11.3198L9.06139 11.3787C9.02268 11.5799 9.00242 11.7878 9.00242 12.0003C9.00242 12.2129 9.02269 12.4207 9.06139 12.622L8.99231 12.6809C8.62507 12.9938 8.53358 13.5242 8.77481 13.9421L8.8421 14.0586C9.08333 14.4764 9.58848 14.6624 10.0431 14.5008L10.1283 14.4706C10.441 14.7425 10.8058 14.9561 11.2058 15.0943L11.2218 15.1814C11.3091 15.6559 11.7228 16.0003 12.2053 16.0003H12.3398C12.8223 16.0003 13.236 15.6559 13.3233 15.1814L13.339 15.0963C13.7405 14.9583 14.1067 14.7445 14.4205 14.4719L14.502 14.5008C14.9566 14.6624 15.4618 14.4764 15.703 14.0586L15.7703 13.9421C16.0115 13.5242 15.92 12.9938 15.5528 12.6809L15.4882 12.6258C15.5274 12.4233 15.5479 12.2142 15.5479 12.0003C15.5479 11.7864 15.5274 11.5773 15.4882 11.3749L15.5528 11.3198C15.92 11.0069 16.0115 10.4764 15.7703 10.0586L15.703 9.94206C15.4618 9.52424 14.9566 9.33823 14.502 9.49982L14.4205 9.5288C14.1067 9.25618 13.7405 9.04232 13.339 8.90438L13.3233 8.81928C13.236 8.34479 12.8223 8.00033 12.3398 8.00033H12.2053ZM12.2721 13.3337C13.0085 13.3337 13.6054 12.7367 13.6054 12.0003C13.6054 11.2639 13.0085 10.667 12.2721 10.667C11.5357 10.667 10.9388 11.2639 10.9388 12.0003C10.9388 12.7367 11.5357 13.3337 12.2721 13.3337Z" fill="#18202A"/>
</g>
<defs>
<clipPath id="clip0_2266_37928">
<rect width="16" height="16" fill="white"/>
</clipPath>
</defs>
</svg>
