<svg width="16" height="16" viewBox="0 0 16 16" fill="none" xmlns="http://www.w3.org/2000/svg">
<path fill-rule="evenodd" clip-rule="evenodd" d="M7.99999 4.33301C8.55227 4.33301 8.99999 3.88529 8.99999 3.33301C8.99999 2.78072 8.55227 2.33301 7.99999 2.33301C7.44771 2.33301 6.99999 2.78072 6.99999 3.33301C6.99999 3.88529 7.44771 4.33301 7.99999 4.33301ZM9.99999 3.33301C9.99999 4.26493 9.3626 5.04798 8.49999 5.27V7.49967H12.8333C13.3856 7.49967 13.8333 7.94739 13.8333 8.49967V10.7294C14.6959 10.9514 15.3333 11.7344 15.3333 12.6663C15.3333 13.7709 14.4379 14.6663 13.3333 14.6663C12.2288 14.6663 11.3333 13.7709 11.3333 12.6663C11.3333 11.7344 11.9707 10.9514 12.8333 10.7294V8.49967H8.49999V10.7294C9.3626 10.9514 9.99999 11.7344 9.99999 12.6663C9.99999 13.7709 9.10456 14.6663 7.99999 14.6663C6.89542 14.6663 5.99999 13.7709 5.99999 12.6663C5.99999 11.7344 6.63738 10.9514 7.49999 10.7294V8.49967H3.16666V10.7294C4.02927 10.9514 4.66666 11.7344 4.66666 12.6663C4.66666 13.7709 3.77123 14.6663 2.66666 14.6663C1.56209 14.6663 0.666656 13.7709 0.666656 12.6663C0.666656 11.7344 1.30404 10.9514 2.16666 10.7294V8.49967C2.16666 7.94739 2.61437 7.49967 3.16666 7.49967H7.49999V5.27C6.63738 5.04798 5.99999 4.26493 5.99999 3.33301C5.99999 2.22844 6.89542 1.33301 7.99999 1.33301C9.10456 1.33301 9.99999 2.22844 9.99999 3.33301ZM3.66666 12.6663C3.66666 13.2186 3.21894 13.6663 2.66666 13.6663C2.11437 13.6663 1.66666 13.2186 1.66666 12.6663C1.66666 12.1141 2.11437 11.6663 2.66666 11.6663C3.21894 11.6663 3.66666 12.1141 3.66666 12.6663ZM8.99999 12.6663C8.99999 13.2186 8.55227 13.6663 7.99999 13.6663C7.44771 13.6663 6.99999 13.2186 6.99999 12.6663C6.99999 12.1141 7.44771 11.6663 7.99999 11.6663C8.55227 11.6663 8.99999 12.1141 8.99999 12.6663ZM14.3333 12.6663C14.3333 13.2186 13.8856 13.6663 13.3333 13.6663C12.781 13.6663 12.3333 13.2186 12.3333 12.6663C12.3333 12.1141 12.781 11.6663 13.3333 11.6663C13.8856 11.6663 14.3333 12.1141 14.3333 12.6663Z" fill="#18202A"/>
</svg>
