<svg width="16" height="16" viewBox="0 0 16 16" fill="none" xmlns="http://www.w3.org/2000/svg">
<g clip-path="url(#clip0_2266_39602)">
<path fill-rule="evenodd" clip-rule="evenodd" d="M7.99999 11.4853C7.99999 9.92854 9.26203 8.6665 10.8188 8.6665H14.5V9.6665H10.8188C9.81431 9.6665 8.99999 10.4808 8.99999 11.4853V14.4998H7.99999V11.4853Z" fill="#18202A"/>
<path fill-rule="evenodd" clip-rule="evenodd" d="M11.2754 1.6665H4.72463C3.03576 1.6665 1.66666 3.0356 1.66666 4.72447V11.2752C1.66666 12.9641 3.03576 14.3332 4.72463 14.3332H8.3768C11.6665 14.3332 14.3333 11.6663 14.3333 8.37665V4.72447C14.3333 3.0356 12.9642 1.6665 11.2754 1.6665ZM4.72463 0.666504C2.48347 0.666504 0.666656 2.48332 0.666656 4.72447V11.2752C0.666656 13.5164 2.48347 15.3332 4.72463 15.3332H8.3768C12.2188 15.3332 15.3333 12.2186 15.3333 8.37665V4.72447C15.3333 2.48332 13.5165 0.666504 11.2754 0.666504H4.72463Z" fill="#18202A"/>
<path d="M5.99999 5.99984C5.99999 6.73622 5.55227 7.33317 4.99999 7.33317C4.44771 7.33317 3.99999 6.73622 3.99999 5.99984C3.99999 5.26346 4.44771 4.6665 4.99999 4.6665C5.55227 4.6665 5.99999 5.26346 5.99999 5.99984Z" fill="#18202A"/>
<path d="M12 5.99984C12 6.73622 11.5523 7.33317 11 7.33317C10.4477 7.33317 9.99999 6.73622 9.99999 5.99984C9.99999 5.26346 10.4477 4.6665 11 4.6665C11.5523 4.6665 12 5.26346 12 5.99984Z" fill="#18202A"/>
<path d="M8.07605 10.8322C8.02631 11.0418 7.99999 11.2605 7.99999 11.4853L7.99999 11.8331C7.3877 11.8331 6.78313 11.6933 6.24446 11.4239C5.70565 11.1545 5.24744 10.7627 4.91985 10.2809C4.76458 10.0526 4.82383 9.7416 5.05218 9.58633C5.28054 9.43106 5.59153 9.49031 5.7468 9.71867C5.97228 10.0503 6.29591 10.3316 6.69167 10.5295C7.08758 10.7274 7.53851 10.8331 7.99999 10.8331C8.02538 10.8331 8.05073 10.8328 8.07605 10.8322Z" fill="#18202A"/>
</g>
<defs>
<clipPath id="clip0_2266_39602">
<rect width="16" height="16" fill="white"/>
</clipPath>
</defs>
</svg>
