<svg width="16" height="16" viewBox="0 0 16 16" fill="none" xmlns="http://www.w3.org/2000/svg">
<g clip-path="url(#clip0_2266_40412)">
<path fill-rule="evenodd" clip-rule="evenodd" d="M6.99999 8.76603V11.2336L9.05634 9.99984L6.99999 8.76603ZM7.00965 7.60564C6.5653 7.33903 5.99999 7.6591 5.99999 8.1773V11.8224C5.99999 12.3406 6.5653 12.6606 7.00965 12.394L10.0472 10.5715C10.4788 10.3126 10.4788 9.68711 10.0472 9.42817L7.00965 7.60564Z" fill="#18202A"/>
<path fill-rule="evenodd" clip-rule="evenodd" d="M12.6667 5.6665H3.33332C2.41285 5.6665 1.66666 6.4127 1.66666 7.33317V11.9998C1.66666 13.2885 2.71133 14.3332 3.99999 14.3332H12C13.2887 14.3332 14.3333 13.2885 14.3333 11.9998V7.33317C14.3333 6.4127 13.5871 5.6665 12.6667 5.6665ZM3.33332 4.6665C1.86056 4.6665 0.666656 5.86041 0.666656 7.33317V11.9998C0.666656 13.8408 2.15904 15.3332 3.99999 15.3332H12C13.8409 15.3332 15.3333 13.8408 15.3333 11.9998V7.33317C15.3333 5.86041 14.1394 4.6665 12.6667 4.6665H3.33332Z" fill="#18202A"/>
<path d="M2.66666 3.1665C2.66666 2.89036 2.89051 2.6665 3.16666 2.6665H12.8333C13.1095 2.6665 13.3333 2.89036 13.3333 3.1665C13.3333 3.44265 13.1095 3.6665 12.8333 3.6665H3.16666C2.89051 3.6665 2.66666 3.44265 2.66666 3.1665Z" fill="#18202A"/>
<path d="M3.99999 1.1665C3.99999 0.890362 4.22385 0.666504 4.49999 0.666504H11.5C11.7761 0.666504 12 0.890362 12 1.1665C12 1.44265 11.7761 1.6665 11.5 1.6665H4.49999C4.22385 1.6665 3.99999 1.44265 3.99999 1.1665Z" fill="#18202A"/>
</g>
<defs>
<clipPath id="clip0_2266_40412">
<rect width="16" height="16" fill="white"/>
</clipPath>
</defs>
</svg>
