<svg width="16" height="16" viewBox="0 0 16 16" fill="none" xmlns="http://www.w3.org/2000/svg">
<g clip-path="url(#clip0_2266_30446)">
<path fill-rule="evenodd" clip-rule="evenodd" d="M5.66671 0.333374C6.0349 0.333374 6.33337 0.631851 6.33337 1.00004V2.33337C6.33337 2.70156 6.0349 3.00004 5.66671 3.00004C5.29852 3.00004 5.00004 2.70156 5.00004 2.33337V1.00004C5.00004 0.631851 5.29852 0.333374 5.66671 0.333374ZM1.86197 1.86197C2.12232 1.60162 2.54443 1.60162 2.80478 1.86197L3.80478 2.86197C4.06513 3.12232 4.06513 3.54443 3.80478 3.80478C3.54443 4.06513 3.12232 4.06513 2.86197 3.80478L1.86197 2.80478C1.60162 2.54443 1.60162 2.12232 1.86197 1.86197ZM0.333374 5.66671C0.333374 5.29852 0.631851 5.00004 1.00004 5.00004H2.33337C2.70156 5.00004 3.00004 5.29852 3.00004 5.66671C3.00004 6.0349 2.70156 6.33337 2.33337 6.33337H1.00004C0.631851 6.33337 0.333374 6.0349 0.333374 5.66671ZM8.00002 2.34336C9.56212 0.781263 12.0948 0.781263 13.6569 2.34336C15.219 3.90546 15.219 6.43812 13.6569 8.00021L12.2427 9.41443C11.9823 9.67478 11.5602 9.67478 11.2999 9.41443C11.0395 9.15408 11.0395 8.73197 11.2999 8.47162L12.7141 7.05741C13.7555 6.01601 13.7555 4.32757 12.7141 3.28617C11.6727 2.24477 9.98423 2.24477 8.94283 3.28617L7.52862 4.70038C7.26827 4.96073 6.84616 4.96073 6.58581 4.70038C6.32546 4.44003 6.32546 4.01792 6.58581 3.75757L8.00002 2.34336ZM2.34316 7.99966C0.78106 9.56175 0.78106 12.0944 2.34316 13.6565C3.90525 15.2186 6.43791 15.2186 8.00001 13.6565L9.41422 12.2423C9.67457 11.9819 9.67457 11.5598 9.41422 11.2995C9.15387 11.0391 8.73176 11.0391 8.47142 11.2995L7.0572 12.7137C6.0158 13.7551 4.32736 13.7551 3.28597 12.7137C2.24457 11.6723 2.24457 9.98386 3.28597 8.94246L4.70018 7.52825C4.96053 7.2679 4.96053 6.84579 4.70018 6.58544C4.43983 6.32509 4.01772 6.32509 3.75737 6.58544L2.34316 7.99966ZM9.66671 15C9.66671 15.3682 9.96519 15.6667 10.3334 15.6667C10.7016 15.6667 11 15.3682 11 15V13.6667C11 13.2985 10.7016 13 10.3334 13C9.96519 13 9.66671 13.2985 9.66671 13.6667V15ZM12.1953 13.1381L13.1953 14.1381C13.4557 14.3985 13.8778 14.3985 14.1381 14.1381C14.3985 13.8778 14.3985 13.4557 14.1381 13.1953L13.1381 12.1953C12.8778 11.935 12.4557 11.935 12.1953 12.1953C11.935 12.4557 11.935 12.8778 12.1953 13.1381ZM15 11C15.3682 11 15.6667 10.7016 15.6667 10.3334C15.6667 9.96519 15.3682 9.66671 15 9.66671H13.6667C13.2985 9.66671 13 9.96519 13 10.3334C13 10.7016 13.2985 11 13.6667 11H15Z" fill="#18202A"/>
</g>
<defs>
<clipPath id="clip0_2266_30446">
<rect width="16" height="16" fill="white"/>
</clipPath>
</defs>
</svg>
