<svg width="16" height="16" viewBox="0 0 16 16" fill="none" xmlns="http://www.w3.org/2000/svg">
<path fill-rule="evenodd" clip-rule="evenodd" d="M13.1412 1.48035C13.3377 1.28389 13.6562 1.28389 13.8527 1.48035C14.0491 1.6768 14.0491 1.99531 13.8527 2.19176L10.6667 5.37776V7.33301C10.6667 8.80577 9.47276 9.99967 8 9.99967C7.44543 9.99967 6.93039 9.83039 6.50375 9.54067L5.7771 10.2673C6.38976 10.7272 7.15113 10.9997 7.97615 10.9997C9.83203 10.9997 11.3659 9.62086 11.6092 7.83173C11.6464 7.5581 11.8667 7.33301 12.1428 7.33301C12.419 7.33301 12.6456 7.55763 12.6164 7.83222C12.3856 10.0026 10.667 11.7285 8.5 11.9706V13.6663H10.5C10.7761 13.6663 11 13.8902 11 14.1663C11 14.4425 10.7761 14.6663 10.5 14.6663H5.5C5.22386 14.6663 5 14.4425 5 14.1663C5 13.8902 5.22386 13.6663 5.5 13.6663H7.5V11.9757C6.58388 11.8828 5.74605 11.525 5.06437 10.9801L2.85875 13.1857C2.6623 13.3821 2.34379 13.3821 2.14734 13.1857C1.95089 12.9892 1.95089 12.6707 2.14734 12.4743L13.1412 1.48035ZM7.2319 8.81252C7.46176 8.93209 7.72299 8.99967 8 8.99967C8.92047 8.99967 9.66667 8.25348 9.66667 7.33301V6.37776L7.2319 8.81252Z" fill="#18202A"/>
<path d="M8 1.33301C9.04819 1.33301 9.95513 1.93777 10.3909 2.81741L9.61642 3.59191C9.43452 2.86855 8.7798 2.33301 8 2.33301C7.07952 2.33301 6.33333 3.0792 6.33333 3.99967V6.875L5.37937 7.82897C5.34914 7.66827 5.33333 7.50248 5.33333 7.33301V3.99967C5.33333 2.52691 6.52724 1.33301 8 1.33301Z" fill="#18202A"/>
<path d="M4.55456 8.65377C4.45378 8.39286 4.38198 8.11753 4.34312 7.83173C4.30591 7.5581 4.08563 7.33301 3.80948 7.33301C3.53334 7.33301 3.30667 7.55763 3.33587 7.83222C3.39567 8.39452 3.55534 8.92698 3.79679 9.41154L4.55456 8.65377Z" fill="#18202A"/>
</svg>
