<svg width="16" height="16" viewBox="0 0 16 16" fill="none" xmlns="http://www.w3.org/2000/svg">
<g clip-path="url(#clip0_2266_39719)">
<path fill-rule="evenodd" clip-rule="evenodd" d="M1.68029 7.75955V7.79378C1.68029 9.78662 2.46587 11.2824 3.67685 12.2635L4.00846 12.5321L4.14443 14.1638L5.84285 13.3799L6.17881 13.4594C6.7528 13.5953 7.36605 13.6665 8.00681 13.6665C11.9135 13.6665 14.3333 10.886 14.3333 7.79378C14.3333 4.08011 11.5642 1.6665 8.00681 1.6665C4.43059 1.6665 1.46301 4.5885 1.67795 7.72541L1.68029 7.75955ZM15.3333 7.79378C15.3333 11.4489 12.4551 14.6665 8.00681 14.6665C7.29217 14.6665 6.60143 14.5871 5.94843 14.4325L4.13116 15.2713C3.71097 15.4652 3.22586 15.1825 3.18743 14.7213L3.04736 13.0405C1.59214 11.8615 0.680291 10.0753 0.680291 7.79378C0.418663 3.97559 3.96048 0.666504 8.00681 0.666504C12.0531 0.666504 15.3333 3.4665 15.3333 7.79378Z" fill="#18202A"/>
<path fill-rule="evenodd" clip-rule="evenodd" d="M11 8.6665C11.5523 8.6665 12 8.21879 12 7.6665C12 7.11422 11.5523 6.6665 11 6.6665C10.4477 6.6665 10 7.11422 10 7.6665C10 8.21879 10.4477 8.6665 11 8.6665Z" fill="#18202A"/>
<path fill-rule="evenodd" clip-rule="evenodd" d="M8 8.6665C8.55228 8.6665 9 8.21879 9 7.6665C9 7.11422 8.55228 6.6665 8 6.6665C7.44772 6.6665 7 7.11422 7 7.6665C7 8.21879 7.44772 8.6665 8 8.6665Z" fill="#18202A"/>
<path fill-rule="evenodd" clip-rule="evenodd" d="M5 8.6665C5.55228 8.6665 6 8.21879 6 7.6665C6 7.11422 5.55228 6.6665 5 6.6665C4.44772 6.6665 4 7.11422 4 7.6665C4 8.21879 4.44772 8.6665 5 8.6665Z" fill="#18202A"/>
</g>
<defs>
<clipPath id="clip0_2266_39719">
<rect width="16" height="16" fill="white"/>
</clipPath>
</defs>
</svg>
