<svg width="16" height="16" viewBox="0 0 16 16" fill="none" xmlns="http://www.w3.org/2000/svg">
<g clip-path="url(#clip0_3444_9213)">
<g clip-path="url(#clip1_3444_9213)">
<path d="M3.99996 1.99984C3.99996 1.26346 4.59691 0.666504 5.33329 0.666504H10.6666C11.403 0.666504 12 1.26346 12 1.99984V3.33317C12 3.97085 11.7015 4.53883 11.2367 4.90505C10.6583 5.36078 9.99996 5.93012 9.99996 6.6665V7.99984C9.99996 8.37932 10.1585 8.72178 10.413 8.96459C10.125 9.14027 9.85914 9.3486 9.62054 9.58444C9.23537 9.16832 8.99996 8.61157 8.99996 7.99984V6.6665C8.99996 5.98403 9.30788 5.44036 9.62551 5.04968C9.93876 4.66441 10.3264 4.34917 10.6178 4.11956C10.8523 3.93479 11 3.65151 11 3.33317V1.99984C11 1.81574 10.8507 1.6665 10.6666 1.6665H5.33329C5.1492 1.6665 4.99996 1.81574 4.99996 1.99984V3.33317C4.99996 3.65151 5.14758 3.93479 5.38209 4.11956C5.67353 4.34917 6.06116 4.66441 6.3744 5.04968C6.69204 5.44036 6.99996 5.98403 6.99996 6.6665V7.99984C6.99996 9.2885 5.95529 10.3332 4.66663 10.3332H3.52377C2.4981 10.3332 1.66663 11.1646 1.66663 12.1903C1.66663 12.2692 1.73058 12.3332 1.80948 12.3332H8.34592C8.33755 12.4432 8.33329 12.5543 8.33329 12.6665C8.33329 12.8932 8.3507 13.1159 8.38426 13.3332H1.80948C1.1783 13.3332 0.666626 12.8215 0.666626 12.1903C0.666626 10.6124 1.94581 9.33317 3.52377 9.33317H4.66663C5.40301 9.33317 5.99996 8.73622 5.99996 7.99984V6.6665C5.99996 5.93012 5.34164 5.36078 4.76322 4.90505C4.2984 4.53883 3.99996 3.97085 3.99996 3.33317V1.99984Z" fill="#18202A"/>
<path d="M9.25073 15.3332C8.9418 14.938 8.69994 14.4878 8.54229 13.9998H1.99996C1.63177 13.9998 1.33329 14.2983 1.33329 14.6665C1.33329 15.0347 1.63177 15.3332 1.99996 15.3332H9.25073Z" fill="#18202A"/>
<path d="M12.0202 9.81295C12.2155 10.0082 12.2155 10.3248 12.0202 10.5201L11.5404 10.9998H14.6666C14.9428 10.9998 15.1666 11.2237 15.1666 11.4998C15.1666 11.776 14.9428 11.9998 14.6666 11.9998H10.3333C10.1311 11.9998 9.94876 11.878 9.87137 11.6912C9.79398 11.5043 9.83676 11.2893 9.97975 11.1463L11.3131 9.81295C11.5083 9.61769 11.8249 9.61769 12.0202 9.81295Z" fill="#18202A"/>
<path d="M12.9797 15.5201C12.7845 15.3248 12.7845 15.0082 12.9797 14.813L13.4595 14.3332H10.3333C10.0571 14.3332 9.83328 14.1093 9.83328 13.8332C9.83328 13.557 10.0571 13.3332 10.3333 13.3332H14.6666C14.8688 13.3332 15.0512 13.455 15.1286 13.6418C15.2059 13.8287 15.1632 14.0437 15.0202 14.1867L13.6868 15.5201C13.4916 15.7153 13.175 15.7153 12.9797 15.5201Z" fill="#18202A"/>
</g>
</g>
<defs>
<clipPath id="clip0_3444_9213">
<rect width="16" height="16" fill="white"/>
</clipPath>
<clipPath id="clip1_3444_9213">
<rect width="16" height="16" fill="white"/>
</clipPath>
</defs>
</svg>
