<svg width="16" height="16" viewBox="0 0 16 16" fill="none" xmlns="http://www.w3.org/2000/svg">
<g clip-path="url(#clip0_2266_40763)">
<path fill-rule="evenodd" clip-rule="evenodd" d="M10.6667 3.58366C10.6667 5.66699 9.77777 7.33366 7.99999 7.33366C6.22221 7.33366 5.33332 5.66699 5.33332 3.58366C5.33332 1.91699 6.22221 0.666992 7.99999 0.666992C9.77777 0.666992 10.6667 1.91699 10.6667 3.58366ZM9.66666 3.58366C9.66666 4.5024 9.46777 5.22838 9.164 5.69116C8.88715 6.11292 8.52169 6.33366 7.99999 6.33366C7.47829 6.33366 7.11283 6.11292 6.83598 5.69116C6.53221 5.22838 6.33332 4.5024 6.33332 3.58366C6.33332 2.9171 6.51135 2.44163 6.76068 2.14944C6.99073 1.87985 7.364 1.66699 7.99999 1.66699C8.63598 1.66699 9.00925 1.87985 9.2393 2.14944C9.48863 2.44163 9.66666 2.9171 9.66666 3.58366ZM7.33332 14.3337C7.33332 14.6805 7.39218 15.0136 7.50044 15.3235C6.64479 15.2884 5.81224 15.1638 5.01194 14.9587C4.19924 14.7504 3.51045 14.206 3.13322 13.4567C3.0214 13.2345 2.91712 13.008 2.82071 12.7773C2.41103 11.7971 2.5743 10.6503 3.33287 9.90649C4.53541 8.72739 6.18279 8.00033 7.99999 8.00033C8.80879 8.00033 9.58395 8.14435 10.3012 8.40816C10.1275 8.69203 9.98553 8.99745 9.88027 9.31947C9.29201 9.11268 8.65931 9.00033 7.99999 9.00033C6.45503 9.00033 5.05616 9.61728 4.03298 10.6205C3.60375 11.0414 3.47042 11.7386 3.74336 12.3917C3.83068 12.6006 3.92514 12.8058 4.02644 13.007C4.27065 13.4922 4.72062 13.8517 5.26019 13.99C5.9282 14.1612 6.62126 14.2713 7.33332 14.3138V14.3337ZM13.1667 10.5003C13.1667 10.1321 13.4651 9.83366 13.8333 9.83366C14.2015 9.83366 14.5 10.1321 14.5 10.5003V11.0003C14.5 11.2765 14.7238 11.5003 15 11.5003C15.2761 11.5003 15.5 11.2765 15.5 11.0003V10.5003C15.5 9.57985 14.7538 8.83366 13.8333 8.83366C12.9128 8.83366 12.1667 9.57985 12.1667 10.5003V11.3337H9.66666C9.11437 11.3337 8.66666 11.7814 8.66666 12.3337V15.0003C8.66666 15.5526 9.11437 16.0003 9.66666 16.0003H13C13.5523 16.0003 14 15.5526 14 15.0003V12.3337C14 11.8382 13.6396 11.4268 13.1667 11.3475V10.5003ZM11.3333 12.8337C11.6095 12.8337 11.8333 13.0575 11.8333 13.3337V14.0003C11.8333 14.2765 11.6095 14.5003 11.3333 14.5003C11.0572 14.5003 10.8333 14.2765 10.8333 14.0003V13.3337C10.8333 13.0575 11.0572 12.8337 11.3333 12.8337Z" fill="#18202A"/>
</g>
<defs>
<clipPath id="clip0_2266_40763">
<rect width="16" height="16" fill="white"/>
</clipPath>
</defs>
</svg>
