<svg width="16" height="16" viewBox="0 0 16 16" fill="none" xmlns="http://www.w3.org/2000/svg">
<path d="M10.8155 2.24082C11.1105 1.94586 11.5608 1.91799 11.8214 2.17857C12.082 2.43915 12.0541 2.88951 11.7592 3.18447L11.3524 3.59127C11.7559 4.05857 12 4.66745 12 5.33333V10.6667C12 12.1394 10.8061 13.3333 9.33333 13.3333H2.66667C2.35065 13.3333 2.04748 13.2784 1.76618 13.1775L1.18447 13.7592C0.889512 14.0541 0.439154 14.082 0.178573 13.8214C-0.0820085 13.5608 -0.0541383 13.1105 0.240824 12.8155L10.8155 2.24082Z" fill="#18202A"/>
<path d="M0.0407876 11.1339L8.50798 2.66667H2.66667C1.19391 2.66667 0 3.86057 0 5.33333V10.6667C0 10.826 0.0139825 10.9822 0.0407876 11.1339Z" fill="#18202A"/>
<path d="M12.9438 5.5338C12.7698 5.65908 12.6667 5.86041 12.6667 6.07482V9.25851C12.6667 10.1396 12.7698 10.3409 12.9438 10.4662L14.9438 11.9062C15.3848 12.2237 16 11.9086 16 11.3652V4.63482C16 4.09142 15.3848 3.77629 14.9438 4.0938L12.9438 5.5338Z" fill="#18202A"/>
</svg>
