<svg width="16" height="16" viewBox="0 0 16 16" fill="none" xmlns="http://www.w3.org/2000/svg">
<path fill-rule="evenodd" clip-rule="evenodd" d="M13.9819 6.33317C13.9366 6.06075 13.8073 5.80715 13.6095 5.60931L9.05719 1.05703C8.85936 0.859194 8.60575 0.729949 8.33333 0.684598V0.666504H4.66667C3.19391 0.666504 2 1.86041 2 3.33317V12.6665C2 14.1393 3.19391 15.3332 4.66667 15.3332H9.25077C9.01351 15.0297 8.81581 14.6938 8.66544 14.3332H4.66667C3.74619 14.3332 3 13.587 3 12.6665V3.33317C3 2.4127 3.74619 1.6665 4.66667 1.6665H7.33333V7.33317H13V8.3458C13.3463 8.37214 13.6812 8.43919 14 8.54217V6.33317H13.9819ZM12.9024 6.31642C12.9078 6.32184 12.913 6.32743 12.918 6.33317H8.33333V1.7485C8.33908 1.7535 8.34466 1.75871 8.35008 1.76413L12.9024 6.31642Z" fill="#18202A"/>
<path fill-rule="evenodd" clip-rule="evenodd" d="M16 12.6665C16 14.5075 14.5076 15.9998 12.6667 15.9998C10.8257 15.9998 9.33333 14.5075 9.33333 12.6665C9.33333 10.8256 10.8257 9.33317 12.6667 9.33317C14.5076 9.33317 16 10.8256 16 12.6665ZM12.5 10.9998C12.7761 10.9998 13 11.2237 13 11.4998V12.9594L13.8536 13.8129C14.0488 14.0082 14.0488 14.3248 13.8536 14.5201C13.6583 14.7153 13.3417 14.7153 13.1464 14.5201L12.1464 13.5201C12.0527 13.4263 12 13.2991 12 13.1665V11.4998C12 11.2237 12.2239 10.9998 12.5 10.9998Z" fill="#18202A"/>
</svg>
