<svg width="16" height="16" viewBox="0 0 16 16" fill="none" xmlns="http://www.w3.org/2000/svg">
<g clip-path="url(#clip0_2266_39002)">
<path fill-rule="evenodd" clip-rule="evenodd" d="M7.99999 14.3334C11.4978 14.3334 14.3333 11.4979 14.3333 8.00008C14.3333 4.50228 11.4978 1.66675 7.99999 1.66675C4.50219 1.66675 1.66666 4.50228 1.66666 8.00008C1.66666 11.4979 4.50219 14.3334 7.99999 14.3334ZM15.3333 8.00008C15.3333 12.0502 12.0501 15.3334 7.99999 15.3334C3.9499 15.3334 0.666656 12.0502 0.666656 8.00008C0.666656 3.94999 3.9499 0.666748 7.99999 0.666748C12.0501 0.666748 15.3333 3.94999 15.3333 8.00008Z" fill="#18202A"/>
<path d="M7.49999 6.50008C7.49999 6.22394 7.72385 6.00008 7.99999 6.00008C8.27613 6.00008 8.49999 6.22394 8.49999 6.50008V10.8334C8.49999 11.1096 8.27613 11.3334 7.99999 11.3334C7.72385 11.3334 7.49999 11.1096 7.49999 10.8334V6.50008Z" fill="#18202A"/>
<path d="M6.49999 6.50008C6.49999 6.22394 6.72385 6.00008 6.99999 6.00008H7.99999C8.27613 6.00008 8.49999 6.22394 8.49999 6.50008C8.49999 6.77622 8.27613 7.00008 7.99999 7.00008H6.99999C6.72385 7.00008 6.49999 6.77622 6.49999 6.50008Z" fill="#18202A"/>
<path d="M6.16666 10.8334C6.16666 10.5573 6.39051 10.3334 6.66666 10.3334H9.33332C9.60947 10.3334 9.83332 10.5573 9.83332 10.8334C9.83332 11.1096 9.60947 11.3334 9.33332 11.3334H6.66666C6.39051 11.3334 6.16666 11.1096 6.16666 10.8334Z" fill="#18202A"/>
<path d="M7.33332 4.66675C7.33332 4.29856 7.6318 4.00008 7.99999 4.00008C8.36818 4.00008 8.66666 4.29856 8.66666 4.66675C8.66666 5.03494 8.36818 5.33342 7.99999 5.33342C7.6318 5.33342 7.33332 5.03494 7.33332 4.66675Z" fill="#18202A"/>
</g>
<defs>
<clipPath id="clip0_2266_39002">
<rect width="16" height="16" fill="white"/>
</clipPath>
</defs>
</svg>
