<svg width="16" height="16" viewBox="0 0 16 16" fill="none" xmlns="http://www.w3.org/2000/svg">
<g clip-path="url(#clip0_2266_39824)">
<path fill-rule="evenodd" clip-rule="evenodd" d="M7.99999 14.3332C11.4978 14.3332 14.3333 11.4976 14.3333 7.99984C14.3333 4.50203 11.4978 1.6665 7.99999 1.6665C4.50219 1.6665 1.66666 4.50203 1.66666 7.99984C1.66666 11.4976 4.50219 14.3332 7.99999 14.3332ZM7.99999 15.3332C12.0501 15.3332 15.3333 12.0499 15.3333 7.99984C15.3333 3.94975 12.0501 0.666504 7.99999 0.666504C3.9499 0.666504 0.666656 3.94975 0.666656 7.99984C0.666656 12.0499 3.9499 15.3332 7.99999 15.3332Z" fill="#18202A"/>
<path fill-rule="evenodd" clip-rule="evenodd" d="M7.77638 0.885957C7.91715 0.815575 8.08283 0.815575 8.2236 0.885957C10.7758 2.16206 12 4.95627 12 7.74984C12 10.547 10.7773 13.4755 8.27037 15.0871C8.10566 15.193 7.89431 15.193 7.72961 15.0871C5.22271 13.4755 3.99999 10.547 3.99999 7.74984C3.99999 4.95627 5.22419 2.16206 7.77638 0.885957ZM7.49999 2.22018C5.85682 3.41454 4.99999 5.51756 4.99999 7.74984C4.99999 9.96466 5.84696 12.2064 7.49999 13.6636V2.22018ZM8.49999 13.6636V2.22018C10.1432 3.41454 11 5.51756 11 7.74984C11 9.96466 10.153 12.2064 8.49999 13.6636Z" fill="#18202A"/>
<path fill-rule="evenodd" clip-rule="evenodd" d="M14.6667 8.49984H1.33332V7.49984H14.6667V8.49984Z" fill="#18202A"/>
</g>
<defs>
<clipPath id="clip0_2266_39824">
<rect width="16" height="16" fill="white"/>
</clipPath>
</defs>
</svg>
