<svg width="16" height="16" viewBox="0 0 16 16" fill="none" xmlns="http://www.w3.org/2000/svg">
<path fill-rule="evenodd" clip-rule="evenodd" d="M7.99999 11.5287C7.73964 11.789 7.73964 12.2111 7.99999 12.4715C8.26034 12.7318 8.68245 12.7318 8.9428 12.4715L12.9428 8.47149C13.2031 8.21114 13.2031 7.78903 12.9428 7.52868L8.9428 3.52868C8.68245 3.26833 8.26034 3.26833 7.99999 3.52868C7.73964 3.78903 7.73964 4.21114 7.99999 4.47148L11.5286 8.00008L7.99999 11.5287ZM3.05718 11.5287C2.79683 11.789 2.79683 12.2111 3.05718 12.4715C3.31753 12.7318 3.73964 12.7318 3.99999 12.4715L7.99999 8.47149C8.26034 8.21114 8.26034 7.78903 7.99999 7.52868L3.99999 3.52868C3.73964 3.26833 3.31753 3.26833 3.05718 3.52868C2.79683 3.78903 2.79683 4.21113 3.05718 4.47148L6.58578 8.00008L3.05718 11.5287Z" fill="#18202A"/>
</svg>
