<svg width="16" height="16" viewBox="0 0 16 16" fill="none" xmlns="http://www.w3.org/2000/svg">
<g clip-path="url(#clip0_3292_8766)">
<path d="M11.6436 7.35441C11.9081 7.43376 12.0582 7.7125 11.9789 7.977L11.9784 7.97869L11.9777 7.98099L11.9757 7.98742L11.9693 8.0073C11.964 8.02357 11.9565 8.04579 11.9468 8.07311C11.9273 8.12766 11.8986 8.2031 11.8598 8.29255C11.7829 8.47001 11.6633 8.71 11.4929 8.95339C11.159 9.43048 10.569 9.99999 9.66664 9.99999C8.81674 9.99999 8.19156 9.47799 7.72484 9.08829L7.67988 9.05077C7.1512 8.6102 6.78914 8.33333 6.3333 8.33333C5.90238 8.33333 5.57562 8.59715 5.32625 8.95339C5.20496 9.12667 5.11622 9.30334 5.0577 9.43838C5.02876 9.50518 5.008 9.55995 4.99493 9.59655C4.98841 9.6148 4.98385 9.62839 4.98119 9.63654L4.97863 9.64453C4.89915 9.90882 4.62068 10.0582 4.3563 9.97891C4.0918 9.89956 3.94171 9.62082 4.02106 9.35632L4.02129 9.35556C4.03139 9.32359 4.04191 9.29179 4.05319 9.26021C4.07267 9.20566 4.10139 9.13022 4.14015 9.04077C4.21705 8.86332 4.33665 8.62332 4.50702 8.37993C4.84098 7.90284 5.43089 7.33333 6.3333 7.33333C7.1832 7.33333 7.80838 7.85534 8.2751 8.24503L8.32006 8.28255C8.84874 8.72312 9.2108 8.99999 9.66664 8.99999C10.0976 8.99999 10.4243 8.73617 10.6737 8.37993C10.795 8.20665 10.8837 8.02998 10.9422 7.89494C10.9712 7.82814 10.9919 7.77337 11.005 7.73677C11.0115 7.71852 11.0161 7.70493 11.0187 7.69679L11.0212 7.68904C11.1007 7.42475 11.3793 7.2751 11.6436 7.35441Z" fill="#18202A"/>
<path fill-rule="evenodd" clip-rule="evenodd" d="M4.49996 0.666504C4.22382 0.666504 3.99996 0.890362 3.99996 1.1665V1.99984H3.33329C1.86053 1.99984 0.666626 3.19374 0.666626 4.6665V12.6665C0.666626 14.1393 1.86053 15.3332 3.33329 15.3332H12.6666C14.1394 15.3332 15.3333 14.1393 15.3333 12.6665V4.6665C15.3333 3.19374 14.1394 1.99984 12.6666 1.99984H12V1.1665C12 0.890362 11.7761 0.666504 11.5 0.666504C11.2238 0.666504 11 0.890362 11 1.1665V1.99984H4.99996V1.1665C4.99996 0.890362 4.7761 0.666504 4.49996 0.666504ZM11.5 4.6665C11.2238 4.6665 11 4.44265 11 4.1665V2.99984H4.99996V4.1665C4.99996 4.44265 4.7761 4.6665 4.49996 4.6665C4.22382 4.6665 3.99996 4.44265 3.99996 4.1665V2.99984H3.33329C2.41282 2.99984 1.66663 3.74603 1.66663 4.6665V12.6665C1.66663 13.587 2.41282 14.3332 3.33329 14.3332H12.6666C13.5871 14.3332 14.3333 13.587 14.3333 12.6665V4.6665C14.3333 3.74603 13.5871 2.99984 12.6666 2.99984H12V4.1665C12 4.44265 11.7761 4.6665 11.5 4.6665Z" fill="#18202A"/>
</g>
<defs>
<clipPath id="clip0_3292_8766">
<rect width="16" height="16" fill="white"/>
</clipPath>
</defs>
</svg>
