<svg width="16" height="16" viewBox="0 0 16 16" fill="none" xmlns="http://www.w3.org/2000/svg">
<g clip-path="url(#clip0_2266_35805)">
<path fill-rule="evenodd" clip-rule="evenodd" d="M3.33333 0.666992C1.86057 0.666992 0.666667 1.8609 0.666667 3.33366V12.667C0.666667 14.1398 1.86057 15.3337 3.33333 15.3337H12.6667C14.1394 15.3337 15.3333 14.1398 15.3333 12.667V3.33366C15.3333 1.8609 14.1394 0.666992 12.6667 0.666992H3.33333ZM4 2.66699C3.26362 2.66699 2.66667 3.26395 2.66667 4.00033C2.66667 4.73671 3.26362 5.33366 4 5.33366C4.73638 5.33366 5.33333 4.73671 5.33333 4.00033C5.33333 3.26395 4.73638 2.66699 4 2.66699ZM6.66667 4.00033C6.66667 3.63214 6.96514 3.33366 7.33333 3.33366H12.6667C13.0349 3.33366 13.3333 3.63214 13.3333 4.00033C13.3333 4.36852 13.0349 4.66699 12.6667 4.66699H7.33333C6.96514 4.66699 6.66667 4.36852 6.66667 4.00033ZM3.33333 7.33366C2.96514 7.33366 2.66667 7.63214 2.66667 8.00033V12.667C2.66667 13.0352 2.96514 13.3337 3.33333 13.3337H12.6667C13.0349 13.3337 13.3333 13.0352 13.3333 12.667V8.00033C13.3333 7.63214 13.0349 7.33366 12.6667 7.33366H3.33333Z" fill="#18202A"/>
</g>
<defs>
<clipPath id="clip0_2266_35805">
<rect width="16" height="16" fill="white"/>
</clipPath>
</defs>
</svg>
