<svg width="16" height="16" viewBox="0 0 16 16" fill="none" xmlns="http://www.w3.org/2000/svg">
<path fill-rule="evenodd" clip-rule="evenodd" d="M11.3333 14.9998C13.3584 14.9998 15 13.3582 15 11.3332C15 9.30813 13.3584 7.6665 11.3333 7.6665C9.30828 7.6665 7.66666 9.30813 7.66666 11.3332C7.66666 13.3582 9.30828 14.9998 11.3333 14.9998ZM11.3333 15.9998C13.9107 15.9998 16 13.9105 16 11.3332C16 8.75584 13.9107 6.6665 11.3333 6.6665C8.75599 6.6665 6.66666 8.75584 6.66666 11.3332C6.66666 13.9105 8.75599 15.9998 11.3333 15.9998Z" fill="#18202A"/>
<path fill-rule="evenodd" clip-rule="evenodd" d="M0.666656 3.99984C0.666656 3.59688 0.912112 3.29257 1.17151 3.08814C1.43654 2.87927 1.78907 2.71304 2.18012 2.58269C2.96743 2.32025 4.0233 2.1665 5.16666 2.1665C6.31001 2.1665 7.36588 2.32025 8.1532 2.58269C8.54424 2.71304 8.89677 2.87927 9.1618 3.08814C9.4212 3.29257 9.66666 3.59688 9.66666 3.99984V6.97292C9.31028 7.10923 8.97488 7.28797 8.66666 7.50296V7.21222C8.507 7.28861 8.33422 7.35665 8.1532 7.41699C7.36588 7.67943 6.31001 7.83317 5.16666 7.83317C4.0233 7.83317 2.96743 7.67943 2.18012 7.41699C1.99909 7.35665 1.82632 7.28861 1.66666 7.21222V7.99223C1.67153 8.00502 1.69501 8.05089 1.79048 8.12612C1.93027 8.23629 2.16353 8.35737 2.49634 8.4683C3.15674 8.68844 4.10087 8.83317 5.16666 8.83317C6.10711 8.83317 6.95285 8.72047 7.59249 8.54272C7.33065 8.89318 7.11689 9.28167 6.96101 9.69841C6.41065 9.78567 5.80217 9.83317 5.16666 9.83317C4.0233 9.83317 2.96743 9.67943 2.18012 9.41699C1.99909 9.35665 1.82632 9.28861 1.66666 9.21222V9.99223C1.67153 10.005 1.69501 10.0509 1.79048 10.1261C1.93027 10.2363 2.16353 10.3574 2.49634 10.4683C3.15674 10.6884 4.10087 10.8332 5.16666 10.8332C5.72008 10.8332 6.2407 10.7941 6.70582 10.7258C6.67998 10.9246 6.66666 11.1273 6.66666 11.3332C6.66666 11.4697 6.67252 11.6048 6.684 11.7383C6.20913 11.8001 5.69732 11.8332 5.16666 11.8332C4.0233 11.8332 2.96743 11.6794 2.18012 11.417C1.99909 11.3566 1.82632 11.2886 1.66666 11.2122V11.9922C1.67153 12.005 1.69501 12.0509 1.79048 12.1261C1.93027 12.2363 2.16353 12.3574 2.49634 12.4683C3.15674 12.6884 4.10087 12.8332 5.16666 12.8332C5.78616 12.8332 6.36457 12.7843 6.87004 12.7001C6.9714 13.0315 7.10866 13.3472 7.27727 13.6427C6.64782 13.7653 5.92656 13.8332 5.16666 13.8332C4.0233 13.8332 2.96743 13.6794 2.18012 13.417C1.78907 13.2866 1.43654 13.1204 1.17151 12.9115C0.912112 12.7071 0.666656 12.4028 0.666656 11.9998V3.99984ZM1.79048 3.87355C1.70881 3.93791 1.67982 3.98078 1.6701 3.99984C1.67982 4.01889 1.70881 4.06176 1.79048 4.12612C1.93027 4.23629 2.16353 4.35737 2.49634 4.4683C3.15674 4.68844 4.10087 4.83317 5.16666 4.83317C6.23244 4.83317 7.17657 4.68844 7.83697 4.4683C8.16978 4.35737 8.40304 4.23629 8.54283 4.12612C8.6245 4.06176 8.65349 4.01889 8.66322 3.99984C8.65349 3.98078 8.6245 3.93791 8.54283 3.87355C8.40304 3.76338 8.16978 3.64231 7.83697 3.53137C7.17657 3.31124 6.23244 3.1665 5.16666 3.1665C4.10087 3.1665 3.15674 3.31124 2.49634 3.53137C2.16353 3.64231 1.93027 3.76338 1.79048 3.87355ZM8.66666 5.21222C8.507 5.28861 8.33422 5.35665 8.1532 5.41699C7.36588 5.67943 6.31001 5.83317 5.16666 5.83317C4.0233 5.83317 2.96743 5.67943 2.18012 5.41699C1.99909 5.35665 1.82632 5.28861 1.66666 5.21222V5.99223C1.67153 6.00502 1.69501 6.05089 1.79048 6.12612C1.93027 6.23629 2.16353 6.35737 2.49634 6.4683C3.15674 6.68844 4.10087 6.83317 5.16666 6.83317C6.23244 6.83317 7.17657 6.68844 7.83697 6.4683C8.16978 6.35737 8.40304 6.23629 8.54283 6.12612C8.6383 6.05089 8.66179 6.00502 8.66666 5.99223V5.21222Z" fill="#18202A"/>
<path fill-rule="evenodd" clip-rule="evenodd" d="M8.83332 11.3332C8.83332 10.1366 9.80337 9.1665 11 9.1665H12.6667C12.9428 9.1665 13.1667 9.39036 13.1667 9.6665C13.1667 9.94265 12.9428 10.1665 12.6667 10.1665H11C10.3557 10.1665 9.83332 10.6888 9.83332 11.3332C9.83332 11.9775 10.3557 12.4998 11 12.4998H12.3333C12.6095 12.4998 12.8333 12.276 12.8333 11.9998C12.8333 11.9078 12.7587 11.8332 12.6667 11.8332H11.6667C11.3905 11.8332 11.1667 11.6093 11.1667 11.3332C11.1667 11.057 11.3905 10.8332 11.6667 10.8332H12.6667C13.311 10.8332 13.8333 11.3555 13.8333 11.9998C13.8333 12.8283 13.1617 13.4998 12.3333 13.4998H11C9.80337 13.4998 8.83332 12.5298 8.83332 11.3332Z" fill="#18202A"/>
</svg>
