<svg width="16" height="16" viewBox="0 0 16 16" fill="none" xmlns="http://www.w3.org/2000/svg">
<path fill-rule="evenodd" clip-rule="evenodd" d="M3.33337 2.6665C2.2288 2.6665 1.33337 3.56193 1.33337 4.6665V10.6665C1.33337 11.7711 2.2288 12.6665 3.33337 12.6665H7.33337V13.3332H6.00004C5.63185 13.3332 5.33337 13.6316 5.33337 13.9998C5.33337 14.368 5.63185 14.6665 6.00004 14.6665H10C10.3682 14.6665 10.6667 14.368 10.6667 13.9998C10.6667 13.6316 10.3682 13.3332 10 13.3332H8.66671V12.6665H12.6667C13.7713 12.6665 14.6667 11.7711 14.6667 10.6665V4.6665C14.6667 3.56193 13.7713 2.6665 12.6667 2.6665H3.33337ZM13.3334 4.6665C13.3334 4.29831 13.0349 3.99984 12.6667 3.99984H3.33337C2.96518 3.99984 2.66671 4.29831 2.66671 4.6665V8.6665H13.3334V4.6665ZM12.6667 11.3332C13.0349 11.3332 13.3334 11.0347 13.3334 10.6665V9.99984H2.66671V10.6665C2.66671 11.0347 2.96518 11.3332 3.33337 11.3332H12.6667Z" fill="#18202A"/>
</svg>
