<svg width="16" height="16" viewBox="0 0 16 16" fill="none" xmlns="http://www.w3.org/2000/svg">
<g clip-path="url(#clip0_2266_40304)">
<path fill-rule="evenodd" clip-rule="evenodd" d="M7.99999 14.3333C11.4978 14.3333 14.3333 11.4978 14.3333 7.99996C14.3333 4.50216 11.4978 1.66663 7.99999 1.66663C4.50219 1.66663 1.66666 4.50216 1.66666 7.99996C1.66666 11.4978 4.50219 14.3333 7.99999 14.3333ZM7.99999 15.3333C12.0501 15.3333 15.3333 12.05 15.3333 7.99996C15.3333 3.94987 12.0501 0.666626 7.99999 0.666626C3.9499 0.666626 0.666656 3.94987 0.666656 7.99996C0.666656 12.05 3.9499 15.3333 7.99999 15.3333Z" fill="#18202A"/>
<path fill-rule="evenodd" clip-rule="evenodd" d="M11.0115 5.63789C11.2114 5.82833 11.2192 6.14482 11.0287 6.34479L7.2192 10.3448C7.12169 10.4472 6.98538 10.5035 6.84404 10.4998C6.70269 10.4961 6.56952 10.4327 6.4775 10.3254L4.95369 8.54758C4.77398 8.33791 4.79826 8.02226 5.00793 7.84255C5.21759 7.66284 5.53324 7.68712 5.71295 7.89679L6.87666 9.25445L10.3046 5.65513C10.495 5.45517 10.8115 5.44745 11.0115 5.63789Z" fill="#18202A"/>
</g>
<defs>
<clipPath id="clip0_2266_40304">
<rect width="16" height="16" fill="white"/>
</clipPath>
</defs>
</svg>
