<svg width="16" height="16" viewBox="0 0 16 16" fill="none" xmlns="http://www.w3.org/2000/svg">
<g clip-path="url(#clip0_2266_40505)">
<path fill-rule="evenodd" clip-rule="evenodd" d="M13.3921 11.3243C12.7462 11.5462 12.0534 11.6667 11.3333 11.6667C7.83552 11.6667 4.99999 8.83119 4.99999 5.33338C4.99999 4.11416 5.34514 2.97464 5.94226 2.00828C3.45484 2.86231 1.66666 5.22279 1.66666 8.00005C1.66666 11.4979 4.50219 14.3334 7.99999 14.3334C10.2777 14.3334 12.2761 13.1306 13.3921 11.3243ZM14.0329 9.93403C13.241 10.3997 12.3184 10.6667 11.3333 10.6667C8.3878 10.6667 5.99999 8.2789 5.99999 5.33338C5.99999 3.85606 6.60065 2.51902 7.57108 1.55318C7.86832 1.25734 7.698 0.681322 7.27913 0.701698C3.56738 1.06385 0.666656 4.1932 0.666656 8.00005C0.666656 12.0501 3.9499 15.3334 7.99999 15.3334C11.137 15.3334 13.8139 13.3637 14.8615 10.5936C14.8616 10.5933 14.8618 10.5929 14.8619 10.5926C14.8659 10.5819 14.8699 10.5712 14.8739 10.5605C14.9233 10.4281 14.9689 10.2939 15.0107 10.158C15.1254 9.7848 14.6471 9.53074 14.324 9.74993C14.2562 9.79593 14.1873 9.84041 14.1173 9.88332C14.0912 9.89933 14.065 9.91512 14.0386 9.93069C14.0367 9.9318 14.0348 9.93291 14.0329 9.93403Z" fill="#18202A"/>
</g>
<defs>
<clipPath id="clip0_2266_40505">
<rect width="16" height="16" fill="white"/>
</clipPath>
</defs>
</svg>
