<svg width="16" height="16" viewBox="0 0 16 16" fill="none" xmlns="http://www.w3.org/2000/svg">
<path fill-rule="evenodd" clip-rule="evenodd" d="M6.4714 11.5283C6.73175 11.7886 6.73175 12.2107 6.4714 12.4711L4.4714 14.4711C4.21105 14.7314 3.78894 14.7314 3.52859 14.4711L1.5286 12.4711C1.26825 12.2107 1.26825 11.7886 1.5286 11.5283C1.78894 11.2679 2.21105 11.2679 2.4714 11.5283L3.33333 12.3902L3.33333 3.60915L2.4714 4.47108C2.21105 4.73143 1.78894 4.73143 1.52859 4.47108C1.26825 4.21073 1.26825 3.78862 1.5286 3.52827L3.5286 1.52827C3.78894 1.26792 4.21105 1.26792 4.4714 1.52827L6.4714 3.52827C6.73175 3.78862 6.73175 4.21073 6.4714 4.47108C6.21105 4.73143 5.78894 4.73143 5.52859 4.47108L4.66667 3.60915L4.66667 12.3902L5.52859 11.5283C5.78894 11.2679 6.21105 11.2679 6.4714 11.5283ZM8 6.66634C8 6.29815 8.29848 5.99967 8.66667 5.99967H14C14.3682 5.99967 14.6667 6.29815 14.6667 6.66634C14.6667 7.03453 14.3682 7.33301 14 7.33301H8.66667C8.29848 7.33301 8 7.03453 8 6.66634ZM8.66667 3.33301C8.29848 3.33301 8 3.63148 8 3.99967C8 4.36786 8.29848 4.66634 8.66667 4.66634H14C14.3682 4.66634 14.6667 4.36786 14.6667 3.99967C14.6667 3.63148 14.3682 3.33301 14 3.33301H8.66667ZM8 9.33301C8 8.96482 8.29848 8.66634 8.66667 8.66634H14C14.3682 8.66634 14.6667 8.96482 14.6667 9.33301C14.6667 9.7012 14.3682 9.99967 14 9.99967H8.66667C8.29848 9.99967 8 9.7012 8 9.33301ZM14 11.333H8.66667C8.29848 11.333 8 11.6315 8 11.9997C8 12.3679 8.29848 12.6663 8.66667 12.6663H14C14.3682 12.6663 14.6667 12.3679 14.6667 11.9997C14.6667 11.6315 14.3682 11.333 14 11.333Z" fill="#18202A"/>
</svg>
