<svg width="16" height="16" viewBox="0 0 16 16" fill="none" xmlns="http://www.w3.org/2000/svg">
<path fill-rule="evenodd" clip-rule="evenodd" d="M0.666667 3.33317C0.666667 1.86041 1.86057 0.666504 3.33333 0.666504H12.6667C14.1394 0.666504 15.3333 1.86041 15.3333 3.33317V9.33317C15.3333 10.8059 14.1394 11.9998 12.6667 11.9998H8.60606L4.3037 14.558C3.80494 14.8546 3.19166 14.4165 3.31042 13.8485L3.69697 11.9998H3.33333C1.86057 11.9998 0.666667 10.8059 0.666667 9.33317V3.33317ZM6.94281 3.99984C6.7903 3.99984 6.66667 4.12347 6.66667 4.27598C6.66667 4.34922 6.69576 4.41946 6.74755 4.47124L6.80474 4.52843C7.06509 4.78878 7.06509 5.21089 6.80474 5.47124C6.54439 5.73159 6.12228 5.73159 5.86193 5.47124L5.80474 5.41405C5.5029 5.11222 5.33333 4.70284 5.33333 4.27598C5.33333 3.38709 6.05392 2.6665 6.94281 2.6665H8.83772C9.84782 2.6665 10.6667 3.48535 10.6667 4.49545C10.6667 5.28268 10.1629 5.98159 9.41608 6.23054L9.21082 6.29896C8.88586 6.40728 8.66667 6.71139 8.66667 7.05393V7.33317C8.66667 7.70136 8.36819 7.99984 8 7.99984C7.63181 7.99984 7.33333 7.70136 7.33333 7.33317V7.05393C7.33333 6.13748 7.91976 5.32385 8.78918 5.03405L8.99445 4.96563C9.19683 4.89817 9.33333 4.70877 9.33333 4.49545C9.33333 4.22173 9.11144 3.99984 8.83772 3.99984H6.94281ZM8 8.6665C7.63181 8.6665 7.33333 8.96498 7.33333 9.33317C7.33333 9.70136 7.63181 9.99984 8 9.99984C8.36819 9.99984 8.66667 9.70136 8.66667 9.33317C8.66667 8.96498 8.36819 8.6665 8 8.6665Z" fill="#18202A"/>
</svg>
