<svg width="20" height="20" viewBox="0 0 20 20" fill="none" xmlns="http://www.w3.org/2000/svg">
<g clip-path="url(#clip0_2266_37369)">
<path fill-rule="evenodd" clip-rule="evenodd" d="M5 0.833496C2.69881 0.833496 0.833334 2.69898 0.833334 5.00016V15.0002C0.833334 17.3013 2.69881 19.1668 5 19.1668H15C17.3012 19.1668 19.1667 17.3013 19.1667 15.0002V5.00016C19.1667 2.69898 17.3012 0.833496 15 0.833496H5ZM5.83333 4.16683V2.50016H4.16667V4.16683H5.83333ZM7.5 7.87052C7.5 7.26619 8.15315 6.89291 8.66653 7.20384L12.176 9.32932C12.6747 9.6313 12.6747 10.3607 12.176 10.6627L8.66654 12.7882C8.15315 13.0991 7.5 12.7258 7.5 12.1215V7.87052ZM4.16667 17.5002V15.8335H5.83333V17.5002H4.16667ZM9.16667 2.50016H7.5V4.16683H9.16667V2.50016ZM7.5 15.8335H9.16667V17.5002H7.5V15.8335ZM12.5 2.50016H10.8333V4.16683H12.5V2.50016ZM10.8333 15.8335H12.5V17.5002H10.8333V15.8335ZM15.8333 4.16683V2.50016H14.1667V4.16683H15.8333ZM14.1667 17.5002V15.8335H15.8333V17.5002H14.1667Z" fill="#18202A"/>
</g>
<defs>
<clipPath id="clip0_2266_37369">
<rect width="20" height="20" fill="white"/>
</clipPath>
</defs>
</svg>
