<svg width="20" height="20" viewBox="0 0 20 20" fill="none" xmlns="http://www.w3.org/2000/svg">
<path d="M1.66663 3.33329C1.66663 2.41282 2.41282 1.66663 3.33329 1.66663H7.49996C8.42043 1.66663 9.16663 2.41282 9.16663 3.33329V4.99996C9.16663 5.92043 8.42043 6.66663 7.49996 6.66663H5.83329V9.99996H12.5C12.5 9.07948 13.2462 8.33329 14.1666 8.33329H16.6666C17.5871 8.33329 18.3333 9.07948 18.3333 9.99996V10.8333C18.3333 11.7538 17.5871 12.5 16.6666 12.5H14.1666C13.5497 12.5 13.0111 12.1648 12.7229 11.6666H5.83329V15C5.83329 15.4602 6.20639 15.8333 6.66663 15.8333H12.5C12.5 14.9128 13.2462 14.1666 14.1666 14.1666H16.6666C17.5871 14.1666 18.3333 14.9128 18.3333 15.8333V16.6666C18.3333 17.5871 17.5871 18.3333 16.6666 18.3333H14.1666C13.5497 18.3333 13.0111 17.9981 12.7229 17.5H6.66663C5.28591 17.5 4.16663 16.3807 4.16663 15V6.66663H3.33329C2.41282 6.66663 1.66663 5.92043 1.66663 4.99996V3.33329Z" fill="#18202A"/>
</svg>
