<svg width="20" height="20" viewBox="0 0 20 20" fill="none" xmlns="http://www.w3.org/2000/svg">
<path fill-rule="evenodd" clip-rule="evenodd" d="M1.66669 4.16663C1.66669 2.78591 2.78598 1.66663 4.16669 1.66663H6.66669C8.0474 1.66663 9.16669 2.78591 9.16669 4.16663V6.66663C9.16669 8.04734 8.0474 9.16663 6.66669 9.16663H4.16669C2.78597 9.16663 1.66669 8.04734 1.66669 6.66663V4.16663ZM2.91669 4.16663C2.91669 3.47627 3.47633 2.91663 4.16669 2.91663H6.66669C7.35704 2.91663 7.91669 3.47627 7.91669 4.16663V6.66663C7.91669 7.35698 7.35704 7.91663 6.66669 7.91663H4.16669C3.47633 7.91663 2.91669 7.35698 2.91669 6.66663V4.16663Z" fill="#18202A"/>
<path fill-rule="evenodd" clip-rule="evenodd" d="M1.66669 13.3333C1.66669 11.9526 2.78598 10.8333 4.16669 10.8333H6.66669C8.0474 10.8333 9.16669 11.9526 9.16669 13.3333V15.8333C9.16669 17.214 8.0474 18.3333 6.66669 18.3333H4.16669C2.78597 18.3333 1.66669 17.214 1.66669 15.8333V13.3333ZM2.91669 13.3333C2.91669 12.6429 3.47633 12.0833 4.16669 12.0833H6.66669C7.35704 12.0833 7.91669 12.6429 7.91669 13.3333V15.8333C7.91669 16.5236 7.35704 17.0833 6.66669 17.0833H4.16669C3.47633 17.0833 2.91669 16.5236 2.91669 15.8333V13.3333Z" fill="#18202A"/>
<path fill-rule="evenodd" clip-rule="evenodd" d="M13.3334 1.66663C11.9526 1.66663 10.8334 2.78591 10.8334 4.16663V6.66663C10.8334 8.04734 11.9526 9.16663 13.3334 9.16663H15.8334C17.2141 9.16663 18.3334 8.04734 18.3334 6.66663V4.16663C18.3334 2.78591 17.2141 1.66663 15.8334 1.66663H13.3334ZM17.0834 4.16663C17.0834 3.47627 16.5237 2.91663 15.8334 2.91663H13.3334C12.643 2.91663 12.0834 3.47627 12.0834 4.16663V6.66663C12.0834 7.35698 12.643 7.91663 13.3334 7.91663H15.8334C16.5237 7.91663 17.0834 7.35698 17.0834 6.66663V4.16663Z" fill="#18202A"/>
<path fill-rule="evenodd" clip-rule="evenodd" d="M10.8334 13.3333C10.8334 11.9526 11.9526 10.8333 13.3334 10.8333H15.8334C17.2141 10.8333 18.3334 11.9526 18.3334 13.3333V15.8333C18.3334 17.214 17.2141 18.3333 15.8334 18.3333H13.3334C11.9526 18.3333 10.8334 17.214 10.8334 15.8333V13.3333ZM12.0834 13.3333C12.0834 12.6429 12.643 12.0833 13.3334 12.0833H15.8334C16.5237 12.0833 17.0834 12.6429 17.0834 13.3333V15.8333C17.0834 16.5236 16.5237 17.0833 15.8334 17.0833H13.3334C12.643 17.0833 12.0834 16.5236 12.0834 15.8333V13.3333Z" fill="#18202A"/>
</svg>
