<svg width="20" height="20" viewBox="0 0 20 20" fill="none" xmlns="http://www.w3.org/2000/svg">
<g clip-path="url(#clip0_3900_9025)">
<path d="M15.2489 8.32386C15.2489 9.50758 14.7492 10.4545 13.75 10.4545C12.7507 10.4545 12.2511 9.50758 12.2511 8.32386C12.2511 7.37689 12.7507 6.66667 13.75 6.66667C14.7492 6.66667 15.2489 7.37689 15.2489 8.32386Z" fill="#18202A"/>
<path d="M11.6317 11.875C11.5177 11.9541 11.4082 12.0395 11.3037 12.1306C11.0635 12.3401 10.9156 12.618 10.8593 12.9167C10.7984 13.2398 10.8446 13.5871 10.997 13.8981L11.0145 13.9335C11.2265 14.3593 11.6136 14.6686 12.0704 14.7869C12.6074 14.926 13.1701 15 13.75 15C14.3298 15 14.8926 14.926 15.4295 14.7869C15.8863 14.6686 16.2735 14.3593 16.4855 13.9335L16.4944 13.9156L16.503 13.8981C16.7617 13.37 16.7144 12.737 16.356 12.2958C16.3082 12.2371 16.255 12.1818 16.1963 12.1306C15.9868 11.9479 15.7571 11.7884 15.5111 11.6557C14.9861 11.3726 14.3866 11.2121 13.75 11.2121C12.9639 11.2121 12.2343 11.4568 11.6317 11.875Z" fill="#18202A"/>
<path fill-rule="evenodd" clip-rule="evenodd" d="M4.16665 2.5C2.3257 2.5 0.833313 3.99238 0.833313 5.83333V14.1667C0.833313 16.0076 2.3257 17.5 4.16665 17.5H15.8333C17.6743 17.5 19.1666 16.0076 19.1666 14.1667V7.5C19.1666 5.65905 17.6743 4.16667 15.8333 4.16667H9.99998L9.06555 3.23223C8.59671 2.76339 7.96082 2.5 7.29778 2.5H4.16665ZM17.9166 7.5C17.9166 6.34941 16.9839 5.41667 15.8333 5.41667H9.48221L8.18166 4.11612C7.94724 3.8817 7.6293 3.75 7.29778 3.75H4.16665C3.01605 3.75 2.08331 4.68274 2.08331 5.83333V14.1667C2.08331 15.3173 3.01605 16.25 4.16665 16.25H15.8333C16.9839 16.25 17.9166 15.3173 17.9166 14.1667V7.5Z" fill="#18202A"/>
</g>
<defs>
<clipPath id="clip0_3900_9025">
<rect width="20" height="20" fill="white"/>
</clipPath>
</defs>
</svg>
