<svg width="20" height="20" viewBox="0 0 20 20" fill="none" xmlns="http://www.w3.org/2000/svg">
<path fill-rule="evenodd" clip-rule="evenodd" d="M10.1187 13.9257C10.312 13.8108 10.5327 13.7502 10.7576 13.7502H15.8333C16.9839 13.7502 17.9167 12.8174 17.9167 11.6668V4.16683C17.9167 3.01624 16.9839 2.0835 15.8333 2.0835H4.16668C3.01608 2.0835 2.08334 3.01624 2.08334 4.16683V11.6668C2.08334 12.8174 3.01608 13.7502 4.16668 13.7502H4.62122C4.99762 13.7502 5.35399 13.9198 5.59135 14.2119C5.82871 14.504 5.9218 14.8876 5.84476 15.256L5.5556 16.639L10.1187 13.9257ZM10.7576 15.0002H15.8333C17.6743 15.0002 19.1667 13.5078 19.1667 11.6668V4.16683C19.1667 2.32588 17.6743 0.833496 15.8333 0.833496H4.16668C2.32573 0.833496 0.833344 2.32588 0.833344 4.16683V11.6668C0.833344 13.2312 1.91103 14.5439 3.3645 14.903C3.62144 14.9665 3.89013 15.0002 4.16668 15.0002H4.62122L4.13804 17.311C3.98959 18.021 4.75618 18.5686 5.37963 18.1979L10.7576 15.0002Z" fill="#18202A"/>
</svg>
