<svg width="20" height="20" viewBox="0 0 20 20" fill="none" xmlns="http://www.w3.org/2000/svg">
<path d="M13.3586 10.8583C13.6027 10.6142 13.6027 10.2185 13.3586 9.9744C13.1145 9.73032 12.7188 9.73032 12.4747 9.9744L8.75001 13.6991L7.52528 12.4744C7.2812 12.2303 6.88548 12.2303 6.6414 12.4744C6.39732 12.7185 6.39732 13.1142 6.6414 13.3583L8.30807 15.025C8.55214 15.269 8.94787 15.269 9.19195 15.025L13.3586 10.8583Z" fill="#18202A"/>
<path fill-rule="evenodd" clip-rule="evenodd" d="M14.1709 4.99967C13.8705 4.99967 13.6156 4.78913 13.5094 4.5081C12.9741 3.09087 11.6048 2.08301 10.0002 2.08301C7.9291 2.08301 6.25017 3.76194 6.25017 5.83301V6.66634H15.0002C16.8411 6.66634 18.3335 8.15873 18.3335 9.99967V15.833C18.3335 17.674 16.8411 19.1663 15.0002 19.1663H5.00017C3.15922 19.1663 1.66684 17.674 1.66684 15.833V9.99967C1.66684 8.15872 3.15922 6.66634 5.00017 6.66634V5.83301C5.00017 3.07158 7.23875 0.833008 10.0002 0.833008C12.2129 0.833008 14.0899 2.27037 14.7485 4.26233C14.8734 4.64 14.5687 4.99967 14.1709 4.99967ZM5.00017 7.91634C3.84958 7.91634 2.91684 8.84908 2.91684 9.99967V15.833C2.91684 16.9836 3.84958 17.9163 5.00017 17.9163H15.0002C16.1508 17.9163 17.0835 16.9836 17.0835 15.833V9.99967C17.0835 8.84908 16.1508 7.91634 15.0002 7.91634H5.00017Z" fill="#18202A"/>
</svg>
