<svg width="20" height="20" viewBox="0 0 20 20" fill="none" xmlns="http://www.w3.org/2000/svg">
<g clip-path="url(#clip0_3352_8874)">
<path fill-rule="evenodd" clip-rule="evenodd" d="M18.3333 6.04167C18.3333 5.98641 18.3113 5.93342 18.2723 5.89435C18.2332 5.85528 18.1802 5.83333 18.125 5.83333H14.5833C14.0308 5.83333 13.5009 5.61384 13.1102 5.22314C12.7195 4.83244 12.5 4.30253 12.5 3.75V0.208333C12.5 0.15308 12.478 0.100089 12.4389 0.0610194C12.3999 0.0219493 12.3469 0 12.2916 0H3.33329C2.89127 0 2.46734 0.175595 2.15478 0.488155C1.84222 0.800716 1.66663 1.22464 1.66663 1.66667V18.3333C1.66663 18.7754 1.84222 19.1993 2.15478 19.5118C2.46734 19.8244 2.89127 20 3.33329 20H16.6666C17.1087 20 17.5326 19.8244 17.8451 19.5118C18.1577 19.1993 18.3333 18.7754 18.3333 18.3333V6.04167ZM9.16663 12.0833L6.66663 8.33333H8.33329L9.99996 10.8333L11.6666 8.33333H13.3333L10.8333 12.0833L13.3333 15.8333H11.6666L9.99996 13.3333L8.33329 15.8333H6.66663L9.16663 12.0833Z" fill="#18202A"/>
<path d="M13.6994 4.63387C13.9338 4.86829 14.2518 4.99999 14.5833 4.99999H17.8333C17.8745 5.00006 17.9149 4.98788 17.9492 4.965C17.9836 4.94211 18.0103 4.90955 18.0261 4.87143C18.0419 4.83332 18.046 4.79137 18.038 4.75091C18.0299 4.71045 18.01 4.67329 17.9808 4.64416L13.6891 0.355823C13.6602 0.326806 13.6233 0.306967 13.5832 0.298788C13.543 0.290609 13.5014 0.294454 13.4634 0.309842C13.4254 0.32523 13.3928 0.351477 13.3697 0.385299C13.3465 0.41912 13.3339 0.459015 13.3333 0.49999V3.74999C13.3333 4.08151 13.465 4.39945 13.6994 4.63387Z" fill="#18202A"/>
</g>
<defs>
<clipPath id="clip0_3352_8874">
<rect width="20" height="20" fill="white"/>
</clipPath>
</defs>
</svg>
