<svg width="20" height="20" viewBox="0 0 20 20" fill="none" xmlns="http://www.w3.org/2000/svg">
<path fill-rule="evenodd" clip-rule="evenodd" d="M3.50591 2.32733C3.18047 2.00189 2.65284 2.00189 2.3274 2.32733C2.00196 2.65277 2.00196 3.1804 2.3274 3.50584L4.41105 5.58949C2.88198 6.82764 1.73177 8.28792 1.10197 9.17857C0.751046 9.67483 0.751045 10.325 1.10197 10.8213C2.36223 12.6035 5.70623 16.6666 9.99998 16.6666C11.543 16.6666 12.9633 16.1419 14.2084 15.3869L16.4941 17.6725C16.8195 17.9979 17.3471 17.9979 17.6726 17.6725C17.998 17.3471 17.998 16.8194 17.6726 16.494L15.5889 14.4103L15.5896 14.4098L12.8723 11.6924L12.8718 11.6932L11.6102 10.4316L11.6105 10.4306L9.56931 8.38943L9.56828 8.38971L8.30668 7.1281L8.3075 7.12762L5.79236 4.61248L5.79155 4.61297L3.50591 2.32733ZM7.12817 8.30661C6.83493 8.80287 6.66665 9.38174 6.66665 9.99992C6.66665 11.8409 8.15904 13.3333 9.99999 13.3333C10.6182 13.3333 11.197 13.165 11.6933 12.8717L10.4317 11.6101C10.294 11.647 10.1493 11.6666 9.99999 11.6666C9.07951 11.6666 8.33332 10.9204 8.33332 9.99992C8.33332 9.85062 8.35295 9.7059 8.38977 9.56822L7.12817 8.30661Z" fill="#18202A"/>
<path d="M10.21 6.67309C11.8837 6.77714 13.2228 8.11625 13.3268 9.78991L16.8267 13.2898C17.7447 12.3688 18.4519 11.4521 18.898 10.8213C19.2489 10.325 19.2489 9.67483 18.898 9.17857C17.6377 7.39635 14.2937 3.33325 9.99998 3.33325C9.07603 3.33325 8.19606 3.52139 7.37136 3.83446L10.21 6.67309Z" fill="#18202A"/>
</svg>
