<svg width="28" height="28" viewBox="0 0 28 28" fill="none" xmlns="http://www.w3.org/2000/svg">
<path fill-rule="evenodd" clip-rule="evenodd" d="M4.66666 6.7085C4.66666 6.22525 5.05841 5.8335 5.54166 5.8335H22.4583C24.8746 5.8335 26.8333 7.79225 26.8333 10.2085V15.1668C26.8333 15.6501 26.4416 16.0418 25.9583 16.0418C25.4751 16.0418 25.0833 15.6501 25.0833 15.1668V10.2085C25.0833 8.75875 23.9081 7.5835 22.4583 7.5835H5.54166C5.05841 7.5835 4.66666 7.19175 4.66666 6.7085ZM2.04166 10.7918C2.52491 10.7918 2.91666 11.1836 2.91666 11.6668V21.0002C2.91666 22.4499 4.09191 23.6252 5.54166 23.6252H22.4583C23.9081 23.6252 25.0833 22.4499 25.0833 21.0002V17.5002C25.0833 17.0169 25.4751 16.6252 25.9583 16.6252C26.4416 16.6252 26.8333 17.0169 26.8333 17.5002V21.0002C26.8333 23.4164 24.8746 25.3752 22.4583 25.3752H5.54166C3.12541 25.3752 1.16666 23.4164 1.16666 21.0002V11.6668C1.16666 11.1836 1.55841 10.7918 2.04166 10.7918Z" fill="#18202A"/>
<path fill-rule="evenodd" clip-rule="evenodd" d="M1.16666 6.7085C1.16666 4.29225 3.12541 2.3335 5.54166 2.3335H19.5417C21.3136 2.3335 22.75 3.76992 22.75 5.54183V6.7085C22.75 7.19175 22.3582 7.5835 21.875 7.5835C21.3917 7.5835 21 7.19175 21 6.7085V5.54183C21 4.73641 20.3471 4.0835 19.5417 4.0835H5.54166C4.09191 4.0835 2.91666 5.25875 2.91666 6.7085V11.3752C2.91666 11.8584 2.52491 12.2502 2.04166 12.2502C1.55841 12.2502 1.16666 11.8584 1.16666 11.3752V6.7085Z" fill="#18202A"/>
<path fill-rule="evenodd" clip-rule="evenodd" d="M13.125 14.8752C13.125 13.1032 14.5614 11.6668 16.3333 11.6668H24.7917C25.9192 11.6668 26.8333 12.5809 26.8333 13.7085V18.9585C26.8333 20.0861 25.9192 21.0002 24.7917 21.0002H16.3333C14.5614 21.0002 13.125 19.5637 13.125 17.7918V14.8752ZM16.3333 13.4168C15.5279 13.4168 14.875 14.0697 14.875 14.8752V17.7918C14.875 18.5972 15.5279 19.2502 16.3333 19.2502H24.7917C24.9527 19.2502 25.0833 19.1196 25.0833 18.9585V13.7085C25.0833 13.5474 24.9527 13.4168 24.7917 13.4168H16.3333Z" fill="#18202A"/>
<path d="M18.6667 16.3335C18.6667 16.9778 18.1443 17.5002 17.5 17.5002C16.8557 17.5002 16.3333 16.9778 16.3333 16.3335C16.3333 15.6892 16.8557 15.1668 17.5 15.1668C18.1443 15.1668 18.6667 15.6892 18.6667 16.3335Z" fill="#18202A"/>
</svg>
