<svg width="20" height="20" viewBox="0 0 20 20" fill="none" xmlns="http://www.w3.org/2000/svg">
<g clip-path="url(#clip0_2266_35513)">
<path fill-rule="evenodd" clip-rule="evenodd" d="M1.64573 10.0206L9.97906 1.68728C10.526 1.1403 11.2679 0.833008 12.0415 0.833008H17.0833C18.2339 0.833008 19.1667 1.76575 19.1667 2.91634V7.95822C19.1667 8.73177 18.8594 9.47363 18.3124 10.0206L9.97906 18.3539C8.84004 19.493 6.9933 19.493 5.85427 18.3539L1.64573 14.1454C0.506698 13.0064 0.5067 11.1596 1.64573 10.0206ZM14.5833 6.66634C15.2737 6.66634 15.8333 6.1067 15.8333 5.41634C15.8333 4.72599 15.2737 4.16634 14.5833 4.16634C13.893 4.16634 13.3333 4.72599 13.3333 5.41634C13.3333 6.1067 13.893 6.66634 14.5833 6.66634Z" fill="#18202A"/>
</g>
<defs>
<clipPath id="clip0_2266_35513">
<rect width="20" height="20" fill="white"/>
</clipPath>
</defs>
</svg>
