<svg width="20" height="20" viewBox="0 0 20 20" fill="none" xmlns="http://www.w3.org/2000/svg">
<path d="M5.83333 3.33317H9.16667C10.5474 3.33317 11.6667 4.45246 11.6667 5.83317C11.6667 6.29341 12.0398 6.6665 12.5 6.6665C12.9602 6.6665 13.3333 6.29341 13.3333 5.83317C13.3333 3.53198 11.4679 1.6665 9.16667 1.6665H5.83333C3.53215 1.6665 1.66667 3.53198 1.66667 5.83317V14.1665C1.66667 16.4677 3.53215 18.3332 5.83333 18.3332H9.16667C11.4679 18.3332 13.3333 16.4677 13.3333 14.1665C13.3333 13.7063 12.9602 13.3332 12.5 13.3332C12.0398 13.3332 11.6667 13.7063 11.6667 14.1665C11.6667 15.5472 10.5474 16.6665 9.16667 16.6665H5.83333C4.45262 16.6665 3.33333 15.5472 3.33333 14.1665V5.83317C3.33333 4.45246 4.45262 3.33317 5.83333 3.33317Z" fill="#18202A"/>
<path fill-rule="evenodd" clip-rule="evenodd" d="M14.4107 6.91058C14.7362 6.58514 15.2638 6.58514 15.5893 6.91058L18.0893 9.41058C18.4147 9.73602 18.4147 10.2637 18.0893 10.5891L15.5893 13.0891C15.2638 13.4145 14.7362 13.4145 14.4107 13.0891C14.0853 12.7637 14.0853 12.236 14.4107 11.9106L15.4882 10.8332H7.5C7.03976 10.8332 6.66667 10.4601 6.66667 9.99984C6.66667 9.5396 7.03976 9.1665 7.5 9.1665H15.4882L14.4107 8.08909C14.0853 7.76366 14.0853 7.23602 14.4107 6.91058Z" fill="#18202A"/>
</svg>
