<svg width="20" height="20" viewBox="0 0 20 20" fill="none" xmlns="http://www.w3.org/2000/svg">
<g clip-path="url(#clip0_2266_37423)">
<path d="M0 8.33352C0 6.9528 1.11929 5.83352 2.5 5.83352H3.33333V14.1669H2.5C1.11929 14.1669 0 13.0476 0 11.6669V8.33352Z" fill="#18202A"/>
<path d="M5 14.9285V5.07188L9.01117 1.40583C10.3482 0.183885 12.5 1.13238 12.5 2.94364V17.0569C12.5 18.8682 10.3481 19.8167 9.01113 18.5947L5 14.9285Z" fill="#18202A"/>
<path d="M19.807 8.1385C20.1028 7.78594 20.0568 7.26031 19.7042 6.96447C19.3517 6.66864 18.8261 6.71462 18.5302 7.06719L17.026 8.85989L15.5217 7.06719C15.2259 6.71462 14.7003 6.66864 14.3477 6.96447C13.9951 7.26031 13.9491 7.78594 14.245 8.1385L15.9381 10.1563L14.245 12.1741C13.9491 12.5267 13.9951 13.0523 14.3477 13.3482C14.7002 13.644 15.2259 13.598 15.5217 13.2455L17.026 11.4528L18.5302 13.2455C18.8261 13.598 19.3517 13.644 19.7043 13.3482C20.0568 13.0523 20.1028 12.5267 19.807 12.1741L18.1138 10.1563L19.807 8.1385Z" fill="#18202A"/>
</g>
<defs>
<clipPath id="clip0_2266_37423">
<rect width="20" height="20" fill="white"/>
</clipPath>
</defs>
</svg>
