<svg width="20" height="20" viewBox="0 0 20 20" fill="none" xmlns="http://www.w3.org/2000/svg">
<g clip-path="url(#clip0_2266_37804)">
<path fill-rule="evenodd" clip-rule="evenodd" d="M10 9.16634C12.2222 9.16634 13.3333 7.08301 13.3333 4.47884C13.3333 2.39551 12.2222 0.833008 10 0.833008C7.77778 0.833008 6.66667 2.39551 6.66667 4.47884C6.66667 7.08301 7.77778 9.16634 10 9.16634ZM10 10.833C10.8106 10.833 11.5942 10.9487 12.3351 11.1646C10.9172 12.2287 10 13.9238 10 15.833C10 17.0574 10.3773 18.1938 11.0219 19.1321C10.6842 19.1548 10.3434 19.1663 10 19.1663C8.71051 19.1663 7.45902 19.0036 6.26494 18.6976C5.24908 18.4373 4.38809 17.7568 3.91655 16.8201L3.87764 16.7422C3.22579 15.4258 3.44745 13.8131 4.55972 12.8537C6.01956 11.5944 7.92088 10.833 10 10.833ZM20 15.833C20 18.1342 18.1345 19.9997 15.8333 19.9997C13.5321 19.9997 11.6667 18.1342 11.6667 15.833C11.6667 13.5318 13.5321 11.6663 15.8333 11.6663C18.1345 11.6663 20 13.5318 20 15.833ZM15.8333 12.7497C15.3671 12.7497 14.974 12.7817 14.6738 12.8191C13.9771 12.9058 13.5417 13.5079 13.5417 14.1342V14.3153C13.5417 14.7043 13.6962 15.0775 13.9713 15.3525C14.2154 15.5966 14.6111 15.5966 14.8552 15.3525C15.0993 15.1085 15.0993 14.7127 14.8552 14.4687C14.8145 14.428 14.7917 14.3728 14.7917 14.3153L14.7917 14.1342C14.7917 14.1006 14.803 14.0791 14.811 14.0694C14.8149 14.0647 14.8178 14.0628 14.8192 14.062C14.8201 14.0615 14.8224 14.0602 14.8283 14.0595C15.0828 14.0278 15.424 13.9997 15.8333 13.9997C16.2108 13.9997 16.5304 14.0236 16.7775 14.0522C16.8027 14.0551 16.8213 14.0652 16.838 14.0855C16.857 14.1084 16.875 14.1476 16.875 14.201C16.875 14.513 16.6931 14.7965 16.4094 14.9265L15.9517 15.1362C15.4988 15.3438 15.2083 15.7964 15.2083 16.2947C15.2083 16.6398 15.4882 16.9197 15.8333 16.9197C16.1785 16.9197 16.4583 16.6398 16.4583 16.2947C16.4583 16.2852 16.4639 16.2765 16.4725 16.2726L16.9302 16.0628C17.6582 15.7292 18.125 15.0018 18.125 14.201C18.125 13.5362 17.6624 12.8962 16.9212 12.8105C16.6312 12.7769 16.2634 12.7497 15.8333 12.7497ZM15.8333 19.1663C16.2936 19.1663 16.6667 18.7932 16.6667 18.333C16.6667 17.8728 16.2936 17.4997 15.8333 17.4997C15.3731 17.4997 15 17.8728 15 18.333C15 18.7932 15.3731 19.1663 15.8333 19.1663Z" fill="#18202A"/>
</g>
<defs>
<clipPath id="clip0_2266_37804">
<rect width="20" height="20" fill="white"/>
</clipPath>
</defs>
</svg>
