<svg width="20" height="20" viewBox="0 0 20 20" fill="none" xmlns="http://www.w3.org/2000/svg">
<path fill-rule="evenodd" clip-rule="evenodd" d="M10.2084 1.66667C9.63307 1.66667 9.1667 2.13304 9.1667 2.70834V8.95834C9.1667 9.06407 9.08793 9.15141 8.98587 9.16487H8.93086C8.8288 9.15141 8.75003 9.06407 8.75003 8.95834V4.37501C8.75003 3.79971 8.28366 3.33334 7.70836 3.33334C7.13307 3.33334 6.6667 3.79971 6.6667 4.37501L6.6667 9.16487L6.6667 10.4167C6.6667 10.4168 6.6667 10.417 6.6667 10.4171V10.8333L5.4417 9.60834C5.19631 9.36323 4.87607 9.20715 4.53183 9.16487C4.18759 9.1226 3.8391 9.19656 3.5417 9.375C3.26249 9.5424 3.0596 9.81212 2.97618 10.1268C2.89277 10.4415 2.93541 10.7763 3.09503 11.06C4.66086 13.8433 5.57336 15.4342 5.83336 15.8333C5.88759 15.9168 5.94204 16.0001 5.9967 16.0833C6.45213 16.7749 7.07218 17.3425 7.80118 17.7352C8.52969 18.1277 9.3442 18.3332 10.1717 18.3333H10.1734H12.0834C13.738 18.3333 14.5592 17.512 15.1885 16.8826L15.2022 16.8689C16.1399 15.9312 16.25 14.6594 16.25 13.3333V10.4167V9.16487V6.04167C16.25 5.46638 15.7837 5.00001 15.2084 5.00001C14.6331 5.00001 14.1667 5.46638 14.1667 6.04167V8.95834C14.1667 9.06407 14.0879 9.15141 13.9859 9.16487H13.9309C13.8288 9.15141 13.75 9.06407 13.75 8.95834V4.37501C13.75 3.79971 13.2837 3.33334 12.7084 3.33334C12.1331 3.33334 11.6667 3.79971 11.6667 4.37501V8.95834C11.6667 9.06407 11.5879 9.15141 11.4859 9.16487H11.4309C11.3288 9.15141 11.25 9.06407 11.25 8.95834V2.70834C11.25 2.13304 10.7837 1.66667 10.2084 1.66667Z" fill="#18202A"/>
</svg>
