<svg width="20" height="20" viewBox="0 0 20 20" fill="none" xmlns="http://www.w3.org/2000/svg">
<g clip-path="url(#clip0_2266_36766)">
<path fill-rule="evenodd" clip-rule="evenodd" d="M10 17.5002C14.1421 17.5002 17.5 14.1423 17.5 10.0002C17.5 5.85803 14.1421 2.50016 10 2.50016C5.85787 2.50016 2.5 5.85803 2.5 10.0002C2.5 14.1423 5.85787 17.5002 10 17.5002ZM10 19.1668C15.0626 19.1668 19.1667 15.0628 19.1667 10.0002C19.1667 4.93755 15.0626 0.833496 10 0.833496C4.93739 0.833496 0.833334 4.93755 0.833334 10.0002C0.833334 15.0628 4.93739 19.1668 10 19.1668Z" fill="#18202A"/>
<path fill-rule="evenodd" clip-rule="evenodd" d="M9.62732 0.921473C9.86193 0.80417 10.1381 0.80417 10.3727 0.921473C13.6541 2.56219 15.2083 6.14282 15.2083 9.68766C15.2083 13.2384 13.6566 16.9735 10.4506 19.0345C10.1761 19.2109 9.82388 19.2109 9.54937 19.0345C6.34343 16.9735 4.79167 13.2384 4.79167 9.68766C4.79167 6.14282 6.34588 2.56219 9.62732 0.921473ZM9.16667 3.20222C7.39393 4.68135 6.45833 7.10069 6.45833 9.68766C6.45833 12.2482 7.38006 14.825 9.16667 16.5995V3.20222ZM10.8333 16.5995V3.20222C12.6061 4.68135 13.5417 7.10069 13.5417 9.68766C13.5417 12.2482 12.6199 14.825 10.8333 16.5995Z" fill="#18202A"/>
<path fill-rule="evenodd" clip-rule="evenodd" d="M18.3333 10.8335H1.66667V9.16683H18.3333V10.8335Z" fill="#18202A"/>
</g>
<defs>
<clipPath id="clip0_2266_36766">
<rect width="20" height="20" fill="white"/>
</clipPath>
</defs>
</svg>
