<svg width="20" height="20" viewBox="0 0 20 20" fill="none" xmlns="http://www.w3.org/2000/svg">
<path d="M3.33329 4.16659C3.33329 3.70635 2.9602 3.33325 2.49996 3.33325C2.03972 3.33325 1.66663 3.70635 1.66663 4.16659V15.8333C1.66663 16.2935 2.03972 16.6666 2.49996 16.6666C2.9602 16.6666 3.33329 16.2935 3.33329 15.8333V10.8333L9.99996 10.8333V15.8333C9.99996 16.2935 10.3731 16.6666 10.8333 16.6666C11.2935 16.6666 11.6666 16.2935 11.6666 15.8333V4.16659C11.6666 3.70635 11.2935 3.33325 10.8333 3.33325C10.3731 3.33325 9.99996 3.70635 9.99996 4.16659V9.16658H3.33329V4.16659Z" fill="#18202A"/>
<path d="M18.3333 9.16659C18.3333 8.85926 18.1641 8.57687 17.8932 8.43186C17.6222 8.28684 17.2934 8.30274 17.0377 8.47321L14.5377 10.1399C14.1548 10.3952 14.0513 10.9126 14.3066 11.2955C14.5619 11.6784 15.0793 11.7819 15.4622 11.5266L16.6666 10.7237V15.8333C16.6666 16.2935 17.0397 16.6666 17.4999 16.6666C17.9602 16.6666 18.3333 16.2935 18.3333 15.8333V9.16659Z" fill="#18202A"/>
</svg>
