<svg width="20" height="20" viewBox="0 0 20 20" fill="none" xmlns="http://www.w3.org/2000/svg">
<path fill-rule="evenodd" clip-rule="evenodd" d="M2.31392 1.96753C1.94522 1.59883 1.38228 1.56399 1.05655 1.88972C0.730822 2.21545 0.76566 2.77839 1.13436 3.14709L1.82769 3.84042C1.22368 4.29678 0.833333 5.02098 0.833333 5.83636V12.503C0.833333 13.8837 1.95262 15.003 3.33333 15.003H0.833333C0.373096 15.003 0 15.3761 0 15.8364C0 16.2966 0.373096 16.6697 0.833334 16.6697H14.657L16.0194 18.0321C16.3881 18.4008 16.9511 18.4357 17.2768 18.11C17.6025 17.7842 17.5677 17.2213 17.199 16.8526L2.31392 1.96753ZM8.72819 10.7409L7.06142 9.07415C6.31057 9.88337 5.83331 11.0897 5.83331 12.8342C5.83331 12.9282 5.89628 13.0106 5.98701 13.0353C6.07773 13.0599 6.17373 13.0208 6.22132 12.9397C6.78104 11.9861 7.22547 11.4055 7.8901 11.0491C8.13089 10.92 8.40438 10.8183 8.72819 10.7409Z" fill="#18202A"/>
<path d="M19.1667 5.83636C19.1667 4.45565 18.0474 3.33636 16.6667 3.33636H6.035L10.3521 7.65344C10.5135 7.64017 10.6742 7.63204 10.8333 7.62832V6.25386C10.8333 5.88265 11.2821 5.69675 11.5446 5.95923L14.375 8.78961C14.5377 8.95232 14.5377 9.21614 14.375 9.37886L13.2262 10.5276L17.5436 14.8449C18.4917 14.4897 19.1667 13.5752 19.1667 12.503V5.83636Z" fill="#18202A"/>
<path d="M19.3485 16.6498L17.7017 15.003H19.1667C19.6269 15.003 20 15.3761 20 15.8364C20 16.2342 19.7213 16.5669 19.3485 16.6498Z" fill="#18202A"/>
</svg>
