<svg width="20" height="20" viewBox="0 0 20 20" fill="none" xmlns="http://www.w3.org/2000/svg">
<g clip-path="url(#clip0_2266_39634)">
<path d="M1.01752 1.01767C1.26308 0.772105 1.66122 0.772105 1.90679 1.01767L17.3158 16.4267C17.5614 16.6723 17.5614 17.0704 17.3158 17.316C17.0703 17.5616 16.6721 17.5616 16.4266 17.316L1.01752 1.90694C0.771952 1.66137 0.771952 1.26323 1.01752 1.01767Z" fill="#18202A"/>
<path d="M3.59863 2.7107L1.57015 3.32085L1.46364 3.35903C1.08444 3.51795 0.833344 3.88012 0.833344 4.28571C0.833344 14.5945 5.98912 17.4234 9.10999 18.8677L9.55134 19.0699C9.69343 19.1345 9.84684 19.1668 10.0003 19.1668C10.1536 19.1668 10.3066 19.1345 10.4483 19.0699C11.991 18.3673 14.2062 17.3579 16.0176 15.1297L15.1285 14.2405C15.0821 14.2991 15.0351 14.357 14.9877 14.4143L14.8164 14.6168C13.7367 15.8663 12.6374 16.6273 10.8615 17.4945L10.2436 17.7883L9.99918 17.9002L9.75518 17.7878C7.50371 16.7421 6.26866 15.9306 5.01231 14.4141L4.84414 14.2057C3.12983 12.0234 2.14605 8.96248 2.08624 4.70179L2.08418 4.471L4.60178 3.71386L3.59863 2.7107Z" fill="#18202A"/>
<path d="M5.59976 4.71184L3.33334 5.3935L3.33601 5.4704C3.49199 9.04546 4.36708 11.5986 5.79706 13.4239L5.95239 13.6167C6.96236 14.8357 7.96917 15.5475 9.7218 16.3991L9.97751 16.5218L10.2315 16.3999C11.8974 15.5907 12.8899 14.9075 13.851 13.796L14.0026 13.6168C14.0782 13.5255 14.1524 13.4323 14.2251 13.3372L13.3321 12.4442C13.2386 12.5721 13.1425 12.6954 13.044 12.8145L12.9012 12.9833C12.1407 13.8617 11.3619 14.4358 9.97744 15.1313C8.52079 14.3995 7.72828 13.7994 6.92027 12.8256L6.77599 12.6465C5.66599 11.2266 4.88433 9.21623 4.64099 6.30552L6.60326 5.71533L5.59976 4.71184Z" fill="#18202A"/>
<path d="M7.96228 5.30659L6.95878 4.30309L9.97751 3.39516L16.6208 5.3935L16.5996 5.84798C16.4401 8.54477 15.8583 10.6416 14.9288 12.2731L14.0072 11.3515C14.6745 10.0667 15.1366 8.42485 15.3139 6.30569L9.97749 4.70048L7.96228 5.30659Z" fill="#18202A"/>
<path d="M15.8553 13.1996C17.1362 11.1101 17.8626 8.34422 17.9138 4.70072L17.915 4.471L10.0008 2.09016L5.96083 3.30514L4.95762 2.30193L9.68759 0.879216C9.85053 0.830448 10.0226 0.820694 10.1892 0.849955L10.3128 0.879216L18.4303 3.32085C18.8683 3.45286 19.1671 3.84365 19.1667 4.28571C19.1667 8.84751 18.1571 11.9447 16.761 14.1053L15.8553 13.1996Z" fill="#18202A"/>
</g>
<defs>
<clipPath id="clip0_2266_39634">
<rect width="20" height="20" fill="white"/>
</clipPath>
</defs>
</svg>
