<svg width="20" height="20" viewBox="0 0 20 20" fill="none" xmlns="http://www.w3.org/2000/svg">
<path d="M1.66667 10.0003C1.66667 9.07985 2.41286 8.33366 3.33333 8.33366H4.16667C5.08714 8.33366 5.83333 9.07985 5.83333 10.0003V16.667C5.83333 17.5875 5.08714 18.3337 4.16667 18.3337H3.33333C2.41286 18.3337 1.66667 17.5875 1.66667 16.667V10.0003Z" fill="#18202A"/>
<path d="M7.91667 3.33366C7.91667 2.41318 8.66286 1.66699 9.58333 1.66699H10.4167C11.3371 1.66699 12.0833 2.41318 12.0833 3.33366V16.667C12.0833 17.5875 11.3371 18.3337 10.4167 18.3337H9.58333C8.66286 18.3337 7.91667 17.5875 7.91667 16.667V3.33366Z" fill="#18202A"/>
<path d="M14.1667 6.66699C14.1667 5.74652 14.9129 5.00033 15.8333 5.00033H16.6667C17.5871 5.00033 18.3333 5.74652 18.3333 6.66699V16.667C18.3333 17.5875 17.5871 18.3337 16.6667 18.3337H15.8333C14.9129 18.3337 14.1667 17.5875 14.1667 16.667V6.66699Z" fill="#18202A"/>
</svg>
