<svg width="20" height="20" viewBox="0 0 20 20" fill="none" xmlns="http://www.w3.org/2000/svg">
<g clip-path="url(#clip0_3046_8594)">
<path d="M19.1666 4.16683C19.1666 6.00778 17.6743 7.50016 15.8333 7.50016C13.9924 7.50016 12.5 6.00778 12.5 4.16683C12.5 2.32588 13.9924 0.833496 15.8333 0.833496C17.6743 0.833496 19.1666 2.32588 19.1666 4.16683Z" fill="#18202A"/>
<path d="M10.1342 2.91683C10.2296 2.47984 10.374 2.06116 10.5613 1.66683H4.16665C2.3257 1.66683 0.833313 3.15921 0.833313 5.00016V12.5002C0.833313 14.0646 1.911 15.3773 3.36447 15.7363C3.62141 15.7998 3.8901 15.8335 4.16665 15.8335H4.62119L4.13801 18.1444C3.98956 18.8543 4.75615 19.4019 5.3796 19.0312L10.7576 15.8335H15.8333C17.6743 15.8335 19.1666 14.3411 19.1666 12.5002V8.95459C18.7814 9.22333 18.3621 9.44676 17.9166 9.61714V12.5002C17.9166 13.6508 16.9839 14.5835 15.8333 14.5835H10.7576C10.5327 14.5835 10.312 14.6442 10.1187 14.7591L5.55557 17.4723L5.84473 16.0893C5.92177 15.7209 5.82868 15.3374 5.59132 15.0452C5.35396 14.7531 4.99759 14.5835 4.62119 14.5835H4.16665C3.01605 14.5835 2.08331 13.6508 2.08331 12.5002V5.00016C2.08331 3.84957 3.01605 2.91683 4.16665 2.91683H10.1342Z" fill="#18202A"/>
</g>
<defs>
<clipPath id="clip0_3046_8594">
<rect width="20" height="20" fill="white"/>
</clipPath>
</defs>
</svg>
