<svg width="20" height="20" viewBox="0 0 20 20" fill="none" xmlns="http://www.w3.org/2000/svg">
<g clip-path="url(#clip0_2414_8636)">
<path fill-rule="evenodd" clip-rule="evenodd" d="M10.4167 17.9058C10.2787 17.913 10.1397 17.9166 9.99998 17.9166C5.62773 17.9166 2.08331 14.3722 2.08331 9.99992C2.08331 5.62766 5.62773 2.08325 9.99998 2.08325C14.3722 2.08325 17.9166 5.62766 17.9166 9.99992C17.9166 10.402 17.8867 10.7971 17.8288 11.1831C18.243 11.4771 18.6012 11.8448 18.8841 12.2672C19.0686 11.5421 19.1666 10.7825 19.1666 9.99992C19.1666 4.93731 15.0626 0.833252 9.99998 0.833252C4.93737 0.833252 0.833313 4.93731 0.833313 9.99992C0.833313 15.0625 4.93737 19.1666 9.99998 19.1666C10.3124 19.1666 10.6212 19.151 10.9256 19.1204C10.6013 18.8022 10.4182 18.357 10.4167 17.9058ZM11.2532 14.6322C10.8467 14.7377 10.4248 14.7916 9.99998 14.7916C9.23462 14.7916 8.47891 14.6167 7.80557 14.2801C7.13206 13.9433 6.5593 13.4536 6.1498 12.8513C5.95572 12.5659 6.02978 12.1772 6.31523 11.9831C6.60067 11.789 6.98941 11.8631 7.18349 12.1485C7.46534 12.563 7.86988 12.9147 8.36459 13.162C8.85946 13.4095 9.42313 13.5416 9.99998 13.5416C10.5156 13.5416 11.0207 13.436 11.4755 13.2369C11.3314 13.6592 11.2532 14.1121 11.2532 14.5833V14.6322ZM8.33331 8.33325C8.33331 9.25373 7.77367 9.99992 7.08331 9.99992C6.39296 9.99992 5.83331 9.25373 5.83331 8.33325C5.83331 7.41278 6.39296 6.66659 7.08331 6.66659C7.77367 6.66659 8.33331 7.41278 8.33331 8.33325ZM12.9166 9.99992C13.607 9.99992 14.1666 9.25373 14.1666 8.33325C14.1666 7.41278 13.607 6.66659 12.9166 6.66659C12.2263 6.66659 11.6666 7.41278 11.6666 8.33325C11.6666 9.25373 12.2263 9.99992 12.9166 9.99992Z" fill="#18202A"/>
<path fill-rule="evenodd" clip-rule="evenodd" d="M18.3334 14.5834L18.3333 14.5952V16.0834C18.3333 16.7129 18.6297 17.3057 19.1333 17.6834C19.411 17.8916 19.2637 18.3334 18.9167 18.3334H11.9167C11.5696 18.3334 11.4224 17.8916 11.7 17.6834C12.2036 17.3057 12.5 16.7129 12.5 16.0834V14.5834C12.5 14.5834 12.5 14.5834 12.5 14.5834C12.5 14.5834 12.5 14.5834 12.5 14.5834C12.5 12.9726 13.8059 11.6667 15.4167 11.6667C17.0275 11.6667 18.3334 12.9726 18.3334 14.5834ZM14.5834 19.1667C14.3533 19.1667 14.1667 19.3533 14.1667 19.5834C14.1667 19.8135 14.3533 20.0001 14.5834 20.0001H16.25C16.4802 20.0001 16.6667 19.8135 16.6667 19.5834C16.6667 19.3533 16.4802 19.1667 16.25 19.1667H14.5834Z" fill="#18202A"/>
</g>
<defs>
<clipPath id="clip0_2414_8636">
<rect width="20" height="20" fill="white"/>
</clipPath>
</defs>
</svg>
