<svg width="20" height="20" viewBox="0 0 20 20" fill="none" xmlns="http://www.w3.org/2000/svg">
<g clip-path="url(#clip0_2266_37411)">
<path d="M0 8.31057C0 6.92986 1.11929 5.81057 2.5 5.81057H3.33333V14.1439H2.5C1.11929 14.1439 0 13.0246 0 11.6439V8.31057Z" fill="#18202A"/>
<path d="M5 14.9056V5.04893L9.01117 1.38288C10.3482 0.160936 12.5 1.10943 12.5 2.92069V17.034C12.5 18.8453 10.3481 19.7938 9.01113 18.5718L5 14.9056Z" fill="#18202A"/>
<path d="M17.1088 5.8919C17.5151 5.67583 18.0197 5.83009 18.2358 6.23646C18.8667 7.42307 19.1967 8.78998 19.1967 10.1776C19.1967 11.5652 18.8667 12.9321 18.2358 14.1187C18.0197 14.525 17.5151 14.6793 17.1088 14.4632C16.7024 14.2472 16.5482 13.7426 16.7642 13.3362C17.2609 12.4021 17.5301 11.3057 17.5301 10.1776C17.5301 9.04947 17.2609 7.95308 16.7642 7.01892C16.5482 6.61255 16.7024 6.10797 17.1088 5.8919Z" fill="#18202A"/>
<path d="M14.5328 7.32366C14.9139 7.06564 15.432 7.16542 15.6901 7.54653C16.2113 8.31642 16.4849 9.25917 16.4849 10.2161C16.4849 11.1731 16.2113 12.1159 15.6901 12.8858C15.432 13.2669 14.9139 13.3666 14.5328 13.1086C14.1517 12.8506 14.0519 12.3325 14.3099 11.9514C14.6317 11.4761 14.8183 10.8635 14.8183 10.2161C14.8183 9.56882 14.6317 8.95617 14.3099 8.4809C14.0519 8.09979 14.1517 7.58168 14.5328 7.32366Z" fill="#18202A"/>
</g>
<defs>
<clipPath id="clip0_2266_37411">
<rect width="20" height="20" fill="white"/>
</clipPath>
</defs>
</svg>
