<svg width="20" height="20" viewBox="0 0 20 20" fill="none" xmlns="http://www.w3.org/2000/svg">
<path d="M6.66663 2.50008C6.66663 2.19275 6.49748 1.91037 6.22651 1.76535C5.95555 1.62034 5.62676 1.63623 5.37105 1.80671L2.87105 3.47337C2.48811 3.72867 2.38463 4.24606 2.63992 4.629C2.89522 5.01194 3.41261 5.11542 3.79555 4.86012L4.99997 4.05718V7.50008C4.99997 7.96032 5.37306 8.33342 5.8333 8.33342C6.29354 8.33342 6.66663 7.96032 6.66663 7.50008V2.50008Z" fill="#18202A"/>
<path d="M4.16665 12.5001C4.16665 12.2429 4.50174 11.6667 5.41665 11.6667C6.26565 11.6667 6.66665 12.1841 6.66665 12.7084C6.66665 12.9301 6.61146 13.0892 6.30503 13.3765C6.05596 13.61 5.73284 13.8454 5.2787 14.1764C5.05362 14.3404 4.79636 14.5278 4.49998 14.7501L2.83332 16.0001C2.54636 16.2153 2.42932 16.59 2.54275 16.9303C2.65617 17.2706 2.97462 17.5001 3.33332 17.5001H7.49998C7.96022 17.5001 8.33332 17.127 8.33332 16.6667C8.33332 16.2065 7.96022 15.8334 7.49998 15.8334H5.83719C5.9444 15.7547 6.0498 15.6778 6.15284 15.6027C6.66453 15.2296 7.11794 14.899 7.44493 14.5924C7.97184 14.0984 8.33332 13.5284 8.33332 12.7084C8.33332 11.1494 7.06765 10.0001 5.41665 10.0001C3.83156 10.0001 2.49998 11.0906 2.49998 12.5001C2.49998 12.9603 2.87308 13.3334 3.33332 13.3334C3.79355 13.3334 4.16665 12.9603 4.16665 12.5001Z" fill="#18202A"/>
<path d="M9.99998 4.16675C9.99998 3.70651 10.3731 3.33341 10.8333 3.33341H17.5C17.9602 3.33341 18.3333 3.70651 18.3333 4.16675C18.3333 4.62699 17.9602 5.00008 17.5 5.00008H10.8333C10.3731 5.00008 9.99998 4.62699 9.99998 4.16675Z" fill="#18202A"/>
<path d="M10.8333 5.83341C10.3731 5.83341 9.99998 6.20651 9.99998 6.66675C9.99998 7.12699 10.3731 7.50008 10.8333 7.50008H17.5C17.9602 7.50008 18.3333 7.12699 18.3333 6.66675C18.3333 6.20651 17.9602 5.83341 17.5 5.83341H10.8333Z" fill="#18202A"/>
<path d="M9.99998 13.3334C9.99998 12.8732 10.3731 12.5001 10.8333 12.5001H17.5C17.9602 12.5001 18.3333 12.8732 18.3333 13.3334C18.3333 13.7937 17.9602 14.1667 17.5 14.1667H10.8333C10.3731 14.1667 9.99998 13.7937 9.99998 13.3334Z" fill="#18202A"/>
<path d="M10.8333 15.0001C10.3731 15.0001 9.99998 15.3732 9.99998 15.8334C9.99998 16.2937 10.3731 16.6667 10.8333 16.6667H17.5C17.9602 16.6667 18.3333 16.2937 18.3333 15.8334C18.3333 15.3732 17.9602 15.0001 17.5 15.0001H10.8333Z" fill="#18202A"/>
</svg>
