<svg width="20" height="20" viewBox="0 0 20 20" fill="none" xmlns="http://www.w3.org/2000/svg">
<path d="M2.49998 2.5C1.57951 2.5 0.833313 3.24619 0.833313 4.16667V7.5C0.833313 8.42047 1.57951 9.16667 2.49998 9.16667H12.5C13.4205 9.16667 14.1666 8.42047 14.1666 7.5V4.16667C14.1666 3.24619 13.4205 2.5 12.5 2.5H2.49998Z" fill="#18202A"/>
<path fill-rule="evenodd" clip-rule="evenodd" d="M0.833313 12.5C0.833313 11.5795 1.57951 10.8333 2.49998 10.8333H12.5C13.4205 10.8333 14.1666 11.5795 14.1666 12.5V15.8333C14.1666 16.7538 13.4205 17.5 12.5 17.5H2.49998C1.57951 17.5 0.833313 16.7538 0.833313 15.8333V12.5ZM2.08331 12.5C2.08331 12.2699 2.26986 12.0833 2.49998 12.0833H12.5C12.7301 12.0833 12.9166 12.2699 12.9166 12.5V15.8333C12.9166 16.0635 12.7301 16.25 12.5 16.25H2.49998C2.26986 16.25 2.08331 16.0635 2.08331 15.8333V12.5Z" fill="#18202A"/>
<path d="M16.1128 4.85779C15.8041 4.70342 15.4286 4.82856 15.2743 5.1373C15.1199 5.44603 15.2451 5.82145 15.5538 5.97582C16.6435 6.5207 17.546 7.61236 17.7695 8.90841C17.9582 10.0029 17.675 11.3251 16.4583 12.6678V11.6667C16.4583 11.3215 16.1785 11.0417 15.8333 11.0417C15.4881 11.0417 15.2083 11.3215 15.2083 11.6667V14.1667C15.2083 14.5118 15.4881 14.7917 15.8333 14.7917H18.3333C18.6785 14.7917 18.9583 14.5118 18.9583 14.1667C18.9583 13.8215 18.6785 13.5417 18.3333 13.5417H17.3527C18.8155 11.9433 19.2668 10.2361 19.0013 8.69603C18.7039 6.97125 17.5231 5.56291 16.1128 4.85779Z" fill="#18202A"/>
</svg>
