<svg width="20" height="20" viewBox="0 0 20 20" fill="none" xmlns="http://www.w3.org/2000/svg">
<g clip-path="url(#clip0_3289_16965)">
<path d="M5.41663 1.25C5.87686 1.25 6.24996 1.6231 6.24996 2.08333V4.16667H8.33492C8.79516 4.16667 9.16825 4.53976 9.16825 5C9.16825 5.46024 8.79516 5.83333 8.33492 5.83333H6.24996V7.91667C6.24996 8.3769 5.87686 8.75 5.41663 8.75C4.95639 8.75 4.58329 8.3769 4.58329 7.91667V5.83333H2.50159C2.04135 5.83333 1.66825 5.46024 1.66825 5C1.66825 4.53976 2.04135 4.16667 2.50159 4.16667H4.58329V2.08333C4.58329 1.6231 4.95639 1.25 5.41663 1.25ZM11.665 4.16667C11.2048 4.16667 10.8317 4.53976 10.8317 5C10.8317 5.46024 11.2048 5.83333 11.665 5.83333H17.4983C17.9586 5.83333 18.3317 5.46024 18.3317 5C18.3317 4.53976 17.9586 4.16667 17.4983 4.16667H11.665ZM10.8333 14.5833C10.8333 14.1231 11.2064 13.75 11.6666 13.75H17.5C17.9602 13.75 18.3333 14.1231 18.3333 14.5833C18.3333 15.0436 17.9602 15.4167 17.5 15.4167H11.6666C11.2064 15.4167 10.8333 15.0436 10.8333 14.5833ZM14.5833 12.9167C15.1586 12.9167 15.625 12.4503 15.625 11.875C15.625 11.2997 15.1586 10.8333 14.5833 10.8333C14.008 10.8333 13.5416 11.2997 13.5416 11.875C13.5416 12.4503 14.008 12.9167 14.5833 12.9167ZM15.625 17.2917C15.625 17.867 15.1586 18.3333 14.5833 18.3333C14.008 18.3333 13.5416 17.867 13.5416 17.2917C13.5416 16.7164 14.008 16.25 14.5833 16.25C15.1586 16.25 15.625 16.7164 15.625 17.2917ZM1.9107 11.0774C2.23614 10.752 2.76378 10.752 3.08921 11.0774L5.41663 13.4048L7.74405 11.0774C8.06949 10.752 8.59712 10.752 8.92256 11.0774C9.248 11.4028 9.248 11.9305 8.92256 12.2559L6.59514 14.5833L8.92255 16.9107C9.24799 17.2362 9.24799 17.7638 8.92255 18.0893C8.59711 18.4147 8.06947 18.4147 7.74404 18.0893L5.41663 15.7618L3.08923 18.0893C2.76379 18.4147 2.23615 18.4147 1.91072 18.0893C1.58528 17.7638 1.58528 17.2362 1.91072 16.9107L4.23812 14.5833L1.9107 12.2559C1.58527 11.9305 1.58527 11.4028 1.9107 11.0774Z" fill="#18202A"/>
</g>
<defs>
<clipPath id="clip0_3289_16965">
<rect width="20" height="20" fill="white"/>
</clipPath>
</defs>
</svg>
