<svg width="20" height="20" viewBox="0 0 20 20" fill="none" xmlns="http://www.w3.org/2000/svg">
<path d="M2.68417 1.85117C2.92974 1.6056 3.32788 1.6056 3.57344 1.85117L17.3158 15.5936C17.5614 15.8391 17.5614 16.2373 17.3158 16.4828C17.0703 16.7284 16.6721 16.7284 16.4266 16.4828L2.68417 2.74043C2.43861 2.49487 2.43861 2.09673 2.68417 1.85117Z" fill="#18202A"/>
<path d="M5.09394 3.37285C3.35447 4.01501 1.77563 4.98881 0.434143 6.21753C0.179602 6.45067 0.180513 6.84751 0.42459 7.09159C0.668668 7.33567 1.06341 7.33444 1.31894 7.10238C2.67394 5.87181 4.29153 4.92522 6.07769 4.35661L5.09394 3.37285Z" fill="#18202A"/>
<path d="M8.49985 6.77877C6.55464 7.0714 4.79293 7.92434 3.38431 9.16798C3.12555 9.39644 3.12679 9.79379 3.37087 10.0379C3.61495 10.2819 4.0093 10.2801 4.27007 10.0539C5.72194 8.79484 7.59259 8.00593 9.64514 7.92406L8.49985 6.77877Z" fill="#18202A"/>
<path d="M11.5411 8.05227L10.157 6.6682C12.6322 6.70631 14.8892 7.64367 16.6157 9.16798C16.8744 9.39644 16.8732 9.79379 16.6291 10.0379C16.385 10.2819 15.9907 10.2801 15.7299 10.0539C14.5631 9.04207 13.1259 8.33387 11.5411 8.05227Z" fill="#18202A"/>
<path d="M7.48406 3.99521L6.44017 2.95132C7.57763 2.65695 8.77052 2.50033 10 2.50033C13.6872 2.50033 17.0455 3.909 19.5658 6.21752C19.8204 6.45067 19.8195 6.84751 19.5754 7.09159C19.3313 7.33566 18.9366 7.33443 18.6811 7.10237C16.3877 5.01959 13.3421 3.75033 10 3.75033C9.13908 3.75033 8.29784 3.83455 7.48406 3.99521Z" fill="#18202A"/>
<path d="M13.6828 12.9841C13.9269 12.7401 13.9288 12.3413 13.6602 12.1246C12.6593 11.3171 11.3861 10.8337 10 10.8337C8.61388 10.8337 7.34069 11.3171 6.33983 12.1246C6.07118 12.3413 6.07307 12.7401 6.31715 12.9841C6.56123 13.2282 6.95476 13.2242 7.2296 13.0154C7.99908 12.4307 8.95901 12.0837 10 12.0837C11.041 12.0837 12.0009 12.4307 12.7704 13.0154C13.0452 13.2242 13.4388 13.2282 13.6828 12.9841Z" fill="#18202A"/>
<path d="M11.6667 16.667C11.6667 17.5875 10.9205 18.3337 10 18.3337C9.07952 18.3337 8.33333 17.5875 8.33333 16.667C8.33333 15.7465 9.07952 15.0003 10 15.0003C10.9205 15.0003 11.6667 15.7465 11.6667 16.667Z" fill="#18202A"/>
</svg>
