<svg width="20" height="20" viewBox="0 0 20 20" fill="none" xmlns="http://www.w3.org/2000/svg">
<path fill-rule="evenodd" clip-rule="evenodd" d="M3.33335 1.66663C2.41288 1.66663 1.66669 2.41282 1.66669 3.33329V4.99996C1.66669 5.92043 2.41288 6.66663 3.33335 6.66663H4.37502V15C4.37502 16.2656 5.40103 17.2916 6.66669 17.2916H12.6212C12.8684 17.9024 13.4672 18.3333 14.1667 18.3333H16.6667C17.5872 18.3333 18.3334 17.5871 18.3334 16.6666V15.8333C18.3334 14.9128 17.5872 14.1666 16.6667 14.1666H14.1667C13.2462 14.1666 12.5 14.9128 12.5 15.8333V16.0416H6.66669C6.09139 16.0416 5.62502 15.5753 5.62502 15V11.4583H12.6212C12.8684 12.0691 13.4672 12.5 14.1667 12.5H16.6667C17.5872 12.5 18.3334 11.7538 18.3334 10.8333V9.99996C18.3334 9.07948 17.5872 8.33329 16.6667 8.33329H14.1667C13.2462 8.33329 12.5 9.07948 12.5 9.99996V10.2083H5.62502V6.66663H7.50002C8.42049 6.66663 9.16669 5.92043 9.16669 4.99996V3.33329C9.16669 2.41282 8.42049 1.66663 7.50002 1.66663H3.33335ZM2.91669 3.33329C2.91669 3.10317 3.10323 2.91663 3.33335 2.91663H7.50002C7.73014 2.91663 7.91669 3.10317 7.91669 3.33329V4.99996C7.91669 5.23008 7.73014 5.41663 7.50002 5.41663H3.33335C3.10324 5.41663 2.91669 5.23008 2.91669 4.99996V3.33329ZM17.0834 9.99996C17.0834 9.76984 16.8968 9.58329 16.6667 9.58329H14.1667C13.9366 9.58329 13.75 9.76984 13.75 9.99996V10.8333C13.75 11.0634 13.9366 11.25 14.1667 11.25H16.6667C16.8968 11.25 17.0834 11.0634 17.0834 10.8333V9.99996ZM13.75 15.8333C13.75 15.6032 13.9366 15.4166 14.1667 15.4166H16.6667C16.8968 15.4166 17.0834 15.6032 17.0834 15.8333V16.6666C17.0834 16.8967 16.8968 17.0833 16.6667 17.0833H14.1667C13.9366 17.0833 13.75 16.8967 13.75 16.6666V15.8333Z" fill="#18202A"/>
</svg>
