<svg width="20" height="20" viewBox="0 0 20 20" fill="none" xmlns="http://www.w3.org/2000/svg">
<path fill-rule="evenodd" clip-rule="evenodd" d="M14.5146 2.5C15.1224 2.5 15.682 2.83089 15.9749 3.36347L18.8953 8.67319C19.0713 8.99328 19.1373 9.36235 19.0831 9.72362L18.1296 16.0806C18.0072 16.8964 17.3064 17.5 16.4814 17.5H3.51865C2.69365 17.5 1.9928 16.8964 1.87042 16.0806L0.916879 9.72362C0.862689 9.36235 0.928696 8.99328 1.10475 8.67319L4.02509 3.36347C4.31801 2.83089 4.87763 2.5 5.48545 2.5H14.5146ZM2.33073 9.16667H6.66667C7.12691 9.16667 7.48641 9.55 7.63698 9.98491C7.97588 10.9638 8.90586 11.6667 10 11.6667C11.0941 11.6667 12.0241 10.9638 12.363 9.98491C12.5136 9.55 12.8731 9.16667 13.3333 9.16667H17.6693L14.9092 3.97119C14.8369 3.83508 14.6953 3.75 14.5412 3.75H5.4588C5.30467 3.75 5.16314 3.83508 5.09083 3.97119L2.33073 9.16667ZM10 12.9167C11.5286 12.9167 12.8435 12.0021 13.4275 10.6903C13.4994 10.529 13.6547 10.4167 13.8313 10.4167H17.7152L16.8934 15.8951C16.8628 16.0991 16.6876 16.25 16.4814 16.25H3.51865C3.3124 16.25 3.13719 16.0991 3.10659 15.8951L2.28482 10.4167H6.16873C6.34532 10.4167 6.50065 10.529 6.57247 10.6903C7.15648 12.0021 8.47144 12.9167 10 12.9167Z" fill="#18202A"/>
</svg>
