<svg width="20" height="20" viewBox="0 0 20 20" fill="none" xmlns="http://www.w3.org/2000/svg">
<path d="M12.942 9.60861C13.186 9.36453 13.186 8.9688 12.942 8.72472C12.6979 8.48065 12.3022 8.48065 12.0581 8.72472L10 10.7828L7.94196 8.72472C7.69788 8.48065 7.30216 8.48065 7.05808 8.72472C6.814 8.9688 6.814 9.36453 7.05808 9.60861L9.11614 11.6667L7.05808 13.7247C6.814 13.9688 6.814 14.3645 7.05808 14.6086C7.30216 14.8527 7.69788 14.8527 7.94196 14.6086L10 12.5506L12.0581 14.6086C12.3022 14.8527 12.6979 14.8527 12.942 14.6086C13.186 14.3645 13.186 13.9688 12.942 13.7247L10.8839 11.6667L12.942 9.60861Z" fill="#18202A"/>
<path fill-rule="evenodd" clip-rule="evenodd" d="M5.83335 2.5C4.52135 2.5 3.4454 3.51067 3.34156 4.79593C2.87299 5.21164 2.5617 5.8007 2.50823 6.4626C1.99201 6.92058 1.66669 7.58896 1.66669 8.33333V15C1.66669 16.3807 2.78597 17.5 4.16669 17.5H15.8334C17.2141 17.5 18.3334 16.3807 18.3334 15V8.33333C18.3334 7.58896 18.008 6.92057 17.4918 6.46259C17.4383 5.8007 17.1271 5.21164 16.6585 4.79593C16.5546 3.51067 15.4787 2.5 14.1667 2.5H5.83335ZM5.83335 3.75C5.4622 3.75 5.12882 3.91176 4.89988 4.16864C4.9331 4.16733 4.96648 4.16667 5.00002 4.16667H15C15.0336 4.16667 15.0669 4.16733 15.1002 4.16864C14.8712 3.91177 14.5378 3.75 14.1667 3.75H5.83335ZM4.16669 5.83333C4.13315 5.83333 4.09977 5.83399 4.06655 5.8353C4.29549 5.57843 4.62886 5.41667 5.00002 5.41667H15C15.3712 5.41667 15.7045 5.57843 15.9335 5.8353C15.9003 5.83399 15.8669 5.83333 15.8334 5.83333H4.16669ZM15.8334 7.08333C16.5237 7.08333 17.0834 7.64298 17.0834 8.33333V15C17.0834 15.6904 16.5237 16.25 15.8334 16.25H4.16669C3.47633 16.25 2.91669 15.6904 2.91669 15V8.33333C2.91669 7.64298 3.47633 7.08333 4.16669 7.08333H15.8334Z" fill="#18202A"/>
</svg>
