<svg width="20" height="20" viewBox="0 0 20 20" fill="none" xmlns="http://www.w3.org/2000/svg">
<path fill-rule="evenodd" clip-rule="evenodd" d="M3.74999 1.25H6.24999V4.22274C6.1223 4.2872 5.99649 4.35484 5.87267 4.42556L3.74999 2.79135V1.25ZM4.78544 5.16606L2.82496 3.65673C2.62005 3.49897 2.49999 3.25502 2.49999 2.99642V0.833334C2.49999 0.373096 2.87309 0 3.33332 0H16.6667C17.1269 0 17.5 0.373096 17.5 0.833333V2.99642C17.5 3.25502 17.3799 3.49897 17.175 3.65673L15.2145 5.16606C17.1161 6.69339 18.3333 9.03788 18.3333 11.6667C18.3333 16.269 14.6024 20 9.99999 20C5.39762 20 1.66666 16.269 1.66666 11.6667C1.66666 9.03788 2.88387 6.69339 4.78544 5.16606ZM14.1273 4.42556L16.25 2.79135V1.25H13.75V4.22274C13.8777 4.2872 14.0035 4.35484 14.1273 4.42556ZM11.25 3.42646V1.25H8.74999V3.42646C9.15773 3.36512 9.57515 3.33333 9.99999 3.33333C10.4248 3.33333 10.8422 3.36512 11.25 3.42646ZM17.0833 11.6667C17.0833 15.5787 13.912 18.75 9.99999 18.75C6.08797 18.75 2.91666 15.5787 2.91666 11.6667C2.91666 7.75465 6.08797 4.58333 9.99999 4.58333C13.912 4.58333 17.0833 7.75465 17.0833 11.6667ZM9.99999 16.25C12.5313 16.25 14.5833 14.198 14.5833 11.6667C14.5833 9.13536 12.5313 7.08333 9.99999 7.08333C7.46869 7.08333 5.41666 9.13536 5.41666 11.6667C5.41666 14.198 7.46869 16.25 9.99999 16.25ZM9.99999 17.5C13.2217 17.5 15.8333 14.8883 15.8333 11.6667C15.8333 8.44501 13.2217 5.83333 9.99999 5.83333C6.77833 5.83333 4.16666 8.44501 4.16666 11.6667C4.16666 14.8883 6.77833 17.5 9.99999 17.5ZM10.9379 10.1698L10.2405 8.70031C10.1401 8.48879 9.8599 8.48879 9.75951 8.70031L9.0621 10.1698C9.02202 10.2542 8.94637 10.3123 8.85931 10.3256L7.31611 10.5602C7.0915 10.5943 7.00351 10.8938 7.16887 11.0614L8.27222 12.1791C8.33879 12.2465 8.36929 12.3457 8.35329 12.4427L8.09123 14.0318C8.05219 14.2685 8.28061 14.4516 8.47939 14.3429L9.87783 13.578C9.95462 13.536 10.0454 13.536 10.1221 13.578L11.5206 14.3429C11.7194 14.4516 11.9478 14.2685 11.9087 14.0318L11.6467 12.4427C11.6307 12.3457 11.6612 12.2465 11.7278 12.1791L12.8311 11.0614C12.9965 10.8938 12.9085 10.5943 12.6839 10.5602L11.1407 10.3256C11.0536 10.3123 10.978 10.2542 10.9379 10.1698Z" fill="#18202A"/>
</svg>
