<svg width="20" height="20" viewBox="0 0 20 20" fill="none" xmlns="http://www.w3.org/2000/svg">
<g clip-path="url(#clip0_3283_8701)">
<path d="M11.7424 2.50016C12.0784 2.50016 12.4791 2.80083 12.4992 3.3335H14.1663C14.1449 1.94896 13.0679 0.833496 11.7424 0.833496H2.42424C1.08537 0.833496 0 1.97161 0 3.37554V9.09513C0 10.0726 0.52617 10.9213 1.29772 11.3466C1.6343 11.5322 2.01758 11.6372 2.42424 11.6372H2.75482L2.40342 13.3995C2.29545 13.9409 2.85297 14.3585 3.30639 14.0758L5 13.0198V11.0558L4.50922 11.3618L4.78663 9.97051H2.42424C2.07948 9.97051 1.66667 9.654 1.66667 9.09513V3.37554C1.66667 2.81667 2.07948 2.50016 2.42424 2.50016H11.7424Z" fill="#18202A"/>
<path d="M20 7.70108C20 6.20941 18.9146 5.00016 17.5758 5.00016H9.09091C7.75204 5.00016 6.66667 6.20941 6.66667 7.70108V13.7782C6.66667 15.2698 7.75204 16.4791 9.09091 16.4791H12.7824L16.6936 19.0701C17.147 19.3705 17.7045 18.9268 17.5966 18.3515L17.2452 16.4791H17.5758C18.9146 16.4791 20 15.2698 20 13.7782V7.70108Z" fill="#18202A"/>
</g>
<defs>
<clipPath id="clip0_3283_8701">
<rect width="20" height="20" fill="white"/>
</clipPath>
</defs>
</svg>
