<svg width="20" height="20" viewBox="0 0 20 20" fill="none" xmlns="http://www.w3.org/2000/svg">
<g clip-path="url(#clip0_2414_8851)">
<path fill-rule="evenodd" clip-rule="evenodd" d="M9.16671 17.4999C9.16671 17.7793 9.20109 18.0507 9.26584 18.31C8.6356 18.2703 8.02337 18.1799 7.4356 18.0408L5.164 19.0892C4.63877 19.3316 4.03237 18.9782 3.98433 18.4018L3.80925 16.3007C1.99023 14.827 0.850418 12.5942 0.850418 9.74234C0.523382 4.96962 4.95066 0.833252 10.0086 0.833252C15.0665 0.833252 19.1667 4.33325 19.1667 9.74234C19.1667 10.295 19.1141 10.8396 19.0117 11.3701C18.5192 9.61787 16.9096 8.33325 15 8.33325C12.9911 8.33325 11.3143 9.75493 10.9207 11.6471C9.87642 12.21 9.16671 13.3137 9.16671 14.5833V17.4999ZM17.5 12.9166C18.4205 12.9166 19.1667 13.6628 19.1667 14.5833V17.4999C19.1667 18.4204 18.4205 19.1666 17.5 19.1666H12.5C11.5796 19.1666 10.8334 18.4204 10.8334 17.4999V14.5833C10.8334 13.6628 11.5796 12.9166 12.5 12.9166V12.4999C12.5 11.1192 13.6193 9.99992 15 9.99992C16.3808 9.99992 17.5 11.1192 17.5 12.4999V12.9166ZM16.6667 12.4999C16.6667 11.5794 15.9205 10.8333 15 10.8333C14.0796 10.8333 13.3334 11.5794 13.3334 12.4999V12.9166H16.6667V12.4999ZM15.8334 15.4166C15.8334 15.725 15.6658 15.9943 15.4167 16.1384V17.0833C15.4167 17.3134 15.2302 17.4999 15 17.4999C14.7699 17.4999 14.5834 17.3134 14.5834 17.0833V16.1384C14.3343 15.9943 14.1667 15.725 14.1667 15.4166C14.1667 14.9563 14.5398 14.5833 15 14.5833C15.4603 14.5833 15.8334 14.9563 15.8334 15.4166Z" fill="#18202A"/>
</g>
<defs>
<clipPath id="clip0_2414_8851">
<rect width="20" height="20" fill="white"/>
</clipPath>
</defs>
</svg>
