<svg width="20" height="20" viewBox="0 0 20 20" fill="none" xmlns="http://www.w3.org/2000/svg">
<path fill-rule="evenodd" clip-rule="evenodd" d="M17.4774 7.91683C17.4207 7.5763 17.2591 7.2593 17.0118 7.01201L11.3215 1.32165C11.0742 1.07436 10.7572 0.912802 10.4167 0.856114V0.833496H5.83333C3.99238 0.833496 2.5 2.32588 2.5 4.16683V15.8335C2.5 17.6744 3.99238 19.1668 5.83333 19.1668H11.5635C11.2669 18.7875 11.0198 18.3676 10.8318 17.9168H5.83333C4.68274 17.9168 3.75 16.9841 3.75 15.8335V4.16683C3.75 3.01624 4.68274 2.0835 5.83333 2.0835H9.16667V9.16683H16.25V10.4326C16.6829 10.4655 17.1015 10.5494 17.5 10.6781V7.91683H17.4774ZM16.128 7.89589C16.1347 7.90267 16.1413 7.90965 16.1475 7.91683H10.4167V2.18599C10.4238 2.19224 10.4308 2.19876 10.4376 2.20553L16.128 7.89589Z" fill="#18202A"/>
<path fill-rule="evenodd" clip-rule="evenodd" d="M20 15.8335C20 18.1347 18.1345 20.0002 15.8333 20.0002C13.5321 20.0002 11.6667 18.1347 11.6667 15.8335C11.6667 13.5323 13.5321 11.6668 15.8333 11.6668C18.1345 11.6668 20 13.5323 20 15.8335ZM15.625 13.7502C15.9702 13.7502 16.25 14.03 16.25 14.3752V16.1996L17.3169 17.2666C17.561 17.5106 17.561 17.9064 17.3169 18.1504C17.0729 18.3945 16.6771 18.3945 16.4331 18.1504L15.1831 16.9004C15.0658 16.7832 15 16.6243 15 16.4585V14.3752C15 14.03 15.2798 13.7502 15.625 13.7502Z" fill="#18202A"/>
</svg>
