<svg width="20" height="20" viewBox="0 0 20 20" fill="none" xmlns="http://www.w3.org/2000/svg">
<g clip-path="url(#clip0_2266_40420)">
<path fill-rule="evenodd" clip-rule="evenodd" d="M8.66654 7.20384C8.15316 6.89291 7.50001 7.26619 7.50001 7.87052V12.1215C7.50001 12.7258 8.15316 13.0991 8.66654 12.7882L12.1761 10.6627C12.6747 10.3607 12.6747 9.6313 12.1761 9.32932L8.66654 7.20384ZM8.75001 11.2762V8.71576L10.8639 9.99601L8.75001 11.2762Z" fill="#18202A"/>
<path d="M5.83334 3.75016V5.41683H4.16668V3.75016H5.83334Z" fill="#18202A"/>
<path d="M5.83334 16.2502V14.5835H4.16668V16.2502H5.83334Z" fill="#18202A"/>
<path d="M7.50001 3.75016H9.16668V5.41683H7.50001V3.75016Z" fill="#18202A"/>
<path d="M9.16668 14.5835H7.50001V16.2502H9.16668V14.5835Z" fill="#18202A"/>
<path d="M10.8333 3.75016H12.5V5.41683H10.8333V3.75016Z" fill="#18202A"/>
<path d="M12.5 14.5835H10.8333V16.2502H12.5V14.5835Z" fill="#18202A"/>
<path d="M15.8333 3.75016V5.41683H14.1667V3.75016H15.8333Z" fill="#18202A"/>
<path d="M15.8333 16.2502V14.5835H14.1667V16.2502H15.8333Z" fill="#18202A"/>
<path fill-rule="evenodd" clip-rule="evenodd" d="M0.833344 5.00016C0.833344 2.69898 2.69882 0.833496 5.00001 0.833496H15C17.3012 0.833496 19.1667 2.69898 19.1667 5.00016V15.0002C19.1667 17.3013 17.3012 19.1668 15 19.1668H5.00001C2.69882 19.1668 0.833344 17.3013 0.833344 15.0002V5.00016ZM5.00001 2.0835H15C16.6108 2.0835 17.9167 3.38933 17.9167 5.00016V15.0002C17.9167 16.611 16.6108 17.9168 15 17.9168H5.00001C3.38918 17.9168 2.08334 16.611 2.08334 15.0002V5.00016C2.08334 3.38933 3.38918 2.0835 5.00001 2.0835Z" fill="#18202A"/>
</g>
<defs>
<clipPath id="clip0_2266_40420">
<rect width="20" height="20" fill="white"/>
</clipPath>
</defs>
</svg>
