<svg width="20" height="20" viewBox="0 0 20 20" fill="none" xmlns="http://www.w3.org/2000/svg">
<path fill-rule="evenodd" clip-rule="evenodd" d="M17.7646 10.294C17.4591 11.8297 16.7052 13.2403 15.5981 14.3475L11.8653 18.3836C11.6205 18.6286 11.3298 18.823 11.0098 18.9556C10.6897 19.0883 10.3465 19.1566 10 19.1566C9.65347 19.1566 9.31034 19.0883 8.99021 18.9556C8.67009 18.8229 8.37926 18.6284 8.13435 18.3833L4.40193 14.3475C3.29481 13.2403 2.54086 11.8297 2.23542 10.294C1.92999 8.75831 2.08679 7.16656 2.686 5.72C3.2852 4.27344 4.2999 3.03705 5.60178 2.16718C6.90366 1.2973 8.43425 0.833008 10 0.833008C11.5658 0.833008 13.0963 1.2973 14.3982 2.16718C15.7001 3.03705 16.7148 4.27344 17.314 5.72C17.9132 7.16656 18.07 8.75831 17.7646 10.294ZM11.6667 8.33301C11.6667 9.25348 10.9205 9.99967 10 9.99967C9.07953 9.99967 8.33333 9.25348 8.33333 8.33301C8.33333 7.41253 9.07953 6.66634 10 6.66634C10.9205 6.66634 11.6667 7.41253 11.6667 8.33301ZM13.3333 8.33301C13.3333 10.174 11.8409 11.6663 10 11.6663C8.15905 11.6663 6.66667 10.174 6.66667 8.33301C6.66667 6.49206 8.15905 4.99967 10 4.99967C11.8409 4.99967 13.3333 6.49206 13.3333 8.33301Z" fill="#18202A"/>
</svg>
