<svg width="20" height="20" viewBox="0 0 20 20" fill="none" xmlns="http://www.w3.org/2000/svg">
<path fill-rule="evenodd" clip-rule="evenodd" d="M3.33333 2.5C1.49238 2.5 0 3.99238 0 5.83333V14.1667C0 16.0076 1.49238 17.5 3.33333 17.5H11.6667C13.5076 17.5 15 16.0076 15 14.1667V5.83333C15 3.99238 13.5076 2.5 11.6667 2.5H3.33333ZM6.64099 7.28207L9.53542 9.31782C10.0075 9.64983 10.0073 10.3495 9.53507 10.6813L6.64064 12.7149C6.08845 13.1028 5.32824 12.7078 5.32824 12.033L5.32825 7.96369C5.32825 7.28866 6.08884 6.89373 6.64099 7.28207Z" fill="#18202A"/>
<path d="M16.1797 6.91725C15.9622 7.07385 15.8333 7.32551 15.8333 7.59353V12.4065C15.8333 12.6745 15.9622 12.9261 16.1797 13.0828L18.6797 14.8828C19.231 15.2796 20 14.8857 20 14.2065V5.79353C20 5.11428 19.231 4.72036 18.6797 5.11725L16.1797 6.91725Z" fill="#18202A"/>
</svg>
