<svg width="20" height="20" viewBox="0 0 20 20" fill="none" xmlns="http://www.w3.org/2000/svg">
<g clip-path="url(#clip0_2266_37315)">
<path d="M3.52065 3.47835L9.96016 1.75289C11.2938 1.39553 12.6647 2.18699 13.022 3.52065L13.3645 4.79894L15.1314 4.95352L14.6319 3.08929C14.0363 0.866513 11.7516 -0.452581 9.52879 0.14301L3.08929 1.86847C0.866513 2.46406 -0.452581 4.7488 0.14301 6.97157L1.86847 13.4111C2.24472 14.8152 3.29505 15.8588 4.57802 16.2868C4.46536 15.8444 4.42406 15.3757 4.4661 14.8951L4.5082 14.414C4.01931 14.089 3.64224 13.5914 3.47835 12.9797L1.75289 6.54021C1.39553 5.20654 2.18699 3.8357 3.52065 3.47835Z" fill="#18202A"/>
<path d="M10.2586 8.78644C10.2385 9.01568 10.0364 9.18526 9.80718 9.16521C9.57794 9.14515 9.40836 8.94305 9.42842 8.71381C9.44847 8.48457 9.65057 8.31499 9.87981 8.33504C10.1091 8.3551 10.2786 8.5572 10.2586 8.78644Z" fill="#18202A"/>
<path fill-rule="evenodd" clip-rule="evenodd" d="M4.57802 16.2868C4.54985 16.1762 4.52615 16.064 4.50709 15.9504C4.45097 15.6157 4.43515 15.2687 4.46441 14.9151L4.4661 14.8951L5.04714 8.25384C5.2477 5.96141 7.26867 4.26562 9.5611 4.46618L16.2024 5.04722C18.4948 5.24778 20.1906 7.26875 19.9901 9.56118L19.409 16.2025C19.2085 18.4949 17.1875 20.1907 14.8951 19.9901L8.25377 19.4091C6.44192 19.2506 5.00277 17.9549 4.57802 16.2868ZM9.66192 10.8255C10.8081 10.9258 11.8186 10.0779 11.9189 8.9317C12.0192 7.78548 11.1713 6.775 10.0251 6.67472C8.87886 6.57444 7.86837 7.42234 7.76809 8.56855C7.66781 9.71477 8.51571 10.7253 9.66192 10.8255ZM19.5102 15.0016L15.5067 10.1936L11.252 13.2639L9.27373 11.6951L5 14.8059L5.98083 16.1534L9.23056 13.788L11.2046 15.3534L15.221 12.4551L18.2295 16.0681L19.5102 15.0016Z" fill="#18202A"/>
<path fill-rule="evenodd" clip-rule="evenodd" d="M16.0571 6.70754L9.41584 6.1265C8.04039 6.00617 6.8278 7.02364 6.70747 8.3991L6.12643 15.0404C6.00609 16.4159 7.02357 17.6284 8.39902 17.7488L15.0403 18.3298C16.4158 18.4502 17.6284 17.4327 17.7487 16.0572L18.3297 9.41592C18.4501 8.04046 17.4326 6.82788 16.0571 6.70754ZM9.5611 4.46618C7.26867 4.26562 5.2477 5.96141 5.04714 8.25384L4.4661 14.8951C4.26554 17.1876 5.96134 19.2085 8.25377 19.4091L14.8951 19.9901C17.1875 20.1907 19.2085 18.4949 19.409 16.2025L19.9901 9.56118C20.1906 7.26875 18.4948 5.24778 16.2024 5.04722L9.5611 4.46618Z" fill="#18202A"/>
</g>
<defs>
<clipPath id="clip0_2266_37315">
<rect width="20" height="20" fill="white"/>
</clipPath>
</defs>
</svg>
