<svg width="20" height="20" viewBox="0 0 20 20" fill="none" xmlns="http://www.w3.org/2000/svg">
<g clip-path="url(#clip0_3444_9149)">
<path fill-rule="evenodd" clip-rule="evenodd" d="M14.6086 2.05798C13.444 0.893433 11.5559 0.893432 10.3914 2.05798L9.97776 2.4716L2.07014 9.96303C1.98391 10.0447 1.92274 10.1493 1.89381 10.2645L0.862036 14.3723C0.717581 14.9474 1.23338 15.4713 1.81069 15.3359L5.97608 14.3586C6.08378 14.3333 6.18284 14.2799 6.26315 14.2038L14.1798 6.7038C14.1811 6.70257 14.1824 6.70134 14.1837 6.7001C14.1893 6.69473 14.1947 6.68926 14.2001 6.68371L14.6086 6.2752C15.7731 5.11065 15.7731 3.22254 14.6086 2.05798ZM11.3008 2.91685L13.7497 5.36579C14.401 4.6876 14.3927 3.60982 13.7247 2.94187C13.0568 2.27392 11.979 2.26558 11.3008 2.91685ZM2.25767 13.947L3.06185 10.7454L10.4049 3.78885L12.854 6.23798L5.5261 13.1802L2.25767 13.947Z" fill="#18202A"/>
<path d="M10.5744 14.3372C10.481 14.1193 10.2724 13.973 10.0357 13.9594C9.79895 13.9459 9.57496 14.0675 9.45733 14.2733L8.3905 16.1403C8.13085 16.5947 7.64764 16.8751 7.12431 16.8751H1.45831C1.11314 16.8751 0.833313 17.1549 0.833313 17.5001C0.833313 17.8453 1.11314 18.1251 1.45831 18.1251H7.12431C8.09621 18.1251 8.9936 17.6043 9.4758 16.7605L9.91992 15.9832L10.3508 16.9887C10.6463 17.6781 11.3242 18.1251 12.0742 18.1251H12.0924C12.8425 18.1251 13.5203 17.6781 13.8158 16.9887L14.2467 15.9832L14.6908 16.7605C15.173 17.6043 16.0704 18.1251 17.0423 18.1251H18.5416C18.8868 18.1251 19.1666 17.8453 19.1666 17.5001C19.1666 17.1549 18.8868 16.8751 18.5416 16.8751H17.0423C16.519 16.8751 16.0358 16.5947 15.7761 16.1403L14.7093 14.2733C14.5917 14.0675 14.3677 13.9459 14.131 13.9594C13.8942 13.973 13.6856 14.1193 13.5922 14.3372L12.6669 16.4963C12.5684 16.7261 12.3424 16.8751 12.0924 16.8751H12.0742C11.8242 16.8751 11.5982 16.7261 11.4998 16.4963L10.5744 14.3372Z" fill="#18202A"/>
</g>
<defs>
<clipPath id="clip0_3444_9149">
<rect width="20" height="20" fill="white"/>
</clipPath>
</defs>
</svg>
