<svg width="20" height="20" viewBox="0 0 20 20" fill="none" xmlns="http://www.w3.org/2000/svg">
<path fill-rule="evenodd" clip-rule="evenodd" d="M13.3522 5.38507C13.5998 5.62559 13.6055 6.02128 13.365 6.26887L5.26974 14.6022C5.14901 14.7265 4.9821 14.7951 4.80887 14.7916C4.63563 14.7881 4.47162 14.7128 4.35599 14.5838L1.61789 11.5283C1.38753 11.2712 1.40918 10.8761 1.66625 10.6457C1.92332 10.4153 2.31845 10.437 2.54881 10.6941L4.83988 13.2508L12.4684 5.39788C12.7089 5.15029 13.1046 5.14456 13.3522 5.38507Z" fill="#18202A"/>
<path fill-rule="evenodd" clip-rule="evenodd" d="M18.3522 5.38507C18.5998 5.62559 18.6055 6.02128 18.365 6.26887L10.2697 14.6022C10.1459 14.7296 9.97376 14.7984 9.79623 14.7912C9.6187 14.784 9.45261 14.7016 9.33949 14.5646L8.45002 13.4873C8.23025 13.2211 8.26787 12.8272 8.53405 12.6074C8.80023 12.3877 9.19416 12.4253 9.41393 12.6915L9.85924 13.2308L17.4684 5.39788C17.7089 5.15029 18.1046 5.14456 18.3522 5.38507Z" fill="#18202A"/>
</svg>
