<svg width="20" height="20" viewBox="0 0 20 20" fill="none" xmlns="http://www.w3.org/2000/svg">
<path fill-rule="evenodd" clip-rule="evenodd" d="M13.4973 5.2356C13.8274 5.55629 13.8351 6.08387 13.5144 6.41399L5.41917 14.7473C5.25819 14.913 5.03565 15.0045 4.80467 14.9998C4.57369 14.9952 4.355 14.8949 4.20082 14.7228L1.46273 11.6672C1.15558 11.3245 1.18445 10.7976 1.52721 10.4905C1.86996 10.1834 2.39681 10.2122 2.70395 10.555L4.84602 12.9454L12.3189 5.25268C12.6396 4.92256 13.1672 4.91491 13.4973 5.2356Z" fill="#18202A"/>
<path fill-rule="evenodd" clip-rule="evenodd" d="M18.4973 5.2356C18.8275 5.55629 18.8351 6.08387 18.5144 6.41399L10.4192 14.7473C10.2541 14.9172 10.0245 15.0089 9.78781 14.9993C9.55111 14.9898 9.32966 14.8799 9.17883 14.6972L8.28936 13.6199C7.99634 13.265 8.0465 12.7398 8.4014 12.4468C8.7563 12.1537 9.28155 12.2039 9.57458 12.5588L9.87183 12.9188L17.3189 5.25268C17.6396 4.92256 18.1672 4.91491 18.4973 5.2356Z" fill="#18202A"/>
</svg>
