<svg width="20" height="20" viewBox="0 0 20 20" fill="none" xmlns="http://www.w3.org/2000/svg">
<g clip-path="url(#clip0_2266_38620)">
<path fill-rule="evenodd" clip-rule="evenodd" d="M10.863 2.57116L2.52963 10.9045C1.87875 11.5554 1.87875 12.6106 2.52963 13.2615L6.73817 17.4701C7.38905 18.1209 8.44432 18.1209 9.0952 17.4701L17.4285 9.13673C17.7411 8.82417 17.9167 8.40025 17.9167 7.95822V2.91634C17.9167 2.4561 17.5436 2.08301 17.0834 2.08301H12.0415C11.5994 2.08301 11.1755 2.2586 10.863 2.57116ZM16.25 5.83301C16.25 6.9836 15.3173 7.91634 14.1667 7.91634C13.0161 7.91634 12.0833 6.9836 12.0833 5.83301C12.0833 4.68242 13.0161 3.74967 14.1667 3.74967C15.3173 3.74967 16.25 4.68241 16.25 5.83301ZM9.97908 1.68728L1.64575 10.0206C0.506717 11.1596 0.506715 13.0064 1.64574 14.1454L5.85429 18.3539C6.99332 19.493 8.84005 19.493 9.97908 18.3539L18.3124 10.0206C18.8594 9.47363 19.1667 8.73177 19.1667 7.95822V2.91634C19.1667 1.76575 18.2339 0.833008 17.0834 0.833008H12.0415C11.2679 0.833008 10.5261 1.1403 9.97908 1.68728ZM15 5.83301C15 6.29325 14.6269 6.66634 14.1667 6.66634C13.7064 6.66634 13.3333 6.29325 13.3333 5.83301C13.3333 5.37277 13.7064 4.99967 14.1667 4.99967C14.6269 4.99967 15 5.37277 15 5.83301Z" fill="#18202A"/>
</g>
<defs>
<clipPath id="clip0_2266_38620">
<rect width="20" height="20" fill="white"/>
</clipPath>
</defs>
</svg>
