<svg width="20" height="20" viewBox="0 0 20 20" fill="none" xmlns="http://www.w3.org/2000/svg">
<g clip-path="url(#clip0_2266_35846)">
<path fill-rule="evenodd" clip-rule="evenodd" d="M10 17.4999C14.1421 17.4999 17.5 14.1421 17.5 9.99992C17.5 5.85778 14.1421 2.49992 10 2.49992C5.85787 2.49992 2.5 5.85778 2.5 9.99992C2.5 14.1421 5.85787 17.4999 10 17.4999ZM19.1667 9.99992C19.1667 15.0625 15.0626 19.1666 10 19.1666C4.93739 19.1666 0.833334 15.0625 0.833334 9.99992C0.833334 4.93731 4.93739 0.833252 10 0.833252C15.0626 0.833252 19.1667 4.93731 19.1667 9.99992Z" fill="#18202A"/>
<path fill-rule="evenodd" clip-rule="evenodd" d="M16.4226 3.57733C16.0972 3.25189 15.5695 3.25189 15.2441 3.57733L3.57741 15.244C3.25197 15.5694 3.25197 16.0971 3.57741 16.4225C3.90285 16.7479 4.43049 16.7479 4.75592 16.4225L16.4226 4.75584C16.748 4.4304 16.748 3.90277 16.4226 3.57733Z" fill="#18202A"/>
</g>
<defs>
<clipPath id="clip0_2266_35846">
<rect width="20" height="20" fill="white"/>
</clipPath>
</defs>
</svg>
