<svg width="20" height="20" viewBox="0 0 20 20" fill="none" xmlns="http://www.w3.org/2000/svg">
<g clip-path="url(#clip0_2266_38005)">
<path fill-rule="evenodd" clip-rule="evenodd" d="M10 9.16634C12.2222 9.16634 13.3333 7.08301 13.3333 4.47884C13.3333 2.39551 12.2222 0.833008 10 0.833008C7.77778 0.833008 6.66667 2.39551 6.66667 4.47884C6.66667 7.08301 7.77778 9.16634 10 9.16634ZM10 10.833C10.8106 10.833 11.5942 10.9487 12.3351 11.1646C10.9172 12.2287 9.99999 13.9238 9.99999 15.833C9.99999 17.0574 10.3772 18.1938 11.0219 19.1321C10.6842 19.1548 10.3434 19.1663 10 19.1663C8.71051 19.1663 7.45902 19.0036 6.26494 18.6976C5.24908 18.4373 4.38809 17.7568 3.91655 16.8201L3.87764 16.7422C3.22579 15.4258 3.44745 13.8131 4.55972 12.8537C6.01956 11.5944 7.92088 10.833 10 10.833ZM11.6667 15.833C11.6667 18.1342 13.5321 19.9997 15.8333 19.9997C18.1345 19.9997 20 18.1342 20 15.833C20 13.5318 18.1345 11.6663 15.8333 11.6663C13.5321 11.6663 11.6667 13.5318 11.6667 15.833ZM15.8081 13.3077C15.564 13.5518 15.564 13.9475 15.8081 14.1916L16.8244 15.208H13.3333C12.9881 15.208 12.7083 15.4878 12.7083 15.833C12.7083 16.1782 12.9881 16.458 13.3333 16.458H16.8244L15.8081 17.4744C15.564 17.7185 15.564 18.1142 15.8081 18.3583C16.0521 18.6024 16.4479 18.6024 16.6919 18.3583L18.7753 16.275C19.0193 16.0309 19.0193 15.6351 18.7753 15.3911L16.6919 13.3077C16.4479 13.0637 16.0521 13.0637 15.8081 13.3077Z" fill="#18202A"/>
</g>
<defs>
<clipPath id="clip0_2266_38005">
<rect width="20" height="20" fill="white"/>
</clipPath>
</defs>
</svg>
