<svg width="20" height="20" viewBox="0 0 20 20" fill="none" xmlns="http://www.w3.org/2000/svg">
<path fill-rule="evenodd" clip-rule="evenodd" d="M11.0886 3.30932C11.0883 3.30956 11.0881 3.3098 11.0879 3.31004L4.41937 10.0112L4.41793 10.0127C2.71623 11.7144 2.71623 14.5217 4.41793 16.2234C6.11963 17.9251 8.92696 17.9251 10.6287 16.2234L17.1024 9.74964C17.4279 9.4242 17.9555 9.4242 18.2809 9.74964C18.6064 10.0751 18.6064 10.6027 18.2809 10.9281L11.8072 17.4019C9.4546 19.7545 5.592 19.7545 3.23942 17.4019C0.8871 15.0496 0.886847 11.1876 3.23866 8.83491C3.23892 8.83466 3.23917 8.83441 3.23942 8.83416L9.90792 2.13297L9.90936 2.13152C11.6407 0.400169 14.4571 0.400169 16.1884 2.13152C17.9198 3.86288 17.9198 6.67922 16.1884 8.41058L16.1869 8.41212L9.94352 14.6228C9.94317 14.6231 9.94282 14.6235 9.94247 14.6238C8.8582 15.7069 7.09817 15.689 5.99853 14.6352L5.98587 14.6228C4.90168 13.5386 4.91931 11.7778 5.97346 10.6778L5.98747 10.6635L12.0035 4.68019C12.3298 4.35564 12.8575 4.35708 13.182 4.6834C13.5066 5.00972 13.5051 5.53736 13.1788 5.86191L7.17076 11.8373C6.72929 12.3045 6.74626 13.0192 7.15822 13.4381C7.62779 13.8815 8.34712 13.8621 8.76501 13.4443L8.76655 13.4427L15.0099 7.23206C15.0102 7.2318 15.0104 7.23153 15.0107 7.23126C16.0904 6.15071 16.0901 4.39025 15.0099 3.31004C13.9297 2.22979 12.1691 2.22955 11.0886 3.30932Z" fill="#18202A"/>
</svg>
