<svg width="20" height="20" viewBox="0 0 20 20" fill="none" xmlns="http://www.w3.org/2000/svg">
<path d="M4 8.5C4 8.22386 4.22386 8 4.5 8H15.5C15.7761 8 16 8.22386 16 8.5C16 8.77614 15.7761 9 15.5 9H4.5C4.22386 9 4 8.77614 4 8.5Z" fill="#18202A"/>
<path d="M4.75 13C5.16421 13 5.5 12.6642 5.5 12.25C5.5 11.8358 5.16421 11.5 4.75 11.5C4.33579 11.5 4 11.8358 4 12.25C4 12.6642 4.33579 13 4.75 13Z" fill="#18202A"/>
<path d="M8.25 13C8.66421 13 9 12.6642 9 12.25C9 11.8358 8.66421 11.5 8.25 11.5C7.83579 11.5 7.5 11.8358 7.5 12.25C7.5 12.6642 7.83579 13 8.25 13Z" fill="#18202A"/>
<path d="M11.75 13C12.1642 13 12.5 12.6642 12.5 12.25C12.5 11.8358 12.1642 11.5 11.75 11.5C11.3358 11.5 11 11.8358 11 12.25C11 12.6642 11.3358 13 11.75 13Z" fill="#18202A"/>
<path d="M15.25 12.9999C15.6642 12.9999 16 12.6642 16 12.2499C16 11.8357 15.6642 11.4999 15.25 11.4999C14.8358 11.4999 14.5 11.8357 14.5 12.2499C14.5 12.6642 14.8358 12.9999 15.25 12.9999Z" fill="#18202A"/>
<path d="M4.75 16C5.16421 16 5.5 15.6642 5.5 15.25C5.5 14.8358 5.16421 14.5 4.75 14.5C4.33579 14.5 4 14.8358 4 15.25C4 15.6642 4.33579 16 4.75 16Z" fill="#18202A"/>
<path d="M8.25 16C8.66421 16 9 15.6642 9 15.25C9 14.8358 8.66421 14.5 8.25 14.5C7.83579 14.5 7.5 14.8358 7.5 15.25C7.5 15.6642 7.83579 16 8.25 16Z" fill="#18202A"/>
<path d="M11.75 16C12.1642 16 12.5 15.6642 12.5 15.25C12.5 14.8358 12.1642 14.5 11.75 14.5C11.3358 14.5 11 14.8358 11 15.25C11 15.6642 11.3358 16 11.75 16Z" fill="#18202A"/>
<path d="M15.25 16C15.6642 16 16 15.6642 16 15.25C16 14.8358 15.6642 14.5 15.25 14.5C14.8358 14.5 14.5 14.8358 14.5 15.25C14.5 15.6642 14.8358 16 15.25 16Z" fill="#18202A"/>
<path fill-rule="evenodd" clip-rule="evenodd" d="M5.5 1C5.77614 1 6 1.22386 6 1.5V3H14V1.5C14 1.22386 14.2239 1 14.5 1C14.7761 1 15 1.22386 15 1.5V3H15.5C17.433 3 19 4.567 19 6.5V15.5C19 17.433 17.433 19 15.5 19H4.5C2.567 19 1 17.433 1 15.5V6.5C1 4.567 2.567 3 4.5 3H5V1.5C5 1.22386 5.22386 1 5.5 1ZM5.5 6C5.77614 6 6 5.77614 6 5.5V4H14V5.5C14 5.77614 14.2239 6 14.5 6C14.7761 6 15 5.77614 15 5.5V4H15.5C16.8807 4 18 5.11929 18 6.5V15.5C18 16.8807 16.8807 18 15.5 18H4.5C3.11929 18 2 16.8807 2 15.5V6.5C2 5.11929 3.11929 4 4.5 4H5V5.5C5 5.77614 5.22386 6 5.5 6Z" fill="#18202A"/>
</svg>
