<svg width="20" height="20" viewBox="0 0 20 20" fill="none" xmlns="http://www.w3.org/2000/svg">
<path fill-rule="evenodd" clip-rule="evenodd" d="M5.00001 4.58301H7.50001C7.73013 4.58301 7.91668 4.76956 7.91668 4.99967V14.9997C7.91668 15.2298 7.73013 15.4163 7.50001 15.4163H5.00001C4.76989 15.4163 4.58334 15.2298 4.58334 14.9997V4.99967C4.58334 4.76956 4.76989 4.58301 5.00001 4.58301ZM3.33334 4.99967C3.33334 4.0792 4.07954 3.33301 5.00001 3.33301H7.50001C8.42049 3.33301 9.16668 4.0792 9.16668 4.99967V14.9997C9.16668 15.9201 8.42049 16.6663 7.50001 16.6663H5.00001C4.07954 16.6663 3.33334 15.9201 3.33334 14.9997V4.99967ZM12.5 4.58301H15C15.2301 4.58301 15.4167 4.76956 15.4167 4.99967V14.9997C15.4167 15.2298 15.2301 15.4163 15 15.4163H12.5C12.2699 15.4163 12.0833 15.2298 12.0833 14.9997V4.99967C12.0833 4.76956 12.2699 4.58301 12.5 4.58301ZM10.8333 4.99967C10.8333 4.0792 11.5795 3.33301 12.5 3.33301H15C15.9205 3.33301 16.6667 4.0792 16.6667 4.99967V14.9997C16.6667 15.9201 15.9205 16.6663 15 16.6663H12.5C11.5795 16.6663 10.8333 15.9201 10.8333 14.9997V4.99967Z" fill="#18202A"/>
</svg>
