<svg width="20" height="20" viewBox="0 0 20 20" fill="none" xmlns="http://www.w3.org/2000/svg">
<path fill-rule="evenodd" clip-rule="evenodd" d="M3.33333 3.33643C1.95262 3.33643 0.833333 4.45571 0.833333 5.83643V12.5031C0.833333 13.8838 1.95262 15.0031 3.33333 15.0031H0.833333C0.373096 15.0031 0 15.3762 0 15.8364C0 16.2967 0.373096 16.6698 0.833334 16.6698H19.1667C19.6269 16.6698 20 16.2967 20 15.8364C20 15.3762 19.6269 15.0031 19.1667 15.0031H16.6667C18.0474 15.0031 19.1667 13.8838 19.1667 12.5031V5.83643C19.1667 4.45571 18.0474 3.33643 16.6667 3.33643H3.33333ZM10.8333 6.25393C10.8333 5.88272 11.2821 5.69681 11.5446 5.9593L14.375 8.78967C14.5377 8.95239 14.5377 9.21621 14.375 9.37893L11.5446 12.2093C11.2821 12.4718 10.8333 12.2859 10.8333 11.9147V10.5436C9.40091 10.5564 8.53 10.706 7.8901 11.0492C7.22547 11.4056 6.78104 11.9862 6.22132 12.9398C6.17373 13.0208 6.07773 13.06 5.98701 13.0353C5.89628 13.0107 5.83331 12.9283 5.83331 12.8343C5.83331 10.7434 6.51888 9.42567 7.53936 8.63812C8.49095 7.90374 9.7028 7.65484 10.8333 7.62839V6.25393Z" fill="#18202A"/>
</svg>
