<svg width="20" height="20" viewBox="0 0 20 20" fill="none" xmlns="http://www.w3.org/2000/svg">
<g clip-path="url(#clip0_2266_36934)">
<path fill-rule="evenodd" clip-rule="evenodd" d="M19.1667 9.99992C19.1667 15.0625 15.0626 19.1666 10 19.1666C4.93739 19.1666 0.833334 15.0625 0.833334 9.99992C0.833334 4.93731 4.93739 0.833252 10 0.833252C15.0626 0.833252 19.1667 4.93731 19.1667 9.99992ZM13.9226 7.25584C14.248 6.9304 14.248 6.40277 13.9226 6.07733C13.5972 5.75189 13.0695 5.75189 12.7441 6.07733L10 8.82141L7.25592 6.07733C6.93049 5.75189 6.40285 5.75189 6.07741 6.07733C5.75198 6.40277 5.75198 6.9304 6.07741 7.25584L8.82149 9.99992L6.07741 12.744C5.75198 13.0694 5.75198 13.5971 6.07741 13.9225C6.40285 14.2479 6.93049 14.2479 7.25592 13.9225L10 11.1784L12.7441 13.9225C13.0695 14.2479 13.5972 14.2479 13.9226 13.9225C14.248 13.5971 14.248 13.0694 13.9226 12.744L11.1785 9.99992L13.9226 7.25584Z" fill="#18202A"/>
</g>
<defs>
<clipPath id="clip0_2266_36934">
<rect width="20" height="20" fill="white"/>
</clipPath>
</defs>
</svg>
