<svg width="20" height="20" viewBox="0 0 20 20" fill="none" xmlns="http://www.w3.org/2000/svg">
<g clip-path="url(#clip0_3294_8891)">
<path d="M3.33329 4.16683C3.33329 4.62707 2.9602 5.00016 2.49996 5.00016C2.03972 5.00016 1.66663 4.62707 1.66663 4.16683C1.66663 3.70659 2.03972 3.3335 2.49996 3.3335C2.9602 3.3335 3.33329 3.70659 3.33329 4.16683Z" fill="#18202A"/>
<path d="M5.83329 4.16683C5.83329 3.70659 6.20639 3.3335 6.66663 3.3335H17.5C17.9602 3.3335 18.3333 3.70659 18.3333 4.16683C18.3333 4.62707 17.9602 5.00016 17.5 5.00016H6.66663C6.20639 5.00016 5.83329 4.62707 5.83329 4.16683Z" fill="#18202A"/>
<path d="M6.66663 9.16683C6.20639 9.16683 5.83329 9.53993 5.83329 10.0002C5.83329 10.4604 6.20639 10.8335 6.66663 10.8335H17.5C17.9602 10.8335 18.3333 10.4604 18.3333 10.0002C18.3333 9.53993 17.9602 9.16683 17.5 9.16683H6.66663Z" fill="#18202A"/>
<path d="M6.66663 15.0002C6.20639 15.0002 5.83329 15.3733 5.83329 15.8335C5.83329 16.2937 6.20639 16.6668 6.66663 16.6668H17.5C17.9602 16.6668 18.3333 16.2937 18.3333 15.8335C18.3333 15.3733 17.9602 15.0002 17.5 15.0002H6.66663Z" fill="#18202A"/>
<path d="M3.33329 10.0002C3.33329 10.4604 2.9602 10.8335 2.49996 10.8335C2.03972 10.8335 1.66663 10.4604 1.66663 10.0002C1.66663 9.53993 2.03972 9.16683 2.49996 9.16683C2.9602 9.16683 3.33329 9.53993 3.33329 10.0002Z" fill="#18202A"/>
<path d="M3.33329 15.8335C3.33329 16.2937 2.9602 16.6668 2.49996 16.6668C2.03972 16.6668 1.66663 16.2937 1.66663 15.8335C1.66663 15.3733 2.03972 15.0002 2.49996 15.0002C2.9602 15.0002 3.33329 15.3733 3.33329 15.8335Z" fill="#18202A"/>
</g>
<defs>
<clipPath id="clip0_3294_8891">
<rect width="20" height="20" fill="white"/>
</clipPath>
</defs>
</svg>
