<svg width="20" height="20" viewBox="0 0 20 20" fill="none" xmlns="http://www.w3.org/2000/svg">
<g clip-path="url(#clip0_2266_36802)">
<path fill-rule="evenodd" clip-rule="evenodd" d="M19.1667 2.50006C18.7064 2.50006 18.3333 2.87316 18.3333 3.3334V7.50006H14.1667C13.7064 7.50006 13.3333 7.87316 13.3333 8.3334C13.3333 8.79363 13.7064 9.16673 14.1667 9.16673H19.1667C19.6269 9.16673 20 8.79363 20 8.3334V3.3334C20 2.87316 19.6269 2.50006 19.1667 2.50006Z" fill="#18202A"/>
<path fill-rule="evenodd" clip-rule="evenodd" d="M6.66667 11.6667C6.66667 11.2065 6.29357 10.8334 5.83333 10.8334H0.833332C0.373095 10.8334 0 11.2065 0 11.6667V16.6667C0 17.127 0.373095 17.5001 0.833332 17.5001C1.29357 17.5001 1.66667 17.127 1.66667 16.6667V12.5001H5.83333C6.29357 12.5001 6.66667 12.127 6.66667 11.6667Z" fill="#18202A"/>
<path fill-rule="evenodd" clip-rule="evenodd" d="M12.3109 1.99686C10.9586 1.60572 9.52932 1.5635 8.15633 1.87416C6.78335 2.18481 5.51144 2.83821 4.45928 3.77338C3.40712 4.70855 2.609 5.89502 2.1394 7.22207C1.98587 7.65594 2.21313 8.13213 2.647 8.28566C3.08088 8.43919 3.55706 8.21193 3.7106 7.77806C4.08628 6.71642 4.72477 5.76725 5.5665 5.01911C6.40823 4.27097 7.42576 3.74826 8.52414 3.49973C9.62253 3.25121 10.766 3.28498 11.8478 3.59789C12.9296 3.91081 13.9145 4.49266 14.7106 5.28917C14.7168 5.29533 14.723 5.30139 14.7294 5.30736L18.596 8.94069C18.9314 9.25585 19.4588 9.23944 19.774 8.90404C20.0891 8.56865 20.0727 8.04126 19.7373 7.7261L15.8799 4.10148C14.8864 3.1107 13.6588 2.38676 12.3109 1.99686ZM0.22604 11.0961C-0.0891209 11.4315 -0.0727139 11.9589 0.262686 12.274L4.1201 15.8987C5.11356 16.8894 6.34117 17.6134 7.68912 18.0033C9.04138 18.3944 10.4707 18.4366 11.8437 18.126C13.2166 17.8153 14.4886 17.1619 15.5407 16.2267C16.5929 15.2916 17.391 14.1051 17.8606 12.7781C18.0141 12.3442 17.7869 11.868 17.353 11.7145C16.9191 11.5609 16.4429 11.7882 16.2894 12.2221C15.9137 13.2837 15.2752 14.2329 14.4335 14.981C13.5918 15.7292 12.5742 16.2519 11.4759 16.5004C10.3775 16.7489 9.23403 16.7151 8.15222 16.4022C7.07042 16.0893 6.08551 15.5075 5.2894 14.711C5.2857 14.7073 5.28196 14.7036 5.27819 14.6999C5.27569 14.6975 5.27318 14.6951 5.27065 14.6928L1.40398 11.0594C1.06858 10.7443 0.541199 10.7607 0.22604 11.0961Z" fill="#18202A"/>
</g>
<defs>
<clipPath id="clip0_2266_36802">
<rect width="20" height="20" fill="white"/>
</clipPath>
</defs>
</svg>
