<svg width="20" height="20" viewBox="0 0 20 20" fill="none" xmlns="http://www.w3.org/2000/svg">
<g clip-path="url(#clip0_2266_38767)">
<path fill-rule="evenodd" clip-rule="evenodd" d="M15.8333 2.08301H4.16668C3.01608 2.08301 2.08334 3.01575 2.08334 4.16634V15.833C2.08334 16.9836 3.01608 17.9163 4.16668 17.9163H15.8333C16.9839 17.9163 17.9167 16.9836 17.9167 15.833V4.16634C17.9167 3.01575 16.9839 2.08301 15.8333 2.08301ZM4.16668 0.833008C2.32573 0.833008 0.833344 2.32539 0.833344 4.16634V15.833C0.833344 17.674 2.32573 19.1663 4.16668 19.1663H15.8333C17.6743 19.1663 19.1667 17.674 19.1667 15.833V4.16634C19.1667 2.32539 17.6743 0.833008 15.8333 0.833008H4.16668ZM3.33334 4.99967C3.33334 4.0792 4.07954 3.33301 5.00001 3.33301C5.92049 3.33301 6.66668 4.0792 6.66668 4.99967C6.66668 5.92015 5.92049 6.66634 5.00001 6.66634C4.07954 6.66634 3.33334 5.92015 3.33334 4.99967ZM8.95834 4.37467C8.61317 4.37467 8.33334 4.6545 8.33334 4.99967C8.33334 5.34485 8.61317 5.62467 8.95834 5.62467H15.625C15.9702 5.62467 16.25 5.34485 16.25 4.99967C16.25 4.6545 15.9702 4.37467 15.625 4.37467H8.95834ZM5.00001 9.16634H15C15.2301 9.16634 15.4167 9.35289 15.4167 9.58301V14.9997C15.4167 15.2298 15.2301 15.4163 15 15.4163H5.00001C4.76989 15.4163 4.58334 15.2298 4.58334 14.9997V9.58301C4.58334 9.35289 4.76989 9.16634 5.00001 9.16634ZM3.33334 9.58301C3.33334 8.66253 4.07954 7.91634 5.00001 7.91634H15C15.9205 7.91634 16.6667 8.66253 16.6667 9.58301V14.9997C16.6667 15.9201 15.9205 16.6663 15 16.6663H5.00001C4.07954 16.6663 3.33334 15.9201 3.33334 14.9997V9.58301Z" fill="#18202A"/>
</g>
<defs>
<clipPath id="clip0_2266_38767">
<rect width="20" height="20" fill="white"/>
</clipPath>
</defs>
</svg>
