<svg width="20" height="20" viewBox="0 0 20 20" fill="none" xmlns="http://www.w3.org/2000/svg">
<path fill-rule="evenodd" clip-rule="evenodd" d="M16.4266 1.85068C16.6721 1.60511 17.0703 1.60511 17.3158 1.85068C17.5614 2.09624 17.5614 2.49438 17.3158 2.73995L13.3333 6.72244V9.1665C13.3333 11.0075 11.8409 12.4998 10 12.4998C9.30678 12.4998 8.66299 12.2882 8.12969 11.9261L7.22138 12.8344C7.98719 13.4092 8.93892 13.7498 9.97019 13.7498C12.29 13.7498 14.2073 12.0263 14.5115 9.7899C14.558 9.44787 14.8333 9.1665 15.1785 9.1665C15.5237 9.1665 15.807 9.44728 15.7705 9.79052C15.482 12.5035 13.3337 14.6609 10.625 14.9635V17.0832H13.125C13.4702 17.0832 13.75 17.363 13.75 17.7082C13.75 18.0533 13.4702 18.3332 13.125 18.3332H6.875C6.52982 18.3332 6.25 18.0533 6.25 17.7082C6.25 17.363 6.52982 17.0832 6.875 17.0832H9.375V14.9698C8.22985 14.8538 7.18257 14.4065 6.33046 13.7253L3.57344 16.4823C3.32788 16.7279 2.92974 16.7279 2.68417 16.4823C2.43861 16.2368 2.43861 15.8386 2.68417 15.5931L16.4266 1.85068ZM9.03988 11.0159C9.3272 11.1654 9.65373 11.2498 10 11.2498C11.1506 11.2498 12.0833 10.3171 12.0833 9.1665V7.97244L9.03988 11.0159Z" fill="#18202A"/>
<path d="M10 1.6665C11.3102 1.6665 12.4439 2.42246 12.9887 3.52201L12.0205 4.49013C11.7931 3.58593 10.9748 2.9165 10 2.9165C8.84941 2.9165 7.91667 3.84924 7.91667 4.99984V8.59399L6.72421 9.78645C6.68643 9.58558 6.66667 9.37835 6.66667 9.1665V4.99984C6.66667 3.15889 8.15905 1.6665 10 1.6665Z" fill="#18202A"/>
<path d="M5.6932 10.8175C5.56723 10.4913 5.47748 10.1472 5.4289 9.7899C5.38238 9.44787 5.10703 9.1665 4.76186 9.1665C4.41668 9.1665 4.13334 9.44728 4.16984 9.79052C4.24459 10.4934 4.44417 11.159 4.74599 11.7647L5.6932 10.8175Z" fill="#18202A"/>
</svg>
