<svg width="20" height="20" viewBox="0 0 20 20" fill="none" xmlns="http://www.w3.org/2000/svg">
<path fill-rule="evenodd" clip-rule="evenodd" d="M4.16666 3.54199C4.51183 3.54199 4.79166 3.82181 4.79166 4.16699V6.66699C4.79166 9.08324 6.75041 11.042 9.16666 11.042H15.1578L12.058 7.94227C11.814 7.69819 11.814 7.30246 12.058 7.05838C12.3021 6.81431 12.6979 6.81431 12.9419 7.05838L17.1086 11.2251C17.3527 11.4691 17.3527 11.8649 17.1086 12.1089L12.9419 16.2756C12.6979 16.5197 12.3021 16.5197 12.058 16.2756C11.814 16.0315 11.814 15.6358 12.058 15.3917L15.1578 12.292H9.16666C6.06005 12.292 3.54166 9.77359 3.54166 6.66699V4.16699C3.54166 3.82181 3.82148 3.54199 4.16666 3.54199Z" fill="#18202A"/>
</svg>
