<svg width="20" height="20" viewBox="0 0 20 20" fill="none" xmlns="http://www.w3.org/2000/svg">
<path fill-rule="evenodd" clip-rule="evenodd" d="M5.83342 16.6662C5.83342 16.2059 6.20651 15.8328 6.66675 15.8328H17.5001C17.9603 15.8328 18.3334 16.2059 18.3334 16.6662C18.3334 17.1264 17.9603 17.4995 17.5001 17.4995H6.66675C6.20651 17.4995 5.83342 17.1264 5.83342 16.6662Z" fill="#18202A"/>
<path fill-rule="evenodd" clip-rule="evenodd" d="M5.83342 3.33285C5.83342 2.87261 6.20651 2.49951 6.66675 2.49951H17.5001C17.9603 2.49951 18.3334 2.87261 18.3334 3.33285C18.3334 3.79308 17.9603 4.16618 17.5001 4.16618H6.66675C6.20651 4.16618 5.83342 3.79308 5.83342 3.33285Z" fill="#18202A"/>
<path d="M5.58934 8.08877C5.91477 7.76333 5.91477 7.23569 5.58934 6.91026C5.2639 6.58482 4.73626 6.58482 4.41083 6.91026L1.91083 9.41026C1.7712 9.54988 1.69148 9.72674 1.67166 9.90887C1.65699 10.0438 1.67518 10.1816 1.72623 10.3093C1.76086 10.3959 1.81062 10.4779 1.87549 10.5512C1.88824 10.5656 1.90149 10.5796 1.91519 10.5931L4.41083 13.0888C4.73626 13.4142 5.2639 13.4142 5.58934 13.0888C5.91477 12.7633 5.91477 12.2357 5.58934 11.9103L4.51117 10.8321L17.5005 10.8268C17.9607 10.8266 18.3336 10.4534 18.3334 9.99311C18.3333 9.53288 17.96 9.15993 17.4998 9.16012L4.51268 9.16542L5.58934 8.08877Z" fill="#18202A"/>
</svg>
