<svg width="20" height="20" viewBox="0 0 20 20" fill="none" xmlns="http://www.w3.org/2000/svg">
<path fill-rule="evenodd" clip-rule="evenodd" d="M14.5146 2.5C15.1224 2.5 15.682 2.83089 15.9749 3.36347L18.8953 8.67319C19.0713 8.99328 19.1373 9.36235 19.0831 9.72362L18.1296 16.0806C18.0072 16.8964 17.3064 17.5 16.4814 17.5H3.51865C2.69365 17.5 1.9928 16.8964 1.87042 16.0806L0.916879 9.72362C0.862689 9.36235 0.928696 8.99328 1.10475 8.67319L4.02509 3.36347C4.31801 2.83089 4.87763 2.5 5.48545 2.5H14.5146ZM3.1226 8.85857C3.04687 8.9974 3.14736 9.16667 3.30549 9.16667H6.66667C7.12691 9.16667 7.48641 9.55 7.63698 9.98491C7.97588 10.9638 8.90586 11.6667 10 11.6667C11.0941 11.6667 12.0241 10.9638 12.363 9.98491C12.5136 9.55 12.8731 9.16667 13.3333 9.16667H16.6945C16.8526 9.16667 16.9531 8.9974 16.8774 8.85857L14.5551 4.60096C14.409 4.33324 14.1284 4.16667 13.8235 4.16667H6.17651C5.87156 4.16667 5.59096 4.33324 5.44493 4.60096L3.1226 8.85857Z" fill="#18202A"/>
</svg>
