<svg width="20" height="20" viewBox="0 0 20 20" fill="none" xmlns="http://www.w3.org/2000/svg">
<g clip-path="url(#clip0_2266_35286)">
<path fill-rule="evenodd" clip-rule="evenodd" d="M7.70833 1.25C7.70833 0.904822 7.42851 0.625 7.08333 0.625C6.73816 0.625 6.45833 0.904822 6.45833 1.25V2.91667C6.45833 3.26184 6.73816 3.54167 7.08333 3.54167C7.42851 3.54167 7.70833 3.26184 7.70833 2.91667V1.25ZM3.35861 2.47472C3.11453 2.23065 2.7188 2.23065 2.47472 2.47472C2.23065 2.7188 2.23065 3.11453 2.47472 3.35861L3.72473 4.60861C3.9688 4.85269 4.36453 4.85269 4.60861 4.60861C4.85269 4.36453 4.85269 3.9688 4.60861 3.72473L3.35861 2.47472ZM1.25 6.45833C0.904822 6.45833 0.625 6.73816 0.625 7.08333C0.625 7.42851 0.904822 7.70833 1.25 7.70833H2.91667C3.26184 7.70833 3.54167 7.42851 3.54167 7.08333C3.54167 6.73816 3.26184 6.45833 2.91667 6.45833H1.25ZM12.2917 18.75C12.2917 19.0952 12.5715 19.375 12.9167 19.375C13.2618 19.375 13.5417 19.0952 13.5417 18.75V17.0833C13.5417 16.7382 13.2618 16.4583 12.9167 16.4583C12.5715 16.4583 12.2917 16.7382 12.2917 17.0833V18.75ZM16.6414 17.5253C16.8855 17.7694 17.2812 17.7694 17.5253 17.5253C17.7694 17.2812 17.7694 16.8855 17.5253 16.6414L16.2753 15.3914C16.0312 15.1473 15.6355 15.1473 15.3914 15.3914C15.1473 15.6355 15.1473 16.0312 15.3914 16.2753L16.6414 17.5253ZM18.75 13.5417C19.0952 13.5417 19.375 13.2618 19.375 12.9167C19.375 12.5715 19.0952 12.2917 18.75 12.2917H17.0833C16.7382 12.2917 16.4583 12.5715 16.4583 12.9167C16.4583 13.2618 16.7382 13.5417 17.0833 13.5417H18.75ZM3.07618 16.9238C1.20492 15.0525 1.20492 12.0186 3.07618 10.1473L4.84394 8.37958C5.08802 8.1355 5.48375 8.1355 5.72783 8.37958C5.97191 8.62365 5.97191 9.01938 5.72783 9.26346L3.96006 11.0312C2.57695 12.4143 2.57695 14.6568 3.96006 16.0399C5.34317 17.423 7.58563 17.423 8.96873 16.0399L10.7365 14.2721C10.9806 14.0281 11.3763 14.0281 11.6204 14.2721C11.8645 14.5162 11.8645 14.9119 11.6204 15.156L9.85262 16.9238C7.98136 18.795 4.94744 18.795 3.07618 16.9238ZM10.1473 3.07623C12.0186 1.20497 15.0525 1.20497 16.9237 3.07623C18.795 4.94749 18.795 7.98141 16.9237 9.85267L15.156 11.6204C14.9119 11.8645 14.5162 11.8645 14.2721 11.6204C14.028 11.3764 14.028 10.9806 14.2721 10.7366L16.0398 8.96878C17.423 7.58568 17.423 5.34322 16.0398 3.96011C14.6567 2.57701 12.4143 2.577 11.0312 3.96011L9.26341 5.72788C9.01933 5.97196 8.6236 5.97196 8.37953 5.72788C8.13545 5.4838 8.13545 5.08807 8.37953 4.844L10.1473 3.07623Z" fill="#18202A"/>
</g>
<defs>
<clipPath id="clip0_2266_35286">
<rect width="20" height="20" fill="white"/>
</clipPath>
</defs>
</svg>
