<svg width="20" height="20" viewBox="0 0 20 20" fill="none" xmlns="http://www.w3.org/2000/svg">
<g clip-path="url(#clip0_2266_40312)">
<path fill-rule="evenodd" clip-rule="evenodd" d="M14.1667 2.08325H5.83334C3.76228 2.08325 2.08334 3.76218 2.08334 5.83325V14.1666C2.08334 16.2377 3.76228 17.9166 5.83334 17.9166H14.1667C16.2377 17.9166 17.9167 16.2377 17.9167 14.1666V5.83325C17.9167 3.76218 16.2377 2.08325 14.1667 2.08325ZM5.83334 0.833252C3.07192 0.833252 0.833344 3.07183 0.833344 5.83325V14.1666C0.833344 16.928 3.07192 19.1666 5.83334 19.1666H14.1667C16.9281 19.1666 19.1667 16.928 19.1667 14.1666V5.83325C19.1667 3.07183 16.9281 0.833252 14.1667 0.833252H5.83334Z" fill="#18202A"/>
<path fill-rule="evenodd" clip-rule="evenodd" d="M7.50001 7.91659C8.19037 7.91659 8.75001 7.35694 8.75001 6.66659C8.75001 5.97623 8.19037 5.41659 7.50001 5.41659C6.80965 5.41659 6.25001 5.97623 6.25001 6.66659C6.25001 7.35694 6.80965 7.91659 7.50001 7.91659ZM10 6.66659C10 8.0473 8.88072 9.16659 7.50001 9.16659C6.1193 9.16659 5.00001 8.0473 5.00001 6.66659C5.00001 5.28587 6.1193 4.16659 7.50001 4.16659C8.88072 4.16659 10 5.28587 10 6.66659Z" fill="#18202A"/>
<path fill-rule="evenodd" clip-rule="evenodd" d="M13.7867 8.20164L18.8248 14.6138L17.8419 15.3861L13.7133 10.1315L9.22455 15.0284L6.72645 12.9466L2.96247 17.087L2.03755 16.2462L6.6069 11.2199L9.1088 13.3048L13.7867 8.20164Z" fill="#18202A"/>
</g>
<defs>
<clipPath id="clip0_2266_40312">
<rect width="20" height="20" fill="white"/>
</clipPath>
</defs>
</svg>
