<svg width="20" height="20" viewBox="0 0 20 20" fill="none" xmlns="http://www.w3.org/2000/svg">
<g clip-path="url(#clip0_2266_36154)">
<path fill-rule="evenodd" clip-rule="evenodd" d="M9.16667 0.833008H5.83333C3.99238 0.833008 2.5 2.32539 2.5 4.16634V15.833C2.5 17.674 3.99238 19.1663 5.83333 19.1663H9.38506C8.70509 18.1924 8.33333 17.0267 8.33333 15.8227C8.33333 14.3797 8.8675 12.9887 9.86106 11.8847L10.0438 11.6929L12.5703 9.16634H10.8333H9.16667V7.49967V0.833008ZM17.3503 7.49967H16.1966L16.1945 7.49967L16.1924 7.49967H10.8333V0.982708C11.0133 1.06461 11.179 1.17865 11.3215 1.32116L17.0118 7.01152C17.1544 7.15403 17.2684 7.3197 17.3503 7.49967ZM17.4158 9.39946C17.0445 9.24556 16.6465 9.16634 16.2445 9.16634C15.8425 9.16634 15.4445 9.24556 15.0732 9.39947C14.7019 9.55335 14.3645 9.77893 14.0804 10.0633L11.2723 12.8714L11.1204 13.0316C10.433 13.796 10.05 14.7896 10.05 15.8227C10.05 16.9296 10.4897 17.9912 11.2723 18.774C12.0552 19.5567 13.1168 19.9964 14.2237 19.9964C15.3306 19.9964 16.3922 19.5567 17.175 18.7741L19.7583 16.1907L19.8277 16.1122C20.0818 15.7853 20.0587 15.3126 19.7583 15.0122C19.4329 14.6868 18.9053 14.6868 18.5798 15.0122L15.9965 17.5955L15.8756 17.7087C15.4198 18.1078 14.8332 18.3298 14.2237 18.3298C13.5588 18.3298 12.921 18.0656 12.4508 17.5955C11.9808 17.1253 11.7167 16.4876 11.7167 15.8227C11.7167 15.1578 11.9808 14.5201 12.4509 14.0498L15.2592 11.2415L15.3607 11.1494C15.4665 11.0626 15.5846 10.9917 15.7113 10.9391C15.8804 10.8691 16.0615 10.833 16.2445 10.833C16.4275 10.833 16.6087 10.8691 16.7777 10.9391C16.9467 11.0092 17.1003 11.1119 17.2296 11.2413C17.4909 11.5028 17.6377 11.8572 17.6377 12.2269C17.6377 12.5965 17.4909 12.951 17.2297 13.2124L14.6465 15.7955L14.6039 15.8306L14.5556 15.8564C14.5217 15.8705 14.4854 15.8777 14.4487 15.8777C14.412 15.8777 14.3757 15.8705 14.3418 15.8564C14.3079 15.8424 14.2771 15.8218 14.2512 15.7959C14.2246 15.7693 14.204 15.7385 14.1899 15.7046C14.1759 15.6707 14.1687 15.6344 14.1687 15.5977C14.1687 15.561 14.1759 15.5247 14.1899 15.4908C14.204 15.4569 14.2246 15.4261 14.2505 15.4002L16.1626 13.4873L16.232 13.4087C16.4861 13.0818 16.4629 12.6091 16.1624 12.3087C15.8369 11.9834 15.3092 11.9835 14.9839 12.309L13.0722 14.2215L12.9684 14.3337C12.8362 14.4885 12.7286 14.6636 12.6503 14.8526C12.5524 15.0888 12.502 15.342 12.502 15.5977C12.502 15.8534 12.5524 16.1066 12.6503 16.3428C12.7482 16.579 12.8917 16.7936 13.0727 16.9744C13.2527 17.1546 13.4673 17.2981 13.7035 17.3961C13.9398 17.494 14.193 17.5444 14.4487 17.5444C14.7044 17.5444 14.9576 17.494 15.1938 17.3961C15.43 17.2982 15.6446 17.1546 15.8253 16.9737L18.4084 14.3907L18.5363 14.2547C19.0298 13.6966 19.3043 12.9759 19.3043 12.2269C19.3043 11.4154 18.9821 10.6372 18.4085 10.0632C18.1245 9.77893 17.7871 9.55335 17.4158 9.39946Z" fill="#18202A"/>
</g>
<defs>
<clipPath id="clip0_2266_36154">
<rect width="20" height="20" fill="white"/>
</clipPath>
</defs>
</svg>
