<svg width="20" height="20" viewBox="0 0 20 20" fill="none" xmlns="http://www.w3.org/2000/svg">
<path fill-rule="evenodd" clip-rule="evenodd" d="M13.9266 2.68417C14.1721 2.43861 14.5703 2.43861 14.8158 2.68417C15.0614 2.92974 15.0614 3.32788 14.8158 3.57344L14.0515 4.33778C14.6383 4.93864 15 5.76042 15 6.66667V13.3333C15 15.1743 13.5076 16.6667 11.6667 16.6667H3.33333C2.85925 16.6667 2.40829 16.5677 1.99997 16.3893L1.07344 17.3158C0.827877 17.5614 0.429739 17.5614 0.184174 17.3158C-0.0613909 17.0703 -0.0613907 16.6721 0.184174 16.4266L13.9266 2.68417ZM2.99925 15.39C3.10802 15.4076 3.21961 15.4167 3.33333 15.4167H11.6667C12.8173 15.4167 13.75 14.4839 13.75 13.3333V6.66667C13.75 6.1056 13.5282 5.59633 13.1675 5.22176L2.99925 15.39Z" fill="#18202A"/>
<path d="M0 6.66667C0 4.82572 1.49238 3.33333 3.33333 3.33333H11.5108L10.2608 4.58333H3.33333C2.18274 4.58333 1.25 5.51607 1.25 6.66667V13.3333C1.25 13.4167 1.2549 13.4989 1.26442 13.5797L0.24766 14.5965C0.088014 14.2069 0 13.7804 0 13.3333V6.66667Z" fill="#18202A"/>
<path fill-rule="evenodd" clip-rule="evenodd" d="M15.8333 7.59353C15.8333 7.32551 15.9622 7.07385 16.1797 6.91725L18.6797 5.11725C19.231 4.72036 20 5.11428 20 5.79353V14.2065C20 14.8857 19.231 15.2796 18.6797 14.8828L16.1797 13.0828C15.9622 12.9261 15.8333 12.6745 15.8333 12.4065V7.59353ZM18.75 13.393L17.0833 12.193V7.80696L18.75 6.60696V13.393Z" fill="#18202A"/>
</svg>
