<svg width="20" height="20" viewBox="0 0 20 20" fill="none" xmlns="http://www.w3.org/2000/svg">
<g clip-path="url(#clip0_2266_35801)">
<path fill-rule="evenodd" clip-rule="evenodd" d="M4.16667 0.833008C2.32572 0.833008 0.833334 2.32539 0.833334 4.16634V15.833C0.833334 17.674 2.32572 19.1663 4.16667 19.1663H15.8333C17.6743 19.1663 19.1667 17.674 19.1667 15.833V4.16634C19.1667 2.32539 17.6743 0.833008 15.8333 0.833008H4.16667ZM5 3.33301C4.07953 3.33301 3.33333 4.0792 3.33333 4.99967C3.33333 5.92015 4.07953 6.66634 5 6.66634C5.92048 6.66634 6.66667 5.92015 6.66667 4.99967C6.66667 4.0792 5.92048 3.33301 5 3.33301ZM8.33333 4.99967C8.33333 4.53944 8.70643 4.16634 9.16667 4.16634H15.8333C16.2936 4.16634 16.6667 4.53944 16.6667 4.99967C16.6667 5.45991 16.2936 5.83301 15.8333 5.83301H9.16667C8.70643 5.83301 8.33333 5.45991 8.33333 4.99967ZM4.16667 9.16634C3.70643 9.16634 3.33333 9.53944 3.33333 9.99967V15.833C3.33333 16.2932 3.70643 16.6663 4.16667 16.6663H15.8333C16.2936 16.6663 16.6667 16.2932 16.6667 15.833V9.99967C16.6667 9.53944 16.2936 9.16634 15.8333 9.16634H4.16667Z" fill="#18202A"/>
</g>
<defs>
<clipPath id="clip0_2266_35801">
<rect width="20" height="20" fill="white"/>
</clipPath>
</defs>
</svg>
