<svg width="20" height="20" viewBox="0 0 20 20" fill="none" xmlns="http://www.w3.org/2000/svg">
<path d="M4.84848 0.833496C3.09122 0.833496 1.66667 2.32727 1.66667 4.16993V5.8335H6.66667C6.66667 5.19369 6.91074 4.55388 7.3989 4.06573C8.37521 3.08942 9.95812 3.08942 10.9344 4.06573L13.4344 6.56573C14.4107 7.54204 14.4107 9.12495 13.4344 10.1013L10.9344 12.6013C9.95812 13.5776 8.37521 13.5776 7.3989 12.6013C6.91074 12.1131 6.66667 11.4733 6.66667 10.8335H1.66667V11.6769C1.66667 13.5196 3.09121 15.0133 4.84848 15.0133H5.28237L4.82115 17.3263C4.67945 18.037 5.4112 18.585 6.0063 18.214L11.1398 15.0133H15.9848C17.7421 15.0133 19.1667 13.5196 19.1667 11.6769V4.16993C19.1667 2.32727 17.7421 0.833496 15.9848 0.833496H4.84848Z" fill="#18202A"/>
<path d="M8.57741 5.24424C8.90285 4.9188 9.43049 4.9188 9.75592 5.24424L12.2559 7.74424C12.5814 8.06968 12.5814 8.59731 12.2559 8.92275L9.75592 11.4228C9.43049 11.7482 8.90285 11.7482 8.57741 11.4228C8.25197 11.0973 8.25197 10.5697 8.57741 10.2442L9.65482 9.16683H0.833333C0.373096 9.16683 0 8.79373 0 8.3335C0 7.87326 0.373096 7.50016 0.833333 7.50016H9.65482L8.57741 6.42275C8.25197 6.09731 8.25197 5.56968 8.57741 5.24424Z" fill="#18202A"/>
</svg>
