<svg width="20" height="20" viewBox="0 0 20 20" fill="none" xmlns="http://www.w3.org/2000/svg">
<path fill-rule="evenodd" clip-rule="evenodd" d="M13.3333 2.0835H6.66668C5.51608 2.0835 4.58334 3.01624 4.58334 4.16683V17.5002L8.25001 14.7502C9.28705 13.9724 10.713 13.9724 11.75 14.7502L15.4167 17.5002V4.16683C15.4167 3.01624 14.4839 2.0835 13.3333 2.0835ZM6.66668 0.833496C4.82573 0.833496 3.33334 2.32588 3.33334 4.16683V18.3335C3.33334 19.0202 4.11731 19.4122 4.66668 19.0002L9.00001 15.7502C9.5926 15.3057 10.4074 15.3057 11 15.7502L15.3333 19.0002C15.8827 19.4122 16.6667 19.0202 16.6667 18.3335V4.16683C16.6667 2.32588 15.1743 0.833496 13.3333 0.833496H6.66668Z" fill="#18202A"/>
<path d="M4.16668 5.00016H15.8333V6.25016H4.16668V5.00016Z" fill="#18202A"/>
</svg>
