<svg width="20" height="20" viewBox="0 0 20 20" fill="none" xmlns="http://www.w3.org/2000/svg">
<g clip-path="url(#clip0_2266_30439)">
<path fill-rule="evenodd" clip-rule="evenodd" d="M7.08329 0.416626C7.54353 0.416626 7.91663 0.789722 7.91663 1.24996V2.91663C7.91663 3.37686 7.54353 3.74996 7.08329 3.74996C6.62306 3.74996 6.24996 3.37686 6.24996 2.91663V1.24996C6.24996 0.789722 6.62306 0.416626 7.08329 0.416626ZM2.32737 2.32737C2.65281 2.00193 3.18044 2.00193 3.50588 2.32737L4.75588 3.57737C5.08132 3.90281 5.08132 4.43044 4.75588 4.75588C4.43044 5.08132 3.90281 5.08132 3.57737 4.75588L2.32737 3.50588C2.00193 3.18044 2.00193 2.65281 2.32737 2.32737ZM0.416626 7.08329C0.416626 6.62306 0.789722 6.24996 1.24996 6.24996H2.91663C3.37686 6.24996 3.74996 6.62306 3.74996 7.08329C3.74996 7.54353 3.37686 7.91663 2.91663 7.91663H1.24996C0.789722 7.91663 0.416626 7.54353 0.416626 7.08329ZM9.99994 2.92911C11.9526 0.976488 15.1184 0.976488 17.071 2.92911C19.0236 4.88173 19.0236 8.04755 17.071 10.0002L15.3032 11.7679C14.9778 12.0934 14.4502 12.0934 14.1247 11.7679C13.7993 11.4425 13.7993 10.9149 14.1247 10.5894L15.8925 8.82166C17.1942 7.51992 17.1942 5.40937 15.8925 4.10762C14.5907 2.80587 12.4802 2.80587 11.1784 4.10762L9.41068 5.87539C9.08524 6.20082 8.55761 6.20082 8.23217 5.87539C7.90673 5.54995 7.90673 5.02231 8.23217 4.69688L9.99994 2.92911ZM2.92885 9.99948C0.976233 11.9521 0.976233 15.1179 2.92885 17.0705C4.88148 19.0232 8.0473 19.0232 9.99992 17.0705L11.7677 15.3028C12.0931 14.9773 12.0931 14.4497 11.7677 14.1243C11.4423 13.7988 10.9146 13.7988 10.5892 14.1243L8.82141 15.892C7.51966 17.1938 5.40911 17.1938 4.10737 15.892C2.80562 14.5903 2.80562 12.4797 4.10737 11.178L5.87513 9.41022C6.20057 9.08479 6.20057 8.55715 5.87513 8.23171C5.5497 7.90628 5.02206 7.90628 4.69662 8.23171L2.92885 9.99948ZM12.0833 18.75C12.0833 19.2102 12.4564 19.5833 12.9166 19.5833C13.3769 19.5833 13.75 19.2102 13.75 18.75V17.0833C13.75 16.6231 13.3769 16.25 12.9166 16.25C12.4564 16.25 12.0833 16.6231 12.0833 17.0833V18.75ZM15.244 16.4226L16.494 17.6726C16.8195 17.998 17.3471 17.998 17.6726 17.6726C17.998 17.3471 17.998 16.8195 17.6726 16.494L16.4226 15.244C16.0971 14.9186 15.5695 14.9186 15.244 15.244C14.9186 15.5695 14.9186 16.0971 15.244 16.4226ZM18.75 13.75C19.2102 13.75 19.5833 13.3769 19.5833 12.9166C19.5833 12.4564 19.2102 12.0833 18.75 12.0833H17.0833C16.6231 12.0833 16.25 12.4564 16.25 12.9166C16.25 13.3769 16.6231 13.75 17.0833 13.75H18.75Z" fill="#18202A"/>
</g>
<defs>
<clipPath id="clip0_2266_30439">
<rect width="20" height="20" fill="white"/>
</clipPath>
</defs>
</svg>
