<svg width="20" height="20" viewBox="0 0 20 20" fill="none" xmlns="http://www.w3.org/2000/svg">
<g clip-path="url(#clip0_2266_36613)">
<path fill-rule="evenodd" clip-rule="evenodd" d="M19.1667 10.0002C19.1667 11.624 18.7444 13.1493 18.0037 14.4721L13.5225 9.99096L14.4062 9.09064C14.5811 8.91241 14.6145 8.67093 14.5578 8.47723C14.501 8.28307 14.3363 8.08607 14.0718 8.04581L11.6382 7.67541L10.5395 5.34699C10.3213 4.88456 9.67867 4.88455 9.46047 5.34699L9.27393 5.74234L5.52803 1.99645C6.85086 1.25575 8.37612 0.833496 10 0.833496C15.0626 0.833496 19.1667 4.93755 19.1667 10.0002ZM2.95513 4.13486L1.13436 2.31409C0.765661 1.94538 0.730823 1.38244 1.05655 1.05671C1.38228 0.730985 1.94522 0.765823 2.31392 1.13453L18.8656 17.6862C19.2343 18.0549 19.2692 18.6179 18.9435 18.9436C18.6177 19.2693 18.0548 19.2345 17.6861 18.8658L15.8653 17.045C14.2758 18.3698 12.231 19.1668 10 19.1668C4.93739 19.1668 0.833334 15.0628 0.833334 10.0002C0.833334 7.76918 1.63033 5.72435 2.95513 4.13486ZM12.8477 14.0274C12.8446 14.0299 12.8416 14.0324 12.8386 14.0349C12.6691 14.1716 12.4154 14.2203 12.1847 14.0935L10 12.8933L7.81532 14.0935C7.58461 14.2203 7.33094 14.1716 7.16146 14.0349C6.99525 13.9008 6.90293 13.6809 6.94101 13.449L7.3611 10.8911L5.59354 9.08761C5.41874 8.90925 5.38552 8.66773 5.44232 8.47404C5.49925 8.2799 5.66421 8.083 5.92883 8.043L6.74056 7.92028L12.8477 14.0274Z" fill="#18202A"/>
</g>
<defs>
<clipPath id="clip0_2266_36613">
<rect width="20" height="20" fill="white"/>
</clipPath>
</defs>
</svg>
