<svg width="20" height="20" viewBox="0 0 20 20" fill="none" xmlns="http://www.w3.org/2000/svg">
<path fill-rule="evenodd" clip-rule="evenodd" d="M4.16667 14.1666L9.01113 18.5945C10.3481 19.8165 12.5 18.868 12.5 17.0567V2.9434C12.5 1.13214 10.3482 0.183641 9.01117 1.40559L4.16667 5.83327H2.5C1.11929 5.83327 0 6.95256 0 8.33327V11.6666C0 13.0473 1.11929 14.1666 2.5 14.1666H4.16667ZM4.65185 12.9166L9.85445 17.6718C10.3892 18.1606 11.25 17.7812 11.25 17.0567V2.9434C11.25 2.21889 10.3893 1.8395 9.85447 2.32827L4.65184 7.08327H4.58333V12.9166H4.65185ZM3.33333 12.9166V7.08327H2.5C1.80964 7.08327 1.25 7.64292 1.25 8.33327V11.6666C1.25 12.357 1.80964 12.9166 2.5 12.9166H3.33333Z" fill="#18202A"/>
<path d="M18.0209 6.35693C17.8589 6.05216 17.4804 5.93646 17.1756 6.09851C16.8709 6.26056 16.7552 6.639 16.9172 6.94377C17.4307 7.9095 17.7075 9.0397 17.7075 10.2002C17.7075 11.3608 17.4307 12.491 16.9172 13.4567C16.7552 13.7615 16.8709 14.1399 17.1756 14.302C17.4804 14.464 17.8589 14.3483 18.0209 14.0435C18.6351 12.8885 18.9575 11.5554 18.9575 10.2002C18.9575 8.84508 18.6351 7.51199 18.0209 6.35693Z" fill="#18202A"/>
<path d="M15.5692 7.68601C15.3757 7.40018 14.9871 7.32534 14.7013 7.51885C14.4155 7.71237 14.3406 8.10096 14.5341 8.38679C14.8808 8.89889 15.0783 9.5528 15.0783 10.2388C15.0783 10.9248 14.8808 11.5788 14.5341 12.0909C14.3406 12.3767 14.4155 12.7653 14.7013 12.9588C14.9871 13.1523 15.3757 13.0775 15.5692 12.7916C16.0655 12.0586 16.3283 11.1571 16.3283 10.2388C16.3283 9.32056 16.0655 8.41907 15.5692 7.68601Z" fill="#18202A"/>
</svg>
