<svg width="20" height="20" viewBox="0 0 20 20" fill="none" xmlns="http://www.w3.org/2000/svg">
<path fill-rule="evenodd" clip-rule="evenodd" d="M12.942 5.23393C12.6979 5.47801 12.3021 5.47801 12.0581 5.23393L10 3.17588L7.94195 5.23393C7.69788 5.47801 7.30215 5.47801 7.05807 5.23393C6.81399 4.98985 6.81399 4.59413 7.05807 4.35005L9.55807 1.85005C9.80215 1.60597 10.1979 1.60597 10.442 1.85005L12.942 4.35005C13.186 4.59413 13.186 4.98986 12.942 5.23393ZM1.45834 7.50033C1.11317 7.50033 0.833344 7.78015 0.833344 8.12533C0.833344 8.4705 1.11317 8.75033 1.45834 8.75033H18.5417C18.8869 8.75033 19.1667 8.4705 19.1667 8.12533C19.1667 7.78015 18.8869 7.50033 18.5417 7.50033H1.45834ZM1.45834 11.2503C1.11317 11.2503 0.833344 11.5301 0.833344 11.8753C0.833344 12.2205 1.11317 12.5003 1.45834 12.5003H18.5417C18.8869 12.5003 19.1667 12.2205 19.1667 11.8753C19.1667 11.5301 18.8869 11.2503 18.5417 11.2503H1.45834ZM12.942 15.6506C13.186 15.4065 13.186 15.0108 12.942 14.7667C12.6979 14.5226 12.3021 14.5226 12.0581 14.7667L10 16.8248L7.94195 14.7667C7.69788 14.5226 7.30215 14.5226 7.05807 14.7667C6.81399 15.0108 6.81399 15.4065 7.05807 15.6506L9.55807 18.1506C9.80215 18.3947 10.1979 18.3947 10.442 18.1506L12.942 15.6506Z" fill="#18202A"/>
</svg>
