<svg width="20" height="20" viewBox="0 0 20 20" fill="none" xmlns="http://www.w3.org/2000/svg">
<path fill-rule="evenodd" clip-rule="evenodd" d="M6.45831 3.33325C6.11314 3.33325 5.83331 3.61307 5.83331 3.95825V16.0416C5.83331 16.3868 6.11314 16.6666 6.45831 16.6666H12.0833C14.1544 16.6666 15.8333 14.9877 15.8333 12.9166C15.8333 11.2265 14.7153 9.79761 13.1785 9.32905C13.7905 8.69249 14.1666 7.82763 14.1666 6.87492C14.1666 4.91891 12.581 3.33325 10.625 3.33325H6.45831ZM10.625 9.16658C11.8906 9.16658 12.9166 8.14057 12.9166 6.87492C12.9166 5.60927 11.8906 4.58325 10.625 4.58325H7.08331V9.16658H10.625ZM14.5833 12.9166C14.5833 11.5359 13.464 10.4166 12.0833 10.4166H7.08331V15.4166H12.0833C13.464 15.4166 14.5833 14.2973 14.5833 12.9166Z" fill="#18202A"/>
</svg>
