<svg width="20" height="20" viewBox="0 0 20 20" fill="none" xmlns="http://www.w3.org/2000/svg">
<path d="M7.49996 2.49996C7.49996 2.03972 7.87306 1.66663 8.33329 1.66663H11.6666C12.1269 1.66663 12.5 2.03972 12.5 2.49996C12.5 2.9602 12.1269 3.33329 11.6666 3.33329H10.8333V16.6666H11.6666C12.1269 16.6666 12.5 17.0397 12.5 17.5C12.5 17.9602 12.1269 18.3333 11.6666 18.3333H8.33329C7.87306 18.3333 7.49996 17.9602 7.49996 17.5C7.49996 17.0397 7.87306 16.6666 8.33329 16.6666H9.16663V3.33329H8.33329C7.87306 3.33329 7.49996 2.9602 7.49996 2.49996Z" fill="#18202A"/>
<path d="M1.66663 6.66663C1.66663 5.28591 2.78591 4.16663 4.16663 4.16663H8.33329V15.8333H4.16663C2.78591 15.8333 1.66663 14.714 1.66663 13.3333V6.66663Z" fill="#18202A"/>
<path d="M18.3333 6.66663C18.3333 5.28591 17.214 4.16663 15.8333 4.16663H11.6666V15.8333H15.8333C17.214 15.8333 18.3333 14.714 18.3333 13.3333V6.66663Z" fill="#18202A"/>
</svg>
