<svg width="20" height="20" viewBox="0 0 20 20" fill="none" xmlns="http://www.w3.org/2000/svg">
<path d="M5.83334 2.29176C5.83334 2.04494 5.68808 1.82124 5.46261 1.72082C5.23714 1.62041 4.9737 1.66209 4.79024 1.8272L2.7069 3.7022C2.45033 3.93311 2.42953 4.32829 2.66045 4.58486C2.89136 4.84143 3.28654 4.86223 3.54311 4.63132L4.58334 3.69511V7.70851C4.58334 8.05369 4.86316 8.33351 5.20834 8.33351C5.55352 8.33351 5.83334 8.05369 5.83334 7.70851V2.29176Z" fill="#18202A"/>
<path d="M3.75002 12.0834C3.75002 11.8537 4.04289 11.2501 5.00002 11.2501C5.95714 11.2501 6.25002 11.8537 6.25002 12.0834C6.25002 12.8257 5.84391 13.2723 4.97474 14.1415L2.68308 16.4331C2.50433 16.6119 2.45086 16.8807 2.54759 17.1143C2.64433 17.3478 2.87223 17.5001 3.12502 17.5001H6.87502C7.2202 17.5001 7.50002 17.2203 7.50002 16.8751C7.50002 16.5299 7.2202 16.2501 6.87502 16.2501H4.6339L5.92684 14.9572C6.7035 14.1817 7.50002 13.3863 7.50002 12.0834C7.50002 11.0632 6.54289 10.0001 5.00002 10.0001C3.45714 10.0001 2.50002 11.0632 2.50002 12.0834C2.50002 12.4286 2.77984 12.7084 3.12502 12.7084C3.4702 12.7084 3.75002 12.4286 3.75002 12.0834Z" fill="#18202A"/>
<path d="M9.16667 3.95841C9.16667 3.61324 9.44649 3.33341 9.79167 3.33341H17.7083C18.0535 3.33341 18.3333 3.61324 18.3333 3.95841C18.3333 4.30359 18.0535 4.58341 17.7083 4.58341H9.79167C9.44649 4.58341 9.16667 4.30359 9.16667 3.95841Z" fill="#18202A"/>
<path d="M9.79167 6.25008C9.44649 6.25008 9.16667 6.5299 9.16667 6.87508C9.16667 7.22026 9.44649 7.50008 9.79167 7.50008H17.7083C18.0535 7.50008 18.3333 7.22026 18.3333 6.87508C18.3333 6.5299 18.0535 6.25008 17.7083 6.25008H9.79167Z" fill="#18202A"/>
<path d="M9.16667 13.1251C9.16667 12.7799 9.44649 12.5001 9.79167 12.5001H17.7083C18.0535 12.5001 18.3333 12.7799 18.3333 13.1251C18.3333 13.4703 18.0535 13.7501 17.7083 13.7501H9.79167C9.44649 13.7501 9.16667 13.4703 9.16667 13.1251Z" fill="#18202A"/>
<path d="M9.79167 15.4167C9.44649 15.4167 9.16667 15.6966 9.16667 16.0417C9.16667 16.3869 9.44649 16.6667 9.79167 16.6667H17.7083C18.0535 16.6667 18.3333 16.3869 18.3333 16.0417C18.3333 15.6966 18.0535 15.4167 17.7083 15.4167H9.79167Z" fill="#18202A"/>
</svg>
