<svg width="20" height="20" viewBox="0 0 20 20" fill="none" xmlns="http://www.w3.org/2000/svg">
<path fill-rule="evenodd" clip-rule="evenodd" d="M14.6651 3.2345C14.786 3.29915 14.9209 3.33299 15.058 3.33301H15C17.3012 3.33301 19.1667 5.19849 19.1667 7.49967V14.1663C19.1667 16.4675 17.3012 18.333 15 18.333H5C2.69881 18.333 0.833334 16.4675 0.833334 14.1663V7.49967C0.833334 5.19849 2.69881 3.33301 5 3.33301H4.94181C5.07889 3.33299 5.21384 3.29915 5.33472 3.2345C5.45566 3.16981 5.55877 3.07627 5.6349 2.96217L6.31157 1.94634C6.53984 1.6039 6.84913 1.3231 7.21198 1.12889C7.57483 0.934671 7.98001 0.833038 8.39157 0.833008H11.6082C12.0198 0.833038 12.425 0.934671 12.7878 1.12889C13.1507 1.3231 13.46 1.6039 13.6882 1.94634L14.3649 2.96217C14.441 3.07627 14.5441 3.16981 14.6651 3.2345ZM7.47072 8.14553C8.11423 7.4891 9.00913 7.08301 10 7.08301C11.5465 7.08301 12.8615 8.07424 13.3443 9.45604L12.4116 9.58929C12.1614 9.62504 11.9573 9.80801 11.8946 10.0529C11.8318 10.2978 11.9228 10.5563 12.125 10.708L13.7917 11.958C14.0678 12.1651 14.4596 12.1091 14.6667 11.833L15.9167 10.1663C16.0683 9.96411 16.0833 9.69043 15.9545 9.47291C15.8257 9.25539 15.5785 9.13687 15.3283 9.17262L14.5995 9.27674C14.0172 7.28661 12.1784 5.83301 10 5.83301C8.65972 5.83301 7.44702 6.38411 6.57809 7.27048C6.33645 7.51697 6.34039 7.91268 6.58688 8.15432C6.83337 8.39596 7.22908 8.39203 7.47072 8.14553ZM6.20834 9.29134C5.93219 9.08423 5.54044 9.1402 5.33334 9.41634L4.08334 11.083C3.93166 11.2852 3.91674 11.5589 4.04554 11.7764C4.17433 11.994 4.42148 12.1125 4.67172 12.0767L5.40054 11.9726C5.98281 13.9627 7.82165 15.4163 10 15.4163C11.3403 15.4163 12.553 14.8652 13.4219 13.9789C13.6636 13.7324 13.6596 13.3367 13.4131 13.095C13.1666 12.8534 12.7709 12.8573 12.5293 13.1038C11.8858 13.7602 10.9909 14.1663 10 14.1663C8.45349 14.1663 7.13849 13.1751 6.65567 11.7933L7.58839 11.6601C7.83864 11.6243 8.04271 11.4413 8.10545 11.1965C8.16819 10.9516 8.07723 10.693 7.875 10.5413L6.20834 9.29134Z" fill="#18202A"/>
</svg>
