<svg width="20" height="20" viewBox="0 0 20 20" fill="none" xmlns="http://www.w3.org/2000/svg">
<path d="M15.4991 1.96363L14.8866 2.57613L17.4237 5.11319L18.0362 4.50069C18.2264 4.31038 18.3333 4.05231 18.3333 3.78321C18.3333 3.51412 18.2264 3.25604 18.0362 3.06573L16.9341 1.96363C16.7438 1.77338 16.4857 1.6665 16.2166 1.6665C15.9475 1.6665 15.6894 1.77338 15.4991 1.96363Z" fill="#18202A"/>
<path d="M16.7061 5.83078L14.169 3.29372L8.69268 8.77006L8.33927 11.0823C8.28754 11.4208 8.57904 11.7123 8.91752 11.6605L11.2297 11.3071L16.7061 5.83078Z" fill="#18202A"/>
<path d="M9.99996 4.1665C9.99996 3.70627 9.62686 3.33317 9.16663 3.33317H4.16663C2.78591 3.33317 1.66663 4.45246 1.66663 5.83317V15.8332C1.66663 17.2139 2.78591 18.3332 4.16663 18.3332H14.1666C15.5473 18.3332 16.6666 17.2139 16.6666 15.8332V10.8332C16.6666 10.3729 16.2935 9.99984 15.8333 9.99984C15.3731 9.99984 15 10.3729 15 10.8332V15.8332C15 16.2934 14.6269 16.6665 14.1666 16.6665H4.16663C3.70639 16.6665 3.33329 16.2934 3.33329 15.8332V5.83317C3.33329 5.37293 3.70639 4.99984 4.16663 4.99984H9.16663C9.62686 4.99984 9.99996 4.62674 9.99996 4.1665Z" fill="#18202A"/>
</svg>
