<svg width="20" height="20" viewBox="0 0 20 20" fill="none" xmlns="http://www.w3.org/2000/svg">
<path fill-rule="evenodd" clip-rule="evenodd" d="M7.7253 8.01874L2.75838 8.71069L6.34935 12.087L5.48799 16.9203L9.99998 14.636L14.512 16.9203L13.6505 12.0865L17.2415 8.71478L12.2743 8.01808L9.99998 3.57619L7.7253 8.01874ZM6.90895 6.87039L0.861958 7.71281C0.515341 7.7611 0.379068 8.18932 0.634032 8.42905L4.99998 12.5341L3.9644 18.3449C3.90411 18.6832 4.25622 18.9449 4.56281 18.7897L9.99998 16.0371L15.4372 18.7897C15.7437 18.9449 16.0959 18.6832 16.0356 18.3449L15 12.5341L19.3657 8.43498C19.6208 8.19546 19.4849 7.76719 19.1384 7.71859L13.091 6.87039L10.3709 1.55782C10.216 1.25547 9.78392 1.25546 9.62911 1.55782L6.90895 6.87039Z" fill="#18202A"/>
</svg>
