<svg width="20" height="20" viewBox="0 0 20 20" fill="none" xmlns="http://www.w3.org/2000/svg">
<g clip-path="url(#clip0_2266_39658)">
<path fill-rule="evenodd" clip-rule="evenodd" d="M3.08874 3.97816L1.85085 2.74027C1.60529 2.49471 1.60529 2.09657 1.85085 1.851C2.09642 1.60544 2.49455 1.60544 2.74012 1.851L18.1492 17.2601C18.3947 17.5056 18.3947 17.9038 18.1492 18.1493C17.9036 18.3949 17.5055 18.3949 17.2599 18.1493L16.022 16.9114C14.4113 18.3161 12.305 19.1668 10 19.1668C4.9374 19.1668 0.833344 15.0628 0.833344 10.0002C0.833344 7.69516 1.6841 5.58887 3.08874 3.97816ZM15.1357 16.0251C13.7532 17.2047 11.9598 17.9168 10 17.9168C5.62776 17.9168 2.08334 14.3724 2.08334 10.0002C2.08334 8.04039 2.79545 6.24694 3.97502 4.86445L6.8821 7.77152L5.8977 7.92034C5.53878 7.9746 5.31782 8.24159 5.24241 8.49875C5.1672 8.75523 5.21052 9.07776 5.44476 9.31677L7.13842 11.0448L6.73544 13.4986C6.68493 13.8062 6.80741 14.1003 7.03066 14.2803C7.25881 14.4644 7.6032 14.5311 7.91564 14.3595L10 13.2143L12.0844 14.3595C12.3968 14.5311 12.7412 14.4644 12.9694 14.2803C13.0476 14.2172 13.1135 14.1401 13.1639 14.0533L15.1357 16.0251ZM11.8777 12.7671L7.98028 8.8697L6.91473 9.03079L8.47456 10.6223L8.11283 12.8249L10 11.7881L11.8872 12.8249L11.8777 12.7671ZM8.86335 6.20766L9.80242 7.14673L10 6.72794L10.5507 7.89497L11.4376 8.78187L13.0853 9.03267L12.3934 9.73769L13.2773 10.6216L14.5549 9.3199C14.7893 9.08107 14.8328 8.75859 14.7578 8.50209C14.6826 8.24491 14.4619 7.97779 14.1031 7.92318L11.7792 7.56948L10.728 5.34142C10.4346 4.71974 9.5654 4.71974 9.27207 5.34142L8.86335 6.20766ZM17.9167 10.0002C17.9167 11.5056 17.4965 12.913 16.7669 14.1112L17.673 15.0173C18.6175 13.5759 19.1667 11.8522 19.1667 10.0002C19.1667 4.93755 15.0626 0.833496 10 0.833496C8.14802 0.833496 6.4243 1.38271 4.98285 2.32716L5.88895 3.23326C7.08722 2.50372 8.49454 2.0835 10 2.0835C14.3723 2.0835 17.9167 5.62791 17.9167 10.0002Z" fill="#18202A"/>
</g>
<defs>
<clipPath id="clip0_2266_39658">
<rect width="20" height="20" fill="white"/>
</clipPath>
</defs>
</svg>
