<svg width="20" height="20" viewBox="0 0 20 20" fill="none" xmlns="http://www.w3.org/2000/svg">
<path fill-rule="evenodd" clip-rule="evenodd" d="M4.43785 17.9474C3.30352 17.6856 2.5 16.6755 2.5 15.5114V3.3335C2.5 1.95278 3.61929 0.833496 5 0.833496H15C16.3807 0.833496 17.5 1.95278 17.5 3.3335V15.0002C17.5 16.3809 16.3807 17.5002 15 17.5002H13.3333V17.9051C13.3333 18.9769 12.3363 19.7701 11.2919 19.5291L4.43785 17.9474ZM12.0414 3.03537L9.72222 2.50016H15C15.4602 2.50016 15.8333 2.87326 15.8333 3.3335V15.0002C15.8333 15.4604 15.4602 15.8335 15 15.8335H13.3333V4.65935C13.3333 3.88326 12.7977 3.20988 12.0414 3.03537ZM11.6667 11.2502C11.6667 11.9405 11.2936 12.5002 10.8333 12.5002C10.3731 12.5002 10 11.9405 10 11.2502C10 10.5598 10.3731 10.0002 10.8333 10.0002C11.2936 10.0002 11.6667 10.5598 11.6667 11.2502Z" fill="#18202A"/>
</svg>
