<svg width="20" height="20" viewBox="0 0 20 20" fill="none" xmlns="http://www.w3.org/2000/svg">
<g clip-path="url(#clip0_3352_8961)">
<path fill-rule="evenodd" clip-rule="evenodd" d="M2.54987 2.88039C2.64797 2.64974 2.87437 2.5 3.12502 2.5H16.875C17.1257 2.5 17.3521 2.64974 17.4502 2.88039C17.5483 3.11104 17.4991 3.37798 17.3252 3.55853L12.0833 9.002V16.875C12.0833 17.1143 11.9468 17.3325 11.7316 17.4371C11.5164 17.5417 11.2603 17.5143 11.0722 17.3664L8.15554 15.0748C8.00474 14.9563 7.91668 14.7751 7.91668 14.5833V9.002L2.67482 3.55853C2.50096 3.37798 2.45178 3.11104 2.54987 2.88039ZM4.59454 3.75L8.99188 8.31647C9.10403 8.43293 9.16668 8.58832 9.16668 8.75V14.2796L10.8333 15.5891V8.75C10.8333 8.58832 10.896 8.43293 11.0081 8.31647L15.4055 3.75H4.59454Z" fill="#18202A"/>
</g>
<defs>
<clipPath id="clip0_3352_8961">
<rect width="20" height="20" fill="white"/>
</clipPath>
</defs>
</svg>
