<svg width="20" height="20" viewBox="0 0 20 20" fill="none" xmlns="http://www.w3.org/2000/svg">
<g clip-path="url(#clip0_2266_35882)">
<path fill-rule="evenodd" clip-rule="evenodd" d="M19.1667 9.99992C19.1667 15.0625 15.0626 19.1666 10 19.1666C4.93739 19.1666 0.833334 15.0625 0.833334 9.99992C0.833334 4.93731 4.93739 0.833252 10 0.833252C15.0626 0.833252 19.1667 4.93731 19.1667 9.99992ZM8.75 6.24992C8.75 5.55956 9.30964 4.99992 10 4.99992C10.6904 4.99992 11.25 5.55956 11.25 6.24992C11.25 6.94028 10.6904 7.49992 10 7.49992C9.30964 7.49992 8.75 6.94028 8.75 6.24992ZM7.5 9.16659C7.5 8.70635 7.8731 8.33325 8.33333 8.33325H10C10.4602 8.33325 10.8333 8.70635 10.8333 9.16659V13.3333H11.6667C12.1269 13.3333 12.5 13.7063 12.5 14.1666C12.5 14.6268 12.1269 14.9999 11.6667 14.9999H8.33333C7.8731 14.9999 7.5 14.6268 7.5 14.1666C7.5 13.7063 7.8731 13.3333 8.33333 13.3333H9.16667V9.99992H8.33333C7.8731 9.99992 7.5 9.62682 7.5 9.16659Z" fill="#18202A"/>
</g>
<defs>
<clipPath id="clip0_2266_35882">
<rect width="20" height="20" fill="white"/>
</clipPath>
</defs>
</svg>
