<svg width="20" height="20" viewBox="0 0 20 20" fill="none" xmlns="http://www.w3.org/2000/svg">
<path fill-rule="evenodd" clip-rule="evenodd" d="M16.0844 17.618C16.5336 17.1271 16.8898 16.5443 17.1327 15.9029C17.3755 15.2615 17.5004 14.5741 17.5 13.88V8.33333H17.4583C17.2653 7.3824 16.4246 6.66667 15.4167 6.66667C15.1562 6.66667 14.9068 6.71448 14.6769 6.80182C14.3075 6.21969 13.6572 5.83333 12.9167 5.83333C12.6562 5.83333 12.4068 5.88115 12.1769 5.96849C11.8787 5.49853 11.3974 5.15617 10.8333 5.04167C10.6987 5.01435 10.5594 5 10.4167 5C10.274 5 10.1346 5.01435 10 5.04167V2.08333C10 0.93274 9.06726 0 7.91667 0C6.76607 0 5.83333 0.93274 5.83333 2.08333V8.35482C5.20466 8.43616 4.61538 8.74593 4.1632 9.23991C3.63185 9.82038 3.33333 10.6077 3.33333 11.4286C3.33312 12.9385 3.76505 14.4107 4.56867 15.6391L5.60756 17.2229C6.00045 17.8236 6.51883 18.3133 7.11967 18.6514C7.72051 18.9894 8.38649 19.1661 9.06233 19.1667H12.6635C13.2989 19.1667 13.928 19.0299 14.515 18.7642C15.102 18.4985 15.6353 18.109 16.0844 17.618ZM8.33333 9.16667C8.33333 9.6269 8.70643 10 9.16667 10C9.6269 10 10 9.6269 10 9.16667V6.74233L10.3316 6.67503C10.3577 6.66973 10.386 6.66667 10.4167 6.66667C10.563 6.66667 10.6931 6.74085 10.7697 6.86158L10.8333 6.96178V9.16667C10.8333 9.6269 11.2064 10 11.6667 10C12.1269 10 12.5 9.6269 12.5 9.16667V7.62864L12.7688 7.5265C12.8126 7.50989 12.8615 7.5 12.9167 7.5C13.063 7.5 13.1931 7.57418 13.2697 7.69491L13.3333 7.79511V9.16667C13.3333 9.6269 13.7064 10 14.1667 10C14.6269 10 15 9.6269 15 9.16667V8.46197L15.2688 8.35983C15.3126 8.34322 15.3615 8.33333 15.4167 8.33333C15.6163 8.33333 15.7865 8.4754 15.825 8.66489L15.8333 8.70607V13.8809C15.8336 14.3755 15.7445 14.8624 15.574 15.3126C15.4036 15.7627 15.1569 16.1627 14.8547 16.4931C14.5528 16.8231 14.2023 17.0762 13.8277 17.2458C13.4535 17.4152 13.0584 17.5 12.6635 17.5H9.06374C8.67965 17.4997 8.29391 17.3997 7.93693 17.1989C7.57891 16.9974 7.25514 16.6971 7.0024 16.3106L5.96341 14.7267L5.96293 14.726C5.34237 13.7771 4.99983 12.624 5 11.4288C5 11.0047 5.15558 10.6242 5.39257 10.3653C5.59096 10.1485 5.82572 10.0364 6.04721 10.0077L7.5 9.81972V2.08333C7.5 1.85321 7.68655 1.66667 7.91667 1.66667C8.14679 1.66667 8.33333 1.85321 8.33333 2.08333V9.16667Z" fill="#18202A"/>
</svg>
