<svg width="20" height="20" viewBox="0 0 20 20" fill="none" xmlns="http://www.w3.org/2000/svg">
<g clip-path="url(#clip0_2266_37837)">
<path fill-rule="evenodd" clip-rule="evenodd" d="M10 9.16634C12.2222 9.16634 13.3333 7.08301 13.3333 4.47884C13.3333 2.39551 12.2222 0.833008 10 0.833008C7.77778 0.833008 6.66667 2.39551 6.66667 4.47884C6.66667 7.08301 7.77778 9.16634 10 9.16634ZM10 10.833C10.8106 10.833 11.5942 10.9487 12.3351 11.1646C10.9172 12.2287 10 13.9238 10 15.833C10 17.0574 10.3773 18.1938 11.0219 19.1321C10.6842 19.1548 10.3434 19.1663 10 19.1663C8.71051 19.1663 7.45902 19.0036 6.26494 18.6976C5.24908 18.4373 4.38809 17.7568 3.91655 16.8201L3.87764 16.7422C3.22579 15.4258 3.44745 13.8131 4.55972 12.8537C6.01956 11.5944 7.92088 10.833 10 10.833ZM20 15.833C20 18.1342 18.1345 19.9997 15.8333 19.9997C13.5321 19.9997 11.6667 18.1342 11.6667 15.833C11.6667 13.5318 13.5321 11.6663 15.8333 11.6663C18.1345 11.6663 20 13.5318 20 15.833ZM15.7561 17.1602C15.7153 17.201 15.6677 17.2345 15.6155 17.2591L13.7988 18.114C13.6338 18.1916 13.4594 18.0258 13.5286 17.8571L14.319 15.931C14.3467 15.8635 14.3889 15.8029 14.4425 15.7534L16.9564 13.4328C17.1536 13.2508 17.4593 13.2569 17.6491 13.4467L18.2058 14.0034C18.4011 14.1987 18.4011 14.5153 18.2058 14.7105L15.7561 17.1602Z" fill="#18202A"/>
</g>
<defs>
<clipPath id="clip0_2266_37837">
<rect width="20" height="20" fill="white"/>
</clipPath>
</defs>
</svg>
