<svg width="20" height="20" viewBox="0 0 20 20" fill="none" xmlns="http://www.w3.org/2000/svg">
<path d="M12.5 10C12.5 11.3807 11.3807 12.5 10 12.5C8.61929 12.5 7.5 11.3807 7.5 10C7.5 8.61929 8.61929 7.5 10 7.5C11.3807 7.5 12.5 8.61929 12.5 10Z" fill="#18202A"/>
<path fill-rule="evenodd" clip-rule="evenodd" d="M9.99998 3.5C4.63498 3.5 1.66858 8.69696 1.10079 9.79699C1.03362 9.92711 1.03362 10.0729 1.10079 10.203C1.66858 11.303 4.63498 16.5 9.99998 16.5C15.365 16.5 18.3314 11.303 18.8992 10.203C18.9663 10.0729 18.9663 9.92711 18.8992 9.79699C18.3314 8.69696 15.365 3.5 9.99998 3.5ZM9.99998 14C12.2091 14 14 12.2091 14 10C14 7.79086 12.2091 6 9.99998 6C7.79084 6 5.99998 7.79086 5.99998 10C5.99998 12.2091 7.79084 14 9.99998 14Z" fill="#18202A"/>
</svg>
