<svg width="20" height="20" viewBox="0 0 20 20" fill="none" xmlns="http://www.w3.org/2000/svg">
<path d="M9.99998 3.10881C9.99998 2.76364 9.71932 2.48199 9.37467 2.50099C4.6037 2.76396 0.833313 6.01363 0.833313 9.98381C0.833313 14.1259 4.93737 17.4838 9.99998 17.4838C10.9802 17.4838 11.9245 17.3579 12.81 17.1248L15.4019 18.2048C15.9785 18.4451 16.6047 17.9889 16.5529 17.3664L16.386 15.3643C18.1011 14.0015 19.1666 12.0944 19.1666 9.98381C19.1666 9.88354 19.1642 9.78373 19.1595 9.68441C19.1448 9.3776 18.8815 9.15048 18.5744 9.15048C18.193 9.15048 17.9069 9.49578 17.9154 9.87706C17.9162 9.91261 17.9166 9.9482 17.9166 9.98381C17.9166 11.6492 17.079 13.217 15.6083 14.3857L15.0848 14.8017L15.2503 16.7875L12.9006 15.8084L12.4918 15.916C11.7106 16.1217 10.8732 16.2338 9.99998 16.2338C5.3815 16.2338 2.08331 13.2128 2.08331 9.98381C2.08331 6.90263 5.08654 4.01075 9.37441 3.75252C9.71897 3.73177 9.99998 3.45399 9.99998 3.10881Z" fill="#18202A"/>
<path d="M13.5416 1.66675C13.8868 1.66675 14.1666 1.94657 14.1666 2.29175V2.93519C15.6197 3.24437 17.2965 4.79255 17.2965 5.83341C17.2965 6.23274 16.7788 6.04955 16.0998 5.80934C15.4993 5.59686 14.7726 5.33975 14.1666 5.40171V10.0001C14.1666 11.3808 13.0474 12.5001 11.6666 12.5001C10.2859 12.5001 9.16665 11.3808 9.16665 10.0001C9.16665 8.61937 10.2859 7.50008 11.6666 7.50008C12.122 7.50008 12.5489 7.62182 12.9166 7.83454V2.29175C12.9166 1.94657 13.1965 1.66675 13.5416 1.66675Z" fill="#18202A"/>
</svg>
