<svg width="20" height="20" viewBox="0 0 20 20" fill="none" xmlns="http://www.w3.org/2000/svg">
<g clip-path="url(#clip0_2266_38308)">
<path fill-rule="evenodd" clip-rule="evenodd" d="M4.16668 2.08301H15.8333C16.9839 2.08301 17.9167 3.01575 17.9167 4.16634V11.2469C18.4442 11.6424 18.8749 12.1601 19.1667 12.7579V4.16634C19.1667 2.32539 17.6743 0.833008 15.8333 0.833008H4.16668C2.32573 0.833008 0.833344 2.32539 0.833344 4.16634V15.833C0.833344 17.674 2.32573 19.1663 4.16668 19.1663H10.9747C10.6225 18.8483 10.4214 18.3861 10.4168 17.9163H4.16668C3.01608 17.9163 2.08334 16.9836 2.08334 15.833V4.16634C2.08334 3.01575 3.01608 2.08301 4.16668 2.08301ZM16.6667 10.6061V9.58301C16.6667 8.66253 15.9205 7.91634 15 7.91634H5.00001C4.07954 7.91634 3.33334 8.66253 3.33334 9.58301V14.9997C3.33334 15.9201 4.07954 16.6663 5.00001 16.6663H10.9834C11.0162 16.6378 11.0506 16.61 11.0866 16.583C11.1915 16.5043 11.2532 16.3808 11.2532 16.2497V15.4163H5.00001C4.76989 15.4163 4.58334 15.2298 4.58334 14.9997V9.58301C4.58334 9.35289 4.76989 9.16634 5.00001 9.16634H15C15.2301 9.16634 15.4167 9.35289 15.4167 9.58301V10.4163C15.4178 10.4163 15.4188 10.4163 15.4199 10.4163C15.8542 10.4163 16.273 10.4828 16.6667 10.6061ZM5.00001 3.33301C4.07954 3.33301 3.33334 4.0792 3.33334 4.99967C3.33334 5.92015 4.07954 6.66634 5.00001 6.66634C5.92048 6.66634 6.66668 5.92015 6.66668 4.99967C6.66668 4.0792 5.92048 3.33301 5.00001 3.33301ZM8.33334 4.99967C8.33334 4.6545 8.61317 4.37467 8.95834 4.37467H15.625C15.9702 4.37467 16.25 4.6545 16.25 4.99967C16.25 5.34485 15.9702 5.62467 15.625 5.62467H8.95834C8.61317 5.62467 8.33334 5.34485 8.33334 4.99967Z" fill="#18202A"/>
<path fill-rule="evenodd" clip-rule="evenodd" d="M18.3333 14.5955L18.3333 14.5837C18.3333 12.9728 17.0275 11.667 15.4167 11.667C14.4899 11.667 13.6641 12.0992 13.1299 12.7731L18.4979 16.8781C18.3907 16.6305 18.3333 16.3606 18.3333 16.0837V14.5955ZM17.932 18.3337H11.9167C11.5696 18.3337 11.4224 17.8919 11.7 17.6837C12.2036 17.3059 12.5 16.7132 12.5 16.0837V14.5837L12.5 14.5837L12.5 14.5836C12.5 14.4533 12.5086 14.3249 12.5251 14.199L17.932 18.3337ZM14.1667 19.5837C14.1667 19.3535 14.3532 19.167 14.5833 19.167H16.25C16.4801 19.167 16.6667 19.3535 16.6667 19.5837C16.6667 19.8138 16.4801 20.0003 16.25 20.0003H14.5833C14.3532 20.0003 14.1667 19.8138 14.1667 19.5837Z" fill="#18202A"/>
<path d="M12.0833 12.083L19.1667 17.4997" stroke="#18202A" stroke-width="1.5" stroke-linecap="round"/>
</g>
<defs>
<clipPath id="clip0_2266_38308">
<rect width="20" height="20" fill="white"/>
</clipPath>
</defs>
</svg>
