<svg width="20" height="20" viewBox="0 0 20 20" fill="none" xmlns="http://www.w3.org/2000/svg">
<g clip-path="url(#clip0_2266_34694)">
<path fill-rule="evenodd" clip-rule="evenodd" d="M15 19.1667H12.3334C11.5049 19.1667 10.8334 18.4951 10.8334 17.6667V12.3333C10.8334 11.5049 11.5049 10.8333 12.3334 10.8333H17.6667C18.4951 10.8333 19.1667 11.5049 19.1667 12.3333V15C19.1667 17.3012 17.3012 19.1667 15 19.1667ZM19.1667 7.66666C19.1667 8.49509 18.4951 9.16666 17.6667 9.16666H12.3334C11.5049 9.16666 10.8334 8.49509 10.8334 7.66666V2.33333C10.8334 1.5049 11.5049 0.833328 12.3334 0.833328H15C17.3012 0.833328 19.1667 2.69881 19.1667 5V7.66666ZM5.00004 0.833328H7.66671C8.49514 0.833328 9.16671 1.5049 9.16671 2.33333V17.6667C9.16671 18.4951 8.49513 19.1667 7.66671 19.1667H5.00004C2.69885 19.1667 0.833374 17.3012 0.833374 15V5C0.833374 2.69881 2.69885 0.833328 5.00004 0.833328Z" fill="#18202A"/>
</g>
<defs>
<clipPath id="clip0_2266_34694">
<rect width="20" height="20" fill="white"/>
</clipPath>
</defs>
</svg>
