<svg width="20" height="20" viewBox="0 0 20 20" fill="none" xmlns="http://www.w3.org/2000/svg">
<g clip-path="url(#clip0_2266_37915)">
<path fill-rule="evenodd" clip-rule="evenodd" d="M10 9.16634C12.2222 9.16634 13.3333 7.08301 13.3333 4.47884C13.3333 2.39551 12.2222 0.833008 10 0.833008C7.77778 0.833008 6.66667 2.39551 6.66667 4.47884C6.66667 7.08301 7.77778 9.16634 10 9.16634ZM10 10.833C10.0703 10.833 10.1403 10.8339 10.2101 10.8356C9.29644 11.9765 8.75 13.4243 8.75 14.9997C8.75 16.5756 9.2968 18.0238 10.211 19.1649C10.1408 19.1659 10.0705 19.1663 10 19.1663C8.71051 19.1663 7.45902 19.0036 6.26494 18.6976C5.24908 18.4373 4.38809 17.7568 3.91655 16.8201L3.87764 16.7422C3.22579 15.4258 3.44745 13.8131 4.55972 12.8537C6.01956 11.5944 7.92088 10.833 10 10.833ZM15.0484 9.99967C14.5659 9.99967 14.1523 10.3441 14.0649 10.8186L14.0072 11.1321C13.5072 11.3049 13.0512 11.5719 12.6603 11.9119L12.3577 11.8043C11.9031 11.6427 11.3979 11.8287 11.1567 12.2466L10.8644 12.7528C10.6232 13.1706 10.7147 13.7011 11.0819 14.014L11.3267 14.2226C11.2784 14.4742 11.253 14.734 11.253 14.9997C11.253 15.2654 11.2784 15.5252 11.3267 15.7768L11.0819 15.9854C10.7147 16.2983 10.6232 16.8287 10.8644 17.2466L11.1567 17.7528C11.3979 18.1706 11.9031 18.3566 12.3577 18.1951L12.6604 18.0875C13.0512 18.4274 13.5072 18.6944 14.0072 18.8672L14.0649 19.1807C14.1523 19.6552 14.5659 19.9997 15.0484 19.9997H15.633C16.1154 19.9997 16.5291 19.6552 16.6164 19.1807L16.6737 18.8696C17.1756 18.6972 17.6334 18.4299 18.0256 18.0891L18.3237 18.1951C18.7783 18.3566 19.2834 18.1706 19.5247 17.7528L19.817 17.2466C20.0582 16.8287 19.9667 16.2983 19.5995 15.9854L19.3602 15.7815C19.4092 15.5285 19.4348 15.2671 19.4348 14.9997C19.4348 14.7323 19.4092 14.4709 19.3602 14.2178L19.5995 14.014C19.9667 13.7011 20.0582 13.1706 19.817 12.7528L19.5247 12.2466C19.2835 11.8287 18.7783 11.6427 18.3237 11.8043L18.0257 11.9103C17.6334 11.5695 17.1756 11.3022 16.6737 11.1297L16.6164 10.8186C16.5291 10.3441 16.1154 9.99967 15.633 9.99967H15.0484ZM15.3401 16.6663C16.2606 16.6663 17.0068 15.9201 17.0068 14.9997C17.0068 14.0792 16.2606 13.333 15.3401 13.333C14.4197 13.333 13.6735 14.0792 13.6735 14.9997C13.6735 15.9201 14.4197 16.6663 15.3401 16.6663Z" fill="#18202A"/>
</g>
<defs>
<clipPath id="clip0_2266_37915">
<rect width="20" height="20" fill="white"/>
</clipPath>
</defs>
</svg>
