<svg width="20" height="20" viewBox="0 0 20 20" fill="none" xmlns="http://www.w3.org/2000/svg">
<path d="M10.625 3.95825C10.2798 3.95825 9.99998 3.67843 9.99998 3.33325C9.99998 2.98807 10.2798 2.70825 10.625 2.70825H16.6666C17.0118 2.70825 17.2916 2.98807 17.2916 3.33325V9.37492C17.2916 9.7201 17.0118 9.99992 16.6666 9.99992C16.3215 9.99992 16.0416 9.7201 16.0416 9.37492V4.84214L12.1086 8.77519C11.8645 9.01927 11.4688 9.01927 11.2247 8.77519C10.9806 8.53112 10.9806 8.13539 11.2247 7.89131L15.1578 3.95825H10.625Z" fill="#18202A"/>
<path d="M9.99998 16.6666C9.99998 17.0118 9.72016 17.2916 9.37498 17.2916H3.33331C2.98814 17.2916 2.70831 17.0118 2.70831 16.6666V10.6249C2.70831 10.2797 2.98814 9.99992 3.33331 9.99992C3.67849 9.99992 3.95831 10.2797 3.95831 10.6249L3.95831 15.1577L7.89137 11.2246C8.13545 10.9806 8.53118 10.9806 8.77526 11.2246C9.01933 11.4687 9.01933 11.8644 8.77526 12.1085L4.8422 16.0416H9.37498C9.72016 16.0416 9.99998 16.3214 9.99998 16.6666Z" fill="#18202A"/>
</svg>
