<svg width="20" height="20" viewBox="0 0 20 20" fill="none" xmlns="http://www.w3.org/2000/svg">
<path fill-rule="evenodd" clip-rule="evenodd" d="M9.60863 5.44194C9.85271 5.19786 9.85271 4.80214 9.60863 4.55806C9.36455 4.31398 8.96882 4.31398 8.72475 4.55806L3.72475 9.55806C3.48067 9.80214 3.48067 10.1979 3.72475 10.4419L8.72475 15.4419C8.96882 15.686 9.36455 15.686 9.60863 15.4419C9.85271 15.1979 9.85271 14.8021 9.60863 14.5581L5.05057 10L9.60863 5.44194ZM16.25 5.44194C16.4941 5.19786 16.4941 4.80214 16.25 4.55806C16.0059 4.31398 15.6102 4.31398 15.3661 4.55806L10.3661 9.55806C10.1221 9.80214 10.1221 10.1979 10.3661 10.4419L15.3661 15.4419C15.6102 15.686 16.0059 15.686 16.25 15.4419C16.4941 15.1979 16.4941 14.8021 16.25 14.5581L11.692 10L16.25 5.44194Z" fill="#18202A"/>
</svg>
