<svg width="20" height="20" viewBox="0 0 20 20" fill="none" xmlns="http://www.w3.org/2000/svg">
<path fill-rule="evenodd" clip-rule="evenodd" d="M3.33334 4.7915C3.33334 4.44633 3.61317 4.1665 3.95834 4.1665H16.0417C17.7676 4.1665 19.1667 5.56561 19.1667 7.2915V10.8332C19.1667 11.1783 18.8869 11.4582 18.5417 11.4582C18.1965 11.4582 17.9167 11.1783 17.9167 10.8332V7.2915C17.9167 6.25597 17.0772 5.4165 16.0417 5.4165H3.95834C3.61317 5.4165 3.33334 5.13668 3.33334 4.7915ZM1.45834 7.70817C1.80352 7.70817 2.08334 7.98799 2.08334 8.33317V14.9998C2.08334 16.0354 2.92281 16.8748 3.95834 16.8748H16.0417C17.0772 16.8748 17.9167 16.0354 17.9167 14.9998V12.4998C17.9167 12.1547 18.1965 11.8748 18.5417 11.8748C18.8869 11.8748 19.1667 12.1547 19.1667 12.4998V14.9998C19.1667 16.7257 17.7676 18.1248 16.0417 18.1248H3.95834C2.23245 18.1248 0.833344 16.7257 0.833344 14.9998V8.33317C0.833344 7.98799 1.11317 7.70817 1.45834 7.70817Z" fill="#18202A"/>
<path fill-rule="evenodd" clip-rule="evenodd" d="M0.833344 4.7915C0.833344 3.06561 2.23245 1.6665 3.95834 1.6665H13.9583C15.224 1.6665 16.25 2.69252 16.25 3.95817V4.7915C16.25 5.13668 15.9702 5.4165 15.625 5.4165C15.2798 5.4165 15 5.13668 15 4.7915V3.95817C15 3.38287 14.5336 2.9165 13.9583 2.9165H3.95834C2.92281 2.9165 2.08334 3.75597 2.08334 4.7915V8.12484C2.08334 8.47002 1.80352 8.74984 1.45834 8.74984C1.11317 8.74984 0.833344 8.47002 0.833344 8.12484V4.7915Z" fill="#18202A"/>
<path fill-rule="evenodd" clip-rule="evenodd" d="M9.37501 10.6248C9.37501 9.35919 10.401 8.33317 11.6667 8.33317H17.7083C18.5138 8.33317 19.1667 8.98609 19.1667 9.7915V13.5415C19.1667 14.3469 18.5138 14.9998 17.7083 14.9998H11.6667C10.401 14.9998 9.37501 13.9738 9.37501 12.7082V10.6248ZM11.6667 9.58317C11.0914 9.58317 10.625 10.0495 10.625 10.6248V12.7082C10.625 13.2835 11.0914 13.7498 11.6667 13.7498H17.7083C17.8234 13.7498 17.9167 13.6566 17.9167 13.5415V9.7915C17.9167 9.67645 17.8234 9.58317 17.7083 9.58317H11.6667Z" fill="#18202A"/>
<path d="M13.3333 11.6665C13.3333 12.1267 12.9602 12.4998 12.5 12.4998C12.0398 12.4998 11.6667 12.1267 11.6667 11.6665C11.6667 11.2063 12.0398 10.8332 12.5 10.8332C12.9602 10.8332 13.3333 11.2063 13.3333 11.6665Z" fill="#18202A"/>
</svg>
