<svg width="20" height="20" viewBox="0 0 20 20" fill="none" xmlns="http://www.w3.org/2000/svg">
<g clip-path="url(#clip0_3906_9163)">
<path fill-rule="evenodd" clip-rule="evenodd" d="M9.48221 5.41667L8.18166 4.11612C7.94724 3.8817 7.6293 3.75 7.29778 3.75H4.16665C3.01605 3.75 2.08331 4.68274 2.08331 5.83333V14.1667C2.08331 15.3173 3.01605 16.25 4.16665 16.25H15.8333C16.9839 16.25 17.9166 15.3173 17.9166 14.1667V7.5C17.9166 6.34941 16.9839 5.41667 15.8333 5.41667H9.48221ZM4.16665 2.5C2.3257 2.5 0.833313 3.99238 0.833313 5.83333V14.1667C0.833313 16.0076 2.3257 17.5 4.16665 17.5H15.8333C17.6743 17.5 19.1666 16.0076 19.1666 14.1667V7.5C19.1666 5.65905 17.6743 4.16667 15.8333 4.16667H9.99998L9.06555 3.23223C8.59671 2.76339 7.96082 2.5 7.29778 2.5H4.16665Z" fill="#18202A"/>
</g>
<defs>
<clipPath id="clip0_3906_9163">
<rect width="20" height="20" fill="white"/>
</clipPath>
</defs>
</svg>
