<svg width="20" height="20" viewBox="0 0 20 20" fill="none" xmlns="http://www.w3.org/2000/svg">
<g clip-path="url(#clip0_3379_9178)">
<g clip-path="url(#clip1_3379_9178)">
<path fill-rule="evenodd" clip-rule="evenodd" d="M4.99998 2.50016C4.99998 1.57969 5.74617 0.833496 6.66665 0.833496H13.3333C14.2538 0.833496 15 1.57969 15 2.50016V4.16683C15 4.96393 14.6269 5.6739 14.0459 6.13168C13.3229 6.70134 12.5 7.41302 12.5 8.3335V10.0002C12.5 10.9206 13.2462 11.6668 14.1666 11.6668H15.5952C17.5677 11.6668 19.1666 13.2658 19.1666 15.2383C19.1666 16.0272 18.5271 16.6668 17.7381 16.6668H2.26188C1.47291 16.6668 0.833313 16.0272 0.833313 15.2383C0.833313 13.2658 2.4323 11.6668 4.40474 11.6668H5.83331C6.75379 11.6668 7.49998 10.9206 7.49998 10.0002V8.3335C7.49998 7.41302 6.67708 6.70134 5.95406 6.13168C5.37303 5.6739 4.99998 4.96393 4.99998 4.16683V2.50016ZM6.66665 2.0835C6.43653 2.0835 6.24998 2.27004 6.24998 2.50016V4.16683C6.24998 4.56475 6.4345 4.91886 6.72765 5.14982C7.09194 5.43683 7.57648 5.83088 7.96804 6.31247C8.36508 6.80081 8.74998 7.4804 8.74998 8.3335V10.0002C8.74998 11.611 7.44414 12.9168 5.83331 12.9168H4.40474C3.12265 12.9168 2.08331 13.9562 2.08331 15.2383C2.08331 15.3369 2.16326 15.4168 2.26188 15.4168H17.7381C17.8367 15.4168 17.9166 15.3369 17.9166 15.2383C17.9166 13.9562 16.8773 12.9168 15.5952 12.9168H14.1666C12.5558 12.9168 11.25 11.611 11.25 10.0002V8.3335C11.25 7.4804 11.6349 6.80081 12.0319 6.31247C12.4235 5.83088 12.908 5.43683 13.2723 5.14982C13.5655 4.91886 13.75 4.56475 13.75 4.16683V2.50016C13.75 2.27004 13.5634 2.0835 13.3333 2.0835H6.66665Z" fill="#18202A"/>
<path d="M1.66665 18.3335C1.66665 17.8733 2.03974 17.5002 2.49998 17.5002H17.5C17.9602 17.5002 18.3333 17.8733 18.3333 18.3335C18.3333 18.7937 17.9602 19.1668 17.5 19.1668H2.49998C2.03974 19.1668 1.66665 18.7937 1.66665 18.3335Z" fill="#18202A"/>
</g>
</g>
<defs>
<clipPath id="clip0_3379_9178">
<rect width="20" height="20" fill="white"/>
</clipPath>
<clipPath id="clip1_3379_9178">
<rect width="20" height="20" fill="white"/>
</clipPath>
</defs>
</svg>
