<svg width="20" height="20" viewBox="0 0 20 20" fill="none" xmlns="http://www.w3.org/2000/svg">
<g clip-path="url(#clip0_3240_8939)">
<path d="M1.86847 13.4111C1.94962 13.7139 2.06211 14 2.20154 14.2667L3.48051 12.9877L3.47835 12.9797L1.75289 6.54021C1.39553 5.20654 2.18699 3.8357 3.52065 3.47835L9.96016 1.75289C11.2743 1.40075 12.6246 2.1641 13.0057 3.46254L14.2766 2.19167C13.3822 0.527532 11.4328 -0.367162 9.52879 0.14301L3.08929 1.86847C0.866513 2.46406 -0.452581 4.7488 0.14301 6.97157L1.86847 13.4111Z" fill="#18202A"/>
<path fill-rule="evenodd" clip-rule="evenodd" d="M4.64832 16.5312L2.31393 18.8656C1.94522 19.2343 1.38228 19.2692 1.05655 18.9435C0.730823 18.6177 0.765661 18.0548 1.13436 17.6861L17.6861 1.13436C18.0548 0.765661 18.6177 0.730822 18.9435 1.05655C19.2692 1.38228 19.2343 1.94522 18.8656 2.31392L16.138 5.04158L16.2024 5.04722C18.4948 5.24778 20.1906 7.26875 19.9901 9.56118L19.409 16.2025C19.2085 18.4949 17.1875 20.1907 14.8951 19.9901L8.25377 19.4091C6.53144 19.2584 5.14589 18.0801 4.64832 16.5312ZM6.12525 15.0543L9.39125 11.7883L11.252 13.2639L15.5067 10.1936L17.9998 13.1876L17.7935 15.5446L15.221 12.4551L11.2046 15.3534L9.23056 13.788L6.22201 15.9779C6.13451 15.6869 6.09895 15.3752 6.12525 15.0543ZM11.843 9.33655C11.6424 10.0233 11.1018 10.5527 10.4297 10.7499L11.843 9.33655Z" fill="#18202A"/>
<path d="M4.74347 11.7248L7.76052 8.70773C7.7615 8.6616 7.76401 8.61519 7.76809 8.56855C7.86179 7.49762 8.75005 6.6871 9.8012 6.66705L11.8057 4.66256L9.5611 4.46618C7.26867 4.26562 5.2477 5.96141 5.04714 8.25384L4.74347 11.7248Z" fill="#18202A"/>
</g>
<defs>
<clipPath id="clip0_3240_8939">
<rect width="20" height="20" fill="white"/>
</clipPath>
</defs>
</svg>
