<svg width="20" height="20" viewBox="0 0 20 20" fill="none" xmlns="http://www.w3.org/2000/svg">
<g clip-path="url(#clip0_3737_8783)">
<g clip-path="url(#clip1_3737_8783)">
<path d="M10.8333 5.625C10.8333 5.27982 10.5535 5 10.2083 5C9.86314 5 9.58331 5.27982 9.58331 5.625V11.0417C9.58331 11.3868 9.86314 11.6667 10.2083 11.6667H15.2083C15.5535 11.6667 15.8333 11.3868 15.8333 11.0417C15.8333 10.6965 15.5535 10.4167 15.2083 10.4167H10.8333V5.625Z" fill="#18202A"/>
<path fill-rule="evenodd" clip-rule="evenodd" d="M10.8333 0.625C10.8333 0.279822 10.5535 0 10.2083 0C9.86314 0 9.58331 0.279822 9.58331 0.625V1.67597C4.71409 1.8938 0.833313 5.91036 0.833313 10.8333C0.833313 15.8959 4.93737 20 9.99998 20C15.0626 20 19.1666 15.8959 19.1666 10.8333C19.1666 7.96073 17.8453 5.39675 15.7773 3.71602L16.5513 2.94194C16.7954 2.69786 16.7954 2.30214 16.5513 2.05806C16.3073 1.81398 15.9115 1.81398 15.6675 2.05806L14.7399 2.98565C13.5808 2.28407 12.2538 1.83204 10.8333 1.70404V0.625ZM9.99998 18.75C14.3722 18.75 17.9166 15.2056 17.9166 10.8333C17.9166 6.46108 14.3722 2.91667 9.99998 2.91667C5.62773 2.91667 2.08331 6.46108 2.08331 10.8333C2.08331 15.2056 5.62773 18.75 9.99998 18.75Z" fill="#18202A"/>
</g>
</g>
<defs>
<clipPath id="clip0_3737_8783">
<rect width="20" height="20" fill="white"/>
</clipPath>
<clipPath id="clip1_3737_8783">
<rect width="20" height="20" fill="white"/>
</clipPath>
</defs>
</svg>
