<svg width="20" height="20" viewBox="0 0 20 20" fill="none" xmlns="http://www.w3.org/2000/svg">
<g clip-path="url(#clip0_2266_39586)">
<path fill-rule="evenodd" clip-rule="evenodd" d="M10 17.9168C14.3723 17.9168 17.9167 14.3724 17.9167 10.0002C17.9167 5.62791 14.3723 2.0835 10 2.0835C5.62776 2.0835 2.08334 5.62791 2.08334 10.0002C2.08334 14.3724 5.62776 17.9168 10 17.9168ZM19.1667 10.0002C19.1667 15.0628 15.0626 19.1668 10 19.1668C4.9374 19.1668 0.833344 15.0628 0.833344 10.0002C0.833344 4.93755 4.9374 0.833496 10 0.833496C15.0626 0.833496 19.1667 4.93755 19.1667 10.0002Z" fill="#18202A"/>
<path fill-rule="evenodd" clip-rule="evenodd" d="M6.31526 11.9833C6.6007 11.7892 6.98944 11.8633 7.18352 12.1487C7.46537 12.5633 7.86991 12.9149 8.36462 13.1623C8.8595 13.4097 9.42316 13.5418 10 13.5418C10.5769 13.5418 11.1405 13.4097 11.6354 13.1623C12.1301 12.9149 12.5347 12.5633 12.8165 12.1487C13.0106 11.8633 13.3993 11.7892 13.6848 11.9833C13.9702 12.1774 14.0443 12.5661 13.8502 12.8516C13.4407 13.4538 12.8679 13.9435 12.1944 14.2803C11.5211 14.617 10.7654 14.7918 10 14.7918C9.23465 14.7918 8.47894 14.617 7.8056 14.2803C7.13209 13.9435 6.55933 13.4538 6.14983 12.8516C5.95575 12.5661 6.02981 12.1774 6.31526 11.9833Z" fill="#18202A"/>
<path d="M8.33334 8.3335C8.33334 9.25397 7.7737 10.0002 7.08334 10.0002C6.39299 10.0002 5.83334 9.25397 5.83334 8.3335C5.83334 7.41302 6.39299 6.66683 7.08334 6.66683C7.7737 6.66683 8.33334 7.41302 8.33334 8.3335Z" fill="#18202A"/>
<path d="M14.1667 8.3335C14.1667 9.25397 13.607 10.0002 12.9167 10.0002C12.2263 10.0002 11.6667 9.25397 11.6667 8.3335C11.6667 7.41302 12.2263 6.66683 12.9167 6.66683C13.607 6.66683 14.1667 7.41302 14.1667 8.3335Z" fill="#18202A"/>
</g>
<defs>
<clipPath id="clip0_2266_39586">
<rect width="20" height="20" fill="white"/>
</clipPath>
</defs>
</svg>
