<svg width="20" height="20" viewBox="0 0 20 20" fill="none" xmlns="http://www.w3.org/2000/svg">
<path fill-rule="evenodd" clip-rule="evenodd" d="M7.94194 15.4419C8.18602 15.1979 8.18602 14.8021 7.94194 14.5581C7.69786 14.314 7.30214 14.314 7.05806 14.5581L5.625 15.9911L5.625 4.00888L7.05806 5.44194C7.30214 5.68602 7.69786 5.68602 7.94194 5.44194C8.18602 5.19786 8.18602 4.80214 7.94194 4.55806L5.44194 2.05806C5.19786 1.81398 4.80214 1.81398 4.55806 2.05806L2.05806 4.55806C1.81398 4.80213 1.81398 5.19786 2.05806 5.44194C2.30214 5.68602 2.69786 5.68602 2.94194 5.44194L4.375 4.00888L4.375 15.9911L2.94194 14.5581C2.69786 14.314 2.30214 14.314 2.05806 14.5581C1.81398 14.8021 1.81398 15.1979 2.05806 15.4419L4.55806 17.9419C4.80214 18.186 5.19786 18.186 5.44194 17.9419L7.94194 15.4419ZM10.625 5C10.2798 5 10 5.27982 10 5.625C10 5.97018 10.2798 6.25 10.625 6.25H17.7083C18.0535 6.25 18.3333 5.97018 18.3333 5.625C18.3333 5.27982 18.0535 5 17.7083 5H10.625ZM10.625 7.91667C10.2798 7.91667 10 8.19649 10 8.54167C10 8.88684 10.2798 9.16667 10.625 9.16667H17.7083C18.0535 9.16667 18.3333 8.88684 18.3333 8.54167C18.3333 8.19649 18.0535 7.91667 17.7083 7.91667H10.625ZM10 11.4583C10 11.1132 10.2798 10.8333 10.625 10.8333H17.7083C18.0535 10.8333 18.3333 11.1132 18.3333 11.4583C18.3333 11.8035 18.0535 12.0833 17.7083 12.0833H10.625C10.2798 12.0833 10 11.8035 10 11.4583ZM10.625 13.75C10.2798 13.75 10 14.0298 10 14.375C10 14.7202 10.2798 15 10.625 15H17.7083C18.0535 15 18.3333 14.7202 18.3333 14.375C18.3333 14.0298 18.0535 13.75 17.7083 13.75H10.625Z" fill="#18202A"/>
</svg>
