<svg width="20" height="20" viewBox="0 0 20 20" fill="none" xmlns="http://www.w3.org/2000/svg">
<path fill-rule="evenodd" clip-rule="evenodd" d="M11.4838 11.8002L10.6263 9.99974C10.616 9.99997 10.6056 10.0001 10.5952 10.0001H5.23805C5.22764 10.0001 5.21725 9.99997 5.2069 9.99974L3.48834 13.6085C3.25086 14.1072 2.67331 14.3093 2.19834 14.06C1.72338 13.8106 1.53086 13.2042 1.76835 12.7055L6.62663 2.50382C7.15814 1.38773 8.67511 1.38772 9.20662 2.50382L12.9402 10.3438L14.4476 8.83637L17.8303 12.2191L10.5286 19.5209L7.4456 19.9921C6.99429 20.0611 6.60562 19.6724 6.6746 19.2211L7.1458 16.1382L11.4838 11.8002ZM7.91663 4.30969L9.83281 8.33342H6.00044L7.91663 4.30969Z" fill="#18202A"/>
<path d="M15.4044 7.87958L16.221 7.06292C16.4748 6.80925 16.8189 6.66675 17.1777 6.66675C17.5365 6.66675 17.8806 6.80925 18.1343 7.06292L19.6038 8.53238C19.8575 8.78613 20 9.13023 20 9.48902C20 9.84782 19.8575 10.1919 19.6038 10.4457L18.7871 11.2623L15.4044 7.87958Z" fill="#18202A"/>
</svg>
