<svg width="20" height="20" viewBox="0 0 20 20" fill="none" xmlns="http://www.w3.org/2000/svg">
<path fill-rule="evenodd" clip-rule="evenodd" d="M10.8333 2.91699H9.16668C8.93656 2.91699 8.75001 3.10354 8.75001 3.33366V16.667C8.75001 16.8971 8.93656 17.0837 9.16668 17.0837H10.8333C11.0635 17.0837 11.25 16.8971 11.25 16.667V3.33366C11.25 3.10354 11.0635 2.91699 10.8333 2.91699ZM9.16668 1.66699C8.2462 1.66699 7.50001 2.41318 7.50001 3.33366V16.667C7.50001 17.5875 8.2462 18.3337 9.16668 18.3337H10.8333C11.7538 18.3337 12.5 17.5875 12.5 16.667V3.33366C12.5 2.41318 11.7538 1.66699 10.8333 1.66699H9.16668ZM4.16668 9.58366H2.50001C2.26989 9.58366 2.08334 9.77021 2.08334 10.0003V16.667C2.08334 16.8971 2.26989 17.0837 2.50001 17.0837H4.16668C4.3968 17.0837 4.58334 16.8971 4.58334 16.667V10.0003C4.58334 9.77021 4.3968 9.58366 4.16668 9.58366ZM2.50001 8.33366C1.57954 8.33366 0.833344 9.07985 0.833344 10.0003V16.667C0.833344 17.5875 1.57954 18.3337 2.50001 18.3337H4.16668C5.08715 18.3337 5.83334 17.5875 5.83334 16.667V10.0003C5.83334 9.07985 5.08715 8.33366 4.16668 8.33366H2.50001ZM15.8333 6.25033H17.5C17.7301 6.25033 17.9167 6.43687 17.9167 6.66699V16.667C17.9167 16.8971 17.7301 17.0837 17.5 17.0837H15.8333C15.6032 17.0837 15.4167 16.8971 15.4167 16.667V6.66699C15.4167 6.43687 15.6032 6.25033 15.8333 6.25033ZM14.1667 6.66699C14.1667 5.74652 14.9129 5.00033 15.8333 5.00033H17.5C18.4205 5.00033 19.1667 5.74652 19.1667 6.66699V16.667C19.1667 17.5875 18.4205 18.3337 17.5 18.3337H15.8333C14.9129 18.3337 14.1667 17.5875 14.1667 16.667V6.66699Z" fill="#18202A"/>
</svg>
