<svg width="20" height="20" viewBox="0 0 20 20" fill="none" xmlns="http://www.w3.org/2000/svg">
<path fill-rule="evenodd" clip-rule="evenodd" d="M14.1667 2.91699H5.00001C3.38918 2.91699 2.08334 4.22283 2.08334 5.83366V13.3337C2.08334 14.9445 3.38918 16.2503 5.00001 16.2503H8.95834C9.30352 16.2503 9.58334 16.5301 9.58334 16.8753C9.58334 17.2205 9.30352 17.5003 8.95834 17.5003H5.00001C2.69882 17.5003 0.833344 15.6348 0.833344 13.3337V5.83366C0.833344 3.53247 2.69882 1.66699 5.00001 1.66699H14.1667C16.4679 1.66699 18.3333 3.53247 18.3333 5.83366V8.12533C18.3333 8.4705 18.0535 8.75033 17.7083 8.75033C17.3632 8.75033 17.0833 8.4705 17.0833 8.12533V5.83366C17.0833 4.22283 15.7775 2.91699 14.1667 2.91699ZM13.3333 11.2503H16.6667C17.357 11.2503 17.9167 11.81 17.9167 12.5003V15.8337C17.9167 16.524 17.357 17.0837 16.6667 17.0837H13.3333C12.643 17.0837 12.0833 16.524 12.0833 15.8337V12.5003C12.0833 11.81 12.643 11.2503 13.3333 11.2503ZM10.8333 12.5003C10.8333 11.1196 11.9526 10.0003 13.3333 10.0003H16.6667C18.0474 10.0003 19.1667 11.1196 19.1667 12.5003V15.8337C19.1667 17.2144 18.0474 18.3337 16.6667 18.3337H13.3333C11.9526 18.3337 10.8333 17.2144 10.8333 15.8337V12.5003Z" fill="#18202A"/>
</svg>
