<svg width="20" height="20" viewBox="0 0 20 20" fill="none" xmlns="http://www.w3.org/2000/svg">
<path fill-rule="evenodd" clip-rule="evenodd" d="M14.1668 16.6662C14.1668 16.2059 13.7937 15.8328 13.3335 15.8328H2.50016C2.03992 15.8328 1.66683 16.2059 1.66683 16.6662C1.66683 17.1264 2.03992 17.4995 2.50016 17.4995H13.3335C13.7937 17.4995 14.1668 17.1264 14.1668 16.6662Z" fill="#18202A"/>
<path fill-rule="evenodd" clip-rule="evenodd" d="M14.1668 3.33285C14.1668 2.87261 13.7937 2.49951 13.3335 2.49951H2.50016C2.03992 2.49951 1.66683 2.87261 1.66683 3.33285C1.66683 3.79308 2.03992 4.16618 2.50016 4.16618H13.3335C13.7937 4.16618 14.1668 3.79308 14.1668 3.33285Z" fill="#18202A"/>
<path d="M14.4109 8.08877C14.0855 7.76333 14.0855 7.23569 14.4109 6.91026C14.7363 6.58482 15.264 6.58482 15.5894 6.91026L18.0894 9.41026C18.229 9.54989 18.3088 9.72674 18.3286 9.90887C18.3433 10.0438 18.3251 10.1816 18.274 10.3093C18.2394 10.3959 18.1896 10.4779 18.1247 10.5512C18.112 10.5656 18.0988 10.5796 18.0851 10.5931L15.5894 13.0888C15.264 13.4142 14.7363 13.4142 14.4109 13.0888C14.0855 12.7633 14.0855 12.2357 14.4109 11.9103L15.4891 10.8321L2.49979 10.8268C2.03955 10.8266 1.66661 10.4534 1.6668 9.99311C1.66698 9.53288 2.04023 9.15993 2.50047 9.16012L15.4876 9.16542L14.4109 8.08877Z" fill="#18202A"/>
</svg>
