<svg width="20" height="20" viewBox="0 0 20 20" fill="none" xmlns="http://www.w3.org/2000/svg">
<path fill-rule="evenodd" clip-rule="evenodd" d="M17.845 3.96448L16.035 2.15448C15.7225 1.84203 15.2986 1.6665 14.8567 1.6665C14.4147 1.6665 13.9909 1.84203 13.6783 2.15448L2.50001 13.3328L1.91961 17.1302C1.83465 17.6861 2.31338 18.1648 2.86929 18.0799L6.66668 17.4995L17.845 6.32115C18.1575 6.0086 18.333 5.58475 18.333 5.14281C18.333 4.70087 18.1575 4.27703 17.845 3.96448ZM15.8079 6.5905L16.961 5.4374C17.039 5.35927 17.083 5.25324 17.083 5.14281C17.083 5.03239 16.328 4.24463 16.25 4.1665L15.1511 3.03836C15.073 2.96034 14.9671 2.9165 14.8567 2.9165C14.7463 2.9165 14.6402 2.96047 14.5621 3.0385L13.409 4.1916L15.8079 6.5905ZM14.924 7.47438L12.5251 5.07548L3.67373 13.9269L3.24093 16.7586L6.07263 16.3258L14.924 7.47438Z" fill="#18202A"/>
</svg>
