<svg width="20" height="20" viewBox="0 0 20 20" fill="none" xmlns="http://www.w3.org/2000/svg">
<g clip-path="url(#clip0_3289_16941)">
<path d="M5.20835 1.6665C5.55353 1.6665 5.83335 1.94633 5.83335 2.2915V4.58317H8.12502C8.4702 4.58317 8.75002 4.86299 8.75002 5.20817C8.75002 5.55335 8.4702 5.83317 8.12502 5.83317H5.83335V8.12484C5.83335 8.47001 5.55353 8.74984 5.20835 8.74984C4.86318 8.74984 4.58335 8.47001 4.58335 8.12484V5.83317H2.29169C1.94651 5.83317 1.66669 5.55335 1.66669 5.20817C1.66669 4.86299 1.94651 4.58317 2.29169 4.58317H4.58335V2.2915C4.58335 1.94633 4.86318 1.6665 5.20835 1.6665ZM11.875 4.58317C11.5298 4.58317 11.25 4.86299 11.25 5.20817C11.25 5.55335 11.5298 5.83317 11.875 5.83317H17.7084C18.0535 5.83317 18.3334 5.55335 18.3334 5.20817C18.3334 4.86299 18.0535 4.58317 17.7084 4.58317H11.875ZM11.25 14.7915C11.25 14.4463 11.5298 14.1665 11.875 14.1665H17.7084C18.0535 14.1665 18.3334 14.4463 18.3334 14.7915C18.3334 15.1367 18.0535 15.4165 17.7084 15.4165H11.875C11.5298 15.4165 11.25 15.1367 11.25 14.7915ZM14.7917 13.3332C15.2519 13.3332 15.625 12.9601 15.625 12.4998C15.625 12.0396 15.2519 11.6665 14.7917 11.6665C14.3314 11.6665 13.9584 12.0396 13.9584 12.4998C13.9584 12.9601 14.3314 13.3332 14.7917 13.3332ZM15.625 17.4998C15.625 17.9601 15.2519 18.3332 14.7917 18.3332C14.3314 18.3332 13.9584 17.9601 13.9584 17.4998C13.9584 17.0396 14.3314 16.6665 14.7917 16.6665C15.2519 16.6665 15.625 17.0396 15.625 17.4998ZM1.84975 11.9001C1.60567 11.656 1.60567 11.2603 1.84975 11.0162C2.09382 10.7722 2.48955 10.7722 2.73363 11.0162L5.20835 13.491L7.68308 11.0162C7.92716 10.7722 8.32288 10.7722 8.56696 11.0162C8.81104 11.2603 8.81104 11.656 8.56696 11.9001L6.09224 14.3748L8.56696 16.8496C8.81104 17.0936 8.81104 17.4894 8.56696 17.7334C8.32288 17.9775 7.92716 17.9775 7.68308 17.7334L5.20835 15.2587L2.73363 17.7334C2.48955 17.9775 2.09382 17.9775 1.84975 17.7334C1.60567 17.4894 1.60567 17.0936 1.84975 16.8496L4.32447 14.3748L1.84975 11.9001Z" fill="#18202A"/>
</g>
<defs>
<clipPath id="clip0_3289_16941">
<rect width="20" height="20" fill="white"/>
</clipPath>
</defs>
</svg>
