<svg width="20" height="20" viewBox="0 0 20 20" fill="none" xmlns="http://www.w3.org/2000/svg">
<path fill-rule="evenodd" clip-rule="evenodd" d="M3.33331 0.833496C2.98814 0.833496 2.70831 1.11332 2.70831 1.4585C2.70831 1.80367 2.98814 2.0835 3.33331 2.0835H4.16665V3.45254C4.16665 6.05223 5.71615 8.27277 7.90041 9.15586C8.15398 9.25838 8.33331 9.49688 8.33331 9.77039V10.2299C8.33331 10.5034 8.15398 10.7419 7.90041 10.8444C5.71615 11.7275 4.16665 13.9481 4.16665 16.5477V17.9168H3.33331C2.98814 17.9168 2.70831 18.1967 2.70831 18.5418C2.70831 18.887 2.98814 19.1668 3.33331 19.1668H16.6666C17.0118 19.1668 17.2916 18.887 17.2916 18.5418C17.2916 18.1967 17.0118 17.9168 16.6666 17.9168H15.8333L15.8333 16.5477C15.8333 13.9481 14.2838 11.7275 12.0996 10.8444C11.846 10.7419 11.6666 10.5034 11.6666 10.2299V9.77039C11.6666 9.49688 11.846 9.25838 12.0996 9.15586C14.2838 8.27277 15.8333 6.05223 15.8333 3.45254L15.8333 2.0835H16.6666C17.0118 2.0835 17.2916 1.80367 17.2916 1.4585C17.2916 1.11332 17.0118 0.833496 16.6666 0.833496H3.33331ZM8.36893 7.99698C6.6667 7.30878 5.41665 5.55334 5.41665 3.45254V2.0835H14.5833L14.5833 3.45285C14.5832 5.55351 13.3332 7.30881 11.631 7.99698C10.9608 8.26797 10.4166 8.92998 10.4166 9.77039V10.2299C10.4166 11.0703 10.9608 11.7323 11.631 12.0033C13.3332 12.6915 14.5832 14.4471 14.5833 16.5477L14.5833 17.9168H5.41665V16.5477C5.41665 14.4469 6.6667 12.6915 8.36893 12.0033C9.03919 11.7323 9.58331 11.0703 9.58331 10.2299V9.77039C9.58331 8.92998 9.03919 8.26797 8.36893 7.99698Z" fill="#18202A"/>
</svg>
