<svg width="20" height="20" viewBox="0 0 20 20" fill="none" xmlns="http://www.w3.org/2000/svg">
<g clip-path="url(#clip0_3875_8972)">
<g clip-path="url(#clip1_3875_8972)">
<path fill-rule="evenodd" clip-rule="evenodd" d="M9.16663 0.833008C7.78591 0.833008 6.66663 1.9523 6.66663 3.33301V4.16634H2.49996C2.03972 4.16634 1.66663 4.53944 1.66663 4.99967C1.66663 5.45991 2.03972 5.83301 2.49996 5.83301H3.33329V14.1663C3.33329 16.9278 5.57187 19.1663 8.33329 19.1663H11.0455C10.3865 18.2215 9.99996 17.0724 9.99996 15.833C9.99996 14.7333 10.3043 13.7046 10.8333 12.8267V9.16634C10.8333 8.7061 11.2064 8.33301 11.6666 8.33301C12.1269 8.33301 12.5 8.7061 12.5 9.16634V11.0452C13.4448 10.3862 14.5939 9.99967 15.8333 9.99967C16.1162 9.99967 16.3945 10.0198 16.6666 10.0587V5.83301H17.5C17.9602 5.83301 18.3333 5.45991 18.3333 4.99967C18.3333 4.53944 17.9602 4.16634 17.5 4.16634H13.3333V3.33301C13.3333 1.9523 12.214 0.833008 10.8333 0.833008H9.16663ZM11.6666 3.33301C11.6666 2.87277 11.2935 2.49967 10.8333 2.49967H9.16663C8.70639 2.49967 8.33329 2.87277 8.33329 3.33301V4.16634H11.6666V3.33301ZM9.16663 9.16634C9.16663 8.7061 8.79353 8.33301 8.33329 8.33301C7.87306 8.33301 7.49996 8.7061 7.49996 9.16634V14.1663C7.49996 14.6266 7.87306 14.9997 8.33329 14.9997C8.79353 14.9997 9.16663 14.6266 9.16663 14.1663V9.16634Z" fill="#18202A"/>
<path fill-rule="evenodd" clip-rule="evenodd" d="M15.8333 19.9997C18.1345 19.9997 20 18.1342 20 15.833C20 13.5318 18.1345 11.6663 15.8333 11.6663C13.5321 11.6663 11.6666 13.5318 11.6666 15.833C11.6666 18.1342 13.5321 19.9997 15.8333 19.9997ZM16.6666 13.7497C16.6666 13.2894 16.2935 12.9163 15.8333 12.9163C15.3731 12.9163 15 13.2894 15 13.7497V15.833C15 16.054 15.0878 16.266 15.244 16.4223L16.494 17.6723C16.8195 17.9977 17.3471 17.9977 17.6726 17.6723C17.998 17.3468 17.998 16.8192 17.6726 16.4938L16.6666 15.4878V13.7497Z" fill="#18202A"/>
</g>
</g>
<defs>
<clipPath id="clip0_3875_8972">
<rect width="20" height="20" fill="white"/>
</clipPath>
<clipPath id="clip1_3875_8972">
<rect width="20" height="20" fill="white"/>
</clipPath>
</defs>
</svg>
