<svg width="20" height="20" viewBox="0 0 20 20" fill="none" xmlns="http://www.w3.org/2000/svg">
<g clip-path="url(#clip0_3075_8922)">
<path d="M19.7644 2.24748C20.0851 1.91737 20.0775 1.38978 19.7474 1.0691C19.4172 0.74841 18.8897 0.756056 18.569 1.08618L11.0885 8.78668L8.11382 5.5476C7.80251 5.20863 7.27535 5.18619 6.93638 5.4975C6.5974 5.80881 6.57496 6.33597 6.88627 6.67495L10.4577 10.5638C10.6128 10.7327 10.8306 10.8302 11.0598 10.8334C11.289 10.8366 11.5095 10.7453 11.6692 10.5808L19.7644 2.24748Z" fill="#18202A"/>
<path d="M0.833374 5.00016C0.833374 3.15921 2.32576 1.66683 4.16671 1.66683H15.6813L11.1225 6.35972L9.34138 4.42026C8.40746 3.40333 6.82598 3.33603 5.80904 4.26995C4.79211 5.20387 4.72481 6.78535 5.65873 7.80229L9.23016 11.6912C9.69537 12.1977 10.3487 12.4903 11.0364 12.4999C11.7241 12.5096 12.3855 12.2355 12.8647 11.7421L19.1667 5.25475V12.5002C19.1667 14.3411 17.6743 15.8335 15.8334 15.8335H10.7576L5.37966 19.0312C4.75621 19.4019 3.98962 18.8543 4.13807 18.1444L4.62125 15.8335H4.16671C2.32576 15.8335 0.833374 14.3411 0.833374 12.5002V5.00016Z" fill="#18202A"/>
</g>
<defs>
<clipPath id="clip0_3075_8922">
<rect width="20" height="20" fill="white"/>
</clipPath>
</defs>
</svg>
