<svg width="20" height="20" viewBox="0 0 20 20" fill="none" xmlns="http://www.w3.org/2000/svg">
<g clip-path="url(#clip0_2266_35894)">
<path fill-rule="evenodd" clip-rule="evenodd" d="M19.1667 9.99992C19.1667 15.0625 15.0626 19.1666 10 19.1666C4.93739 19.1666 0.833334 15.0625 0.833334 9.99992C0.833334 4.93731 4.93739 0.833252 10 0.833252C15.0626 0.833252 19.1667 4.93731 19.1667 9.99992ZM8.67851 7.49992C8.48788 7.49992 8.33333 7.65446 8.33333 7.8451C8.33333 7.93664 8.3697 8.02444 8.43443 8.08918L8.50592 8.16066C8.83136 8.4861 8.83136 9.01374 8.50592 9.33917C8.18049 9.66461 7.65285 9.66461 7.32741 9.33918L7.25592 9.26769C6.87863 8.89039 6.66667 8.37867 6.66667 7.8451C6.66667 6.73399 7.5674 5.83325 8.67851 5.83325H11.0472C12.3098 5.83325 13.3333 6.85681 13.3333 8.11943C13.3333 9.10347 12.7037 9.97711 11.7701 10.2883L11.5135 10.3738C11.1073 10.5092 10.8333 10.8894 10.8333 11.3175V11.6666C10.8333 12.1268 10.4602 12.4999 10 12.4999C9.53976 12.4999 9.16667 12.1268 9.16667 11.6666V11.3175C9.16667 10.172 9.8997 9.15494 10.9865 8.79268L11.2431 8.70715C11.496 8.62283 11.6667 8.38609 11.6667 8.11943C11.6667 7.77728 11.3893 7.49992 11.0472 7.49992H8.67851ZM9.16667 14.1666C9.16667 13.7063 9.53976 13.3333 10 13.3333C10.4602 13.3333 10.8333 13.7063 10.8333 14.1666C10.8333 14.6268 10.4602 14.9999 10 14.9999C9.53976 14.9999 9.16667 14.6268 9.16667 14.1666Z" fill="#18202A"/>
</g>
<defs>
<clipPath id="clip0_2266_35894">
<rect width="20" height="20" fill="white"/>
</clipPath>
</defs>
</svg>
