<svg width="20" height="20" viewBox="0 0 20 20" fill="none" xmlns="http://www.w3.org/2000/svg">
<g clip-path="url(#clip0_2266_38242)">
<path fill-rule="evenodd" clip-rule="evenodd" d="M8.57741 1.07733C8.90285 0.751893 9.43049 0.751893 9.75592 1.07733L12.2559 3.57733C12.5814 3.90277 12.5814 4.4304 12.2559 4.75584L9.75592 7.25584C9.43049 7.58128 8.90285 7.58128 8.57741 7.25584C8.25197 6.9304 8.25197 6.40277 8.57741 6.07733L9.65482 4.99992H7.5C4.73858 4.99992 2.5 7.23849 2.5 9.99992C2.5 11.9682 3.6373 13.6708 5.2906 14.4865C5.60733 14.6428 5.83333 14.9515 5.83333 15.3047V15.3816C5.83333 15.9261 5.31692 16.3246 4.81847 16.1053C2.47187 15.0732 0.833334 12.7279 0.833334 9.99992C0.833334 6.31802 3.8181 3.33325 7.5 3.33325H9.65482L8.57741 2.25584C8.25197 1.9304 8.25197 1.40277 8.57741 1.07733ZM10.3452 16.6666L11.4226 17.744C11.748 18.0694 11.748 18.5971 11.4226 18.9225C11.0972 19.2479 10.5695 19.2479 10.2441 18.9225L7.74408 16.4225C7.41864 16.0971 7.41864 15.5694 7.74408 15.244L10.2441 12.744C10.5695 12.4186 11.0972 12.4186 11.4226 12.744C11.748 13.0694 11.748 13.5971 11.4226 13.9225L10.3452 14.9999H12.5C15.2614 14.9999 17.5 12.7613 17.5 9.99992C17.5 8.03165 16.3627 6.32901 14.7094 5.5133C14.3927 5.35704 14.1667 5.0483 14.1667 4.69512V4.61826C14.1667 4.07373 14.6831 3.67526 15.1815 3.89449C17.5281 4.92662 19.1667 7.27192 19.1667 9.99992C19.1667 13.6818 16.1819 16.6666 12.5 16.6666H10.3452Z" fill="#18202A"/>
</g>
<defs>
<clipPath id="clip0_2266_38242">
<rect width="20" height="20" fill="white"/>
</clipPath>
</defs>
</svg>
