<svg width="20" height="20" viewBox="0 0 20 20" fill="none" xmlns="http://www.w3.org/2000/svg">
<path fill-rule="evenodd" clip-rule="evenodd" d="M4.99999 3.75H4.16666C3.4763 3.75 2.91666 4.30964 2.91666 5V5.83333C2.91666 6.52369 3.4763 7.08333 4.16666 7.08333H4.99999C5.69035 7.08333 6.24999 6.52369 6.24999 5.83333V5C6.24999 4.30964 5.69035 3.75 4.99999 3.75ZM4.16666 2.5H4.99999C6.3807 2.5 7.49999 3.61929 7.49999 5V5.83333C7.49999 7.21405 6.3807 8.33333 4.99999 8.33333H4.16666C2.78594 8.33333 1.66666 7.21405 1.66666 5.83333V5C1.66666 3.61929 2.78594 2.5 4.16666 2.5Z" fill="#18202A"/>
<path fill-rule="evenodd" clip-rule="evenodd" d="M4.99999 12.9167H4.16666C3.4763 12.9167 2.91666 13.4763 2.91666 14.1667V15C2.91666 15.6904 3.4763 16.25 4.16666 16.25H4.99999C5.69035 16.25 6.24999 15.6904 6.24999 15V14.1667C6.24999 13.4763 5.69035 12.9167 4.99999 12.9167ZM4.16666 11.6667H4.99999C6.3807 11.6667 7.49999 12.786 7.49999 14.1667V15C7.49999 16.3807 6.3807 17.5 4.99999 17.5H4.16666C2.78594 17.5 1.66666 16.3807 1.66666 15V14.1667C1.66666 12.786 2.78594 11.6667 4.16666 11.6667Z" fill="#18202A"/>
<path d="M9.16666 3.95833C9.16666 3.61316 9.44648 3.33333 9.79166 3.33333H17.7083C18.0535 3.33333 18.3333 3.61316 18.3333 3.95833C18.3333 4.30351 18.0535 4.58333 17.7083 4.58333H9.79166C9.44648 4.58333 9.16666 4.30351 9.16666 3.95833Z" fill="#18202A"/>
<path d="M9.16666 6.875C9.16666 6.52982 9.44648 6.25 9.79166 6.25H17.7083C18.0535 6.25 18.3333 6.52982 18.3333 6.875C18.3333 7.22018 18.0535 7.5 17.7083 7.5H9.79166C9.44648 7.5 9.16666 7.22018 9.16666 6.875Z" fill="#18202A"/>
<path d="M9.16666 13.125C9.16666 12.7798 9.44648 12.5 9.79166 12.5H17.7083C18.0535 12.5 18.3333 12.7798 18.3333 13.125C18.3333 13.4702 18.0535 13.75 17.7083 13.75H9.79166C9.44648 13.75 9.16666 13.4702 9.16666 13.125Z" fill="#18202A"/>
<path d="M9.16666 16.0417C9.16666 15.6965 9.44648 15.4167 9.79166 15.4167H17.7083C18.0535 15.4167 18.3333 15.6965 18.3333 16.0417C18.3333 16.3868 18.0535 16.6667 17.7083 16.6667H9.79166C9.44648 16.6667 9.16666 16.3868 9.16666 16.0417Z" fill="#18202A"/>
</svg>
