<svg width="20" height="20" viewBox="0 0 20 20" fill="none" xmlns="http://www.w3.org/2000/svg">
<path fill-rule="evenodd" clip-rule="evenodd" d="M10.3662 14.5581C10.1221 14.8021 10.1221 15.1979 10.3662 15.4419C10.6102 15.686 11.006 15.686 11.25 15.4419L16.25 10.4419C16.4941 10.1979 16.4941 9.80214 16.25 9.55806L11.25 4.55806C11.006 4.31398 10.6102 4.31398 10.3662 4.55806C10.1221 4.80213 10.1221 5.19786 10.3662 5.44194L14.9242 10L10.3662 14.5581ZM3.72477 14.5581C3.48069 14.8021 3.48069 15.1979 3.72477 15.4419C3.96885 15.686 4.36458 15.686 4.60866 15.4419L9.60866 10.4419C9.85273 10.1979 9.85273 9.80214 9.60866 9.55806L4.60866 4.55806C4.36458 4.31398 3.96885 4.31398 3.72477 4.55806C3.4807 4.80213 3.4807 5.19786 3.72477 5.44194L8.28283 10L3.72477 14.5581Z" fill="#18202A"/>
</svg>
