<svg width="20" height="20" viewBox="0 0 20 20" fill="none" xmlns="http://www.w3.org/2000/svg">
<path d="M0.833344 3.9585C0.833344 3.61332 1.11317 3.3335 1.45834 3.3335H18.5417C18.8869 3.3335 19.1667 3.61332 19.1667 3.9585C19.1667 4.30367 18.8869 4.5835 18.5417 4.5835H1.45834C1.11317 4.5835 0.833344 4.30367 0.833344 3.9585Z" fill="#18202A"/>
<path d="M0.833344 16.0418C0.833344 15.6967 1.11317 15.4168 1.45834 15.4168H18.5417C18.8869 15.4168 19.1667 15.6967 19.1667 16.0418C19.1667 16.387 18.8869 16.6668 18.5417 16.6668H1.45834C1.11317 16.6668 0.833344 16.387 0.833344 16.0418Z" fill="#18202A"/>
<path d="M0.833344 10.0002C0.833344 9.65498 1.11317 9.37516 1.45834 9.37516H18.5417C18.8869 9.37516 19.1667 9.65498 19.1667 10.0002C19.1667 10.3453 18.8869 10.6252 18.5417 10.6252H1.45834C1.11317 10.6252 0.833344 10.3453 0.833344 10.0002Z" fill="#18202A"/>
</svg>
