<svg width="20" height="20" viewBox="0 0 20 20" fill="none" xmlns="http://www.w3.org/2000/svg">
<path d="M6.66669 9.79163C6.66669 9.44645 6.94651 9.16663 7.29169 9.16663H12.7084C13.0535 9.16663 13.3334 9.44645 13.3334 9.79163C13.3334 10.1368 13.0535 10.4166 12.7084 10.4166H7.29169C6.94651 10.4166 6.66669 10.1368 6.66669 9.79163Z" fill="#18202A"/>
<path fill-rule="evenodd" clip-rule="evenodd" d="M2.50002 7.27699C2.00185 6.98881 1.66669 6.45019 1.66669 5.83329V3.33329C1.66669 2.41282 2.41288 1.66663 3.33335 1.66663H16.6667C17.5872 1.66663 18.3334 2.41282 18.3334 3.33329V5.83329C18.3334 6.45019 17.9982 6.98881 17.5 7.27699V15.8333C17.5 17.6742 16.0076 19.1666 14.1667 19.1666H5.83335C3.9924 19.1666 2.50002 17.6742 2.50002 15.8333V7.27699ZM2.91669 3.33329C2.91669 3.10317 3.10323 2.91663 3.33335 2.91663H16.6667C16.8968 2.91663 17.0834 3.10317 17.0834 3.33329V5.83329C17.0834 6.06341 16.8968 6.24996 16.6667 6.24996H3.33335C3.10323 6.24996 2.91669 6.06341 2.91669 5.83329V3.33329ZM14.1667 17.9166C15.3173 17.9166 16.25 16.9839 16.25 15.8333V7.49996H3.75002V15.8333C3.75002 16.9839 4.68276 17.9166 5.83335 17.9166H14.1667Z" fill="#18202A"/>
</svg>
