<svg width="20" height="20" viewBox="0 0 20 20" fill="none" xmlns="http://www.w3.org/2000/svg">
<path d="M15.8333 5.83366C18.1345 5.83366 20 7.69914 20 10.0003C20 12.3015 18.1345 14.167 15.8333 14.167H11.6667V11.4442C12.3041 11.8126 13.1332 11.7241 13.6785 11.1788C14.3294 10.528 14.3294 9.47269 13.6785 8.82181L11.1785 6.32181C10.866 6.00925 10.442 5.83366 10 5.83366C9.55797 5.83366 9.13405 6.00925 8.82149 6.32181L6.32149 8.82181C5.67061 9.47269 5.67061 10.528 6.32149 11.1788C6.86679 11.7241 7.69595 11.8126 8.33333 11.4442V14.167H4.16667C1.86548 14.167 0 12.3015 0 10.0003C0 7.69914 1.86548 5.83366 4.16667 5.83366C4.24707 5.83366 4.32694 5.83594 4.40622 5.84043C5.12118 3.42738 7.35501 1.66699 10 1.66699C12.645 1.66699 14.8788 3.42738 15.5938 5.84043C15.6731 5.83594 15.7529 5.83366 15.8333 5.83366Z" fill="#18202A"/>
<path fill-rule="evenodd" clip-rule="evenodd" d="M10 18.3337C10.4602 18.3337 10.8333 17.9606 10.8333 17.5003V9.51217L11.9107 10.5896C12.2362 10.915 12.7638 10.915 13.0893 10.5896C13.4147 10.2641 13.4147 9.73651 13.0893 9.41107L10.5893 6.91107C10.433 6.75479 10.221 6.66699 10 6.66699C9.77899 6.66699 9.56702 6.75479 9.41074 6.91107L6.91074 9.41107C6.58531 9.73651 6.58531 10.2641 6.91074 10.5896C7.23618 10.915 7.76382 10.915 8.08926 10.5896L9.16667 9.51217V17.5003C9.16667 17.9606 9.53976 18.3337 10 18.3337Z" fill="#18202A"/>
</svg>
