<svg width="20" height="20" viewBox="0 0 20 20" fill="none" xmlns="http://www.w3.org/2000/svg">
<g clip-path="url(#clip0_2266_35501)">
<path fill-rule="evenodd" clip-rule="evenodd" d="M19.077 10.9844C19.1363 10.5769 19.1667 10.162 19.1667 9.74259C19.1667 4.3335 15.0664 0.833496 10.0085 0.833496C4.95062 0.833496 0.523342 4.96986 0.850378 9.74259C0.850378 12.5945 1.99019 14.8273 3.80921 16.301L3.98429 18.402C4.03233 18.9785 4.63873 19.3318 5.16396 19.0894L7.43556 18.041C8.2518 18.2342 9.11523 18.3335 10.0085 18.3335C10.1929 18.3335 10.3751 18.3291 10.5551 18.3204C10.1991 17.566 10 16.723 10 15.8335C10 13.5896 11.2669 11.6417 13.1244 10.6659C12.7511 10.4497 12.5 10.0459 12.5 9.5835C12.5 8.89314 13.0596 8.3335 13.75 8.3335C14.4404 8.3335 15 8.89314 15 9.5835C15 9.75778 14.9643 9.92373 14.8999 10.0744C15.2038 10.0256 15.5156 10.0002 15.8333 10.0002C17.0338 10.0002 18.1495 10.3628 19.077 10.9844ZM6.25 10.8335C6.94036 10.8335 7.5 10.2739 7.5 9.5835C7.5 8.89314 6.94036 8.3335 6.25 8.3335C5.55964 8.3335 5 8.89314 5 9.5835C5 10.2739 5.55964 10.8335 6.25 10.8335ZM11.25 9.5835C11.25 10.2739 10.6904 10.8335 10 10.8335C9.30964 10.8335 8.75 10.2739 8.75 9.5835C8.75 8.89314 9.30964 8.3335 10 8.3335C10.6904 8.3335 11.25 8.89314 11.25 9.5835Z" fill="#18202A"/>
<path fill-rule="evenodd" clip-rule="evenodd" d="M15.8333 20.0002C18.1345 20.0002 20 18.1347 20 15.8335C20 13.5323 18.1345 11.6668 15.8333 11.6668C13.5321 11.6668 11.6667 13.5323 11.6667 15.8335C11.6667 18.1347 13.5321 20.0002 15.8333 20.0002ZM18.3912 14.9902C18.6158 14.7282 18.5855 14.3336 18.3234 14.109C18.0613 13.8843 17.6668 13.9147 17.4421 14.1768L15.3232 16.6488L14.125 15.7502C13.8488 15.5431 13.4571 15.599 13.25 15.8752C13.0429 16.1513 13.0988 16.5431 13.375 16.7502L15.0417 18.0002C15.3052 18.1978 15.6768 18.157 15.8912 17.9069L18.3912 14.9902Z" fill="#18202A"/>
</g>
<defs>
<clipPath id="clip0_2266_35501">
<rect width="20" height="20" fill="white"/>
</clipPath>
</defs>
</svg>
