<svg width="20" height="20" viewBox="0 0 20 20" fill="none" xmlns="http://www.w3.org/2000/svg">
<path fill-rule="evenodd" clip-rule="evenodd" d="M4.91627 13.9965L5.05152 15.641C5.11549 16.4186 5.96164 16.9276 6.70864 16.5836C10.0152 15.0608 13.1687 13.1353 16.0261 10.8836C16.5975 10.4334 16.5975 9.56722 16.0261 9.11694C13.1687 6.86523 10.0152 4.93973 6.70864 3.41699C5.96164 3.07298 5.11549 3.58194 5.05152 4.35963L4.91627 6.00404C4.69751 8.66372 4.69751 11.3369 4.91627 13.9965ZM7.23151 2.28161C5.71541 1.5834 3.94256 2.59363 3.80573 4.25716L3.67047 5.90158C3.4461 8.62945 3.4461 11.3711 3.67048 14.099L3.80573 15.7434C3.94256 17.4069 5.71541 18.4172 7.23151 17.719C10.6263 16.1556 13.8642 14.1787 16.7998 11.8654C18.0063 10.9147 18.0063 9.08589 16.7998 8.13514C13.8642 5.82184 10.6263 3.84502 7.23151 2.28161Z" fill="#18202A"/>
</svg>
