<svg width="20" height="20" viewBox="0 0 20 20" fill="none" xmlns="http://www.w3.org/2000/svg">
<g clip-path="url(#clip0_3015_8693)">
<path fill-rule="evenodd" clip-rule="evenodd" d="M16.6667 11.2502C16.6667 12.861 15.3608 14.1668 13.75 14.1668C12.1392 14.1668 10.8333 12.861 10.8333 11.2502C10.8333 9.63933 12.1392 8.3335 13.75 8.3335C15.3608 8.3335 16.6667 9.63933 16.6667 11.2502ZM13.75 9.5835C14.6705 9.5835 15.4167 10.3297 15.4167 11.2502C15.4167 12.1706 14.6705 12.9168 13.75 12.9168C12.8295 12.9168 12.0833 12.1706 12.0833 11.2502C12.0833 10.3297 12.8295 9.5835 13.75 9.5835Z" fill="#18202A"/>
<path fill-rule="evenodd" clip-rule="evenodd" d="M6.25 14.1668C7.86083 14.1668 9.16667 12.861 9.16667 11.2502C9.16667 9.63933 7.86083 8.3335 6.25 8.3335C4.63917 8.3335 3.33333 9.63933 3.33333 11.2502C3.33333 12.861 4.63917 14.1668 6.25 14.1668ZM7.91667 11.2502C7.91667 10.3297 7.17047 9.5835 6.25 9.5835C5.32953 9.5835 4.58333 10.3297 4.58333 11.2502C4.58333 12.1706 5.32953 12.9168 6.25 12.9168C7.17047 12.9168 7.91667 12.1706 7.91667 11.2502Z" fill="#18202A"/>
<path d="M8.95833 15.8335C8.61316 15.8335 8.33333 16.1133 8.33333 16.4585C8.33333 16.8037 8.61316 17.0835 8.95833 17.0835H11.0417C11.3868 17.0835 11.6667 16.8037 11.6667 16.4585C11.6667 16.1133 11.3868 15.8335 11.0417 15.8335H8.95833Z" fill="#18202A"/>
<path fill-rule="evenodd" clip-rule="evenodd" d="M11.6667 2.50016C11.6667 1.57969 10.9205 0.833496 10 0.833496C9.07952 0.833496 8.33333 1.57969 8.33333 2.50016C8.33333 3.19962 8.7642 3.79844 9.375 4.04568V5.00016H7.5C4.56127 5.00016 2.1301 7.17325 1.72574 10.0002H1.25C0.559644 10.0002 0 10.5598 0 11.2502V13.7502C0 14.4405 0.559644 15.0002 1.25 15.0002H1.66667V15.8335C1.66667 17.6744 3.15905 19.1668 5 19.1668H15C16.8409 19.1668 18.3333 17.6744 18.3333 15.8335V15.0002H18.75C19.4404 15.0002 20 14.4405 20 13.7502V11.2502C20 10.5598 19.4404 10.0002 18.75 10.0002H18.2743C17.8699 7.17325 15.4387 5.00016 12.5 5.00016H10.625V4.04568C11.2358 3.79844 11.6667 3.19962 11.6667 2.50016ZM12.5 6.25016C15.0313 6.25016 17.0833 8.30219 17.0833 10.8335V15.8335C17.0833 16.9841 16.1506 17.9168 15 17.9168H5C3.84941 17.9168 2.91667 16.9841 2.91667 15.8335V10.8335C2.91667 8.30219 4.96869 6.25016 7.5 6.25016H12.5Z" fill="#18202A"/>
</g>
<defs>
<clipPath id="clip0_3015_8693">
<rect width="20" height="20" fill="white"/>
</clipPath>
</defs>
</svg>
