<svg width="20" height="20" viewBox="0 0 20 20" fill="none" xmlns="http://www.w3.org/2000/svg">
<path d="M12.5 10.8335C12.5 12.2142 11.3807 13.3335 10 13.3335C8.61929 13.3335 7.5 12.2142 7.5 10.8335C7.5 9.45278 8.61929 8.3335 10 8.3335C11.3807 8.3335 12.5 9.45278 12.5 10.8335Z" fill="#18202A"/>
<path fill-rule="evenodd" clip-rule="evenodd" d="M15.058 3.3335C14.9209 3.33348 14.786 3.29964 14.6651 3.23499C14.5441 3.1703 14.441 3.07676 14.3649 2.96266L13.6882 1.94683C13.46 1.60438 13.1507 1.32359 12.7878 1.12938C12.425 0.93516 12.0198 0.833526 11.6082 0.833496H8.39157C7.98001 0.833526 7.57483 0.93516 7.21198 1.12938C6.84913 1.32359 6.53984 1.60438 6.31157 1.94683L5.6349 2.96266C5.55877 3.07676 5.45566 3.1703 5.33472 3.23499C5.21384 3.29964 5.07889 3.33348 4.94181 3.3335H5C2.69881 3.3335 0.833334 5.19898 0.833334 7.50016V14.1668C0.833334 16.468 2.69881 18.3335 5 18.3335H15C17.3012 18.3335 19.1667 16.468 19.1667 14.1668V7.50016C19.1667 5.19898 17.3012 3.3335 15 3.3335H15.058ZM14.1667 10.8335C14.1667 13.1347 12.3012 15.0002 10 15.0002C7.69881 15.0002 5.83333 13.1347 5.83333 10.8335C5.83333 8.53231 7.69881 6.66683 10 6.66683C12.3012 6.66683 14.1667 8.53231 14.1667 10.8335Z" fill="#18202A"/>
</svg>
