<svg width="20" height="20" viewBox="0 0 20 20" fill="none" xmlns="http://www.w3.org/2000/svg">
<path fill-rule="evenodd" clip-rule="evenodd" d="M10.0001 5.58934C10.3255 5.2639 10.3255 4.73626 10.0001 4.41083C9.67467 4.08539 9.14703 4.08539 8.82159 4.41083L3.82159 9.41083C3.49616 9.73626 3.49616 10.2639 3.82159 10.5893L8.82159 15.5893C9.14703 15.9148 9.67467 15.9148 10.0001 15.5893C10.3255 15.2639 10.3255 14.7363 10.0001 14.4108L5.58936 10.0001L10.0001 5.58934ZM16.1786 5.58934C16.5041 5.2639 16.5041 4.73626 16.1786 4.41083C15.8532 4.08539 15.3255 4.08539 15.0001 4.41083L10.0001 9.41083C9.67467 9.73626 9.67467 10.2639 10.0001 10.5893L15.0001 15.5893C15.3255 15.9148 15.8532 15.9148 16.1786 15.5893C16.5041 15.2639 16.5041 14.7363 16.1786 14.4108L11.7679 10.0001L16.1786 5.58934Z" fill="#18202A"/>
</svg>
