<svg width="20" height="20" viewBox="0 0 20 20" fill="none" xmlns="http://www.w3.org/2000/svg">
<path fill-rule="evenodd" clip-rule="evenodd" d="M16.6667 3.75H3.33334C2.64299 3.75 2.08334 4.30964 2.08334 5V15C2.08334 15.6904 2.64299 16.25 3.33334 16.25H16.6667C17.357 16.25 17.9167 15.6904 17.9167 15V5C17.9167 4.30964 17.357 3.75 16.6667 3.75ZM3.33334 2.5C1.95263 2.5 0.833344 3.61929 0.833344 5V15C0.833344 16.3807 1.95263 17.5 3.33334 17.5H16.6667C18.0474 17.5 19.1667 16.3807 19.1667 15V5C19.1667 3.61929 18.0474 2.5 16.6667 2.5H3.33334Z" fill="#18202A"/>
<path fill-rule="evenodd" clip-rule="evenodd" d="M18.8514 5.48377C19.0445 5.76991 18.969 6.15838 18.6829 6.35144L12.0038 10.8578C11.4214 11.2509 10.7169 11.4583 10 11.4583C9.2831 11.4583 8.57864 11.2509 7.99621 10.8578L1.31711 6.35144C1.03097 6.15838 0.955516 5.76991 1.14858 5.48377C1.34163 5.19763 1.7301 5.12217 2.01624 5.31523L8.69537 9.82167C9.06147 10.0687 9.5202 10.2083 10 10.2083C10.4798 10.2083 10.9385 10.0687 11.3046 9.82169L17.9838 5.31523C18.2699 5.12217 18.6584 5.19763 18.8514 5.48377Z" fill="#18202A"/>
</svg>
