<svg width="20" height="20" viewBox="0 0 20 20" fill="none" xmlns="http://www.w3.org/2000/svg">
<g clip-path="url(#clip0_2266_39436)">
<path fill-rule="evenodd" clip-rule="evenodd" d="M5.83334 7.08346H2.50001C2.26989 7.08346 2.08334 7.27 2.08334 7.50012V17.5001C2.08334 17.7302 2.26989 17.9168 2.50001 17.9168H5.83334C6.06346 17.9168 6.25001 17.7302 6.25001 17.5001V7.50012C6.25001 7.27 6.06346 7.08346 5.83334 7.08346ZM2.50001 5.83346C1.57954 5.83346 0.833344 6.57965 0.833344 7.50012V17.5001C0.833344 18.4206 1.57954 19.1668 2.50001 19.1668H5.83334C6.75382 19.1668 7.50001 18.4206 7.50001 17.5001V7.50012C7.50001 6.57965 6.75382 5.83346 5.83334 5.83346H2.50001Z" fill="#18202A"/>
<path fill-rule="evenodd" clip-rule="evenodd" d="M10.6886 0.487698C10.9833 0.273883 11.3436 0.217839 11.6739 0.26315C12.6506 0.397151 13.4469 0.780512 13.9965 1.41267C14.5454 2.04409 14.7917 2.85891 14.7917 3.75007C14.7917 4.3881 14.7134 4.8525 14.6132 5.20841H17.5C18.7657 5.20841 19.7917 6.23442 19.7917 7.50007V7.73227C19.7917 10.4167 19.1667 13.0643 17.9662 15.4653L17.9167 15.5643C17.3873 16.623 16.3053 17.2917 15.1216 17.2917H6.25001L6.25 6.87507H7.55952C7.98392 6.87507 8.51726 6.56729 9.06071 5.95544C10.0204 4.87498 10.2083 3.173 10.2083 1.46103C10.2083 1.06587 10.3784 0.712841 10.6886 0.487698ZM11.4583 1.49844C11.456 3.19084 11.2907 5.32707 9.99529 6.78553C9.38152 7.47657 8.53254 8.12507 7.55952 8.12507H7.5L7.50001 16.0417H15.1216C15.8318 16.0417 16.481 15.6405 16.7986 15.0053L16.8481 14.9063C17.9619 12.6789 18.5417 10.2227 18.5417 7.73227V7.50007C18.5417 6.92478 18.0753 6.45841 17.5 6.45841H14.5833C14.1925 6.45841 13.8096 6.30533 13.5688 5.96895C13.3324 5.63868 13.3066 5.23459 13.4086 4.87447C13.4763 4.63548 13.5417 4.2844 13.5417 3.75007C13.5417 3.08854 13.3618 2.58784 13.0531 2.23274C12.745 1.87839 12.2525 1.60423 11.504 1.50155C11.4861 1.4991 11.4709 1.49831 11.4583 1.49844Z" fill="#18202A"/>
</g>
<defs>
<clipPath id="clip0_2266_39436">
<rect width="20" height="20" fill="white"/>
</clipPath>
</defs>
</svg>
