<svg width="20" height="20" viewBox="0 0 20 20" fill="none" xmlns="http://www.w3.org/2000/svg">
<g clip-path="url(#clip0_3725_8790)">
<g clip-path="url(#clip1_3725_8790)">
<path fill-rule="evenodd" clip-rule="evenodd" d="M7.49998 8.03889C7.49998 7.74109 7.74139 7.49967 8.0392 7.49967H11.9608C12.2586 7.49967 12.5 7.74109 12.5 8.03889V11.9605C12.5 12.2583 12.2586 12.4997 11.9608 12.4997H8.0392C7.74139 12.4997 7.49998 12.2583 7.49998 11.9605V8.03889ZM8.57841 8.57811V11.4212H11.4215V8.57811H8.57841Z" fill="#18202A"/>
<path fill-rule="evenodd" clip-rule="evenodd" d="M8.35203 1.45801C8.35203 1.11283 8.07221 0.833008 7.72703 0.833008C7.38185 0.833008 7.10203 1.11283 7.10203 1.45801V3.31429H5.45475C4.27277 3.31429 3.3146 4.27247 3.3146 5.45444V7.08301H1.45831C1.11314 7.08301 0.833313 7.36283 0.833313 7.70801C0.833313 8.05319 1.11314 8.33301 1.45831 8.33301H3.3146V10.833H1.45831C1.11314 10.833 0.833313 11.1128 0.833313 11.458C0.833313 11.8032 1.11314 12.083 1.45831 12.083H3.3146V14.5454C3.3146 15.7273 4.27277 16.6855 5.45475 16.6855H7.10203V18.5749C7.10203 18.9016 7.38185 19.1663 7.72703 19.1663C8.07221 19.1663 8.35203 18.9016 8.35203 18.5749V16.6855H11.6479V18.5749C11.6479 18.9016 11.9278 19.1663 12.2729 19.1663C12.6181 19.1663 12.8979 18.9016 12.8979 18.5749V16.6855H14.5457C15.7276 16.6855 16.6858 15.7273 16.6858 14.5454V12.083H18.5753C18.9019 12.083 19.1666 11.8032 19.1666 11.458C19.1666 11.1128 18.9019 10.833 18.5753 10.833H16.6858V8.33301H18.5753C18.9019 8.33301 19.1666 8.05319 19.1666 7.70801C19.1666 7.36283 18.9019 7.08301 18.5753 7.08301H16.6858V5.45444C16.6858 4.27247 15.7276 3.31429 14.5457 3.31429H12.8979V1.45801C12.8979 1.11283 12.6181 0.833008 12.2729 0.833008C11.9278 0.833008 11.6479 1.11283 11.6479 1.45801V3.31429H8.35203V1.45801ZM5.45475 4.56429C4.96313 4.56429 4.5646 4.96283 4.5646 5.45444V14.5454C4.5646 15.037 4.96313 15.4355 5.45475 15.4355H14.5457C15.0373 15.4355 15.4358 15.037 15.4358 14.5454V5.45444C15.4358 4.96283 15.0373 4.56429 14.5457 4.56429H5.45475Z" fill="#18202A"/>
</g>
</g>
<defs>
<clipPath id="clip0_3725_8790">
<rect width="20" height="20" fill="white"/>
</clipPath>
<clipPath id="clip1_3725_8790">
<rect width="20" height="20" fill="white"/>
</clipPath>
</defs>
</svg>
