<svg width="20" height="20" viewBox="0 0 20 20" fill="none" xmlns="http://www.w3.org/2000/svg">
<g clip-path="url(#clip0_2266_39175)">
<path fill-rule="evenodd" clip-rule="evenodd" d="M1.70019 5.83332L9.79683 10.3475C9.92295 10.4178 10.0765 10.4178 10.2026 10.3475L18.2996 5.83332L10.2026 1.31933C10.0765 1.24902 9.92296 1.24902 9.79683 1.31934L1.70019 5.83332ZM9.18812 11.4393C9.69263 11.7206 10.3068 11.7206 10.8113 11.4393L15.4167 8.87175V11.952C15.4167 12.7399 14.967 13.5759 13.9923 14.2651C13.0208 14.9522 11.6132 15.4165 10 15.4165C8.38678 15.4165 6.97923 14.9522 6.00767 14.2651C5.033 13.5759 4.58333 12.7399 4.58333 11.952V8.87194L9.18812 11.4393ZM19.5611 6.56117L16.6667 8.17486V11.952C16.6667 14.5559 13.6819 16.6665 10 16.6665C6.3181 16.6665 3.33333 14.5559 3.33333 11.952V8.17501L2.08333 7.47809L2.08333 16.3903C2.57603 16.6243 2.91667 17.1265 2.91667 17.7083C2.91667 18.5137 2.26375 19.1666 1.45833 19.1666C0.652918 19.1666 0 18.5137 0 17.7083C0 17.1265 0.340636 16.6243 0.833333 16.3903L0.833333 6.78117L0.438731 6.56116C-0.131313 6.24334 -0.131306 5.42326 0.438745 5.10545L9.18815 0.22755C9.69264 -0.0537091 10.3068 -0.053715 10.8113 0.227535L19.5611 5.10544C20.1312 5.42325 20.1312 6.24335 19.5611 6.56117ZM10 7.08325C11.0355 7.08325 11.875 6.52361 11.875 5.83325C11.875 5.1429 11.0355 4.58325 10 4.58325C8.96447 4.58325 8.125 5.1429 8.125 5.83325C8.125 6.52361 8.96447 7.08325 10 7.08325Z" fill="#18202A"/>
</g>
<defs>
<clipPath id="clip0_2266_39175">
<rect width="20" height="20" fill="white"/>
</clipPath>
</defs>
</svg>
