<svg width="20" height="20" viewBox="0 0 20 20" fill="none" xmlns="http://www.w3.org/2000/svg">
<path fill-rule="evenodd" clip-rule="evenodd" d="M12.587 3.73079C12.7938 3.98505 13.0892 4.16634 13.417 4.16634C14.0507 4.16634 14.4867 3.53493 14.1288 3.012C13.2281 1.6963 11.7149 0.833008 10 0.833008C7.23858 0.833008 5 3.07158 5 5.83301V6.66634C3.15905 6.66634 1.66667 8.15872 1.66667 9.99967V15.833C1.66667 17.674 3.15905 19.1663 5 19.1663H15C16.8409 19.1663 18.3333 17.674 18.3333 15.833V9.99967C18.3333 8.15872 16.8409 6.66634 15 6.66634L6.66667 6.66634V5.83301C6.66667 3.99206 8.15905 2.49967 10 2.49967C11.0439 2.49967 11.9758 2.97957 12.587 3.73079ZM10.8333 13.11C11.3315 12.8219 11.6667 12.2832 11.6667 11.6663C11.6667 10.7459 10.9205 9.99967 10 9.99967C9.07952 9.99967 8.33333 10.7459 8.33333 11.6663C8.33333 12.2832 8.6685 12.8219 9.16667 13.11V14.9997C9.16667 15.4599 9.53976 15.833 10 15.833C10.4602 15.833 10.8333 15.4599 10.8333 14.9997V13.11Z" fill="#18202A"/>
</svg>
