<svg width="20" height="20" viewBox="0 0 20 20" fill="none" xmlns="http://www.w3.org/2000/svg">
<path d="M14.8219 3.84822C15.1063 3.48633 15.0434 2.96245 14.6815 2.6781C14.3196 2.39376 13.7957 2.45662 13.5114 2.81852L4.92506 13.7466L3.08925 11.9108C2.76382 11.5853 2.23618 11.5853 1.91074 11.9108C1.58531 12.2362 1.58531 12.7639 1.91074 13.0893L4.41074 15.5893C4.57925 15.7578 4.81185 15.8461 5.04973 15.8319C5.28762 15.8177 5.50803 15.7023 5.65526 15.5149L14.8219 3.84822Z" fill="#18202A"/>
<path d="M15.8333 5.83333C15.3731 5.83333 15 6.20643 15 6.66667C15 7.1269 15.3731 7.5 15.8333 7.5H17.5C17.9602 7.5 18.3333 7.1269 18.3333 6.66667C18.3333 6.20643 17.9602 5.83333 17.5 5.83333H15.8333Z" fill="#18202A"/>
<path d="M11.6667 10.8333C11.6667 10.3731 12.0398 10 12.5 10H17.5C17.9602 10 18.3333 10.3731 18.3333 10.8333C18.3333 11.2936 17.9602 11.6667 17.5 11.6667H12.5C12.0398 11.6667 11.6667 11.2936 11.6667 10.8333Z" fill="#18202A"/>
<path d="M9.16667 14.1667C8.70643 14.1667 8.33333 14.5398 8.33333 15C8.33333 15.4602 8.70643 15.8333 9.16667 15.8333H17.5C17.9602 15.8333 18.3333 15.4602 18.3333 15C18.3333 14.5398 17.9602 14.1667 17.5 14.1667H9.16667Z" fill="#18202A"/>
</svg>
