<svg width="20" height="20" viewBox="0 0 20 20" fill="none" xmlns="http://www.w3.org/2000/svg">
<g clip-path="url(#clip0_2266_36670)">
<path fill-rule="evenodd" clip-rule="evenodd" d="M19.1667 9.74259C19.1667 14.3115 15.5689 18.3335 10.0085 18.3335C9.11523 18.3335 8.2518 18.2342 7.43556 18.041L5.16396 19.0894C4.63873 19.3318 4.03233 18.9785 3.98429 18.402L3.80921 16.301C1.99019 14.8273 0.850378 12.5945 0.850378 9.74259C0.523342 4.96986 4.95062 0.833496 10.0085 0.833496C15.0664 0.833496 19.1667 4.3335 19.1667 9.74259ZM7.5 9.5835C7.5 10.2739 6.94036 10.8335 6.25 10.8335C5.55964 10.8335 5 10.2739 5 9.5835C5 8.89314 5.55964 8.3335 6.25 8.3335C6.94036 8.3335 7.5 8.89314 7.5 9.5835ZM10 10.8335C10.6904 10.8335 11.25 10.2739 11.25 9.5835C11.25 8.89314 10.6904 8.3335 10 8.3335C9.30964 8.3335 8.75 8.89314 8.75 9.5835C8.75 10.2739 9.30964 10.8335 10 10.8335ZM13.75 10.8335C14.4404 10.8335 15 10.2739 15 9.5835C15 8.89314 14.4404 8.3335 13.75 8.3335C13.0596 8.3335 12.5 8.89314 12.5 9.5835C12.5 10.2739 13.0596 10.8335 13.75 10.8335Z" fill="#18202A"/>
</g>
<defs>
<clipPath id="clip0_2266_36670">
<rect width="20" height="20" fill="white"/>
</clipPath>
</defs>
</svg>
