<svg width="20" height="20" viewBox="0 0 20 20" fill="none" xmlns="http://www.w3.org/2000/svg">
<g clip-path="url(#clip0_3352_8921)">
<path d="M10 10.8333L8.33335 8.33333H6.66669L9.16669 12.0833L6.66669 15.8333H8.33335L10 13.3333L11.6667 15.8333H13.3334L10.8334 12.0833L13.3334 8.33333H11.6667L10 10.8333Z" fill="#18202A"/>
<path fill-rule="evenodd" clip-rule="evenodd" d="M1.66669 1.66667C1.66669 0.746192 2.41288 0 3.33335 0H13.0597C13.5017 0 13.9256 0.175595 14.2382 0.488155L17.8452 4.09518C18.1578 4.40774 18.3334 4.83166 18.3334 5.27369V18.3333C18.3334 19.2538 17.5872 20 16.6667 20H3.33335C2.41288 20 1.66669 19.2538 1.66669 18.3333V1.66667ZM3.33335 18.75C3.10324 18.75 2.91669 18.5635 2.91669 18.3333V1.66667C2.91669 1.43655 3.10323 1.25 3.33335 1.25H12.504L12.5 4.50507C12.5 4.85735 12.6399 5.1952 12.8888 5.44429C13.1377 5.69339 13.4753 5.83333 13.8273 5.83333L17.0834 5.8292V18.3333C17.0834 18.5635 16.8968 18.75 16.6667 18.75H3.33335Z" fill="#18202A"/>
</g>
<defs>
<clipPath id="clip0_3352_8921">
<rect width="20" height="20" fill="white"/>
</clipPath>
</defs>
</svg>
