<svg width="20" height="20" viewBox="0 0 20 20" fill="none" xmlns="http://www.w3.org/2000/svg">
<g clip-path="url(#clip0_3783_8846)">
<g clip-path="url(#clip1_3783_8846)">
<path fill-rule="evenodd" clip-rule="evenodd" d="M15.8333 0.833008C14.9128 0.833008 14.1666 1.5792 14.1666 2.49967V2.70801H12.5C11.2343 2.70801 10.2083 3.73402 10.2083 4.99967V9.37467H5.83331V9.16634C5.83331 8.24587 5.08712 7.49967 4.16665 7.49967H2.49998C1.57951 7.49967 0.833313 8.24587 0.833313 9.16634V10.833C0.833313 11.7535 1.57951 12.4997 2.49998 12.4997H4.16665C5.08712 12.4997 5.83331 11.7535 5.83331 10.833V10.6247H10.2083V14.9997C10.2083 16.2653 11.2343 17.2913 12.5 17.2913H14.1666V17.4997C14.1666 18.4201 14.9128 19.1663 15.8333 19.1663H17.5C18.4205 19.1663 19.1666 18.4201 19.1666 17.4997V15.833C19.1666 14.9125 18.4205 14.1663 17.5 14.1663H15.8333C14.9128 14.1663 14.1666 14.9125 14.1666 15.833V16.0413H12.5C11.9247 16.0413 11.4583 15.575 11.4583 14.9997V10.6247H14.1666V10.833C14.1666 11.7535 14.9128 12.4997 15.8333 12.4997H17.5C18.4205 12.4997 19.1666 11.7535 19.1666 10.833V9.16634C19.1666 8.24587 18.4205 7.49967 17.5 7.49967H15.8333C14.9128 7.49967 14.1666 8.24587 14.1666 9.16634V9.37467H11.4583V4.99967C11.4583 4.42438 11.9247 3.95801 12.5 3.95801H14.1666V4.16634C14.1666 5.08682 14.9128 5.83301 15.8333 5.83301H17.5C18.4205 5.83301 19.1666 5.08682 19.1666 4.16634V2.49967C19.1666 1.5792 18.4205 0.833008 17.5 0.833008H15.8333ZM17.9166 2.49967C17.9166 2.26956 17.7301 2.08301 17.5 2.08301H15.8333C15.6032 2.08301 15.4166 2.26956 15.4166 2.49967V4.16634C15.4166 4.39646 15.6032 4.58301 15.8333 4.58301H17.5C17.7301 4.58301 17.9166 4.39646 17.9166 4.16634V2.49967ZM4.58331 9.16634C4.58331 8.93622 4.39676 8.74967 4.16665 8.74967H2.49998C2.26986 8.74967 2.08331 8.93622 2.08331 9.16634V10.833C2.08331 11.0631 2.26986 11.2497 2.49998 11.2497H4.16665C4.39677 11.2497 4.58331 11.0631 4.58331 10.833V9.16634ZM15.4166 9.16634C15.4166 8.93622 15.6032 8.74967 15.8333 8.74967H17.5C17.7301 8.74967 17.9166 8.93622 17.9166 9.16634V10.833C17.9166 11.0631 17.7301 11.2497 17.5 11.2497H15.8333C15.6032 11.2497 15.4166 11.0631 15.4166 10.833V9.16634ZM17.9166 15.833C17.9166 15.6029 17.7301 15.4163 17.5 15.4163H15.8333C15.6032 15.4163 15.4166 15.6029 15.4166 15.833V17.4997C15.4166 17.7298 15.6032 17.9163 15.8333 17.9163H17.5C17.7301 17.9163 17.9166 17.7298 17.9166 17.4997V15.833Z" fill="#18202A"/>
</g>
</g>
<defs>
<clipPath id="clip0_3783_8846">
<rect width="20" height="20" fill="white"/>
</clipPath>
<clipPath id="clip1_3783_8846">
<rect width="20" height="20" fill="white"/>
</clipPath>
</defs>
</svg>
