<svg width="20" height="20" viewBox="0 0 20 20" fill="none" xmlns="http://www.w3.org/2000/svg">
<g clip-path="url(#clip0_2266_35228)">
<path fill-rule="evenodd" clip-rule="evenodd" d="M4.99998 1.45831C4.99998 1.11314 5.2798 0.833313 5.62498 0.833313C5.97016 0.833313 6.24998 1.11314 6.24998 1.45831V2.49998H13.75V1.45831C13.75 1.11314 14.0298 0.833313 14.375 0.833313C14.7202 0.833313 15 1.11314 15 1.45831V2.49998H15.8333C17.6743 2.49998 19.1666 3.99236 19.1666 5.83331V11.5634C18.7873 11.2669 18.3674 11.0197 17.9166 10.8318V5.83331C17.9166 4.68272 16.9839 3.74998 15.8333 3.74998H15V5.20831C15 5.55349 14.7202 5.83331 14.375 5.83331C14.0298 5.83331 13.75 5.55349 13.75 5.20831V3.74998H6.24998V5.20831C6.24998 5.55349 5.97016 5.83331 5.62498 5.83331C5.2798 5.83331 4.99998 5.55349 4.99998 5.20831V3.74998H4.16665C3.01605 3.74998 2.08331 4.68272 2.08331 5.83331V15.8333C2.08331 16.9839 3.01605 17.9166 4.16665 17.9166H10.8318C11.0197 18.3674 11.2669 18.7873 11.5634 19.1666H4.16665C2.3257 19.1666 0.833313 17.6743 0.833313 15.8333V5.83331C0.833313 3.99236 2.3257 2.49998 4.16665 2.49998H4.99998V1.45831ZM11.6666 10.8333C12.0935 10.8333 12.4454 11.1542 12.4942 11.568C12.1494 11.8383 11.8383 12.1494 11.568 12.4942C11.1542 12.4454 10.8333 12.0935 10.8333 11.6666C10.8333 11.2064 11.2064 10.8333 11.6666 10.8333ZM4.16665 8.12498C4.16665 7.7798 4.44647 7.49998 4.79165 7.49998H15.2083C15.5535 7.49998 15.8333 7.7798 15.8333 8.12498C15.8333 8.47016 15.5535 8.74998 15.2083 8.74998H4.79165C4.44647 8.74998 4.16665 8.47016 4.16665 8.12498ZM4.99998 10.8333C4.53974 10.8333 4.16665 11.2064 4.16665 11.6666C4.16665 12.1269 4.53974 12.5 4.99998 12.5C5.46022 12.5 5.83331 12.1269 5.83331 11.6666C5.83331 11.2064 5.46022 10.8333 4.99998 10.8333ZM4.16665 15C4.16665 14.5397 4.53974 14.1666 4.99998 14.1666C5.46022 14.1666 5.83331 14.5397 5.83331 15C5.83331 15.4602 5.46022 15.8333 4.99998 15.8333C4.53974 15.8333 4.16665 15.4602 4.16665 15ZM8.33331 10.8333C7.87308 10.8333 7.49998 11.2064 7.49998 11.6666C7.49998 12.1269 7.87308 12.5 8.33331 12.5C8.79355 12.5 9.16665 12.1269 9.16665 11.6666C9.16665 11.2064 8.79355 10.8333 8.33331 10.8333ZM7.49998 15C7.49998 14.5397 7.87308 14.1666 8.33331 14.1666C8.79355 14.1666 9.16665 14.5397 9.16665 15C9.16665 15.4602 8.79355 15.8333 8.33331 15.8333C7.87308 15.8333 7.49998 15.4602 7.49998 15ZM20 15.8333C20 18.1345 18.1345 20 15.8333 20C13.5321 20 11.6666 18.1345 11.6666 15.8333C11.6666 13.5321 13.5321 11.6666 15.8333 11.6666C18.1345 11.6666 20 13.5321 20 15.8333ZM15.8333 13.3333C16.1785 13.3333 16.4583 13.6131 16.4583 13.9583V15.2083H17.7083C18.0535 15.2083 18.3333 15.4881 18.3333 15.8333C18.3333 16.1785 18.0535 16.4583 17.7083 16.4583H16.4583V17.7083C16.4583 18.0535 16.1785 18.3333 15.8333 18.3333C15.4881 18.3333 15.2083 18.0535 15.2083 17.7083V16.4583H13.9583C13.6131 16.4583 13.3333 16.1785 13.3333 15.8333C13.3333 15.4881 13.6131 15.2083 13.9583 15.2083H15.2083V13.9583C15.2083 13.6131 15.4881 13.3333 15.8333 13.3333Z" fill="#18202A"/>
</g>
<defs>
<clipPath id="clip0_2266_35228">
<rect width="20" height="20" fill="white"/>
</clipPath>
</defs>
</svg>
