<svg width="20" height="20" viewBox="0 0 20 20" fill="none" xmlns="http://www.w3.org/2000/svg">
<g clip-path="url(#clip0_2547_8351)">
<path d="M10 9.99992C11.6667 9.99992 12.5 8.33325 12.5 6.24992C12.5 4.58325 11.6667 3.33325 10 3.33325C8.33338 3.33325 7.50005 4.58325 7.50005 6.24992C7.50005 8.33325 8.33338 9.99992 10 9.99992Z" fill="#18202A"/>
<path d="M10.5566 18.3231C10.1996 17.568 10 16.7239 10 15.8333C10 13.9403 10.9017 12.2579 12.299 11.1922C11.5745 10.9591 10.802 10.8333 10 10.8333C8.51328 10.8333 7.12757 11.2659 5.96191 12.0121C4.87046 12.7108 4.50527 14.103 4.9416 15.3233C5.0692 15.6801 5.21159 16.03 5.36801 16.3721C5.81131 17.3415 6.72148 18.0128 7.77585 18.1695C8.50159 18.2774 9.24429 18.3333 10 18.3333C10.1864 18.3333 10.3719 18.3299 10.5566 18.3231Z" fill="#18202A"/>
<path d="M4.16671 9.99992C5.27782 9.99992 5.83338 8.95825 5.83338 7.65617C5.83338 6.6145 5.27782 5.83325 4.16671 5.83325C3.0556 5.83325 2.50005 6.6145 2.50005 7.65617C2.50005 8.95825 3.0556 9.99992 4.16671 9.99992Z" fill="#18202A"/>
<path d="M15.8334 9.99992C16.9445 9.99992 17.5 8.95825 17.5 7.65617C17.5 6.6145 16.9445 5.83325 15.8334 5.83325C14.7223 5.83325 14.1667 6.6145 14.1667 7.65617C14.1667 8.95825 14.7223 9.99992 15.8334 9.99992Z" fill="#18202A"/>
<path d="M3.37225 15.8846C2.88267 14.5154 3.03837 12.9091 3.91541 11.6914C3.11986 11.7596 2.36422 11.9676 1.67313 12.2906C0.700579 12.7452 0.308141 13.8933 0.636481 14.9154C0.923755 15.8097 1.70387 16.4379 2.63607 16.553C2.97652 16.595 3.3205 16.6256 3.66762 16.6444C3.56253 16.3946 3.464 16.1412 3.37225 15.8846Z" fill="#18202A"/>
<path fill-rule="evenodd" clip-rule="evenodd" d="M15.8334 19.9999C18.1345 19.9999 20 18.1344 20 15.8333C20 13.5321 18.1345 11.6666 15.8334 11.6666C13.5322 11.6666 11.6667 13.5321 11.6667 15.8333C11.6667 18.1344 13.5322 19.9999 15.8334 19.9999ZM18.3912 14.99C18.6158 14.7279 18.5855 14.3334 18.3234 14.1087C18.0613 13.8841 17.6668 13.9144 17.4421 14.1765L15.3232 16.6486L14.125 15.7499C13.8489 15.5428 13.4571 15.5988 13.25 15.8749C13.0429 16.1511 13.0989 16.5428 13.375 16.7499L15.0417 17.9999C15.3052 18.1976 15.6768 18.1568 15.8912 17.9067L18.3912 14.99Z" fill="#18202A"/>
</g>
<defs>
<clipPath id="clip0_2547_8351">
<rect width="20" height="20" fill="white"/>
</clipPath>
</defs>
</svg>
