<svg width="20" height="20" viewBox="0 0 20 20" fill="none" xmlns="http://www.w3.org/2000/svg">
<path fill-rule="evenodd" clip-rule="evenodd" d="M16.4204 1.71062C15.8271 1.16582 15.0357 0.833252 14.1667 0.833252H5.83333C3.99238 0.833252 2.5 2.32564 2.5 4.16659V15.8333C2.5 17.6742 3.99238 19.1666 5.83333 19.1666H14.1667C16.0076 19.1666 17.5 17.6742 17.5 15.8333V7.70212L15.1011 10.101C14.1248 11.0773 12.5419 11.0773 11.5656 10.101L9.06557 7.60102C8.08926 6.62471 8.08926 5.0418 9.06557 4.06549C10.0419 3.08917 11.6248 3.08917 12.6011 4.06549L13.3333 4.79772L16.4204 1.71062ZM5 11.6666C5 11.2063 5.3731 10.8333 5.83333 10.8333H9.16667C9.6269 10.8333 10 11.2063 10 11.6666C10 12.1268 9.6269 12.4999 9.16667 12.4999H5.83333C5.3731 12.4999 5 12.1268 5 11.6666ZM5.83333 14.1666C5.3731 14.1666 5 14.5397 5 14.9999C5 15.4602 5.3731 15.8333 5.83333 15.8333H14.1667C14.6269 15.8333 15 15.4602 15 14.9999C15 14.5397 14.6269 14.1666 14.1667 14.1666H5.83333ZM18.9226 3.92251C19.248 3.59707 19.248 3.06943 18.9226 2.744C18.5972 2.41856 18.0695 2.41856 17.7441 2.744L13.3333 7.15474L11.4226 5.244C11.0972 4.91856 10.5695 4.91856 10.2441 5.244C9.91864 5.56943 9.91864 6.09707 10.2441 6.42251L12.7441 8.92251C13.0695 9.24794 13.5972 9.24794 13.9226 8.92251L18.9226 3.92251Z" fill="#18202A"/>
</svg>
