<svg width="20" height="20" viewBox="0 0 20 20" fill="none" xmlns="http://www.w3.org/2000/svg">
<path fill-rule="evenodd" clip-rule="evenodd" d="M10 2.91699C11.1506 2.91699 12.0833 3.84973 12.0833 5.00033H7.91668C7.91668 3.84973 8.84942 2.91699 10 2.91699ZM6.66668 5.00033C6.66668 3.15938 8.15906 1.66699 10 1.66699C11.841 1.66699 13.3333 3.15938 13.3333 5.00033L16.6667 5.00033C18.0474 5.00033 19.1667 6.11961 19.1667 7.50033V9.45711V10.7697V15.8337C19.1667 17.2144 18.0474 18.3337 16.6667 18.3337H3.33334C1.95263 18.3337 0.833344 17.2144 0.833344 15.8337V10.7697V9.45711V7.50033C0.833344 6.11961 1.95263 5.00033 3.33334 5.00033L6.66668 5.00033ZM2.08334 11.1704V15.8337C2.08334 16.524 2.64299 17.0837 3.33334 17.0837H16.6667C17.357 17.0837 17.9167 16.524 17.9167 15.8337V11.1703L13.0136 12.7416L12.9971 12.7459C11.036 13.2579 8.96315 13.2579 7.00212 12.7459L6.98556 12.7416L2.08334 11.1704ZM17.9167 9.8577L12.665 11.5407C10.9213 11.993 9.07795 11.993 7.33424 11.5407L2.08334 9.85775V7.50033C2.08334 6.80997 2.64299 6.25033 3.33334 6.25033L6.66668 6.25033H13.3333L16.6667 6.25033C17.357 6.25033 17.9167 6.80997 17.9167 7.50033V9.8577ZM11.25 9.58366C11.25 10.274 10.6904 10.8337 10 10.8337C9.30965 10.8337 8.75001 10.274 8.75001 9.58366C8.75001 8.8933 9.30965 8.33366 10 8.33366C10.6904 8.33366 11.25 8.8933 11.25 9.58366Z" fill="#18202A"/>
</svg>
