<svg width="20" height="20" viewBox="0 0 20 20" fill="none" xmlns="http://www.w3.org/2000/svg">
<path fill-rule="evenodd" clip-rule="evenodd" d="M8.6467 3.85276L7.95763 4.09088C7.1951 4.35439 6.49841 4.762 5.90045 5.28213L5.34947 5.7614L3.64884 5.15686L2.62723 6.92634L4.00019 8.0961L3.86266 8.8113C3.78885 9.19516 3.75002 9.59241 3.75002 9.99992C3.75002 10.4074 3.78885 10.8047 3.86267 11.1886L4.0002 11.9038L2.62722 13.0735L3.64883 14.843L5.3495 14.2385L5.90047 14.7177C6.49842 15.2378 7.19511 15.6455 7.95763 15.909L8.6467 16.1471L8.97246 17.9166H11.0157L11.3409 16.15L12.0318 15.9126C12.7973 15.6496 13.4966 15.2416 14.0967 14.7202L14.6476 14.2416L16.3393 14.843L17.3609 13.0735L15.9974 11.9118L16.136 11.1958C16.2107 10.8097 16.25 10.41 16.25 9.99992C16.25 9.58985 16.2107 9.19016 16.136 8.80406L15.9974 8.08804L17.3609 6.92634L16.3393 5.15686L14.6476 5.75823L14.0967 5.27963C13.4966 4.75829 12.7973 4.3502 12.0318 4.08724L11.3409 3.84987L11.0157 2.08325H8.97246L8.6467 3.85276ZM7.80593 1.51571C7.87872 1.12031 8.22344 0.833252 8.62549 0.833252H11.3626C11.7647 0.833252 12.1094 1.12031 12.1822 1.51571L12.438 2.90506C13.3581 3.22117 14.1974 3.71124 14.9165 4.336L16.2475 3.86285C16.6264 3.72819 17.0473 3.8832 17.2483 4.23138L18.6169 6.60182C18.8179 6.95 18.7417 7.39207 18.4357 7.65281L17.3632 8.56655C17.453 9.03051 17.5 9.50972 17.5 9.99992C17.5 10.4901 17.453 10.9693 17.3632 11.4333L18.4357 12.3471C18.7417 12.6078 18.8179 13.0499 18.6169 13.3981L17.2483 15.7685C17.0473 16.1167 16.6264 16.2717 16.2475 16.137L14.9165 15.6639C14.1974 16.2886 13.3581 16.7787 12.438 17.0948L12.1822 18.4841C12.1094 18.8795 11.7647 19.1666 11.3626 19.1666H8.62549C8.22344 19.1666 7.87872 18.8795 7.80593 18.4841L7.54936 17.0904C6.63273 16.7736 5.79668 16.2842 5.0801 15.6609L3.74059 16.137C3.36176 16.2717 2.9408 16.1167 2.73978 15.7685L1.37121 13.3981C1.17018 13.0499 1.24642 12.6078 1.55245 12.3471L2.63516 11.4246C2.54646 10.9633 2.50002 10.4871 2.50002 9.99992C2.50002 9.51279 2.54646 9.03651 2.63515 8.57526L1.55246 7.65281C1.24643 7.39207 1.17019 6.95 1.37122 6.60182L2.73979 4.23138C2.94081 3.8832 3.36177 3.72819 3.7406 3.86285L5.08008 4.33901C5.79666 3.71569 6.63272 3.2262 7.54936 2.90944L7.80593 1.51571Z" fill="#18202A"/>
<path fill-rule="evenodd" clip-rule="evenodd" d="M10 12.0833C11.1506 12.0833 12.0833 11.1505 12.0833 9.99992C12.0833 8.84933 11.1506 7.91659 10 7.91659C8.84942 7.91659 7.91668 8.84933 7.91668 9.99992C7.91668 11.1505 8.84942 12.0833 10 12.0833ZM10 13.3333C11.841 13.3333 13.3333 11.8409 13.3333 9.99992C13.3333 8.15897 11.841 6.66659 10 6.66659C8.15906 6.66659 6.66668 8.15897 6.66668 9.99992C6.66668 11.8409 8.15906 13.3333 10 13.3333Z" fill="#18202A"/>
</svg>
