<svg width="20" height="20" viewBox="0 0 20 20" fill="none" xmlns="http://www.w3.org/2000/svg">
<g clip-path="url(#clip0_2266_37291)">
<path fill-rule="evenodd" clip-rule="evenodd" d="M19.1667 10C19.1667 4.93743 15.0626 0.833374 10 0.833374C4.93739 0.833374 0.833334 4.93743 0.833334 10C0.833334 15.0627 4.93739 19.1667 10 19.1667C15.0626 19.1667 19.1667 15.0627 19.1667 10ZM6.07741 10.2441C5.75198 10.5696 5.75198 11.0972 6.07741 11.4226C6.40285 11.7481 6.93049 11.7481 7.25592 11.4226L10 8.67855L12.7441 11.4226C13.0695 11.7481 13.5972 11.7481 13.9226 11.4226C14.248 11.0972 14.248 10.5696 13.9226 10.2441L10.5893 6.91079C10.2638 6.58535 9.73618 6.58535 9.41075 6.91079L6.07741 10.2441Z" fill="#18202A"/>
</g>
<defs>
<clipPath id="clip0_2266_37291">
<rect width="20" height="20" fill="white"/>
</clipPath>
</defs>
</svg>
