<svg width="20" height="20" viewBox="0 0 20 20" fill="none" xmlns="http://www.w3.org/2000/svg">
<g clip-path="url(#clip0_2266_37165)">
<path fill-rule="evenodd" clip-rule="evenodd" d="M10 19.1666C4.93739 19.1666 0.833334 15.0626 0.833334 9.99998C0.833334 4.93737 4.93739 0.833313 10 0.833313C15.0626 0.833313 19.1667 4.93737 19.1667 9.99998C19.1667 15.0626 15.0626 19.1666 10 19.1666ZM8.57741 6.07739C8.90285 5.75195 9.43049 5.75195 9.75592 6.07739C10.0814 6.40283 10.0814 6.93047 9.75592 7.2559L7.84518 9.16665H14.1667C14.6269 9.16665 15 9.53974 15 9.99998C15 10.4602 14.6269 10.8333 14.1667 10.8333H7.84518L9.75592 12.7441C10.0814 13.0695 10.0814 13.5971 9.75592 13.9226C9.43049 14.248 8.90285 14.248 8.57741 13.9226L5.24408 10.5892C4.91864 10.2638 4.91864 9.73616 5.24408 9.41072L8.57741 6.07739Z" fill="#18202A"/>
</g>
<defs>
<clipPath id="clip0_2266_37165">
<rect width="20" height="20" fill="white"/>
</clipPath>
</defs>
</svg>
