<svg width="20" height="20" viewBox="0 0 20 20" fill="none" xmlns="http://www.w3.org/2000/svg">
<path fill-rule="evenodd" clip-rule="evenodd" d="M14.7154 3.03405C14.8807 3.33708 14.769 3.71673 14.466 3.88202L5.29929 8.88202C4.99626 9.04731 4.61661 8.93565 4.45133 8.63262C4.28604 8.32959 4.3977 7.94994 4.70073 7.78465L13.8674 2.78465C14.1704 2.61936 14.5501 2.73102 14.7154 3.03405Z" fill="#18202A"/>
<path fill-rule="evenodd" clip-rule="evenodd" d="M16.966 5.28465C17.269 5.44994 17.3807 5.82959 17.2154 6.13262L12.2154 15.2993C12.0501 15.6023 11.6704 15.714 11.3674 15.5487C11.0644 15.3834 10.9527 15.0037 11.118 14.7007L16.118 5.53405C16.2833 5.23102 16.6629 5.11936 16.966 5.28465Z" fill="#18202A"/>
<path fill-rule="evenodd" clip-rule="evenodd" d="M12.8914 2.05806C13.1355 1.81398 13.5312 1.81398 13.7753 2.05806L17.942 6.22473C18.186 6.4688 18.186 6.86453 17.942 7.10861C17.6979 7.35269 17.3021 7.35269 17.0581 7.10861L12.8914 2.94194C12.6473 2.69786 12.6473 2.30214 12.8914 2.05806Z" fill="#18202A"/>
<path fill-rule="evenodd" clip-rule="evenodd" d="M7.94195 12.0581C8.18603 12.3021 8.18603 12.6979 7.94195 12.9419L4.60862 16.2753C4.36454 16.5194 3.96881 16.5194 3.72474 16.2753C3.48066 16.0312 3.48066 15.6355 3.72474 15.3914L7.05807 12.0581C7.30215 11.814 7.69787 11.814 7.94195 12.0581Z" fill="#18202A"/>
<path fill-rule="evenodd" clip-rule="evenodd" d="M2.8914 7.05806C3.13548 6.81398 3.53121 6.81398 3.77529 7.05806L12.942 16.2247C13.186 16.4688 13.186 16.8645 12.942 17.1086C12.6979 17.3527 12.3021 17.3527 12.0581 17.1086L2.8914 7.94194C2.64732 7.69786 2.64732 7.30214 2.8914 7.05806Z" fill="#18202A"/>
</svg>
