<svg width="20" height="20" viewBox="0 0 20 20" fill="none" xmlns="http://www.w3.org/2000/svg">
<g clip-path="url(#clip0_2266_40195)">
<path fill-rule="evenodd" clip-rule="evenodd" d="M17.9167 9.99998C17.9167 5.62772 14.3723 2.08331 10 2.08331C5.62776 2.08331 2.08334 5.62772 2.08334 9.99998C2.08334 14.3722 5.62776 17.9166 10 17.9166C14.3723 17.9166 17.9167 14.3722 17.9167 9.99998ZM19.1667 9.99998C19.1667 4.93737 15.0626 0.833313 10 0.833313C4.9374 0.833313 0.833344 4.93737 0.833344 9.99998C0.833344 15.0626 4.9374 19.1666 10 19.1666C15.0626 19.1666 19.1667 15.0626 19.1667 9.99998Z" fill="#18202A"/>
<path fill-rule="evenodd" clip-rule="evenodd" d="M6.22474 9.60859C5.98066 9.36451 5.98066 8.96878 6.22474 8.72471L9.55807 5.39137C9.80215 5.14729 10.1979 5.14729 10.442 5.39137L13.7753 8.72471C14.0194 8.96878 14.0194 9.36451 13.7753 9.60859C13.5312 9.85267 13.1355 9.85267 12.8914 9.60859L10.625 7.3422V14.1666C10.625 14.5118 10.3452 14.7916 10 14.7916C9.65483 14.7916 9.37501 14.5118 9.37501 14.1666V7.3422L7.10862 9.60859C6.86454 9.85267 6.46881 9.85267 6.22474 9.60859Z" fill="#18202A"/>
</g>
<defs>
<clipPath id="clip0_2266_40195">
<rect width="20" height="20" fill="white"/>
</clipPath>
</defs>
</svg>
