<svg width="20" height="20" viewBox="0 0 20 20" fill="none" xmlns="http://www.w3.org/2000/svg">
<path d="M2.91669 3.95825C2.91669 3.61307 2.63686 3.33325 2.29169 3.33325C1.94651 3.33325 1.66669 3.61307 1.66669 3.95825V16.0416C1.66669 16.3868 1.94651 16.6666 2.29169 16.6666C2.63686 16.6666 2.91669 16.3868 2.91669 16.0416V10.4166L10.4167 10.4166V16.0416C10.4167 16.3868 10.6965 16.6666 11.0417 16.6666C11.3869 16.6666 11.6667 16.3868 11.6667 16.0416V3.95825C11.6667 3.61307 11.3869 3.33325 11.0417 3.33325C10.6965 3.33325 10.4167 3.61307 10.4167 3.95825V9.16658L2.91669 9.16659V3.95825Z" fill="#18202A"/>
<path d="M17.5 9.7916C17.5 9.54478 17.3548 9.32108 17.1293 9.22066C16.9038 9.12024 16.6404 9.16193 16.4569 9.32704L14.3736 11.202C14.117 11.433 14.0962 11.8281 14.3271 12.0847C14.558 12.3413 14.9532 12.3621 15.2098 12.1312L16.25 11.1949V16.0416C16.25 16.3868 16.5298 16.6666 16.875 16.6666C17.2202 16.6666 17.5 16.3868 17.5 16.0416V9.7916Z" fill="#18202A"/>
</svg>
