<svg width="20" height="20" viewBox="0 0 20 20" fill="none" xmlns="http://www.w3.org/2000/svg">
<path fill-rule="evenodd" clip-rule="evenodd" d="M7.85355 2.85355C8.04882 2.65829 8.04882 2.34171 7.85355 2.14645C7.65829 1.95118 7.34171 1.95118 7.14645 2.14645L3.33464 5.95825H3.33331V5.95958L3.14645 6.14645C2.95118 6.34171 2.95118 6.65829 3.14645 6.85355L7.14645 10.8536C7.34171 11.0488 7.65829 11.0488 7.85355 10.8536C8.04882 10.6583 8.04882 10.3417 7.85355 10.1464L4.66536 6.95825H11.9791C14.1998 6.95825 16 8.75846 16 10.9791C16 13.1998 14.1998 15 11.9791 15H6.45831C6.18217 15 5.95831 15.2239 5.95831 15.5C5.95831 15.7761 6.18217 16 6.45831 16H11.9791C14.7521 16 17 13.7521 17 10.9791C17 8.20617 14.7521 5.95825 11.9791 5.95825H4.74885L7.85355 2.85355Z" fill="#18202A"/>
</svg>
