<svg width="20" height="20" viewBox="0 0 20 20" fill="none" xmlns="http://www.w3.org/2000/svg">
<path fill-rule="evenodd" clip-rule="evenodd" d="M10.9411 3.16285C10.9409 3.16302 10.9408 3.1632 10.9406 3.16337L4.27172 9.86492L4.27064 9.866C2.48758 11.6491 2.48758 14.5883 4.27064 16.3714C6.0537 18.1544 8.99294 18.1544 10.776 16.3714L17.2498 9.8976C17.4938 9.65352 17.8896 9.65352 18.1336 9.8976C18.3777 10.1417 18.3777 10.5374 18.1336 10.7815L11.6599 17.2552C9.38867 19.5265 5.65798 19.5265 3.38676 17.2552C1.11575 14.9842 1.11555 11.254 3.38615 8.98273C3.38635 8.98253 3.38656 8.98232 3.38676 8.98212L10.0556 2.28057L10.0567 2.27949C11.7067 0.629493 14.3911 0.629493 16.0411 2.27949C17.6911 3.92948 17.6911 6.61392 16.0411 8.26391L16.04 8.26507L9.79623 14.4761C9.79597 14.4764 9.79572 14.4766 9.79546 14.4769C8.79426 15.4772 7.16361 15.4638 6.14271 14.4854L6.13321 14.4761C5.13207 13.475 5.14529 11.8438 6.1239 10.8226L6.13441 10.8119L12.1504 4.82856C12.3952 4.58514 12.7909 4.58622 13.0343 4.83096C13.2777 5.07571 13.2766 5.47143 13.0319 5.71484L7.02167 11.6924C6.5027 12.2391 6.51565 13.0856 7.01244 13.5875C7.56084 14.1082 8.41096 14.0936 8.91235 13.5922L8.91351 13.5911L15.1572 7.38003C15.1574 7.37983 15.1576 7.37963 15.1578 7.37943C16.3191 6.21754 16.3189 4.32501 15.1572 3.16337C13.9956 2.00171 12.103 2.00153 10.9411 3.16285Z" fill="#18202A"/>
</svg>
