<svg width="20" height="20" viewBox="0 0 20 20" fill="none" xmlns="http://www.w3.org/2000/svg">
<path d="M17.39 13.8583C17.5716 13.5109 17.729 13.1501 17.8606 12.7781C18.0141 12.3443 17.7869 11.8681 17.353 11.7145C16.9191 11.561 16.4429 11.7883 16.2894 12.2221C16.2433 12.3524 16.1933 12.481 16.1394 12.6077L17.39 13.8583Z" fill="#18202A"/>
<path d="M7.39512 3.86345C7.7586 3.70949 8.13633 3.58756 8.52414 3.49981C9.62253 3.25129 10.766 3.28506 11.8478 3.59797C12.9296 3.91089 13.9145 4.49274 14.7106 5.28925C14.7168 5.29541 14.723 5.30148 14.7294 5.30744L17.0628 7.50008H15C14.5398 7.50008 14.1667 7.87318 14.1667 8.33341C14.1667 8.79365 14.5398 9.16675 15 9.16675H19.1667C19.6269 9.16675 20 8.79365 20 8.33341V4.16675C20 3.70651 19.6269 3.33341 19.1667 3.33341C18.7064 3.33341 18.3333 3.70651 18.3333 4.16675V6.40689L15.8799 4.10154C14.8864 3.11078 13.6588 2.38684 12.3109 1.99694C10.9586 1.6058 9.52932 1.56358 8.15633 1.87424C7.45375 2.03321 6.77764 2.28192 6.14389 2.61222L7.39512 3.86345Z" fill="#18202A"/>
<path d="M3.08398 1.90934C2.71664 1.59631 2.19748 1.58236 1.88988 1.88996C1.56416 2.21569 1.59899 2.77864 1.9677 3.14734L3.54562 4.72526C2.93831 5.46757 2.46155 6.31178 2.1394 7.22215C1.98587 7.65602 2.21313 8.13221 2.647 8.28574C3.08088 8.43927 3.55706 8.21201 3.7106 7.77814C3.94962 7.10267 4.29504 6.47274 4.7315 5.91114L14.0882 15.2678C13.3194 15.8636 12.428 16.285 11.4759 16.5005C10.3775 16.749 9.23403 16.7152 8.15222 16.4023C7.07042 16.0894 6.08551 15.5075 5.2894 14.711C5.28325 14.7049 5.277 14.6988 5.27065 14.6929L2.9371 12.5001H5C5.46024 12.5001 5.83333 12.127 5.83333 11.6667C5.83333 11.2065 5.46024 10.8334 5 10.8334H0.833333C0.373096 10.8334 0 11.2065 0 11.6667V15.8334C0 16.2937 0.373096 16.6667 0.833333 16.6667C1.29357 16.6667 1.66667 16.2937 1.66667 15.8334V13.5933L4.12009 15.8987C5.11356 16.8895 6.34116 17.6135 7.68912 18.0034C9.04138 18.3945 10.4707 18.4367 11.8437 18.1261C13.1027 17.8412 14.2767 17.2681 15.2742 16.4539L16.8527 18.0324C17.2214 18.4011 17.7844 18.4359 18.1101 18.1102C18.4177 17.8026 18.4038 17.2834 18.0907 16.9161L3.08398 1.90934Z" fill="#18202A"/>
</svg>
