<svg width="20" height="20" viewBox="0 0 20 20" fill="none" xmlns="http://www.w3.org/2000/svg">
<g clip-path="url(#clip0_2266_38950)">
<path fill-rule="evenodd" clip-rule="evenodd" d="M10 17.9166C14.3723 17.9166 17.9167 14.3722 17.9167 9.99992C17.9167 5.62766 14.3723 2.08325 10 2.08325C5.62776 2.08325 2.08334 5.62766 2.08334 9.99992C2.08334 14.3722 5.62776 17.9166 10 17.9166ZM19.1667 9.99992C19.1667 15.0625 15.0626 19.1666 10 19.1666C4.9374 19.1666 0.833344 15.0625 0.833344 9.99992C0.833344 4.93731 4.9374 0.833252 10 0.833252C15.0626 0.833252 19.1667 4.93731 19.1667 9.99992Z" fill="#18202A"/>
<path fill-rule="evenodd" clip-rule="evenodd" d="M16.2753 3.72464C16.0312 3.48057 15.6355 3.48057 15.3914 3.72464L3.72473 15.3913C3.48066 15.6354 3.48066 16.0311 3.72473 16.2752C3.96881 16.5193 4.36454 16.5193 4.60862 16.2752L16.2753 4.60853C16.5194 4.36445 16.5194 3.96872 16.2753 3.72464Z" fill="#18202A"/>
</g>
<defs>
<clipPath id="clip0_2266_38950">
<rect width="20" height="20" fill="white"/>
</clipPath>
</defs>
</svg>
