<svg width="20" height="20" viewBox="0 0 20 20" fill="none" xmlns="http://www.w3.org/2000/svg">
<path fill-rule="evenodd" clip-rule="evenodd" d="M1.66666 4.16699C1.66666 2.78628 2.78594 1.66699 4.16666 1.66699H5.83332C6.1785 1.66699 6.45832 1.94681 6.45832 2.29199C6.45832 2.63717 6.1785 2.91699 5.83332 2.91699H4.16666C3.4763 2.91699 2.91666 3.47664 2.91666 4.16699V5.83366C2.91666 6.17884 2.63683 6.45866 2.29166 6.45866C1.94648 6.45866 1.66666 6.17884 1.66666 5.83366V4.16699ZM6.66666 9.16699C6.32148 9.16699 6.04166 8.88717 6.04166 8.54199V7.29199C6.04166 6.94682 6.32148 6.66699 6.66666 6.66699C7.01183 6.66699 7.29166 6.94682 7.29166 7.29199V8.54199C7.29166 8.88717 7.01183 9.16699 6.66666 9.16699ZM9.37499 7.29199V10.0003C9.37499 10.1154 9.28174 10.2087 9.16666 10.2087H8.95832C8.61316 10.2087 8.33332 10.4885 8.33332 10.8337C8.33332 11.1788 8.61316 11.4587 8.95832 11.4587H9.16666C9.97207 11.4587 10.625 10.8057 10.625 10.0003V7.29199C10.625 6.94682 10.3452 6.66699 9.99999 6.66699C9.65482 6.66699 9.37499 6.94682 9.37499 7.29199ZM13.02 12.987C12.8286 12.6998 12.4405 12.6222 12.1533 12.8137C12.0244 12.8997 11.7806 13.039 11.4649 13.1793C10.9521 13.4072 10.4463 13.5421 9.99999 13.5421C9.55368 13.5421 9.04792 13.4072 8.53508 13.1793C8.21941 13.039 7.97563 12.8997 7.84668 12.8137C7.55948 12.6222 7.17143 12.6998 6.97996 12.987C6.78849 13.2742 6.8661 13.6623 7.15331 13.8538C7.33686 13.9761 7.63995 14.1493 8.02741 14.3215C8.68644 14.6144 9.35255 14.7921 9.99999 14.7921C10.6474 14.7921 11.3135 14.6144 11.9726 14.3215C12.2493 14.1985 12.483 14.075 12.6609 13.9699L12.8467 13.8538C13.1339 13.6623 13.2115 13.2742 13.02 12.987ZM12.7083 8.54199C12.7083 8.88717 12.9882 9.16699 13.3333 9.16699C13.6785 9.16699 13.9583 8.88717 13.9583 8.54199V7.29199C13.9583 6.94682 13.6785 6.66699 13.3333 6.66699C12.9882 6.66699 12.7083 6.94682 12.7083 7.29199V8.54199ZM4.16666 18.3337C2.78594 18.3337 1.66666 17.2144 1.66666 15.8337V14.167C1.66666 13.8218 1.94648 13.542 2.29166 13.542C2.63683 13.542 2.91666 13.8218 2.91666 14.167V15.8337C2.91666 16.524 3.4763 17.0837 4.16666 17.0837H5.83332C6.1785 17.0837 6.45832 17.3635 6.45832 17.7087C6.45832 18.0538 6.1785 18.3337 5.83332 18.3337H4.16666ZM18.3333 4.16699C18.3333 2.78628 17.214 1.66699 15.8333 1.66699H14.1667C13.8215 1.66699 13.5417 1.94681 13.5417 2.29199C13.5417 2.63717 13.8215 2.91699 14.1667 2.91699H15.8333C16.5237 2.91699 17.0833 3.47664 17.0833 4.16699V5.83366C17.0833 6.17884 17.3631 6.45866 17.7083 6.45866C18.0535 6.45866 18.3333 6.17884 18.3333 5.83366V4.16699ZM15.8333 18.3337C17.214 18.3337 18.3333 17.2144 18.3333 15.8337V14.167C18.3333 13.8218 18.0535 13.542 17.7083 13.542C17.3631 13.542 17.0833 13.8218 17.0833 14.167V15.8337C17.0833 16.524 16.5237 17.0837 15.8333 17.0837H14.1667C13.8215 17.0837 13.5417 17.3635 13.5417 17.7087C13.5417 18.0538 13.8215 18.3337 14.1667 18.3337H15.8333Z" fill="#18202A"/>
</svg>
