<svg width="20" height="20" viewBox="0 0 20 20" fill="none" xmlns="http://www.w3.org/2000/svg">
<g clip-path="url(#clip0_2266_38047)">
<path fill-rule="evenodd" clip-rule="evenodd" d="M10 9.16634C12.2222 9.16634 13.3333 7.08301 13.3333 4.47884C13.3333 2.39551 12.2222 0.833008 10 0.833008C7.77778 0.833008 6.66667 2.39551 6.66667 4.47884C6.66667 7.08301 7.77778 9.16634 10 9.16634ZM10 10.833C10.8106 10.833 11.5942 10.9487 12.3351 11.1646C10.9173 12.2288 10 13.9238 10 15.833C10 17.0575 10.3773 18.1938 11.0219 19.1321C10.6842 19.1548 10.3434 19.1663 10 19.1663C8.71051 19.1663 7.45902 19.0036 6.26494 18.6976C5.24908 18.4373 4.38809 17.7568 3.91655 16.8201L3.87764 16.7422C3.22579 15.4258 3.44745 13.8131 4.55972 12.8537C6.01956 11.5944 7.92088 10.833 10 10.833ZM20 15.833C20 18.1342 18.1345 19.9997 15.8333 19.9997C13.5322 19.9997 11.6667 18.1342 11.6667 15.833C11.6667 13.5318 13.5322 11.6664 15.8333 11.6664C18.1345 11.6664 20 13.5318 20 15.833ZM15.8333 12.9164C16.2936 12.9164 16.6667 13.2895 16.6667 13.7497V14.9997H17.9167C18.3769 14.9997 18.75 15.3728 18.75 15.833C18.75 16.2933 18.3769 16.6664 17.9167 16.6664H16.6667V17.9164C16.6667 18.3766 16.2936 18.7497 15.8333 18.7497C15.3731 18.7497 15 18.3766 15 17.9164V16.6664H13.75C13.2898 16.6664 12.9167 16.2933 12.9167 15.833C12.9167 15.3728 13.2898 14.9997 13.75 14.9997H15V13.7497C15 13.2895 15.3731 12.9164 15.8333 12.9164Z" fill="#18202A"/>
</g>
<defs>
<clipPath id="clip0_2266_38047">
<rect width="20" height="20" fill="white"/>
</clipPath>
</defs>
</svg>
