<svg width="20" height="20" viewBox="0 0 20 20" fill="none" xmlns="http://www.w3.org/2000/svg">
<path fill-rule="evenodd" clip-rule="evenodd" d="M9.16666 2.29199C5.3697 2.29199 2.29166 5.37003 2.29166 9.16699C2.29166 12.7053 4.9652 15.6201 8.40199 16C8.74508 16.0379 8.99247 16.3468 8.95454 16.6899C8.91661 17.033 8.60774 17.2804 8.26465 17.2424C4.20153 16.7933 1.04166 13.3496 1.04166 9.16699C1.04166 4.67968 4.67934 1.04199 9.16666 1.04199C13.3492 1.04199 16.7929 4.20187 17.2421 8.26499C17.28 8.60807 17.0326 8.91695 16.6896 8.95487C16.3465 8.9928 16.0376 8.74542 15.9997 8.40233C15.6197 4.96553 12.705 2.29199 9.16666 2.29199ZM9.16666 5.62533C7.21065 5.62533 5.62499 7.21098 5.62499 9.16699C5.62499 10.6183 6.49807 11.8671 7.75022 12.4142C8.06653 12.5524 8.21091 12.9209 8.07271 13.2372C7.93451 13.5535 7.56606 13.6979 7.24976 13.5597C5.55874 12.8208 4.37499 11.1329 4.37499 9.16699C4.37499 6.52063 6.52029 4.37533 9.16666 4.37533C11.1325 4.37533 12.8205 5.55907 13.5593 7.25009C13.6975 7.5664 13.5532 7.93485 13.2369 8.07305C12.9205 8.21125 12.5521 8.06686 12.4139 7.75056C11.8668 6.4984 10.618 5.62533 9.16666 5.62533ZM12.2846 16.905L10.1286 10.1289L16.9046 12.2849L15.2366 13.3969C15.0808 13.5008 14.9798 13.669 14.9614 13.8554C14.9429 14.0417 15.009 14.2265 15.1414 14.3589L18.2828 17.5003L17.5 18.2831L14.3586 15.1417C14.2262 15.0093 14.0414 14.9432 13.8551 14.9617C13.6687 14.9801 13.5005 15.0811 13.3966 15.2369L12.2846 16.905ZM10.1238 8.81563C9.31829 8.55934 8.55903 9.3186 8.81532 10.1241L11.2249 17.697C11.4897 18.5293 12.5997 18.6857 13.0842 17.959L14.0138 16.5647L16.7634 19.3143C17.1702 19.7211 17.8298 19.7211 18.2366 19.3143L19.314 18.2369C19.7208 17.8301 19.7208 17.1705 19.314 16.7637L16.5643 14.0141L17.9587 13.0845C18.6854 12.6 18.529 11.49 17.6967 11.2252L10.1238 8.81563Z" fill="#18202A"/>
</svg>
