<svg width="20" height="20" viewBox="0 0 20 20" fill="none" xmlns="http://www.w3.org/2000/svg">
<path fill-rule="evenodd" clip-rule="evenodd" d="M4.99999 2.08301H15C15.2301 2.08301 15.4167 2.26956 15.4167 2.49967V3.33301H14.7917H13.5417H10.625H9.37499H6.45832H5.20832H4.58332V2.49967C4.58332 2.26956 4.76987 2.08301 4.99999 2.08301ZM3.33332 3.33301V2.49967C3.33332 1.5792 4.07951 0.833008 4.99999 0.833008H15C15.9205 0.833008 16.6667 1.5792 16.6667 2.49967V3.33301H17.2917C18.2121 3.33301 18.9583 4.0792 18.9583 4.99967V7.49967C18.9583 8.13997 18.7176 8.72404 18.3217 9.16634H18.3333V15.833C18.3333 17.674 16.8409 19.1663 15 19.1663H13.3333H6.66666H4.99999C3.15904 19.1663 1.66666 17.674 1.66666 15.833V9.16634H1.67824C1.28237 8.72404 1.04166 8.13997 1.04166 7.49967V4.99967C1.04166 4.0792 1.78785 3.33301 2.70832 3.33301H3.33332ZM2.91666 9.92091V15.833C2.91666 16.9836 3.8494 17.9163 4.99999 17.9163H6.66666V14.1663C6.66666 12.7856 7.78594 11.6663 9.16666 11.6663H10.8333C12.214 11.6663 13.3333 12.7856 13.3333 14.1663V17.9163H15C16.1506 17.9163 17.0833 16.9836 17.0833 15.833V9.92091C16.8836 9.97233 16.6741 9.99967 16.4583 9.99967H16.0417C15.295 9.99967 14.6247 9.67233 14.1667 9.15331C13.7086 9.67233 13.0383 9.99967 12.2917 9.99967H11.875C11.1283 9.99967 10.4581 9.67233 9.99999 9.15331C9.5419 9.67233 8.87167 9.99967 8.12499 9.99967H7.70832C6.96164 9.99967 6.29141 9.67233 5.83332 9.15331C5.37523 9.67233 4.70501 9.99967 3.95832 9.99967H3.54166C3.32584 9.99967 3.11642 9.97233 2.91666 9.92091ZM12.0833 17.9163V14.1663C12.0833 13.476 11.5237 12.9163 10.8333 12.9163H9.16666C8.4763 12.9163 7.91666 13.476 7.91666 14.1663V17.9163H12.0833ZM16.6667 4.58301H14.7917V7.49967C14.7917 8.19003 15.3513 8.74967 16.0417 8.74967H16.4583C17.1487 8.74967 17.7083 8.19003 17.7083 7.49967V4.99967C17.7083 4.76956 17.5218 4.58301 17.2917 4.58301H16.6667ZM13.5417 4.58301H10.625V7.49967C10.625 8.19003 11.1846 8.74967 11.875 8.74967H12.2917C12.982 8.74967 13.5417 8.19003 13.5417 7.49967V4.58301ZM9.37499 4.58301H6.45832V7.49967C6.45832 8.19003 7.01797 8.74967 7.70832 8.74967H8.12499C8.81535 8.74967 9.37499 8.19003 9.37499 7.49967V4.58301ZM5.20832 4.58301H3.33332H2.70832C2.4782 4.58301 2.29166 4.76956 2.29166 4.99967V7.49967C2.29166 8.19003 2.8513 8.74967 3.54166 8.74967H3.95832C4.64868 8.74967 5.20832 8.19003 5.20832 7.49967V4.58301Z" fill="#18202A"/>
</svg>
