<svg width="20" height="20" viewBox="0 0 20 20" fill="none" xmlns="http://www.w3.org/2000/svg">
<path fill-rule="evenodd" clip-rule="evenodd" d="M1.07344 0.184174C0.827878 -0.0613912 0.429738 -0.0613912 0.184174 0.184174C-0.0613912 0.429738 -0.0613912 0.827878 0.184174 1.07344L1.40709 2.29636C1.04494 2.82966 0.833333 3.47345 0.833333 4.16667V11.6667C0.833333 13.2311 1.91102 14.5438 3.36449 14.9028C3.62143 14.9663 3.89012 15 4.16667 15H4.62121L4.13803 17.3109C3.98958 18.0208 4.75617 18.5684 5.37962 18.1977L10.7576 15H14.1107L16.4266 17.3158C16.6721 17.5614 17.0703 17.5614 17.3158 17.3158C17.5614 17.0703 17.5614 16.6721 17.3158 16.4266L1.07344 0.184174ZM12.8607 13.75L9.5274 10.4167H6.45833C6.11316 10.4167 5.83333 10.1368 5.83333 9.79167C5.83333 9.44649 6.11316 9.16667 6.45833 9.16667H8.2774L2.31728 3.20655C2.16781 3.49387 2.08333 3.8204 2.08333 4.16667V11.6667C2.08333 12.8173 3.01607 13.75 4.16667 13.75H4.62121C4.99761 13.75 5.35398 13.9196 5.59134 14.2117C5.8287 14.5039 5.92179 14.8874 5.84475 15.2558L5.55559 16.6388L10.1187 13.9256C10.312 13.8107 10.5327 13.75 10.7576 13.75H12.8607ZM16.343 13.6872C17.2472 13.4598 17.9167 12.6414 17.9167 11.6667V4.16667C17.9167 3.01607 16.9839 2.08333 15.8333 2.08333H4.73918L3.54672 0.890877C3.74759 0.853096 3.95482 0.833333 4.16667 0.833333H15.8333C17.6743 0.833333 19.1667 2.32572 19.1667 4.16667V11.6667C19.1667 12.9769 18.4107 14.1106 17.3112 14.6553L16.343 13.6872ZM8.48918 5.83333L9.73918 7.08333H13.5417C13.8868 7.08333 14.1667 6.80351 14.1667 6.45833C14.1667 6.11316 13.8868 5.83333 13.5417 5.83333H8.48918Z" fill="#18202A"/>
</svg>
