<svg width="20" height="20" viewBox="0 0 20 20" fill="none" xmlns="http://www.w3.org/2000/svg">
<path d="M2.7163 1.82829C2.46944 1.6056 2.08862 1.61315 1.85085 1.85092C1.60529 2.09649 1.60529 2.49463 1.85085 2.74019L3.82581 4.71515C3.17678 5.47253 2.67065 6.34544 2.33581 7.29165C2.22066 7.61705 2.39111 7.97419 2.71651 8.08934C3.04192 8.20449 3.39906 8.03405 3.51421 7.70864C3.78674 6.93848 4.1934 6.22571 4.71279 5.60213L14.3974 15.2868C13.5648 15.9784 12.5797 16.4643 11.5218 16.7037C10.3891 16.96 9.20996 16.9251 8.09435 16.6024C6.97874 16.2798 5.96305 15.6797 5.14206 14.8583C5.13745 14.8537 5.13276 14.8491 5.128 14.8447L2.41117 12.2917H5.00001C5.34519 12.2917 5.62501 12.0119 5.62501 11.6667C5.62501 11.3216 5.34519 11.0417 5.00001 11.0417H0.833344C0.488166 11.0417 0.208344 11.3216 0.208344 11.6667V15.8334C0.208344 16.1786 0.488166 16.4584 0.833344 16.4584C1.17852 16.4584 1.45834 16.1786 1.45834 15.8334V13.1117L4.26503 15.749C5.23404 16.7162 6.43177 17.4228 7.74702 17.8032C9.06547 18.1846 10.459 18.2257 11.7977 17.9229C13.0855 17.6315 14.2821 17.0308 15.2845 16.1738L17.2599 18.1492C17.5055 18.3948 17.9036 18.3948 18.1492 18.1492C18.3869 17.9115 18.3945 17.5306 18.1718 17.2838L2.7163 1.82829Z" fill="#18202A"/>
<path d="M16.9197 14.264C17.2212 13.7753 17.4712 13.2541 17.6642 12.7086C17.7794 12.3832 17.6089 12.0261 17.2835 11.9109C16.9581 11.7958 16.601 11.9662 16.4858 12.2916C16.3558 12.6589 16.1954 13.0132 16.0067 13.3509L16.9197 14.264Z" fill="#18202A"/>
<path d="M6.6511 3.99533C7.2215 3.67777 7.83645 3.44181 8.47818 3.29662C9.61089 3.04033 10.7901 3.07515 11.9057 3.39784C13.0213 3.72054 14.037 4.32058 14.858 5.14198C14.8626 5.1466 14.8673 5.15114 14.872 5.15562L17.5888 7.70841H15C14.6548 7.70841 14.375 7.98824 14.375 8.33341C14.375 8.67859 14.6548 8.95841 15 8.95841H19.1667C19.5119 8.95841 19.7917 8.67859 19.7917 8.33341V4.16675C19.7917 3.82157 19.5119 3.54175 19.1667 3.54175C18.8215 3.54175 18.5417 3.82157 18.5417 4.16675V6.88852L15.735 4.25123C14.766 3.28412 13.5682 2.5775 12.253 2.19707C10.9346 1.8157 9.54098 1.77455 8.20232 2.07744C7.32802 2.27526 6.49575 2.61563 5.73775 3.08198L6.6511 3.99533Z" fill="#18202A"/>
</svg>
