<svg width="20" height="20" viewBox="0 0 20 20" fill="none" xmlns="http://www.w3.org/2000/svg">
<g clip-path="url(#clip0_2266_36577)">
<path fill-rule="evenodd" clip-rule="evenodd" d="M1.05656 1.05671C1.38228 0.730985 1.94523 0.765823 2.31393 1.13453L17.199 16.0196C17.5677 16.3883 17.6025 16.9512 17.2768 17.2769C16.9511 17.6027 16.3881 17.5678 16.0194 17.1991L1.13437 2.31409C0.765668 1.94538 0.730829 1.38244 1.05656 1.05671Z" fill="#18202A"/>
<path d="M17.0926 13.561C18.3142 11.4328 19.1667 8.47765 19.1667 4.28571C19.1671 3.84365 18.8683 3.45286 18.4303 3.32085L10.3128 0.879216L10.1892 0.849955C10.0226 0.820694 9.85052 0.830448 9.68758 0.879216L5.63098 2.09939L6.96879 3.4372L10.0008 2.52516L17.495 4.78016L17.4888 5.0922C17.4037 8.10616 16.8368 10.4757 15.8664 12.3348L17.0926 13.561Z" fill="#18202A"/>
<path d="M16.1448 14.9703L14.9563 13.7817C14.8622 13.9069 14.7657 14.0291 14.6668 14.1484L14.5021 14.3432C13.3483 15.6783 12.1655 16.4368 10.064 17.4122L10 17.441L9.64053 17.2737C7.62503 16.317 6.48614 15.54 5.33316 14.1483L5.17082 13.947C3.56916 11.9075 2.62321 9.05768 2.51123 5.0935L2.50417 4.78016L5.15681 3.98225L3.81898 2.64442L1.57014 3.32085L1.46363 3.35903C1.08443 3.51795 0.833334 3.88012 0.833334 4.28571C0.833334 14.5945 5.98911 17.4234 9.10998 18.8677L9.55133 19.0699C9.69342 19.1345 9.84683 19.1668 10.0003 19.1668C10.1536 19.1668 10.3066 19.1345 10.4483 19.0699C12.0273 18.3507 14.3109 17.3102 16.1448 14.9703Z" fill="#18202A"/>
<path d="M6.48156 5.30699L4.16667 6.0035L4.17925 6.19023C4.40833 9.19167 5.19683 11.3459 6.41207 12.9012L6.55993 13.085C7.37311 14.0666 8.19132 14.6924 9.51459 15.38L9.94333 15.596L10.0987 15.5193C11.503 14.8161 12.3603 14.2039 13.182 13.256L13.3267 13.0852C13.4666 12.9163 13.6013 12.7399 13.7305 12.5559L6.48156 5.30699Z" fill="#18202A"/>
<path d="M14.5822 11.0506C15.1707 9.74471 15.558 8.14709 15.7074 6.1884L15.7192 6.00266L9.94417 4.26516L8.29342 4.76184L14.5822 11.0506Z" fill="#18202A"/>
</g>
<defs>
<clipPath id="clip0_2266_36577">
<rect width="20" height="20" fill="white"/>
</clipPath>
</defs>
</svg>
