<svg width="20" height="20" viewBox="0 0 20 20" fill="none" xmlns="http://www.w3.org/2000/svg">
<g clip-path="url(#clip0_3394_8874)">
<path d="M15.4166 5.41683C15.4166 5.87707 15.0436 6.25016 14.5833 6.25016C14.1231 6.25016 13.75 5.87707 13.75 5.41683C13.75 4.95659 14.1231 4.5835 14.5833 4.5835C15.0436 4.5835 15.4166 4.95659 15.4166 5.41683Z" fill="#18202A"/>
<path fill-rule="evenodd" clip-rule="evenodd" d="M13.9136 0.833496C13.6365 0.833496 13.3976 1.02845 13.3421 1.29993L13.2143 1.92457C12.8619 2.06284 12.5355 2.25293 12.2444 2.48545L11.6386 2.28345C11.3757 2.1958 11.0875 2.30519 10.9489 2.54517L10.2792 3.70519C10.1406 3.94518 10.19 4.24951 10.3974 4.43335L10.8749 4.85672C10.8475 5.03945 10.8333 5.22648 10.8333 5.41683C10.8333 5.60719 10.8475 5.79423 10.8749 5.97697L10.3974 6.40033C10.19 6.58417 10.1406 6.8885 10.2792 7.12848L10.9489 8.28851C11.0875 8.52849 11.3757 8.63788 11.6386 8.55022L12.2444 8.34823C12.5355 8.58074 12.8619 8.77082 13.2143 8.90909L13.3421 9.53373C13.3976 9.80521 13.6365 10.0002 13.9136 10.0002H15.2531C15.5302 10.0002 15.7691 9.80521 15.8246 9.53373L15.9524 8.90909C16.3048 8.77082 16.6312 8.58075 16.9222 8.34825L17.528 8.55024C17.7909 8.6379 18.0792 8.52851 18.2177 8.28853L18.8875 7.1285C19.026 6.88852 18.9766 6.58419 18.7693 6.40035L18.2918 5.97701C18.3192 5.79426 18.3333 5.6072 18.3333 5.41683C18.3333 5.22647 18.3192 5.03942 18.2918 4.85668L18.7693 4.43333C18.9766 4.24949 19.026 3.94516 18.8875 3.70517L18.2178 2.54515C18.0792 2.30517 17.7909 2.19578 17.5281 2.28343L16.9222 2.48543C16.6312 2.25292 16.3048 2.06284 15.9524 1.92457L15.8246 1.29993C15.7691 1.02845 15.5302 0.833496 15.2531 0.833496H13.9136ZM16.6666 5.41683C16.6666 6.56742 15.7339 7.50016 14.5833 7.50016C13.4327 7.50016 12.5 6.56742 12.5 5.41683C12.5 4.26624 13.4327 3.3335 14.5833 3.3335C15.7339 3.3335 16.6666 4.26624 16.6666 5.41683Z" fill="#18202A"/>
<path d="M6.66665 14.5835C7.357 14.5835 7.91665 14.0239 7.91665 13.3335C7.91665 12.6431 7.357 12.0835 6.66665 12.0835C5.97629 12.0835 5.41665 12.6431 5.41665 13.3335C5.41665 14.0239 5.97629 14.5835 6.66665 14.5835Z" fill="#18202A"/>
<path fill-rule="evenodd" clip-rule="evenodd" d="M5.08512 7.55518C5.13854 7.28122 5.37855 7.0835 5.65767 7.0835H7.67569C7.95481 7.0835 8.19482 7.28122 8.24824 7.55518L8.46498 8.66663C8.95443 8.85536 9.40671 9.11886 9.80784 9.44314L10.8801 9.07467C11.144 8.98395 11.4353 9.09294 11.5748 9.33467L12.5838 11.0823C12.7234 11.3241 12.6722 11.6308 12.4616 11.814L11.6069 12.5579C11.6463 12.8107 11.6667 13.0697 11.6667 13.3335C11.6667 13.5973 11.6462 13.8564 11.6069 14.1092L12.4616 14.8531C12.6721 15.0363 12.7233 15.343 12.5838 15.5848L11.5748 17.3324C11.4352 17.5742 11.144 17.6831 10.88 17.5924L9.80773 17.2239C9.40663 17.5482 8.95438 17.8117 8.46498 18.0004L8.24824 19.1118C8.19482 19.3858 7.95481 19.5835 7.6757 19.5835H5.65767C5.37855 19.5835 5.13854 19.3858 5.08512 19.1118L4.86839 18.0004C4.37894 17.8116 3.92665 17.5481 3.52552 17.2238L2.45329 17.5923C2.18932 17.683 1.89808 17.5741 1.75852 17.3323L0.749508 15.5847C0.609948 15.3429 0.661181 15.0362 0.871725 14.853L1.72647 14.1091C1.68711 13.8563 1.66668 13.5973 1.66668 13.3335C1.66668 13.0698 1.6871 12.8108 1.72645 12.5581L0.87166 11.8141C0.661115 11.6309 0.609883 11.3242 0.749442 11.0824L1.75846 9.33477C1.89802 9.09305 2.18926 8.98406 2.45322 9.07477L3.52541 9.44324C3.92656 9.11891 4.37889 8.85538 4.86839 8.66663L5.08512 7.55518ZM6.66665 16.2502C8.27748 16.2502 9.58331 14.9443 9.58331 13.3335C9.58331 11.7227 8.27748 10.4168 6.66665 10.4168C5.05582 10.4168 3.74998 11.7227 3.74998 13.3335C3.74998 14.9443 5.05582 16.2502 6.66665 16.2502Z" fill="#18202A"/>
</g>
<defs>
<clipPath id="clip0_3394_8874">
<rect width="20" height="20" fill="white"/>
</clipPath>
</defs>
</svg>
