<svg width="20" height="20" viewBox="0 0 20 20" fill="none" xmlns="http://www.w3.org/2000/svg">
<g clip-path="url(#clip0_2266_34805)">
<path fill-rule="evenodd" clip-rule="evenodd" d="M5.83337 0.833313C5.37314 0.833313 5.00004 1.20641 5.00004 1.66665V2.49998H4.16671C2.32576 2.49998 0.833374 3.99236 0.833374 5.83331V15.8333C0.833374 17.6743 2.32576 19.1666 4.16671 19.1666H11.0456C10.3866 18.2218 10 17.0727 10 15.8333C10 14.52 10.434 13.3081 11.1664 12.3331C10.9642 12.1811 10.8334 11.9391 10.8334 11.6666C10.8334 11.2064 11.2065 10.8333 11.6667 10.8333C11.9392 10.8333 12.1812 10.9641 12.3332 11.1663C13.3082 10.434 14.5201 9.99998 15.8334 9.99998C17.0727 9.99998 18.2218 10.3865 19.1667 11.0456V5.83331C19.1667 3.99236 17.6743 2.49998 15.8334 2.49998H15V1.66665C15 1.20641 14.6269 0.833313 14.1667 0.833313C13.7065 0.833313 13.3334 1.20641 13.3334 1.66665V2.49998H6.66671V1.66665C6.66671 1.20641 6.29361 0.833313 5.83337 0.833313ZM4.16671 8.33331C4.16671 7.87308 4.5398 7.49998 5.00004 7.49998H15C15.4603 7.49998 15.8334 7.87308 15.8334 8.33331C15.8334 8.79355 15.4603 9.16665 15 9.16665H5.00004C4.5398 9.16665 4.16671 8.79355 4.16671 8.33331ZM4.16671 11.6666C4.16671 11.2064 4.5398 10.8333 5.00004 10.8333C5.46028 10.8333 5.83337 11.2064 5.83337 11.6666C5.83337 12.1269 5.46028 12.5 5.00004 12.5C4.5398 12.5 4.16671 12.1269 4.16671 11.6666ZM5.00004 14.1666C4.5398 14.1666 4.16671 14.5397 4.16671 15C4.16671 15.4602 4.5398 15.8333 5.00004 15.8333C5.46028 15.8333 5.83337 15.4602 5.83337 15C5.83337 14.5397 5.46028 14.1666 5.00004 14.1666ZM7.50004 11.6666C7.50004 11.2064 7.87314 10.8333 8.33337 10.8333C8.79361 10.8333 9.16671 11.2064 9.16671 11.6666C9.16671 12.1269 8.79361 12.5 8.33337 12.5C7.87314 12.5 7.50004 12.1269 7.50004 11.6666ZM8.33337 14.1666C7.87314 14.1666 7.50004 14.5397 7.50004 15C7.50004 15.4602 7.87314 15.8333 8.33337 15.8333C8.79361 15.8333 9.16671 15.4602 9.16671 15C9.16671 14.5397 8.79361 14.1666 8.33337 14.1666ZM20 15.8333C20 18.1345 18.1346 20 15.8334 20C13.5322 20 11.6667 18.1345 11.6667 15.8333C11.6667 13.5321 13.5322 11.6666 15.8334 11.6666C18.1346 11.6666 20 13.5321 20 15.8333ZM15.8334 13.3333C15.3731 13.3333 15 13.7064 15 14.1666V15H14.1667C13.7065 15 13.3334 15.3731 13.3334 15.8333C13.3334 16.2936 13.7065 16.6666 14.1667 16.6666H15V17.5C15 17.9602 15.3731 18.3333 15.8334 18.3333C16.2936 18.3333 16.6667 17.9602 16.6667 17.5V16.6666H17.5C17.9603 16.6666 18.3334 16.2936 18.3334 15.8333C18.3334 15.3731 17.9603 15 17.5 15H16.6667V14.1666C16.6667 13.7064 16.2936 13.3333 15.8334 13.3333Z" fill="#18202A"/>
</g>
<defs>
<clipPath id="clip0_2266_34805">
<rect width="20" height="20" fill="white"/>
</clipPath>
</defs>
</svg>
