<svg width="20" height="20" viewBox="0 0 20 20" fill="none" xmlns="http://www.w3.org/2000/svg">
<path d="M12.3428 3.29202L7.5 8.13481V4.1665C7.5 2.78579 8.61929 1.6665 10 1.6665C11.0731 1.6665 11.9882 2.34258 12.3428 3.29202Z" fill="#18202A"/>
<path d="M16.0194 1.96753C16.3881 1.59883 16.9511 1.56399 17.2768 1.88972C17.6025 2.21545 17.5677 2.77839 17.199 3.14709L12.5 7.84607V9.1665C12.5 10.5472 11.3807 11.6665 10 11.6665C9.61433 11.6665 9.24905 11.5792 8.92286 11.4232L7.70282 12.6432C8.36139 13.0793 9.15106 13.3332 10 13.3332C12.0177 13.3332 13.7004 11.899 14.0844 9.99452C14.1754 9.54336 14.5398 9.1665 15 9.1665C15.4603 9.1665 15.8396 9.54174 15.7746 9.99736C15.4102 12.5533 13.3889 14.5752 10.8333 14.9408V16.6665H12.9167C13.3769 16.6665 13.75 17.0396 13.75 17.4998C13.75 17.9601 13.3769 18.3332 12.9167 18.3332H7.08333C6.6231 18.3332 6.25 17.9601 6.25 17.4998C6.25 17.0396 6.6231 16.6665 7.08333 16.6665H9.16667V14.9408C8.17867 14.7994 7.27054 14.4105 6.50714 13.8389L3.98059 16.3655C3.61189 16.7342 3.04894 16.769 2.72322 16.4433C2.39749 16.1176 2.43233 15.5546 2.80103 15.1859L16.0194 1.96753Z" fill="#18202A"/>
<path d="M4.50524 11.1296L5.85117 9.78364C5.70484 9.43177 5.38616 9.1665 5.00003 9.1665C4.53979 9.1665 4.16044 9.54174 4.22541 9.99736C4.28121 10.3886 4.37582 10.7674 4.50524 11.1296Z" fill="#18202A"/>
</svg>
