<svg width="20" height="20" viewBox="0 0 20 20" fill="none" xmlns="http://www.w3.org/2000/svg">
<g clip-path="url(#clip0_2266_37147)">
<path fill-rule="evenodd" clip-rule="evenodd" d="M10 19.1667C15.0626 19.1667 19.1667 15.0626 19.1667 10C19.1667 4.9374 15.0626 0.833344 10 0.833344C4.93739 0.833344 0.833334 4.9374 0.833334 10C0.833334 15.0626 4.93739 19.1667 10 19.1667ZM11.4226 6.07742C11.0972 5.75198 10.5695 5.75198 10.2441 6.07742C9.91864 6.40286 9.91864 6.9305 10.2441 7.25593L12.1548 9.16668H5.83333C5.3731 9.16668 5 9.53977 5 10C5 10.4602 5.3731 10.8333 5.83333 10.8333H12.1548L10.2441 12.7441C9.91864 13.0695 9.91864 13.5972 10.2441 13.9226C10.5695 14.248 11.0972 14.248 11.4226 13.9226L14.7559 10.5893C15.0814 10.2638 15.0814 9.73619 14.7559 9.41075L11.4226 6.07742Z" fill="#18202A"/>
</g>
<defs>
<clipPath id="clip0_2266_37147">
<rect width="20" height="20" fill="white"/>
</clipPath>
</defs>
</svg>
