<svg width="20" height="20" viewBox="0 0 20 20" fill="none" xmlns="http://www.w3.org/2000/svg">
<path d="M15 2.29175C15 2.63693 14.7202 2.91675 14.375 2.91675H5.00002C3.84943 2.91675 2.91669 3.84949 2.91669 5.00008V15.0001C2.91669 16.1507 3.84943 17.0834 5.00002 17.0834H15C16.1506 17.0834 17.0834 16.1507 17.0834 15.0001V9.79175C17.0834 9.44657 17.3632 9.16675 17.7084 9.16675C18.0535 9.16675 18.3334 9.44657 18.3334 9.79175V15.0001C18.3334 16.841 16.841 18.3334 15 18.3334H5.00002C3.15907 18.3334 1.66669 16.841 1.66669 15.0001V5.00008C1.66669 3.15913 3.15907 1.66675 5.00002 1.66675H14.375C14.7202 1.66675 15 1.94657 15 2.29175Z" fill="#18202A"/>
<path d="M18.3586 5.02536C18.6027 4.78128 18.6027 4.38555 18.3586 4.14147C18.1146 3.8974 17.7188 3.8974 17.4747 4.14147L9.58335 12.0329L6.69196 9.14147C6.44788 8.8974 6.05216 8.8974 5.80808 9.14147C5.564 9.38555 5.564 9.78128 5.80808 10.0254L9.14141 13.3587C9.38549 13.6028 9.78122 13.6028 10.0253 13.3587L18.3586 5.02536Z" fill="#18202A"/>
</svg>
