<svg width="20" height="20" viewBox="0 0 20 20" fill="none" xmlns="http://www.w3.org/2000/svg">
<g clip-path="url(#clip0_2266_37189)">
<path fill-rule="evenodd" clip-rule="evenodd" d="M19.1667 9.99998C19.1667 4.93737 15.0626 0.833313 10 0.833313C4.93739 0.833313 0.833334 4.93737 0.833334 9.99998C0.833334 15.0626 4.93739 19.1666 10 19.1666C15.0626 19.1666 19.1667 15.0626 19.1667 9.99998ZM6.07741 8.57739C5.75198 8.90283 5.75198 9.43047 6.07741 9.7559C6.40285 10.0813 6.93049 10.0813 7.25592 9.7559L9.16667 7.84516V14.1666C9.16667 14.6269 9.53976 15 10 15C10.4602 15 10.8333 14.6269 10.8333 14.1666V7.84516L12.7441 9.7559C13.0695 10.0813 13.5972 10.0813 13.9226 9.7559C14.248 9.43047 14.248 8.90283 13.9226 8.57739L10.5893 5.24406C10.2638 4.91862 9.73618 4.91862 9.41075 5.24406L6.07741 8.57739Z" fill="#18202A"/>
</g>
<defs>
<clipPath id="clip0_2266_37189">
<rect width="20" height="20" fill="white"/>
</clipPath>
</defs>
</svg>
