<svg width="20" height="20" viewBox="0 0 20 20" fill="none" xmlns="http://www.w3.org/2000/svg">
<path fill-rule="evenodd" clip-rule="evenodd" d="M17.0118 7.01152C17.2591 7.25881 17.4207 7.57582 17.4774 7.91634H17.5V9.16634H16.7607C16.589 9.1864 16.4184 9.21769 16.25 9.2602V9.16634H9.16667V2.08301H5.83333C4.68274 2.08301 3.75 3.01575 3.75 4.16634V15.833C3.75 16.9836 4.68274 17.9163 5.83333 17.9163H9.20052C9.2773 18.3499 9.42664 18.773 9.64856 19.1663H5.83333C3.99238 19.1663 2.5 17.674 2.5 15.833V4.16634C2.5 2.32539 3.99238 0.833008 5.83333 0.833008H10.4167V0.855626C10.7572 0.912314 11.0742 1.07387 11.3215 1.32116L17.0118 7.01152ZM10.4167 2.1855V7.91634H16.1475C16.1413 7.90916 16.1347 7.90218 16.128 7.8954L10.4376 2.20505C10.4308 2.19827 10.4238 2.19175 10.4167 2.1855ZM19.1378 11.1827C18.0801 10.1251 16.3653 10.1251 15.3076 11.1827L14.1291 12.3612C13.885 12.6053 13.885 13.0011 14.1291 13.2451C14.3732 13.4892 14.7689 13.4892 15.013 13.2451L16.1915 12.0666C16.761 11.4971 17.6844 11.4971 18.2539 12.0666C18.8234 12.6361 18.8234 13.5595 18.2539 14.129L17.0754 15.3075C16.8313 15.5516 16.8313 15.9473 17.0754 16.1914C17.3195 16.4355 17.7152 16.4355 17.9593 16.1914L19.1378 15.0129C20.1955 13.9552 20.1955 12.2404 19.1378 11.1827ZM11.1828 19.1377C10.1252 18.08 10.1252 16.3652 11.1828 15.3075L12.3614 14.129C12.6054 13.8849 13.0012 13.8849 13.2452 14.129C13.4893 14.3731 13.4893 14.7688 13.2452 15.0129L12.0667 16.1914C11.4972 16.7609 11.4972 17.6843 12.0667 18.2538C12.6362 18.8233 13.5596 18.8233 14.1291 18.2538L15.3076 17.0753C15.5517 16.8312 15.9474 16.8312 16.1915 17.0753C16.4356 17.3194 16.4356 17.7151 16.1915 17.9592L15.013 19.1377C13.9553 20.1954 12.2405 20.1954 11.1828 19.1377ZM16.6335 14.571L14.5711 16.6334C14.327 16.8774 13.9313 16.8774 13.6872 16.6334C13.4431 16.3893 13.4431 15.9935 13.6872 15.7495L15.7496 13.6871C15.9937 13.443 16.3894 13.443 16.6335 13.6871C16.8775 13.9312 16.8775 14.3269 16.6335 14.571Z" fill="#18202A"/>
</svg>
