<svg width="20" height="20" viewBox="0 0 20 20" fill="none" xmlns="http://www.w3.org/2000/svg">
<path d="M13.7644 7.04725C14.0143 7.2853 14.024 7.68092 13.7859 7.93087L9.02403 12.9309C8.90214 13.0589 8.73176 13.1293 8.55508 13.1246C8.3784 13.12 8.21194 13.0408 8.09691 12.9066L6.19215 10.6844C5.96751 10.4223 5.99786 10.0277 6.25994 9.80308C6.52202 9.57844 6.91658 9.60879 7.14122 9.87087L8.59586 11.568L12.8808 7.0688C13.1188 6.81885 13.5144 6.8092 13.7644 7.04725Z" fill="#18202A"/>
<path fill-rule="evenodd" clip-rule="evenodd" d="M3.33335 1.6665C2.41288 1.6665 1.66669 2.4127 1.66669 3.33317V16.6665C1.66669 17.587 2.41288 18.3332 3.33335 18.3332H16.6667C17.5872 18.3332 18.3334 17.587 18.3334 16.6665V3.33317C18.3334 2.4127 17.5872 1.6665 16.6667 1.6665H3.33335ZM17.0834 3.33317C17.0834 3.10305 16.8968 2.9165 16.6667 2.9165H3.33335C3.10324 2.9165 2.91669 3.10305 2.91669 3.33317V16.6665C2.91669 16.8966 3.10324 17.0832 3.33335 17.0832H16.6667C16.8968 17.0832 17.0834 16.8966 17.0834 16.6665V3.33317Z" fill="#18202A"/>
</svg>
