<svg width="20" height="20" viewBox="0 0 20 20" fill="none" xmlns="http://www.w3.org/2000/svg">
<path fill-rule="evenodd" clip-rule="evenodd" d="M4.75596 3.08934L2.25596 5.58934C1.93053 5.91477 1.40289 5.91477 1.07745 5.58934C0.752015 5.2639 0.752015 4.73626 1.07745 4.41083L3.57745 1.91083C3.90289 1.58539 4.43053 1.58539 4.75596 1.91083C5.0814 2.23626 5.0814 2.7639 4.75596 3.08934ZM10 19.1667C14.6024 19.1667 18.3334 15.4358 18.3334 10.8334C18.3334 6.23104 14.6024 2.50008 10 2.50008C5.39767 2.50008 1.66671 6.23104 1.66671 10.8334C1.66671 15.4358 5.39767 19.1667 10 19.1667ZM10.8334 5.83341C10.8334 5.37318 10.4603 5.00008 10 5.00008C9.5398 5.00008 9.16671 5.37318 9.16671 5.83341V10.8334C9.16671 11.1668 9.36537 11.4681 9.67177 11.5994L12.5884 12.8494C13.0115 13.0307 13.5014 12.8347 13.6827 12.4117C13.864 11.9887 13.668 11.4988 13.245 11.3175L10.8334 10.2839V5.83341ZM15.2441 3.08934C14.9187 2.7639 14.9187 2.23626 15.2441 1.91083C15.5696 1.58539 16.0972 1.58539 16.4226 1.91083L18.9226 4.41083C19.2481 4.73626 19.2481 5.2639 18.9226 5.58934C18.5972 5.91477 18.0696 5.91477 17.7441 5.58934L15.2441 3.08934Z" fill="#18202A"/>
</svg>
