<svg width="20" height="20" viewBox="0 0 20 20" fill="none" xmlns="http://www.w3.org/2000/svg">
<path fill-rule="evenodd" clip-rule="evenodd" d="M16.25 15.833V8.19003C16.25 8.07952 16.2061 7.97354 16.128 7.8954L10.4376 2.20505C10.3595 2.12691 10.2535 2.08301 10.143 2.08301H5.83333C4.68274 2.08301 3.75 3.01575 3.75 4.16634V15.833C3.75 16.9836 4.68274 17.9163 5.83333 17.9163H14.1667C15.3173 17.9163 16.25 16.9836 16.25 15.833ZM5.83333 0.833008C3.99238 0.833008 2.5 2.32539 2.5 4.16634V15.833C2.5 17.674 3.99238 19.1663 5.83333 19.1663H14.1667C16.0076 19.1663 17.5 17.674 17.5 15.833V8.19003C17.5 7.748 17.3244 7.32408 17.0118 7.01152L11.3215 1.32116C11.0089 1.0086 10.585 0.833008 10.143 0.833008H5.83333Z" fill="#18202A"/>
<path d="M9.16667 0.833008H10.4167V9.16634H9.16667V0.833008Z" fill="#18202A"/>
<path d="M9.16667 7.91634H17.5V9.16634H9.16667V7.91634Z" fill="#18202A"/>
</svg>
