<svg width="20" height="20" viewBox="0 0 20 20" fill="none" xmlns="http://www.w3.org/2000/svg">
<path fill-rule="evenodd" clip-rule="evenodd" d="M4.16667 3.33301C4.6269 3.33301 5 3.7061 5 4.16634V6.66634C5 8.96753 6.86548 10.833 9.16667 10.833H14.6548L11.9107 8.08893C11.5853 7.76349 11.5853 7.23586 11.9107 6.91042C12.2362 6.58498 12.7638 6.58498 13.0893 6.91042L17.2559 11.0771C17.5814 11.4025 17.5814 11.9302 17.2559 12.2556L13.0893 16.4223C12.7638 16.7477 12.2362 16.7477 11.9107 16.4223C11.5853 16.0968 11.5853 15.5692 11.9107 15.2438L14.6548 12.4997H9.16667C5.94501 12.4997 3.33333 9.888 3.33333 6.66634V4.16634C3.33333 3.7061 3.70643 3.33301 4.16667 3.33301Z" fill="#18202A"/>
</svg>
