<svg width="20" height="20" viewBox="0 0 20 20" fill="none" xmlns="http://www.w3.org/2000/svg">
<path fill-rule="evenodd" clip-rule="evenodd" d="M7.59973 7.08325H12.4002L9.99998 4.71756L7.59973 7.08325ZM7.59973 12.9166L9.99998 15.2823L12.4002 12.9166H7.59973ZM6.74334 8.33325C5.93421 8.33325 5.529 7.36907 6.10114 6.80517L9.35778 3.59543C9.71246 3.24586 10.2875 3.24586 10.6422 3.59543L13.8988 6.80517C14.471 7.36907 14.0657 8.33325 13.2566 8.33325H6.74334ZM6.74334 11.6666C5.93421 11.6666 5.529 12.6308 6.10114 13.1947L9.35778 16.4044C9.71246 16.754 10.2875 16.754 10.6422 16.4044L13.8988 13.1947C14.471 12.6308 14.0657 11.6666 13.2566 11.6666H6.74334Z" fill="#18202A"/>
</svg>
