<svg width="20" height="20" viewBox="0 0 20 20" fill="none" xmlns="http://www.w3.org/2000/svg">
<g clip-path="url(#clip0_2266_40324)">
<path d="M3.41176 3.07493L9.84928 1.35C11.4047 0.933215 13.0036 1.8563 13.4204 3.41176L13.802 4.83609L15.1268 4.95199L14.6274 3.08834C14.032 0.866246 11.7479 -0.452441 9.52586 0.142966L3.08834 1.86789C0.866246 2.4633 -0.452441 4.74733 0.142966 6.96942L1.86789 13.4069C2.24402 14.8107 3.29404 15.8539 4.57661 16.2818C4.46398 15.8395 4.42269 15.371 4.46473 14.8905L4.46629 14.8727C3.80431 14.5017 3.28684 13.8744 3.07493 13.0835L1.35 6.646C0.933216 5.09054 1.8563 3.49171 3.41176 3.07493Z" fill="#18202A"/>
<path fill-rule="evenodd" clip-rule="evenodd" d="M16.0885 6.29045L9.44924 5.70959C7.84504 5.56924 6.4308 6.75593 6.29045 8.36013L5.70959 14.9994C5.56924 16.6036 6.75593 18.0178 8.36013 18.1582L14.9994 18.739C16.6036 18.8794 18.0178 17.6927 18.1582 16.0885L18.739 9.44924C18.8794 7.84504 17.6927 6.4308 16.0885 6.29045ZM9.55816 4.46473C7.26643 4.26423 5.24609 5.9595 5.04559 8.25122L4.46473 14.8905C4.26423 17.1823 5.9595 19.2025 8.25122 19.403L14.8905 19.9839C17.1822 20.1844 19.2025 18.4891 19.403 16.1974L19.9839 9.55816C20.1844 7.26643 18.4891 5.24609 16.1974 5.04559L9.55816 4.46473Z" fill="#18202A"/>
<path fill-rule="evenodd" clip-rule="evenodd" d="M9.50116 9.89558C9.95951 9.93568 10.3636 9.59663 10.4037 9.13828C10.4438 8.67994 10.1047 8.27587 9.64637 8.23577C9.18803 8.19567 8.78396 8.53473 8.74386 8.99307C8.70376 9.45141 9.04282 9.85548 9.50116 9.89558ZM11.6485 9.2472C11.5483 10.3931 10.5381 11.2407 9.39225 11.1404C8.24639 11.0402 7.39875 10.03 7.499 8.88416C7.59925 7.7383 8.60942 6.89066 9.75529 6.99091C10.9011 7.09116 11.7488 8.10133 11.6485 9.2472Z" fill="#18202A"/>
<path fill-rule="evenodd" clip-rule="evenodd" d="M15.1995 10.7913L19.0775 15.4485L18.1172 16.2481L14.9853 12.4869L10.9404 15.4058L8.96641 13.8404L5.58972 16.2983L4.85433 15.288L8.99878 12.2713L10.976 13.8391L15.1995 10.7913Z" fill="#18202A"/>
</g>
<defs>
<clipPath id="clip0_2266_40324">
<rect width="20" height="20" fill="white"/>
</clipPath>
</defs>
</svg>
