<svg width="20" height="20" viewBox="0 0 20 20" fill="none" xmlns="http://www.w3.org/2000/svg">
<path d="M12.5 6.24967C12.5 8.33301 11.6667 9.99967 10 9.99967C8.33333 9.99967 7.5 8.33301 7.5 6.24967C7.5 4.58301 8.33333 3.33301 10 3.33301C11.6667 3.33301 12.5 4.58301 12.5 6.24967Z" fill="#18202A"/>
<path d="M14.632 16.3718C14.1887 17.3412 13.2786 18.0125 12.2242 18.1692C11.4984 18.2771 10.7557 18.333 9.99999 18.333C9.24424 18.333 8.50154 18.2771 7.77581 18.1692C6.72143 18.0125 5.81127 17.3412 5.36797 16.3718C5.21154 16.0297 5.06916 15.6799 4.94155 15.323C4.50523 14.1028 4.87041 12.7105 5.96186 12.0118C7.12752 11.2656 8.51324 10.833 9.99999 10.833C11.4867 10.833 12.8725 11.2656 14.0381 12.0118C15.1296 12.7105 15.4948 14.1028 15.0584 15.323C14.9308 15.6799 14.7884 16.0297 14.632 16.3718Z" fill="#18202A"/>
<path d="M4.16667 9.99967C5.27778 9.99967 5.83333 8.95801 5.83333 7.65592C5.83333 6.61426 5.27778 5.83301 4.16667 5.83301C3.05556 5.83301 2.5 6.61426 2.5 7.65592C2.5 8.95801 3.05556 9.99967 4.16667 9.99967Z" fill="#18202A"/>
<path d="M17.5 7.65592C17.5 8.95801 16.9444 9.99967 15.8333 9.99967C14.7222 9.99967 14.1667 8.95801 14.1667 7.65592C14.1667 6.61426 14.7222 5.83301 15.8333 5.83301C16.9444 5.83301 17.5 6.61426 17.5 7.65592Z" fill="#18202A"/>
<path d="M3.3722 15.8843C2.88263 14.5152 3.03832 12.9089 3.91536 11.6912C3.11981 11.7594 2.36417 11.9674 1.67308 12.2904C0.700533 12.745 0.308096 13.8931 0.636435 14.9152C0.923709 15.8094 1.70382 16.4377 2.63602 16.5527C2.97647 16.5948 3.32045 16.6254 3.66758 16.6442C3.56249 16.3943 3.46396 16.141 3.3722 15.8843Z" fill="#18202A"/>
<path d="M16.3368 16.6337C16.4403 16.3872 16.5373 16.1374 16.6278 15.8844C17.1149 14.522 16.9632 12.9249 16.0977 11.7095C16.9354 11.8046 17.7259 12.055 18.4399 12.4312C19.3322 12.9013 19.6768 13.9801 19.3664 14.9398C19.0923 15.7872 18.3596 16.3888 17.4779 16.5149C17.1019 16.5686 16.7213 16.6084 16.3368 16.6337Z" fill="#18202A"/>
</svg>
