<svg width="20" height="20" viewBox="0 0 20 20" fill="none" xmlns="http://www.w3.org/2000/svg">
<g clip-path="url(#clip0_3517_8846)">
<g clip-path="url(#clip1_3517_8846)">
<path d="M3.33335 4.16634C3.33335 4.62658 2.96026 4.99967 2.50002 4.99967C2.03978 4.99967 1.66669 4.62658 1.66669 4.16634C1.66669 3.7061 2.03978 3.33301 2.50002 3.33301C2.96026 3.33301 3.33335 3.7061 3.33335 4.16634Z" fill="#18202A"/>
<path d="M5.83335 4.16634C5.83335 3.82116 6.11318 3.54134 6.45835 3.54134H17.7084C18.0535 3.54134 18.3334 3.82116 18.3334 4.16634C18.3334 4.51152 18.0535 4.79134 17.7084 4.79134H6.45835C6.11318 4.79134 5.83335 4.51152 5.83335 4.16634Z" fill="#18202A"/>
<path d="M6.45835 9.37467C6.11318 9.37467 5.83335 9.6545 5.83335 9.99967C5.83335 10.3449 6.11318 10.6247 6.45835 10.6247H14.3405C14.8147 10.489 15.3155 10.4163 15.8334 10.4163C16.3512 10.4163 16.852 10.489 17.3262 10.6247H17.7084C18.0535 10.6247 18.3334 10.3449 18.3334 9.99967C18.3334 9.6545 18.0535 9.37467 17.7084 9.37467H6.45835Z" fill="#18202A"/>
<path d="M10.4167 15.833C10.4167 15.6216 10.4288 15.4131 10.4524 15.208H6.45835C6.11318 15.208 5.83335 15.4878 5.83335 15.833C5.83335 16.1782 6.11318 16.458 6.45835 16.458H10.4524C10.4288 16.2529 10.4167 16.0444 10.4167 15.833Z" fill="#18202A"/>
<path d="M3.33335 9.99967C3.33335 10.4599 2.96026 10.833 2.50002 10.833C2.03978 10.833 1.66669 10.4599 1.66669 9.99967C1.66669 9.53944 2.03978 9.16634 2.50002 9.16634C2.96026 9.16634 3.33335 9.53944 3.33335 9.99967Z" fill="#18202A"/>
<path d="M3.33335 15.833C3.33335 16.2932 2.96026 16.6663 2.50002 16.6663C2.03978 16.6663 1.66669 16.2932 1.66669 15.833C1.66669 15.3728 2.03978 14.9997 2.50002 14.9997C2.96026 14.9997 3.33335 15.3728 3.33335 15.833Z" fill="#18202A"/>
<path fill-rule="evenodd" clip-rule="evenodd" d="M15.8334 19.9997C18.1345 19.9997 20 18.1342 20 15.833C20 13.5318 18.1345 11.6663 15.8334 11.6663C13.5322 11.6663 11.6667 13.5318 11.6667 15.833C11.6667 18.1342 13.5322 19.9997 15.8334 19.9997ZM16.4584 13.958C16.4584 13.6128 16.1785 13.333 15.8334 13.333C15.4882 13.333 15.2084 13.6128 15.2084 13.958V15.208H13.9584C13.6132 15.208 13.3334 15.4878 13.3334 15.833C13.3334 16.1782 13.6132 16.458 13.9584 16.458H15.2084V17.708C15.2084 18.0532 15.4882 18.333 15.8334 18.333C16.1785 18.333 16.4584 18.0532 16.4584 17.708V16.458H17.7084C18.0535 16.458 18.3334 16.1782 18.3334 15.833C18.3334 15.4878 18.0535 15.208 17.7084 15.208H16.4584V13.958Z" fill="#18202A"/>
</g>
</g>
<defs>
<clipPath id="clip0_3517_8846">
<rect width="20" height="20" fill="white"/>
</clipPath>
<clipPath id="clip1_3517_8846">
<rect width="20" height="20" fill="white"/>
</clipPath>
</defs>
</svg>
