<svg width="20" height="20" viewBox="0 0 20 20" fill="none" xmlns="http://www.w3.org/2000/svg">
<path fill-rule="evenodd" clip-rule="evenodd" d="M13.3333 4.47884C13.3333 7.08301 12.2222 9.16634 10 9.16634C7.77778 9.16634 6.66667 7.08301 6.66667 4.47884C6.66667 2.39551 7.77778 0.833008 10 0.833008C12.2222 0.833008 13.3333 2.39551 13.3333 4.47884ZM12.229 11.1344C11.5195 10.938 10.772 10.833 10 10.833C7.92088 10.833 6.01956 11.5944 4.55972 12.8537C3.44745 13.8131 3.22579 15.4258 3.87764 16.7422L3.91655 16.8201C4.38809 17.7568 5.24908 18.4373 6.26494 18.6976C6.94239 18.8712 7.63831 18.9987 8.34916 19.0765C8.28921 18.5073 8.39734 17.9075 8.71386 17.348L12.229 11.1344Z" fill="#18202A"/>
<path fill-rule="evenodd" clip-rule="evenodd" d="M19.8665 18.4731C20.248 19.1532 19.7663 19.9997 18.9978 19.9997H11.0022C10.2337 19.9997 9.75198 19.1532 10.1335 18.4731L14.1313 11.3467C14.5155 10.6618 15.4845 10.6618 15.8687 11.3467L19.8665 18.4731ZM15 13.333C14.6548 13.333 14.375 13.6128 14.375 13.958V15.6247C14.375 15.9699 14.6548 16.2497 15 16.2497C15.3452 16.2497 15.625 15.9699 15.625 15.6247V13.958C15.625 13.6128 15.3452 13.333 15 13.333ZM15 17.083C14.6548 17.083 14.375 17.3628 14.375 17.708C14.375 18.0532 14.6548 18.333 15 18.333C15.3452 18.333 15.625 18.0532 15.625 17.708C15.625 17.3628 15.3452 17.083 15 17.083Z" fill="#18202A"/>
</svg>
