<svg width="20" height="20" viewBox="0 0 20 20" fill="none" xmlns="http://www.w3.org/2000/svg">
<path fill-rule="evenodd" clip-rule="evenodd" d="M15.3914 15.3914C15.6355 15.1473 16.0312 15.1473 16.2753 15.3914L17.942 17.058C18.186 17.3021 18.186 17.6978 17.942 17.9419C17.6979 18.186 17.3022 18.186 17.0581 17.9419L15.3914 16.2752C15.1473 16.0312 15.1473 15.6354 15.3914 15.3914Z" fill="#18202A"/>
<path fill-rule="evenodd" clip-rule="evenodd" d="M9.16669 15.4166C12.6185 15.4166 15.4167 12.6184 15.4167 9.16663C15.4167 5.71485 12.6185 2.91663 9.16669 2.91663C5.71491 2.91663 2.91669 5.71485 2.91669 9.16663C2.91669 12.6184 5.71491 15.4166 9.16669 15.4166ZM16.6667 9.16663C16.6667 13.3088 13.3088 16.6666 9.16669 16.6666C5.02455 16.6666 1.66669 13.3088 1.66669 9.16663C1.66669 5.02449 5.02455 1.66663 9.16669 1.66663C13.3088 1.66663 16.6667 5.02449 16.6667 9.16663Z" fill="#18202A"/>
</svg>
