<svg width="20" height="20" viewBox="0 0 20 20" fill="none" xmlns="http://www.w3.org/2000/svg">
<g clip-path="url(#clip0_2266_37447)">
<path fill-rule="evenodd" clip-rule="evenodd" d="M10 19.1667C15.0626 19.1667 19.1667 15.0627 19.1667 10C19.1667 4.93743 15.0626 0.833374 10 0.833374C4.93739 0.833374 0.833334 4.93743 0.833334 10C0.833334 15.0627 4.93739 19.1667 10 19.1667ZM13.9368 8.07475C14.2542 7.74148 14.2413 7.214 13.908 6.89659C13.5748 6.57919 13.0473 6.59205 12.7299 6.92533L8.60397 11.2575L7.29937 9.73549C6.99985 9.38605 6.47377 9.34559 6.12433 9.64511C5.77489 9.94462 5.73442 10.4707 6.03394 10.8201L7.9387 13.0424C8.09207 13.2213 8.31402 13.3269 8.54959 13.3331C8.78517 13.3393 9.01235 13.2454 9.17487 13.0748L13.9368 8.07475Z" fill="#18202A"/>
</g>
<defs>
<clipPath id="clip0_2266_37447">
<rect width="20" height="20" fill="white"/>
</clipPath>
</defs>
</svg>
