<svg width="20" height="20" viewBox="0 0 20 20" fill="none" xmlns="http://www.w3.org/2000/svg">
<path fill-rule="evenodd" clip-rule="evenodd" d="M14.1667 18.3333C16.4679 18.3333 18.3333 16.4679 18.3333 14.1667C18.3333 11.8655 16.4679 10 14.1667 10C11.8655 10 10 11.8655 10 14.1667C10 16.4679 11.8655 18.3333 14.1667 18.3333ZM14.1667 20C17.3883 20 20 17.3883 20 14.1667C20 10.945 17.3883 8.33333 14.1667 8.33333C10.945 8.33333 8.33333 10.945 8.33333 14.1667C8.33333 17.3883 10.945 20 14.1667 20Z" fill="#18202A"/>
<path fill-rule="evenodd" clip-rule="evenodd" d="M11.0417 14.1667C11.0417 12.6709 12.2542 11.4583 13.75 11.4583H15.8333C16.1785 11.4583 16.4583 11.7382 16.4583 12.0833C16.4583 12.4285 16.1785 12.7083 15.8333 12.7083H13.75C12.9446 12.7083 12.2917 13.3613 12.2917 14.1667C12.2917 14.9721 12.9446 15.625 13.75 15.625H15.4167C15.7618 15.625 16.0417 15.3452 16.0417 15C16.0417 14.8849 15.9484 14.7917 15.8333 14.7917H14.5833C14.2382 14.7917 13.9583 14.5118 13.9583 14.1667C13.9583 13.8215 14.2382 13.5417 14.5833 13.5417H15.8333C16.6387 13.5417 17.2917 14.1946 17.2917 15C17.2917 16.0355 16.4522 16.875 15.4167 16.875H13.75C12.2542 16.875 11.0417 15.6624 11.0417 14.1667Z" fill="#18202A"/>
<path fill-rule="evenodd" clip-rule="evenodd" d="M0 5C0 4.4051 0.362455 3.971 0.710447 3.69675C1.06783 3.4151 1.53334 3.1979 2.03428 3.03092C3.04487 2.69406 4.38798 2.5 5.83333 2.5C7.27869 2.5 8.6218 2.69406 9.63239 3.03092C10.1333 3.1979 10.5988 3.4151 10.9562 3.69675C11.3042 3.971 11.6667 4.4051 11.6667 5V8.89469C10.2717 9.55737 9.18148 10.7574 8.66348 12.2273C7.82538 12.4031 6.85489 12.5 5.83333 12.5C4.38798 12.5 3.04487 12.3059 2.03428 11.9691C1.90915 11.9274 1.78624 11.8825 1.66667 11.8343V12.4269C1.68144 12.4427 1.70521 12.4652 1.74207 12.4942C1.89071 12.6114 2.15744 12.7533 2.56132 12.8879C3.36038 13.1543 4.51726 13.3333 5.83333 13.3333C6.81764 13.3333 7.71291 13.2332 8.43602 13.0713C8.36861 13.4261 8.33333 13.7922 8.33333 14.1667C8.33333 14.3757 8.34433 14.5821 8.36576 14.7854C7.5989 14.9243 6.73606 15 5.83333 15C4.38798 15 3.04487 14.8059 2.03428 14.4691C1.90915 14.4274 1.78624 14.3825 1.66667 14.3343V14.9269C1.68144 14.9427 1.70521 14.9652 1.74207 14.9942C1.89071 15.1114 2.15744 15.2533 2.56132 15.3879C3.36038 15.6543 4.51726 15.8333 5.83333 15.8333C6.84686 15.8333 7.76599 15.7271 8.49997 15.5567C8.63576 16.1122 8.85111 16.6365 9.13326 17.1168C8.198 17.362 7.05201 17.5 5.83333 17.5C4.38798 17.5 3.04487 17.3059 2.03428 16.9691C1.53334 16.8021 1.06783 16.5849 0.710447 16.3033C0.362455 16.029 0 15.5949 0 15V5ZM2.56132 4.61206C2.16405 4.74448 1.89947 4.88398 1.74946 5C1.89947 5.11602 2.16405 5.25552 2.56132 5.38794C3.36038 5.65429 4.51726 5.83333 5.83333 5.83333C7.1494 5.83333 8.30629 5.65429 9.10534 5.38794C9.50262 5.25552 9.76719 5.11602 9.91721 5C9.76719 4.88398 9.50262 4.74448 9.10534 4.61206C8.30629 4.34571 7.1494 4.16667 5.83333 4.16667C4.51726 4.16667 3.36038 4.34571 2.56132 4.61206ZM1.66667 9.92694V9.33433C1.78624 9.38253 1.90915 9.42737 2.03428 9.46908C3.04487 9.80594 4.38798 10 5.83333 10C7.27869 10 8.6218 9.80594 9.63239 9.46908C9.75751 9.42737 9.88043 9.38253 10 9.33433V9.92694C9.98522 9.94268 9.96146 9.96518 9.9246 9.99423C9.77596 10.1114 9.50923 10.2533 9.10534 10.3879C8.30629 10.6543 7.1494 10.8333 5.83333 10.8333C4.51726 10.8333 3.36038 10.6543 2.56132 10.3879C2.15744 10.2533 1.89071 10.1114 1.74207 9.99423C1.70521 9.96518 1.68144 9.94268 1.66667 9.92694ZM10 6.83433C9.88043 6.88253 9.75751 6.92737 9.63239 6.96908C8.6218 7.30594 7.27869 7.5 5.83333 7.5C4.38798 7.5 3.04487 7.30594 2.03428 6.96908C1.90915 6.92737 1.78624 6.88253 1.66667 6.83433V7.42694C1.68144 7.44268 1.70521 7.46518 1.74207 7.49423C1.89071 7.61137 2.15744 7.75331 2.56132 7.88794C3.36038 8.15429 4.51726 8.33333 5.83333 8.33333C7.1494 8.33333 8.30629 8.15429 9.10534 7.88794C9.50923 7.75331 9.77596 7.61137 9.9246 7.49423C9.96146 7.46518 9.98522 7.44268 10 7.42694V6.83433Z" fill="#18202A"/>
</svg>
