<svg width="20" height="20" viewBox="0 0 20 20" fill="none" xmlns="http://www.w3.org/2000/svg">
<path fill-rule="evenodd" clip-rule="evenodd" d="M13.0893 5.58958C12.7638 5.91502 12.2362 5.91502 11.9107 5.58958L10 3.67884L8.08926 5.58958C7.76382 5.91502 7.23618 5.91502 6.91075 5.58958C6.58531 5.26414 6.58531 4.73651 6.91075 4.41107L9.41074 1.91107C9.73618 1.58563 10.2638 1.58563 10.5893 1.91107L13.0893 4.41107C13.4147 4.73651 13.4147 5.26414 13.0893 5.58958ZM1.66667 7.50033C1.20643 7.50033 0.833334 7.87342 0.833334 8.33366C0.833334 8.7939 1.20643 9.16699 1.66667 9.16699H18.3333C18.7936 9.16699 19.1667 8.7939 19.1667 8.33366C19.1667 7.87342 18.7936 7.50033 18.3333 7.50033H1.66667ZM1.66667 10.8337C1.20643 10.8337 0.833334 11.2068 0.833334 11.667C0.833334 12.1272 1.20643 12.5003 1.66667 12.5003H18.3333C18.7936 12.5003 19.1667 12.1272 19.1667 11.667C19.1667 11.2068 18.7936 10.8337 18.3333 10.8337H1.66667ZM13.0893 15.5896C13.4147 15.2641 13.4147 14.7365 13.0893 14.4111C12.7638 14.0856 12.2362 14.0856 11.9107 14.4111L10 16.3218L8.08926 14.4111C7.76382 14.0856 7.23618 14.0856 6.91075 14.4111C6.58531 14.7365 6.58531 15.2641 6.91075 15.5896L9.41074 18.0896C9.73618 18.415 10.2638 18.415 10.5893 18.0896L13.0893 15.5896Z" fill="#18202A"/>
</svg>
