<svg width="20" height="20" viewBox="0 0 20 20" fill="none" xmlns="http://www.w3.org/2000/svg">
<g clip-path="url(#clip0_2266_40750)">
<path fill-rule="evenodd" clip-rule="evenodd" d="M13.3333 4.47884C13.3333 7.08301 12.2222 9.16634 9.99999 9.16634C7.77777 9.16634 6.66666 7.08301 6.66666 4.47884C6.66666 2.39551 7.77777 0.833008 9.99999 0.833008C12.2222 0.833008 13.3333 2.39551 13.3333 4.47884ZM12.0833 4.47884C12.0833 5.62726 11.8347 6.53475 11.455 7.11322C11.1089 7.64042 10.6521 7.91634 9.99999 7.91634C9.34787 7.91634 8.89104 7.64042 8.54498 7.11322C8.16527 6.53475 7.91666 5.62726 7.91666 4.47884C7.91666 3.64564 8.13919 3.0513 8.45085 2.68607C8.73842 2.34908 9.20501 2.08301 9.99999 2.08301C10.795 2.08301 11.2616 2.34908 11.5491 2.68607C11.8608 3.0513 12.0833 3.64564 12.0833 4.47884ZM9.16666 18.6663C9.16666 18.8295 9.17968 18.9896 9.20474 19.1456C8.19514 19.0929 7.21198 18.9403 6.26493 18.6976C5.24906 18.4373 4.38807 17.7568 3.91654 16.8201C3.77676 16.5424 3.64641 16.2592 3.52589 15.9709C3.0138 14.7456 3.21788 13.3121 4.16609 12.3824C5.66927 10.9085 7.7285 9.99967 10 9.99967C11.2803 9.99967 12.4932 10.2884 13.5771 10.8043C13.3807 11.1084 13.2187 11.4368 13.0966 11.784C13.0789 11.8343 13.0579 11.8831 13.0338 11.9301C12.1143 11.4936 11.086 11.2497 10 11.2497C8.0688 11.2497 6.32021 12.0209 5.04123 13.2749C4.5047 13.801 4.33803 14.6725 4.67921 15.4888C4.78836 15.75 4.90643 16.0065 5.03305 16.2581C5.33833 16.8645 5.90079 17.3139 6.57525 17.4867C7.41025 17.7007 8.27658 17.8384 9.16666 17.8915V18.6663ZM16.4583 13.1247C16.4583 12.6644 16.8314 12.2913 17.2917 12.2913C17.7519 12.2913 18.125 12.6644 18.125 13.1247V13.7497C18.125 14.0949 18.4048 14.3747 18.75 14.3747C19.0952 14.3747 19.375 14.0949 19.375 13.7497V13.1247C19.375 11.9741 18.4423 11.0413 17.2917 11.0413C16.1411 11.0413 15.2083 11.9741 15.2083 13.1247V14.1663H11.8333C11.281 14.1663 10.8333 14.6141 10.8333 15.1663V18.9997C10.8333 19.552 11.281 19.9997 11.8333 19.9997H16.5C17.0523 19.9997 17.5 19.552 17.5 18.9997V15.1663C17.5 14.6141 17.0523 14.1663 16.5 14.1663H16.4583V13.1247ZM14.1667 16.0413C14.5118 16.0413 14.7917 16.3212 14.7917 16.6663V17.4997C14.7917 17.8449 14.5118 18.1247 14.1667 18.1247C13.8215 18.1247 13.5417 17.8449 13.5417 17.4997V16.6663C13.5417 16.3212 13.8215 16.0413 14.1667 16.0413Z" fill="#18202A"/>
</g>
<defs>
<clipPath id="clip0_2266_40750">
<rect width="20" height="20" fill="white"/>
</clipPath>
</defs>
</svg>
