<svg width="20" height="20" viewBox="0 0 20 20" fill="none" xmlns="http://www.w3.org/2000/svg">
<g clip-path="url(#clip0_2266_35642)">
<path fill-rule="evenodd" clip-rule="evenodd" d="M8.69595 1.76778C8.6245 1.31312 8.93528 0.882703 9.39454 0.852715C9.59477 0.839642 9.79666 0.833008 10 0.833008C15.0626 0.833008 19.1667 4.93706 19.1667 9.99967C19.1667 10.203 19.16 10.4049 19.147 10.6051C19.117 11.0644 18.6866 11.3752 18.2319 11.3037C17.7772 11.2323 17.4713 10.8054 17.4922 10.3456C17.4974 10.231 17.5 10.1157 17.5 9.99967C17.5 5.85754 14.1421 2.49967 10 2.49967C9.884 2.49967 9.76866 2.5023 9.65403 2.5075C9.19426 2.52833 8.7674 2.22244 8.69595 1.76778ZM4.75555 3.5232C4.4657 3.1657 4.51865 2.63739 4.90091 2.38108C5.23576 2.15656 5.58633 1.95347 5.95064 1.77382C6.36342 1.57027 6.84762 1.78817 7.01265 2.2178C7.17768 2.64743 6.9604 3.12545 6.55186 3.33737C6.34739 3.44344 6.14837 3.55867 5.95536 3.68253C5.56803 3.9311 5.0454 3.8807 4.75555 3.5232ZM2.21812 7.01232C1.78849 6.84729 1.5706 6.36309 1.77415 5.95032C1.9538 5.58601 2.15689 5.23544 2.38141 4.90058C2.63772 4.51832 3.16602 4.46538 3.52352 4.75523C3.88102 5.04507 3.93143 5.5677 3.68286 5.95504C3.559 6.14805 3.44377 6.34706 3.3377 6.55154C3.12577 6.96008 2.64775 7.17736 2.21812 7.01232ZM0.833334 9.99967C0.833334 9.79633 0.839968 9.59444 0.853042 9.39422C0.883029 8.93496 1.31345 8.62417 1.76811 8.69562C2.22276 8.76707 2.52866 9.19394 2.50782 9.6537C2.50263 9.76833 2.5 9.88367 2.5 9.99967C2.5 10.1157 2.50263 10.231 2.50782 10.3456C2.52866 10.8054 2.22276 11.2323 1.76811 11.3037C1.31345 11.3752 0.883029 11.0644 0.853042 10.6051C0.839968 10.4049 0.833334 10.203 0.833334 9.99967ZM17.7819 12.987C18.2115 13.1521 18.4294 13.6363 18.2259 14.049C18.0462 14.4133 17.8431 14.7639 17.6186 15.0988C17.3623 15.481 16.834 15.534 16.4765 15.2441C16.119 14.9543 16.0686 14.4316 16.3171 14.0443C16.441 13.8513 16.5562 13.6523 16.6623 13.4478C16.8742 13.0393 17.3522 12.822 17.7819 12.987ZM3.52352 15.2441C3.16602 15.534 2.63772 15.481 2.38141 15.0988C2.15689 14.7639 1.9538 14.4133 1.77415 14.049C1.5706 13.6363 1.78849 13.1521 2.21812 12.987C2.64775 12.822 3.12578 13.0393 3.3377 13.4478C3.44377 13.6523 3.559 13.8513 3.68286 14.0443C3.93143 14.4316 3.88102 14.9543 3.52352 15.2441ZM7.01265 17.7816C6.84762 18.2112 6.36342 18.4291 5.95064 18.2255C5.58633 18.0459 5.23577 17.8428 4.90091 17.6183C4.51865 17.362 4.4657 16.8337 4.75555 16.4762C5.0454 16.1187 5.56803 16.0682 5.95536 16.3168C6.14837 16.4407 6.34739 16.5559 6.55186 16.662C6.96041 16.8739 7.17768 17.3519 7.01265 17.7816ZM15.2445 16.4762C15.5343 16.8337 15.4814 17.362 15.0991 17.6183C14.7642 17.8428 14.4137 18.0459 14.0494 18.2255C13.6366 18.4291 13.1524 18.2112 12.9874 17.7816C12.8223 17.3519 13.0396 16.8739 13.4481 16.662C13.6526 16.5559 13.8516 16.4407 14.0446 16.3168C14.432 16.0682 14.9546 16.1187 15.2445 16.4762ZM11.3041 18.2316C11.3755 18.6862 11.0647 19.1166 10.6055 19.1466C10.4052 19.1597 10.2033 19.1663 10 19.1663C9.79666 19.1663 9.59477 19.1597 9.39454 19.1466C8.93528 19.1166 8.6245 18.6862 8.69595 18.2316C8.7674 17.7769 9.19427 17.471 9.65403 17.4919C9.76866 17.497 9.884 17.4997 10 17.4997C10.116 17.4997 10.2313 17.497 10.346 17.4919C10.8057 17.471 11.2326 17.7769 11.3041 18.2316ZM15.8333 9.99967C15.8333 13.2213 13.2217 15.833 10 15.833C6.77834 15.833 4.16667 13.2213 4.16667 9.99967C4.16667 6.77801 6.77834 4.16634 10 4.16634C13.2217 4.16634 15.8333 6.77801 15.8333 9.99967ZM10 7.91634C10 8.6067 9.44036 9.16634 8.75 9.16634C8.05964 9.16634 7.5 8.6067 7.5 7.91634C7.5 7.22599 8.05964 6.66634 8.75 6.66634C9.44036 6.66634 10 7.22599 10 7.91634ZM7.5 10.4163L6.47134 12.2165C7.20883 13.3879 8.51351 14.1663 10 14.1663C12.1684 14.1663 13.9499 12.5099 14.1483 10.3934L12.5 8.33301L9.58333 11.6663L7.5 10.4163Z" fill="#18202A"/>
</g>
<defs>
<clipPath id="clip0_2266_35642">
<rect width="20" height="20" fill="white"/>
</clipPath>
</defs>
</svg>
