<svg width="20" height="20" viewBox="0 0 20 20" fill="none" xmlns="http://www.w3.org/2000/svg">
<path d="M19.4281 7.23857C19.7535 6.91314 19.7551 6.38348 19.4112 6.07761C16.9089 3.85201 13.6123 2.5 10 2.5C6.38768 2.5 3.09114 3.85201 0.588797 6.07762C0.2449 6.38348 0.24647 6.91314 0.571907 7.23858C0.897344 7.56402 1.42324 7.56169 1.76951 7.25852C3.96832 5.33338 6.84791 4.16667 10 4.16667C13.1521 4.16667 16.0317 5.33338 18.2305 7.25851C18.5768 7.56169 19.1027 7.56401 19.4281 7.23857Z" fill="#18202A"/>
<path d="M16.4818 10.1849C16.8072 9.85942 16.8093 9.32879 16.4581 9.0314C14.7158 7.55621 12.4618 6.66667 10 6.66667C7.53824 6.66667 5.28424 7.55621 3.54191 9.0314C3.19066 9.32879 3.19275 9.85942 3.51819 10.1849C3.84362 10.5103 4.36887 10.5066 4.725 10.2151C6.16171 9.03898 7.99845 8.33333 10 8.33333C12.0015 8.33333 13.8383 9.03898 15.275 10.2151C15.6311 10.5066 16.1564 10.5103 16.4818 10.1849Z" fill="#18202A"/>
<path d="M13.5355 13.1311C13.861 12.8057 13.864 12.2724 13.4957 11.9964C12.5215 11.266 11.3113 10.8333 10 10.8333C8.68871 10.8333 7.47848 11.266 6.50427 11.9964C6.13603 12.2724 6.13903 12.8057 6.46447 13.1311C6.7899 13.4566 7.31415 13.4481 7.69752 13.1934C8.35714 12.7553 9.14876 12.5 10 12.5C10.8512 12.5 11.6429 12.7553 12.3025 13.1934C12.6859 13.4481 13.2101 13.4566 13.5355 13.1311Z" fill="#18202A"/>
<path d="M11.6667 16.6667C11.6667 17.5871 10.9205 18.3333 10 18.3333C9.07952 18.3333 8.33333 17.5871 8.33333 16.6667C8.33333 15.7462 9.07952 15 10 15C10.9205 15 11.6667 15.7462 11.6667 16.6667Z" fill="#18202A"/>
</svg>
