<svg width="20" height="20" viewBox="0 0 20 20" fill="none" xmlns="http://www.w3.org/2000/svg">
<g clip-path="url(#clip0_2266_36064)">
<path fill-rule="evenodd" clip-rule="evenodd" d="M10.8113 11.4393C10.3068 11.7206 9.69261 11.7206 9.18811 11.4393L2.5 7.7104L2.5 16.5088C2.87987 16.772 3.12866 17.2111 3.12866 17.7083C3.12866 18.5137 2.47574 19.1666 1.67033 19.1666C0.864914 19.1666 0.211996 18.5137 0.211996 17.7083C0.211996 17.2143 0.45759 16.7777 0.833334 16.5139L0.833334 6.78117L0.438719 6.56116C-0.131325 6.24334 -0.131318 5.42326 0.438733 5.10545L9.18814 0.22755C9.69263 -0.0537092 10.3068 -0.053715 10.8113 0.227535L19.5611 5.10544C20.1312 5.42325 20.1312 6.24335 19.5611 6.56117L10.8113 11.4393ZM11.875 5.83325C11.875 6.52361 11.0355 7.08325 10 7.08325C8.96447 7.08325 8.125 6.52361 8.125 5.83325C8.125 5.1429 8.96447 4.58325 10 4.58325C11.0355 4.58325 11.875 5.1429 11.875 5.83325ZM8.7823 12.1669L3.33333 9.12892V11.9519C3.33333 14.5558 6.3181 16.6664 10 16.6664C13.6819 16.6664 16.6667 14.5558 16.6667 11.9519V9.12874L11.2171 12.167C10.4603 12.5889 9.53906 12.5889 8.7823 12.1669Z" fill="#18202A"/>
</g>
<defs>
<clipPath id="clip0_2266_36064">
<rect width="20" height="20" fill="white"/>
</clipPath>
</defs>
</svg>
