<svg width="20" height="20" viewBox="0 0 20 20" fill="none" xmlns="http://www.w3.org/2000/svg">
<path d="M13.7644 9.54758C14.0144 9.78563 14.024 10.1812 13.786 10.4312L9.02405 15.4312C8.90215 15.5592 8.73177 15.6296 8.55509 15.6249C8.37841 15.6203 8.21195 15.5411 8.09692 15.4069L6.19216 13.1847C5.96752 12.9226 5.99788 12.528 6.25995 12.3034C6.52203 12.0788 6.91659 12.1091 7.14123 12.3712L8.59587 14.0683L12.8808 9.56913C13.1188 9.31917 13.5144 9.30952 13.7644 9.54758Z" fill="#18202A"/>
<path fill-rule="evenodd" clip-rule="evenodd" d="M3.34156 5.62943C3.4454 4.34416 4.52135 3.3335 5.83335 3.3335H14.1667C15.4787 3.3335 16.5546 4.34416 16.6585 5.62943C17.1271 6.04513 17.4383 6.63419 17.4918 7.29609C18.008 7.75407 18.3334 8.42246 18.3334 9.16683V15.8335C18.3334 17.2142 17.2141 18.3335 15.8334 18.3335H4.16669C2.78597 18.3335 1.66669 17.2142 1.66669 15.8335V9.16683C1.66669 8.42246 1.99201 7.75407 2.50823 7.29609C2.5617 6.6342 2.87299 6.04513 3.34156 5.62943ZM4.89988 5.00213C5.12882 4.74526 5.4622 4.5835 5.83335 4.5835H14.1667C14.5378 4.5835 14.8712 4.74526 15.1002 5.00213C15.0669 5.00083 15.0336 5.00016 15 5.00016H5.00002C4.96648 5.00016 4.9331 5.00082 4.89988 5.00213ZM4.06655 6.6688C4.09977 6.66749 4.13315 6.66683 4.16669 6.66683H15.8334C15.8669 6.66683 15.9003 6.66749 15.9335 6.6688C15.7045 6.41192 15.3712 6.25016 15 6.25016H5.00002C4.62886 6.25016 4.29549 6.41193 4.06655 6.6688ZM17.0834 9.16683C17.0834 8.47647 16.5237 7.91683 15.8334 7.91683H4.16669C3.47633 7.91683 2.91669 8.47647 2.91669 9.16683V15.8335C2.91669 16.5239 3.47633 17.0835 4.16669 17.0835H15.8334C16.5237 17.0835 17.0834 16.5239 17.0834 15.8335V9.16683Z" fill="#18202A"/>
</svg>
