<svg width="20" height="20" viewBox="0 0 20 20" fill="none" xmlns="http://www.w3.org/2000/svg">
<g clip-path="url(#clip0_2266_40183)">
<path fill-rule="evenodd" clip-rule="evenodd" d="M2.08334 9.99998C2.08334 14.3722 5.62776 17.9166 10 17.9166C14.3723 17.9166 17.9167 14.3722 17.9167 9.99998C17.9167 5.62773 14.3723 2.08331 10 2.08331C5.62776 2.08331 2.08334 5.62773 2.08334 9.99998ZM0.833344 9.99998C0.833344 15.0626 4.9374 19.1666 10 19.1666C15.0626 19.1666 19.1667 15.0626 19.1667 9.99998C19.1667 4.93737 15.0626 0.833313 10 0.833313C4.9374 0.833313 0.833344 4.93737 0.833344 9.99998Z" fill="#18202A"/>
<path fill-rule="evenodd" clip-rule="evenodd" d="M13.7753 10.3914C14.0194 10.6354 14.0194 11.0312 13.7753 11.2753L10.442 14.6086C10.1979 14.8527 9.80215 14.8527 9.55807 14.6086L6.22474 11.2753C5.98066 11.0312 5.98066 10.6354 6.22474 10.3914C6.46881 10.1473 6.86454 10.1473 7.10862 10.3914L9.37501 12.6578V5.83331C9.37501 5.48814 9.65483 5.20831 10 5.20831C10.3452 5.20831 10.625 5.48814 10.625 5.83331V12.6578L12.8914 10.3914C13.1355 10.1473 13.5312 10.1473 13.7753 10.3914Z" fill="#18202A"/>
</g>
<defs>
<clipPath id="clip0_2266_40183">
<rect width="20" height="20" fill="white"/>
</clipPath>
</defs>
</svg>
