<svg width="20" height="20" viewBox="0 0 20 20" fill="none" xmlns="http://www.w3.org/2000/svg">
<path fill-rule="evenodd" clip-rule="evenodd" d="M10.1331 2.59009C10.056 2.52596 9.94403 2.52596 9.86685 2.59009L3.74999 7.67304V16.8751C3.74999 16.9901 3.84327 17.0834 3.95833 17.0834H7.29166V12.2917C7.29166 11.4863 7.94458 10.8334 8.74999 10.8334H11.25C12.0554 10.8334 12.7083 11.4863 12.7083 12.2917V17.0834H16.0417C16.1567 17.0834 16.25 16.9901 16.25 16.8751V7.67303L10.1331 2.59009ZM17.5 8.71175L18.7672 9.76478C19.0327 9.98538 19.4268 9.94901 19.6474 9.68353C19.868 9.41804 19.8316 9.02399 19.5661 8.80338L10.932 1.6287C10.3918 1.17976 9.60822 1.17976 9.06796 1.6287L0.433884 8.80338C0.168403 9.02399 0.132026 9.41804 0.352633 9.68353C0.573241 9.94901 0.967293 9.98538 1.23277 9.76478L2.49999 8.71175V16.8751C2.49999 17.6805 3.15291 18.3334 3.95833 18.3334H16.0417C16.8471 18.3334 17.5 17.6805 17.5 16.8751V8.71175ZM11.4583 17.0834V12.2917C11.4583 12.1767 11.3651 12.0834 11.25 12.0834H8.74999C8.63493 12.0834 8.54166 12.1767 8.54166 12.2917V17.0834H11.4583Z" fill="#18202A"/>
</svg>
