<svg width="20" height="20" viewBox="0 0 20 20" fill="none" xmlns="http://www.w3.org/2000/svg">
<path d="M6.67502 1.69997C7.27061 1.69131 7.84971 1.89558 8.30804 2.276C8.76635 2.65642 9.07385 3.18799 9.17501 3.77497C9.20002 3.96664 9.23335 4.1583 9.27501 4.34164C9.3591 4.7123 9.46768 5.07699 9.60002 5.4333C9.74068 5.8199 9.73335 6.24485 9.57951 6.62638C9.44491 6.96022 9.20644 7.24018 8.90139 7.42614L8.76668 7.49997L8.41668 7.7333C8.86818 8.545 9.42902 9.29083 10.0833 9.95C10.6601 10.5225 11.3032 11.0234 11.9988 11.4422L12.3 11.6167L12.4833 11.2417C12.6643 10.8722 12.9754 10.5827 13.3569 10.4288C13.7385 10.275 14.1634 10.2677 14.55 10.4083C14.8167 10.5093 15.0886 10.5956 15.3645 10.667L15.9208 10.799C16.0146 10.8187 16.1083 10.8333 16.2 10.8333C16.7698 10.9355 17.2866 11.2322 17.6619 11.673C17.9956 12.0648 18.1993 12.5487 18.2476 13.058L18.2584 13.25V15.75C18.26 16.1037 18.1866 16.4537 18.0429 16.7769C17.8993 17.1001 17.6887 17.3892 17.425 17.625C17.0121 17.9929 16.4902 18.2123 15.942 18.2519L15.7583 18.2583H15.4417C11.9489 17.8271 8.69943 16.2445 6.2064 13.7605C3.71338 11.2765 2.11897 8.03279 1.67502 4.54164C1.62592 4.18585 1.65406 3.82366 1.75751 3.47973C1.86096 3.1358 2.03731 2.8182 2.27455 2.54854C2.51178 2.27888 2.80433 2.06351 3.13228 1.91708C3.40557 1.79505 3.6981 1.72329 3.99586 1.70471L4.17502 1.69997H6.67502ZM6.67502 2.94997L4.16328 2.94981C3.98371 2.94823 3.80589 2.98525 3.64192 3.05847C3.47793 3.13169 3.33166 3.23937 3.21305 3.37419C3.09443 3.50903 3.00626 3.66783 2.95453 3.8398C2.9028 4.01176 2.88874 4.19286 2.91504 4.38395C3.32394 7.59947 4.79246 10.5871 7.08868 12.875C9.30288 15.0812 12.1649 16.5154 15.2511 16.9711L15.5266 17.008L15.7602 17.0083C16.0235 17.0087 16.2791 16.9259 16.4901 16.7746L16.5917 16.6933C16.7235 16.5754 16.8288 16.4308 16.9007 16.2692C16.9545 16.148 16.9887 16.0193 17.002 15.8854L17.0084 15.75L17.0086 13.272C17.0035 12.9826 16.8981 12.7039 16.7102 12.4834C16.5495 12.2946 16.3367 12.1587 16.0998 12.0915L16.0349 12.0764L16.0206 12.0761C15.9616 12.0714 15.9031 12.0644 15.8438 12.0553L15.6627 12.022L15.3726 11.954C14.9423 11.8592 14.5195 11.7333 14.1226 11.583C14.026 11.5478 13.9198 11.5497 13.8244 11.5881C13.7529 11.617 13.6912 11.6649 13.6459 11.7257L13.6063 11.7907L13.23 12.5604C13.0203 12.9894 12.4936 13.1548 12.0762 12.9226L11.6923 12.709C10.7807 12.2018 9.94301 11.572 9.19622 10.8306C8.55309 10.1827 7.99046 9.46039 7.52017 8.67926L7.32431 8.34093L7.13742 8.00496C6.92631 7.62543 7.04207 7.1474 7.40342 6.9065L8.07331 6.45991L8.21702 6.37731C8.30939 6.33208 8.38175 6.25432 8.4202 6.15895C8.45868 6.06353 8.4605 5.9573 8.42822 5.8685C8.27663 5.46034 8.15228 5.04265 8.0561 4.61866C8.00633 4.39969 7.96597 4.17011 7.94318 3.98728C7.89261 3.69387 7.73887 3.42808 7.50969 3.23785C7.31327 3.07482 7.07249 2.97649 6.80872 2.95453L6.67502 2.94997Z" fill="#18202A"/>
</svg>
