<svg width="20" height="20" viewBox="0 0 20 20" fill="none" xmlns="http://www.w3.org/2000/svg">
<g clip-path="url(#clip0_3444_9305)">
<g clip-path="url(#clip1_3444_9305)">
<path d="M6.66671 0.833496C5.74623 0.833496 5.00004 1.57969 5.00004 2.50016V4.16683C5.00004 4.96393 5.37309 5.6739 5.95412 6.13168C6.67715 6.70134 7.50004 7.41302 7.50004 8.3335V10.0002C7.50004 10.9206 6.75385 11.6668 5.83337 11.6668H4.4048C2.43236 11.6668 0.833374 13.2658 0.833374 15.2383C0.833374 16.0272 1.47297 16.6668 2.26194 16.6668H10.4804C10.4385 16.3952 10.4167 16.1169 10.4167 15.8335C10.4167 13.8738 11.4574 12.1572 13.0163 11.2061C12.6982 10.9026 12.5 10.4745 12.5 10.0002V8.3335C12.5 7.41302 13.3229 6.70134 14.046 6.13168C14.627 5.6739 15 4.96393 15 4.16683V2.50016C15 1.57969 14.2538 0.833496 13.3334 0.833496H6.66671Z" fill="#18202A"/>
<path d="M1.66671 18.3335C1.66671 17.8733 2.0398 17.5002 2.50004 17.5002H10.678C10.875 18.1102 11.1773 18.6729 11.5635 19.1668H2.50004C2.0398 19.1668 1.66671 18.7937 1.66671 18.3335Z" fill="#18202A"/>
<path d="M15.1727 11.9109C15.4981 12.2363 15.4981 12.764 15.1727 13.0894L14.9286 13.3335H18.3334C18.7936 13.3335 19.1667 13.7066 19.1667 14.1668C19.1667 14.6271 18.7936 15.0002 18.3334 15.0002H12.9167C12.5797 15.0002 12.2758 14.7971 12.1468 14.4857C12.0178 14.1743 12.0891 13.8159 12.3275 13.5776L13.9941 11.9109C14.3196 11.5855 14.8472 11.5855 15.1727 11.9109Z" fill="#18202A"/>
<path d="M16.0774 18.5776L16.3215 18.3335H12.9167C12.4564 18.3335 12.0833 17.9604 12.0833 17.5002C12.0833 17.0399 12.4564 16.6668 12.9167 16.6668H18.3333C18.6704 16.6668 18.9743 16.8699 19.1032 17.1813C19.2322 17.4927 19.1609 17.8511 18.9226 18.0894L17.2559 19.7561C16.9305 20.0815 16.4029 20.0815 16.0774 19.7561C15.752 19.4306 15.752 18.903 16.0774 18.5776Z" fill="#18202A"/>
</g>
</g>
<defs>
<clipPath id="clip0_3444_9305">
<rect width="20" height="20" fill="white"/>
</clipPath>
<clipPath id="clip1_3444_9305">
<rect width="20" height="20" fill="white"/>
</clipPath>
</defs>
</svg>
