<svg width="20" height="20" viewBox="0 0 20 20" fill="none" xmlns="http://www.w3.org/2000/svg">
<path d="M5.80808 5.80814C6.05216 5.56406 6.44788 5.56406 6.69196 5.80814L10 9.1162L13.3081 5.80814C13.5522 5.56406 13.9479 5.56406 14.192 5.80814C14.436 6.05222 14.436 6.44795 14.192 6.69202L10.8839 10.0001L14.192 13.3081C14.436 13.5522 14.436 13.9479 14.192 14.192C13.9479 14.4361 13.5522 14.4361 13.3081 14.192L10 10.884L6.69196 14.192C6.44788 14.4361 6.05216 14.4361 5.80808 14.192C5.564 13.9479 5.564 13.5522 5.80808 13.3081L9.11614 10.0001L5.80808 6.69202C5.564 6.44795 5.564 6.05222 5.80808 5.80814Z" fill="#18202A"/>
<path fill-rule="evenodd" clip-rule="evenodd" d="M5.00002 1.66675C3.15907 1.66675 1.66669 3.15913 1.66669 5.00008V15.0001C1.66669 16.841 3.15907 18.3334 5.00002 18.3334H15C16.841 18.3334 18.3334 16.841 18.3334 15.0001V5.00008C18.3334 3.15913 16.841 1.66675 15 1.66675H5.00002ZM17.0834 5.00008C17.0834 3.84949 16.1506 2.91675 15 2.91675H5.00002C3.84943 2.91675 2.91669 3.84949 2.91669 5.00008V15.0001C2.91669 16.1507 3.84943 17.0834 5.00002 17.0834H15C16.1506 17.0834 17.0834 16.1507 17.0834 15.0001V5.00008Z" fill="#18202A"/>
</svg>
