<svg width="20" height="20" viewBox="0 0 20 20" fill="none" xmlns="http://www.w3.org/2000/svg">
<path fill-rule="evenodd" clip-rule="evenodd" d="M3.33333 0.833496C2.8731 0.833496 2.5 1.20659 2.5 1.66683C2.5 2.12707 2.8731 2.50016 3.33333 2.50016H3.76473C3.75496 2.6597 3.75 2.82061 3.75 2.98273C3.75 5.68817 5.13624 8.08139 7.22969 9.23657C7.509 9.3907 7.61905 9.61079 7.61905 9.7663V10.2343C7.61905 10.3898 7.509 10.6099 7.22969 10.764C5.13624 11.9192 3.75 14.3124 3.75 17.0179C3.75 17.1417 3.7529 17.2649 3.75862 17.3873C3.75331 17.4242 3.7504 17.4619 3.75004 17.5002H3.33333C2.8731 17.5002 2.5 17.8733 2.5 18.3335C2.5 18.7937 2.8731 19.1668 3.33333 19.1668H16.6667C17.1269 19.1668 17.5 18.7937 17.5 18.3335C17.5 17.8733 17.1269 17.5002 16.6667 17.5002H16.25C16.2496 17.4619 16.2467 17.4242 16.2414 17.3873C16.2471 17.2649 16.25 17.1417 16.25 17.0179C16.25 14.3124 14.8638 11.9192 12.7703 10.764C12.491 10.6099 12.381 10.3898 12.381 10.2343V9.7663C12.381 9.6108 12.491 9.3907 12.7703 9.23657C14.8638 8.08139 16.25 5.68817 16.25 2.98273C16.25 2.82061 16.245 2.6597 16.2353 2.50016H16.6667C17.1269 2.50016 17.5 2.12707 17.5 1.66683C17.5 1.20659 17.1269 0.833496 16.6667 0.833496H3.33333ZM5.41667 2.98273C5.41667 2.81991 5.423 2.65896 5.43537 2.50016H14.5646C14.577 2.65896 14.5833 2.81991 14.5833 2.98273C14.5833 5.13482 13.4817 6.94044 11.9651 7.77732C11.3052 8.14147 10.7143 8.84907 10.7143 9.7663V10.2343C10.7143 11.1515 11.3052 11.8591 11.9651 12.2233C13.4817 13.0602 14.5833 14.8658 14.5833 17.0179C14.5833 17.1587 14.5786 17.2981 14.5693 17.4359C14.5679 17.4574 14.5672 17.4789 14.5674 17.5002H5.43259C5.43276 17.4789 5.43213 17.4574 5.43068 17.4358C5.4214 17.298 5.41667 17.1587 5.41667 17.0179C5.41667 14.8658 6.51828 13.0602 8.03491 12.2233C8.69482 11.8591 9.28571 11.1515 9.28571 10.2343V9.7663C9.28571 8.84907 8.69482 8.14147 8.03491 7.77732C6.51828 6.94044 5.41667 5.13482 5.41667 2.98273Z" fill="#18202A"/>
</svg>
