<svg width="20" height="20" viewBox="0 0 20 20" fill="none" xmlns="http://www.w3.org/2000/svg">
<g clip-path="url(#clip0_2266_40648)">
<path fill-rule="evenodd" clip-rule="evenodd" d="M13.3333 4.47884C13.3333 7.08301 12.2222 9.16634 9.99999 9.16634C7.77777 9.16634 6.66666 7.08301 6.66666 4.47884C6.66666 2.39551 7.77777 0.833008 9.99999 0.833008C12.2222 0.833008 13.3333 2.39551 13.3333 4.47884ZM12.0833 4.47884C12.0833 5.62726 11.8347 6.53475 11.455 7.11322C11.1089 7.64042 10.6521 7.91634 9.99999 7.91634C9.34787 7.91634 8.89104 7.64042 8.54498 7.11322C8.16527 6.53475 7.91666 5.62726 7.91666 4.47884C7.91666 3.64564 8.13919 3.0513 8.45085 2.68607C8.73842 2.34908 9.20501 2.08301 9.99999 2.08301C10.795 2.08301 11.2616 2.34908 11.5491 2.68607C11.8608 3.0513 12.0833 3.64564 12.0833 4.47884ZM10.8218 17.8922C10.9989 18.3227 11.2298 18.7253 11.5061 19.0917C11.0108 19.1411 10.5083 19.1663 9.99999 19.1663C8.7105 19.1663 7.459 19.0036 6.26493 18.6976C5.24906 18.4373 4.38807 17.7568 3.91654 16.8201C3.77676 16.5424 3.64641 16.2592 3.52589 15.9709C3.0138 14.7456 3.21788 13.3121 4.16609 12.3824C5.66927 10.9085 7.7285 9.99967 10 9.99967C11.324 9.99967 12.5759 10.3085 13.6876 10.8579C13.2129 11.063 12.7734 11.3339 12.3805 11.6593C11.6367 11.394 10.8354 11.2497 10 11.2497C8.0688 11.2497 6.32021 12.0209 5.04123 13.2749C4.5047 13.801 4.33803 14.6725 4.67921 15.4888C4.78836 15.75 4.90643 16.0065 5.03305 16.2581C5.33833 16.8645 5.90079 17.3139 6.57525 17.4867C7.66878 17.767 8.81604 17.9163 9.99999 17.9163C10.276 17.9163 10.55 17.9082 10.8218 17.8922ZM20 15.833C20 18.1342 18.1345 19.9997 15.8333 19.9997C13.5321 19.9997 11.6667 18.1342 11.6667 15.833C11.6667 13.5318 13.5321 11.6663 15.8333 11.6663C18.1345 11.6663 20 13.5318 20 15.833ZM17.8957 13.7706C18.1398 14.0147 18.1398 14.4105 17.8957 14.6545L16.7172 15.833L17.8957 17.0116C18.1398 17.2556 18.1398 17.6514 17.8957 17.8954C17.6516 18.1395 17.2559 18.1395 17.0118 17.8954L15.8333 16.7169L14.6548 17.8954C14.4107 18.1395 14.015 18.1395 13.7709 17.8954C13.5269 17.6514 13.5269 17.2556 13.7709 17.0116L14.9494 15.833L13.7709 14.6545C13.5269 14.4105 13.5269 14.0147 13.7709 13.7706C14.015 13.5266 14.4107 13.5266 14.6548 13.7706L15.8333 14.9492L17.0118 13.7706C17.2559 13.5266 17.6516 13.5266 17.8957 13.7706Z" fill="#18202A"/>
</g>
<defs>
<clipPath id="clip0_2266_40648">
<rect width="20" height="20" fill="white"/>
</clipPath>
</defs>
</svg>
