<svg width="20" height="20" viewBox="0 0 20 20" fill="none" xmlns="http://www.w3.org/2000/svg">
<g clip-path="url(#clip0_3293_9027)">
<g clip-path="url(#clip1_3293_9027)">
<path fill-rule="evenodd" clip-rule="evenodd" d="M11.4583 3.54183C11.8035 3.54183 12.0833 3.82165 12.0833 4.16683V5.00016H12.7083C13.0535 5.00016 13.3333 5.27998 13.3333 5.62516C13.3333 5.97034 13.0535 6.25016 12.7083 6.25016H12.0833V12.7085C12.0833 13.0537 11.8035 13.3335 11.4583 13.3335C11.1132 13.3335 10.8334 13.0538 10.8333 12.7087C10.311 13.101 9.66182 13.3335 8.95831 13.3335C7.23242 13.3335 5.83331 11.9344 5.83331 10.2085C5.83331 8.48261 7.23242 7.0835 8.95831 7.0835C9.66182 7.0835 10.311 7.31596 10.8333 7.70827V6.25016H10.2083C9.86314 6.25016 9.58331 5.97034 9.58331 5.62516C9.58331 5.27998 9.86314 5.00016 10.2083 5.00016H10.8333V4.16683C10.8333 3.82165 11.1131 3.54183 11.4583 3.54183ZM8.95831 8.3335C9.99385 8.3335 10.8333 9.17296 10.8333 10.2085C10.8333 11.244 9.99385 12.0835 8.95831 12.0835C7.92278 12.0835 7.08331 11.244 7.08331 10.2085C7.08331 9.17296 7.92278 8.3335 8.95831 8.3335Z" fill="#18202A"/>
<path d="M6.45831 14.1668C6.11314 14.1668 5.83331 14.4467 5.83331 14.7918C5.83331 15.137 6.11314 15.4168 6.45831 15.4168H11.4583C11.8035 15.4168 12.0833 15.137 12.0833 14.7918C12.0833 14.4467 11.8035 14.1668 11.4583 14.1668H6.45831Z" fill="#18202A"/>
<path fill-rule="evenodd" clip-rule="evenodd" d="M19.1666 10.0002C19.1666 15.0628 15.0626 19.1668 9.99998 19.1668C4.93737 19.1668 0.833313 15.0628 0.833313 10.0002C0.833313 4.93755 4.93737 0.833496 9.99998 0.833496C15.0626 0.833496 19.1666 4.93755 19.1666 10.0002ZM17.9166 10.0002C17.9166 14.3724 14.3722 17.9168 9.99998 17.9168C5.62773 17.9168 2.08331 14.3724 2.08331 10.0002C2.08331 5.62791 5.62773 2.0835 9.99998 2.0835C14.3722 2.0835 17.9166 5.62791 17.9166 10.0002Z" fill="#18202A"/>
</g>
</g>
<defs>
<clipPath id="clip0_3293_9027">
<rect width="20" height="20" fill="white"/>
</clipPath>
<clipPath id="clip1_3293_9027">
<rect width="20" height="20" fill="white"/>
</clipPath>
</defs>
</svg>
