<svg width="20" height="20" viewBox="0 0 20 20" fill="none" xmlns="http://www.w3.org/2000/svg">
<g clip-path="url(#clip0_2266_35633)">
<path fill-rule="evenodd" clip-rule="evenodd" d="M12.5 19.6849V13.343L12.5001 18.8215C15.5528 17.9581 17.9581 15.5528 18.8216 12.5001L14.804 12.5H19.6849C19.8906 11.7009 20 10.8632 20 10C20 9.13675 19.8906 8.29905 19.6849 7.5H12.7952L18.8215 7.49967C17.958 4.44706 15.5527 2.04183 12.5001 1.17839L12.5 6.65697V0.315043L12.1552 0.232836C11.4611 0.0803627 10.7399 0 10 0L9.63164 0.00665868C8.8982 0.033217 8.1849 0.138763 7.5 0.315043V7.20482L7.4997 1.17844C4.44715 2.04192 2.04194 4.44712 1.17846 7.49967L7.20486 7.49996L0.315043 7.5L0.232836 7.84478C0.0803627 8.53891 0 9.26007 0 10C0 10.8632 0.109382 11.7009 0.315043 12.5H5.19604L1.17841 12.5001C2.04185 15.5527 4.44709 17.958 7.4997 18.8215L7.49999 12.7951L7.50398 12.7987C7.51042 12.8044 7.51688 12.8101 7.52337 12.8159L7.50398 12.7987C7.39877 12.7048 7.2989 12.605 7.20486 12.5L7.08123 12.3546C6.56133 11.711 6.25 10.8918 6.25 10C6.25 9.04705 6.60547 8.17707 7.19106 7.51551C7.19321 7.51308 7.19537 7.51065 7.19753 7.50822C7.19997 7.50548 7.20241 7.5027 7.20486 7.49996C7.29772 7.39621 7.39624 7.29769 7.5 7.20482L7.64537 7.08123C8.28903 6.56133 9.10818 6.25 10 6.25L10.2045 6.25548C11.0845 6.30277 11.884 6.65348 12.5 7.20487C12.6037 7.29766 12.7022 7.39612 12.7952 7.5C12.7962 7.50111 12.7971 7.50221 12.7981 7.50332L12.8133 7.52036C13.3962 8.18132 13.75 9.04937 13.75 10C13.75 10.9604 13.3889 11.8366 12.7952 12.5L12.7993 12.4952C12.7052 12.6008 12.6051 12.7011 12.4998 12.7953L12.4989 12.7961L12.3546 12.9188C11.711 13.4387 10.8918 13.75 10 13.75C9.03958 13.75 8.16343 13.3889 7.49999 12.7951L7.5 19.6849L7.84478 19.7671C8.53891 19.9196 9.26007 20 10 20L10.3684 19.9933C11.1018 19.9668 11.8151 19.8612 12.5 19.6849ZM7.20486 12.5C7.20475 12.4998 7.20496 12.5001 7.20486 12.5V12.5ZM11.142 14.8687L11.25 14.8408V18.6592L11.1085 18.6806C10.7433 18.7267 10.3733 18.75 10 18.75L9.61656 18.7418C9.36179 18.7308 9.1088 18.7089 8.85805 18.6763L8.75 18.6592V14.8408L8.85801 14.8687C9.22796 14.9552 9.61066 15 10 15C10.3893 15 10.772 14.9552 11.142 14.8687ZM14.8408 8.75H18.6592L18.6806 8.89151C18.7267 9.25672 18.75 9.62669 18.75 10L18.7422 10.3721C18.7319 10.6194 18.7113 10.865 18.6806 11.1085L18.6592 11.25H14.8408L14.8687 11.142C14.9552 10.772 15 10.3893 15 10L14.9946 9.76724C14.9804 9.45809 14.9379 9.15397 14.8687 8.85801L14.8408 8.75ZM1.34 8.75H5.15833L5.13133 8.85799C5.04483 9.22794 5 9.61065 5 10L5.00526 10.2307C5.01925 10.5371 5.06102 10.8387 5.12909 11.1324L5.15917 11.25H1.34L1.31942 11.1085C1.27331 10.7433 1.25 10.3733 1.25 10L1.25823 9.61653C1.26919 9.36175 1.29107 9.10875 1.32371 8.858L1.34 8.75ZM8.89145 1.31942C9.25667 1.27331 9.62666 1.25 10 1.25L10.3835 1.25823C10.6382 1.26919 10.8912 1.29107 11.142 1.3237L11.25 1.34V5.15833L11.142 5.13133C10.7721 5.04483 10.3894 5 10 5L9.76932 5.00526C9.46289 5.01925 9.16129 5.06102 8.86757 5.12908L8.75 5.15833V1.34L8.89145 1.31942Z" fill="#18202A"/>
</g>
<defs>
<clipPath id="clip0_2266_35633">
<rect width="20" height="20" fill="white"/>
</clipPath>
</defs>
</svg>
