<svg width="20" height="20" viewBox="0 0 20 20" fill="none" xmlns="http://www.w3.org/2000/svg">
<path fill-rule="evenodd" clip-rule="evenodd" d="M8.46018 18.8614C8.01522 18.5281 7.69021 18.0596 7.53369 17.5262L9.13295 17.057C9.18813 17.2451 9.30269 17.4101 9.45938 17.5275C9.61606 17.6449 9.80646 17.7083 10.0021 17.7083C10.1977 17.7083 10.3881 17.6449 10.5448 17.5275C10.7014 17.4101 10.816 17.2451 10.8712 17.057L12.4705 17.5262C12.3139 18.0596 11.9889 18.5281 11.544 18.8614C11.099 19.1947 10.558 19.3749 10.0021 19.3749C9.44611 19.3749 8.90515 19.1947 8.46018 18.8614Z" fill="#18202A"/>
<path fill-rule="evenodd" clip-rule="evenodd" d="M9.99999 0.833252C10.4602 0.833252 10.8333 1.20635 10.8333 1.66659V2.49992C10.8333 2.96016 10.4602 3.33325 9.99999 3.33325C9.53975 3.33325 9.16665 2.96016 9.16665 2.49992V1.66659C9.16665 1.20635 9.53975 0.833252 9.99999 0.833252Z" fill="#18202A"/>
<path d="M5.4027 4.35956C6.62198 3.16885 8.27567 2.49992 9.99999 2.49992C11.7243 2.49992 13.378 3.16885 14.5973 4.35956C15.8166 5.55027 16.5015 7.16521 16.5015 8.84912C16.5015 11.9992 17.2775 13.8584 17.9177 14.8564C18.1361 15.1967 17.8646 15.8333 17.4602 15.8333H2.53977C2.13542 15.8333 1.8639 15.1967 2.08224 14.8564C2.72248 13.8584 3.49844 11.9992 3.49844 8.84912C3.49844 7.16521 4.18342 5.55027 5.4027 4.35956Z" fill="#18202A"/>
</svg>
