<svg width="20" height="20" viewBox="0 0 20 20" fill="none" xmlns="http://www.w3.org/2000/svg">
<path fill-rule="evenodd" clip-rule="evenodd" d="M9.16666 3.74984C9.16666 4.21007 9.53975 4.58317 9.99999 4.58317C10.4602 4.58317 10.8333 4.21007 10.8333 3.74984C10.8333 3.2896 10.4602 2.9165 9.99999 2.9165C9.53975 2.9165 9.16666 3.2896 9.16666 3.74984ZM7.91666 3.74984C7.91666 4.90043 8.8494 5.83317 9.99999 5.83317C11.1506 5.83317 12.0833 4.90043 12.0833 3.74984C12.0833 2.59924 11.1506 1.6665 9.99999 1.6665C8.8494 1.6665 7.91666 2.59924 7.91666 3.74984Z" fill="#18202A"/>
<path fill-rule="evenodd" clip-rule="evenodd" d="M9.16666 9.99984C9.16666 10.4601 9.53975 10.8332 9.99999 10.8332C10.4602 10.8332 10.8333 10.4601 10.8333 9.99984C10.8333 9.5396 10.4602 9.1665 9.99999 9.1665C9.53975 9.1665 9.16666 9.5396 9.16666 9.99984ZM7.91666 9.99984C7.91666 11.1504 8.8494 12.0832 9.99999 12.0832C11.1506 12.0832 12.0833 11.1504 12.0833 9.99984C12.0833 8.84924 11.1506 7.9165 9.99999 7.9165C8.8494 7.9165 7.91666 8.84924 7.91666 9.99984Z" fill="#18202A"/>
<path fill-rule="evenodd" clip-rule="evenodd" d="M9.16666 16.2498C9.16666 16.7101 9.53975 17.0832 9.99999 17.0832C10.4602 17.0832 10.8333 16.7101 10.8333 16.2498C10.8333 15.7896 10.4602 15.4165 9.99999 15.4165C9.53975 15.4165 9.16666 15.7896 9.16666 16.2498ZM7.91666 16.2498C7.91666 17.4004 8.8494 18.3332 9.99999 18.3332C11.1506 18.3332 12.0833 17.4004 12.0833 16.2498C12.0833 15.0992 11.1506 14.1665 9.99999 14.1665C8.8494 14.1665 7.91666 15.0992 7.91666 16.2498Z" fill="#18202A"/>
</svg>
