<svg width="20" height="20" viewBox="0 0 20 20" fill="none" xmlns="http://www.w3.org/2000/svg">
<g clip-path="url(#clip0_2266_41152)">
<path fill-rule="evenodd" clip-rule="evenodd" d="M17.9167 9.99992C17.9167 14.3722 14.3723 17.9166 10 17.9166C5.62776 17.9166 2.08334 14.3722 2.08334 9.99992C2.08334 5.62766 5.62776 2.08325 10 2.08325C14.3723 2.08325 17.9167 5.62766 17.9167 9.99992ZM19.1667 9.99992C19.1667 15.0625 15.0626 19.1666 10 19.1666C4.9374 19.1666 0.833344 15.0625 0.833344 9.99992C0.833344 4.93731 4.9374 0.833252 10 0.833252C15.0626 0.833252 19.1667 4.93731 19.1667 9.99992ZM6.66668 9.37492C6.3215 9.37492 6.04168 9.65474 6.04168 9.99992C6.04168 10.3451 6.3215 10.6249 6.66668 10.6249H13.3333C13.6785 10.6249 13.9583 10.3451 13.9583 9.99992C13.9583 9.65474 13.6785 9.37492 13.3333 9.37492H6.66668Z" fill="#18202A"/>
</g>
<defs>
<clipPath id="clip0_2266_41152">
<rect width="20" height="20" fill="white"/>
</clipPath>
</defs>
</svg>
