<svg width="20" height="20" viewBox="0 0 20 20" fill="none" xmlns="http://www.w3.org/2000/svg">
<path fill-rule="evenodd" clip-rule="evenodd" d="M12.7878 1.12889C12.425 0.934671 12.0198 0.833008 11.6083 0.833008H8.39158C7.98002 0.833008 7.57483 0.934671 7.21199 1.12889C6.84914 1.3231 6.53985 1.6039 6.31158 1.94634L5.63491 2.96217C5.55879 3.07627 5.45568 3.16982 5.33473 3.2345C5.21385 3.29916 5.0789 3.33299 4.94183 3.33301L4.81927 3.33686C2.60194 3.43149 0.833344 5.25905 0.833344 7.49967V14.1663C0.833344 16.4675 2.69883 18.333 5.00001 18.333H15C17.3012 18.333 19.1667 16.4675 19.1667 14.1663V7.49967C19.1667 5.19849 17.3012 3.33301 15 3.33301H15.058C14.9209 3.33299 14.7859 3.29916 14.6651 3.2345C14.5442 3.16982 14.441 3.07627 14.3649 2.96217L13.6883 1.94634C13.4599 1.6039 13.1507 1.3231 12.7878 1.12889ZM8.39158 2.08301H11.6083L11.7311 2.08907C11.8941 2.10519 12.0528 2.15325 12.1979 2.23094C12.3793 2.32804 12.534 2.46846 12.6482 2.63979L13.3246 3.65516L13.4254 3.79367C13.6024 4.017 13.8235 4.20191 14.0755 4.3367L14.2293 4.41107C14.438 4.50158 14.6603 4.55729 14.8871 4.57597L15 4.58301L15.16 4.58732C16.6964 4.6704 17.9167 5.94255 17.9167 7.49967V14.1663L17.9124 14.3264C17.8293 15.8628 16.5571 17.083 15 17.083H5.00001L4.83998 17.0787C3.30358 16.9956 2.08334 15.7235 2.08334 14.1663V7.49967L2.08766 7.33965C2.17074 5.80324 3.44288 4.58301 5.00001 4.57967L5.11276 4.57598C5.3962 4.55263 5.67248 4.47143 5.92432 4.33671C6.22661 4.17505 6.48441 3.94118 6.67473 3.65592L7.3519 2.63932L7.42502 2.54056C7.52873 2.41403 7.65674 2.30863 7.80188 2.23094C7.98333 2.13382 8.18589 2.08301 8.39158 2.08301ZM7.47073 8.14554C8.11424 7.4891 9.00914 7.08301 10 7.08301C11.5465 7.08301 12.8615 8.07424 13.3443 9.45604L12.4116 9.58929C12.1614 9.62504 11.9573 9.80801 11.8946 10.0529C11.8318 10.2978 11.9228 10.5563 12.125 10.708L13.7917 11.958C14.0678 12.1651 14.4596 12.1091 14.6667 11.833L15.9167 10.1663C16.0684 9.96411 16.0833 9.69043 15.9545 9.47291C15.8257 9.25539 15.5785 9.13687 15.3283 9.17262L14.5995 9.27674C14.0172 7.28661 12.1784 5.83301 10 5.83301C8.65973 5.83301 7.44703 6.38411 6.5781 7.27048C6.33646 7.51697 6.3404 7.91268 6.58689 8.15432C6.83338 8.39596 7.22909 8.39203 7.47073 8.14554ZM6.20835 9.29134C5.9322 9.08423 5.54045 9.1402 5.33335 9.41634L4.08335 11.083C3.93167 11.2852 3.91675 11.5589 4.04555 11.7764C4.17434 11.994 4.42149 12.1125 4.67173 12.0767L5.40054 11.9726C5.98282 13.9627 7.82166 15.4163 10 15.4163C11.3403 15.4163 12.553 14.8652 13.4219 13.9789C13.6636 13.7324 13.6596 13.3367 13.4131 13.095C13.1666 12.8534 12.7709 12.8573 12.5293 13.1038C11.8858 13.7602 10.9909 14.1663 10 14.1663C8.4535 14.1663 7.13849 13.1751 6.65568 11.7933L7.5884 11.6601C7.83865 11.6243 8.04272 11.4413 8.10546 11.1965C8.1682 10.9516 8.07724 10.693 7.87501 10.5413L6.20835 9.29134Z" fill="#18202A"/>
</svg>
