<svg width="20" height="20" viewBox="0 0 20 20" fill="none" xmlns="http://www.w3.org/2000/svg">
<g clip-path="url(#clip0_2266_38926)">
<path d="M8.62118 0.308865C9.62033 0.162164 10.6195 0.1755 11.6186 0.348873C12.6178 0.522247 13.5636 0.835652 14.4562 1.28909C14.6028 1.36911 14.7027 1.4958 14.756 1.66918C14.8093 1.82921 14.7959 1.98258 14.716 2.12928C14.6361 2.27598 14.5162 2.38267 14.3563 2.44936C14.1964 2.5027 14.0366 2.48937 13.8767 2.40935C13.104 2.00926 12.2781 1.73586 11.3988 1.58916C10.5329 1.44246 9.6603 1.43579 8.78105 1.56915C7.91512 1.68918 7.08249 1.94257 6.28317 2.32933C5.49718 2.70275 4.78445 3.18953 4.14499 3.78966C4.0251 3.90969 3.87855 3.96971 3.70537 3.96971C3.53218 3.95637 3.38564 3.88969 3.26574 3.76966C3.14584 3.64963 3.08589 3.50293 3.08589 3.32956C3.09922 3.15618 3.16583 3.00948 3.28572 2.88946C4.01843 2.19596 4.83774 1.62917 5.74363 1.18907C6.64953 0.748965 7.60871 0.455565 8.62118 0.308865ZM2.74618 4.3898C2.89273 4.49649 2.97932 4.63653 3.00596 4.8099C3.03261 4.96994 2.9993 5.11664 2.90605 5.25C2.27991 6.21022 1.85361 7.24379 1.62714 8.35071C1.40066 9.45763 1.40066 10.5712 1.62714 11.6915C1.6671 11.8649 1.64046 12.0249 1.5472 12.1716C1.45395 12.3183 1.32073 12.405 1.14754 12.4317C0.974358 12.4583 0.814494 12.4317 0.667952 12.3516C0.534732 12.2583 0.448139 12.1249 0.408173 11.9515C0.141734 10.6579 0.141734 9.37761 0.408173 8.11066C0.674613 6.79035 1.16087 5.60342 1.86693 4.54984C1.97351 4.40314 2.10673 4.31645 2.26659 4.28978C2.43978 4.26311 2.59964 4.29645 2.74618 4.3898ZM16.2347 2.46936C16.1015 2.36267 15.9483 2.31599 15.7751 2.32933C15.6019 2.34267 15.462 2.41602 15.3555 2.54938C15.2489 2.68274 15.2022 2.83611 15.2156 3.00949C15.2289 3.18286 15.3022 3.32289 15.4354 3.42958C16.1814 4.05639 16.8076 4.78989 17.3138 5.63009C17.82 6.47028 18.1664 7.37049 18.3529 8.33071L18.3929 8.41073C18.4994 9.05087 18.5461 9.64434 18.5327 10.1911C18.5327 10.3645 18.5927 10.5112 18.7126 10.6312C18.8325 10.7513 18.979 10.8179 19.1522 10.8313C19.3254 10.8313 19.4719 10.7713 19.5918 10.6512C19.7117 10.5312 19.7784 10.3845 19.7917 10.2111C19.7917 9.45097 19.7251 8.73747 19.5918 8.07065L19.5719 7.99063C19.3454 6.89705 18.9457 5.88348 18.3729 4.94993C17.8 4.00305 17.0873 3.17619 16.2347 2.46936ZM10.6195 9.89107C10.5795 9.71769 10.4863 9.58433 10.3397 9.49097C10.2065 9.39762 10.0533 9.36428 9.88011 9.39095C9.70693 9.41762 9.57371 9.50431 9.48045 9.65101C9.3872 9.79771 9.35389 9.95775 9.38054 10.1311C9.68694 11.6115 9.64698 13.0851 9.26064 14.5521C8.84766 16.0458 8.14825 17.3461 7.16243 18.453C7.05585 18.5864 7.00256 18.7398 7.00256 18.9131C7.01588 19.0865 7.08915 19.2265 7.22237 19.3332C7.35559 19.4533 7.5088 19.5066 7.68198 19.4933C7.85517 19.4799 7.99505 19.4066 8.10163 19.2732C9.22067 18.0063 10.0067 16.5393 10.4596 14.8722C10.8992 13.2585 10.9525 11.5981 10.6195 9.89107ZM9.4205 7.15044C9.83349 7.05708 10.2132 7.05041 10.5595 7.13043C10.9459 7.18378 11.2989 7.32381 11.6186 7.55053C11.9517 7.76391 12.2248 8.03731 12.4379 8.37072C12.6511 8.69079 12.791 9.04421 12.8576 9.43096C13.1107 10.4845 13.1906 11.6181 13.0974 12.8317C13.0041 14.0187 12.7577 15.199 12.358 16.3726C11.9583 17.5328 11.4388 18.5864 10.7993 19.5333C10.7061 19.6666 10.5729 19.7467 10.3997 19.7733C10.2398 19.8133 10.0866 19.7867 9.94006 19.6933C9.79352 19.6 9.70693 19.4666 9.68028 19.2932C9.65364 19.1199 9.68694 18.9598 9.7802 18.8131C10.3664 17.9596 10.8393 17.006 11.199 15.9525C11.5587 14.8855 11.7785 13.8186 11.8584 12.7517C11.9384 11.6448 11.8651 10.6312 11.6386 9.71103V9.65101C11.5986 9.42429 11.5187 9.22425 11.3988 9.05087C11.2789 8.86416 11.1257 8.71079 10.9392 8.59077C10.766 8.47074 10.5595 8.39072 10.3197 8.35071C10.0933 8.3107 9.88011 8.31737 9.68028 8.37072H9.6603C9.44715 8.41073 9.24732 8.49074 9.06081 8.61077C8.8743 8.7308 8.7211 8.88417 8.6012 9.07088C8.4813 9.24425 8.40137 9.4443 8.36141 9.67102C8.32144 9.8844 8.32144 10.1044 8.36141 10.3312C8.66781 11.8248 8.58788 13.2785 8.12161 14.6922C7.64202 16.1592 6.86934 17.3861 5.80358 18.373C5.67036 18.493 5.51716 18.5464 5.34397 18.5331C5.17079 18.5331 5.03091 18.473 4.92433 18.353C4.81775 18.233 4.76447 18.0796 4.76447 17.8929C4.76447 17.7195 4.82442 17.5728 4.94431 17.4528C5.86353 16.5859 6.52297 15.539 6.92263 14.3121C7.32229 13.0718 7.39556 11.8315 7.14244 10.5912C7.06251 10.2311 7.05585 9.85106 7.12246 9.45096C7.20239 9.05087 7.34893 8.69746 7.56209 8.39072C7.80188 8.04398 8.06832 7.77058 8.36141 7.57053C8.7211 7.34381 9.07413 7.20378 9.4205 7.15044ZM6.24321 11.6315C6.22989 11.4581 6.15661 11.3181 6.0234 11.2114C5.9035 11.0913 5.75695 11.038 5.58377 11.0513C5.41058 11.0647 5.26404 11.138 5.14414 11.2714C5.02425 11.3914 4.97096 11.5381 4.98428 11.7115C5.03757 12.525 4.90435 13.3185 4.58462 14.092C4.26489 14.8522 3.77864 15.4924 3.12586 16.0125C2.99264 16.1192 2.91937 16.2592 2.90605 16.4326C2.89273 16.6059 2.93935 16.7593 3.04593 16.8927C3.1525 17.026 3.28572 17.0994 3.44559 17.1127C3.61877 17.1261 3.77864 17.0794 3.92518 16.9727C4.71118 16.3192 5.31067 15.5257 5.72365 14.5921C6.13663 13.6586 6.30982 12.6717 6.24321 11.6315ZM9.72025 4.8099C10.3464 4.78323 10.9525 4.86324 11.5387 5.04995C12.1382 5.22333 12.6844 5.50339 13.1773 5.89015C13.6835 6.2769 14.0965 6.73701 14.4163 7.27046C14.7493 7.79058 14.9758 8.35738 15.0957 8.97086C15.2289 9.66435 15.3155 10.2712 15.3555 10.7913C15.3688 10.9646 15.3221 11.118 15.2156 11.2514C15.109 11.3847 14.9691 11.4581 14.7959 11.4714C14.6227 11.4848 14.4695 11.4381 14.3363 11.3314C14.2031 11.2114 14.1298 11.0647 14.1165 10.8913C14.0366 10.1445 13.9566 9.591 13.8767 9.23091C13.7835 8.76414 13.6103 8.33071 13.3572 7.93062C13.1174 7.53052 12.8043 7.18378 12.418 6.89038C12.0316 6.59698 11.612 6.38359 11.159 6.25023C10.7194 6.10353 10.2598 6.04352 9.7802 6.07019C9.31393 6.08352 8.86098 6.18355 8.42135 6.37026C7.98173 6.55697 7.58873 6.81703 7.24236 7.15044C6.90931 7.48385 6.63621 7.86393 6.42305 8.2907C6.22323 8.71746 6.10333 9.16423 6.06336 9.63101C6.03672 9.80438 5.95678 9.94441 5.82356 10.0511C5.70367 10.1578 5.55712 10.2045 5.38394 10.1911C5.21075 10.1645 5.07087 10.0911 4.9643 9.97108C4.85772 9.83772 4.81109 9.68435 4.82442 9.51098C4.8777 8.8975 5.03757 8.3107 5.30401 7.75057C5.58377 7.19045 5.95012 6.697 6.40307 6.27023C6.85602 5.83013 7.36892 5.48339 7.94176 5.23C8.51461 4.9766 9.10744 4.83657 9.72025 4.8099ZM15.3754 12.9518C15.3888 12.7784 15.3355 12.6317 15.2156 12.5117C15.109 12.3783 14.9691 12.305 14.7959 12.2916C14.6227 12.2783 14.4695 12.3316 14.3363 12.4517C14.2164 12.5717 14.1498 12.7184 14.1365 12.8918C14.0166 14.7989 13.5437 16.5993 12.7177 18.293C12.6511 18.453 12.6444 18.6131 12.6977 18.7731C12.751 18.9331 12.8509 19.0465 12.9975 19.1132C13.1573 19.1932 13.3172 19.2065 13.4771 19.1532C13.6502 19.0999 13.7701 18.9932 13.8367 18.8331C14.7426 17.006 15.2555 15.0456 15.3754 12.9518ZM8.50129 3.26955C8.55457 3.44292 8.54125 3.60295 8.46132 3.74966C8.38139 3.89636 8.26149 3.99638 8.10163 4.04972C7.36892 4.28978 6.70282 4.64986 6.10333 5.12997C5.50384 5.61008 5.01092 6.18355 4.62459 6.85037C4.23825 7.50385 3.97847 8.20401 3.84525 8.95085C3.71203 9.69769 3.71869 10.4445 3.86523 11.1914L3.88521 11.2514C4.03176 11.9849 3.98513 12.705 3.74533 13.4119C3.50554 14.1054 3.09922 14.6855 2.52637 15.1523C2.39315 15.259 2.23995 15.3123 2.06676 15.3123C1.89358 15.299 1.7537 15.2256 1.64712 15.0923C1.54054 14.9589 1.48725 14.8055 1.48725 14.6322C1.50058 14.4588 1.57385 14.3121 1.70707 14.1921C2.09341 13.8853 2.37983 13.4786 2.56634 12.9718C2.71288 12.4917 2.74618 12.0182 2.66625 11.5514C2.66625 11.5248 2.65959 11.5048 2.64627 11.4914C2.45976 10.5846 2.44644 9.67768 2.6063 8.77081C2.76617 7.86393 3.07923 7.0104 3.5455 6.21022C4.01177 5.41004 4.6046 4.72321 5.32399 4.14975C6.04338 3.57628 6.8427 3.14952 7.72195 2.86945C7.88181 2.81611 8.03502 2.82944 8.18156 2.90946C8.34142 2.98948 8.448 3.10951 8.50129 3.26955ZM10 2.70942C9.82682 2.70942 9.68028 2.76943 9.56038 2.88946C9.44049 3.00948 9.38054 3.15618 9.38054 3.32956C9.38054 3.50293 9.44049 3.6563 9.56038 3.78966C9.68028 3.90969 9.82682 3.96971 10 3.96971C10.7194 3.96971 11.4188 4.08973 12.0982 4.32979C12.7776 4.56984 13.3971 4.91659 13.9566 5.37003C14.5162 5.82347 14.9758 6.36359 15.3355 6.9904C15.7085 7.60387 15.9683 8.26403 16.1148 8.97086V8.99086C16.3679 10.2445 16.4745 11.5048 16.4345 12.7717C16.4079 14.0387 16.228 15.2856 15.895 16.5126C15.8417 16.686 15.855 16.846 15.935 16.9927C16.0282 17.1394 16.1614 17.2328 16.3346 17.2728C16.5078 17.3261 16.6677 17.3061 16.8142 17.2127C16.9608 17.1327 17.054 17.006 17.094 16.8327C17.4403 15.499 17.6335 14.152 17.6735 12.7917C17.7268 11.4181 17.6135 10.0644 17.3338 8.7308C17.1606 7.87727 16.8475 7.08376 16.3946 6.35025C15.9549 5.60342 15.4021 4.9566 14.736 4.40981C14.0832 3.86301 13.3438 3.44292 12.5179 3.14952C11.7052 2.85612 10.8659 2.70942 10 2.70942Z" fill="#18202A"/>
</g>
<defs>
<clipPath id="clip0_2266_38926">
<rect width="20" height="20" fill="white"/>
</clipPath>
</defs>
</svg>
