<svg width="20" height="20" viewBox="0 0 20 20" fill="none" xmlns="http://www.w3.org/2000/svg">
<path fill-rule="evenodd" clip-rule="evenodd" d="M10 10.4163C11.1506 10.4163 12.0833 9.4836 12.0833 8.33301C12.0833 7.18241 11.1506 6.24967 10 6.24967C8.84942 6.24967 7.91668 7.18241 7.91668 8.33301C7.91668 9.4836 8.84942 10.4163 10 10.4163ZM10 11.6663C11.841 11.6663 13.3333 10.174 13.3333 8.33301C13.3333 6.49206 11.841 4.99967 10 4.99967C8.15906 4.99967 6.66668 6.49206 6.66668 8.33301C6.66668 10.174 8.15906 11.6663 10 11.6663Z" fill="#18202A"/>
<path d="M10 0.833008C11.5658 0.833008 13.0963 1.2973 14.3983 2.16717C15.7001 3.03706 16.7148 4.27344 17.314 5.72C17.9133 7.16656 18.07 8.75834 17.7646 10.294C17.4592 11.8297 16.7052 13.2403 15.5981 14.3474L11.8653 18.3836C11.6205 18.6286 11.3298 18.8229 11.0098 18.9556C10.6897 19.0883 10.3465 19.1566 10 19.1566C9.65351 19.1566 9.31034 19.0883 8.99026 18.9556C8.67009 18.8229 8.37926 18.6284 8.13435 18.3833L4.40194 14.3474C3.29482 13.2403 2.54087 11.8297 2.23543 10.294C1.93 8.75834 2.0868 7.16656 2.68601 5.72C3.28521 4.27344 4.29991 3.03706 5.60179 2.16717C6.90367 1.2973 8.43426 0.833008 10 0.833008ZM10 2.08301C8.68148 2.08301 7.39256 2.47399 6.29625 3.20651C5.19992 3.93905 4.34544 4.98022 3.84085 6.19837C3.33626 7.41652 3.20421 8.75697 3.46142 10.0502C3.70148 11.2571 4.27055 12.3724 5.13085 13.3023L5.31965 13.4987L9.0187 17.4998C9.14752 17.6288 9.30045 17.7311 9.46887 17.8008C9.63728 17.8706 9.81782 17.9066 10 17.9066C10.1822 17.9066 10.3627 17.8706 10.531 17.8009C10.6658 17.745 10.7906 17.6684 10.8839 17.5919L10.9476 17.5349L14.7142 13.4636C15.6465 12.5312 16.2814 11.3433 16.5386 10.0502C16.7958 8.75692 16.6638 7.41647 16.1592 6.19834C15.6546 4.98026 14.8001 3.93908 13.7038 3.20653C12.6075 2.47399 11.3185 2.08301 10 2.08301Z" fill="#18202A"/>
</svg>
