<svg width="20" height="20" viewBox="0 0 20 20" fill="none" xmlns="http://www.w3.org/2000/svg">
<path d="M8.35067 3.39799C6.43786 2.83605 4.41436 2.76474 2.46674 3.19062C2.12953 3.26436 1.79639 3.05077 1.72265 2.71356C1.64891 2.37635 1.8625 2.04321 2.19971 1.96948C4.35234 1.49876 6.58885 1.57758 8.703 2.19868C10.8172 2.81977 12.7409 3.96315 14.2969 5.52337C15.8529 7.0836 16.991 9.01047 17.6063 11.1263C18.2217 13.2421 18.2944 15.4789 17.8178 17.6302C17.7432 17.9672 17.4095 18.1799 17.0725 18.1052C16.7354 18.0306 16.5228 17.6969 16.5974 17.3598C17.0286 15.4134 16.9628 13.3897 16.4061 11.4754C15.8493 9.56104 14.8196 7.81769 13.4118 6.40605C12.004 4.99442 10.2635 3.95994 8.35067 3.39799Z" fill="#18202A"/>
<path d="M6.38431 8.06433C5.07985 7.78937 3.72359 7.89959 2.48065 8.38157C2.15882 8.50637 1.79676 8.34665 1.67196 8.02482C1.54717 7.70299 1.70689 7.34093 2.02872 7.21613C3.49765 6.64651 5.1005 6.51625 6.64213 6.84121C8.18376 7.16617 9.59766 7.93234 10.7117 9.04642C11.8257 10.1605 12.5918 11.5744 12.9167 13.1161C13.2415 14.6577 13.1112 16.2606 12.5415 17.7295C12.4167 18.0513 12.0546 18.211 11.7328 18.0862C11.411 17.9614 11.2513 17.5993 11.3761 17.2775C11.8581 16.0346 11.9684 14.6783 11.6935 13.3738C11.4186 12.0694 10.7704 10.873 9.82777 9.93028C8.88514 8.98759 7.68877 8.3393 6.38431 8.06433Z" fill="#18202A"/>
<path fill-rule="evenodd" clip-rule="evenodd" d="M8.33682 14.9998C8.33682 16.8408 6.84443 18.3332 5.00348 18.3332C3.16253 18.3332 1.67015 16.8408 1.67015 14.9998C1.67015 13.1589 3.16253 11.6665 5.00348 11.6665C6.84443 11.6665 8.33682 13.1589 8.33682 14.9998ZM7.08681 14.9998C7.08681 16.1504 6.15407 17.0832 5.00348 17.0832C3.85289 17.0832 2.92015 16.1504 2.92015 14.9998C2.92015 13.8492 3.85289 12.9165 5.00348 12.9165C6.15407 12.9165 7.08681 13.8492 7.08681 14.9998Z" fill="#18202A"/>
</svg>
