<svg width="20" height="20" viewBox="0 0 20 20" fill="none" xmlns="http://www.w3.org/2000/svg">
<path fill-rule="evenodd" clip-rule="evenodd" d="M9.99998 9.99967C11.6667 9.99967 12.5 8.33301 12.5 6.24967C12.5 4.58301 11.6667 3.33301 9.99998 3.33301C8.33332 3.33301 7.49998 4.58301 7.49998 6.24967C7.49998 8.33301 8.33332 9.99967 9.99998 9.99967ZM10.8104 8.2508C11.066 7.83547 11.25 7.15012 11.25 6.24967C11.25 5.60699 11.0877 5.18319 10.8989 4.94721C10.7401 4.74877 10.488 4.58301 9.99998 4.58301C9.51196 4.58301 9.25982 4.74877 9.10107 4.94721C8.91228 5.18319 8.74998 5.60699 8.74998 6.24967C8.74998 7.15012 8.93397 7.83547 9.18956 8.2508C9.41368 8.615 9.66349 8.74967 9.99998 8.74967C10.3365 8.74967 10.5863 8.615 10.8104 8.2508Z" fill="#18202A"/>
<path fill-rule="evenodd" clip-rule="evenodd" d="M12.2242 18.1692C13.2785 18.0125 14.1887 17.3412 14.632 16.3718C14.7884 16.0297 14.9308 15.6799 15.0584 15.323C15.4947 14.1028 15.1296 12.7105 14.0381 12.0118C12.8724 11.2656 11.4867 10.833 9.99998 10.833C8.51322 10.833 7.12751 11.2656 5.96185 12.0118C4.8704 12.7105 4.50521 14.1028 4.94154 15.323C5.06914 15.6799 5.21153 16.0297 5.36795 16.3718C5.81125 17.3412 6.72141 18.0125 7.77579 18.1692C8.50153 18.2771 9.24422 18.333 9.99998 18.333C10.7557 18.333 11.4984 18.2771 12.2242 18.1692ZM9.99998 17.083C10.694 17.083 11.3753 17.0317 12.0404 16.9328C12.6858 16.8369 13.2318 16.428 13.4952 15.852C13.6369 15.5421 13.7658 15.2253 13.8814 14.9022C14.1529 14.1428 13.8909 13.4017 13.3642 13.0646C12.3937 12.4433 11.2408 12.083 9.99998 12.083C8.75914 12.083 7.60627 12.4433 6.63578 13.0646C6.10909 13.4017 5.84703 14.1428 6.11856 14.9022C6.23411 15.2253 6.36305 15.5421 6.50473 15.852C6.76813 16.428 7.31413 16.8369 7.95958 16.9328C8.62467 17.0317 9.30594 17.083 9.99998 17.083Z" fill="#18202A"/>
<path fill-rule="evenodd" clip-rule="evenodd" d="M6.66665 8.02051C6.66665 9.58301 5.97221 10.833 4.58332 10.833C3.19443 10.833 2.49998 9.58301 2.49998 8.02051C2.49998 6.77051 3.19443 5.83301 4.58332 5.83301C5.97221 5.83301 6.66665 6.77051 6.66665 8.02051ZM5.41665 8.02051C5.41665 8.63959 5.27574 9.07056 5.11397 9.30716C4.98625 9.49394 4.84173 9.58301 4.58332 9.58301C4.32491 9.58301 4.18038 9.49394 4.05267 9.30716C3.89089 9.07056 3.74998 8.63959 3.74998 8.02051C3.74998 7.61614 3.86167 7.39354 3.95508 7.28846C4.02895 7.20536 4.18765 7.08301 4.58332 7.08301C4.97899 7.08301 5.13769 7.20536 5.21156 7.28846C5.30496 7.39354 5.41665 7.61614 5.41665 8.02051Z" fill="#18202A"/>
<path fill-rule="evenodd" clip-rule="evenodd" d="M15.4167 10.833C16.8055 10.833 17.5 9.58301 17.5 8.02051C17.5 6.77051 16.8055 5.83301 15.4167 5.83301C14.0278 5.83301 13.3333 6.77051 13.3333 8.02051C13.3333 9.58301 14.0278 10.833 15.4167 10.833ZM15.9473 9.30716C16.1091 9.07056 16.25 8.63959 16.25 8.02051C16.25 7.61614 16.1383 7.39354 16.0449 7.28846C15.971 7.20536 15.8123 7.08301 15.4167 7.08301C15.021 7.08301 14.8623 7.20536 14.7884 7.28846C14.695 7.39354 14.5833 7.61614 14.5833 8.02051C14.5833 8.63959 14.7242 9.07056 14.886 9.30716C15.0137 9.49394 15.1582 9.58301 15.4167 9.58301C15.6751 9.58301 15.8196 9.49394 15.9473 9.30716Z" fill="#18202A"/>
<path d="M17.4779 16.5146C16.9515 16.5899 16.4162 16.6378 15.8736 16.6569C16.0041 16.3576 16.1248 16.0532 16.2354 15.7438C16.2782 15.6242 16.3156 15.5026 16.3475 15.3798C16.6687 15.3565 16.9867 15.3221 17.3011 15.2772C17.7237 15.2168 18.0541 14.9351 18.177 14.5549C18.3321 14.0755 18.1256 13.6783 17.8572 13.5369C17.3719 13.2812 16.8428 13.0969 16.2832 12.9985C16.1264 12.5174 15.8782 12.064 15.5357 11.6692C16.5822 11.6999 17.5681 11.9717 18.4398 12.431C19.3322 12.9011 19.6768 13.9799 19.3664 14.9396C19.0923 15.787 18.3596 16.3886 17.4779 16.5146Z" fill="#18202A"/>
<path d="M1.67307 12.2902C2.52209 11.8933 3.46853 11.6701 4.4667 11.6663C4.12975 12.054 3.88377 12.4983 3.7262 12.9699C3.18793 13.046 2.67626 13.2011 2.20236 13.4226C1.89639 13.5656 1.65628 14.0027 1.82652 14.5326C1.96034 14.9492 2.32548 15.2547 2.78915 15.3119C3.07516 15.3472 3.36401 15.3738 3.65544 15.3913C3.68669 15.5102 3.72306 15.6279 3.76452 15.7438C3.87576 16.0549 3.99724 16.3611 4.12856 16.662C3.62449 16.6499 3.12658 16.6131 2.636 16.5525C1.70381 16.4374 0.923694 15.8092 0.63642 14.9149C0.30808 13.8928 0.700518 12.7447 1.67307 12.2902Z" fill="#18202A"/>
</svg>
