<svg width="20" height="20" viewBox="0 0 20 20" fill="none" xmlns="http://www.w3.org/2000/svg">
<path d="M5.83332 2.9165H9.16666C10.7775 2.9165 12.0833 4.22234 12.0833 5.83317V6.6665C12.0833 7.01168 12.3631 7.2915 12.7083 7.2915C13.0535 7.2915 13.3333 7.01168 13.3333 6.6665V5.83317C13.3333 3.53198 11.4678 1.6665 9.16666 1.6665H5.83332C3.53214 1.6665 1.66666 3.53198 1.66666 5.83317V14.1665C1.66666 16.4677 3.53214 18.3332 5.83332 18.3332H9.16666C11.4678 18.3332 13.3333 16.4677 13.3333 14.1665V13.4165C13.3333 13.0713 13.0535 12.7915 12.7083 12.7915C12.3631 12.7915 12.0833 13.0713 12.0833 13.4165V14.1665C12.0833 15.7773 10.7775 17.0832 9.16666 17.0832H5.83332C4.22249 17.0832 2.91666 15.7773 2.91666 14.1665V5.83317C2.91666 4.22234 4.22249 2.9165 5.83332 2.9165Z" fill="#18202A"/>
<path fill-rule="evenodd" clip-rule="evenodd" d="M14.558 7.0579C14.8021 6.81382 15.1979 6.81382 15.4419 7.0579L17.9419 9.55789C18.186 9.80197 18.186 10.1977 17.9419 10.4418L15.4419 12.9418C15.1979 13.1859 14.8021 13.1859 14.558 12.9418C14.314 12.6977 14.314 12.302 14.558 12.0579L15.9911 10.6248H7.49999C7.15481 10.6248 6.87499 10.345 6.87499 9.99984C6.87499 9.65466 7.15481 9.37484 7.49999 9.37484H15.9911L14.558 7.94178C14.314 7.6977 14.314 7.30197 14.558 7.0579Z" fill="#18202A"/>
</svg>
