<svg width="20" height="20" viewBox="0 0 20 20" fill="none" xmlns="http://www.w3.org/2000/svg">
<g clip-path="url(#clip0_2414_8643)">
<path fill-rule="evenodd" clip-rule="evenodd" d="M2.10036 9.69957V9.74234C2.10036 12.2334 3.08233 14.1031 4.59606 15.3295L5.01057 15.6653L5.18053 17.7048L7.30355 16.725L7.7235 16.8244C8.18551 16.9338 8.66786 17.0096 9.16665 17.0498V17.4999C9.16665 17.7793 9.20103 18.0507 9.26578 18.31C8.63554 18.2703 8.0233 18.1799 7.43553 18.0408L5.16394 19.0892C4.63871 19.3316 4.03231 18.9782 3.98427 18.4018L3.80919 16.3007C1.99017 14.827 0.850357 12.5942 0.850357 9.74234C0.523321 4.96962 4.9506 0.833252 10.0085 0.833252C15.0664 0.833252 19.1666 4.33325 19.1666 9.74234C19.1666 10.295 19.114 10.8396 19.0116 11.3701C18.8117 10.6587 18.4276 10.0243 17.914 9.52175C17.8061 5.00491 14.3845 2.08325 10.0085 2.08325C5.53823 2.08325 1.82875 5.73575 2.09743 9.65689L2.10036 9.69957ZM17.5 12.9166C18.4205 12.9166 19.1666 13.6628 19.1666 14.5833V17.4999C19.1666 18.4204 18.4205 19.1666 17.5 19.1666H12.5C11.5795 19.1666 10.8333 18.4204 10.8333 17.4999V14.5833C10.8333 13.6628 11.5795 12.9166 12.5 12.9166V12.4999C12.5 11.1192 13.6193 9.99992 15 9.99992C16.3807 9.99992 17.5 11.1192 17.5 12.4999V12.9166ZM16.6666 12.4999C16.6666 11.5794 15.9205 10.8333 15 10.8333C14.0795 10.8333 13.3333 11.5794 13.3333 12.4999V12.9166H16.6666V12.4999ZM15.8333 15.4166C15.8333 15.725 15.6657 15.9943 15.4166 16.1384V17.0833C15.4166 17.3134 15.2301 17.4999 15 17.4999C14.7699 17.4999 14.5833 17.3134 14.5833 17.0833V16.1384C14.3342 15.9943 14.1666 15.725 14.1666 15.4166C14.1666 14.9563 14.5397 14.5833 15 14.5833C15.4602 14.5833 15.8333 14.9563 15.8333 15.4166Z" fill="#18202A"/>
</g>
<defs>
<clipPath id="clip0_2414_8643">
<rect width="20" height="20" fill="white"/>
</clipPath>
</defs>
</svg>
