<svg width="20" height="20" viewBox="0 0 20 20" fill="none" xmlns="http://www.w3.org/2000/svg">
<path d="M7.50002 5.20817C7.15484 5.20817 6.87502 5.48799 6.87502 5.83317C6.87502 6.17835 7.15484 6.45817 7.50002 6.45817H12.5C12.8452 6.45817 13.125 6.17835 13.125 5.83317C13.125 5.48799 12.8452 5.20817 12.5 5.20817H7.50002Z" fill="#18202A"/>
<path d="M7.50002 8.5415C7.15484 8.5415 6.87502 8.82133 6.87502 9.1665C6.87502 9.51168 7.15484 9.7915 7.50002 9.7915H12.5C12.8452 9.7915 13.125 9.51168 13.125 9.1665C13.125 8.82133 12.8452 8.5415 12.5 8.5415H7.50002Z" fill="#18202A"/>
<path d="M6.87502 12.4998C6.87502 12.1547 7.15484 11.8748 7.50002 11.8748H12.5C12.8452 11.8748 13.125 12.1547 13.125 12.4998C13.125 12.845 12.8452 13.1248 12.5 13.1248H7.50002C7.15484 13.1248 6.87502 12.845 6.87502 12.4998Z" fill="#18202A"/>
<path fill-rule="evenodd" clip-rule="evenodd" d="M5.00002 1.0415C4.61325 1.0415 4.24231 1.19515 3.96882 1.46864C3.69533 1.74213 3.54169 2.11306 3.54169 2.49984V18.3332C3.54169 18.5673 3.67253 18.7818 3.8807 18.8889C4.08887 18.996 4.33945 18.9778 4.52996 18.8418L7.08335 17.0179L9.63675 18.8418C9.85406 18.997 10.146 18.997 10.3633 18.8418L12.9167 17.0179L15.4701 18.8418C15.6606 18.9778 15.9112 18.996 16.1193 18.8889C16.3275 18.7818 16.4584 18.5673 16.4584 18.3332V2.49984C16.4584 2.11306 16.3047 1.74213 16.0312 1.46864C15.7577 1.19515 15.3868 1.0415 15 1.0415H5.00002ZM4.85271 2.35252C4.89178 2.31345 4.94477 2.2915 5.00002 2.2915H15C15.0553 2.2915 15.1083 2.31345 15.1473 2.35252C15.1864 2.39159 15.2084 2.44458 15.2084 2.49984V17.1187L13.28 15.7413C13.0627 15.586 12.7707 15.586 12.5534 15.7413L10 17.5651L7.44663 15.7413C7.22932 15.586 6.93739 15.586 6.72008 15.7413L4.79169 17.1187V2.49984C4.79169 2.44458 4.81364 2.39159 4.85271 2.35252Z" fill="#18202A"/>
</svg>
