<svg width="20" height="20" viewBox="0 0 20 20" fill="none" xmlns="http://www.w3.org/2000/svg">
<path d="M7.5 4.1665C7.5 2.78579 8.61929 1.6665 10 1.6665C11.3807 1.6665 12.5 2.78579 12.5 4.1665V9.1665C12.5 10.5472 11.3807 11.6665 10 11.6665C8.61929 11.6665 7.5 10.5472 7.5 9.1665V4.1665Z" fill="#18202A"/>
<path d="M5.00003 9.1665C4.53979 9.1665 4.16044 9.54174 4.22541 9.99736C4.58989 12.5533 6.61111 14.5752 9.16667 14.9408V16.6665H7.08333C6.6231 16.6665 6.25 17.0396 6.25 17.4998C6.25 17.9601 6.6231 18.3332 7.08333 18.3332H12.9167C13.3769 18.3332 13.75 17.9601 13.75 17.4998C13.75 17.0396 13.3769 16.6665 12.9167 16.6665H10.8333V14.9408C13.3889 14.5752 15.4102 12.5533 15.7746 9.99736C15.8396 9.54173 15.4603 9.1665 15 9.1665C14.5398 9.1665 14.1754 9.54336 14.0844 9.99452C13.7004 11.899 12.0177 13.3332 10 13.3332C7.98235 13.3332 6.29963 11.899 5.91563 9.99452C5.82467 9.54336 5.46026 9.1665 5.00003 9.1665Z" fill="#18202A"/>
</svg>
