<svg width="20" height="20" viewBox="0 0 20 20" fill="none" xmlns="http://www.w3.org/2000/svg">
<path fill-rule="evenodd" clip-rule="evenodd" d="M8.35861 5.02544C8.60269 4.78136 8.60269 4.38563 8.35861 4.14155C8.11453 3.89748 7.7188 3.89748 7.47472 4.14155L2.05806 9.55822C1.81398 9.8023 1.81398 10.198 2.05806 10.4421L7.47472 15.8588C7.7188 16.1028 8.11453 16.1028 8.35861 15.8588C8.60269 15.6147 8.60269 15.219 8.35861 14.9749L3.38388 10.0002L8.35861 5.02544ZM11.6414 5.02544C11.3973 4.78136 11.3973 4.38563 11.6414 4.14155C11.8855 3.89748 12.2812 3.89748 12.5253 4.14155L17.9419 9.55822C18.186 9.8023 18.186 10.198 17.9419 10.4421L12.5253 15.8588C12.2812 16.1028 11.8855 16.1028 11.6414 15.8588C11.3973 15.6147 11.3973 15.219 11.6414 14.9749L16.6161 10.0002L11.6414 5.02544Z" fill="#18202A"/>
</svg>
