<svg width="20" height="20" viewBox="0 0 20 20" fill="none" xmlns="http://www.w3.org/2000/svg">
<path fill-rule="evenodd" clip-rule="evenodd" d="M13.7908 16.4593C13.7908 16.1141 13.511 15.8343 13.1658 15.8343H2.3325C1.98732 15.8343 1.7075 16.1141 1.7075 16.4593C1.7075 16.8045 1.98732 17.0843 2.3325 17.0843H13.1658C13.511 17.0843 13.7908 16.8045 13.7908 16.4593Z" fill="#18202A"/>
<path fill-rule="evenodd" clip-rule="evenodd" d="M13.7908 3.12598C13.7908 2.7808 13.511 2.50098 13.1658 2.50098H2.3325C1.98732 2.50098 1.7075 2.7808 1.7075 3.12598C1.7075 3.47115 1.98732 3.75098 2.3325 3.75098H13.1658C13.511 3.75098 13.7908 3.47115 13.7908 3.12598Z" fill="#18202A"/>
<path d="M14.7664 7.73296C14.5224 7.48888 14.5224 7.09315 14.7664 6.84907C15.0105 6.605 15.4062 6.605 15.6503 6.84907L18.1503 9.34907C18.2797 9.47841 18.3405 9.65033 18.3327 9.8197C18.3258 10.0162 18.2291 10.1898 18.0824 10.3008L15.6503 12.733C15.4062 12.977 15.0105 12.977 14.7664 12.733C14.5224 12.4889 14.5224 12.0932 14.7664 11.8491L16.1877 10.4278L2.29754 10.4222C1.94886 10.422 1.66631 10.1392 1.66645 9.79056C1.66659 9.44188 1.94937 9.15933 2.29806 9.15947L16.1986 9.16514L14.7664 7.73296Z" fill="#18202A"/>
</svg>
