<svg width="20" height="20" viewBox="0 0 20 20" fill="none" xmlns="http://www.w3.org/2000/svg">
<g clip-path="url(#clip0_3626_8963)">
<path d="M15.8334 12.3012L17.5 13.9679V3.33301C17.5 1.9523 16.3808 0.833008 15 0.833008H5.00004C4.80407 0.833008 4.61336 0.855557 4.43037 0.898203L13.3334 9.80121V4.65886C13.3334 3.88277 12.7977 3.20939 12.0415 3.03488L9.72226 2.49967H15C15.4603 2.49967 15.8334 2.87277 15.8334 3.33301V12.3012Z" fill="#18202A"/>
<path fill-rule="evenodd" clip-rule="evenodd" d="M1.32789 2.50728L2.50004 3.67941V15.5109C2.50004 16.675 3.30356 17.6851 4.43789 17.9469L11.2919 19.5286C12.3363 19.7696 13.3334 18.9764 13.3334 17.9046V17.4997H15C15.3857 17.4997 15.751 17.4123 16.0772 17.2563L17.4927 18.6717C17.8614 19.0404 18.4243 19.0753 18.75 18.7495C19.0758 18.4238 19.0409 17.8609 18.6722 17.4922L2.50745 1.32772C2.13874 0.95902 1.5758 0.924181 1.25007 1.24991C0.924344 1.57563 0.959183 2.13858 1.32789 2.50728ZM13.3334 14.5125L14.6539 15.833H13.3334V14.5125ZM11.1961 12.3753L10.0013 11.1805C10.0005 11.2034 10 11.2265 10 11.2497C10 11.94 10.3731 12.4997 10.8334 12.4997C10.9634 12.4997 11.0865 12.455 11.1961 12.3753Z" fill="#18202A"/>
</g>
<defs>
<clipPath id="clip0_3626_8963">
<rect width="20" height="20" fill="white"/>
</clipPath>
</defs>
</svg>
