<svg width="20" height="20" viewBox="0 0 20 20" fill="none" xmlns="http://www.w3.org/2000/svg">
<path fill-rule="evenodd" clip-rule="evenodd" d="M2.10863 5.44194L4.60863 2.94194C4.85271 2.69786 4.85271 2.30214 4.60863 2.05806C4.36455 1.81398 3.96882 1.81398 3.72475 2.05806L1.22475 4.55806C0.980668 4.80214 0.980668 5.19786 1.22475 5.44194C1.46882 5.68602 1.86455 5.68602 2.10863 5.44194ZM17.0834 10.8333C17.0834 14.7454 13.912 17.9167 10 17.9167C6.088 17.9167 2.91669 14.7454 2.91669 10.8333C2.91669 6.92132 6.088 3.75 10 3.75C13.912 3.75 17.0834 6.92132 17.0834 10.8333ZM18.3334 10.8333C18.3334 15.4357 14.6024 19.1667 10 19.1667C5.39765 19.1667 1.66669 15.4357 1.66669 10.8333C1.66669 6.23096 5.39765 2.5 10 2.5C14.6024 2.5 18.3334 6.23096 18.3334 10.8333ZM15.3914 2.94194L17.8914 5.44194C18.1355 5.68602 18.5312 5.68602 18.7753 5.44194C19.0194 5.19786 19.0194 4.80214 18.7753 4.55806L16.2753 2.05806C16.0312 1.81398 15.6355 1.81398 15.3914 2.05806C15.1473 2.30214 15.1473 2.69786 15.3914 2.94194ZM10.625 5.83333C10.625 5.48816 10.3452 5.20833 10 5.20833C9.65484 5.20833 9.37502 5.48816 9.37502 5.83333V10.8333C9.37502 11.0834 9.52402 11.3093 9.75382 11.4078L12.6705 12.6578C12.9878 12.7938 13.3552 12.6468 13.4912 12.3295C13.6271 12.0123 13.4802 11.6448 13.1629 11.5089L10.625 10.4212V5.83333Z" fill="#18202A"/>
</svg>
