<svg width="24" height="24" viewBox="0 0 24 24" fill="none" xmlns="http://www.w3.org/2000/svg">
<path fill-rule="evenodd" clip-rule="evenodd" d="M5 4C5.55228 4 6 4.44772 6 5V8C6 10.7614 8.23858 13 11 13H17.5858L14.2929 9.70711C13.9024 9.31658 13.9024 8.68342 14.2929 8.29289C14.6834 7.90237 15.3166 7.90237 15.7071 8.29289L20.7071 13.2929C21.0976 13.6834 21.0976 14.3166 20.7071 14.7071L15.7071 19.7071C15.3166 20.0976 14.6834 20.0976 14.2929 19.7071C13.9024 19.3166 13.9024 18.6834 14.2929 18.2929L17.5858 15H11C7.13401 15 4 11.866 4 8V5C4 4.44772 4.44772 4 5 4Z" fill="#18202A"/>
</svg>
