<svg width="24" height="24" viewBox="0 0 24 24" fill="none" xmlns="http://www.w3.org/2000/svg">
<path d="M21.5 6.45472C20.6888 5.06497 19.5763 3.85957 18.2305 2.93463C16.072 1.45114 13.455 0.786506 10.8502 1.06028C8.24541 1.33405 5.82379 2.52827 4.02089 4.42812C2.218 6.32797 1.15216 8.80878 1.01508 11.4243C0.878009 14.0399 1.67869 16.6185 3.27312 18.6964C4.86755 20.7743 7.15108 22.2151 9.71298 22.7596C12.2749 23.3042 14.947 22.9168 17.2488 21.667C19.3305 20.5367 20.9857 18.7682 21.9775 16.6315C22.1516 16.2564 21.9564 15.8219 21.5703 15.6737C21.1843 15.5255 20.7539 15.72 20.5755 16.093C19.0464 19.291 15.7812 21.5 12 21.5C6.7533 21.5 2.50001 17.2467 2.50001 12C2.50001 6.75332 6.7533 2.50002 12 2.50002C16.0107 2.50002 19.4409 4.98539 20.8345 8.5H14.75C14.3358 8.5 14 8.83579 14 9.25C14 9.66421 14.3358 10 14.75 10H22C22.5523 10 23 9.55228 23 9V1.75C23 1.33579 22.6642 1 22.25 1C21.8358 1 21.5 1.33579 21.5 1.75V6.45472Z" fill="#18202A"/>
</svg>
