<svg width="24" height="24" viewBox="0 0 24 24" fill="none" xmlns="http://www.w3.org/2000/svg">
<path fill-rule="evenodd" clip-rule="evenodd" d="M10.376 4.62341L9.54914 4.90916C8.63411 5.22536 7.79808 5.7145 7.08053 6.33866L6.41936 6.91378L4.37859 6.18833L3.15266 8.31171L4.80022 9.71542L4.63518 10.5737C4.54661 11.0343 4.50001 11.511 4.50001 12C4.50001 12.489 4.54661 12.9657 4.63519 13.4264L4.80023 14.2846L3.15265 15.6883L4.37858 17.8117L6.41938 17.0863L7.08056 17.6614C7.79809 18.2855 8.63412 18.7746 9.54914 19.0908L10.376 19.3766L10.7669 21.5H13.2188L13.6091 19.3801L14.4382 19.0952C15.3567 18.7797 16.1959 18.29 16.916 17.6644L17.5771 17.0901L19.6071 17.8117L20.8331 15.6883L19.1969 14.2943L19.3631 13.4351C19.4528 12.9717 19.5 12.4921 19.5 12C19.5 11.5079 19.4528 11.0283 19.3631 10.565L19.1969 9.70574L20.8331 8.31171L19.6071 6.18833L17.5771 6.90997L16.916 6.33565C16.1959 5.71005 15.3567 5.22034 14.4382 4.90479L13.6091 4.61994L13.2188 2.5H10.7669L10.376 4.62341ZM9.3671 1.81895C9.45445 1.34447 9.86812 1 10.3506 1H13.6352C14.1176 1 14.5313 1.34447 14.6186 1.81895L14.9255 3.48617C16.0297 3.8655 17.0368 4.45359 17.8998 5.2033L19.497 4.63552C19.9516 4.47392 20.4568 4.65994 20.698 5.07776L22.3403 7.92228C22.5815 8.3401 22.49 8.87058 22.1228 9.18347L20.8358 10.28C20.9436 10.8367 21 11.4118 21 12C21 12.5882 20.9436 13.1633 20.8358 13.7201L22.1228 14.8166C22.49 15.1295 22.5815 15.6599 22.3403 16.0778L20.698 18.9223C20.4568 19.3401 19.9516 19.5261 19.497 19.3645L17.8998 18.7967C17.0368 19.5464 16.0297 20.1345 14.9255 20.5138L14.6186 22.181C14.5313 22.6555 14.1176 23 13.6352 23H10.3506C9.86812 23 9.45445 22.6555 9.3671 22.181L9.05922 20.5086C7.95927 20.1285 6.956 19.5411 6.09611 18.7931L4.48869 19.3645C4.0341 19.5261 3.52895 19.3401 3.28772 18.9223L1.64544 16.0778C1.40421 15.6599 1.49569 15.1295 1.86293 14.8166L3.16218 13.7096C3.05574 13.1561 3.00001 12.5846 3.00001 12C3.00001 11.4154 3.05574 10.8439 3.16217 10.2904L1.86294 9.18347C1.4957 8.87058 1.40422 8.3401 1.64545 7.92228L3.28773 5.07776C3.52896 4.65994 4.03411 4.47392 4.4887 4.63552L6.09608 5.20691C6.95598 4.45893 7.95926 3.87153 9.05922 3.49142L9.3671 1.81895Z" fill="#18202A"/>
<path fill-rule="evenodd" clip-rule="evenodd" d="M12 14.5C13.3807 14.5 14.5 13.3807 14.5 12C14.5 10.6193 13.3807 9.5 12 9.5C10.6193 9.5 9.5 10.6193 9.5 12C9.5 13.3807 10.6193 14.5 12 14.5ZM12 16C14.2091 16 16 14.2091 16 12C16 9.79086 14.2091 8 12 8C9.79086 8 8 9.79086 8 12C8 14.2091 9.79086 16 12 16Z" fill="#18202A"/>
</svg>
