<svg width="24" height="24" viewBox="0 0 24 24" fill="none" xmlns="http://www.w3.org/2000/svg">
<path fill-rule="evenodd" clip-rule="evenodd" d="M12 20.5C16.6944 20.5 20.5 16.6944 20.5 12C20.5 7.30558 16.6944 3.5 12 3.5C7.30558 3.5 3.5 7.30558 3.5 12C3.5 16.6944 7.30558 20.5 12 20.5ZM12 22C17.5228 22 22 17.5228 22 12C22 6.47715 17.5228 2 12 2C6.47715 2 2 6.47715 2 12C2 17.5228 6.47715 22 12 22ZM10.4697 4.46967C10.7626 4.17678 11.2374 4.17678 11.5303 4.46967L12 4.93934L12.4697 4.46967C12.7626 4.17678 13.2374 4.17678 13.5303 4.46967C13.8232 4.76256 13.8232 5.23744 13.5303 5.53033L12.5303 6.53033C12.2374 6.82322 11.7626 6.82322 11.4697 6.53033L10.4697 5.53033C10.1768 5.23744 10.1768 4.76256 10.4697 4.46967ZM16.9926 6.34289C16.9926 5.92867 16.6569 5.59289 16.2426 5.59289C15.8284 5.59289 15.4926 5.92867 15.4926 6.34289V7.7571C15.4926 8.17131 15.8284 8.5071 16.2426 8.5071H17.6569C18.0711 8.5071 18.4069 8.17131 18.4069 7.7571C18.4069 7.34289 18.0711 7.0071 17.6569 7.0071H16.9926V6.34289ZM13.5303 19.5303C13.2374 19.8232 12.7626 19.8232 12.4697 19.5303L12 19.0607L11.5303 19.5303C11.2374 19.8232 10.7626 19.8232 10.4697 19.5303C10.1768 19.2374 10.1768 18.7626 10.4697 18.4697L11.4697 17.4697C11.7626 17.1768 12.2374 17.1768 12.5303 17.4697L13.5303 18.4697C13.8232 18.7626 13.8232 19.2374 13.5303 19.5303ZM7.00735 17.6571C7.00735 18.0713 7.34314 18.4071 7.75735 18.4071C8.17157 18.4071 8.50735 18.0713 8.50735 17.6571L8.50735 16.2429C8.50735 15.8287 8.17157 15.4929 7.75735 15.4929H6.34314C5.92893 15.4929 5.59314 15.8287 5.59314 16.2429C5.59314 16.6571 5.92893 16.9929 6.34314 16.9929H7.00735V17.6571ZM19.5303 10.4697C19.8232 10.7626 19.8232 11.2374 19.5303 11.5303L19.0607 12L19.5303 12.4697C19.8232 12.7626 19.8232 13.2374 19.5303 13.5303C19.2374 13.8232 18.7626 13.8232 18.4697 13.5303L17.4697 12.5303C17.1768 12.2374 17.1768 11.7626 17.4697 11.4697L18.4697 10.4697C18.7626 10.1768 19.2374 10.1768 19.5303 10.4697ZM17.6569 16.9922C18.0711 16.9922 18.4069 16.6564 18.4069 16.2422C18.4069 15.828 18.0711 15.4922 17.6569 15.4922H16.2426C15.8284 15.4922 15.4926 15.828 15.4926 16.2422V17.6564C15.4926 18.0706 15.8284 18.4064 16.2426 18.4064C16.6569 18.4064 16.9926 18.0706 16.9926 17.6564V16.9922H17.6569ZM4.46967 13.5303C4.17678 13.2374 4.17678 12.7626 4.46967 12.4697L4.93934 12L4.46967 11.5303C4.17678 11.2374 4.17678 10.7626 4.46967 10.4697C4.76256 10.1768 5.23744 10.1768 5.53033 10.4697L6.53033 11.4697C6.82322 11.7626 6.82322 12.2374 6.53033 12.5303L5.53033 13.5303C5.23744 13.8232 4.76256 13.8232 4.46967 13.5303ZM6.34315 7.00781C5.92893 7.00781 5.59315 7.3436 5.59315 7.75781C5.59315 8.17203 5.92893 8.50781 6.34315 8.50781H7.75736C8.17157 8.50781 8.50736 8.17203 8.50736 7.75781V6.3436C8.50736 5.92939 8.17157 5.5936 7.75736 5.5936C7.34315 5.5936 7.00736 5.92939 7.00736 6.3436V7.00781H6.34315Z" fill="#26282C"/>
</svg>
