<svg width="24" height="24" viewBox="0 0 24 24" fill="none" xmlns="http://www.w3.org/2000/svg">
<path fill-rule="evenodd" clip-rule="evenodd" d="M12 2.5C13.3807 2.5 14.5 3.61929 14.5 5H9.5C9.5 3.61929 10.6193 2.5 12 2.5ZM8 5C8 2.79086 9.79086 1 12 1C14.2091 1 16 2.79086 16 5H20C21.6569 5 23 6.34315 23 8V10.3481V11.9233V18C23 19.6569 21.6569 21 20 21H4C2.34315 21 1 19.6569 1 18V11.9233V10.3481V8C1 6.34315 2.34315 5 4 5H8ZM2.5 12.4041V18C2.5 18.8284 3.17157 19.5 4 19.5H20C20.8284 19.5 21.5 18.8284 21.5 18V12.404L15.6163 14.2895L15.5965 14.2947C13.2432 14.9091 10.7558 14.9091 8.40253 14.2947L8.38266 14.2895L2.5 12.4041ZM21.5 10.8288L15.1979 12.8484C13.1055 13.3912 10.8935 13.3912 8.80107 12.8485L2.5 10.8289V8C2.5 7.17157 3.17157 6.5 4 6.5H8H16H20C20.8284 6.5 21.5 7.17157 21.5 8V10.8288ZM13.5 10.5C13.5 11.3284 12.8284 12 12 12C11.1716 12 10.5 11.3284 10.5 10.5C10.5 9.67157 11.1716 9 12 9C12.8284 9 13.5 9.67157 13.5 10.5Z" fill="#18202A"/>
</svg>
