<svg width="24" height="24" viewBox="0 0 24 24" fill="none" xmlns="http://www.w3.org/2000/svg">
<path fill-rule="evenodd" clip-rule="evenodd" d="M2.96967 0.46967C3.26256 0.176777 3.73744 0.176777 4.03033 0.46967L6.03033 2.46967C6.32322 2.76256 6.32322 3.23744 6.03033 3.53033C5.73744 3.82322 5.26256 3.82322 4.96967 3.53033L4.25 2.81066V6C4.25 6.41421 3.91421 6.75 3.5 6.75C3.08579 6.75 2.75 6.41421 2.75 6V2.81066L2.03033 3.53033C1.73744 3.82322 1.26256 3.82322 0.96967 3.53033C0.676777 3.23744 0.676777 2.76256 0.96967 2.46967L2.96967 0.46967ZM6.23981 7.87114C4.55178 9.2374 3.26176 10.8698 2.54711 11.8804C2.51688 11.9232 2.50655 11.9641 2.50655 12C2.50655 12.0359 2.51688 12.0768 2.5471 12.1196C3.26176 13.1302 4.55178 14.7626 6.23981 16.1289C7.93808 17.5034 9.90292 18.5 12 18.5C14.0971 18.5 16.0619 17.5034 17.7602 16.1289C19.4482 14.7626 20.7382 13.1302 21.4529 12.1196C21.4831 12.0768 21.4935 12.0359 21.4935 12C21.4935 11.9641 21.4831 11.9232 21.4529 11.8804C20.7382 10.8698 19.4482 9.2374 17.7602 7.87114C16.0619 6.4966 14.0971 5.5 12 5.5C9.90292 5.5 7.93808 6.4966 6.23981 7.87114ZM1.32238 11.0144C0.90127 11.6099 0.901269 12.3901 1.32237 12.9856C2.83469 15.1243 6.84749 20 12 20C17.1525 20 21.1653 15.1243 22.6776 12.9856C23.0987 12.3901 23.0987 11.6099 22.6776 11.0144C21.1653 8.87572 17.1525 4 12 4C6.84749 4 2.83469 8.87572 1.32238 11.0144ZM12 14.5C13.3807 14.5 14.5 13.3807 14.5 12C14.5 10.6193 13.3807 9.5 12 9.5C10.6193 9.5 9.5 10.6193 9.5 12C9.5 13.3807 10.6193 14.5 12 14.5ZM16 12C16 14.2091 14.2091 16 12 16C9.79086 16 8 14.2091 8 12C8 9.79086 9.79086 8 12 8C14.2091 8 16 9.79086 16 12ZM17.9697 21.5303L19.9697 23.5303C20.2626 23.8232 20.7374 23.8232 21.0303 23.5303L23.0303 21.5303C23.3232 21.2374 23.3232 20.7626 23.0303 20.4697C22.7374 20.1768 22.2626 20.1768 21.9697 20.4697L21.25 21.1893V18C21.25 17.5858 20.9142 17.25 20.5 17.25C20.0858 17.25 19.75 17.5858 19.75 18V21.1893L19.0303 20.4697C18.7374 20.1768 18.2626 20.1768 17.9697 20.4697C17.6768 20.7626 17.6768 21.2374 17.9697 21.5303Z" fill="#26282C"/>
</svg>
