<svg width="24" height="24" viewBox="0 0 24 24" fill="none" xmlns="http://www.w3.org/2000/svg">
<path d="M5.81818 1C3.70946 1 2 2.79252 2 5.00372V7H8C8 6.23223 8.29289 5.46447 8.87868 4.87868C10.0503 3.70711 11.9497 3.70711 13.1213 4.87868L16.1213 7.87868C17.2929 9.05025 17.2929 10.9497 16.1213 12.1213L13.1213 15.1213C11.9497 16.2929 10.0503 16.2929 8.87868 15.1213C8.29289 14.5355 8 13.7678 8 13H2V14.0121C2 16.2233 3.70946 18.0158 5.81818 18.0158H6.33884L5.78538 20.7914C5.61534 21.6442 6.49343 22.3018 7.20756 21.8566L13.3678 18.0158H19.1818C21.2905 18.0158 23 16.2233 23 14.0121V5.00372C23 2.79252 21.2905 1 19.1818 1H5.81818Z" fill="#18202A"/>
<path d="M10.2929 6.29289C10.6834 5.90237 11.3166 5.90237 11.7071 6.29289L14.7071 9.29289C15.0976 9.68342 15.0976 10.3166 14.7071 10.7071L11.7071 13.7071C11.3166 14.0976 10.6834 14.0976 10.2929 13.7071C9.90237 13.3166 9.90237 12.6834 10.2929 12.2929L11.5858 11H1C0.447715 11 0 10.5523 0 10C0 9.44772 0.447715 9 1 9H11.5858L10.2929 7.70711C9.90237 7.31658 9.90237 6.68342 10.2929 6.29289Z" fill="#18202A"/>
</svg>
