<svg width="24" height="24" viewBox="0 0 24 24" fill="none" xmlns="http://www.w3.org/2000/svg">
<path fill-rule="evenodd" clip-rule="evenodd" d="M5 3C2.79086 3 1 4.79086 1 7V9H23C23 6.79086 21.2091 5 19 5H12L10.8787 3.87868C10.3161 3.31607 9.55301 3 8.75736 3H5ZM1 10V17C1 19.2091 2.79086 21 5 21H12.2899C12.1013 20.3663 12 19.695 12 19C12 15.134 15.134 12 19 12C20.4872 12 21.8662 12.4638 23 13.2547V10H1ZM24 19C24 21.7614 21.7614 24 19 24C16.2386 24 14 21.7614 14 19C14 16.2386 16.2386 14 19 14C21.7614 14 24 16.2386 24 19ZM16 19C16 18.4477 16.4477 18 17 18H21C21.5523 18 22 18.4477 22 19C22 19.5523 21.5523 20 21 20H17C16.4477 20 16 19.5523 16 19Z" fill="#18202A"/>
</svg>
