<svg width="24" height="24" viewBox="0 0 24 24" fill="none" xmlns="http://www.w3.org/2000/svg">
<path fill-rule="evenodd" clip-rule="evenodd" d="M18.8862 6.29259C19.3412 6.25669 19.777 6.18478 20.1928 6.07644L20.6136 7.51929C20.0669 7.66444 19.4993 7.75512 18.9139 7.7951L18.8862 6.29259ZM22.2242 6.89762C22.1579 6.93216 22.0912 6.96567 22.0241 6.99817L21.5963 5.53118C21.9252 5.35537 22.2371 5.14986 22.5315 4.91436C22.7566 4.73425 23.0651 4.69914 23.3249 4.82403C23.5847 4.94892 23.75 5.2117 23.75 5.50001C23.75 6.14456 23.7366 6.74668 23.7067 7.31331L22.2105 7.19909C22.2156 7.10008 22.2201 6.99961 22.2242 6.89762ZM22.0806 8.69354C22.0214 9.1525 21.9455 9.57704 21.8515 9.9757L23.2648 10.51C23.4001 9.97608 23.5029 9.41265 23.5782 8.80787L22.0806 8.69354ZM21.3718 11.4578L21.3934 11.4061L22.7971 11.9368C22.7827 11.972 22.7681 12.0072 22.7532 12.0422C22.4809 12.686 22.1465 13.2893 21.7456 13.882C21.7243 13.9171 21.7016 13.9517 21.6776 13.9856C20.1653 16.1243 16.1525 21 11 21C5.84749 21 1.83469 16.1243 0.322374 13.9856C-0.0987307 13.3901 -0.0987298 12.6099 0.322375 12.0144C1.83469 9.87572 5.84749 5 11 5C12.1506 5 13.2443 5.24313 14.2661 5.64462C15.3723 5.99397 16.4144 6.209 17.3859 6.28664L17.4077 7.47094C19.1358 8.80568 20.4888 10.4078 21.3353 11.5431C21.3476 11.5147 21.3597 11.4863 21.3718 11.4578ZM1.54711 12.8804C2.26176 11.8698 3.55178 10.2374 5.23981 8.87114C6.93808 7.4966 8.90292 6.5 11 6.5C13.0971 6.5 15.0619 7.4966 16.7602 8.87114C18.4482 10.2374 19.7382 11.8698 20.4529 12.8804C20.4831 12.9232 20.4935 12.9641 20.4935 13C20.4935 13.0359 20.4831 13.0768 20.4529 13.1196C19.7382 14.1302 18.4482 15.7626 16.7602 17.1289C15.0619 18.5034 13.0971 19.5 11 19.5C8.90292 19.5 6.93808 18.5034 5.23981 17.1289C3.55178 15.7626 2.26176 14.1302 1.5471 13.1196C1.51688 13.0768 1.50655 13.0359 1.50655 13C1.50655 12.9641 1.51688 12.9232 1.54711 12.8804ZM13.5 13C13.5 14.3807 12.3807 15.5 11 15.5C9.61929 15.5 8.5 14.3807 8.5 13C8.5 11.6193 9.61929 10.5 11 10.5C12.3807 10.5 13.5 11.6193 13.5 13ZM11 17C13.2091 17 15 15.2091 15 13C15 10.7909 13.2091 9 11 9C8.79086 9 7 10.7909 7 13C7 15.2091 8.79086 17 11 17Z" fill="#26282C"/>
</svg>
