<svg width="24" height="24" viewBox="0 0 24 24" fill="none" xmlns="http://www.w3.org/2000/svg">
<path fill-rule="evenodd" clip-rule="evenodd" d="M7 1C3.68629 1 1 3.68629 1 7V17C1 20.3137 3.68629 23 7 23H17C20.3137 23 23 20.3137 23 17V7C23 3.68629 20.3137 1 17 1H7ZM12 8C12 9.65685 10.6569 11 9 11C7.34314 11 6 9.65685 6 8C6 6.34315 7.34314 5 9 5C10.6569 5 12 6.34315 12 8ZM16.5 11L21 16.7273V17C21 19.2091 19.2091 21 17 21H7C5.62229 21 4.40726 20.3035 3.68784 19.2434L8 14.5L11 17L16.5 11Z" fill="#18202A"/>
</svg>
