<svg width="24" height="24" viewBox="0 0 24 24" fill="none" xmlns="http://www.w3.org/2000/svg">
<g clip-path="url(#clip0_3906_9309)">
<path d="M11.5 16.5C11.5 16.9142 11.8358 17.25 12.25 17.25C12.6642 17.25 13 16.9142 13 16.5V13.75H15.75C16.1642 13.75 16.5 13.4142 16.5 13C16.5 12.5858 16.1642 12.25 15.75 12.25H13V9.5C13 9.08579 12.6642 8.75 12.25 8.75C11.8358 8.75 11.5 9.08579 11.5 9.5V12.25H8.75C8.33579 12.25 8 12.5858 8 13C8 13.4142 8.33579 13.75 8.75 13.75H11.5V16.5Z" fill="#18202A"/>
<path fill-rule="evenodd" clip-rule="evenodd" d="M5 3C2.79086 3 1 4.79086 1 7V17C1 19.2091 2.79086 21 5 21H19C21.2091 21 23 19.2091 23 17V9C23 6.79086 21.2091 5 19 5H12L10.8787 3.87868C10.3161 3.31607 9.55301 3 8.75736 3H5ZM21.5 9C21.5 7.61929 20.3807 6.5 19 6.5H11.3787L9.81802 4.93934C9.53671 4.65804 9.15518 4.5 8.75736 4.5H5C3.61929 4.5 2.5 5.61929 2.5 7V17C2.5 18.3807 3.61929 19.5 5 19.5H19C20.3807 19.5 21.5 18.3807 21.5 17V9Z" fill="#18202A"/>
</g>
<defs>
<clipPath id="clip0_3906_9309">
<rect width="24" height="24" fill="white"/>
</clipPath>
</defs>
</svg>
