<svg width="24" height="24" viewBox="0 0 24 24" fill="none" xmlns="http://www.w3.org/2000/svg">
<path fill-rule="evenodd" clip-rule="evenodd" d="M23 12C23 18.0751 18.0751 23 12 23C5.92487 23 1 18.0751 1 12C1 5.92487 5.92487 1 12 1C18.0751 1 23 5.92487 23 12ZM10.4142 9C10.1854 9 10 9.18545 10 9.41421C10 9.52407 10.0436 9.62943 10.1213 9.70711L10.2071 9.79289C10.5976 10.1834 10.5976 10.8166 10.2071 11.2071C9.81658 11.5976 9.18342 11.5976 8.79289 11.2071L8.70711 11.1213C8.25435 10.6686 8 10.0545 8 9.41421C8 8.08088 9.08088 7 10.4142 7H13.2566C14.7717 7 16 8.22827 16 9.74342C16 10.9243 15.2444 11.9726 14.1241 12.3461L13.8162 12.4487C13.3288 12.6112 13 13.0673 13 13.5811V14C13 14.5523 12.5523 15 12 15C11.4477 15 11 14.5523 11 14V13.5811C11 12.2065 11.8796 10.986 13.1838 10.5513L13.4917 10.4487C13.7952 10.3475 14 10.0634 14 9.74342C14 9.33284 13.6672 9 13.2566 9H10.4142ZM11 17C11 16.4477 11.4477 16 12 16C12.5523 16 13 16.4477 13 17C13 17.5523 12.5523 18 12 18C11.4477 18 11 17.5523 11 17Z" fill="#18202A"/>
</svg>
