<svg width="24" height="24" viewBox="0 0 24 24" fill="none" xmlns="http://www.w3.org/2000/svg">
<path fill-rule="evenodd" clip-rule="evenodd" d="M12 21.5C17.2467 21.5 21.5 17.2467 21.5 12C21.5 6.75329 17.2467 2.5 12 2.5C6.75329 2.5 2.5 6.75329 2.5 12C2.5 17.2467 6.75329 21.5 12 21.5ZM23 12C23 18.0751 18.0751 23 12 23C5.92487 23 1 18.0751 1 12C1 5.92487 5.92487 1 12 1C18.0751 1 23 5.92487 23 12Z" fill="#18202A"/>
<path fill-rule="evenodd" clip-rule="evenodd" d="M7.57829 14.3798C7.92083 14.1469 8.38731 14.2358 8.62021 14.5783C8.95843 15.0757 9.44388 15.4977 10.0375 15.7945C10.6314 16.0915 11.3078 16.25 12 16.25C12.6922 16.25 13.3686 16.0915 13.9625 15.7945C14.5561 15.4977 15.0416 15.0757 15.3798 14.5783C15.6127 14.2358 16.0792 14.1469 16.4217 14.3798C16.7642 14.6127 16.8531 15.0792 16.6202 15.4217C16.1288 16.1444 15.4415 16.7321 14.6333 17.1362C13.8253 17.5402 12.9184 17.75 12 17.75C11.0816 17.75 10.1747 17.5402 9.36671 17.1362C8.5585 16.7321 7.87118 16.1444 7.37979 15.4217C7.14689 15.0792 7.23576 14.6127 7.57829 14.3798Z" fill="#18202A"/>
<path d="M10 10C10 11.1046 9.32843 12 8.5 12C7.67157 12 7 11.1046 7 10C7 8.89543 7.67157 8 8.5 8C9.32843 8 10 8.89543 10 10Z" fill="#18202A"/>
<path d="M17 10C17 11.1046 16.3284 12 15.5 12C14.6716 12 14 11.1046 14 10C14 8.89543 14.6716 8 15.5 8C16.3284 8 17 8.89543 17 10Z" fill="#18202A"/>
</svg>
