<svg width="24" height="24" viewBox="0 0 24 24" fill="none" xmlns="http://www.w3.org/2000/svg">
<path d="M20.9989 5.6588C20.2535 4.60281 19.322 3.67811 18.2397 2.93463C16.08 1.45114 13.4616 0.786507 10.8554 1.06028C8.24927 1.33405 5.82636 2.52826 4.0225 4.42811C2.21865 6.32796 1.15224 8.80876 1.01509 11.4243C0.877944 14.0398 1.67905 16.6185 3.27433 18.6964C4.86961 20.7743 7.15436 22.2151 9.71762 22.7596C12.2809 23.3042 14.9544 22.9167 17.2574 21.667C19.2395 20.5914 20.8351 18.9378 21.84 16.939C22.1105 16.4009 21.8247 15.7671 21.2623 15.5513C20.7002 15.3357 20.0753 15.6202 19.791 16.1506C18.3073 18.9179 15.3862 20.8 12.0252 20.8C7.16252 20.8 3.22053 16.8601 3.22053 12C3.22053 7.1399 7.16252 3.20002 12.0252 3.20002C15.4468 3.20002 18.4125 5.15066 19.8698 7.99999H14.9957C14.4432 7.99999 13.9952 8.4477 13.9952 8.99999C13.9952 9.55227 14.4432 9.99998 14.9957 9.99998H21.9995C22.552 9.99998 23 9.55227 23 8.99999V2C23 1.44771 22.552 1 21.9995 1C21.4469 1 20.9989 1.44771 20.9989 2V5.6588Z" fill="#18202A"/>
</svg>
