<svg width="24" height="24" viewBox="0 0 24 24" fill="none" xmlns="http://www.w3.org/2000/svg">
<path d="M10.0155 21.8573C9.95152 21.1847 10.0833 20.478 10.4566 19.818L15.0238 11.7448C16.3398 9.4184 19.6602 9.41839 20.9762 11.7448L22.5846 14.5879C22.8576 13.6605 23 12.6865 23 11.6909C23 5.2 18.0797 1 12.0102 1C5.94074 1 0.628009 5.96364 1.02045 11.6909C1.02045 15.1132 2.38822 17.7925 4.57105 19.561L4.78115 22.0822C4.8388 22.774 5.56647 23.198 6.19676 22.9071L8.92267 21.649C9.27975 21.7335 9.64436 21.8031 10.0155 21.8573Z" fill="#18202A"/>
<path fill-rule="evenodd" clip-rule="evenodd" d="M22.7974 23H13.2026C12.2804 23 11.7024 21.9842 12.1602 21.1681L16.9576 12.6165C17.4187 11.7945 18.5813 11.7945 19.0424 12.6165L23.8398 21.1681C24.2976 21.9842 23.7196 23 22.7974 23ZM18 15C17.4477 15 17 15.4477 17 16V18C17 18.5523 17.4477 19 18 19C18.5523 19 19 18.5523 19 18V16C19 15.4477 18.5523 15 18 15ZM18 20C17.4477 20 17 20.4477 17 21C17 21.5523 17.4477 22 18 22C18.5523 22 19 21.5523 19 21C19 20.4477 18.5523 20 18 20Z" fill="#18202A"/>
</svg>
