<svg width="24" height="24" viewBox="0 0 24 24" fill="none" xmlns="http://www.w3.org/2000/svg">
<g clip-path="url(#clip0_3294_8872)">
<path d="M4 5C4 5.55228 3.55228 6 3 6C2.44772 6 2 5.55228 2 5C2 4.44772 2.44772 4 3 4C3.55228 4 4 4.44772 4 5Z" fill="#18202A"/>
<path d="M7 5C7 4.44772 7.44772 4 8 4H21C21.5523 4 22 4.44772 22 5C22 5.55228 21.5523 6 21 6H8C7.44772 6 7 5.55228 7 5Z" fill="#18202A"/>
<path d="M8 11C7.44772 11 7 11.4477 7 12C7 12.5523 7.44772 13 8 13H21C21.5523 13 22 12.5523 22 12C22 11.4477 21.5523 11 21 11H8Z" fill="#18202A"/>
<path d="M8 18C7.44772 18 7 18.4477 7 19C7 19.5523 7.44772 20 8 20H21C21.5523 20 22 19.5523 22 19C22 18.4477 21.5523 18 21 18H8Z" fill="#18202A"/>
<path d="M4 12C4 12.5523 3.55228 13 3 13C2.44772 13 2 12.5523 2 12C2 11.4477 2.44772 11 3 11C3.55228 11 4 11.4477 4 12Z" fill="#18202A"/>
<path d="M4 19C4 19.5523 3.55228 20 3 20C2.44772 20 2 19.5523 2 19C2 18.4477 2.44772 18 3 18C3.55228 18 4 18.4477 4 19Z" fill="#18202A"/>
</g>
<defs>
<clipPath id="clip0_3294_8872">
<rect width="24" height="24" fill="white"/>
</clipPath>
</defs>
</svg>
