<svg width="24" height="24" viewBox="0 0 24 24" fill="none" xmlns="http://www.w3.org/2000/svg">
<path fill-rule="evenodd" clip-rule="evenodd" d="M2.28813 1.22101C1.99345 0.926331 1.51569 0.926331 1.22101 1.22101C0.926331 1.51569 0.926331 1.99345 1.22101 2.28813L4 5.06712V22C4 22.824 4.94076 23.2944 5.6 22.8L10.8 18.9C11.5111 18.3667 12.4889 18.3667 13.2 18.9L18.4 22.8C19.0592 23.2944 20 22.824 20 22V21.0671L21.7119 22.779C22.0065 23.0737 22.4843 23.0737 22.779 22.779C23.0737 22.4843 23.0737 22.0065 22.779 21.7119L2.28813 1.22101ZM18.5 19.5671L6.43288 7.5H5.5V21L9.9 17.7C11.1444 16.7667 12.8556 16.7667 14.1 17.7L18.5 21V19.5671ZM18.5 6H9.18701L10.687 7.5H18.5V15.313L20 16.813V5C20 2.79086 18.2091 1 16 1H8C6.943 1 5.98176 1.40998 5.26662 2.0796L6.3282 3.14119C6.7711 2.74258 7.35722 2.5 8 2.5H16C17.3807 2.5 18.5 3.61929 18.5 5V6Z" fill="#18202A"/>
</svg>
