<svg width="24" height="24" viewBox="0 0 24 24" fill="none" xmlns="http://www.w3.org/2000/svg">
<g clip-path="url(#clip0_3875_8856)">
<path fill-rule="evenodd" clip-rule="evenodd" d="M11 1C9.34315 1 8 2.34315 8 4V5H2.75C2.33579 5 2 5.33579 2 5.75C2 6.16421 2.33579 6.5 2.75 6.5H4V17C4 20.3137 6.68629 23 10 23H13.8762C13.5203 22.5448 13.2237 22.0409 12.9982 21.5H10C7.51472 21.5 5.5 19.4853 5.5 17V6.5H18.5V12.5189C18.665 12.5064 18.8318 12.5 19 12.5C19.3401 12.5 19.674 12.5261 20 12.5764V6.5H21.25C21.6642 6.5 22 6.16421 22 5.75C22 5.33579 21.6642 5 21.25 5H16V4C16 2.34315 14.6569 1 13 1H11ZM14.5 4C14.5 3.17157 13.8284 2.5 13 2.5H11C10.1716 2.5 9.5 3.17157 9.5 4V5H14.5V4Z" fill="#18202A"/>
<path d="M13.25 15.9661C13.6299 15.2477 14.1404 14.609 14.75 14.0818V11C14.75 10.5858 14.4142 10.25 14 10.25C13.5858 10.25 13.25 10.5858 13.25 11V15.9661Z" fill="#18202A"/>
<path d="M10 10.25C10.4142 10.25 10.75 10.5858 10.75 11V17C10.75 17.4142 10.4142 17.75 10 17.75C9.58579 17.75 9.25 17.4142 9.25 17V11C9.25 10.5858 9.58579 10.25 10 10.25Z" fill="#18202A"/>
<path fill-rule="evenodd" clip-rule="evenodd" d="M19 24C21.7614 24 24 21.7614 24 19C24 16.2386 21.7614 14 19 14C16.2386 14 14 16.2386 14 19C14 21.7614 16.2386 24 19 24ZM19.75 16.5C19.75 16.0858 19.4142 15.75 19 15.75C18.5858 15.75 18.25 16.0858 18.25 16.5V19C18.25 19.1989 18.329 19.3897 18.4697 19.5303L19.9697 21.0303C20.2626 21.3232 20.7374 21.3232 21.0303 21.0303C21.3232 20.7374 21.3232 20.2626 21.0303 19.9697L19.75 18.6893V16.5Z" fill="#18202A"/>
</g>
<defs>
<clipPath id="clip0_3875_8856">
<rect width="24" height="24" fill="white"/>
</clipPath>
</defs>
</svg>
