<svg width="24" height="24" viewBox="0 0 24 24" fill="none" xmlns="http://www.w3.org/2000/svg">
<path d="M9 5C9 3.34315 10.3431 2 12 2C13.6569 2 15 3.34315 15 5V11C15 12.6569 13.6569 14 12 14C10.3431 14 9 12.6569 9 11V5Z" fill="#18202A"/>
<path d="M6.00003 11C5.44775 11 4.99253 11.4503 5.0705 11.997C5.50787 15.0641 7.93333 17.4904 11 17.9291V20H8.5C7.94771 20 7.5 20.4477 7.5 21C7.5 21.5523 7.94771 22 8.5 22H15.5C16.0523 22 16.5 21.5523 16.5 21C16.5 20.4477 16.0523 20 15.5 20H13V17.9291C16.0667 17.4905 18.4922 15.0641 18.9296 11.997C19.0075 11.4503 18.5523 11 18 11C17.4477 11 17.0105 11.4522 16.9013 11.9936C16.4405 14.279 14.4212 16 12 16C9.57882 16 7.55956 14.279 7.09876 11.9936C6.9896 11.4522 6.55232 11 6.00003 11Z" fill="#18202A"/>
</svg>
