<svg width="24" height="24" viewBox="0 0 24 24" fill="none" xmlns="http://www.w3.org/2000/svg">
<path fill-rule="evenodd" clip-rule="evenodd" d="M4 5C4 2.79086 5.79086 1 8 1H18C20.2091 1 22 2.79086 22 5V19C22 21.2091 20.2091 23 18 23H8C5.79086 23 4 21.2091 4 19V5ZM13 11.5455C14.2121 11.5455 14.8182 10.4091 14.8182 8.98864C14.8182 7.85227 14.2121 7 13 7C11.7879 7 11.1818 7.85227 11.1818 8.98864C11.1818 10.4091 11.7879 11.5455 13 11.5455ZM9.59063 13.9553C9.18949 14.9711 9.37181 15.1793 9.73646 15.5959C10.4832 16.4489 11.6671 17 13 17C14.3329 17 15.5169 16.4489 16.2636 15.5959C16.6282 15.1793 16.8105 14.9711 16.4094 13.9553C16.0082 12.9395 15.6194 12.8483 14.8416 12.6658C14.2548 12.528 13.6373 12.4545 13 12.4545C12.3627 12.4545 11.7453 12.528 11.1584 12.6658C10.3807 12.8483 9.99178 12.9395 9.59063 13.9553ZM1 6C1 5.44772 1.44772 5 2 5H3V9H2C1.44772 9 1 8.55228 1 8V6ZM1 11C1 10.4477 1.44772 10 2 10H3V14H2C1.44772 14 1 13.5523 1 13V11ZM2 15C1.44772 15 1 15.4477 1 16V18C1 18.5523 1.44772 19 2 19H3V15H2Z" fill="#18202A"/>
</svg>
