<svg width="24" height="24" viewBox="0 0 24 24" fill="none" xmlns="http://www.w3.org/2000/svg">
<path d="M7.99998 3C7.99998 2.63121 7.797 2.29235 7.47184 2.11833C7.14668 1.94431 6.75214 1.96338 6.44528 2.16795L3.44528 4.16795C2.98576 4.4743 2.86158 5.09517 3.16793 5.5547C3.47429 6.01423 4.09516 6.1384 4.55468 5.83205L5.99998 4.86852V9C5.99998 9.55229 6.4477 10 6.99998 10C7.55227 10 7.99998 9.55229 7.99998 9V3Z" fill="#18202A"/>
<path d="M5 15C5 14.6914 5.40211 14 6.5 14C7.5188 14 8 14.6208 8 15.25C8 15.5161 7.93377 15.707 7.56606 16.0517C7.26718 16.3319 6.87943 16.6144 6.33446 17.0115C6.06437 17.2083 5.75566 17.4333 5.4 17.7L3.4 19.2C3.05566 19.4583 2.91521 19.9079 3.05132 20.3162C3.18743 20.7246 3.56957 21 4 21H9C9.55229 21 10 20.5523 10 20C10 19.4477 9.55229 19 9 19H7.00466C7.1333 18.9055 7.25978 18.8133 7.38343 18.7231C7.99747 18.2754 8.54155 17.8787 8.93394 17.5108C9.56623 16.918 10 16.2339 10 15.25C10 13.3792 8.48121 12 6.5 12C4.59789 12 3 13.3086 3 15C3 15.5523 3.44772 16 4 16C4.55229 16 5 15.5523 5 15Z" fill="#18202A"/>
<path d="M12 5C12 4.44772 12.4477 4 13 4H21C21.5523 4 22 4.44772 22 5C22 5.55228 21.5523 6 21 6H13C12.4477 6 12 5.55228 12 5Z" fill="#18202A"/>
<path d="M13 7C12.4477 7 12 7.44772 12 8C12 8.55228 12.4477 9 13 9H21C21.5523 9 22 8.55228 22 8C22 7.44772 21.5523 7 21 7H13Z" fill="#18202A"/>
<path d="M12 16C12 15.4477 12.4477 15 13 15H21C21.5523 15 22 15.4477 22 16C22 16.5523 21.5523 17 21 17H13C12.4477 17 12 16.5523 12 16Z" fill="#18202A"/>
<path d="M13 18C12.4477 18 12 18.4477 12 19C12 19.5523 12.4477 20 13 20H21C21.5523 20 22 19.5523 22 19C22 18.4477 21.5523 18 21 18H13Z" fill="#18202A"/>
</svg>
