<svg width="24" height="24" viewBox="0 0 24 24" fill="none" xmlns="http://www.w3.org/2000/svg">
<path d="M9.75 3C6.77569 3 5 5.39855 5 7.75C5 8.34344 5.1131 8.93987 5.33001 9.5H6.99249C6.67156 8.97762 6.5 8.36711 6.5 7.75C6.5 6.10145 7.72431 4.5 9.75 4.5H14C16.183 4.5 17.5 6.00515 17.5 7.25C17.5 7.66421 17.8358 8 18.25 8C18.6642 8 19 7.66421 19 7.25C19 4.99485 16.817 3 14 3H9.75Z" fill="#18202A"/>
<path d="M2 11.75C2 11.3358 2.33579 11 2.75 11H21.25C21.6642 11 22 11.3358 22 11.75C22 12.1642 21.6642 12.5 21.25 12.5H18.5729C19.5379 13.4029 20 14.6328 20 16C20 17.435 19.491 18.7188 18.4256 19.6319C17.3741 20.5333 15.8671 21 14 21H9C6.03039 21 4 18.3566 4 16C4 15.5858 4.33579 15.25 4.75 15.25C5.16421 15.25 5.5 15.5858 5.5 16C5.5 17.6434 6.96961 19.5 9 19.5H14C15.6329 19.5 16.7509 19.0917 17.4494 18.4931C18.134 17.9062 18.5 17.065 18.5 16C18.5 14.935 18.134 14.0938 17.4494 13.5069C16.7509 12.9083 15.6329 12.5 14 12.5H2.75C2.33579 12.5 2 12.1642 2 11.75Z" fill="#18202A"/>
</svg>
