<svg width="24" height="24" viewBox="0 0 24 24" fill="none" xmlns="http://www.w3.org/2000/svg">
<path fill-rule="evenodd" clip-rule="evenodd" d="M12 8.07333L10.8803 10.4463L8.29766 10.8368L10.1695 12.7466L9.73538 15.3897L12 14.1455L14.2646 15.3897L13.8305 12.7462L15.7024 10.839L13.1195 10.4459L12 8.07333ZM11.1265 6.40951C11.4785 5.6635 12.5215 5.6635 12.8735 6.40951L14.1351 9.08318L16.9237 9.50763C17.3543 9.57315 17.6191 9.8937 17.7093 10.2023C17.7993 10.5101 17.7471 10.8971 17.4658 11.1837L15.434 13.2539L15.9175 16.1981C15.9781 16.5672 15.8311 16.9201 15.5632 17.1362C15.2894 17.3571 14.8762 17.4371 14.5013 17.2312L12 15.857L9.49875 17.2312C9.12383 17.4371 8.71056 17.3571 8.43678 17.1362C8.16888 16.9201 8.02191 16.5672 8.08251 16.1981L8.56609 13.2536L6.5337 11.1799C6.25261 10.8931 6.20063 10.5061 6.29088 10.1983C6.38137 9.88972 6.64653 9.56932 7.07722 9.50421L9.86514 9.08274L11.1265 6.40951Z" fill="#18202A"/>
<path fill-rule="evenodd" clip-rule="evenodd" d="M12 21.5C17.2467 21.5 21.5 17.2467 21.5 12C21.5 6.75329 17.2467 2.5 12 2.5C6.75329 2.5 2.5 6.75329 2.5 12C2.5 17.2467 6.75329 21.5 12 21.5ZM23 12C23 18.0751 18.0751 23 12 23C5.92487 23 1 18.0751 1 12C1 5.92487 5.92487 1 12 1C18.0751 1 23 5.92487 23 12Z" fill="#18202A"/>
</svg>
