<svg width="24" height="24" viewBox="0 0 24 24" fill="none" xmlns="http://www.w3.org/2000/svg">
<path d="M14 14C14 14.7403 13.5978 15.3866 13 15.7324V18C13 18.5523 12.5523 19 12 19C11.4477 19 11 18.5523 11 18V15.7324C10.4022 15.3866 10 14.7403 10 14C10 12.8954 10.8954 12 12 12C13.1046 12 14 12.8954 14 14Z" fill="#18202A"/>
<path fill-rule="evenodd" clip-rule="evenodd" d="M22 12C22 9.79086 20.2091 8 18 8V7C18 3.68629 15.3137 1 12 1C8.68629 1 6 3.68629 6 7V8C3.79086 8 2 9.79086 2 12V19C2 21.2091 3.79086 23 6 23H18C20.2091 23 22 21.2091 22 19V12ZM12 2.5C14.4853 2.5 16.5 4.51472 16.5 7V8H7.5V7C7.5 4.51472 9.51472 2.5 12 2.5ZM3.5 12C3.5 10.6193 4.61929 9.5 6 9.5H18C19.3807 9.5 20.5 10.6193 20.5 12V19C20.5 20.3807 19.3807 21.5 18 21.5H6C4.61929 21.5 3.5 20.3807 3.5 19V12Z" fill="#18202A"/>
</svg>
