<svg width="24" height="24" viewBox="0 0 24 24" fill="none" xmlns="http://www.w3.org/2000/svg">
<path d="M3.22099 2.22101C3.51567 1.92633 3.99344 1.92633 4.28812 2.22101L20.779 18.7119C21.0737 19.0065 21.0737 19.4843 20.779 19.779C20.4843 20.0737 20.0065 20.0737 19.7119 19.779L3.22099 3.28813C2.92632 2.99345 2.92632 2.51569 3.22099 2.22101Z" fill="#18202A"/>
<path d="M6.11271 4.04704C4.02535 4.81762 2.13075 5.98618 0.52096 7.46064C0.21551 7.74042 0.216603 8.21663 0.509496 8.50952C0.80239 8.80241 1.27608 8.80093 1.58271 8.52246C3.20872 7.04578 5.14982 5.90987 7.29322 5.22754L6.11271 4.04704Z" fill="#18202A"/>
<path d="M10.1998 8.13413C7.86556 8.48529 5.7515 9.50882 4.06116 11.0012C3.75065 11.2753 3.75214 11.7522 4.04503 12.0451C4.33792 12.3379 4.81114 12.3357 5.12408 12.0643C6.86632 10.5534 9.1111 9.60672 11.5742 9.50848L10.1998 8.13413Z" fill="#18202A"/>
<path d="M13.8493 9.66234L12.1884 8.00145C15.1586 8.04718 17.867 9.17201 19.9388 11.0012C20.2493 11.2753 20.2478 11.7522 19.9549 12.045C19.662 12.3379 19.1888 12.3357 18.8759 12.0643C17.4757 10.8501 15.7511 10.0003 13.8493 9.66234Z" fill="#18202A"/>
<path d="M8.98086 4.79386L7.72819 3.5412C9.09314 3.18794 10.5246 3 12 3C16.4247 3 20.4545 4.6904 23.479 7.46064C23.7845 7.74041 23.7834 8.21662 23.4905 8.50951C23.1976 8.80241 22.7239 8.80093 22.4173 8.52246C19.6652 6.02312 16.0105 4.5 12 4.5C10.9669 4.5 9.9574 4.60107 8.98086 4.79386Z" fill="#18202A"/>
<path d="M16.4194 15.5806C16.7123 15.2877 16.7146 14.8092 16.3922 14.5491C15.1912 13.5801 13.6633 13 12 13C10.3366 13 8.80881 13.5801 7.60778 14.5491C7.28541 14.8092 7.28767 15.2877 7.58057 15.5806C7.87346 15.8735 8.3457 15.8687 8.6755 15.6181C9.59889 14.9165 10.7508 14.5 12 14.5C13.2492 14.5 14.4011 14.9165 15.3245 15.6181C15.6543 15.8687 16.1265 15.8735 16.4194 15.5806Z" fill="#18202A"/>
<path d="M14 20C14 21.1046 13.1046 22 12 22C10.8954 22 9.99998 21.1046 9.99998 20C9.99998 18.8954 10.8954 18 12 18C13.1046 18 14 18.8954 14 20Z" fill="#18202A"/>
</svg>
