<svg width="24" height="24" viewBox="0 0 24 24" fill="none" xmlns="http://www.w3.org/2000/svg">
<path d="M9 6.25C8.58579 6.25 8.25 6.58579 8.25 7C8.25 7.41421 8.58579 7.75 9 7.75H15C15.4142 7.75 15.75 7.41421 15.75 7C15.75 6.58579 15.4142 6.25 15 6.25H9Z" fill="#18202A"/>
<path d="M9 10.25C8.58579 10.25 8.25 10.5858 8.25 11C8.25 11.4142 8.58579 11.75 9 11.75H15C15.4142 11.75 15.75 11.4142 15.75 11C15.75 10.5858 15.4142 10.25 15 10.25H9Z" fill="#18202A"/>
<path d="M8.25 15C8.25 14.5858 8.58579 14.25 9 14.25H15C15.4142 14.25 15.75 14.5858 15.75 15C15.75 15.4142 15.4142 15.75 15 15.75H9C8.58579 15.75 8.25 15.4142 8.25 15Z" fill="#18202A"/>
<path fill-rule="evenodd" clip-rule="evenodd" d="M6 1.25C5.53587 1.25 5.09075 1.43437 4.76256 1.76256C4.43437 2.09075 4.25 2.53587 4.25 3V22C4.25 22.2809 4.40701 22.5383 4.65681 22.6669C4.90662 22.7954 5.20732 22.7736 5.43593 22.6103L8.5 20.4217L11.5641 22.6103C11.8248 22.7966 12.1752 22.7966 12.4359 22.6103L15.5 20.4217L18.5641 22.6103C18.7927 22.7736 19.0934 22.7954 19.3432 22.6669C19.593 22.5383 19.75 22.2809 19.75 22V3C19.75 2.53587 19.5656 2.09075 19.2374 1.76256C18.9092 1.43437 18.4641 1.25 18 1.25H6ZM5.82322 2.82322C5.87011 2.77634 5.9337 2.75 6 2.75H18C18.0663 2.75 18.1299 2.77634 18.1768 2.82322C18.2237 2.87011 18.25 2.93369 18.25 3V20.5426L15.9359 18.8897C15.6752 18.7034 15.3248 18.7034 15.0641 18.8897L12 21.0783L8.93593 18.8897C8.67516 18.7034 8.32484 18.7034 8.06407 18.8897L5.75 20.5426V3C5.75 2.9337 5.77634 2.87011 5.82322 2.82322Z" fill="#18202A"/>
</svg>
