<svg width="24" height="24" viewBox="0 0 24 24" fill="none" xmlns="http://www.w3.org/2000/svg">
<path d="M17.0791 2.24028L17.09 2.24594C17.1329 2.26841 17.1757 2.29115 17.2184 2.31416C17.2628 2.33817 17.3078 2.36286 17.3526 2.38786C17.3906 2.40906 17.428 2.43021 17.4652 2.45156C17.5208 2.48346 17.5762 2.51589 17.6313 2.54878C17.6591 2.56534 17.687 2.58221 17.7149 2.59919C17.7813 2.63964 17.8468 2.68053 17.9119 2.72209C17.9306 2.734 17.9495 2.74616 17.9684 2.75838C18.0297 2.79809 18.0905 2.83828 18.1508 2.87905C18.1737 2.89451 18.1966 2.91007 18.2193 2.92571L18.2335 2.93548C18.3962 3.04757 18.5558 3.16394 18.712 3.2844C18.7378 3.3043 18.7635 3.32432 18.7891 3.34445C18.8376 3.38251 18.8855 3.42083 18.9331 3.45955C18.9699 3.48944 19.0066 3.51961 19.043 3.55002C19.0887 3.58812 19.1343 3.62685 19.1797 3.66595C19.2042 3.68713 19.2285 3.70821 19.2526 3.72939C19.3994 3.85824 19.5429 3.99108 19.6828 4.12761L19.7052 4.14949C19.7306 4.17447 19.7559 4.19956 19.7811 4.22478C19.8235 4.26716 19.8654 4.30985 19.9071 4.35287C19.9228 4.36918 19.9382 4.38518 19.9535 4.40121C20.0711 4.52421 20.1863 4.65048 20.2986 4.77939C20.3196 4.80357 20.3409 4.82821 20.3621 4.85294L20.4129 4.91284C20.4201 4.92139 20.4273 4.92994 20.4345 4.93851C20.4791 4.99172 20.5234 5.04563 20.5672 5.09995C22.0887 6.98613 23 9.38664 23 12C23 14.5282 22.1471 16.8572 20.7133 18.715L20.8872 18.4833C20.813 18.5849 20.7372 18.6851 20.6596 18.7839C20.6138 18.8424 20.5676 18.9 20.5209 18.9571C20.4959 18.9877 20.4706 19.0183 20.4451 19.0488C20.316 19.2034 20.1825 19.3545 20.0451 19.5018C20.0163 19.5327 19.9876 19.5631 19.9587 19.5934C19.923 19.6308 19.887 19.668 19.8507 19.705C19.8108 19.7456 19.7706 19.786 19.7301 19.826C19.6885 19.867 19.6466 19.9078 19.6043 19.9483C19.5814 19.9702 19.5584 19.992 19.5352 20.0138C19.3838 20.1562 19.2285 20.2943 19.0694 20.4279C19.0405 20.4522 19.0109 20.4767 18.9812 20.5011C18.941 20.5342 18.9006 20.5669 18.8601 20.5993C18.8109 20.6386 18.7616 20.6773 18.712 20.7155C18.5748 20.8214 18.435 20.924 18.2928 21.0234C18.2758 21.0353 18.2587 21.0472 18.2416 21.059C18.0706 21.177 17.8961 21.2903 17.7183 21.3988C17.6953 21.4128 17.673 21.4263 17.6506 21.4397C17.5877 21.4774 17.5236 21.515 17.4591 21.5519C17.4259 21.5709 17.3926 21.5898 17.3591 21.6085C17.1877 21.7043 17.0139 21.7954 16.8375 21.8819L16.7994 21.9005C16.7714 21.9142 16.7432 21.9277 16.715 21.9411C16.6575 21.9684 16.5997 21.9952 16.5417 22.0216C16.4972 22.0418 16.4522 22.0618 16.4071 22.0816C16.3638 22.1005 16.3208 22.119 16.2777 22.1372C16.2275 22.1585 16.1771 22.1793 16.1264 22.1998C16.0788 22.2191 16.0304 22.2383 15.9819 22.2572C15.9131 22.2839 15.8441 22.3099 15.7748 22.3352C15.7024 22.3617 15.6297 22.3873 15.5568 22.4123C15.5356 22.4195 15.515 22.4265 15.4943 22.4334C15.4116 22.4611 15.3279 22.488 15.2437 22.5139C15.2158 22.5225 15.1882 22.5309 15.1606 22.5392C15.088 22.5609 15.0148 22.582 14.9412 22.6024C14.9098 22.6111 14.8785 22.6196 14.8471 22.628C14.6417 22.6829 14.4339 22.732 14.224 22.7751C14.2174 22.7764 14.2117 22.7776 14.206 22.7787L13.9773 22.8228C13.3358 22.9392 12.675 23 12 23C7.01373 23 2.80234 19.6823 1.45289 15.134L1.4526 15.133L1.43701 15.08C1.40864 14.9825 1.38158 14.8845 1.35585 14.7859L1.4526 15.133C1.40697 14.9792 1.36461 14.8239 1.32561 14.6673C1.30606 14.5888 1.28746 14.5104 1.2697 14.4317C1.26067 14.3917 1.2518 14.3514 1.24316 14.3109C1.22825 14.2412 1.21399 14.1712 1.20039 14.1009C1.18697 14.0314 1.17419 13.9617 1.16206 13.8918C1.14751 13.8078 1.13395 13.7238 1.12135 13.6395C1.11515 13.598 1.10919 13.5565 1.10345 13.5148C1.09042 13.4202 1.07858 13.3251 1.06796 13.2297C1.06628 13.2146 1.06461 13.1993 1.06297 13.1839C1.05065 13.0688 1.04014 12.9535 1.03143 12.8377C1.02847 12.7984 1.02574 12.7595 1.02322 12.7205C1.01722 12.6277 1.01233 12.534 1.00864 12.4399C1.00751 12.4113 1.0065 12.383 1.00561 12.3547C1.00188 12.2369 1 12.1187 1 12C1 5.92487 5.92487 1 12 1C12.1133 1 12.2262 1.00171 12.3386 1.00511L12 1C12.1218 1 12.2431 1.00198 12.364 1.00591C12.4632 1.00913 12.5623 1.01368 12.6611 1.01954C12.6871 1.02108 12.7138 1.02276 12.7405 1.02453C12.8148 1.02947 12.8884 1.03511 12.9618 1.04146C12.9973 1.04454 13.0326 1.04777 13.0679 1.05117C13.1348 1.05762 13.2019 1.0647 13.2688 1.07238C13.3154 1.07774 13.362 1.0834 13.4086 1.08934C13.6095 1.11503 13.8084 1.14608 14.0054 1.18238C14.0354 1.1879 14.0648 1.19344 14.0942 1.1991C14.1682 1.21336 14.2422 1.22843 14.316 1.24424C14.3493 1.25138 14.3827 1.25869 14.416 1.26616C14.4749 1.27937 14.5339 1.29309 14.5926 1.30729C14.6479 1.32065 14.7026 1.33431 14.757 1.34837C14.8058 1.36096 14.8546 1.3739 14.9032 1.38717C14.9415 1.39761 14.98 1.40835 15.0184 1.4193C15.2177 1.47604 15.414 1.53803 15.6078 1.6053C15.6349 1.61472 15.6624 1.62436 15.6898 1.63411C15.7612 1.65953 15.8321 1.68562 15.9027 1.71241C15.9245 1.7207 15.9462 1.72901 15.9679 1.73739C16.0427 1.76633 16.117 1.79604 16.191 1.82654C16.2189 1.83806 16.2469 1.84973 16.2748 1.86152C16.3465 1.89178 16.4178 1.92281 16.4888 1.95457C16.5077 1.96302 16.527 1.97171 16.5462 1.98044C16.6266 2.017 16.706 2.05423 16.7848 2.09237C16.7986 2.09906 16.8122 2.10568 16.8258 2.11232L16.8375 2.11805C16.9186 2.15783 16.9992 2.19858 17.0791 2.24028ZM13.5 7.5C15 9 15.5 12.5 13.5 12.5C11.5 12.5 11.5 14 12 15.5C12.3433 16.5299 10.9719 16.7894 9.58366 15.5C8.9499 14.9114 9.02746 13.1776 7.99998 12.5C5.40948 10.7915 4.06677 12.6844 3.18994 13.8465C4.04162 17.9316 7.66247 21 12 21C12.5242 21 13.0379 20.9552 13.5376 20.8692C13.4086 18 16.0076 15.8635 19.3512 17.1906C20.3902 15.7247 21 13.9336 21 12C21 9.02542 19.5569 6.38789 17.3327 4.74928C14.2966 4.44965 12.5018 6.50176 13.5 7.5Z" fill="#18202A"/>
</svg>
