<svg width="24" height="24" viewBox="0 0 24 24" fill="none" xmlns="http://www.w3.org/2000/svg">
<path fill-rule="evenodd" clip-rule="evenodd" d="M1.26787 1.26786C1.65874 0.876986 2.33427 0.918793 2.77672 1.36124L20.6388 19.2233C21.0812 19.6657 21.123 20.3413 20.7321 20.7321C20.3413 21.123 19.6657 21.0812 19.2233 20.6388L1.36124 2.77671C0.9188 2.33427 0.876994 1.65873 1.26787 1.26786Z" fill="#18202A"/>
<path d="M20.5111 16.273C21.977 13.7192 23 10.173 23 5.14266C23.0005 4.61219 22.6419 4.14324 22.1163 3.98482L12.3754 1.05486L12.227 1.01975C12.0271 0.984638 11.8206 0.996342 11.6251 1.05486L6.75717 2.51908L8.36255 4.12445L12.001 3.03L20.994 5.736L20.9865 6.11045C20.8844 9.7272 20.2041 12.5707 19.0397 14.8016L20.5111 16.273Z" fill="#18202A"/>
<path d="M19.3738 17.9641L17.9476 16.5379C17.8346 16.6881 17.7188 16.8348 17.6002 16.9779L17.4025 17.2116C16.0179 18.8138 14.5986 19.724 12.0768 20.8945L12 20.929L11.5686 20.7283C9.15004 19.5802 7.78337 18.6478 6.39979 16.9778L6.20498 16.7362C4.283 14.2889 3.14786 10.869 3.01347 6.112L3.005 5.736L6.18817 4.7785L4.58278 3.17311L1.88416 3.98482L1.75636 4.03064C1.30132 4.22134 1 4.65595 1 5.14266C1 17.5133 7.18693 20.9079 10.932 22.6411L11.4616 22.8837C11.6321 22.9612 11.8162 23 12.0003 23C12.1843 23 12.3679 22.9612 12.5379 22.8837C14.4328 22.0207 17.1731 20.7721 19.3738 17.9641Z" fill="#18202A"/>
<path d="M7.77787 6.3682L5 7.204L5.0151 7.42808C5.29 11.0298 6.23619 13.6149 7.69448 15.4813L7.87192 15.7018C8.84773 16.8797 9.82958 17.6306 11.4175 18.4558L11.932 18.715L12.1185 18.623C13.8036 17.7791 14.8324 17.0445 15.8184 15.907L15.992 15.702C16.16 15.4993 16.3215 15.2877 16.4766 15.0669L7.77787 6.3682Z" fill="#18202A"/>
<path d="M17.4986 13.2605C18.2048 11.6935 18.6696 9.77632 18.8489 7.42588L18.863 7.203L11.933 5.118L9.95211 5.71401L17.4986 13.2605Z" fill="#18202A"/>
</svg>
