<svg width="24" height="24" viewBox="0 0 24 24" fill="none" xmlns="http://www.w3.org/2000/svg">
<path fill-rule="evenodd" clip-rule="evenodd" d="M22.8924 13.1811C22.9636 12.692 23 12.1942 23 11.6909C23 5.2 18.0797 1 12.0102 1C5.94074 1 0.628009 5.96364 1.02045 11.6909C1.02045 15.1132 2.38822 17.7925 4.57105 19.561L4.78115 22.0822C4.8388 22.774 5.56647 23.198 6.19676 22.9071L8.92267 21.649C9.90216 21.8809 10.9383 22 12.0102 22C12.2315 22 12.4502 21.9947 12.6662 21.9842C12.2389 21.079 12 20.0674 12 19C12 16.3074 13.5203 13.9698 15.7493 12.7989C15.3014 12.5395 15 12.0549 15 11.5C15 10.6716 15.6716 10 16.5 10C17.3284 10 18 10.6716 18 11.5C18 11.7091 17.9572 11.9083 17.8799 12.0891C18.2446 12.0305 18.6187 12 19 12C20.4405 12 21.7794 12.4351 22.8924 13.1811ZM7.5 13C8.32843 13 9 12.3284 9 11.5C9 10.6716 8.32843 10 7.5 10C6.67157 10 6 10.6716 6 11.5C6 12.3284 6.67157 13 7.5 13ZM13.5 11.5C13.5 12.3284 12.8284 13 12 13C11.1716 13 10.5 12.3284 10.5 11.5C10.5 10.6716 11.1716 10 12 10C12.8284 10 13.5 10.6716 13.5 11.5Z" fill="#18202A"/>
<path fill-rule="evenodd" clip-rule="evenodd" d="M19 24C21.7614 24 24 21.7614 24 19C24 16.2386 21.7614 14 19 14C16.2386 14 14 16.2386 14 19C14 21.7614 16.2386 24 19 24ZM22.0694 17.9881C22.339 17.6736 22.3026 17.2001 21.9881 16.9306C21.6736 16.661 21.2001 16.6974 20.9305 17.0119L18.3878 19.9784L16.95 18.9C16.6186 18.6515 16.1485 18.7186 15.9 19.05C15.6515 19.3814 15.7186 19.8515 16.05 20.1L18.05 21.6C18.3662 21.8372 18.8122 21.7882 19.0694 21.4881L22.0694 17.9881Z" fill="#18202A"/>
</svg>
