<svg width="24" height="24" viewBox="0 0 24 24" fill="none" xmlns="http://www.w3.org/2000/svg">
<g clip-path="url(#clip0_3736_8788)">
<path d="M13 6.75C13 6.33579 12.6642 6 12.25 6C11.8358 6 11.5 6.33579 11.5 6.75V13.25C11.5 13.6642 11.8358 14 12.25 14H18.25C18.6642 14 19 13.6642 19 13.25C19 12.8358 18.6642 12.5 18.25 12.5H13V6.75Z" fill="#18202A"/>
<path fill-rule="evenodd" clip-rule="evenodd" d="M13 0.75C13 0.335786 12.6642 0 12.25 0C11.8358 0 11.5 0.335786 11.5 0.75V2.01116C5.65693 2.27256 1 7.09244 1 13C1 19.0751 5.92487 24 12 24C18.0751 24 23 19.0751 23 13C23 9.55288 21.4144 6.4761 18.9327 4.45922L19.8616 3.53033C20.1545 3.23744 20.1545 2.76256 19.8616 2.46967C19.5687 2.17678 19.0939 2.17678 18.801 2.46967L17.6879 3.58278C16.2969 2.74089 14.7045 2.19845 13 2.04484V0.75ZM12 22.5C17.2467 22.5 21.5 18.2467 21.5 13C21.5 7.75329 17.2467 3.5 12 3.5C6.75329 3.5 2.5 7.75329 2.5 13C2.5 18.2467 6.75329 22.5 12 22.5Z" fill="#18202A"/>
</g>
<defs>
<clipPath id="clip0_3736_8788">
<rect width="24" height="24" fill="white"/>
</clipPath>
</defs>
</svg>
