<svg width="24" height="24" viewBox="0 0 24 24" fill="none" xmlns="http://www.w3.org/2000/svg">
<path fill-rule="evenodd" clip-rule="evenodd" d="M5 4C3.34315 4 2 5.34315 2 7V16C2 17.6569 3.34315 19 5 19H11V20H9C8.44772 20 8 20.4477 8 21C8 21.5523 8.44772 22 9 22H15C15.5523 22 16 21.5523 16 21C16 20.4477 15.5523 20 15 20H13V19H19C20.6569 19 22 17.6569 22 16V7C22 5.34315 20.6569 4 19 4H5ZM20 7C20 6.44771 19.5523 6 19 6H5C4.44772 6 4 6.44772 4 7V13H20V7ZM19 17C19.5523 17 20 16.5523 20 16V15H4V16C4 16.5523 4.44772 17 5 17H19Z" fill="#18202A"/>
</svg>
