<svg width="24" height="24" viewBox="0 0 24 24" fill="none" xmlns="http://www.w3.org/2000/svg">
<path fill-rule="evenodd" clip-rule="evenodd" d="M10.5 13.1493V16.8507L13.5845 15L10.5 13.1493ZM10.5145 11.4087C9.84797 11.0088 9 11.4889 9 12.2662V17.7338C9 18.5111 9.84797 18.9912 10.5145 18.5913L15.0708 15.8575C15.7182 15.4691 15.7182 14.5309 15.0708 14.1425L10.5145 11.4087Z" fill="#18202A"/>
<path fill-rule="evenodd" clip-rule="evenodd" d="M19 8.5H5C3.61929 8.5 2.5 9.61929 2.5 11V18C2.5 19.933 4.067 21.5 6 21.5H18C19.933 21.5 21.5 19.933 21.5 18V11C21.5 9.61929 20.3807 8.5 19 8.5ZM5 7C2.79086 7 1 8.79086 1 11V18C1 20.7614 3.23858 23 6 23H18C20.7614 23 23 20.7614 23 18V11C23 8.79086 21.2091 7 19 7H5Z" fill="#18202A"/>
<path d="M4 4.75C4 4.33579 4.33579 4 4.75 4H19.25C19.6642 4 20 4.33579 20 4.75C20 5.16421 19.6642 5.5 19.25 5.5H4.75C4.33579 5.5 4 5.16421 4 4.75Z" fill="#18202A"/>
<path d="M6 1.75C6 1.33579 6.33579 1 6.75 1H17.25C17.6642 1 18 1.33579 18 1.75C18 2.16421 17.6642 2.5 17.25 2.5H6.75C6.33579 2.5 6 2.16421 6 1.75Z" fill="#18202A"/>
</svg>
