<svg width="24" height="24" viewBox="0 0 24 24" fill="none" xmlns="http://www.w3.org/2000/svg">
<path fill-rule="evenodd" clip-rule="evenodd" d="M19.7119 2.22101C20.0065 1.92633 20.4843 1.92633 20.779 2.22101C21.0737 2.51569 21.0737 2.99345 20.779 3.28813L16 8.06712V11C16 13.2091 14.2091 15 12 15C11.1681 15 10.3956 14.7461 9.75563 14.3115L8.66565 15.4015C9.58463 16.0913 10.7267 16.5 11.9642 16.5C14.7481 16.5 17.0488 14.4318 17.4138 11.7481C17.4696 11.3376 17.8 11 18.2142 11C18.6284 11 18.9684 11.3369 18.9246 11.7488C18.5784 15.0044 16.0005 17.5933 12.75 17.9564V20.5H15.75C16.1642 20.5 16.5 20.8358 16.5 21.25C16.5 21.6642 16.1642 22 15.75 22H8.25C7.83579 22 7.5 21.6642 7.5 21.25C7.5 20.8358 7.83579 20.5 8.25 20.5H11.25V17.964C9.87582 17.8247 8.61908 17.288 7.59656 16.4706L4.28813 19.779C3.99345 20.0737 3.51569 20.0737 3.22101 19.779C2.92633 19.4843 2.92633 19.0065 3.22101 18.7119L19.7119 2.22101ZM10.8479 13.2193C11.1926 13.3986 11.5845 13.5 12 13.5C13.3807 13.5 14.5 12.3807 14.5 11V9.56712L10.8479 13.2193Z" fill="#18202A"/>
<path d="M12 2C13.5723 2 14.9327 2.90715 15.5864 4.2266L14.4246 5.38835C14.1518 4.30332 13.1697 3.5 12 3.5C10.6193 3.5 9.5 4.61929 9.5 6V10.313L8.06905 11.7439C8.02371 11.5029 8 11.2542 8 11V6C8 3.79086 9.79086 2 12 2Z" fill="#18202A"/>
<path d="M6.83184 12.9811C6.68067 12.5898 6.57297 12.1768 6.51467 11.7481C6.45886 11.3376 6.12844 11 5.71423 11C5.30001 11 4.96001 11.3369 5.00381 11.7488C5.09351 12.5923 5.333 13.391 5.69518 14.1178L6.83184 12.9811Z" fill="#18202A"/>
</svg>
