<svg width="24" height="24" viewBox="0 0 24 24" fill="none" xmlns="http://www.w3.org/2000/svg">
<path d="M2 4C2 2.89543 2.89543 2 4 2H9C10.1046 2 11 2.89543 11 4V6C11 7.10457 10.1046 8 9 8H7V12H15C15 10.8954 15.8954 10 17 10H20C21.1046 10 22 10.8954 22 12V13C22 14.1046 21.1046 15 20 15H17C16.2597 15 15.6134 14.5978 15.2676 14H7V18C7 18.5523 7.44772 19 8 19H15C15 17.8954 15.8954 17 17 17H20C21.1046 17 22 17.8954 22 19V20C22 21.1046 21.1046 22 20 22H17C16.2597 22 15.6134 21.5978 15.2676 21H8C6.34315 21 5 19.6569 5 18V8H4C2.89543 8 2 7.10457 2 6V4Z" fill="#18202A"/>
</svg>
