<svg width="24" height="24" viewBox="0 0 24 24" fill="none" xmlns="http://www.w3.org/2000/svg">
<path fill-rule="evenodd" clip-rule="evenodd" d="M5.32063 12.75L2.59568 20.0084C2.55702 20.1113 2.53736 20.1874 2.52863 20.2412C2.52174 20.2836 2.5231 20.3034 2.52335 20.3061C2.67937 21.3139 3.71637 21.8623 4.72625 21.3035L20.1834 12.75H5.32063ZM20.1833 11.25L4.72625 2.69649C3.71623 2.13758 2.67934 2.686 2.52335 3.69387C2.52337 3.69365 2.52338 3.69354 2.52338 3.69354C2.52338 3.69354 2.52335 3.69387 2.52325 3.6945C2.52328 3.69429 2.52332 3.69408 2.52335 3.69387C2.5231 3.6966 2.52174 3.71634 2.52863 3.7588C2.53736 3.81254 2.55702 3.88861 2.59568 3.99157L5.32064 11.25H20.1833ZM1.19138 4.51878L3.99998 12L1.19138 19.4812C1.06481 19.8183 0.985868 20.1784 1.04082 20.5343C1.36846 22.6562 3.60424 23.6387 5.45251 22.6159L22.2649 13.3125C23.2966 12.7416 23.2966 11.2585 22.2649 10.6876L5.45253 1.38404C3.60424 0.361252 1.36842 1.34349 1.04081 3.46565C0.98587 3.82154 1.06481 4.18164 1.19138 4.51878Z" fill="#18202A"/>
</svg>
