<svg width="24" height="24" viewBox="0 0 24 24" fill="none" xmlns="http://www.w3.org/2000/svg">
<path d="M7 4.5C7 5.32843 7.67157 6 8.5 6C9.32843 6 10 5.32843 10 4.5C10 3.67157 9.32843 3 8.5 3C7.67157 3 7 3.67157 7 4.5Z" fill="#18202A"/>
<path d="M14 4.5C14 5.32843 14.6716 6 15.5 6C16.3284 6 17 5.32843 17 4.5C17 3.67157 16.3284 3 15.5 3C14.6716 3 14 3.67157 14 4.5Z" fill="#18202A"/>
<path d="M15.5 13C14.6716 13 14 12.3284 14 11.5C14 10.6716 14.6716 10 15.5 10C16.3284 10 17 10.6716 17 11.5C17 12.3284 16.3284 13 15.5 13Z" fill="#18202A"/>
<path d="M7 11.5C7 12.3284 7.67157 13 8.5 13C9.32843 13 10 12.3284 10 11.5C10 10.6716 9.32843 10 8.5 10C7.67157 10 7 10.6716 7 11.5Z" fill="#18202A"/>
<path d="M15.5 20C14.6716 20 14 19.3284 14 18.5C14 17.6716 14.6716 17 15.5 17C16.3284 17 17 17.6716 17 18.5C17 19.3284 16.3284 20 15.5 20Z" fill="#18202A"/>
<path d="M7 18.5C7 19.3284 7.67157 20 8.5 20C9.32843 20 10 19.3284 10 18.5C10 17.6716 9.32843 17 8.5 17C7.67157 17 7 17.6716 7 18.5Z" fill="#18202A"/>
</svg>
