<svg width="24" height="24" viewBox="0 0 24 24" fill="none" xmlns="http://www.w3.org/2000/svg">
<path d="M23.3137 8.68629C23.7042 8.29577 23.7061 7.66017 23.2934 7.29314C20.2906 4.62242 16.3348 3 12 3C7.66522 3 3.70936 4.62242 0.706557 7.29314C0.293881 7.66018 0.295765 8.29577 0.686289 8.6863C1.07681 9.07682 1.70789 9.07403 2.12341 8.71022C4.76198 6.40005 8.21749 5 12 5C15.7825 5 19.238 6.40005 21.8766 8.71021C22.2921 9.07402 22.9232 9.07681 23.3137 8.68629Z" fill="#18202A"/>
<path d="M19.7782 12.2218C20.1687 11.8313 20.1712 11.1946 19.7497 10.8377C17.6589 9.06745 14.9541 8 12 8C9.04589 8 6.34109 9.06745 4.25029 10.8377C3.82879 11.1946 3.8313 11.8313 4.22182 12.2218C4.61235 12.6124 5.24264 12.6079 5.67 12.2581C7.39406 10.8468 9.59814 10 12 10C14.4019 10 16.6059 10.8468 18.33 12.2581C18.7574 12.6079 19.3877 12.6123 19.7782 12.2218Z" fill="#18202A"/>
<path d="M16.2426 15.7574C16.6332 15.3668 16.6368 14.7269 16.1949 14.3956C15.0258 13.5192 13.5735 13 12 13C10.4265 13 8.97418 13.5192 7.80513 14.3956C7.36324 14.7269 7.36684 15.3668 7.75736 15.7574C8.14788 16.1479 8.77698 16.1377 9.23702 15.8321C10.0286 15.3063 10.9785 15 12 15C13.0215 15 13.9714 15.3063 14.763 15.8321C15.223 16.1377 15.8521 16.1479 16.2426 15.7574Z" fill="#18202A"/>
<path d="M14 20C14 21.1046 13.1046 22 12 22C10.8954 22 10 21.1046 10 20C10 18.8954 10.8954 18 12 18C13.1046 18 14 18.8954 14 20Z" fill="#18202A"/>
</svg>
