<svg width="64" height="64" viewBox="0 0 64 64" fill="none" xmlns="http://www.w3.org/2000/svg">
<path d="M27.9986 1.75C20.0435 1.75 14.6113 2.16444 11.2528 2.55626C7.88328 2.94936 5.31355 5.50357 4.92944 8.88581C4.52176 12.4755 4.08203 18.5389 4.08203 28.0001C4.08203 37.4612 4.52176 43.5246 4.92944 47.1143C5.31355 50.4966 7.88327 53.0508 11.2528 53.4438C14.6113 53.8357 20.0435 54.2501 27.9986 54.2501C35.9536 54.2501 41.3859 53.8357 44.7444 53.4438C48.1139 53.0508 50.6836 50.4966 51.0678 47.1143C51.4754 43.5246 51.9151 37.4612 51.9151 28.0001C51.9151 24.4566 51.8534 21.39 51.755 18.7518C51.7482 18.5715 51.7135 18.3933 51.6524 18.2236C51.1176 16.7404 49.4818 13.3541 44.7426 8.73221C39.7132 3.82746 36.1186 2.33862 34.7811 1.92269C34.6304 1.8758 34.4739 1.84954 34.3162 1.84459C32.4169 1.78513 30.3147 1.75 27.9986 1.75Z" fill="#E0FBE5"/>
<rect x="36" y="36" width="28" height="28" rx="14" fill="#3AB67B"/>
<path fill-rule="evenodd" clip-rule="evenodd" d="M57.4834 44.4409C57.8686 44.815 57.8775 45.4305 57.5034 45.8157L48.0589 55.5379C47.8725 55.7297 47.6154 55.8363 47.3479 55.8326C47.0805 55.8288 46.8264 55.7151 46.6455 55.5181L42.4788 50.981C42.1156 50.5856 42.1418 49.9705 42.5373 49.6074C42.9327 49.2442 43.5478 49.2703 43.911 49.6658L47.3814 53.4447L56.1086 44.4608C56.4828 44.0757 57.0983 44.0667 57.4834 44.4409Z" fill="white"/>
<path d="M51.7198 18.4515C48.7569 18.4502 43.6533 18.4034 40.7308 18.1231C37.5463 17.8175 35.0418 15.2764 34.7298 12.0229C34.4716 9.33102 34.4203 4.83365 34.418 1.85059C34.5419 1.86155 34.6644 1.88571 34.7834 1.92271C36.1208 2.33865 39.7156 3.82748 44.7448 8.73224C49.4841 13.3541 51.1199 16.7405 51.6547 18.2235C51.6815 18.2981 51.7033 18.3743 51.7198 18.4515Z" fill="#56CA76"/>
<path fill-rule="evenodd" clip-rule="evenodd" d="M20.1667 33.8333C20.1667 35.122 21.2113 36.1667 22.5 36.1667H35.3333C36.622 36.1667 37.6667 35.122 37.6667 33.8333C37.6667 32.5446 36.622 31.5 35.3333 31.5H22.5C21.2113 31.5 20.1667 32.5446 20.1667 33.8333ZM22.5 25.6667C21.2113 25.6667 20.1667 24.622 20.1667 23.3333C20.1667 22.0446 21.2113 21 22.5 21H30.6667C31.9554 21 33 22.0446 33 23.3333C33 24.622 31.9554 25.6667 30.6667 25.6667H22.5ZM12 33.8333C12 35.122 13.0446 36.1667 14.3333 36.1667H15.5C16.7887 36.1667 17.8333 35.122 17.8333 33.8333C17.8333 32.5446 16.7887 31.5 15.5 31.5H14.3333C13.0446 31.5 12 32.5446 12 33.8333ZM14.3333 25.6667C13.0446 25.6667 12 24.622 12 23.3333C12 22.0446 13.0446 21 14.3333 21H15.5C16.7887 21 17.8333 22.0446 17.8333 23.3333C17.8333 24.622 16.7887 25.6667 15.5 25.6667H14.3333Z" fill="#56CA76"/>
</svg>
