<svg width="24" height="24" viewBox="0 0 24 24" fill="none" xmlns="http://www.w3.org/2000/svg">
<path fill-rule="evenodd" clip-rule="evenodd" d="M12 11C14.6667 11 16 8.5 16 5.375C16 2.875 14.6667 1 12 1C9.33333 1 8 2.875 8 5.375C8 8.5 9.33333 11 12 11ZM12 13C12.9728 13 13.913 13.1389 14.8021 13.3979C13.1007 14.6749 12 16.7089 12 19C12 20.4693 12.4527 21.8329 13.2262 22.9589C12.821 22.9861 12.4121 23 12 23C10.4526 23 8.95082 22.8047 7.51793 22.4375C6.29889 22.1251 5.2657 21.3086 4.69986 20.1845C4.6842 20.1534 4.66863 20.1222 4.65317 20.091C3.87094 18.5114 4.13694 16.5761 5.47167 15.4248C7.22347 13.9137 9.50505 13 12 13ZM24 19C24 21.7614 21.7614 24 19 24C16.2386 24 14 21.7614 14 19C14 16.2386 16.2386 14 19 14C21.7614 14 24 16.2386 24 19ZM18.895 20.605C18.8542 20.6458 18.8066 20.6792 18.7544 20.7038L16.4655 21.7809C16.3004 21.8586 16.126 21.6928 16.1953 21.5241L17.1912 19.0971C17.2189 19.0296 17.2611 18.969 17.3147 18.9195L20.4182 16.0546C20.6154 15.8726 20.9212 15.8787 21.1109 16.0685L21.9177 16.8752C22.1129 17.0705 22.1129 17.3871 21.9177 17.5823L18.895 20.605Z" fill="#18202A"/>
</svg>
