<svg width="24" height="24" viewBox="0 0 24 24" fill="none" xmlns="http://www.w3.org/2000/svg">
<path d="M8 6H22.0568C22.8702 6 23.3433 6.91937 22.8705 7.58124L19.4152 12.4188C19.1668 12.7665 19.1668 13.2335 19.4152 13.5812L22.8705 18.4188C23.3433 19.0806 22.8702 20 22.0568 20H10C8.89543 20 8 19.1046 8 18V6Z" fill="#18202A"/>
<path d="M1 3H12C13.6569 3 15 4.34315 15 6V14C15 15.1046 14.1046 16 13 16H1V3Z" fill="#18202A"/>
<path d="M1 2C1 1.44772 1.44772 1 2 1C2.55228 1 3 1.44772 3 2V22C3 22.5523 2.55228 23 2 23C1.44772 23 1 22.5523 1 22V2Z" fill="#18202A"/>
</svg>
