<svg width="24" height="24" viewBox="0 0 24 24" fill="none" xmlns="http://www.w3.org/2000/svg">
<g clip-path="url(#clip0_3352_8849)">
<path fill-rule="evenodd" clip-rule="evenodd" d="M22 7.25C22 7.1837 21.9737 7.12011 21.9268 7.07322C21.8799 7.02634 21.8163 7 21.75 7H17.5C16.837 7 16.2011 6.73661 15.7322 6.26777C15.2634 5.79893 15 5.16304 15 4.5V0.25C15 0.183696 14.9737 0.120107 14.9268 0.0732233C14.8799 0.0263392 14.8163 0 14.75 0H4C3.46957 0 2.96086 0.210714 2.58579 0.585786C2.21071 0.960859 2 1.46957 2 2V22C2 22.5304 2.21071 23.0391 2.58579 23.4142C2.96086 23.7893 3.46957 24 4 24H20C20.5304 24 21.0391 23.7893 21.4142 23.4142C21.7893 23.0391 22 22.5304 22 22V7.25ZM11 14.5L8 10H10L12 13L14 10H16L13 14.5L16 19H14L12 16L10 19H8L11 14.5Z" fill="#18202A"/>
<path d="M16.4393 5.56065C16.7206 5.84195 17.1022 5.99999 17.5 5.99999H21.4C21.4495 6.00008 21.4979 5.98546 21.5391 5.958C21.5803 5.93053 21.6124 5.89146 21.6314 5.84572C21.6503 5.79998 21.6553 5.74965 21.6456 5.70109C21.6359 5.65254 21.6121 5.60795 21.577 5.57299L16.427 0.426988C16.3923 0.392167 16.3481 0.36836 16.2999 0.358545C16.2517 0.348731 16.2017 0.353345 16.1561 0.37181C16.1105 0.390276 16.0714 0.421772 16.0436 0.462358C16.0159 0.502944 16.0007 0.550818 16 0.599988V4.49999C16 4.89781 16.158 5.27934 16.4393 5.56065Z" fill="#18202A"/>
</g>
<defs>
<clipPath id="clip0_3352_8849">
<rect width="24" height="24" fill="white"/>
</clipPath>
</defs>
</svg>
