<svg width="24" height="24" viewBox="0 0 24 24" fill="none" xmlns="http://www.w3.org/2000/svg">
<path fill-rule="evenodd" clip-rule="evenodd" d="M12.3754 1.05486L22.1163 3.98482C22.6419 4.14324 23.0005 4.61219 23 5.14266C23 18.1167 16.1947 21.2182 12.5379 22.8837C12.3679 22.9612 12.1843 23 12.0003 23C11.8162 23 11.6321 22.9612 11.4616 22.8837C7.80525 21.2177 1 18.1167 1 5.14266C1 4.6117 1.35859 4.14275 1.88416 3.98482L11.6251 1.05486C11.8695 0.981712 12.131 0.981712 12.3754 1.05486ZM11.3916 6.89028C11.6371 6.36991 12.3629 6.36991 12.6084 6.89028L13.6404 9.07739L15.9239 9.42496C16.2231 9.4705 16.4081 9.69328 16.4715 9.90992C16.5347 10.126 16.4978 10.3967 16.3013 10.5969L14.6403 12.2893L15.0353 14.6947C15.0778 14.9536 14.9747 15.2003 14.7878 15.3511C14.5969 15.5051 14.3099 15.5605 14.0492 15.4173L12 14.2915L9.95086 15.4173C9.69014 15.5605 9.40308 15.5051 9.21221 15.3511C9.02528 15.2003 8.92217 14.9536 8.96469 14.6947L9.35977 12.2891L7.69838 10.5939C7.50204 10.3936 7.4653 10.1229 7.52867 9.90679C7.59219 9.69016 7.77743 9.46749 8.07673 9.42224L10.3598 9.0771L11.3916 6.89028Z" fill="#18202A"/>
</svg>
