<svg width="24" height="24" viewBox="0 0 24 24" fill="none" xmlns="http://www.w3.org/2000/svg">
<path fill-rule="evenodd" clip-rule="evenodd" d="M15.5 12C17.8333 12 19 9.75 19 6.9375C19 4.6875 17.8333 3 15.5 3C13.1667 3 12 4.6875 12 6.9375C12 9.75 13.1667 12 15.5 12ZM19.5402 21.6395C20.7237 21.4252 21.7591 20.6963 22.3063 19.6252C22.4202 19.4022 22.5286 19.1765 22.6312 18.9482C23.3002 17.4598 22.8892 15.6854 21.5304 14.7817C19.8478 13.6625 17.7607 13 15.5 13C13.2393 13 11.1522 13.6625 9.46961 14.7817C8.11086 15.6854 7.69984 17.4598 8.36882 18.9482C8.47143 19.1765 8.57977 19.4022 8.69369 19.6252C9.24094 20.6963 10.2763 21.4252 11.4598 21.6395C12.7652 21.8759 14.1164 22 15.5 22C16.8836 22 18.2348 21.8759 19.5402 21.6395ZM9.23938 9.0625C9.23938 11.25 8.23938 13 6.23938 13C4.23938 13 3.23938 11.25 3.23938 9.0625C3.23938 7.3125 4.23938 6 6.23938 6C8.23938 6 9.23938 7.3125 9.23938 9.0625ZM6.5446 19.7681C5.70808 17.9069 5.94077 15.6519 7.28809 14.068C6.94522 14.0231 6.59553 14 6.24043 14C4.81397 14 3.4747 14.3733 2.31501 15.0276C1.13456 15.6937 0.724422 17.1513 1.18404 18.4264C1.23934 18.5798 1.29692 18.7321 1.35674 18.8833C1.78012 19.9535 2.75656 20.7006 3.89787 20.849C4.66462 20.9486 5.44652 21 6.24043 21C6.55007 21 6.85789 20.9922 7.1637 20.9767C7.07416 20.8344 6.99035 20.6872 6.91268 20.5351C6.78371 20.2827 6.66095 20.027 6.5446 19.7681Z" fill="#18202A"/>
</svg>
