<svg width="24" height="24" viewBox="0 0 24 24" fill="none" xmlns="http://www.w3.org/2000/svg">
<path fill-rule="evenodd" clip-rule="evenodd" d="M13.3063 3.97157C13.306 3.97186 13.3057 3.97215 13.3054 3.97243L5.30325 12.0139L5.30152 12.0156C3.25948 14.0576 3.25948 17.4264 5.30152 19.4685C7.34356 21.5105 10.7124 21.5105 12.7544 19.4685L20.5229 11.7C20.9134 11.3094 21.5466 11.3094 21.9371 11.7C22.3277 12.0905 22.3277 12.7236 21.9371 13.1142L14.1686 20.8827C11.3455 23.7058 6.7104 23.7058 3.88731 20.8827C1.06452 18.0599 1.06422 13.4255 3.8864 10.6023C3.8867 10.602 3.887 10.6017 3.88731 10.6014L11.8895 2.55995L11.8912 2.55822C13.9689 0.480594 17.3485 0.480594 19.4261 2.55822C21.5037 4.63585 21.5037 8.01545 19.4261 10.0931L19.4242 10.0949L11.9322 17.5477C11.9318 17.5481 11.9314 17.5486 11.931 17.549C10.6298 18.8487 8.51781 18.8272 7.19824 17.5626L7.18304 17.5477C5.88202 16.2467 5.90317 14.1337 7.16816 12.8137L7.18497 12.7966L14.4042 5.61662C14.7958 5.22716 15.4289 5.22889 15.8184 5.62047C16.2079 6.01206 16.2061 6.64522 15.8145 7.03468L8.60492 14.2051C8.07514 14.7658 8.09551 15.6235 8.58987 16.1261C9.15335 16.6582 10.0166 16.635 10.518 16.1335L10.5199 16.1316L18.0119 8.67887C18.0122 8.67855 18.0125 8.67822 18.0128 8.6779C19.3085 7.38124 19.3081 5.26869 18.0119 3.97243C16.7156 2.67614 14.603 2.67586 13.3063 3.97157Z" fill="#18202A"/>
</svg>
