<svg width="24" height="24" viewBox="0 0 24 24" fill="none" xmlns="http://www.w3.org/2000/svg">
<path fill-rule="evenodd" clip-rule="evenodd" d="M12 21.5C6.75329 21.5 2.5 17.2467 2.5 12C2.5 6.75329 6.75329 2.5 12 2.5C17.2467 2.5 21.5 6.75329 21.5 12C21.5 17.2467 17.2467 21.5 12 21.5ZM12 23C5.92487 23 1 18.0751 1 12C1 5.92487 5.92487 1 12 1C18.0751 1 23 5.92487 23 12C23 18.0751 18.0751 23 12 23Z" fill="#18202A"/>
<path fill-rule="evenodd" clip-rule="evenodd" d="M11.5303 7.46967C11.2374 7.17678 10.7626 7.17678 10.4697 7.46967L6.46967 11.4697C6.17678 11.7626 6.17678 12.2374 6.46967 12.5303L10.4697 16.5303C10.7626 16.8232 11.2374 16.8232 11.5303 16.5303C11.8232 16.2374 11.8232 15.7626 11.5303 15.4697L8.81066 12.75H17C17.4142 12.75 17.75 12.4142 17.75 12C17.75 11.5858 17.4142 11.25 17 11.25H8.81066L11.5303 8.53033C11.8232 8.23744 11.8232 7.76256 11.5303 7.46967Z" fill="#18202A"/>
</svg>
