<svg width="24" height="24" viewBox="0 0 24 24" fill="none" xmlns="http://www.w3.org/2000/svg">
<path fill-rule="evenodd" clip-rule="evenodd" d="M17.5 6.9375C17.5 8.16605 17.2407 9.12083 16.8605 9.71649C16.5199 10.2502 16.0963 10.5 15.5 10.5C14.9037 10.5 14.4801 10.2502 14.1395 9.71649C13.7593 9.12083 13.5 8.16605 13.5 6.9375C13.5 6.05308 13.7304 5.44316 14.0294 5.08275C14.2962 4.76123 14.7277 4.5 15.5 4.5C16.2723 4.5 16.7038 4.76123 16.9706 5.08275C17.2696 5.44316 17.5 6.05308 17.5 6.9375ZM19 6.9375C19 9.75 17.8333 12 15.5 12C13.1667 12 12 9.75 12 6.9375C12 4.6875 13.1667 3 15.5 3C17.8333 3 19 4.6875 19 6.9375ZM6.24043 14C6.80469 14 7.35531 14.0584 7.88656 14.1695C7.49119 14.5754 7.18441 15.0407 6.96618 15.5399C6.72807 15.5136 6.48593 15.5 6.24043 15.5C5.07889 15.5 3.99273 15.8033 3.0521 16.3341C2.61592 16.5802 2.33962 17.2088 2.59516 17.9177C2.64524 18.0566 2.69738 18.1946 2.75155 18.3315C2.97029 18.8844 3.47978 19.282 4.09119 19.3615C4.794 19.4528 5.51133 19.5 6.24043 19.5C6.48521 19.5 6.72867 19.4947 6.97069 19.4842C6.98655 19.5212 7.00287 19.5581 7.01966 19.5948C7.13268 19.8421 7.25182 20.0864 7.37688 20.3276C7.48781 20.5416 7.61219 20.7451 7.74856 20.9377C7.25131 20.979 6.74833 21 6.24043 21C5.44652 21 4.66462 20.9486 3.89787 20.849C2.75656 20.7006 1.78012 19.9535 1.35674 18.8833C1.29692 18.7321 1.23934 18.5798 1.18404 18.4264C0.724422 17.1513 1.13456 15.6937 2.31501 15.0276C3.4747 14.3733 4.81397 14 6.24043 14ZM15.5 20.5C16.8154 20.5 18.0978 20.3821 19.3346 20.1583C20.081 20.0232 20.7005 19.5724 21.0221 18.9492C21.1241 18.7516 21.2211 18.5518 21.313 18.3498C21.7237 17.4475 21.4331 16.4815 20.7455 16.0288C19.2981 15.0759 17.4847 14.5 15.5 14.5C13.5153 14.5 11.7019 15.0759 10.2545 16.0288C9.56694 16.4815 9.27628 17.4475 9.68697 18.3498C9.77888 18.5518 9.8759 18.7516 9.9779 18.9492C10.2995 19.5724 10.919 20.0232 11.6654 20.1583C12.9022 20.3821 14.1846 20.5 15.5 20.5ZM19.6018 21.6343C20.7759 21.4218 21.8059 20.7011 22.355 19.6373C22.4683 19.4178 22.5761 19.1958 22.6783 18.9712C23.3604 17.4725 22.9425 15.6793 21.5703 14.7759C19.8757 13.6603 17.775 13 15.5 13C13.225 13 11.1243 13.6603 9.42966 14.7759C8.05746 15.6793 7.63962 17.4725 8.32172 18.9712C8.42393 19.1958 8.53174 19.4178 8.64499 19.6373C9.19409 20.7011 10.2241 21.4218 11.3982 21.6343C12.7231 21.8741 14.0949 22 15.5 22C16.9051 22 18.2769 21.8741 19.6018 21.6343ZM7.73938 9.0625C7.73938 9.95423 7.53183 10.6056 7.26244 10.9887C7.03372 11.3139 6.73459 11.5 6.23938 11.5C5.74417 11.5 5.44504 11.3139 5.21632 10.9887C4.94693 10.6056 4.73938 9.95423 4.73938 9.0625C4.73938 8.46283 4.90904 8.0921 5.09642 7.88715C5.26451 7.70331 5.58413 7.5 6.23938 7.5C6.89463 7.5 7.21425 7.70331 7.38234 7.88715C7.56972 8.0921 7.73938 8.46283 7.73938 9.0625ZM9.23938 9.0625C9.23938 11.25 8.23938 13 6.23938 13C4.23938 13 3.23938 11.25 3.23938 9.0625C3.23938 7.3125 4.23938 6 6.23938 6C8.23938 6 9.23938 7.3125 9.23938 9.0625Z" fill="#18202A"/>
</svg>
