<svg width="24" height="24" viewBox="0 0 24 24" fill="none" xmlns="http://www.w3.org/2000/svg">
<path fill-rule="evenodd" clip-rule="evenodd" d="M5.70711 3.70711L2.70711 6.70711C2.31658 7.09763 1.68342 7.09763 1.29289 6.70711C0.902369 6.31658 0.902369 5.68342 1.29289 5.29289L4.29289 2.29289C4.68342 1.90237 5.31658 1.90237 5.70711 2.29289C6.09763 2.68342 6.09763 3.31658 5.70711 3.70711ZM12 23C17.5228 23 22 18.5228 22 13C22 7.47715 17.5228 3 12 3C6.47715 3 2 7.47715 2 13C2 18.5228 6.47715 23 12 23ZM13 7C13 6.44772 12.5523 6 12 6C11.4477 6 11 6.44772 11 7V13C11 13.4 11.2384 13.7616 11.6061 13.9191L15.1061 15.4191C15.6137 15.6367 16.2016 15.4015 16.4191 14.8939C16.6367 14.3863 16.4015 13.7984 15.8939 13.5809L13 12.3406V7ZM18.2929 3.70711C17.9024 3.31658 17.9024 2.68342 18.2929 2.29289C18.6834 1.90237 19.3166 1.90237 19.7071 2.29289L22.7071 5.29289C23.0976 5.68342 23.0976 6.31658 22.7071 6.70711C22.3166 7.09763 21.6834 7.09763 21.2929 6.70711L18.2929 3.70711Z" fill="#18202A"/>
</svg>
