<svg width="24" height="24" viewBox="0 0 24 24" fill="none" xmlns="http://www.w3.org/2000/svg">
<path fill-rule="evenodd" clip-rule="evenodd" d="M12 21C16.9706 21 21 16.9706 21 12C21 7.02944 16.9706 3 12 3C7.02944 3 3 7.02944 3 12C3 16.9706 7.02944 21 12 21ZM12 23C18.0751 23 23 18.0751 23 12C23 5.92487 18.0751 1 12 1C5.92487 1 1 5.92487 1 12C1 18.0751 5.92487 23 12 23Z" fill="#18202A"/>
<path fill-rule="evenodd" clip-rule="evenodd" d="M11.5528 1.10557C11.8343 0.964809 12.1657 0.964809 12.4472 1.10557C16.3849 3.07444 18.25 7.37119 18.25 11.625C18.25 15.8859 16.3879 20.368 12.5408 22.8412C12.2113 23.0529 11.7886 23.0529 11.4592 22.8412C7.61211 20.368 5.75 15.8859 5.75 11.625C5.75 7.37119 7.61506 3.07444 11.5528 1.10557ZM11 3.84247C8.87271 5.61743 7.75 8.52063 7.75 11.625C7.75 14.6977 8.85607 17.7898 11 19.9192V3.84247ZM13 19.9192V3.84246C15.1273 5.61743 16.25 8.52063 16.25 11.625C16.25 14.6977 15.1439 17.7898 13 19.9192Z" fill="#18202A"/>
<path fill-rule="evenodd" clip-rule="evenodd" d="M22 13H2V11H22V13Z" fill="#18202A"/>
</svg>
