<svg width="24" height="24" viewBox="0 0 24 24" fill="none" xmlns="http://www.w3.org/2000/svg">
<path fill-rule="evenodd" clip-rule="evenodd" d="M10.3021 22.4337C9.81142 22.0661 9.45297 21.5495 9.28035 20.9611L10.7197 20.5389C10.8011 20.8164 10.9701 21.06 11.2014 21.2332C11.4327 21.4064 11.7137 21.5 12.0025 21.5C12.2913 21.5 12.5724 21.4064 12.8036 21.2332C13.0349 21.0599 13.2039 20.8164 13.2854 20.5389L14.7247 20.9611C14.5521 21.5495 14.1936 22.0661 13.7029 22.4337C13.2122 22.8013 12.6156 23 12.0025 23C11.3894 23 10.7928 22.8013 10.3021 22.4337Z" fill="#18202A"/>
<path fill-rule="evenodd" clip-rule="evenodd" d="M12 1.25C12.4142 1.25 12.75 1.58579 12.75 2V3C12.75 3.41421 12.4142 3.75 12 3.75C11.5858 3.75 11.25 3.41421 11.25 3V2C11.25 1.58579 11.5858 1.25 12 1.25Z" fill="#18202A"/>
<path fill-rule="evenodd" clip-rule="evenodd" d="M6.48327 5.23157C5.02014 6.66042 4.19816 8.59835 4.19816 10.619C4.19816 14.3991 3.267 16.6302 2.49872 17.8278C2.23672 18.2362 2.56253 19 3.04776 19H20.9523C21.4375 19 21.7633 18.2362 21.5013 17.8278C20.733 16.6302 19.8019 14.3991 19.8019 10.619C19.8019 8.59835 18.9799 6.66042 17.5168 5.23157C16.0536 3.80272 14.0692 3 12 3C9.93083 3 7.9464 3.80272 6.48327 5.23157ZM12 4.5C10.3173 4.5 8.71053 5.15311 7.53128 6.30473C6.35325 7.45516 5.69816 9.00781 5.69816 10.619C5.69816 13.7592 5.09431 15.98 4.38467 17.5H19.6154C18.9057 15.98 18.3019 13.7592 18.3019 10.619C18.3019 9.00781 17.6468 7.45516 16.4688 6.30473C15.2895 5.15311 13.6827 4.5 12 4.5Z" fill="#18202A"/>
</svg>
