<svg width="24" height="24" viewBox="0 0 24 24" fill="none" xmlns="http://www.w3.org/2000/svg">
<path d="M12 1C10.8954 1 10 1.89543 10 3V6H14V3C14 1.89543 13.1046 1 12 1Z" fill="#18202A"/>
<path fill-rule="evenodd" clip-rule="evenodd" d="M10 8C8.89543 8 8 7.10457 8 6V4H5C2.79086 4 1 5.79086 1 8V18C1 20.2091 2.79086 22 5 22H19C21.2091 22 23 20.2091 23 18V8C23 5.79086 21.2091 4 19 4H16V6C16 7.10457 15.1046 8 14 8H10ZM8 14C9.10457 14 10 13.1046 10 12C10 10.8954 9.10457 10 8 10C6.89543 10 6 10.8954 6 12C6 13.1046 6.89543 14 8 14ZM7.25 15C6.00736 15 5 16.0074 5 17.25C5 17.6642 5.33579 18 5.75 18H10.25C10.6642 18 11 17.6642 11 17.25C11 16.0074 9.99264 15 8.75 15H7.25ZM14 12C14 11.4477 14.4477 11 15 11H19C19.5523 11 20 11.4477 20 12C20 12.5523 19.5523 13 19 13H15C14.4477 13 14 12.5523 14 12ZM15 15C14.4477 15 14 15.4477 14 16C14 16.5523 14.4477 17 15 17H19C19.5523 17 20 16.5523 20 16C20 15.4477 19.5523 15 19 15H15Z" fill="#18202A"/>
</svg>
