<svg width="24" height="24" viewBox="0 0 24 24" fill="none" xmlns="http://www.w3.org/2000/svg">
<path fill-rule="evenodd" clip-rule="evenodd" d="M8.79288 3.49998C9.42285 2.87001 10.5 3.31618 10.5 4.20708V7.50578C13.2132 7.56928 16.1217 8.16664 18.4055 9.92915C20.8546 11.8193 22.5 14.9819 22.5 20C22.5 20.2256 22.3489 20.4233 22.1311 20.4825C21.9134 20.5417 21.683 20.4477 21.5688 20.2531C20.2255 17.9644 19.1588 16.571 17.5637 15.7156C16.0279 14.8921 13.9378 14.5331 10.5 14.5022V17.7929C10.5 18.6838 9.42284 19.1299 8.79288 18.5L1.99999 11.7071C1.60946 11.3166 1.60946 10.6834 1.99999 10.2929L8.79288 3.49998Z" fill="#18202A"/>
</svg>
