<svg width="24" height="24" viewBox="0 0 24 24" fill="none" xmlns="http://www.w3.org/2000/svg">
<path fill-rule="evenodd" clip-rule="evenodd" d="M12.9736 13.7268C12.3681 14.0643 11.6311 14.0643 11.0257 13.7268L3 9.2521L3 19.8101C3.45585 20.126 3.75439 20.6529 3.75439 21.2495C3.75439 22.216 2.97089 22.9995 2.00439 22.9995C1.0379 22.9995 0.254395 22.216 0.254395 21.2495C0.254395 20.6567 0.549107 20.1328 0.999999 19.8163L1 8.13702L0.526462 7.873C-0.157591 7.49162 -0.157582 6.50752 0.526479 6.12615L11.0258 0.27267C11.6312 -0.0648416 12.3681 -0.0648487 12.9735 0.272651L23.4733 6.12614C24.1574 6.50751 24.1574 7.49163 23.4733 7.87301L12.9736 13.7268ZM14.25 6.99951C14.25 7.82794 13.2426 8.49951 12 8.49951C10.7574 8.49951 9.75 7.82794 9.75 6.99951C9.75 6.17108 10.7574 5.49951 12 5.49951C13.2426 5.49951 14.25 6.17108 14.25 6.99951ZM10.5388 14.5999L4 10.9543V14.3418C4 17.4666 7.58171 19.9993 12 19.9993C16.4183 19.9993 20 17.4666 20 14.3418V10.9541L13.4605 14.6C12.5524 15.1062 11.4469 15.1062 10.5388 14.5999Z" fill="#18202A"/>
</svg>
