<svg width="24" height="24" viewBox="0 0 24 24" fill="none" xmlns="http://www.w3.org/2000/svg">
<g clip-path="url(#clip0_3379_9159)">
<path fill-rule="evenodd" clip-rule="evenodd" d="M6 3C6 1.89543 6.89543 1 8 1H16C17.1046 1 18 1.89543 18 3V5C18 5.95652 17.5523 6.80849 16.8551 7.35782C15.9875 8.04141 15 8.89543 15 10V12C15 13.1046 15.8954 14 17 14H18.7143C21.0812 14 23 15.9188 23 18.2857C23 19.2325 22.2325 20 21.2857 20H2.71429C1.76751 20 1 19.2325 1 18.2857C1 15.9188 2.91878 14 5.28571 14H7C8.10457 14 9 13.1046 9 12V10C9 8.89543 8.01253 8.04141 7.14489 7.35782C6.44766 6.80849 6 5.95652 6 5V3ZM8 2.5C7.72386 2.5 7.5 2.72386 7.5 3V5C7.5 5.47751 7.72143 5.90243 8.0732 6.17958C8.51035 6.524 9.0918 6.99686 9.56167 7.57477C10.0381 8.16078 10.5 8.97629 10.5 10V12C10.5 13.933 8.933 15.5 7 15.5H5.28571C3.74721 15.5 2.5 16.7472 2.5 18.2857C2.5 18.4041 2.59594 18.5 2.71429 18.5H21.2857C21.4041 18.5 21.5 18.4041 21.5 18.2857C21.5 16.7472 20.2528 15.5 18.7143 15.5H17C15.067 15.5 13.5 13.933 13.5 12V10C13.5 8.97629 13.9619 8.16078 14.4383 7.57477C14.9082 6.99686 15.4896 6.524 15.9268 6.17958C16.2786 5.90243 16.5 5.47751 16.5 5V3C16.5 2.72386 16.2761 2.5 16 2.5H8Z" fill="#18202A"/>
<path d="M2 22C2 21.4477 2.44772 21 3 21H21C21.5523 21 22 21.4477 22 22C22 22.5523 21.5523 23 21 23H3C2.44772 23 2 22.5523 2 22Z" fill="#18202A"/>
</g>
<defs>
<clipPath id="clip0_3379_9159">
<rect width="24" height="24" fill="white"/>
</clipPath>
</defs>
</svg>
