<svg width="24" height="24" viewBox="0 0 24 24" fill="none" xmlns="http://www.w3.org/2000/svg">
<path fill-rule="evenodd" clip-rule="evenodd" d="M6 1.75C6 1.33579 6.33579 1 6.75 1C7.16421 1 7.5 1.33579 7.5 1.75V3H16.5V1.75C16.5 1.33579 16.8358 1 17.25 1C17.6642 1 18 1.33579 18 1.75V3H19C21.2091 3 23 4.79086 23 7V13.8762C22.5448 13.5203 22.0409 13.2237 21.5 12.9982V7C21.5 5.61929 20.3807 4.5 19 4.5H18V6.25C18 6.66421 17.6642 7 17.25 7C16.8358 7 16.5 6.66421 16.5 6.25V4.5H7.5V6.25C7.5 6.66421 7.16421 7 6.75 7C6.33579 7 6 6.66421 6 6.25V4.5H5C3.61929 4.5 2.5 5.61929 2.5 7V19C2.5 20.3807 3.61929 21.5 5 21.5H12.9982C13.2237 22.0409 13.5203 22.5448 13.8762 23H5C2.79086 23 1 21.2091 1 19V7C1 4.79086 2.79086 3 5 3H6V1.75ZM14 13C14.5122 13 14.9345 13.3851 14.9931 13.8816C14.5793 14.2059 14.2059 14.5793 13.8816 14.9931C13.3851 14.9345 13 14.5122 13 14C13 13.4477 13.4477 13 14 13ZM5 9.75C5 9.33579 5.33579 9 5.75 9H18.25C18.6642 9 19 9.33579 19 9.75C19 10.1642 18.6642 10.5 18.25 10.5H5.75C5.33579 10.5 5 10.1642 5 9.75ZM6 13C5.44772 13 5 13.4477 5 14C5 14.5523 5.44772 15 6 15C6.55228 15 7 14.5523 7 14C7 13.4477 6.55228 13 6 13ZM5 18C5 17.4477 5.44772 17 6 17C6.55228 17 7 17.4477 7 18C7 18.5523 6.55228 19 6 19C5.44772 19 5 18.5523 5 18ZM10 13C9.44772 13 9 13.4477 9 14C9 14.5523 9.44772 15 10 15C10.5523 15 11 14.5523 11 14C11 13.4477 10.5523 13 10 13ZM9 18C9 17.4477 9.44772 17 10 17C10.5523 17 11 17.4477 11 18C11 18.5523 10.5523 19 10 19C9.44772 19 9 18.5523 9 18ZM24 19C24 21.7614 21.7614 24 19 24C16.2386 24 14 21.7614 14 19C14 16.2386 16.2386 14 19 14C21.7614 14 24 16.2386 24 19ZM19 16C19.4142 16 19.75 16.3358 19.75 16.75V18.25H21.25C21.6642 18.25 22 18.5858 22 19C22 19.4142 21.6642 19.75 21.25 19.75H19.75V21.25C19.75 21.6642 19.4142 22 19 22C18.5858 22 18.25 21.6642 18.25 21.25V19.75H16.75C16.3358 19.75 16 19.4142 16 19C16 18.5858 16.3358 18.25 16.75 18.25H18.25V16.75C18.25 16.3358 18.5858 16 19 16Z" fill="#18202A"/>
</svg>
