<svg width="24" height="24" viewBox="0 0 24 24" fill="none" xmlns="http://www.w3.org/2000/svg">
<path fill-rule="evenodd" clip-rule="evenodd" d="M15.9697 0.96967C16.2626 0.676777 16.7374 0.676777 17.0303 0.96967L17.8232 1.76256C17.9209 1.86019 18.0791 1.86019 18.1768 1.76256L18.9697 0.96967C19.2626 0.676777 19.7374 0.676777 20.0303 0.96967C20.3232 1.26256 20.3232 1.73744 20.0303 2.03033L19.2374 2.82322C19.1398 2.92085 19.1398 3.07915 19.2374 3.17678L20.0303 3.96967C20.3232 4.26256 20.3232 4.73744 20.0303 5.03033C19.7374 5.32322 19.2626 5.32322 18.9697 5.03033L18.1768 4.23744C18.0791 4.13981 17.9209 4.13981 17.8232 4.23744L17.0303 5.03033C16.7374 5.32322 16.2626 5.32322 15.9697 5.03033C15.6768 4.73744 15.6768 4.26256 15.9697 3.96967L16.7626 3.17678C16.8602 3.07915 16.8602 2.92085 16.7626 2.82322L15.9697 2.03033C15.6768 1.73744 15.6768 1.26256 15.9697 0.96967ZM9.75 1.87902C9.75 1.46481 9.41421 1.12902 9 1.12902C8.58579 1.12902 8.25 1.46481 8.25 1.87902V3.00034C8.25 3.13841 8.13807 3.25034 8 3.25034H6.87868C6.46447 3.25034 6.12868 3.58613 6.12868 4.00034C6.12868 4.41455 6.46447 4.75034 6.87868 4.75034L8 4.75034C8.13807 4.75034 8.25 4.86227 8.25 5.00034V6.12166C8.25 6.53587 8.58579 6.87166 9 6.87166C9.41421 6.87166 9.75 6.53587 9.75 6.12166L9.75 5.00034C9.75 4.86227 9.86193 4.75034 10 4.75034H11.1213C11.5355 4.75034 11.8713 4.41455 11.8713 4.00034C11.8713 3.58613 11.5355 3.25034 11.1213 3.25034L10 3.25034C9.86193 3.25034 9.75 3.13841 9.75 3.00034V1.87902ZM16.5858 7.58548L16.4142 7.41391C15.6332 6.63286 14.3668 6.63286 13.5858 7.41391L12.2071 8.79259L15.2071 11.7926L16.5858 10.4139C17.3668 9.63286 17.3668 8.36653 16.5858 7.58548ZM2.41422 18.5855L10.7929 10.2068L13.7929 13.2068L5.41421 21.5855C4.63317 22.3665 3.36684 22.3665 2.58579 21.5855L2.41422 21.4139C1.63317 20.6329 1.63317 19.3665 2.41422 18.5855ZM20.75 12.879C20.75 12.4648 20.4142 12.129 20 12.129C19.5858 12.129 19.25 12.4648 19.25 12.879V14.0003C19.25 14.1384 19.1381 14.2503 19 14.2503H17.8787C17.4645 14.2503 17.1287 14.5861 17.1287 15.0003C17.1287 15.4146 17.4645 15.7503 17.8787 15.7503H19C19.1381 15.7503 19.25 15.8623 19.25 16.0003V17.1217C19.25 17.5359 19.5858 17.8717 20 17.8717C20.4142 17.8717 20.75 17.5359 20.75 17.1217V16.0003C20.75 15.8623 20.8619 15.7503 21 15.7503H22.1213C22.5355 15.7503 22.8713 15.4146 22.8713 15.0003C22.8713 14.5861 22.5355 14.2503 22.1213 14.2503H21C20.8619 14.2503 20.75 14.1384 20.75 14.0003V12.879Z" fill="#18202A"/>
</svg>
