<svg width="24" height="24" viewBox="0 0 24 24" fill="none" xmlns="http://www.w3.org/2000/svg">
<g clip-path="url(#clip0_3444_9510)">
<path fill-rule="evenodd" clip-rule="evenodd" d="M16 2C17.6569 2 19 3.34315 19 5C20.6569 5 22 6.34315 22 8V15C22 16.6569 20.6569 18 19 18V19C19 20.6569 17.6569 22 16 22H8C6.34315 22 5 20.6569 5 19V14C5 12.3431 6.34315 11 8 11H16C17.6569 11 19 12.3431 19 14V16.5C19.8284 16.5 20.5 15.8284 20.5 15V8C20.5 7.17157 19.8284 6.5 19 6.5H5C4.17157 6.5 3.5 7.17157 3.5 8V15C3.5 15.8284 4.17157 16.5 5 16.5V18C3.34315 18 2 16.6569 2 15V8C2 6.34315 3.34315 5 5 5C5 3.34315 6.34315 2 8 2H16ZM6.5 5C6.5 4.17157 7.17157 3.5 8 3.5H16C16.8284 3.5 17.5 4.17157 17.5 5H6.5ZM6.5 14C6.5 13.1716 7.17157 12.5 8 12.5H16C16.8284 12.5 17.5 13.1716 17.5 14V19C17.5 19.8284 16.8284 20.5 16 20.5H8C7.17157 20.5 6.5 19.8284 6.5 19V14Z" fill="#18202A"/>
<path d="M18 10C18.5523 10 19 9.55228 19 9C19 8.44772 18.5523 8 18 8C17.4477 8 17 8.44772 17 9C17 9.55228 17.4477 10 18 10Z" fill="#18202A"/>
</g>
<defs>
<clipPath id="clip0_3444_9510">
<rect width="24" height="24" fill="white"/>
</clipPath>
</defs>
</svg>
