<svg width="24" height="24" viewBox="0 0 24 24" fill="none" xmlns="http://www.w3.org/2000/svg">
<path d="M3.25954 2.19385C2.96332 1.92663 2.50634 1.93568 2.22101 2.22101C1.92633 2.51569 1.92633 2.99345 2.22101 3.28813L4.59096 5.65808C3.81212 6.56694 3.20476 7.61443 2.80296 8.74988C2.66478 9.14036 2.86932 9.56893 3.2598 9.70711C3.65029 9.84529 4.07886 9.64076 4.21704 9.25027C4.54408 8.32607 5.03207 7.47075 5.65534 6.72246L17.2769 18.344C16.2777 19.1739 15.0956 19.7571 13.8262 20.0443C12.4669 20.3519 11.0519 20.3101 9.71321 19.9228C8.37447 19.5356 7.15565 18.8156 6.17046 17.8299C6.16492 17.8243 6.1593 17.8189 6.15359 17.8135L2.89339 14.75H6C6.41421 14.75 6.75 14.4142 6.75 14C6.75 13.5858 6.41421 13.25 6 13.25H1C0.585786 13.25 0.25 13.5858 0.25 14V19C0.25 19.4142 0.585786 19.75 1 19.75C1.41421 19.75 1.75 19.4142 1.75 19V15.7339L5.11802 18.8987C6.28084 20.0593 7.71811 20.9072 9.29641 21.3638C10.8786 21.8214 12.5508 21.8708 14.1572 21.5073C15.7026 21.1577 17.1385 20.4369 18.3414 19.4085L20.7119 21.779C21.0065 22.0737 21.4843 22.0737 21.779 21.779C22.0643 21.4937 22.0734 21.0367 21.8061 20.7405L3.25954 2.19385Z" fill="#18202A"/>
<path d="M20.3037 17.1167C20.6654 16.5302 20.9654 15.9049 21.197 15.2503C21.3352 14.8598 21.1307 14.4312 20.7402 14.293C20.3497 14.1549 19.9211 14.3594 19.783 14.7499C19.627 15.1906 19.4344 15.6157 19.208 16.021L20.3037 17.1167Z" fill="#18202A"/>
<path d="M7.98131 4.7943C8.66578 4.41322 9.40373 4.13008 10.1738 3.95584C11.5331 3.64829 12.9481 3.69009 14.2868 4.07732C15.6255 4.46455 16.8444 5.18459 17.8295 6.17027C17.8351 6.17582 17.8407 6.18128 17.8464 6.18664L21.1066 9.25H18C17.5858 9.25 17.25 9.58579 17.25 10C17.25 10.4142 17.5858 10.75 18 10.75H23C23.4142 10.75 23.75 10.4142 23.75 10V5C23.75 4.58579 23.4142 4.25 23 4.25C22.5858 4.25 22.25 4.58579 22.25 5V8.26612L18.882 5.10138C17.7191 3.94084 16.2819 3.0929 14.7036 2.63638C13.1214 2.17875 11.4492 2.12936 9.84277 2.49282C8.79361 2.73021 7.79489 3.13865 6.88529 3.69828L7.98131 4.7943Z" fill="#18202A"/>
</svg>
