<svg width="24" height="24" viewBox="0 0 24 24" fill="none" xmlns="http://www.w3.org/2000/svg">
<path fill-rule="evenodd" clip-rule="evenodd" d="M20.6931 6.71291C20.6565 6.62445 20.6022 6.54158 20.5303 6.46967C20.3839 6.32322 20.1919 6.25 20 6.25H13C12.5858 6.25 12.25 6.58579 12.25 7C12.25 7.41421 12.5858 7.75 13 7.75H18.1893L11 14.9393L7.53033 11.4697C7.23744 11.1768 6.76256 11.1768 6.46967 11.4697L2.46967 15.4697C2.17678 15.7626 2.17678 16.2374 2.46967 16.5303C2.76256 16.8232 3.23744 16.8232 3.53033 16.5303L7 13.0607L10.4697 16.5303C10.7626 16.8232 11.2374 16.8232 11.5303 16.5303L19.25 8.81066V14C19.25 14.4142 19.5858 14.75 20 14.75C20.4142 14.75 20.75 14.4142 20.75 14V7C20.75 6.89831 20.7298 6.80134 20.6931 6.71291Z" fill="#18202A"/>
</svg>
