<svg width="24" height="24" viewBox="0 0 24 24" fill="none" xmlns="http://www.w3.org/2000/svg">
<g clip-path="url(#clip0_3444_9130)">
<path fill-rule="evenodd" clip-rule="evenodd" d="M17.5303 2.46948C16.1329 1.07202 13.8671 1.07202 12.4697 2.46948L11.9733 2.96582L2.48419 11.9555C2.38071 12.0536 2.30732 12.1791 2.27259 12.3173L1.03447 17.2466C0.861122 17.9368 1.48009 18.5655 2.17285 18.4029L7.17131 17.2302C7.30056 17.1998 7.41943 17.1358 7.51581 17.0445L17.0158 8.04447C17.0174 8.04299 17.0189 8.04151 17.0205 8.04002C17.0271 8.03358 17.0337 8.02702 17.0401 8.02035L17.5303 7.53014C18.9278 6.13268 18.9278 3.86695 17.5303 2.46948ZM13.561 3.50012L16.4997 6.43885C17.2812 5.62502 17.2712 4.33169 16.4697 3.53014C15.6681 2.7286 14.3748 2.71859 13.561 3.50012ZM2.70923 16.7364L3.67424 12.8944L12.4859 4.54652L15.4248 7.48547L6.63134 15.8161L2.70923 16.7364Z" fill="#18202A"/>
<path d="M12.6894 17.2046C12.5773 16.9431 12.3269 16.7675 12.0428 16.7512C11.7588 16.735 11.49 16.8809 11.3488 17.1279L10.0686 19.3682C9.75704 19.9135 9.17719 20.25 8.54919 20.25H1.75C1.33579 20.25 1 20.5858 1 21C1 21.4142 1.33579 21.75 1.75 21.75H8.54919C9.71548 21.75 10.7923 21.1251 11.371 20.1125L11.9039 19.1798L12.421 20.3863C12.7756 21.2136 13.589 21.75 14.4891 21.75H14.5109C15.411 21.75 16.2244 21.2136 16.579 20.3863L17.0961 19.1798L17.629 20.1125C18.2077 21.1251 19.2845 21.75 20.4508 21.75H22.25C22.6642 21.75 23 21.4142 23 21C23 20.5858 22.6642 20.25 22.25 20.25H20.4508C19.8228 20.25 19.243 19.9135 18.9314 19.3682L17.6512 17.1279C17.51 16.8809 17.2412 16.735 16.9572 16.7512C16.6731 16.7675 16.4227 16.9431 16.3106 17.2046L15.2003 19.7954C15.0821 20.0712 14.8109 20.25 14.5109 20.25H14.4891C14.1891 20.25 13.9179 20.0712 13.7997 19.7954L12.6894 17.2046Z" fill="#18202A"/>
</g>
<defs>
<clipPath id="clip0_3444_9130">
<rect width="24" height="24" fill="white"/>
</clipPath>
</defs>
</svg>
