<svg width="24" height="24" viewBox="0 0 24 24" fill="none" xmlns="http://www.w3.org/2000/svg">
<path fill-rule="evenodd" clip-rule="evenodd" d="M12.0001 6.70711C12.3906 6.31658 12.3906 5.68342 12.0001 5.29289C11.6096 4.90237 10.9764 4.90237 10.5859 5.29289L4.58586 11.2929C4.19534 11.6834 4.19534 12.3166 4.58586 12.7071L10.5859 18.7071C10.9764 19.0976 11.6096 19.0976 12.0001 18.7071C12.3906 18.3166 12.3906 17.6834 12.0001 17.2929L6.70718 12L12.0001 6.70711ZM19.4143 6.70711C19.8048 6.31658 19.8048 5.68342 19.4143 5.29289C19.0238 4.90237 18.3906 4.90237 18.0001 5.29289L12.0001 11.2929C11.6096 11.6834 11.6096 12.3166 12.0001 12.7071L18.0001 18.7071C18.3906 19.0976 19.0238 19.0976 19.4143 18.7071C19.8048 18.3166 19.8048 17.6834 19.4143 17.2929L14.1214 12L19.4143 6.70711Z" fill="#18202A"/>
</svg>
