<svg width="24" height="24" viewBox="0 0 24 24" fill="none" xmlns="http://www.w3.org/2000/svg">
<g clip-path="url(#clip0_2266_33261)">
<path fill-rule="evenodd" clip-rule="evenodd" d="M9.25 1.5C9.25 1.08579 8.91421 0.75 8.5 0.75C8.08579 0.75 7.75 1.08579 7.75 1.5V3.5C7.75 3.91421 8.08579 4.25 8.5 4.25C8.91421 4.25 9.25 3.91421 9.25 3.5V1.5ZM4.03033 2.96967C3.73744 2.67678 3.26256 2.67678 2.96967 2.96967C2.67678 3.26256 2.67678 3.73744 2.96967 4.03033L4.46967 5.53033C4.76256 5.82322 5.23744 5.82322 5.53033 5.53033C5.82322 5.23744 5.82322 4.76256 5.53033 4.46967L4.03033 2.96967ZM1.5 7.75C1.08579 7.75 0.75 8.08579 0.75 8.5C0.75 8.91421 1.08579 9.25 1.5 9.25H3.5C3.91421 9.25 4.25 8.91421 4.25 8.5C4.25 8.08579 3.91421 7.75 3.5 7.75H1.5ZM14.75 22.5C14.75 22.9142 15.0858 23.25 15.5 23.25C15.9142 23.25 16.25 22.9142 16.25 22.5V20.5C16.25 20.0858 15.9142 19.75 15.5 19.75C15.0858 19.75 14.75 20.0858 14.75 20.5V22.5ZM18.4697 19.5303L19.9697 21.0303C20.2626 21.3232 20.7374 21.3232 21.0303 21.0303C21.3232 20.7374 21.3232 20.2626 21.0303 19.9697L19.5303 18.4697C19.2374 18.1768 18.7626 18.1768 18.4697 18.4697C18.1768 18.7626 18.1768 19.2374 18.4697 19.5303ZM22.5 16.25C22.9142 16.25 23.25 15.9142 23.25 15.5C23.25 15.0858 22.9142 14.75 22.5 14.75H20.5C20.0858 14.75 19.75 15.0858 19.75 15.5C19.75 15.9142 20.0858 16.25 20.5 16.25H22.5ZM3.69141 20.3085C1.4459 18.063 1.4459 14.4223 3.69141 12.1768L5.81273 10.0555C6.10563 9.7626 6.5805 9.7626 6.87339 10.0555C7.16629 10.3484 7.16629 10.8233 6.87339 11.1162L4.75207 13.2375C3.09235 14.8972 3.09235 17.5882 4.75207 19.2479C6.4118 20.9076 9.10275 20.9076 10.7625 19.2479L12.8838 17.1266C13.1767 16.8337 13.6516 16.8337 13.9445 17.1266C14.2374 17.4195 14.2374 17.8943 13.9445 18.1872L11.8231 20.3085C9.57763 22.5541 5.93693 22.5541 3.69141 20.3085ZM12.1768 3.69147C14.4223 1.44596 18.063 1.44596 20.3085 3.69147C22.554 5.93699 22.554 9.57769 20.3085 11.8232L18.1872 13.9445C17.8943 14.2374 17.4194 14.2374 17.1265 13.9445C16.8336 13.6516 16.8336 13.1768 17.1265 12.8839L19.2478 10.7625C20.9075 9.10281 20.9075 6.41186 19.2478 4.75213C17.5881 3.09241 14.8971 3.09241 13.2374 4.75213L11.1161 6.87346C10.8232 7.16635 10.3483 7.16635 10.0554 6.87345C9.76254 6.58056 9.76254 6.10569 10.0554 5.81279L12.1768 3.69147Z" fill="#18202A"/>
</g>
<defs>
<clipPath id="clip0_2266_33261">
<rect width="24" height="24" fill="white"/>
</clipPath>
</defs>
</svg>
