<svg width="24" height="24" viewBox="0 0 24 24" fill="none" xmlns="http://www.w3.org/2000/svg">
<path d="M6.25 2C6.66421 2 7 2.33579 7 2.75C7 3.16421 6.66421 3.5 6.25 3.5H5C4.17157 3.5 3.5 4.17157 3.5 5V6.25C3.5 6.66421 3.16421 7 2.75 7C2.33579 7 2 6.66421 2 6.25V5C2 3.34315 3.34315 2 5 2H6.25Z" fill="#18202A"/>
<path d="M17 2.75C17 3.16421 17.3358 3.5 17.75 3.5H19C19.8284 3.5 20.5 4.17157 20.5 5V6.25C20.5 6.66421 20.8358 7 21.25 7C21.6642 7 22 6.66421 22 6.25V5C22 3.34315 20.6569 2 19 2H17.75C17.3358 2 17 2.33579 17 2.75Z" fill="#18202A"/>
<path d="M17 21.25C17 20.8358 17.3358 20.5 17.75 20.5H19C19.8284 20.5 20.5 19.8284 20.5 19V17.75C20.5 17.3358 20.8358 17 21.25 17C21.6642 17 22 17.3358 22 17.75V19C22 20.6569 20.6569 22 19 22H17.75C17.3358 22 17 21.6642 17 21.25Z" fill="#18202A"/>
<path d="M3.5 17.75C3.5 17.3358 3.16421 17 2.75 17C2.33579 17 2 17.3358 2 17.75V19C2 20.6569 3.34315 22 5 22H6.25C6.66421 22 7 21.6642 7 21.25C7 20.8358 6.66421 20.5 6.25 20.5H5C4.17157 20.5 3.5 19.8284 3.5 19V17.75Z" fill="#18202A"/>
<path fill-rule="evenodd" clip-rule="evenodd" d="M6 13C5.44772 13 5 13.4477 5 14V18C5 18.5523 5.44772 19 6 19H10C10.5523 19 11 18.5523 11 18V14C11 13.4477 10.5523 13 10 13H6ZM6.5 14.5V17.5H9.5V14.5H6.5Z" fill="#18202A"/>
<path fill-rule="evenodd" clip-rule="evenodd" d="M6 5C5.44772 5 5 5.44772 5 6V10C5 10.5523 5.44772 11 6 11H10C10.5523 11 11 10.5523 11 10V6C11 5.44772 10.5523 5 10 5H6ZM6.5 6.5V9.5H9.5V6.5H6.5Z" fill="#18202A"/>
<path fill-rule="evenodd" clip-rule="evenodd" d="M14 5C13.4477 5 13 5.44772 13 6V10C13 10.5523 13.4477 11 14 11H18C18.5523 11 19 10.5523 19 10V6C19 5.44772 18.5523 5 18 5H14ZM14.5 6.5V9.5H17.5V6.5H14.5Z" fill="#18202A"/>
<path d="M13 13H14.5V14.5H13V13Z" fill="#18202A"/>
<path fill-rule="evenodd" clip-rule="evenodd" d="M16 14.5H14.5V16H13V17.5H14.5V19H16V17.5H17.5V19H19V17.5H17.5V16H19V14.5H17.5V13H16V14.5ZM16 16H17.5V14.5H16V16ZM16 16V17.5H14.5V16H16Z" fill="#18202A"/>
</svg>
