<svg width="24" height="24" viewBox="0 0 24 24" fill="none" xmlns="http://www.w3.org/2000/svg">
<path fill-rule="evenodd" clip-rule="evenodd" d="M20.3085 3.69183C18.063 1.44631 14.4223 1.44631 12.1768 3.69183L10.0554 5.81315C9.76254 6.10604 9.76254 6.58091 10.0554 6.87381C10.3483 7.1667 10.8232 7.1667 11.1161 6.87381L13.2374 4.75249C14.8971 3.09276 17.5881 3.09276 19.2478 4.75249C20.9075 6.41221 20.9075 9.10317 19.2478 10.7629L17.1265 12.8842C16.8336 13.1771 16.8336 13.652 17.1265 13.9449C17.4194 14.2378 17.8943 14.2378 18.1872 13.9449L20.3085 11.8236C22.554 9.57804 22.554 5.93734 20.3085 3.69183ZM3.69146 20.308C1.44595 18.0625 1.44595 14.4218 3.69146 12.1763L5.81278 10.055C6.10567 9.7621 6.58055 9.7621 6.87344 10.055C7.16633 10.3479 7.16633 10.8228 6.87344 11.1156L4.75212 13.237C3.09239 14.8967 3.09239 17.5876 4.75212 19.2474C6.41185 20.9071 9.1028 20.9071 10.7625 19.2474L12.8838 17.1261C13.1767 16.8332 13.6516 16.8332 13.9445 17.1261C14.2374 17.4189 14.2374 17.8938 13.9445 18.1867L11.8232 20.308C9.57767 22.5536 5.93697 22.5536 3.69146 20.308ZM7.227 15.7118C6.93411 16.0047 6.93411 16.4796 7.227 16.7725C7.51989 17.0654 7.99477 17.0654 8.28766 16.7725L16.7729 8.28722C17.0658 7.99433 17.0658 7.51945 16.7729 7.22656C16.4801 6.93367 16.0052 6.93367 15.7123 7.22656L7.227 15.7118Z" fill="#18202A"/>
</svg>
