<svg width="24" height="24" viewBox="0 0 24 24" fill="none" xmlns="http://www.w3.org/2000/svg">
<g clip-path="url(#clip0_3722_8778)">
<path fill-rule="evenodd" clip-rule="evenodd" d="M9 9.64706C9 9.2897 9.2897 9 9.64706 9H14.3529C14.7103 9 15 9.2897 15 9.64706V14.3529C15 14.7103 14.7103 15 14.3529 15H9.64706C9.2897 15 9 14.7103 9 14.3529V9.64706ZM10.2941 10.2941V13.7059H13.7059V10.2941H10.2941Z" fill="#18202A"/>
<path fill-rule="evenodd" clip-rule="evenodd" d="M10.0225 1.75C10.0225 1.33579 9.68667 1 9.27246 1C8.85825 1 8.52246 1.33579 8.52246 1.75V3.97754H6.54572C5.12735 3.97754 3.97754 5.12735 3.97754 6.54572V8.5H1.75C1.33579 8.5 1 8.83579 1 9.25C1 9.66421 1.33579 10 1.75 10H3.97754V13H1.75C1.33579 13 1 13.3358 1 13.75C1 14.1642 1.33579 14.5 1.75 14.5H3.97754V17.4548C3.97754 18.8732 5.12735 20.023 6.54572 20.023H8.52246V22.2903C8.52246 22.6823 8.85825 23 9.27246 23C9.68667 23 10.0225 22.6823 10.0225 22.2903V20.023H13.9775V22.2903C13.9775 22.6823 14.3133 23 14.7275 23C15.1418 23 15.4775 22.6823 15.4775 22.2903V20.023H17.4548C18.8732 20.023 20.023 18.8732 20.023 17.4548V14.5H22.2903C22.6823 14.5 23 14.1642 23 13.75C23 13.3358 22.6823 13 22.2903 13H20.023V10H22.2903C22.6823 10 23 9.66421 23 9.25C23 8.83579 22.6823 8.5 22.2903 8.5H20.023V6.54572C20.023 5.12735 18.8732 3.97754 17.4548 3.97754H15.4775V1.75C15.4775 1.33579 15.1418 1 14.7275 1C14.3133 1 13.9775 1.33579 13.9775 1.75V3.97754H10.0225V1.75ZM6.54572 5.47754C5.95578 5.47754 5.47754 5.95578 5.47754 6.54572V17.4548C5.47754 18.0448 5.95578 18.523 6.54572 18.523H17.4548C18.0448 18.523 18.523 18.0448 18.523 17.4548V6.54572C18.523 5.95578 18.0448 5.47754 17.4548 5.47754H6.54572Z" fill="#18202A"/>
</g>
<defs>
<clipPath id="clip0_3722_8778">
<rect width="24" height="24" fill="white"/>
</clipPath>
</defs>
</svg>
