<svg width="24" height="24" viewBox="0 0 24 24" fill="none" xmlns="http://www.w3.org/2000/svg">
<path d="M9.20711 4.20711C9.59763 3.81658 9.59763 3.18342 9.20711 2.79289C8.81658 2.40237 8.18342 2.40237 7.79289 2.79289L3.29289 7.29289C2.90237 7.68342 2.90237 8.31658 3.29289 8.70711L7.79289 13.2071C8.18342 13.5976 8.81658 13.5976 9.20711 13.2071C9.59763 12.8166 9.59763 12.1834 9.20711 11.7929L6.41421 9H14.5C16.9853 9 19 11.0147 19 13.5C19 15.9853 16.9853 18 14.5 18H8C7.44772 18 7 18.4477 7 19C7 19.5523 7.44772 20 8 20H14.5C18.0899 20 21 17.0899 21 13.5C21 9.91015 18.0899 7 14.5 7H6.41421L9.20711 4.20711Z" fill="#18202A"/>
</svg>
