<svg width="24" height="24" viewBox="0 0 24 24" fill="none" xmlns="http://www.w3.org/2000/svg">
<path fill-rule="evenodd" clip-rule="evenodd" d="M12 3C11.4477 3 11 3.44772 11 4C11 4.55228 11.4477 5 12 5H17.5858L12.7929 9.79289C12.4024 10.1834 12.4024 10.8166 12.7929 11.2071C13.1834 11.5976 13.8166 11.5976 14.2071 11.2071L19 6.41421V12C19 12.5523 19.4477 13 20 13C20.5523 13 21 12.5523 21 12V4C21 3.44772 20.5523 3 20 3L12 3ZM12 21C12.5523 21 13 20.5523 13 20C13 19.4477 12.5523 19 12 19H6.41421L11.2071 14.2071C11.5976 13.8166 11.5976 13.1834 11.2071 12.7929C10.8166 12.4024 10.1834 12.4024 9.79289 12.7929L5 17.5858L5 12C5 11.4477 4.55229 11 4 11C3.44772 11 3 11.4477 3 12V20C3 20.5523 3.44772 21 4 21H12Z" fill="#18202A"/>
</svg>
