<svg width="24" height="24" viewBox="0 0 24 24" fill="none" xmlns="http://www.w3.org/2000/svg">
<path fill-rule="evenodd" clip-rule="evenodd" d="M20 11C20 12.872 19.4285 14.6105 18.4504 16.0505C18.13 16.5223 17.7659 16.962 17.364 17.364C16.962 17.7659 16.5223 18.13 16.0505 18.4504C14.6105 19.4285 12.872 20 11 20C6.02944 20 2 15.9706 2 11C2 6.02944 6.02944 2 11 2C15.9706 2 20 6.02944 20 11ZM18.2929 18.2929C18.5955 17.9903 19.0437 17.9222 19.4118 18.0885C19.5189 18.1368 19.6191 18.2049 19.7071 18.2929L21.7071 20.2929C22.0976 20.6834 22.0976 21.3166 21.7071 21.7071C21.3166 22.0976 20.6834 22.0976 20.2929 21.7071L18.2929 19.7071C18.2049 19.6191 18.1368 19.5189 18.0885 19.4118C17.9222 19.0437 17.9903 18.5955 18.2929 18.2929ZM18 11C18 14.866 14.866 18 11 18C7.13401 18 4 14.866 4 11C4 7.13401 7.13401 4 11 4C14.866 4 18 7.13401 18 11ZM12 7.5C12 6.94772 11.5523 6.5 11 6.5C10.4477 6.5 10 6.94772 10 7.5V10H7.5C6.94772 10 6.5 10.4477 6.5 11C6.5 11.5523 6.94772 12 7.5 12H10V14.5C10 15.0523 10.4477 15.5 11 15.5C11.5523 15.5 12 15.0523 12 14.5V12H14.5C15.0523 12 15.5 11.5523 15.5 11C15.5 10.4477 15.0523 10 14.5 10H12V7.5Z" fill="#18202A"/>
</svg>
