<svg width="24" height="24" viewBox="0 0 24 24" fill="none" xmlns="http://www.w3.org/2000/svg">
<g clip-path="url(#clip0_2266_33098)">
<path d="M0 10.0001C0 8.34327 1.34315 7.00012 3 7.00012H4V17.0001H3C1.34315 17.0001 0 15.657 0 14.0001V10.0001Z" fill="#18202A"/>
<path d="M6 17.9141V6.08616L10.8134 1.6869C12.4178 0.220564 15 1.35876 15 3.53227V20.4682C15 22.6418 12.4177 23.78 10.8134 22.3136L6 17.9141Z" fill="#18202A"/>
<path d="M23.7684 9.7661C24.1234 9.34303 24.0682 8.71227 23.6451 8.35727C23.222 8.00227 22.5913 8.05745 22.2363 8.48053L20.4312 10.6318L18.6261 8.48053C18.2711 8.05745 17.6403 8.00227 17.2172 8.35727C16.7942 8.71227 16.739 9.34303 17.094 9.7661L19.1258 12.1875L17.094 14.6089C16.739 15.032 16.7941 15.6627 17.2172 16.0177C17.6403 16.3727 18.2711 16.3175 18.6261 15.8945L20.4312 13.7432L22.2363 15.8945C22.5913 16.3175 23.222 16.3727 23.6451 16.0177C24.0682 15.6627 24.1234 15.032 23.7684 14.6089L21.7366 12.1875L23.7684 9.7661Z" fill="#18202A"/>
</g>
<defs>
<clipPath id="clip0_2266_33098">
<rect width="24" height="24" fill="white"/>
</clipPath>
</defs>
</svg>
