<svg width="24" height="24" viewBox="0 0 24 24" fill="none" xmlns="http://www.w3.org/2000/svg">
<path d="M6 2C6 1.44772 6.44772 1 7 1C7.55228 1 8 1.44772 8 2V6C8 6.55228 7.55228 7 7 7C6.44772 7 6 6.55228 6 6V2Z" fill="#18202A"/>
<path d="M16 2C16 1.44772 16.4477 1 17 1C17.5523 1 18 1.44772 18 2V6C18 6.55228 17.5523 7 17 7C16.4477 7 16 6.55228 16 6V2Z" fill="#18202A"/>
<path fill-rule="evenodd" clip-rule="evenodd" d="M5 3C2.79086 3 1 4.79086 1 7V19C1 21.2091 2.79086 23 5 23H19C21.2091 23 23 21.2091 23 19V7C23 4.79086 21.2091 3 19 3H5ZM5 10C5 9.44772 5.44772 9 6 9H18C18.5523 9 19 9.44772 19 10C19 10.5523 18.5523 11 18 11H6C5.44772 11 5 10.5523 5 10ZM5 14C5 13.4477 5.44772 13 6 13C6.55228 13 7 13.4477 7 14C7 14.5523 6.55228 15 6 15C5.44772 15 5 14.5523 5 14ZM6 17C5.44772 17 5 17.4477 5 18C5 18.5523 5.44772 19 6 19C6.55228 19 7 18.5523 7 18C7 17.4477 6.55228 17 6 17ZM9 14C9 13.4477 9.44772 13 10 13C10.5523 13 11 13.4477 11 14C11 14.5523 10.5523 15 10 15C9.44772 15 9 14.5523 9 14ZM10 17C9.44772 17 9 17.4477 9 18C9 18.5523 9.44772 19 10 19C10.5523 19 11 18.5523 11 18C11 17.4477 10.5523 17 10 17ZM13 14C13 13.4477 13.4477 13 14 13C14.5523 13 15 13.4477 15 14C15 14.5523 14.5523 15 14 15C13.4477 15 13 14.5523 13 14ZM14 17C13.4477 17 13 17.4477 13 18C13 18.5523 13.4477 19 14 19C14.5523 19 15 18.5523 15 18C15 17.4477 14.5523 17 14 17ZM17 14C17 13.4477 17.4477 13 18 13C18.5523 13 19 13.4477 19 14C19 14.5523 18.5523 15 18 15C17.4477 15 17 14.5523 17 14ZM18 17C17.4477 17 17 17.4477 17 18C17 18.5523 17.4477 19 18 19C18.5523 19 19 18.5523 19 18C19 17.4477 18.5523 17 18 17Z" fill="#18202A"/>
</svg>
