<svg width="24" height="24" viewBox="0 0 24 24" fill="none" xmlns="http://www.w3.org/2000/svg">
<g clip-path="url(#clip0_3906_9075)">
<path fill-rule="evenodd" clip-rule="evenodd" d="M1 7C1 4.79086 2.79086 3 5 3H8.75736C9.55301 3 10.3161 3.31607 10.8787 3.87868L12 5H19C21.2091 5 23 6.79086 23 9V17C23 19.2091 21.2091 21 19 21H5C2.79086 21 1 19.2091 1 17V7ZM16.5 12.5455C17.6991 12.5455 18.2986 11.4091 18.2986 9.98864C18.2986 8.85227 17.6991 8 16.5 8C15.3009 8 14.7013 8.85227 14.7013 9.98864C14.7013 11.4091 15.3009 12.5455 16.5 12.5455ZM13.5644 14.5567C13.6898 14.4474 13.8212 14.345 13.9581 14.25C14.6811 13.7482 15.5567 13.4545 16.5 13.4545C17.2639 13.4545 17.9833 13.6471 18.6134 13.9868C18.9086 14.146 19.1842 14.3375 19.4356 14.5567C19.5061 14.6182 19.5699 14.6846 19.6272 14.755C20.0573 15.2844 20.114 16.044 19.8036 16.6777L19.7933 16.6988L19.7826 16.7202C19.5282 17.2312 19.0636 17.6023 18.5154 17.7443C17.8711 17.9112 17.1958 18 16.5 18C15.8042 18 15.1289 17.9112 14.4846 17.7443C13.9364 17.6023 13.4718 17.2312 13.2174 16.7202L13.1964 16.6777C13.0136 16.3046 12.9581 15.8878 13.0312 15.5C13.0988 15.1416 13.2762 14.8081 13.5644 14.5567Z" fill="#18202A"/>
</g>
<defs>
<clipPath id="clip0_3906_9075">
<rect width="24" height="24" fill="white"/>
</clipPath>
</defs>
</svg>
