<svg width="24" height="24" viewBox="0 0 24 24" fill="none" xmlns="http://www.w3.org/2000/svg">
<path fill-rule="evenodd" clip-rule="evenodd" d="M11.7022 5.6C11.8523 5.77364 12.1485 5.77364 12.2978 5.6C13.452 4.25957 15.1491 3 16.9531 3C20.2877 3 23 5.61329 23 8.8245C23 10.6513 22.0312 12.0781 21.2188 12.9534C20.3769 13.8598 18.8463 15.5946 17.2567 17.3961C16.1193 18.6853 14.9514 20.0089 13.9837 21.0881C12.8985 22.2985 11.1015 22.2985 10.0163 21.0881C9.04845 20.0088 7.88042 18.685 6.74282 17.3956C5.15327 15.5941 3.62307 13.8598 2.78121 12.9534C1.96879 12.0781 1 10.6513 1 8.8245C1 5.61329 3.71229 3 7.04686 3C8.85086 3 10.548 4.25957 11.7022 5.6ZM20.1194 11.933C20.8128 11.1859 21.5 10.1092 21.5 8.8245C21.5 6.49406 19.5126 4.5 16.9531 4.5C15.8083 4.5 14.4909 5.35182 13.4345 6.57876C12.6849 7.4495 11.3138 7.44459 10.5673 6.58083L10.5655 6.57876C9.50905 5.35182 8.19172 4.5 7.04686 4.5C4.48737 4.5 2.5 6.49406 2.5 8.8245C2.5 10.109 3.18697 11.1856 3.88028 11.9326C4.7309 12.8485 6.29089 14.6163 7.89591 16.4352C9.03041 17.7209 10.1876 19.0323 11.1331 20.0868C11.6222 20.6323 12.3778 20.6323 12.8669 20.0868C13.8124 19.0323 14.9695 17.721 16.1039 16.4354C17.7088 14.6167 19.2688 12.8487 20.1194 11.933Z" fill="#18202A"/>
</svg>
