<svg width="24" height="24" viewBox="0 0 24 24" fill="none" xmlns="http://www.w3.org/2000/svg">
<path fill-rule="evenodd" clip-rule="evenodd" d="M12 21.5C6.75329 21.5 2.5 17.2467 2.5 12C2.5 6.75329 6.75329 2.5 12 2.5C17.2467 2.5 21.5 6.75329 21.5 12C21.5 17.2467 17.2467 21.5 12 21.5ZM12 23C5.92487 23 1 18.0751 1 12C1 5.92487 5.92487 1 12 1C18.0751 1 23 5.92487 23 12C23 18.0751 18.0751 23 12 23Z" fill="#18202A"/>
<path fill-rule="evenodd" clip-rule="evenodd" d="M13.5303 7.46967C13.2374 7.17678 12.7626 7.17678 12.4697 7.46967L8.46967 11.4697C8.17678 11.7626 8.17678 12.2374 8.46967 12.5303L12.4697 16.5303C12.7626 16.8232 13.2374 16.8232 13.5303 16.5303C13.8232 16.2374 13.8232 15.7626 13.5303 15.4697L10.0607 12L13.5303 8.53033C13.8232 8.23744 13.8232 7.76256 13.5303 7.46967Z" fill="#18202A"/>
</svg>
