<svg width="24" height="24" viewBox="0 0 24 24" fill="none" xmlns="http://www.w3.org/2000/svg">
<g clip-path="url(#clip0_3916_8826)">
<path fill-rule="evenodd" clip-rule="evenodd" d="M6.57443 4.13292C5.78692 3.34543 6.34473 1.99892 7.45842 1.99902L17.75 1.99995C18.4402 2.00002 18.9998 2.55956 18.9999 3.24982L19.001 13.5415C19.0011 14.6552 17.6546 15.213 16.8671 14.4255L14.2554 11.8138C12.2363 13.9021 11.1863 15.438 10.7067 16.8509C10.2218 18.2795 10.2898 19.6712 10.6936 21.5545C10.8216 22.1512 10.522 22.6794 10.0723 22.9217C9.61096 23.1702 8.98398 23.1175 8.5722 22.6257C5.88933 19.4213 5.10889 16.3711 5.53897 13.5905C5.95095 10.9269 7.45651 8.62545 9.19945 6.75787L6.57443 4.13292ZM17.4999 3.49993L8.06192 3.49908L10.4279 5.86495C10.9192 6.35626 10.9083 7.1379 10.4444 7.62417C8.74066 9.40986 7.3801 11.5003 7.02134 13.8198C6.70467 15.8672 7.15361 18.1909 9.01935 20.7631C8.77843 19.2238 8.79093 17.8281 9.28633 16.3687C9.88904 14.5932 11.1761 12.8144 13.3611 10.582C13.8453 10.0873 14.6437 10.0808 15.135 10.5721L17.5009 12.938L17.4999 3.49993Z" fill="#18202A"/>
</g>
<defs>
<clipPath id="clip0_3916_8826">
<rect width="24" height="24" fill="white"/>
</clipPath>
</defs>
</svg>
