<svg width="24" height="24" viewBox="0 0 24 24" fill="none" xmlns="http://www.w3.org/2000/svg">
<path fill-rule="evenodd" clip-rule="evenodd" d="M17.4084 4.39086C17.6068 4.7545 17.4728 5.21007 17.1091 5.40842L6.10914 11.4084C5.7455 11.6068 5.28993 11.4728 5.09158 11.1091C4.89323 10.7455 5.02722 10.2899 5.39086 10.0916L16.3909 4.09158C16.7545 3.89323 17.2101 4.02722 17.4084 4.39086Z" fill="#18202A"/>
<path fill-rule="evenodd" clip-rule="evenodd" d="M20.1091 7.09158C20.4728 7.28993 20.6068 7.7455 20.4084 8.10914L14.4084 19.1091C14.2101 19.4728 13.7545 19.6068 13.3909 19.4084C13.0272 19.2101 12.8932 18.7545 13.0916 18.3909L19.0916 7.39086C19.2899 7.02722 19.7455 6.89323 20.1091 7.09158Z" fill="#18202A"/>
<path fill-rule="evenodd" clip-rule="evenodd" d="M15.2197 3.21967C15.5126 2.92678 15.9874 2.92678 16.2803 3.21967L21.2803 8.21967C21.5732 8.51256 21.5732 8.98744 21.2803 9.28033C20.9874 9.57322 20.5126 9.57322 20.2197 9.28033L15.2197 4.28033C14.9268 3.98744 14.9268 3.51256 15.2197 3.21967Z" fill="#18202A"/>
<path fill-rule="evenodd" clip-rule="evenodd" d="M9.28033 15.2197C9.57322 15.5126 9.57322 15.9874 9.28033 16.2803L5.28033 20.2803C4.98744 20.5732 4.51256 20.5732 4.21967 20.2803C3.92678 19.9874 3.92678 19.5126 4.21967 19.2197L8.21967 15.2197C8.51256 14.9268 8.98744 14.9268 9.28033 15.2197Z" fill="#18202A"/>
<path fill-rule="evenodd" clip-rule="evenodd" d="M3.21967 9.21967C3.51256 8.92678 3.98744 8.92678 4.28033 9.21967L15.2803 20.2197C15.5732 20.5126 15.5732 20.9874 15.2803 21.2803C14.9874 21.5732 14.5126 21.5732 14.2197 21.2803L3.21967 10.2803C2.92678 9.98744 2.92678 9.51256 3.21967 9.21967Z" fill="#18202A"/>
</svg>
