<svg width="24" height="24" viewBox="0 0 24 24" fill="none" xmlns="http://www.w3.org/2000/svg">
<path fill-rule="evenodd" clip-rule="evenodd" d="M12 9.25C12.4142 9.25 12.75 9.58579 12.75 10V20.1893L14.4697 18.4697C14.7626 18.1768 15.2374 18.1768 15.5303 18.4697C15.8232 18.7626 15.8232 19.2374 15.5303 19.5303L12.5303 22.5303C12.3897 22.671 12.1989 22.75 12 22.75C11.8011 22.75 11.6103 22.671 11.4697 22.5303L8.46967 19.5303C8.17678 19.2374 8.17678 18.7626 8.46967 18.4697C8.76256 18.1768 9.23744 18.1768 9.53033 18.4697L11.25 20.1893V10C11.25 9.58579 11.5858 9.25 12 9.25Z" fill="#18202A"/>
<path d="M17.2743 6.43425L17.6117 7.57293L18.7974 7.50572C18.8643 7.50193 18.9319 7.5 19 7.5C20.933 7.5 22.5 9.067 22.5 11C22.5 12.933 20.933 14.5 19 14.5H14.25V16H19C21.7614 16 24 13.7614 24 11C24 8.23858 21.7614 6 19 6C18.9035 6 18.8077 6.00273 18.7125 6.00813C17.8546 3.11246 15.174 1 12 1C8.82601 1 6.14541 3.11246 5.28747 6.00813C5.19233 6.00273 5.09649 6 5 6C2.23858 6 0 8.23858 0 11C0 13.7614 2.23858 16 5 16H9.75V14.5H5C3.067 14.5 1.5 12.933 1.5 11C1.5 9.067 3.067 7.5 5 7.5C5.06814 7.5 5.13568 7.50193 5.20258 7.50572L6.38829 7.57293L6.72567 6.43425C7.40007 4.15804 9.50836 2.5 12 2.5C14.4916 2.5 16.5999 4.15804 17.2743 6.43425Z" fill="#18202A"/>
</svg>
