<svg width="24" height="24" viewBox="0 0 24 24" fill="none" xmlns="http://www.w3.org/2000/svg">
<path fill-rule="evenodd" clip-rule="evenodd" d="M16.1968 6.28272C16.5929 6.66755 16.6021 7.30064 16.2173 7.69679L6.503 17.6968C6.30983 17.8956 6.04278 18.0054 5.7656 17.9998C5.48842 17.9942 5.226 17.8738 5.04099 17.6674L1.75527 14.0007C1.3867 13.5894 1.42134 12.9572 1.83265 12.5886C2.24396 12.22 2.87617 12.2547 3.24474 12.666L5.81522 15.5345L14.7827 6.30321C15.1676 5.90707 15.8007 5.8979 16.1968 6.28272Z" fill="#18202A"/>
<path fill-rule="evenodd" clip-rule="evenodd" d="M22.1968 6.28272C22.5929 6.66755 22.6021 7.30064 22.2173 7.69679L12.503 17.6968C12.3049 17.9007 12.0294 18.0107 11.7454 17.9992C11.4613 17.9877 11.1956 17.8559 11.0146 17.6367L9.94723 16.3439C9.5956 15.918 9.6558 15.2877 10.0817 14.9361C10.5076 14.5845 11.1379 14.6447 11.4895 15.0706L11.8462 15.5026L20.7827 6.30321C21.1676 5.90707 21.8007 5.8979 22.1968 6.28272Z" fill="#18202A"/>
</svg>
