<svg width="24" height="24" viewBox="0 0 24 24" fill="none" xmlns="http://www.w3.org/2000/svg">
<path d="M18 2.75C18 3.16421 17.6642 3.5 17.25 3.5H6C4.61929 3.5 3.5 4.61929 3.5 6V18C3.5 19.3807 4.61929 20.5 6 20.5H18C19.3807 20.5 20.5 19.3807 20.5 18V11.75C20.5 11.3358 20.8358 11 21.25 11C21.6642 11 22 11.3358 22 11.75V18C22 20.2091 20.2091 22 18 22H6C3.79086 22 2 20.2091 2 18V6C2 3.79086 3.79086 2 6 2H17.25C17.6642 2 18 2.33579 18 2.75Z" fill="#18202A"/>
<path d="M22.0303 6.03033C22.3232 5.73744 22.3232 5.26256 22.0303 4.96967C21.7374 4.67678 21.2626 4.67678 20.9697 4.96967L11.5 14.4393L8.03033 10.9697C7.73744 10.6768 7.26256 10.6768 6.96967 10.9697C6.67678 11.2626 6.67678 11.7374 6.96967 12.0303L10.9697 16.0303C11.2626 16.3232 11.7374 16.3232 12.0303 16.0303L22.0303 6.03033Z" fill="#18202A"/>
</svg>
