<svg width="24" height="24" viewBox="0 0 24 24" fill="none" xmlns="http://www.w3.org/2000/svg">
<path d="M10 3C6.86759 3 5 5.5314 5 8C5 8.33433 5.03426 8.66981 5.10127 9H7.16469C7.05637 8.6802 7 8.34166 7 8C7 6.4686 8.13241 5 10 5H14C14.8517 5 15.6461 5.21594 16.1953 5.58205C16.7148 5.9284 17 6.38791 17 7C17 7.55228 17.4477 8 18 8C18.5523 8 19 7.55228 19 7C19 5.61209 18.2852 4.5716 17.3047 3.91795C16.3539 3.28406 15.1483 3 14 3H10Z" fill="#18202A"/>
<path d="M2 12C2 11.4477 2.44772 11 3 11H21C21.5523 11 22 11.4477 22 12C22 12.5523 21.5523 13 21 13H18.981C19.6406 13.8118 20 14.8347 20 16C20 17.5664 19.3183 18.8565 18.1866 19.7293C17.0792 20.5834 15.5974 21 14 21H9C5.86759 21 4 18.4686 4 16C4 15.4477 4.44772 15 5 15C5.55228 15 6 15.4477 6 16C6 17.5314 7.13241 19 9 19H14C15.2715 19 16.2897 18.6666 16.9651 18.1457C17.6161 17.6435 18 16.9336 18 16C18 15.0449 17.6316 14.3395 17.0072 13.8488C16.3562 13.3373 15.3455 13 14 13H3C2.44772 13 2 12.5523 2 12Z" fill="#18202A"/>
</svg>
