<svg width="24" height="24" viewBox="0 0 24 24" fill="none" xmlns="http://www.w3.org/2000/svg">
<path fill-rule="evenodd" clip-rule="evenodd" d="M11 3C6.58172 3 3 6.58172 3 11C3 15.1172 6.11098 18.5091 10.1099 18.9511C10.6588 19.0118 11.0546 19.506 10.9939 20.0549C10.9333 20.6039 10.4391 20.9997 9.89013 20.939C4.88912 20.3862 1 16.148 1 11C1 5.47715 5.47715 1 11 1C16.148 1 20.3862 4.88912 20.939 9.89013C20.9997 10.4391 20.6039 10.9333 20.0549 10.9939C19.506 11.0546 19.0118 10.6588 18.9511 10.1099C18.5091 6.11098 15.1172 3 11 3ZM11 7C8.79086 7 7 8.79086 7 11C7 12.6387 7.98556 14.0494 9.40037 14.6676C9.90646 14.8887 10.1375 15.4782 9.91635 15.9843C9.69523 16.4904 9.10572 16.7214 8.59963 16.5003C6.48263 15.5754 5 13.4619 5 11C5 7.68629 7.68629 5 11 5C13.4619 5 15.5754 6.48263 16.5003 8.59963C16.7214 9.10572 16.4904 9.69523 15.9843 9.91635C15.4782 10.1375 14.8887 9.90646 14.6676 9.40037C14.0494 7.98556 12.6387 7 11 7ZM11.0549 11.9971C10.8703 11.4172 11.417 10.8705 11.997 11.055L21.0845 13.9465C21.6837 14.1372 21.7964 14.9364 21.2731 15.2852L19.0924 16.739L22.8232 20.4698C23.1161 20.7627 23.1161 21.2376 22.8232 21.5305L21.5303 22.8234C21.2374 23.1163 20.7626 23.1163 20.4697 22.8234L16.7389 19.0926L15.2851 21.2732C14.9362 21.7965 14.137 21.6839 13.9464 21.0846L11.0549 11.9971Z" fill="#18202A"/>
</svg>
