<svg width="24" height="24" viewBox="0 0 24 24" fill="none" xmlns="http://www.w3.org/2000/svg">
<g clip-path="url(#clip0_2266_32639)">
<path fill-rule="evenodd" clip-rule="evenodd" d="M0 6C0 2.68629 2.68629 0 6 0H18C21.3137 0 24 2.68629 24 6V18C24 21.3137 21.3137 24 18 24H6C2.68629 24 0 21.3137 0 18V6ZM3 12C3 7.02944 7.02944 3 12 3C16.9706 3 21 7.02944 21 12C21 16.9706 16.9706 21 12 21C7.02944 21 3 16.9706 3 12ZM16.02 10.3166V10.3167V10.3167C16.02 10.3917 16.02 10.4667 16.0115 10.5417V13.5C16.01 13.6021 16.0087 13.689 16.0076 13.7634C16.0028 14.0899 16.0015 14.1769 15.9947 14.2583C15.9778 14.5333 15.9441 14.7917 15.902 15.0167C15.7924 15.5667 15.5733 16.0583 15.2531 16.4667C14.4779 17.4833 13.3571 18 11.933 18C10.9218 18 10.0286 17.7417 9.27861 17.2333C8.49493 16.7 7.96405 15.95 7.67754 15.0083H9.30389C9.80106 16.0917 10.6606 16.6167 11.9246 16.6167C12.742 16.6167 13.3571 16.3833 13.829 15.9C14.2841 15.425 14.5116 14.7917 14.5116 13.9833V13.5833C13.7448 14.2417 12.7504 14.6333 11.6634 14.6333C9.25333 14.6333 7.29834 12.7 7.29834 10.3167C7.29834 7.93333 9.25333 6 11.6634 6C12.742 6 13.7363 6.39167 14.4947 7.04167V6H16.0115V10.0833C16.02 10.1583 16.02 10.2416 16.02 10.3166ZM8.82357 10.3083C8.82357 11.8583 10.096 13.1167 11.6634 13.1167C13.2223 13.1167 14.4947 11.8583 14.5032 10.3083C14.5032 8.75833 13.2307 7.5 11.6634 7.5C10.096 7.5 8.82357 8.75833 8.82357 10.3083Z" fill="#18202A"/>
</g>
<defs>
<clipPath id="clip0_2266_32639">
<rect width="24" height="24" fill="white"/>
</clipPath>
</defs>
</svg>
