<svg width="24" height="24" viewBox="0 0 24 24" fill="none" xmlns="http://www.w3.org/2000/svg">
<path d="M8.01001 2.03987C8.72471 2.02948 9.41963 2.2746 9.96963 2.73111C10.5196 3.18761 10.8886 3.82549 11.01 4.52987C11.04 4.75987 11.08 4.98987 11.13 5.20987C11.2309 5.65467 11.3612 6.09229 11.52 6.51987C11.6888 6.98378 11.68 7.49372 11.4954 7.95156C11.3339 8.35217 11.0477 8.68811 10.6816 8.91127L10.52 8.99987L10.1 9.27987C10.6418 10.2539 11.3148 11.1489 12.1 11.9399C12.7921 12.6269 13.5639 13.228 14.3985 13.7306L14.76 13.9399L14.98 13.4899C15.1971 13.0465 15.5705 12.6991 16.0283 12.5145C16.4862 12.3299 16.9961 12.3211 17.46 12.4899C17.78 12.611 18.1063 12.7146 18.4374 12.8002L19.105 12.9586C19.2175 12.9824 19.33 12.9999 19.44 12.9999C20.1238 13.1225 20.7439 13.4786 21.1943 14.0075C21.5947 14.4776 21.8391 15.0584 21.8971 15.6695L21.9101 15.8999V18.8999C21.912 19.3243 21.8239 19.7443 21.6515 20.1322C21.4791 20.52 21.2264 20.8669 20.91 21.1499C20.4145 21.5913 19.7882 21.8547 19.1303 21.9021L18.91 21.9099H18.53C14.3387 21.3924 10.4393 19.4933 7.44766 16.5125C4.45604 13.5317 2.54275 9.63925 2.01001 5.44987C1.95109 5.02293 1.98485 4.5883 2.109 4.17558C2.23314 3.76286 2.44476 3.38174 2.72944 3.05815C3.01412 2.73456 3.36518 2.47612 3.75872 2.3004C4.08667 2.15396 4.4377 2.06785 4.79501 2.04556L5.01001 2.03987H8.01001ZM8.01001 3.53987L4.99591 3.53967C4.78044 3.53778 4.56705 3.58221 4.37029 3.67006C4.1735 3.75793 3.99798 3.88715 3.85565 4.04893C3.7133 4.21074 3.60749 4.4013 3.54542 4.60767C3.48335 4.81402 3.46647 5.03133 3.49803 5.26065C3.98871 9.11926 5.75093 12.7044 8.50639 15.4499C11.1634 18.0973 14.5979 19.8183 18.3012 20.3653L18.6318 20.4096L18.9122 20.4099C19.2282 20.4104 19.5349 20.311 19.7881 20.1294L19.91 20.0319C20.0682 19.8904 20.1946 19.7169 20.2808 19.523C20.3454 19.3775 20.3864 19.223 20.4024 19.0624L20.41 18.8999L20.4103 15.9263C20.4042 15.5791 20.2776 15.2446 20.0523 14.98C19.8593 14.7535 19.604 14.5903 19.3197 14.5097L19.2418 14.4916L19.2247 14.4913C19.1539 14.4856 19.0837 14.4772 19.0126 14.4663L18.7952 14.4263L18.4471 14.3447C17.9307 14.2309 17.4234 14.0799 16.9471 13.8995C16.8312 13.8573 16.7037 13.8595 16.5893 13.9057C16.5034 13.9403 16.4295 13.9978 16.3751 14.0708L16.3276 14.1487L15.876 15.0724C15.6243 15.5872 14.9922 15.7856 14.4914 15.507L14.0307 15.2507C12.9368 14.642 11.9316 13.8863 11.0354 12.9966C10.2637 12.2192 9.58853 11.3524 9.02418 10.415L8.78915 10.009L8.56489 9.60585C8.31155 9.15042 8.45046 8.57678 8.88409 8.2877L9.68795 7.75179L9.86041 7.65267C9.97125 7.5984 10.0581 7.50508 10.1042 7.39064C10.1504 7.27613 10.1526 7.14867 10.1138 7.0421C9.93194 6.55231 9.78271 6.05108 9.6673 5.5423C9.60758 5.27954 9.55914 5.00403 9.53179 4.78464C9.47111 4.43255 9.28663 4.11359 9.01161 3.88532C8.77591 3.68968 8.48697 3.57169 8.17045 3.54534L8.01001 3.53987Z" fill="#18202A"/>
<path fill-rule="evenodd" clip-rule="evenodd" d="M20.1668 9.23528C20.1668 9.6495 19.8311 9.98528 19.4168 9.98528L14.76 9.98528C14.3458 9.98528 14.01 9.6495 14.01 9.23528V4.57843C14.01 4.16421 14.3458 3.82843 14.76 3.82843C15.1742 3.82843 15.51 4.16421 15.51 4.57843V7.42462L19.7149 3.21967C20.0078 2.92678 20.4827 2.92678 20.7756 3.21967C21.0685 3.51256 21.0685 3.98744 20.7756 4.28033L16.5707 8.48528L19.4168 8.48528C19.8311 8.48528 20.1668 8.82107 20.1668 9.23528Z" fill="#18202A"/>
</svg>
