<svg width="24" height="24" viewBox="0 0 24 24" fill="none" xmlns="http://www.w3.org/2000/svg">
<path d="M17.5897 4.4634C17.8456 4.13769 17.7891 3.6662 17.4634 3.41029C17.1377 3.15438 16.6662 3.21096 16.4103 3.53667L5.93256 16.8719L3.53033 14.4697C3.23744 14.1768 2.76256 14.1768 2.46967 14.4697C2.17678 14.7626 2.17678 15.2375 2.46967 15.5304L5.46967 18.5304C5.62133 18.682 5.83066 18.7615 6.04476 18.7487C6.25886 18.7359 6.45723 18.632 6.58974 18.4634L17.5897 4.4634Z" fill="#18202A"/>
<path d="M19 7.25C18.5858 7.25 18.25 7.58579 18.25 8C18.25 8.41421 18.5858 8.75 19 8.75H21C21.4142 8.75 21.75 8.41421 21.75 8C21.75 7.58579 21.4142 7.25 21 7.25H19Z" fill="#18202A"/>
<path d="M14.25 13C14.25 12.5858 14.5858 12.25 15 12.25H21C21.4142 12.25 21.75 12.5858 21.75 13C21.75 13.4142 21.4142 13.75 21 13.75H15C14.5858 13.75 14.25 13.4142 14.25 13Z" fill="#18202A"/>
<path d="M11 17.25C10.5858 17.25 10.25 17.5858 10.25 18C10.25 18.4142 10.5858 18.75 11 18.75H21C21.4142 18.75 21.75 18.4142 21.75 18C21.75 17.5858 21.4142 17.25 21 17.25H11Z" fill="#18202A"/>
</svg>
