<svg width="24" height="24" viewBox="0 0 24 24" fill="none" xmlns="http://www.w3.org/2000/svg">
<path fill-rule="evenodd" clip-rule="evenodd" d="M18.2364 2.00687C20.3355 2.1292 22 3.87022 22 6V19C22 21.2091 20.2091 23 18 23H6C3.79086 23 2 21.2091 2 19V6C2 3.87022 3.66451 2.1292 5.76361 2.00687C6.10843 1.40528 6.75689 1 7.5 1H16.5C17.2431 1 17.8916 1.40528 18.2364 2.00687ZM5.5 3.55001C4.35888 3.78164 3.5 4.79052 3.5 6V19C3.5 20.3807 4.61929 21.5 6 21.5H18C19.3807 21.5 20.5 20.3807 20.5 19V6C20.5 4.79052 19.6411 3.78164 18.5 3.55001V5C18.5 6.10457 17.6046 7 16.5 7H7.5C6.39543 7 5.5 6.10457 5.5 5V3.55001ZM7 3C7 2.72386 7.22386 2.5 7.5 2.5H16.5C16.7761 2.5 17 2.72386 17 3V5C17 5.27614 16.7761 5.5 16.5 5.5H7.5C7.22386 5.5 7 5.27614 7 5V3ZM17.5303 10.5303C17.8232 10.2374 17.8232 9.76256 17.5303 9.46967C17.2374 9.17678 16.7626 9.17678 16.4697 9.46967L10 15.9393L7.53033 13.4697C7.23744 13.1768 6.76256 13.1768 6.46967 13.4697C6.17678 13.7626 6.17678 14.2374 6.46967 14.5303L9.46967 17.5303C9.76256 17.8232 10.2374 17.8232 10.5303 17.5303L17.5303 10.5303Z" fill="#18202A"/>
</svg>
