<svg width="24" height="24" viewBox="0 0 24 24" fill="none" xmlns="http://www.w3.org/2000/svg">
<path d="M21.2188 12.9534C19.7744 14.5085 16.3039 18.5005 13.9837 21.0881C12.8985 22.2985 11.1015 22.2985 10.0163 21.0881C7.69614 18.5005 4.22557 14.5085 2.78121 12.9534C1.96879 12.0781 1 10.6513 1 8.8245C1 5.61329 3.71229 3 7.04686 3C8.85086 3 10.548 4.25957 11.7022 5.6C11.8523 5.77364 12.1485 5.77364 12.2978 5.6C13.452 4.25957 15.1491 3 16.9531 3C20.2877 3 23 5.61329 23 8.8245C23 10.6513 22.0312 12.0781 21.2188 12.9534Z" fill="#18202A"/>
</svg>
