<svg width="24" height="24" viewBox="0 0 24 24" fill="none" xmlns="http://www.w3.org/2000/svg">
<path fill-rule="evenodd" clip-rule="evenodd" d="M4.5 13C5.05228 13 5.5 12.5523 5.5 12C5.5 11.4477 5.05228 11 4.5 11C3.94772 11 3.5 11.4477 3.5 12C3.5 12.5523 3.94772 13 4.5 13ZM4.5 14.5C5.88071 14.5 7 13.3807 7 12C7 10.6193 5.88071 9.5 4.5 9.5C3.11929 9.5 2 10.6193 2 12C2 13.3807 3.11929 14.5 4.5 14.5Z" fill="#18202A"/>
<path fill-rule="evenodd" clip-rule="evenodd" d="M12 13C12.5523 13 13 12.5523 13 12C13 11.4477 12.5523 11 12 11C11.4477 11 11 11.4477 11 12C11 12.5523 11.4477 13 12 13ZM12 14.5C13.3807 14.5 14.5 13.3807 14.5 12C14.5 10.6193 13.3807 9.5 12 9.5C10.6193 9.5 9.5 10.6193 9.5 12C9.5 13.3807 10.6193 14.5 12 14.5Z" fill="#18202A"/>
<path fill-rule="evenodd" clip-rule="evenodd" d="M19.5 13C20.0523 13 20.5 12.5523 20.5 12C20.5 11.4477 20.0523 11 19.5 11C18.9477 11 18.5 11.4477 18.5 12C18.5 12.5523 18.9477 13 19.5 13ZM19.5 14.5C20.8807 14.5 22 13.3807 22 12C22 10.6193 20.8807 9.5 19.5 9.5C18.1193 9.5 17 10.6193 17 12C17 13.3807 18.1193 14.5 19.5 14.5Z" fill="#18202A"/>
</svg>
