<svg width="24" height="24" viewBox="0 0 24 24" fill="none" xmlns="http://www.w3.org/2000/svg">
<path d="M12 12C14 12 15 10 15 7.5C15 5.5 14 4 12 4C10 4 9.00003 5.5 9.00003 7.5C9.00003 10 10 12 12 12Z" fill="#18202A"/>
<path d="M12.6679 21.9878C12.2395 21.0817 12 20.0688 12 19C12 16.7284 13.082 14.7096 14.7588 13.4307C13.8894 13.151 12.9623 13 12 13C10.2159 13 8.55306 13.5191 7.15426 14.4146C5.84452 15.253 5.4063 16.9237 5.9299 18.388C6.08302 18.8163 6.25388 19.2361 6.44159 19.6466C6.97355 20.8099 8.06574 21.6154 9.331 21.8035C10.2019 21.9329 11.0931 22 12 22C12.2236 22 12.4463 21.9959 12.6679 21.9878Z" fill="#18202A"/>
<path d="M5.00003 12C6.33336 12 7.00003 10.75 7.00003 9.1875C7.00003 7.9375 6.33336 7 5.00003 7C3.6667 7 3.00003 7.9375 3.00003 9.1875C3.00003 10.75 3.6667 12 5.00003 12Z" fill="#18202A"/>
<path d="M19 12C20.3334 12 21 10.75 21 9.1875C21 7.9375 20.3334 7 19 7C17.6667 7 17 7.9375 17 9.1875C17 10.75 17.6667 12 19 12Z" fill="#18202A"/>
<path d="M4.04667 19.0616C3.45918 17.4186 3.64602 15.4911 4.69846 14.0298C3.74381 14.1117 2.83704 14.3612 2.00773 14.7488C0.840671 15.2943 0.369745 16.6721 0.763752 17.8986C1.10848 18.9717 2.04462 19.7256 3.16325 19.8637C3.5718 19.9141 3.98458 19.9508 4.40113 19.9734C4.27502 19.6736 4.15678 19.3695 4.04667 19.0616Z" fill="#18202A"/>
<path fill-rule="evenodd" clip-rule="evenodd" d="M19 24C16.2386 24 14 21.7614 14 19C14 16.2386 16.2386 14 19 14C21.7614 14 24 16.2386 24 19C24 21.7614 21.7614 24 19 24ZM18.9697 17.0303C18.6768 16.7374 18.6768 16.2626 18.9697 15.9697C19.2626 15.6768 19.7374 15.6768 20.0303 15.9697L22.5303 18.4697C22.8232 18.7626 22.8232 19.2374 22.5303 19.5303L20.0303 22.0303C19.7374 22.3232 19.2626 22.3232 18.9697 22.0303C18.6768 21.7374 18.6768 21.2626 18.9697 20.9697L20.1893 19.75H16C15.5858 19.75 15.25 19.4142 15.25 19C15.25 18.5858 15.5858 18.25 16 18.25H20.1893L18.9697 17.0303Z" fill="#18202A"/>
</svg>
