<svg width="24" height="24" viewBox="0 0 24 24" fill="none" xmlns="http://www.w3.org/2000/svg">
<path fill-rule="evenodd" clip-rule="evenodd" d="M16 5.375C16 8.5 14.6667 11 12 11C9.33333 11 8 8.5 8 5.375C8 2.875 9.33333 1 12 1C14.6667 1 16 2.875 16 5.375ZM16.407 14.0209C15.0775 13.3672 13.5816 13 12 13C9.50505 13 7.22347 13.9137 5.47167 15.4248C4.13694 16.5761 3.87094 18.5114 4.65317 20.091C4.66863 20.1222 4.6842 20.1534 4.69986 20.1845C5.2657 21.3086 6.29889 22.1251 7.51793 22.4375C8.64009 22.7251 9.80451 22.9072 11 22.9727V19C11 17.3431 12.3431 16 14 16H15C15.5523 16 15.9896 15.5478 16.0987 15.0064C16.1678 14.6639 16.2718 14.3341 16.407 14.0209ZM14 18C13.4477 18 13 18.4477 13 19V23C13 23.5523 13.4477 24 14 24H20C20.5523 24 21 23.5523 21 23V19C21 18.4477 20.5523 18 20 18V16C20 15.4477 20.4477 15 21 15C21.5523 15 22 15.4477 22 16V17.3333C22 17.8856 22.4477 18.3333 23 18.3333C23.5523 18.3333 24 17.8856 24 17.3333V16C24 14.3431 22.6569 13 21 13C19.3431 13 18 14.3431 18 16V18H14ZM18 20.5C18 19.9477 17.5523 19.5 17 19.5C16.4477 19.5 16 19.9477 16 20.5V21.5C16 22.0523 16.4477 22.5 17 22.5C17.5523 22.5 18 22.0523 18 21.5V20.5Z" fill="#18202A"/>
</svg>
