<svg width="24" height="24" viewBox="0 0 24 24" fill="none" xmlns="http://www.w3.org/2000/svg">
<path d="M16 4C16.5523 4 17 3.55228 17 3C17 2.44772 16.5523 2 16 2H6C3.79086 2 2 3.79086 2 6V18C2 20.2091 3.79086 22 6 22H18C20.2091 22 22 20.2091 22 18V13C22 12.4477 21.5523 12 21 12C20.4477 12 20 12.4477 20 13V18C20 19.1046 19.1046 20 18 20H6C4.89543 20 4 19.1046 4 18V6C4 4.89543 4.89543 4 6 4H16Z" fill="#18202A"/>
<path d="M12.2071 16.2071L21.7071 6.70711C22.0976 6.31658 22.0976 5.68342 21.7071 5.29289C21.3166 4.90237 20.6834 4.90237 20.2929 5.29289L11.5 14.0858L8.70711 11.2929C8.31658 10.9024 7.68342 10.9024 7.29289 11.2929C6.90237 11.6834 6.90237 12.3166 7.29289 12.7071L10.7929 16.2071C11.1834 16.5976 11.8166 16.5976 12.2071 16.2071Z" fill="#18202A"/>
</svg>
