<svg width="24" height="24" viewBox="0 0 24 24" fill="none" xmlns="http://www.w3.org/2000/svg">
<path fill-rule="evenodd" clip-rule="evenodd" d="M12.2609 8.96032C13.8135 8.81245 15.3774 9.08225 16.7907 9.7418L21.385 11.8858C22.3311 12.3273 21.976 13.7502 20.9333 13.6954L14.7421 13.3695C13.312 13.2942 11.8792 13.4513 10.4994 13.8346L4.468 15.51C3.75999 15.7066 3.00079 15.5636 2.41294 15.1227C1.32833 14.3092 1.14656 12.753 2.0145 11.7115L2.72093 10.8638C3.29782 10.1715 4.12483 9.73518 5.02191 9.64974L12.2609 8.96032ZM16.1564 11.1011C14.9853 10.5546 13.6895 10.331 12.4031 10.4536L5.16412 11.143C4.66086 11.1909 4.1969 11.4357 3.87326 11.8241L3.16683 12.6718C2.84856 13.0537 2.91521 13.6244 3.31294 13.9227C3.52851 14.0843 3.8069 14.1368 4.06653 14.0647L10.0979 12.3893C11.6339 11.9626 13.229 11.7878 14.8209 11.8716L18.1871 12.0487L16.1564 11.1011Z" fill="#26282C"/>
</svg>
