<svg width="24" height="24" viewBox="0 0 24 24" fill="none" xmlns="http://www.w3.org/2000/svg">
<path d="M2.52045 11.6909V11.6396L2.51694 11.5884C2.19452 6.883 6.64591 2.5 12.0102 2.5C17.3464 2.5 21.5 6.12042 21.5 11.6909C21.5 11.9928 21.4846 12.2928 21.4542 12.5897L22.5846 14.5879C22.8576 13.6605 23 12.6865 23 11.6909C23 5.2 18.0797 1 12.0102 1C5.94074 1 0.628009 5.96364 1.02045 11.6909C1.02045 15.1132 2.38822 17.7925 4.57105 19.561L4.78115 22.0822C4.8388 22.774 5.56647 23.198 6.19676 22.9071L8.92267 21.649C9.27975 21.7335 9.64437 21.8031 10.0155 21.8573C9.96905 21.3688 10.0258 20.8624 10.2034 20.3688C9.88484 20.3214 9.57285 20.2615 9.26823 20.1894L8.76429 20.0701L6.21666 21.2459L6.0127 18.7984L5.5153 18.3954C3.69882 16.9238 2.52045 14.6802 2.52045 11.6909Z" fill="#18202A"/>
<path fill-rule="evenodd" clip-rule="evenodd" d="M22.7974 23H13.2027C12.2804 23 11.7024 21.9842 12.1602 21.1681L16.9576 12.6165C17.4187 11.7945 18.5814 11.7945 19.0425 12.6165L23.8398 21.1681C24.2976 21.9842 23.7196 23 22.7974 23ZM18 15C17.5858 15 17.25 15.3358 17.25 15.75V17.75C17.25 18.1642 17.5858 18.5 18 18.5C18.4142 18.5 18.75 18.1642 18.75 17.75V15.75C18.75 15.3358 18.4142 15 18 15ZM18 19.5C17.5858 19.5 17.25 19.8358 17.25 20.25C17.25 20.6642 17.5858 21 18 21C18.4142 21 18.75 20.6642 18.75 20.25C18.75 19.8358 18.4142 19.5 18 19.5Z" fill="#18202A"/>
</svg>
