<svg width="24" height="24" viewBox="0 0 24 24" fill="none" xmlns="http://www.w3.org/2000/svg">
<path fill-rule="evenodd" clip-rule="evenodd" d="M20 6.49951H4C3.17157 6.49951 2.5 7.17108 2.5 7.99951V11.4995H21.5V7.99951C21.5 7.17108 20.8284 6.49951 20 6.49951ZM4 4.99951C2.34315 4.99951 1 6.34266 1 7.99951V12.9995H23V7.99951C23 6.34266 21.6569 4.99951 20 4.99951H4Z" fill="#18202A"/>
<path d="M12 3.45284C11.8399 3.08527 11.6537 2.72525 11.4386 2.39914C11.0739 1.84619 10.5728 1.30844 9.89574 1.05501C9.17702 0.785982 8.39683 0.886852 7.61417 1.3564C6.74531 1.87766 6.26352 2.65897 6.17272 3.5128C6.11849 4.02263 6.206 4.53138 6.40258 4.99951H8.16194C8.12911 4.96379 8.09789 4.92741 8.06832 4.89052C7.75398 4.49836 7.62358 4.05431 7.6643 3.67143C7.70272 3.31024 7.89886 2.93484 8.38585 2.64267C8.85319 2.3623 9.15632 2.37988 9.3699 2.45982C9.62515 2.55536 9.90532 2.79885 10.1864 3.22505C10.5219 3.73369 10.7826 4.3851 10.9728 4.99951H13.0272C13.2174 4.3851 13.4781 3.73369 13.8136 3.22505C14.0947 2.79885 14.3749 2.55536 14.6301 2.45982C14.8437 2.37988 15.1468 2.3623 15.6142 2.64267C16.1012 2.93484 16.2973 3.31024 16.3357 3.67143C16.3764 4.05431 16.246 4.49836 15.9317 4.89052C15.9021 4.92741 15.8709 4.96379 15.8381 4.99951H17.5974C17.794 4.53138 17.8815 4.02263 17.8273 3.5128C17.7365 2.65897 17.2547 1.87766 16.3858 1.3564C15.6032 0.886852 14.823 0.785982 14.1043 1.05501C13.4272 1.30844 12.9261 1.84619 12.5614 2.39914C12.3463 2.72525 12.1601 3.08527 12 3.45284Z" fill="#18202A"/>
<path fill-rule="evenodd" clip-rule="evenodd" d="M20.5 12.9995H3.5V19.9995C3.5 20.8279 4.17157 21.4995 5 21.4995H19C19.8284 21.4995 20.5 20.8279 20.5 19.9995V12.9995ZM2 11.4995V19.9995C2 21.6564 3.34315 22.9995 5 22.9995H19C20.6569 22.9995 22 21.6564 22 19.9995V11.4995H2Z" fill="#18202A"/>
<path d="M11.25 11.9995H12.75V21.9995H11.25V11.9995Z" fill="#18202A"/>
</svg>
