<svg width="24" height="24" viewBox="0 0 24 24" fill="none" xmlns="http://www.w3.org/2000/svg">
<path fill-rule="evenodd" clip-rule="evenodd" d="M3.22101 3.22101C3.51569 2.92633 3.99345 2.92633 4.28813 3.22101L20.779 19.7119C20.7866 19.7194 20.794 19.7272 20.8011 19.735L20.8951 19.829L20.8765 19.8315C21.069 20.1243 21.0365 20.5215 20.779 20.779C20.4843 21.0737 20.0065 21.0737 19.7119 20.779L17.8644 18.9315C17.768 19.1728 17.6659 19.4112 17.5583 19.6466C17.0264 20.8099 15.9342 21.6154 14.6689 21.8035C13.798 21.9329 12.9068 22 11.9999 22C11.093 22 10.2018 21.9329 9.33088 21.8035C8.06562 21.6154 6.97343 20.8099 6.44147 19.6466C6.25376 19.2361 6.0829 18.8163 5.92977 18.388C5.40618 16.9237 5.8444 15.253 7.15414 14.4146C8.53547 13.5303 10.1743 13.013 11.9331 13.0002L7.95069 9.01781C7.9835 9.21144 7.99991 9.41453 7.99991 9.625C7.99991 11.5 7.16657 13 5.49991 13C3.83324 13 2.99991 11.5 2.99991 9.625C2.99991 8.125 3.83324 7 5.49991 7C5.66268 7 5.8175 7.01073 5.96437 7.03149L3.22101 4.28813C2.92633 3.99345 2.92633 3.51569 3.22101 3.22101ZM16.6967 17.7638L13.6046 14.6718C13.088 14.5593 12.5512 14.5 11.9999 14.5C10.5109 14.5 9.12745 14.9324 7.96286 15.6779C7.33084 16.0825 7.01636 16.9717 7.3422 17.883C7.48085 18.2708 7.63559 18.651 7.80561 19.0228C8.12168 19.714 8.77688 20.2047 9.55142 20.3198C10.3495 20.4384 11.1671 20.5 11.9999 20.5C12.8327 20.5 13.6503 20.4384 14.4484 20.3198C15.2229 20.2047 15.8781 19.714 16.1942 19.0228C16.3642 18.651 16.5189 18.2708 16.6576 17.883C16.6718 17.8432 16.6848 17.8034 16.6967 17.7638ZM6.13669 11.169C6.33082 10.8851 6.49991 10.3679 6.49991 9.625C6.49991 9.13975 6.36588 8.87264 6.25379 8.74655C6.16515 8.64682 5.97471 8.5 5.49991 8.5C5.0251 8.5 4.83467 8.64682 4.74602 8.74655C4.63393 8.87264 4.49991 9.13975 4.49991 9.625C4.49991 10.3679 4.669 10.8851 4.86313 11.169C5.01639 11.3931 5.18981 11.5 5.49991 11.5C5.81 11.5 5.98343 11.3931 6.13669 11.169Z" fill="#26282C"/>
<path d="M13.4999 7.5C13.4999 8.52915 13.2996 9.32417 13.0156 9.82807L14.0995 10.912C14.6998 10.0892 14.9999 8.86962 14.9999 7.5C14.9999 5.5 13.9999 4 11.9999 4C10.5332 4 9.60431 4.8067 9.21321 6.02571L10.5037 7.31622C10.5319 6.64719 10.7132 6.19709 10.9212 5.93704C11.1117 5.69891 11.4143 5.5 11.9999 5.5C12.5855 5.5 12.8881 5.69891 13.0786 5.93704C13.3052 6.22022 13.4999 6.72878 13.4999 7.5Z" fill="#26282C"/>
<path d="M22.3827 19.1952L21.3125 18.125C21.548 17.9682 21.7244 17.7383 21.8124 17.4663C21.9984 16.8911 21.7507 16.4143 21.4286 16.2446C20.8462 15.9378 20.2113 15.7167 19.5397 15.5986C19.3517 15.0213 19.0538 14.4772 18.6428 14.0034C19.8985 14.0402 21.0816 14.3664 22.1277 14.9175C23.1986 15.4817 23.612 16.7762 23.2396 17.9279C23.0756 18.4351 22.7746 18.869 22.3827 19.1952Z" fill="#26282C"/>
<path fill-rule="evenodd" clip-rule="evenodd" d="M20.9999 9.625C20.9999 11.5 20.1666 13 18.4999 13C16.8332 13 15.9999 11.5 15.9999 9.625C15.9999 8.125 16.8332 7 18.4999 7C20.1666 7 20.9999 8.125 20.9999 9.625ZM19.4999 9.625C19.4999 10.3679 19.3308 10.8851 19.1367 11.169C18.9834 11.3931 18.81 11.5 18.4999 11.5C18.1898 11.5 18.0164 11.3931 17.8631 11.169C17.669 10.8851 17.4999 10.3679 17.4999 9.625C17.4999 9.13975 17.6339 8.87264 17.746 8.74655C17.8347 8.64682 18.0251 8.5 18.4999 8.5C18.9747 8.5 19.1652 8.64682 19.2538 8.74655C19.3659 8.87264 19.4999 9.13975 19.4999 9.625Z" fill="#26282C"/>
<path d="M2.00761 14.7486C3.02643 14.2724 4.16216 14.0046 5.35997 14C4.95562 14.4652 4.66046 14.9984 4.47137 15.5643C3.82544 15.6556 3.21144 15.8417 2.64276 16.1075C2.27559 16.2791 1.98747 16.8036 2.19175 17.4395C2.35233 17.9394 2.7905 18.306 3.34691 18.3747C3.69012 18.4171 4.03674 18.4489 4.38646 18.4699C4.42396 18.6126 4.4676 18.7539 4.51736 18.893C4.65083 19.2663 4.79661 19.6337 4.9542 19.9947C4.34932 19.9803 3.75182 19.9361 3.16313 19.8634C2.04449 19.7253 1.10836 18.9714 0.76363 17.8983C0.369623 16.6718 0.840549 15.2941 2.00761 14.7486Z" fill="#26282C"/>
</svg>
