<svg width="24" height="24" viewBox="0 0 24 24" fill="none" xmlns="http://www.w3.org/2000/svg">
<path fill-rule="evenodd" clip-rule="evenodd" d="M12.4393 17.4697C12.1464 17.7626 12.1464 18.2374 12.4393 18.5303C12.7322 18.8232 13.2071 18.8232 13.5 18.5303L19.5 12.5303C19.7929 12.2374 19.7929 11.7626 19.5 11.4697L13.5 5.46967C13.2071 5.17678 12.7322 5.17678 12.4393 5.46967C12.1464 5.76256 12.1464 6.23744 12.4393 6.53033L17.909 12L12.4393 17.4697ZM4.46967 17.4697C4.17677 17.7626 4.17677 18.2374 4.46967 18.5303C4.76256 18.8232 5.23743 18.8232 5.53033 18.5303L11.5303 12.5303C11.8232 12.2374 11.8232 11.7626 11.5303 11.4697L5.53033 5.46967C5.23743 5.17678 4.76256 5.17678 4.46967 5.46967C4.17677 5.76256 4.17677 6.23744 4.46967 6.53033L9.93934 12L4.46967 17.4697Z" fill="#18202A"/>
</svg>
