<svg width="24" height="24" viewBox="0 0 24 24" fill="none" xmlns="http://www.w3.org/2000/svg">
<path fill-rule="evenodd" clip-rule="evenodd" d="M15.4142 3.49998C14.7843 2.87001 13.7071 3.31618 13.7071 4.20708V7.50578C10.9939 7.56928 8.08546 8.16664 5.80164 9.92915C3.35247 11.8193 1.70712 14.9819 1.70712 20C1.70712 20.2256 1.85824 20.4233 2.07598 20.4825C2.29372 20.5417 2.52411 20.4477 2.63833 20.2531C3.98166 17.9644 5.04829 16.571 6.64341 15.7156C8.17916 14.8921 10.2693 14.5331 13.7071 14.5022V17.7929C13.7071 18.6838 14.7843 19.1299 15.4142 18.5L22.2071 11.7071C22.5976 11.3166 22.5976 10.6834 22.2071 10.2929L15.4142 3.49998Z" fill="#18202A"/>
</svg>
