<svg width="24" height="24" viewBox="0 0 24 24" fill="none" xmlns="http://www.w3.org/2000/svg">
<path fill-rule="evenodd" clip-rule="evenodd" d="M15.3454 1.35506C14.91 1.122 14.4237 1 13.9299 1H10.0699C9.57601 1 9.08979 1.122 8.65437 1.35506C8.21896 1.58812 7.84781 1.92507 7.57388 2.336L6.76188 3.555C6.67053 3.69192 6.5468 3.80417 6.40166 3.88179C6.25661 3.95938 6.09467 3.99998 5.93018 4L5.78311 4.00462C3.12231 4.11818 1 6.31125 1 9V17C1 19.7614 3.23858 22 6 22H18C20.7614 22 23 19.7614 23 17V9C23 6.23858 20.7614 4 18 4H18.0696C17.9051 3.99998 17.7431 3.95938 17.5981 3.88179C17.453 3.80417 17.3292 3.69192 17.2379 3.555L16.4259 2.336C16.1519 1.92507 15.7808 1.58812 15.3454 1.35506ZM10.0699 2.5H13.9299L14.0774 2.50728C14.2729 2.52662 14.4634 2.5843 14.6375 2.67752C14.8552 2.79404 15.0408 2.96254 15.1779 3.16814L15.9895 4.38658L16.1105 4.55279C16.3229 4.82078 16.5882 5.04268 16.8906 5.20444L17.0752 5.29368C17.3256 5.40229 17.5923 5.46914 17.8645 5.49156L18 5.5L18.192 5.50518C20.0357 5.60487 21.5 7.13145 21.5 9V17L21.4948 17.192C21.3951 19.0357 19.8685 20.5 18 20.5H6L5.80797 20.4948C3.96429 20.3951 2.5 18.8685 2.5 17V9L2.50518 8.80797C2.60487 6.96428 4.13144 5.5 6 5.496L6.1353 5.49156C6.47542 5.46354 6.80697 5.3661 7.10917 5.20445C7.47192 5.01045 7.78128 4.72981 8.00966 4.38749L8.82227 3.16758L8.91001 3.04906C9.03447 2.89722 9.18807 2.77075 9.36224 2.67752C9.57998 2.56098 9.82306 2.5 10.0699 2.5ZM8.96486 9.77503C9.73707 8.98731 10.811 8.5 12 8.5C13.8558 8.5 15.4338 9.68948 16.0132 11.3476L14.8939 11.5075C14.5936 11.5504 14.3488 11.77 14.2735 12.0639C14.1982 12.3577 14.3073 12.668 14.55 12.85L16.55 14.35C16.8814 14.5985 17.3515 14.5314 17.6 14.2L19.1 12.2C19.282 11.9573 19.2999 11.6289 19.1454 11.3679C18.9908 11.1069 18.6942 10.9646 18.3939 11.0075L17.5194 11.1325C16.8206 8.74432 14.614 7 12 7C10.3917 7 8.93642 7.66132 7.89371 8.72497C7.60374 9.02076 7.60846 9.49561 7.90425 9.78557C8.20004 10.0755 8.67489 10.0708 8.96486 9.77503ZM7.45 11.15C7.11863 10.9015 6.64853 10.9686 6.4 11.3L4.9 13.3C4.71799 13.5427 4.70009 13.8711 4.85465 14.1321C5.0092 14.3931 5.30577 14.5354 5.60607 14.4925L6.48064 14.3675C7.17937 16.7557 9.38598 18.5 12 18.5C13.6083 18.5 15.0636 17.8387 16.1063 16.775C16.3963 16.4792 16.3915 16.0044 16.0958 15.7144C15.8 15.4245 15.3251 15.4292 15.0351 15.725C14.2629 16.5127 13.1891 17 12 17C10.1442 17 8.56618 15.8105 7.98681 14.1524L9.10607 13.9925C9.40637 13.9496 9.65125 13.73 9.72654 13.4361C9.80182 13.1423 9.69268 12.832 9.45 12.65L7.45 11.15Z" fill="#18202A"/>
</svg>
