<svg width="24" height="24" viewBox="0 0 24 24" fill="none" xmlns="http://www.w3.org/2000/svg">
<path fill-rule="evenodd" clip-rule="evenodd" d="M12.75 2.5V9.75C12.75 10.5784 13.4216 11.25 14.25 11.25H21.5C22.3284 11.25 23 10.5784 23 9.75V6C23 3.23858 20.7614 1 18 1H14.25C13.4216 1 12.75 1.67157 12.75 2.5ZM11.25 2.5C11.25 1.67157 10.5784 1 9.75 1H6C3.23858 1 1 3.23858 1 6V18C1 20.7614 3.23858 23 6 23H9.75C10.5784 23 11.25 22.3284 11.25 21.5V2.5ZM12.75 14.25V21.5C12.75 22.3284 13.4216 23 14.25 23H18C20.7614 23 23 20.7614 23 18V14.25C23 13.4216 22.3284 12.75 21.5 12.75H14.25C13.4216 12.75 12.75 13.4216 12.75 14.25ZM14.25 21.5H18C19.933 21.5 21.5 19.933 21.5 18V14.25H14.25V21.5ZM14.25 9.75H21.5V6C21.5 4.067 19.933 2.5 18 2.5H14.25V9.75ZM9.75 2.5H6C4.067 2.5 2.5 4.067 2.5 6V18C2.5 19.933 4.067 21.5 6 21.5H9.75V2.5Z" fill="#18202A"/>
</svg>
