<svg width="24" height="24" viewBox="0 0 24 24" fill="none" xmlns="http://www.w3.org/2000/svg">
<path d="M16.5172 8.4569C16.8172 8.74256 16.8288 9.21729 16.5431 9.51724L10.8288 15.5172C10.6825 15.6708 10.4781 15.7553 10.2661 15.7497C10.0541 15.7442 9.8543 15.6491 9.71627 15.4881L7.43056 12.8214C7.16099 12.5069 7.19741 12.0335 7.51191 11.7639C7.8264 11.4943 8.29988 11.5307 8.56944 11.8452L10.315 13.8817L15.4569 8.48276C15.7426 8.18281 16.2173 8.17123 16.5172 8.4569Z" fill="#18202A"/>
<path fill-rule="evenodd" clip-rule="evenodd" d="M4 2C2.89543 2 2 2.89543 2 4V20C2 21.1046 2.89543 22 4 22H20C21.1046 22 22 21.1046 22 20V4C22 2.89543 21.1046 2 20 2H4ZM20.5 4C20.5 3.72386 20.2761 3.5 20 3.5H4C3.72386 3.5 3.5 3.72386 3.5 4V20C3.5 20.2761 3.72386 20.5 4 20.5H20C20.2761 20.5 20.5 20.2761 20.5 20V4Z" fill="#18202A"/>
</svg>
