<svg width="24" height="24" viewBox="0 0 24 24" fill="none" xmlns="http://www.w3.org/2000/svg">
<path fill-rule="evenodd" clip-rule="evenodd" d="M2.96967 0.46967C3.26256 0.176777 3.73744 0.176777 4.03033 0.46967L6.03033 2.46967C6.32322 2.76256 6.32322 3.23744 6.03033 3.53033C5.73744 3.82322 5.26256 3.82322 4.96967 3.53033L4.25 2.81066V6C4.25 6.41421 3.91421 6.75 3.5 6.75C3.08579 6.75 2.75 6.41421 2.75 6V2.81066L2.03033 3.53033C1.73744 3.82322 1.26256 3.82322 0.96967 3.53033C0.676777 3.23744 0.676777 2.76256 0.96967 2.46967L2.96967 0.46967ZM5.08356 13.2573C4.64753 12.8107 4.18807 12.361 3.68543 11.9486C4.64807 11.038 5.45469 10.0555 6.15134 9.20696L6.15138 9.20691L6.15139 9.20689L6.15151 9.20674L6.15154 9.2067C6.34182 8.97494 6.52388 8.75318 6.69868 8.5456C7.19608 7.95494 7.62231 7.49179 8.025 7.17636C8.42311 6.8645 8.73178 6.75 9 6.75C9.52293 6.75 9.74494 6.89801 10.0808 7.12193L10.084 7.12404C10.4963 7.39894 11.0246 7.75 12 7.75C12.9754 7.75 13.5037 7.39894 13.916 7.12404L13.9192 7.12193C14.2551 6.89801 14.4771 6.75 15 6.75C15.2682 6.75 15.5769 6.8645 15.975 7.17636C16.3777 7.49179 16.8039 7.95494 17.3013 8.5456C17.4762 8.75323 17.6583 8.97507 17.8486 9.20689C18.5453 10.0555 19.3519 11.038 20.3146 11.9486C19.8119 12.361 19.3525 12.8107 18.9164 13.2573C18.7313 13.447 18.5521 13.6342 18.3755 13.8187L18.3751 13.819C17.9167 14.2979 17.4758 14.7584 16.9955 15.195C15.7082 16.3653 14.255 17.25 12 17.25C9.74501 17.25 8.29184 16.3653 7.0045 15.195C6.52418 14.7584 6.08329 14.2979 5.6249 13.8191L5.62488 13.819L5.62464 13.8188C5.44796 13.6343 5.26869 13.447 5.08356 13.2573ZM9 5.25C8.26822 5.25 7.63939 5.573 7.1 5.99552C6.56518 6.41446 6.05392 6.98256 5.55132 7.5794C5.35577 7.81161 5.15921 8.05069 4.95933 8.29381C4.10153 9.33715 3.18253 10.4549 2.01986 11.4238C1.83808 11.5753 1.73845 11.8037 1.75107 12.04C1.76369 12.2763 1.88709 12.4928 2.08397 12.624C2.76617 13.0788 3.37785 13.6574 4.01019 14.3052C4.17298 14.4719 4.33888 14.6452 4.50798 14.8218L4.50807 14.8219L4.5081 14.822C4.97851 15.3133 5.47366 15.8306 5.99549 16.305C7.45816 17.6347 9.25499 18.75 12 18.75C14.745 18.75 16.5418 17.6347 18.0045 16.305C18.5263 15.8306 19.0214 15.3134 19.4917 14.8221L19.4918 14.8221L19.4919 14.822L19.4919 14.8219L19.492 14.8218L19.4927 14.8211L19.493 14.8208C19.6618 14.6445 19.8273 14.4716 19.9898 14.3052C20.6222 13.6574 21.2338 13.0788 21.916 12.624C22.1129 12.4928 22.2363 12.2763 22.2489 12.04C22.2616 11.8037 22.1619 11.5753 21.9801 11.4238C20.8175 10.4549 19.8985 9.33715 19.0407 8.2938C18.8408 8.05068 18.6442 7.81161 18.4487 7.5794C17.9461 6.98256 17.4348 6.41446 16.9 5.99552C16.3606 5.573 15.7318 5.25 15 5.25C14.0246 5.25 13.4963 5.60106 13.084 5.87596L13.0808 5.87807C12.7449 6.10199 12.5229 6.25 12 6.25C11.4771 6.25 11.2551 6.10199 10.9192 5.87807L10.916 5.87596C10.5037 5.60106 9.97544 5.25 9 5.25ZM8.64709 11.2647C8.24092 11.1835 7.8458 11.4469 7.76457 11.8531C7.68334 12.2592 7.94675 12.6543 8.35292 12.7356C10.95 13.255 13.05 13.255 15.6471 12.7356C16.0533 12.6543 16.3167 12.2592 16.2354 11.8531C16.1542 11.4469 15.7591 11.1835 15.3529 11.2647C12.95 11.7453 11.05 11.7453 8.64709 11.2647ZM17.9697 21.5303L19.9697 23.5303C20.2626 23.8232 20.7374 23.8232 21.0303 23.5303L23.0303 21.5303C23.3232 21.2374 23.3232 20.7626 23.0303 20.4697C22.7374 20.1768 22.2626 20.1768 21.9697 20.4697L21.25 21.1893V18C21.25 17.5858 20.9142 17.25 20.5 17.25C20.0858 17.25 19.75 17.5858 19.75 18V21.1893L19.0303 20.4697C18.7374 20.1768 18.2626 20.1768 17.9697 20.4697C17.6768 20.7626 17.6768 21.2374 17.9697 21.5303Z" fill="#26282C"/>
</svg>
