<svg width="24" height="24" viewBox="0 0 24 24" fill="none" xmlns="http://www.w3.org/2000/svg">
<path fill-rule="evenodd" clip-rule="evenodd" d="M6 1.75C6 1.33579 6.33579 1 6.75 1C7.16421 1 7.5 1.33579 7.5 1.75V3H16.5V1.75C16.5 1.33579 16.8358 1 17.25 1C17.6642 1 18 1.33579 18 1.75V3H19C21.2091 3 23 4.79086 23 7V12.4097C22.5463 12.0037 22.0429 11.652 21.5 11.365V7C21.5 5.61929 20.3807 4.5 19 4.5H18V6.25C18 6.66421 17.6642 7 17.25 7C16.8358 7 16.5 6.66421 16.5 6.25V4.5H7.5V6.25C7.5 6.66421 7.16421 7 6.75 7C6.33579 7 6 6.66421 6 6.25V4.5H5C3.61929 4.5 2.5 5.61929 2.5 7V19C2.5 20.3807 3.61929 21.5 5 21.5H11.365C11.652 22.0429 12.0037 22.5463 12.4097 23H5C2.79086 23 1 21.2091 1 19V7C1 4.79086 2.79086 3 5 3H6V1.75ZM18.25 10.5H18H5.75C5.33579 10.5 5 10.1642 5 9.75C5 9.33579 5.33579 9 5.75 9H18.25C18.6642 9 19 9.33579 19 9.75C19 10.1642 18.6642 10.5 18.25 10.5ZM10.5 18C10.5 17.7168 10.5157 17.4373 10.5463 17.1622C10.3892 17.0596 10.2016 17 10 17C9.44772 17 9 17.4477 9 18C9 18.5523 9.44772 19 10 19C10.2016 19 10.3892 18.9404 10.5463 18.8378C10.5157 18.5627 10.5 18.2832 10.5 18ZM6 13C5.44772 13 5 13.4477 5 14C5 14.5523 5.44772 15 6 15C6.55228 15 7 14.5523 7 14C7 13.4477 6.55228 13 6 13ZM5 18C5 17.4477 5.44772 17 6 17C6.55228 17 7 17.4477 7 18C7 18.5523 6.55228 19 6 19C5.44772 19 5 18.5523 5 18ZM10 13C9.44772 13 9 13.4477 9 14C9 14.5523 9.44772 15 10 15C10.5523 15 11 14.5523 11 14C11 13.4477 10.5523 13 10 13ZM24 18C24 21.3137 21.3137 24 18 24C14.6863 24 12 21.3137 12 18C12 14.6863 14.6863 12 18 12C21.3137 12 24 14.6863 24 18ZM18 14.75C18.4142 14.75 18.75 15.0858 18.75 15.5V17.6893L20.0303 18.9697C20.3232 19.2626 20.3232 19.7374 20.0303 20.0303C19.7374 20.3232 19.2626 20.3232 18.9697 20.0303L17.4697 18.5303C17.329 18.3897 17.25 18.1989 17.25 18V15.5C17.25 15.0858 17.5858 14.75 18 14.75Z" fill="#18202A"/>
</svg>
