<svg width="24" height="24" viewBox="0 0 24 24" fill="none" xmlns="http://www.w3.org/2000/svg">
<path d="M2 2.75C2 2.33579 2.33579 2 2.75 2H21.25C21.6642 2 22 2.33579 22 2.75C22 3.16421 21.6642 3.5 21.25 3.5H2.75C2.33579 3.5 2 3.16421 2 2.75Z" fill="#18202A"/>
<path d="M2 21.25C2 20.8358 2.33579 20.5 2.75 20.5H21.25C21.6642 20.5 22 20.8358 22 21.25C22 21.6642 21.6642 22 21.25 22H2.75C2.33579 22 2 21.6642 2 21.25Z" fill="#18202A"/>
<path fill-rule="evenodd" clip-rule="evenodd" d="M1 8C1 6.34315 2.34315 5 4 5H20C21.6569 5 23 6.34315 23 8V16C23 17.6569 21.6569 19 20 19H4C2.34315 19 1 17.6569 1 16V8ZM4 6.5H20C20.8284 6.5 21.5 7.17157 21.5 8V16C21.5 16.8284 20.8284 17.5 20 17.5H4C3.17157 17.5 2.5 16.8284 2.5 16V8C2.5 7.17157 3.17157 6.5 4 6.5Z" fill="#18202A"/>
</svg>
