<svg width="24" height="24" viewBox="0 0 24 24" fill="none" xmlns="http://www.w3.org/2000/svg">
<path fill-rule="evenodd" clip-rule="evenodd" d="M12 2C9.79086 2 8 3.79086 8 6V11C8 13.2091 9.79086 15 12 15C14.2091 15 16 13.2091 16 11V6C16 3.79086 14.2091 2 12 2ZM12 13.5C13.3807 13.5 14.5 12.3807 14.5 11V6C14.5 4.61929 13.3807 3.5 12 3.5C10.6193 3.5 9.5 4.61929 9.5 6V11C9.5 12.3807 10.6193 13.5 12 13.5Z" fill="#18202A"/>
<path d="M5.71423 11C5.30001 11 4.96001 11.3369 5.00381 11.7488C5.35256 15.0282 7.96588 17.6312 11.25 17.964V20.5H8.25C7.83579 20.5 7.5 20.8358 7.5 21.25C7.5 21.6642 7.83579 22 8.25 22H15.75C16.1642 22 16.5 21.6642 16.5 21.25C16.5 20.8358 16.1642 20.5 15.75 20.5H12.75V17.9564C16.0005 17.5933 18.5784 15.0044 18.9246 11.7488C18.9684 11.3369 18.6284 11 18.2142 11C17.8 11 17.4696 11.3376 17.4138 11.7481C17.0488 14.4318 14.7481 16.5 11.9642 16.5C9.1804 16.5 6.87963 14.4318 6.51467 11.7481C6.45886 11.3376 6.12844 11 5.71423 11Z" fill="#18202A"/>
</svg>
