<svg width="24" height="24" viewBox="0 0 24 24" fill="none" xmlns="http://www.w3.org/2000/svg">
<g clip-path="url(#clip0_3611_8774)">
<path fill-rule="evenodd" clip-rule="evenodd" d="M10 6.5C10 8.08551 8.94574 9.42479 7.5 9.85506V13.25C7.5 15.0449 8.95507 16.5 10.75 16.5H14.1449C14.5752 15.0543 15.9145 14 17.5 14C19.433 14 21 15.567 21 17.5C21 19.433 19.433 21 17.5 21C15.7368 21 14.2781 19.6962 14.0354 18H10.75C8.12665 18 6 15.8734 6 13.25V9.96456C4.30385 9.72194 3 8.26324 3 6.5C3 4.567 4.567 3 6.5 3C8.433 3 10 4.567 10 6.5ZM8.5 6.5C8.5 7.60457 7.60457 8.5 6.5 8.5C5.39543 8.5 4.5 7.60457 4.5 6.5C4.5 5.39543 5.39543 4.5 6.5 4.5C7.60457 4.5 8.5 5.39543 8.5 6.5ZM19.5 17.5C19.5 18.6046 18.6046 19.5 17.5 19.5C16.3954 19.5 15.5 18.6046 15.5 17.5C15.5 16.3954 16.3954 15.5 17.5 15.5C18.6046 15.5 19.5 16.3954 19.5 17.5Z" fill="#18202A"/>
<path d="M18.25 3.75C18.25 3.33579 17.9142 3 17.5 3C17.0858 3 16.75 3.33579 16.75 3.75V5.75H14.75C14.3358 5.75 14 6.08579 14 6.5C14 6.91421 14.3358 7.25 14.75 7.25H16.75V9.25C16.75 9.66421 17.0858 10 17.5 10C17.9142 10 18.25 9.66421 18.25 9.25V7.25H20.25C20.6642 7.25 21 6.91421 21 6.5C21 6.08579 20.6642 5.75 20.25 5.75H18.25V3.75Z" fill="#18202A"/>
</g>
<defs>
<clipPath id="clip0_3611_8774">
<rect width="24" height="24" fill="white"/>
</clipPath>
</defs>
</svg>
