<svg width="24" height="24" viewBox="0 0 24 24" fill="none" xmlns="http://www.w3.org/2000/svg">
<path fill-rule="evenodd" clip-rule="evenodd" d="M17 4H6C4.34315 4 3 5.34315 3 7V16C3 17.6569 4.34315 19 6 19H10C10.5523 19 11 19.4477 11 20C11 20.5523 10.5523 21 10 21H6C3.23858 21 1 18.7614 1 16V7C1 4.23858 3.23858 2 6 2H17C19.7614 2 22 4.23858 22 7V9C22 9.55228 21.5523 10 21 10C20.4477 10 20 9.55228 20 9V7C20 5.34315 18.6569 4 17 4ZM13 15C13 13.3431 14.3431 12 16 12H20C21.6569 12 23 13.3431 23 15V19C23 20.6569 21.6569 22 20 22H16C14.3431 22 13 20.6569 13 19V15Z" fill="#18202A"/>
</svg>
