<svg width="24" height="24" viewBox="0 0 24 24" fill="none" xmlns="http://www.w3.org/2000/svg">
<path fill-rule="evenodd" clip-rule="evenodd" d="M2.52045 11.6396V11.6909C2.52045 14.6802 3.69882 16.9238 5.5153 18.3954L6.0127 18.7984L6.21666 21.2459L8.76429 20.0701L9.26823 20.1894C9.82264 20.3206 10.4015 20.4116 11 20.4598V21C11 21.3353 11.0413 21.6609 11.119 21.9721C10.3627 21.9245 9.62799 21.816 8.92267 21.649L6.19676 22.9071C5.56647 23.198 4.8388 22.774 4.78115 22.0822L4.57105 19.561C2.38822 17.7925 1.02045 15.1132 1.02045 11.6909C0.628009 5.96364 5.94074 1 12.0102 1C18.0797 1 23 5.2 23 11.6909C23 12.3541 22.9368 13.0076 22.814 13.6442C22.574 12.7905 22.1131 12.0293 21.4969 11.4262C21.3674 6.006 17.2614 2.5 12.0102 2.5C6.64591 2.5 2.19452 6.883 2.51694 11.5884L2.52045 11.6396ZM21 15.5C22.1046 15.5 23 16.3954 23 17.5V21C23 22.1046 22.1046 23 21 23H15C13.8954 23 13 22.1046 13 21V17.5C13 16.3954 13.8954 15.5 15 15.5V15C15 13.3431 16.3431 12 18 12C19.6569 12 21 13.3431 21 15V15.5ZM20 15C20 13.8954 19.1046 13 18 13C16.8954 13 16 13.8954 16 15V15.5H20V15ZM19 18.5C19 18.8701 18.7989 19.1933 18.5 19.3662V20.5C18.5 20.7761 18.2761 21 18 21C17.7239 21 17.5 20.7761 17.5 20.5V19.3662C17.2011 19.1933 17 18.8701 17 18.5C17 17.9477 17.4477 17.5 18 17.5C18.5523 17.5 19 17.9477 19 18.5Z" fill="#18202A"/>
</svg>
