<svg width="24" height="24" viewBox="0 0 24 24" fill="none" xmlns="http://www.w3.org/2000/svg">
<path d="M1 8.99976C1 7.89519 1.89543 6.99976 3 6.99976H5C6.10457 6.99976 7 7.89519 7 8.99976V19.9998C7 21.1043 6.10457 21.9998 5 21.9998H3C1.89543 21.9998 1 21.1043 1 19.9998V8.99976Z" fill="#18202A"/>
<path d="M17 4.49983C17 2.63659 15.977 1.34258 13.9067 1.05856C13.4094 0.990345 13 1.25107 13 1.75298C13 3.7991 12.7924 6.11451 11.4336 7.64433C11.0082 8.12326 10.5321 8.52413 10.0343 8.76283C9.53633 9.00162 9.07141 9.44755 9.07141 9.99983L9.07141 18.9998C9.07141 19.5521 9.51913 19.9998 10.0714 19.9998H18.1459C19.2822 19.9998 20.321 19.3578 20.8292 18.3415L20.8885 18.2227C22.2771 15.4456 23 12.3834 23 9.27847V8.99983C23 7.89526 22.1046 6.99983 21 6.99983H17.5C16.9477 6.99983 16.6614 6.5849 16.8119 6.05352C16.9132 5.69606 17 5.20567 17 4.49983Z" fill="#18202A"/>
<path fill-rule="evenodd" clip-rule="evenodd" d="M12.9732 0.787223C13.2637 0.576373 13.6275 0.515495 13.9746 0.563113C15.1011 0.717652 15.9959 1.15584 16.6071 1.85887C17.2177 2.56131 17.5 3.47627 17.5 4.49974C17.5 5.24869 17.4076 5.78513 17.293 6.18972C17.2492 6.34443 17.2851 6.41546 17.299 6.43483C17.3094 6.44932 17.3525 6.49974 17.5 6.49974H21C22.3807 6.49974 23.5 7.61903 23.5 8.99974V9.27838C23.5 12.4609 22.759 15.5997 21.3358 18.4463L21.2764 18.565C20.6835 19.7507 19.4716 20.4997 18.1459 20.4997H10.0714C9.24299 20.4997 8.57142 19.8282 8.57141 18.9997L8.57141 9.99974C8.57141 9.15636 9.25834 8.58032 9.81814 8.31189C10.2364 8.11135 10.6613 7.76084 11.0598 7.3122C12.2804 5.93789 12.5 3.8045 12.5 1.75289C12.5 1.35311 12.6702 1.00714 12.9732 0.787223ZM13.5205 1.6435C13.5112 1.66243 13.5 1.69635 13.5 1.75289C13.5 3.79352 13.3043 6.29095 11.8074 7.97628C11.3551 8.4855 10.8279 8.93674 10.2505 9.21359C9.81431 9.42275 9.57141 9.73856 9.57141 9.99974L9.57141 18.9997C9.57141 19.2759 9.79527 19.4997 10.0714 19.4997H18.1459C19.0928 19.4997 19.9585 18.9647 20.382 18.1178L20.4413 17.999C21.7952 15.2914 22.5 12.3057 22.5 9.27838V8.99974C22.5 8.17131 21.8284 7.49974 21 7.49974H17.5C17.0953 7.49974 16.7191 7.3427 16.4858 7.01688C16.2561 6.69594 16.2242 6.29382 16.3309 5.91715C16.4188 5.60681 16.5 5.16249 16.5 4.49974C16.5 3.65997 16.2708 2.99631 15.8524 2.51493C15.4344 2.03414 14.7826 1.68332 13.8387 1.55383C13.6886 1.53323 13.599 1.56861 13.5606 1.59655C13.5422 1.6099 13.5296 1.62493 13.5205 1.6435Z" fill="#18202A"/>
</svg>
