<svg width="24" height="24" viewBox="0 0 24 24" fill="none" xmlns="http://www.w3.org/2000/svg">
<path fill-rule="evenodd" clip-rule="evenodd" d="M2.5 12C2.5 17.2467 6.75329 21.5 12 21.5C17.2467 21.5 21.5 17.2467 21.5 12C21.5 6.75329 17.2467 2.5 12 2.5C6.75329 2.5 2.5 6.75329 2.5 12ZM1 12C1 18.0751 5.92487 23 12 23C18.0751 23 23 18.0751 23 12C23 5.92487 18.0751 1 12 1C5.92487 1 1 5.92487 1 12Z" fill="#18202A"/>
<path fill-rule="evenodd" clip-rule="evenodd" d="M16.5303 12.4697C16.8232 12.7626 16.8232 13.2374 16.5303 13.5303L12.5303 17.5303C12.2374 17.8232 11.7626 17.8232 11.4697 17.5303L7.46967 13.5303C7.17678 13.2374 7.17678 12.7626 7.46967 12.4697C7.76256 12.1768 8.23744 12.1768 8.53033 12.4697L11.25 15.1893V7C11.25 6.58579 11.5858 6.25 12 6.25C12.4142 6.25 12.75 6.58579 12.75 7V15.1893L15.4697 12.4697C15.7626 12.1768 16.2374 12.1768 16.5303 12.4697Z" fill="#18202A"/>
</svg>
