<svg width="24" height="24" viewBox="0 0 24 24" fill="none" xmlns="http://www.w3.org/2000/svg">
<path fill-rule="evenodd" clip-rule="evenodd" d="M17.264 2.67136C17.9479 1.99107 19.0534 1.99255 19.7355 2.67467L21.3251 4.26424C22.0072 4.94637 22.0087 6.05185 21.3284 6.7358L13.7575 14.3474C13.6443 14.4612 13.4977 14.5357 13.339 14.5599L10.5644 14.984C9.65789 15.1226 8.87723 14.3419 9.01578 13.4354L9.43986 10.6607C9.4641 10.5021 9.53858 10.3555 9.65234 10.2423L17.264 2.67136ZM18.6749 3.73533C18.5774 3.63789 18.4195 3.63767 18.3218 3.73486L17.5566 4.49598L19.5038 6.44319L20.2649 5.67798C20.3621 5.58028 20.3619 5.42235 20.2644 5.3249L18.6749 3.73533ZM18.446 7.5067L16.4931 5.5538L10.8853 11.1316L10.5276 13.4722L12.8682 13.1145L18.446 7.5067Z" fill="#18202A"/>
<path d="M12 4.75C12 4.33579 11.6642 4 11.25 4H5C3.34315 4 2 5.34315 2 7V19C2 20.6569 3.34315 22 5 22H17C18.6569 22 20 20.6569 20 19V12.75C20 12.3358 19.6642 12 19.25 12C18.8358 12 18.5 12.3358 18.5 12.75V19C18.5 19.8284 17.8284 20.5 17 20.5H5C4.17157 20.5 3.5 19.8284 3.5 19V7C3.5 6.17157 4.17157 5.5 5 5.5H11.25C11.6642 5.5 12 5.16421 12 4.75Z" fill="#18202A"/>
</svg>
