<svg width="24" height="24" viewBox="0 0 24 24" fill="none" xmlns="http://www.w3.org/2000/svg">
<path d="M23 5C23 7.20914 21.2091 9 19 9C16.7909 9 15 7.20914 15 5C15 2.79086 16.7909 1 19 1C21.2091 1 23 2.79086 23 5Z" fill="#18202A"/>
<path d="M12.1611 3.5C12.2756 2.97561 12.4488 2.4732 12.6736 2H5C2.79086 2 1 3.79086 1 6V15C1 16.8773 2.29322 18.4525 4.03739 18.8834C4.34572 18.9596 4.66814 19 5 19H5.54545L4.96564 21.773C4.7875 22.625 5.70741 23.2821 6.45554 22.8372L12.9091 19H19C21.2091 19 23 17.2091 23 15V10.7453C22.5377 11.0678 22.0346 11.3359 21.5 11.5404V15C21.5 16.3807 20.3807 17.5 19 17.5H12.9091C12.6393 17.5 12.3744 17.5728 12.1425 17.7107L6.6667 20.9666L7.0137 19.307C7.10615 18.8649 6.99444 18.4046 6.70961 18.0541C6.42477 17.7035 5.99714 17.5 5.54545 17.5H5C3.61929 17.5 2.5 16.3807 2.5 15V6C2.5 4.61929 3.61929 3.5 5 3.5H12.1611Z" fill="#18202A"/>
</svg>
