<svg width="24" height="24" viewBox="0 0 24 24" fill="none" xmlns="http://www.w3.org/2000/svg">
<g clip-path="url(#clip0_2266_31354)">
<path d="M10.3454 0.371028C11.5444 0.194987 12.7434 0.210991 13.9423 0.419039C15.1413 0.627087 16.2764 1.00317 17.3474 1.5473C17.5233 1.64332 17.6432 1.79535 17.7071 2.0034C17.7711 2.19545 17.7551 2.37949 17.6592 2.55553C17.5633 2.73157 17.4194 2.8596 17.2276 2.93962C17.0357 3.00363 16.8439 2.98763 16.652 2.89161C15.7248 2.4115 14.7337 2.08342 13.6786 1.90738C12.6395 1.73134 11.5923 1.72334 10.5372 1.88337C9.49813 2.02741 8.49898 2.33148 7.5398 2.79558C6.5966 3.24369 5.74133 3.82782 4.97398 4.54799C4.8301 4.69202 4.65425 4.76404 4.44643 4.76404C4.23861 4.74803 4.06275 4.66802 3.91888 4.52398C3.775 4.37995 3.70306 4.20391 3.70306 3.99586C3.71905 3.78781 3.79898 3.61177 3.94286 3.46774C4.82211 2.63555 5.80527 1.95539 6.89235 1.42727C7.97942 0.899149 9.13044 0.547068 10.3454 0.371028ZM3.29541 5.26815C3.47126 5.39618 3.57517 5.56422 3.60714 5.77227C3.63912 5.96431 3.59915 6.14035 3.48724 6.30039C2.73588 7.45266 2.22432 8.69294 1.95255 10.0212C1.68078 11.3496 1.68078 12.6859 1.95255 14.0302C2.00051 14.2382 1.96854 14.4303 1.85663 14.6063C1.74473 14.7823 1.58486 14.8864 1.37704 14.9184C1.16922 14.9504 0.977381 14.9184 0.801531 14.8223C0.641667 14.7103 0.537755 14.5503 0.489796 14.3422C0.170068 12.7899 0.170068 11.2535 0.489796 9.73318C0.809524 8.14882 1.39303 6.72449 2.24031 5.4602C2.3682 5.28416 2.52806 5.18013 2.7199 5.14813C2.92772 5.11612 3.11956 5.15613 3.29541 5.26815ZM19.4816 2.96362C19.3218 2.83559 19.1379 2.77958 18.9301 2.79558C18.7223 2.81159 18.5544 2.89961 18.4265 3.05965C18.2986 3.21968 18.2427 3.40372 18.2587 3.61177C18.2747 3.81982 18.3626 3.98786 18.5224 4.11589C19.4177 4.86806 20.169 5.74826 20.7765 6.75649C21.384 7.76473 21.7997 8.84497 22.0235 9.99724L22.0714 10.0933C22.1993 10.8614 22.2553 11.5736 22.2393 12.2298C22.2393 12.4378 22.3112 12.6138 22.4551 12.7579C22.599 12.9019 22.7748 12.9819 22.9827 12.9979C23.1905 12.9979 23.3663 12.9259 23.5102 12.7819C23.6541 12.6378 23.734 12.4618 23.75 12.2538C23.75 11.3415 23.6701 10.4854 23.5102 9.68517L23.4862 9.58915C23.2145 8.27684 22.7349 7.06057 22.0474 5.94031C21.36 4.80405 20.5048 3.81182 19.4816 2.96362ZM12.7434 11.8697C12.6954 11.6616 12.5835 11.5016 12.4077 11.3896C12.2478 11.2775 12.0639 11.2375 11.8561 11.2695C11.6483 11.3015 11.4884 11.4056 11.3765 11.5816C11.2646 11.7576 11.2247 11.9497 11.2566 12.1577C11.6243 13.9341 11.5764 15.7026 11.1128 17.463C10.6172 19.2554 9.77789 20.8157 8.5949 22.144C8.46701 22.3041 8.40306 22.4881 8.40306 22.6962C8.41905 22.9042 8.50697 23.0722 8.66684 23.2003C8.8267 23.3443 9.01054 23.4083 9.21837 23.3923C9.42619 23.3763 9.59405 23.2883 9.72194 23.1283C11.0648 21.6079 12.008 19.8475 12.5515 17.847C13.0791 15.9106 13.143 13.9181 12.7434 11.8697ZM11.3046 8.58091C11.8002 8.46889 12.2558 8.46089 12.6714 8.55691C13.135 8.62092 13.5587 8.78896 13.9423 9.06102C14.342 9.31708 14.6697 9.64516 14.9255 10.0453C15.1813 10.4293 15.3491 10.8534 15.4291 11.3175C15.7328 12.5818 15.8287 13.9421 15.7168 15.3985C15.6049 16.8228 15.3092 18.2391 14.8296 19.6475C14.35 21.0398 13.7265 22.3041 12.9592 23.4403C12.8473 23.6004 12.6874 23.6964 12.4796 23.7284C12.2878 23.7764 12.1039 23.7444 11.9281 23.6324C11.7522 23.5203 11.6483 23.3603 11.6163 23.1523C11.5844 22.9442 11.6243 22.7522 11.7362 22.5761C12.4396 21.5519 13.0071 20.4076 13.4388 19.1433C13.8704 17.863 14.1342 16.5828 14.2301 15.3025C14.326 13.9742 14.2381 12.7579 13.9663 11.6536V11.5816C13.9184 11.3095 13.8224 11.0695 13.6786 10.8614C13.5347 10.6374 13.3509 10.4533 13.127 10.3093C12.9192 10.1653 12.6714 10.0693 12.3837 10.0212C12.1119 9.97323 11.8561 9.98124 11.6163 10.0453H11.5923C11.3366 10.0933 11.0968 10.1893 10.873 10.3333C10.6491 10.4774 10.4653 10.6614 10.3214 10.8854C10.1776 11.0935 10.0816 11.3335 10.0337 11.6056C9.98571 11.8617 9.98571 12.1257 10.0337 12.3978C10.4014 14.1902 10.3054 15.9346 9.74592 17.631C9.17041 19.3914 8.2432 20.8637 6.96429 22.048C6.80442 22.192 6.62058 22.2561 6.41276 22.2401C6.20493 22.2401 6.03707 22.168 5.90918 22.024C5.78129 21.88 5.71735 21.6959 5.71735 21.4719C5.71735 21.2638 5.78929 21.0878 5.93316 20.9438C7.03622 19.9035 7.82755 18.6472 8.30714 17.1749C8.78673 15.6865 8.87466 14.1982 8.57092 12.7099C8.475 12.2778 8.46701 11.8217 8.54694 11.3415C8.64286 10.8614 8.81871 10.4373 9.07449 10.0693C9.36224 9.65316 9.68197 9.32508 10.0337 9.08503C10.4653 8.81297 10.8889 8.64493 11.3046 8.58091ZM7.49184 13.9581C7.47585 13.7501 7.38793 13.5821 7.22806 13.454C7.08418 13.31 6.90833 13.246 6.70051 13.262C6.49269 13.278 6.31684 13.366 6.17296 13.5261C6.02908 13.6701 5.96514 13.8461 5.98112 14.0542C6.04507 15.0304 5.8852 15.9826 5.50153 16.9108C5.11786 17.823 4.53435 18.5912 3.75102 19.2154C3.59116 19.3434 3.50323 19.5114 3.48724 19.7195C3.47126 19.9275 3.52721 20.1116 3.6551 20.2716C3.78299 20.4316 3.94286 20.5197 4.13469 20.5357C4.34252 20.5517 4.53435 20.4957 4.7102 20.3676C5.6534 19.5834 6.37279 18.6312 6.86837 17.511C7.36395 16.3907 7.57177 15.2064 7.49184 13.9581ZM11.6643 5.77227C12.4156 5.74026 13.143 5.83628 13.8464 6.06034C14.5658 6.26838 15.2213 6.60446 15.8128 7.06857C16.4202 7.53267 16.9158 8.0848 17.2995 8.72495C17.6992 9.34909 17.9709 10.0292 18.1148 10.7654C18.2747 11.5976 18.3786 12.3258 18.4265 12.9499C18.4425 13.158 18.3866 13.342 18.2587 13.502C18.1308 13.6621 17.9629 13.7501 17.7551 13.7661C17.5473 13.7821 17.3634 13.7261 17.2036 13.5981C17.0437 13.454 16.9558 13.278 16.9398 13.0699C16.8439 12.1737 16.748 11.5096 16.652 11.0775C16.5401 10.5174 16.3323 9.99724 16.0286 9.51713C15.7408 9.03702 15.3651 8.62092 14.9015 8.26884C14.4379 7.91676 13.9344 7.6607 13.3908 7.50067C12.8633 7.32463 12.3117 7.25261 11.7362 7.28462C11.1767 7.30062 10.6332 7.42065 10.1056 7.6447C9.57806 7.86875 9.10646 8.18082 8.69082 8.58091C8.29116 8.98101 7.96344 9.43711 7.70765 9.94923C7.46786 10.4613 7.32398 10.9975 7.27602 11.5576C7.24405 11.7656 7.14813 11.9337 6.98827 12.0617C6.84439 12.1897 6.66854 12.2458 6.46071 12.2298C6.25289 12.1977 6.08503 12.1097 5.95714 11.9657C5.82925 11.8057 5.7733 11.6216 5.78929 11.4136C5.85323 10.6774 6.04507 9.97323 6.3648 9.30108C6.70051 8.62893 7.14014 8.03679 7.68367 7.52467C8.22721 6.99655 8.84269 6.58046 9.5301 6.27639C10.2175 5.97232 10.9289 5.80428 11.6643 5.77227ZM18.4505 15.5425C18.4665 15.3345 18.4025 15.1584 18.2587 15.0144C18.1308 14.8544 17.9629 14.7663 17.7551 14.7503C17.5473 14.7343 17.3634 14.7983 17.2036 14.9424C17.0597 15.0864 16.9798 15.2624 16.9638 15.4705C16.8199 17.759 16.2524 19.9195 15.2612 21.952C15.1813 22.144 15.1733 22.3361 15.2372 22.5281C15.3012 22.7202 15.4211 22.8562 15.5969 22.9362C15.7888 23.0322 15.9806 23.0482 16.1724 22.9842C16.3803 22.9202 16.5242 22.7922 16.6041 22.6001C17.6912 20.4076 18.3066 18.0551 18.4505 15.5425ZM10.2015 3.92384C10.2655 4.13189 10.2495 4.32394 10.1536 4.49998C10.0577 4.67602 9.91378 4.79604 9.72194 4.86006C8.84269 5.14813 8.04337 5.58023 7.32398 6.15636C6.60459 6.73249 6.0131 7.42065 5.54949 8.22083C5.08588 9.00501 4.77415 9.8452 4.61429 10.7414C4.45442 11.6376 4.46241 12.5338 4.63827 13.43L4.66224 13.502C4.8381 14.3822 4.78214 15.2464 4.49439 16.0946C4.20663 16.9268 3.71905 17.623 3.03163 18.1831C2.87177 18.3112 2.68793 18.3752 2.4801 18.3752C2.27228 18.3592 2.10442 18.2711 1.97653 18.1111C1.84864 17.9511 1.78469 17.767 1.78469 17.559C1.80068 17.3509 1.88861 17.1749 2.04847 17.0309C2.51207 16.6628 2.85578 16.1747 3.07959 15.5665C3.25544 14.9904 3.29541 14.4223 3.19949 13.8621C3.19949 13.8301 3.1915 13.8061 3.17551 13.7901C2.9517 12.7019 2.93571 11.6136 3.12755 10.5254C3.31939 9.43711 3.69507 8.41288 4.25459 7.45265C4.81412 6.49243 5.52551 5.66824 6.38877 4.98009C7.25204 4.29193 8.21122 3.77981 9.26633 3.44373C9.45816 3.37972 9.64201 3.39572 9.81786 3.49175C10.0097 3.58777 10.1376 3.7318 10.2015 3.92384ZM12 3.25169C11.7922 3.25169 11.6163 3.32371 11.4724 3.46774C11.3286 3.61177 11.2566 3.78781 11.2566 3.99586C11.2566 4.20391 11.3286 4.38795 11.4724 4.54799C11.6163 4.69202 11.7922 4.76404 12 4.76404C12.8633 4.76404 13.7025 4.90807 14.5179 5.19614C15.3332 5.4842 16.0765 5.9003 16.748 6.44442C17.4194 6.98855 17.9709 7.6367 18.4025 8.38887C18.8502 9.12504 19.1619 9.91722 19.3378 10.7654V10.7894C19.6415 12.2938 19.7694 13.8061 19.7214 15.3265C19.6895 16.8468 19.4736 18.3432 19.074 19.8155C19.01 20.0235 19.026 20.2156 19.1219 20.3916C19.2338 20.5677 19.3937 20.6797 19.6015 20.7277C19.8094 20.7917 20.0012 20.7677 20.177 20.6557C20.3529 20.5597 20.4648 20.4076 20.5128 20.1996C20.9284 18.5992 21.1602 16.9828 21.2082 15.3505C21.2721 13.7021 21.1362 12.0777 20.8005 10.4774C20.5927 9.45311 20.217 8.5009 19.6735 7.62069C19.1459 6.72449 18.4825 5.94831 17.6832 5.29216C16.8998 4.63601 16.0126 4.13189 15.0214 3.77981C14.0463 3.42773 13.0391 3.25169 12 3.25169Z" fill="#18202A"/>
</g>
<defs>
<clipPath id="clip0_2266_31354">
<rect width="24" height="24" fill="white"/>
</clipPath>
</defs>
</svg>
