<svg width="24" height="24" viewBox="0 0 24 24" fill="none" xmlns="http://www.w3.org/2000/svg">
<path fill-rule="evenodd" clip-rule="evenodd" d="M21.5 12C21.5 6.75329 17.2467 2.5 12 2.5C6.75329 2.5 2.5 6.75329 2.5 12C2.5 17.2467 6.75329 21.5 12 21.5C17.2467 21.5 21.5 17.2467 21.5 12ZM23 12C23 5.92487 18.0751 1 12 1C5.92487 1 1 5.92487 1 12C1 18.0751 5.92487 23 12 23C18.0751 23 23 18.0751 23 12Z" fill="#18202A"/>
<path fill-rule="evenodd" clip-rule="evenodd" d="M7.46967 13.5303C7.17678 13.2374 7.17678 12.7626 7.46967 12.4697L11.4697 8.46967C11.7626 8.17678 12.2374 8.17678 12.5303 8.46967L16.5303 12.4697C16.8232 12.7626 16.8232 13.2374 16.5303 13.5303C16.2374 13.8232 15.7626 13.8232 15.4697 13.5303L12 10.0607L8.53033 13.5303C8.23744 13.8232 7.76256 13.8232 7.46967 13.5303Z" fill="#18202A"/>
</svg>
