<svg width="24" height="24" viewBox="0 0 24 24" fill="none" xmlns="http://www.w3.org/2000/svg">
<path fill-rule="evenodd" clip-rule="evenodd" d="M4.5 1.5H7.5V5.06729C7.34677 5.14464 7.1958 5.22581 7.04722 5.31068L4.5 3.34963V1.5ZM5.74254 6.19927L3.38997 4.38807C3.14407 4.19877 3 3.90603 3 3.5957V1C3 0.447716 3.44772 0 4 0H20C20.5523 0 21 0.447715 21 1V3.5957C21 3.90603 20.8559 4.19877 20.61 4.38808L18.2575 6.19927C20.5393 8.03207 22 10.8455 22 14C22 19.5228 17.5228 24 12 24C6.47715 24 2 19.5228 2 14C2 10.8455 3.46066 8.03207 5.74254 6.19927ZM16.9528 5.31068L19.5 3.34963V1.5H16.5V5.06729C16.6532 5.14464 16.8042 5.22581 16.9528 5.31068ZM13.5 4.11175V1.5H10.5V4.11175C10.9893 4.03815 11.4902 4 12 4C12.5098 4 13.0107 4.03815 13.5 4.11175ZM20.5 14C20.5 18.6944 16.6944 22.5 12 22.5C7.30558 22.5 3.5 18.6944 3.5 14C3.5 9.30558 7.30558 5.5 12 5.5C16.6944 5.5 20.5 9.30558 20.5 14ZM12 19.5C15.0376 19.5 17.5 17.0376 17.5 14C17.5 10.9624 15.0376 8.5 12 8.5C8.96243 8.5 6.5 10.9624 6.5 14C6.5 17.0376 8.96243 19.5 12 19.5ZM12 21C15.866 21 19 17.866 19 14C19 10.134 15.866 7 12 7C8.13401 7 5 10.134 5 14C5 17.866 8.13401 21 12 21ZM13.1255 12.2037L12.2886 10.4404C12.1681 10.1865 11.8319 10.1865 11.7114 10.4404L10.8745 12.2037C10.8264 12.3051 10.7357 12.3748 10.6312 12.3907L8.77934 12.6722C8.50981 12.7132 8.40422 13.0726 8.60266 13.2736L9.92667 14.6149C10.0066 14.6958 10.0432 14.8148 10.024 14.9312L9.70949 16.8381C9.66264 17.1222 9.93674 17.3419 10.1753 17.2114L11.8534 16.2936C11.9456 16.2432 12.0544 16.2432 12.1466 16.2936L13.8247 17.2114C14.0633 17.3419 14.3374 17.1222 14.2905 16.8381L13.976 14.9312C13.9568 14.8148 13.9934 14.6958 14.0733 14.6149L15.3973 13.2736C15.5958 13.0726 15.4902 12.7132 15.2207 12.6722L13.3688 12.3907C13.2643 12.3748 13.1736 12.3051 13.1255 12.2037Z" fill="#18202A"/>
</svg>
