<svg width="24" height="24" viewBox="0 0 24 24" fill="none" xmlns="http://www.w3.org/2000/svg">
<path fill-rule="evenodd" clip-rule="evenodd" d="M12 21.5C17.2467 21.5 21.5 17.2467 21.5 12C21.5 6.75329 17.2467 2.5 12 2.5C6.75329 2.5 2.5 6.75329 2.5 12C2.5 17.2467 6.75329 21.5 12 21.5ZM12 23C18.0751 23 23 18.0751 23 12C23 5.92487 18.0751 1 12 1C5.92487 1 1 5.92487 1 12C1 18.0751 5.92487 23 12 23Z" fill="#18202A"/>
<path fill-rule="evenodd" clip-rule="evenodd" d="M13.746 11.5363C14.2017 10.8421 14.5 9.75311 14.5 8.375C14.5 7.37516 14.233 6.66195 13.859 6.22368C13.5139 5.81928 12.954 5.5 12 5.5C11.046 5.5 10.4861 5.81928 10.141 6.22368C9.76704 6.66195 9.5 7.37516 9.5 8.375C9.5 9.75311 9.79833 10.8421 10.254 11.5363C10.6693 12.1689 11.2174 12.5 12 12.5C12.7826 12.5 13.3307 12.1689 13.746 11.5363ZM12 14C14.6667 14 16 11.5 16 8.375C16 5.875 14.6667 4 12 4C9.33333 4 8 5.875 8 8.375C8 11.5 9.33333 14 12 14Z" fill="#18202A"/>
<path d="M4.02225 19.5734C4.18333 18.9352 4.50812 18.3409 4.99933 17.8592C6.80313 16.0906 9.27421 15 12 15C14.7258 15 17.1969 16.0906 19.0007 17.8592C19.4919 18.3409 19.8167 18.9351 19.9778 19.5734C19.5494 20.0245 19.0832 20.4393 18.5842 20.8127C18.6592 20.0883 18.4258 19.3963 17.9505 18.9303C16.4157 17.4254 14.3174 16.5 12 16.5C9.68257 16.5 7.58427 17.4254 6.04949 18.9303C5.5742 19.3963 5.34078 20.0883 5.41586 20.8127C4.91686 20.4393 4.45062 20.0245 4.02225 19.5734Z" fill="#18202A"/>
</svg>
