<svg width="24" height="24" viewBox="0 0 24 24" fill="none" xmlns="http://www.w3.org/2000/svg">
<path fill-rule="evenodd" clip-rule="evenodd" d="M4 1C3.44772 1 3 1.44772 3 2C3 2.55228 3.44772 3 4 3H4.51768C4.50595 3.19144 4.5 3.38454 4.5 3.57908C4.5 6.82561 6.16348 9.69747 8.67562 11.0837C9.0108 11.2686 9.14286 11.5328 9.14286 11.7194V12.281C9.14286 12.4676 9.0108 12.7317 8.67562 12.9166C6.16348 14.3029 4.5 17.1747 4.5 20.4213C4.5 20.5699 4.50348 20.7177 4.51035 20.8646C4.50398 20.9089 4.50048 20.9541 4.50005 21H4C3.44772 21 3 21.4477 3 22C3 22.5523 3.44772 23 4 23H20C20.5523 23 21 22.5523 21 22C21 21.4477 20.5523 21 20 21H19.5C19.4995 20.9541 19.496 20.9089 19.4897 20.8646C19.4965 20.7177 19.5 20.5699 19.5 20.4213C19.5 17.1747 17.8365 14.3029 15.3244 12.9166C14.9892 12.7317 14.8571 12.4676 14.8571 12.281V11.7194C14.8571 11.5328 14.9892 11.2686 15.3244 11.0837C17.8365 9.69747 19.5 6.8256 19.5 3.57908C19.5 3.38454 19.494 3.19144 19.4823 3H20C20.5523 3 21 2.55228 21 2C21 1.44772 20.5523 1 20 1H4ZM6.5 3.57908C6.5 3.38369 6.5076 3.19055 6.52245 3H17.4776C17.4924 3.19055 17.5 3.38369 17.5 3.57908C17.5 6.16159 16.1781 8.32833 14.3581 9.33259C13.5662 9.76956 12.8571 10.6187 12.8571 11.7194V12.281C12.8571 13.3816 13.5662 14.2308 14.3581 14.6677C16.1781 15.672 17.5 17.8387 17.5 20.4213C17.5 20.5902 17.4943 20.7575 17.4832 20.9228C17.4814 20.9487 17.4807 20.9745 17.4809 21H6.5191C6.51931 20.9744 6.51856 20.9487 6.51681 20.9227C6.50568 20.7574 6.5 20.5902 6.5 20.4213C6.5 17.8387 7.82194 15.672 9.64189 14.6677C10.4338 14.2308 11.1429 13.3816 11.1429 12.281V11.7194C11.1429 10.6187 10.4338 9.76956 9.64189 9.33259C7.82194 8.32833 6.5 6.16159 6.5 3.57908Z" fill="#18202A"/>
</svg>
