<svg width="24" height="24" viewBox="0 0 24 24" fill="none" xmlns="http://www.w3.org/2000/svg">
<path fill-rule="evenodd" clip-rule="evenodd" d="M4 3.25C3.58579 3.25 3.25 3.58579 3.25 4V8.5C3.25 8.91421 3.58579 9.25 4 9.25C4.41421 9.25 4.75 8.91421 4.75 8.5V5.81066L8.46967 9.53033C8.76256 9.82322 9.23744 9.82322 9.53033 9.53033C9.82322 9.23744 9.82322 8.76256 9.53033 8.46967L5.81066 4.75H8.5C8.91421 4.75 9.25 4.41421 9.25 4C9.25 3.58579 8.91421 3.25 8.5 3.25H4ZM4 20.75C3.58579 20.75 3.25 20.4142 3.25 20V15.5C3.25 15.0858 3.58579 14.75 4 14.75C4.41421 14.75 4.75 15.0858 4.75 15.5V18.1893L8.46967 14.4697C8.76256 14.1768 9.23744 14.1768 9.53033 14.4697C9.82322 14.7626 9.82322 15.2374 9.53033 15.5303L5.81066 19.25H8.5C8.91421 19.25 9.25 19.5858 9.25 20C9.25 20.4142 8.91421 20.75 8.5 20.75H4ZM20.75 4C20.75 3.58579 20.4142 3.25 20 3.25H15.5C15.0858 3.25 14.75 3.58579 14.75 4C14.75 4.41421 15.0858 4.75 15.5 4.75H18.1893L14.4697 8.46967C14.1768 8.76256 14.1768 9.23744 14.4697 9.53033C14.7626 9.82322 15.2374 9.82322 15.5303 9.53033L19.25 5.81066V8.5C19.25 8.91421 19.5858 9.25 20 9.25C20.4142 9.25 20.75 8.91421 20.75 8.5V4ZM20 20.75C20.4142 20.75 20.75 20.4142 20.75 20V15.5C20.75 15.0858 20.4142 14.75 20 14.75C19.5858 14.75 19.25 15.0858 19.25 15.5V18.1893L15.5303 14.4697C15.2374 14.1768 14.7626 14.1768 14.4697 14.4697C14.1768 14.7626 14.1768 15.2374 14.4697 15.5303L18.1893 19.25H15.5C15.0858 19.25 14.75 19.5858 14.75 20C14.75 20.4142 15.0858 20.75 15.5 20.75H20Z" fill="#26282C"/>
</svg>
