<svg width="24" height="24" viewBox="0 0 24 24" fill="none" xmlns="http://www.w3.org/2000/svg">
<path d="M6 7C5.58579 7 5.25 7.33579 5.25 7.75C5.25 8.16421 5.58579 8.5 6 8.5H18C18.4142 8.5 18.75 8.16421 18.75 7.75C18.75 7.33579 18.4142 7 18 7H6Z" fill="#18202A"/>
<path d="M6 11C5.58579 11 5.25 11.3358 5.25 11.75C5.25 12.1642 5.58579 12.5 6 12.5H18C18.4142 12.5 18.75 12.1642 18.75 11.75C18.75 11.3358 18.4142 11 18 11H6Z" fill="#18202A"/>
<path d="M5.25 15.75C5.25 15.3358 5.58579 15 6 15H12C12.4142 15 12.75 15.3358 12.75 15.75C12.75 16.1642 12.4142 16.5 12 16.5H6C5.58579 16.5 5.25 16.1642 5.25 15.75Z" fill="#18202A"/>
<path fill-rule="evenodd" clip-rule="evenodd" d="M2 6C2 3.79086 3.79086 2 6 2H18C20.2091 2 22 3.79086 22 6V18C22 20.2091 20.2091 22 18 22H6C3.79086 22 2 20.2091 2 18V6ZM18 3.5C19.3807 3.5 20.5 4.61929 20.5 6V18C20.5 19.3807 19.3807 20.5 18 20.5H6C4.61929 20.5 3.5 19.3807 3.5 18V6C3.5 4.61929 4.61929 3.5 6 3.5H18Z" fill="#18202A"/>
</svg>
