<svg width="24" height="24" viewBox="0 0 24 24" fill="none" xmlns="http://www.w3.org/2000/svg">
<path d="M1 1.75C1 1.33579 1.33579 1 1.75 1C2.16421 1 2.5 1.33579 2.5 1.75V22.25C2.5 22.6642 2.16421 23 1.75 23C1.33579 23 1 22.6642 1 22.25V1.75Z" fill="#18202A"/>
<path fill-rule="evenodd" clip-rule="evenodd" d="M12 4.5H2.5V14.5H13C13.2761 14.5 13.5 14.2761 13.5 14V6C13.5 5.17157 12.8284 4.5 12 4.5ZM1 3V16H13C14.1046 16 15 15.1046 15 14V6C15 4.34315 13.6569 3 12 3H1Z" fill="#18202A"/>
<path fill-rule="evenodd" clip-rule="evenodd" d="M8 16V18C8 19.1046 8.89543 20 10 20H22.0568C22.8702 20 23.3433 19.0806 22.8705 18.4188L19.4152 13.5812C19.1668 13.2335 19.1668 12.7665 19.4152 12.4188L22.8705 7.58124C23.3433 6.91937 22.8702 6 22.0568 6H15V7.5H21.0852L18.1946 11.5469C17.5737 12.4161 17.5737 13.5839 18.1946 14.4531L21.0852 18.5H10C9.72386 18.5 9.5 18.2761 9.5 18V16H8Z" fill="#18202A"/>
<path fill-rule="evenodd" clip-rule="evenodd" d="M13.1385 14.8713C13.4583 14.5226 13.5289 14.278 13.5058 14.093L14.9942 13.907C15.0961 14.722 14.698 15.3899 14.2443 15.8849C13.7902 16.3802 13.183 16.8107 12.6331 17.1751C12.4532 17.2944 12.2814 17.4055 12.1182 17.511C11.7504 17.7489 11.4271 17.9579 11.1568 18.1661C10.9672 18.3121 10.8474 18.426 10.7802 18.5106C10.7527 18.5452 10.7421 18.5647 10.7393 18.5703C10.7419 18.5639 10.75 18.5398 10.75 18.5H9.25C9.25 18.1112 9.43093 17.7976 9.60559 17.5777C9.78347 17.3537 10.0133 17.1535 10.2416 16.9777C10.5635 16.7298 10.9703 16.4667 11.3629 16.2127C11.5141 16.1149 11.6631 16.0185 11.8044 15.9249C12.3483 15.5643 12.8191 15.2198 13.1385 14.8713ZM10.7385 18.5721C10.7385 18.5721 10.7387 18.5715 10.7393 18.5703L10.7385 18.5721Z" fill="#18202A"/>
</svg>
