<svg width="24" height="24" viewBox="0 0 24 24" fill="none" xmlns="http://www.w3.org/2000/svg">
<g clip-path="url(#clip0_3293_8996)">
<path fill-rule="evenodd" clip-rule="evenodd" d="M13.75 4.25C14.1642 4.25 14.5 4.58579 14.5 5V6H15.25C15.6642 6 16 6.33579 16 6.75C16 7.16421 15.6642 7.5 15.25 7.5H14.5V15.25C14.5 15.6642 14.1642 16 13.75 16C13.3359 16 13.0001 15.6644 13 15.2503C12.3733 15.721 11.5942 16 10.75 16C8.67893 16 7 14.3211 7 12.25C7 10.1789 8.67893 8.5 10.75 8.5C11.5942 8.5 12.3733 8.77896 13 9.24973V7.5H12.25C11.8358 7.5 11.5 7.16421 11.5 6.75C11.5 6.33579 11.8358 6 12.25 6H13V5C13 4.58579 13.3358 4.25 13.75 4.25ZM10.75 10C11.9926 10 13 11.0074 13 12.25C13 13.4926 11.9926 14.5 10.75 14.5C9.50736 14.5 8.5 13.4926 8.5 12.25C8.5 11.0074 9.50736 10 10.75 10Z" fill="#18202A"/>
<path d="M7.75 17C7.33579 17 7 17.3358 7 17.75C7 18.1642 7.33579 18.5 7.75 18.5H13.75C14.1642 18.5 14.5 18.1642 14.5 17.75C14.5 17.3358 14.1642 17 13.75 17H7.75Z" fill="#18202A"/>
<path fill-rule="evenodd" clip-rule="evenodd" d="M23 12C23 18.0751 18.0751 23 12 23C5.92487 23 1 18.0751 1 12C1 5.92487 5.92487 1 12 1C18.0751 1 23 5.92487 23 12ZM21.5 12C21.5 17.2467 17.2467 21.5 12 21.5C6.75329 21.5 2.5 17.2467 2.5 12C2.5 6.75329 6.75329 2.5 12 2.5C17.2467 2.5 21.5 6.75329 21.5 12Z" fill="#18202A"/>
</g>
<defs>
<clipPath id="clip0_3293_8996">
<rect width="24" height="24" fill="white"/>
</clipPath>
</defs>
</svg>
