<svg width="24" height="24" viewBox="0 0 24 24" fill="none" xmlns="http://www.w3.org/2000/svg">
<path fill-rule="evenodd" clip-rule="evenodd" d="M13.1293 3.79503C13.1291 3.79524 13.1289 3.79545 13.1287 3.79566L5.12607 11.8375L5.12477 11.8388C2.9851 13.9785 2.9851 17.5056 5.12477 19.6452C7.26445 21.7849 10.7915 21.7849 12.9312 19.6452L20.6997 11.8767C20.9926 11.5838 21.4675 11.5838 21.7604 11.8767C22.0533 12.1696 22.0533 12.6445 21.7604 12.9374L13.9919 20.7059C11.2664 23.4314 6.78957 23.4314 4.06411 20.7059C1.3389 17.9807 1.33866 13.5044 4.06338 10.7789C4.06362 10.7786 4.06387 10.7784 4.06411 10.7782L12.0667 2.73629L12.068 2.735C14.048 0.755001 17.2694 0.755001 19.2493 2.735C21.2293 4.71499 21.2293 7.93631 19.2493 9.9163L19.248 9.91769L11.7555 17.3709C11.7552 17.3712 11.7549 17.3716 11.7546 17.3719C10.5531 18.5723 8.59634 18.5561 7.37125 17.3821L7.35985 17.3709C6.15848 16.1696 6.17434 14.2121 7.34869 12.9867L7.36129 12.9739L14.5805 5.79388C14.8742 5.50178 15.3491 5.50308 15.6412 5.79677C15.9333 6.09046 15.932 6.56533 15.6383 6.85742L8.426 14.0305C7.80324 14.6866 7.81878 15.7023 8.41492 16.3047C9.07301 16.9295 10.0932 16.9119 10.6948 16.3103L10.6962 16.3089L18.1887 8.85564C18.1889 8.8554 18.1892 8.85517 18.1894 8.85493C19.5829 7.46066 19.5827 5.18963 18.1887 3.79566C16.7947 2.40166 14.5236 2.40145 13.1293 3.79503Z" fill="#18202A"/>
</svg>
