<svg width="24" height="24" viewBox="0 0 24 24" fill="none" xmlns="http://www.w3.org/2000/svg">
<path fill-rule="evenodd" clip-rule="evenodd" d="M20 13.5C20 15.433 18.433 17 16.5 17C14.567 17 13 15.433 13 13.5C13 11.567 14.567 10 16.5 10C18.433 10 20 11.567 20 13.5ZM16.5 11.5C17.6046 11.5 18.5 12.3954 18.5 13.5C18.5 14.6046 17.6046 15.5 16.5 15.5C15.3954 15.5 14.5 14.6046 14.5 13.5C14.5 12.3954 15.3954 11.5 16.5 11.5Z" fill="#18202A"/>
<path fill-rule="evenodd" clip-rule="evenodd" d="M7.5 17C9.433 17 11 15.433 11 13.5C11 11.567 9.433 10 7.5 10C5.567 10 4 11.567 4 13.5C4 15.433 5.567 17 7.5 17ZM9.5 13.5C9.5 12.3954 8.60457 11.5 7.5 11.5C6.39543 11.5 5.5 12.3954 5.5 13.5C5.5 14.6046 6.39543 15.5 7.5 15.5C8.60457 15.5 9.5 14.6046 9.5 13.5Z" fill="#18202A"/>
<path d="M10.75 19C10.3358 19 10 19.3358 10 19.75C10 20.1642 10.3358 20.5 10.75 20.5H13.25C13.6642 20.5 14 20.1642 14 19.75C14 19.3358 13.6642 19 13.25 19H10.75Z" fill="#18202A"/>
<path fill-rule="evenodd" clip-rule="evenodd" d="M14 3C14 1.89543 13.1046 1 12 1C10.8954 1 10 1.89543 10 3C10 3.83934 10.517 4.55793 11.25 4.85462V6H9C5.47353 6 2.55612 8.60771 2.07089 12H1.5C0.671573 12 0 12.6716 0 13.5V16.5C0 17.3284 0.671573 18 1.5 18H2V19C2 21.2091 3.79086 23 6 23H18C20.2091 23 22 21.2091 22 19V18H22.5C23.3284 18 24 17.3284 24 16.5V13.5C24 12.6716 23.3284 12 22.5 12H21.9291C21.4439 8.60771 18.5265 6 15 6H12.75V4.85462C13.483 4.55793 14 3.83934 14 3ZM15 7.5C18.0376 7.5 20.5 9.96243 20.5 13V19C20.5 20.3807 19.3807 21.5 18 21.5H6C4.61929 21.5 3.5 20.3807 3.5 19V13C3.5 9.96243 5.96243 7.5 9 7.5H15Z" fill="#18202A"/>
</svg>
