<svg width="24" height="24" viewBox="0 0 24 24" fill="none" xmlns="http://www.w3.org/2000/svg">
<path fill-rule="evenodd" clip-rule="evenodd" d="M19.9901 6.75512C19.8655 5.2128 18.5744 4 17 4H7C5.42559 4 4.13445 5.2128 4.00985 6.75512C3.44756 7.25397 3.07402 7.96084 3.00985 8.75512C2.39039 9.30469 2 10.1068 2 11V19C2 20.6569 3.34315 22 5 22H19C20.6569 22 22 20.6569 22 19V11C22 10.1068 21.6096 9.30469 20.9901 8.75512C20.926 7.96084 20.5524 7.25397 19.9901 6.75512ZM18.1202 6.00237C17.8454 5.69412 17.4454 5.5 17 5.5H7C6.55461 5.5 6.15456 5.69412 5.87984 6.00236C5.9197 6.00079 5.95976 6 6 6H18C18.0402 6 18.0803 6.0008 18.1202 6.00237ZM5 8C4.95976 8 4.9197 8.00079 4.87984 8.00236C5.15456 7.69412 5.55461 7.5 6 7.5H18C18.4454 7.5 18.8454 7.69412 19.1202 8.00237C19.0803 8.0008 19.0402 8 19 8H5ZM12 10C12.5523 10 13 10.4477 13 11V14H16C16.5523 14 17 14.4477 17 15C17 15.5523 16.5523 16 16 16H13V19C13 19.5523 12.5523 20 12 20C11.4477 20 11 19.5523 11 19V16H8C7.44772 16 7 15.5523 7 15C7 14.4477 7.44772 14 8 14H11V11C11 10.4477 11.4477 10 12 10Z" fill="#18202A"/>
</svg>
