<svg width="24" height="24" viewBox="0 0 24 24" fill="none" xmlns="http://www.w3.org/2000/svg">
<path fill-rule="evenodd" clip-rule="evenodd" d="M7.25 11.1893V5.5C7.25 4.90326 7.48705 4.33097 7.90901 3.90901C8.33097 3.48705 8.90326 3.25 9.5 3.25C9.75911 3.25 10.0136 3.2947 10.2532 3.37982C10.2668 3.12542 10.3236 2.87487 10.4213 2.63896C10.5343 2.36598 10.7001 2.11794 10.909 1.90901C11.1179 1.70008 11.366 1.53434 11.639 1.42127C11.9119 1.3082 12.2045 1.25 12.5 1.25C12.7955 1.25 13.0881 1.3082 13.361 1.42127C13.634 1.53434 13.8821 1.70008 14.091 1.90901C14.2999 2.11794 14.4657 2.36598 14.5787 2.63896C14.6764 2.87487 14.7332 3.12542 14.7468 3.37982C14.9864 3.2947 15.2409 3.25 15.5 3.25C16.0967 3.25 16.669 3.48705 17.091 3.90901C17.4845 4.30255 17.7172 4.82687 17.7468 5.37983C17.9864 5.2947 18.2409 5.25 18.5 5.25C19.0967 5.25 19.669 5.48705 20.091 5.90901C20.5129 6.33097 20.75 6.90326 20.75 7.5V16C20.75 17.7902 20.0388 19.5071 18.773 20.773C17.5071 22.0388 15.7902 22.75 14 22.75H12.2057C11.0887 22.7498 9.98913 22.4723 9.00568 21.9426C8.02153 21.4124 7.18401 20.6454 6.56918 19.7118C6.50289 19.6109 6.43685 19.5098 6.37107 19.4086C6.04195 18.9034 4.93111 16.9651 3.06034 13.6397C2.77302 13.129 2.69628 12.5264 2.84643 11.96C2.99657 11.3936 3.36177 10.9081 3.86435 10.6068C4.36459 10.3066 4.95055 10.1823 5.52958 10.2534C6.10861 10.3245 6.64758 10.5874 7.06033 10.9997L7.25 11.1893ZM12.213 2.80709C12.304 2.7694 12.4015 2.75 12.5 2.75C12.5985 2.75 12.696 2.7694 12.787 2.80709C12.878 2.84478 12.9607 2.90003 13.0303 2.96967C13.1 3.03931 13.1552 3.12199 13.1929 3.21299C13.2306 3.30398 13.25 3.40151 13.25 3.5V12C13.25 12.4142 13.5858 12.75 14 12.75C14.4142 12.75 14.75 12.4142 14.75 12V5.5C14.75 5.30109 14.829 5.11032 14.9697 4.96967C15.1103 4.82902 15.3011 4.75 15.5 4.75C15.6989 4.75 15.8897 4.82902 16.0303 4.96967C16.171 5.11032 16.25 5.30109 16.25 5.5V12C16.25 12.4142 16.5858 12.75 17 12.75C17.4142 12.75 17.75 12.4142 17.75 12L17.75 7.5C17.75 7.30109 17.829 7.11032 17.9697 6.96967C18.1103 6.82902 18.3011 6.75 18.5 6.75C18.6989 6.75 18.8897 6.82902 19.0303 6.96967C19.171 7.11032 19.25 7.30109 19.25 7.5V16C19.25 17.3924 18.6969 18.7277 17.7123 19.7123C16.7277 20.6969 15.3924 21.25 14 21.25H12.2068C11.3377 21.2499 10.4822 21.0342 9.71708 20.622C8.95163 20.2096 8.30058 19.6136 7.82237 18.8875C7.75748 18.7887 7.6933 18.6905 7.62893 18.5914C7.33405 18.1386 6.25489 16.2589 4.36766 12.9043C4.27189 12.734 4.24629 12.5331 4.29634 12.3443C4.34639 12.1555 4.46813 11.9937 4.63565 11.8932C4.84917 11.7651 5.0996 11.7119 5.34674 11.7423C5.59389 11.7726 5.8238 11.8847 5.99997 12.0606L7.46813 13.5288C7.47299 13.5337 7.47792 13.5385 7.48291 13.5433C7.5507 13.6078 7.62761 13.6573 7.70937 13.6916C7.79875 13.7292 7.89695 13.75 8 13.75C8.41421 13.75 8.75 13.4142 8.75 13V5.5C8.75 5.30109 8.82902 5.11032 8.96967 4.96967C9.11032 4.82902 9.30109 4.75 9.5 4.75C9.69891 4.75 9.88968 4.82902 10.0303 4.96967C10.171 5.11032 10.25 5.30109 10.25 5.5V12C10.25 12.4142 10.5858 12.75 11 12.75C11.4142 12.75 11.75 12.4142 11.75 12V3.5C11.75 3.40151 11.7694 3.30398 11.8071 3.21299C11.8448 3.12199 11.9 3.03931 11.9697 2.96967C12.0393 2.90003 12.122 2.84478 12.213 2.80709Z" fill="#18202A"/>
</svg>
