<svg width="24" height="24" viewBox="0 0 24 24" fill="none" xmlns="http://www.w3.org/2000/svg">
<g clip-path="url(#clip0_3444_9197)">
<path d="M6 3C6 1.89543 6.89543 1 8 1H16C17.1046 1 18 1.89543 18 3V5C18 5.95652 17.5523 6.80849 16.8551 7.35782C15.9875 8.04141 15 8.89543 15 10V12C15 12.5692 15.2378 13.0829 15.6195 13.4471C15.1876 13.7107 14.7888 14.0231 14.4309 14.3769C13.8531 13.7527 13.5 12.9176 13.5 12V10C13.5 8.97629 13.9619 8.16078 14.4383 7.57477C14.9082 6.99686 15.4896 6.524 15.9268 6.17958C16.2786 5.90243 16.5 5.47751 16.5 5V3C16.5 2.72386 16.2761 2.5 16 2.5H8C7.72386 2.5 7.5 2.72386 7.5 3V5C7.5 5.47751 7.72143 5.90243 8.0732 6.17958C8.51035 6.524 9.0918 6.99686 9.56167 7.57477C10.0381 8.16078 10.5 8.97629 10.5 10V12C10.5 13.933 8.933 15.5 7 15.5H5.28571C3.74721 15.5 2.5 16.7472 2.5 18.2857C2.5 18.4041 2.59594 18.5 2.71429 18.5H12.5189C12.5064 18.665 12.5 18.8318 12.5 19C12.5 19.3401 12.5261 19.674 12.5764 20H2.71429C1.76751 20 1 19.2325 1 18.2857C1 15.9188 2.91878 14 5.28571 14H7C8.10457 14 9 13.1046 9 12V10C9 8.89543 8.01253 8.04141 7.14489 7.35782C6.44766 6.80849 6 5.95652 6 5V3Z" fill="#18202A"/>
<path d="M13.8762 23C13.4128 22.4072 13.05 21.732 12.8135 21H3C2.44772 21 2 21.4477 2 22C2 22.5523 2.44772 23 3 23H13.8762Z" fill="#18202A"/>
<path d="M18.0304 14.7197C18.3232 15.0126 18.3232 15.4874 18.0304 15.7803L17.3107 16.5H22C22.4142 16.5 22.75 16.8358 22.75 17.25C22.75 17.6642 22.4142 18 22 18H15.5C15.1967 18 14.9232 17.8173 14.8071 17.537C14.691 17.2568 14.7552 16.9342 14.9697 16.7197L16.9697 14.7197C17.2626 14.4268 17.7375 14.4268 18.0304 14.7197Z" fill="#18202A"/>
<path d="M19.4696 23.2803C19.1768 22.9874 19.1768 22.5126 19.4696 22.2197L20.1893 21.5H15.5C15.0858 21.5 14.75 21.1642 14.75 20.75C14.75 20.3358 15.0858 20 15.5 20H22C22.3033 20 22.5768 20.1827 22.6929 20.463C22.809 20.7432 22.7448 21.0658 22.5303 21.2803L20.5303 23.2803C20.2374 23.5732 19.7625 23.5732 19.4696 23.2803Z" fill="#18202A"/>
</g>
<defs>
<clipPath id="clip0_3444_9197">
<rect width="24" height="24" fill="white"/>
</clipPath>
</defs>
</svg>
