<svg width="24" height="24" viewBox="0 0 24 24" fill="none" xmlns="http://www.w3.org/2000/svg">
<path d="M13.2566 4.25C14.6337 4.25 15.75 5.36634 15.75 6.74342C15.75 7.75703 15.1374 8.66324 14.2116 9.04672L14.0451 9.10888L13.7372 9.21151C13.193 9.39291 12.8123 9.87695 12.757 10.4391L12.75 10.5811V11C12.75 11.4142 12.4142 11.75 12 11.75C11.6203 11.75 11.3065 11.4678 11.2568 11.1018L11.25 11V10.5811C11.25 9.37743 11.9817 8.30202 13.0855 7.85395L13.2628 7.78849L13.5707 7.68586C13.9764 7.55064 14.25 7.17101 14.25 6.74342C14.25 6.23395 13.8665 5.81407 13.3724 5.75668L13.2566 5.75H10.4142C10.0474 5.75 9.75 6.04738 9.75 6.41421C9.75 6.55514 9.79479 6.69145 9.87648 6.80411L9.94454 6.88388L10.0303 6.96967C10.3232 7.26256 10.3232 7.73744 10.0303 8.03033C9.76406 8.2966 9.3474 8.3208 9.05379 8.10295L8.96967 8.03033L8.88388 7.94454C8.47801 7.53867 8.25 6.9882 8.25 6.41421C8.25 5.27092 9.13653 4.33468 10.2597 4.25543L10.4142 4.25H13.2566Z" fill="#18202A"/>
<path d="M13 14C13 13.4477 12.5523 13 12 13C11.4477 13 11 13.4477 11 14C11 14.5523 11.4477 15 12 15C12.5523 15 13 14.5523 13 14Z" fill="#18202A"/>
<path fill-rule="evenodd" clip-rule="evenodd" d="M19 18H12.9091L6.45554 21.8372C5.70741 22.2821 4.7875 21.625 4.96564 20.773L5.54545 18H5C4.66814 18 4.34572 17.9596 4.03739 17.8834C2.29322 17.4525 1 15.8773 1 14V5C1 2.79086 2.79086 1 5 1H19C21.2091 1 23 2.79086 23 5V14C23 16.2091 21.2091 18 19 18ZM12.9091 16.5C12.6393 16.5 12.3744 16.5728 12.1425 16.7107L6.6667 19.9666L7.0137 18.307C7.10615 17.8649 6.99444 17.4046 6.70961 17.0541C6.42477 16.7035 5.99714 16.5 5.54545 16.5H5C3.61929 16.5 2.5 15.3807 2.5 14V5C2.5 3.61929 3.61929 2.5 5 2.5H19C20.3807 2.5 21.5 3.61929 21.5 5V14C21.5 15.3807 20.3807 16.5 19 16.5H12.9091Z" fill="#18202A"/>
</svg>
