<svg width="24" height="24" viewBox="0 0 24 24" fill="none" xmlns="http://www.w3.org/2000/svg">
<path fill-rule="evenodd" clip-rule="evenodd" d="M16 5.375C16 8.5 14.6667 11 12 11C9.33333 11 8 8.5 8 5.375C8 2.875 9.33333 1 12 1C14.6667 1 16 2.875 16 5.375ZM14.5 5.375C14.5 6.75311 14.2017 7.84209 13.746 8.53625C13.3307 9.1689 12.7826 9.5 12 9.5C11.2174 9.5 10.6693 9.1689 10.254 8.53625C9.79833 7.84209 9.5 6.75311 9.5 5.375C9.5 4.37516 9.76704 3.66195 10.141 3.22368C10.4861 2.81928 11.046 2.5 12 2.5C12.954 2.5 13.5139 2.81928 13.859 3.22368C14.233 3.66195 14.5 4.37516 14.5 5.375ZM10.1916 21.4022C10.0192 21.8969 9.96755 22.404 10.019 22.8922C9.16595 22.7988 8.33085 22.6459 7.51792 22.4375C6.29888 22.1251 5.26569 21.3086 4.69985 20.1845C4.53212 19.8513 4.3757 19.5114 4.23108 19.1654C3.61657 17.6951 3.86147 15.9749 4.99932 14.8592C6.80313 13.0906 9.27421 12 12 12C13.107 12 14.1719 12.1799 15.1672 12.512C15.1171 12.5868 15.0692 12.6644 15.0238 12.7448L14.402 13.8438C13.6405 13.62 12.8345 13.5 12 13.5C9.68256 13.5 7.58426 14.4254 6.04949 15.9303C5.40564 16.5616 5.20565 17.6074 5.61506 18.587C5.74604 18.9004 5.88772 19.2082 6.03967 19.5101C6.406 20.2378 7.08095 20.7771 7.8903 20.9845C8.63774 21.176 9.4061 21.3166 10.1916 21.4022ZM12.1602 22.1681C11.7024 22.9842 12.2804 24 13.2026 24H22.7974C23.7196 24 24.2976 22.9842 23.8398 22.1681L19.0424 13.6165C18.5813 12.7945 17.4187 12.7945 16.9576 13.6165L12.1602 22.1681ZM17.25 16.75C17.25 16.3358 17.5858 16 18 16C18.4142 16 18.75 16.3358 18.75 16.75V18.75C18.75 19.1642 18.4142 19.5 18 19.5C17.5858 19.5 17.25 19.1642 17.25 18.75V16.75ZM17.25 21.25C17.25 20.8358 17.5858 20.5 18 20.5C18.4142 20.5 18.75 20.8358 18.75 21.25C18.75 21.6642 18.4142 22 18 22C17.5858 22 17.25 21.6642 17.25 21.25Z" fill="#18202A"/>
</svg>
