<svg width="24" height="24" viewBox="0 0 24 24" fill="none" xmlns="http://www.w3.org/2000/svg">
<path fill-rule="evenodd" clip-rule="evenodd" d="M12 3.75C8.46968 3.75 5.75 6.79826 5.75 10.6L5.74975 10.9545C5.74779 12.8267 5.74569 14.8259 6.22842 16.8239C6.43388 17.6742 7.25546 18.6631 8.43594 19.4654C9.60259 20.2583 10.9477 20.75 12 20.75C13.0523 20.75 14.3971 20.2583 15.5634 19.4655C16.7435 18.6632 17.5649 17.6743 17.7704 16.8239C18.254 14.822 18.2521 12.8186 18.2502 10.9436L18.25 10.6C18.25 6.79826 15.5303 3.75 12 3.75ZM4.25 10.6C4.25 6.11747 7.50095 2.25 12 2.25C16.4991 2.25 19.75 6.11747 19.75 10.6C19.75 10.7232 19.7502 10.8481 19.7503 10.9744C19.7529 12.8221 19.7559 14.993 19.2284 17.1761C18.8954 18.5543 17.7168 19.8154 16.4067 20.706C15.0828 21.606 13.4471 22.25 12 22.25C10.553 22.25 8.91697 21.606 7.59278 20.706C6.28241 19.8154 5.10338 18.5544 4.77038 17.1761C4.24379 14.9967 4.24694 12.8293 4.24963 10.9841C4.24981 10.8544 4.25 10.7264 4.25 10.6ZM0.96967 16.4697C1.26256 16.1768 1.73744 16.1768 2.03033 16.4697L4.03033 18.4697C4.32322 18.7626 4.32322 19.2374 4.03033 19.5303L2.03033 21.5303C1.73744 21.8232 1.26256 21.8232 0.96967 21.5303C0.676777 21.2374 0.676777 20.7626 0.96967 20.4697L2.43934 19L0.96967 17.5303C0.676777 17.2374 0.676777 16.7626 0.96967 16.4697ZM21.9697 16.4697C22.2626 16.1768 22.7374 16.1768 23.0303 16.4697C23.3232 16.7626 23.3232 17.2374 23.0303 17.5303L21.5607 19L23.0303 20.4697C23.3232 20.7626 23.3232 21.2374 23.0303 21.5303C22.7374 21.8232 22.2626 21.8232 21.9697 21.5303L19.9697 19.5303C19.6768 19.2374 19.6768 18.7626 19.9697 18.4697L21.9697 16.4697Z" fill="#26282C"/>
</svg>
