<svg width="24" height="24" viewBox="0 0 24 24" fill="none" xmlns="http://www.w3.org/2000/svg">
<path fill-rule="evenodd" clip-rule="evenodd" d="M22.6609 14.7207C22.8823 13.8506 23 12.939 23 12C23 5.92487 18.0751 1 12 1C5.92487 1 1 5.92487 1 12C1 18.0751 5.92487 23 12 23C12.3749 23 12.7455 22.9812 13.1108 22.9446C12.3046 22.1535 12.2256 20.7087 13.3039 19.9C13.4298 19.8056 13.5039 19.6574 13.5039 19.5V17.8166C13.0148 17.9381 12.5089 18 12 18C11.0439 18 10.0986 17.7816 9.25491 17.3598C8.41094 16.9378 7.68998 16.3225 7.17306 15.5623C6.86252 15.1056 6.98102 14.4836 7.43773 14.173C7.89444 13.8625 8.51642 13.981 8.82696 14.4377C9.13965 14.8976 9.59145 15.292 10.1493 15.5709C10.7075 15.85 11.3455 16 12 16C12.6545 16 13.2925 15.85 13.8507 15.5709C13.8673 15.5626 13.8838 15.5542 13.9003 15.5457C14.6612 13.7554 16.436 12.5 18.5039 12.5C20.2368 12.5 21.7638 13.3816 22.6609 14.7207ZM8.50001 12C9.32843 12 10 11.1046 10 10C10 8.89543 9.32843 8 8.50001 8C7.67158 8 7.00001 8.89543 7.00001 10C7.00001 11.1046 7.67158 12 8.50001 12ZM17 10C17 11.1046 16.3284 12 15.5 12C14.6716 12 14 11.1046 14 10C14 8.89543 14.6716 8 15.5 8C16.3284 8 17 8.89543 17 10Z" fill="#18202A"/>
<path fill-rule="evenodd" clip-rule="evenodd" d="M22 17.5L22 17.5143V19.5C22 20.1295 22.2964 20.7223 22.8 21.1C23.1844 21.3883 22.9805 22 22.5 22H14.5C14.0195 22 13.8156 21.3883 14.2 21.1C14.7036 20.7223 15 20.1295 15 19.5V17.5C15 17.5 15 17.5 15 17.5C15 17.5 15 17.5 15 17.5C15 15.567 16.567 14 18.5 14C20.433 14 22 15.567 22 17.5ZM17.5 23C17.2239 23 17 23.2239 17 23.5C17 23.7761 17.2239 24 17.5 24H19.5C19.7762 24 20 23.7761 20 23.5C20 23.2239 19.7762 23 19.5 23H17.5Z" fill="#18202A"/>
</svg>
