<svg width="24" height="24" viewBox="0 0 24 24" fill="none" xmlns="http://www.w3.org/2000/svg">
<path fill-rule="evenodd" clip-rule="evenodd" d="M12 1C13.1046 1 14 1.89543 14 3C14 3.74028 13.5978 4.38663 13 4.73244V6H15C18.5633 6 21.5048 8.6625 21.9435 12.1066C22.1156 12.0378 22.3034 12 22.5 12C23.3284 12 24 12.6716 24 13.5V16.5C24 17.3284 23.3284 18 22.5 18C22.3247 18 22.1564 17.9699 22 17.9146V19C22 21.2091 20.2091 23 18 23H6C3.79086 23 2 21.2091 2 19V17.9146C1.84361 17.9699 1.67532 18 1.5 18C0.671573 18 0 17.3284 0 16.5V13.5C0 12.6716 0.671573 12 1.5 12C1.69662 12 1.88441 12.0378 2.05647 12.1066C2.4952 8.6625 5.43667 6 9 6H11V4.73244C10.4022 4.38663 10 3.74028 10 3C10 1.89543 10.8954 1 12 1ZM20 14C20 15.6569 18.6569 17 17 17C15.3431 17 14 15.6569 14 14C14 12.3431 15.3431 11 17 11C18.6569 11 20 12.3431 20 14ZM7 17C8.65685 17 10 15.6569 10 14C10 12.3431 8.65685 11 7 11C5.34315 11 4 12.3431 4 14C4 15.6569 5.34315 17 7 17ZM10 19.5C10 19.2239 10.2239 19 10.5 19H13.5C13.7761 19 14 19.2239 14 19.5C14 19.7761 13.7761 20 13.5 20H10.5C10.2239 20 10 19.7761 10 19.5Z" fill="#18202A"/>
</svg>
