<svg width="24" height="24" viewBox="0 0 24 24" fill="none" xmlns="http://www.w3.org/2000/svg">
<path d="M11.9752 7.00003C15.9253 6.9929 19.7651 8.30189 22.8883 10.7203C23.2096 10.9637 23.4747 11.2735 23.6656 11.6286C23.8564 11.9837 23.9685 12.3757 23.9943 12.778C24.02 13.1803 23.9588 13.5834 23.8147 13.9599C23.6946 14.2737 23.5194 14.5628 23.2979 14.8138L23.1594 14.9598L21.1753 16.944C20.7094 17.4235 20.0877 17.721 19.422 17.7828C18.7564 17.8447 18.0904 17.6668 17.5443 17.2813C17.3723 17.149 17.1937 17.0233 17.0152 16.9109C16.6542 16.6834 16.2786 16.4802 15.8908 16.3024C15.4723 16.1072 15.1409 15.7641 14.9602 15.3392C14.8021 14.9675 14.7691 14.556 14.8637 14.1663L14.912 14.0008L15.0046 13.5378C14.002 13.252 12.965 13.1051 11.9225 13.1013C11.0103 13.1046 10.1024 13.2175 9.21797 13.4372L8.84044 13.5378L8.99256 13.9809C9.14223 14.4178 9.12503 14.8945 8.94434 15.3194C8.76359 15.7443 8.43217 16.0874 8.01371 16.2825C7.72194 16.4141 7.43765 16.5614 7.16203 16.7237L6.61571 17.0605C6.52559 17.1192 6.43961 17.182 6.36686 17.2548C5.83352 17.6259 5.18788 17.8006 4.54018 17.7486C3.9644 17.7025 3.41866 17.4801 2.97616 17.1143L2.81519 16.9704L0.831033 14.9863C0.549062 14.7069 0.329549 14.3708 0.187021 14.0002C0.0445584 13.6297 -0.017744 13.2332 0.00434622 12.8367C0.0401205 12.217 0.280165 11.6287 0.683882 11.1622L0.82446 11.0113L1.07579 10.76C4.19011 8.33019 8.02515 7.00723 11.9752 7.00003ZM11.9779 8.50006C8.50039 8.50637 5.12021 9.62652 2.33039 11.6904L2.062 11.894L1.92184 12.0339L1.8181 12.1438C1.62983 12.3613 1.51847 12.6354 1.50202 12.9202C1.49174 13.1047 1.52074 13.2893 1.58704 13.4618C1.63679 13.5911 1.70671 13.7115 1.79599 13.8205L1.89169 13.9256L3.81457 15.8518L3.93194 15.9582C4.13829 16.1288 4.39246 16.232 4.66004 16.2534C4.91112 16.2736 5.16161 16.2205 5.3818 16.1023L5.456 16.056L5.54323 15.9847L5.67735 15.8855L5.82856 15.7836L6.40081 15.4312C6.72338 15.2412 7.05598 15.0689 7.37966 14.9231C7.46251 14.8845 7.52816 14.8165 7.56398 14.7323C7.59084 14.6692 7.59947 14.6003 7.58971 14.5336L7.57382 14.468L7.2476 13.5176C7.0593 12.9691 7.37555 12.376 7.93592 12.2267L8.85645 11.9814C9.85768 11.7327 10.8852 11.6051 11.928 11.6013C12.9604 11.6051 13.988 11.7328 14.9887 11.9814L15.4159 12.0953L15.8595 12.2218C16.3607 12.3647 16.6681 12.8686 16.5659 13.3796L16.3828 14.295L16.3519 14.4211L16.3214 14.5198C16.3026 14.5972 16.3093 14.6787 16.3405 14.7522C16.3764 14.8364 16.442 14.9044 16.5158 14.9388C16.964 15.1442 17.398 15.3791 17.8144 15.6415C18.0303 15.7775 18.247 15.9294 18.4094 16.0559C18.6635 16.2353 18.9734 16.318 19.2833 16.2893C19.5489 16.2646 19.7994 16.1594 20.0117 15.9794L20.1146 15.8833L22.0711 13.9276L22.1732 13.8213C22.2764 13.7043 22.3579 13.5697 22.4137 13.4239C22.4808 13.2486 22.5093 13.061 22.4973 12.8738C22.4854 12.6865 22.4332 12.504 22.3443 12.3388C22.2555 12.1735 22.1321 12.0293 21.9699 11.9063C19.2203 9.77718 15.8641 8.5872 12.3948 8.50464L11.9779 8.50006Z" fill="#18202A"/>
</svg>
