<svg width="24" height="24" viewBox="0 0 24 24" fill="none" xmlns="http://www.w3.org/2000/svg">
<path fill-rule="evenodd" clip-rule="evenodd" d="M4 5.75C4 5.33579 4.33579 5 4.75 5H19.25C21.3211 5 23 6.67893 23 8.75V13C23 13.4142 22.6642 13.75 22.25 13.75C21.8358 13.75 21.5 13.4142 21.5 13V8.75C21.5 7.50736 20.4926 6.5 19.25 6.5H4.75C4.33579 6.5 4 6.16421 4 5.75ZM1.75 9.25C2.16421 9.25 2.5 9.58579 2.5 10V18C2.5 19.2426 3.50736 20.25 4.75 20.25H19.25C20.4926 20.25 21.5 19.2426 21.5 18V15C21.5 14.5858 21.8358 14.25 22.25 14.25C22.6642 14.25 23 14.5858 23 15V18C23 20.0711 21.3211 21.75 19.25 21.75H4.75C2.67893 21.75 1 20.0711 1 18V10C1 9.58579 1.33579 9.25 1.75 9.25Z" fill="#18202A"/>
<path fill-rule="evenodd" clip-rule="evenodd" d="M1 5.75C1 3.67893 2.67893 2 4.75 2H16.75C18.2688 2 19.5 3.23122 19.5 4.75V5.75C19.5 6.16421 19.1642 6.5 18.75 6.5C18.3358 6.5 18 6.16421 18 5.75V4.75C18 4.05964 17.4404 3.5 16.75 3.5H4.75C3.50736 3.5 2.5 4.50736 2.5 5.75V9.75C2.5 10.1642 2.16421 10.5 1.75 10.5C1.33579 10.5 1 10.1642 1 9.75V5.75Z" fill="#18202A"/>
<path fill-rule="evenodd" clip-rule="evenodd" d="M11.25 12.75C11.25 11.2312 12.4812 10 14 10H21.25C22.2165 10 23 10.7835 23 11.75V16.25C23 17.2165 22.2165 18 21.25 18H14C12.4812 18 11.25 16.7688 11.25 15.25V12.75ZM14 11.5C13.3096 11.5 12.75 12.0596 12.75 12.75V15.25C12.75 15.9404 13.3096 16.5 14 16.5H21.25C21.3881 16.5 21.5 16.3881 21.5 16.25V11.75C21.5 11.6119 21.3881 11.5 21.25 11.5H14Z" fill="#18202A"/>
<path d="M16 14C16 14.5523 15.5523 15 15 15C14.4477 15 14 14.5523 14 14C14 13.4477 14.4477 13 15 13C15.5523 13 16 13.4477 16 14Z" fill="#18202A"/>
</svg>
