<svg width="24" height="24" viewBox="0 0 24 24" fill="none" xmlns="http://www.w3.org/2000/svg">
<path d="M8.75 2C9.16421 2 9.5 2.33579 9.5 2.75C9.5 3.16421 9.16421 3.5 8.75 3.5H5C4.17157 3.5 3.5 4.17157 3.5 5V8.75C3.5 9.16421 3.16421 9.5 2.75 9.5C2.33579 9.5 2 9.16421 2 8.75V5C2 3.34315 3.34315 2 5 2H8.75Z" fill="#18202A"/>
<path d="M14.5 2.75C14.5 3.16421 14.8358 3.5 15.25 3.5H19C19.8284 3.5 20.5 4.17157 20.5 5V8.75C20.5 9.16421 20.8358 9.5 21.25 9.5C21.6642 9.5 22 9.16421 22 8.75V5C22 3.34315 20.6569 2 19 2H15.25C14.8358 2 14.5 2.33579 14.5 2.75Z" fill="#18202A"/>
<path d="M14.5 21.25C14.5 20.8358 14.8358 20.5 15.25 20.5H19C19.8284 20.5 20.5 19.8284 20.5 19V15.25C20.5 14.8358 20.8358 14.5 21.25 14.5C21.6642 14.5 22 14.8358 22 15.25V19C22 20.6569 20.6569 22 19 22H15.25C14.8358 22 14.5 21.6642 14.5 21.25Z" fill="#18202A"/>
<path d="M3.5 15.25C3.5 14.8358 3.16421 14.5 2.75 14.5C2.33579 14.5 2 14.8358 2 15.25V19C2 20.6569 3.34315 22 5 22H8.75C9.16421 22 9.5 21.6642 9.5 21.25C9.5 20.8358 9.16421 20.5 8.75 20.5H5C4.17157 20.5 3.5 19.8284 3.5 19V15.25Z" fill="#18202A"/>
</svg>
