<svg width="24" height="24" viewBox="0 0 24 24" fill="none" xmlns="http://www.w3.org/2000/svg">
<path fill-rule="evenodd" clip-rule="evenodd" d="M17.0001 19.9995C17.0001 19.4472 16.5524 18.9995 16.0001 18.9995H3.00012C2.44784 18.9995 2.00012 19.4472 2.00012 19.9995C2.00012 20.5518 2.44784 20.9995 3.00012 20.9995H16.0001C16.5524 20.9995 17.0001 20.5518 17.0001 19.9995Z" fill="#18202A"/>
<path fill-rule="evenodd" clip-rule="evenodd" d="M17.0001 3.99951C17.0001 3.44723 16.5524 2.99951 16.0001 2.99951H3.00012C2.44784 2.99951 2.00012 3.44723 2.00012 3.99951C2.00012 4.5518 2.44784 4.99951 3.00012 4.99951H16.0001C16.5524 4.99951 17.0001 4.5518 17.0001 3.99951Z" fill="#18202A"/>
<path d="M17.293 9.70662C16.9025 9.31609 16.9025 8.68293 17.293 8.29241C17.6835 7.90188 18.3167 7.90188 18.7072 8.29241L21.7072 11.2924C21.8748 11.46 21.9704 11.6722 21.9942 11.8907C22.0118 12.0526 21.99 12.218 21.9287 12.3712C21.8872 12.4752 21.8275 12.5736 21.7496 12.6616C21.7343 12.6789 21.7184 12.6956 21.702 12.7119L18.7072 15.7066C18.3167 16.0971 17.6835 16.0971 17.293 15.7066C16.9025 15.3161 16.9025 14.6829 17.293 14.2924L18.5868 12.9986L2.99967 12.9922C2.44739 12.992 1.99986 12.5441 2.00008 11.9918C2.00031 11.4396 2.4482 10.992 3.00049 10.9922L18.585 10.9986L17.293 9.70662Z" fill="#18202A"/>
</svg>
