<svg width="24" height="24" viewBox="0 0 24 24" fill="none" xmlns="http://www.w3.org/2000/svg">
<path fill-rule="evenodd" clip-rule="evenodd" d="M19.5001 10.75C19.5001 10.3358 19.8358 10 20.2501 10C20.6643 10 21.0001 10.3358 21.0001 10.75V19C21.0001 21.2091 19.2092 23 17.0001 23H7.00006C4.79092 23 3.00006 21.2091 3.00006 19V5C3.00006 2.79086 4.79092 1 7.00006 1H16.2501C16.6643 1 17.0001 1.33579 17.0001 1.75C17.0001 2.16421 16.6643 2.5 16.2501 2.5L7.00006 2.5C5.61935 2.5 4.50006 3.61929 4.50006 5L4.50006 19C4.50006 20.3807 5.61935 21.5 7.00006 21.5H17.0001C18.3808 21.5 19.5001 20.3807 19.5001 19V10.75ZM7.75 13C7.33579 13 7 13.3358 7 13.75C7 14.1642 7.33579 14.5 7.75 14.5H12.25C12.6642 14.5 13 14.1642 13 13.75C13 13.3358 12.6642 13 12.25 13H7.75ZM7 17.75C7 17.3358 7.33579 17 7.75 17H16.25C16.6642 17 17 17.3358 17 17.75C17 18.1642 16.6642 18.5 16.25 18.5H7.75C7.33579 18.5 7 18.1642 7 17.75ZM21.5303 4.53033C21.8232 4.23744 21.8232 3.76256 21.5303 3.46967C21.2374 3.17678 20.7626 3.17678 20.4697 3.46967L14.9947 8.94467L12.6678 6.66434C12.372 6.37442 11.8971 6.37922 11.6072 6.67505C11.3173 6.97089 11.3221 7.44574 11.6179 7.73566L14.4751 10.5357C14.7688 10.8235 15.2396 10.8211 15.5304 10.5303L21.5303 4.53033Z" fill="#18202A"/>
</svg>
