<svg width="24" height="24" viewBox="0 0 24 24" fill="none" xmlns="http://www.w3.org/2000/svg">
<path fill-rule="evenodd" clip-rule="evenodd" d="M6 5.5H9C9.27614 5.5 9.5 5.72386 9.5 6V18C9.5 18.2761 9.27614 18.5 9 18.5H6C5.72386 18.5 5.5 18.2761 5.5 18V6C5.5 5.72386 5.72386 5.5 6 5.5ZM4 6C4 4.89543 4.89543 4 6 4H9C10.1046 4 11 4.89543 11 6V18C11 19.1046 10.1046 20 9 20H6C4.89543 20 4 19.1046 4 18V6ZM15 5.5H18C18.2761 5.5 18.5 5.72386 18.5 6V18C18.5 18.2761 18.2761 18.5 18 18.5H15C14.7239 18.5 14.5 18.2761 14.5 18V6C14.5 5.72386 14.7239 5.5 15 5.5ZM13 6C13 4.89543 13.8954 4 15 4H18C19.1046 4 20 4.89543 20 6V18C20 19.1046 19.1046 20 18 20H15C13.8954 20 13 19.1046 13 18V6Z" fill="#18202A"/>
</svg>
