<svg width="24" height="24" viewBox="0 0 24 24" fill="none" xmlns="http://www.w3.org/2000/svg">
<path fill-rule="evenodd" clip-rule="evenodd" d="M5 1C2.79086 1 1 2.79086 1 5V19C1 21.2091 2.79086 23 5 23H19C21.2091 23 23 21.2091 23 19V5C23 2.79086 21.2091 1 19 1H5ZM6 4C4.89543 4 4 4.89543 4 6C4 7.10457 4.89543 8 6 8C7.10457 8 8 7.10457 8 6C8 4.89543 7.10457 4 6 4ZM10 6C10 5.44772 10.4477 5 11 5H19C19.5523 5 20 5.44772 20 6C20 6.55228 19.5523 7 19 7H11C10.4477 7 10 6.55228 10 6ZM5 11C4.44772 11 4 11.4477 4 12V19C4 19.5523 4.44772 20 5 20H19C19.5523 20 20 19.5523 20 19V12C20 11.4477 19.5523 11 19 11H5Z" fill="#18202A"/>
</svg>
