<svg width="24" height="24" viewBox="0 0 24 24" fill="none" xmlns="http://www.w3.org/2000/svg">
<g clip-path="url(#clip0_3750_8782)">
<path d="M9.20319 3.9993L9.25024 3.99805L9.29599 3.99926C9.31843 4.00055 9.34091 4.00288 9.36337 4.00628L9.37945 4.01009C9.46486 4.02381 9.54974 4.05432 9.63063 4.10224L9.6825 4.13578L14.6378 7.62017C14.7068 7.66869 14.7989 7.6687 14.8679 7.62018L19.8199 4.13913C20.2876 3.81034 20.9213 4.10586 20.9943 4.6482L21.0012 4.75269V15.3852C21.0012 15.5945 20.9138 15.7926 20.7631 15.9334L20.6825 15.9988L15.1825 19.8652C14.9156 20.0528 14.5947 20.0371 14.3547 19.8883L9.36489 16.378C9.29587 16.3294 9.2038 16.3294 9.13477 16.378L4.18016 19.8618C3.71245 20.1906 3.07871 19.8951 3.00577 19.3527L2.99884 19.2483V8.61572C2.99884 8.4064 3.08619 8.20832 3.23696 8.06755L3.31752 8.00216L8.81752 4.13578C8.88152 4.09079 8.94863 4.05749 9.01699 4.03491L9.13946 4.0069L9.20319 3.9993ZM19.5012 6.58177C19.5012 6.41978 19.3187 6.32499 19.1862 6.41815L15.5862 8.94887C15.5329 8.98632 15.5012 9.04736 15.5012 9.11249V17.4225C15.5012 17.5845 15.6837 17.6793 15.8162 17.5861L19.4162 15.0554C19.4695 15.018 19.5012 14.9569 19.5012 14.8918V6.58177ZM8.49884 6.57842C8.49884 6.41644 8.31634 6.32165 8.18382 6.41481L4.58382 8.94552C4.53055 8.98298 4.49884 9.04402 4.49884 9.10914V17.4192C4.49884 17.5812 4.68134 17.676 4.81386 17.5828L8.41386 15.0521C8.46713 15.0146 8.49884 14.9536 8.49884 14.8885V6.57842ZM10.3162 6.4148C10.1837 6.32165 10.0012 6.41644 10.0012 6.57842V14.8885C10.0012 14.9536 10.0329 15.0146 10.0862 15.0521L13.6862 17.5828C13.8187 17.676 14.0012 17.5812 14.0012 17.4192V9.10914C14.0012 9.04402 13.9695 8.98298 13.9162 8.94552L10.3162 6.4148Z" fill="#18202A"/>
</g>
<defs>
<clipPath id="clip0_3750_8782">
<rect width="24" height="24" fill="white"/>
</clipPath>
</defs>
</svg>
