<svg width="24" height="24" viewBox="0 0 24 24" fill="none" xmlns="http://www.w3.org/2000/svg">
<path d="M15 7.5C15 10 14 12 12 12C10 12 9 10 9 7.5C9 5.5 10 4 12 4C14 4 15 5.5 15 7.5Z" fill="#18202A"/>
<path d="M17.5584 19.6466C17.0265 20.8099 15.9343 21.6154 14.669 21.8035C13.7981 21.9329 12.9069 22 12 22C11.0931 22 10.2019 21.9329 9.33097 21.8035C8.06571 21.6154 6.97352 20.8099 6.44156 19.6466C6.25385 19.2361 6.08299 18.8163 5.92987 18.388C5.40627 16.9237 5.84449 15.253 7.15423 14.4146C8.55303 13.5191 10.2159 13 12 13C13.7841 13 15.447 13.5191 16.8458 14.4146C18.1555 15.253 18.5937 16.9237 18.0701 18.388C17.917 18.8163 17.7461 19.2361 17.5584 19.6466Z" fill="#18202A"/>
<path d="M5 12C6.33333 12 7 10.75 7 9.1875C7 7.9375 6.33333 7 5 7C3.66667 7 3 7.9375 3 9.1875C3 10.75 3.66667 12 5 12Z" fill="#18202A"/>
<path d="M21 9.1875C21 10.75 20.3333 12 19 12C17.6667 12 17 10.75 17 9.1875C17 7.9375 17.6667 7 19 7C20.3333 7 21 7.9375 21 9.1875Z" fill="#18202A"/>
<path d="M4.04664 19.0616C3.45915 17.4186 3.64598 15.4911 4.69843 14.0298C3.74378 14.1117 2.83701 14.3612 2.0077 14.7488C0.84064 15.2943 0.369715 16.6721 0.763722 17.8986C1.10845 18.9717 2.04458 19.7256 3.16322 19.8637C3.57177 19.9141 3.98455 19.9508 4.40109 19.9734C4.27498 19.6736 4.15675 19.3695 4.04664 19.0616Z" fill="#18202A"/>
<path d="M19.6042 19.9608C19.7283 19.6651 19.8448 19.3652 19.9534 19.0616C20.5379 17.4268 20.3559 15.5103 19.3173 14.0517C20.3224 14.1659 21.2711 14.4664 22.1278 14.9178C23.1987 15.482 23.6121 16.7765 23.2397 17.9281C22.9108 18.9451 22.0316 19.667 20.9735 19.8182C20.5223 19.8827 20.0656 19.9305 19.6042 19.9608Z" fill="#18202A"/>
</svg>
