<svg width="24" height="24" viewBox="0 0 24 24" fill="none" xmlns="http://www.w3.org/2000/svg">
<path d="M6 3H5C3.34315 3 2 4.34315 2 6V7C2 8.65685 3.34315 10 5 10H6C7.65685 10 9 8.65685 9 7V6C9 4.34315 7.65685 3 6 3Z" fill="#18202A"/>
<path d="M6 14H5C3.34315 14 2 15.3431 2 17V18C2 19.6569 3.34315 21 5 21H6C7.65685 21 9 19.6569 9 18V17C9 15.3431 7.65685 14 6 14Z" fill="#18202A"/>
<path fill-rule="evenodd" clip-rule="evenodd" d="M11 5C11 4.44772 11.4477 4 12 4H21C21.5523 4 22 4.44772 22 5C22 5.55228 21.5523 6 21 6H12C11.4477 6 11 5.55228 11 5Z" fill="#18202A"/>
<path fill-rule="evenodd" clip-rule="evenodd" d="M11 8C11 7.44772 11.4477 7 12 7H21C21.5523 7 22 7.44772 22 8C22 8.55228 21.5523 9 21 9H12C11.4477 9 11 8.55228 11 8Z" fill="#18202A"/>
<path fill-rule="evenodd" clip-rule="evenodd" d="M11 16C11 15.4477 11.4477 15 12 15H21C21.5523 15 22 15.4477 22 16C22 16.5523 21.5523 17 21 17H12C11.4477 17 11 16.5523 11 16Z" fill="#18202A"/>
<path fill-rule="evenodd" clip-rule="evenodd" d="M11 19C11 18.4477 11.4477 18 12 18H21C21.5523 18 22 18.4477 22 19C22 19.5523 21.5523 20 21 20H12C11.4477 20 11 19.5523 11 19Z" fill="#18202A"/>
</svg>
