<svg width="24" height="24" viewBox="0 0 24 24" fill="none" xmlns="http://www.w3.org/2000/svg">
<path fill-rule="evenodd" clip-rule="evenodd" d="M8 4C7.44772 4 7 4.44772 7 5V19C7 19.5523 7.44772 20 8 20H14.5C16.9853 20 19 17.9853 19 15.5C19 13.5575 17.7692 11.9025 16.0449 11.2722C16.6433 10.5081 17 9.54573 17 8.5C17 6.01472 14.9853 4 12.5 4H8ZM12.5 11C13.8807 11 15 9.88071 15 8.5C15 7.11929 13.8807 6 12.5 6H9V11H12.5ZM17 15.5C17 14.1193 15.8807 13 14.5 13H9V18H14.5C15.8807 18 17 16.8807 17 15.5Z" fill="#18202A"/>
</svg>
