<svg width="24" height="24" viewBox="0 0 24 24" fill="none" xmlns="http://www.w3.org/2000/svg">
<path fill-rule="evenodd" clip-rule="evenodd" d="M9.47673 13.9356C10.0409 12.0129 10.2019 9.62576 9.99985 6.9694C9.98343 5.32664 8.64664 4 7 4H6C4.34315 4 3 5.34315 3 7V8C3 9.65685 4.34315 11 6 11C6.70537 11 7.27846 11.126 7.62673 11.4356C7.91931 11.6956 8.22958 12.2521 8.01809 13.5784C7.90475 13.9551 7.77489 14.3057 7.62897 14.6288C6.84661 16.3612 5.64135 17.25 4 17.25C3.58579 17.25 3.25 17.5858 3.25 18C3.25 18.4142 3.58579 18.75 4 18.75C6.35865 18.75 8.02839 17.3889 8.99603 15.2462C9.18582 14.826 9.36294 14.3833 9.47673 13.9356Z" fill="#18202A"/>
<path fill-rule="evenodd" clip-rule="evenodd" d="M20.4767 13.9355C21.0409 12.0129 21.2019 9.62575 20.9998 6.96939C20.9834 5.32663 19.6466 4 18 4H17C15.3431 4 14 5.34315 14 7V8C14 9.65685 15.3431 11 17 11C17.7054 11 18.2785 11.126 18.6267 11.4356C18.9193 11.6956 19.2296 12.2521 19.0181 13.5784C18.9048 13.9551 18.7749 14.3057 18.629 14.6288C17.8466 16.3612 16.6413 17.25 15 17.25C14.5858 17.25 14.25 17.5858 14.25 18C14.25 18.4142 14.5858 18.75 15 18.75C17.3587 18.75 19.0284 17.3889 19.996 15.2462C20.1858 14.826 20.3629 14.3833 20.4767 13.9355Z" fill="#18202A"/>
</svg>
