<svg width="24" height="24" viewBox="0 0 24 24" fill="none" xmlns="http://www.w3.org/2000/svg">
<path d="M1 7.99977C1 6.34292 2.34315 4.99977 4 4.99977H20C21.6569 4.99977 23 6.34292 23 7.99977V10.9998H1V7.99977Z" fill="#18202A"/>
<path fill-rule="evenodd" clip-rule="evenodd" d="M11.6473 2.26157C12.4022 3.40615 12.8072 4.93636 12.9806 5.8035L13.1304 6.55246L12.4472 6.89404C10.0556 8.08985 7.85686 7.42481 6.70285 5.98513C6.14318 5.28692 5.82765 4.39346 5.92411 3.48644C6.02365 2.55051 6.55305 1.70154 7.48555 1.1421C8.32076 0.641023 9.18047 0.520413 9.98338 0.820955C10.7307 1.1007 11.2686 1.6875 11.6473 2.26157ZM9.28225 2.69403C9.15287 2.6456 8.92925 2.60829 8.51446 2.85713C8.09111 3.11112 7.94258 3.41886 7.9129 3.69795C7.88014 4.00594 7.98409 4.3858 8.26338 4.73424C8.70477 5.28489 9.59559 5.7418 10.8271 5.39119C10.6369 4.70555 10.3546 3.93409 9.97774 3.36278C9.71055 2.95771 9.4672 2.76326 9.28225 2.69403Z" fill="#18202A"/>
<path fill-rule="evenodd" clip-rule="evenodd" d="M12.3527 2.26157C11.5978 3.40615 11.1928 4.93636 11.0194 5.8035L10.8696 6.55246L11.5528 6.89404C13.9444 8.08985 16.1431 7.42481 17.2972 5.98513C17.8568 5.28692 18.1724 4.39346 18.0759 3.48644C17.9763 2.55051 17.447 1.70154 16.5145 1.1421C15.6792 0.641023 14.8195 0.520413 14.0166 0.820955C13.2693 1.1007 12.7314 1.6875 12.3527 2.26157ZM14.7177 2.69403C14.8471 2.6456 15.0708 2.60829 15.4855 2.85713C15.9089 3.11112 16.0574 3.41886 16.0871 3.69795C16.1199 4.00594 16.0159 4.3858 15.7366 4.73424C15.2952 5.28489 14.4044 5.7418 13.1729 5.39119C13.3631 4.70555 13.6454 3.93409 14.0223 3.36278C14.2894 2.95771 14.5328 2.76326 14.7177 2.69403Z" fill="#18202A"/>
<path d="M2 12.9998H11V22.9998H5C3.34315 22.9998 2 21.6566 2 19.9998V12.9998Z" fill="#18202A"/>
<path d="M13 12.9998H22V19.9998C22 21.6566 20.6569 22.9998 19 22.9998H13V12.9998Z" fill="#18202A"/>
</svg>
