<svg width="24" height="24" viewBox="0 0 24 24" fill="none" xmlns="http://www.w3.org/2000/svg">
<path d="M14.0909 3C14.4941 3 14.9749 3.3608 14.9991 4H16.9996C16.9739 2.33855 15.6815 1 14.0909 1H2.90909C1.30244 1 0 2.36573 0 4.05045V10.914C0 12.087 0.631404 13.1053 1.55727 13.6158C1.96116 13.8384 2.42109 13.9644 2.90909 13.9644H3.30578L2.8841 16.0792C2.75454 16.7289 3.42357 17.23 3.96767 16.8907L6 15.6236V13.2667L5.41106 13.6339L5.74396 11.9644H2.90909C2.49538 11.9644 2 11.5846 2 10.914V4.05045C2 3.37981 2.49538 3 2.90909 3H14.0909Z" fill="#18202A"/>
<path d="M24 9.2411C24 7.45109 22.6976 6 21.0909 6H10.9091C9.30244 6 8 7.45109 8 9.2411V16.5336C8 18.3236 9.30244 19.7747 10.9091 19.7747H15.3388L20.0323 22.8839C20.5764 23.2444 21.2455 22.7119 21.1159 22.0216L20.6942 19.7747H21.0909C22.6976 19.7747 24 18.3236 24 16.5336V9.2411Z" fill="#18202A"/>
</svg>
