<svg width="24" height="24" viewBox="0 0 24 24" fill="none" xmlns="http://www.w3.org/2000/svg">
<path d="M7 4H11C12.6569 4 14 5.34315 14 7C14 7.55228 14.4477 8 15 8C15.5523 8 16 7.55228 16 7C16 4.23858 13.7614 2 11 2H7C4.23858 2 2 4.23858 2 7V17C2 19.7614 4.23858 22 7 22H11C13.7614 22 16 19.7614 16 17C16 16.4477 15.5523 16 15 16C14.4477 16 14 16.4477 14 17C14 18.6569 12.6569 20 11 20H7C5.34315 20 4 18.6569 4 17V7C4 5.34315 5.34315 4 7 4Z" fill="#18202A"/>
<path fill-rule="evenodd" clip-rule="evenodd" d="M17.2929 8.29289C17.6834 7.90237 18.3166 7.90237 18.7071 8.29289L21.7071 11.2929C22.0976 11.6834 22.0976 12.3166 21.7071 12.7071L18.7071 15.7071C18.3166 16.0976 17.6834 16.0976 17.2929 15.7071C16.9024 15.3166 16.9024 14.6834 17.2929 14.2929L18.5858 13H9C8.44772 13 8 12.5523 8 12C8 11.4477 8.44772 11 9 11H18.5858L17.2929 9.70711C16.9024 9.31658 16.9024 8.68342 17.2929 8.29289Z" fill="#18202A"/>
</svg>
