<svg width="24" height="24" viewBox="0 0 24 24" fill="none" xmlns="http://www.w3.org/2000/svg">
<g clip-path="url(#clip0_3075_8841)">
<path d="M23.7173 2.69679C24.1021 2.30064 24.0929 1.66755 23.6968 1.28272C23.3006 0.897897 22.6675 0.907072 22.2827 1.30321L13.3061 10.5438L9.73654 6.65693C9.36297 6.25015 8.73037 6.22324 8.3236 6.5968C7.91683 6.97037 7.88991 7.60296 8.26348 8.00974L12.5492 12.6764C12.7353 12.879 12.9966 12.996 13.2717 12.9999C13.5468 13.0038 13.8113 12.8941 14.003 12.6968L23.7173 2.69679Z" fill="#18202A"/>
<path d="M1 6C1 3.79086 2.79086 2 5 2H18.8175L13.347 7.63147L11.2096 5.30412C10.0889 4.0838 8.19112 4.00304 6.9708 5.12374C5.75048 6.24445 5.66972 8.14223 6.79043 9.36255L11.0761 14.0292C11.6344 14.6371 12.4184 14.9881 13.2437 14.9997C14.0689 15.0113 14.8625 14.6823 15.4376 14.0904L23 6.3055V15C23 17.2091 21.2091 19 19 19H12.9091L6.45554 22.8372C5.70741 23.2821 4.7875 22.625 4.96564 21.773L5.54545 19H5C2.79086 19 1 17.2091 1 15V6Z" fill="#18202A"/>
</g>
<defs>
<clipPath id="clip0_3075_8841">
<rect width="24" height="24" fill="white"/>
</clipPath>
</defs>
</svg>
