<svg width="24" height="24" viewBox="0 0 24 24" fill="none" xmlns="http://www.w3.org/2000/svg">
<path fill-rule="evenodd" clip-rule="evenodd" d="M12 11C14.6667 11 16 8.5 16 5.375C16 2.875 14.6667 1 12 1C9.33333 1 8 2.875 8 5.375C8 8.5 9.33333 11 12 11ZM12 13C12.0843 13 12.1684 13.001 12.2521 13.0031C11.1557 14.3722 10.5 16.1095 10.5 18C10.5 19.8911 11.1562 21.6289 12.2532 22.9983C12.169 22.9994 12.0846 23 12 23C10.4526 23 8.95082 22.8047 7.51793 22.4375C6.29889 22.1251 5.2657 21.3086 4.69986 20.1845C4.6842 20.1534 4.66863 20.1222 4.65317 20.091C3.87094 18.5114 4.13694 16.5761 5.47167 15.4248C7.22347 13.9137 9.50505 13 12 13ZM17.8915 12C17.4091 12 16.9954 12.3445 16.9081 12.819L16.8086 13.359C16.2087 13.5663 15.6614 13.8867 15.1924 14.2947L14.6723 14.1098C14.2177 13.9482 13.7125 14.1342 13.4713 14.552L12.954 15.448C12.7128 15.8658 12.8043 16.3963 13.1715 16.7092L13.5921 17.0675C13.534 17.3694 13.5036 17.6812 13.5036 18C13.5036 18.3189 13.534 18.6306 13.5921 18.9325L13.1715 19.2908C12.8043 19.6037 12.7128 20.1342 12.954 20.552L13.4713 21.448C13.7126 21.8658 14.2177 22.0518 14.6723 21.8902L15.1924 21.7053C15.6614 22.1133 16.2087 22.4337 16.8086 22.641L16.9081 23.181C16.9954 23.6555 17.4091 24 17.8915 24H18.9261C19.4086 24 19.8222 23.6555 19.9096 23.181L20.0085 22.6439C20.6107 22.437 21.1601 22.1162 21.6308 21.7073L22.1454 21.8902C22.6 22.0518 23.1051 21.8658 23.3463 21.448L23.8636 20.552C24.1049 20.1342 24.0134 19.6037 23.6461 19.2908L23.2323 18.9382C23.291 18.6345 23.3218 18.3209 23.3218 18C23.3218 17.6791 23.291 17.3655 23.2323 17.0618L23.6461 16.7092C24.0134 16.3963 24.1049 15.8658 23.8636 15.448L23.3463 14.552C23.1051 14.1342 22.6 13.9482 22.1454 14.1098L21.6308 14.2927C21.1601 13.8838 20.6107 13.563 20.0085 13.3561L19.9096 12.819C19.8222 12.3445 19.4086 12 18.9261 12H17.8915ZM18.4082 20C19.5127 20 20.4082 19.1046 20.4082 18C20.4082 16.8954 19.5127 16 18.4082 16C17.3036 16 16.4082 16.8954 16.4082 18C16.4082 19.1046 17.3036 20 18.4082 20Z" fill="#18202A"/>
</svg>
