<svg width="24" height="24" viewBox="0 0 24 24" fill="none" xmlns="http://www.w3.org/2000/svg">
<path fill-rule="evenodd" clip-rule="evenodd" d="M12.1425 16.7107C12.3744 16.5728 12.6393 16.5 12.9091 16.5H19C20.3807 16.5 21.5 15.3807 21.5 14V5C21.5 3.61929 20.3807 2.5 19 2.5H5C3.61929 2.5 2.5 3.61929 2.5 5V14C2.5 15.3807 3.61929 16.5 5 16.5H5.54545C5.99714 16.5 6.42477 16.7035 6.70961 17.0541C6.99444 17.4046 7.10615 17.8649 7.0137 18.307L6.6667 19.9666L12.1425 16.7107ZM12.9091 18H19C21.2091 18 23 16.2091 23 14V5C23 2.79086 21.2091 1 19 1H5C2.79086 1 1 2.79086 1 5V14C1 15.8773 2.29322 17.4525 4.03739 17.8834C4.34572 17.9596 4.66814 18 5 18H5.54545L4.96564 20.773C4.7875 21.625 5.70741 22.2821 6.45554 21.8372L12.9091 18ZM7 7.75C7 7.33579 7.33579 7 7.75 7H16.25C16.6642 7 17 7.33579 17 7.75C17 8.16421 16.6642 8.5 16.25 8.5H7.75C7.33579 8.5 7 8.16421 7 7.75ZM7.75 11C7.33579 11 7 11.3358 7 11.75C7 12.1642 7.33579 12.5 7.75 12.5H13.25C13.6642 12.5 14 12.1642 14 11.75C14 11.3358 13.6642 11 13.25 11H7.75Z" fill="#18202A"/>
</svg>
