<svg width="24" height="24" viewBox="0 0 24 24" fill="none" xmlns="http://www.w3.org/2000/svg">
<path fill-rule="evenodd" clip-rule="evenodd" d="M10.287 2.30711C10.5673 2.4232 10.75 2.69668 10.75 3.00002V7.26304C13.4226 7.35688 16.2853 7.97716 18.5582 9.73127C21.082 11.679 22.75 14.9229 22.75 20C22.75 20.3385 22.5233 20.635 22.1967 20.7238C21.8701 20.8125 21.5245 20.6716 21.3532 20.3797C20.0132 18.0967 18.9757 16.7565 17.4456 15.936C16.0018 15.1618 14.0269 14.8012 10.75 14.7551V19C10.75 19.3034 10.5673 19.5768 10.287 19.6929C10.0068 19.809 9.68417 19.7449 9.46967 19.5304L1.46967 11.5304C1.17678 11.2375 1.17678 10.7626 1.46967 10.4697L9.46967 2.46969C9.68417 2.25519 10.0068 2.19103 10.287 2.30711ZM3.06066 11L9.25 17.1894V14C9.25 13.5858 9.58579 13.25 10 13.25C13.7686 13.25 16.2552 13.5956 18.1544 14.6141C19.31 15.2337 20.2093 16.0817 21.0387 17.1639C20.5507 14.1221 19.262 12.1691 17.6418 10.9188C15.529 9.28822 12.7223 8.75002 10 8.75002C9.58579 8.75002 9.25 8.41424 9.25 8.00002V4.81068L3.06066 11Z" fill="#18202A"/>
</svg>
