<svg width="24" height="24" viewBox="0 0 24 24" fill="none" xmlns="http://www.w3.org/2000/svg">
<path fill-rule="evenodd" clip-rule="evenodd" d="M10.2493 4.5C10.2493 4.08579 9.91354 3.75 9.49933 3.75C9.08511 3.75 8.74933 4.08579 8.74933 4.5C8.74933 8.68843 7.90542 10.615 7.10682 11.9412C6.95532 12.1928 6.79365 12.4366 6.63127 12.6815C5.94658 13.714 5.24933 14.7655 5.24933 16.5C5.24933 18.0956 6.15876 19.0514 7.15465 19.5095C7.63802 19.7318 8.14458 19.8414 8.59177 19.8678C9.01478 19.8928 9.47896 19.8487 9.83474 19.6708C10.2052 19.4856 10.3554 19.0351 10.1701 18.6646C9.98491 18.2941 9.5344 18.1439 9.16392 18.3292C9.16406 18.3291 9.16395 18.3292 9.16358 18.3293C9.15919 18.3311 9.11831 18.3475 9.02875 18.3601C8.93746 18.373 8.81896 18.3786 8.68032 18.3704C8.40096 18.3539 8.07939 18.2838 7.78151 18.1468C7.21489 17.8861 6.74933 17.4044 6.74933 16.5C6.74933 15.2504 7.16371 14.6179 7.80057 13.6459C7.98122 13.3702 8.17977 13.0672 8.39184 12.715C9.34324 11.135 10.2493 8.93657 10.2493 4.5ZM15.2493 4.5C15.2493 4.08579 14.9135 3.75 14.4993 3.75C14.0851 3.75 13.7493 4.08579 13.7493 4.5C13.7493 8.93657 14.6554 11.135 15.6068 12.715C15.8189 13.0672 16.0174 13.3702 16.1981 13.6459C16.8349 14.6179 17.2493 15.2504 17.2493 16.5C17.2493 17.4044 16.7838 17.8861 16.2171 18.1468C15.9193 18.2838 15.5977 18.3539 15.3183 18.3704C15.1797 18.3786 15.0612 18.373 14.9699 18.3601C14.8803 18.3475 14.8395 18.3311 14.8351 18.3293C14.8347 18.3292 14.8346 18.3291 14.8347 18.3292C14.4643 18.1439 14.0138 18.2941 13.8285 18.6646C13.6433 19.0351 13.7934 19.4856 14.1639 19.6708C14.5197 19.8487 14.9839 19.8928 15.4069 19.8678C15.8541 19.8414 16.3606 19.7318 16.844 19.5095C17.8399 19.0514 18.7493 18.0956 18.7493 16.5C18.7493 14.7655 18.0521 13.714 17.3674 12.6815C17.205 12.4366 17.0433 12.1928 16.8918 11.9412C16.0932 10.615 15.2493 8.68843 15.2493 4.5ZM11.9998 18.25C12.65 18.2502 13.1566 18.141 13.5755 17.965C13.9887 17.7915 14.2815 17.5662 14.4879 17.4073L14.4887 17.4066C14.7172 17.2308 14.7901 17.183 14.8627 17.16C14.8963 17.1494 14.9949 17.1218 15.2626 17.2111C15.6555 17.3422 16.0803 17.13 16.2114 16.7371C16.3426 16.3442 16.1303 15.9194 15.7374 15.7882C15.2551 15.6273 14.8224 15.5996 14.4107 15.7297C14.0621 15.8399 13.789 16.0514 13.6096 16.1903L13.5738 16.218C13.374 16.3718 13.2138 16.49 12.9948 16.582C12.7809 16.6718 12.475 16.7501 12.0002 16.75C11.5252 16.7499 11.2192 16.6716 11.0052 16.5817C10.786 16.4897 10.6258 16.3715 10.426 16.2178L10.3902 16.1901C10.2108 16.0514 9.93771 15.84 9.58918 15.7299C9.1777 15.6 8.74522 15.6275 8.263 15.7881C7.87001 15.919 7.65754 16.3437 7.78844 16.7366C7.91933 17.1296 8.34402 17.3421 8.73701 17.2112C9.00479 17.122 9.10356 17.1496 9.13739 17.1603C9.21009 17.1832 9.28306 17.2311 9.51148 17.4068L9.51238 17.4075C9.7188 17.5662 10.0115 17.7914 10.4245 17.9648C10.8433 18.1406 11.3498 18.2499 11.9998 18.25Z" fill="#26282C"/>
</svg>
