<svg width="24" height="24" viewBox="0 0 24 24" fill="none" xmlns="http://www.w3.org/2000/svg">
<path fill-rule="evenodd" clip-rule="evenodd" d="M15 7.5C15 10 14 12 12 12C10 12 9.00003 10 9.00003 7.5C9.00003 5.5 10 4 12 4C14 4 15 5.5 15 7.5ZM13.5 7.5C13.5 8.58053 13.2792 9.40296 12.9725 9.90135C12.7036 10.3384 12.4038 10.5 12 10.5C11.5962 10.5 11.2965 10.3384 11.0275 9.90135C10.7208 9.40296 10.5 8.58053 10.5 7.5C10.5 6.72878 10.6948 6.22022 10.9213 5.93704C11.1118 5.69891 11.4144 5.5 12 5.5C12.5857 5.5 12.8882 5.69891 13.0787 5.93704C13.3053 6.22022 13.5 6.72878 13.5 7.5Z" fill="#18202A"/>
<path d="M13.2115 21.9599C12.9749 21.4981 12.7919 21.0043 12.6708 20.4866C12.4484 20.4955 12.2248 20.5 12 20.5C11.1672 20.5 10.3497 20.4384 9.55154 20.3198C8.777 20.2047 8.1218 19.714 7.80573 19.0228C7.63571 18.651 7.48098 18.2708 7.34232 17.883C7.01648 16.9717 7.33096 16.0825 7.96298 15.6779C9.12757 14.9324 10.511 14.5 12 14.5C12.7125 14.5 13.4009 14.599 14.0526 14.7839C14.425 14.3474 14.854 13.9608 15.3285 13.6355C14.2989 13.2255 13.1758 13 12 13C10.2159 13 8.55306 13.5191 7.15426 14.4146C5.84452 15.253 5.4063 16.9237 5.9299 18.388C6.08302 18.8163 6.25388 19.2361 6.44159 19.6466C6.97355 20.8099 8.06574 21.6154 9.331 21.8035C10.2019 21.9329 11.0931 22 12 22C12.4071 22 12.8111 21.9865 13.2115 21.9599Z" fill="#18202A"/>
<path fill-rule="evenodd" clip-rule="evenodd" d="M8.00003 9.625C8.00003 11.5 7.1667 13 5.50003 13C3.83336 13 3.00003 11.5 3.00003 9.625C3.00003 8.125 3.83336 7 5.50003 7C7.1667 7 8.00003 8.125 8.00003 9.625ZM6.50003 9.625C6.50003 10.3679 6.33094 10.8851 6.13681 11.169C5.98355 11.3931 5.81013 11.5 5.50003 11.5C5.18994 11.5 5.01651 11.3931 4.86325 11.169C4.66912 10.8851 4.50003 10.3679 4.50003 9.625C4.50003 9.13975 4.63406 8.87264 4.74614 8.74655C4.83479 8.64682 5.02523 8.5 5.50003 8.5C5.97484 8.5 6.16527 8.64682 6.25392 8.74655C6.366 8.87264 6.50003 9.13975 6.50003 9.625Z" fill="#18202A"/>
<path fill-rule="evenodd" clip-rule="evenodd" d="M17.3579 12.7092C17.8825 12.5727 18.4327 12.5 19 12.5C19.2945 12.5 19.5844 12.5196 19.8685 12.5575C20.6229 11.9781 21 10.8864 21 9.625C21 8.125 20.1667 7 18.5 7C16.8334 7 16 8.125 16 9.625C16 11.0069 16.4527 12.185 17.3579 12.7092ZM19.5 9.625C19.5 10.3679 19.3309 10.8851 19.1368 11.169C18.9836 11.3931 18.8101 11.5 18.5 11.5C18.1899 11.5 18.0165 11.3931 17.8633 11.169C17.6691 10.8851 17.5 10.3679 17.5 9.625C17.5 9.13975 17.6341 8.87264 17.7461 8.74655C17.8348 8.64682 18.0252 8.5 18.5 8.5C18.9748 8.5 19.1653 8.64682 19.2539 8.74655C19.366 8.87264 19.5 9.13975 19.5 9.625Z" fill="#18202A"/>
<path d="M5.36009 14C4.16229 14.0046 3.02655 14.2724 2.00773 14.7486C0.840671 15.2941 0.369745 16.6718 0.763752 17.8983C1.10848 18.9714 2.04462 19.7253 3.16325 19.8634C3.75195 19.9361 4.34944 19.9803 4.95432 19.9947C4.79674 19.6337 4.65096 19.2663 4.51748 18.893C4.46773 18.7539 4.42408 18.6126 4.38658 18.4699C4.03686 18.4489 3.69024 18.4171 3.34703 18.3747C2.79062 18.306 2.35246 17.9394 2.19187 17.4395C1.98759 16.8036 2.27572 16.2791 2.64288 16.1075C3.21156 15.8417 3.82557 15.6556 4.47149 15.5643C4.66058 14.9984 4.95574 14.4652 5.36009 14Z" fill="#18202A"/>
<path fill-rule="evenodd" clip-rule="evenodd" d="M19 24C21.7614 24 24 21.7614 24 19C24 16.2386 21.7614 14 19 14C16.2386 14 14 16.2386 14 19C14 21.7614 16.2386 24 19 24ZM19.75 16.75C19.75 16.3358 19.4142 16 19 16C18.5858 16 18.25 16.3358 18.25 16.75V18.25H16.75C16.3358 18.25 16 18.5858 16 19C16 19.4142 16.3358 19.75 16.75 19.75H18.25V21.25C18.25 21.6642 18.5858 22 19 22C19.4142 22 19.75 21.6642 19.75 21.25V19.75H21.25C21.6642 19.75 22 19.4142 22 19C22 18.5858 21.6642 18.25 21.25 18.25H19.75V16.75Z" fill="#18202A"/>
</svg>
