<svg width="24" height="24" viewBox="0 0 24 24" fill="none" xmlns="http://www.w3.org/2000/svg">
<path fill-rule="evenodd" clip-rule="evenodd" d="M3.26786 2.26786C3.65873 1.87699 4.33427 1.91879 4.77671 2.36124L20.6388 18.2233C21.0812 18.6657 21.123 19.3413 20.7321 19.7321C20.3413 20.123 19.6657 20.0812 19.2233 19.6388L3.36124 3.77671C2.91879 3.33427 2.87699 2.65873 3.26786 2.26786Z" fill="#18202A"/>
<path d="M16.1265 10.8884C16.9221 11.2493 17.6621 11.7113 18.33 12.2581C18.7573 12.6079 19.3876 12.6123 19.7782 12.2218C20.1687 11.8313 20.1712 11.1946 19.7497 10.8377C17.9719 9.33244 15.7501 8.33533 13.3086 8.07053L16.1265 10.8884Z" fill="#18202A"/>
<path d="M12.4183 10.0086L10.5022 8.09256C8.13516 8.38728 5.98209 9.3714 4.25028 10.8377C3.82878 11.1946 3.83129 11.8313 4.22181 12.2218C4.61234 12.6124 5.24263 12.6079 5.66999 12.2581C7.39405 10.8468 9.59813 10 12 10C12.1401 10 12.2795 10.0029 12.4183 10.0086Z" fill="#18202A"/>
<path d="M10.33 5.09191C10.8783 5.03118 11.4355 5 12 5C15.7825 5 19.238 6.40005 21.8766 8.71021C22.2921 9.07402 22.9232 9.07681 23.3137 8.68629C23.7042 8.29577 23.7061 7.66017 23.2934 7.29314C20.2906 4.62242 16.3348 3 12 3C10.8292 3 9.68605 3.11836 8.58185 3.34375L10.33 5.09191Z" fill="#18202A"/>
<path d="M6.36562 3.95595L7.96 5.55033C5.77193 6.16081 3.78557 7.25493 2.1234 8.71022C1.70788 9.07403 1.0768 9.07682 0.686278 8.68629C0.295754 8.29577 0.29387 7.66018 0.706546 7.29314C2.34131 5.83916 4.25855 4.69589 6.36562 3.95595Z" fill="#18202A"/>
<path d="M16.1949 14.3956C16.6368 14.7269 16.6332 15.3668 16.2426 15.7574C15.8521 16.1479 15.223 16.1377 14.763 15.8321C13.9714 15.3063 13.0215 15 12 15C10.9785 15 10.0286 15.3063 9.23701 15.8321C8.77697 16.1377 8.14787 16.1479 7.75735 15.7574C7.36682 15.3668 7.36323 14.7269 7.80512 14.3956C8.97416 13.5192 10.4264 13 12 13C13.5735 13 15.0258 13.5192 16.1949 14.3956Z" fill="#18202A"/>
<path d="M14 20C14 21.1046 13.1046 22 12 22C10.8954 22 9.99999 21.1046 9.99999 20C9.99999 18.8954 10.8954 18 12 18C13.1046 18 14 18.8954 14 20Z" fill="#18202A"/>
</svg>
