<svg width="24" height="24" viewBox="0 0 24 24" fill="none" xmlns="http://www.w3.org/2000/svg">
<path fill-rule="evenodd" clip-rule="evenodd" d="M2.54711 11.8804C3.26176 10.8698 4.55178 9.2374 6.23981 7.87114C7.93808 6.4966 9.90292 5.5 12 5.5C14.0971 5.5 16.0619 6.4966 17.7602 7.87114C19.4482 9.2374 20.7382 10.8698 21.4529 11.8804C21.4831 11.9232 21.4935 11.9641 21.4935 12C21.4935 12.0359 21.4831 12.0768 21.4529 12.1196C20.7382 13.1302 19.4482 14.7626 17.7602 16.1289C16.0619 17.5034 14.0971 18.5 12 18.5C9.90292 18.5 7.93808 17.5034 6.23981 16.1289C4.55178 14.7626 3.26176 13.1302 2.5471 12.1196C2.51688 12.0768 2.50655 12.0359 2.50655 12C2.50655 11.9641 2.51688 11.9232 2.54711 11.8804ZM1.32237 12.9856C0.901269 12.3901 0.90127 11.6099 1.32238 11.0144C2.83469 8.87572 6.84749 4 12 4C17.1525 4 21.1653 8.87572 22.6776 11.0144C23.0987 11.6099 23.0987 12.3901 22.6776 12.9856C21.1653 15.1243 17.1525 20 12 20C6.84749 20 2.83469 15.1243 1.32237 12.9856ZM14.4757 12.3499C14.3055 13.565 13.2619 14.5 12 14.5C10.6193 14.5 9.5 13.3807 9.5 12C9.5 10.7381 10.435 9.69449 11.6501 9.5243C11.2505 9.88997 11 10.4157 11 11C11 12.1046 11.8954 13 13 13C13.5843 13 14.11 12.7495 14.4757 12.3499ZM12 16C14.2091 16 16 14.2091 16 12C16 9.79086 14.2091 8 12 8C9.79086 8 8 9.79086 8 12C8 14.2091 9.79086 16 12 16ZM13.5 11C13.5 11.2761 13.2761 11.5 13 11.5C12.7239 11.5 12.5 11.2761 12.5 11C12.5 10.7239 12.7239 10.5 13 10.5C13.2761 10.5 13.5 10.7239 13.5 11Z" fill="#26282C"/>
</svg>
