<svg width="24" height="24" viewBox="0 0 24 24" fill="none" xmlns="http://www.w3.org/2000/svg">
<path fill-rule="evenodd" clip-rule="evenodd" d="M9.81802 4.93934L11.3787 6.5H19C20.3807 6.5 21.5 7.61929 21.5 9H2.5V7C2.5 5.61929 3.61929 4.5 5 4.5H8.75736C9.15518 4.5 9.53671 4.65804 9.81802 4.93934ZM2.5 10V17C2.5 18.3807 3.61929 19.5 5 19.5H19C20.3807 19.5 21.5 18.3807 21.5 17V10H2.5ZM1 7C1 4.79086 2.79086 3 5 3H8.75736C9.55301 3 10.3161 3.31607 10.8787 3.87868L12 5H19C21.2091 5 23 6.79086 23 9V17C23 19.2091 21.2091 21 19 21H5C2.79086 21 1 19.2091 1 17V7Z" fill="#18202A"/>
</svg>
