<svg width="24" height="24" viewBox="0 0 24 24" fill="none" xmlns="http://www.w3.org/2000/svg">
<path fill-rule="evenodd" clip-rule="evenodd" d="M19.5 19V9.82843C19.5 9.69582 19.4473 9.56864 19.3536 9.47487L12.5251 2.64645C12.4314 2.55268 12.3042 2.5 12.1716 2.5H7C5.61929 2.5 4.5 3.61929 4.5 5V19C4.5 20.3807 5.61929 21.5 7 21.5H17C18.3807 21.5 19.5 20.3807 19.5 19ZM7 1C4.79086 1 3 2.79086 3 5V19C3 21.2091 4.79086 23 7 23H17C19.2091 23 21 21.2091 21 19V9.82843C21 9.29799 20.7893 8.78929 20.4142 8.41421L13.5858 1.58579C13.2107 1.21071 12.702 1 12.1716 1H7Z" fill="#18202A"/>
<path d="M11 1H12.5V11H11V1Z" fill="#18202A"/>
<path d="M11 9.5H21V11H11V9.5Z" fill="#18202A"/>
</svg>
