<svg width="24" height="24" viewBox="0 0 24 24" fill="none" xmlns="http://www.w3.org/2000/svg">
<path fill-rule="evenodd" clip-rule="evenodd" d="M19 2.5H5C3.61929 2.5 2.5 3.61929 2.5 5V19C2.5 20.3807 3.61929 21.5 5 21.5H19C20.3807 21.5 21.5 20.3807 21.5 19V5C21.5 3.61929 20.3807 2.5 19 2.5ZM5 1C2.79086 1 1 2.79086 1 5V19C1 21.2091 2.79086 23 5 23H19C21.2091 23 23 21.2091 23 19V5C23 2.79086 21.2091 1 19 1H5ZM4 6C4 4.89543 4.89543 4 6 4C7.10457 4 8 4.89543 8 6C8 7.10457 7.10457 8 6 8C4.89543 8 4 7.10457 4 6ZM10.75 5.25C10.3358 5.25 10 5.58579 10 6C10 6.41421 10.3358 6.75 10.75 6.75H18.75C19.1642 6.75 19.5 6.41421 19.5 6C19.5 5.58579 19.1642 5.25 18.75 5.25H10.75ZM6 11H18C18.2761 11 18.5 11.2239 18.5 11.5V18C18.5 18.2761 18.2761 18.5 18 18.5H6C5.72386 18.5 5.5 18.2761 5.5 18V11.5C5.5 11.2239 5.72386 11 6 11ZM4 11.5C4 10.3954 4.89543 9.5 6 9.5H18C19.1046 9.5 20 10.3954 20 11.5V18C20 19.1046 19.1046 20 18 20H6C4.89543 20 4 19.1046 4 18V11.5Z" fill="#18202A"/>
</svg>
