<svg width="24" height="24" viewBox="0 0 24 24" fill="none" xmlns="http://www.w3.org/2000/svg">
<path d="M12 11C14.6667 11 16 8.5 16 5.375C16 2.875 14.6667 1 12 1C9.33333 1 8 2.875 8 5.375C8 8.5 9.33333 11 12 11Z" fill="#18202A"/>
<path d="M16.4821 22.4375C17.7011 22.1251 18.7343 21.3086 19.3002 20.1845C19.3081 20.1688 19.316 20.153 19.3238 20.1373C19.3315 20.1218 19.3392 20.1064 19.3469 20.0909C20.1291 18.5113 19.8631 16.576 18.5283 15.4247C16.7766 13.9137 14.495 13 12 13C9.50505 13 7.22347 13.9137 5.47167 15.4248C4.13694 16.5761 3.87094 18.5114 4.65317 20.091C4.66863 20.1222 4.6842 20.1534 4.69986 20.1845C5.2657 21.3086 6.29889 22.1251 7.51793 22.4375C8.95083 22.8047 10.4526 23 12 23C13.5474 23 15.0492 22.8047 16.4821 22.4375Z" fill="#18202A"/>
</svg>
