<svg width="24" height="24" viewBox="0 0 24 24" fill="none" xmlns="http://www.w3.org/2000/svg">
<g clip-path="url(#clip0_2266_33517)">
<path d="M14 9.1875C14 10.75 13.3333 12 12 12C10.6667 12 10 10.75 10 9.1875C10 7.9375 10.6667 7 12 7C13.3333 7 14 7.9375 14 9.1875Z" fill="#18202A"/>
<path d="M8 9.75C8 11 7.5 12 6.5 12C5.5 12 5 11 5 9.75C5 8.75 5.5 8 6.5 8C7.5 8 8 8.75 8 9.75Z" fill="#18202A"/>
<path d="M17.5 12C18.5 12 19 11 19 9.75C19 8.75 18.5 8 17.5 8C16.5 8 16 8.75 16 9.75C16 11 16.5 12 17.5 12Z" fill="#18202A"/>
<path d="M8.34361 13.0643C8.2656 13.1139 8.18864 13.165 8.11278 13.2177C6.93955 14.0318 6.60532 15.5031 7.01353 16.7332C7.04533 16.829 7.07832 16.9243 7.11249 17.019C6.57043 17.0095 6.03669 16.9675 5.51332 16.8948C4.8962 16.8091 4.37312 16.3954 4.1626 15.809C4.11426 15.6743 4.06863 15.5385 4.02577 15.4015C3.80507 14.6959 4.0831 13.921 4.74427 13.5903C5.52315 13.2008 6.40912 12.9805 7.34886 12.9805C7.6883 12.9805 8.02072 13.0092 8.34361 13.0643Z" fill="#18202A"/>
<path d="M16.9868 16.7332C16.9553 16.8279 16.9227 16.9221 16.889 17.0157C17.4451 17 17.9922 16.95 18.528 16.8678C19.1374 16.7743 19.6507 16.361 19.8572 15.7802C19.8924 15.6814 19.9261 15.582 19.9583 15.4819C20.1804 14.7917 19.9245 14.0286 19.2876 13.6819C18.4675 13.2355 17.5186 12.9805 16.5076 12.9805C16.2082 12.9805 15.9143 13.0028 15.6276 13.0459C15.7156 13.1012 15.8022 13.1585 15.8875 13.2177C17.0607 14.0318 17.3949 15.5031 16.9868 16.7332Z" fill="#18202A"/>
<path d="M13.8525 18.8569C14.6139 18.7346 15.2674 18.2453 15.5914 17.5455C15.7603 17.1806 15.9095 16.8044 16.0377 16.4182C16.3275 15.5448 16.0734 14.5639 15.3174 14.0393C14.3723 13.3834 13.2302 13 12.0001 13C10.7701 13 9.628 13.3834 8.68289 14.0393C7.92683 14.5639 7.67279 15.5448 7.96263 16.4182C8.09076 16.8044 8.24001 17.1806 8.40897 17.5455C8.73296 18.2453 9.38644 18.7346 10.1478 18.8569C10.7513 18.9538 11.3699 19.0041 12.0001 19.0041C12.6304 19.0041 13.249 18.9538 13.8525 18.8569Z" fill="#18202A"/>
<path fill-rule="evenodd" clip-rule="evenodd" d="M12 22.5C17.799 22.5 22.5 17.799 22.5 12C22.5 6.20101 17.799 1.5 12 1.5C6.20101 1.5 1.5 6.20101 1.5 12C1.5 17.799 6.20101 22.5 12 22.5ZM12 24C18.6274 24 24 18.6274 24 12C24 5.37258 18.6274 0 12 0C5.37258 0 0 5.37258 0 12C0 18.6274 5.37258 24 12 24Z" fill="#18202A"/>
</g>
<defs>
<clipPath id="clip0_2266_33517">
<rect width="24" height="24" fill="white"/>
</clipPath>
</defs>
</svg>
