<svg width="24" height="24" viewBox="0 0 24 24" fill="none" xmlns="http://www.w3.org/2000/svg">
<path fill-rule="evenodd" clip-rule="evenodd" d="M21 9.82843V11H19.5H12.5H11V9.5V2.5H7C5.61929 2.5 4.5 3.61929 4.5 5V19C4.5 20.3807 5.61929 21.5 7 21.5H11.8657C12.0596 22.0331 12.3278 22.5384 12.6639 23H7C4.79086 23 3 21.2091 3 19V5C3 2.79086 4.79086 1 7 1H11H12.1716C12.702 1 13.2107 1.21071 13.5858 1.58579L20.4142 8.41421C20.7893 8.78929 21 9.29799 21 9.82843ZM12.5 9.5H19.377C19.3695 9.49139 19.3617 9.483 19.3536 9.47487L12.5251 2.64645C12.517 2.63832 12.5086 2.63049 12.5 2.62299V9.5ZM19.7515 21.5998L22.7145 18.6358V18.6398C22.8567 18.5073 23.0448 18.4352 23.2391 18.4386C23.4334 18.442 23.6188 18.5207 23.7562 18.6582C23.8936 18.7956 23.9723 18.981 23.9757 19.1753C23.9791 19.3696 23.907 19.5576 23.7745 19.6998L20.8115 22.6598C19.9533 23.5179 18.7893 23.9999 17.5757 23.9998C16.362 23.9997 15.1981 23.5175 14.34 22.6593C13.4819 21.801 12.9999 20.6371 13 19.4234C13.0001 18.2098 13.4823 17.0459 14.3405 16.1878L17.5605 12.9668C18.1796 12.3478 19.0191 12 19.8945 12C20.77 12 21.6095 12.3478 22.2285 12.9668C22.8476 13.5858 23.1953 14.4254 23.1953 15.3008C23.1953 16.1762 22.8476 17.0158 22.2285 17.6348L19.2665 20.5998C18.8864 20.9802 18.3706 21.1941 17.8327 21.1943C17.2949 21.1944 16.779 20.981 16.3985 20.6008C16.0181 20.2206 15.8042 19.7048 15.8041 19.167C15.8039 18.6291 16.0174 18.1132 16.3975 17.7328L18.5915 15.5398C18.6602 15.4661 18.743 15.407 18.835 15.366C18.927 15.325 19.0263 15.303 19.127 15.3012C19.2277 15.2994 19.3278 15.3179 19.4211 15.3557C19.5145 15.3934 19.5994 15.4495 19.6706 15.5207C19.7418 15.592 19.7979 15.6768 19.8357 15.7702C19.8734 15.8636 19.8919 15.9636 19.8901 16.0643C19.8884 16.165 19.8663 16.2643 19.8253 16.3563C19.7843 16.4483 19.7252 16.5311 19.6515 16.5998L17.4625 18.7928C17.3647 18.8916 17.3097 19.0251 17.3097 19.1643C17.3097 19.3034 17.3647 19.4369 17.4625 19.5358C17.5611 19.6342 17.6948 19.6894 17.834 19.6894C17.9733 19.6894 18.1069 19.6342 18.2055 19.5358L21.1685 16.5738C21.3359 16.4066 21.4687 16.2081 21.5592 15.9896C21.6498 15.7711 21.6965 15.5368 21.6965 15.3003C21.6965 15.0637 21.6498 14.8295 21.5592 14.611C21.4687 14.3925 21.3359 14.1939 21.1685 14.0268C20.8251 13.6999 20.3692 13.5175 19.895 13.5175C19.4209 13.5175 18.9649 13.6999 18.6215 14.0268L15.3975 17.2488C14.8206 17.8262 14.4966 18.6091 14.4969 19.4253C14.4971 20.2416 14.8217 21.0243 15.399 21.6013C15.9764 22.1783 16.7593 22.5022 17.5756 22.502C18.3919 22.5017 19.1746 22.1772 19.7515 21.5998Z" fill="#18202A"/>
</svg>
