<svg width="24" height="24" viewBox="0 0 24 24" fill="none" xmlns="http://www.w3.org/2000/svg">
<path fill-rule="evenodd" clip-rule="evenodd" d="M13.5961 2.85115C13.0784 2.78457 12.5463 2.75 12 2.75C11.4541 2.75 10.9225 2.78451 10.4052 2.85098L10.6782 4.32906C11.1085 4.27688 11.5491 4.25 12 4.25C12.4514 4.25 12.8924 4.27693 13.3231 4.32922L13.5961 2.85115ZM14.7957 4.61517L15.0691 3.13477C16.0005 3.37552 16.8802 3.72311 17.7081 4.16003L16.9159 5.4392C16.2435 5.09279 15.5367 4.81493 14.7957 4.61517ZM21.8897 9.93593C21.5921 9.5193 21.2809 9.11882 20.9562 8.73686L22.0193 7.67288C22.4026 8.11728 22.7662 8.58237 23.1103 9.06407C23.3511 9.40113 23.273 9.86954 22.9359 10.1103C22.5989 10.3511 22.1305 10.273 21.8897 9.93593ZM19.9319 7.63977L20.9916 6.57925C20.3689 5.97274 19.7025 5.42022 18.9923 4.93528L18.2019 6.21159C18.811 6.63185 19.3877 7.11083 19.9319 7.63977ZM1.98567 7.66709C1.60059 8.11324 1.23527 8.58028 0.889697 9.06407C0.64894 9.40113 0.727009 9.86954 1.06407 10.1103C1.40113 10.3511 1.86954 10.273 2.1103 9.93593C2.4094 9.51718 2.72222 9.11475 3.04874 8.73103L1.98567 7.66709ZM4.07352 7.63446L3.01385 6.57393C3.61035 5.99348 4.24694 5.46257 4.92363 4.99313L5.71431 6.2699C5.1381 6.67455 4.59116 7.13192 4.07352 7.63446ZM6.2018 4.20806C7.05627 3.74833 7.96641 3.38395 8.93222 3.13444L9.20559 4.61483C8.43069 4.8236 7.6933 5.11777 6.99346 5.48642L6.2018 4.20806ZM2.54711 13.8804C3.26176 12.8698 4.55178 11.2374 6.23981 9.87114C7.93808 8.4966 9.90292 7.5 12 7.5C14.0971 7.5 16.0619 8.4966 17.7602 9.87114C19.4482 11.2374 20.7382 12.8698 21.4529 13.8804C21.4831 13.9232 21.4935 13.9641 21.4935 14C21.4935 14.0359 21.4831 14.0768 21.4529 14.1196C20.7382 15.1302 19.4482 16.7626 17.7602 18.1289C16.0619 19.5034 14.0971 20.5 12 20.5C9.90292 20.5 7.93808 19.5034 6.23981 18.1289C4.55178 16.7626 3.26176 15.1302 2.5471 14.1196C2.51688 14.0768 2.50655 14.0359 2.50655 14C2.50655 13.9641 2.51688 13.9232 2.54711 13.8804ZM1.32237 14.9856C0.901269 14.3901 0.90127 13.6099 1.32238 13.0144C2.83469 10.8757 6.84749 6 12 6C17.1525 6 21.1653 10.8757 22.6776 13.0144C23.0987 13.6099 23.0987 14.3901 22.6776 14.9856C21.1653 17.1243 17.1525 22 12 22C6.84749 22 2.83469 17.1243 1.32237 14.9856ZM14.5 14C14.5 15.3807 13.3807 16.5 12 16.5C10.6193 16.5 9.5 15.3807 9.5 14C9.5 12.6193 10.6193 11.5 12 11.5C13.3807 11.5 14.5 12.6193 14.5 14ZM12 18C14.2091 18 16 16.2091 16 14C16 11.7909 14.2091 10 12 10C9.79086 10 8 11.7909 8 14C8 16.2091 9.79086 18 12 18Z" fill="#26282C"/>
</svg>
