<svg width="24" height="24" viewBox="0 0 24 24" fill="none" xmlns="http://www.w3.org/2000/svg">
<path d="M12.5303 1.21967C12.2374 0.926777 11.7626 0.926777 11.4697 1.21967L8.46967 4.21967C8.17678 4.51256 8.17678 4.98744 8.46967 5.28033C8.76256 5.57322 9.23744 5.57322 9.53033 5.28033L11.25 3.56066V11.25H3.56066L5.28033 9.53033C5.57322 9.23744 5.57322 8.76256 5.28033 8.46967C4.98744 8.17678 4.51256 8.17678 4.21967 8.46967L1.21967 11.4697C0.926777 11.7626 0.926777 12.2374 1.21967 12.5303L4.21967 15.5303C4.51256 15.8232 4.98744 15.8232 5.28033 15.5303C5.57322 15.2374 5.57322 14.7626 5.28033 14.4697L3.56066 12.75H11.25V20.4393L9.53033 18.7197C9.23744 18.4268 8.76256 18.4268 8.46967 18.7197C8.17678 19.0126 8.17678 19.4874 8.46967 19.7803L11.4697 22.7803C11.7626 23.0732 12.2374 23.0732 12.5303 22.7803L15.5303 19.7803C15.8232 19.4874 15.8232 19.0126 15.5303 18.7197C15.2374 18.4268 14.7626 18.4268 14.4697 18.7197L12.75 20.4393V12.75H20.4393L18.7197 14.4697C18.4268 14.7626 18.4268 15.2374 18.7197 15.5303C19.0126 15.8232 19.4874 15.8232 19.7803 15.5303L22.7803 12.5303C23.0732 12.2374 23.0732 11.7626 22.7803 11.4697L19.7803 8.46967C19.4874 8.17678 19.0126 8.17678 18.7197 8.46967C18.4268 8.76256 18.4268 9.23744 18.7197 9.53033L20.4393 11.25H12.75V3.56066L14.4697 5.28033C14.7626 5.57322 15.2374 5.57322 15.5303 5.28033C15.8232 4.98744 15.8232 4.51256 15.5303 4.21967L12.5303 1.21967Z" fill="#18202A"/>
</svg>
