<svg width="24" height="24" viewBox="0 0 24 24" fill="none" xmlns="http://www.w3.org/2000/svg">
<g clip-path="url(#clip0_2266_32946)">
<path d="M4.09537 3.69105L11.8228 1.6205C13.6899 1.1202 15.6091 2.22824 16.1094 4.09537L16.5675 5.8051L18.1577 5.94422L17.5583 3.70715C16.8436 1.03982 14.1019 -0.543097 11.4346 0.171612L3.70715 2.24216C1.03982 2.95687 -0.543097 5.69856 0.171612 8.36589L2.24216 16.0933C2.69366 17.7783 3.95406 19.0305 5.49362 19.5442C5.35843 19.0132 5.30887 18.4509 5.35932 17.8742L5.3612 17.8527C4.56658 17.4075 3.94542 16.6544 3.69105 15.7051L1.6205 7.97766C1.1202 6.11053 2.22824 4.19135 4.09537 3.69105Z" fill="#18202A"/>
<path fill-rule="evenodd" clip-rule="evenodd" d="M19.3121 7.55087L11.3426 6.85362C9.41695 6.68515 7.71933 8.10962 7.55086 10.0353L6.85362 18.0048C6.68514 19.9305 8.10961 21.6281 10.0353 21.7965L18.0048 22.4938C19.9305 22.6623 21.6281 21.2378 21.7965 19.3121L22.4938 11.3426C22.6623 9.41695 21.2378 7.71934 19.3121 7.55087ZM11.4733 5.35933C8.72241 5.11865 6.29724 7.15361 6.05657 9.90452L5.35932 17.8742C5.11865 20.6251 7.1536 23.0502 9.90452 23.2908L17.8741 23.9881C20.625 24.2288 23.0502 22.1938 23.2908 19.4429L23.9881 11.4733C24.2287 8.72241 22.1938 6.29725 19.4429 6.05657L11.4733 5.35933Z" fill="#18202A"/>
<path fill-rule="evenodd" clip-rule="evenodd" d="M11.4049 11.8784C11.9551 11.9265 12.4401 11.5195 12.4883 10.9693C12.5364 10.4191 12.1294 9.93411 11.5792 9.88597C11.029 9.83784 10.544 10.2448 10.4959 10.795C10.4477 11.3452 10.8547 11.8302 11.4049 11.8784ZM13.9826 11.1001C13.8622 12.4755 12.6496 13.493 11.2742 13.3727C9.89872 13.2523 8.88124 12.0397 9.00158 10.6643C9.12191 9.28882 10.3345 8.27135 11.71 8.39168C13.0854 8.51202 14.1029 9.7246 13.9826 11.1001Z" fill="#18202A"/>
<path fill-rule="evenodd" clip-rule="evenodd" d="M18.245 12.9536L22.9 18.5439L21.7473 19.5038L17.9879 14.9889L13.1326 18.4926L10.763 16.6136L6.70974 19.564L5.82699 18.3512L10.8019 14.7301L13.1752 16.6121L18.245 12.9536Z" fill="#18202A"/>
</g>
<defs>
<clipPath id="clip0_2266_32946">
<rect width="24" height="24" fill="white"/>
</clipPath>
</defs>
</svg>
