<svg width="24" height="24" viewBox="0 0 24 24" fill="none" xmlns="http://www.w3.org/2000/svg">
<g clip-path="url(#clip0_2266_31059)">
<path fill-rule="evenodd" clip-rule="evenodd" d="M0.999966 6.00009C0.999966 3.23867 3.23854 1.00009 5.99997 1.00009H18C20.7614 1.00009 23 3.23867 23 6.00009V13.2547C21.8661 12.4638 20.4872 12 19 12C15.134 12 12 15.1341 12 19C12 20.4873 12.4638 21.8662 13.2547 23.0001H5.99997C3.23854 23.0001 0.999966 20.7615 0.999966 18.0001V6.00009ZM6.99997 3.00009V5.00009H4.99997V3.00009H6.99997ZM10.3998 8.6445C9.78374 8.27139 8.99997 8.71932 8.99997 9.44452V14.5457C8.99997 15.2709 9.78374 15.7188 10.3998 15.3457L14.6112 12.7951C15.2095 12.4327 15.2095 11.5574 14.6112 11.1951L10.3998 8.6445ZM4.99997 19.0001V21.0001H6.99997V19.0001H4.99997ZM8.99997 3.00009H11V5.00009H8.99997V3.00009ZM11 19.0001H8.99997V21.0001H11V19.0001ZM13 3.00009H15V5.00009H13V3.00009ZM19 3.00009V5.00009H17V3.00009H19Z" fill="#18202A"/>
<path fill-rule="evenodd" clip-rule="evenodd" d="M19.0001 24.0001C21.7615 24.0001 24.0001 21.7615 24.0001 19.0001C24.0001 16.2387 21.7615 14.0001 19.0001 14.0001C16.2387 14.0001 14.0001 16.2387 14.0001 19.0001C14.0001 21.7615 16.2387 24.0001 19.0001 24.0001ZM18.0002 17C18.0002 16.4478 18.4479 16 19.0002 16C19.5525 16 20.0002 16.4478 20.0002 17V18H21.0001C21.5524 18 22.0001 18.4477 22.0001 19C22.0001 19.5523 21.5524 20 21.0001 20H20.0002V21C20.0002 21.5523 19.5525 22 19.0002 22C18.4479 22 18.0002 21.5523 18.0002 21V20H17.0001C16.4479 20 16.0001 19.5523 16.0001 19C16.0001 18.4477 16.4479 18 17.0001 18H18.0002V17Z" fill="#18202A"/>
</g>
<defs>
<clipPath id="clip0_2266_31059">
<rect width="24" height="24" fill="white"/>
</clipPath>
</defs>
</svg>
