<svg width="48" height="48" viewBox="0 0 48 48" fill="none" xmlns="http://www.w3.org/2000/svg">
<g clip-path="url(#clip0_3737_8768)">
<path d="M26 13.5C26 12.6716 25.3284 12 24.5 12C23.6716 12 23 12.6716 23 13.5V26.5C23 27.3284 23.6716 28 24.5 28H36.5C37.3284 28 38 27.3284 38 26.5C38 25.6716 37.3284 25 36.5 25H26V13.5Z" fill="#18202A"/>
<path fill-rule="evenodd" clip-rule="evenodd" d="M26 1.5C26 0.671573 25.3284 0 24.5 0C23.6716 0 23 0.671573 23 1.5V4.02232C11.3139 4.54511 2 14.1849 2 26C2 38.1503 11.8497 48 24 48C36.1503 48 46 38.1503 46 26C46 19.1058 42.8288 12.9522 37.8655 8.91844L39.7233 7.06066C40.309 6.47487 40.309 5.52513 39.7233 4.93934C39.1375 4.35355 38.1877 4.35355 37.6019 4.93934L35.3757 7.16556C32.5939 5.48177 29.4091 4.39689 26 4.08969V1.5ZM24 45C34.4934 45 43 36.4934 43 26C43 15.5066 34.4934 7 24 7C13.5066 7 5 15.5066 5 26C5 36.4934 13.5066 45 24 45Z" fill="#18202A"/>
</g>
<defs>
<clipPath id="clip0_3737_8768">
<rect width="48" height="48" fill="white"/>
</clipPath>
</defs>
</svg>
