<svg width="24" height="24" viewBox="0 0 24 24" fill="none" xmlns="http://www.w3.org/2000/svg">
<g clip-path="url(#clip0_3875_8953)">
<path fill-rule="evenodd" clip-rule="evenodd" d="M11 1C9.34315 1 8 2.34315 8 4V5H3C2.44772 5 2 5.44772 2 6C2 6.55228 2.44772 7 3 7H4V17C4 20.3137 6.68629 23 10 23H13.2547C12.4638 21.8662 12 20.4872 12 19C12 17.6803 12.3652 16.446 13 15.3924V11C13 10.4477 13.4477 10 14 10C14.5523 10 15 10.4477 15 11V13.2547C16.1338 12.4638 17.5128 12 19 12C19.3395 12 19.6734 12.0242 20 12.0709V7H21C21.5523 7 22 6.55228 22 6C22 5.44772 21.5523 5 21 5H16V4C16 2.34315 14.6569 1 13 1H11ZM14 4C14 3.44772 13.5523 3 13 3H11C10.4477 3 10 3.44772 10 4V5H14V4ZM11 11C11 10.4477 10.5523 10 10 10C9.44772 10 9 10.4477 9 11V17C9 17.5523 9.44772 18 10 18C10.5523 18 11 17.5523 11 17V11Z" fill="#18202A"/>
<path fill-rule="evenodd" clip-rule="evenodd" d="M19 24C21.7614 24 24 21.7614 24 19C24 16.2386 21.7614 14 19 14C16.2386 14 14 16.2386 14 19C14 21.7614 16.2386 24 19 24ZM20 16.5C20 15.9477 19.5523 15.5 19 15.5C18.4477 15.5 18 15.9477 18 16.5V19C18 19.2652 18.1054 19.5196 18.2929 19.7071L19.7929 21.2071C20.1834 21.5976 20.8166 21.5976 21.2071 21.2071C21.5976 20.8166 21.5976 20.1834 21.2071 19.7929L20 18.5858V16.5Z" fill="#18202A"/>
</g>
<defs>
<clipPath id="clip0_3875_8953">
<rect width="24" height="24" fill="white"/>
</clipPath>
</defs>
</svg>
