<svg width="24" height="24" viewBox="0 0 24 24" fill="none" xmlns="http://www.w3.org/2000/svg">
<path d="M9 3C9 2.44772 9.44772 2 10 2H14C14.5523 2 15 2.44772 15 3C15 3.55228 14.5523 4 14 4H13V20H14C14.5523 20 15 20.4477 15 21C15 21.5523 14.5523 22 14 22H10C9.44772 22 9 21.5523 9 21C9 20.4477 9.44772 20 10 20H11V4H10C9.44772 4 9 3.55228 9 3Z" fill="#18202A"/>
<path d="M2 8C2 6.34315 3.34315 5 5 5H10V19H5C3.34315 19 2 17.6569 2 16V8Z" fill="#18202A"/>
<path d="M22 8C22 6.34315 20.6569 5 19 5H14V19H19C20.6569 19 22 17.6569 22 16V8Z" fill="#18202A"/>
</svg>
