<svg width="24" height="24" viewBox="0 0 24 24" fill="none" xmlns="http://www.w3.org/2000/svg">
<path d="M4 3C2.34315 3 1 4.34315 1 6V6.98565C1.00254 6.79767 1.05805 6.60828 1.17105 6.4408C1.47994 5.98297 2.10149 5.86224 2.55931 6.17114L10.5743 11.5789C10.9703 11.8461 11.4717 12.0001 12 12.0001C12.5284 12.0001 13.0296 11.8462 13.4257 11.5789L21.4407 6.17114C21.8985 5.86224 22.5201 5.98297 22.829 6.4408C22.9417 6.60788 22.9972 6.79676 23 6.98429V6C23 4.34315 21.6569 3 20 3H4Z" fill="#18202A"/>
<path d="M23 7.01409C22.9953 7.33015 22.8412 7.63887 22.5593 7.82906L14.5444 13.2367C13.8022 13.7376 12.9077 14.0001 12 14.0001C11.0923 14.0001 10.1978 13.7376 9.45567 13.2368L1.44071 7.82906C1.15841 7.6386 1.00428 7.32926 1 7.01274V18C1 19.6569 2.34315 21 4 21H20C21.6569 21 23 19.6569 23 18V7.01409Z" fill="#18202A"/>
<path fill-rule="evenodd" clip-rule="evenodd" d="M20 5H4C3.44772 5 3 5.44772 3 6V18C3 18.5523 3.44772 19 4 19H20C20.5523 19 21 18.5523 21 18V6C21 5.44772 20.5523 5 20 5ZM4 3C2.34315 3 1 4.34315 1 6V18C1 19.6569 2.34315 21 4 21H20C21.6569 21 23 19.6569 23 18V6C23 4.34315 21.6569 3 20 3H4Z" fill="#18202A"/>
</svg>
