<svg width="24" height="24" viewBox="0 0 24 24" fill="none" xmlns="http://www.w3.org/2000/svg">
<path fill-rule="evenodd" clip-rule="evenodd" d="M5.75 10.6C5.75 6.79826 8.46968 3.75 12 3.75C15.5303 3.75 18.25 6.79826 18.25 10.6L18.2502 10.9478C18.2519 12.5392 18.2534 13.9399 17.9256 15.6141L19.3163 16.2942C19.7549 14.2916 19.7526 12.6632 19.7503 10.97C19.7502 10.847 19.75 10.7238 19.75 10.6C19.75 6.11747 16.4991 2.25 12 2.25C7.50094 2.25 4.25 6.11747 4.25 10.6C4.25 10.7272 4.24981 10.8538 4.24963 10.9801C4.24718 12.6743 4.24482 14.305 4.68624 16.3117L6.07659 15.6318C5.74634 13.9538 5.74792 12.5517 5.74973 10.9589L5.75 10.6ZM6.55263 17.0688L5.20158 17.7295C5.39365 18.0677 5.62821 18.3942 5.8851 18.702C6.09131 18.9491 6.31782 19.1912 6.55896 19.4253L7.48478 18.2313C7.32411 18.0694 7.17397 17.9053 7.03674 17.7409C6.84217 17.5077 6.68067 17.2823 6.55263 17.0688ZM8.62141 19.2134L7.70213 20.3989C7.71944 20.4119 7.73678 20.4249 7.75415 20.4378C8.29239 20.8376 8.86366 21.1959 9.42854 21.4858L9.96499 20.0734C9.52746 19.8386 9.07904 19.5534 8.6486 19.2336C8.63952 19.2269 8.63046 19.2202 8.62141 19.2134ZM11.3509 20.649L10.8164 22.0565C11.2241 22.1776 11.6258 22.25 12 22.25C12.3848 22.25 12.7986 22.1735 13.2181 22.0461L12.6838 20.6395C12.4159 20.7142 12.1852 20.75 12 20.75C11.8229 20.75 11.6041 20.7172 11.3509 20.649ZM14.0668 20.0561L14.6035 21.4692C15.1577 21.1822 15.7174 20.8299 16.2453 20.4377C16.2709 20.4187 16.2964 20.3996 16.3218 20.3804L15.4026 19.1949C15.3853 19.2079 15.368 19.2208 15.3507 19.2337C14.9309 19.5456 14.494 19.8247 14.0668 20.0561ZM16.5363 18.2091L17.4625 19.4035C17.6952 19.1762 17.9141 18.9414 18.1139 18.7019C18.3745 18.3895 18.6122 18.0579 18.8058 17.7143L17.4551 17.0538C17.3257 17.2718 17.1612 17.5023 16.9621 17.7409C16.8312 17.8978 16.6886 18.0544 16.5363 18.2091Z" fill="#26282C"/>
</svg>
