<svg width="24" height="24" viewBox="0 0 24 24" fill="none" xmlns="http://www.w3.org/2000/svg">
<path fill-rule="evenodd" clip-rule="evenodd" d="M12 2.75C8.46969 2.75 5.75001 5.79826 5.75001 9.6C5.75001 11.5734 5.75554 12.8983 6.21083 14.2626C6.23679 14.3404 6.31548 14.493 6.48451 14.7233C6.64627 14.9438 6.86341 15.199 7.12614 15.4781C7.65116 16.0357 8.32649 16.6552 9.02608 17.2351C9.7258 17.8151 10.4344 18.3428 11.0219 18.7209C11.3167 18.9106 11.5682 19.0544 11.7648 19.1479C11.8937 19.2092 11.9685 19.2338 12 19.2437C12.0315 19.2338 12.1063 19.2092 12.2352 19.1479C12.4318 19.0544 12.6833 18.9107 12.9781 18.7209C13.5656 18.3428 14.2741 17.8151 14.9737 17.2351C15.6733 16.6552 16.3484 16.0358 16.8733 15.4782C17.1359 15.1991 17.3529 14.944 17.5145 14.7235C17.6834 14.4932 17.7619 14.3407 17.7878 14.2631C18.2422 12.8982 18.25 11.5722 18.25 9.6C18.25 5.79826 15.5303 2.75 12 2.75ZM4.25001 9.6C4.25001 5.11747 7.50095 1.25 12 1.25C16.4991 1.25 19.75 5.11747 19.75 9.6V9.65547V9.65549C19.7501 11.5561 19.7501 13.1175 19.211 14.7369C19.112 15.0343 18.9262 15.335 18.7242 15.6105C18.515 15.8959 18.2544 16.1993 17.9656 16.5062C17.3874 17.1205 16.664 17.7823 15.9311 18.3899C15.1983 18.9974 14.4406 19.5635 13.79 19.9822C13.4657 20.1909 13.1552 20.3714 12.8795 20.5025C12.6361 20.6182 12.3121 20.75 12 20.75C11.6879 20.75 11.3639 20.6182 11.1205 20.5025C10.8448 20.3714 10.5343 20.1909 10.2101 19.9822C9.5594 19.5635 8.80168 18.9974 8.06882 18.3899C7.33583 17.7823 6.61228 17.1205 6.03401 16.5063C5.74509 16.1994 5.48447 15.896 5.27509 15.6106C5.07299 15.3352 4.88717 15.0346 4.78798 14.7374C4.2498 13.1248 4.24989 11.5693 4.25 9.68155L4.25001 9.6ZM4.19276 16.8158C4.46218 16.6948 4.77753 16.7432 4.99827 16.9395L9.49827 20.9395C9.80786 21.2146 9.83575 21.6887 9.56056 21.9983C9.28537 22.3079 8.81131 22.3358 8.50173 22.0606L5.25 19.1701V20C5.25 20.4142 4.91421 20.75 4.5 20.75C4.08579 20.75 3.75 20.4142 3.75 20V17.5C3.75 17.2047 3.92333 16.9368 4.19276 16.8158ZM19.0017 16.9395C19.2225 16.7432 19.5378 16.6948 19.8072 16.8158C20.0767 16.9368 20.25 17.2047 20.25 17.5V20C20.25 20.4142 19.9142 20.75 19.5 20.75C19.0858 20.75 18.75 20.4142 18.75 20V19.1701L15.4983 22.0606C15.1887 22.3358 14.7146 22.3079 14.4394 21.9983C14.1643 21.6887 14.1921 21.2146 14.5017 20.9395L19.0017 16.9395Z" fill="#26282C"/>
</svg>
