<svg width="24" height="24" viewBox="0 0 24 24" fill="none" xmlns="http://www.w3.org/2000/svg">
<path d="M3.5 4.75C3.5 4.33579 3.16421 4 2.75 4C2.33579 4 2 4.33579 2 4.75V19.25C2 19.6642 2.33579 20 2.75 20C3.16421 20 3.5 19.6642 3.5 19.25V12.5L12.5 12.5V19.25C12.5 19.6642 12.8358 20 13.25 20C13.6642 20 14 19.6642 14 19.25V4.75C14 4.33579 13.6642 4 13.25 4C12.8358 4 12.5 4.33579 12.5 4.75V11L3.5 11V4.75Z" fill="#18202A"/>
<path d="M17.5 13.5C17.5 13.2243 17.8515 12.5 19 12.5C19.5753 12.5 19.9391 12.6872 20.1572 12.9053C20.3823 13.1305 20.5 13.4355 20.5 13.75C20.5 14.1908 20.3793 14.4706 20.1556 14.7615C19.9722 14.9999 19.753 15.2103 19.4595 15.4921C19.3156 15.6302 19.1538 15.7855 18.9697 15.9697L16.2197 18.7197C16.0052 18.9342 15.941 19.2568 16.0571 19.537C16.1732 19.8173 16.4467 20 16.75 20H21.25C21.6642 20 22 19.6642 22 19.25C22 18.8358 21.6642 18.5 21.25 18.5H18.5607L20.0304 17.0303C20.1513 16.9094 20.2784 16.7872 20.4064 16.6642C20.7446 16.3391 21.0894 16.0077 21.3445 15.676C21.7457 15.1544 22 14.5592 22 13.75C22 13.0645 21.7427 12.3695 21.2179 11.8447C20.6859 11.3128 19.9247 11 19 11C17.1486 11 16 12.2757 16 13.5C16 13.9142 16.3358 14.25 16.75 14.25C17.1642 14.25 17.5 13.9142 17.5 13.5Z" fill="#18202A"/>
</svg>
