<svg width="24" height="24" viewBox="0 0 24 24" fill="none" xmlns="http://www.w3.org/2000/svg">
<path fill-rule="evenodd" clip-rule="evenodd" d="M7 1C6.44772 1 6 1.44772 6 2V3H5C2.79086 3 1 4.79086 1 7V19C1 21.2091 2.79086 23 5 23H12.2546C11.3213 21.8357 10.7067 20.4047 10.5435 18.8395C10.387 18.941 10.2004 19 10 19C9.44772 19 9 18.5523 9 18C9 17.4477 9.44772 17 10 17C10.2004 17 10.387 17.059 10.5435 17.1605C10.8204 14.5053 12.3961 12.2363 14.624 11H6C5.44772 11 5 10.5523 5 10C5 9.44772 5.44772 9 6 9H18C18.5523 9 19 9.44772 19 10L18.9999 10.0154C20.4777 10.1065 21.8469 10.5988 23 11.3847V7C23 4.79086 21.2091 3 19 3H18V2C18 1.44772 17.5523 1 17 1C16.4477 1 16 1.44772 16 2V3H8V2C8 1.44772 7.55228 1 7 1ZM5 14C5 13.4477 5.44772 13 6 13C6.55228 13 7 13.4477 7 14C7 14.5523 6.55228 15 6 15C5.44772 15 5 14.5523 5 14ZM6 17C5.44772 17 5 17.4477 5 18C5 18.5523 5.44772 19 6 19C6.55228 19 7 18.5523 7 18C7 17.4477 6.55228 17 6 17ZM9 14C9 13.4477 9.44772 13 10 13C10.5523 13 11 13.4477 11 14C11 14.5523 10.5523 15 10 15C9.44772 15 9 14.5523 9 14ZM17.8915 12C17.4091 12 16.9954 12.3445 16.9081 12.819L16.8086 13.359C16.2087 13.5663 15.6614 13.8867 15.1924 14.2947L14.6723 14.1098C14.2177 13.9482 13.7125 14.1342 13.4713 14.552L12.954 15.448C12.7128 15.8658 12.8043 16.3963 13.1715 16.7092L13.5921 17.0675C13.534 17.3694 13.5036 17.6812 13.5036 18C13.5036 18.3189 13.534 18.6306 13.5921 18.9325L13.1715 19.2908C12.8043 19.6037 12.7128 20.1342 12.954 20.552L13.4713 21.448C13.7126 21.8658 14.2177 22.0518 14.6723 21.8902L15.1924 21.7053C15.6614 22.1133 16.2087 22.4337 16.8086 22.641L16.9081 23.181C16.9954 23.6555 17.4091 24 17.8915 24H18.9261C19.4086 24 19.8222 23.6555 19.9096 23.181L20.0085 22.6439C20.6107 22.437 21.1601 22.1162 21.6308 21.7073L22.1454 21.8902C22.6 22.0518 23.1051 21.8658 23.3463 21.448L23.8636 20.552C24.1049 20.1342 24.0134 19.6037 23.6461 19.2908L23.2323 18.9382C23.291 18.6345 23.3218 18.3209 23.3218 18C23.3218 17.6791 23.291 17.3655 23.2323 17.0618L23.6461 16.7092C24.0134 16.3963 24.1049 15.8658 23.8636 15.448L23.3463 14.552C23.1051 14.1342 22.6 13.9482 22.1454 14.1098L21.6308 14.2927C21.1601 13.8838 20.6107 13.563 20.0085 13.3561L19.9096 12.819C19.8222 12.3445 19.4086 12 18.9261 12H17.8915ZM18.4082 20C19.5127 20 20.4082 19.1046 20.4082 18C20.4082 16.8954 19.5127 16 18.4082 16C17.3036 16 16.4082 16.8954 16.4082 18C16.4082 19.1046 17.3036 20 18.4082 20Z" fill="#18202A"/>
</svg>
