<svg width="24" height="24" viewBox="0 0 24 24" fill="none" xmlns="http://www.w3.org/2000/svg">
<path fill-rule="evenodd" clip-rule="evenodd" d="M12 22.75C12.4142 22.75 12.75 22.4142 12.75 22V11.8107L14.4697 13.5303C14.7626 13.8232 15.2374 13.8232 15.5303 13.5303C15.8232 13.2374 15.8232 12.7626 15.5303 12.4697L12.5303 9.46967C12.3897 9.32902 12.1989 9.25 12 9.25C11.8011 9.25 11.6103 9.32902 11.4697 9.46967L8.46967 12.4697C8.17678 12.7626 8.17678 13.2374 8.46967 13.5303C8.76256 13.8232 9.23744 13.8232 9.53033 13.5303L11.25 11.8107V22C11.25 22.4142 11.5858 22.75 12 22.75Z" fill="#18202A"/>
<path d="M17.2743 7.43425L17.6117 8.57293L18.7974 8.50572C18.8643 8.50193 18.9319 8.5 19 8.5C20.933 8.5 22.5 10.067 22.5 12C22.5 13.933 20.933 15.5 19 15.5H14.25V17H19C21.7614 17 24 14.7614 24 12C24 9.23858 21.7614 7 19 7C18.9035 7 18.8077 7.00273 18.7125 7.00813C17.8546 4.11246 15.174 2 12 2C8.82601 2 6.14541 4.11246 5.28747 7.00813C5.19233 7.00273 5.09649 7 5 7C2.23858 7 0 9.23858 0 12C0 14.7614 2.23858 17 5 17H9.75V15.5H5C3.067 15.5 1.5 13.933 1.5 12C1.5 10.067 3.067 8.5 5 8.5C5.06814 8.5 5.13568 8.50193 5.20258 8.50572L6.38829 8.57293L6.72567 7.43425C7.40007 5.15804 9.50836 3.5 12 3.5C14.4916 3.5 16.5999 5.15804 17.2743 7.43425Z" fill="#18202A"/>
</svg>
