<svg width="24" height="24" viewBox="0 0 24 24" fill="none" xmlns="http://www.w3.org/2000/svg">
<path fill-rule="evenodd" clip-rule="evenodd" d="M12.1598 3.1085C12.0672 3.03154 11.9329 3.03154 11.8402 3.1085L4.50002 9.20803V20.2505C4.50002 20.3886 4.61194 20.5005 4.75002 20.5005H8.75002V14.7505C8.75002 13.784 9.53352 13.0005 10.5 13.0005H13.5C14.4665 13.0005 15.25 13.784 15.25 14.7505V20.5005H19.25C19.3881 20.5005 19.5 20.3886 19.5 20.2505V9.20803L12.1598 3.1085ZM21 10.4545L22.5207 11.7181C22.8393 11.9829 23.3121 11.9392 23.5769 11.6206C23.8416 11.302 23.7979 10.8292 23.4794 10.5645L13.1185 1.95483C12.4701 1.4161 11.5299 1.4161 10.8816 1.95483L0.520685 10.5645C0.202108 10.8292 0.158455 11.302 0.423184 11.6206C0.687913 11.9392 1.16078 11.9829 1.47935 11.7181L3.00002 10.4545V20.2505C3.00002 21.217 3.78352 22.0005 4.75002 22.0005H19.25C20.2165 22.0005 21 21.217 21 20.2505V10.4545ZM13.75 20.5005V14.7505C13.75 14.6124 13.6381 14.5005 13.5 14.5005H10.5C10.3619 14.5005 10.25 14.6124 10.25 14.7505V20.5005H13.75Z" fill="#18202A"/>
</svg>
