<svg width="24" height="24" viewBox="0 0 24 24" fill="none" xmlns="http://www.w3.org/2000/svg">
<path fill-rule="evenodd" clip-rule="evenodd" d="M7.75 4C7.33579 4 7 4.33579 7 4.75V19.25C7 19.6642 7.33579 20 7.75 20H14.5C16.9853 20 19 17.9853 19 15.5C19 13.4719 17.6584 11.7572 15.8143 11.195C16.5486 10.4311 17 9.39326 17 8.25C17 5.90279 15.0972 4 12.75 4H7.75ZM12.75 11C14.2688 11 15.5 9.76878 15.5 8.25C15.5 6.73122 14.2688 5.5 12.75 5.5H8.5V11H12.75ZM17.5 15.5C17.5 13.8431 16.1569 12.5 14.5 12.5H8.5V18.5H14.5C16.1569 18.5 17.5 17.1569 17.5 15.5Z" fill="#18202A"/>
</svg>
