<svg width="24" height="24" viewBox="0 0 24 24" fill="none" xmlns="http://www.w3.org/2000/svg">
<path fill-rule="evenodd" clip-rule="evenodd" d="M10.396 1.87477C10.3317 1.46558 10.6113 1.07908 11.0239 1.04276C11.3456 1.01445 11.6712 1 12 1C18.0751 1 23 5.92487 23 12C23 12.3288 22.9856 12.6544 22.9572 12.9761C22.9209 13.3887 22.5344 13.6683 22.1252 13.604C21.716 13.5397 21.4395 13.1558 21.4714 12.7428C21.4904 12.4978 21.5 12.2501 21.5 12C21.5 6.75329 17.2467 2.5 12 2.5C11.7499 2.5 11.5022 2.50965 11.2572 2.52858C10.8442 2.56048 10.4603 2.28396 10.396 1.87477ZM5.54933 4.03393C5.28846 3.71218 5.33644 3.23757 5.67516 2.99915C6.20607 2.62544 6.77168 2.29743 7.36626 2.0209C7.74184 1.84622 8.17703 2.04162 8.32556 2.42829C8.47409 2.81496 8.27945 3.24613 7.90579 3.42488C7.45746 3.63935 7.02847 3.88802 6.6222 4.16754C6.28095 4.40232 5.81019 4.35568 5.54933 4.03393ZM2.42829 8.32556C2.04162 8.17703 1.84622 7.74184 2.0209 7.36626C2.29743 6.77167 2.62544 6.20607 2.99915 5.67515C3.23757 5.33644 3.71218 5.28846 4.03393 5.54933C4.35568 5.81019 4.40232 6.28095 4.16754 6.6222C3.88802 7.02847 3.63935 7.45746 3.42488 7.90579C3.24613 8.27945 2.81496 8.47409 2.42829 8.32556ZM1 12C1 11.6712 1.01445 11.3456 1.04276 11.0239C1.07908 10.6113 1.46558 10.3317 1.87477 10.396C2.28396 10.4603 2.56048 10.8442 2.52858 11.2572C2.50965 11.5022 2.5 11.7499 2.5 12C2.5 12.2501 2.50965 12.4978 2.52858 12.7428C2.56048 13.1558 2.28396 13.5397 1.87477 13.604C1.46558 13.6683 1.07908 13.3887 1.04276 12.9761C1.01445 12.6544 1 12.3288 1 12ZM4.03393 18.4507C3.71218 18.7115 3.23757 18.6636 2.99915 18.3248C2.62544 17.7939 2.29743 17.2283 2.0209 16.6337C1.84622 16.2582 2.04162 15.823 2.42829 15.6744C2.81496 15.5259 3.24613 15.7206 3.42488 16.0942C3.63935 16.5425 3.88802 16.9715 4.16754 17.3778C4.40232 17.719 4.35568 18.1898 4.03393 18.4507ZM21.5717 15.6744C21.9584 15.823 22.1538 16.2582 21.9791 16.6337C21.7026 17.2283 21.3746 17.7939 21.0008 18.3248C20.7624 18.6636 20.2878 18.7115 19.9661 18.4507C19.6443 18.1898 19.5977 17.7191 19.8325 17.3778C20.112 16.9715 20.3606 16.5425 20.5751 16.0942C20.7539 15.7206 21.185 15.5259 21.5717 15.6744ZM8.32556 21.5717C8.17703 21.9584 7.74184 22.1538 7.36626 21.9791C6.77167 21.7026 6.20607 21.3746 5.67515 21.0008C5.33644 20.7624 5.28846 20.2878 5.54933 19.9661C5.81019 19.6443 6.28095 19.5977 6.6222 19.8325C7.02847 20.112 7.45746 20.3606 7.90579 20.5751C8.27945 20.7539 8.47409 21.185 8.32556 21.5717ZM18.4507 19.9661C18.7115 20.2878 18.6636 20.7624 18.3248 21.0008C17.7939 21.3746 17.2283 21.7026 16.6337 21.9791C16.2582 22.1538 15.823 21.9584 15.6744 21.5717C15.5259 21.185 15.7206 20.7539 16.0942 20.5751C16.5425 20.3606 16.9715 20.112 17.3778 19.8325C17.719 19.5977 18.1898 19.6443 18.4507 19.9661ZM12 23C11.6712 23 11.3456 22.9856 11.0239 22.9572C10.6113 22.9209 10.3317 22.5344 10.396 22.1252C10.4603 21.716 10.8442 21.4395 11.2572 21.4714C11.5022 21.4904 11.7499 21.5 12 21.5C12.2501 21.5 12.4978 21.4904 12.7428 21.4714C13.1558 21.4395 13.5397 21.716 13.604 22.1252C13.6683 22.5344 13.3887 22.9209 12.9761 22.9572C12.6544 22.9856 12.3288 23 12 23ZM20 12C20 16.4183 16.4183 20 12 20C7.58172 20 4 16.4183 4 12C4 7.58172 7.58172 4 12 4C16.4183 4 20 7.58172 20 12ZM11 8.5C11 9.32843 10.3284 10 9.5 10C8.67157 10 8 9.32843 8 8.5C8 7.67157 8.67157 7 9.5 7C10.3284 7 11 7.67157 11 8.5ZM12 18.5C15.2953 18.5 18.0178 16.0478 18.4424 12.8687L15 10L11.5 14L8.99999 12.5L6.20444 14.9461C7.27877 17.0553 9.47067 18.5 12 18.5Z" fill="#18202A"/>
</svg>
