<svg width="24" height="24" viewBox="0 0 24 24" fill="none" xmlns="http://www.w3.org/2000/svg">
<g clip-path="url(#clip0_3860_8790)">
<path d="M17.4988 3.00096C17.7749 3.00099 17.9988 3.2248 17.9988 3.50091L17.9999 13.7925C18 14.238 17.4614 14.4611 17.1464 14.1461L14.3536 11.3534C14.1584 11.1581 13.8392 11.1602 13.6463 11.3577C9.32192 15.7852 8.87672 18.2803 9.71143 22.2113C9.81729 22.7099 9.22419 23.0346 8.89783 22.6431C3.7578 16.4778 6.13683 11.0538 9.65104 7.35771C9.84131 7.15759 9.84178 6.84153 9.64652 6.64626L6.85374 3.85356C6.53873 3.53856 6.76186 2.99996 7.20734 3L17.4988 3.00096Z" fill="#18202A"/>
</g>
<defs>
<clipPath id="clip0_3860_8790">
<rect width="24" height="24" fill="white"/>
</clipPath>
</defs>
</svg>
