<svg width="24" height="24" viewBox="0 0 24 24" fill="none" xmlns="http://www.w3.org/2000/svg">
<path fill-rule="evenodd" clip-rule="evenodd" d="M19 4.5H5C3.61929 4.5 2.5 5.61929 2.5 7V19C2.5 20.3807 3.61929 21.5 5 21.5H19C20.3807 21.5 21.5 20.3807 21.5 19V7C21.5 5.61929 20.3807 4.5 19 4.5ZM5 3C2.79086 3 1 4.79086 1 7V19C1 21.2091 2.79086 23 5 23H19C21.2091 23 23 21.2091 23 19V7C23 4.79086 21.2091 3 19 3H5Z" fill="#18202A"/>
<path d="M6 1.75C6 1.33579 6.33579 1 6.75 1C7.16421 1 7.5 1.33579 7.5 1.75V6.25C7.5 6.66421 7.16421 7 6.75 7C6.33579 7 6 6.66421 6 6.25V1.75Z" fill="#18202A"/>
<path d="M16.5 1.75C16.5 1.33579 16.8358 1 17.25 1C17.6642 1 18 1.33579 18 1.75V6.25C18 6.66421 17.6642 7 17.25 7C16.8358 7 16.5 6.66421 16.5 6.25V1.75Z" fill="#18202A"/>
<path d="M5 9.75C5 9.33579 5.33579 9 5.75 9H18.25C18.6642 9 19 9.33579 19 9.75C19 10.1642 18.6642 10.5 18.25 10.5H5.75C5.33579 10.5 5 10.1642 5 9.75Z" fill="#18202A"/>
<path d="M5 14C5 13.4477 5.44772 13 6 13C6.55228 13 7 13.4477 7 14C7 14.5523 6.55228 15 6 15C5.44772 15 5 14.5523 5 14Z" fill="#18202A"/>
<path d="M5 18C5 17.4477 5.44772 17 6 17C6.55228 17 7 17.4477 7 18C7 18.5523 6.55228 19 6 19C5.44772 19 5 18.5523 5 18Z" fill="#18202A"/>
<path d="M9 14C9 13.4477 9.44772 13 10 13C10.5523 13 11 13.4477 11 14C11 14.5523 10.5523 15 10 15C9.44772 15 9 14.5523 9 14Z" fill="#18202A"/>
<path d="M9 18C9 17.4477 9.44772 17 10 17C10.5523 17 11 17.4477 11 18C11 18.5523 10.5523 19 10 19C9.44772 19 9 18.5523 9 18Z" fill="#18202A"/>
<path d="M13 14C13 13.4477 13.4477 13 14 13C14.5523 13 15 13.4477 15 14C15 14.5523 14.5523 15 14 15C13.4477 15 13 14.5523 13 14Z" fill="#18202A"/>
<path d="M13 18C13 17.4477 13.4477 17 14 17C14.5523 17 15 17.4477 15 18C15 18.5523 14.5523 19 14 19C13.4477 19 13 18.5523 13 18Z" fill="#18202A"/>
<path d="M17 14C17 13.4477 17.4477 13 18 13C18.5523 13 19 13.4477 19 14C19 14.5523 18.5523 15 18 15C17.4477 15 17 14.5523 17 14Z" fill="#18202A"/>
<path d="M17 18C17 17.4477 17.4477 17 18 17C18.5523 17 19 17.4477 19 18C19 18.5523 18.5523 19 18 19C17.4477 19 17 18.5523 17 18Z" fill="#18202A"/>
</svg>
