<svg width="24" height="24" viewBox="0 0 24 24" fill="none" xmlns="http://www.w3.org/2000/svg">
<path d="M14 12C14 13.1046 13.1046 14 12 14C10.8954 14 10 13.1046 10 12C10 10.8954 10.8954 10 12 10C13.1046 10 14 10.8954 14 12Z" fill="#18202A"/>
<path fill-rule="evenodd" clip-rule="evenodd" d="M1.32239 11.0144C0.901285 11.6099 0.901285 12.3901 1.32239 12.9856C2.8347 15.1243 6.8475 20 12 20C17.1525 20 21.1653 15.1243 22.6776 12.9856C23.0987 12.3901 23.0987 11.6099 22.6776 11.0144C21.1653 8.87572 17.1525 4 12 4C6.8475 4 2.83471 8.87572 1.32239 11.0144ZM12 16C14.2091 16 16 14.2091 16 12C16 9.79086 14.2091 8 12 8C9.79087 8 8.00001 9.79086 8.00001 12C8.00001 14.2091 9.79087 16 12 16Z" fill="#18202A"/>
</svg>
