<svg width="24" height="24" viewBox="0 0 24 24" fill="none" xmlns="http://www.w3.org/2000/svg">
<path fill-rule="evenodd" clip-rule="evenodd" d="M8 4V5H3C2.44772 5 2 5.44772 2 6C2 6.55228 2.44772 7 3 7H4V17C4 20.3137 6.68629 23 10 23H14C17.3137 23 20 20.3137 20 17V7H21C21.5523 7 22 6.55228 22 6C22 5.44772 21.5523 5 21 5H16V4C16 2.34315 14.6569 1 13 1H11C9.34315 1 8 2.34315 8 4ZM13 3H11C10.4477 3 10 3.44772 10 4V5H14V4C14 3.44772 13.5523 3 13 3ZM10 10C10.5523 10 11 10.4477 11 11V17C11 17.5523 10.5523 18 10 18C9.44772 18 9 17.5523 9 17V11C9 10.4477 9.44772 10 10 10ZM15 11C15 10.4477 14.5523 10 14 10C13.4477 10 13 10.4477 13 11V17C13 17.5523 13.4477 18 14 18C14.5523 18 15 17.5523 15 17V11Z" fill="#18202A"/>
</svg>
