<svg width="24" height="24" viewBox="0 0 24 24" fill="none" xmlns="http://www.w3.org/2000/svg">
<path d="M15.5303 11.5303C15.8232 11.2374 15.8232 10.7626 15.5303 10.4697C15.2374 10.1768 14.7626 10.1768 14.4697 10.4697L12 12.9393L9.53033 10.4697C9.23744 10.1768 8.76256 10.1768 8.46967 10.4697C8.17678 10.7626 8.17678 11.2374 8.46967 11.5303L10.9393 14L8.46967 16.4697C8.17678 16.7626 8.17678 17.2374 8.46967 17.5303C8.76256 17.8232 9.23744 17.8232 9.53033 17.5303L12 15.0607L14.4697 17.5303C14.7626 17.8232 15.2374 17.8232 15.5303 17.5303C15.8232 17.2374 15.8232 16.7626 15.5303 16.4697L13.0607 14L15.5303 11.5303Z" fill="#18202A"/>
<path fill-rule="evenodd" clip-rule="evenodd" d="M7 3C5.42559 3 4.13445 4.2128 4.00985 5.75512C3.44756 6.25397 3.07402 6.96084 3.00985 7.75512C2.39039 8.30469 2 9.10676 2 10V18C2 19.6569 3.34315 21 5 21H19C20.6569 21 22 19.6569 22 18V10C22 9.10675 21.6096 8.30469 20.9901 7.75511C20.926 6.96084 20.5524 6.25397 19.9901 5.75512C19.8655 4.2128 18.5744 3 17 3H7ZM7 4.5C6.55461 4.5 6.15456 4.69412 5.87984 5.00236C5.9197 5.00079 5.95976 5 6 5H18C18.0402 5 18.0803 5.0008 18.1202 5.00237C17.8454 4.69412 17.4454 4.5 17 4.5H7ZM5 7C4.95976 7 4.9197 7.00079 4.87984 7.00236C5.15456 6.69412 5.55461 6.5 6 6.5H18C18.4454 6.5 18.8454 6.69411 19.1202 7.00236C19.0803 7.00079 19.0402 7 19 7H5ZM19 8.5C19.8284 8.5 20.5 9.17157 20.5 10V18C20.5 18.8284 19.8284 19.5 19 19.5H5C4.17157 19.5 3.5 18.8284 3.5 18V10C3.5 9.17157 4.17157 8.5 5 8.5H19Z" fill="#18202A"/>
</svg>
