<svg width="24" height="24" viewBox="0 0 24 24" fill="none" xmlns="http://www.w3.org/2000/svg">
<path fill-rule="evenodd" clip-rule="evenodd" d="M10.0303 6.03033C10.3232 5.73744 10.3232 5.26256 10.0303 4.96967C9.73744 4.67678 9.26256 4.67678 8.96967 4.96967L2.46967 11.4697C2.17678 11.7626 2.17678 12.2374 2.46967 12.5303L8.96967 19.0303C9.26256 19.3232 9.73744 19.3232 10.0303 19.0303C10.3232 18.7374 10.3232 18.2626 10.0303 17.9697L4.06066 12L10.0303 6.03033ZM13.9697 6.03033C13.6768 5.73744 13.6768 5.26256 13.9697 4.96967C14.2626 4.67678 14.7374 4.67678 15.0303 4.96967L21.5303 11.4697C21.8232 11.7626 21.8232 12.2374 21.5303 12.5303L15.0303 19.0303C14.7374 19.3232 14.2626 19.3232 13.9697 19.0303C13.6768 18.7374 13.6768 18.2626 13.9697 17.9697L19.9393 12L13.9697 6.03033Z" fill="#18202A"/>
</svg>
