<svg width="24" height="24" viewBox="0 0 24 24" fill="none" xmlns="http://www.w3.org/2000/svg">
<path fill-rule="evenodd" clip-rule="evenodd" d="M2.05648 5.89525C2.39051 5.6503 2.85986 5.7225 3.10481 6.05653C5.75449 9.66973 8.92562 11.3751 12 11.3751C15.0744 11.3751 18.2455 9.66973 20.8952 6.05653C21.1402 5.7225 21.6095 5.6503 21.9435 5.89525C22.2775 6.1402 22.3498 6.60955 22.1048 6.94357C21.7603 7.41331 21.4052 7.85614 21.0406 8.27171C21.3415 8.38887 21.7544 8.45795 22.2628 8.28849C22.6558 8.1575 23.0805 8.36987 23.2115 8.76283C23.3425 9.15579 23.1301 9.58053 22.7372 9.71151C21.7788 10.031 20.9622 9.8712 20.3921 9.62686C20.2252 9.55533 20.0794 9.47673 19.9563 9.40113C19.5912 9.74761 19.2183 10.0689 18.8386 10.3646C18.9362 10.4831 19.064 10.6283 19.2178 10.7822C19.6149 11.1792 20.1427 11.5903 20.7372 11.7885C21.1301 11.9195 21.3425 12.3442 21.2115 12.7372C21.0805 13.1301 20.6558 13.3425 20.2628 13.2115C19.3573 12.9097 18.6351 12.3208 18.1572 11.8428C17.9212 11.6069 17.7344 11.3874 17.6033 11.2225C17.1628 11.4926 16.7151 11.7302 16.2616 11.9349C16.2742 11.9754 16.2904 12.0252 16.3103 12.0828C16.3723 12.2618 16.4695 12.512 16.6083 12.7896C16.8918 13.3565 17.3186 13.9777 17.916 14.376C18.2607 14.6057 18.3538 15.0714 18.124 15.416C17.8943 15.7607 17.4286 15.8538 17.084 15.624C16.1814 15.0223 15.6082 14.1435 15.2667 13.4604C15.093 13.113 14.9715 12.8007 14.8928 12.5735C14.8786 12.5325 14.8658 12.4941 14.8542 12.4587C14.1611 12.6631 13.4582 12.7929 12.75 12.8466V16C12.75 16.2071 12.6661 16.3946 12.5303 16.5303C12.3946 16.6661 12.2071 16.75 12 16.75C12 16.75 12 16.75 12 16.75C11.9482 16.75 11.8977 16.7448 11.8489 16.7348C11.6715 16.6985 11.5169 16.5996 11.4093 16.4621C11.3095 16.3348 11.25 16.1743 11.25 16V12.8466C10.5418 12.7929 9.83888 12.6631 9.14576 12.4587C9.13422 12.4941 9.12138 12.5325 9.10718 12.5735C9.02853 12.8007 8.90703 13.113 8.73333 13.4604C8.39179 14.1435 7.81858 15.0223 6.91603 15.624C6.57138 15.8538 6.10573 15.7607 5.87597 15.416C5.6462 15.0714 5.73933 14.6057 6.08398 14.376C6.68143 13.9777 7.10822 13.3565 7.39169 12.7896C7.53048 12.512 7.62773 12.2618 7.6897 12.0828C7.70964 12.0252 7.72578 11.9754 7.73836 11.9349C7.28487 11.7302 6.83718 11.4926 6.39667 11.2225C6.26565 11.3874 6.07875 11.6069 5.84284 11.8428C5.3649 12.3208 4.6427 12.9097 3.73718 13.2115C3.34422 13.3425 2.91948 13.1301 2.78849 12.7372C2.65751 12.3442 2.86988 11.9195 3.26283 11.7885C3.85731 11.5903 4.38511 11.1792 4.78218 10.7822C4.93604 10.6283 5.06379 10.4831 5.16138 10.3646C4.78173 10.0689 4.40884 9.74761 4.04366 9.40112C3.92063 9.47673 3.77485 9.55533 3.60794 9.62686C3.03782 9.8712 2.22116 10.031 1.26283 9.71151C0.869877 9.58053 0.657507 9.15579 0.788493 8.76283C0.919478 8.36987 1.34422 8.1575 1.73718 8.28849C2.24558 8.45795 2.65854 8.38887 2.95943 8.27171C2.59479 7.85614 2.23967 7.41331 1.8952 6.94357C1.65025 6.60955 1.72246 6.1402 2.05648 5.89525Z" fill="#26282C"/>
</svg>
