<svg width="24" height="24" viewBox="0 0 24 24" fill="none" xmlns="http://www.w3.org/2000/svg">
<path fill-rule="evenodd" clip-rule="evenodd" d="M7 1H11V11H15.7425C15.655 11.0779 15.5692 11.1588 15.4853 11.2427L11.2426 15.4854C9.20101 17.527 8.93829 20.6739 10.4545 23H7C4.79086 23 3 21.2091 3 19V5C3 2.79086 4.79086 1 7 1ZM20.4142 8.41421C20.5852 8.58523 20.7221 8.78403 20.8204 9H13V1.17964C13.216 1.27792 13.4148 1.41477 13.5858 1.58579L20.4142 8.41421ZM22.5563 12.657C20.9943 11.0949 18.4616 11.0949 16.8995 12.657L16.1924 13.3641C15.8019 13.7546 15.8019 14.3878 16.1924 14.7783C16.5829 15.1688 17.2161 15.1688 17.6066 14.7783L18.3137 14.0712C19.0948 13.2901 20.3611 13.2901 21.1421 14.0712C21.9232 14.8522 21.9232 16.1186 21.1421 16.8996L20.435 17.6067C20.0445 17.9972 20.0445 18.6304 20.435 19.0209C20.8256 19.4114 21.4587 19.4114 21.8492 19.0209L22.5563 18.3138C24.1184 16.7517 24.1184 14.2191 22.5563 12.657ZM12.6569 22.5565C11.0948 20.9944 11.0948 18.4617 12.6569 16.8996L13.364 16.1925C13.7545 15.802 14.3876 15.802 14.7782 16.1925C15.1687 16.583 15.1687 17.2162 14.7782 17.6067L14.0711 18.3138C13.29 19.0949 13.29 20.3612 14.0711 21.1422C14.8521 21.9233 16.1184 21.9233 16.8995 21.1422L17.6066 20.4351C17.9971 20.0446 18.6303 20.0446 19.0208 20.4351C19.4113 20.8257 19.4113 21.4588 19.0208 21.8493L18.3137 22.5565C16.7516 24.1186 14.219 24.1186 12.6569 22.5565ZM15.4853 19.728C15.0948 19.3375 15.0948 18.7043 15.4853 18.3138L18.3137 15.4854C18.7042 15.0949 19.3374 15.0949 19.7279 15.4854C20.1184 15.8759 20.1184 16.5091 19.7279 16.8996L16.8995 19.728C16.509 20.1186 15.8758 20.1186 15.4853 19.728Z" fill="#18202A"/>
</svg>
