<svg width="24" height="24" viewBox="0 0 24 24" fill="none" xmlns="http://www.w3.org/2000/svg">
<g clip-path="url(#clip0_2266_32579)">
<path d="M21.2032 16.5164L21.0623 16.6507C20.6741 16.9921 20.1911 17.2012 19.678 17.2489C19.1007 17.3025 18.5233 17.1483 18.0498 16.814C17.8714 16.6762 17.6733 16.5374 17.4778 16.4143C17.0843 16.1663 16.6745 15.9446 16.2514 15.7506C15.9278 15.5997 15.6691 15.3319 15.528 15.0003C15.387 14.6687 15.3736 14.2967 15.4904 13.9558L15.6036 13.4117L15.6916 12.9714L15.2598 12.8483L14.8509 12.7393C13.893 12.5013 12.9094 12.3791 11.9211 12.3754C10.7884 12.3796 9.66503 12.5387 8.57891 12.8483L8.08543 12.9889L8.41033 13.9354L8.45238 14.0831C8.5206 14.3815 8.49348 14.6954 8.37261 14.9796C8.23153 15.3113 7.97287 15.579 7.64635 15.7313C7.22595 15.9208 6.81427 16.1436 6.42014 16.3954L6.1806 16.5427L6.0061 16.6604C5.92748 16.7178 5.85839 16.7758 5.79432 16.8399C5.39794 17.1064 4.83809 17.2578 4.27655 17.2128C3.71479 17.1678 3.18608 16.9293 2.78072 16.538L0.722168 14.4794L0.581326 14.3275C0.402623 14.1177 0.261031 13.8798 0.162165 13.6228C0.0386151 13.3014 -0.0153832 12.9575 0.00376888 12.6138C0.0381838 12.0177 0.291347 11.4542 0.714843 11.0319L0.976874 10.7699L1.31309 10.5145C4.36516 8.25363 8.11595 7.00703 11.9751 7.00003C15.9772 6.99278 19.8676 8.31902 23.0319 10.7693C23.3146 10.9835 23.5445 11.2521 23.71 11.56C23.8755 11.8679 23.9727 12.2079 23.995 12.5567C24.0174 12.9055 23.9642 13.2551 23.8393 13.5816C23.7144 13.9081 23.5206 14.2038 23.2711 14.4486L21.2032 16.5164Z" fill="#18202A"/>
</g>
<defs>
<clipPath id="clip0_2266_32579">
<rect width="24" height="24" fill="white"/>
</clipPath>
</defs>
</svg>
