<svg width="24" height="24" viewBox="0 0 24 24" fill="none" xmlns="http://www.w3.org/2000/svg">
<path fill-rule="evenodd" clip-rule="evenodd" d="M6 1C3.23858 1 1 3.23858 1 6V18C1 20.7614 3.23858 23 6 23H18C20.7614 23 23 20.7614 23 18V6C23 3.23858 20.7614 1 18 1H6ZM7 5V3H5V5H7ZM9 9.44443C9 8.71923 9.78378 8.2713 10.3998 8.64441L14.6113 11.195C15.2096 11.5574 15.2096 12.4327 14.6113 12.795L10.3998 15.3456C9.78378 15.7187 9 15.2708 9 14.5456V9.44443ZM5 21V19H7V21H5ZM11 3H9V5H11V3ZM9 19H11V21H9V19ZM15 3H13V5H15V3ZM13 19H15V21H13V19ZM19 5V3H17V5H19ZM17 21V19H19V21H17Z" fill="#18202A"/>
</svg>
