<svg width="24" height="24" viewBox="0 0 24 24" fill="none" xmlns="http://www.w3.org/2000/svg">
<path fill-rule="evenodd" clip-rule="evenodd" d="M5.32542 21.5366C3.96423 21.2225 3 20.0104 3 18.6135V4C3 2.34315 4.34315 1 6 1H18C19.6569 1 21 2.34315 21 4V18C21 19.6569 19.6569 21 18 21H16V21.4859C16 22.7721 14.8035 23.7239 13.5503 23.4347L5.32542 21.5366ZM14.4497 3.64224L11.6667 3H18C18.5523 3 19 3.44772 19 4V18C19 18.5523 18.5523 19 18 19H16V5.59103C16 4.65971 15.3572 3.85166 14.4497 3.64224ZM14 13.5C14 14.3284 13.5523 15 13 15C12.4477 15 12 14.3284 12 13.5C12 12.6716 12.4477 12 13 12C13.5523 12 14 12.6716 14 13.5Z" fill="#18202A"/>
</svg>
