<svg width="24" height="24" viewBox="0 0 24 24" fill="none" xmlns="http://www.w3.org/2000/svg">
<g clip-path="url(#clip0_3394_8785)">
<path d="M19 6.5C19 7.32843 18.3284 8 17.5 8C16.6716 8 16 7.32843 16 6.5C16 5.67157 16.6716 5 17.5 5C18.3284 5 19 5.67157 19 6.5Z" fill="#18202A"/>
<path fill-rule="evenodd" clip-rule="evenodd" d="M19.1428 2.30929L18.9895 1.55972C18.9229 1.23394 18.6362 1 18.3037 1H16.6963C16.3638 1 16.0772 1.23394 16.0105 1.55972L15.8572 2.30929C15.4343 2.47522 15.0426 2.70332 14.6933 2.98234L13.9663 2.73995C13.6509 2.63477 13.305 2.76603 13.1387 3.05401L12.335 4.44604C12.1688 4.73402 12.228 5.09922 12.4769 5.31982L13.0499 5.82786C13.017 6.04713 13 6.27158 13 6.5C13 6.72843 13.017 6.95289 13.0499 7.17217L12.4769 7.6802C12.228 7.9008 12.1688 8.26601 12.335 8.55399L13.1387 9.94601C13.305 10.234 13.6509 10.3653 13.9664 10.2601L14.6933 10.0177C15.0426 10.2967 15.4343 10.5248 15.8572 10.6907L16.0105 11.4403C16.0772 11.7661 16.3638 12 16.6963 12H18.3037C18.6362 12 18.9229 11.7661 18.9895 11.4403L19.1428 10.6907C19.5657 10.5248 19.9574 10.2967 20.3067 10.0177L21.0337 10.2601C21.3491 10.3653 21.695 10.234 21.8613 9.94604L22.665 8.55401C22.8313 8.26603 22.772 7.90083 22.5232 7.68023L21.9501 7.1722C21.983 6.95291 22 6.72844 22 6.5C22 6.27157 21.983 6.04711 21.9502 5.82783L22.5232 5.3198C22.772 5.0992 22.8313 4.73399 22.665 4.44601L21.8613 3.05399C21.695 2.76601 21.3491 2.63474 21.0337 2.73993L20.3067 2.98232C19.9575 2.70331 19.5658 2.47521 19.1428 2.30929ZM16.9022 3.18835L16.2955 3.4264C15.9861 3.54775 15.6989 3.71486 15.4423 3.91987L14.9326 4.32709L13.9739 4.00742L13.5783 4.69263L14.3331 5.3618L14.2366 6.00559C14.2126 6.16623 14.2 6.33127 14.2 6.5C14.2 6.66874 14.2126 6.83379 14.2366 6.99442L14.3331 7.63822L13.5783 8.30739L13.9739 8.99261L14.9327 8.67293L15.4424 9.08014C15.699 9.28515 15.9862 9.45225 16.2955 9.5736L16.9022 9.81165L17.1044 10.8H17.8956L18.0978 9.81165L18.7046 9.5736C19.0139 9.45226 19.3011 9.28516 19.5577 9.08016L20.0674 8.67295L21.0261 8.99263L21.4217 8.30742L20.667 7.63825L20.7634 6.99445C20.7874 6.8338 20.8 6.66875 20.8 6.5C20.8 6.33126 20.7874 6.16621 20.7634 6.00557L20.667 5.36177L21.4217 4.69261L21.0261 4.00739L20.0674 4.32707L19.5577 3.91986C19.3011 3.71485 19.0139 3.54775 18.7046 3.4264L18.0978 3.18835L17.8956 2.2H17.1044L16.9022 3.18835Z" fill="#18202A"/>
<path fill-rule="evenodd" clip-rule="evenodd" d="M8 19C9.65685 19 11 17.6569 11 16C11 14.3431 9.65685 13 8 13C6.34315 13 5 14.3431 5 16C5 17.6569 6.34315 19 8 19ZM8 17.5C8.82843 17.5 9.5 16.8284 9.5 16C9.5 15.1716 8.82843 14.5 8 14.5C7.17157 14.5 6.5 15.1716 6.5 16C6.5 16.8284 7.17157 17.5 8 17.5Z" fill="#18202A"/>
<path fill-rule="evenodd" clip-rule="evenodd" d="M15.1006 13.2986L13.8898 11.2014C13.7223 10.9113 13.3728 10.7805 13.056 10.8894L11.7694 11.3316C11.288 10.9424 10.7453 10.6262 10.1579 10.3998L9.89786 9.06602C9.83375 8.73727 9.54574 8.5 9.2108 8.5H6.78917C6.45422 8.5 6.16621 8.73727 6.10211 9.06602L5.84203 10.3998C5.25463 10.6263 4.71184 10.9425 4.23045 11.3317L2.94383 10.8895C2.62707 10.7807 2.27758 10.9115 2.11011 11.2015L0.899294 13.2987C0.731823 13.5888 0.793301 13.9569 1.04596 14.1767L2.0717 15.0695C2.02449 15.3727 1.99998 15.6835 1.99998 16C1.99998 16.3166 2.0245 16.6274 2.07173 16.9307L1.04603 17.8234C0.79338 18.0433 0.731901 18.4113 0.899373 18.7014L2.11019 20.7986C2.27766 21.0887 2.62715 21.2195 2.94391 21.1106L4.23059 20.6684C4.71194 21.0576 5.25469 21.3738 5.84203 21.6002L6.10211 22.934C6.16621 23.2627 6.45422 23.5 6.78917 23.5H9.2108C9.54574 23.5 9.83375 23.2627 9.89786 22.934L10.1579 21.6002C10.7452 21.3738 11.2879 21.0576 11.7692 20.6685L13.056 21.1107C13.3727 21.2196 13.7222 21.0888 13.8897 20.7987L15.1005 18.7015C15.268 18.4115 15.2065 18.0434 14.9538 17.8235L13.9282 16.9309C13.9755 16.6275 14 16.3166 14 16C14 15.6834 13.9755 15.3726 13.9282 15.0693L14.9539 14.1766C15.2066 13.9567 15.268 13.5887 15.1006 13.2986ZM7.15555 11.5009L6.38168 11.7993C5.94225 11.9688 5.53522 12.2057 5.17352 12.4982L4.52799 13.0201L3.07961 12.5223L2.52787 13.478L3.68128 14.4818L3.55384 15.3003C3.51847 15.5274 3.49998 15.7611 3.49998 16C3.49998 16.239 3.51848 16.4727 3.55386 16.6999L3.68132 17.5183L2.52794 18.5222L3.07969 19.4778L4.5281 18.9801L5.17362 19.5019C5.53529 19.7943 5.94229 20.0312 6.38168 20.2007L7.15555 20.4991L7.44823 22H8.55173L8.84441 20.4991L9.61828 20.2007C10.0576 20.0313 10.4646 19.7944 10.8262 19.502L11.4717 18.9802L12.9202 19.478L13.4719 18.5223L12.3186 17.5185L12.4461 16.7C12.4815 16.4728 12.5 16.239 12.5 16C12.5 15.761 12.4815 15.5273 12.4461 15.3001L12.3186 14.4816L13.472 13.4778L12.9202 12.5222L11.4719 13.0199L10.8263 12.4981C10.4647 12.2057 10.0577 11.9687 9.61828 11.7993L8.84441 11.5009L8.55173 10H7.44823L7.15555 11.5009Z" fill="#18202A"/>
</g>
<defs>
<clipPath id="clip0_3394_8785">
<rect width="24" height="24" fill="white"/>
</clipPath>
</defs>
</svg>
