<svg width="24" height="24" viewBox="0 0 24 24" fill="none" xmlns="http://www.w3.org/2000/svg">
<path fill-rule="evenodd" clip-rule="evenodd" d="M5.75 10.6C5.75 6.79826 8.46968 3.75 12 3.75C15.5303 3.75 18.25 6.79826 18.25 10.6C18.25 11.3146 18.1729 12.0898 18.0469 12.9022C18.02 12.9226 17.9942 12.9451 17.9697 12.9697L15.9697 14.9697C15.6768 15.2626 15.6768 15.7374 15.9697 16.0303C16.2626 16.3232 16.7374 16.3232 17.0303 16.0303L17.5257 15.535C17.4194 16.0003 17.3074 16.4692 17.1941 16.9381C17.1012 17.3223 16.8203 17.7966 16.3558 18.32C15.901 18.8323 15.3179 19.3386 14.7056 19.7884C14.0943 20.2375 13.4721 20.6169 12.9503 20.8806C12.689 21.0126 12.4627 21.1106 12.2826 21.1738C12.1928 21.2053 12.1213 21.2258 12.0676 21.2378C12.0279 21.2468 12.0064 21.2492 12 21.2498C11.9936 21.2492 11.9721 21.2468 11.9324 21.2378C11.8787 21.2258 11.8072 21.2053 11.7174 21.1738C11.5373 21.1106 11.311 21.0126 11.0497 20.8806C10.5279 20.6169 9.90569 20.2375 9.29443 19.7884C8.68211 19.3386 8.09901 18.8323 7.64424 18.32C7.1797 17.7966 6.89877 17.3223 6.80595 16.9381C6.7289 16.6193 6.65246 16.3004 6.578 15.9827L8.53033 14.0303C8.82322 13.7374 8.82322 13.2626 8.53033 12.9697C8.23744 12.6768 7.76256 12.6768 7.46967 12.9697L6.19505 14.2443C5.93252 12.943 5.75 11.6997 5.75 10.6ZM12 2.25C7.50095 2.25 4.25 6.11747 4.25 10.6C4.25 12.6545 4.81397 15.0806 5.3479 17.2904C5.52431 18.0205 5.98838 18.7141 6.52241 19.3157C7.06621 19.9284 7.73523 20.5043 8.40638 20.9973C9.07859 21.4911 9.7712 21.9152 10.3733 22.2194C10.674 22.3713 10.9619 22.4983 11.2206 22.5891C11.4623 22.674 11.7406 22.75 12 22.75C12.2594 22.75 12.5377 22.674 12.7794 22.5891C13.0381 22.4983 13.326 22.3713 13.6267 22.2194C14.2288 21.9152 14.9214 21.4911 15.5936 20.9973C16.2648 20.5043 16.9338 19.9284 17.4776 19.3157C18.0116 18.7141 18.4757 18.0205 18.6521 17.2904C19.186 15.0806 19.75 12.6545 19.75 10.6C19.75 6.11747 16.4991 2.25 12 2.25ZM11.0303 14.0303C11.3232 13.7374 11.3232 13.2626 11.0303 12.9697C10.7374 12.6768 10.2626 12.6768 9.96967 12.9697L7.96967 14.9697C7.67678 15.2626 7.67678 15.7374 7.96967 16.0303C8.26256 16.3232 8.73744 16.3232 9.03033 16.0303L11.0303 14.0303ZM16.5303 14.0303C16.8232 13.7374 16.8232 13.2626 16.5303 12.9697C16.2374 12.6768 15.7626 12.6768 15.4697 12.9697L13.4697 14.9697C13.1768 15.2626 13.1768 15.7374 13.4697 16.0303C13.7626 16.3232 14.2374 16.3232 14.5303 16.0303L16.5303 14.0303Z" fill="#26282C"/>
</svg>
