<svg width="24" height="24" viewBox="0 0 24 24" fill="none" xmlns="http://www.w3.org/2000/svg">
<path d="M7 7C7 6.44772 7.44772 6 8 6C8.55228 6 9 6.44772 9 7C9 7.55228 8.55228 8 8 8C7.44772 8 7 7.55228 7 7Z" fill="#18202A"/>
<path d="M8 9C7.44772 9 7 9.44772 7 10C7 10.5523 7.44772 11 8 11C8.55228 11 9 10.5523 9 10C9 9.44772 8.55228 9 8 9Z" fill="#18202A"/>
<path d="M11 7C11 6.44772 11.4477 6 12 6C12.5523 6 13 6.44772 13 7C13 7.55228 12.5523 8 12 8C11.4477 8 11 7.55228 11 7Z" fill="#18202A"/>
<path d="M12 9C11.4477 9 11 9.44772 11 10C11 10.5523 11.4477 11 12 11C12.5523 11 13 10.5523 13 10C13 9.44772 12.5523 9 12 9Z" fill="#18202A"/>
<path d="M15 7C15 6.44772 15.4477 6 16 6C16.5523 6 17 6.44772 17 7C17 7.55228 16.5523 8 16 8C15.4477 8 15 7.55228 15 7Z" fill="#18202A"/>
<path d="M16 9C15.4477 9 15 9.44772 15 10C15 10.5523 15.4477 11 16 11C16.5523 11 17 10.5523 17 10C17 9.44772 16.5523 9 16 9Z" fill="#18202A"/>
<path fill-rule="evenodd" clip-rule="evenodd" d="M6.75 2C4.67893 2 3 3.67893 3 5.75V18.2504C3 20.3215 4.67893 22.0004 6.75 22.0004H17.25C19.3211 22.0004 21 20.3215 21 18.2504V5.75C21 3.67893 19.3211 2 17.25 2H6.75ZM4.5 5.75C4.5 4.50736 5.50736 3.5 6.75 3.5H17.25C18.4926 3.5 19.5 4.50736 19.5 5.75V18.2504C19.5 19.493 18.4926 20.5004 17.25 20.5004H15.25V14.75C15.25 13.7835 14.4665 13 13.5 13H10.5C9.5335 13 8.75 13.7835 8.75 14.75V20.5004H6.75C5.50736 20.5004 4.5 19.493 4.5 18.2504V5.75ZM13.75 20.5004V14.75C13.75 14.6119 13.6381 14.5 13.5 14.5H10.5C10.3619 14.5 10.25 14.6119 10.25 14.75V20.5004H13.75Z" fill="#18202A"/>
</svg>
