<svg width="24" height="24" viewBox="0 0 24 24" fill="none" xmlns="http://www.w3.org/2000/svg">
<path fill-rule="evenodd" clip-rule="evenodd" d="M12 12.5C13.3807 12.5 14.5 11.3807 14.5 10C14.5 8.61929 13.3807 7.5 12 7.5C10.6193 7.5 9.5 8.61929 9.5 10C9.5 11.3807 10.6193 12.5 12 12.5ZM12 14C14.2091 14 16 12.2091 16 10C16 7.79086 14.2091 6 12 6C9.79086 6 8 7.79086 8 10C8 12.2091 9.79086 14 12 14Z" fill="#18202A"/>
<path d="M12 1C13.8789 1 15.7156 1.55715 17.2779 2.601C18.8401 3.64486 20.0578 5.12852 20.7768 6.86439C21.4959 8.60026 21.684 10.5104 21.3175 12.3532C20.951 14.196 20.0462 15.8887 18.7177 17.2173L14.2384 22.0607C13.9446 22.3547 13.5957 22.5879 13.2117 22.7471C12.8276 22.9063 12.4158 22.9883 12 22.9883C11.5842 22.9883 11.1724 22.9063 10.7883 22.7471C10.4041 22.5879 10.0551 22.3545 9.76121 22.0603L5.28232 17.2173C3.95377 15.8887 3.04903 14.196 2.68251 12.3532C2.31599 10.5104 2.50415 8.60026 3.2232 6.86439C3.94224 5.12852 5.15988 3.64486 6.72214 2.601C8.28439 1.55715 10.1211 1 12 1ZM12 2.5C10.4178 2.5 8.87106 2.96918 7.55549 3.84821C6.23989 4.72725 5.21451 5.97665 4.60901 7.43844C4.0035 8.90022 3.84504 10.5088 4.15369 12.0606C4.44176 13.509 5.12464 14.8472 6.15701 15.9632L6.38357 16.1988L10.8224 21.0002C10.977 21.1549 11.1605 21.2777 11.3626 21.3614C11.5647 21.4452 11.7814 21.4883 12 21.4883C12.2186 21.4883 12.4353 21.4452 12.6372 21.3615C12.799 21.2944 12.9488 21.2025 13.0607 21.1107L13.1372 21.0422L17.657 16.1567C18.7758 15.0378 19.5377 13.6123 19.8463 12.0606C20.155 10.5087 19.9965 8.90016 19.391 7.4384C18.7855 5.97671 17.7601 4.72728 16.4446 3.84822C15.1289 2.96918 13.5822 2.5 12 2.5Z" fill="#18202A"/>
</svg>
