<svg width="24" height="24" viewBox="0 0 24 24" fill="none" xmlns="http://www.w3.org/2000/svg">
<path fill-rule="evenodd" clip-rule="evenodd" d="M1 7.08696C1 3.72522 3.72522 1 7.08696 1H16.913C20.2748 1 23 3.72522 23 7.08696V12.5652C23 12.7109 22.997 12.8558 22.9911 13H16.4783C14.5258 13 12.8651 14.2495 12.2523 15.9925C12.1686 15.9975 12.0844 16 12 16C11.3455 16 10.7075 15.85 10.1493 15.5709C9.59145 15.2919 9.13965 14.8976 8.82696 14.4377C8.51642 13.981 7.89444 13.8625 7.43773 14.173C6.98102 14.4836 6.86252 15.1055 7.17306 15.5623C7.68998 16.3225 8.41094 16.9378 9.25491 17.3597C10.0986 17.7816 11.0439 18 12 18V23H7.08696C3.72522 23 1 20.2748 1 16.913V7.08696ZM9 9C9 10.1046 8.32843 11 7.5 11C6.67157 11 6 10.1046 6 9C6 7.89543 6.67157 7 7.5 7C8.32843 7 9 7.89543 9 9ZM16.5 11C17.3284 11 18 10.1046 18 9C18 7.89543 17.3284 7 16.5 7C15.6716 7 15 7.89543 15 9C15 10.1046 15.6716 11 16.5 11Z" fill="#18202A"/>
<path d="M16.4783 15H22.7144C21.7261 19.135 18.2762 22.3141 14 22.9022V17.4783C14 16.1096 15.1096 15 16.4783 15Z" fill="#18202A"/>
</svg>
