<svg width="24" height="24" viewBox="0 0 24 24" fill="none" xmlns="http://www.w3.org/2000/svg">
<path fill-rule="evenodd" clip-rule="evenodd" d="M15.1044 4.47734C15.3526 4.78244 15.7071 5 16.1004 5C16.8609 5 17.3841 4.2423 16.9545 3.61479C15.8737 2.03595 14.0578 1 12 1C8.68629 1 6 3.68629 6 7V8C3.79086 8 2 9.79086 2 12V19C2 21.2091 3.79086 23 6 23H18C20.2091 23 22 21.2091 22 19V12C22 9.79086 20.2091 8 18 8H8V7C8 4.79086 9.79086 3 12 3C13.2527 3 14.3709 3.57587 15.1044 4.47734ZM13 15.7324C13.5978 15.3866 14 14.7403 14 14C14 12.8954 13.1046 12 12 12C10.8954 12 10 12.8954 10 14C10 14.7403 10.4022 15.3866 11 15.7324V18C11 18.5523 11.4477 19 12 19C12.5523 19 13 18.5523 13 18V15.7324Z" fill="#18202A"/>
</svg>
