<svg width="24" height="24" viewBox="0 0 24 24" fill="none" xmlns="http://www.w3.org/2000/svg">
<path fill-rule="evenodd" clip-rule="evenodd" d="M15 5C15 6.30622 14.1652 7.41746 13 7.82929V11H19C20.1046 11 21 11.8954 21 13V16.1707C22.1652 16.5825 23 17.6938 23 19C23 20.6569 21.6569 22 20 22C18.3431 22 17 20.6569 17 19C17 17.6938 17.8348 16.5825 19 16.1707V13H13V16.1707C14.1652 16.5825 15 17.6938 15 19C15 20.6569 13.6569 22 12 22C10.3431 22 9 20.6569 9 19C9 17.6938 9.83481 16.5825 11 16.1707V13H5V16.1707C6.16519 16.5825 7 17.6938 7 19C7 20.6569 5.65685 22 4 22C2.34315 22 1 20.6569 1 19C1 17.6938 1.83481 16.5825 3 16.1707V13C3 11.8954 3.89543 11 5 11H11V7.82929C9.83481 7.41746 9 6.30622 9 5C9 3.34315 10.3431 2 12 2C13.6569 2 15 3.34315 15 5Z" fill="#18202A"/>
</svg>
