<svg width="24" height="24" viewBox="0 0 24 24" fill="none" xmlns="http://www.w3.org/2000/svg">
<path d="M8.02816 2.53968L8.2281 2.54462C8.75822 2.57854 9.26104 2.77751 9.66844 3.11566C10.1268 3.49611 10.4343 4.02769 10.5354 4.61461C10.565 4.8443 10.608 5.08909 10.6606 5.32049C10.7663 5.78656 10.9029 6.24539 11.0694 6.69376C11.1949 7.03853 11.1883 7.42098 11.0498 7.7644C10.9114 8.10778 10.6508 8.3878 10.3183 8.55062L9.8408 8.86366L9.45694 9.11957L9.6812 9.52274L9.89905 9.89904C10.4221 10.7679 11.0479 11.5713 11.7633 12.292C12.5893 13.1119 13.521 13.8125 14.5351 14.3766L14.9958 14.633L15.4473 13.7093L15.5241 13.5715C15.6913 13.3051 15.9391 13.0967 16.2334 12.978C16.5769 12.8396 16.9593 12.833 17.3072 12.9596C17.7503 13.1273 18.2113 13.2646 18.6805 13.368L18.9616 13.435L19.1739 13.4762C19.2727 13.4917 19.365 13.4997 19.4581 13.4997C19.9398 13.594 20.4565 13.8908 20.8318 14.3315C21.2072 14.7723 21.4181 15.3297 21.4283 15.9085V18.8997L21.4202 19.1124C21.3976 19.3946 21.3277 19.6704 21.2127 19.9289C21.0691 20.2522 20.8584 20.5412 20.5948 20.777C20.1367 21.1851 19.5434 21.4106 18.9289 21.4097H18.5482L18.1183 21.351C14.2583 20.7762 10.6276 18.9568 7.81872 16.1581C4.90581 13.2557 3.04289 9.46572 2.52417 5.38661C2.47437 5.02554 2.5025 4.66335 2.60595 4.31942C2.7094 3.97549 2.88575 3.65789 3.12299 3.38823C3.36022 3.11858 3.65276 2.90321 3.98073 2.75677C4.30867 2.61034 4.66432 2.53629 5.02346 2.53966L8.02816 2.53968Z" fill="#18202A"/>
<path fill-rule="evenodd" clip-rule="evenodd" d="M14.3384 4C14.3384 3.44772 14.7862 3 15.3384 3L19.9953 3C20.5476 3 20.9953 3.44771 20.9953 4V8.65685C20.9953 9.20914 20.5476 9.65685 19.9953 9.65685C19.443 9.65685 18.9953 9.20914 18.9953 8.65685V6.41421L15.2171 10.1924C14.8266 10.5829 14.1934 10.5829 13.8029 10.1924C13.4124 9.80186 13.4124 9.1687 13.8029 8.77817L17.5811 5L15.3384 5C14.7862 5 14.3384 4.55228 14.3384 4Z" fill="#18202A"/>
</svg>
