<svg width="24" height="24" viewBox="0 0 24 24" fill="none" xmlns="http://www.w3.org/2000/svg">
<path fill-rule="evenodd" clip-rule="evenodd" d="M6 4.5H5C4.17157 4.5 3.5 5.17157 3.5 6V7C3.5 7.82843 4.17157 8.5 5 8.5H6C6.82843 8.5 7.5 7.82843 7.5 7V6C7.5 5.17157 6.82843 4.5 6 4.5ZM5 3H6C7.65685 3 9 4.34315 9 6V7C9 8.65685 7.65685 10 6 10H5C3.34315 10 2 8.65685 2 7V6C2 4.34315 3.34315 3 5 3Z" fill="#18202A"/>
<path fill-rule="evenodd" clip-rule="evenodd" d="M6 15.5H5C4.17157 15.5 3.5 16.1716 3.5 17V18C3.5 18.8284 4.17157 19.5 5 19.5H6C6.82843 19.5 7.5 18.8284 7.5 18V17C7.5 16.1716 6.82843 15.5 6 15.5ZM5 14H6C7.65685 14 9 15.3431 9 17V18C9 19.6569 7.65685 21 6 21H5C3.34315 21 2 19.6569 2 18V17C2 15.3431 3.34315 14 5 14Z" fill="#18202A"/>
<path d="M11 4.75C11 4.33579 11.3358 4 11.75 4H21.25C21.6642 4 22 4.33579 22 4.75C22 5.16421 21.6642 5.5 21.25 5.5H11.75C11.3358 5.5 11 5.16421 11 4.75Z" fill="#18202A"/>
<path d="M11 8.25C11 7.83579 11.3358 7.5 11.75 7.5H21.25C21.6642 7.5 22 7.83579 22 8.25C22 8.66421 21.6642 9 21.25 9H11.75C11.3358 9 11 8.66421 11 8.25Z" fill="#18202A"/>
<path d="M11 15.75C11 15.3358 11.3358 15 11.75 15H21.25C21.6642 15 22 15.3358 22 15.75C22 16.1642 21.6642 16.5 21.25 16.5H11.75C11.3358 16.5 11 16.1642 11 15.75Z" fill="#18202A"/>
<path d="M11 19.25C11 18.8358 11.3358 18.5 11.75 18.5H21.25C21.6642 18.5 22 18.8358 22 19.25C22 19.6642 21.6642 20 21.25 20H11.75C11.3358 20 11 19.6642 11 19.25Z" fill="#18202A"/>
</svg>
