<svg width="24" height="24" viewBox="0 0 24 24" fill="none" xmlns="http://www.w3.org/2000/svg">
<path fill-rule="evenodd" clip-rule="evenodd" d="M12 17.2283C12 14.8931 13.8931 13 16.2283 13H21.75V14.5H16.2283C14.7215 14.5 13.5 15.7215 13.5 17.2283V21.75H12V17.2283Z" fill="#18202A"/>
<path fill-rule="evenodd" clip-rule="evenodd" d="M16.913 2.5H7.08696C4.55365 2.5 2.5 4.55365 2.5 7.08696V16.913C2.5 19.4464 4.55365 21.5 7.08696 21.5H12.5652C17.4998 21.5 21.5 17.4998 21.5 12.5652V7.08696C21.5 4.55365 19.4464 2.5 16.913 2.5ZM7.08696 1C3.72522 1 1 3.72522 1 7.08696V16.913C1 20.2748 3.72522 23 7.08696 23H12.5652C18.3282 23 23 18.3282 23 12.5652V7.08696C23 3.72522 20.2748 1 16.913 1H7.08696Z" fill="#18202A"/>
<path d="M9 9C9 10.1046 8.32843 11 7.5 11C6.67157 11 6 10.1046 6 9C6 7.89543 6.67157 7 7.5 7C8.32843 7 9 7.89543 9 9Z" fill="#18202A"/>
<path d="M18 9C18 10.1046 17.3284 11 16.5 11C15.6716 11 15 10.1046 15 9C15 7.89543 15.6716 7 16.5 7C17.3284 7 18 7.89543 18 9Z" fill="#18202A"/>
<path d="M12.1141 16.2485C12.0395 16.563 12 16.891 12 17.2283L12 17.75C11.0816 17.75 10.1747 17.5401 9.36671 17.1361C8.5585 16.732 7.87118 16.1444 7.37978 15.4217C7.14688 15.0791 7.23576 14.6126 7.57829 14.3797C7.92083 14.1468 8.38731 14.2357 8.62021 14.5782C8.95843 15.0757 9.44388 15.4977 10.0375 15.7945C10.6314 16.0914 11.3078 16.25 12 16.25C12.0381 16.25 12.0761 16.2495 12.1141 16.2485Z" fill="#18202A"/>
</svg>
