<svg width="24" height="24" viewBox="0 0 24 24" fill="none" xmlns="http://www.w3.org/2000/svg">
<path d="M6 2C6 1.44772 6.44772 1 7 1H17C17.5523 1 18 1.44772 18 2C18 2.55228 17.5523 3 17 3H7C6.44771 3 6 2.55228 6 2Z" fill="#18202A"/>
<path d="M5 4C4.44772 4 4 4.44772 4 5C4 5.55228 4.44772 6 5 6H19C19.5523 6 20 5.55228 20 5C20 4.44772 19.5523 4 19 4H5Z" fill="#18202A"/>
<path fill-rule="evenodd" clip-rule="evenodd" d="M5 7C2.79086 7 1 8.79086 1 11V18C1 20.7614 3.23858 23 6 23H18C20.7614 23 23 20.7614 23 18V11C23 8.79086 21.2091 7 19 7H5ZM9 12.4444C9 11.7192 9.78378 11.2713 10.3998 11.6444L14.6113 14.195C15.2096 14.5574 15.2096 15.4327 14.6113 15.795L10.3998 18.3456C9.78378 18.7187 9 18.2708 9 17.5456V12.4444Z" fill="#18202A"/>
</svg>
