<svg width="24" height="24" viewBox="0 0 24 24" fill="none" xmlns="http://www.w3.org/2000/svg">
<path d="M5 3C3.34315 3 2 4.34315 2 6V7C2 8.65685 3.34315 10 5 10H6C7.65685 10 9 8.65685 9 7V6C9 5.71403 8.95999 5.4374 8.88525 5.17541L6.03033 8.03033C5.73744 8.32322 5.26256 8.32322 4.96967 8.03033L3.46967 6.53033C3.17678 6.23744 3.17678 5.76256 3.46967 5.46967C3.76256 5.17678 4.23744 5.17678 4.53033 5.46967L5.5 6.43934L8.09077 3.84857C7.55047 3.3234 6.813 3 6 3H5Z" fill="#18202A"/>
<path d="M8.09078 14.8486C7.55047 14.3234 6.813 14 6 14H5C3.34315 14 2 15.3431 2 17V18C2 19.6569 3.34315 21 5 21H6C7.65685 21 9 19.6569 9 18V17C9 16.714 8.95999 16.4374 8.88525 16.1754L6.03033 19.0303C5.73744 19.3232 5.26256 19.3232 4.96967 19.0303L3.46967 17.5303C3.17678 17.2374 3.17678 16.7626 3.46967 16.4697C3.76256 16.1768 4.23744 16.1768 4.53033 16.4697L5.5 17.4393L8.09078 14.8486Z" fill="#18202A"/>
<path d="M12 4C11.4477 4 11 4.44772 11 5C11 5.55228 11.4477 6 12 6H21C21.5523 6 22 5.55228 22 5C22 4.44772 21.5523 4 21 4H12Z" fill="#18202A"/>
<path d="M11 8C11 7.44772 11.4477 7 12 7H21C21.5523 7 22 7.44772 22 8C22 8.55228 21.5523 9 21 9H12C11.4477 9 11 8.55228 11 8Z" fill="#18202A"/>
<path d="M12 15C11.4477 15 11 15.4477 11 16C11 16.5523 11.4477 17 12 17H21C21.5523 17 22 16.5523 22 16C22 15.4477 21.5523 15 21 15H12Z" fill="#18202A"/>
<path d="M11 19C11 18.4477 11.4477 18 12 18H21C21.5523 18 22 18.4477 22 19C22 19.5523 21.5523 20 21 20H12C11.4477 20 11 19.5523 11 19Z" fill="#18202A"/>
</svg>
