<svg width="24" height="24" viewBox="0 0 24 24" fill="none" xmlns="http://www.w3.org/2000/svg">
<path fill-rule="evenodd" clip-rule="evenodd" d="M12 6.25C12.4142 6.25 12.75 6.58579 12.75 7V17C12.75 17.4142 12.4142 17.75 12 17.75C11.5858 17.75 11.25 17.4142 11.25 17V7C11.25 6.58579 11.5858 6.25 12 6.25Z" fill="#18202A"/>
<path fill-rule="evenodd" clip-rule="evenodd" d="M6.25 12C6.25 11.5858 6.58579 11.25 7 11.25H17C17.4142 11.25 17.75 11.5858 17.75 12C17.75 12.4142 17.4142 12.75 17 12.75H7C6.58579 12.75 6.25 12.4142 6.25 12Z" fill="#18202A"/>
<path fill-rule="evenodd" clip-rule="evenodd" d="M12 21.5C17.2467 21.5 21.5 17.2467 21.5 12C21.5 6.75329 17.2467 2.5 12 2.5C6.75329 2.5 2.5 6.75329 2.5 12C2.5 17.2467 6.75329 21.5 12 21.5ZM12 23C18.0751 23 23 18.0751 23 12C23 5.92487 18.0751 1 12 1C5.92487 1 1 5.92487 1 12C1 18.0751 5.92487 23 12 23Z" fill="#18202A"/>
</svg>
