<svg width="24" height="24" viewBox="0 0 24 24" fill="none" xmlns="http://www.w3.org/2000/svg">
<path fill-rule="evenodd" clip-rule="evenodd" d="M7 1C6.44772 1 6 1.44772 6 2V3H5C2.79086 3 1 4.79086 1 7V19C1 21.2091 2.79086 23 5 23H11.7546C10.8529 21.8751 10.2488 20.5013 10.0617 18.9981C10.0413 18.9994 10.0207 19 10 19C9.44772 19 9 18.5523 9 18C9 17.4477 9.44772 17 10 17C10.0207 17 10.0413 17.0006 10.0617 17.0019C10.1623 16.1934 10.3835 15.4224 10.7069 14.7074C10.5259 14.8882 10.276 15 10 15C9.44772 15 9 14.5523 9 14C9 13.4477 9.44772 13 10 13C10.5523 13 11 13.4477 11 14C11 14.0482 10.9966 14.0957 10.99 14.1421C11.7176 12.8228 12.8068 11.7309 14.124 11H6C5.44772 11 5 10.5523 5 10C5 9.44772 5.44772 9 6 9H18C18.5523 9 19 9.44772 19 10C19 10.0207 18.9994 10.0413 18.9981 10.0617C20.5013 10.2488 21.8751 10.8529 23 11.7546V7C23 4.79086 21.2091 3 19 3H18V2C18 1.44772 17.5523 1 17 1C16.4477 1 16 1.44772 16 2V3H8V2C8 1.44772 7.55228 1 7 1ZM5 14C5 13.4477 5.44772 13 6 13C6.55228 13 7 13.4477 7 14C7 14.5523 6.55228 15 6 15C5.44772 15 5 14.5523 5 14ZM6 17C5.44772 17 5 17.4477 5 18C5 18.5523 5.44772 19 6 19C6.55228 19 7 18.5523 7 18C7 17.4477 6.55228 17 6 17ZM24 18C24 21.3137 21.3137 24 18 24C14.6863 24 12 21.3137 12 18C12 14.6863 14.6863 12 18 12C21.3137 12 24 14.6863 24 18ZM18 14.75C18.4142 14.75 18.75 15.0858 18.75 15.5V17.6893L20.0303 18.9697C20.3232 19.2626 20.3232 19.7374 20.0303 20.0303C19.7374 20.3232 19.2626 20.3232 18.9697 20.0303L17.4697 18.5303C17.329 18.3897 17.25 18.1989 17.25 18V15.5C17.25 15.0858 17.5858 14.75 18 14.75Z" fill="#18202A"/>
</svg>
