<svg width="24" height="24" viewBox="0 0 24 24" fill="none" xmlns="http://www.w3.org/2000/svg">
<path d="M22 6C22.5523 6 23 5.55228 23 5C23 4.44772 22.5523 4 22 4H2C1.44772 4 1 4.44772 1 5C1 5.55228 1.44772 6 2 6H22Z" fill="#18202A"/>
<path d="M22 13C22.5523 13 23 12.5523 23 12C23 11.4477 22.5523 11 22 11H2C1.44772 11 1 11.4477 1 12C1 12.5523 1.44772 13 2 13H22Z" fill="#18202A"/>
<path d="M22 20C22.5523 20 23 19.5523 23 19C23 18.4477 22.5523 18 22 18H2C1.44772 18 1 18.4477 1 19C1 19.5523 1.44772 20 2 20H22Z" fill="#18202A"/>
</svg>
