<svg width="24" height="24" viewBox="0 0 24 24" fill="none" xmlns="http://www.w3.org/2000/svg">
<g clip-path="url(#clip0_2266_31147)">
<path fill-rule="evenodd" clip-rule="evenodd" d="M24 12C24 12.8573 23.9101 13.6936 23.7392 14.5H22.7146C21.7693 18.5675 18.5675 21.7692 14.5 22.7145V21.1674C17.7372 20.2867 20.2868 17.7372 21.1676 14.5H17.4559C16.8572 15.8044 15.8044 16.8571 14.5 17.4558V15.742C14.9909 15.4134 15.4136 14.9908 15.7422 14.4998H15.7423C15.8361 14.3598 15.9222 14.2142 16 14.0636C16.1719 13.7311 16.3035 13.3744 16.3885 13C16.4615 12.6784 16.5 12.3437 16.5 12C16.5 11.6563 16.4615 11.3216 16.3885 11C16.3035 10.6256 16.1719 10.2689 16 9.9364C15.9221 9.78577 15.836 9.64011 15.7422 9.5H23.7392C23.9101 10.3064 24 11.1427 24 12ZM22.4531 13H17.9168C17.9715 12.6746 18 12.3404 18 12C18 11.6596 17.9715 11.3254 17.9168 11H22.4531C22.4841 11.3289 22.5 11.6624 22.5 12C22.5 12.3376 22.4841 12.6711 22.4531 13ZM12 0C12.8573 0 13.6936 0.0899005 14.5 0.260788V8.25777C14.3599 8.16399 14.2142 8.07787 14.0636 8C13.7311 7.82811 13.3744 7.69647 13 7.61151C12.6784 7.53853 12.3437 7.5 12 7.5C11.6563 7.5 11.3216 7.53853 11 7.61151C10.6256 7.69647 10.2689 7.82811 9.9364 8C9.78577 8.07787 9.64011 8.16399 9.5 8.25777L9.5 8.2576C9.00907 8.58622 8.5864 9.00889 8.25778 9.49982H6.54405C7.14276 8.19535 8.19553 7.14257 9.5 6.54386V2.8322C6.26274 3.71293 3.71311 6.26255 2.83239 9.49982H1.28534C2.23065 5.43226 5.43245 2.23047 9.5 1.28516L9.5 0.260788C10.3064 0.0899005 11.1427 0 12 0ZM13 1.5469V6.08318C12.6746 6.02847 12.3404 6 12 6C11.6596 6 11.3254 6.02847 11 6.08318V1.5469C11.3289 1.51588 11.6624 1.5 12 1.5C12.3376 1.5 12.6711 1.51588 13 1.5469ZM0 12C0 11.1427 0.0899005 10.3064 0.260788 9.5H8.25777C8.16399 9.64011 8.07787 9.78577 8 9.9364C7.82811 10.2689 7.69647 10.6256 7.61151 11C7.53853 11.3216 7.5 11.6563 7.5 12C7.5 12.3437 7.53853 12.6784 7.61151 13C7.69647 13.3744 7.82811 13.7311 8 14.0636C8.07783 14.2142 8.16392 14.3598 8.25766 14.4998H8.25778C8.5864 14.9908 9.00907 15.4134 9.5 15.742L9.5 15.7422C9.64011 15.836 9.78577 15.9221 9.9364 16C10.2689 16.1719 10.6256 16.3035 11 16.3885C11.3216 16.4615 11.6563 16.5 12 16.5C12.3437 16.5 12.6784 16.4615 13 16.3885C13.3744 16.3035 13.7311 16.1719 14.0636 16C14.2142 15.9221 14.3599 15.836 14.5 15.7422V23.7392C13.6936 23.9101 12.8573 24 12 24C11.1427 24 10.3064 23.9101 9.5 23.7392L9.5 22.7145C5.43251 21.7692 2.23075 18.5675 1.28538 14.5H0.260788C0.0899005 13.6936 0 12.8573 0 12ZM2.83243 14.5C3.7132 17.7372 6.2628 20.2867 9.5 21.1674V17.4558C8.19559 16.8571 7.14285 15.8044 6.54413 14.5H2.83243ZM1.5469 11H6.08318C6.02847 11.3254 6 11.6596 6 12C6 12.3404 6.02847 12.6746 6.08318 13H1.5469C1.51588 12.6711 1.5 12.3376 1.5 12C1.5 11.6624 1.51588 11.3289 1.5469 11ZM11 22.4531V17.9168C11.3254 17.9715 11.6596 18 12 18C12.3404 18 12.6745 17.9715 13 17.9168V22.4531C12.6711 22.4841 12.3376 22.5 12 22.5C11.6624 22.5 11.3289 22.4841 11 22.4531ZM21.1676 9.49982H22.7147C21.7694 5.43226 18.5676 2.23047 14.5 1.28516V2.8322C17.7373 3.71293 20.2869 6.26255 21.1676 9.49982ZM15.7422 9.49982C15.4136 9.00888 14.9909 8.58622 14.5 8.2576V6.54386C15.8045 7.14257 16.8573 8.19535 17.456 9.49982H15.7422Z" fill="#18202A"/>
</g>
<defs>
<clipPath id="clip0_2266_31147">
<rect width="24" height="24" fill="white"/>
</clipPath>
</defs>
</svg>
