<svg width="24" height="24" viewBox="0 0 24 24" fill="none" xmlns="http://www.w3.org/2000/svg">
<path d="M19 7C21.7614 7 24 9.23858 24 12C24 14.7614 21.7614 17 19 17H14V13.7326C14.7649 14.1747 15.7599 14.0686 16.4142 13.4142C17.1953 12.6332 17.1953 11.3668 16.4142 10.5858L13.4142 7.58579C13.0391 7.21071 12.5304 7 12 7C11.4696 7 10.9609 7.21071 10.5858 7.58579L7.58579 10.5858C6.80474 11.3668 6.80474 12.6332 7.58579 13.4142C8.24015 14.0686 9.23514 14.1747 10 13.7326V17H5C2.23858 17 0 14.7614 0 12C0 9.23858 2.23858 7 5 7C5.09649 7 5.19233 7.00273 5.28747 7.00813C6.14541 4.11246 8.82601 2 12 2C15.174 2 17.8546 4.11246 18.7125 7.00813C18.8077 7.00273 18.9035 7 19 7Z" fill="#18202A"/>
<path fill-rule="evenodd" clip-rule="evenodd" d="M12 22C12.5523 22 13 21.5523 13 21V11.4142L14.2929 12.7071C14.6834 13.0976 15.3166 13.0976 15.7071 12.7071C16.0976 12.3166 16.0976 11.6834 15.7071 11.2929L12.7071 8.29289C12.5196 8.10536 12.2652 8 12 8C11.7348 8 11.4804 8.10536 11.2929 8.29289L8.29289 11.2929C7.90237 11.6834 7.90237 12.3166 8.29289 12.7071C8.68342 13.0976 9.31658 13.0976 9.70711 12.7071L11 11.4142V21C11 21.5523 11.4477 22 12 22Z" fill="#18202A"/>
</svg>
