<svg width="24" height="24" viewBox="0 0 24 24" fill="none" xmlns="http://www.w3.org/2000/svg">
<path fill-rule="evenodd" clip-rule="evenodd" d="M2.64408 2.5H0V1H2.64408C3.38656 1 4.09554 1.30897 4.60102 1.85281C4.73834 2.00055 4.84845 2.17141 4.92627 2.35749L5.19495 3H20.5137C21.7599 3 22.6068 4.26567 22.1313 5.41766L19.4485 11.9177C19.1782 12.5727 18.5395 13 17.8309 13H8.00625L6.57158 14.5821C6.42588 14.7427 6.53989 15 6.75677 15H18.4296C19.0983 15 19.7228 15.3342 20.0937 15.8906L20.5 16.5H6.75677C5.23855 16.5 4.44055 14.6991 5.46042 13.5744L6.81852 12.0768L3.99517 4.01892L3.5424 2.9362C3.53281 2.91327 3.51924 2.89221 3.50231 2.87401C3.28063 2.6355 2.9697 2.5 2.64408 2.5ZM10 20C10 21.1333 9.13333 22 8 22C6.86667 22 6 21.1333 6 20C6 18.8667 6.86667 18 8 18C9.13333 18 10 18.8667 10 20ZM19 20C19 21.1333 18.1333 22 17 22C15.8667 22 15 21.1333 15 20C15 18.8667 15.8667 18 17 18C18.1333 18 19 18.8667 19 20Z" fill="#18202A"/>
</svg>
