<svg width="24" height="24" viewBox="0 0 24 24" fill="none" xmlns="http://www.w3.org/2000/svg">
<path fill-rule="evenodd" clip-rule="evenodd" d="M12 11C14.6667 11 16 8.5 16 5.375C16 2.875 14.6667 1 12 1C9.33333 1 8 2.875 8 5.375C8 8.5 9.33333 11 12 11ZM12 13C12.9728 13 13.913 13.1389 14.8021 13.3979C13.1007 14.6749 12 16.7089 12 19C12 20.4693 12.4527 21.8329 13.2262 22.9589C12.821 22.9861 12.4121 23 12 23C10.4526 23 8.95082 22.8047 7.51793 22.4375C6.29889 22.1251 5.2657 21.3086 4.69986 20.1845C4.6842 20.1534 4.66863 20.1222 4.65317 20.091C3.87094 18.5114 4.13694 16.5761 5.47167 15.4248C7.22347 13.9137 9.50505 13 12 13ZM24 19C24 21.7614 21.7614 24 19 24C16.2386 24 14 21.7614 14 19C14 16.2386 16.2386 14 19 14C21.7614 14 24 16.2386 24 19ZM16 19C16 18.4477 16.4477 18 17 18H21C21.5523 18 22 18.4477 22 19C22 19.5523 21.5523 20 21 20H17C16.4477 20 16 19.5523 16 19Z" fill="#18202A"/>
</svg>
