<svg width="24" height="24" viewBox="0 0 24 24" fill="none" xmlns="http://www.w3.org/2000/svg">
<path d="M3.5 4.75C3.5 4.33579 3.16421 4 2.75 4C2.33579 4 2 4.33579 2 4.75V19.25C2 19.6642 2.33579 20 2.75 20C3.16421 20 3.5 19.6642 3.5 19.25V12.5L12.5 12.5V19.25C12.5 19.6642 12.8358 20 13.25 20C13.6642 20 14 19.6642 14 19.25V4.75C14 4.33579 13.6642 4 13.25 4C12.8358 4 12.5 4.33579 12.5 4.75V11L3.5 11V4.75Z" fill="#18202A"/>
<path d="M21 11.75C21 11.4538 20.8257 11.1854 20.5551 11.0649C20.2846 10.9444 19.9684 10.9944 19.7483 11.1925L17.2483 13.4425C16.9404 13.7196 16.9154 14.1939 17.1925 14.5017C17.4696 14.8096 17.9438 14.8346 18.2517 14.5575L19.5 13.434V19.25C19.5 19.6642 19.8358 20 20.25 20C20.6642 20 21 19.6642 21 19.25V11.75Z" fill="#18202A"/>
</svg>
