<svg width="24" height="24" viewBox="0 0 24 24" fill="none" xmlns="http://www.w3.org/2000/svg">
<path fill-rule="evenodd" clip-rule="evenodd" d="M21.27 18.0488C21.4176 17.7299 21.5 17.3746 21.5 17V10H2.5V17C2.5 18.3807 3.61929 19.5 5 19.5H12.0594C11.7584 19.9604 11.5822 20.4747 11.5235 21H5C2.79086 21 1 19.2091 1 17V7C1 4.79086 2.79086 3 5 3H8.75736C9.55301 3 10.3161 3.31607 10.8787 3.87868L12 5H19C21.2091 5 23 6.79086 23 9V17C23 17.7081 22.816 18.3731 22.4933 18.9501C22.4082 18.865 22.3174 18.783 22.2211 18.7046C21.9234 18.4624 21.6054 18.243 21.27 18.0488ZM9.81802 4.93934L11.3787 6.5H19C20.3807 6.5 21.5 7.61929 21.5 9H2.5V7C2.5 5.61929 3.61929 4.5 5 4.5H8.75736C9.15518 4.5 9.53671 4.65804 9.81802 4.93934Z" fill="#18202A"/>
<path d="M13.7257 19.8681C13.8869 19.7369 14.0558 19.614 14.2318 19.5C15.1615 18.8978 16.2871 18.5455 17.5 18.5455C18.4822 18.5455 19.4072 18.7765 20.2172 19.1842C20.5968 19.3752 20.9511 19.605 21.2743 19.868C21.3649 19.9418 21.447 20.0215 21.5207 20.106C22.0737 20.7413 22.1466 21.6528 21.7475 22.4132L21.7342 22.4385L21.7205 22.4643C21.3934 23.0774 20.796 23.5228 20.0913 23.6932C19.2628 23.8935 18.3946 24 17.5 24C16.6054 24 15.7371 23.8935 14.9087 23.6932C14.204 23.5228 13.6066 23.0774 13.2795 22.4643L13.2525 22.4133C13.0175 21.9655 12.9461 21.4653 13.0401 21C13.127 20.57 13.3551 20.1697 13.7257 19.8681Z" fill="#18202A"/>
<path d="M17.5 17.4545C19.0417 17.4545 19.8125 16.0909 19.8125 14.3864C19.8125 13.0227 19.0417 12 17.5 12C15.9583 12 15.1874 13.0227 15.1874 14.3864C15.1874 16.0909 15.9583 17.4545 17.5 17.4545Z" fill="#18202A"/>
</svg>
