<svg width="24" height="24" viewBox="0 0 24 24" fill="none" xmlns="http://www.w3.org/2000/svg">
<path d="M3 3C1.89543 3 1 3.89543 1 5V9C1 10.1046 1.89543 11 3 11H15C16.1046 11 17 10.1046 17 9V5C17 3.89543 16.1046 3 15 3H3Z" fill="#18202A"/>
<path fill-rule="evenodd" clip-rule="evenodd" d="M1 15C1 13.8954 1.89543 13 3 13H15C16.1046 13 17 13.8954 17 15V19C17 20.1046 16.1046 21 15 21H3C1.89543 21 1 20.1046 1 19V15ZM2.5 15C2.5 14.7239 2.72386 14.5 3 14.5H15C15.2761 14.5 15.5 14.7239 15.5 15V19C15.5 19.2761 15.2761 19.5 15 19.5H3C2.72386 19.5 2.5 19.2761 2.5 19V15Z" fill="#18202A"/>
<path d="M19.3354 5.82934C18.9649 5.6441 18.5144 5.79427 18.3292 6.16475C18.1439 6.53524 18.2941 6.98574 18.6646 7.17098C19.9723 7.82484 21.0552 9.13483 21.3234 10.6901C21.5498 12.0035 21.21 13.5901 19.75 15.2014V14C19.75 13.5858 19.4142 13.25 19 13.25C18.5858 13.25 18.25 13.5858 18.25 14V17C18.25 17.4142 18.5858 17.75 19 17.75H22C22.4142 17.75 22.75 17.4142 22.75 17C22.75 16.5858 22.4142 16.25 22 16.25H20.8233C22.5786 14.332 23.1202 12.2833 22.8016 10.4352C22.4447 8.3655 21.0277 6.67549 19.3354 5.82934Z" fill="#18202A"/>
</svg>
