<svg width="17" height="16" viewBox="0 0 17 16" fill="none" xmlns="http://www.w3.org/2000/svg">
<path fill-rule="evenodd" clip-rule="evenodd" d="M15.8327 8.00033C15.8327 12.0504 12.5494 15.3337 8.49935 15.3337C4.44926 15.3337 1.16602 12.0504 1.16602 8.00033C1.16602 3.95024 4.44926 0.666992 8.49935 0.666992C12.5494 0.666992 15.8327 3.95024 15.8327 8.00033ZM7.44216 6.00033C7.28965 6.00033 7.16602 6.12396 7.16602 6.27647C7.16602 6.34971 7.19511 6.41994 7.2469 6.47173L7.30409 6.52892C7.56444 6.78927 7.56444 7.21138 7.30409 7.47173C7.04374 7.73208 6.62163 7.73208 6.36128 7.47173L6.30409 7.41454C6.00225 7.1127 5.83268 6.70333 5.83268 6.27647C5.83268 5.38758 6.55327 4.66699 7.44216 4.66699H9.33707C10.3472 4.66699 11.166 5.48584 11.166 6.49594C11.166 7.28317 10.6623 7.98208 9.91543 8.23103L9.71017 8.29945C9.38521 8.40777 9.16602 8.71188 9.16602 9.05442V9.33366C9.16602 9.70185 8.86754 10.0003 8.49935 10.0003C8.13116 10.0003 7.83268 9.70185 7.83268 9.33366V9.05442C7.83268 8.13797 8.41911 7.32434 9.28853 7.03454L9.4938 6.96611C9.69618 6.89865 9.83268 6.70926 9.83268 6.49594C9.83268 6.22222 9.61079 6.00033 9.33707 6.00033H7.44216ZM7.83268 11.3337C7.83268 10.9655 8.13116 10.667 8.49935 10.667C8.86754 10.667 9.16602 10.9655 9.16602 11.3337C9.16602 11.7018 8.86754 12.0003 8.49935 12.0003C8.13116 12.0003 7.83268 11.7018 7.83268 11.3337Z" fill="#737682"/>
</svg>
