<svg width="24" height="24" viewBox="0 0 24 24" fill="none" xmlns="http://www.w3.org/2000/svg">
<path fill-rule="evenodd" clip-rule="evenodd" d="M11.5303 6.53033C11.8232 6.23744 11.8232 5.76256 11.5303 5.46967C11.2374 5.17678 10.7626 5.17678 10.4697 5.46967L4.46967 11.4697C4.17678 11.7626 4.17678 12.2374 4.46967 12.5303L10.4697 18.5303C10.7626 18.8232 11.2374 18.8232 11.5303 18.5303C11.8232 18.2374 11.8232 17.7626 11.5303 17.4697L6.06066 12L11.5303 6.53033ZM19.5 6.53033C19.7929 6.23744 19.7929 5.76256 19.5 5.46967C19.2071 5.17678 18.7322 5.17678 18.4393 5.46967L12.4393 11.4697C12.1464 11.7626 12.1464 12.2374 12.4393 12.5303L18.4393 18.5303C18.7322 18.8232 19.2071 18.8232 19.5 18.5303C19.7929 18.2374 19.7929 17.7626 19.5 17.4697L14.0303 12L19.5 6.53033Z" fill="#18202A"/>
</svg>
