<svg width="24" height="24" viewBox="0 0 24 24" fill="none" xmlns="http://www.w3.org/2000/svg">
<path d="M19 6C21.7614 6 24 8.23858 24 11C24 13.7614 21.7614 16 19 16H14V10C14 8.89543 13.1046 8 12 8C10.8954 8 10 8.89543 10 10V16H5C2.23858 16 0 13.7614 0 11C0 8.23858 2.23858 6 5 6C5.09649 6 5.19233 6.00273 5.28747 6.00813C6.14541 3.11246 8.82601 1 12 1C15.174 1 17.8546 3.11246 18.7125 6.00813C18.8077 6.00273 18.9035 6 19 6Z" fill="#18202A"/>
<path fill-rule="evenodd" clip-rule="evenodd" d="M12 9C12.5523 9 13 9.44772 13 10V19.5858L14.2929 18.2929C14.6834 17.9024 15.3166 17.9024 15.7071 18.2929C16.0976 18.6834 16.0976 19.3166 15.7071 19.7071L12.7071 22.7071C12.5196 22.8946 12.2652 23 12 23C11.7348 23 11.4804 22.8946 11.2929 22.7071L8.29289 19.7071C7.90237 19.3166 7.90237 18.6834 8.29289 18.2929C8.68342 17.9024 9.31658 17.9024 9.70711 18.2929L11 19.5858V10C11 9.44771 11.4477 9 12 9Z" fill="#18202A"/>
</svg>
