<svg width="24" height="24" viewBox="0 0 24 24" fill="none" xmlns="http://www.w3.org/2000/svg">
<path d="M18.1225 4.612L20.2295 9.246C20.6425 9.329 21.0445 9.42 21.4335 9.519C21.5302 9.54201 21.6214 9.584 21.7017 9.64255C21.782 9.7011 21.8499 9.77502 21.9014 9.86004C21.9529 9.94505 21.987 10.0394 22.0017 10.1378C22.0164 10.2361 22.0114 10.3363 21.987 10.4326C21.9626 10.529 21.9193 10.6196 21.8596 10.699C21.8 10.7785 21.7251 10.8453 21.6393 10.8956C21.5536 10.9459 21.4587 10.9786 21.3602 10.9919C21.2617 11.0052 21.1615 10.9988 21.0655 10.973C20.5697 10.8485 20.0701 10.7391 19.5675 10.645C15.0135 9.785 8.98755 9.785 4.43455 10.645C3.93128 10.7388 3.43104 10.8482 2.93455 10.973C2.83908 10.9972 2.73977 11.0024 2.64229 10.9883C2.54482 10.9741 2.45108 10.9409 2.36644 10.8905C2.1955 10.7888 2.07198 10.6233 2.02305 10.4305C1.97412 10.2377 2.00378 10.0333 2.10552 9.86239C2.20726 9.69145 2.37274 9.56793 2.56555 9.519C2.95555 9.42 3.35855 9.329 3.77255 9.245L5.87855 4.612C6.09701 4.1314 6.4492 3.72384 6.89304 3.43799C7.33688 3.15214 7.85362 3.00009 8.38155 3H15.6185C16.1466 2.9999 16.6636 3.15186 17.1076 3.43772C17.5517 3.72358 17.904 4.13124 18.1225 4.612ZM3.49955 16.5C3.49955 15.7044 3.81562 14.9413 4.37823 14.3787C4.94084 13.8161 5.7039 13.5 6.49955 13.5C7.2952 13.5 8.05826 13.8161 8.62087 14.3787C9.18348 14.9413 9.49955 15.7044 9.49955 16.5C9.49955 17.2956 9.18348 18.0587 8.62087 18.6213C8.05826 19.1839 7.2952 19.5 6.49955 19.5C5.7039 19.5 4.94084 19.1839 4.37823 18.6213C3.81562 18.0587 3.49955 17.2956 3.49955 16.5ZM6.49955 12C5.6525 12.0003 4.82272 12.2396 4.10565 12.6905C3.38858 13.1414 2.81333 13.7856 2.44606 14.5489C2.07879 15.3121 1.93441 16.1636 2.02953 17.0053C2.12464 17.847 2.45539 18.6448 2.98373 19.3068C3.51207 19.9689 4.21655 20.4684 5.01616 20.7479C5.81577 21.0275 6.67803 21.0756 7.50379 20.8869C8.32955 20.6981 9.08526 20.2801 9.68403 19.681C10.2828 19.0819 10.7003 18.3259 10.8885 17.5H13.1115C13.3606 18.5758 13.9963 19.5225 14.8977 20.1602C15.7992 20.7978 16.9036 21.082 18.0009 20.9585C19.0982 20.835 20.1119 20.3126 20.8491 19.4906C21.5864 18.6685 21.9958 17.6042 21.9995 16.5C22.0016 15.3485 21.5621 14.2401 20.7716 13.4028C19.981 12.5655 18.8996 12.0632 17.7499 11.9991C16.6002 11.9351 15.4697 12.3142 14.591 13.0584C13.7124 13.8027 13.1525 14.8554 13.0265 16H10.9725C10.8495 14.8998 10.3253 13.8836 9.50009 13.1456C8.67487 12.4077 7.6066 11.9998 6.49955 12ZM14.4995 16.5C14.4995 15.7044 14.8156 14.9413 15.3782 14.3787C15.9408 13.8161 16.7039 13.5 17.4995 13.5C18.2952 13.5 19.0583 13.8161 19.6209 14.3787C20.1835 14.9413 20.4995 15.7044 20.4995 16.5C20.4995 17.2956 20.1835 18.0587 19.6209 18.6213C19.0583 19.1839 18.2952 19.5 17.4995 19.5C16.7039 19.5 15.9408 19.1839 15.3782 18.6213C14.8156 18.0587 14.4995 17.2956 14.4995 16.5Z" fill="#18202A"/>
</svg>
