<svg width="24" height="24" viewBox="0 0 24 24" fill="none" xmlns="http://www.w3.org/2000/svg">
<path fill-rule="evenodd" clip-rule="evenodd" d="M2.54711 9.88043C3.26176 8.8698 4.55178 7.2374 6.23981 5.87114C7.93808 4.4966 9.90292 3.5 12 3.5C14.0971 3.5 16.0619 4.4966 17.7602 5.87114C19.4482 7.2374 20.7382 8.8698 21.4529 9.88043C21.4831 9.92317 21.4935 9.96414 21.4935 10C21.4935 10.0359 21.4831 10.0768 21.4529 10.1196C20.7382 11.1302 19.4482 12.7626 17.7602 14.1289C16.0619 15.5034 14.0971 16.5 12 16.5C9.90292 16.5 7.93808 15.5034 6.23981 14.1289C4.55178 12.7626 3.26176 11.1302 2.5471 10.1196C2.51688 10.0768 2.50655 10.0359 2.50655 10C2.50655 9.96414 2.51688 9.92317 2.54711 9.88043ZM1.32237 10.9856C0.901269 10.3901 0.90127 9.6099 1.32238 9.01438C2.83469 6.87572 6.84749 2 12 2C17.1525 2 21.1653 6.87572 22.6776 9.01438C23.0987 9.6099 23.0987 10.3901 22.6776 10.9856C21.1653 13.1243 17.1525 18 12 18C6.84749 18 2.83469 13.1243 1.32237 10.9856ZM14.5 10C14.5 11.3807 13.3807 12.5 12 12.5C10.6193 12.5 9.5 11.3807 9.5 10C9.5 8.61929 10.6193 7.5 12 7.5C13.3807 7.5 14.5 8.61929 14.5 10ZM12 14C14.2091 14 16 12.2091 16 10C16 7.79086 14.2091 6 12 6C9.79086 6 8 7.79086 8 10C8 12.2091 9.79086 14 12 14ZM22.0256 16.3335C22.4109 15.8872 22.7763 15.42 23.122 14.936C23.3628 14.5989 23.2847 14.1305 22.9476 13.8898C22.6106 13.649 22.1422 13.7271 21.9014 14.0641C21.6022 14.4831 21.2892 14.8857 20.9625 15.2695L22.0256 16.3335ZM2.12202 14.0641C2.41961 14.4808 2.73077 14.8812 3.0555 15.2632L1.99239 16.3272C1.60915 15.8828 1.24549 15.4177 0.901416 14.936C0.660659 14.5989 0.738728 14.1305 1.07579 13.8898C1.41285 13.649 1.88126 13.7271 2.12202 14.0641ZM9.2142 19.3844L8.94082 20.8648C8.01009 20.6241 7.13108 20.2767 6.30378 19.8401L7.09594 18.5609C7.76776 18.907 8.47385 19.1847 9.2142 19.3844ZM10.4138 21.1487C10.9321 21.2154 11.4647 21.2501 12.0117 21.2501C12.5574 21.2501 13.0888 21.2156 13.6058 21.1492L13.3329 19.6711C12.9028 19.7232 12.4624 19.7501 12.0117 19.7501C11.5597 19.7501 11.118 19.723 10.6867 19.6706L10.4138 21.1487ZM4.07977 16.3603L3.02011 17.4208C3.64284 18.0274 4.3093 18.5799 5.01952 19.0649L5.80992 17.7886C5.2008 17.3683 4.62407 16.8893 4.07977 16.3603ZM19.9377 16.3661L20.9974 17.4266C20.4014 18.0065 19.7654 18.5369 19.0894 19.006L18.2987 17.7292C18.8743 17.3249 19.4206 16.868 19.9377 16.3661ZM17.8113 19.7912C16.9563 20.2514 16.0455 20.6161 15.0789 20.8658L14.8055 19.3854C15.5812 19.1765 16.3192 18.882 17.0197 18.5129L17.8113 19.7912Z" fill="#26282C"/>
</svg>
