<svg width="24" height="24" viewBox="0 0 24 24" fill="none" xmlns="http://www.w3.org/2000/svg">
<path fill-rule="evenodd" clip-rule="evenodd" d="M20.4853 3.51498C18.1421 1.17183 14.3431 1.17183 12 3.51498L9.87865 5.6363C9.48813 6.02682 9.48813 6.65999 9.87865 7.05051C10.2692 7.44104 10.9023 7.44104 11.2929 7.05051L13.4142 4.92919C14.9763 3.3671 17.5089 3.3671 19.071 4.92919C20.6331 6.49129 20.6331 9.02395 19.071 10.586L16.9497 12.7074C16.5592 13.0979 16.5592 13.7311 16.9497 14.1216C17.3402 14.5121 17.9734 14.5121 18.3639 14.1216L20.4853 12.0003C22.8284 9.65711 22.8284 5.85813 20.4853 3.51498ZM3.51467 20.4847C1.17153 18.1416 1.17153 14.3426 3.51467 11.9994L5.63599 9.8781C6.02652 9.48758 6.65968 9.48758 7.05021 9.8781C7.44073 10.2686 7.44073 10.9018 7.05021 11.2923L4.92889 13.4136C3.36679 14.9757 3.36679 17.5084 4.92889 19.0705C6.49098 20.6326 9.02364 20.6326 10.5857 19.0705L12.7071 16.9492C13.0976 16.5586 13.7308 16.5586 14.1213 16.9492C14.5118 17.3397 14.5118 17.9729 14.1213 18.3634L12 20.4847C9.65681 22.8279 5.85782 22.8279 3.51467 20.4847ZM7.05022 15.535C6.65969 15.9255 6.65969 16.5586 7.05022 16.9492C7.44074 17.3397 8.0739 17.3397 8.46443 16.9492L16.9497 8.46389C17.3402 8.07337 17.3402 7.4402 16.9497 7.04968C16.5592 6.65915 15.926 6.65915 15.5355 7.04968L7.05022 15.535Z" fill="#18202A"/>
</svg>
