<svg width="24" height="24" viewBox="0 0 24 24" fill="none" xmlns="http://www.w3.org/2000/svg">
<path fill-rule="evenodd" clip-rule="evenodd" d="M12 11C14.6667 11 16 8.5 16 5.375C16 2.875 14.6667 1 12 1C9.33333 1 8 2.875 8 5.375C8 8.5 9.33333 11 12 11ZM12 13C12.9728 13 13.913 13.1389 14.8021 13.3979C13.1007 14.6749 12 16.7089 12 19C12 20.4693 12.4527 21.8329 13.2262 22.9589C12.821 22.9861 12.4121 23 12 23C10.4526 23 8.95082 22.8047 7.51793 22.4375C6.29889 22.1251 5.2657 21.3086 4.69986 20.1845C4.6842 20.1534 4.66863 20.1222 4.65317 20.091C3.87094 18.5114 4.13694 16.5761 5.47167 15.4248C7.22347 13.9137 9.50505 13 12 13ZM24 19C24 21.7614 21.7614 24 19 24C16.2386 24 14 21.7614 14 19C14 16.2386 16.2386 14 19 14C21.7614 14 24 16.2386 24 19ZM21.4749 16.5252C21.7678 16.8181 21.7678 17.2929 21.4749 17.5858L20.0607 19L21.4749 20.4143C21.7678 20.7071 21.7678 21.182 21.4749 21.4749C21.182 21.7678 20.7071 21.7678 20.4142 21.4749L19 20.0607L17.5858 21.4749C17.2929 21.7678 16.818 21.7678 16.5251 21.4749C16.2322 21.182 16.2322 20.7071 16.5251 20.4143L17.9393 19L16.5251 17.5858C16.2322 17.2929 16.2322 16.8181 16.5251 16.5252C16.818 16.2323 17.2929 16.2323 17.5858 16.5252L19 17.9394L20.4142 16.5252C20.7071 16.2323 21.182 16.2323 21.4749 16.5252Z" fill="#18202A"/>
</svg>
