<svg width="24" height="24" viewBox="0 0 24 24" fill="none" xmlns="http://www.w3.org/2000/svg">
<path fill-rule="evenodd" clip-rule="evenodd" d="M12 6.5C12.8284 6.5 13.5 5.82843 13.5 5C13.5 4.17157 12.8284 3.5 12 3.5C11.1716 3.5 10.5 4.17157 10.5 5C10.5 5.82843 11.1716 6.5 12 6.5ZM15 5C15 6.39788 14.0439 7.57245 12.75 7.90549V11.25H19.25C20.0784 11.25 20.75 11.9216 20.75 12.75V16.0945C22.0439 16.4275 23 17.6021 23 19C23 20.6569 21.6569 22 20 22C18.3431 22 17 20.6569 17 19C17 17.6021 17.9561 16.4275 19.25 16.0945V12.75H12.75V16.0945C14.0439 16.4275 15 17.6021 15 19C15 20.6569 13.6569 22 12 22C10.3431 22 9 20.6569 9 19C9 17.6021 9.95608 16.4275 11.25 16.0945V12.75H4.75V16.0945C6.04392 16.4275 7 17.6021 7 19C7 20.6569 5.65685 22 4 22C2.34315 22 1 20.6569 1 19C1 17.6021 1.95608 16.4275 3.25 16.0945V12.75C3.25 11.9216 3.92157 11.25 4.75 11.25H11.25V7.90549C9.95608 7.57245 9 6.39788 9 5C9 3.34315 10.3431 2 12 2C13.6569 2 15 3.34315 15 5ZM5.5 19C5.5 19.8284 4.82843 20.5 4 20.5C3.17157 20.5 2.5 19.8284 2.5 19C2.5 18.1716 3.17157 17.5 4 17.5C4.82843 17.5 5.5 18.1716 5.5 19ZM13.5 19C13.5 19.8284 12.8284 20.5 12 20.5C11.1716 20.5 10.5 19.8284 10.5 19C10.5 18.1716 11.1716 17.5 12 17.5C12.8284 17.5 13.5 18.1716 13.5 19ZM21.5 19C21.5 19.8284 20.8284 20.5 20 20.5C19.1716 20.5 18.5 19.8284 18.5 19C18.5 18.1716 19.1716 17.5 20 17.5C20.8284 17.5 21.5 18.1716 21.5 19Z" fill="#18202A"/>
</svg>
