<svg width="24" height="24" viewBox="0 0 24 24" fill="none" xmlns="http://www.w3.org/2000/svg">
<path fill-rule="evenodd" clip-rule="evenodd" d="M23 12C23 18.0751 18.0751 23 12 23C5.92487 23 1 18.0751 1 12C1 5.92487 5.92487 1 12 1C18.0751 1 23 5.92487 23 12ZM11.3526 6.41619C11.6144 5.86127 12.3856 5.86127 12.6474 6.41619L13.9658 9.21029L16.8861 9.65478C17.2035 9.70309 17.4013 9.93949 17.4694 10.1725C17.5374 10.4049 17.4973 10.6947 17.2874 10.9086L15.1667 13.0693L15.6708 16.1387C15.7165 16.4169 15.6057 16.6807 15.4063 16.8416C15.2029 17.0057 14.8985 17.0641 14.6216 16.912L12 15.4718L9.37838 16.912C9.10153 17.0641 8.79712 17.0057 8.59375 16.8416C8.3943 16.6807 8.28352 16.4169 8.32921 16.1387L8.83332 13.0691L6.71225 10.9049C6.50248 10.6909 6.46262 10.4011 6.53078 10.1687C6.5991 9.93569 6.79705 9.6994 7.11459 9.6514L10.0343 9.21L11.3526 6.41619Z" fill="#18202A"/>
</svg>
