<svg width="24" height="24" viewBox="0 0 24 24" fill="none" xmlns="http://www.w3.org/2000/svg">
<path fill-rule="evenodd" clip-rule="evenodd" d="M16 5.375C16 8.5 14.6667 11 12 11C9.33333 11 8 8.5 8 5.375C8 2.875 9.33333 1 12 1C14.6667 1 16 2.875 16 5.375ZM14.5 5.375C14.5 6.75311 14.2017 7.84209 13.746 8.53625C13.3307 9.1689 12.7826 9.5 12 9.5C11.2174 9.5 10.6693 9.1689 10.254 8.53625C9.79833 7.84209 9.5 6.75311 9.5 5.375C9.5 4.37516 9.76704 3.66195 10.141 3.22368C10.4861 2.81928 11.046 2.5 12 2.5C12.954 2.5 13.5139 2.81928 13.859 3.22368C14.233 3.66195 14.5 4.37516 14.5 5.375ZM11 21.4702V22.9727C9.80451 22.9072 8.64009 22.7251 7.51792 22.4375C6.29888 22.1251 5.26569 21.3086 4.69985 20.1845C4.53212 19.8513 4.3757 19.5114 4.23108 19.1654C3.61657 17.6951 3.86147 15.9749 4.99932 14.8592C6.80313 13.0906 9.27421 12 12 12C13.7514 12 15.3976 12.4502 16.8293 13.2413C16.6283 13.5445 16.4595 13.871 16.3277 14.2158C16.2789 14.3435 16.2111 14.4626 16.1279 14.5675C14.9057 13.887 13.4987 13.5 12 13.5C9.68256 13.5 7.58426 14.4254 6.04949 15.9303C5.40564 16.5616 5.20565 17.6074 5.61506 18.587C5.74604 18.9004 5.88772 19.2082 6.03967 19.5101C6.406 20.2378 7.08095 20.7771 7.8903 20.9845C8.89231 21.2413 9.93191 21.4065 11 21.4702ZM19.75 15.75C19.75 15.1977 20.1977 14.75 20.75 14.75C21.3023 14.75 21.75 15.1977 21.75 15.75V16.5C21.75 16.9142 22.0858 17.25 22.5 17.25C22.9142 17.25 23.25 16.9142 23.25 16.5V15.75C23.25 14.3693 22.1307 13.25 20.75 13.25C19.3693 13.25 18.25 14.3693 18.25 15.75V17H14C13.4477 17 13 17.4477 13 18V23C13 23.5523 13.4477 24 14 24H20C20.5523 24 21 23.5523 21 23V18C21 17.4477 20.5523 17 20 17H19.75V15.75ZM17 19.25C17.4142 19.25 17.75 19.5858 17.75 20V21C17.75 21.4142 17.4142 21.75 17 21.75C16.5858 21.75 16.25 21.4142 16.25 21V20C16.25 19.5858 16.5858 19.25 17 19.25Z" fill="#18202A"/>
</svg>
