<svg width="24" height="24" viewBox="0 0 24 24" fill="none" xmlns="http://www.w3.org/2000/svg">
<path fill-rule="evenodd" clip-rule="evenodd" d="M8 1C7.44772 1 7 1.44772 7 2V3C7 3.55228 7.44772 4 8 4H16C16.5523 4 17 3.55228 17 3V2C17 1.44772 16.5523 1 16 1H8ZM5 2.12604C3.27477 2.57008 2 4.13618 2 6.00002V19C2 21.2092 3.79086 23 6 23H18C20.2091 23 22 21.2092 22 19V6.00002C22 4.13618 20.7252 2.57008 19 2.12604V3.00002C19 4.65687 17.6569 6.00002 16 6.00002H8C6.34315 6.00002 5 4.65687 5 3.00002V2.12604ZM17.7071 9.29291C18.0976 9.68344 18.0976 10.3166 17.7071 10.7071L10.7071 17.7071C10.3166 18.0977 9.68342 18.0977 9.29289 17.7071L6.29289 14.7071C5.90237 14.3166 5.90237 13.6834 6.29289 13.2929C6.68342 12.9024 7.31658 12.9024 7.70711 13.2929L10 15.5858L16.2929 9.29291C16.6834 8.90239 17.3166 8.90239 17.7071 9.29291Z" fill="#18202A"/>
</svg>
