<svg width="24" height="24" viewBox="0 0 24 24" fill="none" xmlns="http://www.w3.org/2000/svg">
<path d="M17.4655 11.0319C17.8623 11.1509 18.0874 11.569 17.9684 11.9657L17.9676 11.9683L17.9666 11.9717L17.9636 11.9814L17.954 12.0112C17.9461 12.0356 17.9348 12.0689 17.9202 12.1099C17.891 12.1917 17.8479 12.3049 17.7897 12.4391C17.6744 12.7053 17.495 13.0652 17.2394 13.4303C16.7385 14.146 15.8536 15.0002 14.5 15.0002C13.2252 15.0002 12.2874 14.2172 11.5873 13.6327L11.5199 13.5764C10.7269 12.9156 10.1838 12.5002 9.50001 12.5002C8.85363 12.5002 8.36349 12.896 7.98944 13.4303C7.8075 13.6902 7.6744 13.9553 7.58662 14.1578C7.5432 14.258 7.51206 14.3402 7.49245 14.3951C7.48268 14.4224 7.47584 14.4428 7.47185 14.455L7.468 14.467C7.34879 14.8635 6.93109 15.0876 6.5345 14.9686C6.13776 14.8496 5.91262 14.4315 6.03164 14.0347L6.03199 14.0336C6.04715 13.9856 6.06292 13.9379 6.07984 13.8906C6.10906 13.8087 6.15214 13.6956 6.21029 13.5614C6.32563 13.2952 6.50503 12.9352 6.76059 12.5701C7.26154 11.8545 8.1464 11.0002 9.50001 11.0002C10.7749 11.0002 11.7126 11.7832 12.4127 12.3678L12.4802 12.4241C13.2732 13.0849 13.8163 13.5002 14.5 13.5002C15.1464 13.5002 15.6365 13.1045 16.0106 12.5701C16.1925 12.3102 16.3256 12.0452 16.4134 11.8427C16.4568 11.7425 16.488 11.6603 16.5076 11.6054C16.5174 11.578 16.5242 11.5576 16.5282 11.5454L16.5319 11.5338C16.6511 11.1374 17.0689 10.9129 17.4655 11.0319Z" fill="#18202A"/>
<path fill-rule="evenodd" clip-rule="evenodd" d="M6.75 1C6.33579 1 6 1.33579 6 1.75V3H5C2.79086 3 1 4.79086 1 7V19C1 21.2091 2.79086 23 5 23H19C21.2091 23 23 21.2091 23 19V7C23 4.79086 21.2091 3 19 3H18V1.75C18 1.33579 17.6642 1 17.25 1C16.8358 1 16.5 1.33579 16.5 1.75V3H7.5V1.75C7.5 1.33579 7.16421 1 6.75 1ZM17.25 7C16.8358 7 16.5 6.66421 16.5 6.25V4.5H7.5V6.25C7.5 6.66421 7.16421 7 6.75 7C6.33579 7 6 6.66421 6 6.25V4.5H5C3.61929 4.5 2.5 5.61929 2.5 7V19C2.5 20.3807 3.61929 21.5 5 21.5H19C20.3807 21.5 21.5 20.3807 21.5 19V7C21.5 5.61929 20.3807 4.5 19 4.5H18V6.25C18 6.66421 17.6642 7 17.25 7Z" fill="#18202A"/>
</svg>
