<svg width="24" height="24" viewBox="0 0 24 24" fill="none" xmlns="http://www.w3.org/2000/svg">
<path fill-rule="evenodd" clip-rule="evenodd" d="M12.8345 6.7836C12.4988 6.07213 11.5012 6.07213 11.1655 6.7836L10.1906 8.84984L8.03936 9.17505C7.62691 9.2374 7.37447 9.54419 7.28877 9.83644C7.20331 10.1279 7.25216 10.4958 7.51984 10.7689L9.09254 12.3736L8.718 14.6542C8.66056 15.0039 8.79986 15.3397 9.05525 15.5457C9.31652 15.7565 9.71245 15.8335 10.0712 15.6364L12 14.5768L13.9288 15.6364C14.2876 15.8335 14.6835 15.7565 14.9448 15.5457C15.2002 15.3397 15.3394 15.0039 15.282 14.6542L14.9075 12.3739L16.4797 10.772C16.7476 10.4991 16.7967 10.1312 16.7114 9.83975C16.626 9.54749 16.3738 9.24056 15.9616 9.17781L13.8096 8.85027L12.8345 6.7836ZM11.2058 10.2134L12 8.53019L12.794 10.213L14.6495 10.4954L13.3041 11.8662L13.6137 13.7518L12 12.8653L10.3863 13.7518L10.6959 11.8666L9.35056 10.4939L11.2058 10.2134Z" fill="#18202A"/>
<path fill-rule="evenodd" clip-rule="evenodd" d="M12.227 1.01975C12.0271 0.984639 11.8206 0.996343 11.6251 1.05486L1.88416 3.98482L1.75636 4.03064C1.30132 4.22134 1 4.65595 1 5.14266C1 17.5133 7.18693 20.9079 10.932 22.6411L11.4616 22.8837C11.6321 22.9612 11.8162 23 12.0003 23C12.1843 23 12.3679 22.9612 12.5379 22.8837C16.1948 21.2182 23 18.1167 23 5.14266C23.0005 4.61219 22.6419 4.14324 22.1163 3.98482L12.3754 1.05486L12.227 1.01975ZM2.501 5.365L12.001 2.508L21.498 5.365L21.4965 5.64067C21.4224 10.9198 20.1669 14.6635 17.9852 17.2969L17.7796 17.54C16.4841 19.0394 15.1649 19.9526 13.0338 20.9932L12.2923 21.3457L11.999 21.48L11.7062 21.3452C9.00444 20.0903 7.52238 19.1165 6.01476 17.2967L5.81295 17.0466C3.75578 14.4279 2.57525 10.7548 2.50348 5.64196L2.501 5.365Z" fill="#18202A"/>
</svg>
