<svg width="24" height="24" viewBox="0 0 24 24" fill="none" xmlns="http://www.w3.org/2000/svg">
<path fill-rule="evenodd" clip-rule="evenodd" d="M20 5H16.9C16.4367 2.71776 14.419 1 12 1C9.58104 1 7.56329 2.71776 7.10002 5H4C2.34315 5 1 6.34315 1 8V10.0465L8.80109 12.5468C10.8935 13.0896 13.1055 13.0896 15.198 12.5468L23 10.0465V8C23 6.34315 21.6569 5 20 5ZM12 3C13.3062 3 14.4175 3.83481 14.8293 5H9.17071C9.58254 3.83481 10.6938 3 12 3ZM13.5 9.5C13.5 10.3284 12.8284 11 12 11C11.1716 11 10.5 10.3284 10.5 9.5C10.5 8.67157 11.1716 8 12 8C12.8284 8 13.5 8.67157 13.5 9.5Z" fill="#18202A"/>
<path d="M23 12.1286L15.6163 14.4948L15.5965 14.5C13.2432 15.1144 10.7558 15.1144 8.40253 14.5L8.38266 14.4948L1 12.1286V18C1 19.6569 2.34315 21 4 21H20C21.6569 21 23 19.6569 23 18V12.1286Z" fill="#18202A"/>
</svg>
