<svg width="24" height="24" viewBox="0 0 24 24" fill="none" xmlns="http://www.w3.org/2000/svg">
<g clip-path="url(#clip0_3379_9198)">
<path d="M8 1C6.89543 1 6 1.89543 6 3V5C6 5.95652 6.44766 6.80849 7.14489 7.35782C8.01253 8.04141 9 8.89543 9 10V12C9 13.1046 8.10457 14 7 14H5.28571C2.91878 14 1 15.9188 1 18.2857C1 19.2325 1.76751 20 2.71429 20H21.2857C22.2325 20 23 19.2325 23 18.2857C23 15.9188 21.0812 14 18.7143 14H17C15.8954 14 15 13.1046 15 12V10C15 8.89543 15.9875 8.04141 16.8551 7.35782C17.5523 6.80849 18 5.95652 18 5V3C18 1.89543 17.1046 1 16 1H8Z" fill="#18202A"/>
<path d="M2 22C2 21.4477 2.44772 21 3 21H21C21.5523 21 22 21.4477 22 22C22 22.5523 21.5523 23 21 23H3C2.44772 23 2 22.5523 2 22Z" fill="#18202A"/>
</g>
<defs>
<clipPath id="clip0_3379_9198">
<rect width="24" height="24" fill="white"/>
</clipPath>
</defs>
</svg>
