<svg width="24" height="24" viewBox="0 0 24 24" fill="none" xmlns="http://www.w3.org/2000/svg">
<path fill-rule="evenodd" clip-rule="evenodd" d="M10 6.05001V7V8.49678V11C10 11.5523 10.4477 12 11 12C11.5523 12 12 11.5523 12 11V8.0908L12.3979 8.01004C12.4292 8.00367 12.4631 8 12.5 8C12.6756 8 12.8317 8.08902 12.9237 8.2339L13 8.35413V11C13 11.5523 13.4477 12 14 12C14.5523 12 15 11.5523 15 11V9.15437L15.3226 9.0318C15.3751 9.01186 15.4338 9 15.5 9C15.6756 9 15.8317 9.08902 15.9237 9.2339L16 9.35413V11C16 11.5523 16.4477 12 17 12C17.5523 12 18 11.5523 18 11V10.1544L18.3226 10.0318C18.3751 10.0119 18.4338 10 18.5 10C18.7396 10 18.9438 10.1705 18.99 10.3979L19 10.4473V10.4969L19 10.5V10.5003V12.4997V12.5L19 12.5031V16.656V16.6571C19.0003 17.2506 18.8934 17.8349 18.6888 18.3752L20.5592 19.0835L18.6888 18.3752C18.4843 18.9153 18.1883 19.3953 17.8257 19.7917C17.4633 20.1877 17.0428 20.4915 16.5932 20.695C16.1442 20.8983 15.6701 21 15.1962 21H10.8765C10.4156 20.9996 9.95269 20.8796 9.52431 20.6386C9.09469 20.3969 8.70617 20.0365 8.40288 19.5727L8.40137 19.5704L7.15609 17.6721L7.15551 17.6712C6.41085 16.5325 5.99979 15.1488 6 13.7146V13.7143C6 13.2054 6.18669 12.749 6.47109 12.4383C6.70915 12.1782 6.99087 12.0436 7.25665 12.0092L9 11.7837V10.0258V2.5C9 2.22386 9.22386 2 9.5 2C9.77614 2 10 2.22386 10 2.5V6.05001ZM19.3013 21.1417C19.8403 20.5525 20.2677 19.8531 20.5592 19.0835C20.8507 18.3138 21.0004 17.4889 21 16.656V12.5031L21 12.5L21 12L21 10.5L21 10.4969V10H20.95C20.7184 8.85888 19.7095 8 18.5 8C18.1874 8 17.8882 8.05738 17.6123 8.16218C17.169 7.46363 16.3886 7 15.5 7C15.1874 7 14.8882 7.05738 14.6123 7.16219C14.2544 6.59824 13.6768 6.1874 13 6.05001C12.8384 6.01722 12.6712 6 12.5 6C12.3288 6 12.1616 6.01722 12 6.05001V4.02764V2.5C12 1.11929 10.8807 0 9.5 0C8.11929 0 7 1.11929 7 2.5V10.0258C6.24559 10.1234 5.53845 10.4951 4.99584 11.0879C4.35821 11.7845 4 12.7292 4 13.7143C3.99974 15.5262 4.51805 17.2928 5.4824 18.767L6.72907 20.6674C7.20054 21.3883 7.82259 21.976 8.5436 22.3817C9.26461 22.7873 10.0638 22.9993 10.8748 23H15.1962C15.9587 23 16.7136 22.8359 17.418 22.517C18.1224 22.1982 18.7623 21.7308 19.3013 21.1417Z" fill="#18202A"/>
</svg>
