<svg width="24" height="24" viewBox="0 0 24 24" fill="none" xmlns="http://www.w3.org/2000/svg">
<path fill-rule="evenodd" clip-rule="evenodd" d="M5 2.5H19C20.3807 2.5 21.5 3.61929 21.5 5V13.4967C22.1331 13.9713 22.6499 14.5925 23 15.3099V5C23 2.79086 21.2091 1 19 1H5C2.79086 1 1 2.79086 1 5V19C1 21.2091 2.79086 23 5 23H13.1696C12.747 22.6183 12.5057 22.0637 12.5001 21.5H5C3.61929 21.5 2.5 20.3807 2.5 19V5C2.5 3.61929 3.61929 2.5 5 2.5ZM20 12.7277V11.5C20 10.3954 19.1046 9.5 18 9.5H6C4.89543 9.5 4 10.3954 4 11.5V18C4 19.1046 4.89543 20 6 20H13.18C13.2195 19.9657 13.2608 19.9323 13.3039 19.9C13.4298 19.8056 13.5039 19.6574 13.5039 19.5V18.5H6C5.72386 18.5 5.5 18.2761 5.5 18V11.5C5.5 11.2239 5.72386 11 6 11H18C18.2761 11 18.5 11.2239 18.5 11.5V12.5C18.5013 12.5 18.5026 12.5 18.5039 12.5C19.0251 12.5 19.5276 12.5797 20 12.7277ZM6 4C4.89543 4 4 4.89543 4 6C4 7.10457 4.89543 8 6 8C7.10457 8 8 7.10457 8 6C8 4.89543 7.10457 4 6 4ZM10 6C10 5.58579 10.3358 5.25 10.75 5.25H18.75C19.1642 5.25 19.5 5.58579 19.5 6C19.5 6.41421 19.1642 6.75 18.75 6.75H10.75C10.3358 6.75 10 6.41421 10 6Z" fill="#18202A"/>
<path fill-rule="evenodd" clip-rule="evenodd" d="M22 17.5143L22 17.5C22 15.567 20.433 14 18.5 14C17.334 14 16.3012 14.5701 15.6652 15.4469L22.2639 20.4929C22.0932 20.1945 22 19.853 22 19.5V17.5143ZM21.7653 22H14.5C14.0195 22 13.8156 21.3883 14.2 21.1C14.7036 20.7223 15 20.1295 15 19.5V17.5L15 17.5L15 17.5C15 17.2848 15.0194 17.0742 15.0566 16.8698L21.7653 22ZM17 23.5C17 23.2239 17.2239 23 17.5 23H19.5C19.7762 23 20 23.2239 20 23.5C20 23.7761 19.7762 24 19.5 24H17.5C17.2239 24 17 23.7761 17 23.5Z" fill="#18202A"/>
<path d="M14.5 14.5L23 21" stroke="#18202A" stroke-width="1.5" stroke-linecap="round"/>
</svg>
