<svg width="24" height="24" viewBox="0 0 24 24" fill="none" xmlns="http://www.w3.org/2000/svg">
<path fill-rule="evenodd" clip-rule="evenodd" d="M20.9729 9.5C20.9048 9.09137 20.711 8.71097 20.4142 8.41421L13.5858 1.58579C13.289 1.28903 12.9086 1.09517 12.5 1.02714V1H7C4.79086 1 3 2.79086 3 5V19C3 21.2091 4.79086 23 7 23H13.8762C13.5203 22.5448 13.2237 22.0409 12.9982 21.5H7C5.61929 21.5 4.5 20.3807 4.5 19V5C4.5 3.61929 5.61929 2.5 7 2.5H11V11H19.5V12.5189C20.0195 12.5585 20.5218 12.659 21 12.8135V9.5H20.9729ZM19.3536 9.47487C19.3617 9.483 19.3695 9.49139 19.377 9.5H12.5V2.62299C12.5086 2.63049 12.517 2.63832 12.5251 2.64645L19.3536 9.47487Z" fill="#18202A"/>
<path fill-rule="evenodd" clip-rule="evenodd" d="M24 19C24 21.7614 21.7614 24 19 24C16.2386 24 14 21.7614 14 19C14 16.2386 16.2386 14 19 14C21.7614 14 24 16.2386 24 19ZM18.75 16.5C19.1642 16.5 19.5 16.8358 19.5 17.25V19.4393L20.7803 20.7197C21.0732 21.0126 21.0732 21.4874 20.7803 21.7803C20.4874 22.0732 20.0126 22.0732 19.7197 21.7803L18.2197 20.2803C18.079 20.1397 18 19.9489 18 19.75V17.25C18 16.8358 18.3358 16.5 18.75 16.5Z" fill="#18202A"/>
</svg>
