<svg width="24" height="24" viewBox="0 0 24 24" fill="none" xmlns="http://www.w3.org/2000/svg">
<path fill-rule="evenodd" clip-rule="evenodd" d="M14 4.5H4C2.61929 4.5 1.5 5.61929 1.5 7V17C1.5 18.3807 2.61929 19.5 4 19.5H14C15.3807 19.5 16.5 18.3807 16.5 17V7C16.5 5.61929 15.3807 4.5 14 4.5ZM4 3C1.79086 3 0 4.79086 0 7V17C0 19.2091 1.79086 21 4 21H14C16.2091 21 18 19.2091 18 17V7C18 4.79086 16.2091 3 14 3H4Z" fill="#18202A"/>
<path fill-rule="evenodd" clip-rule="evenodd" d="M20.5 9.36835V14.6316L22.5 16.0716V7.92835L20.5 9.36835ZM19.4157 8.3007C19.1547 8.48862 19 8.79061 19 9.11223V14.8878C19 15.2094 19.1547 15.5114 19.4157 15.6993L22.4157 17.8593C23.0772 18.3356 24 17.8629 24 17.0478V6.95223C24 6.13713 23.0772 5.66443 22.4157 6.1407L19.4157 8.3007Z" fill="#18202A"/>
</svg>
