<svg width="24" height="24" viewBox="0 0 24 24" fill="none" xmlns="http://www.w3.org/2000/svg">
<path fill-rule="evenodd" clip-rule="evenodd" d="M12 21.5C17.2467 21.5 21.5 17.2467 21.5 12C21.5 6.75329 17.2467 2.5 12 2.5C6.75329 2.5 2.5 6.75329 2.5 12C2.5 17.2467 6.75329 21.5 12 21.5ZM12 23C18.0751 23 23 18.0751 23 12C23 5.92487 18.0751 1 12 1C5.92487 1 1 5.92487 1 12C1 18.0751 5.92487 23 12 23Z" fill="#18202A"/>
<path fill-rule="evenodd" clip-rule="evenodd" d="M16.5172 8.4569C16.8172 8.74256 16.8288 9.21729 16.5431 9.51724L10.8288 15.5172C10.6825 15.6708 10.4781 15.7553 10.2661 15.7497C10.0541 15.7442 9.8543 15.6491 9.71627 15.4881L7.43056 12.8214C7.16099 12.5069 7.19741 12.0335 7.51191 11.7639C7.8264 11.4943 8.29988 11.5307 8.56944 11.8452L10.315 13.8817L15.4569 8.48276C15.7426 8.18281 16.2173 8.17123 16.5172 8.4569Z" fill="#18202A"/>
</svg>
