<svg width="28" height="28" viewBox="0 0 28 28" fill="none" xmlns="http://www.w3.org/2000/svg">
<g clip-path="url(#clip0_3875_8913)">
<g clip-path="url(#clip1_3875_8913)">
<path fill-rule="evenodd" clip-rule="evenodd" d="M12.8333 1.16699C10.9003 1.16699 9.33331 2.734 9.33331 4.66699V5.83366H3.20831C2.72506 5.83366 2.33331 6.22541 2.33331 6.70866C2.33331 7.19191 2.72506 7.58366 3.20831 7.58366H4.66665V19.8337C4.66665 23.6997 7.80065 26.8337 11.6666 26.8337H16.1888C15.7736 26.3026 15.4277 25.7147 15.1645 25.0837H11.6666C8.76715 25.0837 6.41665 22.7332 6.41665 19.8337V7.58366H21.5833V14.6058C21.7758 14.5911 21.9704 14.5837 22.1666 14.5837C22.5634 14.5837 22.953 14.6141 23.3333 14.6728V7.58366H24.7916C25.2749 7.58366 25.6666 7.19191 25.6666 6.70866C25.6666 6.22541 25.2749 5.83366 24.7916 5.83366H18.6666V4.66699C18.6666 2.734 17.0996 1.16699 15.1666 1.16699H12.8333ZM16.9166 4.66699C16.9166 3.70049 16.1331 2.91699 15.1666 2.91699H12.8333C11.8668 2.91699 11.0833 3.70049 11.0833 4.66699V5.83366H16.9166V4.66699Z" fill="#18202A"/>
<path d="M15.4583 18.6275C15.9015 17.7893 16.4971 17.0442 17.2083 16.4291V12.8337C17.2083 12.3504 16.8166 11.9587 16.3333 11.9587C15.8501 11.9587 15.4583 12.3504 15.4583 12.8337V18.6275Z" fill="#18202A"/>
<path d="M11.6666 11.9587C12.1499 11.9587 12.5416 12.3504 12.5416 12.8337V19.8337C12.5416 20.3169 12.1499 20.7087 11.6666 20.7087C11.1834 20.7087 10.7916 20.3169 10.7916 19.8337V12.8337C10.7916 12.3504 11.1834 11.9587 11.6666 11.9587Z" fill="#18202A"/>
<path fill-rule="evenodd" clip-rule="evenodd" d="M22.1666 28.0003C25.3883 28.0003 28 25.3887 28 22.167C28 18.9453 25.3883 16.3337 22.1666 16.3337C18.945 16.3337 16.3333 18.9453 16.3333 22.167C16.3333 25.3887 18.945 28.0003 22.1666 28.0003ZM23.0416 19.2503C23.0416 18.7671 22.6499 18.3753 22.1666 18.3753C21.6834 18.3753 21.2916 18.7671 21.2916 19.2503V22.167C21.2916 22.3991 21.3838 22.6216 21.5479 22.7857L23.2979 24.5357C23.6396 24.8774 24.1937 24.8774 24.5354 24.5357C24.8771 24.194 24.8771 23.64 24.5354 23.2983L23.0416 21.8046V19.2503Z" fill="#18202A"/>
</g>
</g>
<defs>
<clipPath id="clip0_3875_8913">
<rect width="28" height="28" fill="white"/>
</clipPath>
<clipPath id="clip1_3875_8913">
<rect width="28" height="28" fill="white"/>
</clipPath>
</defs>
</svg>
