<svg width="28" height="28" viewBox="0 0 28 28" fill="none" xmlns="http://www.w3.org/2000/svg">
<path fill-rule="evenodd" clip-rule="evenodd" d="M5.83333 1.16699C3.256 1.16699 1.16666 3.25633 1.16666 5.83366V22.167C1.16666 24.7443 3.256 26.8337 5.83333 26.8337H22.1667C24.744 26.8337 26.8333 24.7443 26.8333 22.167V5.83366C26.8333 3.25633 24.744 1.16699 22.1667 1.16699H5.83333ZM7 4.66699C5.71133 4.66699 4.66666 5.71166 4.66666 7.00033C4.66666 8.28899 5.71133 9.33366 7 9.33366C8.28866 9.33366 9.33333 8.28899 9.33333 7.00033C9.33333 5.71166 8.28866 4.66699 7 4.66699ZM11.6667 7.00033C11.6667 6.35599 12.189 5.83366 12.8333 5.83366H22.1667C22.811 5.83366 23.3333 6.35599 23.3333 7.00033C23.3333 7.64466 22.811 8.16699 22.1667 8.16699H12.8333C12.189 8.16699 11.6667 7.64466 11.6667 7.00033ZM5.83333 12.8337C5.189 12.8337 4.66666 13.356 4.66666 14.0003V22.167C4.66666 22.8113 5.189 23.3337 5.83333 23.3337H22.1667C22.811 23.3337 23.3333 22.8113 23.3333 22.167V14.0003C23.3333 13.356 22.811 12.8337 22.1667 12.8337H5.83333Z" fill="#18202A"/>
</svg>
