<svg width="28" height="28" viewBox="0 0 28 28" fill="none" xmlns="http://www.w3.org/2000/svg">
<path d="M17.5 15.1665C17.5 17.0995 15.933 18.6665 14 18.6665C12.067 18.6665 10.5 17.0995 10.5 15.1665C10.5 13.2335 12.067 11.6665 14 11.6665C15.933 11.6665 17.5 13.2335 17.5 15.1665Z" fill="#18202A"/>
<path fill-rule="evenodd" clip-rule="evenodd" d="M21.0812 4.6665C20.8893 4.66647 20.7003 4.61911 20.5311 4.5286C20.3618 4.43803 20.2174 4.30707 20.1109 4.14734L19.1635 2.72517C18.8439 2.24575 18.4109 1.85264 17.9029 1.58074C17.395 1.30883 16.8277 1.16655 16.2515 1.1665H11.7482C11.172 1.16655 10.6048 1.30883 10.0968 1.58074C9.58878 1.85264 9.15578 2.24575 8.83619 2.72517L7.88885 4.14734C7.78228 4.30707 7.63793 4.43803 7.4686 4.5286C7.29938 4.61911 7.11044 4.66647 6.91854 4.6665H7C3.77834 4.6665 1.16666 7.27818 1.16666 10.4998V19.8332C1.16666 23.0548 3.77834 25.6665 7 25.6665H21C24.2217 25.6665 26.8333 23.0548 26.8333 19.8332V10.4998C26.8333 7.27818 24.2217 4.6665 21 4.6665H21.0812ZM19.8333 15.1665C19.8333 18.3882 17.2217 20.9998 14 20.9998C10.7783 20.9998 8.16666 18.3882 8.16666 15.1665C8.16666 11.9448 10.7783 9.33317 14 9.33317C17.2217 9.33317 19.8333 11.9448 19.8333 15.1665Z" fill="#18202A"/>
</svg>
