<svg width="28" height="28" viewBox="0 0 28 28" fill="none" xmlns="http://www.w3.org/2000/svg">
<path fill-rule="evenodd" clip-rule="evenodd" d="M19.8333 25.6667C23.055 25.6667 25.6667 23.055 25.6667 19.8333C25.6667 16.6117 23.055 14 19.8333 14C16.6117 14 14 16.6117 14 19.8333C14 23.055 16.6117 25.6667 19.8333 25.6667ZM19.8333 28C24.3437 28 28 24.3437 28 19.8333C28 15.323 24.3437 11.6667 19.8333 11.6667C15.323 11.6667 11.6667 15.323 11.6667 19.8333C11.6667 24.3437 15.323 28 19.8333 28Z" fill="#18202A"/>
<path fill-rule="evenodd" clip-rule="evenodd" d="M15.4583 19.8333C15.4583 17.7393 17.1559 16.0417 19.25 16.0417H22.1667C22.6499 16.0417 23.0417 16.4334 23.0417 16.9167C23.0417 17.3999 22.6499 17.7917 22.1667 17.7917H19.25C18.1224 17.7917 17.2083 18.7058 17.2083 19.8333C17.2083 20.9609 18.1224 21.875 19.25 21.875H21.5833C22.0666 21.875 22.4583 21.4832 22.4583 21C22.4583 20.8389 22.3277 20.7083 22.1667 20.7083H20.4167C19.9334 20.7083 19.5417 20.3166 19.5417 19.8333C19.5417 19.3501 19.9334 18.9583 20.4167 18.9583H22.1667C23.2942 18.9583 24.2083 19.8724 24.2083 21C24.2083 22.4497 23.0331 23.625 21.5833 23.625H19.25C17.1559 23.625 15.4583 21.9274 15.4583 19.8333Z" fill="#18202A"/>
<path fill-rule="evenodd" clip-rule="evenodd" d="M0 7C0 6.16715 0.507437 5.55939 0.994625 5.17545C1.49497 4.78114 2.14667 4.47706 2.84799 4.24329C4.26281 3.77168 6.14317 3.5 8.16667 3.5C10.1902 3.5 12.0705 3.77168 13.4853 4.24329C14.1867 4.47706 14.8384 4.78114 15.3387 5.17545C15.8259 5.55939 16.3333 6.16715 16.3333 7V12.4526C14.3804 13.3803 12.8541 15.0603 12.1289 17.1182C10.9555 17.3643 9.59685 17.5 8.16667 17.5C6.14317 17.5 4.26281 17.2283 2.84799 16.7567C2.67281 16.6983 2.50073 16.6355 2.33333 16.5681V17.3977C2.35402 17.4197 2.3873 17.4513 2.4389 17.4919C2.647 17.6559 3.02042 17.8546 3.58585 18.0431C4.70453 18.416 6.32417 18.6667 8.16667 18.6667C9.5447 18.6667 10.7981 18.5265 11.8104 18.2998C11.7161 18.7965 11.6667 19.3091 11.6667 19.8333C11.6667 20.1259 11.6821 20.4149 11.7121 20.6995C10.6385 20.894 9.43049 21 8.16667 21C6.14317 21 4.26281 20.7283 2.84799 20.2567C2.67281 20.1983 2.50073 20.1355 2.33333 20.0681V20.8977C2.35402 20.9197 2.3873 20.9513 2.4389 20.9919C2.647 21.1559 3.02042 21.3546 3.58585 21.5431C4.70453 21.916 6.32417 22.1667 8.16667 22.1667C9.58561 22.1667 10.8724 22.018 11.9 21.7793C12.0901 22.5571 12.3916 23.2911 12.7866 23.9636C11.4772 24.3069 9.87281 24.5 8.16667 24.5C6.14317 24.5 4.26281 24.2283 2.84799 23.7567C2.14667 23.5229 1.49497 23.2189 0.994625 22.8246C0.507437 22.4406 0 21.8329 0 21V7ZM3.58585 6.45688C3.02967 6.64228 2.65926 6.83758 2.44924 7C2.65926 7.16242 3.02967 7.35772 3.58585 7.54312C4.70453 7.91601 6.32417 8.16667 8.16667 8.16667C10.0092 8.16667 11.6288 7.91601 12.7475 7.54312C13.3037 7.35772 13.6741 7.16242 13.8841 7C13.6741 6.83758 13.3037 6.64228 12.7475 6.45688C11.6288 6.08399 10.0092 5.83333 8.16667 5.83333C6.32417 5.83333 4.70453 6.08399 3.58585 6.45688ZM2.33333 13.8977V13.0681C2.50073 13.1355 2.67281 13.1983 2.84799 13.2567C4.26281 13.7283 6.14317 14 8.16667 14C10.1902 14 12.0705 13.7283 13.4853 13.2567C13.6605 13.1983 13.8326 13.1355 14 13.0681V13.8977C13.9793 13.9197 13.946 13.9513 13.8944 13.9919C13.6863 14.1559 13.3129 14.3546 12.7475 14.5431C11.6288 14.916 10.0092 15.1667 8.16667 15.1667C6.32417 15.1667 4.70453 14.916 3.58585 14.5431C3.02042 14.3546 2.647 14.1559 2.4389 13.9919C2.3873 13.9513 2.35402 13.9197 2.33333 13.8977ZM14 9.56807C13.8326 9.63554 13.6605 9.69832 13.4853 9.75671C12.0705 10.2283 10.1902 10.5 8.16667 10.5C6.14317 10.5 4.26281 10.2283 2.84799 9.75671C2.67281 9.69832 2.50073 9.63554 2.33333 9.56807V10.3977C2.35402 10.4197 2.3873 10.4513 2.4389 10.4919C2.647 10.6559 3.02042 10.8546 3.58585 11.0431C4.70453 11.416 6.32417 11.6667 8.16667 11.6667C10.0092 11.6667 11.6288 11.416 12.7475 11.0431C13.3129 10.8546 13.6863 10.6559 13.8944 10.4919C13.946 10.4513 13.9793 10.4197 14 10.3977V9.56807Z" fill="#18202A"/>
</svg>
