<svg width="28" height="28" viewBox="0 0 28 28" fill="none" xmlns="http://www.w3.org/2000/svg">
<g clip-path="url(#clip0_2291_21940)">
<path fill-rule="evenodd" clip-rule="evenodd" d="M8.16663 1.16666C7.52229 1.16666 6.99996 1.68899 6.99996 2.33332V3.49999H5.83329C3.25596 3.49999 1.16663 5.58933 1.16663 8.16666V22.1667C1.16663 24.744 3.25596 26.8333 5.83329 26.8333H13.7137C12.6616 25.5209 11.9568 23.9182 11.7386 22.1645C11.7148 22.1659 11.6908 22.1667 11.6666 22.1667C11.0223 22.1667 10.5 21.6443 10.5 21C10.5 20.3557 11.0223 19.8333 11.6666 19.8333C11.6908 19.8333 11.7148 19.8341 11.7386 19.8355C11.856 18.8923 12.1141 17.9928 12.4913 17.1586C12.2802 17.3695 11.9886 17.5 11.6666 17.5C11.0223 17.5 10.5 16.9777 10.5 16.3333C10.5 15.689 11.0223 15.1667 11.6666 15.1667C12.311 15.1667 12.8333 15.689 12.8333 16.3333C12.8333 16.3896 12.8293 16.445 12.8216 16.4991C13.6705 14.9599 14.9412 13.6861 16.4779 12.8333H6.99996C6.35563 12.8333 5.83329 12.311 5.83329 11.6667C5.83329 11.0223 6.35563 10.5 6.99996 10.5H21C21.6443 10.5 22.1666 11.0223 22.1666 11.6667C22.1666 11.6908 22.1659 11.7148 22.1644 11.7386C23.9182 11.9569 25.5209 12.6617 26.8333 13.7137V8.16666C26.8333 5.58933 24.744 3.49999 22.1666 3.49999H21V2.33332C21 1.68899 20.4776 1.16666 19.8333 1.16666C19.189 1.16666 18.6666 1.68899 18.6666 2.33332V3.49999H9.33329V2.33332C9.33329 1.68899 8.81096 1.16666 8.16663 1.16666ZM5.83329 16.3333C5.83329 15.689 6.35563 15.1667 6.99996 15.1667C7.64429 15.1667 8.16663 15.689 8.16663 16.3333C8.16663 16.9777 7.64429 17.5 6.99996 17.5C6.35563 17.5 5.83329 16.9777 5.83329 16.3333ZM6.99996 19.8333C6.35563 19.8333 5.83329 20.3557 5.83329 21C5.83329 21.6443 6.35563 22.1667 6.99996 22.1667C7.64429 22.1667 8.16663 21.6443 8.16663 21C8.16663 20.3557 7.64429 19.8333 6.99996 19.8333ZM28 21C28 24.866 24.866 28 21 28C17.134 28 14 24.866 14 21C14 17.134 17.134 14 21 14C24.866 14 28 17.134 28 21ZM21 17.2083C21.4832 17.2083 21.875 17.6001 21.875 18.0833V20.6376L23.3687 22.1313C23.7104 22.473 23.7104 23.027 23.3687 23.3687C23.027 23.7104 22.4729 23.7104 22.1312 23.3687L20.3812 21.6187C20.2171 21.4546 20.125 21.2321 20.125 21V18.0833C20.125 17.6001 20.5167 17.2083 21 17.2083Z" fill="#18202A"/>
</g>
<defs>
<clipPath id="clip0_2291_21940">
<rect width="28" height="28" fill="white"/>
</clipPath>
</defs>
</svg>
