<svg width="28" height="28" viewBox="0 0 28 28" fill="none" xmlns="http://www.w3.org/2000/svg">
<path fill-rule="evenodd" clip-rule="evenodd" d="M19.8333 26.2498C23.3771 26.2498 26.25 23.377 26.25 19.8332C26.25 16.2893 23.3771 13.4165 19.8333 13.4165C16.2895 13.4165 13.4167 16.2893 13.4167 19.8332C13.4167 23.377 16.2895 26.2498 19.8333 26.2498ZM19.8333 27.9998C24.3436 27.9998 28 24.3435 28 19.8332C28 15.3228 24.3436 11.6665 19.8333 11.6665C15.323 11.6665 11.6667 15.3228 11.6667 19.8332C11.6667 24.3435 15.323 27.9998 19.8333 27.9998Z" fill="#18202A"/>
<path fill-rule="evenodd" clip-rule="evenodd" d="M1.16666 6.99984C1.16666 6.29466 1.5962 5.76211 2.05015 5.40436C2.51396 5.03884 3.13088 4.74793 3.81521 4.51982C5.19302 4.06055 7.04078 3.7915 9.04166 3.7915C11.0425 3.7915 12.8903 4.06055 14.2681 4.51982C14.9524 4.74793 15.5694 5.03884 16.0332 5.40436C16.4871 5.76211 16.9167 6.29466 16.9167 6.99984V12.2027C16.293 12.4413 15.7061 12.7541 15.1667 13.1303V12.6215C14.8873 12.7552 14.5849 12.8743 14.2681 12.9799C12.8903 13.4391 11.0425 13.7082 9.04166 13.7082C7.04078 13.7082 5.19302 13.4391 3.81521 12.9799C3.49841 12.8743 3.19606 12.7552 2.91666 12.6215V13.9865C2.92518 14.0089 2.96628 14.0892 3.13335 14.2208C3.37798 14.4136 3.78619 14.6255 4.36861 14.8197C5.5243 15.2049 7.17653 15.4582 9.04166 15.4582C10.6875 15.4582 12.1675 15.261 13.2869 14.9499C12.8286 15.5632 12.4546 16.2431 12.1818 16.9723C11.2186 17.125 10.1538 17.2082 9.04166 17.2082C7.04078 17.2082 5.19302 16.9391 3.81521 16.4799C3.49841 16.3743 3.19606 16.2552 2.91666 16.1215V17.4865C2.92518 17.5089 2.96628 17.5892 3.13335 17.7208C3.37798 17.9136 3.78619 18.1255 4.36861 18.3197C5.5243 18.7049 7.17653 18.9582 9.04166 18.9582C10.0101 18.9582 10.9212 18.8899 11.7352 18.7703C11.69 19.1182 11.6667 19.4729 11.6667 19.8332C11.6667 20.072 11.6769 20.3085 11.697 20.5422C10.866 20.6502 9.97031 20.7082 9.04166 20.7082C7.04078 20.7082 5.19302 20.4391 3.81521 19.9799C3.49841 19.8743 3.19606 19.7552 2.91666 19.6215V20.9865C2.92518 21.0089 2.96628 21.0892 3.13335 21.2208C3.37798 21.4136 3.78619 21.6255 4.36861 21.8197C5.5243 22.2049 7.17653 22.4582 9.04166 22.4582C10.1258 22.4582 11.138 22.3726 12.0226 22.2253C12.2 22.8052 12.4402 23.3577 12.7352 23.8748C11.6337 24.0893 10.3715 24.2082 9.04166 24.2082C7.04078 24.2082 5.19302 23.9391 3.81521 23.4799C3.13088 23.2517 2.51396 22.9608 2.05015 22.5953C1.5962 22.2376 1.16666 21.705 1.16666 20.9998V6.99984ZM3.13335 6.77883C2.99043 6.89147 2.93969 6.96649 2.92268 6.99984C2.93969 7.03319 2.99043 7.10821 3.13335 7.22084C3.37798 7.41363 3.78619 7.62551 4.36861 7.81965C5.5243 8.20489 7.17653 8.45817 9.04166 8.45817C10.9068 8.45817 12.559 8.20489 13.7147 7.81965C14.2971 7.62551 14.7053 7.41363 14.95 7.22084C15.0929 7.10821 15.1436 7.03319 15.1606 6.99984C15.1436 6.96649 15.0929 6.89147 14.95 6.77883C14.7053 6.58604 14.2971 6.37416 13.7147 6.18002C12.559 5.79479 10.9068 5.5415 9.04166 5.5415C7.17653 5.5415 5.5243 5.79479 4.36861 6.18002C3.78619 6.37416 3.37798 6.58604 3.13335 6.77883ZM15.1667 9.12151C14.8873 9.25519 14.5849 9.37425 14.2681 9.47985C12.8903 9.93912 11.0425 10.2082 9.04166 10.2082C7.04078 10.2082 5.19302 9.93912 3.81521 9.47985C3.49841 9.37425 3.19606 9.25519 2.91666 9.12151V10.4865C2.92518 10.5089 2.96628 10.5892 3.13335 10.7208C3.37798 10.9136 3.78619 11.1255 4.36861 11.3197C5.5243 11.7049 7.17653 11.9582 9.04166 11.9582C10.9068 11.9582 12.559 11.7049 13.7147 11.3197C14.2971 11.1255 14.7053 10.9136 14.95 10.7208C15.117 10.5892 15.1581 10.5089 15.1667 10.4865V9.12151Z" fill="#18202A"/>
<path fill-rule="evenodd" clip-rule="evenodd" d="M15.4583 19.8332C15.4583 17.7391 17.1559 16.0415 19.25 16.0415H22.1667C22.6499 16.0415 23.0417 16.4333 23.0417 16.9165C23.0417 17.3998 22.6499 17.7915 22.1667 17.7915H19.25C18.1224 17.7915 17.2083 18.7056 17.2083 19.8332C17.2083 20.9608 18.1224 21.8748 19.25 21.8748H21.5833C22.0666 21.8748 22.4583 21.4831 22.4583 20.9998C22.4583 20.8388 22.3277 20.7082 22.1667 20.7082H20.4167C19.9334 20.7082 19.5417 20.3164 19.5417 19.8332C19.5417 19.3499 19.9334 18.9582 20.4167 18.9582H22.1667C23.2942 18.9582 24.2083 19.8723 24.2083 20.9998C24.2083 22.4496 23.0331 23.6248 21.5833 23.6248H19.25C17.1559 23.6248 15.4583 21.9272 15.4583 19.8332Z" fill="#18202A"/>
</svg>
