<svg width="28" height="28" viewBox="0 0 28 28" fill="none" xmlns="http://www.w3.org/2000/svg">
<path d="M17.2799 4.60873L10.5 11.3886V5.83301C10.5 3.90001 12.067 2.33301 14 2.33301C15.5023 2.33301 16.7835 3.27952 17.2799 4.60873Z" fill="#18202A"/>
<path d="M22.4272 2.75445C22.9434 2.23827 23.7315 2.18949 24.1875 2.64551C24.6435 3.10153 24.5947 3.88965 24.0786 4.40583L17.5 10.9844V12.833C17.5 14.766 15.933 16.333 14 16.333C13.4601 16.333 12.9487 16.2107 12.492 15.9924L10.7839 17.7004C11.7059 18.3109 12.8115 18.6663 14 18.6663C16.8248 18.6663 19.1806 16.6585 19.7182 13.9922C19.8455 13.3606 20.3557 12.833 21 12.833C21.6444 12.833 22.1755 13.3583 22.0845 13.9962C21.5742 17.5745 18.7445 20.4052 15.1667 20.917V23.333H18.0833C18.7277 23.333 19.25 23.8553 19.25 24.4997C19.25 25.144 18.7277 25.6663 18.0833 25.6663H9.91667C9.27233 25.6663 8.75 25.144 8.75 24.4997C8.75 23.8553 9.27233 23.333 9.91667 23.333H12.8333V20.917C11.4501 20.7191 10.1788 20.1747 9.10999 19.3744L5.57283 22.9116C5.05664 23.4277 4.26852 23.4765 3.8125 23.0205C3.35648 22.5645 3.40526 21.7764 3.92144 21.2602L22.4272 2.75445Z" fill="#18202A"/>
<path d="M6.30733 15.5813L8.19164 13.697C7.98677 13.2044 7.54063 12.833 7.00004 12.833C6.35571 12.833 5.82462 13.3583 5.91558 13.9962C5.99369 14.544 6.12615 15.0742 6.30733 15.5813Z" fill="#18202A"/>
</svg>
