<svg width="28" height="28" viewBox="0 0 28 28" fill="none" xmlns="http://www.w3.org/2000/svg">
<g clip-path="url(#clip0_3289_16932)">
<path d="M7.29165 2.3335C7.7749 2.3335 8.16665 2.72525 8.16665 3.2085V6.41683H11.375C11.8582 6.41683 12.25 6.80858 12.25 7.29183C12.25 7.77508 11.8582 8.16683 11.375 8.16683H8.16665V11.3752C8.16665 11.8584 7.7749 12.2502 7.29165 12.2502C6.8084 12.2502 6.41665 11.8584 6.41665 11.3752V8.16683H3.20831C2.72506 8.16683 2.33331 7.77508 2.33331 7.29183C2.33331 6.80858 2.72506 6.41683 3.20831 6.41683H6.41665V3.2085C6.41665 2.72525 6.8084 2.3335 7.29165 2.3335ZM16.625 6.41683C16.1417 6.41683 15.75 6.80858 15.75 7.29183C15.75 7.77508 16.1417 8.16683 16.625 8.16683H24.7916C25.2749 8.16683 25.6666 7.77508 25.6666 7.29183C25.6666 6.80858 25.2749 6.41683 24.7916 6.41683H16.625ZM15.75 20.7085C15.75 20.2252 16.1417 19.8335 16.625 19.8335H24.7916C25.2749 19.8335 25.6666 20.2252 25.6666 20.7085C25.6666 21.1917 25.2749 21.5835 24.7916 21.5835H16.625C16.1417 21.5835 15.75 21.1917 15.75 20.7085ZM20.7083 18.6668C21.3526 18.6668 21.875 18.1445 21.875 17.5002C21.875 16.8558 21.3526 16.3335 20.7083 16.3335C20.064 16.3335 19.5416 16.8558 19.5416 17.5002C19.5416 18.1445 20.064 18.6668 20.7083 18.6668ZM21.875 24.5002C21.875 25.1445 21.3526 25.6668 20.7083 25.6668C20.064 25.6668 19.5416 25.1445 19.5416 24.5002C19.5416 23.8558 20.064 23.3335 20.7083 23.3335C21.3526 23.3335 21.875 23.8558 21.875 24.5002ZM2.58959 16.6605C2.24789 16.3188 2.24789 15.7648 2.58959 15.4231C2.9313 15.0814 3.48532 15.0814 3.82703 15.4231L7.29165 18.8877L10.7563 15.4231C11.098 15.0814 11.652 15.0814 11.9937 15.4231C12.3354 15.7648 12.3354 16.3188 11.9937 16.6605L8.52908 20.1252L11.9937 23.5898C12.3354 23.9315 12.3354 24.4855 11.9937 24.8272C11.652 25.1689 11.098 25.1689 10.7563 24.8272L7.29165 21.3626L3.82703 24.8272C3.48532 25.1689 2.9313 25.1689 2.58959 24.8272C2.24789 24.4855 2.24789 23.9315 2.58959 23.5898L6.05421 20.1252L2.58959 16.6605Z" fill="#18202A"/>
</g>
<defs>
<clipPath id="clip0_3289_16932">
<rect width="28" height="28" fill="white"/>
</clipPath>
</defs>
</svg>
