<svg width="28" height="28" viewBox="0 0 28 28" fill="none" xmlns="http://www.w3.org/2000/svg">
<g clip-path="url(#clip0_3444_9520)">
<path fill-rule="evenodd" clip-rule="evenodd" d="M18.6666 2.3335C20.5996 2.3335 22.1666 3.9005 22.1666 5.8335C24.0996 5.8335 25.6666 7.4005 25.6666 9.3335V17.5002C25.6666 19.4332 24.0996 21.0002 22.1666 21.0002V22.1668C22.1666 24.0998 20.5996 25.6668 18.6666 25.6668H9.33331C7.40032 25.6668 5.83331 24.0998 5.83331 22.1668V16.3335C5.83331 14.4005 7.40032 12.8335 9.33331 12.8335H18.6666C20.5996 12.8335 22.1666 14.4005 22.1666 16.3335V19.2502C23.1331 19.2502 23.9166 18.4667 23.9166 17.5002V9.3335C23.9166 8.367 23.1331 7.5835 22.1666 7.5835H5.83331C4.86681 7.5835 4.08331 8.367 4.08331 9.3335V17.5002C4.08331 18.4667 4.86681 19.2502 5.83331 19.2502V21.0002C3.90032 21.0002 2.33331 19.4332 2.33331 17.5002V9.3335C2.33331 7.4005 3.90032 5.8335 5.83331 5.8335C5.83331 3.9005 7.40032 2.3335 9.33331 2.3335H18.6666ZM7.58331 5.8335C7.58331 4.867 8.36682 4.0835 9.33331 4.0835H18.6666C19.6331 4.0835 20.4166 4.867 20.4166 5.8335H7.58331ZM7.58331 16.3335C7.58331 15.367 8.36682 14.5835 9.33331 14.5835H18.6666C19.6331 14.5835 20.4166 15.367 20.4166 16.3335V22.1668C20.4166 23.1333 19.6331 23.9168 18.6666 23.9168H9.33331C8.36682 23.9168 7.58331 23.1333 7.58331 22.1668V16.3335Z" fill="#18202A"/>
<path d="M21 11.6668C21.6443 11.6668 22.1666 11.1445 22.1666 10.5002C22.1666 9.85583 21.6443 9.3335 21 9.3335C20.3556 9.3335 19.8333 9.85583 19.8333 10.5002C19.8333 11.1445 20.3556 11.6668 21 11.6668Z" fill="#18202A"/>
</g>
<defs>
<clipPath id="clip0_3444_9520">
<rect width="28" height="28" fill="white"/>
</clipPath>
</defs>
</svg>
