<svg width="28" height="28" viewBox="0 0 28 28" fill="none" xmlns="http://www.w3.org/2000/svg">
<path fill-rule="evenodd" clip-rule="evenodd" d="M11.4543 5.76256L13.2751 7.58333H22.1667C23.7775 7.58333 25.0833 8.88917 25.0833 10.5H2.91666V8.16667C2.91666 6.55584 4.22249 5.25 5.83332 5.25H10.2169C10.681 5.25 11.1262 5.43437 11.4543 5.76256ZM2.91666 11.6667V19.8333C2.91666 21.4442 4.22249 22.75 5.83332 22.75H14.6054C14.6515 23.356 14.7689 23.9421 14.9491 24.5H5.83332C3.25599 24.5 1.16666 22.4107 1.16666 19.8333V8.16667C1.16666 5.58934 3.25599 3.5 5.83332 3.5H10.2169C11.1452 3.5 12.0354 3.86875 12.6918 4.52513L14 5.83333H22.1667C24.744 5.83333 26.8333 7.92267 26.8333 10.5V16.1889C26.3022 15.7736 25.7144 15.4277 25.0833 15.1645V11.6667H2.91666ZM28 22.1667C28 25.3883 25.3883 28 22.1667 28C18.945 28 16.3333 25.3883 16.3333 22.1667C16.3333 18.945 18.945 16.3333 22.1667 16.3333C25.3883 16.3333 28 18.945 28 22.1667ZM18.6667 22.1667C18.6667 21.6834 19.0584 21.2917 19.5417 21.2917H24.7917C25.2749 21.2917 25.6667 21.6834 25.6667 22.1667C25.6667 22.6499 25.2749 23.0417 24.7917 23.0417H19.5417C19.0584 23.0417 18.6667 22.6499 18.6667 22.1667Z" fill="#18202A"/>
</svg>
