<svg width="28" height="28" viewBox="0 0 28 28" fill="none" xmlns="http://www.w3.org/2000/svg">
<path d="M5.83333 11.6667C7.122 11.6667 8.16667 10.622 8.16667 9.33333C8.16667 8.04467 7.122 7 5.83333 7C4.54467 7 3.5 8.04467 3.5 9.33333C3.5 10.622 4.54467 11.6667 5.83333 11.6667Z" fill="#18202A"/>
<path d="M5.83333 21C7.122 21 8.16667 19.9553 8.16667 18.6667C8.16667 17.378 7.122 16.3333 5.83333 16.3333C4.54467 16.3333 3.5 17.378 3.5 18.6667C3.5 19.9553 4.54467 21 5.83333 21Z" fill="#18202A"/>
<path d="M16.3333 9.33333C16.3333 10.622 15.2887 11.6667 14 11.6667C12.7113 11.6667 11.6667 10.622 11.6667 9.33333C11.6667 8.04467 12.7113 7 14 7C15.2887 7 16.3333 8.04467 16.3333 9.33333Z" fill="#18202A"/>
<path d="M16.3333 18.6667C16.3333 19.9553 15.2887 21 14 21C12.7113 21 11.6667 19.9553 11.6667 18.6667C11.6667 17.378 12.7113 16.3333 14 16.3333C15.2887 16.3333 16.3333 17.378 16.3333 18.6667Z" fill="#18202A"/>
<path d="M24.5 18.6667C24.5 19.9553 23.4553 21 22.1667 21C20.878 21 19.8333 19.9553 19.8333 18.6667C19.8333 17.378 20.878 16.3333 22.1667 16.3333C23.4553 16.3333 24.5 17.378 24.5 18.6667Z" fill="#18202A"/>
<path d="M24.5 9.33333C24.5 10.622 23.4553 11.6667 22.1667 11.6667C20.878 11.6667 19.8333 10.622 19.8333 9.33333C19.8333 8.04467 20.878 7 22.1667 7C23.4553 7 24.5 8.04467 24.5 9.33333Z" fill="#18202A"/>
</svg>
