<svg width="28" height="28" viewBox="0 0 28 28" fill="none" xmlns="http://www.w3.org/2000/svg">
<g clip-path="url(#clip0_2294_10544)">
<path fill-rule="evenodd" clip-rule="evenodd" d="M14 12.8337C17.1111 12.8337 18.6667 9.91699 18.6667 6.27116C18.6667 3.35449 17.1111 1.16699 14 1.16699C10.8889 1.16699 9.33333 3.35449 9.33333 6.27116C9.33333 9.91699 10.8889 12.8337 14 12.8337ZM14 15.167C15.1349 15.167 16.2319 15.329 17.2691 15.6312C15.2841 17.121 14 19.494 14 22.167C14 23.8812 14.5282 25.472 15.4306 26.7857C14.9579 26.8175 14.4808 26.8337 14 26.8337C12.1947 26.8337 10.4426 26.6059 8.77092 26.1774C7.3487 25.813 6.14332 24.8603 5.48317 23.5489C5.46489 23.5126 5.44673 23.4762 5.42869 23.4398C4.5161 21.5969 4.82643 19.3391 6.38361 17.9959C8.42738 16.233 11.0892 15.167 14 15.167ZM28 22.167C28 25.3887 25.3883 28.0003 22.1667 28.0003C18.945 28.0003 16.3333 25.3887 16.3333 22.167C16.3333 18.9453 18.945 16.3337 22.1667 16.3337C25.3883 16.3337 28 18.9453 28 22.167ZM25.054 19.2797C25.3957 19.6214 25.3957 20.1754 25.054 20.5171L23.4041 22.167L25.054 23.817C25.3957 24.1587 25.3957 24.7127 25.054 25.0544C24.7123 25.3961 24.1583 25.3961 23.8166 25.0544L22.1667 23.4045L20.5167 25.0544C20.175 25.3961 19.621 25.3961 19.2793 25.0544C18.9376 24.7127 18.9376 24.1587 19.2793 23.817L20.9292 22.167L19.2793 20.5171C18.9376 20.1754 18.9376 19.6214 19.2793 19.2797C19.621 18.938 20.175 18.938 20.5167 19.2797L22.1667 20.9296L23.8166 19.2797C24.1583 18.938 24.7123 18.938 25.054 19.2797Z" fill="#18202A"/>
</g>
<defs>
<clipPath id="clip0_2294_10544">
<rect width="28" height="28" fill="white"/>
</clipPath>
</defs>
</svg>
