<svg width="28" height="28" viewBox="0 0 28 28" fill="none" xmlns="http://www.w3.org/2000/svg">
<path fill-rule="evenodd" clip-rule="evenodd" d="M18.6667 6.27116C18.6667 9.91699 17.1111 12.8337 14 12.8337C10.8889 12.8337 9.33334 9.91699 9.33334 6.27116C9.33334 3.35449 10.8889 1.16699 14 1.16699C17.1111 1.16699 18.6667 3.35449 18.6667 6.27116ZM16.9167 6.27116C16.9167 7.87895 16.5686 9.14943 16.037 9.95928C15.5525 10.6974 14.913 11.0837 14 11.0837C13.087 11.0837 12.4475 10.6974 11.963 9.95928C11.4314 9.14943 11.0833 7.87895 11.0833 6.27116C11.0833 5.10468 11.3949 4.2726 11.8312 3.76128C12.2338 3.28949 12.887 2.91699 14 2.91699C15.113 2.91699 15.7662 3.28949 16.1688 3.76128C16.6051 4.2726 16.9167 5.10468 16.9167 6.27116ZM12.8333 25.0489V26.8018C11.4386 26.7254 10.0801 26.513 8.77091 26.1774C7.34869 25.813 6.14331 24.8603 5.48317 23.5489C5.28748 23.1602 5.10498 22.7637 4.93626 22.36C4.21933 20.6446 4.50505 18.6377 5.83254 17.3361C7.93699 15.2727 10.8199 14.0003 14 14.0003C16.2223 14.0003 18.2995 14.6217 20.0674 15.7002C19.8517 16.0218 19.6701 16.3681 19.5277 16.7341C19.4549 16.9212 19.3405 17.0887 19.1967 17.219C17.6854 16.287 15.9063 15.7503 14 15.7503C11.2963 15.7503 8.84831 16.83 7.05774 18.5857C6.30659 19.3222 6.07326 20.5423 6.55091 21.6851C6.70372 22.0508 6.86901 22.4099 7.04628 22.7621C7.47367 23.6111 8.26111 24.2402 9.20536 24.4822C10.3744 24.7818 11.5872 24.9746 12.8333 25.0489ZM23.0417 18.3753C23.0417 17.731 23.564 17.2087 24.2083 17.2087C24.8527 17.2087 25.375 17.731 25.375 18.3753V19.2503C25.375 19.7336 25.7668 20.1253 26.25 20.1253C26.7333 20.1253 27.125 19.7336 27.125 19.2503V18.3753C27.125 16.7645 25.8192 15.4587 24.2083 15.4587C22.5975 15.4587 21.2917 16.7645 21.2917 18.3753V19.8337H16.1667C15.6144 19.8337 15.1667 20.2814 15.1667 20.8337V27.0003C15.1667 27.5526 15.6144 28.0003 16.1667 28.0003H23.5C24.0523 28.0003 24.5 27.5526 24.5 27.0003V20.8337C24.5 20.2814 24.0523 19.8337 23.5 19.8337H23.0417V18.3753ZM19.8333 22.4587C20.3166 22.4587 20.7083 22.8504 20.7083 23.3337V24.5003C20.7083 24.9836 20.3166 25.3753 19.8333 25.3753C19.3501 25.3753 18.9583 24.9836 18.9583 24.5003V23.3337C18.9583 22.8504 19.3501 22.4587 19.8333 22.4587Z" fill="#18202A"/>
</svg>
