<svg width="28" height="28" viewBox="0 0 28 28" fill="none" xmlns="http://www.w3.org/2000/svg">
<path d="M14.875 13.7082C14.875 13.2249 14.4832 12.8332 14 12.8332C13.5167 12.8332 13.125 13.2249 13.125 13.7082V16.6248H10.2083C9.72506 16.6248 9.33331 17.0166 9.33331 17.4998C9.33331 17.9831 9.72506 18.3748 10.2083 18.3748H13.125V21.2915C13.125 21.7748 13.5167 22.1665 14 22.1665C14.4832 22.1665 14.875 21.7748 14.875 21.2915V18.3748H17.7916C18.2749 18.3748 18.6666 17.9831 18.6666 17.4998C18.6666 17.0166 18.2749 16.6248 17.7916 16.6248H14.875V13.7082Z" fill="#18202A"/>
<path fill-rule="evenodd" clip-rule="evenodd" d="M4.67814 7.88081C4.8235 6.08144 6.32984 4.6665 8.16665 4.6665H19.8333C21.6701 4.6665 23.1765 6.08144 23.3218 7.88081C23.9778 8.4628 24.4136 9.28748 24.4885 10.2141C25.2112 10.8553 25.6666 11.791 25.6666 12.8332V22.1665C25.6666 24.0995 24.0996 25.6665 22.1666 25.6665H5.83331C3.90032 25.6665 2.33331 24.0995 2.33331 22.1665V12.8332C2.33331 11.7911 2.78876 10.8553 3.51147 10.2141C3.58633 9.28749 4.02214 8.4628 4.67814 7.88081ZM6.85979 7.00259C7.1803 6.64297 7.64703 6.4165 8.16665 6.4165H19.8333C20.3529 6.4165 20.8197 6.64298 21.1402 7.0026C21.0937 7.00077 21.0469 6.99984 21 6.99984H6.99998C6.95303 6.99984 6.90629 7.00076 6.85979 7.00259ZM5.69312 9.33593C5.73963 9.3341 5.78636 9.33317 5.83331 9.33317H22.1666C22.2136 9.33317 22.2603 9.3341 22.3068 9.33593C21.9863 8.9763 21.5196 8.74984 21 8.74984H6.99998C6.48036 8.74984 6.01363 8.97631 5.69312 9.33593ZM23.9166 12.8332C23.9166 11.8667 23.1331 11.0832 22.1666 11.0832H5.83331C4.86681 11.0832 4.08331 11.8667 4.08331 12.8332V22.1665C4.08331 23.133 4.86681 23.9165 5.83331 23.9165H22.1666C23.1331 23.9165 23.9166 23.133 23.9166 22.1665V12.8332Z" fill="#18202A"/>
</svg>
