<svg width="28" height="28" viewBox="0 0 28 28" fill="none" xmlns="http://www.w3.org/2000/svg">
<path fill-rule="evenodd" clip-rule="evenodd" d="M4.33337 2.33337C3.2288 2.33337 2.33337 3.2288 2.33337 4.33337V10.8334C2.33337 11.9379 3.2288 12.8334 4.33337 12.8334H10.8334C11.9379 12.8334 12.8334 11.9379 12.8334 10.8334V4.33337C12.8334 3.2288 11.9379 2.33337 10.8334 2.33337H4.33337ZM4.33337 15.1667C3.2288 15.1667 2.33337 16.0621 2.33337 17.1667V23.6667C2.33337 24.7713 3.2288 25.6667 4.33337 25.6667H10.8334C11.9379 25.6667 12.8334 24.7713 12.8334 23.6667V17.1667C12.8334 16.0621 11.9379 15.1667 10.8334 15.1667H4.33337ZM15.1667 4.33337C15.1667 3.2288 16.0621 2.33337 17.1667 2.33337H23.6667C24.7713 2.33337 25.6667 3.2288 25.6667 4.33337V10.8334C25.6667 11.9379 24.7713 12.8334 23.6667 12.8334H17.1667C16.0621 12.8334 15.1667 11.9379 15.1667 10.8334V4.33337ZM17.1667 15.1667C16.0621 15.1667 15.1667 16.0621 15.1667 17.1667V23.6667C15.1667 24.7713 16.0621 25.6667 17.1667 25.6667H23.6667C24.7713 25.6667 25.6667 24.7713 25.6667 23.6667V17.1667C25.6667 16.0621 24.7713 15.1667 23.6667 15.1667H17.1667Z" fill="#18202A"/>
</svg>
