<svg width="28" height="28" viewBox="0 0 28 28" fill="none" xmlns="http://www.w3.org/2000/svg">
<path fill-rule="evenodd" clip-rule="evenodd" d="M18.6313 1.13128C18.973 0.789573 19.527 0.789573 19.8687 1.13128L20.7938 2.05632C20.9077 2.17023 21.0923 2.17023 21.2062 2.05632L22.1313 1.13128C22.473 0.789573 23.027 0.789573 23.3687 1.13128C23.7104 1.47299 23.7104 2.02701 23.3687 2.36872L22.4437 3.29376C22.3298 3.40766 22.3298 3.59234 22.4437 3.70624L23.3687 4.63128C23.7104 4.97299 23.7104 5.52701 23.3687 5.86872C23.027 6.21043 22.473 6.21043 22.1313 5.86872L21.2062 4.94368C21.0923 4.82977 20.9077 4.82977 20.7938 4.94368L19.8687 5.86872C19.527 6.21043 18.973 6.21043 18.6313 5.86872C18.2896 5.52701 18.2896 4.97299 18.6313 4.63128L19.5563 3.70624C19.6702 3.59234 19.6702 3.40766 19.5563 3.29376L18.6313 2.36872C18.2896 2.02701 18.2896 1.47299 18.6313 1.13128ZM11.375 2.19219C11.375 1.70894 10.9833 1.31719 10.5 1.31719C10.0168 1.31719 9.625 1.70894 9.625 2.19219V3.5004C9.625 3.66148 9.49442 3.79206 9.33334 3.79206H8.02513C7.54188 3.79206 7.15013 4.18381 7.15013 4.66706C7.15013 5.15031 7.54188 5.54206 8.02513 5.54206L9.33334 5.54206C9.49442 5.54206 9.625 5.67265 9.625 5.83373L9.625 7.14194C9.625 7.62519 10.0168 8.01694 10.5 8.01694C10.9833 8.01694 11.375 7.62519 11.375 7.14194L11.375 5.83373C11.375 5.67265 11.5056 5.54206 11.6667 5.54206H12.9749C13.4581 5.54206 13.8499 5.15031 13.8499 4.66706C13.8499 4.18381 13.4581 3.79206 12.9749 3.79206L11.6667 3.79206C11.5056 3.79206 11.375 3.66148 11.375 3.5004V2.19219ZM19.3501 8.84973L19.1499 8.64956C18.2387 7.73834 16.7613 7.73834 15.8501 8.64956L14.2416 10.258L17.7416 13.758L19.3501 12.1496C20.2613 11.2383 20.2613 9.76095 19.3501 8.84973ZM2.81659 21.6831L12.5917 11.9079L16.0917 15.4079L6.31659 25.1831C5.40536 26.0943 3.92798 26.0943 3.01676 25.1831L2.81659 24.9829C1.90537 24.0717 1.90536 22.5943 2.81659 21.6831ZM24.2083 15.0255C24.2083 14.5423 23.8166 14.1505 23.3333 14.1505C22.8501 14.1505 22.4583 14.5423 22.4583 15.0255V16.3337C22.4583 16.4948 22.3278 16.6254 22.1667 16.6254H20.8585C20.3752 16.6254 19.9835 17.0171 19.9835 17.5004C19.9835 17.9836 20.3752 18.3754 20.8585 18.3754H22.1667C22.3278 18.3754 22.4583 18.506 22.4583 18.6671V19.9753C22.4583 20.4585 22.8501 20.8503 23.3333 20.8503C23.8166 20.8503 24.2083 20.4585 24.2083 19.9753V18.6671C24.2083 18.506 24.3389 18.3754 24.5 18.3754H25.8082C26.2915 18.3754 26.6832 17.9836 26.6832 17.5004C26.6832 17.0171 26.2915 16.6254 25.8082 16.6254L24.5 16.6254C24.3389 16.6254 24.2083 16.4948 24.2083 16.3337V15.0255Z" fill="#18202A"/>
</svg>
