<svg width="28" height="28" viewBox="0 0 28 28" fill="none" xmlns="http://www.w3.org/2000/svg">
<g clip-path="url(#clip0_2293_22500)">
<path fill-rule="evenodd" clip-rule="evenodd" d="M10.7917 1.75C10.7917 1.26675 10.3999 0.875 9.91667 0.875C9.43342 0.875 9.04167 1.26675 9.04167 1.75V4.08333C9.04167 4.56658 9.43342 4.95833 9.91667 4.95833C10.3999 4.95833 10.7917 4.56658 10.7917 4.08333V1.75ZM4.70205 3.46461C4.36034 3.12291 3.80632 3.12291 3.46461 3.46461C3.12291 3.80632 3.12291 4.36034 3.46461 4.70205L5.21461 6.45205C5.55632 6.79376 6.11034 6.79376 6.45205 6.45205C6.79376 6.11034 6.79376 5.55632 6.45205 5.21461L4.70205 3.46461ZM1.75 9.04167C1.26675 9.04167 0.875 9.43342 0.875 9.91667C0.875 10.3999 1.26675 10.7917 1.75 10.7917H4.08333C4.56658 10.7917 4.95833 10.3999 4.95833 9.91667C4.95833 9.43342 4.56658 9.04167 4.08333 9.04167H1.75ZM17.2083 26.25C17.2083 26.7332 17.6001 27.125 18.0833 27.125C18.5666 27.125 18.9583 26.7332 18.9583 26.25V23.9167C18.9583 23.4334 18.5666 23.0417 18.0833 23.0417C17.6001 23.0417 17.2083 23.4334 17.2083 23.9167V26.25ZM21.5479 22.7854L23.2979 24.5354C23.6397 24.8771 24.1937 24.8771 24.5354 24.5354C24.8771 24.1937 24.8771 23.6397 24.5354 23.2979L22.7854 21.5479C22.4437 21.2062 21.8897 21.2062 21.5479 21.5479C21.2062 21.8897 21.2062 22.4437 21.5479 22.7854ZM26.25 18.9583C26.7332 18.9583 27.125 18.5666 27.125 18.0833C27.125 17.6001 26.7332 17.2083 26.25 17.2083H23.9167C23.4334 17.2083 23.0417 17.6001 23.0417 18.0833C23.0417 18.5666 23.4334 18.9583 23.9167 18.9583H26.25ZM4.30665 23.6933C1.68688 21.0735 1.68688 16.826 4.30665 14.2063L6.78152 11.7314C7.12323 11.3897 7.67725 11.3897 8.01896 11.7314C8.36067 12.0731 8.36067 12.6271 8.01896 12.9688L5.54409 15.4437C3.60774 17.3801 3.60774 20.5195 5.54409 22.4559C7.48043 24.3922 10.6199 24.3922 12.5562 22.4559L15.0311 19.981C15.3728 19.6393 15.9268 19.6393 16.2685 19.981C16.6102 20.3227 16.6102 20.8767 16.2685 21.2184L13.7937 23.6933C11.1739 26.3131 6.92642 26.3131 4.30665 23.6933ZM14.2062 4.30672C16.826 1.68695 21.0735 1.68695 23.6932 4.30672C26.313 6.92649 26.313 11.174 23.6932 13.7937L21.2184 16.2686C20.8766 16.6103 20.3226 16.6103 19.9809 16.2686C19.6392 15.9269 19.6392 15.3729 19.9809 15.0312L22.4558 12.5563C24.3921 10.6199 24.3921 7.48051 22.4558 5.54416C20.5194 3.60781 17.38 3.60781 15.4436 5.54416L12.9688 8.01903C12.6271 8.36074 12.073 8.36074 11.7313 8.01903C11.3896 7.67732 11.3896 7.1233 11.7313 6.78159L14.2062 4.30672Z" fill="#18202A"/>
</g>
<defs>
<clipPath id="clip0_2293_22500">
<rect width="28" height="28" fill="white"/>
</clipPath>
</defs>
</svg>
