<svg width="28" height="28" viewBox="0 0 28 28" fill="none" xmlns="http://www.w3.org/2000/svg">
<path d="M8.50842 8.50829C8.96403 8.05268 9.70272 8.05268 10.1583 8.50829L14 12.35L17.8417 8.50829C18.2974 8.05268 19.0361 8.05268 19.4917 8.50829C19.9473 8.96391 19.9473 9.7026 19.4917 10.1582L15.65 13.9999L19.4917 17.8416C19.9473 18.2972 19.9473 19.0359 19.4917 19.4915C19.0361 19.9472 18.2974 19.9472 17.8417 19.4915L14 15.6498L10.1583 19.4915C9.70272 19.9472 8.96403 19.9472 8.50842 19.4915C8.0528 19.0359 8.0528 18.2972 8.50842 17.8416L12.3501 13.9999L8.50842 10.1582C8.0528 9.7026 8.0528 8.96391 8.50842 8.50829Z" fill="#18202A"/>
<path fill-rule="evenodd" clip-rule="evenodd" d="M7.00004 2.33325C4.42271 2.33325 2.33337 4.42259 2.33337 6.99992V20.9999C2.33337 23.5772 4.42271 25.6666 7.00004 25.6666H21C23.5774 25.6666 25.6667 23.5772 25.6667 20.9999V6.99992C25.6667 4.42259 23.5774 2.33325 21 2.33325H7.00004ZM23.3334 6.99992C23.3334 5.71125 22.2887 4.66659 21 4.66659H7.00004C5.71138 4.66659 4.66671 5.71125 4.66671 6.99992V20.9999C4.66671 22.2886 5.71138 23.3333 7.00004 23.3333H21C22.2887 23.3333 23.3334 22.2886 23.3334 20.9999V6.99992Z" fill="#18202A"/>
</svg>
