<svg width="28" height="28" viewBox="0 0 28 28" fill="none" xmlns="http://www.w3.org/2000/svg">
<path fill-rule="evenodd" clip-rule="evenodd" d="M25.0833 14C25.0833 7.87886 20.1211 2.91669 14 2.91669C7.87883 2.91669 2.91666 7.87886 2.91666 14C2.91666 20.1212 7.87883 25.0834 14 25.0834C20.1211 25.0834 25.0833 20.1212 25.0833 14ZM26.8333 14C26.8333 6.91237 21.0876 1.16669 14 1.16669C6.91234 1.16669 1.16666 6.91237 1.16666 14C1.16666 21.0877 6.91234 26.8334 14 26.8334C21.0876 26.8334 26.8333 21.0877 26.8333 14Z" fill="#18202A"/>
<path fill-rule="evenodd" clip-rule="evenodd" d="M8.71461 13.4521C8.3729 13.1104 8.3729 12.5563 8.71461 12.2146L13.3813 7.54797C13.723 7.20626 14.277 7.20626 14.6187 7.54797L19.2854 12.2146C19.6271 12.5563 19.6271 13.1104 19.2854 13.4521C18.9437 13.7938 18.3896 13.7938 18.0479 13.4521L14.875 10.2791V19.8334C14.875 20.3166 14.4832 20.7084 14 20.7084C13.5167 20.7084 13.125 20.3166 13.125 19.8334V10.2791L9.95204 13.4521C9.61033 13.7938 9.05631 13.7938 8.71461 13.4521Z" fill="#18202A"/>
</svg>
