<svg width="28" height="28" viewBox="0 0 28 28" fill="none" xmlns="http://www.w3.org/2000/svg">
<path fill-rule="evenodd" clip-rule="evenodd" d="M26.8333 3.79184C26.3501 3.79184 25.9583 4.18359 25.9583 4.66684V10.7918H19.8333C19.3501 10.7918 18.9583 11.1836 18.9583 11.6668C18.9583 12.1501 19.3501 12.5418 19.8333 12.5418H26.8333C27.3166 12.5418 27.7083 12.1501 27.7083 11.6668V4.66684C27.7083 4.18359 27.3166 3.79184 26.8333 3.79184Z" fill="#18202A"/>
<path fill-rule="evenodd" clip-rule="evenodd" d="M9.04165 16.3335C9.04165 15.8503 8.64989 15.4585 8.16665 15.4585H1.16665C0.683395 15.4585 0.291645 15.8503 0.291645 16.3335V23.3335C0.291645 23.8168 0.683395 24.2085 1.16665 24.2085C1.64989 24.2085 2.04165 23.8168 2.04165 23.3335V17.2085H8.16665C8.64989 17.2085 9.04165 16.8168 9.04165 16.3335Z" fill="#18202A"/>
<path fill-rule="evenodd" clip-rule="evenodd" d="M17.1542 3.07586C15.3083 2.54195 13.3573 2.48433 11.4832 2.90838C9.60909 3.33242 7.87293 4.22431 6.43673 5.50082C5.00053 6.77732 3.9111 8.39685 3.2701 10.2083C3.10889 10.6638 3.34752 11.1638 3.80308 11.325C4.25865 11.4863 4.75865 11.2476 4.91986 10.7921C5.46224 9.25932 6.38407 7.88896 7.59931 6.80883C8.81456 5.72871 10.2836 4.97404 11.8694 4.61523C13.4552 4.25643 15.1061 4.30518 16.6679 4.75695C18.2298 5.20872 19.6517 6.04877 20.8011 7.19873C20.8076 7.2052 20.8141 7.21157 20.8208 7.21783L26.2341 12.3045C26.5863 12.6354 27.1401 12.6182 27.471 12.266C27.8019 11.9138 27.7847 11.3601 27.4325 11.0292L22.029 5.95171C20.6723 4.59775 18.9955 3.60847 17.1542 3.07586ZM0.528986 15.7343C0.198069 16.0865 0.215298 16.6402 0.567465 16.9712L5.97102 22.0486C7.32764 23.4026 9.00445 24.3919 10.8458 24.9245C12.6916 25.4584 14.6426 25.516 16.5167 25.092C18.3909 24.6679 20.127 23.776 21.5632 22.4995C22.9994 21.223 24.0889 19.6035 24.7299 17.7921C24.8911 17.3365 24.6524 16.8365 24.1969 16.6753C23.7413 16.5141 23.2413 16.7527 23.0801 17.2083C22.5377 18.741 21.6159 20.1114 20.4006 21.1915C19.1854 22.2716 17.7163 23.0263 16.1305 23.3851C14.5448 23.7439 12.8939 23.6952 11.3321 23.2434C9.7702 22.7916 8.34823 21.9516 7.19885 20.8016C7.19239 20.7951 7.18582 20.7888 7.17916 20.7825L1.76582 15.6958C1.41366 15.3649 0.859905 15.3822 0.528986 15.7343Z" fill="#18202A"/>
</svg>
