<svg width="28" height="28" viewBox="0 0 28 28" fill="none" xmlns="http://www.w3.org/2000/svg">
<path fill-rule="evenodd" clip-rule="evenodd" d="M14 26.8333C6.91234 26.8333 1.16666 21.0876 1.16666 14C1.16666 6.91231 6.91234 1.16663 14 1.16663C21.0877 1.16663 26.8333 6.91231 26.8333 14C26.8333 21.0876 21.0877 26.8333 14 26.8333ZM14.3417 8.50834C14.7973 8.05272 15.536 8.05272 15.9916 8.50834C16.4472 8.96395 16.4472 9.70264 15.9916 10.1583L12.1499 14L15.9916 17.8417C16.4472 18.2973 16.4472 19.036 15.9916 19.4916C15.536 19.9472 14.7973 19.9472 14.3417 19.4916L9.67504 14.8249C9.21943 14.3693 9.21943 13.6306 9.67504 13.175L14.3417 8.50834Z" fill="#18202A"/>
</svg>
