<svg width="28" height="28" viewBox="0 0 28 28" fill="none" xmlns="http://www.w3.org/2000/svg">
<path fill-rule="evenodd" clip-rule="evenodd" d="M1.16666 5.83317C1.16666 3.25584 3.256 1.1665 5.83333 1.1665H7L3.5 5.83317H1.16666ZM6.41666 5.83317L9.91666 1.1665H14L10.5 5.83317H6.41666ZM13.4167 5.83317L16.9167 1.1665H21L17.5 5.83317H13.4167ZM20.4167 5.83317L23.7185 1.43073C25.533 2.07031 26.8333 3.79988 26.8333 5.83317H20.4167ZM1.16666 8.1665H26.8333V22.1665C26.8333 24.7438 24.744 26.8332 22.1667 26.8332H5.83333C3.256 26.8332 1.16666 24.7438 1.16666 22.1665V8.1665ZM12.1331 13.585C11.4144 13.1497 10.5 13.6723 10.5 14.5183V20.4697C10.5 21.3158 11.4144 21.8383 12.1331 21.4031L17.0465 18.4274C17.7445 18.0046 17.7445 16.9834 17.0465 16.5607L12.1331 13.585Z" fill="#18202A"/>
</svg>
