<svg width="28" height="28" viewBox="0 0 28 28" fill="none" xmlns="http://www.w3.org/2000/svg">
<g clip-path="url(#clip0_2293_22443)">
<path fill-rule="evenodd" clip-rule="evenodd" d="M7.00002 2.04166C7.00002 1.55841 7.39177 1.16666 7.87502 1.16666C8.35827 1.16666 8.75002 1.55841 8.75002 2.04166V3.49999H19.25V2.04166C19.25 1.55841 19.6418 1.16666 20.125 1.16666C20.6083 1.16666 21 1.55841 21 2.04166V3.49999H22.1667C24.744 3.49999 26.8334 5.58933 26.8334 8.16666V14.478C26.304 14.0043 25.7167 13.594 25.0834 13.2592V8.16666C25.0834 6.55583 23.7775 5.24999 22.1667 5.24999H21V7.29166C21 7.77491 20.6083 8.16666 20.125 8.16666C19.6418 8.16666 19.25 7.77491 19.25 7.29166V5.24999H8.75002V7.29166C8.75002 7.77491 8.35827 8.16666 7.87502 8.16666C7.39177 8.16666 7.00002 7.77491 7.00002 7.29166V5.24999H5.83335C4.22252 5.24999 2.91669 6.55583 2.91669 8.16666V22.1667C2.91669 23.7775 4.22252 25.0833 5.83335 25.0833H13.2592C13.594 25.7167 14.0043 26.304 14.478 26.8333H5.83335C3.25603 26.8333 1.16669 24.744 1.16669 22.1667V8.16666C1.16669 5.58933 3.25603 3.49999 5.83335 3.49999H7.00002V2.04166ZM21.2917 12.25H21.0041L21 12.25L20.9959 12.25H6.70835C6.2251 12.25 5.83335 11.8582 5.83335 11.375C5.83335 10.8917 6.2251 10.5 6.70835 10.5H21.2917C21.7749 10.5 22.1667 10.8917 22.1667 11.375C22.1667 11.8582 21.7749 12.25 21.2917 12.25ZM11.6667 19.8333C11.9019 19.8333 12.1208 19.9029 12.304 20.0226C12.2683 20.3435 12.25 20.6696 12.25 21C12.25 21.3304 12.2683 21.6565 12.304 21.9774C12.1208 22.0971 11.9019 22.1667 11.6667 22.1667C11.0224 22.1667 10.5 21.6443 10.5 21C10.5 20.3557 11.0224 19.8333 11.6667 19.8333ZM7.00002 15.1667C6.35569 15.1667 5.83335 15.689 5.83335 16.3333C5.83335 16.9777 6.35569 17.5 7.00002 17.5C7.64435 17.5 8.16669 16.9777 8.16669 16.3333C8.16669 15.689 7.64435 15.1667 7.00002 15.1667ZM5.83335 21C5.83335 20.3557 6.35569 19.8333 7.00002 19.8333C7.64435 19.8333 8.16669 20.3557 8.16669 21C8.16669 21.6443 7.64435 22.1667 7.00002 22.1667C6.35569 22.1667 5.83335 21.6443 5.83335 21ZM11.6667 15.1667C11.0224 15.1667 10.5 15.689 10.5 16.3333C10.5 16.9777 11.0224 17.5 11.6667 17.5C12.311 17.5 12.8334 16.9777 12.8334 16.3333C12.8334 15.689 12.311 15.1667 11.6667 15.1667ZM28 21C28 24.866 24.866 28 21 28C17.134 28 14 24.866 14 21C14 17.134 17.134 14 21 14C24.866 14 28 17.134 28 21ZM21 17.2083C21.4833 17.2083 21.875 17.6001 21.875 18.0833V20.6376L23.3687 22.1313C23.7104 22.473 23.7104 23.027 23.3687 23.3687C23.027 23.7104 22.473 23.7104 22.1313 23.3687L20.3813 21.6187C20.2172 21.4546 20.125 21.2321 20.125 21V18.0833C20.125 17.6001 20.5168 17.2083 21 17.2083Z" fill="#18202A"/>
</g>
<defs>
<clipPath id="clip0_2293_22443">
<rect width="28" height="28" fill="white"/>
</clipPath>
</defs>
</svg>
