<svg width="28" height="28" viewBox="0 0 28 28" fill="none" xmlns="http://www.w3.org/2000/svg">
<path d="M10.5354 4.41047C10.8771 4.06876 10.8771 3.51474 10.5354 3.17303C10.1937 2.83132 9.63968 2.83132 9.29797 3.17303L4.04797 8.42303C3.70626 8.76474 3.70626 9.31876 4.04797 9.66047L9.29797 14.9105C9.63968 15.2522 10.1937 15.2522 10.5354 14.9105C10.8771 14.5688 10.8771 14.0147 10.5354 13.673L6.77912 9.91675H17.5C20.3995 9.91675 22.75 12.2673 22.75 15.1667C22.75 18.0662 20.3995 20.4167 17.5 20.4167H9.04169C8.55844 20.4167 8.16669 20.8085 8.16669 21.2917C8.16669 21.775 8.55844 22.1667 9.04169 22.1667H17.5C21.366 22.1667 24.5 19.0327 24.5 15.1667C24.5 11.3008 21.366 8.16675 17.5 8.16675H6.77912L10.5354 4.41047Z" fill="#18202A"/>
</svg>
