<svg width="28" height="28" viewBox="0 0 28 28" fill="none" xmlns="http://www.w3.org/2000/svg">
<path fill-rule="evenodd" clip-rule="evenodd" d="M11.8443 26.4062C11.2213 25.9396 10.7663 25.2837 10.5472 24.5369L12.7861 23.88C12.8634 24.1433 13.0238 24.3744 13.2431 24.5387C13.4625 24.703 13.7291 24.7917 14.0029 24.7917C14.2768 24.7917 14.5433 24.703 14.7627 24.5387C14.982 24.3744 15.1424 24.1433 15.2197 23.88L17.4586 24.5369C17.2395 25.2837 16.7845 25.9396 16.1615 26.4062C15.5386 26.8728 14.7813 27.1251 14.0029 27.1251C13.2246 27.1251 12.4672 26.8728 11.8443 26.4062Z" fill="#18202A"/>
<path fill-rule="evenodd" clip-rule="evenodd" d="M14 1.16675C14.6443 1.16675 15.1667 1.68908 15.1667 2.33341V3.50008C15.1667 4.14441 14.6443 4.66675 14 4.66675C13.3557 4.66675 12.8333 4.14441 12.8333 3.50008V2.33341C12.8333 1.68908 13.3557 1.16675 14 1.16675Z" fill="#18202A"/>
<path d="M7.56378 6.10358C9.27077 4.43659 11.5859 3.50008 14 3.50008C16.414 3.50008 18.7292 4.43659 20.4362 6.10358C22.1432 7.77057 23.1022 10.0315 23.1022 12.389C23.1022 16.799 24.1885 19.402 25.0848 20.7992C25.3905 21.2756 25.0104 22.1667 24.4443 22.1667H3.55568C2.98959 22.1667 2.60947 21.2756 2.91515 20.7992C3.81147 19.402 4.89782 16.799 4.89782 12.389C4.89782 10.0315 5.8568 7.77057 7.56378 6.10358Z" fill="#18202A"/>
</svg>
