<svg width="28" height="28" viewBox="0 0 28 28" fill="none" xmlns="http://www.w3.org/2000/svg">
<path fill-rule="evenodd" clip-rule="evenodd" d="M14 24.5001C19.799 24.5001 24.5 19.7991 24.5 14.0001C24.5 8.20109 19.799 3.50008 14 3.50008C8.20101 3.50008 3.5 8.20109 3.5 14.0001C3.5 19.7991 8.20101 24.5001 14 24.5001ZM26.8333 14.0001C26.8333 21.0877 21.0877 26.8334 14 26.8334C6.91234 26.8334 1.16666 21.0877 1.16666 14.0001C1.16666 6.91243 6.91234 1.16675 14 1.16675C21.0877 1.16675 26.8333 6.91243 26.8333 14.0001Z" fill="#18202A"/>
<path fill-rule="evenodd" clip-rule="evenodd" d="M22.9916 5.00846C22.536 4.55285 21.7973 4.55285 21.3417 5.00846L5.00837 21.3418C4.55276 21.7974 4.55276 22.5361 5.00837 22.9917C5.46398 23.4473 6.20268 23.4473 6.65829 22.9917L22.9916 6.65837C23.4472 6.20276 23.4472 5.46407 22.9916 5.00846Z" fill="#18202A"/>
</svg>
