<svg width="28" height="28" viewBox="0 0 28 28" fill="none" xmlns="http://www.w3.org/2000/svg">
<g clip-path="url(#clip0_3906_9342)">
<path d="M15.2021 9.88128C15.038 9.71719 14.8154 9.625 14.5834 9.625C14.3513 9.625 14.1287 9.71719 13.9646 9.88128L10.7563 13.0896C10.4146 13.4313 10.4146 13.9853 10.7563 14.3271C11.098 14.6688 11.652 14.6688 11.9937 14.3271L13.7084 12.6124V19.8333C13.7084 20.3166 14.1001 20.7083 14.5834 20.7083C15.0666 20.7083 15.4584 20.3166 15.4584 19.8333V12.6124L17.173 14.3271C17.5147 14.6688 18.0687 14.6688 18.4104 14.3271C18.7521 13.9853 18.7521 13.4313 18.4104 13.0896L15.2021 9.88128Z" fill="#18202A"/>
<path fill-rule="evenodd" clip-rule="evenodd" d="M5.83335 3.5C3.25602 3.5 1.16669 5.58934 1.16669 8.16667V19.8333C1.16669 22.4107 3.25602 24.5 5.83335 24.5H22.1667C24.744 24.5 26.8334 22.4107 26.8334 19.8333V10.5C26.8334 7.92267 24.744 5.83333 22.1667 5.83333H14L12.6918 4.52513C12.0354 3.86875 11.1452 3.5 10.2169 3.5H5.83335ZM25.0834 10.5C25.0834 8.88917 23.7775 7.58333 22.1667 7.58333H13.2751L11.4544 5.76256C11.1262 5.43437 10.6811 5.25 10.2169 5.25H5.83335C4.22252 5.25 2.91669 6.55584 2.91669 8.16667V19.8333C2.91669 21.4442 4.22252 22.75 5.83335 22.75H22.1667C23.7775 22.75 25.0834 21.4442 25.0834 19.8333V10.5Z" fill="#18202A"/>
</g>
<defs>
<clipPath id="clip0_3906_9342">
<rect width="28" height="28" fill="white"/>
</clipPath>
</defs>
</svg>
