<svg width="28" height="28" viewBox="0 0 28 28" fill="none" xmlns="http://www.w3.org/2000/svg">
<path fill-rule="evenodd" clip-rule="evenodd" d="M20.3204 3.5C21.1713 3.5 21.9548 3.96325 22.3649 4.70886L26.4534 12.1425C26.6998 12.5906 26.7922 13.1073 26.7164 13.6131L25.3814 22.5128C25.2101 23.655 24.2289 24.5 23.0739 24.5H4.92611C3.77111 24.5 2.78992 23.655 2.61859 22.5128L1.28363 13.6131C1.20776 13.1073 1.30017 12.5906 1.54665 12.1425L5.63513 4.70886C6.04522 3.96324 6.82869 3.5 7.67964 3.5H20.3204ZM4.37164 12.402C4.26562 12.5964 4.4063 12.8333 4.62769 12.8333H9.33334C9.97767 12.8333 10.481 13.37 10.6918 13.9789C11.1662 15.3493 12.4682 16.3333 14 16.3333C15.5318 16.3333 16.8338 15.3493 17.3082 13.9789C17.519 13.37 18.0223 12.8333 18.6667 12.8333H23.3723C23.5937 12.8333 23.7344 12.5964 23.6284 12.402L20.3771 6.44134C20.1727 6.06653 19.7798 5.83333 19.3529 5.83333H8.64712C8.22019 5.83333 7.82735 6.06654 7.62291 6.44134L4.37164 12.402Z" fill="#18202A"/>
</svg>
