<svg width="28" height="28" viewBox="0 0 28 28" fill="none" xmlns="http://www.w3.org/2000/svg">
<g clip-path="url(#clip0_2294_10615)">
<path fill-rule="evenodd" clip-rule="evenodd" d="M18.6667 6.27116C18.6667 9.91699 17.1111 12.8337 14 12.8337C10.8889 12.8337 9.33333 9.91699 9.33333 6.27116C9.33333 3.35449 10.8889 1.16699 14 1.16699C17.1111 1.16699 18.6667 3.35449 18.6667 6.27116ZM19.5866 16.589C17.9275 15.6824 16.024 15.167 14 15.167C11.0892 15.167 8.42738 16.233 6.38361 17.9959C4.82643 19.3391 4.5161 21.5969 5.42869 23.4398C5.44673 23.4762 5.46489 23.5126 5.48317 23.5489C6.14332 24.8603 7.3487 25.813 8.77092 26.1774C10.0801 26.513 11.4386 26.7254 12.8333 26.8018V21.667C12.8333 20.0101 14.1765 18.667 15.8333 18.667H18.1667C18.7189 18.667 19.1569 18.2151 19.2592 17.6724C19.3303 17.2958 19.4409 16.9332 19.5866 16.589ZM16.1667 21.0003C15.6144 21.0003 15.1667 21.448 15.1667 22.0003V27.0003C15.1667 27.5526 15.6144 28.0003 16.1667 28.0003H23.5C24.0523 28.0003 24.5 27.5526 24.5 27.0003V22.0003C24.5 21.448 24.0523 21.0003 23.5 21.0003L23.3333 21.0003V18.667C23.3333 18.0227 23.8557 17.5003 24.5 17.5003C25.1443 17.5003 25.6667 18.0227 25.6667 18.667V20.2225C25.6667 20.8669 26.189 21.3892 26.8333 21.3892C27.4777 21.3892 28 20.8669 28 20.2225V18.667C28 16.734 26.433 15.167 24.5 15.167C22.567 15.167 21 16.734 21 18.667V21.0003L16.1667 21.0003ZM21 23.917C21 23.2727 20.4777 22.7503 19.8333 22.7503C19.189 22.7503 18.6667 23.2727 18.6667 23.917V25.0837C18.6667 25.728 19.189 26.2503 19.8333 26.2503C20.4777 26.2503 21 25.728 21 25.0837V23.917Z" fill="#18202A"/>
</g>
<defs>
<clipPath id="clip0_2294_10615">
<rect width="28" height="28" fill="white"/>
</clipPath>
</defs>
</svg>
