<svg width="28" height="28" viewBox="0 0 28 28" fill="none" xmlns="http://www.w3.org/2000/svg">
<path fill-rule="evenodd" clip-rule="evenodd" d="M6.88274 19.5944L7.0721 21.8966C7.16165 22.9853 8.34627 23.6979 9.39206 23.2162C14.0212 21.0844 18.4361 18.3887 22.4365 15.2363C23.2365 14.6059 23.2365 13.3933 22.4365 12.7629C18.4361 9.61054 14.0212 6.91484 9.39206 4.78301C8.34627 4.30139 7.16165 5.01394 7.0721 6.1027L6.88274 8.40488C6.57648 12.1284 6.57648 15.8708 6.88274 19.5944ZM10.1241 3.19347C8.00155 2.21598 5.51955 3.6303 5.32799 5.95924L5.13863 8.26143C4.82452 12.0804 4.82452 15.9188 5.13863 19.7378L5.32799 22.04C5.51955 24.3689 8.00155 25.7833 10.1241 24.8058C14.8769 22.617 19.4098 19.8494 23.5197 16.6108C25.2088 15.2798 25.2088 12.7195 23.5197 11.3884C19.4098 8.1498 14.8769 5.38224 10.1241 3.19347Z" fill="#18202A"/>
</svg>
