<svg width="28" height="28" viewBox="0 0 28 28" fill="none" xmlns="http://www.w3.org/2000/svg">
<path fill-rule="evenodd" clip-rule="evenodd" d="M18.6667 6.27116C18.6667 9.91699 17.1111 12.8337 14 12.8337C10.8889 12.8337 9.33334 9.91699 9.33334 6.27116C9.33334 3.35449 10.8889 1.16699 14 1.16699C17.1111 1.16699 18.6667 3.35449 18.6667 6.27116ZM16.9167 6.27116C16.9167 7.87895 16.5686 9.14943 16.037 9.95928C15.5525 10.6974 14.913 11.0837 14 11.0837C13.087 11.0837 12.4475 10.6974 11.963 9.95928C11.4314 9.14943 11.0833 7.87895 11.0833 6.27116C11.0833 5.10468 11.3949 4.2726 11.8312 3.76128C12.2338 3.28949 12.887 2.91699 14 2.91699C15.113 2.91699 15.7662 3.28949 16.1688 3.76128C16.6051 4.2726 16.9167 5.10468 16.9167 6.27116ZM15.1505 25.0499C15.3984 25.6525 15.7217 26.2162 16.1086 26.7291C15.4151 26.7983 14.7117 26.8337 14 26.8337C12.1947 26.8337 10.4426 26.6059 8.77091 26.1774C7.34869 25.813 6.14331 24.8603 5.48317 23.5489C5.28748 23.1602 5.10498 22.7637 4.93626 22.36C4.21933 20.6446 4.50505 18.6377 5.83254 17.3361C7.93699 15.2727 10.8199 14.0003 14 14.0003C15.8537 14.0003 17.6063 14.4326 19.1627 15.2019C18.4981 15.4889 17.8827 15.8683 17.3327 16.3238C16.2914 15.9524 15.1696 15.7503 14 15.7503C11.2963 15.7503 8.84831 16.83 7.05774 18.5857C6.30659 19.3222 6.07326 20.5423 6.55091 21.6851C6.70372 22.0508 6.86901 22.4099 7.04628 22.7621C7.47367 23.6111 8.26111 24.2402 9.20536 24.4822C10.7363 24.8746 12.3425 25.0837 14 25.0837C14.3864 25.0837 14.77 25.0723 15.1505 25.0499ZM28 22.167C28 25.3887 25.3883 28.0003 22.1667 28.0003C18.945 28.0003 16.3333 25.3887 16.3333 22.167C16.3333 18.9453 18.945 16.3337 22.1667 16.3337C25.3883 16.3337 28 18.9453 28 22.167ZM22.0339 24.0497C21.9931 24.0906 21.9455 24.124 21.8933 24.1486L19.1322 25.4479C18.9671 25.5256 18.7927 25.3598 18.862 25.191L20.0635 22.2632C20.0912 22.1957 20.1333 22.1351 20.1869 22.0856L23.8801 18.6764C24.0773 18.4944 24.383 18.5005 24.5728 18.6903L25.6296 19.747C25.8248 19.9423 25.8248 20.2589 25.6296 20.4541L22.0339 24.0497Z" fill="#18202A"/>
</svg>
