<svg width="28" height="28" viewBox="0 0 28 28" fill="none" xmlns="http://www.w3.org/2000/svg">
<path fill-rule="evenodd" clip-rule="evenodd" d="M26.8333 13.9998C26.8333 21.0875 21.0877 26.8332 14 26.8332C6.91234 26.8332 1.16666 21.0875 1.16666 13.9998C1.16666 6.91218 6.91234 1.1665 14 1.1665C21.0877 1.1665 26.8333 6.91218 26.8333 13.9998ZM11.6667 11.6665C11.6667 12.9552 10.8832 13.9998 9.91667 13.9998C8.95017 13.9998 8.16667 12.9552 8.16667 11.6665C8.16667 10.3778 8.95017 9.33317 9.91667 9.33317C10.8832 9.33317 11.6667 10.3778 11.6667 11.6665ZM8.67735 16.5351C9.21018 16.1728 9.93582 16.311 10.2981 16.8439C10.6629 17.3804 11.19 17.8405 11.8409 18.1659C12.4921 18.4915 13.2364 18.6665 14 18.6665C14.7636 18.6665 15.5079 18.4915 16.1591 18.1659C16.81 17.8405 17.3371 17.3804 17.7019 16.8439C18.0642 16.311 18.7898 16.1728 19.3227 16.5351C19.8555 16.8974 19.9937 17.623 19.6314 18.1558C19.0284 19.0428 18.1873 19.7606 17.2026 20.2529C16.2183 20.7451 15.1155 20.9998 14 20.9998C12.8845 20.9998 11.7817 20.7451 10.7974 20.2529C9.81276 19.7606 8.97164 19.0428 8.36856 18.1558C8.00627 17.623 8.14452 16.8974 8.67735 16.5351ZM18.0833 13.9998C19.0498 13.9998 19.8333 12.9552 19.8333 11.6665C19.8333 10.3778 19.0498 9.33317 18.0833 9.33317C17.1168 9.33317 16.3333 10.3778 16.3333 11.6665C16.3333 12.9552 17.1168 13.9998 18.0833 13.9998Z" fill="#18202A"/>
</svg>
