<svg width="28" height="28" viewBox="0 0 28 28" fill="none" xmlns="http://www.w3.org/2000/svg">
<path fill-rule="evenodd" clip-rule="evenodd" d="M22.1667 2.91699H5.83332C4.22249 2.91699 2.91666 4.22283 2.91666 5.83366V22.167C2.91666 23.7778 4.22249 25.0837 5.83332 25.0837H15.1645C15.4277 25.7147 15.7736 26.3025 16.1888 26.8337H5.83332C3.25599 26.8337 1.16666 24.7443 1.16666 22.167V5.83366C1.16666 3.25633 3.25599 1.16699 5.83332 1.16699H22.1667C24.744 1.16699 26.8333 3.25633 26.8333 5.83366V16.1892C26.3022 15.774 25.7144 15.428 25.0833 15.1649V5.83366C25.0833 4.22283 23.7775 2.91699 22.1667 2.91699ZM14.6743 20.9886C15.0307 18.7047 16.4063 16.7583 18.3214 15.6295C18.1938 15.4734 18.0433 15.3329 17.8703 15.2128C16.7676 14.4477 15.4352 14.0003 14.0001 14.0003C12.5651 14.0003 11.2327 14.4476 10.13 15.2128C9.24796 15.8249 8.95158 16.9693 9.28972 17.9883C9.43921 18.4388 9.61334 18.8777 9.81046 19.3035C10.1884 20.1198 10.9508 20.6907 11.8391 20.8334C12.5431 20.9464 13.2649 21.0051 14.0001 21.0051C14.2262 21.0051 14.451 20.9996 14.6743 20.9886ZM19.39 15.1081C20.2239 14.7798 21.13 14.595 22.0779 14.5842C21.2237 14.1952 20.2678 13.9775 19.2588 13.9775C18.9096 13.9775 18.5667 14.0036 18.2321 14.0539C18.3348 14.1184 18.4359 14.1853 18.5354 14.2543C18.8827 14.4953 19.1669 14.7856 19.39 15.1081ZM14 12.8337C15.5555 12.8337 16.3333 11.3753 16.3333 9.55241C16.3333 8.09408 15.5555 7.00033 14 7.00033C12.4444 7.00033 11.6667 8.09408 11.6667 9.55241C11.6667 11.3753 12.4444 12.8337 14 12.8337ZM7.58332 12.8337C8.74999 12.8337 9.33332 11.667 9.33332 10.2087C9.33332 9.04199 8.74999 8.16699 7.58332 8.16699C6.41666 8.16699 5.83332 9.04199 5.83332 10.2087C5.83332 11.667 6.41666 12.8337 7.58332 12.8337ZM22.1667 10.2087C22.1667 11.667 21.5833 12.8337 20.4167 12.8337C19.25 12.8337 18.6667 11.667 18.6667 10.2087C18.6667 9.04199 19.25 8.16699 20.4167 8.16699C21.5833 8.16699 22.1667 9.04199 22.1667 10.2087ZM9.4649 14.2543C9.5534 14.1929 9.64319 14.1332 9.7342 14.0753C9.35749 14.0111 8.96967 13.9775 8.57366 13.9775C7.47729 13.9775 6.44366 14.2345 5.53497 14.689C4.76361 15.0748 4.43923 15.9789 4.69672 16.8021C4.74673 16.9619 4.79996 17.1204 4.85636 17.2775C5.10196 17.9616 5.71222 18.4443 6.4322 18.5443C7.0428 18.629 7.66549 18.6781 8.29789 18.6892C8.25803 18.5787 8.21954 18.4675 8.18244 18.3557C7.7062 16.9206 8.09613 15.2041 9.4649 14.2543ZM28 22.167C28 25.3887 25.3883 28.0003 22.1667 28.0003C18.945 28.0003 16.3333 25.3887 16.3333 22.167C16.3333 18.9453 18.945 16.3337 22.1667 16.3337C25.3883 16.3337 28 18.9453 28 22.167ZM22.1667 18.667C22.6499 18.667 23.0417 19.0587 23.0417 19.542V21.292H24.7917C25.2749 21.292 25.6667 21.6837 25.6667 22.167C25.6667 22.6502 25.2749 23.042 24.7917 23.042H23.0417V24.792C23.0417 25.2752 22.6499 25.667 22.1667 25.667C21.6834 25.667 21.2917 25.2752 21.2917 24.792V23.042H19.5417C19.0584 23.042 18.6667 22.6502 18.6667 22.167C18.6667 21.6837 19.0584 21.292 19.5417 21.292H21.2917V19.542C21.2917 19.0587 21.6834 18.667 22.1667 18.667Z" fill="#18202A"/>
</svg>
