<svg width="28" height="28" viewBox="0 0 28 28" fill="none" xmlns="http://www.w3.org/2000/svg">
<g clip-path="url(#clip0_2533_8460)">
<path fill-rule="evenodd" clip-rule="evenodd" d="M17.5 8.75008C17.5 11.6667 16.3333 14.0001 14 14.0001C11.6667 14.0001 10.5 11.6667 10.5 8.75008C10.5 6.41675 11.6667 4.66675 14 4.66675C16.3333 4.66675 17.5 6.41675 17.5 8.75008ZM15.75 8.75008C15.75 10.0107 15.4924 10.9702 15.1346 11.5517C14.8208 12.0615 14.4711 12.2501 14 12.2501C13.5289 12.2501 13.1792 12.0615 12.8654 11.5517C12.5076 10.9702 12.25 10.0107 12.25 8.75008C12.25 7.85033 12.4772 7.25701 12.7415 6.92663C12.9638 6.64881 13.3168 6.41675 14 6.41675C14.6832 6.41675 15.0362 6.64881 15.2585 6.92663C15.5228 7.25701 15.75 7.85033 15.75 8.75008Z" fill="#18202A"/>
<path d="M15.4134 25.6199C15.1373 25.0812 14.9239 24.5051 14.7826 23.9012C14.5231 23.9115 14.2622 23.9167 14 23.9167C13.0284 23.9167 12.0746 23.8449 11.1434 23.7065C10.2398 23.5722 9.47542 22.9997 9.10667 22.1933C8.90831 21.7595 8.72779 21.316 8.56602 20.8636C8.18587 19.8004 8.55277 18.763 9.29012 18.291C10.6488 17.4212 12.2628 16.9167 14 16.9167C14.8313 16.9167 15.6343 17.0323 16.3947 17.248C16.8291 16.7388 17.3297 16.2877 17.8832 15.9082C16.682 15.4298 15.3717 15.1667 14 15.1667C11.9185 15.1667 9.97855 15.7724 8.34662 16.8171C6.81859 17.7953 6.30733 19.7444 6.91819 21.4528C7.09684 21.9524 7.29617 22.4422 7.51517 22.9211C8.13579 24.2783 9.41001 25.2181 10.8861 25.4375C11.9022 25.5885 12.942 25.6667 14 25.6667C14.475 25.6667 14.9463 25.651 15.4134 25.6199Z" fill="#18202A"/>
<path fill-rule="evenodd" clip-rule="evenodd" d="M9.33335 11.2292C9.33335 13.4167 8.36113 15.1667 6.41668 15.1667C4.47224 15.1667 3.50002 13.4167 3.50002 11.2292C3.50002 9.47925 4.47224 8.16675 6.41668 8.16675C8.36113 8.16675 9.33335 9.47925 9.33335 11.2292ZM7.58335 11.2292C7.58335 12.096 7.38607 12.6993 7.15959 13.0306C6.98079 13.2921 6.77846 13.4167 6.41668 13.4167C6.0549 13.4167 5.85257 13.2921 5.67377 13.0306C5.44729 12.6993 5.25002 12.096 5.25002 11.2292C5.25002 10.6631 5.40638 10.3515 5.53715 10.2044C5.64056 10.088 5.86274 9.91675 6.41668 9.91675C6.97062 9.91675 7.1928 10.088 7.29622 10.2044C7.42698 10.3515 7.58335 10.6631 7.58335 11.2292Z" fill="#18202A"/>
<path fill-rule="evenodd" clip-rule="evenodd" d="M20.2509 14.8275C20.8628 14.6682 21.5048 14.5834 22.1666 14.5834C22.5102 14.5834 22.8485 14.6063 23.1799 14.6505C24.06 13.9745 24.5 12.7009 24.5 11.2292C24.5 9.47925 23.5278 8.16675 21.5833 8.16675C19.6389 8.16675 18.6667 9.47925 18.6667 11.2292C18.6667 12.8414 19.1948 14.216 20.2509 14.8275ZM22.75 11.2292C22.75 12.096 22.5527 12.6993 22.3263 13.0306C22.1475 13.2921 21.9451 13.4167 21.5833 13.4167C21.2216 13.4167 21.0192 13.2921 20.8404 13.0306C20.614 12.6993 20.4167 12.096 20.4167 11.2292C20.4167 10.6631 20.573 10.3515 20.7038 10.2044C20.8072 10.088 21.0294 9.91675 21.5833 9.91675C22.1373 9.91675 22.3595 10.088 22.4629 10.2044C22.5937 10.3515 22.75 10.6631 22.75 11.2292Z" fill="#18202A"/>
<path d="M6.25342 16.3334C4.85598 16.3387 3.53096 16.6512 2.34233 17.2068C0.980762 17.8432 0.431349 19.4505 0.891024 20.8814C1.29321 22.1334 2.38536 23.0129 3.69044 23.1741C4.37725 23.2588 5.07433 23.3105 5.78002 23.3273C5.59617 22.9061 5.42609 22.4774 5.27037 22.0419C5.21233 21.8796 5.1614 21.7148 5.11766 21.5483C4.70965 21.5238 4.30526 21.4867 3.90485 21.4372C3.25571 21.3571 2.74451 20.9294 2.55717 20.3462C2.31883 19.6043 2.65498 18.9923 3.08334 18.7921C3.7468 18.482 4.46314 18.265 5.21672 18.1585C5.43732 17.4982 5.78168 16.8761 6.25342 16.3334Z" fill="#18202A"/>
<path fill-rule="evenodd" clip-rule="evenodd" d="M22.1666 28.0001C25.3883 28.0001 28 25.3884 28 22.1667C28 18.9451 25.3883 16.3334 22.1666 16.3334C18.945 16.3334 16.3333 18.9451 16.3333 22.1667C16.3333 25.3884 18.945 28.0001 22.1666 28.0001ZM23.0416 19.5417C23.0416 19.0585 22.6499 18.6667 22.1666 18.6667C21.6834 18.6667 21.2916 19.0585 21.2916 19.5417V21.2917H19.5416C19.0584 21.2917 18.6666 21.6835 18.6666 22.1667C18.6666 22.65 19.0584 23.0417 19.5416 23.0417H21.2916V24.7917C21.2916 25.275 21.6834 25.6667 22.1666 25.6667C22.6499 25.6667 23.0416 25.275 23.0416 24.7917V23.0417H24.7916C25.2749 23.0417 25.6666 22.65 25.6666 22.1667C25.6666 21.6835 25.2749 21.2917 24.7916 21.2917H23.0416V19.5417Z" fill="#18202A"/>
</g>
<defs>
<clipPath id="clip0_2533_8460">
<rect width="28" height="28" fill="white"/>
</clipPath>
</defs>
</svg>
