<svg width="28" height="28" viewBox="0 0 28 28" fill="none" xmlns="http://www.w3.org/2000/svg">
<path d="M11.6667 5.54175C11.6667 5.0585 12.0584 4.66675 12.5417 4.66675H22.4583C22.9416 4.66675 23.3333 5.0585 23.3333 5.54175C23.3333 6.025 22.9416 6.41675 22.4583 6.41675H18.0615L11.5111 21.5834H16.625C17.1082 21.5834 17.5 21.9752 17.5 22.4584C17.5 22.9417 17.1082 23.3334 16.625 23.3334H4.375C3.89175 23.3334 3.5 22.9417 3.5 22.4584C3.5 21.9752 3.89175 21.5834 4.375 21.5834H9.60485L16.1553 6.41675H12.5417C12.0584 6.41675 11.6667 6.025 11.6667 5.54175Z" fill="#18202A"/>
</svg>
