<svg width="28" height="28" viewBox="0 0 28 28" fill="none" xmlns="http://www.w3.org/2000/svg">
<path d="M10.5 2.3335C11.1444 2.3335 11.6667 2.85583 11.6667 3.50016V8.16683C11.6667 10.0998 10.0997 11.6668 8.16671 11.6668H3.50004C2.85571 11.6668 2.33337 11.1445 2.33337 10.5002C2.33337 9.85583 2.85571 9.3335 3.50004 9.3335H8.16671C8.81104 9.3335 9.33337 8.81116 9.33337 8.16683V3.50016C9.33337 2.85583 9.85571 2.3335 10.5 2.3335Z" fill="#18202A"/>
<path d="M2.33337 17.5002C2.33337 16.8558 2.85571 16.3335 3.50004 16.3335H8.16671C10.0997 16.3335 11.6667 17.9005 11.6667 19.8335V24.5002C11.6667 25.1445 11.1444 25.6668 10.5 25.6668C9.85571 25.6668 9.33337 25.1445 9.33337 24.5002V19.8335C9.33337 19.1892 8.81104 18.6668 8.16671 18.6668H3.50004C2.85571 18.6668 2.33337 18.1445 2.33337 17.5002Z" fill="#18202A"/>
<path d="M25.6667 10.5002C25.6667 11.1445 25.1444 11.6668 24.5 11.6668H19.8334C17.9004 11.6668 16.3334 10.0998 16.3334 8.16683V3.50016C16.3334 2.85583 16.8557 2.3335 17.5 2.3335C18.1444 2.3335 18.6667 2.85583 18.6667 3.50016V8.16683C18.6667 8.81116 19.189 9.3335 19.8334 9.3335H24.5C25.1444 9.3335 25.6667 9.85583 25.6667 10.5002Z" fill="#18202A"/>
<path d="M17.5 25.6668C16.8557 25.6668 16.3334 25.1445 16.3334 24.5002V19.654C16.3334 17.8201 17.82 16.3335 19.6539 16.3335H24.5C25.1444 16.3335 25.6667 16.8558 25.6667 17.5002C25.6667 18.1445 25.1444 18.6668 24.5 18.6668H19.6539C19.1087 18.6668 18.6667 19.1088 18.6667 19.654V24.5002C18.6667 25.1445 18.1444 25.6668 17.5 25.6668Z" fill="#18202A"/>
</svg>
