<svg width="28" height="28" viewBox="0 0 28 28" fill="none" xmlns="http://www.w3.org/2000/svg">
<path fill-rule="evenodd" clip-rule="evenodd" d="M5.83333 3.5C3.256 3.5 1.16666 5.58934 1.16666 8.16667V10.5H26.8333C26.8333 7.92267 24.744 5.83333 22.1667 5.83333H14L12.6918 4.52513C12.0354 3.86875 11.1452 3.5 10.2169 3.5H5.83333ZM1.16666 11.6667V19.8333C1.16666 22.4107 3.256 24.5 5.83333 24.5H14.3382C14.1182 23.7607 14 22.9775 14 22.1667C14 17.6563 17.6563 14 22.1667 14C23.9018 14 25.5105 14.5411 26.8333 15.4638V11.6667H1.16666ZM28 22.1667C28 25.3883 25.3883 28 22.1667 28C18.945 28 16.3333 25.3883 16.3333 22.1667C16.3333 18.945 18.945 16.3333 22.1667 16.3333C25.3883 16.3333 28 18.945 28 22.1667ZM22.1667 18.6667C21.5223 18.6667 21 19.189 21 19.8333V21H19.8333C19.189 21 18.6667 21.5223 18.6667 22.1667C18.6667 22.811 19.189 23.3333 19.8333 23.3333H21V24.5C21 25.1443 21.5223 25.6667 22.1667 25.6667C22.811 25.6667 23.3333 25.1443 23.3333 24.5V23.3333H24.5C25.1443 23.3333 25.6667 22.811 25.6667 22.1667C25.6667 21.5223 25.1443 21 24.5 21H23.3333V19.8333C23.3333 19.189 22.811 18.6667 22.1667 18.6667Z" fill="#18202A"/>
</svg>
