<svg width="28" height="28" viewBox="0 0 28 28" fill="none" xmlns="http://www.w3.org/2000/svg">
<g clip-path="url(#clip0_3352_8862)">
<path fill-rule="evenodd" clip-rule="evenodd" d="M25.6667 8.45833C25.6667 8.38098 25.636 8.30679 25.5813 8.25209C25.5266 8.1974 25.4524 8.16667 25.375 8.16667H20.4167C19.6432 8.16667 18.9013 7.85938 18.3543 7.31239C17.8073 6.76541 17.5 6.02355 17.5 5.25V0.291667C17.5 0.214312 17.4693 0.140125 17.4146 0.0854272C17.3599 0.0307291 17.2857 0 17.2084 0H4.66671C4.04787 0 3.45438 0.245833 3.01679 0.683417C2.57921 1.121 2.33337 1.71449 2.33337 2.33333V25.6667C2.33337 26.2855 2.57921 26.879 3.01679 27.3166C3.45438 27.7542 4.04787 28 4.66671 28H23.3334C23.9522 28 24.5457 27.7542 24.9833 27.3166C25.4209 26.879 25.6667 26.2855 25.6667 25.6667V8.45833ZM12.8334 16.9167L9.33337 11.6667H11.6667L14 15.1667L16.3334 11.6667H18.6667L15.1667 16.9167L18.6667 22.1667H16.3334L14 18.6667L11.6667 22.1667H9.33337L12.8334 16.9167Z" fill="#18202A"/>
<path d="M19.1793 6.48742C19.5075 6.81561 19.9526 6.99999 20.4167 6.99999H24.9667C25.0245 7.00009 25.081 6.98304 25.129 6.951C25.1771 6.91896 25.2145 6.87337 25.2367 6.82001C25.2588 6.76665 25.2646 6.70792 25.2533 6.65127C25.242 6.59463 25.2141 6.54261 25.1732 6.50182L19.1649 0.498152C19.1244 0.457528 19.0728 0.429753 19.0166 0.418303C18.9603 0.406853 18.902 0.412236 18.8488 0.433779C18.7957 0.455322 18.75 0.492067 18.7176 0.539418C18.6852 0.586768 18.6675 0.642621 18.6667 0.699986V5.24999C18.6667 5.71411 18.8511 6.15923 19.1793 6.48742Z" fill="#18202A"/>
</g>
<defs>
<clipPath id="clip0_3352_8862">
<rect width="28" height="28" fill="white"/>
</clipPath>
</defs>
</svg>
