<svg width="28" height="28" viewBox="0 0 28 28" fill="none" xmlns="http://www.w3.org/2000/svg">
<path fill-rule="evenodd" clip-rule="evenodd" d="M25.0833 14.0001C25.0833 20.1212 20.1211 25.0834 14 25.0834C7.87883 25.0834 2.91666 20.1212 2.91666 14.0001C2.91666 7.87893 7.87883 2.91675 14 2.91675C20.1211 2.91675 25.0833 7.87893 25.0833 14.0001ZM26.8333 14.0001C26.8333 21.0877 21.0876 26.8334 14 26.8334C6.91234 26.8334 1.16666 21.0877 1.16666 14.0001C1.16666 6.91243 6.91234 1.16675 14 1.16675C21.0876 1.16675 26.8333 6.91243 26.8333 14.0001ZM9.33332 13.1251C8.85007 13.1251 8.45832 13.5168 8.45832 14.0001C8.45832 14.4833 8.85007 14.8751 9.33332 14.8751H18.6667C19.1499 14.8751 19.5417 14.4833 19.5417 14.0001C19.5417 13.5168 19.1499 13.1251 18.6667 13.1251H9.33332Z" fill="#18202A"/>
</svg>
