<svg width="28" height="28" viewBox="0 0 28 28" fill="none" xmlns="http://www.w3.org/2000/svg">
<path fill-rule="evenodd" clip-rule="evenodd" d="M20.1413 3.11659C20.9392 2.32291 22.229 2.32464 23.0248 3.12045L24.8793 4.97495C25.6751 5.77076 25.6768 7.06049 24.8831 7.85843L16.0504 16.7387C15.9183 16.8714 15.7472 16.9583 15.5622 16.9866L12.3251 17.4813C11.2675 17.643 10.3567 16.7322 10.5184 15.6746L11.0131 12.4375C11.0414 12.2525 11.1283 12.0814 11.261 11.9494L20.1413 3.11659ZM21.7873 4.35789C21.6736 4.2442 21.4894 4.24395 21.3754 4.35734L20.4827 5.24531L22.7544 7.51706L23.6424 6.62431C23.7558 6.51032 23.7555 6.32608 23.6418 6.21239L21.7873 4.35789ZM21.5203 8.75781L19.2419 6.47943L12.6995 12.9868L12.2821 15.7176L15.0129 15.3002L21.5203 8.75781Z" fill="#18202A"/>
<path d="M14 5.54167C14 5.05842 13.6082 4.66667 13.125 4.66667H5.83331C3.90032 4.66667 2.33331 6.23367 2.33331 8.16667V22.1667C2.33331 24.0997 3.90032 25.6667 5.83331 25.6667H19.8333C21.7663 25.6667 23.3333 24.0997 23.3333 22.1667V14.875C23.3333 14.3918 22.9416 14 22.4583 14C21.9751 14 21.5833 14.3918 21.5833 14.875V22.1667C21.5833 23.1332 20.7998 23.9167 19.8333 23.9167H5.83331C4.86681 23.9167 4.08331 23.1332 4.08331 22.1667V8.16667C4.08331 7.20017 4.86681 6.41667 5.83331 6.41667H13.125C13.6082 6.41667 14 6.02492 14 5.54167Z" fill="#18202A"/>
</svg>
