<svg width="28" height="28" viewBox="0 0 28 28" fill="none" xmlns="http://www.w3.org/2000/svg">
<path fill-rule="evenodd" clip-rule="evenodd" d="M1.16666 8.26795C1.16666 4.34593 4.34609 1.1665 8.26811 1.1665H19.7319C23.6539 1.1665 26.8333 4.34593 26.8333 8.26795V14.6593C26.8333 14.8292 26.8298 14.9983 26.823 15.1665H19.2246C16.9467 15.1665 15.0093 16.6243 14.2944 18.6578C14.1967 18.6636 14.0985 18.6665 14 18.6665C13.2364 18.6665 12.4921 18.4915 11.8409 18.1659C11.19 17.8404 10.6629 17.3804 10.2981 16.8438C9.93582 16.311 9.21018 16.1727 8.67735 16.535C8.14452 16.8973 8.00627 17.623 8.36856 18.1558C8.97164 19.0428 9.81276 19.7606 10.7974 20.2529C11.7817 20.745 12.8845 20.9998 14 20.9998V26.8332H8.26811C4.34609 26.8332 1.16666 23.6537 1.16666 19.7317V8.26795ZM10.5 10.4998C10.5 11.7885 9.7165 12.8332 8.75 12.8332C7.7835 12.8332 7 11.7885 7 10.4998C7 9.21117 7.7835 8.1665 8.75 8.1665C9.7165 8.1665 10.5 9.21117 10.5 10.4998ZM19.25 12.8332C20.2165 12.8332 21 11.7885 21 10.4998C21 9.21117 20.2165 8.1665 19.25 8.1665C18.2835 8.1665 17.5 9.21117 17.5 10.4998C17.5 11.7885 18.2835 12.8332 19.25 12.8332Z" fill="#18202A"/>
<path d="M19.2246 17.4998H26.5002C25.3471 22.324 21.3223 26.033 16.3333 26.719V20.3911C16.3333 18.7943 17.6278 17.4998 19.2246 17.4998Z" fill="#18202A"/>
</svg>
