<svg width="28" height="28" viewBox="0 0 28 28" fill="none" xmlns="http://www.w3.org/2000/svg">
<path d="M13.5626 1.23051C13.7907 1.16224 14.0316 1.14858 14.2648 1.18955L14.438 1.23051L25.8023 4.64879C26.4156 4.83362 26.8339 5.38073 26.8333 5.99961C26.8333 21.136 18.8939 24.7544 14.6275 26.6975C14.4292 26.7879 14.215 26.8332 14.0003 26.8332C13.7856 26.8332 13.5708 26.7879 13.3719 26.6975L12.754 26.4144C8.38474 24.3924 1.16666 20.432 1.16666 5.99961C1.16666 5.43178 1.5182 4.92473 2.04909 4.70225L2.19819 4.64879L13.5626 1.23051ZM14.0012 3.53484L3.50583 6.69184L3.51571 7.13051C3.6725 12.6804 4.99683 16.6702 7.23914 19.5255L7.46642 19.8072C9.0806 21.7556 10.675 22.8435 13.4967 24.1828L14 24.417L14.0896 24.3768C17.0317 23.0112 18.6876 21.9492 20.3029 20.0801L20.5335 19.8074C22.9136 16.9346 24.3223 12.8654 24.4843 7.12869L24.493 6.69184L14.0012 3.53484Z" fill="#18202A"/>
<path fill-rule="evenodd" clip-rule="evenodd" d="M5.85095 8.66593L5.83333 8.4045L13.9218 5.97084L22.0068 8.40334L21.9904 8.66337C21.6568 13.0361 20.4762 16.1235 18.6574 18.3188L18.4547 18.558C17.3044 19.8851 16.1042 20.7422 14.1382 21.7267L13.9207 21.834L13.3204 21.5316C11.4678 20.5689 10.3224 19.6928 9.1839 18.3186L8.97689 18.0613C7.27556 15.8839 6.17166 12.8679 5.85095 8.66593Z" fill="#18202A"/>
</svg>
