<svg width="28" height="28" viewBox="0 0 28 28" fill="none" xmlns="http://www.w3.org/2000/svg">
<path fill-rule="evenodd" clip-rule="evenodd" d="M19.4972 3.75784C19.841 3.41405 20.3984 3.41405 20.7422 3.75784C21.0859 4.10163 21.0859 4.65903 20.7422 5.00282L19.6721 6.07289C20.4937 6.91409 21 8.06459 21 9.33333V18.6667C21 21.244 18.9107 23.3333 16.3333 23.3333H4.66667C4.00296 23.3333 3.37161 23.1948 2.79996 22.945L1.50282 24.2422C1.15903 24.5859 0.601634 24.5859 0.257843 24.2422C-0.0859473 23.8984 -0.085947 23.341 0.257843 22.9972L19.4972 3.75784ZM4.19895 21.546C4.35123 21.5706 4.50746 21.5833 4.66667 21.5833H16.3333C17.9442 21.5833 19.25 20.2775 19.25 18.6667V9.33333C19.25 8.54783 18.9395 7.83486 18.4345 7.31046L4.19895 21.546Z" fill="#18202A"/>
<path d="M0 9.33333C0 6.756 2.08934 4.66667 4.66667 4.66667H16.1152L14.3652 6.41667H4.66667C3.05584 6.41667 1.75 7.7225 1.75 9.33333V18.6667C1.75 18.7834 1.75686 18.8985 1.77019 19.0116L0.346724 20.4351C0.12322 19.8897 0 19.2926 0 18.6667V9.33333Z" fill="#18202A"/>
<path fill-rule="evenodd" clip-rule="evenodd" d="M22.1667 10.6309C22.1667 10.2557 22.3471 9.90339 22.6516 9.68415L26.1516 7.16415C26.9234 6.60851 28 7.15999 28 8.11094V19.8891C28 20.84 26.9234 21.3915 26.1516 20.8358L22.6516 18.3159C22.3471 18.0966 22.1667 17.7443 22.1667 17.3691V10.6309ZM26.25 18.7503L23.9167 17.0703V10.9297L26.25 9.24974V18.7503Z" fill="#18202A"/>
</svg>
