<svg width="28" height="28" viewBox="0 0 28 28" fill="none" xmlns="http://www.w3.org/2000/svg">
<path fill-rule="evenodd" clip-rule="evenodd" d="M14 19.2498C16.2552 19.2498 18.0833 17.4217 18.0833 15.1665C18.0833 12.9113 16.2552 11.0832 14 11.0832C11.7448 11.0832 9.91666 12.9113 9.91666 15.1665C9.91666 17.4217 11.7448 19.2498 14 19.2498ZM14 20.9998C17.2217 20.9998 19.8333 18.3882 19.8333 15.1665C19.8333 11.9448 17.2217 9.33317 14 9.33317C10.7783 9.33317 8.16666 11.9448 8.16666 15.1665C8.16666 18.3882 10.7783 20.9998 14 20.9998Z" fill="#18202A"/>
<path d="M16.2515 1.1665C16.8276 1.1665 17.395 1.30883 17.903 1.58074C18.4109 1.85264 18.8439 2.24575 19.1635 2.72517L20.1109 4.14734C20.2174 4.30708 20.3618 4.43804 20.5311 4.52859C20.7003 4.61911 20.8893 4.66648 21.0812 4.6665H21C24.2216 4.6665 26.8333 7.27818 26.8333 10.4998V19.8332C26.8333 23.0548 24.2216 25.6665 21 25.6665H6.99999C3.77833 25.6665 1.16666 23.0548 1.16666 19.8332V10.4998C1.16666 7.36296 3.64269 4.80438 6.74695 4.67189L6.91853 4.6665C7.11044 4.66648 7.29937 4.61911 7.46859 4.52859C7.63792 4.43804 7.78228 4.30708 7.88885 4.14734L8.83618 2.72517C9.15577 2.24575 9.58878 1.85264 10.0968 1.58074C10.6047 1.30883 11.172 1.1665 11.7482 1.1665H16.2515ZM16.2515 2.9165H11.7482C11.4602 2.9165 11.1766 2.98764 10.9226 3.12361C10.7194 3.23238 10.5402 3.37993 10.395 3.55708L10.2926 3.69534L9.34459 5.11858C9.07815 5.51795 8.71724 5.84536 8.29403 6.07169C7.94145 6.26029 7.55465 6.37397 7.15784 6.40666L6.99999 6.41184C4.82 6.4165 3.03901 8.12483 2.9227 10.2758L2.91666 10.4998V19.8332C2.91666 22.0131 4.62499 23.7942 6.77595 23.9105L6.99999 23.9165H21C23.18 23.9165 24.961 22.2082 25.0773 20.0572L25.0833 19.8332V10.4998C25.0833 8.31986 23.375 6.53886 21.224 6.42255L21 6.4165L20.8419 6.40666C20.5243 6.3805 20.2132 6.30251 19.921 6.1758L19.7056 6.07168C19.3529 5.88297 19.0434 5.62409 18.7956 5.31143L18.6544 5.11751L17.7075 3.696C17.5476 3.45613 17.3311 3.25955 17.0771 3.12361C16.8739 3.01485 16.6517 2.94756 16.4236 2.92499L16.2515 2.9165Z" fill="#18202A"/>
</svg>
