<svg width="28" height="28" viewBox="0 0 28 28" fill="none" xmlns="http://www.w3.org/2000/svg">
<path fill-rule="evenodd" clip-rule="evenodd" d="M19.8333 4.08301H6.99999C4.74483 4.08301 2.91666 5.91118 2.91666 8.16634V18.6663C2.91666 20.9215 4.74483 22.7497 6.99999 22.7497H12.5417C13.0249 22.7497 13.4167 23.1414 13.4167 23.6247C13.4167 24.1079 13.0249 24.4997 12.5417 24.4997H6.99999C3.77833 24.4997 1.16666 21.888 1.16666 18.6663V8.16634C1.16666 4.94468 3.77833 2.33301 6.99999 2.33301H19.8333C23.055 2.33301 25.6667 4.94468 25.6667 8.16634V11.3747C25.6667 11.8579 25.2749 12.2497 24.7917 12.2497C24.3084 12.2497 23.9167 11.8579 23.9167 11.3747V8.16634C23.9167 5.91118 22.0885 4.08301 19.8333 4.08301ZM18.6667 15.7497H23.3333C24.2998 15.7497 25.0833 16.5332 25.0833 17.4997V22.1663C25.0833 23.1328 24.2998 23.9163 23.3333 23.9163H18.6667C17.7002 23.9163 16.9167 23.1328 16.9167 22.1663V17.4997C16.9167 16.5332 17.7002 15.7497 18.6667 15.7497ZM15.1667 17.4997C15.1667 15.5667 16.7337 13.9997 18.6667 13.9997H23.3333C25.2663 13.9997 26.8333 15.5667 26.8333 17.4997V22.1663C26.8333 24.0993 25.2663 25.6663 23.3333 25.6663H18.6667C16.7337 25.6663 15.1667 24.0993 15.1667 22.1663V17.4997Z" fill="#18202A"/>
</svg>
