<svg width="28" height="28" viewBox="0 0 28 28" fill="none" xmlns="http://www.w3.org/2000/svg">
<path d="M27.1993 10.134C27.6549 9.67839 27.6571 8.93687 27.1757 8.50866C23.6724 5.39282 19.0572 3.5 14 3.5C8.94275 3.5 4.32759 5.39282 0.824313 8.50866C0.342858 8.93688 0.345056 9.6784 0.800668 10.134C1.25628 10.5896 1.99253 10.5864 2.47731 10.1619C5.55564 7.46673 9.58707 5.83333 14 5.83333C18.4129 5.83333 22.4444 7.46673 25.5227 10.1619C26.0075 10.5864 26.7437 10.5896 27.1993 10.134Z" fill="#18202A"/>
<path d="M23.0745 14.2588C23.5301 13.8032 23.5331 13.0603 23.0413 12.644C20.6021 10.5787 17.4465 9.33333 14 9.33333C10.5535 9.33333 7.39794 10.5787 4.95867 12.644C4.46692 13.0603 4.46985 13.8032 4.92546 14.2588C5.38107 14.7144 6.11641 14.7093 6.615 14.3011C8.6264 12.6546 11.1978 11.6667 14 11.6667C16.8022 11.6667 19.3736 12.6546 21.385 14.3011C21.8836 14.7092 22.6189 14.7144 23.0745 14.2588Z" fill="#18202A"/>
<path d="M18.9497 18.3836C19.4054 17.928 19.4096 17.1814 18.894 16.7949C17.5301 15.7724 15.8358 15.1667 14 15.1667C12.1642 15.1667 10.4699 15.7724 9.10598 16.7949C8.59044 17.1814 8.59464 17.928 9.05025 18.3836C9.50586 18.8392 10.2398 18.8273 10.7765 18.4708C11.7 17.8574 12.8083 17.5 14 17.5C15.1917 17.5 16.3 17.8574 17.2235 18.4708C17.7602 18.8273 18.4941 18.8392 18.9497 18.3836Z" fill="#18202A"/>
<path d="M16.3333 23.3333C16.3333 24.622 15.2887 25.6667 14 25.6667C12.7113 25.6667 11.6667 24.622 11.6667 23.3333C11.6667 22.0447 12.7113 21 14 21C15.2887 21 16.3333 22.0447 16.3333 23.3333Z" fill="#18202A"/>
</svg>
