<svg width="28" height="28" viewBox="0 0 28 28" fill="none" xmlns="http://www.w3.org/2000/svg">
<path fill-rule="evenodd" clip-rule="evenodd" d="M12.0084 1.50846C12.464 1.05285 13.2027 1.05285 13.6583 1.50846L17.1583 5.00846C17.6139 5.46407 17.6139 6.20276 17.1583 6.65837L13.6583 10.1584C13.2027 10.614 12.464 10.614 12.0084 10.1584C11.5528 9.70276 11.5528 8.96407 12.0084 8.50846L13.5167 7.00008H10.5C6.634 7.00008 3.5 10.1341 3.5 14.0001C3.5 16.7557 5.09222 19.1394 7.40684 20.2813C7.85026 20.5001 8.16666 20.9324 8.16666 21.4268V21.5344C8.16666 22.2967 7.44368 22.8546 6.74585 22.5477C3.46062 21.1027 1.16666 17.8193 1.16666 14.0001C1.16666 8.84542 5.34534 4.66675 10.5 4.66675H13.5167L12.0084 3.15837C11.5528 2.70276 11.5528 1.96407 12.0084 1.50846ZM17.5 23.3334C22.6547 23.3334 26.8333 19.1547 26.8333 14.0001C26.8333 10.1809 24.5394 6.89746 21.2541 5.45249C20.5563 5.14556 19.8333 5.70342 19.8333 6.46576V6.57336C19.8333 7.06781 20.1497 7.50005 20.5932 7.71882C22.9078 8.86081 24.5 11.2445 24.5 14.0001C24.5 17.8661 21.366 21.0001 17.5 21.0001H14.4832L15.9916 19.4917C16.4472 19.0361 16.4472 18.2974 15.9916 17.8418C15.536 17.3862 14.7973 17.3862 14.3417 17.8418L10.8417 21.3418C10.3861 21.7974 10.3861 22.5361 10.8417 22.9917L14.3417 26.4917C14.7973 26.9473 15.536 26.9473 15.9916 26.4917C16.4472 26.0361 16.4472 25.2974 15.9916 24.8418L14.4832 23.3334H17.5Z" fill="#18202A"/>
</svg>
