<svg width="28" height="28" viewBox="0 0 28 28" fill="none" xmlns="http://www.w3.org/2000/svg">
<path d="M17.4646 4.41047C17.1229 4.06876 17.1229 3.51474 17.4646 3.17303C17.8063 2.83132 18.3603 2.83132 18.702 3.17303L23.952 8.42303C24.2937 8.76474 24.2937 9.31876 23.952 9.66047L18.702 14.9105C18.3603 15.2522 17.8063 15.2522 17.4646 14.9105C17.1229 14.5688 17.1229 14.0147 17.4646 13.673L21.2209 9.91675H10.5C7.60048 9.91675 5.24998 12.2673 5.24998 15.1667C5.24998 18.0662 7.60048 20.4167 10.5 20.4167H18.9583C19.4416 20.4167 19.8333 20.8085 19.8333 21.2917C19.8333 21.775 19.4416 22.1667 18.9583 22.1667H10.5C6.63399 22.1667 3.49998 19.0327 3.49998 15.1667C3.49998 11.3008 6.63399 8.16675 10.5 8.16675H21.2209L17.4646 4.41047Z" fill="#18202A"/>
</svg>
