<svg width="28" height="28" viewBox="0 0 28 28" fill="none" xmlns="http://www.w3.org/2000/svg">
<path d="M14 1.16675C12.7113 1.16675 11.6666 2.21142 11.6666 3.50008V7.00008H16.3333V3.50008C16.3333 2.21142 15.2886 1.16675 14 1.16675Z" fill="#18202A"/>
<path fill-rule="evenodd" clip-rule="evenodd" d="M11.6666 9.33341C10.378 9.33341 9.33329 8.28875 9.33329 7.00008V4.66675H5.83329C3.25596 4.66675 1.16663 6.75609 1.16663 9.33341V21.0001C1.16663 23.5774 3.25596 25.6667 5.83329 25.6667H22.1666C24.744 25.6667 26.8333 23.5774 26.8333 21.0001V9.33341C26.8333 6.75609 24.744 4.66675 22.1666 4.66675H18.6666V7.00008C18.6666 8.28875 17.622 9.33341 16.3333 9.33341H11.6666ZM9.33329 16.3334C10.622 16.3334 11.6666 15.2887 11.6666 14.0001C11.6666 12.7114 10.622 11.6667 9.33329 11.6667C8.04463 11.6667 6.99996 12.7114 6.99996 14.0001C6.99996 15.2887 8.04463 16.3334 9.33329 16.3334ZM8.45829 17.5001C7.00855 17.5001 5.83329 18.6753 5.83329 20.1251C5.83329 20.6083 6.22504 21.0001 6.70829 21.0001H11.9583C12.4415 21.0001 12.8333 20.6083 12.8333 20.1251C12.8333 18.6753 11.658 17.5001 10.2083 17.5001H8.45829ZM16.3333 14.0001C16.3333 13.3557 16.8556 12.8334 17.5 12.8334H22.1666C22.811 12.8334 23.3333 13.3557 23.3333 14.0001C23.3333 14.6444 22.811 15.1667 22.1666 15.1667H17.5C16.8556 15.1667 16.3333 14.6444 16.3333 14.0001ZM17.5 17.5001C16.8556 17.5001 16.3333 18.0224 16.3333 18.6667C16.3333 19.3111 16.8556 19.8334 17.5 19.8334H22.1666C22.811 19.8334 23.3333 19.3111 23.3333 18.6667C23.3333 18.0224 22.811 17.5001 22.1666 17.5001H17.5Z" fill="#18202A"/>
</svg>
