<svg width="28" height="28" viewBox="0 0 28 28" fill="none" xmlns="http://www.w3.org/2000/svg">
<g clip-path="url(#clip0_2294_13860)">
<path fill-rule="evenodd" clip-rule="evenodd" d="M18.6667 6.27116C18.6667 9.91699 17.1111 12.8337 14 12.8337C10.8889 12.8337 9.33334 9.91699 9.33334 6.27116C9.33334 3.35449 10.8889 1.16699 14 1.16699C17.1111 1.16699 18.6667 3.35449 18.6667 6.27116ZM16.9167 6.27116C16.9167 7.87895 16.5686 9.14943 16.037 9.95928C15.5525 10.6974 14.913 11.0837 14 11.0837C13.087 11.0837 12.4475 10.6974 11.963 9.95928C11.4314 9.14943 11.0833 7.87895 11.0833 6.27116C11.0833 5.10468 11.3949 4.2726 11.8312 3.76128C12.2338 3.28949 12.887 2.91699 14 2.91699C15.113 2.91699 15.7662 3.28949 16.1688 3.76128C16.6051 4.2726 16.9167 5.10468 16.9167 6.27116ZM15.1505 25.0499C15.3984 25.6525 15.7217 26.2162 16.1086 26.7291C15.4151 26.7983 14.7117 26.8337 14 26.8337C12.1947 26.8337 10.4426 26.6059 8.77091 26.1774C7.34869 25.813 6.14331 24.8603 5.48317 23.5489C5.28748 23.1602 5.10498 22.7637 4.93626 22.36C4.21933 20.6446 4.50505 18.6377 5.83254 17.3361C7.93699 15.2727 10.8199 14.0003 14 14.0003C15.8537 14.0003 17.6063 14.4326 19.1627 15.2019C18.4981 15.4889 17.8827 15.8683 17.3327 16.3238C16.2914 15.9524 15.1696 15.7503 14 15.7503C11.2963 15.7503 8.84831 16.83 7.05774 18.5857C6.30659 19.3222 6.07326 20.5423 6.55091 21.6851C6.70372 22.0508 6.86901 22.4099 7.04628 22.7621C7.47367 23.6111 8.26111 24.2402 9.20536 24.4822C10.7363 24.8746 12.3425 25.0837 14 25.0837C14.3864 25.0837 14.77 25.0723 15.1505 25.0499ZM28 22.167C28 25.3887 25.3883 28.0003 22.1667 28.0003C18.945 28.0003 16.3333 25.3887 16.3333 22.167C16.3333 18.9453 18.945 16.3337 22.1667 16.3337C25.3883 16.3337 28 18.9453 28 22.167ZM22.1667 18.667C22.6499 18.667 23.0417 19.0587 23.0417 19.542V21.292H24.7917C25.2749 21.292 25.6667 21.6837 25.6667 22.167C25.6667 22.6502 25.2749 23.042 24.7917 23.042H23.0417V24.792C23.0417 25.2752 22.6499 25.667 22.1667 25.667C21.6834 25.667 21.2917 25.2752 21.2917 24.792V23.042H19.5417C19.0584 23.042 18.6667 22.6502 18.6667 22.167C18.6667 21.6837 19.0584 21.292 19.5417 21.292H21.2917V19.542C21.2917 19.0587 21.6834 18.667 22.1667 18.667Z" fill="#18202A"/>
</g>
<defs>
<clipPath id="clip0_2294_13860">
<rect width="28" height="28" fill="white"/>
</clipPath>
</defs>
</svg>
