<svg width="28" height="28" viewBox="0 0 28 28" fill="none" xmlns="http://www.w3.org/2000/svg">
<path fill-rule="evenodd" clip-rule="evenodd" d="M12.1743 2.47567C12.0743 1.83915 12.5094 1.23656 13.1524 1.19458C13.4327 1.17628 13.7153 1.16699 14 1.16699C21.0877 1.16699 26.8333 6.91267 26.8333 14.0003C26.8333 14.285 26.824 14.5677 26.8057 14.848C26.7638 15.4909 26.1612 15.926 25.5247 15.826C24.8881 15.726 24.4599 15.1284 24.489 14.4847C24.4963 14.3242 24.5 14.1627 24.5 14.0003C24.5 8.20134 19.799 3.50033 14 3.50033C13.8376 3.50033 13.6761 3.504 13.5156 3.51128C12.872 3.54045 12.2744 3.11219 12.1743 2.47567ZM6.65777 4.93326C6.25198 4.43276 6.3261 3.69313 6.86127 3.3343C7.33007 3.01997 7.82086 2.73564 8.33089 2.48413C8.90878 2.19916 9.58666 2.50421 9.81771 3.1057C10.0488 3.70718 9.74456 4.37641 9.1726 4.6731C8.88634 4.8216 8.60772 4.98292 8.33751 5.15632C7.79523 5.50432 7.06356 5.43375 6.65777 4.93326ZM3.10537 9.81804C2.50388 9.58699 2.19883 8.90911 2.4838 8.33123C2.73532 7.82119 3.01964 7.3304 3.33397 6.8616C3.6928 6.32643 4.43243 6.25231 4.93293 6.6581C5.43343 7.06389 5.50399 7.79556 5.156 8.33783C4.98259 8.60805 4.82127 8.88667 4.67277 9.17293C4.37608 9.74489 3.70685 10.0491 3.10537 9.81804ZM1.16666 14.0003C1.16666 13.7156 1.17595 13.433 1.19425 13.1527C1.23624 12.5097 1.83882 12.0746 2.47534 12.1747C3.11186 12.2747 3.54012 12.8723 3.51095 13.516C3.50368 13.6764 3.5 13.8379 3.5 14.0003C3.5 14.1627 3.50368 14.3242 3.51095 14.4847C3.54012 15.1284 3.11186 15.726 2.47534 15.826C1.83882 15.926 1.23624 15.4909 1.19425 14.848C1.17595 14.5677 1.16666 14.285 1.16666 14.0003ZM24.8946 18.1826C25.4961 18.4137 25.8012 19.0915 25.5162 19.6694C25.2647 20.1795 24.9804 20.6703 24.666 21.1391C24.3072 21.6742 23.5676 21.7483 23.0671 21.3426C22.5666 20.9368 22.496 20.2051 22.844 19.6628C23.0174 19.3926 23.1787 19.114 23.3272 18.8277C23.6239 18.2558 24.2931 17.9516 24.8946 18.1826ZM4.93293 21.3426C4.43243 21.7483 3.6928 21.6742 3.33397 21.1391C3.01964 20.6703 2.73532 20.1795 2.48381 19.6694C2.19883 19.0915 2.50389 18.4137 3.10537 18.1826C3.70685 17.9516 4.37608 18.2558 4.67277 18.8277C4.82127 19.114 4.98259 19.3926 5.156 19.6628C5.504 20.2051 5.43343 20.9368 4.93293 21.3426ZM9.81771 24.895C9.58666 25.4964 8.90879 25.8015 8.3309 25.5165C7.82086 25.265 7.33007 24.9807 6.86127 24.6664C6.3261 24.3075 6.25198 23.5679 6.65777 23.0674C7.06356 22.5669 7.79523 22.4963 8.33751 22.8443C8.60772 23.0177 8.88634 23.1791 9.17261 23.3276C9.74457 23.6242 10.0488 24.2935 9.81771 24.895ZM21.3422 23.0674C21.748 23.5679 21.6739 24.3075 21.1387 24.6664C20.6699 24.9807 20.1791 25.265 19.6691 25.5165C19.0912 25.8015 18.4133 25.4964 18.1823 24.895C17.9512 24.2935 18.2554 23.6242 18.8274 23.3275C19.1137 23.1791 19.3923 23.0177 19.6625 22.8443C20.2048 22.4963 20.9364 22.5669 21.3422 23.0674ZM15.8257 25.525C15.9257 26.1615 15.4906 26.7641 14.8476 26.8061C14.5673 26.8244 14.2847 26.8337 14 26.8337C13.7153 26.8337 13.4327 26.8244 13.1524 26.8061C12.5094 26.7641 12.0743 26.1615 12.1743 25.525C12.2744 24.8885 12.872 24.4602 13.5156 24.4894C13.6761 24.4966 13.8376 24.5003 14 24.5003C14.1624 24.5003 14.3239 24.4966 14.4844 24.4894C15.128 24.4602 15.7256 24.8885 15.8257 25.525ZM22.1667 14.0003C22.1667 18.5107 18.5103 22.167 14 22.167C9.48967 22.167 5.83333 18.5107 5.83333 14.0003C5.83333 9.49 9.48967 5.83366 14 5.83366C18.5103 5.83366 22.1667 9.49 22.1667 14.0003ZM14 11.0837C14 12.0502 13.2165 12.8337 12.25 12.8337C11.2835 12.8337 10.5 12.0502 10.5 11.0837C10.5 10.1172 11.2835 9.33366 12.25 9.33366C13.2165 9.33366 14 10.1172 14 11.0837ZM10.5 14.5837L9.05988 17.1039C10.0924 18.7439 11.9189 19.8337 14 19.8337C17.0358 19.8337 19.5299 17.5147 19.8076 14.5515L17.5 11.667L13.4167 16.3337L10.5 14.5837Z" fill="#18202A"/>
</svg>
