<svg width="28" height="28" viewBox="0 0 28 28" fill="none" xmlns="http://www.w3.org/2000/svg">
<g clip-path="url(#clip0_3240_8962)">
<path d="M4.81184 19.47L3.55378 20.728C3.13328 20.1579 2.81028 19.5011 2.61586 18.7755L0.200213 9.7602C-0.633613 6.64832 1.21312 3.44969 4.325 2.61586L13.3403 0.200214C16.315 -0.59686 19.369 1.05552 20.3608 3.921L18.9442 5.33758L18.7943 4.77794C18.2106 2.59962 15.9716 1.3069 13.7932 1.89058L4.77794 4.30623C2.59962 4.88991 1.30691 7.12895 1.89058 9.30727L4.30623 18.3226C4.41804 18.7399 4.5906 19.1247 4.81184 19.47Z" fill="#18202A"/>
<path fill-rule="evenodd" clip-rule="evenodd" d="M26.5755 2.66949L22.2196 7.02543L22.6834 7.066C25.8928 7.34679 28.2669 10.1761 27.9861 13.3855L27.1726 22.6834C26.8918 25.8928 24.0625 28.2669 20.8531 27.9861L11.5553 27.1726C9.02855 26.9516 7.01956 25.1509 6.41623 22.8288L2.6695 26.5755C2.32571 26.9193 1.76832 26.9193 1.42453 26.5755C1.08074 26.2317 1.08074 25.6743 1.42453 25.3305L25.3305 1.42451C25.6743 1.08072 26.2317 1.08072 26.5755 1.42451C26.9193 1.7683 26.9193 2.3257 26.5755 2.66949ZM12.6022 17.1851L10.6094 18.6356L13.6414 15.6036C15.0356 15.4931 16.187 14.3896 16.313 12.9501L16.3146 12.9304L20.6042 8.64079L22.5308 8.80934C24.7774 9.00589 26.4393 10.9864 26.2427 13.233L25.6227 20.3207L21.2859 15.1125L15.3711 19.3808L12.6022 17.1851ZM8.16505 22.5793L12.5568 19.3826L15.3213 21.5747L20.9859 17.4871L25.3719 22.7544L25.4078 22.7245C25.1178 24.8721 23.1871 26.4336 21.0056 26.2428L11.7078 25.4293C10.0089 25.2807 8.64441 24.1119 8.16505 22.5793Z" fill="#18202A"/>
<path d="M10.6457 13.6361L14.3476 9.93418C14.1302 9.86036 13.9005 9.8112 13.6616 9.7903C12.0569 9.6499 10.6422 10.837 10.5018 12.4417C10.4653 12.859 10.5186 13.2635 10.6457 13.6361Z" fill="#18202A"/>
<path d="M8.80934 11.7078L8.44839 15.8334L6.52329 17.7585L7.066 11.5553C7.34678 8.34587 10.1761 5.97176 13.3855 6.25255L17.6557 6.62614L16.0403 8.2415L13.233 7.99589C10.9864 7.79934 9.00589 9.46122 8.80934 11.7078Z" fill="#18202A"/>
</g>
<defs>
<clipPath id="clip0_3240_8962">
<rect width="28" height="28" fill="white"/>
</clipPath>
</defs>
</svg>
