<svg width="28" height="28" viewBox="0 0 28 28" fill="none" xmlns="http://www.w3.org/2000/svg">
<path fill-rule="evenodd" clip-rule="evenodd" d="M12.0015 2.69163C12.3285 2.82706 12.5417 3.14612 12.5417 3.50003V8.47354C15.6597 8.58303 18.9995 9.30669 21.6513 11.3532C24.5956 13.6254 26.5417 17.41 26.5417 23.3334C26.5417 23.7282 26.2772 24.0742 25.8962 24.1777C25.5151 24.2813 25.1119 24.1168 24.9121 23.7763C23.3487 21.1128 22.1384 19.5493 20.3532 18.592C18.6687 17.6887 16.3647 17.268 12.5417 17.2143V22.1667C12.5417 22.5206 12.3285 22.8397 12.0015 22.9751C11.6746 23.1105 11.2982 23.0357 11.048 22.7854L1.71463 13.4521C1.37292 13.1104 1.37292 12.5563 1.71463 12.2146L11.048 2.88131C11.2982 2.63106 11.6746 2.5562 12.0015 2.69163ZM3.57078 12.8334L10.7917 20.0543V16.3334C10.7917 15.8501 11.1834 15.4584 11.6667 15.4584C16.0634 15.4584 18.9644 15.8616 21.1802 17.0497C22.5283 17.7726 23.5775 18.762 24.5452 20.0245C23.9759 16.4757 22.4723 14.1973 20.5821 12.7386C18.1171 10.8363 14.8427 10.2084 11.6667 10.2084C11.1834 10.2084 10.7917 9.81661 10.7917 9.33336V5.61246L3.57078 12.8334Z" fill="#18202A"/>
</svg>
