<svg width="28" height="28" viewBox="0 0 28 28" fill="none" xmlns="http://www.w3.org/2000/svg">
<g clip-path="url(#clip0_3604_8871)">
<path fill-rule="evenodd" clip-rule="evenodd" d="M11.6667 7.58333C11.6667 9.43309 10.4367 10.9956 8.75 11.4976V15.4584C8.75 17.5524 10.4476 19.25 12.5417 19.25H16.5024C17.0044 17.5633 18.5669 16.3333 20.4167 16.3333C22.6718 16.3333 24.5 18.1615 24.5 20.4167C24.5 22.6718 22.6718 24.5 20.4167 24.5C18.3596 24.5 16.6577 22.9788 16.3747 21H12.5417C9.48109 21 7 18.5189 7 15.4584V11.6253C5.02116 11.3423 3.5 9.64044 3.5 7.58333C3.5 5.32817 5.32817 3.5 7.58333 3.5C9.8385 3.5 11.6667 5.32817 11.6667 7.58333ZM9.91667 7.58333C9.91667 8.872 8.872 9.91667 7.58333 9.91667C6.29467 9.91667 5.25 8.872 5.25 7.58333C5.25 6.29467 6.29467 5.25 7.58333 5.25C8.872 5.25 9.91667 6.29467 9.91667 7.58333ZM22.75 20.4167C22.75 21.7053 21.7053 22.75 20.4167 22.75C19.128 22.75 18.0833 21.7053 18.0833 20.4167C18.0833 19.128 19.128 18.0833 20.4167 18.0833C21.7053 18.0833 22.75 19.128 22.75 20.4167Z" fill="#18202A"/>
<path d="M21.2917 4.375C21.2917 3.89175 20.8999 3.5 20.4167 3.5C19.9334 3.5 19.5417 3.89175 19.5417 4.375V6.70833H17.2083C16.7251 6.70833 16.3333 7.10008 16.3333 7.58333C16.3333 8.06658 16.7251 8.45833 17.2083 8.45833H19.5417V10.7917C19.5417 11.2749 19.9334 11.6667 20.4167 11.6667C20.8999 11.6667 21.2917 11.2749 21.2917 10.7917V8.45833H23.625C24.1082 8.45833 24.5 8.06658 24.5 7.58333C24.5 7.10008 24.1082 6.70833 23.625 6.70833H21.2917V4.375Z" fill="#18202A"/>
</g>
<defs>
<clipPath id="clip0_3604_8871">
<rect width="28" height="28" fill="white"/>
</clipPath>
</defs>
</svg>
