<svg width="28" height="28" viewBox="0 0 28 28" fill="none" xmlns="http://www.w3.org/2000/svg">
<path fill-rule="evenodd" clip-rule="evenodd" d="M14 8.75033C15.6108 8.75033 16.9167 7.44449 16.9167 5.83366C16.9167 4.22283 15.6108 2.91699 14 2.91699C12.3892 2.91699 11.0833 4.22283 11.0833 5.83366C11.0833 7.44449 12.3892 8.75033 14 8.75033ZM18.6667 5.83366C18.6667 8.11192 17.0341 10.0089 14.875 10.4184V25.0482C17.4168 24.8415 19.8143 23.7394 21.6309 21.9229C23.4474 20.1063 24.5495 17.7088 24.7562 15.167H22.1667C21.6834 15.167 21.2917 14.7752 21.2917 14.292C21.2917 13.8087 21.6834 13.417 22.1667 13.417H25.6667C26.1499 13.417 26.5417 13.8087 26.5417 14.292C26.5417 17.6182 25.2203 20.8083 22.8683 23.1603C20.5163 25.5123 17.3263 26.8337 14 26.8337C10.6738 26.8337 7.48373 25.5123 5.13171 23.1603C2.77969 20.8083 1.45834 17.6182 1.45834 14.292C1.45834 14.0599 1.55053 13.8374 1.71463 13.6733C1.87872 13.5092 2.10128 13.417 2.33334 13.417H5.83334C6.31659 13.417 6.70834 13.8087 6.70834 14.292C6.70834 14.7752 6.31659 15.167 5.83334 15.167H3.24385C3.45052 17.7088 4.55258 20.1063 6.36915 21.9229C8.18572 23.7394 10.5832 24.8415 13.125 25.0482V10.4184C10.9659 10.0089 9.33334 8.11192 9.33334 5.83366C9.33334 3.25633 11.4227 1.16699 14 1.16699C16.5773 1.16699 18.6667 3.25633 18.6667 5.83366Z" fill="#18202A"/>
</svg>
