<svg width="28" height="28" viewBox="0 0 28 28" fill="none" xmlns="http://www.w3.org/2000/svg">
<path fill-rule="evenodd" clip-rule="evenodd" d="M14 26.8333C21.0877 26.8333 26.8333 21.0876 26.8333 14C26.8333 6.91231 21.0877 1.16663 14 1.16663C6.91234 1.16663 1.16666 6.91231 1.16666 14C1.16666 21.0876 6.91234 26.8333 14 26.8333ZM19.5115 11.3046C19.9558 10.838 19.9378 10.0995 19.4712 9.65513C19.0047 9.21076 18.2662 9.22878 17.8218 9.69536L12.0456 15.7604L10.2191 13.6296C9.79979 13.1404 9.06327 13.0837 8.57406 13.503C8.08485 13.9224 8.02819 14.6589 8.44752 15.1481L11.1142 18.2592C11.3289 18.5097 11.6396 18.6576 11.9694 18.6662C12.2992 18.6749 12.6173 18.5435 12.8448 18.3046L19.5115 11.3046Z" fill="#18202A"/>
</svg>
