<svg width="28" height="28" viewBox="0 0 28 28" fill="none" xmlns="http://www.w3.org/2000/svg">
<path fill-rule="evenodd" clip-rule="evenodd" d="M12.8333 3.20801C7.5176 3.20801 3.20834 7.51727 3.20834 12.833C3.20834 17.7867 6.9513 21.8673 11.7628 22.3992C12.2431 22.4523 12.5895 22.8847 12.5364 23.3651C12.4833 23.8454 12.0509 24.1917 11.5705 24.1386C5.88217 23.5098 1.45834 18.6886 1.45834 12.833C1.45834 6.55077 6.5511 1.45801 12.8333 1.45801C18.689 1.45801 23.5101 5.88183 24.139 11.5702C24.1921 12.0505 23.8457 12.4829 23.3654 12.536C22.8851 12.5891 22.4527 12.2428 22.3996 11.7625C21.8677 6.95096 17.787 3.20801 12.8333 3.20801ZM12.8333 7.87467C10.0949 7.87467 7.87501 10.0946 7.87501 12.833C7.87501 14.8649 9.09732 16.6132 10.8503 17.3791C11.2932 17.5726 11.4953 18.0885 11.3018 18.5313C11.1083 18.9741 10.5925 19.1762 10.1497 18.9828C7.78226 17.9484 6.12501 15.5852 6.12501 12.833C6.12501 9.1281 9.12843 6.12467 12.8333 6.12467C15.5855 6.12467 17.9487 7.78192 18.9831 10.1493C19.1766 10.5922 18.9744 11.108 18.5316 11.3015C18.0888 11.495 17.573 11.2928 17.3795 10.85C16.6136 9.09698 14.8652 7.87467 12.8333 7.87467ZM17.1985 23.6662L14.1801 14.1797L23.6665 17.1981L21.3313 18.7549C21.1132 18.9003 20.9718 19.1359 20.9459 19.3967C20.9201 19.6576 21.0126 19.9163 21.198 20.1017L25.5959 24.4996L24.5 25.5955L20.1021 21.1976C19.9167 21.0122 19.658 20.9197 19.3971 20.9456C19.1362 20.9714 18.9007 21.1128 18.7553 21.3309L17.1985 23.6662ZM14.1733 12.3411C13.0456 11.9823 11.9827 13.0453 12.3415 14.173L15.7149 24.775C16.0856 25.9403 17.6397 26.1593 18.318 25.1418L19.6193 23.1897L23.4688 27.0392C24.0383 27.6087 24.9617 27.6087 25.5312 27.0392L27.0396 25.5308C27.6091 24.9613 27.6091 24.0379 27.0396 23.4684L23.1901 19.619L25.1422 18.3176C26.1596 17.6393 25.9407 16.0853 24.7754 15.7145L14.1733 12.3411Z" fill="#18202A"/>
</svg>
