<svg width="28" height="28" viewBox="0 0 28 28" fill="none" xmlns="http://www.w3.org/2000/svg">
<path fill-rule="evenodd" clip-rule="evenodd" d="M23.3333 5.25H4.66666C3.70016 5.25 2.91666 6.0335 2.91666 7V21C2.91666 21.9665 3.70016 22.75 4.66666 22.75H23.3333C24.2998 22.75 25.0833 21.9665 25.0833 21V7C25.0833 6.0335 24.2998 5.25 23.3333 5.25ZM4.66666 3.5C2.73366 3.5 1.16666 5.067 1.16666 7V21C1.16666 22.933 2.73366 24.5 4.66666 24.5H23.3333C25.2663 24.5 26.8333 22.933 26.8333 21V7C26.8333 5.067 25.2663 3.5 23.3333 3.5H4.66666Z" fill="#18202A"/>
<path fill-rule="evenodd" clip-rule="evenodd" d="M26.392 7.67728C26.6623 8.07787 26.5566 8.62173 26.156 8.89201L16.8053 15.201C15.9899 15.7512 15.0037 16.0417 14 16.0417C12.9963 16.0417 12.0101 15.7512 11.1947 15.201L1.84393 8.89201C1.44334 8.62173 1.3377 8.07787 1.60798 7.67728C1.87826 7.27668 2.42212 7.17104 2.82271 7.44132L12.1735 13.7503C12.686 14.0962 13.3283 14.2917 14 14.2917C14.6717 14.2917 15.3139 14.0962 15.8264 13.7504L25.1773 7.44132C25.5779 7.17104 26.1217 7.27668 26.392 7.67728Z" fill="#18202A"/>
</svg>
