<svg width="28" height="28" viewBox="0 0 28 28" fill="none" xmlns="http://www.w3.org/2000/svg">
<g clip-path="url(#clip0_2294_9810)">
<path fill-rule="evenodd" clip-rule="evenodd" d="M26.8333 13.6392C26.8333 14.2265 26.7909 14.8072 26.7078 15.3778C25.4093 14.5075 23.8472 13.9998 22.1667 13.9998C21.7219 13.9998 21.2854 14.0354 20.8599 14.1038C20.9501 13.8928 21 13.6605 21 13.4165C21 12.45 20.2165 11.6665 19.25 11.6665C18.2835 11.6665 17.5 12.45 17.5 13.4165C17.5 14.0639 17.8516 14.6292 18.3742 14.9319C15.7737 16.298 14 19.0251 14 22.1665C14 23.4118 14.2787 24.592 14.7772 25.6481C14.5252 25.6603 14.2701 25.6665 14.0119 25.6665C12.7613 25.6665 11.5525 25.5276 10.4098 25.257L7.22955 26.7248C6.49422 27.0642 5.64527 26.5695 5.57801 25.7624L5.33289 22.8209C2.78626 20.7578 1.19053 17.6319 1.19053 13.6392C0.732675 6.95741 6.93086 1.1665 14.0119 1.1665C21.093 1.1665 26.8333 6.0665 26.8333 13.6392ZM8.75 15.1665C9.7165 15.1665 10.5 14.383 10.5 13.4165C10.5 12.45 9.7165 11.6665 8.75 11.6665C7.7835 11.6665 7 12.45 7 13.4165C7 14.383 7.7835 15.1665 8.75 15.1665ZM14 15.1665C14.9665 15.1665 15.75 14.383 15.75 13.4165C15.75 12.45 14.9665 11.6665 14 11.6665C13.0335 11.6665 12.25 12.45 12.25 13.4165C12.25 14.383 13.0335 15.1665 14 15.1665ZM28 22.1665C28 25.3882 25.3883 27.9998 22.1667 27.9998C18.945 27.9998 16.3333 25.3882 16.3333 22.1665C16.3333 18.9448 18.945 16.3332 22.1667 16.3332C25.3883 16.3332 28 18.9448 28 22.1665ZM22.1667 18.6665C21.5223 18.6665 21 19.1888 21 19.8332V20.9998H19.8333C19.189 20.9998 18.6667 21.5222 18.6667 22.1665C18.6667 22.8108 19.189 23.3332 19.8333 23.3332H21V24.4998C21 25.1442 21.5223 25.6665 22.1667 25.6665C22.811 25.6665 23.3333 25.1442 23.3333 24.4998V23.3332H24.5C25.1443 23.3332 25.6667 22.8108 25.6667 22.1665C25.6667 21.5222 25.1443 20.9998 24.5 20.9998H23.3333V19.8332C23.3333 19.1888 22.811 18.6665 22.1667 18.6665Z" fill="#18202A"/>
</g>
<defs>
<clipPath id="clip0_2294_9810">
<rect width="28" height="28" fill="white"/>
</clipPath>
</defs>
</svg>
