<svg width="28" height="28" viewBox="0 0 28 28" fill="none" xmlns="http://www.w3.org/2000/svg">
<path fill-rule="evenodd" clip-rule="evenodd" d="M9.04169 4.66675C8.55844 4.66675 8.16669 5.0585 8.16669 5.54175V22.4584C8.16669 22.9417 8.55844 23.3334 9.04169 23.3334H16.9167C19.8162 23.3334 22.1667 20.9829 22.1667 18.0834C22.1667 15.7173 20.6015 13.7169 18.45 13.0609C19.3067 12.1697 19.8334 10.9589 19.8334 9.62508C19.8334 6.88667 17.6134 4.66675 14.875 4.66675H9.04169ZM14.875 12.8334C16.6469 12.8334 18.0834 11.397 18.0834 9.62508C18.0834 7.85317 16.6469 6.41675 14.875 6.41675H9.91669V12.8334H14.875ZM20.4167 18.0834C20.4167 16.1504 18.8497 14.5834 16.9167 14.5834H9.91669V21.5834H16.9167C18.8497 21.5834 20.4167 20.0164 20.4167 18.0834Z" fill="#18202A"/>
</svg>
