<svg width="28" height="28" viewBox="0 0 28 28" fill="none" xmlns="http://www.w3.org/2000/svg">
<path fill-rule="evenodd" clip-rule="evenodd" d="M22.7854 5.21453C23.1271 5.55624 23.1271 6.11026 22.7854 6.45197L6.45206 22.7853C6.11035 23.127 5.55633 23.127 5.21463 22.7853C4.87292 22.4436 4.87292 21.8896 5.21463 21.5479L21.548 5.21453C21.8897 4.87282 22.4437 4.87282 22.7854 5.21453Z" fill="#18202A"/>
<path fill-rule="evenodd" clip-rule="evenodd" d="M5.21463 5.21453C5.55633 4.87282 6.11035 4.87282 6.45206 5.21453L22.7854 21.5479C23.1271 21.8896 23.1271 22.4436 22.7854 22.7853C22.4437 23.127 21.8897 23.127 21.548 22.7853L5.21463 6.45197C4.87292 6.11026 4.87292 5.55624 5.21463 5.21453Z" fill="#18202A"/>
</svg>
