<svg width="28" height="28" viewBox="0 0 28 28" fill="none" xmlns="http://www.w3.org/2000/svg">
<path fill-rule="evenodd" clip-rule="evenodd" d="M8.16683 23.3328C8.16683 22.6885 8.68916 22.1662 9.3335 22.1662H24.5002C25.1445 22.1662 25.6668 22.6885 25.6668 23.3328C25.6668 23.9772 25.1445 24.4995 24.5002 24.4995H9.3335C8.68916 24.4995 8.16683 23.9772 8.16683 23.3328Z" fill="#18202A"/>
<path fill-rule="evenodd" clip-rule="evenodd" d="M8.16683 4.66618C8.16683 4.02185 8.68916 3.49951 9.3335 3.49951H24.5002C25.1445 3.49951 25.6668 4.02185 25.6668 4.66618C25.6668 5.31051 25.1445 5.83284 24.5002 5.83284H9.3335C8.68916 5.83284 8.16683 5.31051 8.16683 4.66618Z" fill="#18202A"/>
<path d="M7.82512 11.3245C8.28073 10.8689 8.28073 10.1302 7.82512 9.67455C7.36951 9.21894 6.63082 9.21894 6.1752 9.67455L2.6752 13.1746C2.47972 13.37 2.36811 13.6176 2.34038 13.8726C2.31983 14.0615 2.3453 14.2544 2.41678 14.4332C2.46526 14.5545 2.53491 14.6693 2.62574 14.7719C2.64359 14.7921 2.66213 14.8117 2.68132 14.8306L6.1752 18.3245C6.63082 18.7801 7.36951 18.7801 7.82512 18.3245C8.28073 17.8689 8.28073 17.1302 7.82512 16.6746L6.31569 15.1651L24.5007 15.1577C25.145 15.1574 25.6671 14.6349 25.6669 13.9906C25.6666 13.3462 25.1441 12.8241 24.4997 12.8244L6.3178 12.8318L7.82512 11.3245Z" fill="#18202A"/>
</svg>
