<svg width="28" height="28" viewBox="0 0 28 28" fill="none" xmlns="http://www.w3.org/2000/svg">
<g clip-path="url(#clip0_2293_22565)">
<path fill-rule="evenodd" clip-rule="evenodd" d="M7.00002 2.04169C7.00002 1.55844 7.39177 1.16669 7.87502 1.16669C8.35827 1.16669 8.75002 1.55844 8.75002 2.04169V3.50002H19.25V2.04169C19.25 1.55844 19.6418 1.16669 20.125 1.16669C20.6083 1.16669 21 1.55844 21 2.04169V3.50002H22.1667C24.744 3.50002 26.8334 5.58936 26.8334 8.16669V16.1889C26.3022 15.7737 25.7144 15.4277 25.0834 15.1645V8.16669C25.0834 6.55586 23.7775 5.25002 22.1667 5.25002H21V7.29169C21 7.77494 20.6083 8.16669 20.125 8.16669C19.6418 8.16669 19.25 7.77494 19.25 7.29169V5.25002H8.75002V7.29169C8.75002 7.77494 8.35827 8.16669 7.87502 8.16669C7.39177 8.16669 7.00002 7.77494 7.00002 7.29169V5.25002H5.83335C4.22252 5.25002 2.91669 6.55586 2.91669 8.16669V22.1667C2.91669 23.7775 4.22252 25.0834 5.83335 25.0834H15.1645C15.4277 25.7144 15.7737 26.3022 16.1889 26.8334H5.83335C3.25603 26.8334 1.16669 24.744 1.16669 22.1667V8.16669C1.16669 5.58936 3.25603 3.50002 5.83335 3.50002H7.00002V2.04169ZM16.3334 15.1667C16.9309 15.1667 17.4236 15.616 17.4919 16.1952C17.0093 16.5736 16.5736 17.0093 16.1952 17.4919C15.616 17.4236 15.1667 16.9309 15.1667 16.3334C15.1667 15.689 15.689 15.1667 16.3334 15.1667ZM5.83335 11.375C5.83335 10.8918 6.2251 10.5 6.70835 10.5H21.2917C21.7749 10.5 22.1667 10.8918 22.1667 11.375C22.1667 11.8583 21.7749 12.25 21.2917 12.25H6.70835C6.2251 12.25 5.83335 11.8583 5.83335 11.375ZM7.00002 15.1667C6.35569 15.1667 5.83335 15.689 5.83335 16.3334C5.83335 16.9777 6.35569 17.5 7.00002 17.5C7.64435 17.5 8.16669 16.9777 8.16669 16.3334C8.16669 15.689 7.64435 15.1667 7.00002 15.1667ZM5.83335 21C5.83335 20.3557 6.35569 19.8334 7.00002 19.8334C7.64435 19.8334 8.16669 20.3557 8.16669 21C8.16669 21.6444 7.64435 22.1667 7.00002 22.1667C6.35569 22.1667 5.83335 21.6444 5.83335 21ZM11.6667 15.1667C11.0224 15.1667 10.5 15.689 10.5 16.3334C10.5 16.9777 11.0224 17.5 11.6667 17.5C12.311 17.5 12.8334 16.9777 12.8334 16.3334C12.8334 15.689 12.311 15.1667 11.6667 15.1667ZM10.5 21C10.5 20.3557 11.0224 19.8334 11.6667 19.8334C12.311 19.8334 12.8334 20.3557 12.8334 21C12.8334 21.6444 12.311 22.1667 11.6667 22.1667C11.0224 22.1667 10.5 21.6444 10.5 21ZM28 22.1667C28 25.3883 25.3883 28 22.1667 28C18.945 28 16.3334 25.3883 16.3334 22.1667C16.3334 18.945 18.945 16.3334 22.1667 16.3334C25.3883 16.3334 28 18.945 28 22.1667ZM22.0442 24.0391C21.9966 24.0868 21.9411 24.1258 21.8801 24.1545L19.2098 25.4111C19.0172 25.5018 18.8137 25.3083 18.8946 25.1114L20.0565 22.2799C20.0888 22.2012 20.1379 22.1305 20.2005 22.0728L23.8213 18.7304C24.0514 18.518 24.408 18.5252 24.6294 18.7466L25.5706 19.6878C25.7985 19.9156 25.7985 20.2849 25.5706 20.5127L22.0442 24.0391Z" fill="#18202A"/>
</g>
<defs>
<clipPath id="clip0_2293_22565">
<rect width="28" height="28" fill="white"/>
</clipPath>
</defs>
</svg>
