<svg width="28" height="28" viewBox="0 0 28 28" fill="none" xmlns="http://www.w3.org/2000/svg">
<path fill-rule="evenodd" clip-rule="evenodd" d="M10.5 6.41658C10.5 8.26635 9.27001 9.82884 7.58331 10.3308V16.6249C7.58331 18.719 9.2809 20.4166 11.375 20.4166H17.6691C18.1711 18.7299 19.7336 17.4999 21.5833 17.4999C23.8385 17.4999 25.6666 19.3281 25.6666 21.5833C25.6666 23.8384 23.8385 25.6666 21.5833 25.6666C19.5262 25.6666 17.8244 24.1454 17.5413 22.1666H11.375C8.3144 22.1666 5.83331 19.6855 5.83331 16.6249V10.4586C3.85447 10.1755 2.33331 8.47369 2.33331 6.41658C2.33331 4.16142 4.16148 2.33325 6.41665 2.33325C8.67181 2.33325 10.5 4.16142 10.5 6.41658ZM8.74998 6.41658C8.74998 7.70525 7.70531 8.74992 6.41665 8.74992C5.12798 8.74992 4.08331 7.70525 4.08331 6.41658C4.08331 5.12792 5.12798 4.08325 6.41665 4.08325C7.70531 4.08325 8.74998 5.12792 8.74998 6.41658ZM23.9166 21.5833C23.9166 22.8719 22.872 23.9166 21.5833 23.9166C20.2946 23.9166 19.25 22.8719 19.25 21.5833C19.25 20.2946 20.2946 19.2499 21.5833 19.2499C22.872 19.2499 23.9166 20.2946 23.9166 21.5833Z" fill="#18202A"/>
</svg>
