<svg width="28" height="28" viewBox="0 0 28 28" fill="none" xmlns="http://www.w3.org/2000/svg">
<path d="M6.41667 17.8679L5.66271 18.338L6.2312 15.487H3.60606C2.65831 15.487 1.75 14.6567 1.75 13.4557V4.94779C1.75 3.74677 2.65831 2.9165 3.60606 2.9165H16.2273C17.175 2.9165 18.0833 3.74676 18.0833 4.94779V5.24984H19.8333V4.94779C19.8333 2.85944 18.2188 1.1665 16.2273 1.1665H3.60606C1.61449 1.1665 0 2.85944 0 4.94779V13.4557C0 15.0846 0.982279 16.473 2.3596 17.005C2.74806 17.155 3.16793 17.237 3.60606 17.237H4.0978L3.57508 19.8584C3.41449 20.6638 4.2438 21.2849 4.91826 20.8644L6.41667 19.9302V17.8679Z" fill="#18202A"/>
<path fill-rule="evenodd" clip-rule="evenodd" d="M25.6404 22.8383C27.0177 22.3063 28 20.9179 28 19.289V10.7811C28 8.69278 26.3855 6.99984 24.3939 6.99984H11.7727C9.78115 6.99984 8.16667 8.69278 8.16667 10.7811V19.289C8.16667 21.3774 9.78115 23.0703 11.7727 23.0703H17.2638L23.0817 26.6977C23.7562 27.1183 24.5855 26.4971 24.4249 25.6917L23.9022 23.0703H24.3939C24.8321 23.0703 25.2519 22.9884 25.6404 22.8383ZM17.7646 21.3203L22.3373 24.1713L21.7688 21.3203H24.3939C25.3417 21.3203 26.25 20.49 26.25 19.289V10.7811C26.25 9.5801 25.3417 8.74984 24.3939 8.74984H11.7727C10.825 8.74984 9.91667 9.5801 9.91667 10.7811V19.289C9.91667 20.49 10.825 21.3203 11.7727 21.3203H17.7646Z" fill="#18202A"/>
</svg>
