<svg width="28" height="28" viewBox="0 0 28 28" fill="none" xmlns="http://www.w3.org/2000/svg">
<path fill-rule="evenodd" clip-rule="evenodd" d="M1.16666 5.83317C1.16666 3.25584 3.256 1.1665 5.83333 1.1665H22.1667C24.744 1.1665 26.8333 3.25584 26.8333 5.83317V16.3332C26.8333 18.9105 24.744 20.9998 22.1667 20.9998H15.0606L7.53146 25.4766C6.65864 25.9956 5.58541 25.229 5.79324 24.2351L6.46969 20.9998H5.83333C3.256 20.9998 1.16666 18.9105 1.16666 16.3332V5.83317ZM7 8.1665C7 7.52217 7.52233 6.99984 8.16666 6.99984H19.8333C20.4777 6.99984 21 7.52217 21 8.1665C21 8.81084 20.4777 9.33317 19.8333 9.33317H8.16666C7.52233 9.33317 7 8.81084 7 8.1665ZM8.16666 12.8332C7.52233 12.8332 7 13.3555 7 13.9998C7 14.6442 7.52233 15.1665 8.16666 15.1665H16.3333C16.9777 15.1665 17.5 14.6442 17.5 13.9998C17.5 13.3555 16.9777 12.8332 16.3333 12.8332H8.16666Z" fill="#18202A"/>
</svg>
