<svg width="28" height="28" viewBox="0 0 28 28" fill="none" xmlns="http://www.w3.org/2000/svg">
<g clip-path="url(#clip0_3444_9140)">
<path fill-rule="evenodd" clip-rule="evenodd" d="M20.4521 2.88098C18.8217 1.25061 16.1783 1.25061 14.548 2.88098L13.9689 3.46004L2.89824 13.948C2.77752 14.0624 2.69189 14.2088 2.65138 14.3701L1.2069 20.121C1.00466 20.9261 1.72679 21.6596 2.53501 21.47L8.36655 20.1018C8.51734 20.0664 8.65603 19.9916 8.76846 19.8851L19.8518 9.38513C19.8536 9.38341 19.8554 9.38168 19.8572 9.37994C19.865 9.37242 19.8727 9.36477 19.8802 9.357L20.4521 8.78509C22.0824 7.15471 22.0824 4.51136 20.4521 2.88098ZM15.8211 4.08339L19.2497 7.51191C20.1614 6.56245 20.1498 5.05355 19.2146 4.11842C18.2795 3.18329 16.7706 3.17161 15.8211 4.08339ZM3.16079 19.5257L4.28663 15.0434L14.5669 5.30419L17.9956 8.73297L7.73658 18.4521L3.16079 19.5257Z" fill="#18202A"/>
<path d="M14.8043 20.0719C14.6735 19.7668 14.3814 19.562 14.05 19.543C13.7186 19.5241 13.405 19.6943 13.2403 19.9825L11.7467 22.5962C11.3832 23.2323 10.7067 23.6249 9.97408 23.6249H2.04169C1.55844 23.6249 1.16669 24.0167 1.16669 24.4999C1.16669 24.9832 1.55844 25.3749 2.04169 25.3749H9.97408C11.3347 25.3749 12.5911 24.6458 13.2662 23.4645L13.8879 22.3763L14.4912 23.784C14.9049 24.7491 15.8539 25.3749 16.904 25.3749H16.9294C17.9795 25.3749 18.9285 24.7491 19.3422 23.784L19.9454 22.3763L20.5672 23.4645C21.2423 24.6458 22.4986 25.3749 23.8593 25.3749H25.9584C26.4416 25.3749 26.8334 24.9832 26.8334 24.4999C26.8334 24.0167 26.4416 23.6249 25.9584 23.6249H23.8593C23.1266 23.6249 22.4501 23.2323 22.0866 22.5962L20.5931 19.9825C20.4284 19.6943 20.1148 19.5241 19.7834 19.543C19.452 19.562 19.1599 19.7668 19.0291 20.0719L17.7337 23.0946C17.5958 23.4163 17.2794 23.6249 16.9294 23.6249H16.904C16.5539 23.6249 16.2376 23.4163 16.0997 23.0946L14.8043 20.0719Z" fill="#18202A"/>
</g>
<defs>
<clipPath id="clip0_3444_9140">
<rect width="28" height="28" fill="white"/>
</clipPath>
</defs>
</svg>
