<svg width="28" height="28" viewBox="0 0 28 28" fill="none" xmlns="http://www.w3.org/2000/svg">
<path fill-rule="evenodd" clip-rule="evenodd" d="M6.21299 25.1259C4.62493 24.7594 3.5 23.3453 3.5 21.7155V4.6665C3.5 2.73351 5.067 1.1665 7 1.1665H21C22.933 1.1665 24.5 2.73351 24.5 4.6665V20.9998C24.5 22.9328 22.933 24.4998 21 24.4998H18.6667V25.0667C18.6667 26.5672 17.2708 27.6777 15.8087 27.3403L6.21299 25.1259ZM16.858 4.24912L13.6111 3.49984H21C21.6443 3.49984 22.1667 4.02217 22.1667 4.6665V20.9998C22.1667 21.6442 21.6443 22.1665 21 22.1665H18.6667V6.5227C18.6667 5.43617 17.9167 4.49344 16.858 4.24912ZM16.3333 15.7498C16.3333 16.7163 15.811 17.4998 15.1667 17.4998C14.5223 17.4998 14 16.7163 14 15.7498C14 14.7833 14.5223 13.9998 15.1667 13.9998C15.811 13.9998 16.3333 14.7833 16.3333 15.7498Z" fill="#18202A"/>
</svg>
