<svg width="28" height="28" viewBox="0 0 28 28" fill="none" xmlns="http://www.w3.org/2000/svg">
<g clip-path="url(#clip0_3725_8781)">
<path fill-rule="evenodd" clip-rule="evenodd" d="M10.5 11.2552C10.5 10.8383 10.838 10.5003 11.2549 10.5003H16.7451C17.162 10.5003 17.5 10.8383 17.5 11.2552V16.7454C17.5 17.1623 17.162 17.5003 16.7451 17.5003H11.2549C10.838 17.5003 10.5 17.1623 10.5 16.7454V11.2552ZM12.0098 12.0101V15.9905H15.9902V12.0101H12.0098Z" fill="#18202A"/>
<path fill-rule="evenodd" clip-rule="evenodd" d="M11.6929 2.04199C11.6929 1.55874 11.3011 1.16699 10.8179 1.16699C10.3346 1.16699 9.94289 1.55874 9.94289 2.04199V4.64079H7.63669C5.98193 4.64079 4.64048 5.98224 4.64048 7.637V9.91699H2.04169C1.55844 9.91699 1.16669 10.3087 1.16669 10.792C1.16669 11.2752 1.55844 11.667 2.04169 11.667H4.64048V15.167H2.04169C1.55844 15.167 1.16669 15.5587 1.16669 16.042C1.16669 16.5252 1.55844 16.917 2.04169 16.917H4.64048V20.3643C4.64048 22.019 5.98193 23.3605 7.63669 23.3605H9.94289V26.0057C9.94289 26.463 10.3346 26.8337 10.8179 26.8337C11.3011 26.8337 11.6929 26.463 11.6929 26.0057V23.3605H16.3071V26.0057C16.3071 26.463 16.6989 26.8337 17.1821 26.8337C17.6654 26.8337 18.0571 26.463 18.0571 26.0057V23.3605H20.364C22.0187 23.3605 23.3602 22.019 23.3602 20.3643V16.917H26.0054C26.4627 16.917 26.8334 16.5252 26.8334 16.042C26.8334 15.5587 26.4627 15.167 26.0054 15.167H23.3602V11.667H26.0054C26.4627 11.667 26.8334 11.2752 26.8334 10.792C26.8334 10.3087 26.4627 9.91699 26.0054 9.91699H23.3602V7.637C23.3602 5.98224 22.0187 4.64079 20.364 4.64079H18.0571V2.04199C18.0571 1.55874 17.6654 1.16699 17.1821 1.16699C16.6989 1.16699 16.3071 1.55874 16.3071 2.04199V4.64079H11.6929V2.04199ZM7.63669 6.39079C6.94843 6.39079 6.39048 6.94874 6.39048 7.637V20.3643C6.39048 21.0525 6.94843 21.6105 7.63669 21.6105H20.364C21.0522 21.6105 21.6102 21.0525 21.6102 20.3643V7.637C21.6102 6.94874 21.0522 6.39079 20.364 6.39079H7.63669Z" fill="#18202A"/>
</g>
<defs>
<clipPath id="clip0_3725_8781">
<rect width="28" height="28" fill="white"/>
</clipPath>
</defs>
</svg>
