<svg width="28" height="28" viewBox="0 0 28 28" fill="none" xmlns="http://www.w3.org/2000/svg">
<path fill-rule="evenodd" clip-rule="evenodd" d="M14 3.5C13.3557 3.5 12.8333 4.02233 12.8333 4.66667C12.8333 5.311 13.3557 5.83333 14 5.83333H20.5168L14.925 11.425C14.4694 11.8807 14.4694 12.6193 14.925 13.075C15.3807 13.5306 16.1193 13.5306 16.575 13.075L22.1667 7.48325V14C22.1667 14.6443 22.689 15.1667 23.3333 15.1667C23.9777 15.1667 24.5 14.6443 24.5 14V4.66667C24.5 4.02233 23.9777 3.5 23.3333 3.5L14 3.5ZM14 24.5C14.6443 24.5 15.1667 23.9777 15.1667 23.3333C15.1667 22.689 14.6443 22.1667 14 22.1667H7.48325L13.075 16.575C13.5306 16.1193 13.5306 15.3807 13.075 14.925C12.6193 14.4694 11.8807 14.4694 11.425 14.925L5.83333 20.5167L5.83333 14C5.83333 13.3557 5.311 12.8333 4.66667 12.8333C4.02234 12.8333 3.5 13.3557 3.5 14V23.3333C3.5 23.9777 4.02233 24.5 4.66667 24.5H14Z" fill="#18202A"/>
</svg>
