<svg width="28" height="28" viewBox="0 0 28 28" fill="none" xmlns="http://www.w3.org/2000/svg">
<path d="M11.6666 3.20825C11.6666 3.6915 11.2749 4.08325 10.7916 4.08325H6.99998C5.38915 4.08325 4.08331 5.38909 4.08331 6.99992V20.9999C4.08331 22.6107 5.38915 23.9166 6.99998 23.9166H21C22.6108 23.9166 23.9166 22.6107 23.9166 20.9999V17.2083C23.9166 16.725 24.3084 16.3333 24.7916 16.3333C25.2749 16.3333 25.6666 16.725 25.6666 17.2083V20.9999C25.6666 23.5772 23.5773 25.6666 21 25.6666H6.99998C4.42265 25.6666 2.33331 23.5772 2.33331 20.9999V6.99992C2.33331 4.42259 4.42265 2.33325 6.99998 2.33325H10.7916C11.2749 2.33325 11.6666 2.725 11.6666 3.20825Z" fill="#18202A"/>
<path fill-rule="evenodd" clip-rule="evenodd" d="M16.3333 4.08325C15.8501 4.08325 15.4583 3.6915 15.4583 3.20825C15.4583 2.725 15.8501 2.33325 16.3333 2.33325H24.7916C25.2749 2.33325 25.6666 2.725 25.6666 3.20825V11.6666C25.6666 12.1498 25.2749 12.5416 24.7916 12.5416C24.3084 12.5416 23.9166 12.1498 23.9166 11.6666V5.32069L12.8687 16.3686C12.527 16.7103 11.973 16.7103 11.6313 16.3686C11.2896 16.0269 11.2896 15.4729 11.6313 15.1312L22.6792 4.08325H16.3333Z" fill="#18202A"/>
</svg>
