<svg width="28" height="28" viewBox="0 0 28 28" fill="none" xmlns="http://www.w3.org/2000/svg">
<g clip-path="url(#clip0_3289_16711)">
<g clip-path="url(#clip1_3289_16711)">
<path d="M11.0743 9.21015C10.6869 9.46839 10.5 9.78573 10.5 10.2082C10.5 10.8525 9.97769 11.3748 9.33336 11.3748C8.68903 11.3748 8.16669 10.8525 8.16669 10.2082C8.16669 8.88061 8.85482 7.88545 9.77996 7.2687C10.6705 6.67499 11.7853 6.4165 12.8334 6.4165C15.4517 6.4165 17.5 8.33155 17.5 10.7915C17.5 12.0821 16.7261 13.3215 16.0744 14.1859C15.5399 14.8948 14.9269 15.5493 14.5419 15.9603C14.4368 16.0725 14.3487 16.1666 14.2838 16.2387C13.8506 16.72 12.9011 17.7381 12.0311 18.6665H16.3334C16.9777 18.6665 17.5 19.1888 17.5 19.8332C17.5 20.4775 16.9777 20.9998 16.3334 20.9998H9.33336C8.8677 20.9998 8.44663 20.7229 8.26215 20.2954C8.07767 19.8678 8.16511 19.3715 8.48461 19.0327L8.9961 18.4897C9.30876 18.1574 9.73487 17.7042 10.1888 17.2201C11.1009 16.2472 12.1124 15.1634 12.5495 14.6777C12.6527 14.5631 12.7709 14.4367 12.8995 14.2992C13.2841 13.888 13.762 13.377 14.2112 12.7812C14.8393 11.9481 15.1667 11.2509 15.1667 10.7915C15.1667 9.75146 14.2983 8.74984 12.8334 8.74984C12.1314 8.74984 11.4962 8.92885 11.0743 9.21015Z" fill="#18202A"/>
<path d="M5.16154 6.52666C5.57149 6.71867 5.83336 7.1305 5.83336 7.58318V19.8332C5.83336 20.4775 5.31103 20.9999 4.6667 20.9999C4.02236 20.9999 3.50003 20.4775 3.50003 19.8332V10.0741L1.91358 11.3961C1.41859 11.8086 0.682929 11.7417 0.270438 11.2467C-0.142054 10.7517 -0.0751756 10.0161 0.419814 9.60359L3.91981 6.68693C4.26758 6.39712 4.7516 6.33465 5.16154 6.52666Z" fill="#18202A"/>
<path d="M21.5742 9.21015C21.1869 9.46839 21 9.78573 21 10.2082C21 10.8525 20.4777 11.3748 19.8333 11.3748C19.189 11.3748 18.6667 10.8525 18.6667 10.2082C18.6667 8.88061 19.3548 7.88545 20.2799 7.2687C21.1705 6.67499 22.2853 6.4165 23.3333 6.4165C24.5688 6.4165 25.7225 6.76972 26.5906 7.48467C27.4769 8.21452 28 9.27281 28 10.4998C28 11.9042 27.4266 12.9815 26.5324 13.7082C27.4266 14.435 28 15.5122 28 16.9166C28 17.874 27.7316 18.6704 27.2633 19.2994C26.8049 19.9152 26.2088 20.2991 25.6579 20.5386C24.596 21.0002 23.5254 21 23.3387 20.9999H23.3333C22.4819 20.9999 21.3824 20.8347 20.4519 20.296C19.4579 19.7205 18.6667 18.7093 18.6667 17.2082C18.6667 16.5638 19.189 16.0415 19.8333 16.0415C20.4777 16.0415 21 16.5638 21 17.2082C21 17.7487 21.2296 18.0501 21.621 18.2767C22.0759 18.54 22.7264 18.6666 23.3333 18.6666C23.4543 18.6666 24.1229 18.6616 24.7275 18.3987C25.0152 18.2737 25.2394 18.1106 25.3917 17.9061C25.5341 17.7148 25.6667 17.4175 25.6667 16.9166C25.6667 16.1525 25.3618 15.7092 24.9101 15.4081C24.3996 15.0678 23.6308 14.8749 22.75 14.8749C22.1057 14.8749 21.5833 14.3526 21.5833 13.7082C21.5833 13.0639 22.1057 12.5416 22.75 12.5416C23.6308 12.5416 24.3996 12.3487 24.9101 12.0083C25.3618 11.7072 25.6667 11.2639 25.6667 10.4998C25.6667 9.97687 25.4606 9.57682 25.1073 9.28584C24.7359 8.97996 24.1396 8.74984 23.3333 8.74984C22.6314 8.74984 21.9962 8.92885 21.5742 9.21015Z" fill="#18202A"/>
</g>
</g>
<defs>
<clipPath id="clip0_3289_16711">
<rect width="28" height="28" fill="white"/>
</clipPath>
<clipPath id="clip1_3289_16711">
<rect width="28" height="28" fill="white"/>
</clipPath>
</defs>
</svg>
