<svg width="28" height="28" viewBox="0 0 28 28" fill="none" xmlns="http://www.w3.org/2000/svg">
<path d="M17.2584 4.90837C16.8028 4.45276 16.8028 3.71407 17.2584 3.25846C17.714 2.80285 18.4527 2.80285 18.9083 3.25846L24.1583 8.50846C24.6139 8.96407 24.6139 9.70276 24.1583 10.1584L18.9083 15.4084C18.4527 15.864 17.714 15.864 17.2584 15.4084C16.8028 14.9528 16.8028 14.2141 17.2584 13.7585L20.5168 10.5001H11.0833C8.18384 10.5001 5.83333 12.8506 5.83333 15.7501C5.83333 18.6496 8.18384 21.0001 11.0833 21.0001H18.6667C19.311 21.0001 19.8333 21.5224 19.8333 22.1668C19.8333 22.8111 19.311 23.3334 18.6667 23.3334H11.0833C6.89518 23.3334 3.5 19.9382 3.5 15.7501C3.5 11.5619 6.89518 8.16675 11.0833 8.16675H20.5168L17.2584 4.90837Z" fill="#18202A"/>
</svg>
