<svg width="28" height="28" viewBox="0 0 28 28" fill="none" xmlns="http://www.w3.org/2000/svg">
<path d="M8.16668 4.0835H12.8333C15.0885 4.0835 16.9167 5.91167 16.9167 8.16683V9.3335C16.9167 9.81674 17.3084 10.2085 17.7917 10.2085C18.2749 10.2085 18.6667 9.81674 18.6667 9.3335V8.16683C18.6667 4.94517 16.055 2.3335 12.8333 2.3335H8.16668C4.94502 2.3335 2.33334 4.94517 2.33334 8.16683V19.8335C2.33334 23.0552 4.94502 25.6668 8.16668 25.6668H12.8333C16.055 25.6668 18.6667 23.0552 18.6667 19.8335V18.7835C18.6667 18.3002 18.2749 17.9085 17.7917 17.9085C17.3084 17.9085 16.9167 18.3002 16.9167 18.7835V19.8335C16.9167 22.0887 15.0885 23.9168 12.8333 23.9168H8.16668C5.91151 23.9168 4.08334 22.0887 4.08334 19.8335V8.16683C4.08334 5.91167 5.91151 4.0835 8.16668 4.0835Z" fill="#18202A"/>
<path fill-rule="evenodd" clip-rule="evenodd" d="M20.3813 9.88144C20.723 9.53974 21.277 9.53974 21.6187 9.88144L25.1187 13.3814C25.4604 13.7232 25.4604 14.2772 25.1187 14.6189L21.6187 18.1189C21.277 18.4606 20.723 18.4606 20.3813 18.1189C20.0396 17.7772 20.0396 17.2232 20.3813 16.8814L22.3876 14.8752H10.5C10.0168 14.8752 9.62501 14.4834 9.62501 14.0002C9.62501 13.5169 10.0168 13.1252 10.5 13.1252H22.3876L20.3813 11.1189C20.0396 10.7772 20.0396 10.2232 20.3813 9.88144Z" fill="#18202A"/>
</svg>
