<svg width="28" height="28" viewBox="0 0 28 28" fill="none" xmlns="http://www.w3.org/2000/svg">
<path d="M7 3.5H5.83334C3.90034 3.5 2.33334 5.067 2.33334 7V8.16667C2.33334 10.0997 3.90034 11.6667 5.83334 11.6667H7C8.933 11.6667 10.5 10.0997 10.5 8.16667V7C10.5 5.067 8.933 3.5 7 3.5Z" fill="#18202A"/>
<path d="M7 16.3333H5.83334C3.90034 16.3333 2.33334 17.9003 2.33334 19.8333V21C2.33334 22.933 3.90034 24.5 5.83334 24.5H7C8.933 24.5 10.5 22.933 10.5 21V19.8333C10.5 17.9003 8.933 16.3333 7 16.3333Z" fill="#18202A"/>
<path fill-rule="evenodd" clip-rule="evenodd" d="M12.8333 5.83333C12.8333 5.189 13.3557 4.66667 14 4.66667H24.5C25.1443 4.66667 25.6667 5.189 25.6667 5.83333C25.6667 6.47767 25.1443 7 24.5 7H14C13.3557 7 12.8333 6.47767 12.8333 5.83333Z" fill="#18202A"/>
<path fill-rule="evenodd" clip-rule="evenodd" d="M12.8333 9.33333C12.8333 8.689 13.3557 8.16667 14 8.16667H24.5C25.1443 8.16667 25.6667 8.689 25.6667 9.33333C25.6667 9.97767 25.1443 10.5 24.5 10.5H14C13.3557 10.5 12.8333 9.97767 12.8333 9.33333Z" fill="#18202A"/>
<path fill-rule="evenodd" clip-rule="evenodd" d="M12.8333 18.6667C12.8333 18.0223 13.3557 17.5 14 17.5H24.5C25.1443 17.5 25.6667 18.0223 25.6667 18.6667C25.6667 19.311 25.1443 19.8333 24.5 19.8333H14C13.3557 19.8333 12.8333 19.311 12.8333 18.6667Z" fill="#18202A"/>
<path fill-rule="evenodd" clip-rule="evenodd" d="M12.8333 22.1667C12.8333 21.5223 13.3557 21 14 21H24.5C25.1443 21 25.6667 21.5223 25.6667 22.1667C25.6667 22.811 25.1443 23.3333 24.5 23.3333H14C13.3557 23.3333 12.8333 22.811 12.8333 22.1667Z" fill="#18202A"/>
</svg>
