<svg width="28" height="28" viewBox="0 0 28 28" fill="none" xmlns="http://www.w3.org/2000/svg">
<path d="M9.33333 4.375C6.59492 4.375 4.375 6.59492 4.375 9.33333C4.375 11.3652 5.59731 13.1135 7.35033 13.8795C7.79315 14.073 7.99529 14.5888 7.80181 15.0316C7.60833 15.4744 7.0925 15.6766 6.64967 15.4831C4.28225 14.4487 2.625 12.0855 2.625 9.33333C2.625 5.62842 5.62842 2.625 9.33333 2.625C12.0855 2.625 14.4487 4.28225 15.4831 6.64968C15.6766 7.0925 15.4744 7.60833 15.0316 7.80181C14.5888 7.99529 14.073 7.79315 13.8795 7.35033C13.1135 5.59731 11.3652 4.375 9.33333 4.375Z" fill="#18202A"/>
<path fill-rule="evenodd" clip-rule="evenodd" d="M8.51422 10.3461C8.15541 9.21838 9.21838 8.15541 10.3461 8.51422L21.4781 12.0562C22.6434 12.427 22.8623 13.981 21.8449 14.6593L19.7338 16.0667L23.7905 20.1233C24.36 20.6928 24.36 21.6162 23.7905 22.1857L22.1857 23.7905C21.6162 24.36 20.6928 24.36 20.1233 23.7905L16.0667 19.7338L14.6593 21.8449C13.981 22.8623 12.427 22.6434 12.0562 21.4781L8.51422 10.3461ZM10.3528 10.3528L13.5399 20.3692L15.2027 17.875C15.3481 17.6569 15.5836 17.5155 15.8445 17.4896C16.1053 17.4638 16.364 17.5563 16.5494 17.7417L21.1545 22.3468L22.3468 21.1545L17.7417 16.5494C17.5563 16.364 17.4638 16.1053 17.4896 15.8445C17.5155 15.5836 17.6569 15.3481 17.875 15.2027L20.3692 13.5399L10.3528 10.3528Z" fill="#18202A"/>
</svg>
