<svg width="28" height="28" viewBox="0 0 28 28" fill="none" xmlns="http://www.w3.org/2000/svg">
<path d="M13.9711 8.16654C18.5795 8.15822 23.0593 9.68537 26.703 12.5069C27.0779 12.7909 27.3872 13.1523 27.6098 13.5665C27.8325 13.9808 27.9633 14.4382 27.9933 14.9075C28.0233 15.3769 27.9519 15.8471 27.7838 16.2864C27.6437 16.6524 27.4393 16.9897 27.1808 17.2827L27.0193 17.4529L24.7045 19.7678C24.161 20.3273 23.4357 20.6743 22.659 20.7465C21.8824 20.8186 21.1055 20.6111 20.4683 20.1613C20.2677 20.007 20.0594 19.8604 19.851 19.7292C19.43 19.4638 18.9917 19.2267 18.5393 19.0193C18.0511 18.7916 17.6644 18.3913 17.4536 17.8956C17.2691 17.4619 17.2307 16.9818 17.3409 16.5272L17.3973 16.3341L17.5053 15.794C16.3357 15.4604 15.1258 15.2891 13.9096 15.2847C12.8454 15.2886 11.7861 15.4203 10.7543 15.6765L10.3138 15.7939L10.4913 16.3109C10.6659 16.8206 10.6459 17.3768 10.4351 17.8724C10.2242 18.3682 9.83753 18.7684 9.34933 18.9961C9.00893 19.1496 8.67725 19.3214 8.3557 19.5108L7.71833 19.9038C7.61319 19.9722 7.51288 20.0455 7.42801 20.1304C6.80578 20.5634 6.05252 20.7671 5.29688 20.7066C4.62513 20.6528 3.98844 20.3933 3.47219 19.9665L3.28438 19.7987L0.969539 17.4838C0.640573 17.1578 0.384474 16.7658 0.218191 16.3335C0.0519848 15.9012 -0.0207013 15.4385 0.00507059 14.976C0.0468072 14.253 0.326859 13.5666 0.797862 13.0224L0.96187 12.8464L1.25508 12.5532C4.88847 9.7184 9.36267 8.17494 13.9711 8.16654ZM13.9743 9.91657C9.91713 9.92393 5.97358 11.2308 2.71879 13.6387L2.40567 13.8762L2.24215 14.0394L2.12112 14.1676C1.90147 14.4214 1.77155 14.7411 1.75236 15.0734C1.74037 15.2886 1.77419 15.5041 1.85155 15.7052C1.90959 15.8562 1.99116 15.9966 2.09532 16.1237L2.20698 16.2464L4.45033 18.4937L4.58726 18.6177C4.82801 18.8168 5.12454 18.9372 5.43671 18.9622C5.72964 18.9857 6.02188 18.9238 6.27876 18.7858L6.36533 18.7319L6.4671 18.6486L6.62357 18.5329L6.79998 18.4141L7.46761 18.0029C7.84394 17.7813 8.23197 17.5803 8.60961 17.4102C8.70626 17.3651 8.78286 17.2858 8.82465 17.1876C8.85598 17.1139 8.86604 17.0335 8.85466 16.9557L8.83613 16.8791L8.45553 15.7704C8.23586 15.1305 8.60481 14.4385 9.25857 14.2643L10.3325 13.9781C11.5006 13.688 12.6994 13.5391 13.916 13.5347C15.1205 13.5391 16.3193 13.6881 17.4868 13.9781L17.9852 14.111L18.5028 14.2586C19.0875 14.4254 19.4461 15.0132 19.3269 15.6094L19.1133 16.6773L19.0772 16.8245L19.0416 16.9396C19.0197 17.0299 19.0275 17.125 19.0639 17.2107C19.1057 17.309 19.1824 17.3883 19.2685 17.4285C19.7913 17.6681 20.2976 17.9421 20.7834 18.2483C21.0354 18.4069 21.2882 18.5841 21.4776 18.7317C21.7741 18.941 22.1357 19.0376 22.4972 19.004C22.807 18.9752 23.0993 18.8524 23.347 18.6425L23.467 18.5303L25.7496 16.2487L25.8687 16.1247C25.9892 15.9882 26.0843 15.8312 26.1494 15.661C26.2276 15.4565 26.2609 15.2377 26.2469 15.0192C26.2329 14.8007 26.172 14.5879 26.0684 14.3951C25.9648 14.2023 25.8208 14.034 25.6315 13.8905C22.4237 11.4065 18.5081 10.0182 14.4606 9.92191L13.9743 9.91657Z" fill="#18202A"/>
</svg>
