<svg width="28" height="28" viewBox="0 0 28 28" fill="none" xmlns="http://www.w3.org/2000/svg">
<path fill-rule="evenodd" clip-rule="evenodd" d="M3.8125 2.64551C4.26852 2.18949 5.05665 2.23827 5.57283 2.75445L24.0786 21.2602C24.5947 21.7764 24.6435 22.5645 24.1875 23.0205C23.7315 23.4765 22.9434 23.4277 22.4272 22.9116L3.92144 4.40583C3.40526 3.88965 3.35649 3.10153 3.8125 2.64551Z" fill="#18202A"/>
<path d="M18.8143 12.7028C19.7425 13.1239 20.6058 13.6629 21.385 14.3008C21.8836 14.7089 22.6189 14.7141 23.0745 14.2585C23.5301 13.8029 23.5331 13.06 23.0413 12.6436C20.9672 10.8875 18.3751 9.72422 15.5267 9.4153L18.8143 12.7028Z" fill="#18202A"/>
<path d="M14.488 11.6764L12.2526 9.441C9.49102 9.78483 6.97911 10.933 4.95866 12.6436C4.46691 13.06 4.46984 13.8029 4.92545 14.2585C5.38106 14.7141 6.1164 14.7089 6.61499 14.3008C8.62639 12.6543 11.1978 11.6663 14 11.6663C14.1635 11.6663 14.3261 11.6697 14.488 11.6764Z" fill="#18202A"/>
<path d="M12.0517 5.94024C12.6914 5.86939 13.3414 5.83301 14 5.83301C18.4129 5.83301 22.4443 7.4664 25.5227 10.1616C26.0075 10.586 26.7437 10.5893 27.1993 10.1337C27.6549 9.67807 27.6571 8.93654 27.1757 8.50833C23.6724 5.39249 19.0572 3.49967 14 3.49967C12.6341 3.49967 11.3004 3.63776 10.0122 3.90072L12.0517 5.94024Z" fill="#18202A"/>
<path d="M7.42656 4.61495L9.28667 6.47506C6.73392 7.18728 4.4165 8.46376 2.47731 10.1616C1.99253 10.586 1.25627 10.5893 0.80066 10.1337C0.345048 9.67807 0.34285 8.93655 0.824306 8.50834C2.73154 6.81203 4.96831 5.47821 7.42656 4.61495Z" fill="#18202A"/>
<path d="M18.894 16.7946C19.4095 17.1811 19.4054 17.9276 18.9497 18.3833C18.4941 18.8389 17.7602 18.827 17.2235 18.4705C16.3 17.857 15.1917 17.4997 14 17.4997C12.8083 17.4997 11.7 17.857 10.7765 18.4705C10.2398 18.827 9.50585 18.8389 9.05024 18.3833C8.59463 17.9276 8.59044 17.1811 9.10598 16.7946C10.4699 15.7721 12.1642 15.1663 14 15.1663C15.8358 15.1663 17.5301 15.7721 18.894 16.7946Z" fill="#18202A"/>
<path d="M16.3333 23.333C16.3333 24.6217 15.2887 25.6663 14 25.6663C12.7113 25.6663 11.6667 24.6217 11.6667 23.333C11.6667 22.0443 12.7113 20.9997 14 20.9997C15.2887 20.9997 16.3333 22.0443 16.3333 23.333Z" fill="#18202A"/>
</svg>
