<svg width="28" height="28" viewBox="0 0 28 28" fill="none" xmlns="http://www.w3.org/2000/svg">
<path d="M7 5.83333C7 7.122 8.04467 8.16667 9.33333 8.16667C10.622 8.16667 11.6667 7.122 11.6667 5.83333C11.6667 4.54467 10.622 3.5 9.33333 3.5C8.04467 3.5 7 4.54467 7 5.83333Z" fill="#18202A"/>
<path d="M16.3333 5.83333C16.3333 7.122 17.378 8.16667 18.6667 8.16667C19.9553 8.16667 21 7.122 21 5.83333C21 4.54467 19.9553 3.5 18.6667 3.5C17.378 3.5 16.3333 4.54467 16.3333 5.83333Z" fill="#18202A"/>
<path d="M9.33333 16.3333C8.04467 16.3333 7 15.2887 7 14C7 12.7113 8.04467 11.6667 9.33333 11.6667C10.622 11.6667 11.6667 12.7113 11.6667 14C11.6667 15.2887 10.622 16.3333 9.33333 16.3333Z" fill="#18202A"/>
<path d="M18.6667 16.3333C17.378 16.3333 16.3333 15.2887 16.3333 14C16.3333 12.7113 17.378 11.6667 18.6667 11.6667C19.9553 11.6667 21 12.7113 21 14C21 15.2887 19.9553 16.3333 18.6667 16.3333Z" fill="#18202A"/>
<path d="M18.6667 24.5C17.378 24.5 16.3333 23.4553 16.3333 22.1667C16.3333 20.878 17.378 19.8333 18.6667 19.8333C19.9553 19.8333 21 20.878 21 22.1667C21 23.4553 19.9553 24.5 18.6667 24.5Z" fill="#18202A"/>
<path d="M9.33333 24.5C8.04467 24.5 7 23.4553 7 22.1667C7 20.878 8.04467 19.8333 9.33333 19.8333C10.622 19.8333 11.6667 20.878 11.6667 22.1667C11.6667 23.4553 10.622 24.5 9.33333 24.5Z" fill="#18202A"/>
</svg>
