<svg width="28" height="28" viewBox="0 0 28 28" fill="none" xmlns="http://www.w3.org/2000/svg">
<path d="M3.75785 2.59085C4.10164 2.24706 4.65903 2.24706 5.00282 2.59085L24.2422 21.8302C24.5859 22.174 24.5859 22.7314 24.2422 23.0752C23.8984 23.419 23.341 23.419 22.9972 23.0752L3.75785 3.83583C3.41405 3.49204 3.41405 2.93464 3.75785 2.59085Z" fill="#18202A"/>
<path d="M7.13152 4.72122C4.69626 5.62023 2.48589 6.98355 0.607807 8.70376C0.251449 9.03016 0.252724 9.58574 0.594433 9.92745C0.936142 10.2692 1.48878 10.2674 1.84652 9.94254C3.74353 8.21975 6.00814 6.89453 8.50878 6.09847L7.13152 4.72122Z" fill="#18202A"/>
<path d="M11.8998 9.48949C9.1765 9.89918 6.71011 11.0933 4.73804 12.8344C4.37578 13.1542 4.37751 13.7105 4.71922 14.0522C5.06093 14.3939 5.61302 14.3913 5.97811 14.0747C8.01073 12.312 10.6296 11.2075 13.5032 11.0929L11.8998 9.48949Z" fill="#18202A"/>
<path d="M16.1576 11.2724L14.2199 9.3347C17.6851 9.38805 20.8448 10.7003 23.262 12.8344C23.6242 13.1542 23.6225 13.7105 23.2808 14.0522C22.9391 14.3939 22.387 14.3913 22.0219 14.0747C20.3884 12.6581 18.3762 11.6666 16.1576 11.2724Z" fill="#18202A"/>
<path d="M10.4777 5.59252L9.01625 4.13107C10.6087 3.71894 12.2787 3.49967 14 3.49967C19.1621 3.49967 23.8636 5.47181 27.3922 8.70375C27.7486 9.03016 27.7473 9.58573 27.4056 9.92744C27.0639 10.2691 26.5112 10.2674 26.1535 9.94254C22.9427 7.02665 18.6789 5.24967 14 5.24967C12.7947 5.24967 11.617 5.36759 10.4777 5.59252Z" fill="#18202A"/>
<path d="M19.156 18.177C19.4977 17.8353 19.5003 17.2771 19.1242 16.9737C17.723 15.8432 15.9406 15.1663 14 15.1663C12.0594 15.1663 10.277 15.8432 8.87577 16.9737C8.49966 17.2771 8.50231 17.8353 8.84401 18.177C9.18572 18.5187 9.73667 18.5132 10.1214 18.2208C11.1987 17.4022 12.5426 16.9163 14 16.9163C15.4574 16.9163 16.8013 17.4022 17.8786 18.2208C18.2633 18.5132 18.8143 18.5187 19.156 18.177Z" fill="#18202A"/>
<path d="M16.3333 23.333C16.3333 24.6217 15.2887 25.6663 14 25.6663C12.7113 25.6663 11.6667 24.6217 11.6667 23.333C11.6667 22.0443 12.7113 20.9997 14 20.9997C15.2887 20.9997 16.3333 22.0443 16.3333 23.333Z" fill="#18202A"/>
</svg>
