<svg width="28" height="28" viewBox="0 0 28 28" fill="none" xmlns="http://www.w3.org/2000/svg">
<path fill-rule="evenodd" clip-rule="evenodd" d="M17.6218 5.22388C17.9114 5.57984 18.3249 5.83366 18.7838 5.83366C19.671 5.83366 20.2814 4.94968 19.7803 4.21758C18.5193 2.37561 16.4008 1.16699 14 1.16699C10.134 1.16699 7 4.301 7 8.16699V9.33366C4.42267 9.33366 2.33334 11.423 2.33334 14.0003V22.167C2.33334 24.7443 4.42267 26.8337 7 26.8337H21C23.5773 26.8337 25.6667 24.7443 25.6667 22.167V14.0003C25.6667 11.423 23.5773 9.33366 21 9.33366L9.33334 9.33366V8.16699C9.33334 5.58966 11.4227 3.50033 14 3.50033C15.4615 3.50033 16.7661 4.17218 17.6218 5.22388ZM15.1667 18.3548C15.8641 17.9514 16.3333 17.1973 16.3333 16.3337C16.3333 15.045 15.2887 14.0003 14 14.0003C12.7113 14.0003 11.6667 15.045 11.6667 16.3337C11.6667 17.1973 12.1359 17.9514 12.8333 18.3548V21.0003C12.8333 21.6447 13.3557 22.167 14 22.167C14.6443 22.167 15.1667 21.6447 15.1667 21.0003V18.3548Z" fill="#18202A"/>
</svg>
