<svg width="28" height="28" viewBox="0 0 28 28" fill="none" xmlns="http://www.w3.org/2000/svg">
<path fill-rule="evenodd" clip-rule="evenodd" d="M23.8166 9.81691C24.1628 10.1631 24.389 10.6069 24.4683 11.0837H24.5V12.8337H23.465C23.2246 12.8617 22.9857 12.9055 22.75 12.9651V12.8337H12.8333V2.91699H8.16667C6.55584 2.91699 5.25 4.22283 5.25 5.83366V22.167C5.25 23.7778 6.55584 25.0837 8.16667 25.0837H12.8807C12.9882 25.6906 13.1973 26.283 13.508 26.8337H8.16667C5.58934 26.8337 3.5 24.7443 3.5 22.167V5.83366C3.5 3.25633 5.58934 1.16699 8.16667 1.16699H14.5833V1.19866C15.0601 1.27802 15.5039 1.5042 15.8501 1.85041L23.8166 9.81691ZM14.5833 3.06048V11.0837H22.6065C22.5978 11.0736 22.5886 11.0638 22.5791 11.0543L14.6126 3.08785C14.6032 3.07836 14.5934 3.06924 14.5833 3.06048ZM26.7929 15.6566C25.3122 14.1759 22.9114 14.1759 21.4307 15.6566L19.7808 17.3065C19.4391 17.6482 19.4391 18.2023 19.7808 18.544C20.1225 18.8857 20.6765 18.8857 21.0182 18.544L22.6681 16.8941C23.4655 16.0967 24.7582 16.0967 25.5555 16.8941C26.3528 17.6914 26.3528 18.9841 25.5555 19.7814L23.9056 21.4313C23.5639 21.773 23.5639 22.327 23.9056 22.6688C24.2473 23.0105 24.8013 23.0105 25.143 22.6688L26.7929 21.0188C28.2737 19.5381 28.2737 17.1374 26.7929 15.6566ZM15.656 26.7935C14.1752 25.3128 14.1752 22.9121 15.656 21.4313L17.3059 19.7814C17.6476 19.4397 18.2016 19.4397 18.5433 19.7814C18.885 20.1231 18.885 20.6771 18.5433 21.0188L16.8934 22.6688C16.0961 23.4661 16.0961 24.7588 16.8934 25.5561C17.6907 26.3534 18.9835 26.3534 19.7808 25.5561L21.4307 23.9062C21.7724 23.5645 22.3264 23.5645 22.6681 23.9062C23.0098 24.2479 23.0098 24.8019 22.6681 25.1436L21.0182 26.7935C19.5375 28.2743 17.1367 28.2743 15.656 26.7935ZM23.2868 20.4001L20.3995 23.2875C20.0578 23.6292 19.5038 23.6292 19.1621 23.2875C18.8203 22.9458 18.8203 22.3917 19.1621 22.05L22.0494 19.1627C22.3911 18.821 22.9451 18.821 23.2868 19.1627C23.6286 19.5044 23.6286 20.0584 23.2868 20.4001Z" fill="#18202A"/>
</svg>
