<svg width="28" height="28" viewBox="0 0 28 28" fill="none" xmlns="http://www.w3.org/2000/svg">
<g clip-path="url(#clip0_3737_8821)">
<path fill-rule="evenodd" clip-rule="evenodd" d="M14 0C14.6443 0 15.1666 0.522334 15.1666 1.16667V2.38565C17.05 2.55537 18.8161 3.132 20.3763 4.02696L21.7282 2.67504C22.1838 2.21943 22.9225 2.21943 23.3781 2.67504C23.8337 3.13065 23.8337 3.86935 23.3781 4.32496L22.3133 5.38972C25.079 7.74366 26.8333 11.2503 26.8333 15.1667C26.8333 22.2543 21.0876 28 14 28C6.9123 28 1.16663 22.2543 1.16663 15.1667C1.16663 8.47228 6.29238 2.97508 12.8333 2.38565V1.16667C12.8333 0.522334 13.3556 0 14 0ZM14 5.83333C14.6443 5.83333 15.1666 6.35567 15.1666 7V14H21C21.6443 14 22.1666 14.5223 22.1666 15.1667C22.1666 15.811 21.6443 16.3333 21 16.3333H14C13.3556 16.3333 12.8333 15.811 12.8333 15.1667V7C12.8333 6.35567 13.3556 5.83333 14 5.83333Z" fill="#18202A"/>
</g>
<defs>
<clipPath id="clip0_3737_8821">
<rect width="28" height="28" fill="white"/>
</clipPath>
</defs>
</svg>
