<svg width="28" height="28" viewBox="0 0 28 28" fill="none" xmlns="http://www.w3.org/2000/svg">
<path fill-rule="evenodd" clip-rule="evenodd" d="M14 25.0833C7.87883 25.0833 2.91666 20.1211 2.91666 14C2.91666 7.8788 7.87883 2.91663 14 2.91663C20.1211 2.91663 25.0833 7.8788 25.0833 14C25.0833 20.1211 20.1211 25.0833 14 25.0833ZM14 26.8333C6.91234 26.8333 1.16666 21.0876 1.16666 14C1.16666 6.91231 6.91234 1.16663 14 1.16663C21.0876 1.16663 26.8333 6.91231 26.8333 14C26.8333 21.0876 21.0876 26.8333 14 26.8333Z" fill="#18202A"/>
<path fill-rule="evenodd" clip-rule="evenodd" d="M15.7854 8.71457C15.4437 8.37287 14.8896 8.37287 14.5479 8.71457L9.88127 13.3812C9.53956 13.7229 9.53956 14.277 9.88127 14.6187L14.5479 19.2853C14.8896 19.6271 15.4437 19.6271 15.7854 19.2853C16.1271 18.9436 16.1271 18.3896 15.7854 18.0479L11.7374 14L15.7854 9.95201C16.1271 9.6103 16.1271 9.05628 15.7854 8.71457Z" fill="#18202A"/>
</svg>
