<svg width="28" height="28" viewBox="0 0 28 28" fill="none" xmlns="http://www.w3.org/2000/svg">
<path fill-rule="evenodd" clip-rule="evenodd" d="M9.33333 2.91699H19.8333C21.4442 2.91699 22.75 4.22283 22.75 5.83366V22.167C22.75 23.7778 21.4442 25.0837 19.8333 25.0837H9.33333V2.91699ZM8.16667 2.91699C6.55584 2.91699 5.25 4.22283 5.25 5.83366V22.167C5.25 23.7778 6.55584 25.0837 8.16667 25.0837L8.16667 2.91699ZM3.5 5.83366C3.5 3.25633 5.58934 1.16699 8.16667 1.16699H19.8333C22.4107 1.16699 24.5 3.25633 24.5 5.83366V22.167C24.5 24.7443 22.4107 26.8337 19.8333 26.8337H8.16667C5.58934 26.8337 3.5 24.7443 3.5 22.167V5.83366ZM11.6667 6.70866C11.6667 6.22541 12.0584 5.83366 12.5417 5.83366H18.9583C19.4416 5.83366 19.8333 6.22541 19.8333 6.70866C19.8333 7.19191 19.4416 7.58366 18.9583 7.58366H12.5417C12.0584 7.58366 11.6667 7.19191 11.6667 6.70866ZM13.7083 9.33366C13.2251 9.33366 12.8333 9.72541 12.8333 10.2087C12.8333 10.6919 13.2251 11.0837 13.7083 11.0837H17.7917C18.2749 11.0837 18.6667 10.6919 18.6667 10.2087C18.6667 9.72541 18.2749 9.33366 17.7917 9.33366H13.7083Z" fill="#18202A"/>
</svg>
