<svg width="28" height="28" viewBox="0 0 28 28" fill="none" xmlns="http://www.w3.org/2000/svg">
<path d="M16.1625 8.70619C15.795 8.32273 15.1666 8.59431 15.1666 9.1366V11.1445C13.5839 11.1832 11.8873 11.5468 10.5551 12.6196C9.12643 13.7701 8.16664 15.6952 8.16664 18.7497C8.16664 18.887 8.25479 19.0073 8.38181 19.0434C8.50882 19.0794 8.64322 19.0222 8.70984 18.9037C9.49345 17.5106 10.1157 16.6625 11.0461 16.1418C11.942 15.6405 13.1613 15.422 15.1666 15.4032V17.4062C15.1666 17.9485 15.795 18.2201 16.1625 17.8366L20.125 13.7018C20.3528 13.4641 20.3528 13.0787 20.125 12.841L16.1625 8.70619Z" fill="#18202A"/>
<path fill-rule="evenodd" clip-rule="evenodd" d="M1.16667 8.52669C1.16667 6.50965 2.73367 4.87451 4.66667 4.87451H23.3333C25.2663 4.87451 26.8333 6.50965 26.8333 8.52669V18.8698C26.8333 20.8868 25.2663 22.5219 23.3333 22.5219H27.125C27.6082 22.5219 28 22.9307 28 23.435C28 23.9392 27.6082 24.348 27.125 24.348H0.875C0.391751 24.348 0 23.9392 0 23.435C0 22.9307 0.391751 22.5219 0.875 22.5219H4.66667C2.73367 22.5219 1.16667 20.8868 1.16667 18.8698V8.52669ZM2.91667 8.52669C2.91667 7.51817 3.70017 6.7006 4.66667 6.7006H23.3333C24.2998 6.7006 25.0833 7.51817 25.0833 8.52669V18.8698C25.0833 19.8783 24.2998 20.6958 23.3333 20.6958H4.66667C3.70017 20.6958 2.91667 19.8783 2.91667 18.8698V8.52669Z" fill="#18202A"/>
</svg>
