<svg width="28" height="28" viewBox="0 0 28 28" fill="none" xmlns="http://www.w3.org/2000/svg">
<path d="M17.5 13.9998C17.5 15.9328 15.933 17.4998 14 17.4998C12.067 17.4998 10.5 15.9328 10.5 13.9998C10.5 12.0668 12.067 10.4998 14 10.4998C15.933 10.4998 17.5 12.0668 17.5 13.9998Z" fill="#18202A"/>
<path fill-rule="evenodd" clip-rule="evenodd" d="M14 26.8332C21.0877 26.8332 26.8334 21.0875 26.8334 13.9998C26.8334 6.91218 21.0877 1.1665 14 1.1665C6.91237 1.1665 1.16669 6.91218 1.16669 13.9998C1.16669 21.0875 6.91237 26.8332 14 26.8332ZM14 25.0832C20.1212 25.0832 25.0834 20.121 25.0834 13.9998C25.0834 7.87868 20.1212 2.9165 14 2.9165C7.87886 2.9165 2.91669 7.87868 2.91669 13.9998C2.91669 20.121 7.87886 25.0832 14 25.0832Z" fill="#18202A"/>
</svg>
