<svg width="28" height="28" viewBox="0 0 28 28" fill="none" xmlns="http://www.w3.org/2000/svg">
<g clip-path="url(#clip0_2294_13774)">
<path fill-rule="evenodd" clip-rule="evenodd" d="M18.6667 6.27116C18.6667 9.91699 17.1111 12.8337 14 12.8337C10.8889 12.8337 9.33334 9.91699 9.33334 6.27116C9.33334 3.35449 10.8889 1.16699 14 1.16699C17.1111 1.16699 18.6667 3.35449 18.6667 6.27116ZM16.9167 6.27116C16.9167 7.87895 16.5686 9.14943 16.037 9.95928C15.5525 10.6974 14.913 11.0837 14 11.0837C13.087 11.0837 12.4475 10.6974 11.963 9.95928C11.4314 9.14943 11.0833 7.87895 11.0833 6.27116C11.0833 5.10468 11.3949 4.2726 11.8312 3.76128C12.2338 3.28949 12.887 2.91699 14 2.91699C15.113 2.91699 15.7662 3.28949 16.1688 3.76128C16.6051 4.2726 16.9167 5.10468 16.9167 6.27116ZM13.18 25.0665C13.486 25.6979 13.8611 26.2895 14.2954 26.8316C14.1971 26.833 14.0986 26.8337 14 26.8337C12.1947 26.8337 10.4426 26.6059 8.77091 26.1774C7.34869 25.813 6.14331 24.8603 5.48317 23.5489C5.28748 23.1602 5.10498 22.7637 4.93626 22.36C4.21933 20.6446 4.50505 18.6377 5.83254 17.3361C7.93699 15.2727 10.8199 14.0003 14 14.0003C14.4485 14.0003 14.891 14.0256 15.3263 14.0749C14.7754 14.5729 14.2843 15.1357 13.8649 15.7512C11.2148 15.7866 8.81843 16.8593 7.05774 18.5857C6.30659 19.3222 6.07326 20.5423 6.55091 21.6851C6.70372 22.0508 6.86901 22.4099 7.04628 22.7621C7.47367 23.6111 8.26111 24.2402 9.20536 24.4822C10.4825 24.8095 11.812 25.0093 13.18 25.0665ZM20.7347 14.0003C20.2522 14.0003 19.8385 14.3448 19.7512 14.8193L19.6101 15.5858C18.9101 15.8277 18.2717 16.2015 17.7245 16.6774L16.9869 16.4153C16.5323 16.2537 16.0272 16.4397 15.7859 16.8575L15.0436 18.1432C14.8024 18.561 14.8939 19.0915 15.2611 19.4044L15.8574 19.9124C15.7897 20.2646 15.7542 20.6283 15.7542 21.0003C15.7542 21.3723 15.7897 21.736 15.8574 22.0883L15.2612 22.5963C14.8939 22.9092 14.8024 23.4397 15.0437 23.8575L15.7859 25.1432C16.0272 25.561 16.5323 25.747 16.9869 25.5854L17.7245 25.3232C18.2717 25.7992 18.9101 26.173 19.6101 26.4149L19.7512 27.1814C19.8385 27.6559 20.2522 28.0003 20.7347 28.0003H22.2192C22.7017 28.0003 23.1154 27.6559 23.2027 27.1814L23.3432 26.4182C24.0459 26.1768 24.6867 25.8026 25.2359 25.3255L25.967 25.5854C26.4216 25.747 26.9268 25.561 27.168 25.1432L27.9103 23.8575C28.1515 23.4397 28.06 22.9092 27.6928 22.5963L27.1043 22.0949C27.1729 21.7406 27.2088 21.3747 27.2088 21.0003C27.2088 20.626 27.1729 20.2601 27.1043 19.9058L27.6928 19.4044C28.0601 19.0915 28.1515 18.561 27.9103 18.1432L27.168 16.8575C26.9268 16.4397 26.4216 16.2537 25.967 16.4153L25.2359 16.6752C24.6868 16.1981 24.0459 15.8238 23.3432 15.5824L23.2027 14.8193C23.1154 14.3448 22.7017 14.0003 22.2192 14.0003H20.7347ZM21.4762 23.3337C22.7649 23.3337 23.8095 22.289 23.8095 21.0003C23.8095 19.7117 22.7649 18.667 21.4762 18.667C20.1875 18.667 19.1429 19.7117 19.1429 21.0003C19.1429 22.289 20.1875 23.3337 21.4762 23.3337Z" fill="#18202A"/>
</g>
<defs>
<clipPath id="clip0_2294_13774">
<rect width="28" height="28" fill="white"/>
</clipPath>
</defs>
</svg>
