<svg width="28" height="28" viewBox="0 0 28 28" fill="none" xmlns="http://www.w3.org/2000/svg">
<path fill-rule="evenodd" clip-rule="evenodd" d="M16.8503 1.78717C14.0937 1.14387 11.2006 1.45199 8.64137 2.66141C6.08214 3.87084 4.00729 5.91044 2.7542 8.44858C1.50111 10.9867 1.14349 13.8741 1.73947 16.6413C2.33545 19.4085 3.84999 21.8926 6.03682 23.6899C8.22365 25.4872 10.9542 26.4918 13.7844 26.5405C16.6146 26.5891 19.378 25.679 21.6253 23.958C22.009 23.6641 22.0818 23.1149 21.788 22.7313C21.4942 22.3476 20.945 22.2748 20.5613 22.5686C18.6276 24.0494 16.2497 24.8326 13.8145 24.7907C11.3792 24.7489 9.02966 23.8844 7.14796 22.3379C5.26627 20.7914 3.96306 18.6539 3.45024 16.2728C2.93742 13.8918 3.24514 11.4073 4.32338 9.22329C5.40162 7.03931 7.18696 5.2843 9.38909 4.24363C11.5912 3.20297 14.0806 2.93784 16.4525 3.49138C18.8245 4.04491 20.9394 5.38455 22.4534 7.29246C23.9674 9.20035 24.7915 11.5644 24.7917 14V15.1666C24.7917 15.8628 24.5151 16.5305 24.0228 17.0227C23.5305 17.515 22.8629 17.7916 22.1667 17.7916C21.4705 17.7916 20.8028 17.515 20.3105 17.0227C19.8182 16.5305 19.5417 15.8628 19.5417 15.1666V9.33326C19.5417 8.85001 19.1499 8.45826 18.6667 8.45826C18.1834 8.45826 17.7917 8.85001 17.7917 9.33326V9.95848C16.8004 9.02811 15.4667 8.45827 14 8.45827C10.9394 8.45827 8.45831 10.9394 8.45831 13.9999C8.45831 17.0605 10.9394 19.5416 14 19.5416C15.7885 19.5416 17.3792 18.6943 18.3924 17.3792C18.5793 17.698 18.8073 17.9944 19.0731 18.2602C19.8935 19.0807 21.0063 19.5416 22.1667 19.5416C23.327 19.5416 24.4398 19.0807 25.2603 18.2602C26.0807 17.4397 26.5417 16.3269 26.5417 15.1666V13.9999C26.5415 11.1693 25.5838 8.42194 23.8242 6.20464C22.0647 3.98734 19.6068 2.43047 16.8503 1.78717ZM10.2083 13.9999C10.2083 11.9059 11.9059 10.2083 14 10.2083C16.0941 10.2083 17.7916 11.9059 17.7916 13.9999C17.7916 16.094 16.0941 17.7916 14 17.7916C11.9059 17.7916 10.2083 16.094 10.2083 13.9999Z" fill="#18202A"/>
</svg>
