<svg width="28" height="28" viewBox="0 0 28 28" fill="none" xmlns="http://www.w3.org/2000/svg">
<path fill-rule="evenodd" clip-rule="evenodd" d="M9.33334 4.66675V5.83342H3.5C2.85567 5.83342 2.33334 6.35575 2.33334 7.00008C2.33334 7.64441 2.85567 8.16675 3.5 8.16675H4.66667V19.8334C4.66667 23.6994 7.80068 26.8334 11.6667 26.8334H16.3333C20.1993 26.8334 23.3333 23.6994 23.3333 19.8334V8.16675H24.5C25.1443 8.16675 25.6667 7.64441 25.6667 7.00008C25.6667 6.35575 25.1443 5.83342 24.5 5.83342H18.6667V4.66675C18.6667 2.73375 17.0997 1.16675 15.1667 1.16675H12.8333C10.9003 1.16675 9.33334 2.73375 9.33334 4.66675ZM15.1667 3.50008H12.8333C12.189 3.50008 11.6667 4.02242 11.6667 4.66675V5.83342H16.3333V4.66675C16.3333 4.02242 15.811 3.50008 15.1667 3.50008ZM11.6667 11.6667C12.311 11.6667 12.8333 12.1891 12.8333 12.8334V19.8334C12.8333 20.4777 12.311 21.0001 11.6667 21.0001C11.0223 21.0001 10.5 20.4777 10.5 19.8334V12.8334C10.5 12.1891 11.0223 11.6667 11.6667 11.6667ZM17.5 12.8334C17.5 12.1891 16.9777 11.6667 16.3333 11.6667C15.689 11.6667 15.1667 12.1891 15.1667 12.8334V19.8334C15.1667 20.4777 15.689 21.0001 16.3333 21.0001C16.9777 21.0001 17.5 20.4777 17.5 19.8334V12.8334Z" fill="#18202A"/>
</svg>
