<svg width="28" height="28" viewBox="0 0 28 28" fill="none" xmlns="http://www.w3.org/2000/svg">
<path fill-rule="evenodd" clip-rule="evenodd" d="M22.5182 24.6653C23.147 23.9779 23.6457 23.162 23.9857 22.264C24.3258 21.3661 24.5005 20.4038 24.5 19.432V11.6667H24.4417C24.1714 10.3354 22.9944 9.33333 21.5833 9.33333C21.2186 9.33333 20.8695 9.40028 20.5477 9.52255C20.0304 8.70756 19.1201 8.16667 18.0833 8.16667C17.7186 8.16667 17.3695 8.23361 17.0477 8.35588C16.6301 7.69794 15.9563 7.21863 15.1667 7.05834C14.9782 7.02008 14.7831 7 14.5833 7C14.3836 7 14.1885 7.02008 14 7.05834V2.91667C14 1.30584 12.6942 0 11.0833 0C9.4725 0 8.16666 1.30584 8.16666 2.91667V11.6967C7.28652 11.8106 6.46152 12.2443 5.82847 12.9359C5.08458 13.7485 4.66666 14.8507 4.66666 16C4.66636 18.1139 5.27106 20.1749 6.39613 21.8948L7.85057 24.112C8.40063 24.953 9.12635 25.6387 9.96753 26.1119C10.8087 26.5852 11.7411 26.8325 12.6873 26.8333H17.7289C18.6184 26.8333 19.4992 26.6419 20.321 26.2699C21.1428 25.8979 21.8894 25.3526 22.5182 24.6653ZM11.6667 12.8333C11.6667 13.4777 12.189 14 12.8333 14C13.4777 14 14 13.4777 14 12.8333V9.43926L14.4642 9.34504C14.5007 9.33762 14.5403 9.33333 14.5833 9.33333C14.7882 9.33333 14.9704 9.43719 15.0776 9.60621L15.1667 9.74649V12.8333C15.1667 13.4777 15.689 14 16.3333 14C16.9777 14 17.5 13.4777 17.5 12.8333V10.6801L17.8764 10.5371C17.9376 10.5138 18.0061 10.5 18.0833 10.5C18.2882 10.5 18.4704 10.6039 18.5776 10.7729L18.6667 10.9132V12.8333C18.6667 13.4777 19.189 14 19.8333 14C20.4777 14 21 13.4777 21 12.8333V11.8468L21.3764 11.7038C21.4376 11.6805 21.5061 11.6667 21.5833 11.6667C21.8628 11.6667 22.1011 11.8656 22.155 12.1308L22.1667 12.1885V19.4333C22.167 20.1257 22.0423 20.8074 21.8036 21.4377C21.565 22.0678 21.2197 22.6278 20.7966 23.0903C20.3739 23.5524 19.8832 23.9067 19.3587 24.1442C18.8349 24.3813 18.2818 24.5 17.7289 24.5H12.6892C12.1515 24.4995 11.6115 24.3596 11.1117 24.0784C10.6105 23.7964 10.1572 23.3759 9.80336 22.8349L8.34877 20.6174L8.34809 20.6164C7.47932 19.2879 6.99976 17.6736 7 16.0003C7 15.4066 7.2178 14.8738 7.5496 14.5114C7.82734 14.2079 8.15601 14.0509 8.46608 14.0108L10.5 13.7476V2.91667C10.5 2.5945 10.7612 2.33333 11.0833 2.33333C11.4055 2.33333 11.6667 2.5945 11.6667 2.91667V12.8333Z" fill="#18202A"/>
</svg>
