<svg width="28" height="28" viewBox="0 0 28 28" fill="none" xmlns="http://www.w3.org/2000/svg">
<path fill-rule="evenodd" clip-rule="evenodd" d="M4.90827 3.25846C4.45266 2.80285 3.71397 2.80285 3.25836 3.25846C2.80275 3.71407 2.80275 4.45276 3.25836 4.90837L6.17547 7.82549C4.03477 9.55889 2.42448 11.6033 1.54275 12.8502C1.05146 13.545 1.05146 14.4552 1.54275 15.15C3.30712 17.6451 7.98872 23.3334 14 23.3334C16.1602 23.3334 18.1487 22.5988 19.8918 21.5418L23.0917 24.7417C23.5473 25.1973 24.286 25.1973 24.7416 24.7417C25.1972 24.2861 25.1972 23.5474 24.7416 23.0918L21.8245 20.1747L21.8255 20.1739L18.0212 16.3696L18.0205 16.3707L16.2543 14.6045L16.2547 14.603L13.397 11.7454L13.3956 11.7458L11.6294 9.97954L11.6305 9.97886L8.1093 6.45766L8.10817 6.45835L4.90827 3.25846ZM9.97944 11.6295C9.5689 12.3242 9.33332 13.1346 9.33332 14.0001C9.33332 16.5774 11.4227 18.6667 14 18.6667C14.8654 18.6667 15.6758 18.4312 16.3706 18.0206L14.6044 16.2544C14.4116 16.3059 14.209 16.3334 14 16.3334C12.7113 16.3334 11.6666 15.2887 11.6666 14.0001C11.6666 13.7911 11.6941 13.5885 11.7457 13.3957L9.97944 11.6295Z" fill="#18202A"/>
<path d="M14.294 9.34253C16.6371 9.48819 18.5119 11.3629 18.6575 13.7061L23.5574 18.606C24.8426 17.3165 25.8327 16.0332 26.4572 15.15C26.9485 14.4552 26.9485 13.545 26.4572 12.8502C24.6928 10.3551 20.0112 4.66675 14 4.66675C12.7064 4.66675 11.4745 4.93014 10.3199 5.36844L14.294 9.34253Z" fill="#18202A"/>
</svg>
