<svg width="28" height="28" viewBox="0 0 28 28" fill="none" xmlns="http://www.w3.org/2000/svg">
<path fill-rule="evenodd" clip-rule="evenodd" d="M3.5 6.99967C3.5 4.42235 5.58934 2.33301 8.16667 2.33301H19.8333C22.4107 2.33301 24.5 4.42235 24.5 6.99967V20.9997C24.5 23.577 22.4107 25.6663 19.8333 25.6663H8.16667C5.58934 25.6663 3.5 23.577 3.5 20.9997V6.99967ZM10.5 23.333V18.6669C10.5 17.3782 11.5447 16.3336 12.8333 16.3336H15.1667C16.4553 16.3336 17.5 17.3782 17.5 18.6669V23.333H10.5ZM8.16667 8.16634C8.16667 7.52201 8.689 6.99967 9.33333 6.99967C9.97767 6.99967 10.5 7.52201 10.5 8.16634C10.5 8.81067 9.97767 9.33301 9.33333 9.33301C8.689 9.33301 8.16667 8.81067 8.16667 8.16634ZM9.33333 10.4997C8.689 10.4997 8.16667 11.022 8.16667 11.6663C8.16667 12.3107 8.689 12.833 9.33333 12.833C9.97767 12.833 10.5 12.3107 10.5 11.6663C10.5 11.022 9.97767 10.4997 9.33333 10.4997ZM12.8333 8.16634C12.8333 7.52201 13.3557 6.99967 14 6.99967C14.6443 6.99967 15.1667 7.52201 15.1667 8.16634C15.1667 8.81067 14.6443 9.33301 14 9.33301C13.3557 9.33301 12.8333 8.81067 12.8333 8.16634ZM14 10.4997C13.3557 10.4997 12.8333 11.022 12.8333 11.6663C12.8333 12.3107 13.3557 12.833 14 12.833C14.6443 12.833 15.1667 12.3107 15.1667 11.6663C15.1667 11.022 14.6443 10.4997 14 10.4997ZM17.5 8.16634C17.5 7.52201 18.0223 6.99967 18.6667 6.99967C19.311 6.99967 19.8333 7.52201 19.8333 8.16634C19.8333 8.81067 19.311 9.33301 18.6667 9.33301C18.0223 9.33301 17.5 8.81067 17.5 8.16634ZM18.6667 10.4997C18.0223 10.4997 17.5 11.022 17.5 11.6663C17.5 12.3107 18.0223 12.833 18.6667 12.833C19.311 12.833 19.8333 12.3107 19.8333 11.6663C19.8333 11.022 19.311 10.4997 18.6667 10.4997Z" fill="#18202A"/>
</svg>
