<svg width="28" height="28" viewBox="0 0 28 28" fill="none" xmlns="http://www.w3.org/2000/svg">
<path fill-rule="evenodd" clip-rule="evenodd" d="M13.6526 6.53333C13.8277 6.73592 14.1732 6.73592 14.3474 6.53333C15.694 4.9695 17.674 3.5 19.7787 3.5C23.669 3.5 26.8333 6.54883 26.8333 10.2952C26.8333 12.4265 25.7031 14.0912 24.7552 15.1123C23.7731 16.1698 21.9873 18.1937 20.1328 20.2955C18.8058 21.7995 17.4433 23.3437 16.3144 24.6028C15.0482 26.0149 12.9517 26.0149 11.6856 24.6028C10.5565 23.3435 9.19381 21.7991 7.86661 20.2949C6.01214 18.1931 4.2269 16.1698 3.24474 15.1123C2.29691 14.0912 1.16666 12.4265 1.16666 10.2952C1.16666 6.54883 4.33099 3.5 8.22132 3.5C10.326 3.5 12.306 4.9695 13.6526 6.53333ZM23.4726 13.9218C24.2816 13.0502 25.0833 11.7941 25.0833 10.2952C25.0833 7.57641 22.7647 5.25 19.7787 5.25C18.443 5.25 16.9061 6.24379 15.6735 7.67522C14.7991 8.69108 13.1995 8.68535 12.3285 7.67764L12.3265 7.67523C11.0939 6.24379 9.557 5.25 8.22132 5.25C5.23526 5.25 2.91666 7.57641 2.91666 10.2952C2.91666 11.7939 3.71813 13.0498 4.52698 13.9214C5.51938 14.9899 7.33936 17.0524 9.21189 19.1744C10.5355 20.6744 11.8855 22.2043 12.9886 23.4346C13.5592 24.071 14.4408 24.071 15.0114 23.4346C16.1144 22.2044 17.4644 20.6745 18.7879 19.1746C20.6602 17.0528 22.4803 14.9902 23.4726 13.9218Z" fill="#18202A"/>
</svg>
