<svg width="28" height="28" viewBox="0 0 28 28" fill="none" xmlns="http://www.w3.org/2000/svg">
<path fill-rule="evenodd" clip-rule="evenodd" d="M14 26.5413C14.4832 26.5413 14.875 26.1496 14.875 25.6663V13.7788L16.8813 15.7851C17.223 16.1268 17.777 16.1268 18.1187 15.7851C18.4604 15.4434 18.4604 14.8893 18.1187 14.5476L14.6187 11.0476C14.4546 10.8835 14.2321 10.7913 14 10.7913C13.7679 10.7913 13.5454 10.8835 13.3813 11.0476L9.88128 14.5476C9.53957 14.8893 9.53957 15.4434 9.88128 15.7851C10.223 16.1268 10.777 16.1268 11.1187 15.7851L13.125 13.7788V25.6663C13.125 26.1496 13.5168 26.5413 14 26.5413Z" fill="#18202A"/>
<path d="M20.1534 8.67296L20.547 10.0014L21.9303 9.92302C22.0084 9.91859 22.0872 9.91634 22.1667 9.91634C24.4218 9.91634 26.25 11.7445 26.25 13.9997C26.25 16.2548 24.4218 18.083 22.1667 18.083H16.625V19.833H22.1667C25.3883 19.833 28 17.2213 28 13.9997C28 10.778 25.3883 8.16634 22.1667 8.16634C22.0541 8.16634 21.9423 8.16953 21.8313 8.17582C20.8304 4.79755 17.703 2.33301 14 2.33301C10.297 2.33301 7.16965 4.79755 6.16871 8.17582C6.05772 8.16953 5.9459 8.16634 5.83333 8.16634C2.61167 8.16634 0 10.778 0 13.9997C0 17.2213 2.61167 19.833 5.83333 19.833H11.375V18.083H5.83333C3.57817 18.083 1.75 16.2548 1.75 13.9997C1.75 11.7445 3.57817 9.91634 5.83333 9.91634C5.91283 9.91634 5.99162 9.91859 6.06967 9.92302L7.453 10.0014L7.84661 8.67296C8.63342 6.01739 11.0931 4.08301 14 4.08301C16.9069 4.08301 19.3666 6.01739 20.1534 8.67296Z" fill="#18202A"/>
</svg>
