<svg width="28" height="28" viewBox="0 0 28 28" fill="none" xmlns="http://www.w3.org/2000/svg">
<path fill-rule="evenodd" clip-rule="evenodd" d="M18.6667 6.27116C18.6667 9.91699 17.1111 12.8337 14 12.8337C10.8889 12.8337 9.33334 9.91699 9.33334 6.27116C9.33334 3.35449 10.8889 1.16699 14 1.16699C17.1111 1.16699 18.6667 3.35449 18.6667 6.27116ZM16.9167 6.27116C16.9167 7.87895 16.5686 9.14943 16.037 9.95928C15.5525 10.6974 14.913 11.0837 14 11.0837C13.087 11.0837 12.4475 10.6974 11.963 9.95928C11.4314 9.14943 11.0833 7.87895 11.0833 6.27116C11.0833 5.10468 11.3949 4.2726 11.8312 3.76128C12.2338 3.28949 12.887 2.91699 14 2.91699C15.113 2.91699 15.7662 3.28949 16.1688 3.76128C16.6051 4.2726 16.9167 5.10468 16.9167 6.27116Z" fill="#18202A"/>
<path fill-rule="evenodd" clip-rule="evenodd" d="M22.5168 23.5489C21.8567 24.8603 20.6513 25.813 19.2291 26.1774C17.5574 26.6059 15.8053 26.8337 14 26.8337C12.1947 26.8337 10.4426 26.6059 8.77091 26.1774C7.34869 25.813 6.14331 24.8603 5.48317 23.5489C5.28748 23.1602 5.10498 22.7637 4.93626 22.36C4.21933 20.6446 4.50505 18.6377 5.83254 17.3361C7.93699 15.2727 10.8199 14.0003 14 14.0003C17.1801 14.0003 20.063 15.2727 22.1675 17.3361C23.495 18.6377 23.7807 20.6446 23.0637 22.36C22.895 22.7637 22.7125 23.1602 22.5168 23.5489ZM18.7946 24.4822C17.2637 24.8746 15.6575 25.0837 14 25.0837C12.3425 25.0837 10.7363 24.8746 9.20536 24.4822C8.26111 24.2402 7.47367 23.6111 7.04628 22.7621C6.86901 22.4099 6.70372 22.0508 6.55091 21.6851C6.07326 20.5423 6.30659 19.3222 7.05774 18.5857C8.84831 16.83 11.2963 15.7503 14 15.7503C16.7037 15.7503 19.1517 16.83 20.9423 18.5856C21.6934 19.3222 21.9267 20.5423 21.4491 21.6851C21.2963 22.0507 21.131 22.4099 20.9537 22.7621C20.5263 23.6111 19.7389 24.2402 18.7946 24.4822Z" fill="#18202A"/>
</svg>
