<svg width="28" height="28" viewBox="0 0 28 28" fill="none" xmlns="http://www.w3.org/2000/svg">
<path fill-rule="evenodd" clip-rule="evenodd" d="M22.9886 2.39506C22.1579 1.63234 21.05 1.16675 19.8333 1.16675H8.16667C5.58934 1.16675 3.5 3.25609 3.5 5.83342V22.1667C3.5 24.7441 5.58934 26.8334 8.16667 26.8334H19.8333C22.4107 26.8334 24.5 24.7441 24.5 22.1667V10.7832L21.1415 14.1416C19.7747 15.5085 17.5586 15.5085 16.1918 14.1416L12.6918 10.6416C11.325 9.27479 11.325 7.05871 12.6918 5.69188C14.0586 4.32504 16.2747 4.32504 17.6415 5.69188L18.6667 6.717L22.9886 2.39506ZM7 16.3334C7 15.6891 7.52233 15.1667 8.16667 15.1667H12.8333C13.4777 15.1667 14 15.6891 14 16.3334C14 16.9777 13.4777 17.5001 12.8333 17.5001H8.16667C7.52233 17.5001 7 16.9777 7 16.3334ZM8.16667 19.8334C7.52233 19.8334 7 20.3558 7 21.0001C7 21.6444 7.52233 22.1667 8.16667 22.1667H19.8333C20.4777 22.1667 21 21.6444 21 21.0001C21 20.3558 20.4777 19.8334 19.8333 19.8334H8.16667ZM26.4916 5.49171C26.9472 5.03609 26.9472 4.2974 26.4916 3.84179C26.036 3.38618 25.2973 3.38618 24.8417 3.84179L18.6667 10.0168L15.9916 7.34179C15.536 6.88618 14.7973 6.88618 14.3417 7.34179C13.8861 7.7974 13.8861 8.5361 14.3417 8.99171L17.8417 12.4917C18.2973 12.9473 19.036 12.9473 19.4916 12.4917L26.4916 5.49171Z" fill="#18202A"/>
</svg>
