<svg width="28" height="28" viewBox="0 0 28 28" fill="none" xmlns="http://www.w3.org/2000/svg">
<path d="M14 8.16667C12.7113 8.16667 11.6667 7.122 11.6667 5.83333C11.6667 4.54467 12.7113 3.5 14 3.5C15.2887 3.5 16.3333 4.54467 16.3333 5.83333C16.3333 7.122 15.2887 8.16667 14 8.16667Z" fill="#18202A"/>
<path d="M14 16.3333C12.7113 16.3333 11.6667 15.2887 11.6667 14C11.6667 12.7113 12.7113 11.6667 14 11.6667C15.2887 11.6667 16.3333 12.7113 16.3333 14C16.3333 15.2887 15.2887 16.3333 14 16.3333Z" fill="#18202A"/>
<path d="M14 24.5C12.7113 24.5 11.6667 23.4553 11.6667 22.1667C11.6667 20.878 12.7113 19.8333 14 19.8333C15.2887 19.8333 16.3333 20.878 16.3333 22.1667C16.3333 23.4553 15.2887 24.5 14 24.5Z" fill="#18202A"/>
</svg>
