<svg width="28" height="28" viewBox="0 0 28 28" fill="none" xmlns="http://www.w3.org/2000/svg">
<g clip-path="url(#clip0_2294_9969)">
<path d="M24.7371 19.269L24.5726 19.4256C24.1198 19.824 23.5563 20.068 22.9577 20.1236C22.2842 20.1861 21.6105 20.0062 21.0581 19.6161C20.8499 19.4554 20.6188 19.2935 20.3908 19.1499C19.9317 18.8606 19.4536 18.6018 18.9599 18.3755C18.5824 18.1994 18.2806 17.8871 18.1161 17.5002C17.9515 17.1133 17.9359 16.6793 18.0721 16.2816L18.2042 15.6468L18.3069 15.1332L17.8032 14.9895L17.3261 14.8623C16.2085 14.5847 15.061 14.4421 13.908 14.4378C12.5864 14.4427 11.2759 14.6283 10.0087 14.9895L9.433 15.1536L9.81205 16.2578L9.86111 16.4301C9.94069 16.7782 9.90906 17.1445 9.76804 17.4761C9.60345 17.863 9.30169 18.1753 8.92074 18.353C8.43028 18.5741 7.94998 18.834 7.49016 19.1278L7.2107 19.2997L7.00712 19.437C6.91539 19.5039 6.83479 19.5716 6.76004 19.6464C6.29759 19.9573 5.64444 20.1339 4.98931 20.0814C4.33392 20.029 3.71709 19.7507 3.24418 19.2941L0.842529 16.8925L0.678213 16.7152C0.469727 16.4705 0.304537 16.193 0.189192 15.8931C0.0450509 15.5182 -0.0179471 15.117 0.00439702 14.716C0.0445477 14.0205 0.339905 13.363 0.833984 12.8704L1.13969 12.5647L1.53194 12.2668C5.09269 9.62908 9.46861 8.17471 13.971 8.16654C18.6401 8.15808 23.1789 9.70536 26.8705 12.564C27.2004 12.8139 27.4686 13.1273 27.6617 13.4865C27.8548 13.8457 27.9682 14.2423 27.9942 14.6493C28.0202 15.0563 27.9583 15.4641 27.8125 15.845C27.6668 16.2259 27.4407 16.5709 27.1496 16.8566L24.7371 19.269Z" fill="#18202A"/>
</g>
<defs>
<clipPath id="clip0_2294_9969">
<rect width="28" height="28" fill="white"/>
</clipPath>
</defs>
</svg>
