<svg width="28" height="28" viewBox="0 0 28 28" fill="none" xmlns="http://www.w3.org/2000/svg">
<path d="M10.5 5.8335C10.5 3.9005 12.067 2.3335 14 2.3335C15.933 2.3335 17.5 3.9005 17.5 5.8335V12.8335C17.5 14.7665 15.933 16.3335 14 16.3335C12.067 16.3335 10.5 14.7665 10.5 12.8335V5.8335Z" fill="#18202A"/>
<path d="M7.00004 12.8335C6.35571 12.8335 5.82462 13.3588 5.91558 13.9967C6.42584 17.575 9.25556 20.4057 12.8333 20.9175V23.3335H9.91667C9.27233 23.3335 8.75 23.8558 8.75 24.5002C8.75 25.1445 9.27233 25.6668 9.91667 25.6668H18.0833C18.7277 25.6668 19.25 25.1445 19.25 24.5002C19.25 23.8558 18.7277 23.3335 18.0833 23.3335H15.1667V20.9175C18.7445 20.4057 21.5742 17.575 22.0845 13.9967C22.1755 13.3588 21.6444 12.8335 21 12.8335C20.3557 12.8335 19.8455 13.3611 19.7182 13.9927C19.1806 16.659 16.8248 18.6668 14 18.6668C11.1753 18.6668 8.81949 16.659 8.28189 13.9927C8.15453 13.3611 7.64437 12.8335 7.00004 12.8335Z" fill="#18202A"/>
</svg>
