<svg width="28" height="28" viewBox="0 0 28 28" fill="none" xmlns="http://www.w3.org/2000/svg">
<path fill-rule="evenodd" clip-rule="evenodd" d="M3.49998 10.1879C2.80254 9.78444 2.33331 9.03037 2.33331 8.16671V4.66671C2.33331 3.37804 3.37798 2.33337 4.66665 2.33337H23.3333C24.622 2.33337 25.6666 3.37804 25.6666 4.66671V8.16671C25.6666 9.03037 25.1974 9.78444 24.5 10.1879V14.9491C23.9421 14.7689 23.356 14.6516 22.75 14.6055V10.5H5.24998V22.1667C5.24998 23.7775 6.55582 25.0834 8.16665 25.0834H15.1645C15.4277 25.7144 15.7736 26.3023 16.1888 26.8334H8.16665C5.58932 26.8334 3.49998 24.744 3.49998 22.1667V10.1879ZM4.08331 4.66671C4.08331 4.34454 4.34448 4.08337 4.66665 4.08337H23.3333C23.6555 4.08337 23.9166 4.34454 23.9166 4.66671V8.16671C23.9166 8.48887 23.6555 8.75004 23.3333 8.75004H4.66665C4.34448 8.75004 4.08331 8.48887 4.08331 8.16671V4.66671ZM9.33331 13.7084C9.33331 13.2251 9.72506 12.8334 10.2083 12.8334H17.7916C18.2749 12.8334 18.6666 13.2251 18.6666 13.7084C18.6666 14.1916 18.2749 14.5834 17.7916 14.5834H10.2083C9.72506 14.5834 9.33331 14.1916 9.33331 13.7084ZM28 22.1667C28 25.3884 25.3883 28 22.1666 28C18.945 28 16.3333 25.3884 16.3333 22.1667C16.3333 18.945 18.945 16.3334 22.1666 16.3334C25.3883 16.3334 28 18.945 28 22.1667ZM25.054 19.2793C25.3957 19.621 25.3957 20.1751 25.054 20.5168L23.4041 22.1667L25.054 23.8166C25.3957 24.1583 25.3957 24.7123 25.054 25.054C24.7123 25.3957 24.1583 25.3957 23.8166 25.054L22.1666 23.4041L20.5167 25.054C20.175 25.3957 19.621 25.3957 19.2793 25.054C18.9376 24.7123 18.9376 24.1583 19.2793 23.8166L20.9292 22.1667L19.2793 20.5168C18.9376 20.1751 18.9376 19.621 19.2793 19.2793C19.621 18.9376 20.175 18.9376 20.5167 19.2793L22.1666 20.9292L23.8166 19.2793C24.1583 18.9376 24.7123 18.9376 25.054 19.2793Z" fill="#18202A"/>
</svg>
