<svg width="28" height="28" viewBox="0 0 28 28" fill="none" xmlns="http://www.w3.org/2000/svg">
<path fill-rule="evenodd" clip-rule="evenodd" d="M15.2081 3.60041L3.54145 15.2671C2.63023 16.1783 2.63023 17.6557 3.54145 18.5669L9.43341 24.4589C10.3446 25.3701 11.822 25.3701 12.7332 24.4589L24.3999 12.7922C24.8375 12.3546 25.0833 11.7611 25.0833 11.1423V4.08366C25.0833 3.43933 24.561 2.91699 23.9167 2.91699H16.858C16.2392 2.91699 15.6457 3.16283 15.2081 3.60041ZM22.75 8.16699C22.75 9.77782 21.4442 11.0837 19.8333 11.0837C18.2225 11.0837 16.9167 9.77782 16.9167 8.16699C16.9167 6.55616 18.2225 5.25033 19.8333 5.25033C21.4442 5.25033 22.75 6.55616 22.75 8.16699ZM13.9707 2.36297L2.30401 14.0296C0.709373 15.6243 0.70937 18.2097 2.30401 19.8043L8.19598 25.6963C9.79062 27.2909 12.376 27.2909 13.9707 25.6963L25.6374 14.0296C26.4031 13.2639 26.8333 12.2253 26.8333 11.1423V4.08366C26.8333 2.47283 25.5275 1.16699 23.9167 1.16699H16.858C15.7751 1.16699 14.7365 1.5972 13.9707 2.36297ZM21 8.16699C21 8.81133 20.4777 9.33366 19.8333 9.33366C19.189 9.33366 18.6667 8.81133 18.6667 8.16699C18.6667 7.52266 19.189 7.00033 19.8333 7.00033C20.4777 7.00033 21 7.52266 21 8.16699Z" fill="#18202A"/>
</svg>
