<svg width="28" height="28" viewBox="0 0 28 28" fill="none" xmlns="http://www.w3.org/2000/svg">
<path d="M25.6667 6.99984C26.311 6.99984 26.8333 6.4775 26.8333 5.83317C26.8333 5.18884 26.311 4.6665 25.6667 4.6665H2.33333C1.689 4.6665 1.16666 5.18884 1.16666 5.83317C1.16666 6.4775 1.689 6.99984 2.33333 6.99984H25.6667Z" fill="#18202A"/>
<path d="M25.6667 15.1665C26.311 15.1665 26.8333 14.6442 26.8333 13.9998C26.8333 13.3555 26.311 12.8332 25.6667 12.8332H2.33333C1.689 12.8332 1.16666 13.3555 1.16666 13.9998C1.16666 14.6442 1.689 15.1665 2.33333 15.1665H25.6667Z" fill="#18202A"/>
<path d="M25.6667 23.3332C26.311 23.3332 26.8333 22.8108 26.8333 22.1665C26.8333 21.5222 26.311 20.9998 25.6667 20.9998H2.33333C1.689 20.9998 1.16666 21.5222 1.16666 22.1665C1.16666 22.8108 1.689 23.3332 2.33333 23.3332H25.6667Z" fill="#18202A"/>
</svg>
