<svg width="28" height="28" viewBox="0 0 28 28" fill="none" xmlns="http://www.w3.org/2000/svg">
<path fill-rule="evenodd" clip-rule="evenodd" d="M25.0833 14C25.0833 7.8788 20.1211 2.91663 14 2.91663C7.87883 2.91663 2.91666 7.8788 2.91666 14C2.91666 20.1211 7.87883 25.0833 14 25.0833C20.1211 25.0833 25.0833 20.1211 25.0833 14ZM26.8333 14C26.8333 6.9123 21.0876 1.16663 14 1.16663C6.91233 1.16663 1.16666 6.91231 1.16666 14C1.16666 21.0876 6.91234 26.8333 14 26.8333C21.0876 26.8333 26.8333 21.0876 26.8333 14Z" fill="#18202A"/>
<path fill-rule="evenodd" clip-rule="evenodd" d="M8.71461 15.7853C8.3729 15.4436 8.3729 14.8896 8.71461 14.5479L13.3813 9.88124C13.723 9.53953 14.277 9.53953 14.6187 9.88124L19.2854 14.5479C19.6271 14.8896 19.6271 15.4436 19.2854 15.7853C18.9437 16.1271 18.3896 16.1271 18.0479 15.7853L14 11.7374L9.95204 15.7853C9.61033 16.1271 9.05631 16.1271 8.71461 15.7853Z" fill="#18202A"/>
</svg>
