<svg width="28" height="28" viewBox="0 0 28 28" fill="none" xmlns="http://www.w3.org/2000/svg">
<path fill-rule="evenodd" clip-rule="evenodd" d="M11.7021 7.03522C12.0438 6.69351 12.0438 6.13949 11.7021 5.79779C11.3603 5.45608 10.8063 5.45608 10.4646 5.79779L2.88128 13.3811C2.53957 13.7228 2.53957 14.2768 2.88128 14.6186L10.4646 22.2019C10.8063 22.5436 11.3603 22.5436 11.7021 22.2019C12.0438 21.8602 12.0438 21.3062 11.7021 20.9645L4.73744 13.9998L11.7021 7.03522ZM16.2979 7.03522C15.9562 6.69351 15.9562 6.13949 16.2979 5.79779C16.6397 5.45608 17.1937 5.45608 17.5354 5.79779L25.1187 13.3811C25.4604 13.7228 25.4604 14.2768 25.1187 14.6186L17.5354 22.2019C17.1937 22.5436 16.6397 22.5436 16.2979 22.2019C15.9562 21.8602 15.9562 21.3062 16.2979 20.9645L23.2626 13.9998L16.2979 7.03522Z" fill="#18202A"/>
</svg>
