<svg width="28" height="28" viewBox="0 0 28 28" fill="none" xmlns="http://www.w3.org/2000/svg">
<path d="M24.4988 6.60202C23.6291 5.37003 22.5423 4.29121 21.2796 3.42382C18.76 1.69308 15.7052 0.917673 12.6647 1.23707C9.62415 1.55648 6.79741 2.94972 4.69292 5.16621C2.58842 7.3827 1.34428 10.277 1.18427 13.3284C1.02427 16.3799 1.95889 19.3883 3.82005 21.8125C5.68121 24.2367 8.34675 25.9177 11.3372 26.553C14.3277 27.1883 17.4468 26.7362 20.1336 25.2782C22.4461 24.0234 24.3076 22.0942 25.48 19.7623C25.7956 19.1345 25.4622 18.395 24.806 18.1433C24.1502 17.8917 23.4212 18.2237 23.0895 18.8425C21.3585 22.0709 17.9505 24.2667 14.0294 24.2667C8.35627 24.2667 3.75728 19.6702 3.75728 14.0001C3.75728 8.32997 8.35627 3.73343 14.0294 3.73343C18.0212 3.73343 21.4812 6.00919 23.1815 9.3334H17.495C16.8503 9.3334 16.3277 9.85573 16.3277 10.5001C16.3277 11.1444 16.8503 11.6667 17.495 11.6667H25.666C26.3107 11.6667 26.8333 11.1444 26.8333 10.5001V2.33341C26.8333 1.68908 26.3107 1.16675 25.666 1.16675C25.0214 1.16675 24.4988 1.68908 24.4988 2.33341V6.60202Z" fill="#18202A"/>
</svg>
