<svg width="28" height="28" viewBox="0 0 28 28" fill="none" xmlns="http://www.w3.org/2000/svg">
<path fill-rule="evenodd" clip-rule="evenodd" d="M14.875 2.91667V11.375C14.875 12.3415 15.6585 13.125 16.625 13.125H25.0834C26.0499 13.125 26.8334 12.3415 26.8334 11.375V7C26.8334 3.77834 24.2217 1.16667 21 1.16667H16.625C15.6585 1.16667 14.875 1.95017 14.875 2.91667ZM13.125 2.91667C13.125 1.95017 12.3415 1.16667 11.375 1.16667H7.00002C3.77836 1.16667 1.16669 3.77834 1.16669 7.00001V21C1.16669 24.2217 3.77836 26.8333 7.00002 26.8333H11.375C12.3415 26.8333 13.125 26.0498 13.125 25.0833V2.91667ZM14.875 16.625V25.0833C14.875 26.0498 15.6585 26.8333 16.625 26.8333H21C24.2217 26.8333 26.8334 24.2217 26.8334 21V16.625C26.8334 15.6585 26.0499 14.875 25.0834 14.875H16.625C15.6585 14.875 14.875 15.6585 14.875 16.625ZM16.625 25.0833H21C23.2552 25.0833 25.0834 23.2552 25.0834 21V16.625H16.625V25.0833ZM16.625 11.375H25.0834V7C25.0834 4.74484 23.2552 2.91667 21 2.91667H16.625V11.375ZM11.375 2.91667H7.00002C4.74486 2.91667 2.91669 4.74484 2.91669 7.00001V21C2.91669 23.2552 4.74486 25.0833 7.00002 25.0833H11.375V2.91667Z" fill="#18202A"/>
</svg>
