<svg width="28" height="28" viewBox="0 0 28 28" fill="none" xmlns="http://www.w3.org/2000/svg">
<path fill-rule="evenodd" clip-rule="evenodd" d="M5.83333 19.8332L12.6156 26.0322C14.4873 27.743 17.5 26.4151 17.5 23.8793V4.12066C17.5 1.5849 14.4874 0.256999 12.6156 1.96772L5.83333 8.16648H3.5C1.567 8.16648 0 9.73349 0 11.6665V16.3332C0 18.2661 1.567 19.8332 3.5 19.8332H5.83333ZM6.5126 18.0832L13.7962 24.7404C14.5449 25.4248 15.75 24.8936 15.75 23.8793V4.12066C15.75 3.10635 14.545 2.5752 13.7963 3.25948L6.51257 9.91648H6.41667V18.0832H6.5126ZM4.66667 18.0832V9.91648H3.5C2.5335 9.91648 1.75 10.7 1.75 11.6665V16.3332C1.75 17.2997 2.5335 18.0832 3.5 18.0832H4.66667Z" fill="#18202A"/>
<path d="M25.2293 8.8996C25.0024 8.47292 24.4726 8.31094 24.0459 8.53782C23.6192 8.76469 23.4572 9.2945 23.6841 9.72119C24.403 11.0732 24.7904 12.6555 24.7904 14.2802C24.7904 15.905 24.403 17.4873 23.6841 18.8393C23.4572 19.2659 23.6192 19.7958 24.0459 20.0226C24.4726 20.2495 25.0024 20.0875 25.2293 19.6608C26.0891 18.0438 26.5404 16.1774 26.5404 14.2802C26.5404 12.383 26.0891 10.5167 25.2293 8.8996Z" fill="#18202A"/>
<path d="M21.7969 10.7603C21.526 10.3602 20.982 10.2554 20.5818 10.5263C20.1816 10.7972 20.0769 11.3412 20.3478 11.7414C20.8332 12.4583 21.1096 13.3738 21.1096 14.3343C21.1096 15.2947 20.8332 16.2102 20.3478 16.9271C20.0769 17.3273 20.1816 17.8713 20.5818 18.1422C20.982 18.4131 21.526 18.3084 21.7969 17.9082C22.4917 16.8819 22.8596 15.6198 22.8596 14.3343C22.8596 13.0487 22.4917 11.7866 21.7969 10.7603Z" fill="#18202A"/>
</svg>
