<svg width="28" height="28" viewBox="0 0 28 28" fill="none" xmlns="http://www.w3.org/2000/svg">
<path fill-rule="evenodd" clip-rule="evenodd" d="M18.325 7.82463C17.8693 8.28024 17.1307 8.28024 16.675 7.82463L14 5.14959L11.325 7.82463C10.8693 8.28024 10.1307 8.28024 9.67504 7.82463C9.21943 7.36902 9.21943 6.63033 9.67504 6.17472L13.175 2.67472C13.6307 2.2191 14.3693 2.21911 14.825 2.67472L18.325 6.17472C18.7806 6.63033 18.7806 7.36902 18.325 7.82463ZM2.33333 10.4997C1.689 10.4997 1.16666 11.022 1.16666 11.6663C1.16666 12.3107 1.689 12.833 2.33333 12.833H25.6667C26.311 12.833 26.8333 12.3107 26.8333 11.6663C26.8333 11.022 26.311 10.4997 25.6667 10.4997H2.33333ZM2.33333 15.1663C1.689 15.1663 1.16666 15.6887 1.16666 16.333C1.16666 16.9773 1.689 17.4997 2.33333 17.4997H25.6667C26.311 17.4997 26.8333 16.9773 26.8333 16.333C26.8333 15.6887 26.311 15.1663 25.6667 15.1663H2.33333ZM18.325 21.8246C18.7806 21.369 18.7806 20.6303 18.325 20.1747C17.8693 19.7191 17.1307 19.7191 16.675 20.1747L14 22.8498L11.325 20.1747C10.8693 19.7191 10.1307 19.7191 9.67504 20.1747C9.21943 20.6303 9.21943 21.369 9.67504 21.8246L13.175 25.3246C13.6307 25.7802 14.3693 25.7802 14.825 25.3246L18.325 21.8246Z" fill="#18202A"/>
</svg>
