<svg width="28" height="28" viewBox="0 0 28 28" fill="none" xmlns="http://www.w3.org/2000/svg">
<path fill-rule="evenodd" clip-rule="evenodd" d="M3.08476 2.91699H0V1.16699H3.08476C3.95098 1.16699 4.77813 1.52745 5.36785 2.16193C5.52806 2.3343 5.65652 2.53363 5.74731 2.75074L6.06078 3.50033H23.9326C25.3866 3.50033 26.3746 4.97694 25.8199 6.32093L22.69 13.9043C22.3746 14.6684 21.6294 15.167 20.8027 15.167H9.34062L7.66685 17.0127C7.49687 17.2002 7.62987 17.5003 7.8829 17.5003H21.5012C22.2814 17.5003 23.0099 17.8902 23.4427 18.5394L23.9167 19.2503H7.8829C6.11165 19.2503 5.18064 17.1493 6.37049 15.8372L7.95494 14.0899L4.66103 4.68906L4.1328 3.4259C4.12161 3.39914 4.10578 3.37457 4.08603 3.35333C3.82741 3.07508 3.46465 2.91699 3.08476 2.91699ZM11.6667 23.3337C11.6667 24.6559 10.6556 25.667 9.33333 25.667C8.01111 25.667 7 24.6559 7 23.3337C7 22.0114 8.01111 21.0003 9.33333 21.0003C10.6556 21.0003 11.6667 22.0114 11.6667 23.3337ZM22.1667 23.3337C22.1667 24.6559 21.1556 25.667 19.8333 25.667C18.5111 25.667 17.5 24.6559 17.5 23.3337C17.5 22.0114 18.5111 21.0003 19.8333 21.0003C21.1556 21.0003 22.1667 22.0114 22.1667 23.3337Z" fill="#18202A"/>
</svg>
