<svg width="28" height="28" viewBox="0 0 28 28" fill="none" xmlns="http://www.w3.org/2000/svg">
<g clip-path="url(#clip0_2294_11646)">
<path fill-rule="evenodd" clip-rule="evenodd" d="M5.83333 19.8332L12.6156 26.0322C14.4873 27.743 17.5 26.4151 17.5 23.8793V4.12066C17.5 1.5849 14.4874 0.256999 12.6156 1.96772L5.83333 8.16648H3.5C1.567 8.16648 0 9.73349 0 11.6665V16.3332C0 18.2661 1.567 19.8332 3.5 19.8332H5.83333ZM6.5126 18.0832L13.7962 24.7404C14.5449 25.4248 15.75 24.8936 15.75 23.8793V4.12066C15.75 3.10635 14.545 2.5752 13.7963 3.25948L6.51257 9.91648H6.41667V18.0832H6.5126ZM3.5 9.91648H4.66667V18.0832H3.5C2.5335 18.0832 1.75 17.2997 1.75 16.3332V11.6665C1.75 10.7 2.5335 9.91648 3.5 9.91648Z" fill="#18202A"/>
<path d="M20.0847 11.1704C19.7741 10.8002 19.8224 10.2483 20.1926 9.93764C20.5628 9.62702 21.1147 9.6753 21.4253 10.0455L23.9422 13.045L26.4591 10.0455C26.7697 9.6753 27.3216 9.62702 27.6918 9.93764C28.062 10.2483 28.1103 10.8002 27.7997 11.1704L25.0844 14.4062L27.7996 17.6421C28.1103 18.0123 28.062 18.5642 27.6918 18.8748C27.3216 19.1855 26.7697 19.1372 26.4591 18.767L23.9422 15.7675L21.4253 18.767C21.1147 19.1372 20.5628 19.1855 20.1926 18.8748C19.8224 18.5642 19.7741 18.0123 20.0848 17.6421L22.8 14.4062L20.0847 11.1704Z" fill="#18202A"/>
</g>
<defs>
<clipPath id="clip0_2294_11646">
<rect width="28" height="28" fill="white"/>
</clipPath>
</defs>
</svg>
