<svg width="28" height="28" viewBox="0 0 28 28" fill="none" xmlns="http://www.w3.org/2000/svg">
<path fill-rule="evenodd" clip-rule="evenodd" d="M14 26.8333C21.0877 26.8333 26.8333 21.0876 26.8333 14C26.8333 6.91231 21.0877 1.16663 14 1.16663C6.91234 1.16663 1.16666 6.91231 1.16666 14C1.16666 21.0876 6.91234 26.8333 14 26.8333ZM13.6583 8.50833C13.2027 8.05272 12.464 8.05272 12.0084 8.50833C11.5528 8.96395 11.5528 9.70264 12.0084 10.1583L15.8501 14L12.0084 17.8417C11.5528 18.2973 11.5528 19.036 12.0084 19.4916C12.464 19.9472 13.2027 19.9472 13.6583 19.4916L18.325 14.8249C18.7806 14.3693 18.7806 13.6306 18.325 13.175L13.6583 8.50833Z" fill="#18202A"/>
</svg>
