<svg width="28" height="28" viewBox="0 0 28 28" fill="none" xmlns="http://www.w3.org/2000/svg">
<path d="M9.91671 2.3335C10.561 2.3335 11.0834 2.85583 11.0834 3.50016C11.0834 4.1445 10.561 4.66683 9.91671 4.66683H5.83337C5.18904 4.66683 4.66671 5.18916 4.66671 5.8335V9.91683C4.66671 10.5612 4.14437 11.0835 3.50004 11.0835C2.85571 11.0835 2.33337 10.5612 2.33337 9.91683V5.8335C2.33337 3.9005 3.90038 2.3335 5.83337 2.3335H9.91671Z" fill="#18202A"/>
<path d="M16.9167 3.50016C16.9167 4.1445 17.439 4.66683 18.0834 4.66683H22.1667C22.811 4.66683 23.3334 5.18916 23.3334 5.8335V9.91683C23.3334 10.5612 23.8557 11.0835 24.5 11.0835C25.1444 11.0835 25.6667 10.5612 25.6667 9.91683V5.8335C25.6667 3.9005 24.0997 2.3335 22.1667 2.3335H18.0834C17.439 2.3335 16.9167 2.85583 16.9167 3.50016Z" fill="#18202A"/>
<path d="M16.9167 24.5002C16.9167 23.8558 17.439 23.3335 18.0834 23.3335H22.1667C22.811 23.3335 23.3334 22.8112 23.3334 22.1668V18.0835C23.3334 17.4392 23.8557 16.9168 24.5 16.9168C25.1444 16.9168 25.6667 17.4392 25.6667 18.0835V22.1668C25.6667 24.0998 24.0997 25.6668 22.1667 25.6668H18.0834C17.439 25.6668 16.9167 25.1445 16.9167 24.5002Z" fill="#18202A"/>
<path d="M4.66671 18.0835C4.66671 17.4392 4.14437 16.9168 3.50004 16.9168C2.85571 16.9168 2.33337 17.4392 2.33337 18.0835V22.1668C2.33337 24.0998 3.90038 25.6668 5.83337 25.6668H9.91671C10.561 25.6668 11.0834 25.1445 11.0834 24.5002C11.0834 23.8558 10.561 23.3335 9.91671 23.3335H5.83337C5.18904 23.3335 4.66671 22.8112 4.66671 22.1668V18.0835Z" fill="#18202A"/>
</svg>
