<svg width="28" height="28" viewBox="0 0 28 28" fill="none" xmlns="http://www.w3.org/2000/svg">
<path fill-rule="evenodd" clip-rule="evenodd" d="M18.0833 14C20.8056 14 22.1667 11.375 22.1667 8.09375C22.1667 5.46875 20.8056 3.5 18.0833 3.5C15.3611 3.5 14 5.46875 14 8.09375C14 11.375 15.3611 14 18.0833 14ZM22.7969 25.2461C24.1777 24.9961 25.3856 24.1457 26.024 22.8961C26.1569 22.6359 26.2833 22.3726 26.4031 22.1063C27.1835 20.3697 26.704 18.2997 25.1188 17.2453C23.1558 15.9396 20.7208 15.1667 18.0833 15.1667C15.4459 15.1667 13.0109 15.9396 11.0479 17.2453C9.46267 18.2997 8.98315 20.3697 9.76362 22.1062C9.88333 22.3726 10.0097 22.6359 10.1426 22.8961C10.7811 24.1457 11.989 24.9961 13.3698 25.2461C14.8928 25.5219 16.4691 25.6667 18.0833 25.6667C19.6976 25.6667 21.2739 25.5219 22.7969 25.2461ZM10.7793 10.5729C10.7793 13.125 9.61261 15.1667 7.27927 15.1667C4.94594 15.1667 3.77927 13.125 3.77927 10.5729C3.77927 8.53125 4.94594 7 7.27927 7C9.61261 7 10.7793 8.53125 10.7793 10.5729ZM7.63536 23.0628C6.65943 20.8914 6.9309 18.2606 8.50276 16.4126C8.10275 16.3603 7.69478 16.3333 7.2805 16.3333C5.61629 16.3333 4.05381 16.7689 2.70085 17.5323C1.32365 18.3093 0.845156 20.0098 1.38138 21.4974C1.44589 21.6764 1.51307 21.8541 1.58286 22.0305C2.07681 23.2791 3.21599 24.1507 4.54751 24.3238C5.44206 24.44 6.35428 24.5 7.2805 24.5C7.64175 24.5 8.00087 24.4909 8.35764 24.4729C8.25319 24.3068 8.1554 24.135 8.06479 23.9577C7.91433 23.6632 7.77111 23.3648 7.63536 23.0628Z" fill="#18202A"/>
</svg>
