<svg width="28" height="28" viewBox="0 0 28 28" fill="none" xmlns="http://www.w3.org/2000/svg">
<path fill-rule="evenodd" clip-rule="evenodd" d="M22.1667 5.24999H5.83335C4.22252 5.24999 2.91669 6.55583 2.91669 8.16666V22.1667C2.91669 23.7775 4.22252 25.0833 5.83335 25.0833H22.1667C23.7775 25.0833 25.0834 23.7775 25.0834 22.1667V8.16666C25.0834 6.55583 23.7775 5.24999 22.1667 5.24999ZM5.83335 3.49999C3.25603 3.49999 1.16669 5.58933 1.16669 8.16666V22.1667C1.16669 24.744 3.25603 26.8333 5.83335 26.8333H22.1667C24.744 26.8333 26.8334 24.744 26.8334 22.1667V8.16666C26.8334 5.58933 24.744 3.49999 22.1667 3.49999H5.83335Z" fill="#18202A"/>
<path d="M7.00002 2.04166C7.00002 1.55841 7.39177 1.16666 7.87502 1.16666C8.35827 1.16666 8.75002 1.55841 8.75002 2.04166V7.29166C8.75002 7.77491 8.35827 8.16666 7.87502 8.16666C7.39177 8.16666 7.00002 7.77491 7.00002 7.29166V2.04166Z" fill="#18202A"/>
<path d="M19.25 2.04166C19.25 1.55841 19.6418 1.16666 20.125 1.16666C20.6083 1.16666 21 1.55841 21 2.04166V7.29166C21 7.77491 20.6083 8.16666 20.125 8.16666C19.6418 8.16666 19.25 7.77491 19.25 7.29166V2.04166Z" fill="#18202A"/>
<path d="M5.83335 11.375C5.83335 10.8917 6.2251 10.5 6.70835 10.5H21.2917C21.7749 10.5 22.1667 10.8917 22.1667 11.375C22.1667 11.8582 21.7749 12.25 21.2917 12.25H6.70835C6.2251 12.25 5.83335 11.8582 5.83335 11.375Z" fill="#18202A"/>
<path d="M5.83335 16.3333C5.83335 15.689 6.35569 15.1667 7.00002 15.1667C7.64435 15.1667 8.16669 15.689 8.16669 16.3333C8.16669 16.9777 7.64435 17.5 7.00002 17.5C6.35569 17.5 5.83335 16.9777 5.83335 16.3333Z" fill="#18202A"/>
<path d="M5.83335 21C5.83335 20.3557 6.35569 19.8333 7.00002 19.8333C7.64435 19.8333 8.16669 20.3557 8.16669 21C8.16669 21.6443 7.64435 22.1667 7.00002 22.1667C6.35569 22.1667 5.83335 21.6443 5.83335 21Z" fill="#18202A"/>
<path d="M10.5 16.3333C10.5 15.689 11.0224 15.1667 11.6667 15.1667C12.311 15.1667 12.8334 15.689 12.8334 16.3333C12.8334 16.9777 12.311 17.5 11.6667 17.5C11.0224 17.5 10.5 16.9777 10.5 16.3333Z" fill="#18202A"/>
<path d="M10.5 21C10.5 20.3557 11.0224 19.8333 11.6667 19.8333C12.311 19.8333 12.8334 20.3557 12.8334 21C12.8334 21.6443 12.311 22.1667 11.6667 22.1667C11.0224 22.1667 10.5 21.6443 10.5 21Z" fill="#18202A"/>
<path d="M15.1667 16.3333C15.1667 15.689 15.689 15.1667 16.3334 15.1667C16.9777 15.1667 17.5 15.689 17.5 16.3333C17.5 16.9777 16.9777 17.5 16.3334 17.5C15.689 17.5 15.1667 16.9777 15.1667 16.3333Z" fill="#18202A"/>
<path d="M15.1667 21C15.1667 20.3557 15.689 19.8333 16.3334 19.8333C16.9777 19.8333 17.5 20.3557 17.5 21C17.5 21.6443 16.9777 22.1667 16.3334 22.1667C15.689 22.1667 15.1667 21.6443 15.1667 21Z" fill="#18202A"/>
<path d="M19.8334 16.3333C19.8334 15.689 20.3557 15.1667 21 15.1667C21.6444 15.1667 22.1667 15.689 22.1667 16.3333C22.1667 16.9777 21.6444 17.5 21 17.5C20.3557 17.5 19.8334 16.9777 19.8334 16.3333Z" fill="#18202A"/>
<path d="M19.8334 21C19.8334 20.3557 20.3557 19.8333 21 19.8333C21.6444 19.8333 22.1667 20.3557 22.1667 21C22.1667 21.6443 21.6444 22.1667 21 22.1667C20.3557 22.1667 19.8334 21.6443 19.8334 21Z" fill="#18202A"/>
</svg>
