<svg width="28" height="28" viewBox="0 0 28 28" fill="none" xmlns="http://www.w3.org/2000/svg">
<path d="M9.33333 3.49992C9.33333 3.06966 9.09652 2.67432 8.71717 2.4713C8.33782 2.26828 7.87752 2.29053 7.51952 2.5292L4.01952 4.86253C3.4834 5.21994 3.33853 5.94429 3.69594 6.4804C4.05335 7.01652 4.7777 7.16139 5.31382 6.80398L7 5.67986V10.4999C7 11.1443 7.52234 11.6666 8.16667 11.6666C8.811 11.6666 9.33333 11.1443 9.33333 10.4999V3.49992Z" fill="#18202A"/>
<path d="M5.83336 17.4999C5.83336 17.1398 6.30249 16.3333 7.58336 16.3333C8.77195 16.3333 9.33336 17.0575 9.33336 17.7916C9.33336 18.102 9.25609 18.3247 8.82709 18.7269C8.47839 19.0538 8.02602 19.3834 7.39022 19.8467C7.07512 20.0763 6.71495 20.3387 6.30002 20.6499L3.96669 22.3999C3.56496 22.7012 3.40109 23.2258 3.55989 23.7022C3.71869 24.1786 4.16452 24.4999 4.66669 24.4999H10.5C11.1444 24.4999 11.6667 23.9776 11.6667 23.3333C11.6667 22.6889 11.1444 22.1666 10.5 22.1666H8.17212C8.32221 22.0564 8.46977 21.9488 8.61402 21.8436C9.3304 21.3212 9.96516 20.8584 10.423 20.4292C11.1606 19.7376 11.6667 18.9395 11.6667 17.7916C11.6667 15.609 9.89476 13.9999 7.58336 13.9999C5.36423 13.9999 3.50002 15.5267 3.50002 17.4999C3.50002 18.1443 4.02236 18.6666 4.66669 18.6666C5.31102 18.6666 5.83336 18.1443 5.83336 17.4999Z" fill="#18202A"/>
<path d="M14 5.83325C14 5.18892 14.5224 4.66659 15.1667 4.66659H24.5C25.1444 4.66659 25.6667 5.18892 25.6667 5.83325C25.6667 6.47758 25.1444 6.99992 24.5 6.99992H15.1667C14.5224 6.99992 14 6.47758 14 5.83325Z" fill="#18202A"/>
<path d="M15.1667 8.16659C14.5224 8.16659 14 8.68892 14 9.33325C14 9.97758 14.5224 10.4999 15.1667 10.4999H24.5C25.1444 10.4999 25.6667 9.97758 25.6667 9.33325C25.6667 8.68892 25.1444 8.16659 24.5 8.16659H15.1667Z" fill="#18202A"/>
<path d="M14 18.6666C14 18.0223 14.5224 17.4999 15.1667 17.4999H24.5C25.1444 17.4999 25.6667 18.0223 25.6667 18.6666C25.6667 19.3109 25.1444 19.8333 24.5 19.8333H15.1667C14.5224 19.8333 14 19.3109 14 18.6666Z" fill="#18202A"/>
<path d="M15.1667 20.9999C14.5224 20.9999 14 21.5223 14 22.1666C14 22.8109 14.5224 23.3333 15.1667 23.3333H24.5C25.1444 23.3333 25.6667 22.8109 25.6667 22.1666C25.6667 21.5223 25.1444 20.9999 24.5 20.9999H15.1667Z" fill="#18202A"/>
</svg>
