<svg width="28" height="28" viewBox="0 0 28 28" fill="none" xmlns="http://www.w3.org/2000/svg">
<path fill-rule="evenodd" clip-rule="evenodd" d="M23.3334 12.8334C23.3334 15.0173 22.6666 17.0456 21.5255 18.7256C21.1517 19.276 20.7269 19.7891 20.258 20.258C19.7891 20.7269 19.276 21.1517 18.7256 21.5255C17.0456 22.6666 15.0173 23.3334 12.8334 23.3334C7.03438 23.3334 2.33337 18.6324 2.33337 12.8334C2.33337 7.03438 7.03438 2.33337 12.8334 2.33337C18.6324 2.33337 23.3334 7.03438 23.3334 12.8334ZM21.3417 21.3417C21.6947 20.9888 22.2177 20.9093 22.6472 21.1032C22.7721 21.1596 22.889 21.2391 22.9917 21.3417L25.325 23.6751C25.7806 24.1307 25.7806 24.8694 25.325 25.325C24.8694 25.7806 24.1307 25.7806 23.6751 25.325L21.3417 22.9917C21.2391 22.889 21.1596 22.7721 21.1032 22.6472C20.9093 22.2177 20.9888 21.6947 21.3417 21.3417ZM21 12.8334C21 17.3437 17.3437 21 12.8334 21C8.32305 21 4.66671 17.3437 4.66671 12.8334C4.66671 8.32305 8.32305 4.66671 12.8334 4.66671C17.3437 4.66671 21 8.32305 21 12.8334ZM9.33337 11.6667C8.68904 11.6667 8.16671 12.189 8.16671 12.8334C8.16671 13.4777 8.68904 14 9.33337 14H16.3334C16.9777 14 17.5 13.4777 17.5 12.8334C17.5 12.189 16.9777 11.6667 16.3334 11.6667H9.33337Z" fill="#18202A"/>
</svg>
