<svg width="28" height="28" viewBox="0 0 28 28" fill="none" xmlns="http://www.w3.org/2000/svg">
<path fill-rule="evenodd" clip-rule="evenodd" d="M14.438 1.23051L25.8024 4.6488C26.4156 4.83361 26.8339 5.38072 26.8333 5.99961C26.8333 21.136 18.8939 24.7544 14.6275 26.6975C14.4292 26.788 14.215 26.8332 14.0003 26.8332C13.7855 26.8332 13.5708 26.788 13.3719 26.6975C9.10612 24.7538 1.16666 21.136 1.16666 5.99961C1.16666 5.38016 1.58502 4.83305 2.19819 4.6488L13.5626 1.23051C13.8477 1.14517 14.1528 1.14517 14.438 1.23051ZM13.2902 8.0385C13.5767 7.4314 14.4233 7.4314 14.7098 8.0385L15.9137 10.5901L18.5779 10.9956C18.927 11.0488 19.1428 11.3087 19.2167 11.5614C19.2905 11.8135 19.2474 12.1293 19.0182 12.3629L17.0803 14.3374L17.5412 17.1437C17.5908 17.4457 17.4705 17.7336 17.2524 17.9095C17.0298 18.0891 16.6948 18.1538 16.3907 17.9867L14 16.6733L11.6093 17.9867C11.3052 18.1538 10.9703 18.0891 10.7476 17.9095C10.5295 17.7336 10.4092 17.4457 10.4588 17.1437L10.9197 14.3371L8.98144 12.3594C8.75237 12.1257 8.70951 11.8098 8.78344 11.5578C8.85755 11.305 9.07367 11.0452 9.42285 10.9925L12.0864 10.5898L13.2902 8.0385Z" fill="#18202A"/>
</svg>
