<svg width="28" height="28" viewBox="0 0 28 28" fill="none" xmlns="http://www.w3.org/2000/svg">
<path d="M7 12.8332C5.067 12.8332 3.5 11.2662 3.5 9.33317V8.1665C3.5 6.23351 5.067 4.6665 7 4.6665H8.16667C10.0834 4.6665 11.6402 6.20719 11.6663 8.11768C11.9587 11.9676 11.6768 15.3771 10.628 17.8782C10.0961 19.1465 9.3471 20.2279 8.33058 20.9932C7.30166 21.7677 6.06641 22.1666 4.66667 22.1666C4.02233 22.1666 3.5 21.6442 3.5 20.9999C3.5 20.3556 4.02233 19.8332 4.66667 19.8332C5.60026 19.8332 6.33375 19.5758 6.92723 19.129C7.53311 18.6729 8.06017 17.9678 8.47619 16.9758C8.58757 16.7102 8.71836 16.4265 8.76587 16.1414C9.02577 14.582 8.72557 13.7952 8.42232 13.4161C8.12073 13.0392 7.62997 12.8332 7 12.8332Z" fill="#18202A"/>
<path d="M24.4997 8.11767C24.4735 6.20718 22.9167 4.6665 21 4.6665H19.8333C17.9003 4.6665 16.3333 6.23351 16.3333 8.1665V9.33317C16.3333 11.2662 17.9003 12.8332 19.8333 12.8332C20.4633 12.8332 20.9541 13.0392 21.2557 13.4161C21.5589 13.7952 21.8591 14.582 21.5992 16.1414C21.5517 16.4265 21.4209 16.7102 21.3095 16.9758C20.8935 17.9678 20.3664 18.6729 19.7606 19.129C19.1671 19.5758 18.4336 19.8332 17.5 19.8332C16.8557 19.8332 16.3333 20.3556 16.3333 20.9999C16.3333 21.6442 16.8557 22.1666 17.5 22.1666C18.8997 22.1666 20.135 21.7677 21.1639 20.9932C22.1804 20.2279 22.9294 19.1465 23.4613 17.8782C24.5101 15.3771 24.792 11.9676 24.4997 8.11767Z" fill="#18202A"/>
</svg>
