<svg width="28" height="28" viewBox="0 0 28 28" fill="none" xmlns="http://www.w3.org/2000/svg">
<path fill-rule="evenodd" clip-rule="evenodd" d="M14 3.2085C9.97093 3.2085 6.45635 5.41608 4.60181 8.69186L3.07893 7.8297C5.23141 4.02763 9.31512 1.4585 14 1.4585C20.9266 1.4585 26.5417 7.07359 26.5417 14.0002C26.5417 20.9267 20.9266 26.5418 14 26.5418C7.07344 26.5418 1.45834 20.9267 1.45834 14.0002C1.45834 13.3553 1.50709 12.7213 1.60121 12.1018C1.6738 11.624 2.14504 11.3278 2.61655 11.4337C3.08807 11.5395 3.38078 12.0074 3.31363 12.4859C3.24426 12.9803 3.20834 13.4859 3.20834 14.0002C3.20834 19.9602 8.03994 24.7918 14 24.7918C19.9601 24.7918 24.7917 19.9602 24.7917 14.0002C24.7917 8.04009 19.9601 3.2085 14 3.2085Z" fill="#18202A"/>
<path fill-rule="evenodd" clip-rule="evenodd" d="M2.90964 3.44823C3.38555 3.36431 3.83938 3.68209 3.92329 4.15799L4.48761 7.35841L7.68803 6.79409C8.16394 6.71018 8.61776 7.02795 8.70168 7.50386C8.78559 7.97976 8.46782 8.43359 7.99191 8.51751L3.92979 9.23377C3.45388 9.31768 3.00006 8.99991 2.91614 8.524L2.19988 4.46188C2.11596 3.98597 2.43373 3.53215 2.90964 3.44823Z" fill="#18202A"/>
<path d="M13.125 6.7085C13.125 6.22525 13.5168 5.8335 14 5.8335C14.4833 5.8335 14.875 6.22525 14.875 6.7085V14.0002C14.875 14.4834 14.4833 14.8752 14 14.8752C13.5168 14.8752 13.125 14.4834 13.125 14.0002V6.7085Z" fill="#18202A"/>
<path d="M20.125 13.1252C20.6083 13.1252 21 13.5169 21 14.0002C21 14.4834 20.6083 14.8752 20.125 14.8752H14C13.5168 14.8752 13.125 14.4834 13.125 14.0002C13.125 13.5169 13.5168 13.1252 14 13.1252H20.125Z" fill="#18202A"/>
</svg>
