<svg width="28" height="28" viewBox="0 0 28 28" fill="none" xmlns="http://www.w3.org/2000/svg">
<path d="M3.75785 3.75776C4.10164 3.41397 4.65904 3.41397 5.00283 3.75776L24.2422 22.9971C24.586 23.3409 24.586 23.8983 24.2422 24.2421C23.8984 24.5859 23.341 24.5859 22.9972 24.2421L3.75785 5.00274C3.41406 4.65895 3.41406 4.10155 3.75785 3.75776Z" fill="#18202A"/>
<path d="M7.45495 6.21155C5.8161 7.86749 4.89784 10.0819 4.89784 12.3888C4.89784 16.7989 3.81149 19.4019 2.91517 20.799C2.60949 21.2755 2.98961 22.1666 3.55571 22.1666H23.41L21.66 20.4166H5.11544C5.94336 18.6432 6.64784 16.0523 6.64784 12.3888C6.64784 10.5524 7.37728 8.78116 8.6924 7.44901L7.45495 6.21155Z" fill="#18202A"/>
<path d="M22.1358 18.4175C21.6729 16.8439 21.3522 14.8605 21.3522 12.3888C21.3522 10.509 20.5879 8.6976 19.2135 7.35543C17.8378 6.01188 15.9631 5.24992 14 5.24992C12.5954 5.24992 11.2361 5.64 10.0724 6.3541L8.80686 5.08859C10.0836 4.22244 11.5705 3.68746 13.126 3.54097C13.1253 3.52737 13.125 3.51368 13.125 3.49992V2.33325C13.125 1.85 13.5168 1.45825 14 1.45825C14.4833 1.45825 14.875 1.85 14.875 2.33325V3.49992C14.875 3.51368 14.8747 3.52737 14.8741 3.54097C16.9673 3.73811 18.9365 4.63883 20.4362 6.10341C22.1432 7.7704 23.1022 10.0313 23.1022 12.3888C23.1022 16.7989 24.1885 19.4019 25.0849 20.799C25.2004 20.979 25.2179 21.2183 25.1646 21.4463L22.1358 18.4175Z" fill="#18202A"/>
<path d="M12.0191 26.1726C11.4466 25.7438 11.0285 25.141 10.8271 24.4546L12.5063 23.9619C12.6013 24.2857 12.7985 24.5699 13.0683 24.772C13.3381 24.9741 13.666 25.0833 14.0029 25.0833C14.3398 25.0833 14.6677 24.9741 14.9376 24.772C15.2074 24.5699 15.4046 24.2857 15.4996 23.9619L17.1788 24.4546C16.9774 25.141 16.5592 25.7438 15.9867 26.1726C15.4142 26.6014 14.7182 26.8333 14.0029 26.8333C13.2876 26.8333 12.5916 26.6014 12.0191 26.1726Z" fill="#18202A"/>
</svg>
