<svg width="28" height="28" viewBox="0 0 28 28" fill="none" xmlns="http://www.w3.org/2000/svg">
<path fill-rule="evenodd" clip-rule="evenodd" d="M14.1662 19.4956C14.4368 19.3348 14.7458 19.2498 15.0606 19.2498H22.1667C23.7775 19.2498 25.0833 17.944 25.0833 16.3332V5.83317C25.0833 4.22234 23.7775 2.9165 22.1667 2.9165H5.83332C4.22249 2.9165 2.91666 4.22234 2.91666 5.83317V16.3332C2.91666 17.944 4.22249 19.2498 5.83332 19.2498H6.46969C6.99665 19.2498 7.49556 19.4873 7.82786 19.8963C8.16017 20.3052 8.29049 20.8422 8.18264 21.358L7.77781 23.2942L14.1662 19.4956ZM15.0606 20.9998H22.1667C24.744 20.9998 26.8333 18.9105 26.8333 16.3332V5.83317C26.8333 3.25584 24.744 1.1665 22.1667 1.1665H5.83332C3.25599 1.1665 1.16666 3.25584 1.16666 5.83317V16.3332C1.16666 18.5233 2.67542 20.3611 4.71028 20.8638C5.07 20.9527 5.44615 20.9998 5.83332 20.9998H6.46969L5.79323 24.2351C5.5854 25.229 6.65863 25.9956 7.53146 25.4766L15.0606 20.9998Z" fill="#18202A"/>
</svg>
