<svg width="28" height="28" viewBox="0 0 28 28" fill="none" xmlns="http://www.w3.org/2000/svg">
<path fill-rule="evenodd" clip-rule="evenodd" d="M1.16666 5.83366C1.16666 3.25633 3.256 1.16699 5.83333 1.16699H22.1667C24.744 1.16699 26.8333 3.25633 26.8333 5.83366V22.167C26.8333 24.7443 24.744 26.8337 22.1667 26.8337H5.83333C3.256 26.8337 1.16666 24.7443 1.16666 22.167V5.83366ZM14 12.8337C15.5556 12.8337 16.3333 11.3753 16.3333 9.55241C16.3333 8.09408 15.5556 7.00033 14 7.00033C12.4444 7.00033 11.6667 8.09408 11.6667 9.55241C11.6667 11.3753 12.4444 12.8337 14 12.8337ZM7.58333 12.8337C8.75 12.8337 9.33333 11.667 9.33333 10.2087C9.33333 9.04199 8.75 8.16699 7.58333 8.16699C6.41666 8.16699 5.83333 9.04199 5.83333 10.2087C5.83333 11.667 6.41666 12.8337 7.58333 12.8337ZM22.1667 10.2087C22.1667 11.667 21.5833 12.8337 20.4167 12.8337C19.25 12.8337 18.6667 11.667 18.6667 10.2087C18.6667 9.04199 19.25 8.16699 20.4167 8.16699C21.5833 8.16699 22.1667 9.04199 22.1667 10.2087ZM9.46493 14.2543C9.55343 14.1929 9.64321 14.1332 9.73423 14.0753C9.35752 14.0111 8.96969 13.9775 8.57369 13.9775C7.47732 13.9775 6.44369 14.2345 5.535 14.689C4.76364 15.0748 4.43926 15.9789 4.69675 16.8021C4.74675 16.9619 4.79999 17.1204 4.85638 17.2775C5.10198 17.9616 5.71225 18.4443 6.43222 18.5443C7.04283 18.629 7.66552 18.6781 8.29792 18.6892C8.25806 18.5787 8.21957 18.4675 8.18246 18.3557C7.70623 16.9206 8.09616 15.2041 9.46493 14.2543ZM19.7039 18.6853C19.7432 18.5761 19.7812 18.4662 19.8179 18.3557C20.2941 16.9206 19.9042 15.2041 18.5354 14.2543C18.4359 14.1853 18.3348 14.1184 18.2322 14.0539C18.5667 14.0036 18.9096 13.9775 19.2589 13.9775C20.4384 13.9775 21.5454 14.275 22.5023 14.7959C23.2452 15.2003 23.5438 16.0906 23.2847 16.8959C23.2471 17.0126 23.2078 17.1286 23.1668 17.2439C22.9258 17.9215 22.3269 18.4037 21.616 18.5127C20.9909 18.6086 20.3526 18.667 19.7039 18.6853ZM18.1899 19.3034C17.8119 20.1198 17.0495 20.6907 16.1613 20.8333C15.4572 20.9464 14.7354 21.0051 14.0001 21.0051C13.2649 21.0051 12.5431 20.9464 11.8391 20.8334C10.9508 20.6907 10.1884 20.1198 9.81046 19.3035C9.61334 18.8777 9.43922 18.4388 9.28973 17.9883C8.95158 16.9693 9.24796 15.8249 10.13 15.2128C11.2327 14.4476 12.5651 14.0003 14.0001 14.0003C15.4352 14.0003 16.7676 14.4477 17.8703 15.2128C18.7523 15.8249 19.0487 16.9693 18.7106 17.9883C18.5611 18.4387 18.387 18.8777 18.1899 19.3034Z" fill="#18202A"/>
</svg>
