<svg width="28" height="28" viewBox="0 0 28 28" fill="none" xmlns="http://www.w3.org/2000/svg">
<path d="M7.76705 6.67108C4.8304 8.55566 2.63136 11.3106 1.54278 12.85C1.05149 13.5448 1.05149 14.455 1.54278 15.1498C3.30715 17.6449 7.98875 23.3333 14 23.3333C16.8643 23.3333 19.4268 22.0417 21.5155 20.4196L20.2674 19.1714C18.3928 20.5891 16.2623 21.5833 14 21.5833C11.5534 21.5833 9.26111 20.4206 7.27979 18.8169C5.31042 17.223 3.80539 15.3185 2.97163 14.1394C2.93637 14.0895 2.92432 14.0418 2.92432 13.9999C2.92432 13.9581 2.93637 13.9103 2.97164 13.8604C3.8054 12.6813 5.31042 10.7769 7.27979 9.18292C7.84177 8.72806 8.42877 8.30868 9.03722 7.94125L7.76705 6.67108Z" fill="#18202A"/>
<path d="M11.2937 10.1977C10.1071 11.0438 9.33333 12.4315 9.33333 13.9999C9.33333 16.5772 11.4227 18.6666 14 18.6666C15.5684 18.6666 16.9561 17.8928 17.8022 16.7063L16.5366 15.4406C16.0348 16.3221 15.0868 16.9166 14 16.9166C12.3892 16.9166 11.0833 15.6108 11.0833 13.9999C11.0833 12.9131 11.6778 11.9651 12.5593 11.4633L11.2937 10.1977Z" fill="#18202A"/>
<path d="M14.752 11.1811L13.0094 9.43859C13.3287 9.36959 13.6601 9.33325 14 9.33325C16.5773 9.33325 18.6667 11.4226 18.6667 13.9999C18.6667 14.3398 18.6303 14.6712 18.5613 14.9905L16.8188 13.248C16.551 12.2415 15.7584 11.4489 14.752 11.1811Z" fill="#18202A"/>
<path d="M21.6155 18.0446C23.1471 16.641 24.326 15.1328 25.0284 14.1394C25.0637 14.0896 25.0757 14.0418 25.0757 13.9999C25.0757 13.9581 25.0637 13.9103 25.0284 13.8604C24.1946 12.6813 22.6896 10.7769 20.7202 9.18292C18.7389 7.57928 16.4466 6.41659 14 6.41659C12.8537 6.41659 11.7413 6.67181 10.6789 7.10804L9.35365 5.7828C10.7785 5.10118 12.3385 4.66659 14 4.66659C20.0113 4.66659 24.6929 10.3549 26.4572 12.85C26.9485 13.5448 26.9485 14.455 26.4572 15.1498C25.7231 16.188 24.4839 17.779 22.854 19.2831L21.6155 18.0446Z" fill="#18202A"/>
<path fill-rule="evenodd" clip-rule="evenodd" d="M3.46461 3.46453C3.80632 3.12282 4.36034 3.12282 4.70205 3.46453L24.5354 23.2979C24.8771 23.6396 24.8771 24.1936 24.5354 24.5353C24.1937 24.877 23.6397 24.877 23.2979 24.5353L3.46461 4.70197C3.1229 4.36026 3.1229 3.80624 3.46461 3.46453Z" fill="#18202A"/>
</svg>
