<svg width="28" height="28" viewBox="0 0 28 28" fill="none" xmlns="http://www.w3.org/2000/svg">
<path fill-rule="evenodd" clip-rule="evenodd" d="M8.16667 1.16699H12.8333V12.8337H18.3663C18.2642 12.9246 18.1641 13.019 18.0662 13.1169L13.1164 18.0666C10.7345 20.4485 10.428 24.1199 12.1969 26.8337H8.16667C5.58934 26.8337 3.5 24.7443 3.5 22.167V5.83366C3.5 3.25633 5.58934 1.16699 8.16667 1.16699ZM23.8166 9.81691C24.0161 10.0164 24.1758 10.2484 24.2904 10.5003H15.1667V1.37657C15.4186 1.49124 15.6506 1.65089 15.8501 1.85041L23.8166 9.81691ZM26.3157 14.7668C24.4933 12.9443 21.5385 12.9443 19.7161 14.7668L18.8911 15.5917C18.4355 16.0473 18.4355 16.786 18.8911 17.2417C19.3467 17.6973 20.0854 17.6973 20.541 17.2417L21.366 16.4167C22.2772 15.5055 23.7546 15.5055 24.6658 16.4167C25.577 17.3279 25.577 18.8053 24.6658 19.7165L23.8409 20.5415C23.3853 20.9971 23.3853 21.7358 23.8409 22.1914C24.2965 22.647 25.0352 22.647 25.4908 22.1914L26.3157 21.3664C28.1382 19.544 28.1382 16.5892 26.3157 14.7668ZM14.7663 26.3162C12.9439 24.4937 12.9439 21.539 14.7663 19.7165L15.5913 18.8916C16.0469 18.436 16.7856 18.436 17.2412 18.8916C17.6968 19.3472 17.6968 20.0859 17.2412 20.5415L16.4162 21.3664C15.505 22.2777 15.505 23.7551 16.4162 24.6663C17.3275 25.5775 18.8049 25.5775 19.7161 24.6663L20.541 23.8413C20.9966 23.3857 21.7353 23.3857 22.191 23.8413C22.6466 24.2969 22.6466 25.0356 22.191 25.4912L21.366 26.3162C19.5435 28.1386 16.5888 28.1386 14.7663 26.3162ZM18.0662 23.0164C17.6105 22.5607 17.6105 21.8221 18.0662 21.3664L21.366 18.0666C21.8216 17.611 22.5603 17.611 23.0159 18.0666C23.4715 18.5222 23.4715 19.2609 23.0159 19.7165L19.7161 23.0164C19.2605 23.472 18.5218 23.472 18.0662 23.0164Z" fill="#18202A"/>
</svg>
