<svg width="28" height="28" viewBox="0 0 28 28" fill="none" xmlns="http://www.w3.org/2000/svg">
<g clip-path="url(#clip0_2294_10584)">
<path fill-rule="evenodd" clip-rule="evenodd" d="M14 12.8337C17.1111 12.8337 18.6667 9.91699 18.6667 6.27116C18.6667 3.35449 17.1111 1.16699 14 1.16699C10.8889 1.16699 9.33333 3.35449 9.33333 6.27116C9.33333 9.91699 10.8889 12.8337 14 12.8337ZM14 15.167C15.1349 15.167 16.2319 15.329 17.2691 15.6312C15.2841 17.121 14 19.494 14 22.167C14 23.8812 14.5282 25.472 15.4306 26.7857C14.9579 26.8175 14.4808 26.8337 14 26.8337C12.1947 26.8337 10.4426 26.6059 8.77092 26.1774C7.3487 25.813 6.14332 24.8603 5.48317 23.5489C5.46489 23.5126 5.44673 23.4762 5.42869 23.4398C4.5161 21.5969 4.82643 19.3391 6.38361 17.9959C8.42738 16.233 11.0892 15.167 14 15.167ZM28 22.167C28 25.3887 25.3883 28.0003 22.1667 28.0003C18.945 28.0003 16.3333 25.3887 16.3333 22.167C16.3333 18.9453 18.945 16.3337 22.1667 16.3337C25.3883 16.3337 28 18.9453 28 22.167ZM22.0339 24.0497C21.9931 24.0906 21.9455 24.124 21.8933 24.1486L19.1322 25.4479C18.9671 25.5256 18.7927 25.3598 18.862 25.191L20.0635 22.2632C20.0912 22.1957 20.1333 22.1351 20.1869 22.0856L23.8801 18.6764C24.0773 18.4944 24.383 18.5005 24.5728 18.6903L25.6295 19.747C25.8248 19.9423 25.8248 20.2589 25.6295 20.4541L22.0339 24.0497Z" fill="#18202A"/>
</g>
<defs>
<clipPath id="clip0_2294_10584">
<rect width="28" height="28" fill="white"/>
</clipPath>
</defs>
</svg>
