<svg width="28" height="28" viewBox="0 0 28 28" fill="none" xmlns="http://www.w3.org/2000/svg">
<path fill-rule="evenodd" clip-rule="evenodd" d="M20.4167 21.5837C21.3832 21.5837 22.1667 22.3672 22.1667 23.3337H24.5C26.433 23.3337 28 21.7667 28 19.8337V8.16699C28 6.234 26.433 4.66699 24.5 4.66699H22.1667C22.1667 5.63349 21.3832 6.41699 20.4167 6.41699C19.4502 6.41699 18.6667 5.63349 18.6667 4.66699H3.5C1.567 4.66699 0 6.234 0 8.16699V19.8337C0 21.7667 1.567 23.3337 3.5 23.3337H18.6667C18.6667 22.3672 19.4502 21.5837 20.4167 21.5837ZM4.375 9.33398C3.89175 9.33398 3.5 9.72574 3.5 10.209C3.5 10.6922 3.89175 11.084 4.375 11.084H14.875C15.3582 11.084 15.75 10.6922 15.75 10.209C15.75 9.72574 15.3582 9.33398 14.875 9.33398H4.375ZM3.5 13.709C3.5 13.2257 3.89175 12.834 4.375 12.834H14.875C15.3582 12.834 15.75 13.2257 15.75 13.709C15.75 14.1922 15.3582 14.584 14.875 14.584H4.375C3.89175 14.584 3.5 14.1922 3.5 13.709ZM4.375 16.334C3.89175 16.334 3.5 16.7257 3.5 17.209C3.5 17.6922 3.89175 18.084 4.375 18.084H7.29167C7.77492 18.084 8.16667 17.6922 8.16667 17.209C8.16667 16.7257 7.77492 16.334 7.29167 16.334H4.375ZM19.8333 10.5H21V17.5H19.8333V10.5Z" fill="#18202A"/>
</svg>
