<svg width="28" height="28" viewBox="0 0 28 28" fill="none" xmlns="http://www.w3.org/2000/svg">
<path fill-rule="evenodd" clip-rule="evenodd" d="M7.58337 10.3308C9.27008 9.82884 10.5 8.26635 10.5 6.41659C10.5 4.16142 8.67187 2.33325 6.41671 2.33325C4.16154 2.33325 2.33337 4.16142 2.33337 6.41659C2.33337 8.26635 3.56334 9.82884 5.25004 10.3308V16.9166C5.25004 20.1382 7.86171 22.7499 11.0834 22.7499H17.6691C18.1711 24.4366 19.7336 25.6666 21.5834 25.6666C23.8385 25.6666 25.6667 23.8384 25.6667 21.5833C25.6667 19.3281 23.8385 17.4999 21.5834 17.4999C19.7336 17.4999 18.1711 18.7299 17.6691 20.4166H11.0834C9.15038 20.4166 7.58337 18.8496 7.58337 16.9166V10.3308ZM6.41671 8.16659C7.38321 8.16659 8.16671 7.38308 8.16671 6.41659C8.16671 5.45009 7.38321 4.66659 6.41671 4.66659C5.45021 4.66659 4.66671 5.45009 4.66671 6.41659C4.66671 7.38308 5.45021 8.16659 6.41671 8.16659ZM21.5834 23.3333C22.5499 23.3333 23.3334 22.5498 23.3334 21.5833C23.3334 20.6168 22.5499 19.8333 21.5834 19.8333C20.6169 19.8333 19.8334 20.6168 19.8334 21.5833C19.8334 22.5498 20.6169 23.3333 21.5834 23.3333Z" fill="#18202A"/>
</svg>
