<svg width="28" height="28" viewBox="0 0 28 28" fill="none" xmlns="http://www.w3.org/2000/svg">
<g clip-path="url(#clip0_2547_8466)">
<path d="M14 14.0001C16.3333 14.0001 17.5 11.6667 17.5 8.75008C17.5 6.41675 16.3333 4.66675 14 4.66675C11.6667 4.66675 10.5 6.41675 10.5 8.75008C10.5 11.6667 11.6667 14.0001 14 14.0001Z" fill="#18202A"/>
<path d="M14.7792 25.6526C14.2794 24.5954 14 23.4137 14 22.1667C14 19.5166 15.2623 17.1612 17.2185 15.6692C16.2043 15.343 15.1227 15.1667 14 15.1667C11.9185 15.1667 9.97855 15.7724 8.34662 16.8171C6.81859 17.7953 6.30733 19.7444 6.91819 21.4528C7.09684 21.9524 7.29618 22.4422 7.51517 22.9211C8.13579 24.2783 9.41002 25.2181 10.8861 25.4375C11.9022 25.5885 12.942 25.6667 14 25.6667C14.2609 25.6667 14.5206 25.662 14.7792 25.6526Z" fill="#18202A"/>
<path d="M5.83335 14.0001C7.3889 14.0001 8.16668 12.5417 8.16668 10.7188C8.16668 9.2605 7.3889 8.16675 5.83335 8.16675C4.27779 8.16675 3.50002 9.2605 3.50002 10.7188C3.50002 12.5417 4.27779 14.0001 5.83335 14.0001Z" fill="#18202A"/>
<path d="M22.1667 14.0001C23.7222 14.0001 24.5 12.5417 24.5 10.7188C24.5 9.2605 23.7222 8.16675 22.1667 8.16675C20.6111 8.16675 19.8333 9.2605 19.8333 10.7188C19.8333 12.5417 20.6111 14.0001 22.1667 14.0001Z" fill="#18202A"/>
<path d="M4.7211 22.2386C4.03569 20.3218 4.25366 18.073 5.48152 16.3682C4.36775 16.4637 3.30986 16.7548 2.34233 17.2071C0.980762 17.8435 0.431349 19.4508 0.891024 20.8818C1.29321 22.1337 2.38536 23.0133 3.69044 23.1744C4.16708 23.2332 4.64865 23.2761 5.13463 23.3024C4.9875 22.9526 4.84955 22.5979 4.7211 22.2386Z" fill="#18202A"/>
<path fill-rule="evenodd" clip-rule="evenodd" d="M22.1666 28.0001C18.945 28.0001 16.3333 25.3884 16.3333 22.1667C16.3333 18.9451 18.945 16.3334 22.1666 16.3334C25.3883 16.3334 28 18.9451 28 22.1667C28 25.3884 25.3883 28.0001 22.1666 28.0001ZM22.1313 19.8688C21.7896 19.5271 21.7896 18.9731 22.1313 18.6314C22.473 18.2897 23.027 18.2897 23.3687 18.6314L26.2854 21.548C26.6271 21.8897 26.6271 22.4438 26.2854 22.7855L23.3687 25.7021C23.027 26.0438 22.473 26.0438 22.1313 25.7021C21.7896 25.3604 21.7896 24.8064 22.1313 24.4647L23.5542 23.0417H18.6666C18.1834 23.0417 17.7916 22.65 17.7916 22.1667C17.7916 21.6835 18.1834 21.2917 18.6666 21.2917H23.5542L22.1313 19.8688Z" fill="#18202A"/>
</g>
<defs>
<clipPath id="clip0_2547_8466">
<rect width="28" height="28" fill="white"/>
</clipPath>
</defs>
</svg>
