<svg width="28" height="28" viewBox="0 0 28 28" fill="none" xmlns="http://www.w3.org/2000/svg">
<path fill-rule="evenodd" clip-rule="evenodd" d="M12.1054 5.39406L11.1407 5.72743C10.0731 6.09634 9.09775 6.667 8.26061 7.39518L7.48924 8.06616L5.10835 7.2198L3.6781 9.69707L5.60025 11.3347L5.4077 12.336C5.30436 12.8734 5.25 13.4296 5.25 14.0001C5.25 14.5706 5.30437 15.1268 5.40771 15.6642L5.60026 16.6655L3.67808 18.3031L5.10834 20.7804L7.48927 19.934L8.26064 20.605C9.09777 21.3332 10.0731 21.9038 11.1407 22.2727L12.1054 22.6061L12.5614 25.0834H15.4219L15.8772 22.6101L16.8445 22.2778C17.9161 21.9097 18.8952 21.3384 19.7353 20.6085L20.5066 19.9385L22.875 20.7804L24.3052 18.3031L22.3963 16.6767L22.5903 15.6743C22.6949 15.1338 22.75 14.5742 22.75 14.0001C22.75 13.426 22.6949 12.8664 22.5903 12.3259L22.3963 11.3234L24.3052 9.69707L22.875 7.2198L20.5066 8.06171L19.7353 7.39167C18.8952 6.66181 17.9161 6.09048 16.8445 5.72233L15.8772 5.39002L15.4219 2.91675H12.5614L12.1054 5.39406ZM10.9283 2.12219C11.0302 1.56863 11.5128 1.16675 12.0757 1.16675H15.9077C16.4705 1.16675 16.9531 1.56863 17.0551 2.12219L17.4131 4.06728C18.7013 4.50984 19.8763 5.19594 20.8831 6.0706L22.7465 5.40819C23.2769 5.21966 23.8662 5.43668 24.1477 5.92413L26.0637 9.24274C26.3451 9.7302 26.2384 10.3491 25.8099 10.7141L24.3085 11.9934C24.4342 12.6429 24.5 13.3138 24.5 14.0001C24.5 14.6864 24.4342 15.3573 24.3084 16.0068L25.8099 17.2861C26.2384 17.6511 26.3451 18.27 26.0637 18.7575L24.1477 22.0761C23.8662 22.5635 23.2769 22.7806 22.7465 22.592L20.883 21.9296C19.8763 22.8042 18.7013 23.4903 17.4131 23.9329L17.0551 25.878C16.9531 26.4315 16.4705 26.8334 15.9077 26.8334H12.0757C11.5128 26.8334 11.0302 26.4315 10.9283 25.878L10.5691 23.9268C9.2858 23.4833 8.11532 22.798 7.11212 21.9254L5.2368 22.592C4.70645 22.7806 4.1171 22.5635 3.83567 22.0761L1.91967 18.7575C1.63823 18.27 1.74496 17.6511 2.17341 17.2861L3.6892 15.9946C3.56502 15.3489 3.5 14.6821 3.5 14.0001C3.5 13.3181 3.56501 12.6513 3.68919 12.0056L2.17342 10.7141C1.74497 10.3491 1.63824 9.7302 1.91968 9.24274L3.83568 5.92413C4.11711 5.43668 4.70646 5.21966 5.23681 5.40819L7.11209 6.07481C8.1153 5.20217 9.28579 4.51687 10.5691 4.07341L10.9283 2.12219Z" fill="#18202A"/>
<path fill-rule="evenodd" clip-rule="evenodd" d="M14 16.9167C15.6108 16.9167 16.9167 15.6109 16.9167 14.0001C16.9167 12.3893 15.6108 11.0834 14 11.0834C12.3892 11.0834 11.0833 12.3893 11.0833 14.0001C11.0833 15.6109 12.3892 16.9167 14 16.9167ZM14 18.6667C16.5773 18.6667 18.6667 16.5774 18.6667 14.0001C18.6667 11.4228 16.5773 9.33342 14 9.33342C11.4227 9.33342 9.33332 11.4228 9.33332 14.0001C9.33332 16.5774 11.4227 18.6667 14 18.6667Z" fill="#18202A"/>
</svg>
