<svg width="28" height="28" viewBox="0 0 28 28" fill="none" xmlns="http://www.w3.org/2000/svg">
<path fill-rule="evenodd" clip-rule="evenodd" d="M22.9916 5.00846C23.4472 5.46407 23.4472 6.20276 22.9916 6.65837L6.65829 22.9917C6.20268 23.4473 5.46398 23.4473 5.00837 22.9917C4.55276 22.5361 4.55276 21.7974 5.00837 21.3418L21.3417 5.00846C21.7973 4.55285 22.536 4.55285 22.9916 5.00846Z" fill="#18202A"/>
<path fill-rule="evenodd" clip-rule="evenodd" d="M5.00837 5.00846C5.46398 4.55285 6.20268 4.55285 6.65829 5.00846L22.9916 21.3418C23.4472 21.7974 23.4472 22.5361 22.9916 22.9917C22.536 23.4473 21.7973 23.4473 21.3417 22.9917L5.00837 6.65837C4.55276 6.20276 4.55276 5.46407 5.00837 5.00846Z" fill="#18202A"/>
</svg>
