<svg width="28" height="28" viewBox="0 0 28 28" fill="none" xmlns="http://www.w3.org/2000/svg">
<path fill-rule="evenodd" clip-rule="evenodd" d="M1.50282 0.257843C1.15903 -0.0859477 0.601634 -0.0859477 0.257843 0.257843C-0.0859477 0.601634 -0.0859476 1.15903 0.257843 1.50282L1.96993 3.2149C1.46292 3.96152 1.16667 4.86283 1.16667 5.83333V16.3333C1.16667 18.5235 2.67543 20.3613 4.71029 20.864C5.07001 20.9529 5.44616 21 5.83333 21H6.4697L5.79324 24.2352C5.58541 25.2292 6.65864 25.9958 7.53147 25.4768L15.0606 21H19.755L22.9972 24.2422C23.341 24.5859 23.8984 24.5859 24.2422 24.2422C24.5859 23.8984 24.5859 23.341 24.2422 22.9972L1.50282 0.257843ZM18.005 19.25L13.3384 14.5833H9.04167C8.55842 14.5833 8.16667 14.1916 8.16667 13.7083C8.16667 13.2251 8.55842 12.8333 9.04167 12.8333H11.5884L3.24419 4.48917C3.03493 4.89141 2.91667 5.34856 2.91667 5.83333V16.3333C2.91667 17.9442 4.2225 19.25 5.83333 19.25H6.4697C6.99666 19.25 7.49557 19.4875 7.82787 19.8964C8.16018 20.3054 8.2905 20.8424 8.18265 21.3582L7.77782 23.2943L14.1662 19.4958C14.4368 19.3349 14.7458 19.25 15.0606 19.25H18.005ZM22.8803 19.1621C24.1461 18.8437 25.0833 17.698 25.0833 16.3333V5.83333C25.0833 4.2225 23.7775 2.91667 22.1667 2.91667H6.63485L4.96541 1.24723C5.24663 1.19433 5.53675 1.16667 5.83333 1.16667H22.1667C24.744 1.16667 26.8333 3.256 26.8333 5.83333V16.3333C26.8333 18.1677 25.775 19.7548 24.2356 20.5174L22.8803 19.1621ZM11.8848 8.16667L13.6348 9.91667H18.9583C19.4416 9.91667 19.8333 9.52492 19.8333 9.04167C19.8333 8.55842 19.4416 8.16667 18.9583 8.16667H11.8848Z" fill="#18202A"/>
</svg>
