<svg width="28" height="28" viewBox="0 0 28 28" fill="none" xmlns="http://www.w3.org/2000/svg">
<path fill-rule="evenodd" clip-rule="evenodd" d="M5.57283 3.92144C5.05664 3.40526 4.26852 3.35648 3.8125 3.8125C3.35648 4.26852 3.40526 5.05664 3.92144 5.57283L6.62567 8.27706C6.38883 8.20506 6.12468 8.16667 5.83323 8.16667C4.27767 8.16667 3.49989 9.26042 3.49989 10.7188C3.49989 12.5417 4.27767 14 5.83323 14C7.38878 14 8.16656 12.5417 8.16656 10.7188C8.16656 10.3349 8.11268 9.97633 8.00492 9.6563L13.5258 15.1772C11.6241 15.2617 9.85386 15.8521 8.3465 16.817C6.81847 17.7952 6.30721 19.7443 6.91807 21.4527C7.09672 21.9523 7.29605 22.4421 7.51505 22.921C8.13567 24.2782 9.40989 25.218 10.886 25.4374C11.9021 25.5884 12.9418 25.6667 13.9999 25.6667C15.0579 25.6667 16.0977 25.5884 17.1137 25.4374C18.5899 25.218 19.8641 24.2782 20.4847 22.921C20.5672 22.7406 20.6469 22.5586 20.7238 22.3752L22.4272 24.0786C22.9434 24.5947 23.7315 24.6435 24.1875 24.1875C24.6435 23.7315 24.5947 22.9434 24.0786 22.4272L5.57283 3.92144ZM16.8978 11.9532L11.1295 6.18486C11.6994 5.247 12.6562 4.66667 13.9999 4.66667C16.3332 4.66667 17.4999 6.41667 17.4999 8.75C17.4999 9.95968 17.2992 11.069 16.8978 11.9532ZM22.5367 16.3937C23.0047 17.051 23.3237 17.7879 23.4995 18.5549L26.6991 21.7544C26.8743 21.5012 27.0146 21.22 27.1129 20.9162C27.5474 19.5726 27.065 18.0623 25.8157 17.4041C24.8161 16.8775 23.7094 16.5269 22.5367 16.3937ZM22.1666 14C23.7221 14 24.4999 12.5417 24.4999 10.7188C24.4999 9.26042 23.7221 8.16667 22.1666 8.16667C20.611 8.16667 19.8332 9.26042 19.8332 10.7188C19.8332 12.5417 20.611 14 22.1666 14ZM4.72098 22.2385C4.03557 20.3217 4.25354 18.0729 5.4814 16.3681C4.36763 16.4636 3.30973 16.7548 2.34221 17.207C0.98064 17.8434 0.431227 19.4507 0.890902 20.8817C1.29309 22.1336 2.38524 23.0132 3.69032 23.1743C4.16695 23.2331 4.64853 23.276 5.1345 23.3023C4.98738 22.9525 4.84943 22.5978 4.72098 22.2385Z" fill="#18202A"/>
</svg>
