<svg width="28" height="28" viewBox="0 0 28 28" fill="none" xmlns="http://www.w3.org/2000/svg">
<path fill-rule="evenodd" clip-rule="evenodd" d="M4.66665 2.33337C3.37798 2.33337 2.33331 3.37804 2.33331 4.66671V7.00004C2.33331 8.2887 3.37798 9.33337 4.66665 9.33337H6.12498V21C6.12498 22.772 7.5614 24.2084 9.33331 24.2084H17.6696C18.0157 25.0635 18.8541 25.6667 19.8333 25.6667H23.3333C24.622 25.6667 25.6666 24.622 25.6666 23.3334V22.1667C25.6666 20.878 24.622 19.8334 23.3333 19.8334H19.8333C18.5446 19.8334 17.5 20.878 17.5 22.1667V22.4584H9.33331C8.5279 22.4584 7.87498 21.8055 7.87498 21V16.0417H17.6696C18.0157 16.8968 18.8541 17.5 19.8333 17.5H23.3333C24.622 17.5 25.6666 16.4554 25.6666 15.1667V14C25.6666 12.7114 24.622 11.6667 23.3333 11.6667H19.8333C18.5446 11.6667 17.5 12.7114 17.5 14V14.2917H7.87498V9.33337H10.5C11.7886 9.33337 12.8333 8.2887 12.8333 7.00004V4.66671C12.8333 3.37804 11.7886 2.33337 10.5 2.33337H4.66665ZM4.08331 4.66671C4.08331 4.34454 4.34448 4.08337 4.66665 4.08337H10.5C10.8221 4.08337 11.0833 4.34454 11.0833 4.66671V7.00004C11.0833 7.32221 10.8221 7.58337 10.5 7.58337H4.66665C4.34448 7.58337 4.08331 7.32221 4.08331 7.00004V4.66671ZM23.9166 14C23.9166 13.6779 23.6555 13.4167 23.3333 13.4167H19.8333C19.5111 13.4167 19.25 13.6779 19.25 14V15.1667C19.25 15.4889 19.5111 15.75 19.8333 15.75H23.3333C23.6555 15.75 23.9166 15.4889 23.9166 15.1667V14ZM19.25 22.1667C19.25 21.8445 19.5111 21.5834 19.8333 21.5834H23.3333C23.6555 21.5834 23.9166 21.8445 23.9166 22.1667V23.3334C23.9166 23.6555 23.6555 23.9167 23.3333 23.9167H19.8333C19.5111 23.9167 19.25 23.6555 19.25 23.3334V22.1667Z" fill="#18202A"/>
</svg>
