<svg width="28" height="28" viewBox="0 0 28 28" fill="none" xmlns="http://www.w3.org/2000/svg">
<path fill-rule="evenodd" clip-rule="evenodd" d="M1.16666 5.83317C1.16666 3.25584 3.256 1.1665 5.83333 1.1665H22.1667C24.744 1.1665 26.8333 3.25584 26.8333 5.83317V16.3332C26.8333 18.9105 24.744 20.9998 22.1667 20.9998H15.0606L7.53146 25.4766C6.65864 25.9956 5.58541 25.229 5.79324 24.2351L6.46969 20.9998H5.83333C3.256 20.9998 1.16666 18.9105 1.16666 16.3332V5.83317ZM12.1499 6.99984C11.883 6.99984 11.6667 7.2162 11.6667 7.48309C11.6667 7.61125 11.7176 7.73417 11.8082 7.8248L11.9083 7.92488C12.3639 8.38049 12.3639 9.11918 11.9083 9.57479C11.4527 10.0304 10.714 10.0304 10.2584 9.57479L10.1583 9.47471C9.63008 8.9465 9.33333 8.23009 9.33333 7.48309C9.33333 5.92753 10.5944 4.6665 12.1499 4.6665H15.466C17.2337 4.6665 18.6667 6.09948 18.6667 7.86716C18.6667 9.24481 17.7851 10.4679 16.4781 10.9036L16.1189 11.0233C15.5502 11.2129 15.1667 11.7451 15.1667 12.3445V12.8332C15.1667 13.4775 14.6443 13.9998 14 13.9998C13.3557 13.9998 12.8333 13.4775 12.8333 12.8332V12.3445C12.8333 10.7407 13.8596 9.31687 15.3811 8.80971L15.7403 8.68997C16.0944 8.57191 16.3333 8.24048 16.3333 7.86716C16.3333 7.38815 15.945 6.99984 15.466 6.99984H12.1499ZM14 15.1665C13.3557 15.1665 12.8333 15.6888 12.8333 16.3332C12.8333 16.9775 13.3557 17.4998 14 17.4998C14.6443 17.4998 15.1667 16.9775 15.1667 16.3332C15.1667 15.6888 14.6443 15.1665 14 15.1665Z" fill="#18202A"/>
</svg>
