<svg width="28" height="28" viewBox="0 0 28 28" fill="none" xmlns="http://www.w3.org/2000/svg">
<path fill-rule="evenodd" clip-rule="evenodd" d="M15.524 4.63383C15.5237 4.63416 15.5234 4.6345 15.523 4.63483L6.18712 14.0165L6.18511 14.0185C3.80273 16.4009 3.80273 20.3312 6.18511 22.7135C8.56749 25.0959 12.4978 25.0959 14.8801 22.7135L23.9434 13.6503C24.399 13.1947 25.1377 13.1947 25.5933 13.6503C26.0489 14.1059 26.0489 14.8446 25.5933 15.3002L16.53 24.3635C13.2364 27.6571 7.82879 27.6571 4.53519 24.3635C1.24194 21.0702 1.24159 15.6634 4.53413 12.3697C4.53448 12.3693 4.53484 12.369 4.53519 12.3686L13.8711 2.98693L13.8731 2.98492C16.297 0.561018 20.2399 0.561018 22.6638 2.98492C25.0877 5.40881 25.0877 9.35169 22.6638 11.7756L22.6616 11.7777L13.9209 20.4727C13.9204 20.4732 13.9199 20.4736 13.9195 20.4741C12.4015 21.9905 9.93744 21.9654 8.39795 20.49L8.38021 20.4727C6.86235 18.9548 6.88703 16.4897 8.36285 14.9497L8.38246 14.9297L16.8049 6.55305C17.2617 6.09868 18.0004 6.10069 18.4548 6.55754C18.9092 7.0144 18.9072 7.75309 18.4503 8.20745L10.0391 16.573C9.421 17.2271 9.44476 18.2277 10.0215 18.8141C10.6789 19.4349 11.686 19.4078 12.271 18.8227L12.2732 18.8206L21.0139 10.1257C21.0142 10.1253 21.0146 10.1249 21.015 10.1245C22.5265 8.61177 22.5262 6.14713 21.0139 4.63483C19.5015 3.12249 17.0368 3.12216 15.524 4.63383Z" fill="#18202A"/>
</svg>
