<svg width="28" height="28" viewBox="0 0 28 28" fill="none" xmlns="http://www.w3.org/2000/svg">
<path fill-rule="evenodd" clip-rule="evenodd" d="M2.38026 8.16684L13.7156 14.4867C13.8921 14.5852 14.1071 14.5852 14.2837 14.4867L25.6195 8.16684L14.2837 1.84726C14.1071 1.74883 13.8921 1.74883 13.7156 1.84727L2.38026 8.16684ZM12.8634 16.0152C13.5697 16.409 14.4295 16.409 15.1358 16.0152L21.5833 12.4206V16.7329C21.5833 17.8361 20.9538 19.0064 19.5893 19.9714C18.2291 20.9332 16.2585 21.5833 14 21.5833C11.7415 21.5833 9.77092 20.9332 8.41074 19.9714C7.0462 19.0064 6.41667 17.8361 6.41667 16.7329V12.4209L12.8634 16.0152ZM27.3856 9.18583L23.3333 11.445V16.7329C23.3333 20.3785 19.1547 23.3333 14 23.3333C8.84533 23.3333 4.66667 20.3785 4.66667 16.7329V11.4452L2.91667 10.4695L2.91667 22.9466C3.60644 23.2742 4.08333 23.9773 4.08333 24.7917C4.08333 25.9193 3.16925 26.8334 2.04167 26.8334C0.914085 26.8334 0 25.9193 0 24.7917C0 23.9773 0.47689 23.2742 1.16667 22.9466L1.16667 9.49383L0.614224 9.18582C-0.183838 8.74087 -0.183828 7.59276 0.614243 7.14782L12.8634 0.318766C13.5697 -0.0749975 14.4295 -0.0750057 15.1358 0.318744L27.3855 7.14781C28.1836 7.59274 28.1836 8.74088 27.3856 9.18583ZM14 9.91675C15.4497 9.91675 16.625 9.13325 16.625 8.16675C16.625 7.20025 15.4497 6.41675 14 6.41675C12.5503 6.41675 11.375 7.20025 11.375 8.16675C11.375 9.13325 12.5503 9.91675 14 9.91675Z" fill="#18202A"/>
</svg>
