<svg width="28" height="28" viewBox="0 0 28 28" fill="none" xmlns="http://www.w3.org/2000/svg">
<path d="M1.4245 1.42435C1.76829 1.08056 2.32569 1.08056 2.66948 1.42435L24.2421 22.997C24.5859 23.3408 24.5859 23.8982 24.2421 24.242C23.8984 24.5858 23.341 24.5858 22.9972 24.242L1.4245 2.66932C1.08071 2.32553 1.08071 1.76814 1.4245 1.42435Z" fill="#18202A"/>
<path d="M5.03805 3.79459L2.19818 4.64879L2.04908 4.70225C1.51819 4.92473 1.16666 5.43178 1.16666 5.99961C1.16666 20.432 8.38474 24.3924 12.754 26.4144L13.3719 26.6975C13.5708 26.7879 13.7856 26.8332 14.0003 26.8332C14.215 26.8332 14.4292 26.7879 14.6275 26.6975C16.7874 25.7138 19.8887 24.3007 22.4246 21.1811L21.1798 19.9364C21.1149 20.0183 21.0492 20.0994 20.9827 20.1796L20.7429 20.4631C19.2314 22.2125 17.6924 23.2779 15.2061 24.4919L14.341 24.9032L13.9988 25.0598L13.6572 24.9026C10.5052 23.4385 8.7761 22.3024 7.01721 20.1794L6.78177 19.8875C4.38174 16.8324 3.00445 12.5471 2.92071 6.58212L2.91782 6.259L6.44247 5.19901L5.03805 3.79459Z" fill="#18202A"/>
<path d="M7.83964 6.59618L4.66666 7.5505L4.67039 7.65817C4.88876 12.6633 6.11389 16.2376 8.11586 18.793L8.33332 19.0629C9.74728 20.7697 11.1568 21.7661 13.6105 22.9584L13.9685 23.1302L14.3241 22.9594C16.6563 21.8265 18.0459 20.8702 19.3914 19.314L19.6036 19.0631C19.7095 18.9353 19.8133 18.8049 19.9151 18.6717L18.6649 17.4214C18.534 17.6005 18.3995 17.7732 18.2616 17.9399L18.0617 18.1762C16.997 19.406 15.9067 20.2098 13.9684 21.1834C11.9291 20.1589 10.8196 19.3187 9.68835 17.9554L9.48637 17.7047C7.93236 15.7169 6.83804 12.9023 6.49736 8.82733L9.24454 8.00108L7.83964 6.59618Z" fill="#18202A"/>
<path d="M11.1472 7.42883L9.74227 6.02394L13.9685 4.75284L23.2692 7.5505L23.2393 8.18679C23.0162 11.9623 22.2015 14.8978 20.9002 17.1819L19.6101 15.8917C20.5442 14.093 21.1913 11.7944 21.4394 8.82757L13.9685 6.58029L11.1472 7.42883Z" fill="#18202A"/>
<path d="M22.1973 18.479C23.9906 15.5537 25.0077 11.6815 25.0793 6.58062L25.081 6.259L14.0012 2.92584L8.34514 4.62681L6.94065 3.22232L13.5626 1.23051C13.7907 1.16224 14.0316 1.14858 14.2648 1.18955L14.438 1.23051L25.8023 4.64879C26.4155 4.83362 26.8339 5.38073 26.8333 5.99961C26.8333 12.3861 25.4199 16.7221 23.4653 19.747L22.1973 18.479Z" fill="#18202A"/>
</svg>
