<svg width="28" height="28" viewBox="0 0 28 28" fill="none" xmlns="http://www.w3.org/2000/svg">
<path fill-rule="evenodd" clip-rule="evenodd" d="M21.5479 21.548C21.8896 21.2063 22.4437 21.2063 22.7854 21.548L25.1187 23.8813C25.4604 24.223 25.4604 24.7771 25.1187 25.1188C24.777 25.4605 24.223 25.4605 23.8813 25.1188L21.5479 22.7854C21.2062 22.4437 21.2062 21.8897 21.5479 21.548Z" fill="#18202A"/>
<path fill-rule="evenodd" clip-rule="evenodd" d="M12.8333 21.5834C17.6658 21.5834 21.5833 17.6659 21.5833 12.8334C21.5833 8.00088 17.6658 4.08337 12.8333 4.08337C8.00082 4.08337 4.08331 8.00088 4.08331 12.8334C4.08331 17.6659 8.00082 21.5834 12.8333 21.5834ZM23.3333 12.8334C23.3333 18.6324 18.6323 23.3334 12.8333 23.3334C7.03432 23.3334 2.33331 18.6324 2.33331 12.8334C2.33331 7.03438 7.03432 2.33337 12.8333 2.33337C18.6323 2.33337 23.3333 7.03438 23.3333 12.8334Z" fill="#18202A"/>
</svg>
