<svg width="28" height="28" viewBox="0 0 28 28" fill="none" xmlns="http://www.w3.org/2000/svg">
<path fill-rule="evenodd" clip-rule="evenodd" d="M4.66667 4.67139C2.73367 4.67139 1.16667 6.23839 1.16667 8.17139V17.5047C1.16667 19.4377 2.73367 21.0047 4.66667 21.0047H1.16667C0.522334 21.0047 0 21.5271 0 22.1714C0 22.8157 0.522335 23.3381 1.16667 23.3381H26.8333C27.4777 23.3381 28 22.8157 28 22.1714C28 21.5271 27.4777 21.0047 26.8333 21.0047H23.3333C25.2663 21.0047 26.8333 19.4377 26.8333 17.5047V8.17139C26.8333 6.23839 25.2663 4.67139 23.3333 4.67139H4.66667ZM15.1666 8.75589C15.1666 8.2362 15.795 7.97593 16.1625 8.34341L20.125 12.3059C20.3528 12.5337 20.3528 12.9031 20.125 13.1309L16.1625 17.0934C15.795 17.4609 15.1666 17.2006 15.1666 16.6809V14.7614C13.1613 14.7794 11.942 14.9888 11.0461 15.4692C10.1157 15.9682 9.49345 16.781 8.70984 18.1161C8.64322 18.2296 8.50882 18.2844 8.38181 18.2499C8.25479 18.2153 8.16664 18.1 8.16664 17.9684C8.16664 15.0412 9.12643 13.1963 10.5551 12.0938C11.8873 11.0656 13.5839 10.7172 15.1666 10.6801V8.75589Z" fill="#18202A"/>
</svg>
