<svg width="28" height="28" viewBox="0 0 28 28" fill="none" xmlns="http://www.w3.org/2000/svg">
<path d="M8.16667 13.9998C8.16667 15.2885 7.122 16.3332 5.83333 16.3332C4.54467 16.3332 3.5 15.2885 3.5 13.9998C3.5 12.7112 4.54467 11.6665 5.83333 11.6665C7.122 11.6665 8.16667 12.7112 8.16667 13.9998Z" fill="#18202A"/>
<path d="M16.3333 13.9998C16.3333 15.2885 15.2887 16.3332 14 16.3332C12.7113 16.3332 11.6667 15.2885 11.6667 13.9998C11.6667 12.7112 12.7113 11.6665 14 11.6665C15.2887 11.6665 16.3333 12.7112 16.3333 13.9998Z" fill="#18202A"/>
<path d="M24.5 13.9998C24.5 15.2885 23.4553 16.3332 22.1667 16.3332C20.878 16.3332 19.8333 15.2885 19.8333 13.9998C19.8333 12.7112 20.878 11.6665 22.1667 11.6665C23.4553 11.6665 24.5 12.7112 24.5 13.9998Z" fill="#18202A"/>
</svg>
