<svg width="28" height="28" viewBox="0 0 28 28" fill="none" xmlns="http://www.w3.org/2000/svg">
<path fill-rule="evenodd" clip-rule="evenodd" d="M23.3219 7.88081C23.1765 6.08144 21.6702 4.6665 19.8334 4.6665H8.16671C6.3299 4.6665 4.82357 6.08144 4.6782 7.88081C4.0222 8.4628 3.58639 9.28749 3.51153 10.2141C2.78882 10.8553 2.33337 11.7911 2.33337 12.8332V22.1665C2.33337 24.0995 3.90038 25.6665 5.83337 25.6665H22.1667C24.0997 25.6665 25.6667 24.0995 25.6667 22.1665V12.8332C25.6667 11.791 25.2113 10.8553 24.4885 10.2141C24.4137 9.28749 23.9779 8.4628 23.3219 7.88081ZM21.1402 7.0026C20.8197 6.64298 20.353 6.4165 19.8334 6.4165H8.16671C7.64709 6.4165 7.18036 6.64297 6.85985 7.00259C6.90635 7.00076 6.95309 6.99984 7.00004 6.99984H21C21.047 6.99984 21.0937 7.00077 21.1402 7.0026ZM5.83337 9.33317C5.78642 9.33317 5.73969 9.3341 5.69318 9.33593C6.01369 8.97631 6.48042 8.74984 7.00004 8.74984H21C21.5197 8.74984 21.9864 8.97631 22.3069 9.33593C22.2604 9.3341 22.2137 9.33317 22.1667 9.33317H5.83337ZM19.5116 14.8044C19.9559 14.3379 19.9379 13.5994 19.4713 13.155C19.0047 12.7106 18.2663 12.7287 17.8219 13.1952L12.0456 19.2603L10.2192 17.1295C9.79987 16.6403 9.06335 16.5836 8.57414 17.0029C8.08492 17.4223 8.02827 18.1588 8.4476 18.648L11.1143 21.7591C11.329 22.0096 11.6397 22.1575 11.9695 22.1661C12.2993 22.1747 12.6174 22.0433 12.8449 21.8044L19.5116 14.8044Z" fill="#18202A"/>
</svg>
