<svg width="28" height="28" viewBox="0 0 28 28" fill="none" xmlns="http://www.w3.org/2000/svg">
<path fill-rule="evenodd" clip-rule="evenodd" d="M3.20834 1.16699C2.72509 1.16699 2.33334 1.55874 2.33334 2.04199C2.33334 2.52524 2.72509 2.91699 3.20834 2.91699H4.66668V23.3337C4.66668 23.5534 4.68692 23.7683 4.72564 23.9768C4.70975 24.0461 4.69695 24.1166 4.68739 24.1881C4.84905 25.5617 5.93867 26.6513 7.31227 26.8129C7.38377 26.8034 7.45423 26.7906 7.52353 26.7747C7.73201 26.8134 7.94698 26.8337 8.16668 26.8337H19.8333C20.053 26.8337 20.268 26.8134 20.4765 26.7747C20.5458 26.7906 20.6163 26.8034 20.6877 26.8129C22.0613 26.6513 23.151 25.5617 23.3126 24.1881C23.3031 24.1166 23.2903 24.0461 23.2744 23.9768C23.3131 23.7683 23.3333 23.5534 23.3333 23.3337V2.91699H24.7917C25.2749 2.91699 25.6667 2.52524 25.6667 2.04199C25.6667 1.55874 25.2749 1.16699 24.7917 1.16699H23.3333H4.66668H3.20834ZM21.5833 22.2405V2.91699H6.41668V22.2405C6.60312 22.1925 6.79858 22.167 7.00001 22.167C8.28867 22.167 9.33334 23.2117 9.33334 24.5003C9.33334 24.7017 9.30782 24.8972 9.25983 25.0837H18.7402C18.6922 24.8972 18.6667 24.7017 18.6667 24.5003C18.6667 23.2117 19.7113 22.167 21 22.167C21.2014 22.167 21.3969 22.1925 21.5833 22.2405ZM18.1187 14.2566C18.4604 14.5983 18.4604 15.1523 18.1187 15.494L14.6187 18.994C14.277 19.3358 13.723 19.3358 13.3813 18.994L9.88129 15.494C9.53958 15.1523 9.53958 14.5983 9.88129 14.2566C10.223 13.9149 10.777 13.9149 11.1187 14.2566L13.125 16.2629V9.04199C13.125 8.55874 13.5168 8.16699 14 8.16699C14.4833 8.16699 14.875 8.55874 14.875 9.04199V16.2629L16.8813 14.2566C17.223 13.9149 17.777 13.9149 18.1187 14.2566Z" fill="#18202A"/>
</svg>
