<svg width="28" height="28" viewBox="0 0 28 28" fill="none" xmlns="http://www.w3.org/2000/svg">
<path d="M10.7917 2.9165C11.2749 2.9165 11.6667 3.30825 11.6667 3.7915V8.45817C11.6667 10.2301 10.2303 11.6665 8.45835 11.6665H3.79169C3.30844 11.6665 2.91669 11.2748 2.91669 10.7915C2.91669 10.3083 3.30844 9.9165 3.79169 9.9165H8.45835C9.26377 9.9165 9.91669 9.26359 9.91669 8.45817V3.7915C9.91669 3.30825 10.3084 2.9165 10.7917 2.9165Z" fill="#18202A"/>
<path d="M2.91669 17.2082C2.91669 16.7249 3.30844 16.3332 3.79169 16.3332H8.45835C10.2303 16.3332 11.6667 17.7696 11.6667 19.5415V24.2082C11.6667 24.6914 11.2749 25.0832 10.7917 25.0832C10.3084 25.0832 9.91669 24.6914 9.91669 24.2082V19.5415C9.91669 18.7361 9.26377 18.0832 8.45835 18.0832H3.79169C3.30844 18.0832 2.91669 17.6914 2.91669 17.2082Z" fill="#18202A"/>
<path d="M25.0834 10.7915C25.0834 11.2748 24.6916 11.6665 24.2084 11.6665H19.5417C17.7698 11.6665 16.3334 10.2301 16.3334 8.45817V3.7915C16.3334 3.30825 16.7251 2.9165 17.2084 2.9165C17.6916 2.9165 18.0834 3.30825 18.0834 3.7915V8.45817C18.0834 9.26359 18.7363 9.9165 19.5417 9.9165H24.2084C24.6916 9.9165 25.0834 10.3083 25.0834 10.7915Z" fill="#18202A"/>
<path d="M17.2084 25.0832C16.7251 25.0832 16.3334 24.6914 16.3334 24.2082L16.3334 19.362C16.3334 17.6892 17.6894 16.3332 19.3622 16.3332H24.2084C24.6916 16.3332 25.0834 16.7249 25.0834 17.2082C25.0834 17.6914 24.6916 18.0832 24.2084 18.0832H19.3622C18.6559 18.0832 18.0834 18.6557 18.0834 19.362L18.0834 24.2082C18.0834 24.6914 17.6916 25.0832 17.2084 25.0832Z" fill="#18202A"/>
</svg>
