<svg width="28" height="28" viewBox="0 0 28 28" fill="none" xmlns="http://www.w3.org/2000/svg">
<path fill-rule="evenodd" clip-rule="evenodd" d="M4.66667 1.1665C4.02233 1.1665 3.5 1.68884 3.5 2.33317C3.5 2.9775 4.02233 3.49984 4.66667 3.49984H5.27063C5.25694 3.72318 5.25 3.94847 5.25 4.17543C5.25 7.96304 7.19073 11.3136 10.1216 12.9308C10.5126 13.1466 10.6667 13.4547 10.6667 13.6724V14.3276C10.6667 14.5453 10.5126 14.8535 10.1216 15.0693C7.19073 16.6865 5.25 20.037 5.25 23.8246C5.25 23.9981 5.25405 24.1705 5.26207 24.3419C5.25464 24.3935 5.25056 24.4462 5.25005 24.4998H4.66667C4.02233 24.4998 3.5 25.0222 3.5 25.6665C3.5 26.3108 4.02233 26.8332 4.66667 26.8332H23.3333C23.9777 26.8332 24.5 26.3108 24.5 25.6665C24.5 25.0222 23.9777 24.4998 23.3333 24.4998H22.7499C22.7494 24.4462 22.7454 24.3935 22.7379 24.3419C22.7459 24.1705 22.75 23.9981 22.75 23.8246C22.75 20.037 20.8093 16.6865 17.8784 15.0693C17.4874 14.8535 17.3333 14.5453 17.3333 14.3276V13.6724C17.3333 13.4547 17.4874 13.1466 17.8784 12.9308C20.8093 11.3136 22.75 7.96304 22.75 4.17543C22.75 3.94847 22.7431 3.72318 22.7294 3.49984H23.3333C23.9777 3.49984 24.5 2.9775 24.5 2.33317C24.5 1.68884 23.9777 1.1665 23.3333 1.1665H4.66667ZM7.58333 4.17543C7.58333 3.94748 7.5922 3.72215 7.60952 3.49984H20.3905C20.4078 3.72215 20.4167 3.94748 20.4167 4.17543C20.4167 7.18836 18.8744 9.71622 16.7511 10.8879C15.8273 11.3977 15 12.3883 15 13.6724V14.3276C15 15.6118 15.8273 16.6024 16.7511 17.1122C18.8744 18.2838 20.4167 20.8117 20.4167 23.8246C20.4167 24.0217 20.41 24.2169 20.397 24.4098C20.395 24.44 20.3941 24.4701 20.3944 24.4998H7.60562C7.60586 24.47 7.60498 24.44 7.60295 24.4097C7.58996 24.2168 7.58333 24.0217 7.58333 23.8246C7.58333 20.8117 9.12559 18.2838 11.2489 17.1122C12.1727 16.6024 13 15.6118 13 14.3276V13.6724C13 12.3883 12.1727 11.3977 11.2489 10.8879C9.12559 9.71622 7.58333 7.18836 7.58333 4.17543Z" fill="#18202A"/>
</svg>
