<svg width="28" height="28" viewBox="0 0 28 28" fill="none" xmlns="http://www.w3.org/2000/svg">
<path fill-rule="evenodd" clip-rule="evenodd" d="M12.8333 24.5001C12.8333 24.8912 12.8814 25.2712 12.9721 25.6342C12.0897 25.5786 11.2326 25.4521 10.4097 25.2573L7.22951 26.7251C6.49418 27.0644 5.64523 26.5697 5.57797 25.7627L5.33285 22.8212C2.78622 20.758 1.19049 17.6321 1.19049 13.6395C0.732637 6.95766 6.93082 1.16675 14.0119 1.16675C21.093 1.16675 26.8333 6.06675 26.8333 13.6395C26.8333 14.4131 26.7596 15.1756 26.6163 15.9183C25.9268 13.4652 23.6734 11.6667 21 11.6667C18.1875 11.6667 15.8399 13.6571 15.2889 16.3061C13.8269 17.0941 12.8333 18.6394 12.8333 20.4167V24.5001ZM24.5 18.0834C25.7886 18.0834 26.8333 19.1281 26.8333 20.4167V24.5001C26.8333 25.7887 25.7886 26.8334 24.5 26.8334H17.5C16.2113 26.8334 15.1666 25.7887 15.1666 24.5001V20.4167C15.1666 19.1281 16.2113 18.0834 17.5 18.0834V17.5001C17.5 15.5671 19.067 14.0001 21 14.0001C22.933 14.0001 24.5 15.5671 24.5 17.5001V18.0834ZM23.3333 17.5001C23.3333 16.2114 22.2886 15.1667 21 15.1667C19.7113 15.1667 18.6666 16.2114 18.6666 17.5001V18.0834H23.3333V17.5001ZM22.1666 21.5834C22.1666 22.0152 21.932 22.3923 21.5833 22.594V23.9167C21.5833 24.2389 21.3221 24.5001 21 24.5001C20.6778 24.5001 20.4166 24.2389 20.4166 23.9167V22.594C20.0679 22.3923 19.8333 22.0152 19.8333 21.5834C19.8333 20.9391 20.3556 20.4167 21 20.4167C21.6443 20.4167 22.1666 20.9391 22.1666 21.5834Z" fill="#18202A"/>
</svg>
