<svg width="28" height="28" viewBox="0 0 28 28" fill="none" xmlns="http://www.w3.org/2000/svg">
<path fill-rule="evenodd" clip-rule="evenodd" d="M17.5 23.9168C18.4665 23.9168 19.25 23.1333 19.25 22.1668C19.25 21.2003 18.4665 20.4168 17.5 20.4168C16.5335 20.4168 15.75 21.2003 15.75 22.1668C15.75 23.1333 16.5335 23.9168 17.5 23.9168ZM17.5 25.6668C19.433 25.6668 21 24.0998 21 22.1668C21 20.2338 19.433 18.6668 17.5 18.6668C15.567 18.6668 14 20.2338 14 22.1668C14 24.0998 15.567 25.6668 17.5 25.6668Z" fill="#18202A"/>
<path fill-rule="evenodd" clip-rule="evenodd" d="M17.5 7.5835C18.4665 7.5835 19.25 6.79999 19.25 5.8335C19.25 4.867 18.4665 4.0835 17.5 4.0835C16.5335 4.0835 15.75 4.867 15.75 5.8335C15.75 6.79999 16.5335 7.5835 17.5 7.5835ZM17.5 9.3335C19.433 9.3335 21 7.76649 21 5.8335C21 3.9005 19.433 2.3335 17.5 2.3335C15.567 2.3335 14 3.9005 14 5.8335C14 7.76649 15.567 9.3335 17.5 9.3335Z" fill="#18202A"/>
<path fill-rule="evenodd" clip-rule="evenodd" d="M10.5 15.7502C11.4665 15.7502 12.25 14.9667 12.25 14.0002C12.25 13.0337 11.4665 12.2502 10.5 12.2502C9.53349 12.2502 8.74999 13.0337 8.74999 14.0002C8.74999 14.9667 9.53349 15.7502 10.5 15.7502ZM10.5 17.5002C12.433 17.5002 14 15.9332 14 14.0002C14 12.0672 12.433 10.5002 10.5 10.5002C8.56699 10.5002 6.99999 12.0672 6.99999 14.0002C6.99999 15.9332 8.56699 17.5002 10.5 17.5002Z" fill="#18202A"/>
<path d="M1.16666 22.1668C1.16666 21.6836 1.55841 21.2918 2.04166 21.2918H11.9583C12.4416 21.2918 12.8333 21.6836 12.8333 22.1668C12.8333 22.6501 12.4416 23.0418 11.9583 23.0418H2.04166C1.55841 23.0418 1.16666 22.6501 1.16666 22.1668Z" fill="#18202A"/>
<path d="M1.16666 5.8335C1.16666 5.35025 1.55841 4.9585 2.04166 4.9585H11.9583C12.4416 4.9585 12.8333 5.35025 12.8333 5.8335C12.8333 6.31675 12.4416 6.7085 11.9583 6.7085H2.04166C1.55841 6.7085 1.16666 6.31675 1.16666 5.8335Z" fill="#18202A"/>
<path d="M15.1667 14.0002C15.1667 13.5169 15.5584 13.1252 16.0417 13.1252H25.9583C26.4416 13.1252 26.8333 13.5169 26.8333 14.0002C26.8333 14.4834 26.4416 14.8752 25.9583 14.8752H16.0417C15.5584 14.8752 15.1667 14.4834 15.1667 14.0002Z" fill="#18202A"/>
<path d="M22.1667 22.1668C22.1667 21.6836 22.5584 21.2918 23.0417 21.2918H25.9583C26.4416 21.2918 26.8333 21.6836 26.8333 22.1668C26.8333 22.6501 26.4416 23.0418 25.9583 23.0418H23.0417C22.5584 23.0418 22.1667 22.6501 22.1667 22.1668Z" fill="#18202A"/>
<path d="M22.1667 5.8335C22.1667 5.35025 22.5584 4.9585 23.0417 4.9585H25.9583C26.4416 4.9585 26.8333 5.35025 26.8333 5.8335C26.8333 6.31675 26.4416 6.7085 25.9583 6.7085H23.0417C22.5584 6.7085 22.1667 6.31675 22.1667 5.8335Z" fill="#18202A"/>
<path d="M1.16666 14.0002C1.16666 13.5169 1.55841 13.1252 2.04166 13.1252H4.95832C5.44157 13.1252 5.83332 13.5169 5.83332 14.0002C5.83332 14.4834 5.44157 14.8752 4.95832 14.8752H2.04166C1.55841 14.8752 1.16666 14.4834 1.16666 14.0002Z" fill="#18202A"/>
</svg>
