<svg width="28" height="28" viewBox="0 0 28 28" fill="none" xmlns="http://www.w3.org/2000/svg">
<path d="M24.7552 15.1123C23.0702 16.9266 19.0212 21.584 16.3144 24.6028C15.0483 26.0149 12.9517 26.0149 11.6856 24.6028C8.97882 21.584 4.92982 16.9266 3.24475 15.1123C2.29691 14.0912 1.16666 12.4265 1.16666 10.2952C1.16666 6.54883 4.331 3.5 8.22133 3.5C10.326 3.5 12.306 4.9695 13.6526 6.53333C13.8277 6.73592 14.1732 6.73592 14.3474 6.53333C15.694 4.9695 17.674 3.5 19.7787 3.5C23.669 3.5 26.8333 6.54883 26.8333 10.2952C26.8333 12.4265 25.7031 14.0912 24.7552 15.1123Z" fill="#18202A"/>
</svg>
