<svg width="28" height="28" viewBox="0 0 28 28" fill="none" xmlns="http://www.w3.org/2000/svg">
<path fill-rule="evenodd" clip-rule="evenodd" d="M3.82197 3.82212C4.27758 3.36651 5.06501 3.41524 5.58073 3.93096L24.07 22.4202C24.5857 22.9359 24.6344 23.7234 24.1788 24.179C23.7232 24.6346 22.9358 24.5859 22.4201 24.0701L3.93081 5.58088C3.41509 5.06515 3.36636 4.27773 3.82197 3.82212Z" fill="#18202A"/>
<path d="M24.3687 19.4522C23.6965 17.9242 23.1022 15.6509 23.1022 12.389C23.1022 10.0315 22.1432 7.77057 20.4362 6.10358C19.006 4.70691 17.1489 3.82302 15.1644 3.57308C15.1659 3.54894 15.1667 3.5246 15.1667 3.50008V2.33341C15.1667 1.68908 14.6443 1.16675 14 1.16675C13.3557 1.16675 12.8333 1.68908 12.8333 2.33341V3.50008C12.8333 3.5246 12.8341 3.54894 12.8356 3.57308C11.6774 3.71894 10.5627 4.08072 9.55082 4.63433L24.3687 19.4522Z" fill="#18202A"/>
<path d="M7.64342 6.02676C7.61673 6.05219 7.59018 6.0778 7.56378 6.10358C5.8568 7.77057 4.89782 10.0315 4.89782 12.389C4.89782 16.799 3.81147 19.402 2.91515 20.7992C2.60947 21.2756 2.98959 22.1667 3.55568 22.1667H23.7834L7.64342 6.02676Z" fill="#18202A"/>
<path d="M11.8443 26.4062C11.2213 25.9396 10.7663 25.2837 10.5472 24.5369L12.7861 23.88C12.8634 24.1433 13.0238 24.3744 13.2431 24.5387C13.4625 24.703 13.7291 24.7917 14.0029 24.7917C14.2768 24.7917 14.5433 24.703 14.7627 24.5387C14.982 24.3744 15.1424 24.1433 15.2197 23.88L17.4586 24.5369C17.2395 25.2837 16.7845 25.9396 16.1615 26.4062C15.5386 26.8728 14.7813 27.1251 14.0029 27.1251C13.2246 27.1251 12.4672 26.8728 11.8443 26.4062Z" fill="#18202A"/>
</svg>
