<svg width="28" height="28" viewBox="0 0 28 28" fill="none" xmlns="http://www.w3.org/2000/svg">
<path fill-rule="evenodd" clip-rule="evenodd" d="M26.8333 13.6392C26.8333 20.0357 21.7964 25.6665 14.0119 25.6665C12.7613 25.6665 11.5525 25.5276 10.4098 25.257L7.22955 26.7248C6.49422 27.0642 5.64527 26.5695 5.57801 25.7624L5.33289 22.8209C2.78626 20.7578 1.19053 17.6319 1.19053 13.6392C0.732675 6.95741 6.93086 1.1665 14.0119 1.1665C21.093 1.1665 26.8333 6.0665 26.8333 13.6392ZM10.5 13.4165C10.5 14.383 9.7165 15.1665 8.75 15.1665C7.7835 15.1665 7 14.383 7 13.4165C7 12.45 7.7835 11.6665 8.75 11.6665C9.7165 11.6665 10.5 12.45 10.5 13.4165ZM14 15.1665C14.9665 15.1665 15.75 14.383 15.75 13.4165C15.75 12.45 14.9665 11.6665 14 11.6665C13.0335 11.6665 12.25 12.45 12.25 13.4165C12.25 14.383 13.0335 15.1665 14 15.1665ZM19.25 15.1665C20.2165 15.1665 21 14.383 21 13.4165C21 12.45 20.2165 11.6665 19.25 11.6665C18.2835 11.6665 17.5 12.45 17.5 13.4165C17.5 14.383 18.2835 15.1665 19.25 15.1665Z" fill="#18202A"/>
</svg>
