<svg width="28" height="28" viewBox="0 0 28 28" fill="none" xmlns="http://www.w3.org/2000/svg">
<path d="M18.6667 4.66659C19.311 4.66659 19.8334 4.14425 19.8334 3.49992C19.8334 2.85559 19.311 2.33325 18.6667 2.33325H7.00004C4.42271 2.33325 2.33337 4.42259 2.33337 6.99992V20.9999C2.33337 23.5772 4.42271 25.6666 7.00004 25.6666H21C23.5774 25.6666 25.6667 23.5772 25.6667 20.9999V15.1666C25.6667 14.5223 25.1444 13.9999 24.5 13.9999C23.8557 13.9999 23.3334 14.5223 23.3334 15.1666V20.9999C23.3334 22.2886 22.2887 23.3333 21 23.3333H7.00004C5.71138 23.3333 4.66671 22.2886 4.66671 20.9999V6.99992C4.66671 5.71125 5.71138 4.66659 7.00004 4.66659H18.6667Z" fill="#18202A"/>
<path d="M14.2417 18.9082L25.325 7.82488C25.7806 7.36926 25.7806 6.63057 25.325 6.17496C24.8694 5.71935 24.1307 5.71935 23.6751 6.17496L13.4167 16.4333L10.1583 13.175C9.70272 12.7193 8.96403 12.7193 8.50842 13.175C8.0528 13.6306 8.0528 14.3693 8.50842 14.8249L12.5917 18.9082C13.0474 19.3638 13.7861 19.3638 14.2417 18.9082Z" fill="#18202A"/>
</svg>
