<svg width="28" height="28" viewBox="0 0 28 28" fill="none" xmlns="http://www.w3.org/2000/svg">
<path fill-rule="evenodd" clip-rule="evenodd" d="M5.83331 4.6665C3.90032 4.6665 2.33331 6.23351 2.33331 8.1665V18.6665C2.33331 20.5995 3.90032 22.1665 5.83331 22.1665H13.125V23.9165H10.5C10.0167 23.9165 9.62498 24.3083 9.62498 24.7915C9.62498 25.2748 10.0167 25.6665 10.5 25.6665H17.5C17.9832 25.6665 18.375 25.2748 18.375 24.7915C18.375 24.3083 17.9832 23.9165 17.5 23.9165H14.875V22.1665H22.1666C24.0996 22.1665 25.6666 20.5995 25.6666 18.6665V8.1665C25.6666 6.23351 24.0996 4.6665 22.1666 4.6665H5.83331ZM23.9166 8.1665C23.9166 7.20001 23.1331 6.4165 22.1666 6.4165H5.83331C4.86681 6.4165 4.08331 7.20001 4.08331 8.1665V16.3332H23.9166V8.1665ZM5.83331 20.4165C4.86681 20.4165 4.08331 19.633 4.08331 18.6665V18.0832H23.9166V18.6665C23.9166 19.633 23.1331 20.4165 22.1666 20.4165H5.83331Z" fill="#18202A"/>
</svg>
