<svg width="28" height="28" viewBox="0 0 28 28" fill="none" xmlns="http://www.w3.org/2000/svg">
<g clip-path="url(#clip0_3444_9296)">
<g clip-path="url(#clip1_3444_9296)">
<path d="M9.33329 1.1665C8.04463 1.1665 6.99996 2.21117 6.99996 3.49984V5.83317C6.99996 6.94911 7.52223 7.94308 8.33567 8.58397C9.34791 9.38148 10.5 10.3778 10.5 11.6665V13.9998C10.5 15.2885 9.45529 16.3332 8.16663 16.3332H6.16663C3.4052 16.3332 1.16663 18.5717 1.16663 21.3332C1.16663 22.4377 2.06206 23.3332 3.16663 23.3332H14.6725C14.6138 22.9529 14.5833 22.5632 14.5833 22.1665C14.5833 19.4229 16.0403 17.0196 18.2227 15.6882C17.7774 15.2632 17.5 14.6639 17.5 13.9998V11.6665C17.5 10.3778 18.652 9.38148 19.6642 8.58397C20.4777 7.94308 21 6.94911 21 5.83317V3.49984C21 2.21117 19.9553 1.1665 18.6666 1.1665H9.33329Z" fill="#18202A"/>
<path d="M2.33329 25.6665C2.33329 25.0222 2.85563 24.4998 3.49996 24.4998H14.949C15.2249 25.3539 15.6482 26.1416 16.1888 26.8332H3.49996C2.85563 26.8332 2.33329 26.3108 2.33329 25.6665Z" fill="#18202A"/>
<path d="M21.2416 16.6749C21.6972 17.1305 21.6972 17.8692 21.2416 18.3248L20.8999 18.6665H25.6667C26.311 18.6665 26.8333 19.1888 26.8333 19.8332C26.8333 20.4775 26.311 20.9998 25.6667 20.9998H18.0833C17.6115 20.9998 17.186 20.7156 17.0055 20.2796C16.8249 19.8437 16.9247 19.3419 17.2584 19.0082L19.5917 16.6749C20.0473 16.2193 20.786 16.2193 21.2416 16.6749Z" fill="#18202A"/>
<path d="M22.5083 26.0082L22.85 25.6665H18.0833C17.4389 25.6665 16.9166 25.1442 16.9166 24.4998C16.9166 23.8555 17.4389 23.3332 18.0833 23.3332H25.6666C26.1385 23.3332 26.5639 23.6174 26.7444 24.0534C26.925 24.4893 26.8252 24.9911 26.4915 25.3248L24.1582 27.6581C23.7026 28.1137 22.9639 28.1137 22.5083 27.6581C22.0527 27.2025 22.0527 26.4638 22.5083 26.0082Z" fill="#18202A"/>
</g>
</g>
<defs>
<clipPath id="clip0_3444_9296">
<rect width="28" height="28" fill="white"/>
</clipPath>
<clipPath id="clip1_3444_9296">
<rect width="28" height="28" fill="white"/>
</clipPath>
</defs>
</svg>
