<svg width="28" height="28" viewBox="0 0 28 28" fill="none" xmlns="http://www.w3.org/2000/svg">
<path d="M10.5 7.29183C10.0167 7.29183 9.62498 7.68358 9.62498 8.16683C9.62498 8.65008 10.0167 9.04183 10.5 9.04183H17.5C17.9832 9.04183 18.375 8.65008 18.375 8.16683C18.375 7.68358 17.9832 7.29183 17.5 7.29183H10.5Z" fill="#18202A"/>
<path d="M10.5 11.9585C10.0167 11.9585 9.62498 12.3502 9.62498 12.8335C9.62498 13.3167 10.0167 13.7085 10.5 13.7085H17.5C17.9832 13.7085 18.375 13.3167 18.375 12.8335C18.375 12.3502 17.9832 11.9585 17.5 11.9585H10.5Z" fill="#18202A"/>
<path d="M9.62498 17.5002C9.62498 17.0169 10.0167 16.6252 10.5 16.6252H17.5C17.9832 16.6252 18.375 17.0169 18.375 17.5002C18.375 17.9834 17.9832 18.3752 17.5 18.3752H10.5C10.0167 18.3752 9.62498 17.9834 9.62498 17.5002Z" fill="#18202A"/>
<path fill-rule="evenodd" clip-rule="evenodd" d="M6.99998 1.4585C6.4585 1.4585 5.93919 1.6736 5.5563 2.05649C5.17342 2.43937 4.95831 2.95868 4.95831 3.50016V25.6668C4.95831 25.9946 5.14149 26.2949 5.43293 26.4449C5.72437 26.5948 6.07518 26.5694 6.3419 26.3788L9.91665 23.8255L13.4914 26.3788C13.7956 26.5962 14.2043 26.5962 14.5086 26.3788L18.0833 23.8255L21.6581 26.3788C21.9248 26.5694 22.2756 26.5948 22.567 26.4449C22.8585 26.2949 23.0416 25.9946 23.0416 25.6668V3.50016C23.0416 2.95868 22.8265 2.43937 22.4437 2.05649C22.0608 1.6736 21.5415 1.4585 21 1.4585H6.99998ZM6.79374 3.29392C6.84844 3.23922 6.92263 3.2085 6.99998 3.2085H21C21.0773 3.2085 21.1515 3.23923 21.2062 3.29392C21.2609 3.34862 21.2916 3.42281 21.2916 3.50016V23.9665L18.5919 22.0381C18.2877 21.8208 17.879 21.8208 17.5747 22.0381L14 24.5915L10.4252 22.0381C10.121 21.8208 9.7123 21.8208 9.40806 22.0381L6.70831 23.9665V3.50016C6.70831 3.42281 6.73904 3.34862 6.79374 3.29392Z" fill="#18202A"/>
</svg>
