<svg width="28" height="28" viewBox="0 0 28 28" fill="none" xmlns="http://www.w3.org/2000/svg">
<path fill-rule="evenodd" clip-rule="evenodd" d="M6.83037 14.8748C6.48423 15.73 5.64588 16.3332 4.66665 16.3332C3.37798 16.3332 2.33331 15.2885 2.33331 13.9998C2.33331 12.7112 3.37798 11.6665 4.66665 11.6665C5.64588 11.6665 6.48423 12.2697 6.83037 13.1248H11.8363C12.1824 12.2697 13.0207 11.6665 14 11.6665C14.9792 11.6665 15.8176 12.2697 16.1637 13.1248H21.1696C21.5157 12.2697 22.3541 11.6665 23.3333 11.6665C24.622 11.6665 25.6666 12.7112 25.6666 13.9998C25.6666 15.2885 24.622 16.3332 23.3333 16.3332C22.3541 16.3332 21.5157 15.73 21.1696 14.8748H16.1637C15.8176 15.73 14.9792 16.3332 14 16.3332C13.0207 16.3332 12.1824 15.73 11.8363 14.8748H6.83037Z" fill="#18202A"/>
</svg>
