<svg width="28" height="28" viewBox="0 0 28 28" fill="none" xmlns="http://www.w3.org/2000/svg">
<path fill-rule="evenodd" clip-rule="evenodd" d="M1.16666 14C1.16666 21.0876 6.91234 26.8333 14 26.8333C21.0877 26.8333 26.8333 21.0876 26.8333 14C26.8333 6.91231 21.0877 1.16663 14 1.16663C6.91234 1.16663 1.16666 6.9123 1.16666 14ZM19.4916 13.6583C19.9472 13.2026 19.9472 12.4639 19.4916 12.0083C19.036 11.5527 18.2973 11.5527 17.8417 12.0083L14 15.85L10.1583 12.0083C9.70268 11.5527 8.96398 11.5527 8.50837 12.0083C8.05276 12.4639 8.05276 13.2026 8.50837 13.6583L13.175 18.3249C13.6307 18.7805 14.3693 18.7805 14.825 18.3249L19.4916 13.6583Z" fill="#18202A"/>
</svg>
