<svg width="28" height="28" viewBox="0 0 28 28" fill="none" xmlns="http://www.w3.org/2000/svg">
<path fill-rule="evenodd" clip-rule="evenodd" d="M14 20.0995C14 17.3751 16.2086 15.1665 18.933 15.1665H25.375V16.9165H18.933C17.1751 16.9165 15.75 18.3416 15.75 20.0995V25.3748H14V20.0995Z" fill="#18202A"/>
<path fill-rule="evenodd" clip-rule="evenodd" d="M19.7319 2.9165H8.26811C5.31258 2.9165 2.91666 5.31243 2.91666 8.26795V19.7317C2.91666 22.6872 5.31258 25.0832 8.26811 25.0832H14.6594C20.4164 25.0832 25.0833 20.4162 25.0833 14.6593V8.26795C25.0833 5.31243 22.6874 2.9165 19.7319 2.9165ZM8.26811 1.1665C4.34608 1.1665 1.16666 4.34593 1.16666 8.26795V19.7317C1.16666 23.6537 4.34608 26.8332 8.26811 26.8332H14.6594C21.3829 26.8332 26.8333 21.3827 26.8333 14.6593V8.26795C26.8333 4.34593 23.6539 1.1665 19.7319 1.1665H8.26811Z" fill="#18202A"/>
<path d="M10.5 10.4998C10.5 11.7885 9.71649 12.8332 8.74999 12.8332C7.78349 12.8332 6.99999 11.7885 6.99999 10.4998C6.99999 9.21117 7.78349 8.1665 8.74999 8.1665C9.71649 8.1665 10.5 9.21117 10.5 10.4998Z" fill="#18202A"/>
<path d="M21 10.4998C21 11.7885 20.2165 12.8332 19.25 12.8332C18.2835 12.8332 17.5 11.7885 17.5 10.4998C17.5 9.21117 18.2835 8.1665 19.25 8.1665C20.2165 8.1665 21 9.21117 21 10.4998Z" fill="#18202A"/>
<path d="M14.1331 18.9564C14.0461 19.3233 14 19.706 14 20.0995L14 20.7081C12.9285 20.7081 11.8705 20.4633 10.9278 19.992C9.9849 19.5205 9.18303 18.8349 8.60974 17.9918C8.33802 17.5921 8.44171 17.0479 8.84133 16.7762C9.24095 16.5045 9.78518 16.6082 10.0569 17.0078C10.4515 17.5881 11.0178 18.0804 11.7104 18.4267C12.4033 18.7731 13.1924 18.9581 14 18.9581C14.0444 18.9581 14.0888 18.9576 14.1331 18.9564Z" fill="#18202A"/>
</svg>
