<svg width="28" height="28" viewBox="0 0 28 28" fill="none" xmlns="http://www.w3.org/2000/svg">
<g clip-path="url(#clip0_2414_8766)">
<path fill-rule="evenodd" clip-rule="evenodd" d="M26.4377 17.1743C26.696 16.1591 26.8333 15.0956 26.8333 14.0001C26.8333 6.91243 21.0876 1.16675 14 1.16675C6.91231 1.16675 1.16663 6.91243 1.16663 14.0001C1.16663 21.0877 6.91231 26.8334 14 26.8334C14.4374 26.8334 14.8697 26.8115 15.2959 26.7688C14.3553 25.8459 14.2632 24.1602 15.5212 23.2167C15.668 23.1066 15.7545 22.9337 15.7545 22.7501V20.7862C15.1839 20.9279 14.5937 21.0001 14 21.0001C12.8845 21.0001 11.7817 20.7453 10.7974 20.2531C9.81272 19.7608 8.9716 19.043 8.36852 18.1561C8.00623 17.6232 8.14448 16.8976 8.67731 16.5353C9.21014 16.173 9.93579 16.3113 10.2981 16.8441C10.6629 17.3806 11.19 17.8407 11.8409 18.1662C12.492 18.4917 13.2364 18.6667 14 18.6667C14.7636 18.6667 15.5079 18.4917 16.1591 18.1662C16.1785 18.1565 16.1978 18.1466 16.2169 18.1367C17.1047 16.0481 19.1753 14.5834 21.5879 14.5834C23.6096 14.5834 25.3911 15.6119 26.4377 17.1743ZM9.91663 14.0001C10.8831 14.0001 11.6666 12.9554 11.6666 11.6667C11.6666 10.3781 10.8831 9.33342 9.91663 9.33342C8.95014 9.33342 8.16663 10.3781 8.16663 11.6667C8.16663 12.9554 8.95014 14.0001 9.91663 14.0001ZM19.8333 11.6667C19.8333 12.9554 19.0498 14.0001 18.0833 14.0001C17.1168 14.0001 16.3333 12.9554 16.3333 11.6667C16.3333 10.3781 17.1168 9.33342 18.0833 9.33342C19.0498 9.33342 19.8333 10.3781 19.8333 11.6667Z" fill="#18202A"/>
<path fill-rule="evenodd" clip-rule="evenodd" d="M25.6667 20.4166L25.6667 20.4333V22.9166C25.6667 23.5461 25.9631 24.1389 26.4667 24.5166C26.9579 24.885 26.6973 25.6666 26.0834 25.6666H17.0834C16.4694 25.6666 16.2088 24.885 16.7 24.5166C17.2036 24.1389 17.5 23.5461 17.5 22.9166V20.4166C17.5 20.4166 17.5 20.4166 17.5 20.4166C17.5001 20.4166 17.5001 20.4166 17.5001 20.4166C17.5001 18.1614 19.3282 16.3333 21.5834 16.3333C23.8386 16.3333 25.6667 18.1614 25.6667 20.4166ZM20.4167 26.8333C20.0946 26.8333 19.8334 27.0944 19.8334 27.4166C19.8334 27.7388 20.0946 27.9999 20.4167 27.9999H22.7501C23.0722 27.9999 23.3334 27.7388 23.3334 27.4166C23.3334 27.0944 23.0722 26.8333 22.7501 26.8333H20.4167Z" fill="#18202A"/>
</g>
<defs>
<clipPath id="clip0_2414_8766">
<rect width="28" height="28" fill="white"/>
</clipPath>
</defs>
</svg>
