<svg width="28" height="28" viewBox="0 0 28 28" fill="none" xmlns="http://www.w3.org/2000/svg">
<path d="M4.08331 5.54175C4.08331 5.0585 3.69156 4.66675 3.20831 4.66675C2.72506 4.66675 2.33331 5.0585 2.33331 5.54175V22.4584C2.33331 22.9417 2.72506 23.3334 3.20831 23.3334C3.69156 23.3334 4.08331 22.9417 4.08331 22.4584V14.5834L14.5833 14.5834V22.4584C14.5833 22.9417 14.9751 23.3334 15.4583 23.3334C15.9416 23.3334 16.3333 22.9417 16.3333 22.4584V5.54175C16.3333 5.0585 15.9416 4.66675 15.4583 4.66675C14.9751 4.66675 14.5833 5.0585 14.5833 5.54175V12.8334H4.08331V5.54175Z" fill="#18202A"/>
<path d="M20.4167 15.7501C20.4167 15.4284 20.8267 14.5834 22.1667 14.5834C22.8379 14.5834 23.2623 14.8019 23.5167 15.0563C23.7794 15.319 23.9167 15.6749 23.9167 16.0417C23.9167 16.556 23.7758 16.8825 23.5148 17.2218C23.3008 17.4999 23.0451 17.7455 22.7027 18.0741C22.5348 18.2353 22.3461 18.4165 22.1313 18.6314L18.923 21.8397C18.6727 22.0899 18.5978 22.4663 18.7333 22.7933C18.8687 23.1202 19.1878 23.3334 19.5417 23.3334H24.7917C25.2749 23.3334 25.6667 22.9417 25.6667 22.4584C25.6667 21.9752 25.2749 21.5834 24.7917 21.5834H21.6541L23.3687 19.8688C23.5098 19.7277 23.6581 19.5852 23.8075 19.4416C24.202 19.0623 24.6043 18.6757 24.9019 18.2888C25.37 17.6802 25.6667 16.9858 25.6667 16.0417C25.6667 15.242 25.3665 14.4312 24.7541 13.8189C24.1336 13.1983 23.2455 12.8334 22.1667 12.8334C20.0066 12.8334 18.6667 14.3217 18.6667 15.7501C18.6667 16.2333 19.0584 16.6251 19.5417 16.6251C20.0249 16.6251 20.4167 16.2333 20.4167 15.7501Z" fill="#18202A"/>
</svg>
