<svg width="28" height="28" viewBox="0 0 28 28" fill="none" xmlns="http://www.w3.org/2000/svg">
<path fill-rule="evenodd" clip-rule="evenodd" d="M1.16666 5.8335C1.16666 3.9005 2.73367 2.3335 4.66666 2.3335H19.8333C21.3573 2.3335 22.6537 3.30744 23.1342 4.66683H4.66666V5.8335H22.1667C24.744 5.8335 26.8333 7.92283 26.8333 10.5002V21.0002C26.8333 23.5775 24.744 25.6668 22.1667 25.6668H5.83333C3.256 25.6668 1.16666 23.5775 1.16666 21.0002V5.8335ZM16.3333 12.8335C15.0447 12.8335 14 13.8782 14 15.1668V17.5002C14 18.7888 15.0447 19.8335 16.3333 19.8335H24.5V12.8335H16.3333Z" fill="#18202A"/>
<path d="M18.6667 16.3335C18.6667 16.9778 18.1443 17.5002 17.5 17.5002C16.8557 17.5002 16.3333 16.9778 16.3333 16.3335C16.3333 15.6892 16.8557 15.1668 17.5 15.1668C18.1443 15.1668 18.6667 15.6892 18.6667 16.3335Z" fill="#18202A"/>
</svg>
