<svg width="28" height="28" viewBox="0 0 28 28" fill="none" xmlns="http://www.w3.org/2000/svg">
<path d="M22.2517 8.32244L18.6207 14.9791L19.9106 16.269L23.5415 9.61229L23.8813 9.95205C24.223 10.2938 24.777 10.2938 25.1187 9.95205C25.4604 9.61034 25.4604 9.05632 25.1187 8.71462L23.9664 7.56228C23.9572 7.55271 23.9479 7.54334 23.9382 7.53415L20.4659 4.06176C20.4567 4.05213 20.4473 4.04275 20.4377 4.0336L19.2854 2.88128C18.9437 2.53957 18.3896 2.53957 18.0479 2.88128C17.7062 3.22299 17.7062 3.77701 18.0479 4.11872L18.3877 4.45848L11.731 8.0894L13.0209 9.37924L19.6776 5.74833L22.2517 8.32244Z" fill="#18202A"/>
<path fill-rule="evenodd" clip-rule="evenodd" d="M4.97079 5.04157C5.3125 4.69986 5.86652 4.69986 6.20823 5.04157L22.9241 21.7574C23.2658 22.0991 23.2658 22.6531 22.9241 22.9949C22.5824 23.3366 22.0283 23.3366 21.6866 22.9949L18.1636 19.4718L17.1015 21.419C17.0688 21.4789 17.0301 21.5335 16.9866 21.5825L18.1187 22.7146C18.4604 23.0563 18.4604 23.6103 18.1187 23.9521C17.777 24.2938 17.223 24.2938 16.8813 23.9521L11.0833 18.1541L5.28537 23.9521C4.94367 24.2938 4.38965 24.2938 4.04794 23.9521C3.70623 23.6103 3.70623 23.0563 4.04794 22.7146L9.84589 16.9167L4.04794 11.1187C3.70623 10.777 3.70623 10.223 4.04794 9.88128C4.38965 9.53957 4.94367 9.53957 5.28537 9.88128L6.41753 11.0134C6.46644 10.9699 6.52104 10.9312 6.58099 10.8985L8.52819 9.8364L4.97079 6.27901C4.62908 5.9373 4.62908 5.38328 4.97079 5.04157ZM7.69071 12.2866L9.81803 11.1263L16.8737 18.182L15.7134 20.3093L7.69071 12.2866Z" fill="#18202A"/>
</svg>
