<svg width="28" height="28" viewBox="0 0 28 28" fill="none" xmlns="http://www.w3.org/2000/svg">
<path fill-rule="evenodd" clip-rule="evenodd" d="M1.16669 6.99998C1.16669 4.42265 3.25603 2.33331 5.83335 2.33331H22.1667C24.744 2.33331 26.8334 4.42265 26.8334 6.99998V21C26.8334 23.5773 24.744 25.6666 22.1667 25.6666H5.83335C3.25603 25.6666 1.16669 23.5773 1.16669 21V6.99998ZM10.5 4.08331H17.5V13.125L10.5 13.125V4.08331ZM8.75002 13.125V4.08331H5.83335C4.22252 4.08331 2.91669 5.38915 2.91669 6.99998V13.125H8.75002ZM2.91669 14.875H8.75002V23.9166H5.83335C4.22252 23.9166 2.91669 22.6108 2.91669 21V14.875ZM10.5 14.875L17.5 14.875V23.9166H10.5V14.875ZM19.25 14.875V23.9166H22.1667C23.7775 23.9166 25.0834 22.6108 25.0834 21V14.875H19.25ZM25.0834 13.125V6.99998C25.0834 5.38915 23.7775 4.08331 22.1667 4.08331H19.25V13.125H25.0834Z" fill="#18202A"/>
</svg>
