<svg width="28" height="28" viewBox="0 0 28 28" fill="none" xmlns="http://www.w3.org/2000/svg">
<g clip-path="url(#clip0_2294_10040)">
<path fill-rule="evenodd" clip-rule="evenodd" d="M0 7C0 3.13401 3.13401 0 7 0H21C24.866 0 28 3.13401 28 7V21C28 24.866 24.866 28 21 28H7C3.13401 28 0 24.866 0 21V7ZM3.5 14C3.5 8.20101 8.20101 3.5 14 3.5C19.799 3.5 24.5 8.20101 24.5 14C24.5 19.799 19.799 24.5 14 24.5C8.20101 24.5 3.5 19.799 3.5 14ZM18.6801 11.7639C18.6899 11.8514 18.6899 11.9486 18.6899 12.0361C18.6899 12.1236 18.6899 12.2111 18.6801 12.2986V15.75C18.6783 15.8692 18.6768 15.9707 18.6755 16.0576C18.6699 16.4383 18.6685 16.5397 18.6605 16.6347C18.6408 16.9556 18.6015 17.2569 18.5523 17.5194C18.4245 18.1611 18.1689 18.7347 17.7953 19.2111C16.8909 20.3972 15.5833 21 13.9219 21C12.7421 21 11.7 20.6986 10.825 20.1056C9.91075 19.4833 9.29139 18.6083 8.95713 17.5097H10.8545C11.4346 18.7736 12.4374 19.3861 13.912 19.3861C14.8656 19.3861 15.5833 19.1139 16.1339 18.55C16.6647 17.9958 16.9302 17.2569 16.9302 16.3139V15.8472C16.0355 16.6153 14.8755 17.0722 13.6073 17.0722C10.7956 17.0722 8.51473 14.8167 8.51473 12.0361C8.51473 9.25556 10.7956 7 13.6073 7C14.8656 7 16.0257 7.45694 16.9105 8.21528V7H18.6801V11.7639ZM10.2942 12.0264C10.2942 13.8347 11.7787 15.3028 13.6073 15.3028C15.426 15.3028 16.9105 13.8347 16.9203 12.0264C16.9203 10.2181 15.4358 8.75 13.6073 8.75C11.7787 8.75 10.2942 10.2181 10.2942 12.0264Z" fill="#18202A"/>
</g>
<defs>
<clipPath id="clip0_2294_10040">
<rect width="28" height="28" fill="white"/>
</clipPath>
</defs>
</svg>
