<svg width="28" height="28" viewBox="0 0 28 28" fill="none" xmlns="http://www.w3.org/2000/svg">
<g clip-path="url(#clip0_3725_8810)">
<path fill-rule="evenodd" clip-rule="evenodd" d="M11.6666 2.33366C11.6666 1.68933 11.1443 1.16699 10.5 1.16699C9.85563 1.16699 9.33329 1.68933 9.33329 2.33366V4.66699H8.02079C6.81267 4.66699 5.83329 5.64637 5.83329 6.85449V10.5003H2.33329C1.68896 10.5003 1.16663 11.0227 1.16663 11.667C1.16663 12.3113 1.68896 12.8337 2.33329 12.8337H5.83329V15.167H2.33329C1.68896 15.167 1.16663 15.6893 1.16663 16.3337C1.16663 16.978 1.68896 17.5003 2.33329 17.5003H5.83329V19.9795C5.83329 21.1876 6.81267 22.167 8.02079 22.167H9.33329V25.667C9.33329 26.3113 9.85563 26.8337 10.5 26.8337C11.1443 26.8337 11.6666 26.3113 11.6666 25.667V22.167H16.3333V25.667C16.3333 26.3113 16.8556 26.8337 17.5 26.8337C18.1443 26.8337 18.6666 26.3113 18.6666 25.667V22.167H21.1458C22.3539 22.167 23.3333 21.1876 23.3333 19.9795V17.5003H25.6666C26.311 17.5003 26.8333 16.978 26.8333 16.3337C26.8333 15.6893 26.311 15.167 25.6666 15.167H23.3333V12.8337H25.6666C26.311 12.8337 26.8333 12.3113 26.8333 11.667C26.8333 11.0227 26.311 10.5003 25.6666 10.5003H23.3333V6.85449C23.3333 5.64637 22.3539 4.66699 21.1458 4.66699H18.6666V2.33366C18.6666 1.68933 18.1443 1.16699 17.5 1.16699C16.8556 1.16699 16.3333 1.68933 16.3333 2.33366V4.66699H11.6666V2.33366ZM17.5 11.667C17.5 11.0227 16.9776 10.5003 16.3333 10.5003H12.8333C12.189 10.5003 11.6666 11.0227 11.6666 11.667V15.167C11.6666 15.8113 12.189 16.3337 12.8333 16.3337H16.3333C16.9776 16.3337 17.5 15.8113 17.5 15.167V11.667Z" fill="#18202A"/>
</g>
<defs>
<clipPath id="clip0_3725_8810">
<rect width="28" height="28" fill="white"/>
</clipPath>
</defs>
</svg>
