<svg width="28" height="28" viewBox="0 0 28 28" fill="none" xmlns="http://www.w3.org/2000/svg">
<path d="M14 1.1665C21.0876 1.1665 26.8333 6.91218 26.8333 13.9998C26.8333 21.0875 21.0876 26.8332 14 26.8332C6.91234 26.8332 1.16666 21.0875 1.16666 13.9998C1.16666 6.91218 6.91234 1.1665 14 1.1665ZM17.3741 6.8903C16.4542 7.40656 16.1983 7.96071 16.3687 8.13112C17.3754 9.13778 18.0672 10.7839 18.1547 12.2714C18.2613 14.0839 17.4368 15.4582 15.75 15.4582C14.4748 15.4582 14.2611 16.0995 14.8301 17.8065C15.2057 18.9333 14.5492 19.8926 13.4078 19.9708C12.5319 20.0308 11.501 19.5747 10.5855 18.7243C10.1831 18.3506 9.99574 17.9305 9.73091 17.0746L9.57033 16.559C9.3452 15.8669 9.13783 15.5024 8.85156 15.3136C7.1638 14.2005 6.16259 14.5189 4.96607 15.975L4.32476 16.8045L4.25315 16.8995L4.14413 17.0388C3.95127 17.2799 3.79411 17.4504 3.62697 17.5857L3.53367 17.6554C5.04415 21.9805 9.15973 25.0832 14 25.0832C14.2384 25.0832 14.4751 25.0756 14.7098 25.0608L14.7075 25.1043C14.7075 24.3118 15.6717 22.1955 16.8308 20.8715C18.5994 18.8515 20.9016 18.1927 23.4975 19.513L23.589 19.5614C24.5392 17.9267 25.0833 16.0268 25.0833 13.9998C25.0833 11.2469 24.0797 8.72845 22.4183 6.79034L22.5202 6.82868C20.5641 6.04613 18.6936 6.14973 17.3741 6.8903ZM18.1475 22.0243C17.4141 22.862 16.7555 24.1636 16.5354 24.792C18.9518 24.2258 21.0624 22.871 22.582 21.0139C20.8135 20.164 19.3923 20.6025 18.1475 22.0243ZM14 2.9165C7.87883 2.9165 2.91666 7.87868 2.91666 13.9998C2.91666 14.5486 2.95654 15.0881 3.03357 15.6155L3.61401 14.8639C5.32026 12.7876 7.26312 12.1697 9.81504 13.8527C10.462 14.2794 10.8316 14.8697 11.149 15.7656L11.2904 16.1931L11.4027 16.5573C11.5735 17.1094 11.6833 17.3556 11.7764 17.442C12.2479 17.88 12.7162 18.1331 13.0578 18.2049L13.1227 18.215L13.0975 18.1329C12.343 15.6552 12.982 13.8189 15.5145 13.713L15.75 13.7082C16.2215 13.7082 16.4626 13.3064 16.4078 12.3741C16.3495 11.3831 15.901 10.2506 15.2879 9.53771L15.1313 9.36856C13.9122 8.14946 14.737 6.36357 16.5176 5.36422C17.4571 4.83691 18.573 4.54976 19.7749 4.53801C18.0929 3.5093 16.1157 2.9165 14 2.9165Z" fill="#18202A"/>
</svg>
