<svg width="28" height="28" viewBox="0 0 28 28" fill="none" xmlns="http://www.w3.org/2000/svg">
<path fill-rule="evenodd" clip-rule="evenodd" d="M15.3175 4.4272C15.3173 4.42745 15.317 4.42769 15.3168 4.42794L5.98038 13.8101L5.97887 13.8116C3.48259 16.3079 3.48259 20.4228 5.97887 22.9191C8.47516 25.4154 12.5901 25.4154 15.0864 22.9191L24.1496 13.8559C24.4914 13.5142 25.0454 13.5142 25.3871 13.8559C25.7288 14.1976 25.7288 14.7516 25.3871 15.0933L16.3238 24.1566C13.1441 27.3363 7.92114 27.3363 4.74143 24.1566C1.56202 20.9771 1.56173 15.7548 4.74058 12.575C4.74086 12.5748 4.74115 12.5745 4.74143 12.5742L14.0778 3.19202L14.0793 3.1905C16.3893 0.880509 20.1475 0.880509 22.4575 3.1905C24.7675 5.5005 24.7675 9.2587 22.4575 11.5687L22.4559 11.5703L13.7147 20.2658C13.7143 20.2661 13.714 20.2665 13.7136 20.2668C12.3119 21.6674 10.029 21.6485 8.59976 20.2788L8.58646 20.2658C7.18486 18.8642 7.20337 16.5805 8.57344 15.1508L8.58815 15.1359L17.0106 6.7592C17.3532 6.41842 17.9072 6.41993 18.248 6.76257C18.5888 7.10521 18.5873 7.65923 18.2446 8L9.8303 16.3686C9.10375 17.134 9.12188 18.3191 9.81738 19.0218C10.5851 19.7507 11.7753 19.7303 12.4773 19.0283L12.4789 19.0267L21.2201 10.3313C21.2204 10.331 21.2207 10.3307 21.2209 10.3304C22.8467 8.70377 22.8464 6.05424 21.2201 4.42794C19.5938 2.80161 16.9442 2.80136 15.3175 4.4272Z" fill="#18202A"/>
</svg>
