<svg width="28" height="28" viewBox="0 0 28 28" fill="none" xmlns="http://www.w3.org/2000/svg">
<path fill-rule="evenodd" clip-rule="evenodd" d="M14 10.792C14.4832 10.792 14.875 11.1837 14.875 11.667V23.5546L16.8813 21.5483C17.223 21.2066 17.777 21.2066 18.1187 21.5483C18.4604 21.89 18.4604 22.444 18.1187 22.7857L14.6187 26.2857C14.4546 26.4498 14.2321 26.542 14 26.542C13.7679 26.542 13.5454 26.4498 13.3813 26.2857L9.88128 22.7857C9.53957 22.444 9.53957 21.89 9.88128 21.5483C10.223 21.2066 10.777 21.2066 11.1187 21.5483L13.125 23.5546V11.667C13.125 11.1837 13.5168 10.792 14 10.792Z" fill="#18202A"/>
<path d="M20.1534 7.50695L20.547 8.83541L21.9303 8.757C22.0084 8.75258 22.0872 8.75033 22.1667 8.75033C24.4218 8.75033 26.25 10.5785 26.25 12.8337C26.25 15.0888 24.4218 16.917 22.1667 16.917H16.625V18.667H22.1667C25.3883 18.667 28 16.0553 28 12.8337C28 9.612 25.3883 7.00033 22.1667 7.00033C22.0541 7.00033 21.9423 7.00352 21.8313 7.00981C20.8304 3.63153 17.703 1.16699 14 1.16699C10.297 1.16699 7.16965 3.63153 6.16871 7.00981C6.05772 7.00352 5.9459 7.00033 5.83333 7.00033C2.61167 7.00033 0 9.612 0 12.8337C0 16.0553 2.61167 18.667 5.83333 18.667H11.375V16.917H5.83333C3.57817 16.917 1.75 15.0888 1.75 12.8337C1.75 10.5785 3.57817 8.75033 5.83333 8.75033C5.91283 8.75033 5.99162 8.75258 6.06967 8.757L7.453 8.83541L7.84661 7.50695C8.63342 4.85138 11.0931 2.91699 14 2.91699C16.9069 2.91699 19.3666 4.85138 20.1534 7.50695Z" fill="#18202A"/>
</svg>
