<svg width="28" height="28" viewBox="0 0 28 28" fill="none" xmlns="http://www.w3.org/2000/svg">
<path fill-rule="evenodd" clip-rule="evenodd" d="M14.1864 3.62594C14.0784 3.53615 13.9217 3.53615 13.8136 3.62594L5.25001 10.7421V23.6249C5.25001 23.786 5.38059 23.9166 5.54167 23.9166H10.2083V17.2083C10.2083 16.0807 11.1224 15.1666 12.25 15.1666H15.75C16.8776 15.1666 17.7917 16.0807 17.7917 17.2083V23.9166H22.4583C22.6194 23.9166 22.75 23.786 22.75 23.6249V10.742L14.1864 3.62594ZM24.5 12.1962L26.2741 13.6705C26.6458 13.9793 27.1975 13.9284 27.5063 13.5567C27.8152 13.1851 27.7642 12.6334 27.3926 12.3245L15.3049 2.27999C14.5485 1.65146 13.4515 1.65146 12.6952 2.27999L0.607456 12.3245C0.235782 12.6334 0.184854 13.1851 0.493705 13.5567C0.802555 13.9284 1.35423 13.9793 1.7259 13.6705L3.50001 12.1963V23.6249C3.50001 24.7525 4.41409 25.6666 5.54167 25.6666H22.4583C23.5859 25.6666 24.5 24.7525 24.5 23.6249V12.1962ZM16.0417 23.9166V17.2083C16.0417 17.0472 15.9111 16.9166 15.75 16.9166H12.25C12.0889 16.9166 11.9583 17.0472 11.9583 17.2083V23.9166H16.0417Z" fill="#18202A"/>
</svg>
