<svg width="28" height="28" viewBox="0 0 28 28" fill="none" xmlns="http://www.w3.org/2000/svg">
<g clip-path="url(#clip0_3394_8795)">
<path d="M22.1666 7.58317C22.1666 8.54967 21.3831 9.33317 20.4166 9.33317C19.4501 9.33317 18.6666 8.54967 18.6666 7.58317C18.6666 6.61667 19.4501 5.83317 20.4166 5.83317C21.3831 5.83317 22.1666 6.61667 22.1666 7.58317Z" fill="#18202A"/>
<path fill-rule="evenodd" clip-rule="evenodd" d="M22.3333 2.69401L22.1544 1.81951C22.0766 1.43943 21.7422 1.1665 21.3543 1.1665H19.479C19.0911 1.1665 18.7567 1.43943 18.6789 1.81951L18.5 2.69401C18.0066 2.88759 17.5496 3.15371 17.1422 3.47924L16.294 3.19645C15.926 3.07373 15.5224 3.22687 15.3285 3.56285L14.3908 5.18688C14.1969 5.52286 14.266 5.94893 14.5563 6.20629L15.2248 6.799C15.1865 7.05482 15.1667 7.31668 15.1667 7.58317C15.1667 7.84967 15.1865 8.11154 15.2248 8.36737L14.5563 8.96007C14.266 9.21744 14.1969 9.64351 14.3908 9.97949L15.3285 11.6035C15.5224 11.9395 15.926 12.0926 16.294 11.9699L17.1422 11.6871C17.5496 12.0126 18.0066 12.2788 18.5 12.4723L18.6789 13.3468C18.7567 13.7269 19.0911 13.9998 19.479 13.9998H21.3543C21.7422 13.9998 22.0766 13.7269 22.1544 13.3468L22.3333 12.4723C22.8267 12.2788 23.2836 12.0127 23.6911 11.6872L24.5392 11.97C24.9073 12.0927 25.3108 11.9395 25.5048 11.6035L26.4425 9.97952C26.6364 9.64354 26.5673 9.21747 26.277 8.9601L25.6085 8.3674C25.6468 8.11156 25.6667 7.84969 25.6667 7.58317C25.6667 7.31667 25.6468 7.0548 25.6085 6.79897L26.277 6.20627C26.5673 5.9489 26.6364 5.52283 26.4425 5.18685L25.5048 3.56282C25.3109 3.22685 24.9073 3.07371 24.5393 3.19642L23.6911 3.47921C23.2837 3.15369 22.8267 2.88759 22.3333 2.69401ZM19.7193 3.71958L19.0113 3.9973C18.6505 4.13888 18.3154 4.33384 18.016 4.57302L17.4214 5.04811L16.3029 4.67516L15.8413 5.47457L16.7219 6.25528L16.6094 7.00636C16.5813 7.19377 16.5667 7.38632 16.5667 7.58317C16.5667 7.78003 16.5813 7.97259 16.6094 8.16L16.7219 8.91109L15.8413 9.6918L16.3029 10.4912L17.4214 10.1183L18.016 10.5933C18.3154 10.8325 18.6505 11.0275 19.0113 11.169L19.7193 11.4468L19.9551 12.5998H20.8782L21.1141 11.4468L21.822 11.169C22.1828 11.0275 22.5179 10.8325 22.8172 10.5934L23.4119 10.1183L24.5304 10.4912L24.992 9.69182L24.1114 8.91113L24.2239 8.16003C24.252 7.97261 24.2667 7.78004 24.2667 7.58317C24.2667 7.38631 24.252 7.19375 24.2239 7.00634L24.1114 6.25524L24.992 5.47455L24.5304 4.67513L23.4119 5.04808L22.8173 4.573C22.5179 4.33383 22.1828 4.13888 21.822 3.9973L21.1141 3.71958L20.8782 2.5665H19.9551L19.7193 3.71958Z" fill="#18202A"/>
<path fill-rule="evenodd" clip-rule="evenodd" d="M9.3333 22.1665C11.2663 22.1665 12.8333 20.5995 12.8333 18.6665C12.8333 16.7335 11.2663 15.1665 9.3333 15.1665C7.40031 15.1665 5.8333 16.7335 5.8333 18.6665C5.8333 20.5995 7.40031 22.1665 9.3333 22.1665ZM9.3333 20.4165C10.2998 20.4165 11.0833 19.633 11.0833 18.6665C11.0833 17.7 10.2998 16.9165 9.3333 16.9165C8.3668 16.9165 7.5833 17.7 7.5833 18.6665C7.5833 19.633 8.3668 20.4165 9.3333 20.4165Z" fill="#18202A"/>
<path fill-rule="evenodd" clip-rule="evenodd" d="M17.6173 15.5149L16.2047 13.0681C16.0093 12.7297 15.6016 12.5771 15.232 12.7041L13.7309 13.22C13.1693 12.766 12.5361 12.3971 11.8509 12.1329L11.5475 10.5769C11.4727 10.1933 11.1367 9.9165 10.7459 9.9165H7.92066C7.5299 9.9165 7.19389 10.1933 7.11909 10.5769L6.81567 12.1329C6.13037 12.3971 5.49711 12.7661 4.9355 13.2201L3.43444 12.7043C3.06488 12.5773 2.65715 12.7299 2.46176 13.0683L1.04915 15.515C0.853762 15.8534 0.925488 16.2828 1.22025 16.5394L2.41696 17.5809C2.36187 17.9347 2.33328 18.2973 2.33328 18.6665C2.33328 19.0358 2.36188 19.3984 2.41699 19.7523L1.22034 20.7938C0.925579 21.0503 0.853854 21.4797 1.04924 21.8181L2.46186 24.2649C2.65724 24.6033 3.06497 24.7559 3.43453 24.6289L4.93566 24.113C5.49723 24.567 6.13044 24.9359 6.81567 25.2001L7.11909 26.7561C7.19389 27.1397 7.5299 27.4165 7.92066 27.4165H10.7459C11.1367 27.4165 11.4727 27.1397 11.5475 26.7561L11.8509 25.2001C12.5361 24.9359 13.1692 24.5671 13.7307 24.1131L15.2319 24.629C15.6015 24.756 16.0092 24.6034 16.2046 24.265L17.6172 21.8183C17.8126 21.4799 17.7409 21.0505 17.4461 20.7939L16.2495 19.7525C16.3047 19.3986 16.3333 19.0359 16.3333 18.6665C16.3333 18.2972 16.3047 17.9346 16.2496 17.5807L17.4462 16.5392C17.741 16.2827 17.8127 15.8533 17.6173 15.5149ZM8.34811 13.4176L7.44526 13.7657C6.93259 13.9634 6.45772 14.2398 6.03574 14.581L5.28263 15.1899L3.59285 14.6092L2.94915 15.7241L4.29479 16.8953L4.14612 17.8501C4.10486 18.1152 4.08328 18.3877 4.08328 18.6665C4.08328 18.9453 4.10486 19.2179 4.14615 19.483L4.29485 20.4379L2.94924 21.609L3.59294 22.724L5.28275 22.1432L6.03586 22.7521C6.45781 23.0932 6.93264 23.3696 7.44526 23.5673L8.34811 23.9154L8.68958 25.6665H9.97699L10.3184 23.9154L11.2213 23.5673C11.7339 23.3696 12.2087 23.0933 12.6306 22.7522L13.3837 22.1434L15.0735 22.7241L15.7172 21.6092L14.3717 20.4381L14.5204 19.4832C14.5617 19.2181 14.5833 18.9454 14.5833 18.6665C14.5833 18.3877 14.5617 18.1151 14.5204 17.85L14.3717 16.8951L15.7173 15.724L15.0736 14.609L13.3838 15.1898L12.6307 14.5809C12.2087 14.2398 11.7339 13.9634 11.2213 13.7657L10.3184 13.4176L9.97699 11.6665H8.68958L8.34811 13.4176Z" fill="#18202A"/>
</g>
<defs>
<clipPath id="clip0_3394_8795">
<rect width="28" height="28" fill="white"/>
</clipPath>
</defs>
</svg>
