<svg width="28" height="28" viewBox="0 0 28 28" fill="none" xmlns="http://www.w3.org/2000/svg">
<g clip-path="url(#clip0_3737_8774)">
<path d="M15.1667 7.875C15.1667 7.39175 14.7749 7 14.2917 7C13.8084 7 13.4167 7.39175 13.4167 7.875V15.4583C13.4167 15.9416 13.8084 16.3333 14.2917 16.3333H21.2917C21.7749 16.3333 22.1667 15.9416 22.1667 15.4583C22.1667 14.9751 21.7749 14.5833 21.2917 14.5833H15.1667V7.875Z" fill="#18202A"/>
<path fill-rule="evenodd" clip-rule="evenodd" d="M15.1667 0.875C15.1667 0.391751 14.7749 0 14.2917 0C13.8084 0 13.4167 0.391751 13.4167 0.875V2.34635C6.59978 2.65132 1.16669 8.27451 1.16669 15.1667C1.16669 22.2543 6.91237 28 14 28C21.0877 28 26.8334 22.2543 26.8334 15.1667C26.8334 11.145 24.9835 7.55545 22.0882 5.20242L23.1719 4.11872C23.5136 3.77701 23.5136 3.22299 23.1719 2.88128C22.8302 2.53957 22.2762 2.53957 21.9345 2.88128L20.6359 4.17991C19.0131 3.1977 17.1553 2.56485 15.1667 2.38565V0.875ZM14 26.25C20.1212 26.25 25.0834 21.2878 25.0834 15.1667C25.0834 9.04551 20.1212 4.08333 14 4.08333C7.87886 4.08333 2.91669 9.04551 2.91669 15.1667C2.91669 21.2878 7.87886 26.25 14 26.25Z" fill="#18202A"/>
</g>
<defs>
<clipPath id="clip0_3737_8774">
<rect width="28" height="28" fill="white"/>
</clipPath>
</defs>
</svg>
