<svg width="28" height="28" viewBox="0 0 28 28" fill="none" xmlns="http://www.w3.org/2000/svg">
<path fill-rule="evenodd" clip-rule="evenodd" d="M24.983 5.55066L22.449 3.01666C22.0114 2.57923 21.418 2.3335 20.7993 2.3335C20.1806 2.3335 19.5872 2.57923 19.1497 3.01666L3.49999 18.6663L2.68743 23.9827C2.56848 24.7609 3.23871 25.4312 4.01697 25.3122L9.33332 24.4997L24.983 8.85C25.4204 8.41243 25.6662 7.81905 25.6662 7.20033C25.6662 6.58161 25.4204 5.98823 24.983 5.55066ZM22.131 9.22709L23.7454 7.61275C23.8546 7.50337 23.9162 7.35492 23.9162 7.20033C23.9162 7.04574 22.8592 5.94287 22.75 5.8335L21.2116 4.2541C21.1022 4.14486 20.9539 4.0835 20.7993 4.0835C20.6447 4.0835 20.4963 4.14505 20.3869 4.25429L18.7726 5.86863L22.131 9.22709ZM20.8936 10.4645L17.5351 7.10607L5.1432 19.498L4.53728 23.4624L8.50166 22.8565L20.8936 10.4645Z" fill="#18202A"/>
</svg>
