<svg width="28" height="28" viewBox="0 0 28 28" fill="none" xmlns="http://www.w3.org/2000/svg">
<path fill-rule="evenodd" clip-rule="evenodd" d="M2.59118 2.59134C2.93497 2.24755 3.49236 2.24755 3.83615 2.59134L25.4088 24.164C25.7526 24.5078 25.7526 25.0652 25.4088 25.409C25.065 25.7528 24.5076 25.7528 24.1638 25.409L22.0884 23.3335H0.875C0.391751 23.3335 0 22.9417 0 22.4585C0 21.9752 0.391751 21.5835 0.875 21.5835H4.66667C2.73367 21.5835 1.16667 20.0165 1.16667 18.0835V8.17139C1.16667 6.61265 2.18562 5.29191 3.59376 4.8389L2.59118 3.83632C2.24739 3.49252 2.24739 2.93513 2.59118 2.59134ZM15.9723 17.2175L18.5884 19.8335H4.66667C3.70017 19.8335 2.91667 19.05 2.91667 18.0835V8.17139C2.91667 7.20489 3.70017 6.42139 4.66667 6.42139H5.17625L10.7209 11.9661C10.6651 12.006 10.6098 12.047 10.5551 12.0892C9.12643 13.1918 8.16664 15.0366 8.16664 17.9639C8.16664 18.0955 8.25479 18.2108 8.38181 18.2453C8.50882 18.2798 8.64322 18.225 8.70984 18.1115C9.49345 16.7765 10.1157 15.9636 11.0461 15.4646C11.6767 15.1265 12.4676 14.9226 13.5801 14.8252L15.1666 16.4118V16.6764C15.1666 17.114 15.6122 17.3677 15.9723 17.2175Z" fill="#18202A"/>
<path d="M18.4847 14.7666L14.4338 10.7158C14.6796 10.6942 14.9245 10.6812 15.1666 10.6756V8.75133C15.1666 8.23164 15.795 7.97137 16.1625 8.33885L20.125 12.3014C20.3528 12.5292 20.3528 12.8985 20.125 13.1263L18.4847 14.7666Z" fill="#18202A"/>
<path d="M25.0833 18.0835C25.0833 18.9802 24.4088 19.7195 23.5395 19.8215L24.9214 21.2033C26.0562 20.6245 26.8333 19.4448 26.8333 18.0835V8.17139C26.8333 6.23839 25.2663 4.67139 23.3333 4.67139H8.3894L10.1394 6.42139H23.3333C24.2998 6.42139 25.0833 7.20489 25.0833 8.17139V18.0835Z" fill="#18202A"/>
<path d="M25.3015 21.5835L27.0515 23.3335H27.125C27.6082 23.3335 28 22.9417 28 22.4585C28 21.9752 27.6082 21.5835 27.125 21.5835H25.3015Z" fill="#18202A"/>
</svg>
