<svg width="28" height="28" viewBox="0 0 28 28" fill="none" xmlns="http://www.w3.org/2000/svg">
<g clip-path="url(#clip0_3394_8865)">
<path d="M21.5834 7.58317C21.5834 8.2275 21.061 8.74984 20.4167 8.74984C19.7724 8.74984 19.25 8.2275 19.25 7.58317C19.25 6.93884 19.7724 6.4165 20.4167 6.4165C21.061 6.4165 21.5834 6.93884 21.5834 7.58317Z" fill="#18202A"/>
<path fill-rule="evenodd" clip-rule="evenodd" d="M19.4791 1.1665C19.0911 1.1665 18.7567 1.43943 18.679 1.81951L18.5001 2.69401C18.0067 2.88759 17.5497 3.15371 17.1422 3.47924L16.2941 3.19645C15.9261 3.07373 15.5225 3.22687 15.3285 3.56285L14.3909 5.18688C14.1969 5.52286 14.2661 5.94893 14.5564 6.20629L15.2249 6.79902C15.1866 7.05483 15.1667 7.31668 15.1667 7.58317C15.1667 7.84967 15.1866 8.11154 15.2249 8.36737L14.5564 8.96007C14.2661 9.21744 14.1969 9.64351 14.3909 9.97949L15.3285 11.6035C15.5225 11.9395 15.9261 12.0926 16.2941 11.9699L17.1423 11.6871C17.5497 12.0126 18.0067 12.2788 18.5001 12.4723L18.679 13.3468C18.7567 13.7269 19.0911 13.9998 19.4791 13.9998H21.3544C21.7423 13.9998 22.0767 13.7269 22.1545 13.3468L22.3333 12.4723C22.8267 12.2788 23.2837 12.0127 23.6912 11.6872L24.5393 11.97C24.9073 12.0927 25.3109 11.9395 25.5049 11.6035L26.4425 9.97952C26.6365 9.64354 26.5673 9.21747 26.277 8.9601L25.6085 8.36742C25.6469 8.11158 25.6667 7.84969 25.6667 7.58317C25.6667 7.31667 25.6469 7.0548 25.6086 6.79897L26.2771 6.20627C26.5674 5.9489 26.6365 5.52283 26.4425 5.18685L25.5049 3.56282C25.3109 3.22685 24.9074 3.07371 24.5393 3.19642L23.6912 3.47921C23.2837 3.15369 22.8267 2.88759 22.3333 2.69401L22.1545 1.81951C22.0767 1.43943 21.7423 1.1665 21.3544 1.1665H19.4791ZM23.3334 7.58317C23.3334 9.194 22.0275 10.4998 20.4167 10.4998C18.8059 10.4998 17.5 9.194 17.5 7.58317C17.5 5.97234 18.8059 4.6665 20.4167 4.6665C22.0275 4.6665 23.3334 5.97234 23.3334 7.58317Z" fill="#18202A"/>
<path d="M9.33335 20.4165C10.2999 20.4165 11.0834 19.633 11.0834 18.6665C11.0834 17.7 10.2999 16.9165 9.33335 16.9165C8.36685 16.9165 7.58335 17.7 7.58335 18.6665C7.58335 19.633 8.36685 20.4165 9.33335 20.4165Z" fill="#18202A"/>
<path fill-rule="evenodd" clip-rule="evenodd" d="M7.11922 10.5769C7.19401 10.1933 7.53002 9.9165 7.92079 9.9165H10.746C11.1368 9.9165 11.4728 10.1933 11.5476 10.5769L11.851 12.1329C12.5362 12.3971 13.1694 12.766 13.731 13.22L15.2321 12.7041C15.6017 12.5771 16.0094 12.7297 16.2048 13.0681L17.6174 15.5149C17.8128 15.8533 17.7411 16.2827 17.4463 16.5392L16.2497 17.5807C16.3048 17.9346 16.3334 18.2972 16.3334 18.6665C16.3334 19.0359 16.3048 19.3986 16.2497 19.7525L17.4462 20.7939C17.741 21.0505 17.8127 21.4799 17.6173 21.8183L16.2047 24.265C16.0093 24.6034 15.6016 24.756 15.232 24.629L13.7309 24.1131C13.1693 24.5671 12.5362 24.9359 11.851 25.2001L11.5476 26.7561C11.4728 27.1397 11.1368 27.4165 10.746 27.4165H7.92079C7.53002 27.4165 7.19401 27.1397 7.11922 26.7561L6.81579 25.2001C6.13056 24.9359 5.49735 24.567 4.93578 24.113L3.43465 24.6289C3.0651 24.7559 2.65736 24.6033 2.46198 24.2649L1.04936 21.8181C0.853976 21.4797 0.925702 21.0503 1.22046 20.7938L2.41711 19.7523C2.362 19.3984 2.3334 19.0358 2.3334 18.6665C2.3334 18.2973 2.36199 17.9347 2.41708 17.5809L1.22037 16.5394C0.92561 16.2828 0.853884 15.8534 1.04927 15.515L2.46189 13.0683C2.65727 12.7299 3.06501 12.5773 3.43456 12.7043L4.93562 13.2201C5.49723 12.7661 6.13049 12.3971 6.81579 12.1329L7.11922 10.5769ZM9.33335 22.7498C11.5885 22.7498 13.4167 20.9217 13.4167 18.6665C13.4167 16.4113 11.5885 14.5832 9.33335 14.5832C7.07819 14.5832 5.25002 16.4113 5.25002 18.6665C5.25002 20.9217 7.07819 22.7498 9.33335 22.7498Z" fill="#18202A"/>
</g>
<defs>
<clipPath id="clip0_3394_8865">
<rect width="28" height="28" fill="white"/>
</clipPath>
</defs>
</svg>
