<svg width="28" height="28" viewBox="0 0 28 28" fill="none" xmlns="http://www.w3.org/2000/svg">
<g clip-path="url(#clip0_3893_8903)">
<path d="M22.7501 12.542C22.7501 12.0587 23.1418 11.667 23.6251 11.667C24.1083 11.667 24.5001 12.0587 24.5001 12.542V22.167C24.5001 24.7443 22.4107 26.8337 19.8334 26.8337H8.16673C5.5894 26.8337 3.50006 24.7443 3.50006 22.167V5.83366C3.50006 3.25633 5.5894 1.16699 8.16673 1.16699H14.2917C14.7749 1.16699 15.1667 1.55874 15.1667 2.04199C15.1667 2.52524 14.7749 2.91699 14.2917 2.91699L8.16673 2.91699C6.5559 2.91699 5.25006 4.22283 5.25006 5.83366L5.25006 22.167C5.25006 23.7778 6.5559 25.0837 8.16673 25.0837H19.8334C21.4442 25.0837 22.7501 23.7778 22.7501 22.167V12.542Z" fill="#18202A"/>
<path d="M9.04166 15.167C8.55841 15.167 8.16666 15.5587 8.16666 16.042C8.16666 16.5252 8.55841 16.917 9.04166 16.917H14.2917C14.7749 16.917 15.1667 16.5252 15.1667 16.042C15.1667 15.5587 14.7749 15.167 14.2917 15.167H9.04166Z" fill="#18202A"/>
<path d="M9.04166 10.5003C8.55841 10.5003 8.16666 10.8921 8.16666 11.3753C8.16666 11.8586 8.55841 12.2503 9.04166 12.2503H11.9583C12.4416 12.2503 12.8333 11.8586 12.8333 11.3753C12.8333 10.8921 12.4416 10.5003 11.9583 10.5003H9.04166Z" fill="#18202A"/>
<path d="M9.04166 19.8337C8.55841 19.8337 8.16666 20.2254 8.16666 20.7087C8.16666 21.1919 8.55841 21.5837 9.04166 21.5837H18.9583C19.4416 21.5837 19.8333 21.1919 19.8333 20.7087C19.8333 20.2254 19.4416 19.8337 18.9583 19.8337H9.04166Z" fill="#18202A"/>
<path d="M23.0315 6.47661L20.7083 4.33214V11.9587C20.7083 12.4419 20.3166 12.8337 19.8333 12.8337C19.3501 12.8337 18.9583 12.4419 18.9583 11.9587V4.33215L16.6352 6.47661C16.2801 6.80439 15.7265 6.78225 15.3987 6.42715C15.0709 6.07206 15.0931 5.51848 15.4482 5.19071L19.2398 1.69071C19.575 1.38131 20.0916 1.38131 20.4268 1.69071L24.2185 5.19071C24.5736 5.51848 24.5957 6.07206 24.2679 6.42715C23.9402 6.78225 23.3866 6.80439 23.0315 6.47661Z" fill="#18202A"/>
</g>
<defs>
<clipPath id="clip0_3893_8903">
<rect width="28" height="28" fill="white"/>
</clipPath>
</defs>
</svg>
