<svg width="28" height="28" viewBox="0 0 28 28" fill="none" xmlns="http://www.w3.org/2000/svg">
<path fill-rule="evenodd" clip-rule="evenodd" d="M19.7352 24.4998C19.3021 26.2913 17.4982 27.4996 15.6 27.0929L6.26665 25.0929C4.6529 24.7471 3.5 23.3209 3.5 21.6706V4.6665C3.5 2.73351 5.067 1.1665 7 1.1665H21C22.933 1.1665 24.5 2.73351 24.5 4.6665V20.9998C24.5 22.9328 22.933 24.4998 21 24.4998H19.7352ZM21 2.9165C21.9665 2.9165 22.75 3.70001 22.75 4.6665V20.9998C22.75 21.9663 21.9665 22.7498 21 22.7498H19.8333V7.49613C19.8333 5.84575 18.6804 4.41962 17.0667 4.07382L11.6659 2.9165H21ZM16.7 5.78497L7.36668 3.78497C6.27728 3.55153 5.25 4.382 5.25 5.49613V21.6706C5.25 22.4957 5.82645 23.2088 6.63333 23.3817L15.9667 25.3817C17.0561 25.6151 18.0833 24.7847 18.0833 23.6705V7.49613C18.0833 6.67094 17.5069 5.95788 16.7 5.78497ZM15.1667 17.4998C15.811 17.4998 16.3333 16.7163 16.3333 15.7498C16.3333 14.7833 15.811 13.9998 15.1667 13.9998C14.5223 13.9998 14 14.7833 14 15.7498C14 16.7163 14.5223 17.4998 15.1667 17.4998Z" fill="#18202A"/>
</svg>
