<svg width="28" height="28" viewBox="0 0 28 28" fill="none" xmlns="http://www.w3.org/2000/svg">
<path d="M21 3.20825C21 3.6915 20.6082 4.08325 20.125 4.08325H6.99998C5.38915 4.08325 4.08331 5.38909 4.08331 6.99992V20.9999C4.08331 22.6107 5.38915 23.9166 6.99998 23.9166H21C22.6108 23.9166 23.9166 22.6107 23.9166 20.9999V13.7083C23.9166 13.225 24.3084 12.8333 24.7916 12.8333C25.2749 12.8333 25.6666 13.225 25.6666 13.7083V20.9999C25.6666 23.5772 23.5773 25.6666 21 25.6666H6.99998C4.42265 25.6666 2.33331 23.5772 2.33331 20.9999V6.99992C2.33331 4.42259 4.42265 2.33325 6.99998 2.33325H20.125C20.6082 2.33325 21 2.725 21 3.20825Z" fill="#18202A"/>
<path d="M25.702 7.0353C26.0437 6.69359 26.0437 6.13958 25.702 5.79787C25.3603 5.45616 24.8063 5.45616 24.4646 5.79787L13.4166 16.8458L9.3687 12.7979C9.02699 12.4562 8.47297 12.4562 8.13126 12.7979C7.78955 13.1396 7.78955 13.6936 8.13126 14.0353L12.7979 18.702C13.1396 19.0437 13.6937 19.0437 14.0354 18.702L25.702 7.0353Z" fill="#18202A"/>
</svg>
