<svg width="28" height="28" viewBox="0 0 28 28" fill="none" xmlns="http://www.w3.org/2000/svg">
<path fill-rule="evenodd" clip-rule="evenodd" d="M18.6667 2.91699L19.25 2.91699C20.2165 2.91699 21 3.70049 21 4.66699V23.3337C21 24.3002 20.2165 25.0837 19.25 25.0837H8.75C7.7835 25.0837 7 24.3002 7 23.3337V4.66699C7 3.70049 7.7835 2.91699 8.75 2.91699L9.33333 2.91699V3.25033C9.33333 4.35489 10.2288 5.25033 11.3333 5.25033H16.6667C17.7712 5.25033 18.6667 4.35489 18.6667 3.25033V2.91699ZM5.25 4.66699C5.25 2.734 6.817 1.16699 8.75 1.16699H19.25C21.183 1.16699 22.75 2.734 22.75 4.66699V23.3337C22.75 25.2667 21.183 26.8337 19.25 26.8337H8.75C6.817 26.8337 5.25 25.2667 5.25 23.3337V4.66699Z" fill="#18202A"/>
</svg>
