<svg width="28" height="28" viewBox="0 0 28 28" fill="none" xmlns="http://www.w3.org/2000/svg">
<path fill-rule="evenodd" clip-rule="evenodd" d="M14 25.0833C20.1211 25.0833 25.0833 20.1211 25.0833 14C25.0833 7.87883 20.1211 2.91666 14 2.91666C7.87883 2.91666 2.91666 7.87883 2.91666 14C2.91666 20.1211 7.87883 25.0833 14 25.0833ZM14 26.8333C21.0876 26.8333 26.8333 21.0876 26.8333 14C26.8333 6.91234 21.0876 1.16666 14 1.16666C6.91234 1.16666 1.16666 6.91234 1.16666 14C1.16666 21.0876 6.91234 26.8333 14 26.8333Z" fill="#18202A"/>
<path fill-rule="evenodd" clip-rule="evenodd" d="M14.5479 8.71461C14.8896 8.3729 15.4437 8.3729 15.7854 8.71461L20.452 13.3813C20.7938 13.723 20.7938 14.277 20.452 14.6187L15.7854 19.2854C15.4437 19.6271 14.8896 19.6271 14.5479 19.2854C14.2062 18.9437 14.2062 18.3896 14.5479 18.0479L17.7209 14.875H8.16666C7.68341 14.875 7.29166 14.4832 7.29166 14C7.29166 13.5167 7.68341 13.125 8.16666 13.125H17.7209L14.5479 9.95204C14.2062 9.61033 14.2062 9.05631 14.5479 8.71461Z" fill="#18202A"/>
</svg>
