<svg width="28" height="28" viewBox="0 0 28 28" fill="none" xmlns="http://www.w3.org/2000/svg">
<path fill-rule="evenodd" clip-rule="evenodd" d="M6.65829 9.67512C7.1139 10.1307 7.1139 10.8694 6.65829 11.325L3.98325 14.0001L6.65829 16.6751C7.1139 17.1307 7.1139 17.8694 6.65829 18.325C6.20268 18.7807 5.46398 18.7807 5.00837 18.325L1.50837 14.825C1.05276 14.3694 1.05276 13.6307 1.50837 13.1751L5.00837 9.67512C5.46398 9.21951 6.20268 9.21951 6.65829 9.67512Z" fill="#18202A"/>
<path fill-rule="evenodd" clip-rule="evenodd" d="M13.175 1.50846C13.6307 1.05285 14.3693 1.05285 14.825 1.50846L18.325 5.00846C18.7806 5.46407 18.7806 6.20276 18.325 6.65837C17.8693 7.11399 17.1307 7.11399 16.675 6.65837L14 3.98333L11.325 6.65837C10.8693 7.11399 10.1307 7.11399 9.67504 6.65837C9.21943 6.20276 9.21943 5.46407 9.67504 5.00846L13.175 1.50846Z" fill="#18202A"/>
<path fill-rule="evenodd" clip-rule="evenodd" d="M9.67504 21.3418C10.1307 20.8862 10.8693 20.8862 11.325 21.3418L14 24.0168L16.675 21.3418C17.1307 20.8862 17.8693 20.8862 18.325 21.3418C18.7806 21.7974 18.7806 22.5361 18.325 22.9917L14.825 26.4917C14.3693 26.9473 13.6307 26.9473 13.175 26.4917L9.67504 22.9917C9.21943 22.5361 9.21943 21.7974 9.67504 21.3418Z" fill="#18202A"/>
<path fill-rule="evenodd" clip-rule="evenodd" d="M21.3417 9.67512C21.7973 9.21951 22.536 9.21951 22.9916 9.67512L26.4916 13.1751C26.9472 13.6307 26.9472 14.3694 26.4916 14.825L22.9916 18.325C22.536 18.7807 21.7973 18.7807 21.3417 18.325C20.8861 17.8694 20.8861 17.1307 21.3417 16.6751L24.0168 14.0001L21.3417 11.325C20.8861 10.8694 20.8861 10.1307 21.3417 9.67512Z" fill="#18202A"/>
<path fill-rule="evenodd" clip-rule="evenodd" d="M1.16666 14.0001C1.16666 13.3558 1.689 12.8334 2.33333 12.8334H25.6667C26.311 12.8334 26.8333 13.3558 26.8333 14.0001C26.8333 14.6444 26.311 15.1667 25.6667 15.1667H2.33333C1.689 15.1667 1.16666 14.6444 1.16666 14.0001Z" fill="#18202A"/>
<path fill-rule="evenodd" clip-rule="evenodd" d="M14 1.16675C14.6443 1.16675 15.1667 1.68908 15.1667 2.33341V25.6667C15.1667 26.3111 14.6443 26.8334 14 26.8334C13.3557 26.8334 12.8333 26.3111 12.8333 25.6667V2.33341C12.8333 1.68908 13.3557 1.16675 14 1.16675Z" fill="#18202A"/>
</svg>
