<svg width="28" height="28" viewBox="0 0 28 28" fill="none" xmlns="http://www.w3.org/2000/svg">
<path d="M10.2083 2.3335C10.6916 2.3335 11.0833 2.72525 11.0833 3.2085C11.0833 3.69175 10.6916 4.0835 10.2083 4.0835H5.83331C4.86681 4.0835 4.08331 4.867 4.08331 5.8335V10.2085C4.08331 10.6917 3.69156 11.0835 3.20831 11.0835C2.72506 11.0835 2.33331 10.6917 2.33331 10.2085V5.8335C2.33331 3.9005 3.90032 2.3335 5.83331 2.3335H10.2083Z" fill="#18202A"/>
<path d="M16.9166 3.2085C16.9166 3.69175 17.3084 4.0835 17.7916 4.0835H22.1666C23.1331 4.0835 23.9166 4.867 23.9166 5.8335V10.2085C23.9166 10.6917 24.3084 11.0835 24.7916 11.0835C25.2749 11.0835 25.6666 10.6917 25.6666 10.2085V5.8335C25.6666 3.9005 24.0996 2.3335 22.1666 2.3335H17.7916C17.3084 2.3335 16.9166 2.72525 16.9166 3.2085Z" fill="#18202A"/>
<path d="M16.9166 24.7918C16.9166 24.3086 17.3084 23.9168 17.7916 23.9168H22.1666C23.1331 23.9168 23.9166 23.1333 23.9166 22.1668V17.7918C23.9166 17.3086 24.3084 16.9168 24.7916 16.9168C25.2749 16.9168 25.6666 17.3086 25.6666 17.7918V22.1668C25.6666 24.0998 24.0996 25.6668 22.1666 25.6668H17.7916C17.3084 25.6668 16.9166 25.2751 16.9166 24.7918Z" fill="#18202A"/>
<path d="M4.08331 17.7918C4.08331 17.3086 3.69156 16.9168 3.20831 16.9168C2.72506 16.9168 2.33331 17.3086 2.33331 17.7918V22.1668C2.33331 24.0998 3.90032 25.6668 5.83331 25.6668H10.2083C10.6916 25.6668 11.0833 25.2751 11.0833 24.7918C11.0833 24.3086 10.6916 23.9168 10.2083 23.9168H5.83331C4.86681 23.9168 4.08331 23.1333 4.08331 22.1668V17.7918Z" fill="#18202A"/>
</svg>
