<svg width="28" height="28" viewBox="0 0 28 28" fill="none" xmlns="http://www.w3.org/2000/svg">
<path d="M10.5 3.50004C10.5 2.85571 11.0224 2.33337 11.6667 2.33337H16.3334C16.9777 2.33337 17.5 2.85571 17.5 3.50004C17.5 4.14437 16.9777 4.66671 16.3334 4.66671H15.1667V23.3334H16.3334C16.9777 23.3334 17.5 23.8557 17.5 24.5C17.5 25.1444 16.9777 25.6667 16.3334 25.6667H11.6667C11.0224 25.6667 10.5 25.1444 10.5 24.5C10.5 23.8557 11.0224 23.3334 11.6667 23.3334H12.8334V4.66671H11.6667C11.0224 4.66671 10.5 4.14437 10.5 3.50004Z" fill="#18202A"/>
<path d="M2.33337 9.33337C2.33337 7.40038 3.90038 5.83337 5.83337 5.83337H11.6667V22.1667H5.83337C3.90038 22.1667 2.33337 20.5997 2.33337 18.6667V9.33337Z" fill="#18202A"/>
<path d="M25.6667 9.33337C25.6667 7.40038 24.0997 5.83337 22.1667 5.83337H16.3334V22.1667H22.1667C24.0997 22.1667 25.6667 20.5997 25.6667 18.6667V9.33337Z" fill="#18202A"/>
</svg>
