<svg width="28" height="28" viewBox="0 0 28 28" fill="none" xmlns="http://www.w3.org/2000/svg">
<g clip-path="url(#clip0_3916_8836)">
<path fill-rule="evenodd" clip-rule="evenodd" d="M7.67017 4.82158C6.7514 3.90284 7.40218 2.33191 8.70149 2.33203L20.7083 2.33312C21.5136 2.33319 22.1664 2.98599 22.1665 3.79129L22.1678 15.7982C22.1679 17.0975 20.597 17.7483 19.6783 16.8296L16.6313 13.7826C14.2756 16.2189 13.0507 18.0109 12.4912 19.6592C11.9254 21.3259 12.0048 22.9495 12.4759 25.1468C12.6252 25.8429 12.2757 26.4591 11.751 26.7418C11.2128 27.0318 10.4813 26.9703 10.0009 26.3965C6.87088 22.658 5.96037 19.0995 6.46213 15.8554C6.94278 12.7479 8.69926 10.0629 10.7327 7.88402L7.67017 4.82158ZM20.4165 4.08309L9.40558 4.0821L12.1658 6.84228C12.739 7.41547 12.7264 8.32739 12.1851 8.89471C10.1974 10.978 8.61012 13.4169 8.19157 16.1229C7.82212 18.5115 8.34588 21.2226 10.5226 24.2234C10.2415 22.4277 10.2561 20.7993 10.834 19.0967C11.5372 17.0253 13.0387 14.9499 15.5879 12.3455C16.1528 11.7684 17.0843 11.7608 17.6575 12.3339L20.4177 15.0942L20.4165 4.08309Z" fill="#18202A"/>
</g>
<defs>
<clipPath id="clip0_3916_8836">
<rect width="28" height="28" fill="white"/>
</clipPath>
</defs>
</svg>
