<svg width="28" height="28" viewBox="0 0 28 28" fill="none" xmlns="http://www.w3.org/2000/svg">
<path fill-rule="evenodd" clip-rule="evenodd" d="M18.8963 7.32984C19.3584 7.7788 19.3691 8.51742 18.9202 8.97958L7.58684 20.6463C7.36147 20.8782 7.04991 21.0063 6.72653 20.9998C6.40316 20.9933 6.097 20.8528 5.88115 20.6119L2.04782 16.3341C1.61782 15.8543 1.65823 15.1167 2.13809 14.6867C2.61795 14.2567 3.35553 14.2971 3.78554 14.777L6.78442 18.1236L17.2465 7.35375C17.6955 6.89158 18.4341 6.88088 18.8963 7.32984Z" fill="#18202A"/>
<path fill-rule="evenodd" clip-rule="evenodd" d="M25.8963 7.32984C26.3584 7.7788 26.3691 8.51742 25.9202 8.97958L14.5868 20.6463C14.3557 20.8841 14.0343 21.0124 13.7029 20.9991C13.3716 20.9857 13.0615 20.8319 12.8504 20.5761L11.6051 19.0679C11.1949 18.571 11.2651 17.8357 11.762 17.4255C12.2588 17.0152 12.9942 17.0854 13.4044 17.5823L13.8206 18.0864L24.2465 7.35375C24.6955 6.89158 25.4341 6.88088 25.8963 7.32984Z" fill="#18202A"/>
</svg>
