<svg width="28" height="28" viewBox="0 0 28 28" fill="none" xmlns="http://www.w3.org/2000/svg">
<path fill-rule="evenodd" clip-rule="evenodd" d="M14 2.3335C11.4227 2.3335 9.33331 4.42283 9.33331 7.00016V12.8335C9.33331 15.4108 11.4227 17.5002 14 17.5002C16.5773 17.5002 18.6666 15.4108 18.6666 12.8335V7.00016C18.6666 4.42283 16.5773 2.3335 14 2.3335ZM14 15.7502C15.6108 15.7502 16.9166 14.4443 16.9166 12.8335V7.00016C16.9166 5.38933 15.6108 4.0835 14 4.0835C12.3891 4.0835 11.0833 5.38933 11.0833 7.00016V12.8335C11.0833 14.4443 12.3892 15.7502 14 15.7502Z" fill="#18202A"/>
<path d="M6.66658 12.8335C6.18333 12.8335 5.78665 13.2266 5.83776 13.7071C6.24463 17.5331 9.2935 20.5699 13.125 20.9582V23.9168H9.62498C9.14173 23.9168 8.74998 24.3086 8.74998 24.7918C8.74998 25.2751 9.14173 25.6668 9.62498 25.6668H18.375C18.8582 25.6668 19.25 25.2751 19.25 24.7918C19.25 24.3086 18.8582 23.9168 18.375 23.9168H14.875V20.9493C18.6672 20.5257 21.6748 17.5053 22.0787 13.7071C22.1298 13.2266 21.7332 12.8335 21.2499 12.8335C20.7667 12.8335 20.3812 13.2274 20.3161 13.7063C19.8903 16.8372 17.206 19.2502 13.9582 19.2502C10.7104 19.2502 8.02622 16.8372 7.60043 13.7063C7.53532 13.2274 7.14983 12.8335 6.66658 12.8335Z" fill="#18202A"/>
</svg>
