<svg width="28" height="28" viewBox="0 0 28 28" fill="none" xmlns="http://www.w3.org/2000/svg">
<path d="M2.33337 4.66671C2.33337 3.37804 3.37804 2.33337 4.66671 2.33337H10.5C11.7887 2.33337 12.8334 3.37804 12.8334 4.66671V7.00004C12.8334 8.2887 11.7887 9.33337 10.5 9.33337H8.16671V14H17.5C17.5 12.7114 18.5447 11.6667 19.8334 11.6667H23.3334C24.622 11.6667 25.6667 12.7114 25.6667 14V15.1667C25.6667 16.4554 24.622 17.5 23.3334 17.5H19.8334C18.9697 17.5 18.2156 17.0308 17.8122 16.3334H8.16671V21C8.16671 21.6444 8.68904 22.1667 9.33337 22.1667H17.5C17.5 20.878 18.5447 19.8334 19.8334 19.8334H23.3334C24.622 19.8334 25.6667 20.878 25.6667 22.1667V23.3334C25.6667 24.622 24.622 25.6667 23.3334 25.6667H19.8334C18.9697 25.6667 18.2156 25.1975 17.8122 24.5H9.33337C7.40038 24.5 5.83337 22.933 5.83337 21V9.33337H4.66671C3.37804 9.33337 2.33337 8.2887 2.33337 7.00004V4.66671Z" fill="#18202A"/>
</svg>
