<svg width="28" height="28" viewBox="0 0 28 28" fill="none" xmlns="http://www.w3.org/2000/svg">
<path fill-rule="evenodd" clip-rule="evenodd" d="M1.16666 5.83366C1.16666 3.25633 3.256 1.16699 5.83333 1.16699H17.5C19.2273 1.16699 20.7355 2.10546 21.5423 3.50033H8.16666C5.58934 3.50033 3.5 5.58966 3.5 8.16699V21.5427C2.10513 20.7358 1.16666 19.2277 1.16666 17.5003V5.83366ZM10.5 5.83366C7.92267 5.83366 5.83333 7.923 5.83333 10.5003V22.167C5.83333 24.7443 7.92267 26.8337 10.5 26.8337H22.1667C24.744 26.8337 26.8333 24.7443 26.8333 22.167V10.5003C26.8333 7.923 24.744 5.83366 22.1667 5.83366H10.5Z" fill="#18202A"/>
</svg>
