<svg width="28" height="28" viewBox="0 0 28 28" fill="none" xmlns="http://www.w3.org/2000/svg">
<path fill-rule="evenodd" clip-rule="evenodd" d="M23.3333 15.7498C23.3333 18.005 21.5052 19.8332 19.25 19.8332C16.9948 19.8332 15.1667 18.005 15.1667 15.7498C15.1667 13.4947 16.9948 11.6665 19.25 11.6665C21.5052 11.6665 23.3333 13.4947 23.3333 15.7498ZM19.25 13.4165C20.5387 13.4165 21.5833 14.4612 21.5833 15.7498C21.5833 17.0385 20.5387 18.0832 19.25 18.0832C17.9613 18.0832 16.9167 17.0385 16.9167 15.7498C16.9167 14.4612 17.9613 13.4165 19.25 13.4165Z" fill="#18202A"/>
<path fill-rule="evenodd" clip-rule="evenodd" d="M8.75 19.8332C11.0052 19.8332 12.8333 18.005 12.8333 15.7498C12.8333 13.4947 11.0052 11.6665 8.75 11.6665C6.49484 11.6665 4.66667 13.4947 4.66667 15.7498C4.66667 18.005 6.49484 19.8332 8.75 19.8332ZM11.0833 15.7498C11.0833 14.4612 10.0387 13.4165 8.75 13.4165C7.46134 13.4165 6.41667 14.4612 6.41667 15.7498C6.41667 17.0385 7.46134 18.0832 8.75 18.0832C10.0387 18.0832 11.0833 17.0385 11.0833 15.7498Z" fill="#18202A"/>
<path d="M12.5417 22.1665C12.0584 22.1665 11.6667 22.5583 11.6667 23.0415C11.6667 23.5248 12.0584 23.9165 12.5417 23.9165H15.4583C15.9416 23.9165 16.3333 23.5248 16.3333 23.0415C16.3333 22.5583 15.9416 22.1665 15.4583 22.1665H12.5417Z" fill="#18202A"/>
<path fill-rule="evenodd" clip-rule="evenodd" d="M16.3333 3.49984C16.3333 2.21117 15.2887 1.1665 14 1.1665C12.7113 1.1665 11.6667 2.21117 11.6667 3.49984C11.6667 4.47907 12.2699 5.31742 13.125 5.66356V6.99984H10.5C6.38578 6.99984 2.98214 10.0422 2.41604 13.9998H1.75C0.783502 13.9998 0 14.7833 0 15.7498V19.2498C0 20.2163 0.783502 20.9998 1.75 20.9998H2.33333V22.1665C2.33333 24.7438 4.42267 26.8332 7 26.8332H21C23.5773 26.8332 25.6667 24.7438 25.6667 22.1665V20.9998H26.25C27.2165 20.9998 28 20.2163 28 19.2498V15.7498C28 14.7833 27.2165 13.9998 26.25 13.9998H25.584C25.0179 10.0422 21.6142 6.99984 17.5 6.99984H14.875V5.66356C15.7301 5.31742 16.3333 4.47907 16.3333 3.49984ZM17.5 8.74984C21.0438 8.74984 23.9167 11.6227 23.9167 15.1665V22.1665C23.9167 23.7773 22.6108 25.0832 21 25.0832H7C5.38917 25.0832 4.08333 23.7773 4.08333 22.1665V15.1665C4.08333 11.6227 6.95617 8.74984 10.5 8.74984H17.5Z" fill="#18202A"/>
</svg>
