<svg width="28" height="28" viewBox="0 0 28 28" fill="none" xmlns="http://www.w3.org/2000/svg">
<g clip-path="url(#clip0_2296_15223)">
<path fill-rule="evenodd" clip-rule="evenodd" d="M1.16666 5.83366C1.16666 3.25633 3.256 1.16699 5.83333 1.16699H22.1667C24.744 1.16699 26.8333 3.25633 26.8333 5.83366V17.8619C26.1359 16.4328 24.8717 15.3311 23.3333 14.8493V14.0003C23.3333 13.356 22.811 12.8337 22.1667 12.8337H5.83333C5.189 12.8337 4.66666 13.356 4.66666 14.0003V22.167C4.66666 22.8113 5.189 23.3337 5.83333 23.3337H15.3767C14.2445 24.3179 14.3997 25.9622 15.3645 26.8337H5.83333C3.256 26.8337 1.16666 24.7443 1.16666 22.167V5.83366ZM4.66666 7.00033C4.66666 5.71166 5.71133 4.66699 7 4.66699C8.28866 4.66699 9.33333 5.71166 9.33333 7.00033C9.33333 8.28899 8.28866 9.33366 7 9.33366C5.71133 9.33366 4.66666 8.28899 4.66666 7.00033ZM12.8333 5.83366C12.189 5.83366 11.6667 6.35599 11.6667 7.00033C11.6667 7.64466 12.189 8.16699 12.8333 8.16699H22.1667C22.811 8.16699 23.3333 7.64466 23.3333 7.00033C23.3333 6.35599 22.811 5.83366 22.1667 5.83366H12.8333Z" fill="#18202A"/>
<path fill-rule="evenodd" clip-rule="evenodd" d="M25.6667 20.4163L25.6667 20.433V22.9163C25.6667 23.5459 25.963 24.1386 26.4667 24.5163C26.9578 24.8847 26.6973 25.6663 26.0833 25.6663H17.0833C16.4693 25.6663 16.2088 24.8847 16.7 24.5163C17.2036 24.1386 17.5 23.5459 17.5 22.9163V20.4164C17.5 20.4163 17.5 20.4163 17.5 20.4163C17.5 20.4163 17.5 20.4163 17.5 20.4163C17.5 18.1612 19.3282 16.333 21.5834 16.333C23.8385 16.333 25.6667 18.1612 25.6667 20.4163ZM20.4167 26.833C20.0945 26.833 19.8334 27.0942 19.8334 27.4163C19.8334 27.7385 20.0945 27.9997 20.4167 27.9997H22.75C23.0722 27.9997 23.3334 27.7385 23.3334 27.4163C23.3334 27.0942 23.0722 26.833 22.75 26.833H20.4167Z" fill="#18202A"/>
</g>
<defs>
<clipPath id="clip0_2296_15223">
<rect width="28" height="28" fill="white"/>
</clipPath>
</defs>
</svg>
