<svg width="28" height="28" viewBox="0 0 28 28" fill="none" xmlns="http://www.w3.org/2000/svg">
<path fill-rule="evenodd" clip-rule="evenodd" d="M23.8994 4.10079C21.1658 1.36712 16.7336 1.36712 13.9999 4.10079L11.5251 6.57566C11.0695 7.03128 11.0695 7.76997 11.5251 8.22558C11.9807 8.68119 12.7194 8.68119 13.175 8.22558L15.6499 5.75071C17.4723 3.92826 20.4271 3.92826 22.2495 5.75071C24.072 7.57315 24.072 10.5279 22.2495 12.3504L19.7746 14.8252C19.319 15.2809 19.319 16.0195 19.7746 16.4752C20.2303 16.9308 20.9689 16.9308 21.4246 16.4752L23.8994 14.0003C26.6331 11.2666 26.6331 6.83446 23.8994 4.10079ZM4.10042 23.8988C1.36675 21.1651 1.36675 16.733 4.10042 13.9993L6.5753 11.5244C7.03091 11.0688 7.7696 11.0688 8.22521 11.5244C8.68082 11.98 8.68083 12.7187 8.22521 13.1743L5.75034 15.6492C3.92789 17.4717 3.92789 20.4264 5.75034 22.2489C7.57279 24.0713 10.5276 24.0713 12.35 22.2489L14.8249 19.774C15.2805 19.3184 16.0192 19.3184 16.4748 19.774C16.9304 20.2296 16.9304 20.9683 16.4748 21.4239L13.9999 23.8988C11.2662 26.6325 6.83409 26.6325 4.10042 23.8988ZM8.22522 18.1241C7.76961 18.5797 7.76961 19.3184 8.22522 19.774C8.68083 20.2296 9.41953 20.2296 9.87514 19.774L19.7746 9.87452C20.2302 9.4189 20.2302 8.68021 19.7746 8.2246C19.319 7.76899 18.5803 7.76899 18.1247 8.2246L8.22522 18.1241Z" fill="#18202A"/>
</svg>
