<svg width="28" height="28" viewBox="0 0 28 28" fill="none" xmlns="http://www.w3.org/2000/svg">
<g clip-path="url(#clip0_2293_22419)">
<path fill-rule="evenodd" clip-rule="evenodd" d="M7.00002 2.04166C7.00002 1.55841 7.39177 1.16666 7.87502 1.16666C8.35827 1.16666 8.75002 1.55841 8.75002 2.04166V3.49999H19.25V2.04166C19.25 1.55841 19.6418 1.16666 20.125 1.16666C20.6083 1.16666 21 1.55841 21 2.04166V3.49999H22.1667C24.744 3.49999 26.8334 5.58933 26.8334 8.16666V13.2822C26.2886 12.9109 25.7025 12.5958 25.0834 12.3452V8.16666C25.0834 6.55583 23.7775 5.24999 22.1667 5.24999H21V7.29166C21 7.77491 20.6083 8.16666 20.125 8.16666C19.6418 8.16666 19.25 7.77491 19.25 7.29166V5.24999H8.75002V7.29166C8.75002 7.77491 8.35827 8.16666 7.87502 8.16666C7.39177 8.16666 7.00002 7.77491 7.00002 7.29166V5.24999H5.83335C4.22252 5.24999 2.91669 6.55583 2.91669 8.16666V22.1667C2.91669 23.7775 4.22252 25.0833 5.83335 25.0833H13.1883C13.4932 25.709 13.8659 26.2955 14.297 26.8333H5.83335C3.25603 26.8333 1.16669 24.744 1.16669 22.1667V8.16666C1.16669 5.58933 3.25603 3.49999 5.83335 3.49999H7.00002V2.04166ZM11.6667 19.8333C11.9005 19.8333 12.1182 19.9021 12.3008 20.0205C12.2672 20.3425 12.25 20.6692 12.25 21.0001C12.25 21.3308 12.2672 21.6576 12.3008 21.9795C12.1182 22.0979 11.9005 22.1667 11.6667 22.1667C11.0224 22.1667 10.5 21.6443 10.5 21C10.5 20.3557 11.0224 19.8333 11.6667 19.8333ZM5.83335 11.375C5.83335 10.8917 6.2251 10.5 6.70835 10.5H21.2917C21.7749 10.5 22.1667 10.8917 22.1667 11.375C22.1667 11.8582 21.7749 12.25 21.2917 12.25H6.70835C6.2251 12.25 5.83335 11.8582 5.83335 11.375ZM7.00002 15.1667C6.35569 15.1667 5.83335 15.689 5.83335 16.3333C5.83335 16.9777 6.35569 17.5 7.00002 17.5C7.64435 17.5 8.16669 16.9777 8.16669 16.3333C8.16669 15.689 7.64435 15.1667 7.00002 15.1667ZM5.83335 21C5.83335 20.3557 6.35569 19.8333 7.00002 19.8333C7.64435 19.8333 8.16669 20.3557 8.16669 21C8.16669 21.6443 7.64435 22.1667 7.00002 22.1667C6.35569 22.1667 5.83335 21.6443 5.83335 21ZM11.6667 15.1667C11.0224 15.1667 10.5 15.689 10.5 16.3333C10.5 16.9777 11.0224 17.5 11.6667 17.5C12.311 17.5 12.8334 16.9777 12.8334 16.3333C12.8334 15.689 12.311 15.1667 11.6667 15.1667ZM20.7347 14C20.2522 14 19.8386 14.3445 19.7512 14.8189L19.6101 15.5854C18.9101 15.8273 18.2717 16.2011 17.7245 16.6771L16.9869 16.4149C16.5323 16.2533 16.0272 16.4393 15.7859 16.8572L15.0437 18.1428C14.8024 18.5607 14.8939 19.0911 15.2612 19.404L15.8574 19.9121C15.7897 20.2643 15.7543 20.628 15.7543 21C15.7543 21.372 15.7897 21.7357 15.8575 22.0879L15.2612 22.596C14.8939 22.9089 14.8024 23.4393 15.0437 23.8572L15.786 25.1428C16.0272 25.5607 16.5323 25.7467 16.9869 25.5851L17.7245 25.3229C18.2717 25.7989 18.9101 26.1726 19.6101 26.4145L19.7512 27.181C19.8386 27.6555 20.2522 28 20.7347 28H22.2193C22.7017 28 23.1154 27.6555 23.2027 27.181L23.3432 26.4179C24.0459 26.1765 24.6868 25.8023 25.2359 25.3252L25.967 25.5851C26.4216 25.7467 26.9268 25.5607 27.168 25.1428L27.9103 23.8572C28.1515 23.4393 28.0601 22.9089 27.6928 22.596L27.1043 22.0946C27.1729 21.7403 27.2088 21.3743 27.2088 21C27.2088 20.6257 27.1729 20.2597 27.1043 19.9054L27.6928 19.404C28.0601 19.0911 28.1515 18.5607 27.9103 18.1428L27.168 16.8572C26.9268 16.4393 26.4217 16.2533 25.9671 16.4149L25.2359 16.6748C24.6868 16.1977 24.0459 15.8235 23.3432 15.5821L23.2027 14.8189C23.1154 14.3445 22.7017 14 22.2193 14H20.7347ZM21.4762 23.3333C22.7649 23.3333 23.8096 22.2887 23.8096 21C23.8096 19.7113 22.7649 18.6667 21.4762 18.6667C20.1876 18.6667 19.1429 19.7113 19.1429 21C19.1429 22.2887 20.1876 23.3333 21.4762 23.3333Z" fill="#18202A"/>
</g>
<defs>
<clipPath id="clip0_2293_22419">
<rect width="28" height="28" fill="white"/>
</clipPath>
</defs>
</svg>
