<svg width="28" height="28" viewBox="0 0 28 28" fill="none" xmlns="http://www.w3.org/2000/svg">
<path fill-rule="evenodd" clip-rule="evenodd" d="M14 25.0833C20.1211 25.0833 25.0833 20.1211 25.0833 14C25.0833 7.8788 20.1211 2.91663 14 2.91663C7.87883 2.91663 2.91666 7.8788 2.91666 14C2.91666 20.1211 7.87883 25.0833 14 25.0833ZM14 26.8333C21.0876 26.8333 26.8333 21.0876 26.8333 14C26.8333 6.91231 21.0876 1.16663 14 1.16663C6.91234 1.16663 1.16666 6.91231 1.16666 14C1.16666 21.0876 6.91234 26.8333 14 26.8333Z" fill="#18202A"/>
<path fill-rule="evenodd" clip-rule="evenodd" d="M19.2701 9.86634C19.62 10.1996 19.6336 10.7535 19.3003 11.1034L12.6336 18.1034C12.463 18.2826 12.2244 18.3811 11.9771 18.3747C11.7297 18.3682 11.4967 18.2573 11.3356 18.0694L8.66897 14.9583C8.35448 14.5914 8.39697 14.039 8.76388 13.7245C9.13079 13.41 9.68318 13.4525 9.99767 13.8194L12.0342 16.1953L18.033 9.89651C18.3663 9.54657 18.9202 9.53306 19.2701 9.86634Z" fill="#18202A"/>
</svg>
