<svg width="28" height="28" viewBox="0 0 28 28" fill="none" xmlns="http://www.w3.org/2000/svg">
<path fill-rule="evenodd" clip-rule="evenodd" d="M14 14.0003C16.3333 14.0003 17.5 11.667 17.5 8.75033C17.5 6.41699 16.3333 4.66699 14 4.66699C11.6667 4.66699 10.5 6.41699 10.5 8.75033C10.5 11.667 11.6667 14.0003 14 14.0003ZM15.1346 11.5519C15.4924 10.9704 15.75 10.0109 15.75 8.75033C15.75 7.85057 15.5228 7.25725 15.2585 6.92688C15.0362 6.64906 14.6832 6.41699 14 6.41699C13.3168 6.41699 12.9638 6.64906 12.7415 6.92688C12.4772 7.25725 12.25 7.85057 12.25 8.75033C12.25 10.0109 12.5076 10.9704 12.8654 11.5519C13.1792 12.0618 13.5289 12.2503 14 12.2503C14.4711 12.2503 14.8208 12.0618 15.1346 11.5519Z" fill="#18202A"/>
<path fill-rule="evenodd" clip-rule="evenodd" d="M17.1139 25.4377C18.59 25.2183 19.8642 24.2785 20.4848 22.9213C20.7038 22.4424 20.9032 21.9526 21.0818 21.453C21.6927 19.7447 21.1814 17.7955 19.6534 16.8173C18.0215 15.7726 16.0815 15.167 14 15.167C11.9185 15.167 9.97855 15.7726 8.34662 16.8173C6.81859 17.7955 6.30733 19.7446 6.91819 21.453C7.09684 21.9526 7.29617 22.4424 7.51517 22.9213C8.13579 24.2785 9.41001 25.2183 10.8861 25.4377C11.9022 25.5887 12.942 25.667 14 25.667C15.0581 25.667 16.0978 25.5887 17.1139 25.4377ZM14 23.917C14.9717 23.917 15.9254 23.8451 16.8566 23.7067C17.7602 23.5724 18.5246 22.9999 18.8933 22.1935C19.0917 21.7598 19.2722 21.3162 19.434 20.8638C19.8141 19.8007 19.4472 18.7632 18.7099 18.2912C17.3512 17.4214 15.7372 16.917 14 16.917C12.2628 16.917 10.6488 17.4214 9.29012 18.2912C8.55277 18.7632 8.18587 19.8007 8.56602 20.8638C8.72779 21.3162 8.90831 21.7598 9.10667 22.1936C9.47542 22.9999 10.2398 23.5724 11.1434 23.7067C12.0746 23.8451 13.0284 23.917 14 23.917Z" fill="#18202A"/>
<path fill-rule="evenodd" clip-rule="evenodd" d="M9.33335 11.2295C9.33335 13.417 8.36113 15.167 6.41668 15.167C4.47224 15.167 3.50002 13.417 3.50002 11.2295C3.50002 9.47949 4.47224 8.16699 6.41668 8.16699C8.36113 8.16699 9.33335 9.47949 9.33335 11.2295ZM7.58335 11.2295C7.58335 12.0962 7.38607 12.6996 7.15959 13.0308C6.98079 13.2923 6.77846 13.417 6.41668 13.417C6.0549 13.417 5.85257 13.2923 5.67377 13.0308C5.44729 12.6996 5.25002 12.0962 5.25002 11.2295C5.25002 10.6634 5.40638 10.3517 5.53715 10.2046C5.64056 10.0883 5.86274 9.91699 6.41668 9.91699C6.97062 9.91699 7.1928 10.0883 7.29622 10.2046C7.42698 10.3517 7.58335 10.6634 7.58335 11.2295Z" fill="#18202A"/>
<path fill-rule="evenodd" clip-rule="evenodd" d="M21.5833 15.167C23.5278 15.167 24.5 13.417 24.5 11.2295C24.5 9.47949 23.5278 8.16699 21.5833 8.16699C19.6389 8.16699 18.6667 9.47949 18.6667 11.2295C18.6667 13.417 19.6389 15.167 21.5833 15.167ZM22.3263 13.0308C22.5527 12.6996 22.75 12.0962 22.75 11.2295C22.75 10.6634 22.5937 10.3517 22.4629 10.2046C22.3595 10.0883 22.1373 9.91699 21.5833 9.91699C21.0294 9.91699 20.8072 10.0883 20.7038 10.2046C20.573 10.3517 20.4167 10.6634 20.4167 11.2295C20.4167 12.0962 20.614 12.6996 20.8404 13.0308C21.0192 13.2923 21.2216 13.417 21.5833 13.417C21.9451 13.417 22.1475 13.2923 22.3263 13.0308Z" fill="#18202A"/>
<path d="M24.4691 23.1213C23.7321 23.2266 22.9827 23.2937 22.2231 23.3204C22.4058 22.9015 22.5748 22.4752 22.7296 22.0422C22.7896 21.8746 22.8419 21.7045 22.8866 21.5324C23.3362 21.4998 23.7814 21.4518 24.2215 21.3889C24.8133 21.3043 25.2758 20.9099 25.4479 20.3777C25.665 19.7066 25.3759 19.1504 25.0001 18.9524C24.3207 18.5944 23.58 18.3365 22.7965 18.1986C22.577 17.5251 22.2295 16.8904 21.7501 16.3377C23.2151 16.3806 24.5953 16.7611 25.8158 17.4041C27.0651 18.0623 27.5475 19.5726 27.113 20.9162C26.7293 22.1026 25.7035 22.9449 24.4691 23.1213Z" fill="#18202A"/>
<path d="M2.34233 17.207C3.53096 16.6514 4.85598 16.339 6.25342 16.3337C5.78168 16.8764 5.43732 17.4984 5.21672 18.1587C4.46314 18.2652 3.7468 18.4823 3.08334 18.7924C2.65498 18.9926 2.31883 19.6045 2.55717 20.3465C2.74451 20.9296 3.25571 21.3573 3.90485 21.4375C4.30526 21.4869 4.70965 21.5241 5.11766 21.5485C5.1614 21.7151 5.21233 21.8798 5.27037 22.0422C5.42609 22.4777 5.59617 22.9063 5.78002 23.3275C5.07433 23.3107 4.37725 23.2591 3.69044 23.1743C2.38536 23.0132 1.29321 22.1337 0.891024 20.8817C0.431349 19.4507 0.980762 17.8434 2.34233 17.207Z" fill="#18202A"/>
</svg>
