<svg width="28" height="28" viewBox="0 0 28 28" fill="none" xmlns="http://www.w3.org/2000/svg">
<path fill-rule="evenodd" clip-rule="evenodd" d="M17.5 5.83301C17.5 7.35693 16.5261 8.65338 15.1667 9.13385V12.833H22.5C23.6046 12.833 24.5 13.7284 24.5 14.833V15.1663V18.8655C25.8594 19.346 26.8333 20.6424 26.8333 22.1663C26.8333 24.0993 25.2663 25.6663 23.3333 25.6663C21.4003 25.6663 19.8333 24.0993 19.8333 22.1663C19.8333 20.6424 20.8073 19.346 22.1667 18.8655V15.1663L15.1667 15.1663V18.8655C16.5261 19.346 17.5 20.6424 17.5 22.1663C17.5 24.0993 15.933 25.6663 14 25.6663C12.067 25.6663 10.5 24.0993 10.5 22.1663C10.5 20.6424 11.4739 19.346 12.8333 18.8655V15.1663L5.83333 15.1663V18.8655C7.19272 19.346 8.16666 20.6424 8.16666 22.1663C8.16666 24.0993 6.59966 25.6663 4.66666 25.6663C2.73367 25.6663 1.16666 24.0993 1.16666 22.1663C1.16666 20.6424 2.14061 19.346 3.5 18.8655V15.1663V14.833C3.5 13.7284 4.39543 12.833 5.5 12.833H12.8333V9.13385C11.4739 8.65338 10.5 7.35693 10.5 5.83301C10.5 3.90001 12.067 2.33301 14 2.33301C15.933 2.33301 17.5 3.90001 17.5 5.83301Z" fill="#18202A"/>
</svg>
