<svg width="28" height="28" viewBox="0 0 28 28" fill="none" xmlns="http://www.w3.org/2000/svg">
<path fill-rule="evenodd" clip-rule="evenodd" d="M5.25001 1.75H8.75001V5.91184C8.57124 6.00207 8.39511 6.09677 8.22177 6.19579L5.25001 3.9079V1.75ZM6.69964 7.23248L3.95497 5.11942C3.66809 4.89856 3.50001 4.55703 3.50001 4.19498V1.16667C3.50001 0.522335 4.02234 0 4.66668 0H23.3333C23.9777 0 24.5 0.522334 24.5 1.16667V4.19498C24.5 4.55703 24.3319 4.89856 24.045 5.11942L21.3004 7.23248C23.9626 9.37074 25.6667 12.653 25.6667 16.3333C25.6667 22.7767 20.4433 28 14 28C7.55669 28 2.33334 22.7767 2.33334 16.3333C2.33334 12.653 4.03745 9.37074 6.69964 7.23248ZM19.7783 6.19579L22.75 3.9079V1.75H19.25V5.91184C19.4288 6.00207 19.6049 6.09677 19.7783 6.19579ZM15.75 4.79704V1.75H12.25V4.79704C12.8208 4.71117 13.4052 4.66667 14 4.66667C14.5948 4.66667 15.1792 4.71117 15.75 4.79704ZM23.9167 16.3333C23.9167 21.8102 19.4768 26.25 14 26.25C8.52319 26.25 4.08334 21.8102 4.08334 16.3333C4.08334 10.8565 8.52319 6.41667 14 6.41667C19.4768 6.41667 23.9167 10.8565 23.9167 16.3333ZM14 22.75C17.5438 22.75 20.4167 19.8772 20.4167 16.3333C20.4167 12.7895 17.5438 9.91667 14 9.91667C10.4562 9.91667 7.58334 12.7895 7.58334 16.3333C7.58334 19.8772 10.4562 22.75 14 22.75ZM14 24.5C18.5103 24.5 22.1667 20.8437 22.1667 16.3333C22.1667 11.823 18.5103 8.16667 14 8.16667C9.48968 8.16667 5.83334 11.823 5.83334 16.3333C5.83334 20.8437 9.48968 24.5 14 24.5ZM15.3131 14.2377L14.3367 12.1804C14.1961 11.8843 13.8039 11.8843 13.6633 12.1804L12.687 14.2377C12.6309 14.3559 12.5249 14.4373 12.4031 14.4558L10.2426 14.7842C9.92812 14.832 9.80493 15.2514 10.0364 15.4859L11.5811 17.0507C11.6743 17.1451 11.717 17.2839 11.6946 17.4197L11.3277 19.6445C11.2731 19.9759 11.5929 20.2322 11.8712 20.08L13.829 19.0092C13.9365 18.9504 14.0635 18.9504 14.171 19.0092L16.1289 20.08C16.4071 20.2322 16.7269 19.9759 16.6723 19.6445L16.3054 17.4197C16.283 17.2839 16.3257 17.1451 16.4189 17.0507L17.9636 15.4859C18.1951 15.2514 18.0719 14.832 17.7574 14.7842L15.597 14.4558C15.4751 14.4373 15.3692 14.3559 15.3131 14.2377Z" fill="#18202A"/>
</svg>
