<svg width="28" height="28" viewBox="0 0 28 28" fill="none" xmlns="http://www.w3.org/2000/svg">
<path fill-rule="evenodd" clip-rule="evenodd" d="M17.5 25.6668C19.433 25.6668 21 24.0998 21 22.1668C21 20.2338 19.433 18.6668 17.5 18.6668C15.567 18.6668 14 20.2338 14 22.1668C14 24.0998 15.567 25.6668 17.5 25.6668Z" fill="#18202A"/>
<path fill-rule="evenodd" clip-rule="evenodd" d="M17.5 9.3335C19.433 9.3335 21 7.76649 21 5.8335C21 3.9005 19.433 2.3335 17.5 2.3335C15.567 2.3335 14 3.9005 14 5.8335C14 7.76649 15.567 9.3335 17.5 9.3335Z" fill="#18202A"/>
<path fill-rule="evenodd" clip-rule="evenodd" d="M10.5 17.5002C12.433 17.5002 14 15.9332 14 14.0002C14 12.0672 12.433 10.5002 10.5 10.5002C8.567 10.5002 7 12.0672 7 14.0002C7 15.9332 8.567 17.5002 10.5 17.5002Z" fill="#18202A"/>
<path d="M1.16666 22.1668C1.16666 21.5225 1.689 21.0002 2.33333 21.0002H11.6667C12.311 21.0002 12.8333 21.5225 12.8333 22.1668C12.8333 22.8112 12.311 23.3335 11.6667 23.3335H2.33333C1.689 23.3335 1.16666 22.8112 1.16666 22.1668Z" fill="#18202A"/>
<path d="M1.16666 5.8335C1.16666 5.18916 1.689 4.66683 2.33333 4.66683H11.6667C12.311 4.66683 12.8333 5.18916 12.8333 5.8335C12.8333 6.47783 12.311 7.00016 11.6667 7.00016H2.33333C1.689 7.00016 1.16666 6.47783 1.16666 5.8335Z" fill="#18202A"/>
<path d="M15.1667 14.0002C15.1667 13.3558 15.689 12.8335 16.3333 12.8335H25.6667C26.311 12.8335 26.8333 13.3558 26.8333 14.0002C26.8333 14.6445 26.311 15.1668 25.6667 15.1668H16.3333C15.689 15.1668 15.1667 14.6445 15.1667 14.0002Z" fill="#18202A"/>
<path d="M22.1667 22.1668C22.1667 21.5225 22.689 21.0002 23.3333 21.0002H25.6667C26.311 21.0002 26.8333 21.5225 26.8333 22.1668C26.8333 22.8112 26.311 23.3335 25.6667 23.3335H23.3333C22.689 23.3335 22.1667 22.8112 22.1667 22.1668Z" fill="#18202A"/>
<path d="M22.1667 5.8335C22.1667 5.18916 22.689 4.66683 23.3333 4.66683H25.6667C26.311 4.66683 26.8333 5.18916 26.8333 5.8335C26.8333 6.47783 26.311 7.00016 25.6667 7.00016H23.3333C22.689 7.00016 22.1667 6.47783 22.1667 5.8335Z" fill="#18202A"/>
<path d="M1.16666 14.0002C1.16666 13.3558 1.689 12.8335 2.33333 12.8335H4.66666C5.311 12.8335 5.83333 13.3558 5.83333 14.0002C5.83333 14.6445 5.311 15.1668 4.66666 15.1668H2.33333C1.689 15.1668 1.16666 14.6445 1.16666 14.0002Z" fill="#18202A"/>
</svg>
