<svg width="28" height="28" viewBox="0 0 28 28" fill="none" xmlns="http://www.w3.org/2000/svg">
<g clip-path="url(#clip0_3750_8840)">
<path d="M9.6028 5.305C9.73532 5.21182 9.91783 5.30661 9.91783 5.4686V19.5222C9.91783 19.5873 9.88615 19.6483 9.8329 19.6857L4.87821 23.1708C4.33254 23.5544 3.59318 23.2096 3.50808 22.5769L3.5 22.455V10.0504C3.5 9.80618 3.60191 9.57508 3.77781 9.41085L3.87179 9.33456L9.6028 5.305ZM24.4946 5.42161L24.5027 5.54352V17.9481C24.5027 18.1923 24.4008 18.4234 24.2249 18.5877L24.1309 18.664L18.3995 22.6912C18.267 22.7843 18.0845 22.6895 18.0845 22.5275V8.47273C18.0845 8.4076 18.1162 8.34654 18.1695 8.30909L23.1245 4.82769C23.6702 4.4441 24.4096 4.78888 24.4946 5.42161ZM11.6678 5.46973C11.6678 5.30775 11.8503 5.21296 11.9829 5.30612L16.2495 8.30559C16.3028 8.34304 16.3345 8.40408 16.3345 8.4692V22.5249C16.3345 22.6869 16.1519 22.7817 16.0194 22.6885L11.7528 19.6869C11.6995 19.6494 11.6678 19.5884 11.6678 19.5233V5.46973Z" fill="#18202A"/>
</g>
<defs>
<clipPath id="clip0_3750_8840">
<rect width="28" height="28" fill="white"/>
</clipPath>
</defs>
</svg>
