<svg width="28" height="28" viewBox="0 0 28 28" fill="none" xmlns="http://www.w3.org/2000/svg">
<path fill-rule="evenodd" clip-rule="evenodd" d="M3.23949 2.75494C2.72331 2.23875 1.93519 2.18998 1.47917 2.646C1.02315 3.10202 1.07192 3.89014 1.58811 4.40632L2.55877 5.37699C1.71315 6.01588 1.16667 7.02977 1.16667 8.17129V17.5046C1.16667 19.4376 2.73367 21.0046 4.66667 21.0046H1.16667C0.522334 21.0046 0 21.527 0 22.1713C0 22.8156 0.522335 23.338 1.16667 23.338H20.5197L22.4272 25.2454C22.9434 25.7616 23.7315 25.8103 24.1875 25.3543C24.6435 24.8983 24.5947 24.1102 24.0786 23.594L3.23949 2.75494ZM12.2195 15.0377L9.88599 12.7042C8.8348 13.8371 8.16664 15.526 8.16664 17.9683C8.16664 18.0999 8.25479 18.2153 8.38181 18.2498C8.50882 18.2843 8.64322 18.2295 8.70984 18.116C9.49345 16.7809 10.1157 15.9681 11.0461 15.4691C11.3832 15.2883 11.7661 15.146 12.2195 15.0377Z" fill="#18202A"/>
<path d="M26.8333 8.17129C26.8333 6.2383 25.2663 4.67129 23.3333 4.67129H8.44901L14.4929 10.7152C14.7189 10.6966 14.9439 10.6853 15.1666 10.68V8.7558C15.1666 8.2361 15.795 7.97584 16.1625 8.34332L20.125 12.3058C20.3528 12.5336 20.3528 12.903 20.125 13.1308L18.5167 14.739L24.561 20.7833C25.8884 20.286 26.8333 19.0057 26.8333 17.5046V8.17129Z" fill="#18202A"/>
<path d="M27.0878 23.3101L24.7823 21.0046H26.8333C27.4777 21.0046 28 21.527 28 22.1713C28 22.7282 27.6098 23.194 27.0878 23.3101Z" fill="#18202A"/>
</svg>
