<svg width="28" height="28" viewBox="0 0 28 28" fill="none" xmlns="http://www.w3.org/2000/svg">
<path d="M4.66666 3.5C2.73367 3.5 1.16666 5.067 1.16666 7V8.14992C1.16963 7.93061 1.23439 7.70966 1.36622 7.51426C1.7266 6.98014 2.45174 6.83928 2.98586 7.19966L12.3366 13.5087C12.7987 13.8205 13.3836 14.0001 14 14.0001C14.6164 14.0001 15.2012 13.8205 15.6633 13.5087L25.0142 7.19966C25.5483 6.83928 26.2734 6.98014 26.6338 7.51426C26.7653 7.70919 26.8301 7.92955 26.8333 8.14834V7C26.8333 5.067 25.2663 3.5 23.3333 3.5H4.66666Z" fill="#18202A"/>
<path d="M26.8333 8.18311C26.8279 8.55184 26.6481 8.91201 26.3192 9.13391L16.9685 15.4429C16.1026 16.0271 15.059 16.3335 14 16.3335C12.941 16.3335 11.8975 16.0272 11.0316 15.4429L1.68082 9.13391C1.35148 8.9117 1.17166 8.55081 1.16666 8.18153V21C1.16666 22.933 2.73367 24.5 4.66666 24.5H23.3333C25.2663 24.5 26.8333 22.933 26.8333 21V8.18311Z" fill="#18202A"/>
<path fill-rule="evenodd" clip-rule="evenodd" d="M23.3333 5.83333H4.66666C4.02233 5.83333 3.5 6.35567 3.5 7V21C3.5 21.6443 4.02233 22.1667 4.66666 22.1667H23.3333C23.9777 22.1667 24.5 21.6443 24.5 21V7C24.5 6.35567 23.9777 5.83333 23.3333 5.83333ZM4.66666 3.5C2.73367 3.5 1.16666 5.067 1.16666 7V21C1.16666 22.933 2.73367 24.5 4.66666 24.5H23.3333C25.2663 24.5 26.8333 22.933 26.8333 21V7C26.8333 5.067 25.2663 3.5 23.3333 3.5H4.66666Z" fill="#18202A"/>
</svg>
