<svg width="28" height="28" viewBox="0 0 28 28" fill="none" xmlns="http://www.w3.org/2000/svg">
<path d="M15.1667 18.3548C15.8641 17.9514 16.3333 17.1973 16.3333 16.3337C16.3333 15.045 15.2887 14.0003 14 14.0003C12.7113 14.0003 11.6667 15.045 11.6667 16.3337C11.6667 17.1973 12.1359 17.9514 12.8333 18.3548V21.0003C12.8333 21.6447 13.3557 22.167 14 22.167C14.6443 22.167 15.1667 21.6447 15.1667 21.0003V18.3548Z" fill="#18202A"/>
<path fill-rule="evenodd" clip-rule="evenodd" d="M18.4192 5.3311C18.6107 5.62901 18.9285 5.83366 19.2827 5.83366C19.9265 5.83366 20.3723 5.19453 20.0473 4.63871C18.833 2.56201 16.5795 1.16699 14.0002 1.16699C10.1342 1.16699 7.00022 4.301 7.00022 8.16699V9.33366C4.42289 9.33366 2.33356 11.423 2.33356 14.0003V22.167C2.33356 24.7443 4.42289 26.8337 7.00022 26.8337H21.0002C23.5776 26.8337 25.6669 24.7443 25.6669 22.167V14.0003C25.6669 11.423 23.5776 9.33366 21.0002 9.33366H8.75022V8.16699C8.75022 5.2675 11.1007 2.91699 14.0002 2.91699C15.8551 2.91699 17.4853 3.8789 18.4192 5.3311ZM4.08356 14.0003C4.08356 12.3895 5.38939 11.0837 7.00022 11.0837H21.0002C22.6111 11.0837 23.9169 12.3895 23.9169 14.0003V22.167C23.9169 23.7778 22.6111 25.0837 21.0002 25.0837H7.00022C5.38939 25.0837 4.08356 23.7778 4.08356 22.167V14.0003Z" fill="#18202A"/>
</svg>
