<svg width="28" height="28" viewBox="0 0 28 28" fill="none" xmlns="http://www.w3.org/2000/svg">
<path fill-rule="evenodd" clip-rule="evenodd" d="M23.3333 6.99967H19.7166C19.1762 4.33706 16.8221 2.33301 14 2.33301C11.1779 2.33301 8.82383 4.33706 8.28335 6.99967H4.66666C2.73367 6.99967 1.16666 8.56668 1.16666 10.4997V12.8873L10.2679 15.8043C12.7091 16.4375 15.2898 16.4375 17.731 15.8043L26.8333 12.8873V10.4997C26.8333 8.56668 25.2663 6.99967 23.3333 6.99967ZM14 4.66634C15.5239 4.66634 16.8204 5.64028 17.3008 6.99967H10.6992C11.1796 5.64028 12.4761 4.66634 14 4.66634ZM15.75 12.2497C15.75 13.2162 14.9665 13.9997 14 13.9997C13.0335 13.9997 12.25 13.2162 12.25 12.2497C12.25 11.2832 13.0335 10.4997 14 10.4997C14.9665 10.4997 15.75 11.2832 15.75 12.2497Z" fill="#18202A"/>
<path d="M26.8333 15.3164L18.2191 18.077L18.1959 18.083C15.4505 18.7999 12.5484 18.7999 9.80295 18.083L9.77976 18.077L1.16666 15.3164V22.1663C1.16666 24.0993 2.73367 25.6663 4.66666 25.6663H23.3333C25.2663 25.6663 26.8333 24.0993 26.8333 22.1663V15.3164Z" fill="#18202A"/>
</svg>
