<svg width="28" height="28" viewBox="0 0 28 28" fill="none" xmlns="http://www.w3.org/2000/svg">
<path d="M11.6847 25.5001C11.6101 24.7154 11.7638 23.8909 12.1994 23.1209L17.5277 13.7021C19.0631 10.988 22.9369 10.988 24.4723 13.7021L26.3487 17.0191C26.6672 15.9371 26.8333 14.8008 26.8333 13.6392C26.8333 6.0665 21.093 1.1665 14.0119 1.1665C6.93086 1.1665 0.732675 6.95741 1.19053 13.6392C1.19053 17.6319 2.78626 20.7578 5.33289 22.8209L5.57801 25.7624C5.64527 26.5695 6.49422 27.0642 7.22955 26.7248L10.4098 25.257C10.8264 25.3556 11.2517 25.4368 11.6847 25.5001Z" fill="#18202A"/>
<path fill-rule="evenodd" clip-rule="evenodd" d="M26.5969 26.8332H15.4031C14.3271 26.8332 13.6528 25.6481 14.1869 24.696L19.7838 14.719C20.3218 13.7601 21.6782 13.7601 22.2162 14.719L27.8131 24.696C28.3472 25.6481 27.6729 26.8332 26.5969 26.8332ZM21 17.4998C20.3557 17.4998 19.8333 18.0222 19.8333 18.6665V20.9998C19.8333 21.6442 20.3557 22.1665 21 22.1665C21.6443 22.1665 22.1667 21.6442 22.1667 20.9998V18.6665C22.1667 18.0222 21.6443 17.4998 21 17.4998ZM21 23.3332C20.3557 23.3332 19.8333 23.8555 19.8333 24.4998C19.8333 25.1442 20.3557 25.6665 21 25.6665C21.6443 25.6665 22.1667 25.1442 22.1667 24.4998C22.1667 23.8555 21.6443 23.3332 21 23.3332Z" fill="#18202A"/>
</svg>
