<svg width="28" height="28" viewBox="0 0 28 28" fill="none" xmlns="http://www.w3.org/2000/svg">
<path d="M18.2072 18.1L18.194 18.1132C18.1304 18.1767 18.0789 18.2283 18.0314 18.2737C15.7763 20.43 12.2237 20.43 9.96864 18.2737C9.92103 18.2282 9.86954 18.1767 9.80583 18.113L9.74621 18.0534L9.7368 18.0441C9.5114 17.829 9.15598 17.8283 8.93057 18.0435L8.92047 18.0534L8.49669 18.4771C8.11573 18.8581 7.79583 19.178 7.53474 19.4207C7.28699 19.651 6.97689 19.9235 6.6227 20.1168C5.19638 20.8951 3.54896 20.7276 2.33334 19.8845V23.9152C2.33334 24.8817 3.11684 25.6652 4.08334 25.6652H23.9167C24.8832 25.6652 25.6667 24.8817 25.6667 23.9152V19.8845C24.451 20.7276 22.8036 20.8951 21.3773 20.1168C21.0231 19.9235 20.713 19.651 20.4653 19.4207C20.2042 19.178 19.8844 18.8582 19.5034 18.4772L19.1291 18.1029L19.126 18.0998L19.0795 18.0534L19.0694 18.0434C18.844 17.8283 18.4893 17.8283 18.2639 18.0434L18.2538 18.0534L18.2072 18.1Z" fill="#18202A"/>
<path d="M19.8521 9.33222H8.14789C7.08118 9.33222 6.54782 9.33222 6.10405 9.41904C4.24113 9.78348 2.78459 11.24 2.42015 13.1029C2.33334 13.5467 2.33334 14.0829 2.33334 15.1553C2.33334 16.2972 2.33334 16.8682 2.42802 17.1903C2.8476 18.6179 4.47824 19.2934 5.7844 18.5806C6.07915 18.4197 6.48046 18.0184 7.28308 17.2158L7.63637 16.8625C7.68005 16.8188 7.7019 16.797 7.72079 16.7789C8.62282 15.9164 10.0438 15.9164 10.9459 16.7789C10.9648 16.797 10.9866 16.8188 11.0303 16.8625C11.1068 16.939 11.145 16.9772 11.178 17.0088C12.7566 18.5182 15.2434 18.5182 16.822 17.0088C16.855 16.9772 16.8933 16.9389 16.9697 16.8625C17.0134 16.8188 17.0352 16.797 17.0541 16.7789C17.9562 15.9164 19.3772 15.9164 20.2792 16.7789C20.2981 16.797 20.3201 16.819 20.3636 16.8625L20.7169 17.2158C21.5195 18.0184 21.9209 18.4197 22.2156 18.5806C23.5218 19.2934 25.1524 18.6179 25.572 17.1903C25.6667 16.8682 25.6667 16.2972 25.6667 15.1553C25.6667 14.0829 25.6667 13.5467 25.5799 13.1029C25.2154 11.24 23.7589 9.78348 21.896 9.41904C21.4522 9.33222 20.9188 9.33222 19.8521 9.33222Z" fill="#18202A"/>
<path d="M12.3501 7.47416C11.4389 6.56294 11.4389 5.08555 12.3501 4.17433L14 2.52441L15.6499 4.17433C16.5611 5.08555 16.5611 6.56294 15.6499 7.47416C14.7387 8.38539 13.2613 8.38539 12.3501 7.47416Z" fill="#18202A"/>
</svg>
