<svg width="28" height="28" viewBox="0 0 28 28" fill="none" xmlns="http://www.w3.org/2000/svg">
<path d="M21.143 5.38067L23.6011 10.787C24.083 10.8838 24.552 10.99 25.0058 11.1055C25.1186 11.1323 25.2249 11.1813 25.3187 11.2496C25.4124 11.3179 25.4916 11.4042 25.5516 11.5034C25.6117 11.6026 25.6515 11.7127 25.6686 11.8274C25.6858 11.9421 25.68 12.059 25.6515 12.1714C25.623 12.2838 25.5725 12.3895 25.5029 12.4822C25.4333 12.5749 25.3459 12.6529 25.2459 12.7115C25.1458 12.7702 25.0351 12.8084 24.9202 12.8239C24.8053 12.8394 24.6884 12.8319 24.5765 12.8018C23.9979 12.6566 23.4151 12.5289 22.8288 12.4192C17.5158 11.4158 10.4855 11.4158 5.17362 12.4192C4.58647 12.5286 4.00285 12.6562 3.42362 12.8018C3.31224 12.8301 3.19638 12.8362 3.08266 12.8196C2.96893 12.8031 2.85958 12.7644 2.76083 12.7056C2.5614 12.5869 2.41729 12.3939 2.3602 12.1689C2.30311 11.944 2.33773 11.7056 2.45642 11.5061C2.57512 11.3067 2.76817 11.1626 2.99312 11.1055C3.44812 10.99 3.91829 10.8838 4.40129 10.7858L6.85829 5.38067C7.11316 4.81996 7.52404 4.34448 8.04186 4.01099C8.55968 3.6775 9.16254 3.50011 9.77845 3.5H18.2216C18.8377 3.49989 19.4408 3.67717 19.9589 4.01067C20.4769 4.34417 20.888 4.81978 21.143 5.38067ZM4.08279 19.25C4.08279 18.3217 4.45154 17.4315 5.10791 16.7751C5.76429 16.1187 6.65453 15.75 7.58279 15.75C8.51104 15.75 9.40128 16.1187 10.0577 16.7751C10.714 17.4315 11.0828 18.3217 11.0828 19.25C11.0828 20.1783 10.714 21.0685 10.0577 21.7249C9.40128 22.3813 8.51104 22.75 7.58279 22.75C6.65453 22.75 5.76429 22.3813 5.10791 21.7249C4.45154 21.0685 4.08279 20.1783 4.08279 19.25ZM7.58279 14C6.59456 14.0003 5.62649 14.2796 4.78991 14.8056C3.95332 15.3317 3.2822 16.0832 2.85372 16.9737C2.42524 17.8642 2.25679 18.8575 2.36776 19.8395C2.47873 20.8215 2.8646 21.7522 3.481 22.5246C4.09739 23.2971 4.91929 23.8798 5.85217 24.2059C6.78504 24.532 7.79102 24.5882 8.7544 24.368C9.71778 24.1478 10.5995 23.6602 11.298 22.9612C11.9966 22.2622 12.4837 21.3802 12.7033 20.4167H15.2968C15.5873 21.6717 16.329 22.7763 17.3807 23.5202C18.4324 24.2641 19.7209 24.5956 21.0011 24.4516C22.2812 24.3075 23.4638 23.6981 24.324 22.739C25.1841 21.78 25.6617 20.5382 25.6661 19.25C25.6685 17.9066 25.1557 16.6134 24.2335 15.6366C23.3112 14.6598 22.0495 14.0737 20.7082 13.999C19.3669 13.9242 18.048 14.3665 17.0229 15.2348C15.9978 16.1031 15.3445 17.3313 15.1976 18.6667H12.8013C12.6578 17.3831 12.0462 16.1975 11.0834 15.3365C10.1207 14.4756 8.87434 13.9998 7.58279 14ZM16.9161 19.25C16.9161 18.3217 17.2849 17.4315 17.9412 16.7751C18.5976 16.1187 19.4879 15.75 20.4161 15.75C21.3444 15.75 22.2346 16.1187 22.891 16.7751C23.5474 17.4315 23.9161 18.3217 23.9161 19.25C23.9161 20.1783 23.5474 21.0685 22.891 21.7249C22.2346 22.3813 21.3444 22.75 20.4161 22.75C19.4879 22.75 18.5976 22.3813 17.9412 21.7249C17.2849 21.0685 16.9161 20.1783 16.9161 19.25Z" fill="#18202A"/>
</svg>
