<svg width="28" height="28" viewBox="0 0 28 28" fill="none" xmlns="http://www.w3.org/2000/svg">
<path fill-rule="evenodd" clip-rule="evenodd" d="M14 1.1665C15.2887 1.1665 16.3333 2.21117 16.3333 3.49984C16.3333 4.3635 15.8641 5.11757 15.1667 5.52101V6.99984H17.5C21.6572 6.99984 25.0889 10.1061 25.6008 14.1242C25.8015 14.044 26.0206 13.9998 26.25 13.9998C27.2165 13.9998 28 14.7833 28 15.7498V19.2498C28 20.2163 27.2165 20.9998 26.25 20.9998C26.0455 20.9998 25.8491 20.9647 25.6667 20.9003V22.1665C25.6667 24.7438 23.5773 26.8332 21 26.8332H7C4.42267 26.8332 2.33333 24.7438 2.33333 22.1665V20.9003C2.15088 20.9647 1.95454 20.9998 1.75 20.9998C0.783502 20.9998 0 20.2163 0 19.2498V15.7498C0 14.7833 0.783502 13.9998 1.75 13.9998C1.97939 13.9998 2.19847 14.044 2.39922 14.1242C2.91107 10.1061 6.34278 6.99984 10.5 6.99984H12.8333V5.52101C12.1359 5.11757 11.6667 4.3635 11.6667 3.49984C11.6667 2.21117 12.7113 1.1665 14 1.1665ZM23.3333 16.3332C23.3333 18.2662 21.7663 19.8332 19.8333 19.8332C17.9003 19.8332 16.3333 18.2662 16.3333 16.3332C16.3333 14.4002 17.9003 12.8332 19.8333 12.8332C21.7663 12.8332 23.3333 14.4002 23.3333 16.3332ZM8.16667 19.8332C10.0997 19.8332 11.6667 18.2662 11.6667 16.3332C11.6667 14.4002 10.0997 12.8332 8.16667 12.8332C6.23367 12.8332 4.66667 14.4002 4.66667 16.3332C4.66667 18.2662 6.23367 19.8332 8.16667 19.8332ZM11.6667 22.7498C11.6667 22.4277 11.9278 22.1665 12.25 22.1665H15.75C16.0722 22.1665 16.3333 22.4277 16.3333 22.7498C16.3333 23.072 16.0722 23.3332 15.75 23.3332H12.25C11.9278 23.3332 11.6667 23.072 11.6667 22.7498Z" fill="#18202A"/>
</svg>
