<svg width="28" height="28" viewBox="0 0 28 28" fill="none" xmlns="http://www.w3.org/2000/svg">
<path fill-rule="evenodd" clip-rule="evenodd" d="M12.1287 2.18756C12.0537 1.71017 12.3798 1.25925 12.8612 1.21688C13.2366 1.18385 13.6164 1.16699 14 1.16699C21.0876 1.16699 26.8333 6.91267 26.8333 14.0003C26.8333 14.3839 26.8165 14.7638 26.7834 15.1391C26.7411 15.6205 26.2902 15.9467 25.8128 15.8716C25.3354 15.7966 25.0128 15.3488 25.05 14.867C25.0721 14.5811 25.0833 14.2921 25.0833 14.0003C25.0833 7.87917 20.1211 2.91699 14 2.91699C13.7082 2.91699 13.4192 2.92825 13.1334 2.95033C12.6516 2.98755 12.2037 2.66495 12.1287 2.18756ZM6.47421 4.70658C6.16986 4.3312 6.22584 3.77749 6.62101 3.49934C7.2404 3.06334 7.90028 2.68066 8.59396 2.35804C9.03214 2.15425 9.53986 2.38222 9.71314 2.83333C9.88643 3.28444 9.65935 3.78748 9.22341 3.99602C8.70036 4.24624 8.19987 4.53634 7.72589 4.86245C7.32777 5.13637 6.77855 5.08195 6.47421 4.70658ZM2.833 9.71348C2.38188 9.54019 2.15392 9.03247 2.35771 8.59429C2.68032 7.90061 3.06301 7.24074 3.499 6.62134C3.77716 6.22617 4.33087 6.1702 4.70624 6.47454C5.08162 6.77888 5.13604 7.3281 4.86212 7.72622C4.53601 8.20021 4.2459 8.7007 3.99569 9.22375C3.78714 9.65968 3.28411 9.88676 2.833 9.71348ZM1.16666 14.0003C1.16666 13.6167 1.18351 13.2369 1.21655 12.8615C1.25891 12.3801 1.70983 12.054 2.18722 12.129C2.66461 12.204 2.98722 12.6519 2.95 13.1337C2.92791 13.4195 2.91666 13.7085 2.91666 14.0003C2.91666 14.2921 2.92791 14.5811 2.95 14.867C2.98722 15.3488 2.66461 15.7966 2.18722 15.8716C1.70983 15.9467 1.25891 15.6205 1.21655 15.1391C1.18351 14.7638 1.16666 14.3839 1.16666 14.0003ZM4.70624 21.5261C4.33087 21.8305 3.77716 21.7745 3.499 21.3793C3.06301 20.7599 2.68032 20.1 2.3577 19.4064C2.15392 18.9682 2.38188 18.4605 2.83299 18.2872C3.28411 18.1139 3.78714 18.341 3.99568 18.7769C4.2459 19.3 4.53601 19.8004 4.86212 20.2744C5.13603 20.6726 5.08162 21.2218 4.70624 21.5261ZM25.167 18.2872C25.6181 18.4605 25.8461 18.9682 25.6423 19.4064C25.3197 20.1 24.937 20.7599 24.501 21.3793C24.2228 21.7745 23.6691 21.8305 23.2937 21.5261C22.9184 21.2218 22.8639 20.6726 23.1379 20.2744C23.464 19.8004 23.7541 19.3 24.0043 18.7769C24.2128 18.341 24.7159 18.1139 25.167 18.2872ZM9.71314 25.1673C9.53986 25.6184 9.03214 25.8464 8.59396 25.6426C7.90028 25.32 7.2404 24.9373 6.621 24.5013C6.22584 24.2232 6.16986 23.6694 6.47421 23.2941C6.77855 22.9187 7.32776 22.8643 7.72589 23.1382C8.19987 23.4643 8.70036 23.7544 9.22341 24.0046C9.65934 24.2132 9.88643 24.7162 9.71314 25.1673ZM21.5258 23.2941C21.8301 23.6694 21.7741 24.2232 21.379 24.5013C20.7596 24.9373 20.0997 25.32 19.406 25.6426C18.9678 25.8464 18.4601 25.6184 18.2868 25.1673C18.1136 24.7162 18.3406 24.2132 18.7766 24.0046C19.2996 23.7544 19.8001 23.4643 20.2741 23.1382C20.6722 22.8643 21.2214 22.9187 21.5258 23.2941ZM14 26.8337C13.6164 26.8337 13.2366 26.8168 12.8612 26.7838C12.3798 26.7414 12.0536 26.2905 12.1287 25.8131C12.2037 25.3357 12.6515 25.0131 13.1334 25.0503C13.4192 25.0724 13.7082 25.0837 14 25.0837C14.2918 25.0837 14.5808 25.0724 14.8666 25.0503C15.3484 25.0131 15.7963 25.3357 15.8713 25.8131C15.9463 26.2905 15.6202 26.7414 15.1388 26.7838C14.7634 26.8168 14.3836 26.8337 14 26.8337ZM23.3333 14.0003C23.3333 19.155 19.1546 23.3337 14 23.3337C8.84533 23.3337 4.66666 19.155 4.66666 14.0003C4.66666 8.84567 8.84533 4.66699 14 4.66699C19.1546 4.66699 23.3333 8.84567 23.3333 14.0003ZM12.8333 9.91699C12.8333 10.8835 12.0498 11.667 11.0833 11.667C10.1168 11.667 9.33332 10.8835 9.33332 9.91699C9.33332 8.95049 10.1168 8.16699 11.0833 8.16699C12.0498 8.16699 12.8333 8.95049 12.8333 9.91699ZM14 21.5837C17.8445 21.5837 21.0208 18.7228 21.5162 15.0138L17.5 11.667L13.4166 16.3337L10.5 14.5837L7.2385 17.4375C8.49189 19.8982 11.0491 21.5837 14 21.5837Z" fill="#18202A"/>
</svg>
