<svg width="28" height="28" viewBox="0 0 28 28" fill="none" xmlns="http://www.w3.org/2000/svg">
<path fill-rule="evenodd" clip-rule="evenodd" d="M11.325 20.1747C11.7806 20.6303 11.7806 21.369 11.325 21.8246L7.82495 25.3246C7.36934 25.7802 6.63065 25.7802 6.17504 25.3246L2.67504 21.8246C2.21943 21.369 2.21943 20.6303 2.67504 20.1747C3.13065 19.7191 3.86934 19.7191 4.32495 20.1747L5.83333 21.6831L5.83333 6.31626L4.32495 7.82463C3.86934 8.28024 3.13065 8.28024 2.67504 7.82463C2.21943 7.36902 2.21943 6.63033 2.67504 6.17471L6.17504 2.67472C6.63065 2.2191 7.36934 2.21911 7.82495 2.67472L11.325 6.17472C11.7806 6.63033 11.7806 7.36902 11.325 7.82463C10.8693 8.28024 10.1306 8.28024 9.67504 7.82463L8.16666 6.31626L8.16666 21.6831L9.67504 20.1747C10.1306 19.7191 10.8693 19.7191 11.325 20.1747ZM14 11.6663C14 11.022 14.5223 10.4997 15.1667 10.4997H24.5C25.1443 10.4997 25.6667 11.022 25.6667 11.6663C25.6667 12.3107 25.1443 12.833 24.5 12.833H15.1667C14.5223 12.833 14 12.3107 14 11.6663ZM15.1667 5.83301C14.5223 5.83301 14 6.35534 14 6.99967C14 7.64401 14.5223 8.16634 15.1667 8.16634H24.5C25.1443 8.16634 25.6667 7.64401 25.6667 6.99967C25.6667 6.35534 25.1443 5.83301 24.5 5.83301H15.1667ZM14 16.333C14 15.6887 14.5223 15.1663 15.1667 15.1663H24.5C25.1443 15.1663 25.6667 15.6887 25.6667 16.333C25.6667 16.9773 25.1443 17.4997 24.5 17.4997H15.1667C14.5223 17.4997 14 16.9773 14 16.333ZM15.1667 19.833C14.5223 19.833 14 20.3553 14 20.9997C14 21.644 14.5223 22.1663 15.1667 22.1663H24.5C25.1443 22.1663 25.6667 21.644 25.6667 20.9997C25.6667 20.3553 25.1443 19.833 24.5 19.833H15.1667Z" fill="#18202A"/>
</svg>
