<svg width="28" height="28" viewBox="0 0 28 28" fill="none" xmlns="http://www.w3.org/2000/svg">
<path fill-rule="evenodd" clip-rule="evenodd" d="M24.5 11.4668V12.8337H22.75H14.5833H12.8333V11.0837V2.91699H8.16667C6.55584 2.91699 5.25 4.22283 5.25 5.83366V22.167C5.25 23.7778 6.55584 25.0837 8.16667 25.0837H13.8434C14.0695 25.7057 14.3824 26.2951 14.7745 26.8337H8.16667C5.58934 26.8337 3.5 24.7443 3.5 22.167V5.83366C3.5 3.25633 5.58934 1.16699 8.16667 1.16699H12.8333H14.2002C14.819 1.16699 15.4125 1.41282 15.8501 1.85041L23.8166 9.81691C24.2542 10.2545 24.5 10.848 24.5 11.4668ZM14.5833 11.0837H22.6065C22.5978 11.0736 22.5886 11.0638 22.5791 11.0543L14.6126 3.08785C14.6032 3.07836 14.5934 3.06924 14.5833 3.06048V11.0837ZM23.0435 25.2001L26.5003 21.7421V21.7467C26.6662 21.5922 26.8856 21.508 27.1122 21.512C27.3389 21.516 27.5552 21.6079 27.7155 21.7682C27.8758 21.9285 27.9677 22.1448 27.9717 22.3715C27.9757 22.5981 27.8915 22.8175 27.737 22.9834L24.2801 26.4367C23.2789 27.4379 21.9209 28.0002 20.505 28.0001C19.0891 28 17.7312 27.4374 16.73 26.4361C15.7289 25.4349 15.1666 24.0769 15.1667 22.661C15.1668 21.2451 15.7294 19.8872 16.7306 18.8861L20.4873 15.1282C21.2095 14.406 22.189 14.0003 23.2103 14.0003C24.2316 14.0003 25.2111 14.406 25.9333 15.1282C26.6555 15.8504 27.0612 16.8299 27.0612 17.8512C27.0612 18.8726 26.6555 19.852 25.9333 20.5742L22.4776 24.0334C22.0341 24.4773 21.4324 24.7267 20.8049 24.727C20.1774 24.7272 19.5755 24.4781 19.1316 24.0346C18.6878 23.591 18.4383 22.9893 18.4381 22.3618C18.4379 21.7343 18.6869 21.1324 19.1305 20.6886L21.6901 18.1301C21.7702 18.0441 21.8668 17.9751 21.9742 17.9273C22.0815 17.8795 22.1974 17.8538 22.3149 17.8517C22.4323 17.8496 22.549 17.8712 22.658 17.9153C22.7669 17.9593 22.8659 18.0248 22.949 18.1079C23.0321 18.1909 23.0976 18.2899 23.1416 18.3989C23.1856 18.5078 23.2072 18.6245 23.2052 18.742C23.2031 18.8595 23.1774 18.9754 23.1295 19.0827C23.0817 19.19 23.0128 19.2866 22.9268 19.3667L20.373 21.9252C20.2588 22.0406 20.1947 22.1963 20.1947 22.3586C20.1947 22.521 20.2588 22.6767 20.373 22.7921C20.488 22.9068 20.6439 22.9713 20.8064 22.9713C20.9689 22.9713 21.1248 22.9068 21.2398 22.7921L24.6966 19.3364C24.8919 19.1414 25.0468 18.9098 25.1525 18.6548C25.2581 18.3999 25.3125 18.1266 25.3125 17.8506C25.3125 17.5747 25.2581 17.3014 25.1525 17.0465C25.0468 16.7915 24.8919 16.5599 24.6966 16.3649C24.296 15.9835 23.764 15.7708 23.2109 15.7708C22.6577 15.7708 22.1258 15.9835 21.7251 16.3649L17.9638 20.1239C17.2907 20.7975 16.9127 21.7109 16.913 22.6632C16.9133 23.6155 17.2919 24.5287 17.9655 25.2018C18.6392 25.875 19.5526 26.2529 20.5049 26.2526C21.4572 26.2523 22.3703 25.8737 23.0435 25.2001Z" fill="#18202A"/>
</svg>
