<svg width="28" height="28" viewBox="0 0 28 28" fill="none" xmlns="http://www.w3.org/2000/svg">
<path fill-rule="evenodd" clip-rule="evenodd" d="M6.65825 2.67496C7.11386 3.13057 7.11386 3.86926 6.65825 4.32488L3.15825 7.82488C2.70264 8.28049 1.96395 8.28049 1.50833 7.82488C1.05272 7.36927 1.05272 6.63057 1.50833 6.17496L5.00833 2.67496C5.46395 2.21935 6.20264 2.21935 6.65825 2.67496ZM14 26.8333C20.4433 26.8333 25.6666 21.6099 25.6666 15.1666C25.6666 8.72326 20.4433 3.49992 14 3.49992C7.55664 3.49992 2.33329 8.72326 2.33329 15.1666C2.33329 21.6099 7.55664 26.8333 14 26.8333ZM15.1666 8.16658C15.1666 7.52225 14.6443 6.99992 14 6.99992C13.3556 6.99992 12.8333 7.52225 12.8333 8.16658V15.1666C12.8333 15.6333 13.1114 16.0551 13.5404 16.2389L17.6237 17.9889C18.216 18.2427 18.9018 17.9684 19.1556 17.3762C19.4094 16.7839 19.1351 16.0981 18.5429 15.8442L15.1666 14.3973V8.16658ZM21.3417 4.32488C20.8861 3.86926 20.8861 3.13057 21.3417 2.67496C21.7973 2.21935 22.536 2.21935 22.9916 2.67496L26.4916 6.17496C26.9472 6.63057 26.9472 7.36927 26.4916 7.82488C26.036 8.28049 25.2973 8.28049 24.8417 7.82488L21.3417 4.32488Z" fill="#18202A"/>
</svg>
