<svg width="28" height="28" viewBox="0 0 28 28" fill="none" xmlns="http://www.w3.org/2000/svg">
<path fill-rule="evenodd" clip-rule="evenodd" d="M11.0562 16.258C11.7144 14.0149 11.9022 11.2299 11.6665 8.1308C11.6473 6.21425 10.0877 4.6665 8.16667 4.6665H7C5.067 4.6665 3.5 6.23351 3.5 8.1665V9.33317C3.5 11.2662 5.067 12.8332 7 12.8332C7.82293 12.8332 8.49153 12.9801 8.89785 13.3413C9.2392 13.6447 9.60117 14.2939 9.35443 15.8413C9.22221 16.2808 9.0707 16.6899 8.90047 17.0668C7.98771 19.0879 6.58157 20.1249 4.66667 20.1249C4.18342 20.1249 3.79167 20.5166 3.79167 20.9999C3.79167 21.4831 4.18342 21.8749 4.66667 21.8749C7.41843 21.8749 9.36646 20.2868 10.4954 17.7871C10.7168 17.2968 10.9234 16.7804 11.0562 16.258Z" fill="#18202A"/>
<path fill-rule="evenodd" clip-rule="evenodd" d="M23.8895 16.258C24.5478 14.0149 24.7355 11.2299 24.4998 8.13079C24.4807 6.21424 22.9211 4.6665 21 4.6665H19.8333C17.9003 4.6665 16.3333 6.23351 16.3333 8.1665V9.33317C16.3333 11.2662 17.9003 12.8332 19.8333 12.8332C20.6563 12.8332 21.3249 12.9801 21.7312 13.3413C22.0725 13.6447 22.4345 14.2939 22.1878 15.8413C22.0555 16.2808 21.904 16.6899 21.7338 17.0668C20.821 19.0879 19.4149 20.1249 17.5 20.1249C17.0168 20.1249 16.625 20.5166 16.625 20.9999C16.625 21.4831 17.0168 21.8749 17.5 21.8749C20.2518 21.8749 22.1998 20.2868 23.3287 17.7871C23.5501 17.2968 23.7568 16.7804 23.8895 16.258Z" fill="#18202A"/>
</svg>
