<svg width="28" height="28" viewBox="0 0 28 28" fill="none" xmlns="http://www.w3.org/2000/svg">
<g clip-path="url(#clip0_3293_9018)">
<path fill-rule="evenodd" clip-rule="evenodd" d="M16.0417 4.95817C16.5249 4.95817 16.9167 5.34992 16.9167 5.83317V6.99984H17.7917C18.2749 6.99984 18.6667 7.39159 18.6667 7.87484C18.6667 8.35809 18.2749 8.74984 17.7917 8.74984H16.9167V17.7915C16.9167 18.2748 16.5249 18.6665 16.0417 18.6665C15.5585 18.6665 15.1669 18.2749 15.1667 17.7918C14.4355 18.341 13.5266 18.6665 12.5417 18.6665C10.1254 18.6665 8.16669 16.7077 8.16669 14.2915C8.16669 11.8753 10.1254 9.9165 12.5417 9.9165C13.5266 9.9165 14.4355 10.242 15.1667 10.7912V8.74984H14.2917C13.8084 8.74984 13.4167 8.35809 13.4167 7.87484C13.4167 7.39159 13.8084 6.99984 14.2917 6.99984H15.1667V5.83317C15.1667 5.34992 15.5584 4.95817 16.0417 4.95817ZM12.5417 11.6665C13.9914 11.6665 15.1667 12.8418 15.1667 14.2915C15.1667 15.7413 13.9914 16.9165 12.5417 16.9165C11.0919 16.9165 9.91669 15.7413 9.91669 14.2915C9.91669 12.8418 11.0919 11.6665 12.5417 11.6665Z" fill="#18202A"/>
<path d="M9.04169 19.8332C8.55844 19.8332 8.16669 20.2249 8.16669 20.7082C8.16669 21.1914 8.55844 21.5832 9.04169 21.5832H16.0417C16.5249 21.5832 16.9167 21.1914 16.9167 20.7082C16.9167 20.2249 16.5249 19.8332 16.0417 19.8332H9.04169Z" fill="#18202A"/>
<path fill-rule="evenodd" clip-rule="evenodd" d="M26.8334 13.9998C26.8334 21.0875 21.0877 26.8332 14 26.8332C6.91237 26.8332 1.16669 21.0875 1.16669 13.9998C1.16669 6.91218 6.91237 1.1665 14 1.1665C21.0877 1.1665 26.8334 6.91218 26.8334 13.9998ZM25.0834 13.9998C25.0834 20.121 20.1212 25.0832 14 25.0832C7.87886 25.0832 2.91669 20.121 2.91669 13.9998C2.91669 7.87868 7.87886 2.9165 14 2.9165C20.1212 2.9165 25.0834 7.87868 25.0834 13.9998Z" fill="#18202A"/>
</g>
<defs>
<clipPath id="clip0_3293_9018">
<rect width="28" height="28" fill="white"/>
</clipPath>
</defs>
</svg>
