<svg width="28" height="28" viewBox="0 0 28 28" fill="none" xmlns="http://www.w3.org/2000/svg">
<path d="M4.66671 2.33337C3.37804 2.33337 2.33337 3.37804 2.33337 4.66671V5.83337C2.33337 7.12204 3.37804 8.16671 4.66671 8.16671H23.3334C24.622 8.16671 25.6667 7.12204 25.6667 5.83337V4.66671C25.6667 3.37804 24.622 2.33337 23.3334 2.33337H4.66671Z" fill="#18202A"/>
<path fill-rule="evenodd" clip-rule="evenodd" d="M3.50004 11.6667C3.50004 11.0224 4.02238 10.5 4.66671 10.5H23.3334C23.9777 10.5 24.5 11.0224 24.5 11.6667V22.1667C24.5 24.744 22.4107 26.8334 19.8334 26.8334H8.16671C5.58938 26.8334 3.50004 24.744 3.50004 22.1667V11.6667ZM9.33337 14C9.33337 13.3557 9.85571 12.8334 10.5 12.8334H17.5C18.1444 12.8334 18.6667 13.3557 18.6667 14C18.6667 14.6444 18.1444 15.1667 17.5 15.1667H10.5C9.85571 15.1667 9.33337 14.6444 9.33337 14Z" fill="#18202A"/>
</svg>
