<svg width="28" height="28" viewBox="0 0 28 28" fill="none" xmlns="http://www.w3.org/2000/svg">
<g clip-path="url(#clip0_3444_9207)">
<path d="M7.00002 3.49984C7.00002 2.21117 8.04469 1.1665 9.33335 1.1665H18.6667C19.9553 1.1665 21 2.21117 21 3.49984V5.83317C21 6.94911 20.4778 7.94308 19.6643 8.58397C18.6521 9.38148 17.5 10.3778 17.5 11.6665V13.9998C17.5 14.6639 17.7775 15.2632 18.2228 15.6882C17.7188 15.9956 17.2536 16.3602 16.836 16.7729C16.162 16.0447 15.75 15.0704 15.75 13.9998V11.6665C15.75 10.4722 16.2889 9.52074 16.8447 8.83707C17.3929 8.16284 18.0713 7.61118 18.5813 7.20935C18.9917 6.88601 19.25 6.39026 19.25 5.83317V3.49984C19.25 3.17767 18.9889 2.9165 18.6667 2.9165H9.33335C9.01119 2.9165 8.75002 3.17767 8.75002 3.49984V5.83317C8.75002 6.39026 9.00835 6.88601 9.41875 7.20935C9.92876 7.61118 10.6071 8.16284 11.1553 8.83707C11.7112 9.52074 12.25 10.4722 12.25 11.6665V13.9998C12.25 16.255 10.4219 18.0832 8.16669 18.0832H6.16669C4.37176 18.0832 2.91669 19.5382 2.91669 21.3332C2.91669 21.4712 3.02861 21.5832 3.16669 21.5832H14.6055C14.5908 21.7757 14.5834 21.9702 14.5834 22.1665C14.5834 22.5632 14.6138 22.9529 14.6725 23.3332H3.16669C2.06212 23.3332 1.16669 22.4377 1.16669 21.3332C1.16669 18.5717 3.40526 16.3332 6.16669 16.3332H8.16669C9.45535 16.3332 10.5 15.2885 10.5 13.9998V11.6665C10.5 10.3778 9.34797 9.38148 8.33573 8.58397C7.52229 7.94307 7.00002 6.94911 7.00002 5.83317V3.49984Z" fill="#18202A"/>
<path d="M16.1889 26.8332C15.6482 26.1416 15.225 25.3538 14.9491 24.4998H3.50002C2.85569 24.4998 2.33335 25.0222 2.33335 25.6665C2.33335 26.3108 2.85569 26.8332 3.50002 26.8332H16.1889Z" fill="#18202A"/>
<path d="M21.0354 17.1728C21.3771 17.5145 21.3771 18.0685 21.0354 18.4102L20.1958 19.2498H25.6667C26.15 19.2498 26.5417 19.6416 26.5417 20.1248C26.5417 20.6081 26.15 20.9998 25.6667 20.9998H18.0834C17.7295 20.9998 17.4104 20.7866 17.275 20.4597C17.1396 20.1327 17.2144 19.7564 17.4647 19.5061L19.798 17.1728C20.1397 16.8311 20.6937 16.8311 21.0354 17.1728Z" fill="#18202A"/>
<path d="M22.7146 27.1602C22.3729 26.8185 22.3729 26.2645 22.7146 25.9228L23.5542 25.0832H18.0833C17.6001 25.0832 17.2083 24.6914 17.2083 24.2082C17.2083 23.7249 17.6001 23.3332 18.0833 23.3332H25.6667C26.0206 23.3332 26.3396 23.5464 26.4751 23.8733C26.6105 24.2003 26.5356 24.5766 26.2854 24.8269L23.952 27.1602C23.6103 27.5019 23.0563 27.5019 22.7146 27.1602Z" fill="#18202A"/>
</g>
<defs>
<clipPath id="clip0_3444_9207">
<rect width="28" height="28" fill="white"/>
</clipPath>
</defs>
</svg>
