<svg width="28" height="28" viewBox="0 0 28 28" fill="none" xmlns="http://www.w3.org/2000/svg">
<path fill-rule="evenodd" clip-rule="evenodd" d="M1.16666 14C1.16666 21.0877 6.91234 26.8334 14 26.8334C21.0877 26.8334 26.8333 21.0877 26.8333 14C26.8333 6.91237 21.0877 1.16669 14 1.16669C6.91234 1.16669 1.16666 6.91237 1.16666 14ZM19.4916 15.9916C19.9472 15.536 19.9472 14.7973 19.4916 14.3417C19.036 13.8861 18.2973 13.8861 17.8417 14.3417L15.1667 17.0168V8.16669C15.1667 7.52236 14.6443 7.00002 14 7.00002C13.3557 7.00002 12.8333 7.52236 12.8333 8.16669V17.0168L10.1583 14.3417C9.70268 13.8861 8.96398 13.8861 8.50837 14.3417C8.05276 14.7973 8.05276 15.536 8.50837 15.9916L13.175 20.6583C13.6307 21.1139 14.3693 21.1139 14.825 20.6583L19.4916 15.9916Z" fill="#18202A"/>
</svg>
