<svg width="28" height="28" viewBox="0 0 28 28" fill="none" xmlns="http://www.w3.org/2000/svg">
<path fill-rule="evenodd" clip-rule="evenodd" d="M14 25.0832C20.1211 25.0832 25.0833 20.121 25.0833 13.9998C25.0833 7.87868 20.1211 2.9165 14 2.9165C7.87883 2.9165 2.91666 7.87868 2.91666 13.9998C2.91666 20.121 7.87883 25.0832 14 25.0832ZM26.8333 13.9998C26.8333 21.0875 21.0876 26.8332 14 26.8332C6.91234 26.8332 1.16666 21.0875 1.16666 13.9998C1.16666 6.91218 6.91234 1.1665 14 1.1665C21.0876 1.1665 26.8333 6.91218 26.8333 13.9998Z" fill="#18202A"/>
<path fill-rule="evenodd" clip-rule="evenodd" d="M8.84133 16.7763C9.24096 16.5045 9.78519 16.6082 10.0569 17.0078C10.4515 17.5882 11.0178 18.0805 11.7104 18.4268C12.4033 18.7732 13.1924 18.9582 14 18.9582C14.8076 18.9582 15.5967 18.7732 16.2895 18.4268C16.9821 18.0805 17.5485 17.5882 17.9431 17.0078C18.2148 16.6082 18.759 16.5045 19.1586 16.7763C19.5583 17.048 19.662 17.5922 19.3902 17.9918C18.8169 18.835 18.0151 19.5206 17.0722 19.992C16.1295 20.4634 15.0715 20.7082 14 20.7082C12.9285 20.7082 11.8705 20.4634 10.9278 19.992C9.98491 19.5206 9.18303 18.835 8.60974 17.9918C8.33802 17.5922 8.44171 17.048 8.84133 16.7763Z" fill="#18202A"/>
<path d="M11.6667 11.6665C11.6667 12.9552 10.8832 13.9998 9.91666 13.9998C8.95016 13.9998 8.16666 12.9552 8.16666 11.6665C8.16666 10.3778 8.95016 9.33317 9.91666 9.33317C10.8832 9.33317 11.6667 10.3778 11.6667 11.6665Z" fill="#18202A"/>
<path d="M19.8333 11.6665C19.8333 12.9552 19.0498 13.9998 18.0833 13.9998C17.1168 13.9998 16.3333 12.9552 16.3333 11.6665C16.3333 10.3778 17.1168 9.33317 18.0833 9.33317C19.0498 9.33317 19.8333 10.3778 19.8333 11.6665Z" fill="#18202A"/>
</svg>
