<svg width="32" height="32" viewBox="0 0 32 32" fill="none" xmlns="http://www.w3.org/2000/svg">
<g clip-path="url(#clip0_2294_10299)">
<path d="M0 13.3336C0 11.1244 1.79086 9.33358 4 9.33358H5.33333V22.6669H4C1.79086 22.6669 0 20.8761 0 18.6669V13.3336Z" fill="#18202A"/>
<path d="M8 23.8856V8.11496L14.4179 2.24928C16.557 0.294167 20 1.81176 20 4.70978V27.2911C20 30.1891 16.557 31.7067 14.4178 29.7515L8 23.8856Z" fill="#18202A"/>
<path d="M31.6911 13.0216C32.1645 12.4574 32.0909 11.6164 31.5268 11.1431C30.9627 10.6698 30.1217 10.7434 29.6484 11.3074L27.2416 14.1758L24.8347 11.3074C24.3614 10.7434 23.5204 10.6698 22.9563 11.1431C22.3922 11.6164 22.3186 12.4574 22.792 13.0216L25.501 16.2501L22.792 19.4786C22.3186 20.0427 22.3922 20.8837 22.9563 21.357C23.5204 21.8304 24.3614 21.7568 24.8347 21.1927L27.2416 18.3244L29.6484 21.1927C30.1217 21.7568 30.9627 21.8304 31.5268 21.357C32.0909 20.8837 32.1645 20.0427 31.6911 19.4786L28.9821 16.2501L31.6911 13.0216Z" fill="#18202A"/>
</g>
<defs>
<clipPath id="clip0_2294_10299">
<rect width="32" height="32" fill="white"/>
</clipPath>
</defs>
</svg>
