<svg width="32" height="32" viewBox="0 0 32 32" fill="none" xmlns="http://www.w3.org/2000/svg">
<g clip-path="url(#clip0_3240_8923)">
<path d="M2.98955 21.4577C3.11938 21.9423 3.29938 22.4 3.52246 22.8267L5.56882 20.7804L5.56535 20.7675L2.80462 10.4643C2.23285 8.33047 3.49918 6.13712 5.63304 5.56535L15.9363 2.80462C18.0389 2.24121 20.1994 3.46257 20.8091 5.54007L22.8425 3.50668C21.4116 0.844051 18.2924 -0.58746 15.2461 0.228816L4.94286 2.98955C1.38642 3.9425 -0.724129 7.59808 0.228816 11.1545L2.98955 21.4577Z" fill="#18202A"/>
<path fill-rule="evenodd" clip-rule="evenodd" d="M7.43732 26.45L3.70228 30.185C3.11236 30.7749 2.21164 30.8307 1.69048 30.3095C1.16932 29.7884 1.22506 28.8876 1.81498 28.2977L28.2977 1.81498C28.8876 1.22506 29.7884 1.16931 30.3095 1.69048C30.8307 2.21164 30.7749 3.11235 30.185 3.70228L25.8208 8.06653L25.9238 8.07555C29.5917 8.39645 32.305 11.63 31.9841 15.2979L31.0544 25.924C30.7335 29.5918 27.5 32.3051 23.8321 31.9842L13.206 31.0546C10.4503 30.8135 8.23342 28.9282 7.43732 26.45ZM9.8004 24.0869L15.026 18.8613L18.0033 21.2222L24.8107 16.3098L28.7996 21.1002L28.4697 24.8714L24.3535 19.9282L17.9274 24.5654L14.7689 22.0608L9.95522 25.5646C9.81521 25.0991 9.75831 24.6002 9.8004 24.0869ZM18.9488 14.9385C18.6278 16.0372 17.763 16.8842 16.6875 17.1998L18.9488 14.9385Z" fill="#18202A"/>
<path d="M7.58956 18.7596L12.4168 13.9324C12.4184 13.8586 12.4224 13.7843 12.4289 13.7097C12.5789 11.9962 14.0001 10.6994 15.6819 10.6673L18.8891 7.46009L15.2978 7.14589C11.6299 6.82499 8.39633 9.53826 8.07543 13.2061L7.58956 18.7596Z" fill="#18202A"/>
</g>
<defs>
<clipPath id="clip0_3240_8923">
<rect width="32" height="32" fill="white"/>
</clipPath>
</defs>
</svg>
