<svg width="32" height="32" viewBox="0 0 32 32" fill="none" xmlns="http://www.w3.org/2000/svg">
<path fill-rule="evenodd" clip-rule="evenodd" d="M27.6095 8.39052C28.1302 8.91122 28.1302 9.75544 27.6095 10.2761L15.6095 22.2761C15.0888 22.7968 14.2446 22.7968 13.7239 22.2761L9.33333 17.8856L4.94281 22.2761C4.42211 22.7968 3.57789 22.7968 3.05719 22.2761C2.53649 21.7554 2.53649 20.9112 3.05719 20.3905L8.39052 15.0572C8.91122 14.5365 9.75544 14.5365 10.2761 15.0572L14.6667 19.4477L25.7239 8.39052C26.2446 7.86983 27.0888 7.86983 27.6095 8.39052Z" fill="#18202A"/>
<path fill-rule="evenodd" clip-rule="evenodd" d="M16 9.33333C16 8.59695 16.597 8 17.3333 8H26.6667C27.403 8 28 8.59695 28 9.33333V18.6667C28 19.403 27.403 20 26.6667 20C25.9303 20 25.3333 19.403 25.3333 18.6667V10.6667H17.3333C16.597 10.6667 16 10.0697 16 9.33333Z" fill="#18202A"/>
</svg>
