<svg width="32" height="32" viewBox="0 0 32 32" fill="none" xmlns="http://www.w3.org/2000/svg">
<path d="M4.2947 2.96167C4.6876 2.56877 5.32462 2.56877 5.71753 2.96167L27.7053 24.9495C28.0982 25.3424 28.0982 25.9794 27.7053 26.3723C27.3124 26.7652 26.6754 26.7652 26.2825 26.3723L4.2947 4.3845C3.90179 3.9916 3.90179 3.35457 4.2947 2.96167Z" fill="#18202A"/>
<path d="M8.15032 5.39637C5.36718 6.42382 2.84104 7.98189 0.694654 9.94785C0.287387 10.3209 0.288845 10.9558 0.679369 11.3463C1.06989 11.7369 1.70148 11.7349 2.11033 11.3636C4.27833 9.3947 6.86647 7.88016 9.72433 6.97038L8.15032 5.39637Z" fill="#18202A"/>
<path d="M13.5998 10.8458C10.4875 11.314 7.66871 12.6787 5.41492 14.6686C5.00091 15.0341 5.00289 15.6699 5.39342 16.0604C5.78394 16.4509 6.4149 16.4479 6.83214 16.0861C9.15513 14.0715 12.1482 12.8093 15.4322 12.6783L13.5998 10.8458Z" fill="#18202A"/>
<path d="M18.4658 12.8834L16.2513 10.6689C20.2115 10.7299 23.8227 12.2297 26.5851 14.6686C26.9991 15.0341 26.9971 15.6699 26.6066 16.0604C26.2161 16.4509 25.5851 16.4479 25.1679 16.0861C23.301 14.4671 21.0014 13.334 18.4658 12.8834Z" fill="#18202A"/>
<path d="M11.9745 6.39214L10.3043 4.72192C12.1242 4.25092 14.0329 4.00033 16 4.00033C21.8996 4.00033 27.2727 6.2542 31.3054 9.94784C31.7126 10.3209 31.7112 10.9558 31.3207 11.3463C30.9301 11.7369 30.2986 11.7349 29.8897 11.3636C26.2203 8.03115 21.3473 6.00033 16 6.00033C14.6226 6.00033 13.2766 6.13509 11.9745 6.39214Z" fill="#18202A"/>
<path d="M21.8926 20.7744C22.2831 20.3839 22.2861 19.746 21.8563 19.3992C20.2549 18.1072 18.2178 17.3337 16 17.3337C13.7822 17.3337 11.7451 18.1072 10.1438 19.3992C9.71392 19.746 9.71694 20.3839 10.1075 20.7744C10.498 21.165 11.1276 21.1586 11.5674 20.8244C12.7986 19.8889 14.3344 19.3337 16 19.3337C17.6656 19.3337 19.2015 19.8889 20.4327 20.8244C20.8724 21.1586 21.5021 21.165 21.8926 20.7744Z" fill="#18202A"/>
<path d="M18.6667 26.667C18.6667 28.1398 17.4728 29.3337 16 29.3337C14.5273 29.3337 13.3334 28.1398 13.3334 26.667C13.3334 25.1942 14.5273 24.0003 16 24.0003C17.4728 24.0003 18.6667 25.1942 18.6667 26.667Z" fill="#18202A"/>
</svg>
