<svg width="32" height="32" viewBox="0 0 32 32" fill="none" xmlns="http://www.w3.org/2000/svg">
<path fill-rule="evenodd" clip-rule="evenodd" d="M16 28.6668C22.9956 28.6668 28.6666 22.9958 28.6666 16.0002C28.6666 9.00456 22.9956 3.3335 16 3.3335C9.00437 3.3335 3.33331 9.00456 3.33331 16.0002C3.33331 22.9958 9.00437 28.6668 16 28.6668ZM16 30.6668C24.1002 30.6668 30.6666 24.1003 30.6666 16.0002C30.6666 7.89999 24.1002 1.3335 16 1.3335C7.8998 1.3335 1.33331 7.89999 1.33331 16.0002C1.33331 24.1003 7.8998 30.6668 16 30.6668Z" fill="#18202A"/>
<path fill-rule="evenodd" clip-rule="evenodd" d="M15.5528 1.7724C15.8343 1.63164 16.1657 1.63164 16.4472 1.7724C21.5516 4.3246 24 9.91302 24 15.5002C24 21.0944 21.5545 26.9515 16.5407 30.1747C16.2113 30.3864 15.7886 30.3864 15.4592 30.1747C10.4454 26.9515 7.99998 21.0944 7.99998 15.5002C7.99998 9.91302 10.4484 4.3246 15.5528 1.7724ZM15 4.44085C11.7136 6.82957 9.99998 11.0356 9.99998 15.5002C9.99998 19.9298 11.6939 24.4132 15 27.3277V4.44085ZM17 27.3277V4.44085C20.2863 6.82957 22 11.0356 22 15.5002C22 19.9298 20.306 24.4132 17 27.3277Z" fill="#18202A"/>
<path fill-rule="evenodd" clip-rule="evenodd" d="M29.3333 17.0002H2.66665V15.0002H29.3333V17.0002Z" fill="#18202A"/>
</svg>
