<svg width="32" height="32" viewBox="0 0 32 32" fill="none" xmlns="http://www.w3.org/2000/svg">
<path fill-rule="evenodd" clip-rule="evenodd" d="M16 30.6667C24.1002 30.6667 30.6667 24.1002 30.6667 16C30.6667 7.89986 24.1002 1.33337 16 1.33337C7.89982 1.33337 1.33333 7.89986 1.33333 16C1.33333 24.1002 7.89982 30.6667 16 30.6667ZM15.6095 9.7239C15.0888 9.2032 14.2446 9.2032 13.7239 9.7239C13.2032 10.2446 13.2032 11.0888 13.7239 11.6095L18.1144 16L13.7239 20.3906C13.2032 20.9113 13.2032 21.7555 13.7239 22.2762C14.2446 22.7969 15.0888 22.7969 15.6095 22.2762L20.9428 16.9428C21.4635 16.4222 21.4635 15.5779 20.9428 15.0572L15.6095 9.7239Z" fill="#18202A"/>
</svg>
