<svg width="32" height="32" viewBox="0 0 32 32" fill="none" xmlns="http://www.w3.org/2000/svg">
<path d="M1.33331 6.3335C1.33331 5.78121 1.78103 5.3335 2.33331 5.3335H29.6666C30.2189 5.3335 30.6666 5.78121 30.6666 6.3335C30.6666 6.88578 30.2189 7.3335 29.6666 7.3335H2.33331C1.78103 7.3335 1.33331 6.88578 1.33331 6.3335Z" fill="#18202A"/>
<path d="M1.33331 25.6668C1.33331 25.1145 1.78103 24.6668 2.33331 24.6668H29.6666C30.2189 24.6668 30.6666 25.1145 30.6666 25.6668C30.6666 26.2191 30.2189 26.6668 29.6666 26.6668H2.33331C1.78103 26.6668 1.33331 26.2191 1.33331 25.6668Z" fill="#18202A"/>
<path d="M1.33331 16.0002C1.33331 15.4479 1.78103 15.0002 2.33331 15.0002H29.6666C30.2189 15.0002 30.6666 15.4479 30.6666 16.0002C30.6666 16.5524 30.2189 17.0002 29.6666 17.0002H2.33331C1.78103 17.0002 1.33331 16.5524 1.33331 16.0002Z" fill="#18202A"/>
</svg>
