<svg width="32" height="32" viewBox="0 0 32 32" fill="none" xmlns="http://www.w3.org/2000/svg">
<path d="M1.33333 12.0002C1.33333 10.5274 2.52724 9.3335 3.99999 9.3335H6.66666C8.13942 9.3335 9.33333 10.5274 9.33333 12.0002V26.6668C9.33333 28.1396 8.13942 29.3335 6.66666 29.3335H3.99999C2.52724 29.3335 1.33333 28.1396 1.33333 26.6668V12.0002Z" fill="#18202A"/>
<path d="M22.6667 6.00026C22.6667 3.51594 21.3027 1.7906 18.5422 1.4119C17.8792 1.32095 17.3333 1.66859 17.3333 2.3378C17.3333 5.06596 17.0565 8.15317 15.2448 10.1929C14.6776 10.8315 14.0428 11.366 13.3791 11.6843C12.7151 12.0026 12.0952 12.5972 12.0952 13.3336L12.0952 25.3336C12.0952 26.07 12.6922 26.6669 13.4285 26.6669H24.1945C25.7096 26.6669 27.0947 25.8109 27.7722 24.4558L27.8514 24.2975C29.7028 20.5947 30.6667 16.5117 30.6667 12.3718V12.0003C30.6667 10.5275 29.4728 9.3336 28 9.3336H23.3333C22.5969 9.3336 22.2152 8.78035 22.4159 8.07185C22.5509 7.59524 22.6667 6.94139 22.6667 6.00026Z" fill="#18202A"/>
<path fill-rule="evenodd" clip-rule="evenodd" d="M17.2976 1.05012C17.685 0.768985 18.17 0.687815 18.6328 0.751306C20.1348 0.957357 21.3279 1.54161 22.1427 2.47898C22.9569 3.41557 23.3333 4.63552 23.3333 6.00014C23.3333 6.99874 23.2102 7.714 23.0573 8.25345C22.9989 8.45973 23.0468 8.55443 23.0653 8.58026C23.0791 8.59958 23.1366 8.66681 23.3333 8.66681H28C29.8409 8.66681 31.3333 10.1592 31.3333 12.0001V12.3717C31.3333 16.615 30.3454 20.8001 28.4477 24.5955L28.3685 24.7538C27.578 26.3348 25.9621 27.3335 24.1945 27.3335H13.4285C12.324 27.3335 11.4285 26.438 11.4285 25.3335L11.4285 13.3335C11.4285 12.209 12.3444 11.4409 13.0908 11.083C13.6485 10.8156 14.215 10.3483 14.7463 9.75009C16.3739 7.91768 16.6667 5.07316 16.6667 2.33768C16.6667 1.80464 16.8936 1.34334 17.2976 1.05012ZM18.0274 2.19182C18.015 2.21706 18 2.26229 18 2.33768C18 5.05852 17.7391 8.38843 15.7432 10.6355C15.1402 11.3145 14.4372 11.9161 13.6673 12.2853C13.0857 12.5641 12.7619 12.9852 12.7619 13.3335L12.7619 25.3335C12.7619 25.7017 13.0604 26.0001 13.4285 26.0001H24.1945C25.4571 26.0001 26.6113 25.2868 27.1759 24.1575L27.2551 23.9992C29.0602 20.389 30 16.408 30 12.3717V12.0001C30 10.8956 29.1046 10.0001 28 10.0001H23.3333C22.7937 10.0001 22.2921 9.79076 21.9811 9.35633C21.6748 8.92841 21.6322 8.39224 21.7745 7.89003C21.8917 7.47623 22 6.88381 22 6.00014C22 4.88045 21.6944 3.99557 21.1365 3.35373C20.5792 2.71268 19.7101 2.24491 18.4516 2.07227C18.2514 2.0448 18.1321 2.09197 18.0807 2.12922C18.0562 2.14702 18.0395 2.16706 18.0274 2.19182Z" fill="#18202A"/>
</svg>
