<svg width="32" height="32" viewBox="0 0 32 32" fill="none" xmlns="http://www.w3.org/2000/svg">
<path fill-rule="evenodd" clip-rule="evenodd" d="M6.66667 5.33301C7.40305 5.33301 8 5.92996 8 6.66634V10.6663C8 14.3482 10.9848 17.333 14.6667 17.333H23.4477L19.0572 12.9425C18.5365 12.4218 18.5365 11.5776 19.0572 11.0569C19.5779 10.5362 20.4221 10.5362 20.9428 11.0569L27.6095 17.7235C28.1302 18.2442 28.1302 19.0885 27.6095 19.6091L20.9428 26.2758C20.4221 26.7965 19.5779 26.7965 19.0572 26.2758C18.5365 25.7551 18.5365 24.9109 19.0572 24.3902L23.4477 19.9997H14.6667C9.51201 19.9997 5.33334 15.821 5.33334 10.6663V6.66634C5.33334 5.92996 5.93029 5.33301 6.66667 5.33301Z" fill="#18202A"/>
</svg>
