<svg width="32" height="32" viewBox="0 0 32 32" fill="none" xmlns="http://www.w3.org/2000/svg">
<path fill-rule="evenodd" clip-rule="evenodd" d="M27.3137 4.68665C24.1895 1.56246 19.1242 1.56246 16 4.68665L13.1716 7.51508C12.6509 8.03578 12.6509 8.88 13.1716 9.4007C13.6923 9.9214 14.5365 9.9214 15.0572 9.4007L17.8856 6.57227C19.9684 4.48947 23.3453 4.48947 25.4281 6.57227C27.5109 8.65507 27.5109 12.0319 25.4281 14.1147L22.5997 16.9432C22.079 17.4639 22.079 18.3081 22.5997 18.8288C23.1204 19.3495 23.9646 19.3495 24.4853 18.8288L27.3137 16.0004C30.4379 12.8762 30.4379 7.81085 27.3137 4.68665ZM4.68629 27.313C1.56209 24.1888 1.56209 19.1234 4.68629 15.9992L7.51471 13.1708C8.03541 12.6501 8.87963 12.6501 9.40033 13.1708C9.92103 13.6915 9.92103 14.5357 9.40033 15.0564L6.5719 17.8849C4.48911 19.9677 4.48911 23.3445 6.5719 25.4273C8.6547 27.5101 12.0316 27.5101 14.1144 25.4273L16.9428 22.5989C17.4635 22.0782 18.3077 22.0782 18.8284 22.5989C19.3491 23.1196 19.3491 23.9638 18.8284 24.4845L16 27.313C12.8758 30.4371 7.81048 30.4371 4.68629 27.313ZM9.40034 20.7133C8.87964 21.234 8.87964 22.0782 9.40034 22.5989C9.92104 23.1196 10.7653 23.1196 11.286 22.5989L22.5997 11.2852C23.1204 10.7645 23.1204 9.92028 22.5997 9.39958C22.079 8.87888 21.2347 8.87888 20.714 9.39958L9.40034 20.7133Z" fill="#18202A"/>
</svg>
