<svg width="32" height="32" viewBox="0 0 32 32" fill="none" xmlns="http://www.w3.org/2000/svg">
<path d="M17 6.33325C16.4477 6.33325 16 5.88554 16 5.33325C16 4.78097 16.4477 4.33325 17 4.33325H26.6666C27.2189 4.33325 27.6666 4.78097 27.6666 5.33325V14.9999C27.6666 15.5522 27.2189 15.9999 26.6666 15.9999C26.1144 15.9999 25.6666 15.5522 25.6666 14.9999V7.74747L19.3738 14.0404C18.9832 14.4309 18.3501 14.4309 17.9595 14.0404C17.569 13.6498 17.569 13.0167 17.9595 12.6261L24.2524 6.33325H17Z" fill="#18202A"/>
<path d="M16 26.6666C16 27.2189 15.5523 27.6666 15 27.6666H5.33331C4.78103 27.6666 4.33331 27.2189 4.33331 26.6666V16.9999C4.33331 16.4476 4.78103 15.9999 5.33332 15.9999C5.8856 15.9999 6.33331 16.4476 6.33331 16.9999L6.33331 24.2524L12.6262 17.9595C13.0167 17.569 13.6499 17.569 14.0404 17.9595C14.4309 18.35 14.4309 18.9832 14.0404 19.3737L7.74753 25.6666H15C15.5523 25.6666 16 26.1143 16 26.6666Z" fill="#18202A"/>
</svg>
