<svg width="32" height="32" viewBox="0 0 32 32" fill="none" xmlns="http://www.w3.org/2000/svg">
<path fill-rule="evenodd" clip-rule="evenodd" d="M17.3333 4.66699H14.6666C14.2985 4.66699 14 4.96547 14 5.33366V26.667C14 27.0352 14.2985 27.3337 14.6666 27.3337H17.3333C17.7015 27.3337 18 27.0352 18 26.667V5.33366C18 4.96547 17.7015 4.66699 17.3333 4.66699ZM14.6666 2.66699C13.1939 2.66699 12 3.8609 12 5.33366V26.667C12 28.1398 13.1939 29.3337 14.6666 29.3337H17.3333C18.8061 29.3337 20 28.1397 20 26.667V5.33366C20 3.8609 18.8061 2.66699 17.3333 2.66699H14.6666ZM6.66665 15.3337H3.99998C3.63179 15.3337 3.33331 15.6321 3.33331 16.0003V26.667C3.33331 27.0352 3.63179 27.3337 3.99998 27.3337H6.66665C7.03484 27.3337 7.33331 27.0352 7.33331 26.667V16.0003C7.33331 15.6321 7.03484 15.3337 6.66665 15.3337ZM3.99998 13.3337C2.52722 13.3337 1.33331 14.5276 1.33331 16.0003V26.667C1.33331 28.1398 2.52722 29.3337 3.99998 29.3337H6.66665C8.13941 29.3337 9.33331 28.1398 9.33331 26.667V16.0003C9.33331 14.5276 8.13941 13.3337 6.66665 13.3337H3.99998ZM25.3333 10.0003H28C28.3682 10.0003 28.6666 10.2988 28.6666 10.667V26.667C28.6666 27.0352 28.3682 27.3337 28 27.3337H25.3333C24.9651 27.3337 24.6666 27.0352 24.6666 26.667V10.667C24.6666 10.2988 24.9651 10.0003 25.3333 10.0003ZM22.6666 10.667C22.6666 9.19423 23.8606 8.00033 25.3333 8.00033H28C29.4727 8.00033 30.6666 9.19423 30.6666 10.667V26.667C30.6666 28.1398 29.4727 29.3337 28 29.3337H25.3333C23.8606 29.3337 22.6666 28.1398 22.6666 26.667V10.667Z" fill="#18202A"/>
</svg>
