<svg width="32" height="32" viewBox="0 0 32 32" fill="none" xmlns="http://www.w3.org/2000/svg">
<g clip-path="url(#clip0_2293_22404)">
<path fill-rule="evenodd" clip-rule="evenodd" d="M7.99998 2.33334C7.99998 1.78106 8.4477 1.33334 8.99998 1.33334C9.55226 1.33334 9.99998 1.78106 9.99998 2.33334V4.00001H22V2.33334C22 1.78106 22.4477 1.33334 23 1.33334C23.5523 1.33334 24 1.78106 24 2.33334V4.00001H25.3333C28.2788 4.00001 30.6666 6.38783 30.6666 9.33334V15.1797C30.0441 14.7553 29.3742 14.3952 28.6666 14.1088V9.33334C28.6666 7.49239 27.1743 6.00001 25.3333 6.00001H24V8.33334C24 8.88563 23.5523 9.33334 23 9.33334C22.4477 9.33334 22 8.88563 22 8.33334V6.00001H9.99998V8.33334C9.99998 8.88563 9.55226 9.33334 8.99998 9.33334C8.4477 9.33334 7.99998 8.88563 7.99998 8.33334V6.00001H6.66665C4.8257 6.00001 3.33331 7.49239 3.33331 9.33334V25.3333C3.33331 27.1743 4.8257 28.6667 6.66665 28.6667H15.0723C15.4207 29.3818 15.8467 30.0521 16.3394 30.6667H6.66665C3.72113 30.6667 1.33331 28.2789 1.33331 25.3333V9.33334C1.33331 6.38783 3.72113 4.00001 6.66665 4.00001H7.99998V2.33334ZM13.3333 22.6667C13.6005 22.6667 13.8494 22.7453 14.058 22.8806C14.0197 23.2485 14 23.622 14 24.0001C14 24.3781 14.0196 24.7515 14.058 25.1194C13.8494 25.2547 13.6005 25.3333 13.3333 25.3333C12.5969 25.3333 12 24.7364 12 24C12 23.2636 12.5969 22.6667 13.3333 22.6667ZM6.66665 13C6.66665 12.4477 7.11436 12 7.66665 12H24.3333C24.8856 12 25.3333 12.4477 25.3333 13C25.3333 13.5523 24.8856 14 24.3333 14H7.66665C7.11436 14 6.66665 13.5523 6.66665 13ZM7.99998 17.3333C7.2636 17.3333 6.66665 17.9303 6.66665 18.6667C6.66665 19.4031 7.2636 20 7.99998 20C8.73636 20 9.33331 19.4031 9.33331 18.6667C9.33331 17.9303 8.73636 17.3333 7.99998 17.3333ZM6.66665 24C6.66665 23.2636 7.2636 22.6667 7.99998 22.6667C8.73636 22.6667 9.33331 23.2636 9.33331 24C9.33331 24.7364 8.73636 25.3333 7.99998 25.3333C7.2636 25.3333 6.66665 24.7364 6.66665 24ZM13.3333 17.3333C12.5969 17.3333 12 17.9303 12 18.6667C12 19.4031 12.5969 20 13.3333 20C14.0697 20 14.6666 19.4031 14.6666 18.6667C14.6666 17.9303 14.0697 17.3333 13.3333 17.3333ZM23.5778 16C23.0953 16 22.6817 16.3445 22.5943 16.819L22.4115 17.812C21.6115 18.0884 20.8819 18.5156 20.2565 19.0596L19.3015 18.7201C18.8469 18.5585 18.3417 18.7445 18.1005 19.1623L17.1332 20.8377C16.892 21.2555 16.9835 21.786 17.3507 22.0989L18.1228 22.7567C18.0453 23.1592 18.0048 23.5749 18.0048 24C18.0048 24.4252 18.0454 24.8408 18.1228 25.2434L17.3507 25.9011C16.9835 26.214 16.892 26.7445 17.1333 27.1623L18.1005 28.8377C18.3418 29.2555 18.8469 29.4416 19.3015 29.28L20.2565 28.9405C20.8819 29.4844 21.6115 29.9116 22.4115 30.1881L22.5943 31.1811C22.6817 31.6555 23.0953 32 23.5778 32H25.5124C25.9948 32 26.4085 31.6555 26.4958 31.1811L26.6779 30.1919C27.4809 29.916 28.2134 29.4883 28.841 28.9431L29.7887 29.28C30.2433 29.4416 30.7484 29.2555 30.9896 28.8377L31.9569 27.1623C32.1982 26.7445 32.1067 26.214 31.7394 25.9011L30.9763 25.251C31.0547 24.8461 31.0957 24.4278 31.0957 24C31.0957 23.5722 31.0547 23.154 30.9763 22.7491L31.7394 22.0989C32.1067 21.786 32.1982 21.2555 31.9569 20.8377L30.9897 19.1623C30.7484 18.7445 30.2433 18.5585 29.7887 18.7201L28.841 19.057C28.2134 18.5117 27.481 18.084 26.6779 17.8081L26.4958 16.819C26.4085 16.3445 25.9948 16 25.5124 16H23.5778ZM24.5442 26.6667C26.017 26.6667 27.2109 25.4728 27.2109 24C27.2109 22.5273 26.017 21.3333 24.5442 21.3333C23.0715 21.3333 21.8775 22.5273 21.8775 24C21.8775 25.4728 23.0715 26.6667 24.5442 26.6667Z" fill="#18202A"/>
</g>
<defs>
<clipPath id="clip0_2293_22404">
<rect width="32" height="32" fill="white"/>
</clipPath>
</defs>
</svg>
