<svg width="32" height="32" viewBox="0 0 32 32" fill="none" xmlns="http://www.w3.org/2000/svg">
<path fill-rule="evenodd" clip-rule="evenodd" d="M26.7843 22.6485C25.4924 23.0924 24.1068 23.3334 22.6666 23.3334C15.671 23.3334 9.99998 17.6624 9.99998 10.6668C9.99998 8.22832 10.6903 5.94928 11.8845 4.01656C6.90968 5.72463 3.33331 10.4456 3.33331 16.0001C3.33331 22.9957 9.00437 28.6668 16 28.6668C20.5553 28.6668 24.5521 26.2611 26.7843 22.6485ZM28.0658 19.8681C26.4821 20.7993 24.6367 21.3334 22.6666 21.3334C16.7756 21.3334 12 16.5578 12 10.6668C12 7.71211 13.2013 5.03804 15.1422 3.10635C15.7366 2.51469 15.396 1.36264 14.5583 1.4034C7.13476 2.12769 1.33331 8.3864 1.33331 16.0001C1.33331 24.1003 7.8998 30.6668 16 30.6668C22.2739 30.6668 27.6278 26.7274 29.723 21.1872C29.7232 21.1866 29.7235 21.1859 29.7238 21.1852C29.7319 21.1638 29.7399 21.1424 29.7479 21.1209C29.8466 20.8561 29.9378 20.5877 30.0214 20.3159C30.2508 19.5696 29.2942 19.0615 28.648 19.4999C28.5124 19.5919 28.3746 19.6808 28.2346 19.7666C28.1824 19.7987 28.1299 19.8302 28.0771 19.8614C28.0733 19.8636 28.0696 19.8658 28.0658 19.8681Z" fill="#18202A"/>
</svg>
