<svg width="32" height="32" viewBox="0 0 32 32" fill="none" xmlns="http://www.w3.org/2000/svg">
<path fill-rule="evenodd" clip-rule="evenodd" d="M1.33333 16C1.33333 24.1002 7.89982 30.6667 16 30.6667C24.1002 30.6667 30.6667 24.1002 30.6667 16C30.6667 7.89987 24.1002 1.33337 16 1.33337C7.89982 1.33337 1.33333 7.89986 1.33333 16ZM22.2761 15.6095C22.7968 15.0888 22.7968 14.2446 22.2761 13.7239C21.7554 13.2032 20.9112 13.2032 20.3905 13.7239L16 18.1144L11.6095 13.7239C11.0888 13.2032 10.2446 13.2032 9.72385 13.7239C9.20315 14.2446 9.20315 15.0888 9.72385 15.6095L15.0572 20.9429C15.5779 21.4636 16.4221 21.4636 16.9428 20.9429L22.2761 15.6095Z" fill="#18202A"/>
</svg>
