<svg width="32" height="32" viewBox="0 0 32 32" fill="none" xmlns="http://www.w3.org/2000/svg">
<g clip-path="url(#clip0_3737_8818)">
<path fill-rule="evenodd" clip-rule="evenodd" d="M16 0C16.7364 0 17.3334 0.596954 17.3334 1.33333V2.72646C19.4858 2.92043 21.5042 3.57943 23.2873 4.60224L24.8323 3.05719C25.353 2.53649 26.1972 2.53649 26.7179 3.05719C27.2386 3.57789 27.2386 4.42211 26.7179 4.94281L25.501 6.15968C28.6618 8.8499 30.6667 12.8575 30.6667 17.3333C30.6667 25.4335 24.1002 32 16 32C7.89986 32 1.33337 25.4335 1.33337 17.3333C1.33337 9.68261 7.19137 3.4001 14.6667 2.72646V1.33333C14.6667 0.596954 15.2637 0 16 0ZM16 6.66667C16.7364 6.66667 17.3334 7.26362 17.3334 8V16H24C24.7364 16 25.3334 16.597 25.3334 17.3333C25.3334 18.0697 24.7364 18.6667 24 18.6667H16C15.2637 18.6667 14.6667 18.0697 14.6667 17.3333V8C14.6667 7.26362 15.2637 6.66667 16 6.66667Z" fill="#18202A"/>
</g>
<defs>
<clipPath id="clip0_3737_8818">
<rect width="32" height="32" fill="white"/>
</clipPath>
</defs>
</svg>
