<svg width="32" height="32" viewBox="0 0 32 32" fill="none" xmlns="http://www.w3.org/2000/svg">
<g clip-path="url(#clip0_3916_8790)">
<path d="M22.3737 17.7475C22.5613 17.5599 22.6666 17.3056 22.6666 17.0404C22.6666 16.7751 22.5613 16.5208 22.3737 16.3333L18.7071 12.6666C18.3166 12.2761 17.6834 12.2761 17.2929 12.6666C16.9023 13.0571 16.9023 13.6903 17.2929 14.0808L19.2118 15.9998L10.3333 15.9998C9.78103 15.9998 9.33331 16.4475 9.33331 16.9998C9.33331 17.5521 9.78103 17.9998 10.3333 17.9998L19.293 17.9998L17.2929 19.9999C16.9023 20.3904 16.9023 21.0236 17.2929 21.4141C17.6834 21.8047 18.3166 21.8047 18.7071 21.4141L22.3737 17.7475Z" fill="#18202A"/>
<path fill-rule="evenodd" clip-rule="evenodd" d="M6.66665 4C3.72113 4 1.33331 6.38781 1.33331 9.33333V22.6667C1.33331 25.6122 3.72113 28 6.66665 28H25.3333C28.2788 28 30.6666 25.6122 30.6666 22.6667V12C30.6666 9.05448 28.2788 6.66667 25.3333 6.66667H16L14.5049 5.17157C13.7547 4.42143 12.7373 4 11.6765 4H6.66665ZM15.1716 8.66667L13.0907 6.58579C12.7156 6.21071 12.2069 6 11.6765 6H6.66665C4.8257 6 3.33331 7.49238 3.33331 9.33333V22.6667C3.33331 24.5076 4.8257 26 6.66665 26H25.3333C27.1743 26 28.6666 24.5076 28.6666 22.6667V12C28.6666 10.1591 27.1743 8.66667 25.3333 8.66667H15.1716Z" fill="#18202A"/>
</g>
<defs>
<clipPath id="clip0_3916_8790">
<rect width="32" height="32" fill="white"/>
</clipPath>
</defs>
</svg>
