<svg width="32" height="32" viewBox="0 0 32 32" fill="none" xmlns="http://www.w3.org/2000/svg">
<path fill-rule="evenodd" clip-rule="evenodd" d="M17.5058 5.06036C17.5055 5.06064 17.5052 5.06092 17.5049 5.0612L6.83476 15.7837L6.83303 15.7854C3.98014 18.6383 3.98014 23.3411 6.83303 26.194C9.68593 29.0469 14.3887 29.0469 17.2416 26.194L27.5996 15.836C27.9902 15.4454 28.6233 15.4454 29.0138 15.836C29.4044 16.2265 29.4044 16.8597 29.0138 17.2502L18.6558 27.6082C15.0219 31.2421 9.05276 31.2421 5.41882 27.6082C1.7852 23.9746 1.78487 18.0062 5.41784 14.3722C5.41817 14.3719 5.41849 14.3715 5.41882 14.3712L16.089 3.64872L16.0907 3.64699C18.7307 1.00699 23.0258 1.00699 25.6658 3.64699C28.3058 6.28698 28.3058 10.5821 25.6658 13.2221L25.6639 13.2239L15.674 23.1616C15.6736 23.162 15.6731 23.1624 15.6727 23.1628C14.0708 24.7634 11.4618 24.7418 9.82833 23.1765L9.81313 23.1616C8.2113 21.5598 8.23246 18.9498 9.79825 17.3159L9.81506 17.2988L19.4407 7.72549C19.8323 7.33604 20.4654 7.33776 20.8549 7.72935C21.2444 8.12093 21.2426 8.7541 20.851 9.14356L11.2347 18.7077C10.4043 19.5824 10.425 20.9368 11.2199 21.7399C12.0973 22.573 13.4575 22.5496 14.2598 21.7474L14.2616 21.7455L24.2516 11.8078C24.2519 11.8075 24.2522 11.8072 24.2525 11.8069C26.1105 9.94787 26.1102 6.91983 24.2516 5.0612C22.3929 3.20254 19.3648 3.20226 17.5058 5.06036Z" fill="#18202A"/>
</svg>
