<svg width="32" height="32" viewBox="0 0 32 32" fill="none" xmlns="http://www.w3.org/2000/svg">
<path d="M7.99998 1.3335C4.31808 1.3335 1.33331 4.31827 1.33331 8.00016V24.0002C1.33331 27.6821 4.31808 30.6668 7.99998 30.6668H18.5015C18.027 30.0598 17.6316 29.388 17.3309 28.6668H7.99998C5.42265 28.6668 3.33331 26.5775 3.33331 24.0002V8.00016C3.33331 5.42283 5.42265 3.3335 7.99998 3.3335H24C26.5773 3.3335 28.6666 5.42283 28.6666 8.00016V17.331C29.3878 17.6318 30.0597 18.0272 30.6666 18.5017V8.00016C30.6666 4.31826 27.6819 1.3335 24 1.3335H7.99998Z" fill="#18202A"/>
<path d="M9.33331 8.66683V6.00016H6.66665V8.66683H9.33331Z" fill="#18202A"/>
<path fill-rule="evenodd" clip-rule="evenodd" d="M12 12.5927C12 11.6258 13.045 11.0286 13.8664 11.526L19.4816 14.9268C20.2794 15.41 20.2794 16.577 19.4816 17.0602L13.8664 20.461C13.045 20.9585 12 20.3612 12 19.3943V12.5927ZM14 13.9451V18.0419L17.3822 15.9935L14 13.9451Z" fill="#18202A"/>
<path d="M9.33331 26.0002V23.3335H6.66665V26.0002H9.33331Z" fill="#18202A"/>
<path d="M14.6666 6.00016H12V8.66683H14.6666V6.00016Z" fill="#18202A"/>
<path d="M14.6666 23.3335H12V26.0002H14.6666V23.3335Z" fill="#18202A"/>
<path d="M20 6.00016H17.3333V8.66683H20V6.00016Z" fill="#18202A"/>
<path d="M25.3333 8.66683V6.00016H22.6666V8.66683H25.3333Z" fill="#18202A"/>
<path fill-rule="evenodd" clip-rule="evenodd" d="M25.3333 32.0002C29.0152 32.0002 32 29.0154 32 25.3335C32 21.6516 29.0152 18.6668 25.3333 18.6668C21.6514 18.6668 18.6666 21.6516 18.6666 25.3335C18.6666 29.0154 21.6514 32.0002 25.3333 32.0002ZM26.3333 22.3335C26.3333 21.7812 25.8856 21.3335 25.3333 21.3335C24.781 21.3335 24.3333 21.7812 24.3333 22.3335V24.3335H22.3333C21.781 24.3335 21.3333 24.7812 21.3333 25.3335C21.3333 25.8858 21.781 26.3335 22.3333 26.3335H24.3333V28.3335C24.3333 28.8858 24.781 29.3335 25.3333 29.3335C25.8856 29.3335 26.3333 28.8858 26.3333 28.3335V26.3335H28.3333C28.8856 26.3335 29.3333 25.8858 29.3333 25.3335C29.3333 24.7812 28.8856 24.3335 28.3333 24.3335H26.3333V22.3335Z" fill="#18202A"/>
</svg>
