<svg width="32" height="32" viewBox="0 0 32 32" fill="none" xmlns="http://www.w3.org/2000/svg">
<path d="M18.6667 15.9999C18.6667 17.4727 17.4728 18.6666 16 18.6666C14.5273 18.6666 13.3334 17.4727 13.3334 15.9999C13.3334 14.5272 14.5273 13.3333 16 13.3333C17.4728 13.3333 18.6667 14.5272 18.6667 15.9999Z" fill="#18202A"/>
<path fill-rule="evenodd" clip-rule="evenodd" d="M1.76319 14.6858C1.20172 15.4798 1.20172 16.5201 1.76319 17.3141C3.77961 20.1656 9.13001 26.6666 16 26.6666C22.87 26.6666 28.2204 20.1656 30.2369 17.3141C30.7983 16.5201 30.7983 15.4798 30.2369 14.6858C28.2204 11.8342 22.87 5.33325 16 5.33325C9.13001 5.33325 3.77961 11.8342 1.76319 14.6858ZM16 21.3333C18.9455 21.3333 21.3334 18.9454 21.3334 15.9999C21.3334 13.0544 18.9455 10.6666 16 10.6666C13.0545 10.6666 10.6667 13.0544 10.6667 15.9999C10.6667 18.9454 13.0545 21.3333 16 21.3333Z" fill="#18202A"/>
</svg>
