<svg width="32" height="32" viewBox="0 0 32 32" fill="none" xmlns="http://www.w3.org/2000/svg">
<path d="M4.66669 6.33325C4.66669 5.78097 4.21897 5.33325 3.66669 5.33325C3.1144 5.33325 2.66669 5.78097 2.66669 6.33325V25.6666C2.66669 26.2189 3.1144 26.6666 3.66669 26.6666C4.21897 26.6666 4.66669 26.2189 4.66669 25.6666V16.6666L16.6667 16.6666V25.6666C16.6667 26.2189 17.1144 26.6666 17.6667 26.6666C18.219 26.6666 18.6667 26.2189 18.6667 25.6666V6.33325C18.6667 5.78097 18.219 5.33325 17.6667 5.33325C17.1144 5.33325 16.6667 5.78097 16.6667 6.33325V14.6666L4.66669 14.6666V6.33325Z" fill="#18202A"/>
<path d="M23.3334 17.9999C23.3334 17.6323 23.802 16.6666 25.3334 16.6666C26.1005 16.6666 26.5855 16.9162 26.8763 17.207C27.1765 17.5072 27.3334 17.9139 27.3334 18.3333C27.3334 18.921 27.1724 19.2941 26.8741 19.6819C26.6296 19.9997 26.3373 20.2804 25.946 20.656C25.7542 20.8402 25.5385 21.0473 25.2929 21.2928L21.6263 24.9595C21.3403 25.2455 21.2547 25.6756 21.4095 26.0493C21.5643 26.4229 21.9289 26.6666 22.3334 26.6666H28.3334C28.8857 26.6666 29.3334 26.2189 29.3334 25.6666C29.3334 25.1143 28.8857 24.6666 28.3334 24.6666H24.7476L26.7072 22.707C26.8684 22.5458 27.0379 22.3829 27.2086 22.2188C27.6595 21.7853 28.1192 21.3435 28.4593 20.9013C28.9943 20.2058 29.3334 19.4122 29.3334 18.3333C29.3334 17.4192 28.9903 16.4926 28.2905 15.7928C27.5813 15.0836 26.5663 14.6666 25.3334 14.6666C22.8648 14.6666 21.3334 16.3675 21.3334 17.9999C21.3334 18.5522 21.7811 18.9999 22.3334 18.9999C22.8857 18.9999 23.3334 18.5522 23.3334 17.9999Z" fill="#18202A"/>
</svg>
