<svg width="32" height="32" viewBox="0 0 32 32" fill="none" xmlns="http://www.w3.org/2000/svg">
<path fill-rule="evenodd" clip-rule="evenodd" d="M5.33333 4C2.38781 4 0 6.38781 0 9.33333V22.6667C0 25.6122 2.38781 28 5.33333 28H18.6667C21.6122 28 24 25.6122 24 22.6667V9.33333C24 6.38781 21.6122 4 18.6667 4H5.33333ZM10.6256 11.6513L15.2567 14.9085C16.012 15.4397 16.0117 16.5593 15.2561 17.0901L10.625 20.3438C9.74152 20.9645 8.52519 20.3325 8.52519 19.2528L8.52519 12.7419C8.52519 11.6619 9.74215 11.03 10.6256 11.6513Z" fill="#18202A"/>
<path d="M25.8876 11.0676C25.5396 11.3182 25.3333 11.7208 25.3333 12.1496V19.8504C25.3333 20.2792 25.5396 20.6818 25.8876 20.9324L29.8876 23.8124C30.7696 24.4474 32 23.8172 32 22.7304V9.26965C32 8.18285 30.7696 7.55258 29.8876 8.1876L25.8876 11.0676Z" fill="#18202A"/>
</svg>
