<svg width="32" height="32" viewBox="0 0 32 32" fill="none" xmlns="http://www.w3.org/2000/svg">
<path fill-rule="evenodd" clip-rule="evenodd" d="M15.6029 7.46667C15.803 7.69819 16.198 7.69819 16.397 7.46667C17.936 5.67943 20.1988 4 22.6042 4C27.0503 4 30.6666 7.48438 30.6666 11.766C30.6666 14.2017 29.3749 16.1042 28.2917 17.2712C27.1692 18.4798 25.1284 20.7928 23.009 23.1949C21.4923 24.9137 19.9352 26.6785 18.645 28.1175C17.198 29.7313 14.802 29.7313 13.355 28.1175C12.0646 26.6783 10.5072 24.9133 8.9904 23.1942C6.87101 20.7921 4.83073 18.4797 3.70827 17.2712C2.62503 16.1042 1.33331 14.2017 1.33331 11.766C1.33331 7.48438 4.94969 4 9.39579 4C11.8011 4 14.064 5.67943 15.6029 7.46667ZM26.8258 15.9106C27.7504 14.9145 28.6666 13.479 28.6666 11.766C28.6666 8.65875 26.0168 6 22.6042 6C21.0777 6 19.3212 7.13577 17.9126 8.77168C16.9132 9.93267 15.0851 9.92611 14.0897 8.77444L14.0874 8.77169C12.6787 7.13576 10.9223 6 9.39579 6C5.98314 6 3.33331 8.65875 3.33331 11.766C3.33331 13.4787 4.24928 14.9141 5.17368 15.9102C6.30785 17.1313 8.38783 19.4884 10.5279 21.9136C12.0405 23.6279 13.5834 25.3764 14.8441 26.7824C15.4962 27.5097 16.5037 27.5097 17.1559 26.7824C18.4165 25.3764 19.9593 23.628 21.4719 21.9139C23.6117 19.4889 25.6918 17.1316 26.8258 15.9106Z" fill="#18202A"/>
</svg>
