<svg width="32" height="32" viewBox="0 0 32 32" fill="none" xmlns="http://www.w3.org/2000/svg">
<path fill-rule="evenodd" clip-rule="evenodd" d="M26 25.333V13.1042C26 12.9274 25.9298 12.7579 25.8047 12.6328L16.7002 3.52827C16.5751 3.40325 16.4056 3.33301 16.2288 3.33301H9.33333C7.49238 3.33301 6 4.82539 6 6.66634V25.333C6 27.174 7.49238 28.6663 9.33333 28.6663H22.6667C24.5076 28.6663 26 27.174 26 25.333ZM9.33333 1.33301C6.38781 1.33301 4 3.72082 4 6.66634V25.333C4 28.2785 6.38781 30.6663 9.33333 30.6663H22.6667C25.6122 30.6663 28 28.2785 28 25.333V13.1042C28 12.397 27.7191 11.7187 27.219 11.2186L18.1144 2.11406C17.6143 1.61396 16.936 1.33301 16.2288 1.33301H9.33333Z" fill="#18202A"/>
<path d="M14.6667 1.33301H16.6667V14.6663H14.6667V1.33301Z" fill="#18202A"/>
<path d="M14.6667 12.6663H28V14.6663H14.6667V12.6663Z" fill="#18202A"/>
</svg>
