<svg width="32" height="32" viewBox="0 0 32 32" fill="none" xmlns="http://www.w3.org/2000/svg">
<g clip-path="url(#clip0_3289_16953)">
<path d="M8.66663 2C9.40301 2 9.99996 2.59695 9.99996 3.33333V6.66667H13.3359C14.0723 6.66667 14.6692 7.26362 14.6692 8C14.6692 8.73638 14.0723 9.33333 13.3359 9.33333H9.99996V12.6667C9.99996 13.403 9.40301 14 8.66663 14C7.93025 14 7.33329 13.403 7.33329 12.6667V9.33333H4.00256C3.26618 9.33333 2.66923 8.73638 2.66923 8C2.66923 7.26362 3.26618 6.66667 4.00256 6.66667H7.33329V3.33333C7.33329 2.59695 7.93025 2 8.66663 2ZM18.664 6.66667C17.9276 6.66667 17.3307 7.26362 17.3307 8C17.3307 8.73638 17.9276 9.33333 18.664 9.33333H27.9974C28.7337 9.33333 29.3307 8.73638 29.3307 8C29.3307 7.26362 28.7337 6.66667 27.9974 6.66667H18.664ZM17.3333 23.3333C17.3333 22.597 17.9302 22 18.6666 22H28C28.7363 22 29.3333 22.597 29.3333 23.3333C29.3333 24.0697 28.7363 24.6667 28 24.6667H18.6666C17.9302 24.6667 17.3333 24.0697 17.3333 23.3333ZM23.3333 20.6667C24.2538 20.6667 25 19.9205 25 19C25 18.0795 24.2538 17.3333 23.3333 17.3333C22.4128 17.3333 21.6666 18.0795 21.6666 19C21.6666 19.9205 22.4128 20.6667 23.3333 20.6667ZM25 27.6667C25 28.5871 24.2538 29.3333 23.3333 29.3333C22.4128 29.3333 21.6666 28.5871 21.6666 27.6667C21.6666 26.7462 22.4128 26 23.3333 26C24.2538 26 25 26.7462 25 27.6667ZM3.05715 17.7239C3.57785 17.2032 4.42207 17.2032 4.94277 17.7239L8.66664 21.4477L12.3905 17.7239C12.9112 17.2032 13.7554 17.2032 14.2761 17.7239C14.7968 18.2446 14.7968 19.0888 14.2761 19.6095L10.5523 23.3333L14.2761 27.0572C14.7968 27.5779 14.7968 28.4221 14.2761 28.9428C13.7554 29.4635 12.9112 29.4635 12.3905 28.9428L8.66664 25.219L4.94279 28.9428C4.42209 29.4635 3.57787 29.4635 3.05717 28.9428C2.53647 28.4221 2.53647 27.5779 3.05717 27.0572L6.78102 23.3333L3.05715 19.6095C2.53645 19.0888 2.53645 18.2446 3.05715 17.7239Z" fill="#18202A"/>
</g>
<defs>
<clipPath id="clip0_3289_16953">
<rect width="32" height="32" fill="white"/>
</clipPath>
</defs>
</svg>
