<svg width="32" height="32" viewBox="0 0 32 32" fill="none" xmlns="http://www.w3.org/2000/svg">
<path d="M13 4C9.03428 4 6.66669 7.19807 6.66669 10.3333C6.66669 11.1246 6.81748 11.9198 7.1067 12.6667H9.32334C8.89543 11.9702 8.66669 11.1561 8.66669 10.3333C8.66669 8.13527 10.2991 6 13 6H18.6667C21.5773 6 23.3334 8.00687 23.3334 9.66667C23.3334 10.219 23.7811 10.6667 24.3334 10.6667C24.8856 10.6667 25.3334 10.219 25.3334 9.66667C25.3334 6.6598 22.4227 4 18.6667 4H13Z" fill="#18202A"/>
<path d="M2.66669 15.6667C2.66669 15.1144 3.1144 14.6667 3.66669 14.6667H28.3334C28.8856 14.6667 29.3334 15.1144 29.3334 15.6667C29.3334 16.219 28.8856 16.6667 28.3334 16.6667H24.7639C26.0506 17.8706 26.6667 19.5104 26.6667 21.3333C26.6667 23.2467 25.988 24.9584 24.5675 26.1759C23.1654 27.3777 21.1562 28 18.6667 28H12C8.04054 28 5.33335 24.4754 5.33335 21.3333C5.33335 20.781 5.78107 20.3333 6.33335 20.3333C6.88564 20.3333 7.33335 20.781 7.33335 21.3333C7.33335 23.5246 9.29283 26 12 26H18.6667C20.8439 26 22.3346 25.4557 23.2659 24.6574C24.1787 23.875 24.6667 22.7533 24.6667 21.3333C24.6667 19.9134 24.1787 18.7917 23.2659 18.0093C22.3346 17.211 20.8439 16.6667 18.6667 16.6667H3.66669C3.1144 16.6667 2.66669 16.219 2.66669 15.6667Z" fill="#18202A"/>
</svg>
