<svg width="32" height="32" viewBox="0 0 32 32" fill="none" xmlns="http://www.w3.org/2000/svg">
<path fill-rule="evenodd" clip-rule="evenodd" d="M16 28.0002C22.6274 28.0002 28 22.6276 28 16.0002C28 9.37275 22.6274 4.00016 16 4.00016C9.37258 4.00016 3.99999 9.37275 3.99999 16.0002C3.99999 22.6276 9.37258 28.0002 16 28.0002ZM16 30.6668C24.1002 30.6668 30.6667 24.1003 30.6667 16.0002C30.6667 7.89999 24.1002 1.3335 16 1.3335C7.89982 1.3335 1.33333 7.89999 1.33333 16.0002C1.33333 24.1003 7.89982 30.6668 16 30.6668Z" fill="#18202A"/>
<path fill-rule="evenodd" clip-rule="evenodd" d="M15.4037 1.47426C15.7791 1.28657 16.2209 1.28657 16.5963 1.47426C21.8466 4.09941 24.3333 9.82842 24.3333 15.5002C24.3333 21.1814 21.8505 27.1575 16.721 30.4551C16.2818 30.7374 15.7182 30.7374 15.279 30.4551C10.1495 27.1575 7.66666 21.1814 7.66666 15.5002C7.66666 9.82842 10.1534 4.09941 15.4037 1.47426ZM14.6667 5.12345C11.8303 7.49007 10.3333 11.361 10.3333 15.5002C10.3333 19.597 11.8081 23.7199 14.6667 26.5591V5.12345ZM17.3333 26.5591V5.12345C20.1697 7.49007 21.6667 11.361 21.6667 15.5002C21.6667 19.597 20.1919 23.7199 17.3333 26.5591Z" fill="#18202A"/>
<path fill-rule="evenodd" clip-rule="evenodd" d="M29.3333 17.3335H2.66666V14.6668H29.3333V17.3335Z" fill="#18202A"/>
</svg>
