<svg width="32" height="32" viewBox="0 0 32 32" fill="none" xmlns="http://www.w3.org/2000/svg">
<path fill-rule="evenodd" clip-rule="evenodd" d="M12 7.33341C12 9.44743 10.5943 11.2331 8.66669 11.8068V19.0001C8.66669 21.3933 10.6068 23.3334 13 23.3334H20.1933C20.767 21.4058 22.5527 20.0001 24.6667 20.0001C27.244 20.0001 29.3334 22.0894 29.3334 24.6667C29.3334 27.2441 27.244 29.3334 24.6667 29.3334C22.3157 29.3334 20.3708 27.5949 20.0473 25.3334H13C9.50222 25.3334 6.66669 22.4979 6.66669 19.0001V11.9528C4.40516 11.6293 2.66669 9.6844 2.66669 7.33341C2.66669 4.75609 4.75602 2.66675 7.33335 2.66675C9.91068 2.66675 12 4.75609 12 7.33341ZM10 7.33341C10 8.80617 8.80611 10.0001 7.33335 10.0001C5.86059 10.0001 4.66669 8.80617 4.66669 7.33341C4.66669 5.86066 5.86059 4.66675 7.33335 4.66675C8.80611 4.66675 10 5.86066 10 7.33341ZM27.3334 24.6667C27.3334 26.1395 26.1394 27.3334 24.6667 27.3334C23.1939 27.3334 22 26.1395 22 24.6667C22 23.194 23.1939 22.0001 24.6667 22.0001C26.1394 22.0001 27.3334 23.194 27.3334 24.6667Z" fill="#18202A"/>
</svg>
