<svg width="32" height="32" viewBox="0 0 32 32" fill="none" xmlns="http://www.w3.org/2000/svg">
<path fill-rule="evenodd" clip-rule="evenodd" d="M26.6667 8.00033H22.5333C21.9156 4.95734 19.2253 2.66699 16 2.66699C12.7747 2.66699 10.0844 4.95734 9.46669 8.00033H5.33333C3.12419 8.00033 1.33333 9.79119 1.33333 12.0003V14.729L11.7348 18.0627C14.5247 18.7864 17.474 18.7864 20.2639 18.0627L30.6667 14.729V12.0003C30.6667 9.79119 28.8758 8.00033 26.6667 8.00033ZM16 5.33366C17.7416 5.33366 19.2233 6.44674 19.7724 8.00033H12.2276C12.7767 6.44674 14.2584 5.33366 16 5.33366ZM18 14.0003C18 15.1049 17.1046 16.0003 16 16.0003C14.8954 16.0003 14 15.1049 14 14.0003C14 12.8958 14.8954 12.0003 16 12.0003C17.1046 12.0003 18 12.8958 18 14.0003Z" fill="#18202A"/>
<path d="M30.6667 17.5051L20.8218 20.6601L20.7953 20.667C17.6577 21.4862 14.341 21.4862 11.2034 20.667L11.1769 20.6601L1.33333 17.5051V25.3337C1.33333 27.5428 3.12419 29.3337 5.33333 29.3337H26.6667C28.8758 29.3337 30.6667 27.5428 30.6667 25.3337V17.5051Z" fill="#18202A"/>
</svg>
