<svg width="32" height="32" viewBox="0 0 32 32" fill="none" xmlns="http://www.w3.org/2000/svg">
<path fill-rule="evenodd" clip-rule="evenodd" d="M25.2812 29.3333H6.71884C2.61001 29.3333 0.044405 24.8826 2.10366 21.327L11.3848 5.30198C13.4393 1.75481 18.5608 1.75481 20.6152 5.30198L29.8964 21.327C31.9556 24.8826 29.39 29.3333 25.2812 29.3333ZM17.3333 10.6667C17.3333 9.93029 16.7364 9.33333 16 9.33333C15.2636 9.33333 14.6667 9.93029 14.6667 10.6667V17.3333C14.6667 18.0697 15.2636 18.6667 16 18.6667C16.7364 18.6667 17.3333 18.0697 17.3333 17.3333V10.6667ZM16 21.3333C15.2636 21.3333 14.6667 21.9303 14.6667 22.6667C14.6667 23.403 15.2636 24 16 24H16.0133C16.7497 24 17.3467 23.403 17.3467 22.6667C17.3467 21.9303 16.7497 21.3333 16.0133 21.3333H16Z" fill="#18202A"/>
</svg>
