<svg width="32" height="32" viewBox="0 0 32 32" fill="none" xmlns="http://www.w3.org/2000/svg">
<path d="M10.68 2.71966C11.6329 2.70581 12.5595 3.03263 13.2928 3.64131C14.0261 4.24998 14.5181 5.10049 14.68 6.03966C14.72 6.34633 14.7733 6.65299 14.84 6.94633C14.9745 7.53939 15.1483 8.12289 15.36 8.69299C15.5851 9.31154 15.5733 9.99146 15.3272 10.6019C15.1118 11.1361 14.7303 11.584 14.2422 11.8815L14.0267 11.9997L13.4667 12.373C14.1891 13.6717 15.0864 14.865 16.1333 15.9197C17.0562 16.8358 18.0852 17.6372 19.198 18.3073L19.68 18.5864L19.9733 17.9864C20.2628 17.3952 20.7607 16.932 21.3711 16.6858C21.9816 16.4397 22.6615 16.428 23.28 16.653C23.7067 16.8145 24.1417 16.9526 24.5832 17.0668L25.4733 17.278C25.6233 17.3097 25.7733 17.333 25.92 17.333C26.8317 17.4965 27.6585 17.9713 28.2591 18.6765C28.793 19.3033 29.1189 20.0777 29.1961 20.8925L29.2134 21.1997V25.1997C29.216 25.7656 29.0985 26.3256 28.8687 26.8428C28.6388 27.3598 28.3019 27.8224 27.88 28.1997C27.2193 28.7883 26.3842 29.1394 25.5071 29.2027L25.2133 29.213H24.7067C19.1183 28.523 13.9191 25.9909 9.93021 22.0165C5.94139 18.0421 3.39033 12.8522 2.68001 7.26633C2.60145 6.69707 2.64647 6.11757 2.812 5.56727C2.97752 5.01698 3.25968 4.50882 3.63925 4.07737C4.01883 3.64591 4.48691 3.30133 5.01163 3.06703C5.44889 2.87179 5.91694 2.75697 6.39334 2.72725L6.68001 2.71966H10.68ZM10.68 4.71966L6.66122 4.7194C6.37392 4.71687 6.08941 4.77611 5.82705 4.89325C5.56467 5.01041 5.33063 5.18271 5.14086 5.39842C4.95106 5.61416 4.80999 5.86823 4.72722 6.14339C4.64446 6.41852 4.62195 6.70828 4.66404 7.01403C5.31827 12.1589 7.66791 16.9391 11.3419 20.5997C14.8846 24.1296 19.4639 26.4243 24.4017 27.1535L24.8425 27.2126L25.2163 27.213C25.6376 27.2137 26.0466 27.0812 26.3841 26.8391L26.5467 26.709C26.7576 26.5203 26.9261 26.289 27.041 26.0305C27.1272 25.8365 27.1818 25.6306 27.2032 25.4164L27.2134 25.1997L27.2137 21.2349C27.2055 20.7719 27.0369 20.326 26.7364 19.9732C26.4791 19.6711 26.1387 19.4536 25.7596 19.3461L25.6558 19.3219L25.6329 19.3215C25.5386 19.314 25.4449 19.3028 25.3501 19.2882L25.0602 19.2349L24.5961 19.1261C23.9076 18.9744 23.2311 18.773 22.5961 18.5325C22.4416 18.4762 22.2717 18.4792 22.119 18.5407C22.0046 18.5869 21.9059 18.6635 21.8335 18.7609L21.7701 18.8648L21.168 20.0963C20.8324 20.7828 19.9897 21.0474 19.3219 20.6759L18.7076 20.3341C17.249 19.5226 15.9088 18.5149 14.7139 17.3287C13.6849 16.2921 12.7847 15.1363 12.0322 13.8865L11.7189 13.3452L11.4198 12.8076C11.0821 12.2004 11.2673 11.4355 11.8454 11.0501L12.9173 10.3356L13.1472 10.2034C13.295 10.131 13.4108 10.0066 13.4723 9.85402C13.5339 9.70135 13.5368 9.53139 13.4851 9.38931C13.2426 8.73625 13.0436 8.06794 12.8897 7.38957C12.8101 7.03922 12.7455 6.67188 12.7091 6.37935C12.6281 5.9099 12.3822 5.48463 12.0155 5.18026C11.7012 4.91941 11.316 4.76209 10.8939 4.72696L10.68 4.71966Z" fill="#18202A"/>
<path fill-rule="evenodd" clip-rule="evenodd" d="M19.7846 4.99984C19.7846 4.44755 20.2323 3.99984 20.7846 3.99984H26.9937C27.546 3.99984 27.9937 4.44755 27.9937 4.99984V11.209C27.9937 11.7613 27.546 12.209 26.9937 12.209C26.4414 12.209 25.9937 11.7613 25.9937 11.209V7.41405L20.3871 13.0207C19.9966 13.4112 19.3634 13.4112 18.9729 13.0207C18.5824 12.6301 18.5824 11.997 18.9729 11.6064L24.5795 5.99984H20.7846C20.2323 5.99984 19.7846 5.55212 19.7846 4.99984Z" fill="#18202A"/>
</svg>
