<svg width="32" height="32" viewBox="0 0 32 32" fill="none" xmlns="http://www.w3.org/2000/svg">
<path fill-rule="evenodd" clip-rule="evenodd" d="M14.6667 3.99967C8.77562 3.99967 3.99999 8.7753 3.99999 14.6663C3.99999 20.1559 8.14797 24.6784 13.4798 25.2678C14.2117 25.3487 14.7395 26.0077 14.6586 26.7396C14.5777 27.4715 13.9187 27.9993 13.1868 27.9184C6.51882 27.1812 1.33333 21.5303 1.33333 14.6663C1.33333 7.30254 7.30286 1.33301 14.6667 1.33301C21.5306 1.33301 27.1816 6.5185 27.9187 13.1865C27.9996 13.9184 27.4718 14.5774 26.7399 14.6583C26.008 14.7392 25.3491 14.2114 25.2682 13.4795C24.6788 8.14765 20.1562 3.99967 14.6667 3.99967ZM14.6667 9.33301C11.7211 9.33301 9.33333 11.7208 9.33333 14.6663C9.33333 16.8513 10.6474 18.7323 12.5338 19.5565C13.2086 19.8513 13.5166 20.6373 13.2218 21.3121C12.927 21.9869 12.141 22.2949 11.4662 22.0001C8.64351 20.7668 6.66666 17.9489 6.66666 14.6663C6.66666 10.2481 10.2484 6.66634 14.6667 6.66634C17.9492 6.66634 20.7671 8.64319 22.0004 11.4658C22.2952 12.1406 21.9872 12.9267 21.3124 13.2215C20.6376 13.5163 19.8516 13.2083 19.5568 12.5335C18.7326 10.6471 16.8516 9.33301 14.6667 9.33301ZM14.7398 15.9958C14.4938 15.2226 15.2227 14.4937 15.996 14.7397L28.1126 18.595C28.9117 18.8493 29.0618 19.9149 28.3641 20.38L25.4566 22.3184L30.431 27.2928C30.8215 27.6833 30.8215 28.3165 30.431 28.707L28.7071 30.4309C28.3166 30.8214 27.6834 30.8214 27.2929 30.4309L22.3185 25.4564L20.3801 28.364C19.915 29.0617 18.8494 28.9115 18.5951 28.1125L14.7398 15.9958Z" fill="#18202A"/>
</svg>
