<svg width="32" height="32" viewBox="0 0 32 32" fill="none" xmlns="http://www.w3.org/2000/svg">
<path fill-rule="evenodd" clip-rule="evenodd" d="M16 1.3335C17.4728 1.3335 18.6667 2.5274 18.6667 4.00016C18.6667 4.98721 18.1304 5.849 17.3333 6.31008V8.00016H20C24.7511 8.00016 28.6731 11.5502 29.258 16.1423C29.4875 16.0506 29.7378 16.0002 30 16.0002C31.1046 16.0002 32 16.8956 32 18.0002V22.0002C32 23.1047 31.1046 24.0002 30 24.0002C29.7662 24.0002 29.5419 23.9601 29.3333 23.8864V25.3335C29.3333 28.279 26.9455 30.6668 24 30.6668H8C5.05448 30.6668 2.66667 28.279 2.66667 25.3335V23.8864C2.45815 23.9601 2.23376 24.0002 2 24.0002C0.895431 24.0002 0 23.1047 0 22.0002V18.0002C0 16.8956 0.895431 16.0002 2 16.0002C2.26216 16.0002 2.51254 16.0506 2.74197 16.1423C3.32694 11.5502 7.2489 8.00016 12 8.00016H14.6667V6.31008C13.8696 5.849 13.3333 4.98721 13.3333 4.00016C13.3333 2.5274 14.5272 1.3335 16 1.3335ZM26.6667 18.6668C26.6667 20.876 24.8758 22.6668 22.6667 22.6668C20.4575 22.6668 18.6667 20.876 18.6667 18.6668C18.6667 16.4577 20.4575 14.6668 22.6667 14.6668C24.8758 14.6668 26.6667 16.4577 26.6667 18.6668ZM9.33333 22.6668C11.5425 22.6668 13.3333 20.876 13.3333 18.6668C13.3333 16.4577 11.5425 14.6668 9.33333 14.6668C7.12419 14.6668 5.33333 16.4577 5.33333 18.6668C5.33333 20.876 7.1242 22.6668 9.33333 22.6668ZM13.3333 26.0002C13.3333 25.632 13.6318 25.3335 14 25.3335H18C18.3682 25.3335 18.6667 25.632 18.6667 26.0002C18.6667 26.3684 18.3682 26.6668 18 26.6668H14C13.6318 26.6668 13.3333 26.3684 13.3333 26.0002Z" fill="#18202A"/>
</svg>
