<svg width="32" height="32" viewBox="0 0 32 32" fill="none" xmlns="http://www.w3.org/2000/svg">
<path fill-rule="evenodd" clip-rule="evenodd" d="M16 4.66699C17.8409 4.66699 19.3333 6.15938 19.3333 8.00033H12.6666C12.6666 6.15938 14.159 4.66699 16 4.66699ZM10.6666 8.00033C10.6666 5.05481 13.0545 2.66699 16 2.66699C18.9455 2.66699 21.3333 5.05481 21.3333 8.00033L26.6666 8.00033C28.8758 8.00033 30.6666 9.79119 30.6666 12.0003V15.1312V17.2314V25.3337C30.6666 27.5428 28.8758 29.3337 26.6666 29.3337H5.33331C3.12417 29.3337 1.33331 27.5428 1.33331 25.3337V17.2314V15.1312V12.0003C1.33331 9.79119 3.12417 8.00033 5.33331 8.00033L10.6666 8.00033ZM3.33331 17.8724V25.3337C3.33331 26.4382 4.22874 27.3337 5.33331 27.3337H26.6666C27.7712 27.3337 28.6666 26.4382 28.6666 25.3337V17.8723L20.8218 20.3863L20.7953 20.3933C17.6576 21.2125 14.341 21.2125 11.2034 20.3933L11.1769 20.3863L3.33331 17.8724ZM28.6666 15.7721L20.2639 18.4649C17.474 19.1886 14.5247 19.1886 11.7347 18.4649L3.33331 15.7722V12.0003C3.33331 10.8958 4.22874 10.0003 5.33331 10.0003L10.6666 10.0003H21.3333L26.6666 10.0003C27.7712 10.0003 28.6666 10.8958 28.6666 12.0003V15.7721ZM18 15.3337C18 16.4382 17.1045 17.3337 16 17.3337C14.8954 17.3337 14 16.4382 14 15.3337C14 14.2291 14.8954 13.3337 16 13.3337C17.1045 13.3337 18 14.2291 18 15.3337Z" fill="#18202A"/>
</svg>
