<svg width="32" height="32" viewBox="0 0 32 32" fill="none" xmlns="http://www.w3.org/2000/svg">
<path fill-rule="evenodd" clip-rule="evenodd" d="M7.09421 17L3.46094 26.6778C3.4094 26.8151 3.38319 26.9166 3.37155 26.9882C3.36235 27.0448 3.36418 27.0711 3.36451 27.0747C3.57253 28.4185 4.9552 29.1497 6.3017 28.4046L26.9112 17H7.09421ZM26.9111 15L6.30171 3.59533C4.95502 2.8501 3.57249 3.58134 3.36451 4.92515C3.36453 4.92486 3.36455 4.92472 3.36455 4.92472C3.36455 4.92472 3.36451 4.92515 3.36438 4.926C3.36442 4.92572 3.36446 4.92544 3.36451 4.92516C3.36417 4.92878 3.36235 4.9551 3.37155 5.01173C3.38319 5.08339 3.40941 5.18481 3.46094 5.3221L7.09423 15H26.9111ZM1.58855 6.02503L5.33334 16L1.58855 25.9749C1.41979 26.4244 1.31453 26.9046 1.3878 27.3791C1.82465 30.2083 4.8057 31.5182 7.27006 30.1546L29.6866 17.75C31.0622 16.9888 31.0622 15.0113 29.6866 14.2501L7.27007 1.84539C4.80569 0.481669 1.8246 1.79132 1.38779 4.62087C1.31453 5.09539 1.41979 5.57552 1.58855 6.02503Z" fill="#18202A"/>
</svg>
