<svg width="32" height="32" viewBox="0 0 32 32" fill="none" xmlns="http://www.w3.org/2000/svg">
<path d="M13 2.66663H18.3307C18.5841 2.6667 18.8279 2.76295 19.0131 2.93592C19.1982 3.10889 19.3108 3.34569 19.3281 3.59847C19.3453 3.85124 19.266 4.10115 19.1061 4.29769C18.9462 4.49423 18.7177 4.62276 18.4667 4.65729L18.3307 4.66663H16.6667V27.3333H18.3267C18.5683 27.3333 18.8018 27.4208 18.9839 27.5796C19.166 27.7385 19.2845 27.9579 19.3174 28.1973L19.3267 28.3333C19.3267 28.5749 19.2392 28.8084 19.0803 28.9905C18.9215 29.1727 18.7021 29.2911 18.4627 29.324L18.3267 29.3333H13C12.7467 29.3332 12.5028 29.237 12.3176 29.064C12.1325 28.891 12.0199 28.6542 12.0027 28.4015C11.9854 28.1487 12.0647 27.8988 12.2246 27.7022C12.3845 27.5057 12.613 27.3772 12.864 27.3426L13 27.3333H14.6667V4.66663H13C12.7584 4.66662 12.5249 4.5791 12.3428 4.42027C12.1607 4.26144 12.0422 4.04203 12.0094 3.80263L12 3.66663C12 3.42498 12.0875 3.1915 12.2464 3.00939C12.4052 2.82727 12.6246 2.70882 12.864 2.67596L13 2.66663H18.3307H13ZM24.328 6.66263C25.477 6.66369 26.5786 7.12057 27.391 7.933C28.2034 8.74543 28.6603 9.84701 28.6614 10.996L28.6667 21.0013C28.6675 22.108 28.2446 23.1731 27.4849 23.9779C26.7252 24.7827 25.6863 25.2663 24.5814 25.3293L24.3334 25.336H18.0067V23.336H24.4107C25.0164 23.3162 25.5906 23.0615 26.0117 22.6257C26.4328 22.1899 26.6677 21.6073 26.6667 21.0013L26.6627 10.9946C26.6616 10.3757 26.4151 9.78237 25.9772 9.34494C25.5392 8.90751 24.9457 8.66164 24.3267 8.66129H18.0067V6.66129H24.3267L24.328 6.66263ZM13.3334 6.66263V8.66263H7.00002C6.38118 8.66263 5.78769 8.90846 5.3501 9.34604C4.91252 9.78363 4.66669 10.3771 4.66669 10.996V21.0013C4.66669 22.2906 5.71202 23.3346 7.00002 23.3346H13.3267V25.3346H7.00002C5.85075 25.3346 4.74855 24.8781 3.93589 24.0654C3.12323 23.2528 2.66669 22.1506 2.66669 21.0013V10.996C2.66669 9.84669 3.12323 8.74449 3.93589 7.93183C4.74855 7.11917 5.85075 6.66263 7.00002 6.66263H13.3334Z" fill="#18202A"/>
</svg>
