<svg width="32" height="32" viewBox="0 0 32 32" fill="none" xmlns="http://www.w3.org/2000/svg">
<path fill-rule="evenodd" clip-rule="evenodd" d="M12.6356 18.5809C13.3879 16.0174 13.6025 12.8345 13.3331 9.29269C13.3112 7.10235 11.5289 5.3335 9.33333 5.3335H8C5.79086 5.3335 4 7.12436 4 9.3335V10.6668C4 12.876 5.79086 14.6668 8 14.6668C8.94049 14.6668 9.70461 14.8348 10.169 15.2476C10.5591 15.5943 10.9728 16.3363 10.6908 18.1047C10.5397 18.6069 10.3665 19.0745 10.172 19.5053C9.12881 21.8151 7.52179 23.0002 5.33333 23.0002C4.78105 23.0002 4.33333 23.4479 4.33333 24.0002C4.33333 24.5525 4.78105 25.0002 5.33333 25.0002C8.47821 25.0002 10.7045 23.1853 11.9947 20.3285C12.2478 19.7681 12.4839 19.1779 12.6356 18.5809Z" fill="#18202A"/>
<path fill-rule="evenodd" clip-rule="evenodd" d="M27.3023 18.5809C28.0546 16.0174 28.2692 12.8345 27.9998 9.29268C27.9779 7.10234 26.1955 5.3335 24 5.3335H22.6667C20.4575 5.3335 18.6667 7.12436 18.6667 9.3335V10.6668C18.6667 12.876 20.4575 14.6668 22.6667 14.6668C23.6072 14.6668 24.3713 14.8348 24.8356 15.2476C25.2257 15.5943 25.6394 16.3363 25.3574 18.1047C25.2063 18.6069 25.0332 19.0745 24.8386 19.5053C23.7955 21.8151 22.1885 23.0002 20 23.0002C19.4477 23.0002 19 23.4479 19 24.0002C19 24.5525 19.4477 25.0002 20 25.0002C23.1449 25.0002 25.3712 23.1853 26.6614 20.3285C26.9144 19.7681 27.1506 19.1779 27.3023 18.5809Z" fill="#18202A"/>
</svg>
