<svg width="32" height="32" viewBox="0 0 32 32" fill="none" xmlns="http://www.w3.org/2000/svg">
<path fill-rule="evenodd" clip-rule="evenodd" d="M13.8664 11.526C13.045 11.0286 12 11.6258 12 12.5927V19.3943C12 20.3612 13.045 20.9585 13.8664 20.461L19.4816 17.0602C20.2794 16.577 20.2794 15.41 19.4816 14.9268L13.8664 11.526ZM14 18.0419V13.9451L17.3822 15.9935L14 18.0419Z" fill="#18202A"/>
<path d="M9.33331 6.00016V8.66683H6.66665V6.00016H9.33331Z" fill="#18202A"/>
<path d="M9.33331 26.0002V23.3335H6.66665V26.0002H9.33331Z" fill="#18202A"/>
<path d="M12 6.00016H14.6666V8.66683H12V6.00016Z" fill="#18202A"/>
<path d="M14.6666 23.3335H12V26.0002H14.6666V23.3335Z" fill="#18202A"/>
<path d="M17.3333 6.00016H20V8.66683H17.3333V6.00016Z" fill="#18202A"/>
<path d="M20 23.3335H17.3333V26.0002H20V23.3335Z" fill="#18202A"/>
<path d="M25.3333 6.00016V8.66683H22.6666V6.00016H25.3333Z" fill="#18202A"/>
<path d="M25.3333 26.0002V23.3335H22.6666V26.0002H25.3333Z" fill="#18202A"/>
<path fill-rule="evenodd" clip-rule="evenodd" d="M1.33331 8.00016C1.33331 4.31827 4.31808 1.3335 7.99998 1.3335H24C27.6819 1.3335 30.6666 4.31826 30.6666 8.00016V24.0002C30.6666 27.6821 27.6819 30.6668 24 30.6668H7.99998C4.31808 30.6668 1.33331 27.6821 1.33331 24.0002V8.00016ZM7.99998 3.3335H24C26.5773 3.3335 28.6666 5.42283 28.6666 8.00016V24.0002C28.6666 26.5775 26.5773 28.6668 24 28.6668H7.99998C5.42265 28.6668 3.33331 26.5775 3.33331 24.0002V8.00016C3.33331 5.42283 5.42265 3.3335 7.99998 3.3335Z" fill="#18202A"/>
</svg>
