<svg width="32" height="32" viewBox="0 0 32 32" fill="none" xmlns="http://www.w3.org/2000/svg">
<path fill-rule="evenodd" clip-rule="evenodd" d="M1.33333 6.66634C1.33333 3.72082 3.72114 1.33301 6.66666 1.33301H25.3333C28.2788 1.33301 30.6667 3.72082 30.6667 6.66634V25.333C30.6667 28.2785 28.2788 30.6663 25.3333 30.6663H6.66666C3.72114 30.6663 1.33333 28.2785 1.33333 25.333V6.66634ZM16 14.6663C17.7778 14.6663 18.6667 12.9997 18.6667 10.9163C18.6667 9.24967 17.7778 7.99967 16 7.99967C14.2222 7.99967 13.3333 9.24967 13.3333 10.9163C13.3333 12.9997 14.2222 14.6663 16 14.6663ZM8.66666 14.6663C10 14.6663 10.6667 13.333 10.6667 11.6663C10.6667 10.333 10 9.33301 8.66666 9.33301C7.33333 9.33301 6.66666 10.333 6.66666 11.6663C6.66666 13.333 7.33333 14.6663 8.66666 14.6663ZM25.3333 11.6663C25.3333 13.333 24.6667 14.6663 23.3333 14.6663C22 14.6663 21.3333 13.333 21.3333 11.6663C21.3333 10.333 22 9.33301 23.3333 9.33301C24.6667 9.33301 25.3333 10.333 25.3333 11.6663ZM10.8171 16.2899C10.9182 16.2197 11.0208 16.1515 11.1248 16.0854C10.6943 16.012 10.2511 15.9736 9.7985 15.9736C8.54551 15.9736 7.36421 16.2674 6.32571 16.7868C5.44415 17.2277 5.07344 18.2609 5.36771 19.2016C5.42486 19.3843 5.4857 19.5655 5.55015 19.745C5.83084 20.5269 6.52828 21.0785 7.35111 21.1927C8.04894 21.2896 8.76059 21.3457 9.48333 21.3584C9.43778 21.2321 9.39379 21.1051 9.35138 20.9773C8.80711 19.3371 9.25275 17.3754 10.8171 16.2899ZM22.5187 21.354C22.5637 21.2291 22.6071 21.1035 22.6491 20.9772C23.1933 19.3371 22.7476 17.3755 21.1834 16.29C21.0697 16.2111 20.9541 16.1347 20.8368 16.0609C21.2191 16.0034 21.611 15.9736 22.0101 15.9736C23.3582 15.9736 24.6233 16.3136 25.7169 16.9089C26.566 17.3711 26.9072 18.3886 26.611 19.3089C26.5681 19.4423 26.5232 19.5749 26.4763 19.7066C26.2009 20.481 25.5165 21.0321 24.704 21.1567C23.9896 21.2663 23.2601 21.333 22.5187 21.354ZM20.7885 22.0603C20.3565 22.9934 19.4852 23.6458 18.47 23.8088C17.6654 23.9381 16.8405 24.0052 16.0002 24.0052C15.1599 24.0052 14.335 23.9381 13.5304 23.8089C12.5153 23.6458 11.6439 22.9934 11.212 22.0604C10.9867 21.5738 10.7877 21.0722 10.6168 20.5573C10.2304 19.3928 10.5691 18.0849 11.5772 17.3853C12.8373 16.5109 14.3601 15.9997 16.0002 15.9997C17.6402 15.9997 19.163 16.5109 20.4232 17.3854C21.4312 18.0849 21.77 19.3928 21.3835 20.5573C21.2127 21.0721 21.0137 21.5738 20.7885 22.0603Z" fill="#18202A"/>
</svg>
