<svg width="32" height="32" viewBox="0 0 32 32" fill="none" xmlns="http://www.w3.org/2000/svg">
<g clip-path="url(#clip0_3075_8906)">
<path d="M31.6231 3.59588C32.1362 3.06769 32.124 2.22356 31.5958 1.71046C31.0676 1.19736 30.2234 1.20959 29.7103 1.73778L17.7416 14.0586L12.9821 8.87607C12.484 8.3337 11.6405 8.29781 11.0982 8.7959C10.5558 9.29399 10.5199 10.1374 11.018 10.6798L16.7323 16.902C16.9804 17.1722 17.3289 17.3282 17.6956 17.3334C18.0624 17.3385 18.4151 17.1923 18.6707 16.9292L31.6231 3.59588Z" fill="#18202A"/>
<path d="M1.33337 8.00016C1.33337 5.05464 3.72119 2.66683 6.66671 2.66683H25.0901L17.796 10.1755L14.9462 7.07232C13.4519 5.44523 10.9215 5.33755 9.29444 6.83182C7.66735 8.3261 7.55967 10.8565 9.05394 12.4836L14.7682 18.7058C15.5126 19.5163 16.5579 19.9843 17.6583 19.9998C18.7586 20.0152 19.8167 19.5766 20.5835 18.7873L30.6667 8.4075V20.0002C30.6667 22.9457 28.2789 25.3335 25.3334 25.3335H17.2122L8.60743 30.4498C7.60992 31.0429 6.38337 30.1668 6.62089 29.0309L7.39398 25.3335H6.66671C3.72119 25.3335 1.33337 22.9457 1.33337 20.0002V8.00016Z" fill="#18202A"/>
</g>
<defs>
<clipPath id="clip0_3075_8906">
<rect width="32" height="32" fill="white"/>
</clipPath>
</defs>
</svg>
