<svg width="32" height="32" viewBox="0 0 32 32" fill="none" xmlns="http://www.w3.org/2000/svg">
<g clip-path="url(#clip0_3294_8879)">
<path d="M5.33329 6.66683C5.33329 7.40321 4.73634 8.00016 3.99996 8.00016C3.26358 8.00016 2.66663 7.40321 2.66663 6.66683C2.66663 5.93045 3.26358 5.3335 3.99996 5.3335C4.73634 5.3335 5.33329 5.93045 5.33329 6.66683Z" fill="#18202A"/>
<path d="M9.33329 6.66683C9.33329 5.93045 9.93025 5.3335 10.6666 5.3335H28C28.7363 5.3335 29.3333 5.93045 29.3333 6.66683C29.3333 7.40321 28.7363 8.00016 28 8.00016H10.6666C9.93025 8.00016 9.33329 7.40321 9.33329 6.66683Z" fill="#18202A"/>
<path d="M10.6666 14.6668C9.93025 14.6668 9.33329 15.2638 9.33329 16.0002C9.33329 16.7365 9.93025 17.3335 10.6666 17.3335H28C28.7363 17.3335 29.3333 16.7365 29.3333 16.0002C29.3333 15.2638 28.7363 14.6668 28 14.6668H10.6666Z" fill="#18202A"/>
<path d="M10.6666 24.0002C9.93025 24.0002 9.33329 24.5971 9.33329 25.3335C9.33329 26.0699 9.93025 26.6668 10.6666 26.6668H28C28.7363 26.6668 29.3333 26.0699 29.3333 25.3335C29.3333 24.5971 28.7363 24.0002 28 24.0002H10.6666Z" fill="#18202A"/>
<path d="M5.33329 16.0002C5.33329 16.7365 4.73634 17.3335 3.99996 17.3335C3.26358 17.3335 2.66663 16.7365 2.66663 16.0002C2.66663 15.2638 3.26358 14.6668 3.99996 14.6668C4.73634 14.6668 5.33329 15.2638 5.33329 16.0002Z" fill="#18202A"/>
<path d="M5.33329 25.3335C5.33329 26.0699 4.73634 26.6668 3.99996 26.6668C3.26358 26.6668 2.66663 26.0699 2.66663 25.3335C2.66663 24.5971 3.26358 24.0002 3.99996 24.0002C4.73634 24.0002 5.33329 24.5971 5.33329 25.3335Z" fill="#18202A"/>
</g>
<defs>
<clipPath id="clip0_3294_8879">
<rect width="32" height="32" fill="white"/>
</clipPath>
</defs>
</svg>
