<svg width="32" height="32" viewBox="0 0 32 32" fill="none" xmlns="http://www.w3.org/2000/svg">
<path d="M13.3333 15.9999C13.3333 17.4727 12.1394 18.6666 10.6666 18.6666C9.19389 18.6666 7.99998 17.4727 7.99998 15.9999C7.99998 14.5272 9.19389 13.3333 10.6666 13.3333C12.1394 13.3333 13.3333 14.5272 13.3333 15.9999Z" fill="#18202A"/>
<path d="M9.66665 19.9999C8.00979 19.9999 6.66665 21.3431 6.66665 22.9999C6.66665 23.5522 7.11436 23.9999 7.66665 23.9999H13.6666C14.2189 23.9999 14.6666 23.5522 14.6666 22.9999C14.6666 21.3431 13.3235 19.9999 11.6666 19.9999H9.66665Z" fill="#18202A"/>
<path d="M18.3333 15.9999C17.781 15.9999 17.3333 16.4476 17.3333 16.9999C17.3333 17.5522 17.781 17.9999 18.3333 17.9999H24.3333C24.8856 17.9999 25.3333 17.5522 25.3333 16.9999C25.3333 16.4476 24.8856 15.9999 24.3333 15.9999H18.3333Z" fill="#18202A"/>
<path d="M17.3333 20.9999C17.3333 20.4476 17.781 19.9999 18.3333 19.9999H24.3333C24.8856 19.9999 25.3333 20.4476 25.3333 20.9999C25.3333 21.5522 24.8856 21.9999 24.3333 21.9999H18.3333C17.781 21.9999 17.3333 21.5522 17.3333 20.9999Z" fill="#18202A"/>
<path fill-rule="evenodd" clip-rule="evenodd" d="M12 5.33325C12 3.12411 13.7908 1.33325 16 1.33325C18.2091 1.33325 20 3.12411 20 5.33325H25.3333C28.2788 5.33325 30.6666 7.72107 30.6666 10.6666V23.9999C30.6666 26.9454 28.2788 29.3333 25.3333 29.3333H6.66665C3.72113 29.3333 1.33331 26.9454 1.33331 23.9999V10.6666C1.33331 7.72107 3.72113 5.33325 6.66665 5.33325L12 5.33325ZM16 3.33325C17.1045 3.33325 18 4.22868 18 5.33325V8.66659H14V5.33325C14 4.22868 14.8954 3.33325 16 3.33325ZM28.6666 10.6666C28.6666 8.82564 27.1743 7.33325 25.3333 7.33325H20V9.33325C20 10.0696 19.403 10.6666 18.6666 10.6666H13.3333C12.5969 10.6666 12 10.0696 12 9.33325V7.33325H6.66665C4.8257 7.33325 3.33331 8.82564 3.33331 10.6666V23.9999C3.33331 25.8409 4.8257 27.3333 6.66665 27.3333H25.3333C27.1743 27.3333 28.6666 25.8409 28.6666 23.9999V10.6666Z" fill="#18202A"/>
</svg>
