<svg width="32" height="32" viewBox="0 0 32 32" fill="none" xmlns="http://www.w3.org/2000/svg">
<g clip-path="url(#clip0_2294_10419)">
<path fill-rule="evenodd" clip-rule="evenodd" d="M16 32C24.8366 32 32 24.8366 32 16C32 7.16344 24.8366 0 16 0C7.16344 0 0 7.16344 0 16C0 24.8366 7.16344 32 16 32ZM16 16C17.7778 16 18.6667 14.3333 18.6667 12.25C18.6667 10.5833 17.7778 9.33333 16 9.33333C14.2222 9.33333 13.3333 10.5833 13.3333 12.25C13.3333 14.3333 14.2222 16 16 16ZM8.66667 16C10 16 10.6667 14.6667 10.6667 13C10.6667 11.6667 10 10.6667 8.66667 10.6667C7.33333 10.6667 6.66667 11.6667 6.66667 13C6.66667 14.6667 7.33333 16 8.66667 16ZM23.3333 16C24.6667 16 25.3333 14.6667 25.3333 13C25.3333 11.6667 24.6667 10.6667 23.3333 10.6667C22 10.6667 21.3333 11.6667 21.3333 13C21.3333 14.6667 22 16 23.3333 16ZM10.8171 17.6236C10.9182 17.5534 11.0208 17.4852 11.1248 17.419C10.6943 17.3456 10.2511 17.3073 9.7985 17.3073C8.54551 17.3073 7.36422 17.601 6.32572 18.1204C5.44416 18.5613 5.07344 19.5946 5.36772 20.5353C5.42486 20.718 5.4857 20.8991 5.55015 21.0787C5.83084 21.8605 6.52828 22.4121 7.35112 22.5264C8.04895 22.6233 8.7606 22.6794 9.48334 22.692C9.43778 22.5658 9.39379 22.4387 9.35139 22.3109C8.80712 20.6708 9.25275 18.7091 10.8171 17.6236ZM22.6491 22.3109C22.6071 22.4372 22.5637 22.5628 22.5187 22.6876C23.2601 22.6666 23.9896 22.5999 24.704 22.4904C25.5165 22.3658 26.2009 21.8147 26.4763 21.0403C26.5232 20.9086 26.5681 20.776 26.611 20.6425C26.9072 19.7223 26.566 18.7048 25.7169 18.2426C24.6233 17.6473 23.3582 17.3073 22.0101 17.3073C21.611 17.3073 21.2191 17.3371 20.8368 17.3945C20.9541 17.4683 21.0697 17.5447 21.1834 17.6236C22.7476 18.7091 23.1933 20.6708 22.6491 22.3109ZM20.7885 23.394C20.3565 24.327 19.4852 24.9795 18.47 25.1425C17.6654 25.2717 16.8405 25.3388 16.0002 25.3388C15.1599 25.3388 14.335 25.2717 13.5304 25.1425C12.5153 24.9795 11.6439 24.3271 11.212 23.3941C10.9867 22.9075 10.7877 22.4058 10.6168 21.891C10.2304 20.7264 10.5691 19.4185 11.5772 18.719C12.8373 17.8445 14.3601 17.3333 16.0002 17.3333C17.6402 17.3333 19.163 17.8446 20.4232 18.719C21.4312 19.4186 21.77 20.7264 21.3835 21.891C21.2127 22.4058 21.0137 22.9074 20.7885 23.394Z" fill="#18202A"/>
</g>
<defs>
<clipPath id="clip0_2294_10419">
<rect width="32" height="32" fill="white"/>
</clipPath>
</defs>
</svg>
