<svg width="32" height="32" viewBox="0 0 32 32" fill="none" xmlns="http://www.w3.org/2000/svg">
<path fill-rule="evenodd" clip-rule="evenodd" d="M26.6667 18.0002C26.6667 20.5775 24.5773 22.6668 22 22.6668C19.4227 22.6668 17.3333 20.5775 17.3333 18.0002C17.3333 15.4228 19.4227 13.3335 22 13.3335C24.5773 13.3335 26.6667 15.4228 26.6667 18.0002ZM22 15.3335C23.4728 15.3335 24.6667 16.5274 24.6667 18.0002C24.6667 19.4729 23.4728 20.6668 22 20.6668C20.5272 20.6668 19.3333 19.4729 19.3333 18.0002C19.3333 16.5274 20.5272 15.3335 22 15.3335Z" fill="#18202A"/>
<path fill-rule="evenodd" clip-rule="evenodd" d="M10 22.6668C12.5773 22.6668 14.6667 20.5775 14.6667 18.0002C14.6667 15.4228 12.5773 13.3335 10 13.3335C7.42267 13.3335 5.33333 15.4228 5.33333 18.0002C5.33333 20.5775 7.42267 22.6668 10 22.6668ZM12.6667 18.0002C12.6667 16.5274 11.4728 15.3335 10 15.3335C8.52724 15.3335 7.33333 16.5274 7.33333 18.0002C7.33333 19.4729 8.52724 20.6668 10 20.6668C11.4728 20.6668 12.6667 19.4729 12.6667 18.0002Z" fill="#18202A"/>
<path d="M14.3333 25.3335C13.781 25.3335 13.3333 25.7812 13.3333 26.3335C13.3333 26.8858 13.781 27.3335 14.3333 27.3335H17.6667C18.219 27.3335 18.6667 26.8858 18.6667 26.3335C18.6667 25.7812 18.219 25.3335 17.6667 25.3335H14.3333Z" fill="#18202A"/>
<path fill-rule="evenodd" clip-rule="evenodd" d="M18.6667 4.00016C18.6667 2.5274 17.4728 1.3335 16 1.3335C14.5272 1.3335 13.3333 2.5274 13.3333 4.00016C13.3333 5.11929 14.0227 6.0774 15 6.47299V8.00016H12C7.29804 8.00016 3.40816 11.4771 2.76119 16.0002H2C0.895431 16.0002 0 16.8956 0 18.0002V22.0002C0 23.1047 0.895431 24.0002 2 24.0002H2.66667V25.3335C2.66667 28.279 5.05448 30.6668 8 30.6668H24C26.9455 30.6668 29.3333 28.279 29.3333 25.3335V24.0002H30C31.1046 24.0002 32 23.1047 32 22.0002V18.0002C32 16.8956 31.1046 16.0002 30 16.0002H29.2388C28.5918 11.4771 24.702 8.00016 20 8.00016H17V6.47299C17.9773 6.0774 18.6667 5.11929 18.6667 4.00016ZM20 10.0002C24.0501 10.0002 27.3333 13.2834 27.3333 17.3335V25.3335C27.3333 27.1744 25.841 28.6668 24 28.6668H8C6.15905 28.6668 4.66667 27.1744 4.66667 25.3335V17.3335C4.66667 13.2834 7.94991 10.0002 12 10.0002H20Z" fill="#18202A"/>
</svg>
