<svg width="32" height="32" viewBox="0 0 32 32" fill="none" xmlns="http://www.w3.org/2000/svg">
<g clip-path="url(#clip0_2294_9965)">
<path d="M28.271 22.0221L28.083 22.201C27.5654 22.6563 26.9215 22.9352 26.2373 22.9987C25.4677 23.0702 24.6977 22.8645 24.0664 22.4188C23.8285 22.2351 23.5644 22.05 23.3038 21.8859C22.7791 21.5553 22.2327 21.2596 21.6685 21.001C21.237 20.7997 20.8921 20.4427 20.7041 20.0006C20.516 19.5584 20.4981 19.0624 20.6539 18.6079L20.8048 17.8825L20.9222 17.2954L20.3465 17.1312L19.8013 16.9858C18.524 16.6686 17.2125 16.5056 15.8948 16.5007C14.3845 16.5063 12.8867 16.7184 11.4385 17.1312L10.7806 17.3187L11.2138 18.5807L11.2698 18.7776C11.3608 19.1755 11.3246 19.594 11.1635 19.973C10.9754 20.4152 10.6305 20.7722 10.1951 20.9752C9.63461 21.2279 9.0857 21.525 8.56018 21.8606L8.2408 22.0571L8.00813 22.214C7.9033 22.2906 7.81119 22.3679 7.72576 22.4533C7.19725 22.8087 6.45078 23.0106 5.70206 22.9505C4.95305 22.8906 4.2481 22.5725 3.70763 22.0508L0.96289 19.306L0.775101 19.1035C0.536831 18.8238 0.348042 18.5066 0.21622 18.1639C0.0514868 17.7354 -0.0205109 17.2769 0.00502517 16.8186C0.0509117 16.0238 0.388463 15.2724 0.953124 14.7094L1.3025 14.36L1.75079 14.0195C5.82021 11.005 10.8213 9.34287 15.9668 9.33354C21.303 9.32387 26.4901 11.0922 30.7091 14.3592C31.0862 14.6449 31.3927 15.003 31.6133 15.4135C31.834 15.8241 31.9636 16.2773 31.9934 16.7424C32.0231 17.2076 31.9523 17.6736 31.7857 18.1089C31.6192 18.5442 31.3608 18.9385 31.0281 19.265L28.271 22.0221Z" fill="#18202A"/>
</g>
<defs>
<clipPath id="clip0_2294_9965">
<rect width="32" height="32" fill="white"/>
</clipPath>
</defs>
</svg>
