<svg width="32" height="32" viewBox="0 0 32 32" fill="none" xmlns="http://www.w3.org/2000/svg">
<g clip-path="url(#clip0_3906_9339)">
<path d="M17.3738 11.2929C17.1862 11.1054 16.9319 11 16.6666 11C16.4014 11 16.1471 11.1054 15.9595 11.2929L12.2929 14.9596C11.9023 15.3501 11.9023 15.9832 12.2929 16.3738C12.6834 16.7643 13.3166 16.7643 13.7071 16.3738L15.6666 14.4142V22.6667C15.6666 23.219 16.1144 23.6667 16.6666 23.6667C17.2189 23.6667 17.6666 23.219 17.6666 22.6667V14.4142L19.6262 16.3738C20.0167 16.7643 20.6499 16.7643 21.0404 16.3738C21.4309 15.9832 21.4309 15.3501 21.0404 14.9596L17.3738 11.2929Z" fill="#18202A"/>
<path fill-rule="evenodd" clip-rule="evenodd" d="M6.66665 4C3.72113 4 1.33331 6.38781 1.33331 9.33333V22.6667C1.33331 25.6122 3.72113 28 6.66665 28H25.3333C28.2788 28 30.6666 25.6122 30.6666 22.6667V12C30.6666 9.05448 28.2788 6.66667 25.3333 6.66667H16L14.5049 5.17157C13.7547 4.42143 12.7373 4 11.6765 4H6.66665ZM28.6666 12C28.6666 10.1591 27.1743 8.66667 25.3333 8.66667H15.1716L13.0907 6.58579C12.7156 6.21071 12.2069 6 11.6765 6H6.66665C4.8257 6 3.33331 7.49238 3.33331 9.33333V22.6667C3.33331 24.5076 4.8257 26 6.66665 26H25.3333C27.1743 26 28.6666 24.5076 28.6666 22.6667V12Z" fill="#18202A"/>
</g>
<defs>
<clipPath id="clip0_3906_9339">
<rect width="32" height="32" fill="white"/>
</clipPath>
</defs>
</svg>
