<svg width="32" height="32" viewBox="0 0 32 32" fill="none" xmlns="http://www.w3.org/2000/svg">
<path fill-rule="evenodd" clip-rule="evenodd" d="M0 3.33301H3.52544C3.9596 3.33301 4.37418 3.51367 4.66975 3.83168C4.69232 3.85596 4.71041 3.88403 4.7232 3.91461L5.32689 5.35823L9.09136 16.1021L7.28056 18.0989C5.92073 19.5984 6.98474 21.9997 9.00903 21.9997H27.3333L26.7916 21.1871C26.2971 20.4453 25.4644 19.9997 24.5728 19.9997H9.00903C8.71985 19.9997 8.56785 19.6566 8.76211 19.4424L10.675 17.333H23.7745C24.7194 17.333 25.5709 16.7632 25.9314 15.8899L29.5084 7.22322C30.1424 5.68724 29.0133 3.99967 27.3516 3.99967H6.9266L6.56836 3.143C6.4646 2.89488 6.31778 2.66707 6.13469 2.47008C5.46072 1.74496 4.51541 1.33301 3.52544 1.33301H0V3.33301ZM10.9411 15.333L7.67086 5.99967H27.3516C27.589 5.99967 27.7503 6.24076 27.6597 6.46018L24.0827 15.1268C24.0312 15.2516 23.9095 15.333 23.7745 15.333H10.9411ZM11.3333 28.6663C12.1177 28.6663 12.6667 28.1173 12.6667 27.333C12.6667 26.5487 12.1177 25.9997 11.3333 25.9997C10.549 25.9997 10 26.5487 10 27.333C10 28.1173 10.549 28.6663 11.3333 28.6663ZM11.3333 30.6663C13.2222 30.6663 14.6667 29.2219 14.6667 27.333C14.6667 25.4441 13.2222 23.9997 11.3333 23.9997C9.44444 23.9997 8 25.4441 8 27.333C8 29.2219 9.44444 30.6663 11.3333 30.6663ZM23.3333 28.6663C24.1177 28.6663 24.6667 28.1173 24.6667 27.333C24.6667 26.5487 24.1177 25.9997 23.3333 25.9997C22.549 25.9997 22 26.5487 22 27.333C22 28.1173 22.549 28.6663 23.3333 28.6663ZM23.3333 30.6663C25.2222 30.6663 26.6667 29.2219 26.6667 27.333C26.6667 25.4441 25.2222 23.9997 23.3333 23.9997C21.4444 23.9997 20 25.4441 20 27.333C20 29.2219 21.4444 30.6663 23.3333 30.6663Z" fill="#18202A"/>
</svg>
