<svg width="32" height="32" viewBox="0 0 32 32" fill="none" xmlns="http://www.w3.org/2000/svg">
<g clip-path="url(#clip0_2294_9015)">
<path fill-rule="evenodd" clip-rule="evenodd" d="M1.33328 8.00016C1.33328 4.31827 4.31805 1.3335 7.99995 1.3335H24C27.6818 1.3335 30.6666 4.31826 30.6666 8.00016V17.673C29.1549 16.6185 27.3163 16.0001 25.3333 16.0001C20.1787 16.0001 16 20.1788 16 25.3334C16 27.3165 16.6184 29.155 17.673 30.6668H7.99995C4.31805 30.6668 1.33328 27.6821 1.33328 24.0002V8.00016ZM9.33328 4.00016V6.66683H6.66662V4.00016H9.33328ZM13.8664 11.526C13.045 11.0286 11.9999 11.6258 11.9999 12.5927V19.3943C11.9999 20.3612 13.045 20.9585 13.8664 20.461L19.4816 17.0602C20.2794 16.577 20.2794 15.41 19.4816 14.9268L13.8664 11.526ZM6.66662 25.3335V28.0002H9.33328V25.3335H6.66662ZM11.9999 4.00016H14.6666V6.66683H11.9999V4.00016ZM14.6666 25.3335H11.9999V28.0002H14.6666V25.3335ZM17.3333 4.00016H20V6.66683H17.3333V4.00016ZM25.3333 4.00016V6.66683H22.6666V4.00016H25.3333Z" fill="#18202A"/>
<path fill-rule="evenodd" clip-rule="evenodd" d="M25.3334 32.0002C29.0153 32.0002 32.0001 29.0154 32.0001 25.3335C32.0001 21.6516 29.0153 18.6668 25.3334 18.6668C21.6515 18.6668 18.6668 21.6516 18.6668 25.3335C18.6668 29.0154 21.6515 32.0002 25.3334 32.0002ZM24.0002 22.6668C24.0002 21.9304 24.5972 21.3334 25.3336 21.3334C26.07 21.3334 26.6669 21.9304 26.6669 22.6668V24H28.0002C28.7366 24 29.3335 24.597 29.3335 25.3334C29.3335 26.0698 28.7366 26.6667 28.0002 26.6667H26.6669V28.0001C26.6669 28.7365 26.07 29.3334 25.3336 29.3334C24.5972 29.3334 24.0002 28.7365 24.0002 28.0001V26.6667H22.6668C21.9305 26.6667 21.3335 26.0698 21.3335 25.3334C21.3335 24.597 21.9305 24 22.6668 24H24.0002V22.6668Z" fill="#18202A"/>
</g>
<defs>
<clipPath id="clip0_2294_9015">
<rect width="32" height="32" fill="white"/>
</clipPath>
</defs>
</svg>
