<svg width="32" height="32" viewBox="0 0 32 32" fill="none" xmlns="http://www.w3.org/2000/svg">
<path fill-rule="evenodd" clip-rule="evenodd" d="M12.1596 11.3333H19.8404L16 7.54815L12.1596 11.3333ZM12.1596 20.6666L16 24.4517L19.8404 20.6666H12.1596ZM10.7894 13.3333C9.49476 13.3333 8.84642 11.7906 9.76184 10.8883L14.9725 5.75274C15.5399 5.19342 16.46 5.19342 17.0275 5.75274L22.2381 10.8883C23.1535 11.7906 22.5052 13.3333 21.2106 13.3333H10.7894ZM10.7894 18.6666C9.49476 18.6666 8.84642 20.2093 9.76184 21.1115L14.9725 26.2471C15.5399 26.8064 16.46 26.8064 17.0275 26.2471L22.2381 21.1115C23.1535 20.2093 22.5052 18.6666 21.2106 18.6666H10.7894Z" fill="#18202A"/>
</svg>
