<svg width="32" height="32" viewBox="0 0 32 32" fill="none" xmlns="http://www.w3.org/2000/svg">
<g clip-path="url(#clip0_3394_8792)">
<path d="M25.3333 8.66683C25.3333 9.7714 24.4379 10.6668 23.3333 10.6668C22.2288 10.6668 21.3333 9.7714 21.3333 8.66683C21.3333 7.56226 22.2288 6.66683 23.3333 6.66683C24.4379 6.66683 25.3333 7.56226 25.3333 8.66683Z" fill="#18202A"/>
<path fill-rule="evenodd" clip-rule="evenodd" d="M25.5238 3.07922L25.3193 2.07979C25.2305 1.64542 24.8483 1.3335 24.4049 1.3335H22.2618C21.8184 1.3335 21.4362 1.64542 21.3474 2.07979L21.1429 3.07922C20.579 3.30045 20.0567 3.60458 19.5911 3.97662L18.6218 3.65343C18.2012 3.51319 17.74 3.68821 17.5183 4.07218L16.4467 5.92821C16.225 6.31218 16.3041 6.79912 16.6358 7.09326L17.3998 7.77064C17.356 8.063 17.3334 8.36227 17.3334 8.66683C17.3334 8.9714 17.356 9.27068 17.3998 9.56305L16.6358 10.2404C16.3041 10.5346 16.225 11.0215 16.4467 11.4055L17.5183 13.2615C17.74 13.6455 18.2012 13.8205 18.6218 13.6803L19.5911 13.3571C20.0568 13.7291 20.579 14.0332 21.1429 14.2544L21.3474 15.2539C21.4362 15.6882 21.8184 16.0002 22.2618 16.0002H24.4049C24.8483 16.0002 25.2305 15.6882 25.3193 15.2539L25.5238 14.2544C26.0877 14.0332 26.6099 13.7291 27.0756 13.3571L28.0449 13.6803C28.4655 13.8205 28.9267 13.6455 29.1484 13.2615L30.22 11.4055C30.4417 11.0215 30.3626 10.5346 30.0309 10.2405L29.2669 9.5631C29.3107 9.27071 29.3334 8.97142 29.3334 8.66683C29.3334 8.36225 29.3107 8.06297 29.2669 7.7706L30.0309 7.09323C30.3626 6.79909 30.4417 6.31215 30.22 5.92818L29.1484 4.07214C28.9267 3.68817 28.4655 3.51316 28.0449 3.6534L27.0756 3.97659C26.6099 3.60457 26.0877 3.30045 25.5238 3.07922ZM22.5363 4.2513L21.7273 4.5687C21.3149 4.7305 20.9319 4.95331 20.5898 5.22666L19.9102 5.76961L18.6319 5.34339L18.1044 6.257L19.1107 7.14923L18.9822 8.00762C18.9501 8.2218 18.9334 8.44185 18.9334 8.66683C18.9334 8.89182 18.9501 9.11188 18.9822 9.32606L19.1108 10.1845L18.1044 11.0767L18.6319 11.9903L19.9102 11.5641L20.5898 12.107C20.9319 12.3804 21.3149 12.6032 21.7273 12.765L22.5363 13.0824L22.8059 14.4002H23.8608L24.1304 13.0824L24.9394 12.765C25.3518 12.6032 25.7347 12.3804 26.0769 12.107L26.7565 11.5641L28.0348 11.9903L28.5623 11.0767L27.5559 10.1845L27.6845 9.32609C27.7166 9.1119 27.7334 8.89183 27.7334 8.66683C27.7334 8.44184 27.7166 8.22178 27.6845 8.00759L27.556 7.1492L28.5623 6.25697L28.0348 5.34335L26.7565 5.76958L26.0769 5.22664C25.7348 4.9533 25.3518 4.73049 24.9394 4.5687L24.1304 4.2513L23.8608 2.9335H22.8059L22.5363 4.2513Z" fill="#18202A"/>
<path fill-rule="evenodd" clip-rule="evenodd" d="M10.6667 25.3335C12.8758 25.3335 14.6667 23.5426 14.6667 21.3335C14.6667 19.1244 12.8758 17.3335 10.6667 17.3335C8.45753 17.3335 6.66667 19.1244 6.66667 21.3335C6.66667 23.5426 8.45753 25.3335 10.6667 25.3335ZM10.6667 23.3335C11.7712 23.3335 12.6667 22.4381 12.6667 21.3335C12.6667 20.2289 11.7712 19.3335 10.6667 19.3335C9.5621 19.3335 8.66667 20.2289 8.66667 21.3335C8.66667 22.4381 9.5621 23.3335 10.6667 23.3335Z" fill="#18202A"/>
<path fill-rule="evenodd" clip-rule="evenodd" d="M20.1341 17.7316L18.5197 14.9354C18.2964 14.5486 17.8304 14.3742 17.408 14.5194L15.6925 15.1089C15.0507 14.5901 14.327 14.1685 13.5439 13.8665L13.1971 12.0882C13.1117 11.6499 12.7277 11.3335 12.2811 11.3335H9.05222C8.60563 11.3335 8.22162 11.6499 8.13614 12.0882L7.78937 13.8665C7.00618 14.1685 6.28245 14.5902 5.6406 15.1091L3.92511 14.5195C3.50276 14.3744 3.03678 14.5488 2.81348 14.9355L1.19906 17.7318C0.975763 18.1186 1.05773 18.6093 1.39461 18.9025L2.76227 20.0928C2.69932 20.4972 2.66664 20.9115 2.66664 21.3335C2.66664 21.7556 2.69933 22.17 2.76231 22.5744L1.39471 23.7647C1.05784 24.0579 0.975868 24.5486 1.19916 24.9354L2.81358 27.7316C3.03688 28.1184 3.50286 28.2928 3.92521 28.1476L5.64078 27.5581C6.28258 28.0769 7.00625 28.4985 7.78937 28.8005L8.13614 30.5788C8.22162 31.0171 8.60563 31.3335 9.05222 31.3335H12.2811C12.7277 31.3335 13.1117 31.0171 13.1971 30.5788L13.5439 28.8005C14.327 28.4985 15.0506 28.077 15.6923 27.5582L17.4079 28.1478C17.8303 28.2929 18.2963 28.1186 18.5196 27.7318L20.134 24.9355C20.3573 24.5488 20.2753 24.058 19.9384 23.7648L18.5709 22.5747C18.6339 22.1702 18.6666 21.7557 18.6666 21.3335C18.6666 20.9114 18.634 20.497 18.571 20.0926L19.9385 18.9023C20.2754 18.6091 20.3574 18.1184 20.1341 17.7316ZM9.54074 15.3347L8.50891 15.7326C7.923 15.9585 7.38029 16.2745 6.89802 16.6644L6.03732 17.3602L4.10615 16.6966L3.37049 17.9708L4.90837 19.3092L4.73846 20.4005C4.6913 20.7034 4.66664 21.0149 4.66664 21.3335C4.66664 21.6522 4.69131 21.9637 4.73849 22.2667L4.90843 23.358L3.37059 24.6964L4.10626 25.9706L6.03747 25.3069L6.89816 26.0027C7.38039 26.3926 7.92305 26.7085 8.50891 26.9344L9.54074 27.3323L9.93098 29.3335H11.4023L11.7925 27.3323L12.8244 26.9344C13.4102 26.7085 13.9528 26.3927 14.435 26.0028L15.2957 25.3071L17.2269 25.9708L17.9626 24.6966L16.4248 23.3582L16.5948 22.2668C16.642 21.9638 16.6666 21.6522 16.6666 21.3335C16.6666 21.0148 16.642 20.7033 16.5948 20.4003L16.4248 19.309L17.9627 17.9706L17.227 16.6964L15.2958 17.3601L14.4351 16.6643C13.9529 16.2744 13.4102 15.9585 12.8244 15.7326L11.7925 15.3347L11.4023 13.3335H9.93098L9.54074 15.3347Z" fill="#18202A"/>
</g>
<defs>
<clipPath id="clip0_3394_8792">
<rect width="32" height="32" fill="white"/>
</clipPath>
</defs>
</svg>
