<svg width="32" height="32" viewBox="0 0 32 32" fill="none" xmlns="http://www.w3.org/2000/svg">
<path fill-rule="evenodd" clip-rule="evenodd" d="M3.52544 3.33301H0V1.33301H3.52544C4.51541 1.33301 5.46072 1.74496 6.13469 2.47008C6.31778 2.66707 6.4646 2.89488 6.56836 3.143L6.9266 3.99967H27.3516C29.0133 3.99967 30.1424 5.68724 29.5084 7.22322L25.9314 15.8899C25.5709 16.7632 24.7194 17.333 23.7745 17.333H10.675L8.76211 19.4424C8.56785 19.6566 8.71985 19.9997 9.00903 19.9997H24.5728C25.4645 19.9997 26.2971 20.4453 26.7916 21.1871L27.3333 21.9997H9.00903C6.98474 21.9997 5.92073 19.5985 7.28056 18.0989L9.09136 16.1021L5.32689 5.35823L4.7232 3.91461C4.71041 3.88404 4.69232 3.85596 4.66975 3.83168C4.37418 3.51367 3.9596 3.33301 3.52544 3.33301ZM13.3333 26.6663C13.3333 28.1775 12.1778 29.333 10.6667 29.333C9.15556 29.333 8 28.1775 8 26.6663C8 25.1552 9.15556 23.9997 10.6667 23.9997C12.1778 23.9997 13.3333 25.1552 13.3333 26.6663ZM25.3333 26.6663C25.3333 28.1775 24.1778 29.333 22.6667 29.333C21.1556 29.333 20 28.1775 20 26.6663C20 25.1552 21.1556 23.9997 22.6667 23.9997C24.1778 23.9997 25.3333 25.1552 25.3333 26.6663Z" fill="#18202A"/>
</svg>
