<svg width="32" height="32" viewBox="0 0 32 32" fill="none" xmlns="http://www.w3.org/2000/svg">
<path d="M3.36058 15.588V15.5196L3.3559 15.4513C2.92601 9.1775 8.86119 3.3335 16.0136 3.3335C23.1285 3.3335 28.6666 8.16072 28.6666 15.588C28.6666 15.9906 28.6461 16.3905 28.6056 16.7865L30.1128 19.4507C30.4768 18.2142 30.6666 16.9155 30.6666 15.588C30.6666 6.9335 24.1063 1.3335 16.0136 1.3335C7.92097 1.3335 0.837326 7.95168 1.36058 15.588C1.36058 20.1511 3.18428 23.7235 6.09471 26.0814L6.37485 29.4431C6.45171 30.3655 7.42195 30.9309 8.26232 30.543L11.8969 28.8655C12.373 28.9782 12.8591 29.071 13.354 29.1433C13.292 28.492 13.3677 27.8166 13.6045 27.1586C13.1798 27.0954 12.7638 27.0155 12.3576 26.9193L11.6857 26.7602L8.28886 28.328L8.01692 25.0647L7.35371 24.5274C4.93174 22.5652 3.36058 19.5737 3.36058 15.588Z" fill="#18202A"/>
<path fill-rule="evenodd" clip-rule="evenodd" d="M30.3965 30.6668H17.6035C16.3739 30.6668 15.6032 29.3124 16.2136 28.2243L22.6101 16.8221C23.2249 15.7262 24.7751 15.7262 25.3899 16.8221L31.7864 28.2243C32.3968 29.3124 31.6261 30.6668 30.3965 30.6668ZM24 20.0002C23.4477 20.0002 23 20.4479 23 21.0002V23.6668C23 24.2191 23.4477 24.6668 24 24.6668C24.5523 24.6668 25 24.2191 25 23.6668V21.0002C25 20.4479 24.5523 20.0002 24 20.0002ZM24 26.0002C23.4477 26.0002 23 26.4479 23 27.0002C23 27.5524 23.4477 28.0002 24 28.0002C24.5523 28.0002 25 27.5524 25 27.0002C25 26.4479 24.5523 26.0002 24 26.0002Z" fill="#18202A"/>
</svg>
