<svg width="32" height="32" viewBox="0 0 32 32" fill="none" xmlns="http://www.w3.org/2000/svg">
<path d="M10.7042 3.38641L10.9708 3.39299C11.6776 3.43822 12.3481 3.70351 12.8913 4.15438C13.5024 4.66164 13.9123 5.37042 14.0472 6.15297C14.0866 6.45923 14.144 6.78561 14.2141 7.09415C14.3551 7.71558 14.5372 8.32735 14.7592 8.92518C14.9265 9.38487 14.9177 9.8948 14.7331 10.3527C14.5485 10.8105 14.2011 11.1839 13.7577 11.401L13.1211 11.8184L12.6093 12.1596L12.9083 12.6971L13.1987 13.1989C13.8962 14.3573 14.7306 15.4286 15.6844 16.3894C16.7858 17.4827 18.028 18.4168 19.3801 19.169L19.9944 19.5108L20.5965 18.2793L20.6988 18.0954C20.9218 17.7403 21.2522 17.4624 21.6446 17.3042C22.1025 17.1196 22.6124 17.1108 23.0762 17.2796C23.6671 17.5033 24.2817 17.6862 24.9074 17.8242L25.2821 17.9134L25.5652 17.9685C25.6969 17.989 25.8201 17.9998 25.9442 17.9998C26.5864 18.1256 27.2753 18.5212 27.7757 19.1088C28.2763 19.6965 28.5574 20.4398 28.571 21.2115V25.1998L28.5603 25.4834C28.5302 25.8597 28.4369 26.2273 28.2837 26.5721C28.0921 27.003 27.8113 27.3885 27.4598 27.7029C26.8489 28.247 26.0578 28.5477 25.2385 28.5465H24.7309L24.1578 28.4681C19.0111 27.7017 14.1701 25.2759 10.425 21.5443C6.54108 17.6745 4.05718 12.6211 3.36556 7.18231C3.29916 6.70088 3.33666 6.21796 3.47461 5.75939C3.61254 5.30082 3.84767 4.87735 4.16399 4.5178C4.48029 4.15827 4.87035 3.87111 5.30763 3.67585C5.7449 3.48061 6.2191 3.38188 6.69795 3.38638L10.7042 3.38641Z" fill="#18202A"/>
<path fill-rule="evenodd" clip-rule="evenodd" d="M26.8892 12.6472C26.8892 13.3836 26.2922 13.9805 25.5558 13.9805L19.3467 13.9805C18.6103 13.9805 18.0133 13.3836 18.0133 12.6472V6.43807C18.0133 5.70169 18.6103 5.10473 19.3467 5.10473C20.0831 5.10473 20.68 5.70169 20.68 6.43807V9.42825L25.7176 4.39069C26.2383 3.86999 27.0825 3.86999 27.6032 4.39069C28.1239 4.91139 28.1239 5.75561 27.6032 6.27631L22.5656 11.3139H25.5558C26.2922 11.3139 26.8892 11.9108 26.8892 12.6472Z" fill="#18202A"/>
</svg>
