<svg width="32" height="32" viewBox="0 0 32 32" fill="none" xmlns="http://www.w3.org/2000/svg">
<path d="M18.6666 10.9163C18.6666 12.9997 17.7778 14.6663 16 14.6663C14.2222 14.6663 13.3333 12.9997 13.3333 10.9163C13.3333 9.24967 14.2222 7.99967 16 7.99967C17.7778 7.99967 18.6666 9.24967 18.6666 10.9163Z" fill="#18202A"/>
<path d="M10.6666 11.6663C10.6666 13.333 9.99998 14.6663 8.66665 14.6663C7.33331 14.6663 6.66665 13.333 6.66665 11.6663C6.66665 10.333 7.33331 9.33301 8.66665 9.33301C9.99998 9.33301 10.6666 10.333 10.6666 11.6663Z" fill="#18202A"/>
<path d="M25.3333 11.6663C25.3333 13.333 24.6666 14.6663 23.3333 14.6663C22 14.6663 21.3333 13.333 21.3333 11.6663C21.3333 10.333 22 9.33301 23.3333 9.33301C24.6666 9.33301 25.3333 10.333 25.3333 11.6663Z" fill="#18202A"/>
<path d="M11.1248 16.0854C11.0208 16.1515 10.9182 16.2197 10.817 16.2899C9.25271 17.3754 8.80708 19.3371 9.35135 20.9773C9.39375 21.1051 9.43774 21.2321 9.4833 21.3584C8.76056 21.3457 8.04891 21.2896 7.35108 21.1927C6.52824 21.0785 5.8308 20.5269 5.55011 19.745C5.48566 19.5655 5.42482 19.3843 5.36768 19.2016C5.0734 18.2609 5.44412 17.2277 6.32568 16.7868C7.36418 16.2674 8.54547 15.9736 9.79846 15.9736C10.251 15.9736 10.6943 16.012 11.1248 16.0854Z" fill="#18202A"/>
<path d="M22.649 20.9772C22.6071 21.1035 22.5636 21.2291 22.5187 21.354C23.2601 21.333 23.9895 21.2663 24.704 21.1567C25.5164 21.0321 26.2009 20.481 26.4763 19.7066C26.5231 19.5749 26.5681 19.4423 26.611 19.3089C26.9071 18.3886 26.5659 17.3711 25.7168 16.9089C24.6233 16.3136 23.3582 15.9736 22.0101 15.9736C21.6109 15.9736 21.219 16.0034 20.8367 16.0609C20.9541 16.1347 21.0696 16.2111 21.1833 16.29C22.7476 17.3755 23.1932 19.3371 22.649 20.9772Z" fill="#18202A"/>
<path d="M20.7885 22.0603C20.3565 22.9934 19.4852 23.6458 18.47 23.8088C17.6654 23.9381 16.8404 24.0052 16.0001 24.0052C15.1599 24.0052 14.335 23.9381 13.5304 23.8089C12.5152 23.6458 11.6439 22.9934 11.2119 22.0604C10.9867 21.5738 10.7877 21.0722 10.6168 20.5573C10.2304 19.3928 10.5691 18.0849 11.5772 17.3853C12.8373 16.5109 14.3601 15.9997 16.0001 15.9997C17.6402 15.9997 19.163 16.5109 20.4232 17.3854C21.4312 18.0849 21.7699 19.3928 21.3835 20.5573C21.2127 21.0721 21.0137 21.5738 20.7885 22.0603Z" fill="#18202A"/>
<path fill-rule="evenodd" clip-rule="evenodd" d="M25.3333 3.33301H6.66665C4.8257 3.33301 3.33331 4.82539 3.33331 6.66634V25.333C3.33331 27.174 4.8257 28.6663 6.66665 28.6663H25.3333C27.1743 28.6663 28.6666 27.174 28.6666 25.333V6.66634C28.6666 4.82539 27.1743 3.33301 25.3333 3.33301ZM6.66665 1.33301C3.72113 1.33301 1.33331 3.72082 1.33331 6.66634V25.333C1.33331 28.2785 3.72113 30.6663 6.66665 30.6663H25.3333C28.2788 30.6663 30.6666 28.2785 30.6666 25.333V6.66634C30.6666 3.72082 28.2788 1.33301 25.3333 1.33301H6.66665Z" fill="#18202A"/>
</svg>
