<svg width="32" height="32" viewBox="0 0 32 32" fill="none" xmlns="http://www.w3.org/2000/svg">
<path d="M13.3333 6.66659C13.3333 5.93021 13.9303 5.33325 14.6667 5.33325H25.3333C26.0697 5.33325 26.6667 5.93021 26.6667 6.66659C26.6667 7.40296 26.0697 7.99992 25.3333 7.99992H21.08L14.1697 23.9999H18.6667C19.403 23.9999 20 24.5969 20 25.3333C20 26.0696 19.403 26.6666 18.6667 26.6666H5.33333C4.59695 26.6666 4 26.0696 4 25.3333C4 24.5969 4.59695 23.9999 5.33333 23.9999H11.2649L18.1753 7.99992H14.6667C13.9303 7.99992 13.3333 7.40296 13.3333 6.66659Z" fill="#18202A"/>
</svg>
