<svg width="32" height="32" viewBox="0 0 32 32" fill="none" xmlns="http://www.w3.org/2000/svg">
<path d="M12 8.33317C11.4477 8.33317 11 8.78089 11 9.33317C11 9.88546 11.4477 10.3332 12 10.3332H20C20.5523 10.3332 21 9.88546 21 9.33317C21 8.78089 20.5523 8.33317 20 8.33317H12Z" fill="#18202A"/>
<path d="M12 13.6665C11.4477 13.6665 11 14.1142 11 14.6665C11 15.2188 11.4477 15.6665 12 15.6665H20C20.5523 15.6665 21 15.2188 21 14.6665C21 14.1142 20.5523 13.6665 20 13.6665H12Z" fill="#18202A"/>
<path d="M11 19.9998C11 19.4476 11.4477 18.9998 12 18.9998H20C20.5523 18.9998 21 19.4476 21 19.9998C21 20.5521 20.5523 20.9998 20 20.9998H12C11.4477 20.9998 11 20.5521 11 19.9998Z" fill="#18202A"/>
<path fill-rule="evenodd" clip-rule="evenodd" d="M8.00002 1.6665C7.38118 1.6665 6.78769 1.91234 6.3501 2.34992C5.91252 2.78751 5.66669 3.381 5.66669 3.99984V29.3332C5.66669 29.7078 5.87603 30.0509 6.20911 30.2223C6.54218 30.3937 6.94311 30.3646 7.24793 30.1469L11.3334 27.2287L15.4188 30.1469C15.7665 30.3953 16.2336 30.3953 16.5813 30.1469L20.6667 27.2287L24.7521 30.1469C25.0569 30.3646 25.4579 30.3937 25.7909 30.2223C26.124 30.0509 26.3334 29.7078 26.3334 29.3332V3.99984C26.3334 3.381 26.0875 2.78751 25.6499 2.34992C25.2124 1.91234 24.6189 1.6665 24 1.6665H8.00002ZM7.76432 3.76413C7.82683 3.70162 7.91161 3.6665 8.00002 3.6665H24C24.0884 3.6665 24.1732 3.70162 24.2357 3.76413C24.2982 3.82665 24.3334 3.91143 24.3334 3.99984V27.39L21.2479 25.1861C20.9002 24.9377 20.4331 24.9377 20.0854 25.1861L16 28.1043L11.9146 25.1861C11.5669 24.9377 11.0998 24.9377 10.7521 25.1861L7.66669 27.39V3.99984C7.66669 3.91143 7.70181 3.82665 7.76432 3.76413Z" fill="#18202A"/>
</svg>
