<svg width="32" height="32" viewBox="0 0 32 32" fill="none" xmlns="http://www.w3.org/2000/svg">
<path fill-rule="evenodd" clip-rule="evenodd" d="M9.33333 1.33325C4.91505 1.33325 1.33333 4.91497 1.33333 9.33325V22.6666C1.33333 27.0849 4.91505 30.6666 9.33333 30.6666H22.6667C27.0849 30.6666 30.6667 27.0849 30.6667 22.6666V9.33325C30.6667 4.91497 27.0849 1.33325 22.6667 1.33325H9.33333ZM16 10.6666C16 12.8757 14.2091 14.6666 12 14.6666C9.79085 14.6666 7.99999 12.8757 7.99999 10.6666C7.99999 8.45745 9.79085 6.66659 12 6.66659C14.2091 6.66659 16 8.45745 16 10.6666ZM22 14.6666L28 22.3029V22.6666C28 25.6121 25.6122 27.9999 22.6667 27.9999H9.33333C7.49638 27.9999 5.87635 27.0712 4.91711 25.6578L10.6667 19.3333L14.6667 22.6666L22 14.6666Z" fill="#18202A"/>
</svg>
