<svg width="32" height="32" viewBox="0 0 32 32" fill="none" xmlns="http://www.w3.org/2000/svg">
<path d="M12.3333 3.3335C12.8856 3.3335 13.3333 3.78121 13.3333 4.3335V9.66683C13.3333 11.6919 11.6917 13.3335 9.66665 13.3335H4.33331C3.78103 13.3335 3.33331 12.8858 3.33331 12.3335C3.33331 11.7812 3.78103 11.3335 4.33331 11.3335H9.66665C10.5871 11.3335 11.3333 10.5873 11.3333 9.66683V4.3335C11.3333 3.78121 11.781 3.3335 12.3333 3.3335Z" fill="#18202A"/>
<path d="M3.33331 19.6668C3.33331 19.1145 3.78103 18.6668 4.33331 18.6668H9.66665C11.6917 18.6668 13.3333 20.3085 13.3333 22.3335V27.6668C13.3333 28.2191 12.8856 28.6668 12.3333 28.6668C11.781 28.6668 11.3333 28.2191 11.3333 27.6668V22.3335C11.3333 21.413 10.5871 20.6668 9.66665 20.6668H4.33331C3.78103 20.6668 3.33331 20.2191 3.33331 19.6668Z" fill="#18202A"/>
<path d="M28.6666 12.3335C28.6666 12.8858 28.2189 13.3335 27.6666 13.3335H22.3333C20.3083 13.3335 18.6666 11.6919 18.6666 9.66683V4.3335C18.6666 3.78121 19.1144 3.3335 19.6666 3.3335C20.2189 3.3335 20.6666 3.78121 20.6666 4.3335V9.66683C20.6666 10.5873 21.4128 11.3335 22.3333 11.3335H27.6666C28.2189 11.3335 28.6666 11.7812 28.6666 12.3335Z" fill="#18202A"/>
<path d="M19.6667 28.6668C19.1144 28.6668 18.6667 28.2191 18.6667 27.6668L18.6667 22.1284C18.6667 20.2166 20.2164 18.6668 22.1282 18.6668H27.6666C28.2189 18.6668 28.6666 19.1145 28.6666 19.6668C28.6666 20.2191 28.2189 20.6668 27.6666 20.6668H22.1282C21.321 20.6668 20.6667 21.3212 20.6667 22.1284L20.6667 27.6668C20.6667 28.2191 20.2189 28.6668 19.6667 28.6668Z" fill="#18202A"/>
</svg>
