<svg width="32" height="32" viewBox="0 0 32 32" fill="none" xmlns="http://www.w3.org/2000/svg">
<path fill-rule="evenodd" clip-rule="evenodd" d="M16 30.6666C24.1002 30.6666 30.6667 24.1001 30.6667 15.9999C30.6667 7.89974 24.1002 1.33325 16 1.33325C7.89982 1.33325 1.33333 7.89974 1.33333 15.9999C1.33333 24.1001 7.89982 30.6666 16 30.6666ZM17.3333 9.33325C17.3333 8.59687 16.7364 7.99992 16 7.99992C15.2636 7.99992 14.6667 8.59687 14.6667 9.33325V14.6666H9.33333C8.59695 14.6666 8 15.2635 8 15.9999C8 16.7363 8.59695 17.3333 9.33333 17.3333H14.6667V22.6666C14.6667 23.403 15.2636 23.9999 16 23.9999C16.7364 23.9999 17.3333 23.403 17.3333 22.6666V17.3333H22.6667C23.403 17.3333 24 16.7363 24 15.9999C24 15.2635 23.403 14.6666 22.6667 14.6666H17.3333V9.33325Z" fill="#18202A"/>
</svg>
