<svg width="32" height="32" viewBox="0 0 32 32" fill="none" xmlns="http://www.w3.org/2000/svg">
<path d="M16.7071 1.62615C16.3166 1.23562 15.6834 1.23562 15.2929 1.62615L11.2929 5.62615C10.9023 6.01667 10.9023 6.64983 11.2929 7.04036C11.6834 7.43088 12.3166 7.43088 12.7071 7.04036L15 4.74747V14.9999H4.74753L7.04042 12.707C7.43094 12.3165 7.43094 11.6833 7.04042 11.2928C6.6499 10.9023 6.01673 10.9023 5.62621 11.2928L1.62621 15.2928C1.23568 15.6833 1.23568 16.3165 1.62621 16.707L5.62621 20.707C6.01673 21.0975 6.6499 21.0975 7.04042 20.707C7.43094 20.3165 7.43094 19.6833 7.04042 19.2928L4.74753 16.9999H15V27.2524L12.7071 24.9595C12.3166 24.569 11.6834 24.569 11.2929 24.9595C10.9023 25.35 10.9023 25.9832 11.2929 26.3737L15.2929 30.3737C15.6834 30.7642 16.3166 30.7642 16.7071 30.3737L20.7071 26.3737C21.0976 25.9832 21.0976 25.35 20.7071 24.9595C20.3166 24.569 19.6834 24.569 19.2929 24.9595L17 27.2524V16.9999H27.2524L24.9595 19.2928C24.569 19.6833 24.569 20.3165 24.9595 20.707C25.3501 21.0975 25.9832 21.0975 26.3738 20.707L30.3738 16.707C30.7643 16.3165 30.7643 15.6833 30.3738 15.2928L26.3738 11.2928C25.9832 10.9023 25.3501 10.9023 24.9595 11.2928C24.569 11.6833 24.569 12.3165 24.9595 12.707L27.2524 14.9999H17V4.74747L19.2929 7.04036C19.6834 7.43088 20.3166 7.43088 20.7071 7.04036C21.0976 6.64983 21.0976 6.01667 20.7071 5.62615L16.7071 1.62615Z" fill="#18202A"/>
</svg>
