<svg width="32" height="32" viewBox="0 0 32 32" fill="none" xmlns="http://www.w3.org/2000/svg">
<path d="M17.3333 20.9763C18.1304 20.5152 18.6667 19.6534 18.6667 18.6663C18.6667 17.1936 17.4728 15.9997 16 15.9997C14.5272 15.9997 13.3333 17.1936 13.3333 18.6663C13.3333 19.6534 13.8696 20.5152 14.6667 20.9763V23.9997C14.6667 24.7361 15.2636 25.333 16 25.333C16.7364 25.333 17.3333 24.7361 17.3333 23.9997V20.9763Z" fill="#18202A"/>
<path fill-rule="evenodd" clip-rule="evenodd" d="M21.0505 6.09199C21.2694 6.43245 21.6325 6.66634 22.0373 6.66634C22.7732 6.66634 23.2826 5.93591 22.9112 5.30069C21.5234 2.92732 18.948 1.33301 16.0003 1.33301C11.582 1.33301 8.00026 4.91473 8.00026 9.33301V10.6663C5.05475 10.6663 2.66693 13.0542 2.66693 15.9997V25.333C2.66693 28.2785 5.05475 30.6663 8.00026 30.6663H24.0003C26.9458 30.6663 29.3336 28.2785 29.3336 25.333V15.9997C29.3336 13.0542 26.9458 10.6663 24.0003 10.6663H10.0003V9.33301C10.0003 6.0193 12.6866 3.33301 16.0003 3.33301C18.1201 3.33301 19.9832 4.43234 21.0505 6.09199ZM4.66693 15.9997C4.66693 14.1587 6.15932 12.6663 8.00026 12.6663H24.0003C25.8412 12.6663 27.3336 14.1587 27.3336 15.9997V25.333C27.3336 27.174 25.8412 28.6663 24.0003 28.6663H8.00026C6.15932 28.6663 4.66693 27.174 4.66693 25.333V15.9997Z" fill="#18202A"/>
</svg>
