<svg width="32" height="32" viewBox="0 0 32 32" fill="none" xmlns="http://www.w3.org/2000/svg">
<path fill-rule="evenodd" clip-rule="evenodd" d="M26.6535 9.00698C26.4874 6.95056 24.7658 5.3335 22.6666 5.3335H9.33329C7.23408 5.3335 5.51256 6.95056 5.34643 9.00698C4.59671 9.67212 4.09865 10.6146 4.01309 11.6737C3.18714 12.4064 2.66663 13.4758 2.66663 14.6668V25.3335C2.66663 27.5426 4.45749 29.3335 6.66663 29.3335H25.3333C27.5424 29.3335 29.3333 27.5426 29.3333 25.3335V14.6668C29.3333 13.4758 28.8128 12.4064 27.9868 11.6737C27.9013 10.6146 27.4032 9.67212 26.6535 9.00698ZM24.1602 8.00332C23.7939 7.59232 23.2605 7.3335 22.6666 7.3335H9.33329C8.73944 7.3335 8.20604 7.59232 7.83974 8.00331C7.89289 8.00122 7.9463 8.00016 7.99996 8.00016H24C24.0536 8.00016 24.107 8.00122 24.1602 8.00332ZM6.66663 10.6668C6.61297 10.6668 6.55955 10.6679 6.50641 10.67C6.87271 10.259 7.40611 10.0002 7.99996 10.0002H24C24.5938 10.0002 25.1272 10.259 25.4935 10.67C25.4404 10.6679 25.3869 10.6668 25.3333 10.6668H6.66663ZM16 13.3335C16.7363 13.3335 17.3333 13.9305 17.3333 14.6668V18.6668H21.3333C22.0697 18.6668 22.6666 19.2638 22.6666 20.0002C22.6666 20.7365 22.0697 21.3335 21.3333 21.3335H17.3333V25.3335C17.3333 26.0699 16.7363 26.6668 16 26.6668C15.2636 26.6668 14.6666 26.0699 14.6666 25.3335V21.3335H10.6666C9.93025 21.3335 9.33329 20.7365 9.33329 20.0002C9.33329 19.2638 9.93025 18.6668 10.6666 18.6668H14.6666V14.6668C14.6666 13.9305 15.2636 13.3335 16 13.3335Z" fill="#18202A"/>
</svg>
