<svg width="32" height="32" viewBox="0 0 32 32" fill="none" xmlns="http://www.w3.org/2000/svg">
<path fill-rule="evenodd" clip-rule="evenodd" d="M21.3333 3.33301H22C23.1046 3.33301 24 4.22844 24 5.33301V26.6663C24 27.7709 23.1046 28.6663 22 28.6663H10C8.89543 28.6663 8 27.7709 8 26.6663V5.33301C8 4.22844 8.89543 3.33301 10 3.33301H10.6667V3.99967C10.6667 5.10424 11.5621 5.99967 12.6667 5.99967H19.3333C20.4379 5.99967 21.3333 5.10424 21.3333 3.99967V3.33301ZM6 5.33301C6 3.12387 7.79086 1.33301 10 1.33301H22C24.2091 1.33301 26 3.12387 26 5.33301V26.6663C26 28.8755 24.2091 30.6663 22 30.6663H10C7.79086 30.6663 6 28.8755 6 26.6663V5.33301Z" fill="#18202A"/>
</svg>
