<svg width="32" height="32" viewBox="0 0 32 32" fill="none" xmlns="http://www.w3.org/2000/svg">
<path fill-rule="evenodd" clip-rule="evenodd" d="M6.11442 2.11454C6.61452 1.61445 7.2928 1.3335 8.00004 1.3335H24C24.7073 1.3335 25.3856 1.61445 25.8857 2.11454C26.3858 2.61464 26.6667 3.29292 26.6667 4.00016V29.3335C26.6667 29.8329 26.3876 30.2905 25.9435 30.5191C25.4994 30.7476 24.9648 30.7088 24.5584 30.4185L20.6667 27.6387L16.775 30.4185C16.3114 30.7496 15.6887 30.7496 15.2251 30.4185L11.3334 27.6387L7.44169 30.4185C7.03527 30.7088 6.50069 30.7476 6.0566 30.5191C5.6125 30.2905 5.33337 29.8329 5.33337 29.3335V4.00016C5.33337 3.29292 5.61433 2.61464 6.11442 2.11454ZM10.6667 9.3335C10.6667 8.59712 11.2637 8.00016 12 8.00016H20C20.7364 8.00016 21.3334 8.59712 21.3334 9.3335C21.3334 10.0699 20.7364 10.6668 20 10.6668H12C11.2637 10.6668 10.6667 10.0699 10.6667 9.3335ZM12 13.3335C11.2637 13.3335 10.6667 13.9304 10.6667 14.6668C10.6667 15.4032 11.2637 16.0002 12 16.0002H20C20.7364 16.0002 21.3334 15.4032 21.3334 14.6668C21.3334 13.9304 20.7364 13.3335 20 13.3335H12ZM10.6667 20.0002C10.6667 19.2638 11.2637 18.6668 12 18.6668H20C20.7364 18.6668 21.3334 19.2638 21.3334 20.0002C21.3334 20.7365 20.7364 21.3335 20 21.3335H12C11.2637 21.3335 10.6667 20.7365 10.6667 20.0002Z" fill="#18202A"/>
</svg>
