<svg width="32" height="32" viewBox="0 0 32 32" fill="none" xmlns="http://www.w3.org/2000/svg">
<path fill-rule="evenodd" clip-rule="evenodd" d="M9.33331 11.3333H3.99998C3.63179 11.3333 3.33331 11.6318 3.33331 12V28C3.33331 28.3682 3.63179 28.6667 3.99998 28.6667H9.33331C9.7015 28.6667 9.99998 28.3682 9.99998 28V12C9.99998 11.6318 9.7015 11.3333 9.33331 11.3333ZM3.99998 9.33333C2.52722 9.33333 1.33331 10.5272 1.33331 12V28C1.33331 29.4728 2.52722 30.6667 3.99998 30.6667H9.33331C10.8061 30.6667 12 29.4728 12 28V12C12 10.5272 10.8061 9.33333 9.33331 9.33333H3.99998Z" fill="#18202A"/>
<path fill-rule="evenodd" clip-rule="evenodd" d="M17.1018 0.780121C17.5732 0.438017 18.1497 0.348347 18.6781 0.420844C20.241 0.635247 21.5151 1.24862 22.3943 2.26007C23.2725 3.27035 23.6667 4.57406 23.6667 5.99992C23.6667 7.02077 23.5414 7.7638 23.3811 8.33326H28C30.025 8.33326 31.6666 9.97488 31.6666 11.9999V12.3714C31.6666 16.6666 30.6666 20.9027 28.7458 24.7444L28.6666 24.9027C27.8197 26.5966 26.0884 27.6666 24.1945 27.6666H9.99999L9.99996 10.9999H12.0952C12.7742 10.9999 13.6276 10.5075 14.4971 9.52851C16.0326 7.79977 16.3333 5.0766 16.3333 2.33746C16.3333 1.7052 16.6054 1.14035 17.1018 0.780121ZM18.3333 2.3973C18.3295 5.10516 18.0651 8.52312 15.9924 10.8567C15.0104 11.9623 13.652 12.9999 12.0952 12.9999H12L12 25.6666H24.1945C25.3308 25.6666 26.3696 25.0246 26.8778 24.0082L26.9569 23.8499C28.7389 20.286 29.6666 16.3561 29.6666 12.3714V11.9999C29.6666 11.0794 28.9205 10.3333 28 10.3333H23.3333C22.7079 10.3333 22.0953 10.0883 21.71 9.55012C21.3318 9.02169 21.2905 8.37515 21.4538 7.79895C21.5621 7.41657 21.6666 6.85485 21.6666 5.99992C21.6666 4.94146 21.3788 4.14035 20.8849 3.57219C20.392 3.00522 19.6039 2.56658 18.4063 2.40229C18.3777 2.39836 18.3534 2.39709 18.3333 2.3973Z" fill="#18202A"/>
</svg>
