<svg width="32" height="32" viewBox="0 0 32 32" fill="none" xmlns="http://www.w3.org/2000/svg">
<g clip-path="url(#clip0_3444_9293)">
<path d="M10.6667 1.3335C9.19395 1.3335 8.00004 2.5274 8.00004 4.00016V6.66683C8.00004 7.94219 8.59692 9.07815 9.52657 9.81059C10.6834 10.722 12 11.8607 12 13.3335V16.0002C12 17.4729 10.8061 18.6668 9.33337 18.6668H7.04766C3.89175 18.6668 1.33337 21.2252 1.33337 24.3811C1.33337 25.6435 2.35672 26.6668 3.61909 26.6668H16.7686C16.7015 26.2322 16.6667 25.7869 16.6667 25.3335C16.6667 22.198 18.3318 19.4514 20.826 17.9297C20.3171 17.444 20 16.7591 20 16.0002V13.3335C20 11.8607 21.3167 10.722 22.4735 9.81059C23.4032 9.07815 24 7.94219 24 6.66683V4.00016C24 2.5274 22.8061 1.3335 21.3334 1.3335H10.6667Z" fill="#18202A"/>
<path d="M2.66671 29.3335C2.66671 28.5971 3.26366 28.0002 4.00004 28.0002H17.0847C17.4 28.9762 17.8837 29.8765 18.5016 30.6668H4.00004C3.26366 30.6668 2.66671 30.0699 2.66671 29.3335Z" fill="#18202A"/>
<path d="M24.2762 19.0574C24.7969 19.5781 24.7969 20.4223 24.2762 20.943L23.8857 21.3335H29.3334C30.0698 21.3335 30.6667 21.9304 30.6667 22.6668C30.6667 23.4032 30.0698 24.0002 29.3334 24.0002H20.6667C20.1275 24.0002 19.6413 23.6753 19.4349 23.1771C19.2285 22.6788 19.3426 22.1053 19.7239 21.724L22.3906 19.0574C22.9113 18.5367 23.7555 18.5367 24.2762 19.0574Z" fill="#18202A"/>
<path d="M25.7239 29.724L26.1144 29.3335H20.6667C19.9303 29.3335 19.3333 28.7365 19.3333 28.0002C19.3333 27.2638 19.9303 26.6668 20.6667 26.6668H29.3333C29.8726 26.6668 30.3588 26.9917 30.5652 27.4899C30.7715 27.9881 30.6575 28.5616 30.2761 28.943L27.6095 31.6096C27.0888 32.1303 26.2446 32.1303 25.7239 31.6096C25.2032 31.0889 25.2032 30.2447 25.7239 29.724Z" fill="#18202A"/>
</g>
<defs>
<clipPath id="clip0_3444_9293">
<rect width="32" height="32" fill="white"/>
</clipPath>
</defs>
</svg>
