<svg width="32" height="32" viewBox="0 0 32 32" fill="none" xmlns="http://www.w3.org/2000/svg">
<path fill-rule="evenodd" clip-rule="evenodd" d="M25.3333 3.33301H6.66665C4.8257 3.33301 3.33331 4.82539 3.33331 6.66634V25.333C3.33331 27.174 4.8257 28.6663 6.66665 28.6663H25.3333C27.1743 28.6663 28.6666 27.174 28.6666 25.333V6.66634C28.6666 4.82539 27.1743 3.33301 25.3333 3.33301ZM6.66665 1.33301C3.72113 1.33301 1.33331 3.72082 1.33331 6.66634V25.333C1.33331 28.2785 3.72113 30.6663 6.66665 30.6663H25.3333C28.2788 30.6663 30.6666 28.2785 30.6666 25.333V6.66634C30.6666 3.72082 28.2788 1.33301 25.3333 1.33301H6.66665ZM5.33331 7.99967C5.33331 6.52692 6.52722 5.33301 7.99998 5.33301C9.47274 5.33301 10.6666 6.52692 10.6666 7.99967C10.6666 9.47243 9.47274 10.6663 7.99998 10.6663C6.52722 10.6663 5.33331 9.47243 5.33331 7.99967ZM14.3333 6.99967C13.781 6.99967 13.3333 7.44739 13.3333 7.99967C13.3333 8.55196 13.781 8.99967 14.3333 8.99967H25C25.5523 8.99967 26 8.55196 26 7.99967C26 7.44739 25.5523 6.99967 25 6.99967H14.3333ZM7.99998 14.6663H24C24.3682 14.6663 24.6666 14.9648 24.6666 15.333V23.9997C24.6666 24.3679 24.3682 24.6663 24 24.6663H7.99998C7.63179 24.6663 7.33331 24.3679 7.33331 23.9997V15.333C7.33331 14.9648 7.63179 14.6663 7.99998 14.6663ZM5.33331 15.333C5.33331 13.8602 6.52722 12.6663 7.99998 12.6663H24C25.4727 12.6663 26.6666 13.8602 26.6666 15.333V23.9997C26.6666 25.4724 25.4727 26.6663 24 26.6663H7.99998C6.52722 26.6663 5.33331 25.4724 5.33331 23.9997V15.333Z" fill="#18202A"/>
</svg>
