<svg width="32" height="32" viewBox="0 0 32 32" fill="none" xmlns="http://www.w3.org/2000/svg">
<path fill-rule="evenodd" clip-rule="evenodd" d="M1.33333 6.66683C1.33333 3.72131 3.72114 1.3335 6.66666 1.3335H7.99999L3.99999 6.66683H1.33333ZM7.33333 6.66683L11.3333 1.3335H16L12 6.66683H7.33333ZM15.3333 6.66683L19.3333 1.3335H24L20 6.66683H15.3333ZM23.3333 6.66683L27.1068 1.63547C29.1805 2.36642 30.6667 4.34307 30.6667 6.66683H23.3333ZM1.33333 9.3335H30.6667V25.3335C30.6667 28.279 28.2788 30.6668 25.3333 30.6668H6.66666C3.72114 30.6668 1.33333 28.279 1.33333 25.3335V9.3335ZM13.8664 15.526C13.045 15.0286 12 15.6258 12 16.5927V23.3943C12 24.3612 13.045 24.9585 13.8664 24.461L19.4817 21.0602C20.2794 20.577 20.2794 19.41 19.4817 18.9268L13.8664 15.526Z" fill="#18202A"/>
</svg>
