<svg width="32" height="32" viewBox="0 0 32 32" fill="none" xmlns="http://www.w3.org/2000/svg">
<path fill-rule="evenodd" clip-rule="evenodd" d="M6.66669 5.66699C7.21897 5.66699 7.66669 6.11471 7.66669 6.66699V10.667C7.66669 14.533 10.8007 17.667 14.6667 17.667H24.2525L19.2929 12.7074C18.9024 12.3169 18.9024 11.6837 19.2929 11.2932C19.6834 10.9027 20.3166 10.9027 20.7071 11.2932L27.3738 17.9599C27.7643 18.3504 27.7643 18.9836 27.3738 19.3741L20.7071 26.0408C20.3166 26.4313 19.6834 26.4313 19.2929 26.0408C18.9024 25.6502 18.9024 25.0171 19.2929 24.6266L24.2525 19.667H14.6667C9.69612 19.667 5.66669 15.6376 5.66669 10.667V6.66699C5.66669 6.11471 6.1144 5.66699 6.66669 5.66699Z" fill="#18202A"/>
</svg>
