<svg width="32" height="32" viewBox="0 0 32 32" fill="none" xmlns="http://www.w3.org/2000/svg">
<g clip-path="url(#clip0_3875_8910)">
<g clip-path="url(#clip1_3875_8910)">
<path fill-rule="evenodd" clip-rule="evenodd" d="M14.6667 1.33301C12.4575 1.33301 10.6667 3.12387 10.6667 5.33301V6.66634H3.66669C3.1144 6.66634 2.66669 7.11406 2.66669 7.66634C2.66669 8.21863 3.1144 8.66634 3.66669 8.66634H5.33335V22.6663C5.33335 27.0846 8.91508 30.6663 13.3334 30.6663H18.5016C18.027 30.0594 17.6317 29.3875 17.3309 28.6663H13.3334C10.0196 28.6663 7.33335 25.98 7.33335 22.6663V8.66634H24.6667V16.6916C24.8867 16.6749 25.109 16.6663 25.3334 16.6663C25.7868 16.6663 26.2321 16.7012 26.6667 16.7683V8.66634H28.3334C28.8856 8.66634 29.3334 8.21863 29.3334 7.66634C29.3334 7.11406 28.8856 6.66634 28.3334 6.66634H21.3334V5.33301C21.3334 3.12387 19.5425 1.33301 17.3334 1.33301H14.6667ZM19.3334 5.33301C19.3334 4.22844 18.4379 3.33301 17.3334 3.33301H14.6667C13.5621 3.33301 12.6667 4.22844 12.6667 5.33301V6.66634H19.3334V5.33301Z" fill="#18202A"/>
<path d="M17.6667 21.2878C18.1732 20.3299 18.8539 19.4784 19.6667 18.7754V14.6663C19.6667 14.1141 19.219 13.6663 18.6667 13.6663C18.1144 13.6663 17.6667 14.1141 17.6667 14.6663V21.2878Z" fill="#18202A"/>
<path d="M13.3334 13.6663C13.8856 13.6663 14.3334 14.1141 14.3334 14.6663V22.6663C14.3334 23.2186 13.8856 23.6663 13.3334 23.6663C12.7811 23.6663 12.3334 23.2186 12.3334 22.6663V14.6663C12.3334 14.1141 12.7811 13.6663 13.3334 13.6663Z" fill="#18202A"/>
<path fill-rule="evenodd" clip-rule="evenodd" d="M25.3334 31.9997C29.0153 31.9997 32 29.0149 32 25.333C32 21.6511 29.0153 18.6663 25.3334 18.6663C21.6515 18.6663 18.6667 21.6511 18.6667 25.333C18.6667 29.0149 21.6515 31.9997 25.3334 31.9997ZM26.3334 21.9997C26.3334 21.4474 25.8856 20.9997 25.3334 20.9997C24.7811 20.9997 24.3334 21.4474 24.3334 21.9997V25.333C24.3334 25.5982 24.4387 25.8526 24.6262 26.0401L26.6262 28.0401C27.0168 28.4306 27.6499 28.4306 28.0405 28.0401C28.431 27.6496 28.431 27.0164 28.0405 26.6259L26.3334 24.9188V21.9997Z" fill="#18202A"/>
</g>
</g>
<defs>
<clipPath id="clip0_3875_8910">
<rect width="32" height="32" fill="white"/>
</clipPath>
<clipPath id="clip1_3875_8910">
<rect width="32" height="32" fill="white"/>
</clipPath>
</defs>
</svg>
