<svg width="32" height="32" viewBox="0 0 32 32" fill="none" xmlns="http://www.w3.org/2000/svg">
<path fill-rule="evenodd" clip-rule="evenodd" d="M9.33354 26.6662C9.33354 25.9298 9.93049 25.3328 10.6669 25.3328H28.0002C28.7366 25.3328 29.3335 25.9298 29.3335 26.6662C29.3335 27.4026 28.7366 27.9995 28.0002 27.9995H10.6669C9.93049 27.9995 9.33354 27.4026 9.33354 26.6662Z" fill="#18202A"/>
<path fill-rule="evenodd" clip-rule="evenodd" d="M9.33354 5.33285C9.33354 4.59647 9.93049 3.99951 10.6669 3.99951H28.0002C28.7366 3.99951 29.3335 4.59647 29.3335 5.33285C29.3335 6.06922 28.7366 6.66618 28.0002 6.66618H10.6669C9.93049 6.66618 9.33354 6.06922 9.33354 5.33285Z" fill="#18202A"/>
<path d="M8.94301 12.9423C9.46371 12.4216 9.46371 11.5774 8.94301 11.0567C8.42231 10.536 7.57809 10.536 7.05739 11.0567L3.05739 15.0567C2.83399 15.2801 2.70643 15.5631 2.67473 15.8545C2.65125 16.0703 2.68036 16.2908 2.76205 16.4951C2.81746 16.6338 2.89706 16.765 3.00086 16.8822C3.02126 16.9053 3.04245 16.9277 3.06438 16.9493L7.05739 20.9423C7.57809 21.463 8.42231 21.463 8.94301 20.9423C9.46371 20.4216 9.46371 19.5774 8.94301 19.0567L7.21795 17.3316L28.0008 17.3232C28.7372 17.3229 29.3339 16.7257 29.3336 15.9893C29.3333 15.2529 28.7361 14.6562 27.9997 14.6565L7.22036 14.665L8.94301 12.9423Z" fill="#18202A"/>
</svg>
