<svg width="32" height="32" viewBox="0 0 32 32" fill="none" xmlns="http://www.w3.org/2000/svg">
<g clip-path="url(#clip0_2294_10553)">
<path fill-rule="evenodd" clip-rule="evenodd" d="M16 14.6663C19.5556 14.6663 21.3333 11.333 21.3333 7.16634C21.3333 3.83301 19.5556 1.33301 16 1.33301C12.4444 1.33301 10.6667 3.83301 10.6667 7.16634C10.6667 11.333 12.4444 14.6663 16 14.6663ZM16.0001 17.333C17.297 17.333 18.5507 17.5182 19.7362 17.8635C17.4676 19.5662 16 22.2782 16 25.333C16 27.2921 16.6036 29.1102 17.635 30.6115C17.0947 30.6479 16.5495 30.6663 16 30.6663C13.9368 30.6663 11.9344 30.406 10.0239 29.9164C8.39852 29.4998 7.02094 28.4111 6.26648 26.9123C6.2456 26.8709 6.22484 26.8293 6.20422 26.7876C5.16126 24.6815 5.51592 22.1012 7.29556 20.5661C9.63129 18.5513 12.6734 17.333 16.0001 17.333ZM32 25.333C32 29.0149 29.0152 31.9997 25.3333 31.9997C21.6514 31.9997 18.6667 29.0149 18.6667 25.333C18.6667 21.6511 21.6514 18.6663 25.3333 18.6663C29.0152 18.6663 32 21.6511 32 25.333ZM25.3333 20.3997C24.5873 20.3997 23.9583 20.4509 23.4781 20.5107C22.3634 20.6495 21.6667 21.6128 21.6667 22.6149L21.6667 22.9047C21.6667 23.5271 21.9139 24.1241 22.3541 24.5643C22.7446 24.9548 23.3778 24.9548 23.7683 24.5643C24.1588 24.1737 24.1588 23.5406 23.7683 23.1501C23.7032 23.085 23.6667 22.9967 23.6667 22.9047L23.6667 22.6149C23.6667 22.5611 23.6848 22.5268 23.6977 22.5112C23.7038 22.5037 23.7085 22.5006 23.7107 22.4994C23.7122 22.4985 23.7159 22.4965 23.7252 22.4954C24.1324 22.4447 24.6784 22.3997 25.3333 22.3997C25.9373 22.3997 26.4487 22.4379 26.844 22.4837C26.8843 22.4883 26.914 22.5046 26.9409 22.537C26.9711 22.5736 27 22.6364 27 22.7217C27 23.221 26.709 23.6745 26.2551 23.8826L25.5228 24.2182C24.798 24.5503 24.3333 25.2744 24.3333 26.0717C24.3333 26.6239 24.7811 27.0717 25.3333 27.0717C25.8856 27.0717 26.3333 26.6239 26.3333 26.0717C26.3333 26.0565 26.3422 26.0427 26.356 26.0363L27.0883 25.7007C28.2532 25.1669 29 24.0031 29 22.7217C29 21.6581 28.2599 20.6341 27.0738 20.4969C26.6099 20.4433 26.0214 20.3997 25.3333 20.3997ZM25.3333 30.6663C26.0697 30.6663 26.6667 30.0694 26.6667 29.333C26.6667 28.5966 26.0697 27.9997 25.3333 27.9997C24.597 27.9997 24 28.5966 24 29.333C24 30.0694 24.597 30.6663 25.3333 30.6663Z" fill="#18202A"/>
</g>
<defs>
<clipPath id="clip0_2294_10553">
<rect width="32" height="32" fill="white"/>
</clipPath>
</defs>
</svg>
