<svg width="32" height="32" viewBox="0 0 32 32" fill="none" xmlns="http://www.w3.org/2000/svg">
<g clip-path="url(#clip0_2533_8459)">
<path fill-rule="evenodd" clip-rule="evenodd" d="M20.0001 9.99992C20.0001 13.3333 18.6667 15.9999 16.0001 15.9999C13.3334 15.9999 12.0001 13.3333 12.0001 9.99992C12.0001 7.33325 13.3334 5.33325 16.0001 5.33325C18.6667 5.33325 20.0001 7.33325 20.0001 9.99992ZM18.0001 9.99992C18.0001 11.4406 17.7057 12.5372 17.2967 13.2017C16.9382 13.7844 16.5385 13.9999 16.0001 13.9999C15.4617 13.9999 15.062 13.7844 14.7034 13.2017C14.2944 12.5372 14.0001 11.4406 14.0001 9.99992C14.0001 8.97163 14.2597 8.29355 14.5618 7.91598C14.8158 7.59847 15.2192 7.33325 16.0001 7.33325C16.7809 7.33325 17.1843 7.59847 17.4383 7.91598C17.7404 8.29355 18.0001 8.97163 18.0001 9.99992Z" fill="#18202A"/>
<path d="M17.6153 29.2798C17.2998 28.664 17.0559 28.0056 16.8944 27.3154C16.5978 27.3273 16.2997 27.3333 16 27.3333C14.8896 27.3333 13.7996 27.2511 12.7354 27.093C11.7027 26.9395 10.8291 26.2852 10.4077 25.3636C10.181 24.8679 9.97466 24.3609 9.78978 23.8439C9.35533 22.6289 9.77463 21.4432 10.6173 20.9038C12.1701 19.9098 14.0147 19.3333 16 19.3333C16.9501 19.3333 17.8678 19.4653 18.7369 19.7118C19.2333 19.1299 19.8054 18.6144 20.438 18.1806C19.0652 17.6339 17.5677 17.3333 16 17.3333C13.6212 17.3333 11.4041 18.0254 9.53904 19.2193C7.79272 20.3373 7.20842 22.5649 7.90655 24.5173C8.11072 25.0883 8.33853 25.648 8.58881 26.1953C9.29809 27.7464 10.7543 28.8205 12.4414 29.0712C13.6025 29.2438 14.7908 29.3333 16 29.3333C16.5429 29.3333 17.0815 29.3152 17.6153 29.2798Z" fill="#18202A"/>
<path fill-rule="evenodd" clip-rule="evenodd" d="M10.6667 12.8333C10.6667 15.3333 9.55562 17.3333 7.33339 17.3333C5.11117 17.3333 4.00006 15.3333 4.00006 12.8333C4.00006 10.8333 5.11117 9.33325 7.33339 9.33325C9.55562 9.33325 10.6667 10.8333 10.6667 12.8333ZM8.66673 12.8333C8.66673 13.8238 8.44127 14.5133 8.18243 14.8919C7.97809 15.1907 7.74685 15.3333 7.33339 15.3333C6.91993 15.3333 6.6887 15.1907 6.48435 14.8919C6.22552 14.5133 6.00006 13.8238 6.00006 12.8333C6.00006 12.1863 6.17876 11.8301 6.32821 11.662C6.4464 11.529 6.70032 11.3333 7.33339 11.3333C7.96647 11.3333 8.22039 11.529 8.33858 11.662C8.48803 11.8301 8.66673 12.1863 8.66673 12.8333Z" fill="#18202A"/>
<path fill-rule="evenodd" clip-rule="evenodd" d="M23.1439 16.9455C23.8433 16.7635 24.577 16.6666 25.3334 16.6666C25.726 16.6666 26.1126 16.6927 26.4914 16.7433C27.4972 15.9707 28.0001 14.5151 28.0001 12.8333C28.0001 10.8333 26.889 9.33325 24.6667 9.33325C22.4445 9.33325 21.3334 10.8333 21.3334 12.8333C21.3334 14.6757 21.9369 16.2466 23.1439 16.9455ZM26.0001 12.8333C26.0001 13.8238 25.7746 14.5133 25.5158 14.8919C25.3114 15.1907 25.0802 15.3333 24.6667 15.3333C24.2533 15.3333 24.022 15.1907 23.8177 14.8919C23.5589 14.5133 23.3334 13.8238 23.3334 12.8333C23.3334 12.1863 23.5121 11.8301 23.6615 11.662C23.7797 11.529 24.0337 11.3333 24.6667 11.3333C25.2998 11.3333 25.5537 11.529 25.6719 11.662C25.8214 11.8301 26.0001 12.1863 26.0001 12.8333Z" fill="#18202A"/>
<path d="M7.14681 18.6666C5.54973 18.6727 4.03542 19.0297 2.67699 19.6647C1.12091 20.392 0.493014 22.229 1.01836 23.8643C1.478 25.2952 2.72617 26.3003 4.21769 26.4845C5.00261 26.5814 5.79927 26.6404 6.60578 26.6596C6.39567 26.1782 6.20129 25.6883 6.02332 25.1906C5.95699 25.0051 5.89879 24.8168 5.8488 24.6265C5.3825 24.5985 4.92034 24.556 4.46273 24.4995C3.72085 24.4079 3.13663 23.9191 2.92252 23.2526C2.65014 22.4047 3.03431 21.7054 3.52387 21.4765C4.2821 21.1221 5.10077 20.8741 5.96201 20.7523C6.21412 19.9977 6.60768 19.2868 7.14681 18.6666Z" fill="#18202A"/>
<path fill-rule="evenodd" clip-rule="evenodd" d="M25.3334 31.9999C29.0153 31.9999 32 29.0151 32 25.3333C32 21.6514 29.0153 18.6666 25.3334 18.6666C21.6515 18.6666 18.6667 21.6514 18.6667 25.3333C18.6667 29.0151 21.6515 31.9999 25.3334 31.9999ZM26.3334 22.3333C26.3334 21.781 25.8856 21.3333 25.3334 21.3333C24.7811 21.3333 24.3334 21.781 24.3334 22.3333V24.3333H22.3334C21.7811 24.3333 21.3334 24.781 21.3334 25.3333C21.3334 25.8855 21.7811 26.3333 22.3334 26.3333H24.3334V28.3333C24.3334 28.8855 24.7811 29.3333 25.3334 29.3333C25.8856 29.3333 26.3334 28.8855 26.3334 28.3333V26.3333H28.3334C28.8856 26.3333 29.3334 25.8855 29.3334 25.3333C29.3334 24.781 28.8856 24.3333 28.3334 24.3333H26.3334V22.3333Z" fill="#18202A"/>
</g>
<defs>
<clipPath id="clip0_2533_8459">
<rect width="32" height="32" fill="white"/>
</clipPath>
</defs>
</svg>
