<svg width="32" height="32" viewBox="0 0 32 32" fill="none" xmlns="http://www.w3.org/2000/svg">
<path fill-rule="evenodd" clip-rule="evenodd" d="M25.7351 28.1889C26.4537 27.4034 27.0236 26.4708 27.4123 25.4446C27.8009 24.4184 28.0006 23.3186 28 22.208V13.3333H27.9333C27.6245 11.8118 26.2793 10.6667 24.6667 10.6667C24.2498 10.6667 23.8509 10.7432 23.4831 10.8829C22.8919 9.9515 21.8515 9.33333 20.6667 9.33333C20.2498 9.33333 19.8509 9.40984 19.4831 9.54958C19.0059 8.79765 18.2358 8.24987 17.3333 8.06668C17.1179 8.02295 16.895 8 16.6667 8C16.4384 8 16.2154 8.02295 16 8.06668V3.33333C16 1.49238 14.5076 0 12.6667 0C10.8257 0 9.33334 1.49238 9.33334 3.33333V13.3677C8.32745 13.4979 7.38461 13.9935 6.66112 14.7839C5.81095 15.7126 5.33334 16.9723 5.33334 18.2857C5.33299 20.7016 6.02407 23.0571 7.30987 25.0226L8.97209 27.5566C9.60072 28.5178 10.4301 29.3013 11.3915 29.8422C12.3528 30.3831 13.4184 30.6657 14.4997 30.6667H20.2616C21.2782 30.6667 22.2848 30.4478 23.224 30.0227C24.1632 29.5975 25.0164 28.9744 25.7351 28.1889ZM13.3333 14.6667C13.3333 15.403 13.9303 16 14.6667 16C15.403 16 16 15.403 16 14.6667V10.7877L16.5305 10.68C16.5723 10.6716 16.6175 10.6667 16.6667 10.6667C16.9008 10.6667 17.109 10.7854 17.2316 10.9785L17.3333 11.1388V14.6667C17.3333 15.403 17.9303 16 18.6667 16C19.403 16 20 15.403 20 14.6667V12.2058L20.4302 12.0424C20.5001 12.0158 20.5784 12 20.6667 12C20.9008 12 21.109 12.1187 21.2316 12.3119L21.3333 12.4722V14.6667C21.3333 15.403 21.9303 16 22.6667 16C23.403 16 24 15.403 24 14.6667V13.5392L24.4302 13.3757C24.5001 13.3491 24.5784 13.3333 24.6667 13.3333C24.9861 13.3333 25.2584 13.5606 25.32 13.8638L25.3333 13.9297V22.2094C25.3338 23.0008 25.1912 23.7799 24.9184 24.5002C24.6457 25.2204 24.2511 25.8603 23.7676 26.3889C23.2844 26.917 22.7237 27.322 22.1243 27.5934C21.5256 27.8644 20.8935 28 20.2616 28H14.502C13.8874 27.9995 13.2703 27.8395 12.6991 27.5182C12.1263 27.1959 11.6082 26.7153 11.2038 26.097L9.54145 23.5628L9.54068 23.5616C8.5478 22.0433 7.99973 20.1984 8 18.2861C8 17.6075 8.24892 16.9987 8.62812 16.5844C8.94553 16.2377 9.32116 16.0582 9.67553 16.0123L12 15.7116V3.33333C12 2.96514 12.2985 2.66667 12.6667 2.66667C13.0349 2.66667 13.3333 2.96514 13.3333 3.33333V14.6667Z" fill="#18202A"/>
</svg>
