<svg width="32" height="32" viewBox="0 0 32 32" fill="none" xmlns="http://www.w3.org/2000/svg">
<path fill-rule="evenodd" clip-rule="evenodd" d="M17.7417 5.2951C17.7414 5.29549 17.741 5.29587 17.7406 5.29625L7.07099 16.0182L7.06869 16.0205C4.34597 18.7432 4.34597 23.2349 7.06869 25.9576C9.79141 28.6804 14.2831 28.6804 17.0059 25.9576L27.3639 15.5996C27.8846 15.0789 28.7288 15.0789 29.2495 15.5996C29.7702 16.1203 29.7702 16.9645 29.2495 17.4852L18.8915 27.8433C15.1274 31.6074 8.94719 31.6074 5.18307 27.8433C1.41936 24.0795 1.41896 17.9003 5.18186 14.1361C5.18227 14.1357 5.18267 14.1352 5.18307 14.1348L15.8527 3.41294L15.855 3.41063C18.6251 0.640466 23.1313 0.640466 25.9015 3.41063C28.6716 6.1808 28.6716 10.6869 25.9015 13.4571L25.899 13.4596L15.9096 23.3966C15.9091 23.3972 15.9085 23.3977 15.908 23.3983C14.1731 25.1313 11.3571 25.1026 9.59765 23.4165L9.57739 23.3966C7.84269 21.6619 7.87089 18.8446 9.55754 17.0847L9.57996 17.0618L19.2056 7.4885C19.7277 6.96922 20.5719 6.97152 21.0912 7.49364C21.6105 8.01575 21.6082 8.85997 21.0861 9.37925L11.4732 18.9398C10.7669 19.6874 10.794 20.831 11.4532 21.5011C12.2045 22.2107 13.3554 22.1796 14.024 21.511L14.0265 21.5085L24.0158 11.5715C24.0163 11.5711 24.0167 11.5706 24.0171 11.5702C25.7446 9.84133 25.7442 7.02459 24.0158 5.29625C22.2875 3.56786 19.4706 3.56748 17.7417 5.2951Z" fill="#18202A"/>
</svg>
