<svg width="32" height="32" viewBox="0 0 32 32" fill="none" xmlns="http://www.w3.org/2000/svg">
<path fill-rule="evenodd" clip-rule="evenodd" d="M16 9.99967C17.841 9.99967 19.3334 8.50729 19.3334 6.66634C19.3334 4.82539 17.841 3.33301 16 3.33301C14.1591 3.33301 12.6667 4.82539 12.6667 6.66634C12.6667 8.50729 14.1591 9.99967 16 9.99967ZM21.3334 6.66634C21.3334 9.27006 19.4675 11.438 17 11.9061V28.6258C19.9049 28.3896 22.6449 27.1301 24.721 25.054C26.7971 22.9779 28.0566 20.2379 28.2928 17.333H25.3334C24.7811 17.333 24.3334 16.8853 24.3334 16.333C24.3334 15.7807 24.7811 15.333 25.3334 15.333H29.3334C29.8856 15.333 30.3334 15.7807 30.3334 16.333C30.3334 20.1344 28.8232 23.7802 26.1352 26.4682C23.4472 29.1562 19.8015 30.6663 16 30.6663C12.1986 30.6663 8.55284 29.1562 5.86482 26.4682C3.1768 23.7802 1.66669 20.1344 1.66669 16.333C1.66669 16.0678 1.77204 15.8134 1.95958 15.6259C2.14712 15.4384 2.40147 15.333 2.66669 15.333H6.66669C7.21897 15.333 7.66669 15.7807 7.66669 16.333C7.66669 16.8853 7.21897 17.333 6.66669 17.333H3.70726C3.94346 20.2379 5.20296 22.9779 7.27904 25.054C9.35511 27.1301 12.0951 28.3896 15 28.6258V11.9061C12.5325 11.438 10.6667 9.27006 10.6667 6.66634C10.6667 3.72082 13.0545 1.33301 16 1.33301C18.9455 1.33301 21.3334 3.72082 21.3334 6.66634Z" fill="#18202A"/>
</svg>
