<svg width="32" height="32" viewBox="0 0 32 32" fill="none" xmlns="http://www.w3.org/2000/svg">
<path fill-rule="evenodd" clip-rule="evenodd" d="M16 15.9997C18.6667 15.9997 20 13.333 20 9.99967C20 7.33301 18.6667 5.33301 16 5.33301C13.3333 5.33301 12 7.33301 12 9.99967C12 13.333 13.3333 15.9997 16 15.9997ZM17.2967 13.2015C17.7056 12.537 18 11.4404 18 9.99967C18 8.97138 17.7403 8.29331 17.4383 7.91573C17.1843 7.59822 16.7808 7.33301 16 7.33301C15.2192 7.33301 14.8157 7.59822 14.5617 7.91573C14.2597 8.29331 14 8.97138 14 9.99967C14 11.4404 14.2944 12.537 14.7033 13.2015C15.0619 13.7842 15.4616 13.9997 16 13.9997C16.5384 13.9997 16.9381 13.7842 17.2967 13.2015Z" fill="#18202A"/>
<path fill-rule="evenodd" clip-rule="evenodd" d="M19.5587 29.071C21.2457 28.8202 22.702 27.7462 23.4112 26.1951C23.6615 25.6478 23.8893 25.088 24.0935 24.517C24.7916 22.5646 24.2073 20.337 22.461 19.2191C20.5959 18.0252 18.3788 17.333 16 17.333C13.6212 17.333 11.404 18.0252 9.53898 19.2191C7.79266 20.337 7.20836 22.5646 7.90649 24.517C8.11065 25.088 8.33847 25.6478 8.58875 26.1951C9.29803 27.7462 10.7543 28.8202 12.4413 29.071C13.6025 29.2436 14.7908 29.333 16 29.333C17.2092 29.333 18.3975 29.2436 19.5587 29.071ZM16 27.333C17.1104 27.333 18.2005 27.2509 19.2646 27.0927C20.2973 26.9392 21.1709 26.285 21.5924 25.3634C21.8191 24.8676 22.0254 24.3607 22.2103 23.8437C22.6447 22.6286 22.2254 21.443 21.3827 20.9035C19.8299 19.9095 17.9853 19.333 16 19.333C14.0146 19.333 12.1701 19.9095 10.6173 20.9035C9.77457 21.443 9.35527 22.6286 9.78972 23.8437C9.9746 24.3607 10.1809 24.8676 10.4076 25.3634C10.829 26.285 11.7026 26.9392 12.7353 27.0927C13.7995 27.2509 14.8895 27.333 16 27.333Z" fill="#18202A"/>
<path fill-rule="evenodd" clip-rule="evenodd" d="M10.6667 12.833C10.6667 15.333 9.55555 17.333 7.33333 17.333C5.11111 17.333 4 15.333 4 12.833C4 10.833 5.11111 9.33301 7.33333 9.33301C9.55555 9.33301 10.6667 10.833 10.6667 12.833ZM8.66667 12.833C8.66667 13.8235 8.44121 14.5131 8.18237 14.8916C7.97803 15.1905 7.74679 15.333 7.33333 15.333C6.91987 15.333 6.68864 15.1905 6.48429 14.8916C6.22546 14.5131 6 13.8235 6 12.833C6 12.186 6.1787 11.8299 6.32815 11.6617C6.44634 11.5288 6.70026 11.333 7.33333 11.333C7.96641 11.333 8.22032 11.5288 8.33851 11.6617C8.48796 11.8299 8.66667 12.186 8.66667 12.833Z" fill="#18202A"/>
<path fill-rule="evenodd" clip-rule="evenodd" d="M24.6667 17.333C26.8889 17.333 28 15.333 28 12.833C28 10.833 26.8889 9.33301 24.6667 9.33301C22.4444 9.33301 21.3333 10.833 21.3333 12.833C21.3333 15.333 22.4444 17.333 24.6667 17.333ZM25.5157 14.8916C25.7745 14.5131 26 13.8235 26 12.833C26 12.186 25.8213 11.8299 25.6718 11.6617C25.5537 11.5288 25.2997 11.333 24.6667 11.333C24.0336 11.333 23.7797 11.5288 23.6615 11.6617C23.512 11.8299 23.3333 12.186 23.3333 12.833C23.3333 13.8235 23.5588 14.5131 23.8176 14.8916C24.022 15.1905 24.2532 15.333 24.6667 15.333C25.0801 15.333 25.3114 15.1905 25.5157 14.8916Z" fill="#18202A"/>
<path d="M27.9647 26.4236C27.1224 26.544 26.266 26.6206 25.3978 26.6512C25.6066 26.1724 25.7998 25.6853 25.9767 25.1903C26.0452 24.9989 26.105 24.8044 26.1561 24.6078C26.67 24.5705 27.1787 24.5156 27.6817 24.4437C28.358 24.3471 28.8866 23.8964 29.0833 23.2881C29.3314 22.5211 29.001 21.8854 28.5715 21.6592C27.795 21.2501 26.9486 20.9553 26.0531 20.7978C25.8023 20.028 25.4051 19.3026 24.8572 18.6709C26.5315 18.72 28.1089 19.1549 29.5038 19.8897C30.9315 20.6419 31.4828 22.368 30.9863 23.9035C30.5478 25.2594 29.3754 26.222 27.9647 26.4236Z" fill="#18202A"/>
<path d="M2.67693 19.6644C4.03536 19.0295 5.54967 18.6724 7.14675 18.6663C6.60762 19.2866 6.21406 19.9975 5.96195 20.7521C5.10071 20.8738 4.28204 21.1219 3.5238 21.4763C3.03425 21.7051 2.65008 22.4045 2.92246 23.2524C3.13657 23.9189 3.72079 24.4077 4.46267 24.4993C4.92028 24.5558 5.38244 24.5982 5.84873 24.6262C5.89873 24.8165 5.95693 25.0048 6.02326 25.1903C6.20123 25.6881 6.39561 26.1779 6.60572 26.6593C5.79921 26.6401 5.00255 26.5811 4.21763 26.4842C2.72611 26.3001 1.47794 25.2949 1.0183 23.8641C0.492953 22.2287 1.12085 20.3918 2.67693 19.6644Z" fill="#18202A"/>
</svg>
