<svg width="32" height="32" viewBox="0 0 32 32" fill="none" xmlns="http://www.w3.org/2000/svg">
<path fill-rule="evenodd" clip-rule="evenodd" d="M1.33333 9.44944C1.33333 4.96713 4.96696 1.3335 9.44927 1.3335H22.5507C27.033 1.3335 30.6667 4.96713 30.6667 9.44944V16.7538C30.6667 16.948 30.6627 17.1412 30.6548 17.3335H21.971C19.3677 17.3335 17.1535 18.9995 16.3365 21.3235C16.2248 21.3301 16.1126 21.3335 16 21.3335C15.1273 21.3335 14.2767 21.1335 13.5324 20.7614C12.7886 20.3894 12.1862 19.8636 11.7693 19.2504C11.3552 18.6415 10.5259 18.4835 9.91697 18.8975C9.30802 19.3116 9.15002 20.1409 9.56407 20.7498C10.2533 21.7635 11.2146 22.5838 12.3399 23.1465C13.4648 23.709 14.7252 24.0001 16 24.0001V30.6668H9.44927C4.96696 30.6668 1.33333 27.0332 1.33333 22.5509V9.44944ZM12 12.0002C12 13.4729 11.1046 14.6668 10 14.6668C8.89543 14.6668 8 13.4729 8 12.0002C8 10.5274 8.89543 9.3335 10 9.3335C11.1046 9.3335 12 10.5274 12 12.0002ZM22 14.6668C23.1046 14.6668 24 13.4729 24 12.0002C24 10.5274 23.1046 9.3335 22 9.3335C20.8954 9.3335 20 10.5274 20 12.0002C20 13.4729 20.8954 14.6668 22 14.6668Z" fill="#18202A"/>
<path d="M21.971 20.0002H30.2859C28.9681 25.5135 24.3683 29.7523 18.6667 30.5364V23.3045C18.6667 21.4796 20.1461 20.0002 21.971 20.0002Z" fill="#18202A"/>
</svg>
