<svg width="32" height="32" viewBox="0 0 32 32" fill="none" xmlns="http://www.w3.org/2000/svg">
<g clip-path="url(#clip0_3240_8959)">
<path d="M5.49924 22.2514L4.06146 23.6892C3.5809 23.0377 3.21175 22.287 2.98955 21.4577L0.228815 11.1545C-0.724129 7.59808 1.38642 3.9425 4.94286 2.98955L15.2461 0.228816C18.6457 -0.682125 22.136 1.20631 23.2695 4.48114L21.6506 6.10009L21.4792 5.4605C20.8121 2.97099 18.2532 1.49361 15.7637 2.16067L5.4605 4.9214C2.97099 5.58847 1.49361 8.14737 2.16067 10.6369L4.9214 20.9401C5.04919 21.417 5.2464 21.8568 5.49924 22.2514Z" fill="#18202A"/>
<path fill-rule="evenodd" clip-rule="evenodd" d="M30.372 3.05084L25.3938 8.02906L25.9238 8.07543C29.5917 8.39633 32.305 11.6299 31.9841 15.2978L31.0544 25.9238C30.7335 29.5917 27.5 32.305 23.8321 31.9841L13.206 31.0544C10.3183 30.8018 8.02235 28.7439 7.33283 26.09L3.05086 30.372C2.65796 30.7649 2.02093 30.7649 1.62803 30.372C1.23513 29.9791 1.23513 29.3421 1.62803 28.9492L28.9492 1.62801C29.3421 1.23511 29.9791 1.23511 30.372 1.62801C30.7649 2.02091 30.7649 2.65794 30.372 3.05084ZM14.4025 19.6401L12.125 21.2979L15.5902 17.8327C17.1835 17.7064 18.4995 16.4453 18.6434 14.8001L18.6453 14.7776L23.5477 9.87518L25.7495 10.0678C28.317 10.2924 30.2163 12.5559 29.9917 15.1235L29.283 23.2236L24.3267 17.2715L17.5669 22.1495L14.4025 19.6401ZM9.33149 25.8049L14.3507 22.1515L17.5101 24.6569L23.9838 19.9852L28.9964 26.005L29.0374 25.9709C28.7061 28.4253 26.4996 30.2098 24.0064 29.9917L13.3803 29.0621C11.4388 28.8922 9.87933 27.5564 9.33149 25.8049Z" fill="#18202A"/>
<path d="M12.1665 15.5842L16.3973 11.3534C16.1488 11.269 15.8863 11.2128 15.6133 11.1889C13.7793 11.0285 12.1625 12.3851 12.0021 14.219C11.9604 14.696 12.0213 15.1583 12.1665 15.5842Z" fill="#18202A"/>
<path d="M10.0678 13.3803L9.65531 18.0953L7.45519 20.2955L8.07543 13.206C8.39632 9.53814 11.6299 6.82487 15.2978 7.14577L20.1779 7.57273L18.3318 9.41885L15.1235 9.13816C12.5559 8.91353 10.2924 10.8128 10.0678 13.3803Z" fill="#18202A"/>
</g>
<defs>
<clipPath id="clip0_3240_8959">
<rect width="32" height="32" fill="white"/>
</clipPath>
</defs>
</svg>
