<svg width="32" height="32" viewBox="0 0 32 32" fill="none" xmlns="http://www.w3.org/2000/svg">
<path d="M22.023 15.276C22.423 15.6569 22.4384 16.2899 22.0575 16.6898L14.4385 24.6898C14.2434 24.8946 13.9708 25.0072 13.6881 24.9998C13.4054 24.9924 13.1391 24.8657 12.9551 24.651L9.90745 21.0954C9.54803 20.6761 9.59659 20.0448 10.0159 19.6854C10.4352 19.3259 11.0665 19.3745 11.426 19.7938L13.7534 22.5091L20.6092 15.3105C20.9901 14.9106 21.6231 14.8951 22.023 15.276Z" fill="#18202A"/>
<path fill-rule="evenodd" clip-rule="evenodd" d="M5.34649 9.00698C5.51262 6.95056 7.23414 5.3335 9.33335 5.3335H22.6667C24.7659 5.3335 26.4874 6.95056 26.6536 9.00698C27.4033 9.67212 27.9013 10.6146 27.9869 11.6736C28.8128 12.4064 29.3334 13.4758 29.3334 14.6668V25.3335C29.3334 27.5426 27.5425 29.3335 25.3334 29.3335H6.66669C4.45755 29.3335 2.66669 27.5426 2.66669 25.3335V14.6668C2.66669 13.4758 3.1872 12.4064 4.01315 11.6737C4.09871 10.6146 4.59677 9.67212 5.34649 9.00698ZM7.8398 8.00331C8.2061 7.59232 8.7395 7.3335 9.33335 7.3335H22.6667C23.2605 7.3335 23.7939 7.59232 24.1602 8.00332C24.1071 8.00122 24.0537 8.00016 24 8.00016H8.00002C7.94636 8.00016 7.89295 8.00122 7.8398 8.00331ZM6.50647 10.67C6.55962 10.6679 6.61303 10.6668 6.66669 10.6668H25.3334C25.387 10.6668 25.4404 10.6679 25.4936 10.67C25.1273 10.259 24.5939 10.0002 24 10.0002H8.00002C7.40617 10.0002 6.87277 10.259 6.50647 10.67ZM27.3334 14.6668C27.3334 13.5623 26.4379 12.6668 25.3334 12.6668H6.66669C5.56212 12.6668 4.66669 13.5623 4.66669 14.6668V25.3335C4.66669 26.4381 5.56212 27.3335 6.66669 27.3335H25.3334C26.4379 27.3335 27.3334 26.4381 27.3334 25.3335V14.6668Z" fill="#18202A"/>
</svg>
