<svg width="32" height="32" viewBox="0 0 32 32" fill="none" xmlns="http://www.w3.org/2000/svg">
<path d="M20 17.3335C20 19.5426 18.2091 21.3335 16 21.3335C13.7909 21.3335 12 19.5426 12 17.3335C12 15.1244 13.7909 13.3335 16 13.3335C18.2091 13.3335 20 15.1244 20 17.3335Z" fill="#18202A"/>
<path fill-rule="evenodd" clip-rule="evenodd" d="M24.0928 5.3335C23.8734 5.33346 23.6575 5.27933 23.4641 5.17589C23.2706 5.07239 23.1056 4.92272 22.9838 4.74016L21.9012 3.11483C21.5359 2.56692 21.0411 2.11765 20.4605 1.8069C19.8799 1.49616 19.2317 1.33354 18.5732 1.3335H13.4265C12.768 1.33354 12.1197 1.49616 11.5392 1.8069C10.9586 2.11765 10.4637 2.56692 10.0985 3.11483L9.01583 4.74016C8.89403 4.92272 8.72906 5.07239 8.53554 5.17589C8.34214 5.27933 8.12622 5.33346 7.9069 5.3335H7.99999C4.3181 5.3335 1.33333 8.31826 1.33333 12.0002V22.6668C1.33333 26.3487 4.3181 29.3335 8 29.3335H24C27.6819 29.3335 30.6667 26.3487 30.6667 22.6668V12.0002C30.6667 8.31826 27.6819 5.3335 24 5.3335H24.0928ZM22.6667 17.3335C22.6667 21.0154 19.6819 24.0002 16 24.0002C12.3181 24.0002 9.33333 21.0154 9.33333 17.3335C9.33333 13.6516 12.3181 10.6668 16 10.6668C19.6819 10.6668 22.6667 13.6516 22.6667 17.3335Z" fill="#18202A"/>
</svg>
