<svg width="32" height="32" viewBox="0 0 32 32" fill="none" xmlns="http://www.w3.org/2000/svg">
<g clip-path="url(#clip0_2294_12525)">
<path d="M13.7939 0.494379C15.3925 0.259658 16.9911 0.280996 18.5898 0.558393C20.1884 0.83579 21.7018 1.33724 23.1299 2.06274C23.3644 2.19077 23.5242 2.39348 23.6095 2.67088C23.6948 2.92694 23.6734 3.17233 23.5456 3.40705C23.4177 3.64177 23.2258 3.81247 22.97 3.91917C22.7143 4.00452 22.4585 3.98318 22.2027 3.85515C20.9664 3.215 19.6449 2.77757 18.2381 2.54285C16.8526 2.30813 15.4564 2.29746 14.0496 2.51084C12.6642 2.70289 11.332 3.10831 10.053 3.72712C8.79544 4.32459 7.65508 5.10344 6.63195 6.06366C6.44012 6.2557 6.20565 6.35172 5.92855 6.35172C5.65145 6.33039 5.41699 6.22369 5.22515 6.03165C5.03331 5.83961 4.93739 5.60489 4.93739 5.32749C4.95871 5.05009 5.06529 4.81537 5.25712 4.62333C6.42946 3.51374 7.74034 2.60686 9.18978 1.9027C10.6392 1.19854 12.1739 0.729099 13.7939 0.494379ZM4.39386 7.02388C4.62832 7.19458 4.76687 7.41864 4.8095 7.69603C4.85213 7.95209 4.79885 8.18681 4.64964 8.4002C3.64783 9.93655 2.96574 11.5903 2.60338 13.3613C2.24102 15.1324 2.24102 16.9142 2.60338 18.7066C2.66733 18.984 2.6247 19.24 2.47549 19.4747C2.32628 19.7095 2.11313 19.8482 1.83603 19.8908C1.55894 19.9335 1.30315 19.8908 1.06869 19.7628C0.855535 19.6134 0.716986 19.4001 0.653041 19.1227C0.226737 17.0529 0.226737 15.0044 0.653041 12.9772C1.07934 10.8648 1.85735 8.96566 2.98705 7.27994C3.15758 7.04522 3.37073 6.90652 3.62651 6.86384C3.90361 6.82117 4.15939 6.87451 4.39386 7.02388ZM25.9755 3.95117C25.7623 3.78047 25.5172 3.70578 25.2401 3.72712C24.963 3.74846 24.7392 3.86582 24.5687 4.0792C24.3982 4.29258 24.3236 4.53797 24.3449 4.81537C24.3662 5.09277 24.4834 5.31682 24.6966 5.48752C25.8902 6.49042 26.892 7.66403 27.702 9.00833C28.512 10.3526 29.0662 11.793 29.3646 13.3293L29.4285 13.4574C29.5991 14.4816 29.6737 15.4311 29.6524 16.306C29.6524 16.5834 29.7483 16.8181 29.9401 17.0102C30.132 17.2022 30.3664 17.3089 30.6435 17.3302C30.9206 17.3302 31.1551 17.2342 31.3469 17.0422C31.5388 16.8501 31.6453 16.6154 31.6666 16.338C31.6666 15.1217 31.5601 13.9801 31.3469 12.9132L31.3149 12.7852C30.9526 11.0355 30.3131 9.41376 29.3966 7.92008C28.48 6.40507 27.3397 5.0821 25.9755 3.95117ZM16.9911 15.8259C16.9272 15.5485 16.778 15.3351 16.5435 15.1858C16.3304 15.0364 16.0852 14.983 15.8081 15.0257C15.531 15.0684 15.3179 15.2071 15.1687 15.4418C15.0195 15.6765 14.9662 15.9326 15.0088 16.21C15.4991 18.5785 15.4351 20.9364 14.817 23.2836C14.1562 25.6735 13.0372 27.754 11.4598 29.5251C11.2893 29.7384 11.2041 29.9838 11.2041 30.2612C11.2254 30.5386 11.3426 30.7627 11.5558 30.9334C11.7689 31.1254 12.014 31.2108 12.2911 31.1894C12.5682 31.1681 12.792 31.0507 12.9626 30.8374C14.753 28.8102 16.0106 26.463 16.7354 23.7957C17.4388 21.2138 17.524 18.5572 16.9911 15.8259ZM15.0728 11.4409C15.7335 11.2915 16.341 11.2809 16.8952 11.4089C17.5134 11.4942 18.0782 11.7183 18.5898 12.081C19.1227 12.4225 19.5596 12.8599 19.9007 13.3933C20.2417 13.9055 20.4655 14.4709 20.5721 15.0897C20.9771 16.7755 21.105 18.5892 20.9558 20.531C20.8066 22.4301 20.4122 24.3185 19.7728 26.1963C19.1333 28.0527 18.302 29.7384 17.2789 31.2534C17.1297 31.4668 16.9165 31.5949 16.6394 31.6375C16.3837 31.7015 16.1385 31.6589 15.9041 31.5095C15.6696 31.3601 15.531 31.1468 15.4884 30.8694C15.4458 30.592 15.4991 30.3359 15.6483 30.1012C16.5861 28.7355 17.3428 27.2099 17.9183 25.5241C18.4939 23.8171 18.8456 22.11 18.9734 20.403C19.1013 18.6319 18.9841 17.0102 18.6217 15.5378V15.4418C18.5578 15.0791 18.4299 14.759 18.2381 14.4816C18.0462 14.1829 17.8011 13.9375 17.5027 13.7454C17.2256 13.5534 16.8952 13.4253 16.5115 13.3613C16.1492 13.2973 15.8081 13.308 15.4884 13.3933H15.4564C15.1154 13.4574 14.7957 13.5854 14.4973 13.7774C14.1988 13.9695 13.9537 14.2149 13.7619 14.5136C13.57 14.791 13.4422 15.1111 13.3782 15.4738C13.3143 15.8152 13.3143 16.1673 13.3782 16.5301C13.8685 18.9199 13.7406 21.2458 12.9945 23.5077C12.2272 25.8549 10.9909 27.818 9.28569 29.397C9.07254 29.5891 8.82742 29.6744 8.55032 29.6531C8.27322 29.6531 8.04941 29.5571 7.87889 29.365C7.70837 29.173 7.62311 28.9276 7.62311 28.6288C7.62311 28.3514 7.71903 28.1167 7.91086 27.9247C9.38161 26.5377 10.4367 24.8626 11.0762 22.8995C11.7156 20.9151 11.8329 18.9306 11.4279 16.9462C11.3 16.37 11.2893 15.7619 11.3959 15.1217C11.5238 14.4816 11.7583 13.9161 12.0993 13.4253C12.483 12.8706 12.9093 12.4331 13.3782 12.113C13.9537 11.7503 14.5186 11.5262 15.0728 11.4409ZM9.98909 18.6105C9.96778 18.3331 9.85055 18.1091 9.6374 17.9384C9.44556 17.7463 9.21109 17.661 8.93399 17.6823C8.6569 17.7037 8.42243 17.821 8.23059 18.0344C8.03876 18.2265 7.95349 18.4612 7.97481 18.7386C8.06007 20.0402 7.84692 21.3098 7.33535 22.5474C6.82379 23.7637 6.04578 24.788 5.00134 25.6202C4.78819 25.7909 4.67095 26.0149 4.64964 26.2923C4.62832 26.5697 4.70293 26.8151 4.87345 27.0285C5.04397 27.2419 5.25712 27.3592 5.5129 27.3806C5.79 27.4019 6.04578 27.3272 6.28025 27.1565C7.53785 26.1109 8.49703 24.8413 9.1578 23.3476C9.81857 21.854 10.0957 20.2749 9.98909 18.6105ZM15.5524 7.69603C16.5542 7.65336 17.524 7.78139 18.4619 8.08012C19.4211 8.35752 20.295 8.80562 21.0837 9.42443C21.8936 10.0432 22.5544 10.7794 23.066 11.6329C23.5988 12.4651 23.9612 13.372 24.153 14.3536C24.3662 15.4632 24.5047 16.434 24.5687 17.2662C24.59 17.5436 24.5154 17.789 24.3449 18.0024C24.1744 18.2158 23.9505 18.3331 23.6734 18.3545C23.3964 18.3758 23.1512 18.3011 22.9381 18.1304C22.7249 17.9384 22.6077 17.7037 22.5864 17.4263C22.4585 16.2313 22.3306 15.3458 22.2027 14.7697C22.0535 14.0228 21.7764 13.3293 21.3714 12.6892C20.9877 12.049 20.4868 11.4942 19.8687 11.0248C19.2505 10.5554 18.5791 10.2139 17.8544 10.0006C17.151 9.76584 16.4156 9.66982 15.6483 9.7125C14.9022 9.73383 14.1775 9.89387 13.4741 10.1926C12.7707 10.4913 12.1419 10.9074 11.5877 11.4409C11.0549 11.9743 10.6179 12.5825 10.2769 13.2653C9.95712 13.9481 9.76529 14.663 9.70134 15.4098C9.65871 15.6872 9.53082 15.9113 9.31767 16.082C9.12583 16.2527 8.89136 16.3273 8.61427 16.306C8.33717 16.2633 8.11336 16.146 7.94284 15.9539C7.77232 15.7405 7.69771 15.4952 7.71903 15.2178C7.80429 14.2362 8.06007 13.2973 8.48637 12.4011C8.93399 11.5049 9.52016 10.7154 10.2449 10.0326C10.9696 9.32841 11.7902 8.77361 12.7068 8.36819C13.6233 7.96276 14.5719 7.73871 15.5524 7.69603ZM24.6007 20.723C24.622 20.4456 24.5367 20.2109 24.3449 20.0189C24.1744 19.8055 23.9505 19.6881 23.6734 19.6668C23.3964 19.6454 23.1512 19.7308 22.9381 19.9228C22.7462 20.1149 22.6397 20.3496 22.6183 20.627C22.4265 23.6784 21.6698 26.559 20.3483 29.269C20.2417 29.5251 20.231 29.7811 20.3163 30.0372C20.4016 30.2932 20.5614 30.4746 20.7959 30.5813C21.0517 30.7093 21.3075 30.7307 21.5632 30.6453C21.8403 30.56 22.0322 30.3892 22.1388 30.1332C23.5882 27.2099 24.4088 24.0731 24.6007 20.723ZM13.602 5.23147C13.6873 5.50886 13.666 5.76492 13.5381 5.99964C13.4102 6.23436 13.2183 6.3944 12.9626 6.47975C11.7902 6.86384 10.7245 7.43997 9.76529 8.20815C8.8061 8.97633 8.01744 9.89387 7.3993 10.9608C6.78116 12.0064 6.36551 13.1266 6.15236 14.3216C5.93921 15.5165 5.94987 16.7114 6.18433 17.9064L6.21631 18.0024C6.45077 19.176 6.37617 20.3283 5.9925 21.4592C5.60882 22.5688 4.95871 23.497 4.04216 24.2438C3.829 24.4145 3.58388 24.4999 3.30678 24.4999C3.02968 24.4786 2.80588 24.3612 2.63535 24.1478C2.46483 23.9344 2.37957 23.689 2.37957 23.4116C2.40089 23.1342 2.51812 22.8995 2.73127 22.7075C3.34941 22.2167 3.80769 21.5659 4.1061 20.755C4.34057 19.9869 4.39386 19.2293 4.26597 18.4825C4.26597 18.4398 4.25531 18.4078 4.23399 18.3865C3.93558 16.9355 3.91427 15.4845 4.17005 14.0335C4.42583 12.5825 4.92674 11.2168 5.67277 9.93655C6.4188 8.65625 7.36733 7.55733 8.51835 6.63979C9.66937 5.72225 10.9483 5.03942 12.3551 4.59132C12.6109 4.50597 12.856 4.5273 13.0905 4.65533C13.3462 4.78336 13.5168 4.97541 13.602 5.23147ZM16 4.33526C15.7229 4.33526 15.4884 4.43128 15.2966 4.62333C15.1047 4.81537 15.0088 5.05009 15.0088 5.32749C15.0088 5.60489 15.1047 5.85028 15.2966 6.06366C15.4884 6.2557 15.7229 6.35172 16 6.35172C17.151 6.35172 18.27 6.54377 19.3571 6.92786C20.4442 7.31194 21.4354 7.86674 22.3306 8.59224C23.2258 9.31774 23.9612 10.1819 24.5367 11.1848C25.1335 12.1664 25.5492 13.2226 25.7837 14.3536V14.3856C26.1886 16.3914 26.3592 18.4078 26.2952 20.435C26.2526 22.4621 25.9648 24.4572 25.432 26.4203C25.3467 26.6977 25.368 26.9538 25.4959 27.1885C25.6451 27.4232 25.8583 27.5726 26.1354 27.6366C26.4125 27.722 26.6682 27.69 26.9027 27.5406C27.1372 27.4126 27.2864 27.2099 27.3503 26.9325C27.9045 24.7986 28.2136 22.6435 28.2775 20.467C28.3628 18.2691 28.1816 16.1033 27.734 13.9695C27.4569 12.6038 26.956 11.3342 26.2313 10.1606C25.5279 8.96566 24.6433 7.93075 23.5775 7.05589C22.5331 6.18102 21.3501 5.50886 20.0286 5.03942C18.7283 4.56998 17.3855 4.33526 16 4.33526Z" fill="#18202A"/>
</g>
<defs>
<clipPath id="clip0_2294_12525">
<rect width="32" height="32" fill="white"/>
</clipPath>
</defs>
</svg>
