<svg width="32" height="32" viewBox="0 0 32 32" fill="none" xmlns="http://www.w3.org/2000/svg">
<g clip-path="url(#clip0_3289_16707)">
<g clip-path="url(#clip1_3289_16707)">
<path d="M12.6563 10.5262C12.2136 10.8214 12 11.184 12 11.6668C12 12.4032 11.4031 13.0002 10.6667 13.0002C9.93032 13.0002 9.33336 12.4032 9.33336 11.6668C9.33336 10.1496 10.1198 9.0123 11.1771 8.30743C12.1949 7.62891 13.4689 7.3335 14.6667 7.3335C17.6591 7.3335 20 9.52212 20 12.3335C20 13.8085 19.1155 15.225 18.3707 16.2128C17.7599 17.023 17.0593 17.771 16.6193 18.2407C16.4992 18.369 16.3985 18.4765 16.3244 18.5588C15.8293 19.1089 14.7441 20.2724 13.7498 21.3335H18.6667C19.4031 21.3335 20 21.9304 20 22.6668C20 23.4032 19.4031 24.0002 18.6667 24.0002H10.6667C10.1345 24.0002 9.65329 23.6837 9.44246 23.195C9.23162 22.7064 9.33156 22.1392 9.6967 21.752L10.2813 21.1314C10.6386 20.7517 11.1256 20.2337 11.6443 19.6804C12.6868 18.5686 13.8428 17.3299 14.3423 16.7749C14.4602 16.6438 14.5953 16.4994 14.7423 16.3423C15.1818 15.8724 15.728 15.2884 16.2414 14.6075C16.9592 13.6554 17.3334 12.8585 17.3334 12.3335C17.3334 11.1449 16.341 10.0002 14.6667 10.0002C13.8645 10.0002 13.1385 10.2048 12.6563 10.5262Z" fill="#18202A"/>
<path d="M5.89891 7.45939C6.36742 7.67883 6.6667 8.14949 6.6667 8.66685V22.6668C6.6667 23.4032 6.06975 24.0002 5.33337 24.0002C4.59699 24.0002 4.00003 23.4032 4.00003 22.6668V11.5136L2.18695 13.0245C1.62124 13.4959 0.780491 13.4195 0.309072 12.8538C-0.162347 12.2881 -0.085915 11.4473 0.479788 10.9759L4.47979 7.64255C4.87723 7.31135 5.43039 7.23995 5.89891 7.45939Z" fill="#18202A"/>
<path d="M24.6563 10.5262C24.2136 10.8214 24 11.184 24 11.6668C24 12.4032 23.403 13.0002 22.6667 13.0002C21.9303 13.0002 21.3333 12.4032 21.3333 11.6668C21.3333 10.1496 22.1198 9.0123 23.1771 8.30743C24.1949 7.62891 25.4689 7.3335 26.6667 7.3335C28.0786 7.3335 29.3971 7.73717 30.3893 8.55426C31.4021 9.38838 32 10.5978 32 12.0002C32 13.6051 31.3447 14.8363 30.3228 15.6669C31.3447 16.4974 32 17.7286 32 19.3336C32 20.4278 31.6932 21.338 31.1581 22.0568C30.6341 22.7606 29.9529 23.1993 29.3233 23.473C28.1097 24.0006 26.8862 24.0003 26.6728 24.0002H26.6667C25.6936 24.0002 24.4371 23.8115 23.3736 23.1958C22.2376 22.5381 21.3333 21.3824 21.3333 19.6668C21.3333 18.9305 21.9303 18.3335 22.6667 18.3335C23.403 18.3335 24 18.9305 24 19.6668C24 20.2846 24.2624 20.629 24.7097 20.888C25.2296 21.189 25.9731 21.3336 26.6667 21.3336C26.8049 21.3336 27.5691 21.3279 28.26 21.0275C28.5888 20.8845 28.845 20.6982 29.019 20.4645C29.1818 20.2458 29.3333 19.906 29.3333 19.3336C29.3333 18.4604 28.9849 17.9538 28.4687 17.6096C27.8852 17.2206 27.0067 17.0002 26 17.0002C25.2636 17.0002 24.6667 16.4033 24.6667 15.6669C24.6667 14.9305 25.2636 14.3336 26 14.3336C27.0067 14.3336 27.8852 14.1131 28.4687 13.7241C28.9849 13.38 29.3333 12.8733 29.3333 12.0002C29.3333 11.4025 29.0979 10.9453 28.6941 10.6127C28.2696 10.2632 27.5881 10.0002 26.6667 10.0002C25.8645 10.0002 25.1385 10.2048 24.6563 10.5262Z" fill="#18202A"/>
</g>
</g>
<defs>
<clipPath id="clip0_3289_16707">
<rect width="32" height="32" fill="white"/>
</clipPath>
<clipPath id="clip1_3289_16707">
<rect width="32" height="32" fill="white"/>
</clipPath>
</defs>
</svg>
