<svg width="32" height="32" viewBox="0 0 32 32" fill="none" xmlns="http://www.w3.org/2000/svg">
<path fill-rule="evenodd" clip-rule="evenodd" d="M22.6666 3.33325H9.33331C6.0196 3.33325 3.33331 6.01954 3.33331 9.33325V22.6666C3.33331 25.9803 6.0196 28.6666 9.33331 28.6666H22.6666C25.9804 28.6666 28.6666 25.9803 28.6666 22.6666V9.33325C28.6666 6.01954 25.9804 3.33325 22.6666 3.33325ZM9.33331 1.33325C4.91504 1.33325 1.33331 4.91497 1.33331 9.33325V22.6666C1.33331 27.0849 4.91503 30.6666 9.33331 30.6666H22.6666C27.0849 30.6666 30.6666 27.0849 30.6666 22.6666V9.33325C30.6666 4.91497 27.0849 1.33325 22.6666 1.33325H9.33331Z" fill="#18202A"/>
<path fill-rule="evenodd" clip-rule="evenodd" d="M12 12.6666C13.1045 12.6666 14 11.7712 14 10.6666C14 9.56202 13.1045 8.66659 12 8.66659C10.8954 8.66659 9.99998 9.56202 9.99998 10.6666C9.99998 11.7712 10.8954 12.6666 12 12.6666ZM16 10.6666C16 12.8757 14.2091 14.6666 12 14.6666C9.79084 14.6666 7.99998 12.8757 7.99998 10.6666C7.99998 8.45745 9.79084 6.66659 12 6.66659C14.2091 6.66659 16 8.45745 16 10.6666Z" fill="#18202A"/>
<path fill-rule="evenodd" clip-rule="evenodd" d="M22.0587 13.1227L30.1196 23.3821L28.547 24.6177L21.9413 16.2105L14.7592 24.0455L10.7623 20.7147L4.73992 27.3393L3.26004 25.9939L10.571 17.9518L14.574 21.2877L22.0587 13.1227Z" fill="#18202A"/>
</svg>
