<svg width="32" height="32" viewBox="0 0 32 32" fill="none" xmlns="http://www.w3.org/2000/svg">
<path fill-rule="evenodd" clip-rule="evenodd" d="M3.66669 1.33301C3.1144 1.33301 2.66669 1.78072 2.66669 2.33301C2.66669 2.88529 3.1144 3.33301 3.66669 3.33301H5.33335V26.6663C5.33335 26.9174 5.35649 27.1631 5.40074 27.4013C5.36828 27.5429 5.3471 27.6888 5.33817 27.8379C5.4239 29.3582 6.64153 30.5758 8.16176 30.6615C8.31092 30.6526 8.45677 30.6314 8.59833 30.599C8.83659 30.6432 9.08227 30.6663 9.33335 30.6663H22.6667C22.9178 30.6663 23.1634 30.6432 23.4017 30.599C23.5433 30.6314 23.6891 30.6526 23.8383 30.6615C25.3585 30.5758 26.5761 29.3582 26.6619 27.8379C26.6529 27.6888 26.6317 27.5429 26.5993 27.4014C26.6436 27.1631 26.6667 26.9174 26.6667 26.6663V3.33301H28.3334C28.8856 3.33301 29.3334 2.88529 29.3334 2.33301C29.3334 1.78072 28.8856 1.33301 28.3334 1.33301H26.6667H5.33335H3.66669ZM24.6667 25.417V3.33301H7.33335V25.417C7.54643 25.3622 7.76982 25.333 8.00002 25.333C9.47278 25.333 10.6667 26.5269 10.6667 27.9997C10.6667 28.2299 10.6375 28.4533 10.5827 28.6663H21.4174C21.3625 28.4533 21.3333 28.2299 21.3333 27.9997C21.3333 26.5269 22.5273 25.333 24 25.333C24.2302 25.333 24.4536 25.3622 24.6667 25.417ZM20.7071 16.2926C21.0977 16.6831 21.0977 17.3163 20.7071 17.7068L16.7071 21.7068C16.3166 22.0973 15.6834 22.0973 15.2929 21.7068L11.2929 17.7068C10.9024 17.3163 10.9024 16.6831 11.2929 16.2926C11.6834 15.902 12.3166 15.902 12.7071 16.2926L15 18.5855V10.333C15 9.78072 15.4477 9.33301 16 9.33301C16.5523 9.33301 17 9.78072 17 10.333V18.5855L19.2929 16.2926C19.6834 15.902 20.3166 15.902 20.7071 16.2926Z" fill="#18202A"/>
</svg>
