<svg width="32" height="32" viewBox="0 0 32 32" fill="none" xmlns="http://www.w3.org/2000/svg">
<path d="M0 13.297C0 11.0878 1.79086 9.29696 4 9.29696H5.33333V22.6303H4C1.79086 22.6303 0 20.8394 0 18.6303V13.297Z" fill="#18202A"/>
<path d="M8 23.849V8.07834L14.4179 2.21266C16.557 0.257546 20 1.77514 20 4.67316V27.2544C20 30.1525 16.557 31.6701 14.4178 29.7149L8 23.849Z" fill="#18202A"/>
<path d="M27.3741 9.42709C28.0242 9.08138 28.8316 9.3282 29.1773 9.97838C30.1868 11.877 30.7148 14.064 30.7148 16.2842C30.7148 18.5043 30.1868 20.6914 29.1773 22.5899C28.8316 23.2401 28.0242 23.4869 27.3741 23.1412C26.7239 22.7955 26.477 21.9882 26.8228 21.338C27.6175 19.8433 28.0481 18.0891 28.0481 16.2842C28.0481 14.4792 27.6175 12.725 26.8228 11.2303C26.477 10.5801 26.7239 9.7728 27.3741 9.42709Z" fill="#18202A"/>
<path d="M23.2525 11.7179C23.8623 11.3051 24.6913 11.4647 25.1041 12.0745C25.9381 13.3063 26.3759 14.8147 26.3759 16.3459C26.3759 17.877 25.9381 19.3854 25.1041 20.6172C24.6913 21.227 23.8623 21.3867 23.2525 20.9738C22.6427 20.561 22.4831 19.732 22.8959 19.1223C23.4108 18.3618 23.7092 17.3816 23.7092 16.3459C23.7092 15.3102 23.4108 14.3299 22.8959 13.5695C22.4831 12.9597 22.6427 12.1307 23.2525 11.7179Z" fill="#18202A"/>
</svg>
