<svg width="32" height="32" viewBox="0 0 32 32" fill="none" xmlns="http://www.w3.org/2000/svg">
<path fill-rule="evenodd" clip-rule="evenodd" d="M28.6666 15.9999C28.6666 22.9955 22.9956 28.6666 16 28.6666C9.00437 28.6666 3.33331 22.9955 3.33331 15.9999C3.33331 9.00431 9.00437 3.33325 16 3.33325C22.9956 3.33325 28.6666 9.00431 28.6666 15.9999ZM30.6666 15.9999C30.6666 24.1001 24.1002 30.6666 16 30.6666C7.8998 30.6666 1.33331 24.1001 1.33331 15.9999C1.33331 7.89974 7.8998 1.33325 16 1.33325C24.1002 1.33325 30.6666 7.89974 30.6666 15.9999ZM10.6666 14.9999C10.1144 14.9999 9.66665 15.4476 9.66665 15.9999C9.66665 16.5522 10.1144 16.9999 10.6666 16.9999H21.3333C21.8856 16.9999 22.3333 16.5522 22.3333 15.9999C22.3333 15.4476 21.8856 14.9999 21.3333 14.9999H10.6666Z" fill="#18202A"/>
</svg>
