<svg width="32" height="32" viewBox="0 0 32 32" fill="none" xmlns="http://www.w3.org/2000/svg">
<path fill-rule="evenodd" clip-rule="evenodd" d="M13.3738 8.0406C13.7643 7.65008 13.7643 7.01691 13.3738 6.62639C12.9832 6.23587 12.3501 6.23587 11.9596 6.62639L3.29289 15.2931C2.90237 15.6836 2.90237 16.3167 3.29289 16.7073L11.9596 25.3739C12.3501 25.7645 12.9832 25.7645 13.3738 25.3739C13.7643 24.9834 13.7643 24.3502 13.3738 23.9597L5.41421 16.0002L13.3738 8.0406ZM18.6262 8.0406C18.2357 7.65008 18.2357 7.01691 18.6262 6.62639C19.0168 6.23587 19.6499 6.23587 20.0404 6.62639L28.7071 15.2931C29.0976 15.6836 29.0976 16.3167 28.7071 16.7073L20.0404 25.3739C19.6499 25.7645 19.0168 25.7645 18.6262 25.3739C18.2357 24.9834 18.2357 24.3502 18.6262 23.9597L26.5858 16.0002L18.6262 8.0406Z" fill="#18202A"/>
</svg>
