<svg width="32" height="32" viewBox="0 0 32 32" fill="none" xmlns="http://www.w3.org/2000/svg">
<path fill-rule="evenodd" clip-rule="evenodd" d="M27.5913 8.95152C27.5425 8.83309 27.47 8.72213 27.3738 8.6259C27.1785 8.43064 26.9226 8.33301 26.6667 8.33301C26.6666 8.33301 26.6666 8.33301 26.6666 8.33301H17.3333C16.781 8.33301 16.3333 8.78072 16.3333 9.33301C16.3333 9.88529 16.781 10.333 17.3333 10.333H24.2525L14.6667 19.9188L10.0404 15.2926C9.64992 14.902 9.01675 14.902 8.62623 15.2926L3.29289 20.6259C2.90237 21.0164 2.90237 21.6496 3.29289 22.0401C3.68342 22.4306 4.31658 22.4306 4.70711 22.0401L9.33333 17.4139L13.9596 22.0401C14.3501 22.4306 14.9832 22.4306 15.3738 22.0401L25.6667 11.7472V18.6663C25.6667 19.2186 26.1144 19.6663 26.6667 19.6663C27.219 19.6663 27.6667 19.2186 27.6667 18.6663V9.33439C27.6667 9.33085 27.6667 9.32732 27.6666 9.32378C27.6655 9.19706 27.6404 9.07052 27.5913 8.95152Z" fill="#18202A"/>
</svg>
