<svg width="32" height="32" viewBox="0 0 32 32" fill="none" xmlns="http://www.w3.org/2000/svg">
<path d="M18.6667 18.6663C18.6667 19.6534 18.1304 20.5152 17.3334 20.9763V23.9997C17.3334 24.7361 16.7364 25.333 16 25.333C15.2636 25.333 14.6667 24.7361 14.6667 23.9997V20.9763C13.8696 20.5152 13.3334 19.6534 13.3334 18.6663C13.3334 17.1936 14.5273 15.9997 16 15.9997C17.4728 15.9997 18.6667 17.1936 18.6667 18.6663Z" fill="#18202A"/>
<path fill-rule="evenodd" clip-rule="evenodd" d="M29.3334 15.9997C29.3334 13.0542 26.9455 10.6663 24 10.6663V9.33301C24 4.91473 20.4183 1.33301 16 1.33301C11.5817 1.33301 8.00002 4.91473 8.00002 9.33301V10.6663C5.0545 10.6663 2.66669 13.0542 2.66669 15.9997V25.333C2.66669 28.2785 5.0545 30.6663 8.00002 30.6663H24C26.9455 30.6663 29.3334 28.2785 29.3334 25.333V15.9997ZM16 3.33301C19.3137 3.33301 22 6.0193 22 9.33301V10.6663H10V9.33301C10 6.0193 12.6863 3.33301 16 3.33301ZM4.66669 15.9997C4.66669 14.1587 6.15907 12.6663 8.00002 12.6663H24C25.841 12.6663 27.3334 14.1587 27.3334 15.9997V25.333C27.3334 27.174 25.841 28.6663 24 28.6663H8.00002C6.15907 28.6663 4.66669 27.174 4.66669 25.333V15.9997Z" fill="#18202A"/>
</svg>
