<svg width="32" height="32" viewBox="0 0 32 32" fill="none" xmlns="http://www.w3.org/2000/svg">
<path fill-rule="evenodd" clip-rule="evenodd" d="M24.6667 14.6666C24.6667 20.1895 20.1895 24.6666 14.6667 24.6666C9.14384 24.6666 4.66669 20.1895 4.66669 14.6666C4.66669 9.14378 9.14384 4.66663 14.6667 4.66663C20.1895 4.66663 24.6667 9.14378 24.6667 14.6666ZM14.6667 26.6666C21.2941 26.6666 26.6667 21.294 26.6667 14.6666C26.6667 8.03921 21.2941 2.66663 14.6667 2.66663C8.03927 2.66663 2.66669 8.03921 2.66669 14.6666C2.66669 21.294 8.03927 26.6666 14.6667 26.6666ZM26.0405 24.6262C25.6499 24.2357 25.0168 24.2357 24.6262 24.6262C24.2357 25.0167 24.2357 25.6499 24.6262 26.0404L27.2929 28.7071C27.6834 29.0976 28.3166 29.0976 28.7071 28.7071C29.0977 28.3165 29.0977 27.6834 28.7071 27.2929L26.0405 24.6262ZM15.6667 9.99996C15.6667 9.44767 15.219 8.99996 14.6667 8.99996C14.1144 8.99996 13.6667 9.44767 13.6667 9.99996V13.6666H10C9.44774 13.6666 9.00002 14.1143 9.00002 14.6666C9.00002 15.2189 9.44774 15.6666 10 15.6666H13.6667V19.3333C13.6667 19.8856 14.1144 20.3333 14.6667 20.3333C15.219 20.3333 15.6667 19.8856 15.6667 19.3333V15.6666H19.3334C19.8856 15.6666 20.3334 15.2189 20.3334 14.6666C20.3334 14.1143 19.8856 13.6666 19.3334 13.6666H15.6667V9.99996Z" fill="#18202A"/>
</svg>
