<svg width="32" height="32" viewBox="0 0 32 32" fill="none" xmlns="http://www.w3.org/2000/svg">
<g clip-path="url(#clip0_2294_13735)">
<path fill-rule="evenodd" clip-rule="evenodd" d="M21.3333 7.16634C21.3333 11.333 19.5555 14.6663 16 14.6663C12.4444 14.6663 10.6666 11.333 10.6666 7.16634C10.6666 3.83301 12.4444 1.33301 16 1.33301C19.5555 1.33301 21.3333 3.83301 21.3333 7.16634ZM19.3333 7.16634C19.3333 9.00382 18.9355 10.4558 18.328 11.3813C17.7743 12.2249 17.0434 12.6663 16 12.6663C14.9566 12.6663 14.2257 12.2249 13.672 11.3813C13.0644 10.4558 12.6666 9.00382 12.6666 7.16634C12.6666 5.83323 13.0227 4.88228 13.5214 4.29791C13.9815 3.75872 14.728 3.33301 16 3.33301C17.272 3.33301 18.0185 3.75872 18.4786 4.29791C18.9773 4.88228 19.3333 5.83323 19.3333 7.16634ZM14.6666 28.6267V30.6299C13.0727 30.5426 11.5201 30.2998 10.0239 29.9164C8.39848 29.4998 7.0209 28.4111 6.26645 26.9123C6.04281 26.4681 5.83424 26.0149 5.64141 25.5536C4.82207 23.5932 5.1486 21.2996 6.66574 19.812C9.07082 17.4538 12.3656 15.9997 16 15.9997C18.6933 15.9997 21.2001 16.7982 23.2965 18.1715C23.0705 18.507 22.8795 18.8681 22.7287 19.2494C22.6273 19.5055 22.4467 19.7229 22.2194 19.8567C20.4337 18.6819 18.2976 17.9997 16 17.9997C12.9101 17.9997 10.1123 19.2336 8.06596 21.2401C7.20751 22.0818 6.94084 23.4762 7.48673 24.7823C7.66136 25.2002 7.85028 25.6106 8.05287 26.0131C8.54131 26.9834 9.44125 27.7024 10.5204 27.979C11.8564 28.3214 13.2425 28.5416 14.6666 28.6267ZM26.3333 20.9997C26.3333 20.2633 26.9303 19.6663 27.6666 19.6663C28.403 19.6663 29 20.2633 29 20.9997V21.9997C29 22.552 29.4477 22.9997 30 22.9997C30.5523 22.9997 31 22.552 31 21.9997V20.9997C31 19.1587 29.5076 17.6663 27.6666 17.6663C25.8257 17.6663 24.3333 19.1587 24.3333 20.9997V22.6663H18.3333C17.781 22.6663 17.3333 23.1141 17.3333 23.6663V30.9997C17.3333 31.552 17.781 31.9997 18.3333 31.9997H27C27.5523 31.9997 28 31.552 28 30.9997V23.6663C28 23.1141 27.5523 22.6663 27 22.6663H26.3333V20.9997ZM22.6666 25.6663C23.2189 25.6663 23.6666 26.1141 23.6666 26.6663V27.9997C23.6666 28.552 23.2189 28.9997 22.6666 28.9997C22.1144 28.9997 21.6666 28.552 21.6666 27.9997V26.6663C21.6666 26.1141 22.1144 25.6663 22.6666 25.6663Z" fill="#18202A"/>
</g>
<defs>
<clipPath id="clip0_2294_13735">
<rect width="32" height="32" fill="white"/>
</clipPath>
</defs>
</svg>
