<svg width="32" height="32" viewBox="0 0 32 32" fill="none" xmlns="http://www.w3.org/2000/svg">
<path fill-rule="evenodd" clip-rule="evenodd" d="M23.576 10.8492C23.9178 10.7309 24.2847 10.6667 24.6666 10.6667C26.5076 10.6667 28 12.1591 28 14V22.208C28.0006 23.3186 27.8008 24.4184 27.4122 25.4446C27.0236 26.4708 26.4537 27.4034 25.7351 28.1889C25.0164 28.9744 24.1631 29.5975 23.224 30.0227C22.2848 30.4478 21.2782 30.6667 20.2616 30.6667H14.4997C13.4184 30.6657 12.3528 30.3831 11.3914 29.8422C10.4301 29.3013 9.6007 28.5178 8.97207 27.5566L7.30985 25.0226C6.02405 23.0571 5.33297 20.7016 5.33331 18.2857C5.33331 16.9723 5.81093 15.7126 6.6611 14.7839C7.38458 13.9935 8.32743 13.4979 9.33331 13.3677V3.33333C9.33331 1.49238 10.8257 0 12.6666 0C14.5076 0 16 1.49238 16 3.33333V8.06668C16.2154 8.02295 16.4383 8 16.6666 8C16.895 8 17.1179 8.02295 17.3333 8.06668C18.1801 8.23857 18.9104 8.7315 19.3915 9.41288C19.4569 9.44073 19.5187 9.47534 19.576 9.51583C19.9178 9.39757 20.2847 9.33333 20.6666 9.33333C21.7925 9.33333 22.788 9.8915 23.3915 10.7462C23.4569 10.7741 23.5187 10.8087 23.576 10.8492ZM14 15C14 15.5523 14.4477 16 15 16C15.5523 16 16 15.5523 16 15V10.1075L16.3978 10.0267C16.483 10.0094 16.5727 10 16.6666 10C17.1384 10 17.5547 10.2436 17.7944 10.6213L18 10.9451V15C18 15.5523 18.4477 16 19 16C19.5523 16 20 15.5523 20 15V11.4927L20.1934 11.4192C20.3378 11.3643 20.4963 11.3333 20.6666 11.3333C21.1384 11.3333 21.5547 11.5769 21.7944 11.9546L22 12.2785V15C22 15.5523 22.4477 16 23 16C23.5523 16 24 15.5523 24 15V12.826L24.1934 12.7525C24.3378 12.6977 24.4963 12.6667 24.6666 12.6667C25.403 12.6667 26 13.2636 26 14V22.208C26.0004 23.0792 25.8436 23.9395 25.5418 24.7363C25.2402 25.533 24.8017 26.2461 24.2594 26.8389C23.7174 27.4313 23.0836 27.8909 22.3992 28.2007C21.7154 28.5102 20.9896 28.6667 20.2616 28.6667H14.5014C13.7702 28.666 13.0409 28.4754 12.3722 28.0992C11.7022 27.7222 11.1063 27.1659 10.6459 26.4619L8.98353 23.9277L8.9827 23.9264C7.91675 22.2964 7.33302 20.3241 7.33331 18.286C7.33331 17.4487 7.63941 16.6771 8.13635 16.1343C8.55528 15.6766 9.07271 15.4181 9.58996 15.3512L11.3333 15.1256V3.33333C11.3333 2.59695 11.9303 2 12.6666 2C13.403 2 14 2.59695 14 3.33333V15Z" fill="#18202A"/>
</svg>
