<svg width="32" height="32" viewBox="0 0 32 32" fill="none" xmlns="http://www.w3.org/2000/svg">
<path fill-rule="evenodd" clip-rule="evenodd" d="M12.7071 24.7071C13.0976 24.3166 13.0976 23.6834 12.7071 23.2929C12.3166 22.9024 11.6834 22.9024 11.2929 23.2929L9 25.5858L9 6.41421L11.2929 8.70711C11.6834 9.09763 12.3166 9.09763 12.7071 8.70711C13.0976 8.31658 13.0976 7.68342 12.7071 7.29289L8.70711 3.29289C8.31658 2.90237 7.68342 2.90237 7.29289 3.29289L3.29289 7.29289C2.90237 7.68342 2.90237 8.31658 3.29289 8.70711C3.68342 9.09763 4.31658 9.09763 4.70711 8.70711L7 6.41421L7 25.5858L4.70711 23.2929C4.31658 22.9024 3.68342 22.9024 3.29289 23.2929C2.90237 23.6834 2.90237 24.3166 3.29289 24.7071L7.29289 28.7071C7.68342 29.0976 8.31658 29.0976 8.70711 28.7071L12.7071 24.7071ZM17 8C16.4477 8 16 8.44772 16 9C16 9.55228 16.4477 10 17 10H28.3333C28.8856 10 29.3333 9.55228 29.3333 9C29.3333 8.44772 28.8856 8 28.3333 8H17ZM17 12.6667C16.4477 12.6667 16 13.1144 16 13.6667C16 14.219 16.4477 14.6667 17 14.6667H28.3333C28.8856 14.6667 29.3333 14.219 29.3333 13.6667C29.3333 13.1144 28.8856 12.6667 28.3333 12.6667H17ZM16 18.3333C16 17.781 16.4477 17.3333 17 17.3333H28.3333C28.8856 17.3333 29.3333 17.781 29.3333 18.3333C29.3333 18.8856 28.8856 19.3333 28.3333 19.3333H17C16.4477 19.3333 16 18.8856 16 18.3333ZM17 22C16.4477 22 16 22.4477 16 23C16 23.5523 16.4477 24 17 24H28.3333C28.8856 24 29.3333 23.5523 29.3333 23C29.3333 22.4477 28.8856 22 28.3333 22H17Z" fill="#18202A"/>
</svg>
