<svg width="32" height="32" viewBox="0 0 32 32" fill="none" xmlns="http://www.w3.org/2000/svg">
<path fill-rule="evenodd" clip-rule="evenodd" d="M26.2825 2.96118C26.6754 2.56828 27.3124 2.56828 27.7053 2.96118C28.0982 3.35409 28.0982 3.99111 27.7053 4.38401L21.3333 10.756V14.6665C21.3333 17.612 18.9455 19.9998 16 19.9998C14.8909 19.9998 13.8608 19.6613 13.0075 19.0818L11.5542 20.5351C12.7795 21.4549 14.3023 21.9998 15.9523 21.9998C19.6641 21.9998 22.7318 19.2422 23.2184 15.6639C23.2928 15.1167 23.7333 14.6665 24.2856 14.6665C24.8379 14.6665 25.2913 15.1157 25.2329 15.6649C24.7712 20.0057 21.334 23.4576 17 23.9417V27.3332H21C21.5523 27.3332 22 27.7809 22 28.3332C22 28.8855 21.5523 29.3332 21 29.3332H11C10.4477 29.3332 10 28.8855 10 28.3332C10 27.7809 10.4477 27.3332 11 27.3332H15V23.9518C13.1678 23.7662 11.4921 23.0505 10.1287 21.9606L5.71751 26.3718C5.3246 26.7647 4.68758 26.7647 4.29468 26.3718C3.90177 25.9789 3.90177 25.3419 4.29468 24.949L26.2825 2.96118ZM14.4638 17.6255C14.9235 17.8647 15.446 17.9998 16 17.9998C17.8409 17.9998 19.3333 16.5075 19.3333 14.6665V12.756L14.4638 17.6255Z" fill="#18202A"/>
<path d="M16 2.6665C18.0964 2.6665 19.9103 3.87603 20.7818 5.63531L19.2328 7.18431C18.869 5.73759 17.5596 4.6665 16 4.6665C14.159 4.6665 12.6667 6.15889 12.6667 7.99984V13.7505L10.7587 15.6584C10.6983 15.337 10.6667 15.0055 10.6667 14.6665V7.99984C10.6667 5.05432 13.0545 2.6665 16 2.6665Z" fill="#18202A"/>
<path d="M9.10912 17.308C8.90756 16.7862 8.76397 16.2355 8.68623 15.6639C8.61181 15.1167 8.17125 14.6665 7.61897 14.6665C7.06668 14.6665 6.61334 15.1157 6.67174 15.6649C6.79134 16.7895 7.11067 17.8545 7.59358 18.8236L9.10912 17.308Z" fill="#18202A"/>
</svg>
