<svg width="32" height="32" viewBox="0 0 32 32" fill="none" xmlns="http://www.w3.org/2000/svg">
<path fill-rule="evenodd" clip-rule="evenodd" d="M20.9428 8.94313C20.4221 9.46383 19.5779 9.46383 19.0572 8.94313L16 5.88594L12.9428 8.94313C12.4221 9.46383 11.5779 9.46383 11.0572 8.94313C10.5365 8.42243 10.5365 7.57821 11.0572 7.05752L15.0572 3.05752C15.5779 2.53682 16.4221 2.53682 16.9428 3.05752L20.9428 7.05752C21.4635 7.57822 21.4635 8.42243 20.9428 8.94313ZM2.66666 12.0003C1.93028 12.0003 1.33333 12.5973 1.33333 13.3337C1.33333 14.07 1.93028 14.667 2.66666 14.667H29.3333C30.0697 14.667 30.6667 14.07 30.6667 13.3337C30.6667 12.5973 30.0697 12.0003 29.3333 12.0003H2.66666ZM2.66666 17.3337C1.93028 17.3337 1.33333 17.9306 1.33333 18.667C1.33333 19.4034 1.93028 20.0003 2.66666 20.0003H29.3333C30.0697 20.0003 30.6667 19.4034 30.6667 18.667C30.6667 17.9306 30.0697 17.3337 29.3333 17.3337H2.66666ZM20.9428 24.9431C21.4635 24.4224 21.4635 23.5782 20.9428 23.0575C20.4221 22.5368 19.5779 22.5368 19.0572 23.0575L16 26.1147L12.9428 23.0575C12.4221 22.5368 11.5779 22.5368 11.0572 23.0575C10.5365 23.5782 10.5365 24.4224 11.0572 24.9431L15.0572 28.9431C15.5779 29.4638 16.4221 29.4638 16.9428 28.9431L20.9428 24.9431Z" fill="#18202A"/>
</svg>
