<svg width="32" height="32" viewBox="0 0 32 32" fill="none" xmlns="http://www.w3.org/2000/svg">
<path d="M25.4305 9.51136L21.2808 17.119L22.755 18.5931L26.9046 10.9855L27.2929 11.3738C27.6834 11.7643 28.3166 11.7643 28.7071 11.3738C29.0976 10.9832 29.0976 10.3501 28.7071 9.95956L27.3901 8.6426C27.3797 8.63167 27.369 8.62096 27.358 8.61046L23.3895 4.64201C23.379 4.63101 23.3683 4.62028 23.3574 4.60983L22.0404 3.29289C21.6499 2.90237 21.0167 2.90237 20.6262 3.29289C20.2357 3.68342 20.2357 4.31658 20.6262 4.70711L21.0145 5.09541L13.4069 9.24502L14.881 10.7191L22.4886 6.56952L25.4305 9.51136Z" fill="#18202A"/>
<path fill-rule="evenodd" clip-rule="evenodd" d="M5.68089 5.76179C6.07142 5.37127 6.70458 5.37127 7.09511 5.76179L26.1989 24.8656C26.5894 25.2561 26.5894 25.8893 26.1989 26.2798C25.8084 26.6704 25.1752 26.6704 24.7847 26.2798L20.7584 22.2535L19.5445 24.4789C19.5072 24.5474 19.4629 24.6098 19.4132 24.6657L20.7071 25.9596C21.0976 26.3501 21.0976 26.9833 20.7071 27.3738C20.3166 27.7643 19.6834 27.7643 19.2929 27.3738L12.6666 20.7475L6.04042 27.3738C5.6499 27.7643 5.01673 27.7643 4.62621 27.3738C4.23568 26.9833 4.23568 26.3501 4.62621 25.9596L11.2524 19.3333L4.62621 12.7071C4.23568 12.3166 4.23568 11.6834 4.62621 11.2929C5.01673 10.9024 5.6499 10.9024 6.04042 11.2929L7.33431 12.5868C7.39021 12.537 7.45261 12.4928 7.52113 12.4554L9.74649 11.2416L5.68089 7.17601C5.29037 6.78548 5.29037 6.15232 5.68089 5.76179ZM8.78937 14.0418L11.2206 12.7157L19.2843 20.7794L17.9581 23.2106L8.78937 14.0418Z" fill="#18202A"/>
</svg>
