<svg width="32" height="32" viewBox="0 0 32 32" fill="none" xmlns="http://www.w3.org/2000/svg">
<g clip-path="url(#clip0_2294_9585)">
<path fill-rule="evenodd" clip-rule="evenodd" d="M14.2957 0.615698C15.2836 -0.205233 16.7164 -0.205232 17.7043 0.615698L31.5188 12.0952C32.0852 12.5658 32.1628 13.4065 31.6922 13.9728C31.2215 14.5392 30.3809 14.6168 29.8145 14.1462L28 12.6383V28.3335C28 28.8858 27.5523 29.3335 27 29.3335L18.6667 29.3335V21.0002C18.6667 20.4479 18.2189 20.0002 17.6667 20.0002H14.3333C13.781 20.0002 13.3333 20.4479 13.3333 21.0002V29.3335L4.99999 29.3335C4.44771 29.3335 3.99999 28.8858 3.99999 28.3335V12.6384L2.18549 14.1462C1.61913 14.6168 0.778482 14.5392 0.307853 13.9728C-0.162777 13.4065 -0.0851721 12.5658 0.481187 12.0952L14.2957 0.615698ZM15.9966 2.66948L16 2.66686L16.0037 2.66976L16 2.66667L15.9966 2.66948Z" fill="#18202A"/>
</g>
<defs>
<clipPath id="clip0_2294_9585">
<rect width="32" height="32" fill="white"/>
</clipPath>
</defs>
</svg>
