<svg width="32" height="32" viewBox="0 0 32 32" fill="none" xmlns="http://www.w3.org/2000/svg">
<g clip-path="url(#clip0_2296_15224)">
<path fill-rule="evenodd" clip-rule="evenodd" d="M1.33333 6.66634C1.33333 3.72082 3.72114 1.33301 6.66666 1.33301H25.3333C28.2788 1.33301 30.6667 3.72082 30.6667 6.66634V20.4129C29.8696 18.7797 28.4248 17.5205 26.6667 16.9699V15.9997C26.6667 15.2633 26.0697 14.6663 25.3333 14.6663H6.66666C5.93028 14.6663 5.33333 15.2633 5.33333 15.9997V25.333C5.33333 26.0694 5.93028 26.6663 6.66666 26.6663H17.5734C16.2795 27.7912 16.4568 29.6704 17.5595 30.6663H6.66666C3.72114 30.6663 1.33333 28.2785 1.33333 25.333V6.66634ZM5.33333 7.99967C5.33333 6.52692 6.52724 5.33301 8 5.33301C9.47275 5.33301 10.6667 6.52692 10.6667 7.99967C10.6667 9.47243 9.47275 10.6663 8 10.6663C6.52724 10.6663 5.33333 9.47243 5.33333 7.99967ZM14.6667 6.66634C13.9303 6.66634 13.3333 7.2633 13.3333 7.99967C13.3333 8.73605 13.9303 9.33301 14.6667 9.33301H25.3333C26.0697 9.33301 26.6667 8.73605 26.6667 7.99967C26.6667 7.2633 26.0697 6.66634 25.3333 6.66634H14.6667Z" fill="#18202A"/>
<path fill-rule="evenodd" clip-rule="evenodd" d="M29.3334 23.3337L29.3333 23.3532V26.3337C29.3333 26.9632 29.6297 27.5559 30.1333 27.9337C30.7313 28.3821 30.4141 29.3337 29.6667 29.3337H19.6667C18.9192 29.3337 18.602 28.3821 19.2 27.9337C19.7036 27.556 20 26.9632 20 26.3337V23.3337C20 23.3337 20 23.3337 20 23.3337C20 23.3337 20 23.3337 20 23.3336C20 20.7563 22.0894 18.667 24.6667 18.667C27.244 18.667 29.3334 20.7563 29.3334 23.3337ZM23.3334 30.667C22.9652 30.667 22.6667 30.9655 22.6667 31.3337C22.6667 31.7018 22.9652 32.0003 23.3334 32.0003H26C26.3682 32.0003 26.6667 31.7018 26.6667 31.3337C26.6667 30.9655 26.3682 30.667 26 30.667H23.3334Z" fill="#18202A"/>
</g>
<defs>
<clipPath id="clip0_2296_15224">
<rect width="32" height="32" fill="white"/>
</clipPath>
</defs>
</svg>
