<svg width="32" height="32" viewBox="0 0 32 32" fill="none" xmlns="http://www.w3.org/2000/svg">
<path fill-rule="evenodd" clip-rule="evenodd" d="M10.6667 5.33325C9.93033 5.33325 9.33337 5.93021 9.33337 6.66659V25.3333C9.33337 26.0696 9.93033 26.6666 10.6667 26.6666H19.3334C22.6471 26.6666 25.3334 23.9803 25.3334 20.6666C25.3334 18.0766 23.6923 15.8699 21.3933 15.0295C22.1911 14.0108 22.6667 12.7276 22.6667 11.3333C22.6667 8.01954 19.9804 5.33325 16.6667 5.33325H10.6667ZM16.6667 14.6666C18.5077 14.6666 20 13.1742 20 11.3333C20 9.4923 18.5077 7.99992 16.6667 7.99992H12V14.6666H16.6667ZM22.6667 20.6666C22.6667 18.8256 21.1743 17.3333 19.3334 17.3333H12V23.9999H19.3334C21.1743 23.9999 22.6667 22.5075 22.6667 20.6666Z" fill="#18202A"/>
</svg>
