<svg width="32" height="32" viewBox="0 0 32 32" fill="none" xmlns="http://www.w3.org/2000/svg">
<path d="M5.33329 2.66663C3.86053 2.66663 2.66663 3.86053 2.66663 5.33329V6.66663C2.66663 8.13939 3.86053 9.33329 5.33329 9.33329H26.6666C28.1394 9.33329 29.3333 8.13939 29.3333 6.66663V5.33329C29.3333 3.86053 28.1394 2.66663 26.6666 2.66663H5.33329Z" fill="#18202A"/>
<path fill-rule="evenodd" clip-rule="evenodd" d="M3.99996 13.3333C3.99996 12.5969 4.59691 12 5.33329 12H26.6666C27.403 12 28 12.5969 28 13.3333V25.3333C28 28.2788 25.6121 30.6666 22.6666 30.6666H9.33329C6.38777 30.6666 3.99996 28.2788 3.99996 25.3333V13.3333ZM10.6666 16C10.6666 15.2636 11.2636 14.6666 12 14.6666H20C20.7363 14.6666 21.3333 15.2636 21.3333 16C21.3333 16.7363 20.7363 17.3333 20 17.3333H12C11.2636 17.3333 10.6666 16.7363 10.6666 16Z" fill="#18202A"/>
</svg>
