<svg width="32" height="32" viewBox="0 0 32 32" fill="none" xmlns="http://www.w3.org/2000/svg">
<path fill-rule="evenodd" clip-rule="evenodd" d="M16 3.6665C11.3954 3.6665 7.37869 6.18946 5.25922 9.9332L3.51878 8.94788C5.97877 4.60266 10.6459 1.6665 16 1.6665C23.9161 1.6665 30.3334 8.08376 30.3334 15.9998C30.3334 23.9159 23.9161 30.3332 16 30.3332C8.08394 30.3332 1.66669 23.9159 1.66669 15.9998C1.66669 15.2628 1.7224 14.5382 1.82997 13.8302C1.91292 13.2842 2.45148 12.9457 2.99035 13.0667C3.52923 13.1877 3.86376 13.7223 3.78702 14.2693C3.70773 14.8343 3.66669 15.4121 3.66669 15.9998C3.66669 22.8113 9.18851 28.3332 16 28.3332C22.8115 28.3332 28.3334 22.8113 28.3334 15.9998C28.3334 9.18832 22.8115 3.6665 16 3.6665Z" fill="#18202A"/>
<path fill-rule="evenodd" clip-rule="evenodd" d="M3.32531 3.94049C3.86921 3.84458 4.38787 4.20775 4.48377 4.75164L5.12871 8.40927L8.78633 7.76433C9.33022 7.66842 9.84888 8.03159 9.94478 8.57549C10.0407 9.11938 9.67752 9.63804 9.13362 9.73394L4.4912 10.5525C3.9473 10.6484 3.42864 10.2853 3.33274 9.74137L2.51415 5.09894C2.41825 4.55505 2.78142 4.03639 3.32531 3.94049Z" fill="#18202A"/>
<path d="M15 7.6665C15 7.11422 15.4477 6.6665 16 6.6665C16.5523 6.6665 17 7.11422 17 7.6665V15.9998C17 16.5521 16.5523 16.9998 16 16.9998C15.4477 16.9998 15 16.5521 15 15.9998V7.6665Z" fill="#18202A"/>
<path d="M23 14.9998C23.5523 14.9998 24 15.4476 24 15.9998C24 16.5521 23.5523 16.9998 23 16.9998H16C15.4477 16.9998 15 16.5521 15 15.9998C15 15.4476 15.4477 14.9998 16 14.9998H23Z" fill="#18202A"/>
</svg>
