<svg width="32" height="32" viewBox="0 0 32 32" fill="none" xmlns="http://www.w3.org/2000/svg">
<path fill-rule="evenodd" clip-rule="evenodd" d="M5.33333 5.33838C3.12419 5.33838 1.33333 7.12924 1.33333 9.33838V20.005C1.33333 22.2142 3.12419 24.005 5.33333 24.005H1.33333C0.596954 24.005 0 24.602 0 25.3384C0 26.0748 0.596954 26.6717 1.33333 26.6717H30.6667C31.403 26.6717 32 26.0748 32 25.3384C32 24.602 31.403 24.005 30.6667 24.005H26.6667C28.8758 24.005 30.6667 22.2142 30.6667 20.005V9.33838C30.6667 7.12924 28.8758 5.33838 26.6667 5.33838H5.33333ZM17.3333 10.0064C17.3333 9.41245 18.0514 9.115 18.4714 9.53498L23 14.0636C23.2603 14.3239 23.2603 14.746 23 15.0064L18.4714 19.535C18.0514 19.955 17.3333 19.6575 17.3333 19.0636V16.8698C15.0415 16.8904 13.648 17.1297 12.6242 17.6787C11.5607 18.249 10.8497 19.178 9.95411 20.7037C9.87796 20.8334 9.72437 20.8961 9.57921 20.8566C9.43405 20.8172 9.3333 20.6854 9.3333 20.535C9.3333 17.1896 10.4302 15.0812 12.063 13.8211C13.5855 12.6461 15.5245 12.2478 17.3333 12.2055V10.0064Z" fill="#18202A"/>
</svg>
