<svg width="32" height="32" viewBox="0 0 32 32" fill="none" xmlns="http://www.w3.org/2000/svg">
<path fill-rule="evenodd" clip-rule="evenodd" d="M22.0652 26.3353C22.0652 25.783 21.6175 25.3353 21.0652 25.3353H3.73192C3.17963 25.3353 2.73192 25.783 2.73192 26.3353C2.73192 26.8876 3.17963 27.3353 3.73192 27.3353H21.0652C21.6175 27.3353 22.0652 26.8876 22.0652 26.3353Z" fill="#18202A"/>
<path fill-rule="evenodd" clip-rule="evenodd" d="M22.0652 5.00195C22.0652 4.44967 21.6175 4.00195 21.0652 4.00195H3.73192C3.17963 4.00195 2.73192 4.44967 2.73192 5.00195C2.73192 5.55424 3.17963 6.00195 3.73192 6.00195H21.0652C21.6175 6.00195 22.0652 5.55424 22.0652 5.00195Z" fill="#18202A"/>
<path d="M23.6262 12.3731C23.2357 11.9826 23.2357 11.3494 23.6262 10.9589C24.0167 10.5684 24.6499 10.5684 25.0404 10.9589L29.0404 14.9589C29.2474 15.1658 29.3446 15.4409 29.3323 15.7119C29.3212 16.0263 29.1665 16.3041 28.9318 16.4817L25.0404 20.3731C24.6499 20.7636 24.0167 20.7636 23.6262 20.3731C23.2357 19.9826 23.2357 19.3494 23.6262 18.9589L25.9002 16.6849L3.67599 16.6759C3.11809 16.6756 2.66601 16.2232 2.66624 15.6653C2.66647 15.1074 3.11891 14.6553 3.67681 14.6555L25.9177 14.6646L23.6262 12.3731Z" fill="#18202A"/>
</svg>
