<svg width="32" height="32" viewBox="0 0 32 32" fill="none" xmlns="http://www.w3.org/2000/svg">
<path fill-rule="evenodd" clip-rule="evenodd" d="M6.00002 17.3332C6.7364 17.3332 7.33335 16.7362 7.33335 15.9998C7.33335 15.2635 6.7364 14.6665 6.00002 14.6665C5.26364 14.6665 4.66669 15.2635 4.66669 15.9998C4.66669 16.7362 5.26364 17.3332 6.00002 17.3332ZM6.00002 19.3332C7.84097 19.3332 9.33335 17.8408 9.33335 15.9998C9.33335 14.1589 7.84097 12.6665 6.00002 12.6665C4.15907 12.6665 2.66669 14.1589 2.66669 15.9998C2.66669 17.8408 4.15907 19.3332 6.00002 19.3332Z" fill="#18202A"/>
<path fill-rule="evenodd" clip-rule="evenodd" d="M16 17.3332C16.7364 17.3332 17.3334 16.7362 17.3334 15.9998C17.3334 15.2635 16.7364 14.6665 16 14.6665C15.2636 14.6665 14.6667 15.2635 14.6667 15.9998C14.6667 16.7362 15.2636 17.3332 16 17.3332ZM16 19.3332C17.841 19.3332 19.3334 17.8408 19.3334 15.9998C19.3334 14.1589 17.841 12.6665 16 12.6665C14.1591 12.6665 12.6667 14.1589 12.6667 15.9998C12.6667 17.8408 14.1591 19.3332 16 19.3332Z" fill="#18202A"/>
<path fill-rule="evenodd" clip-rule="evenodd" d="M26 17.3332C26.7364 17.3332 27.3334 16.7362 27.3334 15.9998C27.3334 15.2635 26.7364 14.6665 26 14.6665C25.2636 14.6665 24.6667 15.2635 24.6667 15.9998C24.6667 16.7362 25.2636 17.3332 26 17.3332ZM26 19.3332C27.841 19.3332 29.3334 17.8408 29.3334 15.9998C29.3334 14.1589 27.841 12.6665 26 12.6665C24.1591 12.6665 22.6667 14.1589 22.6667 15.9998C22.6667 17.8408 24.1591 19.3332 26 19.3332Z" fill="#18202A"/>
</svg>
