<svg width="32" height="32" viewBox="0 0 32 32" fill="none" xmlns="http://www.w3.org/2000/svg">
<path d="M21.3738 17.3734C21.7643 16.9829 21.7643 16.3498 21.3738 15.9592C20.9832 15.5687 20.3501 15.5687 19.9596 15.9592L14 21.9188L12.0404 19.9592C11.6499 19.5687 11.0168 19.5687 10.6262 19.9592C10.2357 20.3498 10.2357 20.9829 10.6262 21.3734L13.2929 24.0401C13.6834 24.4306 14.3166 24.4306 14.7071 24.0401L21.3738 17.3734Z" fill="#18202A"/>
<path fill-rule="evenodd" clip-rule="evenodd" d="M22.6734 7.99967C22.1927 7.99967 21.7849 7.66281 21.615 7.21316C20.7585 4.94559 18.5677 3.33301 16.0003 3.33301C12.6866 3.33301 10.0003 6.0193 10.0003 9.33301V10.6663H24.0003C26.9458 10.6663 29.3336 13.0542 29.3336 15.9997V25.333C29.3336 28.2785 26.9458 30.6663 24.0003 30.6663H8.00026C5.05475 30.6663 2.66693 28.2785 2.66693 25.333V15.9997C2.66693 13.0542 5.05475 10.6663 8.00026 10.6663V9.33301C8.00026 4.91473 11.582 1.33301 16.0003 1.33301C19.5406 1.33301 22.5439 3.63278 23.5976 6.81993C23.7973 7.42419 23.3098 7.99967 22.6734 7.99967ZM8.00026 12.6663C6.15932 12.6663 4.66693 14.1587 4.66693 15.9997V25.333C4.66693 27.174 6.15932 28.6663 8.00026 28.6663H24.0003C25.8412 28.6663 27.3336 27.174 27.3336 25.333V15.9997C27.3336 14.1587 25.8412 12.6663 24.0003 12.6663H8.00026Z" fill="#18202A"/>
</svg>
