<svg width="32" height="32" viewBox="0 0 32 32" fill="none" xmlns="http://www.w3.org/2000/svg">
<g clip-path="url(#clip0_3517_8834)">
<g clip-path="url(#clip1_3517_8834)">
<path d="M5.33335 6.66634C5.33335 7.40272 4.7364 7.99967 4.00002 7.99967C3.26364 7.99967 2.66669 7.40272 2.66669 6.66634C2.66669 5.92996 3.26364 5.33301 4.00002 5.33301C4.7364 5.33301 5.33335 5.92996 5.33335 6.66634Z" fill="#18202A"/>
<path d="M9.33335 6.66634C9.33335 6.11406 9.78107 5.66634 10.3334 5.66634H28.3334C28.8856 5.66634 29.3334 6.11406 29.3334 6.66634C29.3334 7.21863 28.8856 7.66634 28.3334 7.66634H10.3334C9.78107 7.66634 9.33335 7.21863 9.33335 6.66634Z" fill="#18202A"/>
<path d="M10.3334 14.9997C9.78107 14.9997 9.33335 15.4474 9.33335 15.9997C9.33335 16.552 9.78107 16.9997 10.3334 16.9997H22.9448C23.7035 16.7826 24.5049 16.6663 25.3334 16.6663C26.1618 16.6663 26.9632 16.7826 27.722 16.9997H28.3334C28.8856 16.9997 29.3334 16.552 29.3334 15.9997C29.3334 15.4474 28.8856 14.9997 28.3334 14.9997H10.3334Z" fill="#18202A"/>
<path d="M16.6667 25.333C16.6667 24.9948 16.6861 24.6611 16.7238 24.333H10.3334C9.78107 24.333 9.33335 24.7807 9.33335 25.333C9.33335 25.8853 9.78107 26.333 10.3334 26.333H16.7238C16.6861 26.0049 16.6667 25.6712 16.6667 25.333Z" fill="#18202A"/>
<path d="M5.33335 15.9997C5.33335 16.7361 4.7364 17.333 4.00002 17.333C3.26364 17.333 2.66669 16.7361 2.66669 15.9997C2.66669 15.2633 3.26364 14.6663 4.00002 14.6663C4.7364 14.6663 5.33335 15.2633 5.33335 15.9997Z" fill="#18202A"/>
<path d="M5.33335 25.333C5.33335 26.0694 4.7364 26.6663 4.00002 26.6663C3.26364 26.6663 2.66669 26.0694 2.66669 25.333C2.66669 24.5966 3.26364 23.9997 4.00002 23.9997C4.7364 23.9997 5.33335 24.5966 5.33335 25.333Z" fill="#18202A"/>
<path fill-rule="evenodd" clip-rule="evenodd" d="M25.3334 31.9997C29.0153 31.9997 32 29.0149 32 25.333C32 21.6511 29.0153 18.6663 25.3334 18.6663C21.6515 18.6663 18.6667 21.6511 18.6667 25.333C18.6667 29.0149 21.6515 31.9997 25.3334 31.9997ZM26.3334 22.333C26.3334 21.7807 25.8856 21.333 25.3334 21.333C24.7811 21.333 24.3334 21.7807 24.3334 22.333V24.333H22.3334C21.7811 24.333 21.3334 24.7807 21.3334 25.333C21.3334 25.8853 21.7811 26.333 22.3334 26.333H24.3334V28.333C24.3334 28.8853 24.7811 29.333 25.3334 29.333C25.8856 29.333 26.3334 28.8853 26.3334 28.333V26.333H28.3334C28.8856 26.333 29.3334 25.8853 29.3334 25.333C29.3334 24.7807 28.8856 24.333 28.3334 24.333H26.3334V22.333Z" fill="#18202A"/>
</g>
</g>
<defs>
<clipPath id="clip0_3517_8834">
<rect width="32" height="32" fill="white"/>
</clipPath>
<clipPath id="clip1_3517_8834">
<rect width="32" height="32" fill="white"/>
</clipPath>
</defs>
</svg>
