<svg width="32" height="32" viewBox="0 0 32 32" fill="none" xmlns="http://www.w3.org/2000/svg">
<path fill-rule="evenodd" clip-rule="evenodd" d="M4.29468 4.29468C4.68758 3.90177 5.3246 3.90177 5.71751 4.29468L27.7053 26.2825C27.7154 26.2926 27.7253 26.3029 27.7349 26.3133L27.8602 26.4386L27.8354 26.442C28.092 26.8324 28.0486 27.362 27.7053 27.7053C27.3124 28.0982 26.6754 28.0982 26.2825 27.7053L23.8192 25.242C23.6907 25.5638 23.5546 25.8816 23.4111 26.1954C22.7018 27.7465 21.2456 28.8205 19.5586 29.0713C18.3974 29.2439 17.2091 29.3333 15.9999 29.3333C14.7907 29.3333 13.6023 29.2439 12.4412 29.0713C10.7542 28.8205 9.2979 27.7465 8.58863 26.1954C8.33835 25.6481 8.11053 25.0884 7.90637 24.5174C7.20824 22.5649 7.79254 20.3373 9.53886 19.2194C11.3806 18.0404 13.5657 17.3507 15.9108 17.3337L10.6009 12.0237C10.6447 12.2819 10.6665 12.5527 10.6665 12.8333C10.6665 15.3333 9.55543 17.3333 7.33321 17.3333C5.11099 17.3333 3.99988 15.3333 3.99988 12.8333C3.99988 10.8333 5.11099 9.33333 7.33321 9.33333C7.55023 9.33333 7.75666 9.34764 7.95249 9.37532L4.29468 5.71751C3.90177 5.3246 3.90177 4.68758 4.29468 4.29468ZM22.2622 23.685L18.1395 19.5623C17.4507 19.4124 16.7349 19.3333 15.9999 19.3333C14.0145 19.3333 12.1699 19.9098 10.6171 20.9039C9.77445 21.4433 9.35514 22.629 9.7896 23.844C9.97447 24.361 10.1808 24.8679 10.4075 25.3637C10.8289 26.2853 11.7025 26.9395 12.7352 27.093C13.7994 27.2512 14.8894 27.3333 15.9999 27.3333C17.1103 27.3333 18.2004 27.2512 19.2645 27.093C20.2972 26.9395 21.1708 26.2853 21.5923 25.3637C21.8189 24.8679 22.0253 24.361 22.2101 23.844C22.2291 23.7909 22.2464 23.7379 22.2622 23.685ZM8.18225 14.892C8.44109 14.5134 8.66654 13.8239 8.66654 12.8333C8.66654 12.1863 8.48784 11.8302 8.33839 11.6621C8.2202 11.5291 7.96628 11.3333 7.33321 11.3333C6.70014 11.3333 6.44622 11.5291 6.32803 11.6621C6.17858 11.8302 5.99988 12.1863 5.99988 12.8333C5.99988 13.8239 6.22533 14.5134 6.48417 14.892C6.68852 15.1908 6.91975 15.3333 7.33321 15.3333C7.74667 15.3333 7.97791 15.1908 8.18225 14.892Z" fill="#18202A"/>
<path d="M17.9999 10C17.9999 11.3722 17.7328 12.4322 17.3541 13.1041L18.7993 14.5493C19.5997 13.4522 19.9999 11.8262 19.9999 10C19.9999 7.33333 18.6665 5.33333 15.9999 5.33333C14.0443 5.33333 12.8057 6.40894 12.2843 8.03429L14.005 9.75496C14.0426 8.86292 14.2842 8.26279 14.5616 7.91606C14.8156 7.59855 15.219 7.33333 15.9999 7.33333C16.7807 7.33333 17.1841 7.59855 17.4381 7.91606C17.7402 8.29363 17.9999 8.97171 17.9999 10Z" fill="#18202A"/>
<path d="M29.8437 25.5937L28.4166 24.1666C28.7307 23.9576 28.9659 23.651 29.0832 23.2884C29.3312 22.5214 29.0009 21.8858 28.5714 21.6595C27.7949 21.2504 26.9484 20.9556 26.053 20.7981C25.8022 20.0284 25.405 19.3029 24.8571 18.6712C26.5313 18.7203 28.1088 19.1552 29.5036 19.8901C30.9314 20.6423 31.4827 22.3683 30.9861 23.9038C30.7674 24.5802 30.3661 25.1587 29.8437 25.5937Z" fill="#18202A"/>
<path fill-rule="evenodd" clip-rule="evenodd" d="M27.9999 12.8333C27.9999 15.3333 26.8888 17.3333 24.6665 17.3333C22.4443 17.3333 21.3332 15.3333 21.3332 12.8333C21.3332 10.8333 22.4443 9.33333 24.6665 9.33333C26.8888 9.33333 27.9999 10.8333 27.9999 12.8333ZM25.9999 12.8333C25.9999 13.8239 25.7744 14.5134 25.5156 14.892C25.3112 15.1908 25.08 15.3333 24.6665 15.3333C24.2531 15.3333 24.0218 15.1908 23.8175 14.892C23.5587 14.5134 23.3332 13.8239 23.3332 12.8333C23.3332 12.1863 23.5119 11.8302 23.6614 11.6621C23.7796 11.5291 24.0335 11.3333 24.6665 11.3333C25.2996 11.3333 25.5535 11.5291 25.6717 11.6621C25.8212 11.8302 25.9999 12.1863 25.9999 12.8333Z" fill="#18202A"/>
<path d="M2.67681 19.6648C4.03524 19.0298 5.54955 18.6728 7.14663 18.6667C6.6075 19.2869 6.21394 19.9978 5.96182 20.7524C5.10059 20.8742 4.28192 21.1222 3.52368 21.4766C3.03413 21.7054 2.64996 22.4048 2.92234 23.2527C3.13644 23.9192 3.72067 24.408 4.46255 24.4996C4.92016 24.5561 5.38232 24.5986 5.84861 24.6265C5.89861 24.8169 5.9568 25.0051 6.02314 25.1907C6.20111 25.6884 6.39548 26.1783 6.6056 26.6596C5.79909 26.6404 5.00243 26.5814 4.21751 26.4845C2.72599 26.3004 1.47781 25.2952 1.01817 23.8644C0.492831 22.2291 1.12073 20.3921 2.67681 19.6648Z" fill="#18202A"/>
</svg>
