<svg width="32" height="32" viewBox="0 0 32 32" fill="none" xmlns="http://www.w3.org/2000/svg">
<path fill-rule="evenodd" clip-rule="evenodd" d="M21.3333 9.33301V10.6663H10.6667V9.33301C10.6667 6.38749 13.0545 3.99967 16 3.99967C18.9455 3.99967 21.3333 6.38749 21.3333 9.33301ZM24 10.6663V9.33301C24 4.91473 20.4183 1.33301 16 1.33301C11.5817 1.33301 8 4.91473 8 9.33301V10.6663C5.05448 10.6663 2.66666 13.0542 2.66666 15.9997V25.333C2.66666 28.2785 5.05448 30.6663 8 30.6663H24C26.9455 30.6663 29.3333 28.2785 29.3333 25.333V15.9997C29.3333 13.0542 26.9455 10.6663 24 10.6663ZM8.33333 22.333C9.25381 22.333 10 21.5868 10 20.6663C10 19.7459 9.25381 18.9997 8.33333 18.9997C7.41286 18.9997 6.66666 19.7459 6.66666 20.6663C6.66666 21.5868 7.41286 22.333 8.33333 22.333ZM13.4445 22.333C14.3649 22.333 15.1111 21.5868 15.1111 20.6663C15.1111 19.7459 14.3649 18.9997 13.4445 18.9997C12.524 18.9997 11.7778 19.7459 11.7778 20.6663C11.7778 21.5868 12.524 22.333 13.4445 22.333ZM20.2222 20.6663C20.2222 21.5868 19.476 22.333 18.5555 22.333C17.6351 22.333 16.8889 21.5868 16.8889 20.6663C16.8889 19.7459 17.6351 18.9997 18.5555 18.9997C19.476 18.9997 20.2222 19.7459 20.2222 20.6663ZM23.6667 22.333C24.5871 22.333 25.3333 21.5868 25.3333 20.6663C25.3333 19.7459 24.5871 18.9997 23.6667 18.9997C22.7462 18.9997 22 19.7459 22 20.6663C22 21.5868 22.7462 22.333 23.6667 22.333Z" fill="#18202A"/>
</svg>
