<svg width="32" height="32" viewBox="0 0 32 32" fill="none" xmlns="http://www.w3.org/2000/svg">
<path fill-rule="evenodd" clip-rule="evenodd" d="M28.6666 16C28.6666 9.00437 22.9956 3.33331 16 3.33331C9.00437 3.33331 3.33331 9.00437 3.33331 16C3.33331 22.9956 9.00437 28.6666 16 28.6666C22.9956 28.6666 28.6666 22.9956 28.6666 16ZM30.6666 16C30.6666 7.8998 24.1002 1.33331 16 1.33331C7.8998 1.33331 1.33331 7.8998 1.33331 16C1.33331 24.1002 7.8998 30.6666 16 30.6666C24.1002 30.6666 30.6666 24.1002 30.6666 16Z" fill="#18202A"/>
<path fill-rule="evenodd" clip-rule="evenodd" d="M9.95954 15.3738C9.56902 14.9832 9.56902 14.3501 9.95954 13.9595L15.2929 8.62621C15.6834 8.23568 16.3166 8.23568 16.7071 8.62621L22.0404 13.9595C22.4309 14.3501 22.4309 14.9832 22.0404 15.3738C21.6499 15.7643 21.0167 15.7643 20.6262 15.3738L17 11.7475V22.6666C17 23.2189 16.5523 23.6666 16 23.6666C15.4477 23.6666 15 23.2189 15 22.6666V11.7475L11.3738 15.3738C10.9832 15.7643 10.3501 15.7643 9.95954 15.3738Z" fill="#18202A"/>
</svg>
