<svg width="32" height="32" viewBox="0 0 32 32" fill="none" xmlns="http://www.w3.org/2000/svg">
<path fill-rule="evenodd" clip-rule="evenodd" d="M13.5363 30.1783C12.8244 29.645 12.3043 28.8955 12.0539 28.0419L14.6127 27.2912C14.701 27.5922 14.8843 27.8563 15.135 28.044C15.3857 28.2318 15.6903 28.3333 16.0033 28.3333C16.3163 28.3333 16.6209 28.2318 16.8716 28.044C17.1223 27.8563 17.3056 27.5922 17.3939 27.2912L19.9527 28.0419C19.7023 28.8955 19.1823 29.6451 18.4703 30.1783C17.7584 30.7116 16.8929 30.9999 16.0033 30.9999C15.1138 30.9999 14.2482 30.7116 13.5363 30.1783Z" fill="#18202A"/>
<path fill-rule="evenodd" clip-rule="evenodd" d="M16 1.33325C16.7364 1.33325 17.3333 1.93021 17.3333 2.66659V3.99992C17.3333 4.7363 16.7364 5.33325 16 5.33325C15.2636 5.33325 14.6666 4.7363 14.6666 3.99992V2.66659C14.6666 1.93021 15.2636 1.33325 16 1.33325Z" fill="#18202A"/>
<path d="M8.64432 6.97534C10.5952 5.07021 13.2411 3.99992 16 3.99992C18.7589 3.99992 21.4048 5.07021 23.3556 6.97534C25.3065 8.88047 26.4025 11.4644 26.4025 14.1586C26.4025 19.1987 27.644 22.1736 28.6684 23.7703C29.0177 24.3148 28.5833 25.3333 27.9363 25.3333H4.06363C3.41667 25.3333 2.98225 24.3148 3.33159 23.7703C4.35596 22.1736 5.5975 19.1987 5.5975 14.1586C5.5975 11.4644 6.69347 8.88047 8.64432 6.97534Z" fill="#18202A"/>
</svg>
