<svg width="32" height="32" viewBox="0 0 32 32" fill="none" xmlns="http://www.w3.org/2000/svg">
<path d="M12.0404 5.04036C12.4309 4.64983 12.4309 4.01667 12.0404 3.62615C11.6499 3.23562 11.0167 3.23562 10.6262 3.62615L4.62621 9.62615C4.23568 10.0167 4.23568 10.6498 4.62621 11.0404L10.6262 17.0404C11.0167 17.4309 11.6499 17.4309 12.0404 17.0404C12.4309 16.6498 12.4309 16.0167 12.0404 15.6261L7.74753 11.3333H20C23.3137 11.3333 26 14.0195 26 17.3333C26 20.647 23.3137 23.3333 20 23.3333H10.3333C9.78103 23.3333 9.33331 23.781 9.33331 24.3333C9.33331 24.8855 9.78103 25.3333 10.3333 25.3333H20C24.4183 25.3333 28 21.7515 28 17.3333C28 12.915 24.4183 9.33325 20 9.33325H7.74753L12.0404 5.04036Z" fill="#18202A"/>
</svg>
