<svg width="32" height="32" viewBox="0 0 32 32" fill="none" xmlns="http://www.w3.org/2000/svg">
<path fill-rule="evenodd" clip-rule="evenodd" d="M30.6667 15.9999C30.6667 24.1001 24.1002 30.6666 16 30.6666C7.89982 30.6666 1.33333 24.1001 1.33333 15.9999C1.33333 7.89974 7.89982 1.33325 16 1.33325C24.1002 1.33325 30.6667 7.89974 30.6667 15.9999ZM14 9.99992C14 8.89535 14.8954 7.99992 16 7.99992C17.1046 7.99992 18 8.89535 18 9.99992C18 11.1045 17.1046 11.9999 16 11.9999C14.8954 11.9999 14 11.1045 14 9.99992ZM12 14.6666C12 13.9302 12.5969 13.3333 13.3333 13.3333H16C16.7364 13.3333 17.3333 13.9302 17.3333 14.6666V21.3333H18.6667C19.403 21.3333 20 21.9302 20 22.6666C20 23.403 19.403 23.9999 18.6667 23.9999H13.3333C12.5969 23.9999 12 23.403 12 22.6666C12 21.9302 12.5969 21.3333 13.3333 21.3333H14.6667V15.9999H13.3333C12.5969 15.9999 12 15.403 12 14.6666Z" fill="#18202A"/>
</svg>
