<svg width="32" height="32" viewBox="0 0 32 32" fill="none" xmlns="http://www.w3.org/2000/svg">
<path fill-rule="evenodd" clip-rule="evenodd" d="M15.3738 8.70711C15.7643 8.31658 15.7643 7.68342 15.3738 7.29289C14.9833 6.90237 14.3501 6.90237 13.9596 7.29289L5.95958 15.2929C5.56906 15.6834 5.56906 16.3166 5.95958 16.7071L13.9596 24.7071C14.3501 25.0976 14.9833 25.0976 15.3738 24.7071C15.7643 24.3166 15.7643 23.6834 15.3738 23.2929L8.0809 16L15.3738 8.70711ZM26 8.70711C26.3905 8.31658 26.3905 7.68342 26 7.29289C25.6095 6.90237 24.9763 6.90237 24.5858 7.29289L16.5858 15.2929C16.1953 15.6834 16.1953 16.3166 16.5858 16.7071L24.5858 24.7071C24.9763 25.0976 25.6095 25.0976 26 24.7071C26.3905 24.3166 26.3905 23.6834 26 23.2929L18.7071 16L26 8.70711Z" fill="#18202A"/>
</svg>
