<svg width="32" height="32" viewBox="0 0 32 32" fill="none" xmlns="http://www.w3.org/2000/svg">
<path fill-rule="evenodd" clip-rule="evenodd" d="M16 2.6665C13.0545 2.6665 10.6667 5.05432 10.6667 7.99984V14.6665C10.6667 17.612 13.0545 19.9998 16 19.9998C18.9455 19.9998 21.3334 17.612 21.3334 14.6665V7.99984C21.3334 5.05432 18.9455 2.6665 16 2.6665ZM16 17.9998C17.841 17.9998 19.3334 16.5075 19.3334 14.6665V7.99984C19.3334 6.15889 17.841 4.6665 16 4.6665C14.1591 4.6665 12.6667 6.15889 12.6667 7.99984V14.6665C12.6667 16.5075 14.1591 17.9998 16 17.9998Z" fill="#18202A"/>
<path d="M7.61899 14.6665C7.0667 14.6665 6.61336 15.1157 6.67177 15.6649C7.13677 20.0375 10.6212 23.5081 15 23.9518V27.3332H11C10.4477 27.3332 10 27.7809 10 28.3332C10 28.8855 10.4477 29.3332 11 29.3332H21C21.5523 29.3332 22 28.8855 22 28.3332C22 27.7809 21.5523 27.3332 21 27.3332H17V23.9417C21.334 23.4576 24.7713 20.0057 25.2329 15.6649C25.2913 15.1157 24.8379 14.6665 24.2857 14.6665C23.7334 14.6665 23.2928 15.1167 23.2184 15.6639C22.7318 19.2422 19.6641 21.9998 15.9523 21.9998C12.2406 21.9998 9.17287 19.2422 8.68625 15.6639C8.61183 15.1167 8.17127 14.6665 7.61899 14.6665Z" fill="#18202A"/>
</svg>
