<svg width="32" height="32" viewBox="0 0 32 32" fill="none" xmlns="http://www.w3.org/2000/svg">
<path fill-rule="evenodd" clip-rule="evenodd" d="M20.4605 1.80642C19.88 1.49567 19.2316 1.33301 18.5732 1.33301H13.4265C12.768 1.33301 12.1197 1.49567 11.5391 1.80642C10.9586 2.11716 10.4637 2.56643 10.0985 3.11434L9.01582 4.73967C8.89402 4.92223 8.72905 5.0719 8.53553 5.17539C8.34213 5.27885 8.12621 5.33298 7.90689 5.33301L7.71079 5.33917C4.16306 5.49058 1.33331 8.41467 1.33331 11.9997V22.6663C1.33331 26.3482 4.31809 29.333 7.99998 29.333H24C27.6818 29.333 30.6666 26.3482 30.6666 22.6663V11.9997C30.6666 8.31778 27.6818 5.33301 24 5.33301H24.0928C23.8734 5.33298 23.6574 5.27885 23.4641 5.17539C23.2706 5.0719 23.1056 4.92223 22.9838 4.73967L21.9012 3.11434C21.5358 2.56643 21.041 2.11716 20.4605 1.80642ZM13.4265 3.33301H18.5732L18.7698 3.34271C19.0305 3.3685 19.2845 3.4454 19.5167 3.5697C19.8069 3.72506 20.0544 3.94972 20.2372 4.22387L21.3193 5.84844L21.4806 6.07006C21.7638 6.42739 22.1176 6.72325 22.5207 6.93892L22.7669 7.05791C23.1008 7.20273 23.4564 7.29186 23.8192 7.32175L24 7.33301L24.256 7.33991C26.7143 7.47284 28.6666 9.50827 28.6666 11.9997V22.6663L28.6597 22.9224C28.5268 25.3806 26.4914 27.333 24 27.333H7.99998L7.74393 27.3261C5.2857 27.1932 3.33331 25.1577 3.33331 22.6663V11.9997L3.34022 11.7436C3.47315 9.28538 5.50857 7.33301 7.99998 7.32767L8.18038 7.32176C8.63388 7.2844 9.07594 7.15448 9.47888 6.93894C9.96255 6.68028 10.375 6.30608 10.6795 5.84966L11.763 4.22311L11.88 4.06509C12.0459 3.86264 12.2507 3.69401 12.483 3.56971C12.7733 3.41431 13.0974 3.33301 13.4265 3.33301ZM11.9531 13.0331C12.9827 11.9828 14.4146 11.333 16 11.333C18.4744 11.333 20.5784 12.919 21.3509 15.1299L19.8586 15.3431C19.4582 15.4003 19.1316 15.693 19.0313 16.0848C18.9309 16.4766 19.0764 16.8903 19.4 17.133L22.0667 19.133C22.5085 19.4644 23.1353 19.3748 23.4667 18.933L25.4667 16.2663C25.7093 15.9428 25.7332 15.5049 25.5271 15.1568C25.3211 14.8088 24.9256 14.6192 24.5252 14.6764L23.3591 14.843C22.4275 11.6588 19.4853 9.33301 16 9.33301C13.8555 9.33301 11.9152 10.2148 10.5249 11.633C10.1383 12.0273 10.1446 12.6605 10.539 13.0471C10.9334 13.4337 11.5665 13.4274 11.9531 13.0331ZM9.93332 14.8663C9.49149 14.535 8.86469 14.6245 8.53332 15.0663L6.53332 17.733C6.29064 18.0566 6.26677 18.4945 6.47284 18.8425C6.67891 19.1905 7.07434 19.3802 7.47474 19.323L8.64083 19.1564C9.57247 22.3406 12.5146 24.6663 16 24.6663C18.1444 24.6663 20.0848 23.7846 21.475 22.3664C21.8617 21.972 21.8554 21.3389 21.461 20.9522C21.0666 20.5656 20.4335 20.5719 20.0468 20.9663C19.0172 22.0166 17.5854 22.6663 16 22.6663C13.5256 22.6663 11.4216 21.0804 10.6491 18.8695L12.1414 18.6563C12.5418 18.5991 12.8683 18.3063 12.9687 17.9145C13.0691 17.5227 12.9236 17.109 12.6 16.8663L9.93332 14.8663Z" fill="#18202A"/>
</svg>
