<svg width="32" height="32" viewBox="0 0 32 32" fill="none" xmlns="http://www.w3.org/2000/svg">
<path d="M31.0849 11.5817C31.6056 11.061 31.6082 10.2136 31.0579 9.72418C27.0542 6.16322 21.7797 4 16 4C10.2203 4 4.94582 6.16322 0.942081 9.72419C0.391846 10.2136 0.394358 11.061 0.915058 11.5817C1.43576 12.1024 2.27719 12.0987 2.83122 11.6136C6.34931 8.53341 10.9567 6.66667 16 6.66667C21.0434 6.66667 25.6507 8.5334 29.1688 11.6136C29.7228 12.0987 30.5642 12.1024 31.0849 11.5817Z" fill="#18202A"/>
<path d="M26.3709 16.2958C26.8916 15.7751 26.8949 14.9261 26.333 14.4502C23.5452 12.0899 19.9388 10.6667 16 10.6667C12.0612 10.6667 8.45479 12.0899 5.66706 14.4502C5.10506 14.9261 5.1084 15.7751 5.6291 16.2958C6.1498 16.8165 6.99019 16.8106 7.56 16.3441C9.85875 14.4624 12.7975 13.3333 16 13.3333C19.2025 13.3333 22.1413 14.4624 24.44 16.3441C25.0098 16.8106 25.8502 16.8165 26.3709 16.2958Z" fill="#18202A"/>
<path d="M21.6569 21.0098C22.1776 20.4891 22.1824 19.6359 21.5932 19.1942C20.0344 18.0256 18.0981 17.3333 16 17.3333C13.9019 17.3333 11.9656 18.0256 10.4068 19.1942C9.81766 19.6359 9.82245 20.4891 10.3432 21.0098C10.8639 21.5305 11.7026 21.5169 12.316 21.1095C13.3714 20.4084 14.638 20 16 20C17.362 20 18.6286 20.4084 19.684 21.1095C20.2974 21.5169 21.1362 21.5305 21.6569 21.0098Z" fill="#18202A"/>
<path d="M18.6667 26.6667C18.6667 28.1394 17.4728 29.3333 16 29.3333C14.5272 29.3333 13.3333 28.1394 13.3333 26.6667C13.3333 25.1939 14.5272 24 16 24C17.4728 24 18.6667 25.1939 18.6667 26.6667Z" fill="#18202A"/>
</svg>
