<svg width="32" height="32" viewBox="0 0 32 32" fill="none" xmlns="http://www.w3.org/2000/svg">
<path fill-rule="evenodd" clip-rule="evenodd" d="M5.16663 2.66663C3.78591 2.66663 2.66663 3.78591 2.66663 5.16663V12.1666C2.66663 13.5473 3.78591 14.6666 5.16663 14.6666H12.1666C13.5473 14.6666 14.6666 13.5473 14.6666 12.1666V5.16663C14.6666 3.78591 13.5473 2.66663 12.1666 2.66663H5.16663ZM5.16663 17.3333C3.78591 17.3333 2.66663 18.4526 2.66663 19.8333V26.8333C2.66663 28.214 3.78591 29.3333 5.16663 29.3333H12.1666C13.5473 29.3333 14.6666 28.214 14.6666 26.8333V19.8333C14.6666 18.4526 13.5473 17.3333 12.1666 17.3333H5.16663ZM17.3333 5.16663C17.3333 3.78591 18.4526 2.66663 19.8333 2.66663H26.8333C28.214 2.66663 29.3333 3.78591 29.3333 5.16663V12.1666C29.3333 13.5473 28.214 14.6666 26.8333 14.6666H19.8333C18.4526 14.6666 17.3333 13.5473 17.3333 12.1666V5.16663ZM19.8333 17.3333C18.4526 17.3333 17.3333 18.4526 17.3333 19.8333V26.8333C17.3333 28.214 18.4526 29.3333 19.8333 29.3333H26.8333C28.214 29.3333 29.3333 28.214 29.3333 26.8333V19.8333C29.3333 18.4526 28.214 17.3333 26.8333 17.3333H19.8333Z" fill="#18202A"/>
</svg>
