<svg width="32" height="32" viewBox="0 0 32 32" fill="none" xmlns="http://www.w3.org/2000/svg">
<path fill-rule="evenodd" clip-rule="evenodd" d="M16 22.0002C18.5773 22.0002 20.6666 19.9108 20.6666 17.3335C20.6666 14.7562 18.5773 12.6668 16 12.6668C13.4227 12.6668 11.3333 14.7562 11.3333 17.3335C11.3333 19.9108 13.4227 22.0002 16 22.0002ZM16 24.0002C19.6819 24.0002 22.6666 21.0154 22.6666 17.3335C22.6666 13.6516 19.6819 10.6668 16 10.6668C12.3181 10.6668 9.33331 13.6516 9.33331 17.3335C9.33331 21.0154 12.3181 24.0002 16 24.0002Z" fill="#18202A"/>
<path d="M18.5732 1.3335C19.2316 1.3335 19.88 1.49616 20.4605 1.8069C21.041 2.11765 21.5358 2.56692 21.9012 3.11483L22.9838 4.74016C23.1056 4.92272 23.2706 5.07239 23.4641 5.17588C23.6574 5.27934 23.8734 5.33347 24.0928 5.3335H24C27.6818 5.3335 30.6666 8.31827 30.6666 12.0002V22.6668C30.6666 26.3487 27.6818 29.3335 24 29.3335H7.99998C4.31809 29.3335 1.33331 26.3487 1.33331 22.6668V12.0002C1.33331 8.41516 4.16306 5.49107 7.71079 5.33966L7.90689 5.3335C8.12621 5.33347 8.34213 5.27934 8.53553 5.17588C8.72905 5.07239 8.89402 4.92272 9.01582 4.74016L10.0985 3.11483C10.4637 2.56692 10.9586 2.11765 11.5391 1.8069C12.1197 1.49616 12.768 1.3335 13.4265 1.3335H18.5732ZM18.5732 3.3335H13.4265C13.0974 3.3335 12.7733 3.4148 12.483 3.57019C12.2507 3.6945 12.0459 3.86312 11.88 4.06558L11.763 4.2236L10.6795 5.85015C10.375 6.30657 9.96255 6.68076 9.47888 6.93943C9.07594 7.15497 8.63388 7.28489 8.18038 7.32224L7.99998 7.32816C5.50857 7.3335 3.47315 9.28587 3.34022 11.7441L3.33331 12.0002V22.6668C3.33331 25.1582 5.2857 27.1937 7.74393 27.3266L7.99998 27.3335H24C26.4914 27.3335 28.5268 25.3811 28.6597 22.9229L28.6666 22.6668V12.0002C28.6666 9.50876 26.7143 7.47333 24.256 7.3404L24 7.3335L23.8192 7.32224C23.4564 7.29235 23.1008 7.20321 22.7669 7.0584L22.5207 6.93941C22.1176 6.72374 21.7638 6.42788 21.4806 6.07055L21.3193 5.84893L20.2372 4.22435C20.0544 3.95021 19.8069 3.72554 19.5167 3.57018C19.2845 3.44589 19.0305 3.36899 18.7698 3.3432L18.5732 3.3335Z" fill="#18202A"/>
</svg>
