<svg width="32" height="32" viewBox="0 0 32 32" fill="none" xmlns="http://www.w3.org/2000/svg">
<g clip-path="url(#clip0_2294_10627)">
<path fill-rule="evenodd" clip-rule="evenodd" d="M16 14.6663C19.5556 14.6663 21.3333 11.333 21.3333 7.16634C21.3333 3.83301 19.5556 1.33301 16 1.33301C12.4444 1.33301 10.6667 3.83301 10.6667 7.16634C10.6667 11.333 12.4444 14.6663 16 14.6663ZM16.0001 17.333C16.1124 17.333 16.2245 17.3344 16.3362 17.3372C14.8743 19.1627 14 21.4791 14 23.9997C14 26.5211 14.8749 28.8382 16.3376 30.664C16.2253 30.6656 16.1127 30.6663 16 30.6663C13.9368 30.6663 11.9344 30.406 10.0239 29.9164C8.39852 29.4998 7.02094 28.4111 6.26648 26.9123C6.2456 26.8709 6.22484 26.8293 6.20422 26.7876C5.16126 24.6815 5.51592 22.1012 7.29556 20.5661C9.63129 18.5513 12.6734 17.333 16.0001 17.333ZM23.5778 15.9997C23.0953 15.9997 22.6817 16.3441 22.5943 16.8186L22.4115 17.8116C21.6116 18.0881 20.8819 18.5153 20.2565 19.0592L19.3015 18.7198C18.8469 18.5582 18.3418 18.7442 18.1005 19.162L17.1333 20.8374C16.892 21.2552 16.9835 21.7857 17.3508 22.0986L18.1228 22.7563C18.0454 23.1589 18.0048 23.5745 18.0048 23.9997C18.0048 24.4248 18.0454 24.8405 18.1228 25.243L17.3508 25.9008C16.9835 26.2137 16.892 26.7442 17.1333 27.162L18.1006 28.8374C18.3418 29.2552 18.8469 29.4412 19.3015 29.2796L20.2566 28.9401C20.8819 29.4841 21.6116 29.9113 22.4115 30.1877L22.5943 31.1807C22.6817 31.6552 23.0953 31.9997 23.5778 31.9997H25.5124C25.9948 31.9997 26.4085 31.6552 26.4958 31.1807L26.6779 30.1916C27.481 29.9157 28.2134 29.488 28.841 28.9427L29.7887 29.2796C30.2433 29.4412 30.7484 29.2552 30.9897 28.8374L31.957 27.162C32.1982 26.7442 32.1067 26.2137 31.7395 25.9008L30.9763 25.2506C31.0547 24.8457 31.0958 24.4275 31.0958 23.9997C31.0958 23.5719 31.0547 23.1537 30.9764 22.7488L31.7395 22.0986C32.1067 21.7857 32.1982 21.2552 31.957 20.8374L30.9897 19.162C30.7485 18.7442 30.2433 18.5582 29.7887 18.7198L28.8411 19.0566C28.2134 18.5114 27.481 18.0837 26.6779 17.8078L26.4958 16.8186C26.4085 16.3441 25.9948 15.9997 25.5124 15.9997H23.5778ZM24.5442 26.6663C26.017 26.6663 27.2109 25.4724 27.2109 23.9997C27.2109 22.5269 26.017 21.333 24.5442 21.333C23.0715 21.333 21.8776 22.5269 21.8776 23.9997C21.8776 25.4724 23.0715 26.6663 24.5442 26.6663Z" fill="#18202A"/>
</g>
<defs>
<clipPath id="clip0_2294_10627">
<rect width="32" height="32" fill="white"/>
</clipPath>
</defs>
</svg>
