<svg width="32" height="32" viewBox="0 0 32 32" fill="none" xmlns="http://www.w3.org/2000/svg">
<path fill-rule="evenodd" clip-rule="evenodd" d="M1.33333 6.66634C1.33333 3.72082 3.72114 1.33301 6.66666 1.33301H20C21.9741 1.33301 23.6977 2.40554 24.6198 3.99967H9.33333C6.38781 3.99967 3.99999 6.38749 3.99999 9.33301V24.6195C2.40586 23.6973 1.33333 21.9738 1.33333 19.9997V6.66634ZM12 6.66634C9.05448 6.66634 6.66666 9.05416 6.66666 11.9997V25.333C6.66666 28.2785 9.05448 30.6663 12 30.6663H25.3333C28.2788 30.6663 30.6667 28.2785 30.6667 25.333V11.9997C30.6667 9.05416 28.2788 6.66634 25.3333 6.66634H12Z" fill="#18202A"/>
</svg>
