<svg width="32" height="32" viewBox="0 0 32 32" fill="none" xmlns="http://www.w3.org/2000/svg">
<path d="M18.4714 9.94986C18.0514 9.51162 17.3333 9.822 17.3333 10.4418V12.7365C15.5245 12.7807 13.5855 13.1962 12.063 14.4223C10.4302 15.7372 9.3333 17.9373 9.3333 21.4281C9.3333 21.5851 9.43405 21.7226 9.57921 21.7638C9.72437 21.8049 9.87796 21.7396 9.95411 21.6042C10.8497 20.0121 11.5607 19.0427 12.6242 18.4477C13.648 17.8748 15.0415 17.6251 17.3333 17.6036V19.8927C17.3333 20.5125 18.0514 20.8229 18.4714 20.3846L23 15.6592C23.2603 15.3875 23.2603 14.947 23 14.6754L18.4714 9.94986Z" fill="#18202A"/>
<path fill-rule="evenodd" clip-rule="evenodd" d="M1.33333 9.74471C1.33333 7.43953 3.12419 5.5708 5.33333 5.5708H26.6667C28.8758 5.5708 30.6667 7.43953 30.6667 9.74471V21.5654C30.6667 23.8706 28.8758 25.7393 26.6667 25.7393H31C31.5523 25.7393 32 26.2065 32 26.7828C32 27.3591 31.5523 27.8262 31 27.8262H1C0.447715 27.8262 0 27.3591 0 26.7828C0 26.2065 0.447715 25.7393 1 25.7393H5.33333C3.12419 25.7393 1.33333 23.8706 1.33333 21.5654V9.74471ZM3.33333 9.74471C3.33333 8.59212 4.22876 7.65776 5.33333 7.65776H26.6667C27.7712 7.65776 28.6667 8.59212 28.6667 9.74471V21.5654C28.6667 22.718 27.7712 23.6523 26.6667 23.6523H5.33333C4.22876 23.6523 3.33333 22.718 3.33333 21.5654V9.74471Z" fill="#18202A"/>
</svg>
