<svg width="32" height="32" viewBox="0 0 32 32" fill="none" xmlns="http://www.w3.org/2000/svg">
<g clip-path="url(#clip0_3783_8834)">
<path fill-rule="evenodd" clip-rule="evenodd" d="M25.3333 1.33301C23.8606 1.33301 22.6666 2.52692 22.6666 3.99967V4.33301H20C17.9749 4.33301 16.3333 5.97463 16.3333 7.99967V14.9997H9.33331V14.6663C9.33331 13.1936 8.13941 11.9997 6.66665 11.9997H3.99998C2.52722 11.9997 1.33331 13.1936 1.33331 14.6663V17.333C1.33331 18.8058 2.52722 19.9997 3.99998 19.9997H6.66665C8.13941 19.9997 9.33331 18.8058 9.33331 17.333V16.9997H16.3333V23.9997C16.3333 26.0247 17.9749 27.6663 20 27.6663H22.6666V27.9997C22.6666 29.4724 23.8606 30.6663 25.3333 30.6663H28C29.4727 30.6663 30.6666 29.4724 30.6666 27.9997V25.333C30.6666 23.8603 29.4727 22.6663 28 22.6663H25.3333C23.8606 22.6663 22.6666 23.8602 22.6666 25.333V25.6663H20C19.0795 25.6663 18.3333 24.9202 18.3333 23.9997V16.9997H22.6666V17.333C22.6666 18.8058 23.8606 19.9997 25.3333 19.9997H28C29.4727 19.9997 30.6666 18.8058 30.6666 17.333V14.6663C30.6666 13.1936 29.4727 11.9997 28 11.9997H25.3333C23.8606 11.9997 22.6666 13.1936 22.6666 14.6663V14.9997H18.3333V7.99967C18.3333 7.0792 19.0795 6.33301 20 6.33301H22.6666V6.66634C22.6666 8.1391 23.8606 9.33301 25.3333 9.33301H28C29.4727 9.33301 30.6666 8.1391 30.6666 6.66634V3.99967C30.6666 2.52692 29.4727 1.33301 28 1.33301H25.3333ZM28.6666 3.99967C28.6666 3.63148 28.3682 3.33301 28 3.33301H25.3333C24.9651 3.33301 24.6666 3.63148 24.6666 3.99967V6.66634C24.6666 7.03453 24.9651 7.33301 25.3333 7.33301H28C28.3682 7.33301 28.6666 7.03453 28.6666 6.66634V3.99967ZM7.33331 14.6663C7.33331 14.2982 7.03484 13.9997 6.66665 13.9997H3.99998C3.63179 13.9997 3.33331 14.2982 3.33331 14.6663V17.333C3.33331 17.7012 3.63179 17.9997 3.99998 17.9997H6.66665C7.03484 17.9997 7.33331 17.7012 7.33331 17.333V14.6663ZM24.6666 14.6663C24.6666 14.2982 24.9651 13.9997 25.3333 13.9997H28C28.3682 13.9997 28.6666 14.2982 28.6666 14.6663V17.333C28.6666 17.7012 28.3682 17.9997 28 17.9997H25.3333C24.9651 17.9997 24.6666 17.7012 24.6666 17.333V14.6663ZM28.6666 25.333C28.6666 24.9648 28.3682 24.6663 28 24.6663H25.3333C24.9651 24.6663 24.6666 24.9648 24.6666 25.333V27.9997C24.6666 28.3679 24.9651 28.6663 25.3333 28.6663H28C28.3682 28.6663 28.6666 28.3679 28.6666 27.9997V25.333Z" fill="#18202A"/>
</g>
<defs>
<clipPath id="clip0_3783_8834">
<rect width="32" height="32" fill="white"/>
</clipPath>
</defs>
</svg>
