<svg width="32" height="32" viewBox="0 0 32 32" fill="none" xmlns="http://www.w3.org/2000/svg">
<path fill-rule="evenodd" clip-rule="evenodd" d="M28.552 6.34327L25.656 3.44727C25.1559 2.94735 24.4778 2.6665 23.7707 2.6665C23.0636 2.6665 22.3854 2.94735 21.8854 3.44727L4.00002 21.3326L3.07138 27.4084C2.93544 28.2979 3.70141 29.0639 4.59086 28.9279L10.6667 27.9993L28.552 10.1139C29.0519 9.61386 29.3328 8.9357 29.3328 8.2286C29.3328 7.5215 29.0519 6.84334 28.552 6.34327ZM25.2926 10.5449L27.1376 8.69993C27.2624 8.57494 27.3328 8.40528 27.3328 8.2286C27.3328 8.05193 26.1249 6.7915 26 6.6665L24.2418 4.86148C24.1168 4.73664 23.9474 4.6665 23.7707 4.6665C23.594 4.6665 23.4243 4.73685 23.2994 4.86169L21.4544 6.70666L25.2926 10.5449ZM23.8784 11.9591L20.0402 8.12087L5.87797 22.2831L5.18549 26.8138L9.71621 26.1213L23.8784 11.9591Z" fill="#18202A"/>
</svg>
