<svg width="32" height="32" viewBox="0 0 32 32" fill="none" xmlns="http://www.w3.org/2000/svg">
<path fill-rule="evenodd" clip-rule="evenodd" d="M8 5.33301C6.52724 5.33301 5.33334 6.52692 5.33334 7.99967V23.9997C5.33334 25.4724 6.52724 26.6663 8 26.6663H12C13.4728 26.6663 14.6667 25.4724 14.6667 23.9997V7.99967C14.6667 6.52692 13.4728 5.33301 12 5.33301H8ZM20 5.33301C18.5272 5.33301 17.3333 6.52692 17.3333 7.99967V23.9997C17.3333 25.4724 18.5272 26.6663 20 26.6663H24C25.4728 26.6663 26.6667 25.4724 26.6667 23.9997V7.99967C26.6667 6.52692 25.4728 5.33301 24 5.33301H20Z" fill="#18202A"/>
</svg>
