<svg width="32" height="32" viewBox="0 0 32 32" fill="none" xmlns="http://www.w3.org/2000/svg">
<g clip-path="url(#clip0_3860_8797)">
<path d="M23.3318 4.00128C23.6999 4.00132 23.9984 4.29974 23.9984 4.66788L23.9999 18.39C24 18.984 23.2819 19.2815 22.8619 18.8615L19.1382 15.1378C18.8778 14.8775 18.4523 14.8802 18.195 15.1436C12.4292 21.047 11.8356 24.3738 12.9486 29.6151C13.0897 30.2798 12.2989 30.7128 11.8638 30.1908C5.0104 21.9704 8.18243 14.7384 12.868 9.81028C13.1218 9.54345 13.1224 9.12204 12.862 8.86169L9.13832 5.13808C8.71831 4.71808 9.01581 3.99994 9.60978 4L23.3318 4.00128Z" fill="#18202A"/>
</g>
<defs>
<clipPath id="clip0_3860_8797">
<rect width="32" height="32" fill="white"/>
</clipPath>
</defs>
</svg>
