<svg width="32" height="32" viewBox="0 0 32 32" fill="none" xmlns="http://www.w3.org/2000/svg">
<path fill-rule="evenodd" clip-rule="evenodd" d="M3.33331 16C3.33331 22.9956 9.00437 28.6667 16 28.6667C22.9956 28.6667 28.6666 22.9956 28.6666 16C28.6666 9.00443 22.9956 3.33337 16 3.33337C9.00437 3.33337 3.33331 9.00443 3.33331 16ZM1.33331 16C1.33331 24.1002 7.8998 30.6667 16 30.6667C24.1002 30.6667 30.6666 24.1002 30.6666 16C30.6666 7.89987 24.1002 1.33337 16 1.33337C7.8998 1.33337 1.33331 7.89986 1.33331 16Z" fill="#18202A"/>
<path fill-rule="evenodd" clip-rule="evenodd" d="M22.0404 13.9596C22.4309 14.3501 22.4309 14.9833 22.0404 15.3738L16.7071 20.7071C16.3166 21.0977 15.6834 21.0977 15.2929 20.7071L9.95954 15.3738C9.56902 14.9833 9.56902 14.3501 9.95954 13.9596C10.3501 13.5691 10.9832 13.5691 11.3738 13.9596L16 18.5858L20.6262 13.9596C21.0167 13.5691 21.6499 13.5691 22.0404 13.9596Z" fill="#18202A"/>
</svg>
