<svg width="32" height="32" viewBox="0 0 32 32" fill="none" xmlns="http://www.w3.org/2000/svg">
<g clip-path="url(#clip0_2294_13685)">
<path fill-rule="evenodd" clip-rule="evenodd" d="M21.3333 7.16634C21.3333 11.333 19.5555 14.6663 16 14.6663C12.4444 14.6663 10.6666 11.333 10.6666 7.16634C10.6666 3.83301 12.4444 1.33301 16 1.33301C19.5555 1.33301 21.3333 3.83301 21.3333 7.16634ZM19.3333 7.16634C19.3333 9.00382 18.9355 10.4558 18.328 11.3813C17.7743 12.2249 17.0434 12.6663 16 12.6663C14.9566 12.6663 14.2257 12.2249 13.672 11.3813C13.0644 10.4558 12.6666 9.00382 12.6666 7.16634C12.6666 5.83323 13.0227 4.88228 13.5214 4.29791C13.9815 3.75872 14.728 3.33301 16 3.33301C17.272 3.33301 18.0185 3.75872 18.4786 4.29791C18.9773 4.88228 19.3333 5.83323 19.3333 7.16634ZM17.3149 28.6278C17.5982 29.3165 17.9676 29.9606 18.4098 30.5469C17.6172 30.6259 16.8133 30.6663 16 30.6663C13.9368 30.6663 11.9344 30.406 10.0239 29.9164C8.39848 29.4998 7.0209 28.4111 6.26645 26.9123C6.04281 26.4681 5.83424 26.0149 5.64141 25.5536C4.82207 23.5932 5.1486 21.2996 6.66574 19.812C9.07082 17.4538 12.3656 15.9997 16 15.9997C18.1184 15.9997 20.1215 16.4937 21.9002 17.3729C21.1407 17.7009 20.4374 18.1345 19.8088 18.6551C18.6187 18.2306 17.3367 17.9997 16 17.9997C12.9101 17.9997 10.1123 19.2336 8.06596 21.2401C7.20751 22.0818 6.94084 23.4762 7.48673 24.7823C7.66136 25.2002 7.85028 25.6106 8.05287 26.0131C8.54131 26.9834 9.44125 27.7024 10.5204 27.979C12.27 28.4274 14.1057 28.6663 16 28.6663C16.4416 28.6663 16.88 28.6534 17.3149 28.6278ZM32 25.333C32 29.0149 29.0152 31.9997 25.3333 31.9997C21.6514 31.9997 18.6666 29.0149 18.6666 25.333C18.6666 21.6511 21.6514 18.6663 25.3333 18.6663C29.0152 18.6663 32 21.6511 32 25.333ZM25.3333 20.3997C24.5873 20.3997 23.9583 20.4509 23.4781 20.5107C22.3634 20.6495 21.6667 21.6128 21.6666 22.6149L21.6666 22.9047C21.6666 23.5271 21.9139 24.1241 22.3541 24.5643C22.7446 24.9548 23.3778 24.9548 23.7683 24.5643C24.1588 24.1737 24.1588 23.5406 23.7683 23.1501C23.7032 23.085 23.6666 22.9967 23.6666 22.9047L23.6666 22.6149C23.6666 22.5611 23.6848 22.5268 23.6976 22.5112C23.7038 22.5037 23.7085 22.5006 23.7107 22.4994C23.7122 22.4985 23.7159 22.4965 23.7252 22.4954C24.1324 22.4447 24.6784 22.3997 25.3333 22.3997C25.9373 22.3997 26.4487 22.4379 26.844 22.4837C26.8843 22.4883 26.914 22.5046 26.9409 22.537C26.9711 22.5736 27 22.6364 27 22.7217C27 23.221 26.709 23.6745 26.2551 23.8826L25.5228 24.2182C24.798 24.5503 24.3333 25.2744 24.3333 26.0717C24.3333 26.6239 24.781 27.0717 25.3333 27.0717C25.8856 27.0717 26.3333 26.6239 26.3333 26.0717C26.3333 26.0565 26.3422 26.0427 26.356 26.0363L27.0883 25.7007C28.2531 25.1669 29 24.0031 29 22.7217C29 21.6581 28.2599 20.6341 27.0738 20.4969C26.6098 20.4433 26.0214 20.3997 25.3333 20.3997ZM25.3333 30.6663C26.0697 30.6663 26.6666 30.0694 26.6666 29.333C26.6666 28.5966 26.0697 27.9997 25.3333 27.9997C24.5969 27.9997 24 28.5966 24 29.333C24 30.0694 24.5969 30.6663 25.3333 30.6663Z" fill="#18202A"/>
</g>
<defs>
<clipPath id="clip0_2294_13685">
<rect width="32" height="32" fill="white"/>
</clipPath>
</defs>
</svg>
