<svg width="32" height="32" viewBox="0 0 32 32" fill="none" xmlns="http://www.w3.org/2000/svg">
<path fill-rule="evenodd" clip-rule="evenodd" d="M23.4641 5.1754C23.6575 5.27884 23.8734 5.33297 24.0928 5.33301H24C27.6819 5.33301 30.6667 8.31778 30.6667 11.9997V22.6663C30.6667 26.3482 27.6819 29.333 24 29.333H8C4.3181 29.333 1.33333 26.3482 1.33333 22.6663V11.9997C1.33333 8.31778 4.3181 5.33301 7.99999 5.33301H7.9069C8.12622 5.33297 8.34214 5.27884 8.53554 5.1754C8.72906 5.0719 8.89403 4.92223 9.01583 4.73967L10.0985 3.11434C10.4637 2.56643 10.9586 2.11716 11.5392 1.80642C12.1197 1.49567 12.768 1.33306 13.4265 1.33301H18.5732C19.2317 1.33306 19.8799 1.49567 20.4605 1.80642C21.0411 2.11716 21.5359 2.56643 21.9012 3.11434L22.9838 4.73967C23.1056 4.92223 23.2706 5.0719 23.4641 5.1754ZM11.9531 13.0331C12.9828 11.9828 14.4146 11.333 16 11.333C18.4744 11.333 20.5784 12.919 21.3509 15.1299L19.8586 15.3431C19.4582 15.4003 19.1317 15.693 19.0313 16.0848C18.9309 16.4766 19.0764 16.8903 19.4 17.133L22.0667 19.133C22.5085 19.4644 23.1353 19.3748 23.4667 18.933L25.4667 16.2663C25.7093 15.9428 25.7332 15.5049 25.5271 15.1568C25.3211 14.8088 24.9256 14.6192 24.5252 14.6764L23.3591 14.843C22.4275 11.6588 19.4854 9.33301 16 9.33301C13.8555 9.33301 11.9152 10.2148 10.5249 11.633C10.1383 12.0274 10.1446 12.6605 10.539 13.0471C10.9334 13.4337 11.5665 13.4274 11.9531 13.0331ZM9.93333 14.8663C9.4915 14.535 8.8647 14.6245 8.53333 15.0663L6.53333 17.733C6.29065 18.0566 6.26679 18.4945 6.47286 18.8425C6.67893 19.1905 7.07436 19.3802 7.47475 19.323L8.64085 19.1564C9.57249 22.3406 12.5146 24.6663 16 24.6663C18.1445 24.6663 20.0848 23.7846 21.4751 22.3664C21.8617 21.972 21.8554 21.3389 21.461 20.9522C21.0666 20.5656 20.4335 20.5719 20.0469 20.9663C19.0172 22.0166 17.5854 22.6663 16 22.6663C13.5256 22.6663 11.4216 21.0804 10.6491 18.8695L12.1414 18.6563C12.5418 18.5991 12.8683 18.3063 12.9687 17.9145C13.0691 17.5227 12.9236 17.109 12.6 16.8663L9.93333 14.8663Z" fill="#18202A"/>
</svg>
