<svg width="32" height="32" viewBox="0 0 32 32" fill="none" xmlns="http://www.w3.org/2000/svg">
<path d="M13.3333 4C9.15674 4 6.66663 7.3752 6.66663 10.6667C6.66663 11.1124 6.7123 11.5597 6.80165 12H9.55288C9.40845 11.5736 9.33329 11.1222 9.33329 10.6667C9.33329 8.6248 10.8432 6.66667 13.3333 6.66667H18.6666C19.8022 6.66667 20.8615 6.95459 21.5937 7.44273C22.2864 7.90453 22.6666 8.51721 22.6666 9.33333C22.6666 10.0697 23.2636 10.6667 24 10.6667C24.7363 10.6667 25.3333 10.0697 25.3333 9.33333C25.3333 7.48279 24.3802 6.09547 23.0729 5.22393C21.8051 4.37874 20.1977 4 18.6666 4H13.3333Z" fill="#18202A"/>
<path d="M2.66663 16C2.66663 15.2636 3.26358 14.6667 3.99996 14.6667H28C28.7363 14.6667 29.3333 15.2636 29.3333 16C29.3333 16.7364 28.7363 17.3333 28 17.3333H25.308C26.1875 18.4158 26.6666 19.7796 26.6666 21.3333C26.6666 23.4219 25.7577 25.1419 24.2487 26.3058C22.7723 27.4446 20.7965 28 18.6666 28H12C7.82341 28 5.33329 24.6248 5.33329 21.3333C5.33329 20.597 5.93025 20 6.66663 20C7.40301 20 7.99996 20.597 7.99996 21.3333C7.99996 23.3752 9.50984 25.3333 12 25.3333H18.6666C20.362 25.3333 21.7196 24.8888 22.6201 24.1942C23.4881 23.5247 24 22.5781 24 21.3333C24 20.0599 23.5088 19.1193 22.6762 18.4651C21.8082 17.7831 20.4606 17.3333 18.6666 17.3333H3.99996C3.26358 17.3333 2.66663 16.7364 2.66663 16Z" fill="#18202A"/>
</svg>
