<svg width="32" height="32" viewBox="0 0 32 32" fill="none" xmlns="http://www.w3.org/2000/svg">
<path fill-rule="evenodd" clip-rule="evenodd" d="M26.7982 7.33301C26.1066 8.52861 24.8139 9.33301 23.3333 9.33301C21.8528 9.33301 20.5601 8.52861 19.8685 7.33301H4C2.89543 7.33301 2 8.22844 2 9.33301V22.6663C2 23.7709 2.89543 24.6663 4 24.6663H19.8685C20.5601 23.4707 21.8528 22.6663 23.3333 22.6663C24.8139 22.6663 26.1066 23.4707 26.7982 24.6663H28C29.1046 24.6663 30 23.7709 30 22.6663V9.33301C30 8.22844 29.1046 7.33301 28 7.33301H26.7982ZM25.3333 26.6663C25.3333 25.5618 24.4379 24.6663 23.3333 24.6663C22.2288 24.6663 21.3333 25.5618 21.3333 26.6663H4C1.79086 26.6663 0 24.8755 0 22.6663V9.33301C0 7.12387 1.79086 5.33301 4 5.33301H21.3333C21.3333 6.43758 22.2288 7.33301 23.3333 7.33301C24.4379 7.33301 25.3333 6.43758 25.3333 5.33301H28C30.2091 5.33301 32 7.12387 32 9.33301V22.6663C32 24.8755 30.2091 26.6663 28 26.6663H25.3333ZM4 11.6663C4 11.1141 4.44772 10.6663 5 10.6663H17C17.5523 10.6663 18 11.1141 18 11.6663C18 12.2186 17.5523 12.6663 17 12.6663H5C4.44772 12.6663 4 12.2186 4 11.6663ZM5 14.6663C4.44772 14.6663 4 15.1141 4 15.6663C4 16.2186 4.44772 16.6663 5 16.6663H17C17.5523 16.6663 18 16.2186 18 15.6663C18 15.1141 17.5523 14.6663 17 14.6663H5ZM4 19.6663C4 19.1141 4.44772 18.6663 5 18.6663H8.33333C8.88562 18.6663 9.33333 19.1141 9.33333 19.6663C9.33333 20.2186 8.88562 20.6663 8.33333 20.6663H5C4.44772 20.6663 4 20.2186 4 19.6663ZM24 11.9997H22.6667V19.9997H24V11.9997Z" fill="#18202A"/>
</svg>
