<svg width="32" height="32" viewBox="0 0 32 32" fill="none" xmlns="http://www.w3.org/2000/svg">
<path fill-rule="evenodd" clip-rule="evenodd" d="M1.33331 8.00002C1.33331 5.0545 3.72113 2.66669 6.66665 2.66669H25.3333C28.2788 2.66669 30.6666 5.0545 30.6666 8.00002V24C30.6666 26.9455 28.2788 29.3334 25.3333 29.3334H6.66665C3.72113 29.3334 1.33331 26.9455 1.33331 24V8.00002ZM12 4.66669H20V15L12 15V4.66669ZM9.99998 15V4.66669H6.66665C4.8257 4.66669 3.33331 6.15907 3.33331 8.00002V15H9.99998ZM3.33331 17H9.99998V27.3334H6.66665C4.8257 27.3334 3.33331 25.841 3.33331 24V17ZM12 17L20 17V27.3334H12V17ZM22 17V27.3334H25.3333C27.1743 27.3334 28.6666 25.841 28.6666 24V17H22ZM28.6666 15V8.00002C28.6666 6.15907 27.1743 4.66669 25.3333 4.66669H22V15H28.6666Z" fill="#18202A"/>
</svg>
