<svg width="32" height="32" viewBox="0 0 32 32" fill="none" xmlns="http://www.w3.org/2000/svg">
<path fill-rule="evenodd" clip-rule="evenodd" d="M22.6666 4.66699H7.99998C5.42265 4.66699 3.33331 6.75633 3.33331 9.33366V21.3337C3.33331 23.911 5.42265 26.0003 7.99998 26.0003H14.3333C14.8856 26.0003 15.3333 26.448 15.3333 27.0003C15.3333 27.5526 14.8856 28.0003 14.3333 28.0003H7.99998C4.31808 28.0003 1.33331 25.0156 1.33331 21.3337V9.33366C1.33331 5.65176 4.31808 2.66699 7.99998 2.66699H22.6666C26.3485 2.66699 29.3333 5.65176 29.3333 9.33366V13.0003C29.3333 13.5526 28.8856 14.0003 28.3333 14.0003C27.781 14.0003 27.3333 13.5526 27.3333 13.0003V9.33366C27.3333 6.75633 25.244 4.66699 22.6666 4.66699ZM21.3333 18.0003H26.6666C27.7712 18.0003 28.6666 18.8958 28.6666 20.0003V25.3337C28.6666 26.4382 27.7712 27.3337 26.6666 27.3337H21.3333C20.2287 27.3337 19.3333 26.4382 19.3333 25.3337V20.0003C19.3333 18.8958 20.2287 18.0003 21.3333 18.0003ZM17.3333 20.0003C17.3333 17.7912 19.1242 16.0003 21.3333 16.0003H26.6666C28.8758 16.0003 30.6666 17.7912 30.6666 20.0003V25.3337C30.6666 27.5428 28.8758 29.3337 26.6666 29.3337H21.3333C19.1242 29.3337 17.3333 27.5428 17.3333 25.3337V20.0003Z" fill="#18202A"/>
</svg>
