<svg width="32" height="32" viewBox="0 0 32 32" fill="none" xmlns="http://www.w3.org/2000/svg">
<path fill-rule="evenodd" clip-rule="evenodd" d="M18.374 18.8803L17.0022 15.9995C16.9856 15.9999 16.969 16.0001 16.9523 16.0001H8.38091C8.36424 16.0001 8.34763 15.9999 8.33107 15.9995L5.58137 21.7735C5.2014 22.5714 4.27732 22.8948 3.51737 22.4959C2.75743 22.0969 2.44941 21.1267 2.82938 20.3288L10.6026 4.00606C11.453 2.22031 13.8802 2.22031 14.7306 4.00606L20.7043 16.55L23.1162 14.1381L28.5286 19.5505L16.8457 31.2334L11.913 31.9873C11.1909 32.0977 10.569 31.4758 10.6794 30.7537L11.4333 25.821L18.374 18.8803ZM12.6666 6.89546L15.7325 13.3334H9.60073L12.6666 6.89546Z" fill="#18202A"/>
<path d="M24.647 12.6073L25.9537 11.3006C26.3597 10.8948 26.9102 10.6667 27.4843 10.6667C28.0584 10.6667 28.609 10.8948 29.0149 11.3006L31.3661 13.6518C31.772 14.0578 32 14.6083 32 15.1824C32 15.7565 31.772 16.307 31.3661 16.713L30.0594 18.0197L24.647 12.6073Z" fill="#18202A"/>
</svg>
