<svg width="32" height="32" viewBox="0 0 32 32" fill="none" xmlns="http://www.w3.org/2000/svg">
<path fill-rule="evenodd" clip-rule="evenodd" d="M8.00002 6H6.66669C5.56212 6 4.66669 6.89543 4.66669 8V9.33333C4.66669 10.4379 5.56212 11.3333 6.66669 11.3333H8.00002C9.10459 11.3333 10 10.4379 10 9.33333V8C10 6.89543 9.10459 6 8.00002 6ZM6.66669 4H8.00002C10.2092 4 12 5.79086 12 8V9.33333C12 11.5425 10.2092 13.3333 8.00002 13.3333H6.66669C4.45755 13.3333 2.66669 11.5425 2.66669 9.33333V8C2.66669 5.79086 4.45755 4 6.66669 4Z" fill="#18202A"/>
<path fill-rule="evenodd" clip-rule="evenodd" d="M8.00002 20.6667H6.66669C5.56212 20.6667 4.66669 21.5621 4.66669 22.6667V24C4.66669 25.1046 5.56212 26 6.66669 26H8.00002C9.10459 26 10 25.1046 10 24V22.6667C10 21.5621 9.10459 20.6667 8.00002 20.6667ZM6.66669 18.6667H8.00002C10.2092 18.6667 12 20.4575 12 22.6667V24C12 26.2091 10.2092 28 8.00002 28H6.66669C4.45755 28 2.66669 26.2091 2.66669 24V22.6667C2.66669 20.4575 4.45755 18.6667 6.66669 18.6667Z" fill="#18202A"/>
<path d="M14.6667 6.33333C14.6667 5.78105 15.1144 5.33333 15.6667 5.33333H28.3334C28.8856 5.33333 29.3334 5.78105 29.3334 6.33333C29.3334 6.88562 28.8856 7.33333 28.3334 7.33333H15.6667C15.1144 7.33333 14.6667 6.88562 14.6667 6.33333Z" fill="#18202A"/>
<path d="M14.6667 11C14.6667 10.4477 15.1144 10 15.6667 10H28.3334C28.8856 10 29.3334 10.4477 29.3334 11C29.3334 11.5523 28.8856 12 28.3334 12H15.6667C15.1144 12 14.6667 11.5523 14.6667 11Z" fill="#18202A"/>
<path d="M14.6667 21C14.6667 20.4477 15.1144 20 15.6667 20H28.3334C28.8856 20 29.3334 20.4477 29.3334 21C29.3334 21.5523 28.8856 22 28.3334 22H15.6667C15.1144 22 14.6667 21.5523 14.6667 21Z" fill="#18202A"/>
<path d="M14.6667 25.6667C14.6667 25.1144 15.1144 24.6667 15.6667 24.6667H28.3334C28.8856 24.6667 29.3334 25.1144 29.3334 25.6667C29.3334 26.219 28.8856 26.6667 28.3334 26.6667H15.6667C15.1144 26.6667 14.6667 26.219 14.6667 25.6667Z" fill="#18202A"/>
</svg>
