<svg width="32" height="32" viewBox="0 0 32 32" fill="none" xmlns="http://www.w3.org/2000/svg">
<g clip-path="url(#clip0_3352_8858)">
<path fill-rule="evenodd" clip-rule="evenodd" d="M29.3333 9.66667C29.3333 9.57826 29.2982 9.49348 29.2357 9.43096C29.1732 9.36845 29.0884 9.33333 29 9.33333H23.3333C22.4492 9.33333 21.6014 8.98214 20.9763 8.35702C20.3512 7.7319 20 6.88406 20 6V0.333333C20 0.244928 19.9648 0.160143 19.9023 0.0976311C19.8398 0.035119 19.755 0 19.6666 0H5.33329C4.62605 0 3.94777 0.280952 3.44767 0.781049C2.94758 1.28115 2.66663 1.95942 2.66663 2.66667V29.3333C2.66663 30.0406 2.94758 30.7189 3.44767 31.219C3.94777 31.719 4.62605 32 5.33329 32H26.6666C27.3739 32 28.0522 31.719 28.5522 31.219C29.0523 30.7189 29.3333 30.0406 29.3333 29.3333V9.66667ZM14.6666 19.3333L10.6666 13.3333H13.3333L16 17.3333L18.6666 13.3333H21.3333L17.3333 19.3333L21.3333 25.3333H18.6666L16 21.3333L13.3333 25.3333H10.6666L14.6666 19.3333Z" fill="#18202A"/>
<path d="M21.9191 7.4142C22.2942 7.78927 22.8029 7.99998 23.3333 7.99998H28.5333C28.5993 8.0001 28.6639 7.98062 28.7188 7.944C28.7737 7.90738 28.8165 7.85528 28.8418 7.79429C28.8671 7.73331 28.8737 7.6662 28.8608 7.60146C28.8479 7.53672 28.816 7.47727 28.7693 7.43065L21.9026 0.569317C21.8563 0.522889 21.7974 0.491147 21.7331 0.478061C21.6689 0.464975 21.6022 0.471127 21.5414 0.495747C21.4807 0.520368 21.4285 0.562363 21.3915 0.616478C21.3545 0.670593 21.3342 0.734424 21.3333 0.799984V5.99998C21.3333 6.53042 21.544 7.03912 21.9191 7.4142Z" fill="#18202A"/>
</g>
<defs>
<clipPath id="clip0_3352_8858">
<rect width="32" height="32" fill="white"/>
</clipPath>
</defs>
</svg>
