<svg width="32" height="32" viewBox="0 0 32 32" fill="none" xmlns="http://www.w3.org/2000/svg">
<path fill-rule="evenodd" clip-rule="evenodd" d="M16 4C15.2636 4 14.6667 4.59695 14.6667 5.33333C14.6667 6.06971 15.2636 6.66667 16 6.66667H23.4477L17.0572 13.0572C16.5365 13.5779 16.5365 14.4221 17.0572 14.9428C17.5779 15.4635 18.4221 15.4635 18.9428 14.9428L25.3333 8.55228V16C25.3333 16.7364 25.9303 17.3333 26.6667 17.3333C27.403 17.3333 28 16.7364 28 16V5.33333C28 4.59695 27.403 4 26.6667 4L16 4ZM16 28C16.7364 28 17.3333 27.403 17.3333 26.6667C17.3333 25.9303 16.7364 25.3333 16 25.3333H8.55228L14.9428 18.9428C15.4635 18.4221 15.4635 17.5779 14.9428 17.0572C14.4221 16.5365 13.5779 16.5365 13.0572 17.0572L6.66667 23.4477L6.66667 16C6.66667 15.2636 6.06971 14.6667 5.33333 14.6667C4.59695 14.6667 4 15.2636 4 16V26.6667C4 27.403 4.59695 28 5.33333 28H16Z" fill="#18202A"/>
</svg>
