<svg width="32" height="32" viewBox="0 0 32 32" fill="none" xmlns="http://www.w3.org/2000/svg">
<path fill-rule="evenodd" clip-rule="evenodd" d="M7.99998 7.33301H12C12.3682 7.33301 12.6666 7.63148 12.6666 7.99967V23.9997C12.6666 24.3679 12.3682 24.6663 12 24.6663H7.99998C7.63179 24.6663 7.33331 24.3679 7.33331 23.9997V7.99967C7.33331 7.63148 7.63179 7.33301 7.99998 7.33301ZM5.33331 7.99967C5.33331 6.52692 6.52722 5.33301 7.99998 5.33301H12C13.4727 5.33301 14.6666 6.52692 14.6666 7.99967V23.9997C14.6666 25.4724 13.4727 26.6663 12 26.6663H7.99998C6.52722 26.6663 5.33331 25.4724 5.33331 23.9997V7.99967ZM20 7.33301H24C24.3682 7.33301 24.6666 7.63148 24.6666 7.99967V23.9997C24.6666 24.3679 24.3682 24.6663 24 24.6663H20C19.6318 24.6663 19.3333 24.3679 19.3333 23.9997V7.99967C19.3333 7.63148 19.6318 7.33301 20 7.33301ZM17.3333 7.99967C17.3333 6.52692 18.5272 5.33301 20 5.33301H24C25.4727 5.33301 26.6666 6.52692 26.6666 7.99967V23.9997C26.6666 25.4724 25.4727 26.6663 24 26.6663H20C18.5272 26.6663 17.3333 25.4724 17.3333 23.9997V7.99967Z" fill="#18202A"/>
</svg>
