<svg width="32" height="32" viewBox="0 0 32 32" fill="none" xmlns="http://www.w3.org/2000/svg">
<g clip-path="url(#clip0_3293_9015)">
<path fill-rule="evenodd" clip-rule="evenodd" d="M18.3333 5.66683C18.8856 5.66683 19.3333 6.11454 19.3333 6.66683V8.00016H20.3333C20.8856 8.00016 21.3333 8.44788 21.3333 9.00016C21.3333 9.55245 20.8856 10.0002 20.3333 10.0002H19.3333V20.3335C19.3333 20.8858 18.8856 21.3335 18.3333 21.3335C17.7811 21.3335 17.3335 20.886 17.3333 20.3339C16.4977 20.9615 15.4589 21.3335 14.3333 21.3335C11.5719 21.3335 9.33331 19.0949 9.33331 16.3335C9.33331 13.5721 11.5719 11.3335 14.3333 11.3335C15.4589 11.3335 16.4977 11.7054 17.3333 12.3331V10.0002H16.3333C15.781 10.0002 15.3333 9.55245 15.3333 9.00016C15.3333 8.44788 15.781 8.00016 16.3333 8.00016H17.3333V6.66683C17.3333 6.11454 17.781 5.66683 18.3333 5.66683ZM14.3333 13.3335C15.9902 13.3335 17.3333 14.6766 17.3333 16.3335C17.3333 17.9904 15.9902 19.3335 14.3333 19.3335C12.6765 19.3335 11.3333 17.9904 11.3333 16.3335C11.3333 14.6766 12.6765 13.3335 14.3333 13.3335Z" fill="#18202A"/>
<path d="M10.3333 22.6668C9.78103 22.6668 9.33331 23.1145 9.33331 23.6668C9.33331 24.2191 9.78103 24.6668 10.3333 24.6668H18.3333C18.8856 24.6668 19.3333 24.2191 19.3333 23.6668C19.3333 23.1145 18.8856 22.6668 18.3333 22.6668H10.3333Z" fill="#18202A"/>
<path fill-rule="evenodd" clip-rule="evenodd" d="M30.6666 16.0002C30.6666 24.1003 24.1002 30.6668 16 30.6668C7.8998 30.6668 1.33331 24.1003 1.33331 16.0002C1.33331 7.89999 7.8998 1.3335 16 1.3335C24.1002 1.3335 30.6666 7.89999 30.6666 16.0002ZM28.6666 16.0002C28.6666 22.9958 22.9956 28.6668 16 28.6668C9.00437 28.6668 3.33331 22.9958 3.33331 16.0002C3.33331 9.00456 9.00437 3.3335 16 3.3335C22.9956 3.3335 28.6666 9.00456 28.6666 16.0002Z" fill="#18202A"/>
</g>
<defs>
<clipPath id="clip0_3293_9015">
<rect width="32" height="32" fill="white"/>
</clipPath>
</defs>
</svg>
