<svg width="32" height="32" viewBox="0 0 32 32" fill="none" xmlns="http://www.w3.org/2000/svg">
<path d="M22.7722 2.98721L22.7866 2.99475C22.8439 3.0247 22.901 3.05502 22.9578 3.08571C23.0171 3.11772 23.0771 3.15065 23.1368 3.18398C23.1875 3.21225 23.2373 3.24044 23.2869 3.26891C23.3611 3.31144 23.435 3.35468 23.5084 3.39854C23.5454 3.42062 23.5827 3.4431 23.6198 3.46574C23.7084 3.51969 23.7958 3.57421 23.8825 3.62962C23.9074 3.64549 23.9326 3.66171 23.9578 3.67801C24.0396 3.73095 24.1207 3.78453 24.2011 3.8389C24.2316 3.85952 24.2621 3.88026 24.2924 3.90111L24.3114 3.91413C24.5283 4.0636 24.741 4.21875 24.9493 4.37937C24.9837 4.4059 25.018 4.43259 25.0521 4.45943C25.1167 4.51018 25.1807 4.56128 25.2442 4.61289C25.2932 4.65275 25.3421 4.69298 25.3907 4.73352C25.4515 4.78433 25.5124 4.83597 25.5729 4.88809C25.6056 4.91634 25.6379 4.94444 25.6701 4.97269C25.8659 5.14448 26.0572 5.3216 26.2437 5.50364L26.2735 5.53282C26.3075 5.56612 26.3412 5.59958 26.3748 5.63321C26.4313 5.68971 26.4872 5.74663 26.5427 5.80399C26.5638 5.82574 26.5843 5.84706 26.6047 5.86845C26.7615 6.03244 26.9151 6.2008 27.0648 6.37268C27.0928 6.40492 27.1212 6.43777 27.1494 6.47075L27.2173 6.55062C27.2269 6.56201 27.2364 6.57342 27.246 6.58484C27.3055 6.65579 27.3646 6.72766 27.423 6.8001C29.4515 9.315 30.6667 12.5157 30.6667 16.0002C30.6667 19.3711 29.5294 22.4765 27.6177 24.9535L27.8496 24.6446C27.7507 24.78 27.6495 24.9136 27.5461 25.0454C27.485 25.1233 27.4235 25.2002 27.3612 25.2764C27.3278 25.3171 27.2941 25.358 27.2602 25.3986C27.088 25.6046 26.91 25.8061 26.7268 26.0026C26.6884 26.0437 26.6501 26.0843 26.6115 26.1247C26.564 26.1746 26.516 26.2242 26.4676 26.2735C26.4144 26.3277 26.3608 26.3814 26.3067 26.4348C26.2513 26.4895 26.1954 26.5439 26.1391 26.5979C26.1085 26.6271 26.0778 26.6562 26.047 26.6852C25.8451 26.8751 25.6381 27.0592 25.4259 27.2373C25.3873 27.2697 25.3479 27.3025 25.3083 27.335C25.2546 27.3791 25.2009 27.4227 25.1468 27.4659C25.0812 27.5183 25.0155 27.5699 24.9494 27.6209C24.7663 27.762 24.58 27.8989 24.3904 28.0314C24.3677 28.0472 24.3449 28.063 24.3221 28.0788C24.0941 28.2362 23.8614 28.3873 23.6243 28.5318C23.5937 28.5505 23.5639 28.5685 23.5341 28.5864C23.4502 28.6367 23.3648 28.6868 23.2788 28.7361C23.2346 28.7614 23.1901 28.7866 23.1455 28.8115C22.9169 28.9392 22.6853 29.0607 22.45 29.1761L22.3992 29.2009C22.3618 29.2191 22.3243 29.2371 22.2867 29.2549C22.21 29.2914 22.133 29.3272 22.0556 29.3623C21.9963 29.3892 21.9363 29.416 21.8761 29.4423C21.8184 29.4676 21.7611 29.4922 21.7036 29.5165C21.6367 29.5448 21.5694 29.5726 21.5019 29.5999C21.4383 29.6257 21.3739 29.6512 21.3092 29.6764C21.2175 29.712 21.1255 29.7467 21.033 29.7805C20.9365 29.8157 20.8397 29.85 20.7424 29.8832C20.7141 29.8928 20.6866 29.9021 20.6591 29.9113C20.5488 29.9483 20.4371 29.9842 20.3249 30.0187C20.2877 30.0302 20.2509 30.0414 20.2141 30.0524C20.1174 30.0814 20.0197 30.1095 19.9216 30.1367C19.8797 30.1483 19.8379 30.1596 19.7961 30.1708C19.5223 30.244 19.2453 30.3094 18.9653 30.3669C18.9566 30.3687 18.949 30.3703 18.9414 30.3718L18.6363 30.4305C17.7811 30.5858 16.9 30.6668 16 30.6668C9.35164 30.6668 3.73645 26.2433 1.93718 20.1788L1.93679 20.1775L1.91601 20.1068C1.87818 19.9768 1.8421 19.8461 1.8078 19.7147L1.93679 20.1775C1.87596 19.9724 1.81948 19.7654 1.76748 19.5566C1.74141 19.4519 1.71661 19.3474 1.69293 19.2425C1.68089 19.1891 1.66906 19.1353 1.65754 19.0814C1.63766 18.9884 1.61864 18.895 1.60052 18.8013C1.58262 18.7088 1.56558 18.6158 1.54941 18.5226C1.53001 18.4106 1.51193 18.2986 1.49513 18.1862C1.48687 18.1309 1.47892 18.0755 1.47127 18.0199C1.45389 17.8937 1.4381 17.767 1.42395 17.6397C1.42171 17.6196 1.41947 17.5992 1.41728 17.5787C1.40086 17.4252 1.38685 17.2715 1.37523 17.1171C1.37128 17.0647 1.36765 17.0128 1.36429 16.9608C1.35628 16.837 1.34977 16.7121 1.34484 16.5868C1.34334 16.5485 1.342 16.5108 1.34081 16.4731C1.33583 16.3161 1.33333 16.1584 1.33333 16.0002C1.33333 7.89999 7.89982 1.3335 16 1.3335C16.151 1.3335 16.3016 1.33578 16.4515 1.34031L16 1.3335C16.1624 1.3335 16.3242 1.33614 16.4853 1.34137C16.6176 1.34567 16.7498 1.35174 16.8814 1.35955C16.9162 1.3616 16.9518 1.36384 16.9874 1.36621C17.0864 1.37279 17.1845 1.38031 17.2823 1.38878C17.3297 1.39288 17.3768 1.39719 17.4238 1.40172C17.5131 1.41032 17.6025 1.41977 17.6917 1.43001C17.7539 1.43715 17.8161 1.44469 17.8781 1.45262C18.1459 1.48686 18.4112 1.52826 18.6739 1.57667C18.7139 1.58403 18.7531 1.59142 18.7922 1.59896C18.8909 1.61798 18.9896 1.63807 19.088 1.65915C19.1324 1.66867 19.1769 1.67842 19.2213 1.68837C19.2999 1.70598 19.3785 1.72428 19.4568 1.74321C19.5306 1.76104 19.6034 1.77924 19.6761 1.79798C19.7411 1.81477 19.8061 1.83203 19.871 1.84973C19.9219 1.86364 19.9733 1.87796 20.0246 1.89256C20.2902 1.96821 20.5519 2.05087 20.8104 2.14056C20.8466 2.15312 20.8832 2.16598 20.9197 2.17898C21.0149 2.21286 21.1094 2.24765 21.2036 2.28338C21.2327 2.29443 21.2616 2.30551 21.2905 2.31668C21.3902 2.35527 21.4894 2.39489 21.588 2.43555C21.6252 2.45091 21.6625 2.46647 21.6997 2.48218C21.7953 2.52254 21.8905 2.56391 21.9851 2.60626C22.0103 2.61752 22.0359 2.6291 22.0616 2.64075C22.1688 2.68949 22.2746 2.73913 22.3797 2.78999C22.3982 2.79891 22.4163 2.80773 22.4344 2.81659L22.45 2.82423C22.5582 2.87727 22.6656 2.9316 22.7722 2.98721ZM18 10.0002C20 12.0002 20.6667 16.6668 18 16.6668C15.3333 16.6668 15.3333 18.6668 16 20.6668C16.4577 22.04 14.6292 22.386 12.7782 20.6668C11.9332 19.882 12.0366 17.5704 10.6666 16.6668C7.21264 14.3889 5.42236 16.9127 4.25325 18.4622C5.38882 23.9089 10.2166 28.0002 16 28.0002C16.6989 28.0002 17.3839 27.9404 18.0501 27.8257C17.8781 24.0002 21.3434 21.1515 25.8016 22.921C27.187 20.9665 28 18.5783 28 16.0002C28 12.0341 26.0759 8.51735 23.1103 6.33254C19.0622 5.93302 16.669 8.66918 18 10.0002Z" fill="#18202A"/>
</svg>
