<svg width="32" height="32" viewBox="0 0 32 32" fill="none" xmlns="http://www.w3.org/2000/svg">
<path fill-rule="evenodd" clip-rule="evenodd" d="M3.37379 8.70711L7.37379 4.70711C7.76432 4.31658 7.76432 3.68342 7.37379 3.29289C6.98327 2.90237 6.3501 2.90237 5.95958 3.29289L1.95958 7.29289C1.56906 7.68342 1.56906 8.31658 1.95958 8.70711C2.3501 9.09763 2.98327 9.09763 3.37379 8.70711ZM27.3334 17.3333C27.3334 23.5926 22.2592 28.6667 16 28.6667C9.74079 28.6667 4.66669 23.5926 4.66669 17.3333C4.66669 11.0741 9.74079 6 16 6C22.2592 6 27.3334 11.0741 27.3334 17.3333ZM29.3334 17.3333C29.3334 24.6971 23.3638 30.6667 16 30.6667C8.63622 30.6667 2.66669 24.6971 2.66669 17.3333C2.66669 9.96954 8.63622 4 16 4C23.3638 4 29.3334 9.96954 29.3334 17.3333ZM24.6262 4.70711L28.6262 8.70711C29.0168 9.09763 29.6499 9.09763 30.0405 8.70711C30.431 8.31658 30.431 7.68342 30.0405 7.29289L26.0405 3.29289C25.6499 2.90237 25.0168 2.90237 24.6262 3.29289C24.2357 3.68342 24.2357 4.31658 24.6262 4.70711ZM17 9.33333C17 8.78105 16.5523 8.33333 16 8.33333C15.4477 8.33333 15 8.78105 15 9.33333V17.3333C15 17.7334 15.2384 18.0949 15.6061 18.2525L20.2728 20.2525C20.7804 20.47 21.3683 20.2349 21.5858 19.7273C21.8034 19.2196 21.5682 18.6317 21.0606 18.4142L17 16.6739V9.33333Z" fill="#18202A"/>
</svg>
