<svg width="32" height="32" viewBox="0 0 32 32" fill="none" xmlns="http://www.w3.org/2000/svg">
<path d="M17.6754 8.33325C19.5115 8.33325 21 9.8217 21 11.6578C21 13.0093 20.1832 14.2176 18.9488 14.7289L18.7267 14.8118L18.3162 14.9486C17.5906 15.1905 17.0831 15.8358 17.0093 16.5854L17 16.7748V17.3333C17 17.8855 16.5523 18.3333 16 18.3333C15.4937 18.3333 15.0753 17.957 15.0091 17.4689L15 17.3333V16.7748C15 15.1698 15.9756 13.7359 17.4473 13.1385L17.6838 13.0512L18.0943 12.9144C18.6352 12.7341 19 12.2279 19 11.6578C19 10.9785 18.4887 10.4187 17.8299 10.3422L17.6754 10.3333H13.8856C13.3965 10.3333 13 10.7298 13 11.2189C13 11.4068 13.0597 11.5885 13.1686 11.7387L13.2594 11.8451L13.3738 11.9595C13.7643 12.35 13.7643 12.9832 13.3738 13.3737C13.0187 13.7287 12.4632 13.761 12.0717 13.4705L11.9595 13.3737L11.8452 13.2593C11.304 12.7182 11 11.9842 11 11.2189C11 9.69448 12.182 8.44617 13.6795 8.3405L13.8856 8.33325H17.6754Z" fill="#18202A"/>
<path d="M17.3333 21.3333C17.3333 20.5969 16.7364 19.9999 16 19.9999C15.2636 19.9999 14.6666 20.5969 14.6666 21.3333C14.6666 22.0696 15.2636 22.6666 16 22.6666C16.7364 22.6666 17.3333 22.0696 17.3333 21.3333Z" fill="#18202A"/>
<path fill-rule="evenodd" clip-rule="evenodd" d="M16 30.6666C24.1002 30.6666 30.6666 24.1001 30.6666 15.9999C30.6666 7.89974 24.1002 1.33325 16 1.33325C7.8998 1.33325 1.33331 7.89974 1.33331 15.9999C1.33331 24.1001 7.8998 30.6666 16 30.6666ZM28.6666 15.9999C28.6666 22.9955 22.9956 28.6666 16 28.6666C9.00437 28.6666 3.33331 22.9955 3.33331 15.9999C3.33331 9.00431 9.00437 3.33325 16 3.33325C22.9956 3.33325 28.6666 9.00431 28.6666 15.9999Z" fill="#18202A"/>
</svg>
