<svg width="32" height="32" viewBox="0 0 32 32" fill="none" xmlns="http://www.w3.org/2000/svg">
<path fill-rule="evenodd" clip-rule="evenodd" d="M5.33331 4.66669H26.6666C27.7712 4.66669 28.6666 5.56212 28.6666 6.66669V10.6667C28.6666 11.7713 27.7712 12.6667 26.6666 12.6667H5.33331C4.22874 12.6667 3.33331 11.7713 3.33331 10.6667V6.66669C3.33331 5.56212 4.22874 4.66669 5.33331 4.66669ZM1.33331 6.66669C1.33331 4.45755 3.12417 2.66669 5.33331 2.66669H26.6666C28.8758 2.66669 30.6666 4.45755 30.6666 6.66669V10.6667C30.6666 12.8758 28.8758 14.6667 26.6666 14.6667H5.33331C3.12417 14.6667 1.33331 12.8758 1.33331 10.6667V6.66669ZM5.33331 19.3334H26.6666C27.7712 19.3334 28.6666 20.2288 28.6666 21.3334V25.3334C28.6666 26.4379 27.7712 27.3334 26.6666 27.3334H5.33331C4.22874 27.3334 3.33331 26.4379 3.33331 25.3334V21.3334C3.33331 20.2288 4.22874 19.3334 5.33331 19.3334ZM1.33331 21.3334C1.33331 19.1242 3.12417 17.3334 5.33331 17.3334H26.6666C28.8758 17.3334 30.6666 19.1242 30.6666 21.3334V25.3334C30.6666 27.5425 28.8758 29.3334 26.6666 29.3334H5.33331C3.12417 29.3334 1.33331 27.5425 1.33331 25.3334V21.3334Z" fill="#18202A"/>
</svg>
