<svg width="32" height="32" viewBox="0 0 32 32" fill="none" xmlns="http://www.w3.org/2000/svg">
<path d="M1.62799 1.62817C2.02089 1.23527 2.65792 1.23527 3.05082 1.62817L27.7053 26.2827C28.0982 26.6756 28.0982 27.3126 27.7053 27.7055C27.3124 28.0984 26.6754 28.0984 26.2825 27.7055L1.62799 3.051C1.23509 2.6581 1.23509 2.02108 1.62799 1.62817Z" fill="#18202A"/>
<path d="M5.75777 4.33703L2.5122 5.31326L2.34179 5.37435C1.73507 5.62861 1.33331 6.20809 1.33331 6.85704C1.33331 23.3512 9.58255 27.8773 14.5759 30.1883L15.2821 30.5118C15.5094 30.6151 15.7549 30.6668 16.0004 30.6668C16.2457 30.6668 16.4905 30.6151 16.7172 30.5118C19.1856 29.3875 22.7299 27.7726 25.6281 24.2074L24.2055 22.7848C24.1313 22.8784 24.0562 22.9711 23.9802 23.0627L23.7062 23.3868C21.9787 25.386 20.2199 26.6036 17.3784 27.991L16.3897 28.4611L15.9986 28.6402L15.6083 28.4604C12.0059 26.7873 10.0298 25.4889 8.01966 23.0625L7.75058 22.729C5.00769 19.2373 3.43365 14.3399 3.33795 7.52277L3.33465 7.1535L7.36282 5.94208L5.75777 4.33703Z" fill="#18202A"/>
<path d="M8.95958 7.53884L5.33331 8.6295L5.33758 8.75254C5.58715 14.4726 6.98729 18.5576 9.27526 21.4781L9.52379 21.7866C11.1397 23.7371 12.7506 24.8758 15.5548 26.2385L15.964 26.4348L16.3704 26.2397C19.0358 24.945 20.6239 23.852 22.1616 22.0734L22.4041 21.7868C22.5251 21.6407 22.6438 21.4916 22.7601 21.3394L21.3313 19.9105C21.1817 20.1152 21.028 20.3126 20.8704 20.5031L20.6419 20.7732C19.4251 22.1786 18.179 23.0972 15.9639 24.21C13.6332 23.0391 12.3652 22.0789 11.0724 20.5208L10.8416 20.2343C9.06555 17.9625 7.81489 14.7459 7.42555 10.0887L10.5652 9.14444L8.95958 7.53884Z" fill="#18202A"/>
<path d="M12.7396 8.49044L11.134 6.88485L15.964 5.43216L26.5933 8.6295L26.5592 9.35667C26.3042 13.6715 25.3732 17.0264 23.886 19.6368L22.4115 18.1623C23.4791 16.1066 24.2186 13.4797 24.5022 10.089L15.9639 7.52068L12.7396 8.49044Z" fill="#18202A"/>
<path d="M25.3684 21.1192C27.4178 17.7761 28.5802 13.3506 28.662 7.52106L28.664 7.1535L16.0013 3.34416L9.5373 5.28813L7.93216 3.683L15.5001 1.40665C15.7608 1.32862 16.0361 1.31301 16.3026 1.35983L16.5005 1.40665L29.4884 5.31326C30.1892 5.52448 30.6673 6.14975 30.6666 6.85704C30.6666 14.1559 29.0513 19.1114 26.8175 22.5683L25.3684 21.1192Z" fill="#18202A"/>
</svg>
