<svg width="32" height="32" viewBox="0 0 32 32" fill="none" xmlns="http://www.w3.org/2000/svg">
<path fill-rule="evenodd" clip-rule="evenodd" d="M3.36058 15.5194V15.5878C3.36058 19.5735 4.93174 22.565 7.35371 24.5272L8.01692 25.0645L8.28886 28.3278L11.6857 26.76L12.3576 26.9191C13.0968 27.0941 13.8686 27.2154 14.6666 27.2797V27.9999C14.6666 28.447 14.7217 28.8812 14.8253 29.2961C13.8169 29.2326 12.8373 29.0879 11.8969 28.8653L8.26232 30.5428C7.42195 30.9306 6.45171 30.3652 6.37485 29.4429L6.09471 26.0812C3.18428 23.7233 1.36058 20.1508 1.36058 15.5878C0.837326 7.95143 7.92097 1.33325 16.0136 1.33325C24.1063 1.33325 30.6666 6.93325 30.6666 15.5878C30.6666 16.472 30.5824 17.3434 30.4186 18.1921C30.0987 17.0539 29.4841 16.039 28.6624 15.2348C28.4898 8.00791 23.0151 3.33325 16.0136 3.33325C8.86119 3.33325 2.92601 9.17725 3.3559 15.4511L3.36058 15.5194ZM28 20.6666C29.4727 20.6666 30.6666 21.8605 30.6666 23.3333V27.9999C30.6666 29.4727 29.4727 30.6666 28 30.6666H20C18.5272 30.6666 17.3333 29.4727 17.3333 27.9999V23.3333C17.3333 21.8605 18.5272 20.6666 20 20.6666V19.9999C20 17.7908 21.7908 15.9999 24 15.9999C26.2091 15.9999 28 17.7908 28 19.9999V20.6666ZM26.6666 19.9999C26.6666 18.5272 25.4727 17.3333 24 17.3333C22.5272 17.3333 21.3333 18.5272 21.3333 19.9999V20.6666H26.6666V19.9999ZM25.3333 24.6666C25.3333 25.1601 25.0652 25.591 24.6666 25.8215V27.3333C24.6666 27.7014 24.3682 27.9999 24 27.9999C23.6318 27.9999 23.3333 27.7014 23.3333 27.3333V25.8215C22.9348 25.591 22.6666 25.1601 22.6666 24.6666C22.6666 23.9302 23.2636 23.3333 24 23.3333C24.7364 23.3333 25.3333 23.9302 25.3333 24.6666Z" fill="#18202A"/>
</svg>
