<svg width="32" height="32" viewBox="0 0 32 32" fill="none" xmlns="http://www.w3.org/2000/svg">
<path fill-rule="evenodd" clip-rule="evenodd" d="M7.80618 17.0002C7.41059 17.9774 6.45248 18.6668 5.33335 18.6668C3.86059 18.6668 2.66669 17.4729 2.66669 16.0002C2.66669 14.5274 3.86059 13.3335 5.33335 13.3335C6.45248 13.3335 7.41059 14.0229 7.80618 15.0002H13.5272C13.9228 14.0229 14.8809 13.3335 16 13.3335C17.1191 13.3335 18.0773 14.0229 18.4728 15.0002H24.1939C24.5895 14.0229 25.5476 13.3335 26.6667 13.3335C28.1394 13.3335 29.3334 14.5274 29.3334 16.0002C29.3334 17.4729 28.1394 18.6668 26.6667 18.6668C25.5476 18.6668 24.5894 17.9774 24.1939 17.0002H18.4728C18.0773 17.9774 17.1191 18.6668 16 18.6668C14.8809 18.6668 13.9228 17.9774 13.5272 17.0002H7.80618Z" fill="#18202A"/>
</svg>
