<svg width="32" height="32" viewBox="0 0 32 32" fill="none" xmlns="http://www.w3.org/2000/svg">
<g clip-path="url(#clip0_2294_12825)">
<path fill-rule="evenodd" clip-rule="evenodd" d="M1.71751 0.294678C1.3246 -0.0982259 0.687581 -0.0982259 0.294678 0.294678C-0.098226 0.687581 -0.0982259 1.3246 0.294678 1.71751L2.25134 3.67418C1.67191 4.52745 1.33333 5.55752 1.33333 6.66667V18.6667C1.33333 21.1697 3.05763 23.27 5.38319 23.8446C5.79429 23.9461 6.22419 24 6.66666 24H7.39394L6.62085 27.6974C6.38333 28.8334 7.60988 29.7094 8.60739 29.1163L17.2121 24H22.5772L26.2825 27.7053C26.6754 28.0982 27.3124 28.0982 27.7053 27.7053C28.0982 27.3124 28.0982 26.6754 27.7053 26.2825L1.71751 0.294678ZM20.5772 22L3.70764 5.13047C3.4685 5.59019 3.33333 6.11264 3.33333 6.66667V18.6667C3.33333 20.5076 4.82572 22 6.66666 22H7.39394C7.99618 22 8.56636 22.2714 8.94614 22.7388C9.32592 23.2062 9.47486 23.8198 9.3516 24.4093L8.88894 26.6221L16.19 22.2809C16.4992 22.0971 16.8523 22 17.2121 22H20.5772ZM28.6667 18.6667C28.6667 20.2263 27.5956 21.5357 26.1489 21.8995L27.6979 23.4485C29.4571 22.5769 30.6667 20.763 30.6667 18.6667V6.66667C30.6667 3.72115 28.2789 1.33333 25.3333 1.33333H6.66667C6.32771 1.33333 5.99615 1.36495 5.67475 1.4254L7.58268 3.33333H25.3333C27.1743 3.33333 28.6667 4.82572 28.6667 6.66667V18.6667Z" fill="#18202A"/>
</g>
<defs>
<clipPath id="clip0_2294_12825">
<rect width="32" height="32" fill="white"/>
</clipPath>
</defs>
</svg>
