<svg width="32" height="32" viewBox="0 0 32 32" fill="none" xmlns="http://www.w3.org/2000/svg">
<path fill-rule="evenodd" clip-rule="evenodd" d="M16 22.9712C16 19.8576 18.5241 17.3335 21.6377 17.3335H29V19.3335H21.6377C19.6286 19.3335 18 20.9621 18 22.9712V29.0002H16V22.9712Z" fill="#18202A"/>
<path fill-rule="evenodd" clip-rule="evenodd" d="M22.5507 3.3335H9.44925C6.07151 3.3335 3.33331 6.0717 3.33331 9.44944V22.5509C3.33331 25.9286 6.07151 28.6668 9.44925 28.6668H16.7536C23.333 28.6668 28.6666 23.3332 28.6666 16.7538V9.44944C28.6666 6.0717 25.9284 3.3335 22.5507 3.3335ZM9.44925 1.3335C4.96694 1.3335 1.33331 4.96713 1.33331 9.44944V22.5509C1.33331 27.0332 4.96694 30.6668 9.44925 30.6668H16.7536C24.4376 30.6668 30.6666 24.4377 30.6666 16.7538V9.44944C30.6666 4.96713 27.033 1.3335 22.5507 1.3335H9.44925Z" fill="#18202A"/>
<path d="M12 12.0002C12 13.4729 11.1045 14.6668 9.99998 14.6668C8.89541 14.6668 7.99998 13.4729 7.99998 12.0002C7.99998 10.5274 8.89541 9.3335 9.99998 9.3335C11.1045 9.3335 12 10.5274 12 12.0002Z" fill="#18202A"/>
<path d="M24 12.0002C24 13.4729 23.1045 14.6668 22 14.6668C20.8954 14.6668 20 13.4729 20 12.0002C20 10.5274 20.8954 9.3335 22 9.3335C23.1045 9.3335 24 10.5274 24 12.0002Z" fill="#18202A"/>
<path d="M16.1521 21.6648C16.0526 22.0841 16 22.5215 16 22.9712L16 23.6668C14.7754 23.6668 13.5663 23.387 12.4889 22.8483C11.4113 22.3095 10.4949 21.526 9.83969 20.5624C9.52916 20.1057 9.64766 19.4837 10.1044 19.1731C10.5611 18.8626 11.1831 18.9811 11.4936 19.4378C11.9446 20.1011 12.5918 20.6637 13.3833 21.0595C14.1752 21.4554 15.077 21.6668 16 21.6668C16.0508 21.6668 16.1015 21.6661 16.1521 21.6648Z" fill="#18202A"/>
</svg>
