<svg width="32" height="32" viewBox="0 0 32 32" fill="none" xmlns="http://www.w3.org/2000/svg">
<g clip-path="url(#clip0_2533_8397)">
<path d="M15.9999 15.9999C18.6665 15.9999 19.9999 13.3333 19.9999 9.99992C19.9999 7.33325 18.6665 5.33325 15.9999 5.33325C13.3332 5.33325 11.9999 7.33325 11.9999 9.99992C11.9999 13.3333 13.3332 15.9999 15.9999 15.9999Z" fill="#18202A"/>
<path d="M17.6153 29.2797C17.0088 28.0961 16.6667 26.7546 16.6667 25.3333C16.6667 22.3633 18.1606 19.7423 20.4379 18.1806C19.0651 17.6339 17.5676 17.3333 15.9999 17.3333C13.6211 17.3333 11.4039 18.0254 9.53886 19.2193C7.79254 20.3373 7.20824 22.5649 7.90637 24.5173C8.11053 25.0883 8.33835 25.648 8.58863 26.1953C9.2979 27.7464 10.7542 28.8205 12.4412 29.0712C13.6023 29.2438 14.7907 29.3333 15.9999 29.3333C16.5427 29.3333 17.0814 29.3152 17.6153 29.2797Z" fill="#18202A"/>
<path d="M6.66654 15.9999C8.44432 15.9999 9.33321 14.3333 9.33321 12.2499C9.33321 10.5833 8.44432 9.33325 6.66654 9.33325C4.88877 9.33325 3.99988 10.5833 3.99988 12.2499C3.99988 14.3333 4.88877 15.9999 6.66654 15.9999Z" fill="#18202A"/>
<path d="M25.3332 15.9999C27.111 15.9999 27.9999 14.3333 27.9999 12.2499C27.9999 10.5833 27.111 9.33325 25.3332 9.33325C23.5554 9.33325 22.6665 10.5833 22.6665 12.2499C22.6665 14.3333 23.5554 15.9999 25.3332 15.9999Z" fill="#18202A"/>
<path d="M5.3954 25.4154C4.61208 23.2247 4.86119 20.6547 6.26445 18.7063C4.99158 18.8155 3.78255 19.1482 2.67681 19.665C1.12073 20.3924 0.492831 22.2293 1.01817 23.8647C1.47781 25.2955 2.72599 26.3007 4.21751 26.4848C4.76223 26.5521 5.31261 26.6011 5.868 26.6312C5.69986 26.2313 5.54221 25.826 5.3954 25.4154Z" fill="#18202A"/>
<path fill-rule="evenodd" clip-rule="evenodd" d="M25.3333 31.9999C29.0152 31.9999 32 29.0152 32 25.3333C32 21.6514 29.0152 18.6666 25.3333 18.6666C21.6514 18.6666 18.6667 21.6514 18.6667 25.3333C18.6667 29.0152 21.6514 31.9999 25.3333 31.9999ZM26.3333 22.3333C26.3333 21.781 25.8856 21.3333 25.3333 21.3333C24.781 21.3333 24.3333 21.781 24.3333 22.3333V24.3333H22.3333C21.781 24.3333 21.3333 24.781 21.3333 25.3333C21.3333 25.8855 21.781 26.3333 22.3333 26.3333H24.3333V28.3333C24.3333 28.8855 24.781 29.3333 25.3333 29.3333C25.8856 29.3333 26.3333 28.8855 26.3333 28.3333V26.3333H28.3333C28.8856 26.3333 29.3333 25.8855 29.3333 25.3333C29.3333 24.781 28.8856 24.3333 28.3333 24.3333H26.3333V22.3333Z" fill="#18202A"/>
</g>
<defs>
<clipPath id="clip0_2533_8397">
<rect width="32" height="32" fill="white"/>
</clipPath>
</defs>
</svg>
