<svg width="32" height="32" viewBox="0 0 32 32" fill="none" xmlns="http://www.w3.org/2000/svg">
<path fill-rule="evenodd" clip-rule="evenodd" d="M21.3333 7.16634C21.3333 11.333 19.5555 14.6663 16 14.6663C12.4444 14.6663 10.6666 11.333 10.6666 7.16634C10.6666 3.83301 12.4444 1.33301 16 1.33301C19.5555 1.33301 21.3333 3.83301 21.3333 7.16634ZM19.3333 7.16634C19.3333 9.00382 18.9355 10.4558 18.328 11.3813C17.7743 12.2249 17.0434 12.6663 16 12.6663C14.9566 12.6663 14.2257 12.2249 13.672 11.3813C13.0644 10.4558 12.6666 9.00382 12.6666 7.16634C12.6666 5.83323 13.0227 4.88228 13.5214 4.29791C13.9815 3.75872 14.728 3.33301 16 3.33301C17.272 3.33301 18.0185 3.75872 18.4786 4.29791C18.9773 4.88228 19.3333 5.83323 19.3333 7.16634Z" fill="#18202A"/>
<path fill-rule="evenodd" clip-rule="evenodd" d="M25.7335 26.9124C24.979 28.4111 23.6015 29.4998 21.9761 29.9164C20.0656 30.406 18.0632 30.6663 16 30.6663C13.9368 30.6663 11.9344 30.406 10.0239 29.9164C8.39848 29.4998 7.0209 28.4111 6.26645 26.9123C6.04281 26.4681 5.83424 26.0149 5.64141 25.5536C4.82207 23.5932 5.1486 21.2996 6.66574 19.812C9.07082 17.4538 12.3656 15.9997 16 15.9997C19.6344 15.9997 22.9291 17.4538 25.3342 19.812C26.8513 21.2995 27.1779 23.5931 26.3585 25.5535C26.1657 26.0149 25.9571 26.4681 25.7335 26.9124ZM21.4796 27.979C19.7299 28.4274 17.8943 28.6663 16 28.6663C14.1057 28.6663 12.27 28.4274 10.5204 27.979C9.44125 27.7024 8.54131 26.9834 8.05287 26.0131C7.85028 25.6106 7.66136 25.2002 7.48673 24.7823C6.94084 23.4762 7.20751 22.0818 8.06596 21.2401C10.1123 19.2336 12.9101 17.9997 16 17.9997C19.0899 17.9997 21.8876 19.2336 23.934 21.24C24.7924 22.0818 25.0591 23.4762 24.5132 24.7823C24.3386 25.2002 24.1497 25.6106 23.9471 26.0131C23.4586 26.9834 22.5587 27.7024 21.4796 27.979Z" fill="#18202A"/>
</svg>
