<svg width="32" height="32" viewBox="0 0 32 32" fill="none" xmlns="http://www.w3.org/2000/svg">
<path fill-rule="evenodd" clip-rule="evenodd" d="M16 30.6666C7.89982 30.6666 1.33333 24.1002 1.33333 16C1.33333 7.8998 7.89982 1.33331 16 1.33331C24.1002 1.33331 30.6667 7.8998 30.6667 16C30.6667 24.1002 24.1002 30.6666 16 30.6666ZM13.7239 9.72384C14.2446 9.20314 15.0888 9.20314 15.6095 9.72384C16.1302 10.2445 16.1302 11.0888 15.6095 11.6095L12.5523 14.6666H22.6667C23.403 14.6666 24 15.2636 24 16C24 16.7364 23.403 17.3333 22.6667 17.3333H12.5523L15.6095 20.3905C16.1302 20.9112 16.1302 21.7554 15.6095 22.2761C15.0888 22.7968 14.2446 22.7968 13.7239 22.2761L8.39052 16.9428C7.86982 16.4221 7.86982 15.5779 8.39052 15.0572L13.7239 9.72384Z" fill="#18202A"/>
</svg>
