<svg width="32" height="32" viewBox="0 0 32 32" fill="none" xmlns="http://www.w3.org/2000/svg">
<g clip-path="url(#clip0_2294_10603)">
<path fill-rule="evenodd" clip-rule="evenodd" d="M21.3333 7.16634C21.3333 11.333 19.5556 14.6663 16 14.6663C12.4444 14.6663 10.6667 11.333 10.6667 7.16634C10.6667 3.83301 12.4444 1.33301 16 1.33301C19.5556 1.33301 21.3333 3.83301 21.3333 7.16634ZM22.7602 19.1714C20.7781 18.0032 18.4673 17.333 16.0001 17.333C12.6734 17.333 9.63129 18.5513 7.29556 20.5661C5.51592 22.1012 5.16126 24.6815 6.20422 26.7876C6.22484 26.8293 6.2456 26.8709 6.26648 26.9123C7.02094 28.4111 8.39852 29.4998 10.0239 29.9164C11.5201 30.2998 13.0727 30.5426 14.6667 30.6299V24.333C14.6667 22.6762 16.0098 21.333 17.6667 21.333H21.3333C21.8856 21.333 22.3241 20.8815 22.4205 20.3377C22.4923 19.9324 22.6072 19.542 22.7602 19.1714ZM18.3333 23.9997C17.781 23.9997 17.3333 24.4474 17.3333 24.9997V30.9997C17.3333 31.552 17.7811 31.9997 18.3333 31.9997H27C27.5523 31.9997 28 31.552 28 30.9997V24.9997C28 24.4474 27.5523 23.9997 27 23.9997H26.6667V21.333C26.6667 20.5966 27.2636 19.9997 28 19.9997C28.7364 19.9997 29.3333 20.5966 29.3333 21.333V23.1108C29.3333 23.8472 29.9303 24.4441 30.6667 24.4441C31.403 24.4441 32 23.8472 32 23.1108V21.333C32 19.1239 30.2091 17.333 28 17.333C25.7909 17.333 24 19.1239 24 21.333V23.9997H18.3333ZM24 27.333C24 26.5966 23.403 25.9997 22.6667 25.9997C21.9303 25.9997 21.3333 26.5966 21.3333 27.333V28.6663C21.3333 29.4027 21.9303 29.9997 22.6667 29.9997C23.403 29.9997 24 29.4027 24 28.6663V27.333Z" fill="#18202A"/>
</g>
<defs>
<clipPath id="clip0_2294_10603">
<rect width="32" height="32" fill="white"/>
</clipPath>
</defs>
</svg>
