<svg width="32" height="32" viewBox="0 0 32 32" fill="none" xmlns="http://www.w3.org/2000/svg">
<path fill-rule="evenodd" clip-rule="evenodd" d="M16 12.333C16.5523 12.333 17 12.7807 17 13.333V26.9188L19.2929 24.6259C19.6834 24.2354 20.3166 24.2354 20.7071 24.6259C21.0976 25.0164 21.0976 25.6496 20.7071 26.0401L16.7071 30.0401C16.5196 30.2277 16.2652 30.333 16 30.333C15.7348 30.333 15.4804 30.2277 15.2929 30.0401L11.2929 26.0401C10.9024 25.6496 10.9024 25.0164 11.2929 24.6259C11.6834 24.2354 12.3166 24.2354 12.7071 24.6259L15 26.9188V13.333C15 12.7807 15.4477 12.333 16 12.333Z" fill="#18202A"/>
<path d="M23.0324 8.57867L23.4823 10.0969L25.0632 10.0073C25.1524 10.0022 25.2425 9.99967 25.3333 9.99967C27.9107 9.99967 30 12.089 30 14.6663C30 17.2437 27.9107 19.333 25.3333 19.333H19V21.333H25.3333C29.0152 21.333 32 18.3482 32 14.6663C32 10.9844 29.0152 7.99967 25.3333 7.99967C25.2047 7.99967 25.0769 8.00332 24.95 8.01051C23.8061 4.14962 20.232 1.33301 16 1.33301C11.768 1.33301 8.19388 4.14962 7.04995 8.01051C6.92311 8.00332 6.79531 7.99967 6.66667 7.99967C2.98477 7.99967 0 10.9844 0 14.6663C0 18.3482 2.98477 21.333 6.66667 21.333H13V19.333H6.66667C4.08934 19.333 2 17.2437 2 14.6663C2 12.089 4.08934 9.99967 6.66667 9.99967C6.75752 9.99967 6.84757 10.0022 6.93677 10.0073L8.51772 10.0969L8.96756 8.57867C9.86677 5.54373 12.6778 3.33301 16 3.33301C19.3222 3.33301 22.1332 5.54373 23.0324 8.57867Z" fill="#18202A"/>
</svg>
