<svg width="32" height="32" viewBox="0 0 32 32" fill="none" xmlns="http://www.w3.org/2000/svg">
<path fill-rule="evenodd" clip-rule="evenodd" d="M17.8237 24.0002H25.5758C28.3874 24.0002 30.6667 21.6123 30.6667 18.6668V6.66683C30.6667 3.72131 28.3874 1.3335 25.5758 1.3335H7.75758C4.94594 1.3335 2.66667 3.72131 2.66667 6.66683V7.04562C2.66667 7.5728 3.09403 8.00016 3.62121 8.00016C4.14839 8.00016 4.57576 7.5728 4.57576 7.04562V6.66683C4.57576 4.82588 6.00031 3.3335 7.75758 3.3335H25.5758C27.333 3.3335 28.7576 4.82588 28.7576 6.66683V18.6668C28.7576 20.5078 27.333 22.0002 25.5758 22.0002H17.8237C17.4803 22.0002 17.1432 22.0972 16.848 22.2811L9.87883 26.6222L10.3205 24.4095C10.4381 23.82 10.296 23.2063 9.93344 22.7389C9.57092 22.2715 9.02666 22.0002 8.45179 22.0002H7.75757C6.26729 22.0002 5.0163 20.9268 4.67058 19.4778C4.56571 19.0382 4.20944 18.6668 3.75758 18.6668C3.15508 18.6668 2.6554 19.1598 2.77191 19.7509C2.83428 20.0674 2.92342 20.3736 3.03672 20.6668C3.64264 22.235 4.93984 23.4325 6.53244 23.8447C6.92486 23.9463 7.33521 24.0002 7.75757 24.0002H8.45179L7.71384 27.6976C7.48712 28.8335 8.65791 29.7096 9.61009 29.1165L17.8237 24.0002ZM13.7071 7.62639C13.3166 7.23587 12.6834 7.23587 12.2929 7.62639C11.9024 8.01691 11.9024 8.65008 12.2929 9.0406L15.2525 12.0002H1C0.447715 12.0002 0 12.4479 0 13.0002C0 13.5524 0.447715 14.0002 1 14.0002H15.2525L12.2929 16.9597C11.9024 17.3502 11.9024 17.9834 12.2929 18.3739C12.6834 18.7645 13.3166 18.7645 13.7071 18.3739L18.3738 13.7073C18.7643 13.3167 18.7643 12.6836 18.3738 12.2931L13.7071 7.62639Z" fill="#18202A"/>
</svg>
