<svg width="32" height="32" viewBox="0 0 32 32" fill="none" xmlns="http://www.w3.org/2000/svg">
<g clip-path="url(#clip0_3291_8700)">
<g clip-path="url(#clip1_3291_8700)">
<path d="M12.1381 10.5821C11.6185 10.9284 11.3334 11.3879 11.3334 12C11.3334 12.5523 10.8856 13 10.3334 13C9.78107 13 9.33336 12.5523 9.33336 12C9.33336 10.6121 10.0482 9.5716 11.0287 8.91795C11.9795 8.28406 13.185 8 14.3334 8C17.161 8 19.3334 10.0581 19.3334 12.6667C19.3334 14.0229 18.5126 15.3619 17.7712 16.3453C17.173 17.1388 16.4927 17.8653 16.0513 18.3367C15.9275 18.4689 15.8224 18.5811 15.7433 18.669C15.2243 19.2457 14.0496 20.5041 13.0132 21.6095L12.6469 22H18.3334C18.8856 22 19.3334 22.4477 19.3334 23C19.3334 23.5523 18.8856 24 18.3334 24H10.3334C9.93422 24 9.5733 23.7626 9.41518 23.3962C9.25705 23.0297 9.332 22.6043 9.60586 22.3139L10.1907 21.693C10.5481 21.3132 11.0352 20.7951 11.5542 20.2416C12.5957 19.1307 13.7544 17.8892 14.2567 17.331C14.3687 17.2066 14.4995 17.0668 14.6435 16.9129C15.0845 16.4414 15.6491 15.8378 16.1742 15.1413C16.8954 14.1847 17.3334 13.3104 17.3334 12.6667C17.3334 11.2752 16.1724 10 14.3334 10C13.4817 10 12.6872 10.2159 12.1381 10.5821Z" fill="#18202A"/>
<path d="M5.42418 8.09442C5.77557 8.259 6.00002 8.61199 6.00002 9.00001V23C6.00002 23.5523 5.55231 24 5.00003 24C4.44774 24 4.00003 23.5523 4.00003 23V11.1351L1.64021 13.1016C1.21593 13.4551 0.585368 13.3978 0.231804 12.9735C-0.12176 12.5493 -0.0644362 11.9187 0.359841 11.5651L4.35984 8.23179C4.65792 7.98339 5.0728 7.92984 5.42418 8.09442Z" fill="#18202A"/>
<path d="M24.8047 10.5821C24.2852 10.9284 24 11.3879 24 12C24 12.5523 23.5523 13 23 13C22.4477 13 22 12.5523 22 12C22 10.6121 22.7148 9.5716 23.6953 8.91795C24.6461 8.28406 25.8517 8 27 8C28.3506 8 29.5895 8.38609 30.5107 9.14474C31.4474 9.91616 32 11.0316 32 12.3333C32 14.0118 31.2405 15.236 30.0964 15.9987L30.0944 16.0001L30.0964 16.0014C31.2405 16.7641 32 17.9883 32 19.6667C32 20.6957 31.7126 21.5346 31.224 22.191C30.7438 22.836 30.1157 23.2431 29.5237 23.5005C28.3741 24.0003 27.2067 24.0001 27.0047 24.0001H27C26.0619 24.0001 24.8695 23.8168 23.874 23.2405C22.824 22.6326 22 21.5783 22 20C22 19.4477 22.4477 19 23 19C23.5523 19 24 19.4477 24 20C24 20.755 24.3426 21.2008 24.8761 21.5096C25.4639 21.8499 26.2715 22.0001 27 22.0001C27.1453 22.0001 27.9685 21.9958 28.7263 21.6663C29.0926 21.507 29.402 21.2892 29.6197 20.9967C29.8291 20.7155 30 20.3044 30 19.6667C30 18.6785 29.5929 18.0694 28.987 17.6655C28.3306 17.2279 27.38 17.0001 26.3333 17.0001C25.781 17.0001 25.3333 16.5524 25.3333 16.0001C25.3333 15.4478 25.781 15.0001 26.3333 15.0001C27.38 15.0001 28.3306 14.7723 28.987 14.3347C29.5928 13.9307 30 13.3215 30 12.3333C30 11.6351 29.7192 11.0838 29.2393 10.6886C28.7438 10.2806 27.9827 10 27 10C26.1483 10 25.3539 10.2159 24.8047 10.5821Z" fill="#18202A"/>
</g>
</g>
<defs>
<clipPath id="clip0_3291_8700">
<rect width="32" height="32" fill="white"/>
</clipPath>
<clipPath id="clip1_3291_8700">
<rect width="32" height="32" fill="white"/>
</clipPath>
</defs>
</svg>
