<svg width="32" height="32" viewBox="0 0 32 32" fill="none" xmlns="http://www.w3.org/2000/svg">
<g clip-path="url(#clip0_3761_8850)">
<path fill-rule="evenodd" clip-rule="evenodd" d="M13.3333 8.66667C13.3333 10.7807 11.9277 12.5664 10 13.1401V17.6667C10 20.0599 11.9401 22 14.3333 22H18.8599C19.4336 20.0724 21.2193 18.6667 23.3333 18.6667C25.9107 18.6667 28 20.756 28 23.3333C28 25.9107 25.9107 28 23.3333 28C20.9824 28 19.0374 26.2615 18.7139 24H14.3333C10.8355 24 8 21.1645 8 17.6667V13.2861C5.73847 12.9626 4 11.0176 4 8.66667C4 6.08934 6.08934 4 8.66667 4C11.244 4 13.3333 6.08934 13.3333 8.66667ZM11.3333 8.66667C11.3333 10.1394 10.1394 11.3333 8.66667 11.3333C7.19391 11.3333 6 10.1394 6 8.66667C6 7.19391 7.19391 6 8.66667 6C10.1394 6 11.3333 7.19391 11.3333 8.66667ZM26 23.3333C26 24.8061 24.8061 26 23.3333 26C21.8606 26 20.6667 24.8061 20.6667 23.3333C20.6667 21.8606 21.8606 20.6667 23.3333 20.6667C24.8061 20.6667 26 21.8606 26 23.3333Z" fill="#18202A"/>
<path d="M24.3333 5C24.3333 4.44772 23.8856 4 23.3333 4C22.781 4 22.3333 4.44772 22.3333 5V7.66667H19.6667C19.1144 7.66667 18.6667 8.11438 18.6667 8.66667C18.6667 9.21895 19.1144 9.66667 19.6667 9.66667H22.3333V12.3333C22.3333 12.8856 22.781 13.3333 23.3333 13.3333C23.8856 13.3333 24.3333 12.8856 24.3333 12.3333V9.66667H27C27.5523 9.66667 28 9.21895 28 8.66667C28 8.11438 27.5523 7.66667 27 7.66667H24.3333V5Z" fill="#18202A"/>
</g>
<defs>
<clipPath id="clip0_3761_8850">
<rect width="32" height="32" fill="white"/>
</clipPath>
</defs>
</svg>
