<svg width="32" height="32" viewBox="0 0 32 32" fill="none" xmlns="http://www.w3.org/2000/svg">
<path fill-rule="evenodd" clip-rule="evenodd" d="M27.078 4.92239C24.084 1.92837 19.2297 1.92838 16.2357 4.92239L13.4073 7.75082C13.0167 8.14135 13.0167 8.77451 13.4073 9.16504C13.7978 9.55556 14.431 9.55556 14.8215 9.16504L17.6499 6.33661C19.8629 4.12364 23.4508 4.12364 25.6638 6.33661C27.8767 8.54958 27.8767 12.1375 25.6638 14.3505L22.8354 17.1789C22.4448 17.5694 22.4448 18.2026 22.8354 18.5931C23.2259 18.9836 23.859 18.9836 24.2496 18.5931L27.078 15.7647C30.072 12.7707 30.072 7.91641 27.078 4.92239ZM4.92197 27.0773C1.92795 24.0833 1.92795 19.2291 4.92197 16.235L7.75039 13.4066C8.14092 13.0161 8.77408 13.0161 9.16461 13.4066C9.55513 13.7971 9.55513 14.4303 9.16461 14.8208L6.33618 17.6493C4.12321 19.8622 4.12321 23.4502 6.33618 25.6631C8.54915 27.8761 12.1371 27.8761 14.3501 25.6631L17.1785 22.8347C17.569 22.4442 18.2022 22.4442 18.5927 22.8347C18.9832 23.2252 18.9832 23.8584 18.5927 24.2489L15.7643 27.0773C12.7703 30.0714 7.91599 30.0714 4.92197 27.0773ZM9.63602 20.9491C9.2455 21.3396 9.2455 21.9728 9.63602 22.3633C10.0265 22.7538 10.6597 22.7538 11.0502 22.3633L22.3639 11.0496C22.7545 10.6591 22.7545 10.0259 22.3639 9.63538C21.9734 9.24485 21.3403 9.24485 20.9497 9.63538L9.63602 20.9491Z" fill="#18202A"/>
</svg>
