<svg width="32" height="32" viewBox="0 0 32 32" fill="none" xmlns="http://www.w3.org/2000/svg">
<g clip-path="url(#clip0_3875_8960)">
<g clip-path="url(#clip1_3875_8960)">
<path fill-rule="evenodd" clip-rule="evenodd" d="M14.6666 1.33301C12.4575 1.33301 10.6666 3.12387 10.6666 5.33301V6.66634H3.99996C3.26358 6.66634 2.66663 7.26329 2.66663 7.99967C2.66663 8.73605 3.26358 9.33301 3.99996 9.33301H5.33329V22.6663C5.33329 27.0846 8.91502 30.6663 13.3333 30.6663H17.6729C16.6184 29.1546 16 27.316 16 25.333C16 23.5735 16.4869 21.9276 17.3333 20.5229V14.6663C17.3333 13.93 17.9302 13.333 18.6666 13.333C19.403 13.333 20 13.93 20 14.6663V17.6726C21.5117 16.6181 23.3503 15.9997 25.3333 15.9997C25.786 15.9997 26.2312 16.0319 26.6666 16.0942V9.33301H28C28.7363 9.33301 29.3333 8.73605 29.3333 7.99967C29.3333 7.26329 28.7363 6.66634 28 6.66634H21.3333V5.33301C21.3333 3.12387 19.5424 1.33301 17.3333 1.33301H14.6666ZM18.6666 5.33301C18.6666 4.59663 18.0697 3.99967 17.3333 3.99967H14.6666C13.9302 3.99967 13.3333 4.59663 13.3333 5.33301V6.66634H18.6666V5.33301ZM14.6666 14.6663C14.6666 13.93 14.0697 13.333 13.3333 13.333C12.5969 13.333 12 13.93 12 14.6663V22.6663C12 23.4027 12.5969 23.9997 13.3333 23.9997C14.0697 23.9997 14.6666 23.4027 14.6666 22.6663V14.6663Z" fill="#18202A"/>
<path fill-rule="evenodd" clip-rule="evenodd" d="M25.3333 31.9997C29.0152 31.9997 32 29.0149 32 25.333C32 21.6511 29.0152 18.6663 25.3333 18.6663C21.6514 18.6663 18.6666 21.6511 18.6666 25.333C18.6666 29.0149 21.6514 31.9997 25.3333 31.9997ZM26.6666 21.9997C26.6666 21.2633 26.0697 20.6663 25.3333 20.6663C24.5969 20.6663 24 21.2633 24 21.9997V25.333C24 25.6866 24.1404 26.0258 24.3905 26.2758L26.3905 28.2758C26.9112 28.7965 27.7554 28.7965 28.2761 28.2758C28.7968 27.7551 28.7968 26.9109 28.2761 26.3902L26.6666 24.7807V21.9997Z" fill="#18202A"/>
</g>
</g>
<defs>
<clipPath id="clip0_3875_8960">
<rect width="32" height="32" fill="white"/>
</clipPath>
<clipPath id="clip1_3875_8960">
<rect width="32" height="32" fill="white"/>
</clipPath>
</defs>
</svg>
