<svg width="32" height="32" viewBox="0 0 32 32" fill="none" xmlns="http://www.w3.org/2000/svg">
<path fill-rule="evenodd" clip-rule="evenodd" d="M10.6667 3.33301H22.6667C24.5076 3.33301 26 4.82539 26 6.66634V25.333C26 27.174 24.5076 28.6663 22.6667 28.6663H10.6667V3.33301ZM9.33333 3.33301C7.49238 3.33301 6 4.82539 6 6.66634V25.333C6 27.174 7.49238 28.6663 9.33333 28.6663L9.33333 3.33301ZM4 6.66634C4 3.72082 6.38781 1.33301 9.33333 1.33301H22.6667C25.6122 1.33301 28 3.72082 28 6.66634V25.333C28 28.2785 25.6122 30.6663 22.6667 30.6663H9.33333C6.38781 30.6663 4 28.2785 4 25.333V6.66634ZM13.3333 7.66634C13.3333 7.11406 13.781 6.66634 14.3333 6.66634H21.6667C22.219 6.66634 22.6667 7.11406 22.6667 7.66634C22.6667 8.21863 22.219 8.66634 21.6667 8.66634H14.3333C13.781 8.66634 13.3333 8.21863 13.3333 7.66634ZM15.6667 10.6663C15.1144 10.6663 14.6667 11.1141 14.6667 11.6663C14.6667 12.2186 15.1144 12.6663 15.6667 12.6663H20.3333C20.8856 12.6663 21.3333 12.2186 21.3333 11.6663C21.3333 11.1141 20.8856 10.6663 20.3333 10.6663H15.6667Z" fill="#18202A"/>
</svg>
