<svg width="32" height="32" viewBox="0 0 32 32" fill="none" xmlns="http://www.w3.org/2000/svg">
<path fill-rule="evenodd" clip-rule="evenodd" d="M24.6005 21.4006C25.9046 19.4806 26.6666 17.1626 26.6666 14.6666C26.6666 8.03921 21.294 2.66663 14.6666 2.66663C8.03921 2.66663 2.66663 8.03921 2.66663 14.6666C2.66663 21.294 8.03921 26.6666 14.6666 26.6666C17.1626 26.6666 19.4806 25.9046 21.4006 24.6005C22.0297 24.1732 22.616 23.6878 23.1519 23.1519C23.6878 22.616 24.1732 22.0297 24.6005 21.4006ZM25.8824 24.1179C25.3915 23.8962 24.7939 23.9871 24.3905 24.3905C23.9871 24.7939 23.8962 25.3915 24.1179 25.8824C24.1823 26.0251 24.2732 26.1588 24.3905 26.2761L27.0571 28.9428C27.5778 29.4635 28.4221 29.4635 28.9428 28.9428C29.4635 28.4221 29.4635 27.5778 28.9428 27.0571L26.2761 24.3905C26.1588 24.2732 26.0251 24.1823 25.8824 24.1179ZM14.6666 24C19.8213 24 24 19.8213 24 14.6666C24 9.51197 19.8213 5.33329 14.6666 5.33329C9.51197 5.33329 5.33329 9.51197 5.33329 14.6666C5.33329 19.8213 9.51197 24 14.6666 24Z" fill="#18202A"/>
</svg>
