<svg width="32" height="32" viewBox="0 0 32 32" fill="none" xmlns="http://www.w3.org/2000/svg">
<path fill-rule="evenodd" clip-rule="evenodd" d="M2.7203 9.33311L15.6749 16.5558C15.8767 16.6683 16.1224 16.6683 16.3242 16.5558L29.2794 9.33311L16.3242 2.11074C16.1224 1.99824 15.8767 1.99824 15.6749 2.11075L2.7203 9.33311ZM14.701 18.3027C15.5082 18.7527 16.4909 18.7527 17.2981 18.3027L24.6667 14.1946V19.1229C24.6667 20.3836 23.9472 21.7212 22.3877 22.824C20.8332 23.9233 18.5812 24.6662 16 24.6662C13.4188 24.6662 11.1668 23.9233 9.61228 22.824C8.0528 21.7212 7.33333 20.3836 7.33333 19.1229V14.1949L14.701 18.3027ZM31.2978 10.4977L26.6667 13.0796V19.1229C26.6667 23.2893 21.891 26.6662 16 26.6662C10.109 26.6662 5.33333 23.2893 5.33333 19.1229V13.0798L3.33333 11.9647L3.33333 26.2242C4.12165 26.5987 4.66667 27.4022 4.66667 28.333C4.66667 29.6217 3.622 30.6663 2.33333 30.6663C1.04467 30.6663 0 29.6217 0 28.333C0 27.4022 0.545017 26.5987 1.33333 26.2242L1.33333 10.8497L0.70197 10.4977C-0.210101 9.98915 -0.210089 8.67702 0.701992 8.16852L14.701 0.363885C15.5082 -0.0861299 16.4909 -0.0861394 17.2981 0.36386L31.2978 8.16851C32.2099 8.677 32.2099 9.98916 31.2978 10.4977ZM16 11.333C17.6569 11.333 19 10.4376 19 9.33301C19 8.22844 17.6569 7.33301 16 7.33301C14.3431 7.33301 13 8.22844 13 9.33301C13 10.4376 14.3431 11.333 16 11.333Z" fill="#18202A"/>
</svg>
