<svg width="32" height="32" viewBox="0 0 32 32" fill="none" xmlns="http://www.w3.org/2000/svg">
<path fill-rule="evenodd" clip-rule="evenodd" d="M9.66667 14.9191V7.33334C9.66667 6.53769 9.98274 5.77463 10.5453 5.21202C11.108 4.64941 11.871 4.33334 12.6667 4.33334C13.0122 4.33334 13.3515 4.39293 13.6709 4.50643C13.6891 4.16723 13.7647 3.83317 13.895 3.51862C14.0458 3.15464 14.2668 2.82393 14.5453 2.54535C14.8239 2.26678 15.1546 2.0458 15.5186 1.89503C15.8826 1.74427 16.2727 1.66667 16.6667 1.66667C17.0606 1.66667 17.4507 1.74427 17.8147 1.89503C18.1787 2.0458 18.5094 2.26678 18.788 2.54535C19.0666 2.82393 19.2875 3.15464 19.4383 3.51862C19.5686 3.83317 19.6442 4.16723 19.6624 4.50643C19.9818 4.39293 20.3212 4.33334 20.6667 4.33334C21.4623 4.33334 22.2254 4.64941 22.788 5.21202C23.3127 5.73674 23.623 6.43584 23.6624 7.17311C23.9819 7.0596 24.3212 7 24.6667 7C25.4623 7 26.2253 7.31608 26.788 7.87868C27.3505 8.4413 27.6667 9.20435 27.6667 10V21.3333C27.6667 23.7203 26.7184 26.0095 25.0307 27.6973C23.3428 29.3851 21.0536 30.3333 18.6667 30.3333H16.2742C14.7849 30.3331 13.3188 29.9631 12.0076 29.2568C10.6954 28.5499 9.57869 27.5272 8.75891 26.2824C8.67053 26.1479 8.58247 26.0131 8.49477 25.8781C8.05594 25.2045 6.57482 22.6201 4.08046 18.1863C3.69736 17.5054 3.59504 16.7019 3.79523 15.9466C3.99543 15.1914 4.48237 14.5441 5.15247 14.1423C5.81946 13.7421 6.60074 13.5764 7.37278 13.6713C8.14482 13.7661 8.86345 14.1165 9.41378 14.6662L9.66667 14.9191ZM16.284 3.74279C16.4053 3.69254 16.5353 3.66667 16.6667 3.66667C16.798 3.66667 16.928 3.69254 17.0493 3.74279C17.1707 3.79305 17.2809 3.86671 17.3738 3.95956C17.4666 4.05242 17.5403 4.16266 17.5905 4.28399C17.6408 4.40531 17.6667 4.53535 17.6667 4.66667V16C17.6667 16.5523 18.1144 17 18.6667 17C19.219 17 19.6667 16.5523 19.6667 16V7.33334C19.6667 7.06812 19.772 6.81377 19.9596 6.62623C20.1471 6.43869 20.4015 6.33334 20.6667 6.33334C20.9319 6.33334 21.1862 6.43869 21.3738 6.62623C21.5613 6.81377 21.6667 7.06812 21.6667 7.33334V16C21.6667 16.5523 22.1144 17 22.6667 17C23.219 17 23.6667 16.5523 23.6667 16L23.6667 10C23.6667 9.73479 23.772 9.48043 23.9596 9.2929C24.1471 9.10536 24.4015 9 24.6667 9C24.9319 9 25.1863 9.10536 25.3737 9.2929C25.5613 9.48043 25.6667 9.73479 25.6667 10V21.3333C25.6667 23.1899 24.9292 24.9703 23.6164 26.2831C22.3036 27.5959 20.5232 28.3333 18.6667 28.3333H16.2757C15.117 28.3332 13.9763 28.0456 12.9561 27.496C11.9355 26.9461 11.0674 26.1515 10.4298 25.1833C10.3433 25.0516 10.2577 24.9207 10.1719 24.7885C9.77874 24.1848 8.33986 21.6785 5.82355 17.2057C5.69586 16.9787 5.66173 16.7108 5.72846 16.4591C5.79519 16.2074 5.95751 15.9916 6.18087 15.8577C6.46557 15.6869 6.79947 15.6159 7.12899 15.6563C7.45853 15.6968 7.76507 15.8462 7.99997 16.0808L9.95751 18.0384C9.96399 18.0449 9.97056 18.0513 9.97722 18.0577C10.0676 18.1438 10.1701 18.2097 10.2792 18.2555C10.3983 18.3056 10.5293 18.3333 10.6667 18.3333C11.219 18.3333 11.6667 17.8856 11.6667 17.3333V7.33334C11.6667 7.06812 11.772 6.81377 11.9596 6.62623C12.1471 6.43869 12.4015 6.33334 12.6667 6.33334C12.9319 6.33334 13.1862 6.43869 13.3738 6.62623C13.5613 6.81377 13.6667 7.06812 13.6667 7.33334V16C13.6667 16.5523 14.1144 17 14.6667 17C15.219 17 15.6667 16.5523 15.6667 16V4.66667C15.6667 4.53535 15.6925 4.40531 15.7428 4.28399C15.793 4.16266 15.8667 4.05242 15.9596 3.95956C16.0524 3.86671 16.1627 3.79305 16.284 3.74279Z" fill="#18202A"/>
</svg>
