<svg width="32" height="32" viewBox="0 0 32 32" fill="none" xmlns="http://www.w3.org/2000/svg">
<path d="M6.66669 4C4.45755 4 2.66669 5.79086 2.66669 8V9.33333C2.66669 11.5425 4.45755 13.3333 6.66669 13.3333H8.00002C10.2092 13.3333 12 11.5425 12 9.33333V8C12 7.6187 11.9467 7.24986 11.847 6.90054L8.04046 10.7071C7.64994 11.0976 7.01677 11.0976 6.62625 10.7071L4.62625 8.70711C4.23572 8.31658 4.23572 7.68342 4.62625 7.29289C5.01677 6.90237 5.64994 6.90237 6.04046 7.29289L7.33335 8.58579L10.7877 5.13142C10.0673 4.43119 9.08402 4 8.00002 4H6.66669Z" fill="#18202A"/>
<path d="M10.7877 19.7981C10.0673 19.0979 9.08402 18.6667 8.00002 18.6667H6.66669C4.45755 18.6667 2.66669 20.4575 2.66669 22.6667V24C2.66669 26.2091 4.45755 28 6.66669 28H8.00002C10.2092 28 12 26.2091 12 24V22.6667C12 22.2854 11.9467 21.9165 11.847 21.5672L8.04046 25.3738C7.64994 25.7643 7.01677 25.7643 6.62625 25.3738L4.62625 23.3738C4.23572 22.9832 4.23572 22.3501 4.62625 21.9596C5.01677 21.569 5.64994 21.569 6.04046 21.9596L7.33335 23.2525L10.7877 19.7981Z" fill="#18202A"/>
<path d="M15.6667 5.33333C15.1144 5.33333 14.6667 5.78105 14.6667 6.33333C14.6667 6.88562 15.1144 7.33333 15.6667 7.33333H28.3334C28.8856 7.33333 29.3334 6.88562 29.3334 6.33333C29.3334 5.78105 28.8856 5.33333 28.3334 5.33333H15.6667Z" fill="#18202A"/>
<path d="M14.6667 11C14.6667 10.4477 15.1144 10 15.6667 10H28.3334C28.8856 10 29.3334 10.4477 29.3334 11C29.3334 11.5523 28.8856 12 28.3334 12H15.6667C15.1144 12 14.6667 11.5523 14.6667 11Z" fill="#18202A"/>
<path d="M15.6667 20C15.1144 20 14.6667 20.4477 14.6667 21C14.6667 21.5523 15.1144 22 15.6667 22H28.3334C28.8856 22 29.3334 21.5523 29.3334 21C29.3334 20.4477 28.8856 20 28.3334 20H15.6667Z" fill="#18202A"/>
<path d="M14.6667 25.6667C14.6667 25.1144 15.1144 24.6667 15.6667 24.6667H28.3334C28.8856 24.6667 29.3334 25.1144 29.3334 25.6667C29.3334 26.219 28.8856 26.6667 28.3334 26.6667H15.6667C15.1144 26.6667 14.6667 26.219 14.6667 25.6667Z" fill="#18202A"/>
</svg>
