<svg width="32" height="32" viewBox="0 0 32 32" fill="none" xmlns="http://www.w3.org/2000/svg">
<path fill-rule="evenodd" clip-rule="evenodd" d="M26.6667 10.6668V21.016L16.3175 10.6668H26.6667ZM8.77936 10.6668H5.33333V29.3335C5.33333 30.4322 6.58768 31.0594 7.46666 30.4002L14.4 25.2002C15.3481 24.4891 16.6518 24.4891 17.6 25.2002L24.5333 30.4002C25.4123 31.0594 26.6667 30.4322 26.6667 29.3335V28.5541L28.2977 30.1852C28.8876 30.7751 29.7884 30.8308 30.3095 30.3097C30.8307 29.7885 30.7749 28.8878 30.185 28.2979L3.70227 1.81514C3.11235 1.22522 2.21164 1.16948 1.69047 1.69064C1.16931 2.2118 1.22505 3.11252 1.81498 3.70244L8.77936 10.6668ZM26.6667 8.00016H13.6508L7.81177 2.16114C8.63721 1.63702 9.61649 1.3335 10.6667 1.3335H21.3333C24.2788 1.3335 26.6667 3.72131 26.6667 6.66683V8.00016Z" fill="#18202A"/>
</svg>
