<svg width="32" height="32" viewBox="0 0 32 32" fill="none" xmlns="http://www.w3.org/2000/svg">
<path fill-rule="evenodd" clip-rule="evenodd" d="M19.2575 2.04255C16.1071 1.30735 12.8007 1.65948 9.8759 3.04168C6.95106 4.42388 4.5798 6.75486 3.1477 9.65559C1.7156 12.5563 1.30689 15.8562 1.98801 19.0187C2.66913 22.1812 4.40003 25.0202 6.89927 27.0742C9.39851 29.1283 12.5191 30.2764 15.7536 30.332C18.9881 30.3877 22.1463 29.3475 24.7147 27.3806C25.1532 27.0448 25.2364 26.4171 24.9006 25.9787C24.5648 25.5402 23.9372 25.4569 23.4987 25.7927C21.2887 27.4851 18.5712 28.3802 15.788 28.3323C13.0048 28.2845 10.3196 27.2965 8.16914 25.5291C6.01864 23.7617 4.52926 21.3188 3.94317 18.5976C3.35709 15.8764 3.70878 13.037 4.94105 10.541C6.17332 8.04499 8.21371 6.03927 10.7304 4.84994C13.2472 3.6606 16.0922 3.35761 18.803 3.99022C21.5137 4.62283 23.9308 6.15384 25.6611 8.3343C27.3914 10.5148 28.3332 13.2165 28.3334 16V17.3333C28.3334 18.129 28.0173 18.892 27.4547 19.4546C26.8921 20.0172 26.129 20.3333 25.3334 20.3333C24.5377 20.3333 23.7747 20.0172 23.212 19.4546C22.6494 18.892 22.3334 18.129 22.3334 17.3333V10.6667C22.3334 10.1144 21.8857 9.66665 21.3334 9.66665C20.7811 9.66665 20.3334 10.1144 20.3334 10.6667V11.3812C19.2005 10.3179 17.6763 9.66667 16 9.66667C12.5022 9.66667 9.66669 12.5022 9.66669 16C9.66669 19.4978 12.5022 22.3333 16 22.3333C18.0441 22.3333 19.8619 21.365 21.0199 19.8621C21.2335 20.2264 21.4941 20.5651 21.7978 20.8689C22.7355 21.8065 24.0073 22.3333 25.3334 22.3333C26.6595 22.3333 27.9312 21.8065 28.8689 20.8689C29.8066 19.9312 30.3334 18.6594 30.3334 17.3333V15.9999C30.3332 12.7649 29.2386 9.62514 27.2277 7.09109C25.2168 4.55703 22.4078 2.77775 19.2575 2.04255ZM11.6667 16C11.6667 13.6068 13.6068 11.6667 16 11.6667C18.3933 11.6667 20.3334 13.6068 20.3334 16C20.3334 18.3932 18.3933 20.3333 16 20.3333C13.6068 20.3333 11.6667 18.3932 11.6667 16Z" fill="#18202A"/>
</svg>
