<svg width="32" height="32" viewBox="0 0 32 32" fill="none" xmlns="http://www.w3.org/2000/svg">
<path fill-rule="evenodd" clip-rule="evenodd" d="M26.6666 6H5.33331C4.22874 6 3.33331 6.89543 3.33331 8V24C3.33331 25.1046 4.22874 26 5.33331 26H26.6666C27.7712 26 28.6666 25.1046 28.6666 24V8C28.6666 6.89543 27.7712 6 26.6666 6ZM5.33331 4C3.12417 4 1.33331 5.79086 1.33331 8V24C1.33331 26.2091 3.12417 28 5.33331 28H26.6666C28.8758 28 30.6666 26.2091 30.6666 24V8C30.6666 5.79086 28.8758 4 26.6666 4H5.33331Z" fill="#18202A"/>
<path fill-rule="evenodd" clip-rule="evenodd" d="M30.1623 8.77403C30.4712 9.23185 30.3504 9.8534 29.8926 10.1623L19.2061 17.3726C18.2742 18.0014 17.147 18.3333 16 18.3333C14.8529 18.3333 13.7258 18.0014 12.7939 17.3726L2.10734 10.1623C1.64952 9.8534 1.52879 9.23185 1.83768 8.77403C2.14658 8.31621 2.76813 8.19548 3.22595 8.50437L13.9126 15.7147C14.4983 16.1099 15.2323 16.3333 16 16.3333C16.7677 16.3333 17.5016 16.11 18.0873 15.7147L28.774 8.50437C29.2318 8.19548 29.8534 8.31621 30.1623 8.77403Z" fill="#18202A"/>
</svg>
