<svg width="32" height="32" viewBox="0 0 32 32" fill="none" xmlns="http://www.w3.org/2000/svg">
<path fill-rule="evenodd" clip-rule="evenodd" d="M16 30.6667C7.89982 30.6667 1.33333 24.1002 1.33333 16C1.33333 7.89986 7.89982 1.33337 16 1.33337C24.1002 1.33337 30.6667 7.89986 30.6667 16C30.6667 24.1002 24.1002 30.6667 16 30.6667ZM16.3905 9.7239C16.9112 9.2032 17.7554 9.2032 18.2761 9.7239C18.7968 10.2446 18.7968 11.0888 18.2761 11.6095L13.8856 16L18.2761 20.3906C18.7968 20.9113 18.7968 21.7555 18.2761 22.2762C17.7554 22.7969 16.9112 22.7969 16.3905 22.2762L11.0572 16.9429C10.5365 16.4222 10.5365 15.5779 11.0572 15.0572L16.3905 9.7239Z" fill="#18202A"/>
</svg>
