<svg width="32" height="32" viewBox="0 0 32 32" fill="none" xmlns="http://www.w3.org/2000/svg">
<path fill-rule="evenodd" clip-rule="evenodd" d="M26.0001 14.3333C26.0001 13.781 26.4478 13.3333 27.0001 13.3333C27.5523 13.3333 28.0001 13.781 28.0001 14.3333V25.3333C28.0001 28.2788 25.6122 30.6666 22.6667 30.6666H9.33339C6.38787 30.6666 4.00006 28.2788 4.00006 25.3333V6.66658C4.00006 3.72107 6.38788 1.33325 9.33339 1.33325H21.6667C22.219 1.33325 22.6667 1.78097 22.6667 2.33325C22.6667 2.88554 22.219 3.33325 21.6667 3.33325L9.33339 3.33325C7.49245 3.33325 6.00006 4.82564 6.00006 6.66658L6.00006 25.3333C6.00006 27.1742 7.49244 28.6666 9.33339 28.6666H22.6667C24.5077 28.6666 26.0001 27.1742 26.0001 25.3333V14.3333ZM10.3333 17.3333C9.78103 17.3333 9.33331 17.781 9.33331 18.3333C9.33331 18.8855 9.78103 19.3333 10.3333 19.3333H16.3333C16.8856 19.3333 17.3333 18.8855 17.3333 18.3333C17.3333 17.781 16.8856 17.3333 16.3333 17.3333H10.3333ZM9.33331 23.6666C9.33331 23.1143 9.78103 22.6666 10.3333 22.6666H21.6666C22.2189 22.6666 22.6666 23.1143 22.6666 23.6666C22.6666 24.2189 22.2189 24.6666 21.6666 24.6666H10.3333C9.78103 24.6666 9.33331 24.2189 9.33331 23.6666ZM28.7071 6.04036C29.0976 5.64983 29.0976 5.01667 28.7071 4.62614C28.3166 4.23562 27.6834 4.23562 27.2929 4.62615L19.9929 11.9261L16.8904 8.88571C16.496 8.49915 15.8628 8.50554 15.4763 8.89999C15.0897 9.29444 15.0961 9.92757 15.4906 10.3141L19.3001 14.0475C19.6917 14.4313 20.3194 14.4281 20.7071 14.0404L28.7071 6.04036Z" fill="#18202A"/>
</svg>
