<svg width="32" height="32" viewBox="0 0 32 32" fill="none" xmlns="http://www.w3.org/2000/svg">
<g clip-path="url(#clip0_3517_8959)">
<g clip-path="url(#clip1_3517_8959)">
<path d="M5.33329 6.66634C5.33329 7.40272 4.73634 7.99967 3.99996 7.99967C3.26358 7.99967 2.66663 7.40272 2.66663 6.66634C2.66663 5.92996 3.26358 5.33301 3.99996 5.33301C4.73634 5.33301 5.33329 5.92996 5.33329 6.66634Z" fill="#18202A"/>
<path d="M9.33329 6.66634C9.33329 5.92996 9.93025 5.33301 10.6666 5.33301H28C28.7363 5.33301 29.3333 5.92996 29.3333 6.66634C29.3333 7.40272 28.7363 7.99967 28 7.99967H10.6666C9.93025 7.99967 9.33329 7.40272 9.33329 6.66634Z" fill="#18202A"/>
<path d="M10.6666 14.6663C9.93025 14.6663 9.33329 15.2633 9.33329 15.9997C9.33329 16.7361 9.93025 17.333 10.6666 17.333H20.5232C21.9279 16.4866 23.5737 15.9997 25.3333 15.9997C26.6658 15.9997 27.933 16.2789 29.0797 16.782C29.2392 16.5623 29.3333 16.292 29.3333 15.9997C29.3333 15.2633 28.7363 14.6663 28 14.6663H10.6666Z" fill="#18202A"/>
<path d="M16 25.333C16 24.8803 16.0322 24.4351 16.0945 23.9997H10.6666C9.93025 23.9997 9.33329 24.5966 9.33329 25.333C9.33329 26.0694 9.93025 26.6663 10.6666 26.6663H16.0945C16.0322 26.2309 16 25.7857 16 25.333Z" fill="#18202A"/>
<path d="M5.33329 15.9997C5.33329 16.7361 4.73634 17.333 3.99996 17.333C3.26358 17.333 2.66663 16.7361 2.66663 15.9997C2.66663 15.2633 3.26358 14.6663 3.99996 14.6663C4.73634 14.6663 5.33329 15.2633 5.33329 15.9997Z" fill="#18202A"/>
<path d="M5.33329 25.333C5.33329 26.0694 4.73634 26.6663 3.99996 26.6663C3.26358 26.6663 2.66663 26.0694 2.66663 25.333C2.66663 24.5966 3.26358 23.9997 3.99996 23.9997C4.73634 23.9997 5.33329 24.5966 5.33329 25.333Z" fill="#18202A"/>
<path fill-rule="evenodd" clip-rule="evenodd" d="M25.3333 31.9997C29.0152 31.9997 32 29.0149 32 25.333C32 21.6511 29.0152 18.6663 25.3333 18.6663C21.6514 18.6663 18.6666 21.6511 18.6666 25.333C18.6666 29.0149 21.6514 31.9997 25.3333 31.9997ZM24 22.6663C24 21.93 24.5969 21.333 25.3333 21.333C26.0697 21.333 26.6666 21.93 26.6666 22.6663V23.9997H28C28.7363 23.9997 29.3333 24.5966 29.3333 25.333C29.3333 26.0694 28.7363 26.6663 28 26.6663H26.6666V27.9997C26.6666 28.7361 26.0697 29.333 25.3333 29.333C24.5969 29.333 24 28.7361 24 27.9997V26.6663H22.6666C21.9302 26.6663 21.3333 26.0694 21.3333 25.333C21.3333 24.5966 21.9302 23.9997 22.6666 23.9997H24V22.6663Z" fill="#18202A"/>
</g>
</g>
<defs>
<clipPath id="clip0_3517_8959">
<rect width="32" height="32" fill="white"/>
</clipPath>
<clipPath id="clip1_3517_8959">
<rect width="32" height="32" fill="white"/>
</clipPath>
</defs>
</svg>
