<svg width="32" height="32" viewBox="0 0 32 32" fill="none" xmlns="http://www.w3.org/2000/svg">
<path fill-rule="evenodd" clip-rule="evenodd" d="M3.33331 16C3.33331 22.9956 9.00437 28.6666 16 28.6666C22.9956 28.6666 28.6666 22.9956 28.6666 16C28.6666 9.00437 22.9956 3.33331 16 3.33331C9.00437 3.33331 3.33331 9.00437 3.33331 16ZM1.33331 16C1.33331 24.1002 7.8998 30.6666 16 30.6666C24.1002 30.6666 30.6666 24.1002 30.6666 16C30.6666 7.8998 24.1002 1.33331 16 1.33331C7.8998 1.33331 1.33331 7.8998 1.33331 16Z" fill="#18202A"/>
<path fill-rule="evenodd" clip-rule="evenodd" d="M22.0404 16.6262C22.4309 17.0167 22.4309 17.6499 22.0404 18.0404L16.7071 23.3738C16.3166 23.7643 15.6834 23.7643 15.2929 23.3738L9.95954 18.0404C9.56902 17.6499 9.56902 17.0167 9.95954 16.6262C10.3501 16.2357 10.9832 16.2357 11.3738 16.6262L15 20.2524V9.33331C15 8.78103 15.4477 8.33331 16 8.33331C16.5523 8.33331 17 8.78103 17 9.33331V20.2524L20.6262 16.6262C21.0167 16.2357 21.6499 16.2357 22.0404 16.6262Z" fill="#18202A"/>
</svg>
