<svg width="32" height="32" viewBox="0 0 32 32" fill="none" xmlns="http://www.w3.org/2000/svg">
<path fill-rule="evenodd" clip-rule="evenodd" d="M21.5957 8.37696C22.1239 8.89006 22.1362 9.73419 21.6231 10.2624L8.67067 23.5957C8.41311 23.8609 8.05704 24.0072 7.68747 23.9997C7.3179 23.9923 6.968 23.8318 6.72132 23.5565L2.34037 18.6676C1.84894 18.1192 1.89512 17.2762 2.44353 16.7848C2.99194 16.2934 3.8349 16.3396 4.32633 16.888L7.75363 20.7126L19.7103 8.40429C20.2234 7.8761 21.0675 7.86386 21.5957 8.37696Z" fill="#18202A"/>
<path fill-rule="evenodd" clip-rule="evenodd" d="M29.5957 8.37696C30.1239 8.89006 30.1362 9.73419 29.6231 10.2624L16.6707 23.5957C16.4066 23.8676 16.0392 24.0142 15.6605 23.9989C15.2818 23.9836 14.9275 23.8079 14.6861 23.5156L13.263 21.7919C12.7941 21.224 12.8744 20.3836 13.4422 19.9148C14.0101 19.446 14.8505 19.5262 15.3193 20.0941L15.7949 20.6701L27.7103 8.40429C28.2234 7.8761 29.0675 7.86386 29.5957 8.37696Z" fill="#18202A"/>
</svg>
