<svg width="32" height="32" viewBox="0 0 32 32" fill="none" xmlns="http://www.w3.org/2000/svg">
<path d="M25.3333 9.33366C29.0152 9.33366 32 12.3184 32 16.0003C32 19.6822 29.0152 22.667 25.3333 22.667H18.6667V18.3105C19.6865 18.8999 21.0131 18.7584 21.8856 17.8859C22.927 16.8445 22.927 15.1561 21.8856 14.1147L17.8856 10.1147C17.3855 9.61461 16.7072 9.33366 16 9.33366C15.2928 9.33366 14.6145 9.61461 14.1144 10.1147L10.1144 14.1147C9.07298 15.1561 9.07298 16.8445 10.1144 17.8859C10.9869 18.7584 12.3135 18.8999 13.3333 18.3105V22.667H6.66667C2.98477 22.667 0 19.6822 0 16.0003C0 12.3184 2.98477 9.33366 6.66667 9.33366C6.79531 9.33366 6.92311 9.3373 7.04995 9.34449C8.19388 5.48361 11.768 2.66699 16 2.66699C20.232 2.66699 23.8061 5.48361 24.95 9.34449C25.0769 9.3373 25.2047 9.33366 25.3333 9.33366Z" fill="#18202A"/>
<path fill-rule="evenodd" clip-rule="evenodd" d="M16 29.3337C16.7364 29.3337 17.3333 28.7367 17.3333 28.0003V15.2193L19.0572 16.9431C19.5779 17.4638 20.4221 17.4638 20.9428 16.9431C21.4635 16.4224 21.4635 15.5782 20.9428 15.0575L16.9428 11.0575C16.6928 10.8075 16.3536 10.667 16 10.667C15.6464 10.667 15.3072 10.8075 15.0572 11.0575L11.0572 15.0575C10.5365 15.5782 10.5365 16.4224 11.0572 16.9431C11.5779 17.4638 12.4221 17.4638 12.9428 16.9431L14.6667 15.2193V28.0003C14.6667 28.7367 15.2636 29.3337 16 29.3337Z" fill="#18202A"/>
</svg>
