<svg width="32" height="32" viewBox="0 0 32 32" fill="none" xmlns="http://www.w3.org/2000/svg">
<path fill-rule="evenodd" clip-rule="evenodd" d="M13.3334 13.6666C13.8856 13.6666 14.3334 14.1143 14.3334 14.6666V22.6666C14.3334 23.2189 13.8856 23.6666 13.3334 23.6666C12.7811 23.6666 12.3334 23.2189 12.3334 22.6666V14.6666C12.3334 14.1143 12.7811 13.6666 13.3334 13.6666Z" fill="#18202A"/>
<path fill-rule="evenodd" clip-rule="evenodd" d="M18.6667 13.6666C19.219 13.6666 19.6667 14.1143 19.6667 14.6666V22.6666C19.6667 23.2189 19.219 23.6666 18.6667 23.6666C18.1144 23.6666 17.6667 23.2189 17.6667 22.6666V14.6666C17.6667 14.1143 18.1144 13.6666 18.6667 13.6666Z" fill="#18202A"/>
<path fill-rule="evenodd" clip-rule="evenodd" d="M24.6667 8.66659H7.33335V22.6666C7.33335 25.9803 10.0196 28.6666 13.3334 28.6666H18.6667C21.9804 28.6666 24.6667 25.9803 24.6667 22.6666V8.66659ZM5.33335 6.66659V22.6666C5.33335 27.0849 8.91508 30.6666 13.3334 30.6666H18.6667C23.085 30.6666 26.6667 27.0849 26.6667 22.6666V6.66659H5.33335Z" fill="#18202A"/>
<path d="M2.66669 7.66659C2.66669 7.1143 3.1144 6.66659 3.66669 6.66659H28.3334C28.8856 6.66659 29.3334 7.1143 29.3334 7.66659C29.3334 8.21887 28.8856 8.66659 28.3334 8.66659H3.66669C3.1144 8.66659 2.66669 8.21887 2.66669 7.66659Z" fill="#18202A"/>
<path fill-rule="evenodd" clip-rule="evenodd" d="M17.3334 3.33325H14.6667C13.5621 3.33325 12.6667 4.22868 12.6667 5.33325V6.66659H19.3334V5.33325C19.3334 4.22868 18.4379 3.33325 17.3334 3.33325ZM14.6667 1.33325C12.4575 1.33325 10.6667 3.12411 10.6667 5.33325V8.66659H21.3334V5.33325C21.3334 3.12411 19.5425 1.33325 17.3334 1.33325H14.6667Z" fill="#18202A"/>
</svg>
