<svg width="32" height="32" viewBox="0 0 32 32" fill="none" xmlns="http://www.w3.org/2000/svg">
<path d="M30.6666 6.66683C30.6666 9.61235 28.2788 12.0002 25.3333 12.0002C22.3878 12.0002 20 9.61235 20 6.66683C20 3.72131 22.3878 1.3335 25.3333 1.3335C28.2788 1.3335 30.6666 3.72131 30.6666 6.66683Z" fill="#18202A"/>
<path d="M16.2148 4.66683C16.3674 3.96765 16.5984 3.29776 16.8982 2.66683H6.66665C3.72113 2.66683 1.33331 5.05464 1.33331 8.00016V20.0002C1.33331 22.5032 3.05761 24.6035 5.38317 25.178C5.79427 25.2796 6.22417 25.3335 6.66664 25.3335H7.39392L6.62083 29.0309C6.38331 30.1668 7.60986 31.0429 8.60737 30.4498L17.2121 25.3335H25.3333C28.2788 25.3335 30.6666 22.9457 30.6666 20.0002V14.3272C30.0502 14.7572 29.3794 15.1147 28.6666 15.3873V20.0002C28.6666 21.8411 27.1743 23.3335 25.3333 23.3335H17.2121C16.8523 23.3335 16.4992 23.4305 16.1899 23.6144L8.88892 27.9556L9.35158 25.7428C9.47484 25.1533 9.3259 24.5397 8.94612 24.0723C8.56634 23.6049 7.99616 23.3335 7.39392 23.3335H6.66664C4.8257 23.3335 3.33331 21.8411 3.33331 20.0002V8.00016C3.33331 6.15921 4.8257 4.66683 6.66665 4.66683H16.2148Z" fill="#18202A"/>
</svg>
