<svg width="32" height="32" viewBox="0 0 32 32" fill="none" xmlns="http://www.w3.org/2000/svg">
<path fill-rule="evenodd" clip-rule="evenodd" d="M17.1126 9.04496C16.665 8.09634 15.3349 8.09634 14.8873 9.04496L13.5874 11.7999L10.7191 12.2336C10.1692 12.3167 9.83261 12.7257 9.71834 13.1154C9.60439 13.504 9.66953 13.9946 10.0264 14.3587L12.1234 16.4983L11.624 19.5391C11.5474 20.0054 11.7331 20.4531 12.0736 20.7278C12.422 21.0088 12.9499 21.1115 13.4283 20.8487L16 19.4358L18.5717 20.8487C19.0501 21.1115 19.578 21.0088 19.9263 20.7278C20.2669 20.4531 20.4526 20.0054 20.376 19.5391L19.8767 16.4987L21.9729 14.3629C22.3301 13.999 22.3955 13.5084 22.2819 13.1198C22.168 12.7301 21.8318 12.3209 21.2821 12.2372L18.4128 11.8005L17.1126 9.04496ZM14.941 13.618L16 11.3737L17.0587 13.6175L19.5326 13.994L17.7387 15.8218L18.1516 18.336L16 17.1539L13.8484 18.336L14.2612 15.8222L12.4674 13.992L14.941 13.618Z" fill="#18202A"/>
<path fill-rule="evenodd" clip-rule="evenodd" d="M16.3026 1.35983C16.0361 1.31301 15.7608 1.32862 15.5001 1.40664L2.51219 5.31326L2.34179 5.37435C1.73507 5.62862 1.33331 6.20809 1.33331 6.85704C1.33331 23.3512 9.58255 27.8773 14.5759 30.1883L15.2821 30.5118C15.5094 30.6151 15.7549 30.6668 16.0004 30.6668C16.2457 30.6668 16.4905 30.6151 16.7172 30.5118C21.593 28.2911 30.6666 24.1558 30.6666 6.85704C30.6673 6.14975 30.1892 5.52448 29.4884 5.31326L16.5005 1.40664L16.3026 1.35983ZM3.33465 7.1535L16.0013 3.34416L28.664 7.1535L28.662 7.52106C28.5632 14.5599 26.8892 19.5515 23.9802 23.0627L23.7062 23.3868C21.9787 25.386 20.2199 26.6036 17.3784 27.991L16.3897 28.4611L15.9986 28.6402L15.6083 28.4604C12.0059 26.7873 10.0298 25.4889 8.01966 23.0625L7.75058 22.729C5.00769 19.2373 3.43365 14.3399 3.33795 7.52277L3.33465 7.1535Z" fill="#18202A"/>
</svg>
