<svg width="32" height="32" viewBox="0 0 32 32" fill="none" xmlns="http://www.w3.org/2000/svg">
<path d="M2.66663 5.33329C2.66663 3.86053 3.86053 2.66663 5.33329 2.66663H12C13.4727 2.66663 14.6666 3.86053 14.6666 5.33329V7.99996C14.6666 9.47272 13.4727 10.6666 12 10.6666H9.33329V16H20C20 14.5272 21.1939 13.3333 22.6666 13.3333H26.6666C28.1394 13.3333 29.3333 14.5272 29.3333 16V17.3333C29.3333 18.8061 28.1394 20 26.6666 20H22.6666C21.6796 20 20.8178 19.4637 20.3567 18.6666H9.33329V24C9.33329 24.7363 9.93025 25.3333 10.6666 25.3333H20C20 23.8605 21.1939 22.6666 22.6666 22.6666H26.6666C28.1394 22.6666 29.3333 23.8605 29.3333 25.3333V26.6666C29.3333 28.1394 28.1394 29.3333 26.6666 29.3333H22.6666C21.6796 29.3333 20.8178 28.797 20.3567 28H10.6666C8.45749 28 6.66663 26.2091 6.66663 24V10.6666H5.33329C3.86053 10.6666 2.66663 9.47272 2.66663 7.99996V5.33329Z" fill="#18202A"/>
</svg>
