<svg width="32" height="32" viewBox="0 0 32 32" fill="none" xmlns="http://www.w3.org/2000/svg">
<path d="M23.453 5.95124C23.7942 5.51697 23.7188 4.88831 23.2845 4.5471C22.8502 4.20588 22.2216 4.28132 21.8803 4.7156L7.91007 22.4959L4.70711 19.293C4.31658 18.9025 3.68342 18.9025 3.29289 19.293C2.90237 19.6835 2.90237 20.3167 3.29289 20.7072L7.29289 24.7072C7.49511 24.9094 7.77422 25.0154 8.05968 24.9983C8.34514 24.9812 8.60964 24.8428 8.78632 24.6179L23.453 5.95124Z" fill="#18202A"/>
<path d="M25.3333 9.66671C24.781 9.66671 24.3333 10.1144 24.3333 10.6667C24.3333 11.219 24.781 11.6667 25.3333 11.6667H28C28.5523 11.6667 29 11.219 29 10.6667C29 10.1144 28.5523 9.66671 28 9.66671H25.3333Z" fill="#18202A"/>
<path d="M19 17.3334C19 16.7811 19.4477 16.3334 20 16.3334H28C28.5523 16.3334 29 16.7811 29 17.3334C29 17.8857 28.5523 18.3334 28 18.3334H20C19.4477 18.3334 19 17.8857 19 17.3334Z" fill="#18202A"/>
<path d="M14.6667 23C14.1144 23 13.6667 23.4478 13.6667 24C13.6667 24.5523 14.1144 25 14.6667 25H28C28.5523 25 29 24.5523 29 24C29 23.4478 28.5523 23 28 23H14.6667Z" fill="#18202A"/>
</svg>
