<svg width="32" height="32" viewBox="0 0 32 32" fill="none" xmlns="http://www.w3.org/2000/svg">
<path fill-rule="evenodd" clip-rule="evenodd" d="M9.33333 1.33301H14.6667V14.6663H20.99C20.8733 14.7702 20.7589 14.8781 20.647 14.99L14.9902 20.6469C12.268 23.369 11.9177 27.5649 13.9393 30.6663H9.33333C6.38781 30.6663 4 28.2785 4 25.333V6.66634C4 3.72082 6.38781 1.33301 9.33333 1.33301ZM27.219 11.2186C27.447 11.4466 27.6294 11.7117 27.7605 11.9997H17.3333V1.57253C17.6213 1.70357 17.8864 1.88603 18.1144 2.11406L27.219 11.2186ZM30.0751 16.8756C27.9923 14.7928 24.6155 14.7928 22.5327 16.8756L21.5898 17.8184C21.0692 18.3391 21.0692 19.1833 21.5898 19.704C22.1105 20.2247 22.9548 20.2247 23.4755 19.704L24.4183 18.7612C25.4597 17.7198 27.1481 17.7198 28.1895 18.7612C29.2309 19.8026 29.2309 21.4911 28.1895 22.5325L27.2467 23.4753C26.726 23.996 26.726 24.8402 27.2467 25.3609C27.7674 25.8816 28.6116 25.8816 29.1323 25.3609L30.0751 24.4181C32.1579 22.3353 32.1579 18.9584 30.0751 16.8756ZM16.8758 30.0749C14.793 27.9922 14.793 24.6153 16.8758 22.5325L17.8186 21.5897C18.3393 21.069 19.1835 21.069 19.7042 21.5897C20.2249 22.1104 20.2249 22.9546 19.7042 23.4753L18.7614 24.4181C17.72 25.4595 17.72 27.1479 18.7614 28.1893C19.8028 29.2307 21.4913 29.2307 22.5327 28.1893L23.4755 27.2465C23.9962 26.7258 24.8404 26.7258 25.3611 27.2465C25.8818 27.7672 25.8818 28.6114 25.3611 29.1321L24.4183 30.0749C22.3355 32.1577 18.9586 32.1577 16.8758 30.0749ZM20.647 26.3037C20.1263 25.783 20.1263 24.9388 20.647 24.4181L24.4183 20.6469C24.939 20.1262 25.7832 20.1262 26.3039 20.6469C26.8246 21.1676 26.8246 22.0118 26.3039 22.5325L22.5327 26.3037C22.012 26.8244 21.1677 26.8244 20.647 26.3037Z" fill="#18202A"/>
</svg>
