<svg width="32" height="32" viewBox="0 0 32 32" fill="none" xmlns="http://www.w3.org/2000/svg">
<path d="M11.3333 2.6665C12.0697 2.6665 12.6666 3.26346 12.6666 3.99984C12.6666 4.73622 12.0697 5.33317 11.3333 5.33317H6.66663C5.93025 5.33317 5.33329 5.93012 5.33329 6.6665V11.3332C5.33329 12.0695 4.73634 12.6665 3.99996 12.6665C3.26358 12.6665 2.66663 12.0695 2.66663 11.3332V6.6665C2.66663 4.45736 4.45749 2.6665 6.66663 2.6665H11.3333Z" fill="#18202A"/>
<path d="M19.3333 3.99984C19.3333 4.73622 19.9302 5.33317 20.6666 5.33317H25.3333C26.0697 5.33317 26.6666 5.93012 26.6666 6.6665V11.3332C26.6666 12.0695 27.2636 12.6665 28 12.6665C28.7363 12.6665 29.3333 12.0695 29.3333 11.3332V6.6665C29.3333 4.45737 27.5424 2.6665 25.3333 2.6665H20.6666C19.9302 2.6665 19.3333 3.26346 19.3333 3.99984Z" fill="#18202A"/>
<path d="M19.3333 27.9998C19.3333 27.2635 19.9302 26.6665 20.6666 26.6665H25.3333C26.0697 26.6665 26.6666 26.0695 26.6666 25.3332V20.6665C26.6666 19.9301 27.2636 19.3332 28 19.3332C28.7363 19.3332 29.3333 19.9301 29.3333 20.6665V25.3332C29.3333 27.5423 27.5424 29.3332 25.3333 29.3332H20.6666C19.9302 29.3332 19.3333 28.7362 19.3333 27.9998Z" fill="#18202A"/>
<path d="M5.33329 20.6665C5.33329 19.9301 4.73634 19.3332 3.99996 19.3332C3.26358 19.3332 2.66663 19.9301 2.66663 20.6665V25.3332C2.66663 27.5423 4.45749 29.3332 6.66663 29.3332H11.3333C12.0697 29.3332 12.6666 28.7362 12.6666 27.9998C12.6666 27.2635 12.0697 26.6665 11.3333 26.6665H6.66663C5.93025 26.6665 5.33329 26.0695 5.33329 25.3332V20.6665Z" fill="#18202A"/>
</svg>
