<svg width="32" height="32" viewBox="0 0 32 32" fill="none" xmlns="http://www.w3.org/2000/svg">
<g clip-path="url(#clip0_3725_8778)">
<path fill-rule="evenodd" clip-rule="evenodd" d="M12 12.8624C12 12.3859 12.3862 11.9997 12.8627 11.9997H19.1372C19.6137 11.9997 20 12.3859 20 12.8624V19.1369C20 19.6134 19.6137 19.9997 19.1372 19.9997H12.8627C12.3862 19.9997 12 19.6134 12 19.1369V12.8624ZM13.7255 13.7252V18.2742H18.2745V13.7252H13.7255Z" fill="#18202A"/>
<path fill-rule="evenodd" clip-rule="evenodd" d="M13.3633 2.33301C13.3633 1.78072 12.9155 1.33301 12.3633 1.33301C11.811 1.33301 11.3633 1.78072 11.3633 2.33301V5.30306H8.72761C6.83645 5.30306 5.30337 6.83615 5.30337 8.7273V11.333H2.33331C1.78103 11.333 1.33331 11.7807 1.33331 12.333C1.33331 12.8853 1.78103 13.333 2.33331 13.333H5.30337V17.333H2.33331C1.78103 17.333 1.33331 17.7807 1.33331 18.333C1.33331 18.8853 1.78103 19.333 2.33331 19.333H5.30337V23.2728C5.30337 25.1639 6.83645 26.697 8.72761 26.697H11.3633V29.7201C11.3633 30.2427 11.811 30.6663 12.3633 30.6663C12.9155 30.6663 13.3633 30.2427 13.3633 29.7201V26.697H18.6367V29.7201C18.6367 30.2427 19.0844 30.6663 19.6367 30.6663C20.189 30.6663 20.6367 30.2427 20.6367 29.7201V26.697H23.2731C25.1642 26.697 26.6973 25.1639 26.6973 23.2728V19.333H29.7204C30.243 19.333 30.6666 18.8853 30.6666 18.333C30.6666 17.7807 30.243 17.333 29.7204 17.333H26.6973V13.333H29.7204C30.243 13.333 30.6666 12.8853 30.6666 12.333C30.6666 11.7807 30.243 11.333 29.7204 11.333H26.6973V8.7273C26.6973 6.83615 25.1642 5.30306 23.2731 5.30306H20.6367V2.33301C20.6367 1.78072 20.189 1.33301 19.6367 1.33301C19.0844 1.33301 18.6367 1.78072 18.6367 2.33301V5.30306H13.3633V2.33301ZM8.72761 7.30306C7.94102 7.30306 7.30337 7.94072 7.30337 8.7273V23.2728C7.30337 24.0593 7.94102 24.697 8.72761 24.697H23.2731C24.0597 24.697 24.6973 24.0593 24.6973 23.2728V8.7273C24.6973 7.94072 24.0597 7.30306 23.2731 7.30306H8.72761Z" fill="#18202A"/>
</g>
<defs>
<clipPath id="clip0_3725_8778">
<rect width="32" height="32" fill="white"/>
</clipPath>
</defs>
</svg>
