<svg width="32" height="32" viewBox="0 0 32 32" fill="none" xmlns="http://www.w3.org/2000/svg">
<path fill-rule="evenodd" clip-rule="evenodd" d="M30.6667 16.0002C30.6667 24.1003 24.1002 30.6668 16 30.6668C7.89982 30.6668 1.33333 24.1003 1.33333 16.0002C1.33333 7.89999 7.89982 1.3335 16 1.3335C24.1002 1.3335 30.6667 7.89999 30.6667 16.0002ZM13.3333 13.3335C13.3333 14.8063 12.4379 16.0002 11.3333 16.0002C10.2288 16.0002 9.33334 14.8063 9.33334 13.3335C9.33334 11.8607 10.2288 10.6668 11.3333 10.6668C12.4379 10.6668 13.3333 11.8607 13.3333 13.3335ZM9.91697 18.8976C10.5259 18.4835 11.3552 18.6415 11.7693 19.2505C12.1862 19.8636 12.7886 20.3895 13.5324 20.7614C14.2767 21.1335 15.1273 21.3335 16 21.3335C16.8727 21.3335 17.7233 21.1335 18.4676 20.7614C19.2114 20.3895 19.8138 19.8636 20.2307 19.2505C20.6448 18.6415 21.4741 18.4835 22.083 18.8976C22.692 19.3116 22.85 20.1409 22.4359 20.7499C21.7467 21.7635 20.7854 22.5839 19.6601 23.1465C18.5352 23.709 17.2748 24.0002 16 24.0002C14.7252 24.0002 13.4648 23.709 12.3399 23.1465C11.2146 22.5839 10.2533 21.7635 9.56407 20.7499C9.15002 20.1409 9.30802 19.3116 9.91697 18.8976ZM20.6667 16.0002C21.7712 16.0002 22.6667 14.8063 22.6667 13.3335C22.6667 11.8607 21.7712 10.6668 20.6667 10.6668C19.5621 10.6668 18.6667 11.8607 18.6667 13.3335C18.6667 14.8063 19.5621 16.0002 20.6667 16.0002Z" fill="#18202A"/>
</svg>
