<svg width="32" height="32" viewBox="0 0 32 32" fill="none" xmlns="http://www.w3.org/2000/svg">
<path fill-rule="evenodd" clip-rule="evenodd" d="M30.6667 15.9999C30.6667 24.1001 24.1002 30.6666 16 30.6666C7.89982 30.6666 1.33333 24.1001 1.33333 15.9999C1.33333 7.89974 7.89982 1.33325 16 1.33325C24.1002 1.33325 30.6667 7.89974 30.6667 15.9999ZM22.2761 11.6094C22.7968 11.0887 22.7968 10.2445 22.2761 9.72378C21.7554 9.20308 20.9112 9.20308 20.3905 9.72378L16 14.1143L11.6095 9.72378C11.0888 9.20308 10.2446 9.20308 9.72385 9.72378C9.20315 10.2445 9.20315 11.0887 9.72385 11.6094L14.1144 15.9999L9.72385 20.3904C9.20315 20.9111 9.20315 21.7554 9.72385 22.2761C10.2446 22.7968 11.0888 22.7968 11.6095 22.2761L16 17.8855L20.3905 22.2761C20.9112 22.7968 21.7554 22.7968 22.2761 22.2761C22.7968 21.7554 22.7968 20.9111 22.2761 20.3904L17.8856 15.9999L22.2761 11.6094Z" fill="#18202A"/>
</svg>
