<svg width="32" height="32" viewBox="0 0 32 32" fill="none" xmlns="http://www.w3.org/2000/svg">
<path d="M1.33331 2.3335C1.33331 1.78121 1.78103 1.3335 2.33331 1.3335C2.8856 1.3335 3.33331 1.78121 3.33331 2.3335V29.6668C3.33331 30.2191 2.8856 30.6668 2.33331 30.6668C1.78103 30.6668 1.33331 30.2191 1.33331 29.6668V2.3335Z" fill="#18202A"/>
<path fill-rule="evenodd" clip-rule="evenodd" d="M16 6.00016H3.33331V19.3335H17.3333C17.7015 19.3335 18 19.035 18 18.6668V8.00016C18 6.89559 17.1045 6.00016 16 6.00016ZM1.33331 4.00016V21.3335H17.3333C18.8061 21.3335 20 20.1396 20 18.6668V8.00016C20 5.79102 18.2091 4.00016 16 4.00016H1.33331Z" fill="#18202A"/>
<path fill-rule="evenodd" clip-rule="evenodd" d="M10.6666 21.3335V24.0002C10.6666 25.4729 11.8606 26.6668 13.3333 26.6668H29.4091C30.4936 26.6668 31.1244 25.441 30.494 24.5585L25.8869 18.1085C25.5557 17.6449 25.5557 17.0221 25.8869 16.5585L30.494 10.1085C31.1244 9.22599 30.4936 8.00016 29.4091 8.00016H20V10.0002H28.1136L24.2594 15.396C23.4316 16.555 23.4316 18.112 24.2594 19.271L28.1136 24.6668H13.3333C12.9651 24.6668 12.6666 24.3684 12.6666 24.0002V21.3335H10.6666Z" fill="#18202A"/>
<path fill-rule="evenodd" clip-rule="evenodd" d="M17.518 19.8286C17.9443 19.3636 18.0385 19.0375 18.0077 18.7909L19.9923 18.5428C20.1281 19.6295 19.5973 20.5201 18.9923 21.1801C18.387 21.8405 17.5772 22.4144 16.8441 22.9003C16.6043 23.0593 16.3751 23.2075 16.1576 23.3482C15.6672 23.6653 15.2361 23.9441 14.8757 24.2216C14.6229 24.4164 14.4632 24.5681 14.3735 24.681C14.3369 24.7271 14.3227 24.753 14.3191 24.7606C14.3225 24.752 14.3333 24.7199 14.3333 24.6668H12.3333C12.3333 24.1485 12.5745 23.7302 12.8074 23.437C13.0446 23.1385 13.351 22.8715 13.6555 22.637C14.0846 22.3066 14.627 21.9557 15.1505 21.6171C15.352 21.4867 15.5508 21.3582 15.7391 21.2333C16.4644 20.7526 17.0922 20.2932 17.518 19.8286ZM14.318 24.763C14.318 24.763 14.3183 24.7622 14.3191 24.7606L14.318 24.763Z" fill="#18202A"/>
</svg>
