<svg width="32" height="32" viewBox="0 0 32 32" fill="none" xmlns="http://www.w3.org/2000/svg">
<path fill-rule="evenodd" clip-rule="evenodd" d="M24.3152 2.67587C27.114 2.83898 29.3334 5.16033 29.3334 8.00004V25.3334C29.3334 28.2789 26.9455 30.6667 24 30.6667H8.00002C5.0545 30.6667 2.66669 28.2789 2.66669 25.3334V8.00004C2.66669 5.16033 4.88603 2.83898 7.68483 2.67587C8.14459 1.87375 9.0092 1.33337 10 1.33337H22C22.9908 1.33337 23.8554 1.87375 24.3152 2.67587ZM7.33335 4.73339C5.81186 5.04223 4.66669 6.3874 4.66669 8.00004V25.3334C4.66669 27.1743 6.15907 28.6667 8.00002 28.6667H24C25.841 28.6667 27.3334 27.1743 27.3334 25.3334V8.00004C27.3334 6.3874 26.1882 5.04223 24.6667 4.73339V6.66671C24.6667 8.13947 23.4728 9.33337 22 9.33337H10C8.52726 9.33337 7.33335 8.13947 7.33335 6.66671V4.73339ZM9.33335 4.00004C9.33335 3.63185 9.63183 3.33337 10 3.33337H22C22.3682 3.33337 22.6667 3.63185 22.6667 4.00004V6.66671C22.6667 7.0349 22.3682 7.33337 22 7.33337H10C9.63183 7.33337 9.33335 7.0349 9.33335 6.66671V4.00004ZM23.3738 14.0405C23.7643 13.65 23.7643 13.0168 23.3738 12.6263C22.9833 12.2357 22.3501 12.2357 21.9596 12.6263L13.3334 21.2525L10.0405 17.9596C9.64994 17.5691 9.01677 17.5691 8.62625 17.9596C8.23572 18.3501 8.23572 18.9833 8.62625 19.3738L12.6262 23.3738C13.0168 23.7643 13.6499 23.7643 14.0405 23.3738L23.3738 14.0405Z" fill="#18202A"/>
</svg>
