<svg width="32" height="32" viewBox="0 0 32 32" fill="none" xmlns="http://www.w3.org/2000/svg">
<path fill-rule="evenodd" clip-rule="evenodd" d="M8.66663 11.8068C10.5943 11.2331 12 9.44743 12 7.33342C12 4.75609 9.91062 2.66675 7.33329 2.66675C4.75596 2.66675 2.66663 4.75609 2.66663 7.33342C2.66663 9.44743 4.0723 11.2331 5.99996 11.8068V19.3334C5.99996 23.0153 8.98473 26.0001 12.6666 26.0001H20.1932C20.7669 27.9277 22.5526 29.3334 24.6666 29.3334C27.244 29.3334 29.3333 27.2441 29.3333 24.6667C29.3333 22.0894 27.244 20.0001 24.6666 20.0001C22.5526 20.0001 20.7669 21.4058 20.1932 23.3334H12.6666C10.4575 23.3334 8.66663 21.5426 8.66663 19.3334V11.8068ZM7.33329 9.33342C8.43786 9.33342 9.33329 8.43798 9.33329 7.33342C9.33329 6.22885 8.43786 5.33341 7.33329 5.33341C6.22872 5.33341 5.33329 6.22885 5.33329 7.33342C5.33329 8.43798 6.22872 9.33342 7.33329 9.33342ZM24.6666 26.6667C25.7712 26.6667 26.6666 25.7713 26.6666 24.6667C26.6666 23.5622 25.7712 22.6667 24.6666 22.6667C23.5621 22.6667 22.6666 23.5622 22.6666 24.6667C22.6666 25.7713 23.5621 26.6667 24.6666 26.6667Z" fill="#18202A"/>
</svg>
