<svg width="32" height="32" viewBox="0 0 32 32" fill="none" xmlns="http://www.w3.org/2000/svg">
<path fill-rule="evenodd" clip-rule="evenodd" d="M23.2233 4C24.1958 4 25.0912 4.52942 25.5599 5.38155L30.2324 13.8771C30.5141 14.3893 30.6197 14.9798 30.533 15.5578L29.0073 25.7289C28.8115 27.0343 27.6902 28 26.3702 28H5.62984C4.30985 28 3.18848 27.0343 2.99267 25.7289L1.46701 15.5578C1.3803 14.9798 1.48591 14.3893 1.7676 13.8771L6.44015 5.38155C6.90882 4.52942 7.80422 4 8.77673 4H23.2233ZM4.99616 14.1737C4.875 14.3958 5.03577 14.6667 5.28879 14.6667H10.6667C11.403 14.6667 11.9782 15.28 12.2192 15.9759C12.7614 17.542 14.2494 18.6667 16 18.6667C17.7506 18.6667 19.2386 17.542 19.7808 15.9759C20.0218 15.28 20.597 14.6667 21.3333 14.6667H26.7112C26.9642 14.6667 27.125 14.3958 27.0038 14.1737L23.2881 7.36153C23.0545 6.93318 22.6055 6.66667 22.1176 6.66667H9.88242C9.3945 6.66667 8.94554 6.93318 8.71189 7.36153L4.99616 14.1737Z" fill="#18202A"/>
</svg>
