<svg width="32" height="32" viewBox="0 0 32 32" fill="none" xmlns="http://www.w3.org/2000/svg">
<path fill-rule="evenodd" clip-rule="evenodd" d="M28 13.1042V14.6663H26H16.6667H14.6667V12.6663V3.33301H9.33333C7.49238 3.33301 6 4.82539 6 6.66634V25.333C6 27.174 7.49238 28.6663 9.33333 28.6663H15.821C16.0795 29.3772 16.4371 30.0508 16.8852 30.6663H9.33333C6.38781 30.6663 4 28.2785 4 25.333V6.66634C4 3.72082 6.38781 1.33301 9.33333 1.33301H14.6667H16.2288C16.936 1.33301 17.6143 1.61396 18.1144 2.11406L27.219 11.2186C27.7191 11.7187 28 12.397 28 13.1042ZM16.6667 12.6663H25.836C25.826 12.6549 25.8156 12.6437 25.8047 12.6328L16.7002 3.52827C16.6893 3.51743 16.6782 3.507 16.6667 3.49699V12.6663ZM26.3354 28.7994L30.2861 24.8474V24.8527C30.4756 24.6761 30.7264 24.5799 30.9854 24.5845C31.2445 24.589 31.4917 24.694 31.6749 24.8772C31.8581 25.0604 31.9631 25.3076 31.9676 25.5667C31.9722 25.8257 31.876 26.0765 31.6994 26.266L27.7487 30.2127C26.6044 31.3568 25.0524 31.9996 23.4343 31.9994C21.8161 31.9993 20.2642 31.3564 19.1201 30.212C17.9759 29.0677 17.3332 27.5158 17.3333 25.8976C17.3335 24.2794 17.9764 22.7275 19.1207 21.5834L23.4141 17.2887C24.2394 16.4634 25.3588 15.9997 26.5261 15.9997C27.6933 15.9997 28.8127 16.4634 29.6381 17.2887C30.4634 18.1141 30.9271 19.2335 30.9271 20.4007C30.9271 21.5679 30.4634 22.6874 29.6381 23.5127L25.6887 27.466C25.1818 27.9733 24.4941 28.2584 23.777 28.2587C23.0599 28.2589 22.372 27.9743 21.8647 27.4674C21.3575 26.9605 21.0723 26.2728 21.0721 25.5557C21.0718 24.8385 21.3565 24.1506 21.8634 23.6434L24.7887 20.7194C24.8803 20.6211 24.9907 20.5423 25.1133 20.4877C25.236 20.433 25.3684 20.4036 25.5027 20.4013C25.637 20.3989 25.7703 20.4236 25.8949 20.4739C26.0194 20.5242 26.1325 20.599 26.2274 20.694C26.3224 20.7889 26.3973 20.9021 26.4476 21.0266C26.4978 21.1511 26.5225 21.2845 26.5202 21.4187C26.5178 21.553 26.4884 21.6854 26.4338 21.8081C26.3791 21.9308 26.3003 22.0412 26.2021 22.1327L23.2834 25.0567C23.1529 25.1885 23.0797 25.3665 23.0797 25.552C23.0797 25.7375 23.1529 25.9156 23.2834 26.0474C23.4149 26.1785 23.593 26.2522 23.7787 26.2522C23.9644 26.2522 24.1426 26.1785 24.2741 26.0474L28.2247 22.098C28.4479 21.8751 28.6249 21.6105 28.7457 21.3191C28.8664 21.0277 28.9286 20.7154 28.9286 20.4C28.9286 20.0846 28.8664 19.7723 28.7457 19.481C28.6249 19.1896 28.4479 18.9249 28.2247 18.702C27.7668 18.2662 27.1589 18.0231 26.5267 18.0231C25.8946 18.0231 25.2866 18.2662 24.8287 18.702L20.5301 22.998C19.7608 23.7679 19.3288 24.8118 19.3291 25.9001C19.3295 26.9885 19.7622 28.0321 20.5321 28.8014C21.3019 29.5707 22.3458 30.0027 23.4341 30.0023C24.5225 30.0019 25.5661 29.5692 26.3354 28.7994Z" fill="#18202A"/>
</svg>
