<svg width="32" height="32" viewBox="0 0 32 32" fill="none" xmlns="http://www.w3.org/2000/svg">
<path fill-rule="evenodd" clip-rule="evenodd" d="M1.33333 6.66683C1.33333 3.72131 3.72114 1.3335 6.66666 1.3335H25.3333C28.2788 1.3335 30.6667 3.72131 30.6667 6.66683V18.6668C30.6667 21.6123 28.2788 24.0002 25.3333 24.0002H17.2121L8.60739 29.1165C7.60987 29.7096 6.38332 28.8335 6.62084 27.6976L7.39393 24.0002H6.66666C3.72114 24.0002 1.33333 21.6123 1.33333 18.6668V6.66683ZM13.8856 8.00016C13.5806 8.00016 13.3333 8.24743 13.3333 8.55245C13.3333 8.69892 13.3915 8.8394 13.4951 8.94297L13.6095 9.05735C14.1302 9.57805 14.1302 10.4223 13.6095 10.943C13.0888 11.4637 12.2446 11.4637 11.7239 10.943L11.6095 10.8286C11.0058 10.2249 10.6667 9.40617 10.6667 8.55245C10.6667 6.77467 12.1078 5.3335 13.8856 5.3335H17.6754C19.6956 5.3335 21.3333 6.97119 21.3333 8.99138C21.3333 10.5659 20.3258 11.9637 18.8322 12.4616L18.4216 12.5984C17.7717 12.815 17.3333 13.4233 17.3333 14.1083V14.6668C17.3333 15.4032 16.7364 16.0002 16 16.0002C15.2636 16.0002 14.6667 15.4032 14.6667 14.6668V14.1083C14.6667 12.2755 15.8395 10.6482 17.5784 10.0686L17.9889 9.93174C18.3937 9.79682 18.6667 9.41804 18.6667 8.99138C18.6667 8.44395 18.2229 8.00016 17.6754 8.00016H13.8856ZM16 17.3335C15.2636 17.3335 14.6667 17.9305 14.6667 18.6668C14.6667 19.4032 15.2636 20.0002 16 20.0002C16.7364 20.0002 17.3333 19.4032 17.3333 18.6668C17.3333 17.9305 16.7364 17.3335 16 17.3335Z" fill="#18202A"/>
</svg>
