<svg width="32" height="32" viewBox="0 0 32 32" fill="none" xmlns="http://www.w3.org/2000/svg">
<path d="M29.3333 8.00016C30.0697 8.00016 30.6667 7.40321 30.6667 6.66683C30.6667 5.93045 30.0697 5.3335 29.3333 5.3335H2.66666C1.93028 5.3335 1.33333 5.93045 1.33333 6.66683C1.33333 7.40321 1.93028 8.00016 2.66666 8.00016H29.3333Z" fill="#18202A"/>
<path d="M29.3333 17.3335C30.0697 17.3335 30.6667 16.7365 30.6667 16.0002C30.6667 15.2638 30.0697 14.6668 29.3333 14.6668H2.66666C1.93028 14.6668 1.33333 15.2638 1.33333 16.0002C1.33333 16.7365 1.93028 17.3335 2.66666 17.3335H29.3333Z" fill="#18202A"/>
<path d="M29.3333 26.6668C30.0697 26.6668 30.6667 26.0699 30.6667 25.3335C30.6667 24.5971 30.0697 24.0002 29.3333 24.0002H2.66666C1.93028 24.0002 1.33333 24.5971 1.33333 25.3335C1.33333 26.0699 1.93028 26.6668 2.66666 26.6668H29.3333Z" fill="#18202A"/>
</svg>
