<svg width="32" height="32" viewBox="0 0 32 32" fill="none" xmlns="http://www.w3.org/2000/svg">
<path d="M8.00002 9.33317C7.44774 9.33317 7.00002 9.78089 7.00002 10.3332C7.00002 10.8855 7.44774 11.3332 8.00002 11.3332H24C24.5523 11.3332 25 10.8855 25 10.3332C25 9.78089 24.5523 9.33317 24 9.33317H8.00002Z" fill="#18202A"/>
<path d="M8.00002 14.6665C7.44774 14.6665 7.00002 15.1142 7.00002 15.6665C7.00002 16.2188 7.44774 16.6665 8.00002 16.6665H24C24.5523 16.6665 25 16.2188 25 15.6665C25 15.1142 24.5523 14.6665 24 14.6665H8.00002Z" fill="#18202A"/>
<path d="M7.00002 20.9998C7.00002 20.4476 7.44774 19.9998 8.00002 19.9998H16C16.5523 19.9998 17 20.4476 17 20.9998C17 21.5521 16.5523 21.9998 16 21.9998H8.00002C7.44774 21.9998 7.00002 21.5521 7.00002 20.9998Z" fill="#18202A"/>
<path fill-rule="evenodd" clip-rule="evenodd" d="M2.66669 7.99984C2.66669 5.05432 5.0545 2.6665 8.00002 2.6665H24C26.9455 2.6665 29.3334 5.05432 29.3334 7.99984V23.9998C29.3334 26.9454 26.9455 29.3332 24 29.3332H8.00002C5.0545 29.3332 2.66669 26.9454 2.66669 23.9998V7.99984ZM24 4.6665C25.841 4.6665 27.3334 6.15889 27.3334 7.99984V23.9998C27.3334 25.8408 25.841 27.3332 24 27.3332H8.00002C6.15907 27.3332 4.66669 25.8408 4.66669 23.9998V7.99984C4.66669 6.15889 6.15907 4.6665 8.00002 4.6665H24Z" fill="#18202A"/>
</svg>
