<svg width="32" height="32" viewBox="0 0 32 32" fill="none" xmlns="http://www.w3.org/2000/svg">
<path fill-rule="evenodd" clip-rule="evenodd" d="M5.60946 3.72378C5.08876 3.20308 4.24454 3.20308 3.72384 3.72378C3.20314 4.24448 3.20314 5.0887 3.72384 5.60939L7.05768 8.94324C4.61116 10.9243 2.77084 13.2607 1.76315 14.6858C1.20167 15.4798 1.20167 16.5201 1.76315 17.3141C3.77957 20.1656 9.12996 26.6666 16 26.6666C18.4688 26.6666 20.7414 25.827 22.7335 24.619L26.3905 28.2761C26.9112 28.7968 27.7554 28.7968 28.2761 28.2761C28.7968 27.7554 28.7968 26.9111 28.2761 26.3904L24.9423 23.0566L24.9434 23.0557L20.5957 18.7079L20.5949 18.7092L18.5763 16.6906L18.5768 16.689L15.3109 13.4231L15.3093 13.4236L13.2907 11.405L13.292 11.4042L9.26777 7.38001L9.26647 7.3808L5.60946 3.72378ZM11.4051 13.2906C10.9359 14.0846 10.6666 15.0108 10.6666 15.9999C10.6666 18.9454 13.0545 21.3333 16 21.3333C16.9891 21.3333 17.9153 21.064 18.7093 20.5948L16.6907 18.5763C16.4704 18.6352 16.2389 18.6666 16 18.6666C14.5272 18.6666 13.3333 17.4727 13.3333 15.9999C13.3333 15.761 13.3647 15.5295 13.4236 15.3092L11.4051 13.2906Z" fill="#18202A"/>
<path d="M16.336 10.677C19.0139 10.8435 21.1564 12.986 21.3229 15.6639L26.9228 21.2638C28.3915 19.7901 29.523 18.3234 30.2368 17.3141C30.7983 16.5201 30.7983 15.4798 30.2368 14.6858C28.2204 11.8342 22.87 5.33325 16 5.33325C14.5216 5.33325 13.1137 5.63428 11.7942 6.13519L16.336 10.677Z" fill="#18202A"/>
</svg>
