<svg width="32" height="32" viewBox="0 0 32 32" fill="none" xmlns="http://www.w3.org/2000/svg">
<g clip-path="url(#clip0_3750_8837)">
<path d="M11.0196 6.03051C11.1521 5.93734 11.3347 6.03212 11.3347 6.19412V22.3252C11.3347 22.3903 11.303 22.4513 11.2497 22.4888L5.5751 26.4803C4.95148 26.9186 4.10649 26.5246 4.00924 25.8015L4 25.6622V11.4855C4 11.2064 4.11647 10.9423 4.31749 10.7546L4.4249 10.6674L11.0196 6.03051ZM27.9939 6.19543L28.0031 6.33475V20.5115C28.0031 20.7906 27.8867 21.0547 27.6856 21.2424L27.5782 21.3295L20.983 25.9637C20.8505 26.0568 20.668 25.962 20.668 25.8V9.66758C20.668 9.60244 20.6997 9.54139 20.753 9.50394L26.428 5.51667C27.0516 5.07828 27.8966 5.47231 27.9939 6.19543ZM13.3347 6.19542C13.3347 6.03343 13.5172 5.93864 13.6497 6.0318L18.583 9.49993C18.6363 9.53739 18.668 9.59843 18.668 9.66355V25.7971C18.668 25.9591 18.4854 26.0539 18.3529 25.9607L13.4196 22.4901C13.3663 22.4526 13.3347 22.3916 13.3347 22.3265V6.19542Z" fill="#18202A"/>
</g>
<defs>
<clipPath id="clip0_3750_8837">
<rect width="32" height="32" fill="white"/>
</clipPath>
</defs>
</svg>
