<svg width="32" height="32" viewBox="0 0 32 32" fill="none" xmlns="http://www.w3.org/2000/svg">
<path fill-rule="evenodd" clip-rule="evenodd" d="M16 30.6667C24.1002 30.6667 30.6667 24.1002 30.6667 16C30.6667 7.89983 24.1002 1.33334 16 1.33334C7.89982 1.33334 1.33333 7.89983 1.33333 16C1.33333 24.1002 7.89982 30.6667 16 30.6667ZM18.2761 9.72387C17.7554 9.20317 16.9112 9.20317 16.3905 9.72387C15.8698 10.2446 15.8698 11.0888 16.3905 11.6095L19.4477 14.6667H9.33333C8.59695 14.6667 7.99999 15.2636 7.99999 16C7.99999 16.7364 8.59695 17.3333 9.33333 17.3333H19.4477L16.3905 20.3905C15.8698 20.9112 15.8698 21.7555 16.3905 22.2762C16.9112 22.7969 17.7554 22.7969 18.2761 22.2762L23.6095 16.9428C24.1302 16.4221 24.1302 15.5779 23.6095 15.0572L18.2761 9.72387Z" fill="#18202A"/>
</svg>
