<svg width="32" height="32" viewBox="0 0 32 32" fill="none" xmlns="http://www.w3.org/2000/svg">
<path d="M8.00004 2.66668C8.00004 1.9303 8.59699 1.33334 9.33337 1.33334C10.0698 1.33334 10.6667 1.9303 10.6667 2.66668V8.00001C10.6667 8.73639 10.0698 9.33334 9.33337 9.33334C8.59699 9.33334 8.00004 8.73639 8.00004 8.00001V2.66668Z" fill="#18202A"/>
<path d="M21.3334 2.66668C21.3334 1.9303 21.9303 1.33334 22.6667 1.33334C23.4031 1.33334 24 1.9303 24 2.66668V8.00001C24 8.73639 23.4031 9.33334 22.6667 9.33334C21.9303 9.33334 21.3334 8.73639 21.3334 8.00001V2.66668Z" fill="#18202A"/>
<path fill-rule="evenodd" clip-rule="evenodd" d="M6.66671 4.00001C3.72119 4.00001 1.33337 6.38783 1.33337 9.33334V25.3333C1.33337 28.2789 3.72119 30.6667 6.66671 30.6667H25.3334C28.2789 30.6667 30.6667 28.2789 30.6667 25.3333V9.33334C30.6667 6.38783 28.2789 4.00001 25.3334 4.00001H6.66671ZM6.66671 13.3333C6.66671 12.597 7.26366 12 8.00004 12H24C24.7364 12 25.3334 12.597 25.3334 13.3333C25.3334 14.0697 24.7364 14.6667 24 14.6667H8.00004C7.26366 14.6667 6.66671 14.0697 6.66671 13.3333ZM6.66671 18.6667C6.66671 17.9303 7.26366 17.3333 8.00004 17.3333C8.73642 17.3333 9.33337 17.9303 9.33337 18.6667C9.33337 19.4031 8.73642 20 8.00004 20C7.26366 20 6.66671 19.4031 6.66671 18.6667ZM8.00004 22.6667C7.26366 22.6667 6.66671 23.2636 6.66671 24C6.66671 24.7364 7.26366 25.3333 8.00004 25.3333C8.73642 25.3333 9.33337 24.7364 9.33337 24C9.33337 23.2636 8.73642 22.6667 8.00004 22.6667ZM12 18.6667C12 17.9303 12.597 17.3333 13.3334 17.3333C14.0698 17.3333 14.6667 17.9303 14.6667 18.6667C14.6667 19.4031 14.0698 20 13.3334 20C12.597 20 12 19.4031 12 18.6667ZM13.3334 22.6667C12.597 22.6667 12 23.2636 12 24C12 24.7364 12.597 25.3333 13.3334 25.3333C14.0698 25.3333 14.6667 24.7364 14.6667 24C14.6667 23.2636 14.0698 22.6667 13.3334 22.6667ZM17.3334 18.6667C17.3334 17.9303 17.9303 17.3333 18.6667 17.3333C19.4031 17.3333 20 17.9303 20 18.6667C20 19.4031 19.4031 20 18.6667 20C17.9303 20 17.3334 19.4031 17.3334 18.6667ZM18.6667 22.6667C17.9303 22.6667 17.3334 23.2636 17.3334 24C17.3334 24.7364 17.9303 25.3333 18.6667 25.3333C19.4031 25.3333 20 24.7364 20 24C20 23.2636 19.4031 22.6667 18.6667 22.6667ZM22.6667 18.6667C22.6667 17.9303 23.2637 17.3333 24 17.3333C24.7364 17.3333 25.3334 17.9303 25.3334 18.6667C25.3334 19.4031 24.7364 20 24 20C23.2637 20 22.6667 19.4031 22.6667 18.6667ZM24 22.6667C23.2637 22.6667 22.6667 23.2636 22.6667 24C22.6667 24.7364 23.2637 25.3333 24 25.3333C24.7364 25.3333 25.3334 24.7364 25.3334 24C25.3334 23.2636 24.7364 22.6667 24 22.6667Z" fill="#18202A"/>
</svg>
