<svg width="32" height="32" viewBox="0 0 32 32" fill="none" xmlns="http://www.w3.org/2000/svg">
<path d="M20 16.0002C20 18.2093 18.2091 20.0002 16 20.0002C13.7908 20.0002 12 18.2093 12 16.0002C12 13.791 13.7908 12.0002 16 12.0002C18.2091 12.0002 20 13.791 20 16.0002Z" fill="#18202A"/>
<path fill-rule="evenodd" clip-rule="evenodd" d="M16 30.6668C24.1002 30.6668 30.6666 24.1003 30.6666 16.0002C30.6666 7.89999 24.1002 1.3335 16 1.3335C7.8998 1.3335 1.33331 7.89999 1.33331 16.0002C1.33331 24.1003 7.8998 30.6668 16 30.6668ZM16 28.6668C22.9956 28.6668 28.6666 22.9958 28.6666 16.0002C28.6666 9.00456 22.9956 3.3335 16 3.3335C9.00437 3.3335 3.33331 9.00456 3.33331 16.0002C3.33331 22.9958 9.00437 28.6668 16 28.6668Z" fill="#18202A"/>
</svg>
