<svg width="32" height="32" viewBox="0 0 32 32" fill="none" xmlns="http://www.w3.org/2000/svg">
<path fill-rule="evenodd" clip-rule="evenodd" d="M10.8333 1.33337C10.0049 1.33337 9.33333 2.00495 9.33333 2.83337V3.83337C9.33333 4.6618 10.0049 5.33337 10.8333 5.33337H21.1667C21.9951 5.33337 22.6667 4.6618 22.6667 3.83337V2.83337C22.6667 2.00495 21.9951 1.33337 21.1667 1.33337H10.8333ZM6.66663 2.8348C4.36632 3.42686 2.66663 5.51499 2.66663 8.00011V25.3334C2.66663 28.279 5.05444 30.6668 7.99996 30.6668H24C26.9455 30.6668 29.3333 28.279 29.3333 25.3334V8.00011C29.3333 5.51499 27.6336 3.42686 25.3333 2.8348V4.00011C25.3333 6.20925 23.5424 8.00011 21.3333 8.00011H10.6666C8.45749 8.00011 6.66663 6.20925 6.66663 4.00011V2.8348ZM23.6094 12.3906C24.1301 12.9113 24.1301 13.7556 23.6094 14.2762L14.2761 23.6096C13.7554 24.1303 12.9112 24.1303 12.3905 23.6096L8.39048 19.6096C7.86978 19.0889 7.86978 18.2447 8.39048 17.724C8.91118 17.2033 9.7554 17.2033 10.2761 17.724L13.3333 20.7812L21.7238 12.3906C22.2445 11.8699 23.0887 11.8699 23.6094 12.3906Z" fill="#18202A"/>
</svg>
