<svg width="32" height="32" viewBox="0 0 32 32" fill="none" xmlns="http://www.w3.org/2000/svg">
<path d="M10.6667 4.00008C10.6667 3.50836 10.396 3.05654 9.9625 2.82452C9.52895 2.59249 9.00289 2.61792 8.59375 2.89068L4.59375 5.55735C3.98105 5.96582 3.81548 6.79365 4.22395 7.40635C4.63242 8.01906 5.46025 8.18462 6.07295 7.77615L8.00002 6.49144V12.0001C8.00002 12.7365 8.59697 13.3334 9.33335 13.3334C10.0697 13.3334 10.6667 12.7365 10.6667 12.0001V4.00008Z" fill="#18202A"/>
<path d="M6.66671 20.0001C6.66671 19.5885 7.20286 18.6667 8.66671 18.6667C10.0251 18.6667 10.6667 19.4945 10.6667 20.3334C10.6667 20.6882 10.5784 20.9427 10.0881 21.4024C9.68961 21.776 9.17262 22.1527 8.44599 22.6821C8.08586 22.9445 7.67425 23.2444 7.20005 23.6001L4.53338 25.6001C4.07425 25.9444 3.88698 26.5439 4.06847 27.0884C4.24995 27.6328 4.75947 28.0001 5.33338 28.0001H12C12.7364 28.0001 13.3334 27.4031 13.3334 26.6667C13.3334 25.9304 12.7364 25.3334 12 25.3334H9.33958C9.51111 25.2074 9.67975 25.0845 9.84461 24.9643C10.6633 24.3673 11.3888 23.8383 11.912 23.3478C12.755 22.5574 13.3334 21.6453 13.3334 20.3334C13.3334 17.839 11.3083 16.0001 8.66671 16.0001C6.13057 16.0001 4.00005 17.7449 4.00005 20.0001C4.00005 20.7365 4.597 21.3334 5.33338 21.3334C6.06976 21.3334 6.66671 20.7365 6.66671 20.0001Z" fill="#18202A"/>
<path d="M16 6.66675C16 5.93037 16.597 5.33341 17.3334 5.33341H28C28.7364 5.33341 29.3334 5.93037 29.3334 6.66675C29.3334 7.40313 28.7364 8.00008 28 8.00008H17.3334C16.597 8.00008 16 7.40313 16 6.66675Z" fill="#18202A"/>
<path d="M17.3334 9.33341C16.597 9.33341 16 9.93037 16 10.6667C16 11.4031 16.597 12.0001 17.3334 12.0001H28C28.7364 12.0001 29.3334 11.4031 29.3334 10.6667C29.3334 9.93037 28.7364 9.33341 28 9.33341H17.3334Z" fill="#18202A"/>
<path d="M16 21.3334C16 20.597 16.597 20.0001 17.3334 20.0001H28C28.7364 20.0001 29.3334 20.597 29.3334 21.3334C29.3334 22.0698 28.7364 22.6667 28 22.6667H17.3334C16.597 22.6667 16 22.0698 16 21.3334Z" fill="#18202A"/>
<path d="M17.3334 24.0001C16.597 24.0001 16 24.597 16 25.3334C16 26.0698 16.597 26.6667 17.3334 26.6667H28C28.7364 26.6667 29.3334 26.0698 29.3334 25.3334C29.3334 24.597 28.7364 24.0001 28 24.0001H17.3334Z" fill="#18202A"/>
</svg>
