<svg width="32" height="32" viewBox="0 0 32 32" fill="none" xmlns="http://www.w3.org/2000/svg">
<path fill-rule="evenodd" clip-rule="evenodd" d="M27.219 11.2186C27.6146 11.6143 27.8731 12.1215 27.9638 12.6663H28V14.6663H26.8172C26.5425 14.6984 26.2694 14.7485 26 14.8165V14.6663H14.6667V3.33301H9.33333C7.49238 3.33301 6 4.82539 6 6.66634V25.333C6 27.174 7.49238 28.6663 9.33333 28.6663H14.7208C14.8437 29.36 15.0826 30.0371 15.4377 30.6663H9.33333C6.38781 30.6663 4 28.2785 4 25.333V6.66634C4 3.72082 6.38781 1.33301 9.33333 1.33301H16.6667V1.3692C17.2115 1.4599 17.7187 1.71839 18.1144 2.11406L27.219 11.2186ZM16.6667 3.49699V12.6663H25.836C25.826 12.6549 25.8156 12.6437 25.8047 12.6328L16.7002 3.52827C16.6893 3.51743 16.6782 3.507 16.6667 3.49699ZM30.6205 17.8926C28.9282 16.2003 26.1845 16.2003 24.4922 17.8926L22.6066 19.7782C22.2161 20.1687 22.2161 20.8019 22.6066 21.1924C22.9971 21.5829 23.6303 21.5829 24.0208 21.1924L25.9064 19.3068C26.8177 18.3956 28.295 18.3956 29.2063 19.3068C30.1175 20.218 30.1175 21.6954 29.2063 22.6066L27.3206 24.4922C26.9301 24.8828 26.9301 25.5159 27.3206 25.9065C27.7112 26.297 28.3443 26.297 28.7349 25.9065L30.6205 24.0208C32.3128 22.3286 32.3128 19.5848 30.6205 17.8926ZM17.8926 30.6205C16.2003 28.9282 16.2003 26.1845 17.8926 24.4922L19.7782 22.6066C20.1687 22.2161 20.8019 22.2161 21.1924 22.6066C21.5829 22.9971 21.5829 23.6303 21.1924 24.0208L19.3068 25.9065C18.3955 26.8177 18.3955 28.2951 19.3068 29.2063C20.218 30.1175 21.6954 30.1175 22.6066 29.2063L24.4922 27.3207C24.8827 26.9301 25.5159 26.9301 25.9064 27.3207C26.297 27.7112 26.297 28.3444 25.9064 28.7349L24.0208 30.6205C22.3285 32.3128 19.5848 32.3128 17.8926 30.6205ZM26.6135 23.3137L23.3137 26.6136C22.9232 27.0041 22.29 27.0041 21.8995 26.6136C21.509 26.223 21.509 25.5899 21.8995 25.1993L25.1993 21.8995C25.5898 21.509 26.223 21.509 26.6135 21.8995C27.0041 22.29 27.0041 22.9232 26.6135 23.3137Z" fill="#18202A"/>
</svg>
