<svg width="32" height="32" viewBox="0 0 32 32" fill="none" xmlns="http://www.w3.org/2000/svg">
<path fill-rule="evenodd" clip-rule="evenodd" d="M16 5.33341C16 4.59704 15.4015 3.99484 14.6671 4.04897C7.19156 4.59999 1.33337 9.7403 1.33337 16.0001C1.33337 22.6275 7.89986 28.0001 16 28.0001C17.5684 28.0001 19.0793 27.7987 20.4961 27.4257L24.6431 29.1537C25.5657 29.5381 26.5677 28.8082 26.4847 27.8122L26.2177 24.6089C28.9618 22.4283 30.6667 19.3771 30.6667 16.0001C30.6667 15.932 30.666 15.8641 30.6646 15.7963C30.6514 15.1472 30.0929 14.6667 29.4437 14.6667H29.2118C28.5164 14.6667 28 15.3046 28 16.0001C28 18.4273 26.7814 20.7548 24.5587 22.5212L23.4418 23.4087L23.6451 25.849L20.6894 24.6174L19.8173 24.8469C18.6229 25.1613 17.3402 25.3334 16 25.3334C8.84733 25.3334 4.00004 20.6794 4.00004 16.0001C4.00004 11.6175 8.25214 7.25702 14.668 6.7217C15.4018 6.66047 16 6.06979 16 5.33341Z" fill="#18202A"/>
<path d="M22.6667 2.66675C23.4031 2.66675 24 3.11446 24 3.66675V4.69625C26.3249 5.19094 29.0079 7.66803 29.0079 9.33342C29.0079 9.97234 28.1795 9.67924 27.0932 9.29489C26.1323 8.95492 24.9696 8.54356 24 8.64269V16.0001C24 18.2092 22.2092 20.0001 20 20.0001C17.7909 20.0001 16 18.2092 16 16.0001C16 13.7909 17.7909 12.0001 20 12.0001C20.4676 12.0001 20.9163 12.0803 21.3334 12.2277V3.66675C21.3334 3.11446 21.9303 2.66675 22.6667 2.66675Z" fill="#18202A"/>
</svg>
