<svg width="32" height="32" viewBox="0 0 32 32" fill="none" xmlns="http://www.w3.org/2000/svg">
<path fill-rule="evenodd" clip-rule="evenodd" d="M16 28.6666C22.9956 28.6666 28.6666 22.9955 28.6666 15.9999C28.6666 9.00431 22.9956 3.33325 16 3.33325C9.00437 3.33325 3.33331 9.00431 3.33331 15.9999C3.33331 22.9955 9.00437 28.6666 16 28.6666ZM30.6666 15.9999C30.6666 24.1001 24.1002 30.6666 16 30.6666C7.8998 30.6666 1.33331 24.1001 1.33331 15.9999C1.33331 7.89974 7.8998 1.33325 16 1.33325C24.1002 1.33325 30.6666 7.89974 30.6666 15.9999Z" fill="#18202A"/>
<path d="M15 12.9999C15 12.4476 15.4477 11.9999 16 11.9999C16.5523 11.9999 17 12.4476 17 12.9999V21.6666C17 22.2189 16.5523 22.6666 16 22.6666C15.4477 22.6666 15 22.2189 15 21.6666V12.9999Z" fill="#18202A"/>
<path d="M13 12.9999C13 12.4476 13.4477 11.9999 14 11.9999H16C16.5523 11.9999 17 12.4476 17 12.9999C17 13.5522 16.5523 13.9999 16 13.9999H14C13.4477 13.9999 13 13.5522 13 12.9999Z" fill="#18202A"/>
<path d="M12.3333 21.6666C12.3333 21.1143 12.781 20.6666 13.3333 20.6666H18.6666C19.2189 20.6666 19.6666 21.1143 19.6666 21.6666C19.6666 22.2189 19.2189 22.6666 18.6666 22.6666H13.3333C12.781 22.6666 12.3333 22.2189 12.3333 21.6666Z" fill="#18202A"/>
<path d="M14.6666 9.33325C14.6666 8.59687 15.2636 7.99992 16 7.99992C16.7364 7.99992 17.3333 8.59687 17.3333 9.33325C17.3333 10.0696 16.7364 10.6666 16 10.6666C15.2636 10.6666 14.6666 10.0696 14.6666 9.33325Z" fill="#18202A"/>
</svg>
