<svg width="32" height="32" viewBox="0 0 32 32" fill="none" xmlns="http://www.w3.org/2000/svg">
<path d="M4.34604 2.92522C3.95108 2.56892 3.34176 2.58099 2.96132 2.96143C2.56842 3.35433 2.56842 3.99135 2.96132 4.38426L6.12126 7.54419C5.08281 8.756 4.273 10.1526 3.73726 11.6666C3.55302 12.1872 3.82574 12.7587 4.34638 12.9429C4.86703 13.1271 5.43846 12.8544 5.6227 12.3338C6.05875 11.1015 6.7094 9.96108 7.54043 8.96336L23.0358 24.4588C21.7036 25.5653 20.1274 26.3429 18.4349 26.7258C16.6226 27.1359 14.7359 27.0802 12.9509 26.5639C11.1659 26.0476 9.54084 25.0875 8.22726 23.7733C8.21988 23.7659 8.21238 23.7586 8.20476 23.7514L3.85783 19.6667H7.99998C8.55227 19.6667 8.99998 19.219 8.99998 18.6667C8.99998 18.1145 8.55227 17.6667 7.99998 17.6667H1.33331C0.781028 17.6667 0.333313 18.1145 0.333313 18.6667V25.3334C0.333313 25.8857 0.781028 26.3334 1.33331 26.3334C1.8856 26.3334 2.33331 25.8857 2.33331 25.3334V20.9786L6.824 25.1984C8.37443 26.7458 10.2908 27.8764 12.3952 28.4851C14.5047 29.0953 16.7344 29.1611 18.8763 28.6765C20.9368 28.2103 22.8513 27.2493 24.4552 25.8781L27.6158 29.0387C28.0087 29.4316 28.6457 29.4316 29.0386 29.0387C29.4191 28.6583 29.4311 28.049 29.0748 27.654L4.34604 2.92522Z" fill="#18202A"/>
<path d="M27.0715 22.8223C27.5539 22.0404 27.9538 21.2066 28.2627 20.3338C28.4469 19.8131 28.1742 19.2417 27.6536 19.0575C27.1329 18.8732 26.5615 19.1459 26.3773 19.6666C26.1693 20.2543 25.9125 20.821 25.6107 21.3614L27.0715 22.8223Z" fill="#18202A"/>
<path d="M10.6417 6.39248C11.5544 5.88438 12.5383 5.50685 13.565 5.27454C15.3774 4.86447 17.2641 4.9202 19.049 5.4365C20.834 5.95281 22.4591 6.91287 23.7727 8.22711C23.7801 8.23451 23.7876 8.24178 23.7952 8.24894L28.1421 12.3334H24C23.4477 12.3334 23 12.7811 23 13.3334C23 13.8857 23.4477 14.3334 24 14.3334H30.6666C31.2189 14.3334 31.6666 13.8857 31.6666 13.3334V6.66675C31.6666 6.11446 31.2189 5.66675 30.6666 5.66675C30.1144 5.66675 29.6666 6.11446 29.6666 6.66675V11.0216L25.1759 6.80192C23.6255 5.25454 21.7091 4.12395 19.6048 3.51526C17.4952 2.90508 15.2655 2.83923 13.1237 3.32385C11.7248 3.64036 10.3932 4.18495 9.18037 4.93112L10.6417 6.39248Z" fill="#18202A"/>
</svg>
