<svg width="32" height="32" viewBox="0 0 32 32" fill="none" xmlns="http://www.w3.org/2000/svg">
<path d="M9.33335 4.6665H14.6667C17.244 4.6665 19.3334 6.75584 19.3334 9.33317V10.6665C19.3334 11.2188 19.7811 11.6665 20.3334 11.6665C20.8856 11.6665 21.3334 11.2188 21.3334 10.6665V9.33317C21.3334 5.65127 18.3486 2.6665 14.6667 2.6665H9.33335C5.65146 2.6665 2.66669 5.65127 2.66669 9.33317V22.6665C2.66669 26.3484 5.65146 29.3332 9.33335 29.3332H14.6667C18.3486 29.3332 21.3334 26.3484 21.3334 22.6665V21.4665C21.3334 20.9142 20.8856 20.4665 20.3334 20.4665C19.7811 20.4665 19.3334 20.9142 19.3334 21.4665V22.6665C19.3334 25.2438 17.244 27.3332 14.6667 27.3332H9.33335C6.75603 27.3332 4.66669 25.2438 4.66669 22.6665V9.33317C4.66669 6.75584 6.75603 4.6665 9.33335 4.6665Z" fill="#18202A"/>
<path fill-rule="evenodd" clip-rule="evenodd" d="M23.2929 11.2927C23.6834 10.9022 24.3166 10.9022 24.7071 11.2927L28.7071 15.2927C29.0977 15.6833 29.0977 16.3164 28.7071 16.7069L24.7071 20.7069C24.3166 21.0975 23.6834 21.0975 23.2929 20.7069C22.9024 20.3164 22.9024 19.6833 23.2929 19.2927L25.5858 16.9998H12C11.4477 16.9998 11 16.5521 11 15.9998C11 15.4476 11.4477 14.9998 12 14.9998H25.5858L23.2929 12.7069C22.9024 12.3164 22.9024 11.6833 23.2929 11.2927Z" fill="#18202A"/>
</svg>
