<svg width="32" height="32" viewBox="0 0 32 32" fill="none" xmlns="http://www.w3.org/2000/svg">
<path fill-rule="evenodd" clip-rule="evenodd" d="M3.36058 15.5196V15.588C3.36058 19.5737 4.93174 22.5652 7.35371 24.5274L8.01692 25.0647L8.28886 28.328L11.6857 26.7602L12.3576 26.9193C13.5056 27.1911 14.7321 27.3335 16.0136 27.3335C23.8269 27.3335 28.6666 21.7725 28.6666 15.588C28.6666 8.16072 23.1285 3.3335 16.0136 3.3335C8.86119 3.3335 2.92601 9.1775 3.3559 15.4513L3.36058 15.5196ZM30.6666 15.588C30.6666 22.8983 24.9102 29.3335 16.0136 29.3335C14.5843 29.3335 13.2029 29.1747 11.8969 28.8655L8.26232 30.543C7.42195 30.9309 6.45171 30.3655 6.37485 29.4431L6.09471 26.0814C3.18428 23.7235 1.36058 20.1511 1.36058 15.588C0.837326 7.95168 7.92097 1.3335 16.0136 1.3335C24.1063 1.3335 30.6666 6.9335 30.6666 15.588Z" fill="#18202A"/>
</svg>
