<svg width="32" height="32" viewBox="0 0 32 32" fill="none" xmlns="http://www.w3.org/2000/svg">
<path fill-rule="evenodd" clip-rule="evenodd" d="M26.2761 5.72378C26.7968 6.24448 26.7968 7.0887 26.2761 7.60939L7.60948 26.2761C7.08878 26.7968 6.24456 26.7968 5.72386 26.2761C5.20316 25.7554 5.20316 24.9111 5.72386 24.3904L24.3905 5.72378C24.9112 5.20308 25.7554 5.20308 26.2761 5.72378Z" fill="#18202A"/>
<path fill-rule="evenodd" clip-rule="evenodd" d="M5.72386 5.72378C6.24456 5.20308 7.08878 5.20308 7.60948 5.72378L26.2761 24.3904C26.7968 24.9111 26.7968 25.7554 26.2761 26.2761C25.7554 26.7968 24.9112 26.7968 24.3905 26.2761L5.72386 7.60939C5.20316 7.0887 5.20316 6.24448 5.72386 5.72378Z" fill="#18202A"/>
</svg>
