<svg width="32" height="32" viewBox="0 0 32 32" fill="none" xmlns="http://www.w3.org/2000/svg">
<path fill-rule="evenodd" clip-rule="evenodd" d="M16.213 4.14435C16.0896 4.04173 15.9105 4.04173 15.787 4.14435L6 12.2771V27.0003C6 27.1844 6.14924 27.3337 6.33333 27.3337H11.6667V19.667C11.6667 18.3783 12.7113 17.3337 14 17.3337H18C19.2887 17.3337 20.3333 18.3783 20.3333 19.667V27.3337H25.6667C25.8508 27.3337 26 27.1844 26 27.0003V12.277L16.213 4.14435ZM28 13.939L30.0276 15.6238C30.4523 15.9768 31.0828 15.9186 31.4358 15.4938C31.7888 15.0691 31.7306 14.4386 31.3058 14.0856L17.4913 2.60612C16.6268 1.8878 15.3732 1.8878 14.5087 2.60612L0.694226 14.0856C0.269457 14.4386 0.211253 15.0691 0.564225 15.4938C0.917197 15.9186 1.54768 15.9768 1.97245 15.6238L4 13.939V27.0003C4 28.289 5.04467 29.3337 6.33333 29.3337H25.6667C26.9553 29.3337 28 28.289 28 27.0003V13.939ZM18.3333 27.3337V19.667C18.3333 19.4829 18.1841 19.3337 18 19.3337H14C13.8159 19.3337 13.6667 19.4829 13.6667 19.667V27.3337H18.3333Z" fill="#18202A"/>
</svg>
