<svg width="32" height="32" viewBox="0 0 32 32" fill="none" xmlns="http://www.w3.org/2000/svg">
<g clip-path="url(#clip0_2294_13761)">
<path fill-rule="evenodd" clip-rule="evenodd" d="M21.3333 7.16634C21.3333 11.333 19.5555 14.6663 16 14.6663C12.4444 14.6663 10.6666 11.333 10.6666 7.16634C10.6666 3.83301 12.4444 1.33301 16 1.33301C19.5555 1.33301 21.3333 3.83301 21.3333 7.16634ZM19.3333 7.16634C19.3333 9.00382 18.9355 10.4558 18.328 11.3813C17.7743 12.2249 17.0434 12.6663 16 12.6663C14.9566 12.6663 14.2257 12.2249 13.672 11.3813C13.0644 10.4558 12.6666 9.00382 12.6666 7.16634C12.6666 5.83323 13.0227 4.88228 13.5214 4.29791C13.9815 3.75872 14.728 3.33301 16 3.33301C17.272 3.33301 18.0185 3.75872 18.4786 4.29791C18.9773 4.88228 19.3333 5.83323 19.3333 7.16634ZM15.0628 28.6468C15.4126 29.3683 15.8412 30.0444 16.3376 30.664C16.2253 30.6656 16.1127 30.6663 16 30.6663C13.9368 30.6663 11.9344 30.406 10.0239 29.9164C8.39848 29.4998 7.0209 28.4111 6.26645 26.9123C6.04281 26.4681 5.83424 26.0149 5.64141 25.5536C4.82207 23.5932 5.1486 21.2996 6.66574 19.812C9.07082 17.4538 12.3656 15.9997 16 15.9997C16.5125 15.9997 17.0183 16.0286 17.5157 16.0849C16.8862 16.654 16.3249 17.2972 15.8455 18.0007C12.8169 18.0411 10.0782 19.2671 8.06596 21.2401C7.20751 22.0818 6.94084 23.4762 7.48673 24.7823C7.66136 25.2002 7.85028 25.6106 8.05287 26.0131C8.54131 26.9834 9.44125 27.7024 10.5204 27.979C11.98 28.353 13.4994 28.5814 15.0628 28.6468ZM23.5778 15.9997C23.0953 15.9997 22.6817 16.3441 22.5943 16.8186L22.4115 17.8116C21.6115 18.0881 20.8819 18.5153 20.2565 19.0592L19.3015 18.7198C18.8469 18.5582 18.3418 18.7442 18.1005 19.162L17.1332 20.8374C16.892 21.2552 16.9835 21.7857 17.3507 22.0986L18.1228 22.7563C18.0453 23.1589 18.0048 23.5745 18.0048 23.9997C18.0048 24.4248 18.0454 24.8405 18.1228 25.243L17.3507 25.9008C16.9835 26.2137 16.892 26.7442 17.1333 27.162L18.1005 28.8374C18.3418 29.2552 18.8469 29.4412 19.3015 29.2796L20.2565 28.9401C20.8819 29.4841 21.6115 29.9113 22.4115 30.1877L22.5943 31.1807C22.6817 31.6552 23.0953 31.9997 23.5778 31.9997H25.5124C25.9948 31.9997 26.4085 31.6552 26.4958 31.1807L26.6779 30.1916C27.4809 29.9157 28.2134 29.488 28.841 28.9427L29.7887 29.2796C30.2433 29.4412 30.7484 29.2552 30.9896 28.8374L31.9569 27.162C32.1982 26.7442 32.1067 26.2137 31.7394 25.9008L30.9763 25.2506C31.0547 24.8457 31.0957 24.4275 31.0957 23.9997C31.0957 23.5719 31.0547 23.1537 30.9763 22.7488L31.7394 22.0986C32.1067 21.7857 32.1982 21.2552 31.9569 20.8374L30.9897 19.162C30.7484 18.7442 30.2433 18.5582 29.7887 18.7198L28.841 19.0566C28.2134 18.5114 27.481 18.0837 26.6779 17.8078L26.4958 16.8186C26.4085 16.3441 25.9948 15.9997 25.5124 15.9997H23.5778ZM24.5442 26.6663C26.017 26.6663 27.2109 25.4724 27.2109 23.9997C27.2109 22.5269 26.017 21.333 24.5442 21.333C23.0715 21.333 21.8775 22.5269 21.8775 23.9997C21.8775 25.4724 23.0715 26.6663 24.5442 26.6663Z" fill="#18202A"/>
</g>
<defs>
<clipPath id="clip0_2294_13761">
<rect width="32" height="32" fill="white"/>
</clipPath>
</defs>
</svg>
