<svg width="32" height="32" viewBox="0 0 32 32" fill="none" xmlns="http://www.w3.org/2000/svg">
<g clip-path="url(#clip0_3923_8889)">
<path d="M22.6667 3.33301C24.5077 3.33301 26.0001 4.82539 26.0001 6.66634V25.333C26.0001 27.174 24.5077 28.6663 22.6667 28.6663H13C12.4477 28.6663 12 29.1141 12 29.6663C12 30.2186 12.4477 30.6663 13 30.6663H22.6667C25.6123 30.6663 28.0001 28.2785 28.0001 25.333V6.66634C28.0001 3.72082 25.6123 1.33301 22.6667 1.33301H9.33342C6.3879 1.33301 4.00008 3.72082 4.00008 6.66634V13.6663C4.00008 14.2186 4.4478 14.6663 5.00008 14.6663C5.55237 14.6663 6.00008 14.2186 6.00008 13.6663L6.00008 6.66634C6.00008 4.82539 7.49247 3.33301 9.33342 3.33301L22.6667 3.33301Z" fill="#18202A"/>
<path d="M16 13.6663C16 13.1141 16.4477 12.6663 17 12.6663H23C23.5523 12.6663 24 13.1141 24 13.6663C24 14.2186 23.5523 14.6663 23 14.6663H17C16.4477 14.6663 16 14.2186 16 13.6663Z" fill="#18202A"/>
<path d="M18.6667 19.6663C18.6667 19.1141 19.1144 18.6663 19.6667 18.6663H23C23.5523 18.6663 24 19.1141 24 19.6663C24 20.2186 23.5523 20.6663 23 20.6663H19.6667C19.1144 20.6663 18.6667 20.2186 18.6667 19.6663Z" fill="#18202A"/>
<path d="M10.6667 7.66634C10.6667 7.11406 11.1144 6.66634 11.6667 6.66634H23C23.5523 6.66634 24 7.11406 24 7.66634C24 8.21863 23.5523 8.66634 23 8.66634H11.6667C11.1144 8.66634 10.6667 8.21863 10.6667 7.66634Z" fill="#18202A"/>
<path d="M11.6679 17.3337C11.8509 17.3337 11.9992 17.4843 11.9992 17.67L12 24.5945C12 24.8942 11.6431 25.0444 11.4344 24.8324L9.58379 22.9534C9.4544 22.822 9.24292 22.8234 9.11506 22.9563C6.24954 25.9353 5.95453 27.614 6.50766 30.2589C6.5778 30.5943 6.18478 30.8128 5.96853 30.5494C2.56251 26.4013 4.13896 22.7519 6.46763 20.265C6.59372 20.1303 6.59403 19.9177 6.46464 19.7863L4.61402 17.9073C4.40528 17.6954 4.55313 17.333 4.84833 17.333L11.6679 17.3337Z" fill="#18202A"/>
</g>
<defs>
<clipPath id="clip0_3923_8889">
<rect width="32" height="32" fill="white"/>
</clipPath>
</defs>
</svg>
