<svg width="32" height="32" viewBox="0 0 32 32" fill="none" xmlns="http://www.w3.org/2000/svg">
<path fill-rule="evenodd" clip-rule="evenodd" d="M24 30.6667H18.8334C18.0049 30.6667 17.3334 29.9951 17.3334 29.1667V18.8333C17.3334 18.0049 18.0049 17.3333 18.8334 17.3333H29.1667C29.9951 17.3333 30.6667 18.0049 30.6667 18.8333V24C30.6667 27.6819 27.6819 30.6667 24 30.6667ZM30.6667 13.1667C30.6667 13.9951 29.9951 14.6667 29.1667 14.6667H18.8334C18.0049 14.6667 17.3334 13.9951 17.3334 13.1667V2.83333C17.3334 2.0049 18.0049 1.33333 18.8334 1.33333H24C27.6819 1.33333 30.6667 4.3181 30.6667 8V13.1667ZM8.00004 1.33333H13.1667C13.9951 1.33333 14.6667 2.0049 14.6667 2.83333V29.1667C14.6667 29.9951 13.9951 30.6667 13.1667 30.6667H8.00004C4.31814 30.6667 1.33337 27.6819 1.33337 24V8C1.33337 4.3181 4.31814 1.33333 8.00004 1.33333Z" fill="#18202A"/>
</svg>
