<svg width="32" height="32" viewBox="0 0 32 32" fill="none" xmlns="http://www.w3.org/2000/svg">
<path d="M8 2.66683C8 1.93045 8.59695 1.3335 9.33333 1.3335H22.6667C23.403 1.3335 24 1.93045 24 2.66683C24 3.40321 23.403 4.00016 22.6667 4.00016H9.33333C8.59695 4.00016 8 3.40321 8 2.66683Z" fill="#18202A"/>
<path d="M6.66666 5.3335C5.93028 5.3335 5.33333 5.93045 5.33333 6.66683C5.33333 7.40321 5.93028 8.00016 6.66666 8.00016H25.3333C26.0697 8.00016 26.6667 7.40321 26.6667 6.66683C26.6667 5.93045 26.0697 5.3335 25.3333 5.3335H6.66666Z" fill="#18202A"/>
<path fill-rule="evenodd" clip-rule="evenodd" d="M6.66666 9.3335C3.72114 9.3335 1.33333 11.7213 1.33333 14.6668V24.0002C1.33333 27.6821 4.3181 30.6668 8 30.6668H24C27.6819 30.6668 30.6667 27.6821 30.6667 24.0002V14.6668C30.6667 11.7213 28.2788 9.3335 25.3333 9.3335H6.66666ZM12 16.5927C12 15.6258 13.045 15.0286 13.8664 15.526L19.4817 18.9268C20.2794 19.41 20.2794 20.577 19.4817 21.0602L13.8665 24.461C13.045 24.9585 12 24.3612 12 23.3943V16.5927Z" fill="#18202A"/>
</svg>
