<svg width="32" height="32" viewBox="0 0 32 32" fill="none" xmlns="http://www.w3.org/2000/svg">
<path fill-rule="evenodd" clip-rule="evenodd" d="M30.5231 17.5749C30.6181 16.9229 30.6667 16.2591 30.6667 15.588C30.6667 6.9335 24.1063 1.3335 16.0136 1.3335C7.92098 1.3335 0.837341 7.95168 1.3606 15.588C1.3606 20.1511 3.18429 23.7235 6.09473 26.0814L6.37487 29.4431C6.45173 30.3655 7.42196 30.9309 8.26234 30.543L11.8969 28.8655C13.2029 29.1747 14.5844 29.3335 16.0136 29.3335C16.3086 29.3335 16.6002 29.3264 16.8882 29.3125C16.3185 28.1055 16 26.7567 16 25.3335C16 21.7433 18.0271 18.6266 20.9991 17.0654C20.4018 16.7195 20 16.0734 20 15.3335C20 14.2289 20.8954 13.3335 22 13.3335C23.1046 13.3335 24 14.2289 24 15.3335C24 15.6123 23.9429 15.8779 23.8398 16.119C24.3261 16.0408 24.825 16.0002 25.3333 16.0002C27.254 16.0002 29.0392 16.5803 30.5231 17.5749ZM9.99999 17.3335C11.1046 17.3335 12 16.4381 12 15.3335C12 14.2289 11.1046 13.3335 9.99999 13.3335C8.89542 13.3335 7.99999 14.2289 7.99999 15.3335C7.99999 16.4381 8.89542 17.3335 9.99999 17.3335ZM18 15.3335C18 16.4381 17.1046 17.3335 16 17.3335C14.8954 17.3335 14 16.4381 14 15.3335C14 14.2289 14.8954 13.3335 16 13.3335C17.1046 13.3335 18 14.2289 18 15.3335Z" fill="#18202A"/>
<path fill-rule="evenodd" clip-rule="evenodd" d="M25.3333 32.0002C29.0152 32.0002 32 29.0154 32 25.3335C32 21.6516 29.0152 18.6668 25.3333 18.6668C21.6514 18.6668 18.6667 21.6516 18.6667 25.3335C18.6667 29.0154 21.6514 32.0002 25.3333 32.0002ZM29.4259 23.9843C29.7853 23.565 29.7368 22.9337 29.3174 22.5742C28.8981 22.2148 28.2668 22.2634 27.9074 22.6827L24.5171 26.638L22.6 25.2002C22.1581 24.8688 21.5313 24.9583 21.2 25.4002C20.8686 25.842 20.9581 26.4688 21.4 26.8002L24.0666 28.8002C24.4883 29.1164 25.0829 29.0511 25.4259 28.651L29.4259 23.9843Z" fill="#18202A"/>
</svg>
