<svg width="32" height="32" viewBox="0 0 32 32" fill="none" xmlns="http://www.w3.org/2000/svg">
<path fill-rule="evenodd" clip-rule="evenodd" d="M16 14.6663C19.5556 14.6663 21.3333 11.333 21.3333 7.16634C21.3333 3.83301 19.5556 1.33301 16 1.33301C12.4444 1.33301 10.6667 3.83301 10.6667 7.16634C10.6667 11.333 12.4444 14.6663 16 14.6663ZM16.0001 17.333C17.297 17.333 18.5507 17.5182 19.7361 17.8635C17.4676 19.5662 16 22.2782 16 25.333C16 27.2921 16.6036 29.1102 17.635 30.6115C17.0947 30.6479 16.5495 30.6663 16 30.6663C13.9368 30.6663 11.9344 30.406 10.0239 29.9164C8.39852 29.4998 7.02094 28.4111 6.26648 26.9123C6.2456 26.8709 6.22484 26.8293 6.20422 26.7876C5.16126 24.6815 5.51592 22.1012 7.29556 20.5661C9.63129 18.5513 12.6734 17.333 16.0001 17.333ZM25.3333 29.333C27.5425 29.333 29.3333 27.5421 29.3333 25.333C29.3333 24.7153 29.1933 24.1303 28.9433 23.608L23.6085 28.9431C24.1308 29.193 24.7157 29.333 25.3333 29.333ZM27.0574 21.7226L21.723 27.0573C21.4732 26.5352 21.3333 25.9504 21.3333 25.333C21.3333 23.1239 23.1242 21.333 25.3333 21.333C25.9507 21.333 26.5354 21.4729 27.0574 21.7226ZM25.3333 31.9997C29.0152 31.9997 32 29.0149 32 25.333C32 21.6511 29.0152 18.6663 25.3333 18.6663C21.6514 18.6663 18.6667 21.6511 18.6667 25.333C18.6667 29.0149 21.6514 31.9997 25.3333 31.9997Z" fill="#18202A"/>
</svg>
