<svg width="32" height="32" viewBox="0 0 32 32" fill="none" xmlns="http://www.w3.org/2000/svg">
<g clip-path="url(#clip0_3906_9124)">
<path fill-rule="evenodd" clip-rule="evenodd" d="M1.33337 9.33333C1.33337 6.38781 3.72119 4 6.66671 4H11.6765C12.7374 4 13.7548 4.42143 14.5049 5.17157L16 6.66667H25.3334C28.2789 6.66667 30.6667 9.05448 30.6667 12V22.6667C30.6667 25.6122 28.2789 28 25.3334 28H6.66671C3.72119 28 1.33337 25.6122 1.33337 22.6667V9.33333ZM22 16.7273C23.5988 16.7273 24.3982 15.2121 24.3982 13.3182C24.3982 11.803 23.5988 10.6667 22 10.6667C20.4012 10.6667 19.6018 11.803 19.6018 13.3182C19.6018 15.2121 20.4012 16.7273 22 16.7273ZM18.086 19.409C18.2531 19.2632 18.4283 19.1266 18.6108 19C19.5749 18.3309 20.7422 17.9394 22.0001 17.9394C23.0186 17.9394 23.9778 18.1961 24.8179 18.6491C25.2115 18.8614 25.579 19.1167 25.9141 19.4089C26.0081 19.4909 26.0933 19.5794 26.1696 19.6734C26.7432 20.3793 26.8188 21.392 26.4049 22.2369L26.3911 22.265L26.3769 22.2936C26.0376 22.9749 25.4181 23.4698 24.6873 23.6591C23.8282 23.8817 22.9278 24 22 24C21.0723 24 20.1719 23.8817 19.3128 23.6591C18.5819 23.4698 17.9625 22.9749 17.6232 22.2936L17.5952 22.237C17.3515 21.7394 17.2775 21.1837 17.375 20.6667C17.4651 20.1888 17.7016 19.7441 18.086 19.409Z" fill="#18202A"/>
</g>
<defs>
<clipPath id="clip0_3906_9124">
<rect width="32" height="32" fill="white"/>
</clipPath>
</defs>
</svg>
