<svg width="32" height="32" viewBox="0 0 32 32" fill="none" xmlns="http://www.w3.org/2000/svg">
<path fill-rule="evenodd" clip-rule="evenodd" d="M18.6667 6H5.33333C3.49238 6 2 7.49238 2 9.33333V22.6667C2 24.5076 3.49238 26 5.33333 26H18.6667C20.5076 26 22 24.5076 22 22.6667V9.33333C22 7.49238 20.5076 6 18.6667 6ZM5.33333 4C2.38781 4 0 6.38781 0 9.33333V22.6667C0 25.6122 2.38781 28 5.33333 28H18.6667C21.6122 28 24 25.6122 24 22.6667V9.33333C24 6.38781 21.6122 4 18.6667 4H5.33333Z" fill="#18202A"/>
<path fill-rule="evenodd" clip-rule="evenodd" d="M27.3333 12.4911V19.5089L30 21.4289V10.5711L27.3333 12.4911ZM25.8876 11.0676C25.5396 11.3182 25.3333 11.7208 25.3333 12.1496V19.8504C25.3333 20.2792 25.5396 20.6818 25.8876 20.9324L29.8876 23.8124C30.7696 24.4474 32 23.8172 32 22.7304V9.26965C32 8.18285 30.7696 7.55258 29.8876 8.1876L25.8876 11.0676Z" fill="#18202A"/>
</svg>
