<svg width="32" height="32" viewBox="0 0 32 32" fill="none" xmlns="http://www.w3.org/2000/svg">
<g clip-path="url(#clip0_2293_22434)">
<path fill-rule="evenodd" clip-rule="evenodd" d="M7.99998 2.33334C7.99998 1.78106 8.4477 1.33334 8.99998 1.33334C9.55226 1.33334 9.99998 1.78106 9.99998 2.33334V4.00001H22V2.33334C22 1.78106 22.4477 1.33334 23 1.33334C23.5523 1.33334 24 1.78106 24 2.33334V4.00001H25.3333C28.2788 4.00001 30.6666 6.38783 30.6666 9.33334V16.5463C30.0617 16.0049 29.3905 15.536 28.6666 15.1534V9.33334C28.6666 7.49239 27.1743 6.00001 25.3333 6.00001H24V8.33334C24 8.88563 23.5523 9.33334 23 9.33334C22.4477 9.33334 22 8.88563 22 8.33334V6.00001H9.99998V8.33334C9.99998 8.88563 9.55226 9.33334 8.99998 9.33334C8.4477 9.33334 7.99998 8.88563 7.99998 8.33334V6.00001H6.66665C4.8257 6.00001 3.33331 7.49239 3.33331 9.33334V25.3333C3.33331 27.1743 4.8257 28.6667 6.66665 28.6667H15.1534C15.536 29.3905 16.0049 30.0618 16.5463 30.6667H6.66665C3.72113 30.6667 1.33331 28.2789 1.33331 25.3333V9.33334C1.33331 6.38783 3.72113 4.00001 6.66665 4.00001H7.99998V2.33334ZM24.3333 14H24.0044L24 14L23.9956 14H7.66665C7.11436 14 6.66665 13.5523 6.66665 13C6.66665 12.4477 7.11436 12 7.66665 12H24.3333C24.8856 12 25.3333 12.4477 25.3333 13C25.3333 13.5523 24.8856 14 24.3333 14ZM13.3333 22.6667C13.6021 22.6667 13.8523 22.7462 14.0617 22.883C14.0209 23.2497 14 23.6224 14 24C14 24.3776 14.0209 24.7503 14.0617 25.117C13.8523 25.2538 13.6021 25.3333 13.3333 25.3333C12.5969 25.3333 12 24.7364 12 24C12 23.2636 12.5969 22.6667 13.3333 22.6667ZM7.99998 17.3333C7.2636 17.3333 6.66665 17.9303 6.66665 18.6667C6.66665 19.4031 7.2636 20 7.99998 20C8.73636 20 9.33331 19.4031 9.33331 18.6667C9.33331 17.9303 8.73636 17.3333 7.99998 17.3333ZM6.66665 24C6.66665 23.2636 7.2636 22.6667 7.99998 22.6667C8.73636 22.6667 9.33331 23.2636 9.33331 24C9.33331 24.7364 8.73636 25.3333 7.99998 25.3333C7.2636 25.3333 6.66665 24.7364 6.66665 24ZM13.3333 17.3333C12.5969 17.3333 12 17.9303 12 18.6667C12 19.4031 12.5969 20 13.3333 20C14.0697 20 14.6666 19.4031 14.6666 18.6667C14.6666 17.9303 14.0697 17.3333 13.3333 17.3333ZM32 24C32 28.4183 28.4183 32 24 32C19.5817 32 16 28.4183 16 24C16 19.5817 19.5817 16 24 16C28.4183 16 32 19.5817 32 24ZM24 19.6667C24.5523 19.6667 25 20.1144 25 20.6667V23.5858L26.7071 25.2929C27.0976 25.6834 27.0976 26.3166 26.7071 26.7071C26.3166 27.0976 25.6834 27.0976 25.2929 26.7071L23.2929 24.7071C23.1053 24.5196 23 24.2652 23 24V20.6667C23 20.1144 23.4477 19.6667 24 19.6667Z" fill="#18202A"/>
</g>
<defs>
<clipPath id="clip0_2293_22434">
<rect width="32" height="32" fill="white"/>
</clipPath>
</defs>
</svg>
