<svg width="32" height="32" viewBox="0 0 32 32" fill="none" xmlns="http://www.w3.org/2000/svg">
<path d="M22.023 11.2757C22.4229 11.6566 22.4384 12.2896 22.0575 12.6895L14.4384 20.6895C14.2434 20.8943 13.9708 21.0069 13.6881 20.9995C13.4054 20.9921 13.1391 20.8653 12.955 20.6506L9.90743 17.0951C9.54801 16.6757 9.59657 16.0444 10.0159 15.685C10.4352 15.3256 11.0665 15.3742 11.4259 15.7935L13.7534 18.5088L20.6092 11.3102C20.9901 10.9103 21.6231 10.8948 22.023 11.2757Z" fill="#18202A"/>
<path fill-rule="evenodd" clip-rule="evenodd" d="M5.33335 2.6665C3.86059 2.6665 2.66669 3.86041 2.66669 5.33317V26.6665C2.66669 28.1393 3.86059 29.3332 5.33335 29.3332H26.6667C28.1394 29.3332 29.3334 28.1393 29.3334 26.6665V5.33317C29.3334 3.86041 28.1394 2.6665 26.6667 2.6665H5.33335ZM27.3334 5.33317C27.3334 4.96498 27.0349 4.6665 26.6667 4.6665H5.33335C4.96516 4.6665 4.66669 4.96498 4.66669 5.33317V26.6665C4.66669 27.0347 4.96516 27.3332 5.33335 27.3332H26.6667C27.0349 27.3332 27.3334 27.0347 27.3334 26.6665V5.33317Z" fill="#18202A"/>
</svg>
