<svg width="32" height="32" viewBox="0 0 32 32" fill="none" xmlns="http://www.w3.org/2000/svg">
<path d="M5.33329 6.66659C5.33329 5.93021 4.73634 5.33325 3.99996 5.33325C3.26358 5.33325 2.66663 5.93021 2.66663 6.66659V25.3333C2.66663 26.0696 3.26358 26.6666 3.99996 26.6666C4.73634 26.6666 5.33329 26.0696 5.33329 25.3333V17.3333L16 17.3333V25.3333C16 26.0696 16.5969 26.6666 17.3333 26.6666C18.0697 26.6666 18.6666 26.0696 18.6666 25.3333V6.66659C18.6666 5.93021 18.0697 5.33325 17.3333 5.33325C16.5969 5.33325 16 5.93021 16 6.66659V14.6666L5.33329 14.6666V6.66659Z" fill="#18202A"/>
<path d="M23.9999 17.3333C23.9999 16.9217 24.5361 15.9999 25.9999 15.9999C27.3583 15.9999 27.9999 16.8276 27.9999 17.6666C27.9999 17.9857 27.954 18.3482 27.6966 18.8344C27.4245 19.3482 26.8869 20.0539 25.8058 20.9817L21.813 24.309C21.3818 24.6683 21.2218 25.2593 21.4129 25.7872C21.604 26.315 22.1053 26.6666 22.6666 26.6666H29.3333C30.0697 26.6666 30.6666 26.0696 30.6666 25.3333C30.6666 24.5969 30.0697 23.9999 29.3333 23.9999H26.3493L27.5203 23.0243L27.5343 23.0123C28.7819 21.9429 29.5759 20.9838 30.0533 20.0821C30.5459 19.1517 30.6666 18.3475 30.6666 17.6666C30.6666 15.1722 28.6416 13.3333 25.9999 13.3333C23.4638 13.3333 21.3333 15.0781 21.3333 17.3333C21.3333 18.0696 21.9302 18.6666 22.6666 18.6666C23.403 18.6666 23.9999 18.0696 23.9999 17.3333Z" fill="#18202A"/>
</svg>
