<svg width="32" height="32" viewBox="0 0 32 32" fill="none" xmlns="http://www.w3.org/2000/svg">
<g clip-path="url(#clip0_2294_10033)">
<path fill-rule="evenodd" clip-rule="evenodd" d="M0 8C0 3.58172 3.58172 0 8 0H24C28.4183 0 32 3.58172 32 8V24C32 28.4183 28.4183 32 24 32H8C3.58172 32 0 28.4183 0 24V8ZM4 16C4 9.37258 9.37258 4 16 4C22.6274 4 28 9.37258 28 16C28 22.6274 22.6274 28 16 28C9.37258 28 4 22.6274 4 16ZM21.3487 13.4444C21.3599 13.5444 21.3599 13.6556 21.3599 13.7556C21.3599 13.8556 21.3599 13.9556 21.3487 14.0556V18C21.3466 18.1362 21.3449 18.2521 21.3435 18.3514C21.3371 18.7866 21.3354 18.9025 21.3262 19.0111C21.3038 19.3778 21.2588 19.7222 21.2026 20.0222C21.0566 20.7556 20.7645 21.4111 20.3375 21.9556C19.3038 23.3111 17.8095 24 15.9107 24C14.5624 24 13.3714 23.6556 12.3715 22.9778C11.3266 22.2667 10.6187 21.2667 10.2367 20.0111H12.4052C13.0681 21.4556 14.2141 22.1556 15.8995 22.1556C16.9893 22.1556 17.8095 21.8444 18.4387 21.2C19.0454 20.5667 19.3488 19.7222 19.3488 18.6444V18.1111C18.3263 18.9889 17.0005 19.5111 15.5511 19.5111C12.3378 19.5111 9.73112 16.9333 9.73112 13.7556C9.73112 10.5778 12.3378 8 15.5511 8C16.9893 8 18.3151 8.52222 19.3263 9.38889V8H21.3487V13.4444ZM11.7648 13.7444C11.7648 15.8111 13.4613 17.4889 15.5511 17.4889C17.6297 17.4889 19.3263 15.8111 19.3375 13.7444C19.3375 11.6778 17.641 10 15.5511 10C13.4613 10 11.7648 11.6778 11.7648 13.7444Z" fill="#18202A"/>
</g>
<defs>
<clipPath id="clip0_2294_10033">
<rect width="32" height="32" fill="white"/>
</clipPath>
</defs>
</svg>
