<svg width="32" height="32" viewBox="0 0 32 32" fill="none" xmlns="http://www.w3.org/2000/svg">
<g clip-path="url(#clip0_3352_8909)">
<path d="M16 17.3333L13.3334 13.3333H10.6667L14.6667 19.3333L10.6667 25.3333H13.3334L16 21.3333L18.6667 25.3333H21.3334L17.3334 19.3333L21.3334 13.3333H18.6667L16 17.3333Z" fill="#18202A"/>
<path fill-rule="evenodd" clip-rule="evenodd" d="M2.66669 2.66667C2.66669 1.19391 3.86059 0 5.33335 0H20.8954C21.6027 0 22.281 0.280952 22.7811 0.781049L28.5523 6.55228C29.0524 7.05238 29.3334 7.73066 29.3334 8.4379V29.3333C29.3334 30.8061 28.1394 32 26.6667 32H5.33335C3.86059 32 2.66669 30.8061 2.66669 29.3333V2.66667ZM5.33335 30C4.96516 30 4.66669 29.7015 4.66669 29.3333V2.66667C4.66669 2.29848 4.96516 2 5.33335 2H20.0065L20 7.20811C20 7.77176 20.2238 8.31231 20.622 8.71087C21.0203 9.10943 21.5605 9.33333 22.1237 9.33333L27.3334 9.32672V29.3333C27.3334 29.7015 27.0349 30 26.6667 30H5.33335Z" fill="#18202A"/>
</g>
<defs>
<clipPath id="clip0_3352_8909">
<rect width="32" height="32" fill="white"/>
</clipPath>
</defs>
</svg>
