<svg width="32" height="32" viewBox="0 0 32 32" fill="none" xmlns="http://www.w3.org/2000/svg">
<g clip-path="url(#clip0_3444_9420)">
<path d="M23.1382 3.52835C21.405 1.79524 18.5951 1.79524 16.862 3.52835L16.4713 3.91901L22.7475 10.1952L23.1381 9.80449C24.8713 8.07138 24.8713 5.26146 23.1382 3.52835Z" fill="#18202A"/>
<path d="M3.54232 16.1817L14.5586 5.7775L20.8351 12.054L9.79115 22.4844C9.70562 22.5652 9.60023 22.6219 9.48568 22.6488L2.82106 24.2125C2.14045 24.3722 1.53235 23.7545 1.70265 23.0765L3.35349 16.504C3.38444 16.3808 3.44995 16.269 3.54232 16.1817Z" fill="#18202A"/>
<path d="M16.0762 22.0022C16.5812 22.0311 17.0263 22.3432 17.2256 22.8081L18.7061 26.2626C18.8111 26.5077 19.0521 26.6667 19.3188 26.6667H19.3479C19.6146 26.6667 19.8556 26.5077 19.9607 26.2626L21.4412 22.8081C21.6404 22.3432 22.0856 22.0311 22.5906 22.0022C23.0956 21.9733 23.5734 22.2326 23.8244 22.6718L25.5313 25.6589C25.8874 26.2821 26.5501 26.6667 27.2678 26.6667H29.3334C30.0698 26.6667 30.6667 27.2636 30.6667 28C30.6667 28.7364 30.0698 29.3333 29.3334 29.3333H27.2678C25.5931 29.3333 24.0468 28.436 23.216 26.982L22.8375 26.3196L22.4117 27.3131C21.8865 28.5387 20.6813 29.3333 19.3479 29.3333H19.3188C17.9854 29.3333 16.7803 28.5387 16.255 27.3131L15.8293 26.3196L15.4508 26.982C14.6199 28.436 13.0736 29.3333 11.399 29.3333H2.66671C1.93033 29.3333 1.33337 28.7364 1.33337 28C1.33337 27.2636 1.93033 26.6667 2.66671 26.6667H11.399C12.1167 26.6667 12.7794 26.2821 13.1355 25.6589L14.8424 22.6718C15.0933 22.2326 15.5712 21.9733 16.0762 22.0022Z" fill="#18202A"/>
</g>
<defs>
<clipPath id="clip0_3444_9420">
<rect width="32" height="32" fill="white"/>
</clipPath>
</defs>
</svg>
