<svg width="32" height="32" viewBox="0 0 32 32" fill="none" xmlns="http://www.w3.org/2000/svg">
<path d="M16 9.33333C14.5272 9.33333 13.3333 8.13943 13.3333 6.66667C13.3333 5.19391 14.5272 4 16 4C17.4728 4 18.6667 5.19391 18.6667 6.66667C18.6667 8.13943 17.4728 9.33333 16 9.33333Z" fill="#18202A"/>
<path d="M16 18.6667C14.5272 18.6667 13.3333 17.4728 13.3333 16C13.3333 14.5272 14.5272 13.3333 16 13.3333C17.4728 13.3333 18.6667 14.5272 18.6667 16C18.6667 17.4728 17.4728 18.6667 16 18.6667Z" fill="#18202A"/>
<path d="M16 28C14.5272 28 13.3333 26.8061 13.3333 25.3333C13.3333 23.8606 14.5272 22.6667 16 22.6667C17.4728 22.6667 18.6667 23.8606 18.6667 25.3333C18.6667 26.8061 17.4728 28 16 28Z" fill="#18202A"/>
</svg>
