<svg width="48" height="48" viewBox="0 0 48 48" fill="none" xmlns="http://www.w3.org/2000/svg">
<path d="M13.9393 13.9393C14.5251 13.3536 15.4749 13.3536 16.0607 13.9393L24 21.8787L31.9393 13.9393C32.5251 13.3536 33.4749 13.3536 34.0607 13.9393C34.6464 14.5251 34.6464 15.4749 34.0607 16.0607L26.1213 24L34.0607 31.9393C34.6464 32.5251 34.6464 33.4749 34.0607 34.0607C33.4749 34.6464 32.5251 34.6464 31.9393 34.0607L24 26.1213L16.0607 34.0607C15.4749 34.6464 14.5251 34.6464 13.9393 34.0607C13.3536 33.4749 13.3536 32.5251 13.9393 31.9393L21.8787 24L13.9393 16.0607C13.3536 15.4749 13.3536 14.5251 13.9393 13.9393Z" fill="#18202A"/>
<path fill-rule="evenodd" clip-rule="evenodd" d="M12 4C7.58172 4 4 7.58172 4 12V36C4 40.4183 7.58172 44 12 44H36C40.4183 44 44 40.4183 44 36V12C44 7.58172 40.4183 4 36 4H12ZM41 12C41 9.23858 38.7614 7 36 7H12C9.23858 7 7 9.23858 7 12V36C7 38.7614 9.23858 41 12 41H36C38.7614 41 41 38.7614 41 36V12Z" fill="#18202A"/>
</svg>
