<svg width="48" height="48" viewBox="0 0 48 48" fill="none" xmlns="http://www.w3.org/2000/svg">
<path d="M16 12H44.1136C45.7404 12 46.6866 13.8387 45.7411 15.1625L38.8303 24.8375C38.3336 25.5329 38.3336 26.4671 38.8303 27.1625L45.7411 36.8375C46.6866 38.1613 45.7404 40 44.1136 40H20C17.7909 40 16 38.2091 16 36V12Z" fill="#18202A"/>
<path d="M2 6H24C27.3137 6 30 8.68629 30 12V28C30 30.2091 28.2091 32 26 32H2V6Z" fill="#18202A"/>
<path d="M2 4C2 2.89543 2.89543 2 4 2C5.10457 2 6 2.89543 6 4V44C6 45.1046 5.10457 46 4 46C2.89543 46 2 45.1046 2 44V4Z" fill="#18202A"/>
</svg>
