<svg width="48" height="48" viewBox="0 0 48 48" fill="none" xmlns="http://www.w3.org/2000/svg">
<path fill-rule="evenodd" clip-rule="evenodd" d="M6 17.4649C4.8044 16.7733 4 15.4806 4 14V8C4 5.79086 5.79086 4 8 4H40C42.2091 4 44 5.79086 44 8V14C44 15.4806 43.1956 16.7733 42 17.4649V25.627C41.0437 25.3181 40.0389 25.1169 39 25.0379V18H9V38C9 40.7614 11.2386 43 14 43H25.9963C26.4474 44.0818 27.0405 45.0895 27.7523 46H14C9.58172 46 6 42.4183 6 38V17.4649ZM7 8C7 7.44772 7.44772 7 8 7H40C40.5523 7 41 7.44772 41 8V14C41 14.5523 40.5523 15 40 15H8C7.44771 15 7 14.5523 7 14V8ZM16 23.5C16 22.6716 16.6716 22 17.5 22H30.5C31.3284 22 32 22.6716 32 23.5C32 24.3284 31.3284 25 30.5 25H17.5C16.6716 25 16 24.3284 16 23.5ZM48 38C48 43.5228 43.5228 48 38 48C32.4772 48 28 43.5228 28 38C28 32.4772 32.4772 28 38 28C43.5228 28 48 32.4772 48 38ZM42.9497 33.0502C43.5355 33.636 43.5355 34.5857 42.9497 35.1715L40.1213 38L42.9497 40.8284C43.5355 41.4142 43.5355 42.3639 42.9497 42.9497C42.364 43.5355 41.4142 43.5355 40.8284 42.9497L38 40.1213L35.1716 42.9497C34.5858 43.5355 33.636 43.5355 33.0503 42.9497C32.4645 42.3639 32.4645 41.4142 33.0503 40.8284L35.8787 38L33.0503 35.1715C32.4645 34.5857 32.4645 33.636 33.0503 33.0502C33.636 32.4644 34.5858 32.4644 35.1716 33.0502L38 35.8786L40.8284 33.0502C41.4142 32.4644 42.364 32.4644 42.9497 33.0502Z" fill="#18202A"/>
</svg>
