<svg width="48" height="48" viewBox="0 0 48 48" fill="none" xmlns="http://www.w3.org/2000/svg">
<path fill-rule="evenodd" clip-rule="evenodd" d="M25.5 5V19.5C25.5 21.1569 26.8431 22.5 28.5 22.5H43C44.6569 22.5 46 21.1569 46 19.5V12C46 6.47715 41.5228 2 36 2H28.5C26.8431 2 25.5 3.34315 25.5 5ZM22.5 5C22.5 3.34315 21.1569 2 19.5 2H12C6.47715 2 2 6.47715 2 12V36C2 41.5228 6.47715 46 12 46H19.5C21.1569 46 22.5 44.6569 22.5 43V5ZM25.5 28.5V43C25.5 44.6569 26.8431 46 28.5 46H36C41.5228 46 46 41.5228 46 36V28.5C46 26.8431 44.6569 25.5 43 25.5H28.5C26.8431 25.5 25.5 26.8431 25.5 28.5ZM28.5 43H36C39.866 43 43 39.866 43 36V28.5H28.5V43ZM28.5 19.5H43V12C43 8.13401 39.866 5 36 5H28.5V19.5ZM19.5 5H12C8.13401 5 5 8.13401 5 12V36C5 39.866 8.13401 43 12 43H19.5V5Z" fill="#18202A"/>
</svg>
