<svg width="48" height="48" viewBox="0 0 48 48" fill="none" xmlns="http://www.w3.org/2000/svg">
<path fill-rule="evenodd" clip-rule="evenodd" d="M16 5H34C36.7614 5 39 7.23858 39 10V38C39 40.7614 36.7614 43 34 43H16V5ZM14 5C11.2386 5 9 7.23858 9 10V38C9 40.7614 11.2386 43 14 43L14 5ZM6 10C6 5.58172 9.58172 2 14 2H34C38.4183 2 42 5.58172 42 10V38C42 42.4183 38.4183 46 34 46H14C9.58172 46 6 42.4183 6 38V10ZM20 11.5C20 10.6716 20.6716 10 21.5 10H32.5C33.3284 10 34 10.6716 34 11.5C34 12.3284 33.3284 13 32.5 13H21.5C20.6716 13 20 12.3284 20 11.5ZM23.5 16C22.6716 16 22 16.6716 22 17.5C22 18.3284 22.6716 19 23.5 19H30.5C31.3284 19 32 18.3284 32 17.5C32 16.6716 31.3284 16 30.5 16H23.5Z" fill="#18202A"/>
</svg>
