<svg width="48" height="48" viewBox="0 0 48 48" fill="none" xmlns="http://www.w3.org/2000/svg">
<path fill-rule="evenodd" clip-rule="evenodd" d="M32 10.75C32 17 29.3333 22 24 22C18.6667 22 16 17 16 10.75C16 5.75 18.6667 2 24 2C29.3333 2 32 5.75 32 10.75ZM29 10.75C29 13.5062 28.4033 15.6842 27.492 17.0725C26.6615 18.3378 25.5651 19 24 19C22.4349 19 21.3385 18.3378 20.508 17.0725C19.5967 15.6842 19 13.5062 19 10.75C19 8.75033 19.5341 7.32391 20.2821 6.44736C20.9722 5.63857 22.092 5 24 5C25.908 5 27.0278 5.63857 27.7179 6.44736C28.4659 7.32391 29 8.75033 29 10.75ZM25.9724 42.9421C26.3973 43.9752 26.9514 44.9414 27.6147 45.8208C26.4259 45.9393 25.22 46 24 46C20.9052 46 17.9016 45.6095 15.0358 44.875C12.5978 44.2502 10.5314 42.6171 9.3997 40.369C9.06425 39.7026 8.75139 39.0229 8.46215 38.3308C7.23313 35.3902 7.72293 31.9498 9.99863 29.7185C13.6063 26.1812 18.5484 24 24 24C27.1777 24 30.1823 24.7411 32.8504 26.0598C31.7111 26.5519 30.6561 27.2022 29.7132 27.9831C27.928 27.3464 26.005 27 24 27C19.3651 27 15.1685 28.8509 12.099 31.8606C10.8113 33.1232 10.4113 35.2148 11.2301 37.174C11.4921 37.8007 11.7754 38.4164 12.0793 39.0201C12.812 40.4755 14.1619 41.5541 15.7806 41.969C18.4051 42.6416 21.1585 43 24 43C24.6624 43 25.32 42.9805 25.9724 42.9421ZM48 38C48 32.4772 43.5229 28 38 28C32.4772 28 28 32.4772 28 38C28 43.5228 32.4772 48 38 48C43.5228 48 48 43.5228 48 38ZM35.9393 44.0607C36.5251 44.6464 37.4749 44.6464 38.0607 44.0607C38.6464 43.4749 38.6464 42.5251 38.0607 41.9393L35.6213 39.5H44C44.8284 39.5 45.5 38.8284 45.5 38C45.5 37.1716 44.8284 36.5 44 36.5H35.6213L38.0607 34.0607C38.6464 33.4749 38.6464 32.5251 38.0607 31.9393C37.4749 31.3536 36.5251 31.3536 35.9393 31.9393L30.9393 36.9393C30.3536 37.5251 30.3536 38.4749 30.9393 39.0607L35.9393 44.0607Z" fill="#18202A"/>
</svg>
