<svg width="48" height="48" viewBox="0 0 48 48" fill="none" xmlns="http://www.w3.org/2000/svg">
<path d="M8 10C8 8.89543 7.10457 8 6 8C4.89543 8 4 8.89543 4 10V38C4 39.1046 4.89543 40 6 40C7.10457 40 8 39.1046 8 38V26L24 26V38C24 39.1046 24.8954 40 26 40C27.1046 40 28 39.1046 28 38V10C28 8.89543 27.1046 8 26 8C24.8954 8 24 8.89543 24 10V22L8 22V10Z" fill="#18202A"/>
<path d="M36 26C36 25.3827 36.8042 24 39 24C41.0376 24 42 25.2416 42 26.5C42 26.9786 41.931 27.5224 41.5449 28.2517C41.1369 29.0225 40.3305 30.081 38.7087 31.4726L32.7196 36.4636C32.0727 37.0026 31.8328 37.8891 32.1194 38.6809C32.4061 39.4726 33.1579 40 34 40H44C45.1045 40 46 39.1046 46 38C46 36.8954 45.1045 36 44 36H39.5241L41.2805 34.5366L41.3016 34.5185C43.1729 32.9145 44.364 31.4759 45.0801 30.1233C45.8189 28.7276 46 27.5214 46 26.5C46 22.7584 42.9624 20 39 20C35.1958 20 32 22.6173 32 26C32 27.1046 32.8954 28 34 28C35.1046 28 36 27.1046 36 26Z" fill="#18202A"/>
</svg>
