<svg width="48" height="48" viewBox="0 0 48 48" fill="none" xmlns="http://www.w3.org/2000/svg">
<path d="M20 5.5C20 6.32843 19.3284 7 18.5 7H12C9.23858 7 7 9.23858 7 12V36C7 38.7614 9.23858 41 12 41H36C38.7614 41 41 38.7614 41 36V29.5C41 28.6716 41.6716 28 42.5 28C43.3284 28 44 28.6716 44 29.5V36C44 40.4183 40.4183 44 36 44H12C7.58172 44 4 40.4183 4 36V12C4 7.58172 7.58172 4 12 4H18.5C19.3284 4 20 4.67157 20 5.5Z" fill="#18202A"/>
<path fill-rule="evenodd" clip-rule="evenodd" d="M28 7C27.1716 7 26.5 6.32843 26.5 5.5C26.5 4.67157 27.1716 4 28 4H42.5C43.3284 4 44 4.67157 44 5.5V20C44 20.8284 43.3284 21.5 42.5 21.5C41.6716 21.5 41 20.8284 41 20V9.12132L22.0607 28.0607C21.4749 28.6464 20.5251 28.6464 19.9393 28.0607C19.3536 27.4749 19.3536 26.5251 19.9393 25.9393L38.8787 7H28Z" fill="#18202A"/>
</svg>
