<svg width="48" height="48" viewBox="0 0 48 48" fill="none" xmlns="http://www.w3.org/2000/svg">
<path fill-rule="evenodd" clip-rule="evenodd" d="M7.41295 9.54719L4.44202 6.57626C3.85266 5.98691 3.85266 5.03137 4.44202 4.44202C5.03137 3.85266 5.98691 3.85266 6.57626 4.44202L43.558 41.4237C44.1473 42.0131 44.1473 42.9686 43.558 43.558C42.9686 44.1473 42.0131 44.1473 41.4237 43.558L38.4528 40.5871C34.5871 43.9582 29.532 46 24 46C11.8497 46 2 36.1503 2 24C2 18.468 4.04182 13.4129 7.41295 9.54719ZM36.3257 38.46C33.0077 41.2909 28.7035 43 24 43C13.5066 43 5 34.4934 5 24C5 19.2965 6.70905 14.9923 9.54004 11.6743L16.517 18.6513L14.1544 19.0084C13.2931 19.1386 12.7627 19.7794 12.5818 20.3966C12.4013 21.0122 12.5052 21.7862 13.0674 22.3599L17.1322 26.5072L16.165 32.3963C16.0438 33.1344 16.3378 33.8402 16.8736 34.2724C17.4211 34.7142 18.2477 34.8743 18.9975 34.4623L24 31.714L29.0025 34.4623C29.7524 34.8743 30.5789 34.7142 31.1265 34.2724C31.3143 34.1209 31.4723 33.9358 31.5933 33.7275L36.3257 38.46ZM28.5065 30.6407L19.1526 21.2869L16.5953 21.6735L20.3389 25.4931L19.4708 30.7794L24 28.2911L28.5293 30.7794L28.5065 30.6407ZM21.272 14.898L23.5258 17.1518L24 16.1467L25.3216 18.9475L27.4501 21.0761L31.4047 21.678L29.7441 23.3701L31.8655 25.4915L34.9316 22.3674C35.4942 21.7942 35.5987 21.0202 35.4187 20.4046C35.2382 19.7874 34.7085 19.1463 33.8475 19.0153L28.2701 18.1664L25.7471 12.819C25.0431 11.327 22.9569 11.327 22.2529 12.819L21.272 14.898ZM43 24C43 27.6131 41.9915 30.9907 40.2406 33.8666L42.4152 36.0412C44.6819 32.5817 46 28.4448 46 24C46 11.8497 36.1503 2 24 2C19.5552 2 15.4183 3.31812 11.9588 5.58478L14.1334 7.75943C17.0093 6.00853 20.3869 5 24 5C34.4934 5 43 13.5066 43 24Z" fill="#18202A"/>
</svg>
