<svg width="48" height="48" viewBox="0 0 48 48" fill="none" xmlns="http://www.w3.org/2000/svg">
<path fill-rule="evenodd" clip-rule="evenodd" d="M18.9535 27.8711C20.0819 24.0259 20.4037 19.2515 19.9997 13.9388C19.9669 10.6533 17.2933 8 14 8H12C8.68629 8 6 10.6863 6 14V16C6 19.3137 8.68629 22 12 22C13.4107 22 14.5569 22.252 15.2535 22.8711C15.8386 23.3913 16.4592 24.5042 16.0362 27.1567C15.8095 27.9102 15.5498 28.6115 15.2579 29.2577C13.6932 32.7224 11.2827 34.5001 8 34.5001C7.17157 34.5001 6.5 35.1716 6.5 36.0001C6.5 36.8285 7.17157 37.5001 8 37.5001C12.7173 37.5001 16.0568 34.7777 17.9921 30.4925C18.3716 29.6519 18.7259 28.7666 18.9535 27.8711Z" fill="#18202A"/>
<path fill-rule="evenodd" clip-rule="evenodd" d="M40.9535 27.8711C42.0819 24.0258 42.4037 19.2515 41.9997 13.9388C41.9669 10.6533 39.2933 8 36 8H34C30.6863 8 28 10.6863 28 14V16C28 19.3137 30.6863 22 34 22C35.4107 22 36.5569 22.252 37.2535 22.8711C37.8386 23.3913 38.4592 24.5042 38.0362 27.1567C37.8095 27.9102 37.5498 28.6115 37.2579 29.2577C35.6932 32.7224 33.2827 34.5001 30 34.5001C29.1716 34.5001 28.5 35.1716 28.5 36.0001C28.5 36.8285 29.1716 37.5001 30 37.5001C34.7173 37.5001 38.0568 34.7777 39.9921 30.4925C40.3717 29.6519 40.7259 28.7666 40.9535 27.8711Z" fill="#18202A"/>
</svg>
