<svg width="48" height="48" viewBox="0 0 48 48" fill="none" xmlns="http://www.w3.org/2000/svg">
<g clip-path="url(#clip0_3875_8957)">
<path fill-rule="evenodd" clip-rule="evenodd" d="M22 2C18.6863 2 16 4.68629 16 8V10H6C4.89543 10 4 10.8954 4 12C4 13.1046 4.89543 14 6 14H8V34C8 40.6274 13.3726 46 20 46H26.5094C24.9276 43.7323 24 40.9745 24 38C24 35.3607 24.7304 32.8919 26 30.7848V22C26 20.8954 26.8954 20 28 20C29.1046 20 30 20.8954 30 22V26.5094C32.2677 24.9276 35.0255 24 38 24C38.679 24 39.3468 24.0483 40 24.1418V14H42C43.1046 14 44 13.1046 44 12C44 10.8954 43.1046 10 42 10H32V8C32 4.68629 29.3137 2 26 2H22ZM28 8C28 6.89543 27.1046 6 26 6H22C20.8954 6 20 6.89543 20 8V10H28V8ZM22 22C22 20.8954 21.1046 20 20 20C18.8954 20 18 20.8954 18 22V34C18 35.1046 18.8954 36 20 36C21.1046 36 22 35.1046 22 34V22Z" fill="#18202A"/>
<path fill-rule="evenodd" clip-rule="evenodd" d="M38 48C43.5228 48 48 43.5228 48 38C48 32.4772 43.5228 28 38 28C32.4772 28 28 32.4772 28 38C28 43.5228 32.4772 48 38 48ZM40 33C40 31.8954 39.1046 31 38 31C36.8954 31 36 31.8954 36 33V38C36 38.5304 36.2107 39.0391 36.5858 39.4142L39.5858 42.4142C40.3668 43.1953 41.6332 43.1953 42.4142 42.4142C43.1953 41.6332 43.1953 40.3668 42.4142 39.5858L40 37.1716V33Z" fill="#18202A"/>
</g>
<defs>
<clipPath id="clip0_3875_8957">
<rect width="48" height="48" fill="white"/>
</clipPath>
</defs>
</svg>
