<svg width="48" height="48" viewBox="0 0 48 48" fill="none" xmlns="http://www.w3.org/2000/svg">
<path d="M18.4142 8.41421C19.1953 7.63317 19.1953 6.36683 18.4142 5.58579C17.6332 4.80474 16.3668 4.80474 15.5858 5.58579L6.58579 14.5858C5.80474 15.3668 5.80474 16.6332 6.58579 17.4142L15.5858 26.4142C16.3668 27.1953 17.6332 27.1953 18.4142 26.4142C19.1953 25.6332 19.1953 24.3668 18.4142 23.5858L12.8284 18H29C33.9706 18 38 22.0294 38 27C38 31.9706 33.9706 36 29 36H16C14.8954 36 14 36.8954 14 38C14 39.1046 14.8954 40 16 40H29C36.1797 40 42 34.1797 42 27C42 19.8203 36.1797 14 29 14H12.8284L18.4142 8.41421Z" fill="#18202A"/>
</svg>
