<svg width="48" height="48" viewBox="0 0 48 48" fill="none" xmlns="http://www.w3.org/2000/svg">
<path fill-rule="evenodd" clip-rule="evenodd" d="M24.0001 34.5858C23.219 35.3668 23.219 36.6332 24.0001 37.4142C24.7811 38.1953 26.0475 38.1953 26.8285 37.4142L38.8285 25.4142C39.6096 24.6332 39.6096 23.3668 38.8285 22.5858L26.8285 10.5858C26.0475 9.80473 24.7811 9.80473 24.0001 10.5858C23.219 11.3668 23.219 12.6332 24.0001 13.4142L34.5859 24L24.0001 34.5858ZM9.17167 34.5858C8.39062 35.3668 8.39062 36.6332 9.17167 37.4142C9.95272 38.1953 11.219 38.1953 12.0001 37.4142L24.0001 25.4142C24.7811 24.6332 24.7811 23.3668 24.0001 22.5858L12.0001 10.5858C11.2191 9.80473 9.95272 9.80473 9.17167 10.5858C8.39062 11.3668 8.39062 12.6332 9.17167 13.4142L19.7575 24L9.17167 34.5858Z" fill="#18202A"/>
</svg>
