<svg width="48" height="48" viewBox="0 0 48 48" fill="none" xmlns="http://www.w3.org/2000/svg">
<path fill-rule="evenodd" clip-rule="evenodd" d="M42.635 24.7063C41.9019 28.392 40.0925 31.7774 37.4354 34.4347L28.4768 44.1213C27.8892 44.7094 27.1915 45.1759 26.4235 45.4942C25.6552 45.8127 24.8317 45.9766 24 45.9766C23.1683 45.9766 22.3448 45.8127 21.5765 45.4942C20.8082 45.1757 20.1102 44.709 19.5224 44.1206L10.5646 34.4347C7.90753 31.7774 6.09806 28.392 5.36502 24.7063C4.63198 21.0207 5.0083 17.2005 6.44639 13.7288C7.88448 10.257 10.3198 7.28971 13.4443 5.20201C16.5688 3.11431 20.2422 2 24 2C27.7578 2 31.4312 3.11431 34.5557 5.20201C37.6802 7.28971 40.1155 10.257 41.5536 13.7288C42.9917 17.2005 43.368 21.0207 42.635 24.7063ZM28 20C28 22.2091 26.2091 24 24 24C21.7909 24 20 22.2091 20 20C20 17.7909 21.7909 16 24 16C26.2091 16 28 17.7909 28 20ZM32 20C32 24.4183 28.4183 28 24 28C19.5817 28 16 24.4183 16 20C16 15.5817 19.5817 12 24 12C28.4183 12 32 15.5817 32 20Z" fill="#18202A"/>
</svg>
