<svg width="48" height="48" viewBox="0 0 48 48" fill="none" xmlns="http://www.w3.org/2000/svg">
<path fill-rule="evenodd" clip-rule="evenodd" d="M5.28817 5H0V2H5.28817C6.77311 2 8.19109 2.61793 9.20204 3.70561C9.47667 4.00109 9.6969 4.34281 9.85253 4.71499L10.3899 6H41.0274C43.5199 6 45.2136 8.53135 44.2627 10.8353L38.8971 23.8353C38.3564 25.1453 37.079 26 35.6618 26H16.0125L13.1432 29.1641C12.8518 29.4855 13.0798 30 13.5135 30H36.8593C38.1967 30 39.4456 30.6684 40.1875 31.7812L41 33H13.5135C10.4771 33 8.8811 29.3982 10.9208 27.1489L13.637 24.1536L7.99034 8.03783L7.08479 5.87241C7.06562 5.82654 7.03847 5.78443 7.00463 5.74801C6.56127 5.271 5.9394 5 5.28817 5ZM20 40C20 42.2667 18.2667 44 16 44C13.7333 44 12 42.2667 12 40C12 37.7333 13.7333 36 16 36C18.2667 36 20 37.7333 20 40ZM38 40C38 42.2667 36.2667 44 34 44C31.7333 44 30 42.2667 30 40C30 37.7333 31.7333 36 34 36C36.2667 36 38 37.7333 38 40Z" fill="#18202A"/>
</svg>
