<svg width="48" height="48" viewBox="0 0 48 48" fill="none" xmlns="http://www.w3.org/2000/svg">
<path fill-rule="evenodd" clip-rule="evenodd" d="M32 10.75C32 17 29.3333 22 24 22C18.6667 22 16 17 16 10.75C16 5.75 18.6667 2 24 2C29.3333 2 32 5.75 32 10.75ZM29.3495 26.7234C27.6468 26.2519 25.8529 26 24.0001 26C19.0101 26 14.4469 27.8275 10.9433 30.8496C8.27388 33.1522 7.74188 37.0227 9.30633 40.1819C9.33726 40.2444 9.36839 40.3068 9.39972 40.369C10.5314 42.6171 12.5978 44.2502 15.0359 44.875C16.6617 45.2917 18.3319 45.5977 20.038 45.7845C19.8941 44.4184 20.1536 42.9789 20.9133 41.6361L29.3495 26.7234Z" fill="#18202A"/>
<path fill-rule="evenodd" clip-rule="evenodd" d="M45.5947 48H26.4053C24.5608 48 23.4047 45.9684 24.3204 44.3362L33.9151 27.2329C34.8373 25.589 37.1627 25.589 38.0849 27.2329L47.6796 44.3362C48.5953 45.9684 47.4392 48 45.5947 48ZM36 32C35.1716 32 34.5 32.6716 34.5 33.5V37.5C34.5 38.3284 35.1716 39 36 39C36.8284 39 37.5 38.3284 37.5 37.5V33.5C37.5 32.6716 36.8284 32 36 32ZM36 41C35.1716 41 34.5 41.6716 34.5 42.5C34.5 43.3284 35.1716 44 36 44C36.8284 44 37.5 43.3284 37.5 42.5C37.5 41.6716 36.8284 41 36 41Z" fill="#18202A"/>
</svg>
