<svg width="48" height="48" viewBox="0 0 48 48" fill="none" xmlns="http://www.w3.org/2000/svg">
<path fill-rule="evenodd" clip-rule="evenodd" d="M16 2C14.8954 2 14 2.89543 14 4V6C14 7.10457 14.8954 8 16 8H32C33.1046 8 34 7.10457 34 6V4C34 2.89543 33.1046 2 32 2H16ZM10 4.25208C6.54955 5.14016 4 8.27236 4 12V38C4 42.4183 7.58172 46 12 46H36C40.4183 46 44 42.4183 44 38V12C44 8.27236 41.4505 5.14016 38 4.25208V6.00004C38 9.31375 35.3137 12 32 12H16C12.6863 12 10 9.31375 10 6.00004V4.25208ZM35.4142 18.5858C36.1953 19.3669 36.1953 20.6332 35.4142 21.4143L21.4142 35.4143C20.6332 36.1953 19.3668 36.1953 18.5858 35.4143L12.5858 29.4143C11.8047 28.6332 11.8047 27.3669 12.5858 26.5858C13.3668 25.8048 14.6332 25.8048 15.4142 26.5858L20 31.1716L32.5858 18.5858C33.3668 17.8048 34.6332 17.8048 35.4142 18.5858Z" fill="#18202A"/>
</svg>
