<svg width="48" height="48" viewBox="0 0 48 48" fill="none" xmlns="http://www.w3.org/2000/svg">
<path d="M46 10C46 14.4183 42.4183 18 38 18C33.5817 18 30 14.4183 30 10C30 5.58172 33.5817 2 38 2C42.4183 2 46 5.58172 46 10Z" fill="#18202A"/>
<path d="M24.3222 7C24.5512 5.95123 24.8977 4.94639 25.3473 4H10C5.58172 4 2 7.58172 2 12V30C2 33.7546 4.58645 36.905 8.07479 37.7668C8.69144 37.9192 9.33628 38 10 38H11.0909L9.93127 43.5461C9.57499 45.25 11.4148 46.5642 12.9111 45.6745L25.8182 38H38C42.4183 38 46 34.4183 46 30V21.4906C45.0753 22.1356 44.0691 22.6718 43 23.0807V30C43 32.7614 40.7614 35 38 35H25.8182C25.2785 35 24.7488 35.1456 24.285 35.4214L13.3334 41.9331L14.0274 38.614C14.2123 37.7298 13.9889 36.8093 13.4192 36.1082C12.8495 35.4071 11.9943 35 11.0909 35H10C7.23857 35 5 32.7614 5 30V12C5 9.23858 7.23858 7 10 7H24.3222Z" fill="#18202A"/>
</svg>
