<svg width="48" height="48" viewBox="0 0 48 48" fill="none" xmlns="http://www.w3.org/2000/svg">
<path fill-rule="evenodd" clip-rule="evenodd" d="M31.9393 1.93934C32.5251 1.35355 33.4749 1.35355 34.0607 1.93934L35.6464 3.52513C35.8417 3.72039 36.1583 3.72039 36.3536 3.52513L37.9393 1.93934C38.5251 1.35355 39.4749 1.35355 40.0607 1.93934C40.6464 2.52513 40.6464 3.47487 40.0607 4.06066L38.4749 5.64645C38.2796 5.84171 38.2796 6.15829 38.4749 6.35355L40.0607 7.93934C40.6464 8.52513 40.6464 9.47487 40.0607 10.0607C39.4749 10.6464 38.5251 10.6464 37.9393 10.0607L36.3536 8.47487C36.1583 8.27961 35.8417 8.27961 35.6464 8.47487L34.0607 10.0607C33.4749 10.6464 32.5251 10.6464 31.9393 10.0607C31.3536 9.47487 31.3536 8.52513 31.9393 7.93934L33.5251 6.35355C33.7204 6.15829 33.7204 5.84171 33.5251 5.64645L31.9393 4.06066C31.3536 3.47487 31.3536 2.52513 31.9393 1.93934ZM19.5 3.75804C19.5 2.92961 18.8284 2.25804 18 2.25804C17.1716 2.25804 16.5 2.92961 16.5 3.75804V6.00068C16.5 6.27682 16.2761 6.50068 16 6.50068H13.7574C12.9289 6.50068 12.2574 7.17225 12.2574 8.00068C12.2574 8.82911 12.9289 9.50068 13.7574 9.50068L16 9.50068C16.2761 9.50068 16.5 9.72454 16.5 10.0007V12.2433C16.5 13.0717 17.1716 13.7433 18 13.7433C18.8284 13.7433 19.5 13.0717 19.5 12.2433V10.0007C19.5 9.72454 19.7239 9.50068 20 9.50068H22.2426C23.0711 9.50068 23.7426 8.82911 23.7426 8.00068C23.7426 7.17225 23.0711 6.50068 22.2426 6.50068L20 6.50068C19.7239 6.50068 19.5 6.27682 19.5 6.00068V3.75804ZM24.0607 20.1814L26.818 22.9387L8.70711 41.0496C8.31659 41.4402 7.68342 41.4402 7.2929 41.0496L5.94975 39.7065C5.55923 39.316 5.55923 38.6828 5.94975 38.2923L24.0607 20.1814ZM5.17158 43.171C6.73368 44.7331 9.26634 44.7331 10.8284 43.171L33.1716 20.8278C34.7337 19.2657 34.7337 16.7331 33.1716 15.171L31.8284 13.8278C30.2663 12.2657 27.7337 12.2657 26.1716 13.8278L3.82843 36.171C2.26634 37.7331 2.26634 40.2657 3.82843 41.8278L5.17158 43.171ZM31.0503 18.7065L28.9393 20.8174L26.182 18.0601L28.2929 15.9491C28.6834 15.5586 29.3166 15.5586 29.7071 15.9491L31.0503 17.2923C31.4408 17.6828 31.4408 18.316 31.0503 18.7065ZM41.5 25.758C41.5 24.9296 40.8284 24.258 40 24.258C39.1716 24.258 38.5 24.9296 38.5 25.758V28.0007C38.5 28.2768 38.2761 28.5007 38 28.5007H35.7574C34.9289 28.5007 34.2574 29.1723 34.2574 30.0007C34.2574 30.8291 34.9289 31.5007 35.7574 31.5007H38C38.2761 31.5007 38.5 31.7245 38.5 32.0007V34.2433C38.5 35.0717 39.1716 35.7433 40 35.7433C40.8284 35.7433 41.5 35.0717 41.5 34.2433V32.0007C41.5 31.7245 41.7239 31.5007 42 31.5007H44.2426C45.0711 31.5007 45.7426 30.8291 45.7426 30.0007C45.7426 29.1723 45.0711 28.5007 44.2426 28.5007H42C41.7239 28.5007 41.5 28.2768 41.5 28.0007V25.758Z" fill="#18202A"/>
</svg>
