<svg width="48" height="48" viewBox="0 0 48 48" fill="none" xmlns="http://www.w3.org/2000/svg">
<path d="M20.0416 8.15558C15.4508 6.80692 10.5944 6.63576 5.92016 7.65788C5.11085 7.83485 4.31132 7.32224 4.13435 6.51294C3.95738 5.70363 4.46999 4.9041 5.27929 4.72713C10.4456 3.59742 15.8132 3.78659 20.8872 5.27722C25.9612 6.76784 30.5782 9.51194 34.3125 13.2565C38.0469 17.001 40.7784 21.6255 42.2552 26.7035C43.732 31.7815 43.9066 37.1496 42.7628 42.3129C42.5836 43.1217 41.7827 43.6321 40.9739 43.4529C40.1651 43.2738 39.6546 42.4728 39.8338 41.664C40.8687 36.9925 40.7107 32.1357 39.3746 27.5413C38.0384 22.9469 35.567 18.7628 32.1883 15.3749C28.8096 11.987 24.6323 9.50424 20.0416 8.15558Z" fill="#18202A"/>
<path d="M15.3223 19.3548C12.1916 18.6949 8.93661 18.9594 5.95355 20.1162C5.18116 20.4157 4.31222 20.0323 4.0127 19.26C3.71318 18.4876 4.09652 17.6186 4.86891 17.3191C8.39434 15.952 12.2412 15.6394 15.9411 16.4193C19.641 17.1992 23.0344 19.038 25.708 21.7118C28.3817 24.3856 30.2203 27.779 31 31.479C31.7797 35.1789 31.4669 39.0258 30.0996 42.5511C29.8 43.3235 28.9311 43.7068 28.1587 43.4072C27.3863 43.1077 27.003 42.2387 27.3026 41.4663C28.4595 38.4833 28.7242 35.2283 28.0645 32.0976C27.4047 28.9669 25.849 26.0955 23.5866 23.8331C21.3243 21.5706 18.453 20.0147 15.3223 19.3548Z" fill="#18202A"/>
<path fill-rule="evenodd" clip-rule="evenodd" d="M20.0083 36C20.0083 40.4183 16.4266 44 12.0083 44C7.59007 44 4.00834 40.4183 4.00834 36C4.00834 31.5817 7.59007 28 12.0083 28C16.4266 28 20.0083 31.5817 20.0083 36ZM17.0083 36C17.0083 38.7614 14.7698 41 12.0083 41C9.24692 41 7.00834 38.7614 7.00834 36C7.00834 33.2386 9.24692 31 12.0083 31C14.7698 31 17.0083 33.2386 17.0083 36Z" fill="#18202A"/>
</svg>
