<svg width="48" height="48" viewBox="0 0 48 48" fill="none" xmlns="http://www.w3.org/2000/svg">
<path fill-rule="evenodd" clip-rule="evenodd" d="M35.1962 7.76359C35.4863 7.91875 35.8102 7.99995 36.1392 8H36C41.5228 8 46 12.4772 46 18V34C46 39.5228 41.5228 44 36 44H12C6.47715 44 2 39.5228 2 34V18C2 12.4772 6.47715 8 12 8H11.8604C12.1893 7.99995 12.5132 7.91875 12.8033 7.76359C13.0936 7.60834 13.3411 7.38383 13.5238 7.11L15.1478 4.672C15.6956 3.85013 16.4379 3.17623 17.3087 2.71011C18.1796 2.24399 19.152 2.00007 20.1398 2H27.8598C28.8475 2.00007 29.8199 2.24399 30.6908 2.71011C31.5616 3.17623 32.3039 3.85013 32.8518 4.672L34.4758 7.11C34.6585 7.38383 34.9059 7.60834 35.1962 7.76359ZM17.9297 19.5501C19.4741 17.9746 21.6219 17 24 17C27.7116 17 30.8676 19.379 32.0264 22.6953L29.7879 23.0151C29.1873 23.1009 28.6975 23.54 28.5469 24.1277C28.3964 24.7154 28.6146 25.336 29.1 25.7L33.1 28.7C33.7627 29.1971 34.7029 29.0627 35.2 28.4L38.2 24.4C38.564 23.9146 38.5998 23.2578 38.2907 22.7358C37.9816 22.2137 37.3885 21.9293 36.7879 22.0151L35.0387 22.265C33.6413 17.4886 29.228 14 24 14C20.7833 14 17.8728 15.3226 15.7874 17.4499C15.2075 18.0415 15.2169 18.9912 15.8085 19.5711C16.4001 20.1511 17.3498 20.1416 17.9297 19.5501ZM14.9 22.3C14.2373 21.8029 13.2971 21.9373 12.8 22.6L9.8 26.6C9.43599 27.0854 9.40019 27.7422 9.70929 28.2642C10.0184 28.7863 10.6115 29.0707 11.2121 28.9849L12.9613 28.735C14.3587 33.5114 18.772 37 24 37C27.2167 37 30.1272 35.6774 32.2126 33.5501C32.7925 32.9585 32.7831 32.0088 32.1915 31.4289C31.5999 30.8489 30.6502 30.8584 30.0703 31.4499C28.5259 33.0254 26.3781 34 24 34C20.2884 34 17.1324 31.621 15.9736 28.3047L18.2121 27.9849C18.8127 27.8991 19.3025 27.46 19.4531 26.8723C19.6036 26.2846 19.3854 25.664 18.9 25.3L14.9 22.3Z" fill="#18202A"/>
</svg>
