<svg width="48" height="48" viewBox="0 0 48 48" fill="none" xmlns="http://www.w3.org/2000/svg">
<path fill-rule="evenodd" clip-rule="evenodd" d="M28.8862 3.06383C24.1607 1.96103 19.2011 2.48923 14.8138 4.56253C10.4266 6.63583 6.86967 10.1323 4.72152 14.4834C2.57337 18.8345 1.9603 23.7843 2.98198 28.528C4.00366 33.2717 6.60002 37.5303 10.3489 40.6114C14.0977 43.6924 18.7786 45.4146 23.6304 45.4981C28.4821 45.5815 33.2195 44.0212 37.072 41.0709C37.7297 40.5672 37.8546 39.6257 37.3509 38.968C36.8472 38.3103 35.9057 38.1854 35.248 38.6891C31.933 41.2277 27.8567 42.5703 23.6819 42.4985C19.5072 42.4267 15.4794 40.9448 12.2537 38.2937C9.02793 35.6426 6.79385 31.9782 5.91473 27.8964C5.03561 23.8146 5.56314 19.5554 7.41155 15.8115C9.25996 12.0675 12.3205 9.05891 16.0956 7.2749C19.8707 5.4909 24.1383 5.03641 28.2044 5.98533C32.2705 6.93424 35.8961 9.23076 38.4916 12.5015C41.087 15.7721 42.4997 19.8247 42.5 24.0001V26C42.5 27.1935 42.0259 28.338 41.182 29.182C40.3381 30.0259 39.1935 30.5 38 30.5C36.8065 30.5 35.662 30.0259 34.818 29.182C33.9741 28.338 33.5 27.1935 33.5 26V16C33.5 15.1716 32.8285 14.5 32 14.5C31.1716 14.5 30.5 15.1716 30.5 16V17.0718C28.8007 15.4769 26.5144 14.5 24 14.5C18.7533 14.5 14.5 18.7533 14.5 24C14.5 29.2467 18.7533 33.5 24 33.5C27.0661 33.5 29.7929 32.0475 31.5299 29.7931C31.8502 30.3395 32.2411 30.8477 32.6967 31.3033C34.1032 32.7098 36.0109 33.5 38 33.5C39.9891 33.5 41.8968 32.7098 43.3033 31.3033C44.7098 29.8968 45.5 27.9891 45.5 26V23.9999C45.4997 19.1474 43.8579 14.4377 40.8416 10.6366C37.8252 6.83554 33.6117 4.16662 28.8862 3.06383ZM17.5 24C17.5 20.4101 20.4101 17.5 24 17.5C27.5899 17.5 30.5 20.4101 30.5 24C30.5 27.5899 27.5899 30.5 24 30.5C20.4101 30.5 17.5 27.5899 17.5 24Z" fill="#18202A"/>
</svg>
