<svg width="48" height="48" viewBox="0 0 48 48" fill="none" xmlns="http://www.w3.org/2000/svg">
<g clip-path="url(#clip0_2294_8738)">
<path fill-rule="evenodd" clip-rule="evenodd" d="M24 48C37.2548 48 48 37.2548 48 24C48 10.7452 37.2548 0 24 0C10.7452 0 0 10.7452 0 24C0 37.2548 10.7452 48 24 48ZM24 24C26.6667 24 28 21.5 28 18.375C28 15.875 26.6667 14 24 14C21.3333 14 20 15.875 20 18.375C20 21.5 21.3333 24 24 24ZM13 24C15 24 16 22 16 19.5C16 17.5 15 16 13 16C11 16 10 17.5 10 19.5C10 22 11 24 13 24ZM35 24C37 24 38 22 38 19.5C38 17.5 37 16 35 16C33 16 32 17.5 32 19.5C32 22 33 24 35 24ZM16.2256 26.4354C16.3773 26.3301 16.5312 26.2278 16.6873 26.1286C16.0415 26.0184 15.3766 25.9609 14.6978 25.9609C12.8183 25.9609 11.0463 26.4015 9.48857 27.1806C8.16624 27.842 7.61016 29.3919 8.05157 30.803C8.13729 31.077 8.22855 31.3487 8.32523 31.618C8.74626 32.7908 9.79243 33.6182 11.0267 33.7896C12.0734 33.935 13.1409 34.0191 14.225 34.0381C14.1567 33.8486 14.0907 33.6581 14.0271 33.4664C13.2107 31.0062 13.8791 28.0636 16.2256 26.4354ZM33.9736 33.4663C33.9107 33.6558 33.8455 33.8442 33.778 34.0314C34.8902 34 35.9844 33.8999 37.0561 33.7356C38.2747 33.5487 39.3013 32.7221 39.7145 31.5604C39.7848 31.3628 39.8521 31.1639 39.9165 30.9638C40.3608 29.5834 39.849 28.0571 38.5753 27.3638C36.935 26.4709 35.0373 25.9609 33.0152 25.9609C32.4164 25.9609 31.8286 26.0056 31.2551 26.0918C31.4311 26.2025 31.6045 26.3171 31.7751 26.4354C34.1215 28.0637 34.7899 31.0061 33.9736 33.4663ZM31.1827 35.091C30.5348 36.4905 29.2278 37.4692 27.705 37.7137C26.4981 37.9076 25.2607 38.0082 24.0002 38.0082C22.7398 38.0082 21.5025 37.9076 20.2956 37.7138C18.7729 37.4692 17.4659 36.4906 16.8179 35.0911C16.48 34.3613 16.1815 33.6088 15.9253 32.8365C15.3456 31.0896 15.8537 29.1278 17.3658 28.0785C19.256 26.7668 21.5402 26 24.0002 26C26.4604 26 28.7445 26.7668 30.6348 28.0786C32.1469 29.1278 32.6549 31.0896 32.0753 32.8365C31.8191 33.6087 31.5206 34.3612 31.1827 35.091Z" fill="#18202A"/>
</g>
<defs>
<clipPath id="clip0_2294_8738">
<rect width="48" height="48" fill="white"/>
</clipPath>
</defs>
</svg>
