<svg width="48" height="48" viewBox="0 0 48 48" fill="none" xmlns="http://www.w3.org/2000/svg">
<g clip-path="url(#clip0_3916_8830)">
<path fill-rule="evenodd" clip-rule="evenodd" d="M13.1489 8.26584C11.5738 6.69085 12.6895 3.99785 14.9168 3.99805L35.4999 3.99991C36.8805 4.00003 37.9996 5.11912 37.9997 6.49964L38.0019 27.0829C38.0022 29.3103 35.3092 30.426 33.7342 28.851L28.5108 23.6276C24.4725 27.8041 22.3727 30.8761 21.4134 33.7018C20.4436 36.5589 20.5796 39.3423 21.3873 43.109C21.6432 44.3023 21.044 45.3588 20.1445 45.8434C19.2219 46.3404 17.968 46.235 17.1444 45.2514C11.7787 38.8426 10.2178 32.7422 11.0779 27.181C11.9019 21.8538 14.913 17.2509 18.3989 13.5157L13.1489 8.26584ZM34.9998 6.99986L16.1238 6.99816L20.8557 11.7299C21.8383 12.7125 21.8166 14.2758 20.8887 15.2483C17.4813 18.8197 14.7602 23.0007 14.0427 27.6396C13.4093 31.7343 14.3072 36.3819 18.0387 41.5261C17.5569 38.4477 17.5819 35.6562 18.5727 32.7374C19.7781 29.1865 22.3521 25.6288 26.7221 21.1641C27.6905 20.1746 29.2874 20.1616 30.27 21.1441L35.0018 25.876L34.9998 6.99986Z" fill="#18202A"/>
</g>
<defs>
<clipPath id="clip0_3916_8830">
<rect width="48" height="48" fill="white"/>
</clipPath>
</defs>
</svg>
