<svg width="48" height="48" viewBox="0 0 48 48" fill="none" xmlns="http://www.w3.org/2000/svg">
<path fill-rule="evenodd" clip-rule="evenodd" d="M24 43C34.4934 43 43 34.4934 43 24C43 13.5066 34.4934 5 24 5C13.5066 5 5 13.5066 5 24C5 34.4934 13.5066 43 24 43ZM24 46C36.1503 46 46 36.1503 46 24C46 11.8497 36.1503 2 24 2C11.8497 2 2 11.8497 2 24C2 36.1503 11.8497 46 24 46Z" fill="#18202A"/>
<path fill-rule="evenodd" clip-rule="evenodd" d="M20.9393 14.9393C21.5251 14.3536 22.4749 14.3536 23.0607 14.9393L31.0607 22.9393C31.6464 23.5251 31.6464 24.4749 31.0607 25.0607L23.0607 33.0607C22.4749 33.6464 21.5251 33.6464 20.9393 33.0607C20.3536 32.4749 20.3536 31.5251 20.9393 30.9393L27.8787 24L20.9393 17.0607C20.3536 16.4749 20.3536 15.5251 20.9393 14.9393Z" fill="#18202A"/>
</svg>
