<svg width="48" height="48" viewBox="0 0 48 48" fill="none" xmlns="http://www.w3.org/2000/svg">
<g clip-path="url(#clip0_3291_8696)">
<g clip-path="url(#clip1_3291_8696)">
<path d="M18.2071 15.8731C17.4278 16.3926 17 17.0819 17 18C17 18.8284 16.3285 19.5 15.5 19.5C14.6716 19.5 14 18.8284 14 18C14 15.9181 15.0723 14.3574 16.543 13.3769C17.9692 12.4261 19.7775 12 21.5 12C25.7415 12 29 15.0872 29 19C29 21.0344 27.769 23.0429 26.6568 24.518C25.7595 25.7081 24.739 26.798 24.0769 27.505C23.8912 27.7033 23.7336 27.8716 23.6149 28.0035C22.8364 28.8685 21.0744 30.7562 19.5198 32.4143L18.9703 33H27.5C28.3285 33 29 33.6716 29 34.5C29 35.3284 28.3285 36 27.5 36H15.5C14.9013 36 14.36 35.644 14.1228 35.0942C13.8856 34.5445 13.998 33.9064 14.4088 33.4708L15.286 32.5395C15.8221 31.9698 16.5528 31.1926 17.3312 30.3624C18.8936 28.696 20.6316 26.8337 21.3851 25.9965C21.5531 25.8099 21.7493 25.6002 21.9653 25.3693C22.6267 24.6622 23.4737 23.7567 24.2613 22.712C25.3432 21.2771 26 19.9656 26 19C26 16.9128 24.2586 15 21.5 15C20.2225 15 19.0308 15.3239 18.2071 15.8731Z" fill="#18202A"/>
<path d="M8.13627 12.1416C8.66335 12.3885 9.00004 12.918 9.00004 13.5V34.5C9.00004 35.3284 8.32846 36 7.50004 36C6.67161 36 6.00004 35.3284 6.00004 34.5V16.7026L2.46031 19.6523C1.8239 20.1827 0.878052 20.0967 0.347706 19.4603C-0.18264 18.8239 -0.0966544 17.878 0.539761 17.3477L6.53976 12.3477C6.98689 11.9751 7.60919 11.8948 8.13627 12.1416Z" fill="#18202A"/>
<path d="M37.2071 15.8731C36.4278 16.3926 36 17.0819 36 18C36 18.8284 35.3284 19.5 34.5 19.5C33.6716 19.5 33 18.8284 33 18C33 15.9181 34.0722 14.3574 35.5429 13.3769C36.9692 12.4261 38.7775 12 40.5 12C42.5259 12 44.3842 12.5791 45.7661 13.7171C47.1712 14.8742 48 16.5474 48 18.5C48 21.0177 46.8607 22.854 45.1446 23.9981L45.1416 24.0001L45.1446 24.002C46.8607 25.1461 48 26.9824 48 29.5001C48 31.0436 47.5689 32.3019 46.836 33.2864C46.1157 34.254 45.1735 34.8646 44.2856 35.2507C42.5612 36.0005 40.8101 36.0002 40.507 36.0001H40.5C39.0928 36.0001 37.3042 35.7253 35.8109 34.8607C34.2361 33.9489 33 32.3675 33 30C33 29.1716 33.6716 28.5 34.5 28.5C35.3284 28.5 36 29.1716 36 30C36 31.1325 36.5139 31.8012 37.3141 32.2644C38.1958 32.7749 39.4072 33.0001 40.5 33.0001C40.718 33.0001 41.9527 32.9937 43.0894 32.4995C43.639 32.2606 44.103 31.9337 44.4296 31.495C44.7436 31.0733 45 30.4566 45 29.5001C45 28.0178 44.3893 27.1041 43.4804 26.4982C42.4959 25.8418 41.07 25.5001 39.5 25.5001C38.6716 25.5001 38 24.8285 38 24.0001C38 23.1717 38.6716 22.5001 39.5 22.5001C41.07 22.5001 42.4959 22.1584 43.4804 21.502C44.3893 20.8961 45 19.9823 45 18.5C45 17.4526 44.5788 16.6258 43.8589 16.0329C43.1158 15.4209 41.9741 15 40.5 15C39.2225 15 38.0308 15.3239 37.2071 15.8731Z" fill="#18202A"/>
</g>
</g>
<defs>
<clipPath id="clip0_3291_8696">
<rect width="48" height="48" fill="white"/>
</clipPath>
<clipPath id="clip1_3291_8696">
<rect width="48" height="48" fill="white"/>
</clipPath>
</defs>
</svg>
