<svg width="48" height="48" viewBox="0 0 48 48" fill="none" xmlns="http://www.w3.org/2000/svg">
<path fill-rule="evenodd" clip-rule="evenodd" d="M4 10C4 6.68629 6.68629 4 10 4H16C19.3137 4 22 6.68629 22 10V16C22 19.3137 19.3137 22 16 22H10C6.68629 22 4 19.3137 4 16V10ZM7 10C7 8.34315 8.34315 7 10 7H16C17.6569 7 19 8.34315 19 10V16C19 17.6569 17.6569 19 16 19H10C8.34315 19 7 17.6569 7 16V10Z" fill="#18202A"/>
<path fill-rule="evenodd" clip-rule="evenodd" d="M4 32C4 28.6863 6.68629 26 10 26H16C19.3137 26 22 28.6863 22 32V38C22 41.3137 19.3137 44 16 44H10C6.68629 44 4 41.3137 4 38V32ZM7 32C7 30.3431 8.34315 29 10 29H16C17.6569 29 19 30.3431 19 32V38C19 39.6569 17.6569 41 16 41H10C8.34315 41 7 39.6569 7 38V32Z" fill="#18202A"/>
<path fill-rule="evenodd" clip-rule="evenodd" d="M32 4C28.6863 4 26 6.68629 26 10V16C26 19.3137 28.6863 22 32 22H38C41.3137 22 44 19.3137 44 16V10C44 6.68629 41.3137 4 38 4H32ZM41 10C41 8.34315 39.6569 7 38 7H32C30.3431 7 29 8.34315 29 10V16C29 17.6569 30.3431 19 32 19H38C39.6569 19 41 17.6569 41 16V10Z" fill="#18202A"/>
<path fill-rule="evenodd" clip-rule="evenodd" d="M26 32C26 28.6863 28.6863 26 32 26H38C41.3137 26 44 28.6863 44 32V38C44 41.3137 41.3137 44 38 44H32C28.6863 44 26 41.3137 26 38V32ZM29 32C29 30.3431 30.3431 29 32 29H38C39.6569 29 41 30.3431 41 32V38C41 39.6569 39.6569 41 38 41H32C30.3431 41 29 39.6569 29 38V32Z" fill="#18202A"/>
</svg>
