<svg width="48" height="48" viewBox="0 0 48 48" fill="none" xmlns="http://www.w3.org/2000/svg">
<path fill-rule="evenodd" clip-rule="evenodd" d="M14 2C12.8954 2 12 2.89543 12 4V6H10C5.58172 6 2 9.58172 2 14V38C2 42.4183 5.58172 46 10 46H26.5094C24.9276 43.7323 24 40.9745 24 38C24 34.8481 25.0416 31.9395 26.7993 29.5996C26.3139 29.2347 26 28.654 26 28C26 26.8954 26.8954 26 28 26C28.654 26 29.2347 26.3139 29.5996 26.7993C31.9395 25.0416 34.8481 24 38 24C40.9745 24 43.7323 24.9276 46 26.5094V14C46 9.58172 42.4183 6 38 6H36V4C36 2.89543 35.1046 2 34 2C32.8954 2 32 2.89543 32 4V6H16V4C16 2.89543 15.1046 2 14 2ZM10 20C10 18.8954 10.8954 18 12 18H36C37.1046 18 38 18.8954 38 20C38 21.1046 37.1046 22 36 22H12C10.8954 22 10 21.1046 10 20ZM10 28C10 26.8954 10.8954 26 12 26C13.1046 26 14 26.8954 14 28C14 29.1046 13.1046 30 12 30C10.8954 30 10 29.1046 10 28ZM12 34C10.8954 34 10 34.8954 10 36C10 37.1046 10.8954 38 12 38C13.1046 38 14 37.1046 14 36C14 34.8954 13.1046 34 12 34ZM18 28C18 26.8954 18.8954 26 20 26C21.1046 26 22 26.8954 22 28C22 29.1046 21.1046 30 20 30C18.8954 30 18 29.1046 18 28ZM20 34C18.8954 34 18 34.8954 18 36C18 37.1046 18.8954 38 20 38C21.1046 38 22 37.1046 22 36C22 34.8954 21.1046 34 20 34ZM48 38C48 43.5228 43.5228 48 38 48C32.4772 48 28 43.5228 28 38C28 32.4772 32.4772 28 38 28C43.5228 28 48 32.4772 48 38ZM37.7901 41.2099C37.7084 41.2916 37.6132 41.3585 37.5088 41.4076L32.931 43.5619C32.6008 43.7172 32.2521 43.3857 32.3906 43.0481L34.3825 38.1942C34.4379 38.0592 34.5221 37.938 34.6293 37.839L40.8365 32.1093C41.2309 31.7452 41.8423 31.7574 42.2219 32.1369L43.8354 33.7504C44.2259 34.141 44.2259 34.7741 43.8354 35.1647L37.7901 41.2099Z" fill="#18202A"/>
</svg>
