<svg width="48" height="48" viewBox="0 0 48 48" fill="none" xmlns="http://www.w3.org/2000/svg">
<path fill-rule="evenodd" clip-rule="evenodd" d="M24 18.5C24.8284 18.5 25.5 19.1716 25.5 20V40.3787L28.9393 36.9393C29.5251 36.3536 30.4749 36.3536 31.0607 36.9393C31.6464 37.5251 31.6464 38.4749 31.0607 39.0607L25.0607 45.0607C24.7794 45.342 24.3978 45.5 24 45.5C23.6022 45.5 23.2206 45.342 22.9393 45.0607L16.9393 39.0607C16.3536 38.4749 16.3536 37.5251 16.9393 36.9393C17.5251 36.3536 18.4749 36.3536 19.0607 36.9393L22.5 40.3787V20C22.5 19.1716 23.1716 18.5 24 18.5Z" fill="#18202A"/>
<path d="M34.5487 12.8685L35.2234 15.1459L37.5948 15.0114C37.7286 15.0039 37.8637 15 38 15C41.866 15 45 18.134 45 22C45 25.866 41.866 29 38 29H28.5V32H38C43.5228 32 48 27.5228 48 22C48 16.4772 43.5228 12 38 12C37.807 12 37.6153 12.0055 37.4251 12.0163C35.7092 6.22493 30.348 2 24 2C17.652 2 12.2908 6.22493 10.5749 12.0163C10.3847 12.0055 10.193 12 10 12C4.47715 12 0 16.4772 0 22C0 27.5228 4.47715 32 10 32H19.5V29H10C6.13401 29 3 25.866 3 22C3 18.134 6.13401 15 10 15C10.1363 15 10.2714 15.0039 10.4052 15.0114L12.7766 15.1459L13.4513 12.8685C14.8001 8.31609 19.0167 5 24 5C28.9833 5 33.1999 8.31609 34.5487 12.8685Z" fill="#18202A"/>
</svg>
