<svg width="48" height="48" viewBox="0 0 48 48" fill="none" xmlns="http://www.w3.org/2000/svg">
<path fill-rule="evenodd" clip-rule="evenodd" d="M11.4142 16.5858C12.1953 17.3668 12.1953 18.6332 11.4142 19.4142L6.82843 24L11.4142 28.5858C12.1953 29.3668 12.1953 30.6332 11.4142 31.4142C10.6332 32.1953 9.36684 32.1953 8.58579 31.4142L2.58579 25.4142C1.80474 24.6332 1.80474 23.3668 2.58579 22.5858L8.58579 16.5858C9.36684 15.8047 10.6332 15.8047 11.4142 16.5858Z" fill="#18202A"/>
<path fill-rule="evenodd" clip-rule="evenodd" d="M22.5858 2.58579C23.3668 1.80474 24.6332 1.80474 25.4142 2.58579L31.4142 8.58579C32.1953 9.36684 32.1953 10.6332 31.4142 11.4142C30.6332 12.1953 29.3668 12.1953 28.5858 11.4142L24 6.82843L19.4142 11.4142C18.6332 12.1953 17.3668 12.1953 16.5858 11.4142C15.8047 10.6332 15.8047 9.36684 16.5858 8.58579L22.5858 2.58579Z" fill="#18202A"/>
<path fill-rule="evenodd" clip-rule="evenodd" d="M16.5858 36.5858C17.3668 35.8047 18.6332 35.8047 19.4142 36.5858L24 41.1716L28.5858 36.5858C29.3668 35.8047 30.6332 35.8047 31.4142 36.5858C32.1953 37.3668 32.1953 38.6332 31.4142 39.4142L25.4142 45.4142C24.6332 46.1953 23.3668 46.1953 22.5858 45.4142L16.5858 39.4142C15.8047 38.6332 15.8047 37.3668 16.5858 36.5858Z" fill="#18202A"/>
<path fill-rule="evenodd" clip-rule="evenodd" d="M36.5858 16.5858C37.3668 15.8047 38.6332 15.8047 39.4142 16.5858L45.4142 22.5858C46.1953 23.3668 46.1953 24.6332 45.4142 25.4142L39.4142 31.4142C38.6332 32.1953 37.3668 32.1953 36.5858 31.4142C35.8047 30.6332 35.8047 29.3668 36.5858 28.5858L41.1716 24L36.5858 19.4142C35.8047 18.6332 35.8047 17.3668 36.5858 16.5858Z" fill="#18202A"/>
<path fill-rule="evenodd" clip-rule="evenodd" d="M2 24C2 22.8954 2.89543 22 4 22H44C45.1046 22 46 22.8954 46 24C46 25.1046 45.1046 26 44 26H4C2.89543 26 2 25.1046 2 24Z" fill="#18202A"/>
<path fill-rule="evenodd" clip-rule="evenodd" d="M24 2C25.1046 2 26 2.89543 26 4V44C26 45.1046 25.1046 46 24 46C22.8954 46 22 45.1046 22 44V4C22 2.89543 22.8954 2 24 2Z" fill="#18202A"/>
</svg>
