<svg width="48" height="48" viewBox="0 0 48 48" fill="none" xmlns="http://www.w3.org/2000/svg">
<path fill-rule="evenodd" clip-rule="evenodd" d="M6.53572 4.53572C7.31746 3.75397 8.66853 3.83759 9.55342 4.72247L41.2775 36.4466C42.1624 37.3315 42.246 38.6825 41.4643 39.4643C40.6825 40.246 39.3315 40.1624 38.4466 39.2775L6.72247 7.55342C5.83758 6.66853 5.75397 5.31746 6.53572 4.53572Z" fill="#18202A"/>
<path d="M32.253 21.7768C33.8442 22.4986 35.3241 23.4227 36.66 24.5162C37.5147 25.2159 38.7753 25.2247 39.5563 24.4436C40.3374 23.6626 40.3424 22.3891 39.4994 21.6754C35.9437 18.6649 31.5002 16.6707 26.6173 16.1411L32.253 21.7768Z" fill="#18202A"/>
<path d="M24.8365 20.0172L21.0045 16.1851C16.2703 16.7746 11.9642 18.7428 8.50056 21.6754C7.65756 22.3891 7.66258 23.6626 8.44362 24.4437C9.22467 25.2247 10.4853 25.2159 11.34 24.5162C14.7881 21.6936 19.1963 20 24 20C24.2802 20 24.5591 20.0058 24.8365 20.0172Z" fill="#18202A"/>
<path d="M20.66 10.1838C21.7566 10.0624 22.871 10 24 10C31.565 10 38.476 12.8001 43.7531 17.4204C44.5842 18.148 45.8463 18.1536 46.6274 17.3726C47.4084 16.5915 47.4122 15.3203 46.5869 14.5863C40.5812 9.24483 32.6695 6 24 6C21.6584 6 19.3721 6.23671 17.1637 6.68751L20.66 10.1838Z" fill="#18202A"/>
<path d="M12.7312 7.91191L15.92 11.1007C11.5439 12.3216 7.57113 14.5099 4.2468 17.4204C3.41575 18.1481 2.1536 18.1536 1.37256 17.3726C0.591507 16.5915 0.587739 15.3204 1.41309 14.5863C4.68263 11.6783 8.5171 9.39178 12.7312 7.91191Z" fill="#18202A"/>
<path d="M32.3897 28.7913C33.2735 29.4538 33.2663 30.7337 32.4853 31.5147C31.7042 32.2958 30.446 32.2754 29.5259 31.6642C27.9428 30.6126 26.0429 30 24 30C21.957 30 20.0571 30.6126 18.474 31.6642C17.5539 32.2754 16.2957 32.2958 15.5147 31.5147C14.7336 30.7337 14.7265 29.4538 15.6102 28.7913C17.9483 27.0384 20.8529 26 24 26C27.1471 26 30.0516 27.0384 32.3897 28.7913Z" fill="#18202A"/>
<path d="M28 40C28 42.2091 26.2091 44 24 44C21.7908 44 20 42.2091 20 40C20 37.7909 21.7908 36 24 36C26.2091 36 28 37.7909 28 40Z" fill="#18202A"/>
</svg>
