<svg width="48" height="48" viewBox="0 0 48 48" fill="none" xmlns="http://www.w3.org/2000/svg">
<path fill-rule="evenodd" clip-rule="evenodd" d="M11.7092 25.5C11.1159 26.9659 9.67869 28 8 28C5.79086 28 4 26.2091 4 24C4 21.7909 5.79086 20 8 20C9.67869 20 11.1159 21.0341 11.7092 22.5H20.2908C20.8841 21.0341 22.3213 20 24 20C25.6787 20 27.1159 21.0341 27.7092 22.5H36.2908C36.8841 21.0341 38.3213 20 40 20C42.2091 20 44 21.7909 44 24C44 26.2091 42.2091 28 40 28C38.3213 28 36.8841 26.9659 36.2908 25.5H27.7092C27.1159 26.9659 25.6787 28 24 28C22.3213 28 20.8841 26.9659 20.2908 25.5H11.7092Z" fill="#18202A"/>
</svg>
