<svg width="48" height="48" viewBox="0 0 48 48" fill="none" xmlns="http://www.w3.org/2000/svg">
<path d="M34.9311 22.0637C35.7245 22.3018 36.1748 23.138 35.9368 23.9315L35.9352 23.9365L35.9331 23.9435L35.9272 23.9628L35.9081 24.0224C35.8921 24.0712 35.8696 24.1379 35.8404 24.2198C35.7819 24.3835 35.6958 24.6098 35.5795 24.8781C35.3488 25.4105 34.99 26.1305 34.4789 26.8607C33.477 28.2919 31.7073 30.0005 29 30.0005C26.4503 30.0005 24.5748 28.4344 23.1746 27.2654L23.0398 27.1528C21.4537 25.8311 20.3675 25.0005 19 25.0005C17.7073 25.0005 16.727 25.7919 15.9789 26.8607C15.615 27.3805 15.3488 27.9105 15.1732 28.3156C15.0864 28.516 15.0241 28.6803 14.9849 28.7901C14.9654 28.8449 14.9517 28.8857 14.9437 28.9101L14.936 28.9341C14.6976 29.7269 13.8622 30.1752 13.069 29.9372C12.2755 29.6992 11.8252 28.8629 12.0633 28.0694L12.064 28.0672C12.0943 27.9713 12.1258 27.8759 12.1597 27.7811C12.2181 27.6175 12.3043 27.3912 12.4206 27.1228C12.6513 26.5904 13.0101 25.8704 13.5212 25.1403C14.5231 23.709 16.2928 22.0005 19 22.0005C21.5497 22.0005 23.4253 23.5665 24.8254 24.7356L24.9603 24.8481C26.5463 26.1698 27.6325 27.0005 29 27.0005C30.2928 27.0005 31.2731 26.209 32.0212 25.1403C32.3851 24.6204 32.6513 24.0904 32.8268 23.6853C32.9137 23.4849 32.9759 23.3206 33.0152 23.2108C33.0347 23.1561 33.0484 23.1153 33.0564 23.0908L33.0638 23.0676C33.3023 22.2747 34.1379 21.8258 34.9311 22.0637Z" fill="#18202A"/>
<path fill-rule="evenodd" clip-rule="evenodd" d="M13.5 2C12.6716 2 12 2.67157 12 3.5V6H10C5.58172 6 2 9.58172 2 14V38C2 42.4183 5.58172 46 10 46H38C42.4183 46 46 42.4183 46 38V14C46 9.58172 42.4183 6 38 6H36V3.5C36 2.67157 35.3284 2 34.5 2C33.6716 2 33 2.67157 33 3.5V6H15V3.5C15 2.67157 14.3284 2 13.5 2ZM34.5 14C33.6716 14 33 13.3284 33 12.5V9H15V12.5C15 13.3284 14.3284 14 13.5 14C12.6716 14 12 13.3284 12 12.5V9H10C7.23858 9 5 11.2386 5 14V38C5 40.7614 7.23858 43 10 43H38C40.7614 43 43 40.7614 43 38V14C43 11.2386 40.7614 9 38 9H36V12.5C36 13.3284 35.3284 14 34.5 14Z" fill="#18202A"/>
</svg>
