<svg width="48" height="48" viewBox="0 0 48 48" fill="none" xmlns="http://www.w3.org/2000/svg">
<path d="M24 22C29.3333 22 32 17 32 10.75C32 5.75 29.3333 2 24 2C18.6667 2 16 5.75 16 10.75C16 17 18.6667 22 24 22Z" fill="#18202A"/>
<path d="M32.9642 44.875C35.4022 44.2502 37.4686 42.6171 38.6003 40.369C38.6161 40.3375 38.6319 40.306 38.6477 40.2745C38.6631 40.2436 38.6784 40.2128 38.6938 40.1818C40.2582 37.0226 39.7262 33.1521 37.0567 30.8495C33.5531 27.8274 28.99 26 24.0001 26C19.0101 26 14.4469 27.8275 10.9433 30.8496C8.27388 33.1522 7.74188 37.0227 9.30633 40.1819C9.33726 40.2444 9.36839 40.3068 9.39972 40.369C10.5314 42.6171 12.5978 44.2502 15.0359 44.875C17.9016 45.6095 20.9052 46 24 46C27.0948 46 30.0984 45.6095 32.9642 44.875Z" fill="#18202A"/>
</svg>
