<svg width="48" height="48" viewBox="0 0 48 48" fill="none" xmlns="http://www.w3.org/2000/svg">
<g clip-path="url(#clip0_2294_8290)">
<path fill-rule="evenodd" clip-rule="evenodd" d="M3.55342 0.722471C2.66853 -0.162415 1.31746 -0.246028 0.535717 0.535717C-0.246028 1.31746 -0.162415 2.66853 0.722471 3.55342L3.1067 5.93765C2.4035 7.12832 2 8.51704 2 10V28C2 32.4183 5.58172 36 10 36H11.0909L9.93127 41.5461C9.57499 43.25 11.4148 44.5642 12.9111 43.6745L25.8182 36H33.1691L38.4466 41.2775C39.3315 42.1624 40.6825 42.246 41.4643 41.4643C42.246 40.6825 42.1624 39.3315 41.2775 38.4466L3.55342 0.722471ZM46 28C46 30.5976 44.7619 32.9061 42.8437 34.3675L10.4762 2H38C42.4183 2 46 5.58172 46 10V28Z" fill="#18202A"/>
</g>
<defs>
<clipPath id="clip0_2294_8290">
<rect width="48" height="48" fill="white"/>
</clipPath>
</defs>
</svg>
