<svg width="48" height="48" viewBox="0 0 48 48" fill="none" xmlns="http://www.w3.org/2000/svg">
<path d="M36 5.5C36 6.32843 35.3284 7 34.5 7H12C9.23858 7 7 9.23858 7 12V36C7 38.7614 9.23858 41 12 41H36C38.7614 41 41 38.7614 41 36V23.5C41 22.6716 41.6716 22 42.5 22C43.3284 22 44 22.6716 44 23.5V36C44 40.4183 40.4183 44 36 44H12C7.58172 44 4 40.4183 4 36V12C4 7.58172 7.58172 4 12 4H34.5C35.3284 4 36 4.67157 36 5.5Z" fill="#18202A"/>
<path d="M44.0607 12.0607C44.6464 11.4749 44.6464 10.5251 44.0607 9.93934C43.4749 9.35355 42.5251 9.35355 41.9393 9.93934L23 28.8787L16.0607 21.9393C15.4749 21.3536 14.5251 21.3536 13.9393 21.9393C13.3536 22.5251 13.3536 23.4749 13.9393 24.0607L21.9393 32.0607C22.5251 32.6464 23.4749 32.6464 24.0607 32.0607L44.0607 12.0607Z" fill="#18202A"/>
</svg>
