<svg width="48" height="48" viewBox="0 0 48 48" fill="none" xmlns="http://www.w3.org/2000/svg">
<path fill-rule="evenodd" clip-rule="evenodd" d="M30 41C31.6569 41 33 39.6569 33 38C33 36.3431 31.6569 35 30 35C28.3431 35 27 36.3431 27 38C27 39.6569 28.3431 41 30 41ZM30 44C33.3137 44 36 41.3137 36 38C36 34.6863 33.3137 32 30 32C26.6863 32 24 34.6863 24 38C24 41.3137 26.6863 44 30 44Z" fill="#18202A"/>
<path fill-rule="evenodd" clip-rule="evenodd" d="M30 13C31.6569 13 33 11.6569 33 10C33 8.34315 31.6569 7 30 7C28.3431 7 27 8.34315 27 10C27 11.6569 28.3431 13 30 13ZM30 16C33.3137 16 36 13.3137 36 10C36 6.68629 33.3137 4 30 4C26.6863 4 24 6.68629 24 10C24 13.3137 26.6863 16 30 16Z" fill="#18202A"/>
<path fill-rule="evenodd" clip-rule="evenodd" d="M18 27C19.6569 27 21 25.6569 21 24C21 22.3431 19.6569 21 18 21C16.3431 21 15 22.3431 15 24C15 25.6569 16.3431 27 18 27ZM18 30C21.3137 30 24 27.3137 24 24C24 20.6863 21.3137 18 18 18C14.6863 18 12 20.6863 12 24C12 27.3137 14.6863 30 18 30Z" fill="#18202A"/>
<path d="M2 38C2 37.1716 2.67157 36.5 3.5 36.5H20.5C21.3284 36.5 22 37.1716 22 38C22 38.8284 21.3284 39.5 20.5 39.5H3.5C2.67157 39.5 2 38.8284 2 38Z" fill="#18202A"/>
<path d="M2 10C2 9.17157 2.67157 8.5 3.5 8.5H20.5C21.3284 8.5 22 9.17157 22 10C22 10.8284 21.3284 11.5 20.5 11.5H3.5C2.67157 11.5 2 10.8284 2 10Z" fill="#18202A"/>
<path d="M26 24C26 23.1716 26.6716 22.5 27.5 22.5H44.5C45.3284 22.5 46 23.1716 46 24C46 24.8284 45.3284 25.5 44.5 25.5H27.5C26.6716 25.5 26 24.8284 26 24Z" fill="#18202A"/>
<path d="M38 38C38 37.1716 38.6716 36.5 39.5 36.5H44.5C45.3284 36.5 46 37.1716 46 38C46 38.8284 45.3284 39.5 44.5 39.5H39.5C38.6716 39.5 38 38.8284 38 38Z" fill="#18202A"/>
<path d="M38 10C38 9.17157 38.6716 8.5 39.5 8.5H44.5C45.3284 8.5 46 9.17157 46 10C46 10.8284 45.3284 11.5 44.5 11.5H39.5C38.6716 11.5 38 10.8284 38 10Z" fill="#18202A"/>
<path d="M2 24C2 23.1716 2.67157 22.5 3.5 22.5H8.5C9.32843 22.5 10 23.1716 10 24C10 24.8284 9.32843 25.5 8.5 25.5H3.5C2.67157 25.5 2 24.8284 2 24Z" fill="#18202A"/>
</svg>
