<svg width="48" height="48" viewBox="0 0 48 48" fill="none" xmlns="http://www.w3.org/2000/svg">
<path fill-rule="evenodd" clip-rule="evenodd" d="M30 5H10C7.23858 5 5 7.23858 5 10V30C5 32.7614 7.23858 35 10 35L10 18C10 13.5817 13.5817 10 18 10H35C35 7.23858 32.7614 5 30 5ZM10 38C5.58172 38 2 34.4183 2 30V10C2 5.58172 5.58172 2 10 2H30C34.4183 2 38 5.58172 38 10C42.4183 10 46 13.5817 46 18V38C46 42.4183 42.4183 46 38 46H18C13.5817 46 10 42.4183 10 38ZM18 13H38C40.7614 13 43 15.2386 43 18V38C43 40.7614 40.7614 43 38 43H18C15.2386 43 13 40.7614 13 38V18C13 15.2386 15.2386 13 18 13Z" fill="#18202A"/>
</svg>
