<svg width="48" height="48" viewBox="0 0 48 48" fill="none" xmlns="http://www.w3.org/2000/svg">
<path d="M6.40812 8.56406C10.9447 7.63944 15.6397 7.85417 20.0729 9.18902C24.5061 10.5239 28.5391 12.9372 31.8109 16.2129C35.0827 19.4886 37.4911 23.5246 38.8207 27.9594C40.1502 32.3941 40.3593 37.0894 39.4292 41.6248C39.2073 42.7069 39.9046 43.764 40.9867 43.9858C42.0687 44.2077 43.1258 43.5104 43.3477 42.4284C44.4106 37.2451 44.1716 31.879 42.6522 26.8107C41.1327 21.7423 38.3802 17.1299 34.641 13.3862C30.9018 9.64249 26.2926 6.88442 21.2261 5.35888C16.1596 3.83334 10.7939 3.58793 5.60927 4.64464C4.52696 4.86524 3.82839 5.92145 4.04898 7.00377C4.26958 8.08609 5.3258 8.78466 6.40812 8.56406Z" fill="#18202A"/>
<path d="M15.563 20.4018C12.6152 19.7284 9.53687 19.9042 6.68484 20.9087C5.643 21.2756 4.50096 20.7285 4.13402 19.6866C3.76709 18.6448 4.3142 17.5028 5.35604 17.1358C8.92108 15.8802 12.7689 15.6605 16.4537 16.5022C20.1385 17.3439 23.5094 19.2125 26.1757 21.8914C28.842 24.5704 30.6946 27.9501 31.5188 31.6388C32.343 35.3275 32.105 39.1743 30.8325 42.7334C30.4606 43.7734 29.316 44.3151 28.2759 43.9433C27.2358 43.5714 26.6942 42.4268 27.066 41.3867C28.084 38.5395 28.2744 35.462 27.615 32.511C26.9557 29.5601 25.4736 26.8563 23.3405 24.7131C21.2075 22.57 18.5108 21.0751 15.563 20.4018Z" fill="#18202A"/>
<path fill-rule="evenodd" clip-rule="evenodd" d="M20 36C20 40.4183 16.4183 44 12 44C7.58172 44 4 40.4183 4 36C4 31.5817 7.58172 28 12 28C16.4183 28 20 31.5817 20 36ZM16 36C16 38.2091 14.2091 40 12 40C9.79086 40 8 38.2091 8 36C8 33.7909 9.79086 32 12 32C14.2091 32 16 33.7909 16 36Z" fill="#18202A"/>
</svg>
