<svg width="48" height="48" viewBox="0 0 48 48" fill="none" xmlns="http://www.w3.org/2000/svg">
<path fill-rule="evenodd" clip-rule="evenodd" d="M34.8349 6C36.2937 6 37.6368 6.79413 38.3398 8.07233L45.3486 20.8157C45.7711 21.5839 45.9296 22.4696 45.7995 23.3367L43.511 38.5934C43.2173 40.5514 41.5352 42 39.5553 42H8.44475C6.46477 42 4.78272 40.5514 4.48901 38.5934L2.20051 23.3367C2.07045 22.4696 2.22887 21.5839 2.65139 20.8157L9.66023 8.07232C10.3632 6.79413 11.7063 6 13.1651 6H34.8349ZM7.49424 21.2606C7.3125 21.5938 7.55366 22 7.93319 22H16C17.1046 22 17.9674 22.92 18.3287 23.9638C19.1421 26.3131 21.3741 28 24 28C26.626 28 28.8579 26.3131 29.6713 23.9638C30.0326 22.92 30.8954 22 32 22H40.0668C40.4464 22 40.6875 21.5938 40.5058 21.2606L34.9322 11.0423C34.5817 10.3998 33.9083 10 33.1764 10H14.8236C14.0917 10 13.4183 10.3998 13.0678 11.0423L7.49424 21.2606Z" fill="#18202A"/>
</svg>
