<svg width="48" height="48" viewBox="0 0 48 48" fill="none" xmlns="http://www.w3.org/2000/svg">
<path fill-rule="evenodd" clip-rule="evenodd" d="M5.0409 23.2792V23.3818C5.0409 29.3603 7.39764 33.8476 11.0306 36.7909L12.0254 37.5969L12.4333 42.4918L17.5286 40.1401L18.5365 40.3787C19.6453 40.6412 20.8029 40.8233 22 40.9196V42C22 42.6706 22.0825 43.3219 22.2379 43.9443C20.7253 43.849 19.256 43.632 17.8453 43.298L12.3935 45.8142C11.1329 46.396 9.6776 45.548 9.56231 44.1644L9.1421 39.1219C4.77644 35.585 2.0409 30.2264 2.0409 23.3818C1.25602 11.9273 11.8815 2 24.0205 2C36.1594 2 46 10.4 46 23.3818C46 24.7081 45.8737 26.0152 45.628 27.2883C45.1481 25.581 44.2262 24.0586 42.9937 22.8524C42.7347 12.012 34.5227 5 24.0205 5C13.2918 5 4.38905 13.766 5.03389 23.1767L5.0409 23.2792ZM42 31C44.2091 31 46 32.7909 46 35V42C46 44.2091 44.2091 46 42 46H30C27.7909 46 26 44.2091 26 42V35C26 32.7909 27.7909 31 30 31V30C30 26.6863 32.6863 24 36 24C39.3137 24 42 26.6863 42 30V31ZM40 30C40 27.7909 38.2091 26 36 26C33.7909 26 32 27.7909 32 30V31H40V30ZM38 37C38 37.7403 37.5978 38.3866 37 38.7324V41C37 41.5523 36.5523 42 36 42C35.4477 42 35 41.5523 35 41V38.7324C34.4022 38.3866 34 37.7403 34 37C34 35.8954 34.8954 35 36 35C37.1046 35 38 35.8954 38 37Z" fill="#18202A"/>
</svg>
