<svg width="48" height="48" viewBox="0 0 48 48" fill="none" xmlns="http://www.w3.org/2000/svg">
<path d="M20 6C13.7352 6 10 11.0628 10 16C10 16.6687 10.0685 17.3396 10.2025 18H14.3294C14.1127 17.3604 14 16.6833 14 16C14 12.9372 16.2648 10 20 10H28C29.7033 10 31.2923 10.4319 32.3906 11.1641C33.4296 11.8568 34 12.7758 34 14C34 15.1046 34.8954 16 36 16C37.1046 16 38 15.1046 38 14C38 11.2242 36.5704 9.1432 34.6094 7.8359C32.7077 6.56811 30.2967 6 28 6H20Z" fill="#18202A"/>
<path d="M4 24C4 22.8954 4.89543 22 6 22H42C43.1046 22 44 22.8954 44 24C44 25.1046 43.1046 26 42 26H37.962C39.2813 27.6237 40 29.6694 40 32C40 35.1328 38.6367 37.7129 36.3732 39.4587C34.1585 41.1668 31.1948 42 28 42H18C11.7352 42 8 36.9372 8 32C8 30.8954 8.89543 30 10 30C11.1046 30 12 30.8954 12 32C12 35.0628 14.2648 38 18 38H28C30.5431 38 32.5794 37.3332 33.9303 36.2913C35.2323 35.2871 36 33.8672 36 32C36 30.0898 35.2633 28.6789 34.0144 27.6976C32.7124 26.6747 30.691 26 28 26H6C4.89543 26 4 25.1046 4 24Z" fill="#18202A"/>
</svg>
