<svg width="48" height="48" viewBox="0 0 48 48" fill="none" xmlns="http://www.w3.org/2000/svg">
<path d="M13.315 11.4363C8.28069 14.667 4.5109 19.3898 2.64478 22.0288C1.80257 23.2198 1.80257 24.7802 2.64478 25.9712C5.66941 30.2486 13.695 40 24 40C28.9103 40 33.303 37.786 36.8838 35.0051L34.7441 32.8654C31.5305 35.2957 27.8783 37 24 37C19.8059 37 15.8762 35.0068 12.4796 32.2577C9.10359 29.5252 6.52354 26.2604 5.09424 24.2391C5.03379 24.1537 5.01312 24.0717 5.01312 24C5.01312 23.9283 5.03379 23.8463 5.09424 23.7609C6.52354 21.7396 9.10359 18.4748 12.4796 15.7423C13.443 14.9625 14.4493 14.2436 15.4924 13.6137L13.315 11.4363Z" fill="#18202A"/>
<path d="M19.3606 17.4819C17.3264 18.9324 16 21.3113 16 24C16 28.4183 19.5817 32 24 32C26.6887 32 29.0676 30.6736 30.5181 28.6394L28.3484 26.4698C27.4883 27.9809 25.8632 29 24 29C21.2386 29 19 26.7614 19 24C19 22.1368 20.0191 20.5117 21.5302 19.6516L19.3606 17.4819Z" fill="#18202A"/>
<path d="M25.2891 19.1677L22.3019 16.1806C22.8492 16.0623 23.4173 16 24 16C28.4183 16 32 19.5817 32 24C32 24.5827 31.9377 25.1508 31.8194 25.6981L28.8323 22.7109C28.3732 20.9855 27.0145 19.6268 25.2891 19.1677Z" fill="#18202A"/>
<path d="M37.0551 30.9338C39.6807 28.5275 41.7016 25.942 42.9058 24.2391C42.9663 24.1537 42.9869 24.0717 42.9869 24C42.9869 23.9283 42.9663 23.8463 42.9058 23.7609C41.4765 21.7396 38.8965 18.4748 35.5204 15.7423C32.1238 12.9932 28.1942 11 24 11C22.035 11 20.128 11.4375 18.3067 12.1853L16.0348 9.91351C18.4774 8.74501 21.1516 8 24 8C34.305 8 42.3306 17.7514 45.3553 22.0288C46.1975 23.2198 46.1975 24.7802 45.3553 25.9712C44.0967 27.751 41.9724 30.4785 39.1782 33.0569L37.0551 30.9338Z" fill="#18202A"/>
<path fill-rule="evenodd" clip-rule="evenodd" d="M5.93934 5.93934C6.52513 5.35355 7.47487 5.35355 8.06066 5.93934L42.0607 39.9393C42.6464 40.5251 42.6464 41.4749 42.0607 42.0607C41.4749 42.6464 40.5251 42.6464 39.9393 42.0607L5.93934 8.06066C5.35355 7.47487 5.35355 6.52513 5.93934 5.93934Z" fill="#18202A"/>
</svg>
