<svg width="48" height="48" viewBox="0 0 48 48" fill="none" xmlns="http://www.w3.org/2000/svg">
<path d="M16 6C16 5.26241 15.594 4.58469 14.9437 4.23665C14.2934 3.88862 13.5043 3.92676 12.8906 4.3359L6.89057 8.3359C5.97151 8.94861 5.72316 10.1903 6.33587 11.1094C6.94857 12.0285 8.19031 12.2768 9.10937 11.6641L12 9.73704V18C12 19.1046 12.8954 20 14 20C15.1045 20 16 19.1046 16 18V6Z" fill="#18202A"/>
<path d="M10 30C10 29.3827 10.8042 28 13 28C15.0376 28 16 29.2416 16 30.5C16 31.0321 15.8675 31.414 15.1321 32.1034C14.5344 32.6638 13.7589 33.2289 12.6689 34.0231C12.1287 34.4166 11.5113 34.8665 10.8 35.4L6.80001 38.4C6.11132 38.9165 5.83041 39.8158 6.10264 40.6325C6.37487 41.4491 7.13915 42 8.00001 42H18C19.1046 42 20 41.1046 20 40C20 38.8954 19.1046 38 18 38H14.0093C14.2666 37.8111 14.5196 37.6266 14.7669 37.4463C15.9949 36.5508 17.0831 35.7573 17.8679 35.0216C19.1325 33.836 20 32.4679 20 30.5C20 26.7584 16.9624 24 13 24C9.19579 24 6.00001 26.6173 6.00001 30C6.00001 31.1046 6.89544 32 8.00001 32C9.10458 32 10 31.1046 10 30Z" fill="#18202A"/>
<path d="M24 10C24 8.89543 24.8954 8 26 8H42C43.1046 8 44 8.89543 44 10C44 11.1046 43.1046 12 42 12H26C24.8954 12 24 11.1046 24 10Z" fill="#18202A"/>
<path d="M26 14C24.8954 14 24 14.8954 24 16C24 17.1046 24.8954 18 26 18H42C43.1046 18 44 17.1046 44 16C44 14.8954 43.1046 14 42 14H26Z" fill="#18202A"/>
<path d="M24 32C24 30.8954 24.8954 30 26 30H42C43.1046 30 44 30.8954 44 32C44 33.1046 43.1046 34 42 34H26C24.8954 34 24 33.1046 24 32Z" fill="#18202A"/>
<path d="M26 36C24.8954 36 24 36.8954 24 38C24 39.1046 24.8954 40 26 40H42C43.1046 40 44 39.1046 44 38C44 36.8954 43.1046 36 42 36H26Z" fill="#18202A"/>
</svg>
