<svg width="48" height="48" viewBox="0 0 48 48" fill="none" xmlns="http://www.w3.org/2000/svg">
<g clip-path="url(#clip0_2294_11638)">
<path fill-rule="evenodd" clip-rule="evenodd" d="M10 33.9998L21.6267 44.6266C24.8354 47.5594 30 45.2831 30 40.936V7.06406C30 2.71703 24.8356 0.44064 21.6268 3.37331L10 13.9998H6C2.68629 13.9998 0 16.686 0 19.9998V27.9998C0 31.3135 2.68629 33.9998 6 33.9998H10ZM11.1645 30.9998L23.6507 42.4122C24.9342 43.5854 27 42.6748 27 40.936V7.06406C27 5.32524 24.9342 4.4147 23.6507 5.58776L11.1644 16.9998H11V30.9998H11.1645ZM6 16.9998H8V30.9998H6C4.34315 30.9998 3 29.6566 3 27.9998V19.9998C3 18.3429 4.34315 16.9998 6 16.9998Z" fill="#18202A"/>
<path d="M34.431 19.1493C33.8985 18.5147 33.9813 17.5685 34.6159 17.036C35.2505 16.5035 36.1966 16.5863 36.7291 17.2209L41.0438 22.3629L45.3584 17.2209C45.8909 16.5863 46.8371 16.5035 47.4717 17.036C48.1063 17.5685 48.1891 18.5147 47.6566 19.1493L43.0019 24.6965L47.6565 30.2437C48.189 30.8783 48.1062 31.8244 47.4716 32.3569C46.837 32.8894 45.8909 32.8066 45.3584 32.172L41.0438 27.0301L36.7292 32.172C36.1967 32.8066 35.2505 32.8894 34.6159 32.3569C33.9813 31.8244 33.8985 30.8783 34.431 30.2437L39.0857 24.6965L34.431 19.1493Z" fill="#18202A"/>
</g>
<defs>
<clipPath id="clip0_2294_11638">
<rect width="48" height="48" fill="white"/>
</clipPath>
</defs>
</svg>
