<svg width="48" height="48" viewBox="0 0 48 48" fill="none" xmlns="http://www.w3.org/2000/svg">
<path fill-rule="evenodd" clip-rule="evenodd" d="M6.44202 6.44202C7.03137 5.85266 7.98691 5.85266 8.57626 6.44202L41.558 39.4237C41.5731 39.4389 41.5879 39.4543 41.6023 39.4699L41.7903 39.6579L41.7531 39.6631C42.1379 40.2486 42.0729 41.0431 41.558 41.558C40.9686 42.1473 40.0131 42.1473 39.4237 41.558L35.7288 37.863C35.5361 38.3456 35.3319 38.8224 35.1167 39.2931C34.0527 41.6197 31.8684 43.2308 29.3379 43.607C27.5961 43.8659 25.8136 44 23.9998 44C22.186 44 20.4035 43.8659 18.6618 43.607C16.1312 43.2308 13.9469 41.6197 12.8829 39.2931C12.5075 38.4721 12.1658 37.6325 11.8595 36.7761C10.8124 33.8474 11.6888 30.506 14.3083 28.8291C17.0709 27.0606 20.3486 26.026 23.8662 26.0005L15.9014 18.0356C15.967 18.4229 15.9998 18.8291 15.9998 19.25C15.9998 23 14.3331 26 10.9998 26C7.66648 26 5.99982 23 5.99982 19.25C5.99982 16.25 7.66648 14 10.9998 14C11.3254 14 11.635 14.0215 11.9287 14.063L6.44202 8.57626C5.85266 7.98691 5.85266 7.03137 6.44202 6.44202ZM33.3933 35.5275L27.2093 29.3435C26.1761 29.1185 25.1024 29 23.9998 29C21.0218 29 18.2549 29.8647 15.9257 31.3558C14.6617 32.165 14.0327 33.9434 14.6844 35.766C14.9617 36.5415 15.2712 37.3019 15.6112 38.0455C16.2434 39.4279 17.5538 40.4093 19.1028 40.6396C20.6991 40.8768 22.3341 41 23.9998 41C25.6655 41 27.3005 40.8768 28.8968 40.6396C30.4458 40.4093 31.7562 39.4279 32.3884 38.0455C32.7284 37.3019 33.0379 36.5415 33.3152 35.766C33.3437 35.6864 33.3697 35.6069 33.3933 35.5275ZM12.2734 22.338C12.6616 21.7701 12.9998 20.7358 12.9998 19.25C12.9998 18.2795 12.7318 17.7453 12.5076 17.4931C12.3303 17.2936 11.9494 17 10.9998 17C10.0502 17 9.66933 17.2936 9.49204 17.4931C9.26787 17.7453 8.99982 18.2795 8.99982 19.25C8.99982 20.7358 9.338 21.7701 9.72626 22.338C10.0328 22.7862 10.3796 23 10.9998 23C11.62 23 11.9669 22.7862 12.2734 22.338Z" fill="#18202A"/>
<path d="M26.9998 15C26.9998 17.0583 26.5992 18.6483 26.0311 19.6561L28.199 21.824C29.3995 20.1783 29.9998 17.7392 29.9998 15C29.9998 11 27.9998 8 23.9998 8C21.0664 8 19.2086 9.61341 18.4264 12.0514L21.0074 14.6324C21.0639 13.2944 21.4263 12.3942 21.8424 11.8741C22.2234 11.3978 22.8286 11 23.9998 11C25.1711 11 25.7762 11.3978 26.1572 11.8741C26.6103 12.4404 26.9998 13.4576 26.9998 15Z" fill="#18202A"/>
<path d="M44.7655 38.3905L42.6249 36.2499C43.0961 35.9364 43.4489 35.4765 43.6248 34.9326C43.9969 33.7821 43.5013 32.8287 42.8571 32.4893C41.6924 31.8756 40.4226 31.4334 39.0795 31.1971C38.7033 30.0425 38.1075 28.9544 37.2856 28.0069C39.797 28.0805 42.1632 28.7328 44.2555 29.8351C46.3971 30.9634 47.2241 33.5525 46.4792 35.8557C46.1511 36.8703 45.5491 37.738 44.7655 38.3905Z" fill="#18202A"/>
<path fill-rule="evenodd" clip-rule="evenodd" d="M41.9998 19.25C41.9998 23 40.3331 26 36.9998 26C33.6665 26 31.9998 23 31.9998 19.25C31.9998 16.25 33.6665 14 36.9998 14C40.3331 14 41.9998 16.25 41.9998 19.25ZM38.9998 19.25C38.9998 20.7358 38.6616 21.7701 38.2734 22.338C37.9669 22.7862 37.62 23 36.9998 23C36.3796 23 36.0328 22.7862 35.7263 22.338C35.338 21.7701 34.9998 20.7358 34.9998 19.25C34.9998 18.2795 35.2679 17.7453 35.492 17.4931C35.6693 17.2936 36.0502 17 36.9998 17C37.9494 17 38.3303 17.2936 38.5076 17.4931C38.7318 17.7453 38.9998 18.2795 38.9998 19.25Z" fill="#18202A"/>
<path d="M4.01522 29.4972C6.05286 28.5447 8.32433 28.0091 10.7199 28C9.91124 28.9304 9.32091 29.9967 8.94274 31.1286C7.65089 31.3112 6.42288 31.6833 5.28552 32.2149C4.55119 32.5582 3.97493 33.6072 4.3835 34.8791C4.70467 35.8788 5.581 36.612 6.69382 36.7494C7.38023 36.8342 8.07348 36.8979 8.77292 36.9398C8.84791 37.2253 8.93521 37.5077 9.03471 37.786C9.30167 38.5326 9.59323 39.2674 9.9084 39.9895C8.69863 39.9607 7.50365 39.8722 6.32627 39.7268C4.08899 39.4506 2.21672 37.9429 1.52726 35.7966C0.739246 33.3436 1.6811 30.5881 4.01522 29.4972Z" fill="#18202A"/>
</svg>
