<svg width="48" height="48" viewBox="0 0 48 48" fill="none" xmlns="http://www.w3.org/2000/svg">
<path fill-rule="evenodd" clip-rule="evenodd" d="M38 5H10C7.23858 5 5 7.23858 5 10V38C5 40.7614 7.23858 43 10 43H25.9963C26.4474 44.0818 27.0405 45.0895 27.7523 46H10C5.58172 46 2 42.4183 2 38V10C2 5.58172 5.58172 2 10 2H38C42.4183 2 46 5.58172 46 10V27.7523C45.0895 27.0405 44.0818 26.4474 43 25.9963V10C43 7.23858 40.7614 5 38 5ZM25.156 35.9799C25.7669 32.0646 28.1251 28.728 31.4081 26.7929C31.1894 26.5253 30.9314 26.2844 30.6348 26.0786C28.7445 24.7668 26.4603 24 24.0002 24C21.5402 24 19.256 24.7668 17.3658 26.0785C15.8537 27.1278 15.3456 29.0896 15.9253 30.8365C16.1815 31.6088 16.48 32.3613 16.8179 33.0911C17.4659 34.4906 18.7729 35.4692 20.2956 35.7138C21.5025 35.9076 22.7398 36.0082 24.0002 36.0082C24.3877 36.0082 24.7731 35.9987 25.156 35.9799ZM33.24 25.8991C34.6696 25.3363 36.2229 25.0195 37.8479 25.0009C36.3835 24.3341 34.7449 23.9609 33.0152 23.9609C32.4164 23.9609 31.8286 24.0057 31.2551 24.0918C31.4311 24.2025 31.6045 24.3171 31.775 24.4354C32.3703 24.8485 32.8576 25.3462 33.24 25.8991ZM24 22C26.6667 22 28 19.5 28 16.375C28 13.875 26.6667 12 24 12C21.3333 12 20 13.875 20 16.375C20 19.5 21.3333 22 24 22ZM13 22C15 22 16 20 16 17.5C16 15.5 15 14 13 14C11 14 10 15.5 10 17.5C10 20 11 22 13 22ZM38 17.5C38 20 37 22 35 22C33 22 32 20 32 17.5C32 15.5 33 14 35 14C37 14 38 15.5 38 17.5ZM16.2256 24.4354C16.3773 24.3301 16.5312 24.2278 16.6872 24.1286C16.0414 24.0184 15.3766 23.9609 14.6977 23.9609C12.8182 23.9609 11.0463 24.4015 9.48854 25.1806C8.16621 25.842 7.61013 27.3919 8.05155 28.803C8.13726 29.077 8.22852 29.3487 8.3252 29.618C8.74623 30.7908 9.7924 31.6182 11.0266 31.7896C12.0734 31.935 13.1409 32.0191 14.225 32.0381C14.1566 31.8486 14.0907 31.6581 14.0271 31.4664C13.2106 29.0062 13.8791 26.0636 16.2256 24.4354ZM48 38C48 43.5228 43.5228 48 38 48C32.4772 48 28 43.5228 28 38C28 32.4772 32.4772 28 38 28C43.5228 28 48 32.4772 48 38ZM38 32C38.8284 32 39.5 32.6716 39.5 33.5V36.5H42.5C43.3284 36.5 44 37.1716 44 38C44 38.8284 43.3284 39.5 42.5 39.5H39.5V42.5C39.5 43.3284 38.8284 44 38 44C37.1716 44 36.5 43.3284 36.5 42.5V39.5H33.5C32.6716 39.5 32 38.8284 32 38C32 37.1716 32.6716 36.5 33.5 36.5H36.5V33.5C36.5 32.6716 37.1716 32 38 32Z" fill="#18202A"/>
</svg>
