<svg width="48" height="48" viewBox="0 0 48 48" fill="none" xmlns="http://www.w3.org/2000/svg">
<path fill-rule="evenodd" clip-rule="evenodd" d="M24 42C33.9411 42 42 33.9411 42 24C42 14.0589 33.9411 6 24 6C14.0589 6 6 14.0589 6 24C6 33.9411 14.0589 42 24 42ZM24 46C36.1503 46 46 36.1503 46 24C46 11.8497 36.1503 2 24 2C11.8497 2 2 11.8497 2 24C2 36.1503 11.8497 46 24 46Z" fill="#18202A"/>
<path d="M31 17.875C31 23.5 28.6667 28 24 28C19.3333 28 17 23.5 17 17.875C17 13.375 19.3333 10 24 10C28.6667 10 31 13.375 31 17.875Z" fill="#18202A"/>
<path d="M8.04449 39.1467C8.36666 37.8703 9.01624 36.6817 9.99865 35.7185C13.6063 32.1812 18.5484 30 24 30C29.4516 30 34.3937 32.1812 38.0014 35.7184C38.9838 36.6817 39.6334 37.8703 39.9555 39.1467C35.947 43.368 30.2808 46 24 46C17.7192 46 12.0531 43.368 8.04449 39.1467Z" fill="#18202A"/>
</svg>
