<svg width="48" height="48" viewBox="0 0 48 48" fill="none" xmlns="http://www.w3.org/2000/svg">
<path fill-rule="evenodd" clip-rule="evenodd" d="M19.636 9.87868L22.7574 13H38C40.7614 13 43 15.2386 43 18H5V14C5 11.2386 7.23858 9 10 9H17.5147C18.3104 9 19.0734 9.31607 19.636 9.87868ZM5 20V34C5 36.7614 7.23858 39 10 39H38C40.7614 39 43 36.7614 43 34V20H5ZM2 14C2 9.58172 5.58172 6 10 6H17.5147C19.106 6 20.6321 6.63214 21.7574 7.75736L24 10H38C42.4183 10 46 13.5817 46 18V34C46 38.4183 42.4183 42 38 42H10C5.58172 42 2 38.4183 2 34V14Z" fill="#18202A"/>
</svg>
