<svg width="48" height="48" viewBox="0 0 48 48" fill="none" xmlns="http://www.w3.org/2000/svg">
<g clip-path="url(#clip0_2296_15130)">
<path fill-rule="evenodd" clip-rule="evenodd" d="M10 5H38C40.7614 5 43 7.23858 43 10V26.9934C44.2661 27.9425 45.2997 29.1849 46 30.6198V10C46 5.58172 42.4183 2 38 2H10C5.58172 2 2 5.58172 2 10V38C2 42.4183 5.58172 46 10 46H26.3392C25.4941 45.2367 25.0113 44.1275 25.0002 43H10C7.23858 43 5 40.7614 5 38V10C5 7.23858 7.23858 5 10 5ZM40 25.4554V23C40 20.7909 38.2091 19 36 19H12C9.79086 19 8 20.7909 8 23V36C8 38.2091 9.79086 40 12 40H26.3601C26.439 39.9314 26.5215 39.8647 26.6078 39.8C26.8596 39.6111 27.0078 39.3148 27.0078 39V37H12C11.4477 37 11 36.5523 11 36V23C11 22.4477 11.4477 22 12 22H36C36.5523 22 37 22.4477 37 23V25C37.0026 25 37.0052 25 37.0078 25C38.0501 25 39.0552 25.1595 40 25.4554ZM12 8C9.79086 8 8 9.79086 8 12C8 14.2091 9.79086 16 12 16C14.2091 16 16 14.2091 16 12C16 9.79086 14.2091 8 12 8ZM20 12C20 11.1716 20.6716 10.5 21.5 10.5H37.5C38.3284 10.5 39 11.1716 39 12C39 12.8284 38.3284 13.5 37.5 13.5H21.5C20.6716 13.5 20 12.8284 20 12Z" fill="#18202A"/>
<path fill-rule="evenodd" clip-rule="evenodd" d="M44 35L44 35.0291V40C44 40.6295 44.2964 41.2223 44.8 41.6L45.6 42.2C46.3688 42.7766 45.961 44 45 44H29C28.039 44 27.6312 42.7766 28.4 42.2L29.2 41.6C29.7036 41.2223 30 40.6295 30 40V35C30 35 30 35 30 35C30 35 30 35 30 35C30.0001 31.134 33.1341 28 37 28C40.866 28 44 31.134 44 35ZM35 46C34.4478 46 34 46.4477 34 47C34 47.5523 34.4478 48 35 48H39C39.5523 48 40 47.5523 40 47C40 46.4477 39.5523 46 39 46H35Z" fill="#18202A"/>
</g>
<defs>
<clipPath id="clip0_2296_15130">
<rect width="48" height="48" fill="white"/>
</clipPath>
</defs>
</svg>
