<svg width="48" height="48" viewBox="0 0 48 48" fill="none" xmlns="http://www.w3.org/2000/svg">
<path d="M14 9C14 10.6569 15.3431 12 17 12C18.6569 12 20 10.6569 20 9C20 7.34315 18.6569 6 17 6C15.3431 6 14 7.34315 14 9Z" fill="#18202A"/>
<path d="M28 9C28 10.6569 29.3431 12 31 12C32.6569 12 34 10.6569 34 9C34 7.34315 32.6569 6 31 6C29.3431 6 28 7.34315 28 9Z" fill="#18202A"/>
<path d="M31 26C29.3431 26 28 24.6569 28 23C28 21.3431 29.3431 20 31 20C32.6569 20 34 21.3431 34 23C34 24.6569 32.6569 26 31 26Z" fill="#18202A"/>
<path d="M14 23C14 24.6569 15.3431 26 17 26C18.6569 26 20 24.6569 20 23C20 21.3431 18.6569 20 17 20C15.3431 20 14 21.3431 14 23Z" fill="#18202A"/>
<path d="M31 40C29.3431 40 28 38.6569 28 37C28 35.3431 29.3431 34 31 34C32.6569 34 34 35.3431 34 37C34 38.6569 32.6569 40 31 40Z" fill="#18202A"/>
<path d="M14 37C14 38.6569 15.3431 40 17 40C18.6569 40 20 38.6569 20 37C20 35.3431 18.6569 34 17 34C15.3431 34 14 35.3431 14 37Z" fill="#18202A"/>
</svg>
