<svg width="48" height="48" viewBox="0 0 48 48" fill="none" xmlns="http://www.w3.org/2000/svg">
<path d="M34.1583 4.48056L34.18 4.49188C34.2659 4.53681 34.3515 4.58229 34.4367 4.62832C34.5257 4.67634 34.6157 4.72573 34.7052 4.77572C34.7812 4.81813 34.8559 4.86041 34.9304 4.90312C35.0416 4.96692 35.1524 5.03178 35.2626 5.09757C35.3181 5.13069 35.374 5.16441 35.4298 5.19837C35.5626 5.27928 35.6937 5.36107 35.8238 5.44418C35.8611 5.46799 35.899 5.49232 35.9367 5.51677C36.0595 5.59618 36.181 5.67656 36.3017 5.7581C36.3474 5.78903 36.3931 5.82014 36.4387 5.85142L36.4671 5.87096C36.7924 6.09515 37.1115 6.32787 37.4239 6.56881C37.4755 6.60861 37.5269 6.64864 37.5782 6.6889C37.6751 6.76503 37.771 6.84167 37.8663 6.91909C37.9398 6.97887 38.0131 7.03923 38.086 7.10004C38.1773 7.17624 38.2687 7.25371 38.3593 7.3319C38.4085 7.37427 38.4569 7.41642 38.5052 7.45879C38.7988 7.71648 39.0858 7.98215 39.3656 8.25522L39.4103 8.29898C39.4612 8.34893 39.5119 8.39913 39.5623 8.44957C39.6469 8.53432 39.7309 8.61969 39.8141 8.70574C39.8457 8.73837 39.8764 8.77035 39.9071 8.80242C40.1422 9.04842 40.3726 9.30096 40.5972 9.55877C40.6393 9.60713 40.6818 9.65641 40.7241 9.70588L40.8259 9.82568C40.8403 9.84277 40.8547 9.85989 40.869 9.87702C40.9582 9.98345 41.0469 10.0913 41.1345 10.1999C44.1773 13.9723 46 18.7733 46 24C46 29.0564 44.2941 33.7145 41.4265 37.4299L41.7745 36.9667C41.6261 37.1697 41.4743 37.3702 41.3192 37.5678C41.2275 37.6847 41.1352 37.8 41.0418 37.9143C40.9918 37.9755 40.9412 38.0367 40.8903 38.0976C40.632 38.4067 40.3651 38.709 40.0902 39.0037C40.0326 39.0653 39.9752 39.1263 39.9173 39.1868C39.846 39.2616 39.7739 39.336 39.7014 39.41C39.6216 39.4912 39.5412 39.5719 39.4601 39.652C39.377 39.7341 39.2931 39.8156 39.2086 39.8965C39.1628 39.9404 39.1167 39.9841 39.0704 40.0276C38.7677 40.3124 38.4571 40.5885 38.1388 40.8558C38.081 40.9043 38.0219 40.9534 37.9625 41.0023C37.882 41.0685 37.8013 41.1338 37.7202 41.1987C37.6218 41.2772 37.5233 41.3545 37.4241 41.4311C37.1495 41.6428 36.87 41.8481 36.5856 42.0468C36.5516 42.0706 36.5174 42.0943 36.4831 42.118C36.1412 42.354 35.7922 42.5807 35.4365 42.7975C35.3905 42.8256 35.3459 42.8525 35.3012 42.8793C35.1754 42.9548 35.0472 43.03 34.9182 43.1039C34.8518 43.1419 34.7852 43.1796 34.7183 43.217C34.3754 43.4086 34.0279 43.5908 33.675 43.7639L33.5988 43.8011C33.5427 43.8283 33.4865 43.8554 33.4301 43.8822C33.315 43.9369 33.1995 43.9905 33.0835 44.0431C32.9944 44.0836 32.9044 44.1237 32.8141 44.1632C32.7276 44.2011 32.6417 44.2381 32.5554 44.2745C32.4551 44.3169 32.3541 44.3587 32.2529 44.3997C32.1575 44.4383 32.0609 44.4766 31.9639 44.5143C31.8263 44.5678 31.6882 44.6198 31.5495 44.6705C31.4047 44.7234 31.2595 44.7747 31.1135 44.8245C31.0712 44.839 31.03 44.8529 30.9887 44.8668C30.8232 44.9222 30.6557 44.976 30.4874 45.0279C30.4316 45.0451 30.3764 45.0618 30.3211 45.0784C30.1761 45.1218 30.0296 45.164 29.8825 45.2048C29.8196 45.2222 29.7569 45.2392 29.6941 45.256C29.2834 45.3657 28.8679 45.4639 28.448 45.5501C28.4348 45.5528 28.4234 45.5552 28.412 45.5575L27.9545 45.6455C26.6717 45.8784 25.35 46 24 46C14.0275 46 5.60469 39.3646 2.90578 30.268L2.9052 30.266L2.87402 30.1599C2.81728 29.965 2.76316 29.7689 2.7117 29.5718L2.9052 30.266C2.81394 29.9583 2.72923 29.6478 2.65123 29.3347C2.61213 29.1777 2.57492 29.0209 2.5394 28.8635C2.52134 28.7835 2.5036 28.7028 2.48631 28.6219C2.45649 28.4824 2.42797 28.3423 2.40079 28.2018C2.37393 28.0629 2.34837 27.9235 2.32413 27.7836C2.29502 27.6156 2.2679 27.4477 2.24271 27.2791C2.23031 27.1961 2.21838 27.1129 2.20691 27.0297C2.18084 26.8404 2.15716 26.6502 2.13593 26.4594C2.13257 26.4292 2.12922 26.3985 2.12593 26.3678C2.1013 26.1375 2.08029 25.907 2.06285 25.6755C2.05693 25.5968 2.05149 25.519 2.04645 25.441C2.03443 25.2553 2.02467 25.0679 2.01727 24.8799C2.01502 24.8226 2.01301 24.766 2.01122 24.7094C2.00375 24.4739 2 24.2374 2 24C2 11.8497 11.8497 2 24 2C24.2266 2 24.4524 2.00343 24.6773 2.01023L24 2C24.2436 2 24.4863 2.00396 24.728 2.01182C24.9264 2.01826 25.1246 2.02737 25.3222 2.03908C25.3743 2.04216 25.4277 2.04552 25.481 2.04906C25.6296 2.05895 25.7768 2.07022 25.9235 2.08293C25.9945 2.08908 26.0652 2.09554 26.1357 2.10234C26.2697 2.11524 26.4038 2.1294 26.5376 2.14477C26.6309 2.15548 26.7241 2.16679 26.8171 2.17868C27.2189 2.23005 27.6168 2.29215 28.0109 2.36476C28.0709 2.37581 28.1296 2.38688 28.1883 2.39819C28.3364 2.42672 28.4845 2.45687 28.632 2.48849C28.6986 2.50275 28.7653 2.51738 28.832 2.53231C28.9499 2.55873 29.0677 2.58618 29.1853 2.61457C29.2959 2.64131 29.4052 2.66861 29.5141 2.69673C29.6117 2.72191 29.7092 2.7478 29.8064 2.77435C29.8829 2.79521 29.96 2.8167 30.0369 2.8386C30.4353 2.95207 30.8279 3.07607 31.2156 3.2106C31.2699 3.22944 31.3247 3.24873 31.3795 3.26822C31.5223 3.31905 31.6642 3.37123 31.8054 3.42482C31.849 3.44139 31.8924 3.45802 31.9357 3.47478C32.0853 3.53266 32.234 3.59209 32.3819 3.65308C32.4378 3.67612 32.4937 3.69946 32.5496 3.72303C32.693 3.78356 32.8357 3.84562 32.9776 3.90914C33.0154 3.92604 33.0539 3.94341 33.0924 3.96089C33.2532 4.03399 33.4119 4.10846 33.5696 4.18475C33.5972 4.19811 33.6245 4.21135 33.6516 4.22464L33.675 4.23611C33.8373 4.31566 33.9983 4.39716 34.1583 4.48056ZM27 15C30 18 31 25 27 25C23 25 23 28 24 31C24.6866 33.0597 21.9439 33.5788 19.1673 31C17.8998 29.8228 18.0549 26.3553 16 25C10.819 21.5831 8.13355 25.3688 6.37988 27.693C8.08324 35.8631 15.3249 42 24 42C25.0484 42 26.0759 41.9104 27.0752 41.7383C26.8171 36 32.0151 31.7269 38.7024 34.3812C40.7805 31.4495 42 27.8672 42 24C42 18.0508 39.1139 12.7758 34.6654 9.49857C28.5932 8.89929 25.0035 13.0035 27 15Z" fill="#18202A"/>
</svg>
