<svg width="48" height="48" viewBox="0 0 48 48" fill="none" xmlns="http://www.w3.org/2000/svg">
<g clip-path="url(#clip0_3444_9201)">
<path d="M12 6C12 3.79086 13.7909 2 16 2H32C34.2091 2 36 3.79086 36 6V10C36 11.913 35.1047 13.617 33.7102 14.7156C31.9749 16.0828 30 17.7909 30 20V24C30 25.1385 30.4756 26.1658 31.239 26.8943C30.3751 27.4213 29.5776 28.0463 28.8617 28.7538C27.7062 27.5055 27 25.8352 27 24V20C27 17.9526 27.9238 16.3216 28.8767 15.1495C29.8164 13.9937 30.9793 13.048 31.8536 12.3592C32.5571 11.8049 33 10.955 33 10V6C33 5.44772 32.5523 5 32 5H16C15.4477 5 15 5.44772 15 6V10C15 10.955 15.4429 11.8049 16.1464 12.3592C17.0207 13.048 18.1836 13.9937 19.1233 15.1495C20.0762 16.3216 21 17.9526 21 20V24C21 27.866 17.866 31 14 31H10.5714C7.49441 31 5 33.4944 5 36.5714C5 36.8081 5.19188 37 5.42857 37H25.0379C25.0128 37.33 25 37.6635 25 38C25 38.6801 25.0522 39.3481 25.1529 40H5.42857C3.53502 40 2 38.465 2 36.5714C2 31.8376 5.83756 28 10.5714 28H14C16.2091 28 18 26.2091 18 24V20C18 17.7909 16.0251 16.0828 14.2898 14.7156C12.8953 13.617 12 11.913 12 10V6Z" fill="#18202A"/>
<path d="M27.7523 46C26.8255 44.8145 26.0999 43.464 25.627 42H6C4.89543 42 4 42.8954 4 44C4 45.1046 4.89543 46 6 46H27.7523Z" fill="#18202A"/>
<path d="M36.0607 29.4393C36.6465 30.0251 36.6465 30.9749 36.0607 31.5607L34.6214 33H44C44.8285 33 45.5 33.6716 45.5 34.5C45.5 35.3284 44.8285 36 44 36H31C30.3934 36 29.8464 35.6345 29.6142 35.074C29.3821 34.5135 29.5104 33.8683 29.9394 33.4393L33.9394 29.4393C34.5252 28.8536 35.4749 28.8536 36.0607 29.4393Z" fill="#18202A"/>
<path d="M38.9393 46.5607C38.3535 45.9749 38.3535 45.0251 38.9393 44.4393L40.3786 43H31C30.1715 43 29.5 42.3284 29.5 41.5C29.5 40.6716 30.1715 40 31 40H44C44.6066 40 45.1536 40.3655 45.3858 40.926C45.6179 41.4865 45.4896 42.1317 45.0606 42.5607L41.0606 46.5607C40.4748 47.1464 39.5251 47.1464 38.9393 46.5607Z" fill="#18202A"/>
</g>
<defs>
<clipPath id="clip0_3444_9201">
<rect width="48" height="48" fill="white"/>
</clipPath>
</defs>
</svg>
