<svg width="48" height="48" viewBox="0 0 48 48" fill="none" xmlns="http://www.w3.org/2000/svg">
<g clip-path="url(#clip0_2294_11754)">
<path fill-rule="evenodd" clip-rule="evenodd" d="M32 10.75C32 17 29.3333 22 24 22C18.6667 22 16 17 16 10.75C16 5.75 18.6667 2 24 2C29.3333 2 32 5.75 32 10.75ZM29 10.75C29 13.5062 28.4033 15.6842 27.492 17.0725C26.6615 18.3378 25.5651 19 24 19C22.4349 19 21.3385 18.3378 20.508 17.0725C19.5967 15.6842 19 13.5062 19 10.75C19 8.75033 19.5341 7.32391 20.2821 6.44736C20.9722 5.63857 22.092 5 24 5C25.908 5 27.0278 5.63857 27.7179 6.44736C28.4659 7.32391 29 8.75033 29 10.75ZM22.5942 42.9706C23.1189 44.0529 23.7619 45.0672 24.5065 45.9965C24.3379 45.9988 24.1691 46 24 46C20.9052 46 17.9016 45.6095 15.0358 44.875C12.5978 44.2502 10.5314 42.6171 9.3997 40.369C9.06425 39.7026 8.75139 39.0229 8.46215 38.3308C7.23313 35.3902 7.72293 31.9498 9.99863 29.7185C13.6063 26.1812 18.5484 24 24 24C24.7688 24 25.5274 24.0434 26.2736 24.1278C25.3293 24.9815 24.4873 25.9463 23.7683 27.0015C19.2254 27.0621 15.1173 28.9011 12.099 31.8606C10.8113 33.1232 10.4113 35.2148 11.2301 37.174C11.4921 37.8007 11.7754 38.4164 12.0793 39.0201C12.812 40.4755 14.1619 41.5541 15.7806 41.969C17.97 42.53 20.2491 42.8725 22.5942 42.9706ZM34.9503 24C34.4679 24 34.0542 24.3445 33.9669 24.819L33.6173 26.7179C32.4173 27.1326 31.3228 27.7734 30.3848 28.5894L28.56 27.9407C28.1054 27.7791 27.6002 27.9651 27.359 28.3829L25.4917 31.6171C25.2505 32.035 25.342 32.5654 25.7092 32.8783L27.1842 34.135C27.0681 34.7388 27.0073 35.3623 27.0073 36C27.0073 36.6377 27.0681 37.2612 27.1842 37.8651L25.7092 39.1217C25.342 39.4346 25.2505 39.9651 25.4917 40.3829L27.359 43.6171C27.6002 44.035 28.1054 44.221 28.56 44.0594L30.3848 43.4107C31.3229 44.2266 32.4174 44.8674 33.6173 45.2821L33.9669 47.181C34.0542 47.6555 34.4679 48 34.9503 48H38.6849C39.1674 48 39.581 47.6555 39.6684 47.181L40.0169 45.2878C41.2215 44.874 42.3201 44.2325 43.2615 43.4146L45.0753 44.0594C45.5299 44.221 46.0351 44.035 46.2763 43.6171L48.1436 40.3829C48.3848 39.9651 48.2933 39.4346 47.9261 39.1217L46.4645 37.8764C46.5821 37.2691 46.6436 36.6417 46.6436 36C46.6436 35.3583 46.5821 34.731 46.4645 34.1236L47.9261 32.8783C48.2934 32.5654 48.3849 32.035 48.1436 31.6171L46.2763 28.3829C46.0351 27.9651 45.53 27.7791 45.0754 27.9407L43.2616 28.5854C42.3202 27.7675 41.2215 27.126 40.0169 26.7122L39.6684 24.819C39.581 24.3445 39.1674 24 38.6849 24H34.9503ZM36.8163 40C39.0255 40 40.8163 38.2091 40.8163 36C40.8163 33.7909 39.0255 32 36.8163 32C34.6072 32 32.8163 33.7909 32.8163 36C32.8163 38.2091 34.6072 40 36.8163 40Z" fill="#18202A"/>
</g>
<defs>
<clipPath id="clip0_2294_11754">
<rect width="48" height="48" fill="white"/>
</clipPath>
</defs>
</svg>
