<svg width="48" height="48" viewBox="0 0 48 48" fill="none" xmlns="http://www.w3.org/2000/svg">
<path fill-rule="evenodd" clip-rule="evenodd" d="M34 8H12C8.68629 8 6 10.6863 6 14V32C6 35.3137 8.68629 38 12 38H21C21.5523 38 22 38.4477 22 39V41C22 41.5523 21.5523 42 21 42H12C6.47715 42 2 37.5228 2 32V14C2 8.47715 6.47715 4 12 4H34C39.5228 4 44 8.47715 44 14V19C44 19.5523 43.5523 20 43 20H41C40.4477 20 40 19.5523 40 19V14C40 10.6863 37.3137 8 34 8ZM26 30C26 26.6863 28.6863 24 32 24H40C43.3137 24 46 26.6863 46 30V38C46 41.3137 43.3137 44 40 44H32C28.6863 44 26 41.3137 26 38V30Z" fill="#18202A"/>
</svg>
