<svg width="48" height="48" viewBox="0 0 48 48" fill="none" xmlns="http://www.w3.org/2000/svg">
<path d="M38 12C43.5228 12 48 16.4772 48 22C48 27.5228 43.5228 32 38 32H28V20C28 17.7909 26.2091 16 24 16C21.7909 16 20 17.7909 20 20V32H10C4.47715 32 0 27.5228 0 22C0 16.4772 4.47715 12 10 12C10.193 12 10.3847 12.0055 10.5749 12.0163C12.2908 6.22493 17.652 2 24 2C30.348 2 35.7092 6.22493 37.4251 12.0163C37.6153 12.0055 37.807 12 38 12Z" fill="#18202A"/>
<path fill-rule="evenodd" clip-rule="evenodd" d="M24 18C25.1046 18 26 18.8954 26 20V39.1716L28.5858 36.5858C29.3668 35.8047 30.6332 35.8047 31.4142 36.5858C32.1953 37.3668 32.1953 38.6332 31.4142 39.4142L25.4142 45.4142C25.0391 45.7893 24.5304 46 24 46C23.4696 46 22.9609 45.7893 22.5858 45.4142L16.5858 39.4142C15.8047 38.6332 15.8047 37.3668 16.5858 36.5858C17.3668 35.8047 18.6332 35.8047 19.4142 36.5858L22 39.1716V20C22 18.8954 22.8954 18 24 18Z" fill="#18202A"/>
</svg>
