<svg width="48" height="48" viewBox="0 0 48 48" fill="none" xmlns="http://www.w3.org/2000/svg">
<path fill-rule="evenodd" clip-rule="evenodd" d="M45.7847 26.3622C45.9272 25.3841 46 24.3885 46 23.3818C46 10.4 36.1594 2 24.0205 2C11.8815 2 1.25602 11.9273 2.0409 23.3818C2.0409 30.2264 4.77644 35.585 9.1421 39.1219L9.56231 44.1644C9.6776 45.548 11.1329 46.396 12.3935 45.8142L17.8453 43.298C19.8043 43.7618 21.8765 44 24.0205 44C24.463 44 24.9003 43.9894 25.3323 43.9685C24.4778 42.158 24 40.1348 24 38C24 32.6148 27.0406 27.9397 31.4987 25.5979C30.6027 25.079 30 24.1099 30 23C30 21.3431 31.3431 20 33 20C34.6569 20 36 21.3431 36 23C36 23.4183 35.9144 23.8166 35.7598 24.1783C36.4892 24.061 37.2375 24 38 24C40.881 24 43.5587 24.8702 45.7847 26.3622ZM15 26C16.6569 26 18 24.6569 18 23C18 21.3431 16.6569 20 15 20C13.3431 20 12 21.3431 12 23C12 24.6569 13.3431 26 15 26ZM27 23C27 24.6569 25.6569 26 24 26C22.3431 26 21 24.6569 21 23C21 21.3431 22.3431 20 24 20C25.6569 20 27 21.3431 27 23Z" fill="#18202A"/>
<path fill-rule="evenodd" clip-rule="evenodd" d="M38 48C43.5228 48 48 43.5228 48 38C48 32.4772 43.5228 28 38 28C32.4772 28 28 32.4772 28 38C28 43.5228 32.4772 48 38 48ZM44.1389 35.9762C44.678 35.3472 44.6051 34.4002 43.9762 33.8611C43.3472 33.322 42.4002 33.3948 41.8611 34.0238L36.7757 39.9568L33.9 37.8C33.2372 37.3029 32.297 37.4373 31.8 38.1C31.3029 38.7627 31.4372 39.7029 32.1 40.2L36.1 43.2C36.7324 43.6743 37.6244 43.5764 38.1389 42.9762L44.1389 35.9762Z" fill="#18202A"/>
</svg>
