<svg width="48" height="48" viewBox="0 0 48 48" fill="none" xmlns="http://www.w3.org/2000/svg">
<path fill-rule="evenodd" clip-rule="evenodd" d="M36 46H27.5C26.6716 46 26 45.3284 26 44.5V27.5C26 26.6716 26.6716 26 27.5 26H44.5C45.3284 26 46 26.6716 46 27.5V36C46 41.5228 41.5228 46 36 46ZM46 20.5C46 21.3284 45.3284 22 44.5 22H27.5C26.6716 22 26 21.3284 26 20.5V3.5C26 2.67157 26.6716 2 27.5 2H36C41.5228 2 46 6.47715 46 12V20.5ZM12 2H20.5C21.3284 2 22 2.67157 22 3.5V44.5C22 45.3284 21.3284 46 20.5 46H12C6.47715 46 2 41.5228 2 36V12C2 6.47715 6.47715 2 12 2Z" fill="#18202A"/>
</svg>
