<svg width="48" height="48" viewBox="0 0 48 48" fill="none" xmlns="http://www.w3.org/2000/svg">
<path d="M37.1979 4.7131L35.7279 6.1831L41.8169 12.2721L43.2869 10.8021C43.7435 10.3453 44 9.72593 44 9.0801C44 8.43427 43.7435 7.81488 43.2869 7.35814L40.6419 4.7131C40.1851 4.2565 39.5657 4 38.9199 4C38.2741 4 37.6547 4.2565 37.1979 4.7131Z" fill="#18202A"/>
<path d="M40.0947 13.9943L34.0057 7.90532L20.8625 21.0485L20.0144 26.5978C19.8902 27.4102 20.5898 28.1098 21.4022 27.9856L26.9515 27.1375L40.0947 13.9943Z" fill="#18202A"/>
<path d="M24 10C24 8.89543 23.1046 8 22 8H10C6.68629 8 4 10.6863 4 14V38C4 41.3137 6.68629 44 10 44H34C37.3137 44 40 41.3137 40 38V26C40 24.8954 39.1046 24 38 24C36.8954 24 36 24.8954 36 26V38C36 39.1046 35.1046 40 34 40H10C8.89543 40 8 39.1046 8 38V14C8 12.8954 8.89543 12 10 12H22C23.1046 12 24 11.1046 24 10Z" fill="#18202A"/>
</svg>
