<svg width="48" height="48" viewBox="0 0 48 48" fill="none" xmlns="http://www.w3.org/2000/svg">
<path fill-rule="evenodd" clip-rule="evenodd" d="M32 10.75C32 17 29.3333 22 24 22C18.6667 22 16 17 16 10.75C16 5.75 18.6667 2 24 2C29.3333 2 32 5.75 32 10.75ZM29 10.75C29 13.5062 28.4033 15.6842 27.492 17.0725C26.6615 18.3378 25.5651 19 24 19C22.4349 19 21.3385 18.3378 20.508 17.0725C19.5967 15.6842 19 13.5062 19 10.75C19 8.75033 19.5341 7.32391 20.2821 6.44736C20.9722 5.63857 22.092 5 24 5C25.908 5 27.0278 5.63857 27.7179 6.44736C28.4659 7.32391 29 8.75033 29 10.75Z" fill="#18202A"/>
<path fill-rule="evenodd" clip-rule="evenodd" d="M38.6003 40.369C37.4686 42.6171 35.4022 44.2502 32.9641 44.875C30.0984 45.6095 27.0948 46 24 46C20.9052 46 17.9016 45.6095 15.0358 44.875C12.5978 44.2502 10.5314 42.6171 9.3997 40.369C9.06425 39.7026 8.75139 39.0229 8.46215 38.3308C7.23313 35.3902 7.72293 31.9498 9.99863 29.7185C13.6063 26.1812 18.5484 24 24 24C29.4516 24 34.3937 26.1812 38.0013 29.7184C40.2771 31.9498 40.7669 35.3902 39.5378 38.3308C39.2486 39.0229 38.9357 39.7026 38.6003 40.369ZM32.2194 41.969C29.5949 42.6416 26.8415 43 24 43C21.1585 43 18.4051 42.6416 15.7806 41.969C14.1619 41.5541 12.812 40.4755 12.0793 39.0201C11.7754 38.4164 11.4921 37.8007 11.2301 37.174C10.4113 35.2148 10.8113 33.1232 12.099 31.8606C15.1685 28.8509 19.3651 27 24 27C28.6349 27 32.8315 28.8509 35.901 31.8605C37.1887 33.1231 37.5887 35.2148 36.7699 37.174C36.5079 37.8007 36.2245 38.4164 35.9206 39.0201C35.188 40.4755 33.8381 41.5541 32.2194 41.969Z" fill="#18202A"/>
</svg>
