<svg width="48" height="48" viewBox="0 0 48 48" fill="none" xmlns="http://www.w3.org/2000/svg">
<g clip-path="url(#clip0_3294_8801)">
<path d="M8 10C8 11.1046 7.10457 12 6 12C4.89543 12 4 11.1046 4 10C4 8.89543 4.89543 8 6 8C7.10457 8 8 8.89543 8 10Z" fill="#18202A"/>
<path d="M14 10C14 9.17157 14.6716 8.5 15.5 8.5H42.5C43.3284 8.5 44 9.17157 44 10C44 10.8284 43.3284 11.5 42.5 11.5H15.5C14.6716 11.5 14 10.8284 14 10Z" fill="#18202A"/>
<path d="M15.5 22.5C14.6716 22.5 14 23.1716 14 24C14 24.8284 14.6716 25.5 15.5 25.5H42.5C43.3284 25.5 44 24.8284 44 24C44 23.1716 43.3284 22.5 42.5 22.5H15.5Z" fill="#18202A"/>
<path d="M15.5 36.5C14.6716 36.5 14 37.1716 14 38C14 38.8284 14.6716 39.5 15.5 39.5H42.5C43.3284 39.5 44 38.8284 44 38C44 37.1716 43.3284 36.5 42.5 36.5H15.5Z" fill="#18202A"/>
<path d="M8 24C8 25.1046 7.10457 26 6 26C4.89543 26 4 25.1046 4 24C4 22.8954 4.89543 22 6 22C7.10457 22 8 22.8954 8 24Z" fill="#18202A"/>
<path d="M8 38C8 39.1046 7.10457 40 6 40C4.89543 40 4 39.1046 4 38C4 36.8954 4.89543 36 6 36C7.10457 36 8 36.8954 8 38Z" fill="#18202A"/>
</g>
<defs>
<clipPath id="clip0_3294_8801">
<rect width="48" height="48" fill="white"/>
</clipPath>
</defs>
</svg>
