<svg width="48" height="48" viewBox="0 0 48 48" fill="none" xmlns="http://www.w3.org/2000/svg">
<path fill-rule="evenodd" clip-rule="evenodd" d="M24 24C28 24 30 20 30 15C30 11 28 8 24 8C20 8 18 11 18 15C18 20 20 24 24 24ZM25.945 19.8027C26.5584 18.8059 27 17.1611 27 15C27 13.4576 26.6105 12.4404 26.1574 11.8741C25.7764 11.3978 25.1712 11 24 11C22.8288 11 22.2236 11.3978 21.8426 11.8741C21.3895 12.4404 21 13.4576 21 15C21 17.1611 21.4416 18.8059 22.055 19.8027C22.5929 20.6768 23.1924 21 24 21C24.8076 21 25.4071 20.6768 25.945 19.8027Z" fill="#18202A"/>
<path fill-rule="evenodd" clip-rule="evenodd" d="M29.338 43.607C31.8685 43.2308 34.0529 41.6197 35.1168 39.2931C35.4923 38.4721 35.834 37.6325 36.1402 36.7761C37.1874 33.8474 36.311 30.506 33.6915 28.8291C30.8939 27.0383 27.5682 26 24 26C20.4318 26 17.1061 27.0383 14.3085 28.8291C11.689 30.506 10.8125 33.8474 11.8597 36.7761C12.166 37.6325 12.5077 38.4721 12.8831 39.2931C13.947 41.6197 16.1314 43.2308 18.6619 43.607C20.4037 43.8659 22.1862 44 24 44C25.8138 44 27.5963 43.8659 29.338 43.607ZM24 41C25.6657 41 27.3007 40.8768 28.897 40.6396C30.446 40.4093 31.7564 39.4279 32.3886 38.0455C32.7286 37.3019 33.0381 36.5415 33.3154 35.766C33.9671 33.9435 33.3381 32.165 32.0741 31.3558C29.7449 29.8648 26.978 29 24 29C21.022 29 18.2551 29.8647 15.9259 31.3558C14.6619 32.165 14.0329 33.9434 14.6846 35.766C14.9619 36.5415 15.2714 37.3019 15.6114 38.0455C16.2435 39.4279 17.5539 40.4093 19.103 40.6396C20.6992 40.8768 22.3343 41 24 41Z" fill="#18202A"/>
<path fill-rule="evenodd" clip-rule="evenodd" d="M16 19.25C16 23 14.3333 26 11 26C7.66667 26 6 23 6 19.25C6 16.25 7.66667 14 11 14C14.3333 14 16 16.25 16 19.25ZM13 19.25C13 20.7358 12.6618 21.7701 12.2736 22.338C11.967 22.7862 11.6202 23 11 23C10.3798 23 10.033 22.7862 9.72644 22.338C9.33818 21.7701 9 20.7358 9 19.25C9 18.2795 9.26805 17.7453 9.49223 17.4931C9.66951 17.2936 10.0504 17 11 17C11.9496 17 12.3305 17.2936 12.5078 17.4931C12.7319 17.7453 13 18.2795 13 19.25Z" fill="#18202A"/>
<path fill-rule="evenodd" clip-rule="evenodd" d="M37 26C40.3333 26 42 23 42 19.25C42 16.25 40.3333 14 37 14C33.6667 14 32 16.25 32 19.25C32 23 33.6667 26 37 26ZM38.2736 22.338C38.6618 21.7701 39 20.7358 39 19.25C39 18.2795 38.7319 17.7453 38.5078 17.4931C38.3305 17.2936 37.9496 17 37 17C36.0504 17 35.6695 17.2936 35.4922 17.4931C35.2681 17.7453 35 18.2795 35 19.25C35 20.7358 35.3382 21.7701 35.7264 22.338C36.033 22.7862 36.3798 23 37 23C37.6202 23 37.967 22.7862 38.2736 22.338Z" fill="#18202A"/>
<path d="M41.947 39.6359C40.6836 39.8165 39.3989 39.9314 38.0967 39.9772C38.4099 39.2591 38.6996 38.5284 38.9651 37.786C39.0678 37.4988 39.1575 37.2071 39.2341 36.9122C40.0049 36.8563 40.768 36.7739 41.5226 36.6661C42.537 36.5211 43.3299 35.845 43.625 34.9326C43.997 33.7821 43.5015 32.8287 42.8573 32.4893C41.6925 31.8756 40.4228 31.4334 39.0797 31.1971C38.7035 30.0425 38.1077 28.9544 37.2858 28.0069C39.7972 28.0805 42.1634 28.7328 44.2557 29.8351C46.3973 30.9634 47.2243 33.5525 46.4794 35.8557C45.8216 37.8896 44.0631 39.3335 41.947 39.6359Z" fill="#18202A"/>
<path d="M4.0154 29.4972C6.05304 28.5447 8.32451 28.0091 10.7201 28C9.91143 28.9304 9.32109 29.9967 8.94292 31.1286C7.65107 31.3112 6.42306 31.6833 5.28571 32.2149C4.55137 32.5582 3.97512 33.6072 4.38369 34.8791C4.70485 35.8788 5.58119 36.612 6.69401 36.7494C7.38042 36.8342 8.07366 36.8979 8.7731 36.9398C8.84809 37.2253 8.93539 37.5077 9.0349 37.786C9.30185 38.5326 9.59341 39.2674 9.90858 39.9895C8.69882 39.9607 7.50383 39.8722 6.32645 39.7268C4.08917 39.4506 2.2169 37.9429 1.52744 35.7966C0.73943 33.3436 1.68128 30.5881 4.0154 29.4972Z" fill="#18202A"/>
</svg>
