<svg width="48" height="48" viewBox="0 0 48 48" fill="none" xmlns="http://www.w3.org/2000/svg">
<g clip-path="url(#clip0_3900_9010)">
<path d="M36.5973 19.9773C36.5973 22.8182 35.3982 25.0909 33 25.0909C30.6018 25.0909 29.4027 22.8182 29.4027 19.9773C29.4027 17.7045 30.6018 16 33 16C35.3982 16 36.5973 17.7045 36.5973 19.9773Z" fill="#18202A"/>
<path d="M27.9161 28.5C27.6424 28.69 27.3796 28.8948 27.1289 29.1135C26.5523 29.6162 26.1975 30.2833 26.0624 31C25.9162 31.7755 26.0272 32.6091 26.3928 33.3554L26.4348 33.4405C26.9436 34.4623 27.8728 35.2046 28.9691 35.4887C30.2578 35.8225 31.6084 36 33 36C34.3916 36 35.7422 35.8225 37.0308 35.4887C38.1272 35.2046 39.0563 34.4623 39.5652 33.4405L39.5865 33.3975L39.6072 33.3554C40.2281 32.088 40.1147 30.5689 39.2543 29.51C39.1398 29.3691 39.0121 29.2363 38.8711 29.1134C38.3684 28.6751 37.8172 28.2921 37.2267 27.9737C35.9667 27.2942 34.5278 26.9091 33 26.9091C31.1133 26.9091 29.3623 27.4964 27.9161 28.5Z" fill="#18202A"/>
<path fill-rule="evenodd" clip-rule="evenodd" d="M10 6C5.58172 6 2 9.58172 2 14V34C2 38.4183 5.58172 42 10 42H38C42.4183 42 46 38.4183 46 34V18C46 13.5817 42.4183 10 38 10H24L21.7574 7.75736C20.6321 6.63214 19.106 6 17.5147 6H10ZM43 18C43 15.2386 40.7614 13 38 13H22.7574L19.636 9.87868C19.0734 9.31607 18.3104 9 17.5147 9H10C7.23858 9 5 11.2386 5 14V34C5 36.7614 7.23858 39 10 39H38C40.7614 39 43 36.7614 43 34V18Z" fill="#18202A"/>
</g>
<defs>
<clipPath id="clip0_3900_9010">
<rect width="48" height="48" fill="white"/>
</clipPath>
</defs>
</svg>
