<svg width="48" height="48" viewBox="0 0 48 48" fill="none" xmlns="http://www.w3.org/2000/svg">
<path d="M46.6274 17.3726C47.4085 16.5915 47.4122 15.3203 46.5869 14.5863C40.5813 9.24483 32.6696 6 24 6C15.3304 6 7.41872 9.24483 1.41311 14.5863C0.587754 15.3204 0.591522 16.5915 1.37257 17.3726C2.15362 18.1536 3.41577 18.1481 4.24682 17.4204C9.52395 12.8001 16.435 10 24 10C31.565 10 38.476 12.8001 43.7532 17.4204C44.5842 18.148 45.8464 18.1536 46.6274 17.3726Z" fill="#18202A"/>
<path d="M39.5563 24.4436C40.3374 23.6626 40.3424 22.3891 39.4994 21.6754C35.3178 18.1349 29.9082 16 24 16C18.0918 16 12.6822 18.1349 8.50057 21.6754C7.65758 22.3891 7.66259 23.6626 8.44364 24.4437C9.22469 25.2247 10.4853 25.2159 11.34 24.5162C14.7881 21.6936 19.1963 20 24 20C28.8037 20 33.2119 21.6936 36.66 24.5162C37.5147 25.2159 38.7753 25.2247 39.5563 24.4436Z" fill="#18202A"/>
<path d="M32.4853 31.5147C33.2663 30.7337 33.2735 29.4538 32.3897 28.7913C30.0516 27.0384 27.1471 26 24 26C20.8529 26 17.9483 27.0384 15.6103 28.7913C14.7265 29.4538 14.7337 30.7337 15.5147 31.5147C16.2958 32.2958 17.554 32.2754 18.474 31.6642C20.0571 30.6126 21.957 30 24 30C26.043 30 27.9428 30.6126 29.5259 31.6642C30.446 32.2754 31.7042 32.2958 32.4853 31.5147Z" fill="#18202A"/>
<path d="M28 40C28 42.2091 26.2091 44 24 44C21.7909 44 20 42.2091 20 40C20 37.7909 21.7909 36 24 36C26.2091 36 28 37.7909 28 40Z" fill="#18202A"/>
</svg>
