<svg width="48" height="48" viewBox="0 0 48 48" fill="none" xmlns="http://www.w3.org/2000/svg">
<path fill-rule="evenodd" clip-rule="evenodd" d="M16 8V10H6C4.89543 10 4 10.8954 4 12C4 13.1046 4.89543 14 6 14H8V34C8 40.6274 13.3726 46 20 46H28C34.6274 46 40 40.6274 40 34V14H42C43.1046 14 44 13.1046 44 12C44 10.8954 43.1046 10 42 10H32V8C32 4.68629 29.3137 2 26 2H22C18.6863 2 16 4.68629 16 8ZM26 6H22C20.8954 6 20 6.89543 20 8V10H28V8C28 6.89543 27.1046 6 26 6ZM20 20C21.1046 20 22 20.8954 22 22V34C22 35.1046 21.1046 36 20 36C18.8954 36 18 35.1046 18 34V22C18 20.8954 18.8954 20 20 20ZM30 22C30 20.8954 29.1046 20 28 20C26.8954 20 26 20.8954 26 22V34C26 35.1046 26.8954 36 28 36C29.1046 36 30 35.1046 30 34V22Z" fill="#18202A"/>
</svg>
