<svg width="48" height="48" viewBox="0 0 48 48" fill="none" xmlns="http://www.w3.org/2000/svg">
<path fill-rule="evenodd" clip-rule="evenodd" d="M10.0783 41H37.9218C41.7738 41 44.1791 36.8274 42.2485 33.4941L28.3268 9.45651C26.4007 6.13103 21.5993 6.13103 19.6733 9.45651L5.75153 33.4941C3.82098 36.8274 6.22623 41 10.0783 41ZM37.9218 44H10.0783C3.91502 44 0.0666151 37.3239 3.1555 31.9906L17.0773 7.95297C20.1589 2.63221 27.8412 2.63221 30.9228 7.95297L44.8446 31.9906C47.9335 37.3239 44.0851 44 37.9218 44Z" fill="#18202A"/>
<path fill-rule="evenodd" clip-rule="evenodd" d="M24 14.5C24.8285 14.5 25.5 15.1716 25.5 16V26C25.5 26.8284 24.8285 27.5 24 27.5C23.1716 27.5 22.5 26.8284 22.5 26V16C22.5 15.1716 23.1716 14.5 24 14.5Z" fill="#18202A"/>
<path fill-rule="evenodd" clip-rule="evenodd" d="M22.5 34C22.5 33.1716 23.1716 32.5 24 32.5H24.02C24.8485 32.5 25.52 33.1716 25.52 34C25.52 34.8284 24.8485 35.5 24.02 35.5H24C23.1716 35.5 22.5 34.8284 22.5 34Z" fill="#18202A"/>
</svg>
