<svg width="48" height="48" viewBox="0 0 48 48" fill="none" xmlns="http://www.w3.org/2000/svg">
<path fill-rule="evenodd" clip-rule="evenodd" d="M32.3936 12.5654C33.1859 13.3351 33.2042 14.6013 32.4346 15.3936L13.006 35.3936C12.6197 35.7913 12.0856 36.0108 11.5312 35.9996C10.9768 35.9884 10.452 35.7477 10.082 35.3347L3.51055 28.0014C2.7734 27.1788 2.84269 25.9143 3.6653 25.1772C4.48791 24.4401 5.75234 24.5093 6.48949 25.3319L11.6304 31.069L29.5655 12.6064C30.3351 11.8141 31.6013 11.7958 32.3936 12.5654Z" fill="#18202A"/>
<path fill-rule="evenodd" clip-rule="evenodd" d="M44.3936 12.5654C45.1859 13.3351 45.2042 14.6013 44.4346 15.3936L25.006 35.3936C24.6098 35.8014 24.0588 36.0213 23.4908 35.9984C22.9227 35.9754 22.3912 35.7118 22.0292 35.2734L19.8945 32.6878C19.1912 31.8361 19.3116 30.5755 20.1634 29.8722C21.0151 29.1689 22.2757 29.2893 22.979 30.1411L23.6924 31.0052L41.5655 12.6064C42.3351 11.8141 43.6013 11.7958 44.3936 12.5654Z" fill="#18202A"/>
</svg>
