<svg width="48" height="48" viewBox="0 0 48 48" fill="none" xmlns="http://www.w3.org/2000/svg">
<path fill-rule="evenodd" clip-rule="evenodd" d="M18.5407 19.2448L6.62012 20.9055L15.2384 29.0087L13.1712 40.6084L24 35.1262L34.8287 40.6084L32.7613 29.0074L41.3797 20.9153L29.4584 19.2432L24 8.58266L18.5407 19.2448ZM16.5815 16.4887L2.0687 18.5105C1.23682 18.6264 0.909764 19.6542 1.52168 20.2295L12 30.0816L9.51457 44.0275C9.36987 44.8394 10.2149 45.4676 10.9507 45.0951L24 38.4887L37.0492 45.0951C37.785 45.4676 38.63 44.8394 38.4853 44.0275L36 30.0816L46.4777 20.2437C47.0899 19.6689 46.7638 18.6411 45.9321 18.5244L31.4184 16.4887L24.8901 3.73858C24.5185 3.01292 23.4814 3.01292 23.1099 3.73858L16.5815 16.4887Z" fill="#18202A"/>
</svg>
