<svg width="48" height="48" viewBox="0 0 48 48" fill="none" xmlns="http://www.w3.org/2000/svg">
<path d="M14 13.999C14 12.8945 14.8954 11.999 16 11.999C17.1046 11.999 18 12.8945 18 13.999C18 15.1036 17.1046 15.999 16 15.999C14.8954 15.999 14 15.1036 14 13.999Z" fill="#18202A"/>
<path d="M16 17.999C14.8954 17.999 14 18.8945 14 19.999C14 21.1036 14.8954 21.999 16 21.999C17.1046 21.999 18 21.1036 18 19.999C18 18.8945 17.1046 17.999 16 17.999Z" fill="#18202A"/>
<path d="M22 13.999C22 12.8945 22.8954 11.999 24 11.999C25.1046 11.999 26 12.8945 26 13.999C26 15.1036 25.1046 15.999 24 15.999C22.8954 15.999 22 15.1036 22 13.999Z" fill="#18202A"/>
<path d="M24 17.999C22.8954 17.999 22 18.8945 22 19.999C22 21.1036 22.8954 21.999 24 21.999C25.1046 21.999 26 21.1036 26 19.999C26 18.8945 25.1046 17.999 24 17.999Z" fill="#18202A"/>
<path d="M30 13.999C30 12.8945 30.8954 11.999 32 11.999C33.1046 11.999 34 12.8945 34 13.999C34 15.1036 33.1046 15.999 32 15.999C30.8954 15.999 30 15.1036 30 13.999Z" fill="#18202A"/>
<path d="M32 17.999C30.8954 17.999 30 18.8945 30 19.999C30 21.1036 30.8954 21.999 32 21.999C33.1046 21.999 34 21.1036 34 19.999C34 18.8945 33.1046 17.999 32 17.999Z" fill="#18202A"/>
<path fill-rule="evenodd" clip-rule="evenodd" d="M13.5 3.99902C9.35786 3.99902 6 7.35689 6 11.499V36.4998C6 40.642 9.35787 43.9998 13.5 43.9998H34.5C38.6421 43.9998 42 40.642 42 36.4998V11.499C42 7.35688 38.6421 3.99902 34.5 3.99902H13.5ZM9 11.499C9 9.01374 11.0147 6.99902 13.5 6.99902H34.5C36.9853 6.99902 39 9.01374 39 11.499V36.4998C39 38.9851 36.9853 40.9998 34.5 40.9998H30.5V29.499C30.5 27.566 28.933 25.999 27 25.999H21C19.067 25.999 17.5 27.566 17.5 29.499V40.9998H13.5C11.0147 40.9998 9 38.9851 9 36.4998V11.499ZM27.5 40.9998V29.499C27.5 29.2229 27.2761 28.999 27 28.999H21C20.7239 28.999 20.5 29.2229 20.5 29.499V40.9998H27.5Z" fill="#18202A"/>
</svg>
