<svg width="48" height="48" viewBox="0 0 48 48" fill="none" xmlns="http://www.w3.org/2000/svg">
<g clip-path="url(#clip0_3240_8919)">
<path d="M4.48433 32.1866C4.67908 32.9134 4.94907 33.6 5.2837 34.2401L8.35323 31.1706L8.34803 31.1513L4.20693 15.6965C3.34928 12.4957 5.24877 9.20568 8.44957 8.34803L23.9044 4.20693C27.0584 3.36181 30.2991 5.19385 31.2137 8.3101L34.2638 5.26002C32.1174 1.26608 27.4387 -0.88119 22.8691 0.343223L7.41429 4.48433C2.07963 5.91375 -1.08619 11.3971 0.343224 16.7318L4.48433 32.1866Z" fill="#18202A"/>
<path fill-rule="evenodd" clip-rule="evenodd" d="M11.156 39.675L5.55342 45.2775C4.66853 46.1624 3.31746 46.246 2.53572 45.4643C1.75397 44.6825 1.83759 43.3315 2.72248 42.4466L42.4466 2.72247C43.3315 1.83759 44.6825 1.75397 45.4643 2.53572C46.246 3.31746 46.1624 4.66853 45.2775 5.55342L38.7312 12.0998L38.8858 12.1133C44.3876 12.5947 48.4575 17.445 47.9762 22.9468L46.5817 38.8859C46.1003 44.3878 41.25 48.4577 35.7482 47.9763L19.809 46.5818C15.6754 46.2202 12.3501 43.3923 11.156 39.675ZM14.7006 36.1304L22.539 28.292L27.0049 31.8333L37.216 24.4647L43.1994 31.6503L42.7045 37.307L36.5303 29.8923L26.8912 36.8481L22.1533 33.0911L14.9328 38.3469C14.7228 37.6487 14.6375 36.9004 14.7006 36.1304ZM28.4232 22.4077C27.9418 24.0559 26.6444 25.3264 25.0313 25.7997L28.4232 22.4077Z" fill="#18202A"/>
<path d="M11.3843 28.1395L18.6252 20.8986C18.6276 20.7878 18.6336 20.6765 18.6434 20.5645C18.8683 17.9943 21.0001 16.049 23.5229 16.0009L28.3337 11.1901L22.9466 10.7188C17.4448 10.2375 12.5945 14.3074 12.1131 19.8092L11.3843 28.1395Z" fill="#18202A"/>
</g>
<defs>
<clipPath id="clip0_3240_8919">
<rect width="48" height="48" fill="white"/>
</clipPath>
</defs>
</svg>
