<svg width="48" height="48" viewBox="0 0 48 48" fill="none" xmlns="http://www.w3.org/2000/svg">
<path d="M12 2C6.47715 2 2 6.47715 2 12V36C2 41.5228 6.47715 46 12 46H27.7523C27.0405 45.0895 26.4474 44.0818 25.9963 43H12C8.13401 43 5 39.866 5 36V12C5 8.13401 8.13401 5 12 5H36C39.866 5 43 8.13401 43 12V25.9963C44.0818 26.4474 45.0895 27.0405 46 27.7523V12C46 6.47715 41.5228 2 36 2H12Z" fill="#18202A"/>
<path d="M14 13V9H10V13H14Z" fill="#18202A"/>
<path fill-rule="evenodd" clip-rule="evenodd" d="M18 18.8889C18 17.4385 19.5676 16.5426 20.7997 17.2888L29.2225 22.39C30.4192 23.1147 30.4192 24.8653 29.2225 25.5901L20.7997 30.6912C19.5676 31.4374 18 30.5416 18 29.0912V18.8889ZM21 20.9174V27.0626L26.0733 23.99L21 20.9174Z" fill="#18202A"/>
<path d="M14 39V35H10V39H14Z" fill="#18202A"/>
<path d="M22 9H18V13H22V9Z" fill="#18202A"/>
<path d="M22 35H18V39H22V35Z" fill="#18202A"/>
<path d="M30 9H26V13H30V9Z" fill="#18202A"/>
<path d="M38 13V9H34V13H38Z" fill="#18202A"/>
<path fill-rule="evenodd" clip-rule="evenodd" d="M38 48C43.5228 48 48 43.5228 48 38C48 32.4772 43.5228 28 38 28C32.4772 28 28 32.4772 28 38C28 43.5228 32.4772 48 38 48ZM39.5 33.5C39.5 32.6716 38.8284 32 38 32C37.1716 32 36.5 32.6716 36.5 33.5V36.5H33.5C32.6716 36.5 32 37.1716 32 38C32 38.8284 32.6716 39.5 33.5 39.5H36.5V42.5C36.5 43.3284 37.1716 44 38 44C38.8284 44 39.5 43.3284 39.5 42.5V39.5H42.5C43.3284 39.5 44 38.8284 44 38C44 37.1716 43.3284 36.5 42.5 36.5H39.5V33.5Z" fill="#18202A"/>
</svg>
