<svg width="48" height="48" viewBox="0 0 48 48" fill="none" xmlns="http://www.w3.org/2000/svg">
<path fill-rule="evenodd" clip-rule="evenodd" d="M35 13.875C35 16.3321 34.4814 18.2417 33.7211 19.433C33.0398 20.5005 32.1927 21 31 21C29.8073 21 28.9602 20.5005 28.2789 19.433C27.5186 18.2417 27 16.3321 27 13.875C27 12.1062 27.4608 10.8863 28.0589 10.1655C28.5924 9.52246 29.4553 9 31 9C32.5447 9 33.4076 9.52246 33.9411 10.1655C34.5392 10.8863 35 12.1062 35 13.875ZM38 13.875C38 19.5 35.6667 24 31 24C26.3333 24 24 19.5 24 13.875C24 9.375 26.3333 6 31 6C35.6667 6 38 9.375 38 13.875ZM12.4809 28C13.6094 28 14.7106 28.1168 15.7731 28.3391C14.9824 29.1508 14.3688 30.0813 13.9324 31.0799C13.4561 31.0271 12.9719 31 12.4809 31C10.1578 31 7.98545 31.6067 6.1042 32.6681C5.23183 33.1603 4.67925 34.4176 5.19032 35.8354C5.29048 36.1133 5.39476 36.3892 5.5031 36.663C5.94059 37.7688 6.95955 38.564 8.18238 38.7229C9.58801 38.9056 11.0227 39 12.4809 39C12.9704 39 13.4573 38.9894 13.9414 38.9683C13.9731 39.0424 14.0057 39.1161 14.0393 39.1896C14.2654 39.6841 14.5036 40.1728 14.7538 40.6552C14.9756 41.0832 15.2244 41.4903 15.4971 41.8754C14.5026 41.9579 13.4967 42 12.4809 42C10.893 42 9.32924 41.8972 7.79574 41.6979C5.51313 41.4012 3.56024 39.907 2.71347 37.7666C2.59384 37.4642 2.47868 37.1596 2.36808 36.8527C1.44884 34.3026 2.26912 31.3873 4.63003 30.0553C6.9494 28.7467 9.62793 28 12.4809 28ZM31 41C33.6307 41 36.1955 40.7642 38.6693 40.3165C40.162 40.0464 41.4009 39.1447 42.0442 37.8985C42.2482 37.5033 42.4422 37.1036 42.6261 36.6997C43.4474 34.8949 42.8661 32.9629 41.491 32.0576C38.5961 30.1518 34.9693 29 31 29C27.0307 29 23.4038 30.1518 20.509 32.0576C19.1339 32.9629 18.5526 34.8949 19.3739 36.6997C19.5578 37.1036 19.7518 37.5033 19.9558 37.8985C20.5991 39.1447 21.838 40.0464 23.3307 40.3165C25.8045 40.7642 28.3693 41 31 41ZM39.2036 43.2686C41.5519 42.8436 43.6118 41.4021 44.71 39.2745C44.9365 38.8357 45.1521 38.3916 45.3566 37.9424C46.7208 34.945 45.8851 31.3587 43.1407 29.5519C39.7513 27.3205 35.55 26 31 26C26.45 26 22.2487 27.3205 18.8593 29.5519C16.1149 31.3587 15.2792 34.945 16.6434 37.9424C16.8479 38.3916 17.0635 38.8357 17.29 39.2745C18.3882 41.4021 20.4481 42.8436 22.7964 43.2686C25.4463 43.7481 28.1899 44 31 44C33.8101 44 36.5537 43.7482 39.2036 43.2686ZM15.4788 18.125C15.4788 19.9085 15.0637 21.2112 14.5249 21.9773C14.0674 22.6277 13.4692 23 12.4788 23C11.4883 23 10.8901 22.6277 10.4326 21.9773C9.89386 21.2112 9.47876 19.9085 9.47876 18.125C9.47876 16.9257 9.81808 16.1842 10.1928 15.7743C10.529 15.4066 11.1683 15 12.4788 15C13.7893 15 14.4285 15.4066 14.7647 15.7743C15.1394 16.1842 15.4788 16.9257 15.4788 18.125ZM18.4788 18.125C18.4788 22.5 16.4788 26 12.4788 26C8.47876 26 6.47876 22.5 6.47876 18.125C6.47876 14.625 8.47876 12 12.4788 12C16.4788 12 18.4788 14.625 18.4788 18.125Z" fill="#18202A"/>
</svg>
