<svg width="48" height="48" viewBox="0 0 48 48" fill="none" xmlns="http://www.w3.org/2000/svg">
<path fill-rule="evenodd" clip-rule="evenodd" d="M37 22C37 30.2843 30.2843 37 22 37C13.7157 37 7 30.2843 7 22C7 13.7157 13.7157 7 22 7C30.2843 7 37 13.7157 37 22ZM22 40C31.9411 40 40 31.9411 40 22C40 12.0589 31.9411 4 22 4C12.0589 4 4 12.0589 4 22C4 31.9411 12.0589 40 22 40ZM39.0607 36.9393C38.4749 36.3536 37.5251 36.3536 36.9393 36.9393C36.3536 37.5251 36.3536 38.4749 36.9393 39.0607L40.9393 43.0607C41.5251 43.6464 42.4749 43.6464 43.0607 43.0607C43.6464 42.4749 43.6464 41.5251 43.0607 40.9393L39.0607 36.9393ZM16 20.5C15.1716 20.5 14.5 21.1716 14.5 22C14.5 22.8284 15.1716 23.5 16 23.5H28C28.8284 23.5 29.5 22.8284 29.5 22C29.5 21.1716 28.8284 20.5 28 20.5H16Z" fill="#18202A"/>
</svg>
