<svg width="48" height="48" viewBox="0 0 48 48" fill="none" xmlns="http://www.w3.org/2000/svg">
<path d="M10 20C12.2091 20 14 18.2091 14 16C14 13.7909 12.2091 12 10 12C7.79086 12 6 13.7909 6 16C6 18.2091 7.79086 20 10 20Z" fill="#18202A"/>
<path d="M10 36C12.2091 36 14 34.2091 14 32C14 29.7909 12.2091 28 10 28C7.79086 28 6 29.7909 6 32C6 34.2091 7.79086 36 10 36Z" fill="#18202A"/>
<path d="M28 16C28 18.2091 26.2091 20 24 20C21.7909 20 20 18.2091 20 16C20 13.7909 21.7909 12 24 12C26.2091 12 28 13.7909 28 16Z" fill="#18202A"/>
<path d="M28 32C28 34.2091 26.2091 36 24 36C21.7909 36 20 34.2091 20 32C20 29.7909 21.7909 28 24 28C26.2091 28 28 29.7909 28 32Z" fill="#18202A"/>
<path d="M42 32C42 34.2091 40.2091 36 38 36C35.7909 36 34 34.2091 34 32C34 29.7909 35.7909 28 38 28C40.2091 28 42 29.7909 42 32Z" fill="#18202A"/>
<path d="M42 16C42 18.2091 40.2091 20 38 20C35.7909 20 34 18.2091 34 16C34 13.7909 35.7909 12 38 12C40.2091 12 42 13.7909 42 16Z" fill="#18202A"/>
</svg>
