<svg width="48" height="48" viewBox="0 0 48 48" fill="none" xmlns="http://www.w3.org/2000/svg">
<path fill-rule="evenodd" clip-rule="evenodd" d="M5.06066 13.0607L11.0607 7.06066C11.6464 6.47487 11.6464 5.52513 11.0607 4.93934C10.4749 4.35355 9.52513 4.35355 8.93934 4.93934L2.93934 10.9393C2.35355 11.5251 2.35355 12.4749 2.93934 13.0607C3.52513 13.6464 4.47487 13.6464 5.06066 13.0607ZM41 26C41 35.3888 33.3888 43 24 43C14.6112 43 7 35.3888 7 26C7 16.6112 14.6112 9 24 9C33.3888 9 41 16.6112 41 26ZM44 26C44 37.0457 35.0457 46 24 46C12.9543 46 4 37.0457 4 26C4 14.9543 12.9543 6 24 6C35.0457 6 44 14.9543 44 26ZM36.9393 7.06066L42.9393 13.0607C43.5251 13.6464 44.4749 13.6464 45.0607 13.0607C45.6464 12.4749 45.6464 11.5251 45.0607 10.9393L39.0607 4.93934C38.4749 4.35355 37.5251 4.35355 36.9393 4.93934C36.3536 5.52513 36.3536 6.47487 36.9393 7.06066ZM25.5 14C25.5 13.1716 24.8284 12.5 24 12.5C23.1716 12.5 22.5 13.1716 22.5 14V26C22.5 26.6 22.8576 27.1423 23.4091 27.3787L30.4091 30.3787C31.1706 30.7051 32.0524 30.3523 32.3787 29.5909C32.7051 28.8294 32.3523 27.9476 31.5909 27.6213L25.5 25.0109V14Z" fill="#18202A"/>
</svg>
