<svg width="48" height="48" viewBox="0 0 48 48" fill="none" xmlns="http://www.w3.org/2000/svg">
<path fill-rule="evenodd" clip-rule="evenodd" d="M9.55342 6.72247C8.66853 5.83759 7.31746 5.75397 6.53572 6.53572C5.75397 7.31746 5.83759 8.66853 6.72247 9.55342L11.3583 14.1892C10.9523 14.0658 10.4994 14 9.99982 14C7.33315 14 5.99982 15.875 5.99982 18.375C5.99982 21.5 7.33315 24 9.99982 24C12.6665 24 13.9998 21.5 13.9998 18.375C13.9998 17.717 13.9074 17.1023 13.7227 16.5537L23.1871 26.018C19.927 26.1629 16.8923 27.175 14.3083 28.8291C11.6888 30.506 10.8124 33.8474 11.8595 36.7761C12.1658 37.6325 12.5075 38.4721 12.8829 39.2931C13.9469 41.6197 16.1312 43.2308 18.6618 43.607C20.4035 43.8659 22.186 44 23.9998 44C25.8136 44 27.5961 43.8659 29.3379 43.607C31.8684 43.2308 34.0527 41.6197 35.1167 39.2931C35.2581 38.9838 35.3947 38.6719 35.5265 38.3575L38.4466 41.2775C39.3315 42.1624 40.6825 42.246 41.4643 41.4643C42.246 40.6825 42.1624 39.3315 41.2775 38.4466L9.55342 6.72247ZM28.9677 20.4912L19.0792 10.6026C20.0562 8.99485 21.6964 8 23.9998 8C27.9998 8 29.9998 11 29.9998 15C29.9998 17.0737 29.6558 18.9755 28.9677 20.4912ZM38.6344 28.1035C39.4367 29.2302 39.9834 30.4936 40.2849 31.8084L45.7699 37.2933C46.0702 36.8592 46.3108 36.3771 46.4792 35.8563C47.2241 33.553 46.3971 30.9639 44.2555 29.8356C42.5419 28.9328 40.6447 28.3319 38.6344 28.1035ZM37.9998 24C40.6665 24 41.9998 21.5 41.9998 18.375C41.9998 15.875 40.6665 14 37.9998 14C35.3331 14 33.9998 15.875 33.9998 18.375C33.9998 21.5 35.3331 24 37.9998 24ZM8.0931 38.1232C6.91812 34.8372 7.29179 30.9821 9.39668 28.0596C7.48737 28.2234 5.67383 28.7224 4.01522 29.4977C1.6811 30.5887 0.739246 33.3441 1.52726 35.7971C2.21672 37.9434 4.08899 39.4511 6.32627 39.7273C7.14335 39.8282 7.96891 39.9017 8.80201 39.9469C8.54979 39.3471 8.31331 38.7391 8.0931 38.1232Z" fill="#18202A"/>
</svg>
