<svg width="48" height="48" viewBox="0 0 48 48" fill="none" xmlns="http://www.w3.org/2000/svg">
<path fill-rule="evenodd" clip-rule="evenodd" d="M10 8C6.68629 8 4 10.6863 4 14V32C4 35.3137 6.68629 38 10 38H22.5V41H18C17.1716 41 16.5 41.6716 16.5 42.5C16.5 43.3284 17.1716 44 18 44H30C30.8284 44 31.5 43.3284 31.5 42.5C31.5 41.6716 30.8284 41 30 41H25.5V38H38C41.3137 38 44 35.3137 44 32V14C44 10.6863 41.3137 8 38 8H10ZM41 14C41 12.3431 39.6569 11 38 11H10C8.34315 11 7 12.3431 7 14V28H41V14ZM10 35C8.34315 35 7 33.6569 7 32V31H41V32C41 33.6569 39.6569 35 38 35H10Z" fill="#18202A"/>
</svg>
