<svg width="48" height="48" viewBox="0 0 48 48" fill="none" xmlns="http://www.w3.org/2000/svg">
<path d="M5.0409 23.3818V23.2792L5.03389 23.1767C4.38905 13.766 13.2918 5 24.0205 5C34.6927 5 43 12.2408 43 23.3818C43 24.2383 42.9381 25.0868 42.8166 25.9215C43.8093 26.3177 44.7417 26.8328 45.5963 27.4491C45.8628 26.1253 46 24.764 46 23.3818C46 10.4 36.1594 2 24.0205 2C11.8815 2 1.25602 11.9273 2.0409 23.3818C2.0409 30.2264 4.77644 35.585 9.1421 39.1219L9.56231 44.1644C9.6776 45.548 11.1329 46.396 12.3935 45.8142L17.8453 43.298C19.8043 43.7618 21.8765 44 24.0205 44C24.8348 44 25.6315 43.9641 26.4098 43.8941C25.9416 42.9751 25.5794 41.9931 25.3395 40.9641C24.9064 40.9879 24.4666 41 24.0205 41C22.0982 41 20.2584 40.7864 18.5365 40.3787L17.5286 40.1401L12.4333 42.4918L12.0254 37.5969L11.0306 36.7909C7.39764 33.8476 5.0409 29.3603 5.0409 23.3818Z" fill="#18202A"/>
<path d="M34.8069 25.3951C34.1825 25.5527 33.576 25.7556 32.9912 26C31.3384 25.9952 30 24.6539 30 23C30 21.3431 31.3432 20 33 20C34.6569 20 36 21.3431 36 23C36 23.9784 35.5317 24.8474 34.8069 25.3951Z" fill="#18202A"/>
<path d="M24 26C25.6569 26 27 24.6569 27 23C27 21.3431 25.6569 20 24 20C22.3432 20 21 21.3431 21 23C21 24.6569 22.3432 26 24 26Z" fill="#18202A"/>
<path d="M18 23C18 24.6569 16.6569 26 15 26C13.3432 26 12 24.6569 12 23C12 21.3431 13.3432 20 15 20C16.6569 20 18 21.3431 18 23Z" fill="#18202A"/>
<path fill-rule="evenodd" clip-rule="evenodd" d="M38 48C43.5228 48 48 43.5228 48 38C48 32.4772 43.5228 28 38 28C32.4772 28 28 32.4772 28 38C28 43.5228 32.4772 48 38 48ZM44.1389 35.9762C44.678 35.3472 44.6051 34.4002 43.9762 33.8611C43.3472 33.322 42.4002 33.3948 41.8611 34.0238L36.7757 39.9568L33.9 37.8C33.2372 37.3029 32.297 37.4373 31.8 38.1C31.3029 38.7627 31.4372 39.7029 32.1 40.2L36.1 43.2C36.7324 43.6743 37.6244 43.5764 38.1389 42.9762L44.1389 35.9762Z" fill="#18202A"/>
</svg>
