<svg width="48" height="48" viewBox="0 0 48 48" fill="none" xmlns="http://www.w3.org/2000/svg">
<path fill-rule="evenodd" clip-rule="evenodd" d="M32.0452 12.9241C32.6394 13.5013 32.6532 14.451 32.0759 15.0452L12.6474 35.0452C12.3576 35.3435 11.957 35.5081 11.5413 35.4997C11.1255 35.4913 10.7319 35.3107 10.4543 35.001L3.88291 27.6677C3.33005 27.0507 3.38201 26.1024 3.99897 25.5496C4.61593 24.9967 5.56426 25.0487 6.11712 25.6656L11.6157 31.8017L29.9241 12.9548C30.5013 12.3606 31.451 12.3468 32.0452 12.9241Z" fill="#18202A"/>
<path fill-rule="evenodd" clip-rule="evenodd" d="M44.0452 12.9241C44.6394 13.5013 44.6532 14.451 44.0759 15.0452L24.6474 35.0452C24.3502 35.351 23.937 35.516 23.5109 35.4988C23.0849 35.4816 22.6862 35.2838 22.4148 34.955L20.28 32.3695C19.7526 31.7307 19.8429 30.7852 20.4817 30.2578C21.1205 29.7303 22.066 29.8206 22.5934 30.4594L23.6622 31.7539L41.9241 12.9548C42.5013 12.3606 43.451 12.3468 44.0452 12.9241Z" fill="#18202A"/>
</svg>
