<svg width="48" height="48" viewBox="0 0 48 48" fill="none" xmlns="http://www.w3.org/2000/svg">
<path d="M36.2451 9.224L40.4591 18.492C41.2851 18.658 42.0891 18.84 42.8671 19.038C43.0605 19.084 43.2428 19.168 43.4034 19.2851C43.5641 19.4022 43.6998 19.55 43.8028 19.7201C43.9058 19.8901 43.974 20.0789 44.0034 20.2755C44.0328 20.4721 44.0228 20.6726 43.974 20.8653C43.9253 21.058 43.8387 21.2391 43.7193 21.3981C43.5999 21.557 43.4501 21.6906 43.2787 21.7912C43.1072 21.8918 42.9174 21.9572 42.7204 21.9838C42.5234 22.0104 42.3231 21.9975 42.1311 21.946C41.1393 21.697 40.1402 21.4782 39.1351 21.29C30.0271 19.57 17.9751 19.57 8.8691 21.29C7.86255 21.4776 6.86207 21.6964 5.8691 21.946C5.67815 21.9945 5.47954 22.0048 5.28459 21.9765C5.08964 21.9482 4.90217 21.8818 4.73289 21.7811C4.39101 21.5776 4.14396 21.2466 4.0461 20.861C3.94823 20.4754 4.00756 20.0667 4.21104 19.7248C4.41452 19.3829 4.74547 19.1359 5.1311 19.038C5.9111 18.84 6.7171 18.658 7.5451 18.49L11.7571 9.224C12.194 8.2628 12.8984 7.44767 13.7861 6.87598C14.6738 6.30429 15.7072 6.00019 16.7631 6H31.2371C32.2933 5.9998 33.3272 6.30372 34.2153 6.87544C35.1033 7.44716 35.808 8.26249 36.2451 9.224ZM6.9991 33C6.9991 31.4087 7.63124 29.8826 8.75646 28.7574C9.88167 27.6321 11.4078 27 12.9991 27C14.5904 27 16.1165 27.6321 17.2417 28.7574C18.367 29.8826 18.9991 31.4087 18.9991 33C18.9991 34.5913 18.367 36.1174 17.2417 37.2426C16.1165 38.3679 14.5904 39 12.9991 39C11.4078 39 9.88167 38.3679 8.75646 37.2426C7.63124 36.1174 6.9991 34.5913 6.9991 33ZM12.9991 24C11.305 24.0006 9.64544 24.4793 8.2113 25.3811C6.77716 26.2829 5.62667 27.5711 4.89213 29.0977C4.15758 30.6243 3.86882 32.3272 4.05905 34.0106C4.24928 35.694 4.91077 37.2895 5.96746 38.6137C7.02414 39.9378 8.4331 40.9369 10.0323 41.4959C11.6315 42.0549 13.3561 42.1512 15.0076 41.7737C16.6591 41.3962 18.1705 40.5603 19.3681 39.362C20.5656 38.1637 21.4006 36.6517 21.7771 35H26.2231C26.7211 37.1515 27.9925 39.045 29.7955 40.3203C31.5985 41.5957 33.8073 42.1639 36.0018 41.917C38.1964 41.6701 40.2237 40.6252 41.6982 38.9812C43.1727 37.3371 43.9916 35.2084 43.9991 33C44.0031 30.697 43.1241 28.4801 41.5431 26.8056C39.9621 25.1311 37.7992 24.1264 35.4998 23.9982C33.2004 23.8701 30.9394 24.6283 29.1821 26.1168C27.4248 27.6053 26.305 29.7108 26.0531 32H21.9451C21.6991 29.7996 20.6506 27.7671 19.0002 26.2912C17.3497 24.8153 15.2132 23.9996 12.9991 24ZM28.9991 33C28.9991 31.4087 29.6312 29.8826 30.7565 28.7574C31.8817 27.6321 33.4078 27 34.9991 27C36.5904 27 38.1165 27.6321 39.2417 28.7574C40.367 29.8826 40.9991 31.4087 40.9991 33C40.9991 34.5913 40.367 36.1174 39.2417 37.2426C38.1165 38.3679 36.5904 39 34.9991 39C33.4078 39 31.8817 38.3679 30.7565 37.2426C29.6312 36.1174 28.9991 34.5913 28.9991 33Z" fill="#18202A"/>
</svg>
