<svg width="48" height="48" viewBox="0 0 48 48" fill="none" xmlns="http://www.w3.org/2000/svg">
<path d="M24.0001 24C28.0001 24 30.0001 20 30.0001 15C30.0001 11 28.0001 8 24.0001 8C20.0001 8 18.0001 11 18.0001 15C18.0001 20 20.0001 24 24.0001 24Z" fill="#18202A"/>
<path d="M25.3357 43.9757C24.4791 42.1634 24 40.1376 24 38C24 33.4568 26.164 29.4191 29.5175 26.8614C27.7788 26.3021 25.9247 26 24 26C20.4318 26 17.1061 27.0383 14.3085 28.8291C11.689 30.506 10.8126 33.8474 11.8598 36.776C12.166 37.6325 12.5078 38.4721 12.8832 39.2931C13.9471 41.6197 16.1315 43.2308 18.662 43.607C20.4038 43.8659 22.1862 44 24 44C24.4472 44 24.8925 43.9918 25.3357 43.9757Z" fill="#18202A"/>
<path d="M10.0001 24C12.6667 24 14.0001 21.5 14.0001 18.375C14.0001 15.875 12.6667 14 10.0001 14C7.33339 14 6.00006 15.875 6.00006 18.375C6.00006 21.5 7.33339 24 10.0001 24Z" fill="#18202A"/>
<path d="M38.0001 24C40.6667 24 42.0001 21.5 42.0001 18.375C42.0001 15.875 40.6667 14 38.0001 14C35.3334 14 34.0001 15.875 34.0001 18.375C34.0001 21.5 35.3334 24 38.0001 24Z" fill="#18202A"/>
<path d="M8.09335 38.1232C6.91837 34.8372 7.29203 30.9821 9.39692 28.0596C7.48761 28.2233 5.67407 28.7224 4.01546 29.4977C1.68134 30.5887 0.739491 33.3441 1.5275 35.7971C2.21696 37.9434 4.08923 39.4511 6.32651 39.7273C7.14359 39.8282 7.96915 39.9017 8.80225 39.9469C8.55003 39.3471 8.31355 38.7391 8.09335 38.1232Z" fill="#18202A"/>
<path fill-rule="evenodd" clip-rule="evenodd" d="M38 48C43.5228 48 48 43.5228 48 38C48 32.4772 43.5228 28 38 28C32.4772 28 28 32.4772 28 38C28 43.5228 32.4772 48 38 48ZM44.1388 35.9762C44.678 35.3472 44.6051 34.4002 43.9762 33.8611C43.3472 33.322 42.4002 33.3948 41.8611 34.0238L36.7757 39.9568L33.9 37.8C33.2372 37.3029 32.297 37.4373 31.8 38.1C31.3029 38.7627 31.4372 39.7029 32.1 40.2L36.1 43.2C36.7324 43.6743 37.6244 43.5764 38.1389 42.9762L44.1388 35.9762Z" fill="#18202A"/>
</svg>
