<svg width="48" height="48" viewBox="0 0 48 48" fill="none" xmlns="http://www.w3.org/2000/svg">
<path fill-rule="evenodd" clip-rule="evenodd" d="M37.9218 44H10.0783C3.91502 44 0.0666151 37.3239 3.1555 31.9906L17.0773 7.95297C20.1589 2.63221 27.8412 2.63221 30.9228 7.95297L44.8446 31.9906C47.9335 37.3239 44.0851 44 37.9218 44ZM26 16C26 14.8954 25.1046 14 24 14C22.8954 14 22 14.8954 22 16V26C22 27.1046 22.8954 28 24 28C25.1046 28 26 27.1046 26 26V16ZM24 32C22.8954 32 22 32.8954 22 34C22 35.1046 22.8954 36 24 36H24.02C25.1246 36 26.02 35.1046 26.02 34C26.02 32.8954 25.1246 32 24.02 32H24Z" fill="#18202A"/>
</svg>
