<svg width="48" height="48" viewBox="0 0 48 48" fill="none" xmlns="http://www.w3.org/2000/svg">
<path fill-rule="evenodd" clip-rule="evenodd" d="M30.6908 2.71011C29.82 2.24399 28.8474 2 27.8598 2H20.1398C19.152 2 18.1796 2.24399 17.3087 2.71011C16.4379 3.17623 15.6956 3.85013 15.1478 4.672L13.5238 7.11C13.3411 7.38384 13.0936 7.60834 12.8033 7.76358C12.5132 7.91876 12.1893 7.99996 11.8604 8L11.5662 8.00924C6.24462 8.23636 2 12.6225 2 18V34C2 39.5228 6.47716 44 12 44H36C41.5228 44 46 39.5228 46 34V18C46 12.4772 41.5228 8 36 8H36.1392C35.8102 7.99996 35.4862 7.91876 35.1962 7.76358C34.906 7.60834 34.6584 7.38384 34.4758 7.11L32.8518 4.672C32.3038 3.85013 31.5616 3.17623 30.6908 2.71011ZM20.1398 5H27.8598L28.1547 5.01455C28.5458 5.05324 28.9267 5.16859 29.275 5.35503C29.7104 5.58807 30.0816 5.92507 30.3558 6.33629L31.979 8.77316L32.221 9.10558C32.6458 9.64157 33.1764 10.0854 33.7811 10.4089L34.1504 10.5874C34.6513 10.8046 35.1846 10.9383 35.7289 10.9831L36 11L36.3841 11.0104C40.0714 11.2097 43 14.2629 43 18V34L42.9896 34.3841C42.7902 38.0714 39.7371 41 36 41H12L11.6159 40.9896C7.92858 40.7903 5 37.7371 5 34V18L5.01036 17.6159C5.20975 13.9286 8.26288 11 12 10.992L12.2706 10.9831C12.9508 10.9271 13.6139 10.7322 14.2183 10.4089C14.9438 10.0209 15.5626 9.45961 16.0193 8.77498L17.6445 6.33516L17.82 6.09813C18.0689 5.79444 18.3761 5.5415 18.7245 5.35505C19.16 5.12195 19.6461 5 20.1398 5ZM17.9297 19.5501C19.4741 17.9746 21.6219 17 24 17C27.7116 17 30.8676 19.379 32.0264 22.6953L29.7879 23.0151C29.1873 23.1009 28.6975 23.54 28.5469 24.1277C28.3964 24.7154 28.6146 25.336 29.1 25.7L33.1 28.7C33.7627 29.1971 34.7029 29.0627 35.2 28.4L38.2 24.4C38.564 23.9146 38.5998 23.2578 38.2907 22.7358C37.9816 22.2137 37.3885 21.9293 36.7879 22.0151L35.0387 22.265C33.6413 17.4886 29.228 14 24 14C20.7833 14 17.8728 15.3226 15.7874 17.4499C15.2075 18.0415 15.2169 18.9912 15.8085 19.5711C16.4001 20.1511 17.3498 20.1416 17.9297 19.5501ZM14.9 22.3C14.2373 21.8029 13.2971 21.9373 12.8 22.6L9.8 26.6C9.43599 27.0854 9.40019 27.7422 9.70929 28.2642C10.0184 28.7863 10.6115 29.0707 11.2121 28.9849L12.9613 28.735C14.3587 33.5114 18.772 37 24 37C27.2167 37 30.1272 35.6774 32.2126 33.5501C32.7925 32.9585 32.7831 32.0088 32.1915 31.4289C31.5999 30.8489 30.6502 30.8584 30.0703 31.4499C28.5259 33.0254 26.3781 34 24 34C20.2884 34 17.1324 31.621 15.9736 28.3047L18.2121 27.9849C18.8127 27.8991 19.3025 27.46 19.4531 26.8723C19.6036 26.2846 19.3854 25.664 18.9 25.3L14.9 22.3Z" fill="#18202A"/>
</svg>
