<svg width="48" height="48" viewBox="0 0 48 48" fill="none" xmlns="http://www.w3.org/2000/svg">
<path d="M31.0607 23.0607C31.6464 22.4749 31.6464 21.5251 31.0607 20.9393C30.4749 20.3536 29.5251 20.3536 28.9393 20.9393L24 25.8787L19.0607 20.9393C18.4749 20.3536 17.5251 20.3536 16.9393 20.9393C16.3536 21.5251 16.3536 22.4749 16.9393 23.0607L21.8787 28L16.9393 32.9393C16.3536 33.5251 16.3536 34.4749 16.9393 35.0607C17.5251 35.6464 18.4749 35.6464 19.0607 35.0607L24 30.1213L28.9393 35.0607C29.5251 35.6464 30.4749 35.6464 31.0607 35.0607C31.6464 34.4749 31.6464 33.5251 31.0607 32.9393L26.1213 28L31.0607 23.0607Z" fill="#18202A"/>
<path fill-rule="evenodd" clip-rule="evenodd" d="M14 6C10.8512 6 8.2689 8.4256 8.0197 11.5102C6.89513 12.5079 6.14804 13.9217 6.0197 15.5102C4.78077 16.6094 4 18.2135 4 20V36C4 39.3137 6.68629 42 10 42H38C41.3137 42 44 39.3137 44 36V20C44 18.2135 43.2192 16.6094 41.9803 15.5102C41.852 13.9217 41.1049 12.5079 39.9803 11.5102C39.7311 8.4256 37.1488 6 34 6H14ZM14 9C13.1092 9 12.3091 9.38823 11.7597 10.0047C11.8394 10.0016 11.9195 10 12 10H36C36.0805 10 36.1606 10.0016 36.2403 10.0047C35.6909 9.38824 34.8908 9 34 9H14ZM10 14C9.91951 14 9.83939 14.0016 9.75967 14.0047C10.3091 13.3882 11.1092 13 12 13H36C36.8908 13 37.6909 13.3882 38.2403 14.0047C38.1606 14.0016 38.0805 14 38 14H10ZM38 17C39.6569 17 41 18.3431 41 20V36C41 37.6569 39.6569 39 38 39H10C8.34315 39 7 37.6569 7 36V20C7 18.3431 8.34315 17 10 17H38Z" fill="#18202A"/>
</svg>
