<svg width="48" height="48" viewBox="0 0 48 48" fill="none" xmlns="http://www.w3.org/2000/svg">
<g clip-path="url(#clip0_2294_8471)">
<path fill-rule="evenodd" clip-rule="evenodd" d="M46 6.00015C44.8954 6.00015 44 6.89558 44 8.00015V18.0002H34C32.8954 18.0002 32 18.8956 32 20.0002C32 21.1047 32.8954 22.0002 34 22.0002H46C47.1046 22.0002 48 21.1047 48 20.0002V8.00015C48 6.89558 47.1046 6.00015 46 6.00015Z" fill="#18202A"/>
<path fill-rule="evenodd" clip-rule="evenodd" d="M16 28.0002C16 26.8956 15.1046 26.0002 14 26.0002H1.99999C0.895424 26.0002 -7.62939e-06 26.8956 -7.62939e-06 28.0002V40.0002C-7.62939e-06 41.1047 0.895424 42.0002 1.99999 42.0002C3.10456 42.0002 3.99999 41.1047 3.99999 40.0002V30.0002H14C15.1046 30.0002 16 29.1047 16 28.0002Z" fill="#18202A"/>
<path fill-rule="evenodd" clip-rule="evenodd" d="M29.5461 4.79246C26.3007 3.85372 22.8704 3.75241 19.5752 4.49798C16.28 5.24355 13.2275 6.8117 10.7023 9.05611C8.17708 11.3005 6.2616 14.148 5.13456 17.333C4.76608 18.3743 5.3115 19.5171 6.3528 19.8856C7.3941 20.2541 8.53695 19.7086 8.90543 18.6673C9.80706 16.1194 11.3394 13.8414 13.3596 12.0459C15.3797 10.2503 17.8218 8.99582 20.4579 8.39936C23.0941 7.8029 25.8383 7.88395 28.4347 8.63494C31.031 9.38593 33.3948 10.7824 35.3054 12.694C35.3202 12.7088 35.3352 12.7233 35.3504 12.7377L44.6304 21.4577C45.4354 22.214 46.7011 22.1747 47.4575 21.3697C48.2139 20.5647 48.1745 19.299 47.3695 18.5426L38.1118 9.84355C35.7275 7.46569 32.7812 5.72821 29.5461 4.79246ZM0.542488 26.6306C-0.213898 27.4356 -0.174519 28.7013 0.63044 29.4577L9.88823 38.1568C12.2725 40.5346 15.2188 42.2721 18.4539 43.2078C21.6993 44.1466 25.1296 44.2479 28.4248 43.5023C31.7199 42.7568 34.7725 41.1886 37.2977 38.9442C39.8229 36.6998 41.7384 33.8523 42.8654 30.6673C43.2339 29.626 42.6885 28.4832 41.6472 28.1147C40.6059 27.7462 39.463 28.2917 39.0946 29.333C38.1929 31.8809 36.6605 34.1589 34.6404 35.9544C32.6202 37.75 30.1782 39.0045 27.5421 39.6009C24.9059 40.1974 22.1617 40.1164 19.5653 39.3654C16.969 38.6144 14.6052 37.2179 12.6946 35.3063C12.6857 35.2974 12.6767 35.2886 12.6677 35.2799C12.6617 35.2741 12.6556 35.2684 12.6495 35.2626L3.36954 26.5426C2.56459 25.7863 1.29887 25.8256 0.542488 26.6306Z" fill="#18202A"/>
</g>
<defs>
<clipPath id="clip0_2294_8471">
<rect width="48" height="48" fill="white"/>
</clipPath>
</defs>
</svg>
