<svg width="48" height="48" viewBox="0 0 48 48" fill="none" xmlns="http://www.w3.org/2000/svg">
<path d="M28 24C28 26.2091 26.2092 28 24 28C21.7909 28 20 26.2091 20 24C20 21.7909 21.7909 20 24 20C26.2092 20 28 21.7909 28 24Z" fill="#18202A"/>
<path fill-rule="evenodd" clip-rule="evenodd" d="M2.64478 22.0288C1.80257 23.2198 1.80257 24.7802 2.64478 25.9712C5.66941 30.2486 13.695 40 24 40C34.305 40 42.3306 30.2486 45.3553 25.9712C46.1975 24.7802 46.1975 23.2198 45.3553 22.0288C42.3306 17.7514 34.305 8 24 8C13.695 8 5.66941 17.7514 2.64478 22.0288ZM24 32C28.4183 32 32 28.4183 32 24C32 19.5817 28.4183 16 24 16C19.5817 16 16 19.5817 16 24C16 28.4183 19.5817 32 24 32Z" fill="#18202A"/>
</svg>
