<svg width="48" height="48" viewBox="0 0 48 48" fill="none" xmlns="http://www.w3.org/2000/svg">
<path d="M0 14C0 9.58172 3.58172 6 8 6H28C32.4183 6 36 9.58172 36 14V34C36 38.4183 32.4183 42 28 42H8C3.58172 42 0 38.4183 0 34V14Z" fill="#18202A"/>
<path d="M38 18.2245C38 17.5812 38.3094 16.9772 38.8314 16.6014L44.8314 12.2814C46.1544 11.3289 48 12.2743 48 13.9045V34.0955C48 35.7257 46.1544 36.6711 44.8314 35.7186L38.8314 31.3986C38.3094 31.0228 38 30.4188 38 27.7755V18.2245Z" fill="#18202A"/>
</svg>
