<svg width="48" height="48" viewBox="0 0 48 48" fill="none" xmlns="http://www.w3.org/2000/svg">
<path fill-rule="evenodd" clip-rule="evenodd" d="M18.5 3C18.5 2.17157 17.8284 1.5 17 1.5C16.1716 1.5 15.5 2.17157 15.5 3V7C15.5 7.82843 16.1716 8.5 17 8.5C17.8284 8.5 18.5 7.82843 18.5 7V3ZM8.06066 5.93934C7.47487 5.35355 6.52513 5.35355 5.93934 5.93934C5.35355 6.52513 5.35355 7.47487 5.93934 8.06066L8.93934 11.0607C9.52513 11.6464 10.4749 11.6464 11.0607 11.0607C11.6464 10.4749 11.6464 9.52513 11.0607 8.93934L8.06066 5.93934ZM3 15.5C2.17157 15.5 1.5 16.1716 1.5 17C1.5 17.8284 2.17157 18.5 3 18.5H7C7.82843 18.5 8.5 17.8284 8.5 17C8.5 16.1716 7.82843 15.5 7 15.5H3ZM29.5 45C29.5 45.8284 30.1716 46.5 31 46.5C31.8284 46.5 32.5 45.8284 32.5 45V41C32.5 40.1716 31.8284 39.5 31 39.5C30.1716 39.5 29.5 40.1716 29.5 41V45ZM36.9393 39.0607L39.9393 42.0607C40.5251 42.6464 41.4749 42.6464 42.0607 42.0607C42.6464 41.4749 42.6464 40.5251 42.0607 39.9393L39.0607 36.9393C38.4749 36.3536 37.5251 36.3536 36.9393 36.9393C36.3536 37.5251 36.3536 38.4749 36.9393 39.0607ZM45 32.5C45.8284 32.5 46.5 31.8284 46.5 31C46.5 30.1716 45.8284 29.5 45 29.5H41C40.1716 29.5 39.5 30.1716 39.5 31C39.5 31.8284 40.1716 32.5 41 32.5H45ZM7.38283 40.6171C2.8918 36.126 2.8918 28.8447 7.38283 24.3536L11.6255 20.111C12.2113 19.5252 13.161 19.5252 13.7468 20.111C14.3326 20.6968 14.3326 21.6465 13.7468 22.2323L9.50415 26.4749C6.18469 29.7944 6.18469 35.1763 9.50415 38.4958C12.8236 41.8152 18.2055 41.8152 21.525 38.4958L25.7676 34.2531C26.3534 33.6673 27.3031 33.6673 27.8889 34.2531C28.4747 34.8389 28.4747 35.7887 27.8889 36.3744L23.6463 40.6171C19.1553 45.1081 11.8739 45.1081 7.38283 40.6171ZM24.3535 7.38295C28.8445 2.89192 36.1259 2.89192 40.617 7.38295C45.108 11.874 45.108 19.1554 40.617 23.6464L36.3743 27.889C35.7885 28.4748 34.8388 28.4748 34.253 27.889C33.6672 27.3033 33.6672 26.3535 34.253 25.7677L38.4956 21.5251C41.8151 18.2056 41.8151 12.8237 38.4956 9.50427C35.1762 6.18481 29.7943 6.18481 26.4748 9.50427L22.2322 13.7469C21.6464 14.3327 20.6966 14.3327 20.1109 13.7469C19.5251 13.1611 19.5251 12.2114 20.1109 11.6256L24.3535 7.38295Z" fill="#18202A"/>
</svg>
