<svg width="48" height="48" viewBox="0 0 48 48" fill="none" xmlns="http://www.w3.org/2000/svg">
<path fill-rule="evenodd" clip-rule="evenodd" d="M11.4142 7.41421L5.41421 13.4142C4.63317 14.1953 3.36683 14.1953 2.58579 13.4142C1.80474 12.6332 1.80474 11.3668 2.58579 10.5858L8.58579 4.58579C9.36684 3.80474 10.6332 3.80474 11.4142 4.58579C12.1953 5.36684 12.1953 6.63317 11.4142 7.41421ZM24 46C35.0457 46 44 37.0457 44 26C44 14.9543 35.0457 6 24 6C12.9543 6 4 14.9543 4 26C4 37.0457 12.9543 46 24 46ZM26 14C26 12.8954 25.1046 12 24 12C22.8954 12 22 12.8954 22 14V26C22 26.8001 22.4768 27.5231 23.2122 27.8383L30.2122 30.8383C31.2274 31.2734 32.4032 30.8031 32.8383 29.7878C33.2734 28.7726 32.8031 27.5968 31.7878 27.1617L26 24.6812V14ZM36.5858 7.41421C35.8047 6.63317 35.8047 5.36684 36.5858 4.58579C37.3668 3.80474 38.6332 3.80474 39.4142 4.58579L45.4142 10.5858C46.1953 11.3668 46.1953 12.6332 45.4142 13.4142C44.6332 14.1953 43.3668 14.1953 42.5858 13.4142L36.5858 7.41421Z" fill="#18202A"/>
</svg>
