<svg width="48" height="48" viewBox="0 0 48 48" fill="none" xmlns="http://www.w3.org/2000/svg">
<path fill-rule="evenodd" clip-rule="evenodd" d="M10.6508 43.0733C7.92845 42.445 6 40.0209 6 37.2269V8C6 4.68629 8.68629 2 12 2H36C39.3137 2 42 4.68629 42 8V36C42 39.3137 39.3137 42 36 42H32V42.9718C32 45.5441 29.607 47.4478 27.1006 46.8694L10.6508 43.0733ZM28.8994 7.28449L23.3333 6H36C37.1046 6 38 6.89543 38 8V36C38 37.1046 37.1046 38 36 38H32V11.1821C32 9.31943 30.7144 7.70331 28.8994 7.28449ZM28 27C28 28.6569 27.1046 30 26 30C24.8954 30 24 28.6569 24 27C24 25.3431 24.8954 24 26 24C27.1046 24 28 25.3431 28 27Z" fill="#18202A"/>
</svg>
