<svg width="48" height="48" viewBox="0 0 48 48" fill="none" xmlns="http://www.w3.org/2000/svg">
<path d="M16.02 4.07974C17.4494 4.05896 18.8393 4.5492 19.9393 5.46222C21.0392 6.37522 21.7772 7.65098 22.02 9.05974C22.08 9.51974 22.16 9.97974 22.26 10.4197C22.4618 11.3093 22.7224 12.1846 23.04 13.0397C23.3776 13.9676 23.36 14.9874 22.9908 15.9031C22.6677 16.7043 22.0954 17.3762 21.3633 17.8225L21.04 17.9997L20.2 18.5597C21.2836 20.5078 22.6296 22.2978 24.2 23.8798C25.5842 25.2539 27.1277 26.456 28.797 27.4612L29.52 27.8798L29.96 26.9798C30.3942 26.093 31.141 25.3982 32.0566 25.029C32.9724 24.6598 33.9922 24.6422 34.92 24.9798C35.56 25.222 36.2126 25.4292 36.8747 25.6005L38.21 25.9173C38.435 25.9648 38.66 25.9998 38.88 25.9998C40.2476 26.245 41.4878 26.9572 42.3886 28.015C43.1895 28.9553 43.6783 30.1168 43.7942 31.3389L43.8201 31.7998V37.7998C43.824 38.6486 43.6478 39.4886 43.303 40.2644C42.9582 41.04 42.4528 41.7338 41.82 42.2998C40.8289 43.1827 39.5764 43.7094 38.2606 43.8043L37.82 43.8198H37.06C28.6774 42.7848 20.8786 38.9866 14.8953 33.025C8.91208 27.0634 5.0855 19.2785 4.02002 10.8997C3.90218 10.0459 3.9697 9.1766 4.218 8.35116C4.46628 7.52572 4.88952 6.76348 5.45888 6.1163C6.02824 5.46912 6.73036 4.95224 7.51744 4.6008C8.17334 4.30793 8.87541 4.1357 9.59002 4.09112L10.02 4.07974H16.02ZM16.02 7.07974L9.99183 7.07935C9.56087 7.07555 9.13411 7.16441 8.74058 7.34013C8.34701 7.51586 7.99595 7.7743 7.71129 8.09787C7.42659 8.42148 7.21498 8.80259 7.09084 9.21533C6.96669 9.62803 6.93293 10.0627 6.99605 10.5213C7.97741 18.2385 11.5019 25.4088 17.0128 30.8998C22.3269 36.1947 29.1958 39.6367 36.6025 40.7306L37.2637 40.8191L37.8245 40.8198C38.4564 40.8207 39.0698 40.6221 39.5762 40.2589L39.82 40.0637C40.1364 39.7808 40.3892 39.4338 40.5616 39.046C40.6909 38.7551 40.7727 38.4461 40.8048 38.1249L40.8201 37.7998L40.8205 31.8526C40.8083 31.1581 40.5553 30.4892 40.1046 29.96C39.7187 29.5069 39.2081 29.1806 38.6394 29.0194L38.4837 28.9831L38.4494 28.9825C38.3078 28.9712 38.1674 28.9544 38.0251 28.9326L37.5903 28.8526L36.8942 28.6895C35.8614 28.4618 34.8467 28.1597 33.8942 27.799C33.6624 27.7146 33.4075 27.719 33.1785 27.8113C33.0068 27.8805 32.8589 27.9956 32.7502 28.1416L32.6552 28.2974L31.752 30.1447C31.2486 31.1745 29.9845 31.5713 28.9829 31.014L28.0614 30.5014C25.8735 29.2841 23.8632 27.7726 22.0709 25.9933C20.5274 24.4384 19.1771 22.7047 18.0484 20.83L17.5783 20.018L17.1298 19.2117C16.6231 18.3008 16.9009 17.1536 17.7682 16.5754L19.3759 15.5036L19.7208 15.3053C19.9425 15.1968 20.1162 15.0102 20.2084 14.7813C20.3008 14.5523 20.3052 14.2973 20.2277 14.0842C19.8639 13.1046 19.5654 12.1022 19.3346 11.0846C19.2152 10.5591 19.1183 10.0081 19.0636 9.56927C18.9422 8.86509 18.5733 8.22719 18.0232 7.77064C17.5518 7.37936 16.9739 7.14338 16.3409 7.09068L16.02 7.07974Z" fill="#18202A"/>
</svg>
