<svg width="48" height="48" viewBox="0 0 48 48" fill="none" xmlns="http://www.w3.org/2000/svg">
<path fill-rule="evenodd" clip-rule="evenodd" d="M4.08045 14.0002L23.5124 24.8342C23.8151 25.003 24.1836 25.003 24.4863 24.8342L43.9191 14.0002L24.4863 3.1666C24.1836 2.99785 23.8151 2.99785 23.5124 3.16661L4.08045 14.0002ZM22.0515 27.4545C23.2623 28.1296 24.7363 28.1296 25.9471 27.4545L37 21.2924V28.6849C37 30.5759 35.9208 32.5823 33.5816 34.2365C31.2498 35.8854 27.8717 36.9998 24 36.9998C20.1283 36.9998 16.7502 35.8854 14.4184 34.2365C12.0792 32.5823 11 30.5759 11 28.6849V21.2928L22.0515 27.4545ZM46.9467 15.747L40 19.6199V28.6849C40 34.9345 32.8366 39.9998 24 39.9998C15.1634 39.9998 8 34.9345 8 28.6849V19.6202L5 17.9476L5 39.1707C6.16519 39.5825 7 40.6938 7 42V43C7 44.6569 5.65685 46 4 46H3C1.34315 46 0 44.6569 0 43V42C0 40.6938 0.834807 39.5825 2 39.1707L2 16.275L1.05296 15.747C-0.315151 14.9842 -0.315134 13.016 1.05299 12.2533L22.0516 0.546316C23.2623 -0.128707 24.7363 -0.128721 25.9471 0.546279L46.9466 12.2533C48.3148 13.016 48.3148 14.9842 46.9467 15.747ZM24 17C26.4853 17 28.5 15.6569 28.5 14C28.5 12.3431 26.4853 11 24 11C21.5147 11 19.5 12.3431 19.5 14C19.5 15.6569 21.5147 17 24 17Z" fill="#18202A"/>
</svg>
