<svg width="48" height="48" viewBox="0 0 48 48" fill="none" xmlns="http://www.w3.org/2000/svg">
<path fill-rule="evenodd" clip-rule="evenodd" d="M24 8C24 6.89543 23.1021 5.99214 22.0005 6.07334C10.7873 6.89987 2 14.6103 2 24C2 33.9411 11.8497 42 24 42C26.3525 42 28.6188 41.6979 30.7441 41.1385L36.9646 43.7304C38.3485 44.307 39.8514 43.2122 39.7269 41.7181L39.3265 36.9132C43.4426 33.6423 46 29.0655 46 24C46 23.8979 45.999 23.796 45.9969 23.6943C45.9771 22.7207 45.1392 22 44.1654 22H43.8177C42.7745 22 42 22.9568 42 24C42 27.6408 40.172 31.1321 36.8379 33.7817L35.1626 35.113L35.4677 38.7733L31.034 36.9259L29.7259 37.2702C27.9343 37.7418 26.0103 38 24 38C13.2709 38 6 31.0189 6 24C6 17.4261 12.3782 10.8854 22.0019 10.0824C23.1026 9.99058 24 9.10457 24 8Z" fill="#18202A"/>
<path d="M34 4C35.1046 4 36 4.67157 36 5.5V7.04425C39.4873 7.78629 43.5117 11.5019 43.5117 14C43.5117 14.9584 42.2691 14.5187 40.6397 13.9422C39.1984 13.4323 37.4544 12.8152 36 12.9639V24C36 27.3137 33.3137 30 30 30C26.6863 30 24 27.3137 24 24C24 20.6863 26.6863 18 30 18C30.7013 18 31.3744 18.1203 32 18.3414V5.5C32 4.67157 32.8954 4 34 4Z" fill="#18202A"/>
</svg>
