<svg width="48" height="48" viewBox="0 0 48 48" fill="none" xmlns="http://www.w3.org/2000/svg">
<path d="M33.0345 22.9138C33.6344 23.4851 33.6576 24.4346 33.0862 25.0345L21.6577 37.0345C21.3651 37.3417 20.9562 37.5106 20.5322 37.4995C20.1081 37.4884 19.7086 37.2983 19.4326 36.9762L14.8611 31.6429C14.322 31.0139 14.3949 30.0669 15.0238 29.5278C15.6528 28.9887 16.5998 29.0615 17.1389 29.6905L20.6301 33.7635L30.9138 22.9655C31.4851 22.3656 32.4346 22.3425 33.0345 22.9138Z" fill="#18202A"/>
<path fill-rule="evenodd" clip-rule="evenodd" d="M8.0197 13.5102C8.2689 10.4256 10.8512 8 14 8H34C37.1488 8 39.7311 10.4256 39.9803 13.5102C41.1049 14.5079 41.852 15.9217 41.9803 17.5102C43.2192 18.6094 44 20.2135 44 22V38C44 41.3137 41.3137 44 38 44H10C6.68629 44 4 41.3137 4 38V22C4 20.2135 4.78077 18.6094 6.0197 17.5102C6.14804 15.9217 6.89513 14.5079 8.0197 13.5102ZM11.7597 12.0047C12.3091 11.3882 13.1092 11 14 11H34C34.8908 11 35.6909 11.3882 36.2403 12.0047C36.1606 12.0016 36.0805 12 36 12H12C11.9195 12 11.8394 12.0016 11.7597 12.0047ZM9.75967 16.0047C9.83939 16.0016 9.91951 16 10 16H38C38.0805 16 38.1606 16.0016 38.2403 16.0047C37.6909 15.3882 36.8908 15 36 15H12C11.1092 15 10.3091 15.3882 9.75967 16.0047ZM41 22C41 20.3431 39.6569 19 38 19H10C8.34315 19 7 20.3431 7 22V38C7 39.6569 8.34315 41 10 41H38C39.6569 41 41 39.6569 41 38V22Z" fill="#18202A"/>
</svg>
