<svg width="48" height="48" viewBox="0 0 48 48" fill="none" xmlns="http://www.w3.org/2000/svg">
<path fill-rule="evenodd" clip-rule="evenodd" d="M22 9C22 10.1046 22.8954 11 24 11C25.1046 11 26 10.1046 26 9C26 7.89543 25.1046 7 24 7C22.8954 7 22 7.89543 22 9ZM19 9C19 11.7614 21.2386 14 24 14C26.7614 14 29 11.7614 29 9C29 6.23858 26.7614 4 24 4C21.2386 4 19 6.23858 19 9Z" fill="#18202A"/>
<path fill-rule="evenodd" clip-rule="evenodd" d="M22 24C22 25.1046 22.8954 26 24 26C25.1046 26 26 25.1046 26 24C26 22.8954 25.1046 22 24 22C22.8954 22 22 22.8954 22 24ZM19 24C19 26.7614 21.2386 29 24 29C26.7614 29 29 26.7614 29 24C29 21.2386 26.7614 19 24 19C21.2386 19 19 21.2386 19 24Z" fill="#18202A"/>
<path fill-rule="evenodd" clip-rule="evenodd" d="M22 39C22 40.1046 22.8954 41 24 41C25.1046 41 26 40.1046 26 39C26 37.8954 25.1046 37 24 37C22.8954 37 22 37.8954 22 39ZM19 39C19 41.7614 21.2386 44 24 44C26.7614 44 29 41.7614 29 39C29 36.2386 26.7614 34 24 34C21.2386 34 19 36.2386 19 39Z" fill="#18202A"/>
</svg>
