<svg width="48" height="48" viewBox="0 0 48 48" fill="none" xmlns="http://www.w3.org/2000/svg">
<path d="M35.1795 8.9268C35.6913 8.27539 35.5781 7.33241 34.9267 6.82059C34.2753 6.30877 33.3323 6.42192 32.8205 7.07333L11.8651 33.7439L7.06066 28.9394C6.47487 28.3536 5.52513 28.3536 4.93934 28.9394C4.35355 29.5252 4.35355 30.4749 4.93934 31.0607L10.9393 37.0607C11.2427 37.364 11.6613 37.523 12.0895 37.4974C12.5177 37.4718 12.9145 37.2641 13.1795 36.9268L35.1795 8.9268Z" fill="#18202A"/>
<path d="M38 14.5C37.1716 14.5 36.5 15.1716 36.5 16C36.5 16.8284 37.1716 17.5 38 17.5H42C42.8284 17.5 43.5 16.8284 43.5 16C43.5 15.1716 42.8284 14.5 42 14.5H38Z" fill="#18202A"/>
<path d="M28.5 26C28.5 25.1716 29.1716 24.5 30 24.5H42C42.8284 24.5 43.5 25.1716 43.5 26C43.5 26.8284 42.8284 27.5 42 27.5H30C29.1716 27.5 28.5 26.8284 28.5 26Z" fill="#18202A"/>
<path d="M22 34.5C21.1716 34.5 20.5 35.1716 20.5 36C20.5 36.8284 21.1716 37.5 22 37.5H42C42.8284 37.5 43.5 36.8284 43.5 36C43.5 35.1716 42.8284 34.5 42 34.5H22Z" fill="#18202A"/>
</svg>
