<svg width="48" height="48" viewBox="0 0 48 48" fill="none" xmlns="http://www.w3.org/2000/svg">
<path fill-rule="evenodd" clip-rule="evenodd" d="M32 10.75C32 17 29.3333 22 24 22C18.6667 22 16 17 16 10.75C16 5.75 18.6667 2 24 2C29.3333 2 32 5.75 32 10.75ZM29 10.75C29 13.5062 28.4033 15.6842 27.492 17.0725C26.6615 18.3378 25.5651 19 24 19C22.4349 19 21.3385 18.3378 20.508 17.0725C19.5967 15.6842 19 13.5062 19 10.75C19 8.75033 19.5341 7.32391 20.2821 6.44736C20.9722 5.63857 22.092 5 24 5C25.908 5 27.0278 5.63857 27.7179 6.44736C28.4659 7.32391 29 8.75033 29 10.75ZM22 42.9405V45.9454C19.609 45.8145 17.2802 45.4502 15.0358 44.875C12.5978 44.2502 10.5314 42.6171 9.3997 40.369C9.06425 39.7026 8.75139 39.0229 8.46215 38.3308C7.23313 35.3902 7.72293 31.9498 9.99863 29.7185C13.6063 26.1812 18.5484 24 24 24C28.5784 24 32.7975 25.5384 36.1685 28.1265C35.9239 28.494 35.7131 28.8859 35.5406 29.2979C35.3697 29.706 34.9866 30 34.5441 30H33.6471C30.9058 28.1066 27.5839 27 24 27C19.3651 27 15.1685 28.8509 12.099 31.8606C10.8113 33.1232 10.4113 35.2148 11.2301 37.174C11.4921 37.8007 11.7754 38.4164 12.0793 39.0201C12.812 40.4755 14.1619 41.5541 15.7806 41.969C17.7846 42.4825 19.8638 42.813 22 42.9405ZM39.5 31.5C39.5 30.3954 40.3954 29.5 41.5 29.5C42.6046 29.5 43.5 30.3954 43.5 31.5V33C43.5 33.8284 44.1716 34.5 45 34.5C45.8284 34.5 46.5 33.8284 46.5 33V31.5C46.5 28.7386 44.2614 26.5 41.5 26.5C38.7386 26.5 36.5 28.7386 36.5 31.5V34H27C26.4477 34 26 34.4477 26 35V47C26 47.5523 26.4477 48 27 48H41C41.5523 48 42 47.5523 42 47V35C42 34.4477 41.5523 34 41 34H39.5V31.5ZM34 38.5C34.8284 38.5 35.5 39.1716 35.5 40V42C35.5 42.8284 34.8284 43.5 34 43.5C33.1716 43.5 32.5 42.8284 32.5 42V40C32.5 39.1716 33.1716 38.5 34 38.5Z" fill="#18202A"/>
</svg>
