<svg width="48" height="48" viewBox="0 0 48 48" fill="none" xmlns="http://www.w3.org/2000/svg">
<path fill-rule="evenodd" clip-rule="evenodd" d="M46 24C46 36.1503 36.1503 46 24 46C11.8497 46 2 36.1503 2 24C2 11.8497 11.8497 2 24 2C36.1503 2 46 11.8497 46 24ZM21 15C21 13.3431 22.3431 12 24 12C25.6569 12 27 13.3431 27 15C27 16.6569 25.6569 18 24 18C22.3431 18 21 16.6569 21 15ZM18 22C18 20.8954 18.8954 20 20 20H24C25.1046 20 26 20.8954 26 22V32H28C29.1046 32 30 32.8954 30 34C30 35.1046 29.1046 36 28 36H20C18.8954 36 18 35.1046 18 34C18 32.8954 18.8954 32 20 32H22V24H20C18.8954 24 18 23.1046 18 22Z" fill="#18202A"/>
</svg>
