<svg width="48" height="48" viewBox="0 0 48 48" fill="none" xmlns="http://www.w3.org/2000/svg">
<path fill-rule="evenodd" clip-rule="evenodd" d="M24 22C29.3333 22 32 17 32 10.75C32 5.75 29.3333 2 24 2C18.6667 2 16 5.75 16 10.75C16 17 18.6667 22 24 22ZM24.0001 26C25.9455 26 27.8261 26.2778 29.6042 26.7958C26.2014 29.3498 24 33.4178 24 38C24 40.9386 24.9054 43.6658 26.4525 45.9178C25.642 45.9723 24.8243 46 24 46C20.9052 46 17.9016 45.6095 15.0359 44.875C12.5978 44.2502 10.5314 42.6171 9.39972 40.369C9.36839 40.3068 9.33726 40.2444 9.30633 40.1819C7.74188 37.0227 8.27388 33.1522 10.9433 30.8496C14.4469 27.8275 19.0101 26 24.0001 26ZM48 38C48 43.5228 43.5228 48 38 48C32.4772 48 28 43.5228 28 38C28 32.4772 32.4772 28 38 28C43.5228 28 48 32.4772 48 38ZM42.9497 33.0503C43.5355 33.6361 43.5355 34.5859 42.9497 35.1717L40.1213 38.0001L42.9497 40.8285C43.5355 41.4143 43.5355 42.364 42.9497 42.9498C42.364 43.5356 41.4142 43.5356 40.8284 42.9498L38 40.1214L35.1716 42.9498C34.5858 43.5356 33.636 43.5356 33.0503 42.9498C32.4645 42.364 32.4645 41.4143 33.0503 40.8285L35.8787 38.0001L33.0503 35.1717C32.4645 34.5859 32.4645 33.6361 33.0503 33.0503C33.636 32.4645 34.5858 32.4645 35.1716 33.0503L38 35.8788L40.8284 33.0503C41.4142 32.4645 42.364 32.4645 42.9497 33.0503Z" fill="#18202A"/>
</svg>
