<svg width="64" height="64" viewBox="0 0 64 64" fill="none" xmlns="http://www.w3.org/2000/svg">
<path fill-rule="evenodd" clip-rule="evenodd" d="M32 10.6666C32 9.19383 30.8028 7.98944 29.334 8.0977C14.383 9.19974 2.66663 19.4803 2.66663 31.9999C2.66663 45.2548 15.7996 55.9999 32 55.9999C35.1367 55.9999 38.1584 55.5971 40.9921 54.8512L49.2861 58.3071C51.1313 59.0759 53.1352 57.6162 52.9692 55.6241L52.4353 49.2176C57.9234 44.8564 61.3333 38.754 61.3333 31.9999C61.3333 31.8638 61.3319 31.7279 61.3291 31.5923C61.3027 30.2942 60.1856 29.3333 58.8872 29.3333H58.4236C57.0326 29.3333 56 30.609 56 31.9999C56 36.8543 53.5626 41.5094 49.1172 45.0421L46.8835 46.8172L47.2902 51.6977L41.3786 49.2345L39.6345 49.6936C37.2457 50.3223 34.6803 50.6666 32 50.6666C17.6945 50.6666 7.99996 41.3585 7.99996 31.9999C7.99996 23.2347 16.5042 14.5138 29.3358 13.4432C30.8035 13.3207 32 12.1393 32 10.6666Z" fill="#18202A"/>
<path d="M45.3333 5.33325C46.8061 5.33325 48 6.22868 48 7.33325V9.39226C52.6497 10.3816 58.0156 15.3358 58.0156 18.6666C58.0156 19.9444 56.3588 19.3582 54.1862 18.5895C52.2645 17.9096 49.9391 17.0869 48 17.2851V31.9999C48 36.4182 44.4182 39.9999 40 39.9999C35.5817 39.9999 32 36.4182 32 31.9999C32 27.5816 35.5817 23.9999 40 23.9999C40.935 23.9999 41.8326 24.1603 42.6666 24.4551V7.33325C42.6666 6.22868 43.8605 5.33325 45.3333 5.33325Z" fill="#18202A"/>
</svg>
