<svg width="48" height="48" viewBox="0 0 48 48" fill="none" xmlns="http://www.w3.org/2000/svg">
<path d="M25.0607 2.43934C24.4749 1.85355 23.5251 1.85355 22.9393 2.43934L16.9393 8.43934C16.3536 9.02513 16.3536 9.97487 16.9393 10.5607C17.5251 11.1464 18.4749 11.1464 19.0607 10.5607L22.5 7.12132V22.5H7.12132L10.5607 19.0607C11.1464 18.4749 11.1464 17.5251 10.5607 16.9393C9.97487 16.3536 9.02513 16.3536 8.43934 16.9393L2.43934 22.9393C1.85355 23.5251 1.85355 24.4749 2.43934 25.0607L8.43934 31.0607C9.02513 31.6464 9.97487 31.6464 10.5607 31.0607C11.1464 30.4749 11.1464 29.5251 10.5607 28.9393L7.12132 25.5H22.5V40.8787L19.0607 37.4393C18.4749 36.8536 17.5251 36.8536 16.9393 37.4393C16.3536 38.0251 16.3536 38.9749 16.9393 39.5607L22.9393 45.5607C23.5251 46.1464 24.4749 46.1464 25.0607 45.5607L31.0607 39.5607C31.6464 38.9749 31.6464 38.0251 31.0607 37.4393C30.4749 36.8536 29.5251 36.8536 28.9393 37.4393L25.5 40.8787V25.5H40.8787L37.4393 28.9393C36.8536 29.5251 36.8536 30.4749 37.4393 31.0607C38.0251 31.6464 38.9749 31.6464 39.5607 31.0607L45.5607 25.0607C46.1464 24.4749 46.1464 23.5251 45.5607 22.9393L39.5607 16.9393C38.9749 16.3536 38.0251 16.3536 37.4393 16.9393C36.8536 17.5251 36.8536 18.4749 37.4393 19.0607L40.8787 22.5H25.5V7.12132L28.9393 10.5607C29.5251 11.1464 30.4749 11.1464 31.0607 10.5607C31.6464 9.97487 31.6464 9.02513 31.0607 8.43934L25.0607 2.43934Z" fill="#18202A"/>
</svg>
