<svg width="48" height="48" viewBox="0 0 48 48" fill="none" xmlns="http://www.w3.org/2000/svg">
<path fill-rule="evenodd" clip-rule="evenodd" d="M8 2C6.89543 2 6 2.89543 6 4C6 5.10457 6.89543 6 8 6H9.03536C9.01191 6.38288 9 6.76908 9 7.15815C9 13.6512 12.327 19.3949 17.3512 22.1674C18.0216 22.5373 18.2857 23.0655 18.2857 23.4387V24.5619C18.2857 24.9352 18.0216 25.4634 17.3512 25.8333C12.327 28.6057 9 34.3495 9 40.8425C9 41.1398 9.00695 41.4354 9.02069 41.7292C9.00795 41.8177 9.00095 41.9081 9.00009 42H8C6.89543 42 6 42.8954 6 44C6 45.1046 6.89543 46 8 46H40C41.1046 46 42 45.1046 42 44C42 42.8954 41.1046 42 40 42H38.9999C38.999 41.9081 38.9921 41.8177 38.9793 41.7292C38.993 41.4354 39 41.1398 39 40.8425C39 34.3495 35.673 28.6057 30.6488 25.8333C29.9784 25.4634 29.7143 24.9352 29.7143 24.5619V23.4387C29.7143 23.0655 29.9784 22.5373 30.6488 22.1674C35.673 19.3949 39 13.6512 39 7.15815C39 6.76908 38.9881 6.38288 38.9646 6H40C41.1046 6 42 5.10457 42 4C42 2.89543 41.1046 2 40 2H8ZM13 7.15815C13 6.76738 13.0152 6.3811 13.0449 6H34.9551C34.9848 6.3811 35 6.76738 35 7.15815C35 12.3232 32.3561 16.6567 28.7162 18.6652C27.1324 19.5391 25.7143 21.2374 25.7143 23.4387V24.5619C25.7143 26.7633 27.1324 28.4615 28.7162 29.3355C32.3561 31.344 35 35.6775 35 40.8425C35 41.1804 34.9886 41.515 34.9664 41.8457C34.9629 41.8975 34.9614 41.9489 34.9618 42H13.0382C13.0386 41.9489 13.0371 41.8974 13.0336 41.8455C13.0114 41.5149 13 41.1804 13 40.8425C13 35.6775 15.6439 31.344 19.2838 29.3355C20.8676 28.4615 22.2857 26.7633 22.2857 24.5619V23.4387C22.2857 21.2374 20.8676 19.5391 19.2838 18.6652C15.6439 16.6567 13 12.3232 13 7.15815Z" fill="#18202A"/>
</svg>
