<svg width="48" height="48" viewBox="0 0 48 48" fill="none" xmlns="http://www.w3.org/2000/svg">
<path fill-rule="evenodd" clip-rule="evenodd" d="M2 10C2 5.58172 5.58172 2 10 2H12L6 10H2ZM11 10L17 2H24L18 10H11ZM23 10L29 2H36L30 10H23ZM35 10L40.6603 2.45296C43.7708 3.54939 46 6.51436 46 10H35ZM2 38V14H46V38C46 42.4183 42.4183 46 38 46H10C5.58172 46 2 42.4183 2 38ZM20.7997 23.2888C19.5676 22.5426 18 23.4385 18 24.8889V35.0912C18 36.5416 19.5676 37.4374 20.7997 36.6912L29.2225 31.5901C30.4192 30.8653 30.4192 29.1147 29.2225 28.39L20.7997 23.2888Z" fill="#18202A"/>
</svg>
