<svg width="48" height="48" viewBox="0 0 48 48" fill="none" xmlns="http://www.w3.org/2000/svg">
<g clip-path="url(#clip0_3725_8804)">
<path fill-rule="evenodd" clip-rule="evenodd" d="M20 4C20 2.89543 19.1046 2 18 2C16.8954 2 16 2.89543 16 4V8H13.75C11.6789 8 10 9.67893 10 11.75V18H4C2.89543 18 2 18.8954 2 20C2 21.1046 2.89543 22 4 22H10V26H4C2.89543 26 2 26.8954 2 28C2 29.1046 2.89543 30 4 30H10V34.25C10 36.3211 11.6789 38 13.75 38H16V44C16 45.1046 16.8954 46 18 46C19.1046 46 20 45.1046 20 44V38H28V44C28 45.1046 28.8954 46 30 46C31.1046 46 32 45.1046 32 44V38H36.25C38.3211 38 40 36.3211 40 34.25V30H44C45.1046 30 46 29.1046 46 28C46 26.8954 45.1046 26 44 26H40V22H44C45.1046 22 46 21.1046 46 20C46 18.8954 45.1046 18 44 18H40V11.75C40 9.67893 38.3211 8 36.25 8H32V4C32 2.89543 31.1046 2 30 2C28.8954 2 28 2.89543 28 4V8H20V4ZM30 20C30 18.8954 29.1046 18 28 18H22C20.8954 18 20 18.8954 20 20V26C20 27.1046 20.8954 28 22 28H28C29.1046 28 30 27.1046 30 26V20Z" fill="#18202A"/>
</g>
<defs>
<clipPath id="clip0_3725_8804">
<rect width="48" height="48" fill="white"/>
</clipPath>
</defs>
</svg>
