<svg width="48" height="48" viewBox="0 0 48 48" fill="none" xmlns="http://www.w3.org/2000/svg">
<path fill-rule="evenodd" clip-rule="evenodd" d="M24 43C34.4934 43 43 34.4934 43 24C43 13.5066 34.4934 5 24 5C13.5066 5 5 13.5066 5 24C5 34.4934 13.5066 43 24 43ZM24 46C36.1503 46 46 36.1503 46 24C46 11.8497 36.1503 2 24 2C11.8497 2 2 11.8497 2 24C2 36.1503 11.8497 46 24 46Z" fill="#18202A"/>
<path fill-rule="evenodd" clip-rule="evenodd" d="M23.3292 2.65836C23.7515 2.44721 24.2485 2.44721 24.6708 2.65836C32.3274 6.48665 36 14.8693 36 23.25C36 31.6414 32.3318 40.427 24.8111 45.2618C24.317 45.5794 23.683 45.5794 23.1889 45.2618C15.6682 40.427 12 31.6414 12 23.25C12 14.8693 15.6726 6.48665 23.3292 2.65836ZM22.5 6.66104C17.5705 10.2441 15 16.5532 15 23.25C15 29.8945 17.5409 36.6196 22.5 40.9913V6.66104ZM25.5 40.9913V6.66104C30.4295 10.2441 33 16.5532 33 23.25C33 29.8945 30.4591 36.6196 25.5 40.9913Z" fill="#18202A"/>
<path fill-rule="evenodd" clip-rule="evenodd" d="M44 25.5H4V22.5H44V25.5Z" fill="#18202A"/>
</svg>
