<svg width="48" height="48" viewBox="0 0 48 48" fill="none" xmlns="http://www.w3.org/2000/svg">
<path fill-rule="evenodd" clip-rule="evenodd" d="M41.9457 19C41.8097 18.1827 41.4219 17.4219 40.8284 16.8284L27.1716 3.17157C26.5781 2.57807 25.8173 2.19033 25 2.05428V2H14C9.58172 2 6 5.58172 6 10V38C6 42.4183 9.58172 46 14 46H27.7523C27.0405 45.0895 26.4474 44.0818 25.9963 43H14C11.2386 43 9 40.7614 9 38V10C9 7.23858 11.2386 5 14 5H22V22H39V25.0379C40.0389 25.1169 41.0437 25.3181 42 25.627V19H41.9457ZM38.7071 18.9497C38.7234 18.966 38.739 18.9828 38.754 19H25V5.24598C25.0172 5.26099 25.034 5.27663 25.0503 5.29289L38.7071 18.9497Z" fill="#18202A"/>
<path fill-rule="evenodd" clip-rule="evenodd" d="M48 38C48 43.5228 43.5228 48 38 48C32.4772 48 28 43.5228 28 38C28 32.4772 32.4772 28 38 28C43.5228 28 48 32.4772 48 38ZM37.5 33C38.3284 33 39 33.6716 39 34.5V38.8787L41.5607 41.4393C42.1464 42.0251 42.1464 42.9749 41.5607 43.5607C40.9749 44.1464 40.0251 44.1464 39.4393 43.5607L36.4393 40.5607C36.158 40.2794 36 39.8978 36 39.5V34.5C36 33.6716 36.6716 33 37.5 33Z" fill="#18202A"/>
</svg>
