<svg width="48" height="48" viewBox="0 0 48 48" fill="none" xmlns="http://www.w3.org/2000/svg">
<path fill-rule="evenodd" clip-rule="evenodd" d="M44 16.002V15.998C43.9995 15.4868 43.8042 14.9758 43.4142 14.5858L41.447 12.6186C41.4261 12.5967 41.4046 12.5752 41.3826 12.5542L35.4458 6.61735C35.4248 6.59535 35.4033 6.5739 35.3814 6.553L33.4142 4.58579C32.6332 3.80474 31.3668 3.80474 30.5858 4.58579C29.8047 5.36684 29.8047 6.63317 30.5858 7.41421L30.6957 7.52415L11.0619 18.2335L9.41421 16.5858C8.63317 15.8047 7.36683 15.8047 6.58579 16.5858C5.80474 17.3668 5.80474 18.6332 6.58579 19.4142L16.1716 29L8.58579 36.5858C7.80474 37.3668 7.80474 38.6332 8.58579 39.4142C9.36684 40.1953 10.6332 40.1953 11.4142 39.4142L19 31.8284L28.5858 41.4142C29.3668 42.1953 30.6332 42.1953 31.4142 41.4142C32.1953 40.6332 32.1953 39.3668 31.4142 38.5858L29.7665 36.9381L40.4758 17.3043L40.5858 17.4142C41.3668 18.1953 42.6332 18.1953 43.4142 17.4142C43.8042 17.0242 43.9995 16.5132 44 16.002Z" fill="#18202A"/>
</svg>
