<svg width="48" height="48" viewBox="0 0 48 48" fill="none" xmlns="http://www.w3.org/2000/svg">
<path fill-rule="evenodd" clip-rule="evenodd" d="M14 2H22V22H31.485C31.31 22.1558 31.1384 22.3176 30.9706 22.4855L22.4853 30.9708C18.402 35.054 17.8766 41.3478 20.909 46H14C9.58172 46 6 42.4183 6 38V10C6 5.58172 9.58172 2 14 2ZM40.8284 16.8284C41.1705 17.1705 41.4442 17.5681 41.6407 18H26V2.35928C26.4319 2.55585 26.8295 2.82954 27.1716 3.17157L40.8284 16.8284ZM45.1127 25.3139C41.9885 22.1897 36.9232 22.1897 33.799 25.3139L32.3848 26.7281C31.6037 27.5092 31.6037 28.7755 32.3848 29.5566C33.1658 30.3376 34.4322 30.3376 35.2132 29.5566L36.6274 28.1423C38.1895 26.5802 40.7222 26.5802 42.2843 28.1423C43.8464 29.7044 43.8464 32.2371 42.2843 33.7992L40.8701 35.2134C40.089 35.9945 40.089 37.2608 40.8701 38.0418C41.6511 38.8229 42.9174 38.8229 43.6985 38.0418L45.1127 36.6276C48.2369 33.5034 48.2369 28.4381 45.1127 25.3139ZM25.3137 45.1129C22.1895 41.9887 22.1895 36.9234 25.3137 33.7992L26.7279 32.385C27.509 31.6039 28.7753 31.6039 29.5563 32.385C30.3374 33.166 30.3374 34.4324 29.5563 35.2134L28.1421 36.6276C26.58 38.1897 26.58 40.7224 28.1421 42.2845C29.7042 43.8466 32.2369 43.8466 33.799 42.2845L35.2132 40.8703C35.9943 40.0892 37.2606 40.0892 38.0416 40.8703C38.8227 41.6513 38.8227 42.9176 38.0416 43.6987L36.6274 45.1129C33.5032 48.2371 28.4379 48.2371 25.3137 45.1129ZM30.9706 39.4561C30.1895 38.675 30.1895 37.4087 30.9706 36.6276L36.6274 30.9708C37.4085 30.1897 38.6748 30.1897 39.4558 30.9708C40.2369 31.7518 40.2369 33.0182 39.4558 33.7992L33.799 39.4561C33.0179 40.2371 31.7516 40.2371 30.9706 39.4561Z" fill="#18202A"/>
</svg>
