<svg width="48" height="48" viewBox="0 0 48 48" fill="none" xmlns="http://www.w3.org/2000/svg">
<path d="M2 3.5C2 2.67157 2.67157 2 3.5 2C4.32843 2 5 2.67157 5 3.5V44.5C5 45.3284 4.32843 46 3.5 46C2.67157 46 2 45.3284 2 44.5V3.5Z" fill="#18202A"/>
<path fill-rule="evenodd" clip-rule="evenodd" d="M24 9H5V29H26C26.5523 29 27 28.5523 27 28V12C27 10.3431 25.6569 9 24 9ZM2 6V32H26C28.2091 32 30 30.2091 30 28V12C30 8.68629 27.3137 6 24 6H2Z" fill="#18202A"/>
<path fill-rule="evenodd" clip-rule="evenodd" d="M16 32V36C16 38.2091 17.7909 40 20 40H44.1136C45.7404 40 46.6866 38.1613 45.7411 36.8375L38.8303 27.1625C38.3336 26.4671 38.3336 25.5329 38.8303 24.8375L45.7411 15.1625C46.6866 13.8387 45.7404 12 44.1136 12H30V15H42.1704L36.3891 23.0938C35.1474 24.8323 35.1474 27.1677 36.3891 28.9062L42.1704 37H20C19.4477 37 19 36.5523 19 36V32H16Z" fill="#18202A"/>
<path fill-rule="evenodd" clip-rule="evenodd" d="M26.2771 29.7427C26.9165 29.0451 27.0578 28.5561 27.0116 28.1861L29.9884 27.8139C30.1922 29.4439 29.396 30.7799 28.4885 31.7698C27.5805 32.7605 26.3659 33.6214 25.2663 34.3503C24.9065 34.5887 24.5627 34.811 24.2365 35.022C23.5009 35.4977 22.8542 35.9159 22.3136 36.3322C21.9343 36.6243 21.6948 36.8519 21.5603 37.0212C21.5054 37.0903 21.4841 37.1293 21.4786 37.1407C21.4838 37.1278 21.5 37.0796 21.5 37H18.5C18.5 36.2225 18.8619 35.5951 19.2112 35.1553C19.5669 34.7074 20.0266 34.307 20.4832 33.9553C21.1269 33.4596 21.9406 32.9333 22.7258 32.4254C23.0281 32.2298 23.3262 32.037 23.6087 31.8497C24.6966 31.1286 25.6383 30.4395 26.2771 29.7427ZM21.4771 37.1442C21.477 37.1442 21.4775 37.143 21.4786 37.1407L21.4771 37.1442Z" fill="#18202A"/>
</svg>
