<svg width="48" height="48" viewBox="0 0 48 48" fill="none" xmlns="http://www.w3.org/2000/svg">
<path fill-rule="evenodd" clip-rule="evenodd" d="M39.4142 8.58579C40.1953 9.36683 40.1953 10.6332 39.4142 11.4142L11.4142 39.4142C10.6332 40.1953 9.36683 40.1953 8.58579 39.4142C7.80474 38.6332 7.80474 37.3668 8.58579 36.5858L36.5858 8.58579C37.3668 7.80474 38.6332 7.80474 39.4142 8.58579Z" fill="#18202A"/>
<path fill-rule="evenodd" clip-rule="evenodd" d="M8.58579 8.58579C9.36683 7.80474 10.6332 7.80474 11.4142 8.58579L39.4142 36.5858C40.1953 37.3668 40.1953 38.6332 39.4142 39.4142C38.6332 40.1953 37.3668 40.1953 36.5858 39.4142L8.58579 11.4142C7.80474 10.6332 7.80474 9.36683 8.58579 8.58579Z" fill="#18202A"/>
</svg>
