<svg width="48" height="48" viewBox="0 0 48 48" fill="none" xmlns="http://www.w3.org/2000/svg">
<path fill-rule="evenodd" clip-rule="evenodd" d="M20.7521 9.24682L19.0983 9.81832C17.2682 10.4507 15.5962 11.429 14.1611 12.6773L12.8387 13.8276L8.75719 12.3767L6.30532 16.6234L9.60044 19.4308L9.27037 21.1473C9.09321 22.0686 9.00001 23.022 9.00001 24C9.00001 24.978 9.09322 25.9314 9.27038 26.8527L9.60046 28.5692L6.30531 31.3767L8.75717 35.6234L12.8388 34.1725L14.1611 35.3227C15.5962 36.571 17.2682 37.5493 19.0983 38.1817L20.7521 38.7532L21.5339 43H26.4376L27.2181 38.7601L28.8764 38.1904C30.7134 37.5593 32.3918 36.5799 33.832 35.3287L35.1541 34.1801L39.2143 35.6234L41.6662 31.3767L38.3937 28.5886L38.7263 26.8701C38.9056 25.9434 39 24.9842 39 24C39 23.0158 38.9056 22.0566 38.7263 21.1299L38.3937 19.4115L41.6661 16.6234L39.2143 12.3767L35.1542 13.8199L33.832 12.6713C32.3919 11.4201 30.7134 10.4407 28.8764 9.80957L27.2181 9.23989L26.4376 5H21.5339L20.7521 9.24682ZM18.7342 3.6379C18.9089 2.68894 19.7362 2 20.7012 2H27.2703C28.2352 2 29.0626 2.68893 29.2373 3.6379L29.8511 6.97234C32.0594 7.73101 34.0737 8.90718 35.7996 10.4066L38.9941 9.27104C39.9032 8.94785 40.9135 9.31987 41.396 10.1555L44.6806 15.8446C45.163 16.6802 44.9801 17.7412 44.2456 18.3669L41.6716 20.5599C41.8871 21.6734 42 22.8235 42 24C42 25.1765 41.8871 26.3266 41.6716 27.4401L44.2456 29.6331C44.9801 30.2589 45.163 31.3199 44.6806 32.1555L41.396 37.8446C40.9136 38.6802 39.9033 39.0522 38.9941 38.729L35.7995 37.5934C34.0736 39.0928 32.0594 40.269 29.8511 41.0277L29.2373 44.3621C29.0626 45.3111 28.2352 46 27.2703 46H20.7012C19.7362 46 18.9089 45.3111 18.7342 44.3621L18.1184 41.0172C15.9185 40.2569 13.912 39.0822 12.1922 37.5862L8.97739 38.729C8.06821 39.0522 7.0579 38.6802 6.57545 37.8446L3.29087 32.1555C2.80842 31.3199 2.99138 30.2589 3.72586 29.6331L6.32435 27.4192C6.11147 26.3122 6.00001 25.1691 6.00001 24C6.00001 22.8309 6.11147 21.6878 6.32434 20.5808L3.72588 18.3669C2.9914 17.7412 2.80844 16.6802 3.29089 15.8446L6.57547 10.1555C7.05792 9.31987 8.06823 8.94785 8.97741 9.27104L12.1922 10.4138C13.912 8.91786 15.9185 7.74307 18.1184 6.98285L18.7342 3.6379Z" fill="#18202A"/>
<path fill-rule="evenodd" clip-rule="evenodd" d="M24 29C26.7614 29 29 26.7614 29 24C29 21.2386 26.7614 19 24 19C21.2386 19 19 21.2386 19 24C19 26.7614 21.2386 29 24 29ZM24 32C28.4183 32 32 28.4183 32 24C32 19.5817 28.4183 16 24 16C19.5817 16 16 19.5817 16 24C16 28.4183 19.5817 32 24 32Z" fill="#18202A"/>
</svg>
