<svg width="48" height="48" viewBox="0 0 48 48" fill="none" xmlns="http://www.w3.org/2000/svg">
<path fill-rule="evenodd" clip-rule="evenodd" d="M4.44202 4.44202C5.03137 3.85266 5.98691 3.85266 6.57626 4.44202L43.558 41.4237C44.1473 42.0131 44.1473 42.9686 43.558 43.558C42.9686 44.1473 42.0131 44.1473 41.4237 43.558L37.8658 40H1.5C0.671573 40 0 39.3284 0 38.5C0 37.6716 0.671573 37 1.5 37H8C4.68629 37 2 34.3137 2 31V14.0078C2 11.3357 3.74677 9.07156 6.16073 8.29498L4.44202 6.57626C3.85266 5.98691 3.85266 5.03137 4.44202 4.44202ZM27.3811 29.5153L31.8658 34H8C6.34315 34 5 32.6569 5 31V14.0078C5 12.351 6.34315 11.0078 8 11.0078H8.87357L18.3787 20.5129C18.2829 20.5814 18.1882 20.6517 18.0945 20.7241C15.6453 22.6142 14 25.7768 14 30.7949C14 31.0205 14.1511 31.2182 14.3688 31.2774C14.5865 31.3366 14.8169 31.2426 14.9312 31.048C16.2745 28.7594 17.3411 27.3659 18.9362 26.5105C20.0173 25.9309 21.373 25.5813 23.2801 25.4144L26 28.1342V28.5878C26 29.338 26.7637 29.7728 27.3811 29.5153Z" fill="#18202A"/>
<path d="M31.688 25.314L24.7436 18.3696C25.165 18.3326 25.5848 18.3104 26 18.3007V15.002C26 14.1111 27.0771 13.6649 27.7071 14.2949L34.5 21.0878C34.8905 21.4783 34.8905 22.1115 34.5 22.502L31.688 25.314Z" fill="#18202A"/>
<path d="M43 31C43 32.5373 41.8437 33.8045 40.3534 33.9794L42.7223 36.3483C44.6677 35.3561 46 33.3336 46 31V14.0078C46 10.6941 43.3137 8.00781 40 8.00781H14.3818L17.3818 11.0078H40C41.6569 11.0078 43 12.351 43 14.0078V31Z" fill="#18202A"/>
<path d="M43.374 37L46.374 40H46.5C47.3284 40 48 39.3284 48 38.5C48 37.6716 47.3284 37 46.5 37H43.374Z" fill="#18202A"/>
</svg>
