<svg width="48" height="48" viewBox="0 0 48 48" fill="none" xmlns="http://www.w3.org/2000/svg">
<path d="M24.0001 24C28.0001 24 30.0001 20 30.0001 15C30.0001 11 28.0001 8 24.0001 8C20.0001 8 18.0001 11 18.0001 15C18.0001 20 20.0001 24 24.0001 24Z" fill="#18202A"/>
<path d="M25.3357 43.9757C24.4791 42.1634 24 40.1376 24 38C24 33.4568 26.164 29.4191 29.5175 26.8614C27.7788 26.3021 25.9247 26 24 26C20.4318 26 17.1061 27.0383 14.3085 28.8291C11.689 30.506 10.8126 33.8474 11.8598 36.7761C12.166 37.6325 12.5078 38.4721 12.8832 39.2931C13.9471 41.6197 16.1315 43.2308 18.662 43.607C20.4038 43.8659 22.1862 44 24 44C24.4472 44 24.8925 43.9918 25.3357 43.9757Z" fill="#18202A"/>
<path d="M10.0001 24C12.6667 24 14.0001 21.5 14.0001 18.375C14.0001 15.875 12.6667 14 10.0001 14C7.33339 14 6.00006 15.875 6.00006 18.375C6.00006 21.5 7.33339 24 10.0001 24Z" fill="#18202A"/>
<path d="M38.0001 24C40.6667 24 42.0001 21.5 42.0001 18.375C42.0001 15.875 40.6667 14 38.0001 14C35.3334 14 34.0001 15.875 34.0001 18.375C34.0001 21.5 35.3334 24 38.0001 24Z" fill="#18202A"/>
<path d="M8.09335 38.1232C6.91837 34.8372 7.29203 30.9821 9.39692 28.0596C7.48761 28.2234 5.67407 28.7224 4.01546 29.4977C1.68134 30.5887 0.739491 33.3441 1.5275 35.7971C2.21696 37.9434 4.08923 39.4512 6.32651 39.7273C7.14359 39.8282 7.96915 39.9017 8.80225 39.9469C8.55003 39.3471 8.31355 38.7391 8.09335 38.1232Z" fill="#18202A"/>
<path fill-rule="evenodd" clip-rule="evenodd" d="M38 48C32.4772 48 28 43.5228 28 38C28 32.4772 32.4772 28 38 28C43.5228 28 48 32.4772 48 38C48 43.5228 43.5228 48 38 48ZM37.9393 34.0607C37.3536 33.4749 37.3536 32.5251 37.9393 31.9393C38.5251 31.3536 39.4749 31.3536 40.0607 31.9393L45.0607 36.9393C45.6464 37.5251 45.6464 38.4749 45.0607 39.0607L40.0607 44.0607C39.4749 44.6464 38.5251 44.6464 37.9393 44.0607C37.3536 43.4749 37.3536 42.5251 37.9393 41.9393L40.3787 39.5H32C31.1716 39.5 30.5 38.8284 30.5 38C30.5 37.1716 31.1716 36.5 32 36.5H40.3787L37.9393 34.0607Z" fill="#18202A"/>
</svg>
