<svg width="48" height="48" viewBox="0 0 48 48" fill="none" xmlns="http://www.w3.org/2000/svg">
<path d="M18 4C19.1046 4 20 4.89543 20 6V14C20 17.3137 17.3137 20 14 20H6C4.89543 20 4 19.1046 4 18C4 16.8954 4.89543 16 6 16H14C15.1046 16 16 15.1046 16 14V6C16 4.89543 16.8954 4 18 4Z" fill="#18202A"/>
<path d="M4 30C4 28.8954 4.89543 28 6 28H14C17.3137 28 20 30.6863 20 34V42C20 43.1046 19.1046 44 18 44C16.8954 44 16 43.1046 16 42V34C16 32.8954 15.1046 32 14 32H6C4.89543 32 4 31.1046 4 30Z" fill="#18202A"/>
<path d="M44 18C44 19.1046 43.1046 20 42 20H34C30.6863 20 28 17.3137 28 14V6C28 4.89543 28.8954 4 30 4C31.1046 4 32 4.89543 32 6V14C32 15.1046 32.8954 16 34 16H42C43.1046 16 44 16.8954 44 18Z" fill="#18202A"/>
<path d="M30 44C28.8954 44 28 43.1046 28 42V33.6923C28 30.5485 30.5485 28 33.6923 28H42C43.1046 28 44 28.8954 44 30C44 31.1046 43.1046 32 42 32H33.6923C32.7577 32 32 32.7577 32 33.6923V42C32 43.1046 31.1046 44 30 44Z" fill="#18202A"/>
</svg>
