<svg width="48" height="48" viewBox="0 0 48 48" fill="none" xmlns="http://www.w3.org/2000/svg">
<g clip-path="url(#clip0_2294_8021)">
<path fill-rule="evenodd" clip-rule="evenodd" d="M1.99994 12C1.99994 6.47715 6.47709 2 11.9999 2H35.9999C41.5228 2 45.9999 6.47715 45.9999 12V26.5092C43.7323 24.9275 40.9745 23.9999 38 23.9999C30.268 23.9999 24 30.2679 24 37.9999C24 40.9744 24.9277 43.7323 26.5095 46H11.9999C6.47709 46 1.99994 41.5228 1.99994 36V12ZM13.9999 6V10H9.99994V6H13.9999ZM20.7996 17.2888C19.5675 16.5426 17.9999 17.4385 17.9999 18.8889V29.0912C17.9999 30.5416 19.5675 31.4374 20.7996 30.6912L29.2224 25.5901C30.4191 24.8653 30.4191 23.1147 29.2224 22.39L20.7996 17.2888ZM9.99994 38V42H13.9999V38H9.99994ZM17.9999 6H21.9999V10H17.9999V6ZM21.9999 38H17.9999V42H21.9999V38ZM25.9999 6H29.9999V10H25.9999V6ZM37.9999 6V10H33.9999V6H37.9999Z" fill="#18202A"/>
<path fill-rule="evenodd" clip-rule="evenodd" d="M38.0002 48C43.523 48 48.0002 43.5229 48.0002 38C48.0002 32.4772 43.523 28 38.0002 28C32.4773 28 28.0002 32.4772 28.0002 38C28.0002 43.5229 32.4773 48 38.0002 48ZM36.0004 33.9999C36.0004 32.8953 36.8958 31.9999 38.0004 31.9999C39.1049 31.9999 40.0004 32.8953 40.0004 33.9999V35.9998H42.0003C43.1049 35.9998 44.0003 36.8953 44.0003 37.9998C44.0003 39.1044 43.1049 39.9998 42.0003 39.9998H40.0004V41.9999C40.0004 43.1045 39.1049 43.9999 38.0004 43.9999C36.8958 43.9999 36.0004 43.1045 36.0004 41.9999V39.9998H34.0003C32.8957 39.9998 32.0003 39.1044 32.0003 37.9998C32.0003 36.8953 32.8957 35.9998 34.0003 35.9998H36.0004V33.9999Z" fill="#18202A"/>
</g>
<defs>
<clipPath id="clip0_2294_8021">
<rect width="48" height="48" fill="white"/>
</clipPath>
</defs>
</svg>
