<svg width="48" height="48" viewBox="0 0 48 48" fill="none" xmlns="http://www.w3.org/2000/svg">
<path d="M14 8H22C25.3137 8 28 10.6863 28 14C28 15.1046 28.8954 16 30 16C31.1046 16 32 15.1046 32 14C32 8.47715 27.5228 4 22 4H14C8.47715 4 4 8.47715 4 14V34C4 39.5228 8.47715 44 14 44H22C27.5228 44 32 39.5228 32 34C32 32.8954 31.1046 32 30 32C28.8954 32 28 32.8954 28 34C28 37.3137 25.3137 40 22 40H14C10.6863 40 8 37.3137 8 34V14C8 10.6863 10.6863 8 14 8Z" fill="#18202A"/>
<path fill-rule="evenodd" clip-rule="evenodd" d="M34.5858 16.5858C35.3668 15.8047 36.6332 15.8047 37.4142 16.5858L43.4142 22.5858C44.1953 23.3668 44.1953 24.6332 43.4142 25.4142L37.4142 31.4142C36.6332 32.1953 35.3668 32.1953 34.5858 31.4142C33.8047 30.6332 33.8047 29.3668 34.5858 28.5858L37.1716 26H18C16.8954 26 16 25.1046 16 24C16 22.8954 16.8954 22 18 22H37.1716L34.5858 19.4142C33.8047 18.6332 33.8047 17.3668 34.5858 16.5858Z" fill="#18202A"/>
</svg>
