<svg width="48" height="48" viewBox="0 0 48 48" fill="none" xmlns="http://www.w3.org/2000/svg">
<path fill-rule="evenodd" clip-rule="evenodd" d="M19.4142 34.5858C20.1953 35.3668 20.1953 36.6332 19.4142 37.4142L13.4142 43.4142C12.6332 44.1953 11.3668 44.1953 10.5858 43.4142L4.58579 37.4142C3.80474 36.6332 3.80474 35.3668 4.58579 34.5858C5.36684 33.8047 6.63317 33.8047 7.41421 34.5858L10 37.1716L10 10.8284L7.41421 13.4142C6.63316 14.1953 5.36683 14.1953 4.58579 13.4142C3.80474 12.6332 3.80474 11.3668 4.58579 10.5858L10.5858 4.58579C11.3668 3.80474 12.6332 3.80474 13.4142 4.58579L19.4142 10.5858C20.1953 11.3668 20.1953 12.6332 19.4142 13.4142C18.6332 14.1953 17.3668 14.1953 16.5858 13.4142L14 10.8284L14 37.1716L16.5858 34.5858C17.3668 33.8047 18.6332 33.8047 19.4142 34.5858ZM24 20C24 18.8954 24.8954 18 26 18H42C43.1046 18 44 18.8954 44 20C44 21.1046 43.1046 22 42 22H26C24.8954 22 24 21.1046 24 20ZM26 10C24.8954 10 24 10.8954 24 12C24 13.1046 24.8954 14 26 14H42C43.1046 14 44 13.1046 44 12C44 10.8954 43.1046 10 42 10H26ZM24 28C24 26.8954 24.8954 26 26 26H42C43.1046 26 44 26.8954 44 28C44 29.1046 43.1046 30 42 30H26C24.8954 30 24 29.1046 24 28ZM26 34C24.8954 34 24 34.8954 24 36C24 37.1046 24.8954 38 26 38H42C43.1046 38 44 37.1046 44 36C44 34.8954 43.1046 34 42 34H26Z" fill="#18202A"/>
</svg>
