<svg width="48" height="48" viewBox="0 0 48 48" fill="none" xmlns="http://www.w3.org/2000/svg">
<path fill-rule="evenodd" clip-rule="evenodd" d="M15.5 8C14.6716 8 14 8.67157 14 9.5V38.5C14 39.3284 14.6716 40 15.5 40H29C33.9706 40 38 35.9706 38 31C38 26.9439 35.3168 23.5145 31.6285 22.3899C33.0972 20.8622 34 18.7865 34 16.5C34 11.8056 30.1944 8 25.5 8H15.5ZM25.5 22C28.5376 22 31 19.5376 31 16.5C31 13.4624 28.5376 11 25.5 11H17V22H25.5ZM35 31C35 27.6863 32.3137 25 29 25H17V37H29C32.3137 37 35 34.3137 35 31Z" fill="#18202A"/>
</svg>
