<svg width="48" height="48" viewBox="0 0 48 48" fill="none" xmlns="http://www.w3.org/2000/svg">
<path fill-rule="evenodd" clip-rule="evenodd" d="M25.2782 3.76158C24.5373 3.14588 23.4627 3.14588 22.7218 3.76158L1.36088 21.5119C0.936113 21.8649 0.87791 22.4954 1.23088 22.9201C1.58385 23.3449 2.21434 23.4031 2.63911 23.0501L6 20.2573V42.9996C6 43.5519 6.44771 43.9996 7 43.9996H20V30.9996C20 30.4473 20.4477 29.9996 21 29.9996H27C27.5523 29.9996 28 30.4473 28 30.9996V43.9996H41C41.5523 43.9996 42 43.5519 42 42.9996V20.2573L45.3609 23.0501C45.7857 23.4031 46.4161 23.3449 46.7691 22.9201C47.1221 22.4954 47.0639 21.8649 46.6391 21.5119L25.2782 3.76158Z" fill="#18202A"/>
</svg>
