<svg width="48" height="48" viewBox="0 0 48 48" fill="none" xmlns="http://www.w3.org/2000/svg">
<path fill-rule="evenodd" clip-rule="evenodd" d="M40.1764 33.9728C38.2387 34.6387 36.1602 35.0002 34 35.0002C23.5066 35.0002 15 26.4936 15 16.0002C15 12.3425 16.0355 8.92391 17.8268 6.02484C10.3645 8.58694 5 15.6684 5 24.0002C5 34.4936 13.5066 43.0002 24 43.0002C30.833 43.0002 36.8282 39.3917 40.1764 33.9728ZM42.0987 29.8021C39.7231 31.199 36.9551 32.0002 34 32.0002C25.1634 32.0002 18 24.8367 18 16.0002C18 11.5682 19.802 7.55706 22.7133 4.65953C23.605 3.77203 23.094 2.04397 21.8374 2.1051C10.7022 3.19154 2 12.5796 2 24.0002C2 36.1504 11.8497 46.0002 24 46.0002C33.4109 46.0002 41.4417 40.0911 44.5845 31.7809C44.5849 31.7798 44.5853 31.7788 44.5857 31.7778C44.5978 31.7457 44.6099 31.7136 44.6218 31.6814C44.7699 31.2842 44.9067 30.8816 45.0321 30.4739C45.3762 29.3544 43.9413 28.5922 42.9721 29.2498C42.7687 29.3878 42.5619 29.5212 42.352 29.65C42.2737 29.698 42.1949 29.7453 42.1157 29.7921C42.11 29.7954 42.1044 29.7987 42.0987 29.8021Z" fill="#18202A"/>
</svg>
