<svg width="48" height="48" viewBox="0 0 48 48" fill="none" xmlns="http://www.w3.org/2000/svg">
<path fill-rule="evenodd" clip-rule="evenodd" d="M19.0607 37.0607C19.6464 36.4749 19.6464 35.5251 19.0607 34.9393C18.4749 34.3536 17.5251 34.3536 16.9393 34.9393L13.5 38.3787L13.5 9.62132L16.9393 13.0607C17.5251 13.6464 18.4749 13.6464 19.0607 13.0607C19.6464 12.4749 19.6464 11.5251 19.0607 10.9393L13.0607 4.93934C12.4749 4.35355 11.5251 4.35355 10.9393 4.93934L4.93934 10.9393C4.35355 11.5251 4.35355 12.4749 4.93934 13.0607C5.52513 13.6464 6.47487 13.6464 7.06066 13.0607L10.5 9.62132L10.5 38.3787L7.06066 34.9393C6.47487 34.3536 5.52513 34.3536 4.93934 34.9393C4.35355 35.5251 4.35355 36.4749 4.93934 37.0607L10.9393 43.0607C11.5251 43.6464 12.4749 43.6464 13.0607 43.0607L19.0607 37.0607ZM25.5 12C24.6716 12 24 12.6716 24 13.5C24 14.3284 24.6716 15 25.5 15H42.5C43.3284 15 44 14.3284 44 13.5C44 12.6716 43.3284 12 42.5 12H25.5ZM25.5 19C24.6716 19 24 19.6716 24 20.5C24 21.3284 24.6716 22 25.5 22H42.5C43.3284 22 44 21.3284 44 20.5C44 19.6716 43.3284 19 42.5 19H25.5ZM24 27.5C24 26.6716 24.6716 26 25.5 26H42.5C43.3284 26 44 26.6716 44 27.5C44 28.3284 43.3284 29 42.5 29H25.5C24.6716 29 24 28.3284 24 27.5ZM25.5 33C24.6716 33 24 33.6716 24 34.5C24 35.3284 24.6716 36 25.5 36H42.5C43.3284 36 44 35.3284 44 34.5C44 33.6716 43.3284 33 42.5 33H25.5Z" fill="#18202A"/>
</svg>
