<svg width="48" height="48" viewBox="0 0 48 48" fill="none" xmlns="http://www.w3.org/2000/svg">
<path fill-rule="evenodd" clip-rule="evenodd" d="M39.9803 13.5102C39.7311 10.4256 37.1488 8 34 8H14C10.8512 8 8.2689 10.4256 8.0197 13.5102C6.89513 14.5079 6.14804 15.9217 6.0197 17.5102C4.78077 18.6094 4 20.2135 4 22V38C4 41.3137 6.68629 44 10 44H38C41.3137 44 44 41.3137 44 38V22C44 20.2135 43.2192 18.6094 41.9803 17.5102C41.852 15.9217 41.1049 14.5079 39.9803 13.5102ZM36.2403 12.0047C35.6909 11.3882 34.8908 11 34 11H14C13.1092 11 12.3091 11.3882 11.7597 12.0047C11.8394 12.0016 11.9195 12 12 12H36C36.0805 12 36.1606 12.0016 36.2403 12.0047ZM10 16C9.91951 16 9.83939 16.0016 9.75967 16.0047C10.3091 15.3882 11.1092 15 12 15H36C36.8908 15 37.6909 15.3882 38.2403 16.0047C38.1606 16.0016 38.0805 16 38 16H10ZM33.4483 25.3793C34.2101 24.5795 34.1792 23.3135 33.3793 22.5517C32.5795 21.79 31.3135 21.8208 30.5518 22.6207L20.6496 33.018L17.5185 29.3651C16.7997 28.5264 15.5371 28.4293 14.6985 29.1482C13.8598 29.867 13.7627 31.1296 14.4815 31.9683L19.053 37.3016C19.421 37.731 19.9537 37.9845 20.5191 37.9993C21.0845 38.0141 21.6297 37.7889 22.0197 37.3793L33.4483 25.3793Z" fill="#18202A"/>
</svg>
