<svg width="48" height="48" viewBox="0 0 48 48" fill="none" xmlns="http://www.w3.org/2000/svg">
<path fill-rule="evenodd" clip-rule="evenodd" d="M33.4237 6.44202C34.0131 5.85266 34.9686 5.85266 35.558 6.44202C36.1473 7.03137 36.1473 7.98691 35.558 8.57626L33.7236 10.4107C35.132 11.8527 36 13.825 36 16V32C36 36.4183 32.4183 40 28 40H8C6.86221 40 5.7799 39.7625 4.79994 39.3343L2.57626 41.558C1.98691 42.1473 1.03137 42.1473 0.442017 41.558C-0.147338 40.9686 -0.147338 40.0131 0.442017 39.4237L33.4237 6.44202ZM7.19819 36.9361C7.45925 36.9781 7.72707 37 8 37H28C30.7614 37 33 34.7614 33 32V16C33 14.6534 32.4677 13.4312 31.602 12.5322L7.19819 36.9361Z" fill="#18202A"/>
<path d="M0 16C0 11.5817 3.58172 8 8 8H27.626L24.626 11H8C5.23858 11 3 13.2386 3 16V32C3 32.2001 3.01175 32.3974 3.03461 32.5914L0.594384 35.0316C0.211234 34.0966 0 33.073 0 32V16Z" fill="#18202A"/>
<path fill-rule="evenodd" clip-rule="evenodd" d="M38 18.2245C38 17.5812 38.3094 16.9772 38.8314 16.6014L44.8314 12.2814C46.1544 11.3289 48 12.2743 48 13.9045V34.0955C48 35.7257 46.1544 36.6711 44.8314 35.7186L38.8314 31.3986C38.3094 31.0228 38 30.4188 38 29.7755V18.2245ZM45 32.1433L41 29.2633V18.7367L45 15.8567V32.1433Z" fill="#18202A"/>
</svg>
