<svg width="48" height="48" viewBox="0 0 48 48" fill="none" xmlns="http://www.w3.org/2000/svg">
<g clip-path="url(#clip0_3725_8775)">
<path fill-rule="evenodd" clip-rule="evenodd" d="M18 19.2941C18 18.5794 18.5794 18 19.2941 18H28.7059C29.4206 18 30 18.5794 30 19.2941V28.7059C30 29.4206 29.4206 30 28.7059 30H19.2941C18.5794 30 18 29.4206 18 28.7059V19.2941ZM20.5882 20.5882V27.4118H27.4118V20.5882H20.5882Z" fill="#18202A"/>
<path fill-rule="evenodd" clip-rule="evenodd" d="M20.0449 3.5C20.0449 2.67157 19.3733 2 18.5449 2C17.7165 2 17.0449 2.67157 17.0449 3.5V7.95508H13.0914C10.2547 7.95508 7.95508 10.2547 7.95508 13.0914V17H3.5C2.67157 17 2 17.6716 2 18.5C2 19.3284 2.67157 20 3.5 20H7.95508V26H3.5C2.67157 26 2 26.6716 2 27.5C2 28.3284 2.67157 29 3.5 29H7.95508V34.9096C7.95508 37.7464 10.2547 40.046 13.0914 40.046H17.0449V44.5806C17.0449 45.3645 17.7165 46 18.5449 46C19.3733 46 20.0449 45.3645 20.0449 44.5806V40.046H27.9551V44.5806C27.9551 45.3645 28.6267 46 29.4551 46C30.2835 46 30.9551 45.3645 30.9551 44.5806V40.046H34.9096C37.7464 40.046 40.046 37.7464 40.046 34.9096V29H44.5806C45.3645 29 46 28.3284 46 27.5C46 26.6716 45.3645 26 44.5806 26H40.046V20H44.5806C45.3645 20 46 19.3284 46 18.5C46 17.6716 45.3645 17 44.5806 17H40.046V13.0914C40.046 10.2547 37.7464 7.95508 34.9096 7.95508H30.9551V3.5C30.9551 2.67157 30.2835 2 29.4551 2C28.6267 2 27.9551 2.67157 27.9551 3.5V7.95508H20.0449V3.5ZM13.0914 10.9551C11.9116 10.9551 10.9551 11.9116 10.9551 13.0914V34.9096C10.9551 36.0895 11.9116 37.046 13.0914 37.046H34.9096C36.0895 37.046 37.046 36.0895 37.046 34.9096V13.0914C37.046 11.9116 36.0895 10.9551 34.9096 10.9551H13.0914Z" fill="#18202A"/>
</g>
<defs>
<clipPath id="clip0_3725_8775">
<rect width="48" height="48" fill="white"/>
</clipPath>
</defs>
</svg>
