<svg width="48" height="48" viewBox="0 0 48 48" fill="none" xmlns="http://www.w3.org/2000/svg">
<path d="M11.6364 2C7.41892 2 4 5.58505 4 10.0074V14H16C16 12.4645 16.5858 10.9289 17.7574 9.75736C20.1005 7.41421 23.8995 7.41421 26.2426 9.75736L32.2426 15.7574C34.5858 18.1005 34.5858 21.8995 32.2426 24.2426L26.2426 30.2426C23.8995 32.5858 20.1005 32.5858 17.7574 30.2426C16.5858 29.0711 16 27.5355 16 26H4V28.0242C4 32.4465 7.41891 36.0316 11.6364 36.0316H12.6777L11.5708 41.5828C11.2307 43.2883 12.9869 44.6037 14.4151 43.7132L26.7355 36.0316H38.3636C42.5811 36.0316 46 32.4465 46 28.0242V10.0074C46 5.58505 42.5811 2 38.3636 2H11.6364Z" fill="#18202A"/>
<path d="M20.5858 12.5858C21.3668 11.8047 22.6332 11.8047 23.4142 12.5858L29.4142 18.5858C30.1953 19.3668 30.1953 20.6332 29.4142 21.4142L23.4142 27.4142C22.6332 28.1953 21.3668 28.1953 20.5858 27.4142C19.8047 26.6332 19.8047 25.3668 20.5858 24.5858L23.1716 22H2C0.89543 22 0 21.1046 0 20C0 18.8954 0.89543 18 2 18H23.1716L20.5858 15.4142C19.8047 14.6332 19.8047 13.3668 20.5858 12.5858Z" fill="#18202A"/>
</svg>
