<svg width="48" height="48" viewBox="0 0 48 48" fill="none" xmlns="http://www.w3.org/2000/svg">
<path d="M28 16.375C28 19.5 26.6667 22 24 22C21.3333 22 20 19.5 20 16.375C20 13.875 21.3333 12 24 12C26.6667 12 28 13.875 28 16.375Z" fill="#18202A"/>
<path d="M16 17.5C16 20 15 22 13 22C11 22 10 20 10 17.5C10 15.5 11 14 13 14C15 14 16 15.5 16 17.5Z" fill="#18202A"/>
<path d="M38 17.5C38 20 37 22 35 22C33 22 32 20 32 17.5C32 15.5 33 14 35 14C37 14 38 15.5 38 17.5Z" fill="#18202A"/>
<path d="M16.6872 24.1286C16.5312 24.2278 16.3773 24.3301 16.2256 24.4354C13.8791 26.0636 13.2106 29.0062 14.0271 31.4664C14.0907 31.6581 14.1566 31.8486 14.225 32.0381C13.1409 32.0191 12.0734 31.935 11.0266 31.7896C9.7924 31.6182 8.74623 30.7908 8.3252 29.618C8.22852 29.3487 8.13726 29.077 8.05155 28.803C7.61013 27.3919 8.16621 25.842 9.48854 25.1806C11.0463 24.4015 12.8182 23.9609 14.6977 23.9609C15.3766 23.9609 16.0414 24.0184 16.6872 24.1286Z" fill="#18202A"/>
<path d="M33.9736 31.4663C33.9107 31.6558 33.8455 31.8442 33.778 32.0314C34.8902 32 35.9843 31.8999 37.056 31.7356C38.2747 31.5487 39.3013 30.7221 39.7145 29.5604C39.7847 29.3628 39.8521 29.1639 39.9165 28.9638C40.3607 27.5834 39.8489 26.0571 38.5753 25.3638C36.9349 24.4709 35.0373 23.9609 33.0152 23.9609C32.4164 23.9609 31.8286 24.0057 31.2551 24.0918C31.4311 24.2025 31.6045 24.3171 31.775 24.4354C34.1214 26.0637 34.7899 29.0061 33.9736 31.4663Z" fill="#18202A"/>
<path d="M31.1827 33.091C30.5348 34.4905 29.2278 35.4692 27.705 35.7137C26.4981 35.9076 25.2607 36.0082 24.0002 36.0082C22.7398 36.0082 21.5025 35.9076 20.2956 35.7138C18.7729 35.4692 17.4659 34.4906 16.8179 33.0911C16.48 32.3613 16.1815 31.6088 15.9253 30.8365C15.3456 29.0896 15.8537 27.1278 17.3658 26.0785C19.256 24.7668 21.5402 24 24.0002 24C26.4603 24 28.7445 24.7668 30.6348 26.0786C32.1469 27.1278 32.6549 29.0896 32.0753 30.8365C31.8191 31.6087 31.5206 32.3612 31.1827 33.091Z" fill="#18202A"/>
<path fill-rule="evenodd" clip-rule="evenodd" d="M38 5H10C7.23858 5 5 7.23858 5 10V38C5 40.7614 7.23858 43 10 43H38C40.7614 43 43 40.7614 43 38V10C43 7.23858 40.7614 5 38 5ZM10 2C5.58172 2 2 5.58172 2 10V38C2 42.4183 5.58172 46 10 46H38C42.4183 46 46 42.4183 46 38V10C46 5.58172 42.4183 2 38 2H10Z" fill="#18202A"/>
</svg>
