<svg width="48" height="48" viewBox="0 0 48 48" fill="none" xmlns="http://www.w3.org/2000/svg">
<path fill-rule="evenodd" clip-rule="evenodd" d="M12 2C9.79086 2 8 3.79086 8 6H40C40 3.79086 38.2091 2 36 2H12ZM12 12H6V18C6 19.1046 6.89543 20 8 20H10C11.1046 20 12 19.1046 12 18V12ZM10 24C11.5367 24 12.9385 23.4223 14 22.4722C15.0615 23.4223 16.4633 24 18 24H20C21.5367 24 22.9385 23.4223 24 22.4722C25.0615 23.4223 26.4633 24 28 24H30C31.5367 24 32.9385 23.4223 34 22.4722C35.0615 23.4223 36.4633 24 38 24H40C43.3137 24 46 21.3137 46 18V12C46 9.79086 44.2091 8 42 8H36H32H26H22H16H12H6C3.79086 8 2 9.79086 2 12V18C2 21.3137 4.68629 24 8 24H10ZM32 12V18C32 19.1046 31.1046 20 30 20H28C26.8954 20 26 19.1046 26 18V12H32ZM36 18V12H42V18C42 19.1046 41.1046 20 40 20H38C36.8954 20 36 19.1046 36 18ZM22 12H16V18C16 19.1046 16.8954 20 18 20H20C21.1046 20 22 19.1046 22 18V12ZM4 24.9297V37.9999C4 42.4182 7.58172 45.9999 12 45.9999H36C40.4183 45.9999 44 42.4182 44 37.9999V24.9297C42.8233 25.6104 41.4571 25.9999 40 25.9999H38C36.5429 25.9999 35.1767 25.6104 34 24.9297C32.8233 25.6104 31.4571 25.9999 30 25.9999H28C26.5429 25.9999 25.1767 25.6104 24 24.9297C22.8233 25.6104 21.4571 25.9999 20 25.9999H18C16.5429 25.9999 15.1767 25.6104 14 24.9297C12.8233 25.6104 11.4572 25.9999 10 25.9999H8C6.54285 25.9999 5.17669 25.6104 4 24.9297ZM18 32C18 30.8954 18.8954 30 20 30H28C29.1046 30 30 30.8954 30 32V42H18V32Z" fill="#18202A"/>
</svg>
