<svg width="48" height="48" viewBox="0 0 48 48" fill="none" xmlns="http://www.w3.org/2000/svg">
<path fill-rule="evenodd" clip-rule="evenodd" d="M40.8284 16.8284C41.4219 17.4219 41.8097 18.1827 41.9457 19H42V22H40.2258C39.8137 22.0481 39.4041 22.1232 39 22.2253V22H22V5H14C11.2386 5 9 7.23858 9 10V38C9 40.7614 11.2386 43 14 43H22.0812C22.2655 44.0404 22.6239 45.0561 23.1565 46H14C9.58172 46 6 42.4183 6 38V10C6 5.58172 9.58172 2 14 2H25V2.05428C25.8173 2.19033 26.5781 2.57807 27.1716 3.17157L40.8284 16.8284ZM25 5.24598V19H38.754C38.739 18.9828 38.7234 18.966 38.7071 18.9497L25.0503 5.29289C25.034 5.27663 25.0172 5.26099 25 5.24598ZM45.9307 26.8394C43.3923 24.3009 39.2767 24.3009 36.7383 26.8394L33.9099 29.6678C33.3241 30.2536 33.3241 31.2033 33.9099 31.7891C34.4957 32.3749 35.4454 32.3749 36.0312 31.7891L38.8596 28.9607C40.2265 27.5938 42.4426 27.5938 43.8094 28.9607C45.1762 30.3275 45.1762 32.5436 43.8094 33.9104L40.981 36.7388C40.3952 37.3246 40.3952 38.2744 40.981 38.8602C41.5668 39.446 42.5165 39.446 43.1023 38.8602L45.9307 36.0317C48.4691 33.4933 48.4691 29.3778 45.9307 26.8394ZM26.8388 45.9312C24.3004 43.3928 24.3004 39.2773 26.8388 36.7388L29.6673 33.9104C30.253 33.3246 31.2028 33.3246 31.7886 33.9104C32.3744 34.4962 32.3744 35.446 31.7886 36.0317L28.9602 38.8602C27.5933 40.227 27.5933 42.4431 28.9602 43.8099C30.327 45.1768 32.5431 45.1768 33.9099 43.8099L36.7383 40.9815C37.3241 40.3957 38.2739 40.3957 38.8596 40.9815C39.4454 41.5673 39.4454 42.517 38.8596 43.1028L36.0312 45.9312C33.4928 48.4696 29.3772 48.4696 26.8388 45.9312ZM39.9203 34.9711L34.9706 39.9208C34.3848 40.5066 33.435 40.5066 32.8492 39.9208C32.2635 39.335 32.2635 38.3853 32.8492 37.7995L37.799 32.8498C38.3848 32.264 39.3345 32.264 39.9203 32.8498C40.5061 33.4355 40.5061 34.3853 39.9203 34.9711Z" fill="#18202A"/>
</svg>
