<svg width="48" height="48" viewBox="0 0 48 48" fill="none" xmlns="http://www.w3.org/2000/svg">
<path fill-rule="evenodd" clip-rule="evenodd" d="M30.0001 15C30.0001 20 28.0001 24 24.0001 24C20.0001 24 18.0001 20 18.0001 15C18.0001 11 20.0001 8 24.0001 8C28.0001 8 30.0001 11 30.0001 15ZM27.0001 15C27.0001 17.1611 26.5585 18.8059 25.9451 19.8027C25.4072 20.6768 24.8077 21 24.0001 21C23.1925 21 22.5929 20.6768 22.055 19.8027C21.4416 18.8059 21.0001 17.1611 21.0001 15C21.0001 13.4576 21.3896 12.4404 21.8427 11.8741C22.2237 11.3978 22.8288 11 24.0001 11C25.1713 11 25.7764 11.3978 26.1575 11.8741C26.6105 12.4404 27.0001 13.4576 27.0001 15Z" fill="#18202A"/>
<path d="M26.423 43.9198C25.9497 42.9962 25.5838 42.0085 25.3416 40.9733C24.8967 40.991 24.4495 41 24 41C22.3344 41 20.6993 40.8768 19.1031 40.6396C17.554 40.4093 16.2436 39.4279 15.6115 38.0455C15.2714 37.3019 14.962 36.5415 14.6846 35.766C14.033 33.9434 14.6619 32.165 15.926 31.3558C18.2551 29.8647 21.022 29 24 29C25.4251 29 26.8017 29.198 28.1053 29.5679C28.8499 28.6949 29.7081 27.9217 30.6569 27.271C28.5978 26.4509 26.3516 26 24 26C20.4318 26 17.1061 27.0383 14.3085 28.8291C11.689 30.506 10.8126 33.8474 11.8598 36.7761C12.166 37.6325 12.5078 38.4721 12.8832 39.2931C13.9471 41.6197 16.1315 43.2308 18.662 43.607C20.4038 43.8659 22.1862 44 24 44C24.8143 44 25.6222 43.973 26.423 43.9198Z" fill="#18202A"/>
<path fill-rule="evenodd" clip-rule="evenodd" d="M16.0001 19.25C16.0001 23 14.3334 26 11.0001 26C7.66673 26 6.00006 23 6.00006 19.25C6.00006 16.25 7.66673 14 11.0001 14C14.3334 14 16.0001 16.25 16.0001 19.25ZM13.0001 19.25C13.0001 20.7358 12.6619 21.7701 12.2736 22.338C11.9671 22.7862 11.6203 23 11.0001 23C10.3799 23 10.033 22.7862 9.7265 22.338C9.33824 21.7701 9.00006 20.7358 9.00006 19.25C9.00006 18.2795 9.26811 17.7453 9.49229 17.4931C9.66957 17.2936 10.0505 17 11.0001 17C11.9497 17 12.3305 17.2936 12.5078 17.4931C12.732 17.7453 13.0001 18.2795 13.0001 19.25Z" fill="#18202A"/>
<path fill-rule="evenodd" clip-rule="evenodd" d="M34.7159 25.4184C35.7649 25.1453 36.8655 25 38 25C38.589 25 39.1688 25.0392 39.7371 25.115C41.2457 23.9562 42.0001 21.7728 42.0001 19.25C42.0001 16.25 40.3334 14 37.0001 14C33.6667 14 32.0001 16.25 32.0001 19.25C32.0001 22.0137 32.9053 24.3701 34.7159 25.4184ZM39.0001 19.25C39.0001 20.7358 38.6619 21.7701 38.2736 22.338C37.9671 22.7862 37.6203 23 37.0001 23C36.3799 23 36.033 22.7862 35.7265 22.338C35.3382 21.7701 35.0001 20.7358 35.0001 19.25C35.0001 18.2795 35.2681 17.7453 35.4923 17.4931C35.6696 17.2936 36.0505 17 37.0001 17C37.9497 17 38.3305 17.2936 38.5078 17.4931C38.732 17.7453 39.0001 18.2795 39.0001 19.25Z" fill="#18202A"/>
<path d="M10.7202 28C8.32457 28.0091 6.0531 28.5447 4.01546 29.4972C1.68134 30.5881 0.739491 33.3436 1.5275 35.7966C2.21696 37.9429 4.08923 39.4506 6.32651 39.7268C7.50389 39.8722 8.69888 39.9607 9.90865 39.9895C9.59347 39.2674 9.30191 38.5326 9.03496 37.786C8.93545 37.5077 8.84816 37.2253 8.77316 36.9398C8.07372 36.8979 7.38048 36.8342 6.69407 36.7494C5.58125 36.612 4.70491 35.8788 4.38375 34.8791C3.97518 33.6072 4.55143 32.5582 5.28577 32.2149C6.42312 31.6833 7.65113 31.3112 8.94298 31.1286C9.32115 29.9967 9.91149 28.9304 10.7202 28Z" fill="#18202A"/>
<path fill-rule="evenodd" clip-rule="evenodd" d="M38 48C43.5228 48 48 43.5228 48 38C48 32.4772 43.5228 28 38 28C32.4772 28 28 32.4772 28 38C28 43.5228 32.4772 48 38 48ZM39.5 33.5C39.5 32.6716 38.8284 32 38 32C37.1716 32 36.5 32.6716 36.5 33.5V36.5H33.5C32.6716 36.5 32 37.1716 32 38C32 38.8284 32.6716 39.5 33.5 39.5H36.5V42.5C36.5 43.3284 37.1716 44 38 44C38.8284 44 39.5 43.3284 39.5 42.5V39.5H42.5C43.3284 39.5 44 38.8284 44 38C44 37.1716 43.3284 36.5 42.5 36.5H39.5V33.5Z" fill="#18202A"/>
</svg>
