<svg width="48" height="48" viewBox="0 0 48 48" fill="none" xmlns="http://www.w3.org/2000/svg">
<path d="M25.5 23.5C25.5 22.6716 24.8284 22 24 22C23.1716 22 22.5 22.6716 22.5 23.5V28.5H17.5C16.6716 28.5 16 29.1716 16 30C16 30.8284 16.6716 31.5 17.5 31.5H22.5V36.5C22.5 37.3284 23.1716 38 24 38C24.8284 38 25.5 37.3284 25.5 36.5V31.5H30.5C31.3284 31.5 32 30.8284 32 30C32 29.1716 31.3284 28.5 30.5 28.5H25.5V23.5Z" fill="#18202A"/>
<path fill-rule="evenodd" clip-rule="evenodd" d="M8.0197 13.5102C8.2689 10.4256 10.8512 8 14 8H34C37.1488 8 39.7311 10.4256 39.9803 13.5102C41.1049 14.5079 41.852 15.9217 41.9803 17.5102C43.2192 18.6094 44 20.2135 44 22V38C44 41.3137 41.3137 44 38 44H10C6.68629 44 4 41.3137 4 38V22C4 20.2135 4.78077 18.6094 6.0197 17.5102C6.14804 15.9217 6.89513 14.5079 8.0197 13.5102ZM11.7597 12.0047C12.3091 11.3882 13.1092 11 14 11H34C34.8908 11 35.6909 11.3882 36.2403 12.0047C36.1606 12.0016 36.0805 12 36 12H12C11.9195 12 11.8394 12.0016 11.7597 12.0047ZM9.75967 16.0047C9.83939 16.0016 9.91951 16 10 16H38C38.0805 16 38.1606 16.0016 38.2403 16.0047C37.6909 15.3882 36.8908 15 36 15H12C11.1092 15 10.3091 15.3882 9.75967 16.0047ZM41 22C41 20.3431 39.6569 19 38 19H10C8.34315 19 7 20.3431 7 22V38C7 39.6569 8.34315 41 10 41H38C39.6569 41 41 39.6569 41 38V22Z" fill="#18202A"/>
</svg>
