<svg width="48" height="48" viewBox="0 0 48 48" fill="none" xmlns="http://www.w3.org/2000/svg">
<path fill-rule="evenodd" clip-rule="evenodd" d="M5.0409 23.2792V23.3818C5.0409 29.3603 7.39764 33.8476 11.0306 36.7909L12.0254 37.5969L12.4333 42.4918L17.5286 40.1401L18.5365 40.3787C20.2584 40.7864 22.0982 41 24.0205 41C35.7404 41 43 32.6585 43 23.3818C43 12.2408 34.6927 5 24.0205 5C13.2918 5 4.38905 13.766 5.03389 23.1767L5.0409 23.2792ZM46 23.3818C46 34.3472 37.3653 44 24.0205 44C21.8765 44 19.8043 43.7618 17.8453 43.298L12.3935 45.8142C11.1329 46.396 9.6776 45.548 9.56231 44.1644L9.1421 39.1219C4.77644 35.585 2.0409 30.2264 2.0409 23.3818C1.25602 11.9273 11.8815 2 24.0205 2C36.1594 2 46 10.4 46 23.3818Z" fill="#18202A"/>
</svg>
