<svg width="48" height="48" viewBox="0 0 48 48" fill="none" xmlns="http://www.w3.org/2000/svg">
<path fill-rule="evenodd" clip-rule="evenodd" d="M34 5H14C9.02944 5 5 9.02944 5 14V34C5 38.9706 9.02944 43 14 43H34C38.9706 43 43 38.9706 43 34V14C43 9.02944 38.9706 5 34 5ZM14 2C7.37258 2 2 7.37258 2 14V34C2 40.6274 7.37258 46 14 46H34C40.6274 46 46 40.6274 46 34V14C46 7.37258 40.6274 2 34 2H14Z" fill="#18202A"/>
<path fill-rule="evenodd" clip-rule="evenodd" d="M18 19C19.6569 19 21 17.6569 21 16C21 14.3431 19.6569 13 18 13C16.3431 13 15 14.3431 15 16C15 17.6569 16.3431 19 18 19ZM24 16C24 19.3137 21.3137 22 18 22C14.6863 22 12 19.3137 12 16C12 12.6863 14.6863 10 18 10C21.3137 10 24 12.6863 24 16Z" fill="#18202A"/>
<path fill-rule="evenodd" clip-rule="evenodd" d="M33.088 19.6841L45.1795 35.0733L42.8205 36.9267L32.912 24.3159L22.1389 36.0683L16.1435 31.0721L7.10991 41.009L4.89009 38.991L15.8565 26.9279L21.8611 31.9317L33.088 19.6841Z" fill="#18202A"/>
</svg>
