<svg width="48" height="48" viewBox="0 0 48 48" fill="none" xmlns="http://www.w3.org/2000/svg">
<path fill-rule="evenodd" clip-rule="evenodd" d="M36.9393 36.9393C37.5251 36.3536 38.4749 36.3536 39.0607 36.9393L43.0607 40.9393C43.6464 41.5251 43.6464 42.4749 43.0607 43.0607C42.4749 43.6464 41.5251 43.6464 40.9393 43.0607L36.9393 39.0607C36.3536 38.4749 36.3536 37.5251 36.9393 36.9393Z" fill="#18202A"/>
<path fill-rule="evenodd" clip-rule="evenodd" d="M22 37C30.2843 37 37 30.2843 37 22C37 13.7157 30.2843 7 22 7C13.7157 7 7 13.7157 7 22C7 30.2843 13.7157 37 22 37ZM40 22C40 31.9411 31.9411 40 22 40C12.0589 40 4 31.9411 4 22C4 12.0589 12.0589 4 22 4C31.9411 4 40 12.0589 40 22Z" fill="#18202A"/>
</svg>
