<svg width="48" height="48" viewBox="0 0 48 48" fill="none" xmlns="http://www.w3.org/2000/svg">
<path fill-rule="evenodd" clip-rule="evenodd" d="M13 17.7101C15.8915 16.8496 18 14.171 18 11C18 7.13401 14.866 4 11 4C7.13401 4 4 7.13401 4 11C4 14.171 6.10851 16.8496 9 17.7101V29C9 34.5228 13.4772 39 19 39H30.2899C31.1504 41.8915 33.829 44 37 44C40.866 44 44 40.866 44 37C44 33.134 40.866 30 37 30C33.829 30 31.1504 32.1085 30.2899 35H19C15.6863 35 13 32.3137 13 29V17.7101ZM11 14C12.6569 14 14 12.6569 14 11C14 9.34315 12.6569 8 11 8C9.34315 8 8 9.34315 8 11C8 12.6569 9.34315 14 11 14ZM37 40C38.6569 40 40 38.6569 40 37C40 35.3431 38.6569 34 37 34C35.3431 34 34 35.3431 34 37C34 38.6569 35.3431 40 37 40Z" fill="#18202A"/>
</svg>
