<svg width="48" height="48" viewBox="0 0 48 48" fill="none" xmlns="http://www.w3.org/2000/svg">
<path fill-rule="evenodd" clip-rule="evenodd" d="M40.617 7.38365C36.1259 2.89262 28.8445 2.89262 24.3535 7.38365L20.1109 11.6263C19.5251 12.2121 19.5251 13.1618 20.1109 13.7476C20.6966 14.3334 21.6464 14.3334 22.2322 13.7476L26.4748 9.50497C29.7943 6.18552 35.1762 6.18552 38.4956 9.50497C41.8151 12.8244 41.8151 18.2063 38.4956 21.5258L34.253 25.7684C33.6672 26.3542 33.6672 27.304 34.253 27.8897C34.8388 28.4755 35.7885 28.4755 36.3743 27.8897L40.617 23.6471C45.108 19.1561 45.108 11.8747 40.617 7.38365ZM7.38292 40.6161C2.89189 36.125 2.89189 28.8436 7.38292 24.3526L11.6256 20.11C12.2113 19.5242 13.1611 19.5242 13.7469 20.11C14.3327 20.6958 14.3327 21.6455 13.7469 22.2313L9.50424 26.4739C6.18478 29.7934 6.18478 35.1753 9.50424 38.4948C12.8237 41.8142 18.2056 41.8142 21.5251 38.4948L25.7677 34.2521C26.3535 33.6663 27.3032 33.6663 27.889 34.2521C28.4748 34.8379 28.4748 35.7876 27.889 36.3734L23.6464 40.6161C19.1553 45.1071 11.8739 45.1071 7.38292 40.6161ZM14.454 31.4237C13.8682 32.0095 13.8682 32.9592 14.454 33.545C15.0398 34.1308 15.9895 34.1308 16.5753 33.545L33.5459 16.5744C34.1317 15.9887 34.1317 15.0389 33.5459 14.4531C32.9601 13.8673 32.0104 13.8673 31.4246 14.4531L14.454 31.4237Z" fill="#18202A"/>
</svg>
