<svg width="48" height="48" viewBox="0 0 48 48" fill="none" xmlns="http://www.w3.org/2000/svg">
<path fill-rule="evenodd" clip-rule="evenodd" d="M2 12C2 7.58172 5.58172 4 10 4H38C42.4183 4 46 7.58172 46 12V36C46 40.4183 42.4183 44 38 44H10C5.58172 44 2 40.4183 2 36V12ZM18 7H30V22.5L18 22.5V7ZM15 22.5V7H10C7.23858 7 5 9.23858 5 12V22.5H15ZM5 25.5H15V41H10C7.23858 41 5 38.7614 5 36V25.5ZM18 25.5L30 25.5V41H18V25.5ZM33 25.5V41H38C40.7614 41 43 38.7614 43 36V25.5H33ZM43 22.5V12C43 9.23858 40.7614 7 38 7H33V22.5H43Z" fill="#18202A"/>
</svg>
