<svg width="48" height="48" viewBox="0 0 48 48" fill="none" xmlns="http://www.w3.org/2000/svg">
<path fill-rule="evenodd" clip-rule="evenodd" d="M36 5H16C13.2386 5 11 7.23858 11 10V38C11 40.7614 13.2386 43 16 43H36C38.7614 43 41 40.7614 41 38V10C41 7.23858 38.7614 5 36 5ZM16 2C11.5817 2 8 5.58172 8 10V38C8 42.4183 11.5817 46 16 46H36C40.4183 46 44 42.4183 44 38V10C44 5.58172 40.4183 2 36 2H16ZM26 23.0909C28.4243 23.0909 29.6364 20.8182 29.6364 17.9773C29.6364 15.7045 28.4243 14 26 14C23.5758 14 22.3637 15.7045 22.3637 17.9773C22.3637 20.8182 23.5758 23.0909 26 23.0909ZM19.1813 27.9106C18.379 29.9421 18.7436 30.3587 19.4729 31.1918C20.9663 32.8978 23.3343 34 26 34C28.6658 34 31.0337 32.8978 32.5271 31.1918C33.2564 30.3587 33.6211 29.9421 32.8188 27.9106C32.0165 25.8791 31.2387 25.6966 29.6832 25.3315C28.5095 25.0561 27.2746 24.9091 26 24.9091C24.7254 24.9091 23.4905 25.0561 22.3168 25.3315C20.7613 25.6966 19.9836 25.8791 19.1813 27.9106ZM2 12C2 10.8954 2.89543 10 4 10H6V18H4C2.89543 18 2 17.1046 2 16V12ZM2 22C2 20.8954 2.89543 20 4 20H6V28H4C2.89543 28 2 27.1046 2 26V22ZM4 30C2.89543 30 2 30.8954 2 32V36C2 37.1046 2.89543 38 4 38H6V30H4Z" fill="#18202A"/>
</svg>
