<svg width="48" height="48" viewBox="0 0 48 48" fill="none" xmlns="http://www.w3.org/2000/svg">
<path fill-rule="evenodd" clip-rule="evenodd" d="M12 11H18C18.5523 11 19 11.4477 19 12V36C19 36.5523 18.5523 37 18 37H12C11.4477 37 11 36.5523 11 36V12C11 11.4477 11.4477 11 12 11ZM8 12C8 9.79086 9.79086 8 12 8H18C20.2091 8 22 9.79086 22 12V36C22 38.2091 20.2091 40 18 40H12C9.79086 40 8 38.2091 8 36V12ZM30 11H36C36.5523 11 37 11.4477 37 12V36C37 36.5523 36.5523 37 36 37H30C29.4477 37 29 36.5523 29 36V12C29 11.4477 29.4477 11 30 11ZM26 12C26 9.79086 27.7909 8 30 8H36C38.2091 8 40 9.79086 40 12V36C40 38.2091 38.2091 40 36 40H30C27.7909 40 26 38.2091 26 36V12Z" fill="#18202A"/>
</svg>
