<svg width="48" height="48" viewBox="0 0 48 48" fill="none" xmlns="http://www.w3.org/2000/svg">
<path d="M32.0606 26.0607C32.6464 25.4749 32.6464 24.5251 32.0606 23.9393C31.4748 23.3536 30.5251 23.3536 29.9393 23.9393L21 32.8787L18.0606 29.9393C17.4748 29.3536 16.5251 29.3536 15.9393 29.9393C15.3535 30.5251 15.3535 31.4749 15.9393 32.0607L19.9393 36.0607C20.5251 36.6464 21.4748 36.6464 22.0606 36.0607L32.0606 26.0607Z" fill="#18202A"/>
<path fill-rule="evenodd" clip-rule="evenodd" d="M34.0101 12C33.2891 12 32.6773 11.4947 32.4225 10.8202C31.1377 7.41887 27.8515 5 24.0004 5C19.0298 5 15.0004 9.02944 15.0004 14V16H36.0004C40.4186 16 44.0004 19.5817 44.0004 24V38C44.0004 42.4183 40.4186 46 36.0004 46H12.0004C7.58209 46 4.00037 42.4183 4.00037 38V24C4.00037 19.5817 7.58209 16 12.0004 16V14C12.0004 7.37258 17.3729 2 24.0004 2C29.3109 2 33.8158 5.44966 35.3963 10.2304C35.696 11.1368 34.9647 12 34.0101 12ZM12.0004 19C9.23894 19 7.00037 21.2386 7.00037 24V38C7.00037 40.7614 9.23894 43 12.0004 43H36.0004C38.7618 43 41.0004 40.7614 41.0004 38V24C41.0004 21.2386 38.7618 19 36.0004 19H12.0004Z" fill="#18202A"/>
</svg>
