<svg width="48" height="48" viewBox="0 0 48 48" fill="none" xmlns="http://www.w3.org/2000/svg">
<path d="M2.44202 2.44202C3.03137 1.85266 3.98691 1.85266 4.57626 2.44202L41.558 39.4237C42.1473 40.0131 42.1473 40.9686 41.558 41.558C40.9686 42.1473 40.0131 42.1473 39.4237 41.558L2.44202 4.57626C1.85266 3.98691 1.85266 3.03137 2.44202 2.44202Z" fill="#18202A"/>
<path d="M8.63668 6.5053L3.76833 7.96964L3.51272 8.06128C2.60264 8.44268 2 9.31189 2 10.2853C2 35.0265 14.3739 41.8158 21.864 45.2821L22.9232 45.7674C23.2642 45.9224 23.6324 46 24.0006 46C24.3686 46 24.7358 45.9224 25.0758 45.7674C28.7785 44.0811 34.0949 41.6586 38.4422 36.3108L36.3083 34.1769C36.1969 34.3174 36.0843 34.4564 35.9704 34.5939L35.5593 35.0799C32.9681 38.0788 30.3298 39.9052 26.0677 41.9863L24.5846 42.6914L23.998 42.96L23.4124 42.6904C18.0089 40.1806 15.0448 38.233 12.0295 34.5935L11.6259 34.0932C7.51157 28.8558 5.1505 21.5096 5.00695 11.2839L5.002 10.73L11.0443 8.91287L8.63668 6.5053Z" fill="#18202A"/>
<path d="M13.4394 11.308L8 12.944L8.00641 13.1286C8.38076 21.7087 10.481 27.8362 13.9129 32.2169L14.2857 32.6796C16.7096 35.6054 19.126 37.3135 23.3323 39.3575L23.946 39.652L24.5557 39.3593C28.5537 37.4172 30.9358 35.7777 33.2424 33.1099L33.6062 32.68C33.7877 32.4608 33.9658 32.2372 34.1402 32.0089L31.997 29.8656C31.7725 30.1726 31.542 30.4687 31.3056 30.7544L30.9629 31.1595C29.1377 33.2677 27.2686 34.6456 23.9458 36.3147C20.4499 34.5584 18.5478 33.1181 16.6086 30.781L16.2624 30.3512C13.5984 26.9435 11.7224 22.1186 11.1384 15.1328L15.8478 13.7164L13.4394 11.308Z" fill="#18202A"/>
<path d="M19.1094 12.7354L16.7011 10.327L23.946 8.148L39.89 12.944L39.8389 14.0348C39.4563 20.507 38.0598 25.5393 35.829 29.455L33.6173 27.2433C35.2187 24.1597 36.3279 20.2192 36.7533 15.1333L23.9459 11.2808L19.1094 12.7354Z" fill="#18202A"/>
<path d="M38.0526 31.6786C41.1268 26.6638 42.8703 20.0257 42.993 11.2813L42.996 10.73L24.002 5.016L14.306 7.93195L11.8983 5.52425L23.2502 2.10973C23.6412 1.99268 24.0542 1.96928 24.454 2.0395L24.7508 2.10973L44.2326 7.96964C45.2838 8.28648 46.001 9.22438 46 10.2853C46 21.2336 43.577 28.6668 40.2263 33.8523L38.0526 31.6786Z" fill="#18202A"/>
</svg>
