<svg width="48" height="48" viewBox="0 0 48 48" fill="none" xmlns="http://www.w3.org/2000/svg">
<path fill-rule="evenodd" clip-rule="evenodd" d="M24 43C34.4934 43 43 34.4934 43 24C43 13.5066 34.4934 5 24 5C13.5066 5 5 13.5066 5 24C5 34.4934 13.5066 43 24 43ZM24 46C36.1503 46 46 36.1503 46 24C46 11.8497 36.1503 2 24 2C11.8497 2 2 11.8497 2 24C2 36.1503 11.8497 46 24 46Z" fill="#18202A"/>
<path fill-rule="evenodd" clip-rule="evenodd" d="M27.492 23.0725C28.4033 21.6842 29 19.5062 29 16.75C29 14.7503 28.4659 13.3239 27.7179 12.4474C27.0278 11.6386 25.908 11 24 11C22.092 11 20.9722 11.6386 20.2821 12.4474C19.5341 13.3239 19 14.7503 19 16.75C19 19.5062 19.5967 21.6842 20.508 23.0725C21.3385 24.3378 22.4349 25 24 25C25.5651 25 26.6615 24.3378 27.492 23.0725ZM24 28C29.3333 28 32 23 32 16.75C32 11.75 29.3333 8 24 8C18.6667 8 16 11.75 16 16.75C16 23 18.6667 28 24 28Z" fill="#18202A"/>
<path d="M8.04449 39.1467C8.36666 37.8703 9.01624 36.6817 9.99865 35.7185C13.6063 32.1812 18.5484 30 24 30C29.4516 30 34.3937 32.1812 38.0014 35.7184C38.9838 36.6817 39.6334 37.8703 39.9555 39.1467C39.0988 40.0489 38.1663 40.8785 37.1683 41.6254C37.3185 40.1765 36.8516 38.7926 35.901 37.8605C32.8315 34.8509 28.6349 33 24 33C19.3651 33 15.1685 34.8509 12.099 37.8606C11.1484 38.7927 10.6816 40.1765 10.8317 41.6254C9.83371 40.8786 8.90124 40.049 8.04449 39.1467Z" fill="#18202A"/>
</svg>
