<svg width="48" height="48" viewBox="0 0 48 48" fill="none" xmlns="http://www.w3.org/2000/svg">
<path fill-rule="evenodd" clip-rule="evenodd" d="M38.6026 42.2833C39.6806 41.105 40.5354 39.7063 41.1184 38.1669C41.7013 36.6276 42.0009 34.9779 42 33.312V20H41.9C41.4367 17.7178 39.419 16 37 16C36.3748 16 35.7763 16.1148 35.2246 16.3244C34.3379 14.9273 32.7772 14 31 14C30.3748 14 29.7763 14.1148 29.2246 14.3244C28.5088 13.1965 27.3537 12.3748 26 12.1C25.6769 12.0344 25.3425 12 25 12C24.6575 12 24.3231 12.0344 24 12.1V5C24 2.23858 21.7614 0 19 0C16.2386 0 14 2.23858 14 5V20.0516C12.4912 20.2468 11.0769 20.9902 9.99167 22.1758C8.71643 23.5689 8 25.4584 8 27.4286C7.99948 31.0523 9.03611 34.5856 10.9648 37.5339L13.4581 41.3349C14.4011 42.7766 15.6452 43.952 17.0872 44.7633C18.5292 45.5747 20.1276 45.9986 21.7496 46H30.3924C31.9173 46 33.4273 45.6718 34.836 45.034C36.2447 44.3963 37.5247 43.4616 38.6026 42.2833ZM20 22C20 23.1046 20.8954 24 22 24C23.1046 24 24 23.1046 24 22V16.1816L24.7957 16.0201C24.8584 16.0073 24.9263 16 25 16C25.3511 16 25.6635 16.178 25.8474 16.4678L26 16.7083V22C26 23.1046 26.8954 24 28 24C29.1046 24 30 23.1046 30 22V18.3087L30.6452 18.0636C30.7502 18.0237 30.8677 18 31 18C31.3511 18 31.6635 18.178 31.8474 18.4678L32 18.7083V22C32 23.1046 32.8954 24 34 24C35.1046 24 36 23.1046 36 22V20.3087L36.6452 20.0636C36.7502 20.0237 36.8677 20 37 20C37.4791 20 37.8876 20.341 37.9799 20.7957L38 20.8946V33.3141C38.0006 34.5013 37.7868 35.6698 37.3776 36.7503C36.9685 37.8305 36.3766 38.7905 35.6513 39.5833C34.9267 40.3755 34.0856 40.983 33.1864 41.39C32.2884 41.7965 31.3402 42 30.3924 42H21.753C20.8312 41.9992 19.9054 41.7593 19.0486 41.2772C18.1894 40.7938 17.4123 40.073 16.8058 39.1455L14.3122 35.3441L14.311 35.3424C12.8217 33.0649 11.9996 30.2977 12 27.4291C12 26.4113 12.3734 25.498 12.9422 24.8766C13.4183 24.3565 13.9817 24.0873 14.5133 24.0185L18 23.5673V5C18 4.44772 18.4477 4 19 4C19.5523 4 20 4.44772 20 5V22Z" fill="#18202A"/>
</svg>
