<svg width="48" height="48" viewBox="0 0 48 48" fill="none" xmlns="http://www.w3.org/2000/svg">
<g clip-path="url(#clip0_3293_9012)">
<path fill-rule="evenodd" clip-rule="evenodd" d="M27.5 8.5C28.3284 8.5 29 9.17157 29 10V12H30.5C31.3284 12 32 12.6716 32 13.5C32 14.3284 31.3284 15 30.5 15H29V30.5C29 31.3284 28.3284 32 27.5 32C26.6718 32 26.0003 31.3287 26 30.5005C24.7465 31.4421 23.1884 32 21.5 32C17.3579 32 14 28.6421 14 24.5C14 20.3579 17.3579 17 21.5 17C23.1884 17 24.7465 17.5579 26 18.4995V15H24.5C23.6716 15 23 14.3284 23 13.5C23 12.6716 23.6716 12 24.5 12H26V10C26 9.17157 26.6716 8.5 27.5 8.5ZM21.5 20C23.9853 20 26 22.0147 26 24.5C26 26.9853 23.9853 29 21.5 29C19.0147 29 17 26.9853 17 24.5C17 22.0147 19.0147 20 21.5 20Z" fill="#18202A"/>
<path d="M15.5 34C14.6716 34 14 34.6716 14 35.5C14 36.3284 14.6716 37 15.5 37H27.5C28.3284 37 29 36.3284 29 35.5C29 34.6716 28.3284 34 27.5 34H15.5Z" fill="#18202A"/>
<path fill-rule="evenodd" clip-rule="evenodd" d="M46 24C46 36.1503 36.1503 46 24 46C11.8497 46 2 36.1503 2 24C2 11.8497 11.8497 2 24 2C36.1503 2 46 11.8497 46 24ZM43 24C43 34.4934 34.4934 43 24 43C13.5066 43 5 34.4934 5 24C5 13.5066 13.5066 5 24 5C34.4934 5 43 13.5066 43 24Z" fill="#18202A"/>
</g>
<defs>
<clipPath id="clip0_3293_9012">
<rect width="48" height="48" fill="white"/>
</clipPath>
</defs>
</svg>
