<svg width="48" height="48" viewBox="0 0 48 48" fill="none" xmlns="http://www.w3.org/2000/svg">
<path fill-rule="evenodd" clip-rule="evenodd" d="M35.3641 16.2738C35.8767 16.0964 36.4271 16 37 16C39.7614 16 42 18.2386 42 21V33.312C42.0009 34.9779 41.7013 36.6276 41.1184 38.1669C40.5354 39.7063 39.6806 41.105 38.6026 42.2833C37.5247 43.4616 36.2447 44.3963 34.836 45.034C33.4273 45.6718 31.9173 46 30.3924 46H21.7496C20.1276 45.9986 18.5292 45.5747 17.0872 44.7633C15.6452 43.952 14.4011 42.7766 13.4581 41.3349L10.9648 37.5339C9.03611 34.5856 7.99948 31.0523 8 27.4286C8 25.4584 8.71643 23.5689 9.99167 22.1758C11.0769 20.9902 12.4912 20.2468 14 20.0516V5C14 2.23858 16.2386 0 19 0C21.7614 0 24 2.23858 24 5V12.1C24.3231 12.0344 24.6575 12 25 12C25.3425 12 25.6769 12.0344 26 12.1C27.2702 12.3579 28.3656 13.0972 29.0873 14.1193C29.1854 14.1611 29.2781 14.213 29.3641 14.2738C29.8767 14.0964 30.4271 14 31 14C32.6888 14 34.182 14.8373 35.0873 16.1193C35.1854 16.1611 35.2781 16.213 35.3641 16.2738ZM21 22.5C21 23.3284 21.6716 24 22.5 24C23.3284 24 24 23.3284 24 22.5V15.1612L24.5968 15.0401C24.7246 15.0141 24.8591 15 25 15C25.7077 15 26.3321 15.3653 26.6917 15.9319L27 16.4177V22.5C27 23.3284 27.6716 24 28.5 24C29.3284 24 30 23.3284 30 22.5V17.239L30.2901 17.1288C30.5067 17.0465 30.7444 17 31 17C31.7077 17 32.3321 17.3653 32.6917 17.9319L33 18.4177V22.5C33 23.3284 33.6716 24 34.5 24C35.3284 24 36 23.3284 36 22.5V19.239L36.2901 19.1288C36.5067 19.0465 36.7444 19 37 19C38.1046 19 39 19.8954 39 21V33.312C39.0007 34.6188 38.7654 35.9093 38.3128 37.1045C37.8603 38.2995 37.2026 39.3691 36.3891 40.2583C35.5762 41.147 34.6254 41.8363 33.5988 42.301C32.5731 42.7653 31.4845 43 30.3924 43H21.7521C20.6553 42.9991 19.5613 42.7131 18.5583 42.1488C17.5533 41.5833 16.6595 40.7489 15.9689 39.6928L13.4753 35.8916L13.4741 35.8897C11.8752 33.4446 10.9996 30.4861 11 27.429C11 26.1731 11.4591 25.0157 12.2045 24.2014C12.8329 23.5149 13.6091 23.1272 14.385 23.0268L17 22.6884V5C17 3.89543 17.8954 3 19 3C20.1046 3 21 3.89543 21 5V22.5Z" fill="#18202A"/>
</svg>
