<svg width="48" height="48" viewBox="0 0 48 48" fill="none" xmlns="http://www.w3.org/2000/svg">
<path fill-rule="evenodd" clip-rule="evenodd" d="M9.17157 3.17157C9.92172 2.42143 10.9391 2 12 2H36C37.0609 2 38.0783 2.42143 38.8284 3.17157C39.5786 3.92172 40 4.93914 40 6V44C40 44.7492 39.5813 45.4355 38.9152 45.7783C38.249 46.1211 37.4471 46.0629 36.8375 45.6275L31 41.4578L25.1625 45.6275C24.4671 46.1242 23.5329 46.1242 22.8375 45.6275L17 41.4578L11.1625 45.6275C10.5528 46.0629 9.75098 46.1211 9.08484 45.7783C8.41869 45.4355 8 44.7492 8 44V6C8 4.93913 8.42143 3.92172 9.17157 3.17157ZM16 14C16 12.8954 16.8954 12 18 12H30C31.1046 12 32 12.8954 32 14C32 15.1046 31.1046 16 30 16H18C16.8954 16 16 15.1046 16 14ZM18 20C16.8954 20 16 20.8954 16 22C16 23.1046 16.8954 24 18 24H30C31.1046 24 32 23.1046 32 22C32 20.8954 31.1046 20 30 20H18ZM16 30C16 28.8954 16.8954 28 18 28H30C31.1046 28 32 28.8954 32 30C32 31.1046 31.1046 32 30 32H18C16.8954 32 16 31.1046 16 30Z" fill="#18202A"/>
</svg>
