<svg width="48" height="48" viewBox="0 0 48 48" fill="none" xmlns="http://www.w3.org/2000/svg">
<path fill-rule="evenodd" clip-rule="evenodd" d="M12 3.5C12 2.67157 12.6716 2 13.5 2C14.3284 2 15 2.67157 15 3.5V6H33V3.5C33 2.67157 33.6716 2 34.5 2C35.3284 2 36 2.67157 36 3.5V6H38C42.4183 6 46 9.58172 46 14V27.7523C45.0895 27.0405 44.0818 26.4474 43 25.9963V14C43 11.2386 40.7614 9 38 9H36V12.5C36 13.3284 35.3284 14 34.5 14C33.6716 14 33 13.3284 33 12.5V9H15V12.5C15 13.3284 14.3284 14 13.5 14C12.6716 14 12 13.3284 12 12.5V9H10C7.23858 9 5 11.2386 5 14V38C5 40.7614 7.23858 43 10 43H25.9963C26.4474 44.0818 27.0405 45.0895 27.7523 46H10C5.58172 46 2 42.4183 2 38V14C2 9.58172 5.58172 6 10 6H12V3.5ZM28 26C29.0244 26 29.869 26.7702 29.9861 27.7632C29.1587 28.4119 28.4119 29.1587 27.7632 29.9861C26.7702 29.869 26 29.0244 26 28C26 26.8954 26.8954 26 28 26ZM10 19.5C10 18.6716 10.6716 18 11.5 18H36.5C37.3284 18 38 18.6716 38 19.5C38 20.3284 37.3284 21 36.5 21H11.5C10.6716 21 10 20.3284 10 19.5ZM12 26C10.8954 26 10 26.8954 10 28C10 29.1046 10.8954 30 12 30C13.1046 30 14 29.1046 14 28C14 26.8954 13.1046 26 12 26ZM10 36C10 34.8954 10.8954 34 12 34C13.1046 34 14 34.8954 14 36C14 37.1046 13.1046 38 12 38C10.8954 38 10 37.1046 10 36ZM20 26C18.8954 26 18 26.8954 18 28C18 29.1046 18.8954 30 20 30C21.1046 30 22 29.1046 22 28C22 26.8954 21.1046 26 20 26ZM18 36C18 34.8954 18.8954 34 20 34C21.1046 34 22 34.8954 22 36C22 37.1046 21.1046 38 20 38C18.8954 38 18 37.1046 18 36ZM48 38C48 43.5228 43.5228 48 38 48C32.4772 48 28 43.5228 28 38C28 32.4772 32.4772 28 38 28C43.5228 28 48 32.4772 48 38ZM38 32C38.8284 32 39.5 32.6716 39.5 33.5V36.5H42.5C43.3284 36.5 44 37.1716 44 38C44 38.8284 43.3284 39.5 42.5 39.5H39.5V42.5C39.5 43.3284 38.8284 44 38 44C37.1716 44 36.5 43.3284 36.5 42.5V39.5H33.5C32.6716 39.5 32 38.8284 32 38C32 37.1716 32.6716 36.5 33.5 36.5H36.5V33.5C36.5 32.6716 37.1716 32 38 32Z" fill="#18202A"/>
</svg>
