<svg width="48" height="48" viewBox="0 0 48 48" fill="none" xmlns="http://www.w3.org/2000/svg">
<path fill-rule="evenodd" clip-rule="evenodd" d="M24 43C34.4934 43 43 34.4934 43 24C43 13.5066 34.4934 5 24 5C13.5066 5 5 13.5066 5 24C5 34.4934 13.5066 43 24 43ZM46 24C46 36.1503 36.1503 46 24 46C11.8497 46 2 36.1503 2 24C2 11.8497 11.8497 2 24 2C36.1503 2 46 11.8497 46 24Z" fill="#18202A"/>
<path fill-rule="evenodd" clip-rule="evenodd" d="M15.1566 28.7596C15.8417 28.2938 16.7746 28.4715 17.2404 29.1566C17.9169 30.1514 18.8878 30.9954 20.0751 31.5891C21.2628 32.1829 22.6156 32.5 24 32.5C25.3844 32.5 26.7372 32.1829 27.9249 31.5891C29.1122 30.9954 30.0831 30.1514 30.7596 29.1566C31.2254 28.4715 32.1583 28.2938 32.8434 28.7596C33.5285 29.2254 33.7062 30.1583 33.2404 30.8434C32.2576 32.2888 30.883 33.4641 29.2666 34.2723C27.6506 35.0803 25.8369 35.5 24 35.5C22.1631 35.5 20.3494 35.0803 18.7334 34.2723C17.117 33.4641 15.7424 32.2888 14.7596 30.8434C14.2938 30.1583 14.4715 29.2254 15.1566 28.7596Z" fill="#18202A"/>
<path d="M20 20C20 22.2091 18.6569 24 17 24C15.3431 24 14 22.2091 14 20C14 17.7909 15.3431 16 17 16C18.6569 16 20 17.7909 20 20Z" fill="#18202A"/>
<path d="M34 20C34 22.2091 32.6569 24 31 24C29.3431 24 28 22.2091 28 20C28 17.7909 29.3431 16 31 16C32.6569 16 34 17.7909 34 20Z" fill="#18202A"/>
</svg>
