<svg width="48" height="48" viewBox="0 0 48 48" fill="none" xmlns="http://www.w3.org/2000/svg">
<path fill-rule="evenodd" clip-rule="evenodd" d="M38 9H10C7.23858 9 5 11.2386 5 14V38C5 40.7614 7.23858 43 10 43H38C40.7614 43 43 40.7614 43 38V14C43 11.2386 40.7614 9 38 9ZM10 6C5.58172 6 2 9.58172 2 14V38C2 42.4183 5.58172 46 10 46H38C42.4183 46 46 42.4183 46 38V14C46 9.58172 42.4183 6 38 6H10Z" fill="#18202A"/>
<path d="M12 3.5C12 2.67157 12.6716 2 13.5 2C14.3284 2 15 2.67157 15 3.5V12.5C15 13.3284 14.3284 14 13.5 14C12.6716 14 12 13.3284 12 12.5V3.5Z" fill="#18202A"/>
<path d="M33 3.5C33 2.67157 33.6716 2 34.5 2C35.3284 2 36 2.67157 36 3.5V12.5C36 13.3284 35.3284 14 34.5 14C33.6716 14 33 13.3284 33 12.5V3.5Z" fill="#18202A"/>
<path d="M10 19.5C10 18.6716 10.6716 18 11.5 18H36.5C37.3284 18 38 18.6716 38 19.5C38 20.3284 37.3284 21 36.5 21H11.5C10.6716 21 10 20.3284 10 19.5Z" fill="#18202A"/>
<path d="M10 28C10 26.8954 10.8954 26 12 26C13.1046 26 14 26.8954 14 28C14 29.1046 13.1046 30 12 30C10.8954 30 10 29.1046 10 28Z" fill="#18202A"/>
<path d="M10 36C10 34.8954 10.8954 34 12 34C13.1046 34 14 34.8954 14 36C14 37.1046 13.1046 38 12 38C10.8954 38 10 37.1046 10 36Z" fill="#18202A"/>
<path d="M18 28C18 26.8954 18.8954 26 20 26C21.1046 26 22 26.8954 22 28C22 29.1046 21.1046 30 20 30C18.8954 30 18 29.1046 18 28Z" fill="#18202A"/>
<path d="M18 36C18 34.8954 18.8954 34 20 34C21.1046 34 22 34.8954 22 36C22 37.1046 21.1046 38 20 38C18.8954 38 18 37.1046 18 36Z" fill="#18202A"/>
<path d="M26 28C26 26.8954 26.8954 26 28 26C29.1046 26 30 26.8954 30 28C30 29.1046 29.1046 30 28 30C26.8954 30 26 29.1046 26 28Z" fill="#18202A"/>
<path d="M26 36C26 34.8954 26.8954 34 28 34C29.1046 34 30 34.8954 30 36C30 37.1046 29.1046 38 28 38C26.8954 38 26 37.1046 26 36Z" fill="#18202A"/>
<path d="M34 28C34 26.8954 34.8954 26 36 26C37.1046 26 38 26.8954 38 28C38 29.1046 37.1046 30 36 30C34.8954 30 34 29.1046 34 28Z" fill="#18202A"/>
<path d="M34 36C34 34.8954 34.8954 34 36 34C37.1046 34 38 34.8954 38 36C38 37.1046 37.1046 38 36 38C34.8954 38 34 37.1046 34 36Z" fill="#18202A"/>
</svg>
