<svg width="48" height="48" viewBox="0 0 48 48" fill="none" xmlns="http://www.w3.org/2000/svg">
<path d="M24 2C21.7909 2 20 3.79086 20 6V12H28V6C28 3.79086 26.2091 2 24 2Z" fill="#18202A"/>
<path fill-rule="evenodd" clip-rule="evenodd" d="M20 16C17.7909 16 16 14.2091 16 12V8H10C5.58172 8 2 11.5817 2 16V36C2 40.4183 5.58172 44 10 44H38C42.4183 44 46 40.4183 46 36V16C46 11.5817 42.4183 8 38 8H32V12C32 14.2091 30.2091 16 28 16H20ZM16 28C18.2091 28 20 26.2091 20 24C20 21.7909 18.2091 20 16 20C13.7909 20 12 21.7909 12 24C12 26.2091 13.7909 28 16 28ZM14.5 30C12.0147 30 10 32.0147 10 34.5C10 35.3284 10.6716 36 11.5 36H20.5C21.3284 36 22 35.3284 22 34.5C22 32.0147 19.9853 30 17.5 30H14.5ZM28 24C28 22.8954 28.8954 22 30 22H38C39.1046 22 40 22.8954 40 24C40 25.1046 39.1046 26 38 26H30C28.8954 26 28 25.1046 28 24ZM30 30C28.8954 30 28 30.8954 28 32C28 33.1046 28.8954 34 30 34H38C39.1046 34 40 33.1046 40 32C40 30.8954 39.1046 30 38 30H30Z" fill="#18202A"/>
</svg>
