<svg width="48" height="48" viewBox="0 0 48 48" fill="none" xmlns="http://www.w3.org/2000/svg">
<path fill-rule="evenodd" clip-rule="evenodd" d="M42.828 9.51515L38.484 5.17115C37.7339 4.42126 36.7167 4 35.656 4C34.5954 4 33.5781 4.42126 32.828 5.17115L6.00003 31.9991L4.60707 41.1129C4.40316 42.4471 5.55212 43.596 6.88629 43.3921L16 41.9991L42.828 15.1711C43.5779 14.421 43.9992 13.4038 43.9992 12.3431C43.9992 11.2825 43.5779 10.2653 42.828 9.51515ZM37.9389 15.8176L40.7064 13.0501C40.8937 12.8626 40.9992 12.6082 40.9992 12.3431C40.9992 12.0781 39.1873 10.1875 39 10L36.3627 7.29247C36.1752 7.1052 35.921 7 35.656 7C35.391 7 35.1365 7.10552 34.949 7.29279L32.1816 10.0602L37.9389 15.8176ZM35.8176 17.9389L30.0603 12.1816L8.81696 33.4249L7.77824 40.2209L14.5743 39.1822L35.8176 17.9389Z" fill="#18202A"/>
</svg>
