<svg width="48" height="48" viewBox="0 0 48 48" fill="none" xmlns="http://www.w3.org/2000/svg">
<path fill-rule="evenodd" clip-rule="evenodd" d="M39.0001 21.5C39.0001 20.6716 39.6717 20 40.5001 20C41.3285 20 42.0001 20.6716 42.0001 21.5V38C42.0001 42.4183 38.4184 46 34.0001 46H14.0001C9.58184 46 6.00012 42.4183 6.00012 38V10C6.00012 5.58172 9.58184 2 14.0001 2H32.5001C33.3285 2 34.0001 2.67157 34.0001 3.5C34.0001 4.32843 33.3285 5 32.5001 5L14.0001 5C11.2387 5 9.00012 7.23858 9.00012 10L9.00012 38C9.00012 40.7614 11.2387 43 14.0001 43H34.0001C36.7615 43 39.0001 40.7614 39.0001 38V21.5ZM15.5 26C14.6716 26 14 26.6716 14 27.5C14 28.3284 14.6716 29 15.5 29H24.5C25.3284 29 26 28.3284 26 27.5C26 26.6716 25.3284 26 24.5 26H15.5ZM14 35.5C14 34.6716 14.6716 34 15.5 34H32.5C33.3284 34 34 34.6716 34 35.5C34 36.3284 33.3284 37 32.5 37H15.5C14.6716 37 14 36.3284 14 35.5ZM43.0607 9.06066C43.6465 8.47487 43.6465 7.52512 43.0607 6.93934C42.4749 6.35355 41.5251 6.35355 40.9394 6.93934L29.9894 17.8893L25.3357 13.3287C24.744 12.7488 23.7943 12.7584 23.2144 13.3501C22.6346 13.9418 22.6442 14.8915 23.2359 15.4713L28.9502 21.0713C29.5376 21.647 30.4791 21.6423 31.0607 21.0607L43.0607 9.06066Z" fill="#18202A"/>
</svg>
