<svg width="48" height="48" viewBox="0 0 48 48" fill="none" xmlns="http://www.w3.org/2000/svg">
<g clip-path="url(#clip0_2294_11115)">
<path d="M20.6908 0.742057C23.0888 0.389975 25.4867 0.421982 27.8847 0.838078C30.2826 1.25417 32.5527 2.00635 34.6949 3.0946C35.0466 3.28664 35.2864 3.59071 35.4143 4.0068C35.5422 4.39089 35.5102 4.75898 35.3184 5.11106C35.1265 5.46314 34.8388 5.7192 34.4551 5.87924C34.0714 6.00727 33.6878 5.97526 33.3041 5.78321C31.4497 4.82299 29.4673 4.16684 27.3571 3.81476C25.2789 3.46268 23.1847 3.44668 21.0745 3.76675C18.9963 4.05482 16.998 4.66296 15.0796 5.59117C13.1932 6.48737 11.4827 7.65564 9.94796 9.09597C9.6602 9.38404 9.3085 9.52807 8.89286 9.52807C8.47721 9.49607 8.12551 9.33603 7.83775 9.04797C7.55 8.7599 7.40612 8.40782 7.40612 7.99172C7.43809 7.57562 7.59796 7.22354 7.88571 6.93548C9.64422 5.2711 11.6105 3.91078 13.7847 2.85454C15.9588 1.7983 18.2609 1.09414 20.6908 0.742057ZM6.59082 10.5363C6.94252 10.7924 7.15034 11.1284 7.21429 11.5445C7.27823 11.9286 7.1983 12.2807 6.97449 12.6008C5.47177 14.9053 4.44864 17.3859 3.9051 20.0425C3.36156 22.6991 3.36156 25.3717 3.9051 28.0603C4.00102 28.4764 3.93707 28.8605 3.71327 29.2126C3.48946 29.5647 3.16973 29.7727 2.75408 29.8367C2.33844 29.9008 1.95476 29.8367 1.60306 29.6447C1.28333 29.4206 1.07551 29.1006 0.979592 28.6845C0.340136 25.5798 0.340136 22.5071 0.979592 19.4664C1.61905 16.2976 2.78605 13.449 4.48061 10.9204C4.73639 10.5683 5.05612 10.3603 5.4398 10.2963C5.85544 10.2322 6.23912 10.3123 6.59082 10.5363ZM38.9633 5.92725C38.6435 5.67119 38.2758 5.55916 37.8602 5.59117C37.4446 5.62318 37.1088 5.79922 36.8531 6.11929C36.5973 6.43936 36.4854 6.80745 36.5173 7.22355C36.5493 7.63964 36.7252 7.97572 37.0449 8.23178C38.8354 9.73612 40.3381 11.4965 41.5531 13.513C42.768 15.5295 43.5993 17.6899 44.0469 19.9945L44.1429 20.1865C44.3986 21.7229 44.5105 23.1472 44.4786 24.4595C44.4786 24.8756 44.6224 25.2277 44.9102 25.5157C45.198 25.8038 45.5497 25.9639 45.9653 25.9959C46.381 25.9959 46.7327 25.8518 47.0204 25.5638C47.3082 25.2757 47.468 24.9236 47.5 24.5075C47.5 22.6831 47.3401 20.9707 47.0204 19.3703L46.9724 19.1783C46.4289 16.5537 45.4697 14.1211 44.0949 11.8806C42.7201 9.60809 41.0095 7.62364 38.9633 5.92725ZM25.4867 23.7393C25.3908 23.3232 25.167 23.0032 24.8153 22.7791C24.4956 22.5551 24.1279 22.475 23.7122 22.5391C23.2966 22.6031 22.9769 22.8111 22.7531 23.1632C22.5293 23.5153 22.4493 23.8994 22.5133 24.3155C23.2486 27.8683 23.1527 31.4051 22.2255 34.9259C21.2344 38.5107 19.5558 41.6315 17.1898 44.2881C16.934 44.6081 16.8061 44.9762 16.8061 45.3923C16.8381 45.8084 17.0139 46.1445 17.3337 46.4006C17.6534 46.6886 18.0211 46.8166 18.4367 46.7846C18.8524 46.7526 19.1881 46.5766 19.4439 46.2565C22.1296 43.2158 24.016 39.695 25.1031 35.6941C26.1582 31.8212 26.2861 27.8363 25.4867 23.7393ZM22.6092 17.1618C23.6003 16.9378 24.5116 16.9218 25.3429 17.1138C26.2701 17.2418 27.1173 17.5779 27.8847 18.122C28.684 18.6342 29.3395 19.2903 29.851 20.0905C30.3626 20.8587 30.6983 21.7069 30.8582 22.6351C31.4656 25.1637 31.6575 27.8843 31.4337 30.797C31.2099 33.6456 30.6184 36.4783 29.6592 39.2949C28.7 42.0796 27.4531 44.6081 25.9184 46.8807C25.6946 47.2007 25.3748 47.3928 24.9592 47.4568C24.5755 47.5528 24.2078 47.4888 23.8561 47.2647C23.5044 47.0407 23.2966 46.7206 23.2327 46.3045C23.1687 45.8884 23.2486 45.5043 23.4724 45.1523C24.8793 43.1038 26.0143 40.8153 26.8776 38.2867C27.7408 35.7261 28.2684 33.1655 28.4602 30.6049C28.652 27.9483 28.4762 25.5157 27.9327 23.3072V23.1632C27.8367 22.6191 27.6449 22.139 27.3571 21.7229C27.0694 21.2748 26.7017 20.9067 26.2541 20.6186C25.8384 20.3306 25.3429 20.1385 24.7673 20.0425C24.2238 19.9465 23.7122 19.9625 23.2327 20.0905H23.1847C22.6731 20.1865 22.1935 20.3786 21.7459 20.6666C21.2983 20.9547 20.9306 21.3228 20.6429 21.7709C20.3551 22.187 20.1633 22.6671 20.0673 23.2112C19.9714 23.7233 19.9714 24.2515 20.0673 24.7956C20.8027 28.3804 20.6109 31.8692 19.4918 35.262C18.3408 38.7828 16.4864 41.7275 13.9286 44.096C13.6088 44.3841 13.2412 44.5121 12.8255 44.4801C12.4099 44.4801 12.0741 44.3361 11.8184 44.048C11.5626 43.7599 11.4347 43.3919 11.4347 42.9438C11.4347 42.5277 11.5786 42.1756 11.8663 41.8875C14.0724 39.807 15.6551 37.2945 16.6143 34.3498C17.5735 31.3731 17.7493 28.3964 17.1418 25.4197C16.95 24.5555 16.934 23.6433 17.0939 22.6831C17.2857 21.7229 17.6374 20.8747 18.149 20.1385C18.7245 19.3063 19.3639 18.6502 20.0673 18.1701C20.9306 17.6259 21.7779 17.2899 22.6092 17.1618ZM14.9837 27.9163C14.9517 27.5002 14.7759 27.1641 14.4561 26.9081C14.1684 26.62 13.8167 26.492 13.401 26.524C12.9854 26.556 12.6337 26.732 12.3459 27.0521C12.0582 27.3402 11.9303 27.6922 11.9622 28.1083C12.0901 30.0608 11.7704 31.9652 11.0031 33.8217C10.2357 35.6461 9.06871 37.1824 7.50204 38.4307C7.18231 38.6868 7.00646 39.0229 6.97449 39.439C6.94252 39.855 7.05442 40.2231 7.3102 40.5432C7.56599 40.8633 7.88571 41.0393 8.26939 41.0713C8.68503 41.1033 9.06871 40.9913 9.42041 40.7352C11.3068 39.1669 12.7456 37.2625 13.7367 35.0219C14.7279 32.7814 15.1435 30.4129 14.9837 27.9163ZM23.3286 11.5445C24.8313 11.4805 26.2861 11.6726 27.6929 12.1207C29.1316 12.5368 30.4425 13.2089 31.6255 14.1371C32.8405 15.0653 33.8316 16.1696 34.599 17.4499C35.3983 18.6982 35.9418 20.0585 36.2296 21.5308C36.5493 23.1952 36.7571 24.6515 36.8531 25.8998C36.885 26.3159 36.7731 26.684 36.5173 27.0041C36.2616 27.3242 35.9258 27.5002 35.5102 27.5322C35.0946 27.5642 34.7269 27.4522 34.4071 27.1961C34.0874 26.9081 33.9116 26.556 33.8796 26.1399C33.6878 24.3475 33.4959 23.0192 33.3041 22.155C33.0803 21.0347 32.6646 19.9945 32.0571 19.0343C31.4816 18.074 30.7303 17.2418 29.8031 16.5377C28.8758 15.8335 27.8687 15.3214 26.7816 15.0013C25.7265 14.6493 24.6235 14.5052 23.4724 14.5692C22.3534 14.6012 21.2663 14.8413 20.2112 15.2894C19.1561 15.7375 18.2129 16.3616 17.3816 17.1618C16.5823 17.962 15.9269 18.8742 15.4153 19.8985C14.9357 20.9227 14.648 21.9949 14.552 23.1152C14.4881 23.5313 14.2963 23.8674 13.9765 24.1234C13.6888 24.3795 13.3371 24.4915 12.9214 24.4595C12.5058 24.3955 12.1701 24.2195 11.9143 23.9314C11.6585 23.6113 11.5466 23.2432 11.5786 22.8271C11.7065 21.3548 12.0901 19.9465 12.7296 18.6022C13.401 17.2579 14.2803 16.0736 15.3673 15.0493C16.4544 13.9931 17.6854 13.1609 19.0602 12.5528C20.435 11.9446 21.8578 11.6086 23.3286 11.5445ZM36.901 31.085C36.933 30.6689 36.8051 30.3169 36.5173 30.0288C36.2616 29.7087 35.9258 29.5327 35.5102 29.5007C35.0946 29.4687 34.7269 29.5967 34.4071 29.8848C34.1194 30.1728 33.9595 30.5249 33.9275 30.941C33.6398 35.518 32.5048 39.839 30.5224 43.904C30.3626 44.2881 30.3466 44.6721 30.4745 45.0562C30.6024 45.4403 30.8422 45.7124 31.1939 45.8724C31.5776 46.0645 31.9612 46.0965 32.3449 45.9685C32.7605 45.8404 33.0483 45.5844 33.2082 45.2003C35.3823 40.8153 36.6133 36.1102 36.901 31.085ZM20.4031 7.84769C20.531 8.26378 20.499 8.64787 20.3071 8.99995C20.1153 9.35203 19.8276 9.59209 19.4439 9.72012C17.6854 10.2963 16.0867 11.1605 14.648 12.3127C13.2092 13.465 12.0262 14.8413 11.099 16.4417C10.1718 18.01 9.5483 19.6904 9.22857 21.4828C8.90884 23.2752 8.92483 25.0676 9.27653 26.8601L9.32449 27.0041C9.67619 28.7645 9.56429 30.4929 8.98878 32.1893C8.41327 33.8537 7.4381 35.246 6.06326 36.3662C5.74354 36.6223 5.37585 36.7503 4.9602 36.7503C4.54456 36.7183 4.20884 36.5423 3.95306 36.2222C3.69728 35.9021 3.56939 35.5341 3.56939 35.118C3.60136 34.7019 3.77721 34.3498 4.09694 34.0617C5.02415 33.3255 5.71156 32.3493 6.15918 31.133C6.51088 29.9808 6.59082 28.8445 6.39898 27.7243C6.39898 27.6602 6.38299 27.6122 6.35102 27.5802C5.9034 25.4037 5.87143 23.2272 6.2551 21.0507C6.63878 18.8742 7.39014 16.8258 8.50918 14.9053C9.62823 12.9849 11.051 11.3365 12.7775 9.96017C14.5041 8.58386 16.4224 7.55962 18.5327 6.88747C18.9163 6.75944 19.284 6.79145 19.6357 6.98349C20.0194 7.17553 20.2752 7.4636 20.4031 7.84769ZM24 6.50338C23.5844 6.50338 23.2327 6.64741 22.9449 6.93548C22.6571 7.22354 22.5133 7.57562 22.5133 7.99172C22.5133 8.40782 22.6571 8.7759 22.9449 9.09597C23.2327 9.38404 23.5844 9.52807 24 9.52807C25.7265 9.52807 27.4051 9.81614 29.0357 10.3923C30.6663 10.9684 32.1531 11.8006 33.4959 12.8888C34.8388 13.9771 35.9418 15.2734 36.8051 16.7777C37.7003 18.2501 38.3238 19.8344 38.6755 21.5308V21.5788C39.283 24.5875 39.5388 27.6122 39.4429 30.6529C39.3789 33.6936 38.9473 36.6863 38.148 39.631C38.0201 40.0471 38.052 40.4312 38.2439 40.7833C38.4677 41.1353 38.7874 41.3594 39.2031 41.4554C39.6187 41.5834 40.0024 41.5354 40.3541 41.3114C40.7058 41.1193 40.9296 40.8153 41.0255 40.3992C41.8568 37.1984 42.3204 33.9657 42.4163 30.7009C42.5442 27.4042 42.2724 24.1554 41.601 20.9547C41.1854 18.9062 40.434 17.0018 39.3469 15.2414C38.2918 13.449 36.965 11.8966 35.3663 10.5843C33.7997 9.27202 32.0252 8.26378 30.0429 7.55962C28.0925 6.85546 26.0782 6.50338 24 6.50338Z" fill="#18202A"/>
</g>
<defs>
<clipPath id="clip0_2294_11115">
<rect width="48" height="48" fill="white"/>
</clipPath>
</defs>
</svg>
