<svg width="48" height="48" viewBox="0 0 48 48" fill="none" xmlns="http://www.w3.org/2000/svg">
<path fill-rule="evenodd" clip-rule="evenodd" d="M10 8C6.68629 8 4 10.6863 4 14V32C4 35.3137 6.68629 38 10 38H22V40H18C16.8954 40 16 40.8954 16 42C16 43.1046 16.8954 44 18 44H30C31.1046 44 32 43.1046 32 42C32 40.8954 31.1046 40 30 40H26V38H38C41.3137 38 44 35.3137 44 32V14C44 10.6863 41.3137 8 38 8H10ZM40 14C40 12.8954 39.1046 12 38 12H10C8.89543 12 8 12.8954 8 14V26H40V14ZM38 34C39.1046 34 40 33.1046 40 32V30H8V32C8 33.1046 8.89543 34 10 34H38Z" fill="#18202A"/>
</svg>
