<svg width="48" height="48" viewBox="0 0 48 48" fill="none" xmlns="http://www.w3.org/2000/svg">
<path fill-rule="evenodd" clip-rule="evenodd" d="M31.4142 13.4142C30.6332 14.1953 29.3668 14.1953 28.5858 13.4142L24 8.82843L19.4142 13.4142C18.6332 14.1953 17.3668 14.1953 16.5858 13.4142C15.8047 12.6332 15.8047 11.3668 16.5858 10.5858L22.5858 4.58579C23.3668 3.80474 24.6332 3.80474 25.4142 4.58579L31.4142 10.5858C32.1953 11.3668 32.1953 12.6332 31.4142 13.4142ZM4 18C2.89543 18 2 18.8954 2 20C2 21.1046 2.89543 22 4 22H44C45.1046 22 46 21.1046 46 20C46 18.8954 45.1046 18 44 18H4ZM4 26C2.89543 26 2 26.8954 2 28C2 29.1046 2.89543 30 4 30H44C45.1046 30 46 29.1046 46 28C46 26.8954 45.1046 26 44 26H4ZM31.4142 37.4142C32.1953 36.6332 32.1953 35.3668 31.4142 34.5858C30.6332 33.8047 29.3668 33.8047 28.5858 34.5858L24 39.1716L19.4142 34.5858C18.6332 33.8047 17.3668 33.8047 16.5858 34.5858C15.8047 35.3668 15.8047 36.6332 16.5858 37.4142L22.5858 43.4142C23.3668 44.1953 24.6332 44.1953 25.4142 43.4142L31.4142 37.4142Z" fill="#18202A"/>
</svg>
