<svg width="48" height="48" viewBox="0 0 48 48" fill="none" xmlns="http://www.w3.org/2000/svg">
<path fill-rule="evenodd" clip-rule="evenodd" d="M8 6C3.58172 6 0 9.58172 0 14V34C0 38.4183 3.58172 42 8 42H28C32.4183 42 36 38.4183 36 34V14C36 9.58172 32.4183 6 28 6H8ZM15.9384 17.477L22.885 22.3628C24.0179 23.1596 24.0175 24.8389 22.8842 25.6352L15.9375 30.5156C14.6123 31.4467 12.7878 30.4988 12.7878 28.8792L12.7878 19.1129C12.7878 17.4928 14.6132 16.5449 15.9384 17.477Z" fill="#18202A"/>
<path d="M38.8314 16.6014C38.3094 16.9772 38 17.5812 38 18.2245V29.7755C38 30.4188 38.3094 31.0228 38.8314 31.3986L44.8314 35.7186C46.1544 36.6711 48 35.7257 48 34.0955V13.9045C48 12.2743 46.1544 11.3289 44.8314 12.2814L38.8314 16.6014Z" fill="#18202A"/>
</svg>
