<svg width="48" height="48" viewBox="0 0 48 48" fill="none" xmlns="http://www.w3.org/2000/svg">
<path fill-rule="evenodd" clip-rule="evenodd" d="M34 7H12C8.13401 7 5 10.134 5 14V32C5 35.866 8.13401 39 12 39H21.5C22.3284 39 23 39.6716 23 40.5C23 41.3284 22.3284 42 21.5 42H12C6.47715 42 2 37.5228 2 32V14C2 8.47715 6.47715 4 12 4H34C39.5228 4 44 8.47715 44 14V19.5C44 20.3284 43.3284 21 42.5 21C41.6716 21 41 20.3284 41 19.5V14C41 10.134 37.866 7 34 7ZM32 27H40C41.6569 27 43 28.3431 43 30V38C43 39.6569 41.6569 41 40 41H32C30.3431 41 29 39.6569 29 38V30C29 28.3431 30.3431 27 32 27ZM26 30C26 26.6863 28.6863 24 32 24H40C43.3137 24 46 26.6863 46 30V38C46 41.3137 43.3137 44 40 44H32C28.6863 44 26 41.3137 26 38V30Z" fill="#18202A"/>
</svg>
