<svg width="48" height="48" viewBox="0 0 48 48" fill="none" xmlns="http://www.w3.org/2000/svg">
<g clip-path="url(#clip0_2294_11029)">
<path fill-rule="evenodd" clip-rule="evenodd" d="M48 24C48 25.7146 47.8202 27.3872 47.4784 29H45.4293C43.5385 37.1349 37.135 43.5384 29 45.429V42.3349C35.4744 40.5735 40.5736 35.4744 42.3352 29H34.9118C33.7143 31.6088 31.6088 33.7142 29 34.9116V31.4843C27.5699 32.4415 25.8501 32.9998 24 32.9998C22.1499 32.9998 20.4301 32.4415 19 31.4843L19 31.4844C19.2802 31.672 19.5715 31.8443 19.8728 32C20.5378 32.3438 21.2512 32.6071 22 32.777C22.6432 32.9229 23.3126 33 24 33C24.6874 33 25.3568 32.9229 26 32.777C26.7488 32.6071 27.4622 32.3438 28.1272 32C28.4285 31.8443 28.7198 31.672 29 31.4845V47.4784C27.3872 47.8202 25.7146 48 24 48C22.2854 48 20.6128 47.8202 19 47.4784L19 45.429C10.865 43.5384 4.46149 37.1349 2.57076 29H0.521577C0.179801 27.3872 0 25.7146 0 24C0 22.2854 0.179801 20.6128 0.521577 19H16.5155C16.328 19.2802 16.1557 19.5715 16 19.8728C15.6562 20.5378 15.3929 21.2512 15.223 22C15.0771 22.6432 15 23.3126 15 24C15 24.6874 15.0771 25.3568 15.223 26C15.3929 26.7488 15.6562 27.4622 16 28.1272C16.1557 28.4284 16.3279 28.7197 16.5154 28.9998H16.5156C15.764 27.8771 15.2584 26.5757 15.0758 25.173C15.6507 29.5891 19.4271 32.9996 24 32.9996C28.1447 32.9996 31.6351 30.1979 32.6805 26.385C32.4221 27.3274 32.0145 28.208 31.4845 28.9998H31.4846C31.6721 28.7197 31.8443 28.4284 32 28.1272C32.3438 27.4622 32.6071 26.7488 32.777 26C32.8044 25.8794 32.8293 25.7579 32.8518 25.6355C32.8742 25.5131 32.8942 25.3898 32.9117 25.2658C32.9242 25.177 32.9354 25.0879 32.9452 24.9983C32.9814 24.6705 33 24.3374 33 24C33 23.3126 32.9229 22.6432 32.777 22C32.6071 21.2512 32.3438 20.5378 32 19.8728C31.8443 19.5715 31.672 19.2802 31.4845 19H47.4784C47.8202 20.6128 48 22.2854 48 24ZM13.0883 29H5.66487C7.4264 35.4744 12.5256 40.5735 19 42.3349V34.9116C16.3912 33.7142 14.2857 31.6088 13.0883 29ZM44.9062 26H35.8336C35.9431 25.3491 36 24.6809 36 24C36 23.3191 35.9431 22.6509 35.8336 22H44.9062C44.9682 22.6577 45 23.3248 45 24C45 24.6752 44.9682 25.3423 44.9062 26ZM24 0C25.7146 0 27.3872 0.179801 29 0.521577V16.5155C28.7198 16.328 28.4285 16.1557 28.1272 16C27.4622 15.6562 26.7488 15.3929 26 15.223C25.3568 15.0771 24.6874 15 24 15C23.3126 15 22.6432 15.0771 22 15.223C21.2512 15.3929 20.5378 15.6562 19.8728 16C19.5715 16.1557 19.2802 16.328 19 16.5155L19 16.5152C18.0181 17.1725 17.1727 18.0179 16.5154 18.9998H13.088C14.2854 16.3908 16.391 14.2852 19 13.0877V5.66441C12.5254 7.42587 7.42612 12.5252 5.66472 18.9998H2.57064C4.46121 10.8646 10.8648 4.46096 19 2.57031L19 0.521577C20.6128 0.179801 22.2854 0 24 0ZM26 3.09379V12.1664C25.3491 12.0569 24.6809 12 24 12C23.3191 12 22.6509 12.0569 22 12.1664V3.09379C22.6577 3.03177 23.3248 3 24 3C24.6752 3 25.3423 3.03177 26 3.09379ZM3.09379 22H12.1664C12.0569 22.6509 12 23.3191 12 24C12 24.6809 12.0569 25.3491 12.1664 26H3.09379C3.03177 25.3423 3 24.6752 3 24C3 23.3248 3.03177 22.6577 3.09379 22ZM22 44.9062V35.8336C22.6509 35.9431 23.3191 36 24 36C24.6809 36 25.3491 35.9431 26 35.8336V44.9062C25.3423 44.9682 24.6752 45 24 45C23.3248 45 22.6577 44.9682 22 44.9062ZM34.912 18.9998H31.4846C30.8273 18.0179 29.9819 17.1725 29 16.5152V13.0877C31.609 14.2852 33.7146 16.3908 34.912 18.9998ZM29 5.6644C35.4746 7.42586 40.5739 12.5252 42.3353 18.9998H45.4294C43.5388 10.8646 37.1352 4.46095 29 2.57031V5.6644Z" fill="#18202A"/>
</g>
<defs>
<clipPath id="clip0_2294_11029">
<rect width="48" height="48" fill="white"/>
</clipPath>
</defs>
</svg>
