<svg width="48" height="48" viewBox="0 0 48 48" fill="none" xmlns="http://www.w3.org/2000/svg">
<g clip-path="url(#clip0_2294_8246)">
<path fill-rule="evenodd" clip-rule="evenodd" d="M22 2H14C9.58172 2 6 5.58172 6 10V38C6 42.4183 9.58172 46 14 46H22.5241C20.8922 43.6626 20 40.865 20 37.9753C20 34.512 21.282 31.1735 23.6665 28.5242L24.1052 28.0636L30.1688 22H26H22V18V2ZM41.6407 18H38.8668H26V2.35928C26.4319 2.55585 26.8295 2.82954 27.1716 3.17157L40.8284 16.8284C41.1705 17.1705 41.4442 17.5681 41.6407 18ZM41.7979 22.5595C40.9068 22.1901 39.9515 22 38.9868 22C38.0221 22 37.0669 22.1901 36.1757 22.5595C35.2845 22.9288 34.4749 23.4702 33.793 24.1527L27.0536 30.8921L26.689 31.2766C25.0392 33.1111 24.12 35.4958 24.12 37.9753C24.12 40.6319 25.1752 43.1796 27.0535 45.0583C28.9324 46.9369 31.4802 47.9922 34.1368 47.9922C36.7934 47.9922 39.3413 46.9369 41.2199 45.0585L47.42 38.8585L47.5864 38.6701C48.1964 37.8855 48.141 36.751 47.42 36.0301C46.639 35.249 45.3726 35.249 44.5916 36.0301L38.3916 42.23L38.1013 42.5017C37.0076 43.4595 35.5997 43.9922 34.1368 43.9922C32.541 43.9922 31.0105 43.3583 29.8819 42.2299C28.7538 41.1016 28.12 39.5711 28.12 37.9753C28.12 36.3794 28.7539 34.8489 29.8822 33.7204L36.622 26.9805L36.8658 26.7594C37.1196 26.5509 37.403 26.3808 37.7072 26.2547C38.1129 26.0865 38.5477 26 38.9868 26C39.426 26 39.8608 26.0865 40.2664 26.2547C40.6721 26.4228 41.0406 26.6692 41.351 26.9799C41.9782 27.6074 42.3304 28.4582 42.3304 29.3453C42.3304 30.2324 41.9782 31.0831 41.3512 31.7105L35.1516 37.9101L35.0494 37.9942L34.9334 38.0563C34.8521 38.09 34.7649 38.1073 34.6768 38.1073C34.5888 38.1073 34.5016 38.09 34.4202 38.0562C34.3389 38.0225 34.265 37.9731 34.2028 37.9109C34.139 37.8471 34.0896 37.7732 34.0559 37.6919C34.0221 37.6105 34.0048 37.5233 34.0048 37.4353C34.0048 37.3472 34.0221 37.26 34.0558 37.1787C34.0896 37.0974 34.139 37.0235 34.2013 36.9613L38.7904 32.3702L38.9567 32.1817C39.5666 31.397 39.5109 30.2626 38.7897 29.5418C38.0085 28.7609 36.7422 28.7612 35.9613 29.5424L31.3733 34.1324L31.1243 34.4016C30.8068 34.7731 30.5487 35.1934 30.3607 35.647C30.1257 36.2139 30.0048 36.8216 30.0048 37.4353C30.0048 38.049 30.1257 38.6567 30.3607 39.2236C30.5957 39.7905 30.9402 40.3055 31.3744 40.7392C31.8065 41.1719 32.3216 41.5163 32.8885 41.7513C33.4555 41.9864 34.0631 42.1073 34.6768 42.1073C35.2905 42.1073 35.8982 41.9864 36.4651 41.7514C37.0321 41.5163 37.5471 41.1719 37.9808 40.7378L44.18 34.5385L44.487 34.212C45.6715 32.8727 46.3304 31.143 46.3304 29.3453C46.3304 27.3978 45.5571 25.53 44.1805 24.1525C43.4988 23.4702 42.6891 22.9288 41.7979 22.5595Z" fill="#18202A"/>
</g>
<defs>
<clipPath id="clip0_2294_8246">
<rect width="48" height="48" fill="white"/>
</clipPath>
</defs>
</svg>
