<svg width="48" height="48" viewBox="0 0 48 48" fill="none" xmlns="http://www.w3.org/2000/svg">
<path fill-rule="evenodd" clip-rule="evenodd" d="M20.0607 12.0607C20.6464 11.4749 20.6464 10.5251 20.0607 9.93934C19.4749 9.35355 18.5251 9.35355 17.9393 9.93934L4.93934 22.9393C4.35355 23.5251 4.35355 24.4749 4.93934 25.0607L17.9393 38.0607C18.5251 38.6464 19.4749 38.6464 20.0607 38.0607C20.6464 37.4749 20.6464 36.5251 20.0607 35.9393L8.12132 24L20.0607 12.0607ZM27.9393 12.0607C27.3536 11.4749 27.3536 10.5251 27.9393 9.93934C28.5251 9.35355 29.4749 9.35355 30.0607 9.93934L43.0607 22.9393C43.6464 23.5251 43.6464 24.4749 43.0607 25.0607L30.0607 38.0607C29.4749 38.6464 28.5251 38.6464 27.9393 38.0607C27.3536 37.4749 27.3536 36.5251 27.9393 35.9393L39.8787 24L27.9393 12.0607Z" fill="#18202A"/>
</svg>
