<svg width="48" height="48" viewBox="0 0 48 48" fill="none" xmlns="http://www.w3.org/2000/svg">
<path fill-rule="evenodd" clip-rule="evenodd" d="M2 10C2 6.68629 4.68629 4 8 4H34C36.6124 4 38.8349 5.66962 39.6586 8H8V10H38C42.4183 10 46 13.5817 46 18V36C46 40.4183 42.4183 44 38 44H10C5.58172 44 2 40.4183 2 36V10ZM28 22C25.7909 22 24 23.7909 24 26V30C24 32.2091 25.7909 34 28 34H42V22H28Z" fill="#18202A"/>
<path d="M32 28C32 29.1046 31.1046 30 30 30C28.8954 30 28 29.1046 28 28C28 26.8954 28.8954 26 30 26C31.1046 26 32 26.8954 32 28Z" fill="#18202A"/>
</svg>
