<svg width="48" height="48" viewBox="0 0 48 48" fill="none" xmlns="http://www.w3.org/2000/svg">
<path d="M14 5.50003C14 4.90766 13.6514 4.37078 13.1103 4.12978C12.5691 3.88878 11.9369 3.98881 11.4966 4.38509L6.49657 8.88509C5.8808 9.43927 5.83088 10.3877 6.38507 11.0035C6.93926 11.6192 7.88769 11.6692 8.50346 11.115L11 8.86807V18.5002C11 19.3287 11.6716 20.0002 12.5 20.0002C13.3284 20.0002 14 19.3287 14 18.5002V5.50003Z" fill="#18202A"/>
<path d="M9.00004 29C9.00004 28.4486 9.70294 27 12 27C14.2971 27 15 28.4486 15 29C15 30.7814 14.0254 31.8533 11.9394 33.9393L6.43938 39.4393C6.01039 39.8683 5.88205 40.5135 6.11422 41.074C6.3464 41.6345 6.89335 42 7.50004 42H16.5C17.3285 42 18 41.3284 18 40.5C18 39.6716 17.3285 39 16.5 39H11.1214L14.2244 35.8971C16.0884 34.0358 18 32.1269 18 29C18 26.5514 15.7029 24 12 24C8.29715 24 6.00004 26.5514 6.00004 29C6.00004 29.8284 6.67162 30.5 7.50004 30.5C8.32847 30.5 9.00004 29.8284 9.00004 29Z" fill="#18202A"/>
<path d="M22 9.5C22 8.67157 22.6716 8 23.5 8H42.5C43.3284 8 44 8.67157 44 9.5C44 10.3284 43.3284 11 42.5 11H23.5C22.6716 11 22 10.3284 22 9.5Z" fill="#18202A"/>
<path d="M23.5 15C22.6716 15 22 15.6716 22 16.5C22 17.3284 22.6716 18 23.5 18H42.5C43.3284 18 44 17.3284 44 16.5C44 15.6716 43.3284 15 42.5 15H23.5Z" fill="#18202A"/>
<path d="M22 31.5C22 30.6716 22.6716 30 23.5 30H42.5C43.3284 30 44 30.6716 44 31.5C44 32.3284 43.3284 33 42.5 33H23.5C22.6716 33 22 32.3284 22 31.5Z" fill="#18202A"/>
<path d="M23.5 37C22.6716 37 22 37.6716 22 38.5C22 39.3284 22.6716 40 23.5 40H42.5C43.3284 40 44 39.3284 44 38.5C44 37.6716 43.3284 37 42.5 37H23.5Z" fill="#18202A"/>
</svg>
