<svg width="48" height="48" viewBox="0 0 48 48" fill="none" xmlns="http://www.w3.org/2000/svg">
<path fill-rule="evenodd" clip-rule="evenodd" d="M34 45C40.0751 45 45 40.0751 45 34C45 27.9249 40.0751 23 34 23C27.9249 23 23 27.9249 23 34C23 40.0751 27.9249 45 34 45ZM34 48C41.732 48 48 41.732 48 34C48 26.268 41.732 20 34 20C26.268 20 20 26.268 20 34C20 41.732 26.268 48 34 48Z" fill="#18202A"/>
<path fill-rule="evenodd" clip-rule="evenodd" d="M2 12C2 10.7911 2.73637 9.87819 3.51456 9.2649C4.30966 8.63829 5.36724 8.13959 6.54038 7.74855C8.90233 6.96123 12.0699 6.5 15.5 6.5C18.9301 6.5 22.0977 6.96123 24.4596 7.74855C25.6328 8.13959 26.6903 8.63829 27.4854 9.2649C28.2636 9.87819 29 10.7911 29 12V20.9193C27.9309 21.3282 26.9247 21.8644 26 22.5094V21.6371C25.521 21.8663 25.0027 22.0704 24.4596 22.2515C22.0977 23.0388 18.9301 23.5 15.5 23.5C12.0699 23.5 8.90233 23.0388 6.54038 22.2515C5.99729 22.0704 5.47898 21.8663 5 21.6371V23.9772C5.01461 24.0156 5.08507 24.1531 5.37148 24.3789C5.79084 24.7094 6.49063 25.0726 7.48906 25.4054C9.47025 26.0658 12.3026 26.5 15.5 26.5C18.3214 26.5 20.8586 26.1619 22.7775 25.6287C21.992 26.68 21.3507 27.8455 20.8831 29.0957C19.232 29.3575 17.4065 29.5 15.5 29.5C12.0699 29.5 8.90233 29.0388 6.54038 28.2515C5.99729 28.0704 5.47898 27.8663 5 27.6371V29.9772C5.01461 30.0156 5.08507 30.1531 5.37148 30.3789C5.79084 30.7094 6.49063 31.0726 7.48906 31.4054C9.47025 32.0658 12.3026 32.5 15.5 32.5C17.1603 32.5 18.7221 32.3829 20.1175 32.1779C20.04 32.7743 20 33.3825 20 34C20 34.4095 20.0176 34.8149 20.052 35.2154C18.6274 35.4006 17.092 35.5 15.5 35.5C12.0699 35.5 8.90233 35.0388 6.54038 34.2515C5.99729 34.0704 5.47898 33.8663 5 33.6371V35.9772C5.01461 36.0156 5.08507 36.1531 5.37148 36.3789C5.79084 36.7094 6.49063 37.0726 7.48906 37.4054C9.47025 38.0658 12.3026 38.5 15.5 38.5C17.3585 38.5 19.0937 38.3533 20.6102 38.1007C20.9142 39.0949 21.326 40.042 21.8319 40.9285C19.9435 41.2963 17.7797 41.5 15.5 41.5C12.0699 41.5 8.90233 41.0388 6.54038 40.2515C5.36724 39.8604 4.30966 39.3617 3.51456 38.7351C2.73637 38.1218 2 37.2089 2 36V12ZM5.37148 11.6211C5.12647 11.8142 5.03949 11.9428 5.01032 12C5.03949 12.0572 5.12647 12.1858 5.37148 12.3789C5.79084 12.7094 6.49063 13.0726 7.48906 13.4054C9.47025 14.0658 12.3026 14.5 15.5 14.5C18.6974 14.5 21.5298 14.0658 23.5109 13.4054C24.5094 13.0726 25.2092 12.7094 25.6285 12.3789C25.8735 12.1858 25.9605 12.0572 25.9897 12C25.9605 11.9428 25.8735 11.8142 25.6285 11.6211C25.2092 11.2906 24.5094 10.9274 23.5109 10.5946C21.5298 9.9342 18.6974 9.5 15.5 9.5C12.3026 9.5 9.47025 9.9342 7.48906 10.5946C6.49063 10.9274 5.79084 11.2906 5.37148 11.6211ZM26 15.6371C25.521 15.8663 25.0027 16.0704 24.4596 16.2515C22.0977 17.0388 18.9301 17.5 15.5 17.5C12.0699 17.5 8.90233 17.0388 6.54038 16.2515C5.99729 16.0704 5.47898 15.8663 5 15.6371V17.9772C5.01461 18.0156 5.08507 18.1531 5.37148 18.3789C5.79084 18.7094 6.49063 19.0726 7.48906 19.4054C9.47025 20.0658 12.3026 20.5 15.5 20.5C18.6974 20.5 21.5298 20.0658 23.5109 19.4054C24.5094 19.0726 25.2092 18.7094 25.6285 18.3789C25.9149 18.1531 25.9854 18.0156 26 17.9772V15.6371Z" fill="#18202A"/>
<path fill-rule="evenodd" clip-rule="evenodd" d="M26.5 34C26.5 30.4101 29.4101 27.5 33 27.5H38C38.8284 27.5 39.5 28.1716 39.5 29C39.5 29.8284 38.8284 30.5 38 30.5H33C31.067 30.5 29.5 32.067 29.5 34C29.5 35.933 31.067 37.5 33 37.5H37C37.8284 37.5 38.5 36.8284 38.5 36C38.5 35.7239 38.2761 35.5 38 35.5H35C34.1716 35.5 33.5 34.8284 33.5 34C33.5 33.1716 34.1716 32.5 35 32.5H38C39.933 32.5 41.5 34.067 41.5 36C41.5 38.4853 39.4853 40.5 37 40.5H33C29.4101 40.5 26.5 37.5899 26.5 34Z" fill="#18202A"/>
</svg>
