<svg width="48" height="48" viewBox="0 0 48 48" fill="none" xmlns="http://www.w3.org/2000/svg">
<g clip-path="url(#clip0_3379_9163)">
<path fill-rule="evenodd" clip-rule="evenodd" d="M12 6C12 3.79086 13.7909 2 16 2H32C34.2091 2 36 3.79086 36 6V10C36 11.913 35.1047 13.617 33.7102 14.7156C31.9749 16.0828 30 17.7909 30 20V24C30 26.2091 31.7909 28 34 28H37.4286C42.1624 28 46 31.8376 46 36.5714C46 38.465 44.465 40 42.5714 40H5.42857C3.53502 40 2 38.465 2 36.5714C2 31.8376 5.83756 28 10.5714 28H14C16.2091 28 18 26.2091 18 24V20C18 17.7909 16.0251 16.0828 14.2898 14.7156C12.8953 13.617 12 11.913 12 10V6ZM16 5C15.4477 5 15 5.44772 15 6V10C15 10.955 15.4429 11.8049 16.1464 12.3592C17.0207 13.048 18.1836 13.9937 19.1233 15.1495C20.0762 16.3216 21 17.9526 21 20V24C21 27.866 17.866 31 14 31H10.5714C7.49441 31 5 33.4944 5 36.5714C5 36.8081 5.19188 37 5.42857 37H42.5714C42.8081 37 43 36.8081 43 36.5714C43 33.4944 40.5056 31 37.4286 31H34C30.134 31 27 27.866 27 24V20C27 17.9526 27.9238 16.3216 28.8767 15.1495C29.8164 13.9937 30.9793 13.048 31.8536 12.3592C32.5571 11.8049 33 10.955 33 10V6C33 5.44772 32.5523 5 32 5H16Z" fill="#18202A"/>
<path d="M4 44C4 42.8954 4.89543 42 6 42H42C43.1046 42 44 42.8954 44 44C44 45.1046 43.1046 46 42 46H6C4.89543 46 4 45.1046 4 44Z" fill="#18202A"/>
</g>
<defs>
<clipPath id="clip0_3379_9163">
<rect width="48" height="48" fill="white"/>
</clipPath>
</defs>
</svg>
