<svg width="48" height="48" viewBox="0 0 48 48" fill="none" xmlns="http://www.w3.org/2000/svg">
<path fill-rule="evenodd" clip-rule="evenodd" d="M3.94975 24.0503L23.9497 4.05025C25.2625 2.7375 27.043 2 28.8995 2H41C43.7614 2 46 4.23858 46 7V19.1005C46 20.957 45.2625 22.7375 43.9497 24.0503L23.9498 44.0502C21.2161 46.7839 16.7839 46.7839 14.0503 44.0503L3.94974 33.9497C1.21607 31.2161 1.21608 26.7839 3.94975 24.0503ZM35 16C36.6568 16 38 14.6569 38 13C38 11.3431 36.6568 10 35 10C33.3431 10 32 11.3431 32 13C32 14.6569 33.3431 16 35 16Z" fill="#18202A"/>
</svg>
