<svg width="48" height="48" viewBox="0 0 48 48" fill="none" xmlns="http://www.w3.org/2000/svg">
<path d="M22 12C22 10.8954 22.8954 10 24 10C25.1046 10 26 10.8954 26 12V24C26 25.1046 25.1046 26 24 26C22.8954 26 22 25.1046 22 24V12Z" fill="#18202A"/>
<path d="M34 22C35.1046 22 36 22.8954 36 24C36 25.1046 35.1046 26 34 26H24C22.8954 26 22 25.1046 22 24C22 22.8954 22.8954 22 24 22H34Z" fill="#18202A"/>
<path fill-rule="evenodd" clip-rule="evenodd" d="M24 6C17.2804 6 11.418 9.68114 8.32391 15.1464L4.84303 13.1757C8.61814 6.50754 15.7814 2 24 2C36.1503 2 46 11.8497 46 24C46 36.1503 36.1503 46 24 46C11.8497 46 2 36.1503 2 24C2 23.0284 2.06311 22.0706 2.18562 21.1309C2.3284 20.0356 3.40775 19.3583 4.4855 19.6003C5.56325 19.8422 6.22916 20.9122 6.10856 22.0101C6.03686 22.663 6 23.3269 6 24C6 33.9411 14.0589 42 24 42C33.9411 42 42 33.9411 42 24C42 14.0589 33.9411 6 24 6Z" fill="#18202A"/>
<path fill-rule="evenodd" clip-rule="evenodd" d="M4.90112 5.41857C5.98891 5.22676 7.02622 5.9531 7.21803 7.04089L8.09861 12.0349L13.0926 11.1543C14.1804 10.9625 15.2177 11.6889 15.4095 12.7767C15.6014 13.8644 14.875 14.9018 13.7872 15.0936L6.82359 16.3214C5.7358 16.5132 4.69848 15.7869 4.50668 14.6991L3.2788 7.73548C3.08699 6.64769 3.81333 5.61037 4.90112 5.41857Z" fill="#18202A"/>
</svg>
