<svg width="48" height="48" viewBox="0 0 48 48" fill="none" xmlns="http://www.w3.org/2000/svg">
<g clip-path="url(#clip0_2294_8678)">
<path d="M0 20.0002C0 16.6865 2.68629 14.0002 6 14.0002H8V34.0002H6C2.68629 34.0002 0 31.314 0 28.0002V20.0002Z" fill="#18202A"/>
<path d="M12 35.8283V12.1723L21.6268 3.3738C24.8356 0.441128 30 2.71752 30 7.06455V40.9365C30 45.2836 24.8354 47.5599 21.6267 44.6271L12 35.8283Z" fill="#18202A"/>
<path d="M47.5367 19.5322C48.2467 18.6861 48.1363 17.4245 47.2902 16.7145C46.444 16.0045 45.1825 16.1149 44.4725 16.9611L40.8623 21.2635L37.2521 16.9611C36.5421 16.1149 35.2806 16.0045 34.4345 16.7145C33.5883 17.4245 33.4779 18.6861 34.1879 19.5322L38.2515 24.375L34.1879 29.2178C33.4779 30.0639 33.5883 31.3254 34.4344 32.0354C35.2806 32.7454 36.5421 32.6351 37.2521 31.7889L40.8623 27.4864L44.4725 31.7889C45.1825 32.6351 46.4441 32.7454 47.2902 32.0354C48.1364 31.3254 48.2467 30.0639 47.5367 29.2178L43.4731 24.375L47.5367 19.5322Z" fill="#18202A"/>
</g>
<defs>
<clipPath id="clip0_2294_8678">
<rect width="48" height="48" fill="white"/>
</clipPath>
</defs>
</svg>
