<svg width="48" height="48" viewBox="0 0 48 48" fill="none" xmlns="http://www.w3.org/2000/svg">
<path fill-rule="evenodd" clip-rule="evenodd" d="M20.8703 4.24345C20.6988 3.15227 21.4447 2.11927 22.5469 2.0473C23.0274 2.01592 23.512 2 24 2C36.1503 2 46 11.8497 46 24C46 24.488 45.9841 24.9726 45.9527 25.4531C45.8807 26.5553 44.8477 27.3012 43.7565 27.1297C42.6654 26.9582 41.9312 25.9338 41.9812 24.8303C41.9937 24.5552 42 24.2784 42 24C42 14.0589 33.9411 6 24 6C23.7216 6 23.4448 6.00631 23.1697 6.01877C22.0662 6.06878 21.0418 5.33463 20.8703 4.24345ZM11.4133 8.45645C10.7177 7.59845 10.8447 6.33052 11.7622 5.71538C12.5658 5.17653 13.4072 4.68912 14.2815 4.25796C15.2722 3.76944 16.4343 4.29238 16.8304 5.32349C17.2264 6.35461 16.705 7.50186 15.7245 8.01047C15.2337 8.26504 14.7561 8.54159 14.2929 8.83886C13.3633 9.43542 12.109 9.31445 11.4133 8.45645ZM5.32349 16.8304C4.29238 16.4343 3.76943 15.2722 4.25796 14.2815C4.68912 13.4072 5.17652 12.5658 5.71538 11.7622C6.33052 10.8447 7.59845 10.7177 8.45645 11.4133C9.31445 12.109 9.43542 13.3633 8.83886 14.2929C8.54159 14.7561 8.26504 15.2337 8.01047 15.7245C7.50186 16.705 6.3546 17.2264 5.32349 16.8304ZM2 24C2 23.512 2.01592 23.0274 2.0473 22.5469C2.11927 21.4447 3.15227 20.6988 4.24345 20.8703C5.33463 21.0418 6.06878 22.0662 6.01877 23.1697C6.00631 23.4448 6 23.7216 6 24C6 24.2784 6.00631 24.5552 6.01877 24.8303C6.06878 25.9338 5.33463 26.9582 4.24345 27.1297C3.15227 27.3012 2.11927 26.5553 2.0473 25.4531C2.01592 24.9726 2 24.488 2 24ZM42.6765 31.1696C43.7076 31.5657 44.2306 32.7278 43.742 33.7185C43.3109 34.5928 42.8235 35.4342 42.2846 36.2378C41.6695 37.1553 40.4015 37.2823 39.5435 36.5867C38.6856 35.891 38.5646 34.6367 39.1611 33.7071C39.4584 33.2439 39.735 32.7663 39.9895 32.2755C40.4981 31.295 41.6454 30.7736 42.6765 31.1696ZM8.45645 36.5867C7.59846 37.2823 6.33052 37.1553 5.71538 36.2378C5.17652 35.4342 4.68912 34.5928 4.25796 33.7185C3.76944 32.7278 4.29238 31.5657 5.32349 31.1696C6.35461 30.7736 7.50186 31.295 8.01047 32.2755C8.26504 32.7663 8.54159 33.2439 8.83886 33.7071C9.43542 34.6367 9.31445 35.891 8.45645 36.5867ZM16.8304 42.6765C16.4343 43.7076 15.2722 44.2306 14.2815 43.742C13.4072 43.3109 12.5658 42.8235 11.7622 42.2846C10.8447 41.6695 10.7177 40.4015 11.4133 39.5435C12.109 38.6856 13.3633 38.5646 14.2929 39.1611C14.7561 39.4584 15.2337 39.735 15.7245 39.9895C16.705 40.4981 17.2264 41.6454 16.8304 42.6765ZM36.5867 39.5435C37.2823 40.4015 37.1553 41.6695 36.2378 42.2846C35.4342 42.8235 34.5928 43.3109 33.7185 43.742C32.7278 44.2306 31.5657 43.7076 31.1696 42.6765C30.7736 41.6454 31.295 40.4981 32.2755 39.9895C32.7663 39.735 33.2439 39.4584 33.7071 39.1611C34.6367 38.5646 35.891 38.6855 36.5867 39.5435ZM27.1297 43.7565C27.3012 44.8477 26.5553 45.8807 25.4531 45.9527C24.9726 45.9841 24.488 46 24 46C23.512 46 23.0274 45.9841 22.5469 45.9527C21.4447 45.8807 20.6988 44.8477 20.8703 43.7565C21.0418 42.6654 22.0662 41.9312 23.1697 41.9812C23.4448 41.9937 23.7216 42 24 42C24.2784 42 24.5552 41.9937 24.8303 41.9812C25.9338 41.9312 26.9582 42.6654 27.1297 43.7565ZM38 24C38 31.732 31.732 38 24 38C16.268 38 10 31.732 10 24C10 16.268 16.268 10 24 10C31.732 10 38 16.268 38 24ZM24 19C24 20.6569 22.6569 22 21 22C19.3431 22 18 20.6569 18 19C18 17.3431 19.3431 16 21 16C22.6569 16 24 17.3431 24 19ZM18 25L15.5312 29.3204C17.3012 32.1318 20.4324 34 24 34C29.2042 34 33.4798 30.0246 33.9559 24.9449L30 20L23 28L18 25Z" fill="#18202A"/>
</svg>
