<svg width="48" height="48" viewBox="0 0 48 48" fill="none" xmlns="http://www.w3.org/2000/svg">
<path fill-rule="evenodd" clip-rule="evenodd" d="M32 10.75C32 17 29.3333 22 24 22C18.6667 22 16 17 16 10.75C16 5.75 18.6667 2 24 2C29.3333 2 32 5.75 32 10.75ZM29 10.75C29 13.5062 28.4033 15.6842 27.492 17.0725C26.6615 18.3378 25.5651 19 24 19C22.4349 19 21.3385 18.3378 20.508 17.0725C19.5967 15.6842 19 13.5062 19 10.75C19 8.75033 19.5341 7.32391 20.2821 6.44736C20.9722 5.63857 22.092 5 24 5C25.908 5 27.0278 5.63857 27.7179 6.44736C28.4659 7.32391 29 8.75033 29 10.75ZM20.3832 42.8043C20.0384 43.7938 19.9351 44.8079 20.038 45.7845C18.3319 45.5977 16.6617 45.2917 15.0358 44.875C12.5978 44.2502 10.5314 42.6171 9.3997 40.369C9.06425 39.7026 8.75139 39.0229 8.46215 38.3308C7.23313 35.3902 7.72293 31.9498 9.99863 29.7185C13.6063 26.1812 18.5484 24 24 24C26.2139 24 28.3438 24.3597 30.3344 25.0239C30.2342 25.1736 30.1385 25.3288 30.0475 25.4896L28.8041 27.6876C27.281 27.24 25.6689 27 24 27C19.3651 27 15.1685 28.8509 12.099 31.8606C10.8113 33.1232 10.4113 35.2148 11.2301 37.174C11.4921 37.8007 11.7754 38.4164 12.0793 39.0201C12.812 40.4755 14.1619 41.5541 15.7806 41.969C17.2755 42.3521 18.8122 42.6332 20.3832 42.8043ZM24.3204 44.3362C23.4047 45.9684 24.5608 48 26.4053 48H45.5947C47.4392 48 48.5953 45.9684 47.6796 44.3362L38.0849 27.2329C37.1627 25.589 34.8373 25.589 33.9151 27.2329L24.3204 44.3362ZM34.5 33.5C34.5 32.6716 35.1716 32 36 32C36.8284 32 37.5 32.6716 37.5 33.5V37.5C37.5 38.3284 36.8284 39 36 39C35.1716 39 34.5 38.3284 34.5 37.5V33.5ZM34.5 42.5C34.5 41.6716 35.1716 41 36 41C36.8284 41 37.5 41.6716 37.5 42.5C37.5 43.3284 36.8284 44 36 44C35.1716 44 34.5 43.3284 34.5 42.5Z" fill="#18202A"/>
</svg>
