<svg width="48" height="48" viewBox="0 0 48 48" fill="none" xmlns="http://www.w3.org/2000/svg">
<path fill-rule="evenodd" clip-rule="evenodd" d="M32 10.75C32 17 29.3333 22 24 22C18.6667 22 16 17 16 10.75C16 5.75 18.6667 2 24 2C29.3333 2 32 5.75 32 10.75ZM35.428 29.5844C32.1886 27.325 28.2491 26 24.0001 26C19.0101 26 14.4469 27.8275 10.9433 30.8496C8.27388 33.1522 7.74188 37.0227 9.30633 40.1819C9.33726 40.2444 9.36839 40.3068 9.39972 40.369C10.5314 42.6171 12.5978 44.2502 15.0359 44.875C17.2802 45.4502 19.609 45.8145 22 45.9454V35C22 33.3431 23.3431 32 25 32H34C34.5523 32 34.9925 31.5497 35.0705 31.003C35.1405 30.5118 35.2615 30.0371 35.428 29.5844ZM27 36C26.4477 36 26 36.4477 26 37V47C26 47.5523 26.4477 48 27 48H41C41.5523 48 42 47.5523 42 47V37C42 36.4477 41.5523 36 41 36H40V32C40 30.8954 40.8954 30 42 30C43.1046 30 44 30.8954 44 32V34.6667C44 35.7712 44.8954 36.6667 46 36.6667C47.1046 36.6667 48 35.7712 48 34.6667V32C48 28.6863 45.3137 26 42 26C38.6863 26 36 28.6863 36 32V36H27ZM36 41C36 39.8954 35.1046 39 34 39C32.8954 39 32 39.8954 32 41V43C32 44.1046 32.8954 45 34 45C35.1046 45 36 44.1046 36 43V41Z" fill="#18202A"/>
</svg>
