<svg width="48" height="48" viewBox="0 0 48 48" fill="none" xmlns="http://www.w3.org/2000/svg">
<path d="M12 4C12 2.89543 12.8954 2 14 2H34C35.1046 2 36 2.89543 36 4C36 5.10457 35.1046 6 34 6H14C12.8954 6 12 5.10457 12 4Z" fill="#18202A"/>
<path d="M10 8C8.89543 8 8 8.89543 8 10C8 11.1046 8.89543 12 10 12H38C39.1046 12 40 11.1046 40 10C40 8.89543 39.1046 8 38 8H10Z" fill="#18202A"/>
<path fill-rule="evenodd" clip-rule="evenodd" d="M10 14C5.58172 14 2 17.5817 2 22V36C2 41.5229 6.47715 46 12 46H36C41.5228 46 46 41.5229 46 36V22C46 17.5817 42.4183 14 38 14H10ZM18 24.8889C18 23.4385 19.5676 22.5426 20.7997 23.2888L29.2225 28.39C30.4192 29.1147 30.4192 30.8653 29.2225 31.5901L20.7997 36.6912C19.5676 37.4374 18 36.5416 18 35.0912V24.8889Z" fill="#18202A"/>
</svg>
