<svg width="48" height="48" viewBox="0 0 48 48" fill="none" xmlns="http://www.w3.org/2000/svg">
<g clip-path="url(#clip0_2296_15225)">
<path fill-rule="evenodd" clip-rule="evenodd" d="M2 10C2 5.58172 5.58172 2 10 2H38C42.4183 2 46 5.58172 46 10V30.6198C44.8044 28.17 42.6372 26.2813 40 25.4554V24C40 22.8954 39.1046 22 38 22H10C8.89543 22 8 22.8954 8 24V38C8 39.1046 8.89543 40 10 40H26.3601C24.4192 41.6873 24.6852 44.5061 26.3392 46H10C5.58172 46 2 42.4183 2 38V10ZM8 12C8 9.79086 9.79086 8 12 8C14.2091 8 16 9.79086 16 12C16 14.2091 14.2091 16 12 16C9.79086 16 8 14.2091 8 12ZM22 10C20.8954 10 20 10.8954 20 12C20 13.1046 20.8954 14 22 14H38C39.1046 14 40 13.1046 40 12C40 10.8954 39.1046 10 38 10H22Z" fill="#18202A"/>
<path fill-rule="evenodd" clip-rule="evenodd" d="M44 35L44 35.0291V40C44 40.6295 44.2964 41.2223 44.8 41.6L45.6 42.2C46.3688 42.7766 45.961 44 45 44H29C28.039 44 27.6312 42.7766 28.4 42.2L29.2 41.6C29.7036 41.2223 30 40.6295 30 40V35C30 35 30 35 30 35C30 35 30 35 30 35C30.0001 31.134 33.1341 28 37 28C40.866 28 44 31.134 44 35ZM35 46C34.4478 46 34 46.4477 34 47C34 47.5523 34.4478 48 35 48H39C39.5523 48 40 47.5523 40 47C40 46.4477 39.5523 46 39 46H35Z" fill="#18202A"/>
</g>
<defs>
<clipPath id="clip0_2296_15225">
<rect width="48" height="48" fill="white"/>
</clipPath>
</defs>
</svg>
