<svg width="48" height="48" viewBox="0 0 48 48" fill="none" xmlns="http://www.w3.org/2000/svg">
<path d="M17.5 4C18.3284 4 19 4.67157 19 5.5C19 6.32843 18.3284 7 17.5 7H10C8.34315 7 7 8.34315 7 10V17.5C7 18.3284 6.32843 19 5.5 19C4.67157 19 4 18.3284 4 17.5V10C4 6.68629 6.68629 4 10 4H17.5Z" fill="#18202A"/>
<path d="M29 5.5C29 6.32843 29.6716 7 30.5 7H38C39.6569 7 41 8.34315 41 10V17.5C41 18.3284 41.6716 19 42.5 19C43.3284 19 44 18.3284 44 17.5V10C44 6.68629 41.3137 4 38 4H30.5C29.6716 4 29 4.67157 29 5.5Z" fill="#18202A"/>
<path d="M29 42.5C29 41.6716 29.6716 41 30.5 41H38C39.6569 41 41 39.6569 41 38V30.5C41 29.6716 41.6716 29 42.5 29C43.3284 29 44 29.6716 44 30.5V38C44 41.3137 41.3137 44 38 44H30.5C29.6716 44 29 43.3284 29 42.5Z" fill="#18202A"/>
<path d="M7 30.5C7 29.6716 6.32843 29 5.5 29C4.67157 29 4 29.6716 4 30.5V38C4 41.3137 6.68629 44 10 44H17.5C18.3284 44 19 43.3284 19 42.5C19 41.6716 18.3284 41 17.5 41H10C8.34315 41 7 39.6569 7 38V30.5Z" fill="#18202A"/>
</svg>
