<svg width="48" height="48" viewBox="0 0 48 48" fill="none" xmlns="http://www.w3.org/2000/svg">
<path fill-rule="evenodd" clip-rule="evenodd" d="M20.3044 45.2676C19.2365 44.4677 18.4565 43.3433 18.0809 42.063L21.9191 40.937C22.0515 41.3884 22.3265 41.7845 22.7025 42.0662C23.0786 42.3479 23.5355 42.5 24.005 42.5C24.4744 42.5 24.9314 42.3479 25.3074 42.0662C25.6835 41.7845 25.9584 41.3884 26.0909 40.937L29.9291 42.063C29.5535 43.3433 28.7734 44.4677 27.7055 45.2676C26.6376 46.0676 25.3393 46.5 24.005 46.5C22.6707 46.5 21.3724 46.0676 20.3044 45.2676Z" fill="#18202A"/>
<path fill-rule="evenodd" clip-rule="evenodd" d="M24 2C25.1045 2 26 2.89543 26 4V6C26 7.10457 25.1045 8 24 8C22.8954 8 22 7.10457 22 6V4C22 2.89543 22.8954 2 24 2Z" fill="#18202A"/>
<path d="M12.9665 10.4631C15.8927 7.60544 19.8616 6 24 6C28.1383 6 32.1072 7.60544 35.0335 10.4631C37.9597 13.3208 39.6037 17.1967 39.6037 21.2381C39.6037 28.7982 41.466 33.2605 43.0026 35.6556C43.5266 36.4724 42.8749 38 41.9045 38H6.09545C5.12501 38 4.47337 36.4724 4.99739 35.6556C6.53394 33.2605 8.39626 28.7982 8.39626 21.2381C8.39626 17.1967 10.0402 13.3208 12.9665 10.4631Z" fill="#18202A"/>
</svg>
