<svg width="48" height="48" viewBox="0 0 48 48" fill="none" xmlns="http://www.w3.org/2000/svg">
<path fill-rule="evenodd" clip-rule="evenodd" d="M20.4142 12.4142C21.1953 11.6332 21.1953 10.3668 20.4142 9.58579C19.6332 8.80474 18.3668 8.80474 17.5858 9.58579L4.58579 22.5858C3.80474 23.3668 3.80474 24.6332 4.58579 25.4142L17.5858 38.4142C18.3668 39.1953 19.6332 39.1953 20.4142 38.4142C21.1953 37.6332 21.1953 36.3668 20.4142 35.5858L8.82843 24L20.4142 12.4142ZM27.5858 12.4142C26.8047 11.6332 26.8047 10.3668 27.5858 9.58579C28.3668 8.80474 29.6332 8.80474 30.4142 9.58579L43.4142 22.5858C44.1953 23.3668 44.1953 24.6332 43.4142 25.4142L30.4142 38.4142C29.6332 39.1953 28.3668 39.1953 27.5858 38.4142C26.8047 37.6332 26.8047 36.3668 27.5858 35.5858L39.1716 24L27.5858 12.4142Z" fill="#18202A"/>
</svg>
