<svg width="48" height="48" viewBox="0 0 48 48" fill="none" xmlns="http://www.w3.org/2000/svg">
<path fill-rule="evenodd" clip-rule="evenodd" d="M34.528 5.34272C35.8959 3.98214 38.1068 3.9851 39.4711 5.34934L42.6502 8.52849C44.0145 9.89273 44.0174 12.1037 42.6568 13.4716L27.5149 28.6949C27.2886 28.9224 26.9953 29.0714 26.6781 29.1198L21.1288 29.968C19.3158 30.2451 17.7545 28.6838 18.0316 26.8708L18.8797 21.3215C18.9282 21.0042 19.0772 20.7109 19.3047 20.4846L34.528 5.34272ZM37.3497 7.47067C37.1549 7.27577 36.839 7.27535 36.6436 7.46972L35.1132 8.99196L39.0076 12.8864L40.5298 11.356C40.7242 11.1606 40.7238 10.8447 40.5289 10.6498L37.3497 7.47067ZM36.892 15.0134L32.9862 11.1076L21.7706 22.2632L21.0551 26.9444L25.7364 26.2289L36.892 15.0134Z" fill="#18202A"/>
<path d="M24 9.5C24 8.67157 23.3284 8 22.5 8H10C6.68629 8 4 10.6863 4 14V38C4 41.3137 6.68629 44 10 44H34C37.3137 44 40 41.3137 40 38V25.5C40 24.6716 39.3284 24 38.5 24C37.6716 24 37 24.6716 37 25.5V38C37 39.6569 35.6569 41 34 41H10C8.34315 41 7 39.6569 7 38V14C7 12.3431 8.34315 11 10 11H22.5C23.3284 11 24 10.3284 24 9.5Z" fill="#18202A"/>
</svg>
