<svg width="48" height="48" viewBox="0 0 48 48" fill="none" xmlns="http://www.w3.org/2000/svg">
<path fill-rule="evenodd" clip-rule="evenodd" d="M22 6C13.1634 6 6 13.1634 6 22C6 30.2343 12.222 37.0181 20.2197 37.9022C21.3176 38.0236 22.1093 39.012 21.9879 40.1099C21.8665 41.2078 20.8781 41.9994 19.7803 41.878C9.77824 40.7724 2 32.2959 2 22C2 10.9543 10.9543 2 22 2C32.2959 2 40.7724 9.77824 41.878 19.7803C41.9994 20.8781 41.2078 21.8665 40.1099 21.9879C39.012 22.1093 38.0236 21.3176 37.9022 20.2197C37.0181 12.222 30.2343 6 22 6ZM22 14C17.5817 14 14 17.5817 14 22C14 25.2774 15.9711 28.0989 18.8007 29.3352C19.8129 29.7774 20.2749 30.9565 19.8327 31.9687C19.3905 32.9808 18.2114 33.4429 17.1993 33.0006C12.9653 31.1507 10 26.9239 10 22C10 15.3726 15.3726 10 22 10C26.9239 10 31.1507 12.9653 33.0006 17.1993C33.4429 18.2114 32.9808 19.3905 31.9687 19.8327C30.9565 20.2749 29.7774 19.8129 29.3352 18.8007C28.0989 15.9711 25.2774 14 22 14ZM22.1098 23.9943C21.7407 22.8343 22.834 21.741 23.9939 22.1101L42.1689 27.893C43.3675 28.2744 43.5927 29.8728 42.5462 30.5705L38.1848 33.478L45.6465 40.9397C46.2323 41.5255 46.2323 42.4752 45.6465 43.061L43.0607 45.6468C42.4749 46.2326 41.5251 46.2326 40.9394 45.6468L33.4777 38.1851L30.5702 42.5465C29.8725 43.593 28.2741 43.3678 27.8927 42.1692L22.1098 23.9943Z" fill="#18202A"/>
</svg>
