<svg width="48" height="48" viewBox="0 0 48 48" fill="none" xmlns="http://www.w3.org/2000/svg">
<path d="M24 14C21.7909 14 20 12.2091 20 10C20 7.79086 21.7909 6 24 6C26.2091 6 28 7.79086 28 10C28 12.2091 26.2091 14 24 14Z" fill="#18202A"/>
<path d="M24 28C21.7909 28 20 26.2091 20 24C20 21.7909 21.7909 20 24 20C26.2091 20 28 21.7909 28 24C28 26.2091 26.2091 28 24 28Z" fill="#18202A"/>
<path d="M24 42C21.7909 42 20 40.2091 20 38C20 35.7909 21.7909 34 24 34C26.2091 34 28 35.7909 28 38C28 40.2091 26.2091 42 24 42Z" fill="#18202A"/>
</svg>
