<svg width="48" height="48" viewBox="0 0 48 48" fill="none" xmlns="http://www.w3.org/2000/svg">
<path fill-rule="evenodd" clip-rule="evenodd" d="M31 24C35.6667 24 38 19.5 38 13.875C38 9.375 35.6667 6 31 6C26.3333 6 24 9.375 24 13.875C24 19.5 26.3333 24 31 24ZM39.0803 43.279C41.4475 42.8504 43.5182 41.3926 44.6126 39.2504C44.8405 38.8045 45.0572 38.353 45.2624 37.8964C46.6003 34.9196 45.7783 31.3709 43.0608 29.5634C39.6956 27.3251 35.5214 26 31 26C26.4786 26 22.3044 27.3251 18.9392 29.5634C16.2217 31.3709 15.3997 34.9195 16.7376 37.8964C16.9429 38.353 17.1595 38.8045 17.3874 39.2504C18.4819 41.3926 20.5525 42.8504 22.9197 43.279C25.5305 43.7518 28.2327 44 31 44C33.7673 44 36.4696 43.7518 39.0803 43.279ZM18.4788 18.125C18.4788 22.5 16.4788 26 12.4788 26C8.47876 26 6.47876 22.5 6.47876 18.125C6.47876 14.625 8.47876 12 12.4788 12C16.4788 12 18.4788 14.625 18.4788 18.125ZM13.0892 39.5362C11.4162 35.8138 11.8815 31.3039 14.5762 28.136C13.8904 28.0463 13.1911 28 12.4809 28C9.62793 28 6.9494 28.7467 4.63003 30.0553C2.26912 31.3873 1.44884 34.3026 2.36808 36.8527C2.47868 37.1596 2.59384 37.4642 2.71347 37.7666C3.56024 39.907 5.51313 41.4012 7.79574 41.6979C9.32924 41.8972 10.893 42 12.4809 42C13.1001 42 13.7158 41.9844 14.3274 41.9535C14.1483 41.6688 13.9807 41.3743 13.8254 41.0703C13.5674 40.5654 13.3219 40.054 13.0892 39.5362Z" fill="#18202A"/>
</svg>
