<svg width="48" height="48" viewBox="0 0 48 48" fill="none" xmlns="http://www.w3.org/2000/svg">
<path d="M2 18C2 15.7909 3.79086 14 6 14H10C12.2091 14 14 15.7909 14 18V40C14 42.2091 12.2091 44 10 44H6C3.79086 44 2 42.2091 2 40V18Z" fill="#18202A"/>
<path d="M34 9.00015C34 5.27367 31.954 2.68566 27.8134 2.11761C26.8189 1.98118 26 2.50264 26 3.50645C26 7.59869 25.5847 12.2295 22.8672 15.2891C22.0164 16.247 21.0642 17.0488 20.0686 17.5261C19.0727 18.0037 18.1428 18.8956 18.1428 20.0001L18.1428 38.0001C18.1428 39.1047 19.0383 40.0001 20.1428 40.0001H36.2918C38.5644 40.0001 40.642 38.7161 41.6584 36.6834L41.7771 36.446C44.5542 30.8918 46 24.7672 46 18.5574V18.0001C46 15.791 44.2091 14.0001 42 14.0001H35C33.8954 14.0001 33.3228 13.1703 33.6239 12.1075C33.8264 11.3926 34 10.4118 34 9.00015Z" fill="#18202A"/>
<path fill-rule="evenodd" clip-rule="evenodd" d="M25.9464 1.57493C26.5275 1.15323 27.2551 1.03148 27.9493 1.12671C30.2022 1.43579 31.9919 2.31217 33.2141 3.71823C34.4354 5.12311 35 6.95303 35 8.99997C35 10.4979 34.8152 11.5708 34.586 12.3799C34.4984 12.6893 34.5702 12.8314 34.598 12.8701C34.6187 12.8991 34.7049 13 35 13H42C44.7614 13 47 15.2385 47 18V18.5573C47 24.9223 45.5181 31.1999 42.6715 36.893L42.5528 37.1305C41.367 39.502 38.9432 41 36.2918 41H20.1428C18.486 41 17.1428 39.6568 17.1428 38L17.1428 20C17.1428 18.3132 18.5167 17.1611 19.6363 16.6243C20.4727 16.2232 21.3225 15.5222 22.1195 14.6249C24.5608 11.8763 25 7.60949 25 3.50627C25 2.70671 25.3403 2.01476 25.9464 1.57493ZM27.041 3.28749C27.0224 3.32535 27 3.39319 27 3.50627C27 7.58753 26.6086 12.5824 23.6148 15.953C22.7103 16.9715 21.6557 17.874 20.501 18.4277C19.6286 18.846 19.1428 19.4776 19.1428 20L19.1428 38C19.1428 38.5523 19.5905 39 20.1428 39H36.2918C38.1857 39 39.917 37.93 40.7639 36.236L40.8827 35.9986C43.5903 30.5832 45 24.6118 45 18.5573V18C45 16.3431 43.6569 15 42 15H35C34.1905 15 33.4381 14.6859 32.9717 14.0342C32.5122 13.3924 32.4483 12.5881 32.6617 11.8348C32.8376 11.2141 33 10.3255 33 8.99997C33 7.32043 32.5416 5.99311 31.7047 5.03035C30.8688 4.06877 29.5651 3.36712 27.6774 3.10816C27.3771 3.06696 27.1981 3.13771 27.1211 3.19359C27.0843 3.22028 27.0593 3.25034 27.041 3.28749Z" fill="#18202A"/>
</svg>
