<svg width="48" height="48" viewBox="0 0 48 48" fill="none" xmlns="http://www.w3.org/2000/svg">
<path d="M7 9.5C7 8.67157 6.32843 8 5.5 8C4.67157 8 4 8.67157 4 9.5V38.5C4 39.3284 4.67157 40 5.5 40C6.32843 40 7 39.3284 7 38.5V25L25 25V38.5C25 39.3284 25.6716 40 26.5 40C27.3284 40 28 39.3284 28 38.5V9.5C28 8.67157 27.3284 8 26.5 8C25.6716 8 25 8.67157 25 9.5V22L7 22V9.5Z" fill="#18202A"/>
<path d="M35 27C35 26.4486 35.7029 25 38 25C39.1507 25 39.8782 25.3745 40.3144 25.8107C40.7647 26.261 41 26.871 41 27.5C41 28.3816 40.7586 28.9412 40.3111 29.5229C39.9443 29.9997 39.5059 30.4207 38.919 30.9841C38.6312 31.2604 38.3077 31.5711 37.9394 31.9393L32.4394 37.4393C32.0104 37.8683 31.8821 38.5135 32.1142 39.074C32.3464 39.6345 32.8934 40 33.5 40H42.5C43.3285 40 44 39.3284 44 38.5C44 37.6716 43.3285 37 42.5 37H37.1214L40.0607 34.0607C40.3026 33.8188 40.5568 33.5744 40.8128 33.3283C41.4893 32.6781 42.1788 32.0153 42.689 31.3521C43.4915 30.3088 44 29.1184 44 27.5C44 26.129 43.4854 24.739 42.4357 23.6893C41.3719 22.6255 39.8494 22 38 22C34.2971 22 32 24.5514 32 27C32 27.8284 32.6716 28.5 33.5 28.5C34.3285 28.5 35 27.8284 35 27Z" fill="#18202A"/>
</svg>
