<svg width="48" height="48" viewBox="0 0 48 48" fill="none" xmlns="http://www.w3.org/2000/svg">
<path fill-rule="evenodd" clip-rule="evenodd" d="M2.57626 0.442017C1.98691 -0.147339 1.03137 -0.147339 0.442017 0.442017C-0.147339 1.03137 -0.147339 1.98691 0.442017 2.57626L3.37702 5.51126C2.50786 6.79118 2 8.33628 2 10V28C2 31.7546 4.58645 34.905 8.07479 35.7668C8.69144 35.9192 9.33628 36 10 36H11.0909L9.93127 41.5461C9.57499 43.25 11.4148 44.5642 12.9111 43.6745L25.8182 36H33.8658L39.4237 41.558C40.0131 42.1473 40.9686 42.1473 41.558 41.558C42.1473 40.9686 42.1473 40.0131 41.558 39.4237L2.57626 0.442017ZM30.8658 33L5.56147 7.69571C5.20274 8.38528 5 9.16896 5 10V28C5 30.7614 7.23857 33 10 33H11.0909C11.9943 33 12.8495 33.4071 13.4192 34.1082C13.9889 34.8093 14.2123 35.7298 14.0274 36.614L13.3334 39.9331L24.285 33.4214C24.7488 33.1456 25.2785 33 25.8182 33H30.8658ZM43 28C43 30.3394 41.3934 32.3036 39.2233 32.8493L41.5468 35.1728C44.1857 33.8654 46 31.1446 46 28V10C46 5.58172 42.4183 2 38 2H10C9.49157 2 8.99422 2.04743 8.51213 2.1381L11.374 5H38C40.7614 5 43 7.23858 43 10V28Z" fill="#18202A"/>
</svg>
