<svg width="48" height="48" viewBox="0 0 48 48" fill="none" xmlns="http://www.w3.org/2000/svg">
<path fill-rule="evenodd" clip-rule="evenodd" d="M40 16V31.5238L24.4762 16H40ZM40 12H20.4762L11.7177 3.24146C12.9558 2.45529 14.4247 2 16 2H32C36.4183 2 40 5.58172 40 10V12ZM13.1691 16L2.72247 5.55342C1.83759 4.66853 1.75397 3.31746 2.53572 2.53572C3.31746 1.75397 4.66853 1.83759 5.55342 2.72247L45.2775 42.4466C46.1624 43.3315 46.246 44.6825 45.4643 45.4643C44.6825 46.246 43.3315 46.1624 42.4466 45.2775L40 42.8309V44C40 45.6481 38.1185 46.5889 36.8 45.6L26.4 37.8C24.9778 36.7333 23.0222 36.7333 21.6 37.8L11.2 45.6C9.88153 46.5889 8 45.6481 8 44V16H13.1691Z" fill="#18202A"/>
</svg>
