<svg width="48" height="48" viewBox="0 0 48 48" fill="none" xmlns="http://www.w3.org/2000/svg">
<path fill-rule="evenodd" clip-rule="evenodd" d="M2 10C2 5.58172 5.58172 2 10 2H38C42.4183 2 46 5.58172 46 10V28C46 32.4183 42.4183 36 38 36H25.8182L12.9111 43.6745C11.4148 44.5642 9.57499 43.25 9.93127 41.5461L11.0909 36H10C5.58172 36 2 32.4183 2 28V10ZM20.8284 12C20.3709 12 20 12.3709 20 12.8284C20 13.0481 20.0873 13.2589 20.2426 13.4142L20.4142 13.5858C21.1953 14.3668 21.1953 15.6332 20.4142 16.4142C19.6332 17.1953 18.3668 17.1953 17.5858 16.4142L17.4142 16.2426C16.5087 15.3371 16 14.109 16 12.8284C16 10.1618 18.1618 8 20.8284 8H26.5132C29.5435 8 32 10.4565 32 13.4868C32 15.8485 30.4888 17.9453 28.2483 18.6921L27.6325 18.8974C26.6576 19.2223 26 20.1347 26 21.1623V22C26 23.1046 25.1046 24 24 24C22.8954 24 22 23.1046 22 22V21.1623C22 18.4129 23.7593 15.9721 26.3675 15.1026L26.9833 14.8974C27.5905 14.695 28 14.1268 28 13.4868C28 12.6657 27.3343 12 26.5132 12H20.8284ZM24 26C22.8954 26 22 26.8954 22 28C22 29.1046 22.8954 30 24 30C25.1046 30 26 29.1046 26 28C26 26.8954 25.1046 26 24 26Z" fill="#18202A"/>
</svg>
