<svg width="48" height="48" viewBox="0 0 48 48" fill="none" xmlns="http://www.w3.org/2000/svg">
<path fill-rule="evenodd" clip-rule="evenodd" d="M43 17H5V38C5 40.7614 7.23858 43 10 43H38C40.7614 43 43 40.7614 43 38V17ZM2 14V38C2 42.4183 5.58172 46 10 46H38C42.4183 46 46 42.4183 46 38V14H2Z" fill="#18202A"/>
<path fill-rule="evenodd" clip-rule="evenodd" d="M21 26.9174V33.0626L26.0733 29.99L21 26.9174ZM18 24.8889C18 23.4385 19.5676 22.5426 20.7997 23.2888L29.2225 28.39C30.4192 29.1147 30.4192 30.8653 29.2225 31.5901L20.7997 36.6912C19.5676 37.4374 18 36.5416 18 35.0912V24.8889Z" fill="#18202A"/>
<path d="M14 4H19L9 16H4L14 4Z" fill="#18202A"/>
<path d="M26 4H31L21 16H16L26 4Z" fill="#18202A"/>
<path d="M38 4H43L33 16H28L38 4Z" fill="#18202A"/>
<path fill-rule="evenodd" clip-rule="evenodd" d="M38 5H10C7.23858 5 5 7.23858 5 10V14H43V10C43 7.23858 40.7614 5 38 5ZM10 2C5.58172 2 2 5.58172 2 10V17H46V10C46 5.58172 42.4183 2 38 2H10Z" fill="#18202A"/>
</svg>
