<svg width="48" height="48" viewBox="0 0 48 48" fill="none" xmlns="http://www.w3.org/2000/svg">
<g clip-path="url(#clip0_3444_9556)">
<path d="M32 4C34.6124 4 36.8349 5.66962 37.6586 8H10.3414C11.1651 5.66962 13.3876 4 16 4H32Z" fill="#18202A"/>
<path fill-rule="evenodd" clip-rule="evenodd" d="M10 10C6.68629 10 4 12.6863 4 16V28C4 30.6124 5.66962 32.8349 8 33.6586V38C8 41.3137 10.6863 44 14 44H34C37.3137 44 40 41.3137 40 38V33.6586C42.3304 32.8349 44 30.6124 44 28V16C44 12.6863 41.3137 10 38 10H10ZM38 18C39.1046 18 40 17.1046 40 16C40 14.8954 39.1046 14 38 14C36.8954 14 36 14.8954 36 16C36 17.1046 36.8954 18 38 18ZM36 24C36 22.8954 35.1046 22 34 22H14C12.8954 22 12 22.8954 12 24V38C12 39.1046 12.8954 40 14 40H34C35.1046 40 36 39.1046 36 38V24Z" fill="#18202A"/>
</g>
<defs>
<clipPath id="clip0_3444_9556">
<rect width="48" height="48" fill="white"/>
</clipPath>
</defs>
</svg>
