<svg width="48" height="48" viewBox="0 0 48 48" fill="none" xmlns="http://www.w3.org/2000/svg">
<path d="M41.9979 11.3176C40.5071 9.20562 38.644 7.35622 36.4793 5.86926C32.16 2.90228 26.9232 1.57301 21.7109 2.12056C16.4985 2.66811 11.6527 5.05653 8.04501 8.85622C4.4373 12.6559 2.30448 17.6175 2.03018 22.8486C1.75589 28.0797 3.35811 33.2369 6.54866 37.3927C9.73922 41.5485 14.3087 44.4301 19.4352 45.5192C24.5618 46.6083 29.9089 45.8334 34.5148 43.3339C38.479 41.1827 41.6702 37.8756 43.6799 33.878C44.221 32.8019 43.6495 31.5342 42.5245 31.1026C41.4004 30.6713 40.1507 31.2405 39.5819 32.3013C36.6145 37.8357 30.7723 41.6 24.0504 41.6C14.325 41.6 6.44105 33.7202 6.44105 24C6.44105 14.2798 14.325 6.40003 24.0504 6.40003C30.8936 6.40003 36.825 10.3013 39.7397 16H29.9915C28.8863 16 27.9904 16.8954 27.9904 18C27.9904 19.1045 28.8863 20 29.9915 20H43.9989C45.1041 20 46 19.1045 46 18V4C46 2.89543 45.1041 2 43.9989 2C42.8938 2 41.9979 2.89543 41.9979 4V11.3176Z" fill="#18202A"/>
</svg>
