<svg width="48" height="48" viewBox="0 0 48 48" fill="none" xmlns="http://www.w3.org/2000/svg">
<path fill-rule="evenodd" clip-rule="evenodd" d="M24 22C29.3333 22 32 17 32 10.75C32 5.75 29.3333 2 24 2C18.6667 2 16 5.75 16 10.75C16 17 18.6667 22 24 22ZM24.0001 26C25.9455 26 27.8261 26.2778 29.6042 26.7958C26.2014 29.3498 24 33.4178 24 38C24 40.9386 24.9054 43.6658 26.4525 45.9178C25.642 45.9723 24.8243 46 24 46C20.9052 46 17.9016 45.6095 15.0359 44.875C12.5978 44.2502 10.5314 42.6171 9.39972 40.369C9.36839 40.3068 9.33726 40.2444 9.30633 40.1819C7.74188 37.0227 8.27388 33.1522 10.9433 30.8496C14.4469 27.8275 19.0101 26 24.0001 26ZM48 38C48 43.5228 43.5228 48 38 48C32.4772 48 28 43.5228 28 38C28 32.4772 32.4772 28 38 28C43.5228 28 48 32.4772 48 38ZM38 30.6C36.8809 30.6 35.9375 30.6769 35.2171 30.7665C33.5451 30.9747 32.5 32.4197 32.5 33.9228L32.5 34.3575C32.5 35.2912 32.8709 36.1867 33.5311 36.8469C34.1169 37.4327 35.0667 37.4327 35.6525 36.8469C36.2382 36.2611 36.2382 35.3114 35.6525 34.7256C35.5548 34.628 35.5 34.4955 35.5 34.3575L35.5 33.9228C35.5 33.8422 35.5272 33.7907 35.5465 33.7672C35.5557 33.7561 35.5628 33.7514 35.566 33.7496C35.5677 33.7486 35.5711 33.7468 35.5784 33.7451C35.581 33.7446 35.5841 33.744 35.5878 33.7436C36.1986 33.6675 37.0177 33.6 38 33.6C38.9059 33.6 39.673 33.6574 40.266 33.726C40.3264 33.733 40.371 33.7574 40.4113 33.806C40.4567 33.8609 40.5 33.9551 40.5 34.0831C40.5 34.8321 40.0635 35.5123 39.3826 35.8243L38.2842 36.3277C37.197 36.8259 36.5 37.9121 36.5 39.108C36.5 39.9364 37.1716 40.608 38 40.608C38.8284 40.608 39.5 39.9364 39.5 39.108C39.5 39.0852 39.5133 39.0645 39.534 39.055L40.6325 38.5516C42.3797 37.7508 43.5 36.0051 43.5 34.0831C43.5 32.4877 42.3899 30.9517 40.6108 30.7459C39.9148 30.6654 39.0321 30.6 38 30.6ZM38 46C39.1046 46 40 45.1046 40 44C40 42.8954 39.1046 42 38 42C36.8954 42 36 42.8954 36 44C36 45.1046 36.8954 46 38 46Z" fill="#18202A"/>
</svg>
