<svg width="48" height="48" viewBox="0 0 48 48" fill="none" xmlns="http://www.w3.org/2000/svg">
<g clip-path="url(#clip0_3352_8854)">
<path fill-rule="evenodd" clip-rule="evenodd" d="M44 14.5C44 14.3674 43.9473 14.2402 43.8536 14.1464C43.7598 14.0527 43.6326 14 43.5 14H35C33.6739 14 32.4021 13.4732 31.4645 12.5355C30.5268 11.5979 30 10.3261 30 9V0.5C30 0.367392 29.9473 0.240215 29.8536 0.146447C29.7598 0.0526784 29.6326 0 29.5 0H8C6.93913 0 5.92172 0.421427 5.17157 1.17157C4.42143 1.92172 4 2.93913 4 4V44C4 45.0609 4.42143 46.0783 5.17157 46.8284C5.92172 47.5786 6.93913 48 8 48H40C41.0609 48 42.0783 47.5786 42.8284 46.8284C43.5786 46.0783 44 45.0609 44 44V14.5ZM22 29L16 20H20L24 26L28 20H32L26 29L32 38H28L24 32L20 38H16L22 29Z" fill="#18202A"/>
<path d="M32.8787 11.1213C33.4413 11.6839 34.2043 12 35 12H42.8C42.899 12.0002 42.9959 11.9709 43.0783 11.916C43.1606 11.8611 43.2249 11.7829 43.2628 11.6914C43.3007 11.6 43.3106 11.4993 43.2912 11.4022C43.2719 11.3051 43.2241 11.2159 43.154 11.146L32.854 0.853975C32.7846 0.784334 32.6961 0.73672 32.5997 0.717091C32.5034 0.697462 32.4034 0.70669 32.3122 0.743621C32.221 0.780552 32.1428 0.843544 32.0873 0.924717C32.0317 1.00589 32.0014 1.10164 32 1.19998V8.99998C32 9.79562 32.3161 10.5587 32.8787 11.1213Z" fill="#18202A"/>
</g>
<defs>
<clipPath id="clip0_3352_8854">
<rect width="48" height="48" fill="white"/>
</clipPath>
</defs>
</svg>
