<svg width="48" height="48" viewBox="0 0 48 48" fill="none" xmlns="http://www.w3.org/2000/svg">
<path fill-rule="evenodd" clip-rule="evenodd" d="M39.0607 8.93934C39.6464 9.52513 39.6464 10.4749 39.0607 11.0607L11.0607 39.0607C10.4749 39.6464 9.52513 39.6464 8.93934 39.0607C8.35355 38.4749 8.35355 37.5251 8.93934 36.9393L36.9393 8.93934C37.5251 8.35355 38.4749 8.35355 39.0607 8.93934Z" fill="#18202A"/>
<path fill-rule="evenodd" clip-rule="evenodd" d="M8.93934 8.93934C9.52513 8.35355 10.4749 8.35355 11.0607 8.93934L39.0607 36.9393C39.6464 37.5251 39.6464 38.4749 39.0607 39.0607C38.4749 39.6464 37.5251 39.6464 36.9393 39.0607L8.93934 11.0607C8.35355 10.4749 8.35355 9.52513 8.93934 8.93934Z" fill="#18202A"/>
</svg>
