<svg width="48" height="48" viewBox="0 0 48 48" fill="none" xmlns="http://www.w3.org/2000/svg">
<g clip-path="url(#clip0_2414_8768)">
<path fill-rule="evenodd" clip-rule="evenodd" d="M45.3219 29.4415C45.7647 27.7012 46 25.8781 46 24C46 11.8497 36.1503 2 24 2C11.8497 2 2 11.8497 2 24C2 36.1503 11.8497 46 24 46C24.7499 46 25.491 45.9625 26.2216 45.8892C24.6091 44.307 24.4512 41.4174 26.6078 39.8C26.8596 39.6111 27.0078 39.3148 27.0078 39V35.6333C26.0296 35.8763 25.0179 36 24 36C22.0877 36 20.1972 35.5632 18.5098 34.7195C16.8219 33.8756 15.38 32.6451 14.3461 31.1245C13.725 30.2111 13.962 28.9672 14.8755 28.3461C15.7889 27.725 17.0328 27.962 17.6539 28.8755C18.2793 29.7952 19.1829 30.5839 20.2987 31.1418C21.415 31.7 22.691 32 24 32C25.3091 32 26.585 31.7 27.7013 31.1418C27.7346 31.1252 27.7676 31.1084 27.8005 31.0914C29.3225 27.5108 32.8719 25 37.0078 25C40.4737 25 43.5277 26.7632 45.3219 29.4415ZM17 24C18.6569 24 20 22.2091 20 20C20 17.7909 18.6569 16 17 16C15.3432 16 14 17.7909 14 20C14 22.2091 15.3432 24 17 24ZM34 20C34 22.2091 32.6569 24 31 24C29.3432 24 28 22.2091 28 20C28 17.7909 29.3432 16 31 16C32.6569 16 34 17.7909 34 20Z" fill="#18202A"/>
<path fill-rule="evenodd" clip-rule="evenodd" d="M44 35L44 35.0291V40C44 40.6295 44.2964 41.2223 44.8 41.6L45.6 42.2C46.3688 42.7766 45.961 44 45 44H29C28.039 44 27.6312 42.7766 28.4 42.2L29.2 41.6C29.7036 41.2223 30 40.6295 30 40V35C30 35 30 35 30 35C30 35 30 35 30 35C30.0001 31.134 33.1341 28 37 28C40.866 28 44 31.134 44 35ZM35 46C34.4478 46 34 46.4477 34 47C34 47.5523 34.4478 48 35 48H39C39.5523 48 40 47.5523 40 47C40 46.4477 39.5523 46 39 46H35Z" fill="#18202A"/>
</g>
<defs>
<clipPath id="clip0_2414_8768">
<rect width="48" height="48" fill="white"/>
</clipPath>
</defs>
</svg>
