<svg width="48" height="48" viewBox="0 0 48 48" fill="none" xmlns="http://www.w3.org/2000/svg">
<path fill-rule="evenodd" clip-rule="evenodd" d="M20.7997 17.2888C19.5676 16.5426 18 17.4385 18 18.8889V29.0912C18 30.5416 19.5676 31.4374 20.7997 30.6912L29.2225 25.5901C30.4192 24.8653 30.4192 23.1147 29.2225 22.39L20.7997 17.2888ZM21 27.0626V20.9174L26.0733 23.99L21 27.0626Z" fill="#18202A"/>
<path d="M14 9V13H10V9H14Z" fill="#18202A"/>
<path d="M14 39V35H10V39H14Z" fill="#18202A"/>
<path d="M18 9H22V13H18V9Z" fill="#18202A"/>
<path d="M22 35H18V39H22V35Z" fill="#18202A"/>
<path d="M26 9H30V13H26V9Z" fill="#18202A"/>
<path d="M30 35H26V39H30V35Z" fill="#18202A"/>
<path d="M38 9V13H34V9H38Z" fill="#18202A"/>
<path d="M38 39V35H34V39H38Z" fill="#18202A"/>
<path fill-rule="evenodd" clip-rule="evenodd" d="M2 12C2 6.47715 6.47715 2 12 2H36C41.5228 2 46 6.47715 46 12V36C46 41.5228 41.5228 46 36 46H12C6.47715 46 2 41.5228 2 36V12ZM12 5H36C39.866 5 43 8.13401 43 12V36C43 39.866 39.866 43 36 43H12C8.13401 43 5 39.866 5 36V12C5 8.13401 8.13401 5 12 5Z" fill="#18202A"/>
</svg>
