<svg width="48" height="48" viewBox="0 0 48 48" fill="none" xmlns="http://www.w3.org/2000/svg">
<path fill-rule="evenodd" clip-rule="evenodd" d="M26 7H22C21.4477 7 21 7.44772 21 8V40C21 40.5523 21.4477 41 22 41H26C26.5523 41 27 40.5523 27 40V8C27 7.44772 26.5523 7 26 7ZM22 4C19.7909 4 18 5.79086 18 8V40C18 42.2091 19.7909 44 22 44H26C28.2091 44 30 42.2091 30 40V8C30 5.79086 28.2091 4 26 4H22ZM10 23H6C5.44772 23 5 23.4477 5 24V40C5 40.5523 5.44772 41 6 41H10C10.5523 41 11 40.5523 11 40V24C11 23.4477 10.5523 23 10 23ZM6 20C3.79086 20 2 21.7909 2 24V40C2 42.2091 3.79086 44 6 44H10C12.2091 44 14 42.2091 14 40V24C14 21.7909 12.2091 20 10 20H6ZM38 15H42C42.5523 15 43 15.4477 43 16V40C43 40.5523 42.5523 41 42 41H38C37.4477 41 37 40.5523 37 40V16C37 15.4477 37.4477 15 38 15ZM34 16C34 13.7909 35.7909 12 38 12H42C44.2091 12 46 13.7909 46 16V40C46 42.2091 44.2091 44 42 44H38C35.7909 44 34 42.2091 34 40V16Z" fill="#18202A"/>
</svg>
