<svg width="48" height="48" viewBox="0 0 48 48" fill="none" xmlns="http://www.w3.org/2000/svg">
<path fill-rule="evenodd" clip-rule="evenodd" d="M24.285 33.4214C24.7488 33.1456 25.2785 33 25.8182 33H38C40.7614 33 43 30.7614 43 28V10C43 7.23858 40.7614 5 38 5H10C7.23858 5 5 7.23858 5 10V28C5 30.7614 7.23857 33 10 33H11.0909C11.9943 33 12.8495 33.4071 13.4192 34.1082C13.9889 34.8093 14.2123 35.7298 14.0274 36.614L13.3334 39.9331L24.285 33.4214ZM25.8182 36H38C42.4183 36 46 32.4183 46 28V10C46 5.58172 42.4183 2 38 2H10C5.58172 2 2 5.58172 2 10V28C2 31.7546 4.58645 34.905 8.07479 35.7668C8.69144 35.9192 9.33628 36 10 36H11.0909L9.93127 41.5461C9.57499 43.25 11.4148 44.5642 12.9111 43.6745L25.8182 36Z" fill="#18202A"/>
</svg>
