<svg width="48" height="48" viewBox="0 0 48 48" fill="none" xmlns="http://www.w3.org/2000/svg">
<path d="M18.5 5C19.3284 5 20 5.67157 20 6.5V14.5C20 17.5376 17.5376 20 14.5 20H6.5C5.67157 20 5 19.3284 5 18.5C5 17.6716 5.67157 17 6.5 17H14.5C15.8807 17 17 15.8807 17 14.5V6.5C17 5.67157 17.6716 5 18.5 5Z" fill="#18202A"/>
<path d="M5 29.5C5 28.6716 5.67157 28 6.5 28H14.5C17.5376 28 20 30.4624 20 33.5V41.5C20 42.3284 19.3284 43 18.5 43C17.6716 43 17 42.3284 17 41.5V33.5C17 32.1193 15.8807 31 14.5 31H6.5C5.67157 31 5 30.3284 5 29.5Z" fill="#18202A"/>
<path d="M43 18.5C43 19.3284 42.3284 20 41.5 20H33.5C30.4624 20 28 17.5376 28 14.5V6.5C28 5.67157 28.6716 5 29.5 5C30.3284 5 31 5.67157 31 6.5V14.5C31 15.8807 32.1193 17 33.5 17H41.5C42.3284 17 43 17.6716 43 18.5Z" fill="#18202A"/>
<path d="M29.5 43C28.6716 43 28 42.3284 28 41.5L28 33.1923C28 30.3247 30.3247 28 33.1923 28H41.5C42.3284 28 43 28.6716 43 29.5C43 30.3284 42.3284 31 41.5 31H33.1923C31.9815 31 31 31.9815 31 33.1923L31 41.5C31 42.3284 30.3284 43 29.5 43Z" fill="#18202A"/>
</svg>
