<svg width="48" height="48" viewBox="0 0 48 48" fill="none" xmlns="http://www.w3.org/2000/svg">
<path fill-rule="evenodd" clip-rule="evenodd" d="M34.8349 6C36.2937 6 37.6368 6.79413 38.3398 8.07233L45.3486 20.8157C45.7711 21.5839 45.9296 22.4696 45.7995 23.3367L43.511 38.5934C43.2173 40.5514 41.5352 42 39.5553 42H8.44475C6.46477 42 4.78272 40.5514 4.48901 38.5934L2.20051 23.3367C2.07045 22.4696 2.22887 21.5839 2.65139 20.8157L9.66023 8.07232C10.3632 6.79413 11.7063 6 13.1651 6H34.8349ZM5.59376 22H16C17.1046 22 17.9674 22.92 18.3287 23.9638C19.1421 26.3131 21.3741 28 24 28C26.626 28 28.8579 26.3131 29.6713 23.9638C30.0326 22.92 30.8954 22 32 22H42.4062L35.782 9.53084C35.6085 9.20418 35.2688 9 34.8989 9H13.1011C12.7312 9 12.3915 9.20419 12.218 9.53085L5.59376 22ZM24 31C27.6686 31 30.8245 28.8051 32.2261 25.6568C32.3984 25.2696 32.7712 25 33.1951 25H42.5164L40.5442 38.1483C40.4708 38.6379 40.0503 39 39.5553 39H8.44475C7.94976 39 7.52925 38.6379 7.45582 38.1483L5.48357 25H14.8049C15.2288 25 15.6016 25.2696 15.7739 25.6568C17.1756 28.8051 20.3315 31 24 31Z" fill="#18202A"/>
</svg>
