<svg width="48" height="48" viewBox="0 0 48 48" fill="none" xmlns="http://www.w3.org/2000/svg">
<path fill-rule="evenodd" clip-rule="evenodd" d="M2.53573 2.53572C3.31748 1.75397 4.66855 1.83759 5.55343 2.72247L41.2775 38.4466C42.1624 39.3315 42.246 40.6825 41.4643 41.4643C40.6826 42.246 39.3315 42.1624 38.4466 41.2775L2.72249 5.55342C1.8376 4.66853 1.75399 3.31746 2.53573 2.53572Z" fill="#18202A"/>
<path d="M41.0222 32.546C43.954 27.4384 46 20.346 46 10.2853C46.001 9.22438 45.2838 8.28648 44.2326 7.96964L24.7508 2.10973L24.454 2.0395C24.0542 1.96928 23.6412 1.99268 23.2502 2.10973L13.5143 5.03815L16.7251 8.2489L24.002 6.06L41.988 11.472L41.9731 12.2209C41.7688 19.4544 40.4083 25.1413 38.0794 29.6032L41.0222 32.546Z" fill="#18202A"/>
<path d="M38.7476 35.9282L35.8951 33.0758C35.6692 33.3762 35.4376 33.6695 35.2003 33.9559L34.805 34.4233C32.0358 37.6275 29.1971 39.448 24.1536 41.789L24 41.858L23.1373 41.4565C18.3001 39.1605 15.5667 37.2956 12.7996 33.9555L12.41 33.4725C8.56599 28.5777 6.29571 21.738 6.02694 12.224L6.01 11.472L12.3763 9.557L9.16556 6.34622L3.76833 7.96964L3.51272 8.06128C2.60264 8.44268 2 9.31189 2 10.2853C2 35.0265 14.3739 41.8158 21.864 45.2821L22.9232 45.7674C23.2642 45.9224 23.6324 46 24.0006 46C24.3686 46 24.7358 45.9224 25.0758 45.7674C28.8656 44.0414 34.3461 41.5442 38.7476 35.9282Z" fill="#18202A"/>
<path d="M15.5557 12.7364L10 14.408L10.0302 14.8562C10.58 22.0596 12.4724 27.2298 15.389 30.9626L15.7438 31.4036C17.6955 33.7594 19.6592 35.2613 22.835 36.9116L23.864 37.43L24.237 37.246C27.6072 35.5583 29.6647 34.089 31.6367 31.8141L31.9841 31.404C32.3199 30.9986 32.6431 30.5755 32.9531 30.1338L15.5557 12.7364Z" fill="#18202A"/>
<path d="M34.9972 26.521C36.4096 23.3869 37.3392 19.5526 37.6978 14.8518L37.726 14.406L23.866 10.236L19.9042 11.428L34.9972 26.521Z" fill="#18202A"/>
</svg>
