<svg width="48" height="48" viewBox="0 0 48 48" fill="none" xmlns="http://www.w3.org/2000/svg">
<g clip-path="url(#clip0_3289_16926)">
<path d="M12.5 4C13.3284 4 14 4.67157 14 5.5V11H19.5C20.3284 11 21 11.6716 21 12.5C21 13.3284 20.3284 14 19.5 14H14V19.5C14 20.3284 13.3284 21 12.5 21C11.6716 21 11 20.3284 11 19.5V14H5.5C4.67157 14 4 13.3284 4 12.5C4 11.6716 4.67157 11 5.5 11H11V5.5C11 4.67157 11.6716 4 12.5 4ZM28.5 11C27.6716 11 27 11.6716 27 12.5C27 13.3284 27.6716 14 28.5 14H42.5C43.3284 14 44 13.3284 44 12.5C44 11.6716 43.3284 11 42.5 11H28.5ZM27 35.5C27 34.6716 27.6716 34 28.5 34H42.5C43.3284 34 44 34.6716 44 35.5C44 36.3284 43.3284 37 42.5 37H28.5C27.6716 37 27 36.3284 27 35.5ZM35.5 32C36.6046 32 37.5 31.1046 37.5 30C37.5 28.8954 36.6046 28 35.5 28C34.3954 28 33.5 28.8954 33.5 30C33.5 31.1046 34.3954 32 35.5 32ZM37.5 42C37.5 43.1046 36.6046 44 35.5 44C34.3954 44 33.5 43.1046 33.5 42C33.5 40.8954 34.3954 40 35.5 40C36.6046 40 37.5 40.8954 37.5 42ZM4.43934 28.5607C3.85355 27.9749 3.85355 27.0251 4.43934 26.4393C5.02513 25.8536 5.97487 25.8536 6.56066 26.4393L12.5 32.3787L18.4393 26.4393C19.0251 25.8536 19.9749 25.8536 20.5607 26.4393C21.1464 27.0251 21.1464 27.9749 20.5607 28.5607L14.6213 34.5L20.5607 40.4393C21.1464 41.0251 21.1464 41.9749 20.5607 42.5607C19.9749 43.1464 19.0251 43.1464 18.4393 42.5607L12.5 36.6213L6.56066 42.5607C5.97487 43.1464 5.02513 43.1464 4.43934 42.5607C3.85355 41.9749 3.85355 41.0251 4.43934 40.4393L10.3787 34.5L4.43934 28.5607Z" fill="#18202A"/>
</g>
<defs>
<clipPath id="clip0_3289_16926">
<rect width="48" height="48" fill="white"/>
</clipPath>
</defs>
</svg>
