<svg width="48" height="48" viewBox="0 0 48 48" fill="none" xmlns="http://www.w3.org/2000/svg">
<path fill-rule="evenodd" clip-rule="evenodd" d="M14 17H6C5.44772 17 5 17.4477 5 18V42C5 42.5523 5.44772 43 6 43H14C14.5523 43 15 42.5523 15 42V18C15 17.4477 14.5523 17 14 17ZM6 14C3.79086 14 2 15.7909 2 18V42C2 44.2091 3.79086 46 6 46H14C16.2091 46 18 44.2091 18 42V18C18 15.7909 16.2091 14 14 14H6Z" fill="#18202A"/>
<path fill-rule="evenodd" clip-rule="evenodd" d="M25.6527 1.17018C26.3598 0.657025 27.2246 0.522521 28.0172 0.631266C30.3615 0.95287 32.2726 1.87293 33.5915 3.39011C34.9088 4.90552 35.5 6.86109 35.5 8.99988C35.5 10.5311 35.3121 11.6457 35.0717 12.4999H42C45.0376 12.4999 47.5 14.9623 47.5 17.9999V18.5572C47.5 24.9998 46 31.354 43.1187 37.1165L43 37.354C41.7296 39.8949 39.1326 41.4999 36.2918 41.4999H15L15 16.4999H18.1428C19.1614 16.4999 20.4414 15.7612 21.7457 14.2928C24.0489 11.6997 24.5 7.6149 24.5 3.50619C24.5 2.5578 24.9082 1.71053 25.6527 1.17018ZM27.4999 3.59596C27.4943 7.65773 27.0976 12.7847 23.9887 16.285C22.5156 17.9435 20.4781 19.4999 18.1428 19.4999H18L18 38.4999H36.2918C37.9963 38.4999 39.5545 37.5369 40.3167 36.0123L40.4355 35.7749C43.1084 30.429 44.5 24.5341 44.5 18.5572V17.9999C44.5 16.6192 43.3807 15.4999 42 15.4999H35C34.0619 15.4999 33.143 15.1325 32.5651 14.3252C31.9977 13.5325 31.9358 12.5627 32.1807 11.6984C32.3432 11.1249 32.5 10.2823 32.5 8.99988C32.5 7.41219 32.0682 6.21052 31.3274 5.35829C30.5881 4.50783 29.4059 3.84987 27.6095 3.60343C27.5666 3.59754 27.5301 3.59564 27.4999 3.59596Z" fill="#18202A"/>
</svg>
