<svg width="48" height="48" viewBox="0 0 48 48" fill="none" xmlns="http://www.w3.org/2000/svg">
<path fill-rule="evenodd" clip-rule="evenodd" d="M24 46C11.8497 46 2 36.1503 2 24C2 11.8497 11.8497 2 24 2C36.1503 2 46 11.8497 46 24C46 36.1503 36.1503 46 24 46ZM24.5858 14.5858C25.3668 13.8047 26.6332 13.8047 27.4142 14.5858C28.1953 15.3668 28.1953 16.6332 27.4142 17.4142L20.8284 24L27.4142 30.5858C28.1953 31.3668 28.1953 32.6332 27.4142 33.4142C26.6332 34.1953 25.3668 34.1953 24.5858 33.4142L16.5858 25.4142C15.8047 24.6332 15.8047 23.3668 16.5858 22.5858L24.5858 14.5858Z" fill="#18202A"/>
</svg>
