<svg width="48" height="48" viewBox="0 0 48 48" fill="none" xmlns="http://www.w3.org/2000/svg">
<path d="M8 6C4.68629 6 2 8.68629 2 12V13.9713C2.00508 13.5953 2.1161 13.2166 2.34209 12.8816C2.95988 11.9659 4.20298 11.7245 5.11863 12.3423L21.1485 23.1577C21.9407 23.6922 22.9433 24.0002 24 24.0002C25.0567 24.0002 26.0593 23.6923 26.8514 23.1578L42.8814 12.3423C43.7971 11.7245 45.0402 11.9659 45.6579 12.8816C45.8834 13.2158 45.9944 13.5935 46 13.9686V12C46 8.68629 43.3137 6 40 6H8Z" fill="#18202A"/>
<path d="M46 14.0282C45.9906 14.6603 45.6824 15.2777 45.1186 15.6581L29.0888 26.4735C27.6045 27.4751 25.8154 28.0002 24 28.0002C22.1846 28.0002 20.3957 27.4752 18.9113 26.4736L2.88141 15.6581C2.31682 15.2772 2.00856 14.6585 2 14.0255V36C2 39.3137 4.68629 42 8 42H40C43.3137 42 46 39.3137 46 36V14.0282Z" fill="#18202A"/>
<path fill-rule="evenodd" clip-rule="evenodd" d="M40 10H8C6.89543 10 6 10.8954 6 12V36C6 37.1046 6.89543 38 8 38H40C41.1046 38 42 37.1046 42 36V12C42 10.8954 41.1046 10 40 10ZM8 6C4.68629 6 2 8.68629 2 12V36C2 39.3137 4.68629 42 8 42H40C43.3137 42 46 39.3137 46 36V12C46 8.68629 43.3137 6 40 6H8Z" fill="#18202A"/>
</svg>
