<svg width="48" height="48" viewBox="0 0 48 48" fill="none" xmlns="http://www.w3.org/2000/svg">
<path d="M20.031 43.7147C19.903 42.3695 20.1665 40.9561 20.9132 39.6361L30.0475 23.4896C32.6797 18.8368 39.3203 18.8368 41.9525 23.4896L45.1693 29.1758C45.7153 27.3211 46 25.3731 46 23.3818C46 10.4 36.1594 2 24.0205 2C11.8815 2 1.25602 11.9273 2.0409 23.3818C2.0409 30.2264 4.77644 35.585 9.1421 39.1219L9.56231 44.1644C9.6776 45.548 11.1329 46.396 12.3935 45.8142L17.8453 43.298C18.5595 43.4671 19.2887 43.6062 20.031 43.7147Z" fill="#18202A"/>
<path fill-rule="evenodd" clip-rule="evenodd" d="M45.5947 46H26.4053C24.5608 46 23.4047 43.9684 24.3204 42.3362L33.9151 25.2329C34.8373 23.589 37.1627 23.589 38.0849 25.2329L47.6796 42.3362C48.5953 43.9684 47.4392 46 45.5947 46ZM36 30C34.8954 30 34 30.8954 34 32V36C34 37.1046 34.8954 38 36 38C37.1046 38 38 37.1046 38 36V32C38 30.8954 37.1046 30 36 30ZM36 40C34.8954 40 34 40.8954 34 42C34 43.1046 34.8954 44 36 44C37.1046 44 38 43.1046 38 42C38 40.8954 37.1046 40 36 40Z" fill="#18202A"/>
</svg>
