<svg width="48" height="48" viewBox="0 0 48 48" fill="none" xmlns="http://www.w3.org/2000/svg">
<path d="M4 8C4 5.79086 5.79086 4 8 4H18C20.2091 4 22 5.79086 22 8V12C22 14.2091 20.2091 16 18 16H14V24H30C30 21.7909 31.7909 20 34 20H40C42.2091 20 44 21.7909 44 24V26C44 28.2091 42.2091 30 40 30H34C32.5194 30 31.2267 29.1956 30.5351 28H14V36C14 37.1046 14.8954 38 16 38H30C30 35.7909 31.7909 34 34 34H40C42.2091 34 44 35.7909 44 38V40C44 42.2091 42.2091 44 40 44H34C32.5194 44 31.2267 43.1956 30.5351 42H16C12.6863 42 10 39.3137 10 36V16H8C5.79086 16 4 14.2091 4 12V8Z" fill="#18202A"/>
</svg>
