<svg width="48" height="48" viewBox="0 0 48 48" fill="none" xmlns="http://www.w3.org/2000/svg">
<path d="M23.9505 14.0001C31.8506 13.9858 39.5302 16.6038 45.7765 21.4407C46.4192 21.9275 46.9494 22.547 47.3312 23.2572C47.7129 23.9673 47.9371 24.7514 47.9886 25.556C48.04 26.3606 47.9175 27.1668 47.6294 27.9198C47.3893 28.5473 47.0388 29.1256 46.5957 29.6277L46.3188 29.9196L42.3505 33.8879C41.4189 34.847 40.1754 35.442 38.8441 35.5657C37.5127 35.6893 36.1809 35.3337 35.0885 34.5625C34.7446 34.298 34.3875 34.0466 34.0303 33.8218C33.3085 33.3669 32.5573 32.9603 31.7816 32.6048C30.9447 32.2145 30.2818 31.5283 29.9204 30.6785C29.6041 29.9349 29.5383 29.112 29.7273 28.3326L29.8239 28.0016L30.0091 27.0756C28.004 26.5039 25.9299 26.2102 23.845 26.2026C22.0206 26.2093 20.2047 26.4351 18.4359 26.8743L17.6809 27.0756L17.9851 27.9619C18.2845 28.8355 18.2501 29.789 17.8887 30.6387C17.5272 31.4886 16.8643 32.1747 16.0274 32.5651C15.4439 32.8282 14.8753 33.1228 14.3241 33.4474L13.2314 34.121C13.0512 34.2384 12.8792 34.3641 12.7337 34.5096C11.667 35.2519 10.3758 35.6011 9.08037 35.4973C7.9288 35.4051 6.83732 34.9602 5.95232 34.2285L5.63037 33.9409L1.66207 29.9726C1.09812 29.4137 0.659098 28.7416 0.374041 28.0005C0.0891167 27.2595 -0.035488 26.4663 0.00869243 25.6735C0.080241 24.434 0.56033 23.2573 1.36776 22.3243L1.64892 22.0226L2.15157 21.52C8.38023 16.6604 16.0503 14.0145 23.9505 14.0001ZM23.9559 17.0001C17.0008 17.0127 10.2404 19.253 4.66078 23.3809L4.124 23.7881L3.84369 24.0679L3.6362 24.2875C3.25966 24.7226 3.03694 25.2707 3.00405 25.8404C2.98348 26.2094 3.04147 26.5787 3.17408 26.9235C3.27359 27.1823 3.41341 27.4229 3.59197 27.6409L3.78339 27.8512L7.62914 31.7037L7.86387 31.9164C8.27659 32.2576 8.78492 32.464 9.32008 32.5069C9.82224 32.5471 10.3232 32.441 10.7636 32.2045L10.912 32.1121L11.0865 31.9694L11.3547 31.7709L11.6571 31.5673L12.8016 30.8624C13.4468 30.4825 14.112 30.1379 14.7593 29.8463C14.925 29.769 15.0563 29.6331 15.128 29.4647C15.1817 29.3384 15.1989 29.2005 15.1794 29.0672L15.1476 28.9359L14.4952 27.0353C14.1186 25.9383 14.7511 24.752 15.8718 24.4534L17.7129 23.9627C19.7154 23.4655 21.7704 23.2102 23.856 23.2026C25.9208 23.2102 27.9759 23.4656 29.9774 23.9628L30.8318 24.1906L31.7191 24.4436C32.7214 24.7295 33.3362 25.7372 33.1318 26.7592L32.7657 28.5899L32.7037 28.8423L32.6428 29.0397C32.6053 29.1944 32.6186 29.3574 32.681 29.5043C32.7527 29.6728 32.884 29.8087 33.0317 29.8777C33.928 30.2885 34.7959 30.7582 35.6288 31.2831C36.0606 31.555 36.4941 31.8588 36.8187 32.1117C37.327 32.4705 37.9469 32.6361 38.5666 32.5785C39.0977 32.5292 39.5988 32.3187 40.0235 31.9589L40.2292 31.7666L44.1421 27.8551L44.3464 27.6426C44.5529 27.4086 44.7159 27.1394 44.8275 26.8477C44.9616 26.4972 45.0186 26.122 44.9947 25.7475C44.9707 25.373 44.8664 25.0081 44.6887 24.6775C44.511 24.347 44.2642 24.0587 43.9397 23.8126C38.4407 19.5544 31.7282 17.1744 24.7896 17.0093L23.9559 17.0001Z" fill="#18202A"/>
</svg>
