<svg width="48" height="48" viewBox="0 0 48 48" fill="none" xmlns="http://www.w3.org/2000/svg">
<path fill-rule="evenodd" clip-rule="evenodd" d="M10 8C11.1046 8 12 8.89543 12 10V16C12 21.5228 16.4772 26 22 26H35.1716L28.5858 19.4142C27.8047 18.6332 27.8047 17.3668 28.5858 16.5858C29.3668 15.8047 30.6332 15.8047 31.4142 16.5858L41.4142 26.5858C42.1953 27.3668 42.1953 28.6332 41.4142 29.4142L31.4142 39.4142C30.6332 40.1953 29.3668 40.1953 28.5858 39.4142C27.8047 38.6332 27.8047 37.3668 28.5858 36.5858L35.1716 30H22C14.268 30 8 23.732 8 16V10C8 8.89543 8.89543 8 10 8Z" fill="#18202A"/>
</svg>
