<svg width="48" height="48" viewBox="0 0 48 48" fill="none" xmlns="http://www.w3.org/2000/svg">
<path fill-rule="evenodd" clip-rule="evenodd" d="M32 14V16H16V14C16 9.58172 19.5817 6 24 6C28.4183 6 32 9.58172 32 14ZM36 16V14C36 7.37258 30.6274 2 24 2C17.3726 2 12 7.37258 12 14V16C7.58172 16 4 19.5817 4 24V38C4 42.4183 7.58172 46 12 46H36C40.4183 46 44 42.4183 44 38V24C44 19.5817 40.4183 16 36 16ZM12.5 33.5C13.8807 33.5 15 32.3807 15 31C15 29.6193 13.8807 28.5 12.5 28.5C11.1193 28.5 10 29.6193 10 31C10 32.3807 11.1193 33.5 12.5 33.5ZM20.1667 33.5C21.5474 33.5 22.6667 32.3807 22.6667 31C22.6667 29.6193 21.5474 28.5 20.1667 28.5C18.786 28.5 17.6667 29.6193 17.6667 31C17.6667 32.3807 18.786 33.5 20.1667 33.5ZM30.3333 31C30.3333 32.3807 29.214 33.5 27.8333 33.5C26.4526 33.5 25.3333 32.3807 25.3333 31C25.3333 29.6193 26.4526 28.5 27.8333 28.5C29.214 28.5 30.3333 29.6193 30.3333 31ZM35.5 33.5C36.8807 33.5 38 32.3807 38 31C38 29.6193 36.8807 28.5 35.5 28.5C34.1193 28.5 33 29.6193 33 31C33 32.3807 34.1193 33.5 35.5 33.5Z" fill="#18202A"/>
</svg>
