<svg width="48" height="48" viewBox="0 0 48 48" fill="none" xmlns="http://www.w3.org/2000/svg">
<path d="M14 7H22C25.866 7 29 10.134 29 14V16C29 16.8284 29.6716 17.5 30.5 17.5C31.3284 17.5 32 16.8284 32 16V14C32 8.47715 27.5228 4 22 4H14C8.47715 4 4 8.47715 4 14V34C4 39.5228 8.47715 44 14 44H22C27.5228 44 32 39.5228 32 34V32.2C32 31.3716 31.3284 30.7 30.5 30.7C29.6716 30.7 29 31.3716 29 32.2V34C29 37.866 25.866 41 22 41H14C10.134 41 7 37.866 7 34V14C7 10.134 10.134 7 14 7Z" fill="#18202A"/>
<path fill-rule="evenodd" clip-rule="evenodd" d="M34.9393 16.9393C35.5251 16.3536 36.4749 16.3536 37.0607 16.9393L43.0607 22.9393C43.6464 23.5251 43.6464 24.4749 43.0607 25.0607L37.0607 31.0607C36.4749 31.6464 35.5251 31.6464 34.9393 31.0607C34.3536 30.4749 34.3536 29.5251 34.9393 28.9393L38.3787 25.5H18C17.1716 25.5 16.5 24.8284 16.5 24C16.5 23.1716 17.1716 22.5 18 22.5H38.3787L34.9393 19.0607C34.3536 18.4749 34.3536 17.5251 34.9393 16.9393Z" fill="#18202A"/>
</svg>
