<svg width="48" height="48" viewBox="0 0 48 48" fill="none" xmlns="http://www.w3.org/2000/svg">
<g clip-path="url(#clip0_3294_8876)">
<path d="M8 10C8 11.1046 7.10457 12 6 12C4.89543 12 4 11.1046 4 10C4 8.89543 4.89543 8 6 8C7.10457 8 8 8.89543 8 10Z" fill="#18202A"/>
<path d="M14 10C14 8.89543 14.8954 8 16 8H42C43.1046 8 44 8.89543 44 10C44 11.1046 43.1046 12 42 12H16C14.8954 12 14 11.1046 14 10Z" fill="#18202A"/>
<path d="M16 22C14.8954 22 14 22.8954 14 24C14 25.1046 14.8954 26 16 26H42C43.1046 26 44 25.1046 44 24C44 22.8954 43.1046 22 42 22H16Z" fill="#18202A"/>
<path d="M16 36C14.8954 36 14 36.8954 14 38C14 39.1046 14.8954 40 16 40H42C43.1046 40 44 39.1046 44 38C44 36.8954 43.1046 36 42 36H16Z" fill="#18202A"/>
<path d="M8 24C8 25.1046 7.10457 26 6 26C4.89543 26 4 25.1046 4 24C4 22.8954 4.89543 22 6 22C7.10457 22 8 22.8954 8 24Z" fill="#18202A"/>
<path d="M8 38C8 39.1046 7.10457 40 6 40C4.89543 40 4 39.1046 4 38C4 36.8954 4.89543 36 6 36C7.10457 36 8 36.8954 8 38Z" fill="#18202A"/>
</g>
<defs>
<clipPath id="clip0_3294_8876">
<rect width="48" height="48" fill="white"/>
</clipPath>
</defs>
</svg>
