<svg width="48" height="48" viewBox="0 0 48 48" fill="none" xmlns="http://www.w3.org/2000/svg">
<path fill-rule="evenodd" clip-rule="evenodd" d="M8.41418 5.58579C7.63313 4.80474 6.3668 4.80474 5.58576 5.58579C4.80471 6.36683 4.80471 7.63317 5.58576 8.41421L10.5865 13.415C6.91675 16.3865 4.15626 19.8912 2.64472 22.0288C1.80251 23.2198 1.80251 24.7802 2.64472 25.9712C5.66935 30.2485 13.6949 40 24 40C27.7032 40 31.112 38.7407 34.1002 36.9287L39.5858 42.4142C40.3668 43.1953 41.6331 43.1953 42.4142 42.4142C43.1952 41.6332 43.1952 40.3668 42.4142 39.5858L37.4134 34.585L37.4151 34.5836L30.8935 28.062L30.8923 28.0639L27.8645 25.0361L27.8651 25.0336L22.9663 20.1348L22.9639 20.1355L19.936 17.1076L19.938 17.1065L13.9017 11.0701L13.8997 11.0713L8.41418 5.58579ZM17.1076 19.9361C16.4038 21.1271 16 22.5164 16 24C16 28.4183 19.5817 32 24 32C25.4836 32 26.8729 31.5961 28.0639 30.8924L25.0361 27.8645C24.7056 27.9529 24.3583 28 24 28C21.7908 28 20 26.2091 20 24C20 23.6417 20.0471 23.2944 20.1355 22.9639L17.1076 19.9361Z" fill="#18202A"/>
<path d="M24.504 16.0156C28.5208 16.2653 31.7346 19.4792 31.9844 23.496L40.3842 31.8958C42.5873 29.6852 44.2846 27.4853 45.3552 25.9712C46.1974 24.7802 46.1974 23.2198 45.3552 22.0288C42.3306 17.7514 34.305 8 24 8C21.7825 8 19.6705 8.45154 17.6913 9.2029L24.504 16.0156Z" fill="#18202A"/>
</svg>
