<svg width="48" height="48" viewBox="0 0 48 48" fill="none" xmlns="http://www.w3.org/2000/svg">
<g clip-path="url(#clip0_3444_9417)">
<path d="M34.7072 5.29252C32.1075 2.69286 27.8926 2.69286 25.2929 5.29252L24.7069 5.87852L34.1212 15.2927L34.7072 14.7067C37.3068 12.1071 37.3068 7.89218 34.7072 5.29252Z" fill="#18202A"/>
<path d="M5.31342 24.2726L21.8378 8.66625L31.2526 18.081L14.6867 33.7266C14.5584 33.8478 14.4003 33.9329 14.2285 33.9732L4.23153 36.3187C3.21062 36.5583 2.29846 35.6317 2.55392 34.6147L5.03017 24.756C5.07659 24.5712 5.17487 24.4035 5.31342 24.2726Z" fill="#18202A"/>
<path d="M24.1142 33.0033C24.8717 33.0466 25.5394 33.5148 25.8383 34.2122L28.059 39.3939C28.2166 39.7616 28.5782 40 28.9782 40H29.0218C29.4218 40 29.7834 39.7616 29.941 39.3939L32.1617 34.2122C32.4606 33.5148 33.1283 33.0466 33.8858 33.0033C34.6433 32.9599 35.3601 33.349 35.7365 34.0077L38.2969 38.4884C38.831 39.4231 39.825 40 40.9016 40H44C45.1046 40 46 40.8954 46 42C46 43.1046 45.1046 44 44 44H40.9016C38.3896 44 36.0702 42.654 34.8239 40.473L34.2562 39.4794L33.6175 40.9696C32.8296 42.808 31.022 44 29.0218 44H28.9782C26.978 44 25.1704 42.808 24.3825 40.9696L23.7438 39.4794L23.1761 40.473C21.9298 42.654 19.6104 44 17.0984 44H4C2.89543 44 2 43.1046 2 42C2 40.8954 2.89543 40 4 40H17.0984C18.175 40 19.169 39.4231 19.7031 38.4884L22.2635 34.0077C22.6399 33.349 23.3567 32.9599 24.1142 33.0033Z" fill="#18202A"/>
</g>
<defs>
<clipPath id="clip0_3444_9417">
<rect width="48" height="48" fill="white"/>
</clipPath>
</defs>
</svg>
