<svg width="48" height="48" viewBox="0 0 48 48" fill="none" xmlns="http://www.w3.org/2000/svg">
<path fill-rule="evenodd" clip-rule="evenodd" d="M24.0002 13.4142C24.7812 12.6332 24.7812 11.3668 24.0002 10.5858C23.2191 9.80474 21.9528 9.80474 21.1717 10.5858L9.17172 22.5858C8.39068 23.3668 8.39068 24.6332 9.17172 25.4142L21.1717 37.4142C21.9528 38.1953 23.2191 38.1953 24.0002 37.4142C24.7812 36.6332 24.7812 35.3668 24.0002 34.5858L13.4144 24L24.0002 13.4142ZM38.8286 13.4142C39.6096 12.6332 39.6096 11.3668 38.8286 10.5858C38.0475 9.80474 36.7812 9.80474 36.0001 10.5858L24.0001 22.5858C23.2191 23.3668 23.2191 24.6332 24.0001 25.4142L36.0001 37.4142C36.7812 38.1953 38.0475 38.1953 38.8286 37.4142C39.6096 36.6332 39.6096 35.3668 38.8286 34.5858L28.2428 24L38.8286 13.4142Z" fill="#18202A"/>
</svg>
