<svg width="48" height="48" viewBox="0 0 48 48" fill="none" xmlns="http://www.w3.org/2000/svg">
<path fill-rule="evenodd" clip-rule="evenodd" d="M14.5 22.3787V11C14.5 9.80653 14.9741 8.66193 15.818 7.81802C16.6619 6.9741 17.8065 6.5 19 6.5C19.5182 6.5 20.0272 6.58939 20.5064 6.75963C20.5336 6.25083 20.6471 5.74974 20.8425 5.27792C21.0687 4.73196 21.4002 4.23588 21.818 3.81802C22.2359 3.40016 22.732 3.06869 23.2779 2.84254C23.8239 2.6164 24.4091 2.5 25 2.5C25.5909 2.5 26.1761 2.6164 26.7221 2.84254C27.268 3.06869 27.7641 3.40016 28.182 3.81802C28.5998 4.23588 28.9313 4.73196 29.1575 5.27792C29.3529 5.74974 29.4664 6.25084 29.4936 6.75964C29.9728 6.58939 30.4818 6.5 31 6.5C32.1935 6.5 33.3381 6.97411 34.182 7.81802C34.9691 8.60511 35.4345 9.65375 35.4936 10.7597C35.9728 10.5894 36.4818 10.5 37 10.5C38.1934 10.5 39.338 10.9741 40.182 11.818C41.0258 12.6619 41.5 13.8065 41.5 15V32C41.5 35.5804 40.0776 39.0142 37.546 41.546C35.0142 44.0776 31.5804 45.5 28 45.5H24.4114C22.1774 45.4996 19.9783 44.9446 18.0114 43.8852C16.0431 42.8248 14.368 41.2908 13.1384 39.4236C13.0058 39.2218 12.8737 39.0196 12.7421 38.8172C12.0839 37.8068 9.86223 33.9302 6.12069 27.2795C5.54603 26.258 5.39255 25.0528 5.69285 23.92C5.99315 22.7871 6.72355 21.8161 7.72871 21.2135C8.72919 20.6132 9.90111 20.3647 11.0592 20.5069C12.2172 20.6491 13.2952 21.1748 14.1207 21.9993L14.5 22.3787ZM24.426 5.61418C24.608 5.5388 24.803 5.5 25 5.5C25.197 5.5 25.392 5.5388 25.574 5.61418C25.756 5.68956 25.9214 5.80005 26.0607 5.93934C26.1999 6.07863 26.3104 6.24399 26.3858 6.42597C26.4612 6.60796 26.5 6.80302 26.5 7V24C26.5 24.8284 27.1716 25.5 28 25.5C28.8284 25.5 29.5 24.8284 29.5 24V11C29.5 10.6022 29.658 10.2206 29.9393 9.93934C30.2206 9.65804 30.6022 9.5 31 9.5C31.3978 9.5 31.7794 9.65803 32.0607 9.93934C32.342 10.2206 32.5 10.6022 32.5 11V24C32.5 24.8284 33.1716 25.5 34 25.5C34.8284 25.5 35.5 24.8284 35.5 24L35.5 15C35.5 14.6022 35.658 14.2206 35.9394 13.9393C36.2206 13.658 36.6022 13.5 37 13.5C37.3978 13.5 37.7794 13.658 38.0606 13.9393C38.342 14.2206 38.5 14.6022 38.5 15V32C38.5 34.7848 37.3938 37.4554 35.4246 39.4246C33.4554 41.3938 30.7848 42.5 28 42.5H24.4136C22.6755 42.4998 20.9644 42.0684 19.4342 41.244C17.9033 40.4192 16.6012 39.2272 15.6447 37.775C15.515 37.5774 15.3866 37.381 15.2579 37.1828C14.6681 36.2772 12.5098 32.5178 8.73533 25.8085C8.54379 25.4681 8.49259 25.0663 8.59269 24.6887C8.69279 24.311 8.93627 23.9874 9.27131 23.7865C9.69835 23.5303 10.1992 23.4238 10.6935 23.4845C11.1878 23.5452 11.6476 23.7693 11.9999 24.1213L14.9363 27.0576C14.946 27.0674 14.9558 27.077 14.9658 27.0865C15.1014 27.2157 15.2552 27.3146 15.4187 27.3832C15.5975 27.4584 15.7939 27.5 16 27.5C16.8284 27.5 17.5 26.8284 17.5 26V11C17.5 10.6022 17.658 10.2206 17.9393 9.93934C18.2206 9.65804 18.6022 9.5 19 9.5C19.3978 9.5 19.7794 9.65804 20.0607 9.93934C20.342 10.2206 20.5 10.6022 20.5 11V24C20.5 24.8284 21.1716 25.5 22 25.5C22.8284 25.5 23.5 24.8284 23.5 24V7C23.5 6.80302 23.5388 6.60796 23.6142 6.42597C23.6896 6.24399 23.8001 6.07863 23.9393 5.93934C24.0786 5.80005 24.244 5.68956 24.426 5.61418Z" fill="#18202A"/>
</svg>
