<svg width="48" height="48" viewBox="0 0 48 48" fill="none" xmlns="http://www.w3.org/2000/svg">
<path d="M5.0409 23.3818V23.2792L5.03389 23.1767C4.38905 13.766 13.2918 5 24.0205 5C34.6927 5 43 12.2408 43 23.3818C43 23.9857 42.9692 24.5856 42.9085 25.1795L45.1693 29.1758C45.7153 27.321 46 25.3731 46 23.3818C46 10.4 36.1594 2 24.0205 2C11.8815 2 1.25602 11.9273 2.0409 23.3818C2.0409 30.2264 4.77644 35.585 9.1421 39.1219L9.56231 44.1644C9.6776 45.548 11.1329 46.396 12.3935 45.8142L17.8453 43.298C18.5595 43.4671 19.2887 43.6062 20.031 43.7147C19.9381 42.7377 20.0516 41.7247 20.4068 40.7377C19.7697 40.6429 19.1457 40.5229 18.5365 40.3787L17.5286 40.1401L12.4333 42.4918L12.0254 37.5969L11.0306 36.7909C7.39764 33.8476 5.0409 29.3603 5.0409 23.3818Z" fill="#18202A"/>
<path fill-rule="evenodd" clip-rule="evenodd" d="M45.5947 46H26.4053C24.5609 46 23.4048 43.9684 24.3204 42.3362L33.9151 25.2329C34.8373 23.589 37.1627 23.589 38.0849 25.2329L47.6796 42.3362C48.5953 43.9684 47.4392 46 45.5947 46ZM36 30C35.1716 30 34.5 30.6716 34.5 31.5V35.5C34.5 36.3284 35.1716 37 36 37C36.8285 37 37.5 36.3284 37.5 35.5V31.5C37.5 30.6716 36.8285 30 36 30ZM36 39C35.1716 39 34.5 39.6716 34.5 40.5C34.5 41.3284 35.1716 42 36 42C36.8285 42 37.5 41.3284 37.5 40.5C37.5 39.6716 36.8285 39 36 39Z" fill="#18202A"/>
</svg>
