<svg width="48" height="48" viewBox="0 0 48 48" fill="none" xmlns="http://www.w3.org/2000/svg">
<path d="M0 19.9456C0 16.6318 2.68629 13.9456 6 13.9456H8V33.9456H6C2.68629 33.9456 0 31.2593 0 27.9456V19.9456Z" fill="#18202A"/>
<path d="M12 35.7736V12.1176L21.6268 3.31911C24.8356 0.386441 30 2.66284 30 7.00986V40.8818C30 45.2289 24.8354 47.5052 21.6267 44.5724L12 35.7736Z" fill="#18202A"/>
<path d="M41.0611 14.1408C42.0364 13.6222 43.2474 13.9924 43.7659 14.9677C45.2802 17.8156 46.0721 21.0961 46.0721 24.4264C46.0721 27.7566 45.2802 31.0372 43.7659 33.885C43.2474 34.8603 42.0364 35.2305 41.0611 34.712C40.0858 34.1934 39.7156 32.9824 40.2341 32.0071C41.4262 29.7651 42.0721 27.1338 42.0721 24.4264C42.0721 21.7189 41.4262 19.0876 40.2341 16.8456C39.7156 15.8703 40.0858 14.6593 41.0611 14.1408Z" fill="#18202A"/>
<path d="M34.8788 17.577C35.7934 16.9577 37.0369 17.1972 37.6562 18.1119C38.9071 19.9596 39.5638 22.2222 39.5638 24.5189C39.5638 26.8157 38.9071 29.0783 37.6562 30.926C37.0369 31.8407 35.7934 32.0801 34.8788 31.4609C33.9641 30.8416 33.7246 29.5982 34.3439 28.6835C35.1161 27.5428 35.5638 26.0725 35.5638 24.5189C35.5638 22.9654 35.1161 21.495 34.3439 20.3544C33.7246 19.4397 33.9641 18.1962 34.8788 17.577Z" fill="#18202A"/>
</svg>
