<svg width="48" height="48" viewBox="0 0 48 48" fill="none" xmlns="http://www.w3.org/2000/svg">
<g clip-path="url(#clip0_3893_8951)">
<path d="M39.0001 21.5C39.0001 20.6716 39.6717 20 40.5001 20C41.3285 20 42.0001 20.6716 42.0001 21.5V38C42.0001 42.4183 38.4184 46 34.0001 46H14.0001C9.58184 46 6.00012 42.4183 6.00012 38V10C6.00012 5.58172 9.58184 2 14.0001 2H24.5C25.3284 2 26 2.67157 26 3.5C26 4.32843 25.3284 5 24.5 5L14.0001 5C11.2387 5 9.00012 7.23858 9.00012 10L9.00012 38C9.00012 40.7614 11.2387 43 14.0001 43H34.0001C36.7615 43 39.0001 40.7614 39.0001 38V21.5Z" fill="#18202A"/>
<path d="M15.5 26C14.6716 26 14 26.6716 14 27.5C14 28.3284 14.6716 29 15.5 29H24.5C25.3284 29 26 28.3284 26 27.5C26 26.6716 25.3284 26 24.5 26H15.5Z" fill="#18202A"/>
<path d="M15.5 18C14.6716 18 14 18.6716 14 19.5C14 20.3284 14.6716 21 15.5 21H20.5C21.3284 21 22 20.3284 22 19.5C22 18.6716 21.3284 18 20.5 18H15.5Z" fill="#18202A"/>
<path d="M15.5 34C14.6716 34 14 34.6716 14 35.5C14 36.3284 14.6716 37 15.5 37H32.5C33.3284 37 34 36.3284 34 35.5C34 34.6716 33.3284 34 32.5 34H15.5Z" fill="#18202A"/>
<path d="M26.5 9.5C25.6716 9.5 25 10.1716 25 11C25 11.8284 25.6716 12.5 26.5 12.5H32V17.5C32 18.3284 32.6716 19 33.5 19C34.3284 19 35 18.3284 35 17.5V12.5H40.5C41.3284 12.5 42 11.8284 42 11C42 10.1716 41.3284 9.5 40.5 9.5H35V3.5C35 2.67157 34.3284 2 33.5 2C32.6716 2 32 2.67157 32 3.5V9.5H26.5Z" fill="#18202A"/>
</g>
<defs>
<clipPath id="clip0_3893_8951">
<rect width="48" height="48" fill="white"/>
</clipPath>
</defs>
</svg>
