<svg width="48" height="48" viewBox="0 0 48 48" fill="none" xmlns="http://www.w3.org/2000/svg">
<path fill-rule="evenodd" clip-rule="evenodd" d="M24 43C13.5066 43 5 34.4934 5 24C5 13.5066 13.5066 5 24 5C34.4934 5 43 13.5066 43 24C43 34.4934 34.4934 43 24 43ZM24 46C11.8497 46 2 36.1503 2 24C2 11.8497 11.8497 2 24 2C36.1503 2 46 11.8497 46 24C46 36.1503 36.1503 46 24 46Z" fill="#18202A"/>
<path fill-rule="evenodd" clip-rule="evenodd" d="M23.0607 14.9393C22.4749 14.3536 21.5251 14.3536 20.9393 14.9393L12.9393 22.9393C12.3536 23.5251 12.3536 24.4749 12.9393 25.0607L20.9393 33.0607C21.5251 33.6464 22.4749 33.6464 23.0607 33.0607C23.6464 32.4749 23.6464 31.5251 23.0607 30.9393L17.6213 25.5H34C34.8284 25.5 35.5 24.8284 35.5 24C35.5 23.1716 34.8284 22.5 34 22.5H17.6213L23.0607 17.0607C23.6464 16.4749 23.6464 15.5251 23.0607 14.9393Z" fill="#18202A"/>
</svg>
