<svg width="48" height="48" viewBox="0 0 48 48" fill="none" xmlns="http://www.w3.org/2000/svg">
<path fill-rule="evenodd" clip-rule="evenodd" d="M24 13C25.6569 13 27 11.6569 27 10C27 8.34315 25.6569 7 24 7C22.3431 7 21 8.34315 21 10C21 11.6569 22.3431 13 24 13ZM30 10C30 12.7958 28.0878 15.1449 25.5 15.811V22.5H39.5C40.6046 22.5 41.5 23.3954 41.5 24.5V25.5V32.189C44.0878 32.8551 46 35.2042 46 38C46 41.3137 43.3137 44 40 44C36.6863 44 34 41.3137 34 38C34 35.2042 35.9122 32.8551 38.5 32.189V25.5H25.5V32.189C28.0878 32.8551 30 35.2042 30 38C30 41.3137 27.3137 44 24 44C20.6863 44 18 41.3137 18 38C18 35.2042 19.9122 32.8551 22.5 32.189V25.5H9.5V32.189C12.0878 32.8551 14 35.2042 14 38C14 41.3137 11.3137 44 8 44C4.68629 44 2 41.3137 2 38C2 35.2042 3.91216 32.8551 6.5 32.189V25.5V24.5C6.5 23.3954 7.39543 22.5 8.5 22.5H22.5V15.811C19.9122 15.1449 18 12.7958 18 10C18 6.68629 20.6863 4 24 4C27.3137 4 30 6.68629 30 10ZM11 38C11 39.6569 9.65685 41 8 41C6.34315 41 5 39.6569 5 38C5 36.3431 6.34315 35 8 35C9.65685 35 11 36.3431 11 38ZM27 38C27 39.6569 25.6569 41 24 41C22.3431 41 21 39.6569 21 38C21 36.3431 22.3431 35 24 35C25.6569 35 27 36.3431 27 38ZM43 38C43 39.6569 41.6569 41 40 41C38.3431 41 37 39.6569 37 38C37 36.3431 38.3431 35 40 35C41.6569 35 43 36.3431 43 38Z" fill="#18202A"/>
</svg>
