<svg width="48" height="48" viewBox="0 0 48 48" fill="none" xmlns="http://www.w3.org/2000/svg">
<path fill-rule="evenodd" clip-rule="evenodd" d="M24 22C29.3333 22 32 17 32 10.75C32 5.75 29.3333 2 24 2C18.6667 2 16 5.75 16 10.75C16 17 18.6667 22 24 22ZM24.0001 26C25.9455 26 27.8261 26.2778 29.6042 26.7958C26.2014 29.3498 24 33.4178 24 38C24 40.9386 24.9054 43.6658 26.4525 45.9178C25.642 45.9723 24.8243 46 24 46C20.9052 46 17.9016 45.6095 15.0359 44.875C12.5978 44.2502 10.5314 42.6171 9.39972 40.369C9.36839 40.3068 9.33726 40.2444 9.30633 40.1819C7.74188 37.0227 8.27388 33.1522 10.9433 30.8496C14.4469 27.8275 19.0101 26 24.0001 26ZM48 38C48 32.4772 43.5229 28 38 28C32.4772 28 28 32.4772 28 38C28 43.5228 32.4772 48 38 48C43.5228 48 48 43.5228 48 38ZM38.0607 44.0607C38.6464 43.4749 38.6464 42.5251 38.0607 41.9393L35.6213 39.5H44C44.8284 39.5 45.5 38.8284 45.5 38C45.5 37.1716 44.8284 36.5 44 36.5H35.6213L38.0607 34.0607C38.6464 33.4749 38.6464 32.5251 38.0607 31.9393C37.4749 31.3536 36.5251 31.3536 35.9393 31.9393L30.9393 36.9393C30.3536 37.5251 30.3536 38.4749 30.9393 39.0607L35.9393 44.0607C36.5251 44.6464 37.4749 44.6464 38.0607 44.0607Z" fill="#18202A"/>
</svg>
