<svg width="48" height="48" viewBox="0 0 48 48" fill="none" xmlns="http://www.w3.org/2000/svg">
<g clip-path="url(#clip0_3075_8902)">
<path d="M47.4346 5.39357C48.2042 4.60129 48.1859 3.33509 47.3936 2.56544C46.6013 1.79579 45.3351 1.81414 44.5655 2.60643L26.6123 21.0877L19.4731 13.3139C18.7259 12.5003 17.4607 12.4465 16.6472 13.1936C15.8337 13.9407 15.7798 15.2059 16.527 16.0195L25.0984 25.3528C25.4706 25.7581 25.9932 25.9921 26.5434 25.9998C27.0936 26.0075 27.6226 25.7882 28.006 25.3936L47.4346 5.39357Z" fill="#18202A"/>
<path d="M2 12C2 7.58172 5.58172 4 10 4H37.6351L26.6939 15.2629L22.4192 10.6082C20.1778 8.16759 16.3822 8.00608 13.9416 10.2475C11.501 12.4889 11.3394 16.2845 13.5809 18.7251L22.1523 28.0584C23.2688 29.2742 24.8369 29.9763 26.4874 29.9994C28.1379 30.0226 29.725 29.3647 30.8751 28.1807L46 12.611V30C46 34.4183 42.4183 38 38 38H25.8182L12.9111 45.6745C11.4148 46.5642 9.57499 45.25 9.93127 43.5461L11.0909 38H10C5.58172 38 2 34.4183 2 30V12Z" fill="#18202A"/>
</g>
<defs>
<clipPath id="clip0_3075_8902">
<rect width="48" height="48" fill="white"/>
</clipPath>
</defs>
</svg>
