<svg width="48" height="48" viewBox="0 0 48 48" fill="none" xmlns="http://www.w3.org/2000/svg">
<path d="M11 30.6309L9.7075 31.4368L10.6821 26.5494H6.18182C4.5571 26.5494 3 25.1261 3 23.0672V8.48221C3 6.42331 4.5571 5 6.18182 5H27.8182C29.4429 5 31 6.4233 31 8.48221V9H34V8.48221C34 4.90218 31.2323 2 27.8182 2H6.18182C2.7677 2 0 4.90218 0 8.48221V23.0672C0 25.8596 1.68391 28.2397 4.04503 29.1517C4.71095 29.4089 5.43074 29.5494 6.18182 29.5494H7.02479L6.12871 34.0432C5.8534 35.4239 7.27509 36.4887 8.4313 35.7678L11 34.1663V30.6309Z" fill="#18202A"/>
<path fill-rule="evenodd" clip-rule="evenodd" d="M43.955 39.1517C46.3161 38.2397 48 35.8596 48 33.0672V18.4822C48 14.9022 45.2323 12 41.8182 12H20.1818C16.7677 12 14 14.9022 14 18.4822V33.0672C14 36.6472 16.7677 39.5494 20.1818 39.5494H29.595L39.5687 45.7678C40.7249 46.4887 42.1466 45.4239 41.8713 44.0432L40.9752 39.5494H41.8182C42.5693 39.5494 43.289 39.4089 43.955 39.1517ZM30.4537 36.5494L38.2925 41.4368L37.3179 36.5494H41.8182C43.4429 36.5494 45 35.1261 45 33.0672V18.4822C45 16.4233 43.4429 15 41.8182 15H20.1818C18.5571 15 17 16.4233 17 18.4822V33.0672C17 35.1261 18.5571 36.5494 20.1818 36.5494H30.4537Z" fill="#18202A"/>
</svg>
