<svg width="64" height="64" viewBox="0 0 64 64" fill="none" xmlns="http://www.w3.org/2000/svg">
<path d="M44.046 30.5516C44.8459 31.3133 44.8767 32.5793 44.115 33.3792L28.8769 49.3792C28.4868 49.7887 27.9416 50.014 27.3762 49.9992C26.8108 49.9843 26.2781 49.7308 25.9101 49.3014L19.8148 42.1903C19.096 41.3517 19.1931 40.0891 20.0318 39.3702C20.8704 38.6514 22.133 38.7485 22.8519 39.5871L27.5067 45.0178L41.2184 30.6205C41.9802 29.8207 43.2461 29.7898 44.046 30.5516Z" fill="#18202A"/>
<path fill-rule="evenodd" clip-rule="evenodd" d="M10.6929 18.0135C11.0252 13.9006 14.4682 10.6665 18.6666 10.6665H45.3333C49.5317 10.6665 52.9748 13.9006 53.307 18.0135C54.8065 19.3437 55.8026 21.2287 55.9737 23.3468C57.6256 24.8123 58.6666 26.9512 58.6666 29.3332V50.6665C58.6666 55.0848 55.0849 58.6665 50.6666 58.6665H13.3333C8.91503 58.6665 5.33331 55.0848 5.33331 50.6665V29.3332C5.33331 26.9512 6.37434 24.8124 8.02625 23.3468C8.19736 21.2288 9.19348 19.3437 10.6929 18.0135ZM15.6795 16.0061C16.4121 15.1841 17.4789 14.6665 18.6666 14.6665H45.3333C46.521 14.6665 47.5878 15.1842 48.3204 16.0061C48.2141 16.002 48.1073 15.9998 48 15.9998H16C15.8927 15.9998 15.7858 16.002 15.6795 16.0061ZM13.0129 21.3395C13.1192 21.3353 13.226 21.3332 13.3333 21.3332H50.6666C50.774 21.3332 50.8808 21.3353 50.9871 21.3395C50.2545 20.5175 49.1877 19.9998 48 19.9998H16C14.8123 19.9998 13.7455 20.5175 13.0129 21.3395ZM54.6666 29.3332C54.6666 27.124 52.8758 25.3332 50.6666 25.3332H13.3333C11.1242 25.3332 9.33331 27.124 9.33331 29.3332V50.6665C9.33331 52.8756 11.1242 54.6665 13.3333 54.6665H50.6666C52.8758 54.6665 54.6666 52.8756 54.6666 50.6665V29.3332Z" fill="#18202A"/>
</svg>
