<svg width="64" height="64" viewBox="0 0 64 64" fill="none" xmlns="http://www.w3.org/2000/svg">
<path fill-rule="evenodd" clip-rule="evenodd" d="M6.33331 2.66699C5.78103 2.66699 5.33331 3.11471 5.33331 3.66699V5.66699C5.33331 6.21928 5.78103 6.66699 6.33331 6.66699H10.6666V53.3337C10.6666 53.8358 10.7129 54.3272 10.8014 54.8037C10.7132 55.1884 10.6666 55.5889 10.6666 56.0003C10.6666 58.9448 13.0527 61.3319 15.9967 61.3337H16H16.0032C16.4135 61.3334 16.8129 61.2868 17.1966 61.1989C17.6731 61.2874 18.1645 61.3337 18.6666 61.3337H45.3333C45.8355 61.3337 46.3268 61.2874 46.8033 61.1989C47.187 61.2868 47.5865 61.3334 47.9967 61.3337H48H48.0032C50.9472 61.3319 53.3333 58.9448 53.3333 56.0003C53.3333 55.5889 53.2867 55.1884 53.1985 54.8037C53.287 54.3272 53.3333 53.8358 53.3333 53.3337V6.66699H57.6666C58.2189 6.66699 58.6666 6.21928 58.6666 5.66699V3.66699C58.6666 3.11471 58.2189 2.66699 57.6666 2.66699H53.3333H10.6666H6.33331ZM49.3333 50.835V6.66699H14.6666V50.835C15.0928 50.7253 15.5396 50.667 16 50.667C18.9455 50.667 21.3333 53.0548 21.3333 56.0003C21.3333 56.4607 21.275 56.9075 21.1653 57.3337H42.8347C42.725 56.9075 42.6666 56.4607 42.6666 56.0003C42.6666 53.0548 45.0545 50.667 48 50.667C48.4604 50.667 48.9071 50.7253 49.3333 50.835ZM41.4142 32.5861C42.1952 33.3672 42.1952 34.6335 41.4142 35.4145L33.4142 43.4145C32.6331 44.1956 31.3668 44.1956 30.5858 43.4145L22.5858 35.4145C21.8047 34.6335 21.8047 33.3672 22.5858 32.5861C23.3668 31.8051 24.6331 31.8051 25.4142 32.5861L30 37.1719V20.667C30 19.5624 30.8954 18.667 32 18.667C33.1046 18.667 34 19.5624 34 20.667V37.1719L38.5858 32.5861C39.3668 31.8051 40.6331 31.8051 41.4142 32.5861Z" fill="#18202A"/>
</svg>
