<svg width="64" height="64" viewBox="0 0 64 64" fill="none" xmlns="http://www.w3.org/2000/svg">
<path fill-rule="evenodd" clip-rule="evenodd" d="M7.40456 6.29679C6.22471 5.11694 4.42328 5.00546 3.38096 6.04778C2.33863 7.09011 2.45011 8.89154 3.62996 10.0714L5.84862 12.29C3.91577 13.7504 2.66667 16.0678 2.66667 18.677V40.0104C2.66667 44.4286 6.24839 48.0104 10.6667 48.0104H2.66667C1.19391 48.0104 0 49.2043 0 50.677C0 52.1498 1.19391 53.3437 2.66667 53.3437H46.9023L51.2621 57.7035C52.442 58.8834 54.2434 58.9949 55.2857 57.9525C56.328 56.9102 56.2166 55.1088 55.0367 53.9289L7.40456 6.29679ZM27.9302 34.3716L22.5965 29.038C20.1938 31.6275 18.6666 35.4877 18.6666 41.0702C18.6666 41.3711 18.8681 41.6346 19.1584 41.7136C19.4487 41.7925 19.7559 41.6672 19.9082 41.4077C21.6993 38.3562 23.1215 36.4982 25.2483 35.3578C26.0188 34.9446 26.894 34.6191 27.9302 34.3716Z" fill="#18202A"/>
<path d="M61.3333 18.677C61.3333 14.2588 57.7516 10.677 53.3333 10.677H19.312L33.1267 24.4917C33.6431 24.4492 34.1574 24.4232 34.6666 24.4113V20.013C34.6666 18.8252 36.1028 18.2303 36.9427 19.0702L45.9999 28.1274C46.5206 28.6481 46.5206 29.4923 45.9999 30.013L42.324 33.689L56.1394 47.5044C59.1735 46.3678 61.3333 43.4413 61.3333 40.0104V18.677Z" fill="#18202A"/>
<path d="M61.915 53.2801L56.6453 48.0104H61.3333C62.8061 48.0104 64 49.2043 64 50.677C64 51.95 63.1081 53.0146 61.915 53.2801Z" fill="#18202A"/>
</svg>
