<svg width="64" height="64" viewBox="0 0 64 64" fill="none" xmlns="http://www.w3.org/2000/svg">
<path fill-rule="evenodd" clip-rule="evenodd" d="M32 61.3333C48.2004 61.3333 61.3333 48.2003 61.3333 32C61.3333 15.7996 48.2004 2.66666 32 2.66666C15.7997 2.66666 2.66667 15.7996 2.66667 32C2.66667 48.2003 15.7997 61.3333 32 61.3333ZM36.5523 19.4477C35.5109 18.4063 33.8225 18.4063 32.7811 19.4477C31.7397 20.4891 31.7397 22.1775 32.7811 23.2189L38.8954 29.3333H18.6667C17.1939 29.3333 16 30.5272 16 32C16 33.4727 17.1939 34.6667 18.6667 34.6667H38.8954L32.7811 40.781C31.7397 41.8224 31.7397 43.5109 32.7811 44.5523C33.8225 45.5937 35.5109 45.5937 36.5523 44.5523L47.219 33.8856C48.2604 32.8442 48.2604 31.1558 47.219 30.1144L36.5523 19.4477Z" fill="#18202A"/>
</svg>
