<svg width="64" height="64" viewBox="0 0 64 64" fill="none" xmlns="http://www.w3.org/2000/svg">
<path d="M26.708 58.2861C26.5374 56.4925 26.8887 54.6079 27.8843 52.8479L40.0633 31.3193C43.5729 25.1156 52.4271 25.1156 55.9367 31.3193L60.2257 38.9009C60.9537 36.4279 61.3333 33.8306 61.3333 31.1756C61.3333 13.8665 48.2126 2.6665 32.0273 2.6665C15.842 2.6665 1.6747 15.9029 2.72121 31.1756C2.72121 40.3017 6.3686 47.4465 12.1895 52.1624L12.7497 58.8857C12.9035 60.7305 14.8439 61.8612 16.5247 61.0855L23.7938 57.7305C24.746 57.956 25.7183 58.1414 26.708 58.2861Z" fill="#18202A"/>
<path fill-rule="evenodd" clip-rule="evenodd" d="M60.7929 61.3332H35.2071C32.7478 61.3332 31.2063 58.6244 32.4272 56.4481L45.2201 33.6437C46.4497 31.4519 49.5503 31.4519 50.7799 33.6437L63.5728 56.4481C64.7937 58.6244 63.2522 61.3332 60.7929 61.3332ZM48 39.9998C46.5272 39.9998 45.3333 41.1937 45.3333 42.6665V47.9998C45.3333 49.4726 46.5272 50.6665 48 50.6665C49.4728 50.6665 50.6667 49.4726 50.6667 47.9998V42.6665C50.6667 41.1937 49.4728 39.9998 48 39.9998ZM48 53.3332C46.5272 53.3332 45.3333 54.5271 45.3333 55.9998C45.3333 57.4726 46.5272 58.6665 48 58.6665C49.4728 58.6665 50.6667 57.4726 50.6667 55.9998C50.6667 54.5271 49.4728 53.3332 48 53.3332Z" fill="#18202A"/>
</svg>
