<svg width="64" height="64" viewBox="0 0 64 64" fill="none" xmlns="http://www.w3.org/2000/svg">
<path fill-rule="evenodd" clip-rule="evenodd" d="M45.3337 53.3319C45.3337 51.8591 44.1398 50.6652 42.667 50.6652H8.00033C6.52757 50.6652 5.33366 51.8591 5.33366 53.3319C5.33366 54.8046 6.52757 55.9985 8.00033 55.9985H42.667C44.1398 55.9985 45.3337 54.8046 45.3337 53.3319Z" fill="#18202A"/>
<path fill-rule="evenodd" clip-rule="evenodd" d="M45.3337 10.6652C45.3337 9.19244 44.1398 7.99854 42.667 7.99854H8.00033C6.52757 7.99854 5.33366 9.19244 5.33366 10.6652C5.33366 12.138 6.52757 13.3319 8.00033 13.3319H42.667C44.1398 13.3319 45.3337 12.138 45.3337 10.6652Z" fill="#18202A"/>
<path d="M46.1147 25.8842C45.0733 24.8428 45.0733 23.1543 46.1147 22.1129C47.1561 21.0715 48.8446 21.0715 49.8859 22.1129L57.8859 30.1129C58.3328 30.5597 58.5879 31.1257 58.6513 31.7085C58.6982 32.1402 58.64 32.5811 58.4766 32.9898C58.3658 33.267 58.2066 33.5294 57.999 33.764C57.9582 33.8102 57.9158 33.8549 57.872 33.8981L49.8859 41.8842C48.8446 42.9256 47.1561 42.9256 46.1147 41.8842C45.0733 40.8428 45.0733 39.1543 46.1147 38.1129L49.5648 34.6628L7.99913 34.6458C6.52637 34.6452 5.33295 33.4508 5.33356 31.9781C5.33416 30.5053 6.52855 29.3119 8.00131 29.3125L49.56 29.3295L46.1147 25.8842Z" fill="#18202A"/>
</svg>
