<svg width="64" height="64" viewBox="0 0 64 64" fill="none" xmlns="http://www.w3.org/2000/svg">
<path fill-rule="evenodd" clip-rule="evenodd" d="M31.2059 14.9333C31.6061 15.3964 32.396 15.3964 32.7941 14.9333C35.872 11.3589 40.3977 8 45.2084 8C54.1006 8 61.3334 14.9688 61.3334 23.532C61.3334 28.4034 58.7499 32.2084 56.5834 34.5425C54.3385 36.9595 50.2568 41.5855 46.018 46.3897C42.9847 49.8275 39.8705 53.357 37.29 56.235C34.396 59.4626 29.604 59.4626 26.7101 56.235C24.1292 53.3567 21.0145 49.8265 17.9809 46.3883C13.7421 41.5842 9.66153 36.9595 7.41659 34.5425C5.25012 32.2084 2.66669 28.4034 2.66669 23.532C2.66669 14.9688 9.89945 8 18.7916 8C23.6023 8 28.128 11.3589 31.2059 14.9333ZM53.6517 31.8213C55.5008 29.8291 57.3334 26.9579 57.3334 23.532C57.3334 17.3175 52.0337 12 45.2084 12C42.1554 12 38.6425 14.2715 35.8252 17.5434C33.8265 19.8653 30.1702 19.8522 28.1796 17.5489L28.1748 17.5434C25.3575 14.2715 21.8446 12 18.7916 12C11.9663 12 6.66669 17.3175 6.66669 23.532C6.66669 26.9574 8.49862 29.8282 10.3474 31.8203C12.6158 34.2626 16.7757 38.9768 21.0558 43.8273C24.0811 47.2558 27.1669 50.7528 29.6882 53.5647C30.9925 55.0194 33.0075 55.0194 34.3118 53.5647C36.833 50.7529 39.9187 47.2561 42.9439 43.8277C47.2234 38.9778 51.3836 34.2633 53.6517 31.8213Z" fill="#18202A"/>
</svg>
