<svg width="64" height="64" viewBox="0 0 64 64" fill="none" xmlns="http://www.w3.org/2000/svg">
<path fill-rule="evenodd" clip-rule="evenodd" d="M18.6667 2.66699C12.7756 2.66699 8 7.44262 8 13.3337V50.667C8 56.558 12.7756 61.3337 18.6667 61.3337L18.6667 2.66699ZM21.3333 2.66699V61.3337H45.3333C51.2244 61.3337 56 56.558 56 50.667V13.3337C56 7.44262 51.2244 2.66699 45.3333 2.66699H21.3333ZM30.3333 13.3337C29.781 13.3337 29.3333 13.7814 29.3333 14.3337V17.667C29.3333 18.2193 29.781 18.667 30.3333 18.667H47C47.5523 18.667 48 18.2193 48 17.667V14.3337C48 13.7814 47.5523 13.3337 47 13.3337H30.3333ZM32 22.3337C32 21.7814 32.4477 21.3337 33 21.3337H44.3333C44.8856 21.3337 45.3333 21.7814 45.3333 22.3337V25.667C45.3333 26.2193 44.8856 26.667 44.3333 26.667H33C32.4477 26.667 32 26.2193 32 25.667V22.3337Z" fill="#18202A"/>
</svg>
