<svg width="64" height="64" viewBox="0 0 64 64" fill="none" xmlns="http://www.w3.org/2000/svg">
<path fill-rule="evenodd" clip-rule="evenodd" d="M25.4142 49.4142C26.1953 48.6332 26.1953 47.3668 25.4142 46.5858C24.6332 45.8047 23.3668 45.8047 22.5858 46.5858L18 51.1716L18 12.8284L22.5858 17.4142C23.3668 18.1953 24.6332 18.1953 25.4142 17.4142C26.1953 16.6332 26.1953 15.3668 25.4142 14.5858L17.4142 6.58579C16.6332 5.80474 15.3668 5.80474 14.5858 6.58579L6.58579 14.5858C5.80474 15.3668 5.80474 16.6332 6.58579 17.4142C7.36683 18.1953 8.63316 18.1953 9.41421 17.4142L14 12.8284L14 51.1716L9.41421 46.5858C8.63317 45.8047 7.36684 45.8047 6.58579 46.5858C5.80474 47.3668 5.80474 48.6332 6.58579 49.4142L14.5858 57.4142C15.3668 58.1953 16.6332 58.1953 17.4142 57.4142L25.4142 49.4142ZM34 16C32.8954 16 32 16.8954 32 18C32 19.1046 32.8954 20 34 20H56.6667C57.7712 20 58.6667 19.1046 58.6667 18C58.6667 16.8954 57.7712 16 56.6667 16H34ZM34 25.3333C32.8954 25.3333 32 26.2288 32 27.3333C32 28.4379 32.8954 29.3333 34 29.3333H56.6667C57.7712 29.3333 58.6667 28.4379 58.6667 27.3333C58.6667 26.2288 57.7712 25.3333 56.6667 25.3333H34ZM32 36.6667C32 35.5621 32.8954 34.6667 34 34.6667H56.6667C57.7712 34.6667 58.6667 35.5621 58.6667 36.6667C58.6667 37.7712 57.7712 38.6667 56.6667 38.6667H34C32.8954 38.6667 32 37.7712 32 36.6667ZM34 44C32.8954 44 32 44.8954 32 46C32 47.1046 32.8954 48 34 48H56.6667C57.7712 48 58.6667 47.1046 58.6667 46C58.6667 44.8954 57.7712 44 56.6667 44H34Z" fill="#18202A"/>
</svg>
