<svg width="64" height="64" viewBox="0 0 64 64" fill="none" xmlns="http://www.w3.org/2000/svg">
<g clip-path="url(#clip0_3444_9198)">
<path d="M16 7.99984C16 5.05432 18.3878 2.6665 21.3334 2.6665H42.6667C45.6122 2.6665 48 5.05432 48 7.99984V13.3332C48 15.8839 46.8063 18.1558 44.947 19.6207C42.6333 21.4436 40 23.721 40 26.6665V31.9998C40 33.5178 40.6342 34.8876 41.652 35.8589C40.5002 36.5616 39.4368 37.3949 38.4823 38.3382C36.9417 36.6738 36 34.4468 36 31.9998V26.6665C36 23.9366 37.2317 21.7619 38.5022 20.1992C39.7552 18.6581 41.3058 17.3972 42.4715 16.4787C43.4096 15.7397 44 14.6065 44 13.3332V7.99984C44 7.26346 43.4031 6.6665 42.6667 6.6665H21.3334C20.597 6.6665 20 7.26346 20 7.99984V13.3332C20 14.6065 20.5905 15.7397 21.5285 16.4787C22.6943 17.3972 24.2448 18.6581 25.4978 20.1992C26.7683 21.7619 28 23.9366 28 26.6665V31.9998C28 37.1545 23.8213 41.3332 18.6667 41.3332H14.0953C9.99257 41.3332 6.66669 44.6591 6.66669 48.7617C6.66669 49.0773 6.92252 49.3332 7.23811 49.3332H33.3839C33.3504 49.7732 33.3334 50.2179 33.3334 50.6665C33.3334 51.5733 33.403 52.4639 33.5372 53.3332H7.23811C4.71338 53.3332 2.66669 51.2865 2.66669 48.7617C2.66669 42.4499 7.78343 37.3332 14.0953 37.3332H18.6667C21.6122 37.3332 24 34.9454 24 31.9998V26.6665C24 23.721 21.3668 21.4436 19.0531 19.6207C17.1938 18.1558 16 15.8839 16 13.3332V7.99984Z" fill="#18202A"/>
<path d="M37.0031 61.3332C35.7674 59.7525 34.7999 57.9519 34.1694 55.9998H8.00002C6.52726 55.9998 5.33335 57.1937 5.33335 58.6665C5.33335 60.1393 6.52726 61.3332 8.00002 61.3332H37.0031Z" fill="#18202A"/>
<path d="M48.081 39.2523C48.862 40.0333 48.862 41.2997 48.081 42.0807L46.1618 43.9998H58.6667C59.7713 43.9998 60.6667 44.8953 60.6667 45.9998C60.6667 47.1044 59.7713 47.9998 58.6667 47.9998H41.3334C40.5245 47.9998 39.7952 47.5126 39.4857 46.7652C39.1761 46.0179 39.3472 45.1576 39.9192 44.5856L45.2525 39.2523C46.0336 38.4712 47.2999 38.4712 48.081 39.2523Z" fill="#18202A"/>
<path d="M51.9191 62.0807C51.138 61.2997 51.138 60.0333 51.9191 59.2523L53.8382 57.3332H41.3333C40.2287 57.3332 39.3333 56.4377 39.3333 55.3332C39.3333 54.2286 40.2287 53.3332 41.3333 53.3332H58.6666C59.4756 53.3332 60.2048 53.8205 60.5144 54.5678C60.824 55.3152 60.6528 56.1754 60.0808 56.7474L54.7475 62.0807C53.9665 62.8618 52.7001 62.8618 51.9191 62.0807Z" fill="#18202A"/>
</g>
<defs>
<clipPath id="clip0_3444_9198">
<rect width="64" height="64" fill="white"/>
</clipPath>
</defs>
</svg>
