<svg width="64" height="64" viewBox="0 0 64 64" fill="none" xmlns="http://www.w3.org/2000/svg">
<g clip-path="url(#clip0_2359_18350)">
<path d="M0 26.6669C0 22.2486 3.58172 18.6669 8 18.6669H10.6667V45.3336H8C3.58172 45.3336 0 41.7519 0 37.3336V26.6669Z" fill="#18202A"/>
<path d="M16 47.7709V16.2297L28.8358 4.49832C33.1141 0.588089 40 3.62328 40 9.41932V54.5819C40 60.378 33.1139 63.4131 28.8356 59.5027L16 47.7709Z" fill="#18202A"/>
<path d="M63.3823 26.0429C64.3289 24.9147 64.1818 23.2326 63.0536 22.286C61.9254 21.3393 60.2434 21.4865 59.2967 22.6147L54.4831 28.3513L49.6695 22.6147C48.7228 21.4865 47.0408 21.3393 45.9126 22.286C44.7844 23.2326 44.6372 24.9147 45.5839 26.0429L51.002 32.4999L45.5839 38.9569C44.6372 40.0851 44.7844 41.7672 45.9126 42.7138C47.0408 43.6605 48.7228 43.5133 49.6695 42.3851L54.4831 36.6485L59.2967 42.3851C60.2434 43.5133 61.9254 43.6605 63.0536 42.7138C64.1818 41.7672 64.329 40.0851 63.3823 38.9569L57.9642 32.4999L63.3823 26.0429Z" fill="#18202A"/>
</g>
<defs>
<clipPath id="clip0_2359_18350">
<rect width="64" height="64" fill="white"/>
</clipPath>
</defs>
</svg>
