<svg width="64" height="64" viewBox="0 0 64 64" fill="none" xmlns="http://www.w3.org/2000/svg">
<path d="M56.5834 34.5425C52.7318 38.6893 43.477 49.3348 37.29 56.235C34.396 59.4626 29.604 59.4626 26.71 56.235C20.523 49.3348 11.2682 38.6893 7.41658 34.5425C5.2501 32.2084 2.66667 28.4034 2.66667 23.532C2.66667 14.9688 9.89943 8 18.7916 8C23.6023 8 28.128 11.3589 31.2059 14.9333C31.6061 15.3964 32.396 15.3964 32.7941 14.9333C35.872 11.3589 40.3977 8 45.2084 8C54.1006 8 61.3333 14.9688 61.3333 23.532C61.3333 28.4034 58.7499 32.2084 56.5834 34.5425Z" fill="#18202A"/>
</svg>
