<svg width="64" height="64" viewBox="0 0 64 64" fill="none" xmlns="http://www.w3.org/2000/svg">
<path d="M8.69213 5.85019C7.90221 5.13759 6.68359 5.16173 5.92271 5.92261C5.1369 6.70841 5.1369 7.98246 5.92271 8.76827L12.2426 15.0881C10.1657 17.5118 8.54605 20.3051 7.47459 23.3329C7.10611 24.3742 7.65153 25.5171 8.69283 25.8855C9.73412 26.254 10.877 25.7086 11.2455 24.6673C12.1176 22.2028 13.4189 19.9219 15.0809 17.9265L46.0717 48.9173C43.4073 51.1304 40.2549 52.6855 36.8699 53.4514C33.2452 54.2715 29.4719 54.1601 25.9019 53.1275C22.3319 52.0949 19.0817 50.1747 16.4546 47.5463C16.4398 47.5315 16.4248 47.5169 16.4096 47.5026L7.71572 39.3332H16C17.1046 39.3332 18 38.4378 18 37.3333C18 36.2287 17.1046 35.3333 16 35.3333H2.66669C1.56212 35.3333 0.666687 36.2287 0.666687 37.3333V50.6666C0.666687 51.7712 1.56212 52.6666 2.66669 52.6666C3.77126 52.6666 4.66669 51.7712 4.66669 50.6666V41.957L13.6481 50.3966C16.7489 53.4914 20.5817 55.7526 24.7905 56.97C29.0095 58.1903 33.4689 58.322 37.7526 57.3528C41.8736 56.4204 45.7027 54.4983 48.9104 51.7559L55.2317 58.0772C56.0175 58.863 57.2915 58.863 58.0773 58.0772C58.8382 57.3163 58.8624 56.0977 58.1497 55.3078L8.69213 5.85019Z" fill="#18202A"/>
<path d="M54.1432 45.6444C55.1078 44.0806 55.9077 42.4129 56.5255 40.6673C56.8939 39.626 56.3485 38.4832 55.3072 38.1147C54.2659 37.7462 53.1231 38.2916 52.7546 39.3329C52.3387 40.5083 51.8251 41.6418 51.2214 42.7226L54.1432 45.6444Z" fill="#18202A"/>
<path d="M21.2835 12.7847C23.1088 11.7685 25.0766 11.0135 27.1302 10.5488C30.7548 9.7287 34.5282 9.84015 38.0981 10.8728C41.6681 11.9054 44.9183 13.8255 47.5455 16.454C47.5602 16.4688 47.5752 16.4833 47.5905 16.4976L56.2842 24.6666H48C46.8955 24.6666 46 25.562 46 26.6666C46 27.7712 46.8955 28.6666 48 28.6666H61.3334C62.4379 28.6666 63.3334 27.7712 63.3334 26.6666V13.3333C63.3334 12.2287 62.4379 11.3333 61.3334 11.3333C60.2288 11.3333 59.3334 12.2287 59.3334 13.3333V22.0429L50.3519 13.6036C47.2511 10.5088 43.4184 8.24766 39.2096 7.03027C34.9905 5.80991 30.5311 5.67821 26.2474 6.64745C23.4496 7.28048 20.7864 8.36966 18.3608 9.862L21.2835 12.7847Z" fill="#18202A"/>
</svg>
