<svg width="64" height="64" viewBox="0 0 64 64" fill="none" xmlns="http://www.w3.org/2000/svg">
<g clip-path="url(#clip0_2359_21094)">
<path d="M10.921 9.84281L31.5274 4.32133C36.5064 2.98721 41.6242 5.94198 42.9584 10.921L44.18 15.4803L48.4205 15.8513L46.8221 9.88572C44.9162 2.77284 37.605 -1.44826 30.4921 0.457631L9.88572 5.9791C2.77284 7.88499 -1.44826 15.1962 0.457631 22.309L5.9791 42.9155C7.18309 47.4088 10.5442 50.7481 14.6497 52.1178C14.2891 50.702 14.157 49.2023 14.2915 47.6645L14.2965 47.6072C12.1776 46.4199 10.5211 44.4117 9.84281 41.8802L4.32133 21.2738C2.98721 16.2947 5.94198 11.1769 10.921 9.84281Z" fill="#18202A"/>
<path fill-rule="evenodd" clip-rule="evenodd" d="M51.4991 20.1356L30.2469 18.2763C25.1119 17.8271 20.5849 21.6256 20.1356 26.7607L18.2763 48.0128C17.8271 53.1479 21.6256 57.6749 26.7607 58.1241L48.0128 59.9834C53.1479 60.4327 57.6748 56.6341 58.1241 51.4991L59.9834 30.2469C60.4327 25.1119 56.6341 20.5849 51.4991 20.1356ZM30.5955 14.2915C23.2598 13.6497 16.7927 19.0763 16.1509 26.4121L14.2915 47.6645C13.6497 55.0002 19.0763 61.4671 26.412 62.1089L47.6642 63.9682C55 64.61 61.4671 59.1835 62.1089 51.8477L63.9682 30.5955C64.61 23.2598 59.1835 16.7927 51.8477 16.1509L30.5955 14.2915Z" fill="#18202A"/>
<path fill-rule="evenodd" clip-rule="evenodd" d="M30.4131 31.6756C31.8802 31.804 33.1737 30.7187 33.302 29.2515C33.4304 27.7844 32.3451 26.491 30.8779 26.3626C29.4108 26.2342 28.1173 27.3195 27.989 28.7867C27.8606 30.2539 28.9459 31.5473 30.4131 31.6756ZM37.2868 29.6002C36.9659 33.268 33.7324 35.9813 30.0645 35.6604C26.3966 35.3395 23.6833 32.106 24.0042 28.4381C24.3251 24.7702 27.5587 22.0569 31.2265 22.3778C34.8944 22.6987 37.6077 25.9323 37.2868 29.6002Z" fill="#18202A"/>
<path fill-rule="evenodd" clip-rule="evenodd" d="M48.6534 34.5429L61.0668 49.4504L57.9929 52.01L47.9677 39.9705L35.0201 49.3137L28.7014 44.3031L17.8926 52.1706L15.5386 48.9366L28.805 39.2802L35.1339 44.2989L48.6534 34.5429Z" fill="#18202A"/>
</g>
<defs>
<clipPath id="clip0_2359_21094">
<rect width="64" height="64" fill="white"/>
</clipPath>
</defs>
</svg>
