<svg width="64" height="64" viewBox="0 0 64 64" fill="none" xmlns="http://www.w3.org/2000/svg">
<g clip-path="url(#clip0_2359_21123)">
<path fill-rule="evenodd" clip-rule="evenodd" d="M40 18.75C40 25 37.3333 30 32 30C26.6667 30 24 25 24 18.75C24 13.75 26.6667 10 32 10C37.3333 10 40 13.75 40 18.75ZM37 18.75C37 21.5062 36.4033 23.6842 35.492 25.0725C34.6615 26.3378 33.5651 27 32 27C30.4349 27 29.3385 26.3378 28.508 25.0725C27.5967 23.6842 27 21.5062 27 18.75C27 16.7503 27.5341 15.3239 28.2821 14.4474C28.9722 13.6386 30.092 13 32 13C33.908 13 35.0278 13.6386 35.7179 14.4474C36.4659 15.3239 37 16.7503 37 18.75ZM30.4584 50.9647L28.8196 53.8614C26.8415 53.6883 24.9092 53.3552 23.0358 52.875C20.5978 52.2502 18.5314 50.6171 17.3997 48.369C17.0642 47.7026 16.7514 47.0229 16.4622 46.3308C15.2331 43.3902 15.7229 39.9498 17.9986 37.7185C21.6063 34.1812 26.5484 32 32 32C34.9219 32 37.6975 32.6266 40.1997 33.7527C40.1534 33.8295 40.1079 33.9073 40.0633 33.9862L38.7117 36.3754C36.653 35.4899 34.3845 35 32 35C27.3651 35 23.1685 36.8509 20.099 39.8606C18.8113 41.1232 18.4113 43.2148 19.2301 45.174C19.4921 45.8007 19.7754 46.4164 20.0793 47.0201C20.812 48.4755 22.1619 49.5541 23.7806 49.969C25.9277 50.5192 28.1611 50.8592 30.4584 50.9647ZM60.7929 64C63.2522 64 64.7937 61.2912 63.5728 59.1149L50.7799 36.3106C49.5503 34.1187 46.4497 34.1187 45.2201 36.3106L32.4272 59.1149C31.2063 61.2912 32.7478 64 35.2071 64H60.7929ZM46 44.6667C46 43.5621 46.8954 42.6667 48 42.6667C49.1046 42.6667 50 43.5621 50 44.6667V50C50 51.1046 49.1046 52 48 52C46.8954 52 46 51.1046 46 50V44.6667ZM46 56.6667C46 55.5621 46.8954 54.6667 48 54.6667C49.1046 54.6667 50 55.5621 50 56.6667C50 57.7712 49.1046 58.6667 48 58.6667C46.8954 58.6667 46 57.7712 46 56.6667Z" fill="#18202A"/>
</g>
<defs>
<clipPath id="clip0_2359_21123">
<rect width="64" height="64" fill="white"/>
</clipPath>
</defs>
</svg>
