<svg width="64" height="64" viewBox="0 0 64 64" fill="none" xmlns="http://www.w3.org/2000/svg">
<g clip-path="url(#clip0_2359_21134)">
<path d="M37.3333 24.5C37.3333 28.6667 35.5556 32 32 32C28.4444 32 26.6667 28.6667 26.6667 24.5C26.6667 21.1667 28.4444 18.6667 32 18.6667C35.5556 18.6667 37.3333 21.1667 37.3333 24.5Z" fill="#18202A"/>
<path d="M21.3333 26C21.3333 29.3333 20 32 17.3333 32C14.6667 32 13.3333 29.3333 13.3333 26C13.3333 23.3333 14.6667 21.3333 17.3333 21.3333C20 21.3333 21.3333 23.3333 21.3333 26Z" fill="#18202A"/>
<path d="M46.6667 32C49.3333 32 50.6667 29.3333 50.6667 26C50.6667 23.3333 49.3333 21.3333 46.6667 21.3333C44 21.3333 42.6667 23.3333 42.6667 26C42.6667 29.3333 44 32 46.6667 32Z" fill="#18202A"/>
<path d="M22.2496 34.8381C22.0416 34.9704 21.8364 35.1068 21.6341 35.2472C18.5055 37.4182 17.6142 41.3416 18.7027 44.6219C18.7875 44.8774 18.8755 45.1315 18.9666 45.3841C17.5212 45.3588 16.0979 45.2466 14.7022 45.0528C13.0565 44.8242 11.6616 43.7211 11.1003 42.1573C10.9714 41.7982 10.8497 41.436 10.7354 41.0706C10.1468 39.1892 10.8883 37.1227 12.6514 36.2408C14.7284 35.202 17.091 34.6146 19.597 34.6146C20.5021 34.6146 21.3886 34.6912 22.2496 34.8381Z" fill="#18202A"/>
<path d="M45.2981 44.6218C45.2142 44.8744 45.1273 45.1256 45.0373 45.3752C46.5202 45.3333 47.9791 45.1999 49.4081 44.9807C51.0329 44.7316 52.4017 43.6294 52.9526 42.0806C53.0463 41.8171 53.1362 41.5519 53.222 41.2851C53.8143 39.4445 53.1319 37.4095 51.4337 36.4851C49.2466 35.2946 46.7164 34.6146 44.0202 34.6146C43.2219 34.6146 42.4381 34.6742 41.6735 34.789C41.9081 34.9366 42.1393 35.0894 42.3667 35.2472C45.4952 37.4183 46.3865 41.3415 45.2981 44.6218Z" fill="#18202A"/>
<path d="M36.9401 50.285C38.9704 49.9589 40.713 48.654 41.577 46.788C42.0275 45.8149 42.4254 44.8116 42.7671 43.7819C43.5399 41.4528 42.8625 38.8371 40.8464 37.4381C38.3261 35.6891 35.2805 34.6667 32.0003 34.6667C28.7202 34.6667 25.6747 35.6891 23.1544 37.438C21.1382 38.8371 20.4608 41.4528 21.2337 43.782C21.5754 44.8117 21.9734 45.815 22.4239 46.7881C23.2879 48.6541 25.0305 49.959 27.0608 50.285C28.67 50.5435 30.3198 50.6777 32.0003 50.6777C33.6809 50.6777 35.3308 50.5434 36.9401 50.285Z" fill="#18202A"/>
<path fill-rule="evenodd" clip-rule="evenodd" d="M32 60C47.464 60 60 47.464 60 32C60 16.536 47.464 4 32 4C16.536 4 4 16.536 4 32C4 47.464 16.536 60 32 60ZM32 64C49.6731 64 64 49.6731 64 32C64 14.3269 49.6731 0 32 0C14.3269 0 0 14.3269 0 32C0 49.6731 14.3269 64 32 64Z" fill="#18202A"/>
</g>
<defs>
<clipPath id="clip0_2359_21134">
<rect width="64" height="64" fill="white"/>
</clipPath>
</defs>
</svg>
