<svg width="64" height="64" viewBox="0 0 64 64" fill="none" xmlns="http://www.w3.org/2000/svg">
<path fill-rule="evenodd" clip-rule="evenodd" d="M56.72 48.1303C57.1137 47.2797 57.3334 46.3322 57.3334 45.3333V26.6667H6.66669V45.3333C6.66669 49.0152 9.65146 52 13.3334 52H32.1583C31.3557 53.2277 30.886 54.5992 30.7293 56H13.3334C7.44232 56 2.66669 51.2244 2.66669 45.3333V18.6667C2.66669 12.7756 7.44232 8 13.3334 8H23.353C25.4747 8 27.5095 8.84286 29.0098 10.3431L32 13.3333H50.6667C56.5577 13.3333 61.3334 18.109 61.3334 24V45.3333C61.3334 47.2215 60.8428 48.9951 59.9821 50.5335C59.7551 50.3066 59.5132 50.0881 59.2563 49.879C58.4625 49.233 57.6145 48.6479 56.72 48.1303ZM26.1814 13.1716L30.3432 17.3333H50.6667C54.3486 17.3333 57.3334 20.3181 57.3334 24H6.66669V18.6667C6.66669 14.9848 9.65146 12 13.3334 12H23.353C24.4138 12 25.4313 12.4214 26.1814 13.1716Z" fill="#18202A"/>
<path d="M36.6019 52.9815C37.0317 52.6317 37.4823 52.3039 37.9515 52C40.4306 50.3942 43.4324 49.4545 46.6667 49.4545C49.2859 49.4545 51.7525 50.0707 53.9125 51.1579C54.9248 51.6673 55.8697 52.2801 56.7315 52.9814C56.9732 53.1781 57.1921 53.3906 57.3884 53.6161C58.8633 55.3102 59.0577 57.7409 57.9934 59.7686L57.9579 59.836L57.9213 59.9047C57.049 61.5397 55.4561 62.7274 53.5767 63.1819C51.3676 63.716 49.0523 64 46.6667 64C44.2811 64 41.9657 63.716 39.7566 63.1819C37.8772 62.7274 36.2844 61.5397 35.412 59.9047L35.34 59.7687C34.7133 58.5746 34.523 57.2408 34.7737 56C35.0053 54.8532 35.6136 53.7859 36.6019 52.9815Z" fill="#18202A"/>
<path d="M46.6667 46.5455C50.7779 46.5455 52.8335 42.9091 52.8335 38.3636C52.8335 34.7273 50.7779 32 46.6667 32C42.5554 32 40.4998 34.7273 40.4998 38.3636C40.4998 42.9091 42.5554 46.5455 46.6667 46.5455Z" fill="#18202A"/>
</svg>
