<svg width="64" height="64" viewBox="0 0 64 64" fill="none" xmlns="http://www.w3.org/2000/svg">
<g clip-path="url(#clip0_2359_16265)">
<path fill-rule="evenodd" clip-rule="evenodd" d="M16 4.66666C16 3.56209 16.8955 2.66666 18 2.66666C19.1046 2.66666 20 3.56209 20 4.66666V7.99999H44V4.66666C44 3.56209 44.8955 2.66666 46 2.66666C47.1046 2.66666 48 3.56209 48 4.66666V7.99999H50.6667C56.5577 7.99999 61.3334 12.7756 61.3334 18.6667V33.0926C60.1235 32.0098 58.7811 31.072 57.3334 30.3068V18.6667C57.3334 14.9848 54.3486 12 50.6667 12H48V16.6667C48 17.7712 47.1046 18.6667 46 18.6667C44.8955 18.6667 44 17.7712 44 16.6667V12H20V16.6667C20 17.7712 19.1046 18.6667 18 18.6667C16.8955 18.6667 16 17.7712 16 16.6667V12H13.3334C9.65146 12 6.66669 14.9848 6.66669 18.6667V50.6667C6.66669 54.3486 9.65146 57.3333 13.3334 57.3333H30.3068C31.0721 58.781 32.0098 60.1235 33.0926 61.3333H13.3334C7.44232 61.3333 2.66669 56.5577 2.66669 50.6667V18.6667C2.66669 12.7756 7.44232 7.99999 13.3334 7.99999H16V4.66666ZM48.6667 28H48H15.3334C14.2288 28 13.3334 27.1046 13.3334 26C13.3334 24.8954 14.2288 24 15.3334 24H48.6667C49.7713 24 50.6667 24.8954 50.6667 26C50.6667 27.1046 49.7713 28 48.6667 28ZM28 48C28 47.2448 28.0419 46.4994 28.1234 45.766C27.7046 45.4924 27.2042 45.3333 26.6667 45.3333C25.1939 45.3333 24 46.5272 24 48C24 49.4728 25.1939 50.6667 26.6667 50.6667C27.2042 50.6667 27.7046 50.5076 28.1234 50.234C28.0419 49.5006 28 48.7552 28 48ZM16 34.6667C14.5273 34.6667 13.3334 35.8606 13.3334 37.3333C13.3334 38.8061 14.5273 40 16 40C17.4728 40 18.6667 38.8061 18.6667 37.3333C18.6667 35.8606 17.4728 34.6667 16 34.6667ZM13.3334 48C13.3334 46.5272 14.5273 45.3333 16 45.3333C17.4728 45.3333 18.6667 46.5272 18.6667 48C18.6667 49.4728 17.4728 50.6667 16 50.6667C14.5273 50.6667 13.3334 49.4728 13.3334 48ZM26.6667 34.6667C25.1939 34.6667 24 35.8606 24 37.3333C24 38.8061 25.1939 40 26.6667 40C28.1394 40 29.3334 38.8061 29.3334 37.3333C29.3334 35.8606 28.1394 34.6667 26.6667 34.6667ZM64 48C64 56.8365 56.8366 64 48 64C39.1635 64 32 56.8365 32 48C32 39.1634 39.1635 32 48 32C56.8366 32 64 39.1634 64 48ZM48 39.3333C49.1046 39.3333 50 40.2288 50 41.3333V47.1716L53.4142 50.5858C54.1953 51.3668 54.1953 52.6332 53.4142 53.4142C52.6332 54.1953 51.3669 54.1953 50.5858 53.4142L46.5858 49.4142C46.2107 49.0391 46 48.5304 46 48V41.3333C46 40.2288 46.8955 39.3333 48 39.3333Z" fill="#18202A"/>
</g>
<defs>
<clipPath id="clip0_2359_16265">
<rect width="64" height="64" fill="white"/>
</clipPath>
</defs>
</svg>
