<svg width="64" height="64" viewBox="0 0 64 64" fill="none" xmlns="http://www.w3.org/2000/svg">
<path d="M50.861 19.0227L42.5617 34.238L45.51 37.1862L53.8092 21.9709L54.5858 22.7475C55.3669 23.5286 56.6332 23.5286 57.4142 22.7475C58.1953 21.9665 58.1953 20.7002 57.4142 19.9191L54.7803 17.2852C54.7594 17.2633 54.738 17.2419 54.716 17.2209L46.7791 9.28402C46.7581 9.26202 46.7367 9.24056 46.7148 9.21966L44.0809 6.58579C43.2999 5.80474 42.0335 5.80474 41.2525 6.58579C40.4714 7.36683 40.4714 8.63317 41.2525 9.41421L42.0291 10.1908L26.8138 18.49L29.7621 21.4383L44.9773 13.139L50.861 19.0227Z" fill="#18202A"/>
<path fill-rule="evenodd" clip-rule="evenodd" d="M11.3618 11.5236C12.1429 10.7425 13.4092 10.7425 14.1903 11.5236L52.3979 49.7312C53.179 50.5123 53.179 51.7786 52.3979 52.5597C51.6169 53.3407 50.3505 53.3407 49.5695 52.5597L41.5168 44.507L39.0891 48.9577C39.0144 49.0947 38.926 49.2195 38.8265 49.3313L41.4142 51.9191C42.1953 52.7002 42.1953 53.9665 41.4142 54.7475C40.6332 55.5286 39.3669 55.5286 38.5858 54.7475L25.3334 41.4951L12.0809 54.7475C11.2999 55.5286 10.0335 55.5286 9.25247 54.7475C8.47143 53.9665 8.47143 52.7002 9.25247 51.9191L22.5049 38.6667L9.25247 25.4142C8.47142 24.6332 8.47142 23.3668 9.25247 22.5858C10.0335 21.8047 11.2999 21.8047 12.0809 22.5858L14.6687 25.1736C14.7805 25.0741 14.9053 24.9856 15.0423 24.9109L19.493 22.4832L11.3619 14.352C10.5808 13.571 10.5808 12.3046 11.3618 11.5236ZM17.5788 28.0837L22.4413 25.4314L38.5686 41.5588L35.9163 46.4212L17.5788 28.0837Z" fill="#18202A"/>
</svg>
