<svg width="64" height="64" viewBox="0 0 64 64" fill="none" xmlns="http://www.w3.org/2000/svg">
<path fill-rule="evenodd" clip-rule="evenodd" d="M2.66667 32C2.66667 48.2004 15.7997 61.3334 32 61.3334C48.2004 61.3334 61.3333 48.2004 61.3333 32C61.3333 15.7997 48.2004 2.66669 32 2.66669C15.7997 2.66669 2.66667 15.7997 2.66667 32ZM44.5523 36.5523C45.5937 35.5109 45.5937 33.8225 44.5523 32.7811C43.5109 31.7397 41.8225 31.7397 40.7811 32.7811L34.6667 38.8955V18.6667C34.6667 17.1939 33.4728 16 32 16C30.5272 16 29.3333 17.1939 29.3333 18.6667V38.8955L23.219 32.7811C22.1776 31.7397 20.4891 31.7397 19.4477 32.7811C18.4063 33.8225 18.4063 35.5109 19.4477 36.5523L30.1144 47.219C31.1558 48.2604 32.8442 48.2604 33.8856 47.219L44.5523 36.5523Z" fill="#18202A"/>
</svg>
