<svg width="64" height="64" viewBox="0 0 64 64" fill="none" xmlns="http://www.w3.org/2000/svg">
<path fill-rule="evenodd" clip-rule="evenodd" d="M32 56.0003C45.2548 56.0003 56 45.2552 56 32.0003C56 18.7455 45.2548 8.00033 32 8.00033C18.7452 8.00033 8.00001 18.7455 8.00001 32.0003C8.00001 45.2552 18.7452 56.0003 32 56.0003ZM32 61.3337C48.2004 61.3337 61.3333 48.2007 61.3333 32.0003C61.3333 15.8 48.2004 2.66699 32 2.66699C15.7997 2.66699 2.66667 15.8 2.66667 32.0003C2.66667 48.2007 15.7997 61.3337 32 61.3337Z" fill="#18202A"/>
<path d="M41.3333 23.8337C41.3333 31.3337 38.2222 37.3337 32 37.3337C25.7778 37.3337 22.6667 31.3337 22.6667 23.8337C22.6667 17.8337 25.7778 13.3337 32 13.3337C38.2222 13.3337 41.3333 17.8337 41.3333 23.8337Z" fill="#18202A"/>
<path d="M10.726 52.196C11.1555 50.4941 12.0217 48.9093 13.3315 47.625C18.1417 42.9086 24.7312 40.0003 32 40.0003C39.2688 40.0003 45.8583 42.9086 50.6685 47.6249C51.9784 48.9093 52.8445 50.4941 53.274 52.196C47.9293 57.8243 40.3745 61.3337 32 61.3337C23.6256 61.3337 16.0708 57.8243 10.726 52.196Z" fill="#18202A"/>
</svg>
