<svg width="64" height="64" viewBox="0 0 64 64" fill="none" xmlns="http://www.w3.org/2000/svg">
<path fill-rule="evenodd" clip-rule="evenodd" d="M32 29.3337C39.1111 29.3337 42.6667 22.667 42.6667 14.3337C42.6667 7.66699 39.1111 2.66699 32 2.66699C24.8889 2.66699 21.3333 7.66699 21.3333 14.3337C21.3333 22.667 24.8889 29.3337 32 29.3337ZM32.0001 34.667C34.594 34.667 37.1014 35.0373 39.4723 35.728C34.9352 39.1334 32 44.5574 32 50.667C32 54.5852 33.2072 58.2214 35.2699 61.224C34.1894 61.2967 33.099 61.3337 32 61.3337C27.8736 61.3337 23.8689 60.813 20.0478 59.8337C16.797 59.0006 14.0419 56.8231 12.533 53.8257C12.4912 53.7427 12.4497 53.6595 12.4084 53.5763C10.3225 49.364 11.0318 44.2033 14.5911 41.1331C19.2626 37.1036 25.3468 34.667 32.0001 34.667ZM50.6666 58.667C55.0849 58.667 58.6666 55.0853 58.6666 50.667C58.6666 49.4316 58.3866 48.2616 57.8866 47.217L47.217 57.8871C48.2615 58.387 49.4314 58.667 50.6666 58.667ZM54.1149 43.4462L43.4461 54.1156C42.9464 53.0714 42.6666 51.9019 42.6666 50.667C42.6666 46.2487 46.2484 42.667 50.6666 42.667C51.9014 42.667 53.0707 42.9467 54.1149 43.4462ZM50.6666 64.0003C58.0304 64.0003 64 58.0308 64 50.667C64 43.3032 58.0304 37.3337 50.6666 37.3337C43.3028 37.3337 37.3333 43.3032 37.3333 50.667C37.3333 58.0308 43.3028 64.0003 50.6666 64.0003Z" fill="#18202A"/>
</svg>
