<svg width="64" height="64" viewBox="0 0 64 64" fill="none" xmlns="http://www.w3.org/2000/svg">
<path fill-rule="evenodd" clip-rule="evenodd" d="M53.5686 45.2971C50.9849 46.1849 48.2136 46.6669 45.3334 46.6669C31.3421 46.6669 20 35.3248 20 21.3335C20 16.4566 21.3806 11.8986 23.7691 8.03312C13.8194 11.4493 6.66669 20.8912 6.66669 32.0002C6.66669 45.9914 18.0088 57.3335 32 57.3335C41.1107 57.3335 49.1043 52.5223 53.5686 45.2971ZM56.1316 39.7361C52.9642 41.5987 49.2735 42.6669 45.3334 42.6669C33.5513 42.6669 24 33.1156 24 21.3335C24 15.4242 26.4027 10.0761 30.2844 6.21271C31.4733 5.02938 30.792 2.72529 29.1166 2.80679C14.2696 4.25538 2.66669 16.7728 2.66669 32.0002C2.66669 48.2006 15.7997 61.3335 32 61.3335C44.5479 61.3335 55.2556 53.4548 59.446 42.3745C59.4465 42.3731 59.4471 42.3718 59.4476 42.3704C59.4638 42.3276 59.4798 42.2848 59.4958 42.2419C59.6932 41.7123 59.8756 41.1755 60.0428 40.6319C60.5017 39.1392 58.5884 38.1229 57.2961 38.9997C57.0249 39.1837 56.7493 39.3616 56.4693 39.5333C56.3649 39.5973 56.2599 39.6605 56.1543 39.7227C56.1467 39.7272 56.1392 39.7317 56.1316 39.7361Z" fill="#18202A"/>
</svg>
