<svg width="64" height="64" viewBox="0 0 64 64" fill="none" xmlns="http://www.w3.org/2000/svg">
<path fill-rule="evenodd" clip-rule="evenodd" d="M52 50.667V26.2095C52 25.8558 51.8595 25.5167 51.6095 25.2667L33.4003 7.05752C33.1503 6.80747 32.8111 6.66699 32.4575 6.66699H18.6667C14.9848 6.66699 12 9.65176 12 13.3337V50.667C12 54.3489 14.9848 57.3337 18.6667 57.3337H45.3333C49.0152 57.3337 52 54.3489 52 50.667ZM18.6667 2.66699C12.7756 2.66699 8 7.44262 8 13.3337V50.667C8 56.558 12.7756 61.3337 18.6667 61.3337H45.3333C51.2244 61.3337 56 56.558 56 50.667V26.2095C56 24.795 55.4381 23.4384 54.4379 22.4382L36.2288 4.22909C35.2286 3.2289 33.872 2.66699 32.4575 2.66699H18.6667Z" fill="#18202A"/>
<path d="M29.3333 2.66699H33.3333V29.3337H29.3333V2.66699Z" fill="#18202A"/>
<path d="M29.3333 25.3337H56V29.3337H29.3333V25.3337Z" fill="#18202A"/>
</svg>
