<svg width="64" height="64" viewBox="0 0 64 64" fill="none" xmlns="http://www.w3.org/2000/svg">
<path fill-rule="evenodd" clip-rule="evenodd" d="M53.5964 14.667C52.2132 17.0582 49.6278 18.667 46.6667 18.667C43.7055 18.667 41.1202 17.0582 39.7369 14.667H8C5.79086 14.667 4 16.4579 4 18.667V45.3337C4 47.5428 5.79086 49.3337 8 49.3337H39.7369C41.1202 46.9425 43.7055 45.3337 46.6667 45.3337C49.6278 45.3337 52.2132 46.9425 53.5964 49.3337H56C58.2091 49.3337 60 47.5428 60 45.3337V18.667C60 16.4579 58.2091 14.667 56 14.667H53.5964ZM50.6667 53.3337C50.6667 51.1245 48.8758 49.3337 46.6667 49.3337C44.4575 49.3337 42.6667 51.1245 42.6667 53.3337H8C3.58172 53.3337 0 49.7519 0 45.3337V18.667C0 14.2487 3.58172 10.667 8 10.667H42.6667C42.6667 12.8761 44.4575 14.667 46.6667 14.667C48.8758 14.667 50.6667 12.8761 50.6667 10.667H56C60.4183 10.667 64 14.2487 64 18.667V45.3337C64 49.7519 60.4183 53.3337 56 53.3337H50.6667ZM8 22.3337C8 21.7814 8.44772 21.3337 9 21.3337H35C35.5523 21.3337 36 21.7814 36 22.3337V24.3337C36 24.8859 35.5523 25.3337 35 25.3337H9C8.44771 25.3337 8 24.8859 8 24.3337V22.3337ZM9 29.3337C8.44772 29.3337 8 29.7814 8 30.3337V32.3337C8 32.8859 8.44771 33.3337 9 33.3337H35C35.5523 33.3337 36 32.8859 36 32.3337V30.3337C36 29.7814 35.5523 29.3337 35 29.3337H9ZM8 38.3337C8 37.7814 8.44772 37.3337 9 37.3337H17.6667C18.2189 37.3337 18.6667 37.7814 18.6667 38.3337V40.3337C18.6667 40.8859 18.219 41.3337 17.6667 41.3337H9C8.44772 41.3337 8 40.8859 8 40.3337V38.3337ZM48 24.0003H45.3333V40.0003H48V24.0003Z" fill="#18202A"/>
</svg>
