<svg width="64" height="64" viewBox="0 0 64 64" fill="none" xmlns="http://www.w3.org/2000/svg">
<path fill-rule="evenodd" clip-rule="evenodd" d="M10.6667 2.6665C9.19391 2.6665 8 3.86041 8 5.33317C8 6.80593 9.19391 7.99984 10.6667 7.99984H12.0471C12.0159 8.51034 12 9.02528 12 9.54404C12 18.2015 16.436 25.8598 23.135 29.5563C24.0288 30.0495 24.381 30.7539 24.381 31.2515V32.7491C24.381 33.2467 24.0288 33.951 23.135 34.4442C16.436 38.1408 12 45.7991 12 54.4565C12 54.8529 12.0093 55.2471 12.0276 55.6387C12.0106 55.7568 12.0013 55.8773 12.0001 55.9998H10.6667C9.19391 55.9998 8 57.1937 8 58.6665C8 60.1393 9.19391 61.3332 10.6667 61.3332H53.3333C54.8061 61.3332 56 60.1393 56 58.6665C56 57.1937 54.8061 55.9998 53.3333 55.9998H51.9999C51.9987 55.8773 51.9894 55.7568 51.9724 55.6388C51.9907 55.2471 52 54.8529 52 54.4565C52 45.7991 47.564 38.1408 40.865 34.4442C39.9712 33.951 39.619 33.2467 39.619 32.7491V31.2515C39.619 30.7539 39.9712 30.0495 40.865 29.5563C47.564 25.8598 52 18.2015 52 9.54404C52 9.02528 51.9841 8.51034 51.9529 7.99984H53.3333C54.8061 7.99984 56 6.80593 56 5.33317C56 3.86041 54.8061 2.6665 53.3333 2.6665H10.6667ZM17.3333 9.54404C17.3333 9.02302 17.3536 8.50797 17.3932 7.99984H46.6068C46.6464 8.50797 46.6667 9.02302 46.6667 9.54404C46.6667 16.4308 43.1415 22.2087 38.2883 24.8867C36.1766 26.052 34.2857 28.3163 34.2857 31.2515V32.7491C34.2857 35.6842 36.1766 37.9486 38.2883 39.1138C43.1415 41.7918 46.6667 47.5698 46.6667 54.4565C46.6667 54.907 46.6515 55.3532 46.6218 55.7941C46.6172 55.8631 46.6152 55.9318 46.6157 55.9998H17.3843C17.3848 55.9317 17.3828 55.863 17.3782 55.7938C17.3485 55.353 17.3333 54.907 17.3333 54.4565C17.3333 47.5698 20.8585 41.7918 25.7117 39.1138C27.8234 37.9486 29.7143 35.6842 29.7143 32.7491V31.2515C29.7143 28.3163 27.8234 26.052 25.7117 24.8867C20.8585 22.2087 17.3333 16.4308 17.3333 9.54404Z" fill="#18202A"/>
</svg>
