<svg width="64" height="64" viewBox="0 0 64 64" fill="none" xmlns="http://www.w3.org/2000/svg">
<path d="M32 9.94786C32 8.84329 31.1019 7.94203 29.999 8.00282C14.7319 8.84432 2.66669 19.2433 2.66669 31.9479C2.66669 45.2027 15.7997 55.9479 32 55.9479C35.1367 55.9479 38.1585 55.545 40.9921 54.7992L49.2861 58.255C51.1314 59.0239 53.1353 57.5641 52.9692 55.572L52.4354 49.1655C57.9235 44.8043 61.3334 38.7019 61.3334 31.9479C61.3334 31.627 61.3257 31.3076 61.3104 30.9898C61.2633 30.008 60.421 29.2812 59.4381 29.2812C58.2177 29.2812 57.3021 30.3862 57.3295 31.6062C57.3321 31.72 57.3334 31.8339 57.3334 31.9479C57.3334 37.2772 54.6529 42.2941 49.9468 46.0339L48.2715 47.3652L48.801 53.7195L41.282 50.5866L39.9739 50.9309C37.4739 51.589 34.7945 51.9479 32 51.9479C17.2209 51.9479 6.66669 42.2805 6.66669 31.9479C6.66669 22.0881 16.277 12.834 29.9982 12.0077C31.1008 11.9413 32 11.0524 32 9.94786Z" fill="#18202A"/>
<path d="M43.3334 5.33325C44.4379 5.33325 45.3334 6.22868 45.3334 7.33325V9.39226C49.9831 10.3816 55.349 15.3358 55.349 18.6666C55.349 19.9444 53.6922 19.3582 51.5196 18.5895C49.5979 17.9096 47.2725 17.0869 45.3334 17.2851V31.9999C45.3334 36.4182 41.7516 39.9999 37.3334 39.9999C32.9151 39.9999 29.3334 36.4182 29.3334 31.9999C29.3334 27.5816 32.9151 23.9999 37.3334 23.9999C38.7905 23.9999 40.1567 24.3895 41.3334 25.0702V7.33325C41.3334 6.22868 42.2288 5.33325 43.3334 5.33325Z" fill="#18202A"/>
</svg>
