<svg width="64" height="64" viewBox="0 0 64 64" fill="none" xmlns="http://www.w3.org/2000/svg">
<path fill-rule="evenodd" clip-rule="evenodd" d="M25.2713 37.1614C26.7759 32.0343 27.205 25.6685 26.6663 18.5849C26.6225 14.2042 23.0577 10.6665 18.6667 10.6665H16C11.5817 10.6665 8 14.2482 8 18.6665V21.3332C8 25.7514 11.5817 29.3332 16 29.3332C17.881 29.3332 19.4092 29.6691 20.3379 30.4947C21.1182 31.1882 21.9455 32.6721 21.3816 36.2088C21.0793 37.2134 20.733 38.1485 20.3439 39.0101C18.2576 43.6298 15.0436 45.9999 10.6667 45.9999C9.5621 45.9999 8.66667 46.8954 8.66667 47.9999C8.66667 49.1045 9.5621 49.9999 10.6667 49.9999C16.9564 49.9999 21.409 46.3701 23.9894 40.6564C24.4955 39.5357 24.9678 38.3554 25.2713 37.1614Z" fill="#18202A"/>
<path fill-rule="evenodd" clip-rule="evenodd" d="M54.6046 37.1613C56.1092 32.0343 56.5383 25.6685 55.9996 18.5849C55.9558 14.2042 52.391 10.6665 48 10.6665H45.3333C40.9151 10.6665 37.3333 14.2482 37.3333 18.6665V21.3332C37.3333 25.7514 40.9151 29.3332 45.3333 29.3332C47.2143 29.3332 48.7426 29.6691 49.6713 30.4947C50.4515 31.1882 51.2789 32.6721 50.7149 36.2088C50.4127 37.2134 50.0664 38.1485 49.6773 39.0101C47.591 43.6298 44.3769 45.9999 40 45.9999C38.8954 45.9999 38 46.8954 38 47.9999C38 49.1045 38.8954 49.9999 40 49.9999C46.2897 49.9999 50.7424 46.3701 53.3227 40.6564C53.8289 39.5357 54.3012 38.3553 54.6046 37.1613Z" fill="#18202A"/>
</svg>
