<svg width="64" height="64" viewBox="0 0 64 64" fill="none" xmlns="http://www.w3.org/2000/svg">
<path fill-rule="evenodd" clip-rule="evenodd" d="M5.4406 18.6672L31.3498 33.1126C31.7534 33.3376 32.2448 33.3376 32.6484 33.1126L58.5588 18.6672L32.6484 4.22246C32.2448 3.99746 31.7535 3.99746 31.3499 4.22247L5.4406 18.6672ZM29.402 36.6063C31.0164 37.5064 32.9818 37.5064 34.5962 36.6063L49.3333 28.3902V38.2468C49.3333 40.7682 47.8944 43.4434 44.7754 45.649C41.6665 47.8475 37.1623 49.3333 32 49.3333C26.8377 49.3333 22.3335 47.8475 19.2246 45.649C16.1056 43.4434 14.6667 40.7682 14.6667 38.2468V28.3908L29.402 36.6063ZM62.5955 20.9963L53.3333 26.1601V38.2468C53.3333 46.5796 43.7821 53.3333 32 53.3333C20.2179 53.3333 10.6667 46.5796 10.6667 38.2468V26.1606L6.66667 23.9305L6.66667 52.0186C8.16665 52.1844 9.33333 53.4561 9.33333 55.0003V58.3337C9.33333 59.9905 7.99019 61.3337 6.33333 61.3337H3C1.34314 61.3337 0 59.9905 0 58.3337V55.0003C0 53.4561 1.16668 52.1844 2.66667 52.0186L2.66667 21.7003L1.40394 20.9963C-0.420201 19.9793 -0.420179 17.355 1.40398 16.338L29.4021 0.728747C31.0164 -0.171283 32.9817 -0.171302 34.5961 0.728697L62.5955 16.338C64.4197 17.355 64.4197 19.9793 62.5955 20.9963ZM32 22.667C35.3137 22.667 38 20.8761 38 18.667C38 16.4579 35.3137 14.667 32 14.667C28.6863 14.667 26 16.4579 26 18.667C26 20.8761 28.6863 22.667 32 22.667Z" fill="#18202A"/>
</svg>
