<svg width="64" height="64" viewBox="0 0 64 64" fill="none" xmlns="http://www.w3.org/2000/svg">
<g clip-path="url(#clip0_3900_9007)">
<path d="M48.7964 26.6364C48.7964 30.4242 47.1976 33.4545 44 33.4545C40.8024 33.4545 39.2036 30.4242 39.2036 26.6364C39.2036 23.6061 40.8024 21.3333 44 21.3333C47.1976 21.3333 48.7964 23.6061 48.7964 26.6364Z" fill="#18202A"/>
<path d="M37.2215 38C36.8566 38.2533 36.5062 38.5264 36.1719 38.8179C35.4031 39.4882 34.9301 40.3777 34.7499 41.3333C34.5549 42.3674 34.7029 43.4789 35.1904 44.4739L35.2464 44.5873C35.9249 45.9498 37.1638 46.9395 38.6255 47.3182C40.3437 47.7633 42.1445 48 44 48C45.8555 48 47.6563 47.7633 49.3745 47.3182C50.8362 46.9395 52.0751 45.9498 52.7536 44.5873L52.782 44.53L52.8097 44.4738C53.6375 42.784 53.4863 40.7585 52.3391 39.3467C52.1865 39.1588 52.0162 38.9818 51.8282 38.8179C51.1579 38.2334 50.423 37.7227 49.6357 37.2982C47.9556 36.3923 46.0371 35.8788 44 35.8788C41.4844 35.8788 39.1497 36.6619 37.2215 38Z" fill="#18202A"/>
<path fill-rule="evenodd" clip-rule="evenodd" d="M13.3334 8C7.44232 8 2.66669 12.7756 2.66669 18.6667V45.3333C2.66669 51.2244 7.44232 56 13.3334 56H50.6667C56.5577 56 61.3334 51.2244 61.3334 45.3333V24C61.3334 18.109 56.5577 13.3333 50.6667 13.3333H32L29.0098 10.3431C27.5095 8.84286 25.4747 8 23.353 8H13.3334ZM57.3334 24C57.3334 20.3181 54.3486 17.3333 50.6667 17.3333H30.3432L26.1814 13.1716C25.4313 12.4214 24.4138 12 23.353 12H13.3334C9.65146 12 6.66669 14.9848 6.66669 18.6667V45.3333C6.66669 49.0152 9.65146 52 13.3334 52H50.6667C54.3486 52 57.3334 49.0152 57.3334 45.3333V24Z" fill="#18202A"/>
</g>
<defs>
<clipPath id="clip0_3900_9007">
<rect width="64" height="64" fill="white"/>
</clipPath>
</defs>
</svg>
