<svg width="64" height="64" viewBox="0 0 64 64" fill="none" xmlns="http://www.w3.org/2000/svg">
<path fill-rule="evenodd" clip-rule="evenodd" d="M61.3333 31.9998C61.3333 48.2002 48.2004 61.3332 32 61.3332C15.7997 61.3332 2.66667 48.2002 2.66667 31.9998C2.66667 15.7995 15.7997 2.6665 32 2.6665C48.2004 2.6665 61.3333 15.7995 61.3333 31.9998ZM26.6667 26.6665C26.6667 29.612 24.8758 31.9998 22.6667 31.9998C20.4576 31.9998 18.6667 29.612 18.6667 26.6665C18.6667 23.721 20.4576 21.3332 22.6667 21.3332C24.8758 21.3332 26.6667 23.721 26.6667 26.6665ZM19.834 37.7946C21.0519 36.9665 22.7105 37.2825 23.5386 38.5004C24.3724 39.7268 25.5772 40.7784 27.0649 41.5223C28.5533 42.2665 30.2546 42.6665 32 42.6665C33.7454 42.6665 35.4467 42.2665 36.9351 41.5223C38.4228 40.7784 39.6276 39.7268 40.4615 38.5004C41.2896 37.2825 42.9482 36.9665 44.1661 37.7946C45.384 38.6227 45.7 40.2813 44.8719 41.4992C43.4934 43.5266 41.5709 45.1673 39.3203 46.2926C37.0704 47.4175 34.5497 47.9998 32 47.9998C29.4503 47.9998 26.9296 47.4175 24.6798 46.2926C22.4292 45.1673 20.5066 43.5266 19.1282 41.4992C18.3001 40.2813 18.6161 38.6227 19.834 37.7946ZM41.3334 31.9998C43.5425 31.9998 45.3334 29.612 45.3334 26.6665C45.3334 23.721 43.5425 21.3332 41.3334 21.3332C39.1242 21.3332 37.3334 23.721 37.3334 26.6665C37.3334 29.612 39.1242 31.9998 41.3334 31.9998Z" fill="#18202A"/>
</svg>
