<svg width="64" height="64" viewBox="0 0 64 64" fill="none" xmlns="http://www.w3.org/2000/svg">
<path d="M55.648 44.3463C56.229 43.2346 56.7328 42.0798 57.1539 40.8897C57.6452 39.5013 56.918 37.9775 55.5296 37.4862C54.1412 36.9949 52.6174 37.7221 52.1261 39.1105C51.9786 39.5274 51.8184 39.9388 51.6459 40.3443L55.648 44.3463Z" fill="#18202A"/>
<path d="M23.6644 12.3627C24.8275 11.87 26.0363 11.4799 27.2773 11.1991C30.7921 10.4038 34.4511 10.5119 37.9129 11.5132C41.3747 12.5145 44.5264 14.3764 47.0739 16.9253C47.0936 16.945 47.1136 16.9644 47.1339 16.9835L54.6011 23.9999H48C46.5272 23.9999 45.3333 25.1938 45.3333 26.6666C45.3333 28.1393 46.5272 29.3333 48 29.3333H61.3333C62.8061 29.3333 64 28.1393 64 26.6666V13.3333C64 11.8605 62.8061 10.6666 61.3333 10.6666C59.8606 10.6666 58.6667 11.8605 58.6667 13.3333V20.5017L50.8157 13.1246C47.6366 9.95414 43.7083 7.63753 39.3948 6.38986C35.0676 5.13821 30.4938 5.00313 26.1003 5.99722C23.852 6.50592 21.6884 7.30182 19.6604 8.35877L23.6644 12.3627Z" fill="#18202A"/>
<path d="M9.86875 6.10954C8.69326 5.10786 7.03195 5.06321 6.04762 6.04754C5.0053 7.08987 5.11678 8.89129 6.29663 10.0711L11.346 15.1205C9.40258 17.4959 7.87697 20.1973 6.84609 23.1105C6.35478 24.4989 7.08202 26.0227 8.47041 26.514C9.8588 27.0053 11.3826 26.2781 11.8739 24.8897C12.6388 22.7282 13.7441 20.7124 15.1408 18.9153L45.0822 48.8567C42.6221 50.7631 39.7696 52.1118 36.7227 52.8012C33.2079 53.5965 29.5489 53.4884 26.0871 52.4871C22.6253 51.4857 19.4736 49.6238 16.9261 47.075C16.9064 47.0553 16.8864 47.0359 16.8661 47.0168L9.39872 39.9999H16C17.4728 39.9999 18.6667 38.806 18.6667 37.3333C18.6667 35.8605 17.4728 34.6666 16 34.6666H2.66667C1.19391 34.6666 0 35.8605 0 37.3333V50.6666C0 52.1393 1.19391 53.3332 2.66667 53.3332C4.13943 53.3332 5.33333 52.1393 5.33333 50.6666V43.4983L13.1843 50.8756C16.3634 54.0461 20.2917 56.3627 24.6052 57.6104C28.9324 58.862 33.5062 58.9971 37.8997 58.003C41.9286 57.0914 45.6854 55.2576 48.8775 52.652L53.9288 57.7033C55.1086 58.8831 56.91 58.9946 57.9524 57.9523C58.9367 56.968 58.8921 55.3067 57.8904 54.1312L9.86875 6.10954Z" fill="#18202A"/>
</svg>
