<svg width="64" height="64" viewBox="0 0 64 64" fill="none" xmlns="http://www.w3.org/2000/svg">
<path d="M26.6667 12.6667C26.6667 11.5622 27.5621 10.6667 28.6667 10.6667H51.3333C52.4379 10.6667 53.3333 11.5622 53.3333 12.6667C53.3333 13.7713 52.4379 14.6667 51.3333 14.6667H41.2835L26.3111 49.3334H38C39.1046 49.3334 40 50.2288 40 51.3334C40 52.438 39.1046 53.3334 38 53.3334H10C8.89543 53.3334 8 52.438 8 51.3334C8 50.2288 8.89543 49.3334 10 49.3334H21.9539L36.9264 14.6667H28.6667C27.5621 14.6667 26.6667 13.7713 26.6667 12.6667Z" fill="#18202A"/>
</svg>
