<svg width="64" height="64" viewBox="0 0 64 64" fill="none" xmlns="http://www.w3.org/2000/svg">
<path d="M21.4084 6.77233L21.9416 6.78548C23.3552 6.87594 24.6961 7.40653 25.7825 8.30827C27.0048 9.32279 27.8247 10.7404 28.0944 12.3055C28.1732 12.918 28.288 13.5707 28.4282 14.1878C28.7102 15.4307 29.0744 16.6542 29.5185 17.8499C29.853 18.7693 29.8354 19.7891 29.4662 20.7049C29.097 21.6206 28.4022 22.3673 27.5154 22.8015L26.2421 23.6363L25.2185 24.3187L25.8165 25.3938L26.3975 26.3973C27.7924 28.7141 29.4612 30.8567 31.3688 32.7784C33.5715 34.965 36.0561 36.8331 38.7602 38.3375L39.9888 39.0211L41.1929 36.558L41.3976 36.1904C41.8436 35.4801 42.5043 34.9244 43.2892 34.6079C44.205 34.2387 45.2248 34.2212 46.1525 34.5587C47.3341 35.006 48.5634 35.372 49.8147 35.6478L50.5643 35.8264L51.1304 35.9365C51.3939 35.9776 51.6401 35.9991 51.8884 35.9991C53.1728 36.2506 54.5507 37.042 55.5514 38.2171C56.5526 39.3926 57.1148 40.8791 57.142 42.4226V50.3991L57.1205 50.9663C57.0604 51.7189 56.8738 52.4541 56.5673 53.1437C56.1842 54.0056 55.6225 54.7765 54.9195 55.4053C53.6978 56.4936 52.1156 57.0949 50.4771 57.0924H49.4617L48.3156 56.9358C38.0222 55.403 28.3402 50.5513 20.8499 43.0882C13.0822 35.3485 8.11436 25.2418 6.73111 14.3641C6.59831 13.4013 6.67333 12.4354 6.94921 11.5183C7.22508 10.6012 7.69533 9.75422 8.32798 9.03511C8.96058 8.31604 9.7407 7.74172 10.6153 7.35122C11.4898 6.96073 12.4382 6.76327 13.3959 6.77227L21.4084 6.77233Z" fill="#18202A"/>
<path fill-rule="evenodd" clip-rule="evenodd" d="M53.7783 25.2939C53.7783 26.7667 52.5844 27.9606 51.1116 27.9606L38.6934 27.9606C37.2206 27.9606 36.0267 26.7667 36.0267 25.2939V12.8756C36.0267 11.4029 37.2206 10.209 38.6934 10.209C40.1661 10.209 41.36 11.4029 41.36 12.8756V18.856L51.4352 8.78089C52.4766 7.73949 54.165 7.73949 55.2064 8.78089C56.2478 9.82228 56.2478 11.5107 55.2064 12.5521L45.1313 22.6273H51.1116C52.5844 22.6273 53.7783 23.8212 53.7783 25.2939Z" fill="#18202A"/>
</svg>
