<svg width="64" height="64" viewBox="0 0 64 64" fill="none" xmlns="http://www.w3.org/2000/svg">
<path d="M32 18.6667C29.0545 18.6667 26.6667 16.2789 26.6667 13.3333C26.6667 10.3878 29.0545 8 32 8C34.9455 8 37.3333 10.3878 37.3333 13.3333C37.3333 16.2789 34.9455 18.6667 32 18.6667Z" fill="#18202A"/>
<path d="M32 37.3333C29.0545 37.3333 26.6667 34.9455 26.6667 32C26.6667 29.0545 29.0545 26.6667 32 26.6667C34.9455 26.6667 37.3333 29.0545 37.3333 32C37.3333 34.9455 34.9455 37.3333 32 37.3333Z" fill="#18202A"/>
<path d="M32 56C29.0545 56 26.6667 53.6122 26.6667 50.6667C26.6667 47.7211 29.0545 45.3333 32 45.3333C34.9455 45.3333 37.3333 47.7211 37.3333 50.6667C37.3333 53.6122 34.9455 56 32 56Z" fill="#18202A"/>
</svg>
