<svg width="64" height="64" viewBox="0 0 64 64" fill="none" xmlns="http://www.w3.org/2000/svg">
<path fill-rule="evenodd" clip-rule="evenodd" d="M5.26633 32.0673L31.933 5.40067C33.6833 3.65033 36.0573 2.66699 38.5327 2.66699H54.6667C58.3486 2.66699 61.3333 5.65176 61.3333 9.33366V25.4677C61.3333 27.943 60.35 30.317 58.5997 32.0673L31.933 58.734C28.2881 62.3789 22.3786 62.3789 18.7337 58.734L5.26632 45.2667C1.62143 41.6218 1.62143 35.7122 5.26633 32.0673ZM46.6666 21.3337C48.8758 21.3337 50.6666 19.5428 50.6666 17.3337C50.6666 15.1245 48.8758 13.3337 46.6666 13.3337C44.4575 13.3337 42.6666 15.1245 42.6666 17.3337C42.6666 19.5428 44.4575 21.3337 46.6666 21.3337Z" fill="#18202A"/>
</svg>
