<svg width="64" height="64" viewBox="0 0 64 64" fill="none" xmlns="http://www.w3.org/2000/svg">
<path d="M26 8C18.0685 8 13.3333 14.3961 13.3333 20.6667C13.3333 22.2492 13.6349 23.8397 14.2133 25.3333H18.6466C17.7908 23.9403 17.3333 22.3123 17.3333 20.6667C17.3333 16.2705 20.5981 12 26 12H37.3333C43.1546 12 46.6666 16.0137 46.6666 19.3333C46.6666 20.4379 47.5621 21.3333 48.6666 21.3333C49.7712 21.3333 50.6666 20.4379 50.6666 19.3333C50.6666 13.3196 44.8453 8 37.3333 8H26Z" fill="#18202A"/>
<path d="M5.33331 31.3333C5.33331 30.2288 6.22874 29.3333 7.33331 29.3333H56.6666C57.7712 29.3333 58.6666 30.2288 58.6666 31.3333C58.6666 32.4379 57.7712 33.3333 56.6666 33.3333H49.5278C52.1012 35.7411 53.3333 39.0208 53.3333 42.6667C53.3333 46.4934 51.9759 49.9167 49.1349 52.3518C46.3308 54.7554 42.3123 56 37.3333 56H24C16.081 56 10.6666 48.9508 10.6666 42.6667C10.6666 41.5621 11.5621 40.6667 12.6666 40.6667C13.7712 40.6667 14.6666 41.5621 14.6666 42.6667C14.6666 47.0492 18.5856 52 24 52H37.3333C41.6877 52 44.6692 50.9113 46.5317 49.3148C48.3574 47.75 49.3333 45.5066 49.3333 42.6667C49.3333 39.8267 48.3574 37.5834 46.5317 36.0185C44.6692 34.422 41.6877 33.3333 37.3333 33.3333H7.33331C6.22874 33.3333 5.33331 32.4379 5.33331 31.3333Z" fill="#18202A"/>
</svg>
