<svg width="64" height="64" viewBox="0 0 64 64" fill="none" xmlns="http://www.w3.org/2000/svg">
<path fill-rule="evenodd" clip-rule="evenodd" d="M32 57.3333C45.9912 57.3333 57.3334 45.9912 57.3334 32C57.3334 18.0088 45.9912 6.66666 32 6.66666C18.0088 6.66666 6.66669 18.0088 6.66669 32C6.66669 45.9912 18.0088 57.3333 32 57.3333ZM32 61.3333C48.2004 61.3333 61.3334 48.2003 61.3334 32C61.3334 15.7996 48.2004 2.66666 32 2.66666C15.7997 2.66666 2.66669 15.7996 2.66669 32C2.66669 48.2003 15.7997 61.3333 32 61.3333Z" fill="#18202A"/>
<path fill-rule="evenodd" clip-rule="evenodd" d="M33.2525 19.9191C34.0335 19.1381 35.2999 19.1381 36.0809 19.9191L46.7476 30.5858C47.5286 31.3668 47.5286 32.6332 46.7476 33.4142L36.0809 44.0809C35.2999 44.8619 34.0335 44.8619 33.2525 44.0809C32.4714 43.2998 32.4714 42.0335 33.2525 41.2524L40.5049 34H18.6667C17.5621 34 16.6667 33.1046 16.6667 32C16.6667 30.8954 17.5621 30 18.6667 30H40.5049L33.2525 22.7475C32.4714 21.9665 32.4714 20.7002 33.2525 19.9191Z" fill="#18202A"/>
</svg>
