<svg width="64" height="64" viewBox="0 0 64 64" fill="none" xmlns="http://www.w3.org/2000/svg">
<path fill-rule="evenodd" clip-rule="evenodd" d="M42.6667 6.6665H21.3334C17.6515 6.6665 14.6667 9.65127 14.6667 13.3332V55.9998L26.4 47.1998C29.7185 44.7109 34.2815 44.7109 37.6 47.1998L49.3334 55.9998V13.3332C49.3334 9.65127 46.3486 6.6665 42.6667 6.6665ZM21.3334 2.6665C15.4423 2.6665 10.6667 7.44213 10.6667 13.3332V58.6665C10.6667 60.864 13.1754 62.1183 14.9334 60.7998L28.8 50.3998C30.6963 48.9776 33.3037 48.9776 35.2 50.3998L49.0667 60.7998C50.8247 62.1183 53.3334 60.864 53.3334 58.6665V13.3332C53.3334 7.44213 48.5577 2.6665 42.6667 2.6665H21.3334Z" fill="#18202A"/>
<path d="M13.3334 15.9998H50.6667V19.9998H13.3334V15.9998Z" fill="#18202A"/>
</svg>
