<svg width="64" height="64" viewBox="0 0 64 64" fill="none" xmlns="http://www.w3.org/2000/svg">
<path fill-rule="evenodd" clip-rule="evenodd" d="M21.3333 6.66699H45.3333C49.0152 6.66699 52 9.65176 52 13.3337V50.667C52 54.3489 49.0152 57.3337 45.3333 57.3337H21.3333V6.66699ZM18.6667 6.66699C14.9848 6.66699 12 9.65176 12 13.3337V50.667C12 54.3489 14.9848 57.3337 18.6667 57.3337L18.6667 6.66699ZM8 13.3337C8 7.44262 12.7756 2.66699 18.6667 2.66699H45.3333C51.2244 2.66699 56 7.44262 56 13.3337V50.667C56 56.558 51.2244 61.3337 45.3333 61.3337H18.6667C12.7756 61.3337 8 56.558 8 50.667V13.3337ZM26.6667 15.3337C26.6667 14.2291 27.5621 13.3337 28.6667 13.3337H43.3333C44.4379 13.3337 45.3333 14.2291 45.3333 15.3337C45.3333 16.4382 44.4379 17.3337 43.3333 17.3337H28.6667C27.5621 17.3337 26.6667 16.4382 26.6667 15.3337ZM31.3333 21.3337C30.2288 21.3337 29.3333 22.2291 29.3333 23.3337C29.3333 24.4382 30.2288 25.3337 31.3333 25.3337H40.6667C41.7712 25.3337 42.6667 24.4382 42.6667 23.3337C42.6667 22.2291 41.7712 21.3337 40.6667 21.3337H31.3333Z" fill="#18202A"/>
</svg>
