<svg width="64" height="64" viewBox="0 0 64 64" fill="none" xmlns="http://www.w3.org/2000/svg">
<path d="M2.66669 4.66651C2.66669 3.56194 3.56212 2.6665 4.66669 2.6665C5.77126 2.6665 6.66669 3.56193 6.66669 4.6665V59.3332C6.66669 60.4377 5.77126 61.3332 4.66669 61.3332C3.56212 61.3332 2.66669 60.4377 2.66669 59.3332V4.66651Z" fill="#18202A"/>
<path fill-rule="evenodd" clip-rule="evenodd" d="M32 11.9998H6.66669V38.6665H34.6667C35.4031 38.6665 36 38.0695 36 37.3332V15.9998C36 13.7907 34.2092 11.9998 32 11.9998ZM2.66669 7.99984V42.6665H34.6667C37.6122 42.6665 40 40.2787 40 37.3332V15.9998C40 11.5816 36.4183 7.99984 32 7.99984H2.66669Z" fill="#18202A"/>
<path fill-rule="evenodd" clip-rule="evenodd" d="M21.3334 42.6665V47.9998C21.3334 50.9454 23.7212 53.3332 26.6667 53.3332H58.8182C60.9872 53.3332 62.2488 50.8815 60.9881 49.1165L51.7738 36.2165C51.1115 35.2893 51.1115 34.0437 51.7738 33.1165L60.9881 20.2165C62.2488 18.4515 60.9872 15.9998 58.8182 15.9998H40V19.9998H56.2273L48.5189 30.7916C46.8632 33.1096 46.8632 36.2234 48.5189 38.5414L56.2273 49.3332H26.6667C25.9303 49.3332 25.3334 48.7362 25.3334 47.9998V42.6665H21.3334Z" fill="#18202A"/>
<path fill-rule="evenodd" clip-rule="evenodd" d="M35.0361 39.6567C35.8887 38.7267 36.0771 38.0746 36.0155 37.5812L39.9846 37.0851C40.2562 39.2584 39.1947 41.0397 37.9847 42.3596C36.774 43.6805 35.1546 44.8283 33.6884 45.8002C33.2087 46.1182 32.7503 46.4145 32.3153 46.6959C31.3345 47.3301 30.4724 47.8877 29.7515 48.4428C29.2458 48.8322 28.9264 49.1358 28.7471 49.3615C28.6739 49.4536 28.6455 49.5056 28.6382 49.5207C28.6451 49.5035 28.6667 49.4393 28.6667 49.3332H24.6667C24.6667 48.2965 25.1492 47.46 25.6149 46.8736C26.0893 46.2764 26.7021 45.7425 27.311 45.2736C28.1693 44.6126 29.2541 43.9109 30.3011 43.2337C30.7042 42.973 31.1016 42.7159 31.4784 42.4661C32.9288 41.5047 34.1844 40.5859 35.0361 39.6567ZM28.6361 49.5254C28.636 49.5254 28.6366 49.5239 28.6382 49.5207L28.6361 49.5254Z" fill="#18202A"/>
</svg>
