<svg width="64" height="64" viewBox="0 0 64 64" fill="none" xmlns="http://www.w3.org/2000/svg">
<path d="M34 31.3332C34 30.2286 33.1045 29.3332 32 29.3332C30.8954 29.3332 30 30.2286 30 31.3332V37.9998H23.3333C22.2287 37.9998 21.3333 38.8953 21.3333 39.9998C21.3333 41.1044 22.2287 41.9998 23.3333 41.9998H30V48.6665C30 49.7711 30.8954 50.6665 32 50.6665C33.1045 50.6665 34 49.7711 34 48.6665V41.9998H40.6666C41.7712 41.9998 42.6666 41.1044 42.6666 39.9998C42.6666 38.8953 41.7712 37.9998 40.6666 37.9998H34V31.3332Z" fill="#18202A"/>
<path fill-rule="evenodd" clip-rule="evenodd" d="M10.6929 18.0135C11.0252 13.9006 14.4682 10.6665 18.6666 10.6665H45.3333C49.5317 10.6665 52.9748 13.9006 53.307 18.0135C54.8065 19.3437 55.8026 21.2287 55.9737 23.3468C57.6256 24.8123 58.6666 26.9512 58.6666 29.3332V50.6665C58.6666 55.0848 55.0849 58.6665 50.6666 58.6665H13.3333C8.91503 58.6665 5.33331 55.0848 5.33331 50.6665V29.3332C5.33331 26.9512 6.37434 24.8124 8.02625 23.3468C8.19736 21.2288 9.19348 19.3437 10.6929 18.0135ZM15.6795 16.0061C16.4121 15.1841 17.4789 14.6665 18.6666 14.6665H45.3333C46.521 14.6665 47.5878 15.1842 48.3204 16.0061C48.2141 16.002 48.1073 15.9998 48 15.9998H16C15.8927 15.9998 15.7858 16.002 15.6795 16.0061ZM13.0129 21.3395C13.1192 21.3353 13.226 21.3332 13.3333 21.3332H50.6666C50.774 21.3332 50.8808 21.3353 50.9871 21.3395C50.2545 20.5175 49.1877 19.9998 48 19.9998H16C14.8123 19.9998 13.7455 20.5175 13.0129 21.3395ZM54.6666 29.3332C54.6666 27.124 52.8758 25.3332 50.6666 25.3332H13.3333C11.1242 25.3332 9.33331 27.124 9.33331 29.3332V50.6665C9.33331 52.8756 11.1242 54.6665 13.3333 54.6665H50.6666C52.8758 54.6665 54.6666 52.8756 54.6666 50.6665V29.3332Z" fill="#18202A"/>
</svg>
