<svg width="64" height="64" viewBox="0 0 64 64" fill="none" xmlns="http://www.w3.org/2000/svg">
<path fill-rule="evenodd" clip-rule="evenodd" d="M61.3333 32.0001C61.3333 48.2004 48.2004 61.3334 32 61.3334C15.7997 61.3334 2.66667 48.2004 2.66667 32.0001C2.66667 15.7997 15.7997 2.66675 32 2.66675C48.2004 2.66675 61.3333 15.7997 61.3333 32.0001ZM28 20.0001C28 17.7909 29.7909 16.0001 32 16.0001C34.2091 16.0001 36 17.7909 36 20.0001C36 22.2092 34.2091 24.0001 32 24.0001C29.7909 24.0001 28 22.2092 28 20.0001ZM24 29.3334C24 27.8607 25.1939 26.6667 26.6667 26.6667H32C33.4728 26.6667 34.6667 27.8607 34.6667 29.3334V42.6667H37.3333C38.8061 42.6667 40 43.8607 40 45.3334C40 46.8062 38.8061 48.0001 37.3333 48.0001H26.6667C25.1939 48.0001 24 46.8062 24 45.3334C24 43.8607 25.1939 42.6667 26.6667 42.6667H29.3333V32.0001H26.6667C25.1939 32.0001 24 30.8062 24 29.3334Z" fill="#18202A"/>
</svg>
