<svg width="64" height="64" viewBox="0 0 64 64" fill="none" xmlns="http://www.w3.org/2000/svg">
<path fill-rule="evenodd" clip-rule="evenodd" d="M32 56.0001C45.2548 56.0001 56 45.2549 56 32.0001C56 18.7452 45.2548 8.00008 32 8.00008C18.7452 8.00008 8.00001 18.7452 8.00001 32.0001C8.00001 45.2549 18.7452 56.0001 32 56.0001ZM61.3333 32.0001C61.3333 48.2004 48.2004 61.3334 32 61.3334C15.7997 61.3334 2.66667 48.2004 2.66667 32.0001C2.66667 15.7997 15.7997 2.66675 32 2.66675C48.2004 2.66675 61.3333 15.7997 61.3333 32.0001Z" fill="#18202A"/>
<path fill-rule="evenodd" clip-rule="evenodd" d="M52.5523 11.4478C51.5109 10.4064 49.8225 10.4064 48.7811 11.4478L11.4477 48.7811C10.4063 49.8225 10.4063 51.511 11.4477 52.5524C12.4891 53.5938 14.1776 53.5938 15.219 52.5524L52.5523 15.219C53.5937 14.1776 53.5937 12.4892 52.5523 11.4478Z" fill="#18202A"/>
</svg>
