<svg width="64" height="64" viewBox="0 0 64 64" fill="none" xmlns="http://www.w3.org/2000/svg">
<path fill-rule="evenodd" clip-rule="evenodd" d="M53.3334 29.3334C53.3334 34.3253 51.8093 38.9612 49.2011 42.8013C48.3466 44.0595 47.3757 45.2321 46.3039 46.3039C45.2321 47.3757 44.0594 48.3466 42.8013 49.2011C38.9612 51.8093 34.3253 53.3334 29.3334 53.3334C16.0785 53.3334 5.33337 42.5882 5.33337 29.3334C5.33337 16.0785 16.0785 5.33337 29.3334 5.33337C42.5882 5.33337 53.3334 16.0785 53.3334 29.3334ZM48.7811 48.7811C49.5879 47.9742 50.7832 47.7925 51.765 48.2359C52.0504 48.3648 52.3178 48.5465 52.5523 48.7811L57.8857 54.1144C58.9271 55.1558 58.9271 56.8443 57.8857 57.8857C56.8443 58.9271 55.1558 58.9271 54.1144 57.8857L48.7811 52.5523C48.5465 52.3178 48.3648 52.0504 48.2359 51.765C47.7925 50.7832 47.9742 49.5879 48.7811 48.7811ZM48 29.3334C48 39.6427 39.6427 48 29.3334 48C19.0241 48 10.6667 39.6427 10.6667 29.3334C10.6667 19.0241 19.0241 10.6667 29.3334 10.6667C39.6427 10.6667 48 19.0241 48 29.3334ZM21.3334 26.6667C19.8606 26.6667 18.6667 27.8606 18.6667 29.3334C18.6667 30.8061 19.8606 32 21.3334 32H37.3334C38.8061 32 40 30.8061 40 29.3334C40 27.8606 38.8061 26.6667 37.3334 26.6667H21.3334Z" fill="#18202A"/>
</svg>
