<svg width="64" height="64" viewBox="0 0 64 64" fill="none" xmlns="http://www.w3.org/2000/svg">
<path d="M40 20.0003C40 26.667 37.3333 32.0003 32 32.0003C26.6667 32.0003 24 26.667 24 20.0003C24 14.667 26.6667 10.667 32 10.667C37.3333 10.667 40 14.667 40 20.0003Z" fill="#18202A"/>
<path d="M46.8225 52.3912C45.4039 55.4933 42.4914 57.6414 39.1174 58.1429C36.795 58.4881 34.4184 58.667 32 58.667C29.5816 58.667 27.2049 58.4881 24.8826 58.1429C21.5086 57.6414 18.5961 55.4933 17.1775 52.3912C16.6769 51.2965 16.2213 50.177 15.813 49.0351C14.4167 45.1302 15.5853 40.675 19.078 38.4392C22.8081 36.0513 27.2424 34.667 32 34.667C36.7576 34.667 41.1919 36.0513 44.922 38.4392C48.4146 40.675 49.5832 45.1302 48.187 49.0351C47.7786 50.177 47.323 51.2965 46.8225 52.3912Z" fill="#18202A"/>
<path d="M13.3333 32.0003C16.8889 32.0003 18.6667 28.667 18.6667 24.5003C18.6667 21.167 16.8889 18.667 13.3333 18.667C9.77778 18.667 8 21.167 8 24.5003C8 28.667 9.77778 32.0003 13.3333 32.0003Z" fill="#18202A"/>
<path d="M56 24.5003C56 28.667 54.2222 32.0003 50.6667 32.0003C47.1111 32.0003 45.3333 28.667 45.3333 24.5003C45.3333 21.167 47.1111 18.667 50.6667 18.667C54.2222 18.667 56 21.167 56 24.5003Z" fill="#18202A"/>
<path d="M10.791 50.8313C9.2244 46.4499 9.72263 41.3098 12.5292 37.4131C9.9834 37.6315 7.56535 38.2969 5.35387 39.3306C2.24171 40.7852 0.985906 44.4591 2.03659 47.7299C2.95587 50.5915 5.45223 52.6019 8.43526 52.9701C9.52471 53.1046 10.6255 53.2026 11.7363 53.2628C11.4 52.4632 11.0847 51.6524 10.791 50.8313Z" fill="#18202A"/>
<path d="M52.2779 53.2292C52.6089 52.4405 52.9194 51.6409 53.2089 50.8313C54.7678 46.4718 54.2823 41.3612 51.5128 37.4716C54.1931 37.7762 56.7228 38.5775 59.0075 39.7811C61.8631 41.2856 62.9657 44.7377 61.9725 47.8087C61.0955 50.5205 58.7508 52.4457 55.9294 52.8489C54.726 53.0209 53.5083 53.1482 52.2779 53.2292Z" fill="#18202A"/>
</svg>
