<svg width="64" height="64" viewBox="0 0 64 64" fill="none" xmlns="http://www.w3.org/2000/svg">
<path d="M13.3333 26.6667C16.2789 26.6667 18.6667 24.2789 18.6667 21.3333C18.6667 18.3878 16.2789 16 13.3333 16C10.3878 16 8 18.3878 8 21.3333C8 24.2789 10.3878 26.6667 13.3333 26.6667Z" fill="#18202A"/>
<path d="M13.3333 48C16.2789 48 18.6667 45.6122 18.6667 42.6667C18.6667 39.7211 16.2789 37.3333 13.3333 37.3333C10.3878 37.3333 8 39.7211 8 42.6667C8 45.6122 10.3878 48 13.3333 48Z" fill="#18202A"/>
<path d="M37.3333 21.3333C37.3333 24.2789 34.9455 26.6667 32 26.6667C29.0545 26.6667 26.6667 24.2789 26.6667 21.3333C26.6667 18.3878 29.0545 16 32 16C34.9455 16 37.3333 18.3878 37.3333 21.3333Z" fill="#18202A"/>
<path d="M37.3333 42.6667C37.3333 45.6122 34.9455 48 32 48C29.0545 48 26.6667 45.6122 26.6667 42.6667C26.6667 39.7211 29.0545 37.3333 32 37.3333C34.9455 37.3333 37.3333 39.7211 37.3333 42.6667Z" fill="#18202A"/>
<path d="M56 42.6667C56 45.6122 53.6122 48 50.6667 48C47.7211 48 45.3333 45.6122 45.3333 42.6667C45.3333 39.7211 47.7211 37.3333 50.6667 37.3333C53.6122 37.3333 56 39.7211 56 42.6667Z" fill="#18202A"/>
<path d="M56 21.3333C56 24.2789 53.6122 26.6667 50.6667 26.6667C47.7211 26.6667 45.3333 24.2789 45.3333 21.3333C45.3333 18.3878 47.7211 16 50.6667 16C53.6122 16 56 18.3878 56 21.3333Z" fill="#18202A"/>
</svg>
