<svg width="64" height="64" viewBox="0 0 64 64" fill="none" xmlns="http://www.w3.org/2000/svg">
<g clip-path="url(#clip0_3906_9145)">
<path fill-rule="evenodd" clip-rule="evenodd" d="M30.3432 17.3333L26.1814 13.1716C25.4313 12.4214 24.4138 12 23.353 12H13.3334C9.65146 12 6.66669 14.9848 6.66669 18.6667V45.3333C6.66669 49.0152 9.65146 52 13.3334 52H50.6667C54.3486 52 57.3334 49.0152 57.3334 45.3333V24C57.3334 20.3181 54.3486 17.3333 50.6667 17.3333H30.3432ZM13.3334 8C7.44232 8 2.66669 12.7756 2.66669 18.6667V45.3333C2.66669 51.2244 7.44232 56 13.3334 56H50.6667C56.5577 56 61.3334 51.2244 61.3334 45.3333V24C61.3334 18.109 56.5577 13.3333 50.6667 13.3333H32L29.0098 10.3431C27.5095 8.84286 25.4747 8 23.353 8H13.3334Z" fill="#18202A"/>
</g>
<defs>
<clipPath id="clip0_3906_9145">
<rect width="64" height="64" fill="white"/>
</clipPath>
</defs>
</svg>
