<svg width="64" height="64" viewBox="0 0 64 64" fill="none" xmlns="http://www.w3.org/2000/svg">
<path fill-rule="evenodd" clip-rule="evenodd" d="M32 57.3332C45.9912 57.3332 57.3334 45.9911 57.3334 31.9998C57.3334 18.0086 45.9912 6.6665 32 6.6665C18.0088 6.6665 6.66669 18.0086 6.66669 31.9998C6.66669 45.9911 18.0088 57.3332 32 57.3332ZM61.3334 31.9998C61.3334 48.2002 48.2004 61.3332 32 61.3332C15.7997 61.3332 2.66669 48.2002 2.66669 31.9998C2.66669 15.7995 15.7997 2.6665 32 2.6665C48.2004 2.6665 61.3334 15.7995 61.3334 31.9998Z" fill="#18202A"/>
<path d="M30 15.3332C30 14.2286 30.8955 13.3332 32 13.3332C33.1046 13.3332 34 14.2286 34 15.3332V31.9998C34 33.1044 33.1046 33.9998 32 33.9998C30.8955 33.9998 30 33.1044 30 31.9998V15.3332Z" fill="#18202A"/>
<path d="M46 29.9998C47.1046 29.9998 48 30.8953 48 31.9998C48 33.1044 47.1046 33.9998 46 33.9998H32C30.8955 33.9998 30 33.1044 30 31.9998C30 30.8953 30.8955 29.9998 32 29.9998H46Z" fill="#18202A"/>
</svg>
