<svg width="64" height="64" viewBox="0 0 64 64" fill="none" xmlns="http://www.w3.org/2000/svg">
<path fill-rule="evenodd" clip-rule="evenodd" d="M57.3334 32.0001C57.3334 45.9913 45.9912 57.3334 32 57.3334C18.0088 57.3334 6.66669 45.9913 6.66669 32.0001C6.66669 18.0089 18.0088 6.66675 32 6.66675C45.9912 6.66675 57.3334 18.0089 57.3334 32.0001ZM61.3334 32.0001C61.3334 48.2004 48.2004 61.3334 32 61.3334C15.7997 61.3334 2.66669 48.2004 2.66669 32.0001C2.66669 15.7997 15.7997 2.66675 32 2.66675C48.2004 2.66675 61.3334 15.7997 61.3334 32.0001ZM21.3334 30.0001C20.2288 30.0001 19.3334 30.8955 19.3334 32.0001C19.3334 33.1047 20.2288 34.0001 21.3334 34.0001H42.6667C43.7713 34.0001 44.6667 33.1047 44.6667 32.0001C44.6667 30.8955 43.7713 30.0001 42.6667 30.0001H21.3334Z" fill="#18202A"/>
</svg>
