<svg width="64" height="64" viewBox="0 0 64 64" fill="none" xmlns="http://www.w3.org/2000/svg">
<path fill-rule="evenodd" clip-rule="evenodd" d="M16.6395 20.9898C12.1381 24.6331 8.69804 28.9862 6.7923 31.6812C6.7117 31.7952 6.68414 31.9044 6.68414 32.0001C6.68414 32.0957 6.7117 32.2049 6.7923 32.3189C8.69803 35.014 12.1381 39.367 16.6395 43.0104C21.1682 46.6758 26.4078 49.3334 32 49.3334C37.5922 49.3334 42.8318 46.6758 47.3605 43.0104C51.8619 39.367 55.302 35.014 57.2077 32.3189C57.2883 32.205 57.3159 32.0957 57.3159 32.0001C57.3159 31.9044 57.2883 31.7952 57.2077 31.6812C55.302 28.9862 51.8619 24.6331 47.3605 20.9898C42.8318 17.3243 37.5922 14.6667 32 14.6667C26.4078 14.6667 21.1682 17.3243 16.6395 20.9898ZM3.52635 29.3718C2.40341 30.9598 2.40341 33.0404 3.52635 34.6284C7.55919 40.3315 18.26 53.3334 32 53.3334C45.74 53.3334 56.4408 40.3315 60.4737 34.6284C61.5966 33.0404 61.5966 30.9598 60.4737 29.3718C56.4408 23.6687 45.74 10.6667 32 10.6667C18.26 10.6667 7.5592 23.6687 3.52635 29.3718Z" fill="#18202A"/>
<path fill-rule="evenodd" clip-rule="evenodd" d="M32 38.6667C35.6819 38.6667 38.6667 35.682 38.6667 32.0001C38.6667 28.3182 35.6819 25.3334 32 25.3334C28.3181 25.3334 25.3334 28.3182 25.3334 32.0001C25.3334 35.682 28.3181 38.6667 32 38.6667ZM42.6667 32.0001C42.6667 37.8911 37.8911 42.6667 32 42.6667C26.109 42.6667 21.3334 37.8911 21.3334 32.0001C21.3334 26.109 26.109 21.3334 32 21.3334C37.8911 21.3334 42.6667 26.109 42.6667 32.0001Z" fill="#18202A"/>
</svg>
