<svg width="64" height="64" viewBox="0 0 64 64" fill="none" xmlns="http://www.w3.org/2000/svg">
<path fill-rule="evenodd" clip-rule="evenodd" d="M8 15.9987C8 10.1077 12.7756 5.33203 18.6667 5.33203H45.3333C51.2244 5.33203 56 10.1077 56 15.9987V47.9987C56 53.8897 51.2244 58.6654 45.3333 58.6654H18.6667C12.7756 58.6654 8 53.8897 8 47.9987V15.9987ZM24 53.332V42.6667C24 39.7211 26.3878 37.3333 29.3333 37.3333H34.6667C37.6122 37.3333 40 39.7211 40 42.6667V53.332H24ZM18.6667 18.6654C18.6667 17.1926 19.8606 15.9987 21.3333 15.9987C22.8061 15.9987 24 17.1926 24 18.6654C24 20.1381 22.8061 21.332 21.3333 21.332C19.8606 21.332 18.6667 20.1381 18.6667 18.6654ZM21.3333 23.9987C19.8606 23.9987 18.6667 25.1926 18.6667 26.6654C18.6667 28.1381 19.8606 29.332 21.3333 29.332C22.8061 29.332 24 28.1381 24 26.6654C24 25.1926 22.8061 23.9987 21.3333 23.9987ZM29.3333 18.6654C29.3333 17.1926 30.5272 15.9987 32 15.9987C33.4728 15.9987 34.6667 17.1926 34.6667 18.6654C34.6667 20.1381 33.4728 21.332 32 21.332C30.5272 21.332 29.3333 20.1381 29.3333 18.6654ZM32 23.9987C30.5272 23.9987 29.3333 25.1926 29.3333 26.6654C29.3333 28.1381 30.5272 29.332 32 29.332C33.4728 29.332 34.6667 28.1381 34.6667 26.6654C34.6667 25.1926 33.4728 23.9987 32 23.9987ZM40 18.6654C40 17.1926 41.1939 15.9987 42.6667 15.9987C44.1394 15.9987 45.3333 17.1926 45.3333 18.6654C45.3333 20.1381 44.1394 21.332 42.6667 21.332C41.1939 21.332 40 20.1381 40 18.6654ZM42.6667 23.9987C41.1939 23.9987 40 25.1926 40 26.6654C40 28.1381 41.1939 29.332 42.6667 29.332C44.1394 29.332 45.3333 28.1381 45.3333 26.6654C45.3333 25.1926 44.1394 23.9987 42.6667 23.9987Z" fill="#18202A"/>
</svg>
