<svg width="64" height="64" viewBox="0 0 64 64" fill="none" xmlns="http://www.w3.org/2000/svg">
<path fill-rule="evenodd" clip-rule="evenodd" d="M40.9211 3.61381C39.76 2.99231 38.4632 2.66699 37.1464 2.66699H26.853C25.536 2.66699 24.2395 2.99231 23.0783 3.61381C21.9172 4.2353 20.9275 5.13383 20.197 6.22966L18.0317 9.48033C17.7881 9.84545 17.4582 10.1448 17.0711 10.3518C16.6843 10.5587 16.2525 10.6669 15.8138 10.667L15.4216 10.6793C8.32618 10.9821 2.66669 16.8303 2.66669 24.0003V45.3337C2.66669 52.6974 8.63623 58.667 16 58.667H48C55.3638 58.667 61.3334 52.6974 61.3334 45.3337V24.0003C61.3334 16.6365 55.3638 10.667 48 10.667H48.1856C47.747 10.6669 47.315 10.5587 46.9283 10.3518C46.5414 10.1448 46.2112 9.84545 45.9678 9.48033L43.8024 6.22966C43.0718 5.13383 42.0822 4.2353 40.9211 3.61381ZM26.853 6.66699H37.1464L37.5396 6.68639C38.0611 6.73797 38.569 6.89178 39.0334 7.14037C39.6139 7.45109 40.1088 7.90043 40.4744 8.44871L42.6387 11.6979L42.9613 12.1411C43.5277 12.8558 44.2352 13.4475 45.0415 13.8788L45.5339 14.1168C46.2017 14.4064 46.9128 14.5847 47.6386 14.6445L48 14.667L48.5121 14.6808C53.4286 14.9467 57.3334 19.0175 57.3334 24.0003V45.3337L57.3195 45.8457C57.0537 50.7622 52.9828 54.667 48 54.667H16L15.4879 54.6532C10.5715 54.3873 6.66669 50.3165 6.66669 45.3337V24.0003L6.6805 23.4882C6.94635 18.5717 11.0172 14.667 16 14.6563L16.3608 14.6445C17.2678 14.5698 18.1519 14.3099 18.9578 13.8789C19.9252 13.3615 20.7501 12.6131 21.3591 11.7003L23.5261 8.4472L23.7601 8.13116C24.0919 7.72625 24.5015 7.38899 24.966 7.14039C25.5466 6.8296 26.1949 6.66699 26.853 6.66699ZM23.9063 26.0671C25.9656 23.9665 28.8292 22.667 32 22.667C36.9489 22.667 41.1569 25.8389 42.7019 30.2607L39.7172 30.6871C38.9164 30.8015 38.2634 31.387 38.0626 32.1706C37.8618 32.9542 38.1529 33.7816 38.8 34.267L44.1334 38.267C45.017 38.9297 46.2706 38.7506 46.9334 37.867L50.9334 32.5337C51.4187 31.8865 51.4664 31.0107 51.0543 30.3147C50.6422 29.6186 49.8513 29.2394 49.0505 29.3538L46.7183 29.6869C44.855 23.3185 38.9707 18.667 32 18.667C27.7111 18.667 23.8305 20.4305 21.0499 23.2669C20.2767 24.0557 20.2893 25.3219 21.078 26.0952C21.8668 26.8684 23.1331 26.8559 23.9063 26.0671ZM19.8667 29.7337C18.983 29.0709 17.7294 29.25 17.0667 30.1337L13.0667 35.467C12.5813 36.1141 12.5336 36.9899 12.9457 37.686C13.3579 38.382 14.1487 38.7613 14.9495 38.6469L17.2817 38.3137C19.145 44.6821 25.0293 49.3337 32 49.3337C36.2889 49.3337 40.1696 47.5701 42.9501 44.7337C43.7234 43.945 43.7108 42.6787 42.922 41.9055C42.1333 41.1322 40.867 41.1448 40.0937 41.9336C38.0345 44.0341 35.1708 45.3337 32 45.3337C27.0512 45.3337 22.8432 42.1617 21.2982 37.7399L24.2829 37.3136C25.0837 37.1992 25.7367 36.6136 25.9375 35.83C26.1382 35.0464 25.8472 34.219 25.2 33.7337L19.8667 29.7337Z" fill="#18202A"/>
</svg>
