<svg width="64" height="64" viewBox="0 0 64 64" fill="none" xmlns="http://www.w3.org/2000/svg">
<path fill-rule="evenodd" clip-rule="evenodd" d="M32 43.9998C37.1547 43.9998 41.3334 39.8212 41.3334 34.6665C41.3334 29.5118 37.1547 25.3332 32 25.3332C26.8454 25.3332 22.6667 29.5118 22.6667 34.6665C22.6667 39.8212 26.8454 43.9998 32 43.9998ZM32 47.9998C39.3638 47.9998 45.3334 42.0303 45.3334 34.6665C45.3334 27.3027 39.3638 21.3332 32 21.3332C24.6362 21.3332 18.6667 27.3027 18.6667 34.6665C18.6667 42.0303 24.6362 47.9998 32 47.9998Z" fill="#18202A"/>
<path d="M37.1464 2.6665C38.4632 2.6665 39.76 2.99183 40.9211 3.61332C42.0822 4.23481 43.0718 5.13335 43.8024 6.22917L45.9678 9.47984C46.2112 9.84496 46.5414 10.1443 46.9283 10.3513C47.315 10.5582 47.747 10.6665 48.1856 10.6665H48C55.3638 10.6665 61.3334 16.6361 61.3334 23.9998V45.3332C61.3334 52.6969 55.3638 58.6665 48 58.6665H16C8.63623 58.6665 2.66669 52.6969 2.66669 45.3332V23.9998C2.66669 16.8298 8.32618 10.9817 15.4216 10.6788L15.8138 10.6665C16.2525 10.6665 16.6843 10.5582 17.0711 10.3513C17.4582 10.1443 17.7881 9.84496 18.0317 9.47984L20.197 6.22917C20.9275 5.13335 21.9172 4.23481 23.0783 3.61332C24.2395 2.99183 25.536 2.6665 26.853 2.6665H37.1464ZM37.1464 6.6665H26.853C26.1949 6.6665 25.5466 6.82911 24.966 7.1399C24.5015 7.3885 24.0919 7.72576 23.7601 8.13067L23.5261 8.44671L21.3591 11.6998C20.7501 12.6127 19.9252 13.361 18.9578 13.8784C18.1519 14.3094 17.2678 14.5693 16.3608 14.644L16 14.6558C11.0172 14.6665 6.94635 18.5713 6.6805 23.4877L6.66669 23.9998V45.3332C6.66669 50.316 10.5715 54.3868 15.4879 54.6527L16 54.6665H48C52.9828 54.6665 57.0537 50.7617 57.3195 45.8453L57.3334 45.3332V23.9998C57.3334 19.017 53.4286 14.9462 48.5121 14.6803L48 14.6665L47.6386 14.644C46.9128 14.5842 46.2017 14.4059 45.5339 14.1163L45.0415 13.8783C44.2352 13.447 43.5277 12.8553 42.9613 12.1406L42.6387 11.6974L40.4744 8.44822C40.1088 7.89994 39.6139 7.4506 39.0334 7.13988C38.569 6.89129 38.0611 6.73749 37.5396 6.6859L37.1464 6.6665Z" fill="#18202A"/>
</svg>
