<svg width="64" height="64" viewBox="0 0 64 64" fill="none" xmlns="http://www.w3.org/2000/svg">
<path d="M2.66669 12.6665C2.66669 11.5619 3.56212 10.6665 4.66669 10.6665H59.3334C60.4379 10.6665 61.3334 11.5619 61.3334 12.6665C61.3334 13.7711 60.4379 14.6665 59.3334 14.6665H4.66669C3.56212 14.6665 2.66669 13.7711 2.66669 12.6665Z" fill="#18202A"/>
<path d="M2.66669 51.3332C2.66669 50.2286 3.56212 49.3332 4.66669 49.3332H59.3334C60.4379 49.3332 61.3334 50.2286 61.3334 51.3332C61.3334 52.4377 60.4379 53.3332 59.3334 53.3332H4.66669C3.56212 53.3332 2.66669 52.4377 2.66669 51.3332Z" fill="#18202A"/>
<path d="M2.66669 31.9998C2.66669 30.8953 3.56212 29.9998 4.66669 29.9998H59.3334C60.4379 29.9998 61.3334 30.8953 61.3334 31.9998C61.3334 33.1044 60.4379 33.9998 59.3334 33.9998H4.66669C3.56212 33.9998 2.66669 33.1044 2.66669 31.9998Z" fill="#18202A"/>
</svg>
