<svg width="64" height="64" viewBox="0 0 64 64" fill="none" xmlns="http://www.w3.org/2000/svg">
<path fill-rule="evenodd" clip-rule="evenodd" d="M16 2.66699C13.0545 2.66699 10.6667 5.05481 10.6667 8.00033H53.3333C53.3333 5.05481 50.9455 2.66699 48 2.66699H16ZM16 16.0003H8V24.0003C8 25.4731 9.19391 26.667 10.6667 26.667H13.3333C14.8061 26.667 16 25.4731 16 24.0003V16.0003ZM13.3333 32.0003C15.3823 32.0003 17.2513 31.23 18.6667 29.9633C20.082 31.23 21.9511 32.0003 24 32.0003H26.6667C28.7156 32.0003 30.5847 31.23 32 29.9633C33.4154 31.23 35.2844 32.0003 37.3333 32.0003H40C42.049 32.0003 43.918 31.23 45.3333 29.9633C46.7487 31.23 48.6177 32.0003 50.6667 32.0003H53.3333C57.7516 32.0003 61.3333 28.4186 61.3333 24.0003V16.0003C61.3333 13.0548 58.9455 10.667 56 10.667H48H42.6667H34.6667H29.3333H21.3333H16H8C5.05449 10.667 2.66667 13.0548 2.66667 16.0003V24.0003C2.66667 28.4186 6.24839 32.0003 10.6667 32.0003H13.3333ZM42.6667 16.0003V24.0003C42.6667 25.4731 41.4728 26.667 40 26.667H37.3333C35.8606 26.667 34.6667 25.4731 34.6667 24.0003V16.0003H42.6667ZM50.6667 26.667C49.1952 26.667 48.0021 25.4752 48 24.0043V24.0003L48 16.0003H56V24.0003C56 25.4731 54.8061 26.667 53.3333 26.667H50.6667ZM21.3333 24.0003V16.0003H29.3333V24.0003C29.3333 25.4731 28.1394 26.667 26.6667 26.667H24C22.5272 26.667 21.3333 25.4731 21.3333 24.0003ZM5.33334 33.2399V50.6669C5.33334 56.558 10.109 61.3336 16 61.3336H48C53.891 61.3336 58.6667 56.558 58.6667 50.6669V33.2399C57.0977 34.1475 55.2762 34.6669 53.3333 34.6669H50.6667C48.7238 34.6669 46.9023 34.1475 45.3333 33.2399C43.7644 34.1475 41.9429 34.6669 40 34.6669H37.3333C35.3905 34.6669 33.5689 34.1475 32 33.2399C30.4311 34.1475 28.6095 34.6669 26.6667 34.6669H24C22.0571 34.6669 20.2356 34.1475 18.6667 33.2399C17.0978 34.1475 15.2762 34.6669 13.3333 34.6669H10.6667C8.72381 34.6669 6.90226 34.1475 5.33334 33.2399ZM24 42.0003C24 40.8958 24.8954 40.0003 26 40.0003H38C39.1046 40.0003 40 40.8958 40 42.0003V56.0003H24V42.0003Z" fill="#18202A"/>
</svg>
