<svg width="64" height="64" viewBox="0 0 64 64" fill="none" xmlns="http://www.w3.org/2000/svg">
<path d="M33.4142 3.25253C32.6332 2.47149 31.3669 2.47149 30.5858 3.25253L22.5858 11.2525C21.8048 12.0336 21.8048 13.2999 22.5858 14.081C23.3669 14.862 24.6332 14.862 25.4142 14.081L30 9.49518V30.0001H9.49511L14.0809 25.4143C14.8619 24.6332 14.8619 23.3669 14.0809 22.5859C13.2999 21.8048 12.0335 21.8048 11.2525 22.5859L3.25247 30.5859C2.47142 31.3669 2.47142 32.6332 3.25247 33.4143L11.2525 41.4143C12.0335 42.1953 13.2999 42.1953 14.0809 41.4143C14.8619 40.6332 14.8619 39.3669 14.0809 38.5859L9.49511 34.0001H30V54.505L25.4142 49.9192C24.6332 49.1382 23.3669 49.1382 22.5858 49.9192C21.8048 50.7003 21.8048 51.9666 22.5858 52.7476L30.5858 60.7476C31.3669 61.5287 32.6332 61.5287 33.4142 60.7476L41.4142 52.7476C42.1953 51.9666 42.1953 50.7003 41.4142 49.9192C40.6332 49.1382 39.3669 49.1382 38.5858 49.9192L34 54.505V34.0001H54.5049L49.9191 38.5859C49.1381 39.3669 49.1381 40.6332 49.9191 41.4143C50.7002 42.1953 51.9665 42.1953 52.7476 41.4143L60.7476 33.4143C61.5286 32.6332 61.5286 31.3669 60.7476 30.5859L52.7476 22.5859C51.9665 21.8048 50.7002 21.8048 49.9191 22.5859C49.1381 23.3669 49.1381 24.6332 49.9191 25.4143L54.5049 30.0001H34V9.49518L38.5858 14.081C39.3669 14.862 40.6332 14.862 41.4142 14.081C42.1953 13.2999 42.1953 12.0336 41.4142 11.2525L33.4142 3.25253Z" fill="#18202A"/>
</svg>
