<svg width="64" height="64" viewBox="0 0 64 64" fill="none" xmlns="http://www.w3.org/2000/svg">
<path fill-rule="evenodd" clip-rule="evenodd" d="M48.879 14C49.9565 13.2833 50.6667 12.0581 50.6667 10.667H56C60.4183 10.667 64 14.2487 64 18.667V45.3337C64 49.7519 60.4183 53.3337 56 53.3337H50.6667C50.6667 51.9421 49.9561 50.7166 48.878 50H44.4553C43.3772 50.7166 42.6667 51.9421 42.6667 53.3337H8C3.58172 53.3337 0 49.7519 0 45.3337V18.667C0 14.2487 3.58172 10.667 8 10.667H42.6667C42.6667 12.0581 43.3768 13.2833 44.4543 14H48.879ZM9 21.334C8.44772 21.334 8 21.7817 8 22.334V24.334C8 24.8863 8.44771 25.334 9 25.334H35C35.5523 25.334 36 24.8863 36 24.334V22.334C36 21.7817 35.5523 21.334 35 21.334H9ZM8 30.334C8 29.7817 8.44772 29.334 9 29.334H35C35.5523 29.334 36 29.7817 36 30.334V32.334C36 32.8863 35.5523 33.334 35 33.334H9C8.44771 33.334 8 32.8863 8 32.334V30.334ZM9 37.334C8.44772 37.334 8 37.7817 8 38.334V40.334C8 40.8863 8.44772 41.334 9 41.334H17.6667C18.219 41.334 18.6667 40.8863 18.6667 40.334V38.334C18.6667 37.7817 18.2189 37.334 17.6667 37.334H9ZM45.3333 24H48V40H45.3333V24Z" fill="#18202A"/>
</svg>
