<svg width="64" height="64" viewBox="0 0 64 64" fill="none" xmlns="http://www.w3.org/2000/svg">
<path fill-rule="evenodd" clip-rule="evenodd" d="M28 35.0646V44.9351L36.2254 39.9998L28 35.0646ZM28.0387 30.423C26.2613 29.3566 24 30.6369 24 32.7097V47.29C24 49.3628 26.2613 50.6431 28.0387 49.5766L40.1889 42.2865C41.9152 41.2507 41.9152 38.7489 40.1889 37.7132L28.0387 30.423Z" fill="#18202A"/>
<path fill-rule="evenodd" clip-rule="evenodd" d="M50.6667 22.6665H13.3334C9.65146 22.6665 6.66669 25.6513 6.66669 29.3332V47.9998C6.66669 53.1545 10.8454 57.3332 16 57.3332H48C53.1547 57.3332 57.3334 53.1545 57.3334 47.9998V29.3332C57.3334 25.6513 54.3486 22.6665 50.6667 22.6665ZM13.3334 18.6665C7.44232 18.6665 2.66669 23.4421 2.66669 29.3332V47.9998C2.66669 55.3636 8.63623 61.3332 16 61.3332H48C55.3638 61.3332 61.3334 55.3636 61.3334 47.9998V29.3332C61.3334 23.4421 56.5577 18.6665 50.6667 18.6665H13.3334Z" fill="#18202A"/>
<path d="M10.6667 12.6665C10.6667 11.5619 11.5621 10.6665 12.6667 10.6665H51.3334C52.4379 10.6665 53.3334 11.5619 53.3334 12.6665C53.3334 13.7711 52.4379 14.6665 51.3334 14.6665H12.6667C11.5621 14.6665 10.6667 13.7711 10.6667 12.6665Z" fill="#18202A"/>
<path d="M16 4.6665C16 3.56193 16.8955 2.6665 18 2.6665H46C47.1046 2.6665 48 3.56193 48 4.6665C48 5.77107 47.1046 6.6665 46 6.6665H18C16.8955 6.6665 16 5.77107 16 4.6665Z" fill="#18202A"/>
</svg>
