<svg width="64" height="64" viewBox="0 0 64 64" fill="none" xmlns="http://www.w3.org/2000/svg">
<g clip-path="url(#clip0_3444_9131)">
<path fill-rule="evenodd" clip-rule="evenodd" d="M46.7476 6.58545C43.021 2.85889 36.979 2.85888 33.2525 6.58545L31.9289 7.90901L6.62453 31.8816C6.34859 32.143 6.15286 32.4776 6.06027 32.8463L2.7586 45.9912C2.29635 47.8315 3.94692 49.5081 5.79428 49.0747L19.1235 45.9473C19.4682 45.8664 19.7852 45.6955 20.0422 45.4521L45.3755 21.4521C45.3797 21.4481 45.3838 21.4442 45.3879 21.4402C45.4057 21.423 45.4232 21.4055 45.4403 21.3878L46.7476 20.0805C50.4741 16.354 50.4741 10.312 46.7476 6.58545ZM36.1626 9.33382L43.9992 17.1704C46.0833 15.0002 46.0566 11.5513 43.9191 9.41388C41.7817 7.27643 38.3328 7.24975 36.1626 9.33382ZM7.22463 44.6304L9.79799 34.3852L33.2956 12.1242L41.1329 19.9614L17.6836 42.1765L7.22463 44.6304Z" fill="#18202A"/>
<path d="M33.8383 45.879C33.5394 45.1816 32.8717 44.7134 32.1142 44.6701C31.3567 44.6268 30.64 45.0158 30.2635 45.6746L26.8497 51.6488C26.0188 53.1028 24.4725 54.0002 22.7979 54.0002H4.66669C3.56212 54.0002 2.66669 54.8956 2.66669 56.0002C2.66669 57.1047 3.56212 58.0002 4.66669 58.0002H22.7979C25.908 58.0002 28.7796 56.3337 30.3226 53.6334L31.7438 51.1463L33.1227 54.3637C34.0682 56.5698 36.2374 58.0002 38.6376 58.0002H38.6958C41.0959 58.0002 43.2652 56.5698 44.2106 54.3637L45.5895 51.1463L47.0107 53.6334C48.5538 56.3337 51.4254 58.0002 54.5355 58.0002H59.3334C60.4379 58.0002 61.3334 57.1047 61.3334 56.0002C61.3334 54.8956 60.4379 54.0002 59.3334 54.0002H54.5355C52.8608 54.0002 51.3146 53.1028 50.4837 51.6488L47.0698 45.6746C46.6934 45.0158 45.9766 44.6268 45.2192 44.6701C44.4617 44.7134 43.7939 45.1816 43.4951 45.879L40.5341 52.788C40.2189 53.5234 39.4958 54.0002 38.6958 54.0002H38.6376C37.8376 54.0002 37.1145 53.5234 36.7993 52.788L33.8383 45.879Z" fill="#18202A"/>
</g>
<defs>
<clipPath id="clip0_3444_9131">
<rect width="64" height="64" fill="white"/>
</clipPath>
</defs>
</svg>
