<svg width="64" height="64" viewBox="0 0 64 64" fill="none" xmlns="http://www.w3.org/2000/svg">
<path fill-rule="evenodd" clip-rule="evenodd" d="M2.66669 16C2.66669 10.1089 7.44232 5.33331 13.3334 5.33331H50.6667C56.5577 5.33331 61.3334 10.1089 61.3334 16V48C61.3334 53.891 56.5577 58.6666 50.6667 58.6666H13.3334C7.44232 58.6666 2.66669 53.891 2.66669 48V16ZM24 9.33331H40V30L24 30V9.33331ZM20 30V9.33331H13.3334C9.65146 9.33331 6.66669 12.3181 6.66669 16V30H20ZM6.66669 34H20V54.6666H13.3334C9.65146 54.6666 6.66669 51.6819 6.66669 48V34ZM24 34L40 34V54.6666H24V34ZM44 34V54.6666H50.6667C54.3486 54.6666 57.3334 51.6819 57.3334 48V34H44ZM57.3334 30V16C57.3334 12.3181 54.3486 9.33331 50.6667 9.33331H44V30H57.3334Z" fill="#18202A"/>
</svg>
