<svg width="64" height="64" viewBox="0 0 64 64" fill="none" xmlns="http://www.w3.org/2000/svg">
<path d="M47.0298 35.7919L53.9678 23.0723L54.1144 23.2189C55.1558 24.2603 56.8442 24.2603 57.8856 23.2189C58.4057 22.6988 58.666 22.0175 58.6667 21.3359V21.3306C58.666 20.6491 58.4057 19.9677 57.8856 19.4476L55.2627 16.8247C55.2348 16.7955 55.2062 16.7669 55.1768 16.7388L47.261 8.82305C47.233 8.79372 47.2044 8.76512 47.1752 8.73725L44.5523 6.1143C43.5109 5.0729 41.8224 5.0729 40.7811 6.1143C39.7397 7.1557 39.7397 8.84414 40.7811 9.88554L40.9276 10.0321L28.208 16.9701L47.0298 35.7919Z" fill="#18202A"/>
<path d="M11.4477 11.4476C12.4891 10.4062 14.1775 10.4062 15.2189 11.4476L52.5542 48.7829C53.5956 49.8243 53.5956 51.5127 52.5542 52.5541C51.5128 53.5955 49.8243 53.5955 48.7829 52.5541L41.7325 45.5037L39.6887 49.2507L41.8856 51.4476C42.927 52.489 42.927 54.1775 41.8856 55.2189C40.8442 56.2603 39.1558 56.2603 38.1144 55.2189L25.3333 42.4378L15.219 52.5522C14.1776 53.5936 12.4891 53.5936 11.4477 52.5522C10.4063 51.5108 10.4063 49.8224 11.4477 48.781L21.5621 38.6666L8.78105 25.8855C7.73965 24.8441 7.73965 23.1557 8.78105 22.1143C9.82245 21.0729 11.5109 21.0729 12.5523 22.1143L14.7492 24.3113L18.4963 22.2674L11.4477 15.2189C10.4063 14.1775 10.4063 12.489 11.4477 11.4476Z" fill="#18202A"/>
</svg>
