<svg width="64" height="64" viewBox="0 0 64 64" fill="none" xmlns="http://www.w3.org/2000/svg">
<path d="M35.3509 11.3332C39.0231 11.3332 42 14.3101 42 17.9823C42 20.6853 40.3665 23.1018 37.8977 24.1244L37.4535 24.2902L36.6325 24.5639C35.1813 25.0476 34.1662 26.3384 34.0186 27.8374L34 28.2162V29.3332C34 30.4377 33.1046 31.3332 32 31.3332C30.9875 31.3332 30.1507 30.5808 30.0183 29.6046L30 29.3332V28.2162C30 25.0063 31.9513 22.1386 34.8947 20.9437L35.3676 20.7691L36.1886 20.4955C37.2704 20.1349 38 19.1225 38 17.9823C38 16.6237 36.9774 15.504 35.6598 15.351L35.3509 15.3332H27.7712C26.793 15.3332 26 16.1262 26 17.1044C26 17.4802 26.1195 17.8437 26.3373 18.1441L26.5188 18.3568L26.7476 18.5856C27.5286 19.3667 27.5286 20.633 26.7476 21.4141C26.0375 22.1241 24.9264 22.1886 24.1435 21.6077L23.9191 21.4141L23.6904 21.1853C22.6081 20.103 22 18.635 22 17.1044C22 14.0556 24.3641 11.559 27.3591 11.3477L27.7712 11.3332H35.3509Z" fill="#18202A"/>
<path d="M34.6667 37.3332C34.6667 35.8604 33.4728 34.6665 32 34.6665C30.5273 34.6665 29.3334 35.8604 29.3334 37.3332C29.3334 38.8059 30.5273 39.9998 32 39.9998C33.4728 39.9998 34.6667 38.8059 34.6667 37.3332Z" fill="#18202A"/>
<path fill-rule="evenodd" clip-rule="evenodd" d="M50.6667 47.9998H34.4243L17.2148 58.2325C15.2198 59.4187 12.7667 57.6665 13.2417 55.3946L14.7879 47.9998H13.3334C12.4484 47.9998 11.5886 47.8921 10.7664 47.6889C6.11528 46.5399 2.66669 42.3393 2.66669 37.3332V13.3332C2.66669 7.44213 7.44232 2.6665 13.3334 2.6665H50.6667C56.5577 2.6665 61.3334 7.44213 61.3334 13.3332V37.3332C61.3334 43.2242 56.5577 47.9998 50.6667 47.9998ZM34.4243 43.9998C33.7047 43.9998 32.9985 44.1939 32.38 44.5617L17.7779 53.244L18.7032 48.8185C18.9497 47.6395 18.6519 46.4122 17.8923 45.4774C17.1327 44.5426 15.9924 43.9998 14.7879 43.9998H13.3334C9.65145 43.9998 6.66669 41.0151 6.66669 37.3332V13.3332C6.66669 9.65127 9.65146 6.6665 13.3334 6.6665H50.6667C54.3486 6.6665 57.3334 9.65127 57.3334 13.3332V37.3332C57.3334 41.0151 54.3486 43.9998 50.6667 43.9998H34.4243Z" fill="#18202A"/>
</svg>
