<svg width="64" height="64" viewBox="0 0 64 64" fill="none" xmlns="http://www.w3.org/2000/svg">
<path d="M26.7221 10.8743C20.6011 9.07605 14.1259 8.84784 7.89352 10.2107C6.81445 10.4466 5.74841 9.76315 5.51245 8.68408C5.27649 7.60501 5.95996 6.53896 7.03904 6.303C13.9275 4.79672 21.0843 5.04895 27.8496 7.03645C34.6149 9.02395 40.7709 12.6827 45.75 17.6755C50.7292 22.6682 54.3712 28.8342 56.3403 35.6049C58.3093 42.3755 58.5421 49.533 57.017 56.4173C56.7781 57.4957 55.7102 58.1763 54.6318 57.9374C53.5534 57.6985 52.8728 56.6306 53.1117 55.5522C54.4915 49.3235 54.2809 42.8477 52.4994 36.7219C50.7179 30.596 47.4227 25.0173 42.9178 20.5001C38.4128 15.9828 32.8431 12.6725 26.7221 10.8743Z" fill="#18202A"/>
<path d="M20.4298 25.8066C16.2555 24.9267 11.9155 25.2794 7.93805 26.8217C6.9082 27.2211 5.7496 26.71 5.35025 25.6801C4.95089 24.6503 5.46201 23.4917 6.49186 23.0923C11.1924 21.2695 16.3216 20.8527 21.2548 21.8926C26.188 22.9324 30.7125 25.3842 34.2773 28.9492C37.8422 32.5143 40.2937 37.0389 41.3333 41.9721C42.3729 46.9054 41.9558 52.0345 40.1328 56.735C39.7334 57.7648 38.5747 58.2759 37.5449 57.8765C36.5151 57.4771 36.004 56.3184 36.4034 55.2886C37.946 51.3113 38.2989 46.9713 37.4193 42.797C36.5396 38.6227 34.4653 34.7942 31.4488 31.7776C28.4324 28.761 24.604 26.6864 20.4298 25.8066Z" fill="#18202A"/>
<path fill-rule="evenodd" clip-rule="evenodd" d="M26.6778 48.0002C26.6778 53.8912 21.9021 58.6668 16.0111 58.6668C10.1201 58.6668 5.34444 53.8912 5.34444 48.0002C5.34444 42.1091 10.1201 37.3335 16.0111 37.3335C21.9021 37.3335 26.6778 42.1091 26.6778 48.0002ZM22.6778 48.0002C22.6778 51.6821 19.693 54.6668 16.0111 54.6668C12.3292 54.6668 9.34444 51.6821 9.34444 48.0002C9.34444 44.3183 12.3292 41.3335 16.0111 41.3335C19.693 41.3335 22.6778 44.3183 22.6778 48.0002Z" fill="#18202A"/>
</svg>
