<svg width="64" height="64" viewBox="0 0 64 64" fill="none" xmlns="http://www.w3.org/2000/svg">
<path fill-rule="evenodd" clip-rule="evenodd" d="M43.1915 16.7539C44.2478 17.7801 44.2723 19.4684 43.2461 20.5248L17.3413 47.1914C16.8262 47.7217 16.1141 48.0143 15.3749 47.9995C14.6358 47.9846 13.936 47.6635 13.4426 47.113L4.68073 37.3352C3.69787 36.2384 3.79025 34.5525 4.88706 33.5696C5.98388 32.5867 7.66979 32.6791 8.65265 33.7759L15.5073 41.4253L39.4206 16.8086C40.4468 15.7522 42.1351 15.7277 43.1915 16.7539Z" fill="#18202A"/>
<path fill-rule="evenodd" clip-rule="evenodd" d="M59.1915 16.7539C60.2478 17.7801 60.2723 19.4684 59.2461 20.5248L33.3413 47.1914C32.8131 47.7352 32.0785 48.0284 31.321 47.9978C30.5635 47.9672 29.8549 47.6157 29.3723 47.0311L26.5259 43.5838C25.5883 42.4481 25.7488 40.7673 26.8845 39.8296C28.0202 38.8919 29.701 39.0525 30.6386 40.1881L31.5899 41.3402L55.4206 16.8086C56.4468 15.7522 58.1351 15.7277 59.1915 16.7539Z" fill="#18202A"/>
</svg>
