<svg width="64" height="64" viewBox="0 0 64 64" fill="none" xmlns="http://www.w3.org/2000/svg">
<g clip-path="url(#clip0_3240_8953)">
<path d="M10.9985 44.5028L8.12293 47.3784C7.16179 46.0753 6.42351 44.574 5.9791 42.9155L0.457631 22.309C-1.44826 15.1962 2.77284 7.88499 9.88572 5.9791L30.4921 0.457631C37.2915 -1.36425 44.272 2.41263 46.539 8.96228L43.3011 12.2002L42.9584 10.921C41.6242 5.94198 36.5064 2.98721 31.5274 4.32133L10.921 9.84281C5.94198 11.1769 2.98721 16.2947 4.32133 21.2738L9.84281 41.8802C10.0984 42.834 10.4928 43.7135 10.9985 44.5028Z" fill="#18202A"/>
<path fill-rule="evenodd" clip-rule="evenodd" d="M60.744 6.10168L50.7876 16.0581L51.8477 16.1509C59.1835 16.7927 64.61 23.2598 63.9682 30.5955L62.1089 51.8477C61.4671 59.1835 55 64.61 47.6642 63.9682L26.412 62.1089C20.6367 61.6036 16.0447 57.4878 14.6657 52.18L6.10172 60.744C5.31591 61.5298 4.04187 61.5298 3.25606 60.744C2.47025 59.9582 2.47025 58.6841 3.25606 57.8983L57.8984 3.25602C58.6842 2.47021 59.9582 2.47021 60.744 3.25602C61.5298 4.04183 61.5298 5.31588 60.744 6.10168ZM28.805 39.2802L24.25 42.5957L31.1803 35.6654C34.367 35.4128 36.9989 32.8906 37.2868 29.6002L37.2906 29.5551L47.0953 19.7504L51.4991 20.1356C56.6341 20.5849 60.4327 25.1119 59.9834 30.2469L58.5661 46.4473L48.6534 34.5429L35.1339 44.2989L28.805 39.2802ZM18.663 51.6099L28.7014 44.3031L35.0201 49.3137L47.9677 39.9705L57.9929 52.01L58.0749 51.9417C57.4121 56.8505 52.9992 60.4197 48.0128 59.9834L26.7607 58.1241C22.8775 57.7844 19.7587 55.1128 18.663 51.6099Z" fill="#18202A"/>
<path d="M24.333 31.1683L32.7946 22.7067C32.2976 22.538 31.7727 22.4256 31.2265 22.3778C27.5587 22.0569 24.3251 24.7702 24.0042 28.4381C23.9207 29.3921 24.0425 30.3167 24.333 31.1683Z" fill="#18202A"/>
<path d="M20.1356 26.7607L19.3106 36.1907L14.9104 40.5909L16.1509 26.4121C16.7926 19.0763 23.2597 13.6497 30.5955 14.2915L40.3558 15.1455L36.6636 18.8377L30.2469 18.2763C25.1119 17.8271 20.5849 21.6256 20.1356 26.7607Z" fill="#18202A"/>
</g>
<defs>
<clipPath id="clip0_3240_8953">
<rect width="64" height="64" fill="white"/>
</clipPath>
</defs>
</svg>
