<svg width="64" height="64" viewBox="0 0 64 64" fill="none" xmlns="http://www.w3.org/2000/svg">
<path d="M26 5.33337H36.6613C37.168 5.33353 37.6558 5.52603 38.0261 5.87197C38.3964 6.21791 38.6215 6.6915 38.6561 7.19705C38.6906 7.7026 38.5319 8.20242 38.2122 8.5955C37.8924 8.98859 37.4353 9.24564 36.9333 9.31471L36.6613 9.33337H33.3333V54.6667H36.6533C37.1366 54.6667 37.6036 54.8418 37.9678 55.1594C38.332 55.4771 38.5689 55.9159 38.6346 56.3947L38.6533 56.6667C38.6533 57.15 38.4783 57.617 38.1606 57.9812C37.8429 58.3454 37.4041 58.5823 36.9253 58.648L36.6533 58.6667H26C25.4933 58.6665 25.0055 58.4741 24.6352 58.1281C24.2649 57.7822 24.0398 57.3086 24.0052 56.803C23.9707 56.2975 24.1294 55.7977 24.4491 55.4046C24.7689 55.0115 25.226 54.7544 25.728 54.6854L26 54.6667H29.3333V9.33337H26C25.5167 9.33335 25.0497 9.15833 24.6855 8.84066C24.3213 8.523 24.0844 8.08418 24.0186 7.60537L24 7.33337C24 6.85007 24.175 6.38313 24.4927 6.01889C24.8104 5.65466 25.2492 5.41777 25.728 5.35204L26 5.33337H36.6613H26ZM48.656 13.3254C50.9539 13.3275 53.157 14.2413 54.7819 15.8661C56.4068 17.491 57.3205 19.6941 57.3226 21.992L57.3333 42.0027C57.3349 44.2162 56.4892 46.3463 54.9698 47.956C53.4504 49.5656 51.3725 50.5327 49.1627 50.6587L48.6666 50.672H36.0133V46.672H48.8213C50.0327 46.6325 51.1811 46.123 52.0233 45.2515C52.8655 44.3799 53.3353 43.2147 53.3333 42.0027L53.3253 21.9894C53.3232 20.7514 52.8301 19.5649 51.9543 18.69C51.0784 17.8151 49.8913 17.3234 48.6533 17.3227H36.0133V13.3227H48.6533L48.656 13.3254ZM26.6666 13.3254V17.3254H14C12.7623 17.3254 11.5753 17.817 10.7001 18.6922C9.82498 19.5674 9.33331 20.7544 9.33331 21.992V42.0027C9.33331 44.5814 11.424 46.6694 14 46.6694H26.6533V50.6694H14C11.7014 50.6694 9.49704 49.7563 7.87172 48.131C6.24641 46.5056 5.33331 44.3013 5.33331 42.0027V21.992C5.33331 19.6935 6.24641 17.4891 7.87172 15.8638C9.49704 14.2385 11.7014 13.3254 14 13.3254H26.6666Z" fill="#18202A"/>
</svg>
