<svg width="64" height="64" viewBox="0 0 64 64" fill="none" xmlns="http://www.w3.org/2000/svg">
<path fill-rule="evenodd" clip-rule="evenodd" d="M29.3333 7.33301C17.183 7.33301 7.33331 17.1827 7.33331 29.333C7.33331 40.6557 15.8886 49.9829 26.8864 51.1986C27.9843 51.32 28.7759 52.3084 28.6545 53.4063C28.5332 54.5042 27.5448 55.2958 26.4469 55.1744C13.4449 53.7371 3.33331 42.7173 3.33331 29.333C3.33331 14.9736 14.9739 3.33301 29.3333 3.33301C42.7176 3.33301 53.7374 13.4446 55.1747 26.4466C55.2961 27.5445 54.5045 28.5329 53.4066 28.6542C52.3087 28.7756 51.3203 27.984 51.1989 26.8861C49.9832 15.8883 40.656 7.33301 29.3333 7.33301ZM29.3333 17.9997C23.0741 17.9997 18 23.0738 18 29.333C18 33.9773 20.7938 37.9735 24.8007 39.7242C25.8129 40.1664 26.2749 41.3455 25.8327 42.3576C25.3904 43.3698 24.2114 43.8318 23.1992 43.3896C17.788 41.0253 14 35.6238 14 29.333C14 20.8646 20.8649 13.9997 29.3333 13.9997C35.6241 13.9997 41.0256 17.7877 43.3899 23.1989C43.8321 24.2111 43.3701 25.3901 42.3579 25.8324C41.3458 26.2746 40.1667 25.8126 39.7245 24.8004C37.9738 20.7935 33.9776 17.9997 29.3333 17.9997ZM39.3108 54.0945L32.4115 32.4112L54.0949 39.3104L48.7572 42.8688C48.2587 43.2012 47.9354 43.7396 47.8764 44.3358C47.8173 44.9321 48.0287 45.5234 48.4524 45.9471L58.5049 55.9996L56 58.5045L45.9475 48.452C45.5238 48.0283 44.9325 47.8169 44.3362 47.876C43.74 47.935 43.2016 48.2583 42.8692 48.7568L39.3108 54.0945ZM32.3961 28.2087C29.8185 27.3885 27.3889 29.8182 28.209 32.3958L35.9196 56.6291C36.7671 59.2925 40.3192 59.793 41.8696 57.4674L44.8442 53.0055L53.643 61.8043C54.9447 63.1061 57.0552 63.1061 58.357 61.8043L61.8047 58.3566C63.1065 57.0549 63.1065 54.9443 61.8047 53.6426L53.0059 44.8438L57.4678 41.8692C59.7934 40.3188 59.2929 36.7667 56.6295 35.9193L32.3961 28.2087Z" fill="#18202A"/>
</svg>
