<svg width="64" height="64" viewBox="0 0 64 64" fill="none" xmlns="http://www.w3.org/2000/svg">
<path fill-rule="evenodd" clip-rule="evenodd" d="M46.4466 8C48.3916 8 50.1824 9.05885 51.1197 10.7631L60.4648 27.7542C61.0282 28.7785 61.2394 29.9595 61.066 31.1156L58.0147 51.4578C57.6231 54.0686 55.3803 56 52.7403 56H11.2597C8.61969 56 6.37696 54.0686 5.98535 51.4578L2.93401 31.1156C2.7606 29.9595 2.97183 28.7785 3.53519 27.7542L12.8803 10.7631C13.8176 9.05884 15.6084 8 17.5535 8H46.4466ZM9.99232 28.3474C9.75 28.7917 10.0715 29.3333 10.5776 29.3333H21.3333C22.8061 29.3333 23.9565 30.56 24.4383 31.9517C25.5228 35.0841 28.4987 37.3333 32 37.3333C35.5013 37.3333 38.4772 35.0841 39.5617 31.9517C40.0435 30.56 41.1939 29.3333 42.6667 29.3333H53.4224C53.9285 29.3333 54.25 28.7917 54.0077 28.3474L46.5762 14.7231C46.1089 13.8664 45.211 13.3333 44.2352 13.3333H19.7648C18.789 13.3333 17.8911 13.8664 17.4238 14.7231L9.99232 28.3474Z" fill="#18202A"/>
</svg>
