<svg width="64" height="64" viewBox="0 0 64 64" fill="none" xmlns="http://www.w3.org/2000/svg">
<path fill-rule="evenodd" clip-rule="evenodd" d="M32.0002 46.1145C30.9588 47.1559 30.9588 48.8443 32.0002 49.8857C33.0416 50.9271 34.73 50.9271 35.7714 49.8857L51.7714 33.8857C52.8128 32.8443 52.8128 31.1559 51.7714 30.1145L35.7714 14.1145C34.73 13.0731 33.0416 13.0731 32.0002 14.1145C30.9588 15.1559 30.9588 16.8443 32.0002 17.8857L46.1146 32.0001L32.0002 46.1145ZM12.229 46.1145C11.1876 47.1559 11.1876 48.8443 12.229 49.8857C13.2704 50.9271 14.9588 50.9271 16.0002 49.8857L32.0002 33.8857C33.0416 32.8443 33.0416 31.1559 32.0002 30.1145L16.0002 14.1145C14.9588 13.0731 13.2704 13.0731 12.229 14.1145C11.1876 15.1559 11.1876 16.8443 12.229 17.8857L26.3434 32.0001L12.229 46.1145Z" fill="#18202A"/>
</svg>
