<svg width="64" height="64" viewBox="0 0 64 64" fill="none" xmlns="http://www.w3.org/2000/svg">
<g clip-path="url(#clip0_2359_20979)">
<path fill-rule="evenodd" clip-rule="evenodd" d="M3.43502 0.589355C2.64921 -0.196452 1.37516 -0.196452 0.589355 0.589355C-0.196452 1.37516 -0.196452 2.64921 0.589356 3.43502L4.50269 7.34835C3.34382 9.0549 2.66667 11.115 2.66667 13.3333V37.3333C2.66667 42.3394 6.11526 46.54 10.7664 47.6891C11.5886 47.8922 12.4484 48 13.3333 48H14.7879L13.2417 55.3948C12.7667 57.6667 15.2198 59.4189 17.2148 58.2327L34.4242 48H45.1543L52.565 55.4106C53.3508 56.1965 54.6248 56.1965 55.4106 55.4106C56.1965 54.6248 56.1965 53.3508 55.4106 52.565L3.43502 0.589355ZM41.1543 44L7.41529 10.2609C6.93699 11.1804 6.66667 12.2253 6.66667 13.3333V37.3333C6.66667 41.0152 9.65143 44 13.3333 44H14.7879C15.9924 44 17.1327 44.5428 17.8923 45.4776C18.6518 46.4124 18.9497 47.6397 18.7032 48.8187L17.7779 53.2442L32.3799 44.5619C32.9984 44.1941 33.7047 44 34.4242 44H41.1543ZM57.3333 37.3333C57.3333 40.4525 55.1912 43.0714 52.2977 43.799L55.3957 46.897C58.9143 45.1538 61.3333 41.5261 61.3333 37.3333V13.3333C61.3333 7.4423 56.5577 2.66667 50.6667 2.66667H13.3333C12.6554 2.66667 11.9923 2.72991 11.3495 2.85081L15.1654 6.66667H50.6667C54.3486 6.66667 57.3333 9.65144 57.3333 13.3333V37.3333Z" fill="#18202A"/>
</g>
<defs>
<clipPath id="clip0_2359_20979">
<rect width="64" height="64" fill="white"/>
</clipPath>
</defs>
</svg>
