<svg width="64" height="64" viewBox="0 0 64 64" fill="none" xmlns="http://www.w3.org/2000/svg">
<g clip-path="url(#clip0_2359_18376)">
<path fill-rule="evenodd" clip-rule="evenodd" d="M32 29.3337C39.1111 29.3337 42.6667 22.667 42.6667 14.3337C42.6667 7.66699 39.1111 2.66699 32 2.66699C24.8889 2.66699 21.3333 7.66699 21.3333 14.3337C21.3333 22.667 24.8889 29.3337 32 29.3337ZM32.0001 34.667C32.2249 34.667 32.449 34.6698 32.6724 34.6753C29.7486 38.3263 28 42.9591 28 48.0003C28 53.0432 29.7498 57.6775 32.6753 61.329C32.4506 61.3321 32.2255 61.3337 32 61.3337C27.8736 61.3337 23.8689 60.813 20.0478 59.8337C16.797 59.0006 14.0419 56.8231 12.533 53.8257C12.4912 53.7427 12.4497 53.6595 12.4084 53.5763C10.3225 49.364 11.0318 44.2033 14.5911 41.1331C19.2626 37.1036 25.3468 34.667 32.0001 34.667ZM46.3229 32.0003C45.8404 32.0003 45.4268 32.3448 45.3394 32.8193L44.823 35.6242C43.2231 36.1771 41.7638 37.0315 40.5131 38.1195L37.8184 37.1616C37.3638 37 36.8587 37.186 36.6174 37.6038L33.8502 42.3969C33.6089 42.8147 33.7004 43.3452 34.0677 43.6581L36.2456 45.5137C36.0907 46.3187 36.0097 47.1501 36.0097 48.0003C36.0097 48.8506 36.0907 49.682 36.2456 50.4871L34.0677 52.3426C33.7004 52.6555 33.609 53.186 33.8502 53.6038L36.6175 58.3969C36.8587 58.8147 37.3639 59.0007 37.8184 58.8391L40.5131 57.8812C41.7639 58.9692 43.2231 59.8235 44.823 60.3764L45.3394 63.1814C45.4268 63.6559 45.8404 64.0003 46.3229 64.0003H51.8575C52.3399 64.0003 52.7536 63.6559 52.8409 63.1814L53.3559 60.3841C54.9619 59.8323 56.4268 58.9769 57.682 57.8865L60.362 58.8391C60.8166 59.0007 61.3217 58.8147 61.563 58.3969L64.3303 53.6038C64.5715 53.186 64.48 52.6555 64.1128 52.3426L61.9527 50.5023C62.1094 49.6924 62.1915 48.8559 62.1915 48.0003C62.1915 47.1447 62.1094 46.3083 61.9527 45.4985L64.1128 43.6581C64.48 43.3452 64.5715 42.8147 64.3303 42.3969L61.563 37.6038C61.3218 37.186 60.8166 37 60.362 37.1616L57.6821 38.1142C56.4269 37.0237 54.962 36.1683 53.3559 35.6166L52.8409 32.8193C52.7536 32.3448 52.3399 32.0003 51.8575 32.0003H46.3229ZM49.0885 53.3337C52.034 53.3337 54.4218 50.9458 54.4218 48.0003C54.4218 45.0548 52.034 42.667 49.0885 42.667C46.1429 42.667 43.7551 45.0548 43.7551 48.0003C43.7551 50.9458 46.1429 53.3337 49.0885 53.3337Z" fill="#18202A"/>
</g>
<defs>
<clipPath id="clip0_2359_18376">
<rect width="64" height="64" fill="white"/>
</clipPath>
</defs>
</svg>
