<svg width="64" height="64" viewBox="0 0 64 64" fill="none" xmlns="http://www.w3.org/2000/svg">
<g clip-path="url(#clip0_3444_9414)">
<path d="M46.2762 7.05669C42.81 3.59047 37.1901 3.59048 33.7239 7.0567L32.9426 7.83803L45.4948 20.3903L46.2762 19.609C49.7424 16.1428 49.7424 10.5229 46.2762 7.05669Z" fill="#18202A"/>
<path d="M7.08452 32.3635L29.1171 11.555L41.67 24.108L19.5822 44.9689C19.4111 45.1304 19.2003 45.2438 18.9712 45.2976L5.642 48.425C4.28078 48.7443 3.06457 47.509 3.40518 46.1529L6.70685 33.008C6.76875 32.7616 6.89978 32.538 7.08452 32.3635Z" fill="#18202A"/>
<path d="M32.1522 44.0044C33.1622 44.0621 34.0525 44.6864 34.451 45.6162L37.412 52.5252C37.6221 53.0155 38.1042 53.3333 38.6375 53.3333H38.6957C39.2291 53.3333 39.7111 53.0155 39.9212 52.5252L42.8822 45.6162C43.2807 44.6864 44.1711 44.0621 45.181 44.0044C46.191 43.9466 47.1467 44.4653 47.6486 45.3436L51.0625 51.3179C51.7746 52.5642 53.1 53.3333 54.5354 53.3333H58.6666C60.1394 53.3333 61.3333 54.5272 61.3333 56C61.3333 57.4728 60.1394 58.6667 58.6666 58.6667H54.5354C51.1861 58.6667 48.0936 56.872 46.4318 53.964L45.6749 52.6393L44.8233 54.6261C43.7728 57.0774 41.3626 58.6667 38.6957 58.6667H38.6375C35.9707 58.6667 33.5604 57.0774 32.5099 54.6261L31.6584 52.6393L30.9014 53.964C29.2397 56.872 26.1471 58.6667 22.7978 58.6667H5.33329C3.86053 58.6667 2.66663 57.4728 2.66663 56C2.66663 54.5272 3.86053 53.3333 5.33329 53.3333H22.7978C24.2332 53.3333 25.5586 52.5642 26.2708 51.3179L29.6846 45.3436C30.1866 44.4653 31.1422 43.9466 32.1522 44.0044Z" fill="#18202A"/>
</g>
<defs>
<clipPath id="clip0_3444_9414">
<rect width="64" height="64" fill="white"/>
</clipPath>
</defs>
</svg>
