<svg width="64" height="64" viewBox="0 0 64 64" fill="none" xmlns="http://www.w3.org/2000/svg">
<path fill-rule="evenodd" clip-rule="evenodd" d="M21.6667 2.66663C20.0098 2.66663 18.6667 4.00977 18.6667 5.66663V7.66663C18.6667 9.32348 20.0098 10.6666 21.6667 10.6666H42.3333C43.9902 10.6666 45.3333 9.32348 45.3333 7.66663V5.66663C45.3333 4.00977 43.9902 2.66663 42.3333 2.66663H21.6667ZM13.3334 5.66935C8.73277 6.85347 5.33337 11.0297 5.33337 16V50.6666C5.33337 56.5577 10.109 61.3333 16 61.3333H48C53.8911 61.3333 58.6667 56.5577 58.6667 50.6666V16C58.6667 11.0297 55.2673 6.85347 50.6667 5.66935V7.99997C50.6667 12.4183 47.085 16 42.6667 16H21.3334C16.9151 16 13.3334 12.4183 13.3334 7.99997V5.66935ZM47.219 24.781C48.2604 25.8224 48.2604 27.5109 47.219 28.5523L28.5523 47.2189C27.5109 48.2603 25.8225 48.2603 24.7811 47.2189L16.7811 39.2189C15.7397 38.1775 15.7397 36.4891 16.7811 35.4477C17.8225 34.4063 19.5109 34.4063 20.5523 35.4477L26.6667 41.5621L43.4478 24.781C44.4892 23.7396 46.1776 23.7396 47.219 24.781Z" fill="#18202A"/>
</svg>
