<svg width="64" height="64" viewBox="0 0 64 64" fill="none" xmlns="http://www.w3.org/2000/svg">
<path fill-rule="evenodd" clip-rule="evenodd" d="M5.92269 5.92285C6.7085 5.13704 7.98254 5.13704 8.76835 5.92285L58.0773 55.2318C58.8631 56.0176 58.8631 57.2917 58.0773 58.0775C57.2915 58.8633 56.0175 58.8633 55.2317 58.0775L50.4877 53.3335H2C0.895431 53.3335 0 52.4381 0 51.3335C0 50.2289 0.895431 49.3335 2 49.3335H10.6667C6.24839 49.3335 2.66667 45.7518 2.66667 41.3335V18.6772C2.66667 15.1144 4.99569 12.0956 8.21431 11.0601L5.92269 8.76851C5.13688 7.9827 5.13688 6.70866 5.92269 5.92285ZM36.5081 39.354L42.4877 45.3335H10.6667C8.45753 45.3335 6.66667 43.5426 6.66667 41.3335V18.6772C6.66667 16.4681 8.45753 14.6772 10.6667 14.6772H11.8314L24.5049 27.3508C24.3773 27.442 24.2509 27.5358 24.126 27.6323C20.8604 30.1524 18.6666 34.3692 18.6666 41.06C18.6666 41.3609 18.8681 41.6244 19.1584 41.7034C19.4487 41.7823 19.7559 41.657 19.9082 41.3975C21.6993 38.346 23.1215 36.488 25.2483 35.3476C26.6897 34.5746 28.4974 34.1086 31.0402 33.886L34.6666 37.5124V38.1172C34.6666 39.1175 35.685 39.6973 36.5081 39.354Z" fill="#18202A"/>
<path d="M42.2507 33.7521L32.9915 24.493C33.5534 24.4437 34.113 24.4141 34.6666 24.4011V20.0028C34.6666 18.815 36.1028 18.2201 36.9427 19.06L45.9999 28.1172C46.5206 28.6379 46.5206 29.4821 45.9999 30.0028L42.2507 33.7521Z" fill="#18202A"/>
<path d="M57.3333 41.3335C57.3333 43.3832 55.7916 45.0728 53.8046 45.306L56.9631 48.4646C59.557 47.1416 61.3333 44.445 61.3333 41.3335V18.6772C61.3333 14.259 57.7516 10.6772 53.3333 10.6772H19.1758L23.1758 14.6772H53.3333C55.5425 14.6772 57.3333 16.4681 57.3333 18.6772V41.3335Z" fill="#18202A"/>
<path d="M57.832 49.3335L61.832 53.3335H62C63.1046 53.3335 64 52.4381 64 51.3335C64 50.2289 63.1046 49.3335 62 49.3335H57.832Z" fill="#18202A"/>
</svg>
