<svg width="64" height="64" viewBox="0 0 64 64" fill="none" xmlns="http://www.w3.org/2000/svg">
<path d="M61.3333 13.3332C61.3333 19.2242 56.5577 23.9998 50.6666 23.9998C44.7756 23.9998 40 19.2242 40 13.3332C40 7.44213 44.7756 2.6665 50.6666 2.6665C56.5577 2.6665 61.3333 7.44213 61.3333 13.3332Z" fill="#18202A"/>
<path d="M61.3333 28.654C58.3097 30.763 54.6326 31.9998 50.6666 31.9998C40.3573 31.9998 32 23.6425 32 13.3332C32 10.4702 32.6445 7.75785 33.7963 5.33317H13.3333C7.44226 5.33317 2.66663 10.1088 2.66663 15.9998V39.9998C2.66663 45.8909 7.44225 50.6665 13.3333 50.6665H14.7878L13.2417 58.0613C12.7666 60.3332 15.2197 62.0854 17.2147 60.8992L34.4242 50.6665H50.6666C56.5577 50.6665 61.3333 45.8909 61.3333 39.9998V28.654Z" fill="#18202A"/>
</svg>
