<svg width="64" height="64" viewBox="0 0 64 64" fill="none" xmlns="http://www.w3.org/2000/svg">
<path fill-rule="evenodd" clip-rule="evenodd" d="M32 6.66699C35.6819 6.66699 38.6667 9.65176 38.6667 13.3337H25.3334C25.3334 9.65176 28.3181 6.66699 32 6.66699ZM21.3334 13.3337C21.3334 7.44262 26.109 2.66699 32 2.66699C37.8911 2.66699 42.6667 7.44262 42.6667 13.3337L53.3334 13.3337C57.7516 13.3337 61.3334 16.9154 61.3334 21.3337V27.5954V31.7958V48.0003C61.3334 52.4186 57.7516 56.0003 53.3334 56.0003H10.6667C6.24841 56.0003 2.66669 52.4186 2.66669 48.0003V31.7958V27.5954V21.3337C2.66669 16.9154 6.24841 13.3337 10.6667 13.3337L21.3334 13.3337ZM6.66669 33.0778V48.0003C6.66669 50.2095 8.45755 52.0003 10.6667 52.0003H53.3334C55.5425 52.0003 57.3334 50.2095 57.3334 48.0003V33.0776L41.6436 38.1057L41.5906 38.1195C35.3153 39.758 28.6821 39.758 22.4068 38.1195L22.3538 38.1057L6.66669 33.0778ZM57.3334 28.8772L40.5279 34.2629C34.948 35.7102 29.0494 35.7102 23.4696 34.2629L6.66669 28.8774V21.3337C6.66669 19.1245 8.45755 17.3337 10.6667 17.3337L21.3334 17.3337H42.6667L53.3334 17.3337C55.5425 17.3337 57.3334 19.1245 57.3334 21.3337V28.8772ZM36 28.0003C36 30.2095 34.2092 32.0003 32 32.0003C29.7909 32.0003 28 30.2095 28 28.0003C28 25.7912 29.7909 24.0003 32 24.0003C34.2092 24.0003 36 25.7912 36 28.0003Z" fill="#18202A"/>
</svg>
