<svg width="64" height="64" viewBox="0 0 64 64" fill="none" xmlns="http://www.w3.org/2000/svg">
<path fill-rule="evenodd" clip-rule="evenodd" d="M13.4376 54.6666H50.5624C55.6984 54.6666 58.9054 49.1032 56.3313 44.6588L37.769 12.6087C35.201 8.17471 28.799 8.17471 26.231 12.6087L7.66867 44.6588C5.0946 49.1032 8.3016 54.6666 13.4376 54.6666ZM50.5624 58.6666H13.4376C5.21998 58.6666 0.0887794 49.7652 4.2073 42.6541L22.7697 10.604C26.8785 3.50962 37.1215 3.50962 41.2303 10.604L59.7927 42.6541C63.9112 49.7652 58.78 58.6666 50.5624 58.6666Z" fill="#18202A"/>
<path fill-rule="evenodd" clip-rule="evenodd" d="M32 19.3333C33.1046 19.3333 34 20.2287 34 21.3333V34.6666C34 35.7712 33.1046 36.6666 32 36.6666C30.8954 36.6666 30 35.7712 30 34.6666V21.3333C30 20.2287 30.8954 19.3333 32 19.3333Z" fill="#18202A"/>
<path fill-rule="evenodd" clip-rule="evenodd" d="M30 45.3333C30 44.2287 30.8954 43.3333 32 43.3333H32.0267C33.1312 43.3333 34.0267 44.2287 34.0267 45.3333C34.0267 46.4379 33.1312 47.3333 32.0267 47.3333H32C30.8954 47.3333 30 46.4379 30 45.3333Z" fill="#18202A"/>
</svg>
