<svg width="64" height="64" viewBox="0 0 64 64" fill="none" xmlns="http://www.w3.org/2000/svg">
<g clip-path="url(#clip0_2414_8642)">
<path fill-rule="evenodd" clip-rule="evenodd" d="M33.3334 57.2989C32.8918 57.3218 32.4473 57.3334 32 57.3334C18.0088 57.3334 6.66669 45.9913 6.66669 32.0001C6.66669 18.0089 18.0088 6.66675 32 6.66675C45.9912 6.66675 57.3334 18.0089 57.3334 32.0001C57.3334 33.2868 57.2374 34.5511 57.0523 35.7863C58.3777 36.727 59.5238 37.9038 60.4292 39.2554C61.0196 36.935 61.3334 34.5042 61.3334 32.0001C61.3334 15.7997 48.2004 2.66675 32 2.66675C15.7997 2.66675 2.66669 15.7997 2.66669 32.0001C2.66669 48.2004 15.7997 61.3334 32 61.3334C32.9999 61.3334 33.988 61.2834 34.9621 61.1857C33.9243 60.1674 33.3384 58.7428 33.3334 57.2989ZM36.0104 46.8233C34.7096 47.161 33.3596 47.3334 32 47.3334C29.5509 47.3334 27.1326 46.7739 24.9779 45.6965C22.8227 44.6189 20.9898 43.0518 19.6795 41.1246C19.0584 40.2112 19.2954 38.9673 20.2088 38.3462C21.1222 37.7251 22.3662 37.9621 22.9873 38.8755C23.8892 40.202 25.1837 41.3273 26.7668 42.1188C28.3504 42.9106 30.1541 43.3334 32 43.3334C33.65 43.3334 35.2663 42.9956 36.7218 42.3584C36.2606 43.7099 36.0104 45.1591 36.0104 46.6668V46.8233ZM26.6667 26.6667C26.6667 29.6123 24.8758 32.0001 22.6667 32.0001C20.4575 32.0001 18.6667 29.6123 18.6667 26.6667C18.6667 23.7212 20.4575 21.3334 22.6667 21.3334C24.8758 21.3334 26.6667 23.7212 26.6667 26.6667ZM41.3334 32.0001C43.5425 32.0001 45.3334 29.6123 45.3334 26.6667C45.3334 23.7212 43.5425 21.3334 41.3334 21.3334C39.1242 21.3334 37.3334 23.7212 37.3334 26.6667C37.3334 29.6123 39.1242 32.0001 41.3334 32.0001Z" fill="#18202A"/>
<path fill-rule="evenodd" clip-rule="evenodd" d="M58.6668 46.6666L58.6667 46.7052V53.6666C58.6667 54.2961 58.9631 54.8889 59.4667 55.2666L61.6 56.8666C62.3688 57.4432 61.961 58.6666 61 58.6666H37.6667C36.7057 58.6666 36.2979 57.4432 37.0667 56.8666L39.2 55.2666C39.7036 54.8889 40 54.2961 40 53.6666V46.6666C40 46.6666 40 46.6666 40 46.6666C40.0001 46.6666 40.0001 46.6666 40.0001 46.6665C40.0001 41.5119 44.1788 37.3333 49.3334 37.3333C54.4881 37.3333 58.6668 41.5119 58.6668 46.6666ZM46.3334 61.3333C45.7811 61.3333 45.3334 61.781 45.3334 62.3333V62.9999C45.3334 63.5522 45.7811 63.9999 46.3334 63.9999H52.3334C52.8857 63.9999 53.3334 63.5522 53.3334 62.9999V62.3333C53.3334 61.781 52.8857 61.3333 52.3334 61.3333H46.3334Z" fill="#18202A"/>
</g>
<defs>
<clipPath id="clip0_2414_8642">
<rect width="64" height="64" fill="white"/>
</clipPath>
</defs>
</svg>
