<svg width="64" height="64" viewBox="0 0 64 64" fill="none" xmlns="http://www.w3.org/2000/svg">
<path d="M8.54419 11.4189C14.5929 10.1861 20.8529 10.4724 26.7639 12.2522C32.6748 14.032 38.0522 17.2497 42.4145 21.6174C46.7769 25.985 49.9882 31.3662 51.7609 37.2793C53.5336 43.1924 53.8124 49.4527 52.5723 55.5C52.2765 56.9427 53.2062 58.3521 54.6489 58.648C56.0917 58.9438 57.5011 58.0141 57.7969 56.5714C59.2142 49.6602 58.8956 42.5055 56.8696 35.7477C54.8437 28.99 51.1736 22.84 46.188 17.8484C41.2024 12.8568 35.0569 9.17939 28.3015 7.14533C21.5462 5.11128 14.3919 4.78408 7.47907 6.19302C6.03598 6.48714 5.10456 7.89544 5.39869 9.33853C5.69281 10.7816 7.1011 11.713 8.54419 11.4189Z" fill="#18202A"/>
<path d="M20.7507 27.2025C16.8203 26.3047 12.7159 26.5391 8.91316 27.8784C7.52404 28.3676 6.00132 27.6381 5.51207 26.249C5.02282 24.8599 5.75231 23.3372 7.14143 22.8479C11.8948 21.1738 17.0253 20.8808 21.9383 22.0031C26.8514 23.1253 31.3459 25.6168 34.9009 29.1887C38.456 32.7607 40.9261 37.2669 42.025 42.1852C43.124 47.1035 42.8067 52.2326 41.1101 56.978C40.6142 58.3648 39.0881 59.087 37.7013 58.5912C36.3145 58.0954 35.5922 56.5692 36.0881 55.1824C37.4454 51.3861 37.6992 47.2829 36.8201 43.3482C35.9409 39.4136 33.9648 35.8086 31.1208 32.951C28.2767 30.0935 24.6811 28.1003 20.7507 27.2025Z" fill="#18202A"/>
<path fill-rule="evenodd" clip-rule="evenodd" d="M26.6667 48.0002C26.6667 53.8912 21.8911 58.6668 16 58.6668C10.109 58.6668 5.33337 53.8912 5.33337 48.0002C5.33337 42.1091 10.109 37.3335 16 37.3335C21.8911 37.3335 26.6667 42.1091 26.6667 48.0002ZM21.3334 48.0002C21.3334 50.9457 18.9456 53.3335 16 53.3335C13.0545 53.3335 10.6667 50.9457 10.6667 48.0002C10.6667 45.0546 13.0545 42.6668 16 42.6668C18.9456 42.6668 21.3334 45.0546 21.3334 48.0002Z" fill="#18202A"/>
</svg>
