<svg width="64" height="64" viewBox="0 0 64 64" fill="none" xmlns="http://www.w3.org/2000/svg">
<path fill-rule="evenodd" clip-rule="evenodd" d="M2.66667 32C2.66667 48.2003 15.7997 61.3333 32 61.3333C48.2004 61.3333 61.3333 48.2003 61.3333 32C61.3333 15.7996 48.2004 2.66663 32 2.66663C15.7997 2.66663 2.66667 15.7996 2.66667 32ZM44.5523 31.2189C45.5937 30.1775 45.5937 28.4891 44.5523 27.4477C43.5109 26.4063 41.8225 26.4063 40.7811 27.4477L32 36.2287L23.219 27.4477C22.1776 26.4063 20.4891 26.4063 19.4477 27.4477C18.4063 28.4891 18.4063 30.1775 19.4477 31.2189L30.1144 41.8856C31.1558 42.927 32.8442 42.927 33.8856 41.8856L44.5523 31.2189Z" fill="#18202A"/>
</svg>
