<svg width="64" height="64" viewBox="0 0 64 64" fill="none" xmlns="http://www.w3.org/2000/svg">
<path d="M48.3268 12.2987L53.9454 24.656C55.0468 24.8773 56.1188 25.12 57.1561 25.384C57.414 25.4454 57.657 25.5573 57.8712 25.7135C58.0854 25.8696 58.2664 26.0667 58.4038 26.2934C58.5411 26.5201 58.632 26.7719 58.6712 27.034C58.7104 27.2961 58.6971 27.5635 58.632 27.8204C58.567 28.0773 58.4515 28.3188 58.2924 28.5307C58.1332 28.7427 57.9335 28.9209 57.7048 29.0549C57.4762 29.189 57.2232 29.2763 56.9605 29.3117C56.6979 29.3472 56.4308 29.33 56.1748 29.2613C54.8524 28.9293 53.5202 28.6376 52.1801 28.3867C40.0361 26.0933 23.9668 26.0933 11.8254 28.3867C10.4834 28.6368 9.14941 28.9285 7.82544 29.2613C7.57085 29.3259 7.30603 29.3398 7.0461 29.302C6.78616 29.2643 6.5362 29.1757 6.31049 29.0414C5.85466 28.7701 5.52526 28.3288 5.39478 27.8147C5.26429 27.3005 5.3434 26.7556 5.6147 26.2997C5.886 25.8439 6.32728 25.5145 6.84144 25.384C7.88144 25.12 8.95611 24.8773 10.0601 24.6533L15.6761 12.2987C16.2587 11.0171 17.1978 9.93023 18.3814 9.16797C19.565 8.40572 20.943 8.00025 22.3508 8H41.6494C43.0577 7.99974 44.4362 8.40496 45.6203 9.16725C46.8044 9.92954 47.744 11.0166 48.3268 12.2987ZM9.33211 44C9.33211 41.8783 10.175 39.8434 11.6753 38.3431C13.1755 36.8429 15.2104 36 17.3321 36C19.4538 36 21.4887 36.8429 22.989 38.3431C24.4893 39.8434 25.3321 41.8783 25.3321 44C25.3321 46.1217 24.4893 48.1566 22.989 49.6569C21.4887 51.1571 19.4538 52 17.3321 52C15.2104 52 13.1755 51.1571 11.6753 49.6569C10.175 48.1566 9.33211 46.1217 9.33211 44ZM17.3321 32C15.0733 32.0008 12.8606 32.639 10.9484 33.8414C9.0362 35.0438 7.5022 36.7615 6.52281 38.797C5.54342 40.8324 5.15841 43.1029 5.41205 45.3475C5.66569 47.592 6.54767 49.7193 7.95659 51.4849C9.3655 53.2505 11.2441 54.5825 13.3764 55.3279C15.5087 56.0732 17.8081 56.2016 20.0101 55.6983C22.2121 55.195 24.2273 54.0804 25.8241 52.4826C27.4208 50.8849 28.5341 48.869 29.0361 46.6667H34.9641C35.6282 49.5354 37.3233 52.06 39.7273 53.7605C42.1313 55.4609 45.0763 56.2186 48.0024 55.8893C50.9286 55.5601 53.6316 54.167 55.5976 51.9749C57.5636 49.7828 58.6554 46.9446 58.6654 44C58.6708 40.9294 57.4988 37.9735 55.3908 35.7408C53.2827 33.5081 50.399 32.1685 47.3331 31.9976C44.2672 31.8268 41.2525 32.8378 38.9094 34.8224C36.5664 36.8071 35.0733 39.6144 34.7374 42.6667H29.2601C28.9321 39.7328 27.5341 37.0228 25.3336 35.055C23.133 33.0871 20.2842 31.9994 17.3321 32ZM38.6654 44C38.6654 41.8783 39.5083 39.8434 41.0086 38.3431C42.5089 36.8429 44.5437 36 46.6654 36C48.7872 36 50.822 36.8429 52.3223 38.3431C53.8226 39.8434 54.6654 41.8783 54.6654 44C54.6654 46.1217 53.8226 48.1566 52.3223 49.6569C50.822 51.1571 48.7872 52 46.6654 52C44.5437 52 42.5089 51.1571 41.0086 49.6569C39.5083 48.1566 38.6654 46.1217 38.6654 44Z" fill="#18202A"/>
</svg>
