<svg width="64" height="64" viewBox="0 0 64 64" fill="none" xmlns="http://www.w3.org/2000/svg">
<path fill-rule="evenodd" clip-rule="evenodd" d="M32 55.9998C45.2548 55.9998 56 45.2547 56 31.9998C56 18.745 45.2548 7.99984 32 7.99984C18.7452 7.99984 8.00001 18.745 8.00001 31.9998C8.00001 45.2547 18.7452 55.9998 32 55.9998ZM32 61.3332C48.2004 61.3332 61.3333 48.2002 61.3333 31.9998C61.3333 15.7995 48.2004 2.6665 32 2.6665C15.7997 2.6665 2.66667 15.7995 2.66667 31.9998C2.66667 48.2002 15.7997 61.3332 32 61.3332Z" fill="#18202A"/>
<path fill-rule="evenodd" clip-rule="evenodd" d="M30.8074 2.94803C31.5582 2.57266 32.4418 2.57266 33.1926 2.94803C43.6932 8.19833 48.6667 19.6564 48.6667 30.9998C48.6667 42.3623 43.701 54.3146 33.442 60.9096C32.5636 61.4743 31.4364 61.4743 30.558 60.9096C20.299 54.3146 15.3333 42.3623 15.3333 30.9998C15.3333 19.6564 20.3068 8.19833 30.8074 2.94803ZM29.3333 10.2464C23.6606 14.9796 20.6667 22.7215 20.6667 30.9998C20.6667 39.1936 23.6162 47.4392 29.3333 53.1176V10.2464ZM34.6667 53.1176V10.2464C40.3394 14.9796 43.3333 22.7215 43.3333 30.9998C43.3333 39.1936 40.3838 47.4392 34.6667 53.1176Z" fill="#18202A"/>
<path fill-rule="evenodd" clip-rule="evenodd" d="M58.6667 34.6665H5.33334V29.3332H58.6667V34.6665Z" fill="#18202A"/>
</svg>
