<svg width="64" height="64" viewBox="0 0 64 64" fill="none" xmlns="http://www.w3.org/2000/svg">
<path fill-rule="evenodd" clip-rule="evenodd" d="M44.565 8.58936C45.3508 7.80355 46.6248 7.80355 47.4106 8.58936C48.1965 9.37516 48.1965 10.6492 47.4106 11.435L44.9648 13.8809C46.8427 15.8036 48 18.4333 48 21.3333V42.6667C48 48.5577 43.2244 53.3333 37.3333 53.3333H10.6667C9.14961 53.3333 7.70653 53.0166 6.39992 52.4457L3.43501 55.4106C2.64921 56.1965 1.37516 56.1965 0.589356 55.4106C-0.196451 54.6248 -0.19645 53.3508 0.589356 52.565L44.565 8.58936ZM9.59759 49.2481C9.94567 49.3042 10.3028 49.3333 10.6667 49.3333H37.3333C41.0152 49.3333 44 46.3486 44 42.6667V21.3333C44 19.5379 43.2903 17.9083 42.136 16.7096L9.59759 49.2481Z" fill="#18202A"/>
<path d="M0 21.3333C0 15.4423 4.77563 10.6667 10.6667 10.6667H36.8346L32.8346 14.6667H10.6667C6.98477 14.6667 4 17.6514 4 21.3333V42.6667C4 42.9334 4.01567 43.1966 4.04614 43.4552L0.792512 46.7088C0.281645 45.4621 0 44.0973 0 42.6667V21.3333Z" fill="#18202A"/>
<path fill-rule="evenodd" clip-rule="evenodd" d="M50.6667 24.2993C50.6667 23.4416 51.0792 22.6363 51.7752 22.1352L59.7752 16.3752C61.5391 15.1052 64 16.3657 64 18.5393V45.4607C64 47.6343 61.5391 48.8948 59.7752 47.6248L51.7752 41.8648C51.0792 41.3637 50.6667 40.5584 50.6667 39.7007V24.2993ZM60 42.8577L54.6667 39.0177V24.9823L60 21.1423V42.8577Z" fill="#18202A"/>
</svg>
