<svg width="64" height="64" viewBox="0 0 64 64" fill="none" xmlns="http://www.w3.org/2000/svg">
<path fill-rule="evenodd" clip-rule="evenodd" d="M13.3333 10.6665C8.91504 10.6665 5.33331 14.2482 5.33331 18.6665V42.6665C5.33331 47.0848 8.91503 50.6665 13.3333 50.6665H30V54.6665H24C22.8954 54.6665 22 55.5619 22 56.6665C22 57.7711 22.8954 58.6665 24 58.6665H40C41.1045 58.6665 42 57.7711 42 56.6665C42 55.5619 41.1045 54.6665 40 54.6665H34V50.6665H50.6666C55.0849 50.6665 58.6666 47.0848 58.6666 42.6665V18.6665C58.6666 14.2482 55.0849 10.6665 50.6666 10.6665H13.3333ZM54.6666 18.6665C54.6666 16.4574 52.8758 14.6665 50.6666 14.6665H13.3333C11.1242 14.6665 9.33331 16.4574 9.33331 18.6665V37.3332H54.6666V18.6665ZM13.3333 46.6665C11.1242 46.6665 9.33331 44.8756 9.33331 42.6665V41.3332H54.6666V42.6665C54.6666 44.8756 52.8758 46.6665 50.6666 46.6665H13.3333Z" fill="#18202A"/>
</svg>
