<svg width="64" height="64" viewBox="0 0 64 64" fill="none" xmlns="http://www.w3.org/2000/svg">
<g clip-path="url(#clip0_3294_8873)">
<path d="M10.6667 13.3332C10.6667 14.8059 9.4728 15.9998 8.00004 15.9998C6.52728 15.9998 5.33337 14.8059 5.33337 13.3332C5.33337 11.8604 6.52728 10.6665 8.00004 10.6665C9.4728 10.6665 10.6667 11.8604 10.6667 13.3332Z" fill="#18202A"/>
<path d="M18.6667 13.3332C18.6667 11.8604 19.8606 10.6665 21.3334 10.6665H56C57.4728 10.6665 58.6667 11.8604 58.6667 13.3332C58.6667 14.8059 57.4728 15.9998 56 15.9998H21.3334C19.8606 15.9998 18.6667 14.8059 18.6667 13.3332Z" fill="#18202A"/>
<path d="M21.3334 29.3332C19.8606 29.3332 18.6667 30.5271 18.6667 31.9998C18.6667 33.4726 19.8606 34.6665 21.3334 34.6665H56C57.4728 34.6665 58.6667 33.4726 58.6667 31.9998C58.6667 30.5271 57.4728 29.3332 56 29.3332H21.3334Z" fill="#18202A"/>
<path d="M21.3334 47.9998C19.8606 47.9998 18.6667 49.1937 18.6667 50.6665C18.6667 52.1393 19.8606 53.3332 21.3334 53.3332H56C57.4728 53.3332 58.6667 52.1393 58.6667 50.6665C58.6667 49.1937 57.4728 47.9998 56 47.9998H21.3334Z" fill="#18202A"/>
<path d="M10.6667 31.9998C10.6667 33.4726 9.4728 34.6665 8.00004 34.6665C6.52728 34.6665 5.33337 33.4726 5.33337 31.9998C5.33337 30.5271 6.52728 29.3332 8.00004 29.3332C9.4728 29.3332 10.6667 30.5271 10.6667 31.9998Z" fill="#18202A"/>
<path d="M10.6667 50.6665C10.6667 52.1393 9.4728 53.3332 8.00004 53.3332C6.52728 53.3332 5.33337 52.1393 5.33337 50.6665C5.33337 49.1937 6.52728 47.9998 8.00004 47.9998C9.4728 47.9998 10.6667 49.1937 10.6667 50.6665Z" fill="#18202A"/>
</g>
<defs>
<clipPath id="clip0_3294_8873">
<rect width="64" height="64" fill="white"/>
</clipPath>
</defs>
</svg>
