<svg width="64" height="64" viewBox="0 0 64 64" fill="none" xmlns="http://www.w3.org/2000/svg">
<path fill-rule="evenodd" clip-rule="evenodd" d="M40 13.333C40 16.8163 37.7739 19.7796 34.6667 20.8778V29.333H54C55.1046 29.333 56 30.2284 56 31.333V34.6663V43.1216C59.1072 44.2198 61.3333 47.1831 61.3333 50.6663C61.3333 55.0846 57.7516 58.6663 53.3333 58.6663C48.9151 58.6663 45.3333 55.0846 45.3333 50.6663C45.3333 47.1831 47.5595 44.2198 50.6667 43.1216V34.6663L34.6667 34.6663V43.1216C37.7739 44.2198 40 47.1831 40 50.6663C40 55.0846 36.4183 58.6663 32 58.6663C27.5817 58.6663 24 55.0846 24 50.6663C24 47.1831 26.2262 44.2198 29.3333 43.1216V34.6663L13.3333 34.6663V43.1216C16.4405 44.2198 18.6667 47.1831 18.6667 50.6663C18.6667 55.0846 15.0849 58.6663 10.6667 58.6663C6.24839 58.6663 2.66667 55.0846 2.66667 50.6663C2.66667 47.1831 4.89283 44.2198 8.00001 43.1216V34.6663V31.333C8.00001 30.2284 8.89544 29.333 10 29.333H29.3333V20.8778C26.2262 19.7796 24 16.8163 24 13.333C24 8.91473 27.5817 5.33301 32 5.33301C36.4183 5.33301 40 8.91473 40 13.333Z" fill="#18202A"/>
</svg>
