<svg width="64" height="64" viewBox="0 0 64 64" fill="none" xmlns="http://www.w3.org/2000/svg">
<g clip-path="url(#clip0_3750_8807)">
<path d="M24.5418 10.6645L24.6673 10.6611L24.7893 10.6644C24.8491 10.6678 24.9091 10.674 24.969 10.6831L25.0118 10.6933C25.2396 10.7298 25.4659 10.8112 25.6817 10.939L25.82 11.0284L39.2259 20.4549C39.2949 20.5034 39.3869 20.5034 39.4559 20.4549L52.8529 11.0374C54.1002 10.1606 55.7901 10.9486 55.9847 12.3949L56.0031 12.6735V41.0269C56.0031 41.5851 55.7702 42.1134 55.3681 42.4887L55.1533 42.6631L40.4866 52.9734C39.7749 53.4738 38.919 53.432 38.2791 53.0351L24.7813 43.5394C24.7122 43.4908 24.6202 43.4908 24.5512 43.5394L11.1471 52.9645C9.89984 53.8413 8.20986 53.0532 8.01536 51.607L7.99689 51.3284V22.9749C7.99689 22.4167 8.22983 21.8885 8.63187 21.5131L8.8467 21.3388L23.5134 11.0284C23.684 10.9084 23.863 10.8196 24.0453 10.7594L24.3719 10.6848L24.5418 10.6645ZM52.0031 16.9093C52.0031 16.7473 51.8206 16.6525 51.6881 16.7457L41.4214 23.9629C41.3682 24.0003 41.3365 24.0614 41.3365 24.1265V47.1015C41.3365 47.2635 41.519 47.3583 41.6515 47.2651L51.9181 40.0479C51.9714 40.0105 52.0031 39.9494 52.0031 39.8843V16.9093ZM22.6636 16.9004C22.6636 16.7384 22.4811 16.6436 22.3485 16.7367L12.0819 23.954C12.0286 23.9914 11.9969 24.0525 11.9969 24.1176V47.0926C11.9969 47.2546 12.1794 47.3494 12.3119 47.2562L22.5786 40.039C22.6318 40.0015 22.6636 39.9405 22.6636 39.8754V16.9004ZM26.9848 16.7367C26.8523 16.6436 26.6698 16.7384 26.6698 16.9004V39.8754C26.6698 39.9405 26.7015 40.0015 26.7548 40.039L37.0214 47.2562C37.154 47.3494 37.3365 47.2546 37.3365 47.0926V24.1176C37.3365 24.0525 37.3048 23.9914 37.2515 23.954L26.9848 16.7367Z" fill="#18202A"/>
</g>
<defs>
<clipPath id="clip0_3750_8807">
<rect width="64" height="64" fill="white"/>
</clipPath>
</defs>
</svg>
