<svg width="64" height="64" viewBox="0 0 64 64" fill="none" xmlns="http://www.w3.org/2000/svg">
<path d="M16 13.3333C16 16.2789 18.3878 18.6667 21.3333 18.6667C24.2789 18.6667 26.6667 16.2789 26.6667 13.3333C26.6667 10.3878 24.2789 8 21.3333 8C18.3878 8 16 10.3878 16 13.3333Z" fill="#18202A"/>
<path d="M37.3333 13.3333C37.3333 16.2789 39.7211 18.6667 42.6667 18.6667C45.6122 18.6667 48 16.2789 48 13.3333C48 10.3878 45.6122 8 42.6667 8C39.7212 8 37.3333 10.3878 37.3333 13.3333Z" fill="#18202A"/>
<path d="M21.3333 37.3333C18.3878 37.3333 16 34.9455 16 32C16 29.0545 18.3878 26.6667 21.3333 26.6667C24.2789 26.6667 26.6667 29.0545 26.6667 32C26.6667 34.9455 24.2789 37.3333 21.3333 37.3333Z" fill="#18202A"/>
<path d="M42.6667 37.3333C39.7211 37.3333 37.3333 34.9455 37.3333 32C37.3333 29.0545 39.7211 26.6667 42.6667 26.6667C45.6122 26.6667 48 29.0545 48 32C48 34.9455 45.6122 37.3333 42.6667 37.3333Z" fill="#18202A"/>
<path d="M42.6667 56C39.7211 56 37.3333 53.6122 37.3333 50.6667C37.3333 47.7211 39.7211 45.3333 42.6667 45.3333C45.6122 45.3333 48 47.7211 48 50.6667C48 53.6122 45.6122 56 42.6667 56Z" fill="#18202A"/>
<path d="M21.3333 56C18.3878 56 16 53.6122 16 50.6667C16 47.7211 18.3878 45.3333 21.3333 45.3333C24.2789 45.3333 26.6667 47.7211 26.6667 50.6667C26.6667 53.6122 24.2789 56 21.3333 56Z" fill="#18202A"/>
</svg>
