<svg width="64" height="64" viewBox="0 0 64 64" fill="none" xmlns="http://www.w3.org/2000/svg">
<path fill-rule="evenodd" clip-rule="evenodd" d="M32 33.3337C35.6819 33.3337 38.6667 30.3489 38.6667 26.667C38.6667 22.9851 35.6819 20.0003 32 20.0003C28.3181 20.0003 25.3334 22.9851 25.3334 26.667C25.3334 30.3489 28.3181 33.3337 32 33.3337ZM32 37.3337C37.8911 37.3337 42.6667 32.558 42.6667 26.667C42.6667 20.776 37.8911 16.0003 32 16.0003C26.109 16.0003 21.3334 20.776 21.3334 26.667C21.3334 32.558 26.109 37.3337 32 37.3337Z" fill="#18202A"/>
<path d="M32 2.66699C37.0104 2.66699 41.9083 4.15273 46.0744 6.93633C50.2403 9.71995 53.4875 13.6764 55.4048 18.3054C57.3224 22.9344 57.824 28.0281 56.8467 32.9422C55.8694 37.8563 53.4566 42.3702 49.9139 45.9131L37.9691 58.8289C37.1856 59.6129 36.2552 60.2347 35.2312 60.6593C34.207 61.0838 33.1088 61.3025 32 61.3025C30.8912 61.3025 29.7931 61.0838 28.7688 60.6593C27.7443 60.2347 26.8136 59.6123 26.0299 58.8278L14.0862 45.9131C10.5434 42.3702 8.13076 37.8563 7.15338 32.9422C6.17599 28.0281 6.67775 22.9344 8.59521 18.3054C10.5127 13.6764 13.7597 9.71995 17.9257 6.93633C22.0917 4.15273 26.9896 2.66699 32 2.66699ZM32 6.66699C27.7807 6.66699 23.6562 7.91814 20.148 10.2622C16.6397 12.6063 13.9054 15.9381 12.2907 19.8362C10.676 23.7342 10.2535 28.0237 11.0765 32.1619C11.8447 36.0242 13.6657 39.5929 16.4187 42.5687L17.0229 43.1973L28.8598 56.0009C29.272 56.4135 29.7614 56.7408 30.3004 56.9641C30.8393 57.1875 31.417 57.3025 32 57.3025C32.583 57.3025 33.1607 57.1875 33.6993 56.9642C34.1306 56.7854 34.5301 56.5403 34.8286 56.2955L35.0324 56.113L47.0854 43.0848C50.0688 40.1011 52.1006 36.2999 52.9235 32.1619C53.7466 28.0235 53.3241 23.7341 51.7093 19.8361C50.0948 15.9382 47.3604 12.6064 43.8522 10.2622C40.3438 7.91813 36.2193 6.66699 32 6.66699Z" fill="#18202A"/>
</svg>
