<svg width="64" height="64" viewBox="0 0 64 64" fill="none" xmlns="http://www.w3.org/2000/svg">
<path fill-rule="evenodd" clip-rule="evenodd" d="M24.6667 4C24.6667 2.89543 23.7712 2 22.6667 2C21.5621 2 20.6667 2.89543 20.6667 4V9.33333C20.6667 10.4379 21.5621 11.3333 22.6667 11.3333C23.7712 11.3333 24.6667 10.4379 24.6667 9.33333V4ZM10.7475 7.91912C9.9665 7.13807 8.70017 7.13807 7.91912 7.91912C7.13807 8.70017 7.13807 9.9665 7.91912 10.7475L11.9191 14.7475C12.7002 15.5286 13.9665 15.5286 14.7475 14.7475C15.5286 13.9665 15.5286 12.7002 14.7475 11.9191L10.7475 7.91912ZM4 20.6667C2.89543 20.6667 2 21.5621 2 22.6667C2 23.7712 2.89543 24.6667 4 24.6667H9.33333C10.4379 24.6667 11.3333 23.7712 11.3333 22.6667C11.3333 21.5621 10.4379 20.6667 9.33333 20.6667H4ZM39.3333 60C39.3333 61.1046 40.2288 62 41.3333 62C42.4379 62 43.3333 61.1046 43.3333 60V54.6667C43.3333 53.5621 42.4379 52.6667 41.3333 52.6667C40.2288 52.6667 39.3333 53.5621 39.3333 54.6667V60ZM53.2525 56.0809C54.0335 56.8619 55.2998 56.8619 56.0809 56.0809C56.8619 55.2998 56.8619 54.0335 56.0809 53.2525L52.0809 49.2525C51.2998 48.4714 50.0335 48.4714 49.2525 49.2525C48.4714 50.0335 48.4714 51.2998 49.2525 52.0809L53.2525 56.0809ZM60 43.3333C61.1046 43.3333 62 42.4379 62 41.3333C62 40.2288 61.1046 39.3333 60 39.3333H54.6667C53.5621 39.3333 52.6667 40.2288 52.6667 41.3333C52.6667 42.4379 53.5621 43.3333 54.6667 43.3333H60ZM9.84377 54.1561C3.85573 48.1681 3.85573 38.4595 9.84377 32.4715L15.5006 26.8146C16.2817 26.0336 17.548 26.0336 18.3291 26.8146C19.1101 27.5957 19.1101 28.862 18.3291 29.6431L12.6722 35.2999C8.24625 39.7259 8.24625 46.9017 12.6722 51.3277C17.0981 55.7536 24.274 55.7536 28.6999 51.3277L34.3568 45.6708C35.1378 44.8898 36.4042 44.8898 37.1852 45.6708C37.9663 46.4519 37.9663 47.7182 37.1852 48.4992L31.5284 54.1561C25.5403 60.1441 15.8318 60.1441 9.84377 54.1561ZM32.4713 9.84393C38.4594 3.85589 48.1679 3.85589 54.1559 9.84393C60.144 15.832 60.144 25.5405 54.1559 31.5285L48.4991 37.1854C47.718 37.9664 46.4517 37.9664 45.6707 37.1854C44.8896 36.4043 44.8896 35.138 45.6707 34.357L51.3275 28.7001C55.7535 24.2742 55.7535 17.0983 51.3275 12.6724C46.9016 8.24642 39.7257 8.24642 35.2998 12.6724L29.6429 18.3292C28.8619 19.1103 27.5955 19.1103 26.8145 18.3292C26.0334 17.5482 26.0334 16.2818 26.8145 15.5008L32.4713 9.84393Z" fill="#18202A"/>
</svg>
