<svg width="64" height="64" viewBox="0 0 64 64" fill="none" xmlns="http://www.w3.org/2000/svg">
<g clip-path="url(#clip0_3379_9199)">
<path d="M21.3333 2.6665C18.3878 2.6665 16 5.05432 16 7.99984V13.3332C16 15.8839 17.1937 18.1558 19.053 19.6207C21.3667 21.4436 24 23.721 24 26.6665V31.9998C24 34.9454 21.6121 37.3332 18.6666 37.3332H14.0952C7.78337 37.3332 2.66663 42.4499 2.66663 48.7617C2.66663 51.2865 4.71332 53.3332 7.23805 53.3332H56.7619C59.2866 53.3332 61.3333 51.2865 61.3333 48.7617C61.3333 42.4499 56.2166 37.3332 49.9047 37.3332H45.3333C42.3878 37.3332 40 34.9454 40 31.9998V26.6665C40 23.721 42.6332 21.4436 44.9469 19.6207C46.8062 18.1558 48 15.8839 48 13.3332V7.99984C48 5.05432 45.6121 2.6665 42.6666 2.6665H21.3333Z" fill="#18202A"/>
<path d="M5.33329 58.6665C5.33329 57.1937 6.5272 55.9998 7.99996 55.9998H56C57.4727 55.9998 58.6666 57.1937 58.6666 58.6665C58.6666 60.1393 57.4727 61.3332 56 61.3332H7.99996C6.5272 61.3332 5.33329 60.1393 5.33329 58.6665Z" fill="#18202A"/>
</g>
<defs>
<clipPath id="clip0_3379_9199">
<rect width="64" height="64" fill="white"/>
</clipPath>
</defs>
</svg>
