<svg width="64" height="64" viewBox="0 0 64 64" fill="none" xmlns="http://www.w3.org/2000/svg">
<path fill-rule="evenodd" clip-rule="evenodd" d="M29.3333 8.00033C17.5513 8.00033 8.00001 17.5516 8.00001 29.3337C8.00001 40.3127 16.296 49.3578 26.9597 50.5367C28.4235 50.6985 29.479 52.0163 29.3172 53.4802C29.1554 54.944 27.8375 55.9995 26.3737 55.8377C13.0377 54.3635 2.66667 43.0615 2.66667 29.3337C2.66667 14.6061 14.6057 2.66699 29.3333 2.66699C43.0612 2.66699 54.3632 13.038 55.8374 26.374C55.9992 27.8378 54.9437 29.1557 53.4799 29.3175C52.016 29.4793 50.6982 28.4238 50.5363 26.96C49.3575 16.2963 40.3124 8.00033 29.3333 8.00033ZM29.3333 18.667C23.4423 18.667 18.6667 23.4426 18.6667 29.3337C18.6667 33.7035 21.2948 37.4655 25.0677 39.1139C26.4172 39.7036 27.0333 41.2756 26.4436 42.6252C25.854 43.9748 24.2819 44.5908 22.9323 44.0012C17.287 41.5346 13.3333 35.8988 13.3333 29.3337C13.3333 20.4971 20.4968 13.3337 29.3333 13.3337C35.8985 13.3337 41.5343 17.2873 44.0008 22.9327C44.5905 24.2822 43.9744 25.8543 42.6249 26.4439C41.2753 27.0336 39.7033 26.4175 39.1136 25.068C37.4652 21.2951 33.7032 18.667 29.3333 18.667ZM29.4797 31.9927C28.9876 30.4461 30.4454 28.9883 31.9919 29.4804L56.2253 37.191C57.8233 37.6995 58.1236 39.8307 56.7283 40.761L50.9131 44.6377L60.862 54.5866C61.643 55.3676 61.643 56.6339 60.862 57.415L57.4142 60.8627C56.6332 61.6437 55.3669 61.6437 54.5858 60.8627L44.637 50.9139L40.7602 56.729C39.83 58.1243 37.6988 57.8241 37.1903 56.226L29.4797 31.9927Z" fill="#18202A"/>
</svg>
