<svg width="64" height="64" viewBox="0 0 64 64" fill="none" xmlns="http://www.w3.org/2000/svg">
<path fill-rule="evenodd" clip-rule="evenodd" d="M47.1521 21.6983C47.8356 21.4618 48.5695 21.3333 49.3334 21.3333C53.0152 21.3333 56 24.3181 56 28V44.416C56.0012 46.6371 55.6018 48.8368 54.8245 50.8892C54.0473 52.9417 52.9074 54.8067 51.4702 56.3778C50.0329 57.9488 48.3263 59.1951 46.448 60.0454C44.5697 60.8957 42.5564 61.3333 40.5232 61.3333H28.9995C26.8368 61.3315 24.7056 60.7662 22.7829 59.6844C20.8603 58.6026 19.2015 57.0355 17.9442 55.1131L14.6198 50.0452C12.0482 46.1142 10.666 41.4031 10.6667 36.5714C10.6667 33.9445 11.6219 31.4252 13.3223 29.5677C14.7692 27.987 16.6549 26.9957 18.6667 26.7354V6.66667C18.6667 2.98477 21.6515 0 25.3334 0C29.0152 0 32 2.98477 32 6.66667V16.1334C32.4308 16.0459 32.8767 16 33.3334 16C33.79 16 34.2359 16.0459 34.6667 16.1334C36.3603 16.4771 37.8208 17.463 38.7831 18.8258C38.9138 18.8815 39.0374 18.9507 39.1521 19.0317C39.8356 18.7951 40.5695 18.6667 41.3334 18.6667C43.5851 18.6667 45.5761 19.783 46.7831 21.4924C46.9138 21.5481 47.0374 21.6173 47.1521 21.6983ZM28 30C28 31.1046 28.8954 32 30 32C31.1046 32 32 31.1046 32 30V20.2149L32.7957 20.0534C32.9661 20.0188 33.1455 20 33.3334 20C34.2769 20 35.1095 20.4871 35.5889 21.2426L36 21.8903V30C36 31.1046 36.8955 32 38 32C39.1046 32 40 31.1046 40 30V22.9853L40.3868 22.8384C40.6757 22.7286 40.9926 22.6667 41.3334 22.6667C42.2769 22.6667 43.1095 23.1538 43.5889 23.9093L44 24.557V30C44 31.1046 44.8955 32 46 32C47.1046 32 48 31.1046 48 30V25.652L48.3868 25.5051C48.6757 25.3953 48.9926 25.3333 49.3334 25.3333C50.8061 25.3333 52 26.5272 52 28V44.416C52.0009 46.1584 51.6872 47.879 51.0838 49.4726C50.4804 51.066 49.6035 52.4922 48.5189 53.6778C47.4349 54.8627 46.1672 55.7818 44.7984 56.4014C43.4309 57.0204 41.9793 57.3333 40.5232 57.3333H29.0029C27.5404 57.3321 26.0818 56.9508 24.7444 56.1984C23.4045 55.4445 22.2127 54.3318 21.2918 52.9238L17.9671 47.8554L17.9655 47.8529C15.8336 44.5929 14.6661 40.6481 14.6667 36.572C14.6667 34.8974 15.2789 33.3543 16.2728 32.2685C17.1106 31.3532 18.1455 30.8362 19.18 30.7023L22.6667 30.2512V6.66667C22.6667 5.19391 23.8606 4 25.3334 4C26.8061 4 28 5.19391 28 6.66667V30Z" fill="#18202A"/>
</svg>
