<svg width="64" height="64" viewBox="0 0 64 64" fill="none" xmlns="http://www.w3.org/2000/svg">
<path d="M44.046 22.5519C44.8458 23.3137 44.8767 24.5796 44.1149 25.3795L28.8768 41.3795C28.4868 41.789 27.9416 42.0143 27.3762 41.9995C26.8108 41.9847 26.2781 41.7312 25.91 41.3017L19.8148 34.1906C19.096 33.352 19.1931 32.0894 20.0317 31.3705C20.8704 30.6517 22.133 30.7488 22.8518 31.5875L27.5067 37.0181L41.2184 22.6209C41.9801 21.821 43.2461 21.7901 44.046 22.5519Z" fill="#18202A"/>
<path fill-rule="evenodd" clip-rule="evenodd" d="M10.6666 5.3335C7.72113 5.3335 5.33331 7.72131 5.33331 10.6668V53.3335C5.33331 56.279 7.72113 58.6668 10.6666 58.6668H53.3333C56.2788 58.6668 58.6666 56.279 58.6666 53.3335V10.6668C58.6666 7.72131 56.2788 5.3335 53.3333 5.3335H10.6666ZM54.6666 10.6668C54.6666 9.93045 54.0697 9.3335 53.3333 9.3335H10.6666C9.93027 9.3335 9.33331 9.93045 9.33331 10.6668V53.3335C9.33331 54.0699 9.93027 54.6668 10.6666 54.6668H53.3333C54.0697 54.6668 54.6666 54.0699 54.6666 53.3335V10.6668Z" fill="#18202A"/>
</svg>
