<svg width="64" height="64" viewBox="0 0 64 64" fill="none" xmlns="http://www.w3.org/2000/svg">
<path fill-rule="evenodd" clip-rule="evenodd" d="M57.3334 22.6665H6.66669V50.6665C6.66669 54.3484 9.65146 57.3332 13.3334 57.3332H50.6667C54.3486 57.3332 57.3334 54.3484 57.3334 50.6665V22.6665ZM2.66669 18.6665V50.6665C2.66669 56.5575 7.44232 61.3332 13.3334 61.3332H50.6667C56.5577 61.3332 61.3334 56.5575 61.3334 50.6665V18.6665H2.66669Z" fill="#18202A"/>
<path fill-rule="evenodd" clip-rule="evenodd" d="M28 35.8897V44.0833L34.7645 39.9865L28 35.8897ZM24 33.185C24 31.2511 26.0901 30.0566 27.7329 31.0516L38.9634 37.8531C40.5589 38.8195 40.5589 41.1536 38.9634 42.1199L27.7329 48.9215C26.0901 49.9164 24 48.7219 24 46.7881V33.185Z" fill="#18202A"/>
<path d="M18.6667 5.33317H25.3334L12 21.3332H5.33335L18.6667 5.33317Z" fill="#18202A"/>
<path d="M34.6667 5.33317H41.3334L28 21.3332H21.3334L34.6667 5.33317Z" fill="#18202A"/>
<path d="M50.6667 5.33317H57.3334L44 21.3332H37.3334L50.6667 5.33317Z" fill="#18202A"/>
<path fill-rule="evenodd" clip-rule="evenodd" d="M50.6667 6.6665H13.3334C9.65146 6.6665 6.66669 9.65127 6.66669 13.3332V18.6665H57.3334V13.3332C57.3334 9.65127 54.3486 6.6665 50.6667 6.6665ZM13.3334 2.6665C7.44232 2.6665 2.66669 7.44213 2.66669 13.3332V22.6665H61.3334V13.3332C61.3334 7.44213 56.5577 2.6665 50.6667 2.6665H13.3334Z" fill="#18202A"/>
</svg>
