<svg width="64" height="64" viewBox="0 0 64 64" fill="none" xmlns="http://www.w3.org/2000/svg">
<path d="M40 31.9998C40 36.4181 36.4183 39.9998 32 39.9998C27.5817 39.9998 24 36.4181 24 31.9998C24 27.5816 27.5817 23.9998 32 23.9998C36.4183 23.9998 40 27.5816 40 31.9998Z" fill="#18202A"/>
<path fill-rule="evenodd" clip-rule="evenodd" d="M32 61.3332C48.2004 61.3332 61.3333 48.2002 61.3333 31.9998C61.3333 15.7995 48.2004 2.6665 32 2.6665C15.7997 2.6665 2.66669 15.7995 2.66669 31.9998C2.66669 48.2002 15.7997 61.3332 32 61.3332ZM32 57.3332C45.9912 57.3332 57.3333 45.991 57.3333 31.9998C57.3333 18.0086 45.9912 6.6665 32 6.6665C18.0088 6.6665 6.66669 18.0086 6.66669 31.9998C6.66669 45.991 18.0088 57.3332 32 57.3332Z" fill="#18202A"/>
</svg>
