<svg width="64" height="64" viewBox="0 0 64 64" fill="none" xmlns="http://www.w3.org/2000/svg">
<path fill-rule="evenodd" clip-rule="evenodd" d="M46.6667 18.5C46.6667 21.7761 45.9752 24.3222 44.9615 25.9106C44.0531 27.334 42.9236 28 41.3334 28C39.7431 28 38.6136 27.334 37.7052 25.9106C36.6915 24.3222 36 21.7761 36 18.5C36 16.1416 36.6145 14.5151 37.4118 13.554C38.1232 12.6966 39.2738 12 41.3334 12C43.3929 12 44.5436 12.6966 45.2549 13.554C46.0522 14.5151 46.6667 16.1416 46.6667 18.5ZM50.6667 18.5C50.6667 26 47.5556 32 41.3334 32C35.1111 32 32 26 32 18.5C32 12.5 35.1111 8 41.3334 8C47.5556 8 50.6667 12.5 50.6667 18.5ZM16.6412 37.3333C18.1459 37.3333 19.6142 37.4891 21.0308 37.7854C19.9765 38.8677 19.1585 40.1084 18.5765 41.4398C17.9415 41.3695 17.2958 41.3333 16.6412 41.3333C13.5437 41.3333 10.6473 42.1423 8.13896 43.5575C6.9758 44.2137 6.23902 45.8901 6.92045 47.7806C7.05399 48.151 7.19304 48.5189 7.33749 48.884C7.9208 50.3585 9.27942 51.4187 10.9099 51.6306C12.784 51.8741 14.6969 52 16.6412 52C17.2939 52 17.9431 51.9858 18.5885 51.9577C18.6308 52.0565 18.6743 52.1548 18.7191 52.2528C19.0205 52.9121 19.3382 53.5637 19.6717 54.207C19.9675 54.7776 20.2992 55.3204 20.6629 55.8339C19.3369 55.9439 17.9956 56 16.6412 56C14.5241 56 12.439 55.8629 10.3943 55.5972C7.35086 55.2017 4.74701 53.2094 3.61798 50.3555C3.45847 49.9523 3.30493 49.5461 3.15746 49.137C1.93181 45.7368 3.02551 41.8498 6.17339 40.0737C9.26588 38.3289 12.8373 37.3333 16.6412 37.3333ZM41.3334 54.6667C44.841 54.6667 48.2607 54.3523 51.5591 53.7554C53.5493 53.3952 55.2013 52.193 56.059 50.5313C56.331 50.0044 56.5897 49.4714 56.8348 48.9329C57.9299 46.5266 57.1549 43.9505 55.3214 42.7435C51.4616 40.2024 46.6258 38.6667 41.3334 38.6667C36.0409 38.6667 31.2052 40.2024 27.3453 42.7435C25.5119 43.9505 24.7368 46.5266 25.8319 48.9329C26.077 49.4714 26.3357 50.0044 26.6078 50.5313C27.4654 52.193 29.1174 53.3952 31.1076 53.7554C34.406 54.3523 37.8257 54.6667 41.3334 54.6667ZM52.2714 57.6914C55.4025 57.1248 58.1491 55.2028 59.6134 52.366C59.9154 51.7809 60.2029 51.1888 60.4754 50.5899C62.2944 46.5933 61.1801 41.8115 57.5209 39.4025C53.0018 36.4274 47.4001 34.6667 41.3334 34.6667C35.2666 34.6667 29.6649 36.4274 25.1458 39.4025C21.4866 41.8115 20.3723 46.5933 22.1913 50.5899C22.4638 51.1888 22.7513 51.7809 23.0533 52.366C24.5176 55.2028 27.2642 57.1248 30.3953 57.6914C33.9284 58.3309 37.5865 58.6667 41.3334 58.6667C45.0802 58.6667 48.7383 58.3309 52.2714 57.6914ZM20.6384 24.1667C20.6384 26.5446 20.0849 28.2816 19.3665 29.3031C18.7566 30.1703 17.9589 30.6667 16.6384 30.6667C15.3178 30.6667 14.5201 30.1703 13.9102 29.3031C13.1918 28.2816 12.6384 26.5446 12.6384 24.1667C12.6384 22.5675 13.0908 21.5789 13.5905 21.0324C14.0387 20.5422 14.891 20 16.6384 20C18.3857 20 19.238 20.5422 19.6863 21.0324C20.1859 21.5789 20.6384 22.5675 20.6384 24.1667ZM24.6384 24.1667C24.6384 30 21.9717 34.6667 16.6384 34.6667C11.305 34.6667 8.63837 30 8.63837 24.1667C8.63837 19.5 11.305 16 16.6384 16C21.9717 16 24.6384 19.5 24.6384 24.1667Z" fill="#18202A"/>
</svg>
