<svg width="64" height="64" viewBox="0 0 64 64" fill="none" xmlns="http://www.w3.org/2000/svg">
<path d="M16 2.6665C8.63622 2.6665 2.66669 8.63604 2.66669 15.9998V47.9998C2.66669 55.3636 8.63623 61.3332 16 61.3332H37.0031C36.0541 60.1192 35.2633 58.7755 34.6618 57.3332H16C10.8454 57.3332 6.66669 53.1545 6.66669 47.9998V15.9998C6.66669 10.8452 10.8454 6.6665 16 6.6665H48C53.1547 6.6665 57.3334 10.8452 57.3334 15.9998V34.6616C58.7757 35.2631 60.1194 36.0539 61.3334 37.0029V15.9998C61.3334 8.63604 55.3638 2.6665 48 2.6665H16Z" fill="#18202A"/>
<path d="M18.6667 17.3332V11.9998H13.3334V17.3332H18.6667Z" fill="#18202A"/>
<path fill-rule="evenodd" clip-rule="evenodd" d="M24 25.185C24 23.2511 26.0901 22.0566 27.7329 23.0516L38.9634 29.8531C40.5589 30.8195 40.5589 33.1536 38.9634 34.1199L27.7329 40.9215C26.0901 41.9164 24 40.7219 24 38.7881V25.185ZM28 27.8897V36.0833L34.7644 31.9865L28 27.8897Z" fill="#18202A"/>
<path d="M18.6667 51.9998V46.6665H13.3334V51.9998H18.6667Z" fill="#18202A"/>
<path d="M29.3334 11.9998H24V17.3332H29.3334V11.9998Z" fill="#18202A"/>
<path d="M29.3334 46.6665H24V51.9998H29.3334V46.6665Z" fill="#18202A"/>
<path d="M40 11.9998H34.6667V17.3332H40V11.9998Z" fill="#18202A"/>
<path d="M50.6667 17.3332V11.9998H45.3334V17.3332H50.6667Z" fill="#18202A"/>
<path fill-rule="evenodd" clip-rule="evenodd" d="M50.6667 63.9998C58.0305 63.9998 64 58.0303 64 50.6665C64 43.3027 58.0305 37.3332 50.6667 37.3332C43.3029 37.3332 37.3334 43.3027 37.3334 50.6665C37.3334 58.0303 43.3029 63.9998 50.6667 63.9998ZM52.6667 44.6665C52.6667 43.5619 51.7713 42.6665 50.6667 42.6665C49.5621 42.6665 48.6667 43.5619 48.6667 44.6665V48.6665H44.6667C43.5621 48.6665 42.6667 49.5619 42.6667 50.6665C42.6667 51.7711 43.5621 52.6665 44.6667 52.6665H48.6667V56.6665C48.6667 57.7711 49.5621 58.6665 50.6667 58.6665C51.7713 58.6665 52.6667 57.7711 52.6667 56.6665V52.6665H56.6667C57.7713 52.6665 58.6667 51.7711 58.6667 50.6665C58.6667 49.5619 57.7713 48.6665 56.6667 48.6665H52.6667V44.6665Z" fill="#18202A"/>
</svg>
