<svg width="64" height="64" viewBox="0 0 64 64" fill="none" xmlns="http://www.w3.org/2000/svg">
<path fill-rule="evenodd" clip-rule="evenodd" d="M27.5675 4.01183C27.4817 3.46624 27.8544 2.95268 28.4026 2.88559C29.5823 2.74123 30.7829 2.66699 32 2.66699C48.2004 2.66699 61.3334 15.8 61.3334 32.0003C61.3334 33.2175 61.2591 34.4181 61.1148 35.5978C61.0477 36.146 60.5341 36.5186 59.9885 36.4329L58.0128 36.1224C57.4672 36.0366 57.0964 35.525 57.1606 34.9764C57.2746 34.001 57.3334 33.0079 57.3334 32.0003C57.3334 18.0091 45.9912 6.66699 32 6.66699C30.9925 6.66699 29.9994 6.72571 29.0239 6.83977C28.4754 6.9039 27.9637 6.53317 27.878 5.98758L27.5675 4.01183ZM14.1684 9.9807C13.8206 9.55171 13.8854 8.92052 14.326 8.58746C16.2339 7.14508 18.3244 5.93007 20.5571 4.98331C21.0656 4.7677 21.6449 5.02671 21.8429 5.54227L22.5601 7.40926C22.7581 7.92482 22.4998 8.50143 21.9925 8.71981C20.1554 9.51067 18.4299 10.513 16.8467 11.6966C16.4044 12.0273 15.7758 11.9632 15.428 11.5342L14.1684 9.9807ZM5.54196 21.8432C5.02641 21.6452 4.7674 21.0659 4.983 20.5574C5.92977 18.3247 7.14478 16.2342 8.58716 14.3263C8.92021 13.8857 9.5514 13.8209 9.9804 14.1687L11.5339 15.4283C11.9629 15.7761 12.027 16.4047 11.6963 16.847C10.5127 18.4302 9.51036 20.1557 8.7195 21.9928C8.50113 22.5001 7.92452 22.7584 7.40896 22.5604L5.54196 21.8432ZM2.66669 32.0003C2.66669 30.7832 2.74093 29.5826 2.88529 28.4029C2.95238 27.8547 3.46594 27.482 4.01153 27.5678L5.98728 27.8783C6.53287 27.964 6.9036 28.4757 6.83946 29.0242C6.72541 29.9997 6.66669 30.9928 6.66669 32.0003C6.66669 33.0079 6.72541 34.0009 6.83946 34.9764C6.9036 35.525 6.53287 36.0366 5.98728 36.1224L4.01153 36.4329C3.46594 36.5186 2.95238 36.146 2.88529 35.5978C2.74093 34.4181 2.66669 33.2175 2.66669 32.0003ZM9.9804 49.8319C9.5514 50.1797 8.92021 50.1149 8.58715 49.6744C7.14478 47.7664 5.92977 45.676 4.983 43.4432C4.76739 42.9347 5.0264 42.3555 5.54196 42.1574L7.40896 41.4403C7.92451 41.2422 8.50113 41.5005 8.7195 42.0078C9.51036 43.8449 10.5127 45.5705 11.6963 47.1536C12.027 47.5959 11.9629 48.2245 11.5339 48.5723L9.9804 49.8319ZM58.4581 42.1574C58.9736 42.3555 59.2326 42.9347 59.017 43.4432C58.0703 45.676 56.8553 47.7665 55.4129 49.6744C55.0798 50.1149 54.4486 50.1797 54.0196 49.8319L52.4661 48.5723C52.0371 48.2245 51.973 47.5959 52.3037 47.1536C53.4873 45.5705 54.4897 43.8449 55.2805 42.0078C55.4989 41.5005 56.0755 41.2422 56.5911 41.4403L58.4581 42.1574ZM21.8429 58.4584C21.6449 58.9739 21.0656 59.233 20.5571 59.0173C18.3244 58.0706 16.2339 56.8556 14.326 55.4132C13.8854 55.0801 13.8206 54.4489 14.1684 54.0199L15.428 52.4664C15.7758 52.0374 16.4044 51.9733 16.8467 52.304C18.4299 53.4876 20.1554 54.49 21.9925 55.2808C22.4998 55.4992 22.7581 56.0758 22.5601 56.5914L21.8429 58.4584ZM49.8316 54.0199C50.1794 54.4489 50.1146 55.0801 49.6741 55.4132C47.7661 56.8556 45.6757 58.0706 43.4429 59.0173C42.9344 59.233 42.3552 58.9739 42.1571 58.4584L41.4399 56.5914C41.2419 56.0758 41.5002 55.4992 42.0075 55.2808C43.8446 54.49 45.5702 53.4876 47.1533 52.304C47.5956 51.9733 48.2242 52.0374 48.572 52.4664L49.8316 54.0199ZM32 61.3337C30.7829 61.3337 29.5823 61.2594 28.4026 61.1151C27.8544 61.048 27.4817 60.5344 27.5675 59.9888L27.878 58.0131C27.9637 57.4675 28.4753 57.0967 29.0239 57.1609C29.9994 57.2749 30.9925 57.3337 32 57.3337C33.0076 57.3337 34.0006 57.2749 34.9761 57.1609C35.5247 57.0967 36.0363 57.4675 36.1221 58.0131L36.4326 59.9888C36.5183 60.5344 36.1457 61.048 35.5975 61.1151C34.4178 61.2594 33.2172 61.3337 32 61.3337ZM53.3334 32.0003C53.3334 43.7824 43.7821 53.3337 32 53.3337C20.2179 53.3337 10.6667 43.7824 10.6667 32.0003C10.6667 20.2183 20.2179 10.667 32 10.667C43.7821 10.667 53.3334 20.2183 53.3334 32.0003ZM29.3334 22.667C29.3334 24.8761 27.5425 26.667 25.3334 26.667C23.1242 26.667 21.3334 24.8761 21.3334 22.667C21.3334 20.4579 23.1242 18.667 25.3334 18.667C27.5425 18.667 29.3334 20.4579 29.3334 22.667ZM32 49.3337C40.7875 49.3337 48.0476 42.7945 49.1799 34.3169L40 26.667L30.6667 37.3337L24 33.3337L16.5452 39.8566C19.4101 45.4812 25.2551 49.3337 32 49.3337Z" fill="#18202A"/>
</svg>
