<svg width="64" height="64" viewBox="0 0 64 64" fill="none" xmlns="http://www.w3.org/2000/svg">
<g clip-path="url(#clip0_3293_9033)">
<path fill-rule="evenodd" clip-rule="evenodd" d="M37.3333 10.6665C38.8061 10.6665 40 11.8604 40 13.3332V15.3332H41.3333C42.8061 15.3332 44 16.5271 44 17.9998C44 19.4726 42.8061 20.6665 41.3333 20.6665H40V39.9998C40 41.4726 38.8061 42.6665 37.3333 42.6665C36.0717 42.6665 35.0147 41.7904 34.7376 40.6134C33.0543 41.9013 30.9498 42.6665 28.6666 42.6665C23.1438 42.6665 18.6666 38.1894 18.6666 32.6665C18.6666 27.1437 23.1438 22.6665 28.6666 22.6665C30.9178 22.6665 32.9953 23.4104 34.6666 24.6658V20.6665H33.3333C31.8605 20.6665 30.6666 19.4726 30.6666 17.9998C30.6666 16.5271 31.8605 15.3332 33.3333 15.3332H34.6666V13.3332C34.6666 11.8604 35.8605 10.6665 37.3333 10.6665ZM28.6666 37.3332C31.244 37.3332 33.3333 35.2438 33.3333 32.6665C33.3333 30.0892 31.244 27.9998 28.6666 27.9998C26.0893 27.9998 24 30.0892 24 32.6665C24 35.2438 26.0893 37.3332 28.6666 37.3332Z" fill="#18202A"/>
<path d="M21.3333 45.3332C19.8605 45.3332 18.6666 46.5271 18.6666 47.9998C18.6666 49.4726 19.8605 50.6665 21.3333 50.6665H37.3333C38.8061 50.6665 40 49.4726 40 47.9998C40 46.5271 38.8061 45.3332 37.3333 45.3332H21.3333Z" fill="#18202A"/>
<path fill-rule="evenodd" clip-rule="evenodd" d="M61.3333 31.9998C61.3333 48.2002 48.2003 61.3332 32 61.3332C15.7996 61.3332 2.66663 48.2002 2.66663 31.9998C2.66663 15.7995 15.7996 2.6665 32 2.6665C48.2003 2.6665 61.3333 15.7995 61.3333 31.9998ZM56 31.9998C56 45.2547 45.2548 55.9998 32 55.9998C18.7451 55.9998 7.99996 45.2547 7.99996 31.9998C7.99996 18.745 18.7451 7.99984 32 7.99984C45.2548 7.99984 56 18.745 56 31.9998Z" fill="#18202A"/>
</g>
<defs>
<clipPath id="clip0_3293_9033">
<rect width="64" height="64" fill="white"/>
</clipPath>
</defs>
</svg>
