<svg width="64" height="64" viewBox="0 0 64 64" fill="none" xmlns="http://www.w3.org/2000/svg">
<path fill-rule="evenodd" clip-rule="evenodd" d="M61.3333 32C61.3333 15.7996 48.2004 2.66663 32 2.66663C15.7997 2.66663 2.66667 15.7996 2.66667 32C2.66667 48.2003 15.7997 61.3333 32 61.3333C48.2004 61.3333 61.3333 48.2003 61.3333 32ZM19.4477 32.781C18.4063 33.8224 18.4063 35.5108 19.4477 36.5522C20.4891 37.5936 22.1776 37.5936 23.219 36.5522L32 27.7712L40.7811 36.5522C41.8225 37.5936 43.5109 37.5936 44.5523 36.5522C45.5937 35.5108 45.5937 33.8224 44.5523 32.781L33.8856 22.1143C32.8442 21.0729 31.1558 21.0729 30.1144 22.1143L19.4477 32.781Z" fill="#18202A"/>
</svg>
