<svg width="64" height="64" viewBox="0 0 64 64" fill="none" xmlns="http://www.w3.org/2000/svg">
<g clip-path="url(#clip0_3289_16947)">
<path d="M17.3334 4C18.8061 4 20 5.19391 20 6.66667V13.3333H26.6719C28.1447 13.3333 29.3386 14.5272 29.3386 16C29.3386 17.4728 28.1447 18.6667 26.6719 18.6667H20V25.3333C20 26.8061 18.8061 28 17.3334 28C15.8606 28 14.6667 26.8061 14.6667 25.3333V18.6667H8.00525C6.53249 18.6667 5.33858 17.4728 5.33858 16C5.33858 14.5272 6.53249 13.3333 8.00525 13.3333H14.6667V6.66667C14.6667 5.19391 15.8606 4 17.3334 4ZM37.3282 13.3333C35.8554 13.3333 34.6615 14.5272 34.6615 16C34.6615 17.4728 35.8554 18.6667 37.3282 18.6667H55.9948C57.4676 18.6667 58.6615 17.4728 58.6615 16C58.6615 14.5272 57.4676 13.3333 55.9948 13.3333H37.3282ZM34.6667 46.6667C34.6667 45.1939 35.8606 44 37.3334 44H56C57.4728 44 58.6667 45.1939 58.6667 46.6667C58.6667 48.1394 57.4728 49.3333 56 49.3333H37.3334C35.8606 49.3333 34.6667 48.1394 34.6667 46.6667ZM46.6667 41.3333C48.5077 41.3333 50 39.841 50 38C50 36.159 48.5077 34.6667 46.6667 34.6667C44.8258 34.6667 43.3334 36.159 43.3334 38C43.3334 39.841 44.8258 41.3333 46.6667 41.3333ZM50 55.3333C50 57.1743 48.5077 58.6667 46.6667 58.6667C44.8258 58.6667 43.3334 57.1743 43.3334 55.3333C43.3334 53.4924 44.8258 52 46.6667 52C48.5077 52 50 53.4924 50 55.3333ZM6.11442 35.4477C7.15582 34.4063 8.84426 34.4063 9.88566 35.4477L17.3334 42.8955L24.7811 35.4477C25.8225 34.4063 27.511 34.4063 28.5524 35.4477C29.5938 36.4891 29.5938 38.1776 28.5524 39.219L21.1046 46.6667L28.5523 54.1144C29.5937 55.1558 29.5937 56.8442 28.5523 57.8856C27.5109 58.927 25.8225 58.927 24.7811 57.8856L17.3334 50.4379L9.88569 57.8856C8.8443 58.927 7.15586 58.927 6.11446 57.8856C5.07306 56.8442 5.07306 55.1558 6.11446 54.1144L13.5622 46.6667L6.11442 39.219C5.07302 38.1776 5.07302 36.4891 6.11442 35.4477Z" fill="#18202A"/>
</g>
<defs>
<clipPath id="clip0_3289_16947">
<rect width="64" height="64" fill="white"/>
</clipPath>
</defs>
</svg>
