<svg width="64" height="64" viewBox="0 0 64 64" fill="none" xmlns="http://www.w3.org/2000/svg">
<path fill-rule="evenodd" clip-rule="evenodd" d="M32 57.3332C45.9912 57.3332 57.3334 45.9911 57.3334 31.9998C57.3334 18.0086 45.9912 6.6665 32 6.6665C18.0088 6.6665 6.66669 18.0086 6.66669 31.9998C6.66669 45.9911 18.0088 57.3332 32 57.3332ZM61.3334 31.9998C61.3334 48.2002 48.2004 61.3332 32 61.3332C15.7997 61.3332 2.66669 48.2002 2.66669 31.9998C2.66669 15.7995 15.7997 2.6665 32 2.6665C48.2004 2.6665 61.3334 15.7995 61.3334 31.9998Z" fill="#18202A"/>
<path fill-rule="evenodd" clip-rule="evenodd" d="M20.2088 38.3459C21.1222 37.7249 22.3662 37.9619 22.9873 38.8753C23.8892 40.2018 25.1837 41.327 26.7668 42.1186C28.3504 42.9104 30.1541 43.3332 32 43.3332C33.8459 43.3332 35.6497 42.9104 37.2333 42.1186C38.8163 41.327 40.1109 40.2018 41.0128 38.8753C41.6339 37.9619 42.8778 37.7249 43.7912 38.3459C44.7047 38.967 44.9417 40.211 44.3206 41.1244C43.0102 43.0516 41.1774 44.6187 39.0221 45.6963C36.8674 46.7736 34.4492 47.3332 32 47.3332C29.5509 47.3332 27.1326 46.7736 24.9779 45.6963C22.8227 44.6187 20.9898 43.0516 19.6795 41.1244C19.0584 40.211 19.2954 38.967 20.2088 38.3459Z" fill="#18202A"/>
<path d="M26.6667 26.6665C26.6667 29.612 24.8758 31.9998 22.6667 31.9998C20.4575 31.9998 18.6667 29.612 18.6667 26.6665C18.6667 23.721 20.4575 21.3332 22.6667 21.3332C24.8758 21.3332 26.6667 23.721 26.6667 26.6665Z" fill="#18202A"/>
<path d="M45.3334 26.6665C45.3334 29.612 43.5425 31.9998 41.3334 31.9998C39.1242 31.9998 37.3334 29.612 37.3334 26.6665C37.3334 23.721 39.1242 21.3332 41.3334 21.3332C43.5425 21.3332 45.3334 23.721 45.3334 26.6665Z" fill="#18202A"/>
</svg>
