<svg width="64" height="64" viewBox="0 0 64 64" fill="none" xmlns="http://www.w3.org/2000/svg">
<path fill-rule="evenodd" clip-rule="evenodd" d="M32 57.3333C45.9912 57.3333 57.3334 45.9912 57.3334 32C57.3334 18.0087 45.9912 6.66663 32 6.66663C18.0088 6.66663 6.66669 18.0087 6.66669 32C6.66669 45.9912 18.0088 57.3333 32 57.3333ZM32 61.3333C48.2004 61.3333 61.3334 48.2003 61.3334 32C61.3334 15.7996 48.2004 2.66663 32 2.66663C15.7997 2.66663 2.66669 15.7996 2.66669 32C2.66669 48.2003 15.7997 61.3333 32 61.3333Z" fill="#18202A"/>
<path fill-rule="evenodd" clip-rule="evenodd" d="M27.9191 19.9191C28.7002 19.138 29.9665 19.138 30.7476 19.9191L41.4142 30.5857C42.1953 31.3668 42.1953 32.6331 41.4142 33.4142L30.7476 44.0808C29.9665 44.8619 28.7002 44.8619 27.9191 44.0808C27.1381 43.2998 27.1381 42.0335 27.9191 41.2524L37.1716 32L27.9191 22.7475C27.1381 21.9665 27.1381 20.7001 27.9191 19.9191Z" fill="#18202A"/>
</svg>
