<svg width="64" height="64" viewBox="0 0 64 64" fill="none" xmlns="http://www.w3.org/2000/svg">
<path fill-rule="evenodd" clip-rule="evenodd" d="M20.0005 52.6706C20.0005 51.566 20.8959 50.6706 22.0005 50.6706H56.6671C57.7717 50.6706 58.6671 51.566 58.6671 52.6706C58.6671 53.7751 57.7717 54.6706 56.6671 54.6706H22.0005C20.8959 54.6706 20.0005 53.7751 20.0005 52.6706Z" fill="#18202A"/>
<path fill-rule="evenodd" clip-rule="evenodd" d="M20.0005 10.0039C20.0005 8.89934 20.8959 8.00391 22.0005 8.00391H56.6671C57.7717 8.00391 58.6671 8.89934 58.6671 10.0039C58.6671 11.1085 57.7717 12.0039 56.6671 12.0039H22.0005C20.8959 12.0039 20.0005 11.1085 20.0005 10.0039Z" fill="#18202A"/>
<path d="M16.748 24.7462C17.5291 23.9652 17.5291 22.6989 16.748 21.9178C15.967 21.1368 14.7006 21.1368 13.9196 21.9178L5.91959 29.9178C5.51785 30.3196 5.32275 30.8497 5.33428 31.3761C5.34203 32.0253 5.65594 32.6008 6.13828 32.9649L13.9196 40.7462C14.7006 41.5273 15.967 41.5273 16.748 40.7462C17.5291 39.9652 17.5291 38.6989 16.748 37.9178L12.2001 33.3699L56.648 33.3517C57.7638 33.3513 58.6679 32.4464 58.6675 31.3306C58.667 30.2148 57.7621 29.3106 56.6463 29.3111L12.165 29.3292L16.748 24.7462Z" fill="#18202A"/>
</svg>
