<svg width="64" height="64" viewBox="0 0 64 64" fill="none" xmlns="http://www.w3.org/2000/svg">
<path fill-rule="evenodd" clip-rule="evenodd" d="M61.3333 32C61.3333 15.7997 48.2004 2.66669 32 2.66669C15.7997 2.66669 2.66667 15.7997 2.66667 32C2.66667 48.2004 15.7997 61.3334 32 61.3334C48.2004 61.3334 61.3333 48.2004 61.3333 32ZM19.4477 27.4477C18.4063 28.4891 18.4063 30.1776 19.4477 31.219C20.4891 32.2604 22.1776 32.2604 23.219 31.219L29.3333 25.1046V45.3334C29.3333 46.8061 30.5272 48 32 48C33.4728 48 34.6667 46.8061 34.6667 45.3334V25.1046L40.7811 31.219C41.8225 32.2604 43.5109 32.2604 44.5523 31.219C45.5937 30.1776 45.5937 28.4891 44.5523 27.4477L33.8856 16.7811C32.8442 15.7397 31.1558 15.7397 30.1144 16.7811L19.4477 27.4477Z" fill="#18202A"/>
</svg>
