<svg width="64" height="64" viewBox="0 0 64 64" fill="none" xmlns="http://www.w3.org/2000/svg">
<path fill-rule="evenodd" clip-rule="evenodd" d="M32.38 44.5617C32.9985 44.1939 33.7047 43.9998 34.4243 43.9998H50.6667C54.3486 43.9998 57.3334 41.0151 57.3334 37.3332V13.3332C57.3334 9.65127 54.3486 6.6665 50.6667 6.6665H13.3334C9.65146 6.6665 6.66669 9.65127 6.66669 13.3332V37.3332C6.66669 41.0151 9.65145 43.9998 13.3334 43.9998H14.7879C15.9924 43.9998 17.1327 44.5426 17.8923 45.4774C18.6519 46.4122 18.9497 47.6395 18.7032 48.8185L17.7779 53.244L32.38 44.5617ZM34.4243 47.9998H50.6667C56.5577 47.9998 61.3334 43.2242 61.3334 37.3332V13.3332C61.3334 7.44213 56.5577 2.6665 50.6667 2.6665H13.3334C7.44232 2.6665 2.66669 7.44213 2.66669 13.3332V37.3332C2.66669 42.3393 6.11528 46.5399 10.7664 47.6889C11.5886 47.8921 12.4484 47.9998 13.3334 47.9998H14.7879L13.2417 55.3946C12.7667 57.6665 15.2198 59.4187 17.2148 58.2325L34.4243 47.9998Z" fill="#18202A"/>
</svg>
