<svg width="64" height="64" viewBox="0 0 64 64" fill="none" xmlns="http://www.w3.org/2000/svg">
<path d="M31.0003 2.81281C31.5217 2.65675 32.0722 2.62554 32.6053 2.71917L33.0011 2.81281L58.9768 10.626C60.3784 11.0485 61.3347 12.299 61.3333 13.7136C61.3333 48.311 43.1861 56.5817 33.4344 61.023C32.9811 61.2297 32.4915 61.3332 32.0008 61.3332C31.5099 61.3332 31.0189 61.2297 30.5643 61.023L29.1519 60.376C19.1651 55.7542 2.66667 46.7019 2.66667 13.7136C2.66667 12.4157 3.47019 11.2567 4.68363 10.7482L5.02444 10.626L31.0003 2.81281ZM32.0027 8.07984L8.01334 15.2958L8.03593 16.2985C8.39429 28.9839 11.4213 38.1034 16.5466 44.6298L17.0661 45.2739C20.7557 49.7273 24.4001 52.2138 30.8497 55.2752L32 55.8105L32.2048 55.7185C38.9295 52.5972 42.7144 50.1699 46.4066 45.8975L46.9338 45.2744C52.3738 38.7079 55.5938 29.4069 55.9641 16.2944L55.984 15.2958L32.0027 8.07984Z" fill="#18202A"/>
<path fill-rule="evenodd" clip-rule="evenodd" d="M13.3736 19.808L13.3333 19.2105L31.8213 13.6478L50.3013 19.2078L50.2637 19.8022C49.5013 29.7971 46.8027 36.8538 42.6454 41.8719L42.1823 42.4186C39.5529 45.4519 36.8096 47.4108 32.316 49.6611L31.8187 49.9065L30.4467 49.2154C26.2122 47.0149 23.594 45.0123 20.9918 41.8714L20.5186 41.2833C16.6299 36.3062 14.1067 29.4127 13.3736 19.808Z" fill="#18202A"/>
</svg>
