<svg width="64" height="64" viewBox="0 0 64 64" fill="none" xmlns="http://www.w3.org/2000/svg">
<path fill-rule="evenodd" clip-rule="evenodd" d="M40 58.6668C44.4183 58.6668 48 55.0851 48 50.6668C48 46.2486 44.4183 42.6668 40 42.6668C35.5817 42.6668 32 46.2486 32 50.6668C32 55.0851 35.5817 58.6668 40 58.6668Z" fill="#18202A"/>
<path fill-rule="evenodd" clip-rule="evenodd" d="M40 21.3335C44.4183 21.3335 48 17.7518 48 13.3335C48 8.91522 44.4183 5.3335 40 5.3335C35.5817 5.3335 32 8.91522 32 13.3335C32 17.7518 35.5817 21.3335 40 21.3335Z" fill="#18202A"/>
<path fill-rule="evenodd" clip-rule="evenodd" d="M24 40.0002C28.4183 40.0002 32 36.4184 32 32.0002C32 27.5819 28.4183 24.0002 24 24.0002C19.5817 24.0002 16 27.5819 16 32.0002C16 36.4184 19.5817 40.0002 24 40.0002Z" fill="#18202A"/>
<path d="M2.66667 50.6668C2.66667 49.1941 3.86058 48.0002 5.33334 48.0002H26.6667C28.1394 48.0002 29.3333 49.1941 29.3333 50.6668C29.3333 52.1396 28.1394 53.3335 26.6667 53.3335H5.33334C3.86058 53.3335 2.66667 52.1396 2.66667 50.6668Z" fill="#18202A"/>
<path d="M2.66667 13.3335C2.66667 11.8607 3.86058 10.6668 5.33334 10.6668H26.6667C28.1394 10.6668 29.3333 11.8607 29.3333 13.3335C29.3333 14.8063 28.1394 16.0002 26.6667 16.0002H5.33334C3.86058 16.0002 2.66667 14.8063 2.66667 13.3335Z" fill="#18202A"/>
<path d="M34.6667 32.0002C34.6667 30.5274 35.8606 29.3335 37.3333 29.3335H58.6667C60.1394 29.3335 61.3333 30.5274 61.3333 32.0002C61.3333 33.4729 60.1394 34.6668 58.6667 34.6668H37.3333C35.8606 34.6668 34.6667 33.4729 34.6667 32.0002Z" fill="#18202A"/>
<path d="M50.6667 50.6668C50.6667 49.1941 51.8606 48.0002 53.3333 48.0002H58.6667C60.1394 48.0002 61.3333 49.1941 61.3333 50.6668C61.3333 52.1396 60.1394 53.3335 58.6667 53.3335H53.3333C51.8606 53.3335 50.6667 52.1396 50.6667 50.6668Z" fill="#18202A"/>
<path d="M50.6667 13.3335C50.6667 11.8607 51.8606 10.6668 53.3333 10.6668H58.6667C60.1394 10.6668 61.3333 11.8607 61.3333 13.3335C61.3333 14.8063 60.1394 16.0002 58.6667 16.0002H53.3333C51.8606 16.0002 50.6667 14.8063 50.6667 13.3335Z" fill="#18202A"/>
<path d="M2.66667 32.0002C2.66667 30.5274 3.86058 29.3335 5.33334 29.3335H10.6667C12.1394 29.3335 13.3333 30.5274 13.3333 32.0002C13.3333 33.4729 12.1394 34.6668 10.6667 34.6668H5.33334C3.86058 34.6668 2.66667 33.4729 2.66667 32.0002Z" fill="#18202A"/>
</svg>
