<svg width="64" height="64" viewBox="0 0 64 64" fill="none" xmlns="http://www.w3.org/2000/svg">
<path d="M18.6667 31.9998C18.6667 34.9454 16.2789 37.3332 13.3333 37.3332C10.3878 37.3332 8 34.9454 8 31.9998C8 29.0543 10.3878 26.6665 13.3333 26.6665C16.2789 26.6665 18.6667 29.0543 18.6667 31.9998Z" fill="#18202A"/>
<path d="M37.3333 31.9998C37.3333 34.9454 34.9455 37.3332 32 37.3332C29.0545 37.3332 26.6667 34.9454 26.6667 31.9998C26.6667 29.0543 29.0545 26.6665 32 26.6665C34.9455 26.6665 37.3333 29.0543 37.3333 31.9998Z" fill="#18202A"/>
<path d="M56 31.9998C56 34.9454 53.6122 37.3332 50.6667 37.3332C47.7211 37.3332 45.3333 34.9454 45.3333 31.9998C45.3333 29.0543 47.7211 26.6665 50.6667 26.6665C53.6122 26.6665 56 29.0543 56 31.9998Z" fill="#18202A"/>
</svg>
