<svg width="64" height="64" viewBox="0 0 64 64" fill="none" xmlns="http://www.w3.org/2000/svg">
<path d="M39.9191 10.081C39.1381 9.29991 39.1381 8.03358 39.9191 7.25253C40.7001 6.47149 41.9665 6.47149 42.7475 7.25253L54.7475 19.2525C55.5286 20.0336 55.5286 21.2999 54.7475 22.081L42.7475 34.081C41.9665 34.862 40.7001 34.862 39.9191 34.081C39.1381 33.2999 39.1381 32.0336 39.9191 31.2525L48.5049 22.6667H24C17.3726 22.6667 12 28.0393 12 34.6667C12 41.2942 17.3726 46.6667 24 46.6667H43.3333C44.4379 46.6667 45.3333 47.5622 45.3333 48.6667C45.3333 49.7713 44.4379 50.6667 43.3333 50.6667H24C15.1634 50.6667 7.99998 43.5033 7.99998 34.6667C7.99998 25.8302 15.1634 18.6667 24 18.6667H48.5049L39.9191 10.081Z" fill="#18202A"/>
</svg>
