<svg width="64" height="64" viewBox="0 0 64 64" fill="none" xmlns="http://www.w3.org/2000/svg">
<g clip-path="url(#clip0_3517_8828)">
<g clip-path="url(#clip1_3517_8828)">
<path d="M10.6666 13.3337C10.6666 14.8064 9.47274 16.0003 7.99998 16.0003C6.52722 16.0003 5.33331 14.8064 5.33331 13.3337C5.33331 11.8609 6.52722 10.667 7.99998 10.667C9.47274 10.667 10.6666 11.8609 10.6666 13.3337Z" fill="#18202A"/>
<path d="M18.6666 13.3337C18.6666 12.2291 19.5621 11.3337 20.6666 11.3337H56.6666C57.7712 11.3337 58.6666 12.2291 58.6666 13.3337C58.6666 14.4382 57.7712 15.3337 56.6666 15.3337H20.6666C19.5621 15.3337 18.6666 14.4382 18.6666 13.3337Z" fill="#18202A"/>
<path d="M20.6666 30.0003C19.5621 30.0003 18.6666 30.8958 18.6666 32.0003C18.6666 33.1049 19.5621 34.0003 20.6666 34.0003H45.8895C47.407 33.5662 49.0097 33.3337 50.6666 33.3337C52.3236 33.3337 53.9263 33.5662 55.4438 34.0003H56.6666C57.7712 34.0003 58.6666 33.1049 58.6666 32.0003C58.6666 30.8958 57.7712 30.0003 56.6666 30.0003H20.6666Z" fill="#18202A"/>
<path d="M33.3333 50.667C33.3333 49.9906 33.3721 49.3232 33.4475 48.667H20.6666C19.5621 48.667 18.6666 49.5624 18.6666 50.667C18.6666 51.7716 19.5621 52.667 20.6666 52.667H33.4475C33.3721 52.0108 33.3333 51.3434 33.3333 50.667Z" fill="#18202A"/>
<path d="M10.6666 32.0003C10.6666 33.4731 9.47274 34.667 7.99998 34.667C6.52722 34.667 5.33331 33.4731 5.33331 32.0003C5.33331 30.5276 6.52722 29.3337 7.99998 29.3337C9.47274 29.3337 10.6666 30.5276 10.6666 32.0003Z" fill="#18202A"/>
<path d="M10.6666 50.667C10.6666 52.1398 9.47274 53.3337 7.99998 53.3337C6.52722 53.3337 5.33331 52.1398 5.33331 50.667C5.33331 49.1942 6.52722 48.0003 7.99998 48.0003C9.47274 48.0003 10.6666 49.1942 10.6666 50.667Z" fill="#18202A"/>
<path fill-rule="evenodd" clip-rule="evenodd" d="M50.6666 64.0003C58.0304 64.0003 64 58.0308 64 50.667C64 43.3032 58.0304 37.3337 50.6666 37.3337C43.3028 37.3337 37.3333 43.3032 37.3333 50.667C37.3333 58.0308 43.3028 64.0003 50.6666 64.0003ZM52.6666 44.667C52.6666 43.5624 51.7712 42.667 50.6666 42.667C49.5621 42.667 48.6666 43.5624 48.6666 44.667V48.667H44.6666C43.5621 48.667 42.6666 49.5624 42.6666 50.667C42.6666 51.7716 43.5621 52.667 44.6666 52.667H48.6666V56.667C48.6666 57.7716 49.5621 58.667 50.6666 58.667C51.7712 58.667 52.6666 57.7716 52.6666 56.667V52.667H56.6666C57.7712 52.667 58.6666 51.7716 58.6666 50.667C58.6666 49.5624 57.7712 48.667 56.6666 48.667H52.6666V44.667Z" fill="#18202A"/>
</g>
</g>
<defs>
<clipPath id="clip0_3517_8828">
<rect width="64" height="64" fill="white"/>
</clipPath>
<clipPath id="clip1_3517_8828">
<rect width="64" height="64" fill="white"/>
</clipPath>
</defs>
</svg>
