<svg width="64" height="64" viewBox="0 0 64 64" fill="none" xmlns="http://www.w3.org/2000/svg">
<path d="M18.6667 10.6668H29.3333C33.7516 10.6668 37.3333 14.2486 37.3333 18.6668C37.3333 20.1396 38.5272 21.3335 40 21.3335C41.4728 21.3335 42.6667 20.1396 42.6667 18.6668C42.6667 11.303 36.6971 5.3335 29.3333 5.3335H18.6667C11.3029 5.3335 5.33333 11.303 5.33333 18.6668V45.3335C5.33333 52.6973 11.3029 58.6668 18.6667 58.6668H29.3333C36.6971 58.6668 42.6667 52.6973 42.6667 45.3335C42.6667 43.8607 41.4728 42.6668 40 42.6668C38.5272 42.6668 37.3333 43.8607 37.3333 45.3335C37.3333 49.7518 33.7516 53.3335 29.3333 53.3335H18.6667C14.2484 53.3335 10.6667 49.7518 10.6667 45.3335V18.6668C10.6667 14.2486 14.2484 10.6668 18.6667 10.6668Z" fill="#18202A"/>
<path fill-rule="evenodd" clip-rule="evenodd" d="M46.1144 22.1145C47.1558 21.0731 48.8442 21.0731 49.8856 22.1145L57.8856 30.1145C58.927 31.1559 58.927 32.8444 57.8856 33.8858L49.8856 41.8858C48.8442 42.9272 47.1558 42.9272 46.1144 41.8858C45.073 40.8444 45.073 39.1559 46.1144 38.1145L49.5621 34.6668H24C22.5272 34.6668 21.3333 33.4729 21.3333 32.0002C21.3333 30.5274 22.5272 29.3335 24 29.3335H49.5621L46.1144 25.8858C45.073 24.8444 45.073 23.1559 46.1144 22.1145Z" fill="#18202A"/>
</svg>
