<svg width="64" height="64" viewBox="0 0 64 64" fill="none" xmlns="http://www.w3.org/2000/svg">
<path fill-rule="evenodd" clip-rule="evenodd" d="M11.2189 7.4478C10.1775 6.4064 8.48907 6.4064 7.44767 7.4478C6.40628 8.48919 6.40628 10.1776 7.44767 11.219L14.1154 17.8867C9.22233 21.8488 5.54168 26.5217 3.52629 29.3718C2.40335 30.9598 2.40334 33.0404 3.52629 34.6284C7.55913 40.3315 18.2599 53.3334 31.9999 53.3334C36.9376 53.3334 41.4827 51.6543 45.467 49.2383L52.781 56.5524C53.8224 57.5938 55.5108 57.5938 56.5522 56.5524C57.5936 55.511 57.5936 53.8225 56.5522 52.7811L49.8845 46.1134L49.8868 46.1116L41.1913 37.416L41.1898 37.4187L37.1526 33.3815L37.1535 33.3782L30.6218 26.8465L30.6185 26.8474L26.5814 22.8103L26.584 22.8087L18.5355 14.7603L18.5329 14.7618L11.2189 7.4478ZM22.8101 26.5815C21.8718 28.1695 21.3333 30.0219 21.3333 32.0001C21.3333 37.8911 26.1089 42.6667 32 42.6667C33.9781 42.6667 35.8305 42.1283 37.4185 41.1899L33.3814 37.1528C32.9408 37.2706 32.4777 37.3334 32 37.3334C29.0544 37.3334 26.6666 34.9456 26.6666 32.0001C26.6666 31.5223 26.7294 31.0592 26.8473 30.6186L22.8101 26.5815Z" fill="#18202A"/>
<path d="M32.672 21.3542C38.0277 21.6872 42.3128 25.9723 42.6458 31.3281L53.8456 42.5278C56.7831 39.5804 59.0461 36.6471 60.4736 34.6284C61.5966 33.0404 61.5966 30.9598 60.4736 29.3718C56.4408 23.6687 45.7399 10.6667 31.9999 10.6667C29.0433 10.6667 26.2274 11.2688 23.5884 12.2706L32.672 21.3542Z" fill="#18202A"/>
</svg>
