<svg width="64" height="64" viewBox="0 0 64 64" fill="none" xmlns="http://www.w3.org/2000/svg">
<path fill-rule="evenodd" clip-rule="evenodd" d="M7.99999 2.66667C7.99999 1.19391 9.1939 0 10.6667 0H53.3333C54.8061 0 56 1.19391 56 2.66667V9.58853C56 10.4161 55.6158 11.1967 54.9601 11.7015L48.6866 16.5314C54.7716 21.4188 58.6667 28.9212 58.6667 37.3333C58.6667 52.0609 46.7276 64 32 64C17.2724 64 5.33333 52.0609 5.33333 37.3333C5.33333 28.9212 9.22842 21.4188 15.3134 16.5314L9.0399 11.7015C8.38419 11.1967 7.99999 10.4161 7.99999 9.58853V2.66667ZM45.3333 5.33333V14.2342C42.886 12.8185 40.1927 11.7805 37.3333 11.2001V5.33333H45.3333ZM26.6667 5.33333V11.2001C23.8073 11.7805 21.114 12.8185 18.6667 14.2342V5.33333H26.6667ZM32 53.3333C40.8366 53.3333 48 46.1699 48 37.3333C48 28.4968 40.8366 21.3333 32 21.3333C23.1634 21.3333 16 28.4968 16 37.3333C16 46.1699 23.1634 53.3333 32 53.3333ZM32.7695 28.5077C32.4483 27.8308 31.5517 27.8308 31.2305 28.5077L28.9987 33.2099C28.8705 33.4802 28.6284 33.6661 28.3498 33.7085L23.4116 34.4592C22.6928 34.5684 22.4112 35.527 22.9404 36.063L26.4711 39.6396C26.6842 39.8554 26.7817 40.1728 26.7306 40.4832L25.892 45.5684C25.767 46.3259 26.498 46.9118 27.1341 46.5639L31.6091 44.1162C31.8548 43.9818 32.1452 43.9818 32.3909 44.1162L36.8659 46.5639C37.502 46.9118 38.2329 46.3259 38.108 45.5684L37.2694 40.4832C37.2182 40.1728 37.3158 39.8554 37.5289 39.6396L41.0596 36.063C41.5887 35.527 41.3072 34.5684 40.5884 34.4592L35.6502 33.7085C35.3716 33.6661 35.1295 33.4801 35.0012 33.2099L32.7695 28.5077Z" fill="#18202A"/>
</svg>
