<svg width="64" height="64" viewBox="0 0 64 64" fill="none" xmlns="http://www.w3.org/2000/svg">
<path fill-rule="evenodd" clip-rule="evenodd" d="M32 18.667H32.0019C34.9465 18.666 37.3333 16.2786 37.3333 13.3337C37.3333 10.3881 34.9455 8.00033 32 8.00033C29.0545 8.00033 26.6667 10.3881 26.6667 13.3337C26.6667 16.2792 29.0545 18.667 32 18.667ZM42.6667 13.3337C42.6667 18.3039 39.2673 22.4802 34.6667 23.6643V55.8518C40.0507 55.25 45.1028 52.8387 48.9706 48.9709C52.8384 45.1031 55.2497 40.051 55.8515 34.667H50.6667C49.1939 34.667 48 33.4731 48 32.0003C48 30.5276 49.1939 29.3337 50.6667 29.3337H58.6667C60.1394 29.3337 61.3333 30.5276 61.3333 32.0003C61.3333 39.78 58.2429 47.2411 52.7418 52.7421C47.2407 58.2432 39.7797 61.3337 32 61.3337C24.2203 61.3337 16.7593 58.2432 11.2582 52.7421C5.75714 47.2411 2.66667 39.78 2.66667 32.0003C2.66667 31.2931 2.94762 30.6148 3.44772 30.1147C3.94782 29.6146 4.62609 29.3337 5.33334 29.3337H13.3333C14.8061 29.3337 16 30.5276 16 32.0003C16 33.4731 14.8061 34.667 13.3333 34.667H8.14853C8.75033 40.051 11.1616 45.1031 15.0294 48.9709C18.8972 52.8387 23.9493 55.25 29.3333 55.8518V23.6643C24.7327 22.4802 21.3333 18.3039 21.3333 13.3337C21.3333 7.44262 26.109 2.66699 32 2.66699C37.891 2.66699 42.6667 7.44262 42.6667 13.3337Z" fill="#18202A"/>
</svg>
