<svg width="64" height="64" viewBox="0 0 64 64" fill="none" xmlns="http://www.w3.org/2000/svg">
<path fill-rule="evenodd" clip-rule="evenodd" d="M6.1017 3.25586C5.3159 2.47005 4.04185 2.47005 3.25604 3.25586C2.47024 4.04167 2.47024 5.31571 3.25604 6.10152L10.6667 13.5122V58.6665C10.6667 60.864 13.1754 62.1183 14.9334 60.7998L28.8 50.3998C30.6963 48.9776 33.3037 48.9776 35.2 50.3998L49.0667 60.7998C50.8247 62.1183 53.3334 60.864 53.3334 58.6665V56.1788L57.8983 60.7438C58.6842 61.5296 59.9582 61.5296 60.744 60.7438C61.5298 59.958 61.5298 58.684 60.744 57.8982L6.1017 3.25586ZM49.3334 52.1788L17.1544 19.9998H14.6667V55.9998L26.4 47.1998C29.7185 44.7109 34.2815 44.7109 37.6 47.1998L49.3334 55.9998V52.1788ZM49.3334 15.9998H24.4987L28.4987 19.9998H49.3334V40.8345L53.3334 44.8345V13.3332C53.3334 7.44213 48.5577 2.6665 42.6667 2.6665H21.3334C18.5147 2.6665 15.9514 3.75979 14.0443 5.54545L16.8752 8.37634C18.0563 7.31339 19.6193 6.6665 21.3334 6.6665H42.6667C46.3486 6.6665 49.3334 9.65127 49.3334 13.3332V15.9998Z" fill="#18202A"/>
</svg>
