<svg width="64" height="64" viewBox="0 0 64 64" fill="none" xmlns="http://www.w3.org/2000/svg">
<path fill-rule="evenodd" clip-rule="evenodd" d="M10.6667 2.6665C9.56212 2.6665 8.66669 3.56193 8.66669 4.6665C8.66669 5.77107 9.56212 6.6665 10.6667 6.6665H13.3334V11.0475C13.3334 19.3664 18.2918 26.4722 25.2814 29.2981C26.0928 29.6261 26.6667 30.3893 26.6667 31.2646V32.735C26.6667 33.6102 26.0928 34.3734 25.2814 34.7015C18.2918 37.5274 13.3334 44.6331 13.3334 52.9521V57.3332H10.6667C9.56212 57.3332 8.66669 58.2286 8.66669 59.3332C8.66669 60.4377 9.56212 61.3332 10.6667 61.3332H53.3334C54.4379 61.3332 55.3334 60.4377 55.3334 59.3332C55.3334 58.2286 54.4379 57.3332 53.3334 57.3332H50.6667L50.6667 52.9521C50.6667 44.6331 45.7083 37.5274 38.7187 34.7015C37.9072 34.3734 37.3334 33.6102 37.3334 32.735V31.2646C37.3334 30.3893 37.9072 29.6261 38.7187 29.2981C45.7083 26.4722 50.6667 19.3664 50.6667 11.0475L50.6667 6.6665H53.3334C54.4379 6.6665 55.3334 5.77107 55.3334 4.6665C55.3334 3.56193 54.4379 2.6665 53.3334 2.6665H10.6667ZM26.7807 25.5897C21.3335 23.3874 17.3334 17.77 17.3334 11.0475V6.6665H46.6667L46.6667 11.0484C46.6663 17.7706 42.6663 23.3875 37.2194 25.5897C35.0745 26.4568 33.3334 28.5753 33.3334 31.2646V32.735C33.3334 35.4243 35.0745 37.5427 37.2194 38.4099C42.6663 40.612 46.6663 46.23 46.6667 52.9521L46.6667 57.3332H17.3334V52.9521C17.3334 46.2295 21.3335 40.6121 26.7807 38.4099C28.9255 37.5427 30.6667 35.4243 30.6667 32.735V31.2646C30.6667 28.5753 28.9255 26.4568 26.7807 25.5897Z" fill="#18202A"/>
</svg>
