<svg width="64" height="64" viewBox="0 0 64 64" fill="none" xmlns="http://www.w3.org/2000/svg">
<path d="M42.7475 34.7479C43.5286 33.9668 43.5286 32.7005 42.7475 31.9194C41.9665 31.1384 40.7002 31.1384 39.9191 31.9194L28 43.8386L24.0809 39.9194C23.2998 39.1384 22.0335 39.1384 21.2525 39.9194C20.4714 40.7005 20.4714 41.9668 21.2525 42.7479L26.5858 48.0812C27.3668 48.8623 28.6332 48.8623 29.4142 48.0812L42.7475 34.7479Z" fill="#18202A"/>
<path fill-rule="evenodd" clip-rule="evenodd" d="M45.3468 16.0003C44.3855 16.0003 43.5698 15.3266 43.2301 14.4273C41.517 9.89215 37.1354 6.66699 32.0005 6.66699C25.3731 6.66699 20.0005 12.0396 20.0005 18.667V21.3337H48.0005C53.8916 21.3337 58.6672 26.1093 58.6672 32.0003V50.667C58.6672 56.558 53.8916 61.3337 48.0005 61.3337H16.0005C10.1095 61.3337 5.33386 56.558 5.33386 50.667V32.0003C5.33386 26.1093 10.1095 21.3337 16.0005 21.3337V18.667C16.0005 9.83044 23.164 2.66699 32.0005 2.66699C39.0813 2.66699 45.0878 7.26654 47.1951 13.6408C47.5947 14.8494 46.6197 16.0003 45.3468 16.0003ZM16.0005 25.3337C12.3186 25.3337 9.33386 28.3184 9.33386 32.0003V50.667C9.33386 54.3489 12.3186 57.3337 16.0005 57.3337H48.0005C51.6824 57.3337 54.6672 54.3489 54.6672 50.667V32.0003C54.6672 28.3184 51.6824 25.3337 48.0005 25.3337H16.0005Z" fill="#18202A"/>
</svg>
