<svg width="64" height="64" viewBox="0 0 64 64" fill="none" xmlns="http://www.w3.org/2000/svg">
<g clip-path="url(#clip0_2359_18226)">
<path fill-rule="evenodd" clip-rule="evenodd" d="M2.66658 16.0003C2.66658 8.63653 8.63612 2.66699 15.9999 2.66699H47.9999C55.3637 2.66699 61.3332 8.63653 61.3332 16.0003V35.346C58.3097 33.237 54.6326 32.0002 50.6667 32.0002C40.3574 32.0002 32 40.3576 32 50.6669C32 54.6329 33.2369 58.3101 35.346 61.3337H15.9999C8.63612 61.3337 2.66658 55.3641 2.66658 48.0003V16.0003ZM18.6666 8.00033V13.3337H13.3332V8.00033H18.6666ZM27.7328 23.0521C26.09 22.0571 23.9999 23.2516 23.9999 25.1855V38.7886C23.9999 40.7224 26.09 41.9169 27.7328 40.922L38.9633 34.1204C40.5588 33.1541 40.5588 30.82 38.9632 29.8536L27.7328 23.0521ZM13.3332 50.667V56.0003H18.6666V50.667H13.3332ZM23.9999 8.00033H29.3332V13.3337H23.9999V8.00033ZM29.3332 50.667H23.9999V56.0003H29.3332V50.667ZM34.6666 8.00033H39.9999V13.3337H34.6666V8.00033ZM50.6666 8.00033V13.3337H45.3332V8.00033H50.6666Z" fill="#18202A"/>
<path fill-rule="evenodd" clip-rule="evenodd" d="M50.6669 64.0003C58.0307 64.0003 64.0002 58.0308 64.0002 50.667C64.0002 43.3032 58.0307 37.3337 50.6669 37.3337C43.3031 37.3337 37.3336 43.3032 37.3336 50.667C37.3336 58.0308 43.3031 64.0003 50.6669 64.0003ZM48.0005 45.3335C48.0005 43.8608 49.1944 42.6669 50.6672 42.6669C52.1399 42.6669 53.3338 43.8608 53.3338 45.3335V48.0001H56.0004C57.4731 48.0001 58.667 49.194 58.667 50.6668C58.667 52.1395 57.4731 53.3334 56.0004 53.3334H53.3338V56.0002C53.3338 57.473 52.1399 58.6669 50.6672 58.6669C49.1944 58.6669 48.0005 57.473 48.0005 56.0002V53.3334H45.3337C43.8609 53.3334 42.667 52.1395 42.667 50.6668C42.667 49.194 43.8609 48.0001 45.3337 48.0001H48.0005V45.3335Z" fill="#18202A"/>
</g>
<defs>
<clipPath id="clip0_2359_18226">
<rect width="64" height="64" fill="white"/>
</clipPath>
</defs>
</svg>
