<svg width="64" height="64" viewBox="0 0 64 64" fill="none" xmlns="http://www.w3.org/2000/svg">
<path fill-rule="evenodd" clip-rule="evenodd" d="M32 57.3333C45.9912 57.3333 57.3334 45.9912 57.3334 32C57.3334 18.0087 45.9912 6.66663 32 6.66663C18.0088 6.66663 6.66669 18.0087 6.66669 32C6.66669 45.9912 18.0088 57.3333 32 57.3333ZM32 61.3333C48.2004 61.3333 61.3334 48.2003 61.3334 32C61.3334 15.7996 48.2004 2.66663 32 2.66663C15.7997 2.66663 2.66669 15.7996 2.66669 32C2.66669 48.2003 15.7997 61.3333 32 61.3333Z" fill="#18202A"/>
<path fill-rule="evenodd" clip-rule="evenodd" d="M44.046 22.5517C44.8459 23.3135 44.8767 24.5794 44.115 25.3793L28.8769 41.3793C28.4868 41.7888 27.9416 42.0141 27.3762 41.9993C26.8108 41.9845 26.2782 41.731 25.9101 41.3015L19.8148 34.1904C19.096 33.3518 19.1931 32.0892 20.0318 31.3703C20.8704 30.6515 22.133 30.7486 22.8519 31.5873L27.5067 37.0179L41.2184 22.6207C41.9802 21.8208 43.2461 21.7899 44.046 22.5517Z" fill="#18202A"/>
</svg>
