<svg width="64" height="64" viewBox="0 0 64 64" fill="none" xmlns="http://www.w3.org/2000/svg">
<g clip-path="url(#clip0_3240_8915)">
<path d="M5.9791 42.9154C6.23877 43.8845 6.59877 44.7999 7.04493 45.6535L11.1376 41.5608L11.1307 41.5351L5.60924 20.9287C4.4657 16.6609 6.99836 12.2742 11.2661 11.1307L31.8725 5.60924C36.0779 4.48241 40.3988 6.92513 41.6183 11.0801L45.685 7.01336C42.8232 1.6881 36.5849 -1.17492 30.4921 0.457631L9.88572 5.9791C2.77284 7.88499 -1.44826 15.1962 0.457631 22.309L5.9791 42.9154Z" fill="#18202A"/>
<path fill-rule="evenodd" clip-rule="evenodd" d="M14.8746 52.9L7.40456 60.37C6.22471 61.5499 4.42328 61.6614 3.38096 60.619C2.33863 59.5767 2.45012 57.7753 3.62997 56.5954L56.5954 3.62996C57.7753 2.45011 59.5767 2.33863 60.619 3.38096C61.6614 4.42328 61.5499 6.22471 60.37 7.40456L51.6415 16.1331L51.8477 16.1511C59.1834 16.7929 64.61 23.26 63.9682 30.5958L62.1089 51.8479C61.4671 59.1837 55 64.6102 47.6642 63.9684L26.4121 62.1091C20.9006 61.6269 16.4668 57.8565 14.8746 52.9ZM19.6008 48.1738L30.052 37.7226L36.0065 42.4444L49.6214 32.6197L57.5992 42.2004L56.9393 49.7427L48.7071 39.8564L35.8549 49.1309L29.5378 44.1215L19.9104 51.1292C19.6304 50.1982 19.5166 49.2005 19.6008 48.1738ZM37.8976 29.877C37.2557 32.0745 35.5259 33.7685 33.375 34.3996L37.8976 29.877Z" fill="#18202A"/>
<path d="M15.1791 37.5193L24.8337 27.8647C24.8368 27.7171 24.8448 27.5686 24.8579 27.4194C25.1577 23.9924 28.0002 21.3987 31.3639 21.3346L37.7782 14.9202L30.5955 14.2918C23.2597 13.65 16.7927 19.0765 16.1509 26.4123L15.1791 37.5193Z" fill="#18202A"/>
</g>
<defs>
<clipPath id="clip0_3240_8915">
<rect width="64" height="64" fill="white"/>
</clipPath>
</defs>
</svg>
