<svg width="64" height="64" viewBox="0 0 64 64" fill="none" xmlns="http://www.w3.org/2000/svg">
<path fill-rule="evenodd" clip-rule="evenodd" d="M23.4477 9.33327C25.1276 7.65336 28 8.84315 28 11.2189V20.0154C35.2352 20.1848 42.9911 21.7777 49.0812 26.4777C55.6124 31.518 60 39.9517 60 53.3333C60 53.935 59.597 54.4621 59.0163 54.6199C58.4357 54.7777 57.8213 54.5271 57.5167 54.0082C53.9345 47.9052 51.0902 44.1893 46.8365 41.9083C42.7412 39.7123 37.1674 38.7549 28 38.6725V47.4477C28 49.8234 25.1276 51.0132 23.4477 49.3333L5.3333 31.2189C4.29189 30.1775 4.2919 28.489 5.3333 27.4477L23.4477 9.33327Z" fill="#18202A"/>
</svg>
