<svg width="64" height="64" viewBox="0 0 64 64" fill="none" xmlns="http://www.w3.org/2000/svg">
<path d="M10.6667 5.33337C7.72119 5.33337 5.33337 7.72119 5.33337 10.6667V13.3334C5.33337 16.2789 7.72119 18.6667 10.6667 18.6667H53.3334C56.2789 18.6667 58.6667 16.2789 58.6667 13.3334V10.6667C58.6667 7.72119 56.2789 5.33337 53.3334 5.33337H10.6667Z" fill="#18202A"/>
<path fill-rule="evenodd" clip-rule="evenodd" d="M8.00004 26.6667C8.00004 25.1939 9.19395 24 10.6667 24H53.3334C54.8061 24 56 25.1939 56 26.6667V50.6667C56 56.5577 51.2244 61.3334 45.3334 61.3334H18.6667C12.7757 61.3334 8.00004 56.5577 8.00004 50.6667V26.6667ZM21.3334 32C21.3334 30.5273 22.5273 29.3334 24 29.3334H40C41.4728 29.3334 42.6667 30.5273 42.6667 32C42.6667 33.4728 41.4728 34.6667 40 34.6667H24C22.5273 34.6667 21.3334 33.4728 21.3334 32Z" fill="#18202A"/>
</svg>
