<svg width="64" height="64" viewBox="0 0 64 64" fill="none" xmlns="http://www.w3.org/2000/svg">
<path d="M34 12.6667C32.8955 12.6667 32 11.7713 32 10.6667C32 9.56218 32.8955 8.66675 34 8.66675H53.3334C54.4379 8.66675 55.3334 9.56218 55.3334 10.6667V30.0001C55.3334 31.1047 54.4379 32.0001 53.3334 32.0001C52.2288 32.0001 51.3334 31.1047 51.3334 30.0001V15.4952L38.7476 28.081C37.9665 28.862 36.7002 28.862 35.9191 28.081C35.1381 27.2999 35.1381 26.0336 35.9191 25.2525L48.5049 12.6667H34Z" fill="#18202A"/>
<path d="M32 53.3334C32 54.438 31.1046 55.3334 30 55.3334H10.6667C9.56212 55.3334 8.66669 54.438 8.66669 53.3334V34.0001C8.66669 32.8955 9.56212 32.0001 10.6667 32.0001C11.7713 32.0001 12.6667 32.8955 12.6667 34.0001L12.6667 48.505L25.2525 35.9192C26.0335 35.1382 27.2999 35.1382 28.0809 35.9192C28.862 36.7003 28.862 37.9666 28.0809 38.7476L15.4951 51.3334H30C31.1046 51.3334 32 52.2288 32 53.3334Z" fill="#18202A"/>
</svg>
