<svg width="64" height="64" viewBox="0 0 64 64" fill="none" xmlns="http://www.w3.org/2000/svg">
<g clip-path="url(#clip0_2359_18315)">
<path d="M56.542 44.0437L56.166 44.4016C55.1309 45.3122 53.8429 45.8698 52.4747 45.9969C50.9353 46.1399 49.3955 45.7286 48.1327 44.8371C47.657 44.4698 47.1287 44.0995 46.6075 43.7714C45.5582 43.1101 44.4655 42.5187 43.337 42.0014C42.4741 41.5989 41.7843 40.885 41.4081 40.0006C41.032 39.1164 40.9963 38.1243 41.3078 37.2152L41.6096 35.7644L41.8444 34.5903L40.6929 34.262L39.6025 33.9712C37.0481 33.3367 34.425 33.0106 31.7897 33.001C28.7689 33.012 25.7734 33.4363 22.8771 34.2619L21.5611 34.637L22.4275 37.1608L22.5397 37.5547C22.7216 38.3504 22.6493 39.1876 22.3269 39.9455C21.9507 40.8299 21.261 41.5438 20.3903 41.95C19.2692 42.4553 18.1714 43.0494 17.1204 43.7208L16.4816 44.1137L16.0163 44.4275C15.8066 44.5806 15.6224 44.7353 15.4515 44.9062C14.3945 45.617 12.9016 46.0206 11.4041 45.9006C9.90611 45.7807 8.4962 45.1446 7.41526 44.1011L1.92578 38.6116L1.5502 38.2064C1.07366 37.6471 0.696084 37.0127 0.432439 36.3272C0.102974 35.4704 -0.0410218 34.5533 0.0100503 33.6367C0.101823 32.047 0.776926 30.5443 1.90625 29.4183L2.605 28.7196L3.50157 28.0386C11.6404 22.0095 21.6425 18.6853 31.9336 18.6666C42.6059 18.6472 52.9803 22.1839 61.4183 28.718C62.1723 29.2892 62.7854 30.0055 63.2267 30.8266C63.668 31.6476 63.9273 32.5541 63.9868 33.4844C64.0463 34.4146 63.9046 35.3468 63.5715 36.2174C63.2384 37.088 62.7216 37.8766 62.0563 38.5295L56.542 44.0437Z" fill="#18202A"/>
</g>
<defs>
<clipPath id="clip0_2359_18315">
<rect width="64" height="64" fill="white"/>
</clipPath>
</defs>
</svg>
