<svg width="64" height="64" viewBox="0 0 64 64" fill="none" xmlns="http://www.w3.org/2000/svg">
<path fill-rule="evenodd" clip-rule="evenodd" d="M50.6667 12H13.3334C9.65146 12 6.66669 14.9848 6.66669 18.6667V50.6667C6.66669 54.3486 9.65146 57.3333 13.3334 57.3333H50.6667C54.3486 57.3333 57.3334 54.3486 57.3334 50.6667V18.6667C57.3334 14.9848 54.3486 12 50.6667 12ZM13.3334 7.99999C7.44232 7.99999 2.66669 12.7756 2.66669 18.6667V50.6667C2.66669 56.5577 7.44232 61.3333 13.3334 61.3333H50.6667C56.5577 61.3333 61.3334 56.5577 61.3334 50.6667V18.6667C61.3334 12.7756 56.5577 7.99999 50.6667 7.99999H13.3334Z" fill="#18202A"/>
<path d="M16 4.66666C16 3.56209 16.8955 2.66666 18 2.66666C19.1046 2.66666 20 3.56209 20 4.66666V16.6667C20 17.7712 19.1046 18.6667 18 18.6667C16.8955 18.6667 16 17.7712 16 16.6667V4.66666Z" fill="#18202A"/>
<path d="M44 4.66666C44 3.56209 44.8955 2.66666 46 2.66666C47.1046 2.66666 48 3.56209 48 4.66666V16.6667C48 17.7712 47.1046 18.6667 46 18.6667C44.8955 18.6667 44 17.7712 44 16.6667V4.66666Z" fill="#18202A"/>
<path d="M13.3334 26C13.3334 24.8954 14.2288 24 15.3334 24H48.6667C49.7713 24 50.6667 24.8954 50.6667 26C50.6667 27.1046 49.7713 28 48.6667 28H15.3334C14.2288 28 13.3334 27.1046 13.3334 26Z" fill="#18202A"/>
<path d="M13.3334 37.3333C13.3334 35.8606 14.5273 34.6667 16 34.6667C17.4728 34.6667 18.6667 35.8606 18.6667 37.3333C18.6667 38.8061 17.4728 40 16 40C14.5273 40 13.3334 38.8061 13.3334 37.3333Z" fill="#18202A"/>
<path d="M13.3334 48C13.3334 46.5272 14.5273 45.3333 16 45.3333C17.4728 45.3333 18.6667 46.5272 18.6667 48C18.6667 49.4728 17.4728 50.6667 16 50.6667C14.5273 50.6667 13.3334 49.4728 13.3334 48Z" fill="#18202A"/>
<path d="M24 37.3333C24 35.8606 25.1939 34.6667 26.6667 34.6667C28.1394 34.6667 29.3334 35.8606 29.3334 37.3333C29.3334 38.8061 28.1394 40 26.6667 40C25.1939 40 24 38.8061 24 37.3333Z" fill="#18202A"/>
<path d="M24 48C24 46.5272 25.1939 45.3333 26.6667 45.3333C28.1394 45.3333 29.3334 46.5272 29.3334 48C29.3334 49.4728 28.1394 50.6667 26.6667 50.6667C25.1939 50.6667 24 49.4728 24 48Z" fill="#18202A"/>
<path d="M34.6667 37.3333C34.6667 35.8606 35.8606 34.6667 37.3334 34.6667C38.8061 34.6667 40 35.8606 40 37.3333C40 38.8061 38.8061 40 37.3334 40C35.8606 40 34.6667 38.8061 34.6667 37.3333Z" fill="#18202A"/>
<path d="M34.6667 48C34.6667 46.5272 35.8606 45.3333 37.3334 45.3333C38.8061 45.3333 40 46.5272 40 48C40 49.4728 38.8061 50.6667 37.3334 50.6667C35.8606 50.6667 34.6667 49.4728 34.6667 48Z" fill="#18202A"/>
<path d="M45.3334 37.3333C45.3334 35.8606 46.5273 34.6667 48 34.6667C49.4728 34.6667 50.6667 35.8606 50.6667 37.3333C50.6667 38.8061 49.4728 40 48 40C46.5273 40 45.3334 38.8061 45.3334 37.3333Z" fill="#18202A"/>
<path d="M45.3334 48C45.3334 46.5272 46.5273 45.3333 48 45.3333C49.4728 45.3333 50.6667 46.5272 50.6667 48C50.6667 49.4728 49.4728 50.6667 48 50.6667C46.5273 50.6667 45.3334 49.4728 45.3334 48Z" fill="#18202A"/>
</svg>
