<svg width="64" height="64" viewBox="0 0 64 64" fill="none" xmlns="http://www.w3.org/2000/svg">
<path d="M10.6667 13.3334C10.6667 11.8607 9.4728 10.6667 8.00004 10.6667C6.52728 10.6667 5.33337 11.8607 5.33337 13.3334V50.6667C5.33337 52.1395 6.52728 53.3334 8.00004 53.3334C9.4728 53.3334 10.6667 52.1395 10.6667 50.6667V34.6667L32 34.6667V50.6667C32 52.1395 33.1939 53.3334 34.6667 53.3334C36.1395 53.3334 37.3334 52.1395 37.3334 50.6667V13.3334C37.3334 11.8607 36.1395 10.6667 34.6667 10.6667C33.1939 10.6667 32 11.8607 32 13.3334V29.3334L10.6667 29.3334V13.3334Z" fill="#18202A"/>
<path d="M58.6667 29.3334C58.6667 28.35 58.1254 27.4463 57.2583 26.9823C56.3912 26.5182 55.3391 26.5691 54.5208 27.1146L46.5208 32.448C45.2954 33.2649 44.9643 34.9205 45.7812 36.146C46.5981 37.3714 48.2538 37.7025 49.4792 36.8856L53.3333 34.3161V50.6668C53.3333 52.1395 54.5272 53.3334 56 53.3334C57.4728 53.3334 58.6667 52.1395 58.6667 50.6668V29.3334Z" fill="#18202A"/>
</svg>
