<svg width="64" height="64" viewBox="0 0 64 64" fill="none" xmlns="http://www.w3.org/2000/svg">
<path d="M5.33333 31.9997C5.33333 29.0542 7.72114 26.6663 10.6667 26.6663H13.3333C16.2788 26.6663 18.6667 29.0542 18.6667 31.9997V53.333C18.6667 56.2785 16.2788 58.6663 13.3333 58.6663H10.6667C7.72114 58.6663 5.33333 56.2785 5.33333 53.333V31.9997Z" fill="#18202A"/>
<path d="M25.3333 10.6663C25.3333 7.72082 27.7211 5.33301 30.6667 5.33301H33.3333C36.2788 5.33301 38.6667 7.72082 38.6667 10.6663V53.333C38.6667 56.2785 36.2788 58.6663 33.3333 58.6663H30.6667C27.7211 58.6663 25.3333 56.2785 25.3333 53.333V10.6663Z" fill="#18202A"/>
<path d="M45.3333 21.333C45.3333 18.3875 47.7211 15.9997 50.6667 15.9997H53.3333C56.2788 15.9997 58.6667 18.3875 58.6667 21.333V53.333C58.6667 56.2785 56.2788 58.6663 53.3333 58.6663H50.6667C47.7211 58.6663 45.3333 56.2785 45.3333 53.333V21.333Z" fill="#18202A"/>
</svg>
