<svg width="64" height="64" viewBox="0 0 64 64" fill="none" xmlns="http://www.w3.org/2000/svg">
<path fill-rule="evenodd" clip-rule="evenodd" d="M33.2782 5.09556C32.5373 4.47986 31.4627 4.47987 30.7218 5.09556L2.02754 28.9397C1.60277 29.2927 1.54457 29.9231 1.89754 30.3479C2.25051 30.7727 2.88099 30.8309 3.30576 30.4779L7.99998 26.5771V57.6669C7.99998 58.2192 8.4477 58.6669 8.99998 58.6669L26.6667 58.6669V41.0003C26.6667 40.448 27.1144 40.0003 27.6667 40.0003H36.3333C36.8856 40.0003 37.3333 40.448 37.3333 41.0003V58.6669L55 58.6669C55.5523 58.6669 56 58.2192 56 57.6669V26.5771L60.6942 30.4779C61.119 30.8309 61.7495 30.7727 62.1024 30.3479C62.4554 29.9231 62.3972 29.2927 61.9724 28.9397L33.2782 5.09556Z" fill="#18202A"/>
</svg>
