<svg width="64" height="64" viewBox="0 0 64 64" fill="none" xmlns="http://www.w3.org/2000/svg">
<path fill-rule="evenodd" clip-rule="evenodd" d="M52.5523 11.4478C53.5937 12.4892 53.5937 14.1776 52.5523 15.219L15.219 52.5524C14.1776 53.5938 12.4891 53.5938 11.4477 52.5524C10.4063 51.511 10.4063 49.8225 11.4477 48.7811L48.7811 11.4478C49.8225 10.4064 51.5109 10.4064 52.5523 11.4478Z" fill="#18202A"/>
<path fill-rule="evenodd" clip-rule="evenodd" d="M11.4477 11.4478C12.4891 10.4064 14.1776 10.4064 15.219 11.4478L52.5523 48.7811C53.5937 49.8225 53.5937 51.511 52.5523 52.5524C51.5109 53.5938 49.8225 53.5938 48.7811 52.5524L11.4477 15.219C10.4063 14.1776 10.4063 12.4892 11.4477 11.4478Z" fill="#18202A"/>
</svg>
