<svg width="64" height="64" viewBox="0 0 64 64" fill="none" xmlns="http://www.w3.org/2000/svg">
<g clip-path="url(#clip0_2359_18362)">
<path fill-rule="evenodd" clip-rule="evenodd" d="M32 64C49.6731 64 64 49.6731 64 32C64 14.3269 49.6731 0 32 0C14.3269 0 0 14.3269 0 32C0 49.6731 14.3269 64 32 64ZM32 32C35.5556 32 37.3333 28.6667 37.3333 24.5C37.3333 21.1667 35.5556 18.6667 32 18.6667C28.4444 18.6667 26.6667 21.1667 26.6667 24.5C26.6667 28.6667 28.4444 32 32 32ZM17.3333 32C20 32 21.3333 29.3333 21.3333 26C21.3333 23.3333 20 21.3333 17.3333 21.3333C14.6667 21.3333 13.3333 23.3333 13.3333 26C13.3333 29.3333 14.6667 32 17.3333 32ZM46.6667 32C49.3333 32 50.6667 29.3333 50.6667 26C50.6667 23.3333 49.3333 21.3333 46.6667 21.3333C44 21.3333 42.6667 23.3333 42.6667 26C42.6667 29.3333 44 32 46.6667 32ZM21.6341 35.2472C21.8364 35.1068 22.0416 34.9704 22.2497 34.8381C21.3886 34.6912 20.5022 34.6146 19.597 34.6146C17.091 34.6146 14.7284 35.202 12.6514 36.2408C10.8883 37.1227 10.1469 39.1892 10.7354 41.0706C10.8497 41.436 10.9714 41.7982 11.1003 42.1573C11.6617 43.7211 13.0566 44.8242 14.7022 45.0528C16.0979 45.2466 17.5212 45.3588 18.9667 45.3841C18.8756 45.1315 18.7876 44.8774 18.7028 44.6219C17.6142 41.3416 18.5055 37.4182 21.6341 35.2472ZM45.2981 44.6218C45.2143 44.8744 45.1274 45.1256 45.0374 45.3752C46.5203 45.3333 47.9791 45.1999 49.4081 44.9807C51.033 44.7315 52.4018 43.6294 52.9527 42.0806C53.0464 41.8171 53.1362 41.5519 53.2221 41.2851C53.8143 39.4445 53.1319 37.4095 51.4337 36.4851C49.2466 35.2946 46.7164 34.6146 44.0202 34.6146C43.2219 34.6146 42.4381 34.6742 41.6735 34.789C41.9082 34.9366 42.1393 35.0894 42.3667 35.2472C45.4953 37.4183 46.3866 41.3415 45.2981 44.6218ZM41.577 46.788C40.713 48.654 38.9704 49.9589 36.9401 50.285C35.3308 50.5434 33.6809 50.6777 32.0003 50.6777C30.3198 50.6777 28.67 50.5435 27.0608 50.285C25.0305 49.959 23.2879 48.6541 22.4239 46.7881C21.9734 45.815 21.5754 44.8117 21.2337 43.782C20.4608 41.4528 21.1382 38.8371 23.1544 37.438C25.6747 35.6891 28.7202 34.6667 32.0003 34.6667C35.2805 34.6667 38.3261 35.6891 40.8464 37.4381C42.8625 38.8371 43.5399 41.4528 42.7671 43.7819C42.4254 44.8116 42.0275 45.8149 41.577 46.788Z" fill="#18202A"/>
</g>
<defs>
<clipPath id="clip0_2359_18362">
<rect width="64" height="64" fill="white"/>
</clipPath>
</defs>
</svg>
