<svg width="64" height="64" viewBox="0 0 64 64" fill="none" xmlns="http://www.w3.org/2000/svg">
<g clip-path="url(#clip0_3289_16699)">
<g clip-path="url(#clip1_3289_16699)">
<path d="M25.3126 21.052C24.4272 21.6422 24.0001 22.3676 24.0001 23.3332C24.0001 24.8059 22.8062 25.9998 21.3334 25.9998C19.8606 25.9998 18.6667 24.8059 18.6667 23.3332C18.6667 20.2988 20.2396 18.0241 22.3542 16.6144C24.3898 15.2573 26.9378 14.6665 29.3334 14.6665C35.3182 14.6665 40.0001 19.0437 40.0001 24.6665C40.0001 27.6165 38.231 30.4494 36.7414 32.4252C35.5198 34.0454 34.1186 35.5415 33.2387 36.4809C32.9984 36.7374 32.797 36.9524 32.6488 37.1171C31.6586 38.2173 29.4883 40.5444 27.4997 42.6665H37.3334C38.8062 42.6665 40.0001 43.8604 40.0001 45.3332C40.0001 46.8059 38.8062 47.9998 37.3334 47.9998H21.3334C20.269 47.9998 19.3066 47.3669 18.8849 46.3896C18.4632 45.4123 18.6631 44.2779 19.3934 43.5035L20.5625 42.2623C21.2772 41.5029 22.2511 40.4669 23.2887 39.3604C25.3735 37.1367 27.6855 34.6593 28.6847 33.5492C28.9205 33.2872 29.1906 32.9984 29.4846 32.6841C30.3636 31.7443 31.4561 30.5763 32.4828 29.2144C33.9185 27.3102 34.6667 25.7165 34.6667 24.6665C34.6667 22.2893 32.6819 19.9998 29.3334 19.9998C27.729 19.9998 26.277 20.409 25.3126 21.052Z" fill="#18202A"/>
<path d="M11.7978 14.9183C12.7348 15.3572 13.3334 16.2985 13.3334 17.3332V45.3332C13.3334 46.806 12.1395 47.9999 10.6667 47.9999C9.19398 47.9999 8.00007 46.806 8.00007 45.3332V23.0266L4.37389 26.0485C3.24249 26.9913 1.56098 26.8384 0.618144 25.707C-0.324694 24.5756 -0.17183 22.8941 0.959575 21.9513L8.95958 15.2846C9.75447 14.6222 10.8608 14.4794 11.7978 14.9183Z" fill="#18202A"/>
<path d="M49.3125 21.052C48.4271 21.6422 48 22.3676 48 23.3332C48 24.8059 46.8061 25.9998 45.3333 25.9998C43.8606 25.9998 42.6667 24.8059 42.6667 23.3332C42.6667 20.2988 44.2395 18.0241 46.3541 16.6144C48.3897 15.2573 50.9378 14.6665 53.3333 14.6665C56.1572 14.6665 58.7942 15.4738 60.7786 17.108C62.8043 18.7763 64 21.1952 64 23.9998C64 27.2098 62.6895 29.6721 60.6455 31.3333C62.6895 32.9944 64 35.4567 64 38.6666C64 40.8551 63.3864 42.6755 62.3161 44.1132C61.2683 45.5208 59.9058 46.398 58.6466 46.9455C56.2195 48.0008 53.7724 48.0001 53.3455 48H53.3333C51.3872 48 48.8742 47.6225 46.7472 46.391C44.4752 45.0756 42.6667 42.7642 42.6667 39.3332C42.6667 37.8604 43.8606 36.6665 45.3333 36.6665C46.8061 36.6665 48 37.8604 48 39.3332C48 40.5688 48.5248 41.2575 49.4195 41.7755C50.4592 42.3774 51.9461 42.6666 53.3333 42.6666C53.6098 42.6666 55.1381 42.6553 56.5201 42.0545C57.1776 41.7686 57.6901 41.3959 58.0381 40.9284C58.3636 40.4912 58.6667 39.8116 58.6667 38.6666C58.6667 36.9203 57.9698 35.907 56.9375 35.2188C55.7705 34.4408 54.0133 34 52 34C50.5272 34 49.3333 32.8061 49.3333 31.3333C49.3333 29.8606 50.5272 28.6666 52 28.6666C54.0133 28.6666 55.7705 28.2258 56.9374 27.4478C57.9698 26.7595 58.6667 25.7462 58.6667 23.9998C58.6667 22.8045 58.1957 21.8901 57.3881 21.225C56.5391 20.5258 55.1761 19.9998 53.3333 19.9998C51.7289 19.9998 50.277 20.409 49.3125 21.052Z" fill="#18202A"/>
</g>
</g>
<defs>
<clipPath id="clip0_3289_16699">
<rect width="64" height="64" fill="white"/>
</clipPath>
<clipPath id="clip1_3289_16699">
<rect width="64" height="64" fill="white"/>
</clipPath>
</defs>
</svg>
