<svg width="64" height="64" viewBox="0 0 64 64" fill="none" xmlns="http://www.w3.org/2000/svg">
<path fill-rule="evenodd" clip-rule="evenodd" d="M32 8C30.5272 8 29.3333 9.19391 29.3333 10.6667C29.3333 12.1394 30.5272 13.3333 32 13.3333H46.8954L34.1144 26.1144C33.073 27.1558 33.073 28.8442 34.1144 29.8856C35.1558 30.927 36.8442 30.927 37.8856 29.8856L50.6667 17.1046V32C50.6667 33.4728 51.8606 34.6667 53.3333 34.6667C54.8061 34.6667 56 33.4728 56 32V10.6667C56 9.19391 54.8061 8 53.3333 8L32 8ZM32 56C33.4728 56 34.6667 54.8061 34.6667 53.3333C34.6667 51.8606 33.4728 50.6667 32 50.6667H17.1046L29.8856 37.8856C30.927 36.8442 30.927 35.1558 29.8856 34.1144C28.8442 33.073 27.1558 33.073 26.1144 34.1144L13.3333 46.8954L13.3333 32C13.3333 30.5272 12.1394 29.3333 10.6667 29.3333C9.19391 29.3333 8 30.5272 8 32V53.3333C8 54.8061 9.19391 56 10.6667 56H32Z" fill="#18202A"/>
</svg>
