<svg width="64" height="64" viewBox="0 0 64 64" fill="none" xmlns="http://www.w3.org/2000/svg">
<g clip-path="url(#clip0_2359_18267)">
<path fill-rule="evenodd" clip-rule="evenodd" d="M4.73789 0.963295C3.55804 -0.216553 1.75661 -0.328037 0.714289 0.714289C-0.328037 1.75661 -0.216553 3.55804 0.963295 4.73789L4.14227 7.91687C3.20467 9.50443 2.66667 11.3561 2.66667 13.3333V37.3333C2.66667 43.2244 7.44229 48 13.3333 48H14.7879L13.2417 55.3948C12.7667 57.6667 15.2198 59.4189 17.2148 58.2327L34.4242 48H44.2254L51.2621 55.0367C52.442 56.2166 54.2434 56.328 55.2857 55.2857C56.328 54.2434 56.2166 52.442 55.0367 51.2621L4.73789 0.963295ZM61.3333 37.3333C61.3333 40.7968 59.6826 43.8748 57.125 45.8234L13.9683 2.66667H50.6667C56.5577 2.66667 61.3333 7.4423 61.3333 13.3333V37.3333Z" fill="#18202A"/>
</g>
<defs>
<clipPath id="clip0_2359_18267">
<rect width="64" height="64" fill="white"/>
</clipPath>
</defs>
</svg>
