<svg width="64" height="64" viewBox="0 0 64 64" fill="none" xmlns="http://www.w3.org/2000/svg">
<path fill-rule="evenodd" clip-rule="evenodd" d="M52.0002 28.6667C52.0002 27.5622 52.8956 26.6667 54.0002 26.6667C55.1048 26.6667 56.0002 27.5622 56.0002 28.6667V50.6667C56.0002 56.5578 51.2245 61.3334 45.3335 61.3334H18.6668C12.7758 61.3334 8.00018 56.5578 8.00018 50.6667V13.3334C8.00018 7.44238 12.7758 2.66675 18.6669 2.66675H43.3335C44.4381 2.66675 45.3335 3.56218 45.3335 4.66675C45.3335 5.77132 44.4381 6.66675 43.3335 6.66675L18.6669 6.66675C14.985 6.66675 12.0002 9.65152 12.0002 13.3334L12.0002 50.6667C12.0002 54.3486 14.985 57.3334 18.6668 57.3334H45.3335C49.0154 57.3334 52.0002 54.3486 52.0002 50.6667V28.6667ZM20.1667 34.6667C19.3383 34.6667 18.6667 35.3383 18.6667 36.1667V37.1667C18.6667 37.9952 19.3383 38.6667 20.1667 38.6667H33.1667C33.9951 38.6667 34.6667 37.9952 34.6667 37.1667V36.1667C34.6667 35.3383 33.9951 34.6667 33.1667 34.6667H20.1667ZM18.6667 46.8334C18.6667 46.005 19.3383 45.3334 20.1667 45.3334H43.8334C44.6618 45.3334 45.3334 46.005 45.3334 46.8334V47.8334C45.3334 48.6618 44.6618 49.3334 43.8334 49.3334H20.1667C19.3383 49.3334 18.6667 48.6618 18.6667 47.8334V46.8334ZM57.4143 12.081C58.1953 11.2999 58.1953 10.0336 57.4143 9.25253C56.6332 8.47149 55.3669 8.47149 54.5858 9.25254L39.9859 23.8525L33.7809 17.7717C32.992 16.9985 31.7257 17.0113 30.9526 17.8002C30.1795 18.5891 30.1923 19.8554 30.9812 20.6285L38.6002 28.0952C39.3835 28.8628 40.6388 28.8564 41.4143 28.081L57.4143 12.081Z" fill="#18202A"/>
</svg>
