<svg width="64" height="64" viewBox="0 0 64 64" fill="none" xmlns="http://www.w3.org/2000/svg">
<path d="M55.9972 15.0902C54.0094 12.2742 51.5254 9.80838 48.6391 7.82576C42.88 3.86979 35.8977 2.09743 28.9479 2.82749C21.9981 3.55756 15.537 6.74212 10.7267 11.8084C5.9164 16.8746 3.07265 23.4901 2.70692 30.4649C2.34119 37.4397 4.47748 44.316 8.73156 49.857C12.9856 55.3981 19.0783 59.2402 25.9137 60.6924C32.749 62.1445 39.8785 61.1113 46.0198 57.7787C51.3053 54.9104 55.5602 50.5009 58.2399 45.1708C58.9613 43.7359 58.1993 42.0457 56.6994 41.4702C55.2005 40.8952 53.5343 41.654 52.7759 43.0684C48.8194 50.4477 41.0297 55.4667 32.0672 55.4667C19.1001 55.4667 8.58808 44.9603 8.58808 32.0001C8.58808 19.0398 19.1001 8.53346 32.0672 8.53346C41.1914 8.53346 49.1 13.7352 52.9863 21.3334H39.9886C38.5151 21.3334 37.3205 22.5273 37.3205 24C37.3205 25.4728 38.5151 26.6667 39.9886 26.6667H58.6653C60.1388 26.6667 61.3333 25.4728 61.3333 24V5.33341C61.3333 3.86065 60.1388 2.66675 58.6653 2.66675C57.1917 2.66675 55.9972 3.86065 55.9972 5.33341V15.0902Z" fill="#18202A"/>
</svg>
