<svg width="64" height="64" viewBox="0 0 64 64" fill="none" xmlns="http://www.w3.org/2000/svg">
<g clip-path="url(#clip0_2359_20924)">
<path fill-rule="evenodd" clip-rule="evenodd" d="M13.3334 6.66699H50.6667C54.3486 6.66699 57.3334 9.65176 57.3334 13.3337V35.9915C59.0215 37.257 60.3997 38.9136 61.3334 40.8268V13.3337C61.3334 7.44262 56.5577 2.66699 50.6667 2.66699H13.3334C7.44232 2.66699 2.66669 7.44262 2.66669 13.3337V50.667C2.66669 56.558 7.44232 61.3337 13.3334 61.3337H35.119C33.9921 60.3159 33.3485 58.8369 33.3336 57.3337H13.3334C9.65146 57.3337 6.66669 54.3489 6.66669 50.667V13.3337C6.66669 9.65176 9.65146 6.66699 13.3334 6.66699ZM53.3334 33.9408V30.667C53.3334 27.7215 50.9455 25.3337 48 25.3337H16C13.0545 25.3337 10.6667 27.7215 10.6667 30.667V48.0003C10.6667 50.9458 13.0545 53.3337 16 53.3337H35.1468C35.252 53.2422 35.362 53.1532 35.477 53.067C35.8128 52.8152 36.0104 52.42 36.0104 52.0003V49.3337H16C15.2636 49.3337 14.6667 48.7367 14.6667 48.0003V30.667C14.6667 29.9306 15.2636 29.3337 16 29.3337H48C48.7364 29.3337 49.3334 29.9306 49.3334 30.667V33.3337C49.3368 33.3337 49.3403 33.3337 49.3438 33.3337C50.7335 33.3337 52.0737 33.5463 53.3334 33.9408ZM16 10.667C13.0545 10.667 10.6667 13.0548 10.6667 16.0003C10.6667 18.9458 13.0545 21.3337 16 21.3337C18.9455 21.3337 21.3334 18.9458 21.3334 16.0003C21.3334 13.0548 18.9455 10.667 16 10.667ZM26.6667 16.0003C26.6667 14.8958 27.5621 14.0003 28.6667 14.0003H50C51.1046 14.0003 52 14.8958 52 16.0003C52 17.1049 51.1046 18.0003 50 18.0003H28.6667C27.5621 18.0003 26.6667 17.1049 26.6667 16.0003Z" fill="#18202A"/>
<path fill-rule="evenodd" clip-rule="evenodd" d="M58.6668 46.6663L58.6667 46.705V53.6663C58.6667 54.2959 58.9631 54.8886 59.4667 55.2663L61.6 56.8663C62.3688 57.4429 61.961 58.6663 61 58.6663H37.6667C36.7057 58.6663 36.2979 57.4429 37.0667 56.8663L39.2 55.2663C39.7036 54.8886 40 54.2959 40 53.6663V46.6664C40 46.6664 40 46.6663 40 46.6663C40.0001 46.6663 40.0001 46.6663 40.0001 46.6663C40.0001 41.5117 44.1788 37.333 49.3334 37.333C54.4881 37.333 58.6668 41.5117 58.6668 46.6663ZM46.3334 61.333C45.7811 61.333 45.3334 61.7807 45.3334 62.333V62.9997C45.3334 63.552 45.7811 63.9997 46.3334 63.9997H52.3334C52.8857 63.9997 53.3334 63.552 53.3334 62.9997V62.333C53.3334 61.7807 52.8857 61.333 52.3334 61.333H46.3334Z" fill="#18202A"/>
</g>
<defs>
<clipPath id="clip0_2359_20924">
<rect width="64" height="64" fill="white"/>
</clipPath>
</defs>
</svg>
