<svg width="64" height="64" viewBox="0 0 64 64" fill="none" xmlns="http://www.w3.org/2000/svg">
<path d="M24 5.3335C25.4728 5.3335 26.6667 6.5274 26.6667 8.00016V18.6668C26.6667 23.0851 23.085 26.6668 18.6667 26.6668H8.00004C6.52728 26.6668 5.33337 25.4729 5.33337 24.0002C5.33337 22.5274 6.52728 21.3335 8.00004 21.3335H18.6667C20.1395 21.3335 21.3334 20.1396 21.3334 18.6668V8.00016C21.3334 6.5274 22.5273 5.3335 24 5.3335Z" fill="#18202A"/>
<path d="M5.33337 40.0002C5.33337 38.5274 6.52728 37.3335 8.00004 37.3335H18.6667C23.085 37.3335 26.6667 40.9152 26.6667 45.3335V56.0002C26.6667 57.4729 25.4728 58.6668 24 58.6668C22.5273 58.6668 21.3334 57.4729 21.3334 56.0002V45.3335C21.3334 43.8607 20.1395 42.6668 18.6667 42.6668H8.00004C6.52728 42.6668 5.33337 41.4729 5.33337 40.0002Z" fill="#18202A"/>
<path d="M58.6667 24.0002C58.6667 25.4729 57.4728 26.6668 56 26.6668H45.3334C40.9151 26.6668 37.3334 23.0851 37.3334 18.6668V8.00016C37.3334 6.5274 38.5273 5.3335 40 5.3335C41.4728 5.3335 42.6667 6.5274 42.6667 8.00016V18.6668C42.6667 20.1396 43.8606 21.3335 45.3334 21.3335H56C57.4728 21.3335 58.6667 22.5274 58.6667 24.0002Z" fill="#18202A"/>
<path d="M40.0001 58.6668C38.5273 58.6668 37.3334 57.4729 37.3334 56.0002V44.9232C37.3334 40.7315 40.7314 37.3335 44.9231 37.3335H56C57.4728 37.3335 58.6667 38.5274 58.6667 40.0002C58.6667 41.4729 57.4728 42.6668 56 42.6668H44.9231C43.6769 42.6668 42.6667 43.6771 42.6667 44.9232V56.0002C42.6667 57.4729 41.4728 58.6668 40.0001 58.6668Z" fill="#18202A"/>
</svg>
