<svg width="64" height="64" viewBox="0 0 64 64" fill="none" xmlns="http://www.w3.org/2000/svg">
<path fill-rule="evenodd" clip-rule="evenodd" d="M51.4701 56.3778C52.9074 54.8067 54.0472 52.9417 54.8245 50.8892C55.6017 48.8368 56.0012 46.6371 56 44.416V26.6667H55.8666C55.249 23.6237 52.5586 21.3333 49.3333 21.3333C48.4997 21.3333 47.7018 21.4863 46.9662 21.7658C45.7839 19.903 43.703 18.6667 41.3333 18.6667C40.4997 18.6667 39.7018 18.8197 38.9662 19.0992C38.0117 17.5953 36.4716 16.4997 34.6667 16.1334C34.2359 16.0459 33.79 16 33.3333 16C32.8767 16 32.4308 16.0459 32 16.1334V6.66667C32 2.98477 29.0152 0 25.3333 0C21.6514 0 18.6667 2.98477 18.6667 6.66667V26.7354C16.6549 26.9957 14.7692 27.987 13.3222 29.5677C11.6219 31.4252 10.6667 33.9445 10.6667 36.5714C10.666 41.4031 12.0481 46.1142 14.6197 50.0452L17.9442 55.1131C19.2014 57.0355 20.8602 58.6026 22.7829 59.6844C24.7056 60.7662 26.8368 61.3315 28.9995 61.3333H40.5232C42.5564 61.3333 44.5697 60.8957 46.448 60.0454C48.3263 59.1951 50.0329 57.9488 51.4701 56.3778ZM26.6667 29.3333C26.6667 30.8061 27.8606 32 29.3333 32C30.8061 32 32 30.8061 32 29.3333V21.5755L33.061 21.3601C33.1446 21.3431 33.2351 21.3333 33.3333 21.3333C33.8015 21.3333 34.218 21.5707 34.4632 21.9571L34.6667 22.2777V29.3333C34.6667 30.8061 35.8606 32 37.3333 32C38.8061 32 40 30.8061 40 29.3333V24.4116L40.8603 24.0848C41.0003 24.0316 41.1569 24 41.3333 24C41.8015 24 42.218 24.2374 42.4632 24.6237L42.6667 24.9444V29.3333C42.6667 30.8061 43.8606 32 45.3333 32C46.8061 32 48 30.8061 48 29.3333V27.0783L48.8603 26.7515C49.0003 26.6983 49.1569 26.6667 49.3333 26.6667C49.9722 26.6667 50.5168 27.1213 50.6399 27.7276L50.6667 27.8594V44.4189C50.6675 46.0017 50.3824 47.5598 49.8368 49.0004C49.2914 50.4407 48.5022 51.7207 47.5351 52.7778C46.5689 53.834 45.4474 54.644 44.2485 55.1867C43.0512 55.7287 41.7869 56 40.5232 56H29.004C27.7749 55.999 26.5405 55.6791 25.3982 55.0363C24.2525 54.3917 23.2165 53.4306 22.4077 52.194L19.0829 47.1255L19.0814 47.1232C17.0956 44.0866 15.9995 40.3969 16 36.5722C16 35.2151 16.4978 33.9973 17.2562 33.1688C17.8911 32.4753 18.6423 32.1164 19.3511 32.0247L24 31.4231V6.66667C24 5.93029 24.597 5.33333 25.3333 5.33333C26.0697 5.33333 26.6667 5.93029 26.6667 6.66667V29.3333Z" fill="#18202A"/>
</svg>
