<svg width="64" height="64" viewBox="0 0 64 64" fill="none" xmlns="http://www.w3.org/2000/svg">
<g clip-path="url(#clip0_3352_8903)">
<path d="M32 34.6667L26.6666 26.6667H21.3333L29.3333 38.6667L21.3333 50.6667H26.6666L32 42.6667L37.3333 50.6667H42.6666L34.6666 38.6667L42.6666 26.6667H37.3333L32 34.6667Z" fill="#18202A"/>
<path fill-rule="evenodd" clip-rule="evenodd" d="M5.33331 5.33333C5.33331 2.38781 7.72113 0 10.6666 0H41.7908C43.2053 0 44.5619 0.561903 45.5621 1.5621L57.1045 13.1046C58.1047 14.1048 58.6666 15.4613 58.6666 16.8758V58.6667C58.6666 61.6122 56.2788 64 53.3333 64H10.6666C7.72113 64 5.33331 61.6122 5.33331 58.6667V5.33333ZM10.6666 60C9.93027 60 9.33331 59.403 9.33331 58.6667V5.33333C9.33331 4.59695 9.93026 4 10.6666 4H40.0128L40 14.4162C40 15.5435 40.4475 16.6246 41.244 17.4217C42.0406 18.2189 43.1209 18.6667 44.2474 18.6667L54.6666 18.6534V58.6667C54.6666 59.403 54.0697 60 53.3333 60H10.6666Z" fill="#18202A"/>
</g>
<defs>
<clipPath id="clip0_3352_8903">
<rect width="64" height="64" fill="white"/>
</clipPath>
</defs>
</svg>
