<svg width="64" height="64" viewBox="0 0 64 64" fill="none" xmlns="http://www.w3.org/2000/svg">
<path fill-rule="evenodd" clip-rule="evenodd" d="M10.6667 8C4.77563 8 0 12.7756 0 18.6667V45.3333C0 51.2244 4.77563 56 10.6667 56H37.3333C43.2244 56 48 51.2244 48 45.3333V18.6667C48 12.7756 43.2244 8 37.3333 8H10.6667ZM21.2512 23.3026L30.5133 29.817C32.0239 30.8794 32.0233 33.1186 30.5122 34.1802L21.25 40.6875C19.483 41.929 17.0504 40.665 17.0504 38.5055L17.0504 25.4838C17.0504 23.3237 19.4843 22.0599 21.2512 23.3026Z" fill="#18202A"/>
<path d="M51.7752 22.1352C51.0792 22.6363 50.6667 23.4416 50.6667 24.2993V39.7007C50.6667 40.5584 51.0792 41.3637 51.7752 41.8648L59.7752 47.6248C61.5391 48.8948 64 47.6343 64 45.4607V18.5393C64 16.3657 61.5391 15.1052 59.7752 16.3752L51.7752 22.1352Z" fill="#18202A"/>
</svg>
