<svg width="64" height="64" viewBox="0 0 64 64" fill="none" xmlns="http://www.w3.org/2000/svg">
<path fill-rule="evenodd" clip-rule="evenodd" d="M6.72117 31.0387V31.1756C6.72117 39.147 9.86348 45.13 14.7074 49.0544L16.0338 50.129L16.5777 56.6555L23.3714 53.52L24.7152 53.8381C27.0112 54.3817 29.4642 54.6665 32.0272 54.6665C47.6538 54.6665 57.3333 43.5445 57.3333 31.1756C57.3333 16.3209 46.2569 6.6665 32.0272 6.6665C17.7224 6.6665 5.85202 18.3545 6.71181 30.9021L6.72117 31.0387ZM61.3333 31.1756C61.3333 45.7961 49.8203 58.6665 32.0272 58.6665C29.1687 58.6665 26.4057 58.3489 23.7937 57.7305L16.5246 61.0855C14.8439 61.8612 12.9034 60.7305 12.7497 58.8857L12.1894 52.1624C6.36855 47.4465 2.72117 40.3017 2.72117 31.1756C1.67465 15.9029 15.8419 2.6665 32.0272 2.6665C48.2125 2.6665 61.3333 13.8665 61.3333 31.1756Z" fill="#18202A"/>
</svg>
