<svg width="64" height="64" viewBox="0 0 64 64" fill="none" xmlns="http://www.w3.org/2000/svg">
<path fill-rule="evenodd" clip-rule="evenodd" d="M18.6667 2.66699H29.3333V29.3337H41.98C41.7466 29.5414 41.5179 29.7572 41.2941 29.981L29.9804 41.2947C24.536 46.739 23.8355 55.1308 27.8786 61.3337H18.6667C12.7756 61.3337 8 56.558 8 50.667V13.3337C8 7.44262 12.7756 2.66699 18.6667 2.66699ZM54.4379 22.4382C54.894 22.8943 55.2589 23.4244 55.521 24.0003H34.6667V3.14603C35.2426 3.40812 35.7727 3.77305 36.2288 4.22909L54.4379 22.4382ZM60.1503 33.7522C55.9847 29.5866 49.2309 29.5866 45.0653 33.7522L43.1797 35.6378C42.1383 36.6792 42.1383 38.3677 43.1797 39.4091C44.2211 40.4505 45.9095 40.4505 46.9509 39.4091L48.8366 37.5235C50.9193 35.4407 54.2962 35.4407 56.379 37.5235C58.4618 39.6063 58.4618 42.9831 56.379 45.0659L54.4934 46.9515C53.452 47.9929 53.452 49.6814 54.4934 50.7228C55.5348 51.7642 57.2233 51.7642 58.2646 50.7228L60.1503 48.8372C64.3159 44.6716 64.3159 37.9178 60.1503 33.7522ZM33.7516 60.1509C29.586 55.9853 29.586 49.2315 33.7516 45.0659L35.6372 43.1803C36.6786 42.1389 38.3671 42.1389 39.4085 43.1803C40.4499 44.2217 40.4499 45.9101 39.4085 46.9515L37.5228 48.8372C35.4401 50.92 35.4401 54.2968 37.5228 56.3796C39.6056 58.4624 42.9825 58.4624 45.0653 56.3796L46.9509 54.494C47.9923 53.4526 49.6808 53.4526 50.7222 54.494C51.7636 55.5354 51.7636 57.2239 50.7222 58.2653L48.8366 60.1509C44.671 64.3165 37.9172 64.3165 33.7516 60.1509ZM41.2941 52.6084C40.2527 51.567 40.2527 49.8786 41.2941 48.8372L48.8366 41.2947C49.878 40.2533 51.5664 40.2533 52.6078 41.2947C53.6492 42.3361 53.6492 44.0245 52.6078 45.0659L45.0653 52.6084C44.0239 53.6498 42.3355 53.6498 41.2941 52.6084Z" fill="#18202A"/>
</svg>
