<svg width="64" height="64" viewBox="0 0 64 64" fill="none" xmlns="http://www.w3.org/2000/svg">
<path fill-rule="evenodd" clip-rule="evenodd" d="M17.3334 23.6134C21.1887 22.466 24 18.8946 24 14.6666C24 9.51193 19.8214 5.33325 14.6667 5.33325C9.51205 5.33325 5.33337 9.51193 5.33337 14.6666C5.33337 18.8946 8.14472 22.466 12 23.6134V38.6666C12 46.0304 17.9696 51.9999 25.3334 51.9999H40.3865C41.5339 55.8552 45.1053 58.6666 49.3334 58.6666C54.488 58.6666 58.6667 54.4879 58.6667 49.3332C58.6667 44.1786 54.488 39.9999 49.3334 39.9999C45.1053 39.9999 41.5339 42.8113 40.3865 46.6666H25.3334C20.9151 46.6666 17.3334 43.0849 17.3334 38.6666V23.6134ZM14.6667 18.6666C16.8758 18.6666 18.6667 16.8757 18.6667 14.6666C18.6667 12.4574 16.8758 10.6666 14.6667 10.6666C12.4576 10.6666 10.6667 12.4574 10.6667 14.6666C10.6667 16.8757 12.4576 18.6666 14.6667 18.6666ZM49.3334 53.3332C51.5425 53.3332 53.3334 51.5424 53.3334 49.3332C53.3334 47.1241 51.5425 45.3332 49.3334 45.3332C47.1242 45.3332 45.3334 47.1241 45.3334 49.3332C45.3334 51.5424 47.1242 53.3332 49.3334 53.3332Z" fill="#18202A"/>
</svg>
