<svg width="64" height="64" viewBox="0 0 64 64" fill="none" xmlns="http://www.w3.org/2000/svg">
<path d="M16 29.3332C11.5817 29.3332 8 25.7514 8 21.3332V18.6665C8 14.2482 11.5817 10.6665 16 10.6665H18.6667C23.0477 10.6665 26.6062 14.1881 26.6659 18.5549C27.3341 27.3548 26.6898 35.1479 24.2925 40.8646C23.0768 43.7637 21.3648 46.2355 19.0413 47.9846C16.6895 49.755 13.8661 50.6666 10.6667 50.6666C9.19391 50.6666 8 49.4727 8 48C8 46.5272 9.19391 45.3333 10.6667 45.3333C12.8006 45.3333 14.4771 44.7449 15.8337 43.7237C17.2185 42.6811 18.4232 41.0696 19.3741 38.802C19.6287 38.195 19.9277 37.5464 20.0363 36.8948C20.6303 33.3305 19.9442 31.5321 19.251 30.6657C18.5617 29.804 17.4399 29.3332 16 29.3332Z" fill="#18202A"/>
<path d="M55.9992 18.5549C55.9395 14.1881 52.381 10.6665 48 10.6665H45.3333C40.9151 10.6665 37.3333 14.2482 37.3333 18.6665V21.3332C37.3333 25.7514 40.9151 29.3332 45.3333 29.3332C46.7733 29.3332 47.895 29.804 48.5844 30.6657C49.2775 31.5321 49.9637 33.3305 49.3696 36.8948C49.261 37.5464 48.9621 38.195 48.7075 38.802C47.7566 41.0696 46.5519 42.6811 45.167 43.7237C43.8105 44.7449 42.1339 45.3333 40 45.3333C38.5272 45.3333 37.3333 46.5272 37.3333 48C37.3333 49.4727 38.5272 50.6666 40 50.6666C43.1994 50.6666 46.0229 49.755 48.3747 47.9846C50.6981 46.2355 52.4101 43.7637 53.6259 40.8646C56.0232 35.1479 56.6675 27.3548 55.9992 18.5549Z" fill="#18202A"/>
</svg>
