<svg width="64" height="64" viewBox="0 0 64 64" fill="none" xmlns="http://www.w3.org/2000/svg">
<path fill-rule="evenodd" clip-rule="evenodd" d="M40 18.75C40 25 37.3333 30 32 30C26.6667 30 24 25 24 18.75C24 13.75 26.6667 10 32 10C37.3333 10 40 13.75 40 18.75ZM37 18.75C37 21.5062 36.4033 23.6842 35.492 25.0725C34.6615 26.3378 33.5651 27 32 27C30.4349 27 29.3385 26.3378 28.508 25.0725C27.5967 23.6842 27 21.5062 27 18.75C27 16.7503 27.5341 15.3239 28.2821 14.4474C28.9722 13.6386 30.092 13 32 13C33.908 13 35.0278 13.6386 35.7179 14.4474C36.4659 15.3239 37 16.7503 37 18.75ZM33.336 50.9735C33.3537 51.9939 33.4596 52.9929 33.6464 53.963C33.1007 53.9876 32.5518 54 32 54C28.9052 54 25.9016 53.6095 23.0358 52.875C20.5978 52.2502 18.5314 50.6171 17.3997 48.369C17.0642 47.7026 16.7514 47.0229 16.4622 46.3308C15.2331 43.3902 15.7229 39.9498 17.9986 37.7185C21.6063 34.1812 26.5484 32 32 32C35.9979 32 39.7217 33.173 42.8463 35.1936C41.8389 35.7038 40.8882 36.3094 40.0058 36.9985C37.6203 35.7224 34.8957 35 32 35C27.3651 35 23.1685 36.8509 20.099 39.8606C18.8113 41.1232 18.4113 43.2148 19.2301 45.174C19.4921 45.8007 19.7754 46.4164 20.0793 47.0201C20.812 48.4755 22.1619 49.5541 23.7806 49.969C26.4051 50.6416 29.1585 51 32 51C32.4476 51 32.893 50.9911 33.336 50.9735ZM64 50.6667C64 43.3029 58.0305 37.3333 50.6667 37.3333C43.3029 37.3333 37.3333 43.3029 37.3333 50.6667C37.3333 58.0305 43.3029 64 50.6667 64C58.0305 64 64 58.0305 64 50.6667ZM50.7475 58.7475C51.5286 57.9665 51.5286 56.7002 50.7475 55.9191L47.4951 52.6667L58.6667 52.6667C59.7712 52.6667 60.6667 51.7712 60.6667 50.6667C60.6667 49.5621 59.7712 48.6667 58.6667 48.6667H47.4951L50.7476 45.4142C51.5286 44.6332 51.5286 43.3668 50.7476 42.5858C49.9665 41.8047 48.7002 41.8047 47.9191 42.5858L41.2525 49.2525C40.4714 50.0335 40.4714 51.2998 41.2525 52.0809L47.9191 58.7475C48.7002 59.5286 49.9665 59.5286 50.7475 58.7475Z" fill="#18202A"/>
</svg>
