<svg width="64" height="64" viewBox="0 0 64 64" fill="none" xmlns="http://www.w3.org/2000/svg">
<path fill-rule="evenodd" clip-rule="evenodd" d="M45.3334 6.66675H18.6667C12.0393 6.66675 6.66669 12.0393 6.66669 18.6667V45.3334C6.66669 51.9608 12.0393 57.3334 18.6667 57.3334H45.3334C51.9608 57.3334 57.3334 51.9608 57.3334 45.3334V18.6667C57.3334 12.0393 51.9608 6.66675 45.3334 6.66675ZM18.6667 2.66675C9.83013 2.66675 2.66669 9.83019 2.66669 18.6667V45.3334C2.66669 54.17 9.83013 61.3334 18.6667 61.3334H45.3334C54.1699 61.3334 61.3334 54.17 61.3334 45.3334V18.6667C61.3334 9.83019 54.1699 2.66675 45.3334 2.66675H18.6667Z" fill="#18202A"/>
<path fill-rule="evenodd" clip-rule="evenodd" d="M24 25.3334C26.2092 25.3334 28 23.5426 28 21.3334C28 19.1243 26.2092 17.3334 24 17.3334C21.7909 17.3334 20 19.1243 20 21.3334C20 23.5426 21.7909 25.3334 24 25.3334ZM32 21.3334C32 25.7517 28.4183 29.3334 24 29.3334C19.5817 29.3334 16 25.7517 16 21.3334C16 16.9151 19.5817 13.3334 24 13.3334C28.4183 13.3334 32 16.9151 32 21.3334Z" fill="#18202A"/>
<path fill-rule="evenodd" clip-rule="evenodd" d="M44.1174 26.2456L60.2393 46.7644L57.0941 49.2357L43.8827 32.4212L29.5186 48.0912L21.5246 41.4296L9.4799 54.6788L6.52014 51.9881L21.1421 35.9039L29.1482 42.5757L44.1174 26.2456Z" fill="#18202A"/>
</svg>
