<svg width="64" height="64" viewBox="0 0 64 64" fill="none" xmlns="http://www.w3.org/2000/svg">
<path fill-rule="evenodd" clip-rule="evenodd" d="M32 5.3335C26.1089 5.3335 21.3333 10.1091 21.3333 16.0002V29.3335C21.3333 35.2245 26.1089 40.0002 32 40.0002C37.891 40.0002 42.6666 35.2245 42.6666 29.3335V16.0002C42.6666 10.1091 37.891 5.3335 32 5.3335ZM32 36.0002C35.6819 36.0002 38.6666 33.0154 38.6666 29.3335V16.0002C38.6666 12.3183 35.6819 9.3335 32 9.3335C28.3181 9.3335 25.3333 12.3183 25.3333 16.0002V29.3335C25.3333 33.0154 28.3181 36.0002 32 36.0002Z" fill="#18202A"/>
<path d="M15.2379 29.3335C14.1333 29.3335 13.2267 30.232 13.3435 31.3304C14.2735 40.0754 21.2423 47.0167 30 47.9042V54.6668H22C20.8954 54.6668 20 55.5623 20 56.6668C20 57.7714 20.8954 58.6668 22 58.6668H42C43.1045 58.6668 44 57.7714 44 56.6668C44 55.5623 43.1045 54.6668 42 54.6668H34V47.8839C42.6679 46.9156 49.5425 40.0118 50.4657 31.3303C50.5825 30.232 49.6758 29.3335 48.5713 29.3335C47.4667 29.3335 46.5856 30.2339 46.4367 31.3284C45.4635 38.4849 39.3281 44.0002 31.9046 44.0002C24.4811 44.0002 18.3457 38.4849 17.3724 31.3284C17.2236 30.2339 16.3425 29.3335 15.2379 29.3335Z" fill="#18202A"/>
</svg>
