<svg width="64" height="64" viewBox="0 0 64 64" fill="none" xmlns="http://www.w3.org/2000/svg">
<g clip-path="url(#clip0_2359_20954)">
<path d="M27.5878 0.989735C30.7851 0.520292 33.9823 0.562968 37.1796 1.11776C40.3769 1.67256 43.4036 2.67545 46.2599 4.12645C46.7288 4.38251 47.0485 4.78794 47.2191 5.34273C47.3896 5.85485 47.347 6.34563 47.0912 6.81507C46.8354 7.28451 46.4517 7.62593 45.9402 7.83931C45.4286 8.01001 44.917 7.96734 44.4055 7.71128C41.9329 6.43098 39.2898 5.55612 36.4762 5.08667C33.7052 4.61723 30.9129 4.59589 28.0993 5.02266C25.3284 5.40675 22.664 6.2176 20.1061 7.45522C17.591 8.65016 15.3102 10.2079 13.264 12.1283C12.8803 12.5124 12.4114 12.7044 11.8572 12.7044C11.303 12.6617 10.834 12.4484 10.4504 12.0643C10.0667 11.6802 9.87485 11.2107 9.87485 10.656C9.91748 10.1012 10.1306 9.63172 10.5143 9.24763C12.859 7.02845 15.4807 5.2147 18.3796 3.80638C21.2785 2.39806 24.3479 1.45917 27.5878 0.989735ZM8.78778 14.0487C9.25671 14.3901 9.53381 14.8382 9.61907 15.393C9.70433 15.9052 9.59775 16.3746 9.29934 16.8014C7.29571 19.8741 5.93154 23.1815 5.20682 26.7236C4.48211 30.2658 4.48211 33.8293 5.20682 37.4141C5.33471 37.9689 5.24945 38.481 4.95104 38.9505C4.65263 39.4199 4.22632 39.6973 3.67213 39.7826C3.11793 39.868 2.60637 39.7826 2.13744 39.5266C1.71113 39.2279 1.43403 38.8011 1.30614 38.2463C0.453535 34.1067 0.453535 30.0097 1.30614 25.9555C2.15875 21.7305 3.71476 17.9323 5.97417 14.5609C6.31521 14.0914 6.74152 13.814 7.25308 13.7287C7.80728 13.6433 8.31884 13.75 8.78778 14.0487ZM51.951 7.90332C51.5247 7.56191 51.0345 7.41254 50.4803 7.45522C49.9261 7.4979 49.4785 7.73262 49.1374 8.15938C48.7964 8.58615 48.6472 9.07692 48.6898 9.63172C48.7324 10.1865 48.9669 10.6346 49.3932 10.976C51.7805 12.9818 53.7841 15.329 55.4041 18.0176C57.0241 20.7063 58.1324 23.5869 58.7293 26.6596L58.8572 26.9157C59.1982 28.9642 59.3474 30.8633 59.3048 32.613C59.3048 33.1678 59.4966 33.6372 59.8803 34.0213C60.264 34.4054 60.7329 34.6188 61.2871 34.6615C61.8413 34.6615 62.3102 34.4694 62.6939 34.0853C63.0776 33.7012 63.2907 33.2318 63.3334 32.677C63.3334 30.2445 63.1202 27.9613 62.6939 25.8274L62.6299 25.5714C61.9052 22.0719 60.6263 18.8285 58.7932 15.8411C56.9601 12.8111 54.6794 10.1652 51.951 7.90332ZM33.9823 31.6528C33.8544 31.098 33.556 30.6712 33.0871 30.3725C32.6608 30.0737 32.1705 29.9671 31.6163 30.0524C31.0622 30.1378 30.6359 30.4152 30.3374 30.8846C30.039 31.354 29.9324 31.8662 30.0177 32.421C30.9982 37.158 30.8703 41.8738 29.634 46.5682C28.3125 51.348 26.0744 55.5089 22.9197 59.0511C22.5787 59.4778 22.4082 59.9686 22.4082 60.5234C22.4508 61.0782 22.6853 61.5263 23.1116 61.8677C23.5379 62.2518 24.0281 62.4225 24.5823 62.3798C25.1365 62.3372 25.5841 62.1024 25.9252 61.6757C29.5061 57.6214 32.0213 52.927 33.4708 47.5924C34.8776 42.4286 35.0481 37.1154 33.9823 31.6528ZM30.1456 22.8828C31.4671 22.584 32.6821 22.5627 33.7905 22.8187C35.0268 22.9895 36.1565 23.4376 37.1796 24.1631C38.2454 24.8459 39.1193 25.7207 39.8014 26.7877C40.4835 27.8119 40.9311 28.9428 41.1442 30.1804C41.9542 33.5519 42.21 37.1794 41.9116 41.0629C41.6132 44.8611 40.8245 48.638 39.5456 52.3935C38.2667 56.1064 36.6041 59.4778 34.5578 62.5079C34.2594 62.9346 33.8331 63.1907 33.2789 63.276C32.7674 63.4041 32.2771 63.3187 31.8082 63.02C31.3393 62.7213 31.0622 62.2945 30.9769 61.7397C30.8916 61.1849 30.9982 60.6728 31.2966 60.2033C33.1724 57.472 34.6857 54.4207 35.8368 51.0492C36.9878 47.6351 37.6912 44.221 37.947 40.8069C38.2027 37.2647 37.9683 34.0213 37.2436 31.0766V30.8846C37.1157 30.1591 36.8599 29.519 36.4762 28.9642C36.0925 28.3667 35.6023 27.8759 35.0055 27.4918C34.4513 27.1077 33.7905 26.8517 33.0232 26.7236C32.2984 26.5956 31.6163 26.617 30.9769 26.7877H30.9129C30.2309 26.9157 29.5914 27.1717 28.9946 27.5558C28.3978 27.9399 27.9075 28.4307 27.5238 29.0282C27.1402 29.583 26.8844 30.2231 26.7565 30.9486C26.6286 31.6314 26.6286 32.3356 26.7565 33.0611C27.737 37.8409 27.4812 42.4926 25.9891 47.0163C24.4544 51.7107 21.9819 55.637 18.5714 58.795C18.1451 59.1791 17.6549 59.3498 17.1007 59.3071C16.5465 59.3071 16.0989 59.1151 15.7578 58.731C15.4168 58.3469 15.2463 57.8561 15.2463 57.2587C15.2463 56.7039 15.4381 56.2344 15.8218 55.8503C18.7633 53.0764 20.8735 49.7263 22.1524 45.8C23.4313 41.8311 23.6658 37.8622 22.8558 33.8933C22.6 32.741 22.5787 31.5247 22.7919 30.2445C23.0476 28.9642 23.5166 27.8332 24.1987 26.8517C24.966 25.7421 25.8186 24.8672 26.7565 24.2271C27.9075 23.5016 29.0372 23.0535 30.1456 22.8828ZM19.9783 37.2221C19.9356 36.6673 19.7012 36.2192 19.2749 35.8778C18.8912 35.4937 18.4222 35.323 17.868 35.3656C17.3139 35.4083 16.8449 35.643 16.4612 36.0698C16.0776 36.4539 15.9071 36.9233 15.9497 37.4781C16.1202 40.0814 15.6939 42.6206 14.6708 45.0959C13.6476 47.5284 12.0916 49.5769 10.0027 51.2413C9.57644 51.5827 9.34197 52.0308 9.29934 52.5856C9.25671 53.1404 9.40592 53.6312 9.74696 54.0579C10.088 54.4847 10.5143 54.7194 11.0259 54.7621C11.5801 54.8048 12.0916 54.6554 12.5606 54.314C15.0758 52.2228 16.9941 49.6836 18.3157 46.6962C19.6372 43.7089 20.1914 40.5508 19.9783 37.2221ZM31.1048 15.393C33.1084 15.3077 35.0481 15.5637 36.9238 16.1612C38.8422 16.716 40.59 17.6122 42.1674 18.8498C43.7873 20.0875 45.1089 21.5598 46.132 23.2669C47.1978 24.9312 47.9225 26.745 48.3061 28.7081C48.7324 30.9273 49.0095 32.8691 49.1374 34.5334C49.1801 35.0882 49.0309 35.579 48.6898 36.0058C48.3488 36.4325 47.9012 36.6673 47.347 36.7099C46.7928 36.7526 46.3025 36.6032 45.8762 36.2618C45.4499 35.8778 45.2154 35.4083 45.1728 34.8535C44.917 32.4636 44.6612 30.6926 44.4055 29.5403C44.107 28.0466 43.5529 26.6596 42.7429 25.3793C41.9755 24.099 40.9737 22.9895 39.7374 22.0506C38.5012 21.1117 37.1583 20.4289 35.7089 20.0021C34.3021 19.5327 32.8313 19.3406 31.2966 19.426C29.8046 19.4686 28.3551 19.7887 26.9483 20.3862C25.5415 20.9837 24.2839 21.8159 23.1755 22.8828C22.1098 23.9497 21.2358 25.166 20.5538 26.5316C19.9143 27.8972 19.5306 29.3269 19.4027 30.8206C19.3175 31.3754 19.0617 31.8235 18.6354 32.1649C18.2517 32.5063 17.7828 32.6557 17.2286 32.613C16.6744 32.5276 16.2268 32.2929 15.8857 31.9088C15.5447 31.4821 15.3955 30.9913 15.4381 30.4365C15.6086 28.4734 16.1202 26.5956 16.9728 24.8032C17.868 23.0108 19.0404 21.4318 20.4898 20.0661C21.9392 18.6578 23.5805 17.5482 25.4136 16.7374C27.2467 15.9265 29.1438 15.4784 31.1048 15.393ZM49.2014 41.447C49.244 40.8922 49.0735 40.4228 48.6898 40.0387C48.3488 39.6119 47.9012 39.3772 47.347 39.3345C46.7928 39.2919 46.3025 39.4626 45.8762 39.8467C45.4925 40.2308 45.2794 40.7002 45.2368 41.255C44.8531 47.3577 43.3397 53.119 40.6966 58.539C40.4835 59.0511 40.4622 59.5632 40.6327 60.0753C40.8032 60.5874 41.1229 60.9502 41.5919 61.1636C42.1034 61.4196 42.615 61.4623 43.1265 61.2916C43.6807 61.1209 44.0644 60.7795 44.2776 60.2674C47.1764 54.4207 48.8177 48.1472 49.2014 41.447ZM27.2041 10.4639C27.3746 11.0187 27.332 11.5308 27.0762 12.0003C26.8204 12.4697 26.4368 12.7898 25.9252 12.9605C23.5805 13.7287 21.449 14.8809 19.5306 16.4173C17.6123 17.9536 16.0349 19.7887 14.7987 21.9225C13.5624 24.0137 12.7311 26.2542 12.3048 28.6441C11.8785 31.034 11.8998 33.4239 12.3687 35.8137L12.4327 36.0058C12.9016 38.353 12.7524 40.6575 11.9851 42.9194C11.2177 45.1385 9.91748 46.995 8.08437 48.4886C7.65807 48.8301 7.16782 49.0008 6.61363 49.0008C6.05943 48.9581 5.61181 48.7234 5.27077 48.2966C4.92973 47.8698 4.7592 47.3791 4.7592 46.8243C4.80183 46.2695 5.0363 45.8 5.4626 45.4159C6.69889 44.4344 7.61544 43.1328 8.21226 41.511C8.6812 39.9747 8.78778 38.4597 8.53199 36.966C8.53199 36.8806 8.51068 36.8166 8.46805 36.774C7.87122 33.872 7.82859 30.97 8.34016 28.068C8.85172 25.166 9.85354 22.4347 11.3456 19.8741C12.8377 17.3135 14.7347 15.1156 17.0368 13.2806C19.3388 11.4455 21.8966 10.0798 24.7102 9.18361C25.2218 9.01291 25.712 9.05559 26.181 9.31165C26.6925 9.5677 27.0336 9.95179 27.2041 10.4639ZM32 8.6715C31.4458 8.6715 30.9769 8.86354 30.5932 9.24763C30.2095 9.63172 30.0177 10.1012 30.0177 10.656C30.0177 11.2107 30.2095 11.7015 30.5932 12.1283C30.9769 12.5124 31.4458 12.7044 32 12.7044C34.3021 12.7044 36.5402 13.0885 38.7143 13.8567C40.8885 14.6249 42.8708 15.7345 44.6612 17.1855C46.4517 18.6365 47.9225 20.3649 49.0735 22.3706C50.2671 24.3338 51.0984 26.4462 51.5674 28.7081V28.7721C52.3773 32.7837 52.7184 36.8166 52.5905 40.8709C52.5052 44.9252 51.9297 48.9154 50.864 52.8416C50.6934 53.3964 50.7361 53.9086 50.9919 54.378C51.2903 54.8474 51.7166 55.1462 52.2708 55.2742C52.825 55.4449 53.3365 55.3809 53.8055 55.0822C54.2744 54.8261 54.5728 54.4207 54.7007 53.8659C55.8091 49.5982 56.4272 45.2879 56.5551 40.9349C56.7256 36.5392 56.3633 32.2076 55.468 27.9399C54.9138 25.2086 53.912 22.6694 52.4626 20.3222C51.0558 17.9323 49.2866 15.8625 47.1551 14.1127C45.0662 12.363 42.7002 11.0187 40.0572 10.0798C37.4567 9.14094 34.771 8.6715 32 8.6715Z" fill="#18202A"/>
</g>
<defs>
<clipPath id="clip0_2359_20954">
<rect width="64" height="64" fill="white"/>
</clipPath>
</defs>
</svg>
