<svg width="64" height="64" viewBox="0 0 64 64" fill="none" xmlns="http://www.w3.org/2000/svg">
<path d="M62.1161 23.1634C63.1575 22.122 63.1625 20.4271 62.062 19.4484C54.0545 12.3264 43.5056 8 31.9462 8C20.3867 8 9.83781 12.3264 1.83033 19.4484C0.72986 20.4271 0.734884 22.1221 1.77628 23.1635C2.81768 24.2049 4.50054 24.1974 5.60861 23.2272C12.6448 17.0668 21.8595 13.3333 31.9462 13.3333C42.0329 13.3333 51.2476 17.0668 58.2837 23.2272C59.3918 24.1974 61.0747 24.2048 62.1161 23.1634Z" fill="#18202A"/>
<path d="M52.688 32.5915C53.7294 31.5501 53.7361 29.8521 52.6121 28.9005C47.0366 24.1799 39.8238 21.3333 31.9462 21.3333C24.0685 21.3333 16.8558 24.1799 11.2803 28.9005C10.1563 29.8521 10.163 31.5501 11.2044 32.5915C12.2458 33.6329 13.9266 33.6211 15.0662 32.6883C19.6637 28.9247 25.5412 26.6667 31.9462 26.6667C38.3511 26.6667 44.2287 28.9247 48.8262 32.6882C49.9658 33.6211 51.6466 33.6329 52.688 32.5915Z" fill="#18202A"/>
<path d="M43.2599 42.0196C44.3013 40.9782 44.3109 39.2718 43.1325 38.3884C40.015 36.0512 36.1423 34.6667 31.9462 34.6667C27.7501 34.6667 23.8773 36.0512 20.7599 38.3884C19.5815 39.2718 19.5911 40.9782 20.6325 42.0196C21.6739 43.061 23.3515 43.0338 24.5782 42.2189C26.689 40.8168 29.2222 40 31.9462 40C34.6701 40 37.2033 40.8168 39.3141 42.2189C40.5409 43.0338 42.2185 43.061 43.2599 42.0196Z" fill="#18202A"/>
<path d="M37.2795 53.3333C37.2795 56.2789 34.8917 58.6667 31.9462 58.6667C29.0007 58.6667 26.6128 56.2789 26.6128 53.3333C26.6128 50.3878 29.0007 48 31.9462 48C34.8917 48 37.2795 50.3878 37.2795 53.3333Z" fill="#18202A"/>
</svg>
