<svg width="64" height="64" viewBox="0 0 64 64" fill="none" xmlns="http://www.w3.org/2000/svg">
<g clip-path="url(#clip0_3293_9009)">
<path fill-rule="evenodd" clip-rule="evenodd" d="M36.6667 11.3332C37.7713 11.3332 38.6667 12.2286 38.6667 13.3332V15.9998H40.6667C41.7713 15.9998 42.6667 16.8953 42.6667 17.9998C42.6667 19.1044 41.7713 19.9998 40.6667 19.9998H38.6667V40.6665C38.6667 41.7711 37.7713 42.6665 36.6667 42.6665C35.5624 42.6665 34.6671 41.7715 34.6667 40.6672C32.9954 41.9226 30.9179 42.6665 28.6667 42.6665C23.1438 42.6665 18.6667 38.1894 18.6667 32.6665C18.6667 27.1437 23.1438 22.6665 28.6667 22.6665C30.9179 22.6665 32.9954 23.4104 34.6667 24.6658V19.9998H32.6667C31.5621 19.9998 30.6667 19.1044 30.6667 17.9998C30.6667 16.8953 31.5621 15.9998 32.6667 15.9998H34.6667V13.3332C34.6667 12.2286 35.5621 11.3332 36.6667 11.3332ZM28.6667 26.6665C31.9804 26.6665 34.6667 29.3528 34.6667 32.6665C34.6667 35.9802 31.9804 38.6665 28.6667 38.6665C25.353 38.6665 22.6667 35.9802 22.6667 32.6665C22.6667 29.3528 25.353 26.6665 28.6667 26.6665Z" fill="#18202A"/>
<path d="M20.6667 45.3332C19.5621 45.3332 18.6667 46.2286 18.6667 47.3332C18.6667 48.4377 19.5621 49.3332 20.6667 49.3332H36.6667C37.7713 49.3332 38.6667 48.4377 38.6667 47.3332C38.6667 46.2286 37.7713 45.3332 36.6667 45.3332H20.6667Z" fill="#18202A"/>
<path fill-rule="evenodd" clip-rule="evenodd" d="M61.3334 31.9998C61.3334 48.2002 48.2004 61.3332 32 61.3332C15.7997 61.3332 2.66669 48.2002 2.66669 31.9998C2.66669 15.7995 15.7997 2.6665 32 2.6665C48.2004 2.6665 61.3334 15.7995 61.3334 31.9998ZM57.3334 31.9998C57.3334 45.9911 45.9912 57.3332 32 57.3332C18.0088 57.3332 6.66669 45.9911 6.66669 31.9998C6.66669 18.0086 18.0088 6.6665 32 6.6665C45.9912 6.6665 57.3334 18.0086 57.3334 31.9998Z" fill="#18202A"/>
</g>
<defs>
<clipPath id="clip0_3293_9009">
<rect width="64" height="64" fill="white"/>
</clipPath>
</defs>
</svg>
