<svg width="64" height="64" viewBox="0 0 64 64" fill="none" xmlns="http://www.w3.org/2000/svg">
<path d="M37.3333 32.0001C37.3333 34.9456 34.9455 37.3334 32 37.3334C29.0545 37.3334 26.6667 34.9456 26.6667 32.0001C26.6667 29.0546 29.0545 26.6667 32 26.6667C34.9455 26.6667 37.3333 29.0546 37.3333 32.0001Z" fill="#18202A"/>
<path fill-rule="evenodd" clip-rule="evenodd" d="M24.979 4.85062C25.2119 3.58533 26.315 2.66675 27.6016 2.66675H36.3605C37.647 2.66675 38.7501 3.58533 38.9831 4.85062L39.8015 9.29654C42.7459 10.3081 45.4316 11.8763 47.7327 13.8755L51.9921 12.3614C53.2043 11.9305 54.5514 12.4265 55.1947 13.5407L59.5741 21.1261C60.2174 22.2403 59.9734 23.6549 58.9941 24.4893L55.5622 27.4132C55.8496 28.8979 56 30.4314 56 32.0001C56 33.5687 55.8496 35.1022 55.5622 36.5869L58.9942 39.5109C59.9735 40.3452 60.2174 41.7598 59.5742 42.874L55.1947 50.4594C54.5515 51.5736 53.2044 52.0697 51.9922 51.6387L47.7328 50.1246C45.4316 52.1238 42.746 53.6921 39.8015 54.7036L38.9831 59.1495C38.7501 60.4148 37.647 61.3334 36.3605 61.3334H27.6016C26.3151 61.3334 25.2119 60.4148 24.979 59.1495L24.158 54.6896C21.2247 53.676 18.5493 52.1096 16.2563 50.115L11.9699 51.6387C10.7576 52.0697 9.41054 51.5736 8.76727 50.4594L4.38784 42.874C3.74456 41.7598 3.98851 40.3452 4.96782 39.5109L8.43248 36.559C8.14866 35.083 8.00005 33.5589 8.00005 32.0001C8.00005 30.4412 8.14866 28.9171 8.4325 27.4411L4.9679 24.4893C3.98859 23.6549 3.74464 22.2403 4.38791 21.1261L8.76734 13.5407C9.41062 12.4265 10.7577 11.9305 11.9699 12.3614L16.2563 13.8851C18.5494 11.8905 21.2248 10.3242 24.158 9.31053L24.979 4.85062ZM42.6667 32.0001C42.6667 37.8911 37.891 42.6667 32 42.6667C26.109 42.6667 21.3333 37.8911 21.3333 32.0001C21.3333 26.109 26.109 21.3334 32 21.3334C37.891 21.3334 42.6667 26.109 42.6667 32.0001Z" fill="#18202A"/>
</svg>
