<svg width="64" height="64" viewBox="0 0 64 64" fill="none" xmlns="http://www.w3.org/2000/svg">
<path fill-rule="evenodd" clip-rule="evenodd" d="M10.6667 15.3335C10.6667 14.2289 11.5621 13.3335 12.6667 13.3335H51.3334C56.8562 13.3335 61.3334 17.8106 61.3334 23.3335V34.6668C61.3334 35.7714 60.4379 36.6668 59.3334 36.6668C58.2288 36.6668 57.3334 35.7714 57.3334 34.6668V23.3335C57.3334 20.0198 54.6471 17.3335 51.3334 17.3335H12.6667C11.5621 17.3335 10.6667 16.4381 10.6667 15.3335ZM4.66669 24.6668C5.77126 24.6668 6.66669 25.5623 6.66669 26.6668V48.0002C6.66669 51.3139 9.35298 54.0002 12.6667 54.0002H51.3334C54.6471 54.0002 57.3334 51.3139 57.3334 48.0002V40.0002C57.3334 38.8956 58.2288 38.0002 59.3334 38.0002C60.4379 38.0002 61.3334 38.8956 61.3334 40.0002V48.0002C61.3334 53.523 56.8562 58.0002 51.3334 58.0002H12.6667C7.14384 58.0002 2.66669 53.523 2.66669 48.0002V26.6668C2.66669 25.5623 3.56212 24.6668 4.66669 24.6668Z" fill="#18202A"/>
<path fill-rule="evenodd" clip-rule="evenodd" d="M2.66669 15.3335C2.66669 9.81065 7.14384 5.3335 12.6667 5.3335H44.6667C48.7168 5.3335 52 8.61674 52 12.6668V15.3335C52 16.4381 51.1046 17.3335 50 17.3335C48.8955 17.3335 48 16.4381 48 15.3335V12.6668C48 10.8259 46.5076 9.3335 44.6667 9.3335H12.6667C9.35298 9.3335 6.66669 12.0198 6.66669 15.3335V26.0002C6.66669 27.1047 5.77126 28.0002 4.66669 28.0002C3.56212 28.0002 2.66669 27.1047 2.66669 26.0002V15.3335Z" fill="#18202A"/>
<path fill-rule="evenodd" clip-rule="evenodd" d="M30 34.0002C30 29.9501 33.2833 26.6668 37.3334 26.6668H56.6667C59.244 26.6668 61.3334 28.7562 61.3334 31.3335V43.3335C61.3334 45.9108 59.244 48.0002 56.6667 48.0002H37.3334C33.2833 48.0002 30 44.7169 30 40.6668V34.0002ZM37.3334 30.6668C35.4924 30.6668 34 32.1592 34 34.0002V40.6668C34 42.5078 35.4924 44.0002 37.3334 44.0002H56.6667C57.0349 44.0002 57.3334 43.7017 57.3334 43.3335V31.3335C57.3334 30.9653 57.0349 30.6668 56.6667 30.6668H37.3334Z" fill="#18202A"/>
<path d="M42.6667 37.3335C42.6667 38.8063 41.4728 40.0002 40 40.0002C38.5273 40.0002 37.3334 38.8063 37.3334 37.3335C37.3334 35.8607 38.5273 34.6668 40 34.6668C41.4728 34.6668 42.6667 35.8607 42.6667 37.3335Z" fill="#18202A"/>
</svg>
