<svg width="64" height="64" viewBox="0 0 64 64" fill="none" xmlns="http://www.w3.org/2000/svg">
<path fill-rule="evenodd" clip-rule="evenodd" d="M45.3334 14.667H18.6667C16.4575 14.667 14.6667 16.4579 14.6667 18.667V45.3337C14.6667 47.5428 16.4575 49.3337 18.6667 49.3337H45.3334C47.5425 49.3337 49.3334 47.5428 49.3334 45.3337V18.667C49.3334 16.4579 47.5425 14.667 45.3334 14.667ZM18.6667 10.667C14.2484 10.667 10.6667 14.2487 10.6667 18.667V45.3337C10.6667 49.7519 14.2484 53.3337 18.6667 53.3337H45.3334C49.7516 53.3337 53.3334 49.7519 53.3334 45.3337V18.667C53.3334 14.2487 49.7516 10.667 45.3334 10.667H18.6667Z" fill="#18202A"/>
</svg>
