<svg width="64" height="64" viewBox="0 0 64 64" fill="none" xmlns="http://www.w3.org/2000/svg">
<path d="M15.5152 2.6665C9.89189 2.6665 5.33333 7.44657 5.33333 13.3431V18.6665H21.3333C21.3333 16.6191 22.1144 14.5717 23.6765 13.0097C26.8007 9.88546 31.866 9.88546 34.9902 13.0097L42.9902 21.0096C46.1144 24.1338 46.1144 29.1992 42.9902 32.3234L34.9902 40.3234C31.866 43.4476 26.8007 43.4476 23.6765 40.3234C22.1144 38.7613 21.3333 36.7139 21.3333 34.6665H5.33333V37.3654C5.33333 43.2619 9.89188 48.0419 15.5151 48.0419H16.9036L15.4277 55.4436C14.9742 57.7176 17.3158 59.4714 19.2202 58.2841L35.6474 48.0419H51.1515C56.7748 48.0419 61.3333 43.2619 61.3333 37.3654V13.3431C61.3333 7.44657 56.7748 2.6665 51.1515 2.6665H15.5152Z" fill="#18202A"/>
<path d="M27.4477 16.7809C28.4891 15.7395 30.1776 15.7395 31.2189 16.7809L39.2189 24.7809C40.2603 25.8223 40.2603 27.5107 39.2189 28.5521L31.2189 36.5521C30.1776 37.5935 28.4891 37.5935 27.4477 36.5521C26.4063 35.5107 26.4063 33.8223 27.4477 32.7809L30.8954 29.3332H2.66667C1.19391 29.3332 0 28.1393 0 26.6665C0 25.1937 1.19391 23.9998 2.66667 23.9998H30.8954L27.4477 20.5521C26.4063 19.5107 26.4063 17.8223 27.4477 16.7809Z" fill="#18202A"/>
</svg>
