<svg width="64" height="64" viewBox="0 0 64 64" fill="none" xmlns="http://www.w3.org/2000/svg">
<path fill-rule="evenodd" clip-rule="evenodd" d="M34.5961 36.6063C32.9817 37.5064 31.0163 37.5064 29.4019 36.6063L7.99999 24.6739L7.99999 52.1669C9.1713 52.5754 10.0117 53.6897 10.0117 55.0003V58.3337C10.0117 59.9905 8.66856 61.3337 7.01171 61.3337H3.67837C2.02152 61.3337 0.678375 59.9905 0.678375 58.3337V55.0003C0.678375 53.6985 1.50759 52.5903 2.66665 52.1752L2.66666 21.7003L1.40389 20.9963C-0.420252 19.9793 -0.420229 17.355 1.40393 16.338L29.402 0.728747C31.0164 -0.171283 32.9817 -0.171302 34.5961 0.728697L62.5954 16.338C64.4197 17.355 64.4197 19.9793 62.5955 20.9963L34.5961 36.6063ZM38 18.667C38 20.8761 35.3137 22.667 32 22.667C28.6863 22.667 26 20.8761 26 18.667C26 16.4579 28.6863 14.667 32 14.667C35.3137 14.667 38 16.4579 38 18.667ZM28.1034 38.9348L10.6667 29.2131V38.2465C10.6667 46.5793 20.2179 53.333 32 53.333C43.7821 53.333 53.3333 46.5793 53.3333 38.2465V29.2126L35.8947 38.9349C33.473 40.285 30.525 40.2849 28.1034 38.9348Z" fill="#18202A"/>
</svg>
