<svg width="64" height="64" viewBox="0 0 64 64" fill="none" xmlns="http://www.w3.org/2000/svg">
<g clip-path="url(#clip0_2359_21074)">
<path fill-rule="evenodd" clip-rule="evenodd" d="M26.1814 13.1716L30.3432 17.3333H50.6667C54.3486 17.3333 57.3334 20.3181 57.3334 24H6.66669V18.6667C6.66669 14.9848 9.65146 12 13.3334 12H23.353C24.4138 12 25.4313 12.4214 26.1814 13.1716ZM6.66669 26.6667V45.3333C6.66669 49.0152 9.65146 52 13.3334 52H33.3839C33.4893 53.3852 33.7574 54.7249 34.1694 56H13.3334C7.44232 56 2.66669 51.2244 2.66669 45.3333V18.6667C2.66669 12.7756 7.44232 8 13.3334 8H23.353C25.4747 8 27.5095 8.84286 29.0098 10.3431L32 13.3333H50.6667C56.5577 13.3333 61.3334 18.109 61.3334 24V37.0031C60.1194 36.054 58.7757 35.2633 57.3334 34.6618V26.6667H6.66669ZM64 50.6667C64 58.0305 58.0305 64 50.6667 64C43.3029 64 37.3334 58.0305 37.3334 50.6667C37.3334 43.3029 43.3029 37.3333 50.6667 37.3333C58.0305 37.3333 64 43.3029 64 50.6667ZM50.6667 42.6667C51.7713 42.6667 52.6667 43.5621 52.6667 44.6667V48.6667H56.6667C57.7713 48.6667 58.6667 49.5621 58.6667 50.6667C58.6667 51.7712 57.7713 52.6667 56.6667 52.6667H52.6667V56.6667C52.6667 57.7712 51.7713 58.6667 50.6667 58.6667C49.5621 58.6667 48.6667 57.7712 48.6667 56.6667V52.6667H44.6667C43.5621 52.6667 42.6667 51.7712 42.6667 50.6667C42.6667 49.5621 43.5621 48.6667 44.6667 48.6667H48.6667V44.6667C48.6667 43.5621 49.5621 42.6667 50.6667 42.6667Z" fill="#18202A"/>
</g>
<defs>
<clipPath id="clip0_2359_21074">
<rect width="64" height="64" fill="white"/>
</clipPath>
</defs>
</svg>
