<svg width="64" height="64" viewBox="0 0 64 64" fill="none" xmlns="http://www.w3.org/2000/svg">
<path d="M57.3334 17.2127C55.17 13.5067 52.2034 10.2923 48.6146 7.82577C42.8586 3.86979 35.88 2.09743 28.9339 2.82749C21.9878 3.55756 15.5301 6.74212 10.7224 11.8084C5.91469 16.8747 3.07245 23.4902 2.70691 30.4649C2.34138 37.4397 4.47654 44.3161 8.72834 49.8571C12.9801 55.3982 19.0696 59.2403 25.9013 60.6925C32.733 62.1446 39.8587 61.1114 45.9967 57.7788C51.548 54.7647 55.9619 50.0485 58.6066 44.3507C59.0709 43.3504 58.5505 42.1919 57.5209 41.7967C56.4915 41.4015 55.3437 41.92 54.8681 42.9148C50.7905 51.4426 42.0832 57.3335 32 57.3335C18.0088 57.3335 6.66671 45.9914 6.66671 32.0001C6.66671 18.0089 18.0088 6.6668 32 6.6668C42.6952 6.6668 51.8424 13.2945 55.5587 22.6667H39.3334C38.2288 22.6667 37.3334 23.5622 37.3334 24.6667C37.3334 25.7713 38.2288 26.6667 39.3334 26.6667H58.6667C60.1394 26.6667 61.3334 25.4728 61.3334 24.0001V4.66675C61.3334 3.56218 60.4379 2.66675 59.3334 2.66675C58.2288 2.66675 57.3334 3.56218 57.3334 4.66675V17.2127Z" fill="#18202A"/>
</svg>
