<svg width="64" height="64" viewBox="0 0 64 64" fill="none" xmlns="http://www.w3.org/2000/svg">
<path fill-rule="evenodd" clip-rule="evenodd" d="M48 6.66699H21.3334C17.6515 6.66699 14.6667 9.65176 14.6667 13.3337V50.667C14.6667 54.3489 17.6515 57.3337 21.3334 57.3337H48C51.6819 57.3337 54.6667 54.3489 54.6667 50.667V13.3337C54.6667 9.65176 51.6819 6.66699 48 6.66699ZM21.3334 2.66699C15.4423 2.66699 10.6667 7.44262 10.6667 13.3337V50.667C10.6667 56.558 15.4423 61.3337 21.3334 61.3337H48C53.8911 61.3337 58.6667 56.558 58.6667 50.667V13.3337C58.6667 7.44262 53.8911 2.66699 48 2.66699H21.3334ZM34.6667 30.7882C37.899 30.7882 39.5152 27.7579 39.5152 23.97C39.5152 20.9397 37.899 18.667 34.6667 18.667C31.4344 18.667 29.8182 20.9397 29.8182 23.97C29.8182 27.7579 31.4344 30.7882 34.6667 30.7882ZM25.575 37.2145C24.5053 39.9231 24.9915 40.4785 25.9639 41.5894C27.9551 43.864 31.1124 45.3337 34.6667 45.3337C38.2211 45.3337 41.3783 43.864 43.3695 41.5894C44.3419 40.4786 44.8281 39.9232 43.7584 37.2145C42.6887 34.5058 41.6517 34.2624 39.5776 33.7757C38.0127 33.4084 36.3662 33.2124 34.6667 33.2124C32.9673 33.2124 31.3207 33.4084 29.7558 33.7757C27.6818 34.2624 26.6448 34.5058 25.575 37.2145ZM2.66669 16.0003C2.66669 14.5276 3.86059 13.3337 5.33335 13.3337H8.00002V24.0003H5.33335C3.86059 24.0003 2.66669 22.8064 2.66669 21.3337V16.0003ZM2.66669 29.3337C2.66669 27.8609 3.86059 26.667 5.33335 26.667H8.00002V37.3337H5.33335C3.86059 37.3337 2.66669 36.1398 2.66669 34.667V29.3337ZM5.33335 40.0003C3.86059 40.0003 2.66669 41.1942 2.66669 42.667V48.0003C2.66669 49.4731 3.86059 50.667 5.33335 50.667H8.00002V40.0003H5.33335Z" fill="#18202A"/>
</svg>
