<svg width="64" height="64" viewBox="0 0 64 64" fill="none" xmlns="http://www.w3.org/2000/svg">
<path fill-rule="evenodd" clip-rule="evenodd" d="M61.3333 31.1756C61.3333 45.7961 49.8204 58.6665 32.0273 58.6665C29.1687 58.6665 26.4058 58.3489 23.7938 57.7305L16.5247 61.0855C14.8439 61.8612 12.9035 60.7305 12.7497 58.8857L12.1895 52.1624C6.3686 47.4465 2.72121 40.3017 2.72121 31.1756C1.6747 15.9029 15.842 2.6665 32.0273 2.6665C48.2126 2.6665 61.3333 13.8665 61.3333 31.1756ZM24 30.6665C24 32.8756 22.2091 34.6665 20 34.6665C17.7909 34.6665 16 32.8756 16 30.6665C16 28.4574 17.7909 26.6665 20 26.6665C22.2091 26.6665 24 28.4574 24 30.6665ZM32 34.6665C34.2091 34.6665 36 32.8756 36 30.6665C36 28.4574 34.2091 26.6665 32 26.6665C29.7909 26.6665 28 28.4574 28 30.6665C28 32.8756 29.7909 34.6665 32 34.6665ZM44 34.6665C46.2091 34.6665 48 32.8756 48 30.6665C48 28.4574 46.2091 26.6665 44 26.6665C41.7909 26.6665 40 28.4574 40 30.6665C40 32.8756 41.7909 34.6665 44 34.6665Z" fill="#18202A"/>
</svg>
