<svg width="64" height="64" viewBox="0 0 64 64" fill="none" xmlns="http://www.w3.org/2000/svg">
<g clip-path="url(#clip0_3444_9287)">
<path d="M21.3333 2.6665C18.3878 2.6665 16 5.05432 16 7.99984V13.3332C16 15.8839 17.1937 18.1558 19.053 19.6207C21.3667 21.4436 24 23.721 24 26.6665V31.9998C24 34.9454 21.6121 37.3332 18.6666 37.3332H14.0952C7.78337 37.3332 2.66663 42.4499 2.66663 48.7617C2.66663 51.2865 4.71332 53.3332 7.23805 53.3332H33.5372C33.4029 52.4639 33.3333 51.5733 33.3333 50.6665C33.3333 44.3955 36.6635 38.9022 41.6519 35.8589C40.6341 34.8876 40 33.5178 40 31.9998V26.6665C40 23.721 42.6332 21.4436 44.9469 19.6207C46.8062 18.1558 48 15.8839 48 13.3332V7.99984C48 5.05432 45.6121 2.6665 42.6666 2.6665H21.3333Z" fill="#18202A"/>
<path d="M5.33329 58.6665C5.33329 57.1937 6.5272 55.9998 7.99996 55.9998H34.1693C34.7999 57.9519 35.7673 59.7525 37.003 61.3332H7.99996C6.5272 61.3332 5.33329 60.1393 5.33329 58.6665Z" fill="#18202A"/>
<path d="M48.5523 38.1142C49.5937 39.1556 49.5937 40.8441 48.5523 41.8855L47.7713 42.6665H58.6667C60.1395 42.6665 61.3334 43.8604 61.3334 45.3332C61.3334 46.8059 60.1395 47.9998 58.6667 47.9998H41.3334C40.2548 47.9998 39.2824 47.3501 38.8697 46.3537C38.4569 45.3572 38.6851 44.2102 39.4478 43.4476L44.7811 38.1142C45.8225 37.0728 47.5109 37.0728 48.5523 38.1142Z" fill="#18202A"/>
<path d="M51.4476 59.4475L52.2286 58.6665H41.3332C39.8605 58.6665 38.6665 57.4726 38.6665 55.9998C38.6665 54.5271 39.8605 53.3332 41.3332 53.3332H58.6665C59.7451 53.3332 60.7175 53.9829 61.1302 54.9793C61.543 55.9758 61.3148 57.1228 60.5522 57.8855L55.2188 63.2188C54.1774 64.2602 52.489 64.2602 51.4476 63.2188C50.4062 62.1774 50.4062 60.4889 51.4476 59.4475Z" fill="#18202A"/>
</g>
<defs>
<clipPath id="clip0_3444_9287">
<rect width="64" height="64" fill="white"/>
</clipPath>
</defs>
</svg>
