<svg width="64" height="64" viewBox="0 0 64 64" fill="none" xmlns="http://www.w3.org/2000/svg">
<path fill-rule="evenodd" clip-rule="evenodd" d="M40.2783 11.9399C40.9403 12.7535 41.8856 13.3337 42.9345 13.3337C44.9624 13.3337 46.3576 11.3131 45.212 9.63977C42.3298 5.42954 37.4875 2.66699 32 2.66699C23.1634 2.66699 16 9.83044 16 18.667V21.3337C10.109 21.3337 5.33333 26.1093 5.33333 32.0003V50.667C5.33333 56.558 10.109 61.3337 16 61.3337H48C53.891 61.3337 58.6667 56.558 58.6667 50.667V32.0003C58.6667 26.1093 53.891 21.3337 48 21.3337L21.3333 21.3337V18.667C21.3333 12.776 26.109 8.00033 32 8.00033C35.3406 8.00033 38.3225 9.53599 40.2783 11.9399ZM34.6667 41.9535C36.2608 41.0313 37.3333 39.3077 37.3333 37.3337C37.3333 34.3881 34.9455 32.0003 32 32.0003C29.0545 32.0003 26.6667 34.3881 26.6667 37.3337C26.6667 39.3077 27.7392 41.0313 29.3333 41.9535V48.667C29.3333 49.7716 30.2288 50.667 31.3333 50.667H32.6667C33.7712 50.667 34.6667 49.7716 34.6667 48.667V41.9535Z" fill="#18202A"/>
</svg>
