<svg width="64" height="64" viewBox="0 0 64 64" fill="none" xmlns="http://www.w3.org/2000/svg">
<g clip-path="url(#clip0_3783_8828)">
<path fill-rule="evenodd" clip-rule="evenodd" d="M50.6667 2.66699C47.7212 2.66699 45.3334 5.05481 45.3334 8.00033V8.66699H40C35.9499 8.66699 32.6667 11.9502 32.6667 16.0003V30.0003H18.6667V29.3337C18.6667 26.3881 16.2789 24.0003 13.3334 24.0003H8.00002C5.0545 24.0003 2.66669 26.3881 2.66669 29.3337V34.667C2.66669 37.6125 5.0545 40.0003 8.00002 40.0003H13.3334C16.2789 40.0003 18.6667 37.6125 18.6667 34.667V34.0003H32.6667V48.0003C32.6667 52.0504 35.9499 55.3337 40 55.3337H45.3334V56.0003C45.3334 58.9458 47.7212 61.3337 50.6667 61.3337H56C58.9455 61.3337 61.3334 58.9458 61.3334 56.0003V50.667C61.3334 47.7215 58.9455 45.3337 56 45.3337H50.6667C47.7212 45.3337 45.3334 47.7215 45.3334 50.667V51.3337H40C38.1591 51.3337 36.6667 49.8413 36.6667 48.0003V34.0003H45.3334V34.667C45.3334 37.6125 47.7212 40.0003 50.6667 40.0003H56C58.9455 40.0003 61.3334 37.6125 61.3334 34.667V29.3337C61.3334 26.3881 58.9455 24.0003 56 24.0003H50.6667C47.7212 24.0003 45.3334 26.3881 45.3334 29.3337V30.0003H36.6667V16.0003C36.6667 14.1594 38.1591 12.667 40 12.667H45.3334V13.3337C45.3334 16.2792 47.7212 18.667 50.6667 18.667H56C58.9455 18.667 61.3334 16.2792 61.3334 13.3337V8.00033C61.3334 5.05481 58.9455 2.66699 56 2.66699H50.6667ZM57.3334 8.00033C57.3334 7.26395 56.7364 6.66699 56 6.66699H50.6667C49.9303 6.66699 49.3334 7.26395 49.3334 8.00033V13.3337C49.3334 14.07 49.9303 14.667 50.6667 14.667H56C56.7364 14.667 57.3334 14.07 57.3334 13.3337V8.00033ZM14.6667 29.3337C14.6667 28.5973 14.0697 28.0003 13.3334 28.0003H8.00002C7.26364 28.0003 6.66669 28.5973 6.66669 29.3337V34.667C6.66669 35.4034 7.26364 36.0003 8.00002 36.0003H13.3334C14.0697 36.0003 14.6667 35.4034 14.6667 34.667V29.3337ZM49.3334 29.3337C49.3334 28.5973 49.9303 28.0003 50.6667 28.0003H56C56.7364 28.0003 57.3334 28.5973 57.3334 29.3337V34.667C57.3334 35.4034 56.7364 36.0003 56 36.0003H50.6667C49.9303 36.0003 49.3334 35.4034 49.3334 34.667V29.3337ZM57.3334 50.667C57.3334 49.9306 56.7364 49.3337 56 49.3337H50.6667C49.9303 49.3337 49.3334 49.9306 49.3334 50.667V56.0003C49.3334 56.7367 49.9303 57.3337 50.6667 57.3337H56C56.7364 57.3337 57.3334 56.7367 57.3334 56.0003V50.667Z" fill="#18202A"/>
</g>
<defs>
<clipPath id="clip0_3783_8828">
<rect width="64" height="64" fill="white"/>
</clipPath>
</defs>
</svg>
