<svg width="64" height="64" viewBox="0 0 64 64" fill="none" xmlns="http://www.w3.org/2000/svg">
<path fill-rule="evenodd" clip-rule="evenodd" d="M18.667 53.3319C18.667 51.8591 19.8609 50.6652 21.3336 50.6652H56.0003C57.473 50.6652 58.6669 51.8591 58.6669 53.3319C58.6669 54.8046 57.473 55.9985 56.0003 55.9985H21.3336C19.8609 55.9985 18.667 54.8046 18.667 53.3319Z" fill="#18202A"/>
<path fill-rule="evenodd" clip-rule="evenodd" d="M18.667 10.6652C18.667 9.19244 19.8609 7.99854 21.3336 7.99854H56.0003C57.473 7.99854 58.6669 9.19244 58.6669 10.6652C58.6669 12.138 57.473 13.3319 56.0003 13.3319H21.3336C19.8609 13.3319 18.667 12.138 18.667 10.6652Z" fill="#18202A"/>
<path d="M17.8859 25.8842C18.9273 24.8428 18.9273 23.1543 17.8859 22.1129C16.8445 21.0715 15.1561 21.0715 14.1147 22.1129L6.11467 30.1129C5.66785 30.5597 5.41275 31.1257 5.34934 31.7085C5.30239 32.1402 5.36059 32.5811 5.52397 32.9898C5.63479 33.267 5.794 33.5294 6.00161 33.764C6.04241 33.8102 6.08478 33.8549 6.12864 33.8981L14.1147 41.8842C15.1561 42.9256 16.8445 42.9256 17.8859 41.8842C18.9273 40.8428 18.9273 39.1543 17.8859 38.1129L14.4358 34.6628L56.0015 34.6458C57.4742 34.6452 58.6677 33.4508 58.6671 31.9781C58.6665 30.5053 57.4721 29.3119 55.9993 29.3125L14.4406 29.3295L17.8859 25.8842Z" fill="#18202A"/>
</svg>
