<svg width="64" height="64" viewBox="0 0 64 64" fill="none" xmlns="http://www.w3.org/2000/svg">
<path fill-rule="evenodd" clip-rule="evenodd" d="M40 6.66699H13.3334C9.65146 6.66699 6.66669 9.65176 6.66669 13.3337V40.0003C6.66669 43.6822 9.65145 46.667 13.3334 46.667V24.0003C13.3334 18.1093 18.109 13.3337 24 13.3337L46.6667 13.3337C46.6667 9.65176 43.6819 6.66699 40 6.66699ZM13.3334 50.667C7.44232 50.667 2.66669 45.8914 2.66669 40.0003V13.3337C2.66669 7.44262 7.44232 2.66699 13.3334 2.66699H40C45.8911 2.66699 50.6667 7.44262 50.6667 13.3337C56.5577 13.3337 61.3334 18.1093 61.3334 24.0003V50.667C61.3334 56.558 56.5577 61.3337 50.6667 61.3337H24C18.109 61.3337 13.3334 56.558 13.3334 50.667ZM24 17.3337H50.6667C54.3486 17.3337 57.3334 20.3184 57.3334 24.0003V50.667C57.3334 54.3489 54.3486 57.3337 50.6667 57.3337H24C20.3181 57.3337 17.3334 54.3489 17.3334 50.667V24.0003C17.3334 20.3184 20.3181 17.3337 24 17.3337Z" fill="#18202A"/>
</svg>
