<svg width="64" height="64" viewBox="0 0 64 64" fill="none" xmlns="http://www.w3.org/2000/svg">
<path fill-rule="evenodd" clip-rule="evenodd" d="M27.4477 3.4478C28.4891 2.4064 30.1776 2.4064 31.219 3.4478L39.219 11.4478C40.2604 12.4892 40.2604 14.1776 39.219 15.219L31.219 23.219C30.1776 24.2604 28.4891 24.2604 27.4477 23.219C26.4063 22.1776 26.4063 20.4892 27.4477 19.4478L30.8954 16.0001H24C15.1635 16.0001 8.00001 23.1635 8.00001 32.0001C8.00001 38.2985 11.6394 43.747 16.9299 46.3573C17.9435 46.8573 18.6667 47.8453 18.6667 48.9755V49.2214C18.6667 50.9639 17.0141 52.239 15.4191 51.5374C7.90999 48.2347 2.66667 40.7297 2.66667 32.0001C2.66667 20.218 12.2179 10.6667 24 10.6667H30.8954L27.4477 7.21903C26.4063 6.17763 26.4063 4.48919 27.4477 3.4478ZM33.1046 53.3334L36.5523 56.7811C37.5937 57.8225 37.5937 59.511 36.5523 60.5524C35.5109 61.5938 33.8225 61.5938 32.7811 60.5524L24.7811 52.5524C23.7397 51.511 23.7397 49.8225 24.7811 48.7811L32.7811 40.7811C33.8225 39.7397 35.5109 39.7397 36.5523 40.7811C37.5937 41.8225 37.5937 43.511 36.5523 44.5524L33.1046 48.0001H40C48.8366 48.0001 56 40.8366 56 32.0001C56 25.7016 52.3606 20.2532 47.0701 17.6429C46.0566 17.1429 45.3333 16.1549 45.3333 15.0247V14.7788C45.3333 13.0363 46.9859 11.7612 48.5809 12.4627C56.09 15.7655 61.3333 23.2705 61.3333 32.0001C61.3333 43.7822 51.7821 53.3334 40 53.3334H33.1046Z" fill="#18202A"/>
</svg>
