<svg width="64" height="64" viewBox="0 0 64 64" fill="none" xmlns="http://www.w3.org/2000/svg">
<path d="M42.6667 10.6666C44.1395 10.6666 45.3334 9.47268 45.3334 7.99992C45.3334 6.52716 44.1395 5.33325 42.6667 5.33325H16C10.109 5.33325 5.33337 10.1089 5.33337 15.9999V47.9999C5.33337 53.891 10.109 58.6666 16 58.6666H48C53.8911 58.6666 58.6667 53.891 58.6667 47.9999V34.6666C58.6667 33.1938 57.4728 31.9999 56 31.9999C54.5273 31.9999 53.3334 33.1938 53.3334 34.6666V47.9999C53.3334 50.9454 50.9456 53.3332 48 53.3332H16C13.0545 53.3332 10.6667 50.9454 10.6667 47.9999V15.9999C10.6667 13.0544 13.0545 10.6666 16 10.6666H42.6667Z" fill="#18202A"/>
<path d="M32.5523 43.2189L57.8857 17.8855C58.9271 16.8441 58.9271 15.1557 57.8857 14.1143C56.8443 13.0729 55.1558 13.0729 54.1144 14.1143L30.6667 37.562L23.219 30.1143C22.1776 29.0729 20.4892 29.0729 19.4478 30.1143C18.4064 31.1557 18.4064 32.8441 19.4478 33.8855L28.7811 43.2189C29.8225 44.2603 31.5109 44.2603 32.5523 43.2189Z" fill="#18202A"/>
</svg>
