<svg width="64" height="64" viewBox="0 0 64 64" fill="none" xmlns="http://www.w3.org/2000/svg">
<path fill-rule="evenodd" clip-rule="evenodd" d="M34.2253 18.0894C33.3302 16.1922 30.6699 16.1922 29.7747 18.0894L27.1749 23.5994L21.4383 24.4666C20.3385 24.6329 19.6653 25.451 19.4367 26.2303C19.2088 27.0075 19.3391 27.9887 20.0529 28.717L24.2468 32.9961L23.248 39.0777C23.0949 40.0103 23.4663 40.9057 24.1474 41.4551C24.8441 42.0172 25.8999 42.2225 26.8566 41.6969L32 38.8712L37.1434 41.6969C38.1002 42.2225 39.156 42.0172 39.8527 41.4551C40.5338 40.9057 40.9052 40.0103 40.7521 39.0777L39.7534 32.9969L43.9459 28.7252C44.6602 27.9974 44.7911 27.0164 44.5639 26.2392C44.336 25.4598 43.6636 24.6413 42.5642 24.474L36.8257 23.6006L34.2253 18.0894ZM29.8822 27.2356L32 22.747L34.1174 27.2344L39.0653 27.9875L35.4775 31.6431L36.3033 36.6714L32 34.3073L27.6968 36.6714L28.5224 31.644L24.9348 27.9835L29.8822 27.2356Z" fill="#18202A"/>
<path fill-rule="evenodd" clip-rule="evenodd" d="M32.6053 2.71917C32.0722 2.62554 31.5217 2.65675 31.0003 2.8128L5.02445 10.626L4.68364 10.7482C3.47019 11.2567 2.66669 12.4157 2.66669 13.7136C2.66669 46.7019 19.1652 55.7542 29.152 60.376L30.5643 61.023C31.019 61.2297 31.5099 61.3332 32.0008 61.3332C32.4915 61.3332 32.9811 61.2297 33.4344 61.023C43.1862 56.5817 61.3334 48.311 61.3334 13.7136C61.3347 12.299 60.3784 11.0485 58.9768 10.626L33.0011 2.8128L32.6053 2.71917ZM6.66935 14.3065L32.0027 6.68784L57.328 14.3065L57.3241 15.0416C57.1265 29.1192 53.7784 39.1026 47.9605 46.125L47.4124 46.7731C43.9575 50.7716 40.4398 53.2067 34.7569 55.9816L32.7795 56.9217L31.9974 57.2798L31.2166 56.9203C24.0119 53.574 20.0597 50.9772 16.0394 46.1245L15.5012 45.4574C10.0154 38.4742 6.86736 28.6793 6.67596 15.0451L6.66935 14.3065Z" fill="#18202A"/>
</svg>
