<svg width="64" height="64" viewBox="0 0 64 64" fill="none" xmlns="http://www.w3.org/2000/svg">
<g clip-path="url(#clip0_2547_8350)">
<path d="M32.0001 32.0001C37.3335 32.0001 40.0001 26.6667 40.0001 20.0001C40.0001 14.6667 37.3335 10.6667 32.0001 10.6667C26.6668 10.6667 24.0001 14.6667 24.0001 20.0001C24.0001 26.6667 26.6668 32.0001 32.0001 32.0001Z" fill="#18202A"/>
<path d="M33.781 58.6343C32.6388 56.2179 32 53.5169 32 50.6667C32 44.6092 34.8854 39.2256 39.3568 35.8153C37.0384 35.0695 34.5663 34.6667 32.0001 34.6667C27.2425 34.6667 22.8082 36.0511 19.0781 38.4389C15.5854 40.6748 14.4168 45.13 15.8131 49.0348C16.2214 50.1768 16.6771 51.2963 17.1776 52.3909C18.5962 55.493 21.5087 57.6412 24.8827 58.1427C27.2051 58.4879 29.5817 58.6667 32.0001 58.6667C32.5963 58.6667 33.19 58.6559 33.781 58.6343Z" fill="#18202A"/>
<path d="M13.3335 32.0001C16.889 32.0001 18.6668 28.6667 18.6668 24.5001C18.6668 21.1667 16.889 18.6667 13.3335 18.6667C9.7779 18.6667 8.00012 21.1667 8.00012 24.5001C8.00012 28.6667 9.7779 32.0001 13.3335 32.0001Z" fill="#18202A"/>
<path d="M50.6668 32.0001C54.2223 32.0001 56.0001 28.6667 56.0001 24.5001C56.0001 21.1667 54.2223 18.6667 50.6668 18.6667C47.1112 18.6667 45.3335 21.1667 45.3335 24.5001C45.3335 28.6667 47.1112 32.0001 50.6668 32.0001Z" fill="#18202A"/>
<path d="M10.7912 50.831C9.22453 46.4496 9.72275 41.3096 12.5293 37.4128C9.98353 37.6312 7.56547 38.2967 5.35399 39.3303C2.24183 40.785 0.986028 44.4589 2.03671 47.7296C2.95599 50.5913 5.45235 52.6016 8.43539 52.9699C9.52483 53.1044 10.6256 53.2023 11.7364 53.2626C11.4001 52.4629 11.0848 51.6522 10.7912 50.831Z" fill="#18202A"/>
<path fill-rule="evenodd" clip-rule="evenodd" d="M50.6667 64.0001C58.0305 64.0001 64 58.0305 64 50.6667C64 43.3029 58.0305 37.3334 50.6667 37.3334C43.3029 37.3334 37.3334 43.3029 37.3334 50.6667C37.3334 58.0305 43.3029 64.0001 50.6667 64.0001ZM58.8518 47.9683C59.5707 47.1297 59.4736 45.8671 58.6349 45.1482C57.7963 44.4294 56.5337 44.5265 55.8148 45.3652L49.0343 53.2758L45.2 50.4001C44.3163 49.7373 43.0627 49.9164 42.4 50.8001C41.7373 51.6837 41.9163 52.9373 42.8 53.6001L48.1333 57.6001C48.9766 58.2325 50.1659 58.1019 50.8518 57.3017L58.8518 47.9683Z" fill="#18202A"/>
</g>
<defs>
<clipPath id="clip0_2547_8350">
<rect width="64" height="64" fill="white"/>
</clipPath>
</defs>
</svg>
