<svg width="64" height="64" viewBox="0 0 64 64" fill="none" xmlns="http://www.w3.org/2000/svg">
<path fill-rule="evenodd" clip-rule="evenodd" d="M61.3333 31.9998C61.3333 48.2002 48.2004 61.3332 32 61.3332C15.7997 61.3332 2.66667 48.2002 2.66667 31.9998C2.66667 15.7995 15.7997 2.6665 32 2.6665C48.2004 2.6665 61.3333 15.7995 61.3333 31.9998ZM32 13.3332C30.5272 13.3332 29.3333 14.5271 29.3333 15.9998V31.9998C29.3333 33.4726 30.5272 34.6665 32 34.6665H45.3333C46.8061 34.6665 48 33.4726 48 31.9998C48 30.5271 46.8061 29.3332 45.3333 29.3332H34.6667V15.9998C34.6667 14.5271 33.4728 13.3332 32 13.3332Z" fill="#18202A"/>
</svg>
