<svg width="64" height="64" viewBox="0 0 64 64" fill="none" xmlns="http://www.w3.org/2000/svg">
<path d="M0 18.6667C0 12.7756 4.77563 8 10.6667 8H37.3333C43.2244 8 48 12.7756 48 18.6667V45.3333C48 51.2244 43.2244 56 37.3333 56H10.6667C4.77563 56 0 51.2244 0 45.3333V18.6667Z" fill="#18202A"/>
<path d="M50.6667 24.2993C50.6667 23.4416 51.0792 22.6363 51.7752 22.1352L59.7752 16.3752C61.5391 15.1052 64 16.3657 64 18.5393V45.4607C64 47.6343 61.5391 48.8948 59.7752 47.6248L51.7752 41.8648C51.0792 41.3637 50.6667 40.5584 50.6667 37.034V24.2993Z" fill="#18202A"/>
</svg>
