<svg width="64" height="64" viewBox="0 0 64 64" fill="none" xmlns="http://www.w3.org/2000/svg">
<path fill-rule="evenodd" clip-rule="evenodd" d="M53.3333 21.3332V42.0316L32.6349 21.3332H53.3333ZM53.3333 15.9998H27.3016L15.6235 4.32178C17.2744 3.27356 19.233 2.6665 21.3333 2.6665H42.6667C48.5577 2.6665 53.3333 7.44213 53.3333 13.3332V15.9998ZM17.5587 21.3332L3.62997 7.40439C2.45012 6.22455 2.33864 4.42312 3.38096 3.38079C4.42329 2.33847 6.22471 2.44995 7.40456 3.6298L60.37 56.5953C61.5499 57.7751 61.6614 59.5766 60.619 60.6189C59.5767 61.6612 57.7753 61.5497 56.5954 60.3699L53.3333 57.1078V58.6665C53.3333 60.864 50.8246 62.1183 49.0667 60.7998L35.2 50.3998C33.3037 48.9776 30.6963 48.9776 28.8 50.3998L14.9333 60.7998C13.1754 62.1183 10.6667 60.864 10.6667 58.6665V21.3332H17.5587Z" fill="#18202A"/>
</svg>
