<svg width="64" height="64" viewBox="0 0 64 64" fill="none" xmlns="http://www.w3.org/2000/svg">
<path d="M21.3333 7.99992C21.3333 7.01647 20.792 6.11284 19.9249 5.64879C19.0578 5.18474 18.0057 5.2356 17.1874 5.78112L9.18738 11.1145C7.96197 11.9314 7.63084 13.587 8.44778 14.8125C9.26472 16.0379 10.9204 16.369 12.1458 15.5521L15.9999 12.9826V23.9999C15.9999 25.4727 17.1938 26.6666 18.6666 26.6666C20.1393 26.6666 21.3333 25.4727 21.3333 23.9999V7.99992Z" fill="#18202A"/>
<path d="M13.3333 39.9999C13.3333 39.1769 14.4056 37.3333 17.3333 37.3333C20.0501 37.3333 21.3333 38.9887 21.3333 40.6666C21.3333 41.3761 21.1567 41.8852 20.1761 42.8045C19.3791 43.5517 18.3451 44.3051 16.8918 45.364C16.1716 45.8888 15.3484 46.4886 14.4 47.1999L9.06664 51.1999C8.14838 51.8886 7.77384 53.0876 8.13681 54.1765C8.49978 55.2654 9.51882 55.9999 10.6666 55.9999H24C25.4727 55.9999 26.6666 54.806 26.6666 53.3333C26.6666 51.8605 25.4727 50.6666 24 50.6666H18.679C19.0221 50.4147 19.3594 50.1687 19.6891 49.9283C21.3265 48.7343 22.7774 47.6763 23.8238 46.6954C25.5099 45.1146 26.6666 43.2904 26.6666 40.6666C26.6666 35.6778 22.6165 31.9999 17.3333 31.9999C12.261 31.9999 7.99997 35.4897 7.99997 39.9999C7.99997 41.4727 9.19388 42.6666 10.6666 42.6666C12.1394 42.6666 13.3333 41.4727 13.3333 39.9999Z" fill="#18202A"/>
<path d="M32 13.3333C32 11.8605 33.1939 10.6666 34.6666 10.6666H56C57.4727 10.6666 58.6666 11.8605 58.6666 13.3333C58.6666 14.806 57.4727 15.9999 56 15.9999H34.6666C33.1939 15.9999 32 14.806 32 13.3333Z" fill="#18202A"/>
<path d="M34.6666 18.6666C33.1939 18.6666 32 19.8605 32 21.3333C32 22.806 33.1939 23.9999 34.6666 23.9999H56C57.4727 23.9999 58.6666 22.806 58.6666 21.3333C58.6666 19.8605 57.4727 18.6666 56 18.6666H34.6666Z" fill="#18202A"/>
<path d="M32 42.6666C32 41.1938 33.1939 39.9999 34.6666 39.9999H56C57.4727 39.9999 58.6666 41.1938 58.6666 42.6666C58.6666 44.1393 57.4727 45.3333 56 45.3333H34.6666C33.1939 45.3333 32 44.1393 32 42.6666Z" fill="#18202A"/>
<path d="M34.6666 47.9999C33.1939 47.9999 32 49.1938 32 50.6666C32 52.1393 33.1939 53.3333 34.6666 53.3333H56C57.4727 53.3333 58.6666 52.1393 58.6666 50.6666C58.6666 49.1938 57.4727 47.9999 56 47.9999H34.6666Z" fill="#18202A"/>
</svg>
