<svg width="64" height="64" viewBox="0 0 64 64" fill="none" xmlns="http://www.w3.org/2000/svg">
<path d="M16 8H13.3333C8.91505 8 5.33333 11.5817 5.33333 16V18.6667C5.33333 23.0849 8.91505 26.6667 13.3333 26.6667H16C20.4183 26.6667 24 23.0849 24 18.6667V16C24 11.5817 20.4183 8 16 8Z" fill="#18202A"/>
<path d="M16 37.3333H13.3333C8.91505 37.3333 5.33333 40.9151 5.33333 45.3333V48C5.33333 52.4183 8.91505 56 13.3333 56H16C20.4183 56 24 52.4183 24 48V45.3333C24 40.9151 20.4183 37.3333 16 37.3333Z" fill="#18202A"/>
<path fill-rule="evenodd" clip-rule="evenodd" d="M29.3333 13.3333C29.3333 11.8606 30.5272 10.6667 32 10.6667H56C57.4728 10.6667 58.6667 11.8606 58.6667 13.3333C58.6667 14.8061 57.4728 16 56 16H32C30.5272 16 29.3333 14.8061 29.3333 13.3333Z" fill="#18202A"/>
<path fill-rule="evenodd" clip-rule="evenodd" d="M29.3333 21.3333C29.3333 19.8606 30.5272 18.6667 32 18.6667H56C57.4728 18.6667 58.6667 19.8606 58.6667 21.3333C58.6667 22.8061 57.4728 24 56 24H32C30.5272 24 29.3333 22.8061 29.3333 21.3333Z" fill="#18202A"/>
<path fill-rule="evenodd" clip-rule="evenodd" d="M29.3333 42.6667C29.3333 41.1939 30.5272 40 32 40H56C57.4728 40 58.6667 41.1939 58.6667 42.6667C58.6667 44.1394 57.4728 45.3333 56 45.3333H32C30.5272 45.3333 29.3333 44.1394 29.3333 42.6667Z" fill="#18202A"/>
<path fill-rule="evenodd" clip-rule="evenodd" d="M29.3333 50.6667C29.3333 49.1939 30.5272 48 32 48H56C57.4728 48 58.6667 49.1939 58.6667 50.6667C58.6667 52.1394 57.4728 53.3333 56 53.3333H32C30.5272 53.3333 29.3333 52.1394 29.3333 50.6667Z" fill="#18202A"/>
</svg>
