<svg width="64" height="64" viewBox="0 0 64 64" fill="none" xmlns="http://www.w3.org/2000/svg">
<path d="M5.33335 7.33331C5.33335 6.22874 6.22878 5.33331 7.33335 5.33331H56.6667C57.7713 5.33331 58.6667 6.22874 58.6667 7.33331C58.6667 8.43788 57.7713 9.33331 56.6667 9.33331H7.33335C6.22879 9.33331 5.33335 8.43788 5.33335 7.33331Z" fill="#18202A"/>
<path d="M5.33335 56.6666C5.33335 55.5621 6.22878 54.6666 7.33335 54.6666H56.6667C57.7713 54.6666 58.6667 55.5621 58.6667 56.6666C58.6667 57.7712 57.7713 58.6666 56.6667 58.6666H7.33335C6.22879 58.6666 5.33335 57.7712 5.33335 56.6666Z" fill="#18202A"/>
<path fill-rule="evenodd" clip-rule="evenodd" d="M2.66669 21.3333C2.66669 16.915 6.24841 13.3333 10.6667 13.3333H53.3334C57.7516 13.3333 61.3334 16.915 61.3334 21.3333V42.6666C61.3334 47.0849 57.7516 50.6666 53.3334 50.6666H10.6667C6.24841 50.6666 2.66669 47.0849 2.66669 42.6666V21.3333ZM10.6667 17.3333H53.3334C55.5425 17.3333 57.3334 19.1242 57.3334 21.3333V42.6666C57.3334 44.8758 55.5425 46.6666 53.3334 46.6666H10.6667C8.45755 46.6666 6.66669 44.8758 6.66669 42.6666V21.3333C6.66669 19.1242 8.45755 17.3333 10.6667 17.3333Z" fill="#18202A"/>
</svg>
