<svg width="64" height="64" viewBox="0 0 64 64" fill="none" xmlns="http://www.w3.org/2000/svg">
<path fill-rule="evenodd" clip-rule="evenodd" d="M52.0809 11.919C52.8619 12.7001 52.8619 13.9664 52.0809 14.7475L14.7475 52.0808C13.9665 52.8618 12.7001 52.8618 11.9191 52.0808C11.1381 51.2997 11.1381 50.0334 11.9191 49.2524L49.2524 11.919C50.0335 11.138 51.2998 11.138 52.0809 11.919Z" fill="#18202A"/>
<path fill-rule="evenodd" clip-rule="evenodd" d="M11.9191 11.919C12.7001 11.138 13.9665 11.138 14.7475 11.919L52.0809 49.2524C52.8619 50.0334 52.8619 51.2997 52.0809 52.0808C51.2998 52.8618 50.0335 52.8618 49.2524 52.0808L11.9191 14.7475C11.1381 13.9664 11.1381 12.7001 11.9191 11.919Z" fill="#18202A"/>
</svg>
