<svg width="64" height="64" viewBox="0 0 64 64" fill="none" xmlns="http://www.w3.org/2000/svg">
<path fill-rule="evenodd" clip-rule="evenodd" d="M6.66669 32C6.66669 45.9912 18.0088 57.3333 32 57.3333C45.9912 57.3333 57.3334 45.9912 57.3334 32C57.3334 18.0087 45.9912 6.66663 32 6.66663C18.0088 6.66663 6.66669 18.0087 6.66669 32ZM2.66669 32C2.66669 48.2003 15.7997 61.3333 32 61.3333C48.2004 61.3333 61.3334 48.2003 61.3334 32C61.3334 15.7996 48.2004 2.66663 32 2.66663C15.7997 2.66663 2.66669 15.7996 2.66669 32Z" fill="#18202A"/>
<path fill-rule="evenodd" clip-rule="evenodd" d="M44.0809 27.9191C44.862 28.7001 44.862 29.9665 44.0809 30.7475L33.4142 41.4142C32.6332 42.1952 31.3669 42.1952 30.5858 41.4142L19.9191 30.7475C19.1381 29.9665 19.1381 28.7001 19.9191 27.9191C20.7002 27.138 21.9665 27.138 22.7476 27.9191L32 37.1715L41.2525 27.9191C42.0335 27.138 43.2999 27.138 44.0809 27.9191Z" fill="#18202A"/>
</svg>
