<svg width="64" height="64" viewBox="0 0 64 64" fill="none" xmlns="http://www.w3.org/2000/svg">
<path fill-rule="evenodd" clip-rule="evenodd" d="M42.6667 14.3337C42.6667 22.667 39.1111 29.3337 32 29.3337C24.8889 29.3337 21.3334 22.667 21.3334 14.3337C21.3334 7.66699 24.8889 2.66699 32 2.66699C39.1111 2.66699 42.6667 7.66699 42.6667 14.3337ZM38.6667 14.3337C38.6667 18.0086 37.8712 20.9126 36.6561 22.7637C35.5487 24.4507 34.0868 25.3337 32 25.3337C29.9132 25.3337 28.4514 24.4507 27.344 22.7637C26.1289 20.9126 25.3334 18.0086 25.3334 14.3337C25.3334 11.6674 26.0455 9.76553 27.0428 8.5968C27.963 7.51842 29.4561 6.66699 32 6.66699C34.544 6.66699 36.0371 7.51842 36.9573 8.5968C37.9546 9.76553 38.6667 11.6674 38.6667 14.3337Z" fill="#18202A"/>
<path fill-rule="evenodd" clip-rule="evenodd" d="M51.4671 53.8257C49.9581 56.8232 47.203 59.0006 43.9522 59.8337C40.1312 60.813 36.1264 61.3337 32 61.3337C27.8736 61.3337 23.8689 60.813 20.0478 59.8337C16.797 59.0006 14.0419 56.8232 12.533 53.8257C12.0857 52.9372 11.6685 52.0309 11.2829 51.1081C9.6442 47.1873 10.2973 42.6001 13.3315 39.625C18.1417 34.9086 24.7312 32.0003 32 32.0003C39.2688 32.0003 45.8583 34.9086 50.6685 39.6249C53.7028 42.6 54.3558 47.1873 52.7171 51.1081C52.3315 52.0308 51.9143 52.9371 51.4671 53.8257ZM42.9592 55.9589C39.4599 56.8557 35.7887 57.3337 32 57.3337C28.2114 57.3337 24.5401 56.8557 21.0408 55.9589C18.8826 55.4058 17.0827 53.9677 16.1058 52.0271C15.7006 51.2222 15.3228 50.4013 14.9735 49.5656C13.8817 46.9534 14.4151 44.1646 16.132 42.4811C20.2247 38.4682 25.8202 36.0003 32 36.0003C38.1799 36.0003 43.7753 38.4681 47.868 42.4811C49.585 44.1645 50.1183 46.9534 49.0265 49.5656C48.6772 50.4013 48.2994 51.2222 47.8942 52.0271C46.9173 53.9677 45.1175 55.4058 42.9592 55.9589Z" fill="#18202A"/>
</svg>
