<svg width="64" height="64" viewBox="0 0 64 64" fill="none" xmlns="http://www.w3.org/2000/svg">
<path fill-rule="evenodd" clip-rule="evenodd" d="M40 18.75C40 25 37.3333 30 32 30C26.6667 30 24 25 24 18.75C24 13.75 26.6667 10 32 10C37.3333 10 40 13.75 40 18.75ZM37 18.75C37 21.5062 36.4033 23.6842 35.492 25.0725C34.6615 26.3378 33.5651 27 32 27C30.4349 27 29.3385 26.3378 28.508 25.0725C27.5967 23.6842 27 21.5062 27 18.75C27 16.7503 27.5341 15.3239 28.2821 14.4474C28.9722 13.6386 30.092 13 32 13C33.908 13 35.0278 13.6386 35.7179 14.4474C36.4659 15.3239 37 16.7503 37 18.75ZM46.9679 40C47.1608 40 47.3416 39.9444 47.4983 39.8482C47.1394 39.0681 46.6409 38.3455 46.0013 37.7184C42.3937 34.1812 37.4516 32 32 32C26.5484 32 21.6063 34.1812 17.9986 37.7185C15.7229 39.9498 15.2331 43.3902 16.4622 46.3308C16.7514 47.0229 17.0642 47.7026 17.3997 48.369C18.5314 50.6171 20.5978 52.2502 23.0358 52.875C25.0711 53.3966 27.1758 53.7448 29.3333 53.9027V50.894C27.4308 50.742 25.5756 50.429 23.7806 49.969C22.1619 49.5541 20.812 48.4755 20.0793 47.0201C19.7754 46.4164 19.4921 45.8007 19.2301 45.174C18.4113 43.2148 18.8113 41.1232 20.099 39.8606C23.1685 36.8509 27.3651 35 32 35C36.6349 35 40.8315 36.8509 43.901 39.8605C43.9473 39.906 43.9925 39.9525 44.0365 40H46.9679ZM52.6667 42C52.6667 40.5272 53.8606 39.3333 55.3333 39.3333C56.8061 39.3333 58 40.5272 58 42V44C58 45.1046 58.8954 46 60 46C61.1046 46 62 45.1046 62 44V42C62 38.3181 59.0152 35.3333 55.3333 35.3333C51.6514 35.3333 48.6667 38.3181 48.6667 42V45.3333H35.6667C35.1144 45.3333 34.6667 45.781 34.6667 46.3333V63C34.6667 63.5523 35.1144 64 35.6667 64H55C55.5523 64 56 63.5523 56 63V46.3333C56 45.781 55.5523 45.3333 55 45.3333H52.6667V42ZM45.3333 51.3333C46.4379 51.3333 47.3333 52.2288 47.3333 53.3333V56C47.3333 57.1046 46.4379 58 45.3333 58C44.2288 58 43.3333 57.1046 43.3333 56V53.3333C43.3333 52.2288 44.2288 51.3333 45.3333 51.3333Z" fill="#18202A"/>
</svg>
