<svg width="64" height="64" viewBox="0 0 64 64" fill="none" xmlns="http://www.w3.org/2000/svg">
<path fill-rule="evenodd" clip-rule="evenodd" d="M36.5679 6.1523C35.8206 6.46186 35.3333 7.19113 35.3333 8.00006V19.3681C28.2064 19.6183 20.5726 21.2724 14.5114 25.9501C7.78138 31.1439 3.33331 39.7943 3.33331 53.3334C3.33331 54.2359 3.9378 55.0267 4.80874 55.2634C5.6797 55.5001 6.60128 55.1242 7.05814 54.3458C10.6314 48.2579 13.398 44.6841 17.4785 42.496C21.3286 40.4314 26.5949 39.4698 35.3333 39.347V50.6667C35.3333 51.4757 35.8206 52.2049 36.5679 52.5145C37.3153 52.8241 38.1755 52.6529 38.7475 52.0809L60.0809 30.7476C60.8619 29.9666 60.8619 28.7002 60.0809 27.9192L38.7475 6.58584C38.1755 6.01385 37.3153 5.84274 36.5679 6.1523ZM55.8382 29.3334L39.3333 45.8383V37.3334C39.3333 36.2288 38.4379 35.3334 37.3333 35.3334C27.2837 35.3334 20.6528 36.255 15.5882 38.9708C12.5067 40.6232 10.1086 42.8845 7.89672 45.7704C9.19803 37.6588 12.6347 32.451 16.9552 29.1167C22.5894 24.7686 30.0738 23.3334 37.3333 23.3334C38.4379 23.3334 39.3333 22.438 39.3333 21.3334V12.8285L55.8382 29.3334Z" fill="#18202A"/>
</svg>
