<svg width="64" height="64" viewBox="0 0 64 64" fill="none" xmlns="http://www.w3.org/2000/svg">
<path fill-rule="evenodd" clip-rule="evenodd" d="M40 54.6668C42.2092 54.6668 44 52.876 44 50.6668C44 48.4577 42.2092 46.6668 40 46.6668C37.7909 46.6668 36 48.4577 36 50.6668C36 52.876 37.7909 54.6668 40 54.6668ZM40 58.6668C44.4183 58.6668 48 55.0851 48 50.6668C48 46.2486 44.4183 42.6668 40 42.6668C35.5817 42.6668 32 46.2486 32 50.6668C32 55.0851 35.5817 58.6668 40 58.6668Z" fill="#18202A"/>
<path fill-rule="evenodd" clip-rule="evenodd" d="M40 17.3335C42.2092 17.3335 44 15.5426 44 13.3335C44 11.1244 42.2092 9.3335 40 9.3335C37.7909 9.3335 36 11.1244 36 13.3335C36 15.5426 37.7909 17.3335 40 17.3335ZM40 21.3335C44.4183 21.3335 48 17.7518 48 13.3335C48 8.91522 44.4183 5.3335 40 5.3335C35.5817 5.3335 32 8.91522 32 13.3335C32 17.7518 35.5817 21.3335 40 21.3335Z" fill="#18202A"/>
<path fill-rule="evenodd" clip-rule="evenodd" d="M24 36.0002C26.2092 36.0002 28 34.2093 28 32.0002C28 29.791 26.2092 28.0002 24 28.0002C21.7909 28.0002 20 29.791 20 32.0002C20 34.2093 21.7909 36.0002 24 36.0002ZM24 40.0002C28.4183 40.0002 32 36.4184 32 32.0002C32 27.5819 28.4183 24.0002 24 24.0002C19.5817 24.0002 16 27.5819 16 32.0002C16 36.4184 19.5817 40.0002 24 40.0002Z" fill="#18202A"/>
<path d="M2.66669 50.6668C2.66669 49.5623 3.56212 48.6668 4.66669 48.6668H27.3334C28.4379 48.6668 29.3334 49.5623 29.3334 50.6668C29.3334 51.7714 28.4379 52.6668 27.3334 52.6668H4.66669C3.56212 52.6668 2.66669 51.7714 2.66669 50.6668Z" fill="#18202A"/>
<path d="M2.66669 13.3335C2.66669 12.2289 3.56212 11.3335 4.66669 11.3335H27.3334C28.4379 11.3335 29.3334 12.2289 29.3334 13.3335C29.3334 14.4381 28.4379 15.3335 27.3334 15.3335H4.66669C3.56212 15.3335 2.66669 14.4381 2.66669 13.3335Z" fill="#18202A"/>
<path d="M34.6667 32.0002C34.6667 30.8956 35.5621 30.0002 36.6667 30.0002H59.3334C60.4379 30.0002 61.3334 30.8956 61.3334 32.0002C61.3334 33.1047 60.4379 34.0002 59.3334 34.0002H36.6667C35.5621 34.0002 34.6667 33.1047 34.6667 32.0002Z" fill="#18202A"/>
<path d="M50.6667 50.6668C50.6667 49.5623 51.5621 48.6668 52.6667 48.6668H59.3334C60.4379 48.6668 61.3334 49.5623 61.3334 50.6668C61.3334 51.7714 60.4379 52.6668 59.3334 52.6668H52.6667C51.5621 52.6668 50.6667 51.7714 50.6667 50.6668Z" fill="#18202A"/>
<path d="M50.6667 13.3335C50.6667 12.2289 51.5621 11.3335 52.6667 11.3335H59.3334C60.4379 11.3335 61.3334 12.2289 61.3334 13.3335C61.3334 14.4381 60.4379 15.3335 59.3334 15.3335H52.6667C51.5621 15.3335 50.6667 14.4381 50.6667 13.3335Z" fill="#18202A"/>
<path d="M2.66669 32.0002C2.66669 30.8956 3.56212 30.0002 4.66669 30.0002H11.3334C12.4379 30.0002 13.3334 30.8956 13.3334 32.0002C13.3334 33.1047 12.4379 34.0002 11.3334 34.0002H4.66669C3.56212 34.0002 2.66669 33.1047 2.66669 32.0002Z" fill="#18202A"/>
</svg>
