<svg width="64" height="64" viewBox="0 0 64 64" fill="none" xmlns="http://www.w3.org/2000/svg">
<path fill-rule="evenodd" clip-rule="evenodd" d="M2.66667 13.3335C2.66667 8.91522 6.24839 5.3335 10.6667 5.3335H45.3333C48.8166 5.3335 51.7799 7.55965 52.8781 10.6668H10.6667V13.3335H50.6667C56.5577 13.3335 61.3333 18.1091 61.3333 24.0002V48.0002C61.3333 53.8912 56.5577 58.6668 50.6667 58.6668H13.3333C7.4423 58.6668 2.66667 53.8912 2.66667 48.0002V13.3335ZM37.3333 29.3335C34.3878 29.3335 32 31.7213 32 34.6668V40.0002C32 42.9457 34.3878 45.3335 37.3333 45.3335H56V29.3335H37.3333Z" fill="#18202A"/>
<path d="M42.6667 37.3335C42.6667 38.8063 41.4728 40.0002 40 40.0002C38.5272 40.0002 37.3333 38.8063 37.3333 37.3335C37.3333 35.8607 38.5272 34.6668 40 34.6668C41.4728 34.6668 42.6667 35.8607 42.6667 37.3335Z" fill="#18202A"/>
</svg>
