<svg width="64" height="64" viewBox="0 0 64 64" fill="none" xmlns="http://www.w3.org/2000/svg">
<path d="M26.6667 13.3334C26.6667 11.8607 27.8606 10.6667 29.3333 10.6667H50.6667C52.1394 10.6667 53.3333 11.8607 53.3333 13.3334C53.3333 14.8062 52.1394 16.0001 50.6667 16.0001H42.16L28.3393 48.0001H37.3333C38.8061 48.0001 40 49.194 40 50.6667C40 52.1395 38.8061 53.3334 37.3333 53.3334H10.6667C9.19391 53.3334 8 52.1395 8 50.6667C8 49.194 9.19391 48.0001 10.6667 48.0001H22.5298L36.3505 16.0001H29.3333C27.8606 16.0001 26.6667 14.8062 26.6667 13.3334Z" fill="#18202A"/>
</svg>
