<svg width="64" height="64" viewBox="0 0 64 64" fill="none" xmlns="http://www.w3.org/2000/svg">
<g clip-path="url(#clip0_2359_18343)">
<path d="M11.2661 11.1307L31.8725 5.60924C36.1402 4.4657 40.5269 6.99836 41.6705 11.2661L42.7665 15.3566L48.4205 15.8513L46.8221 9.88572C44.9162 2.77284 37.605 -1.44826 30.4921 0.457631L9.88572 5.9791C2.77284 7.88499 -1.44826 15.1962 0.457631 22.309L5.9791 42.9154C7.18309 47.4088 10.5442 50.7481 14.6497 52.1178C14.2891 50.702 14.157 49.2023 14.2915 47.6644L14.4262 46.1249C12.8618 45.0847 11.6552 43.4924 11.1307 41.5351L5.60924 20.9287C4.4657 16.6609 6.99836 12.2742 11.2661 11.1307Z" fill="#18202A"/>
<path d="M32.8274 28.1166C32.7633 28.8502 32.1166 29.3928 31.383 29.3287C30.6494 29.2645 30.1068 28.6178 30.1709 27.8842C30.2351 27.1506 30.8818 26.608 31.6154 26.6721C32.349 26.7363 32.8916 27.383 32.8274 28.1166Z" fill="#18202A"/>
<path fill-rule="evenodd" clip-rule="evenodd" d="M14.6497 52.1178C14.5595 51.7639 14.4837 51.4049 14.4227 51.0412C14.2431 49.9701 14.1925 48.8598 14.2861 47.7285L14.2915 47.6644L16.1509 26.4123C16.7927 19.0765 23.2598 13.65 30.5955 14.2918L51.8477 16.1511C59.1834 16.7929 64.61 23.26 63.9682 30.5958L62.1089 51.8479C61.4671 59.1837 55 64.6102 47.6642 63.9684L26.4121 62.1091C20.6141 61.6019 16.0089 57.4556 14.6497 52.1178ZM30.9182 34.6417C34.586 34.9626 37.8196 32.2493 38.1405 28.5814C38.4614 24.9135 35.7481 21.68 32.0802 21.3591C28.4123 21.0382 25.1788 23.7515 24.8579 27.4194C24.537 31.0872 27.2503 34.3208 30.9182 34.6417ZM62.4328 48.0052L49.6214 32.6197L36.0065 42.4444L29.6759 37.4244L16 47.3789L19.1387 51.6909L29.5378 44.1215L35.8549 49.1309L48.7071 39.8564L58.3343 51.4179L62.4328 48.0052Z" fill="#18202A"/>
<path fill-rule="evenodd" clip-rule="evenodd" d="M51.3828 21.4641L30.1307 19.6048C25.7292 19.2197 21.849 22.4757 21.4639 26.8771L19.6046 48.1293C19.2195 52.5307 22.4754 56.411 26.8769 56.7961L48.129 58.6554C52.5305 59.0405 56.4108 55.7846 56.7958 51.3831L58.6552 30.1309C59.0402 25.7295 55.7843 21.8492 51.3828 21.4641ZM30.5955 14.2918C23.2598 13.65 16.7927 19.0765 16.1509 26.4123L14.2915 47.6644C13.6497 55.0002 19.0763 61.4673 26.4121 62.1091L47.6642 63.9684C55 64.6102 61.4671 59.1837 62.1089 51.8479L63.9682 30.5958C64.61 23.26 59.1834 16.7929 51.8477 16.1511L30.5955 14.2918Z" fill="#18202A"/>
</g>
<defs>
<clipPath id="clip0_2359_18343">
<rect width="64" height="64" fill="white"/>
</clipPath>
</defs>
</svg>
