<svg width="64" height="64" viewBox="0 0 64 64" fill="none" xmlns="http://www.w3.org/2000/svg">
<path fill-rule="evenodd" clip-rule="evenodd" d="M27.7329 23.0516C26.0901 22.0566 24 23.2511 24 25.185V38.7881C24 40.7219 26.0901 41.9164 27.7329 40.9215L38.9634 34.1199C40.5589 33.1536 40.5589 30.8195 38.9634 29.8531L27.7329 23.0516ZM28 36.0833V27.8897L34.7645 31.9865L28 36.0833Z" fill="#18202A"/>
<path d="M18.6667 11.9998V17.3332H13.3334V11.9998H18.6667Z" fill="#18202A"/>
<path d="M18.6667 51.9998V46.6665H13.3334V51.9998H18.6667Z" fill="#18202A"/>
<path d="M24 11.9998H29.3334V17.3332H24V11.9998Z" fill="#18202A"/>
<path d="M29.3334 46.6665H24V51.9998H29.3334V46.6665Z" fill="#18202A"/>
<path d="M34.6667 11.9998H40V17.3332H34.6667V11.9998Z" fill="#18202A"/>
<path d="M40 46.6665H34.6667V51.9998H40V46.6665Z" fill="#18202A"/>
<path d="M50.6667 11.9998V17.3332H45.3334V11.9998H50.6667Z" fill="#18202A"/>
<path d="M50.6667 51.9998V46.6665H45.3334V51.9998H50.6667Z" fill="#18202A"/>
<path fill-rule="evenodd" clip-rule="evenodd" d="M2.66669 15.9998C2.66669 8.63604 8.63622 2.6665 16 2.6665H48C55.3638 2.6665 61.3334 8.63604 61.3334 15.9998V47.9998C61.3334 55.3636 55.3638 61.3332 48 61.3332H16C8.63623 61.3332 2.66669 55.3636 2.66669 47.9998V15.9998ZM16 6.6665H48C53.1547 6.6665 57.3334 10.8452 57.3334 15.9998V47.9998C57.3334 53.1545 53.1547 57.3332 48 57.3332H16C10.8454 57.3332 6.66669 53.1545 6.66669 47.9998V15.9998C6.66669 10.8452 10.8454 6.6665 16 6.6665Z" fill="#18202A"/>
</svg>
