<svg width="64" height="64" viewBox="0 0 64 64" fill="none" xmlns="http://www.w3.org/2000/svg">
<path d="M16 5.33332C16 3.86056 17.1939 2.66666 18.6666 2.66666C20.1394 2.66666 21.3333 3.86056 21.3333 5.33332V16C21.3333 17.4727 20.1394 18.6667 18.6666 18.6667C17.1939 18.6667 16 17.4727 16 16V5.33332Z" fill="#18202A"/>
<path d="M42.6666 5.33332C42.6666 3.86056 43.8605 2.66666 45.3333 2.66666C46.8061 2.66666 48 3.86056 48 5.33332V16C48 17.4727 46.8061 18.6667 45.3333 18.6667C43.8605 18.6667 42.6666 17.4727 42.6666 16V5.33332Z" fill="#18202A"/>
<path fill-rule="evenodd" clip-rule="evenodd" d="M13.3333 7.99999C7.44226 7.99999 2.66663 12.7756 2.66663 18.6667V50.6667C2.66663 56.5577 7.44226 61.3333 13.3333 61.3333H50.6666C56.5577 61.3333 61.3333 56.5577 61.3333 50.6667V18.6667C61.3333 12.7756 56.5577 7.99999 50.6666 7.99999H13.3333ZM13.3333 26.6667C13.3333 25.1939 14.5272 24 16 24H48C49.4727 24 50.6666 25.1939 50.6666 26.6667C50.6666 28.1394 49.4727 29.3333 48 29.3333H16C14.5272 29.3333 13.3333 28.1394 13.3333 26.6667ZM13.3333 37.3333C13.3333 35.8606 14.5272 34.6667 16 34.6667C17.4727 34.6667 18.6666 35.8606 18.6666 37.3333C18.6666 38.8061 17.4727 40 16 40C14.5272 40 13.3333 38.8061 13.3333 37.3333ZM16 45.3333C14.5272 45.3333 13.3333 46.5272 13.3333 48C13.3333 49.4727 14.5272 50.6667 16 50.6667C17.4727 50.6667 18.6666 49.4727 18.6666 48C18.6666 46.5272 17.4727 45.3333 16 45.3333ZM24 37.3333C24 35.8606 25.1939 34.6667 26.6666 34.6667C28.1394 34.6667 29.3333 35.8606 29.3333 37.3333C29.3333 38.8061 28.1394 40 26.6666 40C25.1939 40 24 38.8061 24 37.3333ZM26.6666 45.3333C25.1939 45.3333 24 46.5272 24 48C24 49.4727 25.1939 50.6667 26.6666 50.6667C28.1394 50.6667 29.3333 49.4727 29.3333 48C29.3333 46.5272 28.1394 45.3333 26.6666 45.3333ZM34.6666 37.3333C34.6666 35.8606 35.8605 34.6667 37.3333 34.6667C38.8061 34.6667 40 35.8606 40 37.3333C40 38.8061 38.8061 40 37.3333 40C35.8605 40 34.6666 38.8061 34.6666 37.3333ZM37.3333 45.3333C35.8605 45.3333 34.6666 46.5272 34.6666 48C34.6666 49.4727 35.8605 50.6667 37.3333 50.6667C38.8061 50.6667 40 49.4727 40 48C40 46.5272 38.8061 45.3333 37.3333 45.3333ZM45.3333 37.3333C45.3333 35.8606 46.5272 34.6667 48 34.6667C49.4727 34.6667 50.6666 35.8606 50.6666 37.3333C50.6666 38.8061 49.4727 40 48 40C46.5272 40 45.3333 38.8061 45.3333 37.3333ZM48 45.3333C46.5272 45.3333 45.3333 46.5272 45.3333 48C45.3333 49.4727 46.5272 50.6667 48 50.6667C49.4727 50.6667 50.6666 49.4727 50.6666 48C50.6666 46.5272 49.4727 45.3333 48 45.3333Z" fill="#18202A"/>
</svg>
