<svg width="64" height="64" viewBox="0 0 64 64" fill="none" xmlns="http://www.w3.org/2000/svg">
<path fill-rule="evenodd" clip-rule="evenodd" d="M32 57.3332C45.9912 57.3332 57.3334 45.9911 57.3334 31.9998C57.3334 18.0086 45.9912 6.6665 32 6.6665C18.0088 6.6665 6.66669 18.0086 6.66669 31.9998C6.66669 45.9911 18.0088 57.3332 32 57.3332ZM32 61.3332C48.2004 61.3332 61.3334 48.2002 61.3334 31.9998C61.3334 15.7995 48.2004 2.6665 32 2.6665C15.7997 2.6665 2.66669 15.7995 2.66669 31.9998C2.66669 48.2002 15.7997 61.3332 32 61.3332Z" fill="#18202A"/>
<path fill-rule="evenodd" clip-rule="evenodd" d="M31.1056 3.54432C31.6686 3.26279 32.3314 3.26279 32.8944 3.54432C43.1032 8.64871 48 19.8256 48 30.9998C48 42.1883 43.1091 53.9026 33.0815 60.3489C32.4227 60.7724 31.5773 60.7724 30.9185 60.3489C20.8909 53.9026 16 42.1883 16 30.9998C16 19.8256 20.8968 8.64871 31.1056 3.54432ZM30 8.88122C23.4273 13.6586 20 22.0707 20 30.9998C20 39.8591 23.3879 48.8259 30 54.6549V8.88122ZM34 54.6549V8.88122C40.5727 13.6586 44 22.0707 44 30.9998C44 39.8591 40.6121 48.8259 34 54.6549Z" fill="#18202A"/>
<path fill-rule="evenodd" clip-rule="evenodd" d="M58.6667 33.9998H5.33335V29.9998H58.6667V33.9998Z" fill="#18202A"/>
</svg>
