<svg width="64" height="64" viewBox="0 0 64 64" fill="none" xmlns="http://www.w3.org/2000/svg">
<path fill-rule="evenodd" clip-rule="evenodd" d="M45.1091 55.9998C44.1191 60.0946 39.9959 62.8565 35.6571 61.9268L14.3238 57.3553C10.6352 56.5649 8 53.3052 8 49.5329V10.6665C8 6.24822 11.5817 2.6665 16 2.6665H48C52.4183 2.6665 56 6.24823 56 10.6665V47.9998C56 52.4181 52.4183 55.9998 48 55.9998H45.1091ZM48 6.6665C50.2091 6.6665 52 8.45737 52 10.6665V47.9998C52 50.209 50.2091 51.9998 48 51.9998H45.3333V17.1342C45.3333 13.3619 42.6981 10.1022 39.0096 9.3118L26.6649 6.6665H48ZM38.1714 13.223L16.8381 8.65158C14.3481 8.118 12 10.0162 12 12.5628V49.5329C12 51.419 13.3176 53.0489 15.1619 53.4441L36.4952 58.0155C38.9853 58.5491 41.3333 56.6509 41.3333 54.1043V17.1342C41.3333 15.2481 40.0157 13.6182 38.1714 13.223ZM34.6667 39.9998C36.1394 39.9998 37.3333 38.209 37.3333 35.9998C37.3333 33.7907 36.1394 31.9998 34.6667 31.9998C33.1939 31.9998 32 33.7907 32 35.9998C32 38.209 33.1939 39.9998 34.6667 39.9998Z" fill="#18202A"/>
</svg>
