<svg width="64" height="64" viewBox="0 0 64 64" fill="none" xmlns="http://www.w3.org/2000/svg">
<path fill-rule="evenodd" clip-rule="evenodd" d="M18.6666 2.66669C17.1939 2.66669 16 3.86059 16 5.33335V8.00002H13.3333C7.44226 8.00002 2.66663 12.7757 2.66663 18.6667V50.6667C2.66663 56.5577 7.44226 61.3334 13.3333 61.3334H35.3458C33.2368 58.3098 32 54.6327 32 50.6667C32 46.4642 33.3887 42.586 35.7323 39.4662C35.0852 38.9796 34.6666 38.2054 34.6666 37.3334C34.6666 35.8606 35.8605 34.6667 37.3333 34.6667C38.2053 34.6667 38.9795 35.0852 39.4661 35.7324C42.586 33.3888 46.4641 32 50.6666 32C54.6326 32 58.3097 33.2369 61.3333 35.3459V18.6667C61.3333 12.7757 56.5577 8.00002 50.6666 8.00002H48V5.33335C48 3.86059 46.8061 2.66669 45.3333 2.66669C43.8605 2.66669 42.6666 3.86059 42.6666 5.33335V8.00002H21.3333V5.33335C21.3333 3.86059 20.1394 2.66669 18.6666 2.66669ZM13.3333 26.6667C13.3333 25.1939 14.5272 24 16 24H48C49.4727 24 50.6666 25.1939 50.6666 26.6667C50.6666 28.1394 49.4727 29.3334 48 29.3334H16C14.5272 29.3334 13.3333 28.1394 13.3333 26.6667ZM13.3333 37.3334C13.3333 35.8606 14.5272 34.6667 16 34.6667C17.4727 34.6667 18.6666 35.8606 18.6666 37.3334C18.6666 38.8061 17.4727 40 16 40C14.5272 40 13.3333 38.8061 13.3333 37.3334ZM16 45.3334C14.5272 45.3334 13.3333 46.5273 13.3333 48C13.3333 49.4728 14.5272 50.6667 16 50.6667C17.4727 50.6667 18.6666 49.4728 18.6666 48C18.6666 46.5273 17.4727 45.3334 16 45.3334ZM24 37.3334C24 35.8606 25.1939 34.6667 26.6666 34.6667C28.1394 34.6667 29.3333 35.8606 29.3333 37.3334C29.3333 38.8061 28.1394 40 26.6666 40C25.1939 40 24 38.8061 24 37.3334ZM26.6666 45.3334C25.1939 45.3334 24 46.5273 24 48C24 49.4728 25.1939 50.6667 26.6666 50.6667C28.1394 50.6667 29.3333 49.4728 29.3333 48C29.3333 46.5273 28.1394 45.3334 26.6666 45.3334ZM64 50.6667C64 58.0305 58.0304 64 50.6666 64C43.3028 64 37.3333 58.0305 37.3333 50.6667C37.3333 43.3029 43.3028 37.3334 50.6666 37.3334C58.0304 37.3334 64 43.3029 64 50.6667ZM50.6666 42.6667C49.1939 42.6667 48 43.8606 48 45.3334V48H45.3333C43.8605 48 42.6666 49.1939 42.6666 50.6667C42.6666 52.1394 43.8605 53.3334 45.3333 53.3334H48V56C48 57.4728 49.1939 58.6667 50.6666 58.6667C52.1394 58.6667 53.3333 57.4728 53.3333 56V53.3334H56C57.4727 53.3334 58.6666 52.1394 58.6666 50.6667C58.6666 49.1939 57.4727 48 56 48H53.3333V45.3334C53.3333 43.8606 52.1394 42.6667 50.6666 42.6667Z" fill="#18202A"/>
</svg>
