<svg width="64" height="64" viewBox="0 0 64 64" fill="none" xmlns="http://www.w3.org/2000/svg">
<g clip-path="url(#clip0_3860_8791)">
<path d="M46.6636 8.00256C47.3999 8.00263 47.9967 8.59948 47.9968 9.33575L47.9999 36.7801C48 37.968 46.5637 38.563 45.7237 37.723L38.2764 30.2757C37.7557 29.755 36.9046 29.7605 36.3901 30.2873C24.8584 42.094 23.6712 48.7475 25.8972 59.2302C26.1795 60.5596 24.5978 61.4255 23.7276 60.3816C10.0208 43.9408 16.3649 29.4769 25.7361 19.6206C26.2435 19.0869 26.2448 18.2441 25.724 17.7234L18.2766 10.2762C17.4366 9.43617 18.0316 7.99989 19.2196 8L46.6636 8.00256Z" fill="#18202A"/>
</g>
<defs>
<clipPath id="clip0_3860_8791">
<rect width="64" height="64" fill="white"/>
</clipPath>
</defs>
</svg>
