<svg width="64" height="64" viewBox="0 0 64 64" fill="none" xmlns="http://www.w3.org/2000/svg">
<path d="M0 26.5942C0 22.1759 3.58172 18.5942 8 18.5942H10.6667V45.2608H8C3.58172 45.2608 0 41.6791 0 37.2608V26.5942Z" fill="#18202A"/>
<path d="M16 47.6982V16.1569L28.8358 4.42556C33.1141 0.515336 40 3.55053 40 9.34656V54.5091C40 60.3052 33.1139 63.3404 28.8356 59.43L16 47.6982Z" fill="#18202A"/>
<path d="M54.7481 18.8544C56.0485 18.163 57.6631 18.6566 58.3546 19.957C60.3736 23.7542 61.4295 28.1283 61.4295 32.5686C61.4295 37.0089 60.3736 41.3829 58.3546 45.1801C57.6631 46.4805 56.0485 46.9741 54.7481 46.2827C53.4477 45.5913 52.9541 43.9766 53.6455 42.6762C55.235 39.6869 56.0962 36.1785 56.0962 32.5686C56.0962 28.9587 55.235 25.4502 53.6455 22.4609C52.9541 21.1605 53.4477 19.5458 54.7481 18.8544Z" fill="#18202A"/>
<path d="M46.505 23.436C47.7246 22.6104 49.3825 22.9297 50.2082 24.1492C51.8762 26.6129 52.7518 29.6297 52.7518 32.692C52.7518 35.7543 51.8762 38.7711 50.2082 41.2347C49.3825 42.4543 47.7246 42.7736 46.505 41.9479C45.2855 41.1223 44.9662 39.4643 45.7918 38.2448C46.8215 36.7239 47.4184 34.7634 47.4184 32.692C47.4184 30.6206 46.8215 28.6601 45.7918 27.1392C44.9662 25.9197 45.2855 24.2617 46.505 23.436Z" fill="#18202A"/>
</svg>
