<svg width="64" height="64" viewBox="0 0 64 64" fill="none" xmlns="http://www.w3.org/2000/svg">
<path fill-rule="evenodd" clip-rule="evenodd" d="M27.219 16.5523C28.2604 15.5109 28.2604 13.8224 27.219 12.781C26.1776 11.7397 24.4892 11.7397 23.4478 12.781L6.11442 30.1144C5.07302 31.1558 5.07302 32.8442 6.11442 33.8856L23.4478 51.219C24.4892 52.2604 26.1776 52.2604 27.219 51.219C28.2604 50.1776 28.2604 48.4891 27.219 47.4477L11.7713 32L27.219 16.5523ZM36.7811 16.5523C35.7397 15.5109 35.7397 13.8224 36.7811 12.781C37.8225 11.7397 39.5109 11.7397 40.5523 12.781L57.8857 30.1144C58.9271 31.1558 58.9271 32.8442 57.8857 33.8856L40.5523 51.219C39.5109 52.2604 37.8225 52.2604 36.7811 51.219C35.7397 50.1776 35.7397 48.4891 36.7811 47.4477L52.2288 32L36.7811 16.5523Z" fill="#18202A"/>
</svg>
