<svg width="64" height="64" viewBox="0 0 64 64" fill="none" xmlns="http://www.w3.org/2000/svg">
<g clip-path="url(#clip0_3394_8786)">
<path d="M50.6667 17.3332C50.6667 19.5423 48.8758 21.3332 46.6667 21.3332C44.4575 21.3332 42.6667 19.5423 42.6667 17.3332C42.6667 15.124 44.4575 13.3332 46.6667 13.3332C48.8758 13.3332 50.6667 15.124 50.6667 17.3332Z" fill="#18202A"/>
<path fill-rule="evenodd" clip-rule="evenodd" d="M51.0475 6.15795L50.6387 4.1591C50.461 3.29034 49.6966 2.6665 48.8099 2.6665H44.5235C43.6368 2.6665 42.8724 3.29034 42.6947 4.1591L42.2859 6.15795C41.1581 6.60041 40.1135 7.20868 39.1822 7.95275L37.2436 7.30637C36.4024 7.02589 35.4799 7.37592 35.0366 8.14386L32.8934 11.8559C32.45 12.6239 32.6081 13.5978 33.2716 14.186L34.7997 15.5408C34.7121 16.1255 34.6667 16.724 34.6667 17.3332C34.6667 17.9423 34.7121 18.5409 34.7997 19.1256L33.2716 20.4804C32.6081 21.0686 32.45 22.0425 32.8934 22.8105L35.0366 26.5225C35.4799 27.2905 36.4024 27.6405 37.2436 27.36L39.1822 26.7136C40.1135 27.4577 41.1581 28.0659 42.2859 28.5084L42.6947 30.5072C42.8724 31.376 43.6368 31.9998 44.5235 31.9998H48.8099C49.6966 31.9998 50.461 31.376 50.6387 30.5072L51.0475 28.5084C52.1753 28.0659 53.2198 27.4577 54.1511 26.7137L56.0898 27.3601C56.931 27.6406 57.8534 27.2906 58.2968 26.5226L60.44 22.8105C60.8833 22.0426 60.7253 21.0687 60.0617 20.4804L58.5337 19.1257C58.6213 18.5409 58.6667 17.9424 58.6667 17.3332C58.6667 16.724 58.6213 16.1255 58.5337 15.5407L60.0618 14.186C60.7253 13.5977 60.8834 12.6238 60.44 11.8559L58.2968 8.1438C57.8535 7.37586 56.931 7.02582 56.0898 7.30631L54.1512 7.9527C53.2199 7.20865 52.1753 6.6004 51.0475 6.15795ZM45.0727 8.50211L43.4546 9.1369C42.6297 9.4605 41.8639 9.90612 41.1796 10.4528L39.8204 11.5387L37.2637 10.6863L36.2088 12.5135L38.2215 14.298L37.9644 16.0148C37.9002 16.4431 37.8667 16.8832 37.8667 17.3332C37.8667 17.7831 37.9002 18.2233 37.9644 18.6516L38.2215 20.3684L36.2088 22.1529L37.2638 23.9801L39.8204 23.1277L41.1796 24.2136C41.8639 24.7602 42.6297 25.2058 43.4546 25.5294L45.0727 26.1642L45.6118 28.7998H47.7217L48.2608 26.1642L49.8788 25.5294C50.7037 25.2059 51.4695 24.7603 52.1538 24.2136L53.513 23.1277L56.0696 23.9802L57.1246 22.153L55.1119 20.3685L55.369 18.6517C55.4332 18.2233 55.4667 17.7832 55.4667 17.3332C55.4667 16.8832 55.4332 16.4431 55.369 16.0147L55.1119 14.2979L57.1246 12.5135L56.0696 10.6862L53.513 11.5387L52.1538 10.4528C51.4695 9.9061 50.7037 9.4605 49.8788 9.1369L48.2608 8.50211L47.7217 5.8665H45.6118L45.0727 8.50211Z" fill="#18202A"/>
<path fill-rule="evenodd" clip-rule="evenodd" d="M21.3333 50.6665C25.7516 50.6665 29.3333 47.0848 29.3333 42.6665C29.3333 38.2482 25.7516 34.6665 21.3333 34.6665C16.9151 34.6665 13.3333 38.2482 13.3333 42.6665C13.3333 47.0848 16.9151 50.6665 21.3333 50.6665ZM21.3333 46.6665C23.5425 46.6665 25.3333 44.8756 25.3333 42.6665C25.3333 40.4574 23.5425 38.6665 21.3333 38.6665C19.1242 38.6665 17.3333 40.4574 17.3333 42.6665C17.3333 44.8756 19.1242 46.6665 21.3333 46.6665Z" fill="#18202A"/>
<path fill-rule="evenodd" clip-rule="evenodd" d="M40.2682 35.4628L37.0393 29.8702C36.5928 29.0967 35.6608 28.748 34.8161 29.0382L31.385 30.2174C30.1014 29.1797 28.6541 28.3365 27.0878 27.7325L26.3943 24.1759C26.2233 23.2992 25.4553 22.6665 24.5621 22.6665H18.1044C17.2113 22.6665 16.4432 23.2992 16.2723 24.1759L15.5787 27.7325C14.0124 28.3365 12.5649 29.1798 11.2812 30.2177L7.85021 29.0386C7.00552 28.7483 6.07355 29.0971 5.62696 29.8706L2.39812 35.4631C1.95153 36.2366 2.11547 37.2181 2.78921 37.8045L5.52454 40.1852C5.39863 40.9938 5.33329 41.8225 5.33329 42.6665C5.33329 43.5106 5.39866 44.3395 5.52461 45.1483L2.78942 47.5289C2.11568 48.1152 1.95174 49.0967 2.39833 49.8703L5.62717 55.4628C6.07376 56.2363 7.00573 56.585 7.85042 56.2948L11.2816 55.1156C12.5652 56.1533 14.0125 56.9965 15.5787 57.6005L16.2723 61.1571C16.4432 62.0338 17.2113 62.6665 18.1044 62.6665H24.5621C25.4553 62.6665 26.2233 62.0338 26.3943 61.1571L27.0878 57.6005C28.6539 56.9966 30.1011 56.1535 31.3846 55.1159L34.8159 56.2951C35.6606 56.5854 36.5925 56.2366 37.0391 55.4631L40.268 49.8706C40.7146 49.0971 40.5506 48.1156 39.8769 47.5292L37.1419 45.1488C37.2679 44.3399 37.3333 43.5108 37.3333 42.6665C37.3333 41.8224 37.2679 40.9935 37.142 40.1846L39.8771 37.8042C40.5508 37.2178 40.7148 36.2363 40.2682 35.4628ZM19.0815 30.669L17.0178 31.4647C15.846 31.9165 14.7606 32.5484 13.796 33.3282L12.0746 34.72L8.2123 33.3926L6.74098 35.9411L9.81673 38.618L9.47692 40.8005C9.3826 41.4063 9.33329 42.0293 9.33329 42.6665C9.33329 43.3038 9.38262 43.9269 9.47697 44.5328L9.81686 46.7154L6.74119 49.3923L8.21251 51.9407L12.0749 50.6133L13.7963 52.005C14.7608 52.7847 15.8461 53.4165 17.0178 53.8683L19.0815 54.664L19.862 58.6665H22.8046L23.5851 54.664L25.6488 53.8683C26.8204 53.4165 27.9056 52.7848 28.87 52.0052L30.5913 50.6137L34.4538 51.9411L35.9251 49.3926L32.8496 46.7159L33.1895 44.5332C33.2839 43.9272 33.3333 43.304 33.3333 42.6665C33.3333 42.0292 33.284 41.4061 33.1896 40.8001L32.8497 38.6175L35.9253 35.9407L34.454 33.3923L30.5916 34.7196L28.8702 33.328C27.9058 32.5483 26.8205 31.9165 25.6488 31.4647L23.5851 30.669L22.8046 26.6665H19.862L19.0815 30.669Z" fill="#18202A"/>
</g>
<defs>
<clipPath id="clip0_3394_8786">
<rect width="64" height="64" fill="white"/>
</clipPath>
</defs>
</svg>
