<svg width="64" height="64" viewBox="0 0 64 64" fill="none" xmlns="http://www.w3.org/2000/svg">
<path fill-rule="evenodd" clip-rule="evenodd" d="M8.58936 8.58936C9.37516 7.80355 10.6492 7.80355 11.435 8.58936L55.4106 52.565C55.4309 52.5852 55.4506 52.6057 55.4697 52.6266L55.7204 52.8772L55.6708 52.8841C56.1839 53.6648 56.0972 54.7241 55.4106 55.4106C54.6248 56.1965 53.3508 56.1965 52.565 55.4106L47.6384 50.4841C47.3814 51.1275 47.1092 51.7633 46.8222 52.3908C45.4037 55.493 42.4911 57.6411 39.1171 58.1426C36.7948 58.4878 34.4181 58.6667 31.9997 58.6667C29.5813 58.6667 27.2047 58.4878 24.8823 58.1426C21.5083 57.6411 18.5958 55.493 17.1773 52.3908C16.6767 51.2962 16.2211 50.1767 15.8127 49.0347C14.4165 45.1299 15.5851 40.6747 19.0777 38.4389C22.7613 36.0808 27.1315 34.7014 31.8217 34.6673L21.2018 24.0475C21.2893 24.5638 21.3331 25.1054 21.3331 25.6667C21.3331 30.6667 19.1109 34.6667 14.6664 34.6667C10.222 34.6667 7.99976 30.6667 7.99976 25.6667C7.99976 21.6667 10.222 18.6667 14.6664 18.6667C15.1005 18.6667 15.5133 18.6953 15.905 18.7506L8.58936 11.435C7.80355 10.6492 7.80355 9.37516 8.58936 8.58936ZM44.5244 47.3701L36.279 39.1247C34.9014 38.8247 33.4699 38.6667 31.9997 38.6667C28.029 38.6667 24.3399 39.8197 21.2343 41.8077C19.5489 42.8866 18.7103 45.2579 19.5792 47.688C19.9489 48.7221 20.3616 49.7359 20.815 50.7274C21.6578 52.5706 23.405 53.8791 25.4704 54.1861C27.5987 54.5024 29.7788 54.6667 31.9997 54.6667C34.2207 54.6667 36.4007 54.5024 38.529 54.1861C40.5945 53.8791 42.3417 52.5706 43.1845 50.7274C43.6379 49.7359 44.0505 48.7221 44.4203 47.688C44.4582 47.5819 44.4929 47.4759 44.5244 47.3701ZM16.3645 29.7839C16.8822 29.0268 17.3331 27.6477 17.3331 25.6667C17.3331 24.3727 16.9757 23.6604 16.6768 23.3241C16.4404 23.0582 15.9326 22.6667 14.6664 22.6667C13.4003 22.6667 12.8924 23.0582 12.6561 23.3241C12.3572 23.6604 11.9998 24.3727 11.9998 25.6667C11.9998 27.6477 12.4507 29.0268 12.9683 29.7839C13.377 30.3816 13.8395 30.6667 14.6664 30.6667C15.4933 30.6667 15.9558 30.3816 16.3645 29.7839Z" fill="#18202A"/>
<path d="M35.9998 20C35.9998 22.7444 35.4657 24.8644 34.7082 26.2082L37.5987 29.0987C39.1994 26.9044 39.9998 23.6523 39.9998 20C39.9998 14.6667 37.3331 10.6667 31.9998 10.6667C28.0886 10.6667 25.6115 12.8179 24.5686 16.0686L28.0099 19.5099C28.0852 17.7258 28.5685 16.5256 29.1232 15.8321C29.6312 15.1971 30.4381 14.6667 31.9998 14.6667C33.5614 14.6667 34.3683 15.1971 34.8763 15.8321C35.4804 16.5873 35.9998 17.9434 35.9998 20Z" fill="#18202A"/>
<path d="M59.6873 51.1873L56.8332 48.3332C57.4615 47.9152 57.9318 47.302 58.1664 46.5768C58.6625 45.0428 58.0018 43.7715 57.1428 43.319C55.5898 42.5008 53.8969 41.9112 52.106 41.5962C51.6044 40.0567 50.8101 38.6058 49.7142 37.3425C53.0627 37.4406 56.2176 38.3104 59.0073 39.7801C61.8629 41.2845 62.9655 44.7366 61.9723 47.8077C61.5348 49.1604 60.7322 50.3173 59.6873 51.1873Z" fill="#18202A"/>
<path fill-rule="evenodd" clip-rule="evenodd" d="M55.9998 25.6667C55.9998 30.6667 53.7775 34.6667 49.3331 34.6667C44.8886 34.6667 42.6664 30.6667 42.6664 25.6667C42.6664 21.6667 44.8886 18.6667 49.3331 18.6667C53.7775 18.6667 55.9998 21.6667 55.9998 25.6667ZM51.9998 25.6667C51.9998 27.6477 51.5488 29.0268 51.0312 29.7839C50.6225 30.3816 50.16 30.6667 49.3331 30.6667C48.5062 30.6667 48.0437 30.3816 47.635 29.7839C47.1173 29.0268 46.6664 27.6477 46.6664 25.6667C46.6664 24.3727 47.0238 23.6604 47.3227 23.3241C47.5591 23.0582 48.0669 22.6667 49.3331 22.6667C50.5992 22.6667 51.1071 23.0582 51.3435 23.3241C51.6424 23.6604 51.9998 24.3727 51.9998 25.6667Z" fill="#18202A"/>
<path d="M5.35362 39.3295C8.07048 38.0597 11.0991 37.3455 14.2933 37.3333C13.215 38.5738 12.4279 39.9957 11.9236 41.5049C10.2012 41.7483 8.56384 42.2444 7.04736 42.9532C6.06825 43.4109 5.29991 44.8096 5.84467 46.5054C6.27289 47.8384 7.44134 48.8161 8.9251 48.9992C9.84031 49.1122 10.7646 49.1971 11.6972 49.2531C11.7972 49.6337 11.9136 50.0103 12.0463 50.3813C12.4022 51.3768 12.791 52.3565 13.2112 53.3193C11.5982 53.2809 10.0049 53.1629 8.43502 52.9691C5.45198 52.6008 2.95563 50.5905 2.03635 47.7288C0.985662 44.4581 2.24146 40.7842 5.35362 39.3295Z" fill="#18202A"/>
</svg>
