<svg width="64" height="64" viewBox="0 0 64 64" fill="none" xmlns="http://www.w3.org/2000/svg">
<path fill-rule="evenodd" clip-rule="evenodd" d="M27.432 6.1523C28.1794 6.46186 28.6666 7.19113 28.6666 8.00006V19.3681C35.7935 19.6183 43.4274 21.2724 49.4886 25.9501C56.2186 31.1439 60.6666 39.7943 60.6666 53.3334C60.6666 54.2359 60.0622 55.0267 59.1912 55.2634C58.3203 55.5001 57.3987 55.1242 56.9418 54.3458C53.3685 48.2579 50.602 44.6841 46.5215 42.496C42.6714 40.4314 37.405 39.4698 28.6666 39.347V50.6667C28.6666 51.4757 28.1794 52.2049 27.432 52.5145C26.6847 52.8241 25.8244 52.6529 25.2524 52.0809L3.9191 30.7476C3.13805 29.9666 3.13805 28.7002 3.9191 27.9192L25.2524 6.58584C25.8244 6.01385 26.6847 5.84274 27.432 6.1523ZM8.16174 29.3334L24.6666 45.8383V37.3334C24.6666 36.2288 25.5621 35.3334 26.6666 35.3334C36.7163 35.3334 43.3471 36.255 48.4118 38.9708C51.4932 40.6232 53.8914 42.8845 56.1032 45.7704C54.8019 37.6588 51.3652 32.451 47.0447 29.1167C41.4105 24.7686 33.9262 23.3334 26.6666 23.3334C25.5621 23.3334 24.6666 22.438 24.6666 21.3334V12.8285L8.16174 29.3334Z" fill="#18202A"/>
</svg>
