<svg width="64" height="64" viewBox="0 0 64 64" fill="none" xmlns="http://www.w3.org/2000/svg">
<path fill-rule="evenodd" clip-rule="evenodd" d="M38.5149 4.0851C32.2142 2.61471 25.6014 3.31897 19.7517 6.08337C13.9021 8.84777 9.15955 13.5097 6.29534 19.3112C3.43114 25.1127 2.61371 31.7124 3.97595 38.0374C5.3382 44.3623 8.8 50.0404 13.7985 54.1485C18.797 58.2565 25.0381 60.5528 31.5071 60.6641C37.9762 60.7753 44.2926 58.6949 49.4293 54.7612C50.3063 54.0896 50.4728 52.8343 49.8012 51.9573C49.1296 51.0803 47.8743 50.9139 46.9973 51.5854C42.5773 54.9703 37.1423 56.7604 31.5759 56.6647C26.0095 56.569 20.6392 54.593 16.3382 51.0582C12.0372 47.5234 9.05845 42.6376 7.88629 37.1952C6.71412 31.7528 7.4175 26.0739 9.88204 21.0819C12.3466 16.09 16.4274 12.0785 21.4608 9.69987C26.4942 7.3212 32.1843 6.71521 37.6059 7.98043C43.0274 9.24566 47.8615 12.3077 51.3221 16.6686C54.7827 21.0295 56.6663 26.433 56.6667 32.0001V34.6666C56.6667 36.2579 56.0345 37.7841 54.9093 38.9093C53.7841 40.0345 52.258 40.6666 50.6667 40.6666C49.0754 40.6666 47.5493 40.0345 46.424 38.9093C45.2988 37.7841 44.6667 36.2579 44.6667 34.6666V21.3333C44.6667 20.2287 43.7712 19.3333 42.6667 19.3333C41.5621 19.3333 40.6667 20.2287 40.6667 21.3333V22.7624C38.4009 20.6358 35.3526 19.3333 32 19.3333C25.0044 19.3333 19.3333 25.0044 19.3333 32C19.3333 38.9956 25.0044 44.6667 32 44.6667C36.0881 44.6667 39.7238 42.73 42.0398 39.7241C42.4669 40.4527 42.9882 41.1303 43.5956 41.7377C45.471 43.6131 48.0145 44.6666 50.6667 44.6666C53.3188 44.6666 55.8624 43.6131 57.7377 41.7377C59.6131 39.8623 60.6667 37.3188 60.6667 34.6666V31.9998C60.6663 25.5299 58.4772 19.2503 54.4554 14.1822C50.4336 9.11406 44.8156 5.55549 38.5149 4.0851ZM23.3333 32C23.3333 27.2135 27.2135 23.3333 32 23.3333C36.7864 23.3333 40.6666 27.2135 40.6666 32C40.6666 36.7865 36.7864 40.6667 32 40.6667C27.2135 40.6667 23.3333 36.7865 23.3333 32Z" fill="#18202A"/>
</svg>
