<svg width="64" height="64" viewBox="0 0 64 64" fill="none" xmlns="http://www.w3.org/2000/svg">
<path fill-rule="evenodd" clip-rule="evenodd" d="M44.1306 52.6706C44.1306 51.566 43.2351 50.6706 42.1306 50.6706H7.46389C6.35932 50.6706 5.46389 51.566 5.46389 52.6706C5.46389 53.7751 6.35932 54.6706 7.46389 54.6706H42.1306C43.2351 54.6706 44.1306 53.7751 44.1306 52.6706Z" fill="#18202A"/>
<path fill-rule="evenodd" clip-rule="evenodd" d="M44.1306 10.0039C44.1306 8.89934 43.2351 8.00391 42.1306 8.00391H7.46389C6.35933 8.00391 5.46389 8.89934 5.46389 10.0039C5.46389 11.1085 6.35933 12.0039 7.46389 12.0039H42.1306C43.2351 12.0039 44.1306 11.1085 44.1306 10.0039Z" fill="#18202A"/>
<path d="M47.2525 24.7462C46.4714 23.9652 46.4714 22.6989 47.2525 21.9178C48.0335 21.1368 49.2999 21.1368 50.0809 21.9178L58.0809 29.9178C58.4948 30.3317 58.6893 30.8818 58.6646 31.4238C58.6425 32.0525 58.3331 32.6081 57.8637 32.9634L50.0809 40.7462C49.2999 41.5273 48.0335 41.5273 47.2525 40.7462C46.4714 39.9652 46.4714 38.6989 47.2525 37.9178L51.8004 33.3699L7.35204 33.3517C6.23624 33.3513 5.33208 32.4464 5.33253 31.3306C5.33299 30.2148 6.23789 29.3106 7.35369 29.3111L51.8355 29.3292L47.2525 24.7462Z" fill="#18202A"/>
</svg>
