<svg width="64" height="64" viewBox="0 0 64 64" fill="none" xmlns="http://www.w3.org/2000/svg">
<path fill-rule="evenodd" clip-rule="evenodd" d="M42.6667 14.3337C42.6667 22.667 39.1111 29.3337 32 29.3337C24.8889 29.3337 21.3333 22.667 21.3333 14.3337C21.3333 7.66699 24.8889 2.66699 32 2.66699C39.1111 2.66699 42.6667 7.66699 42.6667 14.3337ZM39.1327 35.6316C36.8624 35.0029 34.4705 34.667 32.0001 34.667C25.3468 34.667 19.2626 37.1036 14.5911 41.1331C11.0318 44.2033 10.3225 49.364 12.4084 53.5763C12.4497 53.6595 12.4912 53.7427 12.533 53.8257C14.0419 56.8231 16.797 59.0006 20.0478 59.8337C22.2156 60.3893 24.4426 60.7972 26.7173 61.0463C26.5255 59.2249 26.8715 57.3055 27.8844 55.5151L39.1327 35.6316Z" fill="#18202A"/>
<path fill-rule="evenodd" clip-rule="evenodd" d="M63.5728 59.1153C64.7937 61.2915 63.2522 64.0003 60.7929 64.0003H35.2071C32.7478 64.0003 31.2063 61.2916 32.4272 59.1153L45.2201 36.3109C46.4497 34.119 49.5503 34.119 50.7799 36.3109L63.5728 59.1153ZM48 42.667C46.8954 42.667 46 43.5624 46 44.667V50.0003C46 51.1049 46.8954 52.0003 48 52.0003C49.1046 52.0003 50 51.1049 50 50.0003V44.667C50 43.5624 49.1046 42.667 48 42.667ZM48 54.667C46.8954 54.667 46 55.5624 46 56.667C46 57.7716 46.8954 58.667 48 58.667C49.1046 58.667 50 57.7716 50 56.667C50 55.5624 49.1046 54.667 48 54.667Z" fill="#18202A"/>
</svg>
