<svg width="64" height="64" viewBox="0 0 64 64" fill="none" xmlns="http://www.w3.org/2000/svg">
<g clip-path="url(#clip0_3352_8943)">
<path fill-rule="evenodd" clip-rule="evenodd" d="M8.15959 9.21724C8.4735 8.47916 9.19799 8 10.0001 8H54.0001C54.8021 8 55.5266 8.47916 55.8405 9.21724C56.1544 9.95532 55.997 10.8095 55.4407 11.3873L38.6667 28.8064V54C38.6667 54.7656 38.2296 55.4641 37.541 55.7988C36.8524 56.1335 36.0331 56.0457 35.4311 55.5726L26.0977 48.2393C25.6152 47.8601 25.3334 47.2804 25.3334 46.6667V28.8064L8.55941 11.3873C8.00307 10.8095 7.84568 9.95532 8.15959 9.21724ZM14.7025 12L28.774 26.6127C29.1329 26.9854 29.3334 27.4826 29.3334 28V45.6946L34.6667 49.8851V28C34.6667 27.4826 34.8672 26.9854 35.2261 26.6127L49.2976 12H14.7025Z" fill="#18202A"/>
</g>
<defs>
<clipPath id="clip0_3352_8943">
<rect width="64" height="64" fill="white"/>
</clipPath>
</defs>
</svg>
