<svg width="64" height="64" viewBox="0 0 64 64" fill="none" xmlns="http://www.w3.org/2000/svg">
<g clip-path="url(#clip0_3291_8692)">
<g clip-path="url(#clip1_3291_8692)">
<path d="M24.2761 21.1641C23.2371 21.8568 22.6667 22.7758 22.6667 24C22.6667 25.1046 21.7713 26 20.6667 26C19.5621 26 18.6667 25.1046 18.6667 24C18.6667 21.2242 20.0964 19.1432 22.0573 17.8359C23.959 16.5681 26.37 16 28.6667 16C34.322 16 38.6667 20.1163 38.6667 25.3333C38.6667 28.0458 37.0253 30.7238 35.5424 32.6907C34.346 34.2775 32.9853 35.7306 32.1026 36.6733C31.855 36.9377 31.6448 37.1622 31.4866 37.338C30.4485 38.4913 28.0992 41.0083 26.0263 43.2191L25.2937 44H36.6667C37.7713 44 38.6667 44.8954 38.6667 46C38.6667 47.1046 37.7713 48 36.6667 48H20.6667C19.8684 48 19.1466 47.5253 18.8304 46.7923C18.5141 46.0594 18.664 45.2085 19.2117 44.6278L20.3813 43.386C21.0962 42.6264 22.0704 41.5901 23.1083 40.4832C25.1915 38.2614 27.5088 35.7783 28.5135 34.662C28.7374 34.4132 28.999 34.1336 29.287 33.8257C30.1689 32.8829 31.2982 31.6756 32.3485 30.2826C33.7909 28.3695 34.6667 26.6209 34.6667 25.3333C34.6667 22.5504 32.3448 20 28.6667 20C26.9634 20 25.3744 20.4319 24.2761 21.1641Z" fill="#18202A"/>
<path d="M10.8484 16.1888C11.5511 16.518 12 17.224 12 18V46C12 47.1046 11.1046 48 10.0001 48C8.89548 48 8.00005 47.1046 8.00005 46V22.2701L3.28042 26.2031C2.43187 26.9103 1.17074 26.7956 0.463608 25.9471C-0.243521 25.0985 -0.128872 23.8374 0.719681 23.1302L8.71968 16.4636C9.31585 15.9668 10.1456 15.8597 10.8484 16.1888Z" fill="#18202A"/>
<path d="M49.6094 21.1641C48.5704 21.8568 48 22.7758 48 24C48 25.1046 47.1046 26 46 26C44.8954 26 44 25.1046 44 24C44 21.2242 45.4296 19.1432 47.3906 17.8359C49.2923 16.5681 51.7033 16 54 16C56.7012 16 59.179 16.7722 61.0214 18.2895C62.8949 19.8323 64 22.0632 64 24.6667C64 28.0236 62.481 30.472 60.1928 31.9975L60.1888 32.0001L60.1927 32.0027C62.481 33.5282 64 35.9766 64 39.3335C64 41.3915 63.4252 43.0693 62.448 44.3819C61.4877 45.672 60.2314 46.4862 59.0475 47.001C56.7482 48.0006 54.4135 48.0002 54.0094 48.0001H54C52.1237 48.0001 49.739 47.6337 47.7479 46.4809C45.6481 45.2652 44 43.1566 44 40C44 38.8954 44.8954 38 46 38C47.1046 38 48 38.8954 48 40C48 41.51 48.6853 42.4016 49.7521 43.0192C50.9277 43.6999 52.5429 44.0001 54 44.0001C54.2907 44.0001 55.9369 43.9916 57.4525 43.3327C58.1853 43.0141 58.804 42.5783 59.2395 41.9934C59.6581 41.431 60 40.6088 60 39.3335C60 37.3571 59.1857 36.1388 57.9739 35.3309C56.6612 34.4558 54.76 34.0001 52.6667 34.0001C51.5621 34.0001 50.6667 33.1047 50.6667 32.0001C50.6667 30.8956 51.5621 30.0001 52.6667 30.0001C54.76 30.0001 56.6612 29.5445 57.9739 28.6693C59.1857 27.8614 60 26.6431 60 24.6667C60 23.2701 59.4385 22.1677 58.4786 21.3772C57.4877 20.5612 55.9654 20 54 20C52.2967 20 50.7077 20.4319 49.6094 21.1641Z" fill="#18202A"/>
</g>
</g>
<defs>
<clipPath id="clip0_3291_8692">
<rect width="64" height="64" fill="white"/>
</clipPath>
<clipPath id="clip1_3291_8692">
<rect width="64" height="64" fill="white"/>
</clipPath>
</defs>
</svg>
