<svg width="64" height="64" viewBox="0 0 64 64" fill="none" xmlns="http://www.w3.org/2000/svg">
<path d="M37.3334 32.0001C37.3334 34.9456 34.9455 37.3334 32 37.3334C29.0545 37.3334 26.6667 34.9456 26.6667 32.0001C26.6667 29.0546 29.0545 26.6667 32 26.6667C34.9455 26.6667 37.3334 29.0546 37.3334 32.0001Z" fill="#18202A"/>
<path fill-rule="evenodd" clip-rule="evenodd" d="M3.52637 29.3718C2.40342 30.9598 2.40342 33.0404 3.52637 34.6284C7.55921 40.3315 18.26 53.3334 32 53.3334C45.74 53.3334 56.4408 40.3315 60.4737 34.6284C61.5966 33.0404 61.5966 30.9598 60.4737 29.3718C56.4408 23.6687 45.74 10.6667 32 10.6667C18.26 10.6667 7.55921 23.6687 3.52637 29.3718ZM32 42.6667C37.8911 42.6667 42.6667 37.8911 42.6667 32.0001C42.6667 26.109 37.8911 21.3334 32 21.3334C26.109 21.3334 21.3334 26.109 21.3334 32.0001C21.3334 37.8911 26.109 42.6667 32 42.6667Z" fill="#18202A"/>
</svg>
