<svg width="64" height="64" viewBox="0 0 64 64" fill="none" xmlns="http://www.w3.org/2000/svg">
<path d="M16 5.33317C16 3.86041 17.1939 2.6665 18.6667 2.6665H45.3333C46.8061 2.6665 48 3.86041 48 5.33317C48 6.80593 46.8061 7.99984 45.3333 7.99984H18.6667C17.1939 7.99984 16 6.80593 16 5.33317Z" fill="#18202A"/>
<path d="M13.3333 10.6665C11.8606 10.6665 10.6667 11.8604 10.6667 13.3332C10.6667 14.8059 11.8606 15.9998 13.3333 15.9998H50.6667C52.1394 15.9998 53.3333 14.8059 53.3333 13.3332C53.3333 11.8604 52.1394 10.6665 50.6667 10.6665H13.3333Z" fill="#18202A"/>
<path fill-rule="evenodd" clip-rule="evenodd" d="M13.3333 18.6665C7.4423 18.6665 2.66667 23.4421 2.66667 29.3332V47.9998C2.66667 55.3636 8.63621 61.3332 16 61.3332H48C55.3638 61.3332 61.3333 55.3636 61.3333 47.9998V29.3332C61.3333 23.4421 56.5577 18.6665 50.6667 18.6665H13.3333ZM24 33.185C24 31.2511 26.0901 30.0566 27.7329 31.0516L38.9633 37.8531C40.5589 38.8195 40.5589 41.1536 38.9633 42.1199L27.7329 48.9215C26.0901 49.9164 24 48.7219 24 46.7881V33.185Z" fill="#18202A"/>
</svg>
