<svg width="64" height="64" viewBox="0 0 64 64" fill="none" xmlns="http://www.w3.org/2000/svg">
<path d="M49.5973 6.2843L47.6373 8.2443L55.7559 16.3629L57.7159 14.4029C58.3247 13.7939 58.6667 12.9681 58.6667 12.107C58.6667 11.2459 58.3247 10.42 57.7159 9.81102L54.1892 6.2843C53.5802 5.6755 52.7543 5.3335 51.8932 5.3335C51.0321 5.3335 50.2063 5.6755 49.5973 6.2843Z" fill="#18202A"/>
<path d="M53.4596 18.6592L45.341 10.5406L27.8167 28.0649L26.6858 35.464C26.5203 36.5471 27.4531 37.4799 28.5362 37.3144L35.9353 36.1835L53.4596 18.6592Z" fill="#18202A"/>
<path d="M32 13.3335C32 11.8607 30.8061 10.6668 29.3334 10.6668H13.3334C8.9151 10.6668 5.33337 14.2486 5.33337 18.6668V50.6668C5.33337 55.0851 8.9151 58.6668 13.3334 58.6668H45.3334C49.7517 58.6668 53.3334 55.0851 53.3334 50.6668V34.6668C53.3334 33.1941 52.1395 32.0002 50.6667 32.0002C49.1939 32.0002 48 33.1941 48 34.6668V50.6668C48 52.1396 46.8061 53.3335 45.3334 53.3335H13.3334C11.8606 53.3335 10.6667 52.1396 10.6667 50.6668V18.6668C10.6667 17.1941 11.8606 16.0002 13.3334 16.0002H29.3334C30.8061 16.0002 32 14.8063 32 13.3335Z" fill="#18202A"/>
</svg>
