<svg width="64" height="64" viewBox="0 0 64 64" fill="none" xmlns="http://www.w3.org/2000/svg">
<path fill-rule="evenodd" clip-rule="evenodd" d="M32 2.6665C34.9455 2.6665 37.3333 5.05432 37.3333 7.99984C37.3333 9.97392 36.2608 11.6975 34.6667 12.6197V15.9998H40C49.5022 15.9998 57.3461 23.0998 58.5161 32.2841C58.9749 32.1007 59.4757 31.9998 60 31.9998C62.2091 31.9998 64 33.7907 64 35.9998V43.9998C64 46.209 62.2091 47.9998 60 47.9998C59.5325 47.9998 59.0837 47.9196 58.6667 47.7722V50.6665C58.6667 56.5575 53.891 61.3332 48 61.3332H16C10.109 61.3332 5.33333 56.5575 5.33333 50.6665V47.7722C4.9163 47.9196 4.46751 47.9998 4 47.9998C1.79086 47.9998 0 46.209 0 43.9998V35.9998C0 33.7907 1.79086 31.9998 4 31.9998C4.52433 31.9998 5.02508 32.1007 5.48393 32.2841C6.65388 23.0998 14.4978 15.9998 24 15.9998H29.3333V12.6197C27.7392 11.6975 26.6667 9.97392 26.6667 7.99984C26.6667 5.05432 29.0545 2.6665 32 2.6665ZM53.3333 37.3332C53.3333 41.7514 49.7516 45.3332 45.3333 45.3332C40.9151 45.3332 37.3333 41.7514 37.3333 37.3332C37.3333 32.9149 40.9151 29.3332 45.3333 29.3332C49.7516 29.3332 53.3333 32.9149 53.3333 37.3332ZM18.6667 45.3332C23.0849 45.3332 26.6667 41.7514 26.6667 37.3332C26.6667 32.9149 23.0849 29.3332 18.6667 29.3332C14.2484 29.3332 10.6667 32.9149 10.6667 37.3332C10.6667 41.7514 14.2484 45.3332 18.6667 45.3332ZM26.6667 51.9998C26.6667 51.2635 27.2636 50.6665 28 50.6665H36C36.7364 50.6665 37.3333 51.2635 37.3333 51.9998C37.3333 52.7362 36.7364 53.3332 36 53.3332H28C27.2636 53.3332 26.6667 52.7362 26.6667 51.9998Z" fill="#18202A"/>
</svg>
