<svg width="64" height="64" viewBox="0 0 64 64" fill="none" xmlns="http://www.w3.org/2000/svg">
<path fill-rule="evenodd" clip-rule="evenodd" d="M8.33337 5.33337C6.67652 5.33337 5.33337 6.67652 5.33337 8.33337V26.3334C5.33337 27.9902 6.67652 29.3334 8.33337 29.3334H26.3334C27.9902 29.3334 29.3334 27.9902 29.3334 26.3334V8.33337C29.3334 6.67652 27.9902 5.33337 26.3334 5.33337H8.33337ZM8.33337 34.6667C6.67652 34.6667 5.33337 36.0099 5.33337 37.6667V55.6667C5.33337 57.3236 6.67652 58.6667 8.33337 58.6667H26.3334C27.9902 58.6667 29.3334 57.3236 29.3334 55.6667V37.6667C29.3334 36.0099 27.9902 34.6667 26.3334 34.6667H8.33337ZM34.6667 8.33337C34.6667 6.67652 36.0099 5.33337 37.6667 5.33337H55.6667C57.3236 5.33337 58.6667 6.67652 58.6667 8.33337V26.3334C58.6667 27.9902 57.3236 29.3334 55.6667 29.3334H37.6667C36.0099 29.3334 34.6667 27.9902 34.6667 26.3334V8.33337ZM37.6667 34.6667C36.0099 34.6667 34.6667 36.0099 34.6667 37.6667V55.6667C34.6667 57.3236 36.0099 58.6667 37.6667 58.6667H55.6667C57.3236 58.6667 58.6667 57.3236 58.6667 55.6667V37.6667C58.6667 36.0099 57.3236 34.6667 55.6667 34.6667H37.6667Z" fill="#18202A"/>
</svg>
