<svg width="64" height="64" viewBox="0 0 64 64" fill="none" xmlns="http://www.w3.org/2000/svg">
<path d="M34.6667 41.9535C36.2608 41.0313 37.3333 39.3077 37.3333 37.3337C37.3333 34.3881 34.9455 32.0003 32 32.0003C29.0545 32.0003 26.6667 34.3881 26.6667 37.3337C26.6667 39.3077 27.7392 41.0313 29.3333 41.9535V48.0003C29.3333 49.4731 30.5272 50.667 32 50.667C33.4728 50.667 34.6667 49.4731 34.6667 48.0003V41.9535Z" fill="#18202A"/>
<path fill-rule="evenodd" clip-rule="evenodd" d="M42.1009 12.185C42.5388 12.8659 43.2651 13.3337 44.0747 13.3337C45.5464 13.3337 46.5653 11.8728 45.8224 10.6024C43.0469 5.85561 37.8961 2.66699 32.0005 2.66699C23.164 2.66699 16.0005 9.83044 16.0005 18.667V21.3337C10.1095 21.3337 5.33386 26.1093 5.33386 32.0003V50.667C5.33386 56.558 10.1095 61.3337 16.0005 61.3337H48.0005C53.8916 61.3337 58.6672 56.558 58.6672 50.667V32.0003C58.6672 26.1093 53.8916 21.3337 48.0005 21.3337H20.0005V18.667C20.0005 12.0396 25.3731 6.66699 32.0005 6.66699C36.2402 6.66699 39.9663 8.86565 42.1009 12.185ZM9.33386 32.0003C9.33386 28.3184 12.3186 25.3337 16.0005 25.3337H48.0005C51.6824 25.3337 54.6672 28.3184 54.6672 32.0003V50.667C54.6672 54.3489 51.6824 57.3337 48.0005 57.3337H16.0005C12.3186 57.3337 9.33386 54.3489 9.33386 50.667V32.0003Z" fill="#18202A"/>
</svg>
