<svg width="64" height="64" viewBox="0 0 64 64" fill="none" xmlns="http://www.w3.org/2000/svg">
<path fill-rule="evenodd" clip-rule="evenodd" d="M32 16.6667C33.1046 16.6667 34 17.5622 34 18.6667V45.3334C34 46.438 33.1046 47.3334 32 47.3334C30.8955 47.3334 30 46.438 30 45.3334V18.6667C30 17.5622 30.8955 16.6667 32 16.6667Z" fill="#18202A"/>
<path fill-rule="evenodd" clip-rule="evenodd" d="M16.6667 32.0001C16.6667 30.8955 17.5621 30.0001 18.6667 30.0001H45.3334C46.4379 30.0001 47.3334 30.8955 47.3334 32.0001C47.3334 33.1047 46.4379 34.0001 45.3334 34.0001H18.6667C17.5621 34.0001 16.6667 33.1047 16.6667 32.0001Z" fill="#18202A"/>
<path fill-rule="evenodd" clip-rule="evenodd" d="M32 57.3334C45.9912 57.3334 57.3334 45.9913 57.3334 32.0001C57.3334 18.0089 45.9912 6.66675 32 6.66675C18.0088 6.66675 6.66669 18.0089 6.66669 32.0001C6.66669 45.9913 18.0088 57.3334 32 57.3334ZM32 61.3334C48.2004 61.3334 61.3334 48.2004 61.3334 32.0001C61.3334 15.7997 48.2004 2.66675 32 2.66675C15.7997 2.66675 2.66669 15.7997 2.66669 32.0001C2.66669 48.2004 15.7997 61.3334 32 61.3334Z" fill="#18202A"/>
</svg>
