<svg width="64" height="64" viewBox="0 0 64 64" fill="none" xmlns="http://www.w3.org/2000/svg">
<path fill-rule="evenodd" clip-rule="evenodd" d="M61.3333 32.0001C61.3333 48.2004 48.2004 61.3334 32 61.3334C15.7997 61.3334 2.66667 48.2004 2.66667 32.0001C2.66667 15.7997 15.7997 2.66675 32 2.66675C48.2004 2.66675 61.3333 15.7997 61.3333 32.0001ZM27.7712 24.0001C27.1612 24.0001 26.6667 24.4946 26.6667 25.1047C26.6667 25.3976 26.783 25.6786 26.9902 25.8857L27.219 26.1145C28.2604 27.1559 28.2604 28.8443 27.219 29.8857C26.1776 30.9271 24.4891 30.9271 23.4477 29.8857L23.219 29.6569C22.0116 28.4496 21.3333 26.8121 21.3333 25.1047C21.3333 21.5491 24.2157 18.6667 27.7712 18.6667H35.3509C39.3913 18.6667 42.6667 21.9421 42.6667 25.9825C42.6667 29.1315 40.6517 31.9271 37.6643 32.9229L36.8433 33.1966C35.5434 33.6299 34.6667 34.8463 34.6667 36.2165V37.3334C34.6667 38.8062 33.4728 40.0001 32 40.0001C30.5272 40.0001 29.3333 38.8062 29.3333 37.3334V36.2165C29.3333 32.5507 31.6791 29.2962 35.1567 28.1369L35.9778 27.8632C36.7873 27.5934 37.3333 26.8358 37.3333 25.9825C37.3333 24.8877 36.4458 24.0001 35.3509 24.0001H27.7712ZM29.3333 45.3334C29.3333 43.8607 30.5272 42.6667 32 42.6667C33.4728 42.6667 34.6667 43.8607 34.6667 45.3334C34.6667 46.8062 33.4728 48.0001 32 48.0001C30.5272 48.0001 29.3333 46.8062 29.3333 45.3334Z" fill="#18202A"/>
</svg>
