<svg width="64" height="64" viewBox="0 0 64 64" fill="none" xmlns="http://www.w3.org/2000/svg">
<g clip-path="url(#clip0_2359_18380)">
<path fill-rule="evenodd" clip-rule="evenodd" d="M32 29.3337C39.1111 29.3337 42.6667 22.667 42.6667 14.3337C42.6667 7.66699 39.1111 2.66699 32 2.66699C24.8889 2.66699 21.3333 7.66699 21.3333 14.3337C21.3333 22.667 24.8889 29.3337 32 29.3337ZM32.0001 34.667C34.594 34.667 37.1015 35.0373 39.4724 35.7281C34.9352 39.1334 32 44.5574 32 50.667C32 54.5852 33.2072 58.2214 35.2699 61.224C34.1894 61.2967 33.099 61.3337 32 61.3337C27.8736 61.3337 23.8689 60.813 20.0478 59.8337C16.797 59.0006 14.0419 56.8231 12.533 53.8257C12.4912 53.7427 12.4497 53.6595 12.4084 53.5763C10.3225 49.364 11.0318 44.2033 14.5911 41.1331C19.2626 37.1036 25.3468 34.667 32.0001 34.667ZM64 50.667C64 58.0308 58.0305 64.0004 50.6667 64.0004C43.3029 64.0004 37.3334 58.0308 37.3334 50.667C37.3334 43.3032 43.3029 37.3337 50.6667 37.3337C58.0305 37.3337 64 43.3032 64 50.667ZM50.6667 41.3337C52.1395 41.3337 53.3334 42.5276 53.3334 44.0004V48.0004H57.3334C58.8061 48.0004 60 49.1943 60 50.667C60 52.1398 58.8061 53.3337 57.3334 53.3337H53.3334V57.3337C53.3334 58.8065 52.1395 60.0004 50.6667 60.0004C49.1939 60.0004 48 58.8065 48 57.3337V53.3337H44C42.5273 53.3337 41.3334 52.1398 41.3334 50.667C41.3334 49.1943 42.5273 48.0004 44 48.0004H48V44.0004C48 42.5276 49.1939 41.3337 50.6667 41.3337Z" fill="#18202A"/>
</g>
<defs>
<clipPath id="clip0_2359_18380">
<rect width="64" height="64" fill="white"/>
</clipPath>
</defs>
</svg>
