<svg width="64" height="64" viewBox="0 0 64 64" fill="none" xmlns="http://www.w3.org/2000/svg">
<path d="M47.4302 12.3143C48.3401 11.1562 48.1389 9.47983 46.9809 8.56993C45.8228 7.66003 44.1464 7.8612 43.2365 9.01926L15.7602 43.9891L9.88561 38.1145C8.84421 37.0731 7.15577 37.0731 6.11438 38.1145C5.07298 39.1559 5.07298 40.8443 6.11438 41.8857L14.1144 49.8857C14.6536 50.425 15.3979 50.7075 16.1591 50.662C16.9204 50.6165 17.6257 50.2473 18.0968 49.6476L47.4302 12.3143Z" fill="#18202A"/>
<path d="M50.6667 18.6667C49.1939 18.6667 48 19.8606 48 21.3333C48 22.8061 49.1939 24 50.6667 24H56C57.4728 24 58.6667 22.8061 58.6667 21.3333C58.6667 19.8606 57.4728 18.6667 56 18.6667H50.6667Z" fill="#18202A"/>
<path d="M37.3333 34.6667C37.3333 33.1939 38.5272 32 40 32H56C57.4728 32 58.6667 33.1939 58.6667 34.6667C58.6667 36.1394 57.4728 37.3333 56 37.3333H40C38.5272 37.3333 37.3333 36.1394 37.3333 34.6667Z" fill="#18202A"/>
<path d="M29.3333 45.3333C27.8606 45.3333 26.6667 46.5272 26.6667 48C26.6667 49.4728 27.8606 50.6667 29.3333 50.6667H56C57.4728 50.6667 58.6667 49.4728 58.6667 48C58.6667 46.5272 57.4728 45.3333 56 45.3333H29.3333Z" fill="#18202A"/>
</svg>
