<svg width="64" height="64" viewBox="0 0 64 64" fill="none" xmlns="http://www.w3.org/2000/svg">
<path d="M10.6667 8C6.24839 8 2.66667 11.5817 2.66667 16V18.6284C2.67345 18.1271 2.82147 17.6221 3.1228 17.1755C3.94652 15.9546 5.60398 15.6326 6.82484 16.4564L28.1981 30.877C29.2542 31.5897 30.5911 32.0003 32 32.0003C33.409 32.0003 34.7457 31.5898 35.8018 30.8771L57.1752 16.4564C58.3961 15.6326 60.0535 15.9546 60.8773 17.1755C61.1779 17.621 61.3259 18.1247 61.3333 18.6248V16C61.3333 11.5817 57.7516 8 53.3333 8H10.6667Z" fill="#18202A"/>
<path d="M61.3333 18.7042C61.3208 19.5471 60.9099 20.3703 60.1582 20.8775L38.7851 35.298C36.806 36.6335 34.4205 37.3336 32 37.3336C29.5795 37.3336 27.1942 36.6336 25.2151 35.2981L3.84189 20.8775C3.0891 20.3696 2.67808 19.5447 2.66667 18.7006V48C2.66667 52.4183 6.24839 56 10.6667 56H53.3333C57.7516 56 61.3333 52.4183 61.3333 48V18.7042Z" fill="#18202A"/>
<path fill-rule="evenodd" clip-rule="evenodd" d="M53.3333 13.3333H10.6667C9.19391 13.3333 8.00001 14.5272 8.00001 16V48C8.00001 49.4728 9.19391 50.6667 10.6667 50.6667H53.3333C54.8061 50.6667 56 49.4728 56 48V16C56 14.5272 54.8061 13.3333 53.3333 13.3333ZM10.6667 8C6.24839 8 2.66667 11.5817 2.66667 16V48C2.66667 52.4183 6.24839 56 10.6667 56H53.3333C57.7516 56 61.3333 52.4183 61.3333 48V16C61.3333 11.5817 57.7516 8 53.3333 8H10.6667Z" fill="#18202A"/>
</svg>
