<svg width="64" height="64" viewBox="0 0 64 64" fill="none" xmlns="http://www.w3.org/2000/svg">
<path d="M41.6163 41.3718L41.5862 41.402C41.4409 41.5473 41.3232 41.665 41.2146 41.7689C36.0601 46.6975 27.9399 46.6975 22.7855 41.7689C22.6766 41.6648 22.5589 41.5471 22.4133 41.4015L22.277 41.2654L22.2555 41.2442C21.7403 40.7523 20.9279 40.7508 20.4127 41.2427L20.3896 41.2654L19.421 42.2339C18.5502 43.1046 17.819 43.8358 17.2223 44.3906C16.656 44.9169 15.9472 45.5399 15.1376 45.9817C11.8774 47.7608 8.1119 47.3777 5.33333 45.4507V54.6637C5.33333 56.8729 7.12419 58.6637 9.33333 58.6637H54.6667C56.8758 58.6637 58.6667 56.8729 58.6667 54.6637V45.4507C55.8881 47.3777 52.1226 47.7607 48.8624 45.9817C48.0529 45.5399 47.344 44.9169 46.7778 44.3906C46.181 43.8358 45.4499 43.1048 44.5791 42.2339L43.7236 41.3785L43.7165 41.3714L43.6103 41.2653L43.5872 41.2425C43.072 40.7509 42.2613 40.7509 41.7461 41.2426L41.723 41.2654L41.6163 41.3718Z" fill="#18202A"/>
<path d="M45.3763 21.3312H18.6237C16.1855 21.3312 14.9664 21.3312 13.9521 21.5296C9.694 22.3626 6.36477 25.6919 5.53176 29.95C5.33333 30.9643 5.33333 32.1899 5.33333 34.6411C5.33333 37.2512 5.33333 38.5563 5.54975 39.2926C6.50878 42.5557 10.236 44.0996 13.2215 42.4703C13.8952 42.1027 14.8125 41.1854 16.647 39.3508L17.4545 38.5433C17.5544 38.4435 17.6043 38.3935 17.6475 38.3523C19.7093 36.3808 22.9574 36.3808 25.0192 38.3523C25.0623 38.3935 25.1123 38.4435 25.2121 38.5433C25.3869 38.7181 25.4742 38.8055 25.5498 38.8777C29.1579 42.3277 34.842 42.3277 38.4502 38.8777C38.5257 38.8055 38.6132 38.718 38.7879 38.5433C38.8877 38.4435 38.9377 38.3935 38.9808 38.3523C41.0426 36.3808 44.2907 36.3808 46.3525 38.3523C46.3956 38.3935 46.4459 38.4437 46.5455 38.5433L47.353 39.3508C49.1875 41.1854 50.1048 42.1027 50.7785 42.4703C53.764 44.0996 57.4912 42.5557 58.4502 39.2926C58.6667 38.5563 58.6667 37.2512 58.6667 34.6411C58.6667 32.1899 58.6667 30.9643 58.4682 29.95C57.6352 25.6919 54.306 22.3626 50.0479 21.5296C49.0335 21.3312 47.8144 21.3312 45.3763 21.3312Z" fill="#18202A"/>
<path d="M28.2288 17.0842C26.146 15.0014 26.146 11.6245 28.2288 9.54174L32 5.77051L35.7712 9.54174C37.854 11.6245 37.854 15.0014 35.7712 17.0842C33.6884 19.167 30.3115 19.167 28.2288 17.0842Z" fill="#18202A"/>
</svg>
