<svg width="64" height="64" viewBox="0 0 64 64" fill="none" xmlns="http://www.w3.org/2000/svg">
<path fill-rule="evenodd" clip-rule="evenodd" d="M46.4225 11.709C46.9514 12.6787 46.5941 13.8935 45.6244 14.4225L16.291 30.4225C15.3213 30.9514 14.1065 30.5941 13.5775 29.6244C13.0486 28.6547 13.4059 27.4398 14.3756 26.9109L43.709 10.9109C44.6787 10.3819 45.8935 10.7393 46.4225 11.709Z" fill="#18202A"/>
<path fill-rule="evenodd" clip-rule="evenodd" d="M53.6244 18.9109C54.5941 19.4398 54.9514 20.6547 54.4225 21.6244L38.4225 50.9577C37.8935 51.9274 36.6787 52.2847 35.709 51.7558C34.7393 51.2269 34.3819 50.012 34.9109 49.0423L50.9109 19.709C51.4398 18.7393 52.6547 18.3819 53.6244 18.9109Z" fill="#18202A"/>
<path fill-rule="evenodd" clip-rule="evenodd" d="M40.5858 8.58579C41.3668 7.80474 42.6332 7.80474 43.4142 8.58579L56.7475 21.9191C57.5286 22.7002 57.5286 23.9665 56.7475 24.7475C55.9665 25.5286 54.7002 25.5286 53.9191 24.7475L40.5858 11.4142C39.8047 10.6332 39.8047 9.36683 40.5858 8.58579Z" fill="#18202A"/>
<path fill-rule="evenodd" clip-rule="evenodd" d="M24.7475 40.5858C25.5286 41.3668 25.5286 42.6332 24.7475 43.4142L14.0809 54.0809C13.2998 54.8619 12.0335 54.8619 11.2525 54.0809C10.4714 53.2998 10.4714 52.0335 11.2525 51.2524L21.9191 40.5858C22.7002 39.8047 23.9665 39.8047 24.7475 40.5858Z" fill="#18202A"/>
<path fill-rule="evenodd" clip-rule="evenodd" d="M8.58579 24.5858C9.36683 23.8047 10.6332 23.8047 11.4142 24.5858L40.7475 53.9191C41.5286 54.7002 41.5286 55.9665 40.7475 56.7475C39.9665 57.5286 38.7002 57.5286 37.9191 56.7475L8.58579 27.4142C7.80474 26.6332 7.80474 25.3668 8.58579 24.5858Z" fill="#18202A"/>
</svg>
