<svg width="64" height="64" viewBox="0 0 64 64" fill="none" xmlns="http://www.w3.org/2000/svg">
<g clip-path="url(#clip0_2359_18321)">
<path fill-rule="evenodd" clip-rule="evenodd" d="M0 16C0 7.16344 7.16344 0 16 0H48C56.8366 0 64 7.16344 64 16V48C64 56.8366 56.8366 64 48 64H16C7.16344 64 0 56.8366 0 48V16ZM8 32C8 18.7452 18.7452 8 32 8C45.2548 8 56 18.7452 56 32C56 45.2548 45.2548 56 32 56C18.7452 56 8 45.2548 8 32ZM42.6974 26.8889C42.7199 27.0889 42.7199 27.3111 42.7199 27.5111C42.7199 27.7111 42.7199 27.9111 42.6974 28.1111V36C42.6932 36.2723 42.6898 36.5041 42.6869 36.7026C42.6742 37.5732 42.6708 37.8051 42.6525 38.0222C42.6075 38.7556 42.5176 39.4444 42.4053 40.0444C42.1132 41.5111 41.5289 42.8222 40.675 43.9111C38.6077 46.6222 35.619 48 31.8214 48C29.1248 48 26.7429 47.3111 24.743 45.9556C22.6531 44.5333 21.2375 42.5333 20.4734 40.0222H24.8104C26.1362 42.9111 28.4282 44.3111 31.7989 44.3111C33.9786 44.3111 35.619 43.6889 36.8774 42.4C38.0908 41.1333 38.6975 39.4444 38.6975 37.2889V36.2222C36.6527 37.9778 34.0011 39.0222 31.1023 39.0222C24.6755 39.0222 19.4622 33.8667 19.4622 27.5111C19.4622 21.1556 24.6755 16 31.1023 16C33.9786 16 36.6302 17.0444 38.6526 18.7778V16H42.6974V26.8889ZM23.5295 27.4889C23.5295 31.6222 26.9227 34.9778 31.1023 34.9778C35.2595 34.9778 38.6526 31.6222 38.6751 27.4889C38.6751 23.3556 35.2819 20 31.1023 20C26.9227 20 23.5295 23.3556 23.5295 27.4889Z" fill="#18202A"/>
</g>
<defs>
<clipPath id="clip0_2359_18321">
<rect width="64" height="64" fill="white"/>
</clipPath>
</defs>
</svg>
