<svg width="64" height="64" viewBox="0 0 64 64" fill="none" xmlns="http://www.w3.org/2000/svg">
<path fill-rule="evenodd" clip-rule="evenodd" d="M41.3333 32C47.5556 32 50.6667 26 50.6667 18.5C50.6667 12.5 47.5556 8 41.3333 8C35.1111 8 32 12.5 32 18.5C32 26 35.1111 32 41.3333 32ZM52.1071 57.7054C55.2633 57.1339 58.0242 55.1902 59.4835 52.3339C59.7873 51.7393 60.0762 51.1374 60.3498 50.5286C62.1338 46.5594 61.0377 41.8278 57.4144 39.4178C52.9275 36.4334 47.3618 34.6667 41.3333 34.6667C35.3049 34.6667 29.7392 36.4334 25.2523 39.4178C21.629 41.8278 20.5329 46.5594 22.3168 50.5286C22.5905 51.1374 22.8794 51.7393 23.1832 52.3339C24.6425 55.1902 27.4034 57.1339 30.5596 57.7054C34.0406 58.3358 37.6436 58.6667 41.3333 58.6667C45.0231 58.6667 48.6261 58.3358 52.1071 57.7054ZM24.6384 24.1667C24.6384 30 21.9717 34.6667 16.6384 34.6667C11.305 34.6667 8.63835 30 8.63835 24.1667C8.63835 19.5 11.305 16 16.6384 16C21.9717 16 24.6384 19.5 24.6384 24.1667ZM17.4523 52.7149C15.2216 47.7517 15.8421 41.7385 19.4349 37.5146C18.5206 37.395 17.5881 37.3333 16.6412 37.3333C12.8372 37.3333 9.26587 38.3289 6.17338 40.0737C3.0255 41.8498 1.9318 45.7368 3.15744 49.137C3.30491 49.5461 3.45846 49.9523 3.61797 50.3555C4.74699 53.2094 7.35084 55.2017 10.3943 55.5972C12.439 55.8629 14.5241 56 16.6412 56C17.4669 56 18.2877 55.9791 19.1032 55.9379C18.8644 55.5584 18.6409 55.1658 18.4338 54.7604C18.0899 54.0872 17.7625 53.4053 17.4523 52.7149Z" fill="#18202A"/>
</svg>
