<svg width="64" height="64" viewBox="0 0 64 64" fill="none" xmlns="http://www.w3.org/2000/svg">
<path fill-rule="evenodd" clip-rule="evenodd" d="M57.104 12.687L51.312 6.89502C50.3118 5.89518 48.9555 5.3335 47.5413 5.3335C46.1271 5.3335 44.7708 5.89518 43.7706 6.89502L7.99998 42.6657L6.1427 54.8174C5.87082 56.5962 7.40277 58.1282 9.18165 57.8563L21.3333 55.999L57.104 20.2284C58.1038 19.2282 58.6655 17.8719 58.6655 16.4577C58.6655 15.0435 58.1038 13.6872 57.104 12.687ZM50.5852 21.0903L54.2751 17.4004C54.5248 17.1504 54.6655 16.811 54.6655 16.4577C54.6655 16.1043 52.2497 13.5835 52 13.3335L48.4836 9.72345C48.2336 9.47376 47.8947 9.3335 47.5413 9.3335C47.188 9.3335 46.8486 9.47418 46.5986 9.72388L42.9087 13.4138L50.5852 21.0903ZM47.7568 23.9187L40.0803 16.2422L11.7559 44.5666L10.3709 53.6281L19.4324 52.2431L47.7568 23.9187Z" fill="#18202A"/>
</svg>
