<svg width="64" height="64" viewBox="0 0 64 64" fill="none" xmlns="http://www.w3.org/2000/svg">
<path fill-rule="evenodd" clip-rule="evenodd" d="M10.6667 9.33331H53.3334C55.5425 9.33331 57.3334 11.1242 57.3334 13.3333V21.3333C57.3334 23.5425 55.5425 25.3333 53.3334 25.3333H10.6667C8.45755 25.3333 6.66669 23.5425 6.66669 21.3333V13.3333C6.66669 11.1242 8.45755 9.33331 10.6667 9.33331ZM2.66669 13.3333C2.66669 8.91503 6.24841 5.33331 10.6667 5.33331H53.3334C57.7516 5.33331 61.3334 8.91504 61.3334 13.3333V21.3333C61.3334 25.7516 57.7516 29.3333 53.3334 29.3333H10.6667C6.24841 29.3333 2.66669 25.7516 2.66669 21.3333V13.3333ZM10.6667 38.6666H53.3334C55.5425 38.6666 57.3334 40.4575 57.3334 42.6666V50.6666C57.3334 52.8758 55.5425 54.6666 53.3334 54.6666H10.6667C8.45755 54.6666 6.66669 52.8758 6.66669 50.6666V42.6666C6.66669 40.4575 8.45755 38.6666 10.6667 38.6666ZM2.66669 42.6666C2.66669 38.2484 6.24841 34.6666 10.6667 34.6666H53.3334C57.7516 34.6666 61.3334 38.2484 61.3334 42.6666V50.6666C61.3334 55.0849 57.7516 58.6666 53.3334 58.6666H10.6667C6.24841 58.6666 2.66669 55.0849 2.66669 50.6666V42.6666Z" fill="#18202A"/>
</svg>
