<svg width="64" height="64" viewBox="0 0 64 64" fill="none" xmlns="http://www.w3.org/2000/svg">
<path fill-rule="evenodd" clip-rule="evenodd" d="M41.8856 17.8853C40.8442 18.9267 39.1558 18.9267 38.1144 17.8853L32 11.7709L25.8856 17.8853C24.8442 18.9267 23.1558 18.9267 22.1144 17.8853C21.073 16.8439 21.073 15.1554 22.1144 14.1141L30.1144 6.11406C31.1558 5.07266 32.8442 5.07266 33.8856 6.11406L41.8856 14.1141C42.927 15.1555 42.927 16.8439 41.8856 17.8853ZM4.66667 23.9997C3.5621 23.9997 2.66667 24.8951 2.66667 25.9997V27.333C2.66667 28.4376 3.5621 29.333 4.66667 29.333H59.3333C60.4379 29.333 61.3333 28.4376 61.3333 27.333V25.9997C61.3333 24.8951 60.4379 23.9997 59.3333 23.9997H4.66667ZM4.66667 34.6663C3.5621 34.6663 2.66667 35.5618 2.66667 36.6663V37.9997C2.66667 39.1042 3.5621 39.9997 4.66667 39.9997H59.3333C60.4379 39.9997 61.3333 39.1042 61.3333 37.9997V36.6663C61.3333 35.5618 60.4379 34.6663 59.3333 34.6663H4.66667ZM41.8856 49.8853C42.927 48.8439 42.927 47.1555 41.8856 46.1141C40.8442 45.0727 39.1558 45.0727 38.1144 46.1141L32 52.2284L25.8856 46.1141C24.8442 45.0727 23.1558 45.0727 22.1144 46.1141C21.073 47.1555 21.073 48.8439 22.1144 49.8853L30.1144 57.8853C31.1558 58.9267 32.8442 58.9267 33.8856 57.8853L41.8856 49.8853Z" fill="#18202A"/>
</svg>
