<svg width="64" height="64" viewBox="0 0 64 64" fill="none" xmlns="http://www.w3.org/2000/svg">
<path d="M26.6667 32.0001C26.6667 34.9456 24.2789 37.3334 21.3334 37.3334C18.3878 37.3334 16 34.9456 16 32.0001C16 29.0546 18.3878 26.6667 21.3334 26.6667C24.2789 26.6667 26.6667 29.0546 26.6667 32.0001Z" fill="#18202A"/>
<path d="M19.3334 40.0001C16.0196 40.0001 13.3334 42.6864 13.3334 46.0001C13.3334 47.1047 14.2288 48.0001 15.3334 48.0001H27.3334C28.4379 48.0001 29.3334 47.1047 29.3334 46.0001C29.3334 42.6864 26.6471 40.0001 23.3334 40.0001H19.3334Z" fill="#18202A"/>
<path d="M36.6667 32.0001C35.5621 32.0001 34.6667 32.8955 34.6667 34.0001C34.6667 35.1047 35.5621 36.0001 36.6667 36.0001H48.6667C49.7713 36.0001 50.6667 35.1047 50.6667 34.0001C50.6667 32.8955 49.7713 32.0001 48.6667 32.0001H36.6667Z" fill="#18202A"/>
<path d="M34.6667 42.0001C34.6667 40.8955 35.5621 40.0001 36.6667 40.0001H48.6666C49.7712 40.0001 50.6666 40.8955 50.6666 42.0001C50.6666 43.1047 49.7712 44.0001 48.6666 44.0001H36.6667C35.5621 44.0001 34.6667 43.1047 34.6667 42.0001Z" fill="#18202A"/>
<path fill-rule="evenodd" clip-rule="evenodd" d="M24 10.6667C24 6.24847 27.5817 2.66675 32 2.66675C36.4183 2.66675 40 6.24847 40 10.6667H50.6667C56.5577 10.6667 61.3334 15.4424 61.3334 21.3334V48.0001C61.3334 53.8911 56.5577 58.6667 50.6667 58.6667H13.3334C7.44232 58.6667 2.66669 53.8911 2.66669 48.0001V21.3334C2.66669 15.4424 7.44232 10.6667 13.3334 10.6667L24 10.6667ZM32 6.66675C34.2092 6.66675 36 8.45761 36 10.6667V17.3334H28V10.6667C28 8.45761 29.7909 6.66675 32 6.66675ZM57.3334 21.3334C57.3334 17.6515 54.3486 14.6667 50.6667 14.6667H40V18.6667C40 20.1395 38.8061 21.3334 37.3334 21.3334H26.6667C25.1939 21.3334 24 20.1395 24 18.6667V14.6667H13.3334C9.65146 14.6667 6.66669 17.6515 6.66669 21.3334V48.0001C6.66669 51.682 9.65146 54.6667 13.3334 54.6667H50.6667C54.3486 54.6667 57.3334 51.682 57.3334 48.0001V21.3334Z" fill="#18202A"/>
</svg>
