<svg width="64" height="64" viewBox="0 0 64 64" fill="none" xmlns="http://www.w3.org/2000/svg">
<path fill-rule="evenodd" clip-rule="evenodd" d="M8.7143 6.0473C9.75662 5.00497 11.5581 5.11645 12.7379 6.2963L55.0367 48.5951C56.2166 49.775 56.328 51.5764 55.2857 52.6187C54.2434 53.661 52.442 53.5496 51.2621 52.3697L8.9633 10.0709C7.78346 8.89105 7.67197 7.08962 8.7143 6.0473Z" fill="#18202A"/>
<path d="M43.0041 29.0355C45.1256 29.9978 47.0989 31.2299 48.88 32.6879C50.0196 33.6208 51.7004 33.6326 52.7418 32.5912C53.7832 31.5498 53.7899 29.8518 52.6659 28.9002C47.925 24.8862 42.0003 22.2272 35.4897 21.5211L43.0041 29.0355Z" fill="#18202A"/>
<path d="M33.1154 26.6892L28.006 21.5798C21.6938 22.3658 15.9523 24.9901 11.3341 28.9002C10.2101 29.8518 10.2168 31.5498 11.2582 32.5912C12.2996 33.6326 13.9804 33.6208 15.12 32.6879C19.7175 28.9244 25.595 26.6663 32 26.6663C32.3736 26.6663 32.7455 26.674 33.1154 26.6892Z" fill="#18202A"/>
<path d="M27.5467 13.5781C29.0088 13.4162 30.4947 13.333 32 13.333C42.0867 13.333 51.3014 17.0665 58.3375 23.2269C59.4456 24.1971 61.1285 24.2045 62.1699 23.1631C63.2113 22.1217 63.2163 20.4268 62.1158 19.448C54.1083 12.3261 43.5594 7.99967 32 7.99967C28.8779 7.99967 25.8295 8.31529 22.8849 8.91635L27.5467 13.5781Z" fill="#18202A"/>
<path d="M16.975 10.5489L21.2267 14.8006C15.3918 16.4285 10.0949 19.3462 5.66242 23.2269C4.55435 24.1971 2.87148 24.2045 1.83008 23.1631C0.788686 22.1217 0.783662 20.4268 1.88413 19.448C6.24351 15.5708 11.3561 12.522 16.975 10.5489Z" fill="#18202A"/>
<path d="M43.1863 38.388C44.3647 39.2715 44.3551 40.9779 43.3137 42.0193C42.2723 43.0607 40.5947 43.0335 39.3679 42.2186C37.2571 40.8165 34.7239 39.9997 32 39.9997C29.276 39.9997 26.7428 40.8165 24.632 42.2186C23.4053 43.0335 21.7277 43.0607 20.6863 42.0193C19.6449 40.9779 19.6353 39.2715 20.8137 38.388C23.9311 36.0509 27.8039 34.6663 32 34.6663C36.1961 34.6663 40.0688 36.0509 43.1863 38.388Z" fill="#18202A"/>
<path d="M37.3333 53.333C37.3333 56.2785 34.9455 58.6663 32 58.6663C29.0545 58.6663 26.6666 56.2785 26.6666 53.333C26.6666 50.3875 29.0545 47.9997 32 47.9997C34.9455 47.9997 37.3333 50.3875 37.3333 53.333Z" fill="#18202A"/>
</svg>
