<svg width="64" height="64" viewBox="0 0 64 64" fill="none" xmlns="http://www.w3.org/2000/svg">
<path d="M39.4477 11.219C38.4063 10.1776 38.4063 8.48919 39.4477 7.4478C40.4891 6.4064 42.1776 6.4064 43.219 7.4478L55.219 19.4478C56.2603 20.4892 56.2603 22.1776 55.219 23.219L43.219 35.219C42.1776 36.2604 40.4891 36.2604 39.4477 35.219C38.4063 34.1776 38.4063 32.4892 39.4477 31.4478L46.8954 24.0001H25.3333C18.7059 24.0001 13.3333 29.3727 13.3333 36.0001C13.3333 42.6275 18.7059 48.0001 25.3333 48.0001H42.6667C44.1394 48.0001 45.3333 49.194 45.3333 50.6668C45.3333 52.1395 44.1394 53.3334 42.6667 53.3334H25.3333C15.7604 53.3334 8 45.573 8 36.0001C8 26.4271 15.7604 18.6667 25.3333 18.6667H46.8954L39.4477 11.219Z" fill="#18202A"/>
</svg>
