<svg width="64" height="64" viewBox="0 0 64 64" fill="none" xmlns="http://www.w3.org/2000/svg">
<path d="M41.4142 30.7475C42.1952 29.9665 42.1952 28.7002 41.4142 27.9191C40.6331 27.1381 39.3668 27.1381 38.5858 27.9191L32 34.5049L25.4142 27.9191C24.6331 27.1381 23.3668 27.1381 22.5858 27.9191C21.8047 28.7002 21.8047 29.9665 22.5858 30.7475L29.1716 37.3333L22.5858 43.9191C21.8047 44.7002 21.8047 45.9665 22.5858 46.7476C23.3668 47.5286 24.6331 47.5286 25.4142 46.7476L32 40.1618L38.5858 46.7476C39.3668 47.5286 40.6331 47.5286 41.4142 46.7476C42.1952 45.9665 42.1952 44.7002 41.4142 43.9191L34.8284 37.3333L41.4142 30.7475Z" fill="#18202A"/>
<path fill-rule="evenodd" clip-rule="evenodd" d="M18.6666 8C14.4682 8 11.0252 11.2341 10.6929 15.347C9.19348 16.6772 8.19736 18.5623 8.02625 20.6803C6.37434 22.1458 5.33331 24.2847 5.33331 26.6667V48C5.33331 52.4183 8.91503 56 13.3333 56H50.6666C55.0849 56 58.6666 52.4183 58.6666 48V26.6667C58.6666 24.2847 57.6256 22.1458 55.9737 20.6803C55.8026 18.5622 54.8065 16.6772 53.307 15.347C52.9748 11.2341 49.5317 8 45.3333 8H18.6666ZM18.6666 12C17.4789 12 16.4121 12.5176 15.6795 13.3396C15.7858 13.3354 15.8927 13.3333 16 13.3333H48C48.1073 13.3333 48.2141 13.3355 48.3204 13.3396C47.5878 12.5176 46.521 12 45.3333 12H18.6666ZM13.3333 18.6667C13.226 18.6667 13.1192 18.6688 13.0129 18.673C13.7455 17.851 14.8123 17.3333 16 17.3333H48C49.1877 17.3333 50.2545 17.851 50.9871 18.673C50.8808 18.6688 50.774 18.6667 50.6666 18.6667H13.3333ZM50.6666 22.6667C52.8758 22.6667 54.6666 24.4575 54.6666 26.6667V48C54.6666 50.2091 52.8758 52 50.6666 52H13.3333C11.1242 52 9.33331 50.2091 9.33331 48V26.6667C9.33331 24.4575 11.1242 22.6667 13.3333 22.6667H50.6666Z" fill="#18202A"/>
</svg>
