<svg width="64" height="64" viewBox="0 0 64 64" fill="none" xmlns="http://www.w3.org/2000/svg">
<path fill-rule="evenodd" clip-rule="evenodd" d="M24 14.6666C24 18.8946 21.1886 22.466 17.3333 23.6134V37.9999C17.3333 42.7864 21.2135 46.6666 26 46.6666H40.3865C41.5339 42.8113 45.1053 39.9999 49.3333 39.9999C54.488 39.9999 58.6666 44.1786 58.6666 49.3332C58.6666 54.4879 54.488 58.6666 49.3333 58.6666C44.6313 58.6666 40.7415 55.1896 40.0945 50.6666H26C19.0044 50.6666 13.3333 44.9955 13.3333 37.9999V23.9054C8.81025 23.2584 5.33331 19.3685 5.33331 14.6666C5.33331 9.51193 9.51199 5.33325 14.6666 5.33325C19.8213 5.33325 24 9.51193 24 14.6666ZM20 14.6666C20 17.6121 17.6122 19.9999 14.6666 19.9999C11.7211 19.9999 9.33331 17.6121 9.33331 14.6666C9.33331 11.7211 11.7211 9.33325 14.6666 9.33325C17.6122 9.33325 20 11.7211 20 14.6666ZM54.6666 49.3332C54.6666 52.2788 52.2788 54.6666 49.3333 54.6666C46.3878 54.6666 44 52.2788 44 49.3332C44 46.3877 46.3878 43.9999 49.3333 43.9999C52.2788 43.9999 54.6666 46.3877 54.6666 49.3332Z" fill="#18202A"/>
</svg>
