<svg width="64" height="64" viewBox="0 0 64 64" fill="none" xmlns="http://www.w3.org/2000/svg">
<path fill-rule="evenodd" clip-rule="evenodd" d="M41.1046 9.33327C39.4247 7.65336 36.5523 8.84315 36.5523 11.2189V20.0154C29.3171 20.1848 21.5612 21.7777 15.4711 26.4777C8.93993 31.518 4.55234 39.9517 4.55234 53.3333C4.55234 53.935 4.95533 54.4621 5.53596 54.6199C6.11659 54.7777 6.73097 54.5271 7.03555 54.0082C10.6178 47.9052 13.4621 44.1893 17.7158 41.9083C21.8111 39.7123 27.3849 38.7549 36.5523 38.6725V47.4477C36.5523 49.8234 39.4247 51.0132 41.1046 49.3333L59.219 31.2189C60.2604 30.1775 60.2604 28.489 59.219 27.4477L41.1046 9.33327Z" fill="#18202A"/>
</svg>
