<svg width="64" height="64" viewBox="0 0 64 64" fill="none" xmlns="http://www.w3.org/2000/svg">
<path fill-rule="evenodd" clip-rule="evenodd" d="M18.6667 22.6667H8.00002C7.26364 22.6667 6.66669 23.2636 6.66669 24V56C6.66669 56.7364 7.26364 57.3333 8.00002 57.3333H18.6667C19.4031 57.3333 20 56.7364 20 56V24C20 23.2636 19.4031 22.6667 18.6667 22.6667ZM8.00002 18.6667C5.0545 18.6667 2.66669 21.0545 2.66669 24V56C2.66669 58.9455 5.0545 61.3333 8.00002 61.3333H18.6667C21.6122 61.3333 24 58.9455 24 56V24C24 21.0545 21.6122 18.6667 18.6667 18.6667H8.00002Z" fill="#18202A"/>
<path fill-rule="evenodd" clip-rule="evenodd" d="M34.2036 1.56024C35.1464 0.876034 36.2994 0.696694 37.3563 0.841688C40.482 1.27049 43.0302 2.49725 44.7887 4.52015C46.5451 6.54069 47.3334 9.14812 47.3334 11.9998C47.3334 14.0415 47.0828 15.5276 46.7622 16.6665H56C60.0501 16.6665 63.3334 19.9498 63.3334 23.9998V24.7429C63.3334 33.3331 61.3333 41.8054 57.4917 49.4887L57.3334 49.8053C55.6394 53.1932 52.1768 55.3332 48.3891 55.3332H20L20 21.9998H24.1905C25.5485 21.9998 27.2552 21.0149 28.9943 19.057C32.0652 15.5995 32.6667 10.1532 32.6667 4.67491C32.6667 3.4104 33.2109 2.2807 34.2036 1.56024ZM36.6666 4.79461C36.6591 10.2103 36.1302 17.0462 31.9849 21.7133C30.0208 23.9246 27.3041 25.9998 24.1905 25.9998H24L24 51.3332H48.3891C50.6617 51.3332 52.7393 50.0492 53.7556 48.0165L53.914 47.6999C57.4779 40.5719 59.3334 32.7121 59.3334 24.7429V23.9998C59.3334 22.1589 57.841 20.6665 56 20.6665H46.6667C45.4159 20.6665 44.1906 20.1767 43.4202 19.1002C42.6636 18.0434 42.5811 16.7503 42.9076 15.5979C43.1242 14.8331 43.3334 13.7097 43.3334 11.9998C43.3334 9.88292 42.7576 8.28069 41.7698 7.14439C40.7841 6.01044 39.2079 5.13316 36.8127 4.80457C36.7555 4.79672 36.7068 4.79419 36.6666 4.79461Z" fill="#18202A"/>
</svg>
