<svg width="64" height="64" viewBox="0 0 64 64" fill="none" xmlns="http://www.w3.org/2000/svg">
<g clip-path="url(#clip0_11819_393849)">
<path d="M29.2178 52.1442L26.7267 53.0878C25.8283 53.4152 24.8384 53.4152 23.94 53.0878L21.4489 52.1442C15.1391 49.7405 9.71939 45.548 5.89422 40.1121C2.06902 34.6757 0.0153267 28.2471 0 21.6618V10.2565C4.78162 10.9187 9.65854 10.3155 14.117 8.51042C18.5754 6.70539 22.4503 3.76534 25.3333 0C30.6111 7.46675 39.3511 10.995 50.6667 10.2565V21.6618C50.6515 28.2471 48.5978 34.6757 44.7724 40.1121C40.9471 45.548 35.5276 49.7405 29.2178 52.1442Z" fill="#6FBE49"/>
<path d="M28.4007 47.0758L26.434 47.8071C25.7248 48.0608 24.9432 48.0608 24.234 47.8071L22.2673 47.0758C17.2859 45.2129 13.0072 41.9638 9.98732 37.7509C6.96742 33.5377 5.34608 28.5556 5.33398 23.4519V14.6129C9.10895 15.126 12.9592 14.6586 16.479 13.2596C19.9988 11.8607 23.0579 9.5822 25.334 6.66406C29.5007 12.4508 36.4007 15.1852 45.334 14.6129V23.4519C45.322 28.5556 43.7007 33.5377 40.6807 37.7509C37.6607 41.9638 33.3821 45.2129 28.4007 47.0758Z" fill="#E0FBE5"/>
<rect x="30.666" y="30.6641" width="37.3333" height="37.3333" rx="18.6667" fill="white"/>
<rect x="34.666" y="34.6641" width="29.3333" height="29.3333" rx="14.6667" fill="#FA8C16"/>
<path fill-rule="evenodd" clip-rule="evenodd" d="M49.3326 42.4762C47.9938 42.4762 46.9084 43.5848 46.9084 44.9524V46.1905H51.7569V44.9524C51.7569 43.5848 50.6715 42.4762 49.3326 42.4762ZM44.4842 44.9524V46.1905C43.48 46.1905 42.666 47.022 42.666 48.0476V55.4762C42.666 56.5018 43.48 57.3333 44.4842 57.3333H54.1812C55.1853 57.3333 55.9993 56.5018 55.9993 55.4762V48.0476C55.9993 47.0219 55.1853 46.1905 54.1812 46.1905V44.9524C54.1812 42.2173 52.0104 40 49.3326 40C46.6549 40 44.4842 42.2173 44.4842 44.9524ZM49.3327 53.3095C50.1695 53.3095 50.8478 52.6167 50.8478 51.7619C50.8478 50.9072 50.1695 50.2143 49.3327 50.2143C48.4959 50.2143 47.8175 50.9072 47.8175 51.7619C47.8175 52.6167 48.4959 53.3095 49.3327 53.3095Z" fill="white"/>
</g>
<defs>
<clipPath id="clip0_11819_393849">
<rect width="64" height="64" fill="white"/>
</clipPath>
</defs>
</svg>
