<svg width="212" height="178" viewBox="0 0 212 178" fill="none" xmlns="http://www.w3.org/2000/svg">
<path d="M168 19H48C42.4772 19 38 23.4772 38 29V149C38 154.523 42.4772 159 48 159H168C173.523 159 178 154.523 178 149V29C178 23.4772 173.523 19 168 19Z" fill="#18BAFF" fill-opacity="0.12"/>
<g filter="url(#filter0_d_1432_106)">
<path d="M60 73C60 73 60 73 60 73H195C196.326 73 197.598 73.5268 198.536 74.4645C199.473 75.4021 200 76.6739 200 78V103C200 104.326 199.473 105.598 198.536 106.536C197.598 107.473 196.326 108 195 108H60C58.6739 108 57.4021 107.473 56.4645 106.536C55.5268 105.598 55 104.326 55 103V78C55 76.6739 55.5268 75.4021 56.4645 74.4645C57.4021 73.5268 58.6739 73 60 73C60 73 60 73 60 73Z" fill="white"/>
<path d="M60 73C60 73 60 73 60 73H195C196.326 73 197.598 73.5268 198.536 74.4645C199.473 75.4021 200 76.6739 200 78V103C200 104.326 199.473 105.598 198.536 106.536C197.598 107.473 196.326 108 195 108H60C58.6739 108 57.4021 107.473 56.4645 106.536C55.5268 105.598 55 104.326 55 103V78C55 76.6739 55.5268 75.4021 56.4645 74.4645C57.4021 73.5268 58.6739 73 60 73C60 73 60 73 60 73Z" stroke="#DEDFE2"/>
</g>
<path opacity="0.3" d="M134 82H108C106.343 82 105 83.1193 105 84.5C105 85.8807 106.343 87 108 87H134C135.657 87 137 85.8807 137 84.5C137 83.1193 135.657 82 134 82Z" fill="#375464"/>
<path opacity="0.15" d="M152 92H108C106.343 92 105 93.1193 105 94.5C105 95.8807 106.343 97 108 97H152C153.657 97 155 95.8807 155 94.5C155 93.1193 153.657 92 152 92Z" fill="#375464"/>
<path d="M85.5 99.8198C90.7467 99.8198 95 95.5665 95 90.3198C95 85.0731 90.7467 80.8198 85.5 80.8198C80.2533 80.8198 76 85.0731 76 90.3198C76 95.5665 80.2533 99.8198 85.5 99.8198Z" fill="#DDF3FF"/>
<path fill-rule="evenodd" clip-rule="evenodd" d="M90.3105 86.7465C90.5581 86.987 90.5638 87.3827 90.3233 87.6303L84.2519 93.8803C84.1321 94.0036 83.9667 94.0722 83.7948 94.0698C83.6229 94.0674 83.4595 93.9942 83.3432 93.8676L80.6647 90.9509C80.4312 90.6967 80.448 90.3013 80.7023 90.0678C80.9565 89.8343 81.3519 89.8512 81.5853 90.1054L83.8163 92.5347L89.4267 86.7593C89.6672 86.5117 90.0629 86.506 90.3105 86.7465Z" fill="white"/>
<g filter="url(#filter1_d_1432_106)">
<path d="M17 116C17 116 17 116 17 116H152C153.326 116 154.598 116.527 155.536 117.464C156.473 118.402 157 119.674 157 121V146C157 147.326 156.473 148.598 155.536 149.536C154.598 150.473 153.326 151 152 151H17C15.6739 151 14.4021 150.473 13.4645 149.536C12.5268 148.598 12 147.326 12 146V121C12 119.674 12.5268 118.402 13.4645 117.464C14.4021 116.527 15.6739 116 17 116C17 116 17 116 17 116Z" fill="white"/>
<path d="M17 116C17 116 17 116 17 116H152C153.326 116 154.598 116.527 155.536 117.464C156.473 118.402 157 119.674 157 121V146C157 147.326 156.473 148.598 155.536 149.536C154.598 150.473 153.326 151 152 151H17C15.6739 151 14.4021 150.473 13.4645 149.536C12.5268 148.598 12 147.326 12 146V121C12 119.674 12.5268 118.402 13.4645 117.464C14.4021 116.527 15.6739 116 17 116C17 116 17 116 17 116Z" stroke="#DEDFE2"/>
</g>
<path opacity="0.3" d="M91 125H65C63.3431 125 62 126.119 62 127.5C62 128.881 63.3431 130 65 130H91C92.6569 130 94 128.881 94 127.5C94 126.119 92.6569 125 91 125Z" fill="#375464"/>
<path opacity="0.15" d="M109 135H65C63.3431 135 62 136.119 62 137.5C62 138.881 63.3431 140 65 140H109C110.657 140 112 138.881 112 137.5C112 136.119 110.657 135 109 135Z" fill="#375464"/>
<path d="M42.5 142.82C47.7467 142.82 52 138.567 52 133.32C52 128.073 47.7467 123.82 42.5 123.82C37.2533 123.82 33 128.073 33 133.32C33 138.567 37.2533 142.82 42.5 142.82Z" fill="#E0FBE5"/>
<path fill-rule="evenodd" clip-rule="evenodd" d="M47.3105 129.747C47.5581 129.987 47.5638 130.383 47.3233 130.63L41.2519 136.88C41.1321 137.004 40.9667 137.072 40.7948 137.07C40.6229 137.067 40.4595 136.994 40.3432 136.868L37.6647 133.951C37.4312 133.697 37.448 133.301 37.7023 133.068C37.9565 132.834 38.3519 132.851 38.5853 133.105L40.8163 135.535L46.4267 129.759C46.6672 129.512 47.0629 129.506 47.3105 129.747Z" fill="white"/>
<g filter="url(#filter2_d_1432_106)">
<path d="M152 30H17C14.2386 30 12 32.2386 12 35V60C12 62.7614 14.2386 65 17 65H152C154.761 65 157 62.7614 157 60V35C157 32.2386 154.761 30 152 30Z" fill="white"/>
<path d="M152 30H17C14.2386 30 12 32.2386 12 35V60C12 62.7614 14.2386 65 17 65H152C154.761 65 157 62.7614 157 60V35C157 32.2386 154.761 30 152 30Z" stroke="#DEDFE2"/>
</g>
<path opacity="0.3" d="M89 39H63C61.3431 39 60 40.1193 60 41.5C60 42.8807 61.3431 44 63 44H89C90.6569 44 92 42.8807 92 41.5C92 40.1193 90.6569 39 89 39Z" fill="#375464"/>
<path opacity="0.15" d="M107 49H63C61.3431 49 60 50.1193 60 51.5C60 52.8807 61.3431 54 63 54H107C108.657 54 110 52.8807 110 51.5C110 50.1193 108.657 49 107 49Z" fill="#375464"/>
<path d="M42.5 56.8198C47.7467 56.8198 52 52.5665 52 47.3198C52 42.0731 47.7467 37.8198 42.5 37.8198C37.2533 37.8198 33 42.0731 33 47.3198C33 52.5665 37.2533 56.8198 42.5 56.8198Z" fill="#FFEECF"/>
<path fill-rule="evenodd" clip-rule="evenodd" d="M47.3105 43.7465C47.5581 43.987 47.5638 44.3827 47.3233 44.6303L41.2519 50.8803C41.1321 51.0036 40.9667 51.0722 40.7948 51.0698C40.6229 51.0674 40.4595 50.9942 40.3432 50.8676L37.6647 47.9509C37.4312 47.6967 37.448 47.3013 37.7023 47.0678C37.9565 46.8343 38.3519 46.8512 38.5853 47.1054L40.8163 49.5347L46.4267 43.7593C46.6672 43.5117 47.0629 43.506 47.3105 43.7465Z" fill="white"/>
<defs>
<filter id="filter0_d_1432_106" x="46.5" y="68.5" width="162" height="52" filterUnits="userSpaceOnUse" color-interpolation-filters="sRGB">
<feFlood flood-opacity="0" result="BackgroundImageFix"/>
<feColorMatrix in="SourceAlpha" type="matrix" values="0 0 0 0 0 0 0 0 0 0 0 0 0 0 0 0 0 0 127 0" result="hardAlpha"/>
<feOffset dy="4"/>
<feGaussianBlur stdDeviation="4"/>
<feColorMatrix type="matrix" values="0 0 0 0 0.226735 0 0 0 0 0.437054 0 0 0 0 0.687819 0 0 0 0.0769928 0"/>
<feBlend mode="normal" in2="BackgroundImageFix" result="effect1_dropShadow_1432_106"/>
<feBlend mode="normal" in="SourceGraphic" in2="effect1_dropShadow_1432_106" result="shape"/>
</filter>
<filter id="filter1_d_1432_106" x="3.5" y="111.5" width="162" height="52" filterUnits="userSpaceOnUse" color-interpolation-filters="sRGB">
<feFlood flood-opacity="0" result="BackgroundImageFix"/>
<feColorMatrix in="SourceAlpha" type="matrix" values="0 0 0 0 0 0 0 0 0 0 0 0 0 0 0 0 0 0 127 0" result="hardAlpha"/>
<feOffset dy="4"/>
<feGaussianBlur stdDeviation="4"/>
<feColorMatrix type="matrix" values="0 0 0 0 0.226735 0 0 0 0 0.437054 0 0 0 0 0.687819 0 0 0 0.0769928 0"/>
<feBlend mode="normal" in2="BackgroundImageFix" result="effect1_dropShadow_1432_106"/>
<feBlend mode="normal" in="SourceGraphic" in2="effect1_dropShadow_1432_106" result="shape"/>
</filter>
<filter id="filter2_d_1432_106" x="3.5" y="25.5" width="162" height="52" filterUnits="userSpaceOnUse" color-interpolation-filters="sRGB">
<feFlood flood-opacity="0" result="BackgroundImageFix"/>
<feColorMatrix in="SourceAlpha" type="matrix" values="0 0 0 0 0 0 0 0 0 0 0 0 0 0 0 0 0 0 127 0" result="hardAlpha"/>
<feOffset dy="4"/>
<feGaussianBlur stdDeviation="4"/>
<feColorMatrix type="matrix" values="0 0 0 0 0.226735 0 0 0 0 0.437054 0 0 0 0 0.687819 0 0 0 0.0769928 0"/>
<feBlend mode="normal" in2="BackgroundImageFix" result="effect1_dropShadow_1432_106"/>
<feBlend mode="normal" in="SourceGraphic" in2="effect1_dropShadow_1432_106" result="shape"/>
</filter>
</defs>
</svg>
