<svg width="161" height="160" viewBox="0 0 161 160" fill="none" xmlns="http://www.w3.org/2000/svg">
<defs>
<linearGradient id="paint0_linear_1003_80" x1="105.105" y1="23.2535" x2="105.105" y2="65.1852" gradientUnits="userSpaceOnUse">
<stop stop-color="white"/>
<stop offset="1" stop-color="white" stop-opacity="0.158486"/>
</linearGradient>
<linearGradient id="paint1_linear_1003_80" x1="10.8959" y1="19.1898" x2="10.8959" y2="41.1647" gradientUnits="userSpaceOnUse">
<stop stop-color="white"/>
<stop offset="1" stop-color="white" stop-opacity="0.158486"/>
</linearGradient>
<linearGradient id="paint2_linear_1003_80" x1="44.1758" y1="95.9955" x2="39.1322" y2="109.539" gradientUnits="userSpaceOnUse">
<stop stop-color="#8392A2"/>
<stop offset="1" stop-color="#2E3B4A"/>
</linearGradient>
<linearGradient id="paint3_linear_1003_80" x1="43.7172" y1="96.7686" x2="13.2488" y2="115.028" gradientUnits="userSpaceOnUse">
<stop stop-color="#8392A2"/>
<stop offset="1" stop-color="#2E3B4A"/>
</linearGradient>
<linearGradient id="paint4_linear_1003_80" x1="0.75819" y1="-17.4994" x2="-29.7102" y2="0.760402" gradientUnits="userSpaceOnUse">
<stop stop-color="#8392A2"/>
<stop offset="1" stop-color="#2E3B4A"/>
</linearGradient>
<linearGradient id="paint5_linear_1003_80" x1="43.3963" y1="108.596" x2="42.6585" y2="114.936" gradientUnits="userSpaceOnUse">
<stop stop-color="#8392A2"/>
<stop offset="1" stop-color="#2E3B4A"/>
</linearGradient>
<linearGradient id="paint6_linear_1003_80" x1="43.7357" y1="63.8482" x2="60.4168" y2="94.0886" gradientUnits="userSpaceOnUse">
<stop stop-color="#BDC8D4"/>
<stop offset="1" stop-color="#8897A9"/>
</linearGradient>
<linearGradient id="paint7_linear_1003_80" x1="27.9384" y1="81.7212" x2="40.6796" y2="105.616" gradientUnits="userSpaceOnUse">
<stop stop-color="#BDC8D4"/>
<stop offset="1" stop-color="#8897A9"/>
</linearGradient>
<linearGradient id="paint8_linear_1003_80" x1="12.1486" y1="97.5552" x2="23.042" y2="116.928" gradientUnits="userSpaceOnUse">
<stop stop-color="#BDC8D4"/>
<stop offset="1" stop-color="#8897A9"/>
</linearGradient>
<linearGradient id="paint9_linear_1003_80" x1="20.7711" y1="102.432" x2="20.7711" y2="116.432" gradientUnits="userSpaceOnUse">
<stop stop-color="#DAECE9"/>
<stop offset="1" stop-color="#9BBFCA"/>
</linearGradient>
<clipPath id="clip0_1003_80">
<rect width="160" height="160" fill="white" transform="translate(0.4021)"/>
</clipPath>
</defs>
<g clip-path="url(#clip0_1003_80)">
<path fill-rule="evenodd" clip-rule="evenodd" d="M80.4021 160C124.585 160 160.402 124.183 160.402 80C160.402 35.8172 124.585 0 80.4021 0C36.2193 0 0.4021 35.8172 0.4021 80C0.4021 124.183 36.2193 160 80.4021 160Z" fill="#AED6E2"/>
<mask id="mask0_1003_80" style="mask-type:alpha" maskUnits="userSpaceOnUse" x="0" y="0" width="161" height="160">
<path fill-rule="evenodd" clip-rule="evenodd" d="M80.4021 160C124.585 160 160.402 124.183 160.402 80C160.402 35.8172 124.585 0 80.4021 0C36.2193 0 0.4021 35.8172 0.4021 80C0.4021 124.183 36.2193 160 80.4021 160Z" fill="white"/>
</mask>
<g mask="url(#mask0_1003_80)">
<path fill-rule="evenodd" clip-rule="evenodd" d="M124.308 0C129.552 0 134.265 2.2014 137.519 5.70311C141.494 2.16065 146.784 0 152.591 0C164.939 0 174.948 9.76833 174.948 21.8182C174.948 22.3998 174.925 22.9761 174.879 23.5463C182.552 27.0025 187.878 34.5778 187.878 43.3668C187.878 55.4167 177.868 65.185 165.521 65.185C158.754 65.185 152.689 62.2513 148.59 57.6161C144.678 62.72 137.559 65.1852 129.426 65.1852C119.037 65.1852 110.302 61.1626 107.794 52.7559C107.376 52.7816 106.955 52.7947 106.53 52.7947C95.8194 52.7947 87.1365 44.4735 87.1365 34.2088C87.1365 23.9442 95.8194 15.623 106.53 15.623L106.608 15.6231C107.448 6.85999 115.052 0 124.308 0Z" fill="url(#paint0_linear_1003_80)"/>
<path fill-rule="evenodd" clip-rule="evenodd" d="M20.9601 7.00338C23.7079 7.00338 26.1779 8.15688 27.8831 9.99176C29.9661 8.13553 32.7382 7.00338 35.7813 7.00338C42.2521 7.00338 47.4977 12.1226 47.4977 18.4375C47.4977 18.7423 47.4855 19.0444 47.4615 19.3432C51.483 21.1544 54.2739 25.1244 54.2739 29.7306C54.2739 36.0455 49.0283 41.1647 42.5575 41.1647C39.0112 41.1647 35.8329 39.6272 33.6844 37.1979C31.6343 39.8727 27.9035 41.1647 23.6411 41.1647C18.1965 41.1647 13.6193 39.0566 12.3044 34.6509C12.0857 34.6644 11.8651 34.6712 11.6428 34.6712C6.02956 34.6712 1.47913 30.3104 1.47913 24.9311C1.47913 19.5517 6.02956 15.1909 11.6428 15.1909L11.6838 15.191C12.1241 10.5985 16.1091 7.00338 20.9601 7.00338Z" fill="url(#paint1_linear_1003_80)"/>
<path fill-rule="evenodd" clip-rule="evenodd" d="M146.253 81.3486C123.941 81.1425 98.5819 98.8955 84.6015 103.197C69.7857 107.755 26.6467 114.037 26.6467 114.037C26.6467 114.037 108.061 151.316 149.741 151.045C191.421 150.773 198.113 98.8955 198.113 98.8955C198.113 98.8955 167.699 81.5467 146.253 81.3486Z" fill="#CCD3DC"/>
<path fill-rule="evenodd" clip-rule="evenodd" d="M169.852 118.206C169.852 118.206 98.5631 228.632 52.2309 228.632C5.89883 228.632 -74.3373 112.724 -74.3373 112.724C-74.3373 112.724 -39.4055 87.5796 0.624435 75.313C30.0432 66.298 53.5461 88.4983 102.236 109.898C121.689 118.448 169.852 118.206 169.852 118.206Z" fill="#DAE0E6"/>
<rect x="43.4176" y="99.901" width="6.19355" height="12.3871" rx="0.9" fill="url(#paint2_linear_1003_80)"/>
<rect x="42.959" y="114.268" width="6.19355" height="55.5023" rx="0.9" transform="rotate(-15 42.959 114.268)" fill="url(#paint3_linear_1003_80)"/>
<rect width="6.19355" height="55.5023" rx="0.9" transform="matrix(-0.965926 -0.258819 -0.258819 0.965926 49.8873 114.268)" fill="url(#paint4_linear_1003_80)"/>
<rect x="42.3854" y="110.224" width="8.25806" height="5.16129" rx="0.9" fill="url(#paint5_linear_1003_80)"/>
<path fill-rule="evenodd" clip-rule="evenodd" d="M65.2194 93.7679L89.2745 75.8416C91.0459 74.5216 88.7365 68.4255 84.1163 62.2257C79.4961 56.0259 74.3147 52.0701 72.5433 53.3902L48.4882 71.3165C46.7169 72.6365 49.0263 78.7326 53.6465 84.9324C58.2667 91.1321 63.4481 95.088 65.2194 93.7679Z" fill="url(#paint6_linear_1003_80)"/>
<path fill-rule="evenodd" clip-rule="evenodd" d="M49.6832 72.9201C51.4546 71.6001 56.1009 74.8379 60.0611 80.152C64.0212 85.4661 65.7956 90.8442 64.0242 92.1642L62.4206 93.3593C60.6492 94.6794 56.0029 91.4415 52.0427 86.1274C48.0825 80.8133 46.3082 75.4353 48.0795 74.1152L49.6832 72.9201Z" fill="#7C8A9B"/>
<path fill-rule="evenodd" clip-rule="evenodd" d="M48.6771 74.9171L31.8385 87.4655C30.51 88.4555 32.3758 93.207 36.006 98.0783C39.6361 102.95 43.6559 106.096 44.9844 105.106L61.823 92.5575C63.1515 91.5674 61.2857 86.8159 57.6556 81.9446C54.0254 77.0734 50.0056 73.927 48.6771 74.9171Z" fill="url(#paint7_linear_1003_80)"/>
<path fill-rule="evenodd" clip-rule="evenodd" d="M42.7832 105.499L45.1888 103.706C46.5173 102.716 44.919 98.3239 41.6188 93.8955C38.3187 89.4671 34.5664 86.6797 33.2379 87.6698L30.8324 89.4624C29.5039 90.4524 31.1022 94.845 34.4023 99.2734C37.7024 103.702 41.4547 106.489 42.7832 105.499Z" fill="#7C8A9B"/>
<path fill-rule="evenodd" clip-rule="evenodd" d="M31.4299 90.2642L15.3932 102.215C14.0647 103.205 15.3954 107.239 18.3656 111.224C21.3357 115.21 24.8204 117.638 26.149 116.648L42.1857 104.697C43.5142 103.707 42.1834 99.6737 39.2133 95.6881C36.2432 91.7025 32.7584 89.2742 31.4299 90.2642Z" fill="url(#paint8_linear_1003_80)"/>
<ellipse cx="20.7711" cy="109.432" rx="2" ry="7" transform="rotate(-36.6941 20.7711 109.432)" fill="url(#paint9_linear_1003_80)"/>
</g>
</g>

</svg>
