<svg width="343" height="180" viewBox="0 0 343 180" fill="none" xmlns="http://www.w3.org/2000/svg">
<defs>
<clipPath id="clip0_312_284495">
<rect width="343" height="180" rx="12" fill="white"/>
</clipPath>
<clipPath id="clip1_312_284495">
<rect width="12" height="12" fill="white" transform="matrix(-1 0 0 1 84 73)"/>
</clipPath>
</defs>
<g clip-path="url(#clip0_312_284495)">
<rect width="343" height="180" rx="12" fill="#DDF3FF"/>
<rect x="52" y="24" width="240" height="218" rx="12" fill="white"/>
<rect x="68" y="61" width="188" height="1" fill="#D9D9D9"/>
<path d="M70.7959 50H68.8203V40.1357H70.543L75.1504 46.5615H75.2051V40.1357H77.1807V50H75.4717L70.8574 43.54H70.7959V50ZM81.9453 43.9912C81.5124 43.9912 81.1501 44.1393 80.8584 44.4355C80.5713 44.7318 80.4095 45.11 80.373 45.5703H83.4834C83.4606 45.1009 83.3079 44.7204 83.0254 44.4287C82.7474 44.137 82.3874 43.9912 81.9453 43.9912ZM83.5107 47.7578H85.3428C85.2334 48.4779 84.8734 49.0589 84.2627 49.501C83.6566 49.9385 82.9023 50.1572 82 50.1572C80.8743 50.1572 79.9902 49.82 79.3477 49.1455C78.7096 48.471 78.3906 47.5459 78.3906 46.3701C78.3906 45.1989 78.7096 44.2646 79.3477 43.5674C79.9857 42.8656 80.8447 42.5146 81.9248 42.5146C82.9867 42.5146 83.832 42.8473 84.4609 43.5127C85.0898 44.1781 85.4043 45.069 85.4043 46.1855V46.7939H80.3525V46.917C80.3525 47.4411 80.5052 47.8672 80.8105 48.1953C81.1204 48.5189 81.5283 48.6807 82.0342 48.6807C82.3988 48.6807 82.7132 48.5986 82.9775 48.4346C83.2419 48.266 83.4196 48.0404 83.5107 47.7578ZM96.6768 42.6719L94.7354 50H92.6094L91.2832 44.8184H91.2422L89.9229 50H87.8242L85.876 42.6719H87.8857L88.9932 48.1064H89.0342L90.333 42.6719H92.2471L93.5527 48.1064H93.5938L94.708 42.6719H96.6768ZM100.765 50V44.1758H99.7666V42.7061H100.765V42.1523C100.765 41.4232 100.951 40.89 101.325 40.5527C101.703 40.2155 102.321 40.0469 103.178 40.0469C103.57 40.0469 103.909 40.0765 104.196 40.1357V41.4551C104.05 41.4277 103.87 41.4141 103.656 41.4141C103.027 41.4141 102.713 41.6829 102.713 42.2207V42.7061H104.169V44.1758H102.761V50H100.765ZM108.305 43.9912C107.872 43.9912 107.509 44.1393 107.218 44.4355C106.931 44.7318 106.769 45.11 106.732 45.5703H109.843C109.82 45.1009 109.667 44.7204 109.385 44.4287C109.107 44.137 108.747 43.9912 108.305 43.9912ZM109.87 47.7578H111.702C111.593 48.4779 111.233 49.0589 110.622 49.501C110.016 49.9385 109.262 50.1572 108.359 50.1572C107.234 50.1572 106.35 49.82 105.707 49.1455C105.069 48.471 104.75 47.5459 104.75 46.3701C104.75 45.1989 105.069 44.2646 105.707 43.5674C106.345 42.8656 107.204 42.5146 108.284 42.5146C109.346 42.5146 110.191 42.8473 110.82 43.5127C111.449 44.1781 111.764 45.069 111.764 46.1855V46.7939H106.712V46.917C106.712 47.4411 106.865 47.8672 107.17 48.1953C107.48 48.5189 107.888 48.6807 108.394 48.6807C108.758 48.6807 109.073 48.5986 109.337 48.4346C109.601 48.266 109.779 48.0404 109.87 47.7578ZM115.626 48.6738C116.068 48.6738 116.442 48.5462 116.747 48.291C117.057 48.0312 117.212 47.7054 117.212 47.3135V46.7803L115.667 46.876C115.293 46.9033 115.004 46.9967 114.799 47.1562C114.598 47.3158 114.498 47.5254 114.498 47.7852C114.498 48.0586 114.601 48.2751 114.806 48.4346C115.011 48.5941 115.284 48.6738 115.626 48.6738ZM114.97 50.1162C114.263 50.1162 113.678 49.9089 113.213 49.4941C112.748 49.0794 112.516 48.5462 112.516 47.8945C112.516 47.2292 112.762 46.7074 113.254 46.3291C113.746 45.9508 114.45 45.7344 115.366 45.6797L117.212 45.5703V45.085C117.212 44.7477 117.1 44.4834 116.877 44.292C116.658 44.1006 116.36 44.0049 115.981 44.0049C115.617 44.0049 115.318 44.0869 115.086 44.251C114.858 44.415 114.719 44.6361 114.669 44.9141H112.844C112.88 44.194 113.188 43.6152 113.767 43.1777C114.345 42.7357 115.113 42.5146 116.07 42.5146C117.009 42.5146 117.761 42.738 118.326 43.1846C118.891 43.6312 119.174 44.2236 119.174 44.9619V50H117.246V48.8789H117.205C117.005 49.2617 116.699 49.5648 116.289 49.7881C115.879 50.0068 115.439 50.1162 114.97 50.1162ZM120.999 40.9834H122.995V42.6719H124.349V44.1758H122.995V47.6826C122.995 48.234 123.282 48.5098 123.856 48.5098C124.043 48.5098 124.205 48.4984 124.342 48.4756V49.9453C124.109 50 123.793 50.0273 123.392 50.0273C122.53 50.0273 121.915 49.8724 121.546 49.5625C121.181 49.2526 120.999 48.7399 120.999 48.0244V44.1758H119.967V42.6719H120.999V40.9834ZM132.21 42.6719V50H130.282V48.6807H130.241C129.858 49.6514 129.127 50.1367 128.047 50.1367C127.245 50.1367 126.604 49.8929 126.126 49.4053C125.647 48.9131 125.408 48.2432 125.408 47.3955V42.6719H127.404V46.9785C127.404 47.4661 127.521 47.8376 127.753 48.0928C127.99 48.348 128.329 48.4756 128.771 48.4756C129.214 48.4756 129.564 48.3298 129.824 48.0381C130.084 47.7464 130.214 47.3568 130.214 46.8691V42.6719H132.21ZM133.509 50V42.6719H135.437V43.9912H135.478C135.605 43.5264 135.819 43.1709 136.12 42.9248C136.421 42.6787 136.788 42.5557 137.221 42.5557C137.43 42.5557 137.619 42.5807 137.788 42.6309V44.3877C137.601 44.3102 137.36 44.2715 137.063 44.2715C136.571 44.2715 136.188 44.415 135.915 44.7021C135.642 44.9893 135.505 45.3903 135.505 45.9053V50H133.509ZM141.65 43.9912C141.217 43.9912 140.855 44.1393 140.563 44.4355C140.276 44.7318 140.115 45.11 140.078 45.5703H143.188C143.166 45.1009 143.013 44.7204 142.73 44.4287C142.452 44.137 142.092 43.9912 141.65 43.9912ZM143.216 47.7578H145.048C144.938 48.4779 144.578 49.0589 143.968 49.501C143.362 49.9385 142.607 50.1572 141.705 50.1572C140.579 50.1572 139.695 49.82 139.053 49.1455C138.415 48.471 138.096 47.5459 138.096 46.3701C138.096 45.1989 138.415 44.2646 139.053 43.5674C139.691 42.8656 140.55 42.5146 141.63 42.5146C142.692 42.5146 143.537 42.8473 144.166 43.5127C144.795 44.1781 145.109 45.069 145.109 46.1855V46.7939H140.058V46.917C140.058 47.4411 140.21 47.8672 140.516 48.1953C140.826 48.5189 141.233 48.6807 141.739 48.6807C142.104 48.6807 142.418 48.5986 142.683 48.4346C142.947 48.266 143.125 48.0404 143.216 47.7578ZM146.019 44.8252C146.019 44.1279 146.299 43.5697 146.859 43.1504C147.42 42.7266 148.17 42.5146 149.108 42.5146C150.024 42.5146 150.76 42.7288 151.316 43.1572C151.872 43.5856 152.157 44.1553 152.171 44.8662H150.332C150.309 44.57 150.186 44.3376 149.963 44.1689C149.744 44.0003 149.45 43.916 149.081 43.916C148.735 43.916 148.457 43.9889 148.247 44.1348C148.042 44.276 147.939 44.4652 147.939 44.7021C147.939 45.0576 148.258 45.3105 148.896 45.4609L150.298 45.7617C151.032 45.9258 151.558 46.165 151.877 46.4795C152.201 46.7894 152.362 47.2178 152.362 47.7646C152.362 48.4847 152.062 49.0635 151.46 49.501C150.858 49.9385 150.072 50.1572 149.102 50.1572C148.135 50.1572 147.363 49.943 146.784 49.5146C146.205 49.0863 145.889 48.5098 145.834 47.7852H147.782C147.832 48.0951 147.974 48.3343 148.206 48.5029C148.443 48.6715 148.76 48.7559 149.156 48.7559C149.535 48.7559 149.831 48.6875 150.045 48.5508C150.264 48.4095 150.373 48.2181 150.373 47.9766C150.373 47.7897 150.305 47.6416 150.168 47.5322C150.031 47.4183 149.799 47.3226 149.471 47.2451L148.117 46.9443C146.718 46.6253 146.019 45.9189 146.019 44.8252Z" fill="black"/>
<rect x="68" y="115" width="20" height="20" rx="10" fill="#F7EDFF"/>
<path fill-rule="evenodd" clip-rule="evenodd" d="M74.5298 124.098C74.5117 123.926 73.8174 123.728 73.5829 124.287C73.3485 124.846 73.7723 125.64 74.5658 125.703C75.3594 125.766 75.1249 125.622 75.1249 125.622L74.5298 124.098Z" fill="#E4AE7C"/>
<path fill-rule="evenodd" clip-rule="evenodd" d="M81.5997 124.098C81.6177 123.926 82.3121 123.728 82.5465 124.287C82.781 124.846 82.3572 125.64 81.5636 125.703C80.7701 125.766 81.0045 125.622 81.0045 125.622L81.5997 124.098Z" fill="#E4AE7C"/>
<path fill-rule="evenodd" clip-rule="evenodd" d="M78.0554 135H71.6529C71.5807 131.727 74.0967 129.824 76.2609 129.121C76.4322 128.21 76.3872 127.019 76.3872 127.019H78.0464H79.7057C79.7057 127.019 79.6606 128.201 79.8319 129.121C81.9961 129.833 84.5121 131.727 84.4399 135H78.0554Z" fill="#E4AE7C"/>
<path fill-rule="evenodd" clip-rule="evenodd" d="M79.7238 127.019C79.7238 127.019 79.7148 127.254 79.7238 127.597C79.0925 129.184 77.1267 129.364 76.4053 127.66C76.4143 127.281 76.4053 127.019 76.4053 127.019C77.5054 127.019 78.6146 127.019 79.7238 127.019Z" fill="#D67F54"/>
<path fill-rule="evenodd" clip-rule="evenodd" d="M84.6745 135C84.7466 131.772 82.2127 129.878 79.9943 129.148C79.5524 130.13 76.5766 130.13 76.1348 129.139C73.9164 129.86 71.3644 131.763 71.4366 135H84.6745Z" fill="#C53D3F"/>
<path fill-rule="evenodd" clip-rule="evenodd" d="M78.0555 127.867C73.9254 127.966 71.8423 117.785 78.0555 118.047C84.2686 117.785 82.1856 127.966 78.0555 127.867Z" fill="#E4AE7C"/>
<path fill-rule="evenodd" clip-rule="evenodd" d="M74.2681 123.566L74.4845 123.322C74.5476 123.25 75.747 126.072 76.0355 125.495C76.7479 124.043 79.3721 124.269 79.9131 125.423C80.4452 126.28 81.6625 123.421 81.6625 122.574C81.6625 122.574 81.8068 122.583 81.9782 122.637C81.8339 124.855 80.6436 127.182 78.9753 127.786C76.3602 128.381 74.755 126.127 74.2681 123.566Z" fill="#A87E58"/>
<path fill-rule="evenodd" clip-rule="evenodd" d="M74.331 123.908C74.0425 122.682 73.8982 121.212 74.2589 120.148C74.7008 118.84 76.378 118.056 78.0553 118.047C79.6695 118.038 81.2837 118.741 81.7886 119.949C82.2395 121.023 82.0952 122.61 81.7886 123.908C81.3378 123.223 81.1394 121.996 81.1845 121.257C81.2476 120.13 79.6785 119.535 78.0643 119.49C76.4502 119.544 74.8811 120.13 74.9442 121.257C74.9713 121.996 74.7819 123.214 74.331 123.908Z" fill="#52311D"/>
<path fill-rule="evenodd" clip-rule="evenodd" d="M79.742 118.48C80.4634 119.237 80.6348 119.598 81.0316 119.904C81.2209 120.049 80.3192 120.445 79.7961 120.274C79.8502 120.418 80.1749 120.752 80.1659 120.761C79.8052 120.932 78.6058 120.869 77.8213 120.418C77.8303 120.554 77.8664 120.797 77.9926 120.887C78.0287 120.914 77.5958 120.878 77.4696 120.851C76.7572 120.716 75.3775 120.022 75.2603 118.912C75.63 117.352 78.2451 116.911 79.742 118.48Z" fill="#52311D"/>
<path fill-rule="evenodd" clip-rule="evenodd" d="M77.6948 130.843C77.6948 130.816 77.7129 130.798 77.7399 130.798C77.767 130.798 77.785 130.816 77.785 130.843V132.466C77.785 132.493 77.767 132.511 77.7399 132.511C77.7129 132.511 77.6948 132.493 77.6948 132.466V130.843Z" fill="#632421"/>
<path fill-rule="evenodd" clip-rule="evenodd" d="M78.0734 131.33C78.1636 131.33 78.2358 131.258 78.2358 131.176C78.2358 131.095 78.1636 131.023 78.0734 131.023C77.9833 131.023 77.9111 131.095 77.9111 131.176C77.9111 131.258 77.9833 131.33 78.0734 131.33Z" fill="#632421"/>
<path fill-rule="evenodd" clip-rule="evenodd" d="M78.0734 132.232C78.1636 132.232 78.2358 132.159 78.2358 132.078C78.2358 131.997 78.1636 131.925 78.0734 131.925C77.9833 131.925 77.9111 131.997 77.9111 132.078C77.9111 132.159 77.9833 132.232 78.0734 132.232Z" fill="#632421"/>
<path fill-rule="evenodd" clip-rule="evenodd" d="M73.3574 133.079C73.3574 133.043 73.3844 133.016 73.4205 133.016C73.4566 133.016 73.4836 133.043 73.4836 133.079L73.4656 134.928C73.4656 134.964 73.4385 134.991 73.4025 134.991C73.3664 134.991 73.3394 134.964 73.3394 134.928L73.3574 133.079Z" fill="#632421"/>
<path fill-rule="evenodd" clip-rule="evenodd" d="M82.5732 133.079C82.5732 133.043 82.6003 133.016 82.6363 133.016C82.6724 133.016 82.6995 133.043 82.6995 133.079L82.6814 134.928C82.6814 134.964 82.6544 134.991 82.6183 134.991C82.5822 134.991 82.5552 134.964 82.5552 134.928L82.5732 133.079Z" fill="#632421"/>
<path fill-rule="evenodd" clip-rule="evenodd" d="M78.0553 129.941C78.1004 130.32 77.2618 131.312 77.0544 131.285C76.5494 131.204 75.9181 129.842 75.8731 129.193C75.846 128.85 76.3871 128.047 76.3871 128.056L76.351 128.706C76.3239 129.084 77.0273 129.707 78.0553 129.941Z" fill="#9C393F"/>
<path fill-rule="evenodd" clip-rule="evenodd" d="M78.0555 129.941C78.0104 130.32 78.849 131.312 79.0564 131.285C79.5614 131.203 80.1926 129.842 80.2377 129.193C80.2648 128.85 79.7327 128.029 79.7327 128.038L79.7688 128.688C79.7869 129.066 79.0835 129.707 78.0555 129.941Z" fill="#9C393F"/>
<path fill-rule="evenodd" clip-rule="evenodd" d="M75.8553 119.598C75.9004 119.724 75.9455 119.832 76.0086 119.95C76.1439 120.211 76.2882 120.419 76.4956 120.626C76.5136 120.644 76.7661 120.905 76.7661 120.923C76.712 121.023 76.4234 120.851 76.3693 120.824C76.0627 120.671 75.8463 120.437 75.6569 120.148C75.5668 120.004 75.5036 119.886 75.4495 119.724C75.3774 119.472 75.2601 119.183 75.5487 119.192C75.8102 119.192 75.7561 119.291 75.8553 119.598Z" fill="#52311D"/>
<path fill-rule="evenodd" clip-rule="evenodd" d="M76.9824 125.162C77.3612 125.153 77.7399 125.153 78.1186 125.153C78.4974 125.153 78.8761 125.153 79.2549 125.162C79.2549 125.757 78.6687 125.973 78.1186 125.973C77.5776 125.964 76.9824 125.757 76.9824 125.162Z" fill="white"/>
<path fill-rule="evenodd" clip-rule="evenodd" d="M77.8663 126.325C77.8483 126.316 77.8392 126.289 77.8483 126.262C77.8573 126.244 77.8843 126.235 77.9114 126.244C77.9745 126.28 78.0557 126.298 78.1278 126.298C78.209 126.298 78.2811 126.28 78.3442 126.244C78.3623 126.235 78.3893 126.235 78.4074 126.262C78.4164 126.28 78.4164 126.307 78.3893 126.325C78.3172 126.37 78.218 126.388 78.1278 126.388C78.0376 126.388 77.9384 126.37 77.8663 126.325Z" fill="#906949"/>
<path fill-rule="evenodd" clip-rule="evenodd" d="M82.294 124.72C82.294 124.747 82.2759 124.765 82.2489 124.765C82.2218 124.765 82.2038 124.747 82.2038 124.72C82.2038 124.585 82.1768 124.494 82.1407 124.449C82.1136 124.422 82.0866 124.404 82.0595 124.404C82.0235 124.404 81.9784 124.413 81.9333 124.44C81.816 124.503 81.6898 124.648 81.6267 124.801C81.5906 124.873 81.5635 124.954 81.5545 125.008C81.6267 124.963 81.6988 124.945 81.7619 124.945C81.798 124.945 81.8341 124.963 81.8611 124.981C81.8882 124.999 81.9062 125.026 81.9243 125.063C81.9423 125.126 81.9243 125.207 81.8611 125.306C81.8431 125.324 81.816 125.333 81.798 125.315C81.78 125.297 81.771 125.27 81.789 125.252C81.8341 125.18 81.8521 125.126 81.8431 125.081C81.8341 125.063 81.8251 125.053 81.816 125.044C81.798 125.035 81.78 125.026 81.7619 125.026C81.7078 125.017 81.6357 125.044 81.5726 125.108C81.5545 125.126 81.5455 125.135 81.5275 125.135C81.4914 125.144 81.4734 125.126 81.4644 125.09C81.4644 125.081 81.4644 125.063 81.4644 125.035C81.4734 124.972 81.5094 124.855 81.5636 124.756C81.6357 124.585 81.771 124.431 81.9062 124.35C81.9603 124.314 82.0235 124.296 82.0776 124.305C82.1317 124.305 82.1858 124.332 82.2309 124.377C82.2579 124.458 82.294 124.567 82.294 124.72Z" fill="#D67F54"/>
<path fill-rule="evenodd" clip-rule="evenodd" d="M73.9076 124.72C73.9076 124.747 73.8895 124.765 73.8625 124.765C73.8354 124.765 73.8174 124.747 73.8174 124.72C73.8174 124.558 73.8444 124.458 73.8985 124.395C73.9436 124.341 73.9887 124.323 74.0518 124.323C74.1059 124.323 74.1601 124.341 74.2232 124.368C74.3584 124.44 74.4937 124.603 74.5658 124.774C74.6109 124.882 74.647 124.99 74.665 125.054C74.665 125.072 74.665 125.09 74.665 125.108C74.656 125.144 74.638 125.162 74.6019 125.153C74.5839 125.153 74.5749 125.144 74.5568 125.126C74.4937 125.063 74.4216 125.036 74.3675 125.045C74.3494 125.045 74.3314 125.054 74.3134 125.063C74.3043 125.072 74.2953 125.081 74.2863 125.099C74.2773 125.135 74.2863 125.189 74.3404 125.27C74.3584 125.288 74.3494 125.315 74.3314 125.333C74.3134 125.351 74.2863 125.342 74.2683 125.324C74.2051 125.225 74.1871 125.144 74.2051 125.081C74.2142 125.045 74.2412 125.017 74.2683 124.999C74.2953 124.981 74.3314 124.972 74.3675 124.963C74.4306 124.954 74.5117 124.972 74.5749 125.026C74.5568 124.972 74.5298 124.891 74.5027 124.819C74.4396 124.666 74.3134 124.522 74.1961 124.458C74.151 124.431 74.115 124.422 74.0699 124.422C74.0338 124.422 74.0068 124.44 73.9887 124.467C73.9346 124.503 73.9076 124.585 73.9076 124.72Z" fill="#D67F54"/>
<path fill-rule="evenodd" clip-rule="evenodd" d="M76.1259 118.38C76.1349 118.353 76.153 118.344 76.18 118.344C76.2071 118.353 76.2161 118.371 76.2161 118.398C76.1259 118.84 76.2431 119.237 76.4686 119.571C76.7662 120.013 77.2441 120.355 77.704 120.581C77.722 120.59 77.731 120.617 77.722 120.644C77.713 120.662 77.686 120.671 77.6589 120.662C77.19 120.427 76.694 120.076 76.3874 119.616C76.153 119.264 76.0267 118.849 76.1259 118.38Z" fill="#6C452C"/>
<path fill-rule="evenodd" clip-rule="evenodd" d="M76.5044 118.056C76.5044 118.029 76.5224 118.011 76.5405 118.002C76.5675 118.002 76.5856 118.02 76.5946 118.038C76.6397 118.389 76.9192 118.813 77.316 119.192C77.7308 119.598 78.2719 119.968 78.7768 120.166C79.7688 120.554 79.8409 120.554 79.8409 120.554C79.868 120.554 79.886 120.572 79.886 120.599C79.886 120.626 79.868 120.644 79.8409 120.644C79.8409 120.644 79.7508 120.644 78.7498 120.247C78.2358 120.04 77.6857 119.67 77.2529 119.255C76.838 118.867 76.5495 118.426 76.5044 118.056Z" fill="#6C452C"/>
<path fill-rule="evenodd" clip-rule="evenodd" d="M77.3974 117.857C77.3883 117.83 77.4064 117.812 77.4334 117.803C77.4605 117.794 77.4785 117.812 77.4875 117.839C77.5597 118.137 77.8122 118.462 78.1458 118.741C78.4885 119.021 78.9304 119.255 79.3542 119.372C80.2199 119.598 80.3011 119.607 80.3011 119.607C80.3281 119.607 80.3461 119.634 80.3371 119.661C80.3371 119.688 80.3101 119.706 80.283 119.697C80.283 119.697 80.2019 119.688 79.3362 119.463C78.8943 119.345 78.4434 119.111 78.0917 118.813C77.74 118.516 77.4785 118.173 77.3974 117.857Z" fill="#6C452C"/>
<path fill-rule="evenodd" clip-rule="evenodd" d="M77.1266 125.577C77.0996 125.577 77.0815 125.558 77.0815 125.531C77.0815 125.504 77.0996 125.486 77.1266 125.486H79.1286C79.1556 125.486 79.1736 125.504 79.1736 125.531C79.1736 125.558 79.1556 125.577 79.1286 125.577H77.1266Z" fill="#AFB0B0"/>
<rect x="92" y="115" width="20" height="20" rx="10" fill="#DDF3FF"/>
<path fill-rule="evenodd" clip-rule="evenodd" d="M99.2918 121.827C99.4724 122.317 99.61 126.031 98.8791 126.315C96.3768 127.287 96.695 130.494 98.8017 131.707C102.783 133.994 103.411 121.07 103.376 120.434C103.35 119.943 103.866 120.176 103.832 119.806C103.694 118.086 102.215 117.372 101.141 117.519C99.653 117.716 98.4405 119.505 99.2918 121.827Z" fill="#23142B"/>
<path fill-rule="evenodd" clip-rule="evenodd" d="M101.622 120.674C102.241 120.674 102.749 120.244 102.749 119.72C102.749 119.195 102.241 118.765 101.622 118.765C101.003 118.765 100.496 119.195 100.496 119.72C100.504 120.244 101.003 120.674 101.622 120.674Z" fill="#E3A64A"/>
<path fill-rule="evenodd" clip-rule="evenodd" d="M102.895 129.024L102.852 127.648H100.358L100.263 129.024C100.22 129.634 98.9135 129.841 98.4061 130.15C96.8927 131.07 95.5685 132.644 95.6201 134.948H107.581C107.633 132.773 106.455 131.242 105.036 130.305C104.357 129.841 102.912 129.505 102.895 129.024Z" fill="#E4AE7C"/>
<path fill-rule="evenodd" clip-rule="evenodd" d="M100.281 128.783C101.046 129.488 102.104 129.505 102.886 128.826L102.852 127.648H100.358L100.281 128.783Z" fill="#D67F54"/>
<path fill-rule="evenodd" clip-rule="evenodd" d="M101.545 128.706C97.9161 128.826 96.0846 119.238 101.545 119.496C101.562 119.496 101.588 119.496 101.605 119.496C101.622 119.496 101.648 119.496 101.665 119.496C107.125 119.247 105.294 128.826 101.665 128.714C101.648 128.714 101.622 128.714 101.605 128.714C101.588 128.706 101.571 128.714 101.545 128.706Z" fill="#E4AE7C"/>
<path fill-rule="evenodd" clip-rule="evenodd" d="M98.3115 124.699C98.2943 124.535 97.6408 124.346 97.4258 124.87C97.2108 125.395 97.5978 126.135 98.3373 126.195C99.0768 126.255 98.8618 126.126 98.8618 126.126L98.3115 124.699Z" fill="#E4AE7C"/>
<path fill-rule="evenodd" clip-rule="evenodd" d="M104.907 124.699C104.924 124.535 105.578 124.346 105.793 124.87C106.008 125.395 105.621 126.135 104.881 126.195C104.142 126.255 104.357 126.126 104.357 126.126L104.907 124.699Z" fill="#E4AE7C"/>
<path fill-rule="evenodd" clip-rule="evenodd" d="M100.616 126.745C101.278 126.736 101.94 126.736 102.603 126.745C102.112 127.7 101.106 127.7 100.616 126.745Z" fill="#88342A"/>
<path fill-rule="evenodd" clip-rule="evenodd" d="M102.121 127.304C101.794 127.519 101.416 127.519 101.089 127.304C101.424 127.098 101.803 127.098 102.121 127.304Z" fill="#D17B65"/>
<path fill-rule="evenodd" clip-rule="evenodd" d="M97.7266 125.257C97.7266 125.283 97.7094 125.3 97.6836 125.3C97.6578 125.3 97.6406 125.283 97.6406 125.257C97.6406 125.103 97.6664 125.008 97.718 124.948C97.761 124.896 97.804 124.879 97.8642 124.879C97.9158 124.879 97.9674 124.896 98.0276 124.922C98.1566 124.991 98.2855 125.146 98.3543 125.309C98.3973 125.412 98.4317 125.515 98.4489 125.576C98.4489 125.593 98.4489 125.61 98.4489 125.627C98.4403 125.662 98.4231 125.679 98.3887 125.67C98.3715 125.67 98.3629 125.662 98.3457 125.644C98.2855 125.584 98.2167 125.558 98.1652 125.567C98.148 125.567 98.1308 125.576 98.1136 125.584C98.105 125.593 98.0964 125.601 98.0878 125.619C98.0792 125.653 98.0878 125.705 98.1394 125.782C98.1566 125.799 98.148 125.825 98.1308 125.842C98.1136 125.859 98.0878 125.851 98.0706 125.834C98.0104 125.739 97.9932 125.662 98.0104 125.601C98.019 125.567 98.0448 125.541 98.0706 125.524C98.0964 125.507 98.1308 125.498 98.1652 125.49C98.2253 125.481 98.2941 125.498 98.3629 125.55C98.3457 125.498 98.3199 125.421 98.2941 125.352C98.2339 125.206 98.1136 125.068 98.0018 125.008C97.9588 124.982 97.9244 124.974 97.8814 124.974C97.847 124.974 97.8212 124.991 97.804 125.017C97.7524 125.043 97.7266 125.129 97.7266 125.257Z" fill="#D67F54"/>
<path fill-rule="evenodd" clip-rule="evenodd" d="M105.56 125.257C105.56 125.283 105.543 125.3 105.517 125.3C105.491 125.3 105.474 125.283 105.474 125.257C105.474 125.128 105.448 125.043 105.414 125C105.388 124.974 105.362 124.957 105.337 124.957C105.302 124.957 105.259 124.965 105.216 124.991C105.104 125.051 104.984 125.189 104.924 125.335C104.889 125.404 104.864 125.481 104.855 125.533C104.924 125.49 104.993 125.472 105.053 125.472C105.087 125.472 105.122 125.49 105.147 125.507C105.173 125.524 105.19 125.55 105.208 125.584C105.225 125.644 105.208 125.722 105.147 125.816C105.13 125.834 105.104 125.842 105.087 125.825C105.07 125.808 105.061 125.782 105.079 125.765C105.122 125.696 105.139 125.644 105.13 125.601C105.122 125.584 105.113 125.576 105.104 125.567C105.087 125.558 105.07 125.55 105.053 125.55C105.001 125.541 104.932 125.567 104.872 125.627C104.855 125.644 104.846 125.653 104.829 125.653C104.795 125.662 104.778 125.644 104.769 125.61C104.769 125.601 104.769 125.584 104.769 125.558C104.778 125.498 104.812 125.386 104.864 125.292C104.932 125.128 105.061 124.982 105.19 124.905C105.242 124.871 105.302 124.853 105.354 124.862C105.405 124.862 105.457 124.888 105.5 124.931C105.526 125.008 105.56 125.103 105.56 125.257Z" fill="#D67F54"/>
<path fill-rule="evenodd" clip-rule="evenodd" d="M101.364 127.846C101.347 127.837 101.339 127.811 101.347 127.786C101.356 127.768 101.382 127.76 101.407 127.768C101.468 127.803 101.545 127.82 101.614 127.82C101.691 127.82 101.76 127.803 101.82 127.768C101.837 127.76 101.863 127.76 101.88 127.786C101.889 127.803 101.889 127.829 101.863 127.846C101.794 127.889 101.7 127.906 101.614 127.906C101.519 127.906 101.433 127.889 101.364 127.846Z" fill="#D67F54"/>
<path fill-rule="evenodd" clip-rule="evenodd" d="M101.304 127.029C101.674 127.029 102.044 127.029 102.413 127.029C102.482 126.943 102.542 126.848 102.603 126.745C102.259 126.736 101.906 126.736 101.562 126.736C101.244 126.736 100.926 126.736 100.616 126.745C100.668 126.857 100.737 126.951 100.805 127.029C100.969 127.029 101.141 127.029 101.304 127.029Z" fill="#EBEBEB"/>
<path fill-rule="evenodd" clip-rule="evenodd" d="M97.9678 129.677C97.9764 129.703 97.9678 129.72 97.942 129.729C97.9162 129.737 97.899 129.729 97.8904 129.703C97.7614 129.368 97.7012 128.929 97.7528 128.516C97.7958 128.155 97.9162 127.82 98.1397 127.579C98.6127 127.072 98.6557 127.046 98.6557 127.046C98.6729 127.037 98.6987 127.037 98.7159 127.063C98.7245 127.08 98.7245 127.106 98.6987 127.123C98.6987 127.123 98.6643 127.141 98.1999 127.639C97.9936 127.863 97.8732 128.19 97.8388 128.525C97.7872 128.929 97.8474 129.351 97.9678 129.677Z" fill="#4E3B52"/>
<path fill-rule="evenodd" clip-rule="evenodd" d="M98.2085 123.787C98.6298 124.105 100.375 124.398 101.983 124.036C103.591 123.675 104.013 122.858 104.013 122.858C104.013 122.858 104.606 123.658 104.649 124.286C104.683 124.905 105.191 122.136 104.288 121.612C103.385 121.096 99.0512 121.096 98.2085 123.787Z" fill="#D67F54"/>
<path fill-rule="evenodd" clip-rule="evenodd" d="M98.2172 122.755C98.4063 120.803 99.378 119.221 101.614 119.393C104.082 119.333 105.07 121.345 105.096 123.564C104.984 123.512 104.881 123.469 104.769 123.426C104.812 123.116 104.555 121.913 104.34 122.119C101.339 124.982 98.0194 123.581 98.1312 123.469C98.1742 123.409 98.2086 122.824 98.2172 122.755Z" fill="#35253D"/>
<path fill-rule="evenodd" clip-rule="evenodd" d="M98.406 125.24C98.6382 125.644 98.6382 125.644 98.6382 125.644C98.6382 119.78 103.015 119.238 104.296 122.979C104.64 123.993 104.546 124.587 104.546 125.644C104.546 125.644 104.546 125.644 104.778 125.24C105.225 124.458 105.448 123.847 105.423 122.876C105.405 122.257 105.294 121.646 105.079 121.216C103.858 118.748 99.7905 118.636 98.3114 120.881C97.4516 122.188 97.6665 123.942 98.406 125.24Z" fill="#35253D"/>
<path fill-rule="evenodd" clip-rule="evenodd" d="M103.952 122.6C103.712 122.979 103.067 123.692 102.267 123.77C102.611 123.495 102.972 123.142 103.187 122.867C103.428 122.549 103.514 122.317 103.806 122.016C103.927 121.887 104.021 121.938 104.021 121.938C104.314 122.05 104.107 122.317 103.952 122.6Z" fill="#35253D"/>
<path fill-rule="evenodd" clip-rule="evenodd" d="M98.7414 123.151C98.7156 123.151 98.707 123.125 98.707 123.099C98.707 123.073 98.7328 123.065 98.7586 123.065C99.3004 123.168 100.023 123.168 100.779 122.979C101.381 122.824 102.009 122.558 102.585 122.11C103.866 121.113 103.806 120.416 103.806 120.416C103.806 120.391 103.823 120.373 103.849 120.373C103.875 120.373 103.892 120.391 103.892 120.416C103.892 120.416 103.961 121.165 102.637 122.188C102.052 122.644 101.416 122.919 100.805 123.073C100.031 123.254 99.2918 123.254 98.7414 123.151Z" fill="#4E3B52"/>
<path fill-rule="evenodd" clip-rule="evenodd" d="M98.5869 122.901C98.5611 122.901 98.5439 122.876 98.5525 122.858C98.5525 122.833 98.5783 122.815 98.5955 122.824C99.0083 122.867 99.6102 122.729 100.204 122.463C100.745 122.222 101.287 121.87 101.665 121.448C102.456 120.571 102.482 120.098 102.482 120.098C102.482 120.072 102.508 120.055 102.525 120.055C102.551 120.055 102.568 120.081 102.568 120.098C102.568 120.098 102.542 120.597 101.726 121.5C101.339 121.93 100.788 122.282 100.229 122.532C99.636 122.798 99.0169 122.944 98.5869 122.901Z" fill="#4E3B52"/>
<path fill-rule="evenodd" clip-rule="evenodd" d="M98.5866 122.472C98.5608 122.48 98.5436 122.472 98.535 122.446C98.5264 122.42 98.535 122.403 98.5608 122.394C98.9993 122.222 99.6786 121.835 100.238 121.285C100.633 120.889 100.968 120.408 101.106 119.858C101.115 119.832 101.132 119.823 101.158 119.823C101.183 119.832 101.192 119.849 101.192 119.875C101.046 120.434 100.71 120.932 100.298 121.337C99.7302 121.904 99.0423 122.3 98.5866 122.472Z" fill="#4E3B52"/>
<path fill-rule="evenodd" clip-rule="evenodd" d="M101.639 131.861C100.212 131.836 98.7758 131.595 97.2538 131.027C96.4971 131.75 95.9124 132.696 95.7061 133.874L97.4172 134.948H101.648H105.878L107.512 133.848C107.297 132.696 106.721 131.775 105.99 131.053C104.477 131.595 103.049 131.836 101.639 131.861Z" fill="#1F1D2E"/>
<path d="M98.3029 127.493C98.4216 127.493 98.5178 127.216 98.5178 126.874C98.5178 126.532 98.4216 126.255 98.3029 126.255C98.1841 126.255 98.0879 126.532 98.0879 126.874C98.0879 127.216 98.1841 127.493 98.3029 127.493Z" fill="#F0CA0C"/>
<path fill-rule="evenodd" clip-rule="evenodd" d="M104.924 127.493C105.044 127.493 105.139 127.209 105.139 126.874C105.139 126.53 105.044 126.255 104.924 126.255C104.804 126.255 104.709 126.539 104.709 126.874C104.7 127.218 104.804 127.493 104.924 127.493Z" fill="#F0CA0C"/>
<path fill-rule="evenodd" clip-rule="evenodd" d="M98.3027 126.289C98.3887 126.289 98.4575 126.221 98.4575 126.135C98.4575 126.049 98.3887 125.98 98.3027 125.98C98.2167 125.98 98.1479 126.049 98.1479 126.135C98.1479 126.221 98.2167 126.289 98.3027 126.289Z" fill="#F0CA0C"/>
<path fill-rule="evenodd" clip-rule="evenodd" d="M104.924 126.289C105.01 126.289 105.079 126.221 105.079 126.135C105.079 126.049 105.01 125.98 104.924 125.98C104.838 125.98 104.769 126.049 104.769 126.135C104.769 126.221 104.838 126.289 104.924 126.289Z" fill="#F0CA0C"/>
<path fill-rule="evenodd" clip-rule="evenodd" d="M101.364 127.846C101.347 127.837 101.339 127.811 101.347 127.786C101.356 127.768 101.382 127.76 101.407 127.768C101.468 127.803 101.545 127.82 101.614 127.82C101.691 127.82 101.76 127.803 101.82 127.768C101.837 127.76 101.863 127.76 101.88 127.786C101.889 127.803 101.889 127.829 101.863 127.846C101.794 127.889 101.7 127.906 101.614 127.906C101.519 127.906 101.433 127.889 101.364 127.846Z" fill="#D67F54"/>
<path fill-rule="evenodd" clip-rule="evenodd" d="M97.503 133.177C97.503 133.143 97.5288 133.117 97.5632 133.117C97.5976 133.117 97.6234 133.143 97.6234 133.177L97.6062 134.94C97.6062 134.974 97.5804 135 97.546 135C97.5116 135 97.4858 134.974 97.4858 134.94L97.503 133.177Z" fill="#0E0A1F"/>
<path fill-rule="evenodd" clip-rule="evenodd" d="M105.603 133.177C105.603 133.143 105.629 133.117 105.663 133.117C105.698 133.117 105.724 133.143 105.724 133.177L105.706 134.94C105.706 134.974 105.681 135 105.646 135C105.612 135 105.586 134.974 105.586 134.94L105.603 133.177Z" fill="#0E0A1F"/>
<rect x="116" y="115" width="20" height="20" rx="10" fill="#FFE5F0"/>
<path fill-rule="evenodd" clip-rule="evenodd" d="M122.742 124.452C122.724 124.287 122.053 124.095 121.826 124.635C121.6 125.176 122.009 125.943 122.777 126.004C123.544 126.065 123.317 125.925 123.317 125.925L122.742 124.452Z" fill="#E4AE7C"/>
<path fill-rule="evenodd" clip-rule="evenodd" d="M129.567 124.452C129.584 124.287 130.256 124.095 130.482 124.635C130.709 125.176 130.299 125.943 129.532 126.004C128.765 126.065 128.992 125.925 128.992 125.925L129.567 124.452Z" fill="#E4AE7C"/>
<path fill-rule="evenodd" clip-rule="evenodd" d="M126.15 134.991H119.96C119.891 131.827 122.323 129.988 124.415 129.308C124.581 128.427 124.537 127.276 124.537 127.276H126.141H127.745C127.745 127.276 127.701 128.418 127.867 129.308C129.959 129.996 132.391 131.827 132.321 134.991H126.15Z" fill="#E4AE7C"/>
<path fill-rule="evenodd" clip-rule="evenodd" d="M127.754 127.276C127.754 127.276 127.745 127.503 127.754 127.834C127.144 129.369 125.243 129.543 124.546 127.895C124.555 127.529 124.546 127.276 124.546 127.276C125.609 127.276 126.682 127.276 127.754 127.276Z" fill="#CA976D"/>
<path fill-rule="evenodd" clip-rule="evenodd" d="M132.548 134.991C132.618 131.871 130.169 130.04 128.024 129.334C127.597 130.284 124.72 130.284 124.293 129.325C122.149 130.022 119.682 131.862 119.751 134.991H132.548Z" fill="#312F58"/>
<path fill-rule="evenodd" clip-rule="evenodd" d="M127.754 129.648C127.022 130.188 125.252 130.179 124.537 129.63V129.909L124.912 135H127.37L127.745 129.909V129.648H127.754Z" fill="#536B8F"/>
<path fill-rule="evenodd" clip-rule="evenodd" d="M126.15 128.096C122.158 128.192 120.144 118.35 126.15 118.603C132.156 118.35 130.143 128.192 126.15 128.096Z" fill="#E4AE7C"/>
<path fill-rule="evenodd" clip-rule="evenodd" d="M125.112 125.481C125.478 125.472 125.845 125.472 126.211 125.472C126.577 125.472 126.943 125.472 127.309 125.481C127.309 126.056 126.742 126.265 126.211 126.265C125.679 126.257 125.112 126.056 125.112 125.481Z" fill="white"/>
<path fill-rule="evenodd" clip-rule="evenodd" d="M125.958 126.605C125.941 126.597 125.932 126.57 125.941 126.544C125.95 126.527 125.976 126.518 126.002 126.527C126.063 126.562 126.141 126.579 126.211 126.579C126.29 126.579 126.359 126.562 126.42 126.527C126.438 126.518 126.464 126.518 126.481 126.544C126.49 126.562 126.49 126.588 126.464 126.605C126.394 126.649 126.298 126.666 126.211 126.666C126.124 126.666 126.037 126.649 125.958 126.605Z" fill="#D67F54"/>
<path fill-rule="evenodd" clip-rule="evenodd" d="M130.247 125.054C130.247 125.08 130.229 125.097 130.203 125.097C130.177 125.097 130.16 125.08 130.16 125.054C130.16 124.923 130.133 124.836 130.099 124.792C130.072 124.766 130.046 124.749 130.02 124.749C129.985 124.749 129.942 124.757 129.898 124.783C129.785 124.844 129.663 124.984 129.602 125.132C129.567 125.202 129.541 125.28 129.532 125.333C129.602 125.289 129.671 125.272 129.732 125.272C129.767 125.272 129.802 125.289 129.828 125.306C129.855 125.324 129.872 125.35 129.889 125.385C129.907 125.446 129.889 125.524 129.828 125.62C129.811 125.638 129.785 125.646 129.767 125.629C129.75 125.612 129.741 125.585 129.759 125.568C129.802 125.498 129.82 125.446 129.811 125.402C129.802 125.385 129.794 125.376 129.785 125.367C129.767 125.359 129.75 125.35 129.732 125.35C129.68 125.341 129.61 125.367 129.549 125.428C129.532 125.446 129.523 125.455 129.506 125.455C129.471 125.463 129.454 125.446 129.445 125.411C129.445 125.402 129.445 125.385 129.445 125.359C129.454 125.298 129.488 125.184 129.541 125.088C129.61 124.923 129.741 124.775 129.872 124.696C129.924 124.661 129.985 124.644 130.038 124.653C130.09 124.653 130.142 124.679 130.186 124.722C130.212 124.801 130.247 124.905 130.247 125.054Z" fill="#D67F54"/>
<path fill-rule="evenodd" clip-rule="evenodd" d="M122.14 125.054C122.14 125.08 122.122 125.097 122.096 125.097C122.07 125.097 122.053 125.08 122.053 125.054C122.053 124.897 122.079 124.801 122.131 124.74C122.175 124.687 122.218 124.67 122.279 124.67C122.332 124.67 122.384 124.687 122.445 124.714C122.576 124.783 122.707 124.94 122.776 125.106C122.82 125.211 122.855 125.315 122.872 125.376C122.872 125.394 122.872 125.411 122.872 125.428C122.863 125.463 122.846 125.481 122.811 125.472C122.794 125.472 122.785 125.463 122.768 125.446C122.707 125.385 122.637 125.359 122.584 125.367C122.567 125.367 122.55 125.376 122.532 125.385C122.523 125.394 122.515 125.402 122.506 125.42C122.497 125.455 122.506 125.507 122.558 125.585C122.576 125.603 122.567 125.629 122.55 125.646C122.532 125.664 122.506 125.655 122.489 125.638C122.428 125.542 122.41 125.463 122.428 125.402C122.436 125.367 122.462 125.341 122.489 125.324C122.515 125.306 122.55 125.298 122.584 125.289C122.646 125.28 122.724 125.298 122.785 125.35C122.768 125.298 122.741 125.219 122.715 125.149C122.654 125.001 122.532 124.862 122.419 124.801C122.375 124.775 122.34 124.766 122.297 124.766C122.262 124.766 122.236 124.783 122.218 124.81C122.166 124.844 122.14 124.923 122.14 125.054Z" fill="#D67F54"/>
<path fill-rule="evenodd" clip-rule="evenodd" d="M122.776 125.062C122.498 124.522 122.236 123.476 122.201 122.517C122.166 121.663 122.323 120.896 122.559 120.407C123.23 119.021 124.747 118.211 126.089 118.245C126.106 118.245 126.133 118.245 126.15 118.245C126.167 118.245 126.194 118.245 126.211 118.245C127.554 118.211 129.07 119.013 129.742 120.407C129.968 120.887 130.134 121.663 130.099 122.517C130.064 123.485 129.803 124.531 129.524 125.062C129.619 123.833 129.341 123.301 129.062 123.023C128.443 122.316 128.556 121.82 128.591 121.628C128.617 121.462 129.367 120.861 129.297 120.643C129.07 119.928 126.865 120.739 126.281 120.739C126.263 120.739 126.237 120.739 126.22 120.739C126.202 120.739 126.176 120.739 126.159 120.739C126.141 120.739 126.115 120.739 126.098 120.739C126.08 120.739 126.054 120.739 126.037 120.739C125.444 120.739 123.238 119.928 123.021 120.643C122.951 120.861 123.7 121.453 123.727 121.628C123.753 121.82 123.875 122.325 123.256 123.023C122.96 123.301 122.689 123.833 122.776 125.062Z" fill="#3F2716"/>
<path fill-rule="evenodd" clip-rule="evenodd" d="M124.511 128.758C124.18 128.506 122.672 132.638 123.003 132.35C123.264 132.115 124.049 131.016 124.746 132.446C124.615 131.112 124.598 129.386 124.511 128.758Z" fill="#424B72"/>
<path fill-rule="evenodd" clip-rule="evenodd" d="M127.789 128.758C128.12 128.506 129.628 132.638 129.297 132.35C129.035 132.115 128.251 131.016 127.553 132.446C127.684 131.112 127.701 129.386 127.789 128.758Z" fill="#424B72"/>
<path fill-rule="evenodd" clip-rule="evenodd" d="M122.933 120.695C123.361 121.262 124.119 121.471 125.348 121.628C126.507 121.776 127.893 121.619 128.809 121.166C130.221 120.46 130.09 118.498 129.942 118.568C128.207 119.396 127.615 118.045 126.368 117.661C125.426 117.374 124.162 117.365 123.151 118.533C122.593 119.178 122.445 120.041 122.933 120.695Z" fill="#52311D"/>
<path fill-rule="evenodd" clip-rule="evenodd" d="M121.634 133.135C121.634 133.1 121.66 133.073 121.695 133.073C121.73 133.073 121.756 133.1 121.756 133.135L121.739 134.922C121.739 134.956 121.713 134.983 121.678 134.983C121.643 134.983 121.617 134.956 121.617 134.922L121.634 133.135Z" fill="#1E1F42"/>
<path fill-rule="evenodd" clip-rule="evenodd" d="M130.543 133.135C130.543 133.1 130.569 133.073 130.604 133.073C130.639 133.073 130.665 133.1 130.665 133.135L130.648 134.922C130.648 134.956 130.622 134.983 130.587 134.983C130.552 134.983 130.526 134.956 130.526 134.922L130.543 133.135Z" fill="#1E1F42"/>
<g clip-path="url(#clip1_312_284495)">
<path fill-rule="evenodd" clip-rule="evenodd" d="M72.5 79C72.5 82.0376 74.9624 84.5 78 84.5C81.0376 84.5 83.5 82.0376 83.5 79C83.5 75.9624 81.0376 73.5 78 73.5C74.9624 73.5 72.5 75.9624 72.5 79ZM78 75.5C78.2761 75.5 78.5 75.7239 78.5 76V79C78.5 79.2761 78.2761 79.5 78 79.5H75.5C75.2239 79.5 75 79.2761 75 79C75 78.7239 75.2239 78.5 75.5 78.5H77.5V76C77.5 75.7239 77.7239 75.5 78 75.5Z" fill="#1A99F4"/>
</g>
<rect x="92" y="77" width="36" height="4" rx="2" fill="#C3C7CC"/>
<rect x="132" y="77" width="36" height="4" rx="2" fill="#DADDE1"/>
<path fill-rule="evenodd" clip-rule="evenodd" d="M73.3413 99.1766C73.5245 100.098 73.9769 100.944 74.6412 101.609L76.8808 104.03C77.0277 104.177 77.2021 104.294 77.3941 104.374C77.5862 104.453 77.7921 104.494 78 104.494C78.2079 104.494 78.4138 104.453 78.6059 104.374C78.7979 104.294 78.9724 104.177 79.1194 104.03L81.3588 101.609C82.0231 100.944 82.4755 100.098 82.6587 99.1766C82.842 98.2552 82.7479 97.3001 82.3884 96.4322C82.0289 95.5643 81.4201 94.8224 80.6389 94.3005C79.8578 93.7786 78.9395 93.5 78 93.5C77.0605 93.5 76.1422 93.7786 75.3611 94.3005C74.5799 94.8224 73.9711 95.5643 73.6116 96.4322C73.2521 97.3001 73.158 98.2552 73.3413 99.1766ZM77 98C77 98.5523 77.4477 99 78 99C78.5523 99 79 98.5523 79 98C79 97.4477 78.5523 97 78 97C77.4477 97 77 97.4477 77 98ZM76 98C76 99.1046 76.8954 100 78 100C79.1046 100 80 99.1046 80 98C80 96.8954 79.1046 96 78 96C76.8954 96 76 96.8954 76 98Z" fill="#FFA940"/>
<rect x="92" y="97" width="113" height="4" rx="2" fill="#ECEEF1"/>
<rect x="68" y="147" width="182" height="4" rx="2" fill="#ECEEF1"/>
<rect x="68" y="157" width="182" height="4" rx="2" fill="#ECEEF1"/>
<rect x="68" y="167" width="65" height="4" rx="2" fill="#ECEEF1"/>
<rect x="224" y="132" width="98" height="32" rx="4" fill="#EDF8BF"/>
<path d="M247.583 143H250.833C250.874 143 250.915 142.988 250.949 142.965C250.983 142.942 251.01 142.91 251.026 142.872C251.042 142.833 251.046 142.791 251.038 142.751C251.03 142.711 251.01 142.673 250.981 142.644L246.689 138.356C246.66 138.327 246.623 138.307 246.583 138.299C246.543 138.291 246.501 138.295 246.463 138.31C246.425 138.325 246.393 138.352 246.369 138.385C246.346 138.419 246.334 138.459 246.333 138.5V141.75C246.333 142.082 246.465 142.4 246.699 142.634C246.934 142.868 247.251 143 247.583 143Z" fill="#58AA2C"/>
<path d="M251.272 143.894C251.311 143.933 251.333 143.986 251.333 144.042V156.333C251.333 156.775 251.158 157.199 250.845 157.512C250.532 157.824 250.109 158 249.667 158H236.333C235.891 158 235.467 157.824 235.155 157.512C234.842 157.199 234.667 156.775 234.667 156.333V139.667C234.667 139.225 234.842 138.801 235.155 138.488C235.467 138.176 235.891 138 236.333 138H245.292C245.347 138 245.4 138.022 245.439 138.061C245.478 138.1 245.5 138.153 245.5 138.208V141.75C245.5 142.303 245.719 142.832 246.11 143.223C246.501 143.614 247.031 143.833 247.583 143.833H251.125C251.18 143.833 251.233 143.855 251.272 143.894Z" fill="#58AA2C"/>
<path d="M239.816 153.5H241.34L242.43 151.672H242.465L243.562 153.5H245.172L243.395 150.68V150.66L245.188 147.863H243.598L242.57 149.773H242.527L241.492 147.863H239.82L241.539 150.645V150.668L239.816 153.5Z" fill="white"/>
<rect x="264" y="141.5" width="49" height="4" rx="2" fill="#BDC0B2"/>
<rect x="264" y="150.5" width="26" height="4" rx="2" fill="#BDC0B2"/>
<rect x="224.5" y="132.5" width="97" height="31" rx="3.5" stroke="#56CA76" stroke-opacity="0.16"/>
<rect x="223" y="86" width="98" height="32" rx="4" fill="#F7EDFF"/>
<path d="M246.583 97.0001H249.833C249.874 97.0001 249.915 96.988 249.949 96.9651C249.983 96.9422 250.01 96.9096 250.026 96.8715C250.042 96.8334 250.046 96.7915 250.038 96.751C250.03 96.7105 250.01 96.6734 249.981 96.6442L245.689 92.3559C245.66 92.3269 245.623 92.307 245.583 92.2989C245.543 92.2907 245.501 92.2945 245.463 92.3099C245.425 92.3253 245.393 92.3516 245.369 92.3854C245.346 92.4192 245.334 92.4591 245.333 92.5001V95.7501C245.333 96.0816 245.465 96.3995 245.699 96.634C245.934 96.8684 246.251 97.0001 246.583 97.0001Z" fill="#DA3C0F"/>
<path d="M250.272 97.8944C250.311 97.9334 250.333 97.9864 250.333 98.0417V110.333C250.333 110.775 250.158 111.199 249.845 111.512C249.532 111.824 249.109 112 248.667 112H235.333C234.891 112 234.467 111.824 234.155 111.512C233.842 111.199 233.667 110.775 233.667 110.333V93.6667C233.667 93.2246 233.842 92.8007 234.155 92.4882C234.467 92.1756 234.891 92 235.333 92H244.292C244.347 92 244.4 92.0219 244.439 92.061C244.478 92.1001 244.5 92.1531 244.5 92.2083V95.75C244.5 96.3025 244.719 96.8324 245.11 97.2231C245.501 97.6138 246.031 97.8333 246.583 97.8333H250.125C250.18 97.8333 250.233 97.8553 250.272 97.8944Z" fill="#DA3C0F"/>
<path d="M236.345 107H237.42V105.761H238.146C239.09 105.761 239.699 105.181 239.699 104.275V104.27C239.699 103.364 239.09 102.772 238.146 102.772H236.345V107ZM237.889 103.596C238.343 103.596 238.612 103.83 238.612 104.27V104.275C238.612 104.715 238.343 104.952 237.889 104.952H237.42V103.596H237.889Z" fill="white"/>
<path d="M240.177 107H241.894C243.168 107 243.921 106.212 243.921 104.861V104.855C243.921 103.511 243.168 102.772 241.894 102.772H240.177V107ZM241.252 106.133V103.64H241.753C242.43 103.64 242.828 104.067 242.828 104.858V104.864C242.828 105.708 242.453 106.133 241.753 106.133H241.252Z" fill="white"/>
<path d="M244.442 107H245.518V105.424H247.155V104.601H245.518V103.637H247.319V102.772H244.442V107Z" fill="white"/>
<rect x="263" y="95.5" width="49" height="4" rx="2" fill="#B2A2BF"/>
<rect x="263" y="104.5" width="26" height="4" rx="2" fill="#B2A2BF"/>
<rect x="223.5" y="86.5" width="97" height="31" rx="3.5" stroke="#091F34" stroke-opacity="0.04"/>
</g>
</svg>
