<svg width="343" height="180" viewBox="0 0 343 180" fill="none" xmlns="http://www.w3.org/2000/svg">
<defs>
<clipPath id="clip0_312_284317">
<rect width="343" height="180" rx="12" fill="white"/>
</clipPath>
</defs>
<g clip-path="url(#clip0_312_284317)">
<rect width="343" height="180" rx="12" fill="#FFEECF"/>
<rect x="34" y="21" width="280" height="220" rx="8" fill="white"/>
<path d="M61.4072 49V42.8271H61.5303L66.083 49H67.792V39.1357H65.8164V45.2812H65.6934L61.1543 39.1357H59.4316V49H61.4072ZM73.2539 42.8203C74.1836 42.8203 74.7852 43.4424 74.8262 44.4404H71.6133C71.6816 43.4629 72.3311 42.8203 73.2539 42.8203ZM74.8672 46.8535C74.6553 47.3525 74.1152 47.6328 73.3291 47.6328C72.29 47.6328 71.6338 46.9355 71.6064 45.8145V45.7119H76.7812V45.1035C76.7812 42.7109 75.4688 41.2959 73.2471 41.2959C71.0049 41.2959 69.624 42.8135 69.624 45.2676C69.624 47.7148 70.9775 49.1641 73.2744 49.1641C75.1201 49.1641 76.4189 48.2754 76.7197 46.8535H74.8672ZM88.7236 41.46H86.748L85.627 46.8672H85.5039L84.1777 41.46H82.2773L80.958 46.8672H80.835L79.7139 41.46H77.6973L79.707 49H81.7988L83.1318 43.7979H83.2549L84.6016 49H86.7207L88.7236 41.46ZM94.3359 49H96.3252V43.1006H97.8838V41.5352H96.2842V40.9131C96.2842 40.2705 96.5713 39.9629 97.3506 39.9629C97.6104 39.9629 97.8154 39.9834 97.9453 39.9971V38.5889C97.6582 38.541 97.3232 38.5137 96.9199 38.5137C95.1016 38.5137 94.3359 39.2725 94.3359 40.7695V41.5352H93.1191V43.1006H94.3359V49ZM102.471 42.8203C103.4 42.8203 104.002 43.4424 104.043 44.4404H100.83C100.898 43.4629 101.548 42.8203 102.471 42.8203ZM104.084 46.8535C103.872 47.3525 103.332 47.6328 102.546 47.6328C101.507 47.6328 100.851 46.9355 100.823 45.8145V45.7119H105.998V45.1035C105.998 42.7109 104.686 41.2959 102.464 41.2959C100.222 41.2959 98.8408 42.8135 98.8408 45.2676C98.8408 47.7148 100.194 49.1641 102.491 49.1641C104.337 49.1641 105.636 48.2754 105.937 46.8535H104.084ZM110.353 47.6191C109.662 47.6191 109.177 47.2773 109.177 46.7168C109.177 46.1768 109.594 45.8691 110.448 45.8076L111.973 45.7119V46.2656C111.973 47.0312 111.275 47.6191 110.353 47.6191ZM109.696 49.1162C110.674 49.1162 111.494 48.7061 111.884 48.0156H112.007V49H113.935V43.8525C113.935 42.2393 112.807 41.2959 110.811 41.2959C108.917 41.2959 107.639 42.1709 107.509 43.5654H109.341C109.505 43.1143 109.983 42.8682 110.701 42.8682C111.521 42.8682 111.973 43.2236 111.973 43.8525V44.4678L110.147 44.5771C108.274 44.6865 107.229 45.4795 107.229 46.8467C107.229 48.2275 108.247 49.1162 109.696 49.1162ZM116.457 39.6689V41.5352H115.281V43.1006H116.457V46.9629C116.457 48.4326 117.182 49.0273 119.014 49.0273C119.396 49.0273 119.766 48.9863 120.012 48.9385V47.4209C119.82 47.4414 119.684 47.4482 119.424 47.4482C118.747 47.4482 118.446 47.1475 118.446 46.4912V43.1006H120.012V41.5352H118.446V39.6689H116.457ZM128.495 41.46H126.506V45.8076C126.506 46.8125 125.973 47.4346 124.981 47.4346C124.065 47.4346 123.594 46.9014 123.594 45.8623V41.46H121.604V46.375C121.604 48.125 122.616 49.1641 124.243 49.1641C125.385 49.1641 126.089 48.665 126.444 47.79H126.567V49H128.495V41.46ZM130.491 49H132.48V44.8232C132.48 43.7637 133.226 43.1211 134.312 43.1211C134.634 43.1211 135.099 43.1826 135.256 43.2441V41.4326C135.085 41.3711 134.75 41.3369 134.477 41.3369C133.52 41.3369 132.74 41.9111 132.542 42.6631H132.419V41.46H130.491V49ZM139.672 42.8203C140.602 42.8203 141.203 43.4424 141.244 44.4404H138.031C138.1 43.4629 138.749 42.8203 139.672 42.8203ZM141.285 46.8535C141.073 47.3525 140.533 47.6328 139.747 47.6328C138.708 47.6328 138.052 46.9355 138.024 45.8145V45.7119H143.199V45.1035C143.199 42.7109 141.887 41.2959 139.665 41.2959C137.423 41.2959 136.042 42.8135 136.042 45.2676C136.042 47.7148 137.396 49.1641 139.692 49.1641C141.538 49.1641 142.837 48.2754 143.138 46.8535H141.285ZM144.662 43.6748C144.662 44.8369 145.373 45.5342 146.836 45.8555L148.203 46.1631C148.866 46.3066 149.153 46.5322 149.153 46.9014C149.153 47.3867 148.62 47.708 147.848 47.708C147.055 47.708 146.569 47.4141 146.419 46.9014H144.478C144.614 48.3506 145.817 49.1641 147.807 49.1641C149.782 49.1641 151.129 48.1797 151.129 46.6758C151.129 45.5479 150.473 44.9326 149.01 44.6113L147.595 44.3037C146.897 44.1465 146.576 43.9209 146.576 43.5518C146.576 43.0732 147.103 42.752 147.813 42.752C148.552 42.752 149.01 43.0527 149.112 43.5381H150.951C150.842 42.0957 149.714 41.2959 147.8 41.2959C145.92 41.2959 144.662 42.2461 144.662 43.6748Z" fill="black"/>
<rect x="254" y="34" width="36" height="20" rx="4" fill="#28526E"/>
<path d="M267.63 48H268.982L266.478 40.9541H265.062L262.562 48H263.836L264.441 46.1982H267.034L267.63 48ZM265.701 42.2969H265.784L266.741 45.2021H264.734L265.701 42.2969ZM271.707 48.0879C272.449 48.0879 273.064 47.7412 273.367 47.1553H273.45V48H274.622V40.5928H273.411V43.5078H273.328C273.045 42.9219 272.439 42.5703 271.707 42.5703C270.359 42.5703 269.51 43.6348 269.51 45.3242C269.51 47.0234 270.354 48.0879 271.707 48.0879ZM272.083 43.6006C272.913 43.6006 273.426 44.2646 273.426 45.3291C273.426 46.4033 272.918 47.0576 272.083 47.0576C271.253 47.0576 270.75 46.4082 270.75 45.3291C270.75 44.2549 271.258 43.6006 272.083 43.6006ZM278.084 48.0879C278.826 48.0879 279.441 47.7412 279.744 47.1553H279.827V48H280.999V40.5928H279.788V43.5078H279.705C279.422 42.9219 278.816 42.5703 278.084 42.5703C276.736 42.5703 275.887 43.6348 275.887 45.3242C275.887 47.0234 276.731 48.0879 278.084 48.0879ZM278.46 43.6006C279.29 43.6006 279.803 44.2646 279.803 45.3291C279.803 46.4033 279.295 47.0576 278.46 47.0576C277.63 47.0576 277.127 46.4082 277.127 45.3291C277.127 44.2549 277.635 43.6006 278.46 43.6006Z" fill="white"/>
<rect x="66" y="74" width="4" height="12" fill="#18BAFF"/>
<path d="M85.9883 84V78.043H88.1611V76.9541H82.5605V78.043H84.7285V84H85.9883ZM90.71 84.1074C92.3066 84.1074 93.2783 83.0625 93.2783 81.3291C93.2783 79.6006 92.3018 78.5508 90.71 78.5508C89.123 78.5508 88.1416 79.6055 88.1416 81.3291C88.1416 83.0625 89.1084 84.1074 90.71 84.1074ZM90.71 83.0918C89.8652 83.0918 89.3818 82.4473 89.3818 81.3291C89.3818 80.2158 89.8652 79.5664 90.71 79.5664C91.5498 79.5664 92.0332 80.2158 92.0332 81.3291C92.0332 82.4473 91.5547 83.0918 90.71 83.0918ZM99.0986 84.0879C99.8408 84.0879 100.456 83.7412 100.759 83.1553H100.842V84H102.014V76.5928H100.803V79.5078H100.72C100.437 78.9219 99.8311 78.5703 99.0986 78.5703C97.751 78.5703 96.9014 79.6348 96.9014 81.3242C96.9014 83.0234 97.7461 84.0879 99.0986 84.0879ZM99.4746 79.6006C100.305 79.6006 100.817 80.2646 100.817 81.3291C100.817 82.4033 100.31 83.0576 99.4746 83.0576C98.6445 83.0576 98.1416 82.4082 98.1416 81.3291C98.1416 80.2549 98.6494 79.6006 99.4746 79.6006ZM105.847 84.1074C107.443 84.1074 108.415 83.0625 108.415 81.3291C108.415 79.6006 107.438 78.5508 105.847 78.5508C104.26 78.5508 103.278 79.6055 103.278 81.3291C103.278 83.0625 104.245 84.1074 105.847 84.1074ZM105.847 83.0918C105.002 83.0918 104.519 82.4473 104.519 81.3291C104.519 80.2158 105.002 79.5664 105.847 79.5664C106.687 79.5664 107.17 80.2158 107.17 81.3291C107.17 82.4473 106.691 83.0918 105.847 83.0918Z" fill="#18BAFF"/>
<rect x="66" y="94" width="216" height="1" fill="#ECEEF1"/>
<rect x="66" y="103" width="125" height="6" rx="3" fill="#ECEEF1"/>
<rect x="66" y="117" width="178" height="6" rx="3" fill="#ECEEF1"/>
<rect x="58.5" y="66.5" width="231" height="64" rx="3.5" stroke="#ECEEF1"/>
<rect x="66" y="151" width="4" height="12" fill="#FA8C16"/>
<path d="M84.4336 161V153.954H83.1738V161H84.4336ZM86.0449 161H87.2559V157.89C87.2559 157.104 87.71 156.605 88.4326 156.605C89.1699 156.605 89.5117 157.016 89.5117 157.831V161H90.7227V157.543C90.7227 156.269 90.0732 155.551 88.8818 155.551C88.0859 155.551 87.5488 155.917 87.2949 156.513H87.2119V155.658H86.0449V161ZM97.7344 155.57C97.002 155.57 96.3818 155.937 96.0742 156.542H95.9912V155.658H94.8242V162.777H96.0352V160.189H96.1182C96.3916 160.756 96.9824 161.088 97.749 161.088C99.0967 161.088 99.9365 160.033 99.9365 158.329C99.9365 156.615 99.0869 155.57 97.7344 155.57ZM97.3535 160.058C96.5283 160.058 96.0156 159.398 96.0107 158.329C96.0156 157.265 96.5332 156.601 97.3584 156.601C98.1885 156.601 98.6914 157.25 98.6914 158.329C98.6914 159.408 98.1934 160.058 97.3535 160.058ZM101.152 161H102.363V157.914C102.363 157.167 102.91 156.679 103.696 156.679C103.901 156.679 104.224 156.713 104.316 156.747V155.624C104.204 155.59 103.989 155.57 103.813 155.57C103.125 155.57 102.549 155.961 102.402 156.488H102.319V155.658H101.152V161ZM107.48 161.107C109.077 161.107 110.049 160.062 110.049 158.329C110.049 156.601 109.072 155.551 107.48 155.551C105.894 155.551 104.912 156.605 104.912 158.329C104.912 160.062 105.879 161.107 107.48 161.107ZM107.48 160.092C106.636 160.092 106.152 159.447 106.152 158.329C106.152 157.216 106.636 156.566 107.48 156.566C108.32 156.566 108.804 157.216 108.804 158.329C108.804 159.447 108.325 160.092 107.48 160.092ZM113.564 159.936C112.72 159.936 112.241 159.291 112.241 158.271C112.241 157.25 112.72 156.601 113.564 156.601C114.404 156.601 114.917 157.25 114.917 158.271C114.917 159.291 114.409 159.936 113.564 159.936ZM113.564 163.031C115.122 163.031 116.108 162.255 116.108 161.02V155.658H114.941V156.513H114.858C114.565 155.932 113.931 155.57 113.203 155.57C111.841 155.57 110.996 156.635 110.996 158.271C110.996 159.877 111.836 160.922 113.184 160.922C113.926 160.922 114.507 160.609 114.814 160.038H114.897V161.049C114.897 161.718 114.414 162.108 113.584 162.108C112.92 162.108 112.49 161.874 112.412 161.508H111.196C111.294 162.426 112.192 163.031 113.564 163.031ZM117.598 161H118.809V157.914C118.809 157.167 119.355 156.679 120.142 156.679C120.347 156.679 120.669 156.713 120.762 156.747V155.624C120.649 155.59 120.435 155.57 120.259 155.57C119.57 155.57 118.994 155.961 118.848 156.488H118.765V155.658H117.598V161ZM123.862 156.513C124.59 156.513 125.068 157.021 125.093 157.812H122.578C122.632 157.03 123.14 156.513 123.862 156.513ZM125.103 159.53C124.927 159.926 124.512 160.146 123.911 160.146C123.115 160.146 122.603 159.589 122.573 158.7V158.637H126.304V158.246C126.304 156.562 125.391 155.551 123.867 155.551C122.319 155.551 121.357 156.63 121.357 158.349C121.357 160.067 122.305 161.107 123.877 161.107C125.137 161.107 126.021 160.502 126.25 159.53H125.103ZM127.397 157.187C127.397 157.992 127.881 158.466 128.906 158.7L129.854 158.92C130.361 159.032 130.591 159.223 130.591 159.525C130.591 159.921 130.166 160.189 129.556 160.189C128.95 160.189 128.574 159.955 128.457 159.56H127.261C127.354 160.531 128.193 161.107 129.526 161.107C130.859 161.107 131.802 160.424 131.802 159.398C131.802 158.612 131.328 158.173 130.308 157.943L129.365 157.729C128.828 157.606 128.574 157.421 128.574 157.118C128.574 156.732 128.989 156.469 129.541 156.469C130.107 156.469 130.464 156.708 130.552 157.084H131.689C131.602 156.112 130.806 155.551 129.536 155.551C128.276 155.551 127.397 156.22 127.397 157.187ZM132.808 157.187C132.808 157.992 133.291 158.466 134.316 158.7L135.264 158.92C135.771 159.032 136.001 159.223 136.001 159.525C136.001 159.921 135.576 160.189 134.966 160.189C134.36 160.189 133.984 159.955 133.867 159.56H132.671C132.764 160.531 133.604 161.107 134.937 161.107C136.27 161.107 137.212 160.424 137.212 159.398C137.212 158.612 136.738 158.173 135.718 157.943L134.775 157.729C134.238 157.606 133.984 157.421 133.984 157.118C133.984 156.732 134.399 156.469 134.951 156.469C135.518 156.469 135.874 156.708 135.962 157.084H137.1C137.012 156.112 136.216 155.551 134.946 155.551C133.687 155.551 132.808 156.22 132.808 157.187Z" fill="#FA8C16"/>
<rect x="66" y="171" width="216" height="1" fill="#ECEEF1"/>
<rect x="58.5" y="143.5" width="231" height="68" rx="3.5" stroke="#ECEEF1"/>
</g>
</svg>
