<svg width="343" height="180" viewBox="0 0 343 180" fill="none" xmlns="http://www.w3.org/2000/svg">
<defs>
<clipPath id="clip0_312_284295">
<rect width="343" height="180" rx="12" fill="white"/>
</clipPath>
</defs>
<g clip-path="url(#clip0_312_284295)">
<rect width="343" height="180" rx="12" fill="#FFE5F0"/>
<rect x="52" y="24" width="240" height="246" rx="8" fill="white"/>
<rect x="216" y="119" width="16" height="10" fill="white"/>
<path d="M78.6494 48.2021H74.2607V40.1357H72.1963V50H78.6494V48.2021ZM80.3379 50H82.3271V42.46H80.3379V50ZM81.3359 41.4072C82.0469 41.4072 82.5117 40.9902 82.5117 40.4023C82.5117 39.8076 82.0469 39.3975 81.3359 39.3975C80.6182 39.3975 80.1602 39.8076 80.1602 40.4023C80.1602 40.9902 80.6182 41.4072 81.3359 41.4072ZM84.1729 44.6748C84.1729 45.8369 84.8838 46.5342 86.3467 46.8555L87.7139 47.1631C88.377 47.3066 88.6641 47.5322 88.6641 47.9014C88.6641 48.3867 88.1309 48.708 87.3584 48.708C86.5654 48.708 86.0801 48.4141 85.9297 47.9014H83.9883C84.125 49.3506 85.3281 50.1641 87.3174 50.1641C89.293 50.1641 90.6396 49.1797 90.6396 47.6758C90.6396 46.5479 89.9834 45.9326 88.5205 45.6113L87.1055 45.3037C86.4082 45.1465 86.0869 44.9209 86.0869 44.5518C86.0869 44.0732 86.6133 43.752 87.3242 43.752C88.0625 43.752 88.5205 44.0527 88.623 44.5381H90.4619C90.3525 43.0957 89.2246 42.2959 87.3105 42.2959C85.4307 42.2959 84.1729 43.2461 84.1729 44.6748ZM92.7998 40.6689V42.5352H91.624V44.1006H92.7998V47.9629C92.7998 49.4326 93.5244 50.0273 95.3564 50.0273C95.7393 50.0273 96.1084 49.9863 96.3545 49.9385V48.4209C96.1631 48.4414 96.0264 48.4482 95.7666 48.4482C95.0898 48.4482 94.7891 48.1475 94.7891 47.4912V44.1006H96.3545V42.5352H94.7891V40.6689H92.7998Z" fill="black"/>
<rect x="71" y="69" width="200" height="24" rx="4" fill="#6FBE49" fill-opacity="0.16"/>
<path fill-rule="evenodd" clip-rule="evenodd" d="M77.5 76.5C76.3954 76.5 75.5 77.3954 75.5 78.5V79.5H86.5C86.5 78.3954 85.6046 77.5 84.5 77.5H81L80.4393 76.9393C80.158 76.658 79.7765 76.5 79.3787 76.5H77.5ZM86.5 80H75.5V83.5C75.5 84.6046 76.3954 85.5 77.5 85.5H84.5C85.6046 85.5 86.5 84.6046 86.5 83.5V80Z" fill="#3AB67B"/>
<path d="M97.2935 85V79.7256H97.3848L101.188 85H102.385V77.2495H101.053V82.5186H100.962L97.1592 77.2495H95.9561V85H97.2935ZM106.628 80.064C107.429 80.064 107.955 80.6226 107.982 81.4927H105.216C105.275 80.6333 105.833 80.064 106.628 80.064ZM107.993 83.3833C107.799 83.8184 107.343 84.0601 106.682 84.0601C105.807 84.0601 105.243 83.4478 105.21 82.4702V82.4004H109.314V81.9707C109.314 80.1177 108.31 79.0059 106.634 79.0059C104.931 79.0059 103.873 80.1929 103.873 82.0835C103.873 83.9741 104.915 85.1182 106.645 85.1182C108.03 85.1182 109.002 84.4521 109.255 83.3833H107.993ZM118.445 79.124H117.118L116.146 83.5122H116.055L114.916 79.124H113.643L112.515 83.5122H112.424L111.446 79.124H110.104L111.693 85H113.079L114.218 80.7676H114.309L115.453 85H116.855L118.445 79.124ZM122.973 85H124.299V80.2251H125.562V79.1616H124.283V78.6299C124.283 78.0767 124.53 77.8027 125.159 77.8027C125.347 77.8027 125.508 77.8135 125.615 77.8296V76.8521C125.4 76.8145 125.159 76.793 124.874 76.793C123.569 76.793 122.973 77.3784 122.973 78.5439V79.1616H122.011V80.2251H122.973V85ZM129.101 80.064C129.901 80.064 130.428 80.6226 130.455 81.4927H127.688C127.748 80.6333 128.306 80.064 129.101 80.064ZM130.465 83.3833C130.272 83.8184 129.815 84.0601 129.155 84.0601C128.279 84.0601 127.715 83.4478 127.683 82.4702V82.4004H131.787V81.9707C131.787 80.1177 130.782 79.0059 129.106 79.0059C127.404 79.0059 126.346 80.1929 126.346 82.0835C126.346 83.9741 127.388 85.1182 129.117 85.1182C130.503 85.1182 131.475 84.4521 131.728 83.3833H130.465ZM135.133 84.0493C134.542 84.0493 134.118 83.7539 134.118 83.2598C134.118 82.7817 134.467 82.5132 135.213 82.4648L136.54 82.3789V82.8462C136.54 83.5283 135.938 84.0493 135.133 84.0493ZM134.741 85.0967C135.509 85.0967 136.153 84.7637 136.481 84.1943H136.572V85H137.856V80.9878C137.856 79.7417 137.007 79.0059 135.498 79.0059C134.102 79.0059 133.129 79.6665 133.022 80.7031H134.279C134.402 80.3057 134.821 80.0908 135.434 80.0908C136.153 80.0908 136.54 80.4131 136.54 80.9878V81.4819L135.025 81.5732C133.597 81.6592 132.796 82.2715 132.796 83.335C132.796 84.4092 133.607 85.0967 134.741 85.0967ZM139.886 77.6846V79.1616H138.957V80.2251H139.886V83.4316C139.886 84.5703 140.423 85.0269 141.771 85.0269C142.029 85.0269 142.276 85 142.47 84.9624V83.9204C142.309 83.9365 142.207 83.9473 142.019 83.9473C141.46 83.9473 141.213 83.6895 141.213 83.1094V80.2251H142.47V79.1616H141.213V77.6846H139.886ZM148.915 79.124H147.583V82.5454C147.583 83.4155 147.11 83.9473 146.246 83.9473C145.451 83.9473 145.08 83.5068 145.08 82.6099V79.124H143.748V82.9429C143.748 84.3179 144.5 85.1182 145.784 85.1182C146.681 85.1182 147.255 84.7368 147.54 84.0654H147.631V85H148.915V79.124ZM150.548 85H151.88V81.6055C151.88 80.7837 152.481 80.2466 153.346 80.2466C153.572 80.2466 153.926 80.2842 154.028 80.3218V79.0864C153.905 79.0488 153.668 79.0273 153.475 79.0273C152.718 79.0273 152.084 79.457 151.923 80.0371H151.832V79.124H150.548V85ZM157.439 80.064C158.239 80.064 158.766 80.6226 158.792 81.4927H156.026C156.085 80.6333 156.644 80.064 157.439 80.064ZM158.803 83.3833C158.61 83.8184 158.153 84.0601 157.493 84.0601C156.617 84.0601 156.053 83.4478 156.021 82.4702V82.4004H160.125V81.9707C160.125 80.1177 159.12 79.0059 157.444 79.0059C155.742 79.0059 154.684 80.1929 154.684 82.0835C154.684 83.9741 155.726 85.1182 157.455 85.1182C158.841 85.1182 159.813 84.4521 160.065 83.3833H158.803ZM161.328 80.8052C161.328 81.6914 161.859 82.2124 162.987 82.4702L164.029 82.7119C164.588 82.8354 164.84 83.0449 164.84 83.3779C164.84 83.813 164.373 84.1084 163.702 84.1084C163.036 84.1084 162.622 83.8506 162.493 83.4155H161.177C161.279 84.4844 162.203 85.1182 163.669 85.1182C165.136 85.1182 166.172 84.3662 166.172 83.2383C166.172 82.3735 165.651 81.8901 164.529 81.6377L163.492 81.4014C162.901 81.2671 162.622 81.063 162.622 80.73C162.622 80.3057 163.079 80.0156 163.686 80.0156C164.309 80.0156 164.701 80.2788 164.797 80.6924H166.049C165.952 79.6235 165.077 79.0059 163.68 79.0059C162.294 79.0059 161.328 79.7417 161.328 80.8052Z" fill="#3AB67B"/>
<path d="M83.5 111C83.5 112.381 82.3807 113.5 81 113.5C79.6193 113.5 78.5 112.381 78.5 111C78.5 109.619 79.6193 108.5 81 108.5C82.3807 108.5 83.5 109.619 83.5 111Z" fill="#73787E"/>
<path d="M100.973 113.802H97.3418V111.632H100.774V110.504H97.3418V108.447H100.973V107.25H95.9561V115H100.973V113.802ZM106.22 115V111.971L108.938 107.25H107.418L105.576 110.563H105.484L103.637 107.25H102.117L104.834 111.971V115H106.22ZM110.275 107.25V115H111.661V112.459H113.342C114.911 112.459 116.006 111.407 116.006 109.871C116.006 108.308 114.948 107.25 113.401 107.25H110.275ZM111.661 108.41H113.036C114.035 108.41 114.599 108.92 114.599 109.871C114.599 110.794 114.019 111.31 113.031 111.31H111.661V108.41ZM125.411 113.786H121.855V107.25H120.47V115H125.411V113.786ZM128.773 114.049C128.183 114.049 127.758 113.754 127.758 113.26C127.758 112.782 128.107 112.513 128.854 112.465L130.181 112.379V112.846C130.181 113.528 129.579 114.049 128.773 114.049ZM128.381 115.097C129.149 115.097 129.794 114.764 130.122 114.194H130.213V115H131.497V110.988C131.497 109.742 130.648 109.006 129.139 109.006C127.742 109.006 126.77 109.667 126.663 110.703H127.919C128.043 110.306 128.462 110.091 129.074 110.091C129.794 110.091 130.181 110.413 130.181 110.988V111.482L128.666 111.573C127.237 111.659 126.437 112.271 126.437 113.335C126.437 114.409 127.248 115.097 128.381 115.097ZM133.103 115H134.435V111.579C134.435 110.714 134.934 110.166 135.729 110.166C136.54 110.166 136.916 110.617 136.916 111.514V115H138.248V111.197C138.248 109.795 137.534 109.006 136.223 109.006C135.348 109.006 134.757 109.409 134.478 110.064H134.386V109.124H133.103V115ZM139.693 110.805C139.693 111.691 140.225 112.212 141.353 112.47L142.395 112.712C142.953 112.835 143.206 113.045 143.206 113.378C143.206 113.813 142.738 114.108 142.067 114.108C141.401 114.108 140.987 113.851 140.858 113.416H139.542C139.645 114.484 140.568 115.118 142.035 115.118C143.501 115.118 144.538 114.366 144.538 113.238C144.538 112.374 144.017 111.89 142.894 111.638L141.857 111.401C141.267 111.267 140.987 111.063 140.987 110.73C140.987 110.306 141.444 110.016 142.051 110.016C142.674 110.016 143.066 110.279 143.163 110.692H144.414C144.317 109.624 143.442 109.006 142.045 109.006C140.66 109.006 139.693 109.742 139.693 110.805Z" fill="#73787E"/>
<path d="M83.5 139C83.5 140.381 82.3807 141.5 81 141.5C79.6193 141.5 78.5 140.381 78.5 139C78.5 137.619 79.6193 136.5 81 136.5C82.3807 136.5 83.5 137.619 83.5 139Z" fill="#73787E"/>
<rect x="95" y="134" width="156" height="10" rx="4" fill="#ECEEF1"/>
<path d="M83.5 165C83.5 166.381 82.3807 167.5 81 167.5C79.6193 167.5 78.5 166.381 78.5 165C78.5 163.619 79.6193 162.5 81 162.5C82.3807 162.5 83.5 163.619 83.5 165Z" fill="#73787E"/>
<rect x="95" y="160" width="111" height="10" rx="4" fill="#ECEEF1"/>
</g>
</svg>
