<svg width="400" height="400" viewBox="0 0 400 400" fill="none" xmlns="http://www.w3.org/2000/svg">
<circle cx="200.683" cy="231.585" r="155.081" fill="#E0FBE5"/>
<mask id="mask0_7160_306078" style="mask-type:alpha" maskUnits="userSpaceOnUse" x="45" y="76" width="311" height="311">
<circle cx="200.683" cy="231.585" r="155.081" fill="black"/>
</mask>
<g mask="url(#mask0_7160_306078)">
<path d="M289.927 351.047H112.118C104.285 351.047 98.1494 343.736 99.3244 335.511C101.544 319.323 109.507 296.999 109.507 296.999L201.023 302.743L292.538 296.999C292.538 296.999 300.502 319.323 302.721 335.511C303.766 343.736 297.76 351.047 289.927 351.047Z" fill="#272B34"/>
<path d="M253.374 200H139.273V307.182H253.374V200Z" fill="#272B34"/>
<path d="M238.749 351.047C238.749 351.047 227.913 363.318 201.02 363.449H200.889C174.126 363.449 163.16 351.047 163.16 351.047H238.749Z" fill="#272B34"/>
<path d="M236.66 352.091H165.118C164.857 352.091 164.727 351.96 164.727 351.699V351.438C164.727 351.177 164.857 351.047 165.118 351.047H236.66C236.921 351.047 237.051 351.177 237.051 351.438V351.699C236.921 351.96 236.79 352.091 236.66 352.091Z" fill="#63636D"/>
</g>
<path d="M182.123 78.0581C182.123 78.0581 161.385 76.309 157.886 91.5508C154.388 106.793 172.254 117.287 154.388 125.782C136.523 134.278 129.277 128.156 122.531 144.772C117.408 157.515 128.652 159.389 114.285 169.009C99.9178 178.629 115.784 209.737 138.897 203.865C151.515 200.617 152.639 179.628 160.51 190.747C168.381 201.866 185.122 219.107 194.492 206.863C203.862 194.62 204.736 170.633 224.351 178.754C243.965 186.999 252.086 184.626 255.958 178.129C259.706 171.633 251.336 153.267 241.966 147.645C232.596 142.148 222.976 135.527 229.098 125.158C234.095 116.662 230.597 111.665 223.601 105.543C216.605 99.4215 223.351 97.1728 217.479 85.3042C211.358 73.6854 192.368 68.938 182.123 78.0581Z" fill="#2C2F37"/>
<path d="M159.634 103.045C159.634 103.045 166.381 117.662 151.639 124.283C140.02 129.53 128.401 129.655 126.152 139.9" stroke="#2C2F37" stroke-width="0.75" stroke-miterlimit="10" stroke-linecap="round" stroke-linejoin="round"/>
<path d="M229.848 120.035C229.848 120.035 225.85 130.28 231.097 135.527C236.344 140.774 249.213 148.77 249.712 159.389" stroke="#2C2F37" stroke-width="0.75" stroke-miterlimit="10" stroke-linecap="round" stroke-linejoin="round"/>
<path d="M109.912 177.504C109.912 177.504 107.289 191.747 115.534 200.617C123.78 209.487 134.399 205.114 134.399 205.114" stroke="#2C2F37" stroke-width="0.75" stroke-miterlimit="10" stroke-linecap="round" stroke-linejoin="round"/>
<path d="M157.139 258.96C157.139 258.96 136.151 274.202 142.772 288.569C152.392 309.183 209.611 323.675 228.976 297.814C239.97 283.197 233.598 279.324 233.598 279.324L221.605 262.583L157.139 258.96Z" fill="#362F7A"/>
<path d="M77.4316 216.483C77.4316 216.483 74.3083 215.484 79.9302 207.863C85.5522 200.242 98.0455 188.748 98.0455 188.748C98.0455 188.748 104.042 208.987 77.4316 216.483Z" fill="#2C2F37"/>
<path d="M100.55 198.493L81.6853 170.259L70.3164 175.506L86.6826 211.112L100.55 198.493Z" fill="#F8BB9A"/>
<path d="M70.1899 161.388C72.3137 161.014 68.9406 157.515 66.8167 155.641C64.0682 153.143 64.6929 150.269 69.4403 152.268C75.562 154.892 77.0612 156.141 80.6842 159.889C81.6837 160.889 82.4333 162.138 82.8081 163.512C83.9325 166.885 83.5577 170.508 81.9335 173.632C81.184 175.006 80.3094 176.63 79.0601 178.254C76.0617 182.627 68.066 180.753 63.4435 181.003C58.821 181.253 54.0736 179.628 50.4506 176.88C46.8275 174.131 41.8302 171.383 43.8291 169.884C45.828 168.26 52.0747 174.881 52.6993 173.882C53.324 172.882 39.0817 165.636 39.4565 163.637C39.8313 161.638 42.4549 162.513 42.4549 162.513C42.4549 162.513 40.2061 160.889 41.5803 159.389C42.9546 157.89 46.9524 159.264 46.9524 159.264L55.8226 162.388C55.8226 162.388 51.2001 157.39 52.5744 154.767C54.0736 152.143 61.3197 151.519 63.0687 151.893C64.8178 152.143 65.0677 153.643 62.8189 155.142C60.4451 156.641 58.1964 156.641 58.6961 158.64C59.3208 160.639 61.5695 162.388 63.9433 162.138C66.5668 161.763 70.1899 161.388 70.1899 161.388Z" fill="#F8BB9A"/>
<path d="M42.8325 161.888C47.455 163.512 52.0775 165.386 56.5751 167.26C57.0748 167.51 56.5751 168.259 55.9504 168.01C51.5778 166.136 46.9553 164.262 42.4577 162.637C41.8331 162.637 42.2079 161.763 42.8325 161.888Z" fill="#B2572A"/>
<path d="M54.5772 171.508C55.4517 167.635 57.2008 164.012 59.8244 160.764C60.1992 160.264 60.9488 160.764 60.574 161.263C58.0753 164.387 56.3263 167.885 55.4517 171.508C55.4517 172.132 54.4523 172.132 54.5772 171.508Z" fill="#B2572A"/>
<path d="M62.0669 166.385C68.0637 165.386 73.3109 167.76 75.6846 172.632C75.9344 173.132 75.0599 173.632 74.8101 173.132C72.6862 168.634 67.8138 166.385 62.1919 167.26C61.5672 167.385 61.4423 166.51 62.0669 166.385Z" fill="#B2572A"/>
<path d="M77.4336 216.483C77.4336 216.483 88.1778 225.354 100.296 245.218C102.545 248.966 105.044 252.214 107.542 255.088C117.037 265.832 128.031 269.705 136.027 263.833C137.276 262.958 138.401 261.834 139.4 260.46C142.648 256.462 146.271 249.216 149.77 241.095C157.265 223.73 164.137 202.491 164.137 202.491L154.392 179.503L140.275 171.008L139.15 174.131L134.028 191.372L122.784 223.48L98.1724 188.748C98.1724 188.873 98.1724 188.998 98.0475 188.998C96.7981 194.87 94.2995 200.367 90.8014 205.115C87.3033 209.862 82.8057 213.735 77.4336 216.483Z" fill="#FFB52F"/>
<path d="M102.917 197.494C101.418 208.488 95.4213 218.358 86.8009 225.354C86.3012 225.729 86.9258 226.353 87.4256 225.979C96.1708 218.857 102.293 208.738 103.792 197.494C103.917 196.994 103.042 196.994 102.917 197.494Z" fill="#B76F1A"/>
<path d="M107.539 255.213C117.034 265.957 128.028 269.83 136.024 263.958C130.901 259.335 119.782 250.965 109.788 254.088C108.913 254.463 108.164 254.838 107.539 255.213Z" fill="#B76F1A"/>
<path d="M123.66 223.48C127.033 229.601 129.657 236.098 131.656 242.844C131.906 243.594 130.781 243.844 130.532 243.094C128.658 236.473 126.034 230.101 122.661 223.979C122.286 223.355 123.285 222.73 123.66 223.48Z" fill="#B76F1A"/>
<path d="M126.773 229.726C128.772 231.351 130.646 233.35 132.645 234.974C133.27 235.473 132.395 236.223 131.77 235.848C129.771 234.224 127.897 232.225 125.898 230.601C125.274 230.101 126.148 229.227 126.773 229.726Z" fill="#B76F1A"/>
<path d="M309.309 205.115C309.309 205.115 312.557 203.74 305.686 196.244C298.814 188.624 284.447 177.63 284.447 177.63C284.447 177.63 280.2 199.743 309.309 205.115Z" fill="#2C2F37"/>
<path d="M279.441 199.243L296.432 167.135L309.175 171.508L295.433 211.236L279.441 199.243Z" fill="#F8BB9A"/>
<path d="M309.309 205.115C309.309 205.115 298.689 215.734 287.945 238.222C285.946 242.469 283.697 246.217 281.199 249.591C272.079 261.959 260.96 267.331 251.715 261.959C250.34 261.209 248.966 260.085 247.717 258.836C243.844 254.963 239.221 247.592 234.599 239.346C224.729 221.606 215.234 199.742 215.234 199.742L223.23 174.256L229.102 155.516L232.725 162.513L244.344 184.875L261.459 217.858L284.322 177.879C284.322 178.004 284.447 178.129 284.447 178.129C286.321 184.251 289.569 189.873 293.817 194.495C298.065 198.993 303.312 202.741 309.309 205.115Z" fill="#FFB52F"/>
<path d="M277.701 190.123C280.824 201.616 290.694 210.736 302.313 212.985C302.812 213.11 303.062 212.236 302.562 212.111C291.194 209.862 281.574 200.992 278.45 189.873C278.326 189.373 277.451 189.623 277.701 190.123Z" fill="#B76F1A"/>
<path d="M281.195 249.466C272.075 261.834 260.956 267.206 251.711 261.834C256.708 256.462 267.702 246.217 278.571 248.591C279.696 248.841 280.57 249.091 281.195 249.466Z" fill="#B76F1A"/>
<path d="M260.841 217.233C257.843 224.104 255.719 231.35 254.345 238.721C254.22 239.471 255.469 239.721 255.594 238.971C256.968 231.725 259.092 224.604 261.966 217.858C262.34 217.108 261.091 216.608 260.841 217.233Z" fill="#B76F1A"/>
<path d="M258.081 224.354C256.083 226.353 254.333 228.602 252.459 230.601C251.835 231.225 252.834 231.975 253.459 231.35C255.458 229.351 257.207 227.103 259.081 225.104C259.706 224.604 258.706 223.73 258.081 224.354Z" fill="#B76F1A"/>
<path d="M308.804 157.765C306.68 157.39 310.053 153.892 312.177 152.018C314.925 149.52 314.301 146.646 309.553 148.645C303.431 151.269 301.932 152.518 298.309 156.266C297.31 157.265 296.56 158.515 296.185 159.889C295.061 163.262 295.436 166.885 297.06 170.009C297.81 171.383 298.684 173.007 299.933 174.631C302.932 179.004 310.927 177.13 315.55 177.38C320.172 177.629 324.92 176.005 328.543 173.257C332.166 170.508 337.163 167.76 335.164 166.261C333.165 164.636 326.919 171.258 326.294 170.258C325.669 169.259 339.912 162.013 339.537 160.014C339.162 158.015 336.539 158.89 336.539 158.89C336.539 158.89 338.787 157.265 337.413 155.766C336.039 154.267 332.041 155.641 332.041 155.641L323.171 158.765C323.171 158.765 327.793 153.767 326.419 151.144C324.92 148.52 317.674 147.896 315.925 148.27C314.176 148.52 313.926 150.019 316.175 151.519C318.548 153.018 320.797 153.018 320.297 155.017C319.673 157.016 317.424 158.765 315.05 158.515C312.302 158.14 308.804 157.765 308.804 157.765Z" fill="#F8BB9A"/>
<path d="M336.165 158.265C331.543 159.889 326.92 161.763 322.423 163.637C321.923 163.887 322.423 164.637 323.047 164.387C327.42 162.513 332.043 160.639 336.54 159.015C337.04 159.015 336.665 158.14 336.165 158.265Z" fill="#B2572A"/>
<path d="M324.294 167.885C323.42 164.012 321.671 160.389 319.047 157.14C318.672 156.641 317.923 157.015 318.297 157.64C320.796 160.763 322.545 164.262 323.42 167.885C323.545 168.509 324.544 168.509 324.294 167.885Z" fill="#B2572A"/>
<path d="M316.924 162.763C310.927 161.763 305.68 164.137 303.306 169.009C303.056 169.509 303.931 170.009 304.181 169.509C306.304 165.011 311.177 162.763 316.799 163.637C317.424 163.762 317.548 162.888 316.924 162.763Z" fill="#B2572A"/>
<path d="M237.098 185.875C237.098 187.624 237.098 189.373 236.974 191.122C236.599 205.239 234.975 219.107 233.35 227.228C232.226 232.849 230.727 240.97 229.852 246.342C229.228 249.59 225.855 268.33 225.855 268.33C216.734 271.579 186.501 277.45 155.892 263.333C155.892 263.333 154.143 233.474 151.02 219.107C150.021 214.235 148.646 209.737 147.147 206.114C143.649 198.243 139.401 187.999 139.026 179.628C138.902 176.255 139.276 173.257 140.651 170.758C141.9 168.384 144.024 166.635 147.272 165.636C159.016 162.013 172.258 156.391 177.256 154.267C178.63 153.642 179.38 153.392 179.38 153.392C179.38 153.392 196.495 150.644 210.113 150.144C216.734 149.894 222.606 150.144 225.105 151.518C230.102 154.267 233.6 161.013 235.474 169.759C236.599 174.756 237.098 180.253 237.098 185.875Z" fill="#FFB52F"/>
<path d="M164.886 199.118C161.014 210.362 157.141 221.481 153.143 232.724C153.018 233.224 153.767 233.474 154.017 232.974C157.89 221.73 161.763 210.611 165.761 199.367C165.886 198.868 165.011 198.618 164.886 199.118Z" fill="#B76F1A"/>
<path d="M202.742 267.206H202.617C202.242 267.081 202.117 266.831 202.242 266.456C208.489 239.721 202.242 196.994 202.242 196.494C202.242 196.119 202.367 195.869 202.742 195.869C203.117 195.869 203.367 195.994 203.367 196.369C203.491 196.744 209.738 239.721 203.367 266.706C203.367 267.081 203.117 267.206 202.742 267.206Z" fill="#B76F1A"/>
<path d="M157.392 220.481C159.766 233.849 161.016 247.217 161.14 260.834C161.14 261.584 162.265 261.584 162.265 260.834C162.14 247.092 160.891 233.599 158.517 220.106C158.392 219.482 157.268 219.732 157.392 220.481Z" fill="#B76F1A"/>
<path d="M156.01 259.46C173.251 265.832 191.741 268.83 210.106 267.206C215.353 266.706 220.475 265.957 225.598 264.707C226.347 264.582 225.973 263.458 225.348 263.583C202.36 268.83 178.373 266.456 156.385 258.211C155.635 258.211 155.386 259.21 156.01 259.46Z" fill="#B76F1A"/>
<path d="M176.625 155.141C176.625 155.141 186.745 182.502 199.738 184.625C212.73 186.749 205.484 156.016 205.484 156.016C205.484 156.016 180.373 150.519 176.625 155.141Z" fill="#F8BB9A"/>
<path d="M238.601 192.621C238.351 192.246 238.101 191.747 237.851 191.372C237.227 191.122 236.602 190.997 235.977 190.872C239.6 197.119 243.473 203.115 243.348 210.486C243.223 218.232 238.976 223.854 234.228 229.601C232.354 231.85 230.605 234.099 229.731 236.847C228.856 239.846 228.856 242.969 228.981 246.092C228.981 246.842 230.23 246.842 230.23 246.092C230.105 242.719 230.105 239.346 231.23 236.223C232.479 232.849 235.353 230.226 237.476 227.352C241.474 222.355 244.348 216.858 244.473 210.362C244.847 203.865 241.974 198.118 238.601 192.621Z" fill="#B76F1A"/>
<path d="M232.848 178.379C233.223 183.376 234.722 188.124 237.096 192.496C237.47 193.246 238.72 192.621 238.345 191.872C235.971 187.624 234.597 183.002 234.222 178.129C234.097 177.255 232.723 177.504 232.848 178.379Z" fill="#B76F1A"/>
<path d="M176.5 155.142C176.5 155.142 191.742 167.885 205.359 156.141L203.485 147.646L201.487 138.401L200.112 131.904L179.748 121.285L176.5 155.142Z" fill="#F8BB9A"/>
<path d="M184.492 131.779C193.612 147.646 201.983 153.018 204.606 152.518L201.483 138.151L184.492 131.779Z" fill="#2C2F37"/>
<path d="M177.496 150.019C177.496 150.019 167.751 153.642 162.879 160.139C162.879 160.139 170.5 172.007 168.751 177.504C168.751 177.504 178.121 173.507 183.493 178.879C188.99 184.376 202.732 195.495 202.732 195.495L199.609 183.626C199.734 183.626 182.993 168.135 177.496 150.019Z" fill="#FFCC72"/>
<path d="M204.229 150.519C204.229 150.519 211.85 146.646 218.472 150.519C218.472 150.519 216.848 169.134 220.221 175.131L202.98 195.62L199.857 183.751C199.732 183.626 208.602 171.882 204.229 150.519Z" fill="#FFCC72"/>
<path d="M176.875 150.269C178.999 155.017 181.622 159.514 184.746 163.637C187.119 166.885 189.993 171.008 194.24 171.633C197.988 172.257 201.611 169.634 203.361 166.51C205.734 162.263 205.235 157.015 204.61 152.393C204.61 151.893 203.61 151.893 203.735 152.393C204.235 156.766 204.86 161.638 202.736 165.636C200.862 169.259 196.739 172.007 192.616 170.258C188.868 168.634 186.12 164.386 183.871 161.013C181.372 157.515 179.249 153.642 177.5 149.769C177.375 149.27 176.625 149.769 176.875 150.269Z" fill="white"/>
<path d="M210.685 102.121C210.685 102.121 220.298 101.996 221.921 111.109C223.419 120.097 217.676 125.59 212.683 125.59C212.808 125.715 202.446 112.857 210.685 102.121Z" fill="white"/>
<path d="M172.883 117.037C175.382 123.284 177.506 125.283 182.878 131.03C187.75 136.152 195.246 138.276 198.994 138.276C212.612 138.026 218.484 131.904 214.861 113.664C212.737 102.295 215.235 95.6737 211.862 91.5509C211.612 91.426 211.487 91.1761 211.238 91.0512C205.99 86.9284 199.369 85.0544 192.748 85.5541C159.765 88.5525 169.26 108.042 172.883 117.037Z" fill="#F8BB9A"/>
<path d="M218.101 101.171C219.975 98.0474 210.98 76.0592 187.992 83.5552C187.992 83.5552 209.606 104.669 218.101 101.171Z" fill="#2C2F37"/>
<path d="M199.737 91.1759C199.737 91.1759 202.11 98.1722 190.991 101.67C179.872 105.168 193.365 115.663 182.746 118.036C182.746 118.036 183.87 109.541 176.624 111.04C169.253 112.539 172.252 120.41 168.753 116.537C165.255 112.789 161.382 89.302 176.624 84.3047C191.866 79.5572 199.737 91.1759 199.737 91.1759Z" fill="#2C2F37"/>
<path d="M199.986 114.788C197.987 113.664 195.988 113.164 193.739 113.539C192.989 113.664 192.989 112.539 193.614 112.414C195.988 112.04 198.362 112.539 200.485 113.789C201.11 114.164 200.61 115.163 199.986 114.788Z" fill="#2C2F37"/>
<path d="M211.733 112.664C210.108 112.914 208.609 113.539 207.36 114.288C206.735 114.663 206.111 113.789 206.735 113.289C208.234 112.29 209.984 111.665 211.733 111.415C212.482 111.415 212.482 112.664 211.733 112.664Z" fill="#2C2F37"/>
<path d="M199.984 122.909C202.733 125.407 206.356 125.782 209.604 124.158C210.229 123.783 209.729 122.909 209.105 123.159C206.356 124.658 203.108 124.283 200.859 122.159C200.234 121.659 199.36 122.409 199.984 122.909Z" fill="#2C2F37"/>
<path d="M205.729 119.286C206.479 119.036 207.978 118.287 207.728 116.787C207.603 115.288 206.229 114.789 205.229 114.789L204.23 112.915C204.105 112.665 203.855 112.665 203.605 112.665C203.355 112.79 203.355 113.039 203.355 113.289L204.48 115.413C204.605 115.538 204.73 115.663 204.855 115.663C204.98 115.663 206.479 115.663 206.604 116.912C206.729 118.037 205.354 118.412 205.229 118.412C204.98 118.412 204.855 118.661 204.855 118.911C205.229 119.161 205.479 119.286 205.729 119.286Z" fill="#2C2F37"/>
<path d="M206.62 129.406C205.245 130.03 203.746 130.155 202.622 129.156C201.997 128.656 202.747 127.781 203.371 128.281C204.246 128.906 205.245 128.656 206.245 128.281C206.869 128.031 207.369 129.156 206.62 129.406Z" fill="#E0733D"/>
<path d="M189.496 118.661C189.621 119.661 191.245 120.41 193.119 120.16C195.118 120.035 196.617 119.036 196.492 118.037C196.367 117.037 194.743 116.287 192.869 116.537C190.995 116.787 189.496 117.662 189.496 118.661Z" fill="#E0733D"/>
<path d="M209.73 117.912C209.855 118.911 211.479 119.661 213.353 119.411C214.227 119.286 215.102 119.036 215.727 118.661C215.602 117.787 215.477 116.912 215.352 116.038V115.913C214.727 115.663 213.978 115.663 213.103 115.663C211.104 116.038 209.605 116.912 209.73 117.912Z" fill="#E0733D"/>
<path d="M197.367 106.918C195.993 106.543 194.119 106.918 193.619 108.542C193.244 110.041 190.746 109.666 191.245 108.167C191.995 105.419 194.993 103.794 197.742 104.669C199.241 104.919 198.866 107.293 197.367 106.918Z" fill="#2C2F37"/>
<path d="M211.725 108.916C210.725 107.792 209.351 106.293 207.727 106.917C206.228 107.417 205.353 105.168 206.852 104.669C209.476 103.794 211.475 105.293 213.224 107.167C214.348 108.167 212.724 110.041 211.725 108.916Z" fill="#2C2F37"/>
<path d="M185.751 120.785C185.876 117.787 184.877 115.538 184.002 113.789C182.503 110.916 178.63 107.292 175.507 108.167C171.009 109.416 170.884 113.539 171.884 117.662C172.883 121.785 176.256 126.907 182.003 125.283C184.877 124.658 185.626 122.909 185.751 120.785Z" fill="#F8BB9A"/>
<path d="M179.995 120.785C179.995 119.036 179.995 117.287 179.12 115.663C178.371 114.289 176.497 112.29 174.748 113.039C174.123 113.289 173.623 112.415 174.248 112.165C175.997 111.415 177.871 112.29 179.12 113.664C180.869 115.663 181.244 118.287 181.119 120.785C181.119 121.535 179.995 121.535 179.995 120.785Z" fill="#2C2F37"/>
<path d="M226.974 283.697C226.974 283.697 281.319 249.216 306.556 249.091C331.792 248.966 356.903 280.574 295.936 308.684C234.844 336.793 188.744 336.294 188.744 336.294L178.25 312.182L226.974 283.697Z" fill="#6259B0"/>
<path d="M179.747 314.68L162.507 323.301C162.507 323.301 146.515 318.054 143.767 324.8C141.643 330.172 114.033 349.162 117.156 356.158C118.281 358.532 126.151 349.911 133.522 348.412C144.391 346.288 155.386 339.792 161.007 338.043C166.505 336.294 190.242 330.797 190.242 330.797C190.242 330.797 190.741 321.552 179.747 314.68Z" fill="#F8BB9A"/>
<path d="M309.802 256.337C318.547 260.335 325.044 268.205 327.417 277.575C327.542 278.075 328.417 277.95 328.292 277.325C325.918 267.831 319.172 259.71 310.302 255.587C309.677 255.337 309.302 256.087 309.802 256.337Z" fill="#362F7A"/>
<path d="M269.954 262.584C250.215 274.827 230.101 286.571 209.737 297.815C203.99 301.063 198.118 304.186 192.246 307.309C191.746 307.559 192.246 308.309 192.746 308.059C213.235 297.065 233.599 285.696 253.463 273.703C259.085 270.329 264.832 266.831 270.454 263.333C270.954 262.958 270.454 262.209 269.954 262.584Z" fill="#362F7A"/>
<path d="M185.869 82.6806C186.494 82.0559 193.365 70.3123 183.121 63.1911C172.002 55.4453 157.135 66.6892 158.01 75.8093C158.884 84.8044 173.626 95.1738 185.869 82.6806Z" fill="#2C2F37"/>
<path d="M166.634 283.697C166.634 283.697 112.288 249.216 87.0516 249.091C61.8152 248.966 36.7038 280.574 97.6708 308.684C158.763 336.793 196.992 345.289 196.992 345.289C194.993 337.668 200.865 328.548 215.357 317.429L166.634 283.697Z" fill="#6259B0"/>
<path d="M75.5566 257.212C68.4355 262.084 64.4376 270.704 65.1872 279.325C65.1872 279.824 66.0618 279.949 66.0618 279.325C65.3122 271.079 69.1851 262.709 76.0564 257.961C76.4312 257.586 75.9314 256.837 75.5566 257.212Z" fill="#362F7A"/>
<path d="M208.612 313.056C198.243 318.928 188.748 331.046 189.622 343.54C189.622 344.039 190.497 344.164 190.497 343.54C189.622 331.296 198.867 319.553 208.987 313.806C209.487 313.556 209.112 312.806 208.612 313.056Z" fill="#362F7A"/>
<path d="M114.413 260.46C127.656 265.582 140.524 271.953 152.767 279.199C158.764 282.698 164.511 286.446 170.383 290.194C176.005 293.692 181.502 297.315 186.999 301.063C193.37 305.435 199.617 310.058 205.614 315.055C205.989 315.43 206.613 314.805 206.238 314.43C195.744 305.81 184.5 298.189 173.006 290.943C161.138 283.322 149.269 275.826 136.651 269.455C129.53 265.832 122.159 262.583 114.663 259.585C114.163 259.46 113.913 260.335 114.413 260.46Z" fill="#362F7A"/>
<path d="M215.483 317.429C215.483 317.429 220.231 318.553 214.109 331.671C207.987 344.789 197.118 345.289 197.118 345.289C192.496 332.796 215.483 317.429 215.483 317.429Z" fill="#2C2F37"/>
<path d="M208.49 321.802L225.731 330.422C225.731 330.422 241.722 325.175 244.471 331.921C246.594 337.293 274.204 356.283 271.081 363.279C269.957 365.653 262.086 357.032 254.715 355.533C243.846 353.409 232.852 346.913 227.23 345.164C221.733 343.415 197.996 337.918 197.996 337.918C197.996 337.918 197.496 328.673 208.49 321.802Z" fill="#F8BB9A"/>
<path d="M175.682 103.668C175.682 103.668 165.804 106.138 166.627 116.291C167.313 126.444 178.701 130.423 183.777 128.365C183.777 128.365 188.717 110.94 175.682 103.668Z" fill="white"/>
<path d="M172.387 106.687C171.975 106.687 171.564 106.412 171.564 106.001C171.426 105.452 168.271 91.4569 174.719 81.4409C177.738 76.776 182.403 73.7575 188.577 72.5226C189.126 72.3854 189.538 72.797 189.675 73.2087C189.812 73.7575 189.4 74.1691 188.989 74.3063C183.363 75.4039 178.973 78.148 176.229 82.4014C170.192 91.7313 173.347 105.452 173.347 105.589C173.485 106.001 173.21 106.549 172.661 106.687C172.524 106.687 172.524 106.687 172.387 106.687Z" fill="white"/>
<path d="M173.898 104.354C173.898 104.354 184.875 113.273 181.033 128.639" stroke="#272B34" stroke-width="1.25" stroke-miterlimit="10" stroke-linecap="round" stroke-linejoin="round"/>
<mask id="mask1_7160_306078" style="mask-type:alpha" maskUnits="userSpaceOnUse" x="45" y="76" width="311" height="311">
<circle cx="200.683" cy="231.585" r="155.081" fill="black"/>
</mask>
<g mask="url(#mask1_7160_306078)">
<path d="M124.727 264.507H263.509L265.036 261.037C266.007 258.956 263.509 256.735 260.04 256.735H132.082C129.723 256.735 127.78 257.707 127.086 259.094L124.727 264.507Z" fill="white"/>
<path d="M291.116 173.605L274.462 244.245C274.045 246.188 272.38 247.437 270.437 247.437H167.46C164.823 247.437 162.742 244.939 163.436 242.302L180.09 171.662C180.506 169.719 182.171 168.47 184.114 168.47H287.091C289.728 168.47 291.671 170.968 291.116 173.605Z" fill="white"/>
<path d="M275.169 240.498L171.221 239.942C170.805 239.942 170.527 239.665 170.527 239.248C170.527 238.832 170.805 238.555 171.221 238.555L275.169 239.11C275.586 239.11 275.863 239.387 275.863 239.804C275.863 240.22 275.586 240.498 275.169 240.498Z" fill="#272B34"/>
<path d="M241.034 210.659C240.479 215.1 236.593 218.709 232.152 218.709C227.711 218.709 224.519 215.1 224.935 210.659C225.49 206.218 229.376 202.61 233.817 202.61C238.258 202.61 241.589 206.218 241.034 210.659Z" fill="#272B34"/>
<path d="M188.168 168.47L170.404 247.576H167.351C164.714 247.576 162.632 245.078 163.326 242.441L179.98 171.801C180.396 169.858 182.062 168.609 184.005 168.609H188.168V168.47Z" fill="#272B34"/>
<path d="M217.999 247.437L214.391 264.229H224.799L228.269 247.437H217.999Z" fill="white"/>
<path d="M199.402 261.454L201.484 258.539C202.178 257.429 203.427 256.874 204.815 256.874H233.126C234.653 256.874 236.041 257.707 236.735 259.094L238.123 261.87C238.817 263.119 237.845 264.646 236.457 264.646H201.068C199.402 264.507 198.431 262.703 199.402 261.454Z" fill="white"/>
<path d="M100.459 520.006C99.0711 520.006 97.6833 519.173 97.267 517.646L15.524 272.14C14.9689 270.336 15.9404 268.393 17.6057 267.837C19.4099 267.282 21.3529 268.254 21.908 269.919L103.651 515.564C104.206 517.369 103.235 519.312 101.569 519.867C101.153 519.867 100.875 520.006 100.459 520.006Z" fill="#63636D"/>
<path d="M-27.3564 520.006C-27.7728 520.006 -28.0503 520.006 -28.4667 519.867C-30.2708 519.312 -31.2423 517.369 -30.5484 515.564L51.1945 270.058C51.7497 268.254 53.6926 267.282 55.4968 267.976C57.301 268.531 58.2725 270.474 57.5786 272.279L-24.1644 517.646C-24.5808 519.034 -25.8298 520.006 -27.3564 520.006Z" fill="#63636D"/>
<path d="M432.271 520.006C430.884 520.006 429.496 519.173 429.079 517.646L347.337 272.14C346.781 270.336 347.753 268.393 349.418 267.837C351.222 267.282 353.027 268.254 353.721 269.919L435.463 515.564C436.019 517.369 435.047 519.312 433.382 519.867C433.104 519.867 432.688 520.006 432.271 520.006Z" fill="#63636D"/>
<path d="M304.605 520.006C304.188 520.006 303.911 520.006 303.494 519.867C301.69 519.312 300.719 517.369 301.413 515.565L383.155 270.058C383.711 268.254 385.654 267.283 387.458 267.977C389.262 268.532 390.233 270.475 389.539 272.279L307.797 517.785C307.241 519.034 305.992 520.006 304.605 520.006Z" fill="#63636D"/>
<path d="M417.978 264.368V277.275C417.978 277.969 417.84 278.524 417.701 279.218C417.562 280.05 417.146 280.883 416.729 281.716C414.786 285.185 410.484 287.545 405.488 287.545H-31.9549C-36.9511 287.545 -41.1145 285.185 -43.1963 281.716C-43.6126 280.883 -43.8902 280.189 -44.1678 279.218C-44.3065 278.524 -44.4453 277.969 -44.4453 277.275V264.368H417.978Z" fill="#272B34"/>
<path d="M417.701 279.218C417.562 280.05 417.145 280.883 416.729 281.716H-43.1965C-43.6128 280.883 -43.8904 280.189 -44.168 279.218H417.701Z" fill="#63636D"/>
<path d="M64.8388 233.697C64.4225 233.697 63.8674 233.697 63.451 233.836C62.202 233.975 60.9529 234.391 59.8426 234.946C56.3731 236.75 53.875 240.497 53.875 244.661C53.875 250.628 58.7324 255.625 64.8388 255.625C65.1164 255.625 65.394 255.625 65.5327 255.625C66.0879 255.625 66.643 255.486 67.1981 255.347C72.0555 254.237 75.6639 249.935 75.6639 244.661C75.8027 238.554 70.8065 233.697 64.8388 233.697ZM66.5042 250.906C65.9491 251.045 65.394 251.045 64.8388 251.045C64.7 251.045 64.5613 251.045 64.4225 251.045C61.0917 250.767 58.4548 247.992 58.4548 244.522C58.4548 242.302 59.5651 240.359 61.2305 239.248C62.0632 238.554 63.1734 238.138 64.2837 238.138C64.5613 238.138 64.7 238.138 64.9776 238.138C68.586 238.138 71.5004 241.052 71.5004 244.661C71.3616 247.575 69.2799 250.212 66.5042 250.906Z" fill="#FE829E"/>
<path d="M63.45 233.836L64.2827 238.138C63.1725 238.277 62.0622 238.693 61.2295 239.248L59.9805 234.807C60.9519 234.391 62.201 233.975 63.45 233.836Z" fill="#C74279"/>
<path d="M67.1957 255.208C66.6406 255.347 66.0854 255.347 65.5303 255.486L64.2812 251.045C64.42 251.045 64.5588 251.045 64.6976 251.045C65.2527 251.045 65.8079 250.906 66.363 250.906L67.1957 255.208Z" fill="#C74279"/>
<path d="M97.5929 224.815L97.0378 228.285L96.6214 230.783L91.764 258.678L91.3477 261.037L90.7926 264.368H68.5874L68.0322 261.037L67.6159 258.678L62.8973 230.783L62.4809 228.285L61.9258 224.815H97.5929Z" fill="#FE829E"/>
<path d="M97.0373 228.285L96.621 230.783H62.8968L62.4805 228.285H97.0373Z" fill="#FFB6C9"/>
<path d="M91.7693 258.678L91.3529 261.037H68.0374L67.6211 258.678H91.7693Z" fill="#FFB6C9"/>
</g>
</svg>
