<svg width="24" height="24" viewBox="0 0 24 24" fill="none" xmlns="http://www.w3.org/2000/svg">
<defs>
<linearGradient id="paint0_linear_901_70" x1="12" y1="0" x2="12" y2="24" gradientUnits="userSpaceOnUse">
<stop stop-color="#57A3FF"/>
<stop offset="1" stop-color="#3C82FB"/>
</linearGradient>
</defs>
<path d="M7.92031 0H16.0797C20.4546 0 24 3.54532 24 7.92031V16.0797C24 20.4532 20.4546 24 16.0797 24H7.92031C3.54532 24 0 20.4546 0 16.0797V7.92031C0 3.54532 3.54532 0 7.92031 0Z" fill="url(#paint0_linear_901_70)"/>
<path d="M16.1876 14.1984L17.4219 15.2265C17.7235 15.4782 17.875 15.6047 17.9969 15.6343C18.2468 15.6954 18.5047 15.575 18.6172 15.3438C18.6719 15.2312 18.6719 15.0343 18.6719 14.6406V9.35936C18.6719 8.96564 18.6719 8.76877 18.6172 8.65626C18.5047 8.42501 18.2468 8.3047 17.9969 8.36564C17.875 8.39533 17.7235 8.52189 17.4219 8.77345L16.1876 9.8016C15.986 9.96877 15.886 10.0531 15.8047 10.1484C15.6422 10.3406 15.5344 10.5719 15.4906 10.8187C15.4687 10.9422 15.4688 11.0734 15.4688 11.3344V12.6656C15.4688 12.9266 15.4687 13.0579 15.4906 13.1813C15.5344 13.4281 15.6422 13.6594 15.8047 13.8516C15.886 13.9484 15.9875 14.0312 16.1876 14.1984Z" fill="white"/>
<path d="M5.32812 9.67653C5.32812 9.18282 5.32812 8.93594 5.425 8.74688C5.50938 8.58125 5.64375 8.44688 5.81094 8.36094C6 8.26406 6.24688 8.26406 6.74063 8.26406H11.2407C12.5344 8.26406 13.1813 8.26406 13.675 8.51563C14.1094 8.7375 14.4625 9.09063 14.6844 9.52496C14.9359 10.0187 14.9359 10.6656 14.9359 11.9578V14.3219C14.9359 14.8157 14.9359 15.0625 14.8391 15.2515C14.7547 15.4172 14.6203 15.5515 14.4532 15.6375C14.264 15.7344 14.0172 15.7344 13.5234 15.7344H9.02344C7.72969 15.7344 7.08282 15.7344 6.58907 15.4828C6.15469 15.261 5.80156 14.9078 5.57969 14.4735C5.32812 13.9797 5.32812 13.3328 5.32812 12.0406V9.67653Z" fill="white"/>
</svg>
