<svg width="20" height="20" viewBox="0 0 20 20" fill="none" xmlns="http://www.w3.org/2000/svg">
<path fill-rule="evenodd" clip-rule="evenodd" d="M8.50588 5.17259C8.83132 4.84715 8.83132 4.31951 8.50588 3.99408C8.18045 3.66864 7.65281 3.66864 7.32737 3.99408L1.9107 9.41074C1.58527 9.73618 1.58527 10.2638 1.9107 10.5893L7.32737 16.0059C7.65281 16.3314 8.18045 16.3314 8.50588 16.0059C8.83132 15.6805 8.83132 15.1528 8.50588 14.8274L3.67847 10L8.50588 5.17259ZM11.494 5.17259C11.1686 4.84715 11.1686 4.31951 11.494 3.99408C11.8195 3.66864 12.3471 3.66864 12.6725 3.99408L18.0892 9.41074C18.4147 9.73618 18.4147 10.2638 18.0892 10.5893L12.6725 16.0059C12.3471 16.3314 11.8195 16.3314 11.494 16.0059C11.1686 15.6805 11.1686 15.1528 11.494 14.8274L16.3214 10L11.494 5.17259Z" fill="#26282C"/>
</svg>
