<svg width="20" height="20" viewBox="0 0 20 20" fill="none" xmlns="http://www.w3.org/2000/svg">
<path fill-rule="evenodd" clip-rule="evenodd" d="M6.66671 3.33325C6.20647 3.33325 5.83337 3.70635 5.83337 4.16659V15.8333C5.83337 16.2935 6.20647 16.6666 6.66671 16.6666H12.0834C14.1544 16.6666 15.8334 14.9877 15.8334 12.9166C15.8334 11.2978 14.8077 9.91865 13.3708 9.39343C13.8695 8.7567 14.1667 7.95469 14.1667 7.08325C14.1667 5.01218 12.4878 3.33325 10.4167 3.33325H6.66671ZM10.4167 9.16658C11.5673 9.16658 12.5 8.23385 12.5 7.08325C12.5 5.93266 11.5673 4.99992 10.4167 4.99992H7.50004V9.16658H10.4167ZM14.1667 12.9166C14.1667 11.766 13.234 10.8333 12.0834 10.8333H7.50004V14.9999H12.0834C13.234 14.9999 14.1667 14.0672 14.1667 12.9166Z" fill="#26282C"/>
</svg>
