<svg width="20" height="20" viewBox="0 0 20 20" fill="none" xmlns="http://www.w3.org/2000/svg">
<path d="M8.33329 2.5C5.72295 2.5 4.16663 4.6095 4.16663 6.66667C4.16663 6.94527 4.19517 7.22484 4.25102 7.5H5.97053C5.88026 7.2335 5.83329 6.95139 5.83329 6.66667C5.83329 5.3905 6.77697 4.16667 8.33329 4.16667H11.6666C12.3763 4.16667 13.0384 4.34662 13.496 4.65171C13.929 4.94033 14.1666 5.32326 14.1666 5.83333C14.1666 6.29357 14.5397 6.66667 15 6.66667C15.4602 6.66667 15.8333 6.29357 15.8333 5.83333C15.8333 4.67674 15.2376 3.80967 14.4205 3.26496C13.6282 2.73671 12.6236 2.5 11.6666 2.5H8.33329Z" fill="#26282C"/>
<path d="M1.66663 10C1.66663 9.53976 2.03972 9.16667 2.49996 9.16667H17.5C17.9602 9.16667 18.3333 9.53976 18.3333 10C18.3333 10.4602 17.9602 10.8333 17.5 10.8333H15.8175C16.3671 11.5099 16.6666 12.3622 16.6666 13.3333C16.6666 14.6387 16.0986 15.7137 15.1554 16.4411C14.2327 17.1528 12.9978 17.5 11.6666 17.5H7.49996C4.88962 17.5 3.33329 15.3905 3.33329 13.3333C3.33329 12.8731 3.70639 12.5 4.16663 12.5C4.62686 12.5 4.99996 12.8731 4.99996 13.3333C4.99996 14.6095 5.94363 15.8333 7.49996 15.8333H11.6666C12.7262 15.8333 13.5747 15.5555 14.1376 15.1214C14.6801 14.703 15 14.1113 15 13.3333C15 12.5374 14.693 11.9496 14.1726 11.5407C13.6301 11.1145 12.7879 10.8333 11.6666 10.8333H2.49996C2.03972 10.8333 1.66663 10.4602 1.66663 10Z" fill="#26282C"/>
</svg>
