<svg width="24" height="24" viewBox="0 0 24 24" fill="none" xmlns="http://www.w3.org/2000/svg">
<path fill-rule="evenodd" clip-rule="evenodd" d="M10 10.25C10.4142 10.25 10.75 10.5858 10.75 11V17C10.75 17.4142 10.4142 17.75 10 17.75C9.58579 17.75 9.25 17.4142 9.25 17V11C9.25 10.5858 9.58579 10.25 10 10.25Z" fill="#18202A"/>
<path fill-rule="evenodd" clip-rule="evenodd" d="M14 10.25C14.4142 10.25 14.75 10.5858 14.75 11V17C14.75 17.4142 14.4142 17.75 14 17.75C13.5858 17.75 13.25 17.4142 13.25 17V11C13.25 10.5858 13.5858 10.25 14 10.25Z" fill="#18202A"/>
<path fill-rule="evenodd" clip-rule="evenodd" d="M18.5 6.5H5.5V17C5.5 19.4853 7.51472 21.5 10 21.5H14C16.4853 21.5 18.5 19.4853 18.5 17V6.5ZM4 5V17C4 20.3137 6.68629 23 10 23H14C17.3137 23 20 20.3137 20 17V5H4Z" fill="#18202A"/>
<path d="M2 5.75C2 5.33579 2.33579 5 2.75 5H21.25C21.6642 5 22 5.33579 22 5.75C22 6.16421 21.6642 6.5 21.25 6.5H2.75C2.33579 6.5 2 6.16421 2 5.75Z" fill="#18202A"/>
<path fill-rule="evenodd" clip-rule="evenodd" d="M13 2.5H11C10.1716 2.5 9.5 3.17157 9.5 4V5H14.5V4C14.5 3.17157 13.8284 2.5 13 2.5ZM11 1C9.34315 1 8 2.34315 8 4V6.5H16V4C16 2.34315 14.6569 1 13 1H11Z" fill="#18202A"/>
</svg>
