<svg width="24" height="24" viewBox="0 0 24 24" fill="none" xmlns="http://www.w3.org/2000/svg">
<path d="M10 2.75C10 3.16421 9.66421 3.5 9.25 3.5H6C4.61929 3.5 3.5 4.61929 3.5 6V18C3.5 19.3807 4.61929 20.5 6 20.5H18C19.3807 20.5 20.5 19.3807 20.5 18V14.75C20.5 14.3358 20.8358 14 21.25 14C21.6642 14 22 14.3358 22 14.75V18C22 20.2091 20.2091 22 18 22H6C3.79086 22 2 20.2091 2 18V6C2 3.79086 3.79086 2 6 2H9.25C9.66421 2 10 2.33579 10 2.75Z" fill="#18202A"/>
<path fill-rule="evenodd" clip-rule="evenodd" d="M14 3.5C13.5858 3.5 13.25 3.16421 13.25 2.75C13.25 2.33579 13.5858 2 14 2H21.25C21.6642 2 22 2.33579 22 2.75V10C22 10.4142 21.6642 10.75 21.25 10.75C20.8358 10.75 20.5 10.4142 20.5 10V4.56066L11.0303 14.0303C10.7374 14.3232 10.2626 14.3232 9.96967 14.0303C9.67678 13.7374 9.67678 13.2626 9.96967 12.9697L19.4393 3.5H14Z" fill="#18202A"/>
</svg>
